{
	"patcher" : 	{
		"fileversion" : 1,
		"rect" : [ 90.0, 83.0, 1014.0, 787.0 ],
		"bglocked" : 0,
		"defrect" : [ 90.0, 83.0, 1014.0, 787.0 ],
		"openrect" : [ 0.0, 0.0, 0.0, 0.0 ],
		"openinpresentation" : 1,
		"default_fontsize" : 10.0,
		"default_fontface" : 0,
		"default_fontname" : "Verdana",
		"gridonopen" : 0,
		"gridsize" : [ 5.0, 5.0 ],
		"gridsnaponopen" : 0,
		"toolbarvisible" : 1,
		"boxanimatetime" : 200,
		"imprint" : 0,
		"metadata" : [  ],
		"boxes" : [ 			{
				"box" : 				{
					"maxclass" : "newobj",
					"text" : "jcom.meter_receive 2",
					"numoutlets" : 1,
					"fontname" : "Verdana",
					"outlettype" : [ "" ],
					"fontsize" : 10.0,
					"patching_rect" : [ 395.0, 60.0, 141.0, 19.0 ],
					"numinlets" : 0,
					"id" : "obj-51"
				}

			}
, 			{
				"box" : 				{
					"maxclass" : "newobj",
					"text" : "jcom.meter_receive 1",
					"numoutlets" : 1,
					"fontname" : "Verdana",
					"outlettype" : [ "" ],
					"fontsize" : 10.0,
					"patching_rect" : [ 395.0, 15.0, 141.0, 19.0 ],
					"numinlets" : 0,
					"id" : "obj-8"
				}

			}
, 			{
				"box" : 				{
					"maxclass" : "jcom.meter~",
					"numoutlets" : 0,
					"presentation_rect" : [ 151.0, 10.0, 80.0, 4.0 ],
					"patching_rect" : [ 395.0, 85.0, 80.0, 4.0 ],
					"numinlets" : 1,
					"presentation" : 1,
					"id" : "obj-50"
				}

			}
, 			{
				"box" : 				{
					"maxclass" : "jcom.meter~",
					"numoutlets" : 0,
					"presentation_rect" : [ 151.0, 5.0, 80.0, 4.0 ],
					"patching_rect" : [ 395.0, 40.0, 80.0, 4.0 ],
					"numinlets" : 1,
					"presentation" : 1,
					"id" : "obj-49"
				}

			}
, 			{
				"box" : 				{
					"maxclass" : "newobj",
					"text" : "pcontrol",
					"numoutlets" : 1,
					"fontname" : "Verdana",
					"outlettype" : [ "" ],
					"fontsize" : 10.0,
					"patching_rect" : [ 573.0, 652.0, 52.0, 19.0 ],
					"numinlets" : 1,
					"id" : "obj-1"
				}

			}
, 			{
				"box" : 				{
					"maxclass" : "newobj",
					"text" : "jcom.algorithm_control~",
					"numoutlets" : 2,
					"fontname" : "Verdana",
					"outlettype" : [ "", "" ],
					"fontsize" : 10.0,
					"patching_rect" : [ 440.0, 628.0, 159.0, 19.0 ],
					"numinlets" : 1,
					"id" : "obj-2"
				}

			}
, 			{
				"box" : 				{
					"maxclass" : "newobj",
					"text" : "jcom.out~ 2",
					"numoutlets" : 3,
					"fontname" : "Verdana",
					"outlettype" : [ "signal", "signal", "" ],
					"fontsize" : 10.0,
					"patching_rect" : [ 390.0, 711.0, 71.0, 19.0 ],
					"numinlets" : 2,
					"id" : "obj-3"
				}

			}
, 			{
				"box" : 				{
					"maxclass" : "newobj",
					"text" : "jcom.in~ 2",
					"numoutlets" : 4,
					"fontname" : "Verdana",
					"outlettype" : [ "signal", "signal", "", "" ],
					"fontsize" : 10.0,
					"patching_rect" : [ 390.0, 605.0, 96.0, 19.0 ],
					"numinlets" : 2,
					"id" : "obj-4"
				}

			}
, 			{
				"box" : 				{
					"maxclass" : "newobj",
					"text" : "t 1 s 0",
					"numoutlets" : 3,
					"fontname" : "Verdana",
					"outlettype" : [ "int", "", "int" ],
					"fontsize" : 10.0,
					"patching_rect" : [ 295.0, 160.0, 44.0, 19.0 ],
					"numinlets" : 1,
					"id" : "obj-5"
				}

			}
, 			{
				"box" : 				{
					"maxclass" : "newobj",
					"text" : "p DecodeFilterGraph",
					"numoutlets" : 3,
					"fontname" : "Verdana",
					"outlettype" : [ "", "", "" ],
					"fontsize" : 10.0,
					"patching_rect" : [ 55.0, 330.0, 111.0, 19.0 ],
					"numinlets" : 4,
					"id" : "obj-6",
					"patcher" : 					{
						"fileversion" : 1,
						"rect" : [ 564.0, 189.0, 562.0, 357.0 ],
						"bglocked" : 0,
						"defrect" : [ 564.0, 189.0, 562.0, 357.0 ],
						"openrect" : [ 0.0, 0.0, 0.0, 0.0 ],
						"openinpresentation" : 0,
						"default_fontsize" : 10.0,
						"default_fontface" : 0,
						"default_fontname" : "Verdana",
						"gridonopen" : 0,
						"gridsize" : [ 5.0, 5.0 ],
						"gridsnaponopen" : 0,
						"toolbarvisible" : 1,
						"boxanimatetime" : 200,
						"imprint" : 0,
						"metadata" : [  ],
						"boxes" : [ 							{
								"box" : 								{
									"maxclass" : "comment",
									"text" : "Else \"Restore Default Settings\" will not function properly as past values for q, filtergain and cf maintained in FilterGraph will overrule the attempt to reset values to defaults.",
									"linecount" : 2,
									"numoutlets" : 0,
									"fontname" : "Verdana",
									"fontsize" : 10.0,
									"patching_rect" : [ 35.0, 270.0, 460.0, 31.0 ],
									"numinlets" : 1,
									"id" : "obj-1",
									"frgb" : [ 0.0, 0.0, 0.0, 1.0 ]
								}

							}
, 							{
								"box" : 								{
									"maxclass" : "outlet",
									"numoutlets" : 0,
									"patching_rect" : [ 145.0, 195.0, 26.0, 26.0 ],
									"numinlets" : 1,
									"id" : "obj-2",
									"comment" : ""
								}

							}
, 							{
								"box" : 								{
									"maxclass" : "outlet",
									"numoutlets" : 0,
									"patching_rect" : [ 90.0, 195.0, 26.0, 26.0 ],
									"numinlets" : 1,
									"id" : "obj-3",
									"comment" : ""
								}

							}
, 							{
								"box" : 								{
									"maxclass" : "outlet",
									"numoutlets" : 0,
									"patching_rect" : [ 35.0, 195.0, 26.0, 26.0 ],
									"numinlets" : 1,
									"id" : "obj-4",
									"comment" : ""
								}

							}
, 							{
								"box" : 								{
									"maxclass" : "newobj",
									"text" : "atodb",
									"numoutlets" : 1,
									"fontname" : "Verdana",
									"outlettype" : [ "" ],
									"fontsize" : 10.0,
									"patching_rect" : [ 90.0, 155.0, 37.0, 19.0 ],
									"numinlets" : 1,
									"id" : "obj-5"
								}

							}
, 							{
								"box" : 								{
									"maxclass" : "inlet",
									"numoutlets" : 1,
									"outlettype" : [ "float" ],
									"patching_rect" : [ 175.0, 35.0, 26.0, 26.0 ],
									"numinlets" : 0,
									"id" : "obj-6",
									"comment" : ""
								}

							}
, 							{
								"box" : 								{
									"maxclass" : "inlet",
									"numoutlets" : 1,
									"outlettype" : [ "float" ],
									"patching_rect" : [ 120.0, 35.0, 26.0, 26.0 ],
									"numinlets" : 0,
									"id" : "obj-7",
									"comment" : ""
								}

							}
, 							{
								"box" : 								{
									"maxclass" : "inlet",
									"numoutlets" : 1,
									"outlettype" : [ "float" ],
									"patching_rect" : [ 65.0, 35.0, 26.0, 26.0 ],
									"numinlets" : 0,
									"id" : "obj-8",
									"comment" : ""
								}

							}
, 							{
								"box" : 								{
									"maxclass" : "newobj",
									"text" : "gate 1 1",
									"numoutlets" : 1,
									"fontname" : "Verdana",
									"outlettype" : [ "" ],
									"fontsize" : 10.0,
									"patching_rect" : [ 145.0, 125.0, 52.0, 19.0 ],
									"numinlets" : 2,
									"id" : "obj-9"
								}

							}
, 							{
								"box" : 								{
									"maxclass" : "newobj",
									"text" : "gate 1 1",
									"numoutlets" : 1,
									"fontname" : "Verdana",
									"outlettype" : [ "" ],
									"fontsize" : 10.0,
									"patching_rect" : [ 90.0, 125.0, 52.0, 19.0 ],
									"numinlets" : 2,
									"id" : "obj-10"
								}

							}
, 							{
								"box" : 								{
									"maxclass" : "newobj",
									"text" : "gate 1 1",
									"numoutlets" : 1,
									"fontname" : "Verdana",
									"outlettype" : [ "" ],
									"fontsize" : 10.0,
									"patching_rect" : [ 35.0, 125.0, 52.0, 19.0 ],
									"numinlets" : 2,
									"id" : "obj-11"
								}

							}
, 							{
								"box" : 								{
									"maxclass" : "inlet",
									"numoutlets" : 1,
									"outlettype" : [ "int" ],
									"patching_rect" : [ 263.0, 35.0, 26.0, 26.0 ],
									"numinlets" : 0,
									"id" : "obj-12",
									"comment" : ""
								}

							}
, 							{
								"box" : 								{
									"maxclass" : "comment",
									"text" : "Output from FilterFraph has to be muted when filtertype is changes.",
									"numoutlets" : 0,
									"fontname" : "Verdana",
									"fontsize" : 10.0,
									"patching_rect" : [ 35.0, 240.0, 354.0, 19.0 ],
									"numinlets" : 1,
									"id" : "obj-13",
									"frgb" : [ 0.0, 0.0, 0.0, 1.0 ]
								}

							}
 ],
						"lines" : [ 							{
								"patchline" : 								{
									"source" : [ "obj-12", 0 ],
									"destination" : [ "obj-11", 0 ],
									"hidden" : 0,
									"midpoints" : [  ]
								}

							}
, 							{
								"patchline" : 								{
									"source" : [ "obj-11", 0 ],
									"destination" : [ "obj-4", 0 ],
									"hidden" : 0,
									"midpoints" : [  ]
								}

							}
, 							{
								"patchline" : 								{
									"source" : [ "obj-8", 0 ],
									"destination" : [ "obj-11", 1 ],
									"hidden" : 0,
									"midpoints" : [  ]
								}

							}
, 							{
								"patchline" : 								{
									"source" : [ "obj-12", 0 ],
									"destination" : [ "obj-10", 0 ],
									"hidden" : 0,
									"midpoints" : [  ]
								}

							}
, 							{
								"patchline" : 								{
									"source" : [ "obj-10", 0 ],
									"destination" : [ "obj-5", 0 ],
									"hidden" : 0,
									"midpoints" : [  ]
								}

							}
, 							{
								"patchline" : 								{
									"source" : [ "obj-5", 0 ],
									"destination" : [ "obj-3", 0 ],
									"hidden" : 0,
									"midpoints" : [  ]
								}

							}
, 							{
								"patchline" : 								{
									"source" : [ "obj-7", 0 ],
									"destination" : [ "obj-10", 1 ],
									"hidden" : 0,
									"midpoints" : [  ]
								}

							}
, 							{
								"patchline" : 								{
									"source" : [ "obj-12", 0 ],
									"destination" : [ "obj-9", 0 ],
									"hidden" : 0,
									"midpoints" : [  ]
								}

							}
, 							{
								"patchline" : 								{
									"source" : [ "obj-9", 0 ],
									"destination" : [ "obj-2", 0 ],
									"hidden" : 0,
									"midpoints" : [  ]
								}

							}
, 							{
								"patchline" : 								{
									"source" : [ "obj-6", 0 ],
									"destination" : [ "obj-9", 1 ],
									"hidden" : 0,
									"midpoints" : [  ]
								}

							}
 ]
					}
,
					"saved_object_attributes" : 					{
						"default_fontsize" : 10.0,
						"fontname" : "Verdana",
						"globalpatchername" : "",
						"fontface" : 0,
						"fontsize" : 10.0,
						"default_fontface" : 0,
						"default_fontname" : "Verdana"
					}

				}

			}
, 			{
				"box" : 				{
					"maxclass" : "message",
					"text" : "/documentation/generate",
					"numoutlets" : 1,
					"fontname" : "Verdana",
					"outlettype" : [ "" ],
					"fontsize" : 10.0,
					"patching_rect" : [ 140.0, 655.0, 139.0, 17.0 ],
					"numinlets" : 2,
					"id" : "obj-7"
				}

			}
, 			{
				"box" : 				{
					"maxclass" : "umenu",
					"varname" : "FilterType",
					"numoutlets" : 3,
					"labelclick" : 1,
					"fontname" : "Verdana",
					"outlettype" : [ "int", "", "" ],
					"presentation_rect" : [ 5.0, 25.0, 85.0, 19.0 ],
					"items" : [ "lowpass", ",", "highpass", ",", "bandpass", ",", "bandstop", ",", "peaknotch", ",", "lowshelf", ",", "highshelf" ],
					"fontsize" : 10.0,
					"types" : [  ],
					"patching_rect" : [ 43.0, 89.0, 81.0, 19.0 ],
					"numinlets" : 1,
					"presentation" : 1,
					"rounded" : 15,
					"id" : "obj-9"
				}

			}
, 			{
				"box" : 				{
					"maxclass" : "newobj",
					"text" : "r #0_xxx_to_filtergraph",
					"numoutlets" : 1,
					"fontname" : "Verdana",
					"outlettype" : [ "" ],
					"fontsize" : 10.0,
					"patching_rect" : [ 95.0, 210.0, 137.0, 19.0 ],
					"numinlets" : 0,
					"id" : "obj-10"
				}

			}
, 			{
				"box" : 				{
					"maxclass" : "newobj",
					"text" : "s #0_xxx_to_filtergraph",
					"numoutlets" : 0,
					"fontname" : "Verdana",
					"fontsize" : 10.0,
					"patching_rect" : [ 55.0, 583.0, 138.0, 19.0 ],
					"numinlets" : 1,
					"id" : "obj-11"
				}

			}
, 			{
				"box" : 				{
					"maxclass" : "newobj",
					"text" : "p PrepareForFiltergraph~",
					"numoutlets" : 1,
					"fontname" : "Verdana",
					"outlettype" : [ "" ],
					"fontsize" : 10.0,
					"patching_rect" : [ 55.0, 559.0, 137.0, 19.0 ],
					"numinlets" : 3,
					"id" : "obj-12",
					"patcher" : 					{
						"fileversion" : 1,
						"rect" : [ 91.0, 247.0, 597.0, 355.0 ],
						"bglocked" : 0,
						"defrect" : [ 91.0, 247.0, 597.0, 355.0 ],
						"openrect" : [ 0.0, 0.0, 0.0, 0.0 ],
						"openinpresentation" : 0,
						"default_fontsize" : 10.0,
						"default_fontface" : 0,
						"default_fontname" : "Verdana",
						"gridonopen" : 0,
						"gridsize" : [ 10.0, 5.0 ],
						"gridsnaponopen" : 0,
						"toolbarvisible" : 1,
						"boxanimatetime" : 200,
						"imprint" : 0,
						"metadata" : [  ],
						"boxes" : [ 							{
								"box" : 								{
									"maxclass" : "newobj",
									"text" : "dbtoa",
									"numoutlets" : 1,
									"fontname" : "Verdana",
									"outlettype" : [ "" ],
									"fontsize" : 9.0,
									"patching_rect" : [ 267.0, 143.0, 34.0, 17.0 ],
									"numinlets" : 1,
									"id" : "obj-1"
								}

							}
, 							{
								"box" : 								{
									"maxclass" : "comment",
									"text" : "Set message to 6nd inlet",
									"linecount" : 2,
									"numoutlets" : 0,
									"fontname" : "Verdana",
									"fontsize" : 9.0,
									"patching_rect" : [ 401.0, 232.0, 119.0, 28.0 ],
									"numinlets" : 1,
									"id" : "obj-2",
									"frgb" : [ 0.0, 0.0, 0.0, 1.0 ]
								}

							}
, 							{
								"box" : 								{
									"maxclass" : "outlet",
									"numoutlets" : 0,
									"patching_rect" : [ 96.0, 274.0, 15.0, 15.0 ],
									"numinlets" : 1,
									"id" : "obj-3",
									"comment" : ""
								}

							}
, 							{
								"box" : 								{
									"maxclass" : "newobj",
									"text" : "pak set 1200. 1. 1.",
									"numoutlets" : 1,
									"fontname" : "Verdana",
									"outlettype" : [ "" ],
									"fontsize" : 9.0,
									"patching_rect" : [ 96.0, 232.0, 215.0, 17.0 ],
									"numinlets" : 4,
									"id" : "obj-4"
								}

							}
, 							{
								"box" : 								{
									"maxclass" : "newobj",
									"text" : "route set",
									"numoutlets" : 2,
									"fontname" : "Verdana",
									"outlettype" : [ "", "" ],
									"fontsize" : 9.0,
									"patching_rect" : [ 335.0, 119.0, 50.0, 17.0 ],
									"numinlets" : 1,
									"id" : "obj-5"
								}

							}
, 							{
								"box" : 								{
									"maxclass" : "inlet",
									"numoutlets" : 1,
									"outlettype" : [ "" ],
									"patching_rect" : [ 199.0, 50.0, 15.0, 15.0 ],
									"numinlets" : 0,
									"id" : "obj-6",
									"comment" : ""
								}

							}
, 							{
								"box" : 								{
									"maxclass" : "newobj",
									"text" : "route set",
									"numoutlets" : 2,
									"fontname" : "Verdana",
									"outlettype" : [ "", "" ],
									"fontsize" : 9.0,
									"patching_rect" : [ 267.0, 119.0, 50.0, 17.0 ],
									"numinlets" : 1,
									"id" : "obj-7"
								}

							}
, 							{
								"box" : 								{
									"maxclass" : "inlet",
									"numoutlets" : 1,
									"outlettype" : [ "" ],
									"patching_rect" : [ 267.0, 50.0, 15.0, 15.0 ],
									"numinlets" : 0,
									"id" : "obj-8",
									"comment" : ""
								}

							}
, 							{
								"box" : 								{
									"maxclass" : "newobj",
									"text" : "route set",
									"numoutlets" : 2,
									"fontname" : "Verdana",
									"outlettype" : [ "", "" ],
									"fontsize" : 9.0,
									"patching_rect" : [ 199.0, 119.0, 50.0, 17.0 ],
									"numinlets" : 1,
									"id" : "obj-9"
								}

							}
, 							{
								"box" : 								{
									"maxclass" : "inlet",
									"numoutlets" : 1,
									"outlettype" : [ "" ],
									"patching_rect" : [ 335.0, 50.0, 15.0, 15.0 ],
									"numinlets" : 0,
									"id" : "obj-10",
									"comment" : ""
								}

							}
, 							{
								"box" : 								{
									"maxclass" : "comment",
									"text" : "Get rid of set",
									"numoutlets" : 0,
									"fontname" : "Verdana",
									"fontsize" : 9.0,
									"patching_rect" : [ 405.0, 121.0, 100.0, 17.0 ],
									"numinlets" : 1,
									"id" : "obj-11",
									"frgb" : [ 0.0, 0.0, 0.0, 1.0 ]
								}

							}
 ],
						"lines" : [ 							{
								"patchline" : 								{
									"source" : [ "obj-4", 0 ],
									"destination" : [ "obj-3", 0 ],
									"hidden" : 0,
									"midpoints" : [  ]
								}

							}
, 							{
								"patchline" : 								{
									"source" : [ "obj-9", 0 ],
									"destination" : [ "obj-4", 1 ],
									"hidden" : 0,
									"midpoints" : [  ]
								}

							}
, 							{
								"patchline" : 								{
									"source" : [ "obj-10", 0 ],
									"destination" : [ "obj-9", 0 ],
									"hidden" : 0,
									"midpoints" : [  ]
								}

							}
, 							{
								"patchline" : 								{
									"source" : [ "obj-1", 0 ],
									"destination" : [ "obj-4", 2 ],
									"hidden" : 0,
									"midpoints" : [  ]
								}

							}
, 							{
								"patchline" : 								{
									"source" : [ "obj-8", 0 ],
									"destination" : [ "obj-7", 0 ],
									"hidden" : 0,
									"midpoints" : [  ]
								}

							}
, 							{
								"patchline" : 								{
									"source" : [ "obj-7", 0 ],
									"destination" : [ "obj-1", 0 ],
									"hidden" : 0,
									"midpoints" : [  ]
								}

							}
, 							{
								"patchline" : 								{
									"source" : [ "obj-5", 0 ],
									"destination" : [ "obj-4", 3 ],
									"hidden" : 0,
									"midpoints" : [  ]
								}

							}
, 							{
								"patchline" : 								{
									"source" : [ "obj-6", 0 ],
									"destination" : [ "obj-5", 0 ],
									"hidden" : 0,
									"midpoints" : [  ]
								}

							}
 ]
					}
,
					"saved_object_attributes" : 					{
						"default_fontsize" : 10.0,
						"fontname" : "Verdana",
						"globalpatchername" : "",
						"fontface" : 0,
						"fontsize" : 10.0,
						"default_fontface" : 0,
						"default_fontname" : "Verdana"
					}

				}

			}
, 			{
				"box" : 				{
					"maxclass" : "flonum",
					"varname" : "CenterFreq",
					"numoutlets" : 2,
					"triangle" : 0,
					"maximum" : 11025.0,
					"fontname" : "Verdana",
					"outlettype" : [ "float", "bang" ],
					"triscale" : 0.9,
					"presentation_rect" : [ 130.0, 25.0, 45.0, 19.0 ],
					"fontsize" : 10.0,
					"patching_rect" : [ 198.0, 489.0, 43.0, 19.0 ],
					"numinlets" : 1,
					"presentation" : 1,
					"minimum" : 30.0,
					"id" : "obj-13"
				}

			}
, 			{
				"box" : 				{
					"maxclass" : "message",
					"text" : "/init",
					"numoutlets" : 1,
					"fontname" : "Verdana",
					"outlettype" : [ "" ],
					"fontsize" : 10.0,
					"patching_rect" : [ 285.0, 655.0, 40.0, 17.0 ],
					"numinlets" : 2,
					"id" : "obj-19"
				}

			}
, 			{
				"box" : 				{
					"maxclass" : "newobj",
					"text" : "jcom.message filtergraph @description \"Messages to filtergraph. See the MSP reference for further details\"",
					"linecount" : 2,
					"numoutlets" : 3,
					"fontname" : "Verdana",
					"outlettype" : [ "", "", "" ],
					"fontsize" : 10.0,
					"patching_rect" : [ 15.0, 175.0, 284.0, 31.0 ],
					"numinlets" : 1,
					"id" : "obj-20"
				}

			}
, 			{
				"box" : 				{
					"maxclass" : "flonum",
					"varname" : "Q",
					"numoutlets" : 2,
					"triangle" : 0,
					"maximum" : 100.0,
					"fontname" : "Verdana",
					"outlettype" : [ "float", "bang" ],
					"triscale" : 0.9,
					"presentation_rect" : [ 130.0, 45.0, 45.0, 19.0 ],
					"fontsize" : 10.0,
					"patching_rect" : [ 198.0, 332.0, 43.0, 19.0 ],
					"numinlets" : 1,
					"presentation" : 1,
					"minimum" : 0.0,
					"id" : "obj-21"
				}

			}
, 			{
				"box" : 				{
					"maxclass" : "newobj",
					"varname" : "filtertype",
					"text" : "jcom.parameter filtertype @type msg_symbol @description \"What kind of filter to use. Possible values: lowpass | highpass | bandpass | bandstop | peaknotch | lowshelf | highshelf\"",
					"linecount" : 2,
					"numoutlets" : 3,
					"fontname" : "Verdana",
					"outlettype" : [ "", "", "" ],
					"fontsize" : 10.0,
					"patching_rect" : [ 43.0, 120.0, 482.0, 31.0 ],
					"numinlets" : 1,
					"id" : "obj-22"
				}

			}
, 			{
				"box" : 				{
					"maxclass" : "newobj",
					"varname" : "filtergain",
					"text" : "jcom.parameter filtergain @type msg_float @range/bounds -24 24 @range/clipmode both @ramp/drive scheduler @repetitions/allow 0 @description \"Gain (dB)\"",
					"linecount" : 2,
					"numoutlets" : 3,
					"fontname" : "Verdana",
					"outlettype" : [ "", "", "" ],
					"fontsize" : 10.0,
					"patching_rect" : [ 198.0, 431.0, 441.0, 31.0 ],
					"numinlets" : 1,
					"id" : "obj-23"
				}

			}
, 			{
				"box" : 				{
					"maxclass" : "newobj",
					"varname" : "q",
					"text" : "jcom.parameter q @type msg_float @ramp/drive scheduler @range/bounds 0. 100. @range/clipmode both @repetitions/allow 0 @description \"Resonance (Q)\"",
					"linecount" : 2,
					"numoutlets" : 3,
					"fontname" : "Verdana",
					"outlettype" : [ "", "", "" ],
					"fontsize" : 10.0,
					"patching_rect" : [ 198.0, 356.0, 411.0, 31.0 ],
					"numinlets" : 1,
					"id" : "obj-24"
				}

			}
, 			{
				"box" : 				{
					"maxclass" : "newobj",
					"varname" : "cf",
					"text" : "jcom.parameter cf @type msg_float @range/bounds 30. 11025. @range/clipmode both @ramp/drive scheduler @repetitions/allow 0 @description \"Center frequency (Hz)\"",
					"linecount" : 2,
					"numoutlets" : 3,
					"fontname" : "Verdana",
					"outlettype" : [ "", "", "" ],
					"fontsize" : 10.0,
					"patching_rect" : [ 198.0, 512.0, 453.0, 31.0 ],
					"numinlets" : 1,
					"id" : "obj-25"
				}

			}
, 			{
				"box" : 				{
					"maxclass" : "flonum",
					"varname" : "FilterGain",
					"numoutlets" : 2,
					"triangle" : 0,
					"maximum" : 24.0,
					"fontname" : "Verdana",
					"outlettype" : [ "float", "bang" ],
					"triscale" : 0.9,
					"presentation_rect" : [ 45.0, 45.0, 45.0, 19.0 ],
					"fontsize" : 10.0,
					"patching_rect" : [ 198.0, 408.0, 43.0, 19.0 ],
					"numinlets" : 1,
					"presentation" : 1,
					"minimum" : -24.0,
					"id" : "obj-27"
				}

			}
, 			{
				"box" : 				{
					"maxclass" : "comment",
					"text" : "Freq:",
					"linecount" : 2,
					"numoutlets" : 0,
					"fontname" : "Verdana",
					"presentation_rect" : [ 95.0, 25.0, 35.0, 19.0 ],
					"fontsize" : 10.0,
					"patching_rect" : [ 100.0, 21.0, 28.0, 31.0 ],
					"numinlets" : 1,
					"presentation" : 1,
					"id" : "obj-28",
					"frgb" : [ 0.0, 0.0, 0.0, 1.0 ]
				}

			}
, 			{
				"box" : 				{
					"maxclass" : "newobj",
					"text" : "jalg.filter~",
					"numoutlets" : 3,
					"fontname" : "Verdana",
					"outlettype" : [ "", "signal", "signal" ],
					"fontsize" : 10.0,
					"patching_rect" : [ 365.0, 685.0, 69.0, 19.0 ],
					"numinlets" : 3,
					"id" : "obj-30"
				}

			}
, 			{
				"box" : 				{
					"maxclass" : "filtergraph~",
					"varname" : "FilterGraph",
					"numoutlets" : 7,
					"bgcolor" : [ 0.678431, 0.678431, 0.678431, 1.0 ],
					"fontname" : "Verdana",
					"markercolor" : [ 0.329412, 0.329412, 0.329412, 1.0 ],
					"outlettype" : [ "list", "float", "float", "float", "float", "list", "int" ],
					"fgcolor" : [ 0.388235, 0.388235, 0.388235, 1.0 ],
					"hbwidthcolor" : [ 0.478431, 0.290196, 0.290196, 1.0 ],
					"hcurvecolor" : [ 1.0, 0.086275, 0.086275, 1.0 ],
					"presentation_rect" : [ 180.0, 25.0, 115.0, 40.0 ],
					"domain" : [ 20.0, 22050.0 ],
					"fontsize" : 8.0,
					"patching_rect" : [ 15.0, 255.0, 131.0, 48.0 ],
					"numinlets" : 8,
					"presentation" : 1,
					"logmarkers" : [ 50.0, 500.0, 5000.0 ],
					"textcolor" : [  ],
					"id" : "obj-31",
					"bwidthcolor" : [ 0.462745, 0.47451, 0.65098, 1.0 ],
					"nfilters" : 1,
					"setfilter" : [ 0, 1, 1, 0, 0, 1548.0, 1.0, 1.451, 30.0, 11025.0, 0.0625, 16.0, 0.0, 25.0 ]
				}

			}
, 			{
				"box" : 				{
					"maxclass" : "comment",
					"text" : "---signal outputs---",
					"numoutlets" : 0,
					"fontname" : "Verdana",
					"fontsize" : 10.0,
					"patching_rect" : [ 450.0, 735.0, 111.0, 19.0 ],
					"numinlets" : 1,
					"id" : "obj-32",
					"frgb" : [ 0.0, 0.0, 0.0, 1.0 ]
				}

			}
, 			{
				"box" : 				{
					"maxclass" : "comment",
					"text" : "command input",
					"numoutlets" : 0,
					"fontname" : "Verdana",
					"fontsize" : 10.0,
					"patching_rect" : [ 60.0, 630.0, 87.0, 19.0 ],
					"numinlets" : 1,
					"id" : "obj-33",
					"frgb" : [ 0.0, 0.0, 0.0, 1.0 ]
				}

			}
, 			{
				"box" : 				{
					"maxclass" : "outlet",
					"numoutlets" : 0,
					"patching_rect" : [ 420.0, 735.0, 25.0, 25.0 ],
					"numinlets" : 1,
					"id" : "obj-34",
					"comment" : ""
				}

			}
, 			{
				"box" : 				{
					"maxclass" : "inlet",
					"numoutlets" : 1,
					"outlettype" : [ "" ],
					"patching_rect" : [ 390.0, 575.0, 25.0, 25.0 ],
					"numinlets" : 0,
					"id" : "obj-35",
					"comment" : ""
				}

			}
, 			{
				"box" : 				{
					"maxclass" : "comment",
					"text" : "----signal inputs----",
					"numoutlets" : 0,
					"fontname" : "Verdana",
					"fontsize" : 10.0,
					"patching_rect" : [ 500.0, 575.0, 116.0, 19.0 ],
					"numinlets" : 1,
					"id" : "obj-36",
					"frgb" : [ 0.0, 0.0, 0.0, 1.0 ]
				}

			}
, 			{
				"box" : 				{
					"maxclass" : "outlet",
					"numoutlets" : 0,
					"patching_rect" : [ 35.0, 735.0, 25.0, 25.0 ],
					"numinlets" : 1,
					"id" : "obj-37",
					"comment" : ""
				}

			}
, 			{
				"box" : 				{
					"maxclass" : "inlet",
					"numoutlets" : 1,
					"outlettype" : [ "" ],
					"patching_rect" : [ 470.0, 575.0, 25.0, 25.0 ],
					"numinlets" : 0,
					"id" : "obj-38",
					"comment" : ""
				}

			}
, 			{
				"box" : 				{
					"maxclass" : "outlet",
					"numoutlets" : 0,
					"patching_rect" : [ 390.0, 735.0, 25.0, 25.0 ],
					"numinlets" : 1,
					"id" : "obj-39",
					"comment" : ""
				}

			}
, 			{
				"box" : 				{
					"maxclass" : "inlet",
					"numoutlets" : 1,
					"outlettype" : [ "" ],
					"patching_rect" : [ 35.0, 625.0, 25.0, 25.0 ],
					"numinlets" : 0,
					"id" : "obj-40",
					"comment" : ""
				}

			}
, 			{
				"box" : 				{
					"maxclass" : "comment",
					"text" : "Convertion from freq, gain and q to biquad coeffisients has to take place inside the poly~ (.alg) in case the poly is up- or downsampled.",
					"linecount" : 3,
					"numoutlets" : 0,
					"fontname" : "Verdana",
					"fontsize" : 10.0,
					"patching_rect" : [ 270.0, 295.0, 243.0, 43.0 ],
					"numinlets" : 1,
					"id" : "obj-41",
					"frgb" : [ 0.0, 0.0, 0.0, 1.0 ]
				}

			}
, 			{
				"box" : 				{
					"maxclass" : "newobj",
					"varname" : "jcom.hub",
					"text" : "jcom.hub @module_type audio @description \"Stereo 2nd order IIR filter based on biquad~\"",
					"linecount" : 2,
					"numoutlets" : 2,
					"fontname" : "Verdana",
					"outlettype" : [ "", "" ],
					"fontsize" : 10.0,
					"patching_rect" : [ 35.0, 695.0, 287.0, 31.0 ],
					"numinlets" : 1,
					"id" : "obj-42"
				}

			}
, 			{
				"box" : 				{
					"maxclass" : "comment",
					"text" : "Q/S:",
					"numoutlets" : 0,
					"fontname" : "Verdana",
					"presentation_rect" : [ 95.0, 45.0, 36.0, 19.0 ],
					"fontsize" : 10.0,
					"patching_rect" : [ 90.0, 34.0, 36.0, 19.0 ],
					"numinlets" : 1,
					"presentation" : 1,
					"id" : "obj-26",
					"frgb" : [ 0.0, 0.0, 0.0, 1.0 ]
				}

			}
, 			{
				"box" : 				{
					"maxclass" : "comment",
					"text" : "Gain:",
					"numoutlets" : 0,
					"fontname" : "Verdana",
					"presentation_rect" : [ 5.0, 45.0, 39.0, 19.0 ],
					"fontsize" : 10.0,
					"patching_rect" : [ 88.0, 47.0, 39.0, 19.0 ],
					"numinlets" : 1,
					"presentation" : 1,
					"id" : "obj-29",
					"frgb" : [ 0.0, 0.0, 0.0, 1.0 ]
				}

			}
, 			{
				"box" : 				{
					"maxclass" : "jcom.ui",
					"text" : "/editing_this_module",
					"numoutlets" : 1,
					"has_bypass" : 1,
					"outlettype" : [ "" ],
					"has_gain" : 1,
					"presentation_rect" : [ 0.0, 0.0, 300.0, 70.0 ],
					"has_mix" : 1,
					"has_meters" : 2,
					"numinlets" : 1,
					"presentation" : 1,
					"has_mute" : 1,
					"prefix" : "audio",
					"id" : "obj-44"
				}

			}
 ],
		"lines" : [ 			{
				"patchline" : 				{
					"source" : [ "obj-21", 0 ],
					"destination" : [ "obj-24", 0 ],
					"hidden" : 0,
					"midpoints" : [  ]
				}

			}
, 			{
				"patchline" : 				{
					"source" : [ "obj-51", 0 ],
					"destination" : [ "obj-50", 0 ],
					"hidden" : 0,
					"midpoints" : [  ]
				}

			}
, 			{
				"patchline" : 				{
					"source" : [ "obj-8", 0 ],
					"destination" : [ "obj-49", 0 ],
					"hidden" : 0,
					"midpoints" : [  ]
				}

			}
, 			{
				"patchline" : 				{
					"source" : [ "obj-24", 0 ],
					"destination" : [ "obj-21", 0 ],
					"hidden" : 0,
					"midpoints" : [ 207.5, 386.0, 184.0, 386.0, 184.0, 329.0, 207.5, 329.0 ]
				}

			}
, 			{
				"patchline" : 				{
					"source" : [ "obj-6", 2 ],
					"destination" : [ "obj-24", 0 ],
					"hidden" : 0,
					"midpoints" : [  ]
				}

			}
, 			{
				"patchline" : 				{
					"source" : [ "obj-24", 0 ],
					"destination" : [ "obj-12", 0 ],
					"hidden" : 0,
					"midpoints" : [  ]
				}

			}
, 			{
				"patchline" : 				{
					"source" : [ "obj-12", 0 ],
					"destination" : [ "obj-11", 0 ],
					"hidden" : 0,
					"midpoints" : [  ]
				}

			}
, 			{
				"patchline" : 				{
					"source" : [ "obj-5", 2 ],
					"destination" : [ "obj-6", 3 ],
					"hidden" : 0,
					"color" : [ 0.6667, 0.6667, 0.6667, 1.0 ],
					"midpoints" : [ 329.5, 273.0, 156.5, 273.0 ]
				}

			}
, 			{
				"patchline" : 				{
					"source" : [ "obj-5", 0 ],
					"destination" : [ "obj-6", 3 ],
					"hidden" : 0,
					"color" : [ 0.6667, 0.6667, 0.6667, 1.0 ],
					"midpoints" : [ 304.5, 273.0, 156.5, 273.0 ]
				}

			}
, 			{
				"patchline" : 				{
					"source" : [ "obj-20", 0 ],
					"destination" : [ "obj-31", 0 ],
					"hidden" : 0,
					"color" : [ 1.0, 0.890196, 0.090196, 1.0 ],
					"midpoints" : [  ]
				}

			}
, 			{
				"patchline" : 				{
					"source" : [ "obj-10", 0 ],
					"destination" : [ "obj-31", 5 ],
					"hidden" : 0,
					"color" : [ 1.0, 0.890196, 0.090196, 1.0 ],
					"midpoints" : [  ]
				}

			}
, 			{
				"patchline" : 				{
					"source" : [ "obj-2", 0 ],
					"destination" : [ "obj-30", 0 ],
					"hidden" : 0,
					"midpoints" : [ 449.5, 676.0, 374.5, 676.0 ]
				}

			}
, 			{
				"patchline" : 				{
					"source" : [ "obj-1", 0 ],
					"destination" : [ "obj-30", 0 ],
					"hidden" : 0,
					"midpoints" : [ 582.5, 676.0, 374.5, 676.0 ]
				}

			}
, 			{
				"patchline" : 				{
					"source" : [ "obj-35", 0 ],
					"destination" : [ "obj-4", 0 ],
					"hidden" : 0,
					"midpoints" : [  ]
				}

			}
, 			{
				"patchline" : 				{
					"source" : [ "obj-4", 0 ],
					"destination" : [ "obj-30", 1 ],
					"hidden" : 0,
					"midpoints" : [  ]
				}

			}
, 			{
				"patchline" : 				{
					"source" : [ "obj-30", 1 ],
					"destination" : [ "obj-3", 0 ],
					"hidden" : 0,
					"midpoints" : [  ]
				}

			}
, 			{
				"patchline" : 				{
					"source" : [ "obj-3", 0 ],
					"destination" : [ "obj-39", 0 ],
					"hidden" : 0,
					"midpoints" : [  ]
				}

			}
, 			{
				"patchline" : 				{
					"source" : [ "obj-3", 1 ],
					"destination" : [ "obj-34", 0 ],
					"hidden" : 0,
					"midpoints" : [  ]
				}

			}
, 			{
				"patchline" : 				{
					"source" : [ "obj-4", 1 ],
					"destination" : [ "obj-30", 2 ],
					"hidden" : 0,
					"midpoints" : [  ]
				}

			}
, 			{
				"patchline" : 				{
					"source" : [ "obj-4", 2 ],
					"destination" : [ "obj-2", 0 ],
					"hidden" : 0,
					"midpoints" : [  ]
				}

			}
, 			{
				"patchline" : 				{
					"source" : [ "obj-30", 2 ],
					"destination" : [ "obj-3", 1 ],
					"hidden" : 0,
					"midpoints" : [  ]
				}

			}
, 			{
				"patchline" : 				{
					"source" : [ "obj-38", 0 ],
					"destination" : [ "obj-4", 1 ],
					"hidden" : 0,
					"midpoints" : [  ]
				}

			}
, 			{
				"patchline" : 				{
					"source" : [ "obj-2", 1 ],
					"destination" : [ "obj-1", 0 ],
					"hidden" : 0,
					"midpoints" : [  ]
				}

			}
, 			{
				"patchline" : 				{
					"source" : [ "obj-5", 1 ],
					"destination" : [ "obj-31", 0 ],
					"hidden" : 0,
					"midpoints" : [ 317.0, 240.0, 24.5, 240.0 ]
				}

			}
, 			{
				"patchline" : 				{
					"source" : [ "obj-9", 1 ],
					"destination" : [ "obj-22", 0 ],
					"hidden" : 0,
					"midpoints" : [ 83.5, 114.0, 52.5, 114.0 ]
				}

			}
, 			{
				"patchline" : 				{
					"source" : [ "obj-22", 0 ],
					"destination" : [ "obj-9", 0 ],
					"hidden" : 0,
					"midpoints" : [ 52.5, 160.0, 25.0, 160.0, 25.0, 80.0, 52.5, 80.0 ]
				}

			}
, 			{
				"patchline" : 				{
					"source" : [ "obj-22", 1 ],
					"destination" : [ "obj-5", 0 ],
					"hidden" : 0,
					"midpoints" : [ 284.0, 156.0, 304.5, 156.0 ]
				}

			}
, 			{
				"patchline" : 				{
					"source" : [ "obj-31", 1 ],
					"destination" : [ "obj-6", 0 ],
					"hidden" : 0,
					"midpoints" : [  ]
				}

			}
, 			{
				"patchline" : 				{
					"source" : [ "obj-31", 2 ],
					"destination" : [ "obj-6", 1 ],
					"hidden" : 0,
					"midpoints" : [  ]
				}

			}
, 			{
				"patchline" : 				{
					"source" : [ "obj-31", 3 ],
					"destination" : [ "obj-6", 2 ],
					"hidden" : 0,
					"midpoints" : [  ]
				}

			}
, 			{
				"patchline" : 				{
					"source" : [ "obj-23", 0 ],
					"destination" : [ "obj-27", 0 ],
					"hidden" : 0,
					"midpoints" : [ 207.5, 473.0, 184.0, 473.0, 184.0, 404.0, 207.5, 404.0 ]
				}

			}
, 			{
				"patchline" : 				{
					"source" : [ "obj-27", 0 ],
					"destination" : [ "obj-23", 0 ],
					"hidden" : 0,
					"midpoints" : [  ]
				}

			}
, 			{
				"patchline" : 				{
					"source" : [ "obj-23", 0 ],
					"destination" : [ "obj-12", 1 ],
					"hidden" : 0,
					"midpoints" : [  ]
				}

			}
, 			{
				"patchline" : 				{
					"source" : [ "obj-6", 1 ],
					"destination" : [ "obj-23", 0 ],
					"hidden" : 0,
					"midpoints" : [  ]
				}

			}
, 			{
				"patchline" : 				{
					"source" : [ "obj-13", 0 ],
					"destination" : [ "obj-25", 0 ],
					"hidden" : 0,
					"midpoints" : [  ]
				}

			}
, 			{
				"patchline" : 				{
					"source" : [ "obj-6", 0 ],
					"destination" : [ "obj-25", 0 ],
					"hidden" : 0,
					"midpoints" : [  ]
				}

			}
, 			{
				"patchline" : 				{
					"source" : [ "obj-25", 0 ],
					"destination" : [ "obj-12", 2 ],
					"hidden" : 0,
					"midpoints" : [  ]
				}

			}
, 			{
				"patchline" : 				{
					"source" : [ "obj-25", 0 ],
					"destination" : [ "obj-13", 0 ],
					"hidden" : 0,
					"midpoints" : [ 207.5, 540.0, 183.0, 540.0, 183.0, 486.0, 207.5, 486.0 ]
				}

			}
, 			{
				"patchline" : 				{
					"source" : [ "obj-7", 0 ],
					"destination" : [ "obj-42", 0 ],
					"hidden" : 0,
					"midpoints" : [ 149.5, 684.0, 44.5, 684.0 ]
				}

			}
, 			{
				"patchline" : 				{
					"source" : [ "obj-40", 0 ],
					"destination" : [ "obj-42", 0 ],
					"hidden" : 0,
					"midpoints" : [  ]
				}

			}
, 			{
				"patchline" : 				{
					"source" : [ "obj-19", 0 ],
					"destination" : [ "obj-42", 0 ],
					"hidden" : 0,
					"midpoints" : [ 294.5, 687.0, 44.5, 687.0 ]
				}

			}
, 			{
				"patchline" : 				{
					"source" : [ "obj-42", 0 ],
					"destination" : [ "obj-37", 0 ],
					"hidden" : 0,
					"midpoints" : [  ]
				}

			}
 ]
	}

}
