{
	"patcher" : 	{
		"fileversion" : 1,
		"rect" : [ 54.0, 94.0, 509.0, 454.0 ],
		"bgcolor" : [ 1.0, 1.0, 1.0, 1.0 ],
		"bglocked" : 0,
		"defrect" : [ 54.0, 94.0, 509.0, 454.0 ],
		"openrect" : [ 0.0, 0.0, 0.0, 0.0 ],
		"openinpresentation" : 0,
		"default_fontsize" : 13.0,
		"default_fontface" : 0,
		"default_fontname" : "Helvetica Neue Light",
		"gridonopen" : 0,
		"gridsize" : [ 5.0, 5.0 ],
		"gridsnaponopen" : 0,
		"toolbarvisible" : 1,
		"boxanimatetime" : 200,
		"imprint" : 1,
		"enablehscroll" : 1,
		"enablevscroll" : 1,
		"devicewidth" : 0.0,
		"boxes" : [ 			{
				"box" : 				{
					"maxclass" : "outlet",
					"background" : 0,
					"ignoreclick" : 0,
					"hidden" : 1,
					"presentation_rect" : [ 0.0, 0.0, 0.0, 0.0 ],
					"numinlets" : 1,
					"patching_rect" : [ 0.0, 130.0, 25.0, 25.0 ],
					"numoutlets" : 0,
					"presentation" : 0,
					"id" : "obj-12",
					"comment" : ""
				}

			}
, 			{
				"box" : 				{
					"maxclass" : "newobj",
					"text" : "sel 0",
					"textcolor" : [ 0.0, 0.0, 0.0, 1.0 ],
					"background" : 0,
					"outlettype" : [ "bang", "" ],
					"color" : [ 0.7, 0.7, 0.7, 1.0 ],
					"ignoreclick" : 0,
					"fontface" : 0,
					"fontsize" : 13.0,
					"hidden" : 1,
					"presentation_rect" : [ 0.0, 0.0, 0.0, 0.0 ],
					"bgcolor" : [ 1.0, 1.0, 1.0, 1.0 ],
					"numinlets" : 2,
					"patching_rect" : [ 0.0, 100.0, 37.0, 22.0 ],
					"numoutlets" : 2,
					"presentation" : 0,
					"id" : "obj-11",
					"fontname" : "Helvetica Neue Light"
				}

			}
, 			{
				"box" : 				{
					"maxclass" : "newobj",
					"text" : "prepend set",
					"textcolor" : [ 0.0, 0.0, 0.0, 1.0 ],
					"background" : 0,
					"outlettype" : [ "" ],
					"color" : [ 0.7, 0.7, 0.7, 1.0 ],
					"ignoreclick" : 0,
					"fontface" : 0,
					"fontsize" : 13.0,
					"hidden" : 1,
					"presentation_rect" : [ 0.0, 0.0, 0.0, 0.0 ],
					"bgcolor" : [ 1.0, 1.0, 1.0, 1.0 ],
					"numinlets" : 1,
					"patching_rect" : [ 265.0, 290.0, 78.0, 22.0 ],
					"numoutlets" : 1,
					"presentation" : 0,
					"id" : "obj-9",
					"fontname" : "Helvetica Neue Light"
				}

			}
, 			{
				"box" : 				{
					"maxclass" : "newobj",
					"text" : "prepend set",
					"textcolor" : [ 0.0, 0.0, 0.0, 1.0 ],
					"background" : 0,
					"outlettype" : [ "" ],
					"color" : [ 0.7, 0.7, 0.7, 1.0 ],
					"ignoreclick" : 0,
					"fontface" : 0,
					"fontsize" : 13.0,
					"hidden" : 1,
					"presentation_rect" : [ 0.0, 0.0, 0.0, 0.0 ],
					"bgcolor" : [ 1.0, 1.0, 1.0, 1.0 ],
					"numinlets" : 1,
					"patching_rect" : [ 150.0, 280.0, 78.0, 22.0 ],
					"numoutlets" : 1,
					"presentation" : 0,
					"id" : "obj-8",
					"fontname" : "Helvetica Neue Light"
				}

			}
, 			{
				"box" : 				{
					"maxclass" : "message",
					"text" : "#2",
					"textcolor" : [ 0.0, 0.0, 0.0, 1.0 ],
					"background" : 0,
					"outlettype" : [ "" ],
					"ignoreclick" : 0,
					"fontface" : 0,
					"bgcolor2" : [ 0.867, 0.867, 0.867, 1.0 ],
					"fontsize" : 13.0,
					"gradient" : 0,
					"hidden" : 1,
					"presentation_rect" : [ 0.0, 0.0, 0.0, 0.0 ],
					"bgcolor" : [ 0.867, 0.867, 0.867, 1.0 ],
					"numinlets" : 2,
					"patching_rect" : [ 265.0, 265.0, 32.5, 20.0 ],
					"numoutlets" : 1,
					"presentation" : 0,
					"id" : "obj-7",
					"fontname" : "Helvetica Neue Light"
				}

			}
, 			{
				"box" : 				{
					"maxclass" : "message",
					"text" : "#1",
					"textcolor" : [ 0.0, 0.0, 0.0, 1.0 ],
					"background" : 0,
					"outlettype" : [ "" ],
					"ignoreclick" : 0,
					"fontface" : 0,
					"bgcolor2" : [ 0.867, 0.867, 0.867, 1.0 ],
					"fontsize" : 13.0,
					"gradient" : 0,
					"hidden" : 1,
					"presentation_rect" : [ 0.0, 0.0, 0.0, 0.0 ],
					"bgcolor" : [ 0.867, 0.867, 0.867, 1.0 ],
					"numinlets" : 2,
					"patching_rect" : [ 150.0, 255.0, 32.5, 20.0 ],
					"numoutlets" : 1,
					"presentation" : 0,
					"id" : "obj-5",
					"fontname" : "Helvetica Neue Light"
				}

			}
, 			{
				"box" : 				{
					"maxclass" : "newobj",
					"text" : "loadbang",
					"textcolor" : [ 0.0, 0.0, 0.0, 1.0 ],
					"background" : 0,
					"outlettype" : [ "bang" ],
					"color" : [ 0.7, 0.7, 0.7, 1.0 ],
					"ignoreclick" : 0,
					"fontface" : 0,
					"fontsize" : 13.0,
					"hidden" : 1,
					"presentation_rect" : [ 0.0, 0.0, 0.0, 0.0 ],
					"bgcolor" : [ 1.0, 1.0, 1.0, 1.0 ],
					"numinlets" : 1,
					"patching_rect" : [ 165.0, 205.0, 63.0, 22.0 ],
					"numoutlets" : 1,
					"presentation" : 0,
					"id" : "obj-2",
					"fontname" : "Helvetica Neue Light"
				}

			}
, 			{
				"box" : 				{
					"maxclass" : "comment",
					"text" : "#2",
					"underline" : 0,
					"textcolor" : [ 0.360784, 0.360784, 0.360784, 1.0 ],
					"background" : 0,
					"ignoreclick" : 1,
					"fontface" : 0,
					"fontsize" : 14.0,
					"hidden" : 0,
					"presentation_rect" : [ 0.0, 0.0, 0.0, 0.0 ],
					"frgb" : [ 0.360784, 0.360784, 0.360784, 1.0 ],
					"bgcolor" : [ 1.0, 1.0, 1.0, 0.0 ],
					"numinlets" : 1,
					"patching_rect" : [ 10.0, 41.0, 208.0, 23.0 ],
					"numoutlets" : 0,
					"presentation" : 0,
					"id" : "obj-19",
					"fontname" : "Helvetica Neue Light",
					"frozen_box_attributes" : [ "bgcolor" ]
				}

			}
, 			{
				"box" : 				{
					"maxclass" : "comment",
					"text" : "#1",
					"underline" : 0,
					"textcolor" : [ 0.0, 0.0, 0.0, 1.0 ],
					"background" : 0,
					"ignoreclick" : 1,
					"fontface" : 0,
					"fontsize" : 24.0,
					"hidden" : 0,
					"presentation_rect" : [ 0.0, 0.0, 0.0, 0.0 ],
					"frgb" : [ 0.0, 0.0, 0.0, 1.0 ],
					"bgcolor" : [ 1.0, 1.0, 1.0, 0.0 ],
					"numinlets" : 1,
					"patching_rect" : [ 10.0, 11.0, 207.0, 36.0 ],
					"numoutlets" : 0,
					"presentation" : 0,
					"id" : "obj-18",
					"fontname" : "Helvetica Neue Light"
				}

			}
, 			{
				"box" : 				{
					"maxclass" : "pictctrl",
					"name" : "plug.button.tab.tiff",
					"background" : 0,
					"snap" : 1,
					"trackvertical" : 0,
					"outlettype" : [ "int" ],
					"active" : 1,
					"multiplier" : 0,
					"tracking" : 0,
					"imagemask" : 0,
					"range" : 128,
					"offset" : 0,
					"ignoreclick" : 0,
					"ratio" : 2,
					"clip" : 1,
					"trackcircular" : 0,
					"hidden" : 0,
					"degrees" : 270,
					"presentation_rect" : [ 0.0, 0.0, 0.0, 0.0 ],
					"threshold" : 0,
					"mode" : 0,
					"trackhorizontal" : 0,
					"numinlets" : 1,
					"patching_rect" : [ 0.0, 0.0, 225.0, 89.0 ],
					"inactiveimage" : 0,
					"numoutlets" : 1,
					"clickincrement" : 0,
					"clickedimage" : 0,
					"presentation" : 0,
					"frames" : 10,
					"id" : "obj-1"
				}

			}
 ],
		"lines" : [ 			{
				"patchline" : 				{
					"source" : [ "obj-9", 0 ],
					"destination" : [ "obj-19", 0 ],
					"hidden" : 1,
					"color" : [ 0.0, 0.0, 0.0, 1.0 ],
					"midpoints" : [  ]
				}

			}
, 			{
				"patchline" : 				{
					"source" : [ "obj-8", 0 ],
					"destination" : [ "obj-18", 0 ],
					"hidden" : 1,
					"color" : [ 0.0, 0.0, 0.0, 1.0 ],
					"midpoints" : [  ]
				}

			}
, 			{
				"patchline" : 				{
					"source" : [ "obj-7", 0 ],
					"destination" : [ "obj-9", 0 ],
					"hidden" : 1,
					"color" : [ 0.0, 0.0, 0.0, 1.0 ],
					"midpoints" : [  ]
				}

			}
, 			{
				"patchline" : 				{
					"source" : [ "obj-5", 0 ],
					"destination" : [ "obj-8", 0 ],
					"hidden" : 1,
					"color" : [ 0.0, 0.0, 0.0, 1.0 ],
					"midpoints" : [  ]
				}

			}
, 			{
				"patchline" : 				{
					"source" : [ "obj-2", 0 ],
					"destination" : [ "obj-7", 0 ],
					"hidden" : 1,
					"color" : [ 0.0, 0.0, 0.0, 1.0 ],
					"midpoints" : [  ]
				}

			}
, 			{
				"patchline" : 				{
					"source" : [ "obj-2", 0 ],
					"destination" : [ "obj-5", 0 ],
					"hidden" : 1,
					"color" : [ 0.0, 0.0, 0.0, 1.0 ],
					"midpoints" : [  ]
				}

			}
, 			{
				"patchline" : 				{
					"source" : [ "obj-11", 0 ],
					"destination" : [ "obj-12", 0 ],
					"hidden" : 1,
					"color" : [ 0.0, 0.0, 0.0, 1.0 ],
					"midpoints" : [  ]
				}

			}
, 			{
				"patchline" : 				{
					"source" : [ "obj-1", 0 ],
					"destination" : [ "obj-11", 0 ],
					"hidden" : 1,
					"color" : [ 0.0, 0.0, 0.0, 1.0 ],
					"midpoints" : [  ]
				}

			}
 ]
	}

}
