{
	"patcher" : 	{
		"fileversion" : 1,
		"rect" : [ 681.0, 178.0, 640.0, 480.0 ],
		"bgcolor" : [ 1.0, 1.0, 1.0, 1.0 ],
		"bglocked" : 0,
		"defrect" : [ 681.0, 178.0, 640.0, 480.0 ],
		"openrect" : [ 0.0, 0.0, 0.0, 0.0 ],
		"openinpresentation" : 0,
		"default_fontsize" : 13.0,
		"default_fontface" : 0,
		"default_fontname" : "Helvetica Neue Light",
		"gridonopen" : 0,
		"gridsize" : [ 5.0, 5.0 ],
		"gridsnaponopen" : 0,
		"toolbarvisible" : 1,
		"boxanimatetime" : 200,
		"imprint" : 1,
		"enablehscroll" : 1,
		"enablevscroll" : 1,
		"devicewidth" : 0.0,
		"boxes" : [ 			{
				"box" : 				{
					"maxclass" : "newobj",
					"text" : "loadbang",
					"textcolor" : [ 0.0, 0.0, 0.0, 1.0 ],
					"background" : 0,
					"outlettype" : [ "bang" ],
					"color" : [ 0.7, 0.7, 0.7, 1.0 ],
					"ignoreclick" : 0,
					"fontface" : 0,
					"fontsize" : 13.0,
					"hidden" : 1,
					"presentation_rect" : [ 0.0, 0.0, 0.0, 0.0 ],
					"bgcolor" : [ 1.0, 1.0, 1.0, 1.0 ],
					"numinlets" : 1,
					"patching_rect" : [ 350.0, 185.0, 63.0, 22.0 ],
					"numoutlets" : 1,
					"presentation" : 0,
					"id" : "obj-5",
					"fontname" : "Helvetica Neue Light"
				}

			}
, 			{
				"box" : 				{
					"maxclass" : "message",
					"text" : "set #2",
					"textcolor" : [ 0.0, 0.0, 0.0, 1.0 ],
					"background" : 0,
					"outlettype" : [ "" ],
					"ignoreclick" : 0,
					"fontface" : 0,
					"bgcolor2" : [ 0.867, 0.867, 0.867, 1.0 ],
					"fontsize" : 13.0,
					"gradient" : 0,
					"hidden" : 1,
					"presentation_rect" : [ 0.0, 0.0, 0.0, 0.0 ],
					"bgcolor" : [ 0.867, 0.867, 0.867, 1.0 ],
					"numinlets" : 2,
					"patching_rect" : [ 360.0, 220.0, 45.0, 20.0 ],
					"numoutlets" : 1,
					"presentation" : 0,
					"id" : "obj-4",
					"fontname" : "Helvetica Neue Light"
				}

			}
, 			{
				"box" : 				{
					"maxclass" : "message",
					"text" : "set #1",
					"textcolor" : [ 0.0, 0.0, 0.0, 1.0 ],
					"background" : 0,
					"outlettype" : [ "" ],
					"ignoreclick" : 0,
					"fontface" : 0,
					"bgcolor2" : [ 0.867, 0.867, 0.867, 1.0 ],
					"fontsize" : 13.0,
					"gradient" : 0,
					"hidden" : 1,
					"presentation_rect" : [ 0.0, 0.0, 0.0, 0.0 ],
					"bgcolor" : [ 0.867, 0.867, 0.867, 1.0 ],
					"numinlets" : 2,
					"patching_rect" : [ 310.0, 220.0, 45.0, 20.0 ],
					"numoutlets" : 1,
					"presentation" : 0,
					"id" : "obj-2",
					"fontname" : "Helvetica Neue Light"
				}

			}
, 			{
				"box" : 				{
					"maxclass" : "message",
					"text" : ";\rmax launchbrowser http://plugtastic.com",
					"linecount" : 2,
					"textcolor" : [ 0.0, 0.0, 0.0, 1.0 ],
					"background" : 0,
					"outlettype" : [ "" ],
					"ignoreclick" : 0,
					"fontface" : 0,
					"bgcolor2" : [ 0.867, 0.867, 0.867, 1.0 ],
					"fontsize" : 13.0,
					"gradient" : 0,
					"hidden" : 1,
					"presentation_rect" : [ 0.0, 0.0, 0.0, 0.0 ],
					"bgcolor" : [ 0.867, 0.867, 0.867, 1.0 ],
					"numinlets" : 2,
					"patching_rect" : [ 5.0, 110.0, 240.0, 36.0 ],
					"numoutlets" : 1,
					"presentation" : 0,
					"id" : "obj-32",
					"fontname" : "Helvetica Neue Light"
				}

			}
, 			{
				"box" : 				{
					"maxclass" : "button",
					"fgcolor" : [ 1.0, 1.0, 1.0, 1.0 ],
					"background" : 0,
					"outlettype" : [ "bang" ],
					"ignoreclick" : 0,
					"blinkcolor" : [ 1.0, 0.890196, 0.090196, 1.0 ],
					"hidden" : 1,
					"presentation_rect" : [ 0.0, 0.0, 0.0, 0.0 ],
					"bgcolor" : [ 0.91328, 0.91328, 0.91328, 0.75 ],
					"numinlets" : 1,
					"outlinecolor" : [ 0.71328, 0.71328, 0.71328, 1.0 ],
					"patching_rect" : [ 5.0, 85.0, 20.0, 20.0 ],
					"numoutlets" : 1,
					"presentation" : 0,
					"id" : "obj-28"
				}

			}
, 			{
				"box" : 				{
					"maxclass" : "ubutton",
					"background" : 0,
					"outlettype" : [ "bang", "bang", "", "int" ],
					"dragtrack" : 0,
					"handoffdelay" : 250,
					"ignoreclick" : 0,
					"hidden" : 0,
					"presentation_rect" : [ 0.0, 0.0, 0.0, 0.0 ],
					"stay" : 0,
					"numinlets" : 1,
					"hilite" : 1,
					"hltcolor" : [ 0.475, 0.695, 1.0, 0.5 ],
					"patching_rect" : [ 5.0, 5.0, 65.0, 66.0 ],
					"numoutlets" : 4,
					"presentation" : 0,
					"id" : "obj-25",
					"toggle" : 0,
					"handoff" : ""
				}

			}
, 			{
				"box" : 				{
					"maxclass" : "comment",
					"text" : "#2",
					"underline" : 0,
					"textcolor" : [ 0.0, 0.0, 0.0, 1.0 ],
					"background" : 0,
					"ignoreclick" : 1,
					"fontface" : 0,
					"fontsize" : 13.0,
					"hidden" : 0,
					"presentation_rect" : [ 0.0, 0.0, 0.0, 0.0 ],
					"frgb" : [ 0.0, 0.0, 0.0, 1.0 ],
					"bgcolor" : [ 1.0, 1.0, 1.0, 0.0 ],
					"numinlets" : 1,
					"patching_rect" : [ 75.0, 40.0, 398.0, 22.0 ],
					"numoutlets" : 0,
					"presentation" : 0,
					"id" : "obj-19",
					"fontname" : "Helvetica Neue Light"
				}

			}
, 			{
				"box" : 				{
					"maxclass" : "comment",
					"text" : "#1",
					"underline" : 0,
					"textcolor" : [ 0.0, 0.0, 0.0, 1.0 ],
					"background" : 0,
					"ignoreclick" : 1,
					"fontface" : 0,
					"fontsize" : 24.0,
					"hidden" : 0,
					"presentation_rect" : [ 0.0, 0.0, 0.0, 0.0 ],
					"frgb" : [ 0.0, 0.0, 0.0, 1.0 ],
					"bgcolor" : [ 1.0, 1.0, 1.0, 0.0 ],
					"numinlets" : 1,
					"patching_rect" : [ 75.0, 10.0, 247.0, 36.0 ],
					"numoutlets" : 0,
					"presentation" : 0,
					"id" : "obj-13",
					"fontname" : "Helvetica Neue Light"
				}

			}
, 			{
				"box" : 				{
					"maxclass" : "fpic",
					"background" : 0,
					"ignoreclick" : 0,
					"autofit" : 0,
					"xoffset" : 0.0,
					"hidden" : 0,
					"presentation_rect" : [ 0.0, 0.0, 0.0, 0.0 ],
					"embed" : 0,
					"yoffset" : 0.0,
					"alpha" : 1.0,
					"numinlets" : 1,
					"patching_rect" : [ 5.0, 5.0, 64.0, 64.0 ],
					"pic" : "74objects64.png",
					"numoutlets" : 0,
					"presentation" : 0,
					"id" : "obj-9"
				}

			}
, 			{
				"box" : 				{
					"maxclass" : "panel",
					"rounded" : 8,
					"shadow" : 0,
					"grad1" : [ 0.75, 0.79, 0.93, 1.0 ],
					"background" : 0,
					"angle" : 0.0,
					"grad2" : [ 0.66, 0.66, 0.72, 1.0 ],
					"shape" : 0,
					"ignoreclick" : 1,
					"bordercolor" : [ 0.0, 0.0, 0.0, 1.0 ],
					"hidden" : 0,
					"presentation_rect" : [ 0.0, 0.0, 0.0, 0.0 ],
					"vertical_direction" : 0,
					"bgcolor" : [ 0.9, 0.9, 0.9, 1.0 ],
					"mode" : 0,
					"arrow_orientation" : 0,
					"numinlets" : 1,
					"border" : 0,
					"horizontal_direction" : 0,
					"patching_rect" : [ 0.0, 0.0, 595.0, 80.0 ],
					"numoutlets" : 0,
					"presentation" : 0,
					"id" : "obj-14"
				}

			}
 ],
		"lines" : [ 			{
				"patchline" : 				{
					"source" : [ "obj-5", 0 ],
					"destination" : [ "obj-4", 0 ],
					"hidden" : 1,
					"color" : [ 0.0, 0.0, 0.0, 1.0 ],
					"midpoints" : [  ]
				}

			}
, 			{
				"patchline" : 				{
					"source" : [ "obj-5", 0 ],
					"destination" : [ "obj-2", 0 ],
					"hidden" : 1,
					"color" : [ 0.0, 0.0, 0.0, 1.0 ],
					"midpoints" : [  ]
				}

			}
, 			{
				"patchline" : 				{
					"source" : [ "obj-4", 0 ],
					"destination" : [ "obj-19", 0 ],
					"hidden" : 1,
					"color" : [ 0.0, 0.0, 0.0, 1.0 ],
					"midpoints" : [  ]
				}

			}
, 			{
				"patchline" : 				{
					"source" : [ "obj-28", 0 ],
					"destination" : [ "obj-32", 0 ],
					"hidden" : 1,
					"color" : [ 0.0, 0.0, 0.0, 1.0 ],
					"midpoints" : [  ]
				}

			}
, 			{
				"patchline" : 				{
					"source" : [ "obj-25", 0 ],
					"destination" : [ "obj-28", 0 ],
					"hidden" : 1,
					"color" : [ 0.0, 0.0, 0.0, 1.0 ],
					"midpoints" : [  ]
				}

			}
, 			{
				"patchline" : 				{
					"source" : [ "obj-2", 0 ],
					"destination" : [ "obj-13", 0 ],
					"hidden" : 1,
					"color" : [ 0.0, 0.0, 0.0, 1.0 ],
					"midpoints" : [  ]
				}

			}
 ]
	}

}
