{
	"patcher" : 	{
		"fileversion" : 1,
		"rect" : [ 111.0, 76.0, 1182.0, 660.0 ],
		"bglocked" : 0,
		"defrect" : [ 111.0, 76.0, 1182.0, 660.0 ],
		"openrect" : [ 0.0, 0.0, 0.0, 0.0 ],
		"openinpresentation" : 1,
		"default_fontsize" : 10.0,
		"default_fontface" : 0,
		"default_fontname" : "Verdana",
		"gridonopen" : 0,
		"gridsize" : [ 5.0, 5.0 ],
		"gridsnaponopen" : 0,
		"toolbarvisible" : 1,
		"boxanimatetime" : 200,
		"imprint" : 0,
		"boxes" : [ 			{
				"box" : 				{
					"comment" : "",
					"id" : "obj-1",
					"maxclass" : "inlet",
					"numinlets" : 0,
					"numoutlets" : 1,
					"outlettype" : [ "" ],
					"patching_rect" : [ 501.0, 63.0, 21.0, 21.0 ]
				}

			}
, 			{
				"box" : 				{
					"fontname" : "Verdana",
					"fontsize" : 10.0,
					"frgb" : [ 0.333333, 0.333333, 0.333333, 1.0 ],
					"id" : "obj-11",
					"maxclass" : "comment",
					"numinlets" : 1,
					"numoutlets" : 0,
					"patching_rect" : [ 179.0, 0.0, 59.0, 19.0 ],
					"presentation" : 1,
					"presentation_rect" : [ 162.0, 0.0, 59.0, 19.0 ],
					"text" : "Channels:"
				}

			}
, 			{
				"box" : 				{
					"border" : 1,
					"id" : "obj-12",
					"maxclass" : "panel",
					"numinlets" : 1,
					"numoutlets" : 0,
					"patching_rect" : [ 86.0, 95.0, 91.0, 42.0 ],
					"presentation" : 1,
					"presentation_rect" : [ 86.0, 115.0, 91.0, 19.0 ],
					"rounded" : 0
				}

			}
, 			{
				"box" : 				{
					"border" : 1,
					"id" : "obj-13",
					"maxclass" : "panel",
					"numinlets" : 1,
					"numoutlets" : 0,
					"patching_rect" : [ 176.0, 95.0, 91.0, 42.0 ],
					"presentation" : 1,
					"presentation_rect" : [ 176.0, 115.0, 91.0, 19.0 ],
					"rounded" : 0
				}

			}
, 			{
				"box" : 				{
					"fontname" : "Verdana",
					"fontsize" : 10.0,
					"id" : "obj-14",
					"maxclass" : "message",
					"numinlets" : 2,
					"numoutlets" : 1,
					"outlettype" : [ "" ],
					"patching_rect" : [ 120.0, 265.0, 137.0, 17.0 ],
					"text" : "/documentation/generate"
				}

			}
, 			{
				"box" : 				{
					"fontname" : "Verdana",
					"fontsize" : 10.0,
					"id" : "obj-15",
					"maxclass" : "number",
					"numinlets" : 1,
					"numoutlets" : 2,
					"outlettype" : [ "int", "bang" ],
					"patching_rect" : [ 326.0, 23.0, 21.0, 19.0 ],
					"presentation" : 1,
					"presentation_rect" : [ 221.0, 0.0, 21.0, 19.0 ],
					"triangle" : 0
				}

			}
, 			{
				"box" : 				{
					"border" : 1,
					"id" : "obj-16",
					"maxclass" : "panel",
					"numinlets" : 1,
					"numoutlets" : 0,
					"patching_rect" : [ 5.0, 95.0, 82.0, 42.0 ],
					"presentation" : 1,
					"presentation_rect" : [ 5.0, 115.0, 82.0, 19.0 ],
					"rounded" : 0
				}

			}
, 			{
				"box" : 				{
					"fontname" : "Verdana",
					"fontsize" : 10.0,
					"frgb" : [ 0.333333, 0.333333, 0.333333, 1.0 ],
					"id" : "obj-18",
					"maxclass" : "comment",
					"numinlets" : 1,
					"numoutlets" : 0,
					"patching_rect" : [ 30.0, 115.0, 17.0, 19.0 ],
					"presentation" : 1,
					"presentation_rect" : [ 30.0, 115.0, 17.0, 19.0 ],
					"text" : "4"
				}

			}
, 			{
				"box" : 				{
					"fontname" : "Verdana",
					"fontsize" : 10.0,
					"id" : "obj-2",
					"maxclass" : "newobj",
					"numinlets" : 2,
					"numoutlets" : 32,
					"outlettype" : [ "", "", "", "", "", "", "", "", "", "", "", "", "", "", "", "", "", "", "", "", "", "", "", "", "", "", "", "", "", "", "", "" ],
					"patching_rect" : [ 551.0, 109.0, 437.5, 19.0 ],
					"text" : "jcom.multi.out~",
					"varname" : "multiin"
				}

			}
, 			{
				"box" : 				{
					"fontname" : "Verdana",
					"fontsize" : 10.0,
					"id" : "obj-20",
					"linecount" : 2,
					"maxclass" : "newobj",
					"numinlets" : 1,
					"numoutlets" : 2,
					"outlettype" : [ "", "" ],
					"patching_rect" : [ 30.0, 300.0, 251.0, 31.0 ],
					"text" : "jcom.hub @module_type control @description \"meterbridge for mutlichannel signals\"",
					"varname" : "jcom.hub"
				}

			}
, 			{
				"box" : 				{
					"comment" : "",
					"id" : "obj-21",
					"maxclass" : "inlet",
					"numinlets" : 0,
					"numoutlets" : 1,
					"outlettype" : [ "" ],
					"patching_rect" : [ 30.0, 225.0, 21.0, 21.0 ]
				}

			}
, 			{
				"box" : 				{
					"comment" : "",
					"id" : "obj-22",
					"maxclass" : "outlet",
					"numinlets" : 1,
					"numoutlets" : 0,
					"patching_rect" : [ 30.0, 360.0, 21.0, 21.0 ]
				}

			}
, 			{
				"box" : 				{
					"fontname" : "Verdana",
					"fontsize" : 10.0,
					"id" : "obj-23",
					"linecount" : 2,
					"maxclass" : "newobj",
					"numinlets" : 1,
					"numoutlets" : 3,
					"outlettype" : [ "", "", "" ],
					"patching_rect" : [ 364.0, 16.0, 606.0, 31.0 ],
					"text" : "jcom.parameter channels @repetitions/allow 0 @type msg_int @range/bounds 0 32 @range/clipmode both @priority 1 @description \"Number of channels to display.\"",
					"varname" : "voices"
				}

			}
, 			{
				"box" : 				{
					"has_freeze" : 1,
					"id" : "obj-24",
					"maxclass" : "jcom.ui",
					"numinlets" : 1,
					"numoutlets" : 1,
					"outlettype" : [ "" ],
					"patching_rect" : [ 0.0, 0.0, 300.0, 140.0 ],
					"presentation" : 1,
					"presentation_rect" : [ 0.0, 0.0, 300.0, 140.0 ],
					"text" : "/editing_this_module"
				}

			}
, 			{
				"box" : 				{
					"bgcolor" : [ 0.8, 0.54902, 0.54902, 1.0 ],
					"fontname" : "Verdana",
					"fontsize" : 10.0,
					"id" : "obj-25",
					"maxclass" : "message",
					"numinlets" : 2,
					"numoutlets" : 1,
					"outlettype" : [ "" ],
					"patching_rect" : [ 85.0, 240.0, 199.0, 17.0 ],
					"text" : "/preset/store 1 default, /preset/write"
				}

			}
, 			{
				"box" : 				{
					"fontname" : "Verdana",
					"fontsize" : 10.0,
					"frgb" : [ 0.333333, 0.333333, 0.333333, 1.0 ],
					"id" : "obj-26",
					"maxclass" : "comment",
					"numinlets" : 1,
					"numoutlets" : 0,
					"patching_rect" : [ 13.0, 115.0, 17.0, 19.0 ],
					"presentation" : 1,
					"presentation_rect" : [ 13.0, 115.0, 17.0, 19.0 ],
					"text" : "2"
				}

			}
, 			{
				"box" : 				{
					"fontname" : "Verdana",
					"fontsize" : 10.0,
					"frgb" : [ 0.333333, 0.333333, 0.333333, 1.0 ],
					"id" : "obj-27",
					"maxclass" : "comment",
					"numinlets" : 1,
					"numoutlets" : 0,
					"patching_rect" : [ 47.0, 115.0, 17.0, 19.0 ],
					"presentation" : 1,
					"presentation_rect" : [ 47.0, 115.0, 17.0, 19.0 ],
					"text" : "6"
				}

			}
, 			{
				"box" : 				{
					"fontname" : "Verdana",
					"fontsize" : 10.0,
					"frgb" : [ 0.333333, 0.333333, 0.333333, 1.0 ],
					"id" : "obj-28",
					"maxclass" : "comment",
					"numinlets" : 1,
					"numoutlets" : 0,
					"patching_rect" : [ 66.0, 115.0, 17.0, 19.0 ],
					"presentation" : 1,
					"presentation_rect" : [ 66.0, 115.0, 17.0, 19.0 ],
					"text" : "8"
				}

			}
, 			{
				"box" : 				{
					"fontname" : "Verdana",
					"fontsize" : 10.0,
					"frgb" : [ 0.333333, 0.333333, 0.333333, 1.0 ],
					"id" : "obj-29",
					"maxclass" : "comment",
					"numinlets" : 1,
					"numoutlets" : 0,
					"patching_rect" : [ 156.0, 115.0, 17.0, 19.0 ],
					"presentation" : 1,
					"presentation_rect" : [ 156.0, 115.0, 17.0, 19.0 ],
					"text" : "8"
				}

			}
, 			{
				"box" : 				{
					"fontname" : "Verdana",
					"fontsize" : 10.0,
					"id" : "obj-3",
					"maxclass" : "newobj",
					"numinlets" : 1,
					"numoutlets" : 3,
					"outlettype" : [ "", "", "" ],
					"patching_rect" : [ 439.0, 281.0, 351.0, 19.0 ],
					"text" : "jcom.message clear @type msg_none @description \"clears meters\""
				}

			}
, 			{
				"box" : 				{
					"fontname" : "Verdana",
					"fontsize" : 10.0,
					"frgb" : [ 0.333333, 0.333333, 0.333333, 1.0 ],
					"id" : "obj-30",
					"maxclass" : "comment",
					"numinlets" : 1,
					"numoutlets" : 0,
					"patching_rect" : [ 137.0, 115.0, 17.0, 19.0 ],
					"presentation" : 1,
					"presentation_rect" : [ 137.0, 115.0, 17.0, 19.0 ],
					"text" : "6"
				}

			}
, 			{
				"box" : 				{
					"fontname" : "Verdana",
					"fontsize" : 10.0,
					"frgb" : [ 0.333333, 0.333333, 0.333333, 1.0 ],
					"id" : "obj-31",
					"maxclass" : "comment",
					"numinlets" : 1,
					"numoutlets" : 0,
					"patching_rect" : [ 103.0, 115.0, 17.0, 19.0 ],
					"presentation" : 1,
					"presentation_rect" : [ 103.0, 115.0, 17.0, 19.0 ],
					"text" : "2"
				}

			}
, 			{
				"box" : 				{
					"fontname" : "Verdana",
					"fontsize" : 10.0,
					"frgb" : [ 0.333333, 0.333333, 0.333333, 1.0 ],
					"id" : "obj-32",
					"maxclass" : "comment",
					"numinlets" : 1,
					"numoutlets" : 0,
					"patching_rect" : [ 120.0, 115.0, 17.0, 19.0 ],
					"presentation" : 1,
					"presentation_rect" : [ 120.0, 115.0, 17.0, 19.0 ],
					"text" : "4"
				}

			}
, 			{
				"box" : 				{
					"fontname" : "Verdana",
					"fontsize" : 10.0,
					"frgb" : [ 0.333333, 0.333333, 0.333333, 1.0 ],
					"id" : "obj-33",
					"maxclass" : "comment",
					"numinlets" : 1,
					"numoutlets" : 0,
					"patching_rect" : [ 84.0, 115.0, 17.0, 19.0 ],
					"presentation" : 1,
					"presentation_rect" : [ 84.0, 115.0, 17.0, 19.0 ],
					"text" : "0"
				}

			}
, 			{
				"box" : 				{
					"fontname" : "Verdana",
					"fontsize" : 10.0,
					"frgb" : [ 0.333333, 0.333333, 0.333333, 1.0 ],
					"id" : "obj-34",
					"maxclass" : "comment",
					"numinlets" : 1,
					"numoutlets" : 0,
					"patching_rect" : [ 173.0, 115.0, 17.0, 19.0 ],
					"presentation" : 1,
					"presentation_rect" : [ 173.0, 115.0, 17.0, 19.0 ],
					"text" : "0"
				}

			}
, 			{
				"box" : 				{
					"fontname" : "Verdana",
					"fontsize" : 10.0,
					"frgb" : [ 0.333333, 0.333333, 0.333333, 1.0 ],
					"id" : "obj-35",
					"maxclass" : "comment",
					"numinlets" : 1,
					"numoutlets" : 0,
					"patching_rect" : [ 245.0, 115.0, 17.0, 19.0 ],
					"presentation" : 1,
					"presentation_rect" : [ 245.0, 115.0, 17.0, 19.0 ],
					"text" : "8"
				}

			}
, 			{
				"box" : 				{
					"fontname" : "Verdana",
					"fontsize" : 10.0,
					"frgb" : [ 0.333333, 0.333333, 0.333333, 1.0 ],
					"id" : "obj-36",
					"maxclass" : "comment",
					"numinlets" : 1,
					"numoutlets" : 0,
					"patching_rect" : [ 226.0, 115.0, 17.0, 19.0 ],
					"presentation" : 1,
					"presentation_rect" : [ 226.0, 115.0, 17.0, 19.0 ],
					"text" : "6"
				}

			}
, 			{
				"box" : 				{
					"fontname" : "Verdana",
					"fontsize" : 10.0,
					"frgb" : [ 0.333333, 0.333333, 0.333333, 1.0 ],
					"id" : "obj-37",
					"maxclass" : "comment",
					"numinlets" : 1,
					"numoutlets" : 0,
					"patching_rect" : [ 192.0, 115.0, 17.0, 19.0 ],
					"presentation" : 1,
					"presentation_rect" : [ 192.0, 115.0, 17.0, 19.0 ],
					"text" : "2"
				}

			}
, 			{
				"box" : 				{
					"fontname" : "Verdana",
					"fontsize" : 10.0,
					"frgb" : [ 0.333333, 0.333333, 0.333333, 1.0 ],
					"id" : "obj-38",
					"maxclass" : "comment",
					"numinlets" : 1,
					"numoutlets" : 0,
					"patching_rect" : [ 209.0, 115.0, 17.0, 19.0 ],
					"presentation" : 1,
					"presentation_rect" : [ 209.0, 115.0, 17.0, 19.0 ],
					"text" : "4"
				}

			}
, 			{
				"box" : 				{
					"border" : 1,
					"id" : "obj-39",
					"maxclass" : "panel",
					"numinlets" : 1,
					"numoutlets" : 0,
					"patching_rect" : [ 266.0, 95.0, 29.0, 42.0 ],
					"presentation" : 1,
					"presentation_rect" : [ 266.0, 115.0, 29.0, 19.0 ],
					"rounded" : 0
				}

			}
, 			{
				"box" : 				{
					"fontname" : "Verdana",
					"fontsize" : 10.0,
					"frgb" : [ 0.333333, 0.333333, 0.333333, 1.0 ],
					"id" : "obj-40",
					"maxclass" : "comment",
					"numinlets" : 1,
					"numoutlets" : 0,
					"patching_rect" : [ 263.0, 115.0, 17.0, 19.0 ],
					"presentation" : 1,
					"presentation_rect" : [ 263.0, 115.0, 17.0, 19.0 ],
					"text" : "0"
				}

			}
, 			{
				"box" : 				{
					"fontname" : "Verdana",
					"fontsize" : 10.0,
					"frgb" : [ 0.333333, 0.333333, 0.333333, 1.0 ],
					"id" : "obj-41",
					"maxclass" : "comment",
					"numinlets" : 1,
					"numoutlets" : 0,
					"patching_rect" : [ 282.0, 115.0, 17.0, 19.0 ],
					"presentation" : 1,
					"presentation_rect" : [ 282.0, 115.0, 17.0, 19.0 ],
					"text" : "2"
				}

			}
, 			{
				"box" : 				{
					"fontname" : "Verdana",
					"fontsize" : 10.0,
					"id" : "obj-45",
					"maxclass" : "newobj",
					"numinlets" : 1,
					"numoutlets" : 2,
					"outlettype" : [ "", "" ],
					"patching_rect" : [ 440.0, 315.0, 48.0, 19.0 ],
					"text" : "jcom.in"
				}

			}
, 			{
				"box" : 				{
					"fontname" : "Verdana",
					"fontsize" : 10.0,
					"id" : "obj-46",
					"maxclass" : "newobj",
					"numinlets" : 1,
					"numoutlets" : 2,
					"outlettype" : [ "", "" ],
					"patching_rect" : [ 440.0, 390.0, 55.0, 19.0 ],
					"text" : "jcom.out"
				}

			}
, 			{
				"box" : 				{
					"id" : "obj-5",
					"maxclass" : "panel",
					"numinlets" : 1,
					"numoutlets" : 0,
					"patching_rect" : [ 3.0, 24.0, 292.0, 93.0 ],
					"presentation" : 1,
					"presentation_rect" : [ 3.0, 24.0, 292.0, 93.0 ]
				}

			}
, 			{
				"box" : 				{
					"fontname" : "Verdana",
					"fontsize" : 10.0,
					"id" : "obj-56",
					"maxclass" : "newobj",
					"numinlets" : 1,
					"numoutlets" : 2,
					"outlettype" : [ "", "" ],
					"patching_rect" : [ 440.0, 365.0, 67.0, 19.0 ],
					"save" : [ "#N", "thispatcher", ";", "#Q", "end", ";" ],
					"text" : "thispatcher"
				}

			}
, 			{
				"box" : 				{
					"id" : "obj-59",
					"maxclass" : "jcom.meter~",
					"numinlets" : 1,
					"numoutlets" : 0,
					"patching_rect" : [ 582.0, 133.0, 8.0, 90.0 ],
					"presentation" : 1,
					"presentation_rect" : [ 24.0, 28.0, 8.0, 90.0 ],
					"varname" : "meter2"
				}

			}
, 			{
				"box" : 				{
					"comment" : "",
					"id" : "obj-6",
					"maxclass" : "outlet",
					"numinlets" : 1,
					"numoutlets" : 0,
					"patching_rect" : [ 501.0, 104.0, 21.0, 21.0 ]
				}

			}
, 			{
				"box" : 				{
					"id" : "obj-60",
					"maxclass" : "jcom.meter~",
					"numinlets" : 1,
					"numoutlets" : 0,
					"patching_rect" : [ 595.0, 133.0, 8.0, 90.0 ],
					"presentation" : 1,
					"presentation_rect" : [ 33.0, 28.0, 8.0, 90.0 ],
					"varname" : "meter3"
				}

			}
, 			{
				"box" : 				{
					"id" : "obj-61",
					"maxclass" : "jcom.meter~",
					"numinlets" : 1,
					"numoutlets" : 0,
					"patching_rect" : [ 608.0, 133.0, 8.0, 90.0 ],
					"presentation" : 1,
					"presentation_rect" : [ 42.0, 28.0, 8.0, 90.0 ],
					"varname" : "meter4"
				}

			}
, 			{
				"box" : 				{
					"id" : "obj-62",
					"maxclass" : "jcom.meter~",
					"numinlets" : 1,
					"numoutlets" : 0,
					"patching_rect" : [ 663.0, 133.0, 8.0, 90.0 ],
					"presentation" : 1,
					"presentation_rect" : [ 78.0, 28.0, 8.0, 90.0 ],
					"varname" : "meter8"
				}

			}
, 			{
				"box" : 				{
					"id" : "obj-63",
					"maxclass" : "jcom.meter~",
					"numinlets" : 1,
					"numoutlets" : 0,
					"patching_rect" : [ 650.0, 133.0, 8.0, 90.0 ],
					"presentation" : 1,
					"presentation_rect" : [ 69.0, 28.0, 8.0, 90.0 ],
					"varname" : "meter7"
				}

			}
, 			{
				"box" : 				{
					"id" : "obj-64",
					"maxclass" : "jcom.meter~",
					"numinlets" : 1,
					"numoutlets" : 0,
					"patching_rect" : [ 637.0, 133.0, 8.0, 90.0 ],
					"presentation" : 1,
					"presentation_rect" : [ 60.0, 28.0, 8.0, 90.0 ],
					"varname" : "meter6"
				}

			}
, 			{
				"box" : 				{
					"id" : "obj-65",
					"maxclass" : "jcom.meter~",
					"numinlets" : 1,
					"numoutlets" : 0,
					"patching_rect" : [ 622.0, 133.0, 8.0, 90.0 ],
					"presentation" : 1,
					"presentation_rect" : [ 51.0, 28.0, 8.0, 90.0 ],
					"varname" : "meter5"
				}

			}
, 			{
				"box" : 				{
					"id" : "obj-66",
					"maxclass" : "jcom.meter~",
					"numinlets" : 1,
					"numoutlets" : 0,
					"patching_rect" : [ 773.0, 133.0, 8.0, 90.0 ],
					"presentation" : 1,
					"presentation_rect" : [ 150.0, 28.0, 8.0, 90.0 ],
					"varname" : "meter16"
				}

			}
, 			{
				"box" : 				{
					"id" : "obj-67",
					"maxclass" : "jcom.meter~",
					"numinlets" : 1,
					"numoutlets" : 0,
					"patching_rect" : [ 760.0, 133.0, 8.0, 90.0 ],
					"presentation" : 1,
					"presentation_rect" : [ 141.0, 28.0, 8.0, 90.0 ],
					"varname" : "meter15"
				}

			}
, 			{
				"box" : 				{
					"id" : "obj-68",
					"maxclass" : "jcom.meter~",
					"numinlets" : 1,
					"numoutlets" : 0,
					"patching_rect" : [ 747.0, 133.0, 8.0, 90.0 ],
					"presentation" : 1,
					"presentation_rect" : [ 132.0, 28.0, 8.0, 90.0 ],
					"varname" : "meter14"
				}

			}
, 			{
				"box" : 				{
					"id" : "obj-69",
					"maxclass" : "jcom.meter~",
					"numinlets" : 1,
					"numoutlets" : 0,
					"patching_rect" : [ 732.0, 133.0, 8.0, 90.0 ],
					"presentation" : 1,
					"presentation_rect" : [ 123.0, 28.0, 8.0, 90.0 ],
					"varname" : "meter13"
				}

			}
, 			{
				"box" : 				{
					"id" : "obj-7",
					"maxclass" : "jcom.meter~",
					"numinlets" : 1,
					"numoutlets" : 0,
					"patching_rect" : [ 567.0, 133.0, 8.0, 90.0 ],
					"presentation" : 1,
					"presentation_rect" : [ 15.0, 28.0, 8.0, 90.0 ],
					"varname" : "meter1"
				}

			}
, 			{
				"box" : 				{
					"id" : "obj-70",
					"maxclass" : "jcom.meter~",
					"numinlets" : 1,
					"numoutlets" : 0,
					"patching_rect" : [ 718.0, 133.0, 8.0, 90.0 ],
					"presentation" : 1,
					"presentation_rect" : [ 114.0, 28.0, 8.0, 90.0 ],
					"varname" : "meter12"
				}

			}
, 			{
				"box" : 				{
					"id" : "obj-71",
					"maxclass" : "jcom.meter~",
					"numinlets" : 1,
					"numoutlets" : 0,
					"patching_rect" : [ 705.0, 133.0, 8.0, 90.0 ],
					"presentation" : 1,
					"presentation_rect" : [ 105.0, 28.0, 8.0, 90.0 ],
					"varname" : "meter11"
				}

			}
, 			{
				"box" : 				{
					"id" : "obj-72",
					"maxclass" : "jcom.meter~",
					"numinlets" : 1,
					"numoutlets" : 0,
					"patching_rect" : [ 692.0, 133.0, 8.0, 90.0 ],
					"presentation" : 1,
					"presentation_rect" : [ 96.0, 28.0, 8.0, 90.0 ],
					"varname" : "meter10"
				}

			}
, 			{
				"box" : 				{
					"id" : "obj-73",
					"maxclass" : "jcom.meter~",
					"numinlets" : 1,
					"numoutlets" : 0,
					"patching_rect" : [ 677.0, 133.0, 8.0, 90.0 ],
					"presentation" : 1,
					"presentation_rect" : [ 87.0, 28.0, 8.0, 90.0 ],
					"varname" : "meter9"
				}

			}
, 			{
				"box" : 				{
					"id" : "obj-74",
					"maxclass" : "jcom.meter~",
					"numinlets" : 1,
					"numoutlets" : 0,
					"patching_rect" : [ 553.0, 133.0, 8.0, 90.0 ],
					"presentation" : 1,
					"presentation_rect" : [ 6.0, 28.0, 8.0, 90.0 ],
					"varname" : "meter0"
				}

			}
, 			{
				"box" : 				{
					"id" : "obj-75",
					"maxclass" : "jcom.meter~",
					"numinlets" : 1,
					"numoutlets" : 0,
					"patching_rect" : [ 980.0, 133.0, 8.0, 90.0 ],
					"presentation" : 1,
					"presentation_rect" : [ 285.0, 28.0, 8.0, 90.0 ],
					"varname" : "meter31"
				}

			}
, 			{
				"box" : 				{
					"id" : "obj-76",
					"maxclass" : "jcom.meter~",
					"numinlets" : 1,
					"numoutlets" : 0,
					"patching_rect" : [ 967.0, 133.0, 8.0, 90.0 ],
					"presentation" : 1,
					"presentation_rect" : [ 276.0, 28.0, 8.0, 90.0 ],
					"varname" : "meter30"
				}

			}
, 			{
				"box" : 				{
					"id" : "obj-77",
					"maxclass" : "jcom.meter~",
					"numinlets" : 1,
					"numoutlets" : 0,
					"patching_rect" : [ 952.0, 133.0, 8.0, 90.0 ],
					"presentation" : 1,
					"presentation_rect" : [ 267.0, 28.0, 8.0, 90.0 ],
					"varname" : "meter29"
				}

			}
, 			{
				"box" : 				{
					"id" : "obj-78",
					"maxclass" : "jcom.meter~",
					"numinlets" : 1,
					"numoutlets" : 0,
					"patching_rect" : [ 938.0, 133.0, 8.0, 90.0 ],
					"presentation" : 1,
					"presentation_rect" : [ 258.0, 28.0, 8.0, 90.0 ],
					"varname" : "meter28"
				}

			}
, 			{
				"box" : 				{
					"id" : "obj-79",
					"maxclass" : "jcom.meter~",
					"numinlets" : 1,
					"numoutlets" : 0,
					"patching_rect" : [ 925.0, 133.0, 8.0, 90.0 ],
					"presentation" : 1,
					"presentation_rect" : [ 249.0, 28.0, 8.0, 90.0 ],
					"varname" : "meter27"
				}

			}
, 			{
				"box" : 				{
					"fontname" : "Verdana",
					"fontsize" : 10.0,
					"hint" : "clear meters",
					"id" : "obj-8",
					"maxclass" : "textbutton",
					"numinlets" : 1,
					"numoutlets" : 3,
					"outlettype" : [ "", "", "int" ],
					"patching_rect" : [ 440.0, 260.0, 56.0, 16.0 ],
					"presentation" : 1,
					"presentation_rect" : [ 244.0, 1.0, 38.0, 18.0 ],
					"text" : "Clear"
				}

			}
, 			{
				"box" : 				{
					"id" : "obj-80",
					"maxclass" : "jcom.meter~",
					"numinlets" : 1,
					"numoutlets" : 0,
					"patching_rect" : [ 912.0, 133.0, 8.0, 90.0 ],
					"presentation" : 1,
					"presentation_rect" : [ 240.0, 28.0, 8.0, 90.0 ],
					"varname" : "meter26"
				}

			}
, 			{
				"box" : 				{
					"id" : "obj-81",
					"maxclass" : "jcom.meter~",
					"numinlets" : 1,
					"numoutlets" : 0,
					"patching_rect" : [ 897.0, 133.0, 8.0, 90.0 ],
					"presentation" : 1,
					"presentation_rect" : [ 231.0, 28.0, 8.0, 90.0 ],
					"varname" : "meter25"
				}

			}
, 			{
				"box" : 				{
					"id" : "obj-82",
					"maxclass" : "jcom.meter~",
					"numinlets" : 1,
					"numoutlets" : 0,
					"patching_rect" : [ 883.0, 133.0, 8.0, 90.0 ],
					"presentation" : 1,
					"presentation_rect" : [ 222.0, 28.0, 8.0, 90.0 ],
					"varname" : "meter24"
				}

			}
, 			{
				"box" : 				{
					"id" : "obj-83",
					"maxclass" : "jcom.meter~",
					"numinlets" : 1,
					"numoutlets" : 0,
					"patching_rect" : [ 870.0, 133.0, 8.0, 90.0 ],
					"presentation" : 1,
					"presentation_rect" : [ 213.0, 28.0, 8.0, 90.0 ],
					"varname" : "meter23"
				}

			}
, 			{
				"box" : 				{
					"id" : "obj-84",
					"maxclass" : "jcom.meter~",
					"numinlets" : 1,
					"numoutlets" : 0,
					"patching_rect" : [ 857.0, 133.0, 8.0, 90.0 ],
					"presentation" : 1,
					"presentation_rect" : [ 204.0, 28.0, 8.0, 90.0 ],
					"varname" : "meter22"
				}

			}
, 			{
				"box" : 				{
					"id" : "obj-85",
					"maxclass" : "jcom.meter~",
					"numinlets" : 1,
					"numoutlets" : 0,
					"patching_rect" : [ 842.0, 133.0, 8.0, 90.0 ],
					"presentation" : 1,
					"presentation_rect" : [ 195.0, 28.0, 8.0, 90.0 ],
					"varname" : "meter21"
				}

			}
, 			{
				"box" : 				{
					"id" : "obj-86",
					"maxclass" : "jcom.meter~",
					"numinlets" : 1,
					"numoutlets" : 0,
					"patching_rect" : [ 828.0, 133.0, 8.0, 90.0 ],
					"presentation" : 1,
					"presentation_rect" : [ 186.0, 28.0, 8.0, 90.0 ],
					"varname" : "meter20"
				}

			}
, 			{
				"box" : 				{
					"id" : "obj-87",
					"maxclass" : "jcom.meter~",
					"numinlets" : 1,
					"numoutlets" : 0,
					"patching_rect" : [ 815.0, 133.0, 8.0, 90.0 ],
					"presentation" : 1,
					"presentation_rect" : [ 177.0, 28.0, 8.0, 90.0 ],
					"varname" : "meter19"
				}

			}
, 			{
				"box" : 				{
					"id" : "obj-88",
					"maxclass" : "jcom.meter~",
					"numinlets" : 1,
					"numoutlets" : 0,
					"patching_rect" : [ 802.0, 133.0, 8.0, 90.0 ],
					"presentation" : 1,
					"presentation_rect" : [ 168.0, 28.0, 8.0, 90.0 ],
					"varname" : "meter18"
				}

			}
, 			{
				"box" : 				{
					"id" : "obj-89",
					"maxclass" : "jcom.meter~",
					"numinlets" : 1,
					"numoutlets" : 0,
					"patching_rect" : [ 787.0, 133.0, 8.0, 90.0 ],
					"presentation" : 1,
					"presentation_rect" : [ 159.0, 28.0, 8.0, 90.0 ],
					"varname" : "meter17"
				}

			}
, 			{
				"box" : 				{
					"fontname" : "Verdana",
					"fontsize" : 10.0,
					"id" : "obj-92",
					"maxclass" : "newobj",
					"numinlets" : 1,
					"numoutlets" : 1,
					"outlettype" : [ "" ],
					"patcher" : 					{
						"fileversion" : 1,
						"rect" : [ 25.0, 230.0, 318.0, 300.0 ],
						"bglocked" : 0,
						"defrect" : [ 25.0, 230.0, 318.0, 300.0 ],
						"openrect" : [ 0.0, 0.0, 0.0, 0.0 ],
						"openinpresentation" : 0,
						"default_fontsize" : 10.0,
						"default_fontface" : 0,
						"default_fontname" : "Verdana",
						"gridonopen" : 0,
						"gridsize" : [ 5.0, 5.0 ],
						"gridsnaponopen" : 0,
						"toolbarvisible" : 1,
						"boxanimatetime" : 200,
						"imprint" : 0,
						"boxes" : [ 							{
								"box" : 								{
									"fontname" : "Verdana",
									"fontsize" : 10.0,
									"id" : "obj-1",
									"maxclass" : "newobj",
									"numinlets" : 1,
									"numoutlets" : 1,
									"outlettype" : [ "" ],
									"patcher" : 									{
										"fileversion" : 1,
										"rect" : [ 520.0, 210.0, 640.0, 480.0 ],
										"bglocked" : 0,
										"defrect" : [ 520.0, 210.0, 640.0, 480.0 ],
										"openrect" : [ 0.0, 0.0, 0.0, 0.0 ],
										"openinpresentation" : 0,
										"default_fontsize" : 10.0,
										"default_fontface" : 0,
										"default_fontname" : "Verdana",
										"gridonopen" : 0,
										"gridsize" : [ 5.0, 5.0 ],
										"gridsnaponopen" : 0,
										"toolbarvisible" : 1,
										"boxanimatetime" : 200,
										"imprint" : 0,
										"boxes" : [ 											{
												"box" : 												{
													"fontname" : "Verdana",
													"fontsize" : 10.0,
													"id" : "obj-1",
													"maxclass" : "newobj",
													"numinlets" : 2,
													"numoutlets" : 3,
													"outlettype" : [ "bang", "bang", "int" ],
													"patching_rect" : [ 25.0, 100.0, 51.0, 19.0 ],
													"text" : "uzi 32 0"
												}

											}
, 											{
												"box" : 												{
													"fontname" : "Verdana",
													"fontsize" : 10.0,
													"id" : "obj-4",
													"maxclass" : "newobj",
													"numinlets" : 1,
													"numoutlets" : 1,
													"outlettype" : [ "" ],
													"patching_rect" : [ 60.0, 130.0, 183.0, 19.0 ],
													"text" : "sprintf script send meter%ld bang"
												}

											}
, 											{
												"box" : 												{
													"comment" : "",
													"id" : "obj-5",
													"maxclass" : "outlet",
													"numinlets" : 1,
													"numoutlets" : 0,
													"patching_rect" : [ 60.0, 160.0, 25.0, 25.0 ]
												}

											}
, 											{
												"box" : 												{
													"comment" : "",
													"id" : "obj-7",
													"maxclass" : "inlet",
													"numinlets" : 0,
													"numoutlets" : 1,
													"outlettype" : [ "" ],
													"patching_rect" : [ 25.0, 35.0, 25.0, 25.0 ]
												}

											}
, 											{
												"box" : 												{
													"fontname" : "Verdana",
													"fontsize" : 10.0,
													"id" : "obj-8",
													"maxclass" : "newobj",
													"numinlets" : 1,
													"numoutlets" : 1,
													"outlettype" : [ "bang" ],
													"patching_rect" : [ 25.0, 71.0, 24.0, 19.0 ],
													"text" : "t b"
												}

											}
 ],
										"lines" : [ 											{
												"patchline" : 												{
													"destination" : [ "obj-4", 0 ],
													"hidden" : 0,
													"midpoints" : [  ],
													"source" : [ "obj-1", 2 ]
												}

											}
, 											{
												"patchline" : 												{
													"destination" : [ "obj-5", 0 ],
													"hidden" : 0,
													"midpoints" : [  ],
													"source" : [ "obj-4", 0 ]
												}

											}
, 											{
												"patchline" : 												{
													"destination" : [ "obj-8", 0 ],
													"hidden" : 0,
													"midpoints" : [  ],
													"source" : [ "obj-7", 0 ]
												}

											}
, 											{
												"patchline" : 												{
													"destination" : [ "obj-1", 0 ],
													"hidden" : 0,
													"midpoints" : [  ],
													"source" : [ "obj-8", 0 ]
												}

											}
 ]
									}
,
									"patching_rect" : [ 195.0, 130.0, 44.0, 19.0 ],
									"saved_object_attributes" : 									{
										"fontsize" : 10.0,
										"default_fontface" : 0,
										"default_fontname" : "Verdana",
										"fontname" : "Verdana",
										"default_fontsize" : 10.0,
										"globalpatchername" : "",
										"fontface" : 0
									}
,
									"text" : "p clear"
								}

							}
, 							{
								"box" : 								{
									"fontname" : "Verdana",
									"fontsize" : 10.0,
									"id" : "obj-49",
									"maxclass" : "newobj",
									"numinlets" : 1,
									"numoutlets" : 1,
									"outlettype" : [ "" ],
									"patcher" : 									{
										"fileversion" : 1,
										"rect" : [ 510.0, 265.0, 600.0, 426.0 ],
										"bglocked" : 0,
										"defrect" : [ 510.0, 265.0, 600.0, 426.0 ],
										"openrect" : [ 0.0, 0.0, 0.0, 0.0 ],
										"openinpresentation" : 0,
										"default_fontsize" : 10.0,
										"default_fontface" : 0,
										"default_fontname" : "Verdana",
										"gridonopen" : 0,
										"gridsize" : [ 5.0, 5.0 ],
										"gridsnaponopen" : 0,
										"toolbarvisible" : 1,
										"boxanimatetime" : 200,
										"imprint" : 0,
										"boxes" : [ 											{
												"box" : 												{
													"fontname" : "Verdana",
													"fontsize" : 10.0,
													"id" : "obj-10",
													"maxclass" : "newobj",
													"numinlets" : 2,
													"numoutlets" : 1,
													"outlettype" : [ "int" ],
													"patching_rect" : [ 160.0, 165.0, 34.0, 19.0 ],
													"text" : "int"
												}

											}
, 											{
												"box" : 												{
													"comment" : "",
													"id" : "obj-11",
													"maxclass" : "inlet",
													"numinlets" : 0,
													"numoutlets" : 1,
													"outlettype" : [ "" ],
													"patching_rect" : [ 160.0, 30.0, 22.0, 22.0 ]
												}

											}
, 											{
												"box" : 												{
													"fontname" : "Verdana",
													"fontsize" : 10.0,
													"id" : "obj-2",
													"maxclass" : "newobj",
													"numinlets" : 2,
													"numoutlets" : 1,
													"outlettype" : [ "" ],
													"patching_rect" : [ 95.0, 240.0, 57.0, 19.0 ],
													"text" : "qlim 200"
												}

											}
, 											{
												"box" : 												{
													"comment" : "",
													"id" : "obj-3",
													"maxclass" : "outlet",
													"numinlets" : 1,
													"numoutlets" : 0,
													"patching_rect" : [ 95.0, 290.0, 25.0, 25.0 ]
												}

											}
, 											{
												"box" : 												{
													"fontname" : "Verdana",
													"fontsize" : 10.0,
													"id" : "obj-4",
													"maxclass" : "newobj",
													"numinlets" : 2,
													"numoutlets" : 1,
													"outlettype" : [ "" ],
													"patching_rect" : [ 95.0, 195.0, 36.0, 19.0 ],
													"text" : "gate"
												}

											}
, 											{
												"box" : 												{
													"fontname" : "Verdana",
													"fontsize" : 10.0,
													"id" : "obj-5",
													"maxclass" : "newobj",
													"numinlets" : 1,
													"numoutlets" : 1,
													"outlettype" : [ "bang" ],
													"patching_rect" : [ 50.0, 45.0, 58.0, 19.0 ],
													"text" : "loadbang"
												}

											}
, 											{
												"box" : 												{
													"fontname" : "Verdana",
													"fontsize" : 10.0,
													"id" : "obj-6",
													"maxclass" : "newobj",
													"numinlets" : 2,
													"numoutlets" : 1,
													"outlettype" : [ "int" ],
													"patching_rect" : [ 95.0, 115.0, 42.0, 19.0 ],
													"text" : "== 0"
												}

											}
, 											{
												"box" : 												{
													"fontname" : "Verdana",
													"fontsize" : 10.0,
													"id" : "obj-7",
													"maxclass" : "newobj",
													"numinlets" : 2,
													"numoutlets" : 2,
													"outlettype" : [ "bang", "" ],
													"patching_rect" : [ 50.0, 115.0, 38.0, 19.0 ],
													"text" : "sel 0"
												}

											}
, 											{
												"box" : 												{
													"fontname" : "Verdana",
													"fontsize" : 10.0,
													"id" : "obj-8",
													"maxclass" : "newobj",
													"numinlets" : 1,
													"numoutlets" : 4,
													"outlettype" : [ "int", "float", "int", "int" ],
													"patching_rect" : [ 50.0, 70.0, 67.0, 19.0 ],
													"text" : "dspstate~"
												}

											}
, 											{
												"box" : 												{
													"fontname" : "Verdana",
													"fontsize" : 10.0,
													"id" : "obj-9",
													"maxclass" : "newobj",
													"numinlets" : 1,
													"numoutlets" : 3,
													"outlettype" : [ "", "int", "int" ],
													"patching_rect" : [ 160.0, 105.0, 49.0, 19.0 ],
													"text" : "change"
												}

											}
 ],
										"lines" : [ 											{
												"patchline" : 												{
													"destination" : [ "obj-4", 1 ],
													"hidden" : 0,
													"midpoints" : [  ],
													"source" : [ "obj-10", 0 ]
												}

											}
, 											{
												"patchline" : 												{
													"destination" : [ "obj-9", 0 ],
													"hidden" : 0,
													"midpoints" : [  ],
													"source" : [ "obj-11", 0 ]
												}

											}
, 											{
												"patchline" : 												{
													"destination" : [ "obj-3", 0 ],
													"hidden" : 0,
													"midpoints" : [  ],
													"source" : [ "obj-2", 0 ]
												}

											}
, 											{
												"patchline" : 												{
													"destination" : [ "obj-2", 0 ],
													"hidden" : 0,
													"midpoints" : [  ],
													"source" : [ "obj-4", 0 ]
												}

											}
, 											{
												"patchline" : 												{
													"destination" : [ "obj-8", 0 ],
													"hidden" : 0,
													"midpoints" : [  ],
													"source" : [ "obj-5", 0 ]
												}

											}
, 											{
												"patchline" : 												{
													"destination" : [ "obj-4", 0 ],
													"hidden" : 0,
													"midpoints" : [  ],
													"source" : [ "obj-6", 0 ]
												}

											}
, 											{
												"patchline" : 												{
													"destination" : [ "obj-10", 0 ],
													"hidden" : 0,
													"midpoints" : [  ],
													"source" : [ "obj-7", 0 ]
												}

											}
, 											{
												"patchline" : 												{
													"destination" : [ "obj-6", 0 ],
													"hidden" : 0,
													"midpoints" : [ 59.5, 101.0, 104.5, 101.0 ],
													"source" : [ "obj-8", 0 ]
												}

											}
, 											{
												"patchline" : 												{
													"destination" : [ "obj-7", 0 ],
													"hidden" : 0,
													"midpoints" : [  ],
													"source" : [ "obj-8", 0 ]
												}

											}
, 											{
												"patchline" : 												{
													"destination" : [ "obj-10", 0 ],
													"hidden" : 0,
													"midpoints" : [  ],
													"source" : [ "obj-9", 0 ]
												}

											}
 ]
									}
,
									"patching_rect" : [ 55.0, 96.0, 96.0, 19.0 ],
									"saved_object_attributes" : 									{
										"fontsize" : 10.0,
										"default_fontface" : 0,
										"default_fontname" : "Verdana",
										"fontname" : "Verdana",
										"default_fontsize" : 10.0,
										"globalpatchername" : "",
										"fontface" : 0
									}
,
									"text" : "p check _4_dsp"
								}

							}
, 							{
								"box" : 								{
									"fontname" : "Verdana",
									"fontsize" : 10.0,
									"id" : "obj-50",
									"maxclass" : "newobj",
									"numinlets" : 1,
									"numoutlets" : 4,
									"outlettype" : [ "", "", "", "" ],
									"patching_rect" : [ 55.0, 65.0, 205.0, 19.0 ],
									"text" : "jcom.oscroute /channels /freeze /clear"
								}

							}
, 							{
								"box" : 								{
									"fontname" : "Verdana",
									"fontsize" : 10.0,
									"id" : "obj-55",
									"maxclass" : "newobj",
									"numinlets" : 2,
									"numoutlets" : 1,
									"outlettype" : [ "" ],
									"patcher" : 									{
										"fileversion" : 1,
										"rect" : [ 25.0, 69.0, 752.0, 486.0 ],
										"bglocked" : 0,
										"defrect" : [ 25.0, 69.0, 752.0, 486.0 ],
										"openrect" : [ 0.0, 0.0, 0.0, 0.0 ],
										"openinpresentation" : 0,
										"default_fontsize" : 10.0,
										"default_fontface" : 0,
										"default_fontname" : "Verdana",
										"gridonopen" : 0,
										"gridsize" : [ 5.0, 5.0 ],
										"gridsnaponopen" : 0,
										"toolbarvisible" : 1,
										"boxanimatetime" : 200,
										"imprint" : 0,
										"boxes" : [ 											{
												"box" : 												{
													"comment" : "",
													"id" : "obj-1",
													"maxclass" : "inlet",
													"numinlets" : 0,
													"numoutlets" : 1,
													"outlettype" : [ "" ],
													"patching_rect" : [ 183.0, 65.0, 25.0, 25.0 ]
												}

											}
, 											{
												"box" : 												{
													"fontname" : "Verdana",
													"fontsize" : 10.0,
													"id" : "obj-13",
													"maxclass" : "newobj",
													"numinlets" : 3,
													"numoutlets" : 1,
													"outlettype" : [ "" ],
													"patcher" : 													{
														"fileversion" : 1,
														"rect" : [ 50.0, 94.0, 640.0, 480.0 ],
														"bglocked" : 0,
														"defrect" : [ 50.0, 94.0, 640.0, 480.0 ],
														"openrect" : [ 0.0, 0.0, 0.0, 0.0 ],
														"openinpresentation" : 0,
														"default_fontsize" : 10.0,
														"default_fontface" : 0,
														"default_fontname" : "Verdana",
														"gridonopen" : 0,
														"gridsize" : [ 15.0, 15.0 ],
														"gridsnaponopen" : 0,
														"toolbarvisible" : 1,
														"boxanimatetime" : 200,
														"imprint" : 0,
														"boxes" : [ 															{
																"box" : 																{
																	"comment" : "",
																	"id" : "obj-10",
																	"maxclass" : "inlet",
																	"numinlets" : 0,
																	"numoutlets" : 1,
																	"outlettype" : [ "int" ],
																	"patching_rect" : [ 282.0, 40.0, 25.0, 25.0 ]
																}

															}
, 															{
																"box" : 																{
																	"fontname" : "Verdana",
																	"fontsize" : 10.0,
																	"id" : "obj-11",
																	"maxclass" : "newobj",
																	"numinlets" : 2,
																	"numoutlets" : 1,
																	"outlettype" : [ "" ],
																	"patching_rect" : [ 55.0, 227.0, 241.0, 19.0 ],
																	"text" : "sprintf script connect multiin %ld meter%ld 0"
																}

															}
, 															{
																"box" : 																{
																	"comment" : "",
																	"id" : "obj-12",
																	"maxclass" : "outlet",
																	"numinlets" : 1,
																	"numoutlets" : 0,
																	"patching_rect" : [ 55.0, 306.0, 25.0, 25.0 ]
																}

															}
, 															{
																"box" : 																{
																	"fontname" : "Verdana",
																	"fontsize" : 10.0,
																	"id" : "obj-3",
																	"maxclass" : "newobj",
																	"numinlets" : 2,
																	"numoutlets" : 3,
																	"outlettype" : [ "bang", "bang", "int" ],
																	"patching_rect" : [ 245.0, 100.0, 51.0, 19.0 ],
																	"text" : "uzi 32 0"
																}

															}
, 															{
																"box" : 																{
																	"fontname" : "Verdana",
																	"fontsize" : 10.0,
																	"id" : "obj-6",
																	"maxclass" : "newobj",
																	"numinlets" : 2,
																	"numoutlets" : 1,
																	"outlettype" : [ "int" ],
																	"patching_rect" : [ 455.0, 157.0, 32.5, 19.0 ],
																	"text" : "i 0"
																}

															}
, 															{
																"box" : 																{
																	"comment" : "",
																	"id" : "obj-7",
																	"maxclass" : "inlet",
																	"numinlets" : 0,
																	"numoutlets" : 1,
																	"outlettype" : [ "" ],
																	"patching_rect" : [ 469.0, 40.0, 25.0, 25.0 ]
																}

															}
, 															{
																"box" : 																{
																	"fontname" : "Verdana",
																	"fontsize" : 10.0,
																	"id" : "obj-8",
																	"maxclass" : "newobj",
																	"numinlets" : 4,
																	"numoutlets" : 1,
																	"outlettype" : [ "" ],
																	"patching_rect" : [ 127.0, 283.0, 419.0, 19.0 ],
																	"text" : "sprintf script connect multiin %ld meter%ld 0\\, script send meter%ld defeat %ld"
																}

															}
, 															{
																"box" : 																{
																	"comment" : "",
																	"id" : "obj-9",
																	"maxclass" : "inlet",
																	"numinlets" : 0,
																	"numoutlets" : 1,
																	"outlettype" : [ "bang" ],
																	"patching_rect" : [ 250.0, 40.0, 25.0, 25.0 ]
																}

															}
 ],
														"lines" : [ 															{
																"patchline" : 																{
																	"destination" : [ "obj-3", 1 ],
																	"hidden" : 0,
																	"midpoints" : [  ],
																	"source" : [ "obj-10", 0 ]
																}

															}
, 															{
																"patchline" : 																{
																	"destination" : [ "obj-12", 0 ],
																	"hidden" : 0,
																	"midpoints" : [  ],
																	"source" : [ "obj-11", 0 ]
																}

															}
, 															{
																"patchline" : 																{
																	"destination" : [ "obj-11", 1 ],
																	"hidden" : 0,
																	"midpoints" : [  ],
																	"source" : [ "obj-3", 2 ]
																}

															}
, 															{
																"patchline" : 																{
																	"destination" : [ "obj-11", 0 ],
																	"hidden" : 0,
																	"midpoints" : [  ],
																	"source" : [ "obj-3", 2 ]
																}

															}
, 															{
																"patchline" : 																{
																	"destination" : [ "obj-6", 1 ],
																	"hidden" : 0,
																	"midpoints" : [  ],
																	"source" : [ "obj-7", 0 ]
																}

															}
, 															{
																"patchline" : 																{
																	"destination" : [ "obj-3", 0 ],
																	"hidden" : 0,
																	"midpoints" : [  ],
																	"source" : [ "obj-9", 0 ]
																}

															}
, 															{
																"patchline" : 																{
																	"destination" : [ "obj-6", 0 ],
																	"hidden" : 0,
																	"midpoints" : [  ],
																	"source" : [ "obj-9", 0 ]
																}

															}
 ]
													}
,
													"patching_rect" : [ 144.0, 207.0, 59.0, 19.0 ],
													"saved_object_attributes" : 													{
														"fontsize" : 10.0,
														"default_fontface" : 0,
														"default_fontname" : "Verdana",
														"fontname" : "Verdana",
														"default_fontsize" : 10.0,
														"globalpatchername" : "",
														"fontface" : 0
													}
,
													"text" : "p connect"
												}

											}
, 											{
												"box" : 												{
													"comment" : "",
													"id" : "obj-14",
													"maxclass" : "inlet",
													"numinlets" : 0,
													"numoutlets" : 1,
													"outlettype" : [ "" ],
													"patching_rect" : [ 357.0, 58.0, 25.0, 25.0 ]
												}

											}
, 											{
												"box" : 												{
													"fontname" : "Verdana",
													"fontsize" : 10.0,
													"frgb" : [ 0.333333, 0.333333, 0.333333, 1.0 ],
													"id" : "obj-16",
													"maxclass" : "comment",
													"numinlets" : 1,
													"numoutlets" : 0,
													"patching_rect" : [ 395.0, 60.0, 150.0, 19.0 ],
													"text" : "freeze message"
												}

											}
, 											{
												"box" : 												{
													"fontname" : "Verdana",
													"fontsize" : 10.0,
													"id" : "obj-17",
													"maxclass" : "newobj",
													"numinlets" : 2,
													"numoutlets" : 1,
													"outlettype" : [ "" ],
													"patcher" : 													{
														"fileversion" : 1,
														"rect" : [ 25.0, 69.0, 640.0, 480.0 ],
														"bglocked" : 0,
														"defrect" : [ 25.0, 69.0, 640.0, 480.0 ],
														"openrect" : [ 0.0, 0.0, 0.0, 0.0 ],
														"openinpresentation" : 0,
														"default_fontsize" : 10.0,
														"default_fontface" : 0,
														"default_fontname" : "Verdana",
														"gridonopen" : 0,
														"gridsize" : [ 15.0, 15.0 ],
														"gridsnaponopen" : 0,
														"toolbarvisible" : 1,
														"boxanimatetime" : 200,
														"imprint" : 0,
														"boxes" : [ 															{
																"box" : 																{
																	"comment" : "",
																	"id" : "obj-1",
																	"maxclass" : "inlet",
																	"numinlets" : 0,
																	"numoutlets" : 1,
																	"outlettype" : [ "" ],
																	"patching_rect" : [ 237.0, 83.0, 25.0, 25.0 ]
																}

															}
, 															{
																"box" : 																{
																	"fontname" : "Verdana",
																	"fontsize" : 10.0,
																	"id" : "obj-11",
																	"maxclass" : "newobj",
																	"numinlets" : 2,
																	"numoutlets" : 1,
																	"outlettype" : [ "" ],
																	"patching_rect" : [ 142.0, 270.0, 213.0, 19.0 ],
																	"text" : "sprintf script send meter%ld defeat %ld"
																}

															}
, 															{
																"box" : 																{
																	"comment" : "",
																	"id" : "obj-2",
																	"maxclass" : "inlet",
																	"numinlets" : 0,
																	"numoutlets" : 1,
																	"outlettype" : [ "int" ],
																	"patching_rect" : [ 142.0, 82.0, 25.0, 25.0 ]
																}

															}
, 															{
																"box" : 																{
																	"comment" : "",
																	"id" : "obj-3",
																	"maxclass" : "outlet",
																	"numinlets" : 1,
																	"numoutlets" : 0,
																	"patching_rect" : [ 77.0, 372.0, 25.0, 25.0 ]
																}

															}
, 															{
																"box" : 																{
																	"fontname" : "Verdana",
																	"fontsize" : 10.0,
																	"id" : "obj-4",
																	"maxclass" : "newobj",
																	"numinlets" : 2,
																	"numoutlets" : 3,
																	"outlettype" : [ "bang", "bang", "int" ],
																	"patching_rect" : [ 160.0, 174.0, 51.0, 19.0 ],
																	"text" : "uzi 32 0"
																}

															}
, 															{
																"box" : 																{
																	"fontname" : "Verdana",
																	"fontsize" : 10.0,
																	"id" : "obj-5",
																	"maxclass" : "newobj",
																	"numinlets" : 1,
																	"numoutlets" : 2,
																	"outlettype" : [ "bang", "int" ],
																	"patching_rect" : [ 236.0, 117.0, 32.5, 19.0 ],
																	"text" : "t b i"
																}

															}
 ],
														"lines" : [ 															{
																"patchline" : 																{
																	"destination" : [ "obj-5", 0 ],
																	"hidden" : 0,
																	"midpoints" : [  ],
																	"source" : [ "obj-1", 0 ]
																}

															}
, 															{
																"patchline" : 																{
																	"destination" : [ "obj-3", 0 ],
																	"hidden" : 0,
																	"midpoints" : [  ],
																	"source" : [ "obj-11", 0 ]
																}

															}
, 															{
																"patchline" : 																{
																	"destination" : [ "obj-4", 1 ],
																	"hidden" : 0,
																	"midpoints" : [  ],
																	"source" : [ "obj-2", 0 ]
																}

															}
, 															{
																"patchline" : 																{
																	"destination" : [ "obj-11", 0 ],
																	"hidden" : 0,
																	"midpoints" : [  ],
																	"source" : [ "obj-4", 2 ]
																}

															}
, 															{
																"patchline" : 																{
																	"destination" : [ "obj-11", 1 ],
																	"hidden" : 0,
																	"midpoints" : [  ],
																	"source" : [ "obj-5", 1 ]
																}

															}
, 															{
																"patchline" : 																{
																	"destination" : [ "obj-4", 0 ],
																	"hidden" : 0,
																	"midpoints" : [  ],
																	"source" : [ "obj-5", 0 ]
																}

															}
 ]
													}
,
													"patching_rect" : [ 326.0, 208.0, 52.0, 19.0 ],
													"saved_object_attributes" : 													{
														"fontsize" : 10.0,
														"default_fontface" : 0,
														"default_fontname" : "Verdana",
														"fontname" : "Verdana",
														"default_fontsize" : 10.0,
														"globalpatchername" : "",
														"fontface" : 0
													}
,
													"text" : "p defeat"
												}

											}
, 											{
												"box" : 												{
													"comment" : "",
													"id" : "obj-2",
													"maxclass" : "outlet",
													"numinlets" : 1,
													"numoutlets" : 0,
													"patching_rect" : [ 196.0, 431.0, 25.0, 25.0 ]
												}

											}
, 											{
												"box" : 												{
													"fontname" : "Verdana",
													"fontsize" : 10.0,
													"id" : "obj-4",
													"maxclass" : "newobj",
													"numinlets" : 1,
													"numoutlets" : 5,
													"outlettype" : [ "bang", "int", "int", "bang", "int" ],
													"patching_rect" : [ 183.0, 99.0, 73.0, 19.0 ],
													"text" : "t b i i b i"
												}

											}
, 											{
												"box" : 												{
													"fontname" : "Verdana",
													"fontsize" : 10.0,
													"id" : "obj-8",
													"maxclass" : "newobj",
													"numinlets" : 2,
													"numoutlets" : 1,
													"outlettype" : [ "" ],
													"patcher" : 													{
														"fileversion" : 1,
														"rect" : [ 671.0, 61.0, 640.0, 480.0 ],
														"bglocked" : 0,
														"defrect" : [ 671.0, 61.0, 640.0, 480.0 ],
														"openrect" : [ 0.0, 0.0, 0.0, 0.0 ],
														"openinpresentation" : 0,
														"default_fontsize" : 10.0,
														"default_fontface" : 0,
														"default_fontname" : "Verdana",
														"gridonopen" : 0,
														"gridsize" : [ 15.0, 15.0 ],
														"gridsnaponopen" : 0,
														"toolbarvisible" : 1,
														"boxanimatetime" : 200,
														"imprint" : 0,
														"boxes" : [ 															{
																"box" : 																{
																	"fontname" : "Verdana",
																	"fontsize" : 10.0,
																	"id" : "obj-1",
																	"maxclass" : "newobj",
																	"numinlets" : 1,
																	"numoutlets" : 1,
																	"outlettype" : [ "" ],
																	"patching_rect" : [ 80.0, 268.0, 168.0, 19.0 ],
																	"text" : "sprintf script send meter%ld 0."
																}

															}
, 															{
																"box" : 																{
																	"fontname" : "Verdana",
																	"fontsize" : 10.0,
																	"id" : "obj-14",
																	"maxclass" : "newobj",
																	"numinlets" : 2,
																	"numoutlets" : 1,
																	"outlettype" : [ "int" ],
																	"patching_rect" : [ 50.0, 100.0, 32.5, 19.0 ],
																	"text" : "i 8"
																}

															}
, 															{
																"box" : 																{
																	"fontname" : "Verdana",
																	"fontsize" : 10.0,
																	"id" : "obj-16",
																	"maxclass" : "newobj",
																	"numinlets" : 1,
																	"numoutlets" : 1,
																	"outlettype" : [ "" ],
																	"patching_rect" : [ 51.0, 121.0, 102.0, 19.0 ],
																	"text" : "if $i1 > 0 then $i1"
																}

															}
, 															{
																"box" : 																{
																	"fontname" : "Verdana",
																	"fontsize" : 10.0,
																	"id" : "obj-22",
																	"maxclass" : "newobj",
																	"numinlets" : 2,
																	"numoutlets" : 1,
																	"outlettype" : [ "" ],
																	"patching_rect" : [ 104.0, 238.0, 255.0, 19.0 ],
																	"text" : "sprintf script disconnect multiin %ld meter%ld 0"
																}

															}
, 															{
																"box" : 																{
																	"fontname" : "Verdana",
																	"fontsize" : 10.0,
																	"id" : "obj-23",
																	"maxclass" : "newobj",
																	"numinlets" : 2,
																	"numoutlets" : 3,
																	"outlettype" : [ "bang", "bang", "int" ],
																	"patching_rect" : [ 63.0, 181.0, 51.0, 19.0 ],
																	"text" : "uzi 32 0"
																}

															}
, 															{
																"box" : 																{
																	"fontname" : "Verdana",
																	"fontsize" : 10.0,
																	"id" : "obj-24",
																	"maxclass" : "newobj",
																	"numinlets" : 1,
																	"numoutlets" : 2,
																	"outlettype" : [ "bang", "int" ],
																	"patching_rect" : [ 51.0, 143.0, 32.5, 19.0 ],
																	"text" : "t b i"
																}

															}
, 															{
																"box" : 																{
																	"comment" : "",
																	"id" : "obj-5",
																	"maxclass" : "inlet",
																	"numinlets" : 0,
																	"numoutlets" : 1,
																	"outlettype" : [ "bang" ],
																	"patching_rect" : [ 55.0, 40.0, 25.0, 25.0 ]
																}

															}
, 															{
																"box" : 																{
																	"comment" : "",
																	"id" : "obj-6",
																	"maxclass" : "inlet",
																	"numinlets" : 0,
																	"numoutlets" : 1,
																	"outlettype" : [ "int" ],
																	"patching_rect" : [ 94.0, 41.0, 25.0, 25.0 ]
																}

															}
, 															{
																"box" : 																{
																	"comment" : "",
																	"id" : "obj-7",
																	"maxclass" : "outlet",
																	"numinlets" : 1,
																	"numoutlets" : 0,
																	"patching_rect" : [ 105.0, 317.0, 25.0, 25.0 ]
																}

															}
 ],
														"lines" : [ 															{
																"patchline" : 																{
																	"destination" : [ "obj-7", 0 ],
																	"hidden" : 0,
																	"midpoints" : [  ],
																	"source" : [ "obj-1", 0 ]
																}

															}
, 															{
																"patchline" : 																{
																	"destination" : [ "obj-16", 0 ],
																	"hidden" : 0,
																	"midpoints" : [  ],
																	"source" : [ "obj-14", 0 ]
																}

															}
, 															{
																"patchline" : 																{
																	"destination" : [ "obj-24", 0 ],
																	"hidden" : 0,
																	"midpoints" : [  ],
																	"source" : [ "obj-16", 0 ]
																}

															}
, 															{
																"patchline" : 																{
																	"destination" : [ "obj-7", 0 ],
																	"hidden" : 0,
																	"midpoints" : [  ],
																	"source" : [ "obj-22", 0 ]
																}

															}
, 															{
																"patchline" : 																{
																	"destination" : [ "obj-1", 0 ],
																	"hidden" : 0,
																	"midpoints" : [  ],
																	"source" : [ "obj-23", 2 ]
																}

															}
, 															{
																"patchline" : 																{
																	"destination" : [ "obj-22", 1 ],
																	"hidden" : 0,
																	"midpoints" : [  ],
																	"source" : [ "obj-23", 2 ]
																}

															}
, 															{
																"patchline" : 																{
																	"destination" : [ "obj-22", 0 ],
																	"hidden" : 0,
																	"midpoints" : [  ],
																	"source" : [ "obj-23", 2 ]
																}

															}
, 															{
																"patchline" : 																{
																	"destination" : [ "obj-23", 1 ],
																	"hidden" : 0,
																	"midpoints" : [  ],
																	"source" : [ "obj-24", 1 ]
																}

															}
, 															{
																"patchline" : 																{
																	"destination" : [ "obj-23", 0 ],
																	"hidden" : 0,
																	"midpoints" : [  ],
																	"source" : [ "obj-24", 0 ]
																}

															}
, 															{
																"patchline" : 																{
																	"destination" : [ "obj-14", 0 ],
																	"hidden" : 0,
																	"midpoints" : [  ],
																	"source" : [ "obj-5", 0 ]
																}

															}
, 															{
																"patchline" : 																{
																	"destination" : [ "obj-14", 1 ],
																	"hidden" : 0,
																	"midpoints" : [  ],
																	"source" : [ "obj-6", 0 ]
																}

															}
 ]
													}
,
													"patching_rect" : [ 224.0, 207.0, 73.0, 19.0 ],
													"saved_object_attributes" : 													{
														"fontsize" : 10.0,
														"default_fontface" : 0,
														"default_fontname" : "Verdana",
														"fontname" : "Verdana",
														"default_fontsize" : 10.0,
														"globalpatchername" : "",
														"fontface" : 0
													}
,
													"text" : "p disconnect"
												}

											}
 ],
										"lines" : [ 											{
												"patchline" : 												{
													"destination" : [ "obj-4", 0 ],
													"hidden" : 0,
													"midpoints" : [  ],
													"source" : [ "obj-1", 0 ]
												}

											}
, 											{
												"patchline" : 												{
													"destination" : [ "obj-2", 0 ],
													"hidden" : 0,
													"midpoints" : [  ],
													"source" : [ "obj-13", 0 ]
												}

											}
, 											{
												"patchline" : 												{
													"destination" : [ "obj-13", 2 ],
													"hidden" : 0,
													"midpoints" : [  ],
													"source" : [ "obj-14", 0 ]
												}

											}
, 											{
												"patchline" : 												{
													"destination" : [ "obj-17", 1 ],
													"hidden" : 0,
													"midpoints" : [  ],
													"source" : [ "obj-14", 0 ]
												}

											}
, 											{
												"patchline" : 												{
													"destination" : [ "obj-2", 0 ],
													"hidden" : 0,
													"midpoints" : [  ],
													"source" : [ "obj-17", 0 ]
												}

											}
, 											{
												"patchline" : 												{
													"destination" : [ "obj-13", 1 ],
													"hidden" : 0,
													"midpoints" : [  ],
													"source" : [ "obj-4", 1 ]
												}

											}
, 											{
												"patchline" : 												{
													"destination" : [ "obj-13", 0 ],
													"hidden" : 0,
													"midpoints" : [  ],
													"source" : [ "obj-4", 0 ]
												}

											}
, 											{
												"patchline" : 												{
													"destination" : [ "obj-17", 0 ],
													"hidden" : 0,
													"midpoints" : [  ],
													"source" : [ "obj-4", 4 ]
												}

											}
, 											{
												"patchline" : 												{
													"destination" : [ "obj-8", 0 ],
													"hidden" : 0,
													"midpoints" : [  ],
													"source" : [ "obj-4", 3 ]
												}

											}
, 											{
												"patchline" : 												{
													"destination" : [ "obj-8", 1 ],
													"hidden" : 0,
													"midpoints" : [  ],
													"source" : [ "obj-4", 2 ]
												}

											}
, 											{
												"patchline" : 												{
													"destination" : [ "obj-2", 0 ],
													"hidden" : 0,
													"midpoints" : [  ],
													"source" : [ "obj-8", 0 ]
												}

											}
 ]
									}
,
									"patching_rect" : [ 55.0, 135.0, 108.0, 19.0 ],
									"saved_object_attributes" : 									{
										"fontsize" : 10.0,
										"default_fontface" : 0,
										"default_fontname" : "Verdana",
										"fontname" : "Verdana",
										"default_fontsize" : 10.0,
										"globalpatchername" : "",
										"fontface" : 0
									}
,
									"text" : "p scripting"
								}

							}
, 							{
								"box" : 								{
									"comment" : "",
									"id" : "obj-90",
									"maxclass" : "inlet",
									"numinlets" : 0,
									"numoutlets" : 1,
									"outlettype" : [ "" ],
									"patching_rect" : [ 55.0, 30.0, 25.0, 25.0 ]
								}

							}
, 							{
								"box" : 								{
									"comment" : "",
									"id" : "obj-91",
									"maxclass" : "outlet",
									"numinlets" : 1,
									"numoutlets" : 0,
									"patching_rect" : [ 55.0, 221.0, 25.0, 25.0 ]
								}

							}
 ],
						"lines" : [ 							{
								"patchline" : 								{
									"destination" : [ "obj-91", 0 ],
									"hidden" : 0,
									"midpoints" : [  ],
									"source" : [ "obj-1", 0 ]
								}

							}
, 							{
								"patchline" : 								{
									"destination" : [ "obj-55", 0 ],
									"hidden" : 0,
									"midpoints" : [  ],
									"source" : [ "obj-49", 0 ]
								}

							}
, 							{
								"patchline" : 								{
									"destination" : [ "obj-1", 0 ],
									"hidden" : 0,
									"midpoints" : [  ],
									"source" : [ "obj-50", 2 ]
								}

							}
, 							{
								"patchline" : 								{
									"destination" : [ "obj-49", 0 ],
									"hidden" : 0,
									"midpoints" : [  ],
									"source" : [ "obj-50", 0 ]
								}

							}
, 							{
								"patchline" : 								{
									"destination" : [ "obj-91", 0 ],
									"hidden" : 0,
									"midpoints" : [  ],
									"source" : [ "obj-55", 0 ]
								}

							}
, 							{
								"patchline" : 								{
									"destination" : [ "obj-50", 0 ],
									"hidden" : 0,
									"midpoints" : [  ],
									"source" : [ "obj-90", 0 ]
								}

							}
 ]
					}
,
					"patching_rect" : [ 440.0, 340.0, 100.0, 19.0 ],
					"saved_object_attributes" : 					{
						"fontsize" : 10.0,
						"default_fontface" : 0,
						"default_fontname" : "Verdana",
						"fontname" : "Verdana",
						"default_fontsize" : 10.0,
						"globalpatchername" : "",
						"fontface" : 0
					}
,
					"text" : "p"
				}

			}
 ],
		"lines" : [ 			{
				"patchline" : 				{
					"destination" : [ "obj-2", 0 ],
					"hidden" : 0,
					"midpoints" : [  ],
					"source" : [ "obj-1", 0 ]
				}

			}
, 			{
				"patchline" : 				{
					"destination" : [ "obj-6", 0 ],
					"hidden" : 0,
					"midpoints" : [  ],
					"source" : [ "obj-1", 0 ]
				}

			}
, 			{
				"patchline" : 				{
					"destination" : [ "obj-20", 0 ],
					"hidden" : 0,
					"midpoints" : [ 129.5, 289.0, 39.5, 289.0 ],
					"source" : [ "obj-14", 0 ]
				}

			}
, 			{
				"patchline" : 				{
					"destination" : [ "obj-23", 0 ],
					"hidden" : 0,
					"midpoints" : [  ],
					"source" : [ "obj-15", 0 ]
				}

			}
, 			{
				"patchline" : 				{
					"destination" : [ "obj-22", 0 ],
					"hidden" : 0,
					"midpoints" : [  ],
					"source" : [ "obj-20", 0 ]
				}

			}
, 			{
				"patchline" : 				{
					"destination" : [ "obj-20", 0 ],
					"hidden" : 0,
					"midpoints" : [  ],
					"source" : [ "obj-21", 0 ]
				}

			}
, 			{
				"patchline" : 				{
					"destination" : [ "obj-15", 0 ],
					"hidden" : 0,
					"midpoints" : [  ],
					"source" : [ "obj-23", 0 ]
				}

			}
, 			{
				"patchline" : 				{
					"destination" : [ "obj-20", 0 ],
					"hidden" : 0,
					"midpoints" : [ 94.5, 267.0, 39.5, 267.0 ],
					"source" : [ "obj-25", 0 ]
				}

			}
, 			{
				"patchline" : 				{
					"destination" : [ "obj-92", 0 ],
					"hidden" : 0,
					"midpoints" : [  ],
					"source" : [ "obj-45", 0 ]
				}

			}
, 			{
				"patchline" : 				{
					"destination" : [ "obj-3", 0 ],
					"hidden" : 0,
					"midpoints" : [  ],
					"source" : [ "obj-8", 0 ]
				}

			}
, 			{
				"patchline" : 				{
					"destination" : [ "obj-56", 0 ],
					"hidden" : 0,
					"midpoints" : [  ],
					"source" : [ "obj-92", 0 ]
				}

			}
 ]
	}

}
