max v2;
#N vpatcher 5 25 1105 641;
#P origin -13 -175;
#P window setfont "Sans Serif" 9.;
#P hidden message 318 437 151 9109513;
#P window linecount 1;
#P hidden newex 318 408 65 9109513 prepend set;
#P hidden newex 837 467 48 9109513 route text;
#P window linecount 2;
#P hidden newex 766 -1 253 9109513 jcom.message file_extention @type msg_symbol @description "file extention file name to be generated";
#P objectname file_name[1];
#P window linecount 1;
#P comment 120 41 25 9109513 ext.;
#B frgb 181 181 181;
#P user textedit 143 41 170 58 98436 139 9;
#P hidden newex 330 81 27 9109513 + 1;
#P hidden newex 238 140 48 9109513 pvar take;
#P window linecount 2;
#P hidden newex 238 163 262 9109513 jcom.message take @type msg_int @range 0 20 @clipmode low @description "take number - tail of current file name";
#P objectname take_p;
#P window linecount 1;
#P hidden newex 494 536 284 9109513 jcom.message file @type msg_list @description "current new file";
#P hidden newex 551 249 27 9109513 t b i;
#P hidden button 266 68 15 0;
#P hidden message 266 85 14 9109513 0;
#N counter;
#X flags 0 0;
#P hidden newobj 238 109 66 9109513 counter;
#P hidden newex 605 466 48 9109513 route text;
#P window linecount 2;
#P hidden newex 508 -1 245 9109513 jcom.message file_name @type msg_symbol @description "first part of the file name to be generated";
#P objectname file_name;
#P window linecount 1;
#P hidden newex 494 505 405 9109513 sprintf %s%s%i.%s;
#P number 195 41 20 9 0 0 8225 139 149 149 149 221 221 221 222 222 222 0 0 0;
#P objectname take;
#P comment 216 41 22 9109513 new;
#B frgb 181 181 181;
#P button 238 41 15 0;
#P comment 171 41 25 9109513 take;
#B frgb 181 181 181;
#P comment 0 41 53 9109513 File Name:;
#B frgb 181 181 181;
#P user textedit 51 41 121 58 98436 139 9;
#P hidden newex 345 292 202 9109513 jcom.parameter folder @type msg_symbol;
#P objectname folder;
#P hidden newex 76 147 48 9109513 loadbang;
#P hidden newex 13 147 58 9109513 r jcom.init;
#P hidden newex 13 170 54 9109513 onebang 1;
#P hidden newex 13 191 57 9109513 t clear set;
#P button 2 21 15 0;
#P objectname bt_opendialog;
#P hidden newex 266 292 76 9109513 opendialog fold;
#P user dropfile 19 21 252 39 0 fold;
#P user textedit 17 20 252 38 32896 139 9;
#P hidden button 299 355 15 0;
#P hidden newex 299 333 60 9109513 prepend set;
#P hidden newex 112 501 49 9109513 jcom.out;
#P hidden newex 112 464 45 9109513 jcom.in;
#P hidden message 25 372 111 9109513 /documentation/generate;
#P window linecount 2;
#P hidden newex 9 400 293 9109513 jcom.hub jmod.new_file_browser @size 1U-half @module_type control @description "Browsing and organizing sessions of new files";
#P objectname jcom.hub;
#P hidden inlet 9 376 13 0;
#P hidden outlet 9 513 13 0;
#P bpatcher 0 0 256 61 0 0 jcom.gui.mxt 0 $0_;
#P objectname jcom.gui.1Uh.a.stereo;
#P hidden fasten 4 0 3 0 30 394 14 394;
#P hidden connect 2 0 3 0;
#P hidden connect 3 0 1 0;
#P hidden fasten 16 0 14 0 81 167 18 167;
#P hidden connect 15 0 14 0;
#P hidden connect 14 0 13 0;
#P hidden connect 7 0 9 0;
#P lcolor 3;
#P hidden connect 13 1 9 0;
#P lcolor 3;
#P hidden connect 8 0 9 0;
#P lcolor 3;
#P hidden connect 25 0 18 0;
#P lcolor 3;
#P hidden connect 37 0 35 0;
#P lcolor 3;
#P hidden connect 21 0 27 0;
#P hidden connect 27 0 33 0;
#P hidden fasten 32 0 33 0 243 204 232 204 232 133 243 133;
#P hidden connect 33 0 32 0;
#P hidden fasten 35 0 29 0 148 63 271 63;
#P lcolor 14;
#P hidden fasten 18 0 29 0 56 63 271 63;
#P lcolor 14;
#P hidden connect 29 0 28 0;
#P hidden fasten 34 0 27 2 335 104 271 104;
#P hidden connect 28 0 27 2;
#P hidden connect 12 0 11 0;
#P lcolor 3;
#P hidden fasten 17 1 7 0 446 323 304 323;
#P hidden fasten 11 0 7 0 271 323 304 323;
#P hidden connect 10 0 7 0;
#P lcolor 3;
#P hidden connect 7 0 8 0;
#P hidden fasten 17 1 39 0 446 386 323 386;
#P hidden fasten 11 0 39 0 271 386 323 386;
#P hidden connect 10 0 39 0;
#P lcolor 3;
#P hidden fasten 30 0 40 0 556 433 323 433;
#P hidden connect 39 0 40 0;
#P hidden fasten 32 1 34 0 369 205 516 205 516 74 335 74;
#P hidden fasten 40 0 24 0 323 497 499 497;
#P hidden connect 24 0 31 0;
#P hidden fasten 32 1 30 0 369 205 556 205;
#P hidden connect 18 0 26 0;
#P lcolor 3;
#P hidden connect 26 0 24 1;
#P hidden fasten 25 1 24 1 630 58 630 58;
#P hidden connect 30 1 24 2;
#P hidden connect 35 0 38 0;
#P lcolor 3;
#P hidden connect 38 0 24 3;
#P hidden connect 37 1 24 3;
#P pop;
