max v2;
#N vpatcher 52 52 1013 675;
#P origin -13 -175;
#P window setfont "Sans Serif" 9.;
#P hidden number 157 150 35 9 0 0 8352 139 255 255 255 255 255 255 255 255 255 255 255 255;
#P window linecount 1;
#P hidden newex 166 93 33 9109513 del 10;
#P hidden message 129 125 33 9109513 select;
#P hidden newex 151 72 41 9109513 sel 9 13;
#P hidden message 3 93 33 9109513 select;
#P hidden newex 3 72 41 9109513 sel 9 13;
#P hidden message 81 95 33 9109513 select;
#P hidden newex 81 72 41 9109513 sel 9 13;
#N comlet /file message;
#P hidden outlet 42 513 13 0;
#P hidden message 33 374 165 9109513 /preset/store 1 default \, /preset/write;
#P window linecount 0;
#P hidden message 318 437 151 9109513;
#P window linecount 1;
#P hidden newex 318 408 65 9109513 prepend set;
#P hidden newex 671 422 48 9109513 route text;
#P window linecount 2;
#P hidden newex 766 -1 253 9109513 jcom.message file_extention @type msg_symbol @description "file extention file name to be generated";
#P objectname file_name[1];
#P window linecount 1;
#P comment 120 41 25 9109513 ext.;
#B frgb 181 181 181;
#P user textedit 143 41 170 58 98436 139 9;
#P hidden newex 330 81 27 9109513 + 1;
#P hidden newex 238 140 48 9109513 pvar take;
#P window linecount 2;
#P hidden newex 238 163 262 9109513 jcom.message take @type msg_int @range 0 20 @clipmode low @description "take number - tail of current file name";
#P objectname take_p;
#P window linecount 1;
#P hidden newex 494 536 284 9109513 jcom.message file @type msg_list @description "current new file";
#P hidden newex 551 249 29 9109513 t b i;
#P hidden button 266 68 15 0;
#P hidden message 266 85 14 9109513 0;
#N counter;
#X flags 0 0;
#P hidden newobj 238 109 66 9109513 counter;
#P hidden newex 595 422 48 9109513 route text;
#P window linecount 2;
#P hidden newex 508 -1 245 9109513 jcom.message file_name @type msg_symbol @description "first part of the file name to be generated";
#P objectname file_name;
#P window linecount 1;
#P hidden newex 494 505 125 9109513 sprintf symout %s%s%i.%s;
#P number 195 41 20 9 0 0 8225 139 149 149 149 221 221 221 222 222 222 0 0 0;
#P objectname take;
#P comment 216 41 22 9109513 new;
#B frgb 181 181 181;
#P button 238 41 15 0;
#P comment 171 41 25 9109513 take;
#B frgb 181 181 181;
#P comment 0 41 53 9109513 File Name:;
#B frgb 181 181 181;
#P user textedit 51 41 121 58 98436 139 9;
#P hidden newex 345 292 202 9109513 jcom.parameter folder @type msg_symbol;
#P objectname folder;
#P hidden newex 76 147 48 9109513 loadbang;
#P hidden newex 13 147 58 9109513 r jcom.init;
#P hidden newex 13 170 54 9109513 onebang 1;
#P hidden newex 13 191 57 9109513 t clear set;
#P button 2 21 15 0;
#P objectname bt_opendialog;
#P hidden newex 266 292 76 9109513 opendialog fold;
#P user dropfile 19 21 252 39 0 fold;
#P user textedit 17 20 252 38 32896 139 9;
#P hidden button 299 355 15 0;
#P hidden newex 299 333 60 9109513 prepend set;
#P hidden message 26 355 118 9109513 /documentation/generate;
#P window linecount 2;
#P hidden newex 9 400 293 9109513 jcom.hub jmod.new_file_browser @size 1U-half @module_type control @description "Browsing and organizing sessions of new files";
#P objectname jcom.hub;
#P hidden inlet 9 376 13 0;
#P hidden outlet 9 513 13 0;
#P window linecount 1;
#P hidden newex 42 471 108 9109513 jcom.pass /file @strip 0;
#P bpatcher 0 0 256 61 0 0 jcom.gui.mxt 0 $0_;
#P objectname jcom.gui.1Uh.a.stereo;
#P hidden connect 8 1 44 0;
#P hidden connect 44 1 45 0;
#P hidden connect 44 0 45 0;
#P hidden fasten 5 0 4 0 31 394 14 394;
#P hidden connect 3 0 4 0;
#P hidden fasten 40 0 4 0 38 394 14 394;
#P hidden connect 4 0 2 0;
#P hidden fasten 15 0 13 0 81 167 18 167;
#P hidden connect 14 0 13 0;
#P hidden connect 13 0 12 0;
#P hidden connect 6 0 8 0;
#P lcolor 3;
#P hidden connect 12 1 8 0;
#P lcolor 3;
#P hidden connect 7 0 8 0;
#P lcolor 3;
#P hidden fasten 4 0 1 0 14 451 47 451;
#P hidden connect 1 0 41 0;
#P hidden connect 24 0 17 0;
#P lcolor 3;
#P hidden connect 45 0 17 0;
#P hidden connect 17 1 42 0;
#P hidden connect 42 0 43 0;
#P hidden connect 46 1 47 0;
#P hidden connect 46 0 47 0;
#P hidden connect 36 0 34 0;
#P lcolor 3;
#P hidden connect 43 0 34 0;
#P hidden connect 34 1 46 0;
#P hidden connect 47 0 49 0;
#P hidden connect 46 0 48 0;
#P hidden connect 46 1 48 0;
#P hidden connect 48 0 20 0;
#P hidden connect 20 0 26 0;
#P hidden connect 26 0 32 0;
#P hidden fasten 31 0 32 0 243 204 232 204 232 133 243 133;
#P hidden connect 32 0 31 0;
#P hidden fasten 34 0 28 0 148 63 271 63;
#P lcolor 14;
#P hidden fasten 17 0 28 0 56 63 271 63;
#P lcolor 14;
#P hidden connect 28 0 27 0;
#P hidden fasten 33 0 26 2 335 104 271 104;
#P hidden connect 27 0 26 2;
#P hidden connect 11 0 10 0;
#P lcolor 3;
#P hidden fasten 16 1 6 0 446 323 304 323;
#P hidden connect 9 0 6 0;
#P lcolor 3;
#P hidden fasten 10 0 6 0 271 323 304 323;
#P hidden connect 6 0 7 0;
#P hidden fasten 16 1 38 0 446 386 323 386;
#P hidden fasten 10 0 38 0 271 386 323 386;
#P hidden connect 9 0 38 0;
#P lcolor 3;
#P hidden fasten 29 0 39 0 556 433 323 433;
#P hidden connect 38 0 39 0;
#P hidden fasten 31 1 33 0 369 205 516 205 516 74 335 74;
#P hidden fasten 39 0 23 0 323 497 499 497;
#P hidden connect 23 0 30 0;
#P hidden fasten 24 1 23 1 630 58 537 58;
#P hidden connect 25 0 23 1;
#P hidden fasten 31 1 29 0 369 205 556 205;
#P hidden connect 29 1 23 2;
#P hidden connect 17 0 25 0;
#P lcolor 3;
#P hidden connect 36 1 23 3;
#P hidden connect 37 0 23 3;
#P hidden connect 34 0 37 0;
#P lcolor 3;
#P pop;
