{
	"patcher" : 	{
		"rect" : [ 206.0, 117.0, 621.0, 707.0 ],
		"bglocked" : 0,
		"defrect" : [ 206.0, 117.0, 621.0, 707.0 ],
		"openinpresentation" : 0,
		"default_fontsize" : 10.0,
		"default_fontface" : 0,
		"default_fontname" : "Verdana",
		"gridonopen" : 0,
		"gridsize" : [ 5.0, 5.0 ],
		"gridsnaponopen" : 0,
		"toolbarvisible" : 1,
		"boxfadetime" : 200,
		"boxanimatetime" : 200,
		"scrollanimatetime" : 200,
		"metadata" : [  ],
		"boxes" : [ 			{
				"box" : 				{
					"maxclass" : "comment",
					"text" : "Converts to ASCII",
					"patching_rect" : [ 134.0, 278.0, 163.0, 17.0 ],
					"fontname" : "Verdana",
					"id" : "obj-1",
					"numinlets" : 1,
					"numoutlets" : 0,
					"fontsize" : 9.0
				}

			}
, 			{
				"box" : 				{
					"maxclass" : "newobj",
					"text" : "p changeport",
					"patching_rect" : [ 199.0, 61.0, 63.0, 17.0 ],
					"fontname" : "Verdana",
					"id" : "obj-2",
					"numinlets" : 1,
					"numoutlets" : 1,
					"fontsize" : 9.0,
					"outlettype" : [ "" ],
					"patcher" : 					{
						"rect" : [ 317.0, 239.0, 244.0, 371.0 ],
										"bglocked" : 0,
						"defrect" : [ 317.0, 239.0, 244.0, 371.0 ],
						"openinpresentation" : 0,
						"default_fontsize" : 10.0,
						"default_fontface" : 0,
						"default_fontname" : "Verdana",
						"gridonopen" : 0,
						"gridsize" : [ 5.0, 5.0 ],
						"gridsnaponopen" : 0,
						"toolbarvisible" : 1,
						"boxfadetime" : 200,
						"boxanimatetime" : 200,
						"scrollanimatetime" : 200,
						"metadata" : [  ],
						"boxes" : [ 							{
								"box" : 								{
									"maxclass" : "inlet",
									"patching_rect" : [ 54.0, 41.0, 15.0, 15.0 ],
									"id" : "obj-1",
									"numinlets" : 0,
									"numoutlets" : 1,
									"outlettype" : [ "" ],
									"comment" : ""
								}

							}
, 							{
								"box" : 								{
									"maxclass" : "outlet",
									"patching_rect" : [ 54.0, 266.0, 15.0, 15.0 ],
									"id" : "obj-2",
									"numinlets" : 1,
									"numoutlets" : 0,
									"comment" : ""
								}

							}
, 							{
								"box" : 								{
									"maxclass" : "message",
									"text" : "j",
									"patching_rect" : [ 171.0, 145.0, 16.0, 15.0 ],
									"fontname" : "Verdana",
									"id" : "obj-3",
									"numinlets" : 2,
									"numoutlets" : 1,
									"fontsize" : 9.0,
									"outlettype" : [ "" ]
								}

							}
, 							{
								"box" : 								{
									"maxclass" : "message",
									"text" : "i",
									"patching_rect" : [ 158.0, 145.0, 16.0, 15.0 ],
									"fontname" : "Verdana",
									"id" : "obj-4",
									"numinlets" : 2,
									"numoutlets" : 1,
									"fontsize" : 9.0,
									"outlettype" : [ "" ]
								}

							}
, 							{
								"box" : 								{
									"maxclass" : "message",
									"text" : "h",
									"patching_rect" : [ 145.0, 145.0, 16.0, 15.0 ],
									"fontname" : "Verdana",
									"id" : "obj-5",
									"numinlets" : 2,
									"numoutlets" : 1,
									"fontsize" : 9.0,
									"outlettype" : [ "" ]
								}

							}
, 							{
								"box" : 								{
									"maxclass" : "message",
									"text" : "g",
									"patching_rect" : [ 132.0, 145.0, 16.0, 15.0 ],
									"fontname" : "Verdana",
									"id" : "obj-6",
									"numinlets" : 2,
									"numoutlets" : 1,
									"fontsize" : 9.0,
									"outlettype" : [ "" ]
								}

							}
, 							{
								"box" : 								{
									"maxclass" : "message",
									"text" : "f",
									"patching_rect" : [ 119.0, 145.0, 16.0, 15.0 ],
									"fontname" : "Verdana",
									"id" : "obj-7",
									"numinlets" : 2,
									"numoutlets" : 1,
									"fontsize" : 9.0,
									"outlettype" : [ "" ]
								}

							}
, 							{
								"box" : 								{
									"maxclass" : "message",
									"text" : "e",
									"patching_rect" : [ 106.0, 145.0, 16.0, 15.0 ],
									"fontname" : "Verdana",
									"id" : "obj-8",
									"numinlets" : 2,
									"numoutlets" : 1,
									"fontsize" : 9.0,
									"outlettype" : [ "" ]
								}

							}
, 							{
								"box" : 								{
									"maxclass" : "message",
									"text" : "d",
									"patching_rect" : [ 93.0, 145.0, 16.0, 15.0 ],
									"fontname" : "Verdana",
									"id" : "obj-9",
									"numinlets" : 2,
									"numoutlets" : 1,
									"fontsize" : 9.0,
									"outlettype" : [ "" ]
								}

							}
, 							{
								"box" : 								{
									"maxclass" : "message",
									"text" : "c",
									"patching_rect" : [ 80.0, 145.0, 16.0, 15.0 ],
									"fontname" : "Verdana",
									"id" : "obj-10",
									"numinlets" : 2,
									"numoutlets" : 1,
									"fontsize" : 9.0,
									"outlettype" : [ "" ]
								}

							}
, 							{
								"box" : 								{
									"maxclass" : "message",
									"text" : "b",
									"patching_rect" : [ 67.0, 145.0, 16.0, 15.0 ],
									"fontname" : "Verdana",
									"id" : "obj-11",
									"numinlets" : 2,
									"numoutlets" : 1,
									"fontsize" : 9.0,
									"outlettype" : [ "" ]
								}

							}
, 							{
								"box" : 								{
									"maxclass" : "message",
									"text" : "a",
									"patching_rect" : [ 54.0, 145.0, 16.0, 15.0 ],
									"fontname" : "Verdana",
									"id" : "obj-12",
									"numinlets" : 2,
									"numoutlets" : 1,
									"fontsize" : 9.0,
									"outlettype" : [ "" ]
								}

							}
, 							{
								"box" : 								{
									"maxclass" : "newobj",
									"text" : "select 0 1 2 3 4 5 6 7 8 9",
									"patching_rect" : [ 54.0, 99.0, 144.0, 17.0 ],
									"fontname" : "Verdana",
									"id" : "obj-13",
									"numinlets" : 1,
									"numoutlets" : 11,
									"fontsize" : 9.0,
									"outlettype" : [ "bang", "bang", "bang", "bang", "bang", "bang", "bang", "bang", "bang", "bang", "" ]
								}

							}
, 							{
								"box" : 								{
									"maxclass" : "newobj",
									"text" : "prepend port",
									"patching_rect" : [ 54.0, 228.0, 67.0, 17.0 ],
									"fontname" : "Verdana",
									"id" : "obj-14",
									"numinlets" : 1,
									"numoutlets" : 1,
									"fontsize" : 9.0,
									"outlettype" : [ "" ]
								}

							}
 ],
						"lines" : [ 							{
								"patchline" : 								{
									"source" : [ "obj-1", 0 ],
									"destination" : [ "obj-13", 0 ],
									"hidden" : 0
								}

							}
, 							{
								"patchline" : 								{
									"source" : [ "obj-13", 0 ],
									"destination" : [ "obj-12", 0 ],
									"hidden" : 0
								}

							}
, 							{
								"patchline" : 								{
									"source" : [ "obj-12", 0 ],
									"destination" : [ "obj-14", 0 ],
									"hidden" : 0
								}

							}
, 							{
								"patchline" : 								{
									"source" : [ "obj-11", 0 ],
									"destination" : [ "obj-14", 0 ],
									"hidden" : 0
								}

							}
, 							{
								"patchline" : 								{
									"source" : [ "obj-10", 0 ],
									"destination" : [ "obj-14", 0 ],
									"hidden" : 0
								}

							}
, 							{
								"patchline" : 								{
									"source" : [ "obj-9", 0 ],
									"destination" : [ "obj-14", 0 ],
									"hidden" : 0
								}

							}
, 							{
								"patchline" : 								{
									"source" : [ "obj-8", 0 ],
									"destination" : [ "obj-14", 0 ],
									"hidden" : 0
								}

							}
, 							{
								"patchline" : 								{
									"source" : [ "obj-7", 0 ],
									"destination" : [ "obj-14", 0 ],
									"hidden" : 0
								}

							}
, 							{
								"patchline" : 								{
									"source" : [ "obj-6", 0 ],
									"destination" : [ "obj-14", 0 ],
									"hidden" : 0
								}

							}
, 							{
								"patchline" : 								{
									"source" : [ "obj-5", 0 ],
									"destination" : [ "obj-14", 0 ],
									"hidden" : 0
								}

							}
, 							{
								"patchline" : 								{
									"source" : [ "obj-4", 0 ],
									"destination" : [ "obj-14", 0 ],
									"hidden" : 0
								}

							}
, 							{
								"patchline" : 								{
									"source" : [ "obj-3", 0 ],
									"destination" : [ "obj-14", 0 ],
									"hidden" : 0
								}

							}
, 							{
								"patchline" : 								{
									"source" : [ "obj-14", 0 ],
									"destination" : [ "obj-2", 0 ],
									"hidden" : 0
								}

							}
, 							{
								"patchline" : 								{
									"source" : [ "obj-13", 1 ],
									"destination" : [ "obj-11", 0 ],
									"hidden" : 0
								}

							}
, 							{
								"patchline" : 								{
									"source" : [ "obj-13", 2 ],
									"destination" : [ "obj-10", 0 ],
									"hidden" : 0
								}

							}
, 							{
								"patchline" : 								{
									"source" : [ "obj-13", 3 ],
									"destination" : [ "obj-9", 0 ],
									"hidden" : 0
								}

							}
, 							{
								"patchline" : 								{
									"source" : [ "obj-13", 4 ],
									"destination" : [ "obj-8", 0 ],
									"hidden" : 0
								}

							}
, 							{
								"patchline" : 								{
									"source" : [ "obj-13", 5 ],
									"destination" : [ "obj-7", 0 ],
									"hidden" : 0
								}

							}
, 							{
								"patchline" : 								{
									"source" : [ "obj-13", 6 ],
									"destination" : [ "obj-6", 0 ],
									"hidden" : 0
								}

							}
, 							{
								"patchline" : 								{
									"source" : [ "obj-13", 7 ],
									"destination" : [ "obj-5", 0 ],
									"hidden" : 0
								}

							}
, 							{
								"patchline" : 								{
									"source" : [ "obj-13", 8 ],
									"destination" : [ "obj-4", 0 ],
									"hidden" : 0
								}

							}
, 							{
								"patchline" : 								{
									"source" : [ "obj-13", 9 ],
									"destination" : [ "obj-3", 0 ],
									"hidden" : 0
								}

							}
 ]
					}
,
					"saved_object_attributes" : 					{
						"default_fontface" : 0,
						"fontname" : "Verdana",
						"default_fontname" : "Verdana",
						"fontface" : 0,
						"globalpatchername" : "",
						"fontsize" : 10.0,
						"default_fontsize" : 10.0
					}

				}

			}
, 			{
				"box" : 				{
					"maxclass" : "newobj",
					"text" : "fromsymbol",
					"patching_rect" : [ 63.0, 300.0, 64.0, 17.0 ],
					"fontname" : "Verdana",
					"id" : "obj-3",
					"numinlets" : 1,
					"numoutlets" : 1,
					"fontsize" : 9.0,
					"outlettype" : [ "" ]
				}

			}
, 			{
				"box" : 				{
					"maxclass" : "newobj",
					"text" : "itoa",
					"patching_rect" : [ 63.0, 273.0, 40.0, 17.0 ],
					"fontname" : "Verdana",
					"id" : "obj-4",
					"numinlets" : 3,
					"numoutlets" : 1,
					"fontsize" : 9.0,
					"outlettype" : [ "int" ]
				}

			}
, 			{
				"box" : 				{
					"maxclass" : "newobj",
					"text" : "prepend append",
					"patching_rect" : [ 330.0, 231.0, 75.0, 17.0 ],
					"fontname" : "Verdana",
					"id" : "obj-5",
					"numinlets" : 1,
					"numoutlets" : 1,
					"fontsize" : 9.0,
					"outlettype" : [ "" ]
				}

			}
, 			{
				"box" : 				{
					"maxclass" : "newobj",
					"text" : "iter",
					"patching_rect" : [ 330.0, 209.0, 25.0, 17.0 ],
					"fontname" : "Verdana",
					"id" : "obj-6",
					"numinlets" : 1,
					"numoutlets" : 1,
					"fontsize" : 9.0,
					"outlettype" : [ "" ]
				}

			}
, 			{
				"box" : 				{
					"maxclass" : "outlet",
					"patching_rect" : [ 561.0, 344.0, 23.0, 23.0 ],
					"id" : "obj-7",
					"numinlets" : 1,
					"numoutlets" : 0,
					"comment" : ""
				}

			}
, 			{
				"box" : 				{
					"maxclass" : "newobj",
					"text" : "route port",
					"patching_rect" : [ 330.0, 186.0, 54.0, 17.0 ],
					"fontname" : "Verdana",
					"id" : "obj-8",
					"numinlets" : 1,
					"numoutlets" : 2,
					"fontsize" : 9.0,
					"outlettype" : [ "", "" ]
				}

			}
, 			{
				"box" : 				{
					"maxclass" : "newobj",
					"text" : "jcom.return raw\/8 @description \"Raw values from Polhemus sensor 8\"",
					"patching_rect" : [ 63.0, 626.0, 340.0, 17.0 ],
					"fontname" : "Verdana",
					"id" : "obj-9",
					"numinlets" : 1,
					"numoutlets" : 2,
					"fontsize" : 9.0,
					"outlettype" : [ "", "" ]
				}

			}
, 			{
				"box" : 				{
					"maxclass" : "newobj",
					"text" : "jcom.return raw\/7 @description \"Raw values from Polhemus sensor 7\"",
					"patching_rect" : [ 63.0, 598.0, 340.0, 17.0 ],
					"fontname" : "Verdana",
					"id" : "obj-10",
					"numinlets" : 1,
					"numoutlets" : 2,
					"fontsize" : 9.0,
					"outlettype" : [ "", "" ]
				}

			}
, 			{
				"box" : 				{
					"maxclass" : "newobj",
					"text" : "zl slice 6",
					"patching_rect" : [ 455.0, 406.0, 51.0, 17.0 ],
					"fontname" : "Verdana",
					"id" : "obj-11",
					"numinlets" : 2,
					"numoutlets" : 2,
					"fontsize" : 9.0,
					"outlettype" : [ "", "" ]
				}

			}
, 			{
				"box" : 				{
					"maxclass" : "newobj",
					"text" : "zl slice 6",
					"patching_rect" : [ 399.0, 406.0, 51.0, 17.0 ],
					"fontname" : "Verdana",
					"id" : "obj-12",
					"numinlets" : 2,
					"numoutlets" : 2,
					"fontsize" : 9.0,
					"outlettype" : [ "", "" ]
				}

			}
, 			{
				"box" : 				{
					"maxclass" : "newobj",
					"text" : "zl slice 6",
					"patching_rect" : [ 343.0, 406.0, 51.0, 17.0 ],
					"fontname" : "Verdana",
					"id" : "obj-13",
					"numinlets" : 2,
					"numoutlets" : 2,
					"fontsize" : 9.0,
					"outlettype" : [ "", "" ]
				}

			}
, 			{
				"box" : 				{
					"maxclass" : "newobj",
					"text" : "zl slice 6",
					"patching_rect" : [ 287.0, 406.0, 51.0, 17.0 ],
					"fontname" : "Verdana",
					"id" : "obj-14",
					"numinlets" : 2,
					"numoutlets" : 2,
					"fontsize" : 9.0,
					"outlettype" : [ "", "" ]
				}

			}
, 			{
				"box" : 				{
					"maxclass" : "newobj",
					"text" : "zl slice 6",
					"patching_rect" : [ 231.0, 406.0, 51.0, 17.0 ],
					"fontname" : "Verdana",
					"id" : "obj-15",
					"numinlets" : 2,
					"numoutlets" : 2,
					"fontsize" : 9.0,
					"outlettype" : [ "", "" ]
				}

			}
, 			{
				"box" : 				{
					"maxclass" : "newobj",
					"text" : "zl slice 6",
					"patching_rect" : [ 175.0, 406.0, 51.0, 17.0 ],
					"fontname" : "Verdana",
					"id" : "obj-16",
					"numinlets" : 2,
					"numoutlets" : 2,
					"fontsize" : 9.0,
					"outlettype" : [ "", "" ]
				}

			}
, 			{
				"box" : 				{
					"maxclass" : "newobj",
					"text" : "jcom.return raw\/6 @description \"Raw values from Polhemus sensor 6\"",
					"patching_rect" : [ 63.0, 572.0, 340.0, 17.0 ],
					"fontname" : "Verdana",
					"id" : "obj-17",
					"numinlets" : 1,
					"numoutlets" : 2,
					"fontsize" : 9.0,
					"outlettype" : [ "", "" ]
				}

			}
, 			{
				"box" : 				{
					"maxclass" : "newobj",
					"text" : "jcom.return raw\/5 @description \"Raw values from Polhemus sensor 5\"",
					"patching_rect" : [ 63.0, 544.0, 340.0, 17.0 ],
					"fontname" : "Verdana",
					"id" : "obj-18",
					"numinlets" : 1,
					"numoutlets" : 2,
					"fontsize" : 9.0,
					"outlettype" : [ "", "" ]
				}

			}
, 			{
				"box" : 				{
					"maxclass" : "newobj",
					"text" : "jcom.return raw\/4 @description \"Raw values from Polhemus sensor 4\"",
					"patching_rect" : [ 63.0, 515.0, 340.0, 17.0 ],
					"fontname" : "Verdana",
					"id" : "obj-19",
					"numinlets" : 1,
					"numoutlets" : 2,
					"fontsize" : 9.0,
					"outlettype" : [ "", "" ]
				}

			}
, 			{
				"box" : 				{
					"maxclass" : "newobj",
					"text" : "jcom.return raw\/3 @description \"Raw values from Polhemus sensor 3\"",
					"patching_rect" : [ 63.0, 487.0, 340.0, 17.0 ],
					"fontname" : "Verdana",
					"id" : "obj-20",
					"numinlets" : 1,
					"numoutlets" : 2,
					"fontsize" : 9.0,
					"outlettype" : [ "", "" ]
				}

			}
, 			{
				"box" : 				{
					"maxclass" : "message",
					"text" : "65 84 13",
					"patching_rect" : [ 196.0, 110.0, 51.0, 15.0 ],
					"fontname" : "Verdana",
					"id" : "obj-21",
					"numinlets" : 2,
					"numoutlets" : 1,
					"fontsize" : 9.0,
					"outlettype" : [ "" ]
				}

			}
, 			{
				"box" : 				{
					"maxclass" : "newobj",
					"text" : "zl slice 6",
					"patching_rect" : [ 119.0, 406.0, 51.0, 17.0 ],
					"fontname" : "Verdana",
					"id" : "obj-22",
					"numinlets" : 2,
					"numoutlets" : 2,
					"fontsize" : 9.0,
					"outlettype" : [ "", "" ]
				}

			}
, 			{
				"box" : 				{
					"maxclass" : "newobj",
					"text" : "zl slice 6",
					"patching_rect" : [ 63.0, 406.0, 51.0, 17.0 ],
					"fontname" : "Verdana",
					"id" : "obj-23",
					"numinlets" : 2,
					"numoutlets" : 2,
					"fontsize" : 9.0,
					"outlettype" : [ "", "" ]
				}

			}
, 			{
				"box" : 				{
					"maxclass" : "newobj",
					"text" : "route 1 2 3 4 5 6 7 8",
					"patching_rect" : [ 63.0, 359.0, 464.0, 17.0 ],
					"fontname" : "Verdana",
					"id" : "obj-24",
					"numinlets" : 1,
					"numoutlets" : 9,
					"fontsize" : 9.0,
					"outlettype" : [ "", "", "", "", "", "", "", "", "" ]
				}

			}
, 			{
				"box" : 				{
					"maxclass" : "comment",
					"text" : "Removes extra line break in the 7th position",
					"patching_rect" : [ 282.0, 392.0, 209.0, 17.0 ],
					"fontname" : "Verdana",
					"id" : "obj-25",
					"numinlets" : 1,
					"numoutlets" : 0,
					"fontsize" : 9.0
				}

			}
, 			{
				"box" : 				{
					"maxclass" : "toggle",
					"patching_rect" : [ 63.0, 61.0, 15.0, 15.0 ],
					"id" : "obj-26",
					"numinlets" : 1,
					"numoutlets" : 1,
					"outlettype" : [ "int" ]
				}

			}
, 			{
				"box" : 				{
					"maxclass" : "comment",
					"text" : "Converts ASCII values to symbols",
					"patching_rect" : [ 134.0, 303.0, 163.0, 17.0 ],
					"fontname" : "Verdana",
					"id" : "obj-27",
					"numinlets" : 1,
					"numoutlets" : 0,
					"fontsize" : 9.0
				}

			}
, 			{
				"box" : 				{
					"maxclass" : "comment",
					"text" : "Cuts up the string at the end of lines",
					"patching_rect" : [ 134.0, 249.0, 173.0, 17.0 ],
					"fontname" : "Verdana",
					"id" : "obj-28",
					"numinlets" : 1,
					"numoutlets" : 0,
					"fontsize" : 9.0
				}

			}
, 			{
				"box" : 				{
					"maxclass" : "newobj",
					"text" : "zl group 60",
					"patching_rect" : [ 63.0, 246.0, 67.0, 17.0 ],
					"fontname" : "Verdana",
					"id" : "obj-29",
					"numinlets" : 2,
					"numoutlets" : 2,
					"fontsize" : 9.0,
					"outlettype" : [ "", "" ]
				}

			}
, 			{
				"box" : 				{
					"maxclass" : "toggle",
					"patching_rect" : [ 105.0, 180.0, 15.0, 15.0 ],
					"id" : "obj-30",
					"numinlets" : 1,
					"numoutlets" : 1,
					"outlettype" : [ "int" ]
				}

			}
, 			{
				"box" : 				{
					"maxclass" : "newobj",
					"text" : "gate",
					"patching_rect" : [ 105.0, 198.0, 29.0, 17.0 ],
					"fontname" : "Verdana",
					"id" : "obj-31",
					"numinlets" : 2,
					"numoutlets" : 1,
					"fontsize" : 9.0,
					"outlettype" : [ "" ]
				}

			}
, 			{
				"box" : 				{
					"maxclass" : "button",
					"patching_rect" : [ 42.0, 92.0, 15.0, 15.0 ],
					"id" : "obj-32",
					"numinlets" : 1,
					"numoutlets" : 1,
					"outlettype" : [ "bang" ]
				}

			}
, 			{
				"box" : 				{
					"maxclass" : "newobj",
					"text" : "t b 80",
					"patching_rect" : [ 63.0, 114.0, 37.0, 17.0 ],
					"fontname" : "Verdana",
					"id" : "obj-33",
					"numinlets" : 1,
					"numoutlets" : 2,
					"fontsize" : 9.0,
					"outlettype" : [ "bang", "int" ]
				}

			}
, 			{
				"box" : 				{
					"maxclass" : "newobj",
					"text" : "metro 100",
					"patching_rect" : [ 63.0, 89.0, 78.0, 17.0 ],
					"fontname" : "Verdana",
					"id" : "obj-34",
					"numinlets" : 2,
					"numoutlets" : 1,
					"fontsize" : 9.0,
					"outlettype" : [ "bang" ]
				}

			}
, 			{
				"box" : 				{
					"maxclass" : "message",
					"text" : "print",
					"patching_rect" : [ 151.0, 110.0, 32.0, 15.0 ],
					"fontname" : "Verdana",
					"id" : "obj-35",
					"numinlets" : 2,
					"numoutlets" : 1,
					"fontsize" : 9.0,
					"outlettype" : [ "" ]
				}

			}
, 			{
				"box" : 				{
					"maxclass" : "newobj",
					"text" : "print status",
					"patching_rect" : [ 105.0, 220.0, 63.0, 17.0 ],
					"fontname" : "Verdana",
					"id" : "obj-36",
					"numinlets" : 1,
					"numoutlets" : 0,
					"fontsize" : 9.0
				}

			}
, 			{
				"box" : 				{
					"maxclass" : "button",
					"patching_rect" : [ 131.0, 111.0, 15.0, 15.0 ],
					"id" : "obj-37",
					"numinlets" : 1,
					"numoutlets" : 1,
					"outlettype" : [ "bang" ]
				}

			}
, 			{
				"box" : 				{
					"maxclass" : "newobj",
					"text" : "serial a 115200",
					"color" : [ 1.0, 0.890196, 0.090196, 1.0 ],
					"patching_rect" : [ 63.0, 158.0, 90.0, 17.0 ],
					"fontname" : "Verdana",
					"id" : "obj-38",
					"numinlets" : 1,
					"numoutlets" : 2,
					"fontsize" : 9.0,
					"outlettype" : [ "int", "" ]
				}

			}
, 			{
				"box" : 				{
					"maxclass" : "newobj",
					"text" : "jcom.return raw\/2 @description \"Raw values from Polhemus sensor 2\"",
					"patching_rect" : [ 63.0, 459.0, 340.0, 17.0 ],
					"fontname" : "Verdana",
					"id" : "obj-39",
					"numinlets" : 1,
					"numoutlets" : 2,
					"fontsize" : 9.0,
					"outlettype" : [ "", "" ]
				}

			}
, 			{
				"box" : 				{
					"maxclass" : "number",
					"patching_rect" : [ 131.0, 61.0, 35.0, 17.0 ],
					"triscale" : 0.9,
					"fontname" : "Verdana",
					"htextcolor" : [ 0.870588, 0.870588, 0.870588, 1.0 ],
					"id" : "obj-40",
					"numinlets" : 1,
					"numoutlets" : 2,
					"fontsize" : 9.0,
					"bgcolor" : [ 0.866667, 0.866667, 0.866667, 1.0 ],
					"outlettype" : [ "int", "bang" ]
				}

			}
, 			{
				"box" : 				{
					"maxclass" : "comment",
					"text" : "in ms",
					"patching_rect" : [ 136.0, 76.0, 36.0, 17.0 ],
					"fontname" : "Verdana",
					"id" : "obj-41",
					"numinlets" : 1,
					"numoutlets" : 0,
					"fontsize" : 9.0
				}

			}
, 			{
				"box" : 				{
					"maxclass" : "newobj",
					"text" : "jcom.return raw\/1 @description \"Raw values from Polhemus sensor 1\"",
					"patching_rect" : [ 63.0, 433.0, 340.0, 17.0 ],
					"fontname" : "Verdana",
					"id" : "obj-42",
					"numinlets" : 1,
					"numoutlets" : 2,
					"fontsize" : 9.0,
					"outlettype" : [ "", "" ]
				}

			}
, 			{
				"box" : 				{
					"maxclass" : "newobj",
					"text" : "jcom.oscroute \/status \/sample_rate \/menu",
					"patching_rect" : [ 63.0, 33.0, 214.0, 17.0 ],
					"fontname" : "Verdana",
					"id" : "obj-43",
					"numinlets" : 1,
					"numoutlets" : 4,
					"fontsize" : 9.0,
					"outlettype" : [ "", "", "", "" ]
				}

			}
, 			{
				"box" : 				{
					"maxclass" : "inlet",
					"patching_rect" : [ 63.0, 13.0, 15.0, 15.0 ],
					"id" : "obj-44",
					"numinlets" : 0,
					"numoutlets" : 1,
					"outlettype" : [ "" ],
					"comment" : ""
				}

			}
 ],
		"lines" : [ 			{
				"patchline" : 				{
					"source" : [ "obj-44", 0 ],
					"destination" : [ "obj-43", 0 ],
					"hidden" : 0
				}

			}
, 			{
				"patchline" : 				{
					"source" : [ "obj-43", 0 ],
					"destination" : [ "obj-26", 0 ],
					"hidden" : 0
				}

			}
, 			{
				"patchline" : 				{
					"source" : [ "obj-26", 0 ],
					"destination" : [ "obj-34", 0 ],
					"hidden" : 0
				}

			}
, 			{
				"patchline" : 				{
					"source" : [ "obj-34", 0 ],
					"destination" : [ "obj-33", 0 ],
					"hidden" : 0
				}

			}
, 			{
				"patchline" : 				{
					"source" : [ "obj-32", 0 ],
					"destination" : [ "obj-33", 0 ],
					"hidden" : 0,
					"midpoints" : [ 51.0, 111.0, 72.5, 111.0 ]
				}

			}
, 			{
				"patchline" : 				{
					"source" : [ "obj-33", 1 ],
					"destination" : [ "obj-38", 0 ],
					"hidden" : 0,
					"midpoints" : [ 90.5, 141.0, 72.5, 141.0 ]
				}

			}
, 			{
				"patchline" : 				{
					"source" : [ "obj-33", 0 ],
					"destination" : [ "obj-38", 0 ],
					"hidden" : 0,
					"midpoints" : [ 72.5, 144.0, 72.5, 144.0 ]
				}

			}
, 			{
				"patchline" : 				{
					"source" : [ "obj-35", 0 ],
					"destination" : [ "obj-38", 0 ],
					"hidden" : 0,
					"midpoints" : [ 160.5, 141.0, 72.5, 141.0 ]
				}

			}
, 			{
				"patchline" : 				{
					"source" : [ "obj-37", 0 ],
					"destination" : [ "obj-38", 0 ],
					"hidden" : 0,
					"midpoints" : [ 140.0, 142.0, 72.5, 142.0 ]
				}

			}
, 			{
				"patchline" : 				{
					"source" : [ "obj-21", 0 ],
					"destination" : [ "obj-38", 0 ],
					"hidden" : 0,
					"midpoints" : [ 205.5, 142.0, 72.5, 142.0 ]
				}

			}
, 			{
				"patchline" : 				{
					"source" : [ "obj-2", 0 ],
					"destination" : [ "obj-38", 0 ],
					"hidden" : 0
				}

			}
, 			{
				"patchline" : 				{
					"source" : [ "obj-38", 0 ],
					"destination" : [ "obj-29", 0 ],
					"hidden" : 0
				}

			}
, 			{
				"patchline" : 				{
					"source" : [ "obj-29", 0 ],
					"destination" : [ "obj-4", 0 ],
					"hidden" : 0
				}

			}
, 			{
				"patchline" : 				{
					"source" : [ "obj-4", 0 ],
					"destination" : [ "obj-3", 0 ],
					"hidden" : 0
				}

			}
, 			{
				"patchline" : 				{
					"source" : [ "obj-3", 0 ],
					"destination" : [ "obj-24", 0 ],
					"hidden" : 0
				}

			}
, 			{
				"patchline" : 				{
					"source" : [ "obj-24", 0 ],
					"destination" : [ "obj-23", 0 ],
					"hidden" : 0
				}

			}
, 			{
				"patchline" : 				{
					"source" : [ "obj-23", 0 ],
					"destination" : [ "obj-42", 0 ],
					"hidden" : 0
				}

			}
, 			{
				"patchline" : 				{
					"source" : [ "obj-22", 0 ],
					"destination" : [ "obj-39", 0 ],
					"hidden" : 0
				}

			}
, 			{
				"patchline" : 				{
					"source" : [ "obj-16", 0 ],
					"destination" : [ "obj-20", 0 ],
					"hidden" : 0
				}

			}
, 			{
				"patchline" : 				{
					"source" : [ "obj-15", 0 ],
					"destination" : [ "obj-19", 0 ],
					"hidden" : 0
				}

			}
, 			{
				"patchline" : 				{
					"source" : [ "obj-14", 0 ],
					"destination" : [ "obj-18", 0 ],
					"hidden" : 0
				}

			}
, 			{
				"patchline" : 				{
					"source" : [ "obj-13", 0 ],
					"destination" : [ "obj-17", 0 ],
					"hidden" : 0
				}

			}
, 			{
				"patchline" : 				{
					"source" : [ "obj-12", 0 ],
					"destination" : [ "obj-10", 0 ],
					"hidden" : 0
				}

			}
, 			{
				"patchline" : 				{
					"source" : [ "obj-11", 0 ],
					"destination" : [ "obj-9", 0 ],
					"hidden" : 0
				}

			}
, 			{
				"patchline" : 				{
					"source" : [ "obj-30", 0 ],
					"destination" : [ "obj-31", 0 ],
					"hidden" : 0
				}

			}
, 			{
				"patchline" : 				{
					"source" : [ "obj-31", 0 ],
					"destination" : [ "obj-36", 0 ],
					"hidden" : 0
				}

			}
, 			{
				"patchline" : 				{
					"source" : [ "obj-24", 1 ],
					"destination" : [ "obj-22", 0 ],
					"hidden" : 0
				}

			}
, 			{
				"patchline" : 				{
					"source" : [ "obj-38", 1 ],
					"destination" : [ "obj-31", 1 ],
					"hidden" : 0
				}

			}
, 			{
				"patchline" : 				{
					"source" : [ "obj-43", 1 ],
					"destination" : [ "obj-40", 0 ],
					"hidden" : 0
				}

			}
, 			{
				"patchline" : 				{
					"source" : [ "obj-40", 0 ],
					"destination" : [ "obj-34", 1 ],
					"hidden" : 0
				}

			}
, 			{
				"patchline" : 				{
					"source" : [ "obj-24", 2 ],
					"destination" : [ "obj-16", 0 ],
					"hidden" : 0
				}

			}
, 			{
				"patchline" : 				{
					"source" : [ "obj-43", 2 ],
					"destination" : [ "obj-2", 0 ],
					"hidden" : 0
				}

			}
, 			{
				"patchline" : 				{
					"source" : [ "obj-24", 3 ],
					"destination" : [ "obj-15", 0 ],
					"hidden" : 0
				}

			}
, 			{
				"patchline" : 				{
					"source" : [ "obj-24", 4 ],
					"destination" : [ "obj-14", 0 ],
					"hidden" : 0
				}

			}
, 			{
				"patchline" : 				{
					"source" : [ "obj-38", 1 ],
					"destination" : [ "obj-8", 0 ],
					"hidden" : 0,
					"midpoints" : [ 143.5, 179.0, 339.5, 179.0 ]
				}

			}
, 			{
				"patchline" : 				{
					"source" : [ "obj-8", 0 ],
					"destination" : [ "obj-6", 0 ],
					"hidden" : 0
				}

			}
, 			{
				"patchline" : 				{
					"source" : [ "obj-6", 0 ],
					"destination" : [ "obj-5", 0 ],
					"hidden" : 0
				}

			}
, 			{
				"patchline" : 				{
					"source" : [ "obj-24", 5 ],
					"destination" : [ "obj-13", 0 ],
					"hidden" : 0
				}

			}
, 			{
				"patchline" : 				{
					"source" : [ "obj-24", 6 ],
					"destination" : [ "obj-12", 0 ],
					"hidden" : 0
				}

			}
, 			{
				"patchline" : 				{
					"source" : [ "obj-24", 7 ],
					"destination" : [ "obj-11", 0 ],
					"hidden" : 0
				}

			}
, 			{
				"patchline" : 				{
					"source" : [ "obj-5", 0 ],
					"destination" : [ "obj-7", 0 ],
					"hidden" : 0,
					"midpoints" : [ 339.5, 261.0, 570.5, 261.0 ]
				}

			}
 ]
	}

}
