max v2;
#N vpatcher 206 117 827 769;
#P origin -42 21;
#P window setfont "Sans Serif" 9.;
#P window linecount 1;
#P newex 180 84 38 9109513 del 200;
#P newex 180 63 45 9109513 loadbang;
#P comment 134 270 163 9109513 Converts to ASCII;
#N vpatcher 317 239 561 584;
#P inlet 54 41 15 0;
#P outlet 54 266 15 0;
#P window setfont "Sans Serif" 9.;
#P message 171 145 14 9109513 j;
#P message 158 145 14 9109513 i;
#P message 145 145 14 9109513 h;
#P message 132 145 14 9109513 g;
#P message 119 145 14 9109513 f;
#P message 106 145 14 9109513 e;
#P message 93 145 14 9109513 d;
#P message 80 145 14 9109513 c;
#P message 67 145 14 9109513 b;
#P message 54 145 14 9109513 a;
#P newex 54 99 144 9109513 select 0 1 2 3 4 5 6 7 8 9;
#P newex 54 228 67 9109513 prepend port;
#P connect 13 0 1 0;
#P connect 1 0 2 0;
#P connect 11 0 0 0;
#P connect 10 0 0 0;
#P connect 9 0 0 0;
#P connect 8 0 0 0;
#P connect 7 0 0 0;
#P connect 6 0 0 0;
#P connect 5 0 0 0;
#P connect 4 0 0 0;
#P connect 3 0 0 0;
#P connect 2 0 0 0;
#P connect 0 0 12 0;
#P connect 1 1 3 0;
#P connect 1 2 4 0;
#P connect 1 3 5 0;
#P connect 1 4 6 0;
#P connect 1 5 7 0;
#P connect 1 6 8 0;
#P connect 1 7 9 0;
#P connect 1 8 10 0;
#P connect 1 9 11 0;
#P pop;
#P newobj 229 63 63 9109513 p changeport;
#P newex 63 292 64 9109513 fromsymbol;
#P newex 63 265 40 9109513 itoa;
#P newex 330 223 74 9109513 prepend append;
#P newex 330 201 25 9109513 iter;
#P outlet 561 336 23 0;
#P newex 330 178 54 9109513 route port;
#P newex 63 618 340 9109513 jcom.return raw/8 @description "Raw values from Polhemus sensor 8";
#P newex 63 590 340 9109513 jcom.return raw/7 @description "Raw values from Polhemus sensor 7";
#P newex 455 398 51 9109513 zl slice 6;
#P newex 399 398 51 9109513 zl slice 6;
#P newex 343 398 51 9109513 zl slice 6;
#P newex 287 398 51 9109513 zl slice 6;
#P newex 231 398 51 9109513 zl slice 6;
#P newex 175 398 51 9109513 zl slice 6;
#P newex 63 564 340 9109513 jcom.return raw/6 @description "Raw values from Polhemus sensor 6";
#P newex 63 536 340 9109513 jcom.return raw/5 @description "Raw values from Polhemus sensor 5";
#P newex 63 507 340 9109513 jcom.return raw/4 @description "Raw values from Polhemus sensor 4";
#P newex 63 479 340 9109513 jcom.return raw/3 @description "Raw values from Polhemus sensor 3";
#P message 125 106 51 9109513 65 84 13;
#P newex 119 398 51 9109513 zl slice 6;
#P newex 63 398 51 9109513 zl slice 6;
#P newex 63 351 464 9109513 route 1 2 3 4 5 6 7 8;
#P comment 282 384 209 9109513 Removes extra line break in the 7th position;
#P toggle 63 53 15 0;
#P comment 134 295 163 9109513 Converts ASCII values to symbols;
#P comment 134 241 173 9109513 Cuts up the string at the end of lines;
#P newex 63 238 67 9109513 zl group 60;
#P toggle 105 172 15 0;
#P newex 105 190 29 9109513 gate;
#P button 42 84 15 0;
#P newex 63 106 37 9109513 t b 80;
#P newex 63 81 78 9109513 metro 100;
#P message 180 106 32 9109513 print;
#P newex 105 212 63 9109513 print status;
#P button 106 106 15 0;
#P newex 63 150 90 9109513 serial a 115200;
#B color 5;
#P newex 63 451 340 9109513 jcom.return raw/2 @description "Raw values from Polhemus sensor 2";
#P number 131 53 35 9 0 0 0 139 0 0 0 221 221 221 222 222 222 0 0 0;
#P comment 136 68 36 9109513 in ms;
#P newex 63 425 340 9109513 jcom.return raw/1 @description "Raw values from Polhemus sensor 1";
#P newex 63 25 214 9109513 jcom.oscroute /status /sample_rate /menu;
#P inlet 63 5 15 0;
#P connect 0 0 1 0;
#P connect 1 0 18 0;
#P connect 18 0 10 0;
#P fasten 12 0 11 0 47 103 68 103;
#P connect 10 0 11 0;
#P fasten 42 0 6 0 234 134 68 134;
#P fasten 23 0 6 0 130 134 68 134;
#P fasten 7 0 6 0 111 134 68 134;
#P fasten 9 0 6 0 185 134 68 134;
#P fasten 11 0 6 0 68 136 68 136;
#P fasten 11 1 6 0 95 134 68 134;
#P connect 6 0 15 0;
#P connect 15 0 40 0;
#P connect 40 0 41 0;
#P connect 41 0 20 0;
#P connect 20 0 21 0;
#P connect 21 0 2 0;
#P connect 22 0 5 0;
#P connect 28 0 24 0;
#P connect 29 0 25 0;
#P connect 30 0 26 0;
#P connect 31 0 27 0;
#P connect 32 0 34 0;
#P connect 33 0 35 0;
#P connect 14 0 13 0;
#P connect 13 0 8 0;
#P connect 20 1 22 0;
#P connect 6 1 13 1;
#P connect 1 1 4 0;
#P connect 4 0 10 1;
#P connect 20 2 28 0;
#P connect 44 0 45 0;
#P connect 45 0 9 0;
#P fasten 1 2 42 0 204 52 234 52;
#P connect 20 3 29 0;
#P connect 20 4 30 0;
#P fasten 6 1 36 0 148 171 335 171;
#P connect 36 0 38 0;
#P connect 38 0 39 0;
#P connect 20 5 31 0;
#P connect 20 6 32 0;
#P connect 20 7 33 0;
#P fasten 39 0 37 0 335 253 566 253;
#P pop;
