max v2;#N vpatcher 100 68 973 615;#P window setfont "Sans Serif" 9.;#P window linecount 1;#P comment 42 281 74 196617 Other things;#P comment 44 209 74 196617 Sensor things;#P message 640 43 144 196617 http://www.arj.no/research;#P message 640 23 146 196617 http://musicalgestures.uio.no;#P comment 10 51 139 196617 Alexander Refsum Jensenius;#P message 353 147 116 196617 motion_history_images;#P comment 348 107 52 196617 Examples;#P message 44 141 74 196617 jmod.motion%;#P hidden newex 44 384 64 196617 prepend help;#P hidden newex 181 422 45 196617 pcontrol;#P window setfont "Arial Rounded MT Bold" 18.;#P comment 9 23 238 197066770 Musical Gestures Toolbox;#P window setfont "Sans Serif" 9.;#P comment 43 97 74 196617 Video analysis;#P window linecount 4;#P comment 257 20 378 196617 This is a collection of various things necessary for analysing music-related bodily movement \, and using such movements for controlling sounds. The software has been developed as part of my PhD research in the Musical Gestures Group at the University of Oslo 2004-2007.;#P user panel 0 0 803 89;#X brgb 255 214 107;#X frgb 0 0 0;#X border 0;#X rounded 0;#X shadow 0;#X done;#P hidden connect 6 0 5 0;#P hidden fasten 8 0 4 0 358 411 186 411;#P hidden fasten 5 0 4 0 49 411 186 411;#P pop;