max v2;#N vpatcher 80 92 576 801;#P window setfont "Sans Serif" 9.;#P window linecount 1;#P hidden newex 211 606 64 196617 prepend help;#P message 211 588 66 196617 jmod.wacom;#P message 211 570 59 196617 jmod.sine~;#P message 211 552 89 196617 jmod.similarity%;#P message 211 534 76 196617 jmod.polhemus;#P message 211 516 128 196617 jmod.phidgets.interfacekit;#P message 211 498 140 196617 jmod.phidgets.accelerometer;#P message 211 480 72 196617 jmod.output%;#P message 211 462 64 196617 jmod.oscnet;#P message 211 444 72 196617 jmod.orsize%;#P message 211 426 54 196617 jmod.op%;#P message 211 408 64 196617 jmod.noise~;#P message 211 390 88 196617 jmod.multidelay~;#P message 211 372 83 196617 jmod.mouse.gdif;#P message 211 354 63 196617 jmod.mouse;#P message 211 336 97 196617 jmod.motiongram%;#P message 211 318 74 196617 jmod.motion%;#P message 211 300 62 196617 jmod.midiin;#P message 211 282 66 196617 jmod.input%;#P message 211 264 43 196617 jmod.hi;#P message 211 246 86 196617 jmod.fluidsynth~;#P message 211 228 94 196617 jmod.file_browser;#P message 211 210 55 196617 jmod.crop;#P message 211 192 74 196617 jmod.brcosa%;#P message 211 174 62 196617 jmod.blur%;#P message 211 156 94 196617 jmod.background%;#P message 211 138 80 196617 jmod.analyzer~;#P message 43 463 70 196617 jcom.spray%;#P message 43 445 86 196617 jcom.rgb2luma%;#P message 43 427 68 196617 jcom.random;#P message 43 409 43 196617 jcom.pi;#P message 43 391 45 196617 jcom.op;#P message 43 373 112 196617 jcom.passmatrixinfo%;#P message 43 355 74 196617 jcom.motion%;#P message 43 337 67 196617 jcom.mean%;#P message 43 319 86 196617 jcom.luma2rgb%;#P message 43 301 89 196617 jcom.fullscreen%;#P message 43 283 80 196617 jcom.fullscreen;#P message 43 265 91 196617 jcom.float2char%;#P message 43 247 97 196617 jcom.checkplanes%;#P message 43 229 91 196617 jcom.char2float%;#P message 43 211 73 196617 jcom.binary%;#P message 43 193 81 196617 jcom.autosize%;#P message 43 175 77 196617 jcom.autoscale;#P message 43 157 83 196617 jcom.autocrop%;#P comment 211 97 74 196617 Modules;#P comment 9 46 139 196617 Alexander Refsum Jensenius;#P message 43 139 66 196617 jcom.absdiff;#P hidden newex 43 481 64 196617 prepend help;#P hidden newex 211 641 45 196617 pcontrol;#P window setfont "Arial Rounded MT Bold" 18.;#P comment 9 20 238 197066770 Musical Gestures Toolbox;#P window setfont "Sans Serif" 9.;#P comment 43 97 74 196617 Components;#P window linecount 3;#P comment 257 20 205 196617 A collection of tools developed as part of my PhD research in the Musical Gestures Group at the University of Oslo 2004-2007.;#P user panel 0 0 478 66;#X brgb 255 214 107;#X frgb 0 0 0;#X border 0;#X rounded 0;#X shadow 0;#X done;#P window setfont "Sans Serif" 12.;#P user umenu 44 638 204 196657 3 64 658 1;#X setrgb 0 0 0 221 221 221 255 255 255 221 221 221 170 170 170 119 119 119 187 187 187;#X add http://musicalgestures.uio.no;#P background;#P window setfont "Sans Serif" 9.;#P window linecount 1;#P hidden newex 44 664 22 196617 b 1;#P background;#P window linecount 3;#P hidden message 44 691 238 196617 \; max launch_browser http://www.hf.uio.no/imv/forskning/forskningsprosjekter/musicalgestures/;#P background;#P hidden connect 12 0 8 0;#P hidden connect 13 0 8 0;#P hidden connect 14 0 8 0;#P hidden connect 15 0 8 0;#P hidden connect 16 0 8 0;#P hidden connect 17 0 8 0;#P hidden connect 18 0 8 0;#P hidden connect 19 0 8 0;#P hidden connect 20 0 8 0;#P hidden connect 21 0 8 0;#P hidden connect 22 0 8 0;#P hidden connect 23 0 8 0;#P hidden connect 24 0 8 0;#P hidden connect 25 0 8 0;#P hidden connect 26 0 8 0;#P hidden connect 27 0 8 0;#P hidden connect 28 0 8 0;#P hidden connect 29 0 8 0;#P hidden connect 9 0 8 0;#P hidden connect 2 0 1 0;#P hidden connect 1 0 0 0;#P hidden connect 30 0 56 0;#P hidden connect 31 0 56 0;#P hidden connect 32 0 56 0;#P hidden connect 33 0 56 0;#P hidden connect 34 0 56 0;#P hidden connect 35 0 56 0;#P hidden connect 36 0 56 0;#P hidden connect 37 0 56 0;#P hidden connect 38 0 56 0;#P hidden connect 39 0 56 0;#P hidden connect 40 0 56 0;#P hidden connect 41 0 56 0;#P hidden connect 42 0 56 0;#P hidden connect 43 0 56 0;#P hidden connect 44 0 56 0;#P hidden connect 45 0 56 0;#P hidden connect 46 0 56 0;#P hidden connect 47 0 56 0;#P hidden connect 48 0 56 0;#P hidden connect 49 0 56 0;#P hidden connect 50 0 56 0;#P hidden connect 51 0 56 0;#P hidden connect 52 0 56 0;#P hidden connect 53 0 56 0;#P hidden connect 54 0 56 0;#P hidden connect 55 0 56 0;#P hidden fasten 56 0 7 0 216 634 216 634;#P hidden fasten 8 0 7 0 48 629 216 629;#P pop;