max v2;#N vpatcher 270 264 711 560;#P origin 0 -27;#P window setfont "Sans Serif" 9.;#P window linecount 1;#P message 206 122 37 196617 tol \$1;#P message 143 122 41 196617 lum \$1;#P newex 269 122 85 196617 jcom.pass /glow;#P newex 17 83 265 196617 jcom.oscroute /genframe /direct /luminance /tolerance;#P comment 288 38 75 196617 VIDEO INPUT;#P inlet 317 57 15 0;#P inlet 17 45 15 0;#P comment 247 234 75 196617 VIDEO OUTPUT;#P outlet 232 234 15 0;#P newex 232 212 63 196617 jit.fluoride;#P connect 3 0 6 0;#P connect 6 2 8 0;#P connect 6 3 9 0;#P fasten 4 0 0 0 322 206 237 206;#P lcolor 8;#P fasten 6 1 0 0 85 156 237 156;#P fasten 6 0 0 0 22 156 237 156;#P fasten 7 0 0 0 274 175 237 175;#P fasten 9 0 0 0 211 156 237 156;#P fasten 8 0 0 0 148 156 237 156;#P connect 0 0 1 0;#P connect 6 4 7 0;#P pop;