max v2;#N vpatcher 196 107 990 647;#P origin -60 -113;#P window setfont "Sans Serif" 9.;#P hidden newex 343 185 49 196617 pvar Sat;#P window linecount 2;#P hidden newex 343 207 320 196617 jcom.parameter saturation @type msg_float @range 0. 1. @clipmode low @ramp/drive scheduler @description "Sets the saturation.";#P objectname saturation;#P window linecount 1;#P hidden newex 343 255 48 196617 pvar Tol;#P hidden newex 343 326 52 196617 pvar Lum;#P window setfont "Lucida Grande" 9.;#P comment 2 20 24 67108873 sat;#B frgb 149 149 149;#P flonum 22 20 35 9 0. 1. 8227 1024 181 181 181 221 221 221 255 255 255 0 0 0;#P objectname Sat;#P window setfont "Sans Serif" 9.;#P hidden newex 44 69 41 196617 * 255.;#P hidden message 44 89 69 196617 saturation \$1;#P hidden newex 96 394 49 196617 jcom.out;#P hidden newex 185 289 52 196617 jcom.in 1;#P hidden inlet 185 269 13 0;#P hidden comment 200 269 65 196617 VIDEO INPUT;#P hidden newex 516 138 88 196617 vexpr $f1 * 255.;#P window setfont "Lucida Grande" 9.;#P comment 75 22 32 67108873 glow;#B frgb 149 149 149;#P flonum 165 45 29 9 0. 1. 8227 1024 181 181 181 221 221 221 255 255 255 0 0 0;#P noclick;#P flonum 134 45 29 9 0. 1. 8227 1024 181 181 181 221 221 221 255 255 255 0 0 0;#P noclick;#P flonum 103 45 29 9 0. 1. 8227 1024 181 181 181 221 221 221 255 255 255 0 0 0;#P noclick;#P window setfont "Sans Serif" 9.;#P hidden newex 360 65 74 196617 unpack 0. 0. 0.;#P hidden newex 351 37 82 196617 vexpr $i1/255.;#P user swatch 103 20 90 24;#P window setfont "Lucida Grande" 9.;#P flonum 22 33 35 9 0 0 8224 1024 181 181 181 221 221 221 255 255 255 0 0 0;#P objectname Lum;#P window setfont "Sans Serif" 9.;#P window linecount 3;#P hidden newex 351 91 341 196617 jcom.parameter glow @type msg_list @repetitions 0 @description "Specify the red green and blue components for the glowing color. The range for each component should be between 0.0 and 1.0.";#P objectname glow;#P window setfont "Lucida Grande" 9.;#P window linecount 1;#P comment 2 33 24 67108873 lum;#B frgb 149 149 149;#P comment 2 46 20 67108873 tol;#B frgb 149 149 149;#P flonum 22 46 35 9 0 0 8224 1024 181 181 181 221 221 221 255 255 255 0 0 0;#P objectname Tol;#P window setfont "Sans Serif" 9.;#P window linecount 2;#P hidden newex 343 347 325 196617 jcom.parameter luminance @type msg_float t @range 0. 1. @clipmode low @ramp/drive scheduler @description "Sets the luminance.";#P objectname luminance;#P hidden newex 343 277 323 196617 jcom.parameter tolerance @type msg_float t @range 0. 1. @clipmode none @ramp/drive scheduler @description "Sets the tolerance.";#P objectname tolerance;#P window linecount 3;#P hidden newex 6 217 205 196617 jcom.hub jmod.fluoride% @size 1U-half @module_type video @algorithm_type jitter @description "neon glow effect";#P objectname jcom.hub;#P window linecount 1;#P hidden newex 96 345 47 196617 pcontrol;#P hidden newex 96 323 78 196617 jcom.pass open;#P hidden message 109 195 125 196617 /documentation/generate;#B color 3;#P hidden comment 111 419 75 196617 VIDEO OUTPUT;#P hidden outlet 96 419 13 0;#P window linecount 2;#P message 16 345 72 196617 \; jcom.init bang;#B color 3;#P window linecount 1;#P hidden comment 20 192 79 196617 command input;#P hidden outlet 6 279 13 0;#P hidden inlet 6 192 13 0;#P hidden newex 96 369 99 196617 jalg.fluoride%.mxt;#P bpatcher 0 0 256 60 0 0 jcom.gui.mxt 0;#P objectname jcom.gui.1Uh.v.mxb;#P hidden fasten 8 0 11 0 114 213 11 213;#P hidden connect 2 0 11 0;#P hidden connect 11 0 3 0;#P hidden connect 33 0 32 0;#P hidden connect 32 0 31 0;#P hidden fasten 29 1 9 0 211 314 101 314;#P hidden connect 9 0 10 0;#P hidden fasten 9 1 1 0 169 366 101 366;#P hidden connect 10 0 1 0;#P hidden connect 1 0 30 0;#P hidden connect 30 0 6 0;#P hidden connect 26 0 19 0;#P hidden connect 31 0 19 0;#P hidden connect 21 0 22 0;#P hidden connect 21 1 23 0;#P hidden connect 21 2 24 0;#P hidden connect 28 0 29 0;#P hidden connect 29 0 1 1;#P hidden fasten 37 0 38 0 348 240 337 240 337 180 348 180;#P hidden connect 38 0 37 0;#P hidden fasten 12 0 36 0 348 310 337 310 337 250 348 250;#P hidden connect 36 0 12 0;#P hidden fasten 13 0 35 0 348 381 336 381 336 320 348 320;#P hidden connect 35 0 13 0;#P hidden connect 19 0 20 0;#P hidden connect 20 0 17 0;#P hidden connect 20 0 21 0;#P hidden connect 17 1 26 0;#P pop;