{
	"patcher" : 	{
		"fileversion" : 1,
		"rect" : [ 104.0, 44.0, 780.0, 473.0 ],
		"bglocked" : 0,
		"defrect" : [ 104.0, 44.0, 780.0, 473.0 ],
		"openrect" : [ 0.0, 0.0, 0.0, 0.0 ],
		"openinpresentation" : 0,
		"default_fontsize" : 10.970939,
		"default_fontface" : 0,
		"default_fontname" : "Verdana",
		"gridonopen" : 0,
		"gridsize" : [ 5.0, 5.0 ],
		"gridsnaponopen" : 0,
		"toolbarvisible" : 1,
		"boxanimatetime" : 200,
		"imprint" : 0,
		"metadata" : [  ],
		"boxes" : [ 			{
				"box" : 				{
					"maxclass" : "jit.pwindow",
					"patching_rect" : [ 235.0, 20.0, 60.0, 45.0 ],
					"outlettype" : [ "", "" ],
					"id" : "obj-35",
					"numinlets" : 1,
					"numoutlets" : 2
				}

			}
, 			{
				"box" : 				{
					"maxclass" : "newobj",
					"text" : "jcom.out",
					"hidden" : 1,
					"patching_rect" : [ 93.0, 367.0, 52.0, 18.0 ],
					"outlettype" : [ "", "" ],
					"id" : "obj-1",
					"fontname" : "Verdana",
					"fontsize" : 9.873845,
					"numinlets" : 1,
					"numoutlets" : 2
				}

			}
, 			{
				"box" : 				{
					"maxclass" : "newobj",
					"text" : "jcom.in 1",
					"hidden" : 1,
					"patching_rect" : [ 182.0, 262.0, 55.0, 18.0 ],
					"outlettype" : [ "", "", "" ],
					"id" : "obj-2",
					"fontname" : "Verdana",
					"fontsize" : 9.873845,
					"numinlets" : 1,
					"numoutlets" : 3
				}

			}
, 			{
				"box" : 				{
					"maxclass" : "inlet",
					"hidden" : 1,
					"patching_rect" : [ 182.0, 242.0, 13.0, 13.0 ],
					"outlettype" : [ "" ],
					"id" : "obj-3",
					"numinlets" : 0,
					"numoutlets" : 1,
					"comment" : ""
				}

			}
, 			{
				"box" : 				{
					"maxclass" : "comment",
					"text" : "VIDEO INPUT",
					"hidden" : 1,
					"patching_rect" : [ 197.0, 242.0, 75.0, 18.0 ],
					"frgb" : [ 0.658824, 0.658824, 0.658824, 1.0 ],
					"id" : "obj-4",
					"fontname" : "Verdana",
					"fontsize" : 9.873845,
					"numinlets" : 1,
					"numoutlets" : 0
				}

			}
, 			{
				"box" : 				{
					"maxclass" : "newobj",
					"text" : "vexpr $f1 * 255.",
					"hidden" : 1,
					"patching_rect" : [ 426.0, 171.0, 91.0, 18.0 ],
					"outlettype" : [ "" ],
					"id" : "obj-5",
					"fontname" : "Verdana",
					"fontsize" : 9.873845,
					"numinlets" : 1,
					"numoutlets" : 1
				}

			}
, 			{
				"box" : 				{
					"maxclass" : "comment",
					"text" : "glow",
					"patching_rect" : [ 66.0, 24.0, 32.0, 18.0 ],
					"frgb" : [ 0.584314, 0.584314, 0.584314, 1.0 ],
					"id" : "obj-6",
					"fontname" : "Verdana",
					"textcolor" : [ 0.584314, 0.584314, 0.584314, 1.0 ],
					"fontsize" : 9.873845,
					"numinlets" : 1,
					"numoutlets" : 0
				}

			}
, 			{
				"box" : 				{
					"maxclass" : "flonum",
					"patching_rect" : [ 156.0, 46.0, 29.0, 18.0 ],
					"triscale" : 0.9,
					"outlettype" : [ "float", "bang" ],
					"id" : "obj-7",
					"fontname" : "Verdana",
					"textcolor" : [ 0.709804, 0.709804, 0.709804, 1.0 ],
					"triangle" : 0,
					"fontsize" : 9.873845,
					"minimum" : 0.0,
					"numinlets" : 1,
					"maximum" : 1.0,
					"ignoreclick" : 1,
					"numoutlets" : 2,
					"bgcolor" : [ 0.866667, 0.866667, 0.866667, 1.0 ]
				}

			}
, 			{
				"box" : 				{
					"maxclass" : "flonum",
					"patching_rect" : [ 125.0, 46.0, 29.0, 18.0 ],
					"triscale" : 0.9,
					"outlettype" : [ "float", "bang" ],
					"id" : "obj-8",
					"fontname" : "Verdana",
					"textcolor" : [ 0.709804, 0.709804, 0.709804, 1.0 ],
					"triangle" : 0,
					"fontsize" : 9.873845,
					"minimum" : 0.0,
					"numinlets" : 1,
					"maximum" : 1.0,
					"ignoreclick" : 1,
					"numoutlets" : 2,
					"bgcolor" : [ 0.866667, 0.866667, 0.866667, 1.0 ]
				}

			}
, 			{
				"box" : 				{
					"maxclass" : "flonum",
					"patching_rect" : [ 94.0, 46.0, 29.0, 18.0 ],
					"triscale" : 0.9,
					"outlettype" : [ "float", "bang" ],
					"id" : "obj-9",
					"fontname" : "Verdana",
					"textcolor" : [ 0.709804, 0.709804, 0.709804, 1.0 ],
					"triangle" : 0,
					"fontsize" : 9.873845,
					"minimum" : 0.0,
					"numinlets" : 1,
					"maximum" : 1.0,
					"ignoreclick" : 1,
					"numoutlets" : 2,
					"bgcolor" : [ 0.866667, 0.866667, 0.866667, 1.0 ]
				}

			}
, 			{
				"box" : 				{
					"maxclass" : "newobj",
					"text" : "unpack 0. 0. 0.",
					"hidden" : 1,
					"patching_rect" : [ 341.0, 111.0, 84.0, 18.0 ],
					"outlettype" : [ "float", "float", "float" ],
					"id" : "obj-10",
					"fontname" : "Verdana",
					"fontsize" : 9.873845,
					"numinlets" : 1,
					"numoutlets" : 3
				}

			}
, 			{
				"box" : 				{
					"maxclass" : "newobj",
					"text" : "vexpr $i1/255.",
					"hidden" : 1,
					"patching_rect" : [ 420.0, 86.0, 82.0, 18.0 ],
					"outlettype" : [ "" ],
					"id" : "obj-11",
					"fontname" : "Verdana",
					"fontsize" : 9.873845,
					"numinlets" : 1,
					"numoutlets" : 1
				}

			}
, 			{
				"box" : 				{
					"maxclass" : "swatch",
					"patching_rect" : [ 94.0, 21.0, 90.0, 24.0 ],
					"outlettype" : [ "", "float" ],
					"id" : "obj-12",
					"compatibility" : 1,
					"numinlets" : 3,
					"numoutlets" : 2
				}

			}
, 			{
				"box" : 				{
					"maxclass" : "radiogroup",
					"patching_rect" : [ 5.0, 18.0, 44.0, 18.0 ],
					"outlettype" : [ "" ],
					"id" : "obj-13",
					"numinlets" : 1,
					"numoutlets" : 1,
					"itemtype" : 1,
					"size" : 1,
					"values" : [ 0 ],
					"disabled" : [ 0 ]
				}

			}
, 			{
				"box" : 				{
					"maxclass" : "comment",
					"text" : "color",
					"patching_rect" : [ 19.0, 20.0, 33.0, 18.0 ],
					"frgb" : [ 0.584314, 0.584314, 0.584314, 1.0 ],
					"id" : "obj-14",
					"fontname" : "Verdana",
					"textcolor" : [ 0.584314, 0.584314, 0.584314, 1.0 ],
					"fontsize" : 9.873845,
					"numinlets" : 1,
					"numoutlets" : 0
				}

			}
, 			{
				"box" : 				{
					"maxclass" : "flonum",
					"patching_rect" : [ 40.0, 33.0, 35.0, 18.0 ],
					"triscale" : 0.9,
					"outlettype" : [ "float", "bang" ],
					"id" : "obj-15",
					"fontname" : "Verdana",
					"textcolor" : [ 0.709804, 0.709804, 0.709804, 1.0 ],
					"triangle" : 0,
					"fontsize" : 9.873845,
					"numinlets" : 1,
					"numoutlets" : 2,
					"bgcolor" : [ 0.866667, 0.866667, 0.866667, 1.0 ]
				}

			}
, 			{
				"box" : 				{
					"maxclass" : "newobj",
					"varname" : "mode",
					"text" : "jcom.parameter mode @type msg_toggle @description \"Toggles between grayscale (0) and color (1) modes\"",
					"linecount" : 2,
					"hidden" : 1,
					"patching_rect" : [ 420.0, 16.0, 286.0, 30.0 ],
					"outlettype" : [ "", "", "" ],
					"id" : "obj-16",
					"fontname" : "Verdana",
					"fontsize" : 9.873845,
					"numinlets" : 1,
					"numoutlets" : 3
				}

			}
, 			{
				"box" : 				{
					"maxclass" : "newobj",
					"varname" : "glow",
					"text" : "jcom.parameter glow @type msg_list @repetitions 0 @description \"Specify the red green and blue components for the glowing color. The range for each component should be between 0.0 and 1.0.\"",
					"linecount" : 3,
					"hidden" : 1,
					"patching_rect" : [ 420.0, 111.0, 341.0, 42.0 ],
					"outlettype" : [ "", "", "" ],
					"id" : "obj-17",
					"fontname" : "Verdana",
					"fontsize" : 9.873845,
					"numinlets" : 1,
					"numoutlets" : 3
				}

			}
, 			{
				"box" : 				{
					"maxclass" : "comment",
					"text" : "lum",
					"patching_rect" : [ 19.0, 33.0, 27.0, 18.0 ],
					"frgb" : [ 0.584314, 0.584314, 0.584314, 1.0 ],
					"id" : "obj-18",
					"fontname" : "Verdana",
					"textcolor" : [ 0.584314, 0.584314, 0.584314, 1.0 ],
					"fontsize" : 9.873845,
					"numinlets" : 1,
					"numoutlets" : 0
				}

			}
, 			{
				"box" : 				{
					"maxclass" : "comment",
					"text" : "tol",
					"patching_rect" : [ 19.0, 46.0, 21.0, 18.0 ],
					"frgb" : [ 0.584314, 0.584314, 0.584314, 1.0 ],
					"id" : "obj-19",
					"fontname" : "Verdana",
					"textcolor" : [ 0.584314, 0.584314, 0.584314, 1.0 ],
					"fontsize" : 9.873845,
					"numinlets" : 1,
					"numoutlets" : 0
				}

			}
, 			{
				"box" : 				{
					"maxclass" : "flonum",
					"patching_rect" : [ 40.0, 46.0, 35.0, 18.0 ],
					"triscale" : 0.9,
					"outlettype" : [ "float", "bang" ],
					"id" : "obj-20",
					"fontname" : "Verdana",
					"textcolor" : [ 0.709804, 0.709804, 0.709804, 1.0 ],
					"triangle" : 0,
					"fontsize" : 9.873845,
					"numinlets" : 1,
					"numoutlets" : 2,
					"bgcolor" : [ 0.866667, 0.866667, 0.866667, 1.0 ]
				}

			}
, 			{
				"box" : 				{
					"maxclass" : "newobj",
					"varname" : "lum",
					"text" : "jcom.parameter lum @type msg_float @ramp/drive scheduler @description \"Sets the luminance.\"",
					"linecount" : 2,
					"hidden" : 1,
					"patching_rect" : [ 50.0, 71.0, 269.0, 30.0 ],
					"outlettype" : [ "", "", "" ],
					"id" : "obj-21",
					"fontname" : "Verdana",
					"fontsize" : 9.873845,
					"numinlets" : 1,
					"numoutlets" : 3
				}

			}
, 			{
				"box" : 				{
					"maxclass" : "newobj",
					"varname" : "tol",
					"text" : "jcom.parameter tol @type msg_float @ramp/drive scheduler @description \"Sets the tolerance.\"",
					"linecount" : 2,
					"hidden" : 1,
					"patching_rect" : [ 9.0, 108.0, 263.0, 30.0 ],
					"outlettype" : [ "", "", "" ],
					"id" : "obj-22",
					"fontname" : "Verdana",
					"fontsize" : 9.873845,
					"numinlets" : 1,
					"numoutlets" : 3
				}

			}
, 			{
				"box" : 				{
					"maxclass" : "newobj",
					"varname" : "jcom.hub",
					"text" : "jcom.hub jmod.fluoride% @size 1U-half @module_type video @algorithm_type jitter @description \"neon glow effect\"",
					"linecount" : 3,
					"hidden" : 1,
					"patching_rect" : [ 3.0, 190.0, 211.0, 42.0 ],
					"outlettype" : [ "", "" ],
					"id" : "obj-23",
					"fontname" : "Verdana",
					"fontsize" : 9.873845,
					"numinlets" : 1,
					"numoutlets" : 2
				}

			}
, 			{
				"box" : 				{
					"maxclass" : "newobj",
					"text" : "pcontrol",
					"hidden" : 1,
					"patching_rect" : [ 93.0, 318.0, 49.0, 18.0 ],
					"outlettype" : [ "" ],
					"id" : "obj-24",
					"fontname" : "Verdana",
					"fontsize" : 9.873845,
					"numinlets" : 1,
					"numoutlets" : 1
				}

			}
, 			{
				"box" : 				{
					"maxclass" : "newobj",
					"text" : "jcom.pass open",
					"hidden" : 1,
					"patching_rect" : [ 93.0, 296.0, 86.0, 18.0 ],
					"outlettype" : [ "", "" ],
					"id" : "obj-25",
					"fontname" : "Verdana",
					"fontsize" : 9.873845,
					"numinlets" : 1,
					"numoutlets" : 2
				}

			}
, 			{
				"box" : 				{
					"maxclass" : "message",
					"text" : "/documentation/generate",
					"hidden" : 1,
					"patching_rect" : [ 106.0, 168.0, 135.0, 16.0 ],
					"outlettype" : [ "" ],
					"id" : "obj-26",
					"fontname" : "Verdana",
					"fontsize" : 9.873845,
					"numinlets" : 2,
					"numoutlets" : 1,
					"bgcolor" : [ 0.8, 0.54902, 0.54902, 1.0 ]
				}

			}
, 			{
				"box" : 				{
					"maxclass" : "comment",
					"text" : "VIDEO OUTPUT",
					"hidden" : 1,
					"patching_rect" : [ 108.0, 392.0, 85.0, 18.0 ],
					"frgb" : [ 0.658824, 0.658824, 0.658824, 1.0 ],
					"id" : "obj-27",
					"fontname" : "Verdana",
					"fontsize" : 9.873845,
					"numinlets" : 1,
					"numoutlets" : 0
				}

			}
, 			{
				"box" : 				{
					"maxclass" : "outlet",
					"hidden" : 1,
					"patching_rect" : [ 93.0, 392.0, 13.0, 13.0 ],
					"id" : "obj-28",
					"numinlets" : 1,
					"numoutlets" : 0,
					"comment" : ""
				}

			}
, 			{
				"box" : 				{
					"maxclass" : "message",
					"text" : ";\rjcom.init bang",
					"linecount" : 2,
					"hidden" : 1,
					"patching_rect" : [ 13.0, 318.0, 80.0, 28.0 ],
					"outlettype" : [ "" ],
					"id" : "obj-29",
					"fontname" : "Verdana",
					"fontsize" : 9.873845,
					"numinlets" : 2,
					"numoutlets" : 1,
					"bgcolor" : [ 0.8, 0.54902, 0.54902, 1.0 ]
				}

			}
, 			{
				"box" : 				{
					"maxclass" : "comment",
					"text" : "command input",
					"hidden" : 1,
					"patching_rect" : [ 17.0, 165.0, 86.0, 18.0 ],
					"frgb" : [ 0.658824, 0.658824, 0.658824, 1.0 ],
					"id" : "obj-30",
					"fontname" : "Verdana",
					"fontsize" : 9.873845,
					"numinlets" : 1,
					"numoutlets" : 0
				}

			}
, 			{
				"box" : 				{
					"maxclass" : "outlet",
					"hidden" : 1,
					"patching_rect" : [ 3.0, 252.0, 13.0, 13.0 ],
					"id" : "obj-31",
					"numinlets" : 1,
					"numoutlets" : 0,
					"comment" : ""
				}

			}
, 			{
				"box" : 				{
					"maxclass" : "inlet",
					"hidden" : 1,
					"patching_rect" : [ 3.0, 165.0, 13.0, 13.0 ],
					"outlettype" : [ "" ],
					"id" : "obj-32",
					"numinlets" : 0,
					"numoutlets" : 1,
					"comment" : ""
				}

			}
, 			{
				"box" : 				{
					"maxclass" : "newobj",
					"text" : "jalg.fluoride%",
					"hidden" : 1,
					"patching_rect" : [ 93.0, 342.0, 99.0, 18.0 ],
					"outlettype" : [ "jit_matrix" ],
					"id" : "obj-33",
					"fontname" : "Verdana",
					"fontsize" : 9.873845,
					"numinlets" : 2,
					"numoutlets" : 1
				}

			}
, 			{
				"box" : 				{
					"maxclass" : "jcom.ui",
					"text" : "/editing_this_module",
					"outlettype" : [ "" ],
					"id" : "obj-34",
					"textcolor" : [ 0.65, 0.65, 0.65, 1.0 ],
					"has_freeze" : 1,
					"prefix" : "video",
					"has_mute" : 1,
					"color" : [ 1.0, 1.0, 1.0, 1.0 ],
					"has_preview" : 1,
					"numinlets" : 1,
					"has_bypass" : 1,
					"numoutlets" : 1
				}

			}
 ],
		"lines" : [ 			{
				"patchline" : 				{
					"source" : [ "obj-34", 0 ],
					"destination" : [ "obj-35", 0 ],
					"hidden" : 0,
					"midpoints" : [  ]
				}

			}
, 			{
				"patchline" : 				{
					"source" : [ "obj-17", 1 ],
					"destination" : [ "obj-5", 0 ],
					"hidden" : 1,
					"midpoints" : [  ]
				}

			}
, 			{
				"patchline" : 				{
					"source" : [ "obj-11", 0 ],
					"destination" : [ "obj-17", 0 ],
					"hidden" : 1,
					"midpoints" : [  ]
				}

			}
, 			{
				"patchline" : 				{
					"source" : [ "obj-12", 0 ],
					"destination" : [ "obj-11", 0 ],
					"hidden" : 1,
					"midpoints" : [  ]
				}

			}
, 			{
				"patchline" : 				{
					"source" : [ "obj-13", 0 ],
					"destination" : [ "obj-16", 0 ],
					"hidden" : 1,
					"midpoints" : [  ]
				}

			}
, 			{
				"patchline" : 				{
					"source" : [ "obj-11", 0 ],
					"destination" : [ "obj-10", 0 ],
					"hidden" : 1,
					"midpoints" : [  ]
				}

			}
, 			{
				"patchline" : 				{
					"source" : [ "obj-2", 0 ],
					"destination" : [ "obj-33", 1 ],
					"hidden" : 1,
					"midpoints" : [  ]
				}

			}
, 			{
				"patchline" : 				{
					"source" : [ "obj-3", 0 ],
					"destination" : [ "obj-2", 0 ],
					"hidden" : 1,
					"midpoints" : [  ]
				}

			}
, 			{
				"patchline" : 				{
					"source" : [ "obj-10", 2 ],
					"destination" : [ "obj-7", 0 ],
					"hidden" : 1,
					"midpoints" : [  ]
				}

			}
, 			{
				"patchline" : 				{
					"source" : [ "obj-10", 1 ],
					"destination" : [ "obj-8", 0 ],
					"hidden" : 1,
					"midpoints" : [  ]
				}

			}
, 			{
				"patchline" : 				{
					"source" : [ "obj-10", 0 ],
					"destination" : [ "obj-9", 0 ],
					"hidden" : 1,
					"midpoints" : [  ]
				}

			}
, 			{
				"patchline" : 				{
					"source" : [ "obj-5", 0 ],
					"destination" : [ "obj-12", 0 ],
					"hidden" : 1,
					"midpoints" : [  ]
				}

			}
, 			{
				"patchline" : 				{
					"source" : [ "obj-1", 0 ],
					"destination" : [ "obj-28", 0 ],
					"hidden" : 1,
					"midpoints" : [  ]
				}

			}
, 			{
				"patchline" : 				{
					"source" : [ "obj-33", 0 ],
					"destination" : [ "obj-1", 0 ],
					"hidden" : 1,
					"midpoints" : [  ]
				}

			}
, 			{
				"patchline" : 				{
					"source" : [ "obj-24", 0 ],
					"destination" : [ "obj-33", 0 ],
					"hidden" : 1,
					"midpoints" : [  ]
				}

			}
, 			{
				"patchline" : 				{
					"source" : [ "obj-25", 1 ],
					"destination" : [ "obj-33", 0 ],
					"hidden" : 1,
					"midpoints" : [ 169.5, 339.0, 102.5, 339.0 ]
				}

			}
, 			{
				"patchline" : 				{
					"source" : [ "obj-25", 0 ],
					"destination" : [ "obj-24", 0 ],
					"hidden" : 1,
					"midpoints" : [  ]
				}

			}
, 			{
				"patchline" : 				{
					"source" : [ "obj-2", 1 ],
					"destination" : [ "obj-25", 0 ],
					"hidden" : 1,
					"midpoints" : [ 209.5, 287.0, 102.5, 287.0 ]
				}

			}
, 			{
				"patchline" : 				{
					"source" : [ "obj-15", 0 ],
					"destination" : [ "obj-21", 0 ],
					"hidden" : 1,
					"midpoints" : [  ]
				}

			}
, 			{
				"patchline" : 				{
					"source" : [ "obj-22", 0 ],
					"destination" : [ "obj-20", 0 ],
					"hidden" : 1,
					"midpoints" : [  ]
				}

			}
, 			{
				"patchline" : 				{
					"source" : [ "obj-21", 0 ],
					"destination" : [ "obj-15", 0 ],
					"hidden" : 1,
					"midpoints" : [  ]
				}

			}
, 			{
				"patchline" : 				{
					"source" : [ "obj-20", 0 ],
					"destination" : [ "obj-22", 0 ],
					"hidden" : 1,
					"midpoints" : [  ]
				}

			}
, 			{
				"patchline" : 				{
					"source" : [ "obj-16", 0 ],
					"destination" : [ "obj-13", 0 ],
					"hidden" : 1,
					"midpoints" : [  ]
				}

			}
, 			{
				"patchline" : 				{
					"source" : [ "obj-23", 0 ],
					"destination" : [ "obj-31", 0 ],
					"hidden" : 1,
					"midpoints" : [  ]
				}

			}
, 			{
				"patchline" : 				{
					"source" : [ "obj-32", 0 ],
					"destination" : [ "obj-23", 0 ],
					"hidden" : 1,
					"midpoints" : [  ]
				}

			}
, 			{
				"patchline" : 				{
					"source" : [ "obj-26", 0 ],
					"destination" : [ "obj-23", 0 ],
					"hidden" : 1,
					"midpoints" : [ 115.5, 186.0, 12.5, 186.0 ]
				}

			}
 ]
	}

}
