max v2;#N vpatcher 430 145 1125 822;#P origin -22 33;#P window setfont "Sans Serif" 9.;#P message 39 152 52 196617 getStatus;#P message 39 171 50 196617 getSerial;#P message 39 133 55 196617 getVersion;#P newex 347 546 54 196617 prepend 8;#P newex 334 519 54 196617 prepend 7;#P newex 321 491 54 196617 prepend 6;#P newex 308 459 54 196617 prepend 5;#P newex 293 432 54 196617 prepend 4;#P newex 282 404 54 196617 prepend 3;#P newex 269 381 54 196617 prepend 2;#P newex 256 320 107 196617 unpack 0 0 0 0 0 0 0 0;#P window linecount 4;#P newex 256 578 144 196617 jcom.return analog/* @description "Analog values from n sensors connected to a Phidgets InterfaceKit";#P window linecount 1;#P newex 256 353 54 196617 prepend 1;#P newex 176 546 54 196617 prepend 8;#P newex 163 519 54 196617 prepend 7;#P newex 150 491 54 196617 prepend 6;#P newex 137 459 54 196617 prepend 5;#P newex 122 432 54 196617 prepend 4;#P newex 111 404 54 196617 prepend 3;#P newex 98 381 54 196617 prepend 2;#P newex 443 105 166 196617 route 1 2 3 4 5 6 7 8;#P toggle 576 128 15 0;#P toggle 557 128 15 0;#P toggle 538 128 15 0;#P toggle 519 128 15 0;#P toggle 500 128 15 0;#P toggle 481 128 15 0;#P toggle 462 128 15 0;#P toggle 443 128 15 0;#P newex 424 149 168 196617 pak setoutput 0 0 0 0 0 0 0 0;#P newex 85 320 107 196617 unpack 0 0 0 0 0 0 0 0;#P button 39 100 15 0;#P number 185 100 35 9 0 0 0 3 0 0 0 221 221 221 222 222 222 0 0 0;#P message 185 127 91 196617 setSampleRate \$1;#P newex 85 246 63 196617 route di ai;#P newex 137 270 61 196617 print serial;#P newex 85 222 95 196617 PhidgetInterfaceKit;#P comment 226 100 36 196617 in ms;#P comment 267 100 153 196617 -1 gives the device sample rate;#P window linecount 4;#P newex 85 578 151 196617 jcom.return digital/* @description "Digital values from n sensors connected to a Phidgets InterfaceKit";#P window linecount 1;#P newex 85 353 54 196617 prepend 1;#P newex 112 100 41 196617 sel 1 0;#P message 148 127 29 196617 stop;#P message 112 127 33 196617 start;#P newex 39 72 305 196617 jcom.oscroute /init /status /sample_rate /output/digital;#P inlet 39 51 15 0;#P connect 0 0 1 0;#P connect 1 0 14 0;#P connect 14 0 43 0;#P connect 14 0 45 0;#P connect 14 0 44 0;#P fasten 3 0 9 0 153 182 90 182;#P fasten 2 0 9 0 117 182 90 182;#P fasten 12 0 9 0 190 182 90 182;#P fasten 16 0 9 0 429 182 90 182;#P fasten 44 0 9 0 44 204 90 204;#P fasten 45 0 9 0 44 204 90 204;#P fasten 43 0 9 0 44 204 90 204;#P connect 9 0 11 0;#P connect 11 0 15 0;#P connect 15 0 5 0;#P connect 32 0 6 0;#P connect 31 0 6 0;#P connect 30 0 6 0;#P connect 29 0 6 0;#P connect 28 0 6 0;#P connect 27 0 6 0;#P connect 26 0 6 0;#P connect 5 0 6 0;#P connect 15 1 26 0;#P connect 15 2 27 0;#P connect 1 1 4 0;#P connect 4 0 2 0;#P connect 15 3 28 0;#P connect 11 2 10 0;#P connect 15 4 29 0;#P fasten 4 1 3 0 132 122 153 122;#P connect 15 5 30 0;#P connect 15 6 31 0;#P connect 15 7 32 0;#P connect 1 2 13 0;#P connect 13 0 12 0;#P fasten 11 1 35 0 116 293 261 293;#P connect 35 0 33 0;#P connect 33 0 34 0;#P connect 36 0 34 0;#P connect 37 0 34 0;#P connect 38 0 34 0;#P connect 39 0 34 0;#P connect 40 0 34 0;#P connect 41 0 34 0;#P connect 42 0 34 0;#P connect 35 1 36 0;#P connect 35 2 37 0;#P connect 35 3 38 0;#P connect 35 4 39 0;#P connect 35 5 40 0;#P connect 35 6 41 0;#P connect 35 7 42 0;#P fasten 1 3 25 0 263 97 448 97;#P connect 25 0 17 0;#P connect 17 0 16 1;#P connect 25 1 18 0;#P connect 18 0 16 2;#P connect 25 2 19 0;#P connect 19 0 16 3;#P connect 25 3 20 0;#P connect 20 0 16 4;#P connect 25 4 21 0;#P connect 21 0 16 5;#P connect 25 5 22 0;#P connect 22 0 16 6;#P connect 25 6 23 0;#P connect 23 0 16 7;#P connect 25 7 24 0;#P connect 24 0 16 8;#P pop;