{
	"patcher" : 	{
		"rect" : [ 99.0, 51.0, 485.0, 538.0 ],
		"bgcolor" : [ 1.0, 1.0, 1.0, 1.0 ],
		"bglocked" : 0,
		"defrect" : [ 99.0, 51.0, 485.0, 538.0 ],
		"openinpresentation" : 0,
		"default_fontsize" : 10.0,
		"default_fontface" : 0,
		"default_fontname" : "Verdana",
		"gridonopen" : 0,
		"gridsize" : [ 5.0, 5.0 ],
		"gridsnaponopen" : 0,
		"toolbarvisible" : 1,
		"boxfadetime" : 200,
		"boxanimatetime" : 200,
		"scrollanimatetime" : 200,
		"metadata" : [  ],
		"boxes" : [ 			{
				"box" : 				{
					"maxclass" : "message",
					"text" : "\/preset\/store 1 default, \/preset\/write",
					"numinlets" : 2,
					"bgcolor" : [ 0.8, 0.54902, 0.54902, 1.0 ],
					"patching_rect" : [ 227.0, 86.0, 200.0, 15.0 ],
					"numoutlets" : 1,
					"hidden" : 1,
					"fontsize" : 9.0,
					"fontname" : "Verdana",
					"outlettype" : [ "" ],
					"id" : "obj-1"
				}

			}
, 			{
				"box" : 				{
					"maxclass" : "newobj",
					"text" : "jcom.out 2",
					"numinlets" : 2,
					"patching_rect" : [ 180.0, 278.0, 125.0, 17.0 ],
					"numoutlets" : 2,
					"hidden" : 1,
					"fontsize" : 9.0,
					"fontname" : "Verdana",
					"outlettype" : [ "", "" ],
					"id" : "obj-2"
				}

			}
, 			{
				"box" : 				{
					"maxclass" : "newobj",
					"text" : "jcom.in 1",
					"numinlets" : 1,
					"patching_rect" : [ 295.0, 174.0, 78.0, 17.0 ],
					"numoutlets" : 2,
					"hidden" : 1,
					"fontsize" : 9.0,
					"fontname" : "Verdana",
					"outlettype" : [ "", "" ],
					"id" : "obj-3"
				}

			}
, 			{
				"box" : 				{
					"maxclass" : "outlet",
					"numinlets" : 1,
					"patching_rect" : [ 281.0, 305.0, 13.0, 13.0 ],
					"numoutlets" : 0,
					"hidden" : 1,
					"id" : "obj-4",
					"comment" : ""
				}

			}
, 			{
				"box" : 				{
					"maxclass" : "newobj",
					"text" : "p formating",
					"numinlets" : 1,
					"patching_rect" : [ 19.0, 401.0, 61.0, 17.0 ],
					"numoutlets" : 1,
					"hidden" : 1,
					"fontsize" : 9.0,
					"fontname" : "Verdana",
					"outlettype" : [ "" ],
					"id" : "obj-5",
					"patcher" : 					{
						"rect" : [ 14.0, 59.0, 198.0, 241.0 ],
						"bgcolor" : [ 1.0, 1.0, 1.0, 1.0 ],
						"bglocked" : 0,
						"defrect" : [ 14.0, 59.0, 198.0, 241.0 ],
						"openinpresentation" : 0,
						"default_fontsize" : 10.0,
						"default_fontface" : 0,
						"default_fontname" : "Verdana",
						"gridonopen" : 0,
						"gridsize" : [ 5.0, 5.0 ],
						"gridsnaponopen" : 0,
						"toolbarvisible" : 1,
						"boxfadetime" : 200,
						"boxanimatetime" : 200,
						"scrollanimatetime" : 200,
						"metadata" : [  ],
						"boxes" : [ 							{
								"box" : 								{
									"maxclass" : "newobj",
									"text" : "prepend 1",
									"numinlets" : 1,
									"patching_rect" : [ 101.0, 95.0, 53.0, 17.0 ],
									"numoutlets" : 1,
									"fontsize" : 9.0,
									"fontname" : "Verdana",
									"outlettype" : [ "" ],
									"id" : "obj-1"
								}

							}
, 							{
								"box" : 								{
									"maxclass" : "outlet",
									"numinlets" : 1,
									"patching_rect" : [ 53.0, 155.0, 15.0, 15.0 ],
									"numoutlets" : 0,
									"id" : "obj-2",
									"comment" : ""
								}

							}
, 							{
								"box" : 								{
									"maxclass" : "newobj",
									"text" : "zl join",
									"numinlets" : 2,
									"patching_rect" : [ 53.0, 125.0, 58.0, 17.0 ],
									"numoutlets" : 2,
									"fontsize" : 9.0,
									"fontname" : "Verdana",
									"outlettype" : [ "", "" ],
									"id" : "obj-3"
								}

							}
, 							{
								"box" : 								{
									"maxclass" : "newobj",
									"text" : "zl slice 1",
									"numinlets" : 2,
									"patching_rect" : [ 53.0, 68.0, 58.0, 17.0 ],
									"numoutlets" : 2,
									"fontsize" : 9.0,
									"fontname" : "Verdana",
									"outlettype" : [ "", "" ],
									"id" : "obj-4"
								}

							}
, 							{
								"box" : 								{
									"maxclass" : "inlet",
									"numinlets" : 0,
									"patching_rect" : [ 53.0, 39.0, 15.0, 15.0 ],
									"numoutlets" : 1,
									"outlettype" : [ "" ],
									"id" : "obj-5",
									"comment" : ""
								}

							}
 ],
						"lines" : [ 							{
								"patchline" : 								{
									"source" : [ "obj-1", 0 ],
									"destination" : [ "obj-3", 1 ],
									"hidden" : 0
								}

							}
, 							{
								"patchline" : 								{
									"source" : [ "obj-4", 1 ],
									"destination" : [ "obj-1", 0 ],
									"hidden" : 0
								}

							}
, 							{
								"patchline" : 								{
									"source" : [ "obj-3", 0 ],
									"destination" : [ "obj-2", 0 ],
									"hidden" : 0
								}

							}
, 							{
								"patchline" : 								{
									"source" : [ "obj-4", 0 ],
									"destination" : [ "obj-3", 0 ],
									"hidden" : 0
								}

							}
, 							{
								"patchline" : 								{
									"source" : [ "obj-5", 0 ],
									"destination" : [ "obj-4", 0 ],
									"hidden" : 0
								}

							}
 ]
					}
,
					"saved_object_attributes" : 					{
						"globalpatchername" : "",
						"fontsize" : 10.0,
						"default_fontsize" : 10.0,
						"default_fontface" : 0,
						"fontname" : "Verdana",
						"fontface" : 0,
						"default_fontname" : "Verdana"
					}

				}

			}
, 			{
				"box" : 				{
					"maxclass" : "multislider",
					"varname" : "xfade",
					"slidercolor" : [ 0.356863, 0.356863, 0.356863, 1.0 ],
					"numinlets" : 1,
					"candicane6" : [ 0.733333, 0.035294, 0.788235, 1.0 ],
					"compatibility" : 1,
					"bgcolor" : [ 0.678431, 0.678431, 0.678431, 1.0 ],
					"patching_rect" : [ 11.0, 31.0, 127.0, 17.0 ],
					"candicane3" : [ 0.290196, 0.411765, 0.713726, 1.0 ],
					"numoutlets" : 2,
					"contdata" : 1,
					"candicane8" : [ 0.027451, 0.447059, 0.501961, 1.0 ],
					"peakcolor" : [ 0.498039, 0.498039, 0.498039, 1.0 ],
					"candicane5" : [ 0.584314, 0.827451, 0.431373, 1.0 ],
					"outlettype" : [ "", "" ],
					"orientation" : 0,
					"id" : "obj-6",
					"setstyle" : 1,
					"candicane7" : [ 0.878431, 0.243137, 0.145098, 1.0 ],
					"candicane2" : [ 0.145098, 0.203922, 0.356863, 1.0 ],
					"candicane4" : [ 0.439216, 0.619608, 0.070588, 1.0 ],
					"setminmax" : [ 0.0, 1.0 ]
				}

			}
, 			{
				"box" : 				{
					"maxclass" : "newobj",
					"text" : "pcontrol",
					"numinlets" : 1,
					"patching_rect" : [ 180.0, 228.0, 47.0, 17.0 ],
					"numoutlets" : 1,
					"hidden" : 1,
					"fontsize" : 9.0,
					"fontname" : "Verdana",
					"outlettype" : [ "" ],
					"id" : "obj-7"
				}

			}
, 			{
				"box" : 				{
					"maxclass" : "newobj",
					"text" : "jcom.pass open",
					"numinlets" : 1,
					"patching_rect" : [ 180.0, 205.0, 78.0, 17.0 ],
					"numoutlets" : 2,
					"hidden" : 1,
					"fontsize" : 9.0,
					"fontname" : "Verdana",
					"outlettype" : [ "", "" ],
					"id" : "obj-8"
				}

			}
, 			{
				"box" : 				{
					"maxclass" : "newobj",
					"text" : "pvar xfade",
					"numinlets" : 1,
					"patching_rect" : [ 19.0, 423.0, 59.0, 17.0 ],
					"numoutlets" : 1,
					"hidden" : 1,
					"fontsize" : 9.0,
					"fontname" : "Verdana",
					"outlettype" : [ "" ],
					"id" : "obj-9"
				}

			}
, 			{
				"box" : 				{
					"maxclass" : "newobj",
					"varname" : "yfade",
					"text" : "jcom.parameter yfade @type msg_float @ramp/drive scheduler @repetitions 0 @range/bounds 0. 1. @range/clipmode both @description \"Crossfade switch\"",
					"linecount" : 2,
					"numinlets" : 1,
					"patching_rect" : [ 19.0, 445.0, 320.0, 28.0 ],
					"numoutlets" : 1,
					"hidden" : 1,
					"fontsize" : 9.0,
					"fontname" : "Verdana",
					"outlettype" : [ "" ],
					"id" : "obj-10"
				}

			}
, 			{
				"box" : 				{
					"maxclass" : "message",
					"text" : "\/documentation\/generate",
					"numinlets" : 2,
					"bgcolor" : [ 0.8, 0.54902, 0.54902, 1.0 ],
					"patching_rect" : [ 99.0, 86.0, 125.0, 15.0 ],
					"numoutlets" : 1,
					"hidden" : 1,
					"fontsize" : 9.0,
					"fontname" : "Verdana",
					"outlettype" : [ "" ],
					"id" : "obj-11"
				}

			}
, 			{
				"box" : 				{
					"maxclass" : "comment",
					"text" : "VIDEO OUTPUTS",
					"numinlets" : 1,
					"patching_rect" : [ 195.0, 305.0, 83.0, 17.0 ],
					"numoutlets" : 0,
					"hidden" : 1,
					"fontsize" : 9.0,
					"fontname" : "Verdana",
					"id" : "obj-12"
				}

			}
, 			{
				"box" : 				{
					"maxclass" : "outlet",
					"numinlets" : 1,
					"patching_rect" : [ 180.0, 305.0, 13.0, 13.0 ],
					"numoutlets" : 0,
					"hidden" : 1,
					"id" : "obj-13",
					"comment" : ""
				}

			}
, 			{
				"box" : 				{
					"maxclass" : "inlet",
					"numinlets" : 0,
					"patching_rect" : [ 295.0, 155.0, 13.0, 13.0 ],
					"numoutlets" : 1,
					"hidden" : 1,
					"outlettype" : [ "" ],
					"id" : "obj-14",
					"comment" : ""
				}

			}
, 			{
				"box" : 				{
					"maxclass" : "comment",
					"text" : "VIDEO INPUT",
					"numinlets" : 1,
					"patching_rect" : [ 310.0, 156.0, 67.0, 17.0 ],
					"numoutlets" : 0,
					"hidden" : 1,
					"fontsize" : 9.0,
					"fontname" : "Verdana",
					"id" : "obj-15"
				}

			}
, 			{
				"box" : 				{
					"maxclass" : "newobj",
					"text" : "jalg.yfade%.mxt",
					"numinlets" : 2,
					"patching_rect" : [ 180.0, 257.0, 125.0, 17.0 ],
					"numoutlets" : 2,
					"hidden" : 1,
					"fontsize" : 9.0,
					"fontname" : "Verdana",
					"outlettype" : [ "jit_matrix", "jit_matrix" ],
					"id" : "obj-16"
				}

			}
, 			{
				"box" : 				{
					"maxclass" : "message",
					"text" : ";\rjcom.init bang",
					"linecount" : 2,
					"numinlets" : 2,
					"bgcolor" : [ 0.8, 0.54902, 0.54902, 1.0 ],
					"patching_rect" : [ 369.0, 445.0, 72.0, 26.0 ],
					"numoutlets" : 1,
					"hidden" : 1,
					"fontsize" : 9.0,
					"fontname" : "Verdana",
					"outlettype" : [ "" ],
					"id" : "obj-17"
				}

			}
, 			{
				"box" : 				{
					"maxclass" : "comment",
					"text" : "command input",
					"numinlets" : 1,
					"patching_rect" : [ 15.0, 84.0, 79.0, 17.0 ],
					"numoutlets" : 0,
					"hidden" : 1,
					"fontsize" : 9.0,
					"fontname" : "Verdana",
					"id" : "obj-18"
				}

			}
, 			{
				"box" : 				{
					"maxclass" : "newobj",
					"varname" : "jcom.hub",
					"text" : "jcom.hub jmod.yfade% @size 1U-half @module_type video @algorithm_type jitter @description \"crossfade a source to two outputs\"",
					"linecount" : 2,
					"numinlets" : 1,
					"patching_rect" : [ 1.0, 109.0, 403.0, 28.0 ],
					"numoutlets" : 2,
					"hidden" : 1,
					"fontsize" : 9.0,
					"fontname" : "Verdana",
					"outlettype" : [ "", "" ],
					"id" : "obj-19"
				}

			}
, 			{
				"box" : 				{
					"maxclass" : "outlet",
					"numinlets" : 1,
					"patching_rect" : [ 1.0, 171.0, 13.0, 13.0 ],
					"numoutlets" : 0,
					"hidden" : 1,
					"id" : "obj-20",
					"comment" : ""
				}

			}
, 			{
				"box" : 				{
					"maxclass" : "inlet",
					"numinlets" : 0,
					"patching_rect" : [ 1.0, 84.0, 13.0, 13.0 ],
					"numoutlets" : 1,
					"hidden" : 1,
					"outlettype" : [ "" ],
					"id" : "obj-21",
					"comment" : ""
				}

			}
, 			{
				"box" : 				{
					"maxclass" : "jcom.ui",
					"text" : "\/Jamoma",
					"color" : [ 1.0, 1.0, 1.0, 1.0 ],
					"numinlets" : 1,
					"patching_rect" : [ 0.0, 0.0, 150.0, 70.0 ],
					"numoutlets" : 1,
					"outlettype" : [ "" ],
					"id" : "obj-34",
					"textcolor" : [ 0.65, 0.65, 0.65, 1.0 ]
				}

			}
 ],
		"lines" : [ 			{
				"patchline" : 				{
					"source" : [ "obj-16", 1 ],
					"destination" : [ "obj-2", 1 ],
					"hidden" : 1
				}

			}
, 			{
				"patchline" : 				{
					"source" : [ "obj-3", 0 ],
					"destination" : [ "obj-16", 1 ],
					"hidden" : 1,
					"midpoints" : [ 304.5, 244.0, 295.5, 244.0 ]
				}

			}
, 			{
				"patchline" : 				{
					"source" : [ "obj-14", 0 ],
					"destination" : [ "obj-3", 0 ],
					"hidden" : 1
				}

			}
, 			{
				"patchline" : 				{
					"source" : [ "obj-2", 1 ],
					"destination" : [ "obj-4", 0 ],
					"hidden" : 1,
					"midpoints" : [ 295.5, 300.0, 288.0, 300.0 ]
				}

			}
, 			{
				"patchline" : 				{
					"source" : [ "obj-2", 0 ],
					"destination" : [ "obj-13", 0 ],
					"hidden" : 1
				}

			}
, 			{
				"patchline" : 				{
					"source" : [ "obj-16", 0 ],
					"destination" : [ "obj-2", 0 ],
					"hidden" : 1
				}

			}
, 			{
				"patchline" : 				{
					"source" : [ "obj-7", 0 ],
					"destination" : [ "obj-16", 0 ],
					"hidden" : 1
				}

			}
, 			{
				"patchline" : 				{
					"source" : [ "obj-8", 1 ],
					"destination" : [ "obj-16", 0 ],
					"hidden" : 1,
					"midpoints" : [ 248.5, 250.0, 189.5, 250.0 ]
				}

			}
, 			{
				"patchline" : 				{
					"source" : [ "obj-8", 0 ],
					"destination" : [ "obj-7", 0 ],
					"hidden" : 1
				}

			}
, 			{
				"patchline" : 				{
					"source" : [ "obj-3", 1 ],
					"destination" : [ "obj-8", 0 ],
					"hidden" : 1
				}

			}
, 			{
				"patchline" : 				{
					"source" : [ "obj-9", 0 ],
					"destination" : [ "obj-10", 0 ],
					"hidden" : 1
				}

			}
, 			{
				"patchline" : 				{
					"source" : [ "obj-5", 0 ],
					"destination" : [ "obj-9", 0 ],
					"hidden" : 1
				}

			}
, 			{
				"patchline" : 				{
					"source" : [ "obj-10", 0 ],
					"destination" : [ "obj-5", 0 ],
					"hidden" : 1,
					"midpoints" : [ 28.5, 480.0, 13.0, 480.0, 13.0, 394.0, 28.5, 394.0 ]
				}

			}
, 			{
				"patchline" : 				{
					"source" : [ "obj-19", 0 ],
					"destination" : [ "obj-20", 0 ],
					"hidden" : 1
				}

			}
, 			{
				"patchline" : 				{
					"source" : [ "obj-21", 0 ],
					"destination" : [ "obj-19", 0 ],
					"hidden" : 1
				}

			}
, 			{
				"patchline" : 				{
					"source" : [ "obj-11", 0 ],
					"destination" : [ "obj-19", 0 ],
					"hidden" : 1,
					"midpoints" : [ 108.5, 105.0, 10.5, 105.0 ]
				}

			}
, 			{
				"patchline" : 				{
					"source" : [ "obj-1", 0 ],
					"destination" : [ "obj-19", 0 ],
					"hidden" : 1,
					"midpoints" : [ 236.5, 105.0, 10.5, 105.0 ]
				}

			}
 ]
	}

}
