max v2;#N vpatcher 707 325 1247 585;#P origin -31 11;#P window setfont "Sans Serif" 9.;#P window linecount 1;#P newex 182 132 108 196617 prepend command;#P comment 319 112 140 196617 <- replace by your command;#P newex 32 68 160 196617 jcom.oscroute /genframe /direct;#P inlet 458 34 15 0;#P inlet 439 34 15 0;#P inlet 32 44 15 0;#P comment 47 206 75 196617 VIDEO OUTPUT;#P outlet 32 206 15 0;#N vpatcher 10 59 610 459;#P outlet 52 221 15 0;#P inlet 47 41 15 0;#P pop;#P newobj 32 177 49 196617 p alg;#P newex 182 111 124 196617 jcom.oscroute /command;#P comment 104 180 140 196617 <- replace by your algorithm;#P connect 5 0 8 0;#P fasten 10 0 2 0 187 163 37 163;#P connect 8 0 2 0;#P fasten 8 1 2 0 112 131 37 131;#P connect 2 0 3 0;#P connect 8 2 1 0;#P connect 1 0 10 0;#P pop;