max v2;#N vpatcher 408 239 902 526;#P origin -31 11;#P window setfont "Sans Serif" 9.;#P comment 388 25 45 196617 video input;#P comment 16 234 75 196617 osc messages from algorithm;#N comlet osc messages from algorithm;#P outlet 37 213 15 0;#P window linecount 1;#P newex 399 174 39 196617 jit.hue;#P newex 37 84 160 196617 jcom.oscroute /genframe /direct;#N comlet video input;#P inlet 399 52 15 0;#N comlet osc messages to algorithm;#P inlet 37 60 15 0;#P window linecount 2;#P comment 388 234 45 196617 video output;#N comlet video output;#P outlet 399 213 15 0;#P window linecount 1;#P newex 187 120 108 196617 jcom.pass /hue_angle;#P window linecount 2;#P comment 19 32 75 196617 osc messages to algorithm;#P connect 4 0 6 0;#P connect 6 2 1 0;#P fasten 1 0 7 0 192 168 404 168;#P fasten 6 0 7 0 42 168 404 168;#P fasten 6 1 7 0 117 168 404 168;#P connect 5 0 7 0;#P lcolor 7;#P connect 7 0 2 0;#P pop;