max v2;#N vpatcher 12 131 568 480;#P window setfont "Sans Serif" 9.;#P window linecount 2;#P comment 41 60 74 196617 osc messages to algorithm;#P comment 409 60 48 196617 signal inlet 2;#P comment 404 287 52 196617 signal outlet 2;#N comlet osc messages to algorithm;#P inlet 61 88 15 0;#N comlet osc messages from algorithm;#P outlet 59 266 15 0;#N comlet signal outlet 2;#P outlet 424 266 15 0;#N comlet signal outlet 1;#P outlet 301 266 15 0;#N comlet signal inlet 2;#P inlet 424 88 15 0;#N comlet signal inlet 1;#P inlet 301 88 15 0;#P window linecount 1;#P newex 61 153 170 196617 jcom.oscroute /param_a /param_b;#P newex 424 233 51 196617 degrade~;#P newex 301 233 51 196617 degrade~;#P window linecount 2;#P comment 94 121 203 196617 [in 1] receives OSC messages. These should be routed to the appropriate places.;#P window setfont "Sans Serif" 12.;#P window linecount 1;#P comment 17 22 256 196620 This is an algorithm for a stereo module.;#P window setfont "Sans Serif" 9.;#P window linecount 2;#P comment 50 287 81 196617 osc messages from algorithm;#P comment 294 287 52 196617 signal outlet 1;#P comment 288 60 48 196617 signal inlet 1;#P connect 13 0 7 0;#P connect 8 0 5 0;#P connect 5 0 10 0;#P fasten 7 0 5 1 66 204 326 204;#P fasten 7 1 5 2 146 197 346 197;#P connect 9 0 6 0;#P connect 6 0 11 0;#P fasten 7 0 6 1 66 204 449 204;#P fasten 7 1 6 2 146 197 469 197;#P pop;