max v2;#N vpatcher 12 131 662 411;#P window setfont "Sans Serif" 9.;#P window linecount 1;#P newex 321 99 170 196617 jcom.oscroute /param_a /param_b;#P newex 163 196 51 196617 degrade~;#P newex 40 196 51 196617 degrade~;#N in 1;#P newobj 321 66 25 196617 in 1;#N out~ 2;#P newobj 163 221 35 196617 out~ 2;#N out~ 1;#P newobj 40 221 35 196617 out~ 1;#N in~ 2;#P newobj 163 66 31 196617 in~ 2;#N in~ 1;#P newobj 40 66 31 196617 in~ 1;#P window linecount 2;#P comment 354 67 203 196617 [in 1] receives OSC messages. These should be routed to the appropriate places.;#P window setfont "Sans Serif" 12.;#P window linecount 1;#P comment 17 22 256 196620 This is an algorithm for a stereo module.;#P connect 2 0 7 0;#P connect 7 0 4 0;#P fasten 9 0 7 1 326 150 65 150;#P fasten 9 1 7 2 406 155 85 155;#P connect 3 0 8 0;#P connect 8 0 5 0;#P fasten 9 0 8 1 326 150 188 150;#P fasten 9 1 8 2 406 155 208 155;#P connect 6 0 9 0;#P pop;