max v2;
#N vpatcher 22 58 911 622;
#P window setfont "Sans Serif" 9.;
#P window linecount 2;
#P comment 482 331 324 196617 If you need to send messages to or within the patch \, but it's not required that they be stored or retrieveable \, use jmod.message.;
#B color 12;
#P window linecount 1;
#P comment 463 316 300 196617 jmod.message:;
#B color 12;
#P window linecount 2;
#P comment 482 262 317 196617 Use this for any parameters that you'd like to be able to store and retrieve.;
#B color 12;
#P window linecount 1;
#P comment 463 247 235 196617 jmod.parameter:;
#B color 12;
#P comment 565 472 241 196617 for html autodoc of module;
#B color 12;
#P comment 565 427 241 196617 1 (default)/0;
#B color 12;
#P comment 565 412 241 196617 1/0 (default);
#B color 12;
#P comment 565 457 241 196617 none \, low \, high \, both (default);
#B color 12;
#P window linecount 0;
#P comment 565 442 241 196617;
#B color 12;
#P window linecount 1;
#P comment 565 397 241 196617 generic (default) \, msg_int \, msg_float \, menu \, toggle;
#B color 12;
#P comment 482 472 79 196617 @description;
#B color 12;
#P comment 482 427 79 196617 @repetitions;
#B color 12;
#P comment 482 412 79 196617 @ramp;
#B color 12;
#P comment 482 457 79 196617 @clipmode;
#B color 12;
#P comment 482 442 79 196617 @range;
#B color 12;
#P comment 482 397 79 196617 @type;
#B color 12;
#P comment 463 382 235 196617 Attributes for jmod.parameter and jmod.message:;
#B color 12;
#P window linecount 2;
#P message 76 297 65 196617 \; max refresh;
#P window linecount 1;
#P newex 467 114 88 196617 pvar ParameterB;
#P newex 467 49 89 196617 pvar ParameterA;
#P window linecount 5;
#P newex 0 140 167 196617 jmod.hub $0_ jmod.audiotemplate~ @size 1U-half @module_type audio @num_inputs 2 @num_outputs 2 @description "This module doesn't do much yet";
#P objectname jmod.hub;
#P window linecount 1;
#P comment 14 121 79 196617 command input;
#P inlet 0 121 13 0;
#P window linecount 2;
#P message 76 265 72 196617 \; jmod.init bang;
#P window linecount 3;
#P newex 173 140 79 196617 pattrstorage @autorestore 0 @savemode 0;
#X client_rect 0 0 640 240;
#X storage_rect 0 0 640 240;
#P objectname jmod.audiotemplate~;
#P hidden inlet 20 -20 13 0;
#P hidden outlet 164 67 13 0;
#P flonum 89 25 40 9 0. 1. 8227 3 198 198 198 221 221 221 222 222 222 0 0 0;
#P objectname ParameterA;
#P window linecount 1;
#P newex 467 74 216 196617 jmod.parameter.mxt $0_ /param_a @ramp 1;
#P objectname jmod.parameter;
#P newex 467 136 285 196617 jmod.parameter.mxt $0_ /param_b @ramp 1 @repetitions 0;
#P objectname jmod.parameter[1];
#P hidden inlet 82 -18 13 0;
#P comment 16 44 65 196617 Parameter B;
#B frgb 172 172 172;
#P number 89 42 35 9 1 24 8227 3 198 198 198 221 221 221 222 222 222 0 0 0;
#P objectname ParameterB;
#P comment 16 27 65 196617 Parameter A;
#B frgb 172 172 172;
#P newex 265 221 120 196617 poly~ jmod.degrade~.alg;
#P hidden comment 15 -30 105 196617 ----signal inputs----;
#P outlet 0 215 13 0;
#P hidden outlet 246 67 13 0;
#P bpatcher 0 0 256 60 0 0 jmod.gui.mxt 0 $0_;
#P objectname jmod.gui.1Uh.a.stereo.mxt;
#P hidden comment 164 79 101 196617 ---signal outputs---;
#P hidden connect 14 0 1 0;
#P lcolor 6;
#P connect 17 0 19 0;
#P connect 19 0 3 0;
#P hidden connect 9 0 1 1;
#P lcolor 6;
#P connect 15 0 19 1;
#P hidden fasten 5 0 1 2 270 255 407 255 407 -13 169 -13;
#P hidden connect 1 2 13 0;
#P connect 19 2 15 0;
#P hidden fasten 5 1 1 3 380 250 402 250 402 -9 251 -9;
#P hidden connect 1 3 2 0;
#P fasten 19 1 5 0 83 211 270 211;
#P hidden fasten 1 0 5 0 5 101 270 101;
#P lcolor 6;
#P hidden fasten 1 1 5 1 87 98 380 98;
#P lcolor 6;
#P fasten 11 0 20 0 472 96 462 96 462 42 472 42;
#P connect 20 0 11 0;
#P fasten 10 0 21 0 472 158 462 158 462 110 472 110;
#P connect 21 0 10 0;
#P pop;
