max v2;
#N vpatcher 177 156 1031 640;
#P window setfont "Sans Serif" 9.;
#P window linecount 1;
#P newex 145 250 58 196617 jmod.out 1;
#P newex 226 196 52 196617 jmod.in 1;
#P message 117 327 142 196617 param_a 0;
#P newex 117 304 57 196617 prepend set;
#P window linecount 2;
#P message 27 220 65 196617 \; max refresh;
#P comment 492 287 324 196617 If you need to send messages to or within the patch \, but it's not required that they be stored or retrieveable \, use jmod.message.;
#B color 12;
#P window linecount 1;
#P comment 473 272 300 196617 jmod.message:;
#B color 12;
#P window linecount 2;
#P comment 492 218 317 196617 Use this for any parameters that you'd like to be able to store and retrieve.;
#B color 12;
#P window linecount 1;
#P comment 473 203 235 196617 jmod.parameter:;
#B color 12;
#P comment 575 428 241 196617 for html autodoc of module;
#B color 12;
#P comment 575 383 241 196617 1 (default)/0;
#B color 12;
#P comment 575 368 241 196617 1/0 (default);
#B color 12;
#P comment 575 413 241 196617 none \, low \, high \, both (default);
#B color 12;
#P window linecount 0;
#P comment 575 398 241 196617;
#B color 12;
#P window linecount 1;
#P comment 575 353 241 196617 generic (default) \, msg_int \, msg_float \, menu \, toggle;
#B color 12;
#P comment 492 428 79 196617 @description;
#B color 12;
#P comment 492 383 79 196617 @repetitions;
#B color 12;
#P comment 492 368 79 196617 @ramp;
#B color 12;
#P comment 492 413 79 196617 @clipmode;
#B color 12;
#P comment 492 398 79 196617 @range;
#B color 12;
#P comment 492 353 79 196617 @type;
#B color 12;
#P comment 473 338 235 196617 Attributes for jmod.parameter and jmod.message:;
#B color 12;
#P comment 9 43 65 196617 Message B;
#B frgb 255 255 255;
#P number 78 42 35 9 0 0 8224 3 255 255 255 221 221 221 222 222 222 0 0 0;
#P objectname MessageB;
#P comment 9 21 65 196617 Parameter A;
#B frgb 255 255 255;
#P number 77 21 35 9 0 0 8224 3 255 255 255 221 221 221 222 222 222 0 0 0;
#P objectname ParameterA;
#P newex 477 111 75 196617 pvar MessageB;
#P newex 477 133 195 196617 jmod.message message_b @type msg_int;
#P newex 477 51 88 196617 pvar ParameterA;
#P newex 477 71 263 196617 jmod.parameter param_a @repetitions 0 @type msg_int;
#P objectname param_a;
#P message 106 87 125 196617 /documentation/generate;
#B color 3;
#P window linecount 2;
#P newex 0 114 337 196617 jalg.hub jmod.video.template @size 1U-half @module_type video .mxtorithm_type jitter @description "This module doesn't do much yet.";
#P objectname jmod.hub;
#P window linecount 1;
#P comment 160 274 75 196617 VIDEO OUTPUT;
#P outlet 145 274 13 0;
#P inlet 226 175 13 0;
#P comment 241 175 65 196617 VIDEO INPUT;
#P newex 145 226 91 196617 jalg.mblur%.mxt;
#P message 236 87 31 196617 /init;
#P comment 14 84 79 196617 command input;
#P outlet 0 171 13 0;
#P inlet 0 84 13 0;
#P comment 238 228 174 196617 <- substitute for desired algorithm;
#B frgb 102 102 204;
#P bpatcher 0 0 256 60 0 0 jmod.gui.mxt 0 $0_;
#P objectname jmod.gui.1Uh.v.mxb;
#P connect 2 0 11 0;
#P fasten 12 0 11 0 111 106 5 106;
#P fasten 5 0 11 0 241 109 5 109;
#P connect 11 0 3 0;
#P fasten 41 1 39 0 252 217 122 217;
#P connect 39 0 40 0;
#P fasten 41 1 6 0 252 219 150 219;
#P connect 6 0 42 0;
#P connect 42 0 9 0;
#P connect 8 0 41 0;
#P connect 41 0 6 1;
#P fasten 13 0 14 0 482 94 470 94 470 46 482 46;
#P connect 14 0 13 0;
#P fasten 15 0 16 0 482 157 470 157 470 104 482 104;
#P connect 16 0 15 0;
#P pop;
