max v2;
#N vpatcher 22 58 911 622;
#P window setfont "Sans Serif" 9.;
#P window linecount 1;
#P newex 81 313 120 196617 jcom.out~ 2;
#P newex 81 237 58 196617 jcom.in~ 2;
#P message 101 428 125 196617 /documentation/generate;
#P window linecount 2;
#P comment 482 331 324 196617 If you need to send messages to or within the patch \, but it's not required that they be stored or retrieveable \, use jcom.message.;
#B color 12;
#P window linecount 1;
#P comment 463 316 300 196617 jcom.message:;
#B color 12;
#P window linecount 2;
#P comment 482 262 317 196617 Use this for any parameters that you'd like to be able to store and retrieve.;
#B color 12;
#P window linecount 1;
#P comment 463 247 235 196617 jcom.parameter:;
#B color 12;
#P comment 565 472 241 196617 for html autodoc of module;
#B color 12;
#P comment 565 427 241 196617 1 (default)/0;
#B color 12;
#P comment 565 412 241 196617 1/0 (default);
#B color 12;
#P comment 565 457 241 196617 none \, low \, high \, both (default);
#B color 12;
#P window linecount 0;
#P comment 565 442 241 196617;
#B color 12;
#P window linecount 1;
#P comment 565 397 241 196617 generic (default) \, msg_int \, msg_float \, menu \, toggle;
#B color 12;
#P comment 482 472 79 196617 @description;
#B color 12;
#P comment 482 427 79 196617 @repetitions;
#B color 12;
#P comment 482 412 79 196617 @ramp;
#B color 12;
#P comment 482 457 79 196617 @clipmode;
#B color 12;
#P comment 482 442 79 196617 @range;
#B color 12;
#P comment 482 397 79 196617 @type;
#B color 12;
#P comment 463 382 235 196617 Attributes for jcom.parameter and jcom.message:;
#B color 12;
#P window linecount 2;
#P message 88 506 65 196617 \; max refresh;
#P window linecount 1;
#P newex 467 114 88 196617 pvar ParameterB;
#P newex 467 49 89 196617 pvar ParameterA;
#P window linecount 2;
#P newex 5 462 280 196617 jcom.hub jmod.audiotemplate~ @size 1U-half @module_type audio @description "This module doesn't do much yet";
#P objectname jcom.hub;
#P window linecount 1;
#P comment 19 429 79 196617 command input;
#P inlet 5 429 13 0;
#P message 234 428 31 196617 /init;
#P inlet 81 208 13 0;
#P outlet 81 339 13 0;
#P flonum 89 25 40 9 0. 1. 8227 3 198 198 198 221 221 221 222 222 222 0 0 0;
#P objectname ParameterA;
#P newex 467 74 187 196617 jcom.parameter param_a @ramp linear;
#P objectname param_a;
#P newex 467 136 256 196617 jcom.parameter param_b @ramp linear @repetitions 0;
#P objectname param_b;
#P inlet 129 208 13 0;
#P comment 16 44 65 196617 Parameter B;
#B frgb 172 172 172;
#P number 89 42 35 9 1 24 8227 3 198 198 198 221 221 221 222 222 222 0 0 0;
#P objectname ParameterB;
#P comment 16 27 65 196617 Parameter A;
#B frgb 172 172 172;
#P newex 81 280 120 196617 poly~ jalg.degrade~.mxt;
#P comment 68 196 105 196617 ----signal inputs----;
#P outlet 5 505 13 0;
#P outlet 136 339 13 0;
#P comment 81 356 101 196617 ---signal outputs---;
#P bpatcher 0 0 256 60 0 0 jcom.gui.mxt 0 $0_;
#P objectname jmod.gui.1Uh.a.stereo.mxt;
#P fasten 15 0 18 0 239 450 10 450;
#P fasten 39 0 18 0 106 447 10 447;
#P connect 16 0 18 0;
#P connect 18 0 3 0;
#P connect 14 0 40 0;
#P connect 40 2 5 0;
#P connect 40 0 5 0;
#P connect 5 0 41 0;
#P connect 41 0 13 0;
#P connect 9 0 40 1;
#P connect 41 1 2 0;
#P fasten 40 1 5 1 102 271 196 271;
#P connect 5 1 41 1;
#P fasten 11 0 19 0 472 96 462 96 462 42 472 42;
#P connect 19 0 11 0;
#P fasten 10 0 20 0 472 158 462 158 462 110 472 110;
#P connect 20 0 10 0;
#P pop;
