max v2;
#N vpatcher 80 57 905 563;
#P window setfont "Sans Serif" 9.;
#P window linecount 2;
#P comment 425 300 324 9109513 If you need to send messages to or within the patch \, but it's not required that they be stored or retrieveable \, use jmod.message.;
#B color 12;
#P window linecount 1;
#P comment 406 285 300 9109513 jmod.message:;
#B color 12;
#P window linecount 2;
#P comment 425 231 317 9109513 Use this for any parameters that you'd like to be able to store and retrieve.;
#B color 12;
#P window linecount 1;
#P comment 406 216 235 9109513 jmod.parameter:;
#B color 12;
#P comment 4 43 65 9109513 Message B;
#B frgb 255 255 255;
#P newex 104 252 45 9109513 pcontrol;
#P newex 104 231 95 9109513 jmod.pass open;
#P message 38 89 43 9109513 autodoc;
#P comment 508 441 241 9109513 for html autodoc of module;
#B color 12;
#P comment 508 396 241 9109513 1 (default)/0;
#B color 12;
#P comment 508 381 241 9109513 1/0 (default);
#B color 12;
#P comment 508 426 241 9109513 none \, low \, high \, both (default);
#B color 12;
#P window linecount 0;
#P comment 508 411 241 9109513;
#B color 12;
#P window linecount 1;
#P comment 508 366 241 9109513 generic (default) \, msg_int \, msg_float \, menu \, toggle;
#B color 12;
#P comment 425 441 79 9109513 @description;
#B color 12;
#P comment 425 396 79 9109513 @repetitions;
#B color 12;
#P comment 425 381 79 9109513 @ramp;
#B color 12;
#P comment 425 426 79 9109513 @clipmode;
#B color 12;
#P comment 425 411 79 9109513 @range;
#B color 12;
#P comment 425 366 79 9109513 @type;
#B color 12;
#P newex 419 96 75 9109513 pvar MessageB;
#P number 73 41 35 9 0 0 8224 139 255 255 255 221 221 221 222 222 222 0 0 0;
#P objectname MessageB;
#P newex 419 118 235 9109513 jmod.message.mxt $0_ message_b @type msg_int;
#P window linecount 2;
#P message 16 406 65 9109513 \; max refresh;
#P message 16 369 75 9109513 \; jmod.init bang;
#P window linecount 1;
#N vpatcher 585 154 1134 690;
#P window setfont "Sans Serif" 9.;
#P window linecount 0;
#P newex 70 90 125 9109513 route param_a message_b;
#P outlet 70 474 15 0;
#P inlet 70 50 15 0;
#P window setfont "Sans Serif" 18.;
#P window linecount 1;
#P comment 70 155 398 9109522 This is were the magic is performed.............;
#B frgb 100 103 230;
#P connect 1 0 3 0;
#P pop;
#P newobj 104 285 63 9109513 p do_the_do;
#P comment 4 21 65 9109513 Parameter A;
#B frgb 255 255 255;
#P number 72 20 35 9 0 0 8224 139 255 255 255 221 221 221 222 222 222 0 0 0;
#P objectname ParameterA;
#P newex 419 36 88 9109513 pvar ParameterA;
#P window linecount 4;
#P newex 16 114 170 9109513 jmod.hub $0_ jmod.control @size 1U-half @module_type control @description "This module doesn't do much yet";
#P objectname jmod.hub;
#P inlet 16 90 13 0;
#P outlet 16 316 13 0;
#P window linecount 1;
#P newex 419 56 305 9109513 jmod.parameter.mxt $0_ param_a @repetitions 0 @type msg_int;
#P objectname jmod.parameter.mxt;
#P bpatcher 0 0 256 62 0 0 jmod.gui.mxt 0 $0_;
#P objectname jmod.gui.1Uh.a.stereo.mxt;
#P window linecount 3;
#P newex 210 114 79 9109513 pattrstorage @autorestore 0 @savemode 0;
#X client_rect 14 59 654 299;
#X storage_rect 0 0 640 240;
#P objectname jmod.control;
#P window linecount 1;
#P message 210 286 153 9109513 disable_ui_updates 0;
#P newex 210 265 61 9109513 prepend set;
#P comment 406 351 235 9109513 Attributes for jmod.parameter and jmod.message:;
#B color 12;
#P connect 7 0 8 0;
#P fasten 30 0 8 0 43 108 21 108;
#P fasten 12 0 6 0 109 309 21 309;
#P connect 8 0 6 0;
#P connect 8 1 31 0;
#P connect 31 0 32 0;
#P fasten 31 1 12 0 194 276 109 276;
#P connect 32 0 12 0;
#P connect 3 0 8 1;
#P connect 8 2 3 0;
#P fasten 31 1 1 0 194 256 215 256;
#P connect 1 0 2 0;
#P fasten 5 0 9 0 424 79 412 79 412 31 424 31;
#P connect 9 0 5 0;
#P fasten 15 0 17 0 424 142 412 142 412 89 424 89;
#P connect 17 0 15 0;
#P pop;
