max v2;#N vpatcher 30 89 715 449;#P inlet 638 40 14 0;#P inlet 623 40 14 0;#P inlet 608 40 14 0;#P inlet 593 40 14 0;#P inlet 578 40 14 0;#P inlet 563 40 14 0;#P inlet 548 40 14 0;#P inlet 533 40 14 0;#P inlet 518 40 14 0;#P inlet 503 40 14 0;#P inlet 488 40 14 0;#P inlet 473 40 14 0;#P inlet 458 40 14 0;#P inlet 443 40 14 0;#P inlet 428 40 14 0;#P inlet 413 40 14 0;#P window setfont "Sans Serif" 9.;#P window linecount 1;#P newex 173 276 94 196617 zl join;#P newex 173 255 57 196617 pack s 0;#P newex 220 233 27 196617 +;#P newex 173 210 57 196617 unpack s 0;#P newex 173 188 94 196617 zl slice 2;#P newex 293 188 149 196617 jcom.oscroute /channel_offset;#P newex 173 73 485 196617 jcom.multi.in~;#P inlet 21 40 14 0;#P inlet 398 40 14 0;#P inlet 383 40 14 0;#P inlet 368 40 14 0;#P inlet 353 40 14 0;#P inlet 338 40 14 0;#P inlet 323 40 14 0;#P inlet 308 40 14 0;#P inlet 293 40 14 0;#P inlet 278 40 14 0;#P inlet 263 40 14 0;#P inlet 248 40 14 0;#P inlet 233 40 14 0;#P inlet 218 40 14 0;#P inlet 203 40 14 0;#P inlet 188 40 14 0;#P inlet 173 40 14 0;#P outlet 173 298 15 0;#P connect 1 0 18 0;#P connect 18 0 20 0;#P connect 20 0 21 0;#P connect 21 0 23 0;#P connect 23 0 24 0;#P connect 24 0 0 0;#P connect 2 0 18 1;#P connect 3 0 18 2;#P connect 4 0 18 3;#P connect 21 1 22 0;#P connect 22 0 23 1;#P connect 5 0 18 4;#P connect 19 0 22 1;#P connect 6 0 18 5;#P connect 20 1 24 1;#P connect 7 0 18 6;#P connect 8 0 18 7;#P connect 9 0 18 8;#P connect 17 0 19 0;#P connect 10 0 18 9;#P connect 11 0 18 10;#P connect 12 0 18 11;#P connect 13 0 18 12;#P connect 14 0 18 13;#P connect 15 0 18 14;#P connect 16 0 18 15;#P connect 25 0 18 16;#P connect 26 0 18 17;#P connect 27 0 18 18;#P connect 28 0 18 19;#P connect 29 0 18 20;#P connect 30 0 18 21;#P connect 31 0 18 22;#P connect 32 0 18 23;#P connect 33 0 18 24;#P connect 34 0 18 25;#P connect 35 0 18 26;#P connect 36 0 18 27;#P connect 37 0 18 28;#P connect 38 0 18 29;#P connect 39 0 18 30;#P connect 40 0 18 31;#P pop;