max v2;#N vpatcher 53 58 1079 634;#N comlet Ch 27;#P hidden inlet 751 243 13 0;#N comlet Ch 32;#P hidden inlet 816 243 13 0;#N comlet Ch 31;#P hidden inlet 803 243 13 0;#N comlet Ch 30;#P hidden inlet 790 243 13 0;#N comlet Ch 29;#P hidden inlet 777 243 13 0;#N comlet Ch 28;#P hidden inlet 764 243 13 0;#N comlet Ch 26;#P hidden inlet 738 243 13 0;#N comlet Ch 25;#P hidden inlet 725 243 13 0;#N comlet Ch 24;#P hidden inlet 712 243 13 0;#N comlet Ch 23;#P hidden inlet 699 243 13 0;#N comlet Ch 22;#P hidden inlet 686 243 13 0;#N comlet Ch 21;#P hidden inlet 673 243 13 0;#N comlet Ch 20;#P hidden inlet 660 243 13 0;#N comlet Ch 19;#P hidden inlet 647 243 13 0;#N comlet Ch 18;#P hidden inlet 634 243 13 0;#N comlet Ch 17;#P hidden inlet 621 243 13 0;#P window setfont "Sans Serif" 9.;#P hidden message 224 120 179 196617 preset/store 1 default \, preset/write;#P hidden newex 141 218 84 196617 jcom.pass open;#P hidden newex 141 243 47 196617 pcontrol;#N comlet Ch 16;#P hidden inlet 608 243 13 0;#N comlet Ch 15;#P hidden inlet 595 243 13 0;#N comlet Ch 14;#P hidden inlet 582 243 13 0;#N comlet Ch 13;#P hidden inlet 569 243 13 0;#N comlet Ch 12;#P hidden inlet 556 243 13 0;#N comlet Ch 11;#P hidden inlet 543 243 13 0;#N comlet Ch 10;#P hidden inlet 530 243 13 0;#N comlet Ch 9;#P hidden inlet 517 243 13 0;#N comlet Ch 8;#P hidden inlet 504 243 13 0;#N comlet Ch 7;#P hidden inlet 491 243 13 0;#N comlet Ch 6;#P hidden inlet 478 243 13 0;#N comlet Ch 5;#P hidden inlet 465 243 13 0;#N comlet Ch 4;#P hidden inlet 452 243 13 0;#N comlet Ch 3;#P hidden inlet 439 243 13 0;#N comlet Ch 2;#P hidden inlet 426 243 13 0;#P hidden message 96 120 125 196617 /documentation/generate;#P window linecount 2;#P hidden message 46 422 65 196617 \; max refresh;#P window linecount 1;#P hidden newex 268 38 62 196617 pvar Offset;#P window linecount 2;#P hidden newex 0 140 338 196617 jcom.hub jmod.sur.multi.in~ @size 1U-half @module_type audio.no_panel @description "Pack up to 32 mono signals onto a multi cable.";#P objectname jcom.hub;#P window linecount 1;#P hidden comment 14 121 79 196617 command input;#P hidden inlet 0 121 13 0;#P window linecount 2;#P hidden message 46 390 72 196617 \; jcom.init bang;#N comlet Ch 1;#P hidden inlet 413 243 13 0;#P hidden outlet 400 325 13 0;#P window linecount 3;#P hidden newex 268 63 313 196617 jcom.parameter channel_offset @type msg_int @repetitions 1 @range 0 64 @clipmode low  @description "Set channel offset for signals. Only take effect the next time audio is started.";#P objectname channel_offset;#P number 93 26 35 9 0 31 8227 3 198 198 198 221 221 221 222 222 222 0 0 0;#P objectname Offset;#P window linecount 1;#P comment 16 27 74 196617 Channel offset;#B frgb 172 172 172;#P hidden comment 412 224 105 196617 ----signal inputs----;#P hidden outlet 0 229 13 0;#P hidden comment 420 325 167 196617 --- multi channel signal output ---;#P hidden newex 141 195 43 196617 jcom.in;#P hidden newex 400 294 430 196617 jalg.sur.multi.in~.mxt;#P bpatcher 0 0 256 60 0 0 jcom.gui.mxt 0;#P objectname jcom.gui.1Uh.a.stereo.mxt;#P hidden fasten 17 0 14 0 101 137 5 137;#P hidden connect 12 0 14 0;#P hidden fasten 35 0 14 0 229 137 5 137;#P hidden connect 14 0 4 0;#P hidden connect 2 0 34 0;#P hidden connect 34 0 33 0;#P hidden fasten 8 0 15 0 273 109 262 109 262 31 273 31;#P hidden connect 15 0 8 0;#P hidden connect 34 1 1 0;#P hidden connect 33 0 1 0;#P hidden connect 1 0 9 0;#P hidden connect 10 0 1 1;#P hidden connect 18 0 1 2;#P hidden connect 19 0 1 3;#P hidden connect 20 0 1 4;#P hidden connect 21 0 1 5;#P hidden connect 22 0 1 6;#P hidden connect 23 0 1 7;#P hidden connect 24 0 1 8;#P hidden connect 25 0 1 9;#P hidden connect 26 0 1 10;#P hidden connect 27 0 1 11;#P hidden connect 28 0 1 12;#P hidden connect 29 0 1 13;#P hidden connect 30 0 1 14;#P hidden connect 31 0 1 15;#P hidden connect 32 0 1 16;#P hidden connect 36 0 1 17;#P hidden connect 37 0 1 18;#P hidden connect 38 0 1 19;#P hidden connect 39 0 1 20;#P hidden connect 40 0 1 21;#P hidden connect 41 0 1 22;#P hidden connect 42 0 1 23;#P hidden connect 43 0 1 24;#P hidden connect 44 0 1 25;#P hidden connect 45 0 1 26;#P hidden connect 51 0 1 27;#P hidden connect 46 0 1 28;#P hidden connect 47 0 1 29;#P hidden connect 48 0 1 30;#P hidden connect 49 0 1 31;#P hidden connect 50 0 1 32;#P pop;