{
	"patcher" : 	{
		"fileversion" : 1,
		"rect" : [ 2.0, 47.0, 1004.0, 524.0 ],
		"bglocked" : 0,
		"defrect" : [ 2.0, 47.0, 1004.0, 524.0 ],
		"openrect" : [ 0.0, 0.0, 0.0, 0.0 ],
		"openinpresentation" : 1,
		"default_fontsize" : 10.0,
		"default_fontface" : 0,
		"default_fontname" : "Verdana",
		"gridonopen" : 0,
		"gridsize" : [ 5.0, 5.0 ],
		"gridsnaponopen" : 0,
		"toolbarvisible" : 1,
		"boxanimatetime" : 200,
		"imprint" : 0,
		"metadata" : [  ],
		"boxes" : [ 			{
				"box" : 				{
					"maxclass" : "inlet",
					"outlettype" : [ "" ],
					"patching_rect" : [ 823.0, 384.0, 23.0, 23.0 ],
					"numinlets" : 0,
					"id" : "obj-1",
					"numoutlets" : 1,
					"comment" : "Ch 27"
				}

			}
, 			{
				"box" : 				{
					"maxclass" : "inlet",
					"outlettype" : [ "" ],
					"patching_rect" : [ 948.0, 384.0, 23.0, 23.0 ],
					"numinlets" : 0,
					"id" : "obj-2",
					"numoutlets" : 1,
					"comment" : "Ch 32"
				}

			}
, 			{
				"box" : 				{
					"maxclass" : "inlet",
					"outlettype" : [ "" ],
					"patching_rect" : [ 923.0, 384.0, 23.0, 23.0 ],
					"numinlets" : 0,
					"id" : "obj-3",
					"numoutlets" : 1,
					"comment" : "Ch 31"
				}

			}
, 			{
				"box" : 				{
					"maxclass" : "inlet",
					"outlettype" : [ "" ],
					"patching_rect" : [ 898.0, 384.0, 23.0, 23.0 ],
					"numinlets" : 0,
					"id" : "obj-4",
					"numoutlets" : 1,
					"comment" : "Ch 30"
				}

			}
, 			{
				"box" : 				{
					"maxclass" : "inlet",
					"outlettype" : [ "" ],
					"patching_rect" : [ 873.0, 384.0, 23.0, 23.0 ],
					"numinlets" : 0,
					"id" : "obj-5",
					"numoutlets" : 1,
					"comment" : "Ch 29"
				}

			}
, 			{
				"box" : 				{
					"maxclass" : "inlet",
					"outlettype" : [ "" ],
					"patching_rect" : [ 848.0, 384.0, 23.0, 23.0 ],
					"numinlets" : 0,
					"id" : "obj-6",
					"numoutlets" : 1,
					"comment" : "Ch 28"
				}

			}
, 			{
				"box" : 				{
					"maxclass" : "inlet",
					"outlettype" : [ "" ],
					"patching_rect" : [ 798.0, 384.0, 23.0, 23.0 ],
					"numinlets" : 0,
					"id" : "obj-7",
					"numoutlets" : 1,
					"comment" : "Ch 26"
				}

			}
, 			{
				"box" : 				{
					"maxclass" : "inlet",
					"outlettype" : [ "" ],
					"patching_rect" : [ 773.0, 384.0, 23.0, 23.0 ],
					"numinlets" : 0,
					"id" : "obj-8",
					"numoutlets" : 1,
					"comment" : "Ch 25"
				}

			}
, 			{
				"box" : 				{
					"maxclass" : "inlet",
					"outlettype" : [ "" ],
					"patching_rect" : [ 748.0, 384.0, 23.0, 23.0 ],
					"numinlets" : 0,
					"id" : "obj-9",
					"numoutlets" : 1,
					"comment" : "Ch 24"
				}

			}
, 			{
				"box" : 				{
					"maxclass" : "inlet",
					"outlettype" : [ "" ],
					"patching_rect" : [ 723.0, 384.0, 23.0, 23.0 ],
					"numinlets" : 0,
					"id" : "obj-10",
					"numoutlets" : 1,
					"comment" : "Ch 23"
				}

			}
, 			{
				"box" : 				{
					"maxclass" : "inlet",
					"outlettype" : [ "" ],
					"patching_rect" : [ 698.0, 384.0, 23.0, 23.0 ],
					"numinlets" : 0,
					"id" : "obj-11",
					"numoutlets" : 1,
					"comment" : "Ch 22"
				}

			}
, 			{
				"box" : 				{
					"maxclass" : "inlet",
					"outlettype" : [ "" ],
					"patching_rect" : [ 673.0, 384.0, 23.0, 23.0 ],
					"numinlets" : 0,
					"id" : "obj-12",
					"numoutlets" : 1,
					"comment" : "Ch 21"
				}

			}
, 			{
				"box" : 				{
					"maxclass" : "inlet",
					"outlettype" : [ "" ],
					"patching_rect" : [ 648.0, 384.0, 23.0, 23.0 ],
					"numinlets" : 0,
					"id" : "obj-13",
					"numoutlets" : 1,
					"comment" : "Ch 20"
				}

			}
, 			{
				"box" : 				{
					"maxclass" : "inlet",
					"outlettype" : [ "" ],
					"patching_rect" : [ 623.0, 384.0, 23.0, 23.0 ],
					"numinlets" : 0,
					"id" : "obj-14",
					"numoutlets" : 1,
					"comment" : "Ch 19"
				}

			}
, 			{
				"box" : 				{
					"maxclass" : "inlet",
					"outlettype" : [ "" ],
					"patching_rect" : [ 598.0, 384.0, 23.0, 23.0 ],
					"numinlets" : 0,
					"id" : "obj-15",
					"numoutlets" : 1,
					"comment" : "Ch 18"
				}

			}
, 			{
				"box" : 				{
					"maxclass" : "inlet",
					"outlettype" : [ "" ],
					"patching_rect" : [ 573.0, 384.0, 23.0, 23.0 ],
					"numinlets" : 0,
					"id" : "obj-16",
					"numoutlets" : 1,
					"comment" : "Ch 17"
				}

			}
, 			{
				"box" : 				{
					"maxclass" : "message",
					"text" : "preset/store 1 default, preset/write",
					"outlettype" : [ "" ],
					"fontsize" : 10.0,
					"patching_rect" : [ 230.0, 165.0, 187.0, 17.0 ],
					"numinlets" : 2,
					"id" : "obj-17",
					"fontname" : "Verdana",
					"numoutlets" : 1
				}

			}
, 			{
				"box" : 				{
					"maxclass" : "newobj",
					"text" : "jcom.pass open",
					"outlettype" : [ "", "" ],
					"fontsize" : 10.0,
					"patching_rect" : [ 53.0, 345.0, 87.0, 19.0 ],
					"numinlets" : 1,
					"id" : "obj-18",
					"fontname" : "Verdana",
					"numoutlets" : 2
				}

			}
, 			{
				"box" : 				{
					"maxclass" : "newobj",
					"text" : "pcontrol",
					"outlettype" : [ "" ],
					"fontsize" : 10.0,
					"patching_rect" : [ 53.0, 370.0, 49.0, 19.0 ],
					"numinlets" : 1,
					"id" : "obj-19",
					"fontname" : "Verdana",
					"numoutlets" : 1
				}

			}
, 			{
				"box" : 				{
					"maxclass" : "inlet",
					"outlettype" : [ "" ],
					"patching_rect" : [ 548.0, 384.0, 23.0, 23.0 ],
					"numinlets" : 0,
					"id" : "obj-20",
					"numoutlets" : 1,
					"comment" : "Ch 16"
				}

			}
, 			{
				"box" : 				{
					"maxclass" : "inlet",
					"outlettype" : [ "" ],
					"patching_rect" : [ 523.0, 384.0, 23.0, 23.0 ],
					"numinlets" : 0,
					"id" : "obj-21",
					"numoutlets" : 1,
					"comment" : "Ch 15"
				}

			}
, 			{
				"box" : 				{
					"maxclass" : "inlet",
					"outlettype" : [ "" ],
					"patching_rect" : [ 498.0, 384.0, 23.0, 23.0 ],
					"numinlets" : 0,
					"id" : "obj-22",
					"numoutlets" : 1,
					"comment" : "Ch 14"
				}

			}
, 			{
				"box" : 				{
					"maxclass" : "inlet",
					"outlettype" : [ "" ],
					"patching_rect" : [ 473.0, 384.0, 23.0, 23.0 ],
					"numinlets" : 0,
					"id" : "obj-23",
					"numoutlets" : 1,
					"comment" : "Ch 13"
				}

			}
, 			{
				"box" : 				{
					"maxclass" : "inlet",
					"outlettype" : [ "" ],
					"patching_rect" : [ 448.0, 384.0, 23.0, 23.0 ],
					"numinlets" : 0,
					"id" : "obj-24",
					"numoutlets" : 1,
					"comment" : "Ch 12"
				}

			}
, 			{
				"box" : 				{
					"maxclass" : "inlet",
					"outlettype" : [ "" ],
					"patching_rect" : [ 423.0, 384.0, 23.0, 23.0 ],
					"numinlets" : 0,
					"id" : "obj-25",
					"numoutlets" : 1,
					"comment" : "Ch 11"
				}

			}
, 			{
				"box" : 				{
					"maxclass" : "inlet",
					"outlettype" : [ "" ],
					"patching_rect" : [ 398.0, 384.0, 23.0, 23.0 ],
					"numinlets" : 0,
					"id" : "obj-26",
					"numoutlets" : 1,
					"comment" : "Ch 10"
				}

			}
, 			{
				"box" : 				{
					"maxclass" : "inlet",
					"outlettype" : [ "" ],
					"patching_rect" : [ 373.0, 384.0, 23.0, 23.0 ],
					"numinlets" : 0,
					"id" : "obj-27",
					"numoutlets" : 1,
					"comment" : "Ch 9"
				}

			}
, 			{
				"box" : 				{
					"maxclass" : "inlet",
					"outlettype" : [ "" ],
					"patching_rect" : [ 348.0, 384.0, 23.0, 23.0 ],
					"numinlets" : 0,
					"id" : "obj-28",
					"numoutlets" : 1,
					"comment" : "Ch 8"
				}

			}
, 			{
				"box" : 				{
					"maxclass" : "inlet",
					"outlettype" : [ "" ],
					"patching_rect" : [ 323.0, 384.0, 23.0, 23.0 ],
					"numinlets" : 0,
					"id" : "obj-29",
					"numoutlets" : 1,
					"comment" : "Ch 7"
				}

			}
, 			{
				"box" : 				{
					"maxclass" : "inlet",
					"outlettype" : [ "" ],
					"patching_rect" : [ 298.0, 384.0, 23.0, 23.0 ],
					"numinlets" : 0,
					"id" : "obj-30",
					"numoutlets" : 1,
					"comment" : "Ch 6"
				}

			}
, 			{
				"box" : 				{
					"maxclass" : "inlet",
					"outlettype" : [ "" ],
					"patching_rect" : [ 273.0, 384.0, 23.0, 23.0 ],
					"numinlets" : 0,
					"id" : "obj-31",
					"numoutlets" : 1,
					"comment" : "Ch 5"
				}

			}
, 			{
				"box" : 				{
					"maxclass" : "inlet",
					"outlettype" : [ "" ],
					"patching_rect" : [ 248.0, 384.0, 23.0, 23.0 ],
					"numinlets" : 0,
					"id" : "obj-32",
					"numoutlets" : 1,
					"comment" : "Ch 4"
				}

			}
, 			{
				"box" : 				{
					"maxclass" : "inlet",
					"outlettype" : [ "" ],
					"patching_rect" : [ 223.0, 384.0, 23.0, 23.0 ],
					"numinlets" : 0,
					"id" : "obj-33",
					"numoutlets" : 1,
					"comment" : "Ch 3"
				}

			}
, 			{
				"box" : 				{
					"maxclass" : "inlet",
					"outlettype" : [ "" ],
					"patching_rect" : [ 198.0, 384.0, 23.0, 23.0 ],
					"numinlets" : 0,
					"id" : "obj-34",
					"numoutlets" : 1,
					"comment" : "Ch 2"
				}

			}
, 			{
				"box" : 				{
					"maxclass" : "message",
					"text" : "/documentation/generate",
					"outlettype" : [ "" ],
					"fontsize" : 10.0,
					"patching_rect" : [ 80.0, 165.0, 137.0, 17.0 ],
					"numinlets" : 2,
					"id" : "obj-35",
					"fontname" : "Verdana",
					"numoutlets" : 1
				}

			}
, 			{
				"box" : 				{
					"maxclass" : "newobj",
					"varname" : "jcom.hub",
					"text" : "jcom.hub jmod.sur.multi.in~ @description \"Pack up to 32 mono signals onto a multi cable.\"",
					"outlettype" : [ "", "" ],
					"fontsize" : 10.0,
					"patching_rect" : [ 55.0, 195.0, 472.0, 19.0 ],
					"numinlets" : 1,
					"id" : "obj-38",
					"fontname" : "Verdana",
					"numoutlets" : 2
				}

			}
, 			{
				"box" : 				{
					"maxclass" : "comment",
					"text" : "command input",
					"fontsize" : 10.0,
					"frgb" : [ 0.337255, 0.356863, 0.690196, 1.0 ],
					"patching_rect" : [ 80.0, 130.0, 87.0, 19.0 ],
					"numinlets" : 1,
					"id" : "obj-39",
					"fontname" : "Verdana",
					"numoutlets" : 0
				}

			}
, 			{
				"box" : 				{
					"maxclass" : "inlet",
					"outlettype" : [ "" ],
					"patching_rect" : [ 55.0, 130.0, 23.0, 23.0 ],
					"numinlets" : 0,
					"id" : "obj-40",
					"numoutlets" : 1,
					"comment" : ""
				}

			}
, 			{
				"box" : 				{
					"maxclass" : "inlet",
					"outlettype" : [ "" ],
					"patching_rect" : [ 173.0, 384.0, 23.0, 23.0 ],
					"numinlets" : 0,
					"id" : "obj-42",
					"numoutlets" : 1,
					"comment" : "Ch 1"
				}

			}
, 			{
				"box" : 				{
					"maxclass" : "outlet",
					"patching_rect" : [ 160.0, 466.0, 23.0, 23.0 ],
					"numinlets" : 1,
					"id" : "obj-43",
					"numoutlets" : 0,
					"comment" : ""
				}

			}
, 			{
				"box" : 				{
					"maxclass" : "newobj",
					"varname" : "channel_offset",
					"text" : "jcom.parameter channel_offset @type msg_int @repetitions 1 @range/bounds 0 64 @range/clipmode low @description \"Set channel offset for signals. Only take effect the next time audio is started.\"",
					"linecount" : 2,
					"outlettype" : [ "", "", "" ],
					"fontsize" : 10.0,
					"patching_rect" : [ 390.0, 55.0, 549.0, 31.0 ],
					"numinlets" : 1,
					"id" : "obj-44",
					"fontname" : "Verdana",
					"numoutlets" : 3
				}

			}
, 			{
				"box" : 				{
					"maxclass" : "number",
					"varname" : "Offset",
					"outlettype" : [ "int", "bang" ],
					"maximum" : 31,
					"fontsize" : 10.0,
					"presentation_rect" : [ 110.0, 35.0, 45.0, 19.0 ],
					"triangle" : 0,
					"patching_rect" : [ 390.0, 30.0, 45.0, 19.0 ],
					"presentation" : 1,
					"numinlets" : 1,
					"id" : "obj-45",
					"fontname" : "Verdana",
					"numoutlets" : 2,
					"minimum" : 0,
					"triscale" : 0.9
				}

			}
, 			{
				"box" : 				{
					"maxclass" : "comment",
					"text" : "Channel offset",
					"fontsize" : 10.0,
					"presentation_rect" : [ 20.0, 35.0, 81.0, 19.0 ],
					"frgb" : [ 0.337255, 0.356863, 0.690196, 1.0 ],
					"patching_rect" : [ 20.0, 35.0, 81.0, 19.0 ],
					"presentation" : 1,
					"numinlets" : 1,
					"id" : "obj-46",
					"fontname" : "Verdana",
					"numoutlets" : 0
				}

			}
, 			{
				"box" : 				{
					"maxclass" : "comment",
					"text" : "----signal inputs----",
					"fontsize" : 10.0,
					"frgb" : [ 0.337255, 0.356863, 0.690196, 1.0 ],
					"patching_rect" : [ 515.0, 360.0, 108.0, 19.0 ],
					"numinlets" : 1,
					"id" : "obj-47",
					"fontname" : "Verdana",
					"numoutlets" : 0
				}

			}
, 			{
				"box" : 				{
					"maxclass" : "outlet",
					"patching_rect" : [ 55.0, 230.0, 23.0, 23.0 ],
					"numinlets" : 1,
					"id" : "obj-48",
					"numoutlets" : 0,
					"comment" : ""
				}

			}
, 			{
				"box" : 				{
					"maxclass" : "comment",
					"text" : "--- multi channel signal output ---",
					"fontsize" : 10.0,
					"frgb" : [ 0.337255, 0.356863, 0.690196, 1.0 ],
					"patching_rect" : [ 190.0, 465.0, 180.0, 19.0 ],
					"numinlets" : 1,
					"id" : "obj-49",
					"fontname" : "Verdana",
					"numoutlets" : 0
				}

			}
, 			{
				"box" : 				{
					"maxclass" : "newobj",
					"text" : "jcom.in",
					"outlettype" : [ "", "" ],
					"fontsize" : 10.0,
					"patching_rect" : [ 53.0, 322.0, 46.0, 19.0 ],
					"numinlets" : 1,
					"id" : "obj-50",
					"fontname" : "Verdana",
					"numoutlets" : 2
				}

			}
, 			{
				"box" : 				{
					"maxclass" : "newobj",
					"text" : "jalg.sur.multi.in~",
					"outlettype" : [ "" ],
					"fontsize" : 10.0,
					"patching_rect" : [ 160.0, 435.0, 806.0, 19.0 ],
					"numinlets" : 33,
					"id" : "obj-51",
					"fontname" : "Verdana",
					"numoutlets" : 1
				}

			}
, 			{
				"box" : 				{
					"maxclass" : "jcom.ui",
					"text" : "/editing_this_module",
					"outlettype" : [ "" ],
					"presentation_rect" : [ 0.0, 0.0, 300.0, 70.0 ],
					"presentation" : 1,
					"numinlets" : 1,
					"id" : "obj-52",
					"numoutlets" : 1,
					"color" : [ 1.0, 1.0, 1.0, 1.0 ]
				}

			}
 ],
		"lines" : [ 			{
				"patchline" : 				{
					"source" : [ "obj-44", 0 ],
					"destination" : [ "obj-45", 0 ],
					"hidden" : 0,
					"midpoints" : [ 399.5, 97.0, 383.0, 97.0, 383.0, 21.0, 399.5, 21.0 ]
				}

			}
, 			{
				"patchline" : 				{
					"source" : [ "obj-45", 0 ],
					"destination" : [ "obj-44", 0 ],
					"hidden" : 0,
					"midpoints" : [  ]
				}

			}
, 			{
				"patchline" : 				{
					"source" : [ "obj-2", 0 ],
					"destination" : [ "obj-51", 32 ],
					"hidden" : 0,
					"midpoints" : [  ]
				}

			}
, 			{
				"patchline" : 				{
					"source" : [ "obj-3", 0 ],
					"destination" : [ "obj-51", 31 ],
					"hidden" : 0,
					"midpoints" : [  ]
				}

			}
, 			{
				"patchline" : 				{
					"source" : [ "obj-4", 0 ],
					"destination" : [ "obj-51", 30 ],
					"hidden" : 0,
					"midpoints" : [  ]
				}

			}
, 			{
				"patchline" : 				{
					"source" : [ "obj-5", 0 ],
					"destination" : [ "obj-51", 29 ],
					"hidden" : 0,
					"midpoints" : [  ]
				}

			}
, 			{
				"patchline" : 				{
					"source" : [ "obj-6", 0 ],
					"destination" : [ "obj-51", 28 ],
					"hidden" : 0,
					"midpoints" : [  ]
				}

			}
, 			{
				"patchline" : 				{
					"source" : [ "obj-1", 0 ],
					"destination" : [ "obj-51", 27 ],
					"hidden" : 0,
					"midpoints" : [  ]
				}

			}
, 			{
				"patchline" : 				{
					"source" : [ "obj-7", 0 ],
					"destination" : [ "obj-51", 26 ],
					"hidden" : 0,
					"midpoints" : [  ]
				}

			}
, 			{
				"patchline" : 				{
					"source" : [ "obj-8", 0 ],
					"destination" : [ "obj-51", 25 ],
					"hidden" : 0,
					"midpoints" : [  ]
				}

			}
, 			{
				"patchline" : 				{
					"source" : [ "obj-9", 0 ],
					"destination" : [ "obj-51", 24 ],
					"hidden" : 0,
					"midpoints" : [  ]
				}

			}
, 			{
				"patchline" : 				{
					"source" : [ "obj-10", 0 ],
					"destination" : [ "obj-51", 23 ],
					"hidden" : 0,
					"midpoints" : [  ]
				}

			}
, 			{
				"patchline" : 				{
					"source" : [ "obj-11", 0 ],
					"destination" : [ "obj-51", 22 ],
					"hidden" : 0,
					"midpoints" : [  ]
				}

			}
, 			{
				"patchline" : 				{
					"source" : [ "obj-12", 0 ],
					"destination" : [ "obj-51", 21 ],
					"hidden" : 0,
					"midpoints" : [  ]
				}

			}
, 			{
				"patchline" : 				{
					"source" : [ "obj-13", 0 ],
					"destination" : [ "obj-51", 20 ],
					"hidden" : 0,
					"midpoints" : [  ]
				}

			}
, 			{
				"patchline" : 				{
					"source" : [ "obj-14", 0 ],
					"destination" : [ "obj-51", 19 ],
					"hidden" : 0,
					"midpoints" : [  ]
				}

			}
, 			{
				"patchline" : 				{
					"source" : [ "obj-15", 0 ],
					"destination" : [ "obj-51", 18 ],
					"hidden" : 0,
					"midpoints" : [  ]
				}

			}
, 			{
				"patchline" : 				{
					"source" : [ "obj-16", 0 ],
					"destination" : [ "obj-51", 17 ],
					"hidden" : 0,
					"midpoints" : [  ]
				}

			}
, 			{
				"patchline" : 				{
					"source" : [ "obj-20", 0 ],
					"destination" : [ "obj-51", 16 ],
					"hidden" : 0,
					"midpoints" : [  ]
				}

			}
, 			{
				"patchline" : 				{
					"source" : [ "obj-21", 0 ],
					"destination" : [ "obj-51", 15 ],
					"hidden" : 0,
					"midpoints" : [  ]
				}

			}
, 			{
				"patchline" : 				{
					"source" : [ "obj-22", 0 ],
					"destination" : [ "obj-51", 14 ],
					"hidden" : 0,
					"midpoints" : [  ]
				}

			}
, 			{
				"patchline" : 				{
					"source" : [ "obj-23", 0 ],
					"destination" : [ "obj-51", 13 ],
					"hidden" : 0,
					"midpoints" : [  ]
				}

			}
, 			{
				"patchline" : 				{
					"source" : [ "obj-24", 0 ],
					"destination" : [ "obj-51", 12 ],
					"hidden" : 0,
					"midpoints" : [  ]
				}

			}
, 			{
				"patchline" : 				{
					"source" : [ "obj-25", 0 ],
					"destination" : [ "obj-51", 11 ],
					"hidden" : 0,
					"midpoints" : [  ]
				}

			}
, 			{
				"patchline" : 				{
					"source" : [ "obj-26", 0 ],
					"destination" : [ "obj-51", 10 ],
					"hidden" : 0,
					"midpoints" : [  ]
				}

			}
, 			{
				"patchline" : 				{
					"source" : [ "obj-27", 0 ],
					"destination" : [ "obj-51", 9 ],
					"hidden" : 0,
					"midpoints" : [  ]
				}

			}
, 			{
				"patchline" : 				{
					"source" : [ "obj-28", 0 ],
					"destination" : [ "obj-51", 8 ],
					"hidden" : 0,
					"midpoints" : [  ]
				}

			}
, 			{
				"patchline" : 				{
					"source" : [ "obj-29", 0 ],
					"destination" : [ "obj-51", 7 ],
					"hidden" : 0,
					"midpoints" : [  ]
				}

			}
, 			{
				"patchline" : 				{
					"source" : [ "obj-30", 0 ],
					"destination" : [ "obj-51", 6 ],
					"hidden" : 0,
					"midpoints" : [  ]
				}

			}
, 			{
				"patchline" : 				{
					"source" : [ "obj-31", 0 ],
					"destination" : [ "obj-51", 5 ],
					"hidden" : 0,
					"midpoints" : [  ]
				}

			}
, 			{
				"patchline" : 				{
					"source" : [ "obj-32", 0 ],
					"destination" : [ "obj-51", 4 ],
					"hidden" : 0,
					"midpoints" : [  ]
				}

			}
, 			{
				"patchline" : 				{
					"source" : [ "obj-33", 0 ],
					"destination" : [ "obj-51", 3 ],
					"hidden" : 0,
					"midpoints" : [  ]
				}

			}
, 			{
				"patchline" : 				{
					"source" : [ "obj-34", 0 ],
					"destination" : [ "obj-51", 2 ],
					"hidden" : 0,
					"midpoints" : [  ]
				}

			}
, 			{
				"patchline" : 				{
					"source" : [ "obj-42", 0 ],
					"destination" : [ "obj-51", 1 ],
					"hidden" : 0,
					"midpoints" : [  ]
				}

			}
, 			{
				"patchline" : 				{
					"source" : [ "obj-51", 0 ],
					"destination" : [ "obj-43", 0 ],
					"hidden" : 0,
					"midpoints" : [  ]
				}

			}
, 			{
				"patchline" : 				{
					"source" : [ "obj-19", 0 ],
					"destination" : [ "obj-51", 0 ],
					"hidden" : 0,
					"midpoints" : [  ]
				}

			}
, 			{
				"patchline" : 				{
					"source" : [ "obj-18", 1 ],
					"destination" : [ "obj-51", 0 ],
					"hidden" : 0,
					"midpoints" : [  ]
				}

			}
, 			{
				"patchline" : 				{
					"source" : [ "obj-18", 0 ],
					"destination" : [ "obj-19", 0 ],
					"hidden" : 0,
					"midpoints" : [  ]
				}

			}
, 			{
				"patchline" : 				{
					"source" : [ "obj-50", 0 ],
					"destination" : [ "obj-18", 0 ],
					"hidden" : 0,
					"midpoints" : [  ]
				}

			}
, 			{
				"patchline" : 				{
					"source" : [ "obj-35", 0 ],
					"destination" : [ "obj-38", 0 ],
					"hidden" : 0,
					"midpoints" : [ 89.5, 192.0, 64.5, 192.0 ]
				}

			}
, 			{
				"patchline" : 				{
					"source" : [ "obj-40", 0 ],
					"destination" : [ "obj-38", 0 ],
					"hidden" : 0,
					"midpoints" : [  ]
				}

			}
, 			{
				"patchline" : 				{
					"source" : [ "obj-17", 0 ],
					"destination" : [ "obj-38", 0 ],
					"hidden" : 0,
					"midpoints" : [ 239.5, 192.0, 64.5, 192.0 ]
				}

			}
, 			{
				"patchline" : 				{
					"source" : [ "obj-38", 0 ],
					"destination" : [ "obj-48", 0 ],
					"hidden" : 0,
					"midpoints" : [  ]
				}

			}
 ]
	}

}
