{
	"patcher" : 	{
		"fileversion" : 1,
		"rect" : [ 441.0, 118.0, 716.0, 577.0 ],
		"bglocked" : 0,
		"defrect" : [ 441.0, 118.0, 716.0, 577.0 ],
		"openrect" : [ 0.0, 0.0, 0.0, 0.0 ],
		"openinpresentation" : 0,
		"default_fontsize" : 10.0,
		"default_fontface" : 0,
		"default_fontname" : "Arial",
		"gridonopen" : 0,
		"gridsize" : [ 15.0, 15.0 ],
		"gridsnaponopen" : 0,
		"toolbarvisible" : 1,
		"boxanimatetime" : 200,
		"imprint" : 0,
		"metadata" : [  ],
		"boxes" : [ 			{
				"box" : 				{
					"maxclass" : "comment",
					"text" : "jmod.sur.vbap~",
					"fontsize" : 17.334082,
					"numinlets" : 1,
					"numoutlets" : 0,
					"id" : "obj-38",
					"fontname" : "Verdana",
					"patching_rect" : [ 9.0, 11.0, 164.0, 28.0 ]
				}

			}
, 			{
				"box" : 				{
					"maxclass" : "comment",
					"text" : "Vector Based Amplitude Panning",
					"fontsize" : 10.0,
					"numinlets" : 1,
					"numoutlets" : 0,
					"id" : "obj-39",
					"fontname" : "Verdana",
					"patching_rect" : [ 9.0, 37.0, 345.0, 19.0 ]
				}

			}
, 			{
				"box" : 				{
					"maxclass" : "panel",
					"rounded" : 15,
					"numinlets" : 1,
					"numoutlets" : 0,
					"id" : "obj-40",
					"patching_rect" : [ 4.0, 7.0, 351.0, 53.0 ]
				}

			}
, 			{
				"box" : 				{
					"maxclass" : "newobj",
					"text" : "p dial2VBAP",
					"fontsize" : 10.0,
					"numinlets" : 1,
					"numoutlets" : 1,
					"id" : "obj-35",
					"fontname" : "Arial",
					"outlettype" : [ "" ],
					"patching_rect" : [ 285.0, 204.0, 67.0, 18.0 ],
					"patcher" : 					{
						"fileversion" : 1,
						"rect" : [ 25.0, 69.0, 640.0, 480.0 ],
						"bglocked" : 0,
						"defrect" : [ 25.0, 69.0, 640.0, 480.0 ],
						"openrect" : [ 0.0, 0.0, 0.0, 0.0 ],
						"openinpresentation" : 0,
						"default_fontsize" : 10.0,
						"default_fontface" : 0,
						"default_fontname" : "Arial",
						"gridonopen" : 0,
						"gridsize" : [ 15.0, 15.0 ],
						"gridsnaponopen" : 0,
						"toolbarvisible" : 1,
						"boxanimatetime" : 200,
						"imprint" : 0,
						"metadata" : [  ],
						"boxes" : [ 							{
								"box" : 								{
									"maxclass" : "newobj",
									"text" : "+ 180",
									"fontsize" : 10.0,
									"numinlets" : 2,
									"numoutlets" : 1,
									"id" : "obj-4",
									"fontname" : "Arial",
									"outlettype" : [ "int" ],
									"patching_rect" : [ 54.0, 60.0, 36.0, 18.0 ]
								}

							}
, 							{
								"box" : 								{
									"maxclass" : "newobj",
									"text" : "% 360",
									"fontsize" : 10.0,
									"numinlets" : 2,
									"numoutlets" : 1,
									"id" : "obj-3",
									"fontname" : "Arial",
									"outlettype" : [ "int" ],
									"patching_rect" : [ 54.0, 81.0, 39.0, 18.0 ]
								}

							}
, 							{
								"box" : 								{
									"maxclass" : "newobj",
									"text" : "append 0. 0.",
									"fontsize" : 10.0,
									"numinlets" : 1,
									"numoutlets" : 1,
									"id" : "obj-32",
									"fontname" : "Arial",
									"outlettype" : [ "" ],
									"patching_rect" : [ 54.0, 121.0, 66.0, 18.0 ]
								}

							}
, 							{
								"box" : 								{
									"maxclass" : "newobj",
									"text" : "prepend /source/aed 1",
									"fontsize" : 10.0,
									"numinlets" : 1,
									"numoutlets" : 1,
									"id" : "obj-30",
									"fontname" : "Arial",
									"outlettype" : [ "" ],
									"patching_rect" : [ 54.0, 100.0, 111.0, 18.0 ]
								}

							}
, 							{
								"box" : 								{
									"maxclass" : "inlet",
									"numinlets" : 0,
									"numoutlets" : 1,
									"id" : "obj-33",
									"outlettype" : [ "float" ],
									"patching_rect" : [ 54.0, 34.0, 25.0, 25.0 ],
									"comment" : ""
								}

							}
, 							{
								"box" : 								{
									"maxclass" : "outlet",
									"numinlets" : 1,
									"numoutlets" : 0,
									"id" : "obj-34",
									"patching_rect" : [ 54.0, 143.0, 25.0, 25.0 ],
									"comment" : ""
								}

							}
 ],
						"lines" : [ 							{
								"patchline" : 								{
									"source" : [ "obj-3", 0 ],
									"destination" : [ "obj-30", 0 ],
									"hidden" : 0,
									"midpoints" : [  ]
								}

							}
, 							{
								"patchline" : 								{
									"source" : [ "obj-33", 0 ],
									"destination" : [ "obj-4", 0 ],
									"hidden" : 0,
									"midpoints" : [  ]
								}

							}
, 							{
								"patchline" : 								{
									"source" : [ "obj-4", 0 ],
									"destination" : [ "obj-3", 0 ],
									"hidden" : 0,
									"midpoints" : [  ]
								}

							}
, 							{
								"patchline" : 								{
									"source" : [ "obj-30", 0 ],
									"destination" : [ "obj-32", 0 ],
									"hidden" : 0,
									"midpoints" : [  ]
								}

							}
, 							{
								"patchline" : 								{
									"source" : [ "obj-32", 0 ],
									"destination" : [ "obj-34", 0 ],
									"hidden" : 0,
									"midpoints" : [  ]
								}

							}
 ]
					}
,
					"saved_object_attributes" : 					{
						"fontface" : 0,
						"fontsize" : 10.0,
						"default_fontface" : 0,
						"default_fontname" : "Arial",
						"fontname" : "Arial",
						"default_fontsize" : 10.0,
						"globalpatchername" : ""
					}

				}

			}
, 			{
				"box" : 				{
					"maxclass" : "dial",
					"numinlets" : 1,
					"degrees" : 360,
					"numoutlets" : 1,
					"id" : "obj-27",
					"outlettype" : [ "float" ],
					"clip" : 0,
					"patching_rect" : [ 285.0, 107.0, 94.0, 94.0 ],
					"size" : 360
				}

			}
, 			{
				"box" : 				{
					"maxclass" : "message",
					"text" : "/source/aed 1 63 0. 0.",
					"fontsize" : 9.0,
					"numinlets" : 2,
					"numoutlets" : 1,
					"id" : "obj-1",
					"fontname" : "Arial",
					"outlettype" : [ "" ],
					"patching_rect" : [ 299.0, 225.0, 113.0, 15.0 ]
				}

			}
, 			{
				"box" : 				{
					"maxclass" : "meter~",
					"coldcolor" : [ 0.0, 0.658824, 0.0, 1.0 ],
					"bgcolor" : [ 0.403922, 0.403922, 0.403922, 1.0 ],
					"warmcolor" : [ 0.85098, 0.85098, 0.0, 1.0 ],
					"numinlets" : 1,
					"numoutlets" : 1,
					"id" : "obj-5",
					"outlettype" : [ "float" ],
					"tepidcolor" : [ 0.6, 0.729412, 0.0, 1.0 ],
					"patching_rect" : [ 96.0, 453.0, 13.0, 70.0 ]
				}

			}
, 			{
				"box" : 				{
					"maxclass" : "meter~",
					"coldcolor" : [ 0.0, 0.658824, 0.0, 1.0 ],
					"bgcolor" : [ 0.403922, 0.403922, 0.403922, 1.0 ],
					"warmcolor" : [ 0.85098, 0.85098, 0.0, 1.0 ],
					"numinlets" : 1,
					"numoutlets" : 1,
					"id" : "obj-6",
					"outlettype" : [ "float" ],
					"tepidcolor" : [ 0.6, 0.729412, 0.0, 1.0 ],
					"patching_rect" : [ 128.0, 489.0, 13.0, 70.0 ]
				}

			}
, 			{
				"box" : 				{
					"maxclass" : "meter~",
					"coldcolor" : [ 0.0, 0.658824, 0.0, 1.0 ],
					"bgcolor" : [ 0.403922, 0.403922, 0.403922, 1.0 ],
					"warmcolor" : [ 0.85098, 0.85098, 0.0, 1.0 ],
					"numinlets" : 1,
					"numoutlets" : 1,
					"id" : "obj-7",
					"outlettype" : [ "float" ],
					"tepidcolor" : [ 0.6, 0.729412, 0.0, 1.0 ],
					"patching_rect" : [ 164.0, 457.0, 13.0, 70.0 ]
				}

			}
, 			{
				"box" : 				{
					"maxclass" : "meter~",
					"coldcolor" : [ 0.0, 0.658824, 0.0, 1.0 ],
					"bgcolor" : [ 0.403922, 0.403922, 0.403922, 1.0 ],
					"warmcolor" : [ 0.85098, 0.85098, 0.0, 1.0 ],
					"numinlets" : 1,
					"numoutlets" : 1,
					"id" : "obj-8",
					"outlettype" : [ "float" ],
					"tepidcolor" : [ 0.6, 0.729412, 0.0, 1.0 ],
					"patching_rect" : [ 128.0, 410.0, 13.0, 70.0 ]
				}

			}
, 			{
				"box" : 				{
					"maxclass" : "number",
					"fontsize" : 9.0,
					"bgcolor" : [ 0.866667, 0.866667, 0.866667, 1.0 ],
					"numinlets" : 1,
					"triscale" : 0.9,
					"numoutlets" : 2,
					"id" : "obj-10",
					"fontname" : "Arial",
					"htextcolor" : [ 0.870588, 0.870588, 0.870588, 1.0 ],
					"minimum" : 0,
					"outlettype" : [ "int", "bang" ],
					"maximum" : 100,
					"patching_rect" : [ 137.0, 196.0, 35.0, 17.0 ]
				}

			}
, 			{
				"box" : 				{
					"maxclass" : "message",
					"text" : "/source/spread 1 $1",
					"fontsize" : 9.0,
					"numinlets" : 2,
					"numoutlets" : 1,
					"id" : "obj-11",
					"fontname" : "Arial",
					"outlettype" : [ "" ],
					"patching_rect" : [ 137.0, 217.0, 106.0, 15.0 ]
				}

			}
, 			{
				"box" : 				{
					"maxclass" : "number",
					"fontsize" : 9.0,
					"bgcolor" : [ 0.866667, 0.866667, 0.866667, 1.0 ],
					"numinlets" : 1,
					"triscale" : 0.9,
					"numoutlets" : 2,
					"id" : "obj-15",
					"fontname" : "Arial",
					"htextcolor" : [ 0.870588, 0.870588, 0.870588, 1.0 ],
					"outlettype" : [ "int", "bang" ],
					"patching_rect" : [ 24.0, 197.0, 35.0, 17.0 ]
				}

			}
, 			{
				"box" : 				{
					"maxclass" : "message",
					"text" : "/source/aed 1 $1",
					"fontsize" : 9.0,
					"numinlets" : 2,
					"numoutlets" : 1,
					"id" : "obj-16",
					"fontname" : "Arial",
					"outlettype" : [ "" ],
					"patching_rect" : [ 24.0, 218.0, 91.0, 15.0 ]
				}

			}
, 			{
				"box" : 				{
					"maxclass" : "message",
					"text" : "/destination/voices 4, /destination/aed 0 270, /destination/aed 1 0, /destination/aed 2 180, /destination/aed 3 90",
					"linecount" : 2,
					"fontsize" : 9.0,
					"numinlets" : 2,
					"numoutlets" : 1,
					"id" : "obj-17",
					"fontname" : "Arial",
					"outlettype" : [ "" ],
					"patching_rect" : [ 36.0, 257.0, 257.0, 25.0 ]
				}

			}
, 			{
				"box" : 				{
					"maxclass" : "newobj",
					"text" : "jcom.multi.out~",
					"fontsize" : 9.0,
					"numinlets" : 2,
					"numoutlets" : 32,
					"id" : "obj-18",
					"fontname" : "Arial",
					"outlettype" : [ "", "", "", "", "", "", "", "", "", "", "", "", "", "", "", "", "", "", "", "", "", "", "", "", "", "", "", "", "", "", "", "" ],
					"patching_rect" : [ 144.0, 374.0, 417.0, 17.0 ]
				}

			}
, 			{
				"box" : 				{
					"maxclass" : "newobj",
					"text" : "pink~",
					"fontsize" : 9.0,
					"numinlets" : 1,
					"numoutlets" : 1,
					"id" : "obj-19",
					"fontname" : "Arial",
					"outlettype" : [ "signal" ],
					"patching_rect" : [ 305.0, 246.0, 34.0, 17.0 ]
				}

			}
, 			{
				"box" : 				{
					"maxclass" : "newobj",
					"text" : "jcom.multi.in~",
					"fontsize" : 9.0,
					"numinlets" : 32,
					"numoutlets" : 1,
					"id" : "obj-20",
					"fontname" : "Arial",
					"outlettype" : [ "" ],
					"patching_rect" : [ 305.0, 266.0, 417.0, 17.0 ]
				}

			}
, 			{
				"box" : 				{
					"maxclass" : "bpatcher",
					"varname" : "jmod.control",
					"args" : [ "/control" ],
					"name" : "jmod.control.maxpat",
					"numinlets" : 1,
					"numoutlets" : 1,
					"id" : "obj-21",
					"lockeddragscroll" : 1,
					"outlettype" : [ "" ],
					"patching_rect" : [ 19.0, 105.0, 151.0, 71.0 ]
				}

			}
, 			{
				"box" : 				{
					"maxclass" : "bpatcher",
					"varname" : "jmod.sur.vbap~",
					"args" : [ "/jmod.sur.vbap~" ],
					"name" : "jmod.sur.vbap~.maxpat",
					"numinlets" : 2,
					"numoutlets" : 2,
					"id" : "obj-22",
					"lockeddragscroll" : 1,
					"outlettype" : [ "", "" ],
					"patching_rect" : [ 24.0, 288.0, 300.0, 71.0 ]
				}

			}
 ],
		"lines" : [ 			{
				"patchline" : 				{
					"source" : [ "obj-27", 0 ],
					"destination" : [ "obj-35", 0 ],
					"hidden" : 0,
					"midpoints" : [  ]
				}

			}
, 			{
				"patchline" : 				{
					"source" : [ "obj-35", 0 ],
					"destination" : [ "obj-1", 1 ],
					"hidden" : 0,
					"midpoints" : [ 294.5, 222.0, 402.5, 222.0 ]
				}

			}
, 			{
				"patchline" : 				{
					"source" : [ "obj-19", 0 ],
					"destination" : [ "obj-20", 0 ],
					"hidden" : 0,
					"midpoints" : [  ]
				}

			}
, 			{
				"patchline" : 				{
					"source" : [ "obj-18", 3 ],
					"destination" : [ "obj-7", 0 ],
					"hidden" : 0,
					"midpoints" : [ 192.016129, 448.0, 171.0, 448.0 ]
				}

			}
, 			{
				"patchline" : 				{
					"source" : [ "obj-18", 2 ],
					"destination" : [ "obj-6", 0 ],
					"hidden" : 0,
					"midpoints" : [ 179.177414, 438.0, 154.0, 438.0, 154.0, 484.0, 135.0, 484.0 ]
				}

			}
, 			{
				"patchline" : 				{
					"source" : [ "obj-18", 1 ],
					"destination" : [ "obj-8", 0 ],
					"hidden" : 0,
					"midpoints" : [ 166.338715, 407.0, 135.0, 407.0 ]
				}

			}
, 			{
				"patchline" : 				{
					"source" : [ "obj-10", 0 ],
					"destination" : [ "obj-11", 0 ],
					"hidden" : 0,
					"midpoints" : [  ]
				}

			}
, 			{
				"patchline" : 				{
					"source" : [ "obj-18", 0 ],
					"destination" : [ "obj-5", 0 ],
					"hidden" : 0,
					"midpoints" : [ 153.5, 404.0, 103.0, 404.0 ]
				}

			}
, 			{
				"patchline" : 				{
					"source" : [ "obj-15", 0 ],
					"destination" : [ "obj-16", 0 ],
					"hidden" : 0,
					"midpoints" : [  ]
				}

			}
, 			{
				"patchline" : 				{
					"source" : [ "obj-22", 1 ],
					"destination" : [ "obj-18", 0 ],
					"hidden" : 0,
					"midpoints" : [ 314.5, 367.0, 153.5, 367.0 ]
				}

			}
, 			{
				"patchline" : 				{
					"source" : [ "obj-20", 0 ],
					"destination" : [ "obj-22", 1 ],
					"hidden" : 0,
					"midpoints" : [  ]
				}

			}
, 			{
				"patchline" : 				{
					"source" : [ "obj-11", 0 ],
					"destination" : [ "obj-22", 0 ],
					"hidden" : 0,
					"midpoints" : [ 146.5, 236.0, 33.5, 236.0 ]
				}

			}
, 			{
				"patchline" : 				{
					"source" : [ "obj-16", 0 ],
					"destination" : [ "obj-22", 0 ],
					"hidden" : 0,
					"midpoints" : [  ]
				}

			}
, 			{
				"patchline" : 				{
					"source" : [ "obj-17", 0 ],
					"destination" : [ "obj-22", 0 ],
					"hidden" : 0,
					"midpoints" : [ 45.5, 285.0, 33.5, 285.0 ]
				}

			}
, 			{
				"patchline" : 				{
					"source" : [ "obj-35", 0 ],
					"destination" : [ "obj-22", 0 ],
					"hidden" : 0,
					"midpoints" : [ 294.5, 236.0, 255.0, 236.0, 255.0, 236.0, 32.0, 236.0, 32.0, 285.0, 33.5, 285.0 ]
				}

			}
 ]
	}

}
