{
	"patcher" : 	{
		"fileversion" : 1,
		"rect" : [ 98.0, 44.0, 458.0, 591.0 ],
		"bglocked" : 0,
		"defrect" : [ 98.0, 44.0, 458.0, 591.0 ],
		"openrect" : [ 0.0, 0.0, 0.0, 0.0 ],
		"openinpresentation" : 0,
		"default_fontsize" : 10.0,
		"default_fontface" : 0,
		"default_fontname" : "Arial",
		"gridonopen" : 0,
		"gridsize" : [ 5.0, 5.0 ],
		"gridsnaponopen" : 0,
		"toolbarvisible" : 1,
		"boxanimatetime" : 200,
		"imprint" : 0,
		"metadata" : [  ],
		"boxes" : [ 			{
				"box" : 				{
					"maxclass" : "newobj",
					"text" : "p setup",
					"numinlets" : 0,
					"patching_rect" : [ 45.0, 255.0, 43.0, 18.0 ],
					"numoutlets" : 1,
					"id" : "obj-13",
					"fontname" : "Arial",
					"outlettype" : [ "" ],
					"fontsize" : 10.0,
					"patcher" : 					{
						"fileversion" : 1,
						"rect" : [ 25.0, 69.0, 328.0, 155.0 ],
						"bglocked" : 0,
						"defrect" : [ 25.0, 69.0, 328.0, 155.0 ],
						"openrect" : [ 0.0, 0.0, 0.0, 0.0 ],
						"openinpresentation" : 0,
						"default_fontsize" : 10.0,
						"default_fontface" : 0,
						"default_fontname" : "Arial",
						"gridonopen" : 0,
						"gridsize" : [ 5.0, 5.0 ],
						"gridsnaponopen" : 0,
						"toolbarvisible" : 1,
						"boxanimatetime" : 200,
						"imprint" : 0,
						"metadata" : [  ],
						"boxes" : [ 							{
								"box" : 								{
									"maxclass" : "newobj",
									"text" : "deferlow",
									"numinlets" : 1,
									"patching_rect" : [ 20.0, 46.333336, 100.0, 18.0 ],
									"numoutlets" : 1,
									"id" : "obj-9",
									"fontname" : "Arial",
									"outlettype" : [ "" ],
									"fontsize" : 10.0
								}

							}
, 							{
								"box" : 								{
									"maxclass" : "newobj",
									"text" : "loadbang",
									"numinlets" : 1,
									"patching_rect" : [ 20.0, 20.0, 100.0, 18.0 ],
									"numoutlets" : 1,
									"id" : "obj-4",
									"fontname" : "Arial",
									"outlettype" : [ "bang" ],
									"fontsize" : 10.0
								}

							}
, 							{
								"box" : 								{
									"maxclass" : "message",
									"text" : "/numSpeakers 4, /speaker.1/position 0, /speaker.2/position 90, /speaker.3/position 180, /speaker.4/position 270",
									"linecount" : 2,
									"numinlets" : 2,
									"patching_rect" : [ 20.0, 72.333328, 265.0, 25.0 ],
									"numoutlets" : 1,
									"id" : "obj-2",
									"fontname" : "Arial",
									"outlettype" : [ "" ],
									"fontsize" : 9.0
								}

							}
, 							{
								"box" : 								{
									"maxclass" : "outlet",
									"numinlets" : 1,
									"patching_rect" : [ 20.0, 98.333328, 25.0, 25.0 ],
									"numoutlets" : 0,
									"id" : "obj-12",
									"comment" : ""
								}

							}
 ],
						"lines" : [ 							{
								"patchline" : 								{
									"source" : [ "obj-2", 0 ],
									"destination" : [ "obj-12", 0 ],
									"hidden" : 0,
									"midpoints" : [  ]
								}

							}
, 							{
								"patchline" : 								{
									"source" : [ "obj-9", 0 ],
									"destination" : [ "obj-2", 0 ],
									"hidden" : 0,
									"midpoints" : [  ]
								}

							}
, 							{
								"patchline" : 								{
									"source" : [ "obj-4", 0 ],
									"destination" : [ "obj-9", 0 ],
									"hidden" : 0,
									"midpoints" : [  ]
								}

							}
 ]
					}
,
					"saved_object_attributes" : 					{
						"default_fontface" : 0,
						"default_fontname" : "Arial",
						"fontname" : "Arial",
						"default_fontsize" : 10.0,
						"globalpatchername" : "",
						"fontface" : 0,
						"fontsize" : 10.0
					}

				}

			}
, 			{
				"box" : 				{
					"maxclass" : "message",
					"text" : "/source.1/blur 20.",
					"numinlets" : 2,
					"patching_rect" : [ 30.0, 360.0, 104.0, 16.0 ],
					"numoutlets" : 1,
					"id" : "obj-3",
					"fontname" : "Arial",
					"outlettype" : [ "" ],
					"fontsize" : 10.0
				}

			}
, 			{
				"box" : 				{
					"maxclass" : "comment",
					"text" : "jmod.sur.vbap~",
					"numinlets" : 1,
					"patching_rect" : [ 9.0, 11.0, 164.0, 28.0 ],
					"numoutlets" : 0,
					"id" : "obj-38",
					"frgb" : [ 0.933333, 0.937255, 0.968627, 1.0 ],
					"fontname" : "Verdana",
					"fontsize" : 17.334082
				}

			}
, 			{
				"box" : 				{
					"maxclass" : "comment",
					"text" : "Vector Based Amplitude Panning",
					"numinlets" : 1,
					"patching_rect" : [ 9.0, 37.0, 345.0, 19.0 ],
					"numoutlets" : 0,
					"id" : "obj-39",
					"frgb" : [ 0.933333, 0.937255, 0.968627, 1.0 ],
					"fontname" : "Verdana",
					"fontsize" : 10.0
				}

			}
, 			{
				"box" : 				{
					"maxclass" : "panel",
					"numinlets" : 1,
					"patching_rect" : [ 4.0, 7.0, 351.0, 53.0 ],
					"numoutlets" : 0,
					"id" : "obj-40",
					"rounded" : 15
				}

			}
, 			{
				"box" : 				{
					"maxclass" : "newobj",
					"text" : "p dial2VBAP",
					"numinlets" : 1,
					"patching_rect" : [ 285.0, 204.0, 67.0, 18.0 ],
					"numoutlets" : 1,
					"id" : "obj-35",
					"fontname" : "Arial",
					"outlettype" : [ "" ],
					"fontsize" : 10.0,
					"patcher" : 					{
						"fileversion" : 1,
						"rect" : [ 25.0, 69.0, 213.0, 186.0 ],
						"bglocked" : 0,
						"defrect" : [ 25.0, 69.0, 213.0, 186.0 ],
						"openrect" : [ 0.0, 0.0, 0.0, 0.0 ],
						"openinpresentation" : 0,
						"default_fontsize" : 10.0,
						"default_fontface" : 0,
						"default_fontname" : "Arial",
						"gridonopen" : 0,
						"gridsize" : [ 15.0, 15.0 ],
						"gridsnaponopen" : 0,
						"toolbarvisible" : 1,
						"boxanimatetime" : 200,
						"imprint" : 0,
						"metadata" : [  ],
						"boxes" : [ 							{
								"box" : 								{
									"maxclass" : "newobj",
									"text" : "+ 180",
									"numinlets" : 2,
									"patching_rect" : [ 54.0, 60.0, 36.0, 18.0 ],
									"numoutlets" : 1,
									"id" : "obj-4",
									"fontname" : "Arial",
									"outlettype" : [ "int" ],
									"fontsize" : 10.0
								}

							}
, 							{
								"box" : 								{
									"maxclass" : "newobj",
									"text" : "% 360",
									"numinlets" : 2,
									"patching_rect" : [ 54.0, 81.0, 39.0, 18.0 ],
									"numoutlets" : 1,
									"id" : "obj-3",
									"fontname" : "Arial",
									"outlettype" : [ "int" ],
									"fontsize" : 10.0
								}

							}
, 							{
								"box" : 								{
									"maxclass" : "newobj",
									"text" : "append 0. 0.",
									"numinlets" : 1,
									"patching_rect" : [ 54.0, 121.0, 66.0, 18.0 ],
									"numoutlets" : 1,
									"id" : "obj-32",
									"fontname" : "Arial",
									"outlettype" : [ "" ],
									"fontsize" : 10.0
								}

							}
, 							{
								"box" : 								{
									"maxclass" : "newobj",
									"text" : "prepend /source.1/position",
									"numinlets" : 1,
									"patching_rect" : [ 54.0, 100.0, 128.0, 18.0 ],
									"numoutlets" : 1,
									"id" : "obj-30",
									"fontname" : "Arial",
									"outlettype" : [ "" ],
									"fontsize" : 10.0
								}

							}
, 							{
								"box" : 								{
									"maxclass" : "inlet",
									"numinlets" : 0,
									"patching_rect" : [ 54.0, 34.0, 25.0, 25.0 ],
									"numoutlets" : 1,
									"id" : "obj-33",
									"outlettype" : [ "float" ],
									"comment" : ""
								}

							}
, 							{
								"box" : 								{
									"maxclass" : "outlet",
									"numinlets" : 1,
									"patching_rect" : [ 54.0, 143.0, 25.0, 25.0 ],
									"numoutlets" : 0,
									"id" : "obj-34",
									"comment" : ""
								}

							}
 ],
						"lines" : [ 							{
								"patchline" : 								{
									"source" : [ "obj-32", 0 ],
									"destination" : [ "obj-34", 0 ],
									"hidden" : 0,
									"midpoints" : [  ]
								}

							}
, 							{
								"patchline" : 								{
									"source" : [ "obj-4", 0 ],
									"destination" : [ "obj-3", 0 ],
									"hidden" : 0,
									"midpoints" : [  ]
								}

							}
, 							{
								"patchline" : 								{
									"source" : [ "obj-33", 0 ],
									"destination" : [ "obj-4", 0 ],
									"hidden" : 0,
									"midpoints" : [  ]
								}

							}
, 							{
								"patchline" : 								{
									"source" : [ "obj-30", 0 ],
									"destination" : [ "obj-32", 0 ],
									"hidden" : 0,
									"midpoints" : [  ]
								}

							}
, 							{
								"patchline" : 								{
									"source" : [ "obj-3", 0 ],
									"destination" : [ "obj-30", 0 ],
									"hidden" : 0,
									"midpoints" : [  ]
								}

							}
 ]
					}
,
					"saved_object_attributes" : 					{
						"default_fontface" : 0,
						"default_fontname" : "Arial",
						"fontname" : "Arial",
						"default_fontsize" : 10.0,
						"globalpatchername" : "",
						"fontface" : 0,
						"fontsize" : 10.0
					}

				}

			}
, 			{
				"box" : 				{
					"maxclass" : "dial",
					"numinlets" : 1,
					"patching_rect" : [ 285.0, 107.0, 94.0, 94.0 ],
					"numoutlets" : 1,
					"id" : "obj-27",
					"clip" : 0,
					"outlettype" : [ "float" ],
					"degrees" : 360,
					"size" : 360.0
				}

			}
, 			{
				"box" : 				{
					"maxclass" : "message",
					"text" : "/source.1/position 349 0. 0.",
					"numinlets" : 2,
					"patching_rect" : [ 299.0, 225.0, 119.0, 15.0 ],
					"numoutlets" : 1,
					"id" : "obj-1",
					"fontname" : "Arial",
					"outlettype" : [ "" ],
					"fontsize" : 9.0
				}

			}
, 			{
				"box" : 				{
					"maxclass" : "meter~",
					"bgcolor" : [ 0.403922, 0.403922, 0.403922, 1.0 ],
					"tepidcolor" : [ 0.6, 0.729412, 0.0, 1.0 ],
					"numinlets" : 1,
					"patching_rect" : [ 155.0, 400.0, 13.0, 70.0 ],
					"numoutlets" : 1,
					"id" : "obj-5",
					"coldcolor" : [ 0.0, 0.658824, 0.0, 1.0 ],
					"outlettype" : [ "float" ],
					"warmcolor" : [ 0.85098, 0.85098, 0.0, 1.0 ]
				}

			}
, 			{
				"box" : 				{
					"maxclass" : "meter~",
					"bgcolor" : [ 0.403922, 0.403922, 0.403922, 1.0 ],
					"tepidcolor" : [ 0.6, 0.729412, 0.0, 1.0 ],
					"numinlets" : 1,
					"patching_rect" : [ 155.0, 500.0, 13.0, 70.0 ],
					"numoutlets" : 1,
					"id" : "obj-6",
					"coldcolor" : [ 0.0, 0.658824, 0.0, 1.0 ],
					"outlettype" : [ "float" ],
					"warmcolor" : [ 0.85098, 0.85098, 0.0, 1.0 ]
				}

			}
, 			{
				"box" : 				{
					"maxclass" : "meter~",
					"bgcolor" : [ 0.403922, 0.403922, 0.403922, 1.0 ],
					"tepidcolor" : [ 0.6, 0.729412, 0.0, 1.0 ],
					"numinlets" : 1,
					"patching_rect" : [ 115.0, 445.0, 13.0, 70.0 ],
					"numoutlets" : 1,
					"id" : "obj-7",
					"coldcolor" : [ 0.0, 0.658824, 0.0, 1.0 ],
					"outlettype" : [ "float" ],
					"warmcolor" : [ 0.85098, 0.85098, 0.0, 1.0 ]
				}

			}
, 			{
				"box" : 				{
					"maxclass" : "meter~",
					"bgcolor" : [ 0.403922, 0.403922, 0.403922, 1.0 ],
					"tepidcolor" : [ 0.6, 0.729412, 0.0, 1.0 ],
					"numinlets" : 1,
					"patching_rect" : [ 195.0, 445.0, 13.0, 70.0 ],
					"numoutlets" : 1,
					"id" : "obj-8",
					"coldcolor" : [ 0.0, 0.658824, 0.0, 1.0 ],
					"outlettype" : [ "float" ],
					"warmcolor" : [ 0.85098, 0.85098, 0.0, 1.0 ]
				}

			}
, 			{
				"box" : 				{
					"maxclass" : "number",
					"minimum" : 0,
					"numinlets" : 1,
					"triscale" : 0.9,
					"maximum" : 20,
					"patching_rect" : [ 170.0, 189.0, 35.0, 17.0 ],
					"numoutlets" : 2,
					"id" : "obj-10",
					"fontname" : "Arial",
					"outlettype" : [ "int", "bang" ],
					"fontsize" : 9.0
				}

			}
, 			{
				"box" : 				{
					"maxclass" : "message",
					"text" : "/source.1/blur $1",
					"numinlets" : 2,
					"patching_rect" : [ 170.0, 210.0, 106.0, 15.0 ],
					"numoutlets" : 1,
					"id" : "obj-11",
					"fontname" : "Arial",
					"outlettype" : [ "" ],
					"fontsize" : 9.0
				}

			}
, 			{
				"box" : 				{
					"maxclass" : "number",
					"numinlets" : 1,
					"triscale" : 0.9,
					"patching_rect" : [ 50.0, 194.0, 35.0, 17.0 ],
					"numoutlets" : 2,
					"id" : "obj-15",
					"fontname" : "Arial",
					"outlettype" : [ "int", "bang" ],
					"fontsize" : 9.0
				}

			}
, 			{
				"box" : 				{
					"maxclass" : "message",
					"text" : "/source.1/position $1",
					"numinlets" : 2,
					"patching_rect" : [ 50.0, 215.0, 94.0, 15.0 ],
					"numoutlets" : 1,
					"id" : "obj-16",
					"fontname" : "Arial",
					"outlettype" : [ "" ],
					"fontsize" : 9.0
				}

			}
, 			{
				"box" : 				{
					"maxclass" : "newobj",
					"text" : "jcom.multi.out~",
					"numinlets" : 2,
					"patching_rect" : [ 144.0, 374.0, 75.0, 17.0 ],
					"numoutlets" : 32,
					"id" : "obj-18",
					"fontname" : "Arial",
					"outlettype" : [ "", "", "", "", "", "", "", "", "", "", "", "", "", "", "", "", "", "", "", "", "", "", "", "", "", "", "", "", "", "", "", "" ],
					"fontsize" : 9.0
				}

			}
, 			{
				"box" : 				{
					"maxclass" : "newobj",
					"text" : "pink~",
					"numinlets" : 1,
					"patching_rect" : [ 305.0, 246.0, 34.0, 17.0 ],
					"numoutlets" : 1,
					"id" : "obj-19",
					"fontname" : "Arial",
					"outlettype" : [ "signal" ],
					"fontsize" : 9.0
				}

			}
, 			{
				"box" : 				{
					"maxclass" : "newobj",
					"text" : "jcom.multi.in~",
					"numinlets" : 32,
					"patching_rect" : [ 305.0, 266.0, 75.0, 17.0 ],
					"numoutlets" : 1,
					"id" : "obj-20",
					"fontname" : "Arial",
					"outlettype" : [ "" ],
					"fontsize" : 9.0
				}

			}
, 			{
				"box" : 				{
					"maxclass" : "bpatcher",
					"varname" : "jmod.control",
					"presentation_rect" : [ 0.0, 0.0, 150.0, 70.0 ],
					"lockeddragscroll" : 1,
					"numinlets" : 1,
					"patching_rect" : [ 19.0, 105.0, 150.0, 70.0 ],
					"numoutlets" : 1,
					"id" : "obj-21",
					"name" : "jmod.control.maxpat",
					"outlettype" : [ "" ],
					"args" : [ "/control" ]
				}

			}
, 			{
				"box" : 				{
					"maxclass" : "bpatcher",
					"varname" : "jmod.sur.vbap~",
					"presentation_rect" : [ 0.0, 0.0, 300.0, 70.0 ],
					"lockeddragscroll" : 1,
					"numinlets" : 2,
					"patching_rect" : [ 24.0, 288.0, 300.0, 70.0 ],
					"numoutlets" : 2,
					"id" : "obj-22",
					"name" : "jmod.sur.vbap~.maxpat",
					"outlettype" : [ "", "" ],
					"args" : [ "/jmod.sur.vbap~" ]
				}

			}
 ],
		"lines" : [ 			{
				"patchline" : 				{
					"source" : [ "obj-15", 0 ],
					"destination" : [ "obj-16", 0 ],
					"hidden" : 0,
					"midpoints" : [  ]
				}

			}
, 			{
				"patchline" : 				{
					"source" : [ "obj-18", 0 ],
					"destination" : [ "obj-5", 0 ],
					"hidden" : 0,
					"midpoints" : [ 147.0, 399.0, 162.0, 399.0 ]
				}

			}
, 			{
				"patchline" : 				{
					"source" : [ "obj-10", 0 ],
					"destination" : [ "obj-11", 0 ],
					"hidden" : 0,
					"midpoints" : [  ]
				}

			}
, 			{
				"patchline" : 				{
					"source" : [ "obj-18", 1 ],
					"destination" : [ "obj-8", 0 ],
					"hidden" : 0,
					"midpoints" : [ 149.2258, 396.0, 202.0, 396.0 ]
				}

			}
, 			{
				"patchline" : 				{
					"source" : [ "obj-18", 2 ],
					"destination" : [ "obj-6", 0 ],
					"hidden" : 0,
					"midpoints" : [ 151.451614, 404.0, 162.0, 404.0 ]
				}

			}
, 			{
				"patchline" : 				{
					"source" : [ "obj-18", 3 ],
					"destination" : [ "obj-7", 0 ],
					"hidden" : 0,
					"midpoints" : [ 153.677414, 407.0, 122.0, 407.0 ]
				}

			}
, 			{
				"patchline" : 				{
					"source" : [ "obj-19", 0 ],
					"destination" : [ "obj-20", 0 ],
					"hidden" : 0,
					"midpoints" : [  ]
				}

			}
, 			{
				"patchline" : 				{
					"source" : [ "obj-35", 0 ],
					"destination" : [ "obj-1", 1 ],
					"hidden" : 0,
					"midpoints" : [ 294.5, 222.0, 408.5, 222.0 ]
				}

			}
, 			{
				"patchline" : 				{
					"source" : [ "obj-27", 0 ],
					"destination" : [ "obj-35", 0 ],
					"hidden" : 0,
					"midpoints" : [  ]
				}

			}
, 			{
				"patchline" : 				{
					"source" : [ "obj-22", 1 ],
					"destination" : [ "obj-18", 0 ],
					"hidden" : 0,
					"midpoints" : [ 314.5, 367.0, 153.5, 367.0 ]
				}

			}
, 			{
				"patchline" : 				{
					"source" : [ "obj-20", 0 ],
					"destination" : [ "obj-22", 1 ],
					"hidden" : 0,
					"midpoints" : [  ]
				}

			}
, 			{
				"patchline" : 				{
					"source" : [ "obj-11", 0 ],
					"destination" : [ "obj-22", 0 ],
					"hidden" : 0,
					"midpoints" : [ 179.5, 236.0, 33.5, 236.0 ]
				}

			}
, 			{
				"patchline" : 				{
					"source" : [ "obj-16", 0 ],
					"destination" : [ "obj-22", 0 ],
					"hidden" : 0,
					"midpoints" : [ 59.5, 236.0, 30.0, 236.0, 30.0, 285.0, 33.5, 285.0 ]
				}

			}
, 			{
				"patchline" : 				{
					"source" : [ "obj-35", 0 ],
					"destination" : [ "obj-22", 0 ],
					"hidden" : 0,
					"midpoints" : [ 294.5, 236.0, 255.0, 236.0, 255.0, 236.0, 32.0, 236.0, 32.0, 285.0, 33.5, 285.0 ]
				}

			}
, 			{
				"patchline" : 				{
					"source" : [ "obj-22", 0 ],
					"destination" : [ "obj-3", 1 ],
					"hidden" : 0,
					"midpoints" : [  ]
				}

			}
, 			{
				"patchline" : 				{
					"source" : [ "obj-13", 0 ],
					"destination" : [ "obj-22", 0 ],
					"hidden" : 0,
					"midpoints" : [  ]
				}

			}
 ]
	}

}
