max v2;#N vpatcher 150 97 1071 608;#P origin 0 -21;#P window setfont "Sans Serif" 9.;#P window linecount 1;#P hidden message 171 145 191 196617 /preset/store 1 default \, /preset/write;#P newex 153 214 43 196617 jcom.in;#P window linecount 2;#P hidden newex 462 156 382 196617 jcom.parameter destination/voices @repetitions 0 @type msg_int @range 1 16 @range/clipmode both @description "Number of speakers that signals are distributed to.";#P objectname destination/voices;#P window linecount 1;#P hidden newex 462 131 113 196617 pvar DestinationVoices;#P window linecount 2;#P hidden newex 464 355 325 196617 jcom.message source/spread @type msg_list @description "List describing spreading of the nth virtual source: index\\\, spread.";#P hidden newex 464 437 342 196617 jcom.message destination/aed @type msg_list "List describing position of nth loudspeaker: index\\\, azimuth\\\, elevation\\\, distance.";#P number 123 39 35 9 1 16 8227 3 198 198 198 221 221 221 222 222 222 0 0 0;#P objectname DestinationVoices;#P window linecount 1;#P comment 76 42 44 196617 Voices;#B frgb 172 172 172;#P comment 6 42 64 196617 Destination:;#B frgb 172 172 172;#P comment 6 22 44 196617 Source:;#B frgb 172 172 172;#P hidden inlet 366 266 15 0;#P window linecount 2;#P hidden newex 464 397 377 196617 jcom.message source/aed @type msg_list @description "List describing position of nth virual source: index\\\, azimuth\\\, elevation\\\, distance.";#P window linecount 1;#P hidden newex 464 243 101 196617 pvar DestinationDim;#P window linecount 3;#P hidden newex 464 263 292 196617 jcom.parameter destination/dimensions @repetitions 0 @type msg_int @range 2 3 @range/clipmode both @description "Dimension of the loudspeaker setup (2D or 3D).";#P objectname destination/dimensions;#P window linecount 1;#P hidden newex 152 236 78 196617 jcom.pass open;#P hidden newex 152 258 47 196617 pcontrol;#P hidden message 220 321 20 196617 \$2;#P hidden newex 220 298 59 196617 route mute;#P hidden newex 220 341 38 196617 mute~;#N comlet W - omni;#P hidden outlet 280 458 13 0;#P hidden newex 280 383 96 196617 jalg.sur.vbap~;#P number 217 40 35 9 2 3 8227 3 198 198 198 221 221 221 222 222 222 0 0 0;#P objectname DestinationDim;#P comment 156 42 60 196617 Dimensions;#B frgb 172 172 172;#P hidden message 36 144 125 196617 /documentation/generate;#P window linecount 2;#P hidden message 14 461 65 196617 \; max refresh;#P hidden message 14 424 75 196617 \; jcom.init bang;#P window linecount 1;#P comment 77 22 44 196617 Voices;#B frgb 172 172 172;#P number 123 21 35 9 1 16 8227 3 198 198 198 221 221 221 222 222 222 0 0 0;#P objectname SourceVoices;#P hidden newex 462 57 94 196617 pvar SourceVoices;#P window linecount 2;#P hidden newex 14 169 387 196617 jcom.hub jmod.sur.vbap~ @size 1U-half @module_type audio.no_panel @description "Vector based amplitude panning (VBAP) of multiple sources for multiple speakers.";#P objectname jcom.hub;#P hidden inlet 14 145 13 0;#P hidden outlet 14 371 13 0;#P hidden newex 462 77 349 196617 jcom.parameter source/voices @repetitions 0 @type msg_int @range 1 16 @range/clipmode both @description "Number of incomming mono sources to pan.";#P objectname source/voices;#P bpatcher 0 0 255 60 0 0 jcom.gui 0;#P objectname jcom.gui.1Uh.a.stereo;#P connect 33 0 4 0;#P hidden fasten 10 0 4 0 41 163 19 163;#P hidden connect 3 0 4 0;#P hidden connect 4 0 2 0;#P connect 32 0 19 0;#P hidden connect 19 0 18 0;#P hidden connect 19 1 16 0;#P hidden connect 16 0 17 0;#P hidden connect 17 0 15 0;#P hidden connect 16 1 13 0;#P hidden fasten 18 0 13 0 157 280 285 280;#P hidden connect 15 0 13 0;#P connect 13 0 14 0;#P connect 23 0 13 1;#P hidden fasten 1 0 5 0 467 110 455 110 455 52 467 52;#P hidden connect 5 0 1 0;#P hidden fasten 31 0 30 0 467 192 455 192 455 125 467 125;#P hidden connect 30 0 31 0;#P hidden fasten 20 0 21 0 469 310 457 310 457 238 469 238;#P hidden connect 21 0 20 0;#P pop;