max v2;#N vpatcher 408 221 1106 695;#P outlet 569 421 15 0;#P window setfont "Sans Serif" 9.;#P window linecount 1;#P newex 204 117 72 196617 append 0 -1 2;#P newex 203 97 78 196617 prepend import;#P outlet 475 424 15 0;#P newex 158 310 142 196617 prepend /sample/buffername;#P message 158 261 136 196617 $0_sample 1;#N vpatcher 10 59 610 459;#P window setfont "Sans Serif" 9.;#P message 104 75 29 196617 stop;#P newex 50 50 41 196617 sel 1 0;#P message 50 75 51 196617 startloop;#P inlet 50 30 15 0;#P outlet 50 167 15 0;#P connect 1 0 3 0;#P connect 3 0 2 0;#P connect 4 0 0 0;#P connect 2 0 0 0;#P fasten 3 1 4 0 70 71 109 71;#P pop;#P newobj 490 131 37 196617 p play;#P newex 305 308 109 196617 prepend /sample/size;#P outlet 416 421 15 0;#P newex 416 308 114 196617 prepend /sample/name;#P newex 305 286 26 196617 int;#P newex 254 187 105 196617 info~ $0_sample;#P newex 540 100 134 196617 jcom.oscroute /start /stop;#P inlet 340 37 15 0;#P outlet 520 423 15 0;#P newex 530 131 104 196617 loadmess loopinterp 1;#P message 440 132 43 196617 loop \$1;#P newex 541 183 35 196617 sig~ 1;#P newex 520 233 109 196617 groove~ $0_sample 2;#P message 132 85 72 196617 import 0 -1 2;#P newex 132 166 133 196617 buffer~ $0_sample 1000 2;#P newex 340 60 261 196617 jcom.oscroute /sf_open /load_file /loop /play /sample;#P newex 416 244 51 196617 tosymbol;#P newex 204 140 151 196617 print jmod.sampleplayer~.mxt:;#P fasten 2 0 4 0 345 82 137 82;#P connect 22 0 3 0;#P connect 4 0 3 0;#P connect 3 1 18 0;#P connect 18 0 19 0;#P fasten 2 1 21 0 395 94 208 94;#P connect 21 0 22 0;#P connect 22 0 0 0;#P connect 3 1 12 0;#P fasten 12 6 13 0 337 281 310 281;#P connect 13 0 16 0;#P connect 10 0 2 0;#P fasten 12 7 1 0 350 240 421 240;#P connect 1 0 14 0;#P connect 16 0 15 0;#P connect 14 0 15 0;#P connect 19 0 15 0;#P connect 2 2 7 0;#P connect 18 0 20 0;#P connect 2 3 17 0;#P connect 8 0 5 0;#P connect 6 0 5 0;#P fasten 7 0 5 0 445 212 525 212;#P connect 17 0 5 0;#P fasten 5 0 9 0 525 261 525 261;#P connect 2 4 11 0;#P connect 11 0 5 1;#P connect 5 1 23 0;#P connect 11 1 5 2;#P pop;