max v2;#N vpatcher 408 221 1106 695;#P window setfont "Sans Serif" 9.;#P window linecount 1;#P newex 194 145 71 196617 print sampler;#P newex 205 115 72 196617 append 0 -1 1;#P newex 203 97 71 196617 prepend read;#P outlet 617 416 15 0;#P newex 158 310 142 196617 prepend /sample/buffername;#P message 158 286 136 196617 $0_sample 1;#N vpatcher 10 59 610 459;#P window setfont "Sans Serif" 9.;#P message 104 75 29 196617 stop;#P newex 50 50 41 196617 sel 1 0;#P message 50 75 51 196617 startloop;#P inlet 50 30 15 0;#P outlet 50 167 15 0;#P connect 1 0 3 0;#P connect 3 0 2 0;#P connect 2 0 0 0;#P connect 4 0 0 0;#P fasten 3 1 4 0 70 71 109 71;#P pop;#P newobj 490 131 37 196617 p play;#P newex 305 308 109 196617 prepend /sample/size;#P outlet 416 421 15 0;#P newex 416 308 114 196617 prepend /sample/name;#P newex 305 286 26 196617 int;#P newex 246 188 105 196617 info~ $0_sample;#P newex 540 100 134 196617 jcom.oscroute /start /stop;#P inlet 340 37 15 0;#P outlet 537 421 15 0;#P newex 530 131 104 196617 loadmess loopinterp 1;#P message 440 132 43 196617 loop \$1;#P newex 557 169 35 196617 sig~ 1;#P newex 513 232 100 196617 groove~ $0_sample;#P message 132 91 62 196617 read 0 -1 1;#P newex 132 166 124 196617 buffer~ $0_sample 1000;#P newex 340 60 261 196617 jcom.oscroute /sf_open /load_file /loop /play /sample;#P newex 416 244 51 196617 tosymbol;#P fasten 1 0 3 0 345 82 137 82;#P connect 21 0 2 0;#P connect 3 0 2 0;#P connect 2 1 17 0;#P connect 17 0 18 0;#P connect 21 0 22 0;#P fasten 1 1 20 0 395 94 208 94;#P connect 20 0 21 0;#P connect 2 1 11 0;#P fasten 11 6 12 0 329 281 310 281;#P connect 12 0 15 0;#P connect 9 0 1 0;#P fasten 11 7 0 0 342 240 421 240;#P connect 0 0 13 0;#P connect 18 0 14 0;#P connect 13 0 14 0;#P connect 15 0 14 0;#P connect 1 2 6 0;#P connect 1 3 16 0;#P connect 7 0 4 0;#P connect 5 0 4 0;#P fasten 6 0 4 0 445 212 518 212;#P connect 16 0 4 0;#P fasten 4 0 8 0 518 261 542 261;#P connect 1 4 10 0;#P connect 10 0 4 1;#P connect 10 1 4 2;#P connect 17 0 19 0;#P pop;