max v2;#N vpatcher 118 66 1067 750;#P origin -8 -352;#P window setfont "Sans Serif" 9.;#P window linecount 1;#P hidden newex 495 185 87 196617 r $0__xxx_done;#B color 14;#P hidden newex 540 615 92 196617 pvar speed_toggle;#B color 7;#P hidden newex 539 595 418 196617 jcom.parameter speed/active @type msg_toggle @description "turn on/off vari-speed.";#B color 2;#P objectname speed/active;#P user radiogroup 141 38 42 16;#X size 1;#X offset 16;#X inactive 0;#X itemtype 1;#X flagmode 0;#X set 0;#X done;#P objectname speed_toggle;#P comment 158 40 33 196617 speed;#B frgb 181 181 181;#P flonum 191 39 36 9 0 90. 8226 3 181 181 181 221 221 221 255 255 255 0 0 0;#P objectname speed;#P hidden newex 539 530 59 196617 pvar speed;#B color 7;#P window linecount 2;#P newex 539 550 327 196617 jcom.parameter speed/ratio @type msg_float @range 0. 2. @clipmode low @description "whether sample is played forward or backward";#P objectname speed/ratio;#P window linecount 1;#P hidden newex 537 461 71 196617 pvar Reverse;#B color 7;#P window linecount 2;#P newex 537 481 267 196617 jcom.parameter reverse @type msg_toggle @description "whether sample is played forward or backward";#P objectname reverse;#P user jsui 92 36 48 19 1 0 0 jcom.jsui_texttoggle.js Reverse Reverse 68 68 68 225 225 225 121 255 15;#P objectname Reverse;#P outlet 464 510 14 0;#P window linecount 1;#P hidden newex 47 152 62 196617 prepend set;#P hidden newex 144 153 62 196617 prepend set;#P newex 331 45 50 196617 deferlow;#P message 332 65 199 196617 set drag soundfile into the waveform field;#P newex 331 24 48 196617 loadbang;#P newex 15 195 89 196617 prepend /sf_open;#P hidden newex 242 153 62 196617 prepend set;#P hidden newex 494 414 254 196617 jcom.message sample/buffername @type msg_symbol;#B color 2;#P objectname sample/buffername;#P hidden newex 420 404 47 196617 pcontrol;#P hidden newex 287 380 143 196617 jcom.algorithm_control~.mxt;#P hidden newex 46 132 305 196617 jcom.oscroute /sample/start /sample/stop /sample/buffername;#P message 4 21 202 196617 drag soundfile into the waveform field;#P objectname name_symbol;#P hidden newex 496 385 89 196617 pvar sample_size;#B color 7;#P hidden newex 495 366 396 196617 jcom.message sample/size @type msg_int @description "size of the loaded soundfile";#B color 2;#P objectname loop[2];#P hidden newex 493 333 95 196617 pvar name_symbol;#B color 7;#P hidden newex 493 314 436 196617 jcom.message sample/name @type msg_symbol @description "name of the loaded soundfile";#B color 2;#P objectname sample/name;#P user radiogroup 208 21 42 16;#X size 1;#X offset 16;#X inactive 0;#X itemtype 1;#X flagmode 0;#X set 0;#X done;#P objectname Loop_toggle;#P comment 222 22 29 196617 loop;#B frgb 181 181 181;#P window setfont "Sans Serif" 12.;#P hidden comment 437 149 39 196620 open;#B color 7;#P hidden comment 441 272 39 196620 loop;#B color 7;#P hidden comment 437 217 39 196620 play;#B color 7;#P window setfont "Sans Serif" 9.;#P hidden newex 495 284 85 196617 pvar Loop_toggle;#B color 7;#P hidden newex 495 230 85 196617 pvar Play_button;#B color 7;#P hidden newex 495 209 392 196617 jcom.message play @type msg_toggle @repetitions 0 @description "Play sound file.";#B color 2;#P objectname play;#P hidden newex 495 263 335 196617 jcom.parameter loop @type msg_toggle @description "Loop soundfile.";#B color 2;#P objectname loop;#P hidden newex 492 126 88 196617 pvar Open_button;#B color 7;#P window linecount 2;#P hidden newex 493 146 394 196617 jcom.message sf_open @type msg_symbol @description "Open sound file specified by filename. Without a filename a standard open file dialog allows you to choose a file.";#B color 2;#P objectname jcom.parameter.mxb[10];#P user jsui 48 36 45 19 1 0 0 jcom.jsui_texttoggle.js Play Play 68 68 68 225 225 225 121 255 15;#P objectname Play_button;#P user jsui 4 36 45 19 1 0 0 jsui_textbutton.js Open 225 225 225 68 68 68;#P objectname Open_button;#P window linecount 1;#P hidden newex 146 399 47 196617 pcontrol;#P hidden newex 146 379 37 196617 t open;#P hidden newex 146 357 151 196617 jcom.oscroute /open_inspector;#N vpatcher 271 374 801 552;#P origin 23 59;#P window setfont "Sans Serif" 9.;#P window linecount 1;#P hidden message 178 154 246 196617 window flags nogrow \, savewindow 1 \, window exec;#P hidden message 426 153 316 196617 window flags grow \, window exec;#P inlet 880 -13 15 0;#P inlet 770 -17 15 0;#P button 417 510 15 0;#P window linecount 0;#P newex 424 532 44 196617 del 200;#P window linecount 1;#P hidden newex 159 -29 88 196617 bgcolor 80 80 80;#P hidden button 423 554 15 0;#P objectname bang_selectall;#P newex 194 571 98 196617 pvar bang_selectall;#P newex -23 612 62 196617 prepend set;#P newex 100 429 73 196617 prepend /play;#P hidden newex 209 475 193 196617 jcom.oscroute /size /name /buffername;#P outlet 99 453 15 0;#P newex 99 408 88 196617 pvar Play_button;#P user jsui 23 132 45 19 1 0 0 jcom.jsui_texttoggle.js Play Play 204 204 204 0 0 0 121 255 15;#P objectname Play_button;#P hidden message -10 21 30 196617 undo;#P user jsui 467 22 45 19 1 0 0 jsui_textbutton.js "Select all";#P objectname Open_button[1];#P user jsui 22 22 45 19 1 0 0 jsui_textbutton.js Undo;#P objectname Open_button;#P newex 261 503 62 196617 prepend set;#P hidden button 536 4 15 0;#P hidden number 76 -34 35 9 0 0 0 3 0 0 0 221 221 221 222 222 222 0 0 0;#P objectname sample_size2;#P newex 261 523 100 196617 pvar sample_name2;#P newex 209 549 95 196617 pvar sample_size2;#P newex 89 497 73 196617 print openinsp;#P hidden message -18 -13 54 196617 vzoom \$1;#P hidden newex -18 -35 93 196617 pvar verticalzoom;#P window setfont "Sans Serif" 12.;#P comment 790 334 88 196620 display start;#P window setfont "Sans Serif" 9.;#P hidden newex 689 334 93 196617 pvar verticalzoom;#P window linecount 2;#P hidden newex 689 355 304 196617 jcom.parameter sample/vzoom @type msg_float @clipmode non @description @repetitions 0 @ramp/drive none "set vertical zoom";#P objectname sample/vzoom;#P flonum 456 136 49 9 0. 0 1 3 0 0 0 221 221 221 222 222 222 0 0 0;#P objectname verticalzoom;#P window linecount 1;#P comment 368 136 85 196617 set vertical zoom;#P message 22 8 490 196617 drag;#P objectname sample_name2;#P hidden newex 423 216 97 196617 pvar display_range;#P window setfont "Sans Serif" 12.;#P comment 790 273 88 196620 display start;#P window setfont "Sans Serif" 9.;#P hidden newex 689 274 97 196617 pvar display_range;#P window linecount 2;#P hidden newex 689 294 318 196617 jcom.parameter sample/displaystart @type msg_list @clipmode non @description @repetitions 0 @ramp/drive none "display start  time in ms";#P objectname sample/displaystart[1];#P window linecount 1;#P hidden message 76 -16 43 196617 size \$1;#P hidden newex 455 277 31 196617 * -1;#P hidden newex 424 236 58 196617 unpack 0 0;#P hidden newex 455 257 27 196617 -;#P hidden newex 455 297 93 196617 pvar displaylength;#P hidden newex 424 317 95 196617 pvar display_start;#P user rslider 66 21 402 20 74313 1 0 0 1;#P objectname display_range;#P comment 82 136 63 196617 display start;#P flonum 147 136 49 9 0. 0 1 3 0 0 0 221 221 221 222 222 222 0 0 0;#P objectname display_start;#P window setfont "Sans Serif" 12.;#P comment 783 206 88 196620 display start;#P window setfont "Sans Serif" 9.;#P hidden newex 682 207 95 196617 pvar display_start;#P window linecount 2;#P hidden newex 682 227 392 196617 jcom.parameter sample/displaystart @type msg_float @range 0. 1000000. @clipmode low @description @repetitions 0 @ramp/drive none "display start  time in ms";#P objectname sample/displaystart;#P window setfont "Sans Serif" 12.;#P window linecount 1;#P comment 783 139 88 196620 display length;#P window setfont "Sans Serif" 9.;#P hidden newex 682 140 93 196617 pvar displaylength;#P window linecount 2;#P hidden newex 682 160 370 196617 jcom.parameter sample/displaylength @type msg_float @range 0. 1000000. @clipmode low @description @repetitions 0 @ramp/drive none "display length in ms";#P objectname sample/displaylength;#P window linecount 1;#P comment 76 154 69 196617 display length;#P flonum 147 153 49 9 0. 0 1 3 0 0 0 221 221 221 222 222 222 0 0 0;#P objectname displaylength;#P window setfont "Sans Serif" 12.;#P comment 777 74 73 196620 stoptime;#P window setfont "Sans Serif" 9.;#P hidden message 536 22 51 196617 0 -1 0 -1;#P comment 223 153 68 196617 select end ms;#P comment 216 136 75 196617 select start ms;#P flonum 293 152 49 9 0. 0 1 3 0 0 0 221 221 221 222 222 222 0 0 0;#P objectname excerpt_end;#P flonum 293 136 49 9 0. 0 1 3 0 0 0 221 221 221 222 222 222 0 0 0;#P objectname excerpt_start;#P user waveform~ 22 40 490 93 3 9;#W mode move;#W mouseoutput continuous;#W clipdraw 1;#W unit ms;#W grid 500.;#W ticks 8;#W labels 1;#W vlabels 1;#W vticks 1;#W vzoom 0.69;#W bpm 120. 4.;#W frgb 149 149 149;#W brgb 33 33 33;#W rgb2 66 0 2;#W rgb3 0 0 0;#W rgb4 0 0 0;#W rgb5 169 165 207;#W rgb6 108 108 108;#W rgb7 78 74 220;#P user pictslider 3 57 19 76 0 0 0 0 wfknob.pct 1 wfmodes.pct 1 2146 0 0 196608 1. 1.;#N vpatcher 40 55 278 404;#P window setfont "Sans Serif" 9.;#P newex 96 202 27 196617 int;#N coll ;#T flags 1 0;#T 0 mode select;#T 1 mode loop;#T 2 mode move;#T 3 mode draw;#P newobj 131 255 53 196617 coll;#P button 75 117 15 0;#N comlet waveform~ mode messages;#P inlet 74 164 15 0;#P newex 113 88 27 196617 << 1;#P newex 96 140 40 196617 change;#P newex 96 164 45 196617 select 0;#P newex 96 117 27 196617 |;#P outlet 131 284 15 0;#P newex 45 62 78 196617 modifiers 100;#P connect 5 0 7 0;#P connect 7 0 2 0;#P connect 0 3 2 0;#P connect 2 0 4 0;#P connect 4 0 3 0;#P connect 6 0 9 0;#P connect 3 0 9 0;#P connect 0 4 5 0;#P connect 5 0 2 1;#P connect 3 1 8 0;#P connect 9 0 8 0;#P connect 8 0 1 0;#P pop;#P hidden newobj -27 150 50 196617 p wfkeys;#P hidden newex 681 73 90 196617 pvar excerpt_end;#P hidden newex 680 12 98 196617 pvar excerpt_start;#P window linecount 2;#P hidden newex 681 97 370 196617 jcom.parameter sample/stop @type msg_float @range 0. 1000000. @clipmode low @description "stoptime time in ms" @repetitions 0 @ramp/drive scheduler;#P objectname sample/stop;#P window linecount 1;#P hidden newex 56 520 146 196617 loadmess patcher edit the loop;#P hidden newex 45 498 40 196617 t front;#P hidden newex 31 388 219 196617 jcom.oscroute /open_inspector /play /sample;#P hidden inlet 31 361 15 0;#N thispatcher;#Q window flags nogrow close zoom nofloat;#Q window size 271 374 801 552;#Q window title;#Q window exec;#Q savewindow 1;#Q end;#P hidden newobj 56 540 61 196617 thispatcher;#P window setfont "Sans Serif" 12.;#P comment 779 10 73 196620 starttime;#P window setfont "Sans Serif" 9.;#P window linecount 2;#P hidden newex 680 34 374 196617 jcom.parameter sample/start @type msg_float @range 0. 1000000. @clipmode low @description "start time in ms" @repetitions 0 @ramp/drive scheduler;#P objectname sample/start;#P hidden connect 11 1 10 0;#P connect 60 2 62 0;#P hidden connect 46 0 47 0;#P hidden connect 54 0 56 0;#P hidden connect 24 0 12 0;#P hidden connect 56 0 12 0;#P hidden fasten 47 0 12 0 -13 40 27 40;#P hidden connect 10 0 12 0;#P hidden fasten 62 0 12 0 -18 191 -35 191 -35 46;#P connect 3 0 4 0;#P hidden connect 4 0 5 0;#P hidden connect 70 0 2 0;#P hidden connect 71 0 2 0;#P connect 6 0 2 0;#P hidden connect 5 0 2 0;#P hidden connect 35 0 29 0;#P hidden connect 51 0 35 0;#P connect 4 0 48 0;#P connect 4 1 58 0;#P connect 61 0 59 0;#P connect 58 0 61 0;#P hidden connect 21 0 12 1;#P connect 60 0 63 0;#P connect 4 2 60 0;#P fasten 60 0 49 0 214 494 214 494;#P connect 60 1 53 0;#P connect 53 0 50 0;#P hidden connect 0 0 12 2;#P hidden connect 7 0 12 3;#P connect 60 1 67 0;#P connect 66 0 64 0;#P hidden connect 39 0 33 0;#P hidden connect 33 0 30 0;#P connect 67 0 66 0;#P hidden connect 33 0 32 0;#P hidden connect 32 0 34 0;#P connect 34 0 31 0;#P hidden connect 33 1 32 1;#P hidden connect 17 0 12 4;#P hidden connect 55 0 52 0;#P hidden connect 52 0 17 0;#P hidden connect 64 0 17 0;#P hidden fasten 0 0 8 0 685 63 676 63 676 7 685 7;#P connect 68 0 0 0;#P hidden connect 8 0 0 0;#P hidden connect 12 2 0 0;#P hidden fasten 7 0 9 0 686 133 677 133 677 70 686 70;#P connect 69 0 7 0;#P hidden connect 12 3 7 0;#P hidden connect 9 0 7 0;#P hidden fasten 21 0 22 0 687 200 678 200 678 137 687 137;#P hidden connect 22 0 21 0;#P hidden connect 12 1 21 0;#P hidden fasten 24 0 25 0 687 267 678 267 678 204 687 204;#P hidden connect 25 0 24 0;#P hidden connect 12 0 24 0;#P hidden fasten 36 0 37 0 694 326 685 326 685 271 694 271;#P hidden connect 37 0 36 0;#P hidden fasten 43 0 44 0 694 387 685 387 685 332 694 332;#P hidden connect 44 0 43 0;#P pop;#P hidden newobj 146 525 60 196617 p inspector;#P objectname inspector;#P user waveform~ 4 58 247 43 3 9;#W mode select;#W mouseoutput continuous;#W clipdraw 1;#W unit ms;#W grid 500.;#W ticks 8;#W labels 1;#W vlabels 0;#W vticks 0;#W vzoom 0.5;#W bpm 120. 4.;#W frgb 149 149 149;#W brgb 80 80 80;#W rgb2 66 0 2;#W rgb3 0 0 0;#W rgb4 0 0 0;#W rgb5 141 141 141;#W rgb6 108 108 108;#W rgb7 78 74 220;#P message 126 199 191 196617 /preset/store 1 default \, /preset/write;#B color 3;#P newex 427 473 85 196617 jcom.out~ 2;#P newex 146 335 49 196617 jcom.in~;#P message 134 221 125 196617 /documentation/generate;#B color 3;#P window linecount 2;#P newex 36 258 351 196617 jcom.hub jmod.sampleplayer~ @size 2U-half @module_type audio.ambisonic @inspector 1 @description "simple monophonic sampleplayer";#P objectname jcom.hub;#P window linecount 1;#P comment 50 222 79 196617 command input;#P inlet 36 222 13 0;#P message 265 221 31 196617 /init;#P inlet 146 317 13 0;#P outlet 427 510 14 0;#P newex 374 445 139 196617 jalg.sampleplayer~.mxt $0_;#P outlet 36 298 13 0;#P comment 401 524 100 196617 ---signal output---;#P user dropfile 5 59 248 101 0;#P bpatcher 0 0 255 118 0 0 jcom.gui.mxt 0 $0_;#P objectname jmod.gui.1Uh.a.stereo.mxt;#P hidden connect 45 0 37 0;#P hidden fasten 42 0 15 0 247 177 9 177;#P hidden connect 1 0 43 0;#P lcolor 15;#P fasten 4 0 10 0 379 557 8 557 8 243 41 243;#P fasten 16 0 10 0 151 557 8 557 8 242 41 242;#P fasten 7 0 10 0 270 243 41 243;#P fasten 11 0 10 0 139 242 41 242;#P connect 8 0 10 0;#P fasten 14 0 10 0 131 242 41 242;#P connect 43 0 10 0;#P connect 10 0 3 0;#P hidden connect 39 0 38 0;#P hidden connect 38 0 48 0;#P hidden connect 48 0 15 2;#P hidden connect 38 1 47 0;#P connect 6 0 12 0;#P connect 12 0 17 0;#P hidden connect 17 0 18 0;#P connect 18 0 19 0;#P fasten 39 0 16 0 292 461 151 461;#P connect 19 0 16 0;#P hidden connect 15 2 16 1;#P hidden connect 47 0 15 3;#P hidden connect 15 3 16 2;#P hidden connect 38 2 42 0;#P fasten 17 1 39 0 292 377 292 377;#P connect 44 0 46 0;#P connect 46 0 45 0;#P fasten 40 0 4 0 425 431 379 431;#P fasten 39 0 4 0 292 419 379 419;#P hidden connect 39 1 40 0;#P connect 4 1 13 0;#P connect 13 0 5 0;#P connect 13 1 49 0;#P connect 23 0 22 0;#P connect 33 0 34 0;#P connect 60 0 25 0;#P fasten 26 0 25 0 500 253 490 253 490 206 500 206;#P hidden connect 25 0 26 0;#P hidden fasten 27 0 24 0 500 305 492 305 492 259 500 259;#P hidden connect 24 0 27 0;#P hidden fasten 36 0 35 0 501 406 488 406 488 361 500 361;#P hidden connect 35 0 36 0;#P connect 4 2 13 1;#P fasten 51 0 52 0 542 517 534 517 534 457 542 457;#P connect 52 0 51 0;#P fasten 53 0 54 0 544 585 536 585 536 524 544 524;#P connect 54 0 53 0;#P fasten 59 0 58 0 545 635 536 635 536 589 544 589;#P hidden connect 58 0 59 0;#P pop;