max v2;#N vpatcher 375 89 1209 692;#P origin -7 -270;#P window setfont "Sans Serif" 9.;#P window linecount 1;#P hidden newex 495 440 395 196617 jcom.parameter load_file @type msg_symbol @description "load a specific soundfile";#B color 2;#P objectname sample/name[1];#P hidden newex 242 155 62 196617 prepend set;#P hidden newex 494 416 254 196617 jcom.message sample/buffername @type msg_symbol;#B color 2;#P objectname sample/buffername;#P hidden newex 420 406 47 196617 pcontrol;#P hidden newex 287 382 143 196617 jcom.algorithm_control~.mxt;#P hidden newex 46 134 305 196617 jcom.oscroute /sample/start /sample/stop /sample/buffername;#P message 4 22 203 196617 0;#P objectname name_symbol;#P hidden newex 496 387 89 196617 pvar sample_size;#B color 7;#P hidden newex 495 368 396 196617 jcom.message sample/size @type msg_int @description "size of the loaded soundfile";#B color 2;#P objectname loop[2];#P hidden newex 493 338 95 196617 pvar name_symbol;#B color 7;#P hidden newex 493 315 438 196617 jcom.parameter sample/name @type msg_symbol @description "name of the loaded soundfile";#B color 2;#P objectname sample/name;#P user radiogroup 209 23 42 16;#X size 1;#X offset 16;#X inactive 0;#X itemtype 1;#X flagmode 0;#X set 0;#X done;#P objectname Loop_toggle;#P comment 222 25 29 196617 loop;#B frgb 181 181 181;#P hidden message 496 148 14 196617 1;#P hidden message 496 91 14 196617 1;#P window setfont "Sans Serif" 12.;#P hidden comment 440 103 39 196620 open;#B color 7;#P window setfont "Sans Serif" 9.;#P hidden newex 520 187 80 196617 r $0_xxx_done;#B color 14;#P window setfont "Sans Serif" 12.;#P hidden comment 441 274 39 196620 loop;#B color 7;#P hidden comment 437 219 39 196620 play;#B color 7;#P window setfont "Sans Serif" 9.;#P hidden newex 495 286 85 196617 pvar Loop_toggle;#B color 7;#P hidden newex 495 232 85 196617 pvar Play_button;#B color 7;#P hidden newex 495 211 401 196617 jcom.parameter play @type msg_toggle @repetitions 0 @description "Play sound file.";#B color 2;#P objectname play;#P hidden newex 495 265 335 196617 jcom.parameter loop @type msg_toggle @description "Loop soundfile.";#B color 2;#P objectname loop;#P hidden newex 512 147 99 196617 pvar Record_button;#B color 7;#P hidden newex 495 166 345 196617 jcom.message sf_record @type msg_int @description "Record sound file.";#B color 2;#P objectname jcom.parameter.mxb[1];#P user jsui 92 38 45 19 1 0 0 jcom.jsui_texttoggle.js Record Record 204 204 204 0 0 0 121 255 15;#P objectname Record_button;#P hidden newex 516 90 88 196617 pvar Open_button;#B color 7;#P hidden newex 497 110 181 196617 jcom.message sf_open @type msg_int;#B color 2;#P objectname jcom.parameter.mxb[10];#P user jsui 48 38 45 19 1 0 0 jcom.jsui_texttoggle.js Play Play 204 204 204 0 0 0 121 255 15;#P objectname Play_button;#P user jsui 4 38 45 19 1 0 0 jsui_textbutton.js Open;#P objectname Open_button;#P hidden newex 146 401 47 196617 pcontrol;#P hidden newex 146 381 37 196617 t open;#P hidden newex 146 359 151 196617 jcom.oscroute /open_inspector;#N vpatcher 565 201 1127 454;#P origin 4 42;#P button 436 527 15 0;#P window setfont "Sans Serif" 9.;#P window linecount 0;#P newex 443 549 44 196617 del 200;#P window linecount 1;#P hidden newex 178 -12 88 196617 bgcolor 80 80 80;#P hidden button 442 571 15 0;#P objectname bang_selectall;#P newex 213 588 98 196617 pvar bang_selectall;#P newex -4 629 62 196617 prepend set;#P newex 119 446 73 196617 prepend /play;#P hidden newex 228 492 193 196617 jcom.oscroute /size /name /buffername;#P outlet 118 470 15 0;#P newex 118 425 88 196617 pvar Play_button;#P user jsui 42 149 45 19 1 0 0 jcom.jsui_texttoggle.js Play Play 204 204 204 0 0 0 121 255 15;#P objectname Play_button;#P hidden message 9 38 30 196617 undo;#P user jsui 486 39 45 19 1 0 0 jsui_textbutton.js "Select all";#P objectname Open_button[1];#P user jsui 41 39 45 19 1 0 0 jsui_textbutton.js Undo;#P objectname Open_button;#P newex 280 520 62 196617 prepend set;#P hidden button 555 21 15 0;#P hidden number 95 -17 35 9 0 0 0 3 0 0 0 221 221 221 222 222 222 0 0 0;#P objectname sample_size2;#P newex 280 540 100 196617 pvar sample_name2;#P newex 228 566 95 196617 pvar sample_size2;#P newex 108 514 73 196617 print openinsp;#P hidden message 1 4 54 196617 vzoom \$1;#P hidden newex 1 -18 93 196617 pvar verticalzoom;#P window setfont "Sans Serif" 12.;#P comment 809 351 88 196620 display start;#P window setfont "Sans Serif" 9.;#P hidden newex 708 351 93 196617 pvar verticalzoom;#P window linecount 2;#P hidden newex 708 372 290 196617 jcom.parameter sample/vzoom @type msg_float @clipmode non @description @repetitions 0 @ramp none "set vertical zoom";#P objectname sample/vzoom;#P flonum 476 186 49 9 0. 0 1 3 0 0 0 221 221 221 222 222 222 0 0 0;#P objectname verticalzoom;#P window linecount 1;#P comment 388 186 85 196617 set vertical zoom;#P message 41 25 490 196617 0;#P objectname sample_name2;#P hidden newex 442 233 97 196617 pvar display_range;#P window setfont "Sans Serif" 12.;#P comment 809 290 88 196620 display start;#P window setfont "Sans Serif" 9.;#P hidden newex 708 291 97 196617 pvar display_range;#P window linecount 2;#P hidden newex 708 311 318 196617 jcom.parameter sample/displaystart @type msg_list @clipmode non @description @repetitions 0 @ramp none "display start  time in ms";#P objectname sample/displaystart[1];#P window linecount 1;#P hidden message 95 1 43 196617 size \$1;#P hidden newex 474 294 31 196617 * -1;#P hidden newex 443 253 58 196617 unpack 0 0;#P hidden newex 474 274 27 196617 -;#P hidden newex 474 314 93 196617 pvar displaylength;#P hidden newex 443 334 95 196617 pvar display_start;#P user rslider 85 38 402 20 74313 1 0 0 1;#P objectname display_range;#P comment 102 186 63 196617 display start;#P flonum 167 186 49 9 0. 0 1 3 0 0 0 221 221 221 222 222 222 0 0 0;#P objectname display_start;#P window setfont "Sans Serif" 12.;#P comment 802 223 88 196620 display start;#P window setfont "Sans Serif" 9.;#P hidden newex 701 224 95 196617 pvar display_start;#P window linecount 2;#P hidden newex 701 244 373 196617 jcom.parameter sample/displaystart @type msg_float @range 0. 1000000. @clipmode low @description @repetitions 0 @ramp none "display start  time in ms";#P objectname sample/displaystart;#P window setfont "Sans Serif" 12.;#P window linecount 1;#P comment 802 156 88 196620 display length;#P window setfont "Sans Serif" 9.;#P hidden newex 701 157 93 196617 pvar displaylength;#P window linecount 2;#P hidden newex 701 177 356 196617 jcom.parameter sample/displaylength @type msg_float @range 0. 1000000. @clipmode low @description @repetitions 0 @ramp none "display length in ms";#P objectname sample/displaylength;#P window linecount 1;#P comment 96 204 69 196617 display length;#P flonum 167 203 49 9 0. 0 1 3 0 0 0 221 221 221 222 222 222 0 0 0;#P objectname displaylength;#P window setfont "Sans Serif" 12.;#P comment 796 91 73 196620 stoptime;#P window setfont "Sans Serif" 9.;#P hidden message 555 39 51 196617 0 -1 0 -1;#P comment 243 203 68 196617 select end ms;#P comment 236 186 75 196617 select start ms;#P flonum 313 202 49 9 0. 0 1 3 0 0 0 221 221 221 222 222 222 0 0 0;#P objectname excerpt_end;#P flonum 313 186 49 9 0. 0 1 3 0 0 0 221 221 221 222 222 222 0 0 0;#P objectname excerpt_start;#P user waveform~ 41 57 490 93 3 9;#W mode move;#W mouseoutput continuous;#W clipdraw 1;#W unit ms;#W grid 500.;#W ticks 8;#W labels 1;#W vlabels 1;#W vticks 1;#W vzoom 0.69;#W bpm 120. 4.;#W frgb 16 0 0;#W brgb 94 166 169;#W rgb2 63 112 185;#W rgb3 0 0 0;#W rgb4 0 0 0;#W rgb5 169 165 207;#W rgb6 108 108 108;#W rgb7 78 74 220;#P user pictslider 22 74 19 76 0 0 0 0 wfknob.pct 1 wfmodes.pct 1 2146 0 0 196608 1. 1.;#N vpatcher 40 55 278 404;#P window setfont "Sans Serif" 9.;#P newex 96 202 27 196617 int;#N coll ;#T flags 1 0;#T 0 mode select;#T 1 mode loop;#T 2 mode move;#T 3 mode draw;#P newobj 131 255 53 196617 coll;#P button 75 117 15 0;#N comlet waveform~ mode messages;#P inlet 74 164 15 0;#P newex 113 88 27 196617 << 1;#P newex 96 140 40 196617 change;#P newex 96 164 45 196617 select 0;#P newex 96 117 27 196617 |;#P outlet 131 284 15 0;#P newex 45 62 78 196617 modifiers 100;#P connect 5 0 7 0;#P connect 0 3 2 0;#P connect 7 0 2 0;#P connect 2 0 4 0;#P connect 4 0 3 0;#P connect 3 0 9 0;#P connect 6 0 9 0;#P connect 0 4 5 0;#P connect 5 0 2 1;#P connect 9 0 8 0;#P connect 3 1 8 0;#P connect 8 0 1 0;#P pop;#P hidden newobj -8 167 50 196617 p wfkeys;#P hidden newex 700 90 90 196617 pvar excerpt_end;#P hidden newex 699 29 98 196617 pvar excerpt_start;#P window linecount 2;#P hidden newex 700 114 351 196617 jcom.parameter sample/stop @type msg_float @range 0. 1000000. @clipmode low @description "stoptime time in ms" @repetitions 0 @ramp linear.sched ;#P objectname sample/stop;#P window linecount 1;#P hidden newex 75 537 146 196617 loadmess patcher edit the loop;#P hidden newex 64 515 40 196617 t front;#P hidden newex 50 405 219 196617 jcom.oscroute /open_inspector /play /sample;#P hidden inlet 50 378 15 0;#N thispatcher;#Q end;#P hidden newobj 75 557 61 196617 thispatcher;#P window setfont "Sans Serif" 12.;#P comment 798 27 73 196620 starttime;#P window setfont "Sans Serif" 9.;#P window linecount 2;#P hidden newex 699 51 335 196617 jcom.parameter sample/start @type msg_float @range 0. 1000000. @clipmode low @description "start time in ms" @repetitions 0 @ramp  linear.sched;#P objectname sample/start;#P hidden connect 11 1 10 0;#P connect 60 2 62 0;#P hidden connect 46 0 47 0;#P hidden connect 54 0 56 0;#P hidden connect 24 0 12 0;#P hidden fasten 62 0 12 0 1 208 -16 208 -16 63;#P hidden connect 10 0 12 0;#P hidden fasten 47 0 12 0 6 57 46 57;#P hidden connect 56 0 12 0;#P connect 3 0 4 0;#P hidden connect 4 0 5 0;#P hidden connect 5 0 2 0;#P connect 6 0 2 0;#P hidden connect 35 0 29 0;#P hidden connect 51 0 35 0;#P connect 4 0 48 0;#P connect 4 1 58 0;#P connect 61 0 59 0;#P connect 58 0 61 0;#P hidden connect 21 0 12 1;#P connect 60 0 63 0;#P connect 4 2 60 0;#P fasten 60 0 49 0 233 511 233 511;#P connect 60 1 53 0;#P connect 53 0 50 0;#P hidden connect 0 0 12 2;#P hidden connect 7 0 12 3;#P connect 60 1 67 0;#P connect 66 0 64 0;#P hidden connect 39 0 33 0;#P hidden connect 33 0 30 0;#P connect 67 0 66 0;#P hidden connect 33 0 32 0;#P hidden connect 32 0 34 0;#P connect 34 0 31 0;#P hidden connect 33 1 32 1;#P hidden connect 17 0 12 4;#P hidden connect 55 0 52 0;#P hidden connect 64 0 17 0;#P hidden connect 52 0 17 0;#P hidden fasten 0 0 8 0 704 80 695 80 695 24 704 24;#P hidden connect 12 2 0 0;#P hidden connect 8 0 0 0;#P hidden fasten 7 0 9 0 705 150 696 150 696 87 705 87;#P hidden connect 9 0 7 0;#P hidden connect 12 3 7 0;#P hidden fasten 21 0 22 0 706 217 697 217 697 154 706 154;#P hidden connect 12 1 21 0;#P hidden connect 22 0 21 0;#P hidden fasten 24 0 25 0 706 284 697 284 697 221 706 221;#P hidden connect 12 0 24 0;#P hidden connect 25 0 24 0;#P hidden fasten 36 0 37 0 713 343 704 343 704 288 713 288;#P hidden connect 37 0 36 0;#P hidden fasten 43 0 44 0 713 404 704 404 704 349 713 349;#P hidden connect 44 0 43 0;#P pop;#P hidden newobj 146 527 60 196617 p inspector;#P objectname inspector;#P user waveform~ 4 59 247 43 3 9;#W mode move;#W mouseoutput continuous;#W clipdraw 1;#W unit ms;#W grid 500.;#W ticks 8;#W labels 1;#W vlabels 1;#W vticks 1;#W vzoom 0.5;#W bpm 120. 4.;#W frgb 16 0 0;#W brgb 94 166 169;#W rgb2 63 112 185;#W rgb3 0 0 0;#W rgb4 0 0 0;#W rgb5 169 165 207;#W rgb6 108 108 108;#W rgb7 78 74 220;#P message 126 201 191 196617 /preset/store 1 default \, /preset/write;#B color 3;#P newex 464 474 55 196617 jcom.out~;#P newex 146 337 49 196617 jcom.in~;#P message 134 223 125 196617 /documentation/generate;#B color 3;#P window linecount 2;#P message 64 296 65 196617 \; max refresh;#P newex 36 260 304 196617 jcom.hub jmod.sampleplayer~ @size 2U-half @module_type audio @inspector 1 @description "This module doesn't do much yet";#P objectname jcom.hub;#P window linecount 1;#P comment 50 224 79 196617 command input;#P inlet 36 224 13 0;#P message 265 223 31 196617 /init;#P inlet 146 319 13 0;#P outlet 464 511 13 0;#P newex 357 444 117 196617 jalg.sampleplayer~.mxt;#P comment 139 303 105 196617 ----signal input----;#P outlet 36 300 13 0;#P comment 400 526 101 196617 ---signal output---;#P bpatcher 1 0 255 118 0 0 jcom.gui.mxt 0 $0_;#P objectname jmod.gui.1Uh.a.stereo.mxt;#P hidden fasten 49 0 16 0 247 179 9 179;#P fasten 4 0 10 0 362 559 8 559 8 245 41 245;#P fasten 17 0 10 0 151 559 8 559 8 244 41 244;#P fasten 7 0 10 0 270 245 41 245;#P fasten 12 0 10 0 139 244 41 244;#P connect 8 0 10 0;#P fasten 15 0 10 0 131 244 41 244;#P connect 10 0 2 0;#P hidden connect 46 0 45 0;#P hidden connect 45 0 16 2;#P connect 6 0 13 0;#P connect 13 0 18 0;#P hidden connect 18 0 19 0;#P connect 19 0 20 0;#P fasten 46 0 17 0 292 463 151 463;#P connect 20 0 17 0;#P hidden connect 45 1 16 3;#P hidden connect 45 2 49 0;#P fasten 18 1 46 0 292 379 292 379;#P fasten 47 0 4 0 425 433 362 433;#P fasten 46 0 4 0 292 421 362 421;#P hidden connect 46 1 47 0;#P connect 4 1 14 0;#P connect 14 0 5 0;#P hidden fasten 41 0 40 0 498 359 487 359 487 311 498 311;#P hidden connect 40 0 41 0;#P hidden connect 37 0 26 0;#P fasten 30 0 29 0 500 255 490 255 490 208 500 208;#P hidden connect 29 0 30 0;#P hidden fasten 31 0 28 0 500 307 492 307 492 261 500 261;#P hidden connect 28 0 31 0;#P hidden fasten 43 0 42 0 501 408 488 408 488 363 500 363;#P hidden connect 24 0 36 0;#P hidden connect 27 0 37 0;#P hidden connect 42 0 43 0;#P hidden connect 36 0 23 0;#P pop;