max v2;#N vpatcher 65 154 484 325;#P origin -28 16;#P outlet 13 108 15 0;#P window setfont "Sans Serif" 9.;#N vpatcher 318 112 710 310;#P window setfont "Sans Serif" 9.;#N vpatcher 15 55 780 455;#P window setfont "Sans Serif" 9.;#P newex 616 138 155 196617 prepend /stream/7/description;#P newex 536 113 155 196617 prepend /stream/6/description;#P newex 458 138 155 196617 prepend /stream/5/description;#P newex 378 113 155 196617 prepend /stream/4/description;#P newex 299 138 155 196617 prepend /stream/3/description;#P newex 220 113 155 196617 prepend /stream/2/description;#P outlet 62 212 15 0;#N vpatcher 15 55 1064 385;#P window setfont "Sans Serif" 9.;#P window linecount 1;#P newex 65 129 765 196617 sel 10 11 12 13 14 15 16 17 18 19;#P message 714 84 81 196617 1D_EMG_data;#P message 610 84 103 196617 1D_toggle_sync;#P message 550 84 59 196617 9D_Tstick;#P window linecount 0;#P message 280 84 81 196617 3D_orientation;#P message 433 84 116 196617 6D_orientation-position;#P message 362 84 70 196617 3D_position;#P message 50 84 51 196617 MIDI_data;#P newex 65 51 765 196617 sel 0 1 2 3 4 5 6 7 8 9;#P message 191 84 88 196617 3D_acceleration;#P message 102 84 88 196617 2D_acceleration;#P inlet 65 29 15 0;#P outlet 50 256 15 0;#P connect 4 0 5 0;#P fasten 5 0 0 0 55 107 55 107;#P fasten 2 0 0 0 107 107 55 107;#P fasten 3 0 0 0 196 107 55 107;#P fasten 6 0 0 0 367 107 55 107;#P fasten 8 0 0 0 285 107 55 107;#P fasten 7 0 0 0 438 107 55 107;#P fasten 9 0 0 0 555 107 55 107;#P fasten 10 0 0 0 615 107 55 107;#P fasten 11 0 0 0 719 107 55 107;#P connect 1 0 4 0;#P fasten 4 10 12 0 820 122 70 122;#P connect 4 1 2 0;#P connect 4 2 3 0;#P connect 4 3 8 0;#P connect 4 4 6 0;#P connect 4 5 7 0;#P connect 4 6 9 0;#P connect 4 7 10 0;#P connect 4 8 11 0;#P pop;#P newobj 617 50 69 196617 p description;#P newex 141 138 155 196617 prepend /stream/1/description;#P newex 62 113 155 196617 prepend /stream/0/description;#P newex 62 87 565 196617 gate 8 1;#P newex 62 50 27 196617 + 1;#P inlet 617 30 15 0;#P inlet 62 30 15 0;#P connect 0 0 2 0;#P connect 2 0 3 0;#P connect 3 0 4 0;#P connect 13 0 7 0;#P connect 11 0 7 0;#P connect 9 0 7 0;#P connect 5 0 7 0;#P connect 12 0 7 0;#P connect 10 0 7 0;#P connect 8 0 7 0;#P connect 4 0 7 0;#P connect 3 1 5 0;#P connect 3 2 8 0;#P connect 3 3 9 0;#P connect 3 4 10 0;#P connect 3 5 11 0;#P connect 3 6 12 0;#P connect 3 7 13 0;#P connect 1 0 6 0;#P connect 6 0 3 1;#P pop;#P newobj 236 97 112 196617 p description-routing;#N vpatcher 15 55 794 316;#P window setfont "Sans Serif" 9.;#P newex 607 113 142 196617 prepend /stream/7/variables;#P newex 529 139 142 196617 prepend /stream/6/variables;#P newex 451 113 142 196617 prepend /stream/5/variables;#P newex 373 139 142 196617 prepend /stream/4/variables;#P newex 295 113 142 196617 prepend /stream/3/variables;#P newex 217 139 142 196617 prepend /stream/2/variables;#N vpatcher 15 55 839 540;#P origin 62 35;#P window setfont "Sans Serif" 9.;#P window linecount 0;#P newex 11 318 874 196617 sel 10 11 12 13 14;#P newex 10 118 888 196617 sel 5 6 7 8 9;#P window linecount 1;#P message 535 145 62 196617 "EMG_value";#P message 360 145 73 196617 "record_on_off";#P window linecount 10;#P message 185 145 122 196617 "piezo\\\\\\\\\\\\\\\, pressure/1\\\\\\\\\\\\\\\, pressure/2\\\\\\\\\\\\\\\, accelerometer/1/x\\\\\\\\\\\\\\\, accelerometer/1/y\\\\\\\\\\\\\\\, accelerometer/1/z\\\\\\\\\\\\\\\, accelerometer/2/x\\\\\\\\\\\\\\\, accelerometer/2/y\\\\\\\\\\\\\\\, accelerometer/2/z\\\\\\\\\\\\\\\, capacitive";#P window linecount 0;#P message 436 53 110 196617 "azimuth\\\\\\\\\\\\\\\, elevation\\\\\\\\\\\\\\\, roll";#P message 581 53 86 196617 "X\\\\\\\\\\\\\\\, Y\\\\\\\\\\\\\\\, Z";#P message 10 145 99 196617 "X\\\\\\\\\\\\\\\, Y\\\\\\\\\\\\\\\, Z\\\\\\\\\\\\\\\, az\\\\\\\\\\\\\\\, el\\\\\\\\\\\\\\\, roll";#P window linecount 3;#P message 1 53 99 196617 "status_b\\\\\\\\\\\\\\\, first_db\\\\\\\\\\\\\\\, second_db";#P window linecount 1;#P newex 1 21 736 196617 sel 0 1 2 3 4;#P message 146 53 53 196617 "X\\\\\\\\\\\\\\\, Y";#P message 291 53 86 196617 "X\\\\\\\\\\\\\\\, Y\\\\\\\\\\\\\\\, Z";#P inlet 1 1 15 0;#P outlet 1 598 15 0;#P connect 1 0 4 0;#P connect 4 0 5 0;#P fasten 3 0 0 0 151 102 6 102;#P fasten 2 0 0 0 296 102 6 102;#P fasten 7 0 0 0 586 102 6 102;#P fasten 8 0 0 0 441 102 6 102;#P fasten 9 0 0 0 190 286 6 286;#P fasten 10 0 0 0 365 286 6 286;#P fasten 11 0 0 0 540 286 6 286;#P fasten 5 0 0 0 6 347 6 347;#P fasten 6 0 0 0 15 286 6 286;#P fasten 4 5 12 0 731 108 15 108;#P connect 12 0 6 0;#P fasten 12 5 13 0 890 311 16 311;#P connect 4 1 3 0;#P connect 12 1 9 0;#P connect 4 2 2 0;#P connect 12 2 10 0;#P connect 4 3 8 0;#P connect 12 3 11 0;#P connect 4 4 7 0;#P pop;#P newobj 608 55 61 196617 p variables;#P newex 139 113 142 196617 prepend /stream/1/variables;#P newex 61 139 142 196617 prepend /stream/0/variables;#P newex 61 79 557 196617 gate 8 1;#P newex 61 55 27 196617 + 1;#P inlet 608 31 15 0;#P inlet 61 31 15 0;#P outlet 61 210 15 0;#P connect 1 0 3 0;#P connect 3 0 4 0;#P connect 4 0 5 0;#P connect 13 0 0 0;#P connect 12 0 0 0;#P connect 10 0 0 0;#P connect 11 0 0 0;#P connect 9 0 0 0;#P connect 8 0 0 0;#P connect 6 0 0 0;#P connect 5 0 0 0;#P connect 4 1 6 0;#P connect 4 2 8 0;#P connect 4 3 9 0;#P connect 4 4 10 0;#P connect 4 5 11 0;#P connect 4 6 12 0;#P connect 4 7 13 0;#P connect 2 0 7 0;#P connect 7 0 4 1;#P pop;#P newobj 129 97 105 196617 p variables-routing;#N vpatcher 267 300 884 575;#P window setfont "Sans Serif" 9.;#P newex 477 112 113 196617 prepend /stream/7/ID;#P newex 416 138 113 196617 prepend /stream/6/ID;#P newex 355 112 112 196617 prepend /stream/5/ID;#P newex 294 138 113 196617 prepend /stream/4/ID;#P newex 233 112 113 196617 prepend /stream/3/ID;#P newex 172 138 113 196617 prepend /stream/2/ID;#N vpatcher 58 390 878 790;#P window setfont "Sans Serif" 9.;#P window linecount 1;#P message 314 79 33 196617 XEMG;#P message 281 79 33 196617 XSYN;#P message 248 79 29 196617 XTST;#P window linecount 0;#P message 149 79 30 196617 XORI;#P message 215 79 33 196617 XPOR;#P message 182 79 32 196617 XPOS;#P message 50 79 30 196617 1MID;#P newex 50 49 706 196617 sel 0 1 2 3 4 5 6 7 8 9 10 11 12 13 14 15 16 17 18 19 20;#P message 116 79 31 196617 XAC3;#P message 83 79 31 196617 XAC2;#P inlet 50 30 15 0;#P outlet 50 131 15 0;#P connect 1 0 4 0;#P connect 4 0 5 0;#P fasten 5 0 0 0 55 113 55 113;#P fasten 2 0 0 0 88 113 55 113;#P fasten 3 0 0 0 121 113 55 113;#P fasten 7 0 0 0 220 113 55 113;#P fasten 6 0 0 0 187 113 55 113;#P fasten 8 0 0 0 154 113 55 113;#P fasten 9 0 0 0 253 113 55 113;#P fasten 10 0 0 0 286 113 55 113;#P fasten 11 0 0 0 319 113 55 113;#P connect 4 1 2 0;#P connect 4 2 3 0;#P connect 4 3 8 0;#P connect 4 4 6 0;#P connect 4 5 7 0;#P connect 4 6 9 0;#P connect 4 7 10 0;#P connect 4 8 11 0;#P pop;#P newobj 481 53 26 196617 p ID;#P newex 111 112 113 196617 prepend /stream/1/ID;#P newex 50 77 441 196617 gate 8 1;#P newex 50 53 27 196617 + 1;#P newex 50 138 113 196617 prepend /stream/0/ID;#P inlet 481 33 15 0;#P inlet 50 33 15 0;#P outlet 50 192 15 0;#P connect 1 0 4 0;#P connect 4 0 5 0;#P connect 5 0 3 0;#P connect 11 0 0 0;#P connect 13 0 0 0;#P connect 12 0 0 0;#P connect 10 0 0 0;#P connect 8 0 0 0;#P connect 3 0 0 0;#P connect 9 0 0 0;#P connect 6 0 0 0;#P connect 5 1 6 0;#P connect 5 2 8 0;#P connect 5 3 9 0;#P connect 5 4 10 0;#P connect 5 5 11 0;#P connect 5 6 12 0;#P connect 5 7 13 0;#P connect 2 0 7 0;#P connect 7 0 5 1;#P pop;#P newobj 50 97 77 196617 p ID-routing;#P inlet 278 31 15 0;#P inlet 50 36 15 0;#P outlet 50 146 15 0;#P connect 1 0 3 0;#P fasten 3 0 0 0 55 131 55 131;#P fasten 4 0 0 0 134 131 55 131;#P fasten 5 0 0 0 241 131 55 131;#P connect 2 0 3 1;#P connect 1 0 4 0;#P connect 2 0 4 1;#P connect 1 0 5 0;#P connect 2 0 5 1;#P pop;#P newobj 13 84 132 196617 p streams_and_variables;#P newex 13 57 216 196617 jcom.oscroute /stream_nbr /stream_type;#P inlet 13 23 15 0;#P objectname inlet;#P connect 0 0 1 0;#P connect 1 0 2 0;#P connect 2 0 3 0;#P connect 1 1 2 1;#P pop;