max v2;
#N vpatcher 65 154 484 325;
#P origin -28 16;
#P window setfont "Sans Serif" 9.;
#P window linecount 1;
#N vpatcher 122 80 471 281;
#P window setfont "Sans Serif" 9.;
#N vpatcher 15 55 780 455;
#P window setfont "Sans Serif" 9.;
#P newex 531 138 129 9109513 prepend /stream7/description;
#P newex 464 113 129 9109513 prepend /stream6/description;
#P newex 397 138 129 9109513 prepend /stream5/description;
#P newex 330 113 129 9109513 prepend /stream4/description;
#P newex 263 138 129 9109513 prepend /stream3/description;
#P newex 196 113 129 9109513 prepend /stream2/description;
#P outlet 62 212 15 0;
#N vpatcher 15 55 837 455;
#P window setfont "Sans Serif" 9.;
#P message 260 82 94 9109513 az_el_roll_orientation;
#P message 421 82 69 9109513 XYZ_az_el_roll;
#P message 356 82 63 9109513 XYZ_position;
#P message 50 82 51 9109513 MIDI_data;
#P newex 50 50 587 9109513 sel 0 1 2 3 4 5 6 7;
#P message 178 82 81 9109513 XYZ_acceleration;
#P message 102 82 75 9109513 XY_acceleration;
#P inlet 50 30 15 0;
#P outlet 50 116 15 0;
#P connect 1 0 4 0;
#P connect 4 0 5 0;
#P fasten 5 0 0 0 55 107 55 107;
#P fasten 2 0 0 0 107 107 55 107;
#P fasten 3 0 0 0 183 107 55 107;
#P fasten 6 0 0 0 361 107 55 107;
#P fasten 8 0 0 0 265 107 55 107;
#P fasten 7 0 0 0 426 107 55 107;
#P connect 4 1 2 0;
#P connect 4 2 3 0;
#P connect 4 3 8 0;
#P connect 4 4 6 0;
#P connect 4 5 7 0;
#P pop;
#P newobj 537 50 61 9109513 p description;
#P newex 129 138 129 9109513 prepend /stream1/description;
#P newex 62 113 129 9109513 prepend /stream0/description;
#P newex 62 87 485 9109513 gate 8 1;
#P newex 62 50 27 9109513 + 1;
#P inlet 537 30 15 0;
#P inlet 62 30 15 0;
#P connect 0 0 2 0;
#P connect 2 0 3 0;
#P connect 3 0 4 0;
#P connect 4 0 7 0;
#P connect 5 0 7 0;
#P connect 8 0 7 0;
#P connect 9 0 7 0;
#P connect 10 0 7 0;
#P connect 11 0 7 0;
#P connect 12 0 7 0;
#P connect 13 0 7 0;
#P connect 3 1 5 0;
#P connect 3 2 8 0;
#P connect 3 3 9 0;
#P connect 3 4 10 0;
#P connect 3 5 11 0;
#P connect 3 6 12 0;
#P connect 3 7 13 0;
#P connect 1 0 6 0;
#P connect 6 0 3 1;
#P pop;
#P newobj 196 97 92 9109513 p description-routing;
#N vpatcher 15 55 738 295;
#P window setfont "Sans Serif" 9.;
#P newex 523 113 122 9109513 prepend /stream7/variables;
#P newex 457 139 122 9109513 prepend /stream6/variables;
#P newex 391 113 122 9109513 prepend /stream5/variables;
#P newex 325 139 122 9109513 prepend /stream4/variables;
#P newex 259 113 122 9109513 prepend /stream3/variables;
#P newex 193 139 122 9109513 prepend /stream2/variables;
#N vpatcher 15 55 839 308;
#P window setfont "Sans Serif" 9.;
#P window linecount 0;
#P message 295 96 96 9109513 "az\\\\\\\\\\\\\\\, el\\\\\\\\\\\\\\\, roll";
#P message 393 96 86 9109513 "X\\\\\\\\\\\\\\\, Y\\\\\\\\\\\\\\\, Z";
#P message 490 96 195 9109513 "X\\\\\\\\\\\\\\\, Y\\\\\\\\\\\\\\\, Z\\\\\\\\\\\\\\\, az\\\\\\\\\\\\\\\, el\\\\\\\\\\\\\\\, roll";
#P window linecount 3;
#P message 50 96 71 9109513 "status_b\\\\\\\\\\\\\\\, first_db\\\\\\\\\\\\\\\, second_db";
#P window linecount 1;
#P newex 50 50 641 9109513 sel 0 1 2 3 4 5 6 7;
#P message 128 96 53 9109513 "X\\\\\\\\\\\\\\\, Y";
#P message 206 96 86 9109513 "X\\\\\\\\\\\\\\\, Y\\\\\\\\\\\\\\\, Z";
#P inlet 50 30 15 0;
#P outlet 50 205 15 0;
#P connect 1 0 4 0;
#P connect 4 0 5 0;
#P fasten 5 0 0 0 55 172 55 172;
#P fasten 3 0 0 0 133 159 55 159;
#P fasten 2 0 0 0 211 159 55 159;
#P fasten 6 0 0 0 495 159 55 159;
#P fasten 7 0 0 0 398 159 55 159;
#P fasten 8 0 0 0 300 159 55 159;
#P connect 4 1 3 0;
#P connect 4 2 2 0;
#P connect 4 3 8 0;
#P connect 4 4 7 0;
#P connect 4 5 6 0;
#P pop;
#P newobj 524 53 54 9109513 p variables;
#P newex 127 113 122 9109513 prepend /stream1/variables;
#P newex 61 139 122 9109513 prepend /stream0/variables;
#P newex 61 79 473 9109513 gate 8 1;
#P newex 61 55 27 9109513 + 1;
#P inlet 524 33 15 0;
#P inlet 61 31 15 0;
#P outlet 61 213 15 0;
#P connect 1 0 3 0;
#P connect 3 0 4 0;
#P connect 4 0 5 0;
#P connect 5 0 0 0;
#P connect 6 0 0 0;
#P connect 12 0 0 0;
#P connect 8 0 0 0;
#P connect 9 0 0 0;
#P connect 10 0 0 0;
#P connect 11 0 0 0;
#P connect 13 0 0 0;
#P connect 4 1 6 0;
#P connect 4 2 8 0;
#P connect 4 3 9 0;
#P connect 4 4 10 0;
#P connect 4 5 11 0;
#P connect 4 6 12 0;
#P connect 4 7 13 0;
#P connect 2 0 7 0;
#P connect 7 0 4 1;
#P pop;
#P newobj 109 97 85 9109513 p variables-routing;
#N vpatcher 25 70 598 318;
#P window setfont "Sans Serif" 9.;
#P newex 428 112 94 9109513 prepend /stream7/ID;
#P newex 374 138 94 9109513 prepend /stream6/ID;
#P newex 320 112 94 9109513 prepend /stream5/ID;
#P newex 266 138 94 9109513 prepend /stream4/ID;
#P newex 212 112 94 9109513 prepend /stream3/ID;
#P newex 158 138 94 9109513 prepend /stream2/ID;
#N vpatcher 15 55 615 455;
#P window setfont "Sans Serif" 9.;
#P message 149 79 30 9109513 XORI;
#P message 215 79 33 9109513 XPOR;
#P message 182 79 32 9109513 XPOS;
#P message 50 79 30 9109513 1MID;
#P newex 50 50 211 9109513 sel 0 1 2 3 4 5;
#P message 116 79 31 9109513 XAC3;
#P message 83 79 31 9109513 XAC2;
#P inlet 50 30 15 0;
#P outlet 50 131 15 0;
#P connect 1 0 4 0;
#P connect 4 0 5 0;
#P fasten 5 0 0 0 55 113 55 113;
#P fasten 2 0 0 0 88 113 55 113;
#P fasten 3 0 0 0 121 113 55 113;
#P fasten 7 0 0 0 220 113 55 113;
#P fasten 6 0 0 0 187 113 55 113;
#P fasten 8 0 0 0 154 113 55 113;
#P connect 4 1 2 0;
#P connect 4 2 3 0;
#P connect 4 3 8 0;
#P connect 4 4 6 0;
#P connect 4 5 7 0;
#P pop;
#P newobj 432 53 26 9109513 p ID;
#P newex 104 112 94 9109513 prepend /stream1/ID;
#P newex 50 77 392 9109513 gate 8 1;
#P newex 50 53 27 9109513 + 1;
#P newex 50 138 94 9109513 prepend /stream0/ID;
#P inlet 432 33 15 0;
#P inlet 50 33 15 0;
#P outlet 50 195 15 0;
#P connect 1 0 4 0;
#P connect 4 0 5 0;
#P connect 5 0 3 0;
#P connect 3 0 0 0;
#P connect 6 0 0 0;
#P connect 8 0 0 0;
#P connect 9 0 0 0;
#P connect 10 0 0 0;
#P connect 11 0 0 0;
#P connect 12 0 0 0;
#P connect 13 0 0 0;
#P connect 5 1 6 0;
#P connect 5 2 8 0;
#P connect 5 3 9 0;
#P connect 5 4 10 0;
#P connect 5 5 11 0;
#P connect 5 6 12 0;
#P connect 5 7 13 0;
#P connect 2 0 7 0;
#P connect 7 0 5 1;
#P pop;
#P newobj 50 97 57 9109513 p ID-routing;
#P inlet 278 31 15 0;
#P inlet 50 36 15 0;
#P outlet 50 146 15 0;
#P connect 1 0 3 0;
#P fasten 3 0 0 0 55 131 55 131;
#P fasten 4 0 0 0 114 131 55 131;
#P fasten 5 0 0 0 201 131 55 131;
#P connect 2 0 3 1;
#P connect 1 0 4 0;
#P connect 2 0 4 1;
#P connect 1 0 5 0;
#P connect 2 0 5 1;
#P pop;
#P newobj 13 84 113 9109513 p streams_and_variables;
#P newex 13 112 320 9109513 jcom.return stream_definition @description "the definitions of the streams";
#P newex 13 57 216 9109513 jcom.oscroute /stream /stream_type;
#P inlet 13 23 15 0;
#P objectname inlet;
#P connect 0 0 1 0;
#P connect 1 0 3 0;
#P connect 3 0 2 0;
#P connect 1 1 3 1;
#P pop;
