max v2;
#N vpatcher 65 154 484 325;
#P origin -28 16;
#P outlet 13 108 15 0;
#P window setfont "Sans Serif" 9.;
#N vpatcher 122 80 514 278;
#P window setfont "Sans Serif" 9.;
#N vpatcher 15 55 780 455;
#P window setfont "Sans Serif" 9.;
#P newex 531 138 132 9109513 prepend /stream/7/description;
#P newex 464 113 132 9109513 prepend /stream/6/description;
#P newex 397 138 132 9109513 prepend /stream/5/description;
#P newex 330 113 132 9109513 prepend /stream/4/description;
#P newex 263 138 132 9109513 prepend /stream/3/description;
#P newex 196 113 132 9109513 prepend /stream/2/description;
#P outlet 62 212 15 0;
#N vpatcher 15 55 1064 385;
#P window setfont "Sans Serif" 9.;
#P window linecount 1;
#P newex 65 129 765 9109513 sel 10 11 12 13 14 15 16 17 18 19;
#P message 722 82 75 9109513 9D_Tstick_bass;
#P message 645 82 76 9109513 9D_Tstick_tenor;
#P message 574 82 70 9109513 9D_Tstick_alto;
#P message 485 82 88 9109513 9D_Tstick_soprano;
#P window linecount 0;
#P message 254 82 68 9109513 3D_orientation;
#P message 381 82 103 9109513 6D_orientation-position;
#P message 323 82 57 9109513 3D_position;
#P message 50 82 51 9109513 MIDI_data;
#P newex 65 51 765 9109513 sel 0 1 2 3 4 5 6 7 8 9;
#P message 178 82 75 9109513 3D_acceleration;
#P message 102 82 75 9109513 2D_acceleration;
#P inlet 65 29 15 0;
#P outlet 50 256 15 0;
#P connect 4 0 5 0;
#P fasten 5 0 0 0 55 107 55 107;
#P fasten 2 0 0 0 107 107 55 107;
#P fasten 3 0 0 0 183 107 55 107;
#P fasten 6 0 0 0 328 107 55 107;
#P fasten 8 0 0 0 259 107 55 107;
#P fasten 7 0 0 0 386 107 55 107;
#P fasten 9 0 0 0 490 107 55 107;
#P fasten 10 0 0 0 579 107 55 107;
#P fasten 11 0 0 0 650 107 55 107;
#P fasten 12 0 0 0 727 107 55 107;
#P connect 1 0 4 0;
#P fasten 4 10 13 0 820 122 70 122;
#P connect 4 1 2 0;
#P connect 4 2 3 0;
#P connect 4 3 8 0;
#P connect 4 4 6 0;
#P connect 4 5 7 0;
#P connect 4 6 9 0;
#P connect 4 7 10 0;
#P connect 4 8 11 0;
#P connect 4 9 12 0;
#P pop;
#P newobj 537 50 61 9109513 p description;
#P newex 129 138 132 9109513 prepend /stream/1/description;
#P newex 62 113 132 9109513 prepend /stream/0/description;
#P newex 62 87 485 9109513 gate 8 1;
#P newex 62 50 27 9109513 + 1;
#P inlet 537 30 15 0;
#P inlet 62 30 15 0;
#P connect 0 0 2 0;
#P connect 2 0 3 0;
#P connect 3 0 4 0;
#P connect 13 0 7 0;
#P connect 11 0 7 0;
#P connect 9 0 7 0;
#P connect 5 0 7 0;
#P connect 12 0 7 0;
#P connect 10 0 7 0;
#P connect 8 0 7 0;
#P connect 4 0 7 0;
#P connect 3 1 5 0;
#P connect 3 2 8 0;
#P connect 3 3 9 0;
#P connect 3 4 10 0;
#P connect 3 5 11 0;
#P connect 3 6 12 0;
#P connect 3 7 13 0;
#P connect 1 0 6 0;
#P connect 6 0 3 1;
#P pop;
#P newobj 196 97 92 9109513 p description-routing;
#N vpatcher 15 55 738 295;
#P window setfont "Sans Serif" 9.;
#P newex 523 113 130 9109513 prepend /stream/7/variables;
#P newex 457 139 130 9109513 prepend /stream/6/variables;
#P newex 391 113 130 9109513 prepend /stream/5/variables;
#P newex 325 139 130 9109513 prepend /stream/4/variables;
#P newex 259 113 130 9109513 prepend /stream/3/variables;
#P newex 193 139 130 9109513 prepend /stream/2/variables;
#N vpatcher 15 55 839 308;
#P origin 40 0;
#P window setfont "Sans Serif" 9.;
#P window linecount 0;
#P newex 33 330 874 9109513 sel 10 11 12 13 14;
#P newex 32 153 888 9109513 sel 5 6 7 8 9;
#P window linecount 9;
#P message 732 180 121 9109513 "piezo\\\\\\\\\\\\\\\, pressure/1\\\\\\\\\\\\\\\, pressure/2\\\\\\\\\\\\\\\, accelerometer/1/x\\\\\\\\\\\\\\\, accelerometer/1/y\\\\\\\\\\\\\\\, accelerometer/1/z\\\\\\\\\\\\\\\, accelerometer/2/x\\\\\\\\\\\\\\\, accelerometer/2/y\\\\\\\\\\\\\\\, capacitive";
#P message 557 180 121 9109513 "piezo\\\\\\\\\\\\\\\, pressure/1\\\\\\\\\\\\\\\, pressure/2\\\\\\\\\\\\\\\, accelerometer/1/x\\\\\\\\\\\\\\\, accelerometer/1/y\\\\\\\\\\\\\\\, accelerometer/1/z\\\\\\\\\\\\\\\, accelerometer/2/x\\\\\\\\\\\\\\\, accelerometer/2/y\\\\\\\\\\\\\\\, capacitive";
#P message 382 180 121 9109513 "piezo\\\\\\\\\\\\\\\, pressure/1\\\\\\\\\\\\\\\, pressure/2\\\\\\\\\\\\\\\, accelerometer/1/x\\\\\\\\\\\\\\\, accelerometer/1/y\\\\\\\\\\\\\\\, accelerometer/1/z\\\\\\\\\\\\\\\, accelerometer/2/x\\\\\\\\\\\\\\\, accelerometer/2/y\\\\\\\\\\\\\\\, capacitive";
#P message 207 180 121 9109513 "piezo\\\\\\\\\\\\\\\, pressure/1\\\\\\\\\\\\\\\, pressure/2\\\\\\\\\\\\\\\, accelerometer/1/x\\\\\\\\\\\\\\\, accelerometer/1/y\\\\\\\\\\\\\\\, accelerometer/1/z\\\\\\\\\\\\\\\, accelerometer/2/x\\\\\\\\\\\\\\\, accelerometer/2/y\\\\\\\\\\\\\\\, capacitive";
#P window linecount 0;
#P message 458 88 96 9109513 "az\\\\\\\\\\\\\\\, el\\\\\\\\\\\\\\\, roll";
#P message 603 88 86 9109513 "X\\\\\\\\\\\\\\\, Y\\\\\\\\\\\\\\\, Z";
#P message 32 180 99 9109513 "X\\\\\\\\\\\\\\\, Y\\\\\\\\\\\\\\\, Z\\\\\\\\\\\\\\\, az\\\\\\\\\\\\\\\, el\\\\\\\\\\\\\\\, roll";
#P window linecount 3;
#P message 23 88 99 9109513 "status_b\\\\\\\\\\\\\\\, first_db\\\\\\\\\\\\\\\, second_db";
#P window linecount 1;
#P newex 23 56 736 9109513 sel 0 1 2 3 4;
#P message 168 88 53 9109513 "X\\\\\\\\\\\\\\\, Y";
#P message 313 88 86 9109513 "X\\\\\\\\\\\\\\\, Y\\\\\\\\\\\\\\\, Z";
#P inlet 23 36 15 0;
#P outlet 23 633 15 0;
#P connect 1 0 4 0;
#P connect 4 0 5 0;
#P fasten 3 0 0 0 173 137 28 137;
#P fasten 2 0 0 0 318 137 28 137;
#P fasten 7 0 0 0 608 137 28 137;
#P fasten 8 0 0 0 463 137 28 137;
#P fasten 9 0 0 0 212 307 28 307;
#P fasten 10 0 0 0 387 307 28 307;
#P fasten 11 0 0 0 562 307 28 307;
#P fasten 12 0 0 0 737 307 28 307;
#P fasten 5 0 0 0 28 382 28 382;
#P fasten 6 0 0 0 37 307 28 307;
#P fasten 4 5 13 0 753 143 37 143;
#P connect 13 0 6 0;
#P fasten 13 5 14 0 912 325 38 325;
#P connect 4 1 3 0;
#P connect 13 1 9 0;
#P connect 4 2 2 0;
#P connect 13 2 10 0;
#P connect 4 3 8 0;
#P connect 13 3 11 0;
#P connect 4 4 7 0;
#P connect 13 4 12 0;
#P pop;
#P newobj 524 53 54 9109513 p variables;
#P newex 127 113 130 9109513 prepend /stream/1/variables;
#P newex 61 139 130 9109513 prepend /stream/0/variables;
#P newex 61 79 473 9109513 gate 8 1;
#P newex 61 55 27 9109513 + 1;
#P inlet 524 33 15 0;
#P inlet 61 31 15 0;
#P outlet 61 213 15 0;
#P connect 1 0 3 0;
#P connect 3 0 4 0;
#P connect 4 0 5 0;
#P connect 13 0 0 0;
#P connect 12 0 0 0;
#P connect 10 0 0 0;
#P connect 11 0 0 0;
#P connect 9 0 0 0;
#P connect 8 0 0 0;
#P connect 6 0 0 0;
#P connect 5 0 0 0;
#P connect 4 1 6 0;
#P connect 4 2 8 0;
#P connect 4 3 9 0;
#P connect 4 4 10 0;
#P connect 4 5 11 0;
#P connect 4 6 12 0;
#P connect 4 7 13 0;
#P connect 2 0 7 0;
#P connect 7 0 4 1;
#P pop;
#P newobj 109 97 85 9109513 p variables-routing;
#N vpatcher 25 70 642 345;
#P window setfont "Sans Serif" 9.;
#P newex 428 112 102 9109513 prepend /stream/7/ID;
#P newex 374 138 102 9109513 prepend /stream/6/ID;
#P newex 320 112 101 9109513 prepend /stream/5/ID;
#P newex 266 138 102 9109513 prepend /stream/4/ID;
#P newex 212 112 102 9109513 prepend /stream/3/ID;
#P newex 158 138 102 9109513 prepend /stream/2/ID;
#N vpatcher 15 55 835 455;
#P window setfont "Sans Serif" 9.;
#P window linecount 1;
#P message 347 79 30 9109513 XTSB;
#P message 314 79 29 9109513 XTST;
#P message 281 79 30 9109513 XTSA;
#P message 248 79 30 9109513 XTSS;
#P window linecount 0;
#P message 149 79 30 9109513 XORI;
#P message 215 79 33 9109513 XPOR;
#P message 182 79 32 9109513 XPOS;
#P message 50 79 30 9109513 1MID;
#P newex 50 49 706 9109513 sel 0 1 2 3 4 5 6 7 8 9 10 11 12 13 14 15 16 17 18 19 20;
#P message 116 79 31 9109513 XAC3;
#P message 83 79 31 9109513 XAC2;
#P inlet 50 30 15 0;
#P outlet 50 131 15 0;
#P connect 1 0 4 0;
#P connect 4 0 5 0;
#P fasten 5 0 0 0 55 113 55 113;
#P fasten 2 0 0 0 88 113 55 113;
#P fasten 3 0 0 0 121 113 55 113;
#P fasten 7 0 0 0 220 113 55 113;
#P fasten 6 0 0 0 187 113 55 113;
#P fasten 8 0 0 0 154 113 55 113;
#P fasten 9 0 0 0 253 113 55 113;
#P fasten 10 0 0 0 286 113 55 113;
#P fasten 11 0 0 0 319 113 55 113;
#P fasten 12 0 0 0 352 113 55 113;
#P connect 4 1 2 0;
#P connect 4 2 3 0;
#P connect 4 3 8 0;
#P connect 4 4 6 0;
#P connect 4 5 7 0;
#P connect 4 6 9 0;
#P connect 4 7 10 0;
#P connect 4 8 11 0;
#P connect 4 9 12 0;
#P pop;
#P newobj 432 53 26 9109513 p ID;
#P newex 104 112 102 9109513 prepend /stream/1/ID;
#P newex 50 77 392 9109513 gate 8 1;
#P newex 50 53 27 9109513 + 1;
#P newex 50 138 102 9109513 prepend /stream/0/ID;
#P inlet 432 33 15 0;
#P inlet 50 33 15 0;
#P outlet 50 195 15 0;
#P connect 1 0 4 0;
#P connect 4 0 5 0;
#P connect 5 0 3 0;
#P connect 11 0 0 0;
#P connect 13 0 0 0;
#P connect 12 0 0 0;
#P connect 10 0 0 0;
#P connect 8 0 0 0;
#P connect 3 0 0 0;
#P connect 9 0 0 0;
#P connect 6 0 0 0;
#P connect 5 1 6 0;
#P connect 5 2 8 0;
#P connect 5 3 9 0;
#P connect 5 4 10 0;
#P connect 5 5 11 0;
#P connect 5 6 12 0;
#P connect 5 7 13 0;
#P connect 2 0 7 0;
#P connect 7 0 5 1;
#P pop;
#P newobj 50 97 57 9109513 p ID-routing;
#P inlet 278 31 15 0;
#P inlet 50 36 15 0;
#P outlet 50 146 15 0;
#P connect 1 0 3 0;
#P fasten 3 0 0 0 55 131 55 131;
#P fasten 4 0 0 0 114 131 55 131;
#P fasten 5 0 0 0 201 131 55 131;
#P connect 2 0 3 1;
#P connect 1 0 4 0;
#P connect 2 0 4 1;
#P connect 1 0 5 0;
#P connect 2 0 5 1;
#P pop;
#P newobj 13 84 113 9109513 p streams_and_variables;
#P newex 13 57 216 9109513 jcom.oscroute /stream_nbr /stream_type;
#P inlet 13 23 15 0;
#P objectname inlet;
#P connect 0 0 1 0;
#P connect 1 0 2 0;
#P connect 2 0 3 0;
#P connect 1 1 2 1;
#P pop;
