max v2;
#N vpatcher 19 34 744 455;
#P origin -1 -35;
#P window setfont "Sans Serif" 9.;
#P window linecount 1;
#P hidden newex 336 121 83 9109513 pvar stream_type;
#P objectname stream_type[2];
#P hidden newex 336 64 59 9109513 pvar stream;
#P objectname stream_type[1];
#P hidden newex 336 143 321 9109513 jcom.message stream_type @type msg_int @description "type of stream";
#P objectname stream_type[3];
#P hidden newex 336 86 332 9109513 jcom.message stream @type msg_int @description "Which stream to define";
#P objectname stream[1];
#P user ubumenu 65 26 177 9109513 0 1 1 0;
#X add 1MID - MIDI - 3DOF;
#X add XAC2 - Acceleration - 2DOF;
#X add XAC3 - Acceleration - 3DOF;
#X add XORI - Orientation - 3DOF;
#X add XPOS - Position - 3DOF;
#X add XPOR - Position-Orientation - 6DOF;
#X prefix_set 0 0 <none> 0;
#P objectname stream_type;
#P user ubumenu 5 26 53 9109513 0 1 1 0;
#X add stream0;
#X add stream1;
#X add stream2;
#X add stream3;
#X add stream4;
#X add stream5;
#X add stream6;
#X add stream7;
#X prefix_set 0 0 <none> 0;
#P objectname stream;
#P hidden message 43 90 191 9109513 /preset/store 1 default \, /preset/write;
#B color 3;
#P window linecount 2;
#P hidden message 257 225 66 9109513 \; jcom.init bang;
#P window linecount 1;
#P hidden message 123 290 243 9109513 /stream_type 0;
#P hidden newex 123 262 62 9109513 prepend set;
#P hidden message 70 108 125 9109513 /documentation/generate;
#P hidden newex 40 211 43 9109513 jcom.in;
#P hidden newex 40 259 45 9109513 pcontrol;
#P hidden newex 40 235 78 9109513 jcom.pass open;
#P window linecount 2;
#P hidden message 187 225 65 9109513 \; max refresh;
#P window linecount 1;
#P hidden message 196 108 31 9109513 /init;
#P hidden newex 40 312 101 9109513 jalg.sdif.record.control;
#P objectname jalg.sdif.player;
#P window linecount 2;
#P hidden newex 7 133 276 9109513 jcom.hub jmod.sdif.record.control @size 1U-half @module_type control @description "Controls the SDIF record module";
#P objectname jcom.hub;
#P hidden inlet 7 82 13 0;
#P hidden outlet 7 335 13 0;
#P bpatcher 0 0 256 61 0 0 jcom.gui.mxt 0 $0_;
#P objectname jcom.gui.audio-component.mxt;
#P hidden connect 14 0 3 0;
#P hidden connect 10 0 3 0;
#P hidden fasten 5 0 3 0 201 129 12 129;
#P hidden connect 2 0 3 0;
#P hidden connect 3 0 1 0;
#P hidden connect 9 0 7 0;
#P hidden connect 7 0 8 0;
#P hidden connect 8 0 4 0;
#P hidden fasten 7 1 4 0 113 298 45 298;
#P hidden fasten 7 1 11 0 113 259 128 259;
#P hidden connect 11 0 12 0;
#P hidden fasten 17 0 19 0 341 107 334 107 334 60 341 60;
#P hidden connect 19 0 17 0;
#P hidden fasten 18 0 20 0 341 170 334 170 334 115 341 115;
#P hidden connect 20 0 18 0;
#P pop;
