max v2;#N vpatcher 375 173 1106 733;#P origin -2 -18;#P window setfont "Sans Serif" 9.;#P window linecount 1;#P message 185 84 79 196617 /preset/save;#P message 185 66 76 196617 /preset/load;#P message 185 47 92 196617 /preset/default;#P toggle 6 83 15 0;#P message 23 83 91 196617 /audio/bypass \$1;#P toggle 6 65 15 0;#P message 23 65 82 196617 /audio/mute \$1;#P message 43 46 116 196617 /audio/sample_rate \$1;#P number 6 46 35 9 -2 2 3 3 0 0 0 221 221 221 222 222 222 0 0 0;#P window linecount 2;#P comment 267 69 100 196617 These two can have an optional argument;#P user panel 0 31 373 75;#X brgb 199 199 214;#X frgb 0 0 0;#X border 0;#X rounded 0;#X shadow 0;#X done;#P window setfont "Sans Serif" 18.;#P window linecount 1;#P comment 3 2 207 196626 Generic Audio controls;#P user panel 0 0 373 27;#X brgb 152 152 179;#X frgb 0 0 0;#X border 0;#X rounded 0;#X shadow 0;#X done;#P hidden outlet 393 125 15 0;#P hidden connect 8 0 7 0;#P hidden connect 10 0 9 0;#P hidden connect 5 0 6 0;#P hidden connect 9 0 0 0;#P hidden connect 7 0 0 0;#P hidden connect 6 0 0 0;#P hidden connect 11 0 0 0;#P hidden connect 12 0 0 0;#P hidden connect 13 0 0 0;#P pop;