max v2;#N vpatcher 10 59 610 459;#P hidden outlet 429 187 15 0;#P window setfont "Sans Serif" 9.;#P window linecount 1;#P message 114 84 79 196617 /preset/recall;#P message 114 66 76 196617 /preset/load;#P message 114 47 92 196617 /preset/default;#P toggle 8 55 15 0;#P message 25 55 82 196617 /audio/mute \$1;#P window linecount 2;#P comment 191 70 100 196617 These two can have an optional argument;#P window setfont "Sans Serif" 18.;#P window linecount 1;#P comment 4 3 191 196626 Muting and Presets;#P user panel 1 1 373 27;#X brgb 152 152 179;#X frgb 0 0 0;#X border 0;#X rounded 0;#X shadow 0;#X done;#P user panel 1 32 373 75;#X brgb 199 199 214;#X frgb 0 0 0;#X border 0;#X rounded 0;#X shadow 0;#X done;#P hidden connect 5 0 4 0;#P hidden connect 4 0 9 0;#P hidden connect 6 0 9 0;#P hidden connect 7 0 9 0;#P hidden connect 8 0 9 0;#P pop;