max v2;#N vpatcher 41 213 649 784;#P origin -102 -192;#P window setfont "Sans Serif" 9.;#P window linecount 2;#P comment 218 200 148 196617 copies the first preset to a new one (at the end of the list);#P window linecount 1;#P message 216 181 154 196617 /preset/copy default notdefault;#P comment 248 284 79 196617 init this module;#P comment 71 320 72 196617 refresh the ui;#P comment 23 285 147 196617 freeze this module's ui display;#P window setfont "Sans Serif" 18.;#P comment 1 246 373 196626 Generic module messages and properties;#P user panel 0 245 373 27;#X brgb 152 152 179;#X frgb 0 0 0;#X border 0;#X rounded 0;#X shadow 0;#X done;#P window setfont "Sans Serif" 9.;#P message 216 283 31 196617 /init;#P message 6 319 64 196617 /ui/refresh;#P toggle 6 283 15 0;#P message 6 301 74 196617 /ui/freeze \$1;#P message 217 303 126 196617 /parameter_names/dump;#P message 218 323 125 196617 /documentation/generate;#P user panel 0 273 373 75;#X brgb 199 199 214;#X frgb 0 0 0;#X border 0;#X rounded 0;#X shadow 0;#X done;#P hidden outlet 488 476 18 0;#P message 247 151 84 196617 /preset/store 3;#P message 247 134 112 196617 /preset/store 2 funky;#P message 247 117 118 196617 /preset/store 1 default;#P window linecount 2;#P comment 243 89 118 196617 store a preset with an optional name;#P comment 243 33 118 196617 save the current set of presets to an XML file;#P window linecount 1;#P message 247 56 76 196617 /preset/write;#P window linecount 3;#P comment 92 176 116 196617 read the default preset file \, and then recall the first preset;#P window linecount 1;#P message 6 179 82 196617 /preset/default;#P window linecount 2;#P comment 120 89 87 196617 recall a preset by name or number;#P window linecount 1;#P message 5 117 86 196617 /preset/recall 1;#P message 5 100 105 196617 /preset/recall funky;#P message 5 83 111 196617 /preset/recall default;#P message 5 134 86 196617 /preset/recall 2;#P message 5 151 86 196617 /preset/recall 3;#P window linecount 2;#P comment 80 33 91 196617 read a preset XML file from disk;#P window linecount 1;#P message 4 38 71 196617 /preset/read;#P message 4 56 160 196617 /preset/read $1.xml;#P window linecount 2;#P comment 83 216 124 196617 post all presets to the Max window;#P window linecount 1;#P message 6 211 74 196617 /preset/post;#P user panel 0 28 373 215;#X brgb 199 199 214;#X frgb 0 0 0;#X border 0;#X rounded 0;#X shadow 0;#X done;#P window setfont "Sans Serif" 18.;#P comment 3 2 111 196626 Presets;#P user panel 0 0 373 27;#X brgb 152 152 179;#X frgb 0 0 0;#X border 0;#X rounded 0;#X shadow 0;#X done;#P connect 27 0 26 0;#P hidden connect 35 0 22 0;#P hidden connect 3 0 22 0;#P hidden connect 14 0 22 0;#P hidden connect 21 0 22 0;#P hidden connect 16 0 22 0;#P hidden connect 20 0 22 0;#P hidden connect 19 0 22 0;#P hidden connect 8 0 22 0;#P hidden connect 12 0 22 0;#P hidden connect 11 0 22 0;#P hidden connect 9 0 22 0;#P hidden connect 10 0 22 0;#P hidden connect 5 0 22 0;#P hidden connect 6 0 22 0;#P hidden connect 28 0 22 0;#P hidden connect 26 0 22 0;#P hidden connect 25 0 22 0;#P hidden connect 29 0 22 0;#P hidden connect 24 0 22 0;#P pop;