max v2;#N vpatcher 342 169 1251 705;#P origin -9 -10;#P window setfont "Sans Serif" 9.;#P comment 11 245 304 196617 another parameter of the power ramp function is the symmetry :;#P comment 10 375 270 196617 visualize the function curve used for the ramp;#P hidden inlet 347 374 15 0;#P user multiSlider 9 395 347 87 0. 1. 1 3705 15 0 0 2 0 0 0;#M frgb 0 0 0;#M brgb 255 255 255;#M rgb2 127 127 127;#M rgb3 0 0 0;#M rgb4 37 52 91;#M rgb5 74 105 182;#M rgb6 112 158 18;#M rgb7 149 211 110;#M rgb8 187 9 201;#M rgb9 224 62 37;#M rgb10 7 114 128;#P hidden newex 263 373 81 196617 route $1;#P comment 107 159 162 196617 the function used can be changed :;#P comment 9 289 278 196617 drive mode can be changed as well (e.g. queue \, scheduler...);#P comment 109 309 18 196617 ->;#P window linecount 0;#P message 127 306 227 196617;#P window linecount 1;#N vpatcher 14 59 345 316;#P window setfont "Sans Serif" 9.;#P newex 75 179 62 196617 prepend set;#P outlet 76 199 15 0;#P newex 50 50 206 196617 t b s;#P message 76 94 21 196617 $1;#P newex 76 70 48 196617 loadbang;#P newex 50 135 51 196617 tosymbol;#P newex 50 113 36 196617 zl reg;#P newex 50 158 206 196617 sprintf %s:/ramp/drive %s;#P inlet 50 30 15 0;#P outlet 50 180 15 0;#P connect 1 0 7 0;#P connect 7 0 3 0;#P connect 3 0 4 0;#P connect 4 0 2 0;#P connect 2 0 0 0;#P connect 2 0 9 0;#P connect 5 0 6 0;#P connect 6 0 3 1;#P connect 9 0 8 0;#P connect 7 1 2 1;#P pop;#P hidden newobj 58 306 49 196617 p format;#P user umenu 8 306 100 196647 1 64 322 1;#X add scheduler;#X add queue;#P comment 110 265 18 196617 ->;#P window linecount 0;#P message 128 262 227 196617;#P window linecount 1;#N vpatcher 14 59 345 316;#P window setfont "Sans Serif" 9.;#P newex 75 179 62 196617 prepend set;#P outlet 76 199 15 0;#P newex 50 50 206 196617 t b s;#P message 76 94 21 196617 $1;#P newex 76 70 48 196617 loadbang;#P newex 50 135 51 196617 tosymbol;#P newex 50 113 36 196617 zl reg;#P newex 50 158 253 196617 sprintf %s:/ramp/function/parameter symmetry %s;#P inlet 50 30 15 0;#P outlet 50 180 15 0;#P connect 1 0 7 0;#P connect 7 0 3 0;#P connect 3 0 4 0;#P connect 4 0 2 0;#P connect 2 0 0 0;#P connect 2 0 9 0;#P connect 5 0 6 0;#P connect 6 0 3 1;#P connect 9 0 8 0;#P connect 7 1 2 1;#P pop;#P hidden newobj 59 262 49 196617 p format;#P user umenu 9 262 100 196647 1 64 278 1;#X add none;#X add point;#X add axis;#P message 8 112 137 196617 $1:/+ 0.5 ramp 2000;#P message 95 79 87 196617 $1:/- 0.4;#P message 9 79 83 196617 $1:/+ 0.2;#P comment 111 185 18 196617 ->;#P window linecount 0;#P message 129 182 225 196617;#P window linecount 1;#N vpatcher 14 59 253 308;#P window setfont "Sans Serif" 9.;#P newex 75 179 62 196617 prepend set;#P outlet 76 199 15 0;#P newex 50 50 145 196617 t b s;#P message 76 94 21 196617 $1;#P newex 76 70 48 196617 loadbang;#P newex 50 135 51 196617 tosymbol;#P newex 50 113 36 196617 zl reg;#P newex 50 158 145 196617 sprintf %s:/ramp/function %s;#P inlet 50 30 15 0;#P outlet 50 180 15 0;#P connect 1 0 7 0;#P connect 7 0 3 0;#P connect 3 0 4 0;#P connect 4 0 2 0;#P connect 2 0 0 0;#P connect 2 0 9 0;#P connect 5 0 6 0;#P connect 6 0 3 1;#P connect 9 0 8 0;#P connect 7 1 2 1;#P pop;#P hidden newobj 12 181 49 196617 p format;#P comment 85 330 270 196617 example of setting a parameter of the current ramp drive;#P comment 11 206 276 196617 example of setting a parameter of the power ramp function;#P message 53 328 31 196617 200.;#P message 28 328 23 196617 20.;#P message 9 328 17 196617 5.;#P flonum 9 349 35 9 0 0 0 3 0 0 0 221 221 221 222 222 222 0 0 0;#P message 45 349 263 196617 $1:/ramp/drive/parameter granularity \$1;#P flonum 10 221 35 9 0 0 0 3 0 0 0 221 221 221 222 222 222 0 0 0;#P message 47 222 307 196617 $1:/ramp/function/parameter powerValue \$1;#P hidden newex 488 64 50 196617 loadbang;#P hidden newex 489 112 60 196617 route menu;#P user umenu 11 182 100 196647 1 64 198 1;#X add cosine;#X add linear;#X add lowpass;#X add power;#X add tanh;#P hidden newex 488 88 53 196617 jcom.map;#P window setfont "Sans Serif" 12.;#P comment 12 156 88 196620 Ramp Stuff :;#P user panel 2 150 370 344;#X brgb 199 199 214;#X frgb 0 0 0;#X border 0;#X rounded 0;#X shadow 0;#X done;#P window setfont "Sans Serif" 9.;#P flonum 194 38 35 9 0 0 0 3 0 0 0 221 221 221 222 222 222 0 0 0;#P message 228 38 131 196617 $1 \$1 ramp 2000;#P flonum 194 61 35 9 0 0 0 3 0 0 0 221 221 221 222 222 222 0 0 0;#P message 228 61 134 196617 $1:/stepsize \$1;#P hidden outlet 445 95 15 0;#P comment 196 112 160 196617 change this parameter's datatype;#P comment 8 128 189 196617 output all attributes of this parameter :;#P window setfont "Sans Serif" 18.;#P comment 4 2 298 196626 Addressing attributes Properties;#P user panel 0 0 373 27;#X brgb 152 152 179;#X frgb 0 0 0;#X border 0;#X rounded 0;#X shadow 0;#X done;#P window setfont "Sans Serif" 9.;#P message 7 48 148 196617 $1:/dec;#P message 7 31 148 196617 $1:/inc;#P message 194 125 124 196617 $1:/dump;#P message 194 97 168 196617 $1:/type msg_int;#P message 194 81 168 196617 $1:/type msg_float;#P comment 6 63 182 196617 increase/decrease value by stepsize :;#P comment 145 113 50 196617 w/ ramp;#P comment 9 97 190 196617 inc or dec by the given number of steps.;#P user panel 1 28 372 119;#X brgb 199 199 214;#X frgb 0 0 0;#X border 0;#X rounded 0;#X shadow 0;#X done;#P connect 28 0 27 0;#P connect 29 0 27 0;#P connect 30 0 27 0;#P hidden connect 49 0 50 0;#P hidden fasten 22 0 21 0 494 142 16 142;#P hidden connect 21 1 33 0;#P hidden connect 27 0 26 0;#P hidden connect 25 0 24 0;#P hidden connect 43 1 44 0;#P hidden connect 39 1 40 0;#P hidden connect 44 1 45 0;#P hidden connect 40 1 41 0;#P hidden connect 33 1 34 0;#P hidden connect 17 0 16 0;#P hidden connect 15 0 14 0;#P hidden connect 51 0 49 0;#P hidden connect 26 0 13 0;#P hidden connect 44 0 13 0;#P hidden connect 16 0 13 0;#P hidden connect 14 0 13 0;#P hidden connect 4 0 13 0;#P hidden connect 5 0 13 0;#P hidden connect 6 0 13 0;#P hidden connect 7 0 13 0;#P hidden connect 8 0 13 0;#P hidden connect 33 0 13 0;#P hidden connect 24 0 13 0;#P hidden connect 36 0 13 0;#P hidden connect 37 0 13 0;#P hidden connect 38 0 13 0;#P hidden connect 40 0 13 0;#P hidden connect 23 0 20 0;#P hidden connect 20 1 22 0;#P pop;