{
	"patcher" : 	{
		"rect" : [ 317.0, 369.0, 600.0, 426.0 ],
		"bgcolor" : [ 1.0, 1.0, 1.0, 1.0 ],
		"bglocked" : 1,
		"defrect" : [ 317.0, 369.0, 600.0, 426.0 ],
		"openinpresentation" : 0,
		"default_fontsize" : 10.0,
		"default_fontface" : 0,
		"default_fontname" : "Verdana",
		"gridonopen" : 0,
		"gridsize" : [ 15.0, 15.0 ],
		"gridsnaponopen" : 0,
		"toolbarvisible" : 1,
		"boxfadetime" : 200,
		"boxanimatetime" : 200,
		"scrollanimatetime" : 200,
		"metadata" : [  ],
		"boxes" : [ 			{
				"box" : 				{
					"maxclass" : "flonum",
					"patching_rect" : [ 192.0, 40.0, 39.0, 17.0 ],
					"fontname" : "Verdana",
					"triscale" : 0.9,
					"fontsize" : 8.0,
					"numinlets" : 1,
					"id" : "obj-1",
					"numoutlets" : 2,
					"bgcolor" : [ 0.866667, 0.866667, 0.866667, 1.0 ],
					"outlettype" : [ "float", "bang" ],
					"htextcolor" : [ 0.870588, 0.870588, 0.870588, 1.0 ]
				}

			}
, 			{
				"box" : 				{
					"maxclass" : "message",
					"text" : "#1 $1 ramp 2000",
					"patching_rect" : [ 228.0, 41.0, 141.0, 16.0 ],
					"fontname" : "Verdana",
					"fontsize" : 9.0,
					"numinlets" : 2,
					"id" : "obj-2",
					"numoutlets" : 1,
					"outlettype" : [ "" ]
				}

			}
, 			{
				"box" : 				{
					"maxclass" : "flonum",
					"patching_rect" : [ 194.0, 63.0, 39.0, 17.0 ],
					"fontname" : "Verdana",
					"triscale" : 0.9,
					"fontsize" : 8.0,
					"numinlets" : 1,
					"id" : "obj-3",
					"numoutlets" : 2,
					"bgcolor" : [ 0.866667, 0.866667, 0.866667, 1.0 ],
					"outlettype" : [ "float", "bang" ],
					"htextcolor" : [ 0.870588, 0.870588, 0.870588, 1.0 ]
				}

			}
, 			{
				"box" : 				{
					"maxclass" : "message",
					"text" : "#1:stepsize $1",
					"patching_rect" : [ 227.0, 63.0, 142.0, 16.0 ],
					"fontname" : "Verdana",
					"fontsize" : 9.0,
					"numinlets" : 2,
					"id" : "obj-4",
					"numoutlets" : 1,
					"outlettype" : [ "" ]
				}

			}
, 			{
				"box" : 				{
					"maxclass" : "outlet",
					"patching_rect" : [ 411.0, 213.0, 15.0, 15.0 ],
					"hidden" : 1,
					"numinlets" : 1,
					"id" : "obj-5",
					"numoutlets" : 0,
					"comment" : ""
				}

			}
, 			{
				"box" : 				{
					"maxclass" : "comment",
					"text" : "change this parameter's datatype",
					"patching_rect" : [ 196.0, 115.0, 177.0, 17.0 ],
					"fontname" : "Verdana",
					"fontsize" : 8.0,
					"numinlets" : 1,
					"id" : "obj-6",
					"numoutlets" : 0
				}

			}
, 			{
				"box" : 				{
					"maxclass" : "comment",
					"text" : "output all attributes of this parameter :",
					"patching_rect" : [ 8.0, 128.0, 185.0, 17.0 ],
					"fontname" : "Verdana",
					"fontsize" : 8.0,
					"numinlets" : 1,
					"id" : "obj-7",
					"numoutlets" : 0
				}

			}
, 			{
				"box" : 				{
					"maxclass" : "comment",
					"text" : "change this parameter's rampmode",
					"patching_rect" : [ 9.0, 112.0, 168.0, 17.0 ],
					"fontname" : "Verdana",
					"fontsize" : 8.0,
					"numinlets" : 1,
					"id" : "obj-8",
					"numoutlets" : 0
				}

			}
, 			{
				"box" : 				{
					"maxclass" : "comment",
					"text" : "Addressing attributes Properties",
					"patching_rect" : [ 4.0, 2.0, 321.0, 28.0 ],
					"fontname" : "Verdana",
					"fontsize" : 15.799999,
					"numinlets" : 1,
					"id" : "obj-9",
					"numoutlets" : 0
				}

			}
, 			{
				"box" : 				{
					"maxclass" : "message",
					"text" : "#1:dec",
					"patching_rect" : [ 7.0, 48.0, 164.0, 16.0 ],
					"fontname" : "Verdana",
					"fontsize" : 9.0,
					"numinlets" : 2,
					"id" : "obj-11",
					"numoutlets" : 1,
					"outlettype" : [ "" ]
				}

			}
, 			{
				"box" : 				{
					"maxclass" : "message",
					"text" : "#1:inc",
					"patching_rect" : [ 7.0, 31.0, 163.0, 16.0 ],
					"fontname" : "Verdana",
					"fontsize" : 9.0,
					"numinlets" : 2,
					"id" : "obj-12",
					"numoutlets" : 1,
					"outlettype" : [ "" ]
				}

			}
, 			{
				"box" : 				{
					"maxclass" : "message",
					"text" : "#1:dump",
					"patching_rect" : [ 194.0, 129.0, 157.0, 16.0 ],
					"fontname" : "Verdana",
					"fontsize" : 9.0,
					"numinlets" : 2,
					"id" : "obj-13",
					"numoutlets" : 1,
					"outlettype" : [ "" ]
				}

			}
, 			{
				"box" : 				{
					"maxclass" : "message",
					"text" : "#1:type msg_int",
					"patching_rect" : [ 194.0, 100.0, 178.0, 16.0 ],
					"fontname" : "Verdana",
					"fontsize" : 9.0,
					"numinlets" : 2,
					"id" : "obj-14",
					"numoutlets" : 1,
					"outlettype" : [ "" ]
				}

			}
, 			{
				"box" : 				{
					"maxclass" : "message",
					"text" : "#1:type msg_float",
					"patching_rect" : [ 194.0, 84.0, 178.0, 16.0 ],
					"fontname" : "Verdana",
					"fontsize" : 9.0,
					"numinlets" : 2,
					"id" : "obj-15",
					"numoutlets" : 1,
					"outlettype" : [ "" ]
				}

			}
, 			{
				"box" : 				{
					"maxclass" : "message",
					"text" : "#1:ramp linear",
					"patching_rect" : [ 7.0, 97.0, 169.0, 16.0 ],
					"fontname" : "Verdana",
					"fontsize" : 9.0,
					"numinlets" : 2,
					"id" : "obj-16",
					"numoutlets" : 1,
					"outlettype" : [ "" ]
				}

			}
, 			{
				"box" : 				{
					"maxclass" : "message",
					"text" : "#1:ramp none",
					"patching_rect" : [ 7.0, 81.0, 168.0, 16.0 ],
					"fontname" : "Verdana",
					"fontsize" : 9.0,
					"numinlets" : 2,
					"id" : "obj-17",
					"numoutlets" : 1,
					"outlettype" : [ "" ]
				}

			}
, 			{
				"box" : 				{
					"maxclass" : "comment",
					"text" : "increase\/decrease value by stepsize :",
					"patching_rect" : [ 20.0, 63.0, 201.0, 17.0 ],
					"fontname" : "Verdana",
					"fontsize" : 8.0,
					"numinlets" : 1,
					"id" : "obj-18",
					"numoutlets" : 0
				}

			}
, 			{
				"box" : 				{
					"maxclass" : "panel",
					"patching_rect" : [ 0.0, 0.0, 373.0, 27.0 ],
					"rounded" : 0,
					"numinlets" : 1,
					"id" : "obj-10",
					"numoutlets" : 0,
					"background" : 1,
					"bgcolor" : [ 0.596078, 0.596078, 0.701961, 1.0 ]
				}

			}
, 			{
				"box" : 				{
					"maxclass" : "panel",
					"patching_rect" : [ 0.0, 28.0, 373.0, 123.0 ],
					"rounded" : 0,
					"numinlets" : 1,
					"id" : "obj-19",
					"numoutlets" : 0,
					"background" : 1,
					"bgcolor" : [ 0.780392, 0.780392, 0.839216, 1.0 ]
				}

			}
 ],
		"lines" : [ 			{
				"patchline" : 				{
					"source" : [ "obj-1", 0 ],
					"destination" : [ "obj-2", 0 ],
					"hidden" : 1
				}

			}
, 			{
				"patchline" : 				{
					"source" : [ "obj-3", 0 ],
					"destination" : [ "obj-4", 0 ],
					"hidden" : 1
				}

			}
, 			{
				"patchline" : 				{
					"source" : [ "obj-2", 0 ],
					"destination" : [ "obj-5", 0 ],
					"hidden" : 1
				}

			}
, 			{
				"patchline" : 				{
					"source" : [ "obj-4", 0 ],
					"destination" : [ "obj-5", 0 ],
					"hidden" : 1
				}

			}
, 			{
				"patchline" : 				{
					"source" : [ "obj-15", 0 ],
					"destination" : [ "obj-5", 0 ],
					"hidden" : 1
				}

			}
, 			{
				"patchline" : 				{
					"source" : [ "obj-14", 0 ],
					"destination" : [ "obj-5", 0 ],
					"hidden" : 1
				}

			}
, 			{
				"patchline" : 				{
					"source" : [ "obj-13", 0 ],
					"destination" : [ "obj-5", 0 ],
					"hidden" : 1
				}

			}
, 			{
				"patchline" : 				{
					"source" : [ "obj-16", 0 ],
					"destination" : [ "obj-5", 0 ],
					"hidden" : 1
				}

			}
, 			{
				"patchline" : 				{
					"source" : [ "obj-17", 0 ],
					"destination" : [ "obj-5", 0 ],
					"hidden" : 1
				}

			}
, 			{
				"patchline" : 				{
					"source" : [ "obj-12", 0 ],
					"destination" : [ "obj-5", 0 ],
					"hidden" : 1
				}

			}
, 			{
				"patchline" : 				{
					"source" : [ "obj-11", 0 ],
					"destination" : [ "obj-5", 0 ],
					"hidden" : 1
				}

			}
 ]
	}

}
