max v2;
#N vpatcher 116 231 847 791;
#P window setfont "Sans Serif" 9.;
#P window linecount 1;
#P message 325 137 47 196617 /link \$1;
#P toggle 309 137 15 0;
#P message 6 104 104 196617 /audio/gain -6 3000;
#P comment 6 87 206 196617 Ramp to new value;
#P message 189 207 65 196617 /gain_2:dec;
#P message 282 207 63 196617 /gain_2:inc;
#P message 178 186 115 196617 /gain_2/midi \$1;
#P number 141 186 35 9 0 0 0 3 0 0 0 221 221 221 222 222 222 0 0 0;
#P message 41 186 90 196617 /gain_2 \$1;
#P number 4 186 35 9 0 0 0 3 0 0 0 221 221 221 222 222 222 0 0 0;
#P message 4 207 65 196617 /gain_1:dec;
#P message 96 207 63 196617 /gain_1:inc;
#P message 177 167 115 196617 /gain_1/midi \$1;
#P number 141 166 35 9 0 0 0 3 0 0 0 221 221 221 222 222 222 0 0 0;
#P message 41 165 90 196617 /gain_1 \$1;
#P number 4 165 35 9 0 0 0 3 0 0 0 221 221 221 222 222 222 0 0 0;
#P window setfont "Sans Serif" 12.;
#P comment 4 132 215 196620 Channel gains;
#P hidden outlet 403 372 15 0;
#P window setfont "Sans Serif" 9.;
#P comment 265 50 94 196617 Increase/decrease;
#P message 279 66 82 196617 /audio/gain:dec;
#P message 279 84 80 196617 /audio/gain:inc;
#P message 120 104 130 196617 /audio/gain/midi 0 10000;
#P message 167 66 103 196617 /audio/gain/midi \$1;
#P number 130 66 35 9 0 0 0 3 0 0 0 221 221 221 222 222 222 0 0 0;
#P comment 129 50 115 196617 Set gain in midi units;
#P message 43 66 78 196617 /audio/gain \$1;
#P number 6 66 35 9 0 0 0 3 0 0 0 221 221 221 222 222 222 0 0 0;
#P window setfont "Sans Serif" 18.;
#P comment 3 1 148 196626 Gain Controls;
#P window setfont "Sans Serif" 9.;
#P comment 6 50 75 196617 Set gain in dB;
#P window setfont "Sans Serif" 12.;
#P comment 3 28 112 196620 Master gain;
#P user panel 0 0 373 27;
#X brgb 152 152 179;
#X frgb 0 0 0;
#X border 0;
#X rounded 0;
#X shadow 0;
#X done;
#P background;
#P user panel 0 28 373 97;
#X brgb 199 199 214;
#X frgb 0 0 0;
#X border 0;
#X rounded 0;
#X shadow 0;
#X done;
#P background;
#P user panel 0 126 373 308;
#X brgb 199 199 214;
#X frgb 0 0 0;
#X border 0;
#X rounded 0;
#X shadow 0;
#X done;
#P background;
#P hidden connect 17 0 18 0;
#P hidden connect 23 0 24 0;
#P hidden connect 6 0 7 0;
#P hidden connect 9 0 10 0;
#P hidden connect 19 0 20 0;
#P hidden connect 25 0 26 0;
#P hidden connect 31 0 32 0;
#P hidden connect 30 0 15 0;
#P hidden connect 13 0 15 0;
#P hidden connect 12 0 15 0;
#P hidden connect 11 0 15 0;
#P hidden connect 10 0 15 0;
#P hidden connect 7 0 15 0;
#P hidden connect 28 0 15 0;
#P hidden connect 27 0 15 0;
#P hidden connect 22 0 15 0;
#P hidden connect 21 0 15 0;
#P hidden connect 26 0 15 0;
#P hidden connect 20 0 15 0;
#P hidden connect 24 0 15 0;
#P hidden connect 18 0 15 0;
#P hidden connect 32 0 15 0;
#P pop;
