max v2;
#N vpatcher 116 231 847 791;
#P window setfont "Sans Serif" 9.;
#P window linecount 1;
#P message 325 141 47 196617 /link \$1;
#P toggle 309 141 15 0;
#P message 6 107 104 196617 /audio/gain -6 3000;
#P comment 6 90 206 196617 Ramp to new value;
#P message 189 211 92 196617 /audio/gain_2/dec;
#P message 282 211 90 196617 /audio/gain_2/inc;
#P message 178 190 115 196617 /audio/gain_2/midi \$1;
#P number 141 190 35 9 0 0 0 3 0 0 0 221 221 221 222 222 222 0 0 0;
#P message 41 190 90 196617 /audio/gain_2 \$1;
#P number 4 190 35 9 0 0 0 3 0 0 0 221 221 221 222 222 222 0 0 0;
#P message 4 211 92 196617 /audio/gain_1/dec;
#P message 96 211 90 196617 /audio/gain_1/inc;
#P message 177 171 115 196617 /audio/gain_1/midi \$1;
#P number 141 170 35 9 0 0 0 3 0 0 0 221 221 221 222 222 222 0 0 0;
#P message 41 169 90 196617 /audio/gain_1 \$1;
#P number 4 169 35 9 0 0 0 3 0 0 0 221 221 221 222 222 222 0 0 0;
#P window setfont "Sans Serif" 12.;
#P comment 4 136 215 196620 Channel gains;
#P hidden outlet 403 373 15 0;
#P window setfont "Sans Serif" 9.;
#P comment 244 53 118 196617 Increase/decrease;
#P message 258 69 84 196617 /audio/gain/dec;
#P message 258 87 82 196617 /audio/gain/inc;
#P message 120 106 130 196617 /audio/gain/midi 0 10000;
#P message 150 69 103 196617 /audio/gain/midi \$1;
#P number 113 69 35 9 0 0 0 3 0 0 0 221 221 221 222 222 222 0 0 0;
#P comment 112 53 115 196617 Set gain in midi units;
#P message 43 69 78 196617 /audio/gain \$1;
#P number 6 69 35 9 0 0 0 3 0 0 0 221 221 221 222 222 222 0 0 0;
#P window setfont "Sans Serif" 18.;
#P comment 3 1 148 196626 Gain Controls;
#P window setfont "Sans Serif" 9.;
#P comment 6 53 75 196617 Set gain in dB;
#P window setfont "Sans Serif" 12.;
#P comment 3 31 112 196620 Master gain;
#P user panel 0 0 373 27;
#X brgb 152 152 179;
#X frgb 0 0 0;
#X border 0;
#X rounded 0;
#X shadow 0;
#X done;
#P background;
#P user panel 0 31 373 97;
#X brgb 199 199 214;
#X frgb 0 0 0;
#X border 0;
#X rounded 0;
#X shadow 0;
#X done;
#P background;
#P user panel 0 130 373 308;
#X brgb 199 199 214;
#X frgb 0 0 0;
#X border 0;
#X rounded 0;
#X shadow 0;
#X done;
#P background;
#P hidden connect 17 0 18 0;
#P hidden connect 23 0 24 0;
#P hidden connect 6 0 7 0;
#P hidden connect 9 0 10 0;
#P hidden connect 19 0 20 0;
#P hidden connect 25 0 26 0;
#P hidden connect 31 0 32 0;
#P hidden connect 30 0 15 0;
#P hidden connect 13 0 15 0;
#P hidden connect 12 0 15 0;
#P hidden connect 11 0 15 0;
#P hidden connect 10 0 15 0;
#P hidden connect 7 0 15 0;
#P hidden connect 28 0 15 0;
#P hidden connect 27 0 15 0;
#P hidden connect 22 0 15 0;
#P hidden connect 21 0 15 0;
#P hidden connect 26 0 15 0;
#P hidden connect 20 0 15 0;
#P hidden connect 24 0 15 0;
#P hidden connect 18 0 15 0;
#P hidden connect 32 0 15 0;
#P pop;
