max v2;
#N vpatcher 52 128 783 688;
#P origin -31 -20;
#P toggle 125 73 15 0;
#P window setfont "Sans Serif" 9.;
#P comment 270 75 103 196617 freeze signal meters;
#P message 141 73 127 196617 /audio/meters/freeze \$1;
#P window linecount 2;
#P comment 273 49 103 196617 reduce/increase this module's sample rate;
#P window linecount 1;
#P message 7 72 106 196617 /audio/meters/clear;
#P flonum 126 35 35 9 0 0 0 3 0 0 0 221 221 221 222 222 222 0 0 0;
#P message 162 35 77 196617 /audio/mix \$1;
#P toggle 7 54 15 0;
#P message 24 54 91 196617 /audio/bypass \$1;
#P toggle 7 35 15 0;
#P message 24 35 82 196617 /audio/mute \$1;
#P message 162 54 111 196617 /audio/sample_rate \$1;
#P number 126 54 35 9 -2 2 3 3 0 0 0 221 221 221 222 222 222 0 0 0;
#P window setfont "Sans Serif" 18.;
#P comment 3 2 111 196626 DSP control;
#P user panel 0 0 373 27;
#X brgb 152 152 179;
#X frgb 0 0 0;
#X border 0;
#X rounded 0;
#X shadow 0;
#X done;
#P window setfont "Sans Serif" 9.;
#P message 293 233 47 196617 /link \$1;
#P toggle 277 233 15 0;
#P message 6 199 130 196617 /audio/gain -6 ramp 3000;
#P comment 6 182 206 196617 Ramp to new value;
#P message 189 302 65 196617 /gain_2:dec;
#P message 276 303 63 196617 /gain_2:inc;
#P message 226 281 115 196617 /gain_2/midi \$1;
#P number 189 281 35 9 0 0 0 3 0 0 0 221 221 221 222 222 222 0 0 0;
#P message 41 281 94 196617 /gain_2 \$1;
#P number 4 281 35 9 0 0 0 3 0 0 0 221 221 221 222 222 222 0 0 0;
#P message 4 302 65 196617 /gain_1:dec;
#P message 72 302 63 196617 /gain_1:inc;
#P message 225 260 115 196617 /gain_1/midi \$1;
#P number 189 260 35 9 0 0 0 3 0 0 0 221 221 221 222 222 222 0 0 0;
#P message 41 260 94 196617 /gain_1 \$1;
#P number 4 260 35 9 0 0 0 3 0 0 0 221 221 221 222 222 222 0 0 0;
#P window setfont "Sans Serif" 12.;
#P comment 4 227 215 196620 Channel gains;
#P hidden outlet 403 467 15 0;
#P window setfont "Sans Serif" 9.;
#P comment 265 145 94 196617 Increase/decrease;
#P message 279 161 82 196617 /audio/gain:dec;
#P message 279 179 80 196617 /audio/gain:inc;
#P message 146 199 156 196617 /audio/gain/midi 0 ramp 10000;
#P message 167 161 103 196617 /audio/gain/midi \$1;
#P number 130 161 35 9 0 0 0 3 0 0 0 221 221 221 222 222 222 0 0 0;
#P comment 129 145 115 196617 Set gain in midi units;
#P message 43 161 78 196617 /audio/gain \$1;
#P number 6 161 35 9 0 0 0 3 0 0 0 221 221 221 222 222 222 0 0 0;
#P window setfont "Sans Serif" 18.;
#P comment 3 96 148 196626 Gain Controls;
#P window setfont "Sans Serif" 9.;
#P comment 6 145 75 196617 Set gain in dB;
#P window setfont "Sans Serif" 12.;
#P comment 3 123 112 196620 Master gain;
#P window setfont "Sans Serif" 9.;
#P comment 243 36 100 196617 wet/dry amount (%);
#P user panel 0 28 373 66;
#X brgb 199 199 214;
#X frgb 0 0 0;
#X border 0;
#X rounded 0;
#X shadow 0;
#X done;
#P user panel 0 95 373 27;
#X brgb 152 152 179;
#X frgb 0 0 0;
#X border 0;
#X rounded 0;
#X shadow 0;
#X done;
#P background;
#P user panel 0 123 373 97;
#X brgb 199 199 214;
#X frgb 0 0 0;
#X border 0;
#X rounded 0;
#X shadow 0;
#X done;
#P background;
#P user panel 0 221 373 308;
#X brgb 199 199 214;
#X frgb 0 0 0;
#X border 0;
#X rounded 0;
#X shadow 0;
#X done;
#P background;
#P hidden connect 40 0 39 0;
#P hidden connect 42 0 41 0;
#P hidden connect 19 0 20 0;
#P hidden connect 25 0 26 0;
#P hidden connect 8 0 9 0;
#P hidden connect 49 0 47 0;
#P hidden connect 44 0 43 0;
#P hidden connect 37 0 38 0;
#P hidden connect 11 0 12 0;
#P hidden connect 21 0 22 0;
#P hidden connect 27 0 28 0;
#P hidden connect 33 0 34 0;
#P hidden connect 47 0 17 0;
#P hidden connect 45 0 17 0;
#P hidden connect 43 0 17 0;
#P hidden connect 38 0 17 0;
#P hidden connect 39 0 17 0;
#P hidden connect 41 0 17 0;
#P hidden connect 34 0 17 0;
#P hidden connect 20 0 17 0;
#P hidden connect 26 0 17 0;
#P hidden connect 22 0 17 0;
#P hidden connect 28 0 17 0;
#P hidden connect 23 0 17 0;
#P hidden connect 24 0 17 0;
#P hidden connect 29 0 17 0;
#P hidden connect 30 0 17 0;
#P hidden connect 9 0 17 0;
#P hidden connect 12 0 17 0;
#P hidden connect 13 0 17 0;
#P hidden connect 14 0 17 0;
#P hidden connect 15 0 17 0;
#P hidden connect 32 0 17 0;
#P pop;
