max v2;#N vpatcher 10 59 610 459;#P origin -9 -10;#P hidden outlet 411 213 15 0;#P window setfont "Sans Serif" 9.;#P window linecount 3;#P comment 310 74 61 196617 change this parameter's datatype;#P window linecount 1;#P comment 95 121 176 196617 print all attributes of this parameter;#P window linecount 3;#P comment 118 72 61 196617 change this parameter's rampmode;#P window linecount 1;#P message 181 41 88 196617 $1 1 4000;#P window setfont "Sans Serif" 18.;#P comment 4 2 298 196626 Addressing attributes Properties;#P user panel 0 0 373 27;#X brgb 152 152 179;#X frgb 0 0 0;#X border 0;#X rounded 0;#X shadow 0;#X done;#P window setfont "Sans Serif" 9.;#P message 7 54 71 196617 $1:dec;#P message 7 37 69 196617 $1:inc;#P message 8 120 79 196617 $1:dump;#P message 182 95 115 196617 $1:type msg_int;#P message 182 77 124 196617 $1:type msg_float;#P message 8 94 108 196617 $1:ramp linear;#P message 8 77 102 196617 $1:ramp none;#P message 273 41 94 196617 $1 12 4000;#P window linecount 2;#P comment 80 39 90 196617 increase/decrease value;#P user panel 1 28 373 122;#X brgb 199 199 214;#X frgb 0 0 0;#X border 0;#X rounded 0;#X shadow 0;#X done;#P hidden connect 2 0 16 0;#P hidden connect 5 0 16 0;#P hidden connect 6 0 16 0;#P hidden connect 12 0 16 0;#P hidden connect 7 0 16 0;#P hidden connect 4 0 16 0;#P hidden connect 3 0 16 0;#P hidden connect 8 0 16 0;#P hidden connect 9 0 16 0;#P pop;