max v2;#N vpatcher 170 62 1174 609;#P origin 1 -254;#P window setfont "Sans Serif" 9.;#P window linecount 2;#P hidden newex 147 498 253 196617 jcom.parameter aux3/description @type msg_symbol @description "descriptive text of Aux 3";#P objectname aux3/description;#P hidden newex 147 466 253 196617 jcom.parameter aux2/description @type msg_symbol @description "descriptive text of Aux 2";#P objectname aux2/description;#P hidden newex 147 428 253 196617 jcom.parameter aux1/description @type msg_symbol @description "descriptive text of Aux 1";#P objectname aux1/description;#P window linecount 1;#P message 103 46 77 196617 Aux_3;#P message 103 18 77 196617 Aux_1;#P objectname text1;#P message 103 32 77 196617 Aux_2;#P comment 4 40 35 196617 Input:;#B frgb 172 172 172;#P user jsui 179 46 25 14 1 0 0 jcom.jsui_texttoggle.js off on 68 68 68 225 225 225 121 255 15;#P objectname active3;#P user jsui 179 32 25 14 1 0 0 jcom.jsui_texttoggle.js off on 68 68 68 225 225 225 121 255 15;#P objectname active2;#P hidden newex 673 470 68 196617 pvar active3;#P hidden newex 748 469 390 196617 jcom.parameter aux3/active @type msg_toggle @description "switch Bus 3 on/off";#P objectname aux3/active;#P hidden newex 673 447 68 196617 pvar active2;#P hidden newex 748 447 390 196617 jcom.parameter aux2/active @type msg_toggle @description "switch Bus 2 on/off";#P objectname aux2/active;#P user jsui 179 18 25 14 1 0 0 jcom.jsui_texttoggle.js off on 68 68 68 225 225 225 121 255 15;#P objectname active1;#P hidden newex 673 424 68 196617 pvar active1;#P hidden newex 748 423 390 196617 jcom.parameter aux1/active @type msg_toggle @description "switch Bus 1 on/off";#P objectname aux1/active;#P comment 142 217 32 196617 Aux 3;#B frgb 172 172 172;#P comment 138 246 32 196617 Aux 2;#B frgb 172 172 172;#P comment 142 198 32 196617 Aux 1;#B frgb 172 172 172;#P bpatcher 204 47 49 13 0 0 jcom.numberslider.mxt 0 0.4 0. 158. @size 50 12;#P window linecount 2;#P newex 647 132 282 196617 jcom.parameter.gain aux3/gain @repetitions 0 @description "gain of the input cable applied to all aux bus 3";#P objectname aux3/gain;#P bpatcher 204 33 49 13 0 0 jcom.numberslider.mxt 0 0.4 0. 158. @size 50 12;#P newex 645 98 271 196617 jcom.parameter.gain aux2/gain @repetitions 0 @description "gain of the input cable applied to aux bus 2";#P objectname aux2/gain;#P bpatcher 204 19 49 13 0 0 jcom.numberslider.mxt 0 0.4 0. 158. @size 50 12;#P newex 645 63 271 196617 jcom.parameter.gain aux1/gain @repetitions 0 @description "gain of the input cable applied to aux bus 1";#P objectname aux1/gain;#P bpatcher 41 38 50 15 0 0 jcom.numberslider.mxt 0 0.4 0. 158. @size 50 14;#P window linecount 1;#N vpatcher 497 319 1097 719;#P outlet 56 179 15 0;#P button 137 29 15 0;#P window setfont "Sans Serif" 9.;#P hidden message 60 91 64 196617 rgb2 66 0 2;#P hidden message 221 89 92 196617 frgb 181 181 181;#P hidden message 138 91 75 196617 brgb 47 46 36;#P newex 83 58 50 196617 deferlow;#P newex 83 30 48 196617 loadbang;#P connect 3 0 6 0;#P connect 2 0 6 0;#P connect 4 0 6 0;#P connect 1 0 4 0;#P connect 0 0 1 0;#P connect 5 0 1 0;#P connect 1 0 2 0;#P connect 1 0 3 0;#P pop;#P newobj 318 108 46 196617 p colors;#N thispatcher;#Q end;#P hidden newobj 318 154 61 196617 thispatcher;#N vpatcher 188 431 335 589;#P button 41 33 15 0;#P window setfont "Sans Serif" 9.;#P newex 41 54 50 196617 deferlow;#P newex 41 75 50 196617 t front;#P outlet 41 103 15 0;#P inlet 41 15 15 0;#P connect 0 0 4 0;#P connect 4 0 3 0;#P connect 3 0 2 0;#P connect 2 0 1 0;#P pop;#P hidden newobj 318 132 14 196617 p;#P window linecount 2;#P newex 644 27 282 196617 jcom.parameter.gain input/gain @repetitions 0 @description "gain of the input cable applied to all aux busses";#P objectname input/gain;#P hidden outlet 465 461 13 0;#P window linecount 1;#P hidden comment 482 461 146 196617 ---multicable signal output3--;#P hidden outlet 428 431 13 0;#P hidden comment 445 431 146 196617 ---multicable signal output2--;#P hidden message 112 85 191 196617 /preset/store 1 default \, /preset/write;#B color 3;#P hidden message 120 107 125 196617 /documentation/generate;#B color 3;#P hidden message 251 107 31 196617 /init;#P hidden newex 255 389 49 196617 jcom.out;#P hidden newex 255 211 43 196617 jcom.in;#P hidden newex 255 233 84 196617 jcom.pass open;#P hidden newex 255 258 47 196617 pcontrol;#P hidden message 345 254 20 196617 \$2;#P hidden newex 345 233 72 196617 route mute;#P hidden newex 345 273 38 196617 mute~;#P comment 10 67 198 196617 Voices are only updated when audio is off.;#B frgb 172 172 172;#P window linecount 2;#P hidden newex 727 274 331 196617 jcom.parameter mute @type msg_toggle @description "When active\\\, this attribute turns off the module's processing algorithm to save CPU";#P objectname mute;#P window linecount 1;#P hidden newex 727 252 56 196617 pvar Mute;#P objectname jcom.parameter;#P user pictctrl 238 4 11 11 jcom.button.mute.pct 0 0 1 1 26 0 0 0 11 11 128 0 1 10 2 1 1 270;#P objectname Mute;#P hidden outlet 386 400 13 0;#P hidden inlet 468 178 13 0;#P comment 1 22 41 196617 Voices;#B frgb 172 172 172;#P number 43 20 35 9 1 32 8227 3 198 198 198 221 221 221 222 222 222 0 0 0;#P objectname Voices;#P hidden newex 727 333 63 196617 pvar Voices;#P window linecount 3;#P hidden newex 727 355 300 196617 jcom.parameter voices @type msg_int @repetitions 0 @range 1 32 @clipmode both @description "The number of audio channels in that multi~ cable. Changes only take effect when audio is off.";#P objectname voices;#P window linecount 2;#P hidden message 25 485 65 196617 \; max refresh;#P window linecount 1;#P hidden comment 14 121 79 196617 command input;#P hidden inlet 0 121 13 0;#P window linecount 2;#P hidden message 25 453 72 196617 \; jmod.init bang;#P window linecount 1;#P hidden newex 345 357 133 196617 jalg.sur.multi.aux~.mxt;#P hidden comment 388 152 155 196617 ----multicable signal input----;#P hidden outlet 0 237 13 0;#P hidden comment 399 400 146 196617 ---multicable signal output 1--;#P window linecount 2;#P hidden newex 0 140 314 196617 jcom.hub jmod.sur.multi.aux~ @size 1U-half @module_type audio.no_panel @description "auxiluaries for multichannel modules";#P objectname jalg.hub;#P bpatcher 0 0 256 60 0 0 jcom.gui.mxt 0;#P objectname jmod.gui.1Uh.a.stereo.mxt;#P hidden fasten 27 0 1 0 256 136 5 136;#P hidden fasten 28 0 1 0 125 136 5 136;#P hidden fasten 29 0 1 0 117 136 5 136;#P hidden connect 7 0 1 0;#P hidden connect 1 0 3 0;#P hidden connect 37 0 38 0;#P hidden connect 34 0 38 0;#P hidden connect 61 0 59 0;#P hidden connect 62 0 58 0;#P hidden connect 63 0 60 0;#P hidden connect 59 0 61 0;#P hidden connect 58 0 62 0;#P hidden connect 60 0 63 0;#P hidden connect 39 0 40 0;#P hidden connect 41 0 42 0;#P hidden connect 43 0 44 0;#P hidden connect 25 0 24 0;#P hidden connect 24 0 23 0;#P hidden fasten 5 0 26 0 350 381 260 381;#P connect 37 0 35 0;#P hidden connect 35 0 36 0;#P hidden connect 24 1 21 0;#P hidden connect 21 0 22 0;#P hidden connect 22 0 20 0;#P hidden fasten 21 1 5 0 412 293 350 293;#P hidden connect 20 0 5 0;#P hidden fasten 23 0 5 0 260 299 350 299;#P connect 5 1 15 0;#P connect 5 2 31 0;#P connect 5 3 33 0;#P connect 14 0 5 1;#P hidden connect 38 0 34 0;#P hidden connect 40 0 39 0;#P hidden connect 42 0 41 0;#P hidden connect 44 0 43 0;#P connect 48 0 49 0;#P connect 51 0 52 0;#P connect 53 0 54 0;#P hidden fasten 18 0 17 0 732 307 721 307 721 247 732 247;#P hidden connect 17 0 18 0;#P hidden fasten 10 0 11 0 732 403 722 403 722 326 732 326;#P hidden connect 11 0 10 0;#P hidden connect 49 0 48 0;#P hidden connect 52 0 51 0;#P hidden connect 54 0 53 0;#P pop;