max v2;
#N vpatcher 82 47 862 569;
#P origin -28 -10;
#P window setfont "Sans Serif" 9.;
#P window linecount 1;
#P message 386 186 14 9109513 0;
#P newex 386 208 86 9109513 prepend /playoff;
#P newex 300 299 285 9109513 jcom.return data @description "data output in FTM format";
#N vpatcher 15 55 615 455;
#N comlet Segment beginning;
#P outlet 211 259 15 0;
#N comlet Segment end;
#P outlet 268 259 15 0;
#P objectname Segment;
#N comlet Speed;
#P outlet 325 259 15 0;
#P window setfont "Sans Serif" 9.;
#P window linecount 1;
#P message 411 156 33 9109513 locate;
#P message 411 138 29 9109513 next;
#P newex 40 81 354 9109513 jcom.oscroute /play /time /pause /beginning /end /speed;
#P inlet 40 47 15 0;
#P newex 154 146 54 9109513 sel 1 0;
#P message 187 169 26 9109513 play;
#P message 40 169 26 9109513 play;
#P newex 40 146 52 9109513 sel 1 0;
#P message 154 169 33 9109513 pause;
#P message 97 169 55 9109513 jump \$1;
#P message 66 169 26 9109513 stop;
#P outlet 40 259 15 0;
#P window linecount 0;
#P comment 408 109 138 9109513 control messages still to be implemented:;
#P connect 9 0 10 0;
#P connect 10 0 5 0;
#P connect 5 0 6 0;
#P fasten 7 0 1 0 192 222 45 222;
#P fasten 6 0 1 0 45 222 45 222;
#P fasten 2 0 1 0 71 222 45 222;
#P fasten 4 0 1 0 159 222 45 222;
#P fasten 3 0 1 0 102 222 45 222;
#P fasten 5 1 2 0 66 167 71 167;
#P connect 10 1 3 0;
#P connect 10 2 8 0;
#P connect 8 0 4 0;
#P fasten 8 1 7 0 181 167 192 167;
#P connect 10 3 15 0;
#P connect 10 4 14 0;
#P connect 10 5 13 0;
#P pop;
#P newobj 300 127 95 9109513 p player_controls;
#N vpatcher 10 59 610 459;
#P inlet 88 73 15 0;
#P window setfont "Sans Serif" 9.;
#P message 193 128 32 9109513 XVSY;
#P message 158 128 33 9109513 XEMG;
#P message 123 128 31 9109513 XPOL;
#P message 88 128 31 9109513 XXYZ;
#P newex 88 97 66 9109513 sel 0 1 2 3;
#P outlet 88 162 15 0;
#P connect 6 0 1 0;
#P connect 1 0 2 0;
#P connect 5 0 0 0;
#P connect 4 0 0 0;
#P connect 3 0 0 0;
#P connect 2 0 0 0;
#P connect 1 1 3 0;
#P connect 1 2 4 0;
#P connect 1 3 5 0;
#P pop;
#P newobj 79 142 85 9109513 p win-simulation;
#P window linecount 3;
#P newex 343 236 190 9109513 jcom.return time @range 0. 1000000. @clipmode low @description "Current playing position (in milliseconds)";
#P outlet 11 386 15 0;
#P user ftm.mess 79 216 62 15 3 9 255 255 255 0 0 0 1 2 0 0 --> 0;
#T _#ftm version 2 2;
#T _#scope begin;
#T _#absargs $0_ $1_ $2_ $3_ $4_ $5_ $6_ $7_ $8_ $9_;
#T _#line "_($1 duration)";
#P newex 79 234 204 9109513 jcom.return duration @range 0. 1000000. @clipmode low @description "Size of the chosen SDIF stream (in milliseconds)";
#P user ftm.mess 79 177 114 15 3 9 255 255 255 0 0 0 1 2 0 0 --> 0;
#T _#line "_clear\, import $2 $1\, bang";
#P user ftm.object 79 195 59 18 3 9 --> 0;
#T _#obj 1 track fmat;
#T _#obj 2 sequence fmat;
#T _#mess 1 events _#2;
#T _#obj 3 sequence marker;
#T _#mess 1 markers _#3;
#T _#obj 4 sequence metric;
#T _#mess 1 metric _#4;
#T _#obj 5 sequence number;
#T _#mess 1 tempo _#5;
#T _#def 1 "_track fmat" track1 local;
#P window linecount 1;
#N ftm.play $track1 --> 0;
#T _#scope end;
#P newobj 300 157 96 9109513 ftm.play $track1;
#P newex 11 81 147 9109513 jcom.oscroute /file /stream;
#P inlet 11 42 15 0;
#P objectname inlet;
#N vpatcher 165 21 510 384;
#P origin 14 62;
#P button 26 73 15 0;
#P inlet 26 40 15 0;
#P outlet 242 284 15 0;
#P window setfont "Sans Serif" 9.;
#P newex 26 231 33 9109513 del 50;
#P newex 26 145 33 9109513 del 50;
#P newex 26 188 33 9109513 del 50;
#P message 256 235 28 9109513 clear;
#P newex 26 102 33 9109513 del 50;
#P message 56 254 184 9109513 append XVSY (with 1 rows and 1 columns);
#P message 56 168 183 9109513 append XPOL (with 2 rows and 6 columns);
#P message 56 125 183 9109513 append XXYZ (with 9 rows and 3 columns);
#P message 56 210 185 9109513 append XEMG (with 2 rows and 1 columns);
#P fasten 10 0 11 0 31 63 31 63;
#P connect 11 0 4 0;
#P connect 4 0 7 0;
#P connect 7 0 6 0;
#P connect 6 0 8 0;
#P fasten 4 0 1 0 31 123 61 123;
#P fasten 7 0 2 0 31 166 61 166;
#P fasten 6 0 0 0 31 208 61 208;
#P fasten 8 0 3 0 31 252 61 252;
#P fasten 5 0 9 0 261 276 247 276;
#P fasten 2 0 9 0 61 190 247 190;
#P fasten 1 0 9 0 61 152 247 152;
#P fasten 3 0 9 0 61 276 247 276;
#P fasten 0 0 9 0 61 235 247 235;
#P fasten 11 0 5 0 31 98 261 98;
#P pop;
#P newobj 11 332 124 9109513 p temporary_win_simulation;
#P connect 1 0 2 0;
#P connect 2 0 0 0;
#P connect 0 0 8 0;
#P fasten 13 0 8 0 391 229 594 229 594 366 16 366;
#P connect 2 1 10 0;
#P connect 10 0 5 0;
#P connect 5 0 4 0;
#P connect 4 0 7 0;
#P connect 7 0 6 0;
#P fasten 2 0 5 1 16 293 286 293 286 170 188 170;
#P fasten 2 2 11 0 152 103 305 103;
#P connect 11 0 3 0;
#P connect 3 0 12 0;
#P connect 11 1 3 1;
#P connect 3 1 9 0;
#P connect 11 2 3 2;
#P connect 11 3 3 3;
#P connect 3 2 14 0;
#P connect 14 0 13 0;
#P pop;
