max v2;
#N vpatcher 44 178 1058 757;
#P origin -44 -269;
#P window setfont "Sans Serif" 9.;
#P window linecount 1;
#P hidden message 61 130 191 9109513 /preset/store 1 default \, /preset/write;
#B color 3;
#P window linecount 2;
#P hidden message 275 265 75 9109513 \; jcom.init bang;
#P window linecount 1;
#P hidden message 141 328 222 9109513 /time 6837;
#P hidden newex 141 307 62 9109513 prepend set;
#P hidden message 88 148 125 9109513 /documentation/generate;
#P hidden comment 223 447 307 9109513 The windows problems are due to a bug in the ftm.sdif.info object.;
#P hidden newex 89 78 52 9109513 s macwin;
#P toggle 108 40 15 0;
#P comment 86 41 36 9109513 Win.;
#B frgb 181 181 181;
#P window linecount 2;
#P hidden newex 580 353 184 9109513 jcom.message file @type msg_symbol @description "SDIF file to read";
#P objectname jalg.sdif.player[4];
#P window linecount 1;
#P comment 9 41 36 9109513 Speed:;
#B frgb 181 181 181;
#P comment 2 21 43 9109513 Stream:;
#B frgb 181 181 181;
#P flonum 46 40 28 9 0. 0 8225 139 181 181 181 221 221 221 222 222 222 0 0 0;
#P objectname speed;
#P hidden newex 580 154 55 9109513 pvar speed;
#P window linecount 2;
#P hidden newex 580 178 281 9109513 jcom.parameter speed @type msg_float @range 0 5 @clipmode low @description "Playing speed of SDIF stream";
#P objectname speed[1];
#P window linecount 1;
#P hidden newex 580 31 100 9109513 pvar pause_button;
#P hidden newex 580 56 277 9109513 jcom.parameter pause @description "Pause SDIF stream.";
#P objectname pause;
#P user jsui 208 40 45 19 3 0 0 jcom.jsui_texttoggle.js Pause Pause 68 68 68 225 225 225 255 255 40 0 0 0;
#P objectname pause_button;
#P hidden message 275 234 56 9109513 set 1 \$1;
#P hidden newex 580 289 56 9109513 pvar time 2;
#P objectname jalg.sdif.player[2];
#P window linecount 2;
#P hidden newex 580 312 180 9109513 jcom.message time @type msg_int @description "Current playing time";
#P objectname jalg.sdif.player[1];
#P window linecount 1;
#P hidden message 342 234 83 9109513 setminmax 0 \$1;
#P hidden newex 275 212 147 9109513 jcom.oscroute /time /duration;
#P objectname jalg.sdif.player[5];
#P user multiSlider 127 40 80 16 0. 66656.0625 1 2920 47 0 0 2 0 0 1;
#M frgb 91 91 91;
#M brgb 173 173 173;
#M rgb2 127 127 127;
#M rgb3 0 0 0;
#M rgb4 37 52 91;
#M rgb5 74 105 182;
#M rgb6 112 158 18;
#M rgb7 149 211 110;
#M rgb8 187 9 201;
#M rgb9 224 62 37;
#M rgb10 7 114 128;
#P objectname time;
#P user jsui 208 20 45 19 3 0 0 jcom.jsui_texttoggle.js Play Play 68 68 68 225 225 225 40 255 40 0 0 0;
#P objectname play_button;
#P hidden newex 580 86 93 9109513 pvar play_button;
#P window linecount 2;
#P hidden newex 580 110 197 9109513 jcom.parameter play @type msg_toggle @description "Play SDIF stream.";
#P objectname play;
#P hidden newex 580 246 254 9109513 jcom.parameter stream @type msg_int @repetitions 0 @description "Number of the SDIF stream";
#P objectname stream[1];
#P window linecount 1;
#P hidden newex 580 222 73 9109513 pvar stream;
#P user ubumenu 46 20 161 9109513 0 1 1 0;
#X prefix_set 0 0 <none> 0;
#P objectname stream;
#P hidden newex 58 251 43 9109513 jcom.in;
#P hidden newex 58 299 45 9109513 pcontrol;
#P hidden newex 58 275 78 9109513 jcom.pass open;
#P window linecount 2;
#P hidden message 205 265 65 9109513 \; max refresh;
#P window linecount 1;
#P hidden message 214 148 31 9109513 /init;
#P hidden newex 58 356 84 9109513 jalg.sdif.player;
#P objectname jalg.sdif.player;
#P window linecount 2;
#P hidden newex 25 173 288 9109513 jcom.hub jmod.sdif.player.mxt @size 1U-half @module_type control @description "Single stream SDIF file player";
#P objectname jcom.hub;
#P hidden inlet 25 149 13 0;
#P hidden outlet 25 375 13 0;
#P window linecount 3;
#P hidden comment 223 409 307 9109513 Please note that this module does not work on windows. However \, a simple demonstration of functionality is also avaliable on Windows by marking "Win." in the module;
#P bpatcher 0 0 256 61 0 0 jcom.gui.mxt 0 $0_;
#P objectname jcom.gui.audio-component.mxt;
#P hidden connect 40 0 4 0;
#P hidden connect 36 0 4 0;
#P hidden fasten 6 0 4 0 219 169 30 169;
#P hidden connect 3 0 4 0;
#P hidden connect 4 0 2 0;
#P hidden fasten 5 0 11 0 63 449 -9 449 -9 17 51 17;
#P hidden connect 10 0 8 0;
#P hidden connect 8 0 9 0;
#P hidden fasten 8 1 5 0 131 349 63 349;
#P hidden connect 9 0 5 0;
#P hidden connect 33 0 34 0;
#P hidden fasten 19 0 17 0 347 254 428 254 428 37 132 37;
#P hidden fasten 22 0 17 0 280 254 428 254 428 37 132 37;
#P hidden fasten 8 1 37 0 131 299 146 299;
#P hidden connect 37 0 38 0;
#P hidden fasten 4 0 18 0 30 208 280 208;
#P hidden connect 18 0 22 0;
#P hidden connect 18 1 19 0;
#P hidden fasten 24 0 25 0 585 80 576 80 576 27 585 27;
#P hidden connect 25 0 24 0;
#P hidden fasten 14 0 15 0 585 146 576 146 576 82 585 82;
#P hidden connect 15 0 14 0;
#P hidden fasten 26 0 27 0 585 214 576 214 576 148 585 148;
#P hidden connect 27 0 26 0;
#P hidden fasten 13 0 12 0 585 282 576 282 576 216 585 216;
#P hidden connect 12 0 13 0;
#P hidden fasten 20 0 21 0 585 347 576 347 576 284 585 284;
#P hidden fasten 21 1 20 0 631 310 585 310;
#P pop;
