max v2;#N vpatcher 42 375 944 943;#P origin -124 -469;#P window setfont "Sans Serif" 9.;#P window linecount 1;#P hidden newex 58 465 148 196617 jcom.oscroute /toubu /playoff;#P hidden comment 150 399 100 196617 To be removed;#P hidden newex 74 367 27 196617 + 1;#P hidden newex 89 393 47 196617 gate 2 1;#P hidden newex 74 344 52 196617 r macwin;#P hidden newex 146 424 101 196617 jalg.sdif.player_win;#P objectname jalg.sdif.player[3];#P hidden message 581 312 56 196617 set 1 \$1;#P hidden message 61 130 191 196617 /preset/store 1 default \, /preset/write;#B color 3;#P window linecount 2;#P hidden message 275 265 75 196617 \; jcom.init bang;#P window linecount 1;#P hidden message 141 323 406 196617 /stream 0;#P hidden newex 141 304 62 196617 prepend set;#P hidden message 88 148 125 196617 /documentation/generate;#P hidden comment 254 404 307 196617 The windows problems are due to a bug in the ftm.sdif.info object.;#P hidden newex 108 76 52 196617 s macwin;#P toggle 108 40 15 0;#P comment 86 41 36 196617 Win.;#B frgb 181 181 181;#P window linecount 2;#P hidden newex 580 394 184 196617 jcom.message file @type msg_symbol @description "SDIF file to read";#P objectname jalg.sdif.player[4];#P window linecount 1;#P comment 9 41 36 196617 Speed:;#B frgb 181 181 181;#P comment 2 21 43 196617 Stream:;#B frgb 181 181 181;#P flonum 46 40 28 9 0. 0 8225 3 181 181 181 221 221 221 222 222 222 0 0 0;#P objectname speed;#P hidden newex 580 178 55 196617 pvar speed;#P window linecount 2;#P hidden newex 580 202 281 196617 jcom.parameter speed @type msg_float @range 0 5 @clipmode low @description "Playing speed of SDIF stream";#P objectname speed[1];#P window linecount 1;#P hidden newex 580 31 100 196617 pvar pause_button;#P hidden newex 580 56 277 196617 jcom.parameter pause @description "Pause SDIF stream.";#P objectname pause;#P user jsui 208 40 45 19 3 0 0 jcom.jsui_texttoggle.js Pause Pause 68 68 68 225 225 225 255 255 40 0 0 0;#P objectname pause_button;#P hidden message 275 236 56 196617 set 1 \$1;#P window linecount 2;#P hidden newex 580 353 180 196617 jcom.message time @type msg_int @description "Current playing time";#P objectname jalg.sdif.player[1];#P window linecount 1;#P hidden message 344 236 83 196617 setminmax 0 \$1;#P hidden newex 275 212 149 196617 jcom.oscroute /time /duration;#P objectname jalg.sdif.player[5];#P user multiSlider 127 40 80 16 0. 228499.328125 1 2920 47 0 0 2 0 0 1;#M frgb 91 91 91;#M brgb 173 173 173;#M rgb2 127 127 127;#M rgb3 0 0 0;#M rgb4 37 52 91;#M rgb5 74 105 182;#M rgb6 112 158 18;#M rgb7 149 211 110;#M rgb8 187 9 201;#M rgb9 224 62 37;#M rgb10 7 114 128;#P objectname time;#P user jsui 208 20 45 19 3 0 0 jcom.jsui_texttoggle.js Play Play 68 68 68 225 225 225 40 255 40 0 0 0;#P objectname play_button;#P hidden newex 580 110 93 196617 pvar play_button;#P window linecount 2;#P hidden newex 580 134 197 196617 jcom.parameter play @type msg_toggle @description "Play SDIF stream.";#P objectname play;#P hidden newex 580 270 247 196617 jcom.parameter stream @type msg_int @repetitions 1 @description "Number of the SDIF stream";#P objectname stream[1];#P window linecount 1;#P hidden newex 580 246 73 196617 pvar stream;#P user ubumenu 46 20 161 196617 0 1 1 0;#X prefix_set 0 0 <none> 0;#P objectname stream;#P hidden newex 58 251 43 196617 jcom.in;#P hidden newex 58 299 45 196617 pcontrol;#P hidden newex 58 275 78 196617 jcom.pass open;#P window linecount 2;#P hidden message 205 265 65 196617 \; max refresh;#P window linecount 1;#P hidden message 214 148 31 196617 /init;#P hidden newex 58 424 84 196617 jalg.sdif.player;#P objectname jalg.sdif.player;#P window linecount 2;#P hidden newex 25 173 269 196617 jcom.hub jmod.sdif.player @size 1U-half @module_type control @description "Single stream SDIF file player";#P objectname jcom.hub;#P hidden inlet 25 149 13 0;#P hidden outlet 25 375 13 0;#P window linecount 3;#P hidden comment 254 366 307 196617 Please note that this module does not work on windows. However \, a simple demonstration of functionality is also avaliable on Windows by marking "Win." in the module;#P window linecount 1;#P hidden newex 580 330 54 196617 pvar time;#P objectname jalg.sdif.player[2];#P hidden user panel 144 392 115 75;#X brgb 214 214 214;#X frgb 0 0 0;#X border 0;#X rounded 0;#X shadow 0;#X done;#P hidden user panel 68 340 115 75;#X brgb 214 214 214;#X frgb 0 0 0;#X border 0;#X rounded 0;#X shadow 0;#X done;#P bpatcher 0 0 256 61 0 0 jcom.gui.mxt 0 $0_;#P objectname jcom.gui.audio-component.mxt;#P hidden connect 6 0 7 0;#P hidden fasten 9 0 7 0 219 169 30 169;#P hidden connect 38 0 7 0;#P hidden connect 42 0 7 0;#P hidden connect 7 0 5 0;#P hidden fasten 49 0 14 0 63 491 -9 491 -9 16 51 16;#P hidden connect 13 0 11 0;#P hidden connect 11 0 12 0;#P hidden fasten 46 0 8 0 94 417 63 417;#P hidden connect 12 0 8 0;#P hidden connect 8 0 49 0;#P hidden connect 44 0 49 0;#P hidden connect 45 0 47 0;#P hidden connect 47 0 46 0;#P hidden connect 35 0 36 0;#P hidden connect 11 1 46 1;#P hidden fasten 22 0 20 0 349 254 529 254 529 37 132 37;#P hidden fasten 24 0 20 0 280 254 529 254 529 37 132 37;#P hidden fasten 11 1 39 0 131 299 146 299;#P hidden connect 39 0 40 0;#P hidden fasten 46 1 44 0 131 417 151 417;#P hidden fasten 7 0 21 0 30 205 280 205;#P hidden connect 21 0 24 0;#P hidden connect 21 1 22 0;#P hidden fasten 26 0 27 0 585 80 576 80 576 27 585 27;#P hidden connect 27 0 26 0;#P hidden fasten 17 0 18 0 585 170 576 170 576 106 585 106;#P hidden fasten 49 1 18 0 132 489 562 489 562 101 585 101;#P hidden connect 18 0 17 0;#P hidden fasten 28 0 29 0 585 238 576 238 576 172 585 172;#P hidden connect 29 0 28 0;#P hidden fasten 16 0 15 0 585 306 576 306 576 240 585 240;#P hidden connect 15 0 16 0;#P hidden connect 43 0 3 0;#P hidden connect 3 0 23 0;#P hidden fasten 23 1 43 0 670 385 577 385 577 310 586 310;#P pop;