max v2;#N vpatcher 135 408 901 868;#P window setfont "Sans Serif" 9.;#P window linecount 1;#P newex 10 272 120 196617 udpsend 127.0.0.1 7400;#P newex 623 192 21 196617 t 2;#P newex 591 192 27 196617 1;#P newex 591 221 47 196617 gate 2 1;#P newex 591 171 42 196617 sel null;#P newex 296 80 62 196617 prepend set;#P newex 367 80 30 196617 t b s;#P newex 296 105 101 196617 pack s s;#P newex 367 59 51 196617 tosymbol;#P newex 296 126 72 196617 sprintf %s%s;#P newex 296 59 51 196617 tosymbol;#P toggle 259 242 15 0;#P window linecount 4;#P comment 12 292 119 196617 Regular IP send \, using udpsend/receive which are more efficient than the mxj ones.;#P toggle 508 286 15 0;#P window linecount 1;#P newex 425 281 73 196617 prepend group;#P newex 508 366 152 196617 mxj net.multi.recv @port 7500;#P newex 575 333 63 196617 pack leave l;#P newex 508 333 56 196617 pack join l;#P newex 342 281 67 196617 prepend port;#P newex 508 309 41 196617 sel 1 0;#P newex 259 262 27 196617 + 1;#P newex 259 282 47 196617 gate 2 1;#P newex 342 366 151 196617 mxj net.multi.send @port 7500;#P newex 10 174 67 196617 prepend host;#P newex 93 174 67 196617 prepend port;#P newex 176 337 67 196617 prepend port;#P outlet 176 413 15 0;#P inlet 707 27 15 0;#P newex 176 359 86 196617 udpreceive 7400;#P newex 10 149 676 196617 jcom.oscroute /send_host /send_port /receive_port /mode /multicast_port /multicast_ip /multicast_join /osc_prefix;#P inlet 10 28 15 0;#P comment 422 405 209 196617 This part is dealing with the multicast stuff.;#P comment 326 28 382 196617 OSC-messages coming in and being routed to either the single or multicast objects.;#P connect 2 0 3 0;#P connect 3 0 9 0;#P connect 11 0 32 0;#P connect 9 0 32 0;#P connect 8 0 32 0;#P connect 3 1 8 0;#P connect 3 2 7 0;#P connect 7 0 4 0;#P connect 4 0 6 0;#P fasten 17 0 6 0 513 390 181 390;#P connect 3 3 21 0;#P connect 21 0 12 0;#P connect 12 0 11 0;#P connect 28 1 22 0;#P connect 22 0 27 0;#P connect 26 0 25 0;#P connect 27 0 25 0;#P connect 25 0 23 0;#P connect 23 0 11 1;#P connect 29 0 11 1;#P connect 3 4 14 0;#P connect 14 0 10 0;#P connect 18 0 10 0;#P connect 11 1 10 0;#P connect 29 1 24 0;#P connect 24 0 26 0;#P connect 26 1 25 1;#P connect 3 5 18 0;#P connect 3 6 19 0;#P connect 19 0 13 0;#P connect 13 0 15 0;#P connect 14 0 17 0;#P connect 16 0 17 0;#P connect 15 0 17 0;#P connect 3 5 15 1;#P connect 13 1 16 0;#P connect 3 7 28 0;#P connect 28 0 30 0;#P connect 31 0 29 0;#P connect 30 0 29 0;#P connect 28 1 31 0;#P fasten 5 0 29 1 712 217 633 217;#P connect 3 5 16 1;#P pop;