max v2;#N vpatcher 206 117 827 798;#P origin -42 13;#P window setfont "Sans Serif" 9.;#P window linecount 1;#P comment 134 278 163 196617 Converts to ASCII;#N vpatcher 317 239 561 584;#P inlet 54 41 15 0;#P outlet 54 266 15 0;#P window setfont "Sans Serif" 9.;#P message 171 145 14 196617 j;#P message 158 145 14 196617 i;#P message 145 145 14 196617 h;#P message 132 145 14 196617 g;#P message 119 145 14 196617 f;#P message 106 145 14 196617 e;#P message 93 145 14 196617 d;#P message 80 145 14 196617 c;#P message 67 145 14 196617 b;#P message 54 145 14 196617 a;#P newex 54 99 144 196617 select 0 1 2 3 4 5 6 7 8 9;#P newex 54 228 67 196617 prepend port;#P connect 13 0 1 0;#P connect 1 0 2 0;#P connect 2 0 0 0;#P connect 3 0 0 0;#P connect 4 0 0 0;#P connect 5 0 0 0;#P connect 6 0 0 0;#P connect 7 0 0 0;#P connect 8 0 0 0;#P connect 9 0 0 0;#P connect 10 0 0 0;#P connect 11 0 0 0;#P connect 0 0 12 0;#P connect 1 1 3 0;#P connect 1 2 4 0;#P connect 1 3 5 0;#P connect 1 4 6 0;#P connect 1 5 7 0;#P connect 1 6 8 0;#P connect 1 7 9 0;#P connect 1 8 10 0;#P connect 1 9 11 0;#P pop;#P newobj 199 61 63 196617 p changeport;#P newex 63 300 64 196617 fromsymbol;#P newex 63 273 40 196617 itoa;#P newex 330 231 74 196617 prepend append;#P newex 330 209 25 196617 iter;#P outlet 561 344 23 0;#P newex 330 186 54 196617 route port;#P newex 63 626 340 196617 jcom.return raw/8 @description "Raw values from Polhemus sensor 8";#P newex 63 598 340 196617 jcom.return raw/7 @description "Raw values from Polhemus sensor 7";#P newex 455 406 51 196617 zl slice 6;#P newex 399 406 51 196617 zl slice 6;#P newex 343 406 51 196617 zl slice 6;#P newex 287 406 51 196617 zl slice 6;#P newex 231 406 51 196617 zl slice 6;#P newex 175 406 51 196617 zl slice 6;#P newex 63 572 340 196617 jcom.return raw/6 @description "Raw values from Polhemus sensor 6";#P newex 63 544 340 196617 jcom.return raw/5 @description "Raw values from Polhemus sensor 5";#P newex 63 515 340 196617 jcom.return raw/4 @description "Raw values from Polhemus sensor 4";#P newex 63 487 340 196617 jcom.return raw/3 @description "Raw values from Polhemus sensor 3";#P message 196 110 51 196617 65 84 13;#P newex 119 406 51 196617 zl slice 6;#P newex 63 406 51 196617 zl slice 6;#P newex 63 359 464 196617 route 1 2 3 4 5 6 7 8;#P comment 282 392 209 196617 Removes extra line break in the 7th position;#P toggle 63 61 15 0;#P comment 134 303 163 196617 Converts ASCII values to symbols;#P comment 134 249 173 196617 Cuts up the string at the end of lines;#P newex 63 246 67 196617 zl group 60;#P toggle 105 180 15 0;#P newex 105 198 29 196617 gate;#P button 42 92 15 0;#P newex 63 114 37 196617 t b 80;#P newex 63 89 78 196617 metro 100;#P message 151 110 32 196617 print;#P newex 105 220 63 196617 print status;#P button 131 111 15 0;#P newex 63 158 90 196617 serial a 115200;#B color 5;#P newex 63 459 340 196617 jcom.return raw/2 @description "Raw values from Polhemus sensor 2";#P number 131 61 35 9 0 0 0 3 0 0 0 221 221 221 222 222 222 0 0 0;#P comment 136 76 36 196617 in ms;#P newex 63 433 340 196617 jcom.return raw/1 @description "Raw values from Polhemus sensor 1";#P newex 63 33 214 196617 jcom.oscroute /status /sample_rate /menu;#P inlet 63 13 15 0;#P connect 0 0 1 0;#P connect 1 0 18 0;#P connect 18 0 10 0;#P connect 10 0 11 0;#P fasten 12 0 11 0 47 111 68 111;#P fasten 11 1 6 0 95 141 68 141;#P fasten 11 0 6 0 68 144 68 144;#P fasten 9 0 6 0 156 141 68 141;#P fasten 7 0 6 0 136 142 68 142;#P fasten 23 0 6 0 201 142 68 142;#P connect 42 0 6 0;#P connect 6 0 15 0;#P connect 15 0 40 0;#P connect 40 0 41 0;#P connect 41 0 20 0;#P connect 20 0 21 0;#P connect 21 0 2 0;#P connect 22 0 5 0;#P connect 28 0 24 0;#P connect 29 0 25 0;#P connect 30 0 26 0;#P connect 31 0 27 0;#P connect 32 0 34 0;#P connect 33 0 35 0;#P connect 14 0 13 0;#P connect 13 0 8 0;#P connect 20 1 22 0;#P connect 6 1 13 1;#P connect 1 1 4 0;#P connect 4 0 10 1;#P connect 20 2 28 0;#P connect 1 2 42 0;#P connect 20 3 29 0;#P connect 20 4 30 0;#P fasten 6 1 36 0 148 179 335 179;#P connect 36 0 38 0;#P connect 38 0 39 0;#P connect 20 5 31 0;#P connect 20 6 32 0;#P connect 20 7 33 0;#P fasten 39 0 37 0 335 261 566 261;#P pop;