max v2;
#N vpatcher 244 36 862 672;
#P origin -42 13;
#P window setfont "Sans Serif" 9.;
#P window linecount 1;
#N vpatcher 317 239 917 639;
#P inlet 116 77 15 0;
#P outlet 100 302 15 0;
#P window setfont "Sans Serif" 9.;
#P message 245 181 14 9109513 j;
#P message 229 181 14 9109513 i;
#P message 212 181 14 9109513 h;
#P message 196 181 14 9109513 g;
#P message 180 181 14 9109513 f;
#P message 164 181 14 9109513 e;
#P message 149 181 14 9109513 d;
#P message 134 181 14 9109513 c;
#P message 118 181 14 9109513 b;
#P message 100 181 14 9109513 a;
#P newex 116 135 144 9109513 select 0 1 2 3 4 5 6 7 8 9;
#P newex 100 264 67 9109513 prepend port;
#P connect 1 0 2 0;
#P connect 11 0 0 0;
#P connect 10 0 0 0;
#P connect 9 0 0 0;
#P connect 8 0 0 0;
#P connect 7 0 0 0;
#P connect 6 0 0 0;
#P connect 5 0 0 0;
#P connect 4 0 0 0;
#P connect 3 0 0 0;
#P connect 2 0 0 0;
#P connect 0 0 12 0;
#P connect 13 0 1 0;
#P connect 1 1 3 0;
#P connect 1 2 4 0;
#P connect 1 3 5 0;
#P connect 1 4 6 0;
#P connect 1 5 7 0;
#P connect 1 6 8 0;
#P connect 1 7 9 0;
#P connect 1 8 10 0;
#P connect 1 9 11 0;
#P pop;
#P newobj 179 61 63 9109513 p changeport;
#P newex 63 300 64 9109513 fromsymbol;
#P newex 63 270 40 9109513 itoa;
#P newex 330 223 74 9109513 prepend append;
#P newex 330 201 25 9109513 iter;
#P outlet 561 344 23 0;
#P newex 330 178 54 9109513 route port;
#P newex 63 626 301 9109513 jcom.return raw/8 @description "Raw values from Polhemus sensor 8";
#P newex 63 598 301 9109513 jcom.return raw/7 @description "Raw values from Polhemus sensor 7";
#P newex 455 406 51 9109513 zl slice 6;
#P newex 399 406 51 9109513 zl slice 6;
#P newex 343 406 51 9109513 zl slice 6;
#P newex 287 406 51 9109513 zl slice 6;
#P newex 231 406 51 9109513 zl slice 6;
#P newex 175 406 51 9109513 zl slice 6;
#P newex 63 572 301 9109513 jcom.return raw/6 @description "Raw values from Polhemus sensor 6";
#P newex 63 544 301 9109513 jcom.return raw/5 @description "Raw values from Polhemus sensor 5";
#P newex 63 515 301 9109513 jcom.return raw/4 @description "Raw values from Polhemus sensor 4";
#P newex 63 487 301 9109513 jcom.return raw/3 @description "Raw values from Polhemus sensor 3";
#P message 196 110 51 9109513 65 84 13;
#P newex 300 312 51 9109513 tosymbol;
#P newex 119 406 51 9109513 zl slice 6;
#P newex 63 406 51 9109513 zl slice 6;
#P newex 63 359 464 9109513 route 1 2 3 4 5 6 7 8;
#P comment 282 392 209 9109513 Removes extra line break in the 7th position;
#P toggle 63 61 15 0;
#P comment 134 314 163 9109513 Converts ASCII values to symbols;
#P comment 134 249 173 9109513 Cuts up the string at the end of lines;
#P newex 63 246 53 9109513 zl group 60;
#P toggle 105 180 15 0;
#P newex 105 198 29 9109513 gate;
#P button 42 92 15 0;
#P newex 63 114 37 9109513 t b 80;
#P newex 63 89 58 9109513 metro 100;
#P message 151 110 32 9109513 print;
#P newex 105 220 63 9109513 print status;
#P button 131 111 15 0;
#P newex 63 158 71 9109513 serial a 115200;
#B color 5;
#P newex 63 459 301 9109513 jcom.return raw/2 @description "Raw values from Polhemus sensor 2";
#P number 121 61 35 9 0 0 0 139 0 0 0 221 221 221 222 222 222 0 0 0;
#P comment 122 76 36 9109513 in ms;
#P newex 63 433 301 9109513 jcom.return raw/1 @description "Raw values from Polhemus sensor 1";
#P newex 63 33 185 9109513 jcom.oscroute /status /sample_rate /menu;
#P inlet 63 13 15 0;
#P connect 0 0 1 0;
#P connect 1 0 18 0;
#P connect 18 0 10 0;
#P fasten 12 0 11 0 47 111 68 111;
#P connect 10 0 11 0;
#P connect 43 0 6 0;
#P fasten 24 0 6 0 201 141 68 141;
#P fasten 7 0 6 0 136 142 68 142;
#P fasten 9 0 6 0 156 142 68 142;
#P connect 11 0 6 0;
#P fasten 11 1 6 0 95 142 68 142;
#P connect 6 0 15 0;
#P connect 15 0 41 0;
#P connect 41 0 42 0;
#P connect 42 0 20 0;
#P connect 20 0 21 0;
#P connect 21 0 2 0;
#P connect 22 0 5 0;
#P connect 29 0 25 0;
#P connect 30 0 26 0;
#P connect 31 0 27 0;
#P connect 32 0 28 0;
#P connect 33 0 35 0;
#P connect 34 0 36 0;
#P connect 14 0 13 0;
#P connect 13 0 8 0;
#P connect 4 0 10 1;
#P connect 20 1 22 0;
#P connect 1 1 4 0;
#P connect 6 1 13 1;
#P connect 20 2 29 0;
#P connect 1 2 43 0;
#P connect 20 3 30 0;
#P connect 20 4 31 0;
#P connect 6 1 37 0;
#P connect 37 0 39 0;
#P connect 39 0 40 0;
#P connect 20 5 32 0;
#P connect 20 6 33 0;
#P connect 20 7 34 0;
#P fasten 40 0 38 0 335 261 566 261;
#P pop;
