max v2;#N vpatcher 26 51 1199 697;#P origin -22 0;#P window setfont "Sans Serif" 12.;#P window linecount 1;#N vpatcher 19 332 621 573;#P window setfont "Sans Serif" 9.;#P window linecount 3;#P newex 247 112 262 196617 jcom.return $1 /buttons @range 0 3 @type msg_int @clipmode low @description "buttons of the Wacom tool ";#P window linecount 4;#P newex 27 114 161 196617 jcom.return $1 /touch @range 0 1 @type msg_toggle @clipmode both @description "Indicates if the tool touches the tablet";#P window linecount 1;#P newex 27 81 27 196617 & 1;#P window linecount 0;#P newex 247 81 27 196617 / 2;#P inlet 27 47 15 0;#P connect 0 0 2 0;#P connect 2 0 3 0;#P fasten 0 0 1 0 32 71 252 71;#P connect 1 0 4 0;#P pop;#P newobj 428 217 68 196620 p buttons;#P window setfont "Sans Serif" 9.;#P window linecount 3;#P newex 869 514 253 196617 jcom.return proximity @range 0 1 @type msg_int @clipmode both @description "Detects the presence of a tool near the tablet (without contact)";#P newex 738 414 253 196617 jcom.return direction @range 0 1 @type msg_int @clipmode both @description "Direction of the Wacom tool";#P newex 546 516 253 196617 jcom.return buttons/raw @range 0 5 @type msg_int @clipmode both @description "button flags of the Wacom tool (odd when pressed\\\, even when released)";#P window linecount 4;#P newex 559 436 161 196617 jcom.return rotation @range 0. 1. @type msg_float @clipmode both @description "rotation  of the Wacom tool";#P newex 398 436 144 196617 jcom.return tilt/y @range 0. 1. @type msg_float @clipmode both @description "y tilt of the Wacom tool";#P newex 353 503 144 196617 jcom.return tilt/x @range 0. 1. @type msg_float @clipmode both @description "x tilt of the Wacom tool";#P newex 210 436 144 196617 jcom.return pressure @range 0. 1. @type msg_float @clipmode both @description "pressure of the Wacom tool";#P newex 126 509 144 196617 jcom.return position/y @range 0. 1. @type msg_float @clipmode both @description "y position of the Wacom tool";#P window linecount 1;#P newex 559 352 98 196617 scale 0 65535 0. 1.;#P message 147 142 56 196617 xyrange 1;#P outlet 23 82 15 0;#P newex 82 115 53 196617 sel b 1 0;#P message 753 283 14 196617 1;#P message 738 283 14 196617 0;#P newex 738 263 40 196617 sel 1 3;#P newex 398 317 132 196617 scale -30720 30720 -1. 1.;#P newex 353 344 132 196617 scale -30720 30720 -1. 1.;#P newex 210 318 98 196617 scale 0 65535 0. 1.;#P newex 739 214 144 196617 unpack 0 0 0 0 0 0 0 0 0 0 0;#P newex 147 168 681 196617 wacom;#P user umenu 394 142 197 196647 1 64 158 1;#X add "All tablets and tools";#X add "Intuos2 6x8 / all tools";#X add "Graphire2 / all tools";#X add "Graphire2 / Graphire Stylus";#P message 331 142 32 196617 menu;#P toggle 255 119 15 0;#P message 255 142 67 196617 nopointer \$1;#P newex 353 216 55 196617 unpack 0 0;#P newex 48 214 88 196617 unpack 0. 0.;#P message 211 142 40 196617 getinfo;#P message 110 142 35 196617 nopoll;#P message 82 142 24 196617 poll;#P newex 147 114 58 196617 r jcom.init;#P window linecount 4;#P newex 48 436 144 196617 jcom.return position/x @range 0. 1. @type msg_float @clipmode both @description "x position of the Wacom tool";#P outlet 904 256 15 0;#P window linecount 1;#P newex 82 85 482 196617 jcom.oscroute /on /nopointer /init /menu;#P inlet 82 61 15 0;#P window linecount 3;#P comment 916 213 90 196617 This is to send the menu contents to the module.;#P fasten 15 0 9 0 152 200 53 200;#P connect 9 0 4 0;#P connect 1 0 2 0;#P connect 2 0 23 0;#P connect 23 1 6 0;#P connect 23 0 6 0;#P connect 23 2 7 0;#P connect 9 1 27 0;#P connect 5 0 25 0;#P fasten 25 0 15 0 152 163 152 163;#P fasten 14 0 15 0 399 163 152 163;#P fasten 11 0 15 0 260 163 152 163;#P fasten 8 0 15 0 216 163 152 163;#P fasten 7 0 15 0 115 163 152 163;#P fasten 6 0 15 0 87 163 152 163;#P fasten 13 0 15 0 336 163 152 163;#P fasten 15 1 17 0 226 252 215 252;#P connect 17 0 28 0;#P fasten 2 1 12 0 205 110 260 110;#P connect 12 0 11 0;#P fasten 2 2 13 0 323 122 336 122;#P fasten 15 2 10 0 300 202 358 202;#P fasten 10 0 18 0 358 288 358 288;#P connect 18 0 29 0;#P fasten 15 9 14 0 818 137 594 137 594 137 399 137;#P fasten 2 3 14 0 441 122 399 122;#P fasten 10 1 19 0 403 275 403 275;#P connect 19 0 30 0;#P fasten 15 3 35 0 374 201 433 201;#P fasten 15 3 32 0 374 201 551 201;#P fasten 15 4 26 0 448 192 564 192;#P connect 26 0 31 0;#P fasten 16 9 20 0 861 253 743 253;#P connect 20 0 21 0;#P connect 21 0 33 0;#P fasten 22 0 33 0 758 356 743 356;#P fasten 15 8 16 0 744 201 744 201;#P connect 20 1 22 0;#P fasten 16 10 34 0 874 477 874 477;#P fasten 15 9 3 0 818 198 909 198;#P pop;