max v2;#N vpatcher 19 68 783 768;#P origin -139 5;#P window setfont "Sans Serif" 9.;#P window linecount 1;#P newex 484 138 27 196617 t b l;#N vpatcher 20 74 620 474;#P window setfont "Sans Serif" 9.;#P window linecount 1;#P newex 50 50 73 196617 route interval;#P newex 55 209 36 196617 buddy;#P newex 55 239 48 196617 pack 0 0;#P message 55 262 142 196617 240 \, 125 \, 0 \, 3 \, \$1 \, \$2 \, 247;#P newex 58 145 38 196617 * 128;#P newex 50 175 27 196617 - 1;#P newex 50 72 68 196617 clip 1 16383;#P newex 94 113 37 196617 / 128;#P window linecount 3;#P comment 121 68 100 196617 ensures the range is between 1 and 16383;#P inlet 50 30 15 0;#P outlet 55 282 15 0;#P connect 1 0 10 0;#P connect 10 0 4 0;#P connect 4 0 5 0;#P fasten 3 0 9 0 99 202 60 202;#P connect 9 0 8 0;#P connect 8 0 7 0;#P connect 7 0 0 0;#P connect 3 0 6 0;#P fasten 6 0 5 1 63 168 72 168;#P connect 5 0 9 1;#P connect 9 1 8 1;#P fasten 4 0 3 0 55 109 99 109;#P pop;#P newobj 484 117 54 196617 p interval;#P number 485 71 35 9 1 16383 3 3 0 0 0 221 221 221 222 222 222 0 0 0;#P message 484 88 61 196617 interval \$1;#P window linecount 2;#P comment 12 131 73 196617 data terminal ready;#P window linecount 1;#P newex 55 90 48 196617 loadbang;#P message 98 133 41 196617 dtr 1;#P window linecount 3;#P comment 15 203 100 196617 starts cycle when it sees a sysex begin message;#P window linecount 1;#P newex 122 212 44 196617 sel 240;#N vpatcher 20 74 248 320;#P window setfont "Sans Serif" 9.;#P window linecount 1;#P newex 50 70 30 196617 t b b;#P newex 50 50 50 196617 sel reset;#P message 69 116 127 196617 240 \, 125 \, 0 \, 90 \, 0 \, 247;#P message 50 95 116 196617 240 \, 125 \, 0 \, 34 \, 247;#P window linecount 4;#P comment 81 137 107 196617 upon getting a 'reset' message \, resets the wi-microdig and puts it in hostmode;#P inlet 50 30 15 0;#P outlet 50 188 15 0;#P connect 1 0 5 0;#P connect 5 0 6 0;#P connect 6 0 3 0;#P connect 4 0 0 0;#P connect 3 0 0 0;#P connect 6 1 4 0;#P pop;#P newobj 395 116 42 196617 p reset;#P message 395 83 34 196617 reset;#P user umenu 521 238 145 196647 1 64 254 1;#X add Bluetooth-PDA-Sync;#X add Bluetooth-Modem;#X add I-CubeXWi-microDig0106--1;#X add I-CubeXWi-microDig0106--1;#X add Bluetooth-PDA-Sync;#X add Bluetooth-Modem;#X add Bluetooth-PDA-Sync;#X add Bluetooth-Modem;#X add I-CubeXWi-microDig0106--1;#P comment 231 286 163 196617 Converts to ASCII;#N vpatcher 317 239 561 584;#P inlet 54 41 15 0;#P outlet 54 266 15 0;#P window setfont "Sans Serif" 9.;#P message 171 145 14 196617 j;#P message 158 145 14 196617 i;#P message 145 145 14 196617 h;#P message 132 145 14 196617 g;#P message 119 145 14 196617 f;#P message 106 145 14 196617 e;#P message 93 145 14 196617 d;#P message 80 145 14 196617 c;#P message 67 145 14 196617 b;#P message 54 145 14 196617 a;#P newex 54 99 144 196617 select 0 1 2 3 4 5 6 7 8 9;#P newex 54 228 67 196617 prepend port;#P connect 13 0 1 0;#P connect 1 0 2 0;#P connect 11 0 0 0;#P connect 10 0 0 0;#P connect 9 0 0 0;#P connect 8 0 0 0;#P connect 7 0 0 0;#P connect 6 0 0 0;#P connect 5 0 0 0;#P connect 4 0 0 0;#P connect 3 0 0 0;#P connect 2 0 0 0;#P connect 0 0 12 0;#P connect 1 1 3 0;#P connect 1 2 4 0;#P connect 1 3 5 0;#P connect 1 4 6 0;#P connect 1 5 7 0;#P connect 1 6 8 0;#P connect 1 7 9 0;#P connect 1 8 10 0;#P connect 1 9 11 0;#P pop;#P newobj 296 69 63 196617 p changeport;#P newex 160 308 64 196617 fromsymbol;#P newex 160 281 40 196617 itoa;#P newex 427 239 74 196617 prepend append;#P newex 427 217 25 196617 iter;#P outlet 658 352 23 0;#P newex 427 194 54 196617 route port;#P newex 160 634 340 196617 jcom.return raw/8 @description "Raw values from Polhemus sensor 8";#P newex 160 606 340 196617 jcom.return raw/7 @description "Raw values from Polhemus sensor 7";#P newex 552 414 51 196617 zl slice 6;#P newex 496 414 51 196617 zl slice 6;#P newex 440 414 51 196617 zl slice 6;#P newex 384 414 51 196617 zl slice 6;#P newex 328 414 51 196617 zl slice 6;#P newex 272 414 51 196617 zl slice 6;#P newex 160 580 340 196617 jcom.return raw/6 @description "Raw values from Polhemus sensor 6";#P newex 160 552 340 196617 jcom.return raw/5 @description "Raw values from Polhemus sensor 5";#P newex 160 523 340 196617 jcom.return raw/4 @description "Raw values from Polhemus sensor 4";#P newex 160 495 340 196617 jcom.return raw/3 @description "Raw values from Polhemus sensor 3";#P message 293 118 51 196617 65 84 13;#P newex 216 414 51 196617 zl slice 6;#P newex 160 414 51 196617 zl slice 6;#P newex 160 367 464 196617 route 1 2 3 4 5 6 7 8;#P comment 379 400 209 196617 Removes extra line break in the 7th position;#P toggle 160 69 15 0;#P comment 231 311 163 196617 Converts ASCII values to symbols;#P comment 231 257 173 196617 Cuts up the string at the end of lines;#P newex 160 254 61 196617 zl group 13;#P toggle 214 188 15 0;#P newex 214 206 29 196617 gate;#P button 139 100 15 0;#P newex 160 122 37 196617 t b 80;#P newex 160 97 78 196617 metro 100;#P message 248 118 32 196617 print;#P newex 214 228 63 196617 print status;#P button 228 119 15 0;#P newex 160 166 83 196617 serial a 115200;#B color 5;#P newex 160 467 340 196617 jcom.return raw/2 @description "Raw values from Polhemus sensor 2";#P number 228 69 35 9 0 0 0 3 0 0 0 221 221 221 222 222 222 0 0 0;#P comment 233 84 36 196617 in ms;#P newex 160 441 340 196617 jcom.return raw/1 @description "Raw values from Polhemus sensor 1";#P newex 160 41 214 196617 jcom.oscroute /status /sample_rate /menu;#P inlet 160 21 15 0;#P connect 50 0 49 0;#P connect 6 0 47 0;#P connect 0 0 1 0;#P connect 1 0 18 0;#P connect 18 0 10 0;#P fasten 12 0 11 0 144 119 165 119;#P connect 10 0 11 0;#P connect 55 1 6 0;#P connect 55 0 6 0;#P connect 49 0 6 0;#P fasten 46 0 6 0 400 149 165 149;#P connect 42 0 6 0;#P fasten 23 0 6 0 298 150 165 150;#P fasten 7 0 6 0 233 150 165 150;#P fasten 9 0 6 0 253 149 165 149;#P fasten 11 0 6 0 165 152 165 152;#P fasten 11 1 6 0 192 149 165 149;#P connect 6 0 15 0;#P connect 47 0 15 0;#P connect 15 0 40 0;#P connect 40 0 41 0;#P connect 41 0 20 0;#P connect 20 0 21 0;#P connect 21 0 2 0;#P connect 22 0 5 0;#P connect 28 0 24 0;#P connect 29 0 25 0;#P connect 30 0 26 0;#P connect 31 0 27 0;#P connect 32 0 34 0;#P connect 33 0 35 0;#P connect 14 0 13 0;#P connect 13 0 8 0;#P connect 20 1 22 0;#P connect 1 1 4 0;#P connect 4 0 10 1;#P connect 6 1 13 1;#P connect 20 2 28 0;#P connect 44 0 42 0;#P connect 1 2 42 0;#P connect 20 3 29 0;#P connect 20 4 30 0;#P connect 45 0 46 0;#P fasten 6 1 36 0 238 187 432 187;#P connect 36 0 38 0;#P connect 38 0 39 0;#P connect 20 5 31 0;#P connect 53 0 52 0;#P connect 52 0 54 0;#P connect 54 0 55 0;#P connect 20 6 32 0;#P connect 39 0 44 0;#P connect 20 7 33 0;#P fasten 39 0 37 0 432 269 663 269;#P pop;