max v2;#N vpatcher 497 44 1104 677;#P origin 0 -11;#P window setfont "Sans Serif" 9.;#P window linecount 1;#P message 87 25 104 196617 /scale/output/min 5;#P newex 216 87 49 196617 route int;#P newex 125 85 49 196617 route int;#P message 396 304 50 196617 /max \$1;#P message 323 304 47 196617 /min \$1;#P newex 177 235 304 196617 jcom.oscroute /input/min /input/max /output/min /output/max;#P newex 282 87 107 196617 jcom.oscroute /value;#P outlet 38 586 15 0;#P inlet 501 22 15 0;#P number 51 483 35 9 0 0 0 3 0 0 0 221 221 221 222 222 222 0 0 0;#P newex 51 462 27 196617 + 1;#P newex 51 505 47 196617 gate 2 1;#P newex 51 531 52 196617 change 0.;#P number 125 207 35 9 0 0 0 3 0 0 0 221 221 221 222 222 222 0 0 0;#P newex 125 186 27 196617 + 1;#P newex 125 226 47 196617 gate 3 1;#P newex 183 373 127 196617 jcom.oscroute /min /max;#P number 88 379 35 9 0 0 0 3 0 0 0 221 221 221 222 222 222 0 0 0;#P newex 88 358 27 196617 + 1;#P number 201 137 35 9 0 0 0 3 0 0 0 221 221 221 222 222 222 0 0 0;#P newex 201 116 27 196617 + 1;#P newex 143 281 181 196617 scale;#P outlet 88 586 15 0;#P inlet 51 22 15 0;#P newex 51 48 230 196617 jcom.oscroute /repetitions /clip /scale /smooth;#P newex 88 401 47 196617 gate 2 1;#P newex 183 341 77 196617 jcom.autoscale;#P newex 201 156 47 196617 gate 2 1;#P newex 238 185 55 196617 slide 2. 2.;#P newex 125 424 127 196617 clip 0. 100.;#P connect 29 0 5 0;#P connect 6 0 5 0;#P connect 5 0 19 0;#P connect 19 0 20 0;#P connect 20 0 18 0;#P connect 18 0 17 0;#P fasten 5 1 11 0 111 95 93 95;#P connect 11 0 12 0;#P connect 12 0 4 0;#P connect 0 0 18 1;#P connect 4 0 18 1;#P fasten 17 0 7 0 56 567 93 567;#P connect 18 1 7 0;#P fasten 5 2 27 0 166 74 130 74;#P connect 27 0 15 0;#P connect 15 0 16 0;#P connect 16 0 14 0;#P fasten 3 0 4 1 188 368 130 368;#P connect 14 0 4 1;#P fasten 8 0 4 1 148 360 130 360;#P connect 4 1 0 0;#P connect 14 1 8 0;#P connect 2 0 14 1;#P connect 1 0 14 1;#P connect 27 1 24 0;#P connect 24 0 8 1;#P connect 25 0 3 0;#P connect 14 2 3 0;#P connect 26 0 3 0;#P fasten 25 0 13 0 328 364 188 364;#P connect 3 0 13 0;#P fasten 26 0 13 0 401 367 188 367;#P connect 13 0 0 1;#P connect 28 0 9 0;#P connect 9 0 10 0;#P connect 10 0 2 0;#P connect 24 1 8 2;#P connect 5 3 28 0;#P connect 21 0 2 1;#P connect 2 1 1 0;#P connect 13 1 0 2;#P connect 24 2 8 3;#P connect 23 0 1 1;#P connect 24 3 8 4;#P connect 5 3 23 0;#P connect 23 0 1 2;#P connect 24 2 25 0;#P connect 24 3 26 0;#P pop;