max v2;#N vpatcher 73 347 638 715;#P origin -556 -44;#P window setfont "Sans Serif" 9.;#P window linecount 1;#N thispatcher;#Q end;#P newobj 28 283 61 196617 thispatcher;#P newex 332 232 174 196617 jcom.send jcom.remote.module.to;#P newex 13 94 496 196617 jcom.oscroute /service_name /port;#P inlet 13 72 15 0;#P newex 444 150 67 196617 prepend port;#P newex 444 173 86 196617 udpreceive 9000;#P newex 222 165 103 196617 t l l;#P newex 168 310 47 196617 forward;#P newex 188 279 135 196617 sprintf send %s_net_in;#P button 337 127 15 0;#P window setfont "Sans Serif" 18.;#N vpatcher 34 304 573 695;#P outlet 123 224 15 0;#P window setfont "Sans Serif" 9.;#P newex 434 336 50 196617 print kill;#P newex 40 148 62 196617 deferlow;#P newex 336 311 69 196617 route symbol;#P newex 40 313 69 196617 route symbol;#P newex 40 129 62 196617 deferlow;#P newex 40 168 62 196617 t dump;#P newex 40 339 101 196617 s bonjour_menu_out;#N coll ;#P newobj 40 289 50 196617 coll;#P window setfont "Sans Serif" 18.;#N vpatcher 436 302 809 579;#P outlet 25 221 15 0;#P window setfont "Sans Serif" 9.;#P window linecount 1;#P newex 25 197 50 196617 deferlow;#P newex 171 165 143 196617 sprintf script delete %sn_net;#P inlet 171 61 15 0;#P newex 25 81 111 196617 zl reg;#P newex 25 55 69 196617 t b i;#P newex 84 106 50 196617 * 170;#P window linecount 3;#P newex 25 141 129 196617 sprintf script new %sn_net newex %ld 30 150 9 jalg.multicast_elt.mxt %s;#P inlet 126 60 15 0;#P inlet 25 25 15 0;#P connect 0 0 4 0;#P connect 4 0 5 0;#P connect 5 0 2 0;#P connect 2 0 8 0;#P fasten 7 0 8 0 176 189 30 189;#P connect 8 0 9 0;#P connect 4 1 3 0;#P connect 3 0 2 1;#P connect 1 0 5 1;#P fasten 5 0 2 2 30 133 148 133;#P connect 6 0 7 0;#P pop;#P newobj 123 188 191 196626 p multicast;#P window setfont "Sans Serif" 9.;#P newex 371 132 62 196617 t clear dump;#N coll ;#P newobj 423 289 50 196617 coll;#P newex 344 244 75 196617 prepend delete;#P newex 213 251 78 196617 prepend store;#P newex 213 227 66 196617 pack adr adr;#P user umenu 254 164 100 196647 1 64 180 1;#X add Joe;#P newex 254 109 244 196617 route delete clear;#P newex 123 126 78 196617 prepend symbol;#P newex 123 101 67 196617 route append;#P newex 123 78 169 196617 t l l l;#P user umenu 123 159 100 196647 1 64 175 1;#X add Joe;#P inlet 123 55 15 0;#P fasten 3 0 16 0 128 123 45 123;#P connect 16 0 19 0;#P connect 19 0 15 0;#P fasten 8 0 13 0 218 275 45 275;#P fasten 11 0 13 0 376 275 45 275;#P fasten 15 0 13 0 45 205 45 205;#P fasten 9 0 13 0 349 275 45 275;#P connect 13 0 17 0;#P connect 17 0 14 0;#P connect 0 0 2 0;#P connect 2 0 3 0;#P connect 3 0 4 0;#P fasten 2 1 1 0 207 149 128 149;#P connect 4 0 1 0;#P connect 1 0 12 0;#P connect 12 0 21 0;#P connect 1 1 12 1;#P connect 1 1 7 0;#P connect 7 0 8 0;#P connect 2 2 5 0;#P connect 5 0 6 0;#P fasten 2 1 6 0 207 149 259 149;#P connect 1 1 7 1;#P connect 6 1 12 2;#P connect 18 0 12 2;#P connect 10 0 18 0;#P connect 6 1 9 0;#P connect 5 1 11 0;#P connect 11 1 10 0;#P fasten 8 0 10 0 218 275 428 275;#P fasten 9 0 10 0 349 275 428 275;#P fasten 11 0 10 0 376 219 428 219;#P connect 10 0 20 0;#P pop;#P newobj 28 250 107 196626 p multicast;#P window setfont "Sans Serif" 9.;#P newex 13 171 75 196617 s bonjour_this;#P newex 13 148 50 196617 deferlow;#P newex 343 194 58 196617 oscbonjour;#P newex 222 145 97 196617 r bonjour_menu_out;#P newex 216 243 95 196617 s bonjour_menu_in;#P newex 222 185 82 196617 prepend resolve;#P newex 168 150 50 196617 deferlow;#P newex 414 121 40 196617 t i i;#P newex 13 125 321 196617 t s b s;#P newex 343 149 81 196617 pack adr 9000;#P newex 343 170 85 196617 prepend register;#P message 168 180 51 196617 browse;#P newex 168 211 58 196617 oscbonjour;#P connect 20 0 21 0;#P connect 21 0 4 0;#P connect 4 0 11 0;#P connect 11 0 12 0;#P fasten 0 2 13 0 221 236 33 236;#P connect 13 0 23 0;#P connect 4 1 6 0;#P connect 6 0 1 0;#P fasten 7 0 0 0 227 206 173 206;#P connect 1 0 0 0;#P connect 0 0 16 0;#P connect 15 0 16 0;#P fasten 17 1 15 0 320 268 193 268;#P connect 0 2 8 0;#P connect 9 0 17 0;#P connect 17 0 7 0;#P fasten 18 0 22 0 449 225 337 225;#P connect 4 2 14 0;#P connect 4 2 3 0;#P connect 3 0 2 0;#P connect 2 0 10 0;#P fasten 21 1 5 0 261 116 419 116;#P connect 5 0 3 1;#P connect 5 1 19 0;#P connect 19 0 18 0;#P pop;