max v2;#N vpatcher 103 94 799 598;#P origin -22 0;#P outlet 163 336 15 0;#P window setfont "Sans Serif" 9.;#P window linecount 1;#P newex 393 76 58 196617 r jcom.init;#P newex 45 421 338 196617 jcom.return hi/* @description "Data from Human Interface device.";#P newex 162 206 118 196617 jcom.wi-microdig.mxt;#P newex 232 124 41 196617 sel 1 0;#P message 247 170 35 196617 poll 0;#P message 202 170 41 196617 poll 10;#P newex 165 76 212 196617 jcom.oscroute /device_menu /hi_on /hi_init;#P inlet 165 52 15 0;#P newex 299 124 30 196617 t b b;#P message 299 170 33 196617 menu;#P message 330 170 25 196617 info;#P connect 8 0 9 0;#P fasten 1 0 8 0 304 195 167 195;#P fasten 0 0 8 0 335 195 167 195;#P fasten 6 0 8 0 252 195 167 195;#P fasten 5 0 8 0 207 195 167 195;#P connect 3 0 4 0;#P connect 7 0 5 0;#P connect 4 1 7 0;#P connect 7 1 6 0;#P connect 4 2 2 0;#P fasten 10 0 2 0 398 120 304 120;#P connect 2 0 1 0;#P connect 2 1 0 0;#P pop;