max v2;
#N vpatcher 89 44 1069 716;
#P window setfont "Sans Serif" 9.;
#P hidden newex 238 500 62 9109513 prepend set;
#P hidden newex 13 503 48 9109513 t b clear;
#P hidden newex 224 479 42 9109513 sel null;
#P hidden message 133 366 24 9109513 null;
#P hidden newex 133 344 46 9109513 sel bang;
#N vpatcher 10 59 610 459;
#P window setfont "Sans Serif" 9.;
#P window linecount 1;
#P newex 83 145 27 9109513 t b l;
#P window linecount 0;
#P newex 24 119 48 9109513 t b clear;
#P window linecount 1;
#P newex 50 76 46 9109513 sel bang;
#P window linecount 0;
#P newex 86 120 62 9109513 prepend set;
#P newex 86 100 51 9109513 tosymbol;
#P newex 50 50 56 9109513 route text;
#P inlet 50 30 15 0;
#P outlet 61 194 15 0;
#P connect 5 0 6 0;
#P connect 1 0 2 0;
#P connect 2 0 5 0;
#P connect 6 0 0 0;
#P connect 6 1 0 0;
#P connect 7 0 0 0;
#P connect 7 1 0 0;
#P connect 4 0 7 0;
#P connect 5 1 3 0;
#P connect 3 0 4 0;
#P pop;
#P hidden newobj 179 78 30 9109513 p;
#P hidden newex 148 3 27 9109513 t b l;
#P window linecount 2;
#P hidden newex 1 415 356 9109513 jcom.parameter osc_prefix @repetitions 0 @description "Define a string to concatenate to the beginning of all OpenSoundControl strings sent by this module.";
#P objectname jcom.parameter.mxt[3];
#P window linecount 1;
#P hidden newex 169 364 51 9109513 tosymbol;
#P hidden newex 133 324 56 9109513 route text;
#P user textedit 155 122 251 140 98436 139 9;
#P comment 103 126 56 9109513 osc prefix;
#B frgb 255 255 255;
#P user textedit 155 21 251 39 98436 139 9;
#P comment 103 25 56 9109513 osc prefix;
#B frgb 255 255 255;
#P hidden newex 367 393 101 9109513 pvar multicast_port;
#P window linecount 2;
#P hidden newex 367 415 367 9109513 jcom.parameter multicast_port @type msg_int @clipmode none @description "Set the network port number used for sending out multicast OpenSoundControl messages.";
#P objectname jcom.parameter[2];
#P number 47 124 35 9 0 0 8224 139 255 255 255 221 221 221 222 222 222 0 0 0;
#P objectname multicast_port;
#P window linecount 1;
#P comment 22 126 29 9109513 port;
#B frgb 255 255 255;
#P hidden newex 367 476 99 9109513 pvar multicast_join;
#P window linecount 2;
#P hidden newex 367 496 346 9109513 jcom.parameter multicast_join @type msg_int @clipmode none @description "Set the network port number on which to receive OpenSoundControl messages.";
#P objectname jcom.parameter.mxt[4];
#P window linecount 1;
#P hidden newex 124 76 27 9109513 t b l;
#P window linecount 3;
#P hidden newex 367 322 280 9109513 jcom.parameter multicast_ip @repetitions 0 @description "Define the multicast host to for OpenSoundControl messages to which you would like to join.  This may be symbolic or an ip address.";
#P objectname jcom.parameter.mxt[2];
#P window linecount 1;
#P hidden newex 367 302 51 9109513 tosymbol;
#P hidden newex 367 282 56 9109513 route text;
#P user jsui 114 141 42 18 1 0 0 jcom.jsui_texttoggle.js Join Leave 204 204 204 0 0 0 162 226 132;
#P objectname multicast_join;
#P comment 22 144 90 9109513 multicast address;
#B frgb 255 255 255;
#P user textedit 155 141 251 159 98436 139 9 127.0.0.1;
#N thispatcher;
#Q end;
#P hidden newobj 560 77 61 9109513 thispatcher;
#P hidden message 637 52 72 9109513 offset 0 -120;
#P hidden message 560 52 66 9109513 offset 0 -19;
#P hidden newex 560 30 165 9109513 sel 0 1;
#P hidden inlet 560 9 15 0;
#P hidden newex 273 6 27 9109513 t b l;
#P window linecount 2;
#P hidden newex 367 106 374 9109513 jcom.parameter send_host @repetitions 0 @description "Set the host to which OpenSoundControl messages should be sent.  This may be symbolic or an ip address.";
#P objectname jcom.parameter.mxt[1];
#P window linecount 1;
#P hidden newex 367 86 51 9109513 tosymbol;
#P hidden newex 367 66 56 9109513 route text;
#P number 66 42 35 9 0 0 8224 139 255 255 255 221 221 221 222 222 222 0 0 0;
#P objectname port_out;
#P number 66 25 35 9 0 0 8224 139 255 255 255 221 221 221 222 222 222 0 0 0;
#P objectname port_in;
#P user textedit 155 40 251 58 98436 139 9 127.0.0.1;
#P comment 18 44 52 9109513 send port;
#B frgb 255 255 255;
#P hidden newex 367 217 73 9109513 pvar port_out;
#P window linecount 2;
#P hidden newex 367 239 333 9109513 jcom.parameter send_port @type msg_int @clipmode none @description "Set the network port number used for sending out OpenSoundControl messages.";
#P objectname jcom.parameter;
#P window linecount 1;
#P comment 4 27 66 9109513 receive port;
#B frgb 255 255 255;
#P hidden newex 367 153 67 9109513 pvar port_in;
#P window linecount 2;
#P hidden newex 367 173 344 9109513 jcom.parameter receive_port @type msg_int @clipmode none @description "Set the network port number on which to receive OpenSoundControl messages.";
#P objectname jcom.parameter.mxt;
#P user fpic -1 100 258 64 jcom.bg.metal.blue.1U-half.pct 0 0 0 0. 0 0 0;
#P window linecount 1;
#P comment 107 44 52 9109513 send host;
#B frgb 255 255 255;
#P user fpic -1 -1 258 64 jcom.bg.metal.blue.1U-half.pct 0 0 0 0. 0 0 0;
#P hidden connect 44 0 40 0;
#P hidden connect 39 0 40 0;
#P hidden connect 45 0 46 0;
#P hidden fasten 26 0 27 0 372 368 305 368 305 72 129 72;
#P hidden connect 37 0 38 0;
#P hidden connect 38 0 43 0;
#P hidden connect 43 0 44 0;
#P hidden connect 47 0 41 0;
#P hidden connect 41 0 35 0;
#P hidden connect 41 1 35 0;
#P hidden connect 46 1 35 0;
#P hidden connect 46 0 35 0;
#P hidden connect 15 1 9 0;
#P hidden connect 15 0 9 0;
#P hidden connect 42 0 37 0;
#P hidden connect 27 0 21 0;
#P hidden connect 27 1 21 0;
#P hidden connect 43 1 39 0;
#P hidden connect 35 0 42 0;
#P hidden connect 40 1 45 0;
#P hidden connect 45 1 47 0;
#P hidden fasten 14 0 15 0 372 140 313 140 313 6 278 6;
#P hidden connect 9 0 12 0;
#P hidden connect 12 0 13 0;
#P hidden connect 13 0 14 0;
#P hidden fasten 3 0 4 0 372 207 360 207 360 148 372 148;
#P hidden connect 4 0 3 0;
#P hidden fasten 6 0 7 0 372 272 360 272 360 210 372 210;
#P hidden connect 7 0 6 0;
#P hidden connect 21 0 24 0;
#P hidden connect 24 0 25 0;
#P hidden connect 25 0 26 0;
#P hidden fasten 32 0 33 0 372 462 360 462 360 386 372 386;
#P hidden connect 33 0 32 0;
#P hidden fasten 28 0 29 0 372 532 360 532 360 471 372 471;
#P hidden connect 29 0 28 0;
#P hidden connect 16 0 17 0;
#P hidden connect 17 0 18 0;
#P hidden connect 19 0 20 0;
#P hidden connect 18 0 20 0;
#P hidden connect 17 1 19 0;
#P pop;
