max v2;#N vpatcher 216 44 1143 506;#P origin 80 0;#P window setfont "Sans Serif" 9.;#P window linecount 1;#P message 190 141 36 196617 nopoll;#P newex 122 141 21 196617 t 1;#P newex 67 141 50 196617 t reset 0;#P newex 67 106 80 196617 sel screen click;#P toggle 20 184 15 0;#P newex 20 211 29 196617 gate;#P newex 20 232 43 196617 change;#P message 25 141 34 196617 zero;#P newex 425 330 47 196617 cartopol;#N vpatcher 10 59 269 406;#P window setfont "Sans Serif" 9.;#P newex 92 235 34 196617 * -1.;#P newex 144 46 50 196617 jcom.init;#P newex 92 212 27 196617 / 0.;#P newex 55 212 27 196617 / 0.;#P newex 123 105 76 196617 unpack 0 0 0 0;#P button 123 46 15 0;#P newex 123 75 58 196617 screensize;#P inlet 55 46 15 0;#P inlet 92 46 15 0;#P outlet 55 260 15 0;#P outlet 92 260 15 0;#P connect 3 0 7 0;#P connect 7 0 1 0;#P fasten 6 2 7 1 77 157;#P connect 2 0 8 0;#P connect 8 0 10 0;#P connect 10 0 0 0;#P connect 6 3 8 1;#P fasten 9 0 4 0 149 69 128 69;#P connect 5 0 4 0;#P connect 4 0 6 0;#P pop;#P newobj 390 227 62 196617 p normalize;#N vpatcher 10 59 266 381;#P window setfont "Sans Serif" 9.;#P newex 144 46 50 196617 jcom.init;#P newex 92 184 23 196617 abs;#P newex 92 160 27 196617 -;#P newex 92 212 27 196617 / 0.;#P newex 55 212 27 196617 / 0.;#P newex 123 105 76 196617 unpack 0 0 0 0;#P button 123 46 15 0;#P newex 123 75 58 196617 screensize;#P inlet 55 46 15 0;#P inlet 92 46 15 0;#P outlet 55 260 15 0;#P outlet 92 260 15 0;#P connect 3 0 7 0;#P connect 7 0 1 0;#P fasten 6 2 7 1 77 157;#P connect 2 0 9 0;#P connect 9 0 10 0;#P connect 10 0 8 0;#P connect 8 0 0 0;#P connect 6 3 9 1;#P connect 6 3 8 1;#P fasten 11 0 4 0 149 69 128 69;#P connect 5 0 4 0;#P connect 4 0 6 0;#P pop;#P newobj 112 268 62 196617 p normalize;#P window linecount 2;#P newex 462 357 296 196617 jcom.return delta/angle @type msg_float @range -3.14 3.14 @description "Angle (in radians) of relative position of mouse.";#P window linecount 1;#P newex 158 106 41 196617 sel 1 0;#P message 158 141 30 196617 poll;#P window linecount 2;#P newex 425 402 399 196617 jcom.return delta/magnitude @type msg_float @range 0. 0.4 @description "Mangitude (in screen percentage) of relative position of mouse (sum of horizontal and vertical).";#P newex 391 298 241 196617 jcom.return delta/y @type msg_float @range -0.2 0.2 @description "Vertical delta position of mouse";#P newex 390 261 251 196617 jcom.return delta/x @type msg_float @range -0.2 0.2 @description "Horizontal delta position of mouse";#P newex 112 336 229 196617 jcom.return position/y @type msg_float @range 0. 1. @description "Vertical position of mouse";#P newex 112 302 232 196617 jcom.return position/x @type msg_float @range 0. 1. @description "Horizontal position of mouse";#P window linecount 1;#P newex 67 185 193 196617 mousestate;#B color 5;#P window linecount 2;#P newex 67 232 250 196617 jcom.return button @type toggle @range 0 1 @description "Mouse button";#P window linecount 1;#P newex 67 64 192 196617 jcom.oscroute /reference /mouse_on;#P inlet 67 40 15 0;#P connect 21 0 18 0;#P connect 20 1 18 0;#P connect 18 0 17 0;#P connect 17 0 16 0;#P fasten 16 1 15 0 41 255 10 255 10 133 30 133;#P fasten 3 0 17 1 72 207 44 207;#P connect 0 0 1 0;#P connect 1 0 19 0;#P connect 19 0 20 0;#P fasten 22 0 3 0 195 178 72 178;#P fasten 20 0 3 0 72 171 72 171;#P fasten 15 0 3 0 30 170 72 170;#P fasten 9 0 3 0 163 178 72 178;#P connect 3 0 2 0;#P connect 3 1 12 0;#P connect 12 0 4 0;#P connect 12 1 5 0;#P connect 19 1 21 0;#P connect 1 1 10 0;#P connect 10 0 9 0;#P connect 3 2 12 1;#P connect 10 1 22 0;#P fasten 3 3 13 0 207 215 395 215;#P connect 13 0 6 0;#P connect 13 1 7 0;#P connect 13 0 14 0;#P connect 14 0 8 0;#P fasten 3 4 13 1 252 207 447 207;#P connect 13 1 14 1;#P connect 14 1 11 0;#P pop;