{
	"patcher" : 	{
		"fileversion" : 1,
		"rect" : [ 43.0, 101.0, 930.0, 730.0 ],
		"bglocked" : 0,
		"defrect" : [ 43.0, 101.0, 930.0, 730.0 ],
		"openrect" : [ 0.0, 0.0, 0.0, 0.0 ],
		"openinpresentation" : 0,
		"default_fontsize" : 10.0,
		"default_fontface" : 0,
		"default_fontname" : "Verdana",
		"gridonopen" : 0,
		"gridsize" : [ 5.0, 5.0 ],
		"gridsnaponopen" : 0,
		"toolbarvisible" : 1,
		"boxanimatetime" : 200,
		"imprint" : 0,
		"boxes" : [ 			{
				"box" : 				{
					"maxclass" : "newobj",
					"text" : "prepend settitle",
					"numinlets" : 1,
					"fontsize" : 10.0,
					"numoutlets" : 1,
					"outlettype" : [ "" ],
					"patching_rect" : [ 230.0, 135.0, 88.0, 19.0 ],
					"id" : "obj-1",
					"fontname" : "Verdana"
				}

			}
, 			{
				"box" : 				{
					"maxclass" : "newobj",
					"text" : "jcom.oscroute /title",
					"numinlets" : 1,
					"fontsize" : 10.0,
					"numoutlets" : 2,
					"outlettype" : [ "", "" ],
					"patching_rect" : [ 230.0, 110.0, 107.0, 19.0 ],
					"id" : "obj-2",
					"fontname" : "Verdana"
				}

			}
, 			{
				"box" : 				{
					"maxclass" : "newobj",
					"text" : "p midi_parse",
					"numinlets" : 1,
					"fontsize" : 10.0,
					"numoutlets" : 1,
					"outlettype" : [ "" ],
					"patching_rect" : [ 445.0, 110.0, 74.0, 19.0 ],
					"id" : "obj-3",
					"fontname" : "Verdana",
					"patcher" : 					{
						"fileversion" : 1,
						"rect" : [ 20.0, 74.0, 380.0, 478.0 ],
						"bglocked" : 0,
						"defrect" : [ 20.0, 74.0, 380.0, 478.0 ],
						"openrect" : [ 0.0, 0.0, 0.0, 0.0 ],
						"openinpresentation" : 0,
						"default_fontsize" : 10.0,
						"default_fontface" : 0,
						"default_fontname" : "Verdana",
						"gridonopen" : 0,
						"gridsize" : [ 5.0, 5.0 ],
						"gridsnaponopen" : 0,
						"toolbarvisible" : 1,
						"boxanimatetime" : 200,
						"imprint" : 0,
						"boxes" : [ 							{
								"box" : 								{
									"maxclass" : "inlet",
									"numinlets" : 0,
									"numoutlets" : 1,
									"outlettype" : [ "" ],
									"patching_rect" : [ 90.0, 34.0, 27.0, 27.0 ],
									"id" : "obj-1",
									"comment" : ""
								}

							}
, 							{
								"box" : 								{
									"maxclass" : "outlet",
									"numinlets" : 1,
									"numoutlets" : 0,
									"patching_rect" : [ 143.0, 381.0, 27.0, 27.0 ],
									"id" : "obj-2",
									"comment" : ""
								}

							}
, 							{
								"box" : 								{
									"maxclass" : "newobj",
									"text" : "loadbang",
									"numinlets" : 1,
									"fontsize" : 10.0,
									"numoutlets" : 1,
									"outlettype" : [ "bang" ],
									"patching_rect" : [ 215.0, 47.0, 56.0, 19.0 ],
									"id" : "obj-3",
									"fontname" : "Verdana"
								}

							}
, 							{
								"box" : 								{
									"maxclass" : "newobj",
									"text" : "prepend midievent",
									"numinlets" : 1,
									"fontsize" : 10.0,
									"numoutlets" : 1,
									"outlettype" : [ "" ],
									"patching_rect" : [ 143.0, 355.0, 105.0, 19.0 ],
									"id" : "obj-4",
									"fontname" : "Verdana"
								}

							}
, 							{
								"box" : 								{
									"maxclass" : "newobj",
									"text" : "p program",
									"numinlets" : 1,
									"fontsize" : 10.0,
									"numoutlets" : 1,
									"outlettype" : [ "" ],
									"patching_rect" : [ 90.0, 247.0, 63.0, 19.0 ],
									"id" : "obj-5",
									"fontname" : "Verdana",
									"patcher" : 									{
										"fileversion" : 1,
										"rect" : [ 20.0, 74.0, 200.0, 282.0 ],
										"bglocked" : 0,
										"defrect" : [ 20.0, 74.0, 200.0, 282.0 ],
										"openrect" : [ 0.0, 0.0, 0.0, 0.0 ],
										"openinpresentation" : 0,
										"default_fontsize" : 10.0,
										"default_fontface" : 0,
										"default_fontname" : "Verdana",
										"gridonopen" : 0,
										"gridsize" : [ 5.0, 5.0 ],
										"gridsnaponopen" : 0,
										"toolbarvisible" : 1,
										"boxanimatetime" : 200,
										"imprint" : 0,
										"boxes" : [ 											{
												"box" : 												{
													"maxclass" : "outlet",
													"numinlets" : 1,
													"numoutlets" : 0,
													"patching_rect" : [ 40.0, 145.0, 25.0, 25.0 ],
													"id" : "obj-1",
													"comment" : ""
												}

											}
, 											{
												"box" : 												{
													"maxclass" : "newobj",
													"text" : "pack 0 0",
													"numinlets" : 2,
													"fontsize" : 10.0,
													"numoutlets" : 1,
													"outlettype" : [ "" ],
													"patching_rect" : [ 40.0, 115.0, 73.0, 19.0 ],
													"id" : "obj-2",
													"fontname" : "Verdana"
												}

											}
, 											{
												"box" : 												{
													"maxclass" : "newobj",
													"text" : "+ 191",
													"numinlets" : 2,
													"fontsize" : 10.0,
													"numoutlets" : 1,
													"outlettype" : [ "int" ],
													"patching_rect" : [ 40.0, 85.0, 39.0, 19.0 ],
													"id" : "obj-3",
													"fontname" : "Verdana"
												}

											}
, 											{
												"box" : 												{
													"maxclass" : "newobj",
													"text" : "unpack 0 s 0",
													"numinlets" : 1,
													"fontsize" : 10.0,
													"numoutlets" : 3,
													"outlettype" : [ "int", "", "int" ],
													"patching_rect" : [ 40.0, 60.0, 73.0, 19.0 ],
													"id" : "obj-4",
													"fontname" : "Verdana"
												}

											}
, 											{
												"box" : 												{
													"maxclass" : "inlet",
													"numinlets" : 0,
													"numoutlets" : 1,
													"outlettype" : [ "" ],
													"patching_rect" : [ 40.0, 20.0, 25.0, 25.0 ],
													"id" : "obj-5",
													"comment" : ""
												}

											}
 ],
										"lines" : [ 											{
												"patchline" : 												{
													"source" : [ "obj-5", 0 ],
													"destination" : [ "obj-4", 0 ],
													"hidden" : 0,
													"midpoints" : [  ]
												}

											}
, 											{
												"patchline" : 												{
													"source" : [ "obj-4", 0 ],
													"destination" : [ "obj-3", 0 ],
													"hidden" : 0,
													"midpoints" : [  ]
												}

											}
, 											{
												"patchline" : 												{
													"source" : [ "obj-3", 0 ],
													"destination" : [ "obj-2", 0 ],
													"hidden" : 0,
													"midpoints" : [  ]
												}

											}
, 											{
												"patchline" : 												{
													"source" : [ "obj-2", 0 ],
													"destination" : [ "obj-1", 0 ],
													"hidden" : 0,
													"midpoints" : [  ]
												}

											}
, 											{
												"patchline" : 												{
													"source" : [ "obj-4", 2 ],
													"destination" : [ "obj-2", 1 ],
													"hidden" : 0,
													"midpoints" : [  ]
												}

											}
 ]
									}
,
									"saved_object_attributes" : 									{
										"globalpatchername" : "",
										"fontface" : 0,
										"fontsize" : 10.0,
										"default_fontface" : 0,
										"default_fontname" : "Verdana",
										"fontname" : "Verdana",
										"default_fontsize" : 10.0
									}

								}

							}
, 							{
								"box" : 								{
									"maxclass" : "newobj",
									"text" : "p poly",
									"numinlets" : 1,
									"fontsize" : 10.0,
									"numoutlets" : 1,
									"outlettype" : [ "" ],
									"patching_rect" : [ 76.0, 269.0, 41.0, 19.0 ],
									"id" : "obj-6",
									"fontname" : "Verdana",
									"patcher" : 									{
										"fileversion" : 1,
										"rect" : [ 20.0, 74.0, 200.0, 282.0 ],
										"bglocked" : 0,
										"defrect" : [ 20.0, 74.0, 200.0, 282.0 ],
										"openrect" : [ 0.0, 0.0, 0.0, 0.0 ],
										"openinpresentation" : 0,
										"default_fontsize" : 10.0,
										"default_fontface" : 0,
										"default_fontname" : "Verdana",
										"gridonopen" : 0,
										"gridsize" : [ 5.0, 5.0 ],
										"gridsnaponopen" : 0,
										"toolbarvisible" : 1,
										"boxanimatetime" : 200,
										"imprint" : 0,
										"boxes" : [ 											{
												"box" : 												{
													"maxclass" : "outlet",
													"numinlets" : 1,
													"numoutlets" : 0,
													"patching_rect" : [ 40.0, 140.0, 25.0, 25.0 ],
													"id" : "obj-1",
													"comment" : ""
												}

											}
, 											{
												"box" : 												{
													"maxclass" : "newobj",
													"text" : "pack 0 0 0",
													"numinlets" : 3,
													"fontsize" : 10.0,
													"numoutlets" : 1,
													"outlettype" : [ "" ],
													"patching_rect" : [ 40.0, 110.0, 83.0, 19.0 ],
													"id" : "obj-2",
													"fontname" : "Verdana"
												}

											}
, 											{
												"box" : 												{
													"maxclass" : "newobj",
													"text" : "+ 159",
													"numinlets" : 2,
													"fontsize" : 10.0,
													"numoutlets" : 1,
													"outlettype" : [ "int" ],
													"patching_rect" : [ 40.0, 85.0, 39.0, 19.0 ],
													"id" : "obj-3",
													"fontname" : "Verdana"
												}

											}
, 											{
												"box" : 												{
													"maxclass" : "newobj",
													"text" : "unpack 0 s 0 0",
													"numinlets" : 1,
													"fontsize" : 10.0,
													"numoutlets" : 4,
													"outlettype" : [ "int", "", "int", "int" ],
													"patching_rect" : [ 40.0, 60.0, 83.0, 19.0 ],
													"id" : "obj-4",
													"fontname" : "Verdana"
												}

											}
, 											{
												"box" : 												{
													"maxclass" : "inlet",
													"numinlets" : 0,
													"numoutlets" : 1,
													"outlettype" : [ "" ],
													"patching_rect" : [ 40.0, 20.0, 25.0, 25.0 ],
													"id" : "obj-5",
													"comment" : ""
												}

											}
 ],
										"lines" : [ 											{
												"patchline" : 												{
													"source" : [ "obj-5", 0 ],
													"destination" : [ "obj-4", 0 ],
													"hidden" : 0,
													"midpoints" : [  ]
												}

											}
, 											{
												"patchline" : 												{
													"source" : [ "obj-4", 0 ],
													"destination" : [ "obj-3", 0 ],
													"hidden" : 0,
													"midpoints" : [  ]
												}

											}
, 											{
												"patchline" : 												{
													"source" : [ "obj-3", 0 ],
													"destination" : [ "obj-2", 0 ],
													"hidden" : 0,
													"midpoints" : [  ]
												}

											}
, 											{
												"patchline" : 												{
													"source" : [ "obj-2", 0 ],
													"destination" : [ "obj-1", 0 ],
													"hidden" : 0,
													"midpoints" : [  ]
												}

											}
, 											{
												"patchline" : 												{
													"source" : [ "obj-4", 2 ],
													"destination" : [ "obj-2", 1 ],
													"hidden" : 0,
													"midpoints" : [  ]
												}

											}
, 											{
												"patchline" : 												{
													"source" : [ "obj-4", 3 ],
													"destination" : [ "obj-2", 2 ],
													"hidden" : 0,
													"midpoints" : [  ]
												}

											}
 ]
									}
,
									"saved_object_attributes" : 									{
										"globalpatchername" : "",
										"fontface" : 0,
										"fontsize" : 10.0,
										"default_fontface" : 0,
										"default_fontname" : "Verdana",
										"fontname" : "Verdana",
										"default_fontsize" : 10.0
									}

								}

							}
, 							{
								"box" : 								{
									"maxclass" : "newobj",
									"text" : "p bend",
									"numinlets" : 1,
									"fontsize" : 10.0,
									"numoutlets" : 1,
									"outlettype" : [ "" ],
									"patching_rect" : [ 34.0, 335.0, 45.0, 19.0 ],
									"id" : "obj-7",
									"fontname" : "Verdana",
									"patcher" : 									{
										"fileversion" : 1,
										"rect" : [ 20.0, 74.0, 195.0, 265.0 ],
										"bglocked" : 0,
										"defrect" : [ 20.0, 74.0, 195.0, 265.0 ],
										"openrect" : [ 0.0, 0.0, 0.0, 0.0 ],
										"openinpresentation" : 0,
										"default_fontsize" : 10.0,
										"default_fontface" : 0,
										"default_fontname" : "Verdana",
										"gridonopen" : 0,
										"gridsize" : [ 5.0, 5.0 ],
										"gridsnaponopen" : 0,
										"toolbarvisible" : 1,
										"boxanimatetime" : 200,
										"imprint" : 0,
										"boxes" : [ 											{
												"box" : 												{
													"maxclass" : "outlet",
													"numinlets" : 1,
													"numoutlets" : 0,
													"patching_rect" : [ 40.0, 155.0, 25.0, 25.0 ],
													"id" : "obj-1",
													"comment" : ""
												}

											}
, 											{
												"box" : 												{
													"maxclass" : "newobj",
													"text" : "pack 0 0",
													"numinlets" : 2,
													"fontsize" : 10.0,
													"numoutlets" : 1,
													"outlettype" : [ "" ],
													"patching_rect" : [ 40.0, 125.0, 73.0, 19.0 ],
													"id" : "obj-2",
													"fontname" : "Verdana"
												}

											}
, 											{
												"box" : 												{
													"maxclass" : "newobj",
													"text" : "+ 223",
													"numinlets" : 2,
													"fontsize" : 10.0,
													"numoutlets" : 1,
													"outlettype" : [ "int" ],
													"patching_rect" : [ 40.0, 95.0, 39.0, 19.0 ],
													"id" : "obj-3",
													"fontname" : "Verdana"
												}

											}
, 											{
												"box" : 												{
													"maxclass" : "newobj",
													"text" : "unpack 0 s 0",
													"numinlets" : 1,
													"fontsize" : 10.0,
													"numoutlets" : 3,
													"outlettype" : [ "int", "", "int" ],
													"patching_rect" : [ 40.0, 65.0, 73.0, 19.0 ],
													"id" : "obj-4",
													"fontname" : "Verdana"
												}

											}
, 											{
												"box" : 												{
													"maxclass" : "inlet",
													"numinlets" : 0,
													"numoutlets" : 1,
													"outlettype" : [ "" ],
													"patching_rect" : [ 40.0, 30.0, 25.0, 25.0 ],
													"id" : "obj-5",
													"comment" : ""
												}

											}
 ],
										"lines" : [ 											{
												"patchline" : 												{
													"source" : [ "obj-5", 0 ],
													"destination" : [ "obj-4", 0 ],
													"hidden" : 0,
													"midpoints" : [  ]
												}

											}
, 											{
												"patchline" : 												{
													"source" : [ "obj-4", 0 ],
													"destination" : [ "obj-3", 0 ],
													"hidden" : 0,
													"midpoints" : [  ]
												}

											}
, 											{
												"patchline" : 												{
													"source" : [ "obj-3", 0 ],
													"destination" : [ "obj-2", 0 ],
													"hidden" : 0,
													"midpoints" : [  ]
												}

											}
, 											{
												"patchline" : 												{
													"source" : [ "obj-2", 0 ],
													"destination" : [ "obj-1", 0 ],
													"hidden" : 0,
													"midpoints" : [  ]
												}

											}
, 											{
												"patchline" : 												{
													"source" : [ "obj-4", 2 ],
													"destination" : [ "obj-2", 1 ],
													"hidden" : 0,
													"midpoints" : [  ]
												}

											}
 ]
									}
,
									"saved_object_attributes" : 									{
										"globalpatchername" : "",
										"fontface" : 0,
										"fontsize" : 10.0,
										"default_fontface" : 0,
										"default_fontname" : "Verdana",
										"fontname" : "Verdana",
										"default_fontsize" : 10.0
									}

								}

							}
, 							{
								"box" : 								{
									"maxclass" : "newobj",
									"text" : "p note",
									"numinlets" : 1,
									"fontsize" : 10.0,
									"numoutlets" : 1,
									"outlettype" : [ "" ],
									"patching_rect" : [ 62.0, 291.0, 43.0, 19.0 ],
									"id" : "obj-8",
									"fontname" : "Verdana",
									"patcher" : 									{
										"fileversion" : 1,
										"rect" : [ 20.0, 74.0, 201.0, 260.0 ],
										"bglocked" : 0,
										"defrect" : [ 20.0, 74.0, 201.0, 260.0 ],
										"openrect" : [ 0.0, 0.0, 0.0, 0.0 ],
										"openinpresentation" : 0,
										"default_fontsize" : 10.0,
										"default_fontface" : 0,
										"default_fontname" : "Verdana",
										"gridonopen" : 0,
										"gridsize" : [ 5.0, 5.0 ],
										"gridsnaponopen" : 0,
										"toolbarvisible" : 1,
										"boxanimatetime" : 200,
										"imprint" : 0,
										"boxes" : [ 											{
												"box" : 												{
													"maxclass" : "outlet",
													"numinlets" : 1,
													"numoutlets" : 0,
													"patching_rect" : [ 35.0, 155.0, 25.0, 25.0 ],
													"id" : "obj-1",
													"comment" : ""
												}

											}
, 											{
												"box" : 												{
													"maxclass" : "newobj",
													"text" : "pack 0 0 0",
													"numinlets" : 3,
													"fontsize" : 10.0,
													"numoutlets" : 1,
													"outlettype" : [ "" ],
													"patching_rect" : [ 35.0, 120.0, 84.0, 19.0 ],
													"id" : "obj-2",
													"fontname" : "Verdana"
												}

											}
, 											{
												"box" : 												{
													"maxclass" : "newobj",
													"text" : "+ 143",
													"numinlets" : 2,
													"fontsize" : 10.0,
													"numoutlets" : 1,
													"outlettype" : [ "int" ],
													"patching_rect" : [ 35.0, 90.0, 39.0, 19.0 ],
													"id" : "obj-3",
													"fontname" : "Verdana"
												}

											}
, 											{
												"box" : 												{
													"maxclass" : "newobj",
													"text" : "unpack 0 s 0 0",
													"numinlets" : 1,
													"fontsize" : 10.0,
													"numoutlets" : 4,
													"outlettype" : [ "int", "", "int", "int" ],
													"patching_rect" : [ 35.0, 65.0, 87.0, 19.0 ],
													"id" : "obj-4",
													"fontname" : "Verdana"
												}

											}
, 											{
												"box" : 												{
													"maxclass" : "inlet",
													"numinlets" : 0,
													"numoutlets" : 1,
													"outlettype" : [ "" ],
													"patching_rect" : [ 35.0, 20.0, 25.0, 25.0 ],
													"id" : "obj-5",
													"comment" : ""
												}

											}
 ],
										"lines" : [ 											{
												"patchline" : 												{
													"source" : [ "obj-5", 0 ],
													"destination" : [ "obj-4", 0 ],
													"hidden" : 0,
													"midpoints" : [  ]
												}

											}
, 											{
												"patchline" : 												{
													"source" : [ "obj-4", 0 ],
													"destination" : [ "obj-3", 0 ],
													"hidden" : 0,
													"midpoints" : [  ]
												}

											}
, 											{
												"patchline" : 												{
													"source" : [ "obj-3", 0 ],
													"destination" : [ "obj-2", 0 ],
													"hidden" : 0,
													"midpoints" : [  ]
												}

											}
, 											{
												"patchline" : 												{
													"source" : [ "obj-2", 0 ],
													"destination" : [ "obj-1", 0 ],
													"hidden" : 0,
													"midpoints" : [  ]
												}

											}
, 											{
												"patchline" : 												{
													"source" : [ "obj-4", 2 ],
													"destination" : [ "obj-2", 1 ],
													"hidden" : 0,
													"midpoints" : [  ]
												}

											}
, 											{
												"patchline" : 												{
													"source" : [ "obj-4", 3 ],
													"destination" : [ "obj-2", 2 ],
													"hidden" : 0,
													"midpoints" : [  ]
												}

											}
 ]
									}
,
									"saved_object_attributes" : 									{
										"globalpatchername" : "",
										"fontface" : 0,
										"fontsize" : 10.0,
										"default_fontface" : 0,
										"default_fontname" : "Verdana",
										"fontname" : "Verdana",
										"default_fontsize" : 10.0
									}

								}

							}
, 							{
								"box" : 								{
									"maxclass" : "newobj",
									"text" : "p cc",
									"numinlets" : 1,
									"fontsize" : 10.0,
									"numoutlets" : 1,
									"outlettype" : [ "" ],
									"patching_rect" : [ 48.0, 313.0, 31.0, 19.0 ],
									"id" : "obj-9",
									"fontname" : "Verdana",
									"patcher" : 									{
										"fileversion" : 1,
										"rect" : [ 20.0, 74.0, 200.0, 282.0 ],
										"bglocked" : 0,
										"defrect" : [ 20.0, 74.0, 200.0, 282.0 ],
										"openrect" : [ 0.0, 0.0, 0.0, 0.0 ],
										"openinpresentation" : 0,
										"default_fontsize" : 10.0,
										"default_fontface" : 0,
										"default_fontname" : "Verdana",
										"gridonopen" : 0,
										"gridsize" : [ 5.0, 5.0 ],
										"gridsnaponopen" : 0,
										"toolbarvisible" : 1,
										"boxanimatetime" : 200,
										"imprint" : 0,
										"boxes" : [ 											{
												"box" : 												{
													"maxclass" : "outlet",
													"numinlets" : 1,
													"numoutlets" : 0,
													"patching_rect" : [ 40.0, 160.0, 25.0, 25.0 ],
													"id" : "obj-1",
													"comment" : ""
												}

											}
, 											{
												"box" : 												{
													"maxclass" : "newobj",
													"text" : "pack 0 0 0",
													"numinlets" : 3,
													"fontsize" : 10.0,
													"numoutlets" : 1,
													"outlettype" : [ "" ],
													"patching_rect" : [ 40.0, 130.0, 76.0, 19.0 ],
													"id" : "obj-2",
													"fontname" : "Verdana"
												}

											}
, 											{
												"box" : 												{
													"maxclass" : "newobj",
													"text" : "+ 175",
													"numinlets" : 2,
													"fontsize" : 10.0,
													"numoutlets" : 1,
													"outlettype" : [ "int" ],
													"patching_rect" : [ 40.0, 100.0, 39.0, 19.0 ],
													"id" : "obj-3",
													"fontname" : "Verdana"
												}

											}
, 											{
												"box" : 												{
													"maxclass" : "newobj",
													"text" : "unpack 0 s 0 0",
													"numinlets" : 1,
													"fontsize" : 10.0,
													"numoutlets" : 4,
													"outlettype" : [ "int", "", "int", "int" ],
													"patching_rect" : [ 40.0, 70.0, 83.0, 19.0 ],
													"id" : "obj-4",
													"fontname" : "Verdana"
												}

											}
, 											{
												"box" : 												{
													"maxclass" : "inlet",
													"numinlets" : 0,
													"numoutlets" : 1,
													"outlettype" : [ "" ],
													"patching_rect" : [ 40.0, 30.0, 25.0, 25.0 ],
													"id" : "obj-5",
													"comment" : ""
												}

											}
 ],
										"lines" : [ 											{
												"patchline" : 												{
													"source" : [ "obj-5", 0 ],
													"destination" : [ "obj-4", 0 ],
													"hidden" : 0,
													"midpoints" : [  ]
												}

											}
, 											{
												"patchline" : 												{
													"source" : [ "obj-4", 0 ],
													"destination" : [ "obj-3", 0 ],
													"hidden" : 0,
													"midpoints" : [  ]
												}

											}
, 											{
												"patchline" : 												{
													"source" : [ "obj-3", 0 ],
													"destination" : [ "obj-2", 0 ],
													"hidden" : 0,
													"midpoints" : [  ]
												}

											}
, 											{
												"patchline" : 												{
													"source" : [ "obj-2", 0 ],
													"destination" : [ "obj-1", 0 ],
													"hidden" : 0,
													"midpoints" : [  ]
												}

											}
, 											{
												"patchline" : 												{
													"source" : [ "obj-4", 2 ],
													"destination" : [ "obj-2", 1 ],
													"hidden" : 0,
													"midpoints" : [  ]
												}

											}
, 											{
												"patchline" : 												{
													"source" : [ "obj-4", 3 ],
													"destination" : [ "obj-2", 2 ],
													"hidden" : 0,
													"midpoints" : [  ]
												}

											}
 ]
									}
,
									"saved_object_attributes" : 									{
										"globalpatchername" : "",
										"fontface" : 0,
										"fontsize" : 10.0,
										"default_fontface" : 0,
										"default_fontname" : "Verdana",
										"fontname" : "Verdana",
										"default_fontsize" : 10.0
									}

								}

							}
, 							{
								"box" : 								{
									"maxclass" : "newobj",
									"text" : "gate 5",
									"numinlets" : 2,
									"fontsize" : 10.0,
									"numoutlets" : 5,
									"outlettype" : [ "", "", "", "", "" ],
									"patching_rect" : [ 34.0, 221.0, 73.0, 19.0 ],
									"id" : "obj-10",
									"fontname" : "Verdana"
								}

							}
, 							{
								"box" : 								{
									"maxclass" : "newobj",
									"text" : "t 5",
									"numinlets" : 1,
									"fontsize" : 10.0,
									"numoutlets" : 1,
									"outlettype" : [ "int" ],
									"patching_rect" : [ 296.0, 189.0, 24.0, 19.0 ],
									"id" : "obj-11",
									"fontname" : "Verdana"
								}

							}
, 							{
								"box" : 								{
									"maxclass" : "newobj",
									"text" : "t 4",
									"numinlets" : 1,
									"fontsize" : 10.0,
									"numoutlets" : 1,
									"outlettype" : [ "int" ],
									"patching_rect" : [ 270.0, 189.0, 24.0, 19.0 ],
									"id" : "obj-12",
									"fontname" : "Verdana"
								}

							}
, 							{
								"box" : 								{
									"maxclass" : "newobj",
									"text" : "t 3",
									"numinlets" : 1,
									"fontsize" : 10.0,
									"numoutlets" : 1,
									"outlettype" : [ "int" ],
									"patching_rect" : [ 244.0, 189.0, 24.0, 19.0 ],
									"id" : "obj-13",
									"fontname" : "Verdana"
								}

							}
, 							{
								"box" : 								{
									"maxclass" : "newobj",
									"text" : "t 2",
									"numinlets" : 1,
									"fontsize" : 10.0,
									"numoutlets" : 1,
									"outlettype" : [ "int" ],
									"patching_rect" : [ 218.0, 189.0, 24.0, 19.0 ],
									"id" : "obj-14",
									"fontname" : "Verdana"
								}

							}
, 							{
								"box" : 								{
									"maxclass" : "newobj",
									"text" : "t 1",
									"numinlets" : 1,
									"fontsize" : 10.0,
									"numoutlets" : 1,
									"outlettype" : [ "int" ],
									"patching_rect" : [ 192.0, 189.0, 24.0, 19.0 ],
									"id" : "obj-15",
									"fontname" : "Verdana"
								}

							}
, 							{
								"box" : 								{
									"maxclass" : "newobj",
									"text" : "sel bend cc note poly program",
									"numinlets" : 1,
									"fontsize" : 10.0,
									"numoutlets" : 6,
									"outlettype" : [ "bang", "bang", "bang", "bang", "bang", "" ],
									"patching_rect" : [ 192.0, 167.0, 163.0, 19.0 ],
									"id" : "obj-16",
									"fontname" : "Verdana"
								}

							}
, 							{
								"box" : 								{
									"maxclass" : "message",
									"text" : "$2",
									"numinlets" : 2,
									"fontsize" : 10.0,
									"numoutlets" : 1,
									"outlettype" : [ "" ],
									"patching_rect" : [ 192.0, 145.0, 32.5, 17.0 ],
									"id" : "obj-17",
									"fontname" : "Verdana"
								}

							}
, 							{
								"box" : 								{
									"maxclass" : "message",
									"text" : "re /, substitute \" \"",
									"numinlets" : 2,
									"fontsize" : 10.0,
									"numoutlets" : 1,
									"outlettype" : [ "" ],
									"patching_rect" : [ 215.0, 74.0, 102.0, 17.0 ],
									"id" : "obj-18",
									"fontname" : "Verdana"
								}

							}
, 							{
								"box" : 								{
									"maxclass" : "newobj",
									"text" : "regexp",
									"numinlets" : 1,
									"fontsize" : 10.0,
									"numoutlets" : 5,
									"outlettype" : [ "", "", "", "", "" ],
									"patching_rect" : [ 90.0, 104.0, 73.0, 19.0 ],
									"id" : "obj-19",
									"fontname" : "Verdana"
								}

							}
 ],
						"lines" : [ 							{
								"patchline" : 								{
									"source" : [ "obj-15", 0 ],
									"destination" : [ "obj-10", 0 ],
									"hidden" : 0,
									"midpoints" : [ 201.5, 213.0, 43.5, 213.0 ]
								}

							}
, 							{
								"patchline" : 								{
									"source" : [ "obj-14", 0 ],
									"destination" : [ "obj-10", 0 ],
									"hidden" : 0,
									"midpoints" : [ 227.5, 213.0, 43.5, 213.0 ]
								}

							}
, 							{
								"patchline" : 								{
									"source" : [ "obj-13", 0 ],
									"destination" : [ "obj-10", 0 ],
									"hidden" : 0,
									"midpoints" : [ 253.5, 213.0, 43.5, 213.0 ]
								}

							}
, 							{
								"patchline" : 								{
									"source" : [ "obj-12", 0 ],
									"destination" : [ "obj-10", 0 ],
									"hidden" : 0,
									"midpoints" : [ 279.5, 213.0, 43.5, 213.0 ]
								}

							}
, 							{
								"patchline" : 								{
									"source" : [ "obj-11", 0 ],
									"destination" : [ "obj-10", 0 ],
									"hidden" : 0,
									"midpoints" : [ 305.5, 213.0, 43.5, 213.0 ]
								}

							}
, 							{
								"patchline" : 								{
									"source" : [ "obj-10", 0 ],
									"destination" : [ "obj-7", 0 ],
									"hidden" : 0,
									"midpoints" : [  ]
								}

							}
, 							{
								"patchline" : 								{
									"source" : [ "obj-10", 1 ],
									"destination" : [ "obj-9", 0 ],
									"hidden" : 0,
									"midpoints" : [  ]
								}

							}
, 							{
								"patchline" : 								{
									"source" : [ "obj-10", 2 ],
									"destination" : [ "obj-8", 0 ],
									"hidden" : 0,
									"midpoints" : [  ]
								}

							}
, 							{
								"patchline" : 								{
									"source" : [ "obj-10", 3 ],
									"destination" : [ "obj-6", 0 ],
									"hidden" : 0,
									"midpoints" : [  ]
								}

							}
, 							{
								"patchline" : 								{
									"source" : [ "obj-18", 0 ],
									"destination" : [ "obj-19", 0 ],
									"hidden" : 0,
									"midpoints" : [ 224.5, 92.0, 99.5, 92.0 ]
								}

							}
, 							{
								"patchline" : 								{
									"source" : [ "obj-1", 0 ],
									"destination" : [ "obj-19", 0 ],
									"hidden" : 0,
									"midpoints" : [  ]
								}

							}
, 							{
								"patchline" : 								{
									"source" : [ "obj-19", 0 ],
									"destination" : [ "obj-10", 1 ],
									"hidden" : 0,
									"midpoints" : [  ]
								}

							}
, 							{
								"patchline" : 								{
									"source" : [ "obj-10", 4 ],
									"destination" : [ "obj-5", 0 ],
									"hidden" : 0,
									"midpoints" : [  ]
								}

							}
, 							{
								"patchline" : 								{
									"source" : [ "obj-9", 0 ],
									"destination" : [ "obj-4", 0 ],
									"hidden" : 0,
									"midpoints" : [  ]
								}

							}
, 							{
								"patchline" : 								{
									"source" : [ "obj-7", 0 ],
									"destination" : [ "obj-4", 0 ],
									"hidden" : 0,
									"midpoints" : [  ]
								}

							}
, 							{
								"patchline" : 								{
									"source" : [ "obj-8", 0 ],
									"destination" : [ "obj-4", 0 ],
									"hidden" : 0,
									"midpoints" : [  ]
								}

							}
, 							{
								"patchline" : 								{
									"source" : [ "obj-6", 0 ],
									"destination" : [ "obj-4", 0 ],
									"hidden" : 0,
									"midpoints" : [  ]
								}

							}
, 							{
								"patchline" : 								{
									"source" : [ "obj-5", 0 ],
									"destination" : [ "obj-4", 0 ],
									"hidden" : 0,
									"midpoints" : [  ]
								}

							}
, 							{
								"patchline" : 								{
									"source" : [ "obj-4", 0 ],
									"destination" : [ "obj-2", 0 ],
									"hidden" : 0,
									"midpoints" : [  ]
								}

							}
, 							{
								"patchline" : 								{
									"source" : [ "obj-19", 0 ],
									"destination" : [ "obj-17", 0 ],
									"hidden" : 0,
									"midpoints" : [  ]
								}

							}
, 							{
								"patchline" : 								{
									"source" : [ "obj-17", 0 ],
									"destination" : [ "obj-16", 0 ],
									"hidden" : 0,
									"midpoints" : [  ]
								}

							}
, 							{
								"patchline" : 								{
									"source" : [ "obj-16", 0 ],
									"destination" : [ "obj-15", 0 ],
									"hidden" : 0,
									"midpoints" : [  ]
								}

							}
, 							{
								"patchline" : 								{
									"source" : [ "obj-3", 0 ],
									"destination" : [ "obj-18", 0 ],
									"hidden" : 0,
									"midpoints" : [  ]
								}

							}
, 							{
								"patchline" : 								{
									"source" : [ "obj-16", 1 ],
									"destination" : [ "obj-14", 0 ],
									"hidden" : 0,
									"midpoints" : [  ]
								}

							}
, 							{
								"patchline" : 								{
									"source" : [ "obj-16", 2 ],
									"destination" : [ "obj-13", 0 ],
									"hidden" : 0,
									"midpoints" : [  ]
								}

							}
, 							{
								"patchline" : 								{
									"source" : [ "obj-16", 3 ],
									"destination" : [ "obj-12", 0 ],
									"hidden" : 0,
									"midpoints" : [  ]
								}

							}
, 							{
								"patchline" : 								{
									"source" : [ "obj-16", 4 ],
									"destination" : [ "obj-11", 0 ],
									"hidden" : 0,
									"midpoints" : [  ]
								}

							}
 ]
					}
,
					"saved_object_attributes" : 					{
						"globalpatchername" : "",
						"fontface" : 0,
						"fontsize" : 10.0,
						"default_fontface" : 0,
						"default_fontname" : "Verdana",
						"fontname" : "Verdana",
						"default_fontsize" : 10.0
					}

				}

			}
, 			{
				"box" : 				{
					"maxclass" : "newobj",
					"text" : "s #1pgm_menu",
					"numinlets" : 1,
					"fontsize" : 10.0,
					"numoutlets" : 0,
					"patching_rect" : [ 670.0, 425.0, 89.0, 19.0 ],
					"id" : "obj-4",
					"fontname" : "Verdana"
				}

			}
, 			{
				"box" : 				{
					"maxclass" : "newobj",
					"text" : "p build_program_menu",
					"numinlets" : 2,
					"fontsize" : 10.0,
					"numoutlets" : 1,
					"outlettype" : [ "clear" ],
					"patching_rect" : [ 670.0, 400.0, 126.0, 19.0 ],
					"id" : "obj-5",
					"fontname" : "Verdana",
					"patcher" : 					{
						"fileversion" : 1,
						"rect" : [ 10.0, 59.0, 345.0, 267.0 ],
						"bglocked" : 0,
						"defrect" : [ 10.0, 59.0, 345.0, 267.0 ],
						"openrect" : [ 0.0, 0.0, 0.0, 0.0 ],
						"openinpresentation" : 0,
						"default_fontsize" : 10.0,
						"default_fontface" : 0,
						"default_fontname" : "Verdana",
						"gridonopen" : 0,
						"gridsize" : [ 5.0, 5.0 ],
						"gridsnaponopen" : 0,
						"toolbarvisible" : 1,
						"boxanimatetime" : 200,
						"imprint" : 0,
						"boxes" : [ 							{
								"box" : 								{
									"maxclass" : "newobj",
									"text" : "tosymbol",
									"numinlets" : 1,
									"fontsize" : 10.0,
									"numoutlets" : 1,
									"outlettype" : [ "" ],
									"patching_rect" : [ 50.0, 90.0, 54.0, 19.0 ],
									"id" : "obj-1",
									"fontname" : "Verdana"
								}

							}
, 							{
								"box" : 								{
									"maxclass" : "newobj",
									"text" : "prepend append",
									"numinlets" : 1,
									"fontsize" : 10.0,
									"numoutlets" : 1,
									"outlettype" : [ "" ],
									"patching_rect" : [ 50.0, 120.0, 90.0, 19.0 ],
									"id" : "obj-2",
									"fontname" : "Verdana"
								}

							}
, 							{
								"box" : 								{
									"maxclass" : "outlet",
									"numinlets" : 1,
									"numoutlets" : 0,
									"patching_rect" : [ 50.0, 200.0, 25.0, 25.0 ],
									"id" : "obj-3",
									"comment" : ""
								}

							}
, 							{
								"box" : 								{
									"maxclass" : "inlet",
									"numinlets" : 0,
									"numoutlets" : 1,
									"outlettype" : [ "clear" ],
									"patching_rect" : [ 245.0, 55.0, 25.0, 25.0 ],
									"id" : "obj-4",
									"comment" : ""
								}

							}
, 							{
								"box" : 								{
									"maxclass" : "inlet",
									"numinlets" : 0,
									"numoutlets" : 1,
									"outlettype" : [ "" ],
									"patching_rect" : [ 50.0, 55.0, 25.0, 25.0 ],
									"id" : "obj-5",
									"comment" : ""
								}

							}
 ],
						"lines" : [ 							{
								"patchline" : 								{
									"source" : [ "obj-5", 0 ],
									"destination" : [ "obj-1", 0 ],
									"hidden" : 0,
									"midpoints" : [  ]
								}

							}
, 							{
								"patchline" : 								{
									"source" : [ "obj-1", 0 ],
									"destination" : [ "obj-2", 0 ],
									"hidden" : 0,
									"midpoints" : [  ]
								}

							}
, 							{
								"patchline" : 								{
									"source" : [ "obj-4", 0 ],
									"destination" : [ "obj-3", 0 ],
									"hidden" : 0,
									"midpoints" : [  ]
								}

							}
, 							{
								"patchline" : 								{
									"source" : [ "obj-2", 0 ],
									"destination" : [ "obj-3", 0 ],
									"hidden" : 0,
									"midpoints" : [  ]
								}

							}
 ]
					}
,
					"saved_object_attributes" : 					{
						"globalpatchername" : "",
						"fontface" : 0,
						"fontsize" : 10.0,
						"default_fontface" : 0,
						"default_fontname" : "Verdana",
						"fontname" : "Verdana",
						"default_fontsize" : 10.0
					}

				}

			}
, 			{
				"box" : 				{
					"maxclass" : "newobj",
					"text" : "p program&bank",
					"numinlets" : 1,
					"fontsize" : 10.0,
					"numoutlets" : 2,
					"outlettype" : [ "int", "" ],
					"patching_rect" : [ 345.0, 110.0, 93.0, 19.0 ],
					"id" : "obj-6",
					"fontname" : "Verdana",
					"patcher" : 					{
						"fileversion" : 1,
						"rect" : [ 10.0, 59.0, 600.0, 426.0 ],
						"bglocked" : 0,
						"defrect" : [ 10.0, 59.0, 600.0, 426.0 ],
						"openrect" : [ 0.0, 0.0, 0.0, 0.0 ],
						"openinpresentation" : 0,
						"default_fontsize" : 10.0,
						"default_fontface" : 0,
						"default_fontname" : "Verdana",
						"gridonopen" : 0,
						"gridsize" : [ 5.0, 5.0 ],
						"gridsnaponopen" : 0,
						"toolbarvisible" : 1,
						"boxanimatetime" : 200,
						"imprint" : 0,
						"boxes" : [ 							{
								"box" : 								{
									"maxclass" : "newobj",
									"text" : "t read",
									"numinlets" : 1,
									"fontsize" : 10.0,
									"numoutlets" : 1,
									"outlettype" : [ "read" ],
									"patching_rect" : [ 164.0, 149.0, 38.0, 19.0 ],
									"id" : "obj-1",
									"fontname" : "Verdana"
								}

							}
, 							{
								"box" : 								{
									"maxclass" : "newobj",
									"text" : "prepend read",
									"numinlets" : 1,
									"fontsize" : 10.0,
									"numoutlets" : 1,
									"outlettype" : [ "" ],
									"patching_rect" : [ 200.0, 125.0, 76.0, 19.0 ],
									"id" : "obj-2",
									"fontname" : "Verdana"
								}

							}
, 							{
								"box" : 								{
									"maxclass" : "newobj",
									"text" : "sel bang",
									"numinlets" : 1,
									"fontsize" : 10.0,
									"numoutlets" : 2,
									"outlettype" : [ "bang", "" ],
									"patching_rect" : [ 164.0, 97.0, 51.0, 19.0 ],
									"id" : "obj-3",
									"fontname" : "Verdana"
								}

							}
, 							{
								"box" : 								{
									"maxclass" : "newobj",
									"text" : "t writepgm",
									"numinlets" : 1,
									"fontsize" : 10.0,
									"numoutlets" : 1,
									"outlettype" : [ "writepgm" ],
									"patching_rect" : [ 412.0, 159.0, 63.0, 19.0 ],
									"id" : "obj-4",
									"fontname" : "Verdana"
								}

							}
, 							{
								"box" : 								{
									"maxclass" : "newobj",
									"text" : "prepend writepgm",
									"numinlets" : 1,
									"fontsize" : 10.0,
									"numoutlets" : 1,
									"outlettype" : [ "" ],
									"patching_rect" : [ 448.0, 135.0, 100.0, 19.0 ],
									"id" : "obj-5",
									"fontname" : "Verdana"
								}

							}
, 							{
								"box" : 								{
									"maxclass" : "newobj",
									"text" : "sel bang",
									"numinlets" : 1,
									"fontsize" : 10.0,
									"numoutlets" : 2,
									"outlettype" : [ "bang", "" ],
									"patching_rect" : [ 412.0, 107.0, 51.0, 19.0 ],
									"id" : "obj-6",
									"fontname" : "Verdana"
								}

							}
, 							{
								"box" : 								{
									"maxclass" : "newobj",
									"text" : "t writebank",
									"numinlets" : 1,
									"fontsize" : 10.0,
									"numoutlets" : 1,
									"outlettype" : [ "writebank" ],
									"patching_rect" : [ 278.0, 155.0, 66.0, 19.0 ],
									"id" : "obj-7",
									"fontname" : "Verdana"
								}

							}
, 							{
								"box" : 								{
									"maxclass" : "newobj",
									"text" : "prepend writebank",
									"numinlets" : 1,
									"fontsize" : 10.0,
									"numoutlets" : 1,
									"outlettype" : [ "" ],
									"patching_rect" : [ 314.0, 131.0, 103.0, 19.0 ],
									"id" : "obj-8",
									"fontname" : "Verdana"
								}

							}
, 							{
								"box" : 								{
									"maxclass" : "newobj",
									"text" : "sel bang",
									"numinlets" : 1,
									"fontsize" : 10.0,
									"numoutlets" : 2,
									"outlettype" : [ "bang", "" ],
									"patching_rect" : [ 278.0, 103.0, 51.0, 19.0 ],
									"id" : "obj-9",
									"fontname" : "Verdana"
								}

							}
, 							{
								"box" : 								{
									"maxclass" : "newobj",
									"text" : "route /bank /program",
									"numinlets" : 1,
									"fontsize" : 10.0,
									"numoutlets" : 3,
									"outlettype" : [ "", "", "" ],
									"patching_rect" : [ 278.0, 79.0, 282.0, 19.0 ],
									"id" : "obj-10",
									"fontname" : "Verdana"
								}

							}
, 							{
								"box" : 								{
									"maxclass" : "newobj",
									"text" : "p set_program",
									"numinlets" : 1,
									"fontsize" : 10.0,
									"numoutlets" : 1,
									"outlettype" : [ "int" ],
									"patching_rect" : [ 50.0, 83.0, 82.0, 19.0 ],
									"id" : "obj-11",
									"fontname" : "Verdana",
									"patcher" : 									{
										"fileversion" : 1,
										"rect" : [ 10.0, 59.0, 600.0, 426.0 ],
										"bglocked" : 0,
										"defrect" : [ 10.0, 59.0, 600.0, 426.0 ],
										"openrect" : [ 0.0, 0.0, 0.0, 0.0 ],
										"openinpresentation" : 0,
										"default_fontsize" : 10.0,
										"default_fontface" : 0,
										"default_fontname" : "Verdana",
										"gridonopen" : 0,
										"gridsize" : [ 5.0, 5.0 ],
										"gridsnaponopen" : 0,
										"toolbarvisible" : 1,
										"boxanimatetime" : 200,
										"imprint" : 0,
										"boxes" : [ 											{
												"box" : 												{
													"maxclass" : "newobj",
													"text" : "+ 1",
													"numinlets" : 2,
													"fontsize" : 10.0,
													"numoutlets" : 1,
													"outlettype" : [ "int" ],
													"patching_rect" : [ 191.0, 156.0, 29.0, 19.0 ],
													"id" : "obj-1",
													"fontname" : "Verdana"
												}

											}
, 											{
												"box" : 												{
													"maxclass" : "newobj",
													"text" : "prepend symbol",
													"numinlets" : 1,
													"fontsize" : 10.0,
													"numoutlets" : 1,
													"outlettype" : [ "" ],
													"patching_rect" : [ 191.0, 80.0, 89.0, 19.0 ],
													"id" : "obj-2",
													"fontname" : "Verdana"
												}

											}
, 											{
												"box" : 												{
													"maxclass" : "umenu",
													"numinlets" : 1,
													"fontsize" : 10.0,
													"numoutlets" : 3,
													"items" : [  ],
													"types" : [  ],
													"outlettype" : [ "int", "", "" ],
													"patching_rect" : [ 191.0, 133.0, 100.0, 19.0 ],
													"id" : "obj-3",
													"fontname" : "Verdana"
												}

											}
, 											{
												"box" : 												{
													"maxclass" : "newobj",
													"text" : "r #1pgm_menu",
													"numinlets" : 0,
													"fontsize" : 10.0,
													"numoutlets" : 1,
													"outlettype" : [ "" ],
													"patching_rect" : [ 284.0, 80.0, 88.0, 19.0 ],
													"id" : "obj-4",
													"fontname" : "Verdana"
												}

											}
, 											{
												"box" : 												{
													"maxclass" : "message",
													"text" : "get $1",
													"numinlets" : 2,
													"fontsize" : 10.0,
													"numoutlets" : 1,
													"outlettype" : [ "" ],
													"patching_rect" : [ 87.0, 164.0, 41.0, 17.0 ],
													"id" : "obj-5",
													"fontname" : "Verdana"
												}

											}
, 											{
												"box" : 												{
													"maxclass" : "newobj",
													"text" : "deferlow",
													"numinlets" : 1,
													"fontsize" : 10.0,
													"numoutlets" : 1,
													"outlettype" : [ "" ],
													"patching_rect" : [ 50.0, 117.0, 51.0, 19.0 ],
													"id" : "obj-6",
													"fontname" : "Verdana"
												}

											}
, 											{
												"box" : 												{
													"maxclass" : "newobj",
													"text" : "coll #1params 1",
													"numinlets" : 1,
													"fontsize" : 10.0,
													"numoutlets" : 4,
													"outlettype" : [ "", "", "", "" ],
													"patching_rect" : [ 50.0, 140.0, 123.0, 19.0 ],
													"id" : "obj-7",
													"fontname" : "Verdana",
													"saved_object_attributes" : 													{
														"embed" : 0
													}

												}

											}
, 											{
												"box" : 												{
													"maxclass" : "newobj",
													"text" : "t dump s",
													"numinlets" : 1,
													"fontsize" : 10.0,
													"numoutlets" : 2,
													"outlettype" : [ "dump", "" ],
													"patching_rect" : [ 50.0, 50.0, 151.0, 19.0 ],
													"id" : "obj-8",
													"fontname" : "Verdana"
												}

											}
, 											{
												"box" : 												{
													"maxclass" : "inlet",
													"numinlets" : 0,
													"numoutlets" : 1,
													"outlettype" : [ "" ],
													"patching_rect" : [ 50.0, 20.0, 25.0, 25.0 ],
													"id" : "obj-9",
													"comment" : ""
												}

											}
, 											{
												"box" : 												{
													"maxclass" : "outlet",
													"numinlets" : 1,
													"numoutlets" : 0,
													"patching_rect" : [ 85.0, 200.0, 25.0, 25.0 ],
													"id" : "obj-10",
													"comment" : ""
												}

											}
 ],
										"lines" : [ 											{
												"patchline" : 												{
													"source" : [ "obj-9", 0 ],
													"destination" : [ "obj-8", 0 ],
													"hidden" : 0,
													"midpoints" : [  ]
												}

											}
, 											{
												"patchline" : 												{
													"source" : [ "obj-8", 0 ],
													"destination" : [ "obj-6", 0 ],
													"hidden" : 0,
													"midpoints" : [  ]
												}

											}
, 											{
												"patchline" : 												{
													"source" : [ "obj-6", 0 ],
													"destination" : [ "obj-7", 0 ],
													"hidden" : 0,
													"midpoints" : [  ]
												}

											}
, 											{
												"patchline" : 												{
													"source" : [ "obj-7", 1 ],
													"destination" : [ "obj-5", 0 ],
													"hidden" : 0,
													"midpoints" : [  ]
												}

											}
, 											{
												"patchline" : 												{
													"source" : [ "obj-1", 0 ],
													"destination" : [ "obj-10", 0 ],
													"hidden" : 0,
													"midpoints" : [ 200.5, 189.0, 94.5, 189.0 ]
												}

											}
, 											{
												"patchline" : 												{
													"source" : [ "obj-5", 0 ],
													"destination" : [ "obj-10", 0 ],
													"hidden" : 0,
													"midpoints" : [  ]
												}

											}
, 											{
												"patchline" : 												{
													"source" : [ "obj-8", 1 ],
													"destination" : [ "obj-2", 0 ],
													"hidden" : 0,
													"midpoints" : [  ]
												}

											}
, 											{
												"patchline" : 												{
													"source" : [ "obj-2", 0 ],
													"destination" : [ "obj-3", 0 ],
													"hidden" : 0,
													"midpoints" : [  ]
												}

											}
, 											{
												"patchline" : 												{
													"source" : [ "obj-4", 0 ],
													"destination" : [ "obj-3", 0 ],
													"hidden" : 0,
													"midpoints" : [  ]
												}

											}
, 											{
												"patchline" : 												{
													"source" : [ "obj-3", 0 ],
													"destination" : [ "obj-1", 0 ],
													"hidden" : 0,
													"midpoints" : [  ]
												}

											}
 ]
									}
,
									"saved_object_attributes" : 									{
										"globalpatchername" : "",
										"fontface" : 0,
										"fontsize" : 10.0,
										"default_fontface" : 0,
										"default_fontname" : "Verdana",
										"fontname" : "Verdana",
										"default_fontsize" : 10.0
									}

								}

							}
, 							{
								"box" : 								{
									"maxclass" : "outlet",
									"numinlets" : 1,
									"numoutlets" : 0,
									"patching_rect" : [ 392.0, 251.0, 23.0, 23.0 ],
									"id" : "obj-12",
									"comment" : ""
								}

							}
, 							{
								"box" : 								{
									"maxclass" : "outlet",
									"numinlets" : 1,
									"numoutlets" : 0,
									"patching_rect" : [ 50.0, 251.0, 23.0, 23.0 ],
									"id" : "obj-13",
									"comment" : ""
								}

							}
, 							{
								"box" : 								{
									"maxclass" : "newobj",
									"text" : "jcom.oscroute /program /read /write/",
									"numinlets" : 1,
									"fontsize" : 10.0,
									"numoutlets" : 4,
									"outlettype" : [ "", "", "", "" ],
									"patching_rect" : [ 50.0, 50.0, 359.0, 19.0 ],
									"id" : "obj-14",
									"fontname" : "Verdana"
								}

							}
, 							{
								"box" : 								{
									"maxclass" : "inlet",
									"numinlets" : 0,
									"numoutlets" : 1,
									"outlettype" : [ "" ],
									"patching_rect" : [ 50.0, 20.0, 23.0, 23.0 ],
									"id" : "obj-15",
									"comment" : ""
								}

							}
 ],
						"lines" : [ 							{
								"patchline" : 								{
									"source" : [ "obj-15", 0 ],
									"destination" : [ "obj-14", 0 ],
									"hidden" : 0,
									"midpoints" : [  ]
								}

							}
, 							{
								"patchline" : 								{
									"source" : [ "obj-14", 0 ],
									"destination" : [ "obj-11", 0 ],
									"hidden" : 0,
									"midpoints" : [  ]
								}

							}
, 							{
								"patchline" : 								{
									"source" : [ "obj-11", 0 ],
									"destination" : [ "obj-13", 0 ],
									"hidden" : 0,
									"midpoints" : [  ]
								}

							}
, 							{
								"patchline" : 								{
									"source" : [ "obj-14", 1 ],
									"destination" : [ "obj-3", 0 ],
									"hidden" : 0,
									"midpoints" : [  ]
								}

							}
, 							{
								"patchline" : 								{
									"source" : [ "obj-3", 0 ],
									"destination" : [ "obj-1", 0 ],
									"hidden" : 0,
									"midpoints" : [  ]
								}

							}
, 							{
								"patchline" : 								{
									"source" : [ "obj-3", 1 ],
									"destination" : [ "obj-2", 0 ],
									"hidden" : 0,
									"midpoints" : [  ]
								}

							}
, 							{
								"patchline" : 								{
									"source" : [ "obj-14", 2 ],
									"destination" : [ "obj-10", 0 ],
									"hidden" : 0,
									"midpoints" : [  ]
								}

							}
, 							{
								"patchline" : 								{
									"source" : [ "obj-10", 0 ],
									"destination" : [ "obj-9", 0 ],
									"hidden" : 0,
									"midpoints" : [  ]
								}

							}
, 							{
								"patchline" : 								{
									"source" : [ "obj-9", 0 ],
									"destination" : [ "obj-7", 0 ],
									"hidden" : 0,
									"midpoints" : [  ]
								}

							}
, 							{
								"patchline" : 								{
									"source" : [ "obj-9", 1 ],
									"destination" : [ "obj-8", 0 ],
									"hidden" : 0,
									"midpoints" : [  ]
								}

							}
, 							{
								"patchline" : 								{
									"source" : [ "obj-14", 3 ],
									"destination" : [ "obj-12", 0 ],
									"hidden" : 0,
									"midpoints" : [  ]
								}

							}
, 							{
								"patchline" : 								{
									"source" : [ "obj-1", 0 ],
									"destination" : [ "obj-12", 0 ],
									"hidden" : 0,
									"midpoints" : [  ]
								}

							}
, 							{
								"patchline" : 								{
									"source" : [ "obj-2", 0 ],
									"destination" : [ "obj-12", 0 ],
									"hidden" : 0,
									"midpoints" : [  ]
								}

							}
, 							{
								"patchline" : 								{
									"source" : [ "obj-8", 0 ],
									"destination" : [ "obj-12", 0 ],
									"hidden" : 0,
									"midpoints" : [  ]
								}

							}
, 							{
								"patchline" : 								{
									"source" : [ "obj-7", 0 ],
									"destination" : [ "obj-12", 0 ],
									"hidden" : 0,
									"midpoints" : [  ]
								}

							}
, 							{
								"patchline" : 								{
									"source" : [ "obj-5", 0 ],
									"destination" : [ "obj-12", 0 ],
									"hidden" : 0,
									"midpoints" : [  ]
								}

							}
, 							{
								"patchline" : 								{
									"source" : [ "obj-4", 0 ],
									"destination" : [ "obj-12", 0 ],
									"hidden" : 0,
									"midpoints" : [  ]
								}

							}
, 							{
								"patchline" : 								{
									"source" : [ "obj-10", 1 ],
									"destination" : [ "obj-6", 0 ],
									"hidden" : 0,
									"midpoints" : [  ]
								}

							}
, 							{
								"patchline" : 								{
									"source" : [ "obj-6", 0 ],
									"destination" : [ "obj-4", 0 ],
									"hidden" : 0,
									"midpoints" : [  ]
								}

							}
, 							{
								"patchline" : 								{
									"source" : [ "obj-6", 1 ],
									"destination" : [ "obj-5", 0 ],
									"hidden" : 0,
									"midpoints" : [  ]
								}

							}
 ]
					}
,
					"saved_object_attributes" : 					{
						"globalpatchername" : "",
						"fontface" : 0,
						"fontsize" : 10.0,
						"default_fontface" : 0,
						"default_fontname" : "Verdana",
						"fontname" : "Verdana",
						"default_fontsize" : 10.0
					}

				}

			}
, 			{
				"box" : 				{
					"maxclass" : "newobj",
					"text" : "t 1 l 0",
					"numinlets" : 1,
					"fontsize" : 10.0,
					"numoutlets" : 3,
					"outlettype" : [ "int", "", "int" ],
					"patching_rect" : [ 800.0, 400.0, 40.0, 19.0 ],
					"id" : "obj-7",
					"fontname" : "Verdana"
				}

			}
, 			{
				"box" : 				{
					"maxclass" : "newobj",
					"text" : "p kill_feedback",
					"numinlets" : 2,
					"fontsize" : 10.0,
					"numoutlets" : 1,
					"outlettype" : [ "" ],
					"patching_rect" : [ 30.0, 55.0, 84.0, 19.0 ],
					"id" : "obj-8",
					"fontname" : "Verdana",
					"patcher" : 					{
						"fileversion" : 1,
						"rect" : [ 20.0, 74.0, 281.0, 230.0 ],
						"bglocked" : 0,
						"defrect" : [ 20.0, 74.0, 281.0, 230.0 ],
						"openrect" : [ 0.0, 0.0, 0.0, 0.0 ],
						"openinpresentation" : 0,
						"default_fontsize" : 10.0,
						"default_fontface" : 0,
						"default_fontname" : "Verdana",
						"gridonopen" : 0,
						"gridsize" : [ 5.0, 5.0 ],
						"gridsnaponopen" : 0,
						"toolbarvisible" : 1,
						"boxanimatetime" : 200,
						"imprint" : 0,
						"boxes" : [ 							{
								"box" : 								{
									"maxclass" : "inlet",
									"numinlets" : 0,
									"numoutlets" : 1,
									"outlettype" : [ "int" ],
									"patching_rect" : [ 130.0, 35.0, 25.0, 25.0 ],
									"id" : "obj-1",
									"comment" : ""
								}

							}
, 							{
								"box" : 								{
									"maxclass" : "newobj",
									"text" : "gate 1 1",
									"numinlets" : 2,
									"fontsize" : 10.0,
									"numoutlets" : 1,
									"outlettype" : [ "" ],
									"patching_rect" : [ 55.0, 105.0, 50.0, 19.0 ],
									"id" : "obj-2",
									"fontname" : "Verdana"
								}

							}
, 							{
								"box" : 								{
									"maxclass" : "outlet",
									"numinlets" : 1,
									"numoutlets" : 0,
									"patching_rect" : [ 55.0, 150.0, 25.0, 25.0 ],
									"id" : "obj-3",
									"comment" : ""
								}

							}
, 							{
								"box" : 								{
									"maxclass" : "inlet",
									"numinlets" : 0,
									"numoutlets" : 1,
									"outlettype" : [ "" ],
									"patching_rect" : [ 85.0, 35.0, 25.0, 25.0 ],
									"id" : "obj-4",
									"comment" : ""
								}

							}
 ],
						"lines" : [ 							{
								"patchline" : 								{
									"source" : [ "obj-1", 0 ],
									"destination" : [ "obj-2", 0 ],
									"hidden" : 0,
									"midpoints" : [  ]
								}

							}
, 							{
								"patchline" : 								{
									"source" : [ "obj-2", 0 ],
									"destination" : [ "obj-3", 0 ],
									"hidden" : 0,
									"midpoints" : [  ]
								}

							}
, 							{
								"patchline" : 								{
									"source" : [ "obj-4", 0 ],
									"destination" : [ "obj-2", 1 ],
									"hidden" : 0,
									"midpoints" : [  ]
								}

							}
 ]
					}
,
					"saved_object_attributes" : 					{
						"globalpatchername" : "",
						"fontface" : 0,
						"fontsize" : 10.0,
						"default_fontface" : 0,
						"default_fontname" : "Verdana",
						"fontname" : "Verdana",
						"default_fontsize" : 10.0
					}

				}

			}
, 			{
				"box" : 				{
					"maxclass" : "newobj",
					"text" : "r #1get_param_value",
					"numinlets" : 0,
					"fontsize" : 10.0,
					"numoutlets" : 1,
					"outlettype" : [ "" ],
					"patching_rect" : [ 565.0, 310.0, 118.0, 19.0 ],
					"id" : "obj-9",
					"fontname" : "Verdana"
				}

			}
, 			{
				"box" : 				{
					"maxclass" : "newobj",
					"text" : "jcom.pass /plug /open",
					"numinlets" : 1,
					"fontsize" : 10.0,
					"numoutlets" : 3,
					"outlettype" : [ "", "", "" ],
					"patching_rect" : [ 100.0, 110.0, 121.0, 19.0 ],
					"id" : "obj-10",
					"fontname" : "Verdana"
				}

			}
, 			{
				"box" : 				{
					"maxclass" : "outlet",
					"numinlets" : 1,
					"numoutlets" : 0,
					"patching_rect" : [ 470.0, 475.0, 27.0, 27.0 ],
					"id" : "obj-11",
					"comment" : "OSC messages"
				}

			}
, 			{
				"box" : 				{
					"maxclass" : "newobj",
					"text" : "p load_new_plug",
					"numinlets" : 2,
					"fontsize" : 10.0,
					"numoutlets" : 4,
					"outlettype" : [ "plug", "", "clear", "clear" ],
					"patching_rect" : [ 100.0, 180.0, 107.0, 19.0 ],
					"id" : "obj-12",
					"fontname" : "Verdana",
					"patcher" : 					{
						"fileversion" : 1,
						"rect" : [ 438.0, 111.0, 473.0, 418.0 ],
						"bglocked" : 0,
						"defrect" : [ 438.0, 111.0, 473.0, 418.0 ],
						"openrect" : [ 0.0, 0.0, 0.0, 0.0 ],
						"openinpresentation" : 0,
						"default_fontsize" : 10.0,
						"default_fontface" : 0,
						"default_fontname" : "Verdana",
						"gridonopen" : 0,
						"gridsize" : [ 5.0, 5.0 ],
						"gridsnaponopen" : 0,
						"toolbarvisible" : 1,
						"boxanimatetime" : 200,
						"imprint" : 0,
						"boxes" : [ 							{
								"box" : 								{
									"maxclass" : "newobj",
									"text" : "deferlow",
									"numinlets" : 1,
									"fontsize" : 10.0,
									"numoutlets" : 1,
									"outlettype" : [ "" ],
									"patching_rect" : [ 165.0, 197.0, 51.0, 19.0 ],
									"id" : "obj-1",
									"fontname" : "Verdana"
								}

							}
, 							{
								"box" : 								{
									"maxclass" : "newobj",
									"text" : "p scripting _etc",
									"numinlets" : 3,
									"fontsize" : 10.0,
									"numoutlets" : 2,
									"outlettype" : [ "", "" ],
									"patching_rect" : [ 165.0, 305.0, 86.0, 19.0 ],
									"id" : "obj-2",
									"fontname" : "Verdana",
									"patcher" : 									{
										"fileversion" : 1,
										"rect" : [ 378.0, 53.0, 1062.0, 767.0 ],
										"bglocked" : 0,
										"defrect" : [ 378.0, 53.0, 1062.0, 767.0 ],
										"openrect" : [ 0.0, 0.0, 0.0, 0.0 ],
										"openinpresentation" : 0,
										"default_fontsize" : 10.0,
										"default_fontface" : 0,
										"default_fontname" : "Verdana",
										"gridonopen" : 0,
										"gridsize" : [ 5.0, 5.0 ],
										"gridsnaponopen" : 0,
										"toolbarvisible" : 1,
										"boxanimatetime" : 200,
										"imprint" : 0,
										"boxes" : [ 											{
												"box" : 												{
													"maxclass" : "button",
													"numinlets" : 1,
													"numoutlets" : 1,
													"outlettype" : [ "bang" ],
													"patching_rect" : [ 240.0, 40.0, 20.0, 20.0 ],
													"id" : "obj-39"
												}

											}
, 											{
												"box" : 												{
													"maxclass" : "button",
													"numinlets" : 1,
													"numoutlets" : 1,
													"outlettype" : [ "bang" ],
													"patching_rect" : [ 585.0, 40.0, 20.0, 20.0 ],
													"id" : "obj-38"
												}

											}
, 											{
												"box" : 												{
													"maxclass" : "message",
													"text" : "testing",
													"numinlets" : 2,
													"fontsize" : 10.0,
													"numoutlets" : 1,
													"outlettype" : [ "" ],
													"patching_rect" : [ 530.0, 40.0, 45.0, 17.0 ],
													"id" : "obj-36",
													"fontname" : "Verdana"
												}

											}
, 											{
												"box" : 												{
													"maxclass" : "newobj",
													"text" : "deferlow",
													"numinlets" : 1,
													"fontsize" : 10.0,
													"numoutlets" : 1,
													"outlettype" : [ "" ],
													"patching_rect" : [ 165.0, 130.0, 53.0, 19.0 ],
													"id" : "obj-1",
													"fontname" : "Verdana"
												}

											}
, 											{
												"box" : 												{
													"maxclass" : "newobj",
													"text" : "prepend get",
													"numinlets" : 1,
													"fontsize" : 10.0,
													"numoutlets" : 1,
													"outlettype" : [ "" ],
													"patching_rect" : [ 60.0, 470.0, 71.0, 19.0 ],
													"id" : "obj-2",
													"fontname" : "Verdana"
												}

											}
, 											{
												"box" : 												{
													"maxclass" : "outlet",
													"numinlets" : 1,
													"numoutlets" : 0,
													"patching_rect" : [ 60.0, 575.0, 25.0, 25.0 ],
													"id" : "obj-3",
													"comment" : ""
												}

											}
, 											{
												"box" : 												{
													"maxclass" : "newobj",
													"text" : "uzi",
													"numinlets" : 2,
													"fontsize" : 10.0,
													"numoutlets" : 3,
													"outlettype" : [ "bang", "bang", "int" ],
													"patching_rect" : [ 387.0, 382.0, 46.0, 19.0 ],
													"id" : "obj-4",
													"fontname" : "Verdana"
												}

											}
, 											{
												"box" : 												{
													"maxclass" : "newobj",
													"text" : "i",
													"numinlets" : 2,
													"fontsize" : 10.0,
													"numoutlets" : 1,
													"outlettype" : [ "int" ],
													"patching_rect" : [ 387.0, 356.0, 32.5, 19.0 ],
													"id" : "obj-5",
													"fontname" : "Verdana"
												}

											}
, 											{
												"box" : 												{
													"maxclass" : "newobj",
													"text" : "sel 0",
													"numinlets" : 2,
													"fontsize" : 10.0,
													"numoutlets" : 2,
													"outlettype" : [ "bang", "" ],
													"patching_rect" : [ 417.0, 442.0, 34.0, 19.0 ],
													"id" : "obj-6",
													"fontname" : "Verdana"
												}

											}
, 											{
												"box" : 												{
													"maxclass" : "newobj",
													"text" : "uzi 0",
													"numinlets" : 2,
													"fontsize" : 10.0,
													"numoutlets" : 3,
													"outlettype" : [ "bang", "bang", "int" ],
													"patching_rect" : [ 865.0, 225.0, 46.0, 19.0 ],
													"id" : "obj-7",
													"fontname" : "Verdana"
												}

											}
, 											{
												"box" : 												{
													"maxclass" : "newobj",
													"text" : "t 1 0 b",
													"numinlets" : 1,
													"fontsize" : 10.0,
													"numoutlets" : 3,
													"outlettype" : [ "int", "int", "bang" ],
													"patching_rect" : [ 458.0, 129.0, 46.0, 19.0 ],
													"id" : "obj-8",
													"fontname" : "Verdana"
												}

											}
, 											{
												"box" : 												{
													"maxclass" : "inlet",
													"numinlets" : 0,
													"numoutlets" : 1,
													"outlettype" : [ "bang" ],
													"patching_rect" : [ 460.0, 80.0, 27.0, 27.0 ],
													"id" : "obj-9",
													"comment" : ""
												}

											}
, 											{
												"box" : 												{
													"maxclass" : "inlet",
													"numinlets" : 0,
													"numoutlets" : 1,
													"outlettype" : [ "bang" ],
													"patching_rect" : [ 165.0, 80.0, 27.0, 27.0 ],
													"id" : "obj-10",
													"comment" : ""
												}

											}
, 											{
												"box" : 												{
													"maxclass" : "inlet",
													"numinlets" : 0,
													"numoutlets" : 1,
													"outlettype" : [ "" ],
													"patching_rect" : [ 405.0, 80.0, 27.0, 27.0 ],
													"id" : "obj-11",
													"comment" : ""
												}

											}
, 											{
												"box" : 												{
													"maxclass" : "outlet",
													"numinlets" : 1,
													"numoutlets" : 0,
													"patching_rect" : [ 165.0, 575.0, 25.0, 25.0 ],
													"id" : "obj-12",
													"comment" : ""
												}

											}
, 											{
												"box" : 												{
													"maxclass" : "newobj",
													"text" : "t b b",
													"numinlets" : 1,
													"fontsize" : 10.0,
													"numoutlets" : 2,
													"outlettype" : [ "bang", "bang" ],
													"patching_rect" : [ 165.0, 160.0, 34.0, 19.0 ],
													"id" : "obj-13",
													"fontname" : "Verdana"
												}

											}
, 											{
												"box" : 												{
													"maxclass" : "newobj",
													"text" : "+ 240",
													"numinlets" : 2,
													"fontsize" : 10.0,
													"numoutlets" : 1,
													"outlettype" : [ "int" ],
													"patching_rect" : [ 675.0, 415.0, 41.0, 19.0 ],
													"id" : "obj-14",
													"fontname" : "Verdana"
												}

											}
, 											{
												"box" : 												{
													"maxclass" : "message",
													"text" : "script connect oscroute_parameter 0 oscrt-1 0",
													"linecount" : 3,
													"numinlets" : 2,
													"fontsize" : 10.0,
													"numoutlets" : 1,
													"outlettype" : [ "" ],
													"patching_rect" : [ 165.0, 470.0, 127.0, 41.0 ],
													"id" : "obj-16",
													"fontname" : "Verdana"
												}

											}
, 											{
												"box" : 												{
													"maxclass" : "newobj",
													"text" : "- 1",
													"numinlets" : 2,
													"fontsize" : 10.0,
													"numoutlets" : 1,
													"outlettype" : [ "int" ],
													"patching_rect" : [ 417.0, 420.0, 32.5, 19.0 ],
													"id" : "obj-17",
													"fontname" : "Verdana"
												}

											}
, 											{
												"box" : 												{
													"maxclass" : "newobj",
													"text" : "t i i i",
													"numinlets" : 1,
													"fontsize" : 10.0,
													"numoutlets" : 3,
													"outlettype" : [ "int", "int", "int" ],
													"patching_rect" : [ 404.0, 279.0, 46.0, 19.0 ],
													"id" : "obj-18",
													"fontname" : "Verdana"
												}

											}
, 											{
												"box" : 												{
													"maxclass" : "newobj",
													"text" : "* 25",
													"numinlets" : 2,
													"fontsize" : 10.0,
													"numoutlets" : 1,
													"outlettype" : [ "int" ],
													"patching_rect" : [ 675.0, 394.0, 33.0, 19.0 ],
													"id" : "obj-20",
													"fontname" : "Verdana"
												}

											}
, 											{
												"box" : 												{
													"maxclass" : "newobj",
													"text" : "t b s",
													"numinlets" : 1,
													"fontsize" : 10.0,
													"numoutlets" : 2,
													"outlettype" : [ "bang", "" ],
													"patching_rect" : [ 404.0, 129.0, 33.0, 19.0 ],
													"id" : "obj-21",
													"fontname" : "Verdana"
												}

											}
, 											{
												"box" : 												{
													"maxclass" : "newobj",
													"text" : "counter",
													"numinlets" : 5,
													"fontsize" : 10.0,
													"numoutlets" : 4,
													"outlettype" : [ "int", "", "", "int" ],
													"patching_rect" : [ 404.0, 189.0, 73.0, 19.0 ],
													"id" : "obj-22",
													"fontname" : "Verdana"
												}

											}
, 											{
												"box" : 												{
													"maxclass" : "newobj",
													"text" : "sprintf script delete oscrt-%d",
													"linecount" : 2,
													"numinlets" : 1,
													"fontsize" : 10.0,
													"numoutlets" : 1,
													"outlettype" : [ "" ],
													"patching_rect" : [ 885.0, 470.0, 101.0, 31.0 ],
													"id" : "obj-24",
													"fontname" : "Verdana"
												}

											}
, 											{
												"box" : 												{
													"maxclass" : "newobj",
													"text" : "sprintf script connect oscrt-%ld 0 vst 0",
													"linecount" : 2,
													"numinlets" : 1,
													"fontsize" : 10.0,
													"numoutlets" : 1,
													"outlettype" : [ "" ],
													"patching_rect" : [ 320.0, 470.0, 118.0, 31.0 ],
													"id" : "obj-15",
													"fontname" : "Verdana"
												}

											}
, 											{
												"box" : 												{
													"maxclass" : "newobj",
													"text" : "sprintf script newdefault oscrt-%ld 30 %ld jcom.pass /%s",
													"linecount" : 2,
													"numinlets" : 3,
													"fontsize" : 10.0,
													"numoutlets" : 1,
													"outlettype" : [ "" ],
													"patching_rect" : [ 585.0, 470.0, 203.0, 31.0 ],
													"id" : "obj-30",
													"fontname" : "Verdana"
												}

											}
, 											{
												"box" : 												{
													"maxclass" : "newobj",
													"text" : "sprintf script connect oscrt-%ld 1 oscrt-%d 0",
													"linecount" : 2,
													"numinlets" : 2,
													"fontsize" : 10.0,
													"numoutlets" : 1,
													"outlettype" : [ "" ],
													"patching_rect" : [ 445.0, 470.0, 134.0, 31.0 ],
													"id" : "obj-19",
													"fontname" : "Verdana"
												}

											}
 ],
										"lines" : [ 											{
												"patchline" : 												{
													"source" : [ "obj-4", 2 ],
													"destination" : [ "obj-2", 0 ],
													"hidden" : 0,
													"midpoints" : [  ]
												}

											}
, 											{
												"patchline" : 												{
													"source" : [ "obj-2", 0 ],
													"destination" : [ "obj-3", 0 ],
													"hidden" : 0,
													"midpoints" : [  ]
												}

											}
, 											{
												"patchline" : 												{
													"source" : [ "obj-10", 0 ],
													"destination" : [ "obj-1", 0 ],
													"hidden" : 0,
													"midpoints" : [  ]
												}

											}
, 											{
												"patchline" : 												{
													"source" : [ "obj-1", 0 ],
													"destination" : [ "obj-13", 0 ],
													"hidden" : 0,
													"midpoints" : [  ]
												}

											}
, 											{
												"patchline" : 												{
													"source" : [ "obj-13", 0 ],
													"destination" : [ "obj-16", 0 ],
													"hidden" : 0,
													"midpoints" : [  ]
												}

											}
, 											{
												"patchline" : 												{
													"source" : [ "obj-24", 0 ],
													"destination" : [ "obj-12", 0 ],
													"hidden" : 0,
													"midpoints" : [ 894.5, 562.0, 174.5, 562.0 ]
												}

											}
, 											{
												"patchline" : 												{
													"source" : [ "obj-16", 0 ],
													"destination" : [ "obj-12", 0 ],
													"hidden" : 0,
													"midpoints" : [ 174.5, 543.0, 174.5, 543.0 ]
												}

											}
, 											{
												"patchline" : 												{
													"source" : [ "obj-13", 1 ],
													"destination" : [ "obj-5", 0 ],
													"hidden" : 0,
													"midpoints" : [  ]
												}

											}
, 											{
												"patchline" : 												{
													"source" : [ "obj-5", 0 ],
													"destination" : [ "obj-4", 0 ],
													"hidden" : 0,
													"midpoints" : [  ]
												}

											}
, 											{
												"patchline" : 												{
													"source" : [ "obj-11", 0 ],
													"destination" : [ "obj-21", 0 ],
													"hidden" : 0,
													"midpoints" : [  ]
												}

											}
, 											{
												"patchline" : 												{
													"source" : [ "obj-21", 0 ],
													"destination" : [ "obj-22", 0 ],
													"hidden" : 0,
													"midpoints" : [  ]
												}

											}
, 											{
												"patchline" : 												{
													"source" : [ "obj-22", 0 ],
													"destination" : [ "obj-18", 0 ],
													"hidden" : 0,
													"midpoints" : [  ]
												}

											}
, 											{
												"patchline" : 												{
													"source" : [ "obj-18", 0 ],
													"destination" : [ "obj-5", 1 ],
													"hidden" : 0,
													"midpoints" : [  ]
												}

											}
, 											{
												"patchline" : 												{
													"source" : [ "obj-4", 2 ],
													"destination" : [ "obj-17", 0 ],
													"hidden" : 0,
													"midpoints" : [  ]
												}

											}
, 											{
												"patchline" : 												{
													"source" : [ "obj-17", 0 ],
													"destination" : [ "obj-6", 0 ],
													"hidden" : 0,
													"midpoints" : [  ]
												}

											}
, 											{
												"patchline" : 												{
													"source" : [ "obj-8", 0 ],
													"destination" : [ "obj-22", 2 ],
													"hidden" : 0,
													"midpoints" : [  ]
												}

											}
, 											{
												"patchline" : 												{
													"source" : [ "obj-9", 0 ],
													"destination" : [ "obj-8", 0 ],
													"hidden" : 0,
													"midpoints" : [  ]
												}

											}
, 											{
												"patchline" : 												{
													"source" : [ "obj-8", 2 ],
													"destination" : [ "obj-7", 0 ],
													"hidden" : 0,
													"midpoints" : [ 494.5, 152.0, 874.5, 152.0 ]
												}

											}
, 											{
												"patchline" : 												{
													"source" : [ "obj-22", 0 ],
													"destination" : [ "obj-7", 1 ],
													"hidden" : 0,
													"midpoints" : [ 413.5, 213.0, 901.5, 213.0 ]
												}

											}
, 											{
												"patchline" : 												{
													"source" : [ "obj-8", 1 ],
													"destination" : [ "obj-7", 1 ],
													"hidden" : 0,
													"midpoints" : [ 481.0, 162.0, 901.5, 162.0 ]
												}

											}
, 											{
												"patchline" : 												{
													"source" : [ "obj-7", 2 ],
													"destination" : [ "obj-24", 0 ],
													"hidden" : 0,
													"midpoints" : [  ]
												}

											}
, 											{
												"patchline" : 												{
													"source" : [ "obj-30", 0 ],
													"destination" : [ "obj-12", 0 ],
													"hidden" : 0,
													"midpoints" : [ 594.5, 560.0, 174.5, 560.0 ]
												}

											}
, 											{
												"patchline" : 												{
													"source" : [ "obj-21", 1 ],
													"destination" : [ "obj-30", 2 ],
													"hidden" : 0,
													"midpoints" : [ 427.5, 174.0, 778.5, 174.0 ]
												}

											}
, 											{
												"patchline" : 												{
													"source" : [ "obj-18", 1 ],
													"destination" : [ "obj-30", 0 ],
													"hidden" : 0,
													"midpoints" : [ 427.0, 353.0, 594.5, 353.0 ]
												}

											}
, 											{
												"patchline" : 												{
													"source" : [ "obj-18", 2 ],
													"destination" : [ "obj-20", 0 ],
													"hidden" : 0,
													"midpoints" : [ 440.5, 327.0, 684.5, 327.0 ]
												}

											}
, 											{
												"patchline" : 												{
													"source" : [ "obj-20", 0 ],
													"destination" : [ "obj-14", 0 ],
													"hidden" : 0,
													"midpoints" : [  ]
												}

											}
, 											{
												"patchline" : 												{
													"source" : [ "obj-14", 0 ],
													"destination" : [ "obj-30", 1 ],
													"hidden" : 0,
													"midpoints" : [  ]
												}

											}
, 											{
												"patchline" : 												{
													"source" : [ "obj-38", 0 ],
													"destination" : [ "obj-8", 0 ],
													"hidden" : 0,
													"midpoints" : [  ]
												}

											}
, 											{
												"patchline" : 												{
													"source" : [ "obj-36", 0 ],
													"destination" : [ "obj-21", 0 ],
													"hidden" : 0,
													"midpoints" : [  ]
												}

											}
, 											{
												"patchline" : 												{
													"source" : [ "obj-4", 2 ],
													"destination" : [ "obj-19", 1 ],
													"hidden" : 0,
													"midpoints" : [  ]
												}

											}
, 											{
												"patchline" : 												{
													"source" : [ "obj-6", 1 ],
													"destination" : [ "obj-19", 0 ],
													"hidden" : 0,
													"midpoints" : [  ]
												}

											}
, 											{
												"patchline" : 												{
													"source" : [ "obj-19", 0 ],
													"destination" : [ "obj-12", 0 ],
													"hidden" : 0,
													"midpoints" : [ 454.5, 558.0, 174.5, 558.0 ]
												}

											}
, 											{
												"patchline" : 												{
													"source" : [ "obj-4", 2 ],
													"destination" : [ "obj-15", 0 ],
													"hidden" : 0,
													"midpoints" : [  ]
												}

											}
, 											{
												"patchline" : 												{
													"source" : [ "obj-15", 0 ],
													"destination" : [ "obj-12", 0 ],
													"hidden" : 0,
													"midpoints" : [ 329.5, 556.0, 174.5, 556.0 ]
												}

											}
, 											{
												"patchline" : 												{
													"source" : [ "obj-39", 0 ],
													"destination" : [ "obj-13", 0 ],
													"hidden" : 0,
													"midpoints" : [  ]
												}

											}
 ]
									}
,
									"saved_object_attributes" : 									{
										"globalpatchername" : "",
										"fontface" : 0,
										"fontsize" : 10.0,
										"default_fontface" : 0,
										"default_fontname" : "Verdana",
										"fontname" : "Verdana",
										"default_fontsize" : 10.0
									}

								}

							}
, 							{
								"box" : 								{
									"maxclass" : "newobj",
									"text" : "t b params pgmnames b clear",
									"numinlets" : 1,
									"fontsize" : 10.0,
									"numoutlets" : 5,
									"outlettype" : [ "bang", "params", "pgmnames", "bang", "clear" ],
									"patching_rect" : [ 165.0, 225.0, 159.0, 19.0 ],
									"id" : "obj-3",
									"fontname" : "Verdana"
								}

							}
, 							{
								"box" : 								{
									"maxclass" : "newobj",
									"text" : "t b l",
									"numinlets" : 1,
									"fontsize" : 10.0,
									"numoutlets" : 2,
									"outlettype" : [ "bang", "" ],
									"patching_rect" : [ 120.0, 119.0, 32.5, 19.0 ],
									"id" : "obj-4",
									"fontname" : "Verdana"
								}

							}
, 							{
								"box" : 								{
									"maxclass" : "newobj",
									"text" : "sel bang",
									"numinlets" : 1,
									"fontsize" : 10.0,
									"numoutlets" : 2,
									"outlettype" : [ "bang", "" ],
									"patching_rect" : [ 50.0, 50.0, 89.0, 19.0 ],
									"id" : "obj-5",
									"fontname" : "Verdana"
								}

							}
, 							{
								"box" : 								{
									"maxclass" : "newobj",
									"text" : "t b plug",
									"numinlets" : 1,
									"fontsize" : 10.0,
									"numoutlets" : 2,
									"outlettype" : [ "bang", "plug" ],
									"patching_rect" : [ 50.0, 119.0, 47.0, 19.0 ],
									"id" : "obj-6",
									"fontname" : "Verdana"
								}

							}
, 							{
								"box" : 								{
									"maxclass" : "inlet",
									"numinlets" : 0,
									"numoutlets" : 1,
									"outlettype" : [ "" ],
									"patching_rect" : [ 50.0, 15.0, 25.0, 25.0 ],
									"id" : "obj-7",
									"comment" : ""
								}

							}
, 							{
								"box" : 								{
									"maxclass" : "inlet",
									"numinlets" : 0,
									"numoutlets" : 1,
									"outlettype" : [ "" ],
									"patching_rect" : [ 400.0, 15.0, 25.0, 25.0 ],
									"id" : "obj-8",
									"comment" : ""
								}

							}
, 							{
								"box" : 								{
									"maxclass" : "outlet",
									"numinlets" : 1,
									"numoutlets" : 0,
									"patching_rect" : [ 85.0, 335.0, 25.0, 25.0 ],
									"id" : "obj-9",
									"comment" : ""
								}

							}
, 							{
								"box" : 								{
									"maxclass" : "outlet",
									"numinlets" : 1,
									"numoutlets" : 0,
									"patching_rect" : [ 263.0, 339.0, 25.0, 25.0 ],
									"id" : "obj-10",
									"comment" : ""
								}

							}
, 							{
								"box" : 								{
									"maxclass" : "outlet",
									"numinlets" : 1,
									"numoutlets" : 0,
									"patching_rect" : [ 233.0, 339.0, 25.0, 25.0 ],
									"id" : "obj-11",
									"comment" : ""
								}

							}
, 							{
								"box" : 								{
									"maxclass" : "outlet",
									"numinlets" : 1,
									"numoutlets" : 0,
									"patching_rect" : [ 298.0, 339.0, 25.0, 25.0 ],
									"id" : "obj-12",
									"comment" : ""
								}

							}
 ],
						"lines" : [ 							{
								"patchline" : 								{
									"source" : [ "obj-7", 0 ],
									"destination" : [ "obj-5", 0 ],
									"hidden" : 0,
									"midpoints" : [  ]
								}

							}
, 							{
								"patchline" : 								{
									"source" : [ "obj-5", 0 ],
									"destination" : [ "obj-6", 0 ],
									"hidden" : 0,
									"midpoints" : [  ]
								}

							}
, 							{
								"patchline" : 								{
									"source" : [ "obj-5", 1 ],
									"destination" : [ "obj-4", 0 ],
									"hidden" : 0,
									"midpoints" : [  ]
								}

							}
, 							{
								"patchline" : 								{
									"source" : [ "obj-4", 0 ],
									"destination" : [ "obj-1", 0 ],
									"hidden" : 0,
									"midpoints" : [  ]
								}

							}
, 							{
								"patchline" : 								{
									"source" : [ "obj-6", 0 ],
									"destination" : [ "obj-1", 0 ],
									"hidden" : 0,
									"midpoints" : [  ]
								}

							}
, 							{
								"patchline" : 								{
									"source" : [ "obj-1", 0 ],
									"destination" : [ "obj-3", 0 ],
									"hidden" : 0,
									"midpoints" : [  ]
								}

							}
, 							{
								"patchline" : 								{
									"source" : [ "obj-3", 0 ],
									"destination" : [ "obj-2", 0 ],
									"hidden" : 0,
									"midpoints" : [  ]
								}

							}
, 							{
								"patchline" : 								{
									"source" : [ "obj-8", 0 ],
									"destination" : [ "obj-2", 1 ],
									"hidden" : 0,
									"midpoints" : [ 409.5, 276.0, 208.0, 276.0 ]
								}

							}
, 							{
								"patchline" : 								{
									"source" : [ "obj-3", 3 ],
									"destination" : [ "obj-2", 2 ],
									"hidden" : 0,
									"midpoints" : [  ]
								}

							}
, 							{
								"patchline" : 								{
									"source" : [ "obj-2", 1 ],
									"destination" : [ "obj-11", 0 ],
									"hidden" : 0,
									"midpoints" : [  ]
								}

							}
, 							{
								"patchline" : 								{
									"source" : [ "obj-3", 4 ],
									"destination" : [ "obj-10", 0 ],
									"hidden" : 0,
									"midpoints" : [  ]
								}

							}
, 							{
								"patchline" : 								{
									"source" : [ "obj-3", 3 ],
									"destination" : [ "obj-10", 0 ],
									"hidden" : 0,
									"midpoints" : [  ]
								}

							}
, 							{
								"patchline" : 								{
									"source" : [ "obj-3", 4 ],
									"destination" : [ "obj-12", 0 ],
									"hidden" : 0,
									"midpoints" : [  ]
								}

							}
, 							{
								"patchline" : 								{
									"source" : [ "obj-6", 1 ],
									"destination" : [ "obj-9", 0 ],
									"hidden" : 0,
									"midpoints" : [  ]
								}

							}
, 							{
								"patchline" : 								{
									"source" : [ "obj-4", 1 ],
									"destination" : [ "obj-9", 0 ],
									"hidden" : 0,
									"midpoints" : [  ]
								}

							}
, 							{
								"patchline" : 								{
									"source" : [ "obj-3", 1 ],
									"destination" : [ "obj-9", 0 ],
									"hidden" : 0,
									"midpoints" : [  ]
								}

							}
, 							{
								"patchline" : 								{
									"source" : [ "obj-3", 2 ],
									"destination" : [ "obj-9", 0 ],
									"hidden" : 0,
									"midpoints" : [  ]
								}

							}
, 							{
								"patchline" : 								{
									"source" : [ "obj-2", 0 ],
									"destination" : [ "obj-9", 0 ],
									"hidden" : 0,
									"midpoints" : [  ]
								}

							}
 ]
					}
,
					"saved_object_attributes" : 					{
						"globalpatchername" : "",
						"fontface" : 0,
						"fontsize" : 10.0,
						"default_fontface" : 0,
						"default_fontname" : "Verdana",
						"fontname" : "Verdana",
						"default_fontsize" : 10.0
					}

				}

			}
, 			{
				"box" : 				{
					"maxclass" : "outlet",
					"numinlets" : 1,
					"numoutlets" : 0,
					"patching_rect" : [ 815.0, 475.0, 27.0, 27.0 ],
					"id" : "obj-13",
					"comment" : "parameter updated (index, value)"
				}

			}
, 			{
				"box" : 				{
					"maxclass" : "newobj",
					"varname" : "oscroute_parameter",
					"text" : "jcom.oscroute /parameter /vst /raw/voice",
					"numinlets" : 1,
					"fontsize" : 10.0,
					"numoutlets" : 4,
					"outlettype" : [ "", "", "", "" ],
					"patching_rect" : [ 30.0, 80.0, 222.0, 19.0 ],
					"id" : "obj-14",
					"fontname" : "Verdana"
				}

			}
, 			{
				"box" : 				{
					"maxclass" : "newobj",
					"text" : "thispatcher",
					"numinlets" : 1,
					"fontsize" : 10.0,
					"numoutlets" : 2,
					"outlettype" : [ "", "" ],
					"patching_rect" : [ 130.0, 215.0, 65.0, 19.0 ],
					"id" : "obj-15",
					"fontname" : "Verdana",
					"save" : [ "#N", "thispatcher", ";", "#Q", "end", ";" ]
				}

			}
, 			{
				"box" : 				{
					"maxclass" : "outlet",
					"numinlets" : 1,
					"numoutlets" : 0,
					"patching_rect" : [ 555.0, 475.0, 27.0, 27.0 ],
					"id" : "obj-16",
					"comment" : "(signal) channel 2"
				}

			}
, 			{
				"box" : 				{
					"maxclass" : "outlet",
					"numinlets" : 1,
					"numoutlets" : 0,
					"patching_rect" : [ 525.0, 475.0, 27.0, 27.0 ],
					"id" : "obj-17",
					"comment" : "(signal) channel 1"
				}

			}
, 			{
				"box" : 				{
					"maxclass" : "inlet",
					"numinlets" : 0,
					"numoutlets" : 1,
					"outlettype" : [ "" ],
					"patching_rect" : [ 620.0, 15.0, 27.0, 27.0 ],
					"id" : "obj-18",
					"comment" : "(signal) channel 2"
				}

			}
, 			{
				"box" : 				{
					"maxclass" : "inlet",
					"numinlets" : 0,
					"numoutlets" : 1,
					"outlettype" : [ "" ],
					"patching_rect" : [ 540.0, 15.0, 27.0, 27.0 ],
					"id" : "obj-19",
					"comment" : "(signal) channel 1"
				}

			}
, 			{
				"box" : 				{
					"maxclass" : "outlet",
					"numinlets" : 1,
					"numoutlets" : 0,
					"patching_rect" : [ 595.0, 475.0, 27.0, 27.0 ],
					"id" : "obj-20",
					"comment" : "build menu of parameters"
				}

			}
, 			{
				"box" : 				{
					"maxclass" : "inlet",
					"varname" : "ctlinlet",
					"numinlets" : 0,
					"numoutlets" : 1,
					"outlettype" : [ "" ],
					"patching_rect" : [ 30.0, 15.0, 27.0, 27.0 ],
					"id" : "obj-21",
					"comment" : "OSC messages"
				}

			}
, 			{
				"box" : 				{
					"maxclass" : "newobj",
					"text" : "prepend append",
					"numinlets" : 1,
					"fontsize" : 10.0,
					"numoutlets" : 1,
					"outlettype" : [ "" ],
					"patching_rect" : [ 575.0, 400.0, 90.0, 19.0 ],
					"id" : "obj-22",
					"fontname" : "Verdana"
				}

			}
, 			{
				"box" : 				{
					"maxclass" : "newobj",
					"varname" : "vst",
					"text" : "vst~",
					"numinlets" : 2,
					"fontsize" : 10.0,
					"numoutlets" : 6,
					"outlettype" : [ "signal", "signal", "", "list", "int", "" ],
					"patching_rect" : [ 540.0, 350.0, 99.0, 19.0 ],
					"id" : "obj-23",
					"fontname" : "Verdana",
					"save" : [ "#N", "vst~", "loaduniqueid", 0, ";" ]
				}

			}
 ],
		"lines" : [ 			{
				"patchline" : 				{
					"source" : [ "obj-21", 0 ],
					"destination" : [ "obj-8", 0 ],
					"hidden" : 0,
					"midpoints" : [  ]
				}

			}
, 			{
				"patchline" : 				{
					"source" : [ "obj-8", 0 ],
					"destination" : [ "obj-14", 0 ],
					"hidden" : 0,
					"midpoints" : [  ]
				}

			}
, 			{
				"patchline" : 				{
					"source" : [ "obj-14", 1 ],
					"destination" : [ "obj-10", 0 ],
					"hidden" : 0,
					"midpoints" : [  ]
				}

			}
, 			{
				"patchline" : 				{
					"source" : [ "obj-10", 0 ],
					"destination" : [ "obj-12", 0 ],
					"hidden" : 0,
					"midpoints" : [  ]
				}

			}
, 			{
				"patchline" : 				{
					"source" : [ "obj-12", 1 ],
					"destination" : [ "obj-15", 0 ],
					"hidden" : 0,
					"midpoints" : [  ]
				}

			}
, 			{
				"patchline" : 				{
					"source" : [ "obj-10", 2 ],
					"destination" : [ "obj-2", 0 ],
					"hidden" : 0,
					"midpoints" : [  ]
				}

			}
, 			{
				"patchline" : 				{
					"source" : [ "obj-2", 0 ],
					"destination" : [ "obj-1", 0 ],
					"hidden" : 0,
					"midpoints" : [  ]
				}

			}
, 			{
				"patchline" : 				{
					"source" : [ "obj-2", 1 ],
					"destination" : [ "obj-6", 0 ],
					"hidden" : 0,
					"midpoints" : [  ]
				}

			}
, 			{
				"patchline" : 				{
					"source" : [ "obj-14", 2 ],
					"destination" : [ "obj-3", 0 ],
					"hidden" : 0,
					"midpoints" : [ 174.833328, 102.0, 454.5, 102.0 ]
				}

			}
, 			{
				"patchline" : 				{
					"source" : [ "obj-3", 0 ],
					"destination" : [ "obj-23", 0 ],
					"hidden" : 0,
					"midpoints" : [ 454.5, 165.0, 549.5, 165.0 ]
				}

			}
, 			{
				"patchline" : 				{
					"source" : [ "obj-9", 0 ],
					"destination" : [ "obj-23", 0 ],
					"hidden" : 0,
					"midpoints" : [  ]
				}

			}
, 			{
				"patchline" : 				{
					"source" : [ "obj-19", 0 ],
					"destination" : [ "obj-23", 0 ],
					"hidden" : 0,
					"midpoints" : [  ]
				}

			}
, 			{
				"patchline" : 				{
					"source" : [ "obj-12", 0 ],
					"destination" : [ "obj-23", 0 ],
					"hidden" : 0,
					"midpoints" : [ 109.5, 240.0, 549.5, 240.0 ]
				}

			}
, 			{
				"patchline" : 				{
					"source" : [ "obj-6", 0 ],
					"destination" : [ "obj-23", 0 ],
					"hidden" : 0,
					"midpoints" : [ 354.5, 165.0, 549.5, 165.0 ]
				}

			}
, 			{
				"patchline" : 				{
					"source" : [ "obj-10", 1 ],
					"destination" : [ "obj-23", 0 ],
					"hidden" : 0,
					"midpoints" : [ 160.5, 165.0, 549.5, 165.0 ]
				}

			}
, 			{
				"patchline" : 				{
					"source" : [ "obj-1", 0 ],
					"destination" : [ "obj-23", 0 ],
					"hidden" : 0,
					"midpoints" : [ 239.5, 165.0, 549.5, 165.0 ]
				}

			}
, 			{
				"patchline" : 				{
					"source" : [ "obj-23", 0 ],
					"destination" : [ "obj-17", 0 ],
					"hidden" : 0,
					"midpoints" : [  ]
				}

			}
, 			{
				"patchline" : 				{
					"source" : [ "obj-23", 1 ],
					"destination" : [ "obj-16", 0 ],
					"hidden" : 0,
					"midpoints" : [  ]
				}

			}
, 			{
				"patchline" : 				{
					"source" : [ "obj-23", 2 ],
					"destination" : [ "obj-22", 0 ],
					"hidden" : 0,
					"midpoints" : [  ]
				}

			}
, 			{
				"patchline" : 				{
					"source" : [ "obj-22", 0 ],
					"destination" : [ "obj-20", 0 ],
					"hidden" : 0,
					"midpoints" : [  ]
				}

			}
, 			{
				"patchline" : 				{
					"source" : [ "obj-18", 0 ],
					"destination" : [ "obj-23", 1 ],
					"hidden" : 0,
					"midpoints" : [  ]
				}

			}
, 			{
				"patchline" : 				{
					"source" : [ "obj-23", 5 ],
					"destination" : [ "obj-5", 0 ],
					"hidden" : 0,
					"midpoints" : [  ]
				}

			}
, 			{
				"patchline" : 				{
					"source" : [ "obj-5", 0 ],
					"destination" : [ "obj-4", 0 ],
					"hidden" : 0,
					"midpoints" : [  ]
				}

			}
, 			{
				"patchline" : 				{
					"source" : [ "obj-7", 1 ],
					"destination" : [ "obj-13", 0 ],
					"hidden" : 0,
					"midpoints" : [  ]
				}

			}
, 			{
				"patchline" : 				{
					"source" : [ "obj-12", 2 ],
					"destination" : [ "obj-20", 0 ],
					"hidden" : 0,
					"midpoints" : [ 168.166672, 457.0, 604.5, 457.0 ]
				}

			}
, 			{
				"patchline" : 				{
					"source" : [ "obj-12", 3 ],
					"destination" : [ "obj-5", 1 ],
					"hidden" : 0,
					"midpoints" : [ 197.5, 211.0, 786.5, 211.0 ]
				}

			}
, 			{
				"patchline" : 				{
					"source" : [ "obj-23", 2 ],
					"destination" : [ "obj-12", 1 ],
					"hidden" : 0,
					"midpoints" : [ 581.5, 390.0, 660.0, 390.0, 660.0, 174.0, 197.5, 174.0 ]
				}

			}
, 			{
				"patchline" : 				{
					"source" : [ "obj-23", 3 ],
					"destination" : [ "obj-7", 0 ],
					"hidden" : 0,
					"midpoints" : [ 597.5, 382.0, 809.5, 382.0 ]
				}

			}
, 			{
				"patchline" : 				{
					"source" : [ "obj-7", 2 ],
					"destination" : [ "obj-8", 1 ],
					"hidden" : 0,
					"midpoints" : [ 830.5, 423.0, 824.0, 423.0, 824.0, 51.0, 104.5, 51.0 ]
				}

			}
, 			{
				"patchline" : 				{
					"source" : [ "obj-7", 0 ],
					"destination" : [ "obj-8", 1 ],
					"hidden" : 0,
					"midpoints" : [ 809.5, 427.0, 829.0, 427.0, 829.0, 47.0, 104.5, 47.0 ]
				}

			}
 ]
	}

}
