{
	"patcher" : 	{
		"fileversion" : 1,
		"rect" : [ 171.0, 119.0, 868.0, 538.0 ],
		"bglocked" : 0,
		"defrect" : [ 171.0, 119.0, 868.0, 538.0 ],
		"openrect" : [ 0.0, 0.0, 0.0, 0.0 ],
		"openinpresentation" : 0,
		"default_fontsize" : 10.0,
		"default_fontface" : 0,
		"default_fontname" : "Verdana",
		"gridonopen" : 0,
		"gridsize" : [ 5.0, 5.0 ],
		"gridsnaponopen" : 0,
		"toolbarvisible" : 1,
		"boxanimatetime" : 200,
		"imprint" : 0,
		"metadata" : [  ],
		"boxes" : [ 			{
				"box" : 				{
					"maxclass" : "number~",
					"outlettype" : [ "signal", "float" ],
					"presentation_rect" : [ 674.0, 302.0, 0.0, 0.0 ],
					"patching_rect" : [ 675.0, 300.0, 56.0, 19.0 ],
					"mode" : 2,
					"id" : "obj-25",
					"fontname" : "Verdana",
					"numinlets" : 2,
					"sig" : 0.0,
					"numoutlets" : 2,
					"fontsize" : 10.0
				}

			}
, 			{
				"box" : 				{
					"maxclass" : "number~",
					"outlettype" : [ "signal", "float" ],
					"presentation_rect" : [ 614.0, 302.0, 0.0, 0.0 ],
					"patching_rect" : [ 615.0, 300.0, 56.0, 19.0 ],
					"mode" : 2,
					"id" : "obj-26",
					"fontname" : "Verdana",
					"numinlets" : 2,
					"sig" : 0.0,
					"numoutlets" : 2,
					"fontsize" : 10.0
				}

			}
, 			{
				"box" : 				{
					"maxclass" : "number~",
					"outlettype" : [ "signal", "float" ],
					"presentation_rect" : [ 554.0, 302.0, 0.0, 0.0 ],
					"patching_rect" : [ 555.0, 300.0, 56.0, 19.0 ],
					"mode" : 2,
					"id" : "obj-27",
					"fontname" : "Verdana",
					"numinlets" : 2,
					"sig" : 0.0,
					"numoutlets" : 2,
					"fontsize" : 10.0
				}

			}
, 			{
				"box" : 				{
					"maxclass" : "number~",
					"outlettype" : [ "signal", "float" ],
					"presentation_rect" : [ 494.0, 302.0, 0.0, 0.0 ],
					"patching_rect" : [ 495.0, 300.0, 56.0, 19.0 ],
					"mode" : 2,
					"id" : "obj-28",
					"fontname" : "Verdana",
					"numinlets" : 2,
					"sig" : 0.0,
					"numoutlets" : 2,
					"fontsize" : 10.0
				}

			}
, 			{
				"box" : 				{
					"maxclass" : "newobj",
					"text" : "join≈",
					"outlettype" : [ "", "" ],
					"patching_rect" : [ 255.0, 185.0, 37.0, 19.0 ],
					"id" : "obj-24",
					"fontname" : "Verdana",
					"numinlets" : 1,
					"numoutlets" : 2,
					"fontsize" : 10.0
				}

			}
, 			{
				"box" : 				{
					"maxclass" : "number",
					"outlettype" : [ "int", "bang" ],
					"presentation_rect" : [ 335.0, 177.0, 0.0, 0.0 ],
					"patching_rect" : [ 335.0, 210.0, 50.0, 19.0 ],
					"id" : "obj-22",
					"fontname" : "Verdana",
					"numinlets" : 1,
					"numoutlets" : 2,
					"fontsize" : 10.0
				}

			}
, 			{
				"box" : 				{
					"maxclass" : "newobj",
					"text" : "info≈",
					"outlettype" : [ "", "", "", "" ],
					"presentation_rect" : [ 270.0, 177.0, 0.0, 0.0 ],
					"patching_rect" : [ 270.0, 210.0, 64.5, 19.0 ],
					"id" : "obj-23",
					"fontname" : "Verdana",
					"numinlets" : 1,
					"numoutlets" : 4,
					"fontsize" : 10.0
				}

			}
, 			{
				"box" : 				{
					"maxclass" : "number",
					"outlettype" : [ "int", "bang" ],
					"presentation_rect" : [ 615.0, 148.0, 0.0, 0.0 ],
					"patching_rect" : [ 615.0, 150.0, 50.0, 19.0 ],
					"id" : "obj-20",
					"fontname" : "Verdana",
					"numinlets" : 1,
					"numoutlets" : 2,
					"fontsize" : 10.0
				}

			}
, 			{
				"box" : 				{
					"maxclass" : "newobj",
					"text" : "info≈",
					"outlettype" : [ "", "", "", "" ],
					"presentation_rect" : [ 550.0, 148.0, 0.0, 0.0 ],
					"patching_rect" : [ 550.0, 150.0, 64.5, 19.0 ],
					"id" : "obj-21",
					"fontname" : "Verdana",
					"numinlets" : 1,
					"numoutlets" : 4,
					"fontsize" : 10.0
				}

			}
, 			{
				"box" : 				{
					"maxclass" : "number",
					"outlettype" : [ "int", "bang" ],
					"patching_rect" : [ 335.0, 150.0, 50.0, 19.0 ],
					"id" : "obj-19",
					"fontname" : "Verdana",
					"numinlets" : 1,
					"numoutlets" : 2,
					"fontsize" : 10.0
				}

			}
, 			{
				"box" : 				{
					"maxclass" : "newobj",
					"text" : "info≈",
					"outlettype" : [ "", "", "", "" ],
					"patching_rect" : [ 270.0, 150.0, 64.5, 19.0 ],
					"id" : "obj-17",
					"fontname" : "Verdana",
					"numinlets" : 1,
					"numoutlets" : 4,
					"fontsize" : 10.0
				}

			}
, 			{
				"box" : 				{
					"maxclass" : "newobj",
					"text" : "sig~ -2000",
					"outlettype" : [ "signal" ],
					"patching_rect" : [ 760.0, 70.0, 66.0, 19.0 ],
					"id" : "obj-2",
					"fontname" : "Verdana",
					"numinlets" : 1,
					"numoutlets" : 1,
					"fontsize" : 10.0
				}

			}
, 			{
				"box" : 				{
					"maxclass" : "newobj",
					"text" : "sig~ 2000",
					"outlettype" : [ "signal" ],
					"patching_rect" : [ 690.0, 70.0, 62.0, 19.0 ],
					"id" : "obj-13",
					"fontname" : "Verdana",
					"numinlets" : 1,
					"numoutlets" : 1,
					"fontsize" : 10.0
				}

			}
, 			{
				"box" : 				{
					"maxclass" : "newobj",
					"text" : "sig~ -1000",
					"outlettype" : [ "signal" ],
					"patching_rect" : [ 620.0, 70.0, 66.0, 19.0 ],
					"id" : "obj-14",
					"fontname" : "Verdana",
					"numinlets" : 1,
					"numoutlets" : 1,
					"fontsize" : 10.0
				}

			}
, 			{
				"box" : 				{
					"maxclass" : "newobj",
					"text" : "sig~ 1000",
					"outlettype" : [ "signal" ],
					"patching_rect" : [ 550.0, 70.0, 62.0, 19.0 ],
					"id" : "obj-15",
					"fontname" : "Verdana",
					"numinlets" : 1,
					"numoutlets" : 1,
					"fontsize" : 10.0
				}

			}
, 			{
				"box" : 				{
					"maxclass" : "newobj",
					"text" : "in≈ 4",
					"outlettype" : [ "", "" ],
					"presentation_rect" : [ 551.0, 127.0, 0.0, 0.0 ],
					"patching_rect" : [ 550.0, 125.0, 229.5, 19.0 ],
					"id" : "obj-16",
					"fontname" : "Verdana",
					"numinlets" : 4,
					"numoutlets" : 2,
					"fontsize" : 10.0
				}

			}
, 			{
				"box" : 				{
					"maxclass" : "ezdac~",
					"patching_rect" : [ 155.0, 210.0, 45.0, 45.0 ],
					"id" : "obj-12",
					"numinlets" : 2,
					"numoutlets" : 0
				}

			}
, 			{
				"box" : 				{
					"maxclass" : "number~",
					"outlettype" : [ "signal", "float" ],
					"patching_rect" : [ 435.0, 300.0, 56.0, 19.0 ],
					"mode" : 2,
					"id" : "obj-11",
					"fontname" : "Verdana",
					"numinlets" : 2,
					"sig" : 0.0,
					"numoutlets" : 2,
					"fontsize" : 10.0
				}

			}
, 			{
				"box" : 				{
					"maxclass" : "number~",
					"outlettype" : [ "signal", "float" ],
					"patching_rect" : [ 375.0, 300.0, 56.0, 19.0 ],
					"mode" : 2,
					"id" : "obj-10",
					"fontname" : "Verdana",
					"numinlets" : 2,
					"sig" : 0.0,
					"numoutlets" : 2,
					"fontsize" : 10.0
				}

			}
, 			{
				"box" : 				{
					"maxclass" : "number~",
					"outlettype" : [ "signal", "float" ],
					"patching_rect" : [ 315.0, 300.0, 56.0, 19.0 ],
					"mode" : 2,
					"id" : "obj-9",
					"fontname" : "Verdana",
					"numinlets" : 2,
					"sig" : 0.0,
					"numoutlets" : 2,
					"fontsize" : 10.0
				}

			}
, 			{
				"box" : 				{
					"maxclass" : "number~",
					"outlettype" : [ "signal", "float" ],
					"patching_rect" : [ 255.0, 300.0, 56.0, 19.0 ],
					"mode" : 2,
					"id" : "obj-8",
					"fontname" : "Verdana",
					"numinlets" : 2,
					"sig" : 0.0,
					"numoutlets" : 2,
					"fontsize" : 10.0
				}

			}
, 			{
				"box" : 				{
					"maxclass" : "newobj",
					"text" : "sig~ -200",
					"outlettype" : [ "signal" ],
					"patching_rect" : [ 465.0, 70.0, 60.0, 19.0 ],
					"id" : "obj-6",
					"fontname" : "Verdana",
					"numinlets" : 1,
					"numoutlets" : 1,
					"fontsize" : 10.0
				}

			}
, 			{
				"box" : 				{
					"maxclass" : "newobj",
					"text" : "sig~ 200",
					"outlettype" : [ "signal" ],
					"patching_rect" : [ 395.0, 70.0, 55.0, 19.0 ],
					"id" : "obj-7",
					"fontname" : "Verdana",
					"numinlets" : 1,
					"numoutlets" : 1,
					"fontsize" : 10.0
				}

			}
, 			{
				"box" : 				{
					"maxclass" : "newobj",
					"text" : "sig~ -100",
					"outlettype" : [ "signal" ],
					"patching_rect" : [ 325.0, 70.0, 60.0, 19.0 ],
					"id" : "obj-5",
					"fontname" : "Verdana",
					"numinlets" : 1,
					"numoutlets" : 1,
					"fontsize" : 10.0
				}

			}
, 			{
				"box" : 				{
					"maxclass" : "newobj",
					"text" : "sig~ 100",
					"outlettype" : [ "signal" ],
					"patching_rect" : [ 255.0, 70.0, 55.0, 19.0 ],
					"id" : "obj-4",
					"fontname" : "Verdana",
					"numinlets" : 1,
					"numoutlets" : 1,
					"fontsize" : 10.0
				}

			}
, 			{
				"box" : 				{
					"maxclass" : "newobj",
					"text" : "out≈ 8",
					"outlettype" : [ "signal", "signal", "signal", "signal", "signal", "signal", "signal", "signal", "" ],
					"patching_rect" : [ 255.0, 250.0, 499.0, 19.0 ],
					"id" : "obj-3",
					"fontname" : "Verdana",
					"numinlets" : 1,
					"numoutlets" : 9,
					"fontsize" : 10.0
				}

			}
, 			{
				"box" : 				{
					"maxclass" : "newobj",
					"text" : "in≈ 4",
					"outlettype" : [ "", "" ],
					"patching_rect" : [ 255.0, 125.0, 229.5, 19.0 ],
					"id" : "obj-1",
					"fontname" : "Verdana",
					"numinlets" : 4,
					"numoutlets" : 2,
					"fontsize" : 10.0
				}

			}
 ],
		"lines" : [ 			{
				"patchline" : 				{
					"source" : [ "obj-2", 0 ],
					"destination" : [ "obj-16", 3 ],
					"hidden" : 0,
					"midpoints" : [  ]
				}

			}
, 			{
				"patchline" : 				{
					"source" : [ "obj-13", 0 ],
					"destination" : [ "obj-16", 2 ],
					"hidden" : 0,
					"midpoints" : [  ]
				}

			}
, 			{
				"patchline" : 				{
					"source" : [ "obj-14", 0 ],
					"destination" : [ "obj-16", 1 ],
					"hidden" : 0,
					"midpoints" : [  ]
				}

			}
, 			{
				"patchline" : 				{
					"source" : [ "obj-15", 0 ],
					"destination" : [ "obj-16", 0 ],
					"hidden" : 0,
					"midpoints" : [  ]
				}

			}
, 			{
				"patchline" : 				{
					"source" : [ "obj-3", 7 ],
					"destination" : [ "obj-25", 0 ],
					"hidden" : 0,
					"midpoints" : [  ]
				}

			}
, 			{
				"patchline" : 				{
					"source" : [ "obj-3", 6 ],
					"destination" : [ "obj-26", 0 ],
					"hidden" : 0,
					"midpoints" : [  ]
				}

			}
, 			{
				"patchline" : 				{
					"source" : [ "obj-3", 5 ],
					"destination" : [ "obj-27", 0 ],
					"hidden" : 0,
					"midpoints" : [  ]
				}

			}
, 			{
				"patchline" : 				{
					"source" : [ "obj-3", 4 ],
					"destination" : [ "obj-28", 0 ],
					"hidden" : 0,
					"midpoints" : [  ]
				}

			}
, 			{
				"patchline" : 				{
					"source" : [ "obj-24", 0 ],
					"destination" : [ "obj-23", 0 ],
					"hidden" : 0,
					"midpoints" : [  ]
				}

			}
, 			{
				"patchline" : 				{
					"source" : [ "obj-3", 3 ],
					"destination" : [ "obj-11", 0 ],
					"hidden" : 0,
					"midpoints" : [  ]
				}

			}
, 			{
				"patchline" : 				{
					"source" : [ "obj-3", 2 ],
					"destination" : [ "obj-10", 0 ],
					"hidden" : 0,
					"midpoints" : [  ]
				}

			}
, 			{
				"patchline" : 				{
					"source" : [ "obj-3", 1 ],
					"destination" : [ "obj-9", 0 ],
					"hidden" : 0,
					"midpoints" : [  ]
				}

			}
, 			{
				"patchline" : 				{
					"source" : [ "obj-3", 0 ],
					"destination" : [ "obj-8", 0 ],
					"hidden" : 0,
					"midpoints" : [  ]
				}

			}
, 			{
				"patchline" : 				{
					"source" : [ "obj-24", 0 ],
					"destination" : [ "obj-3", 0 ],
					"hidden" : 0,
					"midpoints" : [  ]
				}

			}
, 			{
				"patchline" : 				{
					"source" : [ "obj-1", 0 ],
					"destination" : [ "obj-24", 0 ],
					"hidden" : 0,
					"midpoints" : [  ]
				}

			}
, 			{
				"patchline" : 				{
					"source" : [ "obj-23", 2 ],
					"destination" : [ "obj-22", 0 ],
					"hidden" : 0,
					"midpoints" : [  ]
				}

			}
, 			{
				"patchline" : 				{
					"source" : [ "obj-16", 0 ],
					"destination" : [ "obj-21", 0 ],
					"hidden" : 0,
					"midpoints" : [  ]
				}

			}
, 			{
				"patchline" : 				{
					"source" : [ "obj-21", 2 ],
					"destination" : [ "obj-20", 0 ],
					"hidden" : 0,
					"midpoints" : [  ]
				}

			}
, 			{
				"patchline" : 				{
					"source" : [ "obj-1", 0 ],
					"destination" : [ "obj-17", 0 ],
					"hidden" : 0,
					"midpoints" : [  ]
				}

			}
, 			{
				"patchline" : 				{
					"source" : [ "obj-17", 2 ],
					"destination" : [ "obj-19", 0 ],
					"hidden" : 0,
					"midpoints" : [  ]
				}

			}
, 			{
				"patchline" : 				{
					"source" : [ "obj-4", 0 ],
					"destination" : [ "obj-1", 0 ],
					"hidden" : 0,
					"midpoints" : [  ]
				}

			}
, 			{
				"patchline" : 				{
					"source" : [ "obj-5", 0 ],
					"destination" : [ "obj-1", 1 ],
					"hidden" : 0,
					"midpoints" : [  ]
				}

			}
, 			{
				"patchline" : 				{
					"source" : [ "obj-7", 0 ],
					"destination" : [ "obj-1", 2 ],
					"hidden" : 0,
					"midpoints" : [  ]
				}

			}
, 			{
				"patchline" : 				{
					"source" : [ "obj-6", 0 ],
					"destination" : [ "obj-1", 3 ],
					"hidden" : 0,
					"midpoints" : [  ]
				}

			}
 ]
	}

}
