max v2;#N vpatcher 454 106 962 544;#P origin 0 -1066;#P window setfont "Sans Serif" 9.;#P window linecount 1;#P hidden newex 361 103 52 196617 jcom.in 1;#P user jsui 29 31 45 15 1 0 0 jcom.jsui_texttoggle.js fullscreen fullscreen;#P objectname fullscreen;#P user jsui 90 31 50 15 1 0 0 jcom.jsui_texttoggle.js interpolate interpolate;#P objectname interpolate;#P hidden newex 189 171 47 196617 pcontrol;#P hidden newex 189 148 78 196617 jcom.pass open;#P hidden newex 28 324 83 196617 pvar interpolate;#P window linecount 2;#P hidden newex 28 346 223 196617 jcom.parameter interpolate @type msg_toggle @description "Interpolate the video output";#P objectname interpolate[1];#P window linecount 1;#P hidden newex 27 244 79 196617 pvar fullscreen;#P window linecount 2;#P hidden newex 27 266 297 196617 jcom.parameter fullscreen @type msg_toggle @description "Toggle fullscreen - can be turned on and off with the ESC key.";#P objectname fullscreen[1];#P window linecount 1;#P hidden message 99 86 125 196617 /documentation/generate;#B color 3;#P hidden inlet 378 172 13 0;#P hidden comment 393 173 65 196617 VIDEO INPUT;#P hidden newex 189 200 199 196617 jalg.output%.mxt;#P window linecount 2;#P hidden message 348 333 72 196617 \; jcom.init bang;#B color 3;#P window linecount 1;#P hidden comment 15 84 79 196617 command input;#P window linecount 2;#P hidden newex 1 109 315 196617 jcom.hub jcom.output% @size 1U-half @module_type video .mxtorithm_type jitter @description "Output to an OpenGL window";#P objectname jcom.hub;#P hidden outlet 1 171 13 0;#P hidden inlet 1 84 13 0;#P bpatcher 0 0 256 60 0 0 jcom.gui.mxt 0;#P objectname jcom.gui;#P hidden fasten 9 0 3 0 104 105 6 105;#P hidden connect 1 0 3 0;#P hidden connect 3 0 2 0;#P hidden fasten 10 0 11 0 32 301 21 301 21 235 32 235;#P hidden connect 11 0 10 0;#P hidden fasten 12 0 13 0 33 381 22 381 22 315 33 315;#P hidden connect 13 0 12 0;#P hidden connect 18 1 14 0;#P hidden connect 14 0 15 0;#P hidden fasten 14 1 6 0 262 193 194 193;#P hidden connect 15 0 6 0;#P hidden connect 18 0 6 1;#P hidden connect 8 0 6 1;#P pop;