{
	"patcher" : 	{
		"fileversion" : 1,
		"rect" : [ 15.0, 55.0, 1137.0, 444.0 ],
		"bglocked" : 0,
		"defrect" : [ 15.0, 55.0, 1137.0, 444.0 ],
		"openrect" : [ 0.0, 0.0, 0.0, 0.0 ],
		"openinpresentation" : 0,
		"default_fontsize" : 12.0,
		"default_fontface" : 0,
		"default_fontname" : "Arial",
		"gridonopen" : 0,
		"gridsize" : [ 15.0, 15.0 ],
		"gridsnaponopen" : 0,
		"toolbarvisible" : 1,
		"boxanimatetime" : 200,
		"imprint" : 0,
		"metadata" : [  ],
		"boxes" : [ 			{
				"box" : 				{
					"maxclass" : "comment",
					"text" : "2 X 3 matrix, input as a 1 X 6 list",
					"numinlets" : 1,
					"presentation_rect" : [ 298.0, 111.0, 0.0, 0.0 ],
					"numoutlets" : 0,
					"patching_rect" : [ 295.0, 113.0, 160.0, 17.0 ],
					"id" : "obj-43",
					"fontname" : "Arial",
					"fontsize" : 9.0
				}

			}
, 			{
				"box" : 				{
					"maxclass" : "comment",
					"text" : "1 X 1 matrix",
					"numinlets" : 1,
					"presentation_rect" : [ 192.0, 133.0, 0.0, 0.0 ],
					"numoutlets" : 0,
					"patching_rect" : [ 192.0, 134.0, 58.0, 17.0 ],
					"id" : "obj-42",
					"fontname" : "Arial",
					"fontsize" : 9.0
				}

			}
, 			{
				"box" : 				{
					"maxclass" : "comment",
					"text" : "1 X 1 matrix",
					"numinlets" : 1,
					"presentation_rect" : [ 111.0, 131.0, 0.0, 0.0 ],
					"numoutlets" : 0,
					"patching_rect" : [ 111.0, 134.0, 58.0, 17.0 ],
					"id" : "obj-41",
					"fontname" : "Arial",
					"fontsize" : 9.0
				}

			}
, 			{
				"box" : 				{
					"maxclass" : "comment",
					"text" : "1 X 2 matrix",
					"numinlets" : 1,
					"numoutlets" : 0,
					"patching_rect" : [ 23.0, 113.0, 58.0, 17.0 ],
					"id" : "obj-40",
					"fontname" : "Arial",
					"fontsize" : 9.0
				}

			}
, 			{
				"box" : 				{
					"maxclass" : "flonum",
					"numinlets" : 1,
					"presentation_rect" : [ 437.0, 129.0, 0.0, 0.0 ],
					"numoutlets" : 2,
					"patching_rect" : [ 431.0, 129.0, 36.0, 18.0 ],
					"outlettype" : [ "float", "bang" ],
					"id" : "obj-36",
					"fontname" : "Arial",
					"fontsize" : 10.0
				}

			}
, 			{
				"box" : 				{
					"maxclass" : "flonum",
					"numinlets" : 1,
					"presentation_rect" : [ 472.0, 129.0, 0.0, 0.0 ],
					"numoutlets" : 2,
					"patching_rect" : [ 466.0, 129.0, 36.0, 18.0 ],
					"outlettype" : [ "float", "bang" ],
					"id" : "obj-37",
					"fontname" : "Arial",
					"fontsize" : 10.0
				}

			}
, 			{
				"box" : 				{
					"maxclass" : "flonum",
					"numinlets" : 1,
					"presentation_rect" : [ 367.0, 128.0, 0.0, 0.0 ],
					"numoutlets" : 2,
					"patching_rect" : [ 362.0, 129.0, 36.0, 18.0 ],
					"outlettype" : [ "float", "bang" ],
					"id" : "obj-34",
					"fontname" : "Arial",
					"fontsize" : 10.0
				}

			}
, 			{
				"box" : 				{
					"maxclass" : "flonum",
					"numinlets" : 1,
					"presentation_rect" : [ 402.0, 128.0, 0.0, 0.0 ],
					"numoutlets" : 2,
					"patching_rect" : [ 397.0, 129.0, 36.0, 18.0 ],
					"outlettype" : [ "float", "bang" ],
					"id" : "obj-35",
					"fontname" : "Arial",
					"fontsize" : 10.0
				}

			}
, 			{
				"box" : 				{
					"maxclass" : "flonum",
					"numinlets" : 1,
					"presentation_rect" : [ 297.0, 129.0, 0.0, 0.0 ],
					"numoutlets" : 2,
					"patching_rect" : [ 293.0, 129.0, 36.0, 18.0 ],
					"outlettype" : [ "float", "bang" ],
					"id" : "obj-32",
					"fontname" : "Arial",
					"fontsize" : 10.0
				}

			}
, 			{
				"box" : 				{
					"maxclass" : "flonum",
					"numinlets" : 1,
					"presentation_rect" : [ 332.0, 129.0, 0.0, 0.0 ],
					"numoutlets" : 2,
					"patching_rect" : [ 328.0, 129.0, 36.0, 18.0 ],
					"outlettype" : [ "float", "bang" ],
					"id" : "obj-33",
					"fontname" : "Arial",
					"fontsize" : 10.0
				}

			}
, 			{
				"box" : 				{
					"maxclass" : "newobj",
					"text" : "pak 0. 0. 0. 0. 0. 0.",
					"numinlets" : 6,
					"numoutlets" : 1,
					"patching_rect" : [ 293.0, 151.0, 192.0, 18.0 ],
					"outlettype" : [ "" ],
					"id" : "obj-31",
					"fontname" : "Arial",
					"fontsize" : 10.0
				}

			}
, 			{
				"box" : 				{
					"maxclass" : "flonum",
					"numinlets" : 1,
					"numoutlets" : 2,
					"patching_rect" : [ 23.0, 131.0, 36.0, 18.0 ],
					"outlettype" : [ "float", "bang" ],
					"id" : "obj-30",
					"fontname" : "Arial",
					"fontsize" : 10.0
				}

			}
, 			{
				"box" : 				{
					"maxclass" : "flonum",
					"numinlets" : 1,
					"numoutlets" : 2,
					"patching_rect" : [ 58.0, 131.0, 36.0, 18.0 ],
					"outlettype" : [ "float", "bang" ],
					"id" : "obj-28",
					"fontname" : "Arial",
					"fontsize" : 10.0
				}

			}
, 			{
				"box" : 				{
					"maxclass" : "newobj",
					"text" : "pak 0. 0.",
					"numinlets" : 2,
					"numoutlets" : 1,
					"patching_rect" : [ 23.0, 155.0, 54.0, 18.0 ],
					"outlettype" : [ "" ],
					"id" : "obj-26",
					"fontname" : "Arial",
					"fontsize" : 10.0
				}

			}
, 			{
				"box" : 				{
					"maxclass" : "message",
					"text" : "jmod.sdif.record",
					"numinlets" : 2,
					"numoutlets" : 1,
					"patching_rect" : [ 742.0, 367.0, 76.0, 15.0 ],
					"outlettype" : [ "" ],
					"id" : "obj-1",
					"fontname" : "Arial",
					"fontsize" : 9.0
				}

			}
, 			{
				"box" : 				{
					"maxclass" : "newobj",
					"text" : "pcontrol",
					"numinlets" : 1,
					"numoutlets" : 1,
					"patching_rect" : [ 742.0, 406.0, 41.0, 17.0 ],
					"hidden" : 1,
					"outlettype" : [ "" ],
					"id" : "obj-2",
					"fontname" : "Arial",
					"fontsize" : 9.0
				}

			}
, 			{
				"box" : 				{
					"maxclass" : "newobj",
					"text" : "prepend help",
					"numinlets" : 1,
					"numoutlets" : 1,
					"patching_rect" : [ 742.0, 387.0, 61.0, 17.0 ],
					"hidden" : 1,
					"outlettype" : [ "" ],
					"id" : "obj-3",
					"fontname" : "Arial",
					"fontsize" : 9.0
				}

			}
, 			{
				"box" : 				{
					"maxclass" : "comment",
					"text" : "for more details on the sdif.record modules",
					"numinlets" : 1,
					"numoutlets" : 0,
					"patching_rect" : [ 818.0, 368.0, 280.0, 17.0 ],
					"id" : "obj-4",
					"fontname" : "Arial",
					"fontsize" : 9.0
				}

			}
, 			{
				"box" : 				{
					"maxclass" : "comment",
					"text" : "see",
					"numinlets" : 1,
					"numoutlets" : 0,
					"patching_rect" : [ 718.0, 368.0, 23.0, 17.0 ],
					"id" : "obj-5",
					"fontname" : "Arial",
					"fontsize" : 9.0
				}

			}
, 			{
				"box" : 				{
					"maxclass" : "flonum",
					"numinlets" : 1,
					"numoutlets" : 2,
					"patching_rect" : [ 203.0, 152.0, 35.0, 17.0 ],
					"outlettype" : [ "float", "bang" ],
					"id" : "obj-6",
					"fontname" : "Arial",
					"fontsize" : 9.0,
					"htextcolor" : [ 0.870588, 0.870588, 0.870588, 1.0 ],
					"bgcolor" : [ 0.866667, 0.866667, 0.866667, 1.0 ],
					"triscale" : 0.9
				}

			}
, 			{
				"box" : 				{
					"maxclass" : "number",
					"numinlets" : 1,
					"numoutlets" : 2,
					"patching_rect" : [ 113.0, 152.0, 35.0, 17.0 ],
					"outlettype" : [ "int", "bang" ],
					"id" : "obj-7",
					"fontname" : "Arial",
					"fontsize" : 9.0,
					"htextcolor" : [ 0.870588, 0.870588, 0.870588, 1.0 ],
					"bgcolor" : [ 0.866667, 0.866667, 0.866667, 1.0 ],
					"triscale" : 0.9
				}

			}
, 			{
				"box" : 				{
					"maxclass" : "comment",
					"text" : "By default all arguments are 1",
					"numinlets" : 1,
					"numoutlets" : 0,
					"patching_rect" : [ 636.0, 135.0, 139.0, 17.0 ],
					"id" : "obj-10",
					"fontname" : "Arial",
					"fontsize" : 9.0
				}

			}
, 			{
				"box" : 				{
					"maxclass" : "comment",
					"text" : ".",
					"numinlets" : 1,
					"numoutlets" : 0,
					"patching_rect" : [ 820.0, 107.0, 16.0, 17.0 ],
					"id" : "obj-13",
					"fontname" : "Arial",
					"fontsize" : 9.0
				}

			}
, 			{
				"box" : 				{
					"maxclass" : "comment",
					"text" : ".",
					"numinlets" : 1,
					"numoutlets" : 0,
					"patching_rect" : [ 820.0, 91.0, 16.0, 17.0 ],
					"id" : "obj-14",
					"fontname" : "Arial",
					"fontsize" : 9.0
				}

			}
, 			{
				"box" : 				{
					"maxclass" : "comment",
					"text" : ".",
					"numinlets" : 1,
					"numoutlets" : 0,
					"patching_rect" : [ 820.0, 99.0, 16.0, 17.0 ],
					"id" : "obj-15",
					"fontname" : "Arial",
					"fontsize" : 9.0
				}

			}
, 			{
				"box" : 				{
					"maxclass" : "comment",
					"text" : "Argument15: the number of rows in stream 7, argument16: the number of columns in stream 7",
					"numinlets" : 1,
					"numoutlets" : 0,
					"patching_rect" : [ 652.0, 120.0, 414.0, 17.0 ],
					"id" : "obj-16",
					"fontname" : "Arial",
					"fontsize" : 9.0
				}

			}
, 			{
				"box" : 				{
					"maxclass" : "comment",
					"text" : "Argument3: the number of rows in stream 1, argument4: the number of columns in stream 1",
					"numinlets" : 1,
					"numoutlets" : 0,
					"patching_rect" : [ 652.0, 82.0, 414.0, 17.0 ],
					"id" : "obj-17",
					"fontname" : "Arial",
					"fontsize" : 9.0
				}

			}
, 			{
				"box" : 				{
					"maxclass" : "comment",
					"text" : "Argument1: the number of rows in stream 0, argument2: the number of columns in stream 0",
					"numinlets" : 1,
					"numoutlets" : 0,
					"patching_rect" : [ 652.0, 68.0, 414.0, 17.0 ],
					"id" : "obj-18",
					"fontname" : "Arial",
					"fontsize" : 9.0
				}

			}
, 			{
				"box" : 				{
					"maxclass" : "comment",
					"text" : "The abstraction takes 16 arguments:",
					"numinlets" : 1,
					"numoutlets" : 0,
					"patching_rect" : [ 636.0, 52.0, 414.0, 17.0 ],
					"id" : "obj-19",
					"fontname" : "Arial",
					"fontsize" : 9.0
				}

			}
, 			{
				"box" : 				{
					"maxclass" : "comment",
					"text" : "Like the jmod.sdif.record, the jcom.sdif.record.data takes up to eight streams (numbered 0-7)",
					"numinlets" : 1,
					"numoutlets" : 0,
					"patching_rect" : [ 636.0, 31.0, 414.0, 17.0 ],
					"id" : "obj-20",
					"fontname" : "Arial",
					"fontsize" : 9.0
				}

			}
, 			{
				"box" : 				{
					"maxclass" : "newobj",
					"text" : "jcom.sdif.record.data 1 2 1 1 1 1 2 3",
					"numinlets" : 8,
					"numoutlets" : 1,
					"patching_rect" : [ 23.0, 183.0, 648.0, 18.0 ],
					"outlettype" : [ "" ],
					"id" : "obj-21",
					"fontname" : "Arial",
					"fontsize" : 10.0
				}

			}
, 			{
				"box" : 				{
					"maxclass" : "bpatcher",
					"varname" : "jmod.sdif.record.mxt",
					"numinlets" : 2,
					"presentation_rect" : [ 0.0, 0.0, 600.0, 210.0 ],
					"numoutlets" : 1,
					"patching_rect" : [ 23.0, 205.0, 600.0, 210.0 ],
					"outlettype" : [ "" ],
					"id" : "obj-22",
					"name" : "jmod.sdif.record.maxpat",
					"args" : [  ]
				}

			}
, 			{
				"box" : 				{
					"maxclass" : "comment",
					"text" : "jcom.sdif.record.data",
					"numinlets" : 1,
					"numoutlets" : 0,
					"patching_rect" : [ 28.0, 11.0, 213.0, 27.0 ],
					"textcolor" : [ 1.0, 1.0, 1.0, 1.0 ],
					"id" : "obj-23",
					"fontname" : "Arial",
					"frgb" : [ 1.0, 1.0, 1.0, 1.0 ],
					"fontsize" : 18.0
				}

			}
, 			{
				"box" : 				{
					"maxclass" : "comment",
					"text" : "Prepare lists of data to be recorded by jmod.sdif.record",
					"numinlets" : 1,
					"numoutlets" : 0,
					"patching_rect" : [ 28.0, 36.0, 292.0, 17.0 ],
					"textcolor" : [ 1.0, 1.0, 1.0, 1.0 ],
					"id" : "obj-24",
					"fontname" : "Arial",
					"frgb" : [ 1.0, 1.0, 1.0, 1.0 ],
					"fontsize" : 9.0
				}

			}
, 			{
				"box" : 				{
					"maxclass" : "panel",
					"numinlets" : 1,
					"numoutlets" : 0,
					"rounded" : 0,
					"patching_rect" : [ 23.0, 6.0, 292.0, 50.0 ],
					"id" : "obj-25",
					"bgcolor" : [ 0.262745, 0.254902, 0.419608, 1.0 ]
				}

			}
 ],
		"lines" : [ 			{
				"patchline" : 				{
					"source" : [ "obj-37", 0 ],
					"destination" : [ "obj-31", 5 ],
					"hidden" : 0,
					"midpoints" : [  ]
				}

			}
, 			{
				"patchline" : 				{
					"source" : [ "obj-36", 0 ],
					"destination" : [ "obj-31", 4 ],
					"hidden" : 0,
					"midpoints" : [  ]
				}

			}
, 			{
				"patchline" : 				{
					"source" : [ "obj-35", 0 ],
					"destination" : [ "obj-31", 3 ],
					"hidden" : 0,
					"midpoints" : [  ]
				}

			}
, 			{
				"patchline" : 				{
					"source" : [ "obj-34", 0 ],
					"destination" : [ "obj-31", 2 ],
					"hidden" : 0,
					"midpoints" : [  ]
				}

			}
, 			{
				"patchline" : 				{
					"source" : [ "obj-33", 0 ],
					"destination" : [ "obj-31", 1 ],
					"hidden" : 0,
					"midpoints" : [  ]
				}

			}
, 			{
				"patchline" : 				{
					"source" : [ "obj-32", 0 ],
					"destination" : [ "obj-31", 0 ],
					"hidden" : 0,
					"midpoints" : [  ]
				}

			}
, 			{
				"patchline" : 				{
					"source" : [ "obj-31", 0 ],
					"destination" : [ "obj-21", 3 ],
					"hidden" : 0,
					"midpoints" : [  ]
				}

			}
, 			{
				"patchline" : 				{
					"source" : [ "obj-26", 0 ],
					"destination" : [ "obj-21", 0 ],
					"hidden" : 0,
					"midpoints" : [  ]
				}

			}
, 			{
				"patchline" : 				{
					"source" : [ "obj-30", 0 ],
					"destination" : [ "obj-26", 0 ],
					"hidden" : 0,
					"midpoints" : [  ]
				}

			}
, 			{
				"patchline" : 				{
					"source" : [ "obj-28", 0 ],
					"destination" : [ "obj-26", 1 ],
					"hidden" : 0,
					"midpoints" : [  ]
				}

			}
, 			{
				"patchline" : 				{
					"source" : [ "obj-21", 0 ],
					"destination" : [ "obj-22", 1 ],
					"hidden" : 0,
					"midpoints" : [ 32.5, 202.0, 613.5, 202.0 ]
				}

			}
, 			{
				"patchline" : 				{
					"source" : [ "obj-6", 0 ],
					"destination" : [ "obj-21", 2 ],
					"hidden" : 0,
					"midpoints" : [  ]
				}

			}
, 			{
				"patchline" : 				{
					"source" : [ "obj-3", 0 ],
					"destination" : [ "obj-2", 0 ],
					"hidden" : 1,
					"midpoints" : [  ]
				}

			}
, 			{
				"patchline" : 				{
					"source" : [ "obj-1", 0 ],
					"destination" : [ "obj-3", 0 ],
					"hidden" : 1,
					"midpoints" : [  ]
				}

			}
, 			{
				"patchline" : 				{
					"source" : [ "obj-7", 0 ],
					"destination" : [ "obj-21", 1 ],
					"hidden" : 0,
					"midpoints" : [  ]
				}

			}
 ]
	}

}
