{
	"patcher" : 	{
		"fileversion" : 1,
		"rect" : [ 87.0, 107.0, 1078.0, 589.0 ],
		"bglocked" : 0,
		"defrect" : [ 87.0, 107.0, 1078.0, 589.0 ],
		"openrect" : [ 0.0, 0.0, 0.0, 0.0 ],
		"openinpresentation" : 0,
		"default_fontsize" : 10.970939,
		"default_fontface" : 0,
		"default_fontname" : "Verdana",
		"gridonopen" : 0,
		"gridsize" : [ 5.0, 5.0 ],
		"gridsnaponopen" : 0,
		"toolbarvisible" : 1,
		"boxanimatetime" : 200,
		"imprint" : 0,
		"metadata" : [  ],
		"boxes" : [ 			{
				"box" : 				{
					"maxclass" : "jit.pwindow",
					"patching_rect" : [ 235.0, 20.0, 60.0, 45.0 ],
					"outlettype" : [ "", "" ],
					"id" : "obj-25",
					"numinlets" : 1,
					"numoutlets" : 2
				}

			}
, 			{
				"box" : 				{
					"maxclass" : "newobj",
					"text" : "jcom.out",
					"hidden" : 1,
					"patching_rect" : [ 138.0, 347.0, 52.0, 18.0 ],
					"outlettype" : [ "", "" ],
					"id" : "obj-1",
					"fontname" : "Verdana",
					"fontsize" : 9.873845,
					"numinlets" : 1,
					"numoutlets" : 2
				}

			}
, 			{
				"box" : 				{
					"maxclass" : "newobj",
					"text" : "jcom.in 1",
					"hidden" : 1,
					"patching_rect" : [ 217.0, 245.0, 55.0, 18.0 ],
					"outlettype" : [ "", "", "" ],
					"id" : "obj-2",
					"fontname" : "Verdana",
					"fontsize" : 9.873845,
					"numinlets" : 1,
					"numoutlets" : 3
				}

			}
, 			{
				"box" : 				{
					"maxclass" : "number",
					"patching_rect" : [ 138.0, 39.0, 34.0, 18.0 ],
					"triscale" : 0.9,
					"outlettype" : [ "int", "bang" ],
					"id" : "obj-3",
					"fontname" : "Verdana",
					"textcolor" : [ 0.709804, 0.709804, 0.709804, 1.0 ],
					"triangle" : 0,
					"fontsize" : 9.873845,
					"minimum" : 1,
					"numinlets" : 1,
					"numoutlets" : 2,
					"bgcolor" : [ 0.866667, 0.866667, 0.866667, 1.0 ]
				}

			}
, 			{
				"box" : 				{
					"maxclass" : "comment",
					"text" : "y",
					"patching_rect" : [ 122.0, 41.0, 17.0, 18.0 ],
					"frgb" : [ 0.584314, 0.584314, 0.584314, 1.0 ],
					"id" : "obj-4",
					"fontname" : "Verdana",
					"textcolor" : [ 0.584314, 0.584314, 0.584314, 1.0 ],
					"fontsize" : 9.873845,
					"numinlets" : 1,
					"numoutlets" : 0
				}

			}
, 			{
				"box" : 				{
					"maxclass" : "newobj",
					"varname" : "y",
					"text" : "jcom.parameter y @type msg_int @ramp/drive scheduler @description \"Specify the x-axis offset in pixels.\"",
					"linecount" : 2,
					"hidden" : 1,
					"patching_rect" : [ 485.0, 112.0, 298.0, 30.0 ],
					"outlettype" : [ "", "", "" ],
					"id" : "obj-5",
					"fontname" : "Verdana",
					"fontsize" : 9.873845,
					"numinlets" : 1,
					"numoutlets" : 3
				}

			}
, 			{
				"box" : 				{
					"maxclass" : "number",
					"patching_rect" : [ 138.0, 21.0, 34.0, 18.0 ],
					"triscale" : 0.9,
					"outlettype" : [ "int", "bang" ],
					"id" : "obj-6",
					"fontname" : "Verdana",
					"textcolor" : [ 0.709804, 0.709804, 0.709804, 1.0 ],
					"triangle" : 0,
					"fontsize" : 9.873845,
					"minimum" : 1,
					"numinlets" : 1,
					"numoutlets" : 2,
					"bgcolor" : [ 0.866667, 0.866667, 0.866667, 1.0 ]
				}

			}
, 			{
				"box" : 				{
					"maxclass" : "comment",
					"text" : "x",
					"patching_rect" : [ 122.0, 23.0, 17.0, 18.0 ],
					"frgb" : [ 0.584314, 0.584314, 0.584314, 1.0 ],
					"id" : "obj-7",
					"fontname" : "Verdana",
					"textcolor" : [ 0.584314, 0.584314, 0.584314, 1.0 ],
					"fontsize" : 9.873845,
					"numinlets" : 1,
					"numoutlets" : 0
				}

			}
, 			{
				"box" : 				{
					"maxclass" : "umenu",
					"types" : [  ],
					"patching_rect" : [ 49.0, 30.0, 45.0, 18.0 ],
					"outlettype" : [ "int", "", "" ],
					"id" : "obj-8",
					"fontname" : "Verdana",
					"pattrmode" : 1,
					"fontsize" : 9.873845,
					"numinlets" : 1,
					"items" : [ "clip", ",", "fold", ",", "wrap" ],
					"numoutlets" : 3
				}

			}
, 			{
				"box" : 				{
					"maxclass" : "comment",
					"text" : "mode",
					"patching_rect" : [ 18.0, 31.0, 36.0, 18.0 ],
					"frgb" : [ 0.584314, 0.584314, 0.584314, 1.0 ],
					"id" : "obj-9",
					"fontname" : "Verdana",
					"textcolor" : [ 0.584314, 0.584314, 0.584314, 1.0 ],
					"fontsize" : 9.873845,
					"numinlets" : 1,
					"numoutlets" : 0
				}

			}
, 			{
				"box" : 				{
					"maxclass" : "newobj",
					"varname" : "x",
					"text" : "jcom.parameter x @type msg_int @ramp/drive scheduler @description \"Specify the x-axis offset in pixels.\"",
					"linecount" : 2,
					"hidden" : 1,
					"patching_rect" : [ 481.0, 75.0, 298.0, 30.0 ],
					"outlettype" : [ "", "", "" ],
					"id" : "obj-10",
					"fontname" : "Verdana",
					"fontsize" : 9.873845,
					"numinlets" : 1,
					"numoutlets" : 3
				}

			}
, 			{
				"box" : 				{
					"maxclass" : "newobj",
					"varname" : "mode",
					"text" : "jcom.parameter mode @type msg_generic @description \"Determine what happens when an offset pixel is outside of the video frame's boundaries. Possible edgemodes are clip fold and wrap.\"",
					"linecount" : 3,
					"hidden" : 1,
					"patching_rect" : [ 428.0, 158.0, 352.0, 42.0 ],
					"outlettype" : [ "", "", "" ],
					"id" : "obj-11",
					"fontname" : "Verdana",
					"fontsize" : 9.873845,
					"numinlets" : 1,
					"numoutlets" : 3
				}

			}
, 			{
				"box" : 				{
					"maxclass" : "newobj",
					"varname" : "jcom.hub",
					"text" : "jcom.hub jmod.avg4% @size 1U-half @module_type video @algorithm_type jitter @description \"averages 4 pixels of input for each pixel of output\"",
					"linecount" : 3,
					"hidden" : 1,
					"patching_rect" : [ 0.0, 109.0, 310.0, 42.0 ],
					"outlettype" : [ "", "" ],
					"id" : "obj-12",
					"fontname" : "Verdana",
					"fontsize" : 9.873845,
					"numinlets" : 1,
					"numoutlets" : 2
				}

			}
, 			{
				"box" : 				{
					"maxclass" : "newobj",
					"text" : "pcontrol",
					"hidden" : 1,
					"patching_rect" : [ 138.0, 299.0, 49.0, 18.0 ],
					"outlettype" : [ "" ],
					"id" : "obj-13",
					"fontname" : "Verdana",
					"fontsize" : 9.873845,
					"numinlets" : 1,
					"numoutlets" : 1
				}

			}
, 			{
				"box" : 				{
					"maxclass" : "newobj",
					"text" : "jcom.pass open",
					"hidden" : 1,
					"patching_rect" : [ 138.0, 277.0, 86.0, 18.0 ],
					"outlettype" : [ "", "" ],
					"id" : "obj-14",
					"fontname" : "Verdana",
					"fontsize" : 9.873845,
					"numinlets" : 1,
					"numoutlets" : 2
				}

			}
, 			{
				"box" : 				{
					"maxclass" : "message",
					"text" : "/documentation/generate",
					"hidden" : 1,
					"patching_rect" : [ 103.0, 87.0, 135.0, 16.0 ],
					"outlettype" : [ "" ],
					"id" : "obj-15",
					"fontname" : "Verdana",
					"fontsize" : 9.873845,
					"numinlets" : 2,
					"numoutlets" : 1,
					"bgcolor" : [ 0.8, 0.54902, 0.54902, 1.0 ]
				}

			}
, 			{
				"box" : 				{
					"maxclass" : "comment",
					"text" : "VIDEO OUTPUT",
					"hidden" : 1,
					"patching_rect" : [ 153.0, 373.0, 85.0, 18.0 ],
					"frgb" : [ 0.658824, 0.658824, 0.658824, 1.0 ],
					"id" : "obj-16",
					"fontname" : "Verdana",
					"fontsize" : 9.873845,
					"numinlets" : 1,
					"numoutlets" : 0
				}

			}
, 			{
				"box" : 				{
					"maxclass" : "outlet",
					"hidden" : 1,
					"patching_rect" : [ 138.0, 373.0, 13.0, 13.0 ],
					"id" : "obj-17",
					"numinlets" : 1,
					"numoutlets" : 0,
					"comment" : ""
				}

			}
, 			{
				"box" : 				{
					"maxclass" : "inlet",
					"hidden" : 1,
					"patching_rect" : [ 217.0, 214.0, 13.0, 13.0 ],
					"outlettype" : [ "" ],
					"id" : "obj-18",
					"numinlets" : 0,
					"numoutlets" : 1,
					"comment" : ""
				}

			}
, 			{
				"box" : 				{
					"maxclass" : "comment",
					"text" : "VIDEO INPUT",
					"hidden" : 1,
					"patching_rect" : [ 234.0, 214.0, 75.0, 18.0 ],
					"frgb" : [ 0.658824, 0.658824, 0.658824, 1.0 ],
					"id" : "obj-19",
					"fontname" : "Verdana",
					"fontsize" : 9.873845,
					"numinlets" : 1,
					"numoutlets" : 0
				}

			}
, 			{
				"box" : 				{
					"maxclass" : "message",
					"text" : ";\rjcom.init bang",
					"linecount" : 2,
					"hidden" : 1,
					"patching_rect" : [ 17.0, 195.0, 80.0, 28.0 ],
					"outlettype" : [ "" ],
					"id" : "obj-20",
					"fontname" : "Verdana",
					"fontsize" : 9.873845,
					"numinlets" : 2,
					"numoutlets" : 1,
					"bgcolor" : [ 0.8, 0.54902, 0.54902, 1.0 ]
				}

			}
, 			{
				"box" : 				{
					"maxclass" : "comment",
					"text" : "command input",
					"hidden" : 1,
					"patching_rect" : [ 14.0, 84.0, 86.0, 18.0 ],
					"frgb" : [ 0.658824, 0.658824, 0.658824, 1.0 ],
					"id" : "obj-21",
					"fontname" : "Verdana",
					"fontsize" : 9.873845,
					"numinlets" : 1,
					"numoutlets" : 0
				}

			}
, 			{
				"box" : 				{
					"maxclass" : "outlet",
					"hidden" : 1,
					"patching_rect" : [ 0.0, 171.0, 13.0, 13.0 ],
					"id" : "obj-22",
					"numinlets" : 1,
					"numoutlets" : 0,
					"comment" : ""
				}

			}
, 			{
				"box" : 				{
					"maxclass" : "inlet",
					"hidden" : 1,
					"patching_rect" : [ 0.0, 84.0, 13.0, 13.0 ],
					"outlettype" : [ "" ],
					"id" : "obj-23",
					"numinlets" : 0,
					"numoutlets" : 1,
					"comment" : ""
				}

			}
, 			{
				"box" : 				{
					"maxclass" : "newobj",
					"text" : "jalg.avg4%",
					"hidden" : 1,
					"patching_rect" : [ 138.0, 323.0, 89.0, 18.0 ],
					"outlettype" : [ "jit_matrix" ],
					"id" : "obj-24",
					"fontname" : "Verdana",
					"fontsize" : 9.873845,
					"numinlets" : 2,
					"numoutlets" : 1
				}

			}
, 			{
				"box" : 				{
					"maxclass" : "jcom.ui",
					"text" : "/editing_this_module",
					"outlettype" : [ "" ],
					"id" : "obj-34",
					"textcolor" : [ 0.65, 0.65, 0.65, 1.0 ],
					"has_freeze" : 1,
					"prefix" : "video",
					"has_mute" : 1,
					"color" : [ 1.0, 1.0, 1.0, 1.0 ],
					"has_preview" : 1,
					"numinlets" : 1,
					"has_bypass" : 1,
					"numoutlets" : 1
				}

			}
 ],
		"lines" : [ 			{
				"patchline" : 				{
					"source" : [ "obj-34", 0 ],
					"destination" : [ "obj-25", 0 ],
					"hidden" : 0,
					"midpoints" : [  ]
				}

			}
, 			{
				"patchline" : 				{
					"source" : [ "obj-3", 0 ],
					"destination" : [ "obj-5", 0 ],
					"hidden" : 1,
					"midpoints" : [  ]
				}

			}
, 			{
				"patchline" : 				{
					"source" : [ "obj-6", 0 ],
					"destination" : [ "obj-10", 0 ],
					"hidden" : 1,
					"midpoints" : [  ]
				}

			}
, 			{
				"patchline" : 				{
					"source" : [ "obj-8", 0 ],
					"destination" : [ "obj-11", 0 ],
					"hidden" : 1,
					"midpoints" : [  ]
				}

			}
, 			{
				"patchline" : 				{
					"source" : [ "obj-2", 0 ],
					"destination" : [ "obj-24", 1 ],
					"hidden" : 1,
					"midpoints" : [  ]
				}

			}
, 			{
				"patchline" : 				{
					"source" : [ "obj-18", 0 ],
					"destination" : [ "obj-2", 0 ],
					"hidden" : 1,
					"midpoints" : [  ]
				}

			}
, 			{
				"patchline" : 				{
					"source" : [ "obj-1", 0 ],
					"destination" : [ "obj-17", 0 ],
					"hidden" : 1,
					"midpoints" : [  ]
				}

			}
, 			{
				"patchline" : 				{
					"source" : [ "obj-24", 0 ],
					"destination" : [ "obj-1", 0 ],
					"hidden" : 1,
					"midpoints" : [  ]
				}

			}
, 			{
				"patchline" : 				{
					"source" : [ "obj-13", 0 ],
					"destination" : [ "obj-24", 0 ],
					"hidden" : 1,
					"midpoints" : [  ]
				}

			}
, 			{
				"patchline" : 				{
					"source" : [ "obj-14", 1 ],
					"destination" : [ "obj-24", 0 ],
					"hidden" : 1,
					"midpoints" : [ 214.5, 320.0, 147.5, 320.0 ]
				}

			}
, 			{
				"patchline" : 				{
					"source" : [ "obj-14", 0 ],
					"destination" : [ "obj-13", 0 ],
					"hidden" : 1,
					"midpoints" : [  ]
				}

			}
, 			{
				"patchline" : 				{
					"source" : [ "obj-2", 1 ],
					"destination" : [ "obj-14", 0 ],
					"hidden" : 1,
					"midpoints" : [ 244.5, 269.0, 147.5, 269.0 ]
				}

			}
, 			{
				"patchline" : 				{
					"source" : [ "obj-5", 0 ],
					"destination" : [ "obj-3", 0 ],
					"hidden" : 1,
					"midpoints" : [  ]
				}

			}
, 			{
				"patchline" : 				{
					"source" : [ "obj-10", 0 ],
					"destination" : [ "obj-6", 0 ],
					"hidden" : 1,
					"midpoints" : [  ]
				}

			}
, 			{
				"patchline" : 				{
					"source" : [ "obj-11", 0 ],
					"destination" : [ "obj-8", 0 ],
					"hidden" : 1,
					"midpoints" : [  ]
				}

			}
, 			{
				"patchline" : 				{
					"source" : [ "obj-12", 0 ],
					"destination" : [ "obj-22", 0 ],
					"hidden" : 1,
					"midpoints" : [  ]
				}

			}
, 			{
				"patchline" : 				{
					"source" : [ "obj-23", 0 ],
					"destination" : [ "obj-12", 0 ],
					"hidden" : 1,
					"midpoints" : [  ]
				}

			}
, 			{
				"patchline" : 				{
					"source" : [ "obj-15", 0 ],
					"destination" : [ "obj-12", 0 ],
					"hidden" : 1,
					"midpoints" : [ 112.5, 105.0, 9.5, 105.0 ]
				}

			}
 ]
	}

}
