{
	"patcher" : 	{
		"fileversion" : 1,
		"rect" : [ 266.0, 216.0, 672.0, 382.0 ],
		"bglocked" : 0,
		"defrect" : [ 266.0, 216.0, 672.0, 382.0 ],
		"openrect" : [ 0.0, 0.0, 0.0, 0.0 ],
		"openinpresentation" : 0,
		"default_fontsize" : 10.970939,
		"default_fontface" : 0,
		"default_fontname" : "Verdana",
		"gridonopen" : 0,
		"gridsize" : [ 5.0, 5.0 ],
		"gridsnaponopen" : 0,
		"toolbarvisible" : 1,
		"boxanimatetime" : 200,
		"imprint" : 0,
		"metadata" : [  ],
		"boxes" : [ 			{
				"box" : 				{
					"maxclass" : "jit.pwindow",
					"patching_rect" : [ 235.0, 20.0, 60.0, 45.0 ],
					"outlettype" : [ "", "" ],
					"id" : "obj-31",
					"numinlets" : 1,
					"numoutlets" : 2
				}

			}
, 			{
				"box" : 				{
					"maxclass" : "newobj",
					"text" : "jcom.out",
					"hidden" : 1,
					"patching_rect" : [ 120.0, 291.0, 52.0, 18.0 ],
					"outlettype" : [ "", "" ],
					"id" : "obj-1",
					"fontname" : "Verdana",
					"fontsize" : 9.873845,
					"numinlets" : 1,
					"numoutlets" : 2
				}

			}
, 			{
				"box" : 				{
					"maxclass" : "inlet",
					"hidden" : 1,
					"patching_rect" : [ 241.0, 176.0, 13.0, 13.0 ],
					"outlettype" : [ "" ],
					"id" : "obj-2",
					"numinlets" : 0,
					"numoutlets" : 1,
					"comment" : ""
				}

			}
, 			{
				"box" : 				{
					"maxclass" : "comment",
					"text" : "VIDEO INPUT",
					"hidden" : 1,
					"patching_rect" : [ 256.0, 176.0, 75.0, 18.0 ],
					"frgb" : [ 0.658824, 0.658824, 0.658824, 1.0 ],
					"id" : "obj-3",
					"fontname" : "Verdana",
					"fontsize" : 9.873845,
					"numinlets" : 1,
					"numoutlets" : 0
				}

			}
, 			{
				"box" : 				{
					"maxclass" : "newobj",
					"text" : "jcom.in 1",
					"hidden" : 1,
					"patching_rect" : [ 241.0, 196.0, 78.0, 18.0 ],
					"outlettype" : [ "", "", "" ],
					"id" : "obj-4",
					"fontname" : "Verdana",
					"fontsize" : 9.873845,
					"numinlets" : 1,
					"numoutlets" : 3
				}

			}
, 			{
				"box" : 				{
					"maxclass" : "newobj",
					"text" : "pcontrol",
					"hidden" : 1,
					"patching_rect" : [ 120.0, 243.0, 49.0, 18.0 ],
					"outlettype" : [ "" ],
					"id" : "obj-5",
					"fontname" : "Verdana",
					"fontsize" : 9.873845,
					"numinlets" : 1,
					"numoutlets" : 1
				}

			}
, 			{
				"box" : 				{
					"maxclass" : "newobj",
					"text" : "jcom.pass open",
					"hidden" : 1,
					"patching_rect" : [ 120.0, 223.0, 86.0, 18.0 ],
					"outlettype" : [ "", "" ],
					"id" : "obj-6",
					"fontname" : "Verdana",
					"fontsize" : 9.873845,
					"numinlets" : 1,
					"numoutlets" : 2
				}

			}
, 			{
				"box" : 				{
					"maxclass" : "message",
					"text" : "/documentation/generate",
					"hidden" : 1,
					"patching_rect" : [ 103.0, 87.0, 135.0, 16.0 ],
					"outlettype" : [ "" ],
					"id" : "obj-7",
					"fontname" : "Verdana",
					"fontsize" : 9.873845,
					"numinlets" : 2,
					"numoutlets" : 1,
					"bgcolor" : [ 0.8, 0.54902, 0.54902, 1.0 ]
				}

			}
, 			{
				"box" : 				{
					"maxclass" : "comment",
					"text" : "bleed",
					"patching_rect" : [ 115.0, 20.0, 35.0, 18.0 ],
					"frgb" : [ 0.584314, 0.584314, 0.584314, 1.0 ],
					"id" : "obj-8",
					"fontname" : "Verdana",
					"textcolor" : [ 0.584314, 0.584314, 0.584314, 1.0 ],
					"fontsize" : 9.873845,
					"numinlets" : 1,
					"numoutlets" : 0
				}

			}
, 			{
				"box" : 				{
					"maxclass" : "comment",
					"text" : "gain",
					"patching_rect" : [ 120.0, 34.0, 30.0, 18.0 ],
					"frgb" : [ 0.584314, 0.584314, 0.584314, 1.0 ],
					"id" : "obj-9",
					"fontname" : "Verdana",
					"textcolor" : [ 0.584314, 0.584314, 0.584314, 1.0 ],
					"fontsize" : 9.873845,
					"numinlets" : 1,
					"numoutlets" : 0
				}

			}
, 			{
				"box" : 				{
					"maxclass" : "comment",
					"text" : "normalize",
					"patching_rect" : [ 77.0, 46.0, 62.0, 18.0 ],
					"frgb" : [ 0.584314, 0.584314, 0.584314, 1.0 ],
					"id" : "obj-10",
					"fontname" : "Verdana",
					"textcolor" : [ 0.584314, 0.584314, 0.584314, 1.0 ],
					"fontsize" : 9.873845,
					"numinlets" : 1,
					"numoutlets" : 0
				}

			}
, 			{
				"box" : 				{
					"maxclass" : "radiogroup",
					"patching_rect" : [ 62.0, 44.0, 79.0, 18.0 ],
					"outlettype" : [ "" ],
					"id" : "obj-11",
					"numinlets" : 1,
					"numoutlets" : 1,
					"itemtype" : 1,
					"size" : 1,
					"values" : [ 0 ],
					"disabled" : [ 0 ]
				}

			}
, 			{
				"box" : 				{
					"maxclass" : "newobj",
					"varname" : "normalize",
					"text" : "jcom.parameter normalize @type msg_toggle @description \"Switches normalization on and off\"",
					"linecount" : 2,
					"hidden" : 1,
					"patching_rect" : [ 396.0, 140.0, 254.0, 30.0 ],
					"outlettype" : [ "", "", "" ],
					"id" : "obj-12",
					"fontname" : "Verdana",
					"fontsize" : 9.873845,
					"numinlets" : 1,
					"numoutlets" : 3
				}

			}
, 			{
				"box" : 				{
					"maxclass" : "flonum",
					"patching_rect" : [ 143.0, 18.0, 35.0, 18.0 ],
					"triscale" : 0.9,
					"outlettype" : [ "float", "bang" ],
					"id" : "obj-13",
					"fontname" : "Verdana",
					"textcolor" : [ 0.709804, 0.709804, 0.709804, 1.0 ],
					"triangle" : 0,
					"fontsize" : 9.873845,
					"numinlets" : 1,
					"numoutlets" : 2,
					"bgcolor" : [ 0.866667, 0.866667, 0.866667, 1.0 ]
				}

			}
, 			{
				"box" : 				{
					"maxclass" : "flonum",
					"patching_rect" : [ 143.0, 32.0, 35.0, 18.0 ],
					"triscale" : 0.9,
					"outlettype" : [ "float", "bang" ],
					"id" : "obj-14",
					"fontname" : "Verdana",
					"textcolor" : [ 0.709804, 0.709804, 0.709804, 1.0 ],
					"triangle" : 0,
					"fontsize" : 9.873845,
					"numinlets" : 1,
					"numoutlets" : 2,
					"bgcolor" : [ 0.866667, 0.866667, 0.866667, 1.0 ]
				}

			}
, 			{
				"box" : 				{
					"maxclass" : "newobj",
					"varname" : "bleed",
					"text" : "jcom.parameter bleed @type msg_float @ramp/drive scheduler @description \"Sets convolution kernel value for all colors\"",
					"linecount" : 2,
					"hidden" : 1,
					"patching_rect" : [ 396.0, 14.0, 329.0, 30.0 ],
					"outlettype" : [ "", "", "" ],
					"id" : "obj-15",
					"fontname" : "Verdana",
					"fontsize" : 9.873845,
					"numinlets" : 1,
					"numoutlets" : 3
				}

			}
, 			{
				"box" : 				{
					"maxclass" : "newobj",
					"varname" : "gain",
					"text" : "jcom.parameter gain @type msg_float @ramp/drive scheduler @description \"The gain level for all colors\"",
					"linecount" : 2,
					"hidden" : 1,
					"patching_rect" : [ 396.0, 44.0, 272.0, 30.0 ],
					"outlettype" : [ "", "", "" ],
					"id" : "obj-16",
					"fontname" : "Verdana",
					"fontsize" : 9.873845,
					"numinlets" : 1,
					"numoutlets" : 3
				}

			}
, 			{
				"box" : 				{
					"maxclass" : "flonum",
					"patching_rect" : [ 65.0, 18.0, 35.0, 18.0 ],
					"triscale" : 0.9,
					"outlettype" : [ "float", "bang" ],
					"id" : "obj-17",
					"fontname" : "Verdana",
					"textcolor" : [ 0.709804, 0.709804, 0.709804, 1.0 ],
					"triangle" : 0,
					"fontsize" : 9.873845,
					"numinlets" : 1,
					"numoutlets" : 2,
					"bgcolor" : [ 0.866667, 0.866667, 0.866667, 1.0 ]
				}

			}
, 			{
				"box" : 				{
					"maxclass" : "comment",
					"text" : "feedforward",
					"patching_rect" : [ 5.0, 20.0, 68.0, 18.0 ],
					"frgb" : [ 0.584314, 0.584314, 0.584314, 1.0 ],
					"id" : "obj-18",
					"fontname" : "Verdana",
					"textcolor" : [ 0.584314, 0.584314, 0.584314, 1.0 ],
					"fontsize" : 9.873845,
					"numinlets" : 1,
					"numoutlets" : 0
				}

			}
, 			{
				"box" : 				{
					"maxclass" : "flonum",
					"patching_rect" : [ 65.0, 32.0, 35.0, 18.0 ],
					"triscale" : 0.9,
					"outlettype" : [ "float", "bang" ],
					"id" : "obj-19",
					"fontname" : "Verdana",
					"textcolor" : [ 0.709804, 0.709804, 0.709804, 1.0 ],
					"triangle" : 0,
					"fontsize" : 9.873845,
					"numinlets" : 1,
					"numoutlets" : 2,
					"bgcolor" : [ 0.866667, 0.866667, 0.866667, 1.0 ]
				}

			}
, 			{
				"box" : 				{
					"maxclass" : "comment",
					"text" : "feedback",
					"patching_rect" : [ 22.0, 34.0, 53.0, 18.0 ],
					"frgb" : [ 0.584314, 0.584314, 0.584314, 1.0 ],
					"id" : "obj-20",
					"fontname" : "Verdana",
					"textcolor" : [ 0.584314, 0.584314, 0.584314, 1.0 ],
					"fontsize" : 9.873845,
					"numinlets" : 1,
					"numoutlets" : 0
				}

			}
, 			{
				"box" : 				{
					"maxclass" : "newobj",
					"varname" : "feedback",
					"text" : "jcom.parameter feedback @type msg_float @ramp/drive scheduler @description \"The feedback value for all colors\"",
					"linecount" : 2,
					"hidden" : 1,
					"patching_rect" : [ 395.0, 109.0, 297.0, 30.0 ],
					"outlettype" : [ "", "", "" ],
					"id" : "obj-21",
					"fontname" : "Verdana",
					"fontsize" : 9.873845,
					"numinlets" : 1,
					"numoutlets" : 3
				}

			}
, 			{
				"box" : 				{
					"maxclass" : "comment",
					"text" : "VIDEO OUTPUT",
					"hidden" : 1,
					"patching_rect" : [ 135.0, 314.0, 85.0, 18.0 ],
					"frgb" : [ 0.658824, 0.658824, 0.658824, 1.0 ],
					"id" : "obj-22",
					"fontname" : "Verdana",
					"fontsize" : 9.873845,
					"numinlets" : 1,
					"numoutlets" : 0
				}

			}
, 			{
				"box" : 				{
					"maxclass" : "outlet",
					"hidden" : 1,
					"patching_rect" : [ 120.0, 314.0, 13.0, 13.0 ],
					"id" : "obj-23",
					"numinlets" : 1,
					"numoutlets" : 0,
					"comment" : ""
				}

			}
, 			{
				"box" : 				{
					"maxclass" : "message",
					"text" : ";\rjcom.init bang",
					"linecount" : 2,
					"hidden" : 1,
					"patching_rect" : [ 17.0, 195.0, 80.0, 28.0 ],
					"outlettype" : [ "" ],
					"id" : "obj-24",
					"fontname" : "Verdana",
					"fontsize" : 9.873845,
					"numinlets" : 2,
					"numoutlets" : 1,
					"bgcolor" : [ 0.8, 0.54902, 0.54902, 1.0 ]
				}

			}
, 			{
				"box" : 				{
					"maxclass" : "comment",
					"text" : "command input",
					"hidden" : 1,
					"patching_rect" : [ 14.0, 84.0, 86.0, 18.0 ],
					"frgb" : [ 0.658824, 0.658824, 0.658824, 1.0 ],
					"id" : "obj-25",
					"fontname" : "Verdana",
					"fontsize" : 9.873845,
					"numinlets" : 1,
					"numoutlets" : 0
				}

			}
, 			{
				"box" : 				{
					"maxclass" : "newobj",
					"varname" : "jcom.hub",
					"text" : "jcom.hub jmod.wake% @size 1U-half @module_type video @algorithm_type jitter @description \"Video feedback with convolution for trippy effects\"",
					"linecount" : 2,
					"hidden" : 1,
					"patching_rect" : [ 0.0, 109.0, 396.0, 30.0 ],
					"outlettype" : [ "", "" ],
					"id" : "obj-26",
					"fontname" : "Verdana",
					"fontsize" : 9.873845,
					"numinlets" : 1,
					"numoutlets" : 2
				}

			}
, 			{
				"box" : 				{
					"maxclass" : "outlet",
					"hidden" : 1,
					"patching_rect" : [ 0.0, 171.0, 13.0, 13.0 ],
					"id" : "obj-27",
					"numinlets" : 1,
					"numoutlets" : 0,
					"comment" : ""
				}

			}
, 			{
				"box" : 				{
					"maxclass" : "inlet",
					"hidden" : 1,
					"patching_rect" : [ 0.0, 84.0, 13.0, 13.0 ],
					"outlettype" : [ "" ],
					"id" : "obj-28",
					"numinlets" : 0,
					"numoutlets" : 1,
					"comment" : ""
				}

			}
, 			{
				"box" : 				{
					"maxclass" : "newobj",
					"varname" : "feedforward",
					"text" : "jcom.parameter feedforward @type msg_float @ramp/drive scheduler @description \"The feedforward value for all colors\"",
					"linecount" : 2,
					"hidden" : 1,
					"patching_rect" : [ 396.0, 76.0, 312.0, 30.0 ],
					"outlettype" : [ "", "", "" ],
					"id" : "obj-29",
					"fontname" : "Verdana",
					"fontsize" : 9.873845,
					"numinlets" : 1,
					"numoutlets" : 3
				}

			}
, 			{
				"box" : 				{
					"maxclass" : "newobj",
					"text" : "jalg.wake%",
					"hidden" : 1,
					"patching_rect" : [ 120.0, 267.0, 131.0, 18.0 ],
					"outlettype" : [ "jit_matrix" ],
					"id" : "obj-30",
					"fontname" : "Verdana",
					"fontsize" : 9.873845,
					"numinlets" : 2,
					"numoutlets" : 1
				}

			}
, 			{
				"box" : 				{
					"maxclass" : "jcom.ui",
					"text" : "/editing_this_module",
					"outlettype" : [ "" ],
					"id" : "obj-34",
					"textcolor" : [ 0.65, 0.65, 0.65, 1.0 ],
					"has_freeze" : 1,
					"prefix" : "video",
					"has_mute" : 1,
					"color" : [ 1.0, 1.0, 1.0, 1.0 ],
					"has_preview" : 1,
					"numinlets" : 1,
					"has_bypass" : 1,
					"numoutlets" : 1
				}

			}
 ],
		"lines" : [ 			{
				"patchline" : 				{
					"source" : [ "obj-34", 0 ],
					"destination" : [ "obj-31", 0 ],
					"hidden" : 0,
					"midpoints" : [  ]
				}

			}
, 			{
				"patchline" : 				{
					"source" : [ "obj-11", 0 ],
					"destination" : [ "obj-12", 0 ],
					"hidden" : 1,
					"midpoints" : [  ]
				}

			}
, 			{
				"patchline" : 				{
					"source" : [ "obj-17", 0 ],
					"destination" : [ "obj-29", 0 ],
					"hidden" : 1,
					"midpoints" : [  ]
				}

			}
, 			{
				"patchline" : 				{
					"source" : [ "obj-14", 0 ],
					"destination" : [ "obj-16", 0 ],
					"hidden" : 1,
					"midpoints" : [  ]
				}

			}
, 			{
				"patchline" : 				{
					"source" : [ "obj-13", 0 ],
					"destination" : [ "obj-15", 0 ],
					"hidden" : 1,
					"midpoints" : [  ]
				}

			}
, 			{
				"patchline" : 				{
					"source" : [ "obj-19", 0 ],
					"destination" : [ "obj-21", 0 ],
					"hidden" : 1,
					"midpoints" : [  ]
				}

			}
, 			{
				"patchline" : 				{
					"source" : [ "obj-4", 0 ],
					"destination" : [ "obj-30", 1 ],
					"hidden" : 1,
					"midpoints" : [  ]
				}

			}
, 			{
				"patchline" : 				{
					"source" : [ "obj-2", 0 ],
					"destination" : [ "obj-4", 0 ],
					"hidden" : 1,
					"midpoints" : [  ]
				}

			}
, 			{
				"patchline" : 				{
					"source" : [ "obj-16", 0 ],
					"destination" : [ "obj-14", 0 ],
					"hidden" : 1,
					"midpoints" : [  ]
				}

			}
, 			{
				"patchline" : 				{
					"source" : [ "obj-15", 0 ],
					"destination" : [ "obj-13", 0 ],
					"hidden" : 1,
					"midpoints" : [  ]
				}

			}
, 			{
				"patchline" : 				{
					"source" : [ "obj-1", 0 ],
					"destination" : [ "obj-23", 0 ],
					"hidden" : 1,
					"midpoints" : [  ]
				}

			}
, 			{
				"patchline" : 				{
					"source" : [ "obj-30", 0 ],
					"destination" : [ "obj-1", 0 ],
					"hidden" : 1,
					"midpoints" : [  ]
				}

			}
, 			{
				"patchline" : 				{
					"source" : [ "obj-6", 1 ],
					"destination" : [ "obj-30", 0 ],
					"hidden" : 1,
					"midpoints" : [ 196.5, 262.0, 129.5, 262.0 ]
				}

			}
, 			{
				"patchline" : 				{
					"source" : [ "obj-5", 0 ],
					"destination" : [ "obj-30", 0 ],
					"hidden" : 1,
					"midpoints" : [  ]
				}

			}
, 			{
				"patchline" : 				{
					"source" : [ "obj-6", 0 ],
					"destination" : [ "obj-5", 0 ],
					"hidden" : 1,
					"midpoints" : [  ]
				}

			}
, 			{
				"patchline" : 				{
					"source" : [ "obj-4", 1 ],
					"destination" : [ "obj-6", 0 ],
					"hidden" : 1,
					"midpoints" : [ 280.0, 218.0, 129.5, 218.0 ]
				}

			}
, 			{
				"patchline" : 				{
					"source" : [ "obj-21", 0 ],
					"destination" : [ "obj-19", 0 ],
					"hidden" : 1,
					"midpoints" : [  ]
				}

			}
, 			{
				"patchline" : 				{
					"source" : [ "obj-29", 0 ],
					"destination" : [ "obj-17", 0 ],
					"hidden" : 1,
					"midpoints" : [  ]
				}

			}
, 			{
				"patchline" : 				{
					"source" : [ "obj-12", 0 ],
					"destination" : [ "obj-11", 0 ],
					"hidden" : 1,
					"midpoints" : [  ]
				}

			}
, 			{
				"patchline" : 				{
					"source" : [ "obj-26", 0 ],
					"destination" : [ "obj-27", 0 ],
					"hidden" : 1,
					"midpoints" : [  ]
				}

			}
, 			{
				"patchline" : 				{
					"source" : [ "obj-28", 0 ],
					"destination" : [ "obj-26", 0 ],
					"hidden" : 1,
					"midpoints" : [  ]
				}

			}
, 			{
				"patchline" : 				{
					"source" : [ "obj-7", 0 ],
					"destination" : [ "obj-26", 0 ],
					"hidden" : 1,
					"midpoints" : [ 112.5, 105.0, 9.5, 105.0 ]
				}

			}
 ]
	}

}
