{
	"patcher" : 	{
		"rect" : [ 266.0, 216.0, 672.0, 382.0 ],
		"bgcolor" : [ 1.0, 1.0, 1.0, 1.0 ],
		"bglocked" : 0,
		"defrect" : [ 266.0, 216.0, 672.0, 382.0 ],
		"openinpresentation" : 0,
		"default_fontsize" : 10.0,
		"default_fontface" : 0,
		"default_fontname" : "Verdana",
		"gridonopen" : 0,
		"gridsize" : [ 15.0, 15.0 ],
		"gridsnaponopen" : 0,
		"toolbarvisible" : 1,
		"boxfadetime" : 200,
		"boxanimatetime" : 200,
		"scrollanimatetime" : 200,
		"metadata" : [  ],
		"boxes" : [ 			{
				"box" : 				{
					"maxclass" : "newobj",
					"text" : "jcom.out",
					"numinlets" : 1,
					"patching_rect" : [ 120.0, 291.0, 49.0, 17.0 ],
					"numoutlets" : 1,
					"hidden" : 1,
					"fontsize" : 9.0,
					"fontname" : "Verdana",
					"outlettype" : [ "" ],
					"id" : "obj-1"
				}

			}
, 			{
				"box" : 				{
					"maxclass" : "inlet",
					"numinlets" : 0,
					"patching_rect" : [ 241.0, 176.0, 13.0, 13.0 ],
					"numoutlets" : 1,
					"hidden" : 1,
					"outlettype" : [ "" ],
					"id" : "obj-2",
					"comment" : ""
				}

			}
, 			{
				"box" : 				{
					"maxclass" : "comment",
					"text" : "VIDEO INPUT",
					"numinlets" : 1,
					"patching_rect" : [ 256.0, 176.0, 67.0, 17.0 ],
					"numoutlets" : 0,
					"hidden" : 1,
					"fontsize" : 9.0,
					"fontname" : "Verdana",
					"id" : "obj-3"
				}

			}
, 			{
				"box" : 				{
					"maxclass" : "newobj",
					"text" : "jcom.in 1",
					"numinlets" : 1,
					"patching_rect" : [ 241.0, 196.0, 78.0, 17.0 ],
					"numoutlets" : 2,
					"hidden" : 1,
					"fontsize" : 9.0,
					"fontname" : "Verdana",
					"outlettype" : [ "", "" ],
					"id" : "obj-4"
				}

			}
, 			{
				"box" : 				{
					"maxclass" : "newobj",
					"text" : "pcontrol",
					"numinlets" : 1,
					"patching_rect" : [ 120.0, 243.0, 47.0, 17.0 ],
					"numoutlets" : 1,
					"hidden" : 1,
					"fontsize" : 9.0,
					"fontname" : "Verdana",
					"outlettype" : [ "" ],
					"id" : "obj-5"
				}

			}
, 			{
				"box" : 				{
					"maxclass" : "newobj",
					"text" : "jcom.pass open",
					"numinlets" : 1,
					"patching_rect" : [ 120.0, 223.0, 78.0, 17.0 ],
					"numoutlets" : 2,
					"hidden" : 1,
					"fontsize" : 9.0,
					"fontname" : "Verdana",
					"outlettype" : [ "", "" ],
					"id" : "obj-6"
				}

			}
, 			{
				"box" : 				{
					"maxclass" : "message",
					"text" : "\/documentation\/generate",
					"numinlets" : 2,
					"bgcolor" : [ 0.8, 0.54902, 0.54902, 1.0 ],
					"patching_rect" : [ 103.0, 87.0, 125.0, 15.0 ],
					"numoutlets" : 1,
					"hidden" : 1,
					"fontsize" : 9.0,
					"fontname" : "Verdana",
					"outlettype" : [ "" ],
					"id" : "obj-7"
				}

			}
, 			{
				"box" : 				{
					"maxclass" : "comment",
					"text" : "bleed",
					"numinlets" : 1,
					"patching_rect" : [ 115.0, 20.0, 32.0, 17.0 ],
					"numoutlets" : 0,
					"fontsize" : 9.0,
					"fontname" : "Verdana",
					"frgb" : [ 0.584314, 0.584314, 0.584314, 1.0 ],
					"id" : "obj-8",
					"textcolor" : [ 0.584314, 0.584314, 0.584314, 1.0 ]
				}

			}
, 			{
				"box" : 				{
					"maxclass" : "comment",
					"text" : "gain",
					"numinlets" : 1,
					"patching_rect" : [ 120.0, 34.0, 26.0, 17.0 ],
					"numoutlets" : 0,
					"fontsize" : 9.0,
					"fontname" : "Verdana",
					"frgb" : [ 0.584314, 0.584314, 0.584314, 1.0 ],
					"id" : "obj-9",
					"textcolor" : [ 0.584314, 0.584314, 0.584314, 1.0 ]
				}

			}
, 			{
				"box" : 				{
					"maxclass" : "comment",
					"text" : "normalize",
					"numinlets" : 1,
					"patching_rect" : [ 77.0, 46.0, 62.0, 17.0 ],
					"numoutlets" : 0,
					"fontsize" : 9.0,
					"fontname" : "Verdana",
					"frgb" : [ 0.584314, 0.584314, 0.584314, 1.0 ],
					"id" : "obj-10",
					"textcolor" : [ 0.584314, 0.584314, 0.584314, 1.0 ]
				}

			}
, 			{
				"box" : 				{
					"maxclass" : "radiogroup",
					"numinlets" : 1,
					"patching_rect" : [ 62.0, 44.0, 79.0, 18.0 ],
					"numoutlets" : 1,
					"outlettype" : [ "" ],
					"id" : "obj-11",
					"itemtype" : 1,
					"size" : 1,
					"values" : [ 0 ],
					"disabled" : [ 0 ]
				}

			}
, 			{
				"box" : 				{
					"maxclass" : "newobj",
					"varname" : "normalize",
					"text" : "jcom.parameter normalize @type msg_toggle @description \"Switches normalization on and off\"",
					"linecount" : 2,
					"numinlets" : 1,
					"patching_rect" : [ 396.0, 140.0, 233.0, 28.0 ],
					"numoutlets" : 1,
					"hidden" : 1,
					"fontsize" : 9.0,
					"fontname" : "Verdana",
					"outlettype" : [ "" ],
					"id" : "obj-12"
				}

			}
, 			{
				"box" : 				{
					"maxclass" : "flonum",
					"numinlets" : 1,
					"bgcolor" : [ 0.866667, 0.866667, 0.866667, 1.0 ],
					"patching_rect" : [ 143.0, 18.0, 35.0, 17.0 ],
					"transparent" : 1,
					"numoutlets" : 2,
					"fontsize" : 9.0,
					"fontname" : "Verdana",
					"triangle" : 0,
					"triscale" : 0.9,
					"outlettype" : [ "float", "bang" ],
					"id" : "obj-13",
					"textcolor" : [ 0.709804, 0.709804, 0.709804, 1.0 ]
				}

			}
, 			{
				"box" : 				{
					"maxclass" : "flonum",
					"numinlets" : 1,
					"bgcolor" : [ 0.866667, 0.866667, 0.866667, 1.0 ],
					"patching_rect" : [ 143.0, 32.0, 35.0, 17.0 ],
					"transparent" : 1,
					"numoutlets" : 2,
					"fontsize" : 9.0,
					"fontname" : "Verdana",
					"triangle" : 0,
					"triscale" : 0.9,
					"outlettype" : [ "float", "bang" ],
					"id" : "obj-14",
					"textcolor" : [ 0.709804, 0.709804, 0.709804, 1.0 ]
				}

			}
, 			{
				"box" : 				{
					"maxclass" : "newobj",
					"varname" : "bleed",
					"text" : "jcom.parameter bleed @type msg_float @ramp/drive scheduler @description \"Sets convolution kernel value for all colors\"",
					"linecount" : 2,
					"numinlets" : 1,
					"patching_rect" : [ 396.0, 14.0, 275.0, 28.0 ],
					"numoutlets" : 1,
					"hidden" : 1,
					"fontsize" : 9.0,
					"fontname" : "Verdana",
					"outlettype" : [ "" ],
					"id" : "obj-15"
				}

			}
, 			{
				"box" : 				{
					"maxclass" : "newobj",
					"varname" : "gain",
					"text" : "jcom.parameter gain @type msg_float @ramp/drive scheduler @description \"The gain level for all colors\"",
					"linecount" : 2,
					"numinlets" : 1,
					"patching_rect" : [ 396.0, 44.0, 244.0, 28.0 ],
					"numoutlets" : 1,
					"hidden" : 1,
					"fontsize" : 9.0,
					"fontname" : "Verdana",
					"outlettype" : [ "" ],
					"id" : "obj-16"
				}

			}
, 			{
				"box" : 				{
					"maxclass" : "flonum",
					"numinlets" : 1,
					"bgcolor" : [ 0.866667, 0.866667, 0.866667, 1.0 ],
					"patching_rect" : [ 65.0, 18.0, 35.0, 17.0 ],
					"transparent" : 1,
					"numoutlets" : 2,
					"fontsize" : 9.0,
					"fontname" : "Verdana",
					"triangle" : 0,
					"triscale" : 0.9,
					"outlettype" : [ "float", "bang" ],
					"id" : "obj-17",
					"textcolor" : [ 0.709804, 0.709804, 0.709804, 1.0 ]
				}

			}
, 			{
				"box" : 				{
					"maxclass" : "comment",
					"text" : "feedforward",
					"numinlets" : 1,
					"patching_rect" : [ 5.0, 20.0, 65.0, 17.0 ],
					"numoutlets" : 0,
					"fontsize" : 9.0,
					"fontname" : "Verdana",
					"frgb" : [ 0.584314, 0.584314, 0.584314, 1.0 ],
					"id" : "obj-18",
					"textcolor" : [ 0.584314, 0.584314, 0.584314, 1.0 ]
				}

			}
, 			{
				"box" : 				{
					"maxclass" : "flonum",
					"numinlets" : 1,
					"bgcolor" : [ 0.866667, 0.866667, 0.866667, 1.0 ],
					"patching_rect" : [ 65.0, 32.0, 35.0, 17.0 ],
					"transparent" : 1,
					"numoutlets" : 2,
					"fontsize" : 9.0,
					"fontname" : "Verdana",
					"triangle" : 0,
					"triscale" : 0.9,
					"outlettype" : [ "float", "bang" ],
					"id" : "obj-19",
					"textcolor" : [ 0.709804, 0.709804, 0.709804, 1.0 ]
				}

			}
, 			{
				"box" : 				{
					"maxclass" : "comment",
					"text" : "feedback",
					"numinlets" : 1,
					"patching_rect" : [ 22.0, 34.0, 48.0, 17.0 ],
					"numoutlets" : 0,
					"fontsize" : 9.0,
					"fontname" : "Verdana",
					"frgb" : [ 0.584314, 0.584314, 0.584314, 1.0 ],
					"id" : "obj-20",
					"textcolor" : [ 0.584314, 0.584314, 0.584314, 1.0 ]
				}

			}
, 			{
				"box" : 				{
					"maxclass" : "newobj",
					"varname" : "feedback",
					"text" : "jcom.parameter feedback @type msg_float @ramp/drive scheduler @description \"The feedback value for all colors\"",
					"linecount" : 2,
					"numinlets" : 1,
					"patching_rect" : [ 395.0, 109.0, 265.0, 28.0 ],
					"numoutlets" : 1,
					"hidden" : 1,
					"fontsize" : 9.0,
					"fontname" : "Verdana",
					"outlettype" : [ "" ],
					"id" : "obj-21"
				}

			}
, 			{
				"box" : 				{
					"maxclass" : "comment",
					"text" : "VIDEO OUTPUT",
					"numinlets" : 1,
					"patching_rect" : [ 135.0, 314.0, 77.0, 17.0 ],
					"numoutlets" : 0,
					"hidden" : 1,
					"fontsize" : 9.0,
					"fontname" : "Verdana",
					"id" : "obj-22"
				}

			}
, 			{
				"box" : 				{
					"maxclass" : "outlet",
					"numinlets" : 1,
					"patching_rect" : [ 120.0, 314.0, 13.0, 13.0 ],
					"numoutlets" : 0,
					"hidden" : 1,
					"id" : "obj-23",
					"comment" : ""
				}

			}
, 			{
				"box" : 				{
					"maxclass" : "message",
					"text" : ";\rjcom.init bang",
					"linecount" : 2,
					"numinlets" : 2,
					"bgcolor" : [ 0.8, 0.54902, 0.54902, 1.0 ],
					"patching_rect" : [ 17.0, 195.0, 72.0, 26.0 ],
					"numoutlets" : 1,
					"hidden" : 1,
					"fontsize" : 9.0,
					"fontname" : "Verdana",
					"outlettype" : [ "" ],
					"id" : "obj-24"
				}

			}
, 			{
				"box" : 				{
					"maxclass" : "comment",
					"text" : "command input",
					"numinlets" : 1,
					"patching_rect" : [ 14.0, 84.0, 79.0, 17.0 ],
					"numoutlets" : 0,
					"hidden" : 1,
					"fontsize" : 9.0,
					"fontname" : "Verdana",
					"id" : "obj-25"
				}

			}
, 			{
				"box" : 				{
					"maxclass" : "newobj",
					"varname" : "jcom.hub",
					"text" : "jcom.hub jmod.wake% @size 1U-half @module_type video @algorithm_type jitter @description \"Video feedback with convolution for trippy effects\"",
					"linecount" : 2,
					"numinlets" : 1,
					"patching_rect" : [ 0.0, 109.0, 351.0, 28.0 ],
					"numoutlets" : 2,
					"hidden" : 1,
					"fontsize" : 9.0,
					"fontname" : "Verdana",
					"outlettype" : [ "", "" ],
					"id" : "obj-26"
				}

			}
, 			{
				"box" : 				{
					"maxclass" : "outlet",
					"numinlets" : 1,
					"patching_rect" : [ 0.0, 171.0, 13.0, 13.0 ],
					"numoutlets" : 0,
					"hidden" : 1,
					"id" : "obj-27",
					"comment" : ""
				}

			}
, 			{
				"box" : 				{
					"maxclass" : "inlet",
					"numinlets" : 0,
					"patching_rect" : [ 0.0, 84.0, 13.0, 13.0 ],
					"numoutlets" : 1,
					"hidden" : 1,
					"outlettype" : [ "" ],
					"id" : "obj-28",
					"comment" : ""
				}

			}
, 			{
				"box" : 				{
					"maxclass" : "newobj",
					"varname" : "feedforward",
					"text" : "jcom.parameter feedforward @type msg_float @ramp/drive scheduler @description \"The feedforward value for all colors\"",
					"linecount" : 2,
					"numinlets" : 1,
					"patching_rect" : [ 396.0, 76.0, 282.0, 28.0 ],
					"numoutlets" : 1,
					"hidden" : 1,
					"fontsize" : 9.0,
					"fontname" : "Verdana",
					"outlettype" : [ "" ],
					"id" : "obj-29"
				}

			}
, 			{
				"box" : 				{
					"maxclass" : "newobj",
					"text" : "jalg.wake%.mxt",
					"numinlets" : 2,
					"patching_rect" : [ 120.0, 267.0, 131.0, 17.0 ],
					"numoutlets" : 1,
					"hidden" : 1,
					"fontsize" : 9.0,
					"fontname" : "Verdana",
					"outlettype" : [ "jit_matrix" ],
					"id" : "obj-30"
				}

			}
, 			{
				"box" : 				{
					"maxclass" : "jcom.ui",
					"text" : "\/Jamoma",
					"color" : [ 1.0, 1.0, 1.0, 1.0 ],
					"numinlets" : 1,
					"numoutlets" : 1,
					"outlettype" : [ "" ],
					"id" : "obj-34",
					"textcolor" : [ 0.65, 0.65, 0.65, 1.0 ]
				}

			}
 ],
		"lines" : [ 			{
				"patchline" : 				{
					"source" : [ "obj-7", 0 ],
					"destination" : [ "obj-26", 0 ],
					"hidden" : 1,
					"midpoints" : [ 112.5, 105.0, 9.5, 105.0 ]
				}

			}
, 			{
				"patchline" : 				{
					"source" : [ "obj-28", 0 ],
					"destination" : [ "obj-26", 0 ],
					"hidden" : 1
				}

			}
, 			{
				"patchline" : 				{
					"source" : [ "obj-26", 0 ],
					"destination" : [ "obj-27", 0 ],
					"hidden" : 1
				}

			}
, 			{
				"patchline" : 				{
					"source" : [ "obj-12", 0 ],
					"destination" : [ "obj-11", 0 ],
					"hidden" : 1
				}

			}
, 			{
				"patchline" : 				{
					"source" : [ "obj-29", 0 ],
					"destination" : [ "obj-17", 0 ],
					"hidden" : 1
				}

			}
, 			{
				"patchline" : 				{
					"source" : [ "obj-21", 0 ],
					"destination" : [ "obj-19", 0 ],
					"hidden" : 1
				}

			}
, 			{
				"patchline" : 				{
					"source" : [ "obj-4", 1 ],
					"destination" : [ "obj-6", 0 ],
					"hidden" : 1,
					"midpoints" : [ 309.5, 218.0, 129.5, 218.0 ]
				}

			}
, 			{
				"patchline" : 				{
					"source" : [ "obj-6", 0 ],
					"destination" : [ "obj-5", 0 ],
					"hidden" : 1
				}

			}
, 			{
				"patchline" : 				{
					"source" : [ "obj-5", 0 ],
					"destination" : [ "obj-30", 0 ],
					"hidden" : 1
				}

			}
, 			{
				"patchline" : 				{
					"source" : [ "obj-6", 1 ],
					"destination" : [ "obj-30", 0 ],
					"hidden" : 1,
					"midpoints" : [ 188.5, 262.0, 129.5, 262.0 ]
				}

			}
, 			{
				"patchline" : 				{
					"source" : [ "obj-30", 0 ],
					"destination" : [ "obj-1", 0 ],
					"hidden" : 1
				}

			}
, 			{
				"patchline" : 				{
					"source" : [ "obj-1", 0 ],
					"destination" : [ "obj-23", 0 ],
					"hidden" : 1
				}

			}
, 			{
				"patchline" : 				{
					"source" : [ "obj-15", 0 ],
					"destination" : [ "obj-13", 0 ],
					"hidden" : 1
				}

			}
, 			{
				"patchline" : 				{
					"source" : [ "obj-16", 0 ],
					"destination" : [ "obj-14", 0 ],
					"hidden" : 1
				}

			}
, 			{
				"patchline" : 				{
					"source" : [ "obj-2", 0 ],
					"destination" : [ "obj-4", 0 ],
					"hidden" : 1
				}

			}
, 			{
				"patchline" : 				{
					"source" : [ "obj-4", 0 ],
					"destination" : [ "obj-30", 1 ],
					"hidden" : 1
				}

			}
, 			{
				"patchline" : 				{
					"source" : [ "obj-19", 0 ],
					"destination" : [ "obj-21", 0 ],
					"hidden" : 1
				}

			}
, 			{
				"patchline" : 				{
					"source" : [ "obj-13", 0 ],
					"destination" : [ "obj-15", 0 ],
					"hidden" : 1
				}

			}
, 			{
				"patchline" : 				{
					"source" : [ "obj-14", 0 ],
					"destination" : [ "obj-16", 0 ],
					"hidden" : 1
				}

			}
, 			{
				"patchline" : 				{
					"source" : [ "obj-17", 0 ],
					"destination" : [ "obj-29", 0 ],
					"hidden" : 1
				}

			}
, 			{
				"patchline" : 				{
					"source" : [ "obj-11", 0 ],
					"destination" : [ "obj-12", 0 ],
					"hidden" : 1
				}

			}
 ]
	}

}
