{
	"patcher" : 	{
		"rect" : [ 503.0, 53.0, 681.0, 546.0 ],
		"bglocked" : 0,
		"defrect" : [ 503.0, 53.0, 681.0, 546.0 ],
		"openinpresentation" : 0,
		"default_fontsize" : 10.0,
		"default_fontface" : 0,
		"default_fontname" : "Verdana",
		"gridonopen" : 0,
		"gridsize" : [ 5.0, 5.0 ],
		"gridsnaponopen" : 0,
		"toolbarvisible" : 1,
		"boxfadetime" : 200,
		"boxanimatetime" : 200,
		"scrollanimatetime" : 200,
		"metadata" : [  ],
		"boxes" : [ 			{
				"box" : 				{
					"maxclass" : "message",
					"text" : "jmod.mblur%",
					"numinlets" : 2,
					"patching_rect" : [ 110.0, 462.0, 70.0, 15.0 ],
					"numoutlets" : 1,
					"fontsize" : 9.0,
					"fontname" : "Verdana",
					"outlettype" : [ "" ],
					"id" : "obj-1"
				}

			}
, 			{
				"box" : 				{
					"maxclass" : "comment",
					"text" : "see also:",
					"numinlets" : 1,
					"patching_rect" : [ 37.0, 448.0, 48.0, 17.0 ],
					"numoutlets" : 0,
					"fontsize" : 9.0,
					"fontname" : "Verdana",
					"id" : "obj-2"
				}

			}
, 			{
				"box" : 				{
					"maxclass" : "newobj",
					"text" : "prepend help",
					"numinlets" : 1,
					"patching_rect" : [ 37.0, 484.0, 64.0, 17.0 ],
					"numoutlets" : 1,
					"hidden" : 1,
					"fontsize" : 9.0,
					"fontname" : "Verdana",
					"outlettype" : [ "" ],
					"id" : "obj-3"
				}

			}
, 			{
				"box" : 				{
					"maxclass" : "message",
					"text" : "jmod.blur%",
					"numinlets" : 2,
					"patching_rect" : [ 37.0, 462.0, 62.0, 15.0 ],
					"numoutlets" : 1,
					"fontsize" : 9.0,
					"fontname" : "Verdana",
					"outlettype" : [ "" ],
					"id" : "obj-4"
				}

			}
, 			{
				"box" : 				{
					"maxclass" : "newobj",
					"text" : "pcontrol",
					"numinlets" : 1,
					"patching_rect" : [ 37.0, 505.0, 45.0, 17.0 ],
					"numoutlets" : 1,
					"hidden" : 1,
					"fontsize" : 9.0,
					"fontname" : "Verdana",
					"outlettype" : [ "" ],
					"id" : "obj-5"
				}

			}
, 			{
				"box" : 				{
					"maxclass" : "bpatcher",
					"varname" : "\/input%",
					"name" : "jmod.input%.maxpat",
					"numinlets" : 1,
					"patching_rect" : [ 324.0, 32.0, 301.0, 71.0 ],
					"numoutlets" : 2,
					"outlettype" : [ "", "" ],
					"id" : "obj-6",
					"args" : [ "\/input%" ],
					"lockeddragscroll" : 1
				}

			}
, 			{
				"box" : 				{
					"maxclass" : "flonum",
					"numinlets" : 1,
					"bgcolor" : [ 0.866667, 0.866667, 0.866667, 1.0 ],
					"htextcolor" : [ 0.870588, 0.870588, 0.870588, 1.0 ],
					"patching_rect" : [ 22.0, 341.0, 35.0, 17.0 ],
					"numoutlets" : 2,
					"fontsize" : 9.0,
					"fontname" : "Verdana",
					"triscale" : 0.9,
					"outlettype" : [ "float", "bang" ],
					"id" : "obj-7"
				}

			}
, 			{
				"box" : 				{
					"maxclass" : "flonum",
					"numinlets" : 1,
					"bgcolor" : [ 0.866667, 0.866667, 0.866667, 1.0 ],
					"htextcolor" : [ 0.870588, 0.870588, 0.870588, 1.0 ],
					"patching_rect" : [ 22.0, 323.0, 35.0, 17.0 ],
					"numoutlets" : 2,
					"fontsize" : 9.0,
					"fontname" : "Verdana",
					"triscale" : 0.9,
					"outlettype" : [ "float", "bang" ],
					"id" : "obj-8"
				}

			}
, 			{
				"box" : 				{
					"maxclass" : "flonum",
					"numinlets" : 1,
					"bgcolor" : [ 0.866667, 0.866667, 0.866667, 1.0 ],
					"htextcolor" : [ 0.870588, 0.870588, 0.870588, 1.0 ],
					"patching_rect" : [ 22.0, 305.0, 35.0, 17.0 ],
					"numoutlets" : 2,
					"fontsize" : 9.0,
					"fontname" : "Verdana",
					"triscale" : 0.9,
					"outlettype" : [ "float", "bang" ],
					"id" : "obj-9"
				}

			}
, 			{
				"box" : 				{
					"maxclass" : "flonum",
					"numinlets" : 1,
					"bgcolor" : [ 0.866667, 0.866667, 0.866667, 1.0 ],
					"htextcolor" : [ 0.870588, 0.870588, 0.870588, 1.0 ],
					"patching_rect" : [ 22.0, 287.0, 35.0, 17.0 ],
					"numoutlets" : 2,
					"fontsize" : 9.0,
					"fontname" : "Verdana",
					"triscale" : 0.9,
					"outlettype" : [ "float", "bang" ],
					"id" : "obj-10"
				}

			}
, 			{
				"box" : 				{
					"maxclass" : "toggle",
					"numinlets" : 1,
					"patching_rect" : [ 22.0, 359.0, 15.0, 15.0 ],
					"numoutlets" : 1,
					"outlettype" : [ "int" ],
					"id" : "obj-11"
				}

			}
, 			{
				"box" : 				{
					"maxclass" : "newobj",
					"text" : "s jmod.wake%.cmd",
					"numinlets" : 1,
					"patching_rect" : [ 132.0, 397.0, 96.0, 17.0 ],
					"numoutlets" : 0,
					"hidden" : 1,
					"fontsize" : 9.0,
					"fontname" : "Verdana",
					"id" : "obj-12"
				}

			}
, 			{
				"box" : 				{
					"maxclass" : "newobj",
					"text" : "r jmod.wake%.cmd",
					"numinlets" : 0,
					"patching_rect" : [ 324.0, 104.0, 96.0, 17.0 ],
					"numoutlets" : 1,
					"fontsize" : 9.0,
					"fontname" : "Verdana",
					"outlettype" : [ "" ],
					"id" : "obj-13"
				}

			}
, 			{
				"box" : 				{
					"maxclass" : "newobj",
					"text" : "s jmod.wake%.cmd",
					"numinlets" : 1,
					"patching_rect" : [ 13.0, 235.0, 96.0, 17.0 ],
					"numoutlets" : 0,
					"hidden" : 1,
					"fontsize" : 9.0,
					"fontname" : "Verdana",
					"id" : "obj-14"
				}

			}
, 			{
				"box" : 				{
					"maxclass" : "bpatcher",
					"name" : "jmod.video_params.maxpat",
					"numinlets" : 0,
					"patching_rect" : [ 13.0, 87.0, 273.0, 146.0 ],
					"numoutlets" : 1,
					"outlettype" : [ "" ],
					"id" : "obj-15",
					"args" : [  ],
					"lockeddragscroll" : 1
				}

			}
, 			{
				"box" : 				{
					"maxclass" : "comment",
					"text" : "jmod.wake%",
					"numinlets" : 1,
					"patching_rect" : [ 19.0, 34.0, 189.0, 28.0 ],
					"numoutlets" : 0,
					"fontsize" : 15.799999,
					"fontname" : "Verdana",
					"frgb" : [ 1.0, 1.0, 1.0, 1.0 ],
					"id" : "obj-16",
					"textcolor" : [ 1.0, 1.0, 1.0, 1.0 ]
				}

			}
, 			{
				"box" : 				{
					"maxclass" : "comment",
					"text" : "video feedback\/washout effect",
					"numinlets" : 1,
					"patching_rect" : [ 20.0, 60.0, 242.0, 17.0 ],
					"numoutlets" : 0,
					"fontsize" : 9.0,
					"fontname" : "Verdana",
					"frgb" : [ 1.0, 1.0, 1.0, 1.0 ],
					"id" : "obj-17",
					"textcolor" : [ 1.0, 1.0, 1.0, 1.0 ]
				}

			}
, 			{
				"box" : 				{
					"maxclass" : "panel",
					"numinlets" : 1,
					"bgcolor" : [ 0.262745, 0.254902, 0.419608, 1.0 ],
					"patching_rect" : [ 13.0, 18.0, 273.0, 63.0 ],
					"rounded" : 0,
					"numoutlets" : 0,
					"bordercolor" : [ 0.501961, 0.043137, 0.039216, 1.0 ],
					"id" : "obj-18"
				}

			}
, 			{
				"box" : 				{
					"maxclass" : "jit.fpsgui",
					"numinlets" : 1,
					"patching_rect" : [ 324.0, 450.0, 60.0, 30.533276 ],
					"numoutlets" : 1,
					"fontsize" : 9.0,
					"fontname" : "Verdana",
					"outlettype" : [ "" ],
					"id" : "obj-19"
				}

			}
, 			{
				"box" : 				{
					"maxclass" : "jit.pwindow",
					"numinlets" : 1,
					"depthbuffer" : 0,
					"patching_rect" : [ 323.0, 203.0, 320.0, 240.0 ],
					"numoutlets" : 2,
					"outlettype" : [ "", "" ],
					"id" : "obj-20"
				}

			}
, 			{
				"box" : 				{
					"maxclass" : "bpatcher",
					"varname" : "\/wake%",
					"name" : "jmod.wake%.maxpat",
					"numinlets" : 2,
					"patching_rect" : [ 324.0, 124.0, 301.0, 71.0 ],
					"numoutlets" : 2,
					"outlettype" : [ "", "" ],
					"id" : "obj-21",
					"args" : [ "\/wake%" ],
					"lockeddragscroll" : 1
				}

			}
, 			{
				"box" : 				{
					"maxclass" : "message",
					"text" : "\/normalize $1",
					"numinlets" : 2,
					"patching_rect" : [ 60.0, 359.0, 75.0, 15.0 ],
					"numoutlets" : 1,
					"fontsize" : 9.0,
					"fontname" : "Verdana",
					"outlettype" : [ "" ],
					"id" : "obj-22"
				}

			}
, 			{
				"box" : 				{
					"maxclass" : "message",
					"text" : "\/gain $1",
					"numinlets" : 2,
					"patching_rect" : [ 60.0, 323.0, 49.0, 15.0 ],
					"numoutlets" : 1,
					"fontsize" : 9.0,
					"fontname" : "Verdana",
					"outlettype" : [ "" ],
					"id" : "obj-23"
				}

			}
, 			{
				"box" : 				{
					"maxclass" : "message",
					"text" : "\/bleed $1",
					"numinlets" : 2,
					"patching_rect" : [ 60.0, 341.0, 54.0, 15.0 ],
					"numoutlets" : 1,
					"fontsize" : 9.0,
					"fontname" : "Verdana",
					"outlettype" : [ "" ],
					"id" : "obj-24"
				}

			}
, 			{
				"box" : 				{
					"maxclass" : "message",
					"text" : "\/feedback $1",
					"numinlets" : 2,
					"patching_rect" : [ 60.0, 305.0, 70.0, 15.0 ],
					"numoutlets" : 1,
					"fontsize" : 9.0,
					"fontname" : "Verdana",
					"outlettype" : [ "" ],
					"id" : "obj-25"
				}

			}
, 			{
				"box" : 				{
					"maxclass" : "message",
					"text" : "\/feedforward $1",
					"numinlets" : 2,
					"patching_rect" : [ 60.0, 287.0, 87.0, 15.0 ],
					"numoutlets" : 1,
					"fontsize" : 9.0,
					"fontname" : "Verdana",
					"outlettype" : [ "" ],
					"id" : "obj-26"
				}

			}
 ],
		"lines" : [ 			{
				"patchline" : 				{
					"source" : [ "obj-15", 0 ],
					"destination" : [ "obj-14", 0 ],
					"hidden" : 1
				}

			}
, 			{
				"patchline" : 				{
					"source" : [ "obj-1", 0 ],
					"destination" : [ "obj-3", 0 ],
					"hidden" : 1,
					"midpoints" : [ 119.5, 480.0, 46.5, 480.0 ]
				}

			}
, 			{
				"patchline" : 				{
					"source" : [ "obj-4", 0 ],
					"destination" : [ "obj-3", 0 ],
					"hidden" : 1
				}

			}
, 			{
				"patchline" : 				{
					"source" : [ "obj-3", 0 ],
					"destination" : [ "obj-5", 0 ],
					"hidden" : 1
				}

			}
, 			{
				"patchline" : 				{
					"source" : [ "obj-10", 0 ],
					"destination" : [ "obj-26", 0 ],
					"hidden" : 1
				}

			}
, 			{
				"patchline" : 				{
					"source" : [ "obj-9", 0 ],
					"destination" : [ "obj-25", 0 ],
					"hidden" : 1
				}

			}
, 			{
				"patchline" : 				{
					"source" : [ "obj-8", 0 ],
					"destination" : [ "obj-23", 0 ],
					"hidden" : 1
				}

			}
, 			{
				"patchline" : 				{
					"source" : [ "obj-7", 0 ],
					"destination" : [ "obj-24", 0 ],
					"hidden" : 1
				}

			}
, 			{
				"patchline" : 				{
					"source" : [ "obj-11", 0 ],
					"destination" : [ "obj-22", 0 ],
					"hidden" : 1
				}

			}
, 			{
				"patchline" : 				{
					"source" : [ "obj-22", 0 ],
					"destination" : [ "obj-12", 0 ],
					"hidden" : 1
				}

			}
, 			{
				"patchline" : 				{
					"source" : [ "obj-23", 0 ],
					"destination" : [ "obj-12", 0 ],
					"hidden" : 1
				}

			}
, 			{
				"patchline" : 				{
					"source" : [ "obj-24", 0 ],
					"destination" : [ "obj-12", 0 ],
					"hidden" : 1
				}

			}
, 			{
				"patchline" : 				{
					"source" : [ "obj-25", 0 ],
					"destination" : [ "obj-12", 0 ],
					"hidden" : 1
				}

			}
, 			{
				"patchline" : 				{
					"source" : [ "obj-26", 0 ],
					"destination" : [ "obj-12", 0 ],
					"hidden" : 1
				}

			}
, 			{
				"patchline" : 				{
					"source" : [ "obj-13", 0 ],
					"destination" : [ "obj-21", 0 ],
					"hidden" : 0
				}

			}
, 			{
				"patchline" : 				{
					"source" : [ "obj-21", 1 ],
					"destination" : [ "obj-20", 0 ],
					"hidden" : 0,
					"midpoints" : [ 615.5, 197.0, 332.5, 197.0 ]
				}

			}
, 			{
				"patchline" : 				{
					"source" : [ "obj-20", 0 ],
					"destination" : [ "obj-19", 0 ],
					"hidden" : 0
				}

			}
, 			{
				"patchline" : 				{
					"source" : [ "obj-6", 1 ],
					"destination" : [ "obj-21", 1 ],
					"hidden" : 0
				}

			}
 ]
	}

}
