{
	"patcher" : 	{
		"fileversion" : 1,
		"rect" : [ 0.0, 44.0, 867.0, 787.0 ],
		"bglocked" : 0,
		"defrect" : [ 0.0, 44.0, 867.0, 787.0 ],
		"openrect" : [ 0.0, 0.0, 0.0, 0.0 ],
		"openinpresentation" : 1,
		"default_fontsize" : 10.0,
		"default_fontface" : 0,
		"default_fontname" : "Arial",
		"gridonopen" : 0,
		"gridsize" : [ 5.0, 5.0 ],
		"gridsnaponopen" : 0,
		"toolbarvisible" : 1,
		"boxanimatetime" : 200,
		"imprint" : 0,
		"metadata" : [  ],
		"boxes" : [ 			{
				"box" : 				{
					"maxclass" : "inlet",
					"patching_rect" : [ 377.0, 60.0, 22.0, 22.0 ],
					"id" : "obj-7",
					"numinlets" : 0,
					"presentation_rect" : [ 481.0, 54.0, 0.0, 0.0 ],
					"numoutlets" : 1,
					"outlettype" : [ "" ],
					"comment" : ""
				}

			}
, 			{
				"box" : 				{
					"maxclass" : "outlet",
					"patching_rect" : [ 566.0, 337.0, 22.0, 22.0 ],
					"id" : "obj-6",
					"numinlets" : 1,
					"numoutlets" : 0,
					"comment" : "random float (0. - 1.)"
				}

			}
, 			{
				"box" : 				{
					"maxclass" : "newobj",
					"text" : "expr $i1 * -1 + 1",
					"patching_rect" : [ 110.0, 278.0, 98.0, 19.0 ],
					"id" : "obj-5",
					"fontname" : "Verdana",
					"numinlets" : 1,
					"fontsize" : 10.0,
					"numoutlets" : 1,
					"outlettype" : [ "" ]
				}

			}
, 			{
				"box" : 				{
					"maxclass" : "newobj",
					"text" : "route freeze",
					"patching_rect" : [ 110.0, 255.0, 71.0, 19.0 ],
					"id" : "obj-2",
					"fontname" : "Verdana",
					"numinlets" : 1,
					"fontsize" : 10.0,
					"numoutlets" : 2,
					"outlettype" : [ "", "" ]
				}

			}
, 			{
				"box" : 				{
					"maxclass" : "newobj",
					"text" : "gate 1 1",
					"patching_rect" : [ 363.0, 311.0, 47.0, 18.0 ],
					"id" : "obj-4",
					"fontname" : "Arial",
					"numinlets" : 2,
					"fontsize" : 10.0,
					"numoutlets" : 1,
					"outlettype" : [ "" ]
				}

			}
, 			{
				"box" : 				{
					"maxclass" : "newobj",
					"text" : "jcom.pass /freeze",
					"patching_rect" : [ 110.0, 220.0, 100.0, 19.0 ],
					"id" : "obj-3",
					"fontname" : "Verdana",
					"numinlets" : 1,
					"fontsize" : 10.0,
					"numoutlets" : 2,
					"outlettype" : [ "", "" ]
				}

			}
, 			{
				"box" : 				{
					"maxclass" : "newobj",
					"text" : "gate 1 1",
					"patching_rect" : [ 110.0, 334.0, 47.0, 18.0 ],
					"id" : "obj-1",
					"fontname" : "Arial",
					"numinlets" : 2,
					"fontsize" : 10.0,
					"numoutlets" : 1,
					"outlettype" : [ "" ]
				}

			}
, 			{
				"box" : 				{
					"maxclass" : "comment",
					"text" : "/random",
					"patching_rect" : [ 322.0, 333.0, 54.0, 18.0 ],
					"id" : "obj-55",
					"fontname" : "Arial",
					"numinlets" : 1,
					"fontsize" : 10.0,
					"numoutlets" : 0
				}

			}
, 			{
				"box" : 				{
					"maxclass" : "comment",
					"text" : "/step",
					"patching_rect" : [ 153.0, 642.0, 41.0, 18.0 ],
					"id" : "obj-56",
					"fontname" : "Arial",
					"numinlets" : 1,
					"fontsize" : 10.0,
					"numoutlets" : 0
				}

			}
, 			{
				"box" : 				{
					"maxclass" : "comment",
					"text" : "/range",
					"patching_rect" : [ 223.0, 501.0, 45.0, 18.0 ],
					"id" : "obj-57",
					"fontname" : "Arial",
					"numinlets" : 1,
					"fontsize" : 10.0,
					"numoutlets" : 0
				}

			}
, 			{
				"box" : 				{
					"maxclass" : "comment",
					"text" : "/center",
					"patching_rect" : [ 44.0, 553.0, 49.0, 18.0 ],
					"id" : "obj-58",
					"fontname" : "Arial",
					"numinlets" : 1,
					"fontsize" : 10.0,
					"numoutlets" : 0
				}

			}
, 			{
				"box" : 				{
					"maxclass" : "flonum",
					"patching_rect" : [ 363.0, 332.0, 53.0, 19.0 ],
					"id" : "obj-54",
					"hbgcolor" : [ 0.0, 0.0, 0.0, 0.0 ],
					"maximum" : 1.0,
					"presentation" : 1,
					"ignoreclick" : 1,
					"bordercolor" : [ 0.501961, 0.501961, 0.501961, 0.0 ],
					"fontname" : "Verdana",
					"textcolor" : [ 0.945098, 0.913725, 0.407843, 1.0 ],
					"bgcolor" : [ 1.0, 1.0, 1.0, 0.0 ],
					"triangle" : 0,
					"numinlets" : 1,
					"fontsize" : 10.0,
					"presentation_rect" : [ 89.0, 40.0, 44.0, 19.0 ],
					"numoutlets" : 2,
					"triscale" : 0.9,
					"minimum" : 0.0,
					"outlettype" : [ "float", "bang" ]
				}

			}
, 			{
				"box" : 				{
					"maxclass" : "newobj",
					"varname" : "hue_angle[3]",
					"text" : "jcom.parameter step @repetitions/allow 0 @type msg_float @range/bounds 0. 1. @range/clipmode both @ramp/drive scheduler",
					"linecount" : 2,
					"patching_rect" : [ 280.0, 640.0, 543.0, 31.0 ],
					"id" : "obj-52",
					"fontname" : "Verdana",
					"numinlets" : 1,
					"fontsize" : 10.0,
					"numoutlets" : 3,
					"outlettype" : [ "", "", "" ]
				}

			}
, 			{
				"box" : 				{
					"maxclass" : "newobj",
					"varname" : "hue_angle[2]",
					"text" : "jcom.parameter range @repetitions/allow 0 @type msg_float @range/bounds 0. 1. @range/clipmode both @ramp/drive scheduler",
					"linecount" : 2,
					"patching_rect" : [ 339.0, 502.0, 551.0, 31.0 ],
					"id" : "obj-44",
					"fontname" : "Verdana",
					"numinlets" : 1,
					"fontsize" : 10.0,
					"numoutlets" : 3,
					"outlettype" : [ "", "", "" ]
				}

			}
, 			{
				"box" : 				{
					"maxclass" : "comment",
					"text" : "/step",
					"patching_rect" : [ 172.0, 641.0, 41.0, 18.0 ],
					"id" : "obj-108",
					"presentation" : 1,
					"fontname" : "Arial",
					"textcolor" : [ 1.0, 1.0, 1.0, 1.0 ],
					"frgb" : [ 1.0, 1.0, 1.0, 1.0 ],
					"numinlets" : 1,
					"fontsize" : 10.0,
					"presentation_rect" : [ 89.0, 55.0, 30.0, 18.0 ],
					"numoutlets" : 0
				}

			}
, 			{
				"box" : 				{
					"maxclass" : "flonum",
					"patching_rect" : [ 225.0, 641.0, 52.0, 19.0 ],
					"id" : "obj-106",
					"hbgcolor" : [ 0.0, 0.0, 0.0, 0.0 ],
					"maximum" : 1.0,
					"presentation" : 1,
					"bordercolor" : [ 0.501961, 0.501961, 0.501961, 0.0 ],
					"fontname" : "Verdana",
					"textcolor" : [ 1.0, 1.0, 1.0, 1.0 ],
					"bgcolor" : [ 1.0, 1.0, 1.0, 0.0 ],
					"htextcolor" : [ 0.741176, 0.184314, 0.756863, 1.0 ],
					"triangle" : 0,
					"numinlets" : 1,
					"fontsize" : 10.0,
					"presentation_rect" : [ 113.0, 54.0, 37.0, 19.0 ],
					"numoutlets" : 2,
					"triscale" : 0.9,
					"minimum" : 0.0,
					"outlettype" : [ "float", "bang" ]
				}

			}
, 			{
				"box" : 				{
					"maxclass" : "newobj",
					"text" : "* -1.",
					"patching_rect" : [ 295.0, 439.0, 35.0, 18.0 ],
					"id" : "obj-98",
					"fontname" : "Verdana",
					"numinlets" : 2,
					"fontsize" : 9.873845,
					"numoutlets" : 1,
					"outlettype" : [ "float" ]
				}

			}
, 			{
				"box" : 				{
					"maxclass" : "newobj",
					"text" : "- 0.",
					"patching_rect" : [ 295.0, 417.0, 32.5, 18.0 ],
					"id" : "obj-101",
					"fontname" : "Verdana",
					"numinlets" : 2,
					"fontsize" : 9.873845,
					"numoutlets" : 1,
					"outlettype" : [ "float" ]
				}

			}
, 			{
				"box" : 				{
					"maxclass" : "newobj",
					"text" : "/ 2.",
					"patching_rect" : [ 110.0, 438.0, 32.5, 18.0 ],
					"id" : "obj-102",
					"fontname" : "Verdana",
					"numinlets" : 2,
					"fontsize" : 9.873845,
					"numoutlets" : 1,
					"outlettype" : [ "float" ]
				}

			}
, 			{
				"box" : 				{
					"maxclass" : "newobj",
					"text" : "+ 0.",
					"patching_rect" : [ 110.0, 417.0, 32.5, 18.0 ],
					"id" : "obj-103",
					"fontname" : "Verdana",
					"numinlets" : 2,
					"fontsize" : 9.873845,
					"numoutlets" : 1,
					"outlettype" : [ "float" ]
				}

			}
, 			{
				"box" : 				{
					"maxclass" : "rslider",
					"patching_rect" : [ 110.0, 362.0, 218.0, 20.0 ],
					"id" : "obj-104",
					"presentation" : 1,
					"bordercolor" : [ 0.501961, 0.501961, 0.501961, 0.0 ],
					"mult" : 0.001,
					"fgcolor" : [ 1.0, 0.941176, 0.0, 1.0 ],
					"numinlets" : 2,
					"floatoutput" : 1,
					"presentation_rect" : [ 1.0, 21.0, 148.0, 20.0 ],
					"numoutlets" : 2,
					"size" : 1000,
					"outlettype" : [ "", "" ]
				}

			}
, 			{
				"box" : 				{
					"maxclass" : "comment",
					"text" : "/range",
					"patching_rect" : [ 242.0, 500.0, 45.0, 18.0 ],
					"id" : "obj-68",
					"presentation" : 1,
					"fontname" : "Arial",
					"textcolor" : [ 1.0, 1.0, 1.0, 1.0 ],
					"frgb" : [ 1.0, 1.0, 1.0, 1.0 ],
					"numinlets" : 1,
					"fontsize" : 10.0,
					"presentation_rect" : [ 0.0, 54.0, 39.0, 18.0 ],
					"numoutlets" : 0
				}

			}
, 			{
				"box" : 				{
					"maxclass" : "comment",
					"text" : "/center",
					"patching_rect" : [ 60.0, 555.0, 44.0, 18.0 ],
					"id" : "obj-67",
					"presentation" : 1,
					"fontname" : "Arial",
					"textcolor" : [ 1.0, 1.0, 1.0, 1.0 ],
					"frgb" : [ 1.0, 1.0, 1.0, 1.0 ],
					"numinlets" : 1,
					"fontsize" : 10.0,
					"presentation_rect" : [ 0.0, 41.0, 40.0, 18.0 ],
					"numoutlets" : 0
				}

			}
, 			{
				"box" : 				{
					"maxclass" : "flonum",
					"patching_rect" : [ 110.0, 555.0, 53.0, 19.0 ],
					"id" : "obj-64",
					"hbgcolor" : [ 0.0, 0.0, 0.0, 0.0 ],
					"maximum" : 1.0,
					"presentation" : 1,
					"bordercolor" : [ 0.501961, 0.501961, 0.501961, 0.0 ],
					"fontname" : "Verdana",
					"textcolor" : [ 1.0, 1.0, 1.0, 1.0 ],
					"bgcolor" : [ 1.0, 1.0, 1.0, 0.0 ],
					"htextcolor" : [ 0.741176, 0.184314, 0.756863, 1.0 ],
					"triangle" : 0,
					"numinlets" : 1,
					"fontsize" : 10.0,
					"presentation_rect" : [ 34.0, 40.0, 40.0, 19.0 ],
					"numoutlets" : 2,
					"triscale" : 0.9,
					"minimum" : 0.0,
					"outlettype" : [ "float", "bang" ]
				}

			}
, 			{
				"box" : 				{
					"maxclass" : "flonum",
					"patching_rect" : [ 295.0, 501.0, 39.0, 19.0 ],
					"id" : "obj-61",
					"hbgcolor" : [ 0.0, 0.0, 0.0, 0.0 ],
					"maximum" : 1.0,
					"presentation" : 1,
					"bordercolor" : [ 0.501961, 0.501961, 0.501961, 0.0 ],
					"fontname" : "Verdana",
					"textcolor" : [ 0.984314, 0.980392, 0.980392, 1.0 ],
					"bgcolor" : [ 1.0, 1.0, 1.0, 0.0 ],
					"htextcolor" : [ 0.741176, 0.184314, 0.756863, 1.0 ],
					"triangle" : 0,
					"numinlets" : 1,
					"fontsize" : 10.0,
					"presentation_rect" : [ 34.0, 54.0, 39.0, 19.0 ],
					"numoutlets" : 2,
					"triscale" : 0.9,
					"minimum" : 0.0,
					"outlettype" : [ "float", "bang" ]
				}

			}
, 			{
				"box" : 				{
					"maxclass" : "button",
					"patching_rect" : [ 377.0, 89.0, 20.0, 20.0 ],
					"id" : "obj-17",
					"presentation" : 1,
					"bgcolor" : [ 0.913725, 0.913725, 0.913725, 0.0 ],
					"fgcolor" : [ 1.0, 0.94902, 0.45098, 1.0 ],
					"numinlets" : 1,
					"presentation_rect" : [ 128.0, 37.0, 24.0, 24.0 ],
					"numoutlets" : 1,
					"blinkcolor" : [ 1.0, 1.0, 0.0, 1.0 ],
					"outlinecolor" : [ 1.0, 0.94902, 0.0, 0.0 ],
					"outlettype" : [ "bang" ]
				}

			}
, 			{
				"box" : 				{
					"maxclass" : "newobj",
					"varname" : "hue_angle[1]",
					"text" : "jcom.message bang @repetitions/allow 1 @description \"bang to get output\"",
					"patching_rect" : [ 404.0, 92.0, 394.0, 19.0 ],
					"id" : "obj-19",
					"fontname" : "Verdana",
					"numinlets" : 1,
					"fontsize" : 10.0,
					"numoutlets" : 3,
					"outlettype" : [ "", "", "" ]
				}

			}
, 			{
				"box" : 				{
					"maxclass" : "newobj",
					"varname" : "hue_angle",
					"text" : "jcom.parameter center @repetitions/allow 0 @type msg_float @range/bounds 0. 1. @range/clipmode both @ramp/drive scheduler @description \"input a value to get a random number within range, and set center\"",
					"linecount" : 2,
					"patching_rect" : [ 167.0, 554.0, 554.0, 31.0 ],
					"id" : "obj-29",
					"fontname" : "Verdana",
					"numinlets" : 1,
					"fontsize" : 10.0,
					"numoutlets" : 3,
					"outlettype" : [ "", "", "" ]
				}

			}
, 			{
				"box" : 				{
					"maxclass" : "message",
					"text" : "/preset/store 1 default, /preset/write",
					"patching_rect" : [ 50.0, 90.0, 251.0, 17.0 ],
					"id" : "obj-22",
					"fontname" : "Verdana",
					"numinlets" : 2,
					"fontsize" : 10.0,
					"numoutlets" : 1,
					"outlettype" : [ "" ]
				}

			}
, 			{
				"box" : 				{
					"maxclass" : "newobj",
					"text" : "jcom.return random @range/bounds 0. 1. @description \"random number moving on a drunk path, in a centered range\"",
					"patching_rect" : [ 430.0, 286.0, 626.0, 19.0 ],
					"id" : "obj-23",
					"fontname" : "Verdana",
					"numinlets" : 1,
					"fontsize" : 10.0,
					"numoutlets" : 2,
					"outlettype" : [ "", "" ]
				}

			}
, 			{
				"box" : 				{
					"maxclass" : "newobj",
					"text" : "jcom.in",
					"patching_rect" : [ 110.0, 189.0, 48.0, 19.0 ],
					"id" : "obj-24",
					"fontname" : "Verdana",
					"numinlets" : 1,
					"fontsize" : 10.0,
					"numoutlets" : 2,
					"outlettype" : [ "", "" ]
				}

			}
, 			{
				"box" : 				{
					"maxclass" : "message",
					"text" : "/init",
					"patching_rect" : [ 240.0, 110.0, 40.0, 17.0 ],
					"id" : "obj-32",
					"fontname" : "Verdana",
					"numinlets" : 2,
					"fontsize" : 10.0,
					"numoutlets" : 1,
					"outlettype" : [ "" ]
				}

			}
, 			{
				"box" : 				{
					"maxclass" : "newobj",
					"text" : "p algorithm",
					"patching_rect" : [ 391.0, 249.0, 68.0, 19.0 ],
					"id" : "obj-33",
					"fontname" : "Verdana",
					"numinlets" : 2,
					"fontsize" : 10.0,
					"numoutlets" : 2,
					"outlettype" : [ "float", "" ],
					"patcher" : 					{
						"fileversion" : 1,
						"rect" : [ 67.0, 44.0, 749.0, 695.0 ],
						"bglocked" : 0,
						"defrect" : [ 67.0, 44.0, 749.0, 695.0 ],
						"openrect" : [ 0.0, 0.0, 0.0, 0.0 ],
						"openinpresentation" : 0,
						"default_fontsize" : 10.0,
						"default_fontface" : 0,
						"default_fontname" : "Arial",
						"gridonopen" : 0,
						"gridsize" : [ 5.0, 5.0 ],
						"gridsnaponopen" : 0,
						"toolbarvisible" : 1,
						"boxanimatetime" : 200,
						"imprint" : 0,
						"metadata" : [  ],
						"boxes" : [ 							{
								"box" : 								{
									"maxclass" : "newobj",
									"text" : "t b f",
									"patching_rect" : [ 180.0, 128.0, 32.5, 17.0 ],
									"id" : "obj-10",
									"fontname" : "Arial",
									"numinlets" : 1,
									"fontsize" : 9.0,
									"numoutlets" : 2,
									"outlettype" : [ "bang", "float" ]
								}

							}
, 							{
								"box" : 								{
									"maxclass" : "inlet",
									"patching_rect" : [ 315.0, 68.0, 15.0, 15.0 ],
									"id" : "obj-8",
									"numinlets" : 0,
									"numoutlets" : 1,
									"outlettype" : [ "float" ],
									"comment" : ""
								}

							}
, 							{
								"box" : 								{
									"maxclass" : "outlet",
									"patching_rect" : [ 373.0, 448.0, 15.0, 15.0 ],
									"id" : "obj-5",
									"numinlets" : 1,
									"numoutlets" : 0,
									"comment" : "display slider set"
								}

							}
, 							{
								"box" : 								{
									"maxclass" : "button",
									"patching_rect" : [ 315.0, 105.0, 20.0, 20.0 ],
									"id" : "obj-18",
									"numinlets" : 1,
									"numoutlets" : 1,
									"outlettype" : [ "bang" ]
								}

							}
, 							{
								"box" : 								{
									"maxclass" : "message",
									"text" : "500",
									"patching_rect" : [ 314.0, 129.0, 32.5, 18.0 ],
									"id" : "obj-26",
									"fontname" : "Arial",
									"numinlets" : 2,
									"fontsize" : 12.0,
									"numoutlets" : 1,
									"outlettype" : [ "" ]
								}

							}
, 							{
								"box" : 								{
									"maxclass" : "button",
									"patching_rect" : [ 366.0, 295.0, 20.0, 20.0 ],
									"id" : "obj-4",
									"numinlets" : 1,
									"numoutlets" : 1,
									"outlettype" : [ "bang" ]
								}

							}
, 							{
								"box" : 								{
									"maxclass" : "newobj",
									"text" : "* 1000.",
									"patching_rect" : [ 418.0, 356.0, 49.0, 18.0 ],
									"id" : "obj-27",
									"fontname" : "Verdana",
									"numinlets" : 2,
									"fontsize" : 9.873845,
									"numoutlets" : 1,
									"outlettype" : [ "float" ]
								}

							}
, 							{
								"box" : 								{
									"maxclass" : "newobj",
									"text" : "* 1000.",
									"patching_rect" : [ 367.0, 356.0, 49.0, 18.0 ],
									"id" : "obj-30",
									"fontname" : "Verdana",
									"numinlets" : 2,
									"fontsize" : 9.873845,
									"numoutlets" : 1,
									"outlettype" : [ "float" ]
								}

							}
, 							{
								"box" : 								{
									"maxclass" : "newobj",
									"text" : "prepend set",
									"patching_rect" : [ 375.0, 407.0, 70.0, 18.0 ],
									"id" : "obj-31",
									"fontname" : "Verdana",
									"numinlets" : 1,
									"fontsize" : 9.873845,
									"numoutlets" : 1,
									"outlettype" : [ "" ]
								}

							}
, 							{
								"box" : 								{
									"maxclass" : "newobj",
									"text" : "pak 0. 0.",
									"patching_rect" : [ 375.0, 387.0, 55.0, 18.0 ],
									"id" : "obj-34",
									"fontname" : "Verdana",
									"numinlets" : 2,
									"fontsize" : 9.873845,
									"numoutlets" : 1,
									"outlettype" : [ "" ]
								}

							}
, 							{
								"box" : 								{
									"maxclass" : "newobj",
									"text" : "/ 2.",
									"patching_rect" : [ 389.0, 295.0, 32.5, 18.0 ],
									"id" : "obj-35",
									"fontname" : "Verdana",
									"numinlets" : 2,
									"fontsize" : 9.873845,
									"numoutlets" : 1,
									"outlettype" : [ "float" ]
								}

							}
, 							{
								"box" : 								{
									"maxclass" : "newobj",
									"text" : "- 0.",
									"patching_rect" : [ 375.0, 333.0, 32.5, 18.0 ],
									"id" : "obj-36",
									"fontname" : "Verdana",
									"numinlets" : 2,
									"fontsize" : 9.873845,
									"numoutlets" : 1,
									"outlettype" : [ "float" ]
								}

							}
, 							{
								"box" : 								{
									"maxclass" : "newobj",
									"text" : "+ 0.",
									"patching_rect" : [ 409.0, 333.0, 32.5, 18.0 ],
									"id" : "obj-40",
									"fontname" : "Verdana",
									"numinlets" : 2,
									"fontsize" : 9.873845,
									"numoutlets" : 1,
									"outlettype" : [ "float" ]
								}

							}
, 							{
								"box" : 								{
									"maxclass" : "newobj",
									"text" : "- 500",
									"patching_rect" : [ 276.0, 180.0, 37.0, 18.0 ],
									"id" : "obj-113",
									"fontname" : "Verdana",
									"numinlets" : 2,
									"fontsize" : 9.873845,
									"numoutlets" : 1,
									"outlettype" : [ "int" ]
								}

							}
, 							{
								"box" : 								{
									"maxclass" : "newobj",
									"text" : "/ 1000.",
									"patching_rect" : [ 276.0, 245.0, 47.0, 18.0 ],
									"id" : "obj-109",
									"fontname" : "Verdana",
									"numinlets" : 2,
									"fontsize" : 9.873845,
									"numoutlets" : 1,
									"outlettype" : [ "float" ]
								}

							}
, 							{
								"box" : 								{
									"maxclass" : "comment",
									"text" : "...et ce step",
									"patching_rect" : [ 399.0, 107.0, 72.0, 20.0 ],
									"id" : "obj-108",
									"presentation" : 1,
									"fontname" : "Arial",
									"numinlets" : 1,
									"fontsize" : 12.0,
									"presentation_rect" : [ 612.0, 212.0, 72.0, 20.0 ],
									"numoutlets" : 0
								}

							}
, 							{
								"box" : 								{
									"maxclass" : "newobj",
									"text" : "* 1000.",
									"patching_rect" : [ 348.0, 132.0, 49.0, 18.0 ],
									"id" : "obj-107",
									"fontname" : "Verdana",
									"numinlets" : 2,
									"fontsize" : 9.873845,
									"numoutlets" : 1,
									"outlettype" : [ "float" ]
								}

							}
, 							{
								"box" : 								{
									"maxclass" : "flonum",
									"patching_rect" : [ 348.0, 107.0, 52.0, 19.0 ],
									"id" : "obj-106",
									"maximum" : 1.0,
									"presentation" : 1,
									"fontname" : "Verdana",
									"numinlets" : 1,
									"fontsize" : 10.0,
									"presentation_rect" : [ 560.0, 212.0, 52.0, 19.0 ],
									"numoutlets" : 2,
									"triscale" : 0.9,
									"minimum" : 0.0,
									"outlettype" : [ "float", "bang" ]
								}

							}
, 							{
								"box" : 								{
									"maxclass" : "comment",
									"text" : "...avec cette amplitude",
									"patching_rect" : [ 381.0, 217.0, 200.0, 20.0 ],
									"id" : "obj-68",
									"presentation" : 1,
									"fontname" : "Arial",
									"numinlets" : 1,
									"fontsize" : 12.0,
									"presentation_rect" : [ 600.0, 187.0, 134.0, 20.0 ],
									"numoutlets" : 0
								}

							}
, 							{
								"box" : 								{
									"maxclass" : "comment",
									"text" : "drunk autour d'une valeur...",
									"patching_rect" : [ 59.0, 222.0, 160.0, 20.0 ],
									"id" : "obj-67",
									"presentation" : 1,
									"fontname" : "Arial",
									"numinlets" : 1,
									"fontsize" : 12.0,
									"presentation_rect" : [ 618.0, 166.0, 160.0, 20.0 ],
									"numoutlets" : 0
								}

							}
, 							{
								"box" : 								{
									"maxclass" : "flonum",
									"patching_rect" : [ 276.0, 322.0, 53.0, 19.0 ],
									"id" : "obj-66",
									"maximum" : 1.0,
									"presentation" : 1,
									"fontname" : "Verdana",
									"bgcolor" : [ 0.945098, 0.913725, 0.407843, 1.0 ],
									"numinlets" : 1,
									"fontsize" : 10.0,
									"presentation_rect" : [ 590.0, 244.0, 53.0, 19.0 ],
									"numoutlets" : 2,
									"triscale" : 0.9,
									"minimum" : 0.0,
									"outlettype" : [ "float", "bang" ]
								}

							}
, 							{
								"box" : 								{
									"maxclass" : "newobj",
									"text" : "+ 0.",
									"patching_rect" : [ 276.0, 298.0, 32.5, 18.0 ],
									"id" : "obj-65",
									"fontname" : "Verdana",
									"numinlets" : 2,
									"fontsize" : 9.873845,
									"numoutlets" : 1,
									"outlettype" : [ "float" ]
								}

							}
, 							{
								"box" : 								{
									"maxclass" : "flonum",
									"patching_rect" : [ 211.0, 223.0, 53.0, 19.0 ],
									"id" : "obj-64",
									"maximum" : 1.0,
									"presentation" : 1,
									"fontname" : "Verdana",
									"numinlets" : 1,
									"fontsize" : 10.0,
									"presentation_rect" : [ 561.0, 167.0, 53.0, 19.0 ],
									"numoutlets" : 2,
									"triscale" : 0.9,
									"minimum" : 0.0,
									"outlettype" : [ "float", "bang" ]
								}

							}
, 							{
								"box" : 								{
									"maxclass" : "button",
									"patching_rect" : [ 276.0, 129.0, 20.0, 20.0 ],
									"id" : "obj-63",
									"presentation" : 1,
									"numinlets" : 1,
									"presentation_rect" : [ 560.0, 243.0, 20.0, 20.0 ],
									"numoutlets" : 1,
									"outlettype" : [ "bang" ]
								}

							}
, 							{
								"box" : 								{
									"maxclass" : "flonum",
									"patching_rect" : [ 342.0, 219.0, 39.0, 19.0 ],
									"id" : "obj-61",
									"maximum" : 1.0,
									"presentation" : 1,
									"fontname" : "Verdana",
									"numinlets" : 1,
									"fontsize" : 10.0,
									"presentation_rect" : [ 561.0, 189.0, 39.0, 19.0 ],
									"numoutlets" : 2,
									"triscale" : 0.9,
									"minimum" : 0.0,
									"outlettype" : [ "float", "bang" ]
								}

							}
, 							{
								"box" : 								{
									"maxclass" : "newobj",
									"text" : "* 0.",
									"patching_rect" : [ 276.0, 220.0, 32.5, 18.0 ],
									"id" : "obj-60",
									"fontname" : "Verdana",
									"numinlets" : 2,
									"fontsize" : 9.873845,
									"numoutlets" : 1,
									"outlettype" : [ "float" ]
								}

							}
, 							{
								"box" : 								{
									"maxclass" : "newobj",
									"text" : "drunk 1000 50",
									"patching_rect" : [ 276.0, 156.0, 91.0, 18.0 ],
									"id" : "obj-59",
									"fontname" : "Verdana",
									"numinlets" : 3,
									"fontsize" : 9.873845,
									"numoutlets" : 1,
									"outlettype" : [ "int" ]
								}

							}
, 							{
								"box" : 								{
									"maxclass" : "flonum",
									"patching_rect" : [ 276.0, 273.0, 46.0, 19.0 ],
									"id" : "obj-42",
									"fontname" : "Verdana",
									"numinlets" : 1,
									"fontsize" : 10.0,
									"numoutlets" : 2,
									"triscale" : 0.9,
									"outlettype" : [ "float", "bang" ]
								}

							}
, 							{
								"box" : 								{
									"maxclass" : "newobj",
									"text" : "jcom.oscroute /center /range /step /bang",
									"patching_rect" : [ 24.0, 65.0, 190.0, 18.0 ],
									"id" : "obj-1",
									"fontname" : "Arial",
									"numinlets" : 1,
									"fontsize" : 10.0,
									"numoutlets" : 5,
									"outlettype" : [ "", "", "", "", "" ]
								}

							}
, 							{
								"box" : 								{
									"maxclass" : "outlet",
									"patching_rect" : [ 71.0, 453.0, 15.0, 15.0 ],
									"id" : "obj-2",
									"numinlets" : 1,
									"numoutlets" : 0,
									"comment" : ""
								}

							}
, 							{
								"box" : 								{
									"maxclass" : "inlet",
									"patching_rect" : [ 24.0, 17.0, 15.0, 15.0 ],
									"id" : "obj-3",
									"numinlets" : 0,
									"numoutlets" : 1,
									"outlettype" : [ "" ],
									"comment" : ""
								}

							}
 ],
						"lines" : [ 							{
								"patchline" : 								{
									"source" : [ "obj-1", 3 ],
									"destination" : [ "obj-63", 0 ],
									"hidden" : 0,
									"midpoints" : [  ]
								}

							}
, 							{
								"patchline" : 								{
									"source" : [ "obj-1", 1 ],
									"destination" : [ "obj-61", 0 ],
									"hidden" : 0,
									"midpoints" : [  ]
								}

							}
, 							{
								"patchline" : 								{
									"source" : [ "obj-3", 0 ],
									"destination" : [ "obj-1", 0 ],
									"hidden" : 0,
									"midpoints" : [  ]
								}

							}
, 							{
								"patchline" : 								{
									"source" : [ "obj-1", 2 ],
									"destination" : [ "obj-106", 0 ],
									"hidden" : 0,
									"midpoints" : [  ]
								}

							}
, 							{
								"patchline" : 								{
									"source" : [ "obj-1", 0 ],
									"destination" : [ "obj-10", 0 ],
									"hidden" : 0,
									"midpoints" : [  ]
								}

							}
, 							{
								"patchline" : 								{
									"source" : [ "obj-113", 0 ],
									"destination" : [ "obj-60", 0 ],
									"hidden" : 0,
									"midpoints" : [  ]
								}

							}
, 							{
								"patchline" : 								{
									"source" : [ "obj-109", 0 ],
									"destination" : [ "obj-42", 0 ],
									"hidden" : 0,
									"midpoints" : [  ]
								}

							}
, 							{
								"patchline" : 								{
									"source" : [ "obj-64", 0 ],
									"destination" : [ "obj-65", 1 ],
									"hidden" : 0,
									"midpoints" : [  ]
								}

							}
, 							{
								"patchline" : 								{
									"source" : [ "obj-60", 0 ],
									"destination" : [ "obj-109", 0 ],
									"hidden" : 0,
									"midpoints" : [  ]
								}

							}
, 							{
								"patchline" : 								{
									"source" : [ "obj-106", 0 ],
									"destination" : [ "obj-107", 0 ],
									"hidden" : 0,
									"midpoints" : [  ]
								}

							}
, 							{
								"patchline" : 								{
									"source" : [ "obj-42", 0 ],
									"destination" : [ "obj-65", 0 ],
									"hidden" : 0,
									"midpoints" : [  ]
								}

							}
, 							{
								"patchline" : 								{
									"source" : [ "obj-65", 0 ],
									"destination" : [ "obj-66", 0 ],
									"hidden" : 0,
									"midpoints" : [  ]
								}

							}
, 							{
								"patchline" : 								{
									"source" : [ "obj-61", 0 ],
									"destination" : [ "obj-60", 1 ],
									"hidden" : 0,
									"midpoints" : [  ]
								}

							}
, 							{
								"patchline" : 								{
									"source" : [ "obj-35", 0 ],
									"destination" : [ "obj-36", 1 ],
									"hidden" : 0,
									"midpoints" : [  ]
								}

							}
, 							{
								"patchline" : 								{
									"source" : [ "obj-35", 0 ],
									"destination" : [ "obj-40", 1 ],
									"hidden" : 0,
									"midpoints" : [  ]
								}

							}
, 							{
								"patchline" : 								{
									"source" : [ "obj-36", 0 ],
									"destination" : [ "obj-30", 0 ],
									"hidden" : 0,
									"midpoints" : [  ]
								}

							}
, 							{
								"patchline" : 								{
									"source" : [ "obj-40", 0 ],
									"destination" : [ "obj-27", 0 ],
									"hidden" : 0,
									"midpoints" : [  ]
								}

							}
, 							{
								"patchline" : 								{
									"source" : [ "obj-27", 0 ],
									"destination" : [ "obj-34", 1 ],
									"hidden" : 0,
									"midpoints" : [  ]
								}

							}
, 							{
								"patchline" : 								{
									"source" : [ "obj-30", 0 ],
									"destination" : [ "obj-34", 0 ],
									"hidden" : 0,
									"midpoints" : [  ]
								}

							}
, 							{
								"patchline" : 								{
									"source" : [ "obj-34", 0 ],
									"destination" : [ "obj-31", 0 ],
									"hidden" : 0,
									"midpoints" : [  ]
								}

							}
, 							{
								"patchline" : 								{
									"source" : [ "obj-35", 0 ],
									"destination" : [ "obj-4", 0 ],
									"hidden" : 0,
									"midpoints" : [  ]
								}

							}
, 							{
								"patchline" : 								{
									"source" : [ "obj-4", 0 ],
									"destination" : [ "obj-36", 0 ],
									"hidden" : 0,
									"midpoints" : [  ]
								}

							}
, 							{
								"patchline" : 								{
									"source" : [ "obj-4", 0 ],
									"destination" : [ "obj-40", 0 ],
									"hidden" : 0,
									"midpoints" : [  ]
								}

							}
, 							{
								"patchline" : 								{
									"source" : [ "obj-61", 0 ],
									"destination" : [ "obj-35", 0 ],
									"hidden" : 0,
									"midpoints" : [  ]
								}

							}
, 							{
								"patchline" : 								{
									"source" : [ "obj-64", 0 ],
									"destination" : [ "obj-36", 0 ],
									"hidden" : 0,
									"midpoints" : [  ]
								}

							}
, 							{
								"patchline" : 								{
									"source" : [ "obj-64", 0 ],
									"destination" : [ "obj-40", 0 ],
									"hidden" : 0,
									"midpoints" : [  ]
								}

							}
, 							{
								"patchline" : 								{
									"source" : [ "obj-18", 0 ],
									"destination" : [ "obj-26", 0 ],
									"hidden" : 0,
									"midpoints" : [  ]
								}

							}
, 							{
								"patchline" : 								{
									"source" : [ "obj-26", 0 ],
									"destination" : [ "obj-59", 1 ],
									"hidden" : 0,
									"midpoints" : [  ]
								}

							}
, 							{
								"patchline" : 								{
									"source" : [ "obj-63", 0 ],
									"destination" : [ "obj-59", 0 ],
									"hidden" : 0,
									"midpoints" : [  ]
								}

							}
, 							{
								"patchline" : 								{
									"source" : [ "obj-107", 0 ],
									"destination" : [ "obj-59", 2 ],
									"hidden" : 0,
									"midpoints" : [  ]
								}

							}
, 							{
								"patchline" : 								{
									"source" : [ "obj-59", 0 ],
									"destination" : [ "obj-113", 0 ],
									"hidden" : 0,
									"midpoints" : [  ]
								}

							}
, 							{
								"patchline" : 								{
									"source" : [ "obj-31", 0 ],
									"destination" : [ "obj-5", 0 ],
									"hidden" : 0,
									"midpoints" : [  ]
								}

							}
, 							{
								"patchline" : 								{
									"source" : [ "obj-66", 0 ],
									"destination" : [ "obj-2", 0 ],
									"hidden" : 0,
									"midpoints" : [ 285.5, 381.0, 43.0, 403.0 ]
								}

							}
, 							{
								"patchline" : 								{
									"source" : [ "obj-8", 0 ],
									"destination" : [ "obj-18", 0 ],
									"hidden" : 0,
									"midpoints" : [  ]
								}

							}
, 							{
								"patchline" : 								{
									"source" : [ "obj-8", 0 ],
									"destination" : [ "obj-63", 0 ],
									"hidden" : 0,
									"midpoints" : [  ]
								}

							}
, 							{
								"patchline" : 								{
									"source" : [ "obj-10", 0 ],
									"destination" : [ "obj-63", 0 ],
									"hidden" : 0,
									"midpoints" : [  ]
								}

							}
, 							{
								"patchline" : 								{
									"source" : [ "obj-10", 1 ],
									"destination" : [ "obj-64", 0 ],
									"hidden" : 0,
									"midpoints" : [  ]
								}

							}
 ]
					}
,
					"saved_object_attributes" : 					{
						"default_fontface" : 0,
						"fontname" : "Arial",
						"globalpatchername" : "",
						"default_fontname" : "Arial",
						"default_fontsize" : 10.0,
						"fontface" : 0,
						"fontsize" : 10.0
					}

				}

			}
, 			{
				"box" : 				{
					"maxclass" : "newobj",
					"varname" : "jcom.hub",
					"text" : "jcom.hub @module_type control @description \"centered drunk path generator\"",
					"patching_rect" : [ 15.0, 140.0, 411.0, 19.0 ],
					"id" : "obj-37",
					"fontname" : "Verdana",
					"numinlets" : 1,
					"fontsize" : 10.0,
					"numoutlets" : 2,
					"outlettype" : [ "", "" ]
				}

			}
, 			{
				"box" : 				{
					"maxclass" : "inlet",
					"patching_rect" : [ 15.0, 90.0, 22.0, 22.0 ],
					"id" : "obj-38",
					"numinlets" : 0,
					"numoutlets" : 1,
					"outlettype" : [ "" ],
					"comment" : ""
				}

			}
, 			{
				"box" : 				{
					"maxclass" : "outlet",
					"patching_rect" : [ 15.0, 180.0, 22.0, 22.0 ],
					"id" : "obj-39",
					"numinlets" : 1,
					"numoutlets" : 0,
					"comment" : ""
				}

			}
, 			{
				"box" : 				{
					"maxclass" : "message",
					"text" : "/documentation/generate",
					"patching_rect" : [ 75.0, 110.0, 159.0, 17.0 ],
					"id" : "obj-43",
					"fontname" : "Verdana",
					"numinlets" : 2,
					"fontsize" : 10.0,
					"numoutlets" : 1,
					"outlettype" : [ "" ]
				}

			}
, 			{
				"box" : 				{
					"maxclass" : "jcom.ui",
					"text" : "/editing_this_module",
					"patching_rect" : [ 0.0, 0.0, 150.0, 70.0 ],
					"id" : "obj-16",
					"presentation" : 1,
					"has_freeze" : 1,
					"numinlets" : 1,
					"presentation_rect" : [ 0.0, 0.0, 150.0, 70.0 ],
					"numoutlets" : 1,
					"outlettype" : [ "" ]
				}

			}
 ],
		"lines" : [ 			{
				"patchline" : 				{
					"source" : [ "obj-24", 0 ],
					"destination" : [ "obj-3", 0 ],
					"hidden" : 0,
					"midpoints" : [  ]
				}

			}
, 			{
				"patchline" : 				{
					"source" : [ "obj-7", 0 ],
					"destination" : [ "obj-17", 0 ],
					"hidden" : 0,
					"midpoints" : [  ]
				}

			}
, 			{
				"patchline" : 				{
					"source" : [ "obj-102", 0 ],
					"destination" : [ "obj-33", 1 ],
					"hidden" : 0,
					"midpoints" : [ 119.5, 468.0, 582.0, 460.0, 473.0, 217.0 ]
				}

			}
, 			{
				"patchline" : 				{
					"source" : [ "obj-98", 0 ],
					"destination" : [ "obj-61", 0 ],
					"hidden" : 0,
					"midpoints" : [  ]
				}

			}
, 			{
				"patchline" : 				{
					"source" : [ "obj-102", 0 ],
					"destination" : [ "obj-64", 0 ],
					"hidden" : 0,
					"midpoints" : [  ]
				}

			}
, 			{
				"patchline" : 				{
					"source" : [ "obj-3", 1 ],
					"destination" : [ "obj-33", 0 ],
					"hidden" : 0,
					"midpoints" : [  ]
				}

			}
, 			{
				"patchline" : 				{
					"source" : [ "obj-64", 0 ],
					"destination" : [ "obj-29", 0 ],
					"hidden" : 0,
					"midpoints" : [  ]
				}

			}
, 			{
				"patchline" : 				{
					"source" : [ "obj-29", 0 ],
					"destination" : [ "obj-64", 0 ],
					"hidden" : 0,
					"midpoints" : [  ]
				}

			}
, 			{
				"patchline" : 				{
					"source" : [ "obj-103", 0 ],
					"destination" : [ "obj-102", 0 ],
					"hidden" : 0,
					"midpoints" : [  ]
				}

			}
, 			{
				"patchline" : 				{
					"source" : [ "obj-104", 0 ],
					"destination" : [ "obj-103", 0 ],
					"hidden" : 0,
					"midpoints" : [  ]
				}

			}
, 			{
				"patchline" : 				{
					"source" : [ "obj-104", 1 ],
					"destination" : [ "obj-103", 1 ],
					"hidden" : 0,
					"midpoints" : [  ]
				}

			}
, 			{
				"patchline" : 				{
					"source" : [ "obj-101", 0 ],
					"destination" : [ "obj-98", 0 ],
					"hidden" : 0,
					"midpoints" : [  ]
				}

			}
, 			{
				"patchline" : 				{
					"source" : [ "obj-104", 1 ],
					"destination" : [ "obj-101", 1 ],
					"hidden" : 0,
					"midpoints" : [  ]
				}

			}
, 			{
				"patchline" : 				{
					"source" : [ "obj-104", 0 ],
					"destination" : [ "obj-101", 0 ],
					"hidden" : 0,
					"midpoints" : [  ]
				}

			}
, 			{
				"patchline" : 				{
					"source" : [ "obj-33", 0 ],
					"destination" : [ "obj-23", 0 ],
					"hidden" : 0,
					"midpoints" : [  ]
				}

			}
, 			{
				"patchline" : 				{
					"source" : [ "obj-22", 0 ],
					"destination" : [ "obj-37", 0 ],
					"hidden" : 0,
					"midpoints" : [ 59.5, 133.0, 24.5, 133.0 ]
				}

			}
, 			{
				"patchline" : 				{
					"source" : [ "obj-43", 0 ],
					"destination" : [ "obj-37", 0 ],
					"hidden" : 0,
					"midpoints" : [ 84.5, 133.0, 24.5, 133.0 ]
				}

			}
, 			{
				"patchline" : 				{
					"source" : [ "obj-38", 0 ],
					"destination" : [ "obj-37", 0 ],
					"hidden" : 0,
					"midpoints" : [  ]
				}

			}
, 			{
				"patchline" : 				{
					"source" : [ "obj-32", 0 ],
					"destination" : [ "obj-37", 0 ],
					"hidden" : 0,
					"midpoints" : [ 249.5, 133.0, 24.5, 133.0 ]
				}

			}
, 			{
				"patchline" : 				{
					"source" : [ "obj-37", 0 ],
					"destination" : [ "obj-39", 0 ],
					"hidden" : 0,
					"midpoints" : [  ]
				}

			}
, 			{
				"patchline" : 				{
					"source" : [ "obj-52", 0 ],
					"destination" : [ "obj-106", 0 ],
					"hidden" : 0,
					"midpoints" : [  ]
				}

			}
, 			{
				"patchline" : 				{
					"source" : [ "obj-106", 0 ],
					"destination" : [ "obj-52", 0 ],
					"hidden" : 0,
					"midpoints" : [  ]
				}

			}
, 			{
				"patchline" : 				{
					"source" : [ "obj-17", 0 ],
					"destination" : [ "obj-19", 0 ],
					"hidden" : 0,
					"midpoints" : [  ]
				}

			}
, 			{
				"patchline" : 				{
					"source" : [ "obj-44", 0 ],
					"destination" : [ "obj-61", 0 ],
					"hidden" : 0,
					"midpoints" : [  ]
				}

			}
, 			{
				"patchline" : 				{
					"source" : [ "obj-61", 0 ],
					"destination" : [ "obj-44", 0 ],
					"hidden" : 0,
					"midpoints" : [  ]
				}

			}
, 			{
				"patchline" : 				{
					"source" : [ "obj-1", 0 ],
					"destination" : [ "obj-104", 0 ],
					"hidden" : 0,
					"midpoints" : [  ]
				}

			}
, 			{
				"patchline" : 				{
					"source" : [ "obj-33", 1 ],
					"destination" : [ "obj-1", 1 ],
					"hidden" : 0,
					"midpoints" : [ 449.5, 274.0, 147.5, 274.0 ]
				}

			}
, 			{
				"patchline" : 				{
					"source" : [ "obj-4", 0 ],
					"destination" : [ "obj-54", 0 ],
					"hidden" : 0,
					"midpoints" : [  ]
				}

			}
, 			{
				"patchline" : 				{
					"source" : [ "obj-3", 0 ],
					"destination" : [ "obj-2", 0 ],
					"hidden" : 0,
					"midpoints" : [  ]
				}

			}
, 			{
				"patchline" : 				{
					"source" : [ "obj-2", 0 ],
					"destination" : [ "obj-5", 0 ],
					"hidden" : 0,
					"midpoints" : [  ]
				}

			}
, 			{
				"patchline" : 				{
					"source" : [ "obj-5", 0 ],
					"destination" : [ "obj-1", 0 ],
					"hidden" : 0,
					"midpoints" : [  ]
				}

			}
, 			{
				"patchline" : 				{
					"source" : [ "obj-5", 0 ],
					"destination" : [ "obj-4", 0 ],
					"hidden" : 0,
					"midpoints" : [  ]
				}

			}
, 			{
				"patchline" : 				{
					"source" : [ "obj-33", 0 ],
					"destination" : [ "obj-4", 1 ],
					"hidden" : 0,
					"midpoints" : [  ]
				}

			}
, 			{
				"patchline" : 				{
					"source" : [ "obj-33", 0 ],
					"destination" : [ "obj-6", 0 ],
					"hidden" : 0,
					"midpoints" : [  ]
				}

			}
 ]
	}

}
