{
	"patcher" : 	{
		"fileversion" : 1,
		"rect" : [ 10.0, 59.0, 594.0, 549.0 ],
		"bglocked" : 0,
		"defrect" : [ 10.0, 59.0, 594.0, 549.0 ],
		"openrect" : [ 0.0, 0.0, 0.0, 0.0 ],
		"openinpresentation" : 0,
		"default_fontsize" : 10.0,
		"default_fontface" : 0,
		"default_fontname" : "Verdana",
		"gridonopen" : 0,
		"gridsize" : [ 5.0, 5.0 ],
		"gridsnaponopen" : 0,
		"toolbarvisible" : 1,
		"boxanimatetime" : 200,
		"imprint" : 0,
		"metadata" : [  ],
		"boxes" : [ 			{
				"box" : 				{
					"maxclass" : "newobj",
					"text" : "deferlow",
					"outlettype" : [ "" ],
					"fontsize" : 10.0,
					"hidden" : 1,
					"patching_rect" : [ 40.0, 440.0, 53.0, 19.0 ],
					"numinlets" : 1,
					"id" : "obj-32",
					"fontname" : "Verdana",
					"numoutlets" : 1
				}

			}
, 			{
				"box" : 				{
					"maxclass" : "newobj",
					"text" : "t b b",
					"outlettype" : [ "bang", "bang" ],
					"fontsize" : 10.0,
					"hidden" : 1,
					"patching_rect" : [ 40.0, 395.0, 34.0, 19.0 ],
					"numinlets" : 1,
					"id" : "obj-1",
					"fontname" : "Verdana",
					"numoutlets" : 2
				}

			}
, 			{
				"box" : 				{
					"maxclass" : "message",
					"text" : "stop",
					"outlettype" : [ "" ],
					"fontsize" : 10.0,
					"patching_rect" : [ 115.0, 475.0, 32.5, 17.0 ],
					"numinlets" : 2,
					"id" : "obj-2",
					"fontname" : "Verdana",
					"numoutlets" : 1
				}

			}
, 			{
				"box" : 				{
					"maxclass" : "message",
					"text" : "startwindow",
					"outlettype" : [ "" ],
					"fontsize" : 10.0,
					"patching_rect" : [ 40.0, 475.0, 72.0, 17.0 ],
					"numinlets" : 2,
					"id" : "obj-3",
					"fontname" : "Verdana",
					"numoutlets" : 1
				}

			}
, 			{
				"box" : 				{
					"maxclass" : "newobj",
					"text" : "phasor~ 1",
					"outlettype" : [ "signal" ],
					"fontsize" : 10.0,
					"patching_rect" : [ 220.0, 175.0, 63.0, 19.0 ],
					"numinlets" : 2,
					"id" : "obj-4",
					"fontname" : "Verdana",
					"numoutlets" : 1
				}

			}
, 			{
				"box" : 				{
					"maxclass" : "newobj",
					"text" : "jcom.multi.in~",
					"outlettype" : [ "" ],
					"fontsize" : 10.0,
					"patching_rect" : [ 155.0, 215.0, 416.0, 19.0 ],
					"numinlets" : 32,
					"id" : "obj-5",
					"fontname" : "Verdana",
					"numoutlets" : 1
				}

			}
, 			{
				"box" : 				{
					"maxclass" : "comment",
					"text" : "jmod.sur.multi.out~",
					"fontsize" : 18.0,
					"frgb" : [ 0.337255, 0.356863, 0.690196, 1.0 ],
					"patching_rect" : [ 25.0, 20.0, 267.0, 28.0 ],
					"numinlets" : 1,
					"id" : "obj-6",
					"fontname" : "Verdana",
					"numoutlets" : 0
				}

			}
, 			{
				"box" : 				{
					"maxclass" : "comment",
					"text" : "Put audio signals on a multicable",
					"fontsize" : 10.0,
					"frgb" : [ 0.337255, 0.356863, 0.690196, 1.0 ],
					"patching_rect" : [ 25.0, 45.0, 292.0, 19.0 ],
					"numinlets" : 1,
					"id" : "obj-7",
					"fontname" : "Verdana",
					"numoutlets" : 0
				}

			}
, 			{
				"box" : 				{
					"maxclass" : "panel",
					"rounded" : 15,
					"patching_rect" : [ 15.0, 10.0, 400.0, 61.0 ],
					"numinlets" : 1,
					"id" : "obj-8",
					"numoutlets" : 0
				}

			}
, 			{
				"box" : 				{
					"maxclass" : "newobj",
					"text" : "qlim 100",
					"outlettype" : [ "" ],
					"fontsize" : 10.0,
					"patching_rect" : [ 40.0, 155.0, 55.0, 19.0 ],
					"numinlets" : 2,
					"id" : "obj-10",
					"fontname" : "Verdana",
					"numoutlets" : 1
				}

			}
, 			{
				"box" : 				{
					"maxclass" : "number",
					"outlettype" : [ "int", "bang" ],
					"maximum" : 31,
					"fontsize" : 10.0,
					"patching_rect" : [ 40.0, 130.0, 35.0, 19.0 ],
					"numinlets" : 1,
					"id" : "obj-11",
					"fontname" : "Verdana",
					"numoutlets" : 2,
					"minimum" : 0,
					"triscale" : 0.9
				}

			}
, 			{
				"box" : 				{
					"maxclass" : "message",
					"text" : "/channel_offset $1",
					"outlettype" : [ "" ],
					"fontsize" : 10.0,
					"patching_rect" : [ 40.0, 180.0, 105.0, 17.0 ],
					"numinlets" : 2,
					"id" : "obj-12",
					"fontname" : "Verdana",
					"numoutlets" : 1
				}

			}
, 			{
				"box" : 				{
					"maxclass" : "bpatcher",
					"varname" : "jmod.surround.multi.out~",
					"outlettype" : [ "", "", "", "", "", "", "", "", "", "", "", "", "", "", "", "", "", "", "", "", "", "", "", "", "", "", "", "", "", "", "", "", "" ],
					"lockeddragscroll" : 1,
					"patching_rect" : [ 138.0, 255.0, 300.0, 70.0 ],
					"args" : [ "/multi_output" ],
					"numinlets" : 2,
					"id" : "obj-13",
					"name" : "jmod.sur.multi.out~.maxpat",
					"numoutlets" : 33
				}

			}
, 			{
				"box" : 				{
					"maxclass" : "newobj",
					"text" : "dac~",
					"fontsize" : 10.0,
					"patching_rect" : [ 40.0, 510.0, 36.0, 19.0 ],
					"numinlets" : 2,
					"id" : "obj-14",
					"fontname" : "Verdana",
					"numoutlets" : 0
				}

			}
, 			{
				"box" : 				{
					"maxclass" : "meter~",
					"outlettype" : [ "float" ],
					"tepidcolor" : [ 0.6, 0.729412, 0.0, 1.0 ],
					"patching_rect" : [ 375.0, 380.0, 13.0, 77.0 ],
					"numinlets" : 1,
					"warmcolor" : [ 0.85098, 0.85098, 0.0, 1.0 ],
					"id" : "obj-15",
					"coldcolor" : [ 0.0, 0.658824, 0.0, 1.0 ],
					"numoutlets" : 1,
					"bgcolor" : [ 0.403922, 0.403922, 0.403922, 1.0 ]
				}

			}
, 			{
				"box" : 				{
					"maxclass" : "meter~",
					"outlettype" : [ "float" ],
					"tepidcolor" : [ 0.6, 0.729412, 0.0, 1.0 ],
					"patching_rect" : [ 360.0, 380.0, 13.0, 77.0 ],
					"numinlets" : 1,
					"warmcolor" : [ 0.85098, 0.85098, 0.0, 1.0 ],
					"id" : "obj-16",
					"coldcolor" : [ 0.0, 0.658824, 0.0, 1.0 ],
					"numoutlets" : 1,
					"bgcolor" : [ 0.403922, 0.403922, 0.403922, 1.0 ]
				}

			}
, 			{
				"box" : 				{
					"maxclass" : "meter~",
					"outlettype" : [ "float" ],
					"tepidcolor" : [ 0.6, 0.729412, 0.0, 1.0 ],
					"patching_rect" : [ 345.0, 380.0, 13.0, 77.0 ],
					"numinlets" : 1,
					"warmcolor" : [ 0.85098, 0.85098, 0.0, 1.0 ],
					"id" : "obj-17",
					"coldcolor" : [ 0.0, 0.658824, 0.0, 1.0 ],
					"numoutlets" : 1,
					"bgcolor" : [ 0.403922, 0.403922, 0.403922, 1.0 ]
				}

			}
, 			{
				"box" : 				{
					"maxclass" : "meter~",
					"outlettype" : [ "float" ],
					"tepidcolor" : [ 0.6, 0.729412, 0.0, 1.0 ],
					"patching_rect" : [ 330.0, 380.0, 13.0, 77.0 ],
					"numinlets" : 1,
					"warmcolor" : [ 0.85098, 0.85098, 0.0, 1.0 ],
					"id" : "obj-18",
					"coldcolor" : [ 0.0, 0.658824, 0.0, 1.0 ],
					"numoutlets" : 1,
					"bgcolor" : [ 0.403922, 0.403922, 0.403922, 1.0 ]
				}

			}
, 			{
				"box" : 				{
					"maxclass" : "meter~",
					"outlettype" : [ "float" ],
					"tepidcolor" : [ 0.6, 0.729412, 0.0, 1.0 ],
					"patching_rect" : [ 315.0, 380.0, 13.0, 77.0 ],
					"numinlets" : 1,
					"warmcolor" : [ 0.85098, 0.85098, 0.0, 1.0 ],
					"id" : "obj-19",
					"coldcolor" : [ 0.0, 0.658824, 0.0, 1.0 ],
					"numoutlets" : 1,
					"bgcolor" : [ 0.403922, 0.403922, 0.403922, 1.0 ]
				}

			}
, 			{
				"box" : 				{
					"maxclass" : "meter~",
					"outlettype" : [ "float" ],
					"tepidcolor" : [ 0.6, 0.729412, 0.0, 1.0 ],
					"patching_rect" : [ 300.0, 380.0, 13.0, 77.0 ],
					"numinlets" : 1,
					"warmcolor" : [ 0.85098, 0.85098, 0.0, 1.0 ],
					"id" : "obj-20",
					"coldcolor" : [ 0.0, 0.658824, 0.0, 1.0 ],
					"numoutlets" : 1,
					"bgcolor" : [ 0.403922, 0.403922, 0.403922, 1.0 ]
				}

			}
, 			{
				"box" : 				{
					"maxclass" : "meter~",
					"outlettype" : [ "float" ],
					"tepidcolor" : [ 0.6, 0.729412, 0.0, 1.0 ],
					"patching_rect" : [ 285.0, 380.0, 13.0, 77.0 ],
					"numinlets" : 1,
					"warmcolor" : [ 0.85098, 0.85098, 0.0, 1.0 ],
					"id" : "obj-21",
					"coldcolor" : [ 0.0, 0.658824, 0.0, 1.0 ],
					"numoutlets" : 1,
					"bgcolor" : [ 0.403922, 0.403922, 0.403922, 1.0 ]
				}

			}
, 			{
				"box" : 				{
					"maxclass" : "meter~",
					"outlettype" : [ "float" ],
					"tepidcolor" : [ 0.6, 0.729412, 0.0, 1.0 ],
					"patching_rect" : [ 270.0, 380.0, 13.0, 77.0 ],
					"numinlets" : 1,
					"warmcolor" : [ 0.85098, 0.85098, 0.0, 1.0 ],
					"id" : "obj-22",
					"coldcolor" : [ 0.0, 0.658824, 0.0, 1.0 ],
					"numoutlets" : 1,
					"bgcolor" : [ 0.403922, 0.403922, 0.403922, 1.0 ]
				}

			}
, 			{
				"box" : 				{
					"maxclass" : "meter~",
					"outlettype" : [ "float" ],
					"tepidcolor" : [ 0.6, 0.729412, 0.0, 1.0 ],
					"patching_rect" : [ 255.0, 380.0, 13.0, 77.0 ],
					"numinlets" : 1,
					"warmcolor" : [ 0.85098, 0.85098, 0.0, 1.0 ],
					"id" : "obj-23",
					"coldcolor" : [ 0.0, 0.658824, 0.0, 1.0 ],
					"numoutlets" : 1,
					"bgcolor" : [ 0.403922, 0.403922, 0.403922, 1.0 ]
				}

			}
, 			{
				"box" : 				{
					"maxclass" : "meter~",
					"outlettype" : [ "float" ],
					"tepidcolor" : [ 0.6, 0.729412, 0.0, 1.0 ],
					"patching_rect" : [ 240.0, 380.0, 13.0, 77.0 ],
					"numinlets" : 1,
					"warmcolor" : [ 0.85098, 0.85098, 0.0, 1.0 ],
					"id" : "obj-24",
					"coldcolor" : [ 0.0, 0.658824, 0.0, 1.0 ],
					"numoutlets" : 1,
					"bgcolor" : [ 0.403922, 0.403922, 0.403922, 1.0 ]
				}

			}
, 			{
				"box" : 				{
					"maxclass" : "meter~",
					"outlettype" : [ "float" ],
					"tepidcolor" : [ 0.6, 0.729412, 0.0, 1.0 ],
					"patching_rect" : [ 225.0, 380.0, 13.0, 77.0 ],
					"numinlets" : 1,
					"warmcolor" : [ 0.85098, 0.85098, 0.0, 1.0 ],
					"id" : "obj-25",
					"coldcolor" : [ 0.0, 0.658824, 0.0, 1.0 ],
					"numoutlets" : 1,
					"bgcolor" : [ 0.129412, 0.129412, 0.129412, 1.0 ]
				}

			}
, 			{
				"box" : 				{
					"maxclass" : "meter~",
					"outlettype" : [ "float" ],
					"tepidcolor" : [ 0.6, 0.729412, 0.0, 1.0 ],
					"patching_rect" : [ 210.0, 380.0, 13.0, 77.0 ],
					"numinlets" : 1,
					"warmcolor" : [ 0.85098, 0.85098, 0.0, 1.0 ],
					"id" : "obj-26",
					"coldcolor" : [ 0.0, 0.658824, 0.0, 1.0 ],
					"numoutlets" : 1,
					"bgcolor" : [ 0.403922, 0.403922, 0.403922, 1.0 ]
				}

			}
, 			{
				"box" : 				{
					"maxclass" : "meter~",
					"outlettype" : [ "float" ],
					"tepidcolor" : [ 0.6, 0.729412, 0.0, 1.0 ],
					"patching_rect" : [ 195.0, 380.0, 13.0, 77.0 ],
					"numinlets" : 1,
					"warmcolor" : [ 0.85098, 0.85098, 0.0, 1.0 ],
					"id" : "obj-27",
					"coldcolor" : [ 0.0, 0.658824, 0.0, 1.0 ],
					"numoutlets" : 1,
					"bgcolor" : [ 0.403922, 0.403922, 0.403922, 1.0 ]
				}

			}
, 			{
				"box" : 				{
					"maxclass" : "meter~",
					"outlettype" : [ "float" ],
					"tepidcolor" : [ 0.6, 0.729412, 0.0, 1.0 ],
					"patching_rect" : [ 180.0, 380.0, 13.0, 77.0 ],
					"numinlets" : 1,
					"warmcolor" : [ 0.85098, 0.85098, 0.0, 1.0 ],
					"id" : "obj-28",
					"coldcolor" : [ 0.0, 0.658824, 0.0, 1.0 ],
					"numoutlets" : 1,
					"bgcolor" : [ 0.403922, 0.403922, 0.403922, 1.0 ]
				}

			}
, 			{
				"box" : 				{
					"maxclass" : "meter~",
					"outlettype" : [ "float" ],
					"tepidcolor" : [ 0.6, 0.729412, 0.0, 1.0 ],
					"patching_rect" : [ 165.0, 380.0, 13.0, 77.0 ],
					"numinlets" : 1,
					"warmcolor" : [ 0.85098, 0.85098, 0.0, 1.0 ],
					"id" : "obj-29",
					"coldcolor" : [ 0.0, 0.658824, 0.0, 1.0 ],
					"numoutlets" : 1,
					"bgcolor" : [ 0.403922, 0.403922, 0.403922, 1.0 ]
				}

			}
, 			{
				"box" : 				{
					"maxclass" : "meter~",
					"outlettype" : [ "float" ],
					"tepidcolor" : [ 0.6, 0.729412, 0.0, 1.0 ],
					"patching_rect" : [ 150.0, 380.0, 13.0, 77.0 ],
					"numinlets" : 1,
					"warmcolor" : [ 0.85098, 0.85098, 0.0, 1.0 ],
					"id" : "obj-30",
					"coldcolor" : [ 0.0, 0.658824, 0.0, 1.0 ],
					"numoutlets" : 1,
					"bgcolor" : [ 0.403922, 0.403922, 0.403922, 1.0 ]
				}

			}
, 			{
				"box" : 				{
					"maxclass" : "comment",
					"text" : "NOTE: Changes in channel offset only take effext the next time audio is started.",
					"linecount" : 2,
					"fontsize" : 10.0,
					"frgb" : [ 0.337255, 0.356863, 0.690196, 1.0 ],
					"patching_rect" : [ 25.0, 80.0, 219.0, 31.0 ],
					"numinlets" : 1,
					"id" : "obj-31",
					"fontname" : "Verdana",
					"numoutlets" : 0
				}

			}
 ],
		"lines" : [ 			{
				"patchline" : 				{
					"source" : [ "obj-12", 0 ],
					"destination" : [ "obj-13", 0 ],
					"hidden" : 0,
					"midpoints" : [ 49.5, 248.0, 147.5, 248.0 ]
				}

			}
, 			{
				"patchline" : 				{
					"source" : [ "obj-13", 1 ],
					"destination" : [ "obj-30", 0 ],
					"hidden" : 0,
					"midpoints" : [  ]
				}

			}
, 			{
				"patchline" : 				{
					"source" : [ "obj-13", 2 ],
					"destination" : [ "obj-29", 0 ],
					"hidden" : 0,
					"midpoints" : [  ]
				}

			}
, 			{
				"patchline" : 				{
					"source" : [ "obj-13", 3 ],
					"destination" : [ "obj-28", 0 ],
					"hidden" : 0,
					"midpoints" : [  ]
				}

			}
, 			{
				"patchline" : 				{
					"source" : [ "obj-13", 4 ],
					"destination" : [ "obj-27", 0 ],
					"hidden" : 0,
					"midpoints" : [  ]
				}

			}
, 			{
				"patchline" : 				{
					"source" : [ "obj-13", 5 ],
					"destination" : [ "obj-26", 0 ],
					"hidden" : 0,
					"midpoints" : [  ]
				}

			}
, 			{
				"patchline" : 				{
					"source" : [ "obj-13", 6 ],
					"destination" : [ "obj-25", 0 ],
					"hidden" : 0,
					"midpoints" : [  ]
				}

			}
, 			{
				"patchline" : 				{
					"source" : [ "obj-13", 7 ],
					"destination" : [ "obj-24", 0 ],
					"hidden" : 0,
					"midpoints" : [  ]
				}

			}
, 			{
				"patchline" : 				{
					"source" : [ "obj-13", 8 ],
					"destination" : [ "obj-23", 0 ],
					"hidden" : 0,
					"midpoints" : [  ]
				}

			}
, 			{
				"patchline" : 				{
					"source" : [ "obj-13", 9 ],
					"destination" : [ "obj-22", 0 ],
					"hidden" : 0,
					"midpoints" : [  ]
				}

			}
, 			{
				"patchline" : 				{
					"source" : [ "obj-13", 10 ],
					"destination" : [ "obj-21", 0 ],
					"hidden" : 0,
					"midpoints" : [  ]
				}

			}
, 			{
				"patchline" : 				{
					"source" : [ "obj-13", 11 ],
					"destination" : [ "obj-20", 0 ],
					"hidden" : 0,
					"midpoints" : [  ]
				}

			}
, 			{
				"patchline" : 				{
					"source" : [ "obj-13", 12 ],
					"destination" : [ "obj-19", 0 ],
					"hidden" : 0,
					"midpoints" : [  ]
				}

			}
, 			{
				"patchline" : 				{
					"source" : [ "obj-13", 13 ],
					"destination" : [ "obj-18", 0 ],
					"hidden" : 0,
					"midpoints" : [  ]
				}

			}
, 			{
				"patchline" : 				{
					"source" : [ "obj-13", 14 ],
					"destination" : [ "obj-17", 0 ],
					"hidden" : 0,
					"midpoints" : [  ]
				}

			}
, 			{
				"patchline" : 				{
					"source" : [ "obj-13", 15 ],
					"destination" : [ "obj-16", 0 ],
					"hidden" : 0,
					"midpoints" : [  ]
				}

			}
, 			{
				"patchline" : 				{
					"source" : [ "obj-13", 16 ],
					"destination" : [ "obj-15", 0 ],
					"hidden" : 0,
					"midpoints" : [  ]
				}

			}
, 			{
				"patchline" : 				{
					"source" : [ "obj-5", 0 ],
					"destination" : [ "obj-13", 1 ],
					"hidden" : 0,
					"midpoints" : [ 164.5, 247.0, 428.5, 247.0 ]
				}

			}
, 			{
				"patchline" : 				{
					"source" : [ "obj-4", 0 ],
					"destination" : [ "obj-5", 5 ],
					"hidden" : 0,
					"midpoints" : [  ]
				}

			}
, 			{
				"patchline" : 				{
					"source" : [ "obj-1", 1 ],
					"destination" : [ "obj-2", 0 ],
					"hidden" : 1,
					"midpoints" : [  ]
				}

			}
, 			{
				"patchline" : 				{
					"source" : [ "obj-3", 0 ],
					"destination" : [ "obj-14", 0 ],
					"hidden" : 0,
					"midpoints" : [  ]
				}

			}
, 			{
				"patchline" : 				{
					"source" : [ "obj-2", 0 ],
					"destination" : [ "obj-14", 0 ],
					"hidden" : 0,
					"midpoints" : [ 124.5, 503.0, 49.5, 503.0 ]
				}

			}
, 			{
				"patchline" : 				{
					"source" : [ "obj-12", 0 ],
					"destination" : [ "obj-1", 0 ],
					"hidden" : 1,
					"midpoints" : [  ]
				}

			}
, 			{
				"patchline" : 				{
					"source" : [ "obj-10", 0 ],
					"destination" : [ "obj-12", 0 ],
					"hidden" : 0,
					"midpoints" : [  ]
				}

			}
, 			{
				"patchline" : 				{
					"source" : [ "obj-11", 0 ],
					"destination" : [ "obj-10", 0 ],
					"hidden" : 0,
					"midpoints" : [  ]
				}

			}
, 			{
				"patchline" : 				{
					"source" : [ "obj-1", 0 ],
					"destination" : [ "obj-32", 0 ],
					"hidden" : 1,
					"midpoints" : [  ]
				}

			}
, 			{
				"patchline" : 				{
					"source" : [ "obj-32", 0 ],
					"destination" : [ "obj-3", 0 ],
					"hidden" : 1,
					"midpoints" : [  ]
				}

			}
 ]
	}

}
