{
	"patcher" : 	{
		"fileversion" : 1,
		"rect" : [ 173.0, 65.0, 889.0, 590.0 ],
		"bglocked" : 0,
		"defrect" : [ 173.0, 65.0, 889.0, 590.0 ],
		"openrect" : [ 0.0, 0.0, 0.0, 0.0 ],
		"openinpresentation" : 0,
		"default_fontsize" : 10.0,
		"default_fontface" : 0,
		"default_fontname" : "Verdana",
		"gridonopen" : 0,
		"gridsize" : [ 5.0, 5.0 ],
		"gridsnaponopen" : 0,
		"toolbarvisible" : 1,
		"boxanimatetime" : 200,
		"imprint" : 0,
		"metadata" : [  ],
		"boxes" : [ 			{
				"box" : 				{
					"maxclass" : "outlet",
					"hidden" : 1,
					"patching_rect" : [ 658.0, 339.0, 13.0, 13.0 ],
					"numinlets" : 1,
					"id" : "obj-1",
					"numoutlets" : 0,
					"comment" : "32"
				}

			}
, 			{
				"box" : 				{
					"maxclass" : "outlet",
					"hidden" : 1,
					"patching_rect" : [ 645.0, 339.0, 13.0, 13.0 ],
					"numinlets" : 1,
					"id" : "obj-2",
					"numoutlets" : 0,
					"comment" : "31"
				}

			}
, 			{
				"box" : 				{
					"maxclass" : "outlet",
					"hidden" : 1,
					"patching_rect" : [ 632.0, 339.0, 13.0, 13.0 ],
					"numinlets" : 1,
					"id" : "obj-3",
					"numoutlets" : 0,
					"comment" : "30"
				}

			}
, 			{
				"box" : 				{
					"maxclass" : "outlet",
					"hidden" : 1,
					"patching_rect" : [ 619.0, 339.0, 13.0, 13.0 ],
					"numinlets" : 1,
					"id" : "obj-4",
					"numoutlets" : 0,
					"comment" : "29"
				}

			}
, 			{
				"box" : 				{
					"maxclass" : "outlet",
					"hidden" : 1,
					"patching_rect" : [ 606.0, 339.0, 13.0, 13.0 ],
					"numinlets" : 1,
					"id" : "obj-5",
					"numoutlets" : 0,
					"comment" : "28"
				}

			}
, 			{
				"box" : 				{
					"maxclass" : "outlet",
					"hidden" : 1,
					"patching_rect" : [ 593.0, 339.0, 13.0, 13.0 ],
					"numinlets" : 1,
					"id" : "obj-6",
					"numoutlets" : 0,
					"comment" : "27"
				}

			}
, 			{
				"box" : 				{
					"maxclass" : "outlet",
					"hidden" : 1,
					"patching_rect" : [ 580.0, 339.0, 13.0, 13.0 ],
					"numinlets" : 1,
					"id" : "obj-7",
					"numoutlets" : 0,
					"comment" : "26"
				}

			}
, 			{
				"box" : 				{
					"maxclass" : "outlet",
					"hidden" : 1,
					"patching_rect" : [ 567.0, 339.0, 13.0, 13.0 ],
					"numinlets" : 1,
					"id" : "obj-8",
					"numoutlets" : 0,
					"comment" : "25"
				}

			}
, 			{
				"box" : 				{
					"maxclass" : "outlet",
					"hidden" : 1,
					"patching_rect" : [ 554.0, 339.0, 13.0, 13.0 ],
					"numinlets" : 1,
					"id" : "obj-9",
					"numoutlets" : 0,
					"comment" : "24"
				}

			}
, 			{
				"box" : 				{
					"maxclass" : "outlet",
					"hidden" : 1,
					"patching_rect" : [ 541.0, 339.0, 13.0, 13.0 ],
					"numinlets" : 1,
					"id" : "obj-10",
					"numoutlets" : 0,
					"comment" : "23"
				}

			}
, 			{
				"box" : 				{
					"maxclass" : "outlet",
					"hidden" : 1,
					"patching_rect" : [ 528.0, 339.0, 13.0, 13.0 ],
					"numinlets" : 1,
					"id" : "obj-11",
					"numoutlets" : 0,
					"comment" : "22"
				}

			}
, 			{
				"box" : 				{
					"maxclass" : "outlet",
					"hidden" : 1,
					"patching_rect" : [ 515.0, 339.0, 13.0, 13.0 ],
					"numinlets" : 1,
					"id" : "obj-12",
					"numoutlets" : 0,
					"comment" : "21"
				}

			}
, 			{
				"box" : 				{
					"maxclass" : "outlet",
					"hidden" : 1,
					"patching_rect" : [ 502.0, 339.0, 13.0, 13.0 ],
					"numinlets" : 1,
					"id" : "obj-13",
					"numoutlets" : 0,
					"comment" : "20"
				}

			}
, 			{
				"box" : 				{
					"maxclass" : "outlet",
					"hidden" : 1,
					"patching_rect" : [ 489.0, 339.0, 13.0, 13.0 ],
					"numinlets" : 1,
					"id" : "obj-14",
					"numoutlets" : 0,
					"comment" : "19"
				}

			}
, 			{
				"box" : 				{
					"maxclass" : "outlet",
					"hidden" : 1,
					"patching_rect" : [ 476.0, 339.0, 13.0, 13.0 ],
					"numinlets" : 1,
					"id" : "obj-15",
					"numoutlets" : 0,
					"comment" : "18"
				}

			}
, 			{
				"box" : 				{
					"maxclass" : "outlet",
					"hidden" : 1,
					"patching_rect" : [ 463.0, 339.0, 13.0, 13.0 ],
					"numinlets" : 1,
					"id" : "obj-16",
					"numoutlets" : 0,
					"comment" : "17"
				}

			}
, 			{
				"box" : 				{
					"maxclass" : "message",
					"text" : "preset/store 1 default, preset/write",
					"outlettype" : [ "" ],
					"fontsize" : 10.0,
					"hidden" : 1,
					"patching_rect" : [ 223.0, 120.0, 179.0, 15.0 ],
					"numinlets" : 2,
					"id" : "obj-17",
					"fontname" : "Verdana",
					"numoutlets" : 1
				}

			}
, 			{
				"box" : 				{
					"maxclass" : "newobj",
					"text" : "jcom.in",
					"outlettype" : [ "", "" ],
					"fontsize" : 10.0,
					"hidden" : 1,
					"patching_rect" : [ 143.0, 204.0, 43.0, 17.0 ],
					"numinlets" : 1,
					"id" : "obj-18",
					"fontname" : "Verdana",
					"numoutlets" : 2
				}

			}
, 			{
				"box" : 				{
					"maxclass" : "newobj",
					"text" : "jcom.pass open",
					"outlettype" : [ "", "" ],
					"fontsize" : 10.0,
					"hidden" : 1,
					"patching_rect" : [ 143.0, 227.0, 84.0, 17.0 ],
					"numinlets" : 1,
					"id" : "obj-19",
					"fontname" : "Verdana",
					"numoutlets" : 2
				}

			}
, 			{
				"box" : 				{
					"maxclass" : "newobj",
					"text" : "pcontrol",
					"outlettype" : [ "" ],
					"fontsize" : 10.0,
					"hidden" : 1,
					"patching_rect" : [ 143.0, 252.0, 47.0, 17.0 ],
					"numinlets" : 1,
					"id" : "obj-20",
					"fontname" : "Verdana",
					"numoutlets" : 1
				}

			}
, 			{
				"box" : 				{
					"maxclass" : "outlet",
					"hidden" : 1,
					"patching_rect" : [ 450.0, 339.0, 13.0, 13.0 ],
					"numinlets" : 1,
					"id" : "obj-21",
					"numoutlets" : 0,
					"comment" : "16"
				}

			}
, 			{
				"box" : 				{
					"maxclass" : "outlet",
					"hidden" : 1,
					"patching_rect" : [ 437.0, 339.0, 13.0, 13.0 ],
					"numinlets" : 1,
					"id" : "obj-22",
					"numoutlets" : 0,
					"comment" : "15"
				}

			}
, 			{
				"box" : 				{
					"maxclass" : "outlet",
					"hidden" : 1,
					"patching_rect" : [ 424.0, 339.0, 13.0, 13.0 ],
					"numinlets" : 1,
					"id" : "obj-23",
					"numoutlets" : 0,
					"comment" : "14"
				}

			}
, 			{
				"box" : 				{
					"maxclass" : "outlet",
					"hidden" : 1,
					"patching_rect" : [ 411.0, 339.0, 13.0, 13.0 ],
					"numinlets" : 1,
					"id" : "obj-24",
					"numoutlets" : 0,
					"comment" : "13"
				}

			}
, 			{
				"box" : 				{
					"maxclass" : "outlet",
					"hidden" : 1,
					"patching_rect" : [ 398.0, 339.0, 13.0, 13.0 ],
					"numinlets" : 1,
					"id" : "obj-25",
					"numoutlets" : 0,
					"comment" : "12"
				}

			}
, 			{
				"box" : 				{
					"maxclass" : "outlet",
					"hidden" : 1,
					"patching_rect" : [ 385.0, 339.0, 13.0, 13.0 ],
					"numinlets" : 1,
					"id" : "obj-26",
					"numoutlets" : 0,
					"comment" : "11"
				}

			}
, 			{
				"box" : 				{
					"maxclass" : "outlet",
					"hidden" : 1,
					"patching_rect" : [ 372.0, 339.0, 13.0, 13.0 ],
					"numinlets" : 1,
					"id" : "obj-27",
					"numoutlets" : 0,
					"comment" : "10"
				}

			}
, 			{
				"box" : 				{
					"maxclass" : "outlet",
					"hidden" : 1,
					"patching_rect" : [ 359.0, 339.0, 13.0, 13.0 ],
					"numinlets" : 1,
					"id" : "obj-28",
					"numoutlets" : 0,
					"comment" : "9"
				}

			}
, 			{
				"box" : 				{
					"maxclass" : "outlet",
					"hidden" : 1,
					"patching_rect" : [ 346.0, 339.0, 13.0, 13.0 ],
					"numinlets" : 1,
					"id" : "obj-29",
					"numoutlets" : 0,
					"comment" : "8"
				}

			}
, 			{
				"box" : 				{
					"maxclass" : "outlet",
					"hidden" : 1,
					"patching_rect" : [ 333.0, 339.0, 13.0, 13.0 ],
					"numinlets" : 1,
					"id" : "obj-30",
					"numoutlets" : 0,
					"comment" : "7"
				}

			}
, 			{
				"box" : 				{
					"maxclass" : "outlet",
					"hidden" : 1,
					"patching_rect" : [ 320.0, 339.0, 13.0, 13.0 ],
					"numinlets" : 1,
					"id" : "obj-31",
					"numoutlets" : 0,
					"comment" : "6"
				}

			}
, 			{
				"box" : 				{
					"maxclass" : "outlet",
					"hidden" : 1,
					"patching_rect" : [ 307.0, 339.0, 13.0, 13.0 ],
					"numinlets" : 1,
					"id" : "obj-32",
					"numoutlets" : 0,
					"comment" : "5"
				}

			}
, 			{
				"box" : 				{
					"maxclass" : "outlet",
					"hidden" : 1,
					"patching_rect" : [ 294.0, 339.0, 13.0, 13.0 ],
					"numinlets" : 1,
					"id" : "obj-33",
					"numoutlets" : 0,
					"comment" : "4"
				}

			}
, 			{
				"box" : 				{
					"maxclass" : "outlet",
					"hidden" : 1,
					"patching_rect" : [ 281.0, 339.0, 13.0, 13.0 ],
					"numinlets" : 1,
					"id" : "obj-34",
					"numoutlets" : 0,
					"comment" : "3"
				}

			}
, 			{
				"box" : 				{
					"maxclass" : "outlet",
					"hidden" : 1,
					"patching_rect" : [ 268.0, 339.0, 13.0, 13.0 ],
					"numinlets" : 1,
					"id" : "obj-35",
					"numoutlets" : 0,
					"comment" : "2"
				}

			}
, 			{
				"box" : 				{
					"maxclass" : "message",
					"text" : "/documentation/generate",
					"outlettype" : [ "" ],
					"fontsize" : 10.0,
					"hidden" : 1,
					"patching_rect" : [ 96.0, 120.0, 125.0, 15.0 ],
					"numinlets" : 2,
					"id" : "obj-36",
					"fontname" : "Verdana",
					"numoutlets" : 1
				}

			}
, 			{
				"box" : 				{
					"maxclass" : "message",
					"text" : ";\rmax refresh",
					"linecount" : 2,
					"outlettype" : [ "" ],
					"fontsize" : 10.0,
					"hidden" : 1,
					"patching_rect" : [ 73.0, 414.0, 65.0, 26.0 ],
					"numinlets" : 2,
					"id" : "obj-37",
					"fontname" : "Verdana",
					"numoutlets" : 1
				}

			}
, 			{
				"box" : 				{
					"maxclass" : "newobj",
					"text" : "pvar Offset",
					"outlettype" : [ "" ],
					"fontsize" : 10.0,
					"hidden" : 1,
					"patching_rect" : [ 268.0, 38.0, 62.0, 17.0 ],
					"numinlets" : 1,
					"id" : "obj-38",
					"fontname" : "Verdana",
					"numoutlets" : 1
				}

			}
, 			{
				"box" : 				{
					"maxclass" : "newobj",
					"varname" : "jcom.hub",
					"text" : "jcom.hub jmod.sur.multi.out~ @size 1U-half @module_type audio.no_panel @description \"Pack up to 32 mono signals onto a multi cable.\"",
					"linecount" : 2,
					"outlettype" : [ "", "" ],
					"fontsize" : 10.0,
					"hidden" : 1,
					"patching_rect" : [ 0.0, 142.0, 354.0, 28.0 ],
					"numinlets" : 1,
					"id" : "obj-39",
					"fontname" : "Verdana",
					"numoutlets" : 2
				}

			}
, 			{
				"box" : 				{
					"maxclass" : "comment",
					"text" : "command input",
					"fontsize" : 10.0,
					"hidden" : 1,
					"frgb" : [ 0.337255, 0.356863, 0.690196, 1.0 ],
					"patching_rect" : [ 14.0, 121.0, 79.0, 17.0 ],
					"numinlets" : 1,
					"id" : "obj-40",
					"fontname" : "Verdana",
					"numoutlets" : 0
				}

			}
, 			{
				"box" : 				{
					"maxclass" : "inlet",
					"outlettype" : [ "" ],
					"hidden" : 1,
					"patching_rect" : [ 0.0, 121.0, 13.0, 13.0 ],
					"numinlets" : 0,
					"id" : "obj-41",
					"numoutlets" : 1,
					"comment" : ""
				}

			}
, 			{
				"box" : 				{
					"maxclass" : "message",
					"text" : ";\rjcom.init bang",
					"linecount" : 2,
					"outlettype" : [ "" ],
					"fontsize" : 10.0,
					"hidden" : 1,
					"patching_rect" : [ 73.0, 382.0, 73.0, 26.0 ],
					"numinlets" : 2,
					"id" : "obj-42",
					"fontname" : "Verdana",
					"numoutlets" : 1
				}

			}
, 			{
				"box" : 				{
					"maxclass" : "inlet",
					"outlettype" : [ "" ],
					"hidden" : 1,
					"patching_rect" : [ 662.0, 175.0, 13.0, 13.0 ],
					"numinlets" : 0,
					"id" : "obj-43",
					"numoutlets" : 1,
					"comment" : ""
				}

			}
, 			{
				"box" : 				{
					"maxclass" : "outlet",
					"hidden" : 1,
					"patching_rect" : [ 255.0, 339.0, 13.0, 13.0 ],
					"numinlets" : 1,
					"id" : "obj-44",
					"numoutlets" : 0,
					"comment" : "1"
				}

			}
, 			{
				"box" : 				{
					"maxclass" : "newobj",
					"varname" : "channel_offset",
					"text" : "jcom.parameter channel_offset @type msg_int @repetitions 1 @range 0 64 @range/clipmode low @description \"Set channel offset for signals. Only take effect the next time audio is started.\"",
					"linecount" : 3,
					"outlettype" : [ "", "", "" ],
					"fontsize" : 10.0,
					"hidden" : 1,
					"patching_rect" : [ 268.0, 63.0, 313.0, 39.0 ],
					"numinlets" : 1,
					"id" : "obj-45",
					"fontname" : "Verdana",
					"numoutlets" : 3
				}

			}
, 			{
				"box" : 				{
					"maxclass" : "number",
					"varname" : "Offset",
					"outlettype" : [ "int", "bang" ],
					"maximum" : 31,
					"fontsize" : 10.0,
					"bordercolor" : [ 1.0, 1.0, 1.0, 0.0 ],
					"textcolor" : [ 0.776471, 0.776471, 0.776471, 1.0 ],
					"triangle" : 0,
					"patching_rect" : [ 93.0, 26.0, 35.0, 17.0 ],
					"numinlets" : 1,
					"id" : "obj-46",
					"fontname" : "Verdana",
					"hbgcolor" : [ 1.0, 1.0, 1.0, 0.0 ],
					"numoutlets" : 2,
					"bgcolor" : [ 1.0, 1.0, 1.0, 0.0 ],
					"minimum" : -31,
					"htextcolor" : [ 0.870588, 0.870588, 0.870588, 1.0 ],
					"triscale" : 0.9
				}

			}
, 			{
				"box" : 				{
					"maxclass" : "comment",
					"text" : "Channel offset",
					"fontsize" : 10.0,
					"textcolor" : [ 0.67451, 0.67451, 0.67451, 1.0 ],
					"frgb" : [ 0.67451, 0.67451, 0.67451, 1.0 ],
					"patching_rect" : [ 16.0, 27.0, 74.0, 17.0 ],
					"numinlets" : 1,
					"id" : "obj-47",
					"fontname" : "Verdana",
					"numoutlets" : 0
				}

			}
, 			{
				"box" : 				{
					"maxclass" : "comment",
					"text" : "--- multi channel signal input ---",
					"fontsize" : 10.0,
					"hidden" : 1,
					"frgb" : [ 0.337255, 0.356863, 0.690196, 1.0 ],
					"patching_rect" : [ 421.0, 135.0, 169.0, 17.0 ],
					"numinlets" : 1,
					"id" : "obj-48",
					"fontname" : "Verdana",
					"numoutlets" : 0
				}

			}
, 			{
				"box" : 				{
					"maxclass" : "outlet",
					"hidden" : 1,
					"patching_rect" : [ 0.0, 229.0, 13.0, 13.0 ],
					"numinlets" : 1,
					"id" : "obj-49",
					"numoutlets" : 0,
					"comment" : ""
				}

			}
, 			{
				"box" : 				{
					"maxclass" : "comment",
					"text" : "--- signal outputs ---",
					"fontsize" : 10.0,
					"hidden" : 1,
					"frgb" : [ 0.337255, 0.356863, 0.690196, 1.0 ],
					"patching_rect" : [ 252.0, 367.0, 167.0, 17.0 ],
					"numinlets" : 1,
					"id" : "obj-50",
					"fontname" : "Verdana",
					"numoutlets" : 0
				}

			}
, 			{
				"box" : 				{
					"maxclass" : "newobj",
					"text" : "jalg.sur.multi.out~",
					"outlettype" : [ "", "", "", "", "", "", "", "", "", "", "", "", "", "", "", "", "", "", "", "", "", "", "", "", "", "", "", "", "", "", "", "" ],
					"fontsize" : 10.0,
					"hidden" : 1,
					"patching_rect" : [ 255.0, 306.0, 417.0, 17.0 ],
					"numinlets" : 2,
					"id" : "obj-51",
					"fontname" : "Verdana",
					"numoutlets" : 32
				}

			}
, 			{
				"box" : 				{
					"maxclass" : "bpatcher",
					"varname" : "jcom.gui.1Uh.a.stereo",
					"lockeddragscroll" : 1,
					"patching_rect" : [ 0.0, 0.0, 256.0, 60.0 ],
					"args" : [  ],
					"numinlets" : 0,
					"id" : "obj-52",
					"name" : "jcom.gui.mxt",
					"numoutlets" : 0
				}

			}
 ],
		"lines" : [ 			{
				"patchline" : 				{
					"source" : [ "obj-43", 0 ],
					"destination" : [ "obj-51", 1 ],
					"hidden" : 1,
					"midpoints" : [  ]
				}

			}
, 			{
				"patchline" : 				{
					"source" : [ "obj-51", 31 ],
					"destination" : [ "obj-1", 0 ],
					"hidden" : 1,
					"midpoints" : [  ]
				}

			}
, 			{
				"patchline" : 				{
					"source" : [ "obj-51", 30 ],
					"destination" : [ "obj-2", 0 ],
					"hidden" : 1,
					"midpoints" : [  ]
				}

			}
, 			{
				"patchline" : 				{
					"source" : [ "obj-51", 29 ],
					"destination" : [ "obj-3", 0 ],
					"hidden" : 1,
					"midpoints" : [  ]
				}

			}
, 			{
				"patchline" : 				{
					"source" : [ "obj-51", 28 ],
					"destination" : [ "obj-4", 0 ],
					"hidden" : 1,
					"midpoints" : [  ]
				}

			}
, 			{
				"patchline" : 				{
					"source" : [ "obj-51", 27 ],
					"destination" : [ "obj-5", 0 ],
					"hidden" : 1,
					"midpoints" : [  ]
				}

			}
, 			{
				"patchline" : 				{
					"source" : [ "obj-51", 26 ],
					"destination" : [ "obj-6", 0 ],
					"hidden" : 1,
					"midpoints" : [  ]
				}

			}
, 			{
				"patchline" : 				{
					"source" : [ "obj-51", 25 ],
					"destination" : [ "obj-7", 0 ],
					"hidden" : 1,
					"midpoints" : [  ]
				}

			}
, 			{
				"patchline" : 				{
					"source" : [ "obj-51", 24 ],
					"destination" : [ "obj-8", 0 ],
					"hidden" : 1,
					"midpoints" : [  ]
				}

			}
, 			{
				"patchline" : 				{
					"source" : [ "obj-51", 23 ],
					"destination" : [ "obj-9", 0 ],
					"hidden" : 1,
					"midpoints" : [  ]
				}

			}
, 			{
				"patchline" : 				{
					"source" : [ "obj-51", 22 ],
					"destination" : [ "obj-10", 0 ],
					"hidden" : 1,
					"midpoints" : [  ]
				}

			}
, 			{
				"patchline" : 				{
					"source" : [ "obj-51", 21 ],
					"destination" : [ "obj-11", 0 ],
					"hidden" : 1,
					"midpoints" : [  ]
				}

			}
, 			{
				"patchline" : 				{
					"source" : [ "obj-51", 20 ],
					"destination" : [ "obj-12", 0 ],
					"hidden" : 1,
					"midpoints" : [  ]
				}

			}
, 			{
				"patchline" : 				{
					"source" : [ "obj-51", 19 ],
					"destination" : [ "obj-13", 0 ],
					"hidden" : 1,
					"midpoints" : [  ]
				}

			}
, 			{
				"patchline" : 				{
					"source" : [ "obj-51", 18 ],
					"destination" : [ "obj-14", 0 ],
					"hidden" : 1,
					"midpoints" : [  ]
				}

			}
, 			{
				"patchline" : 				{
					"source" : [ "obj-51", 17 ],
					"destination" : [ "obj-15", 0 ],
					"hidden" : 1,
					"midpoints" : [  ]
				}

			}
, 			{
				"patchline" : 				{
					"source" : [ "obj-51", 16 ],
					"destination" : [ "obj-16", 0 ],
					"hidden" : 1,
					"midpoints" : [  ]
				}

			}
, 			{
				"patchline" : 				{
					"source" : [ "obj-51", 15 ],
					"destination" : [ "obj-21", 0 ],
					"hidden" : 1,
					"midpoints" : [  ]
				}

			}
, 			{
				"patchline" : 				{
					"source" : [ "obj-51", 14 ],
					"destination" : [ "obj-22", 0 ],
					"hidden" : 1,
					"midpoints" : [  ]
				}

			}
, 			{
				"patchline" : 				{
					"source" : [ "obj-51", 13 ],
					"destination" : [ "obj-23", 0 ],
					"hidden" : 1,
					"midpoints" : [  ]
				}

			}
, 			{
				"patchline" : 				{
					"source" : [ "obj-51", 12 ],
					"destination" : [ "obj-24", 0 ],
					"hidden" : 1,
					"midpoints" : [  ]
				}

			}
, 			{
				"patchline" : 				{
					"source" : [ "obj-51", 11 ],
					"destination" : [ "obj-25", 0 ],
					"hidden" : 1,
					"midpoints" : [  ]
				}

			}
, 			{
				"patchline" : 				{
					"source" : [ "obj-51", 10 ],
					"destination" : [ "obj-26", 0 ],
					"hidden" : 1,
					"midpoints" : [  ]
				}

			}
, 			{
				"patchline" : 				{
					"source" : [ "obj-51", 9 ],
					"destination" : [ "obj-27", 0 ],
					"hidden" : 1,
					"midpoints" : [  ]
				}

			}
, 			{
				"patchline" : 				{
					"source" : [ "obj-51", 8 ],
					"destination" : [ "obj-28", 0 ],
					"hidden" : 1,
					"midpoints" : [  ]
				}

			}
, 			{
				"patchline" : 				{
					"source" : [ "obj-51", 7 ],
					"destination" : [ "obj-29", 0 ],
					"hidden" : 1,
					"midpoints" : [  ]
				}

			}
, 			{
				"patchline" : 				{
					"source" : [ "obj-51", 6 ],
					"destination" : [ "obj-30", 0 ],
					"hidden" : 1,
					"midpoints" : [  ]
				}

			}
, 			{
				"patchline" : 				{
					"source" : [ "obj-51", 5 ],
					"destination" : [ "obj-31", 0 ],
					"hidden" : 1,
					"midpoints" : [  ]
				}

			}
, 			{
				"patchline" : 				{
					"source" : [ "obj-51", 4 ],
					"destination" : [ "obj-32", 0 ],
					"hidden" : 1,
					"midpoints" : [  ]
				}

			}
, 			{
				"patchline" : 				{
					"source" : [ "obj-51", 3 ],
					"destination" : [ "obj-33", 0 ],
					"hidden" : 1,
					"midpoints" : [  ]
				}

			}
, 			{
				"patchline" : 				{
					"source" : [ "obj-51", 2 ],
					"destination" : [ "obj-34", 0 ],
					"hidden" : 1,
					"midpoints" : [  ]
				}

			}
, 			{
				"patchline" : 				{
					"source" : [ "obj-51", 1 ],
					"destination" : [ "obj-35", 0 ],
					"hidden" : 1,
					"midpoints" : [  ]
				}

			}
, 			{
				"patchline" : 				{
					"source" : [ "obj-38", 0 ],
					"destination" : [ "obj-45", 0 ],
					"hidden" : 1,
					"midpoints" : [  ]
				}

			}
, 			{
				"patchline" : 				{
					"source" : [ "obj-45", 0 ],
					"destination" : [ "obj-38", 0 ],
					"hidden" : 1,
					"midpoints" : [ 277.5, 109.0, 262.0, 109.0, 262.0, 31.0, 277.5, 31.0 ]
				}

			}
, 			{
				"patchline" : 				{
					"source" : [ "obj-51", 0 ],
					"destination" : [ "obj-44", 0 ],
					"hidden" : 1,
					"midpoints" : [  ]
				}

			}
, 			{
				"patchline" : 				{
					"source" : [ "obj-20", 0 ],
					"destination" : [ "obj-51", 0 ],
					"hidden" : 1,
					"midpoints" : [  ]
				}

			}
, 			{
				"patchline" : 				{
					"source" : [ "obj-19", 1 ],
					"destination" : [ "obj-51", 0 ],
					"hidden" : 1,
					"midpoints" : [  ]
				}

			}
, 			{
				"patchline" : 				{
					"source" : [ "obj-19", 0 ],
					"destination" : [ "obj-20", 0 ],
					"hidden" : 1,
					"midpoints" : [  ]
				}

			}
, 			{
				"patchline" : 				{
					"source" : [ "obj-18", 0 ],
					"destination" : [ "obj-19", 0 ],
					"hidden" : 1,
					"midpoints" : [  ]
				}

			}
, 			{
				"patchline" : 				{
					"source" : [ "obj-39", 0 ],
					"destination" : [ "obj-49", 0 ],
					"hidden" : 1,
					"midpoints" : [  ]
				}

			}
, 			{
				"patchline" : 				{
					"source" : [ "obj-36", 0 ],
					"destination" : [ "obj-39", 0 ],
					"hidden" : 1,
					"midpoints" : [ 105.5, 137.0, 9.5, 137.0 ]
				}

			}
, 			{
				"patchline" : 				{
					"source" : [ "obj-41", 0 ],
					"destination" : [ "obj-39", 0 ],
					"hidden" : 1,
					"midpoints" : [  ]
				}

			}
, 			{
				"patchline" : 				{
					"source" : [ "obj-17", 0 ],
					"destination" : [ "obj-39", 0 ],
					"hidden" : 1,
					"midpoints" : [ 232.5, 137.0, 9.5, 137.0 ]
				}

			}
 ]
	}

}
