max v2;#N vpatcher 213 167 1198 722;#P window setfont "Sans Serif" 9.;#P message 347 210 331 196617 @size 1U-half @module_type audio @description "Stereo echo module.";#P comment 6 46 97 196617 Phase offset (0-1);#B frgb 149 149 149;#P window linecount 3;#P newex 467 140 292 196617 jcom.parameter tremolo/phase_offset @type msg_float @range 0. 1. @clipmode none @ramp linear.sched @description "LFO phase offset between left and right channels (0-1).";#P objectname tremolo/phase_offset;#P window linecount 1;#P newex 467 118 88 196617 pvar PhaseOffset;#P flonum 118 45 40 9 0 0 8224 3 181 181 181 221 221 221 255 255 255 0 0 0;#P objectname PhaseOffset;#P flonum 118 31 40 9 0. 100. 8227 3 181 181 181 221 221 221 255 255 255 0 0 0;#P objectname Depth;#P newex 467 71 190 196617 jcom.class.lfo_parameters.mxt tremolo;#P objectname jcom.class.lfo_parameters;#P newex 378 307 47 196617 pcontrol;#P newex 245 283 143 196617 jcom.algorithm_control~.mxt;#P message 105 78 191 196617 /preset/store 1 default \, /preset/write;#B color 3;#P newex 133 379 65 196617 jcom.out~ 2;#P newex 133 260 180 196617 jcom.in~ 2;#P message 113 100 125 196617 /documentation/generate;#B color 3;#P window linecount 2;#P message 98 178 65 196617 \; max refresh;#P window linecount 1;#P newex 647 49 59 196617 pvar Depth;#P newex 467 49 80 196617 pvar Frequency;#P window linecount 2;#P newex 15 134 257 196617 jcom.hub jmod.tremolo~ @size 1U-half @module_type audio @description "Apply tremolo to incoming signal.";#P objectname jcom.hub;#P window linecount 1;#P comment 29 101 79 196617 command input;#P inlet 15 101 13 0;#P message 244 100 31 196617 /init;#P inlet 133 231 13 0;#P outlet 133 408 13 0;#P flonum 118 17 40 9 0. 0 8225 3 181 181 181 221 221 221 255 255 255 0 0 0;#P objectname Frequency;#P inlet 303 233 13 0;#P comment 6 33 74 196617 LFO Depth (%);#B frgb 149 149 149;#P comment 6 20 97 196617 LFO Frequency (Hz);#B frgb 149 149 149;#P newex 78 346 120 196617 jalg.tremolo~.mxt;#P comment 169 232 105 196617 ----signal inputs----;#P outlet 15 177 13 0;#P outlet 161 408 13 0;#P comment 106 426 101 196617 ---signal outputs---;#P bpatcher 0 0 256 60 0 0 jcom.gui.mxt 0 $0_;#P objectname jmod.gui.1Uh.a.stereo.mxt;#P fasten 12 0 15 0 249 122 20 122;#P fasten 19 0 15 0 118 121 20 121;#P connect 13 0 15 0;#P fasten 22 0 15 0 110 121 20 121;#P connect 15 0 3 0;#P fasten 24 0 5 0 383 335 83 335;#P fasten 23 0 5 0 250 335 83 335;#P connect 11 0 20 0;#P connect 20 0 5 1;#P connect 5 1 21 0;#P connect 21 0 10 0;#P connect 21 1 2 0;#P connect 20 1 5 2;#P connect 5 2 21 1;#P connect 20 2 23 0;#P connect 8 0 20 1;#P connect 23 1 24 0;#P fasten 25 0 16 0 472 97 455 97 455 42 472 42;#P connect 16 0 25 0;#P fasten 29 0 28 0 472 185 454 185 454 111 472 111;#P connect 28 0 29 0;#P fasten 25 1 17 0 652 102 725 102 725 41 652 41;#P connect 17 0 25 1;#P pop;