max v2;
#N vpatcher 89 153 808 603;
#P origin -47 0;
#P window setfont "Sans Serif" 9.;
#P window linecount 1;
#P newex 30 130 256 196617 jcom.oscroute /attack /release /threshold /lookahead;
#P outlet 32 380 15 0;
#P outlet 434 380 15 0;
#P outlet 377 380 15 0;
#P inlet 377 98 15 0;
#P inlet 434 98 15 0;
#P inlet 30 98 15 0;
#P newex 596 352 40 196617 change;
#P newex 434 181 54 196617 delay~ 10;
#P newex 434 351 27 196617 *~;
#P newex 596 330 69 196617 snapshot~ 40;
#P newex 377 181 54 196617 delay~ 10;
#P newex 377 351 27 196617 *~;
#P newex 237 187 33 196617 dbtoa;
#P newex 512 248 106 196617 >~ 0.;
#P newex 512 157 118 196617 average~ 1000 absolute;
#P newex 102 179 65 196617 mstosamps~;
#P newex 30 179 65 196617 mstosamps~;
#P message 157 218 70 196617 rampdown \$1;
#P message 85 218 55 196617 rampup \$1;
#P newex 512 301 70 196617 rampsmooth~;
#P window setfont "Sans Serif" 12.;
#P comment 33 39 125 196620 Noise gate - stereo;
#P window setfont "Sans Serif" 9.;
#P newex 596 374 72 196617 s $1_monitor;
#P connect 16 0 22 0;
#P connect 22 0 5 0;
#P connect 5 1 3 0;
#P connect 22 1 6 0;
#P connect 6 1 4 0;
#P connect 22 2 9 0;
#P connect 18 0 11 0;
#P connect 11 0 10 0;
#P connect 10 0 19 0;
#P connect 2 0 10 1;
#P connect 22 3 11 1;
#P connect 17 0 14 0;
#P connect 14 0 13 0;
#P connect 13 0 20 0;
#P connect 2 0 13 1;
#P connect 22 3 14 1;
#P connect 18 0 7 0;
#P connect 17 0 7 0;
#P connect 7 0 8 0;
#P connect 8 0 2 0;
#P fasten 4 0 2 0 162 294 517 294;
#P fasten 3 0 2 0 90 296 517 296;
#P fasten 8 0 12 0 517 284 601 284;
#P connect 12 0 15 0;
#P connect 15 0 0 0;
#P fasten 9 0 8 1 242 213 613 213;
#P pop;
