max v2;#N vpatcher 127 44 1280 800;#P origin 23 14;#P window setfont "Sans Serif" 10.;#P window linecount 1;#N vpatcher 588 72 953 440;#P window setfont "Sans Serif" 10.;#P window linecount 3;#P comment 5 297 338 196618 ¥ "buffer" allows use of external buffer specified by name (i.e. "buffer name)." command "buffer" reverts to internal buffer (default).;#P window linecount 4;#P comment 5 232 338 196618 ¥ "oneshot" sends a note with pitch \, duration \, amplitude and an ADSR. Experiment with values to gain better understanding of this one. When oneshot is on \, the regular output is disabled.;#P comment 6 156 338 196618 ¥ "discretepan" 0-1. 0 adds the same grain to every output channel with varied amplitude (provided random value is set (see spatialize which has number pairs reflecting amount of randomness plus the default amplitude). 1 makes every grain channel specific.;#P window linecount 2;#P comment 7 78 338 196618 ¥ "discretepan" 0-1. 0 adds the same grain to every output channel with varied amplitude (provided random value is set (see spatialize which has number pairs reflecting amount of randomness plus the default amplitude). 1 makes every grain channel specific.;#P window linecount 0;#P comment 7 30 338 196618 ¥ "verbose" takes values 0-3: 0-off \, 1-errors and warnings only \, 2-all messages \, and 3 which adds also number of grains per second output.;#P pop;#P newobj 438 432 41 196618 p more;#P window setfont "Sans Serif" 9.;#P number 354 377 35 9 0 1 3 3 0 0 0 221 221 221 222 222 222 0 0 0;#P message 354 394 91 196617 discretepan \$1;#P number 354 456 35 9 0 1 3 3 0 0 0 221 221 221 222 222 222 0 0 0;#P message 354 474 60 196617 oneshot \$1;#P number 354 417 35 9 0 3 3 3 0 0 0 221 221 221 222 222 222 0 0 0;#P message 354 494 150 196617 note 2 4 0.5 20 50 0.9 100 1;#P message 354 434 73 196617 verbose \$1;#P message 790 614 385 196617 spatialize 0.1 0.5 0.1 0.5 0.1 0.5 0.1 0.5 0.1 0.5 0.1 0.5 0.1 0.5 0.1 0.5;#P comment 833 594 400 196617 ¥ impolitely clears the internal sample buffer;#P message 801 594 31 196617 clear;#P comment 833 576 400 196617 ¥ post the values of user controlled variables to the MAX window;#P message 801 576 31 196617 state;#P flonum 670 463 35 9 0 0 0 3 0 0 0 221 221 221 222 222 222 0 0 0;#P message 706 463 65 196617 rand_gain \$1;#P flonum 670 444 35 9 0 0 0 3 0 0 0 221 221 221 222 222 222 0 0 0;#P message 706 444 41 196617 gain \$1;#P toggle 670 350 15 0;#P flonum 670 399 35 9 0 0 0 3 0 0 0 221 221 221 222 222 222 0 0 0;#P message 670 417 58 196617 position \$1;#P message 670 368 53 196617 record \$1;#P number 670 287 35 9 -1 1 3 3 0 0 0 221 221 221 222 222 222 0 0 0;#P hidden newex 617 420 45 196617 loadbang;#P hidden newex 612 315 45 196617 loadbang;#P message 670 328 51 196617 minsize 5;#P message 670 306 92 196617 ambidirectional \$1;#P message 726 132 79 196617 maxvoices 200;#P message 669 487 40 196617 smooth;#P message 669 504 50 196617 tempered;#P message 669 557 342 196617 scale 0 -2 2 -4 4 -6 6 -8 8 -10 10 -12 12 -14 14 -16 16 -18 18 -20 20;#P message 669 539 205 196617 scale 0 4 4 4 7 7 11 11 14 18 -12 -12 -12;#P message 669 521 102 196617 scale 0 4 7 -2 12 15;#P flonum 670 240 56 9 0 0 0 3 0 0 0 221 221 221 222 222 222 0 0 0;#P message 670 261 93 196617 delaylength_ms \$1;#P toggle 670 197 15 0;#P message 670 215 51 196617 power \$1;#P comment 667 99 118 196617 send some messages....;#P number 670 157 35 9 0 0 0 3 0 0 0 221 221 221 222 222 222 0 0 0;#P number 670 113 35 9 0 0 0 3 0 0 0 221 221 221 222 222 222 0 0 0;#P message 670 132 52 196617 voices \$1;#P window linecount 2;#P comment 688 594 53 196617 grain pitch variation;#P window linecount 1;#P comment 633 594 53 196617 grain pitch;#P window linecount 2;#P comment 578 594 53 196617 grain size variation;#P comment 468 594 53 196617 grain rate variation;#P window linecount 1;#P message 670 175 65 196617 ramptime \$1;#P flonum 688 621 35 9 0. 0 1 3 0 0 0 221 221 221 222 222 222 0 0 0;#P flonum 578 621 35 9 0. 0 1 3 0 0 0 221 221 221 222 222 222 0 0 0;#P flonum 468 621 35 9 0. 0 1 3 0 0 0 221 221 221 222 222 222 0 0 0;#P flonum 743 621 35 9 0. 1. 3 3 0 0 0 221 221 221 222 222 222 0 0 0;#P flonum 633 621 35 9 0 0 0 3 0 0 0 221 221 221 222 222 222 0 0 0;#P flonum 523 621 40 9 0. 20000. 3 3 0 0 0 221 221 221 222 222 222 0 0 0;#P flonum 413 621 35 9 0 0 0 3 0 0 0 221 221 221 222 222 222 0 0 0;#P newex 358 645 401 196617 munger1~ 3000 8 55 nameme;#B color 2;#P window linecount 2;#P comment 413 594 53 196617 grain separation;#P window linecount 1;#P comment 523 594 52 196617 grain size;#P window linecount 2;#P comment 743 594 38 196617 stereo spread;#P window linecount 1;#P comment 487 580 117 196617 <-- values are in ms -->;#P comment 492 564 107 196617 PRIMARY CONTROLS;#P comment 790 631 395 196617 multichannel levels - IMPORTANT! no multichannel output will happen until this is set;#P outlet 21 684 15 0;#P inlet 1 21 15 0;#P outlet 237 684 15 0;#P inlet 217 21 15 0;#P newex 1 52 197 196617 jcom.oscroute /delay/left /delay/right;#P connect 3 0 0 0;#P connect 62 0 61 0;#P connect 58 0 56 0;#P connect 60 0 59 0;#P connect 1 0 11 0;#P hidden connect 61 0 11 0;#P hidden connect 59 0 11 0;#P hidden connect 57 0 11 0;#P hidden connect 56 0 11 0;#P hidden connect 55 0 11 0;#P hidden connect 51 0 11 0;#P hidden fasten 49 0 11 0 368 478;#P hidden fasten 47 0 11 0 368 459;#P hidden fasten 43 0 11 0 368 383;#P hidden fasten 44 0 11 0 368 432;#P hidden fasten 38 0 11 0 675 537 363 537;#P hidden fasten 24 0 11 0 675 386 363 386;#P hidden fasten 19 0 11 0 675 386 363 386;#P hidden fasten 28 0 11 0 675 386 363 386;#P hidden fasten 30 0 11 0 675 386 363 386;#P hidden fasten 32 0 11 0 674 386 363 386;#P hidden fasten 33 0 11 0 674 388 363 388;#P hidden fasten 34 0 11 0 674 386 363 386;#P hidden fasten 36 0 11 0 674 493 363 493;#P hidden fasten 35 0 11 0 674 492 363 492;#P hidden fasten 37 0 11 0 731 495 363 495;#P hidden fasten 39 0 11 0 675 536 363 536;#P hidden fasten 53 0 11 0 806 611 363 611;#P connect 12 0 11 1;#P connect 16 0 11 2;#P connect 13 0 11 3;#P connect 17 0 11 4;#P connect 14 0 11 5;#P hidden connect 40 0 32 0;#P hidden connect 25 0 24 0;#P hidden connect 26 0 19 0;#P hidden connect 29 0 28 0;#P connect 31 0 30 0;#P connect 42 0 38 0;#P hidden connect 40 0 39 0;#P connect 46 0 43 0;#P connect 45 0 44 0;#P connect 18 0 11 6;#P hidden connect 48 0 47 0;#P hidden connect 50 0 49 0;#P connect 15 0 11 7;#P hidden connect 41 0 55 0;#P pop;