max v2;#N vpatcher 219 164 1043 594;#P origin 0 -51;#P window setfont "Sans Serif" 9.;#P number 190 81 43 9 0 0 8225 3 198 198 198 221 221 221 222 222 222 0 0 0;#P objectname Right;#P window linecount 2;#P hidden newex 387 65 359 196617 jmod.message.mxt $0_ /delay @ramp 1 @repetitions 1 @range 0 1000000 @description "Delay time in samples to be applied to both channels.";#P objectname jmod.parameter.mxb[9];#P number 71 81 43 9 0 0 8225 3 198 198 198 221 221 221 222 222 222 0 0 0;#P objectname Left;#P window linecount 1;#P comment 132 83 66 196617 delay right;#B frgb 172 172 172;#P comment 22 83 48 196617 delay left;#B frgb 172 172 172;#P hidden message 100 164 125 196617 /documentation/generate;#P hidden newex 386 206 57 196617 pvar Right;#P window linecount 2;#P hidden newex 386 231 410 196617 jmod.parameter.mxt $0_ /delay/right @type msg_int @ramp 1 @repetitions 0 @range 0 1000000 @clipmode both @description "Delay time in samples for right channel.";#P objectname jmod.parameter[2];#P window linecount 1;#P hidden newex 386 132 52 196617 pvar Left;#P window linecount 5;#P hidden newex 0 191 158 196617 jmod.hub $0_ jmod.delay~ @size 1U-half @module_type audio @num_inputs 2 @num_outputs 2 @description "Sample-accurate stereo delay.";#P objectname jmod.hub;#P window linecount 1;#P hidden comment 14 164 79 196617 command input;#P hidden inlet 0 164 13 0;#P window linecount 2;#P hidden message 84 284 72 196617 \; jmod.init bang;#P window linecount 3;#P hidden newex 163 204 79 196617 pattrstorage @autorestore 0 @savemode 0;#X client_rect 0 0 640 240;#X storage_rect 0 0 640 240;#P objectname jmod.delay~;#P hidden inlet 20 31 13 0;#P hidden outlet 164 118 13 0;#P window linecount 2;#P hidden newex 386 157 406 196617 jmod.parameter.mxt $0_ /delay/left @type msg_int @ramp 1 @repetitions 0 @range 0 1000000 @clipmode both @description "Delay time in samples for left channel.";#P objectname jmod.parameter;#P hidden inlet 82 33 13 0;#P window linecount 1;#P hidden newex 265 272 118 196617 poly~ jmod.munger~.alg;#P hidden comment 15 21 105 196617 ----signal inputs----;#P hidden outlet 0 278 13 0;#P hidden outlet 246 118 13 0;#P hidden comment 164 130 101 196617 ---signal outputs---;#P bpatcher 0 51 256 60 0 0 jmod.gui.mxt 0 $0_;#P objectname jmod.gui.1Uh.a.stereo.mxt;#P hidden connect 9 0 0 0;#P lcolor 6;#P hidden fasten 18 0 14 0 105 187 5 187;#P hidden connect 12 0 14 0;#P hidden connect 14 0 3 0;#P hidden connect 6 0 0 1;#P lcolor 6;#P hidden connect 10 0 14 1;#P hidden connect 14 2 10 0;#P hidden fasten 5 0 0 2 270 306 780 306 780 38 169 38;#P hidden connect 0 2 8 0;#P hidden fasten 5 1 0 3 378 301 769 301 769 42 251 42;#P hidden connect 0 3 2 0;#P hidden fasten 0 0 5 0 5 152 270 152;#P lcolor 6;#P hidden fasten 14 1 5 0 79 267 270 267;#P hidden fasten 0 1 5 1 87 149 378 149;#P lcolor 6;#P hidden connect 22 1 15 0;#P hidden fasten 7 0 15 0 391 193 381 193 381 125 391 125;#P hidden connect 15 0 7 0;#P hidden fasten 16 0 17 0 391 267 381 267 381 199 391 199;#P hidden connect 22 1 17 0;#P hidden connect 17 0 16 0;#P pop;