max v2;#N vpatcher 449 108 650 341;#P window setfont "Sans Serif" 9.;#P newex 74 85 50 196617 t b i;#P newex 57 64 50 196617 * 1000.;#P newex 17 172 50 196617 / 1000.;#P newex 121 64 50 196617 * 1000.;#P inlet 135 41 15 0;#P inlet 38 41 15 0;#P outlet 17 193 15 0;#P inlet 17 111 15 0;#P newex 81 110 50 196617 -;#P newex 57 40 74 196617 t $1 $2;#P newex 62 15 50 196617 loadbang;#P newex 17 152 50 196617 +;#P newex 17 131 74 196617 random;#P connect 5 0 0 0;#P connect 0 0 1 0;#P connect 1 0 10 0;#P connect 10 0 6 0;#P connect 2 0 3 0;#P connect 7 0 11 0;#P connect 3 0 11 0;#P connect 11 0 1 1;#P connect 11 0 12 0;#P connect 9 0 4 0;#P connect 12 0 4 0;#P connect 4 0 0 1;#P connect 8 0 9 0;#P connect 3 1 9 0;#P connect 12 1 4 1;#P pop;