{
	"patcher" : 	{
		"fileversion" : 1,
		"rect" : [ 107.0, 151.0, 640.0, 480.0 ],
		"bglocked" : 0,
		"defrect" : [ 107.0, 151.0, 640.0, 480.0 ],
		"openrect" : [ 0.0, 0.0, 0.0, 0.0 ],
		"openinpresentation" : 0,
		"default_fontsize" : 12.0,
		"default_fontface" : 0,
		"default_fontname" : "Arial",
		"gridonopen" : 0,
		"gridsize" : [ 2.0, 2.0 ],
		"gridsnaponopen" : 0,
		"toolbarvisible" : 1,
		"boxanimatetime" : 200,
		"imprint" : 0,
		"metadata" : [  ],
		"boxes" : [ 			{
				"box" : 				{
					"maxclass" : "newobj",
					"text" : "out 2",
					"numinlets" : 1,
					"fontsize" : 9.0,
					"numoutlets" : 0,
					"patching_rect" : [ 318.0, 294.0, 40.0, 17.0 ],
					"fontname" : "Arial",
					"id" : "obj-15",
					"saved_object_attributes" : 					{

					}

				}

			}
, 			{
				"box" : 				{
					"maxclass" : "outlet",
					"numinlets" : 1,
					"numoutlets" : 0,
					"patching_rect" : [ 286.0, 288.0, 25.0, 25.0 ],
					"id" : "obj-16",
					"comment" : ""
				}

			}
, 			{
				"box" : 				{
					"maxclass" : "newobj",
					"text" : "p h:m:s:ms",
					"numinlets" : 1,
					"fontsize" : 10.0,
					"numoutlets" : 2,
					"patching_rect" : [ 281.0, 254.0, 68.0, 19.0 ],
					"outlettype" : [ "", "loop_flag" ],
					"fontname" : "Verdana",
					"id" : "obj-14",
					"patcher" : 					{
						"fileversion" : 1,
						"rect" : [ 575.0, 57.0, 701.0, 519.0 ],
						"bglocked" : 0,
						"defrect" : [ 575.0, 57.0, 701.0, 519.0 ],
						"openrect" : [ 0.0, 0.0, 0.0, 0.0 ],
						"openinpresentation" : 0,
						"default_fontsize" : 10.0,
						"default_fontface" : 0,
						"default_fontname" : "Verdana",
						"gridonopen" : 0,
						"gridsize" : [ 5.0, 5.0 ],
						"gridsnaponopen" : 0,
						"toolbarvisible" : 1,
						"boxanimatetime" : 200,
						"imprint" : 0,
						"metadata" : [  ],
						"boxes" : [ 							{
								"box" : 								{
									"maxclass" : "newobj",
									"text" : "t loop_flag",
									"numinlets" : 1,
									"fontsize" : 10.0,
									"numoutlets" : 1,
									"patching_rect" : [ 370.0, 255.0, 62.0, 19.0 ],
									"outlettype" : [ "loop_flag" ],
									"fontname" : "Verdana",
									"id" : "obj-1"
								}

							}
, 							{
								"box" : 								{
									"maxclass" : "outlet",
									"numinlets" : 1,
									"numoutlets" : 0,
									"patching_rect" : [ 370.0, 450.0, 26.0, 26.0 ],
									"id" : "obj-2",
									"comment" : ""
								}

							}
, 							{
								"box" : 								{
									"maxclass" : "newobj",
									"text" : "edge~",
									"numinlets" : 1,
									"fontsize" : 10.0,
									"numoutlets" : 2,
									"patching_rect" : [ 370.0, 185.0, 41.0, 19.0 ],
									"outlettype" : [ "bang", "bang" ],
									"fontname" : "Verdana",
									"id" : "obj-3"
								}

							}
, 							{
								"box" : 								{
									"maxclass" : "newobj",
									"text" : "change~",
									"numinlets" : 1,
									"fontsize" : 10.0,
									"numoutlets" : 1,
									"patching_rect" : [ 370.0, 160.0, 53.0, 19.0 ],
									"outlettype" : [ "signal" ],
									"fontname" : "Verdana",
									"id" : "obj-4"
								}

							}
, 							{
								"box" : 								{
									"maxclass" : "newobj",
									"text" : "change~",
									"numinlets" : 1,
									"fontsize" : 10.0,
									"numoutlets" : 1,
									"patching_rect" : [ 370.0, 135.0, 53.0, 19.0 ],
									"outlettype" : [ "signal" ],
									"fontname" : "Verdana",
									"id" : "obj-5"
								}

							}
, 							{
								"box" : 								{
									"maxclass" : "newobj",
									"text" : "split 0 9",
									"numinlets" : 3,
									"fontsize" : 10.0,
									"numoutlets" : 2,
									"patching_rect" : [ 30.0, 320.0, 49.0, 19.0 ],
									"outlettype" : [ "int", "int" ],
									"fontname" : "Verdana",
									"id" : "obj-6"
								}

							}
, 							{
								"box" : 								{
									"maxclass" : "newobj",
									"text" : "sprintf O%i",
									"numinlets" : 1,
									"fontsize" : 10.0,
									"numoutlets" : 1,
									"patching_rect" : [ 30.0, 345.0, 66.0, 19.0 ],
									"outlettype" : [ "" ],
									"fontname" : "Verdana",
									"id" : "obj-7"
								}

							}
, 							{
								"box" : 								{
									"maxclass" : "newobj",
									"text" : "tosymbol",
									"numinlets" : 1,
									"fontsize" : 10.0,
									"numoutlets" : 1,
									"patching_rect" : [ 30.0, 370.0, 54.0, 19.0 ],
									"outlettype" : [ "" ],
									"fontname" : "Verdana",
									"id" : "obj-8"
								}

							}
, 							{
								"box" : 								{
									"maxclass" : "newobj",
									"text" : "sprintf O%i",
									"numinlets" : 1,
									"fontsize" : 10.0,
									"numoutlets" : 1,
									"patching_rect" : [ 135.0, 345.0, 66.0, 19.0 ],
									"outlettype" : [ "" ],
									"fontname" : "Verdana",
									"id" : "obj-9"
								}

							}
, 							{
								"box" : 								{
									"maxclass" : "newobj",
									"text" : "tosymbol",
									"numinlets" : 1,
									"fontsize" : 10.0,
									"numoutlets" : 1,
									"patching_rect" : [ 135.0, 370.0, 54.0, 19.0 ],
									"outlettype" : [ "" ],
									"fontname" : "Verdana",
									"id" : "obj-10"
								}

							}
, 							{
								"box" : 								{
									"maxclass" : "newobj",
									"text" : "split 0 9",
									"numinlets" : 3,
									"fontsize" : 10.0,
									"numoutlets" : 2,
									"patching_rect" : [ 135.0, 320.0, 49.0, 19.0 ],
									"outlettype" : [ "int", "int" ],
									"fontname" : "Verdana",
									"id" : "obj-11"
								}

							}
, 							{
								"box" : 								{
									"maxclass" : "newobj",
									"text" : "sprintf O%i",
									"numinlets" : 1,
									"fontsize" : 10.0,
									"numoutlets" : 1,
									"patching_rect" : [ 245.0, 345.0, 66.0, 19.0 ],
									"outlettype" : [ "" ],
									"fontname" : "Verdana",
									"id" : "obj-12"
								}

							}
, 							{
								"box" : 								{
									"maxclass" : "newobj",
									"text" : "tosymbol",
									"numinlets" : 1,
									"fontsize" : 10.0,
									"numoutlets" : 1,
									"patching_rect" : [ 245.0, 370.0, 54.0, 19.0 ],
									"outlettype" : [ "" ],
									"fontname" : "Verdana",
									"id" : "obj-13"
								}

							}
, 							{
								"box" : 								{
									"maxclass" : "newobj",
									"text" : "split 0 9",
									"numinlets" : 3,
									"fontsize" : 10.0,
									"numoutlets" : 2,
									"patching_rect" : [ 245.0, 320.0, 49.0, 19.0 ],
									"outlettype" : [ "int", "int" ],
									"fontname" : "Verdana",
									"id" : "obj-14"
								}

							}
, 							{
								"box" : 								{
									"maxclass" : "outlet",
									"numinlets" : 1,
									"numoutlets" : 0,
									"patching_rect" : [ 30.0, 450.0, 26.0, 26.0 ],
									"id" : "obj-15",
									"comment" : ""
								}

							}
, 							{
								"box" : 								{
									"maxclass" : "newobj",
									"text" : "sprintf set %s:%s:%s",
									"numinlets" : 3,
									"fontsize" : 10.0,
									"numoutlets" : 1,
									"patching_rect" : [ 30.0, 405.0, 123.0, 19.0 ],
									"outlettype" : [ "" ],
									"fontname" : "Verdana",
									"id" : "obj-16"
								}

							}
, 							{
								"box" : 								{
									"maxclass" : "newobj",
									"text" : "expr $f1-$i2",
									"numinlets" : 2,
									"fontsize" : 10.0,
									"numoutlets" : 1,
									"patching_rect" : [ 165.0, 165.0, 71.0, 19.0 ],
									"outlettype" : [ "" ],
									"fontname" : "Verdana",
									"id" : "obj-18"
								}

							}
, 							{
								"box" : 								{
									"maxclass" : "newobj",
									"text" : "* 60.",
									"numinlets" : 2,
									"fontsize" : 10.0,
									"numoutlets" : 1,
									"patching_rect" : [ 245.0, 195.0, 35.0, 19.0 ],
									"outlettype" : [ "float" ],
									"fontname" : "Verdana",
									"id" : "obj-19"
								}

							}
, 							{
								"box" : 								{
									"maxclass" : "newobj",
									"text" : "expr $f1-$i2",
									"numinlets" : 2,
									"fontsize" : 10.0,
									"numoutlets" : 1,
									"patching_rect" : [ 45.0, 115.0, 71.0, 19.0 ],
									"outlettype" : [ "" ],
									"fontname" : "Verdana",
									"id" : "obj-20"
								}

							}
, 							{
								"box" : 								{
									"maxclass" : "comment",
									"text" : "s",
									"numinlets" : 1,
									"fontsize" : 34.668163,
									"numoutlets" : 0,
									"patching_rect" : [ 260.0, 260.0, 39.0, 49.0 ],
									"frgb" : [ 0.658824, 0.658824, 0.658824, 1.0 ],
									"fontname" : "Verdana",
									"id" : "obj-21"
								}

							}
, 							{
								"box" : 								{
									"maxclass" : "newobj",
									"text" : "* 60.",
									"numinlets" : 2,
									"fontsize" : 10.0,
									"numoutlets" : 1,
									"patching_rect" : [ 135.0, 140.0, 35.0, 19.0 ],
									"outlettype" : [ "float" ],
									"fontname" : "Verdana",
									"id" : "obj-22"
								}

							}
, 							{
								"box" : 								{
									"maxclass" : "comment",
									"text" : "m",
									"numinlets" : 1,
									"fontsize" : 34.668163,
									"numoutlets" : 0,
									"patching_rect" : [ 146.0, 260.0, 42.0, 49.0 ],
									"frgb" : [ 0.658824, 0.658824, 0.658824, 1.0 ],
									"fontname" : "Verdana",
									"id" : "obj-23"
								}

							}
, 							{
								"box" : 								{
									"maxclass" : "newobj",
									"text" : "/ 3600000.",
									"numinlets" : 2,
									"fontsize" : 10.0,
									"numoutlets" : 1,
									"patching_rect" : [ 30.0, 90.0, 65.0, 19.0 ],
									"outlettype" : [ "float" ],
									"fontname" : "Verdana",
									"id" : "obj-24"
								}

							}
, 							{
								"box" : 								{
									"maxclass" : "newobj",
									"text" : "snapshot~ 1000",
									"numinlets" : 2,
									"fontsize" : 10.0,
									"numoutlets" : 1,
									"patching_rect" : [ 30.0, 65.0, 91.0, 19.0 ],
									"outlettype" : [ "float" ],
									"fontname" : "Verdana",
									"id" : "obj-25"
								}

							}
, 							{
								"box" : 								{
									"maxclass" : "inlet",
									"numinlets" : 0,
									"numoutlets" : 1,
									"patching_rect" : [ 30.0, 15.0, 24.0, 24.0 ],
									"outlettype" : [ "signal" ],
									"id" : "obj-26",
									"comment" : ""
								}

							}
, 							{
								"box" : 								{
									"maxclass" : "comment",
									"text" : "h",
									"numinlets" : 1,
									"fontsize" : 34.668163,
									"numoutlets" : 0,
									"patching_rect" : [ 38.0, 260.0, 39.0, 49.0 ],
									"frgb" : [ 0.658824, 0.658824, 0.658824, 1.0 ],
									"fontname" : "Verdana",
									"id" : "obj-27"
								}

							}
 ],
						"lines" : [ 							{
								"patchline" : 								{
									"source" : [ "obj-16", 0 ],
									"destination" : [ "obj-15", 0 ],
									"hidden" : 0,
									"midpoints" : [  ]
								}

							}
, 							{
								"patchline" : 								{
									"source" : [ "obj-13", 0 ],
									"destination" : [ "obj-16", 2 ],
									"hidden" : 0,
									"midpoints" : [  ]
								}

							}
, 							{
								"patchline" : 								{
									"source" : [ "obj-10", 0 ],
									"destination" : [ "obj-16", 1 ],
									"hidden" : 0,
									"midpoints" : [  ]
								}

							}
, 							{
								"patchline" : 								{
									"source" : [ "obj-8", 0 ],
									"destination" : [ "obj-16", 0 ],
									"hidden" : 0,
									"midpoints" : [  ]
								}

							}
, 							{
								"patchline" : 								{
									"source" : [ "obj-26", 0 ],
									"destination" : [ "obj-25", 0 ],
									"hidden" : 0,
									"midpoints" : [  ]
								}

							}
, 							{
								"patchline" : 								{
									"source" : [ "obj-25", 0 ],
									"destination" : [ "obj-24", 0 ],
									"hidden" : 0,
									"midpoints" : [  ]
								}

							}
, 							{
								"patchline" : 								{
									"source" : [ "obj-24", 0 ],
									"destination" : [ "obj-6", 0 ],
									"hidden" : 0,
									"midpoints" : [  ]
								}

							}
, 							{
								"patchline" : 								{
									"source" : [ "obj-6", 0 ],
									"destination" : [ "obj-7", 0 ],
									"hidden" : 0,
									"midpoints" : [  ]
								}

							}
, 							{
								"patchline" : 								{
									"source" : [ "obj-7", 0 ],
									"destination" : [ "obj-8", 0 ],
									"hidden" : 0,
									"midpoints" : [  ]
								}

							}
, 							{
								"patchline" : 								{
									"source" : [ "obj-6", 1 ],
									"destination" : [ "obj-8", 0 ],
									"hidden" : 0,
									"midpoints" : [  ]
								}

							}
, 							{
								"patchline" : 								{
									"source" : [ "obj-24", 0 ],
									"destination" : [ "obj-20", 0 ],
									"hidden" : 0,
									"midpoints" : [ 39.5, 111.0, 54.5, 111.0 ]
								}

							}
, 							{
								"patchline" : 								{
									"source" : [ "obj-24", 0 ],
									"destination" : [ "obj-20", 1 ],
									"hidden" : 0,
									"midpoints" : [ 39.5, 110.0, 106.5, 110.0 ]
								}

							}
, 							{
								"patchline" : 								{
									"source" : [ "obj-20", 0 ],
									"destination" : [ "obj-22", 0 ],
									"hidden" : 0,
									"midpoints" : [ 54.5, 135.0, 144.5, 135.0 ]
								}

							}
, 							{
								"patchline" : 								{
									"source" : [ "obj-22", 0 ],
									"destination" : [ "obj-11", 0 ],
									"hidden" : 0,
									"midpoints" : [  ]
								}

							}
, 							{
								"patchline" : 								{
									"source" : [ "obj-11", 0 ],
									"destination" : [ "obj-9", 0 ],
									"hidden" : 0,
									"midpoints" : [  ]
								}

							}
, 							{
								"patchline" : 								{
									"source" : [ "obj-11", 1 ],
									"destination" : [ "obj-10", 0 ],
									"hidden" : 0,
									"midpoints" : [  ]
								}

							}
, 							{
								"patchline" : 								{
									"source" : [ "obj-9", 0 ],
									"destination" : [ "obj-10", 0 ],
									"hidden" : 0,
									"midpoints" : [  ]
								}

							}
, 							{
								"patchline" : 								{
									"source" : [ "obj-22", 0 ],
									"destination" : [ "obj-18", 0 ],
									"hidden" : 0,
									"midpoints" : [ 144.5, 158.0, 174.5, 158.0 ]
								}

							}
, 							{
								"patchline" : 								{
									"source" : [ "obj-22", 0 ],
									"destination" : [ "obj-18", 1 ],
									"hidden" : 0,
									"midpoints" : [ 144.5, 158.0, 226.5, 158.0 ]
								}

							}
, 							{
								"patchline" : 								{
									"source" : [ "obj-18", 0 ],
									"destination" : [ "obj-19", 0 ],
									"hidden" : 0,
									"midpoints" : [ 174.5, 183.0, 254.5, 183.0 ]
								}

							}
, 							{
								"patchline" : 								{
									"source" : [ "obj-19", 0 ],
									"destination" : [ "obj-14", 0 ],
									"hidden" : 0,
									"midpoints" : [  ]
								}

							}
, 							{
								"patchline" : 								{
									"source" : [ "obj-14", 0 ],
									"destination" : [ "obj-12", 0 ],
									"hidden" : 0,
									"midpoints" : [  ]
								}

							}
, 							{
								"patchline" : 								{
									"source" : [ "obj-12", 0 ],
									"destination" : [ "obj-13", 0 ],
									"hidden" : 0,
									"midpoints" : [  ]
								}

							}
, 							{
								"patchline" : 								{
									"source" : [ "obj-14", 1 ],
									"destination" : [ "obj-13", 0 ],
									"hidden" : 0,
									"midpoints" : [  ]
								}

							}
, 							{
								"patchline" : 								{
									"source" : [ "obj-26", 0 ],
									"destination" : [ "obj-5", 0 ],
									"hidden" : 0,
									"midpoints" : [ 39.5, 51.0, 379.5, 51.0 ]
								}

							}
, 							{
								"patchline" : 								{
									"source" : [ "obj-5", 0 ],
									"destination" : [ "obj-4", 0 ],
									"hidden" : 0,
									"midpoints" : [  ]
								}

							}
, 							{
								"patchline" : 								{
									"source" : [ "obj-4", 0 ],
									"destination" : [ "obj-3", 0 ],
									"hidden" : 0,
									"midpoints" : [  ]
								}

							}
, 							{
								"patchline" : 								{
									"source" : [ "obj-3", 0 ],
									"destination" : [ "obj-1", 0 ],
									"hidden" : 0,
									"midpoints" : [  ]
								}

							}
, 							{
								"patchline" : 								{
									"source" : [ "obj-1", 0 ],
									"destination" : [ "obj-2", 0 ],
									"hidden" : 0,
									"midpoints" : [  ]
								}

							}
 ]
					}
,
					"saved_object_attributes" : 					{
						"fontface" : 0,
						"fontsize" : 10.0,
						"default_fontname" : "Verdana",
						"globalpatchername" : "",
						"default_fontsize" : 10.0,
						"fontname" : "Verdana",
						"default_fontface" : 0
					}

				}

			}
, 			{
				"box" : 				{
					"maxclass" : "newobj",
					"text" : "out 1",
					"numinlets" : 1,
					"fontsize" : 9.0,
					"numoutlets" : 0,
					"patching_rect" : [ 452.0, 214.0, 40.0, 17.0 ],
					"fontname" : "Arial",
					"id" : "obj-13",
					"saved_object_attributes" : 					{
						"attr_comment" : ""
					}

				}

			}
, 			{
				"box" : 				{
					"maxclass" : "newobj",
					"text" : "out~ 2",
					"numinlets" : 1,
					"fontsize" : 9.0,
					"numoutlets" : 0,
					"patching_rect" : [ 188.0, 372.0, 40.0, 17.0 ],
					"fontname" : "Arial",
					"id" : "obj-12",
					"saved_object_attributes" : 					{
						"attr_comment" : ""
					}

				}

			}
, 			{
				"box" : 				{
					"maxclass" : "newobj",
					"text" : "out~ 1",
					"numinlets" : 1,
					"fontsize" : 9.0,
					"numoutlets" : 0,
					"patching_rect" : [ 142.0, 372.0, 40.0, 17.0 ],
					"fontname" : "Arial",
					"id" : "obj-11",
					"saved_object_attributes" : 					{
						"attr_comment" : ""
					}

				}

			}
, 			{
				"box" : 				{
					"maxclass" : "newobj",
					"text" : "in 2",
					"numinlets" : 1,
					"fontsize" : 9.0,
					"numoutlets" : 1,
					"patching_rect" : [ 296.0, 50.0, 30.0, 17.0 ],
					"outlettype" : [ "" ],
					"fontname" : "Arial",
					"id" : "obj-10",
					"saved_object_attributes" : 					{
						"attr_comment" : ""
					}

				}

			}
, 			{
				"box" : 				{
					"maxclass" : "newobj",
					"text" : "in 1",
					"numinlets" : 1,
					"fontsize" : 9.0,
					"numoutlets" : 1,
					"patching_rect" : [ 186.0, 48.0, 30.0, 17.0 ],
					"outlettype" : [ "" ],
					"fontname" : "Arial",
					"id" : "obj-9",
					"saved_object_attributes" : 					{
						"attr_comment" : ""
					}

				}

			}
, 			{
				"box" : 				{
					"maxclass" : "newobj",
					"text" : "line~",
					"numinlets" : 2,
					"fontsize" : 12.0,
					"numoutlets" : 2,
					"patching_rect" : [ 190.0, 270.0, 60.0, 20.0 ],
					"outlettype" : [ "signal", "bang" ],
					"fontname" : "Arial",
					"id" : "obj-8"
				}

			}
, 			{
				"box" : 				{
					"maxclass" : "newobj",
					"text" : "*~",
					"numinlets" : 2,
					"fontsize" : 12.0,
					"numoutlets" : 1,
					"patching_rect" : [ 178.0, 300.0, 29.0, 20.0 ],
					"outlettype" : [ "signal" ],
					"fontname" : "Arial",
					"id" : "obj-7"
				}

			}
, 			{
				"box" : 				{
					"maxclass" : "newobj",
					"text" : "*~",
					"numinlets" : 2,
					"fontsize" : 12.0,
					"numoutlets" : 1,
					"patching_rect" : [ 144.0, 300.0, 29.0, 20.0 ],
					"outlettype" : [ "signal" ],
					"fontname" : "Arial",
					"id" : "obj-6"
				}

			}
, 			{
				"box" : 				{
					"maxclass" : "newobj",
					"text" : "prepend prefix",
					"numinlets" : 1,
					"fontsize" : 9.0,
					"numoutlets" : 1,
					"patching_rect" : [ 128.0, 134.0, 74.0, 17.0 ],
					"outlettype" : [ "" ],
					"fontname" : "Arial",
					"id" : "obj-5"
				}

			}
, 			{
				"box" : 				{
					"maxclass" : "outlet",
					"numinlets" : 1,
					"numoutlets" : 0,
					"patching_rect" : [ 420.0, 208.0, 25.0, 25.0 ],
					"id" : "obj-4",
					"comment" : ""
				}

			}
, 			{
				"box" : 				{
					"maxclass" : "outlet",
					"numinlets" : 1,
					"numoutlets" : 0,
					"patching_rect" : [ 158.0, 328.0, 25.0, 25.0 ],
					"id" : "obj-2",
					"comment" : ""
				}

			}
, 			{
				"box" : 				{
					"maxclass" : "outlet",
					"numinlets" : 1,
					"numoutlets" : 0,
					"patching_rect" : [ 124.0, 328.0, 25.0, 25.0 ],
					"id" : "obj-1",
					"comment" : ""
				}

			}
, 			{
				"box" : 				{
					"maxclass" : "umenu",
					"numinlets" : 1,
					"fontsize" : 9.0,
					"numoutlets" : 3,
					"patching_rect" : [ 220.0, 138.0, 57.0, 17.0 ],
					"autopopulate" : 1,
					"outlettype" : [ "int", "", "" ],
					"items" : [  ],
					"fontname" : "Arial",
					"types" : [ "AIFF", "WAVE", "Sd2f" ],
					"arrow" : 0,
					"id" : "obj-64"
				}

			}
, 			{
				"box" : 				{
					"maxclass" : "newobj",
					"text" : "p foldsnd",
					"numinlets" : 4,
					"fontsize" : 12.0,
					"numoutlets" : 2,
					"patching_rect" : [ 220.0, 160.0, 228.0, 20.0 ],
					"hidden" : 1,
					"outlettype" : [ "int", "" ],
					"fontname" : "Arial",
					"id" : "obj-62",
					"patcher" : 					{
						"fileversion" : 1,
						"rect" : [ 690.0, 45.0, 338.0, 409.0 ],
						"bglocked" : 0,
						"defrect" : [ 690.0, 45.0, 338.0, 409.0 ],
						"openrect" : [ 0.0, 0.0, 0.0, 0.0 ],
						"openinpresentation" : 0,
						"default_fontsize" : 12.0,
						"default_fontface" : 0,
						"default_fontname" : "Arial",
						"gridonopen" : 0,
						"gridsize" : [ 2.0, 2.0 ],
						"gridsnaponopen" : 0,
						"toolbarvisible" : 1,
						"boxanimatetime" : 200,
						"imprint" : 0,
						"metadata" : [  ],
						"boxes" : [ 							{
								"box" : 								{
									"maxclass" : "outlet",
									"numinlets" : 1,
									"numoutlets" : 0,
									"patching_rect" : [ 264.0, 320.0, 25.0, 25.0 ],
									"id" : "obj-25",
									"comment" : ""
								}

							}
, 							{
								"box" : 								{
									"maxclass" : "inlet",
									"numinlets" : 0,
									"numoutlets" : 1,
									"patching_rect" : [ 310.0, 16.0, 15.0, 15.0 ],
									"outlettype" : [ "" ],
									"id" : "obj-24",
									"comment" : ""
								}

							}
, 							{
								"box" : 								{
									"maxclass" : "inlet",
									"numinlets" : 0,
									"numoutlets" : 1,
									"patching_rect" : [ 284.0, 16.0, 15.0, 15.0 ],
									"outlettype" : [ "" ],
									"id" : "obj-23",
									"comment" : ""
								}

							}
, 							{
								"box" : 								{
									"maxclass" : "inlet",
									"numinlets" : 0,
									"numoutlets" : 1,
									"patching_rect" : [ 254.0, 16.0, 15.0, 15.0 ],
									"outlettype" : [ "" ],
									"id" : "obj-20",
									"comment" : ""
								}

							}
, 							{
								"box" : 								{
									"maxclass" : "outlet",
									"numinlets" : 1,
									"numoutlets" : 0,
									"patching_rect" : [ 202.0, 318.0, 25.0, 25.0 ],
									"id" : "obj-22",
									"comment" : ""
								}

							}
, 							{
								"box" : 								{
									"maxclass" : "newobj",
									"text" : "t 1",
									"numinlets" : 1,
									"fontsize" : 9.0,
									"numoutlets" : 1,
									"patching_rect" : [ 118.0, 193.0, 21.0, 17.0 ],
									"outlettype" : [ "int" ],
									"fontname" : "Arial",
									"id" : "obj-1"
								}

							}
, 							{
								"box" : 								{
									"maxclass" : "newobj",
									"text" : "t 0",
									"numinlets" : 1,
									"fontsize" : 9.0,
									"numoutlets" : 1,
									"patching_rect" : [ 91.0, 193.0, 21.0, 17.0 ],
									"outlettype" : [ "int" ],
									"fontname" : "Arial",
									"id" : "obj-2"
								}

							}
, 							{
								"box" : 								{
									"maxclass" : "newobj",
									"text" : "t 1",
									"numinlets" : 1,
									"fontsize" : 9.0,
									"numoutlets" : 1,
									"patching_rect" : [ 64.0, 192.0, 21.0, 17.0 ],
									"outlettype" : [ "int" ],
									"fontname" : "Arial",
									"id" : "obj-3"
								}

							}
, 							{
								"box" : 								{
									"maxclass" : "newobj",
									"text" : "t 1",
									"numinlets" : 1,
									"fontsize" : 9.0,
									"numoutlets" : 1,
									"patching_rect" : [ 37.0, 192.0, 21.0, 17.0 ],
									"outlettype" : [ "int" ],
									"fontname" : "Arial",
									"id" : "obj-4"
								}

							}
, 							{
								"box" : 								{
									"maxclass" : "newobj",
									"text" : "t 0",
									"numinlets" : 1,
									"fontsize" : 9.0,
									"numoutlets" : 1,
									"patching_rect" : [ 10.0, 192.0, 21.0, 17.0 ],
									"outlettype" : [ "int" ],
									"fontname" : "Arial",
									"id" : "obj-5"
								}

							}
, 							{
								"box" : 								{
									"maxclass" : "newobj",
									"text" : "sel 10 110 101 11 111",
									"numinlets" : 1,
									"fontsize" : 9.0,
									"numoutlets" : 6,
									"patching_rect" : [ 10.0, 170.0, 146.0, 17.0 ],
									"outlettype" : [ "bang", "bang", "bang", "bang", "bang", "" ],
									"fontname" : "Arial",
									"id" : "obj-6"
								}

							}
, 							{
								"box" : 								{
									"maxclass" : "newobj",
									"text" : "expr $i1*100+$i2*10+$i3",
									"numinlets" : 3,
									"fontsize" : 9.0,
									"numoutlets" : 1,
									"patching_rect" : [ 10.0, 148.0, 135.0, 17.0 ],
									"outlettype" : [ "" ],
									"fontname" : "Arial",
									"id" : "obj-7"
								}

							}
, 							{
								"box" : 								{
									"maxclass" : "newobj",
									"text" : "p state",
									"numinlets" : 2,
									"fontsize" : 9.0,
									"numoutlets" : 1,
									"patching_rect" : [ 51.0, 121.0, 38.0, 17.0 ],
									"outlettype" : [ "int" ],
									"fontname" : "Arial",
									"id" : "obj-8",
									"patcher" : 									{
										"fileversion" : 1,
										"rect" : [ 83.0, 588.0, 195.0, 301.0 ],
										"bglocked" : 0,
										"defrect" : [ 83.0, 588.0, 195.0, 301.0 ],
										"openrect" : [ 0.0, 0.0, 0.0, 0.0 ],
										"openinpresentation" : 0,
										"default_fontsize" : 12.0,
										"default_fontface" : 0,
										"default_fontname" : "Arial",
										"gridonopen" : 0,
										"gridsize" : [ 2.0, 2.0 ],
										"gridsnaponopen" : 0,
										"toolbarvisible" : 1,
										"boxanimatetime" : 200,
										"imprint" : 0,
										"metadata" : [  ],
										"boxes" : [ 											{
												"box" : 												{
													"maxclass" : "outlet",
													"numinlets" : 1,
													"numoutlets" : 0,
													"patching_rect" : [ 47.0, 217.0, 15.0, 15.0 ],
													"id" : "obj-1",
													"comment" : ""
												}

											}
, 											{
												"box" : 												{
													"maxclass" : "newobj",
													"text" : "t 1",
													"numinlets" : 1,
													"fontsize" : 9.0,
													"numoutlets" : 1,
													"patching_rect" : [ 94.0, 159.0, 21.0, 17.0 ],
													"outlettype" : [ "int" ],
													"fontname" : "Arial",
													"id" : "obj-2"
												}

											}
, 											{
												"box" : 												{
													"maxclass" : "newobj",
													"text" : "i",
													"numinlets" : 2,
													"fontsize" : 9.0,
													"numoutlets" : 1,
													"patching_rect" : [ 47.0, 193.0, 104.0, 17.0 ],
													"outlettype" : [ "int" ],
													"fontname" : "Arial",
													"id" : "obj-3"
												}

											}
, 											{
												"box" : 												{
													"maxclass" : "newobj",
													"text" : "t b b 0",
													"numinlets" : 1,
													"fontsize" : 9.0,
													"numoutlets" : 3,
													"patching_rect" : [ 47.0, 70.0, 104.0, 17.0 ],
													"outlettype" : [ "bang", "bang", "int" ],
													"fontname" : "Arial",
													"id" : "obj-4"
												}

											}
, 											{
												"box" : 												{
													"maxclass" : "inlet",
													"numinlets" : 0,
													"numoutlets" : 1,
													"patching_rect" : [ 47.0, 48.0, 15.0, 15.0 ],
													"outlettype" : [ "bang" ],
													"id" : "obj-5",
													"comment" : ""
												}

											}
, 											{
												"box" : 												{
													"maxclass" : "newobj",
													"text" : "onebang",
													"linecount" : 2,
													"numinlets" : 2,
													"fontsize" : 9.0,
													"numoutlets" : 2,
													"patching_rect" : [ 94.0, 135.0, 43.0, 27.0 ],
													"outlettype" : [ "bang", "bang" ],
													"fontname" : "Arial",
													"id" : "obj-6"
												}

											}
, 											{
												"box" : 												{
													"maxclass" : "newobj",
													"text" : "t b",
													"numinlets" : 1,
													"fontsize" : 9.0,
													"numoutlets" : 1,
													"patching_rect" : [ 120.0, 111.0, 23.0, 17.0 ],
													"outlettype" : [ "bang" ],
													"fontname" : "Arial",
													"id" : "obj-7"
												}

											}
, 											{
												"box" : 												{
													"maxclass" : "inlet",
													"numinlets" : 0,
													"numoutlets" : 1,
													"patching_rect" : [ 120.0, 92.0, 15.0, 15.0 ],
													"outlettype" : [ "" ],
													"id" : "obj-8",
													"comment" : ""
												}

											}
 ],
										"lines" : [ 											{
												"patchline" : 												{
													"source" : [ "obj-5", 0 ],
													"destination" : [ "obj-4", 0 ],
													"hidden" : 0,
													"midpoints" : [  ]
												}

											}
, 											{
												"patchline" : 												{
													"source" : [ "obj-4", 0 ],
													"destination" : [ "obj-3", 0 ],
													"hidden" : 0,
													"midpoints" : [  ]
												}

											}
, 											{
												"patchline" : 												{
													"source" : [ "obj-3", 0 ],
													"destination" : [ "obj-1", 0 ],
													"hidden" : 0,
													"midpoints" : [  ]
												}

											}
, 											{
												"patchline" : 												{
													"source" : [ "obj-4", 1 ],
													"destination" : [ "obj-6", 0 ],
													"hidden" : 0,
													"midpoints" : [  ]
												}

											}
, 											{
												"patchline" : 												{
													"source" : [ "obj-6", 0 ],
													"destination" : [ "obj-2", 0 ],
													"hidden" : 0,
													"midpoints" : [  ]
												}

											}
, 											{
												"patchline" : 												{
													"source" : [ "obj-8", 0 ],
													"destination" : [ "obj-7", 0 ],
													"hidden" : 0,
													"midpoints" : [  ]
												}

											}
, 											{
												"patchline" : 												{
													"source" : [ "obj-7", 0 ],
													"destination" : [ "obj-6", 1 ],
													"hidden" : 0,
													"midpoints" : [  ]
												}

											}
, 											{
												"patchline" : 												{
													"source" : [ "obj-4", 2 ],
													"destination" : [ "obj-3", 1 ],
													"hidden" : 0,
													"midpoints" : [  ]
												}

											}
, 											{
												"patchline" : 												{
													"source" : [ "obj-2", 0 ],
													"destination" : [ "obj-3", 1 ],
													"hidden" : 0,
													"midpoints" : [  ]
												}

											}
 ]
									}
,
									"saved_object_attributes" : 									{
										"fontface" : 0,
										"fontsize" : 12.0,
										"default_fontname" : "Arial",
										"globalpatchername" : "",
										"default_fontsize" : 12.0,
										"fontname" : "Arial",
										"default_fontface" : 0
									}

								}

							}
, 							{
								"box" : 								{
									"maxclass" : "newobj",
									"text" : "t i b i",
									"numinlets" : 1,
									"fontsize" : 9.0,
									"numoutlets" : 3,
									"patching_rect" : [ 10.0, 68.0, 93.0, 17.0 ],
									"outlettype" : [ "int", "bang", "int" ],
									"fontname" : "Arial",
									"id" : "obj-9"
								}

							}
, 							{
								"box" : 								{
									"maxclass" : "newobj",
									"text" : "change",
									"linecount" : 2,
									"numinlets" : 1,
									"fontsize" : 9.0,
									"numoutlets" : 3,
									"patching_rect" : [ 92.0, 92.0, 35.0, 27.0 ],
									"outlettype" : [ "", "int", "int" ],
									"fontname" : "Arial",
									"id" : "obj-10"
								}

							}
, 							{
								"box" : 								{
									"maxclass" : "newobj",
									"text" : "+ 1",
									"numinlets" : 2,
									"fontsize" : 9.0,
									"numoutlets" : 1,
									"patching_rect" : [ 135.0, 38.0, 27.0, 17.0 ],
									"outlettype" : [ "int" ],
									"fontname" : "Arial",
									"id" : "obj-11"
								}

							}
, 							{
								"box" : 								{
									"maxclass" : "newobj",
									"text" : "p state",
									"numinlets" : 2,
									"fontsize" : 9.0,
									"numoutlets" : 1,
									"patching_rect" : [ 135.0, 114.0, 38.0, 17.0 ],
									"outlettype" : [ "int" ],
									"fontname" : "Arial",
									"id" : "obj-12",
									"patcher" : 									{
										"fileversion" : 1,
										"rect" : [ 83.0, 588.0, 195.0, 301.0 ],
										"bglocked" : 0,
										"defrect" : [ 83.0, 588.0, 195.0, 301.0 ],
										"openrect" : [ 0.0, 0.0, 0.0, 0.0 ],
										"openinpresentation" : 0,
										"default_fontsize" : 12.0,
										"default_fontface" : 0,
										"default_fontname" : "Arial",
										"gridonopen" : 0,
										"gridsize" : [ 2.0, 2.0 ],
										"gridsnaponopen" : 0,
										"toolbarvisible" : 1,
										"boxanimatetime" : 200,
										"imprint" : 0,
										"metadata" : [  ],
										"boxes" : [ 											{
												"box" : 												{
													"maxclass" : "outlet",
													"numinlets" : 1,
													"numoutlets" : 0,
													"patching_rect" : [ 47.0, 217.0, 15.0, 15.0 ],
													"id" : "obj-1",
													"comment" : ""
												}

											}
, 											{
												"box" : 												{
													"maxclass" : "newobj",
													"text" : "t 1",
													"numinlets" : 1,
													"fontsize" : 9.0,
													"numoutlets" : 1,
													"patching_rect" : [ 94.0, 159.0, 21.0, 17.0 ],
													"outlettype" : [ "int" ],
													"fontname" : "Arial",
													"id" : "obj-2"
												}

											}
, 											{
												"box" : 												{
													"maxclass" : "newobj",
													"text" : "i",
													"numinlets" : 2,
													"fontsize" : 9.0,
													"numoutlets" : 1,
													"patching_rect" : [ 47.0, 193.0, 104.0, 17.0 ],
													"outlettype" : [ "int" ],
													"fontname" : "Arial",
													"id" : "obj-3"
												}

											}
, 											{
												"box" : 												{
													"maxclass" : "newobj",
													"text" : "t b b 0",
													"numinlets" : 1,
													"fontsize" : 9.0,
													"numoutlets" : 3,
													"patching_rect" : [ 47.0, 70.0, 104.0, 17.0 ],
													"outlettype" : [ "bang", "bang", "int" ],
													"fontname" : "Arial",
													"id" : "obj-4"
												}

											}
, 											{
												"box" : 												{
													"maxclass" : "inlet",
													"numinlets" : 0,
													"numoutlets" : 1,
													"patching_rect" : [ 47.0, 48.0, 15.0, 15.0 ],
													"outlettype" : [ "bang" ],
													"id" : "obj-5",
													"comment" : ""
												}

											}
, 											{
												"box" : 												{
													"maxclass" : "newobj",
													"text" : "onebang",
													"linecount" : 2,
													"numinlets" : 2,
													"fontsize" : 9.0,
													"numoutlets" : 2,
													"patching_rect" : [ 94.0, 135.0, 43.0, 27.0 ],
													"outlettype" : [ "bang", "bang" ],
													"fontname" : "Arial",
													"id" : "obj-6"
												}

											}
, 											{
												"box" : 												{
													"maxclass" : "newobj",
													"text" : "t b",
													"numinlets" : 1,
													"fontsize" : 9.0,
													"numoutlets" : 1,
													"patching_rect" : [ 120.0, 111.0, 23.0, 17.0 ],
													"outlettype" : [ "bang" ],
													"fontname" : "Arial",
													"id" : "obj-7"
												}

											}
, 											{
												"box" : 												{
													"maxclass" : "inlet",
													"numinlets" : 0,
													"numoutlets" : 1,
													"patching_rect" : [ 120.0, 92.0, 15.0, 15.0 ],
													"outlettype" : [ "" ],
													"id" : "obj-8",
													"comment" : ""
												}

											}
 ],
										"lines" : [ 											{
												"patchline" : 												{
													"source" : [ "obj-5", 0 ],
													"destination" : [ "obj-4", 0 ],
													"hidden" : 0,
													"midpoints" : [  ]
												}

											}
, 											{
												"patchline" : 												{
													"source" : [ "obj-4", 0 ],
													"destination" : [ "obj-3", 0 ],
													"hidden" : 0,
													"midpoints" : [  ]
												}

											}
, 											{
												"patchline" : 												{
													"source" : [ "obj-3", 0 ],
													"destination" : [ "obj-1", 0 ],
													"hidden" : 0,
													"midpoints" : [  ]
												}

											}
, 											{
												"patchline" : 												{
													"source" : [ "obj-4", 1 ],
													"destination" : [ "obj-6", 0 ],
													"hidden" : 0,
													"midpoints" : [  ]
												}

											}
, 											{
												"patchline" : 												{
													"source" : [ "obj-6", 0 ],
													"destination" : [ "obj-2", 0 ],
													"hidden" : 0,
													"midpoints" : [  ]
												}

											}
, 											{
												"patchline" : 												{
													"source" : [ "obj-8", 0 ],
													"destination" : [ "obj-7", 0 ],
													"hidden" : 0,
													"midpoints" : [  ]
												}

											}
, 											{
												"patchline" : 												{
													"source" : [ "obj-7", 0 ],
													"destination" : [ "obj-6", 1 ],
													"hidden" : 0,
													"midpoints" : [  ]
												}

											}
, 											{
												"patchline" : 												{
													"source" : [ "obj-2", 0 ],
													"destination" : [ "obj-3", 1 ],
													"hidden" : 0,
													"midpoints" : [  ]
												}

											}
, 											{
												"patchline" : 												{
													"source" : [ "obj-4", 2 ],
													"destination" : [ "obj-3", 1 ],
													"hidden" : 0,
													"midpoints" : [  ]
												}

											}
 ]
									}
,
									"saved_object_attributes" : 									{
										"fontface" : 0,
										"fontsize" : 12.0,
										"default_fontname" : "Arial",
										"globalpatchername" : "",
										"default_fontsize" : 12.0,
										"fontname" : "Arial",
										"default_fontface" : 0
									}

								}

							}
, 							{
								"box" : 								{
									"maxclass" : "newobj",
									"text" : "t i",
									"numinlets" : 1,
									"fontsize" : 9.0,
									"numoutlets" : 1,
									"patching_rect" : [ 81.0, 224.0, 18.0, 17.0 ],
									"outlettype" : [ "int" ],
									"fontname" : "Arial",
									"id" : "obj-13"
								}

							}
, 							{
								"box" : 								{
									"maxclass" : "newobj",
									"text" : "p rampe",
									"numinlets" : 3,
									"fontsize" : 9.0,
									"numoutlets" : 2,
									"patching_rect" : [ 31.0, 251.0, 45.0, 17.0 ],
									"outlettype" : [ "int", "" ],
									"fontname" : "Arial",
									"id" : "obj-14",
									"patcher" : 									{
										"fileversion" : 1,
										"rect" : [ 318.0, 79.0, 547.0, 476.0 ],
										"bglocked" : 0,
										"defrect" : [ 318.0, 79.0, 547.0, 476.0 ],
										"openrect" : [ 0.0, 0.0, 0.0, 0.0 ],
										"openinpresentation" : 0,
										"default_fontsize" : 12.0,
										"default_fontface" : 0,
										"default_fontname" : "Arial",
										"gridonopen" : 0,
										"gridsize" : [ 2.0, 2.0 ],
										"gridsnaponopen" : 0,
										"toolbarvisible" : 1,
										"boxanimatetime" : 200,
										"imprint" : 0,
										"metadata" : [  ],
										"boxes" : [ 											{
												"box" : 												{
													"maxclass" : "outlet",
													"numinlets" : 1,
													"numoutlets" : 0,
													"patching_rect" : [ 228.0, 424.0, 25.0, 25.0 ],
													"id" : "obj-33",
													"comment" : ""
												}

											}
, 											{
												"box" : 												{
													"maxclass" : "inlet",
													"numinlets" : 0,
													"numoutlets" : 1,
													"patching_rect" : [ 374.0, 20.0, 25.0, 25.0 ],
													"outlettype" : [ "" ],
													"id" : "obj-32",
													"comment" : ""
												}

											}
, 											{
												"box" : 												{
													"maxclass" : "inlet",
													"numinlets" : 0,
													"numoutlets" : 1,
													"patching_rect" : [ 329.0, 20.0, 25.0, 25.0 ],
													"outlettype" : [ "" ],
													"id" : "obj-6",
													"comment" : ""
												}

											}
, 											{
												"box" : 												{
													"maxclass" : "outlet",
													"numinlets" : 1,
													"numoutlets" : 0,
													"patching_rect" : [ 157.0, 422.0, 25.0, 25.0 ],
													"id" : "obj-31",
													"comment" : ""
												}

											}
, 											{
												"box" : 												{
													"maxclass" : "newobj",
													"text" : "p close",
													"numinlets" : 1,
													"fontsize" : 9.0,
													"numoutlets" : 1,
													"patching_rect" : [ 268.0, 77.0, 40.0, 17.0 ],
													"outlettype" : [ "int" ],
													"fontname" : "Arial",
													"id" : "obj-1",
													"patcher" : 													{
														"fileversion" : 1,
														"rect" : [ 10.0, 59.0, 128.0, 192.0 ],
														"bglocked" : 0,
														"defrect" : [ 10.0, 59.0, 128.0, 192.0 ],
														"openrect" : [ 0.0, 0.0, 0.0, 0.0 ],
														"openinpresentation" : 0,
														"default_fontsize" : 12.0,
														"default_fontface" : 0,
														"default_fontname" : "Arial",
														"gridonopen" : 0,
														"gridsize" : [ 2.0, 2.0 ],
														"gridsnaponopen" : 0,
														"toolbarvisible" : 1,
														"boxanimatetime" : 200,
														"imprint" : 0,
														"metadata" : [  ],
														"boxes" : [ 															{
																"box" : 																{
																	"maxclass" : "outlet",
																	"numinlets" : 1,
																	"numoutlets" : 0,
																	"patching_rect" : [ 30.0, 118.0, 15.0, 15.0 ],
																	"id" : "obj-1",
																	"comment" : ""
																}

															}
, 															{
																"box" : 																{
																	"maxclass" : "inlet",
																	"numinlets" : 0,
																	"numoutlets" : 1,
																	"patching_rect" : [ 30.0, 35.0, 15.0, 15.0 ],
																	"outlettype" : [ "" ],
																	"id" : "obj-2",
																	"comment" : ""
																}

															}
, 															{
																"box" : 																{
																	"maxclass" : "newobj",
																	"text" : "t 1",
																	"numinlets" : 1,
																	"fontsize" : 9.0,
																	"numoutlets" : 1,
																	"patching_rect" : [ 30.0, 96.0, 30.0, 17.0 ],
																	"outlettype" : [ "int" ],
																	"fontname" : "Arial",
																	"id" : "obj-3"
																}

															}
, 															{
																"box" : 																{
																	"maxclass" : "newobj",
																	"text" : "t b 0",
																	"numinlets" : 1,
																	"fontsize" : 9.0,
																	"numoutlets" : 2,
																	"patching_rect" : [ 30.0, 55.0, 30.0, 17.0 ],
																	"outlettype" : [ "bang", "int" ],
																	"fontname" : "Arial",
																	"id" : "obj-4"
																}

															}
, 															{
																"box" : 																{
																	"maxclass" : "newobj",
																	"text" : "del 20",
																	"numinlets" : 2,
																	"fontsize" : 9.0,
																	"numoutlets" : 1,
																	"patching_rect" : [ 30.0, 76.0, 35.0, 17.0 ],
																	"outlettype" : [ "bang" ],
																	"fontname" : "Arial",
																	"id" : "obj-5"
																}

															}
 ],
														"lines" : [ 															{
																"patchline" : 																{
																	"source" : [ "obj-2", 0 ],
																	"destination" : [ "obj-4", 0 ],
																	"hidden" : 0,
																	"midpoints" : [  ]
																}

															}
, 															{
																"patchline" : 																{
																	"source" : [ "obj-4", 0 ],
																	"destination" : [ "obj-5", 0 ],
																	"hidden" : 0,
																	"midpoints" : [  ]
																}

															}
, 															{
																"patchline" : 																{
																	"source" : [ "obj-5", 0 ],
																	"destination" : [ "obj-3", 0 ],
																	"hidden" : 0,
																	"midpoints" : [  ]
																}

															}
, 															{
																"patchline" : 																{
																	"source" : [ "obj-3", 0 ],
																	"destination" : [ "obj-1", 0 ],
																	"hidden" : 0,
																	"midpoints" : [  ]
																}

															}
 ]
													}
,
													"saved_object_attributes" : 													{
														"fontface" : 0,
														"fontsize" : 12.0,
														"default_fontname" : "Arial",
														"globalpatchername" : "",
														"default_fontsize" : 12.0,
														"fontname" : "Arial",
														"default_fontface" : 0
													}

												}

											}
, 											{
												"box" : 												{
													"maxclass" : "newobj",
													"text" : "t b",
													"numinlets" : 1,
													"fontsize" : 9.0,
													"numoutlets" : 1,
													"patching_rect" : [ 272.0, 335.0, 20.0, 17.0 ],
													"outlettype" : [ "bang" ],
													"fontname" : "Arial",
													"id" : "obj-2"
												}

											}
, 											{
												"box" : 												{
													"maxclass" : "newobj",
													"text" : "del 20",
													"numinlets" : 2,
													"fontsize" : 9.0,
													"numoutlets" : 1,
													"patching_rect" : [ 272.0, 356.0, 50.0, 17.0 ],
													"outlettype" : [ "bang" ],
													"fontname" : "Arial",
													"id" : "obj-3"
												}

											}
, 											{
												"box" : 												{
													"maxclass" : "newobj",
													"text" : "gate 1 0",
													"numinlets" : 2,
													"fontsize" : 9.0,
													"numoutlets" : 1,
													"patching_rect" : [ 269.0, 255.0, 50.0, 17.0 ],
													"outlettype" : [ "" ],
													"fontname" : "Arial",
													"id" : "obj-4"
												}

											}
, 											{
												"box" : 												{
													"maxclass" : "newobj",
													"text" : "t 0",
													"numinlets" : 1,
													"fontsize" : 9.0,
													"numoutlets" : 1,
													"patching_rect" : [ 162.0, 390.0, 21.0, 17.0 ],
													"outlettype" : [ "int" ],
													"fontname" : "Arial",
													"id" : "obj-5"
												}

											}
, 											{
												"box" : 												{
													"maxclass" : "newobj",
													"text" : "gate 1 0",
													"numinlets" : 2,
													"fontsize" : 9.0,
													"numoutlets" : 1,
													"patching_rect" : [ 162.0, 368.0, 50.0, 17.0 ],
													"outlettype" : [ "" ],
													"fontname" : "Arial",
													"id" : "obj-7"
												}

											}
, 											{
												"box" : 												{
													"maxclass" : "newobj",
													"text" : "r #0_fgtfedn",
													"numinlets" : 0,
													"fontsize" : 9.0,
													"numoutlets" : 1,
													"patching_rect" : [ 184.0, 332.0, 68.0, 17.0 ],
													"outlettype" : [ "" ],
													"fontname" : "Arial",
													"id" : "obj-8"
												}

											}
, 											{
												"box" : 												{
													"maxclass" : "newobj",
													"text" : "s #0_fgtfedn",
													"numinlets" : 1,
													"fontsize" : 9.0,
													"numoutlets" : 0,
													"patching_rect" : [ 116.0, 196.0, 68.0, 17.0 ],
													"fontname" : "Arial",
													"id" : "obj-9"
												}

											}
, 											{
												"box" : 												{
													"maxclass" : "newobj",
													"text" : "pack 0. 10",
													"numinlets" : 2,
													"fontsize" : 9.0,
													"numoutlets" : 1,
													"patching_rect" : [ 231.0, 303.0, 62.0, 17.0 ],
													"outlettype" : [ "" ],
													"fontname" : "Arial",
													"id" : "obj-10"
												}

											}
, 											{
												"box" : 												{
													"maxclass" : "comment",
													"text" : "stat",
													"numinlets" : 1,
													"fontsize" : 9.0,
													"numoutlets" : 0,
													"patching_rect" : [ 170.0, 243.0, 48.0, 17.0 ],
													"frgb" : [ 0.658824, 0.658824, 0.658824, 1.0 ],
													"fontname" : "Arial",
													"id" : "obj-11"
												}

											}
, 											{
												"box" : 												{
													"maxclass" : "newobj",
													"text" : "gate 1 0",
													"numinlets" : 2,
													"fontsize" : 9.0,
													"numoutlets" : 1,
													"patching_rect" : [ 226.0, 208.0, 50.0, 17.0 ],
													"outlettype" : [ "" ],
													"fontname" : "Arial",
													"id" : "obj-12"
												}

											}
, 											{
												"box" : 												{
													"maxclass" : "newobj",
													"text" : "s #1ffadv",
													"numinlets" : 1,
													"fontsize" : 9.0,
													"numoutlets" : 0,
													"patching_rect" : [ 104.0, 351.0, 50.0, 17.0 ],
													"fontname" : "Arial",
													"id" : "obj-13"
												}

											}
, 											{
												"box" : 												{
													"maxclass" : "newobj",
													"text" : "t 1.",
													"numinlets" : 1,
													"fontsize" : 9.0,
													"numoutlets" : 1,
													"patching_rect" : [ 226.0, 177.0, 21.0, 17.0 ],
													"outlettype" : [ "float" ],
													"fontname" : "Arial",
													"id" : "obj-14"
												}

											}
, 											{
												"box" : 												{
													"maxclass" : "newobj",
													"text" : "t 0.",
													"numinlets" : 1,
													"fontsize" : 9.0,
													"numoutlets" : 1,
													"patching_rect" : [ 255.0, 177.0, 21.0, 17.0 ],
													"outlettype" : [ "float" ],
													"fontname" : "Arial",
													"id" : "obj-15"
												}

											}
, 											{
												"box" : 												{
													"maxclass" : "comment",
													"text" : "descente",
													"numinlets" : 1,
													"fontsize" : 9.0,
													"numoutlets" : 0,
													"patching_rect" : [ 104.0, 243.0, 48.0, 17.0 ],
													"frgb" : [ 0.658824, 0.658824, 0.658824, 1.0 ],
													"fontname" : "Arial",
													"id" : "obj-16"
												}

											}
, 											{
												"box" : 												{
													"maxclass" : "newobj",
													"text" : "* 1000.",
													"numinlets" : 2,
													"fontsize" : 9.0,
													"numoutlets" : 1,
													"patching_rect" : [ 156.0, 284.0, 45.0, 17.0 ],
													"outlettype" : [ "float" ],
													"fontname" : "Arial",
													"id" : "obj-17"
												}

											}
, 											{
												"box" : 												{
													"maxclass" : "newobj",
													"text" : "pack 0. 100",
													"numinlets" : 2,
													"fontsize" : 9.0,
													"numoutlets" : 1,
													"patching_rect" : [ 104.0, 305.0, 62.0, 17.0 ],
													"outlettype" : [ "" ],
													"fontname" : "Arial",
													"id" : "obj-18"
												}

											}
, 											{
												"box" : 												{
													"maxclass" : "newobj",
													"text" : "line 0.",
													"numinlets" : 3,
													"fontsize" : 9.0,
													"numoutlets" : 3,
													"patching_rect" : [ 104.0, 329.0, 75.0, 17.0 ],
													"outlettype" : [ "", "", "" ],
													"fontname" : "Arial",
													"id" : "obj-19"
												}

											}
, 											{
												"box" : 												{
													"maxclass" : "newobj",
													"text" : "gate 1 0",
													"numinlets" : 2,
													"fontsize" : 9.0,
													"numoutlets" : 1,
													"patching_rect" : [ 94.0, 222.0, 50.0, 17.0 ],
													"outlettype" : [ "" ],
													"fontname" : "Arial",
													"id" : "obj-21"
												}

											}
, 											{
												"box" : 												{
													"maxclass" : "newobj",
													"text" : "gate 1 0",
													"numinlets" : 2,
													"fontsize" : 9.0,
													"numoutlets" : 1,
													"patching_rect" : [ 34.0, 222.0, 50.0, 17.0 ],
													"outlettype" : [ "" ],
													"fontname" : "Arial",
													"id" : "obj-22"
												}

											}
, 											{
												"box" : 												{
													"maxclass" : "newobj",
													"text" : "t 1 0 0 1",
													"numinlets" : 1,
													"fontsize" : 9.0,
													"numoutlets" : 4,
													"patching_rect" : [ 138.0, 102.0, 49.0, 17.0 ],
													"outlettype" : [ "int", "int", "int", "int" ],
													"fontname" : "Arial",
													"id" : "obj-23"
												}

											}
, 											{
												"box" : 												{
													"maxclass" : "newobj",
													"text" : "t 1 0 0",
													"numinlets" : 1,
													"fontsize" : 9.0,
													"numoutlets" : 3,
													"patching_rect" : [ 91.0, 102.0, 41.0, 17.0 ],
													"outlettype" : [ "int", "int", "int" ],
													"fontname" : "Arial",
													"id" : "obj-24"
												}

											}
, 											{
												"box" : 												{
													"maxclass" : "newobj",
													"text" : "sel 1 0",
													"numinlets" : 1,
													"fontsize" : 9.0,
													"numoutlets" : 3,
													"patching_rect" : [ 226.0, 153.0, 69.0, 17.0 ],
													"outlettype" : [ "bang", "bang", "" ],
													"fontname" : "Arial",
													"id" : "obj-25"
												}

											}
, 											{
												"box" : 												{
													"maxclass" : "inlet",
													"numinlets" : 0,
													"numoutlets" : 1,
													"patching_rect" : [ 226.0, 133.0, 15.0, 15.0 ],
													"outlettype" : [ "int" ],
													"id" : "obj-26",
													"comment" : ""
												}

											}
, 											{
												"box" : 												{
													"maxclass" : "newobj",
													"text" : "t 0 0 1",
													"numinlets" : 1,
													"fontsize" : 9.0,
													"numoutlets" : 3,
													"patching_rect" : [ 44.0, 102.0, 41.0, 17.0 ],
													"outlettype" : [ "int", "int", "int" ],
													"fontname" : "Arial",
													"id" : "obj-27"
												}

											}
, 											{
												"box" : 												{
													"maxclass" : "newobj",
													"text" : "sel 0 1 2",
													"numinlets" : 1,
													"fontsize" : 9.0,
													"numoutlets" : 4,
													"patching_rect" : [ 44.0, 80.0, 152.0, 17.0 ],
													"outlettype" : [ "bang", "bang", "bang", "" ],
													"fontname" : "Arial",
													"id" : "obj-28"
												}

											}
, 											{
												"box" : 												{
													"maxclass" : "comment",
													"text" : "monte",
													"numinlets" : 1,
													"fontsize" : 9.0,
													"numoutlets" : 0,
													"patching_rect" : [ 45.0, 242.0, 41.0, 17.0 ],
													"frgb" : [ 0.658824, 0.658824, 0.658824, 1.0 ],
													"fontname" : "Arial",
													"id" : "obj-30"
												}

											}
 ],
										"lines" : [ 											{
												"patchline" : 												{
													"source" : [ "obj-5", 0 ],
													"destination" : [ "obj-31", 0 ],
													"hidden" : 0,
													"midpoints" : [  ]
												}

											}
, 											{
												"patchline" : 												{
													"source" : [ "obj-24", 0 ],
													"destination" : [ "obj-22", 0 ],
													"hidden" : 0,
													"midpoints" : [  ]
												}

											}
, 											{
												"patchline" : 												{
													"source" : [ "obj-27", 0 ],
													"destination" : [ "obj-22", 0 ],
													"hidden" : 0,
													"midpoints" : [  ]
												}

											}
, 											{
												"patchline" : 												{
													"source" : [ "obj-23", 1 ],
													"destination" : [ "obj-22", 0 ],
													"hidden" : 0,
													"midpoints" : [  ]
												}

											}
, 											{
												"patchline" : 												{
													"source" : [ "obj-28", 0 ],
													"destination" : [ "obj-27", 0 ],
													"hidden" : 0,
													"midpoints" : [  ]
												}

											}
, 											{
												"patchline" : 												{
													"source" : [ "obj-14", 0 ],
													"destination" : [ "obj-22", 1 ],
													"hidden" : 0,
													"midpoints" : [  ]
												}

											}
, 											{
												"patchline" : 												{
													"source" : [ "obj-28", 1 ],
													"destination" : [ "obj-24", 0 ],
													"hidden" : 0,
													"midpoints" : [  ]
												}

											}
, 											{
												"patchline" : 												{
													"source" : [ "obj-27", 1 ],
													"destination" : [ "obj-21", 0 ],
													"hidden" : 0,
													"midpoints" : [  ]
												}

											}
, 											{
												"patchline" : 												{
													"source" : [ "obj-23", 0 ],
													"destination" : [ "obj-21", 0 ],
													"hidden" : 0,
													"midpoints" : [  ]
												}

											}
, 											{
												"patchline" : 												{
													"source" : [ "obj-24", 1 ],
													"destination" : [ "obj-21", 0 ],
													"hidden" : 0,
													"midpoints" : [  ]
												}

											}
, 											{
												"patchline" : 												{
													"source" : [ "obj-22", 0 ],
													"destination" : [ "obj-18", 0 ],
													"hidden" : 0,
													"midpoints" : [  ]
												}

											}
, 											{
												"patchline" : 												{
													"source" : [ "obj-21", 0 ],
													"destination" : [ "obj-18", 0 ],
													"hidden" : 0,
													"midpoints" : [  ]
												}

											}
, 											{
												"patchline" : 												{
													"source" : [ "obj-18", 0 ],
													"destination" : [ "obj-19", 0 ],
													"hidden" : 0,
													"midpoints" : [  ]
												}

											}
, 											{
												"patchline" : 												{
													"source" : [ "obj-10", 0 ],
													"destination" : [ "obj-19", 0 ],
													"hidden" : 0,
													"midpoints" : [ 240.5, 324.0, 113.5, 324.0 ]
												}

											}
, 											{
												"patchline" : 												{
													"source" : [ "obj-19", 0 ],
													"destination" : [ "obj-13", 0 ],
													"hidden" : 0,
													"midpoints" : [  ]
												}

											}
, 											{
												"patchline" : 												{
													"source" : [ "obj-15", 0 ],
													"destination" : [ "obj-21", 1 ],
													"hidden" : 0,
													"midpoints" : [  ]
												}

											}
, 											{
												"patchline" : 												{
													"source" : [ "obj-28", 2 ],
													"destination" : [ "obj-23", 0 ],
													"hidden" : 0,
													"midpoints" : [  ]
												}

											}
, 											{
												"patchline" : 												{
													"source" : [ "obj-17", 0 ],
													"destination" : [ "obj-18", 1 ],
													"hidden" : 0,
													"midpoints" : [  ]
												}

											}
, 											{
												"patchline" : 												{
													"source" : [ "obj-7", 0 ],
													"destination" : [ "obj-5", 0 ],
													"hidden" : 0,
													"midpoints" : [  ]
												}

											}
, 											{
												"patchline" : 												{
													"source" : [ "obj-3", 0 ],
													"destination" : [ "obj-5", 0 ],
													"hidden" : 0,
													"midpoints" : [ 281.5, 387.0, 171.5, 387.0 ]
												}

											}
, 											{
												"patchline" : 												{
													"source" : [ "obj-19", 1 ],
													"destination" : [ "obj-7", 1 ],
													"hidden" : 0,
													"midpoints" : [  ]
												}

											}
, 											{
												"patchline" : 												{
													"source" : [ "obj-26", 0 ],
													"destination" : [ "obj-25", 0 ],
													"hidden" : 0,
													"midpoints" : [  ]
												}

											}
, 											{
												"patchline" : 												{
													"source" : [ "obj-25", 0 ],
													"destination" : [ "obj-14", 0 ],
													"hidden" : 0,
													"midpoints" : [  ]
												}

											}
, 											{
												"patchline" : 												{
													"source" : [ "obj-27", 2 ],
													"destination" : [ "obj-12", 0 ],
													"hidden" : 0,
													"midpoints" : [  ]
												}

											}
, 											{
												"patchline" : 												{
													"source" : [ "obj-24", 2 ],
													"destination" : [ "obj-12", 0 ],
													"hidden" : 0,
													"midpoints" : [  ]
												}

											}
, 											{
												"patchline" : 												{
													"source" : [ "obj-23", 3 ],
													"destination" : [ "obj-12", 0 ],
													"hidden" : 0,
													"midpoints" : [  ]
												}

											}
, 											{
												"patchline" : 												{
													"source" : [ "obj-4", 0 ],
													"destination" : [ "obj-10", 0 ],
													"hidden" : 0,
													"midpoints" : [  ]
												}

											}
, 											{
												"patchline" : 												{
													"source" : [ "obj-12", 0 ],
													"destination" : [ "obj-10", 0 ],
													"hidden" : 0,
													"midpoints" : [  ]
												}

											}
, 											{
												"patchline" : 												{
													"source" : [ "obj-25", 1 ],
													"destination" : [ "obj-15", 0 ],
													"hidden" : 0,
													"midpoints" : [  ]
												}

											}
, 											{
												"patchline" : 												{
													"source" : [ "obj-14", 0 ],
													"destination" : [ "obj-12", 1 ],
													"hidden" : 0,
													"midpoints" : [  ]
												}

											}
, 											{
												"patchline" : 												{
													"source" : [ "obj-24", 0 ],
													"destination" : [ "obj-4", 0 ],
													"hidden" : 0,
													"midpoints" : [  ]
												}

											}
, 											{
												"patchline" : 												{
													"source" : [ "obj-27", 2 ],
													"destination" : [ "obj-4", 0 ],
													"hidden" : 0,
													"midpoints" : [  ]
												}

											}
, 											{
												"patchline" : 												{
													"source" : [ "obj-23", 2 ],
													"destination" : [ "obj-4", 0 ],
													"hidden" : 0,
													"midpoints" : [  ]
												}

											}
, 											{
												"patchline" : 												{
													"source" : [ "obj-4", 0 ],
													"destination" : [ "obj-2", 0 ],
													"hidden" : 0,
													"midpoints" : [  ]
												}

											}
, 											{
												"patchline" : 												{
													"source" : [ "obj-2", 0 ],
													"destination" : [ "obj-3", 0 ],
													"hidden" : 0,
													"midpoints" : [  ]
												}

											}
, 											{
												"patchline" : 												{
													"source" : [ "obj-15", 0 ],
													"destination" : [ "obj-4", 1 ],
													"hidden" : 0,
													"midpoints" : [  ]
												}

											}
, 											{
												"patchline" : 												{
													"source" : [ "obj-6", 0 ],
													"destination" : [ "obj-28", 0 ],
													"hidden" : 0,
													"midpoints" : [ 338.5, 63.0, 54.0, 63.0, 54.0, 75.0, 53.5, 75.0 ]
												}

											}
, 											{
												"patchline" : 												{
													"source" : [ "obj-32", 0 ],
													"destination" : [ "obj-17", 0 ],
													"hidden" : 0,
													"midpoints" : [ 383.5, 120.0, 198.0, 120.0, 198.0, 228.0, 153.0, 228.0, 153.0, 279.0, 165.5, 279.0 ]
												}

											}
, 											{
												"patchline" : 												{
													"source" : [ "obj-23", 0 ],
													"destination" : [ "obj-9", 0 ],
													"hidden" : 0,
													"midpoints" : [  ]
												}

											}
, 											{
												"patchline" : 												{
													"source" : [ "obj-24", 1 ],
													"destination" : [ "obj-9", 0 ],
													"hidden" : 0,
													"midpoints" : [  ]
												}

											}
, 											{
												"patchline" : 												{
													"source" : [ "obj-27", 1 ],
													"destination" : [ "obj-9", 0 ],
													"hidden" : 0,
													"midpoints" : [  ]
												}

											}
, 											{
												"patchline" : 												{
													"source" : [ "obj-8", 0 ],
													"destination" : [ "obj-7", 0 ],
													"hidden" : 0,
													"midpoints" : [  ]
												}

											}
, 											{
												"patchline" : 												{
													"source" : [ "obj-19", 0 ],
													"destination" : [ "obj-33", 0 ],
													"hidden" : 0,
													"midpoints" : [  ]
												}

											}
 ]
									}
,
									"saved_object_attributes" : 									{
										"fontface" : 0,
										"fontsize" : 12.0,
										"default_fontname" : "Arial",
										"globalpatchername" : "",
										"default_fontsize" : 12.0,
										"fontname" : "Arial",
										"default_fontface" : 0
									}

								}

							}
, 							{
								"box" : 								{
									"maxclass" : "newobj",
									"text" : "sel 1",
									"numinlets" : 2,
									"fontsize" : 9.0,
									"numoutlets" : 2,
									"patching_rect" : [ 81.0, 251.0, 31.0, 17.0 ],
									"outlettype" : [ "bang", "" ],
									"fontname" : "Arial",
									"id" : "obj-15"
								}

							}
, 							{
								"box" : 								{
									"maxclass" : "newobj",
									"text" : "i",
									"numinlets" : 2,
									"fontsize" : 9.0,
									"numoutlets" : 1,
									"patching_rect" : [ 203.0, 291.0, 24.0, 17.0 ],
									"outlettype" : [ "int" ],
									"fontname" : "Arial",
									"id" : "obj-16"
								}

							}
, 							{
								"box" : 								{
									"maxclass" : "newobj",
									"text" : "t b i i",
									"numinlets" : 1,
									"fontsize" : 9.0,
									"numoutlets" : 3,
									"patching_rect" : [ 135.0, 64.0, 93.0, 17.0 ],
									"outlettype" : [ "bang", "int", "int" ],
									"fontname" : "Arial",
									"id" : "obj-18"
								}

							}
, 							{
								"box" : 								{
									"maxclass" : "newobj",
									"text" : "change",
									"linecount" : 2,
									"numinlets" : 1,
									"fontsize" : 9.0,
									"numoutlets" : 3,
									"patching_rect" : [ 176.0, 87.0, 35.0, 27.0 ],
									"outlettype" : [ "", "int", "int" ],
									"fontname" : "Arial",
									"id" : "obj-19"
								}

							}
, 							{
								"box" : 								{
									"maxclass" : "inlet",
									"numinlets" : 0,
									"numoutlets" : 1,
									"patching_rect" : [ 135.0, 18.0, 15.0, 15.0 ],
									"outlettype" : [ "int" ],
									"id" : "obj-21",
									"comment" : ""
								}

							}
 ],
						"lines" : [ 							{
								"patchline" : 								{
									"source" : [ "obj-14", 0 ],
									"destination" : [ "obj-22", 0 ],
									"hidden" : 0,
									"midpoints" : [  ]
								}

							}
, 							{
								"patchline" : 								{
									"source" : [ "obj-16", 0 ],
									"destination" : [ "obj-22", 0 ],
									"hidden" : 0,
									"midpoints" : [  ]
								}

							}
, 							{
								"patchline" : 								{
									"source" : [ "obj-9", 0 ],
									"destination" : [ "obj-7", 0 ],
									"hidden" : 0,
									"midpoints" : [  ]
								}

							}
, 							{
								"patchline" : 								{
									"source" : [ "obj-7", 0 ],
									"destination" : [ "obj-6", 0 ],
									"hidden" : 0,
									"midpoints" : [  ]
								}

							}
, 							{
								"patchline" : 								{
									"source" : [ "obj-6", 0 ],
									"destination" : [ "obj-5", 0 ],
									"hidden" : 0,
									"midpoints" : [  ]
								}

							}
, 							{
								"patchline" : 								{
									"source" : [ "obj-13", 0 ],
									"destination" : [ "obj-14", 0 ],
									"hidden" : 0,
									"midpoints" : [ 90.5, 242.0, 40.5, 242.0 ]
								}

							}
, 							{
								"patchline" : 								{
									"source" : [ "obj-6", 1 ],
									"destination" : [ "obj-4", 0 ],
									"hidden" : 0,
									"midpoints" : [  ]
								}

							}
, 							{
								"patchline" : 								{
									"source" : [ "obj-9", 1 ],
									"destination" : [ "obj-8", 0 ],
									"hidden" : 0,
									"midpoints" : [  ]
								}

							}
, 							{
								"patchline" : 								{
									"source" : [ "obj-6", 2 ],
									"destination" : [ "obj-3", 0 ],
									"hidden" : 0,
									"midpoints" : [  ]
								}

							}
, 							{
								"patchline" : 								{
									"source" : [ "obj-8", 0 ],
									"destination" : [ "obj-7", 1 ],
									"hidden" : 0,
									"midpoints" : [ 60.5, 143.0, 77.5, 143.0 ]
								}

							}
, 							{
								"patchline" : 								{
									"source" : [ "obj-10", 0 ],
									"destination" : [ "obj-8", 1 ],
									"hidden" : 0,
									"midpoints" : [ 101.5, 115.0, 79.5, 115.0 ]
								}

							}
, 							{
								"patchline" : 								{
									"source" : [ "obj-1", 0 ],
									"destination" : [ "obj-13", 0 ],
									"hidden" : 0,
									"midpoints" : [ 127.5, 217.0, 90.5, 217.0 ]
								}

							}
, 							{
								"patchline" : 								{
									"source" : [ "obj-2", 0 ],
									"destination" : [ "obj-13", 0 ],
									"hidden" : 0,
									"midpoints" : [ 100.5, 217.0, 90.5, 217.0 ]
								}

							}
, 							{
								"patchline" : 								{
									"source" : [ "obj-3", 0 ],
									"destination" : [ "obj-13", 0 ],
									"hidden" : 0,
									"midpoints" : [ 73.5, 217.0, 90.5, 217.0 ]
								}

							}
, 							{
								"patchline" : 								{
									"source" : [ "obj-4", 0 ],
									"destination" : [ "obj-13", 0 ],
									"hidden" : 0,
									"midpoints" : [ 46.5, 217.0, 90.5, 217.0 ]
								}

							}
, 							{
								"patchline" : 								{
									"source" : [ "obj-5", 0 ],
									"destination" : [ "obj-13", 0 ],
									"hidden" : 0,
									"midpoints" : [ 19.5, 217.0, 90.5, 217.0 ]
								}

							}
, 							{
								"patchline" : 								{
									"source" : [ "obj-13", 0 ],
									"destination" : [ "obj-15", 0 ],
									"hidden" : 0,
									"midpoints" : [  ]
								}

							}
, 							{
								"patchline" : 								{
									"source" : [ "obj-6", 3 ],
									"destination" : [ "obj-2", 0 ],
									"hidden" : 0,
									"midpoints" : [  ]
								}

							}
, 							{
								"patchline" : 								{
									"source" : [ "obj-9", 2 ],
									"destination" : [ "obj-10", 0 ],
									"hidden" : 0,
									"midpoints" : [  ]
								}

							}
, 							{
								"patchline" : 								{
									"source" : [ "obj-6", 4 ],
									"destination" : [ "obj-1", 0 ],
									"hidden" : 0,
									"midpoints" : [  ]
								}

							}
, 							{
								"patchline" : 								{
									"source" : [ "obj-12", 0 ],
									"destination" : [ "obj-7", 2 ],
									"hidden" : 0,
									"midpoints" : [  ]
								}

							}
, 							{
								"patchline" : 								{
									"source" : [ "obj-21", 0 ],
									"destination" : [ "obj-11", 0 ],
									"hidden" : 0,
									"midpoints" : [  ]
								}

							}
, 							{
								"patchline" : 								{
									"source" : [ "obj-11", 0 ],
									"destination" : [ "obj-18", 0 ],
									"hidden" : 0,
									"midpoints" : [  ]
								}

							}
, 							{
								"patchline" : 								{
									"source" : [ "obj-18", 0 ],
									"destination" : [ "obj-12", 0 ],
									"hidden" : 0,
									"midpoints" : [  ]
								}

							}
, 							{
								"patchline" : 								{
									"source" : [ "obj-19", 0 ],
									"destination" : [ "obj-12", 1 ],
									"hidden" : 0,
									"midpoints" : [ 185.5, 109.0, 163.5, 109.0 ]
								}

							}
, 							{
								"patchline" : 								{
									"source" : [ "obj-18", 1 ],
									"destination" : [ "obj-19", 0 ],
									"hidden" : 0,
									"midpoints" : [  ]
								}

							}
, 							{
								"patchline" : 								{
									"source" : [ "obj-15", 0 ],
									"destination" : [ "obj-16", 0 ],
									"hidden" : 0,
									"midpoints" : [ 90.5, 278.0, 212.5, 278.0 ]
								}

							}
, 							{
								"patchline" : 								{
									"source" : [ "obj-18", 2 ],
									"destination" : [ "obj-16", 1 ],
									"hidden" : 0,
									"midpoints" : [  ]
								}

							}
, 							{
								"patchline" : 								{
									"source" : [ "obj-20", 0 ],
									"destination" : [ "obj-9", 0 ],
									"hidden" : 0,
									"midpoints" : [ 263.0, 33.0, 19.5, 33.0 ]
								}

							}
, 							{
								"patchline" : 								{
									"source" : [ "obj-23", 0 ],
									"destination" : [ "obj-14", 1 ],
									"hidden" : 0,
									"midpoints" : [ 293.0, 246.0, 53.5, 246.0 ]
								}

							}
, 							{
								"patchline" : 								{
									"source" : [ "obj-24", 0 ],
									"destination" : [ "obj-14", 2 ],
									"hidden" : 0,
									"midpoints" : [ 319.0, 246.0, 66.5, 246.0 ]
								}

							}
, 							{
								"patchline" : 								{
									"source" : [ "obj-14", 1 ],
									"destination" : [ "obj-25", 0 ],
									"hidden" : 0,
									"midpoints" : [  ]
								}

							}
 ]
					}
,
					"saved_object_attributes" : 					{
						"fontface" : 0,
						"fontsize" : 12.0,
						"default_fontname" : "Arial",
						"globalpatchername" : "",
						"default_fontsize" : 12.0,
						"fontname" : "Arial",
						"default_fontface" : 0
					}

				}

			}
, 			{
				"box" : 				{
					"maxclass" : "newobj",
					"text" : "jcom.oscroute /play /rampmode /ramptime /pitch /loopmode",
					"numinlets" : 1,
					"fontsize" : 12.0,
					"numoutlets" : 6,
					"patching_rect" : [ 304.0, 126.0, 328.0, 20.0 ],
					"outlettype" : [ "", "", "", "", "", "" ],
					"fontname" : "Arial",
					"id" : "obj-58"
				}

			}
, 			{
				"box" : 				{
					"maxclass" : "newobj",
					"text" : "jcom.oscroute /mainfolder /selectedfile /sf",
					"numinlets" : 1,
					"fontsize" : 12.0,
					"numoutlets" : 4,
					"patching_rect" : [ 128.0, 100.0, 283.0, 20.0 ],
					"outlettype" : [ "", "", "", "" ],
					"fontname" : "Arial",
					"id" : "obj-56"
				}

			}
, 			{
				"box" : 				{
					"maxclass" : "newobj",
					"text" : "prepend speed",
					"numinlets" : 1,
					"fontsize" : 9.0,
					"numoutlets" : 1,
					"patching_rect" : [ 485.0, 164.0, 72.0, 17.0 ],
					"outlettype" : [ "" ],
					"fontname" : "Arial",
					"id" : "obj-36"
				}

			}
, 			{
				"box" : 				{
					"maxclass" : "newobj",
					"text" : "prepend loop",
					"numinlets" : 1,
					"fontsize" : 9.0,
					"numoutlets" : 1,
					"patching_rect" : [ 566.0, 164.0, 62.0, 17.0 ],
					"outlettype" : [ "" ],
					"fontname" : "Arial",
					"id" : "obj-46"
				}

			}
, 			{
				"box" : 				{
					"maxclass" : "newobj",
					"text" : "sfplay~ 2 60480 1",
					"numinlets" : 2,
					"fontsize" : 9.0,
					"numoutlets" : 4,
					"patching_rect" : [ 128.0, 198.0, 108.0, 17.0 ],
					"outlettype" : [ "signal", "signal", "signal", "bang" ],
					"fontname" : "Arial",
					"id" : "obj-48",
					"save" : [ "#N", "sfplay~", "", 2, 60480, 1, "", ";" ]
				}

			}
, 			{
				"box" : 				{
					"maxclass" : "newobj",
					"text" : "p preload",
					"numinlets" : 1,
					"fontsize" : 12.0,
					"numoutlets" : 1,
					"patching_rect" : [ 128.0, 162.0, 80.0, 20.0 ],
					"outlettype" : [ "" ],
					"fontname" : "Arial",
					"id" : "obj-3",
					"patcher" : 					{
						"fileversion" : 1,
						"rect" : [ 4.0, 46.0, 332.0, 386.0 ],
						"bglocked" : 0,
						"defrect" : [ 4.0, 46.0, 332.0, 386.0 ],
						"openrect" : [ 0.0, 0.0, 0.0, 0.0 ],
						"openinpresentation" : 0,
						"default_fontsize" : 12.0,
						"default_fontface" : 0,
						"default_fontname" : "Arial",
						"gridonopen" : 0,
						"gridsize" : [ 2.0, 2.0 ],
						"gridsnaponopen" : 0,
						"toolbarvisible" : 1,
						"boxanimatetime" : 200,
						"imprint" : 0,
						"metadata" : [  ],
						"boxes" : [ 							{
								"box" : 								{
									"maxclass" : "outlet",
									"numinlets" : 1,
									"numoutlets" : 0,
									"patching_rect" : [ 33.0, 317.0, 15.0, 15.0 ],
									"id" : "obj-1",
									"comment" : ""
								}

							}
, 							{
								"box" : 								{
									"maxclass" : "newobj",
									"text" : "prepend preload",
									"numinlets" : 1,
									"fontsize" : 9.0,
									"numoutlets" : 1,
									"patching_rect" : [ 33.0, 288.0, 80.0, 17.0 ],
									"outlettype" : [ "" ],
									"fontname" : "Arial",
									"id" : "obj-2"
								}

							}
, 							{
								"box" : 								{
									"maxclass" : "newobj",
									"text" : "pack 2 bla",
									"numinlets" : 2,
									"fontsize" : 9.0,
									"numoutlets" : 1,
									"patching_rect" : [ 33.0, 266.0, 71.0, 17.0 ],
									"outlettype" : [ "" ],
									"fontname" : "Arial",
									"id" : "obj-4"
								}

							}
, 							{
								"box" : 								{
									"maxclass" : "newobj",
									"text" : "+ 1",
									"numinlets" : 2,
									"fontsize" : 9.0,
									"numoutlets" : 1,
									"patching_rect" : [ 65.0, 215.0, 27.0, 17.0 ],
									"outlettype" : [ "int" ],
									"fontname" : "Arial",
									"id" : "obj-5"
								}

							}
, 							{
								"box" : 								{
									"maxclass" : "newobj",
									"text" : "i",
									"numinlets" : 2,
									"fontsize" : 9.0,
									"numoutlets" : 1,
									"patching_rect" : [ 33.0, 239.0, 42.0, 17.0 ],
									"outlettype" : [ "int" ],
									"fontname" : "Arial",
									"id" : "obj-6"
								}

							}
, 							{
								"box" : 								{
									"maxclass" : "newobj",
									"text" : "prepend open",
									"numinlets" : 1,
									"fontsize" : 9.0,
									"numoutlets" : 1,
									"patching_rect" : [ 185.0, 232.0, 65.0, 17.0 ],
									"outlettype" : [ "" ],
									"fontname" : "Arial",
									"id" : "obj-7"
								}

							}
, 							{
								"box" : 								{
									"maxclass" : "newobj",
									"text" : "gate 2",
									"numinlets" : 2,
									"fontsize" : 9.0,
									"numoutlets" : 2,
									"patching_rect" : [ 106.0, 211.0, 89.0, 17.0 ],
									"outlettype" : [ "", "" ],
									"fontname" : "Arial",
									"id" : "obj-8"
								}

							}
, 							{
								"box" : 								{
									"maxclass" : "newobj",
									"text" : "t i 1 b 2",
									"numinlets" : 1,
									"fontsize" : 9.0,
									"numoutlets" : 4,
									"patching_rect" : [ 121.0, 132.0, 163.0, 17.0 ],
									"outlettype" : [ "int", "int", "bang", "int" ],
									"fontname" : "Arial",
									"id" : "obj-9"
								}

							}
, 							{
								"box" : 								{
									"maxclass" : "newobj",
									"text" : "route count",
									"numinlets" : 1,
									"fontsize" : 9.0,
									"numoutlets" : 2,
									"patching_rect" : [ 121.0, 113.0, 60.0, 17.0 ],
									"outlettype" : [ "", "" ],
									"fontname" : "Arial",
									"id" : "obj-10"
								}

							}
, 							{
								"box" : 								{
									"maxclass" : "newobj",
									"text" : "- 1",
									"numinlets" : 2,
									"fontsize" : 9.0,
									"numoutlets" : 1,
									"patching_rect" : [ 121.0, 152.0, 27.0, 17.0 ],
									"outlettype" : [ "int" ],
									"fontname" : "Arial",
									"id" : "obj-11"
								}

							}
, 							{
								"box" : 								{
									"maxclass" : "newobj",
									"text" : "Uzi",
									"numinlets" : 2,
									"fontsize" : 9.0,
									"numoutlets" : 3,
									"patching_rect" : [ 121.0, 173.0, 40.0, 17.0 ],
									"outlettype" : [ "bang", "bang", "int" ],
									"fontname" : "Arial",
									"id" : "obj-12"
								}

							}
, 							{
								"box" : 								{
									"maxclass" : "newobj",
									"text" : "t count s",
									"numinlets" : 1,
									"fontsize" : 9.0,
									"numoutlets" : 2,
									"patching_rect" : [ 65.0, 69.0, 50.0, 17.0 ],
									"outlettype" : [ "count", "" ],
									"fontname" : "Arial",
									"id" : "obj-13"
								}

							}
, 							{
								"box" : 								{
									"maxclass" : "umenu",
									"prefix" : "Cervo:/Users/pascalbaltazar/Music/nanakitsch/soma_sema/sfplay/",
									"numinlets" : 1,
									"fontsize" : 9.0,
									"numoutlets" : 3,
									"patching_rect" : [ 67.0, 91.0, 66.0, 17.0 ],
									"autopopulate" : 1,
									"arrowcolor" : [ 0.22, 0.22, 0.22, 1.0 ],
									"outlettype" : [ "int", "", "" ],
									"items" : [ "Bass_Megane.aif", ",", "craqtsGorla", ",", "fin_clochettes", ",", "pas_Chlo" ],
									"arrowbgcolor" : [ 0.86, 0.86, 0.86, 1.0 ],
									"framecolor" : [ 0.5, 0.5, 0.5, 1.0 ],
									"fontname" : "Arial",
									"types" : [ "AIFF", "WAVE", "Sd2f" ],
									"arrow" : 0,
									"bgcolor" : [ 1.0, 1.0, 1.0, 1.0 ],
									"discolor" : [ 0.43, 0.43, 0.43, 1.0 ],
									"id" : "obj-14",
									"togcolor" : [ 0.55, 0.55, 0.55, 1.0 ],
									"textcolor" : [ 0.15, 0.15, 0.15, 1.0 ],
									"arrowlink" : 1
								}

							}
, 							{
								"box" : 								{
									"maxclass" : "inlet",
									"numinlets" : 0,
									"numoutlets" : 1,
									"patching_rect" : [ 64.0, 36.0, 25.0, 25.0 ],
									"outlettype" : [ "" ],
									"id" : "obj-3",
									"comment" : ""
								}

							}
 ],
						"lines" : [ 							{
								"patchline" : 								{
									"source" : [ "obj-3", 0 ],
									"destination" : [ "obj-13", 0 ],
									"hidden" : 0,
									"midpoints" : [  ]
								}

							}
, 							{
								"patchline" : 								{
									"source" : [ "obj-12", 0 ],
									"destination" : [ "obj-6", 0 ],
									"hidden" : 0,
									"midpoints" : [  ]
								}

							}
, 							{
								"patchline" : 								{
									"source" : [ "obj-6", 0 ],
									"destination" : [ "obj-4", 0 ],
									"hidden" : 0,
									"midpoints" : [  ]
								}

							}
, 							{
								"patchline" : 								{
									"source" : [ "obj-4", 0 ],
									"destination" : [ "obj-2", 0 ],
									"hidden" : 0,
									"midpoints" : [  ]
								}

							}
, 							{
								"patchline" : 								{
									"source" : [ "obj-2", 0 ],
									"destination" : [ "obj-1", 0 ],
									"hidden" : 0,
									"midpoints" : [  ]
								}

							}
, 							{
								"patchline" : 								{
									"source" : [ "obj-7", 0 ],
									"destination" : [ "obj-1", 0 ],
									"hidden" : 0,
									"midpoints" : [ 194.5, 311.0, 42.0, 311.0 ]
								}

							}
, 							{
								"patchline" : 								{
									"source" : [ "obj-12", 2 ],
									"destination" : [ "obj-14", 0 ],
									"hidden" : 0,
									"midpoints" : [ 151.5, 192.0, 63.0, 192.0, 63.0, 87.0, 76.5, 87.0 ]
								}

							}
, 							{
								"patchline" : 								{
									"source" : [ "obj-9", 2 ],
									"destination" : [ "obj-14", 0 ],
									"hidden" : 0,
									"midpoints" : [ 226.5, 192.0, 63.0, 192.0, 63.0, 87.0, 76.5, 87.0 ]
								}

							}
, 							{
								"patchline" : 								{
									"source" : [ "obj-13", 0 ],
									"destination" : [ "obj-14", 0 ],
									"hidden" : 0,
									"midpoints" : [  ]
								}

							}
, 							{
								"patchline" : 								{
									"source" : [ "obj-13", 1 ],
									"destination" : [ "obj-14", 0 ],
									"hidden" : 0,
									"midpoints" : [  ]
								}

							}
, 							{
								"patchline" : 								{
									"source" : [ "obj-14", 0 ],
									"destination" : [ "obj-5", 0 ],
									"hidden" : 0,
									"midpoints" : [  ]
								}

							}
, 							{
								"patchline" : 								{
									"source" : [ "obj-5", 0 ],
									"destination" : [ "obj-6", 1 ],
									"hidden" : 0,
									"midpoints" : [  ]
								}

							}
, 							{
								"patchline" : 								{
									"source" : [ "obj-8", 0 ],
									"destination" : [ "obj-4", 1 ],
									"hidden" : 0,
									"midpoints" : [  ]
								}

							}
, 							{
								"patchline" : 								{
									"source" : [ "obj-9", 1 ],
									"destination" : [ "obj-8", 0 ],
									"hidden" : 0,
									"midpoints" : [ 178.5, 201.0, 115.5, 201.0 ]
								}

							}
, 							{
								"patchline" : 								{
									"source" : [ "obj-9", 3 ],
									"destination" : [ "obj-8", 0 ],
									"hidden" : 0,
									"midpoints" : [ 274.5, 200.0, 115.5, 200.0 ]
								}

							}
, 							{
								"patchline" : 								{
									"source" : [ "obj-14", 2 ],
									"destination" : [ "obj-10", 0 ],
									"hidden" : 0,
									"midpoints" : [  ]
								}

							}
, 							{
								"patchline" : 								{
									"source" : [ "obj-10", 0 ],
									"destination" : [ "obj-9", 0 ],
									"hidden" : 0,
									"midpoints" : [  ]
								}

							}
, 							{
								"patchline" : 								{
									"source" : [ "obj-9", 0 ],
									"destination" : [ "obj-11", 0 ],
									"hidden" : 0,
									"midpoints" : [  ]
								}

							}
, 							{
								"patchline" : 								{
									"source" : [ "obj-11", 0 ],
									"destination" : [ "obj-12", 0 ],
									"hidden" : 0,
									"midpoints" : [  ]
								}

							}
, 							{
								"patchline" : 								{
									"source" : [ "obj-14", 1 ],
									"destination" : [ "obj-8", 1 ],
									"hidden" : 0,
									"midpoints" : [ 100.0, 198.0, 185.5, 198.0 ]
								}

							}
, 							{
								"patchline" : 								{
									"source" : [ "obj-8", 1 ],
									"destination" : [ "obj-7", 0 ],
									"hidden" : 0,
									"midpoints" : [  ]
								}

							}
 ]
					}
,
					"saved_object_attributes" : 					{
						"fontface" : 0,
						"fontsize" : 12.0,
						"default_fontname" : "Arial",
						"globalpatchername" : "",
						"default_fontsize" : 12.0,
						"fontname" : "Arial",
						"default_fontface" : 0
					}

				}

			}
, 			{
				"box" : 				{
					"maxclass" : "inlet",
					"numinlets" : 0,
					"numoutlets" : 1,
					"patching_rect" : [ 326.0, 46.0, 25.0, 25.0 ],
					"outlettype" : [ "" ],
					"id" : "obj-66",
					"comment" : ""
				}

			}
, 			{
				"box" : 				{
					"maxclass" : "inlet",
					"numinlets" : 0,
					"numoutlets" : 1,
					"patching_rect" : [ 218.0, 44.0, 25.0, 25.0 ],
					"outlettype" : [ "" ],
					"id" : "obj-67",
					"comment" : ""
				}

			}
 ],
		"lines" : [ 			{
				"patchline" : 				{
					"source" : [ "obj-48", 2 ],
					"destination" : [ "obj-14", 0 ],
					"hidden" : 0,
					"midpoints" : [ 196.833328, 240.0, 290.5, 240.0 ]
				}

			}
, 			{
				"patchline" : 				{
					"source" : [ "obj-62", 1 ],
					"destination" : [ "obj-13", 0 ],
					"hidden" : 0,
					"midpoints" : [  ]
				}

			}
, 			{
				"patchline" : 				{
					"source" : [ "obj-7", 0 ],
					"destination" : [ "obj-12", 0 ],
					"hidden" : 0,
					"midpoints" : [  ]
				}

			}
, 			{
				"patchline" : 				{
					"source" : [ "obj-6", 0 ],
					"destination" : [ "obj-11", 0 ],
					"hidden" : 0,
					"midpoints" : [  ]
				}

			}
, 			{
				"patchline" : 				{
					"source" : [ "obj-10", 0 ],
					"destination" : [ "obj-56", 0 ],
					"hidden" : 0,
					"midpoints" : [ 305.5, 87.0, 137.5, 87.0 ]
				}

			}
, 			{
				"patchline" : 				{
					"source" : [ "obj-9", 0 ],
					"destination" : [ "obj-64", 0 ],
					"hidden" : 0,
					"midpoints" : [ 195.5, 87.0, 114.0, 87.0, 114.0, 129.0, 225.0, 129.0, 225.0, 135.0, 229.5, 135.0 ]
				}

			}
, 			{
				"patchline" : 				{
					"source" : [ "obj-62", 1 ],
					"destination" : [ "obj-8", 0 ],
					"hidden" : 0,
					"midpoints" : [  ]
				}

			}
, 			{
				"patchline" : 				{
					"source" : [ "obj-8", 0 ],
					"destination" : [ "obj-6", 1 ],
					"hidden" : 0,
					"midpoints" : [  ]
				}

			}
, 			{
				"patchline" : 				{
					"source" : [ "obj-8", 0 ],
					"destination" : [ "obj-7", 1 ],
					"hidden" : 0,
					"midpoints" : [  ]
				}

			}
, 			{
				"patchline" : 				{
					"source" : [ "obj-48", 1 ],
					"destination" : [ "obj-7", 0 ],
					"hidden" : 0,
					"midpoints" : [  ]
				}

			}
, 			{
				"patchline" : 				{
					"source" : [ "obj-48", 0 ],
					"destination" : [ "obj-6", 0 ],
					"hidden" : 0,
					"midpoints" : [  ]
				}

			}
, 			{
				"patchline" : 				{
					"source" : [ "obj-7", 0 ],
					"destination" : [ "obj-2", 0 ],
					"hidden" : 0,
					"midpoints" : [  ]
				}

			}
, 			{
				"patchline" : 				{
					"source" : [ "obj-6", 0 ],
					"destination" : [ "obj-1", 0 ],
					"hidden" : 0,
					"midpoints" : [  ]
				}

			}
, 			{
				"patchline" : 				{
					"source" : [ "obj-67", 0 ],
					"destination" : [ "obj-64", 0 ],
					"hidden" : 0,
					"midpoints" : [  ]
				}

			}
, 			{
				"patchline" : 				{
					"source" : [ "obj-66", 0 ],
					"destination" : [ "obj-56", 0 ],
					"hidden" : 0,
					"midpoints" : [ 335.5, 87.0, 137.5, 87.0 ]
				}

			}
, 			{
				"patchline" : 				{
					"source" : [ "obj-64", 0 ],
					"destination" : [ "obj-62", 0 ],
					"hidden" : 0,
					"midpoints" : [  ]
				}

			}
, 			{
				"patchline" : 				{
					"source" : [ "obj-62", 0 ],
					"destination" : [ "obj-48", 0 ],
					"hidden" : 0,
					"midpoints" : [  ]
				}

			}
, 			{
				"patchline" : 				{
					"source" : [ "obj-3", 0 ],
					"destination" : [ "obj-48", 0 ],
					"hidden" : 0,
					"midpoints" : [  ]
				}

			}
, 			{
				"patchline" : 				{
					"source" : [ "obj-46", 0 ],
					"destination" : [ "obj-48", 0 ],
					"hidden" : 0,
					"midpoints" : [ 575.5, 188.0, 137.5, 188.0 ]
				}

			}
, 			{
				"patchline" : 				{
					"source" : [ "obj-36", 0 ],
					"destination" : [ "obj-48", 0 ],
					"hidden" : 0,
					"midpoints" : [ 494.5, 191.0, 137.5, 191.0 ]
				}

			}
, 			{
				"patchline" : 				{
					"source" : [ "obj-58", 4 ],
					"destination" : [ "obj-46", 0 ],
					"hidden" : 0,
					"midpoints" : [  ]
				}

			}
, 			{
				"patchline" : 				{
					"source" : [ "obj-58", 3 ],
					"destination" : [ "obj-36", 0 ],
					"hidden" : 0,
					"midpoints" : [  ]
				}

			}
, 			{
				"patchline" : 				{
					"source" : [ "obj-58", 0 ],
					"destination" : [ "obj-62", 1 ],
					"hidden" : 0,
					"midpoints" : [  ]
				}

			}
, 			{
				"patchline" : 				{
					"source" : [ "obj-56", 2 ],
					"destination" : [ "obj-58", 0 ],
					"hidden" : 0,
					"midpoints" : [  ]
				}

			}
, 			{
				"patchline" : 				{
					"source" : [ "obj-58", 1 ],
					"destination" : [ "obj-62", 2 ],
					"hidden" : 0,
					"midpoints" : [  ]
				}

			}
, 			{
				"patchline" : 				{
					"source" : [ "obj-58", 2 ],
					"destination" : [ "obj-62", 3 ],
					"hidden" : 0,
					"midpoints" : [  ]
				}

			}
, 			{
				"patchline" : 				{
					"source" : [ "obj-62", 1 ],
					"destination" : [ "obj-4", 0 ],
					"hidden" : 0,
					"midpoints" : [  ]
				}

			}
, 			{
				"patchline" : 				{
					"source" : [ "obj-56", 0 ],
					"destination" : [ "obj-5", 0 ],
					"hidden" : 0,
					"midpoints" : [  ]
				}

			}
, 			{
				"patchline" : 				{
					"source" : [ "obj-5", 0 ],
					"destination" : [ "obj-3", 0 ],
					"hidden" : 0,
					"midpoints" : [  ]
				}

			}
, 			{
				"patchline" : 				{
					"source" : [ "obj-14", 0 ],
					"destination" : [ "obj-16", 0 ],
					"hidden" : 0,
					"midpoints" : [  ]
				}

			}
, 			{
				"patchline" : 				{
					"source" : [ "obj-14", 0 ],
					"destination" : [ "obj-15", 0 ],
					"hidden" : 0,
					"midpoints" : [  ]
				}

			}
 ]
	}

}
