{
	"patcher" : 	{
		"fileversion" : 1,
		"rect" : [ 6.0, 44.0, 665.0, 716.0 ],
		"bglocked" : 0,
		"defrect" : [ 6.0, 44.0, 665.0, 716.0 ],
		"openrect" : [ 0.0, 0.0, 0.0, 0.0 ],
		"openinpresentation" : 0,
		"default_fontsize" : 10.0,
		"default_fontface" : 0,
		"default_fontname" : "Arial",
		"gridonopen" : 0,
		"gridsize" : [ 2.0, 2.0 ],
		"gridsnaponopen" : 0,
		"toolbarvisible" : 1,
		"boxanimatetime" : 200,
		"imprint" : 0,
		"metadata" : [  ],
		"boxes" : [ 			{
				"box" : 				{
					"maxclass" : "bpatcher",
					"varname" : "input",
					"outlettype" : [ "", "signal" ],
					"id" : "obj-22",
					"args" : [ "input" ],
					"presentation_rect" : [ 340.0, 380.0, 150.0, 70.0 ],
					"lockeddragscroll" : 1,
					"patching_rect" : [ 342.0, 380.0, 150.0, 70.0 ],
					"numinlets" : 2,
					"name" : "jmod.Zin~.maxpat",
					"numoutlets" : 2
				}

			}
, 			{
				"box" : 				{
					"maxclass" : "bpatcher",
					"varname" : "sftest",
					"outlettype" : [ "", "signal", "signal" ],
					"id" : "obj-21",
					"args" : [  ],
					"presentation_rect" : [ 341.0, 178.0, 300.0, 70.0 ],
					"lockeddragscroll" : 1,
					"patching_rect" : [ 340.0, 192.0, 300.0, 70.0 ],
					"numinlets" : 1,
					"name" : "jmod.ZDtD2.maxpat",
					"numoutlets" : 3
				}

			}
, 			{
				"box" : 				{
					"maxclass" : "meter~",
					"outlettype" : [ "float" ],
					"id" : "obj-4",
					"patching_rect" : [ 372.0, 592.0, 12.0, 102.0 ],
					"numinlets" : 1,
					"numoutlets" : 1
				}

			}
, 			{
				"box" : 				{
					"maxclass" : "meter~",
					"outlettype" : [ "float" ],
					"id" : "obj-20",
					"patching_rect" : [ 336.0, 592.0, 12.0, 102.0 ],
					"numinlets" : 1,
					"numoutlets" : 1
				}

			}
, 			{
				"box" : 				{
					"maxclass" : "meter~",
					"outlettype" : [ "float" ],
					"id" : "obj-19",
					"patching_rect" : [ 312.0, 592.0, 12.0, 102.0 ],
					"numinlets" : 1,
					"numoutlets" : 1
				}

			}
, 			{
				"box" : 				{
					"maxclass" : "meter~",
					"outlettype" : [ "float" ],
					"id" : "obj-18",
					"patching_rect" : [ 276.0, 592.0, 12.0, 102.0 ],
					"numinlets" : 1,
					"numoutlets" : 1
				}

			}
, 			{
				"box" : 				{
					"maxclass" : "meter~",
					"outlettype" : [ "float" ],
					"id" : "obj-16",
					"patching_rect" : [ 240.0, 592.0, 12.0, 102.0 ],
					"numinlets" : 1,
					"numoutlets" : 1
				}

			}
, 			{
				"box" : 				{
					"maxclass" : "meter~",
					"outlettype" : [ "float" ],
					"id" : "obj-14",
					"patching_rect" : [ 204.0, 592.0, 12.0, 102.0 ],
					"numinlets" : 1,
					"numoutlets" : 1
				}

			}
, 			{
				"box" : 				{
					"maxclass" : "meter~",
					"outlettype" : [ "float" ],
					"id" : "obj-13",
					"patching_rect" : [ 168.0, 592.0, 12.0, 102.0 ],
					"numinlets" : 1,
					"numoutlets" : 1
				}

			}
, 			{
				"box" : 				{
					"maxclass" : "meter~",
					"outlettype" : [ "float" ],
					"id" : "obj-11",
					"patching_rect" : [ 132.0, 592.0, 12.0, 102.0 ],
					"numinlets" : 1,
					"numoutlets" : 1
				}

			}
, 			{
				"box" : 				{
					"maxclass" : "meter~",
					"outlettype" : [ "float" ],
					"id" : "obj-10",
					"patching_rect" : [ 96.0, 592.0, 12.0, 102.0 ],
					"numinlets" : 1,
					"numoutlets" : 1
				}

			}
, 			{
				"box" : 				{
					"maxclass" : "meter~",
					"outlettype" : [ "float" ],
					"id" : "obj-7",
					"patching_rect" : [ 60.0, 592.0, 12.0, 102.0 ],
					"numinlets" : 1,
					"numoutlets" : 1
				}

			}
, 			{
				"box" : 				{
					"maxclass" : "bpatcher",
					"outlettype" : [ "", "signal", "signal", "signal", "signal", "signal", "signal", "signal", "signal", "signal", "signal" ],
					"id" : "obj-2",
					"args" : [ "Zspat" ],
					"presentation_rect" : [ 22.0, 476.0, 300.0, 105.0 ],
					"patching_rect" : [ 16.0, 474.0, 300.0, 105.0 ],
					"numinlets" : 2,
					"name" : "jmod.Zspat.maxpat",
					"numoutlets" : 11
				}

			}
, 			{
				"box" : 				{
					"maxclass" : "bpatcher",
					"varname" : "lptest",
					"outlettype" : [ "", "signal", "signal" ],
					"id" : "obj-8",
					"args" : [ "/Zlp" ],
					"presentation_rect" : [ 15.0, 15.0, 300.0, 140.0 ],
					"lockeddragscroll" : 1,
					"patching_rect" : [ 20.0, 178.0, 300.0, 140.0 ],
					"numinlets" : 1,
					"name" : "jmod.Zlooper~.maxpat",
					"numoutlets" : 3
				}

			}
, 			{
				"box" : 				{
					"maxclass" : "bpatcher",
					"varname" : "zenv",
					"outlettype" : [ "", "signal" ],
					"id" : "obj-6",
					"args" : [ "Zenv~" ],
					"presentation_rect" : [ 0.0, 0.0, 300.0, 140.0 ],
					"patching_rect" : [ 20.0, 322.0, 300.0, 140.0 ],
					"numinlets" : 3,
					"name" : "jmod.Zenveloppe~.maxpat",
					"numoutlets" : 2
				}

			}
, 			{
				"box" : 				{
					"maxclass" : "comment",
					"text" : "Drag and drop : \n\nSoundfiles are organized in folders and drop in the main folder containing the all subfolders.\n\nor\n\nDrop files",
					"linecount" : 8,
					"id" : "obj-3",
					"fontname" : "Arial",
					"frgb" : [ 0.658824, 0.658824, 0.658824, 1.0 ],
					"patching_rect" : [ 332.0, 80.0, 271.0, 98.0 ],
					"fontsize" : 10.0,
					"numinlets" : 1,
					"numoutlets" : 0
				}

			}
, 			{
				"box" : 				{
					"maxclass" : "bpatcher",
					"varname" : "toto",
					"outlettype" : [ "" ],
					"id" : "obj-15",
					"args" : [ "bp" ],
					"presentation_rect" : [ 0.0, 0.0, 150.0, 70.0 ],
					"patching_rect" : [ 176.0, 86.0, 150.0, 70.0 ],
					"numinlets" : 1,
					"name" : "jmod.bufferpool.maxpat",
					"numoutlets" : 1
				}

			}
, 			{
				"box" : 				{
					"maxclass" : "comment",
					"text" : "Loopsync",
					"id" : "obj-9",
					"fontname" : "Arial",
					"frgb" : [ 0.658824, 0.658824, 0.658824, 1.0 ],
					"patching_rect" : [ 398.0, 360.0, 51.0, 18.0 ],
					"fontsize" : 10.0,
					"numinlets" : 1,
					"numoutlets" : 0
				}

			}
, 			{
				"box" : 				{
					"maxclass" : "number~",
					"outlettype" : [ "signal", "float" ],
					"id" : "obj-17",
					"fontname" : "Arial",
					"interval" : 250.0,
					"sig" : 0.0,
					"mode" : 2,
					"patching_rect" : [ 396.0, 338.0, 86.0, 20.0 ],
					"fontsize" : 11.595187,
					"numinlets" : 2,
					"numoutlets" : 2
				}

			}
, 			{
				"box" : 				{
					"maxclass" : "newobj",
					"text" : "r cmd",
					"outlettype" : [ "" ],
					"id" : "obj-12",
					"fontname" : "Arial",
					"patching_rect" : [ 22.0, 157.0, 35.0, 18.0 ],
					"fontsize" : 10.0,
					"numinlets" : 0,
					"numoutlets" : 1
				}

			}
, 			{
				"box" : 				{
					"maxclass" : "comment",
					"text" : "jmod.buffer-tester~",
					"id" : "obj-38",
					"fontname" : "Verdana",
					"frgb" : [ 0.658824, 0.658824, 0.658824, 1.0 ],
					"patching_rect" : [ 8.0, 7.0, 271.0, 28.0 ],
					"fontsize" : 17.334082,
					"numinlets" : 1,
					"numoutlets" : 0
				}

			}
, 			{
				"box" : 				{
					"maxclass" : "comment",
					"text" : "A simple sampleplayer based on buffer~ and groove~",
					"id" : "obj-39",
					"fontname" : "Verdana",
					"frgb" : [ 0.658824, 0.658824, 0.658824, 1.0 ],
					"patching_rect" : [ 8.0, 33.0, 345.0, 19.0 ],
					"fontsize" : 10.0,
					"numinlets" : 1,
					"numoutlets" : 0
				}

			}
, 			{
				"box" : 				{
					"maxclass" : "panel",
					"id" : "obj-40",
					"rounded" : 15,
					"patching_rect" : [ 3.0, 3.0, 351.0, 53.0 ],
					"numinlets" : 1,
					"numoutlets" : 0
				}

			}
, 			{
				"box" : 				{
					"maxclass" : "newobj",
					"text" : "dac~ 1 2",
					"id" : "obj-1",
					"fontname" : "Arial",
					"patching_rect" : [ 426.0, 622.0, 47.0, 17.0 ],
					"fontsize" : 9.0,
					"numinlets" : 2,
					"numoutlets" : 0
				}

			}
, 			{
				"box" : 				{
					"maxclass" : "bpatcher",
					"varname" : "jmod.control.mxt",
					"outlettype" : [ "" ],
					"id" : "obj-5",
					"args" : [ "control" ],
					"presentation_rect" : [ 0.0, 0.0, 150.0, 70.0 ],
					"lockeddragscroll" : 1,
					"patching_rect" : [ 16.0, 84.0, 150.0, 70.0 ],
					"numinlets" : 1,
					"name" : "jmod.control.maxpat",
					"numoutlets" : 1
				}

			}
 ],
		"lines" : [ 			{
				"patchline" : 				{
					"source" : [ "obj-21", 2 ],
					"destination" : [ "obj-1", 1 ],
					"hidden" : 0,
					"midpoints" : [  ]
				}

			}
, 			{
				"patchline" : 				{
					"source" : [ "obj-21", 1 ],
					"destination" : [ "obj-1", 0 ],
					"hidden" : 0,
					"midpoints" : [  ]
				}

			}
, 			{
				"patchline" : 				{
					"source" : [ "obj-8", 2 ],
					"destination" : [ "obj-17", 0 ],
					"hidden" : 0,
					"midpoints" : [  ]
				}

			}
, 			{
				"patchline" : 				{
					"source" : [ "obj-8", 1 ],
					"destination" : [ "obj-6", 1 ],
					"hidden" : 0,
					"midpoints" : [  ]
				}

			}
, 			{
				"patchline" : 				{
					"source" : [ "obj-8", 2 ],
					"destination" : [ "obj-6", 2 ],
					"hidden" : 0,
					"midpoints" : [  ]
				}

			}
, 			{
				"patchline" : 				{
					"source" : [ "obj-6", 1 ],
					"destination" : [ "obj-1", 1 ],
					"hidden" : 0,
					"midpoints" : [  ]
				}

			}
, 			{
				"patchline" : 				{
					"source" : [ "obj-6", 1 ],
					"destination" : [ "obj-1", 0 ],
					"hidden" : 0,
					"midpoints" : [  ]
				}

			}
, 			{
				"patchline" : 				{
					"source" : [ "obj-6", 1 ],
					"destination" : [ "obj-2", 1 ],
					"hidden" : 0,
					"midpoints" : [  ]
				}

			}
, 			{
				"patchline" : 				{
					"source" : [ "obj-2", 8 ],
					"destination" : [ "obj-19", 0 ],
					"hidden" : 0,
					"midpoints" : [  ]
				}

			}
, 			{
				"patchline" : 				{
					"source" : [ "obj-2", 7 ],
					"destination" : [ "obj-18", 0 ],
					"hidden" : 0,
					"midpoints" : [  ]
				}

			}
, 			{
				"patchline" : 				{
					"source" : [ "obj-2", 6 ],
					"destination" : [ "obj-16", 0 ],
					"hidden" : 0,
					"midpoints" : [  ]
				}

			}
, 			{
				"patchline" : 				{
					"source" : [ "obj-2", 5 ],
					"destination" : [ "obj-14", 0 ],
					"hidden" : 0,
					"midpoints" : [  ]
				}

			}
, 			{
				"patchline" : 				{
					"source" : [ "obj-2", 4 ],
					"destination" : [ "obj-13", 0 ],
					"hidden" : 0,
					"midpoints" : [  ]
				}

			}
, 			{
				"patchline" : 				{
					"source" : [ "obj-2", 3 ],
					"destination" : [ "obj-11", 0 ],
					"hidden" : 0,
					"midpoints" : [  ]
				}

			}
, 			{
				"patchline" : 				{
					"source" : [ "obj-2", 2 ],
					"destination" : [ "obj-10", 0 ],
					"hidden" : 0,
					"midpoints" : [  ]
				}

			}
, 			{
				"patchline" : 				{
					"source" : [ "obj-2", 1 ],
					"destination" : [ "obj-7", 0 ],
					"hidden" : 0,
					"midpoints" : [  ]
				}

			}
, 			{
				"patchline" : 				{
					"source" : [ "obj-2", 9 ],
					"destination" : [ "obj-20", 0 ],
					"hidden" : 0,
					"midpoints" : [  ]
				}

			}
, 			{
				"patchline" : 				{
					"source" : [ "obj-2", 10 ],
					"destination" : [ "obj-4", 0 ],
					"hidden" : 0,
					"midpoints" : [  ]
				}

			}
 ]
	}

}
