{
	"patcher" : 	{
		"fileversion" : 1,
		"rect" : [ 30.0, 89.0, 1035.0, 585.0 ],
		"bglocked" : 0,
		"defrect" : [ 30.0, 89.0, 1035.0, 585.0 ],
		"openrect" : [ 0.0, 0.0, 0.0, 0.0 ],
		"openinpresentation" : 1,
		"default_fontsize" : 12.0,
		"default_fontface" : 0,
		"default_fontname" : "Arial",
		"gridonopen" : 0,
		"gridsize" : [ 2.0, 2.0 ],
		"gridsnaponopen" : 0,
		"toolbarvisible" : 1,
		"boxanimatetime" : 200,
		"imprint" : 0,
		"metadata" : [  ],
		"boxes" : [ 			{
				"box" : 				{
					"maxclass" : "newobj",
					"text" : "p note",
					"numinlets" : 2,
					"fontsize" : 12.0,
					"numoutlets" : 1,
					"patching_rect" : [ 596.0, 370.0, 46.0, 20.0 ],
					"outlettype" : [ "int" ],
					"fontname" : "Arial",
					"id" : "obj-54",
					"presentation_rect" : [ 692.0, 450.0, 0.0, 0.0 ],
					"patcher" : 					{
						"fileversion" : 1,
						"rect" : [ 0.0, 0.0, 640.0, 480.0 ],
						"bglocked" : 0,
						"defrect" : [ 0.0, 0.0, 640.0, 480.0 ],
						"openrect" : [ 0.0, 0.0, 0.0, 0.0 ],
						"openinpresentation" : 0,
						"default_fontsize" : 12.0,
						"default_fontface" : 0,
						"default_fontname" : "Arial",
						"gridonopen" : 0,
						"gridsize" : [ 2.0, 2.0 ],
						"gridsnaponopen" : 0,
						"toolbarvisible" : 1,
						"boxanimatetime" : 200,
						"imprint" : 0,
						"metadata" : [  ],
						"boxes" : [ 							{
								"box" : 								{
									"maxclass" : "newobj",
									"text" : "sel 1",
									"numinlets" : 2,
									"fontsize" : 9.0,
									"numoutlets" : 2,
									"patching_rect" : [ 50.0, 155.0, 32.0, 17.0 ],
									"hidden" : 1,
									"outlettype" : [ "bang", "" ],
									"fontname" : "Arial",
									"id" : "obj-2"
								}

							}
, 							{
								"box" : 								{
									"maxclass" : "newobj",
									"text" : "- 1",
									"numinlets" : 2,
									"fontsize" : 9.0,
									"numoutlets" : 1,
									"patching_rect" : [ 110.0, 100.0, 27.0, 17.0 ],
									"hidden" : 1,
									"outlettype" : [ "int" ],
									"fontname" : "Arial",
									"id" : "obj-7"
								}

							}
, 							{
								"box" : 								{
									"maxclass" : "newobj",
									"varname" : "=",
									"text" : "== 127",
									"numinlets" : 2,
									"fontsize" : 9.0,
									"numoutlets" : 1,
									"patching_rect" : [ 50.0, 209.0, 39.0, 17.0 ],
									"hidden" : 1,
									"outlettype" : [ "int" ],
									"fontname" : "Arial",
									"id" : "obj-9"
								}

							}
, 							{
								"box" : 								{
									"maxclass" : "newobj",
									"text" : "i",
									"numinlets" : 2,
									"fontsize" : 9.0,
									"numoutlets" : 1,
									"patching_rect" : [ 50.0, 184.0, 57.0, 17.0 ],
									"hidden" : 1,
									"outlettype" : [ "int" ],
									"fontname" : "Arial",
									"id" : "obj-10"
								}

							}
, 							{
								"box" : 								{
									"maxclass" : "newobj",
									"text" : "==",
									"numinlets" : 2,
									"fontsize" : 9.0,
									"numoutlets" : 1,
									"patching_rect" : [ 50.0, 124.0, 70.0, 17.0 ],
									"hidden" : 1,
									"outlettype" : [ "int" ],
									"fontname" : "Arial",
									"id" : "obj-11"
								}

							}
, 							{
								"box" : 								{
									"maxclass" : "newobj",
									"text" : "notein a #3",
									"numinlets" : 1,
									"fontsize" : 9.0,
									"numoutlets" : 3,
									"patching_rect" : [ 50.0, 101.0, 57.0, 17.0 ],
									"hidden" : 1,
									"outlettype" : [ "int", "int", "int" ],
									"fontname" : "Arial",
									"id" : "obj-12"
								}

							}
, 							{
								"box" : 								{
									"maxclass" : "inlet",
									"numinlets" : 0,
									"numoutlets" : 1,
									"patching_rect" : [ 55.0, 40.0, 25.0, 25.0 ],
									"outlettype" : [ "" ],
									"id" : "obj-17",
									"comment" : ""
								}

							}
, 							{
								"box" : 								{
									"maxclass" : "inlet",
									"numinlets" : 0,
									"numoutlets" : 1,
									"patching_rect" : [ 116.0, 40.0, 25.0, 25.0 ],
									"outlettype" : [ "" ],
									"id" : "obj-18",
									"comment" : ""
								}

							}
, 							{
								"box" : 								{
									"maxclass" : "outlet",
									"numinlets" : 1,
									"numoutlets" : 0,
									"patching_rect" : [ 55.0, 286.0, 25.0, 25.0 ],
									"id" : "obj-19",
									"comment" : ""
								}

							}
 ],
						"lines" : [ 							{
								"patchline" : 								{
									"source" : [ "obj-12", 0 ],
									"destination" : [ "obj-11", 0 ],
									"hidden" : 1,
									"midpoints" : [  ]
								}

							}
, 							{
								"patchline" : 								{
									"source" : [ "obj-11", 0 ],
									"destination" : [ "obj-2", 0 ],
									"hidden" : 1,
									"midpoints" : [  ]
								}

							}
, 							{
								"patchline" : 								{
									"source" : [ "obj-2", 0 ],
									"destination" : [ "obj-10", 0 ],
									"hidden" : 1,
									"midpoints" : [  ]
								}

							}
, 							{
								"patchline" : 								{
									"source" : [ "obj-10", 0 ],
									"destination" : [ "obj-9", 0 ],
									"hidden" : 1,
									"midpoints" : [  ]
								}

							}
, 							{
								"patchline" : 								{
									"source" : [ "obj-12", 1 ],
									"destination" : [ "obj-10", 1 ],
									"hidden" : 1,
									"midpoints" : [  ]
								}

							}
, 							{
								"patchline" : 								{
									"source" : [ "obj-7", 0 ],
									"destination" : [ "obj-11", 1 ],
									"hidden" : 1,
									"midpoints" : [  ]
								}

							}
, 							{
								"patchline" : 								{
									"source" : [ "obj-17", 0 ],
									"destination" : [ "obj-12", 0 ],
									"hidden" : 0,
									"midpoints" : [  ]
								}

							}
, 							{
								"patchline" : 								{
									"source" : [ "obj-18", 0 ],
									"destination" : [ "obj-7", 0 ],
									"hidden" : 0,
									"midpoints" : [  ]
								}

							}
, 							{
								"patchline" : 								{
									"source" : [ "obj-9", 0 ],
									"destination" : [ "obj-19", 0 ],
									"hidden" : 0,
									"midpoints" : [  ]
								}

							}
 ]
					}
,
					"saved_object_attributes" : 					{
						"fontface" : 0,
						"fontsize" : 12.0,
						"default_fontname" : "Arial",
						"globalpatchername" : "",
						"default_fontsize" : 12.0,
						"fontname" : "Arial",
						"default_fontface" : 0
					}

				}

			}
, 			{
				"box" : 				{
					"maxclass" : "newobj",
					"text" : "jcom.return noteout.8 @type msg_int",
					"numinlets" : 1,
					"fontsize" : 9.0,
					"numoutlets" : 2,
					"patching_rect" : [ 616.0, 398.0, 160.0, 17.0 ],
					"outlettype" : [ "", "" ],
					"fontname" : "Arial",
					"id" : "obj-55"
				}

			}
, 			{
				"box" : 				{
					"maxclass" : "led",
					"varname" : "button[4]",
					"numinlets" : 1,
					"numoutlets" : 1,
					"patching_rect" : [ 596.0, 398.0, 16.0, 16.0 ],
					"presentation" : 1,
					"outlettype" : [ "int" ],
					"bgcolor" : [ 0.35294, 0.35294, 0.35294, 1.0 ],
					"id" : "obj-56",
					"presentation_rect" : [ 130.0, 82.0, 16.0, 16.0 ]
				}

			}
, 			{
				"box" : 				{
					"maxclass" : "newobj",
					"text" : "p note",
					"numinlets" : 2,
					"fontsize" : 12.0,
					"numoutlets" : 1,
					"patching_rect" : [ 540.0, 396.0, 46.0, 20.0 ],
					"outlettype" : [ "int" ],
					"fontname" : "Arial",
					"id" : "obj-57",
					"presentation_rect" : [ 636.0, 476.0, 0.0, 0.0 ],
					"patcher" : 					{
						"fileversion" : 1,
						"rect" : [ 0.0, 0.0, 640.0, 480.0 ],
						"bglocked" : 0,
						"defrect" : [ 0.0, 0.0, 640.0, 480.0 ],
						"openrect" : [ 0.0, 0.0, 0.0, 0.0 ],
						"openinpresentation" : 0,
						"default_fontsize" : 12.0,
						"default_fontface" : 0,
						"default_fontname" : "Arial",
						"gridonopen" : 0,
						"gridsize" : [ 2.0, 2.0 ],
						"gridsnaponopen" : 0,
						"toolbarvisible" : 1,
						"boxanimatetime" : 200,
						"imprint" : 0,
						"metadata" : [  ],
						"boxes" : [ 							{
								"box" : 								{
									"maxclass" : "newobj",
									"text" : "sel 1",
									"numinlets" : 2,
									"fontsize" : 9.0,
									"numoutlets" : 2,
									"patching_rect" : [ 50.0, 155.0, 32.0, 17.0 ],
									"hidden" : 1,
									"outlettype" : [ "bang", "" ],
									"fontname" : "Arial",
									"id" : "obj-2"
								}

							}
, 							{
								"box" : 								{
									"maxclass" : "newobj",
									"text" : "- 1",
									"numinlets" : 2,
									"fontsize" : 9.0,
									"numoutlets" : 1,
									"patching_rect" : [ 110.0, 100.0, 27.0, 17.0 ],
									"hidden" : 1,
									"outlettype" : [ "int" ],
									"fontname" : "Arial",
									"id" : "obj-7"
								}

							}
, 							{
								"box" : 								{
									"maxclass" : "newobj",
									"varname" : "=",
									"text" : "== 127",
									"numinlets" : 2,
									"fontsize" : 9.0,
									"numoutlets" : 1,
									"patching_rect" : [ 50.0, 209.0, 39.0, 17.0 ],
									"hidden" : 1,
									"outlettype" : [ "int" ],
									"fontname" : "Arial",
									"id" : "obj-9"
								}

							}
, 							{
								"box" : 								{
									"maxclass" : "newobj",
									"text" : "i",
									"numinlets" : 2,
									"fontsize" : 9.0,
									"numoutlets" : 1,
									"patching_rect" : [ 50.0, 184.0, 57.0, 17.0 ],
									"hidden" : 1,
									"outlettype" : [ "int" ],
									"fontname" : "Arial",
									"id" : "obj-10"
								}

							}
, 							{
								"box" : 								{
									"maxclass" : "newobj",
									"text" : "==",
									"numinlets" : 2,
									"fontsize" : 9.0,
									"numoutlets" : 1,
									"patching_rect" : [ 50.0, 124.0, 70.0, 17.0 ],
									"hidden" : 1,
									"outlettype" : [ "int" ],
									"fontname" : "Arial",
									"id" : "obj-11"
								}

							}
, 							{
								"box" : 								{
									"maxclass" : "newobj",
									"text" : "notein a #3",
									"numinlets" : 1,
									"fontsize" : 9.0,
									"numoutlets" : 3,
									"patching_rect" : [ 50.0, 101.0, 57.0, 17.0 ],
									"hidden" : 1,
									"outlettype" : [ "int", "int", "int" ],
									"fontname" : "Arial",
									"id" : "obj-12"
								}

							}
, 							{
								"box" : 								{
									"maxclass" : "inlet",
									"numinlets" : 0,
									"numoutlets" : 1,
									"patching_rect" : [ 55.0, 40.0, 25.0, 25.0 ],
									"outlettype" : [ "" ],
									"id" : "obj-17",
									"comment" : ""
								}

							}
, 							{
								"box" : 								{
									"maxclass" : "inlet",
									"numinlets" : 0,
									"numoutlets" : 1,
									"patching_rect" : [ 116.0, 40.0, 25.0, 25.0 ],
									"outlettype" : [ "" ],
									"id" : "obj-18",
									"comment" : ""
								}

							}
, 							{
								"box" : 								{
									"maxclass" : "outlet",
									"numinlets" : 1,
									"numoutlets" : 0,
									"patching_rect" : [ 55.0, 286.0, 25.0, 25.0 ],
									"id" : "obj-19",
									"comment" : ""
								}

							}
 ],
						"lines" : [ 							{
								"patchline" : 								{
									"source" : [ "obj-9", 0 ],
									"destination" : [ "obj-19", 0 ],
									"hidden" : 0,
									"midpoints" : [  ]
								}

							}
, 							{
								"patchline" : 								{
									"source" : [ "obj-18", 0 ],
									"destination" : [ "obj-7", 0 ],
									"hidden" : 0,
									"midpoints" : [  ]
								}

							}
, 							{
								"patchline" : 								{
									"source" : [ "obj-17", 0 ],
									"destination" : [ "obj-12", 0 ],
									"hidden" : 0,
									"midpoints" : [  ]
								}

							}
, 							{
								"patchline" : 								{
									"source" : [ "obj-7", 0 ],
									"destination" : [ "obj-11", 1 ],
									"hidden" : 1,
									"midpoints" : [  ]
								}

							}
, 							{
								"patchline" : 								{
									"source" : [ "obj-12", 1 ],
									"destination" : [ "obj-10", 1 ],
									"hidden" : 1,
									"midpoints" : [  ]
								}

							}
, 							{
								"patchline" : 								{
									"source" : [ "obj-10", 0 ],
									"destination" : [ "obj-9", 0 ],
									"hidden" : 1,
									"midpoints" : [  ]
								}

							}
, 							{
								"patchline" : 								{
									"source" : [ "obj-2", 0 ],
									"destination" : [ "obj-10", 0 ],
									"hidden" : 1,
									"midpoints" : [  ]
								}

							}
, 							{
								"patchline" : 								{
									"source" : [ "obj-11", 0 ],
									"destination" : [ "obj-2", 0 ],
									"hidden" : 1,
									"midpoints" : [  ]
								}

							}
, 							{
								"patchline" : 								{
									"source" : [ "obj-12", 0 ],
									"destination" : [ "obj-11", 0 ],
									"hidden" : 1,
									"midpoints" : [  ]
								}

							}
 ]
					}
,
					"saved_object_attributes" : 					{
						"fontface" : 0,
						"fontsize" : 12.0,
						"default_fontname" : "Arial",
						"globalpatchername" : "",
						"default_fontsize" : 12.0,
						"fontname" : "Arial",
						"default_fontface" : 0
					}

				}

			}
, 			{
				"box" : 				{
					"maxclass" : "newobj",
					"text" : "jcom.return noteout.7 @type msg_int",
					"numinlets" : 1,
					"fontsize" : 9.0,
					"numoutlets" : 2,
					"patching_rect" : [ 560.0, 424.0, 160.0, 17.0 ],
					"outlettype" : [ "", "" ],
					"fontname" : "Arial",
					"id" : "obj-59"
				}

			}
, 			{
				"box" : 				{
					"maxclass" : "led",
					"varname" : "button[5]",
					"numinlets" : 1,
					"numoutlets" : 1,
					"patching_rect" : [ 540.0, 424.0, 16.0, 16.0 ],
					"presentation" : 1,
					"outlettype" : [ "int" ],
					"bgcolor" : [ 0.35294, 0.35294, 0.35294, 1.0 ],
					"id" : "obj-60",
					"presentation_rect" : [ 130.0, 62.0, 16.0, 16.0 ]
				}

			}
, 			{
				"box" : 				{
					"maxclass" : "newobj",
					"text" : "p note",
					"numinlets" : 2,
					"fontsize" : 12.0,
					"numoutlets" : 1,
					"patching_rect" : [ 484.0, 422.0, 46.0, 20.0 ],
					"outlettype" : [ "int" ],
					"fontname" : "Arial",
					"id" : "obj-61",
					"presentation_rect" : [ 580.0, 502.0, 0.0, 0.0 ],
					"patcher" : 					{
						"fileversion" : 1,
						"rect" : [ 0.0, 0.0, 640.0, 480.0 ],
						"bglocked" : 0,
						"defrect" : [ 0.0, 0.0, 640.0, 480.0 ],
						"openrect" : [ 0.0, 0.0, 0.0, 0.0 ],
						"openinpresentation" : 0,
						"default_fontsize" : 12.0,
						"default_fontface" : 0,
						"default_fontname" : "Arial",
						"gridonopen" : 0,
						"gridsize" : [ 2.0, 2.0 ],
						"gridsnaponopen" : 0,
						"toolbarvisible" : 1,
						"boxanimatetime" : 200,
						"imprint" : 0,
						"metadata" : [  ],
						"boxes" : [ 							{
								"box" : 								{
									"maxclass" : "newobj",
									"text" : "sel 1",
									"numinlets" : 2,
									"fontsize" : 9.0,
									"numoutlets" : 2,
									"patching_rect" : [ 50.0, 155.0, 32.0, 17.0 ],
									"hidden" : 1,
									"outlettype" : [ "bang", "" ],
									"fontname" : "Arial",
									"id" : "obj-2"
								}

							}
, 							{
								"box" : 								{
									"maxclass" : "newobj",
									"text" : "- 1",
									"numinlets" : 2,
									"fontsize" : 9.0,
									"numoutlets" : 1,
									"patching_rect" : [ 110.0, 100.0, 27.0, 17.0 ],
									"hidden" : 1,
									"outlettype" : [ "int" ],
									"fontname" : "Arial",
									"id" : "obj-7"
								}

							}
, 							{
								"box" : 								{
									"maxclass" : "newobj",
									"varname" : "=",
									"text" : "== 127",
									"numinlets" : 2,
									"fontsize" : 9.0,
									"numoutlets" : 1,
									"patching_rect" : [ 50.0, 209.0, 39.0, 17.0 ],
									"hidden" : 1,
									"outlettype" : [ "int" ],
									"fontname" : "Arial",
									"id" : "obj-9"
								}

							}
, 							{
								"box" : 								{
									"maxclass" : "newobj",
									"text" : "i",
									"numinlets" : 2,
									"fontsize" : 9.0,
									"numoutlets" : 1,
									"patching_rect" : [ 50.0, 184.0, 57.0, 17.0 ],
									"hidden" : 1,
									"outlettype" : [ "int" ],
									"fontname" : "Arial",
									"id" : "obj-10"
								}

							}
, 							{
								"box" : 								{
									"maxclass" : "newobj",
									"text" : "==",
									"numinlets" : 2,
									"fontsize" : 9.0,
									"numoutlets" : 1,
									"patching_rect" : [ 50.0, 124.0, 70.0, 17.0 ],
									"hidden" : 1,
									"outlettype" : [ "int" ],
									"fontname" : "Arial",
									"id" : "obj-11"
								}

							}
, 							{
								"box" : 								{
									"maxclass" : "newobj",
									"text" : "notein a #3",
									"numinlets" : 1,
									"fontsize" : 9.0,
									"numoutlets" : 3,
									"patching_rect" : [ 50.0, 101.0, 57.0, 17.0 ],
									"hidden" : 1,
									"outlettype" : [ "int", "int", "int" ],
									"fontname" : "Arial",
									"id" : "obj-12"
								}

							}
, 							{
								"box" : 								{
									"maxclass" : "inlet",
									"numinlets" : 0,
									"numoutlets" : 1,
									"patching_rect" : [ 55.0, 40.0, 25.0, 25.0 ],
									"outlettype" : [ "" ],
									"id" : "obj-17",
									"comment" : ""
								}

							}
, 							{
								"box" : 								{
									"maxclass" : "inlet",
									"numinlets" : 0,
									"numoutlets" : 1,
									"patching_rect" : [ 116.0, 40.0, 25.0, 25.0 ],
									"outlettype" : [ "" ],
									"id" : "obj-18",
									"comment" : ""
								}

							}
, 							{
								"box" : 								{
									"maxclass" : "outlet",
									"numinlets" : 1,
									"numoutlets" : 0,
									"patching_rect" : [ 55.0, 286.0, 25.0, 25.0 ],
									"id" : "obj-19",
									"comment" : ""
								}

							}
 ],
						"lines" : [ 							{
								"patchline" : 								{
									"source" : [ "obj-12", 0 ],
									"destination" : [ "obj-11", 0 ],
									"hidden" : 1,
									"midpoints" : [  ]
								}

							}
, 							{
								"patchline" : 								{
									"source" : [ "obj-11", 0 ],
									"destination" : [ "obj-2", 0 ],
									"hidden" : 1,
									"midpoints" : [  ]
								}

							}
, 							{
								"patchline" : 								{
									"source" : [ "obj-2", 0 ],
									"destination" : [ "obj-10", 0 ],
									"hidden" : 1,
									"midpoints" : [  ]
								}

							}
, 							{
								"patchline" : 								{
									"source" : [ "obj-10", 0 ],
									"destination" : [ "obj-9", 0 ],
									"hidden" : 1,
									"midpoints" : [  ]
								}

							}
, 							{
								"patchline" : 								{
									"source" : [ "obj-12", 1 ],
									"destination" : [ "obj-10", 1 ],
									"hidden" : 1,
									"midpoints" : [  ]
								}

							}
, 							{
								"patchline" : 								{
									"source" : [ "obj-7", 0 ],
									"destination" : [ "obj-11", 1 ],
									"hidden" : 1,
									"midpoints" : [  ]
								}

							}
, 							{
								"patchline" : 								{
									"source" : [ "obj-17", 0 ],
									"destination" : [ "obj-12", 0 ],
									"hidden" : 0,
									"midpoints" : [  ]
								}

							}
, 							{
								"patchline" : 								{
									"source" : [ "obj-18", 0 ],
									"destination" : [ "obj-7", 0 ],
									"hidden" : 0,
									"midpoints" : [  ]
								}

							}
, 							{
								"patchline" : 								{
									"source" : [ "obj-9", 0 ],
									"destination" : [ "obj-19", 0 ],
									"hidden" : 0,
									"midpoints" : [  ]
								}

							}
 ]
					}
,
					"saved_object_attributes" : 					{
						"fontface" : 0,
						"fontsize" : 12.0,
						"default_fontname" : "Arial",
						"globalpatchername" : "",
						"default_fontsize" : 12.0,
						"fontname" : "Arial",
						"default_fontface" : 0
					}

				}

			}
, 			{
				"box" : 				{
					"maxclass" : "newobj",
					"text" : "jcom.return noteout.6 @type msg_int",
					"numinlets" : 1,
					"fontsize" : 9.0,
					"numoutlets" : 2,
					"patching_rect" : [ 504.0, 450.0, 160.0, 17.0 ],
					"outlettype" : [ "", "" ],
					"fontname" : "Arial",
					"id" : "obj-62"
				}

			}
, 			{
				"box" : 				{
					"maxclass" : "led",
					"varname" : "button[6]",
					"numinlets" : 1,
					"numoutlets" : 1,
					"patching_rect" : [ 484.0, 450.0, 16.0, 16.0 ],
					"presentation" : 1,
					"outlettype" : [ "int" ],
					"bgcolor" : [ 0.35294, 0.35294, 0.35294, 1.0 ],
					"id" : "obj-63",
					"presentation_rect" : [ 130.0, 42.0, 16.0, 16.0 ]
				}

			}
, 			{
				"box" : 				{
					"maxclass" : "newobj",
					"text" : "p note",
					"numinlets" : 2,
					"fontsize" : 12.0,
					"numoutlets" : 1,
					"patching_rect" : [ 434.0, 448.0, 46.0, 20.0 ],
					"outlettype" : [ "int" ],
					"fontname" : "Arial",
					"id" : "obj-64",
					"presentation_rect" : [ 530.0, 528.0, 0.0, 0.0 ],
					"patcher" : 					{
						"fileversion" : 1,
						"rect" : [ 0.0, 0.0, 640.0, 480.0 ],
						"bglocked" : 0,
						"defrect" : [ 0.0, 0.0, 640.0, 480.0 ],
						"openrect" : [ 0.0, 0.0, 0.0, 0.0 ],
						"openinpresentation" : 0,
						"default_fontsize" : 12.0,
						"default_fontface" : 0,
						"default_fontname" : "Arial",
						"gridonopen" : 0,
						"gridsize" : [ 2.0, 2.0 ],
						"gridsnaponopen" : 0,
						"toolbarvisible" : 1,
						"boxanimatetime" : 200,
						"imprint" : 0,
						"metadata" : [  ],
						"boxes" : [ 							{
								"box" : 								{
									"maxclass" : "newobj",
									"text" : "sel 1",
									"numinlets" : 2,
									"fontsize" : 9.0,
									"numoutlets" : 2,
									"patching_rect" : [ 50.0, 155.0, 32.0, 17.0 ],
									"hidden" : 1,
									"outlettype" : [ "bang", "" ],
									"fontname" : "Arial",
									"id" : "obj-2"
								}

							}
, 							{
								"box" : 								{
									"maxclass" : "newobj",
									"text" : "- 1",
									"numinlets" : 2,
									"fontsize" : 9.0,
									"numoutlets" : 1,
									"patching_rect" : [ 110.0, 100.0, 27.0, 17.0 ],
									"hidden" : 1,
									"outlettype" : [ "int" ],
									"fontname" : "Arial",
									"id" : "obj-7"
								}

							}
, 							{
								"box" : 								{
									"maxclass" : "newobj",
									"varname" : "=",
									"text" : "== 127",
									"numinlets" : 2,
									"fontsize" : 9.0,
									"numoutlets" : 1,
									"patching_rect" : [ 50.0, 209.0, 39.0, 17.0 ],
									"hidden" : 1,
									"outlettype" : [ "int" ],
									"fontname" : "Arial",
									"id" : "obj-9"
								}

							}
, 							{
								"box" : 								{
									"maxclass" : "newobj",
									"text" : "i",
									"numinlets" : 2,
									"fontsize" : 9.0,
									"numoutlets" : 1,
									"patching_rect" : [ 50.0, 184.0, 57.0, 17.0 ],
									"hidden" : 1,
									"outlettype" : [ "int" ],
									"fontname" : "Arial",
									"id" : "obj-10"
								}

							}
, 							{
								"box" : 								{
									"maxclass" : "newobj",
									"text" : "==",
									"numinlets" : 2,
									"fontsize" : 9.0,
									"numoutlets" : 1,
									"patching_rect" : [ 50.0, 124.0, 70.0, 17.0 ],
									"hidden" : 1,
									"outlettype" : [ "int" ],
									"fontname" : "Arial",
									"id" : "obj-11"
								}

							}
, 							{
								"box" : 								{
									"maxclass" : "newobj",
									"text" : "notein a #3",
									"numinlets" : 1,
									"fontsize" : 9.0,
									"numoutlets" : 3,
									"patching_rect" : [ 50.0, 101.0, 57.0, 17.0 ],
									"hidden" : 1,
									"outlettype" : [ "int", "int", "int" ],
									"fontname" : "Arial",
									"id" : "obj-12"
								}

							}
, 							{
								"box" : 								{
									"maxclass" : "inlet",
									"numinlets" : 0,
									"numoutlets" : 1,
									"patching_rect" : [ 55.0, 40.0, 25.0, 25.0 ],
									"outlettype" : [ "" ],
									"id" : "obj-17",
									"comment" : ""
								}

							}
, 							{
								"box" : 								{
									"maxclass" : "inlet",
									"numinlets" : 0,
									"numoutlets" : 1,
									"patching_rect" : [ 116.0, 40.0, 25.0, 25.0 ],
									"outlettype" : [ "" ],
									"id" : "obj-18",
									"comment" : ""
								}

							}
, 							{
								"box" : 								{
									"maxclass" : "outlet",
									"numinlets" : 1,
									"numoutlets" : 0,
									"patching_rect" : [ 55.0, 286.0, 25.0, 25.0 ],
									"id" : "obj-19",
									"comment" : ""
								}

							}
 ],
						"lines" : [ 							{
								"patchline" : 								{
									"source" : [ "obj-9", 0 ],
									"destination" : [ "obj-19", 0 ],
									"hidden" : 0,
									"midpoints" : [  ]
								}

							}
, 							{
								"patchline" : 								{
									"source" : [ "obj-18", 0 ],
									"destination" : [ "obj-7", 0 ],
									"hidden" : 0,
									"midpoints" : [  ]
								}

							}
, 							{
								"patchline" : 								{
									"source" : [ "obj-17", 0 ],
									"destination" : [ "obj-12", 0 ],
									"hidden" : 0,
									"midpoints" : [  ]
								}

							}
, 							{
								"patchline" : 								{
									"source" : [ "obj-7", 0 ],
									"destination" : [ "obj-11", 1 ],
									"hidden" : 1,
									"midpoints" : [  ]
								}

							}
, 							{
								"patchline" : 								{
									"source" : [ "obj-12", 1 ],
									"destination" : [ "obj-10", 1 ],
									"hidden" : 1,
									"midpoints" : [  ]
								}

							}
, 							{
								"patchline" : 								{
									"source" : [ "obj-10", 0 ],
									"destination" : [ "obj-9", 0 ],
									"hidden" : 1,
									"midpoints" : [  ]
								}

							}
, 							{
								"patchline" : 								{
									"source" : [ "obj-2", 0 ],
									"destination" : [ "obj-10", 0 ],
									"hidden" : 1,
									"midpoints" : [  ]
								}

							}
, 							{
								"patchline" : 								{
									"source" : [ "obj-11", 0 ],
									"destination" : [ "obj-2", 0 ],
									"hidden" : 1,
									"midpoints" : [  ]
								}

							}
, 							{
								"patchline" : 								{
									"source" : [ "obj-12", 0 ],
									"destination" : [ "obj-11", 0 ],
									"hidden" : 1,
									"midpoints" : [  ]
								}

							}
 ]
					}
,
					"saved_object_attributes" : 					{
						"fontface" : 0,
						"fontsize" : 12.0,
						"default_fontname" : "Arial",
						"globalpatchername" : "",
						"default_fontsize" : 12.0,
						"fontname" : "Arial",
						"default_fontface" : 0
					}

				}

			}
, 			{
				"box" : 				{
					"maxclass" : "newobj",
					"text" : "jcom.return noteout.5 @type msg_int",
					"numinlets" : 1,
					"fontsize" : 9.0,
					"numoutlets" : 2,
					"patching_rect" : [ 454.0, 476.0, 160.0, 17.0 ],
					"outlettype" : [ "", "" ],
					"fontname" : "Arial",
					"id" : "obj-65"
				}

			}
, 			{
				"box" : 				{
					"maxclass" : "led",
					"varname" : "button[7]",
					"numinlets" : 1,
					"numoutlets" : 1,
					"patching_rect" : [ 434.0, 476.0, 16.0, 16.0 ],
					"presentation" : 1,
					"outlettype" : [ "int" ],
					"bgcolor" : [ 0.35294, 0.35294, 0.35294, 1.0 ],
					"id" : "obj-66",
					"presentation_rect" : [ 130.0, 22.0, 16.0, 16.0 ]
				}

			}
, 			{
				"box" : 				{
					"maxclass" : "newobj",
					"text" : "p note",
					"numinlets" : 2,
					"fontsize" : 12.0,
					"numoutlets" : 1,
					"patching_rect" : [ 228.0, 372.0, 46.0, 20.0 ],
					"outlettype" : [ "int" ],
					"fontname" : "Arial",
					"id" : "obj-50",
					"patcher" : 					{
						"fileversion" : 1,
						"rect" : [ 0.0, 0.0, 640.0, 480.0 ],
						"bglocked" : 0,
						"defrect" : [ 0.0, 0.0, 640.0, 480.0 ],
						"openrect" : [ 0.0, 0.0, 0.0, 0.0 ],
						"openinpresentation" : 0,
						"default_fontsize" : 12.0,
						"default_fontface" : 0,
						"default_fontname" : "Arial",
						"gridonopen" : 0,
						"gridsize" : [ 2.0, 2.0 ],
						"gridsnaponopen" : 0,
						"toolbarvisible" : 1,
						"boxanimatetime" : 200,
						"imprint" : 0,
						"metadata" : [  ],
						"boxes" : [ 							{
								"box" : 								{
									"maxclass" : "newobj",
									"text" : "sel 1",
									"numinlets" : 2,
									"fontsize" : 9.0,
									"numoutlets" : 2,
									"patching_rect" : [ 50.0, 155.0, 32.0, 17.0 ],
									"hidden" : 1,
									"outlettype" : [ "bang", "" ],
									"fontname" : "Arial",
									"id" : "obj-2"
								}

							}
, 							{
								"box" : 								{
									"maxclass" : "newobj",
									"text" : "- 1",
									"numinlets" : 2,
									"fontsize" : 9.0,
									"numoutlets" : 1,
									"patching_rect" : [ 110.0, 100.0, 27.0, 17.0 ],
									"hidden" : 1,
									"outlettype" : [ "int" ],
									"fontname" : "Arial",
									"id" : "obj-7"
								}

							}
, 							{
								"box" : 								{
									"maxclass" : "newobj",
									"varname" : "=",
									"text" : "== 127",
									"numinlets" : 2,
									"fontsize" : 9.0,
									"numoutlets" : 1,
									"patching_rect" : [ 50.0, 209.0, 39.0, 17.0 ],
									"hidden" : 1,
									"outlettype" : [ "int" ],
									"fontname" : "Arial",
									"id" : "obj-9"
								}

							}
, 							{
								"box" : 								{
									"maxclass" : "newobj",
									"text" : "i",
									"numinlets" : 2,
									"fontsize" : 9.0,
									"numoutlets" : 1,
									"patching_rect" : [ 50.0, 184.0, 57.0, 17.0 ],
									"hidden" : 1,
									"outlettype" : [ "int" ],
									"fontname" : "Arial",
									"id" : "obj-10"
								}

							}
, 							{
								"box" : 								{
									"maxclass" : "newobj",
									"text" : "==",
									"numinlets" : 2,
									"fontsize" : 9.0,
									"numoutlets" : 1,
									"patching_rect" : [ 50.0, 124.0, 70.0, 17.0 ],
									"hidden" : 1,
									"outlettype" : [ "int" ],
									"fontname" : "Arial",
									"id" : "obj-11"
								}

							}
, 							{
								"box" : 								{
									"maxclass" : "newobj",
									"text" : "notein a #3",
									"numinlets" : 1,
									"fontsize" : 9.0,
									"numoutlets" : 3,
									"patching_rect" : [ 50.0, 101.0, 57.0, 17.0 ],
									"hidden" : 1,
									"outlettype" : [ "int", "int", "int" ],
									"fontname" : "Arial",
									"id" : "obj-12"
								}

							}
, 							{
								"box" : 								{
									"maxclass" : "inlet",
									"numinlets" : 0,
									"numoutlets" : 1,
									"patching_rect" : [ 55.0, 40.0, 25.0, 25.0 ],
									"outlettype" : [ "" ],
									"id" : "obj-17",
									"comment" : ""
								}

							}
, 							{
								"box" : 								{
									"maxclass" : "inlet",
									"numinlets" : 0,
									"numoutlets" : 1,
									"patching_rect" : [ 116.0, 40.0, 25.0, 25.0 ],
									"outlettype" : [ "" ],
									"id" : "obj-18",
									"comment" : ""
								}

							}
, 							{
								"box" : 								{
									"maxclass" : "outlet",
									"numinlets" : 1,
									"numoutlets" : 0,
									"patching_rect" : [ 55.0, 286.0, 25.0, 25.0 ],
									"id" : "obj-19",
									"comment" : ""
								}

							}
 ],
						"lines" : [ 							{
								"patchline" : 								{
									"source" : [ "obj-9", 0 ],
									"destination" : [ "obj-19", 0 ],
									"hidden" : 0,
									"midpoints" : [  ]
								}

							}
, 							{
								"patchline" : 								{
									"source" : [ "obj-18", 0 ],
									"destination" : [ "obj-7", 0 ],
									"hidden" : 0,
									"midpoints" : [  ]
								}

							}
, 							{
								"patchline" : 								{
									"source" : [ "obj-17", 0 ],
									"destination" : [ "obj-12", 0 ],
									"hidden" : 0,
									"midpoints" : [  ]
								}

							}
, 							{
								"patchline" : 								{
									"source" : [ "obj-7", 0 ],
									"destination" : [ "obj-11", 1 ],
									"hidden" : 1,
									"midpoints" : [  ]
								}

							}
, 							{
								"patchline" : 								{
									"source" : [ "obj-12", 1 ],
									"destination" : [ "obj-10", 1 ],
									"hidden" : 1,
									"midpoints" : [  ]
								}

							}
, 							{
								"patchline" : 								{
									"source" : [ "obj-10", 0 ],
									"destination" : [ "obj-9", 0 ],
									"hidden" : 1,
									"midpoints" : [  ]
								}

							}
, 							{
								"patchline" : 								{
									"source" : [ "obj-2", 0 ],
									"destination" : [ "obj-10", 0 ],
									"hidden" : 1,
									"midpoints" : [  ]
								}

							}
, 							{
								"patchline" : 								{
									"source" : [ "obj-11", 0 ],
									"destination" : [ "obj-2", 0 ],
									"hidden" : 1,
									"midpoints" : [  ]
								}

							}
, 							{
								"patchline" : 								{
									"source" : [ "obj-12", 0 ],
									"destination" : [ "obj-11", 0 ],
									"hidden" : 1,
									"midpoints" : [  ]
								}

							}
 ]
					}
,
					"saved_object_attributes" : 					{
						"fontface" : 0,
						"fontsize" : 12.0,
						"default_fontname" : "Arial",
						"globalpatchername" : "",
						"default_fontsize" : 12.0,
						"fontname" : "Arial",
						"default_fontface" : 0
					}

				}

			}
, 			{
				"box" : 				{
					"maxclass" : "newobj",
					"text" : "jcom.return noteout.4 @type msg_int",
					"numinlets" : 1,
					"fontsize" : 9.0,
					"numoutlets" : 2,
					"patching_rect" : [ 248.0, 400.0, 160.0, 17.0 ],
					"outlettype" : [ "", "" ],
					"fontname" : "Arial",
					"id" : "obj-52"
				}

			}
, 			{
				"box" : 				{
					"maxclass" : "led",
					"varname" : "button[3]",
					"numinlets" : 1,
					"numoutlets" : 1,
					"patching_rect" : [ 228.0, 400.0, 16.0, 16.0 ],
					"presentation" : 1,
					"outlettype" : [ "int" ],
					"bgcolor" : [ 0.35294, 0.35294, 0.35294, 1.0 ],
					"id" : "obj-53",
					"presentation_rect" : [ 48.0, 82.0, 16.0, 16.0 ]
				}

			}
, 			{
				"box" : 				{
					"maxclass" : "newobj",
					"text" : "p note",
					"numinlets" : 2,
					"fontsize" : 12.0,
					"numoutlets" : 1,
					"patching_rect" : [ 172.0, 398.0, 46.0, 20.0 ],
					"outlettype" : [ "int" ],
					"fontname" : "Arial",
					"id" : "obj-47",
					"patcher" : 					{
						"fileversion" : 1,
						"rect" : [ 0.0, 0.0, 640.0, 480.0 ],
						"bglocked" : 0,
						"defrect" : [ 0.0, 0.0, 640.0, 480.0 ],
						"openrect" : [ 0.0, 0.0, 0.0, 0.0 ],
						"openinpresentation" : 0,
						"default_fontsize" : 12.0,
						"default_fontface" : 0,
						"default_fontname" : "Arial",
						"gridonopen" : 0,
						"gridsize" : [ 2.0, 2.0 ],
						"gridsnaponopen" : 0,
						"toolbarvisible" : 1,
						"boxanimatetime" : 200,
						"imprint" : 0,
						"metadata" : [  ],
						"boxes" : [ 							{
								"box" : 								{
									"maxclass" : "newobj",
									"text" : "sel 1",
									"numinlets" : 2,
									"fontsize" : 9.0,
									"numoutlets" : 2,
									"patching_rect" : [ 50.0, 155.0, 32.0, 17.0 ],
									"hidden" : 1,
									"outlettype" : [ "bang", "" ],
									"fontname" : "Arial",
									"id" : "obj-2"
								}

							}
, 							{
								"box" : 								{
									"maxclass" : "newobj",
									"text" : "- 1",
									"numinlets" : 2,
									"fontsize" : 9.0,
									"numoutlets" : 1,
									"patching_rect" : [ 110.0, 100.0, 27.0, 17.0 ],
									"hidden" : 1,
									"outlettype" : [ "int" ],
									"fontname" : "Arial",
									"id" : "obj-7"
								}

							}
, 							{
								"box" : 								{
									"maxclass" : "newobj",
									"varname" : "=",
									"text" : "== 127",
									"numinlets" : 2,
									"fontsize" : 9.0,
									"numoutlets" : 1,
									"patching_rect" : [ 50.0, 209.0, 39.0, 17.0 ],
									"hidden" : 1,
									"outlettype" : [ "int" ],
									"fontname" : "Arial",
									"id" : "obj-9"
								}

							}
, 							{
								"box" : 								{
									"maxclass" : "newobj",
									"text" : "i",
									"numinlets" : 2,
									"fontsize" : 9.0,
									"numoutlets" : 1,
									"patching_rect" : [ 50.0, 184.0, 57.0, 17.0 ],
									"hidden" : 1,
									"outlettype" : [ "int" ],
									"fontname" : "Arial",
									"id" : "obj-10"
								}

							}
, 							{
								"box" : 								{
									"maxclass" : "newobj",
									"text" : "==",
									"numinlets" : 2,
									"fontsize" : 9.0,
									"numoutlets" : 1,
									"patching_rect" : [ 50.0, 124.0, 70.0, 17.0 ],
									"hidden" : 1,
									"outlettype" : [ "int" ],
									"fontname" : "Arial",
									"id" : "obj-11"
								}

							}
, 							{
								"box" : 								{
									"maxclass" : "newobj",
									"text" : "notein a #3",
									"numinlets" : 1,
									"fontsize" : 9.0,
									"numoutlets" : 3,
									"patching_rect" : [ 50.0, 101.0, 57.0, 17.0 ],
									"hidden" : 1,
									"outlettype" : [ "int", "int", "int" ],
									"fontname" : "Arial",
									"id" : "obj-12"
								}

							}
, 							{
								"box" : 								{
									"maxclass" : "inlet",
									"numinlets" : 0,
									"numoutlets" : 1,
									"patching_rect" : [ 55.0, 40.0, 25.0, 25.0 ],
									"outlettype" : [ "" ],
									"id" : "obj-17",
									"comment" : ""
								}

							}
, 							{
								"box" : 								{
									"maxclass" : "inlet",
									"numinlets" : 0,
									"numoutlets" : 1,
									"patching_rect" : [ 116.0, 40.0, 25.0, 25.0 ],
									"outlettype" : [ "" ],
									"id" : "obj-18",
									"comment" : ""
								}

							}
, 							{
								"box" : 								{
									"maxclass" : "outlet",
									"numinlets" : 1,
									"numoutlets" : 0,
									"patching_rect" : [ 55.0, 286.0, 25.0, 25.0 ],
									"id" : "obj-19",
									"comment" : ""
								}

							}
 ],
						"lines" : [ 							{
								"patchline" : 								{
									"source" : [ "obj-12", 0 ],
									"destination" : [ "obj-11", 0 ],
									"hidden" : 1,
									"midpoints" : [  ]
								}

							}
, 							{
								"patchline" : 								{
									"source" : [ "obj-11", 0 ],
									"destination" : [ "obj-2", 0 ],
									"hidden" : 1,
									"midpoints" : [  ]
								}

							}
, 							{
								"patchline" : 								{
									"source" : [ "obj-2", 0 ],
									"destination" : [ "obj-10", 0 ],
									"hidden" : 1,
									"midpoints" : [  ]
								}

							}
, 							{
								"patchline" : 								{
									"source" : [ "obj-10", 0 ],
									"destination" : [ "obj-9", 0 ],
									"hidden" : 1,
									"midpoints" : [  ]
								}

							}
, 							{
								"patchline" : 								{
									"source" : [ "obj-12", 1 ],
									"destination" : [ "obj-10", 1 ],
									"hidden" : 1,
									"midpoints" : [  ]
								}

							}
, 							{
								"patchline" : 								{
									"source" : [ "obj-7", 0 ],
									"destination" : [ "obj-11", 1 ],
									"hidden" : 1,
									"midpoints" : [  ]
								}

							}
, 							{
								"patchline" : 								{
									"source" : [ "obj-17", 0 ],
									"destination" : [ "obj-12", 0 ],
									"hidden" : 0,
									"midpoints" : [  ]
								}

							}
, 							{
								"patchline" : 								{
									"source" : [ "obj-18", 0 ],
									"destination" : [ "obj-7", 0 ],
									"hidden" : 0,
									"midpoints" : [  ]
								}

							}
, 							{
								"patchline" : 								{
									"source" : [ "obj-9", 0 ],
									"destination" : [ "obj-19", 0 ],
									"hidden" : 0,
									"midpoints" : [  ]
								}

							}
 ]
					}
,
					"saved_object_attributes" : 					{
						"fontface" : 0,
						"fontsize" : 12.0,
						"default_fontname" : "Arial",
						"globalpatchername" : "",
						"default_fontsize" : 12.0,
						"fontname" : "Arial",
						"default_fontface" : 0
					}

				}

			}
, 			{
				"box" : 				{
					"maxclass" : "newobj",
					"text" : "jcom.return noteout.3 @type msg_int",
					"numinlets" : 1,
					"fontsize" : 9.0,
					"numoutlets" : 2,
					"patching_rect" : [ 192.0, 426.0, 160.0, 17.0 ],
					"outlettype" : [ "", "" ],
					"fontname" : "Arial",
					"id" : "obj-48"
				}

			}
, 			{
				"box" : 				{
					"maxclass" : "led",
					"varname" : "button[2]",
					"numinlets" : 1,
					"numoutlets" : 1,
					"patching_rect" : [ 172.0, 426.0, 16.0, 16.0 ],
					"presentation" : 1,
					"outlettype" : [ "int" ],
					"bgcolor" : [ 0.35294, 0.35294, 0.35294, 1.0 ],
					"id" : "obj-49",
					"presentation_rect" : [ 48.0, 62.0, 16.0, 16.0 ]
				}

			}
, 			{
				"box" : 				{
					"maxclass" : "newobj",
					"text" : "p note",
					"numinlets" : 2,
					"fontsize" : 12.0,
					"numoutlets" : 1,
					"patching_rect" : [ 116.0, 424.0, 46.0, 20.0 ],
					"outlettype" : [ "int" ],
					"fontname" : "Arial",
					"id" : "obj-44",
					"presentation_rect" : [ 212.0, 504.0, 0.0, 0.0 ],
					"patcher" : 					{
						"fileversion" : 1,
						"rect" : [ 0.0, 0.0, 640.0, 480.0 ],
						"bglocked" : 0,
						"defrect" : [ 0.0, 0.0, 640.0, 480.0 ],
						"openrect" : [ 0.0, 0.0, 0.0, 0.0 ],
						"openinpresentation" : 0,
						"default_fontsize" : 12.0,
						"default_fontface" : 0,
						"default_fontname" : "Arial",
						"gridonopen" : 0,
						"gridsize" : [ 2.0, 2.0 ],
						"gridsnaponopen" : 0,
						"toolbarvisible" : 1,
						"boxanimatetime" : 200,
						"imprint" : 0,
						"metadata" : [  ],
						"boxes" : [ 							{
								"box" : 								{
									"maxclass" : "newobj",
									"text" : "sel 1",
									"numinlets" : 2,
									"fontsize" : 9.0,
									"numoutlets" : 2,
									"patching_rect" : [ 50.0, 155.0, 32.0, 17.0 ],
									"hidden" : 1,
									"outlettype" : [ "bang", "" ],
									"fontname" : "Arial",
									"id" : "obj-2"
								}

							}
, 							{
								"box" : 								{
									"maxclass" : "newobj",
									"text" : "- 1",
									"numinlets" : 2,
									"fontsize" : 9.0,
									"numoutlets" : 1,
									"patching_rect" : [ 110.0, 100.0, 27.0, 17.0 ],
									"hidden" : 1,
									"outlettype" : [ "int" ],
									"fontname" : "Arial",
									"id" : "obj-7"
								}

							}
, 							{
								"box" : 								{
									"maxclass" : "newobj",
									"varname" : "=",
									"text" : "== 127",
									"numinlets" : 2,
									"fontsize" : 9.0,
									"numoutlets" : 1,
									"patching_rect" : [ 50.0, 209.0, 39.0, 17.0 ],
									"hidden" : 1,
									"outlettype" : [ "int" ],
									"fontname" : "Arial",
									"id" : "obj-9"
								}

							}
, 							{
								"box" : 								{
									"maxclass" : "newobj",
									"text" : "i",
									"numinlets" : 2,
									"fontsize" : 9.0,
									"numoutlets" : 1,
									"patching_rect" : [ 50.0, 184.0, 57.0, 17.0 ],
									"hidden" : 1,
									"outlettype" : [ "int" ],
									"fontname" : "Arial",
									"id" : "obj-10"
								}

							}
, 							{
								"box" : 								{
									"maxclass" : "newobj",
									"text" : "==",
									"numinlets" : 2,
									"fontsize" : 9.0,
									"numoutlets" : 1,
									"patching_rect" : [ 50.0, 124.0, 70.0, 17.0 ],
									"hidden" : 1,
									"outlettype" : [ "int" ],
									"fontname" : "Arial",
									"id" : "obj-11"
								}

							}
, 							{
								"box" : 								{
									"maxclass" : "newobj",
									"text" : "notein a #3",
									"numinlets" : 1,
									"fontsize" : 9.0,
									"numoutlets" : 3,
									"patching_rect" : [ 50.0, 101.0, 57.0, 17.0 ],
									"hidden" : 1,
									"outlettype" : [ "int", "int", "int" ],
									"fontname" : "Arial",
									"id" : "obj-12"
								}

							}
, 							{
								"box" : 								{
									"maxclass" : "inlet",
									"numinlets" : 0,
									"numoutlets" : 1,
									"patching_rect" : [ 55.0, 40.0, 25.0, 25.0 ],
									"outlettype" : [ "" ],
									"id" : "obj-17",
									"comment" : ""
								}

							}
, 							{
								"box" : 								{
									"maxclass" : "inlet",
									"numinlets" : 0,
									"numoutlets" : 1,
									"patching_rect" : [ 116.0, 40.0, 25.0, 25.0 ],
									"outlettype" : [ "" ],
									"id" : "obj-18",
									"comment" : ""
								}

							}
, 							{
								"box" : 								{
									"maxclass" : "outlet",
									"numinlets" : 1,
									"numoutlets" : 0,
									"patching_rect" : [ 55.0, 286.0, 25.0, 25.0 ],
									"id" : "obj-19",
									"comment" : ""
								}

							}
 ],
						"lines" : [ 							{
								"patchline" : 								{
									"source" : [ "obj-9", 0 ],
									"destination" : [ "obj-19", 0 ],
									"hidden" : 0,
									"midpoints" : [  ]
								}

							}
, 							{
								"patchline" : 								{
									"source" : [ "obj-18", 0 ],
									"destination" : [ "obj-7", 0 ],
									"hidden" : 0,
									"midpoints" : [  ]
								}

							}
, 							{
								"patchline" : 								{
									"source" : [ "obj-17", 0 ],
									"destination" : [ "obj-12", 0 ],
									"hidden" : 0,
									"midpoints" : [  ]
								}

							}
, 							{
								"patchline" : 								{
									"source" : [ "obj-7", 0 ],
									"destination" : [ "obj-11", 1 ],
									"hidden" : 1,
									"midpoints" : [  ]
								}

							}
, 							{
								"patchline" : 								{
									"source" : [ "obj-12", 1 ],
									"destination" : [ "obj-10", 1 ],
									"hidden" : 1,
									"midpoints" : [  ]
								}

							}
, 							{
								"patchline" : 								{
									"source" : [ "obj-10", 0 ],
									"destination" : [ "obj-9", 0 ],
									"hidden" : 1,
									"midpoints" : [  ]
								}

							}
, 							{
								"patchline" : 								{
									"source" : [ "obj-2", 0 ],
									"destination" : [ "obj-10", 0 ],
									"hidden" : 1,
									"midpoints" : [  ]
								}

							}
, 							{
								"patchline" : 								{
									"source" : [ "obj-11", 0 ],
									"destination" : [ "obj-2", 0 ],
									"hidden" : 1,
									"midpoints" : [  ]
								}

							}
, 							{
								"patchline" : 								{
									"source" : [ "obj-12", 0 ],
									"destination" : [ "obj-11", 0 ],
									"hidden" : 1,
									"midpoints" : [  ]
								}

							}
 ]
					}
,
					"saved_object_attributes" : 					{
						"fontface" : 0,
						"fontsize" : 12.0,
						"default_fontname" : "Arial",
						"globalpatchername" : "",
						"default_fontsize" : 12.0,
						"fontname" : "Arial",
						"default_fontface" : 0
					}

				}

			}
, 			{
				"box" : 				{
					"maxclass" : "newobj",
					"text" : "jcom.return noteout.2 @type msg_int",
					"numinlets" : 1,
					"fontsize" : 9.0,
					"numoutlets" : 2,
					"patching_rect" : [ 136.0, 452.0, 160.0, 17.0 ],
					"outlettype" : [ "", "" ],
					"fontname" : "Arial",
					"id" : "obj-45"
				}

			}
, 			{
				"box" : 				{
					"maxclass" : "led",
					"varname" : "button[1]",
					"numinlets" : 1,
					"numoutlets" : 1,
					"patching_rect" : [ 116.0, 452.0, 16.0, 16.0 ],
					"presentation" : 1,
					"outlettype" : [ "int" ],
					"bgcolor" : [ 0.35294, 0.35294, 0.35294, 1.0 ],
					"id" : "obj-46",
					"presentation_rect" : [ 48.0, 42.0, 16.0, 16.0 ]
				}

			}
, 			{
				"box" : 				{
					"maxclass" : "newobj",
					"text" : "jcom.parameter note.8/nbr @type msg_int",
					"numinlets" : 1,
					"fontsize" : 9.0,
					"numoutlets" : 3,
					"patching_rect" : [ 664.0, 218.0, 190.0, 17.0 ],
					"outlettype" : [ "", "", "" ],
					"fontname" : "Arial",
					"id" : "obj-30"
				}

			}
, 			{
				"box" : 				{
					"maxclass" : "number",
					"numinlets" : 1,
					"triangle" : 0,
					"fontsize" : 9.0,
					"numoutlets" : 2,
					"patching_rect" : [ 664.0, 200.0, 30.0, 17.0 ],
					"presentation" : 1,
					"outlettype" : [ "int", "bang" ],
					"fontname" : "Arial",
					"id" : "obj-31",
					"presentation_rect" : [ 117.0, 82.0, 30.0, 17.0 ]
				}

			}
, 			{
				"box" : 				{
					"maxclass" : "comment",
					"text" : "button",
					"numinlets" : 1,
					"fontsize" : 9.0,
					"numoutlets" : 0,
					"patching_rect" : [ 600.0, 200.0, 35.0, 17.0 ],
					"presentation" : 1,
					"frgb" : [ 0.839216, 0.839216, 0.839216, 1.0 ],
					"fontname" : "Arial",
					"id" : "obj-32",
					"textcolor" : [ 0.839216, 0.839216, 0.839216, 1.0 ],
					"presentation_rect" : [ 86.0, 82.0, 35.0, 17.0 ]
				}

			}
, 			{
				"box" : 				{
					"maxclass" : "newobj",
					"text" : "jcom.parameter note.7/nbr @type msg_int",
					"numinlets" : 1,
					"fontsize" : 9.0,
					"numoutlets" : 3,
					"patching_rect" : [ 666.0, 158.0, 190.0, 17.0 ],
					"outlettype" : [ "", "", "" ],
					"fontname" : "Arial",
					"id" : "obj-33"
				}

			}
, 			{
				"box" : 				{
					"maxclass" : "number",
					"numinlets" : 1,
					"triangle" : 0,
					"fontsize" : 9.0,
					"numoutlets" : 2,
					"patching_rect" : [ 666.0, 140.0, 30.0, 17.0 ],
					"presentation" : 1,
					"outlettype" : [ "int", "bang" ],
					"fontname" : "Arial",
					"id" : "obj-34",
					"presentation_rect" : [ 117.0, 62.0, 15.49707, 17.0 ]
				}

			}
, 			{
				"box" : 				{
					"maxclass" : "comment",
					"text" : "button",
					"numinlets" : 1,
					"fontsize" : 9.0,
					"numoutlets" : 0,
					"patching_rect" : [ 602.0, 140.0, 35.0, 17.0 ],
					"presentation" : 1,
					"frgb" : [ 0.839216, 0.839216, 0.839216, 1.0 ],
					"fontname" : "Arial",
					"id" : "obj-35",
					"textcolor" : [ 0.839216, 0.839216, 0.839216, 1.0 ],
					"presentation_rect" : [ 86.0, 62.0, 35.0, 17.0 ]
				}

			}
, 			{
				"box" : 				{
					"maxclass" : "newobj",
					"text" : "jcom.parameter note.6/nbr @type msg_int",
					"numinlets" : 1,
					"fontsize" : 9.0,
					"numoutlets" : 3,
					"patching_rect" : [ 666.0, 102.0, 190.0, 17.0 ],
					"outlettype" : [ "", "", "" ],
					"fontname" : "Arial",
					"id" : "obj-36"
				}

			}
, 			{
				"box" : 				{
					"maxclass" : "number",
					"numinlets" : 1,
					"triangle" : 0,
					"fontsize" : 9.0,
					"numoutlets" : 2,
					"patching_rect" : [ 666.0, 84.0, 30.0, 17.0 ],
					"presentation" : 1,
					"outlettype" : [ "int", "bang" ],
					"fontname" : "Arial",
					"id" : "obj-37",
					"presentation_rect" : [ 117.0, 42.0, 16.0, 17.0 ]
				}

			}
, 			{
				"box" : 				{
					"maxclass" : "comment",
					"text" : "button",
					"numinlets" : 1,
					"fontsize" : 9.0,
					"numoutlets" : 0,
					"patching_rect" : [ 602.0, 84.0, 35.0, 17.0 ],
					"presentation" : 1,
					"frgb" : [ 0.839216, 0.839216, 0.839216, 1.0 ],
					"fontname" : "Arial",
					"id" : "obj-38",
					"textcolor" : [ 0.839216, 0.839216, 0.839216, 1.0 ],
					"presentation_rect" : [ 86.0, 42.0, 35.0, 17.0 ]
				}

			}
, 			{
				"box" : 				{
					"maxclass" : "newobj",
					"text" : "jcom.parameter note.5/nbr @type msg_int",
					"numinlets" : 1,
					"fontsize" : 9.0,
					"numoutlets" : 3,
					"patching_rect" : [ 664.0, 48.0, 190.0, 17.0 ],
					"outlettype" : [ "", "", "" ],
					"fontname" : "Arial",
					"id" : "obj-39"
				}

			}
, 			{
				"box" : 				{
					"maxclass" : "number",
					"numinlets" : 1,
					"triangle" : 0,
					"fontsize" : 9.0,
					"numoutlets" : 2,
					"patching_rect" : [ 664.0, 30.0, 30.0, 17.0 ],
					"presentation" : 1,
					"outlettype" : [ "int", "bang" ],
					"fontname" : "Arial",
					"id" : "obj-40",
					"presentation_rect" : [ 117.0, 22.0, 30.0, 17.0 ]
				}

			}
, 			{
				"box" : 				{
					"maxclass" : "comment",
					"text" : "button",
					"numinlets" : 1,
					"fontsize" : 9.0,
					"numoutlets" : 0,
					"patching_rect" : [ 600.0, 30.0, 35.0, 17.0 ],
					"presentation" : 1,
					"frgb" : [ 0.839216, 0.839216, 0.839216, 1.0 ],
					"fontname" : "Arial",
					"id" : "obj-41",
					"textcolor" : [ 0.839216, 0.839216, 0.839216, 1.0 ],
					"presentation_rect" : [ 86.0, 22.0, 35.0, 17.0 ]
				}

			}
, 			{
				"box" : 				{
					"maxclass" : "newobj",
					"text" : "jcom.parameter note.4/nbr @type msg_int",
					"numinlets" : 1,
					"fontsize" : 9.0,
					"numoutlets" : 3,
					"patching_rect" : [ 398.0, 216.0, 190.0, 17.0 ],
					"outlettype" : [ "", "", "" ],
					"fontname" : "Arial",
					"id" : "obj-27"
				}

			}
, 			{
				"box" : 				{
					"maxclass" : "number",
					"numinlets" : 1,
					"triangle" : 0,
					"fontsize" : 9.0,
					"numoutlets" : 2,
					"patching_rect" : [ 398.0, 198.0, 30.0, 17.0 ],
					"presentation" : 1,
					"outlettype" : [ "int", "bang" ],
					"fontname" : "Arial",
					"id" : "obj-28",
					"presentation_rect" : [ 34.0, 81.0, 15.49707, 17.0 ]
				}

			}
, 			{
				"box" : 				{
					"maxclass" : "comment",
					"text" : "button",
					"numinlets" : 1,
					"fontsize" : 9.0,
					"numoutlets" : 0,
					"patching_rect" : [ 334.0, 198.0, 35.0, 17.0 ],
					"presentation" : 1,
					"frgb" : [ 0.839216, 0.839216, 0.839216, 1.0 ],
					"fontname" : "Arial",
					"id" : "obj-29",
					"textcolor" : [ 0.839216, 0.839216, 0.839216, 1.0 ],
					"presentation_rect" : [ 4.0, 82.0, 35.0, 17.0 ]
				}

			}
, 			{
				"box" : 				{
					"maxclass" : "newobj",
					"text" : "jcom.parameter note.3/nbr @type msg_int",
					"numinlets" : 1,
					"fontsize" : 9.0,
					"numoutlets" : 3,
					"patching_rect" : [ 400.0, 156.0, 190.0, 17.0 ],
					"outlettype" : [ "", "", "" ],
					"fontname" : "Arial",
					"id" : "obj-24"
				}

			}
, 			{
				"box" : 				{
					"maxclass" : "number",
					"numinlets" : 1,
					"triangle" : 0,
					"fontsize" : 9.0,
					"numoutlets" : 2,
					"patching_rect" : [ 400.0, 138.0, 30.0, 17.0 ],
					"presentation" : 1,
					"outlettype" : [ "int", "bang" ],
					"fontname" : "Arial",
					"id" : "obj-25",
					"presentation_rect" : [ 34.0, 61.0, 15.49707, 17.0 ]
				}

			}
, 			{
				"box" : 				{
					"maxclass" : "comment",
					"text" : "button",
					"numinlets" : 1,
					"fontsize" : 9.0,
					"numoutlets" : 0,
					"patching_rect" : [ 336.0, 138.0, 35.0, 17.0 ],
					"presentation" : 1,
					"frgb" : [ 0.839216, 0.839216, 0.839216, 1.0 ],
					"fontname" : "Arial",
					"id" : "obj-26",
					"textcolor" : [ 0.839216, 0.839216, 0.839216, 1.0 ],
					"presentation_rect" : [ 4.0, 62.0, 35.0, 17.0 ]
				}

			}
, 			{
				"box" : 				{
					"maxclass" : "newobj",
					"text" : "jcom.parameter note.2/nbr @type msg_int",
					"numinlets" : 1,
					"fontsize" : 9.0,
					"numoutlets" : 3,
					"patching_rect" : [ 400.0, 100.0, 190.0, 17.0 ],
					"outlettype" : [ "", "", "" ],
					"fontname" : "Arial",
					"id" : "obj-21"
				}

			}
, 			{
				"box" : 				{
					"maxclass" : "number",
					"numinlets" : 1,
					"triangle" : 0,
					"fontsize" : 9.0,
					"numoutlets" : 2,
					"patching_rect" : [ 400.0, 82.0, 30.0, 17.0 ],
					"presentation" : 1,
					"outlettype" : [ "int", "bang" ],
					"fontname" : "Arial",
					"id" : "obj-22",
					"presentation_rect" : [ 33.0, 42.0, 15.49707, 17.0 ]
				}

			}
, 			{
				"box" : 				{
					"maxclass" : "comment",
					"text" : "button",
					"numinlets" : 1,
					"fontsize" : 9.0,
					"numoutlets" : 0,
					"patching_rect" : [ 336.0, 82.0, 35.0, 17.0 ],
					"presentation" : 1,
					"frgb" : [ 0.839216, 0.839216, 0.839216, 1.0 ],
					"fontname" : "Arial",
					"id" : "obj-23",
					"textcolor" : [ 0.839216, 0.839216, 0.839216, 1.0 ],
					"presentation_rect" : [ 4.0, 42.0, 35.0, 17.0 ]
				}

			}
, 			{
				"box" : 				{
					"maxclass" : "newobj",
					"text" : "p note",
					"numinlets" : 2,
					"fontsize" : 12.0,
					"numoutlets" : 1,
					"patching_rect" : [ 66.0, 450.0, 46.0, 20.0 ],
					"outlettype" : [ "int" ],
					"fontname" : "Arial",
					"id" : "obj-20",
					"patcher" : 					{
						"fileversion" : 1,
						"rect" : [ 0.0, 0.0, 640.0, 480.0 ],
						"bglocked" : 0,
						"defrect" : [ 0.0, 0.0, 640.0, 480.0 ],
						"openrect" : [ 0.0, 0.0, 0.0, 0.0 ],
						"openinpresentation" : 0,
						"default_fontsize" : 12.0,
						"default_fontface" : 0,
						"default_fontname" : "Arial",
						"gridonopen" : 0,
						"gridsize" : [ 2.0, 2.0 ],
						"gridsnaponopen" : 0,
						"toolbarvisible" : 1,
						"boxanimatetime" : 200,
						"imprint" : 0,
						"metadata" : [  ],
						"boxes" : [ 							{
								"box" : 								{
									"maxclass" : "newobj",
									"text" : "sel 1",
									"numinlets" : 2,
									"fontsize" : 9.0,
									"numoutlets" : 2,
									"patching_rect" : [ 50.0, 155.0, 32.0, 17.0 ],
									"hidden" : 1,
									"outlettype" : [ "bang", "" ],
									"fontname" : "Arial",
									"id" : "obj-2"
								}

							}
, 							{
								"box" : 								{
									"maxclass" : "newobj",
									"text" : "- 1",
									"numinlets" : 2,
									"fontsize" : 9.0,
									"numoutlets" : 1,
									"patching_rect" : [ 110.0, 100.0, 27.0, 17.0 ],
									"hidden" : 1,
									"outlettype" : [ "int" ],
									"fontname" : "Arial",
									"id" : "obj-7"
								}

							}
, 							{
								"box" : 								{
									"maxclass" : "newobj",
									"varname" : "=",
									"text" : "== 127",
									"numinlets" : 2,
									"fontsize" : 9.0,
									"numoutlets" : 1,
									"patching_rect" : [ 50.0, 209.0, 39.0, 17.0 ],
									"hidden" : 1,
									"outlettype" : [ "int" ],
									"fontname" : "Arial",
									"id" : "obj-9"
								}

							}
, 							{
								"box" : 								{
									"maxclass" : "newobj",
									"text" : "i",
									"numinlets" : 2,
									"fontsize" : 9.0,
									"numoutlets" : 1,
									"patching_rect" : [ 50.0, 184.0, 57.0, 17.0 ],
									"hidden" : 1,
									"outlettype" : [ "int" ],
									"fontname" : "Arial",
									"id" : "obj-10"
								}

							}
, 							{
								"box" : 								{
									"maxclass" : "newobj",
									"text" : "==",
									"numinlets" : 2,
									"fontsize" : 9.0,
									"numoutlets" : 1,
									"patching_rect" : [ 50.0, 124.0, 70.0, 17.0 ],
									"hidden" : 1,
									"outlettype" : [ "int" ],
									"fontname" : "Arial",
									"id" : "obj-11"
								}

							}
, 							{
								"box" : 								{
									"maxclass" : "newobj",
									"text" : "notein a #3",
									"numinlets" : 1,
									"fontsize" : 9.0,
									"numoutlets" : 3,
									"patching_rect" : [ 50.0, 101.0, 57.0, 17.0 ],
									"hidden" : 1,
									"outlettype" : [ "int", "int", "int" ],
									"fontname" : "Arial",
									"id" : "obj-12"
								}

							}
, 							{
								"box" : 								{
									"maxclass" : "inlet",
									"numinlets" : 0,
									"numoutlets" : 1,
									"patching_rect" : [ 55.0, 40.0, 25.0, 25.0 ],
									"outlettype" : [ "" ],
									"id" : "obj-17",
									"comment" : ""
								}

							}
, 							{
								"box" : 								{
									"maxclass" : "inlet",
									"numinlets" : 0,
									"numoutlets" : 1,
									"patching_rect" : [ 116.0, 40.0, 25.0, 25.0 ],
									"outlettype" : [ "" ],
									"id" : "obj-18",
									"comment" : ""
								}

							}
, 							{
								"box" : 								{
									"maxclass" : "outlet",
									"numinlets" : 1,
									"numoutlets" : 0,
									"patching_rect" : [ 55.0, 286.0, 25.0, 25.0 ],
									"id" : "obj-19",
									"comment" : ""
								}

							}
 ],
						"lines" : [ 							{
								"patchline" : 								{
									"source" : [ "obj-12", 0 ],
									"destination" : [ "obj-11", 0 ],
									"hidden" : 1,
									"midpoints" : [  ]
								}

							}
, 							{
								"patchline" : 								{
									"source" : [ "obj-11", 0 ],
									"destination" : [ "obj-2", 0 ],
									"hidden" : 1,
									"midpoints" : [  ]
								}

							}
, 							{
								"patchline" : 								{
									"source" : [ "obj-2", 0 ],
									"destination" : [ "obj-10", 0 ],
									"hidden" : 1,
									"midpoints" : [  ]
								}

							}
, 							{
								"patchline" : 								{
									"source" : [ "obj-10", 0 ],
									"destination" : [ "obj-9", 0 ],
									"hidden" : 1,
									"midpoints" : [  ]
								}

							}
, 							{
								"patchline" : 								{
									"source" : [ "obj-12", 1 ],
									"destination" : [ "obj-10", 1 ],
									"hidden" : 1,
									"midpoints" : [  ]
								}

							}
, 							{
								"patchline" : 								{
									"source" : [ "obj-7", 0 ],
									"destination" : [ "obj-11", 1 ],
									"hidden" : 1,
									"midpoints" : [  ]
								}

							}
, 							{
								"patchline" : 								{
									"source" : [ "obj-17", 0 ],
									"destination" : [ "obj-12", 0 ],
									"hidden" : 0,
									"midpoints" : [  ]
								}

							}
, 							{
								"patchline" : 								{
									"source" : [ "obj-18", 0 ],
									"destination" : [ "obj-7", 0 ],
									"hidden" : 0,
									"midpoints" : [  ]
								}

							}
, 							{
								"patchline" : 								{
									"source" : [ "obj-9", 0 ],
									"destination" : [ "obj-19", 0 ],
									"hidden" : 0,
									"midpoints" : [  ]
								}

							}
 ]
					}
,
					"saved_object_attributes" : 					{
						"fontface" : 0,
						"fontsize" : 12.0,
						"default_fontname" : "Arial",
						"globalpatchername" : "",
						"default_fontsize" : 12.0,
						"fontname" : "Arial",
						"default_fontface" : 0
					}

				}

			}
, 			{
				"box" : 				{
					"maxclass" : "outlet",
					"numinlets" : 1,
					"numoutlets" : 0,
					"patching_rect" : [ 6.0, 212.0, 25.0, 25.0 ],
					"id" : "obj-58",
					"comment" : ""
				}

			}
, 			{
				"box" : 				{
					"maxclass" : "message",
					"text" : "/preset/store 1 default, /preset/write",
					"numinlets" : 2,
					"fontsize" : 10.0,
					"numoutlets" : 1,
					"patching_rect" : [ 18.0, 125.0, 211.0, 16.0 ],
					"outlettype" : [ "" ],
					"fontname" : "Arial",
					"bgcolor" : [ 0.8, 0.54902, 0.54902, 1.0 ],
					"id" : "obj-16"
				}

			}
, 			{
				"box" : 				{
					"maxclass" : "message",
					"text" : "/documentation/generate",
					"numinlets" : 2,
					"fontsize" : 9.873845,
					"numoutlets" : 1,
					"patching_rect" : [ 32.0, 146.0, 135.0, 16.0 ],
					"outlettype" : [ "" ],
					"fontname" : "Verdana",
					"id" : "obj-68"
				}

			}
, 			{
				"box" : 				{
					"maxclass" : "newobj",
					"varname" : "jcom.hub",
					"text" : "jcom.hub @module_type control @description dd",
					"numinlets" : 1,
					"fontsize" : 9.0,
					"numoutlets" : 2,
					"patching_rect" : [ 8.0, 172.0, 245.0, 17.0 ],
					"outlettype" : [ "", "" ],
					"fontname" : "Verdana",
					"id" : "obj-73"
				}

			}
, 			{
				"box" : 				{
					"maxclass" : "inlet",
					"numinlets" : 0,
					"numoutlets" : 1,
					"patching_rect" : [ 10.0, 147.0, 13.0, 13.0 ],
					"outlettype" : [ "" ],
					"id" : "obj-74",
					"comment" : ""
				}

			}
, 			{
				"box" : 				{
					"maxclass" : "newobj",
					"text" : "jcom.in",
					"numinlets" : 1,
					"fontsize" : 9.873845,
					"numoutlets" : 2,
					"patching_rect" : [ 94.0, 302.0, 54.0, 18.0 ],
					"outlettype" : [ "", "" ],
					"fontname" : "Verdana",
					"id" : "obj-14"
				}

			}
, 			{
				"box" : 				{
					"maxclass" : "newobj",
					"text" : "jcom.oscroute /note.1/nbr /note.2/nbr /note.3/nbr /note.4/nbr /note.5/nbr /note.6/nbr /note.7/nbr /note.8/nbr",
					"numinlets" : 1,
					"fontsize" : 9.0,
					"numoutlets" : 9,
					"patching_rect" : [ 92.0, 324.0, 626.0, 17.0 ],
					"outlettype" : [ "", "", "", "", "", "", "", "", "" ],
					"fontname" : "Arial",
					"id" : "obj-15"
				}

			}
, 			{
				"box" : 				{
					"maxclass" : "newobj",
					"text" : "jcom.parameter note.1/nbr @type msg_int",
					"numinlets" : 1,
					"fontsize" : 9.0,
					"numoutlets" : 3,
					"patching_rect" : [ 398.0, 46.0, 190.0, 17.0 ],
					"outlettype" : [ "", "", "" ],
					"fontname" : "Arial",
					"id" : "obj-43"
				}

			}
, 			{
				"box" : 				{
					"maxclass" : "number",
					"numinlets" : 1,
					"triangle" : 0,
					"fontsize" : 9.0,
					"numoutlets" : 2,
					"patching_rect" : [ 398.0, 28.0, 30.0, 17.0 ],
					"presentation" : 1,
					"outlettype" : [ "int", "bang" ],
					"fontname" : "Arial",
					"id" : "obj-42",
					"presentation_rect" : [ 34.0, 22.0, 17.0, 17.0 ]
				}

			}
, 			{
				"box" : 				{
					"maxclass" : "newobj",
					"text" : "jcom.return noteout.1 @type msg_int",
					"numinlets" : 1,
					"fontsize" : 9.0,
					"numoutlets" : 2,
					"patching_rect" : [ 86.0, 478.0, 160.0, 17.0 ],
					"outlettype" : [ "", "" ],
					"fontname" : "Arial",
					"id" : "obj-1"
				}

			}
, 			{
				"box" : 				{
					"maxclass" : "newobj",
					"text" : "r #2midiport",
					"numinlets" : 0,
					"fontsize" : 9.0,
					"numoutlets" : 1,
					"patching_rect" : [ 30.0, 262.0, 61.0, 17.0 ],
					"hidden" : 1,
					"outlettype" : [ "" ],
					"fontname" : "Arial",
					"id" : "obj-4"
				}

			}
, 			{
				"box" : 				{
					"maxclass" : "led",
					"varname" : "button",
					"numinlets" : 1,
					"numoutlets" : 1,
					"patching_rect" : [ 66.0, 478.0, 16.0, 16.0 ],
					"presentation" : 1,
					"outlettype" : [ "int" ],
					"bgcolor" : [ 0.35294, 0.35294, 0.35294, 1.0 ],
					"id" : "obj-6",
					"presentation_rect" : [ 48.0, 22.0, 16.0, 16.0 ]
				}

			}
, 			{
				"box" : 				{
					"maxclass" : "comment",
					"text" : "button",
					"numinlets" : 1,
					"fontsize" : 9.0,
					"numoutlets" : 0,
					"patching_rect" : [ 334.0, 28.0, 35.0, 17.0 ],
					"presentation" : 1,
					"frgb" : [ 0.839216, 0.839216, 0.839216, 1.0 ],
					"fontname" : "Arial",
					"id" : "obj-13",
					"textcolor" : [ 0.839216, 0.839216, 0.839216, 1.0 ],
					"presentation_rect" : [ 4.0, 22.0, 35.0, 17.0 ]
				}

			}
, 			{
				"box" : 				{
					"maxclass" : "jcom.ui",
					"text" : "/editing_this_module.1",
					"numinlets" : 1,
					"fontsize" : 9.0,
					"numoutlets" : 1,
					"patching_rect" : [ 0.0, 0.0, 150.0, 105.0 ],
					"presentation" : 1,
					"outlettype" : [ "" ],
					"prefix" : "control",
					"id" : "obj-51",
					"presentation_rect" : [ 0.0, 0.0, 150.0, 105.0 ]
				}

			}
 ],
		"lines" : [ 			{
				"patchline" : 				{
					"source" : [ "obj-54", 0 ],
					"destination" : [ "obj-55", 0 ],
					"hidden" : 0,
					"midpoints" : [  ]
				}

			}
, 			{
				"patchline" : 				{
					"source" : [ "obj-57", 0 ],
					"destination" : [ "obj-59", 0 ],
					"hidden" : 0,
					"midpoints" : [  ]
				}

			}
, 			{
				"patchline" : 				{
					"source" : [ "obj-61", 0 ],
					"destination" : [ "obj-62", 0 ],
					"hidden" : 0,
					"midpoints" : [  ]
				}

			}
, 			{
				"patchline" : 				{
					"source" : [ "obj-64", 0 ],
					"destination" : [ "obj-65", 0 ],
					"hidden" : 0,
					"midpoints" : [  ]
				}

			}
, 			{
				"patchline" : 				{
					"source" : [ "obj-50", 0 ],
					"destination" : [ "obj-52", 0 ],
					"hidden" : 0,
					"midpoints" : [  ]
				}

			}
, 			{
				"patchline" : 				{
					"source" : [ "obj-47", 0 ],
					"destination" : [ "obj-48", 0 ],
					"hidden" : 0,
					"midpoints" : [  ]
				}

			}
, 			{
				"patchline" : 				{
					"source" : [ "obj-44", 0 ],
					"destination" : [ "obj-45", 0 ],
					"hidden" : 0,
					"midpoints" : [  ]
				}

			}
, 			{
				"patchline" : 				{
					"source" : [ "obj-4", 0 ],
					"destination" : [ "obj-54", 0 ],
					"hidden" : 0,
					"midpoints" : [ 39.5, 379.0, 213.0, 379.0, 213.0, 355.0, 605.5, 355.0 ]
				}

			}
, 			{
				"patchline" : 				{
					"source" : [ "obj-4", 0 ],
					"destination" : [ "obj-57", 0 ],
					"hidden" : 0,
					"midpoints" : [ 39.5, 379.0, 213.0, 379.0, 213.0, 358.0, 549.5, 358.0 ]
				}

			}
, 			{
				"patchline" : 				{
					"source" : [ "obj-4", 0 ],
					"destination" : [ "obj-61", 0 ],
					"hidden" : 0,
					"midpoints" : [ 39.5, 379.0, 213.0, 379.0, 213.0, 358.0, 493.5, 358.0 ]
				}

			}
, 			{
				"patchline" : 				{
					"source" : [ "obj-4", 0 ],
					"destination" : [ "obj-64", 0 ],
					"hidden" : 0,
					"midpoints" : [ 39.5, 379.0, 213.0, 379.0, 213.0, 358.0, 443.5, 358.0 ]
				}

			}
, 			{
				"patchline" : 				{
					"source" : [ "obj-4", 0 ],
					"destination" : [ "obj-50", 0 ],
					"hidden" : 0,
					"midpoints" : [ 39.5, 358.0, 237.5, 358.0 ]
				}

			}
, 			{
				"patchline" : 				{
					"source" : [ "obj-4", 0 ],
					"destination" : [ "obj-47", 0 ],
					"hidden" : 0,
					"midpoints" : [ 39.5, 385.0, 181.5, 385.0 ]
				}

			}
, 			{
				"patchline" : 				{
					"source" : [ "obj-4", 0 ],
					"destination" : [ "obj-44", 0 ],
					"hidden" : 0,
					"midpoints" : [ 39.5, 409.0, 125.5, 409.0 ]
				}

			}
, 			{
				"patchline" : 				{
					"source" : [ "obj-15", 7 ],
					"destination" : [ "obj-54", 1 ],
					"hidden" : 0,
					"midpoints" : [ 632.625, 343.0, 632.5, 343.0 ]
				}

			}
, 			{
				"patchline" : 				{
					"source" : [ "obj-15", 6 ],
					"destination" : [ "obj-57", 1 ],
					"hidden" : 0,
					"midpoints" : [ 556.75, 382.0, 576.5, 382.0 ]
				}

			}
, 			{
				"patchline" : 				{
					"source" : [ "obj-15", 5 ],
					"destination" : [ "obj-61", 1 ],
					"hidden" : 0,
					"midpoints" : [ 480.875, 409.0, 520.5, 409.0 ]
				}

			}
, 			{
				"patchline" : 				{
					"source" : [ "obj-15", 4 ],
					"destination" : [ "obj-64", 1 ],
					"hidden" : 0,
					"midpoints" : [ 405.0, 385.0, 470.5, 385.0 ]
				}

			}
, 			{
				"patchline" : 				{
					"source" : [ "obj-15", 3 ],
					"destination" : [ "obj-50", 1 ],
					"hidden" : 0,
					"midpoints" : [ 329.125, 358.0, 264.5, 358.0 ]
				}

			}
, 			{
				"patchline" : 				{
					"source" : [ "obj-15", 2 ],
					"destination" : [ "obj-47", 1 ],
					"hidden" : 0,
					"midpoints" : [ 253.25, 358.0, 208.5, 358.0 ]
				}

			}
, 			{
				"patchline" : 				{
					"source" : [ "obj-64", 0 ],
					"destination" : [ "obj-66", 0 ],
					"hidden" : 0,
					"midpoints" : [  ]
				}

			}
, 			{
				"patchline" : 				{
					"source" : [ "obj-61", 0 ],
					"destination" : [ "obj-63", 0 ],
					"hidden" : 0,
					"midpoints" : [  ]
				}

			}
, 			{
				"patchline" : 				{
					"source" : [ "obj-57", 0 ],
					"destination" : [ "obj-60", 0 ],
					"hidden" : 0,
					"midpoints" : [  ]
				}

			}
, 			{
				"patchline" : 				{
					"source" : [ "obj-54", 0 ],
					"destination" : [ "obj-56", 0 ],
					"hidden" : 0,
					"midpoints" : [  ]
				}

			}
, 			{
				"patchline" : 				{
					"source" : [ "obj-50", 0 ],
					"destination" : [ "obj-53", 0 ],
					"hidden" : 0,
					"midpoints" : [  ]
				}

			}
, 			{
				"patchline" : 				{
					"source" : [ "obj-47", 0 ],
					"destination" : [ "obj-49", 0 ],
					"hidden" : 0,
					"midpoints" : [  ]
				}

			}
, 			{
				"patchline" : 				{
					"source" : [ "obj-15", 1 ],
					"destination" : [ "obj-44", 1 ],
					"hidden" : 0,
					"midpoints" : [ 177.375, 385.0, 152.5, 385.0 ]
				}

			}
, 			{
				"patchline" : 				{
					"source" : [ "obj-44", 0 ],
					"destination" : [ "obj-46", 0 ],
					"hidden" : 0,
					"midpoints" : [  ]
				}

			}
, 			{
				"patchline" : 				{
					"source" : [ "obj-14", 0 ],
					"destination" : [ "obj-15", 0 ],
					"hidden" : 0,
					"midpoints" : [  ]
				}

			}
, 			{
				"patchline" : 				{
					"source" : [ "obj-15", 0 ],
					"destination" : [ "obj-20", 1 ],
					"hidden" : 0,
					"midpoints" : [ 101.5, 409.0, 102.5, 409.0 ]
				}

			}
, 			{
				"patchline" : 				{
					"source" : [ "obj-20", 0 ],
					"destination" : [ "obj-1", 0 ],
					"hidden" : 0,
					"midpoints" : [  ]
				}

			}
, 			{
				"patchline" : 				{
					"source" : [ "obj-31", 0 ],
					"destination" : [ "obj-30", 0 ],
					"hidden" : 0,
					"midpoints" : [  ]
				}

			}
, 			{
				"patchline" : 				{
					"source" : [ "obj-30", 0 ],
					"destination" : [ "obj-31", 0 ],
					"hidden" : 0,
					"midpoints" : [ 673.5, 242.0, 650.0, 242.0, 650.0, 197.0, 673.5, 197.0 ]
				}

			}
, 			{
				"patchline" : 				{
					"source" : [ "obj-34", 0 ],
					"destination" : [ "obj-33", 0 ],
					"hidden" : 0,
					"midpoints" : [  ]
				}

			}
, 			{
				"patchline" : 				{
					"source" : [ "obj-33", 0 ],
					"destination" : [ "obj-34", 0 ],
					"hidden" : 0,
					"midpoints" : [ 675.5, 182.0, 652.0, 182.0, 652.0, 137.0, 675.5, 137.0 ]
				}

			}
, 			{
				"patchline" : 				{
					"source" : [ "obj-37", 0 ],
					"destination" : [ "obj-36", 0 ],
					"hidden" : 0,
					"midpoints" : [  ]
				}

			}
, 			{
				"patchline" : 				{
					"source" : [ "obj-36", 0 ],
					"destination" : [ "obj-37", 0 ],
					"hidden" : 0,
					"midpoints" : [ 675.5, 126.0, 652.0, 126.0, 652.0, 81.0, 675.5, 81.0 ]
				}

			}
, 			{
				"patchline" : 				{
					"source" : [ "obj-39", 0 ],
					"destination" : [ "obj-40", 0 ],
					"hidden" : 0,
					"midpoints" : [ 673.5, 72.0, 650.0, 72.0, 650.0, 27.0, 673.5, 27.0 ]
				}

			}
, 			{
				"patchline" : 				{
					"source" : [ "obj-40", 0 ],
					"destination" : [ "obj-39", 0 ],
					"hidden" : 0,
					"midpoints" : [  ]
				}

			}
, 			{
				"patchline" : 				{
					"source" : [ "obj-28", 0 ],
					"destination" : [ "obj-27", 0 ],
					"hidden" : 0,
					"midpoints" : [  ]
				}

			}
, 			{
				"patchline" : 				{
					"source" : [ "obj-27", 0 ],
					"destination" : [ "obj-28", 0 ],
					"hidden" : 0,
					"midpoints" : [ 407.5, 240.0, 384.0, 240.0, 384.0, 195.0, 407.5, 195.0 ]
				}

			}
, 			{
				"patchline" : 				{
					"source" : [ "obj-25", 0 ],
					"destination" : [ "obj-24", 0 ],
					"hidden" : 0,
					"midpoints" : [  ]
				}

			}
, 			{
				"patchline" : 				{
					"source" : [ "obj-24", 0 ],
					"destination" : [ "obj-25", 0 ],
					"hidden" : 0,
					"midpoints" : [ 409.5, 180.0, 386.0, 180.0, 386.0, 135.0, 409.5, 135.0 ]
				}

			}
, 			{
				"patchline" : 				{
					"source" : [ "obj-22", 0 ],
					"destination" : [ "obj-21", 0 ],
					"hidden" : 0,
					"midpoints" : [  ]
				}

			}
, 			{
				"patchline" : 				{
					"source" : [ "obj-21", 0 ],
					"destination" : [ "obj-22", 0 ],
					"hidden" : 0,
					"midpoints" : [ 409.5, 124.0, 386.0, 124.0, 386.0, 79.0, 409.5, 79.0 ]
				}

			}
, 			{
				"patchline" : 				{
					"source" : [ "obj-43", 0 ],
					"destination" : [ "obj-42", 0 ],
					"hidden" : 0,
					"midpoints" : [ 407.5, 70.0, 384.0, 70.0, 384.0, 25.0, 407.5, 25.0 ]
				}

			}
, 			{
				"patchline" : 				{
					"source" : [ "obj-42", 0 ],
					"destination" : [ "obj-43", 0 ],
					"hidden" : 0,
					"midpoints" : [  ]
				}

			}
, 			{
				"patchline" : 				{
					"source" : [ "obj-4", 0 ],
					"destination" : [ "obj-20", 0 ],
					"hidden" : 0,
					"midpoints" : [ 39.5, 436.0, 75.5, 436.0 ]
				}

			}
, 			{
				"patchline" : 				{
					"source" : [ "obj-20", 0 ],
					"destination" : [ "obj-6", 0 ],
					"hidden" : 0,
					"midpoints" : [  ]
				}

			}
, 			{
				"patchline" : 				{
					"source" : [ "obj-16", 0 ],
					"destination" : [ "obj-73", 0 ],
					"hidden" : 0,
					"midpoints" : [ 27.5, 165.0, 17.5, 165.0 ]
				}

			}
, 			{
				"patchline" : 				{
					"source" : [ "obj-74", 0 ],
					"destination" : [ "obj-73", 0 ],
					"hidden" : 0,
					"midpoints" : [  ]
				}

			}
, 			{
				"patchline" : 				{
					"source" : [ "obj-68", 0 ],
					"destination" : [ "obj-73", 0 ],
					"hidden" : 0,
					"midpoints" : [ 41.5, 165.0, 17.5, 165.0 ]
				}

			}
, 			{
				"patchline" : 				{
					"source" : [ "obj-73", 0 ],
					"destination" : [ "obj-58", 0 ],
					"hidden" : 0,
					"midpoints" : [  ]
				}

			}
 ]
	}

}
