max v2;
#N vpatcher 37 28 626 281;
#P origin 80 19;
#P outlet 268 202 15 0;
#P window setfont "Sans Serif" 9.;
#P window linecount 1;
#P newex 355 100 60 9109513 prepend port;
#P newex 228 100 60 9109513 prepend port;
#P newex 228 53 264 9109513 jcom.oscroute /QVicon2OSC/osc/port /QVicon2OSC/info/port;
#P newex 228 142 90 9109513 OpenSoundControl;
#P newex 228 121 117 9109513 udpreceive 10000 CNMAT;
#P newex 355 142 90 9109513 OpenSoundControl;
#P newex 355 121 128 9109513 udpreceive 10001 CNMAT;
#N vpatcher 229 471 616 682;
#P origin 576 126;
#P window setfont "Sans Serif" 9.;
#P newex 21 118 60 9109513 prepend port;
#P newex 21 46 175 9109513 jcom.oscroute /QVicon2OSC/client/port;
#P newex 186 107 30 9109513 t b s;
#P newex 186 132 115 9109513 OpenSoundControl 2000;
#P newex 186 162 143 9109513 udpsend 127.0.0.1 9999 CNMAT;
#P inlet 21 26 15 0;
#P connect 0 0 4 0;
#P connect 4 0 5 0;
#P connect 4 1 3 0;
#P connect 4 0 3 0;
#P connect 3 1 2 0;
#P connect 3 0 2 0;
#P connect 2 0 1 0;
#P fasten 5 0 1 0 26 158 191 158;
#P pop;
#P newobj 131 163 36 9109513 p send;
#P objectname send;
#P newex 26 53 169 9109513 jcom.oscroute /documentation /preset;
#P inlet 26 27 15 0;
#P connect 0 0 1 0;
#P fasten 1 2 2 0 189 117 136 117;
#P fasten 0 0 7 0 31 47 233 47;
#P connect 7 0 8 0;
#P connect 8 0 5 0;
#P connect 5 0 6 0;
#P connect 6 1 10 0;
#P fasten 4 1 10 0 400 181 273 181;
#P fasten 7 1 9 0 360 86 360 86;
#P connect 9 0 3 0;
#P connect 3 0 4 0;
#P pop;
