max v2;
#N vpatcher 18 169 851 611;
#P origin -76 -232;
#P hidden outlet 361 338 13 0;
#P window setfont "Sans Serif" 9.;
#P hidden message 242 124 114 9109513 /QVicon2OSC/channels;
#P button 90 42 15 0;
#P comment 1 42 89 9109513 Query channel info;
#B frgb 149 149 149;
#P hidden message 197 265 158 9109513 /preset/store 1 default \, /preset/write;
#P hidden newex 264 10 48 9109513 route text;
#P hidden newex 438 124 81 9109513 pvar data_format;
#P window linecount 2;
#P hidden newex 438 146 230 9109513 jcom.parameter QVicon2OSC/osc/type @type msg_int @clipmode none @description "Data format";
#P objectname QVicon2OSC/osc/type;
#P hidden newex 264 31 311 9109513 jcom.parameter QVicon2OSC/vicon/host @type msg_symbol @clipmode none @description "IP address of the tarsus realtime engine";
#P objectname QVicon2OSC/vicon/host;
#P window linecount 1;
#P comment 126 42 58 9109513 Tarsus IP:;
#B frgb 149 149 149;
#P user textedit 183 40 251 59 98436 139 9 127.0.0.1;
#P user jsui 47 22 63 17 1 0 0 jcom.jsui_texttoggle.js "all channels on" "all channels off";
#P objectname channels_on;
#P hidden newex 17 147 47 9109513 pcontrol;
#P hidden newex 17 123 37 9109513 t open;
#P hidden newex 17 99 151 9109513 jcom.oscroute /open_inspector;
#N vpatcher 344 237 772 459;
#P origin 141 574;
#P window setfont "Sans Serif" 9.;
#P window linecount 0;
#P hidden message 223 182 33 9109513 select;
#P hidden newex 223 162 28 9109513 sel 9;
#P hidden message 360 129 33 9109513 select;
#P hidden message 200 141 33 9109513 select;
#P hidden message 195 122 33 9109513 select;
#P hidden message 195 103 33 9109513 select;
#P hidden newex 195 83 28 9109513 sel 9;
#P hidden message 194 50 33 9109513 select;
#P hidden newex 194 32 28 9109513 sel 9;
#P hidden newex 447 93 48 9109513 route text;
#P window linecount 2;
#P hidden newex 447 114 279 9109513 jcom.parameter QVicon2OSC/osc/host @type msg_symbol @description "IP address for incoming messages (this machine)";
#P objectname QVicon2OSC/osc/host;
#P window linecount 1;
#P comment 12 89 237 9109513 IP address for incoming messages (this machine);
#P user textedit 241 153 316 171 98436 139 9 127.0.0.1;
#P comment 12 154 188 9109513 IP address for outgoing control messages;
#P user textedit 253 89 316 105 98436 139 9 127.0.0.1;
#P hidden newex 447 164 48 9109513 route text;
#P window linecount 2;
#P hidden newex 447 185 252 9109513 jcom.parameter control_ip @type msg_symbol @description "IP address for control messages";
#P objectname control_ip;
#P window linecount 1;
#P hidden newex 838 134 79 9109513 pvar control_port;
#P window linecount 2;
#P hidden newex 838 155 278 9109513 jcom.parameter control_port @type msg_int @range 1000 15000 @clipmode none @description "UDP port for control messages";
#P objectname control_port[1];
#P number 273 171 43 9 0 0 0 139 0 0 0 221 221 221 222 222 222 0 0 0;
#P objectname control_port;
#P window linecount 1;
#P hidden newex 447 13 48 9109513 route text;
#P comment 12 44 228 9109513 Prefix for plain OSC messages;
#P comment 12 105 224 9109513 UDP port for incoming data messages;
#P comment 12 120 223 9109513 UDP port for incoming info messages;
#P number 273 120 43 9 0 0 0 139 0 0 0 221 221 221 222 222 222 0 0 0;
#P objectname data_port;
#P number 273 105 43 9 0 0 0 139 0 0 0 221 221 221 222 222 222 0 0 0;
#P objectname info_port;
#P user textedit 241 42 316 60 98436 139 9 /prefix;
#P comment 12 63 280 9109513 Automatic notification of selection changes of the "info" host;
#P comment 12 170 199 9109513 UDP port for outgoing control messages;
#P toggle 301 63 15 0;
#P objectname autoinfo;
#P hidden newex 838 8 69 9109513 pvar data_port;
#P hidden newex 838 197 64 9109513 pvar autoinfo;
#P window linecount 2;
#P hidden newex 838 94 294 9109513 jcom.parameter QVicon2OSC/info/port @type msg_int @range 1000 15000 @clipmode none @description "UDP port for info messages";
#P objectname QVicon2OSC/info/port;
#P window linecount 1;
#P hidden newex 838 74 67 9109513 pvar info_port;
#P window linecount 2;
#P hidden newex 838 30 293 9109513 jcom.parameter QVicon2OSC/osc/port @type msg_int @range 1000 15000 @clipmode none @description "UDP port for data messages";
#P objectname QVicon2OSC/osc/port;
#P hidden newex 447 34 259 9109513 jcom.parameter QVicon2OSC/osc/plain/prefix @type msg_symbol @description "Prefix for plain OSC messages";
#P objectname QVicon2OSC/osc/plain/prefix;
#P hidden newex 838 218 326 9109513 jcom.parameter QVicon2OSC/info/auto @type msg_toggle @description "turn on/off the automatic notification of selection changes of the info host";
#P objectname QVicon2OSC/info/auto;
#P window linecount 1;
#P hidden newex 162 343 58 9109513 r jmod.init;
#P hidden newex 149 317 40 9109513 t front;
#P hidden newex 149 296 151 9109513 jcom.oscroute /open_inspector;
#P window setfont "Sans Serif" 12.;
#P comment 1 9 252 9109516 More settings;
#P hidden inlet 149 276 15 0;
#P window setfont "Sans Serif" 9.;
#P hidden message 162 365 80 9109513 patcher inpsector;
#N thispatcher;
#Q end;
#P hidden newobj 162 384 61 9109513 thispatcher;
#P user panel 0 1 412 206;
#X brgb 218 216 211;
#X frgb 0 0 0;
#X border 0;
#X rounded 0;
#X shadow 0;
#X done;
#P background;
#P hidden connect 3 0 5 0;
#P hidden connect 5 0 6 0;
#P hidden connect 7 0 2 0;
#P hidden connect 6 0 1 0;
#P hidden connect 2 0 1 0;
#P hidden connect 18 1 36 0;
#P hidden connect 36 0 37 0;
#P hidden connect 30 1 38 0;
#P hidden connect 38 0 39 0;
#P hidden connect 19 1 40 0;
#P hidden connect 20 1 41 0;
#P hidden connect 32 1 43 0;
#P hidden connect 43 0 44 0;
#P hidden connect 9 0 18 0;
#P hidden connect 42 0 18 0;
#P hidden connect 41 0 32 0;
#P hidden connect 28 0 32 0;
#P hidden connect 34 0 30 0;
#P hidden connect 37 0 30 0;
#P hidden connect 39 0 19 0;
#P hidden connect 40 0 20 0;
#P hidden connect 44 0 25 0;
#P hidden connect 25 1 42 0;
#P hidden connect 18 0 24 0;
#P hidden connect 24 0 9 0;
#P hidden connect 30 0 35 0;
#P hidden connect 35 0 34 0;
#P hidden connect 32 0 29 0;
#P hidden connect 29 0 28 0;
#P hidden fasten 10 0 14 0 843 66 833 66 833 6 843 6;
#P hidden connect 14 0 10 0;
#P hidden fasten 12 0 11 0 843 128 833 128 833 69 843 69;
#P hidden connect 11 0 12 0;
#P hidden fasten 26 0 27 0 843 189 833 189 833 131 843 131;
#P hidden connect 27 0 26 0;
#P hidden fasten 8 0 13 0 843 254 833 254 833 192 843 192;
#P hidden connect 13 0 8 0;
#P pop;
#P hidden newobj 17 171 60 9109513 p inspector;
#P objectname inspector;
#P hidden newex 17 74 38 9109513 jcom.in;
#P hidden newex 158 147 47 9109513 pcontrol;
#P hidden newex 158 123 78 9109513 jcom.pass open;
#P hidden newex 158 231 99 9109513 jalg.QVicon2OSC.mxt;
#P hidden newex 438 249 82 9109513 pvar channels_on;
#P window linecount 2;
#P hidden newex 438 270 251 9109513 jcom.message QVicon2OSC/channels @type msg_toggle @clipmode none @description "turn all channels on or off";
#P objectname channels_on[1];
#P user jsui 3 22 43 17 1 0 0 jcom.jsui_texttoggle.js connect disconnect;
#P objectname connection;
#P user umenu 169 22 84 9109543 1 32 38 1;
#X add "Plain OSC";
#X add "SC3 Client";
#P objectname data_format;
#P window linecount 1;
#P hidden newex 438 187 75 9109513 pvar connection;
#P window linecount 2;
#P hidden newex 438 209 275 9109513 jcom.parameter QVicon2OSC/vicon/connect @type msg_toggle @clipmode none @description "Connect the QVicon2Osc";
#P objectname QVicon2OSC/vicon/connect;
#P window linecount 1;
#P hidden message 68 265 125 9109513 /documentation/generate;
#P window linecount 2;
#P hidden message 608 85 66 9109513 \; max refresh;
#P hidden message 608 51 75 9109513 \; jcom.init bang;
#P hidden newex 46 291 313 9109513 jcom.hub jmod.QVicon2OSC @size 1U-half @inspector 1 @module_type control @description "Interact with the Qvicon2Osc application";
#P objectname jcom.hub;
#P hidden inlet 46 266 13 0;
#P hidden outlet 46 338 13 0;
#P window linecount 1;
#P comment 110 24 65 9109513 Data format;
#B frgb 149 149 149;
#P hidden comment 79 338 254 9109513 http://sonenvir.at/downloads/qvicon2osc/index_html;
#P bpatcher 0 0 256 62 0 0 jcom.gui.mxt 0;
#P objectname jcom.gui.1Uh.a.stereo.mxt;
#P hidden connect 18 0 20 0;
#P hidden connect 20 0 21 0;
#P hidden connect 21 0 22 0;
#P hidden connect 22 0 19 0;
#P hidden connect 4 0 5 0;
#P hidden fasten 8 0 5 0 73 284 51 284;
#P hidden fasten 30 0 5 0 202 286 51 286;
#P hidden connect 5 0 3 0;
#P hidden connect 20 1 16 0;
#P hidden connect 16 0 17 0;
#P hidden fasten 17 0 15 0 163 196 163 196;
#P hidden fasten 16 1 15 0 231 200 163 200;
#P hidden fasten 33 0 15 0 247 200 163 200;
#P hidden connect 26 0 24 0;
#P hidden fasten 32 0 33 0 95 76 247 76;
#P hidden connect 24 0 29 0;
#P hidden connect 29 0 26 0;
#P hidden fasten 15 0 34 0 163 256 366 256;
#P hidden fasten 27 0 28 0 443 180 432 180 432 120 443 120;
#P hidden connect 28 0 27 0;
#P hidden fasten 9 0 10 0 443 243 432 243 432 182 443 182;
#P hidden connect 10 0 9 0;
#P hidden fasten 13 0 14 0 443 307 432 307 432 245 443 245;
#P hidden connect 14 0 13 0;
#P pop;
