max v2;
#N vpatcher 40 55 440 355;
#P window setfont "Sans Serif" 9.;
#P newex 154 66 36 196617 sel 1;
#P newex 77 78 36 196617 sel 1;
#N comlet nuumbeer;
#P inlet 305 67 15 0;
#N comlet (bang) dec;
#P inlet 165 42 15 0;
#N comlet (bang) inc;
#P inlet 67 55 15 0;
#N comlet nuumbeer;
#P outlet 127 202 15 0;
#P number 128 164 35 9 0 0 0 3 0 0 0 221 221 221 222 222 222 0 0 0;
#P newex 103 105 27 196617 i 2;
#P newex 140 135 27 196617 - 1;
#P newex 105 135 27 196617 + 1;
#P newex 215 154 42 196617 clip 0 4;
#P newex 144 106 27 196617 i 2;
#P connect 7 0 10 0;
#P connect 10 0 4 0;
#P connect 4 0 2 0;
#P fasten 1 0 4 1 220 182 274 182 274 92 125 92;
#P connect 9 0 4 1;
#P connect 5 0 6 0;
#P connect 2 0 5 0;
#P connect 3 0 5 0;
#P connect 0 0 3 0;
#P connect 11 0 0 0;
#P connect 8 0 11 0;
#P connect 9 0 0 1;
#P fasten 1 0 0 1 220 176 266 176 266 96 166 96;
#P fasten 5 0 1 0 133 187 197 187 197 144 220 144;
#P pop;
