max v2;
#N vpatcher 315 168 512 397;
#P window setfont "Sans Serif" 9.;
#P newex 80 89 78 196617 prepend symbol;
#P newex 80 69 49 196617 tosymbol;
#P newex 49 116 51 196617 tap.round;
#P newex 18 47 72 196617 route int float;
#P outlet 18 192 15 0;
#P inlet 18 28 15 0;
#P connect 0 0 2 0;
#P fasten 5 0 1 0 85 186 23 186;
#P fasten 2 0 1 0 23 182 23 182;
#P fasten 3 0 1 0 54 184 23 184;
#P connect 2 1 3 0;
#P connect 2 2 4 0;
#P connect 4 0 5 0;
#P pop;
