max v2;
#N vpatcher 103 136 763 615;
#P window setfont "Sans Serif" 9.;
#P hidden newex 27 294 85 196617 s $1_instruction;
#P hidden message 26 211 33 196617 force;
#P hidden newex 107 421 143 196617 jmod.parameter.mxt $1 mute;
#P objectname jmod.parameter.mxb[3];
#P hidden newex 80 394 150 196617 jmod.parameter.mxt $1 freeze;
#P objectname jmod.parameter.mxb[2];
#P hidden newex 64 363 152 196617 jmod.parameter.mxt $1 bypass;
#P objectname jmod.parameter.mxb[1];
#P hidden newex 47 331 158 196617 jmod.parameter.mxt $1 preview;
#P objectname jmod.parameter.mxb;
#P hidden message 209 210 75 196617 view_internals;
#P hidden newex 36 117 27 196617 i;
#P hidden newex 342 277 40 196617 t 1 0 0;
#P hidden newex 342 255 50 196617 sel 1;
#P hidden newex 416 277 40 196617 t 1 0 0;
#P hidden newex 416 255 50 196617 sel 1;
#P hidden newex 489 277 40 196617 t 1 0 0;
#P hidden newex 489 255 50 196617 sel 1;
#P hidden message 550 359 78 196617 checkitem 5 \$1;
#P hidden toggle 489 228 15 0;
#P hidden comment 500 213 58 196617 mute;
#P hidden comment 263 280 53 196617 preview;
#P hidden comment 337 212 55 196617 bypass;
#P hidden message 474 359 78 196617 checkitem 4 \$1;
#P hidden message 398 359 78 196617 checkitem 3 \$1;
#P hidden toggle 416 228 15 0;
#P hidden toggle 342 228 15 0;
#P hidden newex 322 389 34 196617 zl reg;
#P hidden message 322 359 78 196617 checkitem 0 \$1;
#P hidden message 194 249 26 196617 help;
#P hidden message 157 230 85 196617 restore_defaults;
#P hidden message 83 230 72 196617 save_settings;
#P hidden message 69 213 69 196617 load_settings;
#P hidden newex 36 143 183 196617 sel 0 1 2 3 4 5 6 7 8 9 10 11 12;
#P hidden newex 72 272 90 196617 s $1_FROM_MGUI;
#P hidden toggle 299 296 15 0;
#P hidden comment 424 213 58 196617 freeze;
#P user hint 1 -2 19 16 "Module Menu" 1000 100 0 65535 65535 52428 9 3 0 1 0 0 0;
#N picture;
#K replace 168;
#K set 0 42860544 15 983057 50269184 -131072 4718592 4718592 0 983055 0 1966081 688129 -2147385345 2147418266 255 -2143551488 15 983040 262144 72 72 16 2097156 524288 2097160 -793247736 -784072704 15 983040 15 983040 737345283 -1987474806 -24444532 -1929540351 -1903231351 25856766 -1962898178 -1912697090 -1996387702 -24444788 -24248690 83034068 740029183 86812326 -1532846345 738502310 -1532846345 738502310 -1532846344 740029183 86811989 1380752375 738501973 1380752375 738501973 1380752376 740619007 137143201 -1617193326 -1903429076 128164255 -1684630898 -1946539001 -1549688933 -1768780149 -80993038 -16241506 1144861738 555320314 738696772 1026828833 428079660 127812669 875176217 -2080691153 -218166996 -1741320567 -2088892037 771632668 791620760 898533763 2114550573 774778671 808228917 -1903590530 159067438 788410152 -218167252 -1859638256 117440630 -64222931 747710508 268894208 1996237833 757895464 739247872 7797548 821231404 747379583 2037674240 1915695154 858993708 -1944354951 1953562738 791687731 875834508 461338996 1895854640 808596275 874640127 53249551 33357824 1895443458 -2045836803 28922 738362895 33357824 1895509038 -218167508 -2122680976 1835822845 738864429 774668666 1970302316 1862151179 757935662 746682997;
#K set 128 1886219374 -47447507 758001906 -13881552 842150708 892679736 943274554 992882480 842216500 892745785 960117307 791621682 859059253 909654073 976894724 -218115028 452132612 1599954009 1492604420 1599954009 1492604420 1599954009 1492604463 -218104214 191589228 1852731247 1886483060 1979607322 1785425004 1852796784 1903326325 1768516202 1802202222 1869574257 1920234752 16738586 0 0 0 0;
#P vpicture 1 -1 18 16;
#P window setfont Verdana 9.;
#P user umenu 2 -1 13 472055847 1 64 14 1;
#X add Preview Output;
#X add Force A Frame of Output;
#X add -;
#X add Bypass;
#X add Freeze;
#X add Mute;
#X add -;
#X add Load Settings...;
#X add Save Settings...;
#X add Restore Default Settings;
#X add -;
#X add Open Online Reference;
#X add View Internal Components;
#P window setfont "Sans Serif" 9.;
#P hidden newex 273 18 103 196617 route MODULE_TITLE;
#P hidden newex 273 -2 93 196617 r $1_FROM_MHUB;
#P hidden newex 273 38 90 196617 prepend setitem 0;
#P user umenu 14 0 157 196644 3 64 16 0;
#X setrgb 165 165 165 221 221 221 255 255 255 221 221 221 170 170 170 119 119 119 187 187 187;
#X add;
#P user hint 194 14 254 59 "Output Preview (control from Module Menu)" 1000 100 0 65535 65535 52428 9 3 0 1 0 0 0;
#P hidden newex 461 40 27 196617 gate;
#B color 3;
#N comlet Processed Video for Preview;
#P hidden inlet 478 11 15 0;
#P hidden comment 493 11 93 196617 PROCESSED VIDEO;
#P user jit.pwindow 193 13 62 47 0 0 0 0 1 0;
#P user pictctrl 0 0 255 61 jmod.bg-1h.v.pct 0 0 1 0 24 0 0 0 255 61 128 0 1 10 2 0;
#P noclick;
#P hidden fasten 22 0 10 0 327 411 583 411 583 -10 7 -10;
#P hidden connect 7 0 6 0;
#P hidden connect 16 1 44 0;
#P hidden connect 44 0 45 0;
#P hidden connect 10 0 38 0;
#P hidden connect 38 0 16 0;
#P hidden connect 14 0 40 0;
#P hidden connect 23 0 41 0;
#P hidden connect 16 7 17 0;
#P hidden connect 39 0 15 0;
#P hidden connect 20 0 15 0;
#P hidden connect 19 0 15 0;
#P hidden connect 18 0 15 0;
#P hidden connect 17 0 15 0;
#P hidden connect 24 0 42 0;
#P hidden connect 16 8 18 0;
#P hidden connect 30 0 43 0;
#P hidden connect 16 9 19 0;
#P hidden connect 4 0 1 0;
#P lcolor 4;
#P hidden connect 16 11 20 0;
#P hidden connect 16 12 39 0;
#P hidden connect 8 0 9 0;
#P hidden connect 9 0 7 0;
#P hidden connect 40 0 14 0;
#P hidden fasten 16 0 14 0 41 172 304 172;
#P lcolor 2;
#P hidden connect 14 0 21 0;
#P hidden connect 31 0 22 0;
#P hidden connect 21 0 22 0;
#P hidden fasten 25 0 22 0 403 381 327 381;
#P hidden fasten 26 0 22 0 479 381 327 381;
#P hidden connect 41 0 23 0;
#P hidden fasten 16 3 23 0 80 188 347 188;
#P hidden connect 35 1 23 0;
#P hidden connect 33 1 23 0;
#P hidden connect 23 0 36 0;
#P hidden connect 36 0 37 0;
#P hidden connect 36 1 25 0;
#P hidden connect 37 0 25 0;
#P hidden connect 42 0 24 0;
#P hidden fasten 16 4 24 0 93 185 421 185;
#P hidden connect 37 1 24 0;
#P hidden connect 33 2 24 0;
#P hidden connect 24 0 34 0;
#P hidden connect 34 0 35 0;
#P hidden connect 14 0 4 0;
#P hidden connect 34 1 26 0;
#P hidden connect 35 0 26 0;
#P hidden connect 3 0 4 1;
#P lcolor 4;
#P hidden connect 43 0 30 0;
#P hidden fasten 16 5 30 0 106 181 494 181;
#P hidden connect 37 2 30 0;
#P hidden connect 35 2 30 0;
#P hidden connect 30 0 32 0;
#P hidden connect 32 0 33 0;
#P hidden connect 32 1 31 0;
#P hidden connect 33 0 31 0;
#P pop;
