max v2;
#N vpatcher 391 249 791 549;
#P window setfont "Sans Serif" 9.;
#P message 156 134 19 196617 " ";
#P message 138 135 14 196617 .;
#P newex 140 88 35 196617 sel CR;
#P newex 193 126 148 196617 prepend $1;
#P newex 193 149 65 196617 prepend post;
#P newex 193 173 55 196617 s terminal;
#P newex 10 222 128 196617 print $1;
#P inlet 155 41 15 0;
#P connect 5 1 1 0;
#P connect 6 0 1 0;
#P connect 5 0 6 0;
#P connect 0 0 5 0;
#P connect 5 0 7 0;
#P connect 7 0 4 0;
#P connect 5 1 4 0;
#P connect 4 0 3 0;
#P connect 3 0 2 0;
#P pop;
