max v2;
#N vpatcher 8 112 908 711;
#P window setfont "Sans Serif" 9.;
#P hidden newex 476 157 33 196617 atodb;
#P hidden newex 612 78 44 196617 jit.qball;
#P hidden newex 612 54 58 196617 t 0. b;
#P hidden message 660 104 155 196617 importmovie jmod.meter.left.pct;
#P hidden newex 660 128 205 196617 jit.matrix _jmod-left-meter 4 char 82 162;
#P hidden newex 421 129 44 196617 jit.qball;
#P hidden newex 130 468 121 196617 t b b l;
#P hidden newex 185 513 35 196617 zl reg;
#P hidden newex 130 552 92 196617 jit.lcd 4 char 82 2;
#P hidden number 130 372 35 9 0 0 0 3 0 0 0 221 221 221 222 222 222 0 0 0;
#P hidden newex 130 396 138 196617 t b i;
#P hidden message 278 419 60 196617 offset 0 \$1;
#P hidden newex 130 443 120 196617 jit.submatrix @dim 82 2;
#P hidden newex 130 418 138 196617 jit.matrix _jmod-left-meter;
#P hidden newex 393 196 35 196617 t b i;
#P hidden newex 378 218 27 196617 1;
#P hidden newex 378 237 35 196617 &&;
#P hidden newex 421 108 45 196617 gate 1 1;
#P hidden newex 456 43 102 196617 tap.typecheck~;
#P hidden newex 476 313 29 196617 * -1;
#P hidden newex 476 226 49 196617 clip 0 80;
#P hidden newex 130 349 27 196617 * 2;
#P user jit.pwindow -1 -1 84 4 0 0 0 0 1 0;
#P hidden newex 612 33 55 196617 r jmod.init;
#P hidden newex 368 416 95 196617 expr abs(80 + $i1);
#P hidden newex 348 366 58 196617 split 0 -80;
#P hidden newex 348 385 30 196617 sel 0;
#P hidden newex 350 459 28 196617 pack;
#P hidden newex 350 438 91 196617 scale 90 1 35 255;
#P hidden message 350 481 165 196617 linesegment 0 \$1 40 \$1 \$2 255 16;
#P hidden message 378 307 14 196617 0;
#P hidden newex 348 347 40 196617 Trough;
#P hidden newex 476 203 115 196617 scale -96 0 0 80 1.035;
#P hidden number 476 250 35 9 0 0 0 3 0 0 0 221 221 221 222 222 222 0 0 0;
#N comlet (int) responsiveness;
#P hidden inlet 567 61 15 0;
#N comlet (float) signal level in decibels;
#P hidden outlet 645 282 15 0;
#N comlet (signal) to be displayed;
#P hidden inlet 456 24 15 0;
#P hidden newex 456 85 121 196617 peakamp~ 150;
#P hidden newex 393 175 53 196617 dspstate~;
#P hidden newex 378 256 62 196617 metro 3000;
#P hidden flonum 476 180 77 9 0 0 0 3 0 0 0 221 221 221 222 222 222 0 0 0;
#P hidden comment 404 348 112 196617 erase previous peak \, and draw the new one;
#P hidden fasten 33 0 19 0 135 576 122 576 122 10 5 10;
#P hidden connect 8 0 20 0;
#P hidden connect 20 0 32 0;
#P hidden connect 32 0 31 0;
#P hidden connect 31 0 28 0;
#P hidden fasten 30 0 29 0 283 439 135 439;
#P hidden connect 28 0 29 0;
#P hidden connect 29 0 35 0;
#P hidden fasten 35 2 33 0 245 544 135 544;
#P hidden connect 34 0 33 0;
#P hidden connect 35 0 33 0;
#P hidden connect 35 1 34 0;
#P hidden connect 12 0 34 1;
#P hidden connect 31 1 30 0;
#P hidden connect 22 0 10 0;
#P hidden connect 10 0 16 0;
#P hidden connect 16 0 15 0;
#P hidden connect 17 0 13 0;
#P hidden connect 13 0 14 0;
#P hidden connect 14 0 12 0;
#P hidden connect 15 1 17 0;
#P hidden connect 17 0 14 1;
#P hidden fasten 23 2 26 0 487 77 383 77;
#P hidden connect 27 0 26 0;
#P hidden connect 26 0 25 0;
#P hidden connect 25 0 2 0;
#P hidden fasten 40 0 11 0 617 300 383 300;
#P hidden connect 2 0 11 0;
#P hidden connect 11 0 10 1;
#P hidden connect 3 0 27 0;
#P hidden connect 27 1 25 1;
#P hidden fasten 23 2 24 0 487 75 426 75;
#P hidden connect 24 0 36 0;
#P hidden connect 5 0 23 0;
#P hidden connect 23 0 4 0;
#P hidden connect 4 0 24 1;
#P hidden fasten 40 0 24 1 617 104 461 104;
#P hidden connect 36 0 41 0;
#P hidden connect 41 0 1 0;
#P hidden connect 1 0 9 0;
#P hidden connect 9 0 21 0;
#P hidden connect 21 0 8 0;
#P hidden connect 8 0 22 0;
#P hidden connect 7 0 4 1;
#P hidden connect 18 0 39 0;
#P hidden connect 39 0 40 0;
#P hidden connect 41 0 6 0;
#P hidden connect 39 1 38 0;
#P hidden connect 38 0 37 0;
#P pop;
