max v2;
#N vpatcher 716 99 1109 515;
#P window setfont "Sans Serif" 9.;
#P newex 51 152 51 196617 tap.round;
#P outlet 64 208 15 0;
#P inlet 25 40 15 0;
#P newex 25 77 92 196617 tap.typecheck;
#P newex 64 176 78 196617 prepend symbol;
#P newex 64 115 49 196617 tosymbol;
#P fasten 3 0 2 0 30 56;
#P connect 2 2 5 0;
#P connect 2 5 0 0;
#P connect 2 3 0 0;
#P fasten 2 4 1 0 82 172 69 172;
#P connect 0 0 1 0;
#P connect 1 0 4 0;
#P fasten 2 1 4 0 43 204 69 204;
#P fasten 5 0 4 0 56 202 69 202;
#P pop;
