max v2;
#N vpatcher 76 44 827 820;
#P window setfont "Sans Serif" 9.;
#P comment 50 191 395 196617 For this component to work properly \, you have to avoid output from being fed back to the inlet \, else the output will kill any ongoing ramp. If jmod.parameter.gain outlet/inlet is connected to a GUI inlet/outlet \, use the "set" mesage for updating GUI display when jmod.parameter.gain value change.;
#P comment 50 176 395 196617 IMPORTANT:;
#P newex 521 82 137 196617 send $1_register;
#P message 521 64 145 196617 $2 \, $2_midi \, $2_inc \, $2_dec;
#P newex 521 44 140 196617 receive $1_query;
#P newex 66 664 51 196617 tap.round;
#P comment 83 290 100 196617 Connect to GUI outlet;
#P comment 83 715 208 196617 Prepend "set" and connect to GUI inlet;
#P comment 50 94 311 196617 - $2_dec: decrease MIDI gain value by one;
#P comment 50 81 311 196617 - $2_inc: increase MIDI gain value by one;
#P comment 50 68 311 196617 - $2_midi: gain as MIDI values;
#N comlet Prepend "set" and connect to GUI inlet;
#P outlet 66 712 15 0;
#N comlet Connect to GUI outlet;
#P inlet 66 289 15 0;
#P newex 123 570 103 196617 loadmess -2000000.;
#P newex 66 570 55 196617 tap.change;
#P newex 66 593 145 196617 pattr $2_midi @autorestore 0;
#X prestore 1 0 0;
#P objectname $2_midi;
#P newex 66 512 71 196617 jmod.line.mxt;
#P newex 139 315 139 196617 receive $1_instruction;
#P newex 139 429 73 196617 pack 0. 0.;
#P newex 215 384 21 196617 t 0;
#P newex 139 384 73 196617 unpack 0. 0;
#N vpatcher 10 59 410 359;
#P window setfont "Sans Serif" 9.;
#P newex 144 85 64 196617 expr ($f1 * (10./6.)) + 127;
#B color 3;
#P comment 212 91 80 196617 decibels to midi conversion;
#P outlet 144 145 15 0;
#P inlet 144 36 15 0;
#P connect 0 0 3 0;
#P connect 3 0 1 0;
#P pop;
#P newobj 139 407 65 196617 p db_to_midi;
#P newex 361 433 27 196617 +;
#P newex 472 370 26 196617 t -1;
#P newex 361 370 21 196617 t 1;
#P newex 139 338 455 196617 route $2 $2_midi $2_inc $2_dec;
#P comment 50 40 311 196617 Component for dealing with gain parameters. Incorporates;
#P comment 50 55 311 196617 - $2: gain as dB values;
#P comment 50 131 395 196617 jmod.parameter.gain is special in the sense that gain levels can be adjusted using various messages \, or by a GUI. All kinds of messages are mapped to MIDI values internally \, so that they can all be dealt with by the same "jmod.line.mxt".;
#P comment 520 107 146 196617 Required for registering the messages as valid syntax.;
#P connect 17 0 13 0;
#P fasten 7 0 13 0 366 459 71 459;
#P fasten 4 1 13 0 255 456 71 456;
#P fasten 11 0 13 0 144 453 71 453;
#P connect 13 0 15 0;
#P connect 15 0 14 0;
#P connect 14 0 24 0;
#P connect 24 0 18 0;
#P connect 16 0 15 1;
#P fasten 14 0 13 1 71 635 250 635 250 507 132 507;
#P connect 12 0 4 0;
#P connect 4 0 9 0;
#P connect 9 0 8 0;
#P connect 8 0 11 0;
#P connect 10 0 11 1;
#P connect 9 1 11 1;
#P connect 4 0 10 0;
#P connect 4 2 5 0;
#P connect 5 0 7 0;
#P fasten 6 0 7 0 477 401 366 401;
#P fasten 14 0 7 1 71 637 396 637 396 426 383 426;
#P connect 4 3 6 0;
#P connect 25 0 26 0;
#P connect 26 0 27 0;
#P pop;
