max v2;
#N vpatcher 4 44 1018 764;
#P window setfont "Sans Serif" 9.;
#P hidden newex 50 117 55 196617 r jmod.init;
#P hidden message 193 172 31 196617 -100;
#P hidden newex 1085 428 22 196617 b 1;
#P hidden message 1085 448 222 196617 recordsprite \, paintrect 116 0 150 40 200 0 0 \, closesprite myPeak \, drawsprite myPeak 0 0;
#P hidden newex 924 369 171 196617 split 0 115;
#P hidden message 843 500 100 196617 deletesprite myPeak;
#P hidden newex 924 391 30 196617 sel 0;
#P hidden newex 944 450 28 196617 pack;
#P hidden newex 962 429 95 196617 scale 1 115 35 255;
#P hidden message 944 488 228 196617 recordsprite \, linesegment \$1 0 \$1 40 \$2 255 16 \, closesprite myPeak \, drawsprite myPeak 0 0;
#P hidden message 954 271 14 196617 0;
#P hidden newex 1179 527 105 196617 s $0_lcd2;
#P hidden newex 924 311 40 196617 peak;
#P hidden newex 1052 224 120 196617 scale -96 0 0 115 1.035;
#P hidden number 1052 245 35 9 0 0 0 3 0 0 0 221 221 221 222 222 222 0 0 0;
#P hidden message 1179 494 122 196617 drawsprite myMask \$1 0;
#N comlet (int) responsiveness;
#P hidden inlet 1052 54 15 0;
#N comlet (float) signal level in decibels;
#P hidden outlet 1180 260 15 0;
#N comlet (signal) to be displayed;
#P hidden inlet 997 54 15 0;
#P hidden newex 997 86 65 196617 peakamp~ 50;
#P hidden newex 997 107 33 196617 atodb;
#P hidden flonum 1052 144 35 9 0 0 0 3 0 0 0 221 221 221 222 222 222 0 0 0;
#P hidden comment 956 341 112 196617 erase previous peak \, and draw the new one;
#P hidden newex 146 482 111 196617 s $0_lcd2;
#P hidden newex 144 278 105 196617 s $0_lcd2;
#P hidden newex 213 29 90 196617 r $0_lcd2;
#P user lcd 6 21 125 12 0 1 0 0 1;
#P user lcd 6 5 125 12 0 1 0 0 1;
#P hidden newex 610 434 22 196617 b 1;
#P hidden message 610 454 222 196617 recordsprite \, paintrect 116 0 150 40 200 0 0 \, closesprite myPeak \, drawsprite myPeak 0 0;
#P hidden newex 449 375 171 196617 split 0 115;
#P hidden message 368 506 100 196617 deletesprite myPeak;
#P hidden newex 449 397 30 196617 sel 0;
#P hidden newex 469 456 28 196617 pack;
#P hidden newex 487 435 95 196617 scale 1 115 35 255;
#P hidden message 17 70 31 196617 clear;
#P hidden message 469 494 228 196617 recordsprite \, linesegment \$1 0 \$1 40 \$2 255 16 \, closesprite myPeak \, drawsprite myPeak 0 0;
#P hidden message 479 277 14 196617 0;
#P hidden newex 34 278 108 196617 s $0_lcd;
#P hidden newex 37 482 108 196617 s $0_lcd;
#P hidden newex 213 10 86 196617 r $0_lcd;
#P hidden newex 704 533 108 196617 s $0_lcd;
#P hidden newex 449 317 40 196617 peak;
#P hidden newex 577 230 120 196617 scale -96 0 0 115 1.035;
#P hidden number 577 251 35 9 0 0 0 3 0 0 0 221 221 221 222 222 222 0 0 0;
#P hidden message 704 500 122 196617 drawsprite myMask \$1 0;
#P hidden message 34 244 215 196617 recordsprite \, paintrect 0 0 300 35 50 50 50 \, closesprite myMask \, drawsprite myMask 0 0;
#P hidden message 204 446 154 196617 linesegment \$1 0 \$1 40 200 0 0;
#P hidden button 5 317 15 0;
#P hidden newex 5 339 42 196617 uzi 148;
#P hidden newex 37 423 28 196617 pack;
#P hidden newex 55 399 95 196617 scale 1 115 35 255;
#P hidden newex 37 361 58 196617 split 1 115;
#P hidden message 37 446 165 196617 linesegment \$1 0 \$1 40 \$2 255 16;
#N comlet (float) signal level in decibels;
#P hidden outlet 705 266 15 0;
#N comlet (signal) to be displayed;
#P hidden inlet 522 60 15 0;
#P hidden newex 522 92 65 196617 peakamp~ 50;
#P hidden newex 522 113 33 196617 atodb;
#P hidden newex 479 230 53 196617 dspstate~;
#P hidden newex 479 251 62 196617 metro 3000;
#P hidden flonum 577 150 35 9 0 0 0 3 0 0 0 221 221 221 222 222 222 0 0 0;
#P hidden comment 481 347 112 196617 erase previous peak \, and draw the new one;
#P hidden connect 61 0 13 0;
#P hidden connect 13 0 12 0;
#P hidden connect 21 0 34 0;
#P hidden connect 36 0 35 0;
#P hidden connect 26 0 35 0;
#P hidden connect 61 0 15 0;
#P hidden connect 15 0 23 0;
#P hidden connect 12 2 9 0;
#P hidden connect 9 0 11 0;
#P hidden connect 11 0 8 0;
#P hidden connect 8 0 22 0;
#P hidden fasten 14 0 22 0 209 465 42 465;
#P hidden fasten 9 0 10 0 42 394 60 394;
#P hidden connect 10 0 11 1;
#P hidden fasten 15 0 37 0 39 274 149 274;
#P hidden connect 14 0 38 0;
#P hidden connect 8 0 38 0;
#P hidden connect 61 0 60 0;
#P hidden fasten 9 1 14 0 90 387 209 387;
#P hidden connect 24 0 30 0;
#P hidden connect 29 0 30 0;
#P hidden connect 17 0 19 0;
#P hidden connect 19 0 31 0;
#P hidden connect 31 0 29 0;
#P hidden connect 29 1 28 0;
#P hidden connect 28 0 25 0;
#P hidden connect 3 0 2 0;
#P hidden connect 2 0 24 0;
#P hidden connect 24 0 19 1;
#P hidden connect 29 1 27 0;
#P hidden connect 27 0 28 1;
#P hidden connect 6 0 5 0;
#P lcolor 6;
#P hidden fasten 5 0 4 0 1057 135 1185 135;
#P hidden fasten 45 0 5 1 1057 78 582 78;
#P hidden connect 4 0 1 0;
#P hidden connect 60 0 1 0;
#P hidden connect 1 0 18 0;
#P hidden connect 18 0 17 0;
#P hidden connect 31 1 33 0;
#P hidden connect 33 0 32 0;
#P hidden connect 17 0 16 0;
#P hidden fasten 30 0 20 0 373 526 709 526;
#P hidden fasten 25 0 20 0 474 524 709 524;
#P hidden connect 16 0 20 0;
#P hidden connect 32 0 20 0;
#P hidden fasten 4 0 7 0 695 146;
#P hidden connect 51 0 56 0;
#P hidden connect 55 0 56 0;
#P hidden connect 47 0 49 0;
#P hidden connect 49 0 57 0;
#P hidden connect 57 0 55 0;
#P hidden connect 55 1 54 0;
#P hidden connect 54 0 52 0;
#P hidden connect 2 0 51 0;
#P hidden connect 51 0 49 1;
#P hidden connect 55 1 53 0;
#P hidden connect 53 0 54 1;
#P hidden connect 43 0 42 0;
#P lcolor 6;
#P hidden connect 42 0 41 0;
#P hidden connect 45 0 42 1;
#P hidden connect 41 0 40 0;
#P hidden connect 60 0 40 0;
#P hidden connect 40 0 48 0;
#P hidden connect 48 0 47 0;
#P hidden connect 57 1 59 0;
#P hidden connect 59 0 58 0;
#P hidden connect 47 0 46 0;
#P hidden fasten 56 0 50 0 848 520 1184 520;
#P hidden fasten 52 0 50 0 949 518 1184 518;
#P hidden connect 46 0 50 0;
#P hidden connect 58 0 50 0;
#P hidden fasten 41 0 44 0 1185 135;
#P pop;
