max v2;
#N vpatcher 103 136 725 618;
#P window setfont "Sans Serif" 9.;
#P hidden newex 154 271 103 196617 route MODULE_TITLE;
#P hidden newex 154 251 93 196617 r $1_FROM_MHUB;
#P hidden newex 154 291 90 196617 prepend setitem 0;
#P user umenu 12 0 153 196644 3 64 16 0;
#X setrgb 165 165 165 221 221 221 255 255 255 221 221 221 170 170 170 119 119 119 187 187 187;
#X add;
#P user hint 194 14 254 59 "Output Preview (control from Module Menu)" 1000 100 0 65535 65535 52428 9 3 0 1 0 0 0;
#P hidden newex 461 40 27 196617 gate;
#B color 3;
#P hidden toggle 87 137 15 0;
#P bpatcher 0 0 17 16 0 0 jmod.menu.v.mxt 0 $1;
#P objectname j2-gui.menu.v.mxb;
#N comlet Processed Video for Preview;
#P hidden inlet 457 6 15 0;
#P hidden comment 472 6 93 196617 PROCESSED VIDEO;
#P user jit.pwindow 193 13 62 47 0 0 0 0 1 0;
#P user pictctrl 0 0 255 121 jmod.bg-2h.v.pct 0 0 1 0 24 0 0 0 255 121 128 0 1 10 2 0;
#P noclick;
#P hidden connect 9 0 8 0;
#P hidden connect 4 0 5 0;
#P hidden connect 10 0 11 0;
#P hidden connect 11 0 9 0;
#P hidden connect 6 0 1 0;
#P lcolor 4;
#P hidden connect 5 0 6 0;
#P hidden connect 3 0 6 1;
#P lcolor 4;
#P pop;
