max v2;
#N vpatcher 293 69 595 323;
#P inlet 17 41 15 0;
#P inlet 243 41 15 0;
#P outlet 81 124 15 0;
#P window setfont "Sans Serif" 9.;
#N vpatcher 40 55 304 257;
#P window setfont "Sans Serif" 9.;
#P message 187 54 35 196617 \$1 20;
#P newex 187 78 40 196617 line 0.;
#P inlet 187 35 15 0;
#P inlet 128 35 15 0;
#P newex 33 110 61 196617 blue.xfade~;
#P outlet 33 152 15 0;
#P inlet 33 35 15 0;
#P connect 0 0 2 0;
#P lcolor 6;
#P connect 2 0 1 0;
#P connect 3 0 2 1;
#P lcolor 6;
#P connect 5 0 2 2;
#P connect 4 0 6 0;
#P connect 6 0 5 0;
#P pop;
#P newobj 127 84 126 196617 p bypass;
#N comlet (signal) out left;
#P outlet 166 190 15 0;
#P user gain~ 166 131 15 22 158 0 1.071519 7.94321 10.;
#P inlet 143 41 15 0;
#P inlet 81 41 15 0;
#P connect 0 0 5 0;
#P lcolor 6;
#P connect 1 0 4 0;
#P lcolor 6;
#P connect 7 0 2 0;
#P connect 4 0 2 0;
#P connect 2 0 3 0;
#P connect 0 0 4 1;
#P lcolor 6;
#P connect 6 0 4 2;
#P pop;
