max v2;
#N vpatcher 103 136 768 508;
#P window setfont "Sans Serif" 9.;
#P hidden newex 155 270 103 196617 route MODULE_TITLE;
#P hidden newex 155 250 93 196617 r $1_FROM_MHUB;
#P hidden newex 155 290 90 196617 prepend setitem 0;
#P user umenu 13 -1 256 196644 3 64 15 0;
#X setrgb 165 165 165 221 221 221 255 255 255 221 221 221 170 170 170 119 119 119 187 187 187;
#X add;
#P user hint 445 14 505 59 "Output Preview (control from Module Menu)" 1000 100 0 65535 65535 52428 9 3 0 1 0 0 0;
#P hidden newex 545 121 27 196617 gate;
#B color 3;
#P hidden toggle 87 137 15 0;
#P bpatcher 0 0 17 16 0 0 jmod.menu.v.mxt 0 $1;
#P objectname j2-gui.menu.v.mxb;
#N comlet Processed Video for Preview;
#P hidden inlet 522 49 15 0;
#P hidden comment 537 49 93 196617 PROCESSED VIDEO;
#P user jit.pwindow 443 13 62 47 0 0 0 0 1 0;
#P user pictctrl 0 0 510 121 jmod.bg-2.v.pct 0 0 1 0 24 0 0 0 510 121 128 0 1 10 2 0;
#P noclick;
#P hidden connect 9 0 8 0;
#P hidden connect 4 0 5 0;
#P hidden connect 10 0 11 0;
#P hidden connect 11 0 9 0;
#P hidden connect 6 0 1 0;
#P lcolor 4;
#P hidden connect 5 0 6 0;
#P hidden connect 3 0 6 1;
#P lcolor 4;
#P pop;
