max v2;
#N vpatcher 4 44 1018 767;
#P origin 204 0;
#P window setfont "Sans Serif" 9.;
#P message 878 599 92 196617 MODULE_TITLE $2;
#P newex 734 657 114 196617 prepend MODULE_TITLE;
#P newex 878 626 93 196617 s $1_FROM_MHUB;
#P newex 767 508 45 196617 sel bang;
#P newex 750 441 45 196617 sel bang;
#N vpatcher 47 184 453 600;
#P origin 0 -110;
#P window setfont "Sans Serif" 9.;
#P newex 107 229 50 196617 tosymbol;
#P newex 232 230 50 196617 tosymbol;
#P inlet 147 34 15 0;
#P inlet 130 34 15 0;
#P outlet 264 139 15 0;
#P newex 177 95 184 196617 tap.route @searchstring save_settings;
#P newex 232 273 27 196617 t l b;
#P message 249 308 42 196617 store 1;
#P newex 177 225 49 196617 t write b;
#P newex 192 205 50 196617 zl slice 1;
#P newex 232 253 72 196617 prepend write;
#P newex 177 125 50 196617 t l l;
#P newex 192 185 35 196617 zl reg;
#P newex 177 165 40 196617 sel 1 2;
#P newex 177 145 33 196617 zl len;
#P outlet 211 349 15 0;
#P newex 107 273 27 196617 t b l;
#P message 52 307 35 196617 recall 1;
#P newex 52 225 44 196617 t b read;
#P newex 67 205 50 196617 zl slice 1;
#P newex 107 253 65 196617 prepend read;
#P newex 52 125 50 196617 t l l;
#P newex 67 185 35 196617 zl reg;
#P newex 52 165 40 196617 sel 1 2;
#P newex 52 145 33 196617 zl len;
#P newex 52 72 261 196617 tap.route @searchstring load_settings;
#P outlet 86 349 15 0;
#P inlet 52 45 15 0;
#P connect 0 0 2 0;
#P connect 2 0 6 0;
#P connect 6 0 3 0;
#P connect 3 0 4 0;
#P connect 4 0 9 0;
#P connect 24 0 9 0;
#P connect 11 0 10 0;
#P connect 9 0 10 0;
#P connect 4 1 5 0;
#P connect 5 0 8 0;
#P connect 11 1 1 0;
#P connect 10 0 1 0;
#P connect 9 1 1 0;
#P connect 6 1 5 1;
#P connect 8 1 27 0;
#P connect 27 0 7 0;
#P connect 7 0 11 0;
#P connect 2 1 22 0;
#P connect 22 0 16 0;
#P connect 16 0 13 0;
#P connect 13 0 14 0;
#P connect 14 0 19 0;
#P connect 25 0 19 0;
#P connect 14 1 15 0;
#P connect 15 0 18 0;
#P connect 19 0 12 0;
#P connect 21 0 12 0;
#P connect 20 0 12 0;
#P connect 16 1 15 1;
#P connect 18 1 26 0;
#P connect 26 0 17 0;
#P connect 17 0 21 0;
#P connect 19 1 20 0;
#P connect 21 1 20 0;
#P connect 22 1 23 0;
#P pop;
#P newobj 750 563 53 196617 p settings;
#N vpatcher 227 303 740 708;
#P outlet 326 354 15 0;
#P window setfont "Sans Serif" 9.;
#P newex 299 84 115 196617 jmod.message $1 force;
#P objectname jmod.parameter.mxb[4];
#P newex 43 257 49 196617 deferlow;
#P newex 93 107 35 196617 t open;
#P button 210 123 15 0;
#P message 107 257 14 196617 1;
#B color 4;
#P message 92 224 14 196617 2;
#B color 4;
#P message 149 257 14 196617 1;
#B color 4;
#P message 134 224 14 196617 3;
#B color 4;
#P message 191 257 14 196617 1;
#B color 4;
#P message 176 224 14 196617 0;
#B color 4;
#P number 92 295 35 9 0 0 0 3 0 0 0 59 62 255 222 222 222 0 0 0;
#P newex 176 202 40 196617 sel 1 0;
#B color 4;
#P newex 134 202 40 196617 sel 1 0;
#B color 4;
#P newex 92 202 40 196617 sel 1 0;
#B color 4;
#P message 92 313 74 196617 outputmode \$1;
#B color 4;
#P comment 69 34 100 196617 'mute' just passes through;
#P newex 18 71 255 196617 route load_setting save_settings restore_defaults view_internals preview bypass freeze mute force help;
#P outlet 304 353 15 0;
#P inlet 20 46 15 0;
#P connect 0 0 2 0;
#P connect 13 0 17 0;
#P connect 11 0 17 0;
#P connect 9 0 17 0;
#P connect 2 5 5 0;
#P connect 5 0 13 0;
#P lcolor 5;
#P connect 10 0 8 0;
#P lcolor 5;
#P connect 12 0 8 0;
#P lcolor 5;
#P connect 14 0 8 0;
#P lcolor 5;
#P connect 17 0 8 0;
#P connect 8 0 4 0;
#P lcolor 5;
#P connect 2 3 16 0;
#P connect 5 1 14 0;
#P lcolor 5;
#P connect 2 6 6 0;
#P connect 6 0 11 0;
#P lcolor 5;
#P connect 6 1 12 0;
#P lcolor 5;
#P connect 2 7 7 0;
#P connect 7 0 9 0;
#P lcolor 5;
#P connect 7 1 10 0;
#P lcolor 5;
#P connect 18 0 15 0;
#P connect 2 8 15 0;
#P connect 2 10 1 0;
#P connect 4 0 1 0;
#P connect 16 0 1 0;
#P connect 15 0 19 0;
#P pop;
#P newobj 331 311 73 196617 p parse_jitter;
#N vpatcher 237 245 753 645;
#P window setfont "Sans Serif" 9.;
#P comment 192 30 100 196617 'mute' just passes through;
#P newex 141 67 328 196617 route load_setting save_settings restore_defaults view_internals help;
#P outlet 269 138 15 0;
#P inlet 143 42 15 0;
#P connect 0 0 2 0;
#P fasten 2 5 1 0 284 142;
#P pop;
#P newobj 306 331 80 196617 p parse_control;
#P message 364 253 14 196617 5;
#P message 342 252 14 196617 4;
#P newex 255 92 49 196617 deferlow;
#P newex 359 582 86 196617 pack 1 half;
#P message 435 561 23 196617 full;
#P newex 435 541 31 196617 sel 0;
#P newex 413 521 55 196617 tap.unpack;
#P newex 359 501 118 196617 regexp (\\\\d)U-?(\\\\S*);
#P newex 359 602 185 196617 prepend set \\\; _MODULE_INSTALL_SIZE;
#P newex 872 214 63 196617 fromsymbol;
#P newex 837 189 92 196617 tap.typecheck;
#P newex 786 212 50 196617 zl join;
#P newex 786 166 50 196617 zl slice 1;
#P newex 735 182 35 196617 zl reg;
#P newex 258 485 35 196617 t open;
#N vpatcher 231 194 836 674;
#P window setfont "Sans Serif" 9.;
#P newex 307 105 78 196617 prepend mute 0;
#P window setfont "Lucida Grande" 12.;
#P newex 103 188 27 67108876 - 2;
#P window setfont "Sans Serif" 9.;
#P newex 151 167 59 196617 sel setitem;
#P newex 151 136 65 196617 jmod.core.sr;
#P newex 138 82 92 196617 tap.typecheck;
#P newex 190 103 63 196617 fromsymbol;
#P newex 331 236 194 196617 jmod.post "parse_poly: bad sample rate";
#P message 329 257 27 196617 up 4;
#P message 289 258 27 196617 up 2;
#P message 199 300 41 196617 down 4;
#P message 218 282 41 196617 down 2;
#P message 237 258 41 196617 down 1;
#P newex 199 206 119 196617 sel -2 -1 0 1 2;
#P newex 140 45 301 196617 route sr enable bypass gain midigain defeat_meters mute load_setting save_settings restore_defaults view_internals help;
#P outlet 358 345 15 0;
#P inlet 140 25 15 0;
#P connect 13 1 14 0;
#P connect 2 0 11 0;
#P connect 0 0 2 0;
#P connect 11 1 12 0;
#P connect 10 0 12 0;
#P connect 12 0 13 0;
#P connect 11 4 10 0;
#P connect 14 0 3 0;
#P connect 3 0 6 0;
#P connect 3 1 5 0;
#P connect 3 2 4 0;
#P connect 3 3 7 0;
#P connect 2 6 15 0;
#P connect 3 4 8 0;
#P connect 3 5 9 0;
#P connect 2 12 1 0;
#P connect 4 0 1 0;
#P connect 5 0 1 0;
#P connect 6 0 1 0;
#P connect 8 0 1 0;
#P connect 7 0 1 0;
#P connect 15 0 1 0;
#P pop;
#P newobj 222 373 65 196617 p parse_poly;
#N vpatcher 237 245 753 645;
#P window setfont "Lucida Grande" 12.;
#P newex 96 181 27 67108876 - 2;
#P window setfont "Sans Serif" 9.;
#P newex 141 173 59 196617 sel setitem;
#P newex 143 103 92 196617 tap.typecheck;
#P newex 141 152 65 196617 jmod.core.sr;
#P newex 189 234 193 196617 jmod.post "parse_blue: bad sample rate";
#P newex 195 126 63 196617 fromsymbol;
#P comment 192 30 100 196617 'mute' just passes through;
#P message 141 290 72 196617 downsample 2;
#P message 157 272 72 196617 downsample 1;
#P message 173 254 72 196617 downsample 0;
#P newex 141 195 59 196617 sel -2 -1 0;
#P newex 141 67 265 196617 route sr enable gain midigain defeat_meters load_setting save_settings restore_defaults view_internals help;
#P outlet 338 361 15 0;
#P inlet 143 42 15 0;
#P connect 12 1 13 0;
#P connect 0 0 2 0;
#P connect 11 1 10 0;
#P connect 8 0 10 0;
#P connect 10 0 12 0;
#P connect 13 0 3 0;
#P connect 3 0 6 0;
#P connect 2 0 11 0;
#P connect 3 1 5 0;
#P connect 3 2 4 0;
#P connect 3 3 9 0;
#P connect 11 4 8 0;
#P connect 2 10 1 0;
#P connect 6 0 1 0;
#P connect 5 0 1 0;
#P connect 4 0 1 0;
#P pop;
#P newobj 260 352 65 196617 p parse_blue;
#P message 324 254 14 196617 3;
#P newex 223 277 160 196617 gate 5 1;
#P newex 750 465 105 196617 prepend load_settings;
#P newex 750 419 183 196617 jmod.message $1 load_settings;
#P newex 766 528 110 196617 prepend save_settings;
#P message 881 320 87 196617 name $2;
#P newex 50 28 90 196617 r $1_FROM_MGUI;
#P message 255 136 149 196617 \; _MODULE_INSTALL_SIZE 1 full;
#P newex 255 113 22 196617 b 1;
#P newex 140 609 22 196617 b 1;
#P newex 140 629 119 196617 jit.obref $2;
#P newex 140 589 131 196617 jmod.message $1 help;
#P newex 220 438 116 196617 jmod.message $1 view_internals;
#P newex 766 488 186 196617 jmod.message $1 save_settings;
#P newex 762 235 165 196617 jmod.message $1 restore_defaults;
#P comment 874 358 100 196617 load the first preset;
#P message 729 374 44 196617 recall 1;
#P message 774 374 166 196617 read $2.default.xml;
#P comment 787 346 100 196617 read the default preset(s);
#P newex 729 295 29 196617 t b b;
#P message 873 61 72 196617 substitute %0;
#P newex 882 33 45 196617 loadbang;
#P newex 736 89 83 196617 regexp (\\\\S+::);
#P message 811 320 69 196617 outputmode 1;
#P newex 729 235 32 196617 r bng;
#P comment 745 599 100 196617 pattrstorage;
#N comlet connect to pattrstorage;
#P outlet 729 599 15 0;
#N comlet connect to pattrstorage;
#P inlet 736 61 15 0;
#P newex 418 164 44 196617 jit.qball;
#P newex 418 141 35 196617 pipe 5;
#P newex 515 52 50 196617 tap.delay;
#P newex 580 368 101 196617 prepend _FROM_MODULEHUB;
#P newex 318 399 35 196617 zl reg;
#P message 299 252 14 196617 2;
#P newex 223 226 151 196617 sel poly blue none control jitter;
#P message 223 252 14 196617 1;
#P message 192 521 52 196617 target \$1;
#P newex 175 500 27 196617 t b i;
#P newex 175 544 50 196617 zl reg;
#P newex 175 480 50 196617 zl slice 1;
#P newex 60 523 45 196617 tap.thru;
#P newex 60 452 127 196617 tap.typecheck;
#P window setfont "Sans Serif" 12.;
#P comment 48 427 131 196620 Poly Handling;
#P window setfont "Sans Serif" 9.;
#P newex 454 380 50 196617 pack;
#P newex 454 361 27 196617 i;
#P newex 454 280 27 196617 - 1;
#P newex 454 399 75 196617 sprintf p%i.%i;
#P newex 454 323 27 196617 t b i;
#P newex 454 342 50 196617 uzi;
#P number 454 301 35 9 0 0 0 3 0 0 0 221 221 221 222 222 222 0 0 0;
#P message 593 249 81 196617 enableitem 10 0;
#P newex 580 321 72 196617 prepend MENU;
#P message 609 269 82 196617 append PRESETS;
#P message 612 297 95 196617 append <separator>;
#P newex 580 229 75 196617 prepend append;
#N vpatcher 67 408 760 768;
#P window setfont "Sans Serif" 9.;
#P newex 386 267 35 196617 zl join;
#P newex 409 241 35 196617 zl rev;
#P newex 382 219 50 196617 zl slice 1;
#P outlet 468 262 15 0;
#P newex 446 211 50 196617 zl slice 2;
#P newex 468 235 35 196617 zl rev;
#P newex 397 189 59 196617 route name;
#P newex 102 140 35 196617 zl rev;
#P newex 102 230 132 196617 zl join;
#P newex 102 208 55 196617 tap.pack 2;
#P newex 25 78 197 196617 zl slice 1;
#P newex 102 162 88 196617 tap.unpack 4;
#P newex 25 110 165 196617 regexp ([p])([\\\\d]*)([.])([\\\\w]*);
#P outlet 102 259 15 0;
#P inlet 25 47 15 0;
#P comment 161 209 100 196617 @triggers 0 1;
#P connect 1 0 5 0;
#P connect 5 0 3 0;
#P connect 3 1 8 0;
#P connect 8 0 4 0;
#P connect 4 0 6 0;
#P connect 6 0 7 0;
#P connect 15 0 2 0;
#P connect 4 2 6 1;
#P connect 5 1 7 1;
#P connect 9 0 13 0;
#P connect 13 0 15 0;
#P connect 7 0 9 0;
#P connect 13 1 14 0;
#P connect 14 0 15 1;
#P connect 9 1 11 0;
#P connect 11 1 10 0;
#P connect 10 0 12 0;
#P pop;
#P newobj 580 142 42 196617 p parse;
#P number 490 301 35 9 0 0 0 3 0 0 0 221 221 221 222 222 222 0 0 0;
#P newex 418 210 85 196617 sprintf p%i.name;
#P newex 418 188 40 196617 uzi;
#P newex 418 122 173 196617 route num_presets num_parameters;
#N vpatcher 20 74 420 374;
#P window setfont "Sans Serif" 9.;
#P newex 121 175 35 196617 zl rev;
#P outlet 121 197 15 0;
#P newex 121 154 107 196617 zl join;
#P newex 218 81 68 196617 route symbol;
#P newex 121 81 68 196617 route symbol;
#P inlet 218 44 15 0;
#P inlet 121 44 15 0;
#P connect 0 0 2 0;
#P connect 2 1 4 0;
#P connect 2 0 4 0;
#P connect 4 0 6 0;
#P connect 6 0 5 0;
#P connect 1 0 3 0;
#P connect 3 0 4 1;
#P connect 3 1 4 1;
#P pop;
#P newobj 515 98 30 196617 p zip;
#P newex 515 32 183 196617 t num_presets num_parameters l b b b;
#P window setfont "Sans Serif" 12.;
#P comment 350 427 131 196620 Attribute Handling;
#P window setfont "Sans Serif" 9.;
#N coll ;
#P newobj 515 78 70 196617 coll;
#P newex 513 502 71 196617 prepend refer;
#N comlet connect to a poly~ object;
#P outlet 318 558 15 0;
#P newex 29 49 214 196617 route _POLY _MGUI_FEEDBACK MENU PRESET _GET_MODULE_INSTALL_SIZE MODULE_TITLE;
#P newex 359 479 321 196617 route size xxxx presets library_type;
#P newex 359 452 243 196617 patcherargs @size 1U @presets @library_type poly;
#P newex 46 178 115 196617 t l l l;
#P newex 46 331 35 196617 zl reg;
#P newex 46 352 76 196617 jmod.post $2-SyntaxError;
#P newex 46 305 31 196617 sel 0;
#P newex 46 285 27 196617 i;
#P newex -86 301 71 196617 prepend store;
#P newex -86 280 35 196617 zl rev;
#P newex 46 224 44 196617 t b l 0;
#P newex -86 259 45 196617 tap.pack;
#P newex -86 216 27 196617 t b l;
#N counter;
#X flags 0 0;
#P newobj -86 237 66 196617 counter;
#P newex -87 121 55 196617 t b clear 1;
#P newex 46 202 50 196617 zl slice 1;
#N coll ;
#P newobj 63 254 53 196617 coll;
#P newex -87 196 126 196617 receive $1_register;
#P newex -87 141 96 196617 send $1_query;
#P newex -87 90 32 196617 r bng;
#P newex 112 223 100 196617 send $1_instruction;
#N comlet module feedback - connect to 1st outlet;
#P outlet 175 359 15 0;
#N comlet connect to mgui (1st outlet);
#P inlet 29 29 15 0;
#P window setfont "Sans Serif" 12.;
#P comment 410 25 103 196620 Preset Handling;
#P window setfont "Sans Serif" 9.;
#P comment 416 303 45 196617 preset:;
#P user panel 215 189 192 234;
#X brgb 191 191 191;
#X frgb 0 0 0;
#X border 1;
#X rounded 0;
#X shadow 0;
#X done;
#P comment 753 61 100 196617 pattrstorage;
#P comment 816 281 75 196617 tell pattrstorage to send feedback;
#P comment 827 88 172 196617 filter out the part of the feedback symbol preceeding the double-colon. Then send to the feedback outlet;
#P comment 723 112 100 196617 I DONT THINK I NEED THE BLUE PATCH CORD - NOT SURE THOUGH...;
#P user panel 409 22 300 400;
#X brgb 191 191 191;
#X frgb 0 0 0;
#X border 1;
#X rounded 0;
#X shadow 0;
#X done;
#P background;
#P user panel 45 424 300 158;
#X brgb 191 191 191;
#X frgb 0 0 0;
#X border 1;
#X rounded 0;
#X shadow 0;
#X done;
#P background;
#P user panel 347 424 362 207;
#X brgb 191 191 191;
#X frgb 0 0 0;
#X border 1;
#X rounded 0;
#X shadow 0;
#X done;
#P background;
#P connect 13 0 18 0;
#P connect 18 0 14 0;
#P connect 15 0 20 0;
#P connect 20 0 19 0;
#P connect 19 0 21 0;
#P connect 21 0 23 0;
#P connect 23 0 24 0;
#P connect 18 2 19 2;
#P connect 20 1 21 1;
#P connect 92 0 32 0;
#P connect 10 0 32 0;
#P connect 58 0 29 0;
#P connect 62 0 29 0;
#P connect 29 0 17 0;
#P connect 17 0 22 0;
#P connect 22 0 25 0;
#P connect 25 0 26 0;
#P connect 26 0 28 0;
#P connect 28 0 27 0;
#P connect 32 6 57 0;
#P connect 60 0 58 0;
#P connect 57 4 58 0;
#P connect 57 3 58 0;
#P connect 57 2 58 0;
#P connect 57 1 58 0;
#P connect 22 1 16 0;
#P connect 24 0 16 0;
#P connect 18 1 16 0;
#P fasten 22 2 25 1 85 280 68 280;
#P connect 16 0 25 1;
#P fasten 29 1 28 1 103 327 76 327;
#P connect 29 2 12 0;
#P connect 43 1 12 0;
#P connect 87 0 89 0;
#P connect 89 0 88 0;
#P connect 102 0 11 0;
#P connect 32 1 11 0;
#P connect 57 5 59 0;
#P connect 59 0 61 0;
#P connect 61 0 60 0;
#P connect 61 1 62 0;
#P connect 59 1 60 1;
#P connect 97 0 100 0;
#P connect 31 3 64 0;
#P connect 64 0 63 0;
#P connect 65 0 97 0;
#P connect 63 0 97 0;
#P connect 98 0 97 0;
#P connect 114 0 97 0;
#P connect 115 0 97 0;
#P connect 32 4 113 0;
#P connect 113 0 90 0;
#P connect 90 0 91 0;
#P connect 107 0 91 0;
#P connect 86 0 101 0;
#P connect 97 1 99 0;
#P connect 64 1 65 0;
#P connect 97 3 116 0;
#P connect 117 0 66 0;
#P connect 116 0 66 0;
#P connect 100 0 66 0;
#P connect 99 0 66 0;
#P connect 97 2 33 0;
#P connect 66 0 33 0;
#P connect 101 0 33 0;
#P connect 117 1 33 0;
#P connect 64 2 98 0;
#P connect 97 4 117 0;
#P connect 64 3 114 0;
#P fasten 30 1 31 0 597 474 364 474;
#P connect 31 0 108 0;
#P connect 109 0 112 0;
#P connect 112 0 107 0;
#P connect 64 4 115 0;
#P connect 102 0 97 1;
#P connect 108 1 109 0;
#P fasten 38 0 39 0 520 118 423 118;
#P connect 39 0 69 0;
#P connect 69 0 70 0;
#P connect 70 0 40 0;
#P connect 40 2 41 0;
#P connect 109 1 110 0;
#P connect 110 0 111 0;
#P connect 111 0 112 1;
#P fasten 110 1 112 1 461 579 440 579;
#P connect 32 2 53 0;
#P connect 53 0 49 0;
#P connect 32 3 49 0;
#P connect 49 0 51 0;
#P connect 51 0 50 0;
#P connect 50 0 54 0;
#P connect 54 0 55 0;
#P connect 55 0 52 0;
#P connect 51 1 54 1;
#P lcolor 2;
#P fasten 39 1 42 0 504 237 495 237;
#P connect 42 0 50 1;
#P connect 50 2 55 1;
#P connect 31 2 34 0;
#P fasten 34 0 37 0 518 530 709 530 709 29 520 29;
#P connect 37 0 68 0;
#P fasten 41 0 35 0 423 236 414 236 414 73 520 73;
#P connect 52 0 35 0;
#P connect 37 1 35 0;
#P connect 37 2 35 0;
#P connect 68 0 35 0;
#P connect 35 0 38 0;
#P connect 35 1 38 1;
#P connect 39 2 43 0;
#P connect 43 0 44 0;
#P connect 44 0 47 0;
#P connect 46 0 47 0;
#P connect 45 0 47 0;
#P connect 48 0 47 0;
#P connect 47 0 67 0;
#P connect 37 3 48 0;
#P connect 37 4 46 0;
#P connect 37 5 45 0;
#P connect 74 0 79 0;
#P connect 84 0 79 0;
#P connect 79 0 82 0;
#P connect 118 1 72 0;
#P connect 118 0 72 0;
#P connect 82 0 72 0;
#P fasten 81 0 72 0 779 394 734 394;
#P fasten 75 0 72 0 816 402 734 402;
#P fasten 93 0 72 0 886 404 734 404;
#P connect 32 5 122 0;
#P connect 104 0 102 0;
#P connect 71 0 76 0;
#P connect 78 0 76 0;
#P connect 95 0 119 0;
#P connect 119 1 96 0;
#P connect 94 0 118 0;
#P connect 96 0 118 0;
#P connect 120 1 94 0;
#P connect 85 0 120 0;
#P connect 119 0 118 1;
#P fasten 79 1 81 0 753 367 779 367;
#P connect 76 0 103 0;
#P connect 103 0 104 0;
#P connect 120 0 118 2;
#P connect 77 0 75 0;
#P connect 106 0 104 1;
#P connect 105 1 104 1;
#P connect 105 2 104 1;
#P connect 105 3 104 1;
#P connect 105 5 104 1;
#P connect 103 1 105 0;
#P connect 105 4 106 0;
#P connect 77 0 78 0;
#P connect 77 0 123 0;
#P connect 122 0 121 0;
#P connect 123 0 121 0;
#P connect 77 0 93 0;
#P pop;
