max v2;#N vpatcher 60 44 1176 377;#P origin -11 0;#P window setfont "Sans Serif" 9.;#P window linecount 1;#P comment 862 213 24 196617 Mac;#P comment 862 199 24 196617 Win;#P comment 862 168 24 196617 Mac;#P comment 862 154 24 196617 Win;#P comment 862 122 24 196617 Mac;#P comment 862 108 24 196617 Win;#P comment 862 92 20 196617 OS;#P comment 480 92 97 196617 Controller numbers;#P comment 898 213 53 196617 0 1023;#P message 480 199 250 196617 0 4 8 20 32 48 49 50 51 52 53 54 55 56 57 58 59;#P comment 898 92 46 196617 Range;#P comment 739 92 40 196617 Device;#P comment 898 199 59 196617 0 65535;#P comment 739 199 115 196617 Sengital VRMS jamepad;#P message 480 213 226 196617 4 5 6 7 8 9 10 11 12 13 14 15 16 17 18 19 20;#P comment 898 154 59 196617 0 65535;#P comment 898 168 53 196617 0 1023;#P message 480 168 226 196617 3 4 5 6 7 8 9 10 11 12 13;#P comment 898 108 59 196617 0 65535;#P comment 898 122 47 196617 0 255;#P message 480 122 226 196617 3 4 5 6 7 8 9 10 11 12 13 14 15 16 17 18 19;#P message 300 83 54 196617 poll 100;#P number 256 178 35 9 0 0 0 3 0 0 0 221 221 221 222 222 222 0 0 0;#P number 211 178 35 9 0 0 0 3 0 0 0 221 221 221 222 222 222 0 0 0;#P comment 739 154 111 196617 Saitek ST290 joystick;#P message 480 154 226 196617 0 4 8 20 32 48 49 50 51 52 53;#P message 480 108 250 196617 0 4 8 20 32 48 49 50 51 52 53 54 55 56 57 58 59;#N vpatcher 15 55 194 307;#P window setfont "Sans Serif" 9.;#P newex 50 50 40 196617 t b b b;#P message 50 80 28 196617 clear;#P message 65 105 31 196617 dump;#P message 80 129 55 196617 sort -1 -1;#P inlet 50 26 15 0;#P outlet 50 180 15 0;#P connect 1 0 5 0;#P connect 5 0 4 0;#P fasten 2 0 0 0 85 163 55 163;#P fasten 3 0 0 0 70 151 55 151;#P connect 4 0 0 0;#P connect 5 1 3 0;#P connect 5 2 2 0;#P pop;#P newobj 38 116 72 196617 p sort-dump;#P button 38 98 15 0;#P message 52 206 226 196617 4 5 6 7 8 9 10 11 12 13 14 15 16 17 18 19 20;#P newex 52 184 57 196617 prepend set;#P newex 52 163 66 196617 thresh 100;#N coll ;#P newobj 38 142 53 196617 coll;#P user ubumenu 243 115 131 196617 0 1 1 0;#X add P880;#X add "Saitek ST290 Pro";#X add "Sengital VRMS Joypad";#X add "GM-4200 Gamer Optical Mouse";#X add "Apple IR";#X add "Apple Internal Keyboard / Trackpad";#X add "Apple Internal Keyboard / Trackpad 2";#X add Trackpad;#X add "Trackpad 2";#X add "Apple Internal Keyboard / Trackpad 3";#X prefix_set 0 0 <none> 0;#X pattrmode 1;#P newex 211 141 55 196617 unpack 0 0;#P message 246 83 49 196617 poll 10;#P message 211 83 32 196617 menu;#P newex 211 114 29 196617 hi;#P flonum 375 212 49 9 0 0 0 3 0 0 0 221 221 221 222 222 222 0 0 0;#P flonum 317 212 49 9 0 0 0 3 0 0 0 221 221 221 222 222 222 0 0 0;#P newex 317 189 127 196617 jcom.oscroute /min /max;#P newex 317 167 85 196617 jcom.autoscale;#P comment 739 108 106 196617 Saitek P880 gamepad;#P user panel 30 77 423 158;#X brgb 255 255 255;#X frgb 0 0 0;#X border 1;#X rounded 0;#X shadow 0;#X done;#P connect 15 0 16 0;#P fasten 6 0 11 0 216 138 43 138;#P fasten 16 0 11 0 43 138 43 138;#P connect 11 1 12 0;#P connect 12 0 13 0;#P connect 13 0 14 0;#P fasten 8 0 6 0 251 107 216 107;#P connect 7 0 6 0;#P connect 10 0 6 0;#P fasten 22 0 6 0 305 107 216 107;#P connect 6 0 9 0;#P connect 9 0 20 0;#P connect 6 1 10 0;#P connect 9 1 21 0;#P fasten 9 1 2 0 261 162 322 162;#P fasten 2 1 3 0 397 186 322 186;#P connect 3 0 4 0;#P connect 3 1 5 0;#P pop;