max v2;
#N vpatcher 158 76 655 457;
#P window setfont "Sans Serif" 9.;
#P comment 68 58 91 196617 _____ low ____;
#P comment 207 58 86 196617 ____ high ____;
#N vpatcher 111 94 435 310;
#P inlet 159 29 15 0;
#P window setfont "Sans Serif" 9.;
#P message 113 66 45 196617 set 0 \$1;
#P inlet 22 29 15 0;
#P message 41 66 70 196617 set \$1 22050;
#P outlet 22 149 15 0;
#P newex 22 116 91 196617 clip 0. $2;
#P newex 159 116 114 196617 clip $1 22050.;
#P outlet 159 149 15 0;
#P connect 5 0 2 0;
#P connect 6 0 2 0;
#P connect 2 0 3 0;
#P connect 5 0 4 0;
#P connect 7 0 6 0;
#P connect 4 0 1 0;
#P connect 7 0 1 0;
#P connect 1 0 0 0;
#P pop;
#P newobj 283 231 85 196617 p constrain;
#N comlet Constrained High Shelf Cutoff (float);
#P outlet 358 320 15 0;
#N comlet Constrained Low Shelf Cutoff (float);
#P outlet 283 320 15 0;
#P comment 291 254 95 196617 constrained params;
#P comment 358 337 95 196617 high shelf cutoff fq.;
#P comment 204 337 94 196617 low shelf cutoff fq.;
#P newex 274 126 27 196617 t b f;
#N comlet (signal) Filtered Signal Out;
#P outlet 18 320 15 0;
#P comment 7 56 59 196617 signal input;
#N comlet (signal) Input Signal;
#P inlet 18 77 15 0;
#P newex 18 290 251 196617 biquad~;
#P comment 3 337 102 196617 filtered signal output;
#P newex 66 230 203 196617 lp-coef~ 0. 0. 0. 105.1 12700.;
#P newex 66 103 65 196617 clip -30. 30.;
#N comlet Low Shelf Boost \, Cut (-30 dB - 30 dB);
#P inlet 66 77 15 0;
#P newex 207 103 65 196617 clip -30. 30.;
#P newex 207 130 27 196617 t b f;
#N comlet High Shelf Boost \, Cut (-30 dB - 30 dB);
#P inlet 207 77 15 0;
#P newex 133 127 27 196617 t b f;
#P newex 274 103 72 196617 clip 0. 22050.;
#N comlet High Shelf Cutoff Frequency (float) Hz;
#P inlet 274 77 15 0;
#N comlet Low Shelf Cutoff Frequency (float) Hz;
#P inlet 133 77 15 0;
#P newex 133 103 72 196617 clip 0. 22050.;
#P connect 13 0 12 0;
#P connect 12 0 15 0;
#P connect 8 0 9 0;
#P connect 4 0 10 0;
#P connect 6 0 10 0;
#P connect 9 0 10 0;
#P connect 16 0 10 0;
#P connect 10 0 12 1;
#P connect 10 1 12 2;
#P connect 1 0 0 0;
#P connect 0 0 4 0;
#P connect 6 1 10 2;
#P connect 10 2 12 3;
#P connect 5 0 7 0;
#P connect 7 0 6 0;
#P connect 4 1 10 3;
#P connect 10 3 12 4;
#P connect 16 1 10 4;
#P connect 10 4 12 5;
#P connect 2 0 3 0;
#P connect 3 0 16 0;
#P connect 4 1 22 0;
#P connect 22 0 20 0;
#P connect 16 1 22 1;
#P connect 22 1 21 0;
#P pop;
