max v2;
#N vpatcher 125 98 534 473;
#P window setfont "Sans Serif" 9.;
#P window linecount 1;
#N vpatcher 42 167 363 406;
#P window setfont "Sans Serif" 9.;
#P newex 123 58 27 196617 t b f;
#P newex 48 58 27 196617 t b f;
#P newex 167 131 27 196617 f;
#P newex 29 129 27 196617 f;
#P outlet 167 184 15 0;
#P outlet 29 184 15 0;
#P message 65 100 70 196617 set \$1 22050;
#P inlet 29 36 15 0;
#P message 140 100 45 196617 set 0 \$1;
#P inlet 167 36 15 0;
#P newex 29 154 60 196617 clip 0. 100.;
#P newex 167 154 90 196617 clip 5000. 22050.;
#P connect 4 0 8 0;
#P connect 11 0 8 0;
#P connect 3 0 1 0;
#P connect 8 0 1 0;
#P connect 1 0 6 0;
#P connect 4 0 10 0;
#P connect 10 1 5 0;
#P connect 2 0 11 0;
#P connect 11 1 3 0;
#P connect 10 0 9 0;
#P connect 2 0 9 0;
#P connect 5 0 0 0;
#P connect 9 0 0 0;
#P connect 0 0 7 0;
#P pop;
#P newobj 165 133 43 196617 p limit;
#P newex 154 249 27 196617 * 0.;
#P newex 115 249 27 196617 * 0.;
#P newex 77 249 27 196617 * 0.;
#N comlet Biquad Coefficient b1 (float);
#P outlet 233 274 15 0;
#N comlet Biquad Coefficient b2 (float);
#P outlet 272 274 15 0;
#N comlet Biquad Coefficient a0 (float);
#P outlet 77 274 15 0;
#N comlet Biquad Coefficient a1 (float);
#P outlet 115 274 15 0;
#N comlet Biquad Coefficient a2 (float);
#P outlet 154 274 15 0;
#P comment 56 227 19 196617 c0;
#P comment 233 290 19 196617 c1;
#P comment 272 290 19 196617 c2;
#P comment 77 290 19 196617 d0;
#P comment 115 290 19 196617 d1;
#P comment 154 290 19 196617 d2;
#N vpatcher 511 316 953 489;
#P window setfont "Sans Serif" 9.;
#P comment 16 137 19 196617 c0;
#P outlet 18 118 15 0;
#P newex 18 80 27 196617 * 0.;
#P newex 18 54 27 196617 * 0.;
#P comment 214 136 19 196617 c2;
#P comment 182 136 19 196617 c1;
#P outlet 184 117 15 0;
#P outlet 215 117 15 0;
#P newex 215 87 27 196617 * 0.;
#P newex 184 87 27 196617 + 0.;
#P newex 184 54 27 196617 t f f;
#P newex 272 62 142 196617 expr pow( 10. \\\, $f1 * 0.05);
#P comment 199 25 33 196617 a1 a2;
#P comment 33 27 33 196617 c1 c2;
#P comment 147 137 19 196617 d2;
#P comment 117 137 19 196617 d1;
#P comment 84 136 19 196617 d0;
#P comment 288 25 19 196617 Gh;
#P comment 100 27 33 196617 b1 b2;
#P inlet 184 25 15 0;
#P inlet 272 25 15 0;
#P inlet 232 25 15 0;
#P inlet 66 27 15 0;
#P inlet 18 27 15 0;
#P newex 86 54 40 196617 t b f f;
#P inlet 86 27 15 0;
#P inlet 134 27 15 0;
#P newex 86 87 27 196617 1.;
#P newex 117 87 27 196617 + 0.;
#P newex 148 87 27 196617 * 0.;
#P outlet 86 117 15 0;
#P outlet 148 117 15 0;
#P outlet 117 117 15 0;
#P connect 9 0 29 0;
#P connect 29 0 30 0;
#P connect 30 0 31 0;
#P connect 10 0 29 1;
#P connect 21 0 30 1;
#P connect 7 0 8 0;
#P connect 8 0 5 0;
#P connect 5 0 2 0;
#P connect 8 1 4 0;
#P connect 4 0 0 0;
#P connect 6 0 4 1;
#P connect 8 2 3 0;
#P connect 3 0 1 0;
#P connect 6 0 3 1;
#P connect 13 0 22 0;
#P connect 22 0 23 0;
#P connect 23 0 26 0;
#P connect 11 0 23 1;
#P connect 22 1 24 0;
#P connect 24 0 25 0;
#P connect 11 0 24 1;
#P connect 12 0 21 0;
#P pop;
#P newobj 77 209 208 196617 p product;
#P newex 225 82 27 196617 t b f;
#P newex 211 27 52 196617 dspstate~;
#N comlet High Transition Freq (int \, float) Hz;
#P inlet 198 67 15 0;
#P comment 198 53 17 196617 fh;
#P comment 165 53 15 196617 fl;
#N comlet Low Transition Freq (int \, float) Hz;
#P inlet 165 67 15 0;
#N vpatcher 490 288 841 655;
#P inlet 240 22 15 0;
#P window setfont "Sans Serif" 9.;
#P comment 52 131 19 196617 k1;
#P newex 72 155 27 196617 t f f;
#P newex 72 178 155 196617 expr tan($f2)/sqrt($f1);
#P newex 240 101 27 196617 t b f;
#P newex 217 152 63 196617 * 3.141593;
#P newex 217 129 50 196617 / 44100.;
#P newex 151 23 45 196617 loadbang;
#P newex 151 85 28 196617 f $2;
#P message 113 61 38 196617 set $1;
#P newex 182 85 28 196617 f $4;
#P inlet 72 22 15 0;
#P inlet 103 22 15 0;
#P newex 72 103 41 196617 - 0.;
#P newex 72 129 142 196617 expr pow( 10. \\\, $f1 * 0.05);
#P comment 206 270 19 196617 b1;
#P newex 96 268 109 196617 expr ($f1-1)/($f1+1);
#P comment 183 295 19 196617 c1;
#P comment 232 245 19 196617 a1;
#P newex 122 244 109 196617 expr ($f1-1)/($f1+1);
#P outlet 122 324 15 0;
#P outlet 96 324 15 0;
#P outlet 72 324 15 0;
#P inlet 217 22 15 0;
#P comment 52 179 19 196617 r1;
#P comment 37 224 33 196617 k1 r1;
#P newex 72 222 27 196617 * 1.;
#P newex 72 244 34 196617 t f f;
#P newex 72 200 110 196617 t f f f;
#P newex 72 293 110 196617 expr ($f1+1)/($f2+1);
#P connect 20 0 16 0;
#P connect 18 0 16 0;
#P connect 16 0 15 0;
#P connect 15 0 27 0;
#P connect 27 0 26 0;
#P connect 26 0 1 0;
#P connect 1 0 3 0;
#P connect 3 0 2 0;
#P connect 2 0 0 0;
#P connect 0 0 7 0;
#P connect 27 1 3 1;
#P connect 2 1 13 0;
#P connect 13 0 8 0;
#P connect 21 0 16 1;
#P connect 17 0 16 1;
#P connect 22 0 20 0;
#P connect 1 1 10 0;
#P connect 10 0 9 0;
#P connect 22 0 21 0;
#P connect 1 2 0 1;
#P connect 22 0 19 0;
#P connect 25 0 23 0;
#P connect 19 0 23 0;
#P connect 6 0 23 0;
#P connect 23 0 24 0;
#P connect 24 0 26 1;
#P connect 29 0 25 0;
#P connect 25 1 23 1;
#P pop;
#P newobj 77 161 142 196617 p low;
#N comlet Middle Boost \, Cut (int \, float) dB;
#P inlet 110 67 15 0;
#P comment 107 53 22 196617 Gm;
#N vpatcher 430 293 793 659;
#P inlet 239 20 15 0;
#P window setfont "Sans Serif" 9.;
#P comment 184 290 19 196617 c2;
#P comment 207 266 19 196617 b2;
#P comment 233 242 19 196617 a2;
#P newex 189 80 28 196617 f $5;
#P comment 38 220 33 196617 k2 r2;
#P comment 53 175 19 196617 r2;
#P comment 53 127 19 196617 k2;
#P newex 239 95 27 196617 t b f;
#P message 117 63 38 196617 set $2;
#P newex 159 80 28 196617 f $3;
#P newex 159 28 45 196617 loadbang;
#P inlet 216 19 15 0;
#P inlet 105 18 15 0;
#P inlet 73 18 15 0;
#P newex 73 98 42 196617 - 0.;
#P newex 73 289 110 196617 expr ($f1+1)/($f2+1);
#P newex 73 196 111 196617 t f f f;
#P newex 73 240 34 196617 t f f;
#P newex 73 218 27 196617 * 1.;
#P newex 123 240 109 196617 expr ($f1-1)/($f1+1);
#P newex 97 264 109 196617 expr ($f1-1)/($f1+1);
#P newex 73 125 142 196617 expr pow( 10. \\\, $f1 * 0.05);
#P newex 216 125 50 196617 / 44100.;
#P newex 216 151 63 196617 * 3.141593;
#P newex 73 174 153 196617 expr tan($f2)/sqrt($f1);
#P newex 73 151 27 196617 t f f;
#P outlet 73 324 15 0;
#P outlet 97 324 15 0;
#P outlet 123 324 15 0;
#P connect 20 0 14 0;
#P connect 15 0 14 0;
#P connect 14 0 7 0;
#P connect 7 0 3 0;
#P connect 3 0 4 0;
#P connect 4 0 12 0;
#P connect 12 0 10 0;
#P connect 10 0 11 0;
#P connect 11 0 13 0;
#P connect 13 0 2 0;
#P connect 3 1 10 1;
#P connect 11 1 8 0;
#P connect 8 0 1 0;
#P connect 19 0 14 1;
#P connect 16 0 14 1;
#P connect 18 0 20 0;
#P connect 12 1 9 0;
#P connect 9 0 0 0;
#P connect 18 0 19 0;
#P connect 12 2 13 1;
#P connect 18 0 25 0;
#P connect 25 0 6 0;
#P connect 21 0 6 0;
#P connect 17 0 6 0;
#P connect 6 0 5 0;
#P connect 5 0 4 1;
#P connect 29 0 21 0;
#P connect 21 1 6 1;
#P pop;
#P newobj 110 185 143 196617 p high;
#P comment 140 53 19 196617 Gh;
#N comlet High Boost \, Cut (int \, float) dB;
#P inlet 141 67 15 0;
#P comment 77 54 17 196617 Gl;
#N comlet Low Boost \, Cut (int \, float) dB;
#P inlet 77 68 15 0;
#P newex 77 117 46 196617 f $1;
#P newex 77 138 27 196617 t f b;
#P connect 2 0 1 0;
#P fasten 15 0 1 0 230 108 82 108;
#P connect 1 0 0 0;
#P connect 0 0 9 0;
#P connect 9 0 16 0;
#P connect 16 0 28 0;
#P connect 28 0 25 0;
#P connect 16 1 28 1;
#P connect 8 0 6 0;
#P connect 0 1 6 0;
#P connect 6 0 16 1;
#P connect 16 0 29 0;
#P connect 29 0 24 0;
#P connect 8 0 9 1;
#P connect 16 2 29 1;
#P connect 9 1 16 2;
#P connect 4 0 6 1;
#P connect 16 0 30 0;
#P connect 30 0 23 0;
#P connect 10 0 31 0;
#P connect 31 0 9 2;
#P connect 16 3 30 1;
#P connect 6 1 16 3;
#P connect 13 0 31 1;
#P connect 31 1 6 2;
#P connect 15 1 9 3;
#P connect 9 2 16 4;
#P connect 14 1 15 0;
#P connect 16 4 27 0;
#P connect 15 1 6 3;
#P connect 6 2 16 5;
#P connect 16 5 26 0;
#P connect 4 0 16 6;
#P pop;
