max v2;#N vpatcher 547 130 962 624;#P origin -655 -1045;#P user hint 5 19 86 35 "Track Name" 1000 100 0 65535 65535 52428 9 3 0 1 0 0 0;#P user hint 5 335 89 358 "Track volume (dB) and meter" 1000 100 0 65535 65535 52428 9 3 0 1 0 0 0;#P user hint 5 172 90 188 "Visualisation (gain / position)" 1000 100 0 65535 65535 52428 9 3 0 1 0 0 0;#P user hint 70 154 90 171 "Enable recording for this track in holo-edit" 1000 100 0 65535 65535 52428 9 3 0 1 0 0 0;#P user hint 6 155 70 171 "Choose the way holo-edit will control this track" 1000 100 0 65535 65535 52428 9 3 0 1 0 0 0;#P user hint 6 139 48 152 "Solo button" 1000 100 0 65535 65535 52428 9 3 0 1 0 0 0;#P user hint 48 138 90 151 On/Off 1000 100 0 65535 65535 52428 9 3 0 1 0 0 0;#P user hint 48 121 90 134 "Send input to a bus (prefader)" 1000 100 0 65535 65535 52428 9 3 0 1 0 0 0;#P user hint 47 103 89 116 "Set loop on/off" 1000 100 0 65535 65535 52428 9 3 0 1 0 0 0;#P user hint 6 103 48 116 "Set doppler on/off" 1000 100 0 65535 65535 52428 9 3 0 1 0 0 0;#P user hint 7 70 88 87 "Choose a sound" 1000 100 0 65535 65535 52428 9 3 0 1 0 0 0;#P user hint 7 54 87 70 "Choose one sound to add to the sound menu" 1000 100 0 65535 65535 52428 9 3 0 1 0 0 0;#P user hint 7 35 88 55 "Choose input for current track (soundfile / inputpatch)" 1000 100 0 65535 65535 52428 9 3 0 1 0 0 0;#P window setfont "Sans Serif" 9.;#P hidden newex 102 148 82 196617 sw $1recEnable;#B color 5;#P user led 71 154 17 17 0 150;#P objectname recenable;#P hidden newex 99 171 54 196617 r all-visu;#B color 5;#P hidden message 220 172 14 196617 0;#P hidden newex 220 191 54 196617 s $1visu;#B color 5;#P hidden newex 164 191 54 196617 s $1clear;#B color 5;#P hidden newex 164 150 50 196617 loadbang;#P user ubumenu 5 172 85 196617 0 1 1 1;#X setrgb 255 255 255 50 50 50 116 116 116 4 4 4 141 141 141 112 112 112;#X add gain control;#X add position control;#X prefix_set 0 0 <none> 0;#X pattrmode 1;#N vpatcher 555 313 776 453;#P origin 0 -293;#P window setfont "Sans Serif" 9.;#P newex 110 56 80 196617 r clearbargrafs;#B color 5;#P newex 91 34 98 196617 r $1sf;#B color 14;#P newex 11 34 77 196617 sw $1vol128;#B color 5;#P inlet 11 14 15 0;#P outlet 91 83 15 0;#P outlet 11 83 15 0;#P connect 2 0 3 0;#P connect 3 0 0 0;#P fasten 5 0 1 0 115 78 96 78;#P connect 4 0 1 0;#P pop;#P hidden newobj 99 341 90 196617 p pt-gain-sets $1;#P user hslider 16 337 10 49 159 1 0 0;#P user bargraf~ 9 345 12 78 50 0 0 0 0 45 45 45 0 186 0 77 202 0 124 225 0 255 255 0 255 0 0 45 45 45 45 45 45 222 222 222 0 0 0 45 45 45 12 1;#N vpatcher 10 59 749 477;#P window setfont "Sans Serif" 9.;#P window linecount 0;#P newex 157 210 38 196617 == $1;#P newex 50 117 98 196617 sw $1bus-out;#B color 5;#P inlet 194 31 15 0;#P inlet 334 31 15 0;#P inlet 50 31 15 0;#P outlet 157 355 15 0;#P outlet 334 355 15 0;#P outlet 50 355 15 0;#P message 157 290 52 196617 toggle \$1;#P newex 157 117 27 196617 + 1;#P newex 157 140 47 196617 gate 2 1;#P window linecount 1;#P newex 157 94 38 196617 == $1;#P newex 157 72 36 196617 r solo;#B color 5;#P newex 227 257 29 196617 gate;#P newex 227 201 38 196617 == $1;#P newex 227 178 36 196617 r solo;#B color 5;#P newex 227 279 41 196617 sel 1 0;#P newex 246 222 68 196617 r solo-metro;#B color 5;#P message 194 163 21 196617 -1;#P newex 194 51 64 196617 route toggle;#P message 157 163 21 196617 $1;#P window linecount 0;#P newex 157 186 44 196617 sw solo;#B color 5;#P message 227 321 70 196617 rgb3 200 0 0;#P window linecount 1;#P message 242 301 70 196617 rgb3 255 0 0;#P window linecount 0;#P newex 403 91 77 196617 r $1swi;#B color 5;#P newex 334 113 62 196617 sw $1swi;#B color 5;#P message 418 134 161 196617 frgb 255 255 255 \, setitem 0 OFF;#P message 403 154 121 196617 frgb 0 0 0 \, setitem 0 ON;#P newex 403 113 41 196617 sel 1 0;#P newex 334 91 62 196617 route toggle;#P message 334 135 51 196617 toggle \$1;#P window linecount 1;#P newex 593 128 106 196617 sw $1holo.control;#B color 5;#P inlet 593 30 15 0;#P outlet 593 355 15 0;#P connect 29 0 32 0;#P connect 32 0 26 0;#P connect 21 0 22 0;#P connect 22 0 24 0;#P connect 24 0 23 0;#P connect 23 0 13 0;#P connect 13 0 12 0;#P fasten 15 0 12 0 199 182 162 182;#P connect 12 0 33 0;#P connect 33 0 25 0;#P connect 25 0 28 0;#P fasten 10 0 28 0 247 348 162 348;#P fasten 11 0 28 0 232 348 162 348;#P connect 31 0 14 0;#P connect 14 0 23 1;#P connect 23 1 15 0;#P connect 18 0 19 0;#P connect 19 0 20 0;#P connect 20 0 17 0;#P connect 17 0 11 0;#P connect 17 1 10 0;#P connect 16 0 20 1;#P connect 30 0 4 0;#P connect 4 0 8 0;#P connect 8 0 3 0;#P connect 3 0 27 0;#P fasten 6 0 27 0 408 182 339 182;#P fasten 7 0 27 0 423 182 339 182;#P connect 9 0 5 0;#P connect 5 0 6 0;#P connect 5 1 7 0;#P connect 1 0 2 0;#P connect 2 0 0 0;#P pop;#P hidden newobj 96 120 112 196617 p control-sets $1;#P user ubumenu 5 137 41 196617 1 0 1 1;#X setrgb 255 255 255 0 0 0 116 116 116 0 0 0 200 0 0 45 45 45;#X add solo;#X prefix_set 0 0 <none> 0;#X pattrmode 1;#P user ubumenu 47 137 42 196617 1 0 1 1;#X setrgb 255 255 255 0 0 0 116 116 116 0 0 0 0 200 0 45 45 45;#X add OFF;#X prefix_set 0 0 <none> 0;#X pattrmode 1;#P objectname on;#P hidden user ubumenu 49 100 37 196617 1 0 1 1;#X setrgb 255 255 255 25 25 25 116 116 116 4 4 4 222 222 222 45 45 45;#X add Loop;#X prefix_set 0 0 <none> 0;#X pattrmode 1;#P objectname loop;#N vpatcher 10 59 955 269;#P window setfont "Sans Serif" 9.;#P window linecount 1;#P newex 118 62 98 196617 s $1openFile;#B color 5;#P newex 118 37 47 196617 sel 0;#P newex 8 62 106 196617 sw $1audio-input;#B color 5;#P newex 433 122 27 196617 / 60;#P newex 463 122 30 196617 % 60;#P newex 496 122 30 196617 % 60;#P newex 463 94 31 196617 / 60;#P newex 463 70 41 196617 / 1000;#P newex 463 49 54 196617 r $1durfil;#B color 5;#P inlet 8 13 15 0;#P inlet 219 13 15 0;#P inlet 118 13 15 0;#P inlet 738 13 15 0;#P inlet 548 13 15 0;#P outlet 8 145 15 0;#P outlet 219 145 15 0;#P outlet 433 145 15 0;#P outlet 463 145 15 0;#P outlet 496 145 15 0;#P outlet 738 145 15 0;#P outlet 548 145 15 0;#P window linecount 0;#P newex 626 51 77 196617 r $1doppler;#B color 5;#P newex 548 73 75 196617 sw $1doppler;#B color 5;#P message 641 95 92 196617 frgb 255 255 255;#P message 626 114 56 196617 frgb 0 0 0;#P newex 626 73 41 196617 sel 1 0;#P newex 548 51 62 196617 route toggle;#P message 548 95 51 196617 toggle \$1;#P newex 815 51 77 196617 r $1sfloop;#B color 5;#P newex 738 73 75 196617 sw $1sfloop;#B color 5;#P message 830 95 92 196617 frgb 255 255 255;#P message 815 114 56 196617 frgb 0 0 0;#P newex 815 73 41 196617 sel 1 0;#P newex 738 51 62 196617 route toggle;#P message 738 95 51 196617 toggle \$1;#P window linecount 1;#P newex 333 82 85 196617 r filemenu;#B color 5;#P newex 219 82 61 196617 route $1;#P window linecount 0;#P newex 219 37 61 196617 prepend $1;#P newex 219 62 85 196617 sw menuitem;#B color 5;#P message 310 56 135 196617 clearchecks \, checkitem \$1 1;#P connect 30 0 37 0;#P connect 37 0 25 0;#P connect 28 0 38 0;#P connect 38 0 39 0;#P connect 29 0 2 0;#P connect 2 0 1 0;#P connect 1 0 3 0;#P fasten 3 0 24 0 224 112 224 112;#P fasten 0 0 24 0 315 104 224 104;#P fasten 4 0 24 0 338 104 224 104;#P fasten 29 0 0 0 224 33 315 33;#P fasten 33 0 36 0 468 116 438 116;#P connect 36 0 23 0;#P connect 31 0 32 0;#P connect 32 0 33 0;#P connect 33 0 35 0;#P connect 35 0 22 0;#P fasten 32 0 34 0 468 90 501 90;#P connect 34 0 21 0;#P connect 26 0 13 0;#P connect 13 0 17 0;#P connect 17 0 12 0;#P connect 12 0 19 0;#P fasten 16 0 19 0 646 135 553 135;#P fasten 15 0 19 0 631 135 553 135;#P connect 18 0 14 0;#P connect 14 0 15 0;#P connect 14 1 16 0;#P connect 27 0 6 0;#P connect 6 0 10 0;#P connect 10 0 5 0;#P fasten 8 0 20 0 820 135 743 135;#P fasten 9 0 20 0 835 135 743 135;#P connect 5 0 20 0;#P connect 11 0 7 0;#P connect 7 0 8 0;#P connect 7 1 9 0;#P pop;#P hidden newobj 96 75 112 196617 p file-sets $1;#P user ubumenu 7 100 43 196617 1 0 1 1;#X setrgb 255 255 255 25 25 25 116 116 116 4 4 4 222 222 222 45 45 45;#X add Doppler;#X prefix_set 0 0 <none> 0;#X pattrmode 1;#P objectname doppler;#P user ubumenu 5 154 66 196617 0 1 1 1;#X setrgb 0 0 0 222 222 222 150 150 150 4 4 4 141 141 141 112 112 112;#X add off;#X add position;#X add sound;#X add sound+position;#X prefix_set 0 0 <none> 0;#X pattrmode 1;#P objectname control;#N vpatcher 163 135 620 320;#P window setfont "Sans Serif" 9.;#P newex 291 75 32 196617 sel 0;#P newex 291 97 106 196617 s $1reset;#B color 5;#P inlet 291 54 15 0;#P newex 123 96 69 196617 prepend rgb3;#P newex 50 96 68 196617 prepend brgb;#P newex 50 73 94 196617 route brgb;#P newex 50 50 98 196617 r $1color;#B color 5;#P newex 194 96 91 196617 prepend setitem 0;#P newex 194 73 51 196617 route set;#P newex 194 50 54 196617 r $1name;#B color 5;#P outlet 50 118 15 0;#P connect 4 0 5 0;#P connect 5 0 6 0;#P fasten 3 0 0 0 199 115 55 115;#P fasten 7 0 0 0 128 115 55 115;#P connect 6 0 0 0;#P fasten 5 0 7 0 55 93 128 93;#P connect 1 0 2 0;#P connect 2 0 3 0;#P connect 8 0 10 0;#P connect 10 0 9 0;#P pop;#P hidden newobj 96 13 112 196617 p name/color-sets $1;#P user ubumenu 4 20 83 196617 1 0 1 1;#X setrgb 255 255 255 255 0 0 116 116 116 4 4 4 255 0 0 0 0 255;#X add blou;#X prefix_set 0 0 <none> 0;#X pattrmode 1;#N vpatcher 10 59 192 253;#P window setfont "Sans Serif" 9.;#P window linecount 1;#P newex 99 104 64 196617 s folderpath;#B color 5;#P newex 9 148 85 196617 s $1dropFile;#B color 5;#P window linecount 0;#P newex 9 106 30 196617 t b s;#P newex 29 128 75 196617 s path-openfile;#B color 5;#P newex 9 82 130 196617 route WAVE Sd2f AIFF fold;#P newex 47 32 62 196617 prepend set;#P newex 9 58 62 196617 prepend set;#P inlet 47 13 15 0;#P inlet 9 13 15 0;#P connect 0 0 2 0;#P fasten 3 0 2 0 52 52 14 52;#P connect 2 0 4 0;#P fasten 4 2 6 0 74 102 14 102;#P fasten 4 1 6 0 44 102 14 102;#P fasten 4 0 6 0 14 102 14 102;#P connect 6 0 7 0;#P connect 6 1 5 0;#P connect 1 0 3 0;#P connect 4 3 8 0;#P pop;#P hidden newobj 0 366 90 196617 p drop-file $1;#P hidden newex 96 42 60 196617 autopattr;#X prestore audio-in 1 0 audiofile;#X prestore bussend 1 0 ÊOFF;#X prestore chosen-snd 1 0 blips_flangeshift-120bpm.aif;#X prestore control 1 0 sound+position;#X prestore doppler 2 0 Doppler 0;#X prestore loop 2 0 Loop 0;#X prestore on 2 0 OFF 0;#X prestore recenable 1 0 0;#P objectname u776000235;#N vpatcher 20 74 422 400;#P origin 0 -17;#P window setfont "Sans Serif" 9.;#P window linecount 1;#P message 325 214 26 196617 hide;#P newex 289 235 76 196617 append doppler;#P message 289 214 33 196617 show;#P newex 289 193 46 196617 sel 0;#P newex 289 171 84 196617 r $1audio-input;#B color 5;#P newex 41 61 27 196617 >= 2;#P newex 41 39 84 196617 r $1holo.control;#B color 5;#P newex 41 83 27 196617 t b i;#P newex 10 106 58 196617 ||;#P window linecount 0;#P newex 10 39 27 196617 != 0;#P window linecount 1;#P newex 10 151 29 196617 b;#P window linecount 0;#N vpatcher 10 59 162 235;#P window setfont "Sans Serif" 9.;#P newex 11 37 62 196617 t b s;#P newex 63 58 63 196617 prepend set;#P newex 41 105 63 196617 prepend hide;#P newex 41 80 63 196617 sprintf c%d;#P newex 11 58 40 196617 uzi 6;#P inlet 11 17 15 0;#P outlet 41 127 15 0;#P connect 1 0 6 0;#P connect 6 0 2 0;#P connect 2 2 3 0;#P fasten 5 0 4 0 68 101 46 101;#P connect 3 0 4 0;#P connect 4 0 0 0;#P connect 6 1 5 0;#P pop;#P newobj 107 234 110 196617 p show/hide filelength;#P window linecount 1;#P message 29 173 33 196617 show;#P message 107 173 26 196617 hide;#P outlet 10 285 15 0;#P window linecount 0;#P message 10 211 205 196617 show chosen-snd \, show open-snd \, show loop;#P newex 10 261 75 196617 prepend script;#P newex 88 151 29 196617 b;#P newex 10 129 88 196617 sel 0;#P message 88 193 195 196617 hide chosen-snd \, hide open-snd \, hide loop;#P newex 10 17 84 196617 r $1audio-input;#B color 5;#P connect 0 0 11 0;#P connect 11 0 12 0;#P fasten 13 0 12 0 46 103 15 103;#P connect 12 0 2 0;#P connect 2 0 10 0;#P connect 10 0 5 0;#P fasten 19 0 4 0 294 255 15 255;#P fasten 9 0 4 0 112 255 15 255;#P connect 1 0 4 0;#P connect 5 0 4 0;#P connect 4 0 6 0;#P connect 10 1 8 0;#P connect 14 0 15 0;#P connect 15 0 13 0;#P connect 13 1 12 1;#P connect 2 1 3 0;#P connect 3 0 1 0;#P connect 3 1 7 0;#P connect 8 0 9 0;#P connect 7 0 9 0;#P connect 16 0 17 0;#P connect 17 0 18 0;#P connect 18 0 19 0;#P fasten 20 0 19 0 330 232 294 232;#P connect 17 1 20 0;#P pop;#P hidden newobj 130 251 94 196617 p disable_menu $1;#P window setfont "Sans Serif" 18.;#N vpatcher 336 334 1350 783;#P origin 0 -50;#P window setfont "Sans Serif" 9.;#P window linecount 0;#N vpatcher 20 74 657 409;#P origin 5 0;#P window setfont "Sans Serif" 9.;#P window linecount 1;#P newex 454 130 44 196617 sw $1z;#B color 5;#P newex 390 196 61 196617 pak 0. 0. 0.;#P newex 390 77 76 196617 unpack 0. 0. 0.;#P newex 390 55 56 196617 sw $1xyz;#B color 5;#P newex 423 160 45 196617 sw $1y;#B color 5;#P newex 390 135 45 196617 sw $1x;#B color 5;#P newex 180 193 77 196617 pak 0. 0. 0.;#P window linecount 0;#P newex 180 74 76 196617 unpack 0. 0. 0.;#P window linecount 1;#P newex 180 52 54 196617 sw $1adz;#B color 5;#P newex 213 157 44 196617 sw $1d;#B color 5;#P newex 180 132 44 196617 sw $1a;#B color 5;#P newex 30 135 65 196617 holo.pol2car;#P newex 30 61 56 196617 sw $1xyz;#B color 5;#P window linecount 0;#P newex 30 114 54 196617 sw $1adz;#B color 5;#P window linecount 1;#P newex 30 87 65 196617 holo.car2pol;#P window linecount 2;#P comment 18 399 230 196617 spat pos "ntroled by holo-edit or holo-files if ((#1holo.control = pos || snd+pos) && !record)";#P fasten 4 0 3 0 35 166 110 166 110 43 35 43;#P connect 3 0 1 0;#P connect 1 0 2 0;#P connect 2 0 4 0;#P fasten 9 0 7 0 185 224 307 224 307 47 185 47;#P connect 7 0 8 0;#P connect 8 0 5 0;#P connect 5 0 9 0;#P connect 8 1 6 0;#P connect 6 0 9 1;#P fasten 14 0 12 0 395 233 529 233 529 34 395 34;#P connect 12 0 13 0;#P connect 13 0 10 0;#P connect 10 0 14 0;#P connect 11 0 14 1;#P connect 13 1 11 0;#P connect 15 0 14 2;#P connect 13 2 15 0;#P pop;#P newobj 349 384 110 196617 p conv $1;#P hidden newex 821 338 64 196617 r all-record;#B color 5;#P hidden newex 821 361 82 196617 s $1recEnable;#B color 5;#P newex 656 377 21 196617 t 0;#P window linecount 1;#P newex 656 356 32 196617 sel 0;#P window linecount 0;#P newex 525 378 75 196617 s $1doppler;#B color 5;#N vpatcher 10 59 985 334;#P window setfont "Sans Serif" 9.;#P newex 465 50 71 196617 sw $1d;#B color 5;#P newex 547 8 61 196617 r $1dMid;#B color 5;#P newex 465 30 92 196617 link 0 127 0. 10.;#P newex 465 119 44 196617 sw $1a;#B color 5;#P newex 547 77 61 196617 r $1tMid;#B color 5;#P newex 465 99 92 196617 link 0 127 0. 360.;#P newex 465 192 71 196617 sw $1z;#B color 5;#P newex 547 150 61 196617 r $1zMid;#B color 5;#P newex 465 172 92 196617 link 0 127 0. 100.;#P newex 367 125 82 196617 r $1auxpreMid;#B color 5;#P newex 367 147 82 196617 s $1pre;#B color 5;#P newex 367 75 82 196617 r $1dopplerMid;#B color 5;#P newex 367 100 82 196617 s $1doppler;#B color 5;#P newex 367 25 82 196617 r $1onMid;#B color 5;#P newex 367 50 82 196617 s $1swi;#B color 5;#P newex 186 51 71 196617 sw $1rev128;#B color 5;#P newex 268 9 61 196617 r $1revMid;#B color 5;#P newex 186 31 92 196617 link 0 127 0. 158.;#P newex 186 120 71 196617 sw $1aux128;#B color 5;#P newex 268 78 61 196617 r $1auxMid;#B color 5;#P newex 186 100 92 196617 link 0 127 0. 158.;#P newex 186 193 71 196617 sw $1vol128;#B color 5;#P newex 268 151 61 196617 r $1volMid;#B color 5;#P newex 186 173 92 196617 link 0 127 0. 158.;#N vpatcher 702 147 1159 378;#P window setfont "Sans Serif" 9.;#P window linecount 0;#P newex 85 78 21 196617 t 1;#P newex 64 78 21 196617 t 0;#P newex 64 37 53 196617 sel 0 128;#P window linecount 1;#P newex 64 154 34 196617 atodb;#P newex 25 37 34 196617 dbtoa;#P outlet 106 181 15 0;#P inlet 64 15 15 0;#P outlet 64 181 15 0;#P inlet 25 16 15 0;#P newex 106 154 279 196617 expr ln($f1/($f3 * exp(-$f2 * log($f4))))/log($f4);#P newex 106 78 277 196617 expr $f3 * exp(-$f2 * log($f4)) * exp($f1 * log($f4));#P newex 195 28 48 196617 loadbang;#P message 373 57 55 196617 1.071519;#P message 284 57 49 196617 7.94231;#P message 195 57 26 196617 158;#P connect 6 0 10 0;#P connect 8 0 12 0;#P connect 12 0 13 0;#P fasten 13 0 11 0 69 128 69 128;#P fasten 14 0 11 0 90 103 69 103;#P fasten 4 0 11 0 111 103 69 103;#P connect 11 0 7 0;#P connect 12 1 14 0;#P connect 12 2 4 0;#P fasten 10 0 5 0 30 127 62 127 62 120 74 120 74 126 111 126;#P connect 5 0 9 0;#P connect 3 0 0 0;#P connect 0 0 4 1;#P connect 0 0 5 1;#P fasten 3 0 1 0 200 51 289 51;#P connect 1 0 4 2;#P connect 1 0 5 2;#P fasten 3 0 2 0 200 51 378 51;#P connect 2 0 4 3;#P connect 2 0 5 3;#P pop;#P newobj 16 9 60 196617 p db<->128;#P newex 66 31 93 196617 sw $1rev128;#B color 5;#P newex 16 51 93 196617 sw $1revdb;#B color 5;#N vpatcher 702 147 1159 378;#P window setfont "Sans Serif" 9.;#P window linecount 0;#P newex 85 78 21 196617 t 1;#P newex 64 78 21 196617 t 0;#P newex 64 37 53 196617 sel 0 128;#P window linecount 1;#P newex 64 154 34 196617 atodb;#P newex 25 37 34 196617 dbtoa;#P outlet 106 181 15 0;#P inlet 64 15 15 0;#P outlet 64 181 15 0;#P inlet 25 16 15 0;#P newex 106 154 279 196617 expr ln($f1/($f3 * exp(-$f2 * log($f4))))/log($f4);#P newex 106 78 277 196617 expr $f3 * exp(-$f2 * log($f4)) * exp($f1 * log($f4));#P newex 195 28 48 196617 loadbang;#P message 373 57 55 196617 1.071519;#P message 284 57 49 196617 7.94231;#P message 195 57 26 196617 158;#P connect 6 0 10 0;#P connect 8 0 12 0;#P connect 12 0 13 0;#P fasten 13 0 11 0 69 128 69 128;#P fasten 14 0 11 0 90 103 69 103;#P fasten 4 0 11 0 111 103 69 103;#P connect 11 0 7 0;#P connect 12 1 14 0;#P connect 12 2 4 0;#P fasten 10 0 5 0 30 127 62 127 62 120 74 120 74 126 111 126;#P connect 5 0 9 0;#P connect 3 0 0 0;#P connect 0 0 4 1;#P connect 0 0 5 1;#P fasten 3 0 1 0 200 51 289 51;#P connect 1 0 4 2;#P connect 1 0 5 2;#P fasten 3 0 2 0 200 51 378 51;#P connect 2 0 4 3;#P connect 2 0 5 3;#P pop;#P newobj 16 78 60 196617 p db<->128;#P newex 66 100 93 196617 sw $1aux128;#B color 5;#P newex 16 120 93 196617 sw $1auxdb;#B color 5;#N vpatcher 702 147 1159 378;#P window setfont "Sans Serif" 9.;#P window linecount 0;#P newex 85 78 21 196617 t 1;#P newex 64 78 21 196617 t 0;#P newex 64 37 53 196617 sel 0 128;#P window linecount 1;#P newex 64 154 34 196617 atodb;#P newex 25 37 34 196617 dbtoa;#P outlet 106 181 15 0;#P inlet 64 15 15 0;#P outlet 64 181 15 0;#P inlet 25 16 15 0;#P newex 106 154 279 196617 expr ln($f1/($f3 * exp(-$f2 * log($f4))))/log($f4);#P newex 106 78 277 196617 expr $f3 * exp(-$f2 * log($f4)) * exp($f1 * log($f4));#P newex 195 28 48 196617 loadbang;#P message 373 57 55 196617 1.071519;#P message 284 57 49 196617 7.94231;#P message 195 57 26 196617 158;#P connect 6 0 10 0;#P connect 8 0 12 0;#P connect 12 0 13 0;#P fasten 13 0 11 0 69 128 69 128;#P fasten 14 0 11 0 90 103 69 103;#P fasten 4 0 11 0 111 103 69 103;#P connect 11 0 7 0;#P connect 12 1 14 0;#P connect 12 2 4 0;#P fasten 10 0 5 0 30 127 62 127 62 120 74 120 74 126 111 126;#P connect 5 0 9 0;#P connect 3 0 0 0;#P connect 0 0 4 1;#P connect 0 0 5 1;#P fasten 3 0 1 0 200 51 289 51;#P connect 1 0 4 2;#P connect 1 0 5 2;#P fasten 3 0 2 0 200 51 378 51;#P connect 2 0 4 3;#P connect 2 0 5 3;#P pop;#P newobj 16 151 60 196617 p db<->128;#P newex 66 173 93 196617 sw $1vol128;#B color 5;#P newex 16 193 93 196617 sw $1voldb;#B color 5;#P connect 6 0 8 0;#P connect 8 0 6 0;#P connect 3 0 5 0;#P connect 5 0 3 0;#P connect 0 0 2 0;#P connect 2 0 0 0;#P connect 7 0 8 1;#P connect 8 1 7 0;#P connect 4 0 5 1;#P connect 5 1 4 0;#P connect 1 0 2 1;#P connect 2 1 1 0;#P connect 17 0 15 0;#P connect 15 0 17 0;#P connect 14 0 12 0;#P connect 12 0 14 0;#P connect 11 0 9 0;#P connect 9 0 11 0;#P connect 16 0 15 1;#P connect 13 0 12 1;#P connect 10 0 9 1;#P connect 19 0 18 0;#P connect 21 0 20 0;#P connect 23 0 22 0;#P connect 32 0 30 0;#P connect 30 0 32 0;#P connect 29 0 27 0;#P connect 27 0 29 0;#P connect 26 0 24 0;#P connect 24 0 26 0;#P connect 31 0 30 1;#P connect 28 0 27 1;#P connect 25 0 24 1;#P pop;#P newobj 349 363 110 196617 p midi-db-controls $1;#P newex 890 43 54 196617 r $1clear;#B color 5;#P newex 604 333 84 196617 s $1holo.control;#B color 5;#P newex 604 312 87 196617 r all-holo.control;#B color 5;#P newex 694 312 84 196617 r $1holo.control;#B color 5;#P newex 694 335 30 196617 <= 1;#P window linecount 1;#P newex 694 357 47 196617 gate;#P newex 878 247 61 196617 prepend $1;#P newex 878 225 54 196617 r $1color;#B color 5;#N coll paintcolor2 1;#T flags 1 0;#T 1 255 0 0;#T 2 0 0 255;#T 3 0 255 0;#T 4 124 124 0;#T 5 124 85 85;#T 6 255 200 0;#T 7 0 124 124;#T 8 255 0 255;#T 9 50 124 8;#T 10 60 120 8;#T 11 70 111 8;#T 12 80 100 8;#T 13 90 90 8;#T 14 99 80 8;#T 15 120 60 8;#T 16 150 40 8;#T 77 240 255 4;#P newobj 878 269 88 196617 coll paintcolor2 1;#N vpatcher 10 59 325 361;#P origin 27 0;#P window setfont "Sans Serif" 9.;#P newex 55 46 46 196617 r $1adz;#B color 5;#P message 181 213 84 196617 recenable $1 \$1;#P window linecount 1;#P newex 181 240 56 196617 s holo.edit;#B color 5;#P newex 181 186 74 196617 r $1recEnable;#B color 5;#P newex 55 195 94 196617 vgate $1recEnable;#P window linecount 0;#P newex 55 82 63 196617 speedlim 10;#P newex 83 129 74 196617 r currentTime;#B color 5;#P newex 55 151 38 196617 zl join;#P newex 55 107 65 196617 holo.pol2car;#P newex 55 217 68 196617 vgate record;#P newex 55 239 56 196617 s holo.edit;#B color 5;#P newex 55 172 79 196617 prepend rec $1;#P connect 11 0 6 0;#P connect 6 0 3 0;#P connect 3 0 4 0;#P connect 4 0 0 0;#P connect 0 0 7 0;#P connect 7 0 2 0;#P connect 2 0 1 0;#P connect 5 0 4 1;#P connect 8 0 10 0;#P connect 10 0 9 0;#P pop;#P newobj 349 321 110 196617 p holo-record $1;#P window linecount 0;#P newex 525 312 75 196617 r all-swi;#B color 5;#P newex 525 334 75 196617 s $1swi;#B color 5;#P newex 731 335 75 196617 r all-sfloop;#B color 5;#P newex 694 399 75 196617 s $1sfloop;#B color 5;#P newex 875 165 91 196617 prepend set Track;#P newex 875 189 54 196617 s $1name;#B color 5;#P newex 890 83 49 196617 route int;#P newex 890 145 85 196617 s $1color;#B color 5;#N coll brgbTranche 1;#T flags 1 0;#T 1 brgb 255 0 0;#T 2 brgb 0 0 255;#T 3 brgb 0 255 0;#T 4 brgb 124 124 0;#T 5 brgb 124 85 85;#T 6 brgb 255 200 0;#T 7 brgb 0 124 124;#T 8 brgb 255 0 255;#T 9 brgb 50 124 8;#T 10 brgb 60 120 8;#T 11 brgb 70 111 8;#T 12 brgb 80 100 8;#T 13 brgb 90 90 8;#T 14 brgb 99 80 8;#T 15 brgb 120 60 8;#T 16 brgb 150 40 8;#T 77 brgb 240 255 4;#P newobj 890 123 94 196617 coll brgbTranche 1;#P message 890 65 50 196617 $1;#P number 890 103 35 9 0 0 0 3 0 0 0 221 221 221 222 222 222 0 0 0;#P newex 693 78 54 196617 r $1init;#B color 5;#P newex 554 78 54 196617 r all-clear;#B color 5;#P window linecount 14;#P message 693 112 94 196617 \; $1swi 0 \; $1holo.control 0 \; $1sfloop 0 \; $1sfspeed 1 \; $1doppler 0 \; $1durfil 0 \; $1voldb 0 \; $1auxdb -100 \; $1revdb -100 \; $1audio-input 0 \; $1pre 0 \; $1bus-out 0 \; $1recEnable 0;#P window linecount 1;#P newex 749 78 54 196617 r all-init;#B color 5;#P window linecount 14;#P message 499 112 94 196617 \; $1swi 0 \; $1holo.control 0 \; $1sfloop 0 \; $1sfspeed 1 \; $1doppler 0 \; $1durfil 0 \; $1voldb -100 \; $1auxdb -100 \; $1revdb -100 \; $1audio-input 0 \; $1pre 0 \; $1bus-out 0 \; $1recEnable 0;#P window linecount 1;#P newex 357 21 76 196617 r $1reset;#B color 5;#P newex 360 127 76 196617 r $1toPos;#B color 5;#P newex 499 78 54 196617 r $1clear;#B color 5;#P newex 360 149 59 196617 t open bang;#P newex 360 171 50 196617 pcontrol;#N vpatcher 503 275 678 475;#P origin 0 -12;#P window setfont "Sans Serif" 9.;#P window linecount 1;#P hidden newex 122 37 40 196617 active;#P hidden newex 122 79 40 196617 gate;#P hidden newex 122 102 62 196617 sel 27 13 3;#P hidden newex 152 57 40 196617 key;#P window linecount 0;#P newex 115 281 27 196617 i;#P newex 191 155 53 196617 t b b 1 0;#P hidden newex 12 273 88 196617 bgcolor 50 50 50;#N thispatcher;#Q end;#P hidden newobj 13 252 60 196617 thispatcher;#P hidden button 36 75 15 0;#N vpatcher 10 59 252 207;#P window setfont "Sans Serif" 9.;#P newex 17 29 43 196617 togedge;#P newex 72 29 45 196617 loadbang;#P message 50 76 159 196617 window flags grow \, window exec;#P message 17 56 169 196617 window flags nogrow \, window exec;#P inlet 17 9 15 0;#P outlet 17 104 15 0;#P connect 1 0 5 0;#P fasten 4 0 2 0 77 51 22 51;#P connect 5 0 2 0;#P fasten 3 0 0 0 55 96 22 96;#P connect 2 0 0 0;#P connect 5 1 3 0;#P pop;#P hidden newobj 13 230 60 196617 p togBorder;#P newex 402 190 38 196617 active;#P newex 376 262 80 196617 s $1pos_cancel;#B color 5;#P newex 376 239 47 196617 gate 1 1;#P newex 413 216 53 196617 closebang;#P newex 202 72 91 196617 s $1pos_hpChoo;#B color 5;#P newex 284 155 104 196617 t b 1 b b 0;#P newex 284 131 80 196617 r $1pos_cancel;#B color 5;#P newex 316 215 34 196617 s $1d;#B color 5;#P newex 249 215 34 196617 s $1t;#B color 5;#P newex 316 193 64 196617 v $1pos_oD;#B color 5;#P newex 249 193 64 196617 v $1pos_oT;#B color 5;#P newex 202 43 37 196617 t -1 0;#P newex 427 313 35 196617 r dHP;#B color 5;#P newex 371 72 47 196617 gate 1 1;#P newex 299 72 47 196617 gate 1 1;#P newex 371 94 64 196617 v $1pos_oD;#B color 5;#P newex 299 94 64 196617 v $1pos_oT;#B color 5;#P newex 408 43 34 196617 r $1d;#B color 5;#P newex 336 43 34 196617 r $1t;#B color 5;#P newex 191 131 80 196617 r $1pos_ok;#B color 5;#P hidden newex 88 201 80 196617 s $1pos_ok;#B color 5;#P hidden newex 9 201 80 196617 s $1pos_cancel;#B color 5;#P newex 128 256 91 196617 r $1pos_hpChoo;#B color 5;#P newex 410 336 27 196617 f;#P newex 410 367 34 196617 s $1d;#B color 5;#P outlet 175 214 15 0;#P message 175 189 33 196617 close;#P user pictctrl 9 168 76 23 cancel 76 0 1 0 26 1 1 0 76 23 128 0 1 10 2 1 1 270;#P user pictctrl 88 168 76 23 ok 76 0 1 0 26 1 1 0 76 23 128 0 1 10 2 1 1 270;#P newex 115 304 301 196617 sel 0 1 2 3 4 5 6 7;#P message 151 337 35 196617 22.5;#P message 367 337 35 196617 292.5;#P message 331 337 35 196617 247.5;#P message 295 337 35 196617 202.5;#P message 259 337 35 196617 157.5;#P message 223 337 35 196617 112.5;#P message 187 337 35 196617 67.5;#P newex 115 367 34 196617 s $1t;#B color 5;#P message 115 337 35 196617 337.5;#P user radiogroup 61 30 18 32;#X size 8;#X offset 16;#X inactive 0;#X itemtype 0;#X flagmode 0;#X set -1;#X done;#P inlet 202 22 15 0;#P comment 13 9 149 196617 Select one output for this track;#B color 10;#P comment 76 144 30 196617 Spk 8;#B color 10;#P comment 76 128 30 196617 Spk 7;#B color 10;#P comment 76 112 30 196617 Spk 6;#B color 10;#P comment 76 96 30 196617 Spk 5;#B color 10;#P comment 76 80 30 196617 Spk 4;#B color 10;#P comment 76 64 30 196617 Spk 3;#B color 10;#P comment 76 48 30 196617 Spk 2;#B color 10;#P comment 76 32 30 196617 Spk 1;#B color 10;#P hidden newex 61 141 91 196617 sw $1pos_hpChoo;#B color 5;#P hidden connect 58 0 23 0;#P hidden connect 23 0 29 0;#P hidden connect 52 0 51 0;#P hidden connect 51 0 53 0;#P hidden connect 0 0 11 0;#P hidden connect 11 0 0 0;#P hidden connect 58 1 22 0;#P hidden connect 58 2 22 0;#P hidden connect 22 0 30 0;#P fasten 55 1 56 0 210 249 120 249;#P connect 28 0 56 0;#P connect 56 0 21 0;#P connect 21 0 12 0;#P fasten 20 0 13 0 156 359 120 359;#P fasten 19 0 13 0 372 359 120 359;#P fasten 18 0 13 0 336 359 120 359;#P fasten 17 0 13 0 300 359 120 359;#P fasten 16 0 13 0 264 359 120 359;#P fasten 15 0 13 0 228 359 120 359;#P fasten 14 0 13 0 192 359 120 359;#P fasten 12 0 13 0 120 359 120 359;#P hidden connect 60 0 59 0;#P hidden connect 59 0 58 0;#P connect 21 1 20 0;#P hidden connect 57 0 59 1;#P fasten 55 0 24 0 196 179 180 179;#P fasten 45 0 24 0 289 179 180 179;#P connect 24 0 25 0;#P connect 21 2 14 0;#P connect 31 0 55 0;#P connect 10 0 39 0;#P connect 39 0 46 0;#P connect 21 3 15 0;#P fasten 45 2 40 0 335 184 254 184;#P connect 40 0 42 0;#P connect 21 4 16 0;#P connect 44 0 45 0;#P connect 21 5 17 0;#P connect 55 2 36 0;#P fasten 39 1 36 0 234 66 304 66;#P connect 45 1 36 0;#P connect 36 0 34 0;#P fasten 45 3 41 0 358 188 321 188;#P connect 41 0 43 0;#P connect 21 6 18 0;#P connect 32 0 36 1;#P connect 21 7 19 0;#P connect 55 2 37 0;#P connect 45 1 37 0;#P fasten 39 1 37 0 234 66 376 66;#P connect 37 0 35 0;#P fasten 55 3 48 0 238 236 381 236;#P connect 45 4 48 0;#P connect 50 0 48 0;#P connect 48 0 49 0;#P connect 33 0 37 1;#P fasten 21 7 27 0 372 328 415 328;#P fasten 21 6 27 0 336 328 415 328;#P fasten 21 5 27 0 300 328 415 328;#P fasten 21 4 27 0 264 328 415 328;#P fasten 21 3 27 0 228 328 415 328;#P fasten 21 2 27 0 192 328 415 328;#P fasten 21 1 27 0 156 328 415 328;#P fasten 21 0 27 0 120 328 415 328;#P connect 27 0 26 0;#P connect 47 0 48 1;#P connect 38 0 27 1;#P pop;#P newobj 360 196 68 196617 p pos $1;#P message 357 43 29 196617 open;#P newex 357 67 45 196617 pcontrol;#N vpatcher 514 310 685 438;#P origin 0 -33;#P window setfont "Sans Serif" 9.;#P window linecount 1;#P hidden newex 178 30 40 196617 active;#P hidden newex 178 72 40 196617 gate;#P hidden newex 178 95 62 196617 sel 27 13 3;#P window linecount 0;#P hidden newex 208 50 40 196617 key;#P window linecount 1;#P hidden newex 49 205 88 196617 bgcolor 50 50 50;#N thispatcher;#Q end;#P hidden newobj 50 184 60 196617 thispatcher;#P hidden button 50 42 15 0;#N vpatcher 10 59 252 207;#P window setfont "Sans Serif" 9.;#P newex 17 29 43 196617 togedge;#P newex 72 29 45 196617 loadbang;#P message 50 76 159 196617 window flags grow \, window exec;#P message 17 56 169 196617 window flags nogrow \, window exec;#P inlet 17 9 15 0;#P outlet 17 104 15 0;#P connect 1 0 5 0;#P connect 5 0 2 0;#P fasten 4 0 2 0 77 51 22 51;#P connect 2 0 0 0;#P fasten 3 0 0 0 55 96 22 96;#P connect 5 1 3 0;#P pop;#P hidden newobj 50 162 60 196617 p togBorder;#P window setfont "Sans Serif" 12.;#P comment 66 47 49 196620 Sure ?;#B color 10;#P user pictctrl 8 84 76 23 cancel 76 0 1 0 26 1 1 0 76 23 128 0 1 10 2 1 1 270;#P user pictctrl 86 84 76 23 ok 0 0 1 0 26 0 0 0 76 23 128 0 1 10 2 1 1 270;#P window setfont "Sans Serif" 9.;#P window linecount 0;#P hidden newex 105 128 52 196617 s $1clear;#B color 5;#P hidden message 8 111 32 196617 close;#P hidden outlet 86 128 15 0;#P hidden outlet 8 128 15 0;#P hidden inlet 8 -19 15 0;#P window setfont "Sans Serif" 12.;#P comment 29 26 118 196620 Reset track n¡ $1;#B color 10;#P hidden connect 14 0 7 0;#P hidden fasten 6 0 4 0 91 109 13 109;#P hidden connect 7 0 4 0;#P hidden connect 4 0 2 0;#P hidden connect 10 0 9 0;#P hidden connect 9 0 11 0;#P hidden connect 14 1 6 0;#P hidden connect 14 2 6 0;#P hidden connect 6 0 3 0;#P hidden connect 6 0 5 0;#P hidden connect 16 0 15 0;#P hidden connect 15 0 14 0;#P hidden connect 13 0 15 1;#P pop;#P newobj 357 91 40 196617 p clear;#N vpatcher 375 144 720 604;#P origin -14 -31;#P window setfont "Sans Serif" 9.;#P window linecount 1;#P newex 79 221 85 196617 r $1dropFile;#B color 5;#P window linecount 0;#P newex 68 389 85 196617 s menuitem;#B color 5;#P newex 49 116 85 196617 r $1init;#B color 5;#P newex 39 94 85 196617 r $1clear;#B color 5;#P newex 95 271 54 196617 pipe 500;#P newex 49 221 22 196617 b;#P message 68 284 14 196617 1;#P newex 214 100 30 196617 b;#P newex 95 294 22 196617 - 1;#P message 49 284 14 196617 0;#P number 68 344 35 9 0 0 0 3 0 0 0 221 221 221 222 222 222 0 0 0;#P newex 68 316 37 196617 gate;#P newex 95 248 52 196617 r last-file;#B color 5;#P message 176 80 14 196617 1;#P message 197 80 14 196617 0;#P newex 176 51 31 196617 sel 0;#P newex 176 27 80 196617 r $1audio-input;#B color 5;#P newex 176 121 27 196617 gate;#P newex 123 51 50 196617 loadbang;#P newex 68 367 85 196617 prepend $1;#P message 176 147 33 196617 sound;#P newex 176 167 54 196617 opendialog;#P newex 214 81 85 196617 r $1openFile;#B color 5;#P newex 176 191 75 196617 s path-openfile;#B color 5;#P fasten 12 0 18 0 73 338 43 338 43 213 54 213;#P fasten 2 1 18 0 225 213 54 213;#P connect 21 0 18 0;#P fasten 20 0 18 0 44 138 54 138;#P connect 18 0 14 0;#P fasten 6 0 17 0 181 142 73 142;#P fasten 23 0 17 0 84 244 73 244;#P connect 17 0 12 0;#P fasten 14 0 12 0 54 307 73 307;#P connect 12 0 13 0;#P connect 13 0 4 0;#P connect 4 0 22 0;#P connect 11 0 19 0;#P connect 19 0 15 0;#P connect 15 0 12 1;#P connect 7 0 8 0;#P connect 8 0 10 0;#P fasten 5 0 10 0 128 73 181 73;#P connect 10 0 6 0;#P fasten 9 0 6 0 202 108 181 108;#P connect 6 0 3 0;#P connect 3 0 2 0;#P connect 2 0 0 0;#P fasten 16 0 6 1 219 119 198 119;#P connect 8 1 9 0;#P connect 1 0 16 0;#P pop;#P newobj 349 237 110 196617 p openfile $1;#N vpatcher 796 229 1506 721;#P origin 0 -79;#P toggle 203 199 15 0;#P window setfont "Sans Serif" 9.;#P window linecount 0;#P newex 203 219 29 196617 gate;#N vpatcher 362 284 602 575;#P window setfont "Sans Serif" 9.;#P window linecount 1;#P newex 73 123 64 196617 fromsymbol;#P newex 73 96 51 196617 zl slice 1;#P newex 73 166 51 196617 zl join;#P newex 32 190 51 196617 zl join;#P window linecount 0;#P newex 32 71 51 196617 zl slice 1;#P outlet 32 229 15 0;#P inlet 32 42 15 0;#P connect 0 0 2 0;#P connect 2 0 3 0;#P connect 3 0 1 0;#P connect 2 1 5 0;#P connect 5 0 6 0;#P connect 6 0 4 0;#P connect 4 0 3 1;#P connect 5 1 4 1;#P pop;#P newobj 222 164 88 196617 p rem-dble-quote;#P newex 222 188 81 196617 prepend preload;#P newex 313 47 64 196617 sprintf /%d;#P newex 527 210 44 196617 gate;#P newex 179 119 418 196617 OSC-route /xyz /preload /cue /visible /name /color;#P newex 313 68 71 196617 prepend set 1;#P newex 313 7 48 196617 loadbang;#B color 5;#P message 313 27 21 196617 $1;#P newex 179 94 131 196617 OSC-route /întroled;#P newex 179 58 103 196617 r holoedit.tracks.osc;#B color 5;#P newex 332 188 104 196617 vgate $1holo.control;#P newex 332 232 104 196617 vgate $1holo.control;#P newex 442 211 44 196617 gate;#P newex 442 162 84 196617 r $1holo.control;#B color 5;#P newex 442 184 30 196617 >= 1;#P window linecount 2;#P comment 194 333 219 196617 sound files "ntroled by holo-edit or holo-files if (#1holo.control = snd || snd+pos)";#P window linecount 1;#P newex 31 64 84 196617 r $1holo.control;#B color 5;#P newex 31 87 122 196617 expr $i1 == 1 || $i1 == 3;#P newex 195 244 84 196617 r $1holo.control;#B color 5;#P newex 195 267 30 196617 >= 2;#P newex 195 289 47 196617 gate;#P newex 332 276 56 196617 s holo.edit;#B color 5;#P message 332 254 50 196617 tk $1 \$1;#P newex 332 210 55 196617 sw $1swi;#B color 5;#P newex 508 292 61 196617 prepend $1;#P newex 508 314 54 196617 s name;#B color 5;#P newex 16 307 48 196617 s $1xyz;#B color 5;#P message 364 420 21 196617 $1;#P newex 364 441 68 196617 s tk-i-exists;#B color 5;#P newex 364 399 60 196617 r tk-exists;#B color 5;#P newex 64 161 29 196617 t b i;#P newex 64 138 27 196617 !- 1;#P newex 64 112 48 196617 r record;#B color 5;#P newex 442 249 62 196617 fromsymbol;#P newex 527 237 68 196617 prepend brgb;#P newex 442 314 54 196617 s $1name;#B color 5;#P newex 442 292 62 196617 prepend set;#P newex 527 258 52 196617 s $1color;#B color 5;#P newex 16 43 78 196617 r $1swi;#B color 5;#P newex 31 108 29 196617 t b i;#P newex 16 133 29 196617 &&;#P newex 16 243 65 196617 gate;#P newex 195 311 78 196617 s $1sfplay;#B color 5;#P connect 4 0 2 0;#P connect 3 0 2 0;#P connect 2 0 1 0;#P fasten 1 0 16 0 21 262 21 262;#P connect 26 0 25 0;#P connect 25 0 3 0;#P connect 3 1 2 1;#P connect 10 0 11 0;#P connect 11 0 12 0;#P fasten 38 0 1 1 184 223 76 223;#P fasten 37 0 34 0 318 89 184 89;#P connect 33 0 34 0;#P connect 34 0 38 0;#P connect 24 0 23 0;#P connect 23 0 22 0;#P connect 22 0 0 0;#P connect 44 0 43 0;#P fasten 38 1 42 0 252 155 227 155;#P connect 42 0 41 0;#P connect 41 0 43 1;#P fasten 43 0 22 1 208 240 237 240;#P fasten 38 2 22 1 320 278 237 278;#P connect 36 0 35 0;#P connect 35 0 40 0;#P connect 40 0 37 0;#P fasten 38 3 32 0 388 160 337 160;#P connect 32 0 19 0;#P connect 19 0 31 0;#P connect 31 0 20 0;#P connect 20 0 21 0;#P connect 13 0 15 0;#P connect 15 0 14 0;#P connect 29 0 28 0;#P connect 28 0 30 0;#P connect 30 0 9 0;#P connect 9 0 6 0;#P connect 6 0 7 0;#P fasten 38 4 30 1 456 153 481 153;#P fasten 9 0 18 0 447 279 513 279;#P connect 18 0 17 0;#P fasten 28 0 39 0 447 205 532 205;#P connect 39 0 8 0;#P connect 8 0 5 0;#P fasten 38 5 39 1 524 154 566 154;#P pop;#P newobj 349 300 109 196617 p holo-OSC-conv $1;#N vpatcher 528 136 1109 565;#P origin 0 -15;#P window setfont "Sans Serif" 9.;#P window linecount 2;#P comment 142 318 179 196617 preload and play holo-spat soundfiles if (#1holo.control = off || pos);#P window linecount 1;#P newex 12 281 84 196617 r $1holo.control;#B color 5;#P newex 12 304 30 196617 <= 1;#P newex 12 326 102 196617 gate;#P window linecount 0;#N vpatcher 10 59 164 364;#P window setfont "Sans Serif" 9.;#P window linecount 0;#N vpatcher 10 59 138 314;#P window setfont "Sans Serif" 9.;#P newex 12 150 44 196617 del 200;#P newex 12 128 29 196617 sel 1;#P newex 12 62 29 196617 > 0;#P newex 31 18 37 196617 r play;#B color 5;#P newex 12 40 29 196617 i;#P message 12 172 14 196617 3;#P newex 12 106 29 196617 &&;#P newex 31 84 56 196617 r autoplay;#B color 5;#P inlet 12 19 15 0;#P outlet 12 194 15 0;#P connect 1 0 5 0;#P connect 5 0 7 0;#P connect 7 0 3 0;#P connect 3 0 8 0;#P connect 8 0 9 0;#P connect 9 0 4 0;#P connect 4 0 0 0;#P connect 6 0 5 1;#P connect 2 0 3 1;#P pop;#P newobj 14 231 72 196617 p autoplay $1;#P newex 14 206 89 196617 t b s;#P window linecount 1;#P newex 49 58 27 196617 t b i;#P newex 66 34 37 196617 buddy;#P newex 14 178 47 196617 zl ecils 1;#P newex 14 155 72 196617 gate 2 1;#P newex 14 133 27 196617 + 1;#P newex 14 111 51 196617 r swStop;#B color 5;#P newex 12 82 93 196617 pack preload 3 0 0;#P inlet 93 14 15 0;#P inlet 66 14 15 0;#P outlet 93 260 15 0;#P fasten 9 0 3 0 54 78 17 78;#P connect 4 0 5 0;#P connect 5 0 6 0;#P connect 6 0 7 0;#P connect 7 0 10 0;#P fasten 6 1 10 0 81 201 19 201;#P connect 10 0 11 0;#P fasten 8 0 9 0 71 54 54 54;#P connect 1 0 8 0;#P connect 9 1 3 2;#P fasten 3 0 6 1 17 104 81 104;#P connect 2 0 8 1;#P connect 8 1 3 3;#P fasten 11 0 0 0 19 254 98 254;#P connect 10 1 0 0;#P pop;#P newobj 210 271 101 196617 p preloadcurrent $1;#N vpatcher 10 59 138 224;#P window setfont "Sans Serif" 9.;#P newex 17 39 32 196617 sel 1;#P newex 17 18 37 196617 r play;#B color 5;#P message 17 60 14 196617 3;#P outlet 17 80 15 0;#P connect 2 0 3 0;#P connect 3 0 1 0;#P connect 1 0 0 0;#P pop;#P newobj 314 271 63 196617 p play $1;#N vpatcher 10 59 138 187;#P window setfont "Sans Serif" 9.;#P newex 10 38 27 196617 t 0;#P newex 10 16 37 196617 r stop;#B color 5;#P outlet 10 63 15 0;#P connect 1 0 2 0;#P connect 2 0 0 0;#P pop;#P newobj 379 271 63 196617 p stop $1;#N vpatcher 10 59 219 374;#P window setfont "Sans Serif" 9.;#P window linecount 1;#P newex 9 35 27 196617 t i b;#P newex 26 107 27 196617 gate;#P newex 26 80 27 196617 > 0;#P newex 26 58 27 196617 i;#P newex 43 36 43 196617 r play;#B color 5;#P window linecount 0;#P newex 26 128 27 196617 t i i;#P newex 90 153 27 196617 !- 1;#P newex 90 205 32 196617 gate;#P newex 43 153 27 196617 == 0;#P newex 9 13 43 196617 r pause;#B color 5;#P newex 43 205 29 196617 gate;#P window linecount 1;#P message 90 227 35 196617 pause;#P message 43 227 43 196617 resume;#P window linecount 0;#P newex 62 182 111 196617 sel 0 1;#P outlet 43 254 15 0;#P connect 5 0 14 0;#P connect 14 1 11 0;#P connect 11 0 12 0;#P connect 12 0 13 0;#P connect 13 0 9 0;#P connect 10 0 11 1;#P fasten 14 0 13 1 14 101 48 101;#P connect 9 1 6 0;#P connect 6 0 4 0;#P connect 4 0 2 0;#P connect 2 0 0 0;#P fasten 3 0 0 0 95 248 48 248;#P fasten 9 0 1 0 31 176 67 176;#P connect 1 0 4 1;#P connect 6 0 8 0;#P connect 8 0 7 0;#P connect 7 0 3 0;#P connect 1 1 7 1;#P pop;#P newobj 444 271 63 196617 p pause $1;#P window linecount 1;#P newex 220 91 59 196617 s $1sfplay;#B color 5;#P window linecount 0;#P newex 373 113 62 196617 prepend $1;#P newex 373 134 55 196617 s durfil;#B color 5;#P newex 314 186 62 196617 mousefilter;#P newex 142 180 51 196617 r preload;#B color 5;#P newex 74 359 100 196617 print $1_PRELOAD;#P newex 210 237 32 196617 t i i;#N vpatcher 10 59 341 283;#P origin 0 -7;#P inlet 19 56 15 0;#P window setfont "Sans Serif" 9.;#P newex 53 60 27 196617 t b i;#P newex 53 38 55 196617 r $1durfil;#B color 5;#P newex 19 82 61 196617 <;#P newex 29 103 53 196617 r $1clear;#B color 5;#P message 29 124 14 196617 0;#P outlet 19 148 15 0;#P comment 9 180 291 196617 enable preload if current global begtime < current file duration;#P fasten 6 0 4 0 58 79 24 79;#P connect 7 0 4 0;#P connect 4 0 1 0;#P fasten 2 0 1 0 34 144 24 144;#P connect 3 0 2 0;#P connect 5 0 6 0;#P connect 6 1 4 1;#P pop;#P newobj 104 271 101 196617 p enable_preload $1;#P window linecount 1;#P newex 301 217 32 196617 * 10;#P newex 314 164 62 196617 r endTime;#B color 5;#P newex 389 217 55 196617 r $1durfil;#B color 5;#P newex 301 237 98 196617 clip 0. 100000000.;#P window linecount 0;#P newex 158 41 63 196617 route $1;#P message 175 87 13 196617 1;#P newex 175 112 45 196617 s $1swi;#B color 5;#P newex 210 217 32 196617 * 10;#P window linecount 1;#P newex 158 67 27 196617 b;#P window linecount 0;#P newex 109 117 59 196617 delay 200;#P newex 220 164 62 196617 r beginTime;#B color 5;#P newex 315 113 55 196617 s $1durfil;#B color 5;#P window linecount 7;#P comment 464 47 86 196617 receive the counter and do a preload if there is sound at this time \; commands play and stop (0 and 3);#P window linecount 1;#P newex 282 67 63 196617 prepend open;#P newex 158 20 60 196617 r chooSf;#B color 5;#P newex 104 304 29 196617 gate;#P newex 12 359 59 196617 s $1sfplay;#B color 5;#P newex 282 91 69 196617 sfinfo~;#P newex 220 186 62 196617 mousefilter;#P connect 33 0 32 0;#P connect 32 0 31 0;#P connect 31 0 2 0;#P fasten 27 0 2 0 449 350 17 350;#P fasten 28 0 2 0 384 350 17 350;#P fasten 20 1 19 0 237 261 109 261;#P connect 19 0 3 0;#P connect 3 0 31 1;#P fasten 10 0 9 0 163 103 114 103;#P fasten 30 0 3 1 215 295 128 295;#P fasten 29 0 3 1 319 295 128 295;#P connect 4 0 14 0;#P connect 14 0 10 0;#P connect 10 1 13 0;#P connect 13 0 12 0;#P fasten 9 0 11 0 114 153 215 153;#P fasten 0 0 11 0 225 210 215 210;#P fasten 22 0 11 0 147 212 215 212;#P connect 11 0 20 0;#P connect 20 0 30 0;#P fasten 5 0 26 0 287 86 225 86;#P connect 8 0 0 0;#P fasten 14 0 5 0 163 62 287 62;#P connect 5 0 1 0;#P fasten 22 0 18 0 147 212 306 212;#P fasten 9 0 18 0 114 153 306 153;#P fasten 23 0 18 0 319 210 306 210;#P connect 18 0 15 0;#P connect 15 0 30 1;#P connect 17 0 23 0;#P connect 1 3 7 0;#P fasten 1 3 25 0 320 110 378 110;#P connect 25 0 24 0;#P connect 16 0 15 2;#P pop;#P newobj 349 258 110 196617 p preload $1;#N vpatcher 10 59 264 459;#P origin 0 -8;#P window setfont "Sans Serif" 9.;#P window linecount 0;#P newex 13 41 33 196617 t i i i;#P newex 74 323 27 196617 gate;#P newex 91 222 27 196617 i;#P newex 123 49 78 196617 r doppler-clock;#B color 5;#P newex 152 245 69 196617 r dopplersens;#B color 5;#P newex 106 69 27 196617 gate;#P message 13 230 14 196617 1;#P newex 13 205 33 196617 sel 0;#P newex 13 21 107 196617 r $1doppler;#B color 5;#P newex 91 269 33 196617 * 0.2;#P newex 13 346 108 196617 s $1sfspeed;#B color 5;#P window linecount 2;#P newex 91 288 82 196617 expr pow(2 \\\, ($f1/1000.));#P window linecount 1;#P newex 91 245 57 196617 smooth2 4;#P newex 91 198 55 196617 * -10000.;#P newex 106 111 27 196617 f;#P newex 91 178 51 196617 / 1.;#P newex 106 132 50 196617 t f f b b;#P newex 132 157 33 196617 timer;#P newex 91 157 25 196617 - 0.;#P newex 123 89 79 196617 r $1d;#B color 5;#P connect 11 0 19 0;#P connect 19 0 12 0;#P connect 12 0 13 0;#P fasten 18 0 9 0 79 343 18 343;#P connect 13 0 9 0;#P fasten 19 1 18 0 29 200 79 200;#P connect 3 1 1 0;#P connect 1 0 4 0;#P connect 4 0 6 0;#P connect 6 0 17 0;#P connect 17 0 7 0;#P connect 7 0 10 0;#P connect 10 0 8 0;#P connect 8 0 18 1;#P fasten 19 2 14 0 40 60 111 60;#P connect 14 0 5 0;#P connect 5 0 3 0;#P connect 3 0 1 1;#P fasten 15 0 10 1 157 265 119 265;#P connect 16 0 14 1;#P connect 0 0 5 1;#P connect 3 2 2 0;#P connect 2 0 4 1;#P fasten 3 3 2 1 150 153 160 153;#P pop;#P newobj 349 279 110 196617 p doppler $1;#N vpatcher 513 102 1392 785;#P origin 0 -3;#P window setfont "Sans Serif" 9.;#P window linecount 1;#P newex 350 95 59 196617 r pointSize;#B color 5;#P newex 658 471 27 196617 / 4.;#P newex 392 204 34 196617 / 40.;#P window linecount 2;#P message 580 614 240 196617 jit.gl.gridshape holo.sketch @scale 0.1 0.1 0.1 @shape circle @smooth_shading 0 @poly_mode 1 1;#P window linecount 0;#P newex 682 498 41 196617 * 0.05;#P message 619 520 43 196617 size \$1;#P newex 619 474 27 196617 * 2;#P newex 277 338 33 196617 - 0.1;#P newex 251 292 36 196617 zl reg;#P message 147 410 90 196617 position \$1 \$2 \$3;#P newex 251 358 77 196617 pack 0. 0. 0.;#P newex 251 315 76 196617 unpack 0. 0. 0.;#P newex 317 337 40 196617 + 0.03;#P window linecount 1;#P newex 577 447 59 196617 r pointSize;#B color 5;#P newex 126 513 89 196617 loadmess text $1;#P message 404 493 87 196617 color \$1 \$2 \$3 1;#P newex 404 469 83 196617 vexpr $f1/255.;#P newex 464 442 57 196617 route brgb;#P newex 464 422 75 196617 r $1color;#B color 5;#P newex 386 442 49 196617 route $1;#P newex 386 422 75 196617 r BoulCouleurs;#B color 5;#P message 154 274 238 196617 moveto \$1 \$2 \$3 \, glcolor \$4 \$5 \$6 0.7 \, plane \$7 \,;#P message 164 474 53 196617 enable \$1;#P newex 164 448 45 196617 r $1swi;#B color 5;#P window linecount 0;#P comment 241 40 215 196617 convert track position to point positino in lcd;#P comment 48 449 85 196617 draw track point;#P newex 44 487 57 196617 gate;#P newex 44 465 45 196617 r $1swi;#B color 5;#P newex 44 546 52 196617 s topaints;#B color 5;#P window linecount 1;#P message 255 380 255 196617 position \$1 \$2 \$3 \, color \$4 \$5 \$6 1. \, text "12" \, bang;#P newex 255 403 57 196617 s tojittext;#B color 5;#P newex 244 80 69 196617 loadmess 40.;#P message 184 186 52 196617 \$1 \$1 \$1;#P newex 199 145 35 196617 r dHP;#B color 5;#P newex 116 211 78 196617 vexpr $f1/$f2;#P newex 90 271 36 196617 zl reg;#P newex 257 197 83 196617 vexpr $f1/255.;#P newex 116 239 292 196617 pak 0. 0. 0. 0. 0. 0. 0.1;#P window linecount 2;#P message 61 307 150 196617 moveto \$1 \$2 \$3 \, glcolor \$4 \$5 \$6 0.9 \, framecircle \$7;#P window linecount 1;#P newex 317 170 57 196617 route brgb;#P newex 317 150 75 196617 r $1color;#B color 5;#P newex 477 143 30 196617 == 0;#P message 424 177 38 196617 set \$1;#P newex 461 234 40 196617 sel 1 0;#P newex 424 107 27 196617 t i i;#P newex 477 186 27 196617 gate;#P newex 424 86 65 196617 r alwaysSee;#B color 5;#P newex 128 90 55 196617 r distMAX;#B color 5;#P newex 103 111 35 196617 < 999;#P newex 88 48 45 196617 loadbang;#P toggle 103 135 15 0;#P newex 103 71 35 196617 r $1d;#B color 5;#P newex 103 158 27 196617 gate;#P newex 651 288 45 196617 gate;#P newex 651 263 29 196617 == 0;#P flonum 609 264 35 9 0 0 0 3 0 0 0 221 221 221 222 222 222 0 0 0;#P newex 651 313 85 196617 s $1fadeFinished;#B color 5;#P newex 670 167 58 196617 r fadeTime;#B color 5;#P newex 609 119 64 196617 r $1fadeOut;#B color 5;#P newex 647 140 55 196617 r $1fadeIn;#B color 5;#P newex 609 232 87 196617 line 0.;#B color 5;#P number 647 209 40 9 0 0 0 3 0 0 0 221 221 221 222 222 222 0 0 0;#P button 647 189 15 0;#P message 609 166 17 196617 0.;#P message 647 166 17 196617 1.;#P newex 531 69 51 196617 cretmet~;#P newex 531 44 74 196617 r $1sf;#B color 12;#P newex 567 94 59 196617 r threshold;#B color 5;#P message 118 364 14 196617 1;#P newex 91 342 85 196617 r $1fadeFinished;#B color 5;#P message 91 364 13 196617 0;#P newex 91 410 27 196617 gate;#P toggle 91 388 15 0;#P newex 473 277 55 196617 s $1fadeIn;#B color 5;#P newex 476 254 64 196617 s $1fadeOut;#B color 5;#P newex 477 211 40 196617 change;#P button 492 100 15 0;#P newex 492 76 32 196617 r ppp;#B color 5;#P flonum 531 122 35 9 0 0 0 3 0 0 0 221 221 221 222 222 222 0 0 0;#P newex 531 143 46 196617 >= 0.;#P newex 120 134 32 196617 r ppp;#B color 5;#P newex 239 170 49 196617 route $1;#P newex 239 150 75 196617 r BoulCouleurs;#B color 5;#P newex 116 187 48 196617 r $1xyz;#B color 5;#P window setfont "Sans Serif" 20.;#P comment 281 129 34 196628 $1;#P window setfont "Sans Serif" 9.;#P flonum 567 122 35 9 0 0 0 3 0 0 0 221 221 221 222 222 222 0 0 0;#P newex 164 587 381 196617 jit.gl.text2d holo.sketch @color 0 0 0 1 @scale 1 1 1 @align 1 @smooth_shading 0;#P connect 59 0 60 0;#P connect 60 0 58 0;#P fasten 51 0 48 0 95 296 66 296;#P fasten 34 0 51 0 108 183 95 183;#P connect 17 0 16 0;#P connect 16 0 14 0;#P connect 18 0 14 0;#P connect 14 0 15 0;#P connect 15 0 60 1;#P connect 35 0 38 0;#P connect 38 0 36 0;#P fasten 37 0 36 0 93 132 108 132;#P connect 36 0 34 0;#P fasten 48 0 15 1 66 395 113 395;#P connect 3 0 52 0;#P connect 52 0 49 0;#P connect 49 0 51 1;#P fasten 43 0 18 0 466 360 123 360;#P connect 6 0 34 1;#P connect 39 0 38 1;#P connect 76 0 77 0;#P connect 63 0 64 0;#P fasten 77 0 0 0 152 502 169 502;#P fasten 72 0 0 0 131 553 169 553;#P fasten 81 0 0 0 624 577 169 577;#P connect 64 0 0 0;#P fasten 71 0 0 0 409 578 169 578;#P fasten 53 0 54 0 204 166 189 166;#P fasten 55 0 54 0 249 116 189 116;#P connect 54 0 52 1;#P connect 4 0 5 0;#P fasten 34 0 78 0 108 267 256 267;#P connect 78 0 75 0;#P connect 75 0 76 0;#P connect 57 0 56 0;#P fasten 47 0 50 0 322 192 262 192;#P fasten 5 0 50 0 244 192 262 192;#P connect 50 0 49 3;#P fasten 49 0 78 1 121 262 282 262;#P connect 75 1 79 0;#P connect 79 0 76 1;#P fasten 82 0 79 1 687 518 762 518 762 334 305 334;#P connect 46 0 47 0;#P connect 75 2 74 0;#P connect 74 0 76 2;#P connect 66 0 67 0;#P fasten 86 0 84 0 355 115 397 115;#P fasten 84 0 49 6 397 223 403 223;#P fasten 67 0 70 0 391 464 409 464;#P fasten 69 0 70 0 469 464 409 464;#P connect 70 0 71 0;#P connect 40 0 42 0;#P connect 42 0 44 0;#P fasten 11 0 43 0 482 231 466 231;#P fasten 42 0 43 0 429 151 466 151;#P connect 68 0 69 0;#P fasten 43 0 13 0 466 272 478 272;#P connect 43 1 12 0;#P fasten 42 1 45 0 446 133 482 133;#P connect 45 0 41 0;#P connect 44 0 11 0;#P connect 41 0 11 0;#P connect 9 0 10 0;#P fasten 7 0 41 1 536 169 499 169;#P connect 20 0 21 0;#P connect 21 0 8 0;#P fasten 10 0 8 0 497 119 536 119;#P connect 8 0 7 0;#P connect 19 0 1 0;#P connect 1 0 7 1;#P connect 28 0 23 0;#P connect 23 0 26 0;#P connect 22 0 26 0;#P connect 26 0 31 0;#P fasten 73 0 80 0 582 470 624 470;#P connect 80 0 81 0;#P connect 27 0 22 0;#P connect 22 0 24 0;#P connect 23 0 24 0;#P connect 24 0 25 0;#P fasten 29 0 25 0 675 206 652 206;#P connect 25 0 26 1;#P fasten 26 0 32 0 614 256 656 256;#P connect 32 0 33 0;#P connect 33 0 30 0;#P fasten 73 0 85 0 582 468 663 468;#P fasten 85 0 82 0 663 494 687 494;#P connect 26 1 33 1;#P pop;#P newobj 349 342 110 196617 p draw $1;#N vpatcher 10 59 168 302;#P origin 0 -8;#P window setfont "Sans Serif" 9.;#P message 41 58 20 196617 \$2;#P outlet 41 193 15 0;#P outlet 74 193 15 0;#P newex 74 165 29 196617 * 2.;#P newex 71 73 29 196617 t b f;#P newex 71 41 35 196617 r dHP;#B color 5;#P newex 41 121 74 196617 clip 0.01 400.;#P newex 41 165 29 196617 * 4.;#P newex 41 143 47 196617 / 1.;#P newex 41 99 27 196617 f;#P newex 41 21 46 196617 r $1adz;#B color 5;#P connect 0 0 10 0;#P connect 10 0 1 0;#P fasten 6 0 1 0 76 95 46 95;#P connect 1 0 4 0;#P connect 4 0 2 0;#P connect 2 0 3 0;#P connect 3 0 9 0;#P connect 5 0 6 0;#P fasten 6 1 4 1 95 116 78 116;#P fasten 2 0 7 0 46 162 79 162;#P connect 7 0 8 0;#P fasten 6 1 2 1 95 116 83 116;#P pop;#P newobj 114 145 46 196617 p d/dHP;#P window setfont "Sans Serif" 12.;#N vpatcher 827 96 980 345;#P inlet 68 34 15 0;#P window setfont "Sans Serif" 9.;#P window linecount 0;#P newex 22 115 39 196617 sig~ 0.;#P window linecount 4;#P newex 68 58 60 196617 expr 1.188502*pow($f1\\\,-0.249145);#P window linecount 1;#P newex 13 168 65 196617 *~ 1.;#P newex 68 139 48 196617 line~ 1.;#P message 68 117 37 196617 \$1 30;#P inlet 13 34 15 0;#P outlet 13 190 15 0;#P connect 1 0 4 0;#P connect 4 0 0 0;#P fasten 1 0 6 0 18 106 27 106;#P connect 7 0 5 0;#P connect 5 0 2 0;#P connect 2 0 3 0;#P fasten 6 0 3 0 27 135 73 135;#P connect 3 0 4 1;#P pop;#P newobj 154 219 98 196620 p rev-dist~ $1;#N vpatcher 686 126 966 344;#P outlet 110 164 15 0;#P inlet 73 14 15 0;#P window setfont "Sans Serif" 9.;#P newex 29 62 41 196617 sig~ 0.;#P message 73 86 43 196617 \$1 30;#P newex 73 108 43 196617 line~ 1.;#P newex 73 43 173 196617 expr ((log($f1) / log(2) - 1.) * -6.);#P newex 18 133 65 196617 *~ 1.;#N comlet sound out;#P outlet 18 161 15 0;#N comlet sound;#P inlet 18 14 15 0;#P newex 73 65 43 196617 dBtoA;#P connect 1 0 3 0;#P connect 3 0 2 0;#P fasten 1 0 7 0 23 45 34 45;#P connect 8 0 4 0;#P connect 4 0 0 0;#P connect 0 0 6 0;#P connect 6 0 5 0;#P fasten 7 0 5 0 34 103 78 103;#P connect 5 0 3 1;#P fasten 5 0 9 0 78 129 115 129;#P pop;#P newobj 32 219 102 196620 p gain-dist~ $1;#N vpatcher 211 103 687 449;#P origin 0 -12;#P window setfont "Sans Serif" 9.;#P window linecount 1;#P newex 270 78 30 196617 t b s;#P newex 270 101 44 196617 del 100;#P newex 212 134 27 196617 f;#P objectname i5;#P newex 156 134 27 196617 i;#P objectname i4;#P newex 96 134 27 196617 f;#P objectname i3;#P newex 36 134 27 196617 f;#P objectname i2;#P window linecount 0;#P message 317 137 38 196617 $2pan;#P message 197 252 33 196617 front;#P newex 197 226 27 196617 b;#P newex 197 200 73 196617 r $1spatfront;#B color 5;#P window linecount 1;#P newex 290 162 54 196617 prepend 0;#P window linecount 6;#P message 290 184 142 196617 delete spat \, new spat newex 12 174 213 196617 \$2 $1 \, connect i1 0 spat 0 \, connect i2 0 spat 1 \, connect i3 0 spat 2 \, connect i4 0 spat 3 \, connect i5 0 spat 4;#P window linecount 1;#P newex 290 265 75 196617 prepend script;#N thispatcher;#Q end;#P newobj 290 286 61 196617 thispatcher;#P newex 156 87 27 196617 i;#P window linecount 0;#P newex 212 87 36 196617 r $1z;#B color 5;#P newex 210 26 45 196617 r runInit;#B color 5;#P newex 117 61 27 196617 t b f;#P newex 187 55 78 196617 r $1line-dur;#B color 5;#P newex 156 26 50 196617 loadbang;#P message 156 61 26 196617 100;#P newex 117 41 33 196617 r dHP;#B color 5;#P newex 96 87 48 196617 / 1.;#P newex 96 21 52 196617 r $1d;#B color 5;#P newex 36 87 47 196617 r $1t;#B color 5;#P window linecount 2;#P comment 260 21 42 196617 lines duration;#P inlet 12 80 15 0;#P objectname i1;#P window linecount 1;#P newex 270 56 71 196617 r $1spatChoo;#B color 5;#P window linecount 0;#P newex 12 174 213 196617 $2pan $1;#P objectname spat;#P connect 2 0 0 0;#P fasten 27 0 23 0 275 125 41 125;#P connect 4 0 23 0;#P connect 23 0 0 1;#P fasten 11 0 6 0 122 82 101 82;#P connect 5 0 6 0;#P fasten 27 0 24 0 275 125 101 125;#P connect 6 0 24 0;#P connect 24 0 0 2;#P connect 7 0 11 0;#P connect 11 1 6 1;#P fasten 12 0 8 0 215 49 161 49;#P connect 9 0 8 0;#P connect 8 0 14 0;#P fasten 10 0 14 0 192 80 161 80;#P fasten 27 0 25 0 275 125 161 125;#P connect 14 0 25 0;#P connect 25 0 0 3;#P connect 19 0 20 0;#P connect 20 0 21 0;#P connect 13 0 26 0;#P fasten 27 0 26 0 275 125 217 125;#P connect 26 0 0 4;#P connect 1 0 28 0;#P connect 28 0 27 0;#P fasten 22 0 18 0 322 159 295 159;#P connect 28 1 18 0;#P connect 18 0 17 0;#P connect 17 0 16 0;#P connect 16 0 15 0;#P fasten 21 0 15 0 202 285 295 285;#P pop;#P newobj 32 315 134 196620 p spat $1 $2;#N vpatcher 583 209 1084 606;#P window setfont "Sans Serif" 9.;#P window linecount 0;#P newex 199 86 40 196617 t b 1;#P newex 161 88 32 196617 t 1 0;#P window linecount 1;#P newex 208 174 47 196617 gate 1 1;#P window linecount 0;#P newex 245 153 27 196617 i;#P newex 183 56 53 196617 sel $1 -1;#P message 106 165 37 196617 \$1 30;#P newex 106 195 44 196617 line~ 1.;#P newex 91 135 41 196617 sig~ 0.;#P newex 80 222 36 196617 *~;#P newex 183 36 36 196617 r solo;#B color 5;#P newex 102 247 45 196617 s $1sf;#B color 14;#P newex 296 114 71 196617 r $1swi;#B color 5;#P inlet 80 96 15 0;#P outlet 80 247 15 0;#P window linecount 1;#P newex 250 89 32 196617 t 0 0;#P connect 2 0 6 0;#P connect 6 0 1 0;#P fasten 2 0 7 0 85 125 96 125;#P connect 6 0 4 0;#P connect 12 0 9 0;#P connect 13 0 9 0;#P connect 0 0 9 0;#P fasten 7 0 8 0 96 187 111 187;#P connect 9 0 8 0;#P connect 8 0 6 1;#P connect 10 0 13 0;#P connect 5 0 10 0;#P connect 10 1 14 0;#P connect 13 1 12 0;#P connect 0 1 12 0;#P connect 14 1 12 0;#P connect 3 0 11 0;#P connect 14 0 11 0;#P connect 11 0 12 1;#P connect 10 2 0 0;#P pop;#P newobj 32 115 96 196620 p solo-ctrl $1;#N vpatcher 10 59 328 350;#P origin 6 -26;#P window setfont "Sans Serif" 9.;#P window linecount 1;#P newex 181 239 89 196617 print $1_SFPLAY;#P window linecount 0;#P message 106 73 14 196617 0;#P message 85 73 14 196617 1;#P newex 85 50 31 196617 sel 0;#P newex 106 123 27 196617 gate;#P newex 32 177 23 196617 + 1;#P comment 157 180 109 196617 from input patch;#P newex 157 193 87 196617 r $1from-patch;#B color 14;#P newex 32 20 84 196617 r $1audio-input;#B color 5;#P newex 97 215 71 196617 selector~ 2 1;#P newex 181 51 90 196617 r $1sfspeed;#B color 5;#P message 136 124 42 196617 loop \$1;#P message 181 124 48 196617 speed \$1;#P newex 136 30 81 196617 r $1sfloop;#B color 5;#P newex 123 11 84 196617 r $1sfplay;#B color 5;#N sfplay~ holospatpool 1 120960 0 ;#P newobj 127 150 111 196617 sfplay~ holospatpool 1;#P outlet 97 237 15 0;#P connect 8 0 11 0;#P fasten 8 0 13 0 37 43 90 43;#P connect 13 0 14 0;#P fasten 11 0 7 0 37 199 102 199;#P connect 7 0 0 0;#P connect 13 1 15 0;#P connect 15 0 12 0;#P fasten 14 0 12 0 90 105 111 105;#P connect 2 0 12 1;#P fasten 15 0 1 0 111 115 99 115 99 146 132 146;#P fasten 4 0 1 0 186 146 132 146;#P fasten 5 0 1 0 141 146 132 146;#P fasten 12 0 1 0 111 146 132 146;#P connect 1 0 7 1;#P connect 3 0 5 0;#P connect 9 0 7 2;#P connect 6 0 4 0;#P pop;#P newobj 32 48 96 196620 p input $1;#N vpatcher 287 126 482 319;#P origin 0 -329;#P window setfont "Sans Serif" 9.;#P window linecount 0;#P newex 86 18 61 196617 r $1revdb;#B color 5;#P newex 16 134 47 196617 s rev-in;#B color 5;#P inlet 16 35 15 0;#P window linecount 1;#P newex 86 40 34 196617 dbtoa;#P window linecount 0;#P message 86 60 37 196617 \$1 30;#P newex 86 83 43 196617 line~ 1.;#P newex 16 108 80 196617 *~ 1.;#P window linecount 1;#P newex 34 59 43 196617 sig~ 0.;#P connect 5 0 1 0;#P connect 1 0 6 0;#P fasten 5 0 0 0 21 53 39 53;#P connect 7 0 4 0;#P connect 4 0 3 0;#P connect 3 0 2 0;#P fasten 0 0 2 0 39 80 91 80;#P connect 2 0 1 1;#P pop;#P newobj 154 248 98 196620 p rev $1;#N vpatcher 747 180 974 399;#P window setfont "Sans Serif" 9.;#P window linecount 1;#P newex 42 78 49 196617 route int;#P window linecount 0;#P message 30 147 86 196617 send nowherenop;#P newex 42 36 50 196617 loadbang;#P message 42 58 21 196617 $1;#P newex 30 104 59 196617 sel 0 $1;#P newex 11 171 103 196617 forward nowherenop;#B color 5;#P newex 30 15 64 196617 r $1bus-out;#B color 5;#P newex 78 125 96 196617 sprintf send %dbus;#P inlet 11 126 15 0;#P connect 0 0 3 0;#P fasten 1 0 3 0 83 166 16 166;#P fasten 7 0 3 0 35 166 16 166;#P connect 2 0 4 0;#P fasten 8 0 4 0 47 99 35 99;#P connect 4 0 7 0;#P fasten 4 1 7 0 59 134 35 134;#P connect 6 0 5 0;#P connect 5 0 8 0;#P connect 4 2 1 0;#P pop;#P newobj 157 84 85 196620 p busout $1;#N vpatcher 599 187 769 454;#P window setfont "Sans Serif" 9.;#P window linecount 1;#P newex 13 39 27 196617 !- 1;#P window linecount 0;#P newex 13 61 27 196617 + 1;#P window linecount 1;#P newex 70 107 68 196617 r $1auxdb;#B color 5;#P newex 25 131 41 196617 sig~ 0.;#P window linecount 0;#P newex 13 212 47 196617 s aux-in;#B color 5;#P window linecount 1;#P newex 70 129 34 196617 dbtoa;#P newex 13 83 72 196617 selector~ 2;#P newex 13 17 52 196617 r $1pre;#B color 5;#P inlet 75 61 15 0;#P inlet 44 61 15 0;#P window linecount 0;#P newex 13 190 67 196617 *~;#P newex 70 168 48 196617 line~ 0.;#P message 70 148 35 196617 \$1 30;#P connect 5 0 12 0;#P connect 12 0 11 0;#P connect 11 0 6 0;#P connect 6 0 2 0;#P connect 2 0 8 0;#P fasten 6 0 9 0 18 110 30 110;#P connect 3 0 6 1;#P connect 10 0 7 0;#P connect 7 0 0 0;#P connect 0 0 1 0;#P fasten 9 0 1 0 30 165 75 165;#P connect 1 0 2 1;#P connect 4 0 6 2;#P pop;#P newobj 53 284 242 196620 p aux pre/post $1;#N vpatcher 14 59 462 348;#P window setfont "Sans Serif" 9.;#P message 198 75 35 196617 \$1 60;#P message 72 75 35 196617 \$1 60;#P newex 198 94 35 196617 line 0.;#P newex 72 94 35 196617 line 0.;#P newex 198 39 111 196617 expr 2.778 + (-1 * (4*log(2*$f1)- 5.54));#P newex 72 39 108 196617 expr 1.389 + (-1 * (2*log(2*$f1)-2.77));#P inlet 72 14 15 0;#P hidden message 367 159 35 196617 5000.;#P hidden message 328 159 35 196617 1600.;#P hidden newex 346 136 45 196617 loadbang;#P outlet 9 224 15 0;#P inlet 9 15 15 0;#P comment 222 155 19 196617 dB;#P comment 297 155 19 196617 Hz;#P flonum 261 139 58 9 0 0 0 3 0 0 0 221 221 221 222 222 222 0 0 0;#P newex 9 175 262 196617 LowP2~;#P flonum 72 139 41 9 0 0 0 3 0 0 0 221 221 221 222 222 222 0 0 0;#P flonum 135 139 51 9 0 0 0 3 0 0 0 221 221 221 222 222 222 0 0 0;#P flonum 198 139 46 9 0 0 0 3 0 0 0 221 221 221 222 222 222 0 0 0;#P comment 167 155 19 196617 Hz;#P comment 94 155 19 196617 dB;#P comment 204 122 101 196617 ____high____;#P comment 81 122 99 196617 ____low____;#P connect 11 0 7 0;#P connect 7 0 12 0;#P connect 16 0 17 0;#P connect 17 0 21 0;#P connect 21 0 19 0;#P connect 19 0 6 0;#P connect 6 0 7 1;#P hidden connect 7 1 5 0;#P hidden connect 14 0 7 2;#P fasten 16 0 18 0 77 34 203 34;#P connect 18 0 22 0;#P connect 22 0 20 0;#P connect 20 0 4 0;#P connect 4 0 7 3;#P connect 7 2 8 0;#P hidden connect 15 0 7 4;#P hidden connect 13 0 14 0;#P hidden connect 13 0 15 0;#P pop;#P newobj 32 169 84 196620 p eq-dist $1;#N vpatcher 99 73 311 293;#P window setfont "Sans Serif" 9.;#P window linecount 1;#P newex 25 53 41 196617 sig~ 0.;#P window linecount 0;#P newex 76 51 109 196617 r $1voldb;#B color 5;#N comlet input signal;#P inlet 13 19 15 0;#P outlet 13 165 15 0;#P newex 13 138 33 196617 *~;#P newex 75 71 38 196617 dBtoA;#P newex 75 114 48 196617 line~ 0.;#P message 75 94 35 196617 \$1 30;#P connect 5 0 3 0;#P connect 3 0 4 0;#P fasten 5 0 7 0 18 43 30 43;#P fasten 1 0 3 1 80 134 41 134;#P connect 6 0 2 0;#P connect 2 0 0 0;#P fasten 7 0 1 0 30 111 80 111;#P connect 0 0 1 0;#P pop;#P newobj 32 84 96 196620 p in-gain~ $1;#P window setfont "Sans Serif" 9.;#P newex 285 219 35 196617 *~ 1.;#P newex 525 357 75 196617 r all-doppler;#B color 5;#P connect 7 0 2 0;#P connect 2 0 8 0;#P connect 8 0 3 0;#P connect 3 0 10 0;#P connect 10 0 9 0;#P fasten 10 0 4 0 37 260 58 260;#P fasten 12 0 3 1 119 165 111 165;#P fasten 12 0 10 1 119 194 129 194;#P fasten 3 0 11 0 37 207 159 207;#P connect 11 0 6 0;#P fasten 7 0 5 0 37 74 162 74;#P fasten 12 1 11 1 155 194 247 194;#P fasten 7 0 1 0 37 74 290 74;#P connect 1 0 4 1;#P fasten 10 1 1 1 129 276 282 276 282 267 297 267 297 277 325 277 325 212 315 212;#P connect 26 0 20 0;#P fasten 18 0 19 0 362 113 350 113 350 62 362 62;#P connect 20 0 19 0;#P connect 19 0 18 0;#P connect 25 0 23 0;#P fasten 21 0 22 0 365 217 353 217 353 168 365 168;#P connect 23 0 22 0;#P fasten 23 1 21 0 414 191 365 191;#P connect 22 0 21 0;#P fasten 30 0 27 0 559 103 504 103;#P connect 24 0 27 0;#P connect 42 0 41 0;#P connect 0 0 54 0;#P connect 50 0 51 0;#P fasten 48 0 55 0 699 354 661 354;#P connect 55 0 56 0;#P fasten 28 0 29 0 754 103 698 103;#P connect 31 0 29 0;#P connect 49 0 48 0;#P connect 48 0 47 0;#P fasten 56 0 39 0 661 396 699 396;#P connect 47 0 39 0;#P connect 40 0 47 1;#P connect 58 0 57 0;#P fasten 36 0 38 0 895 103 880 103;#P connect 38 0 37 0;#P connect 45 0 46 0;#P connect 46 0 44 0;#P connect 52 0 33 0;#P connect 33 0 36 0;#P connect 36 0 32 0;#P connect 32 0 34 0;#P connect 34 0 35 0;#P pop;#P hidden newobj 110 214 172 196626 p TRACK-ALGO $1;#P window setfont "Sans Serif" 9.;#P hidden user ubumenu 7 55 80 196617 1 0 1 1;#X setrgb 255 255 255 102 102 102 116 116 116 4 4 4 102 102 102 45 45 45;#X add Open sound;#X prefix_set 0 0 <none> 0;#X pattrmode 1;#P objectname open-snd;#P user ubumenu 47 120 43 196617 0 1 1 1;#X setrgb 0 0 0 222 222 222 116 116 116 4 4 4 141 141 141 112 112 112;#X add ÊOFF;#X add bus 1;#X add bus 2;#X add bus 3;#X add bus 4;#X add bus 5;#X add bus 6;#X add bus 7;#X add bus 8;#X add bus-L;#X add bus-R;#X prefix_set 0 0 <none> 0;#X pattrmode 1;#P objectname bussend;#P user ubumenu 7 40 80 196617 0 1 1 1;#X setrgb 255 255 255 50 50 50 116 116 116 4 4 4 141 141 141 112 112 112;#X add audiofile;#X add input patch;#X prefix_set 0 0 <none> 0;#X pattrmode 1;#P objectname audio-in;#P hidden comment 6 87 29 196617 lgth;#B frgb 255 255 255;#P objectname c1;#N thispatcher;#Q end;#P hidden newobj 110 274 60 196617 thispatcher;#P hidden inlet 110 251 15 0;#P hidden number 28 85 18 9 0 59 8355 3 255 255 255 221 221 221 222 222 222 0 0 0;#P noclick;#P objectname c2;#P hidden number 68 85 18 9 0 59 8355 3 255 255 255 221 221 221 222 222 222 0 0 0;#P noclick;#P objectname c4;#P hidden number 48 85 18 9 0 59 8355 3 255 255 255 221 221 221 222 222 222 0 0 0;#P noclick;#P objectname c3;#P hidden comment 41 86 11 196617 :;#B frgb 255 255 255;#P noclick;#P objectname c6;#P hidden comment 61 86 11 196617 :;#B frgb 255 255 255;#P noclick;#P objectname c5;#P comment 21 121 30 196617 send;#B frgb 255 255 255;#P hidden user ubumenu 7 70 80 196617 0 1 1 1;#X setrgb 255 255 255 45 45 45 116 116 116 4 4 4 141 141 141 112 112 112;#X add blips_flangeshift-120bpm.aif;#X add bloups_flangeshift-120bpm.aif;#X add flange_chant;#X add flange_chant2->Granuls;#X add flange_chant2->Granuls2;#X add flange_chant2.aif;#X add flange_shift_chant;#X add granul_cliceti_bois.aif;#X add nasty_sheppy.aif;#X add seachorre.aif;#X prefix_set 0 0 <none> 0;#X pattrmode 1;#P objectname chosen-snd;#P user panel 4 37 85 82;#X brgb 45 45 45;#X frgb 0 0 0;#X border 1;#X rounded 0;#X shadow 2;#X done;#P user panel 7 333 82 27;#X brgb 45 45 45;#X frgb 0 0 0;#X border 1;#X rounded 0;#X shadow 1;#X done;#P bpatcher 0 189 90 145 -90 0 tranche-bp.pat 0 $1 $2;#P user hint 49 4 88 22 "Reset current track" 1000 100 0 65535 65535 52428 9 3 0 1 0 0 0;#P user ubumenu 47 5 40 196617 1 0 1 1;#X setrgb 255 255 255 102 102 102 116 116 116 4 4 4 102 102 102 45 45 45;#X add Reset;#X prefix_set 0 0 <none> 0;#X pattrmode 1;#P user hint 5 3 46 20 "Track Number" 1000 100 0 65535 65535 52428 9 3 0 1 0 0 0;#P window setfont "Sans Serif" 12.;#P comment 4 3 77 196620 $1;#B frgb 255 255 255;#P user hint 7 87 89 101 "Current sound length" 1000 100 0 65535 65535 52428 9 3 0 1 0 0 0;#P user dropfile 0 0 90 360 0;#P background;#P user panel 0 0 90 360;#X brgb 100 100 100;#X frgb 0 0 0;#X border 1;#X rounded 0;#X shadow 1;#X done;#P background;#P hidden connect 39 0 7 0;#P hidden connect 1 0 26 0;#P hidden connect 28 0 27 0;#P hidden connect 35 1 34 0;#P hidden connect 35 3 29 0;#P hidden connect 44 0 39 0;#P hidden connect 31 0 20 0;#P hidden connect 25 1 22 0;#P hidden connect 31 1 10 0;#P hidden connect 31 5 30 0;#P hidden connect 38 1 36 0;#P hidden connect 38 0 37 0;#P hidden connect 25 1 16 0;#P hidden connect 31 2 16 0;#P hidden connect 35 0 21 0;#P hidden connect 35 2 33 0;#P hidden connect 25 1 14 0;#P hidden connect 31 3 14 0;#P hidden connect 31 6 32 0;#P hidden connect 25 1 15 0;#P hidden connect 31 4 15 0;#P hidden connect 46 0 45 0;#P hidden connect 1 1 26 1;#P hidden connect 5 0 28 0;#P hidden connect 20 0 31 0;#P hidden connect 21 0 35 0;#P hidden connect 37 0 38 0;#P hidden connect 45 0 46 0;#P hidden connect 17 0 18 0;#P hidden fasten 24 0 18 0 135 270 115 270;#P hidden connect 22 0 31 1;#P hidden connect 34 2 35 1;#P hidden connect 10 0 31 2;#P hidden connect 33 2 35 2;#P hidden connect 40 0 41 0;#P hidden connect 30 2 31 3;#P hidden connect 32 2 31 4;#P hidden connect 29 0 35 3;#P hidden fasten 40 0 43 0 169 169 225 169;#P hidden connect 43 0 42 0;#P pop;