max v2;
#N vpatcher 316 117 1199 809;
#P origin 66 267;
#P setbglock 1;
#P window setfont "Sans Serif" 9.;
#P hidden newex 94 78 32 9109513 sel 0;
#P hidden newex 139 78 97 9109513 s newTrack;
#B color 5;
#P hidden newex 101 222 101 9109513 sw revplug;
#B color 5;
#P user hint 3 253 53 273 "Choose the type of the reverb" 1000 100 0 65535 65535 52428 9 3 0 1 0 0 0;
#P user ubumenu 2 254 48 9109513 0 1 1 0;
#X add default;
#X add plugin;
#X prefix_set 0 0 <none> 0;
#X pattrmode 1;
#P user hint 13 323 46 366 "Aux master volume (dB)" 1000 100 0 65535 65535 52428 9 3 0 1 0 0 0;
#P user hint 13 272 46 315 "Reverb master volume (dB)" 1000 100 0 65535 65535 52428 9 3 0 1 0 0 0;
#P user hint 49 251 81 374 "Master volume (dB)" 1000 100 0 65535 65535 52428 9 3 0 1 0 0 0;
#P user hint 68 165 90 197 "Enables/Disable all tracks recording" 1000 100 0 65535 65535 52428 9 3 0 1 0 0 0;
#P user hint 4 141 90 161 "Sets all tracks on/off" 1000 100 0 65535 65535 52428 9 3 0 1 0 0 0;
#P user hint 4 119 90 139 "Sets all tracks loop on/off" 1000 100 0 65535 65535 52428 9 3 0 1 0 0 0;
#P user hint 4 97 90 117 "Sets all tracks doppler on/off" 1000 100 0 65535 65535 52428 9 3 0 1 0 0 0;
#P user hint 3 60 88 76 "Clear sound menu" 1000 100 0 65535 65535 52428 9 3 0 1 0 0 0;
#P user hint 3 42 88 58 "Add a folder to sound menu" 1000 100 0 65535 65535 52428 9 3 0 1 0 0 0;
#P user hint 3 24 88 40 "Init all tracks" 1000 100 0 65535 65535 52428 9 3 0 1 0 0 0;
#P hidden newex 92 180 64 9109513 s all-record;
#B color 5;
#P user led 70 179 17 17 0 150;
#N vpatcher 10 59 742 221;
#P window setfont "Sans Serif" 9.;
#P newex 471 15 50 9109513 r all-swi;
#B color 5;
#P newex 399 57 58 9109513 sw all-swi;
#B color 5;
#P message 486 57 92 9109513 frgb 255 255 255;
#P newex 471 35 41 9109513 sel 1 0;
#P newex 399 35 62 9109513 route toggle;
#P message 399 79 51 9109513 toggle \$1;
#P newex 596 54 95 9109513 sw all-holo.control;
#B color 5;
#P newex 283 17 61 9109513 r all-sfloop;
#B color 5;
#P newex 208 59 69 9109513 sw all-sfloop;
#B color 5;
#P message 298 59 92 9109513 frgb 255 255 255;
#P newex 283 37 41 9109513 sel 1 0;
#P newex 208 37 62 9109513 route toggle;
#P message 208 81 51 9109513 toggle \$1;
#P newex 94 19 67 9109513 r all-doppler;
#B color 5;
#P newex 12 61 75 9109513 sw all-doppler;
#B color 5;
#P message 109 61 92 9109513 frgb 255 255 255;
#P newex 94 39 41 9109513 sel 1 0;
#P newex 12 39 62 9109513 route toggle;
#P message 12 83 51 9109513 toggle \$1;
#P inlet 596 34 15 0;
#P inlet 399 15 15 0;
#P inlet 208 17 15 0;
#P inlet 12 19 15 0;
#P outlet 596 76 15 0;
#P outlet 399 99 15 0;
#P outlet 208 101 15 0;
#P outlet 12 103 15 0;
#P message 471 79 56 9109513 frgb 0 0 0;
#P message 283 81 56 9109513 frgb 0 0 0;
#P message 94 83 56 9109513 frgb 0 0 0;
#P connect 7 0 12 0;
#P connect 12 0 15 0;
#P connect 15 0 11 0;
#P fasten 14 0 3 0 114 102 17 102;
#P fasten 0 0 3 0 99 100 17 100;
#P connect 11 0 3 0;
#P connect 16 0 13 0;
#P connect 13 0 0 0;
#P connect 13 1 14 0;
#P connect 8 0 18 0;
#P connect 18 0 21 0;
#P connect 21 0 17 0;
#P fasten 1 0 4 0 288 98 213 98;
#P fasten 20 0 4 0 303 100 213 100;
#P connect 17 0 4 0;
#P connect 22 0 19 0;
#P connect 19 0 1 0;
#P connect 19 1 20 0;
#P connect 9 0 25 0;
#P connect 25 0 28 0;
#P connect 28 0 24 0;
#P fasten 27 0 5 0 491 98 404 98;
#P fasten 2 0 5 0 476 96 404 96;
#P connect 24 0 5 0;
#P connect 29 0 26 0;
#P connect 26 0 2 0;
#P connect 26 1 27 0;
#P connect 10 0 23 0;
#P connect 23 0 6 0;
#P pop;
#P hidden newobj 99 116 111 9109513 p master-control-sets;
#P hidden newex 102 200 54 9109513 s all-visu;
#B color 5;
#P hidden newex 94 42 32 9109513 sel 0;
#P hidden newex 94 60 32 9109513 sel 0;
#P window setfont "Sans Serif" 10.;
#P user ubumenu 3 139 84 9109514 1 0 1 1;
#X setrgb 255 255 255 25 25 25 116 116 116 4 4 4 222 222 222 45 45 45;
#X add On (all);
#X prefix_set 0 0 <none> 0;
#X pattrmode 1;
#P user ubumenu 3 119 84 9109514 1 0 1 1;
#X setrgb 255 255 255 25 25 25 116 116 116 4 4 4 222 222 222 45 45 45;
#X add Loop (all);
#X prefix_set 0 0 <none> 0;
#X pattrmode 1;
#P user ubumenu 3 99 84 9109514 1 0 1 1;
#X setrgb 255 255 255 25 25 25 116 116 116 4 4 4 222 222 222 45 45 45;
#X add Doppler (all);
#X prefix_set 0 0 <none> 0;
#X pattrmode 1;
#P window setfont "Sans Serif" 9.;
#P user ubumenu 3 60 84 9109513 1 0 1 1;
#X setrgb 255 255 255 102 102 102 116 116 116 4 4 4 102 102 102 45 45 45;
#X add Clear file menu;
#X prefix_set 0 0 <none> 0;
#X pattrmode 1;
#P user ubumenu 3 42 84 9109513 1 0 1 1;
#X setrgb 255 255 255 102 102 102 116 116 116 4 4 4 102 102 102 45 45 45;
#X add Add folder;
#X prefix_set 0 0 <none> 0;
#X pattrmode 1;
#P user ubumenu 3 24 84 9109513 1 0 1 1;
#X setrgb 255 255 255 102 102 102 116 116 116 4 4 4 102 102 102 45 45 45;
#X add Init;
#X prefix_set 0 0 <none> 0;
#X pattrmode 1;
#P user ubutton 45 238 38 12 0 0;
#N vpatcher 10 59 286 594;
#P window setfont "Sans Serif" 9.;
#P newex 50 113 56 9109513 clip 0 128;
#P newex 50 256 56 9109513 clip 0 159;
#P newex 50 183 56 9109513 clip 0 128;
#P newex 50 92 92 9109513 sw masterrev128;
#B color 5;
#P newex 132 50 61 9109513 r 0revMid;
#B color 5;
#P newex 50 72 92 9109513 link 0 127 0. 128.;
#P newex 50 161 92 9109513 sw masteraux128;
#B color 5;
#P newex 132 119 61 9109513 r 0auxMid;
#B color 5;
#P newex 50 141 92 9109513 link 0 127 0 128.;
#P newex 50 234 90 9109513 sw mastervol128;
#B color 5;
#P newex 132 192 61 9109513 r 0volMid;
#B color 5;
#P newex 50 214 92 9109513 link 0 127 0. 158.;
#P newex 50 453 101 9109513 sw mastervoldb;
#B color 5;
#P newex 100 433 101 9109513 sw mastervol128;
#B color 5;
#N vpatcher 702 147 1159 378;
#P window setfont "Sans Serif" 9.;
#P window linecount 0;
#P newex 85 78 21 9109513 t 1;
#P newex 64 78 21 9109513 t 0;
#P newex 64 37 53 9109513 sel 0 128;
#P window linecount 1;
#P newex 64 154 34 9109513 atodb;
#P newex 25 37 34 9109513 dbtoa;
#P outlet 106 181 15 0;
#P inlet 64 15 15 0;
#P outlet 64 181 15 0;
#P inlet 25 16 15 0;
#P newex 106 154 279 9109513 expr ln($f1/($f3 * exp(-$f2 * log($f4))))/log($f4);
#P newex 106 78 277 9109513 expr $f3 * exp(-$f2 * log($f4)) * exp($f1 * log($f4));
#P newex 195 28 48 9109513 loadbang;
#P message 373 57 55 9109513 1.071519;
#P message 284 57 49 9109513 7.94231;
#P message 195 57 26 9109513 158;
#P connect 6 0 10 0;
#P connect 8 0 12 0;
#P connect 12 0 13 0;
#P fasten 4 0 11 0 111 103 69 103;
#P fasten 14 0 11 0 90 103 69 103;
#P fasten 13 0 11 0 69 128 69 128;
#P connect 11 0 7 0;
#P connect 12 1 14 0;
#P connect 12 2 4 0;
#P fasten 10 0 5 0 30 127 62 127 62 120 74 120 74 126 111 126;
#P connect 5 0 9 0;
#P connect 3 0 0 0;
#P connect 0 0 4 1;
#P connect 0 0 5 1;
#P fasten 3 0 1 0 200 51 289 51;
#P connect 1 0 4 2;
#P connect 1 0 5 2;
#P fasten 3 0 2 0 200 51 378 51;
#P connect 2 0 4 3;
#P connect 2 0 5 3;
#P pop;
#P newobj 50 412 60 9109513 p db<->128;
#P newex 50 391 101 9109513 sw masterauxdb;
#B color 5;
#P newex 100 371 101 9109513 sw masteraux128;
#B color 5;
#N vpatcher 702 147 1159 378;
#P window setfont "Sans Serif" 9.;
#P window linecount 0;
#P newex 85 78 21 9109513 t 1;
#P newex 64 78 21 9109513 t 0;
#P newex 64 37 53 9109513 sel 0 128;
#P window linecount 1;
#P newex 64 154 34 9109513 atodb;
#P newex 25 37 34 9109513 dbtoa;
#P outlet 106 181 15 0;
#P inlet 64 15 15 0;
#P outlet 64 181 15 0;
#P inlet 25 16 15 0;
#P newex 106 154 279 9109513 expr ln($f1/($f3 * exp(-$f2 * log($f4))))/log($f4);
#P newex 106 78 277 9109513 expr $f3 * exp(-$f2 * log($f4)) * exp($f1 * log($f4));
#P newex 195 28 48 9109513 loadbang;
#P message 373 57 55 9109513 1.071519;
#P message 284 57 49 9109513 7.94231;
#P message 195 57 26 9109513 158;
#P connect 6 0 10 0;
#P connect 8 0 12 0;
#P connect 12 0 13 0;
#P fasten 13 0 11 0 69 128 69 128;
#P fasten 14 0 11 0 90 103 69 103;
#P fasten 4 0 11 0 111 103 69 103;
#P connect 11 0 7 0;
#P connect 12 1 14 0;
#P connect 12 2 4 0;
#P fasten 10 0 5 0 30 127 62 127 62 120 74 120 74 126 111 126;
#P connect 5 0 9 0;
#P connect 3 0 0 0;
#P connect 0 0 4 1;
#P connect 0 0 5 1;
#P fasten 3 0 1 0 200 51 289 51;
#P connect 1 0 4 2;
#P connect 1 0 5 2;
#P fasten 3 0 2 0 200 51 378 51;
#P connect 2 0 4 3;
#P connect 2 0 5 3;
#P pop;
#P newobj 50 350 60 9109513 p db<->128;
#P newex 50 326 101 9109513 sw masterrevdb;
#B color 5;
#P newex 100 306 101 9109513 sw masterrev128;
#B color 5;
#N vpatcher 702 147 1159 378;
#P window setfont "Sans Serif" 9.;
#P window linecount 0;
#P newex 85 78 21 9109513 t 1;
#P newex 64 78 21 9109513 t 0;
#P newex 64 37 53 9109513 sel 0 128;
#P window linecount 1;
#P newex 64 154 34 9109513 atodb;
#P newex 25 37 34 9109513 dbtoa;
#P outlet 106 181 15 0;
#P inlet 64 15 15 0;
#P outlet 64 181 15 0;
#P inlet 25 16 15 0;
#P newex 106 154 279 9109513 expr ln($f1/($f3 * exp(-$f2 * log($f4))))/log($f4);
#P newex 106 78 277 9109513 expr $f3 * exp(-$f2 * log($f4)) * exp($f1 * log($f4));
#P newex 195 28 48 9109513 loadbang;
#P message 373 57 55 9109513 1.071519;
#P message 284 57 49 9109513 7.94231;
#P message 195 57 26 9109513 158;
#P connect 6 0 10 0;
#P connect 8 0 12 0;
#P connect 12 0 13 0;
#P fasten 4 0 11 0 111 103 69 103;
#P fasten 14 0 11 0 90 103 69 103;
#P fasten 13 0 11 0 69 128 69 128;
#P connect 11 0 7 0;
#P connect 12 1 14 0;
#P connect 12 2 4 0;
#P fasten 10 0 5 0 30 127 62 127 62 120 74 120 74 126 111 126;
#P connect 5 0 9 0;
#P connect 3 0 0 0;
#P connect 0 0 4 1;
#P connect 0 0 5 1;
#P fasten 3 0 1 0 200 51 289 51;
#P connect 1 0 4 2;
#P connect 1 0 5 2;
#P fasten 3 0 2 0 200 51 378 51;
#P connect 2 0 4 3;
#P connect 2 0 5 3;
#P pop;
#P newobj 50 285 60 9109513 p db<->128;
#P connect 20 0 15 0;
#P connect 15 0 17 0;
#P connect 17 0 20 0;
#P connect 18 0 12 0;
#P connect 12 0 14 0;
#P connect 14 0 18 0;
#P connect 19 0 9 0;
#P connect 9 0 11 0;
#P connect 11 0 19 0;
#P connect 2 0 0 0;
#P connect 0 0 2 0;
#P connect 5 0 3 0;
#P connect 3 0 5 0;
#P connect 8 0 6 0;
#P connect 6 0 8 0;
#P connect 1 0 0 1;
#P connect 0 1 1 0;
#P connect 4 0 3 1;
#P connect 3 1 4 0;
#P connect 7 0 6 1;
#P connect 6 1 7 0;
#P connect 16 0 15 1;
#P connect 13 0 12 1;
#P connect 10 0 9 1;
#P pop;
#P hidden newobj 338 471 131 9109513 p master-midi-db-controls;
#P hidden newex 139 60 97 9109513 s clear_filemenu;
#B color 5;
#N vpatcher 10 59 203 210;
#P window setfont "Sans Serif" 9.;
#P window linecount 1;
#P newex 99 106 64 9109513 s folderpath;
#B color 5;
#P newex 9 106 75 9109513 s path-openfile;
#B color 5;
#P window linecount 0;
#P newex 9 82 130 9109513 route WAVE Sd2f AIFF fold;
#P newex 47 32 62 9109513 prepend set;
#P newex 9 58 62 9109513 prepend set;
#P inlet 47 13 15 0;
#P inlet 9 13 15 0;
#P connect 0 0 2 0;
#P fasten 3 0 2 0 52 52 14 52;
#P connect 2 0 4 0;
#P fasten 4 0 5 0 14 102 14 102;
#P fasten 4 1 5 0 44 102 14 102;
#P fasten 4 2 5 0 74 102 14 102;
#P connect 1 0 3 0;
#P connect 4 3 6 0;
#P pop;
#P hidden newobj 1 385 93 9109513 p drop-file master;
#P hidden newex 139 42 97 9109513 s chooseSfFolder;
#B color 5;
#P hidden newex 227 347 50 9109513 autopattr;
#X prestore auxmaster 1 0 -100.;
#X prestore revmaster 1 0 0.;
#P objectname u879000157;
#P window linecount 7;
#P hidden message 275 98 98 9109513 \; all-swspat 0 \; all-sfloop 0 \; all-swi 0 \; masterauxdb -100 \; masterrevdb -100 \; mastervoldb -100;
#P window linecount 1;
#P hidden newex 275 74 55 9109513 r all-clear;
#B color 5;
#P window linecount 2;
#P hidden message 44 475 101 9109513 \; masterrevdb -100;
#P hidden message 44 504 101 9109513 \; masterauxdb -100;
#P hidden message 44 447 101 9109513 \; mastervoldb 0;
#P user pictslider 57 253 17 108 1 1 0 1 cubaseredKnob.pct 1 cubaseTrack.pct 1 2306 0 10420351 0 1. 1.;
#P flonum 15 301 33 9 -100. 0. 8227 139 222 222 222 255 189 156 222 222 222 0 0 0;
#P objectname revmaster;
#P user dial 18 282 23 23 129 1 0 0 242 270 1 1. 222 222 222 221 221 221 222 222 222 0 0 0 0 0 0 0 0 0;
#P user bargraf~ 5 280 33 13 20 0 0 0 0 50 50 50 0 186 0 77 202 0 124 225 0 255 255 0 255 0 0 50 50 50 50 50 50 50 50 50 50 50 50 50 50 50 12 1;
#P window linecount 1;
#P hidden newex 101 303 101 9109513 r vu-aux;
#B color 5;
#P hidden newex 101 243 101 9109513 r vu-rev;
#B color 5;
#P hidden newex 139 24 97 9109513 s init;
#B color 5;
#P flonum 48 360 32 9 -100. 18. 8227 139 255 255 255 255 255 255 255 252 75 0 0 0;
#P hidden newex 101 283 101 9109513 sw masterrevdb;
#B color 5;
#P hidden newex 101 383 101 9109513 sw mastervoldb;
#B color 5;
#P hidden newex 101 343 101 9109513 sw masterauxdb;
#B color 5;
#P hidden newex 101 363 101 9109513 sw mastervol128;
#B color 5;
#P hidden newex 101 323 101 9109513 sw masteraux128;
#B color 5;
#P hidden newex 101 263 101 9109513 sw masterrev128;
#B color 5;
#N thispatcher;
#Q end;
#P hidden newobj 275 51 60 9109513 thispatcher;
#P hidden inlet 275 31 15 0;
#P comment 47 271 39 9109513 _____;
#B color 10;
#P comment 16 271 24 9109513 rev;
#B frgb 222 222 222;
#P flonum 15 352 33 9 -100. 0. 8227 139 222 222 222 255 227 23 222 222 222 0 0 0;
#P objectname auxmaster;
#P user dial 18 332 23 23 129 1 0 0 242 270 1 1. 222 222 222 221 221 221 222 222 222 0 0 0 0 0 0 0 0 0;
#P user bargraf~ 5 331 33 13 20 0 0 0 0 50 50 50 0 186 0 77 202 0 124 225 0 255 255 0 255 0 0 50 50 50 50 50 50 50 50 50 50 50 50 50 50 50 12 1;
#P user ubutton 19 322 21 10 0 0;
#P comment 18 320 24 9109513 aux;
#B frgb 222 222 222;
#P user ubutton 17 271 21 10 0 0;
#P comment 46 238 42 9109513 master;
#B frgb 222 222 222;
#P hidden newex 94 24 32 9109513 sel 0;
#P user hint 3 78 88 94 "Add a new track" 1000 100 0 65535 65535 52428 9 3 0 1 0 0 0;
#P user ubumenu 3 78 84 9109513 1 0 1 1;
#X setrgb 255 255 255 102 102 102 116 116 116 4 4 4 102 102 102 45 45 45;
#X add New Track;
#X prefix_set 0 0 <none> 0;
#X pattrmode 1;
#P user hint 3 165 69 196 "Sets how tracks are controlled by Holo-Edit (either file or network)" 1000 100 0 65535 65535 52428 9 3 0 1 0 0 0;
#P window setfont "Sans Serif" 10.;
#P user ubumenu 3 178 66 9109514 0 1 1 1;
#X setrgb 0 0 0 222 222 222 150 150 150 4 4 4 141 141 141 112 112 112;
#X add off;
#X add position;
#X add sound;
#X add sound+position;
#X prefix_set 0 0 <none> 0;
#X pattrmode 1;
#P window setfont "Sans Serif" 9.;
#P comment 2 165 87 9109513 holo-edit-control;
#B frgb 255 255 255;
#P user hint 4 207 87 233 "Sets all tracks visualisation (gain / position)" 1000 100 0 65535 65535 52428 9 3 0 1 0 0 0;
#P user ubumenu 3 217 84 9109513 0 1 1 1;
#X setrgb 255 255 255 50 50 50 116 116 116 4 4 4 141 141 141 112 112 112;
#X add gain control;
#X add position control;
#X prefix_set 0 0 <none> 0;
#X pattrmode 1;
#P comment 4 206 67 9109513 visualisation;
#B frgb 255 255 255;
#P user dropfile 1 21 89 379 0;
#P background;
#P user panel 0 21 90 360;
#X brgb 50 50 50;
#X frgb 0 0 0;
#X border 1;
#X rounded 0;
#X shadow 2;
#X done;
#P background;
#P hidden connect 1 0 43 0;
#P hidden connect 71 0 69 0;
#P hidden connect 56 0 50 0;
#P hidden connect 56 1 51 0;
#P hidden connect 56 2 52 0;
#P hidden connect 56 3 6 0;
#P hidden connect 30 0 32 0;
#P hidden connect 31 0 15 0;
#P hidden connect 27 0 34 0;
#P hidden connect 25 0 17 0;
#P hidden connect 22 0 33 0;
#P hidden connect 23 0 16 0;
#P hidden connect 46 0 36 0;
#P hidden connect 12 0 38 0;
#P hidden connect 14 0 37 0;
#P hidden connect 26 0 28 0;
#P hidden connect 24 0 35 1;
#P hidden connect 1 1 43 1;
#P hidden connect 57 0 58 0;
#P hidden connect 47 0 10 0;
#P hidden connect 48 0 54 0;
#P hidden connect 49 0 53 0;
#P hidden connect 8 0 73 0;
#P hidden connect 50 2 56 0;
#P hidden connect 69 0 71 0;
#P hidden connect 33 0 22 0;
#P hidden connect 34 0 27 0;
#P hidden connect 16 0 23 0;
#P hidden connect 17 0 25 0;
#P hidden connect 35 1 24 0;
#P hidden connect 28 0 26 0;
#P hidden connect 3 0 55 0;
#P hidden connect 51 2 56 1;
#P hidden connect 10 0 29 0;
#P hidden connect 54 0 42 0;
#P hidden connect 53 0 44 0;
#P hidden connect 73 0 72 0;
#P hidden connect 52 2 56 2;
#P hidden connect 6 0 56 3;
#P hidden connect 20 0 21 0;
#P hidden connect 39 0 40 0;
#P pop;
