{
	"patcher" : 	{
		"fileversion" : 1,
		"rect" : [ 197.0, 75.0, 455.0, 350.0 ],
		"bglocked" : 0,
		"defrect" : [ 197.0, 75.0, 455.0, 350.0 ],
		"openrect" : [ 0.0, 0.0, 0.0, 0.0 ],
		"openinpresentation" : 0,
		"default_fontsize" : 10.0,
		"default_fontface" : 0,
		"default_fontname" : "Verdana",
		"gridonopen" : 0,
		"gridsize" : [ 5.0, 5.0 ],
		"gridsnaponopen" : 0,
		"toolbarvisible" : 1,
		"boxanimatetime" : 200,
		"imprint" : 0,
		"metadata" : [  ],
		"boxes" : [ 			{
				"box" : 				{
					"maxclass" : "outlet",
					"patching_rect" : [ 160.0, 270.0, 31.0, 31.0 ],
					"numinlets" : 1,
					"id" : "obj-1",
					"numoutlets" : 0,
					"comment" : ""
				}

			}
, 			{
				"box" : 				{
					"maxclass" : "newobj",
					"text" : "zl group 5",
					"outlettype" : [ "", "" ],
					"fontsize" : 10.0,
					"patching_rect" : [ 160.0, 240.0, 59.0, 19.0 ],
					"numinlets" : 2,
					"id" : "obj-2",
					"fontname" : "Verdana",
					"numoutlets" : 2
				}

			}
, 			{
				"box" : 				{
					"maxclass" : "newobj",
					"text" : "prepend speaker",
					"outlettype" : [ "" ],
					"fontsize" : 10.0,
					"patching_rect" : [ 215.0, 210.0, 95.0, 19.0 ],
					"numinlets" : 1,
					"id" : "obj-3",
					"fontname" : "Verdana",
					"numoutlets" : 1
				}

			}
, 			{
				"box" : 				{
					"maxclass" : "newobj",
					"text" : "t dump",
					"outlettype" : [ "dump" ],
					"fontsize" : 10.0,
					"patching_rect" : [ 285.0, 140.0, 46.0, 19.0 ],
					"numinlets" : 1,
					"id" : "obj-4",
					"fontname" : "Verdana",
					"numoutlets" : 1
				}

			}
, 			{
				"box" : 				{
					"maxclass" : "newobj",
					"text" : "p speaker_setup",
					"outlettype" : [ "clear" ],
					"fontsize" : 10.0,
					"patching_rect" : [ 160.0, 140.0, 92.0, 19.0 ],
					"numinlets" : 1,
					"id" : "obj-5",
					"fontname" : "Verdana",
					"numoutlets" : 1,
					"patcher" : 					{
						"fileversion" : 1,
						"rect" : [ 10.0, 59.0, 397.0, 440.0 ],
						"bglocked" : 0,
						"defrect" : [ 10.0, 59.0, 397.0, 440.0 ],
						"openrect" : [ 0.0, 0.0, 0.0, 0.0 ],
						"openinpresentation" : 0,
						"default_fontsize" : 10.0,
						"default_fontface" : 0,
						"default_fontname" : "Verdana",
						"gridonopen" : 0,
						"gridsize" : [ 5.0, 5.0 ],
						"gridsnaponopen" : 0,
						"toolbarvisible" : 1,
						"boxanimatetime" : 200,
						"imprint" : 0,
						"metadata" : [  ],
						"boxes" : [ 							{
								"box" : 								{
									"maxclass" : "newobj",
									"text" : "print jcom.dbap",
									"fontsize" : 10.0,
									"patching_rect" : [ 115.0, 140.0, 88.0, 19.0 ],
									"numinlets" : 1,
									"id" : "obj-1",
									"fontname" : "Verdana",
									"numoutlets" : 0
								}

							}
, 							{
								"box" : 								{
									"maxclass" : "newobj",
									"text" : "if $i1 then List of positions not a multiple of 3",
									"outlettype" : [ "" ],
									"fontsize" : 10.0,
									"patching_rect" : [ 115.0, 115.0, 238.0, 19.0 ],
									"numinlets" : 1,
									"id" : "obj-2",
									"fontname" : "Verdana",
									"numoutlets" : 1
								}

							}
, 							{
								"box" : 								{
									"maxclass" : "newobj",
									"text" : "% 3",
									"outlettype" : [ "int" ],
									"fontsize" : 10.0,
									"patching_rect" : [ 115.0, 85.0, 29.0, 19.0 ],
									"numinlets" : 2,
									"id" : "obj-3",
									"fontname" : "Verdana",
									"numoutlets" : 1
								}

							}
, 							{
								"box" : 								{
									"maxclass" : "newobj",
									"text" : "t b l",
									"outlettype" : [ "bang", "" ],
									"fontsize" : 10.0,
									"patching_rect" : [ 45.0, 270.0, 28.0, 19.0 ],
									"numinlets" : 1,
									"id" : "obj-4",
									"fontname" : "Verdana",
									"numoutlets" : 2
								}

							}
, 							{
								"box" : 								{
									"maxclass" : "newobj",
									"text" : "zl join",
									"outlettype" : [ "", "" ],
									"fontsize" : 10.0,
									"patching_rect" : [ 45.0, 320.0, 108.0, 19.0 ],
									"numinlets" : 2,
									"id" : "obj-5",
									"fontname" : "Verdana",
									"numoutlets" : 2
								}

							}
, 							{
								"box" : 								{
									"maxclass" : "newobj",
									"text" : "t l 0 clear",
									"outlettype" : [ "", "int", "clear" ],
									"fontsize" : 10.0,
									"patching_rect" : [ 45.0, 220.0, 184.0, 19.0 ],
									"numinlets" : 1,
									"id" : "obj-6",
									"fontname" : "Verdana",
									"numoutlets" : 3
								}

							}
, 							{
								"box" : 								{
									"maxclass" : "newobj",
									"text" : "counter 0 0 999",
									"outlettype" : [ "int", "", "", "int" ],
									"fontsize" : 10.0,
									"patching_rect" : [ 45.0, 295.0, 89.0, 19.0 ],
									"numinlets" : 5,
									"id" : "obj-7",
									"fontname" : "Verdana",
									"numoutlets" : 4
								}

							}
, 							{
								"box" : 								{
									"maxclass" : "newobj",
									"text" : "zl slice",
									"outlettype" : [ "", "" ],
									"fontsize" : 10.0,
									"patching_rect" : [ 45.0, 195.0, 44.0, 19.0 ],
									"numinlets" : 2,
									"id" : "obj-8",
									"fontname" : "Verdana",
									"numoutlets" : 2
								}

							}
, 							{
								"box" : 								{
									"maxclass" : "newobj",
									"text" : "* 3",
									"outlettype" : [ "int" ],
									"fontsize" : 10.0,
									"patching_rect" : [ 70.0, 110.0, 27.0, 19.0 ],
									"numinlets" : 2,
									"id" : "obj-9",
									"fontname" : "Verdana",
									"numoutlets" : 1
								}

							}
, 							{
								"box" : 								{
									"maxclass" : "newobj",
									"text" : "/ 3",
									"outlettype" : [ "int" ],
									"fontsize" : 10.0,
									"patching_rect" : [ 70.0, 85.0, 27.0, 19.0 ],
									"numinlets" : 2,
									"id" : "obj-10",
									"fontname" : "Verdana",
									"numoutlets" : 1
								}

							}
, 							{
								"box" : 								{
									"maxclass" : "newobj",
									"text" : "zl len",
									"outlettype" : [ "", "" ],
									"fontsize" : 10.0,
									"patching_rect" : [ 70.0, 60.0, 35.0, 19.0 ],
									"numinlets" : 2,
									"id" : "obj-11",
									"fontname" : "Verdana",
									"numoutlets" : 2
								}

							}
, 							{
								"box" : 								{
									"maxclass" : "newobj",
									"text" : "zl group 3",
									"outlettype" : [ "", "" ],
									"fontsize" : 10.0,
									"patching_rect" : [ 45.0, 245.0, 59.0, 19.0 ],
									"numinlets" : 2,
									"id" : "obj-12",
									"fontname" : "Verdana",
									"numoutlets" : 2
								}

							}
, 							{
								"box" : 								{
									"maxclass" : "comment",
									"text" : "get rid of stray values",
									"fontsize" : 10.0,
									"frgb" : [ 0.337255, 0.356863, 0.690196, 1.0 ],
									"patching_rect" : [ 95.0, 195.0, 119.0, 19.0 ],
									"numinlets" : 1,
									"id" : "obj-13",
									"fontname" : "Verdana",
									"numoutlets" : 0
								}

							}
, 							{
								"box" : 								{
									"maxclass" : "inlet",
									"outlettype" : [ "" ],
									"patching_rect" : [ 45.0, 20.0, 23.0, 23.0 ],
									"numinlets" : 0,
									"id" : "obj-14",
									"numoutlets" : 1,
									"comment" : ""
								}

							}
, 							{
								"box" : 								{
									"maxclass" : "outlet",
									"patching_rect" : [ 45.0, 360.0, 23.0, 23.0 ],
									"numinlets" : 1,
									"id" : "obj-15",
									"numoutlets" : 0,
									"comment" : ""
								}

							}
 ],
						"lines" : [ 							{
								"patchline" : 								{
									"source" : [ "obj-14", 0 ],
									"destination" : [ "obj-8", 0 ],
									"hidden" : 0,
									"midpoints" : [  ]
								}

							}
, 							{
								"patchline" : 								{
									"source" : [ "obj-8", 0 ],
									"destination" : [ "obj-6", 0 ],
									"hidden" : 0,
									"midpoints" : [  ]
								}

							}
, 							{
								"patchline" : 								{
									"source" : [ "obj-6", 0 ],
									"destination" : [ "obj-12", 0 ],
									"hidden" : 0,
									"midpoints" : [  ]
								}

							}
, 							{
								"patchline" : 								{
									"source" : [ "obj-12", 0 ],
									"destination" : [ "obj-4", 0 ],
									"hidden" : 0,
									"midpoints" : [  ]
								}

							}
, 							{
								"patchline" : 								{
									"source" : [ "obj-4", 0 ],
									"destination" : [ "obj-7", 0 ],
									"hidden" : 0,
									"midpoints" : [  ]
								}

							}
, 							{
								"patchline" : 								{
									"source" : [ "obj-7", 0 ],
									"destination" : [ "obj-5", 0 ],
									"hidden" : 0,
									"midpoints" : [  ]
								}

							}
, 							{
								"patchline" : 								{
									"source" : [ "obj-6", 2 ],
									"destination" : [ "obj-15", 0 ],
									"hidden" : 0,
									"midpoints" : [ 219.5, 351.0, 54.5, 351.0 ]
								}

							}
, 							{
								"patchline" : 								{
									"source" : [ "obj-5", 0 ],
									"destination" : [ "obj-15", 0 ],
									"hidden" : 0,
									"midpoints" : [  ]
								}

							}
, 							{
								"patchline" : 								{
									"source" : [ "obj-14", 0 ],
									"destination" : [ "obj-11", 0 ],
									"hidden" : 0,
									"midpoints" : [  ]
								}

							}
, 							{
								"patchline" : 								{
									"source" : [ "obj-11", 0 ],
									"destination" : [ "obj-10", 0 ],
									"hidden" : 0,
									"midpoints" : [  ]
								}

							}
, 							{
								"patchline" : 								{
									"source" : [ "obj-10", 0 ],
									"destination" : [ "obj-9", 0 ],
									"hidden" : 0,
									"midpoints" : [  ]
								}

							}
, 							{
								"patchline" : 								{
									"source" : [ "obj-9", 0 ],
									"destination" : [ "obj-8", 1 ],
									"hidden" : 0,
									"midpoints" : [  ]
								}

							}
, 							{
								"patchline" : 								{
									"source" : [ "obj-6", 1 ],
									"destination" : [ "obj-7", 2 ],
									"hidden" : 0,
									"midpoints" : [  ]
								}

							}
, 							{
								"patchline" : 								{
									"source" : [ "obj-11", 0 ],
									"destination" : [ "obj-3", 0 ],
									"hidden" : 0,
									"midpoints" : [ 79.5, 81.0, 124.5, 81.0 ]
								}

							}
, 							{
								"patchline" : 								{
									"source" : [ "obj-3", 0 ],
									"destination" : [ "obj-2", 0 ],
									"hidden" : 0,
									"midpoints" : [  ]
								}

							}
, 							{
								"patchline" : 								{
									"source" : [ "obj-2", 0 ],
									"destination" : [ "obj-1", 0 ],
									"hidden" : 0,
									"midpoints" : [  ]
								}

							}
, 							{
								"patchline" : 								{
									"source" : [ "obj-4", 1 ],
									"destination" : [ "obj-5", 1 ],
									"hidden" : 0,
									"midpoints" : [ 63.5, 292.0, 143.5, 292.0 ]
								}

							}
 ]
					}
,
					"saved_object_attributes" : 					{
						"fontface" : 0,
						"fontsize" : 10.0,
						"default_fontface" : 0,
						"fontname" : "Verdana",
						"default_fontname" : "Verdana",
						"globalpatchername" : "",
						"default_fontsize" : 10.0
					}

				}

			}
, 			{
				"box" : 				{
					"maxclass" : "inlet",
					"outlettype" : [ "" ],
					"patching_rect" : [ 35.0, 55.0, 31.0, 31.0 ],
					"numinlets" : 0,
					"id" : "obj-6",
					"numoutlets" : 1,
					"comment" : ""
				}

			}
, 			{
				"box" : 				{
					"maxclass" : "newobj",
					"text" : "patcherargs @speakers 45. 0. 1. -45. 0. 1. 135. 0. 1. -135. 0. 1.",
					"outlettype" : [ "", "" ],
					"fontsize" : 10.0,
					"patching_rect" : [ 85.0, 55.0, 336.0, 19.0 ],
					"numinlets" : 1,
					"id" : "obj-7",
					"fontname" : "Verdana",
					"numoutlets" : 2
				}

			}
, 			{
				"box" : 				{
					"maxclass" : "newobj",
					"text" : "route xyz speakers dump",
					"outlettype" : [ "", "", "", "" ],
					"fontsize" : 10.0,
					"patching_rect" : [ 35.0, 115.0, 394.0, 19.0 ],
					"numinlets" : 1,
					"id" : "obj-8",
					"fontname" : "Verdana",
					"numoutlets" : 4
				}

			}
, 			{
				"box" : 				{
					"maxclass" : "newobj",
					"text" : "listfunnel",
					"outlettype" : [ "list" ],
					"fontsize" : 10.0,
					"patching_rect" : [ 35.0, 195.0, 54.0, 19.0 ],
					"numinlets" : 1,
					"id" : "obj-9",
					"fontname" : "Verdana",
					"numoutlets" : 1
				}

			}
, 			{
				"box" : 				{
					"maxclass" : "outlet",
					"patching_rect" : [ 35.0, 270.0, 31.0, 31.0 ],
					"numinlets" : 1,
					"id" : "obj-10",
					"numoutlets" : 0,
					"comment" : ""
				}

			}
, 			{
				"box" : 				{
					"maxclass" : "newobj",
					"text" : "p Calculate_levels",
					"outlettype" : [ "" ],
					"fontsize" : 10.0,
					"patching_rect" : [ 35.0, 165.0, 99.0, 19.0 ],
					"numinlets" : 1,
					"id" : "obj-11",
					"fontname" : "Verdana",
					"numoutlets" : 1,
					"patcher" : 					{
						"fileversion" : 1,
						"rect" : [ 30.0, 70.0, 469.0, 297.0 ],
						"bglocked" : 0,
						"defrect" : [ 30.0, 70.0, 469.0, 297.0 ],
						"openrect" : [ 0.0, 0.0, 0.0, 0.0 ],
						"openinpresentation" : 0,
						"default_fontsize" : 10.0,
						"default_fontface" : 0,
						"default_fontname" : "Verdana",
						"gridonopen" : 0,
						"gridsize" : [ 5.0, 5.0 ],
						"gridsnaponopen" : 0,
						"toolbarvisible" : 1,
						"boxanimatetime" : 200,
						"imprint" : 0,
						"metadata" : [  ],
						"boxes" : [ 							{
								"box" : 								{
									"maxclass" : "newobj",
									"text" : "vexpr sqrt($f1)",
									"outlettype" : [ "" ],
									"fontsize" : 10.0,
									"patching_rect" : [ 165.0, 180.0, 85.0, 19.0 ],
									"numinlets" : 1,
									"id" : "obj-1",
									"fontname" : "Verdana",
									"numoutlets" : 1
								}

							}
, 							{
								"box" : 								{
									"maxclass" : "newobj",
									"text" : "loadmess scalarmode 1",
									"outlettype" : [ "" ],
									"fontsize" : 10.0,
									"patching_rect" : [ 25.0, 95.0, 126.0, 19.0 ],
									"numinlets" : 1,
									"id" : "obj-2",
									"fontname" : "Verdana",
									"numoutlets" : 1
								}

							}
, 							{
								"box" : 								{
									"maxclass" : "newobj",
									"text" : "vexpr $f1/$f2",
									"outlettype" : [ "" ],
									"fontsize" : 10.0,
									"patching_rect" : [ 165.0, 155.0, 78.0, 19.0 ],
									"numinlets" : 2,
									"id" : "obj-3",
									"fontname" : "Verdana",
									"numoutlets" : 1
								}

							}
, 							{
								"box" : 								{
									"maxclass" : "newobj",
									"text" : "p sum",
									"outlettype" : [ "float" ],
									"fontsize" : 10.0,
									"patching_rect" : [ 235.0, 130.0, 40.0, 19.0 ],
									"numinlets" : 1,
									"id" : "obj-4",
									"fontname" : "Verdana",
									"numoutlets" : 1,
									"patcher" : 									{
										"fileversion" : 1,
										"rect" : [ 20.0, 74.0, 600.0, 426.0 ],
										"bglocked" : 0,
										"defrect" : [ 20.0, 74.0, 600.0, 426.0 ],
										"openrect" : [ 0.0, 0.0, 0.0, 0.0 ],
										"openinpresentation" : 0,
										"default_fontsize" : 10.0,
										"default_fontface" : 0,
										"default_fontname" : "Verdana",
										"gridonopen" : 0,
										"gridsize" : [ 5.0, 5.0 ],
										"gridsnaponopen" : 0,
										"toolbarvisible" : 1,
										"boxanimatetime" : 200,
										"imprint" : 0,
										"metadata" : [  ],
										"boxes" : [ 											{
												"box" : 												{
													"maxclass" : "message",
													"text" : "set 0",
													"outlettype" : [ "" ],
													"fontsize" : 10.0,
													"patching_rect" : [ 115.0, 85.0, 35.0, 17.0 ],
													"numinlets" : 2,
													"id" : "obj-1",
													"fontname" : "Verdana",
													"numoutlets" : 1
												}

											}
, 											{
												"box" : 												{
													"maxclass" : "newobj",
													"text" : "t b l b",
													"outlettype" : [ "bang", "", "bang" ],
													"fontsize" : 10.0,
													"patching_rect" : [ 50.0, 50.0, 68.0, 19.0 ],
													"numinlets" : 1,
													"id" : "obj-2",
													"fontname" : "Verdana",
													"numoutlets" : 3
												}

											}
, 											{
												"box" : 												{
													"maxclass" : "newobj",
													"text" : "iter",
													"outlettype" : [ "" ],
													"fontsize" : 10.0,
													"patching_rect" : [ 75.0, 85.0, 27.0, 19.0 ],
													"numinlets" : 1,
													"id" : "obj-3",
													"fontname" : "Verdana",
													"numoutlets" : 1
												}

											}
, 											{
												"box" : 												{
													"maxclass" : "newobj",
													"text" : "accum 0.",
													"outlettype" : [ "float" ],
													"fontsize" : 10.0,
													"patching_rect" : [ 50.0, 125.0, 69.0, 19.0 ],
													"numinlets" : 3,
													"id" : "obj-4",
													"fontname" : "Verdana",
													"numoutlets" : 1
												}

											}
, 											{
												"box" : 												{
													"maxclass" : "inlet",
													"outlettype" : [ "" ],
													"patching_rect" : [ 50.0, 20.0, 23.0, 23.0 ],
													"numinlets" : 0,
													"id" : "obj-5",
													"numoutlets" : 1,
													"comment" : ""
												}

											}
, 											{
												"box" : 												{
													"maxclass" : "outlet",
													"patching_rect" : [ 50.0, 160.0, 23.0, 23.0 ],
													"numinlets" : 1,
													"id" : "obj-6",
													"numoutlets" : 0,
													"comment" : ""
												}

											}
 ],
										"lines" : [ 											{
												"patchline" : 												{
													"source" : [ "obj-5", 0 ],
													"destination" : [ "obj-2", 0 ],
													"hidden" : 0,
													"midpoints" : [  ]
												}

											}
, 											{
												"patchline" : 												{
													"source" : [ "obj-1", 0 ],
													"destination" : [ "obj-4", 0 ],
													"hidden" : 0,
													"midpoints" : [  ]
												}

											}
, 											{
												"patchline" : 												{
													"source" : [ "obj-2", 0 ],
													"destination" : [ "obj-4", 0 ],
													"hidden" : 0,
													"midpoints" : [  ]
												}

											}
, 											{
												"patchline" : 												{
													"source" : [ "obj-4", 0 ],
													"destination" : [ "obj-6", 0 ],
													"hidden" : 0,
													"midpoints" : [  ]
												}

											}
, 											{
												"patchline" : 												{
													"source" : [ "obj-2", 1 ],
													"destination" : [ "obj-3", 0 ],
													"hidden" : 0,
													"midpoints" : [  ]
												}

											}
, 											{
												"patchline" : 												{
													"source" : [ "obj-3", 0 ],
													"destination" : [ "obj-4", 1 ],
													"hidden" : 0,
													"midpoints" : [  ]
												}

											}
, 											{
												"patchline" : 												{
													"source" : [ "obj-2", 2 ],
													"destination" : [ "obj-1", 0 ],
													"hidden" : 0,
													"midpoints" : [  ]
												}

											}
 ]
									}
,
									"saved_object_attributes" : 									{
										"fontface" : 0,
										"fontsize" : 10.0,
										"default_fontface" : 0,
										"fontname" : "Verdana",
										"default_fontname" : "Verdana",
										"globalpatchername" : "",
										"default_fontsize" : 10.0
									}

								}

							}
, 							{
								"box" : 								{
									"maxclass" : "newobj",
									"text" : "vexpr 1./(pow($f1\\,4))",
									"outlettype" : [ "" ],
									"fontsize" : 10.0,
									"patching_rect" : [ 165.0, 95.0, 124.0, 19.0 ],
									"numinlets" : 1,
									"id" : "obj-5",
									"fontname" : "Verdana",
									"numoutlets" : 1
								}

							}
, 							{
								"box" : 								{
									"maxclass" : "newobj",
									"text" : "vexpr max($f1\\,0.01)",
									"outlettype" : [ "" ],
									"fontsize" : 10.0,
									"patching_rect" : [ 165.0, 65.0, 118.0, 19.0 ],
									"numinlets" : 1,
									"id" : "obj-6",
									"fontname" : "Verdana",
									"numoutlets" : 1
								}

							}
, 							{
								"box" : 								{
									"maxclass" : "outlet",
									"patching_rect" : [ 165.0, 221.0, 25.0, 25.0 ],
									"numinlets" : 1,
									"id" : "obj-7",
									"numoutlets" : 0,
									"comment" : ""
								}

							}
, 							{
								"box" : 								{
									"maxclass" : "inlet",
									"outlettype" : [ "" ],
									"patching_rect" : [ 165.0, 30.0, 25.0, 25.0 ],
									"numinlets" : 0,
									"id" : "obj-8",
									"numoutlets" : 1,
									"comment" : ""
								}

							}
, 							{
								"box" : 								{
									"maxclass" : "comment",
									"text" : "<- avoid dividing by 0",
									"fontsize" : 10.0,
									"frgb" : [ 0.337255, 0.356863, 0.690196, 1.0 ],
									"patching_rect" : [ 290.0, 70.0, 151.0, 19.0 ],
									"numinlets" : 1,
									"id" : "obj-9",
									"fontname" : "Verdana",
									"numoutlets" : 0
								}

							}
 ],
						"lines" : [ 							{
								"patchline" : 								{
									"source" : [ "obj-8", 0 ],
									"destination" : [ "obj-6", 0 ],
									"hidden" : 0,
									"midpoints" : [  ]
								}

							}
, 							{
								"patchline" : 								{
									"source" : [ "obj-6", 0 ],
									"destination" : [ "obj-5", 0 ],
									"hidden" : 0,
									"midpoints" : [  ]
								}

							}
, 							{
								"patchline" : 								{
									"source" : [ "obj-5", 0 ],
									"destination" : [ "obj-3", 0 ],
									"hidden" : 0,
									"midpoints" : [  ]
								}

							}
, 							{
								"patchline" : 								{
									"source" : [ "obj-2", 0 ],
									"destination" : [ "obj-3", 0 ],
									"hidden" : 0,
									"midpoints" : [ 34.5, 135.0, 174.5, 135.0 ]
								}

							}
, 							{
								"patchline" : 								{
									"source" : [ "obj-3", 0 ],
									"destination" : [ "obj-1", 0 ],
									"hidden" : 0,
									"midpoints" : [  ]
								}

							}
, 							{
								"patchline" : 								{
									"source" : [ "obj-1", 0 ],
									"destination" : [ "obj-7", 0 ],
									"hidden" : 0,
									"midpoints" : [  ]
								}

							}
, 							{
								"patchline" : 								{
									"source" : [ "obj-5", 0 ],
									"destination" : [ "obj-4", 0 ],
									"hidden" : 0,
									"midpoints" : [ 174.5, 122.0, 244.5, 122.0 ]
								}

							}
, 							{
								"patchline" : 								{
									"source" : [ "obj-4", 0 ],
									"destination" : [ "obj-3", 1 ],
									"hidden" : 0,
									"midpoints" : [  ]
								}

							}
 ]
					}
,
					"saved_object_attributes" : 					{
						"fontface" : 0,
						"fontsize" : 10.0,
						"default_fontface" : 0,
						"fontname" : "Verdana",
						"default_fontname" : "Verdana",
						"globalpatchername" : "",
						"default_fontsize" : 10.0
					}

				}

			}
, 			{
				"box" : 				{
					"maxclass" : "newobj",
					"text" : "p Calculate_distances",
					"outlettype" : [ "" ],
					"fontsize" : 10.0,
					"patching_rect" : [ 35.0, 140.0, 119.0, 19.0 ],
					"numinlets" : 1,
					"id" : "obj-12",
					"fontname" : "Verdana",
					"numoutlets" : 1,
					"patcher" : 					{
						"fileversion" : 1,
						"rect" : [ 304.0, 87.0, 370.0, 391.0 ],
						"bglocked" : 0,
						"defrect" : [ 304.0, 87.0, 370.0, 391.0 ],
						"openrect" : [ 0.0, 0.0, 0.0, 0.0 ],
						"openinpresentation" : 0,
						"default_fontsize" : 10.0,
						"default_fontface" : 0,
						"default_fontname" : "Verdana",
						"gridonopen" : 0,
						"gridsize" : [ 5.0, 5.0 ],
						"gridsnaponopen" : 0,
						"toolbarvisible" : 1,
						"boxanimatetime" : 200,
						"imprint" : 0,
						"metadata" : [  ],
						"boxes" : [ 							{
								"box" : 								{
									"maxclass" : "newobj",
									"text" : "p sum",
									"outlettype" : [ "float" ],
									"fontsize" : 10.0,
									"patching_rect" : [ 65.0, 195.0, 42.0, 19.0 ],
									"numinlets" : 1,
									"id" : "obj-1",
									"fontname" : "Verdana",
									"numoutlets" : 1,
									"patcher" : 									{
										"fileversion" : 1,
										"rect" : [ 20.0, 74.0, 293.0, 258.0 ],
										"bglocked" : 0,
										"defrect" : [ 20.0, 74.0, 293.0, 258.0 ],
										"openrect" : [ 0.0, 0.0, 0.0, 0.0 ],
										"openinpresentation" : 0,
										"default_fontsize" : 10.0,
										"default_fontface" : 0,
										"default_fontname" : "Verdana",
										"gridonopen" : 0,
										"gridsize" : [ 5.0, 5.0 ],
										"gridsnaponopen" : 0,
										"toolbarvisible" : 1,
										"boxanimatetime" : 200,
										"imprint" : 0,
										"metadata" : [  ],
										"boxes" : [ 											{
												"box" : 												{
													"maxclass" : "message",
													"text" : "set 0",
													"outlettype" : [ "" ],
													"fontsize" : 10.0,
													"patching_rect" : [ 100.0, 85.0, 35.0, 17.0 ],
													"numinlets" : 2,
													"id" : "obj-1",
													"fontname" : "Verdana",
													"numoutlets" : 1
												}

											}
, 											{
												"box" : 												{
													"maxclass" : "newobj",
													"text" : "t b l b",
													"outlettype" : [ "bang", "", "bang" ],
													"fontsize" : 10.0,
													"patching_rect" : [ 40.0, 55.0, 58.0, 19.0 ],
													"numinlets" : 1,
													"id" : "obj-2",
													"fontname" : "Verdana",
													"numoutlets" : 3
												}

											}
, 											{
												"box" : 												{
													"maxclass" : "newobj",
													"text" : "iter",
													"outlettype" : [ "" ],
													"fontsize" : 10.0,
													"patching_rect" : [ 60.0, 85.0, 27.0, 19.0 ],
													"numinlets" : 1,
													"id" : "obj-3",
													"fontname" : "Verdana",
													"numoutlets" : 1
												}

											}
, 											{
												"box" : 												{
													"maxclass" : "newobj",
													"text" : "accum 0.",
													"outlettype" : [ "float" ],
													"fontsize" : 10.0,
													"patching_rect" : [ 40.0, 120.0, 59.0, 19.0 ],
													"numinlets" : 3,
													"id" : "obj-4",
													"fontname" : "Verdana",
													"numoutlets" : 1
												}

											}
, 											{
												"box" : 												{
													"maxclass" : "inlet",
													"outlettype" : [ "" ],
													"patching_rect" : [ 40.0, 25.0, 23.0, 23.0 ],
													"numinlets" : 0,
													"id" : "obj-5",
													"numoutlets" : 1,
													"comment" : ""
												}

											}
, 											{
												"box" : 												{
													"maxclass" : "outlet",
													"patching_rect" : [ 40.0, 146.0, 23.0, 23.0 ],
													"numinlets" : 1,
													"id" : "obj-6",
													"numoutlets" : 0,
													"comment" : ""
												}

											}
 ],
										"lines" : [ 											{
												"patchline" : 												{
													"source" : [ "obj-5", 0 ],
													"destination" : [ "obj-2", 0 ],
													"hidden" : 0,
													"midpoints" : [  ]
												}

											}
, 											{
												"patchline" : 												{
													"source" : [ "obj-2", 0 ],
													"destination" : [ "obj-4", 0 ],
													"hidden" : 0,
													"midpoints" : [  ]
												}

											}
, 											{
												"patchline" : 												{
													"source" : [ "obj-1", 0 ],
													"destination" : [ "obj-4", 0 ],
													"hidden" : 0,
													"midpoints" : [  ]
												}

											}
, 											{
												"patchline" : 												{
													"source" : [ "obj-4", 0 ],
													"destination" : [ "obj-6", 0 ],
													"hidden" : 0,
													"midpoints" : [  ]
												}

											}
, 											{
												"patchline" : 												{
													"source" : [ "obj-2", 1 ],
													"destination" : [ "obj-3", 0 ],
													"hidden" : 0,
													"midpoints" : [  ]
												}

											}
, 											{
												"patchline" : 												{
													"source" : [ "obj-3", 0 ],
													"destination" : [ "obj-4", 1 ],
													"hidden" : 0,
													"midpoints" : [  ]
												}

											}
, 											{
												"patchline" : 												{
													"source" : [ "obj-2", 2 ],
													"destination" : [ "obj-1", 0 ],
													"hidden" : 0,
													"midpoints" : [  ]
												}

											}
 ]
									}
,
									"saved_object_attributes" : 									{
										"fontface" : 0,
										"fontsize" : 10.0,
										"default_fontface" : 0,
										"fontname" : "Verdana",
										"default_fontname" : "Verdana",
										"globalpatchername" : "",
										"default_fontsize" : 10.0
									}

								}

							}
, 							{
								"box" : 								{
									"maxclass" : "outlet",
									"patching_rect" : [ 45.0, 280.0, 25.0, 25.0 ],
									"numinlets" : 1,
									"id" : "obj-2",
									"numoutlets" : 0,
									"comment" : ""
								}

							}
, 							{
								"box" : 								{
									"maxclass" : "inlet",
									"outlettype" : [ "" ],
									"patching_rect" : [ 45.0, 40.0, 25.0, 25.0 ],
									"numinlets" : 0,
									"id" : "obj-3",
									"numoutlets" : 1,
									"comment" : ""
								}

							}
, 							{
								"box" : 								{
									"maxclass" : "newobj",
									"text" : "zl group 256",
									"outlettype" : [ "", "" ],
									"fontsize" : 10.0,
									"patching_rect" : [ 45.0, 245.0, 74.0, 19.0 ],
									"numinlets" : 2,
									"id" : "obj-4",
									"fontname" : "Verdana",
									"numoutlets" : 2
								}

							}
, 							{
								"box" : 								{
									"maxclass" : "newobj",
									"text" : "sqrt",
									"outlettype" : [ "float" ],
									"fontsize" : 10.0,
									"patching_rect" : [ 65.0, 220.0, 30.0, 19.0 ],
									"numinlets" : 1,
									"id" : "obj-5",
									"fontname" : "Verdana",
									"numoutlets" : 1
								}

							}
, 							{
								"box" : 								{
									"maxclass" : "newobj",
									"text" : "vexpr $f1*$f1",
									"outlettype" : [ "" ],
									"fontsize" : 10.0,
									"patching_rect" : [ 65.0, 170.0, 81.0, 19.0 ],
									"numinlets" : 1,
									"id" : "obj-6",
									"fontname" : "Verdana",
									"numoutlets" : 1
								}

							}
, 							{
								"box" : 								{
									"maxclass" : "newobj",
									"text" : "t b dump l",
									"outlettype" : [ "bang", "dump", "" ],
									"fontsize" : 10.0,
									"patching_rect" : [ 45.0, 75.0, 62.0, 19.0 ],
									"numinlets" : 1,
									"id" : "obj-7",
									"fontname" : "Verdana",
									"numoutlets" : 3
								}

							}
, 							{
								"box" : 								{
									"maxclass" : "newobj",
									"text" : "vexpr $f1-$f2",
									"outlettype" : [ "" ],
									"fontsize" : 10.0,
									"patching_rect" : [ 65.0, 145.0, 234.0, 19.0 ],
									"numinlets" : 2,
									"id" : "obj-8",
									"fontname" : "Verdana",
									"numoutlets" : 1
								}

							}
, 							{
								"box" : 								{
									"maxclass" : "newobj",
									"text" : "coll #0_loudspeaker_setup 1",
									"outlettype" : [ "", "", "", "" ],
									"fontsize" : 10.0,
									"patching_rect" : [ 65.0, 115.0, 156.0, 19.0 ],
									"numinlets" : 1,
									"id" : "obj-9",
									"fontname" : "Verdana",
									"numoutlets" : 4,
									"save" : [ "#N", "coll", "$0_loudspeaker_setup", 1, ";" ],
									"saved_object_attributes" : 									{
										"embed" : 0
									}

								}

							}
 ],
						"lines" : [ 							{
								"patchline" : 								{
									"source" : [ "obj-3", 0 ],
									"destination" : [ "obj-7", 0 ],
									"hidden" : 0,
									"midpoints" : [  ]
								}

							}
, 							{
								"patchline" : 								{
									"source" : [ "obj-7", 0 ],
									"destination" : [ "obj-4", 0 ],
									"hidden" : 0,
									"midpoints" : [  ]
								}

							}
, 							{
								"patchline" : 								{
									"source" : [ "obj-5", 0 ],
									"destination" : [ "obj-4", 0 ],
									"hidden" : 0,
									"midpoints" : [  ]
								}

							}
, 							{
								"patchline" : 								{
									"source" : [ "obj-4", 0 ],
									"destination" : [ "obj-2", 0 ],
									"hidden" : 0,
									"midpoints" : [  ]
								}

							}
, 							{
								"patchline" : 								{
									"source" : [ "obj-7", 1 ],
									"destination" : [ "obj-9", 0 ],
									"hidden" : 0,
									"midpoints" : [  ]
								}

							}
, 							{
								"patchline" : 								{
									"source" : [ "obj-9", 0 ],
									"destination" : [ "obj-8", 0 ],
									"hidden" : 0,
									"midpoints" : [  ]
								}

							}
, 							{
								"patchline" : 								{
									"source" : [ "obj-8", 0 ],
									"destination" : [ "obj-6", 0 ],
									"hidden" : 0,
									"midpoints" : [  ]
								}

							}
, 							{
								"patchline" : 								{
									"source" : [ "obj-6", 0 ],
									"destination" : [ "obj-1", 0 ],
									"hidden" : 0,
									"midpoints" : [  ]
								}

							}
, 							{
								"patchline" : 								{
									"source" : [ "obj-1", 0 ],
									"destination" : [ "obj-5", 0 ],
									"hidden" : 0,
									"midpoints" : [  ]
								}

							}
, 							{
								"patchline" : 								{
									"source" : [ "obj-7", 2 ],
									"destination" : [ "obj-8", 1 ],
									"hidden" : 0,
									"midpoints" : [ 97.5, 105.0, 289.5, 105.0 ]
								}

							}
 ]
					}
,
					"saved_object_attributes" : 					{
						"fontface" : 0,
						"fontsize" : 10.0,
						"default_fontface" : 0,
						"fontname" : "Verdana",
						"default_fontname" : "Verdana",
						"globalpatchername" : "",
						"default_fontsize" : 10.0
					}

				}

			}
, 			{
				"box" : 				{
					"maxclass" : "newobj",
					"text" : "coll #0_loudspeaker_setup 1",
					"outlettype" : [ "", "", "", "" ],
					"fontsize" : 10.0,
					"patching_rect" : [ 160.0, 185.0, 183.0, 19.0 ],
					"numinlets" : 1,
					"id" : "obj-13",
					"fontname" : "Verdana",
					"numoutlets" : 4,
					"save" : [ "#N", "coll", "$0_loudspeaker_setup", 1, ";" ],
					"saved_object_attributes" : 					{
						"embed" : 0
					}

				}

			}
 ],
		"lines" : [ 			{
				"patchline" : 				{
					"source" : [ "obj-6", 0 ],
					"destination" : [ "obj-8", 0 ],
					"hidden" : 0,
					"midpoints" : [  ]
				}

			}
, 			{
				"patchline" : 				{
					"source" : [ "obj-7", 1 ],
					"destination" : [ "obj-8", 0 ],
					"hidden" : 0,
					"midpoints" : [ 411.5, 90.0, 44.5, 90.0 ]
				}

			}
, 			{
				"patchline" : 				{
					"source" : [ "obj-8", 0 ],
					"destination" : [ "obj-12", 0 ],
					"hidden" : 0,
					"midpoints" : [  ]
				}

			}
, 			{
				"patchline" : 				{
					"source" : [ "obj-12", 0 ],
					"destination" : [ "obj-11", 0 ],
					"hidden" : 0,
					"midpoints" : [  ]
				}

			}
, 			{
				"patchline" : 				{
					"source" : [ "obj-11", 0 ],
					"destination" : [ "obj-9", 0 ],
					"hidden" : 0,
					"midpoints" : [  ]
				}

			}
, 			{
				"patchline" : 				{
					"source" : [ "obj-9", 0 ],
					"destination" : [ "obj-10", 0 ],
					"hidden" : 0,
					"midpoints" : [  ]
				}

			}
, 			{
				"patchline" : 				{
					"source" : [ "obj-8", 1 ],
					"destination" : [ "obj-5", 0 ],
					"hidden" : 0,
					"midpoints" : [  ]
				}

			}
, 			{
				"patchline" : 				{
					"source" : [ "obj-4", 0 ],
					"destination" : [ "obj-13", 0 ],
					"hidden" : 0,
					"midpoints" : [ 294.5, 177.0, 169.5, 177.0 ]
				}

			}
, 			{
				"patchline" : 				{
					"source" : [ "obj-5", 0 ],
					"destination" : [ "obj-13", 0 ],
					"hidden" : 0,
					"midpoints" : [  ]
				}

			}
, 			{
				"patchline" : 				{
					"source" : [ "obj-3", 0 ],
					"destination" : [ "obj-2", 0 ],
					"hidden" : 0,
					"midpoints" : [  ]
				}

			}
, 			{
				"patchline" : 				{
					"source" : [ "obj-13", 0 ],
					"destination" : [ "obj-2", 0 ],
					"hidden" : 0,
					"midpoints" : [  ]
				}

			}
, 			{
				"patchline" : 				{
					"source" : [ "obj-2", 0 ],
					"destination" : [ "obj-1", 0 ],
					"hidden" : 0,
					"midpoints" : [  ]
				}

			}
, 			{
				"patchline" : 				{
					"source" : [ "obj-13", 1 ],
					"destination" : [ "obj-3", 0 ],
					"hidden" : 0,
					"midpoints" : [  ]
				}

			}
, 			{
				"patchline" : 				{
					"source" : [ "obj-8", 2 ],
					"destination" : [ "obj-4", 0 ],
					"hidden" : 0,
					"midpoints" : [  ]
				}

			}
 ]
	}

}
