{
	"patcher" : 	{
		"rect" : [ 68.0, 106.0, 600.0, 426.0 ],
		"bgcolor" : [ 1.0, 1.0, 1.0, 1.0 ],
		"bglocked" : 0,
		"defrect" : [ 68.0, 106.0, 600.0, 426.0 ],
		"openinpresentation" : 0,
		"default_fontsize" : 10.0,
		"default_fontface" : 0,
		"default_fontname" : "Verdana",
		"gridonopen" : 0,
		"gridsize" : [ 15.0, 15.0 ],
		"gridsnaponopen" : 0,
		"toolbarvisible" : 1,
		"boxfadetime" : 200,
		"boxanimatetime" : 200,
		"scrollanimatetime" : 200,
		"metadata" : [  ],
		"boxes" : [ 			{
				"box" : 				{
					"maxclass" : "newobj",
					"text" : "zl nth 3",
					"outlettype" : [ "", "" ],
					"id" : "obj-1",
					"fontsize" : 9.0,
					"patching_rect" : [ 185.0, 89.0, 44.0, 17.0 ],
					"numinlets" : 2,
					"numoutlets" : 2,
					"fontname" : "Verdana"
				}

			}
, 			{
				"box" : 				{
					"maxclass" : "newobj",
					"text" : "clip 1. 6.",
					"outlettype" : [ "" ],
					"id" : "obj-2",
					"fontsize" : 9.0,
					"patching_rect" : [ 277.0, 146.0, 50.0, 17.0 ],
					"numinlets" : 3,
					"numoutlets" : 1,
					"fontname" : "Verdana"
				}

			}
, 			{
				"box" : 				{
					"maxclass" : "newobj",
					"text" : "onepole~",
					"outlettype" : [ "signal" ],
					"id" : "obj-3",
					"fontsize" : 9.0,
					"patching_rect" : [ 73.0, 273.0, 49.0, 17.0 ],
					"numinlets" : 2,
					"numoutlets" : 1,
					"fontname" : "Verdana"
				}

			}
, 			{
				"box" : 				{
					"maxclass" : "newobj",
					"text" : "sig~",
					"outlettype" : [ "signal" ],
					"id" : "obj-4",
					"fontsize" : 9.0,
					"patching_rect" : [ 73.0, 251.0, 29.0, 17.0 ],
					"numinlets" : 1,
					"numoutlets" : 1,
					"fontname" : "Verdana"
				}

			}
, 			{
				"box" : 				{
					"maxclass" : "newobj",
					"text" : "loadmess 6",
					"outlettype" : [ "" ],
					"id" : "obj-5",
					"fontsize" : 9.0,
					"patching_rect" : [ 356.0, 117.0, 60.0, 17.0 ],
					"numinlets" : 1,
					"numoutlets" : 1,
					"fontname" : "Verdana"
				}

			}
, 			{
				"box" : 				{
					"maxclass" : "newobj",
					"text" : "scale 0. 6. 0. -1.",
					"outlettype" : [ "float" ],
					"id" : "obj-6",
					"fontsize" : 9.0,
					"patching_rect" : [ 277.0, 168.0, 86.0, 17.0 ],
					"numinlets" : 6,
					"numoutlets" : 1,
					"fontname" : "Verdana"
				}

			}
, 			{
				"box" : 				{
					"maxclass" : "newobj",
					"text" : "expr pow($f1\\,$f2)",
					"outlettype" : [ "" ],
					"id" : "obj-7",
					"fontsize" : 9.0,
					"patching_rect" : [ 185.0, 199.0, 102.0, 17.0 ],
					"numinlets" : 2,
					"numoutlets" : 1,
					"fontname" : "Verdana"
				}

			}
, 			{
				"box" : 				{
					"maxclass" : "newobj",
					"text" : "\/ 1.",
					"outlettype" : [ "float" ],
					"id" : "obj-8",
					"fontsize" : 9.0,
					"patching_rect" : [ 185.0, 156.0, 74.0, 17.0 ],
					"numinlets" : 2,
					"numoutlets" : 1,
					"fontname" : "Verdana"
				}

			}
, 			{
				"box" : 				{
					"maxclass" : "newobj",
					"text" : "maximum 1.",
					"outlettype" : [ "float" ],
					"id" : "obj-9",
					"fontsize" : 9.0,
					"patching_rect" : [ 185.0, 131.0, 65.0, 17.0 ],
					"numinlets" : 2,
					"numoutlets" : 1,
					"fontname" : "Verdana"
				}

			}
, 			{
				"box" : 				{
					"maxclass" : "comment",
					"text" : "roll-of (3-6 dB)",
					"id" : "obj-10",
					"fontsize" : 9.0,
					"patching_rect" : [ 425.0, 60.0, 100.0, 17.0 ],
					"numinlets" : 1,
					"numoutlets" : 0,
					"fontname" : "Verdana"
				}

			}
, 			{
				"box" : 				{
					"maxclass" : "inlet",
					"outlettype" : [ "" ],
					"id" : "obj-11",
					"patching_rect" : [ 408.0, 60.0, 15.0, 15.0 ],
					"numinlets" : 0,
					"numoutlets" : 1,
					"comment" : ""
				}

			}
, 			{
				"box" : 				{
					"maxclass" : "inlet",
					"outlettype" : [ "" ],
					"id" : "obj-12",
					"patching_rect" : [ 276.0, 60.0, 15.0, 15.0 ],
					"numinlets" : 0,
					"numoutlets" : 1,
					"comment" : ""
				}

			}
, 			{
				"box" : 				{
					"maxclass" : "inlet",
					"outlettype" : [ "" ],
					"id" : "obj-13",
					"patching_rect" : [ 185.0, 60.0, 15.0, 15.0 ],
					"numinlets" : 0,
					"numoutlets" : 1,
					"comment" : ""
				}

			}
, 			{
				"box" : 				{
					"maxclass" : "outlet",
					"id" : "obj-14",
					"patching_rect" : [ 56.0, 344.0, 15.0, 15.0 ],
					"numinlets" : 1,
					"numoutlets" : 0,
					"comment" : ""
				}

			}
, 			{
				"box" : 				{
					"maxclass" : "newobj",
					"text" : "*~",
					"outlettype" : [ "signal" ],
					"id" : "obj-15",
					"fontsize" : 9.0,
					"patching_rect" : [ 56.0, 298.0, 27.0, 17.0 ],
					"numinlets" : 2,
					"numoutlets" : 1,
					"fontname" : "Verdana"
				}

			}
, 			{
				"box" : 				{
					"maxclass" : "inlet",
					"outlettype" : [ "" ],
					"id" : "obj-16",
					"patching_rect" : [ 56.0, 60.0, 15.0, 15.0 ],
					"numinlets" : 0,
					"numoutlets" : 1,
					"comment" : ""
				}

			}
, 			{
				"box" : 				{
					"maxclass" : "comment",
					"text" : "reference distance",
					"id" : "obj-17",
					"fontsize" : 9.0,
					"patching_rect" : [ 298.0, 60.0, 100.0, 17.0 ],
					"numinlets" : 1,
					"numoutlets" : 0,
					"fontname" : "Verdana"
				}

			}
, 			{
				"box" : 				{
					"maxclass" : "comment",
					"text" : "smoothing",
					"id" : "obj-18",
					"fontsize" : 9.0,
					"patching_rect" : [ 126.0, 276.0, 100.0, 17.0 ],
					"numinlets" : 1,
					"numoutlets" : 0,
					"fontname" : "Verdana"
				}

			}
, 			{
				"box" : 				{
					"maxclass" : "comment",
					"text" : "aed",
					"id" : "obj-19",
					"fontsize" : 9.0,
					"patching_rect" : [ 203.0, 60.0, 24.0, 17.0 ],
					"numinlets" : 1,
					"numoutlets" : 0,
					"fontname" : "Verdana"
				}

			}
 ],
		"lines" : [ 			{
				"patchline" : 				{
					"source" : [ "obj-16", 0 ],
					"destination" : [ "obj-15", 0 ],
					"hidden" : 0
				}

			}
, 			{
				"patchline" : 				{
					"source" : [ "obj-15", 0 ],
					"destination" : [ "obj-14", 0 ],
					"hidden" : 0
				}

			}
, 			{
				"patchline" : 				{
					"source" : [ "obj-7", 0 ],
					"destination" : [ "obj-4", 0 ],
					"hidden" : 0
				}

			}
, 			{
				"patchline" : 				{
					"source" : [ "obj-4", 0 ],
					"destination" : [ "obj-3", 0 ],
					"hidden" : 0
				}

			}
, 			{
				"patchline" : 				{
					"source" : [ "obj-3", 0 ],
					"destination" : [ "obj-15", 1 ],
					"hidden" : 0
				}

			}
, 			{
				"patchline" : 				{
					"source" : [ "obj-13", 0 ],
					"destination" : [ "obj-1", 0 ],
					"hidden" : 0
				}

			}
, 			{
				"patchline" : 				{
					"source" : [ "obj-1", 0 ],
					"destination" : [ "obj-9", 0 ],
					"hidden" : 0
				}

			}
, 			{
				"patchline" : 				{
					"source" : [ "obj-9", 0 ],
					"destination" : [ "obj-8", 0 ],
					"hidden" : 0
				}

			}
, 			{
				"patchline" : 				{
					"source" : [ "obj-8", 0 ],
					"destination" : [ "obj-7", 0 ],
					"hidden" : 0
				}

			}
, 			{
				"patchline" : 				{
					"source" : [ "obj-12", 0 ],
					"destination" : [ "obj-9", 1 ],
					"hidden" : 0
				}

			}
, 			{
				"patchline" : 				{
					"source" : [ "obj-12", 0 ],
					"destination" : [ "obj-8", 1 ],
					"hidden" : 0
				}

			}
, 			{
				"patchline" : 				{
					"source" : [ "obj-5", 0 ],
					"destination" : [ "obj-2", 0 ],
					"hidden" : 0
				}

			}
, 			{
				"patchline" : 				{
					"source" : [ "obj-11", 0 ],
					"destination" : [ "obj-2", 0 ],
					"hidden" : 0
				}

			}
, 			{
				"patchline" : 				{
					"source" : [ "obj-2", 0 ],
					"destination" : [ "obj-6", 0 ],
					"hidden" : 0
				}

			}
, 			{
				"patchline" : 				{
					"source" : [ "obj-6", 0 ],
					"destination" : [ "obj-7", 1 ],
					"hidden" : 0
				}

			}
 ]
	}

}
