max v2;#N vpatcher 472 46 1222 389;#P origin -2 0;#P window setfont "Sans Serif" 9.;#P window linecount 1;#P comment 10 263 353 196617 Converts the Ambisonic B-format into a two-channel UHJ (stereo) format;#P comment 174 279 63 196617 at Wikipedia;#B color 12;#P comment 11 279 167 196617 Encoder based on the equation found;#P user ubutton 170 277 67 16 0 0;#P window linecount 2;#P hidden message 10 296 346 196617 \; max launchbrowser http://en.wikipedia.org/wiki/Ambisonic_UHJ_format;#P window linecount 1;#P comment 545 240 100 196617 Right;#P inlet 626 48 15 0;#P newex 639 132 37 196617 *~ -1;#P newex 527 103 70 196617 *~ -0.25493;#P newex 449 103 77 196617 *~ 0.25493;#P outlet 527 237 15 0;#P newex 170 103 83 196617 *~ 0.17101;#P newex 80 103 88 196617 *~ -0.17101;#P outlet 0 237 15 0;#P newex 626 103 77 196617 *~ 0.327726;#P newex 376 103 71 196617 *~ 0.092787;#P newex 0 103 77 196617 *~ 0.469846;#P newex 376 70 46 196617 hilbert~;#P newex 0 70 46 196617 hilbert~;#P comment 626 33 17 196617 Y;#P comment 375 31 21 196617 X;#P inlet 376 46 15 0;#P inlet 0 46 15 0;#P comment 0 31 21 196617 W;#P comment 21 239 100 196617 Left;#P connect 2 0 6 0;#P connect 6 0 8 0;#P fasten 10 0 11 0 631 161 5 161;#P fasten 9 0 11 0 381 147 5 147;#P fasten 12 0 11 0 85 141 5 141;#P fasten 15 0 11 0 454 155 5 155;#P fasten 8 0 11 0 5 178 5 178;#P hidden connect 21 0 20 0;#P fasten 6 1 12 0 41 91 85 91;#P fasten 6 1 13 0 41 91 175 91;#P connect 3 0 7 0;#P connect 7 0 9 0;#P fasten 7 1 15 0 417 97 454 97;#P fasten 7 1 16 0 417 97 532 97;#P fasten 13 0 14 0 175 201 532 201;#P fasten 16 0 14 0 532 178 532 178;#P fasten 8 0 14 0 5 193 532 193;#P fasten 9 0 14 0 381 209 532 209;#P fasten 17 0 14 0 644 215 532 215;#P connect 18 0 10 0;#P connect 10 0 17 0;#P pop;