{
	"patcher" : 	{
		"rect" : [ 197.0, 75.0, 456.0, 370.0 ],
		"bgcolor" : [ 1.0, 1.0, 1.0, 1.0 ],
		"bglocked" : 0,
		"defrect" : [ 197.0, 75.0, 456.0, 370.0 ],
		"openinpresentation" : 0,
		"default_fontsize" : 10.0,
		"default_fontface" : 0,
		"default_fontname" : "Verdana",
		"gridonopen" : 0,
		"gridsize" : [ 15.0, 15.0 ],
		"gridsnaponopen" : 0,
		"toolbarvisible" : 1,
		"boxfadetime" : 200,
		"boxanimatetime" : 200,
		"scrollanimatetime" : 200,
		"metadata" : [  ],
		"boxes" : [ 			{
				"box" : 				{
					"maxclass" : "outlet",
					"id" : "obj-1",
					"patching_rect" : [ 148.0, 272.0, 15.0, 15.0 ],
					"numinlets" : 1,
					"numoutlets" : 0,
					"comment" : ""
				}

			}
, 			{
				"box" : 				{
					"maxclass" : "newobj",
					"text" : "zl group 5",
					"outlettype" : [ "", "" ],
					"id" : "obj-2",
					"fontsize" : 9.0,
					"patching_rect" : [ 148.0, 246.0, 55.0, 17.0 ],
					"numinlets" : 2,
					"numoutlets" : 2,
					"fontname" : "Verdana"
				}

			}
, 			{
				"box" : 				{
					"maxclass" : "newobj",
					"text" : "prepend speaker",
					"outlettype" : [ "" ],
					"id" : "obj-3",
					"fontsize" : 9.0,
					"patching_rect" : [ 203.0, 213.0, 83.0, 17.0 ],
					"numinlets" : 1,
					"numoutlets" : 1,
					"fontname" : "Verdana"
				}

			}
, 			{
				"box" : 				{
					"maxclass" : "newobj",
					"text" : "t dump",
					"outlettype" : [ "dump" ],
					"id" : "obj-4",
					"fontsize" : 9.0,
					"patching_rect" : [ 260.0, 155.0, 40.0, 17.0 ],
					"numinlets" : 1,
					"numoutlets" : 1,
					"fontname" : "Verdana"
				}

			}
, 			{
				"box" : 				{
					"maxclass" : "newobj",
					"text" : "p speaker_setup",
					"outlettype" : [ "clear" ],
					"id" : "obj-5",
					"fontsize" : 9.0,
					"patching_rect" : [ 148.0, 155.0, 83.0, 17.0 ],
					"numinlets" : 1,
					"numoutlets" : 1,
					"fontname" : "Verdana",
					"patcher" : 					{
						"rect" : [ 10.0, 59.0, 397.0, 440.0 ],
						"bgcolor" : [ 1.0, 1.0, 1.0, 1.0 ],
						"bglocked" : 0,
						"defrect" : [ 10.0, 59.0, 397.0, 440.0 ],
						"openinpresentation" : 0,
						"default_fontsize" : 10.0,
						"default_fontface" : 0,
						"default_fontname" : "Verdana",
						"gridonopen" : 0,
						"gridsize" : [ 15.0, 15.0 ],
						"gridsnaponopen" : 0,
						"toolbarvisible" : 1,
						"boxfadetime" : 200,
						"boxanimatetime" : 200,
						"scrollanimatetime" : 200,
						"metadata" : [  ],
						"boxes" : [ 							{
								"box" : 								{
									"maxclass" : "newobj",
									"text" : "print jcom.dbap",
									"id" : "obj-1",
									"fontsize" : 9.0,
									"patching_rect" : [ 116.0, 126.0, 80.0, 17.0 ],
									"numinlets" : 1,
									"numoutlets" : 0,
									"fontname" : "Verdana"
								}

							}
, 							{
								"box" : 								{
									"maxclass" : "newobj",
									"text" : "if $i1 then List of positions not a multiple of 3",
									"outlettype" : [ "" ],
									"id" : "obj-2",
									"fontsize" : 9.0,
									"patching_rect" : [ 116.0, 105.0, 217.0, 17.0 ],
									"numinlets" : 1,
									"numoutlets" : 1,
									"fontname" : "Verdana"
								}

							}
, 							{
								"box" : 								{
									"maxclass" : "newobj",
									"text" : "% 3",
									"outlettype" : [ "int" ],
									"id" : "obj-3",
									"fontsize" : 9.0,
									"patching_rect" : [ 116.0, 81.0, 27.0, 17.0 ],
									"numinlets" : 2,
									"numoutlets" : 1,
									"fontname" : "Verdana"
								}

							}
, 							{
								"box" : 								{
									"maxclass" : "newobj",
									"text" : "t b l",
									"outlettype" : [ "bang", "" ],
									"id" : "obj-4",
									"fontsize" : 9.0,
									"patching_rect" : [ 50.0, 263.0, 27.0, 17.0 ],
									"numinlets" : 1,
									"numoutlets" : 2,
									"fontname" : "Verdana"
								}

							}
, 							{
								"box" : 								{
									"maxclass" : "newobj",
									"text" : "zl join",
									"outlettype" : [ "", "" ],
									"id" : "obj-5",
									"fontsize" : 9.0,
									"patching_rect" : [ 50.0, 320.0, 108.0, 17.0 ],
									"numinlets" : 2,
									"numoutlets" : 2,
									"fontname" : "Verdana"
								}

							}
, 							{
								"box" : 								{
									"maxclass" : "newobj",
									"text" : "t l 0 clear",
									"outlettype" : [ "", "int", "clear" ],
									"id" : "obj-6",
									"fontsize" : 9.0,
									"patching_rect" : [ 50.0, 218.0, 184.0, 17.0 ],
									"numinlets" : 1,
									"numoutlets" : 3,
									"fontname" : "Verdana"
								}

							}
, 							{
								"box" : 								{
									"maxclass" : "newobj",
									"text" : "counter 0 0 999",
									"outlettype" : [ "int", "", "", "int" ],
									"id" : "obj-7",
									"fontsize" : 9.0,
									"patching_rect" : [ 50.0, 294.0, 83.0, 17.0 ],
									"numinlets" : 5,
									"numoutlets" : 4,
									"fontname" : "Verdana",
									"save" : [ "#N", "counter", 0, 0, 999, ";", "#X", "flags", 0, 0, ";" ]
								}

							}
, 							{
								"box" : 								{
									"maxclass" : "newobj",
									"text" : "zl slice",
									"outlettype" : [ "", "" ],
									"id" : "obj-8",
									"fontsize" : 9.0,
									"patching_rect" : [ 50.0, 193.0, 42.0, 17.0 ],
									"numinlets" : 2,
									"numoutlets" : 2,
									"fontname" : "Verdana"
								}

							}
, 							{
								"box" : 								{
									"maxclass" : "newobj",
									"text" : "* 3",
									"outlettype" : [ "int" ],
									"id" : "obj-9",
									"fontsize" : 9.0,
									"patching_rect" : [ 82.0, 105.0, 27.0, 17.0 ],
									"numinlets" : 2,
									"numoutlets" : 1,
									"fontname" : "Verdana"
								}

							}
, 							{
								"box" : 								{
									"maxclass" : "newobj",
									"text" : "\/ 3",
									"outlettype" : [ "int" ],
									"id" : "obj-10",
									"fontsize" : 9.0,
									"patching_rect" : [ 82.0, 81.0, 27.0, 17.0 ],
									"numinlets" : 2,
									"numoutlets" : 1,
									"fontname" : "Verdana"
								}

							}
, 							{
								"box" : 								{
									"maxclass" : "newobj",
									"text" : "zl len",
									"outlettype" : [ "", "" ],
									"id" : "obj-11",
									"fontsize" : 9.0,
									"patching_rect" : [ 82.0, 56.0, 34.0, 17.0 ],
									"numinlets" : 2,
									"numoutlets" : 2,
									"fontname" : "Verdana"
								}

							}
, 							{
								"box" : 								{
									"maxclass" : "newobj",
									"text" : "zl group 3",
									"outlettype" : [ "", "" ],
									"id" : "obj-12",
									"fontsize" : 9.0,
									"patching_rect" : [ 50.0, 242.0, 55.0, 17.0 ],
									"numinlets" : 2,
									"numoutlets" : 2,
									"fontname" : "Verdana"
								}

							}
, 							{
								"box" : 								{
									"maxclass" : "comment",
									"text" : "get rid of stray values",
									"id" : "obj-13",
									"fontsize" : 9.0,
									"patching_rect" : [ 97.0, 195.0, 112.0, 17.0 ],
									"numinlets" : 1,
									"numoutlets" : 0,
									"fontname" : "Verdana"
								}

							}
, 							{
								"box" : 								{
									"maxclass" : "inlet",
									"outlettype" : [ "" ],
									"id" : "obj-14",
									"patching_rect" : [ 50.0, 21.0, 15.0, 15.0 ],
									"numinlets" : 0,
									"numoutlets" : 1,
									"comment" : ""
								}

							}
, 							{
								"box" : 								{
									"maxclass" : "outlet",
									"id" : "obj-15",
									"patching_rect" : [ 50.0, 358.0, 15.0, 15.0 ],
									"numinlets" : 1,
									"numoutlets" : 0,
									"comment" : ""
								}

							}
 ],
						"lines" : [ 							{
								"patchline" : 								{
									"source" : [ "obj-14", 0 ],
									"destination" : [ "obj-8", 0 ],
									"hidden" : 0
								}

							}
, 							{
								"patchline" : 								{
									"source" : [ "obj-8", 0 ],
									"destination" : [ "obj-6", 0 ],
									"hidden" : 0
								}

							}
, 							{
								"patchline" : 								{
									"source" : [ "obj-6", 0 ],
									"destination" : [ "obj-12", 0 ],
									"hidden" : 0
								}

							}
, 							{
								"patchline" : 								{
									"source" : [ "obj-12", 0 ],
									"destination" : [ "obj-4", 0 ],
									"hidden" : 0
								}

							}
, 							{
								"patchline" : 								{
									"source" : [ "obj-4", 0 ],
									"destination" : [ "obj-7", 0 ],
									"hidden" : 0
								}

							}
, 							{
								"patchline" : 								{
									"source" : [ "obj-7", 0 ],
									"destination" : [ "obj-5", 0 ],
									"hidden" : 0
								}

							}
, 							{
								"patchline" : 								{
									"source" : [ "obj-6", 2 ],
									"destination" : [ "obj-15", 0 ],
									"hidden" : 0,
									"midpoints" : [ 224.5, 351.0, 59.0, 351.0 ]
								}

							}
, 							{
								"patchline" : 								{
									"source" : [ "obj-5", 0 ],
									"destination" : [ "obj-15", 0 ],
									"hidden" : 0
								}

							}
, 							{
								"patchline" : 								{
									"source" : [ "obj-14", 0 ],
									"destination" : [ "obj-11", 0 ],
									"hidden" : 0
								}

							}
, 							{
								"patchline" : 								{
									"source" : [ "obj-11", 0 ],
									"destination" : [ "obj-10", 0 ],
									"hidden" : 0
								}

							}
, 							{
								"patchline" : 								{
									"source" : [ "obj-10", 0 ],
									"destination" : [ "obj-9", 0 ],
									"hidden" : 0
								}

							}
, 							{
								"patchline" : 								{
									"source" : [ "obj-9", 0 ],
									"destination" : [ "obj-8", 1 ],
									"hidden" : 0
								}

							}
, 							{
								"patchline" : 								{
									"source" : [ "obj-6", 1 ],
									"destination" : [ "obj-7", 2 ],
									"hidden" : 0
								}

							}
, 							{
								"patchline" : 								{
									"source" : [ "obj-11", 0 ],
									"destination" : [ "obj-3", 0 ],
									"hidden" : 0,
									"midpoints" : [ 91.5, 77.0, 125.5, 77.0 ]
								}

							}
, 							{
								"patchline" : 								{
									"source" : [ "obj-3", 0 ],
									"destination" : [ "obj-2", 0 ],
									"hidden" : 0
								}

							}
, 							{
								"patchline" : 								{
									"source" : [ "obj-2", 0 ],
									"destination" : [ "obj-1", 0 ],
									"hidden" : 0
								}

							}
, 							{
								"patchline" : 								{
									"source" : [ "obj-4", 1 ],
									"destination" : [ "obj-5", 1 ],
									"hidden" : 0,
									"midpoints" : [ 67.5, 287.0, 148.5, 287.0 ]
								}

							}
 ]
					}
,
					"saved_object_attributes" : 					{
						"fontface" : 0,
						"default_fontsize" : 10.0,
						"fontsize" : 10.0,
						"default_fontname" : "Verdana",
						"globalpatchername" : "",
						"fontname" : "Verdana",
						"default_fontface" : 0
					}

				}

			}
, 			{
				"box" : 				{
					"maxclass" : "inlet",
					"outlettype" : [ "" ],
					"id" : "obj-6",
					"patching_rect" : [ 36.0, 54.0, 15.0, 15.0 ],
					"numinlets" : 0,
					"numoutlets" : 1,
					"comment" : ""
				}

			}
, 			{
				"box" : 				{
					"maxclass" : "newobj",
					"text" : "patcherargs @speakers 45. 0. 1. -45. 0. 1. 135. 0. 1. -135. 0. 1.",
					"outlettype" : [ "", "" ],
					"id" : "obj-7",
					"fontsize" : 9.0,
					"patching_rect" : [ 79.0, 54.0, 305.0, 17.0 ],
					"numinlets" : 1,
					"numoutlets" : 2,
					"fontname" : "Verdana"
				}

			}
, 			{
				"box" : 				{
					"maxclass" : "newobj",
					"text" : "route xyz speakers dump",
					"outlettype" : [ "", "", "", "" ],
					"id" : "obj-8",
					"fontsize" : 9.0,
					"patching_rect" : [ 36.0, 116.0, 348.0, 17.0 ],
					"numinlets" : 1,
					"numoutlets" : 4,
					"fontname" : "Verdana"
				}

			}
, 			{
				"box" : 				{
					"maxclass" : "newobj",
					"text" : "listfunnel",
					"outlettype" : [ "list" ],
					"id" : "obj-9",
					"fontsize" : 9.0,
					"patching_rect" : [ 36.0, 197.0, 52.0, 17.0 ],
					"numinlets" : 1,
					"numoutlets" : 1,
					"fontname" : "Verdana"
				}

			}
, 			{
				"box" : 				{
					"maxclass" : "outlet",
					"id" : "obj-10",
					"patching_rect" : [ 36.0, 272.0, 15.0, 15.0 ],
					"numinlets" : 1,
					"numoutlets" : 0,
					"comment" : ""
				}

			}
, 			{
				"box" : 				{
					"maxclass" : "newobj",
					"text" : "p Calculate_levels",
					"outlettype" : [ "" ],
					"id" : "obj-11",
					"fontsize" : 9.0,
					"patching_rect" : [ 36.0, 171.0, 90.0, 17.0 ],
					"numinlets" : 1,
					"numoutlets" : 1,
					"fontname" : "Verdana",
					"patcher" : 					{
						"rect" : [ 30.0, 70.0, 469.0, 297.0 ],
						"bgcolor" : [ 1.0, 1.0, 1.0, 1.0 ],
						"bglocked" : 0,
						"defrect" : [ 30.0, 70.0, 469.0, 297.0 ],
						"openinpresentation" : 0,
						"default_fontsize" : 10.0,
						"default_fontface" : 0,
						"default_fontname" : "Verdana",
						"gridonopen" : 0,
						"gridsize" : [ 15.0, 15.0 ],
						"gridsnaponopen" : 0,
						"toolbarvisible" : 1,
						"boxfadetime" : 200,
						"boxanimatetime" : 200,
						"scrollanimatetime" : 200,
						"metadata" : [  ],
						"boxes" : [ 							{
								"box" : 								{
									"maxclass" : "newobj",
									"text" : "vexpr sqrt($f1)",
									"outlettype" : [ "" ],
									"id" : "obj-1",
									"fontsize" : 9.0,
									"patching_rect" : [ 165.0, 177.0, 83.0, 17.0 ],
									"numinlets" : 1,
									"numoutlets" : 1,
									"fontname" : "Verdana"
								}

							}
, 							{
								"box" : 								{
									"maxclass" : "newobj",
									"text" : "loadmess scalarmode 1",
									"outlettype" : [ "" ],
									"id" : "obj-2",
									"fontsize" : 9.0,
									"patching_rect" : [ 24.0, 96.0, 114.0, 17.0 ],
									"numinlets" : 1,
									"numoutlets" : 1,
									"fontname" : "Verdana"
								}

							}
, 							{
								"box" : 								{
									"maxclass" : "newobj",
									"text" : "vexpr $f1\/$f2",
									"outlettype" : [ "" ],
									"id" : "obj-3",
									"fontsize" : 9.0,
									"patching_rect" : [ 165.0, 154.0, 78.0, 17.0 ],
									"numinlets" : 2,
									"numoutlets" : 1,
									"fontname" : "Verdana"
								}

							}
, 							{
								"box" : 								{
									"maxclass" : "newobj",
									"text" : "p sum",
									"outlettype" : [ "float" ],
									"id" : "obj-4",
									"fontsize" : 9.0,
									"patching_rect" : [ 233.0, 130.0, 36.0, 17.0 ],
									"numinlets" : 1,
									"numoutlets" : 1,
									"fontname" : "Verdana",
									"patcher" : 									{
										"rect" : [ 20.0, 74.0, 600.0, 426.0 ],
										"bgcolor" : [ 1.0, 1.0, 1.0, 1.0 ],
										"bglocked" : 0,
										"defrect" : [ 20.0, 74.0, 600.0, 426.0 ],
										"openinpresentation" : 0,
										"default_fontsize" : 10.0,
										"default_fontface" : 0,
										"default_fontname" : "Verdana",
										"gridonopen" : 0,
										"gridsize" : [ 15.0, 15.0 ],
										"gridsnaponopen" : 0,
										"toolbarvisible" : 1,
										"boxfadetime" : 200,
										"boxanimatetime" : 200,
										"scrollanimatetime" : 200,
										"metadata" : [  ],
										"boxes" : [ 											{
												"box" : 												{
													"maxclass" : "message",
													"text" : "set 0",
													"outlettype" : [ "" ],
													"id" : "obj-1",
													"fontsize" : 9.0,
													"patching_rect" : [ 101.0, 76.0, 33.0, 15.0 ],
													"numinlets" : 2,
													"numoutlets" : 1,
													"fontname" : "Verdana"
												}

											}
, 											{
												"box" : 												{
													"maxclass" : "newobj",
													"text" : "t b l b",
													"outlettype" : [ "bang", "", "bang" ],
													"id" : "obj-2",
													"fontsize" : 9.0,
													"patching_rect" : [ 50.0, 50.0, 51.0, 17.0 ],
													"numinlets" : 1,
													"numoutlets" : 3,
													"fontname" : "Verdana"
												}

											}
, 											{
												"box" : 												{
													"maxclass" : "newobj",
													"text" : "iter",
													"outlettype" : [ "" ],
													"id" : "obj-3",
													"fontsize" : 9.0,
													"patching_rect" : [ 70.0, 75.0, 25.0, 17.0 ],
													"numinlets" : 1,
													"numoutlets" : 1,
													"fontname" : "Verdana"
												}

											}
, 											{
												"box" : 												{
													"maxclass" : "newobj",
													"text" : "accum 0.",
													"outlettype" : [ "float" ],
													"id" : "obj-4",
													"fontsize" : 9.0,
													"patching_rect" : [ 50.0, 119.0, 50.0, 17.0 ],
													"numinlets" : 3,
													"numoutlets" : 1,
													"fontname" : "Verdana"
												}

											}
, 											{
												"box" : 												{
													"maxclass" : "inlet",
													"outlettype" : [ "" ],
													"id" : "obj-5",
													"patching_rect" : [ 50.0, 30.0, 15.0, 15.0 ],
													"numinlets" : 0,
													"numoutlets" : 1,
													"comment" : ""
												}

											}
, 											{
												"box" : 												{
													"maxclass" : "outlet",
													"id" : "obj-6",
													"patching_rect" : [ 50.0, 141.0, 15.0, 15.0 ],
													"numinlets" : 1,
													"numoutlets" : 0,
													"comment" : ""
												}

											}
 ],
										"lines" : [ 											{
												"patchline" : 												{
													"source" : [ "obj-5", 0 ],
													"destination" : [ "obj-2", 0 ],
													"hidden" : 0
												}

											}
, 											{
												"patchline" : 												{
													"source" : [ "obj-1", 0 ],
													"destination" : [ "obj-4", 0 ],
													"hidden" : 0
												}

											}
, 											{
												"patchline" : 												{
													"source" : [ "obj-2", 0 ],
													"destination" : [ "obj-4", 0 ],
													"hidden" : 0
												}

											}
, 											{
												"patchline" : 												{
													"source" : [ "obj-4", 0 ],
													"destination" : [ "obj-6", 0 ],
													"hidden" : 0
												}

											}
, 											{
												"patchline" : 												{
													"source" : [ "obj-2", 1 ],
													"destination" : [ "obj-3", 0 ],
													"hidden" : 0
												}

											}
, 											{
												"patchline" : 												{
													"source" : [ "obj-3", 0 ],
													"destination" : [ "obj-4", 1 ],
													"hidden" : 0
												}

											}
, 											{
												"patchline" : 												{
													"source" : [ "obj-2", 2 ],
													"destination" : [ "obj-1", 0 ],
													"hidden" : 0
												}

											}
 ]
									}
,
									"saved_object_attributes" : 									{
										"fontface" : 0,
										"default_fontsize" : 10.0,
										"fontsize" : 10.0,
										"default_fontname" : "Verdana",
										"globalpatchername" : "",
										"fontname" : "Verdana",
										"default_fontface" : 0
									}

								}

							}
, 							{
								"box" : 								{
									"maxclass" : "newobj",
									"text" : "vexpr 1.\/(pow($f1\\,4))",
									"outlettype" : [ "" ],
									"id" : "obj-5",
									"fontsize" : 9.0,
									"patching_rect" : [ 165.0, 98.0, 121.0, 17.0 ],
									"numinlets" : 1,
									"numoutlets" : 1,
									"fontname" : "Verdana"
								}

							}
, 							{
								"box" : 								{
									"maxclass" : "newobj",
									"text" : "vexpr max($f1\\,0.01)",
									"outlettype" : [ "" ],
									"id" : "obj-6",
									"fontsize" : 9.0,
									"patching_rect" : [ 165.0, 70.0, 114.0, 17.0 ],
									"numinlets" : 1,
									"numoutlets" : 1,
									"fontname" : "Verdana"
								}

							}
, 							{
								"box" : 								{
									"maxclass" : "outlet",
									"id" : "obj-7",
									"patching_rect" : [ 165.0, 221.0, 15.0, 15.0 ],
									"numinlets" : 1,
									"numoutlets" : 0,
									"comment" : ""
								}

							}
, 							{
								"box" : 								{
									"maxclass" : "inlet",
									"outlettype" : [ "" ],
									"id" : "obj-8",
									"patching_rect" : [ 165.0, 36.0, 15.0, 15.0 ],
									"numinlets" : 0,
									"numoutlets" : 1,
									"comment" : ""
								}

							}
, 							{
								"box" : 								{
									"maxclass" : "comment",
									"text" : "<- avoid dividing by 0",
									"id" : "obj-9",
									"fontsize" : 9.0,
									"patching_rect" : [ 292.0, 72.0, 151.0, 17.0 ],
									"numinlets" : 1,
									"numoutlets" : 0,
									"fontname" : "Verdana"
								}

							}
 ],
						"lines" : [ 							{
								"patchline" : 								{
									"source" : [ "obj-8", 0 ],
									"destination" : [ "obj-6", 0 ],
									"hidden" : 0
								}

							}
, 							{
								"patchline" : 								{
									"source" : [ "obj-6", 0 ],
									"destination" : [ "obj-5", 0 ],
									"hidden" : 0
								}

							}
, 							{
								"patchline" : 								{
									"source" : [ "obj-5", 0 ],
									"destination" : [ "obj-3", 0 ],
									"hidden" : 0
								}

							}
, 							{
								"patchline" : 								{
									"source" : [ "obj-2", 0 ],
									"destination" : [ "obj-3", 0 ],
									"hidden" : 0,
									"midpoints" : [ 33.5, 135.0, 174.5, 135.0 ]
								}

							}
, 							{
								"patchline" : 								{
									"source" : [ "obj-3", 0 ],
									"destination" : [ "obj-1", 0 ],
									"hidden" : 0
								}

							}
, 							{
								"patchline" : 								{
									"source" : [ "obj-1", 0 ],
									"destination" : [ "obj-7", 0 ],
									"hidden" : 0
								}

							}
, 							{
								"patchline" : 								{
									"source" : [ "obj-5", 0 ],
									"destination" : [ "obj-4", 0 ],
									"hidden" : 0,
									"midpoints" : [ 174.5, 122.0, 242.5, 122.0 ]
								}

							}
, 							{
								"patchline" : 								{
									"source" : [ "obj-4", 0 ],
									"destination" : [ "obj-3", 1 ],
									"hidden" : 0
								}

							}
 ]
					}
,
					"saved_object_attributes" : 					{
						"fontface" : 0,
						"default_fontsize" : 10.0,
						"fontsize" : 10.0,
						"default_fontname" : "Verdana",
						"globalpatchername" : "",
						"fontname" : "Verdana",
						"default_fontface" : 0
					}

				}

			}
, 			{
				"box" : 				{
					"maxclass" : "newobj",
					"text" : "p Calculate_distances",
					"outlettype" : [ "" ],
					"id" : "obj-12",
					"fontsize" : 9.0,
					"patching_rect" : [ 36.0, 143.0, 105.0, 17.0 ],
					"numinlets" : 1,
					"numoutlets" : 1,
					"fontname" : "Verdana",
					"patcher" : 					{
						"rect" : [ 304.0, 87.0, 302.0, 388.0 ],
						"bgcolor" : [ 1.0, 1.0, 1.0, 1.0 ],
						"bglocked" : 0,
						"defrect" : [ 304.0, 87.0, 302.0, 388.0 ],
						"openinpresentation" : 0,
						"default_fontsize" : 10.0,
						"default_fontface" : 0,
						"default_fontname" : "Verdana",
						"gridonopen" : 0,
						"gridsize" : [ 15.0, 15.0 ],
						"gridsnaponopen" : 0,
						"toolbarvisible" : 1,
						"boxfadetime" : 200,
						"boxanimatetime" : 200,
						"scrollanimatetime" : 200,
						"metadata" : [  ],
						"boxes" : [ 							{
								"box" : 								{
									"maxclass" : "newobj",
									"text" : "p sum",
									"outlettype" : [ "float" ],
									"id" : "obj-1",
									"fontsize" : 9.0,
									"patching_rect" : [ 71.0, 195.0, 36.0, 17.0 ],
									"numinlets" : 1,
									"numoutlets" : 1,
									"fontname" : "Verdana",
									"patcher" : 									{
										"rect" : [ 20.0, 74.0, 600.0, 426.0 ],
										"bgcolor" : [ 1.0, 1.0, 1.0, 1.0 ],
										"bglocked" : 0,
										"defrect" : [ 20.0, 74.0, 600.0, 426.0 ],
										"openinpresentation" : 0,
										"default_fontsize" : 10.0,
										"default_fontface" : 0,
										"default_fontname" : "Verdana",
										"gridonopen" : 0,
										"gridsize" : [ 15.0, 15.0 ],
										"gridsnaponopen" : 0,
										"toolbarvisible" : 1,
										"boxfadetime" : 200,
										"boxanimatetime" : 200,
										"scrollanimatetime" : 200,
										"metadata" : [  ],
										"boxes" : [ 											{
												"box" : 												{
													"maxclass" : "message",
													"text" : "set 0",
													"outlettype" : [ "" ],
													"id" : "obj-1",
													"fontsize" : 9.0,
													"patching_rect" : [ 101.0, 76.0, 33.0, 15.0 ],
													"numinlets" : 2,
													"numoutlets" : 1,
													"fontname" : "Verdana"
												}

											}
, 											{
												"box" : 												{
													"maxclass" : "newobj",
													"text" : "t b l b",
													"outlettype" : [ "bang", "", "bang" ],
													"id" : "obj-2",
													"fontsize" : 9.0,
													"patching_rect" : [ 50.0, 50.0, 51.0, 17.0 ],
													"numinlets" : 1,
													"numoutlets" : 3,
													"fontname" : "Verdana"
												}

											}
, 											{
												"box" : 												{
													"maxclass" : "newobj",
													"text" : "iter",
													"outlettype" : [ "" ],
													"id" : "obj-3",
													"fontsize" : 9.0,
													"patching_rect" : [ 70.0, 75.0, 25.0, 17.0 ],
													"numinlets" : 1,
													"numoutlets" : 1,
													"fontname" : "Verdana"
												}

											}
, 											{
												"box" : 												{
													"maxclass" : "newobj",
													"text" : "accum 0.",
													"outlettype" : [ "float" ],
													"id" : "obj-4",
													"fontsize" : 9.0,
													"patching_rect" : [ 50.0, 119.0, 50.0, 17.0 ],
													"numinlets" : 3,
													"numoutlets" : 1,
													"fontname" : "Verdana"
												}

											}
, 											{
												"box" : 												{
													"maxclass" : "inlet",
													"outlettype" : [ "" ],
													"id" : "obj-5",
													"patching_rect" : [ 50.0, 30.0, 15.0, 15.0 ],
													"numinlets" : 0,
													"numoutlets" : 1,
													"comment" : ""
												}

											}
, 											{
												"box" : 												{
													"maxclass" : "outlet",
													"id" : "obj-6",
													"patching_rect" : [ 50.0, 141.0, 15.0, 15.0 ],
													"numinlets" : 1,
													"numoutlets" : 0,
													"comment" : ""
												}

											}
 ],
										"lines" : [ 											{
												"patchline" : 												{
													"source" : [ "obj-5", 0 ],
													"destination" : [ "obj-2", 0 ],
													"hidden" : 0
												}

											}
, 											{
												"patchline" : 												{
													"source" : [ "obj-2", 0 ],
													"destination" : [ "obj-4", 0 ],
													"hidden" : 0
												}

											}
, 											{
												"patchline" : 												{
													"source" : [ "obj-1", 0 ],
													"destination" : [ "obj-4", 0 ],
													"hidden" : 0
												}

											}
, 											{
												"patchline" : 												{
													"source" : [ "obj-4", 0 ],
													"destination" : [ "obj-6", 0 ],
													"hidden" : 0
												}

											}
, 											{
												"patchline" : 												{
													"source" : [ "obj-2", 1 ],
													"destination" : [ "obj-3", 0 ],
													"hidden" : 0
												}

											}
, 											{
												"patchline" : 												{
													"source" : [ "obj-3", 0 ],
													"destination" : [ "obj-4", 1 ],
													"hidden" : 0
												}

											}
, 											{
												"patchline" : 												{
													"source" : [ "obj-2", 2 ],
													"destination" : [ "obj-1", 0 ],
													"hidden" : 0
												}

											}
 ]
									}
,
									"saved_object_attributes" : 									{
										"fontface" : 0,
										"default_fontsize" : 10.0,
										"fontsize" : 10.0,
										"default_fontname" : "Verdana",
										"globalpatchername" : "",
										"fontname" : "Verdana",
										"default_fontface" : 0
									}

								}

							}
, 							{
								"box" : 								{
									"maxclass" : "outlet",
									"id" : "obj-2",
									"patching_rect" : [ 50.0, 276.0, 15.0, 15.0 ],
									"numinlets" : 1,
									"numoutlets" : 0,
									"comment" : ""
								}

							}
, 							{
								"box" : 								{
									"maxclass" : "inlet",
									"outlettype" : [ "" ],
									"id" : "obj-3",
									"patching_rect" : [ 50.0, 47.0, 15.0, 15.0 ],
									"numinlets" : 0,
									"numoutlets" : 1,
									"comment" : ""
								}

							}
, 							{
								"box" : 								{
									"maxclass" : "newobj",
									"text" : "zl group 256",
									"outlettype" : [ "", "" ],
									"id" : "obj-4",
									"fontsize" : 9.0,
									"patching_rect" : [ 50.0, 246.0, 67.0, 17.0 ],
									"numinlets" : 2,
									"numoutlets" : 2,
									"fontname" : "Verdana"
								}

							}
, 							{
								"box" : 								{
									"maxclass" : "newobj",
									"text" : "sqrt",
									"outlettype" : [ "float" ],
									"id" : "obj-5",
									"fontsize" : 9.0,
									"patching_rect" : [ 71.0, 219.0, 27.0, 17.0 ],
									"numinlets" : 1,
									"numoutlets" : 1,
									"fontname" : "Verdana"
								}

							}
, 							{
								"box" : 								{
									"maxclass" : "newobj",
									"text" : "vexpr $f1*$f1",
									"outlettype" : [ "" ],
									"id" : "obj-6",
									"fontsize" : 9.0,
									"patching_rect" : [ 71.0, 169.0, 79.0, 17.0 ],
									"numinlets" : 1,
									"numoutlets" : 1,
									"fontname" : "Verdana"
								}

							}
, 							{
								"box" : 								{
									"maxclass" : "newobj",
									"text" : "t b dump l",
									"outlettype" : [ "bang", "dump", "" ],
									"id" : "obj-7",
									"fontsize" : 9.0,
									"patching_rect" : [ 50.0, 78.0, 52.0, 17.0 ],
									"numinlets" : 1,
									"numoutlets" : 3,
									"fontname" : "Verdana"
								}

							}
, 							{
								"box" : 								{
									"maxclass" : "newobj",
									"text" : "vexpr $f1-$f2",
									"outlettype" : [ "" ],
									"id" : "obj-8",
									"fontsize" : 9.0,
									"patching_rect" : [ 71.0, 144.0, 182.0, 17.0 ],
									"numinlets" : 2,
									"numoutlets" : 1,
									"fontname" : "Verdana"
								}

							}
, 							{
								"box" : 								{
									"maxclass" : "newobj",
									"text" : "coll #0_loudspeaker_setup 1",
									"outlettype" : [ "", "", "", "" ],
									"id" : "obj-9",
									"fontsize" : 9.0,
									"patching_rect" : [ 71.0, 117.0, 163.0, 17.0 ],
									"numinlets" : 1,
									"numoutlets" : 4,
									"fontname" : "Verdana",
									"save" : [ "#N", "coll", "$0_loudspeaker_setup", 1, ";" ],
									"saved_object_attributes" : 									{
										"embed" : 0
									}

								}

							}
 ],
						"lines" : [ 							{
								"patchline" : 								{
									"source" : [ "obj-3", 0 ],
									"destination" : [ "obj-7", 0 ],
									"hidden" : 0
								}

							}
, 							{
								"patchline" : 								{
									"source" : [ "obj-7", 0 ],
									"destination" : [ "obj-4", 0 ],
									"hidden" : 0
								}

							}
, 							{
								"patchline" : 								{
									"source" : [ "obj-5", 0 ],
									"destination" : [ "obj-4", 0 ],
									"hidden" : 0
								}

							}
, 							{
								"patchline" : 								{
									"source" : [ "obj-4", 0 ],
									"destination" : [ "obj-2", 0 ],
									"hidden" : 0
								}

							}
, 							{
								"patchline" : 								{
									"source" : [ "obj-7", 1 ],
									"destination" : [ "obj-9", 0 ],
									"hidden" : 0
								}

							}
, 							{
								"patchline" : 								{
									"source" : [ "obj-9", 0 ],
									"destination" : [ "obj-8", 0 ],
									"hidden" : 0
								}

							}
, 							{
								"patchline" : 								{
									"source" : [ "obj-8", 0 ],
									"destination" : [ "obj-6", 0 ],
									"hidden" : 0
								}

							}
, 							{
								"patchline" : 								{
									"source" : [ "obj-6", 0 ],
									"destination" : [ "obj-1", 0 ],
									"hidden" : 0
								}

							}
, 							{
								"patchline" : 								{
									"source" : [ "obj-1", 0 ],
									"destination" : [ "obj-5", 0 ],
									"hidden" : 0
								}

							}
, 							{
								"patchline" : 								{
									"source" : [ "obj-7", 2 ],
									"destination" : [ "obj-8", 1 ],
									"hidden" : 0,
									"midpoints" : [ 92.5, 105.0, 243.5, 105.0 ]
								}

							}
 ]
					}
,
					"saved_object_attributes" : 					{
						"fontface" : 0,
						"default_fontsize" : 10.0,
						"fontsize" : 10.0,
						"default_fontname" : "Verdana",
						"globalpatchername" : "",
						"fontname" : "Verdana",
						"default_fontface" : 0
					}

				}

			}
, 			{
				"box" : 				{
					"maxclass" : "newobj",
					"text" : "coll #0_loudspeaker_setup 1",
					"outlettype" : [ "", "", "", "" ],
					"id" : "obj-13",
					"fontsize" : 9.0,
					"patching_rect" : [ 148.0, 184.0, 175.0, 17.0 ],
					"numinlets" : 1,
					"numoutlets" : 4,
					"fontname" : "Verdana",
					"save" : [ "#N", "coll", "$0_loudspeaker_setup", 1, ";" ],
					"saved_object_attributes" : 					{
						"embed" : 0
					}

				}

			}
 ],
		"lines" : [ 			{
				"patchline" : 				{
					"source" : [ "obj-6", 0 ],
					"destination" : [ "obj-8", 0 ],
					"hidden" : 0
				}

			}
, 			{
				"patchline" : 				{
					"source" : [ "obj-7", 1 ],
					"destination" : [ "obj-8", 0 ],
					"hidden" : 0,
					"midpoints" : [ 374.5, 90.0, 45.5, 90.0 ]
				}

			}
, 			{
				"patchline" : 				{
					"source" : [ "obj-8", 0 ],
					"destination" : [ "obj-12", 0 ],
					"hidden" : 0
				}

			}
, 			{
				"patchline" : 				{
					"source" : [ "obj-12", 0 ],
					"destination" : [ "obj-11", 0 ],
					"hidden" : 0
				}

			}
, 			{
				"patchline" : 				{
					"source" : [ "obj-11", 0 ],
					"destination" : [ "obj-9", 0 ],
					"hidden" : 0
				}

			}
, 			{
				"patchline" : 				{
					"source" : [ "obj-9", 0 ],
					"destination" : [ "obj-10", 0 ],
					"hidden" : 0
				}

			}
, 			{
				"patchline" : 				{
					"source" : [ "obj-8", 1 ],
					"destination" : [ "obj-5", 0 ],
					"hidden" : 0
				}

			}
, 			{
				"patchline" : 				{
					"source" : [ "obj-4", 0 ],
					"destination" : [ "obj-13", 0 ],
					"hidden" : 0,
					"midpoints" : [ 269.5, 177.0, 157.5, 177.0 ]
				}

			}
, 			{
				"patchline" : 				{
					"source" : [ "obj-5", 0 ],
					"destination" : [ "obj-13", 0 ],
					"hidden" : 0
				}

			}
, 			{
				"patchline" : 				{
					"source" : [ "obj-3", 0 ],
					"destination" : [ "obj-2", 0 ],
					"hidden" : 0
				}

			}
, 			{
				"patchline" : 				{
					"source" : [ "obj-13", 0 ],
					"destination" : [ "obj-2", 0 ],
					"hidden" : 0
				}

			}
, 			{
				"patchline" : 				{
					"source" : [ "obj-2", 0 ],
					"destination" : [ "obj-1", 0 ],
					"hidden" : 0
				}

			}
, 			{
				"patchline" : 				{
					"source" : [ "obj-13", 1 ],
					"destination" : [ "obj-3", 0 ],
					"hidden" : 0
				}

			}
, 			{
				"patchline" : 				{
					"source" : [ "obj-8", 2 ],
					"destination" : [ "obj-4", 0 ],
					"hidden" : 0
				}

			}
 ]
	}

}
