{
	"patcher" : 	{
		"rect" : [ 503.0, 344.0, 608.0, 427.0 ],
		"bgcolor" : [ 1.0, 1.0, 1.0, 1.0 ],
		"bglocked" : 0,
		"defrect" : [ 503.0, 344.0, 608.0, 427.0 ],
		"openinpresentation" : 0,
		"default_fontsize" : 10.0,
		"default_fontface" : 0,
		"default_fontname" : "Verdana",
		"gridonopen" : 0,
		"gridsize" : [ 15.0, 15.0 ],
		"gridsnaponopen" : 0,
		"toolbarvisible" : 1,
		"boxfadetime" : 200,
		"boxanimatetime" : 200,
		"scrollanimatetime" : 200,
		"metadata" : [  ],
		"boxes" : [ 			{
				"box" : 				{
					"maxclass" : "comment",
					"text" : "Right channel",
					"id" : "obj-1",
					"fontsize" : 9.0,
					"patching_rect" : [ 374.0, 57.0, 66.0, 17.0 ],
					"numinlets" : 1,
					"numoutlets" : 0,
					"fontname" : "Verdana"
				}

			}
, 			{
				"box" : 				{
					"maxclass" : "comment",
					"text" : "at Wikipedia",
					"id" : "obj-2",
					"textcolor" : [ 0.4, 0.4, 0.8, 1.0 ],
					"frgb" : [ 0.4, 0.4, 0.8, 1.0 ],
					"fontsize" : 9.0,
					"patching_rect" : [ 167.0, 359.0, 63.0, 17.0 ],
					"numinlets" : 1,
					"numoutlets" : 0,
					"fontname" : "Verdana"
				}

			}
, 			{
				"box" : 				{
					"maxclass" : "comment",
					"text" : "Decoder based on the equation found",
					"id" : "obj-3",
					"fontsize" : 9.0,
					"patching_rect" : [ 4.0, 359.0, 167.0, 17.0 ],
					"numinlets" : 1,
					"numoutlets" : 0,
					"fontname" : "Verdana"
				}

			}
, 			{
				"box" : 				{
					"maxclass" : "ubutton",
					"dragtrack" : 1,
					"outlettype" : [ "bang", "bang", "", "int" ],
					"id" : "obj-4",
					"handoff" : "",
					"patching_rect" : [ 163.0, 357.0, 67.0, 16.0 ],
					"numinlets" : 1,
					"numoutlets" : 4
				}

			}
, 			{
				"box" : 				{
					"maxclass" : "message",
					"text" : ";\rmax launchbrowser http:\/\/en.wikipedia.org\/wiki\/Ambisonic_UHJ_format",
					"linecount" : 2,
					"outlettype" : [ "" ],
					"id" : "obj-5",
					"hidden" : 1,
					"fontsize" : 9.0,
					"patching_rect" : [ -5.0, 377.0, 346.0, 26.0 ],
					"numinlets" : 2,
					"numoutlets" : 1,
					"fontname" : "Verdana"
				}

			}
, 			{
				"box" : 				{
					"maxclass" : "newobj",
					"text" : "-~",
					"outlettype" : [ "signal" ],
					"id" : "obj-6",
					"fontsize" : 9.0,
					"patching_rect" : [ 87.0, 250.0, 27.0, 17.0 ],
					"numinlets" : 2,
					"numoutlets" : 1,
					"fontname" : "Verdana"
				}

			}
, 			{
				"box" : 				{
					"maxclass" : "newobj",
					"text" : "*~ 0.1925",
					"outlettype" : [ "signal" ],
					"id" : "obj-7",
					"fontsize" : 9.0,
					"patching_rect" : [ 508.0, 273.0, 59.0, 17.0 ],
					"numinlets" : 2,
					"numoutlets" : 1,
					"fontname" : "Verdana"
				}

			}
, 			{
				"box" : 				{
					"maxclass" : "newobj",
					"text" : "*~ 0.3815",
					"outlettype" : [ "signal" ],
					"id" : "obj-8",
					"fontsize" : 9.0,
					"patching_rect" : [ 437.0, 273.0, 59.0, 17.0 ],
					"numinlets" : 2,
					"numoutlets" : 1,
					"fontname" : "Verdana"
				}

			}
, 			{
				"box" : 				{
					"maxclass" : "newobj",
					"text" : "*~ -0.414",
					"outlettype" : [ "signal" ],
					"id" : "obj-9",
					"fontsize" : 9.0,
					"patching_rect" : [ 322.0, 273.0, 61.0, 17.0 ],
					"numinlets" : 2,
					"numoutlets" : 1,
					"fontname" : "Verdana"
				}

			}
, 			{
				"box" : 				{
					"maxclass" : "newobj",
					"text" : "*~ 0.2095",
					"outlettype" : [ "signal" ],
					"id" : "obj-10",
					"fontsize" : 9.0,
					"patching_rect" : [ 258.0, 273.0, 59.0, 17.0 ],
					"numinlets" : 2,
					"numoutlets" : 1,
					"fontname" : "Verdana"
				}

			}
, 			{
				"box" : 				{
					"maxclass" : "comment",
					"text" : "Y",
					"id" : "obj-11",
					"fontsize" : 9.0,
					"patching_rect" : [ 486.0, 332.0, 29.0, 17.0 ],
					"numinlets" : 1,
					"numoutlets" : 0,
					"fontname" : "Verdana"
				}

			}
, 			{
				"box" : 				{
					"maxclass" : "comment",
					"text" : "X",
					"id" : "obj-12",
					"fontsize" : 9.0,
					"patching_rect" : [ 293.0, 332.0, 29.0, 17.0 ],
					"numinlets" : 1,
					"numoutlets" : 0,
					"fontname" : "Verdana"
				}

			}
, 			{
				"box" : 				{
					"maxclass" : "newobj",
					"text" : "-~",
					"outlettype" : [ "signal" ],
					"id" : "obj-13",
					"fontsize" : 9.0,
					"patching_rect" : [ 322.0, 251.0, 27.0, 17.0 ],
					"numinlets" : 2,
					"numoutlets" : 1,
					"fontname" : "Verdana"
				}

			}
, 			{
				"box" : 				{
					"maxclass" : "newobj",
					"text" : "*~ 0.082",
					"outlettype" : [ "signal" ],
					"id" : "obj-14",
					"fontsize" : 9.0,
					"patching_rect" : [ 87.0, 272.0, 53.0, 17.0 ],
					"numinlets" : 2,
					"numoutlets" : 1,
					"fontname" : "Verdana"
				}

			}
, 			{
				"box" : 				{
					"maxclass" : "newobj",
					"text" : "*~ 0.491",
					"outlettype" : [ "signal" ],
					"id" : "obj-15",
					"fontsize" : 9.0,
					"patching_rect" : [ 26.0, 273.0, 53.0, 17.0 ],
					"numinlets" : 2,
					"numoutlets" : 1,
					"fontname" : "Verdana"
				}

			}
, 			{
				"box" : 				{
					"maxclass" : "newobj",
					"text" : "-~",
					"outlettype" : [ "signal" ],
					"id" : "obj-16",
					"fontsize" : 9.0,
					"patching_rect" : [ 437.0, 251.0, 27.0, 17.0 ],
					"numinlets" : 2,
					"numoutlets" : 1,
					"fontname" : "Verdana"
				}

			}
, 			{
				"box" : 				{
					"maxclass" : "newobj",
					"text" : "hilbert~",
					"outlettype" : [ "signal", "signal" ],
					"id" : "obj-17",
					"fontsize" : 9.0,
					"patching_rect" : [ 355.0, 88.0, 46.0, 17.0 ],
					"numinlets" : 1,
					"numoutlets" : 2,
					"fontname" : "Verdana"
				}

			}
, 			{
				"box" : 				{
					"maxclass" : "newobj",
					"text" : "hilbert~",
					"outlettype" : [ "signal", "signal" ],
					"id" : "obj-18",
					"fontsize" : 9.0,
					"patching_rect" : [ 26.0, 88.0, 71.0, 17.0 ],
					"numinlets" : 1,
					"numoutlets" : 2,
					"fontname" : "Verdana"
				}

			}
, 			{
				"box" : 				{
					"maxclass" : "outlet",
					"id" : "obj-19",
					"patching_rect" : [ 484.0, 307.0, 15.0, 15.0 ],
					"numinlets" : 1,
					"numoutlets" : 0,
					"comment" : ""
				}

			}
, 			{
				"box" : 				{
					"maxclass" : "outlet",
					"id" : "obj-20",
					"patching_rect" : [ 293.0, 307.0, 15.0, 15.0 ],
					"numinlets" : 1,
					"numoutlets" : 0,
					"comment" : ""
				}

			}
, 			{
				"box" : 				{
					"maxclass" : "outlet",
					"id" : "obj-21",
					"patching_rect" : [ 69.0, 305.0, 15.0, 15.0 ],
					"numinlets" : 1,
					"numoutlets" : 0,
					"comment" : ""
				}

			}
, 			{
				"box" : 				{
					"maxclass" : "inlet",
					"outlettype" : [ "" ],
					"id" : "obj-22",
					"patching_rect" : [ 355.0, 57.0, 15.0, 15.0 ],
					"numinlets" : 0,
					"numoutlets" : 1,
					"comment" : ""
				}

			}
, 			{
				"box" : 				{
					"maxclass" : "inlet",
					"outlettype" : [ "" ],
					"id" : "obj-23",
					"patching_rect" : [ 26.0, 57.0, 15.0, 15.0 ],
					"numinlets" : 0,
					"numoutlets" : 1,
					"comment" : ""
				}

			}
, 			{
				"box" : 				{
					"maxclass" : "comment",
					"text" : "W",
					"id" : "obj-24",
					"fontsize" : 9.0,
					"patching_rect" : [ 70.0, 327.0, 29.0, 17.0 ],
					"numinlets" : 1,
					"numoutlets" : 0,
					"fontname" : "Verdana"
				}

			}
, 			{
				"box" : 				{
					"maxclass" : "comment",
					"text" : "Decodes a stereo siganal to the W, X, Y Ambisonics components",
					"id" : "obj-25",
					"fontsize" : 9.0,
					"patching_rect" : [ 3.0, 341.0, 295.0, 17.0 ],
					"numinlets" : 1,
					"numoutlets" : 0,
					"fontname" : "Verdana"
				}

			}
, 			{
				"box" : 				{
					"maxclass" : "comment",
					"text" : "Left channel",
					"id" : "obj-26",
					"fontsize" : 9.0,
					"patching_rect" : [ 46.0, 57.0, 66.0, 17.0 ],
					"numinlets" : 1,
					"numoutlets" : 0,
					"fontname" : "Verdana"
				}

			}
 ],
		"lines" : [ 			{
				"patchline" : 				{
					"source" : [ "obj-4", 0 ],
					"destination" : [ "obj-5", 0 ],
					"hidden" : 1
				}

			}
, 			{
				"patchline" : 				{
					"source" : [ "obj-23", 0 ],
					"destination" : [ "obj-18", 0 ],
					"hidden" : 0
				}

			}
, 			{
				"patchline" : 				{
					"source" : [ "obj-17", 0 ],
					"destination" : [ "obj-15", 0 ],
					"hidden" : 0,
					"midpoints" : [ 364.5, 214.0, 35.5, 214.0 ]
				}

			}
, 			{
				"patchline" : 				{
					"source" : [ "obj-18", 0 ],
					"destination" : [ "obj-15", 0 ],
					"hidden" : 0,
					"midpoints" : [ 35.5, 189.0, 35.5, 189.0 ]
				}

			}
, 			{
				"patchline" : 				{
					"source" : [ "obj-15", 0 ],
					"destination" : [ "obj-21", 0 ],
					"hidden" : 0
				}

			}
, 			{
				"patchline" : 				{
					"source" : [ "obj-14", 0 ],
					"destination" : [ "obj-21", 0 ],
					"hidden" : 0
				}

			}
, 			{
				"patchline" : 				{
					"source" : [ "obj-18", 1 ],
					"destination" : [ "obj-6", 0 ],
					"hidden" : 0,
					"color" : [ 0.8, 0.54902, 0.54902, 1.0 ]
				}

			}
, 			{
				"patchline" : 				{
					"source" : [ "obj-6", 0 ],
					"destination" : [ "obj-14", 0 ],
					"hidden" : 0
				}

			}
, 			{
				"patchline" : 				{
					"source" : [ "obj-17", 1 ],
					"destination" : [ "obj-6", 1 ],
					"hidden" : 0,
					"color" : [ 0.8, 0.54902, 0.54902, 1.0 ],
					"midpoints" : [ 391.5, 238.0, 104.5, 238.0 ]
				}

			}
, 			{
				"patchline" : 				{
					"source" : [ "obj-17", 0 ],
					"destination" : [ "obj-10", 0 ],
					"hidden" : 0,
					"midpoints" : [ 364.5, 196.0, 267.5, 196.0 ]
				}

			}
, 			{
				"patchline" : 				{
					"source" : [ "obj-18", 0 ],
					"destination" : [ "obj-10", 0 ],
					"hidden" : 0,
					"midpoints" : [ 35.5, 205.0, 267.5, 205.0 ]
				}

			}
, 			{
				"patchline" : 				{
					"source" : [ "obj-10", 0 ],
					"destination" : [ "obj-20", 0 ],
					"hidden" : 0
				}

			}
, 			{
				"patchline" : 				{
					"source" : [ "obj-9", 0 ],
					"destination" : [ "obj-20", 0 ],
					"hidden" : 0
				}

			}
, 			{
				"patchline" : 				{
					"source" : [ "obj-18", 1 ],
					"destination" : [ "obj-13", 0 ],
					"hidden" : 0,
					"color" : [ 0.8, 0.54902, 0.54902, 1.0 ],
					"midpoints" : [ 87.5, 160.0, 331.5, 160.0 ]
				}

			}
, 			{
				"patchline" : 				{
					"source" : [ "obj-13", 0 ],
					"destination" : [ "obj-9", 0 ],
					"hidden" : 0
				}

			}
, 			{
				"patchline" : 				{
					"source" : [ "obj-17", 1 ],
					"destination" : [ "obj-13", 1 ],
					"hidden" : 0,
					"color" : [ 0.8, 0.54902, 0.54902, 1.0 ],
					"midpoints" : [ 391.5, 178.0, 339.5, 178.0 ]
				}

			}
, 			{
				"patchline" : 				{
					"source" : [ "obj-22", 0 ],
					"destination" : [ "obj-17", 0 ],
					"hidden" : 0
				}

			}
, 			{
				"patchline" : 				{
					"source" : [ "obj-18", 0 ],
					"destination" : [ "obj-16", 0 ],
					"hidden" : 0,
					"color" : [ 1.0, 0.890196, 0.090196, 1.0 ],
					"midpoints" : [ 35.5, 130.0, 446.5, 130.0 ]
				}

			}
, 			{
				"patchline" : 				{
					"source" : [ "obj-16", 0 ],
					"destination" : [ "obj-8", 0 ],
					"hidden" : 0
				}

			}
, 			{
				"patchline" : 				{
					"source" : [ "obj-17", 0 ],
					"destination" : [ "obj-16", 1 ],
					"hidden" : 0,
					"color" : [ 1.0, 0.890196, 0.090196, 1.0 ],
					"midpoints" : [ 364.5, 117.0, 454.5, 117.0 ]
				}

			}
, 			{
				"patchline" : 				{
					"source" : [ "obj-8", 0 ],
					"destination" : [ "obj-19", 0 ],
					"hidden" : 0
				}

			}
, 			{
				"patchline" : 				{
					"source" : [ "obj-7", 0 ],
					"destination" : [ "obj-19", 0 ],
					"hidden" : 0
				}

			}
, 			{
				"patchline" : 				{
					"source" : [ "obj-18", 1 ],
					"destination" : [ "obj-7", 0 ],
					"hidden" : 0,
					"midpoints" : [ 87.5, 149.0, 517.5, 149.0 ]
				}

			}
, 			{
				"patchline" : 				{
					"source" : [ "obj-17", 1 ],
					"destination" : [ "obj-7", 0 ],
					"hidden" : 0,
					"midpoints" : [ 391.5, 144.0, 517.5, 144.0 ]
				}

			}
 ]
	}

}
