max v2;#N vpatcher 503 344 1111 745;#P origin 22 0;#P window setfont "Sans Serif" 9.;#P comment 374 57 66 196617 Right channel;#P comment 167 359 63 196617 at Wikipedia;#B color 12;#P comment 4 359 167 196617 Decoder based on the equation found;#P user ubutton 163 357 67 16 0 0;#P window linecount 2;#P hidden message -5 377 346 196617 \; max launchbrowser http://en.wikipedia.org/wiki/Ambisonic_UHJ_format;#P window linecount 1;#P newex 87 250 27 196617 -~;#P newex 508 273 59 196617 *~ 0.1925;#P newex 437 273 59 196617 *~ 0.3815;#P newex 322 273 61 196617 *~ -0.414;#P newex 258 273 59 196617 *~ 0.2095;#P comment 486 332 29 196617 Y;#P comment 293 332 29 196617 X;#P newex 322 251 27 196617 -~;#P newex 87 272 53 196617 *~ 0.082;#P newex 26 273 53 196617 *~ 0.491;#P newex 437 251 27 196617 -~;#P newex 355 88 46 196617 hilbert~;#P newex 26 88 71 196617 hilbert~;#P outlet 484 307 15 0;#P outlet 293 307 15 0;#P outlet 69 305 15 0;#P inlet 355 57 15 0;#P inlet 26 57 15 0;#P comment 70 327 29 196617 W;#P comment 3 341 295 196617 Decodes a stereo siganal to the W \, X \, Y Ambisonics components;#P comment 46 57 66 196617 Left channel;#P hidden connect 22 0 21 0;#P connect 3 0 8 0;#P fasten 9 0 11 0 360 214 31 214;#P fasten 8 0 11 0 31 189 31 189;#P connect 11 0 5 0;#P connect 12 0 5 0;#P connect 8 1 20 0;#P lcolor 5;#P connect 20 0 12 0;#P fasten 9 1 20 1 396 238 109 238;#P lcolor 5;#P fasten 9 0 16 0 360 196 263 196;#P fasten 8 0 16 0 31 205 263 205;#P connect 16 0 6 0;#P connect 17 0 6 0;#P fasten 8 1 13 0 92 160 327 160;#P lcolor 5;#P connect 13 0 17 0;#P fasten 9 1 13 1 396 178 344 178;#P lcolor 5;#P connect 4 0 9 0;#P fasten 8 0 10 0 31 130 442 130;#P lcolor 7;#P connect 10 0 18 0;#P fasten 9 0 10 1 360 117 459 117;#P lcolor 7;#P connect 18 0 7 0;#P connect 19 0 7 0;#P fasten 8 1 19 0 92 149 513 149;#P fasten 9 1 19 0 396 144 513 144;#P pop;