max v2;#N vpatcher 15 81 829 689;#P window setfont "Sans Serif" 9.;#P newex 566 131 62 196617 prepend set;#P newex 63 386 48 196617 t b b i;#P newex 63 341 67 196617 loadmess $1;#P newex 63 363 96 196617 if $i1 != 0 then $i1;#P outlet 651 417 15 0;#P window linecount 2;#P newex 120 408 371 196617 sprintf script new parameter newex 391 245 270 196617 jcom.parameter xyz/%ld @type msg_list @description "Position of Nth voice as xyz coodinate.";#P window linecount 1;#P message 63 473 177 196617 script connect parameter 1 trigger 0;#P message 82 451 160 196617 script connect pak 0 parameter 0;#N thispatcher;#Q end;#P newobj 63 500 61 196617 thispatcher;#P newex 391 90 44 196617 qlim 65;#P newex 391 171 62 196617 prepend set;#P newex 440 151 62 196617 prepend set;#P newex 489 131 62 196617 prepend set;#P newex 391 110 109 196617 unpack 0. 0. 0.;#P newex 391 62 139 196617 jcom.freeze_display.mxt $1;#P newex 651 294 27 196617 t l l;#P objectname trigger;#P newex 651 390 61 196617 prepend $1;#P newex 489 192 39 196617 pvar Z;#P newex 440 192 40 196617 pvar Y;#P newex 391 192 40 196617 pvar X;#P newex 391 221 108 196617 pak 0. 0. 0.;#P objectname pak;#P flonum 221 3 53 9 0 0 8224 3 198 198 198 221 221 221 222 222 222 0 0 0;#P objectname Z;#P flonum 166 3 53 9 0 0 8224 3 198 198 198 221 221 221 222 222 222 0 0 0;#P objectname Y;#P flonum 111 3 53 9 0 0 8224 3 198 198 198 221 221 221 222 222 222 0 0 0;#P objectname X;#P comment 7 5 96 196617 Voice $1:;#B frgb 172 172 172;#P user panel 2 2 275 18;#X brgb 80 80 80;#X frgb 255 255 255;#X border 1;#X rounded 0;#X shadow 0;#X done;#P connect 23 0 22 0;#P connect 22 0 24 0;#P connect 24 0 19 0;#P fasten 20 0 17 0 125 494 68 494;#P connect 19 0 17 0;#P fasten 18 0 17 0 87 494 68 494;#P connect 24 1 18 0;#P connect 24 2 20 0;#P fasten 10 1 11 0 673 315 681 315 681 47 396 47;#P connect 11 0 16 0;#P connect 16 0 12 0;#P connect 12 0 15 0;#P connect 15 0 6 0;#P connect 6 0 5 0;#P fasten 25 0 5 0 571 215 396 215;#P connect 12 1 14 0;#P connect 14 0 7 0;#P connect 7 0 5 1;#P connect 12 2 13 0;#P connect 13 0 8 0;#P connect 8 0 5 2;#P fasten 11 0 25 0 396 85 571 85;#P connect 10 0 9 0;#P connect 9 0 21 0;#P pop;