{
	"patcher" : 	{
		"fileversion" : 1,
		"rect" : [ 15.0, 55.0, 392.0, 278.0 ],
		"bglocked" : 0,
		"defrect" : [ 15.0, 55.0, 392.0, 278.0 ],
		"openrect" : [ 0.0, 0.0, 0.0, 0.0 ],
		"openinpresentation" : 0,
		"default_fontsize" : 10.0,
		"default_fontface" : 0,
		"default_fontname" : "Verdana",
		"gridonopen" : 0,
		"gridsize" : [ 5.0, 5.0 ],
		"gridsnaponopen" : 0,
		"toolbarvisible" : 1,
		"boxanimatetime" : 200,
		"imprint" : 0,
		"metadata" : [  ],
		"boxes" : [ 			{
				"box" : 				{
					"maxclass" : "newobj",
					"text" : "route 0",
					"outlettype" : [ "", "" ],
					"fontsize" : 9.0,
					"patching_rect" : [ 67.0, 167.0, 41.0, 17.0 ],
					"numinlets" : 1,
					"id" : "obj-1",
					"fontname" : "Verdana",
					"numoutlets" : 2
				}

			}
, 			{
				"box" : 				{
					"maxclass" : "newobj",
					"text" : "jcom.oscroute /multicable",
					"outlettype" : [ "", "" ],
					"fontsize" : 9.0,
					"patching_rect" : [ 67.0, 139.0, 126.0, 17.0 ],
					"numinlets" : 1,
					"id" : "obj-2",
					"fontname" : "Verdana",
					"numoutlets" : 2
				}

			}
, 			{
				"box" : 				{
					"maxclass" : "inlet",
					"outlettype" : [ "" ],
					"patching_rect" : [ 67.0, 119.0, 15.0, 15.0 ],
					"numinlets" : 0,
					"id" : "obj-3",
					"numoutlets" : 1,
					"comment" : ""
				}

			}
, 			{
				"box" : 				{
					"maxclass" : "outlet",
					"patching_rect" : [ 67.0, 191.0, 15.0, 15.0 ],
					"numinlets" : 1,
					"id" : "obj-4",
					"numoutlets" : 0,
					"comment" : ""
				}

			}
, 			{
				"box" : 				{
					"maxclass" : "comment",
					"text" : "jcom.ambi.getW~.mxt",
					"fontsize" : 12.0,
					"frgb" : [ 0.337255, 0.356863, 0.690196, 1.0 ],
					"patching_rect" : [ 44.0, 37.0, 156.0, 21.0 ],
					"numinlets" : 1,
					"id" : "obj-5",
					"fontname" : "Verdana",
					"numoutlets" : 0
				}

			}
, 			{
				"box" : 				{
					"maxclass" : "comment",
					"text" : "get the omni component of a ambisonic signal encoded on a multicable",
					"fontsize" : 9.0,
					"frgb" : [ 0.337255, 0.356863, 0.690196, 1.0 ],
					"patching_rect" : [ 44.0, 60.0, 370.0, 17.0 ],
					"numinlets" : 1,
					"id" : "obj-6",
					"fontname" : "Verdana",
					"numoutlets" : 0
				}

			}
 ],
		"lines" : [ 			{
				"patchline" : 				{
					"source" : [ "obj-1", 0 ],
					"destination" : [ "obj-4", 0 ],
					"hidden" : 0,
					"midpoints" : [  ]
				}

			}
, 			{
				"patchline" : 				{
					"source" : [ "obj-2", 0 ],
					"destination" : [ "obj-1", 0 ],
					"hidden" : 0,
					"midpoints" : [  ]
				}

			}
, 			{
				"patchline" : 				{
					"source" : [ "obj-3", 0 ],
					"destination" : [ "obj-2", 0 ],
					"hidden" : 0,
					"midpoints" : [  ]
				}

			}
 ]
	}

}
