max v2;
#N vpatcher 15 55 407 307;
#P window setfont "Sans Serif" 9.;
#P window linecount 1;
#P newex 67 167 37 9109513 route 0;
#P newex 67 139 115 9109513 jmod.oscroute /multicable;
#P inlet 67 119 15 0;
#P outlet 67 191 15 0;
#P window setfont "Sans Serif" 12.;
#P comment 44 37 156 9109516 jmod.ambi.getW~.mxt;
#P window setfont "Sans Serif" 9.;
#P comment 44 60 370 9109513 get the omni component of a ambisonic signal encoded on a multicable;
#P connect 3 0 4 0;
#P connect 4 0 5 0;
#P connect 5 0 2 0;
#P pop;
