max v2;
#N vpatcher 555 313 748 593;
#P outlet 60 178 15 0;
#P inlet 60 34 15 0;
#P window setfont "Sans Serif" 9.;
#P message 76 84 33 196617 set 0;
#P newex 60 104 40 196617 change;
#P message 60 85 14 196617 1;
#P newex 60 124 32 196617 / 0.;
#P newex 60 60 55 196617 route -96.;
#P connect 5 0 0 0;
#P connect 0 0 2 0;
#P connect 2 0 3 0;
#P connect 4 0 3 0;
#P connect 3 0 1 0;
#P connect 1 0 6 0;
#P fasten 0 1 6 0 110 158 65 158;
#P connect 0 1 4 0;
#P pop;
