max v2;#N vpatcher 34 647 607 822;#P origin -2409 -5279;#P window setfont "Sans Serif" 9.;#P window linecount 1;#P hidden newex 436 79 71 196617 s ctl-i-exists;#B color 5;#P hidden message 436 58 50 196617 $1;#P hidden newex 436 36 63 196617 r ctl-exists;#B color 5;#N vpatcher 39 397 1112 586;#P inlet 305 31 15 0;#P inlet 228 31 15 0;#P window setfont "Sans Serif" 9.;#P window linecount 1;#P message 305 50 37 196617 select;#P message 228 53 37 196617 select;#P newex 570 61 112 196617 sw $0chooTk;#B color 5;#P inlet 570 31 15 0;#P outlet 570 94 15 0;#P window linecount 0;#P message 554 61 14 196617 1;#P message 539 61 14 196617 0;#P inlet 539 31 15 0;#P newex 901 61 82 196617 r $0outVal;#B color 5;#P newex 358 61 74 196617 r $0CCval;#B color 5;#P newex 281 72 74 196617 sw $0CCnb;#B color 5;#P newex 204 72 74 196617 sw $0CCch;#B color 5;#P newex 127 50 74 196617 s $0learn;#B color 5;#P newex 127 70 74 196617 r $0learn+;#B color 5;#P newex 50 62 74 196617 sw $0swi;#B color 5;#P newex 434 61 102 196617 r ctlMenu;#B color 5;#P newex 802 61 95 196617 sw $0chooMap;#B color 5;#P newex 685 61 112 196617 sw $0chooMenu;#B color 5;#P inlet 802 31 15 0;#P inlet 685 31 15 0;#P inlet 281 31 15 0;#P inlet 204 31 15 0;#P inlet 127 31 15 0;#P inlet 50 31 15 0;#P outlet 901 94 15 0;#P outlet 802 94 15 0;#P outlet 685 94 15 0;#P outlet 358 94 15 0;#P outlet 281 94 15 0;#P outlet 204 94 15 0;#P outlet 127 94 15 0;#P outlet 50 94 15 0;#P outlet 434 94 15 0;#P connect 9 0 18 0;#P connect 18 0 1 0;#P connect 10 0 20 0;#P connect 19 0 2 0;#P connect 11 0 21 0;#P connect 32 0 3 0;#P connect 21 0 3 0;#P connect 33 0 31 0;#P connect 12 0 22 0;#P connect 31 0 4 0;#P connect 22 0 4 0;#P connect 34 0 32 0;#P connect 23 0 5 0;#P connect 17 0 0 0;#P connect 25 0 26 0;#P fasten 25 0 27 0 544 54 559 54;#P connect 29 0 30 0;#P fasten 26 0 28 0 544 89 575 89;#P connect 30 0 28 0;#P connect 13 0 15 0;#P connect 15 0 6 0;#P fasten 26 0 6 0 544 89 690 89;#P connect 14 0 16 0;#P connect 16 0 7 0;#P fasten 27 0 7 0 559 85 807 85;#P connect 24 0 8 0;#P pop;#P hidden newobj 0 29 329 196617 p midi-learn-sets $1;#N vtable 128 10 59 220 226 4 128 $1extra;#P hidden newobj 133 60 73 196617 table $1extra;#P objectname tab;#P hidden newex 211 60 50 196617 autopattr;#X prestore chan 1 0 0;#X prestore choo 1 0 off;#X prestore ctrl 1 0 0;#X prestore map 1 0 off;#X prestore on 1 0 0;#X prestore tab 128 0 0 1 2 3 4 5 6 7 8 9 10 11 12 13 14 15 16 17 18 19 20 21 22 23 24 25 26 27 28 29 30 31 32 33 34 35 36 37 38 39;#X prestore tab 128 40 40 41 42 43 44 45 46 47 48 49 50 51 52 53 54 55 56 57 58 59 60 61 62 63 64 65 66 67 68 69 70 71 72 73 74 75 76 77 78 79;#X prestore tab 128 80 80 81 82 83 84 85 86 87 88 89 90 91 92 93 94 95 96 97 98 99 100 101 102 103 104 105 106 107 108 109 110 111 112 113 114 115 116 117 118 119;#X prestore tab 128 120 120 121 122 123 124 125 126 127;#X prestore tk 1 0 0;#P objectname u070000001;#P user panel 15 0 16 16;#X brgb 191 191 191;#X frgb 0 0 0;#X border 1;#X rounded 1;#X shadow 4;#X done;#N vpatcher -2 403 1268 839;#P origin -45 -111;#P window setfont "Sans Serif" 9.;#P window linecount 1;#N vpatcher 10 59 138 257;#P origin -860 -125;#P window setfont "Sans Serif" 9.;#P newex 45 76 21 196617 t 0;#P newex 11 76 31 196617 t b 1;#P newex 57 104 36 196617 zl reg;#P newex 11 35 82 196617 zl slice 1;#P newex 11 126 56 196617 gate;#P newex 11 55 44 196617 sel $1;#P inlet 11 16 15 0;#P inlet 45 16 15 0;#P outlet 11 148 15 0;#P connect 2 0 5 0;#P connect 5 0 3 0;#P connect 3 0 7 0;#P connect 8 0 4 0;#P connect 7 1 4 0;#P connect 4 0 0 0;#P connect 1 0 3 1;#P connect 3 1 8 0;#P fasten 7 0 6 0 16 98 62 98;#P connect 6 0 4 1;#P connect 5 1 6 1;#P pop;#P newobj 948 176 60 196617 p route_int;#P newex 961 129 60 196617 route color;#P newex 1048 131 60 196617 route color;#P newex 961 108 82 196617 r $0CCch;#B color 5;#P newex 1048 108 82 196617 r $0CCnb;#B color 5;#N vpatcher 10 59 138 257;#P origin -860 -125;#P window setfont "Sans Serif" 9.;#P newex 45 76 21 196617 t 0;#P newex 11 76 31 196617 t b 1;#P newex 57 104 36 196617 zl reg;#P newex 11 35 82 196617 zl slice 1;#P newex 11 126 56 196617 gate;#P newex 11 55 44 196617 sel $1;#P inlet 11 16 15 0;#P inlet 45 16 15 0;#P outlet 11 148 15 0;#P connect 2 0 5 0;#P connect 5 0 3 0;#P connect 3 0 7 0;#P connect 8 0 4 0;#P connect 7 1 4 0;#P connect 4 0 0 0;#P connect 1 0 3 1;#P connect 3 1 8 0;#P fasten 7 0 6 0 16 98 62 98;#P connect 6 0 4 1;#P connect 5 1 6 1;#P pop;#P newobj 948 154 60 196617 p route_int;#P newex 948 88 83 196617 r midiInMessage;#B color 5;#P newex 1097 281 30 196617 t b s;#P newex 1006 214 94 196617 r $0chooTk;#B color 5;#N vtable 128 10 59 220 226 4 128 $1extra;#P newobj 163 88 89 196617 table $1extra;#P newex 163 41 101 196617 r $0chooMap;#B color 5;#P newex 955 277 39 196617 > 0;#P newex 609 354 82 196617 s $0CCval;#B color 5;#P newex 609 332 70 196617 speedlim 100;#P newex 473 251 82 196617 s $0CCval;#B color 5;#P newex 217 293 85 196617 s $0gate;#B color 5;#P newex 305 123 100 196617 r $0gate;#B color 5;#P newex 114 191 79 196617 s $0gate;#B color 5;#P newex 232 274 85 196617 s $0learn+;#B color 5;#P newex 84 168 40 196617 t b 1;#P newex 696 354 82 196617 s $0outVal;#B color 5;#P newex 696 332 70 196617 speedlim 100;#P newex 1006 332 47 196617 forward;#N vpatcher 10 59 192 214;#P window setfont "Sans Serif" 9.;#P newex 99 52 32 196617 sel 4;#P message 99 74 30 196617 open;#P inlet 99 30 15 0;#P newex 4 7 50 196617 loadbang;#P message 44 74 37 196617 \$1 \$1;#P newex 44 52 27 196617 - 1;#P newex 4 30 50 196617 uzi 128;#P outlet 44 94 15 0;#P connect 4 0 1 0;#P connect 1 2 2 0;#P connect 2 0 3 0;#P connect 3 0 0 0;#P fasten 6 0 0 0 104 92 49 92;#P connect 5 0 7 0;#P connect 7 0 6 0;#P pop;#P newobj 163 65 63 196617 p init-extra;#N vtable 128 10 59 220 226 4 128 $1extra;#P newobj 870 277 73 196617 table $1extra;#P newex 812 277 39 196617 !- 127.;#P newex 1015 258 93 196617 route clear append;#P newex 696 226 101 196617 r $0chooMap;#B color 5;#P newex 1015 235 94 196617 r $0chooMenu;#B color 5;#P newex 696 254 243 196617 gate 5 1;#P newex 696 307 27 196617 f;#P newex 1006 304 121 196617 sprintf send %d%sMid;#P newex 473 215 70 196617 speedlim 100;#P newex 202 312 85 196617 s $0swi;#B color 5;#P window linecount 0;#P newex 559 178 76 196617 r $0swi;#B color 5;#P newex 559 199 27 196617 !- 1;#P message 559 220 48 196617 color \$1;#P newex 202 230 40 196617 t 1 0 b;#P message 232 253 50 196617 shadow 4;#P message 84 215 57 196617 shadow -3;#P toggle 305 147 15 0;#P newex 305 169 27 196617 gate;#P newex 322 144 83 196617 r midiInMessage;#B color 5;#P newex 305 193 179 196617 unpack 0 0 0;#P window linecount 1;#P newex 84 144 79 196617 r $0learn;#B color 5;#P newex 305 251 82 196617 s $0CCch;#B color 5;#P newex 84 237 79 196617 s $0learn+;#B color 5;#P newex 389 251 82 196617 s $0CCnb;#B color 5;#P newex 929 65 86 196617 r $0swi;#B color 5;#P window linecount 0;#P newex 929 198 29 196617 gate;#P window linecount 1;#N vtable 128 15 55 227 236 4 128 expo;#P newobj 754 277 56 196617 table expo;#P connect 6 0 31 0;#P connect 31 0 11 0;#P connect 11 0 4 0;#P connect 31 1 33 0;#P connect 40 0 27 0;#P connect 27 0 41 0;#P fasten 7 0 13 0 310 220 207 220;#P connect 13 0 17 0;#P connect 13 1 35 0;#P connect 13 2 12 0;#P connect 12 0 32 0;#P connect 34 0 10 0;#P connect 10 0 9 0;#P connect 9 0 7 0;#P fasten 14 0 5 0 564 243 310 243;#P connect 7 0 5 0;#P connect 8 0 9 1;#P fasten 14 0 3 0 564 243 394 243;#P connect 7 1 3 0;#P connect 7 2 18 0;#P connect 18 0 36 0;#P fasten 14 0 36 0 564 243 478 243;#P connect 16 0 15 0;#P connect 15 0 14 0;#P fasten 1 0 37 0 934 221 614 221;#P connect 37 0 38 0;#P connect 23 0 21 0;#P fasten 0 0 20 0 759 300 701 300;#P fasten 26 0 20 0 875 300 701 300;#P fasten 25 0 20 0 817 300 701 300;#P fasten 21 0 20 0 701 289 701 289;#P fasten 39 0 20 0 960 300 701 300;#P connect 20 0 29 0;#P connect 29 0 30 0;#P connect 21 1 0 0;#P connect 21 2 25 0;#P connect 21 3 26 0;#P connect 2 0 1 0;#P connect 1 0 21 1;#P connect 44 0 45 0;#P connect 45 0 50 0;#P connect 50 0 1 1;#P fasten 21 4 39 0 933 274 960 274;#P connect 47 0 49 0;#P fasten 49 1 45 1 1016 150 1003 150;#P fasten 48 1 50 1 1103 172 1003 172;#P fasten 43 0 19 0 1102 301 1011 301;#P connect 42 0 19 0;#P connect 19 0 28 0;#P fasten 20 0 28 0 701 327 1011 327;#P connect 22 0 24 0;#P connect 46 0 48 0;#P connect 24 2 43 0;#P connect 43 1 19 1;#P pop;#P hidden newobj 28 60 99 196617 p midi-learn-alg $1;#P toggle 0 0 16 0;#P objectname on;#P user hint 0 0 16 16 on/off 1000 100 0 65535 65535 52428 9 139 0 1 0 0 0;#P user ubutton 15 0 18 16 0 0;#P user hint 14 0 32 18 learn 1000 100 0 65535 65535 52428 9 139 0 1 0 0 0;#P user hint 143 0 178 16 "CC value" 1000 100 0 65535 65535 52428 9 139 0 1 0 0 0;#P user hint 109 0 144 16 "CC number" 1000 100 0 65535 65535 52428 9 139 0 1 0 0 0;#P user hint 75 0 110 16 "CC channel" 1000 100 0 65535 65535 52428 9 139 0 1 0 0 0;#P user hint 179 0 195 16 "reset allocation" 1000 100 0 65535 65535 52428 9 139 0 1 0 0 0;#P user hint 368 0 403 16 "output value" 1000 100 0 65535 65535 52428 9 139 0 1 0 0 0;#P user hint 194 0 229 16 "track number (0 = master)" 1000 100 0 65535 65535 52428 9 139 0 1 0 0 0;#P user hint 228 0 316 16 "parameter list" 1000 100 0 65535 65535 52428 9 139 0 1 0 0 0;#P user hint 33 1 74 16 "control name" 1000 100 0 65535 65535 52428 9 139 0 1 0 0 0;#P comment 32 3 132 196617 $1;#B frgb 255 255 255;#P window setfont "Sans Serif" 10.;#P number 75 0 35 10 0 0 1 3 0 0 0 170 170 170 222 222 222 0 0 0;#P objectname chan;#P number 109 0 35 10 0 0 1 3 0 0 0 170 170 170 222 222 222 0 0 0;#P objectname ctrl;#P number 143 0 35 10 0 0 160 3 0 0 0 170 170 170 222 222 222 0 0 0;#P button 179 0 16 0;#P number 194 0 35 10 0 0 1 3 0 0 0 170 170 170 222 222 222 0 0 0;#P objectname tk;#P window setfont "Sans Serif" 9.;#P user ubumenu 228 0 90 196617 0 1 1 1;#X add off;#X prefix_set 0 0 <none> 0;#X pattrmode 1;#P objectname choo;#P window setfont "Sans Serif" 10.;#P flonum 368 0 35 10 0 0 160 3 0 0 0 221 221 221 222 222 222 0 0 0;#P user hint 317 0 369 16 mapping 1000 100 0 65535 65535 52428 9 139 0 1 0 0 0;#P window setfont "Sans Serif" 9.;#P user ubumenu 317 0 52 196617 0 1 1 1;#X add off;#X add linear;#X add exponential;#X add inverted;#X add extra;#X add boolean;#X prefix_set 0 0 <none> 0;#X pattrmode 1;#P objectname map;#P hidden connect 26 0 21 0;#P hidden connect 21 0 26 0;#P hidden connect 26 1 23 0;#P hidden connect 19 0 26 1;#P hidden connect 8 0 26 2;#P hidden connect 26 2 8 0;#P hidden connect 8 1 26 3;#P hidden connect 26 3 7 0;#P hidden connect 7 0 26 4;#P hidden connect 26 4 6 0;#P hidden connect 7 1 26 5;#P hidden connect 26 6 4 0;#P hidden connect 5 0 26 6;#P hidden connect 26 5 3 0;#P hidden connect 26 7 3 0;#P hidden connect 4 0 26 7;#P hidden connect 3 1 26 8;#P hidden connect 0 0 26 9;#P hidden connect 26 8 0 0;#P hidden connect 26 9 2 0;#P hidden connect 27 0 28 0;#P hidden connect 28 0 29 0;#P pop;