max v2;
#N vpatcher 686 248 1071 461;
#P origin -104 -6;
#P window setfont "Sans Serif" 9.;
#P window linecount 1;
#P message 266 48 18 196617 $3;
#P newex 12 75 89 196617 sw $0ctlVal;
#B color 5;
#N comlet ctrl Value;
#P inlet 111 19 15 0;
#P newex 120 75 90 196617 sw $0ctlVal;
#B color 5;
#P flonum 120 99 35 9 0 0 0 3 0 0 0 221 221 221 222 222 222 0 0 0;
#P flonum 218 121 35 9 0 0 0 3 0 0 0 221 221 221 222 222 222 0 0 0;
#N vpatcher 26 354 271 758;
#P button 192 124 15 0;
#P window setfont "Sans Serif" 9.;
#P message 192 155 14 196617 0;
#P outlet 78 371 15 0;
#P inlet 107 10 15 0;
#P inlet 70 13 15 0;
#P newex 104 247 30 196617 t b i;
#P newex 107 80 27 196617 t f f;
#P newex 78 269 56 196617 &&;
#P message 124 201 14 196617 1;
#P message 78 201 14 196617 1;
#P toggle 124 227 15 0;
#P toggle 124 155 15 0;
#P newex 124 179 30 196617 sel 1;
#P newex 124 125 31 196617 >= 0.;
#P toggle 78 227 15 0;
#P toggle 78 155 15 0;
#P newex 78 179 30 196617 sel 1;
#P newex 78 125 31 196617 <= 0.;
#P toggle 78 292 15 0;
#P newex 78 314 93 196617 gate;
#P flonum 70 64 35 9 0 0 0 3 0 0 0 221 221 221 222 222 222 0 0 0;
#P flonum 107 63 35 9 0 0 0 3 0 0 0 221 221 221 222 222 222 0 0 0;
#P flonum 78 338 35 9 0 0 0 3 0 0 0 221 221 221 222 222 222 0 0 0;
#P connect 18 0 2 0;
#P fasten 0 0 2 0 83 356 63 356 63 57 75 57;
#P fasten 16 1 5 0 129 112 83 112;
#P connect 5 0 7 0;
#P connect 7 0 6 0;
#P connect 6 0 13 0;
#P connect 21 0 8 0;
#P connect 13 0 8 0;
#P connect 8 0 15 0;
#P fasten 17 0 15 0 109 266 83 266;
#P connect 15 0 4 0;
#P connect 4 0 3 0;
#P connect 3 0 0 0;
#P connect 0 0 20 0;
#P fasten 2 0 5 1 75 120 104 120;
#P fasten 12 0 17 0 129 244 109 244;
#P connect 19 0 1 0;
#P connect 1 0 16 0;
#P fasten 16 1 9 0 129 114 129 114;
#P connect 9 0 11 0;
#P connect 11 0 10 0;
#P connect 10 0 14 0;
#P connect 21 0 12 0;
#P connect 14 0 12 0;
#P connect 17 1 15 1;
#P fasten 2 0 9 1 75 120 150 120;
#P fasten 16 0 3 1 112 106 166 106;
#P connect 18 0 22 0;
#P connect 22 0 21 0;
#P pop;
#P newobj 218 75 48 196617 p ctrlVal;
#P newex 266 22 44 196617 loadbang;
#N comlet from (float) number box;
#P inlet 12 17 15 0;
#N comlet to (float) number box;
#P outlet 12 143 15 0;
#P newex 111 39 131 196617 zmap $1 $2 $3 $4;
#P connect 2 0 9 0;
#P connect 9 0 1 0;
#P connect 8 0 0 0;
#P fasten 5 0 7 0 223 142 214 142 214 71 125 71;
#P connect 7 0 6 0;
#P fasten 6 0 4 0 125 118 114 118 114 66 223 66;
#P fasten 10 0 4 0 271 70 223 70;
#P fasten 6 0 5 0 125 118 223 118;
#P connect 4 0 5 0;
#P fasten 0 0 4 1 116 60 261 60;
#P connect 3 0 10 0;
#P pop;
