max v2;
#N vpatcher 418 540 831 668;
#P origin -809 -1315;
#P toggle 244 20 13 0;
#P outlet 269 48 15 0;
#P inlet 269 5 15 0;
#P window setfont "Sans Serif" 9.;
#N vpatcher 20 74 562 389;
#P window setfont "Sans Serif" 9.;
#P window linecount 1;
#P newex 291 71 31 196617 == 0;
#P newex 291 50 84 196617 r $0slotLock;
#B color 5;
#P newex 291 92 47 196617 gate 1 1;
#P message 281 187 94 196617 rgb3 102 102 102;
#P message 201 187 70 196617 rgb3 102 0 0;
#P outlet 193 248 15 0;
#P newex 193 138 84 196617 r $0slotLock;
#B color 5;
#P newex 104 160 31 196617 == 0;
#P message 257 209 93 196617 brgb 102 102 102;
#P window linecount 0;
#P message 193 209 69 196617 brgb 102 0 0;
#P window linecount 1;
#P newex 193 160 139 196617 sel 1 0;
#P newex 104 137 84 196617 r $0slotLock;
#B color 5;
#P newex 104 182 47 196617 gate 1 1;
#P window linecount 0;
#P newex 291 113 64 196617 s $0rename;
#B color 5;
#P newex 50 78 86 196617 sw $0slotNum;
#B color 5;
#P newex 403 53 56 196617 route text;
#P newex 403 78 80 196617 sw $0slotName;
#B color 5;
#P newex 206 53 32 196617 sel 0;
#P newex 104 208 32 196617 sel 0;
#P newex 104 233 57 196617 s $0store;
#B color 5;
#P newex 206 78 59 196617 s $0recall;
#B color 5;
#P inlet 328 29 15 0;
#P inlet 403 29 15 0;
#P inlet 206 29 15 0;
#P inlet 141 29 15 0;
#P inlet 50 29 15 0;
#P outlet 403 100 15 0;
#P outlet 50 100 15 0;
#P connect 2 0 13 0;
#P connect 13 0 0 0;
#P connect 16 0 20 0;
#P connect 20 0 15 0;
#P connect 15 0 9 0;
#P connect 9 0 8 0;
#P connect 3 0 15 1;
#P connect 21 0 17 0;
#P connect 17 0 18 0;
#P connect 19 0 22 0;
#P connect 23 0 22 0;
#P connect 24 0 22 0;
#P connect 18 0 22 0;
#P connect 17 0 23 0;
#P connect 4 0 10 0;
#P connect 10 0 7 0;
#P connect 17 1 19 0;
#P connect 17 1 24 0;
#P connect 26 0 27 0;
#P connect 27 0 25 0;
#P connect 25 0 14 0;
#P connect 6 0 25 1;
#P connect 5 0 12 0;
#P connect 12 0 11 0;
#P connect 11 0 1 0;
#P connect 18 0 1 0;
#P connect 19 0 1 0;
#P pop;
#P hidden newobj 1 -22 147 196617 p;
#N vpatcher 20 74 413 299;
#P window setfont "Sans Serif" 9.;
#P window linecount 1;
#P newex 275 34 84 196617 sw $0slotLock;
#B color 5;
#P inlet 275 14 15 0;
#P outlet 275 58 15 0;
#P newex 127 142 62 196617 prepend set;
#P newex 127 119 27 196617 - 1;
#P newex 127 98 49 196617 route int;
#P newex 99 75 66 196617 route int set;
#P newex 99 98 27 196617 - 1;
#P window linecount 0;
#P newex 99 34 27 196617 + 1;
#P newex 183 34 84 196617 sw $0autoRecall;
#B color 5;
#P newex 99 54 73 196617 sw $0slotList;
#B color 5;
#P newex 19 34 64 196617 s $0toPattr;
#B color 5;
#P objectname Holo-Spat[4];
#P inlet 19 14 15 0;
#P inlet 183 14 15 0;
#P inlet 99 14 15 0;
#P outlet 183 57 15 0;
#P outlet 99 173 15 0;
#P connect 4 0 5 0;
#P connect 2 0 8 0;
#P connect 8 0 6 0;
#P connect 6 0 10 0;
#P connect 10 0 9 0;
#P fasten 13 0 0 0 132 165 104 165;
#P fasten 10 2 0 0 160 165 104 165;
#P connect 9 0 0 0;
#P connect 10 1 11 0;
#P connect 11 0 12 0;
#P fasten 11 1 13 0 171 139 132 139;
#P connect 12 0 13 0;
#P connect 3 0 7 0;
#P connect 7 0 1 0;
#P connect 15 0 16 0;
#P connect 16 0 14 0;
#P pop;
#P hidden newobj 34 59 90 196617 p;
#N vpatcher 105 131 1179 661;
#P window setfont "Sans Serif" 9.;
#P window linecount 1;
#P newex 932 317 83 196617 s $0updateSlots;
#B color 5;
#P newex 932 294 49 196617 sel clear;
#P newex 932 271 64 196617 r $0toPattr;
#B color 5;
#P objectname Holo-Spat[8];
#P newex 622 309 26 196617 i;
#P newex 545 284 87 196617 t l b;
#P newex 545 332 21 196617 t 0;
#P newex 545 309 57 196617 route bang;
#P newex 545 359 76 196617 sw $0slotLock;
#B color 5;
#P newex 592 332 40 196617 zl sub;
#P newex 545 258 82 196617 r $0lockedSlots;
#B color 5;
#P newex 46 39 87 196617 route lockedslots;
#P newex 545 444 64 196617 s $0toPattr;
#B color 5;
#P objectname Holo-Spat[7];
#P message 545 424 58 196617 lock \$2 \$1;
#P newex 545 402 26 196617 pack;
#P newex 561 381 86 196617 r $0slotNum;
#B color 5;
#P window linecount 0;
#P newex 159 132 43 196617 route 0;
#P inlet 814 271 15 0;
#P outlet 814 344 15 0;
#P newex 814 296 77 196617 s $0fromPattr;
#B color 5;
#P objectname Holo-Spat[4];
#P newex 814 317 64 196617 r $0toPattr;
#B color 5;
#P objectname Holo-Spat[5];
#P newex 87 201 26 196617 i;
#P newex 131 358 59 196617 s $0recall;
#B color 5;
#P newex 131 292 27 196617 t b i;
#P newex 131 336 97 196617 vgate $0autoRecall;
#P newex 216 104 46 196617 sel read;
#P newex 962 199 83 196617 s $0updateSlots;
#B color 5;
#P newex 962 173 27 196617 b;
#P window linecount 1;
#P newex 962 153 72 196617 r $0rename;
#B color 5;
#P newex 36 161 86 196617 r $0slotNum;
#B color 5;
#P window linecount 0;
#P newex 148 315 86 196617 s $0slotNum;
#B color 5;
#P newex 36 235 62 196617 prepend set;
#P window linecount 1;
#P newex 742 201 83 196617 s $0updateSlots;
#B color 5;
#P newex 268 67 83 196617 r $0updateSlots;
#B color 5;
#P window linecount 0;
#P newex 574 151 59 196617 r $0recall;
#B color 5;
#P newex 742 155 86 196617 r $0store;
#B color 5;
#P window linecount 1;
#P newex 476 98 86 196617 r $0slotNum;
#B color 5;
#P newex 353 155 64 196617 s $0toPattr;
#B color 5;
#P objectname Holo-Spat[3];
#P window linecount 0;
#P newex 381 209 31 196617 t 0 s;
#P newex 402 251 72 196617 s $0slotName;
#B color 5;
#P newex 381 188 29 196617 gate;
#P newex 353 111 38 196617 t i 1;
#P window linecount 1;
#P newex 353 89 86 196617 r $0slotNum;
#B color 5;
#P newex 854 96 72 196617 r $0slotName;
#B color 5;
#P window linecount 0;
#P message 854 204 104 196617 slotname 1 bang;
#P newex 864 125 62 196617 prepend set;
#P newex 854 149 62 196617 prepend 1;
#P newex 854 173 105 196617 prepend set slotname;
#P newex 131 159 31 196617 t b 0;
#P newex 131 210 102 196617 gate;
#P newex 402 230 62 196617 prepend set;
#P message 353 133 147 196617 getslotname \$1 \, getlockedslots;
#P newex 223 184 78 196617 prepend append;
#P window linecount 1;
#P newex 46 17 77 196617 r $0fromPattr;
#B color 5;
#P objectname Holo-Spat[6];
#P window linecount 0;
#P newex 176 159 57 196617 unpack 0 s;
#P newex 131 270 71 196617 sw $0slotList;
#B color 5;
#P newex 268 110 65 196617 t s 1 clear;
#P newex 131 105 55 196617 route done;
#P message 268 88 81 196617 getslotnamelist;
#P window linecount 1;
#P newex 268 137 64 196617 s $0toPattr;
#B color 5;
#P objectname Holo-Spat[2];
#P newex 46 104 86 196617 s $0slotNum;
#B color 5;
#P window linecount 0;
#P newex 46 83 180 196617 route recall slotname;
#P message 476 201 45 196617 recall 1;
#P newex 476 174 91 196617 prepend set recall;
#P newex 742 176 36 196617 b 3;
#P message 648 201 43 196617 store 1;
#P newex 648 176 89 196617 prepend set store;
#P window linecount 1;
#P newex 476 237 64 196617 s $0toPattr;
#B color 5;
#P objectname Holo-Spat[1];
#P window linecount 0;
#P newex 574 174 27 196617 b;
#P newex 46 61 82 196617 s $0lockedSlots;
#B color 5;
#P connect 40 0 38 0;
#P fasten 48 0 38 0 92 226 41 226;
#P connect 16 0 58 0;
#P connect 58 0 0 0;
#P connect 58 1 8 0;
#P connect 8 0 9 0;
#P fasten 21 0 48 0 136 197 92 197;
#P fasten 40 0 48 1 41 189 108 189;
#P connect 8 1 12 0;
#P connect 12 0 21 0;
#P connect 13 1 20 0;
#P connect 21 1 20 0;
#P fasten 13 2 14 0 327 263 136 263;
#P fasten 38 0 14 0 41 261 136 261;
#P connect 20 0 14 0;
#P connect 14 0 46 0;
#P connect 46 0 45 0;
#P connect 45 0 47 0;
#P connect 46 1 39 0;
#P connect 12 1 53 0;
#P connect 53 1 15 0;
#P connect 8 2 44 0;
#P connect 15 1 17 0;
#P connect 17 0 20 1;
#P connect 36 0 11 0;
#P connect 44 0 11 0;
#P connect 11 0 13 0;
#P connect 13 0 10 0;
#P connect 27 0 28 0;
#P connect 28 0 18 0;
#P connect 18 0 32 0;
#P fasten 31 0 29 0 386 231 375 231 375 183 386 183;
#P connect 28 1 29 0;
#P connect 29 0 31 0;
#P fasten 15 1 29 1 228 178 405 178;
#P connect 31 1 19 0;
#P connect 19 0 30 0;
#P connect 33 0 6 0;
#P connect 6 0 7 0;
#P fasten 1 0 7 0 579 196 481 196;
#P fasten 25 0 2 0 859 226 481 226;
#P fasten 4 0 2 0 653 226 481 226;
#P connect 7 0 2 0;
#P connect 59 0 64 0;
#P connect 64 0 62 0;
#P connect 62 0 63 0;
#P connect 63 0 61 0;
#P fasten 60 1 61 0 627 352 550 352;
#P connect 61 0 55 0;
#P connect 55 0 56 0;
#P connect 56 0 57 0;
#P connect 54 0 55 1;
#P connect 35 0 1 0;
#P connect 62 1 60 0;
#P connect 64 1 65 0;
#P connect 65 0 60 1;
#P connect 27 0 65 1;
#P fasten 33 0 3 0 481 120 653 120;
#P connect 3 0 4 0;
#P fasten 5 2 4 0 773 197 653 197;
#P connect 34 0 5 0;
#P connect 5 0 37 0;
#P connect 52 0 50 0;
#P connect 49 0 51 0;
#P connect 24 0 23 0;
#P connect 26 0 23 0;
#P connect 23 0 22 0;
#P connect 22 0 25 0;
#P fasten 5 1 25 0 760 197 859 197;
#P fasten 42 1 25 0 984 195 859 195;
#P fasten 33 0 24 0 481 120 869 120;
#P connect 66 0 67 0;
#P connect 67 0 68 0;
#P connect 41 0 42 0;
#P connect 42 0 43 0;
#P pop;
#P newobj 269 25 101 196617 p presets_algorithm;
#P objectname presets_algorithm;
#P toggle 193 38 16 0;
#P message 103 20 43 196617 rename;
#P user ubumenu 80 38 111 196617 0 1 1 1;
#X add;
#X prefix_set 0 0 <none> 0;
#X pattrmode 1;
#P window setfont "Sans Serif" 24.;
#P number 1 0 35 24 1 99 39 3 255 255 255 50 50 50 255 255 255 0 0 0;
#P window setfont "Sans Serif" 9.;
#P comment 209 39 50 196617 autorecall;
#B frgb 255 255 255;
#P window setfont "Sans Serif" 12.;
#P user textedit 103 0 257 21 98452 3 12;
#X setrgb 255 255 255 102 102 102;
#P window setfont "Sans Serif" 9.;
#P user ubumenu 38 19 63 196617 1 0 1 1;
#X setrgb 255 255 255 102 102 102 116 116 116 4 4 4 102 102 102 45 45 45;
#X add Recall;
#X prefix_set 0 0 <none> 0;
#X pattrmode 1;
#P user ubumenu 38 0 63 196617 1 0 1 1;
#X setrgb 255 255 255 102 102 102 116 116 116 4 4 4 102 102 102 45 45 45;
#X add Store;
#X prefix_set 0 0 <none> 0;
#X pattrmode 1;
#P user ubumenu 0 38 78 196617 0 1 1 1;
#X add read;
#X add write;
#X add writeagain;
#X add;
#X add clear;
#X add;
#X add clientwindow;
#X add storagewindow;
#X prefix_set 0 0 <none> 0;
#X pattrmode 1;
#P comment 222 21 26 196617 lock;
#B frgb 255 255 255;
#P hidden connect 6 0 12 0;
#P hidden connect 12 0 6 0;
#P hidden connect 1 1 11 0;
#P hidden connect 2 0 12 1;
#P hidden connect 12 1 2 0;
#P hidden connect 7 0 11 1;
#P hidden connect 3 0 12 2;
#P hidden connect 11 0 7 0;
#P hidden connect 9 0 11 2;
#P hidden connect 8 0 12 3;
#P hidden connect 12 2 4 0;
#P hidden connect 15 0 11 3;
#P hidden connect 4 0 12 4;
#P hidden connect 11 1 9 0;
#P hidden connect 11 2 15 0;
#P connect 13 0 10 0;
#P connect 10 0 14 0;
#P pop;
