max v2;
#N vpatcher 10 59 162 219;
#P window setfont "Sans Serif" 9.;
#P newex 33 71 27 196617 f;
#P newex 16 48 27 196617 t f b;
#P newex 16 91 44 196617 line;
#P newex 50 50 38 196617 * 100;
#P newex 50 18 67 196617 loadmess $1;
#P inlet 33 18 15 0;
#P inlet 16 18 15 0;
#P outlet 16 113 15 0;
#P connect 1 0 6 0;
#P connect 6 0 5 0;
#P connect 5 0 0 0;
#P connect 6 1 7 0;
#P connect 7 0 5 1;
#P fasten 2 0 4 0 38 44 55 44;
#P connect 3 0 4 0;
#P connect 4 0 7 1;
#P pop;
