{
	"patcher" : 	{
		"fileversion" : 1,
		"rect" : [ 599.0, 116.0, 689.0, 363.0 ],
		"bglocked" : 0,
		"defrect" : [ 599.0, 116.0, 689.0, 363.0 ],
		"openrect" : [ 0.0, 0.0, 0.0, 0.0 ],
		"openinpresentation" : 0,
		"default_fontsize" : 10.0,
		"default_fontface" : 0,
		"default_fontname" : "Verdana",
		"gridonopen" : 0,
		"gridsize" : [ 5.0, 5.0 ],
		"gridsnaponopen" : 0,
		"toolbarvisible" : 1,
		"boxanimatetime" : 200,
		"imprint" : 0,
		"metadata" : [  ],
		"boxes" : [ 			{
				"box" : 				{
					"maxclass" : "message",
					"text" : "position $1",
					"numinlets" : 2,
					"patching_rect" : [ 15.0, 180.0, 66.0, 17.0 ],
					"id" : "obj-1",
					"numoutlets" : 1,
					"fontname" : "Verdana",
					"outlettype" : [ "" ],
					"fontsize" : 10.0
				}

			}
, 			{
				"box" : 				{
					"maxclass" : "newobj",
					"text" : "jcom.pass /length /normalize /capture /buffer",
					"linecount" : 2,
					"numinlets" : 1,
					"patching_rect" : [ 65.0, 80.0, 146.0, 31.0 ],
					"id" : "obj-4",
					"numoutlets" : 5,
					"fontname" : "Verdana",
					"outlettype" : [ "", "", "", "", "" ],
					"fontsize" : 10.0
				}

			}
, 			{
				"box" : 				{
					"maxclass" : "newobj",
					"text" : "jcom.oscroute /pan",
					"numinlets" : 1,
					"patching_rect" : [ 15.0, 50.0, 123.0, 19.0 ],
					"id" : "obj-5",
					"numoutlets" : 2,
					"fontname" : "Verdana",
					"outlettype" : [ "", "" ],
					"fontsize" : 10.0
				}

			}
, 			{
				"box" : 				{
					"maxclass" : "outlet",
					"numinlets" : 1,
					"patching_rect" : [ 280.0, 310.0, 20.0, 20.0 ],
					"id" : "obj-6",
					"numoutlets" : 0,
					"comment" : ""
				}

			}
, 			{
				"box" : 				{
					"maxclass" : "outlet",
					"numinlets" : 1,
					"patching_rect" : [ 255.0, 310.0, 20.0, 20.0 ],
					"id" : "obj-7",
					"numoutlets" : 0,
					"comment" : ""
				}

			}
, 			{
				"box" : 				{
					"maxclass" : "inlet",
					"numinlets" : 0,
					"patching_rect" : [ 255.0, 20.0, 20.0, 20.0 ],
					"id" : "obj-8",
					"numoutlets" : 1,
					"outlettype" : [ "" ],
					"comment" : ""
				}

			}
, 			{
				"box" : 				{
					"maxclass" : "outlet",
					"numinlets" : 1,
					"patching_rect" : [ 220.0, 310.0, 20.0, 20.0 ],
					"id" : "obj-9",
					"numoutlets" : 0,
					"comment" : ""
				}

			}
, 			{
				"box" : 				{
					"maxclass" : "inlet",
					"numinlets" : 0,
					"patching_rect" : [ 15.0, 20.0, 20.0, 20.0 ],
					"id" : "obj-10",
					"numoutlets" : 1,
					"outlettype" : [ "" ],
					"comment" : ""
				}

			}
, 			{
				"box" : 				{
					"maxclass" : "newobj",
					"text" : "jcom.return capture/done @type msg_none @description \"indicates that the capturing of sound has completed.\"",
					"linecount" : 2,
					"numinlets" : 1,
					"patching_rect" : [ 345.0, 215.0, 301.0, 31.0 ],
					"id" : "obj-11",
					"numoutlets" : 2,
					"fontname" : "Verdana",
					"outlettype" : [ "", "" ],
					"fontsize" : 10.0
				}

			}
, 			{
				"box" : 				{
					"maxclass" : "newobj",
					"text" : "tap.pan~",
					"numinlets" : 2,
					"patching_rect" : [ 255.0, 215.0, 68.0, 19.0 ],
					"id" : "obj-12",
					"numoutlets" : 3,
					"fontname" : "Verdana",
					"outlettype" : [ "signal", "signal", "" ],
					"fontsize" : 10.0
				}

			}
, 			{
				"box" : 				{
					"maxclass" : "newobj",
					"text" : "tap.sustain~ 1000",
					"numinlets" : 2,
					"patching_rect" : [ 255.0, 155.0, 109.0, 19.0 ],
					"id" : "obj-13",
					"numoutlets" : 2,
					"fontname" : "Verdana",
					"outlettype" : [ "signal", "bang" ],
					"fontsize" : 10.0
				}

			}
 ],
		"lines" : [ 			{
				"patchline" : 				{
					"source" : [ "obj-13", 1 ],
					"destination" : [ "obj-11", 0 ],
					"hidden" : 0,
					"midpoints" : [  ]
				}

			}
, 			{
				"patchline" : 				{
					"source" : [ "obj-12", 1 ],
					"destination" : [ "obj-6", 0 ],
					"hidden" : 0,
					"midpoints" : [  ]
				}

			}
, 			{
				"patchline" : 				{
					"source" : [ "obj-12", 0 ],
					"destination" : [ "obj-7", 0 ],
					"hidden" : 0,
					"midpoints" : [  ]
				}

			}
, 			{
				"patchline" : 				{
					"source" : [ "obj-13", 0 ],
					"destination" : [ "obj-12", 0 ],
					"hidden" : 0,
					"midpoints" : [  ]
				}

			}
, 			{
				"patchline" : 				{
					"source" : [ "obj-1", 0 ],
					"destination" : [ "obj-12", 0 ],
					"hidden" : 0,
					"midpoints" : [ 24.5, 203.0, 264.5, 203.0 ]
				}

			}
, 			{
				"patchline" : 				{
					"source" : [ "obj-4", 4 ],
					"destination" : [ "obj-13", 0 ],
					"hidden" : 0,
					"midpoints" : [ 201.5, 132.0, 264.5, 132.0 ]
				}

			}
, 			{
				"patchline" : 				{
					"source" : [ "obj-4", 3 ],
					"destination" : [ "obj-13", 0 ],
					"hidden" : 0,
					"midpoints" : [ 169.75, 135.0, 264.5, 135.0 ]
				}

			}
, 			{
				"patchline" : 				{
					"source" : [ "obj-4", 2 ],
					"destination" : [ "obj-13", 0 ],
					"hidden" : 0,
					"midpoints" : [ 138.0, 138.0, 264.5, 138.0 ]
				}

			}
, 			{
				"patchline" : 				{
					"source" : [ "obj-4", 1 ],
					"destination" : [ "obj-13", 0 ],
					"hidden" : 0,
					"midpoints" : [ 106.25, 141.0, 264.5, 141.0 ]
				}

			}
, 			{
				"patchline" : 				{
					"source" : [ "obj-4", 0 ],
					"destination" : [ "obj-13", 0 ],
					"hidden" : 0,
					"midpoints" : [ 74.5, 144.0, 264.5, 144.0 ]
				}

			}
, 			{
				"patchline" : 				{
					"source" : [ "obj-8", 0 ],
					"destination" : [ "obj-13", 0 ],
					"hidden" : 0,
					"color" : [ 1.0, 0.890196, 0.090196, 1.0 ],
					"midpoints" : [  ]
				}

			}
, 			{
				"patchline" : 				{
					"source" : [ "obj-11", 0 ],
					"destination" : [ "obj-9", 0 ],
					"hidden" : 0,
					"midpoints" : [  ]
				}

			}
, 			{
				"patchline" : 				{
					"source" : [ "obj-5", 1 ],
					"destination" : [ "obj-4", 0 ],
					"hidden" : 0,
					"midpoints" : [  ]
				}

			}
, 			{
				"patchline" : 				{
					"source" : [ "obj-5", 0 ],
					"destination" : [ "obj-1", 0 ],
					"hidden" : 0,
					"midpoints" : [  ]
				}

			}
, 			{
				"patchline" : 				{
					"source" : [ "obj-10", 0 ],
					"destination" : [ "obj-5", 0 ],
					"hidden" : 0,
					"midpoints" : [  ]
				}

			}
 ]
	}

}
