{
	"patcher" : 	{
		"rect" : [ 241.0, 48.0, 612.0, 639.0 ],
		"bgcolor" : [ 1.0, 1.0, 1.0, 1.0 ],
		"bglocked" : 0,
		"defrect" : [ 241.0, 48.0, 612.0, 639.0 ],
		"openinpresentation" : 0,
		"default_fontsize" : 10.0,
		"default_fontface" : 0,
		"default_fontname" : "Verdana",
		"gridonopen" : 0,
		"gridsize" : [ 15.0, 15.0 ],
		"gridsnaponopen" : 0,
		"toolbarvisible" : 1,
		"boxfadetime" : 200,
		"boxanimatetime" : 200,
		"scrollanimatetime" : 200,
		"metadata" : [  ],
		"boxes" : [ 			{
				"box" : 				{
					"maxclass" : "newobj",
					"text" : "p play-notes",
					"patching_rect" : [ 180.0, 215.0, 60.0, 17.0 ],
					"fontname" : "Verdana",
					"id" : "obj-1",
					"numinlets" : 1,
					"numoutlets" : 0,
					"fontsize" : 9.0,
					"patcher" : 					{
						"rect" : [ 527.0, 96.0, 437.0, 428.0 ],
						"bgcolor" : [ 1.0, 1.0, 1.0, 1.0 ],
						"bglocked" : 0,
						"defrect" : [ 527.0, 96.0, 437.0, 428.0 ],
						"openinpresentation" : 0,
						"default_fontsize" : 10.0,
						"default_fontface" : 0,
						"default_fontname" : "Verdana",
						"gridonopen" : 0,
						"gridsize" : [ 15.0, 15.0 ],
						"gridsnaponopen" : 0,
						"toolbarvisible" : 1,
						"boxfadetime" : 200,
						"boxanimatetime" : 200,
						"scrollanimatetime" : 200,
						"metadata" : [  ],
						"boxes" : [ 							{
								"box" : 								{
									"maxclass" : "comment",
									"text" : "smoothing values a little",
									"patching_rect" : [ 114.0, 122.0, 194.0, 17.0 ],
									"fontname" : "Verdana",
									"id" : "obj-1",
									"numinlets" : 1,
									"numoutlets" : 0,
									"fontsize" : 9.0
								}

							}
, 							{
								"box" : 								{
									"maxclass" : "newobj",
									"text" : "slide 3. 3.",
									"patching_rect" : [ 58.0, 119.0, 49.0, 17.0 ],
									"fontname" : "Verdana",
									"id" : "obj-2",
									"numinlets" : 3,
									"numoutlets" : 1,
									"fontsize" : 9.0,
									"outlettype" : [ "float" ]
								}

							}
, 							{
								"box" : 								{
									"maxclass" : "comment",
									"text" : "turn on",
									"patching_rect" : [ 18.0, 28.0, 37.0, 17.0 ],
									"fontname" : "Verdana",
									"id" : "obj-3",
									"numinlets" : 1,
									"numoutlets" : 0,
									"fontsize" : 9.0
								}

							}
, 							{
								"box" : 								{
									"maxclass" : "toggle",
									"patching_rect" : [ 58.0, 27.0, 15.0, 15.0 ],
									"id" : "obj-4",
									"numinlets" : 1,
									"numoutlets" : 1,
									"outlettype" : [ "int" ]
								}

							}
, 							{
								"box" : 								{
									"maxclass" : "newobj",
									"text" : "gate",
									"patching_rect" : [ 58.0, 48.0, 27.0, 17.0 ],
									"fontname" : "Verdana",
									"id" : "obj-5",
									"numinlets" : 2,
									"numoutlets" : 1,
									"fontsize" : 9.0,
									"outlettype" : [ "" ]
								}

							}
, 							{
								"box" : 								{
									"maxclass" : "comment",
									"text" : "selecting only peaks",
									"patching_rect" : [ 154.0, 243.0, 94.0, 17.0 ],
									"fontname" : "Verdana",
									"id" : "obj-6",
									"numinlets" : 1,
									"numoutlets" : 0,
									"fontsize" : 9.0
								}

							}
, 							{
								"box" : 								{
									"maxclass" : "comment",
									"text" : "removing multiple instances",
									"patching_rect" : [ 155.0, 217.0, 125.0, 17.0 ],
									"fontname" : "Verdana",
									"id" : "obj-7",
									"numinlets" : 1,
									"numoutlets" : 0,
									"fontsize" : 9.0
								}

							}
, 							{
								"box" : 								{
									"maxclass" : "comment",
									"text" : "check whether the value is above or below a certain threshold",
									"patching_rect" : [ 143.0, 188.0, 266.0, 17.0 ],
									"fontname" : "Verdana",
									"id" : "obj-8",
									"numinlets" : 1,
									"numoutlets" : 0,
									"fontsize" : 9.0
								}

							}
, 							{
								"box" : 								{
									"maxclass" : "comment",
									"text" : "changing the range so that we can use regular Max objects",
									"patching_rect" : [ 114.0, 151.0, 253.0, 17.0 ],
									"fontname" : "Verdana",
									"id" : "obj-9",
									"numinlets" : 1,
									"numoutlets" : 0,
									"fontsize" : 9.0
								}

							}
, 							{
								"box" : 								{
									"maxclass" : "newobj",
									"text" : "* 10.",
									"patching_rect" : [ 58.0, 147.0, 28.0, 17.0 ],
									"fontname" : "Verdana",
									"id" : "obj-10",
									"numinlets" : 2,
									"numoutlets" : 1,
									"fontsize" : 9.0,
									"outlettype" : [ "float" ]
								}

							}
, 							{
								"box" : 								{
									"maxclass" : "newobj",
									"text" : "< -2",
									"patching_rect" : [ 110.0, 185.0, 27.0, 17.0 ],
									"fontname" : "Verdana",
									"id" : "obj-11",
									"numinlets" : 2,
									"numoutlets" : 1,
									"fontsize" : 9.0,
									"outlettype" : [ "int" ]
								}

							}
, 							{
								"box" : 								{
									"maxclass" : "newobj",
									"text" : "> 2",
									"patching_rect" : [ 58.0, 184.0, 27.0, 17.0 ],
									"fontname" : "Verdana",
									"id" : "obj-12",
									"numinlets" : 2,
									"numoutlets" : 1,
									"fontsize" : 9.0,
									"outlettype" : [ "int" ]
								}

							}
, 							{
								"box" : 								{
									"maxclass" : "newobj",
									"text" : "jcom.oscroute \/x \/y \/z",
									"patching_rect" : [ 58.0, 71.0, 100.0, 17.0 ],
									"fontname" : "Verdana",
									"id" : "obj-13",
									"numinlets" : 1,
									"numoutlets" : 4,
									"fontsize" : 9.0,
									"outlettype" : [ "", "", "", "" ]
								}

							}
, 							{
								"box" : 								{
									"maxclass" : "newobj",
									"text" : "jcom.delta",
									"patching_rect" : [ 58.0, 94.0, 51.0, 17.0 ],
									"fontname" : "Verdana",
									"id" : "obj-14",
									"numinlets" : 1,
									"numoutlets" : 2,
									"fontsize" : 9.0,
									"outlettype" : [ "float", "" ]
								}

							}
, 							{
								"box" : 								{
									"maxclass" : "comment",
									"text" : "looking only at the differences in movement",
									"patching_rect" : [ 114.0, 96.0, 194.0, 17.0 ],
									"fontname" : "Verdana",
									"id" : "obj-15",
									"numinlets" : 1,
									"numoutlets" : 0,
									"fontsize" : 9.0
								}

							}
, 							{
								"box" : 								{
									"maxclass" : "inlet",
									"patching_rect" : [ 75.0, 27.0, 15.0, 15.0 ],
									"id" : "obj-16",
									"numinlets" : 0,
									"numoutlets" : 1,
									"outlettype" : [ "" ],
									"comment" : ""
								}

							}
, 							{
								"box" : 								{
									"maxclass" : "message",
									"text" : "80",
									"patching_rect" : [ 110.0, 289.0, 19.0, 15.0 ],
									"fontname" : "Verdana",
									"id" : "obj-17",
									"numinlets" : 2,
									"numoutlets" : 1,
									"fontsize" : 9.0,
									"outlettype" : [ "" ]
								}

							}
, 							{
								"box" : 								{
									"maxclass" : "newobj",
									"text" : "change",
									"patching_rect" : [ 110.0, 214.0, 40.0, 17.0 ],
									"fontname" : "Verdana",
									"id" : "obj-18",
									"numinlets" : 1,
									"numoutlets" : 3,
									"fontsize" : 9.0,
									"outlettype" : [ "", "int", "int" ]
								}

							}
, 							{
								"box" : 								{
									"maxclass" : "button",
									"patching_rect" : [ 110.0, 261.0, 21.0, 21.0 ],
									"id" : "obj-19",
									"numinlets" : 1,
									"numoutlets" : 1,
									"outlettype" : [ "bang" ]
								}

							}
, 							{
								"box" : 								{
									"maxclass" : "newobj",
									"text" : "sel 1",
									"patching_rect" : [ 110.0, 237.0, 28.0, 17.0 ],
									"fontname" : "Verdana",
									"id" : "obj-20",
									"numinlets" : 2,
									"numoutlets" : 2,
									"fontsize" : 9.0,
									"outlettype" : [ "bang", "" ]
								}

							}
, 							{
								"box" : 								{
									"maxclass" : "newobj",
									"text" : "noteout",
									"patching_rect" : [ 58.0, 340.0, 40.0, 17.0 ],
									"fontname" : "Verdana",
									"id" : "obj-21",
									"numinlets" : 3,
									"numoutlets" : 0,
									"fontsize" : 9.0
								}

							}
, 							{
								"box" : 								{
									"maxclass" : "message",
									"text" : "60",
									"patching_rect" : [ 58.0, 289.0, 19.0, 15.0 ],
									"fontname" : "Verdana",
									"id" : "obj-22",
									"numinlets" : 2,
									"numoutlets" : 1,
									"fontsize" : 9.0,
									"outlettype" : [ "" ]
								}

							}
, 							{
								"box" : 								{
									"maxclass" : "newobj",
									"text" : "makenote 100 200",
									"patching_rect" : [ 58.0, 315.0, 85.0, 17.0 ],
									"fontname" : "Verdana",
									"id" : "obj-23",
									"numinlets" : 3,
									"numoutlets" : 2,
									"fontsize" : 9.0,
									"outlettype" : [ "int", "int" ]
								}

							}
, 							{
								"box" : 								{
									"maxclass" : "newobj",
									"text" : "change",
									"patching_rect" : [ 58.0, 216.0, 40.0, 17.0 ],
									"fontname" : "Verdana",
									"id" : "obj-24",
									"numinlets" : 1,
									"numoutlets" : 3,
									"fontsize" : 9.0,
									"outlettype" : [ "", "int", "int" ]
								}

							}
, 							{
								"box" : 								{
									"maxclass" : "button",
									"patching_rect" : [ 58.0, 263.0, 21.0, 21.0 ],
									"id" : "obj-25",
									"numinlets" : 1,
									"numoutlets" : 1,
									"outlettype" : [ "bang" ]
								}

							}
, 							{
								"box" : 								{
									"maxclass" : "newobj",
									"text" : "sel 1",
									"patching_rect" : [ 58.0, 239.0, 28.0, 17.0 ],
									"fontname" : "Verdana",
									"id" : "obj-26",
									"numinlets" : 2,
									"numoutlets" : 2,
									"fontsize" : 9.0,
									"outlettype" : [ "bang", "" ]
								}

							}
 ],
						"lines" : [ 							{
								"patchline" : 								{
									"source" : [ "obj-4", 0 ],
									"destination" : [ "obj-5", 0 ],
									"hidden" : 0
								}

							}
, 							{
								"patchline" : 								{
									"source" : [ "obj-5", 0 ],
									"destination" : [ "obj-13", 0 ],
									"hidden" : 0
								}

							}
, 							{
								"patchline" : 								{
									"source" : [ "obj-13", 0 ],
									"destination" : [ "obj-14", 0 ],
									"hidden" : 0
								}

							}
, 							{
								"patchline" : 								{
									"source" : [ "obj-14", 0 ],
									"destination" : [ "obj-2", 0 ],
									"hidden" : 0
								}

							}
, 							{
								"patchline" : 								{
									"source" : [ "obj-2", 0 ],
									"destination" : [ "obj-10", 0 ],
									"hidden" : 0
								}

							}
, 							{
								"patchline" : 								{
									"source" : [ "obj-10", 0 ],
									"destination" : [ "obj-12", 0 ],
									"hidden" : 0
								}

							}
, 							{
								"patchline" : 								{
									"source" : [ "obj-12", 0 ],
									"destination" : [ "obj-24", 0 ],
									"hidden" : 0
								}

							}
, 							{
								"patchline" : 								{
									"source" : [ "obj-24", 0 ],
									"destination" : [ "obj-26", 0 ],
									"hidden" : 0
								}

							}
, 							{
								"patchline" : 								{
									"source" : [ "obj-26", 0 ],
									"destination" : [ "obj-25", 0 ],
									"hidden" : 0
								}

							}
, 							{
								"patchline" : 								{
									"source" : [ "obj-25", 0 ],
									"destination" : [ "obj-22", 0 ],
									"hidden" : 0
								}

							}
, 							{
								"patchline" : 								{
									"source" : [ "obj-22", 0 ],
									"destination" : [ "obj-23", 0 ],
									"hidden" : 0
								}

							}
, 							{
								"patchline" : 								{
									"source" : [ "obj-17", 0 ],
									"destination" : [ "obj-23", 0 ],
									"hidden" : 0,
									"midpoints" : [ 119.5, 309.0, 67.5, 309.0 ]
								}

							}
, 							{
								"patchline" : 								{
									"source" : [ "obj-23", 0 ],
									"destination" : [ "obj-21", 0 ],
									"hidden" : 0
								}

							}
, 							{
								"patchline" : 								{
									"source" : [ "obj-23", 1 ],
									"destination" : [ "obj-21", 1 ],
									"hidden" : 0,
									"midpoints" : [ 133.5, 337.0, 78.0, 337.0 ]
								}

							}
, 							{
								"patchline" : 								{
									"source" : [ "obj-16", 0 ],
									"destination" : [ "obj-5", 1 ],
									"hidden" : 0
								}

							}
, 							{
								"patchline" : 								{
									"source" : [ "obj-10", 0 ],
									"destination" : [ "obj-11", 0 ],
									"hidden" : 0,
									"midpoints" : [ 67.5, 175.0, 119.5, 175.0 ]
								}

							}
, 							{
								"patchline" : 								{
									"source" : [ "obj-11", 0 ],
									"destination" : [ "obj-18", 0 ],
									"hidden" : 0
								}

							}
, 							{
								"patchline" : 								{
									"source" : [ "obj-18", 0 ],
									"destination" : [ "obj-20", 0 ],
									"hidden" : 0
								}

							}
, 							{
								"patchline" : 								{
									"source" : [ "obj-20", 0 ],
									"destination" : [ "obj-19", 0 ],
									"hidden" : 0
								}

							}
, 							{
								"patchline" : 								{
									"source" : [ "obj-19", 0 ],
									"destination" : [ "obj-17", 0 ],
									"hidden" : 0
								}

							}
 ]
					}
,
					"saved_object_attributes" : 					{
						"default_fontface" : 0,
						"fontname" : "Verdana",
						"default_fontname" : "Verdana",
						"fontface" : 0,
						"globalpatchername" : "",
						"fontsize" : 10.0,
						"default_fontsize" : 10.0
					}

				}

			}
, 			{
				"box" : 				{
					"maxclass" : "newobj",
					"text" : "p segmentation",
					"patching_rect" : [ 307.0, 375.0, 72.0, 17.0 ],
					"fontname" : "Verdana",
					"id" : "obj-2",
					"numinlets" : 1,
					"numoutlets" : 1,
					"fontsize" : 9.0,
					"outlettype" : [ "float" ],
					"patcher" : 					{
						"rect" : [ 15.0, 55.0, 158.0, 258.0 ],
						"bgcolor" : [ 1.0, 1.0, 1.0, 1.0 ],
						"bglocked" : 0,
						"defrect" : [ 15.0, 55.0, 158.0, 258.0 ],
						"openinpresentation" : 0,
						"default_fontsize" : 10.0,
						"default_fontface" : 0,
						"default_fontname" : "Verdana",
						"gridonopen" : 0,
						"gridsize" : [ 15.0, 15.0 ],
						"gridsnaponopen" : 0,
						"toolbarvisible" : 1,
						"boxfadetime" : 200,
						"boxanimatetime" : 200,
						"scrollanimatetime" : 200,
						"metadata" : [  ],
						"boxes" : [ 							{
								"box" : 								{
									"maxclass" : "newobj",
									"text" : "t 0",
									"patching_rect" : [ 50.0, 109.0, 19.0, 17.0 ],
									"fontname" : "Verdana",
									"id" : "obj-1",
									"numinlets" : 1,
									"numoutlets" : 1,
									"fontsize" : 9.0,
									"outlettype" : [ "int" ]
								}

							}
, 							{
								"box" : 								{
									"maxclass" : "newobj",
									"text" : "* 10.",
									"patching_rect" : [ 50.0, 53.0, 28.0, 17.0 ],
									"fontname" : "Verdana",
									"id" : "obj-2",
									"numinlets" : 2,
									"numoutlets" : 1,
									"fontsize" : 9.0,
									"outlettype" : [ "float" ]
								}

							}
, 							{
								"box" : 								{
									"maxclass" : "newobj",
									"text" : "split 0. 1.",
									"patching_rect" : [ 50.0, 81.0, 47.0, 17.0 ],
									"fontname" : "Verdana",
									"id" : "obj-3",
									"numinlets" : 3,
									"numoutlets" : 2,
									"fontsize" : 9.0,
									"outlettype" : [ "float", "float" ]
								}

							}
, 							{
								"box" : 								{
									"maxclass" : "inlet",
									"patching_rect" : [ 50.0, 30.0, 15.0, 15.0 ],
									"id" : "obj-4",
									"numinlets" : 0,
									"numoutlets" : 1,
									"outlettype" : [ "float" ],
									"comment" : ""
								}

							}
, 							{
								"box" : 								{
									"maxclass" : "outlet",
									"patching_rect" : [ 50.0, 150.0, 15.0, 15.0 ],
									"id" : "obj-5",
									"numinlets" : 1,
									"numoutlets" : 0,
									"comment" : ""
								}

							}
 ],
						"lines" : [ 							{
								"patchline" : 								{
									"source" : [ "obj-4", 0 ],
									"destination" : [ "obj-2", 0 ],
									"hidden" : 0
								}

							}
, 							{
								"patchline" : 								{
									"source" : [ "obj-2", 0 ],
									"destination" : [ "obj-3", 0 ],
									"hidden" : 0
								}

							}
, 							{
								"patchline" : 								{
									"source" : [ "obj-3", 0 ],
									"destination" : [ "obj-1", 0 ],
									"hidden" : 0
								}

							}
, 							{
								"patchline" : 								{
									"source" : [ "obj-3", 1 ],
									"destination" : [ "obj-5", 0 ],
									"hidden" : 0,
									"midpoints" : [ 87.5, 136.0, 59.0, 136.0 ]
								}

							}
, 							{
								"patchline" : 								{
									"source" : [ "obj-1", 0 ],
									"destination" : [ "obj-5", 0 ],
									"hidden" : 0
								}

							}
 ]
					}
,
					"saved_object_attributes" : 					{
						"default_fontface" : 0,
						"fontname" : "Verdana",
						"default_fontname" : "Verdana",
						"fontface" : 0,
						"globalpatchername" : "",
						"fontsize" : 10.0,
						"default_fontsize" : 10.0
					}

				}

			}
, 			{
				"box" : 				{
					"maxclass" : "multislider",
					"candicane7" : [ 0.878431, 0.243137, 0.145098, 1.0 ],
					"patching_rect" : [ 307.0, 400.0, 271.0, 85.0 ],
					"candicane4" : [ 0.439216, 0.619608, 0.070588, 1.0 ],
					"setstyle" : 5,
					"candicane8" : [ 0.027451, 0.447059, 0.501961, 1.0 ],
					"candicane2" : [ 0.145098, 0.203922, 0.356863, 1.0 ],
					"candicane5" : [ 0.584314, 0.827451, 0.431373, 1.0 ],
					"setminmax" : [ 0.0, 10.0 ],
					"id" : "obj-3",
					"numinlets" : 1,
					"candicane3" : [ 0.290196, 0.411765, 0.713726, 1.0 ],
					"peakcolor" : [ 0.498039, 0.498039, 0.498039, 1.0 ],
					"numoutlets" : 2,
					"candicane6" : [ 0.733333, 0.035294, 0.788235, 1.0 ],
					"outlettype" : [ "", "" ]
				}

			}
, 			{
				"box" : 				{
					"maxclass" : "newobj",
					"text" : "p quantity-of-motion",
					"patching_rect" : [ 307.0, 261.0, 93.0, 17.0 ],
					"fontname" : "Verdana",
					"id" : "obj-4",
					"numinlets" : 1,
					"numoutlets" : 1,
					"fontsize" : 9.0,
					"outlettype" : [ "float" ],
					"patcher" : 					{
						"rect" : [ 15.0, 55.0, 444.0, 326.0 ],
						"bgcolor" : [ 1.0, 1.0, 1.0, 1.0 ],
						"bglocked" : 0,
						"defrect" : [ 15.0, 55.0, 444.0, 326.0 ],
						"openinpresentation" : 0,
						"default_fontsize" : 10.0,
						"default_fontface" : 0,
						"default_fontname" : "Verdana",
						"gridonopen" : 0,
						"gridsize" : [ 15.0, 15.0 ],
						"gridsnaponopen" : 0,
						"toolbarvisible" : 1,
						"boxfadetime" : 200,
						"boxanimatetime" : 200,
						"scrollanimatetime" : 200,
						"metadata" : [  ],
						"boxes" : [ 							{
								"box" : 								{
									"maxclass" : "flonum",
									"minimum" : 0.0,
									"patching_rect" : [ 69.0, 181.0, 35.0, 17.0 ],
									"triscale" : 0.9,
									"fontname" : "Verdana",
									"htextcolor" : [ 0.870588, 0.870588, 0.870588, 1.0 ],
									"id" : "obj-1",
									"numinlets" : 1,
									"numoutlets" : 2,
									"fontsize" : 9.0,
									"bgcolor" : [ 0.866667, 0.866667, 0.866667, 1.0 ],
									"outlettype" : [ "float", "bang" ]
								}

							}
, 							{
								"box" : 								{
									"maxclass" : "comment",
									"text" : "adding all values to look for quantity of motion.",
									"patching_rect" : [ 126.0, 95.0, 207.0, 17.0 ],
									"fontname" : "Verdana",
									"id" : "obj-2",
									"numinlets" : 1,
									"numoutlets" : 0,
									"fontsize" : 9.0
								}

							}
, 							{
								"box" : 								{
									"maxclass" : "newobj",
									"text" : "jcom.oscroute \/x \/y \/z",
									"patching_rect" : [ 50.0, 55.0, 100.0, 17.0 ],
									"fontname" : "Verdana",
									"id" : "obj-3",
									"numinlets" : 1,
									"numoutlets" : 4,
									"fontsize" : 9.0,
									"outlettype" : [ "", "", "", "" ]
								}

							}
, 							{
								"box" : 								{
									"maxclass" : "newobj",
									"text" : "+ 0.",
									"patching_rect" : [ 50.0, 103.0, 70.0, 17.0 ],
									"fontname" : "Verdana",
									"id" : "obj-4",
									"numinlets" : 2,
									"numoutlets" : 1,
									"fontsize" : 9.0,
									"outlettype" : [ "float" ]
								}

							}
, 							{
								"box" : 								{
									"maxclass" : "newobj",
									"text" : "+ 0.",
									"patching_rect" : [ 50.0, 80.0, 40.0, 17.0 ],
									"fontname" : "Verdana",
									"id" : "obj-5",
									"numinlets" : 2,
									"numoutlets" : 1,
									"fontsize" : 9.0,
									"outlettype" : [ "float" ]
								}

							}
, 							{
								"box" : 								{
									"maxclass" : "comment",
									"text" : "taking the absolute value to look for peaks in the quantity of motion.",
									"patching_rect" : [ 107.0, 159.0, 296.0, 17.0 ],
									"fontname" : "Verdana",
									"id" : "obj-6",
									"numinlets" : 1,
									"numoutlets" : 0,
									"fontsize" : 9.0
								}

							}
, 							{
								"box" : 								{
									"maxclass" : "comment",
									"text" : "smoothing the values with a simple low-pass filter.",
									"patching_rect" : [ 107.0, 206.0, 219.0, 17.0 ],
									"fontname" : "Verdana",
									"id" : "obj-7",
									"numinlets" : 1,
									"numoutlets" : 0,
									"fontsize" : 9.0
								}

							}
, 							{
								"box" : 								{
									"maxclass" : "newobj",
									"text" : "slide 3. 3.",
									"patching_rect" : [ 50.0, 205.0, 49.0, 17.0 ],
									"fontname" : "Verdana",
									"id" : "obj-8",
									"numinlets" : 3,
									"numoutlets" : 1,
									"fontsize" : 9.0,
									"outlettype" : [ "float" ]
								}

							}
, 							{
								"box" : 								{
									"maxclass" : "newobj",
									"text" : "abs 0.",
									"patching_rect" : [ 50.0, 152.0, 34.0, 17.0 ],
									"fontname" : "Verdana",
									"id" : "obj-9",
									"numinlets" : 1,
									"numoutlets" : 1,
									"fontsize" : 9.0,
									"outlettype" : [ "float" ]
								}

							}
, 							{
								"box" : 								{
									"maxclass" : "newobj",
									"text" : "jcom.delta",
									"patching_rect" : [ 50.0, 129.0, 51.0, 17.0 ],
									"fontname" : "Verdana",
									"id" : "obj-10",
									"numinlets" : 1,
									"numoutlets" : 2,
									"fontsize" : 9.0,
									"outlettype" : [ "float", "" ]
								}

							}
, 							{
								"box" : 								{
									"maxclass" : "comment",
									"text" : "the first derivative returns the quantity of motion.",
									"patching_rect" : [ 106.0, 131.0, 214.0, 17.0 ],
									"fontname" : "Verdana",
									"id" : "obj-11",
									"numinlets" : 1,
									"numoutlets" : 0,
									"fontsize" : 9.0
								}

							}
, 							{
								"box" : 								{
									"maxclass" : "inlet",
									"patching_rect" : [ 50.0, 30.0, 15.0, 15.0 ],
									"id" : "obj-12",
									"numinlets" : 0,
									"numoutlets" : 1,
									"outlettype" : [ "" ],
									"comment" : ""
								}

							}
, 							{
								"box" : 								{
									"maxclass" : "outlet",
									"patching_rect" : [ 50.0, 232.0, 15.0, 15.0 ],
									"id" : "obj-13",
									"numinlets" : 1,
									"numoutlets" : 0,
									"comment" : ""
								}

							}
 ],
						"lines" : [ 							{
								"patchline" : 								{
									"source" : [ "obj-12", 0 ],
									"destination" : [ "obj-3", 0 ],
									"hidden" : 0
								}

							}
, 							{
								"patchline" : 								{
									"source" : [ "obj-3", 0 ],
									"destination" : [ "obj-5", 0 ],
									"hidden" : 0
								}

							}
, 							{
								"patchline" : 								{
									"source" : [ "obj-5", 0 ],
									"destination" : [ "obj-4", 0 ],
									"hidden" : 0
								}

							}
, 							{
								"patchline" : 								{
									"source" : [ "obj-4", 0 ],
									"destination" : [ "obj-10", 0 ],
									"hidden" : 0
								}

							}
, 							{
								"patchline" : 								{
									"source" : [ "obj-10", 0 ],
									"destination" : [ "obj-9", 0 ],
									"hidden" : 0
								}

							}
, 							{
								"patchline" : 								{
									"source" : [ "obj-9", 0 ],
									"destination" : [ "obj-8", 0 ],
									"hidden" : 0
								}

							}
, 							{
								"patchline" : 								{
									"source" : [ "obj-8", 0 ],
									"destination" : [ "obj-13", 0 ],
									"hidden" : 0
								}

							}
, 							{
								"patchline" : 								{
									"source" : [ "obj-1", 0 ],
									"destination" : [ "obj-8", 1 ],
									"hidden" : 0
								}

							}
, 							{
								"patchline" : 								{
									"source" : [ "obj-3", 1 ],
									"destination" : [ "obj-5", 1 ],
									"hidden" : 0
								}

							}
, 							{
								"patchline" : 								{
									"source" : [ "obj-1", 0 ],
									"destination" : [ "obj-8", 2 ],
									"hidden" : 0
								}

							}
, 							{
								"patchline" : 								{
									"source" : [ "obj-3", 2 ],
									"destination" : [ "obj-4", 1 ],
									"hidden" : 0
								}

							}
 ]
					}
,
					"saved_object_attributes" : 					{
						"default_fontface" : 0,
						"fontname" : "Verdana",
						"default_fontname" : "Verdana",
						"fontface" : 0,
						"globalpatchername" : "",
						"fontsize" : 10.0,
						"default_fontsize" : 10.0
					}

				}

			}
, 			{
				"box" : 				{
					"maxclass" : "multislider",
					"candicane7" : [ 0.878431, 0.243137, 0.145098, 1.0 ],
					"patching_rect" : [ 21.0, 486.0, 271.0, 85.0 ],
					"candicane4" : [ 0.439216, 0.619608, 0.070588, 1.0 ],
					"setstyle" : 5,
					"candicane8" : [ 0.027451, 0.447059, 0.501961, 1.0 ],
					"candicane2" : [ 0.145098, 0.203922, 0.356863, 1.0 ],
					"candicane5" : [ 0.584314, 0.827451, 0.431373, 1.0 ],
					"id" : "obj-5",
					"numinlets" : 1,
					"candicane3" : [ 0.290196, 0.411765, 0.713726, 1.0 ],
					"peakcolor" : [ 0.498039, 0.498039, 0.498039, 1.0 ],
					"numoutlets" : 2,
					"candicane6" : [ 0.733333, 0.035294, 0.788235, 1.0 ],
					"outlettype" : [ "", "" ]
				}

			}
, 			{
				"box" : 				{
					"maxclass" : "flonum",
					"patching_rect" : [ 93.0, 248.0, 35.0, 17.0 ],
					"triscale" : 0.9,
					"fontname" : "Verdana",
					"htextcolor" : [ 0.870588, 0.870588, 0.870588, 1.0 ],
					"id" : "obj-6",
					"numinlets" : 1,
					"numoutlets" : 2,
					"fontsize" : 9.0,
					"bgcolor" : [ 0.866667, 0.866667, 0.866667, 1.0 ],
					"outlettype" : [ "float", "bang" ]
				}

			}
, 			{
				"box" : 				{
					"maxclass" : "multislider",
					"candicane7" : [ 0.878431, 0.243137, 0.145098, 1.0 ],
					"patching_rect" : [ 307.0, 285.0, 271.0, 85.0 ],
					"candicane4" : [ 0.439216, 0.619608, 0.070588, 1.0 ],
					"setstyle" : 5,
					"candicane8" : [ 0.027451, 0.447059, 0.501961, 1.0 ],
					"candicane2" : [ 0.145098, 0.203922, 0.356863, 1.0 ],
					"candicane5" : [ 0.584314, 0.827451, 0.431373, 1.0 ],
					"setminmax" : [ 0.0, 1.0 ],
					"id" : "obj-7",
					"numinlets" : 1,
					"candicane3" : [ 0.290196, 0.411765, 0.713726, 1.0 ],
					"peakcolor" : [ 0.498039, 0.498039, 0.498039, 1.0 ],
					"numoutlets" : 2,
					"candicane6" : [ 0.733333, 0.035294, 0.788235, 1.0 ],
					"outlettype" : [ "", "" ]
				}

			}
, 			{
				"box" : 				{
					"maxclass" : "newobj",
					"text" : "p pre-process",
					"patching_rect" : [ 336.0, 123.0, 73.0, 17.0 ],
					"fontname" : "Verdana",
					"hidden" : 1,
					"id" : "obj-8",
					"numinlets" : 2,
					"numoutlets" : 1,
					"fontsize" : 9.0,
					"outlettype" : [ "" ],
					"patcher" : 					{
						"rect" : [ 20.0, 74.0, 311.0, 225.0 ],
						"bgcolor" : [ 1.0, 1.0, 1.0, 1.0 ],
						"bglocked" : 0,
						"defrect" : [ 20.0, 74.0, 311.0, 225.0 ],
						"openinpresentation" : 0,
						"default_fontsize" : 10.0,
						"default_fontface" : 0,
						"default_fontname" : "Verdana",
						"gridonopen" : 0,
						"gridsize" : [ 15.0, 15.0 ],
						"gridsnaponopen" : 0,
						"toolbarvisible" : 1,
						"boxfadetime" : 200,
						"boxanimatetime" : 200,
						"scrollanimatetime" : 200,
						"metadata" : [  ],
						"boxes" : [ 							{
								"box" : 								{
									"maxclass" : "newobj",
									"text" : "slide 3. 3.",
									"patching_rect" : [ 155.0, 51.0, 55.0, 17.0 ],
									"fontname" : "Verdana",
									"id" : "obj-1",
									"numinlets" : 3,
									"numoutlets" : 1,
									"fontsize" : 9.0,
									"outlettype" : [ "float" ]
								}

							}
, 							{
								"box" : 								{
									"maxclass" : "newobj",
									"text" : "slide 3. 3.",
									"patching_rect" : [ 50.0, 50.0, 55.0, 17.0 ],
									"fontname" : "Verdana",
									"id" : "obj-2",
									"numinlets" : 3,
									"numoutlets" : 1,
									"fontsize" : 9.0,
									"outlettype" : [ "float" ]
								}

							}
, 							{
								"box" : 								{
									"maxclass" : "newobj",
									"text" : "pak 0 0",
									"patching_rect" : [ 50.0, 102.0, 43.0, 17.0 ],
									"fontname" : "Verdana",
									"id" : "obj-3",
									"numinlets" : 2,
									"numoutlets" : 1,
									"fontsize" : 9.0,
									"outlettype" : [ "" ]
								}

							}
, 							{
								"box" : 								{
									"maxclass" : "newobj",
									"text" : "scale -1. 1. 0 127",
									"patching_rect" : [ 155.0, 74.0, 92.0, 17.0 ],
									"fontname" : "Verdana",
									"id" : "obj-4",
									"numinlets" : 6,
									"numoutlets" : 1,
									"fontsize" : 9.0,
									"outlettype" : [ "float" ]
								}

							}
, 							{
								"box" : 								{
									"maxclass" : "newobj",
									"text" : "scale -1. 1. 0 127",
									"patching_rect" : [ 50.0, 74.0, 92.0, 17.0 ],
									"fontname" : "Verdana",
									"id" : "obj-5",
									"numinlets" : 6,
									"numoutlets" : 1,
									"fontsize" : 9.0,
									"outlettype" : [ "float" ]
								}

							}
, 							{
								"box" : 								{
									"maxclass" : "inlet",
									"patching_rect" : [ 155.0, 31.0, 15.0, 15.0 ],
									"id" : "obj-6",
									"numinlets" : 0,
									"numoutlets" : 1,
									"outlettype" : [ "" ],
									"comment" : ""
								}

							}
, 							{
								"box" : 								{
									"maxclass" : "inlet",
									"patching_rect" : [ 50.0, 30.0, 15.0, 15.0 ],
									"id" : "obj-7",
									"numinlets" : 0,
									"numoutlets" : 1,
									"outlettype" : [ "" ],
									"comment" : ""
								}

							}
, 							{
								"box" : 								{
									"maxclass" : "outlet",
									"patching_rect" : [ 50.0, 124.0, 15.0, 15.0 ],
									"id" : "obj-8",
									"numinlets" : 1,
									"numoutlets" : 0,
									"comment" : ""
								}

							}
 ],
						"lines" : [ 							{
								"patchline" : 								{
									"source" : [ "obj-7", 0 ],
									"destination" : [ "obj-2", 0 ],
									"hidden" : 0
								}

							}
, 							{
								"patchline" : 								{
									"source" : [ "obj-2", 0 ],
									"destination" : [ "obj-5", 0 ],
									"hidden" : 0
								}

							}
, 							{
								"patchline" : 								{
									"source" : [ "obj-5", 0 ],
									"destination" : [ "obj-3", 0 ],
									"hidden" : 0
								}

							}
, 							{
								"patchline" : 								{
									"source" : [ "obj-3", 0 ],
									"destination" : [ "obj-8", 0 ],
									"hidden" : 0
								}

							}
, 							{
								"patchline" : 								{
									"source" : [ "obj-4", 0 ],
									"destination" : [ "obj-3", 1 ],
									"hidden" : 0,
									"midpoints" : [ 164.5, 97.0, 83.5, 97.0 ]
								}

							}
, 							{
								"patchline" : 								{
									"source" : [ "obj-6", 0 ],
									"destination" : [ "obj-1", 0 ],
									"hidden" : 0
								}

							}
, 							{
								"patchline" : 								{
									"source" : [ "obj-1", 0 ],
									"destination" : [ "obj-4", 0 ],
									"hidden" : 0
								}

							}
 ]
					}
,
					"saved_object_attributes" : 					{
						"default_fontface" : 0,
						"fontname" : "Verdana",
						"default_fontname" : "Verdana",
						"fontface" : 0,
						"globalpatchername" : "",
						"fontsize" : 10.0,
						"default_fontsize" : 10.0
					}

				}

			}
, 			{
				"box" : 				{
					"maxclass" : "pictslider",
					"bkgndpict" : "SliderDefaultBkgnd.pct",
					"patching_rect" : [ 336.0, 146.0, 100.0, 100.0 ],
					"bottommargin" : 4,
					"knobpict" : "SliderDefaultKnob.pct",
					"rightmargin" : 4,
					"id" : "obj-9",
					"numinlets" : 2,
					"topmargin" : 4,
					"imagemask" : 1,
					"numoutlets" : 2,
					"leftmargin" : 4,
					"outlettype" : [ "int", "int" ]
				}

			}
, 			{
				"box" : 				{
					"maxclass" : "comment",
					"text" : "Requires the Phidgets library to be installed (found in \/library\/externals_3d_party)",
					"linecount" : 2,
					"patching_rect" : [ 351.0, 28.0, 203.0, 28.0 ],
					"fontname" : "Verdana",
					"id" : "obj-10",
					"numinlets" : 1,
					"numoutlets" : 0,
					"fontsize" : 9.0
				}

			}
, 			{
				"box" : 				{
					"maxclass" : "multislider",
					"candicane7" : [ 0.878431, 0.243137, 0.145098, 1.0 ],
					"patching_rect" : [ 19.0, 385.0, 271.0, 85.0 ],
					"candicane4" : [ 0.439216, 0.619608, 0.070588, 1.0 ],
					"setstyle" : 5,
					"candicane8" : [ 0.027451, 0.447059, 0.501961, 1.0 ],
					"candicane2" : [ 0.145098, 0.203922, 0.356863, 1.0 ],
					"candicane5" : [ 0.584314, 0.827451, 0.431373, 1.0 ],
					"id" : "obj-11",
					"numinlets" : 1,
					"candicane3" : [ 0.290196, 0.411765, 0.713726, 1.0 ],
					"peakcolor" : [ 0.498039, 0.498039, 0.498039, 1.0 ],
					"numoutlets" : 2,
					"candicane6" : [ 0.733333, 0.035294, 0.788235, 1.0 ],
					"outlettype" : [ "", "" ]
				}

			}
, 			{
				"box" : 				{
					"maxclass" : "multislider",
					"candicane7" : [ 0.878431, 0.243137, 0.145098, 1.0 ],
					"patching_rect" : [ 19.0, 285.0, 271.0, 85.0 ],
					"candicane4" : [ 0.439216, 0.619608, 0.070588, 1.0 ],
					"setstyle" : 5,
					"candicane8" : [ 0.027451, 0.447059, 0.501961, 1.0 ],
					"candicane2" : [ 0.145098, 0.203922, 0.356863, 1.0 ],
					"candicane5" : [ 0.584314, 0.827451, 0.431373, 1.0 ],
					"id" : "obj-12",
					"numinlets" : 1,
					"candicane3" : [ 0.290196, 0.411765, 0.713726, 1.0 ],
					"peakcolor" : [ 0.498039, 0.498039, 0.498039, 1.0 ],
					"numoutlets" : 2,
					"candicane6" : [ 0.733333, 0.035294, 0.788235, 1.0 ],
					"outlettype" : [ "", "" ]
				}

			}
, 			{
				"box" : 				{
					"maxclass" : "flonum",
					"patching_rect" : [ 56.0, 248.0, 35.0, 17.0 ],
					"triscale" : 0.9,
					"fontname" : "Verdana",
					"htextcolor" : [ 0.870588, 0.870588, 0.870588, 1.0 ],
					"id" : "obj-13",
					"numinlets" : 1,
					"numoutlets" : 2,
					"fontsize" : 9.0,
					"bgcolor" : [ 0.866667, 0.866667, 0.866667, 1.0 ],
					"outlettype" : [ "float", "bang" ]
				}

			}
, 			{
				"box" : 				{
					"maxclass" : "flonum",
					"patching_rect" : [ 19.0, 248.0, 35.0, 17.0 ],
					"triscale" : 0.9,
					"fontname" : "Verdana",
					"htextcolor" : [ 0.870588, 0.870588, 0.870588, 1.0 ],
					"id" : "obj-14",
					"numinlets" : 1,
					"numoutlets" : 2,
					"fontsize" : 9.0,
					"bgcolor" : [ 0.866667, 0.866667, 0.866667, 1.0 ],
					"outlettype" : [ "float", "bang" ]
				}

			}
, 			{
				"box" : 				{
					"maxclass" : "newobj",
					"text" : "jcom.oscroute \/x \/y \/z",
					"patching_rect" : [ 19.0, 214.0, 122.0, 17.0 ],
					"fontname" : "Verdana",
					"id" : "obj-15",
					"numinlets" : 1,
					"numoutlets" : 4,
					"fontsize" : 9.0,
					"outlettype" : [ "", "", "", "" ]
				}

			}
, 			{
				"box" : 				{
					"maxclass" : "comment",
					"text" : "Use the USB accelerometers from Phidgets.com.",
					"patching_rect" : [ 12.0, 34.0, 326.0, 17.0 ],
					"fontname" : "Verdana",
					"frgb" : [ 1.0, 1.0, 1.0, 1.0 ],
					"id" : "obj-16",
					"numinlets" : 1,
					"textcolor" : [ 1.0, 1.0, 1.0, 1.0 ],
					"numoutlets" : 0,
					"fontsize" : 9.0
				}

			}
, 			{
				"box" : 				{
					"maxclass" : "comment",
					"text" : "jmod.phidgets.accelerometer",
					"patching_rect" : [ 12.0, 6.0, 313.0, 28.0 ],
					"fontname" : "Verdana",
					"frgb" : [ 1.0, 1.0, 1.0, 1.0 ],
					"id" : "obj-17",
					"numinlets" : 1,
					"textcolor" : [ 1.0, 1.0, 1.0, 1.0 ],
					"numoutlets" : 0,
					"fontsize" : 15.799999
				}

			}
, 			{
				"box" : 				{
					"maxclass" : "panel",
					"bordercolor" : [ 0.501961, 0.043137, 0.039216, 1.0 ],
					"patching_rect" : [ 0.0, 0.0, 339.0, 65.0 ],
					"rounded" : 0,
					"id" : "obj-18",
					"numinlets" : 1,
					"numoutlets" : 0,
					"bgcolor" : [ 0.262745, 0.254902, 0.419608, 1.0 ]
				}

			}
, 			{
				"box" : 				{
					"maxclass" : "bpatcher",
					"varname" : "\/accelerometer",
					"patching_rect" : [ 19.0, 133.0, 300.0, 70.0 ],
					"name" : "jmod.phidgets.accelerometer.maxpat",
					"lockeddragscroll" : 1,
					"id" : "obj-19",
					"numinlets" : 1,
					"numoutlets" : 1,
					"args" : [ "\/accelerometer" ],
					"outlettype" : [ "" ]
				}

			}
, 			{
				"box" : 				{
					"maxclass" : "comment",
					"text" : "USAGE\r1. Click on init to refresh the menu with the connected devices. \r2. Select device to use\r3. Click the off\/on-button to start polling the device",
					"linecount" : 4,
					"patching_rect" : [ 29.0, 72.0, 294.0, 49.0 ],
					"fontname" : "Verdana",
					"id" : "obj-20",
					"numinlets" : 1,
					"numoutlets" : 0,
					"fontsize" : 9.0
				}

			}
, 			{
				"box" : 				{
					"maxclass" : "comment",
					"text" : "acceleration values in G",
					"patching_rect" : [ 134.0, 248.0, 109.0, 17.0 ],
					"fontname" : "Verdana",
					"id" : "obj-21",
					"numinlets" : 1,
					"numoutlets" : 0,
					"fontsize" : 9.0
				}

			}
 ],
		"lines" : [ 			{
				"patchline" : 				{
					"source" : [ "obj-19", 0 ],
					"destination" : [ "obj-15", 0 ],
					"hidden" : 0
				}

			}
, 			{
				"patchline" : 				{
					"source" : [ "obj-15", 0 ],
					"destination" : [ "obj-14", 0 ],
					"hidden" : 0
				}

			}
, 			{
				"patchline" : 				{
					"source" : [ "obj-14", 0 ],
					"destination" : [ "obj-12", 0 ],
					"hidden" : 0
				}

			}
, 			{
				"patchline" : 				{
					"source" : [ "obj-13", 0 ],
					"destination" : [ "obj-11", 0 ],
					"hidden" : 0
				}

			}
, 			{
				"patchline" : 				{
					"source" : [ "obj-6", 0 ],
					"destination" : [ "obj-5", 0 ],
					"hidden" : 0
				}

			}
, 			{
				"patchline" : 				{
					"source" : [ "obj-15", 1 ],
					"destination" : [ "obj-13", 0 ],
					"hidden" : 0
				}

			}
, 			{
				"patchline" : 				{
					"source" : [ "obj-15", 2 ],
					"destination" : [ "obj-6", 0 ],
					"hidden" : 0
				}

			}
, 			{
				"patchline" : 				{
					"source" : [ "obj-19", 0 ],
					"destination" : [ "obj-1", 0 ],
					"hidden" : 0,
					"midpoints" : [ 28.5, 211.0, 189.5, 211.0 ]
				}

			}
, 			{
				"patchline" : 				{
					"source" : [ "obj-15", 0 ],
					"destination" : [ "obj-8", 0 ],
					"hidden" : 1
				}

			}
, 			{
				"patchline" : 				{
					"source" : [ "obj-8", 0 ],
					"destination" : [ "obj-9", 0 ],
					"hidden" : 1
				}

			}
, 			{
				"patchline" : 				{
					"source" : [ "obj-19", 0 ],
					"destination" : [ "obj-4", 0 ],
					"hidden" : 0,
					"midpoints" : [ 28.5, 211.0, 240.0, 211.0, 277.0, 256.0, 316.5, 256.0 ]
				}

			}
, 			{
				"patchline" : 				{
					"source" : [ "obj-4", 0 ],
					"destination" : [ "obj-7", 0 ],
					"hidden" : 0
				}

			}
, 			{
				"patchline" : 				{
					"source" : [ "obj-4", 0 ],
					"destination" : [ "obj-2", 0 ],
					"hidden" : 0
				}

			}
, 			{
				"patchline" : 				{
					"source" : [ "obj-2", 0 ],
					"destination" : [ "obj-3", 0 ],
					"hidden" : 0
				}

			}
, 			{
				"patchline" : 				{
					"source" : [ "obj-15", 1 ],
					"destination" : [ "obj-8", 1 ],
					"hidden" : 1
				}

			}
 ]
	}

}
