{
	"patcher" : 	{
		"rect" : [ 218.0, 60.0, 840.0, 360.0 ],
		"bgcolor" : [ 1.0, 1.0, 1.0, 1.0 ],
		"bglocked" : 0,
		"defrect" : [ 218.0, 60.0, 840.0, 360.0 ],
		"openinpresentation" : 0,
		"default_fontsize" : 10.0,
		"default_fontface" : 0,
		"default_fontname" : "Verdana",
		"gridonopen" : 0,
		"gridsize" : [ 15.0, 15.0 ],
		"gridsnaponopen" : 0,
		"toolbarvisible" : 1,
		"boxfadetime" : 200,
		"boxanimatetime" : 200,
		"scrollanimatetime" : 200,
		"metadata" : [  ],
		"boxes" : [ 			{
				"box" : 				{
					"maxclass" : "newobj",
					"text" : "jcom.in",
					"patching_rect" : [ 116.0, 159.0, 43.0, 17.0 ],
					"fontname" : "Verdana",
					"hidden" : 1,
					"id" : "obj-1",
					"numinlets" : 0,
					"numoutlets" : 1,
					"fontsize" : 9.0,
					"outlettype" : [ "" ]
				}

			}
, 			{
				"box" : 				{
					"maxclass" : "newobj",
					"text" : "pvar sample_rate",
					"patching_rect" : [ 411.0, 193.0, 90.0, 17.0 ],
					"fontname" : "Verdana",
					"hidden" : 1,
					"id" : "obj-2",
					"numinlets" : 1,
					"numoutlets" : 1,
					"fontsize" : 9.0,
					"outlettype" : [ "" ]
				}

			}
, 			{
				"box" : 				{
					"maxclass" : "newobj",
					"varname" : "sample_rate[1]",
					"text" : "jcom.parameter sample_rate @type msg_int @ramp/drive scheduler @repetitions 0 @range/bounds -1 1000 @range/clipmode low @description \"Sample rate in milliseconds\"",
					"linecount" : 2,
					"patching_rect" : [ 411.0, 215.0, 338.0, 28.0 ],
					"fontname" : "Verdana",
					"hidden" : 1,
					"id" : "obj-3",
					"numinlets" : 1,
					"numoutlets" : 1,
					"fontsize" : 9.0,
					"outlettype" : [ "" ]
				}

			}
, 			{
				"box" : 				{
					"maxclass" : "number",
					"varname" : "sample_rate",
					"minimum" : -1,
					"patching_rect" : [ 152.0, 30.0, 35.0, 17.0 ],
					"triscale" : 0.9,
					"transparent" : 1,
					"fontname" : "Verdana",
					"htextcolor" : [ 0.870588, 0.870588, 0.870588, 1.0 ],
					"id" : "obj-4",
					"numinlets" : 1,
					"triangle" : 0,
					"textcolor" : [ 0.584314, 0.584314, 0.584314, 1.0 ],
					"numoutlets" : 2,
					"fontsize" : 9.0,
					"bgcolor" : [ 0.866667, 0.866667, 0.866667, 1.0 ],
					"outlettype" : [ "int", "bang" ]
				}

			}
, 			{
				"box" : 				{
					"maxclass" : "jsui",
					"varname" : "status",
					"patching_rect" : [ 47.0, 27.0, 20.0, 15.0 ],
					"id" : "obj-5",
					"numinlets" : 1,
					"jsarguments" : [ "on", "off" ],
					"filename" : "jcom.jsui_texttoggle.js",
					"numoutlets" : 2,
					"outlettype" : [ "", "" ]
				}

			}
, 			{
				"box" : 				{
					"maxclass" : "jsui",
					"varname" : "init",
					"patching_rect" : [ 17.0, 27.0, 25.0, 15.0 ],
					"id" : "obj-6",
					"numinlets" : 1,
					"jsarguments" : [ "init" ],
					"filename" : "jsui_textbutton.js",
					"numoutlets" : 1,
					"outlettype" : [ "" ]
				}

			}
, 			{
				"box" : 				{
					"maxclass" : "newobj",
					"text" : "pvar init",
					"patching_rect" : [ 411.0, 120.0, 49.0, 17.0 ],
					"fontname" : "Verdana",
					"hidden" : 1,
					"id" : "obj-7",
					"numinlets" : 1,
					"numoutlets" : 1,
					"fontsize" : 9.0,
					"outlettype" : [ "" ]
				}

			}
, 			{
				"box" : 				{
					"maxclass" : "newobj",
					"varname" : "jmod.parameter[3]",
					"text" : "jcom.message init @type generic @range/clipmode none @description \"Initialization of devices\"",
					"linecount" : 2,
					"patching_rect" : [ 411.0, 142.0, 209.0, 28.0 ],
					"fontname" : "Verdana",
					"hidden" : 1,
					"id" : "obj-8",
					"numinlets" : 1,
					"numoutlets" : 0,
					"fontsize" : 9.0
				}

			}
, 			{
				"box" : 				{
					"maxclass" : "newobj",
					"text" : "pvar status",
					"patching_rect" : [ 411.0, 43.0, 62.0, 17.0 ],
					"fontname" : "Verdana",
					"hidden" : 1,
					"id" : "obj-9",
					"numinlets" : 1,
					"numoutlets" : 1,
					"fontsize" : 9.0,
					"outlettype" : [ "" ]
				}

			}
, 			{
				"box" : 				{
					"maxclass" : "newobj",
					"varname" : "status[1]",
					"text" : "jcom.parameter status @type toggle @range/clipmode none @description \"Turn polling on\"",
					"patching_rect" : [ 411.0, 65.0, 387.0, 17.0 ],
					"fontname" : "Verdana",
					"hidden" : 1,
					"id" : "obj-10",
					"numinlets" : 1,
					"numoutlets" : 1,
					"fontsize" : 9.0,
					"outlettype" : [ "" ]
				}

			}
, 			{
				"box" : 				{
					"maxclass" : "newobj",
					"text" : "pcontrol",
					"patching_rect" : [ 116.0, 217.0, 45.0, 17.0 ],
					"fontname" : "Verdana",
					"hidden" : 1,
					"id" : "obj-11",
					"numinlets" : 1,
					"numoutlets" : 1,
					"fontsize" : 9.0,
					"outlettype" : [ "" ]
				}

			}
, 			{
				"box" : 				{
					"maxclass" : "newobj",
					"text" : "jcom.pass open",
					"patching_rect" : [ 116.0, 193.0, 78.0, 17.0 ],
					"fontname" : "Verdana",
					"hidden" : 1,
					"id" : "obj-12",
					"numinlets" : 1,
					"numoutlets" : 2,
					"fontsize" : 9.0,
					"outlettype" : [ "", "" ]
				}

			}
, 			{
				"box" : 				{
					"maxclass" : "message",
					"text" : "\/documentation\/generate",
					"patching_rect" : [ 38.0, 69.0, 125.0, 15.0 ],
					"fontname" : "Verdana",
					"hidden" : 1,
					"id" : "obj-13",
					"numinlets" : 2,
					"numoutlets" : 1,
					"fontsize" : 9.0,
					"outlettype" : [ "" ]
				}

			}
, 			{
				"box" : 				{
					"maxclass" : "newobj",
					"text" : "jalg.phidgets.accelerometer.mxt",
					"patching_rect" : [ 116.0, 285.0, 156.0, 17.0 ],
					"fontname" : "Verdana",
					"hidden" : 1,
					"id" : "obj-14",
					"numinlets" : 1,
					"numoutlets" : 0,
					"fontsize" : 9.0
				}

			}
, 			{
				"box" : 				{
					"maxclass" : "newobj",
					"varname" : "jmod.hub",
					"text" : "jcom.hub jmod.phidgets.accelerometer @size 1U-half @module_type control @description \"Use human interface devices (gamepads and joysticks).\"",
					"linecount" : 2,
					"patching_rect" : [ 16.0, 94.0, 352.0, 28.0 ],
					"fontname" : "Verdana",
					"hidden" : 1,
					"id" : "obj-15",
					"numinlets" : 1,
					"numoutlets" : 2,
					"fontsize" : 9.0,
					"outlettype" : [ "", "" ]
				}

			}
, 			{
				"box" : 				{
					"maxclass" : "inlet",
					"patching_rect" : [ 16.0, 70.0, 13.0, 13.0 ],
					"hidden" : 1,
					"id" : "obj-16",
					"numinlets" : 0,
					"numoutlets" : 1,
					"outlettype" : [ "" ],
					"comment" : ""
				}

			}
, 			{
				"box" : 				{
					"maxclass" : "outlet",
					"patching_rect" : [ 16.0, 167.0, 13.0, 13.0 ],
					"hidden" : 1,
					"id" : "obj-17",
					"numinlets" : 1,
					"numoutlets" : 0,
					"comment" : ""
				}

			}
, 			{
				"box" : 				{
					"maxclass" : "comment",
					"text" : "sample rate",
					"patching_rect" : [ 88.0, 30.0, 61.0, 17.0 ],
					"fontname" : "Verdana",
					"frgb" : [ 0.584314, 0.584314, 0.584314, 1.0 ],
					"id" : "obj-18",
					"numinlets" : 1,
					"textcolor" : [ 0.584314, 0.584314, 0.584314, 1.0 ],
					"numoutlets" : 0,
					"fontsize" : 9.0
				}

			}
, 			{
				"box" : 				{
					"maxclass" : "jcom.ui",
					"text" : "\/Jamoma",
					"color" : [ 1.0, 1.0, 1.0, 1.0 ],
					"id" : "obj-19",
					"numinlets" : 1,
					"textcolor" : [ 0.65, 0.65, 0.65, 1.0 ],
					"numoutlets" : 1,
					"outlettype" : [ "" ]
				}

			}
 ],
		"lines" : [ 			{
				"patchline" : 				{
					"source" : [ "obj-16", 0 ],
					"destination" : [ "obj-15", 0 ],
					"hidden" : 1
				}

			}
, 			{
				"patchline" : 				{
					"source" : [ "obj-13", 0 ],
					"destination" : [ "obj-15", 0 ],
					"hidden" : 1,
					"midpoints" : [ 47.5, 88.0, 25.5, 88.0 ]
				}

			}
, 			{
				"patchline" : 				{
					"source" : [ "obj-15", 0 ],
					"destination" : [ "obj-17", 0 ],
					"hidden" : 1
				}

			}
, 			{
				"patchline" : 				{
					"source" : [ "obj-1", 0 ],
					"destination" : [ "obj-12", 0 ],
					"hidden" : 1
				}

			}
, 			{
				"patchline" : 				{
					"source" : [ "obj-12", 0 ],
					"destination" : [ "obj-11", 0 ],
					"hidden" : 1
				}

			}
, 			{
				"patchline" : 				{
					"source" : [ "obj-11", 0 ],
					"destination" : [ "obj-14", 0 ],
					"hidden" : 1
				}

			}
, 			{
				"patchline" : 				{
					"source" : [ "obj-12", 1 ],
					"destination" : [ "obj-14", 0 ],
					"hidden" : 1,
					"midpoints" : [ 184.5, 245.0, 125.5, 245.0 ]
				}

			}
, 			{
				"patchline" : 				{
					"source" : [ "obj-10", 0 ],
					"destination" : [ "obj-9", 0 ],
					"hidden" : 1,
					"midpoints" : [ 420.5, 88.0, 406.0, 88.0, 406.0, 37.0, 420.5, 37.0 ]
				}

			}
, 			{
				"patchline" : 				{
					"source" : [ "obj-9", 0 ],
					"destination" : [ "obj-10", 0 ],
					"hidden" : 1
				}

			}
, 			{
				"patchline" : 				{
					"source" : [ "obj-7", 0 ],
					"destination" : [ "obj-8", 0 ],
					"hidden" : 1
				}

			}
, 			{
				"patchline" : 				{
					"source" : [ "obj-3", 0 ],
					"destination" : [ "obj-2", 0 ],
					"hidden" : 1,
					"midpoints" : [ 420.5, 248.0, 404.0, 248.0, 404.0, 188.0, 420.5, 188.0 ]
				}

			}
, 			{
				"patchline" : 				{
					"source" : [ "obj-2", 0 ],
					"destination" : [ "obj-3", 0 ],
					"hidden" : 1
				}

			}
 ]
	}

}
