{
	"patcher" : 	{
		"rect" : [ 352.0, 137.0, 818.0, 422.0 ],
		"bglocked" : 0,
		"defrect" : [ 352.0, 137.0, 818.0, 422.0 ],
		"openinpresentation" : 0,
		"default_fontsize" : 10.0,
		"default_fontface" : 0,
		"default_fontname" : "Verdana",
		"gridonopen" : 0,
		"gridsize" : [ 5.0, 5.0 ],
		"gridsnaponopen" : 0,
		"toolbarvisible" : 1,
		"boxfadetime" : 200,
		"boxanimatetime" : 200,
		"scrollanimatetime" : 200,
		"metadata" : [  ],
		"boxes" : [ 			{
				"box" : 				{
					"maxclass" : "newobj",
					"text" : "jcom.in",
					"patching_rect" : [ 175.0, 129.0, 43.0, 17.0 ],
					"fontname" : "Verdana",
					"hidden" : 1,
					"id" : "obj-1",
					"numinlets" : 0,
					"numoutlets" : 1,
					"fontsize" : 9.0,
					"outlettype" : [ "" ]
				}

			}
, 			{
				"box" : 				{
					"maxclass" : "jsui",
					"varname" : "nopointer",
					"patching_rect" : [ 58.0, 28.0, 51.0, 15.0 ],
					"id" : "obj-2",
					"numinlets" : 1,
					"jsarguments" : [ "pointer", "nopointer" ],
					"filename" : "jcom.jsui_texttoggle.js",
					"numoutlets" : 2,
					"outlettype" : [ "", "" ]
				}

			}
, 			{
				"box" : 				{
					"maxclass" : "newobj",
					"text" : "pvar nopointer",
					"patching_rect" : [ 495.0, 188.0, 76.0, 17.0 ],
					"fontname" : "Verdana",
					"hidden" : 1,
					"id" : "obj-3",
					"numinlets" : 1,
					"numoutlets" : 1,
					"fontsize" : 9.0,
					"outlettype" : [ "" ]
				}

			}
, 			{
				"box" : 				{
					"maxclass" : "newobj",
					"varname" : "nopointer[1]",
					"text" : "jcom.parameter nopointer @type msg_toggle @range/clipmode none @description \"Move mouse pointer\"",
					"linecount" : 2,
					"patching_rect" : [ 495.0, 210.0, 244.0, 28.0 ],
					"fontname" : "Verdana",
					"hidden" : 1,
					"id" : "obj-4",
					"numinlets" : 1,
					"numoutlets" : 1,
					"fontsize" : 9.0,
					"outlettype" : [ "" ]
				}

			}
, 			{
				"box" : 				{
					"maxclass" : "jsui",
					"varname" : "on",
					"patching_rect" : [ 35.0, 28.0, 20.0, 15.0 ],
					"id" : "obj-5",
					"numinlets" : 1,
					"jsarguments" : [ "off", "on" ],
					"filename" : "jcom.jsui_texttoggle.js",
					"numoutlets" : 2,
					"outlettype" : [ "", "" ]
				}

			}
, 			{
				"box" : 				{
					"maxclass" : "jsui",
					"varname" : "init",
					"patching_rect" : [ 7.0, 28.0, 25.0, 15.0 ],
					"id" : "obj-6",
					"numinlets" : 1,
					"jsarguments" : [ "init" ],
					"filename" : "jsui_textbutton.js",
					"numoutlets" : 1,
					"outlettype" : [ "" ]
				}

			}
, 			{
				"box" : 				{
					"maxclass" : "newobj",
					"text" : "pvar init",
					"patching_rect" : [ 497.0, 114.0, 49.0, 17.0 ],
					"fontname" : "Verdana",
					"hidden" : 1,
					"id" : "obj-7",
					"numinlets" : 1,
					"numoutlets" : 1,
					"fontsize" : 9.0,
					"outlettype" : [ "" ]
				}

			}
, 			{
				"box" : 				{
					"maxclass" : "newobj",
					"varname" : "jcom.parameter[3]",
					"text" : "jcom.message init @type msg_generic @range/clipmode none @description \"Initialization of wacom object\"",
					"linecount" : 2,
					"patching_rect" : [ 497.0, 136.0, 257.0, 28.0 ],
					"fontname" : "Verdana",
					"hidden" : 1,
					"id" : "obj-8",
					"numinlets" : 1,
					"numoutlets" : 0,
					"fontsize" : 9.0
				}

			}
, 			{
				"box" : 				{
					"maxclass" : "newobj",
					"text" : "pvar on",
					"patching_rect" : [ 495.0, 46.0, 44.0, 17.0 ],
					"fontname" : "Verdana",
					"hidden" : 1,
					"id" : "obj-9",
					"numinlets" : 1,
					"numoutlets" : 1,
					"fontsize" : 9.0,
					"outlettype" : [ "" ]
				}

			}
, 			{
				"box" : 				{
					"maxclass" : "newobj",
					"varname" : "on[1]",
					"text" : "jcom.parameter on @type msg_toggle @range/clipmode none @description \"Turn polling on\"",
					"linecount" : 2,
					"patching_rect" : [ 495.0, 68.0, 220.0, 28.0 ],
					"fontname" : "Verdana",
					"hidden" : 1,
					"id" : "obj-10",
					"numinlets" : 1,
					"numoutlets" : 1,
					"fontsize" : 9.0,
					"outlettype" : [ "" ]
				}

			}
, 			{
				"box" : 				{
					"maxclass" : "umenu",
					"varname" : "menu",
					"patching_rect" : [ 148.0, 28.0, 100.0, 17.0 ],
					"fontname" : "Verdana",
					"types" : [  ],
					"id" : "obj-11",
					"numinlets" : 1,
					"numoutlets" : 3,
					"fontsize" : 9.0,
					"items" : "All tablets and tools",
					"labelclick" : 1,
					"outlettype" : [ "int", "", "" ]
				}

			}
, 			{
				"box" : 				{
					"maxclass" : "comment",
					"text" : "Tablet",
					"patching_rect" : [ 113.0, 30.0, 38.0, 17.0 ],
					"fontname" : "Verdana",
					"frgb" : [ 0.584314, 0.584314, 0.584314, 1.0 ],
					"id" : "obj-12",
					"numinlets" : 1,
					"textcolor" : [ 0.584314, 0.584314, 0.584314, 1.0 ],
					"numoutlets" : 0,
					"fontsize" : 9.0
				}

			}
, 			{
				"box" : 				{
					"maxclass" : "newobj",
					"text" : "pvar menu",
					"patching_rect" : [ 496.0, 283.0, 57.0, 17.0 ],
					"fontname" : "Verdana",
					"hidden" : 1,
					"id" : "obj-13",
					"numinlets" : 1,
					"numoutlets" : 1,
					"fontsize" : 9.0,
					"outlettype" : [ "" ]
				}

			}
, 			{
				"box" : 				{
					"maxclass" : "newobj",
					"varname" : "menu[1]",
					"text" : "jcom.parameter menu @type msg_menu @range/clipmode none @description \"Choose which wacom device to use\"",
					"linecount" : 2,
					"patching_rect" : [ 496.0, 305.0, 264.0, 28.0 ],
					"fontname" : "Verdana",
					"hidden" : 1,
					"id" : "obj-14",
					"numinlets" : 1,
					"numoutlets" : 1,
					"fontsize" : 9.0,
					"outlettype" : [ "" ]
				}

			}
, 			{
				"box" : 				{
					"maxclass" : "newobj",
					"text" : "pcontrol",
					"patching_rect" : [ 175.0, 171.0, 45.0, 17.0 ],
					"fontname" : "Verdana",
					"hidden" : 1,
					"id" : "obj-15",
					"numinlets" : 1,
					"numoutlets" : 1,
					"fontsize" : 9.0,
					"outlettype" : [ "" ]
				}

			}
, 			{
				"box" : 				{
					"maxclass" : "newobj",
					"text" : "jcom.pass open",
					"patching_rect" : [ 175.0, 150.0, 91.0, 17.0 ],
					"fontname" : "Verdana",
					"hidden" : 1,
					"id" : "obj-16",
					"numinlets" : 1,
					"numoutlets" : 2,
					"fontsize" : 9.0,
					"outlettype" : [ "", "" ]
				}

			}
, 			{
				"box" : 				{
					"maxclass" : "message",
					"text" : "\/documentation\/generate",
					"patching_rect" : [ 38.0, 69.0, 125.0, 15.0 ],
					"fontname" : "Verdana",
					"hidden" : 1,
					"id" : "obj-17",
					"numinlets" : 2,
					"numoutlets" : 1,
					"fontsize" : 9.0,
					"outlettype" : [ "" ]
				}

			}
, 			{
				"box" : 				{
					"maxclass" : "message",
					"text" : ";\rmax refresh",
					"linecount" : 2,
					"patching_rect" : [ 16.0, 229.0, 66.0, 26.0 ],
					"fontname" : "Verdana",
					"hidden" : 1,
					"id" : "obj-18",
					"numinlets" : 2,
					"numoutlets" : 1,
					"fontsize" : 9.0,
					"outlettype" : [ "" ]
				}

			}
, 			{
				"box" : 				{
					"maxclass" : "message",
					"text" : ";\rjcom.init bang",
					"linecount" : 2,
					"patching_rect" : [ 16.0, 195.0, 75.0, 26.0 ],
					"fontname" : "Verdana",
					"hidden" : 1,
					"id" : "obj-19",
					"numinlets" : 2,
					"numoutlets" : 1,
					"fontsize" : 9.0,
					"outlettype" : [ "" ]
				}

			}
, 			{
				"box" : 				{
					"maxclass" : "newobj",
					"text" : "jalg.wacom",
					"patching_rect" : [ 175.0, 247.0, 104.0, 17.0 ],
					"fontname" : "Verdana",
					"hidden" : 1,
					"id" : "obj-20",
					"numinlets" : 1,
					"numoutlets" : 2,
					"fontsize" : 9.0,
					"outlettype" : [ "", "" ]
				}

			}
, 			{
				"box" : 				{
					"maxclass" : "newobj",
					"varname" : "jcom.hub",
					"text" : "jcom.hub jmod.wacom @size 1U-half @module_type control @description \"Use Wacom graphic tablets\"",
					"linecount" : 2,
					"patching_rect" : [ 16.0, 94.0, 265.0, 28.0 ],
					"fontname" : "Verdana",
					"hidden" : 1,
					"id" : "obj-21",
					"numinlets" : 1,
					"numoutlets" : 2,
					"fontsize" : 9.0,
					"outlettype" : [ "", "" ]
				}

			}
, 			{
				"box" : 				{
					"maxclass" : "inlet",
					"patching_rect" : [ 16.0, 70.0, 13.0, 13.0 ],
					"hidden" : 1,
					"id" : "obj-22",
					"numinlets" : 0,
					"numoutlets" : 1,
					"outlettype" : [ "" ],
					"comment" : ""
				}

			}
, 			{
				"box" : 				{
					"maxclass" : "outlet",
					"patching_rect" : [ 16.0, 132.0, 13.0, 13.0 ],
					"hidden" : 1,
					"id" : "obj-23",
					"numinlets" : 1,
					"numoutlets" : 0,
					"comment" : ""
				}

			}
, 			{
				"box" : 				{
					"maxclass" : "message",
					"text" : "\/menu 0",
					"patching_rect" : [ 281.0, 223.0, 153.0, 15.0 ],
					"fontname" : "Verdana",
					"hidden" : 1,
					"id" : "obj-24",
					"numinlets" : 2,
					"numoutlets" : 1,
					"fontsize" : 9.0,
					"outlettype" : [ "" ]
				}

			}
, 			{
				"box" : 				{
					"maxclass" : "newobj",
					"text" : "prepend set",
					"patching_rect" : [ 281.0, 201.0, 61.0, 17.0 ],
					"fontname" : "Verdana",
					"hidden" : 1,
					"id" : "obj-25",
					"numinlets" : 1,
					"numoutlets" : 1,
					"fontsize" : 9.0,
					"outlettype" : [ "" ]
				}

			}
, 			{
				"box" : 				{
					"maxclass" : "jcom.ui",
					"text" : "\/Jamoma",
					"color" : [ 1.0, 1.0, 1.0, 1.0 ],
					"id" : "obj-26",
					"numinlets" : 1,
					"textcolor" : [ 0.65, 0.65, 0.65, 1.0 ],
					"numoutlets" : 1,
					"outlettype" : [ "" ]
				}

			}
 ],
		"lines" : [ 			{
				"patchline" : 				{
					"source" : [ "obj-17", 0 ],
					"destination" : [ "obj-21", 0 ],
					"hidden" : 1,
					"midpoints" : [ 47.5, 88.0, 25.5, 88.0 ]
				}

			}
, 			{
				"patchline" : 				{
					"source" : [ "obj-22", 0 ],
					"destination" : [ "obj-21", 0 ],
					"hidden" : 1
				}

			}
, 			{
				"patchline" : 				{
					"source" : [ "obj-21", 0 ],
					"destination" : [ "obj-23", 0 ],
					"hidden" : 1
				}

			}
, 			{
				"patchline" : 				{
					"source" : [ "obj-1", 0 ],
					"destination" : [ "obj-16", 0 ],
					"hidden" : 1
				}

			}
, 			{
				"patchline" : 				{
					"source" : [ "obj-16", 0 ],
					"destination" : [ "obj-15", 0 ],
					"hidden" : 1
				}

			}
, 			{
				"patchline" : 				{
					"source" : [ "obj-16", 1 ],
					"destination" : [ "obj-20", 0 ],
					"hidden" : 1,
					"midpoints" : [ 256.5, 192.0, 184.5, 192.0 ]
				}

			}
, 			{
				"patchline" : 				{
					"source" : [ "obj-15", 0 ],
					"destination" : [ "obj-20", 0 ],
					"hidden" : 1
				}

			}
, 			{
				"patchline" : 				{
					"source" : [ "obj-16", 1 ],
					"destination" : [ "obj-25", 0 ],
					"hidden" : 1,
					"midpoints" : [ 256.5, 192.0, 290.5, 192.0 ]
				}

			}
, 			{
				"patchline" : 				{
					"source" : [ "obj-25", 0 ],
					"destination" : [ "obj-24", 0 ],
					"hidden" : 1
				}

			}
, 			{
				"patchline" : 				{
					"source" : [ "obj-10", 0 ],
					"destination" : [ "obj-9", 0 ],
					"hidden" : 1,
					"midpoints" : [ 504.5, 101.0, 488.0, 101.0, 488.0, 41.0, 504.5, 41.0 ]
				}

			}
, 			{
				"patchline" : 				{
					"source" : [ "obj-9", 0 ],
					"destination" : [ "obj-10", 0 ],
					"hidden" : 1
				}

			}
, 			{
				"patchline" : 				{
					"source" : [ "obj-4", 0 ],
					"destination" : [ "obj-3", 0 ],
					"hidden" : 1,
					"midpoints" : [ 504.5, 243.0, 488.0, 243.0, 488.0, 183.0, 504.5, 183.0 ]
				}

			}
, 			{
				"patchline" : 				{
					"source" : [ "obj-3", 0 ],
					"destination" : [ "obj-4", 0 ],
					"hidden" : 1
				}

			}
, 			{
				"patchline" : 				{
					"source" : [ "obj-14", 0 ],
					"destination" : [ "obj-13", 0 ],
					"hidden" : 1,
					"midpoints" : [ 505.5, 338.0, 489.0, 338.0, 489.0, 278.0, 505.5, 278.0 ]
				}

			}
, 			{
				"patchline" : 				{
					"source" : [ "obj-20", 1 ],
					"destination" : [ "obj-13", 0 ],
					"hidden" : 1,
					"midpoints" : [ 269.5, 273.0, 505.5, 273.0 ]
				}

			}
, 			{
				"patchline" : 				{
					"source" : [ "obj-13", 0 ],
					"destination" : [ "obj-14", 0 ],
					"hidden" : 1
				}

			}
, 			{
				"patchline" : 				{
					"source" : [ "obj-7", 0 ],
					"destination" : [ "obj-8", 0 ],
					"hidden" : 1
				}

			}
 ]
	}

}
