max v2;#N vpatcher 276 67 1280 614;#P window setfont "Sans Serif" 9.;#P window linecount 1;#P hidden message 112 85 191 196617 /preset/store 1 default \, /preset/write;#B color 3;#P hidden message 120 107 125 196617 /documentation/generate;#B color 3;#P hidden message 251 107 31 196617 /init;#P hidden newex 255 389 49 196617 jcom.out;#P hidden newex 255 211 43 196617 jcom.in;#P hidden newex 255 233 84 196617 jcom.pass open;#P hidden newex 255 258 47 196617 pcontrol;#P hidden message 345 254 20 196617 \$2;#P hidden newex 345 233 72 196617 route mute;#P hidden newex 345 273 38 196617 mute~;#P comment 4 42 238 196617 Voices are only updated when audio is off.;#B frgb 172 172 172;#P window linecount 2;#P hidden newex 556 80 331 196617 jcom.parameter mute @type msg_toggle @description "When active\\\, this attribute turns off the module's processing algorithm to save CPU";#P objectname pattr_mute;#P window linecount 1;#P hidden newex 556 58 56 196617 pvar Mute;#P objectname jcom.parameter;#P user pictctrl 238 4 11 11 jcom.button.mute.pct 0 0 1 1 26 0 0 0 11 11 128 0 1 10 2 1 1 270;#P objectname Mute;#P hidden outlet 468 392 13 0;#P hidden inlet 468 327 13 0;#P window linecount 2;#P hidden newex 556 217 326 196617 jcom.message aed @type msg_list @description "List describing index (counting from 1)\\\, azimuth\\\, elevation\\\, distance for one speaker.";#P window linecount 1;#P comment 4 22 41 196617 Voices;#B frgb 172 172 172;#P number 46 20 35 9 1 16 8227 3 198 198 198 221 221 221 222 222 222 0 0 0;#P objectname Voices;#P hidden newex 556 139 63 196617 pvar Voices;#P window linecount 3;#P hidden newex 556 164 348 196617 jcom.parameter voices @type msg_int @ramp 0 @repetitions 0 @range 1 16 @clipmode both @description "The number of audio channels that the ambisonic signal is diffused to. Changes only take effect when audio is off.";#P objectname jcom.parameter[2];#P window linecount 2;#P hidden message 25 485 65 196617 \; max refresh;#P window linecount 1;#P hidden comment 14 121 79 196617 command input;#P hidden inlet 0 121 13 0;#P window linecount 2;#P hidden message 25 453 72 196617 \; jmod.init bang;#P window linecount 1;#P hidden newex 345 357 133 196617 spat.jalg.sur.air~.mxt;#P hidden comment 420 311 155 196617 ----multicable signal input----;#P hidden outlet 0 237 13 0;#P hidden comment 485 392 146 196617 ---multicable signal output---;#P window linecount 3;#P hidden newex 0 140 295 196617 jcom.hub spat.jmod.sur.air~ @size 1U-half @module_type audio.no_panel @description "Filter voices depending on distance to simulate air absorption";#P objectname jalg.hub;#P bpatcher 0 0 256 60 0 0 jcom.gui.mxt 0;#P objectname jmod.gui.1Uh.a.stereo.mxt;#P hidden connect 7 0 1 0;#P hidden fasten 30 0 1 0 117 136 5 136;#P hidden fasten 29 0 1 0 125 136 5 136;#P hidden fasten 28 0 1 0 256 136 5 136;#P hidden connect 1 0 3 0;#P hidden connect 26 0 25 0;#P hidden connect 25 0 24 0;#P hidden fasten 5 0 27 0 350 381 260 381;#P hidden connect 25 1 22 0;#P hidden connect 22 0 23 0;#P hidden connect 23 0 21 0;#P hidden fasten 22 1 5 0 412 293 350 293;#P hidden connect 21 0 5 0;#P hidden fasten 24 0 5 0 260 299 350 299;#P hidden connect 15 0 5 1;#P hidden connect 5 1 16 0;#P hidden fasten 19 0 18 0 561 113 550 113 550 53 561 53;#P hidden connect 18 0 19 0;#P hidden fasten 10 0 11 0 561 209 551 209 551 132 561 132;#P hidden connect 11 0 10 0;#P pop;