{
	"patcher" : 	{
		"fileversion" : 1,
		"rect" : [ 18.0, 59.0, 684.0, 737.0 ],
		"bglocked" : 0,
		"defrect" : [ 18.0, 59.0, 684.0, 737.0 ],
		"openrect" : [ 0.0, 0.0, 0.0, 0.0 ],
		"openinpresentation" : 0,
		"default_fontsize" : 10.0,
		"default_fontface" : 0,
		"default_fontname" : "Verdana",
		"gridonopen" : 0,
		"gridsize" : [ 5.0, 5.0 ],
		"gridsnaponopen" : 0,
		"toolbarvisible" : 1,
		"boxanimatetime" : 200,
		"imprint" : 0,
		"metadata" : [  ],
		"boxes" : [ 			{
				"box" : 				{
					"maxclass" : "message",
					"text" : "0.3 0.5",
					"id" : "obj-41",
					"fontname" : "Verdana",
					"presentation_rect" : [ 342.0, 386.0, 0.0, 0.0 ],
					"numinlets" : 2,
					"numoutlets" : 1,
					"patching_rect" : [ 340.0, 385.0, 73.0, 17.0 ],
					"fontsize" : 10.0,
					"outlettype" : [ "" ]
				}

			}
, 			{
				"box" : 				{
					"maxclass" : "message",
					"text" : "0.001296",
					"id" : "obj-40",
					"fontname" : "Verdana",
					"presentation_rect" : [ 330.0, 410.0, 0.0, 0.0 ],
					"numinlets" : 2,
					"numoutlets" : 1,
					"patching_rect" : [ 330.0, 410.0, 73.0, 17.0 ],
					"fontsize" : 10.0,
					"outlettype" : [ "" ]
				}

			}
, 			{
				"box" : 				{
					"maxclass" : "message",
					"text" : "0.978102 0.207177 0.018851 0.005545 0.002424 0.001296",
					"linecount" : 6,
					"id" : "obj-39",
					"fontname" : "Verdana",
					"presentation_rect" : [ 328.0, 452.0, 0.0, 0.0 ],
					"numinlets" : 2,
					"numoutlets" : 1,
					"patching_rect" : [ 330.0, 450.0, 73.0, 77.0 ],
					"fontsize" : 10.0,
					"outlettype" : [ "" ]
				}

			}
, 			{
				"box" : 				{
					"maxclass" : "message",
					"text" : "0.956684 0.042922 0.000355 0.000031 0.000006 0.000002",
					"linecount" : 6,
					"id" : "obj-38",
					"fontname" : "Verdana",
					"numinlets" : 2,
					"numoutlets" : 1,
					"patching_rect" : [ 265.0, 495.0, 73.0, 77.0 ],
					"fontsize" : 10.0,
					"outlettype" : [ "" ]
				}

			}
, 			{
				"box" : 				{
					"maxclass" : "button",
					"id" : "obj-36",
					"numinlets" : 1,
					"numoutlets" : 1,
					"patching_rect" : [ 150.0, 430.0, 20.0, 20.0 ],
					"outlettype" : [ "bang" ]
				}

			}
, 			{
				"box" : 				{
					"maxclass" : "flonum",
					"id" : "obj-33",
					"fontname" : "Verdana",
					"numinlets" : 1,
					"numoutlets" : 2,
					"patching_rect" : [ 205.0, 545.0, 50.0, 19.0 ],
					"fontsize" : 10.0,
					"outlettype" : [ "float", "bang" ]
				}

			}
, 			{
				"box" : 				{
					"maxclass" : "newobj",
					"text" : "Lsum",
					"id" : "obj-31",
					"fontname" : "Verdana",
					"numinlets" : 1,
					"numoutlets" : 1,
					"patching_rect" : [ 205.0, 495.0, 37.0, 19.0 ],
					"fontsize" : 10.0,
					"outlettype" : [ "" ]
				}

			}
, 			{
				"box" : 				{
					"maxclass" : "newobj",
					"text" : "vexpr $f1*$f1",
					"id" : "obj-30",
					"fontname" : "Verdana",
					"numinlets" : 1,
					"numoutlets" : 1,
					"patching_rect" : [ 215.0, 450.0, 81.0, 19.0 ],
					"fontsize" : 10.0,
					"outlettype" : [ "" ]
				}

			}
, 			{
				"box" : 				{
					"maxclass" : "newobj",
					"text" : "t b",
					"id" : "obj-29",
					"fontname" : "Verdana",
					"numinlets" : 1,
					"numoutlets" : 1,
					"patching_rect" : [ 170.0, 375.0, 24.0, 19.0 ],
					"fontsize" : 10.0,
					"outlettype" : [ "bang" ]
				}

			}
, 			{
				"box" : 				{
					"maxclass" : "newobj",
					"text" : "zl group",
					"id" : "obj-28",
					"fontname" : "Verdana",
					"numinlets" : 2,
					"numoutlets" : 2,
					"patching_rect" : [ 215.0, 415.0, 51.0, 19.0 ],
					"fontsize" : 10.0,
					"outlettype" : [ "", "" ]
				}

			}
, 			{
				"box" : 				{
					"maxclass" : "newobj",
					"text" : "zl slice 2",
					"id" : "obj-26",
					"fontname" : "Verdana",
					"numinlets" : 2,
					"numoutlets" : 2,
					"patching_rect" : [ 255.0, 380.0, 54.0, 19.0 ],
					"fontsize" : 10.0,
					"outlettype" : [ "", "" ]
				}

			}
, 			{
				"box" : 				{
					"maxclass" : "message",
					"text" : "src_position 4 0.3 0.5",
					"id" : "obj-27",
					"fontname" : "Verdana",
					"numinlets" : 2,
					"numoutlets" : 1,
					"patching_rect" : [ 195.0, 35.0, 120.0, 17.0 ],
					"fontsize" : 10.0,
					"outlettype" : [ "" ]
				}

			}
, 			{
				"box" : 				{
					"maxclass" : "newobj",
					"text" : "makenote",
					"id" : "obj-25",
					"fontname" : "Verdana",
					"numinlets" : 3,
					"numoutlets" : 2,
					"patching_rect" : [ 130.0, 60.0, 60.0, 19.0 ],
					"fontsize" : 10.0,
					"outlettype" : [ "int", "int" ]
				}

			}
, 			{
				"box" : 				{
					"maxclass" : "newobj",
					"text" : "print left",
					"id" : "obj-23",
					"fontname" : "Verdana",
					"numinlets" : 1,
					"numoutlets" : 0,
					"patching_rect" : [ 185.0, 325.0, 54.0, 19.0 ],
					"fontsize" : 10.0
				}

			}
, 			{
				"box" : 				{
					"maxclass" : "button",
					"id" : "obj-24",
					"numinlets" : 1,
					"numoutlets" : 1,
					"patching_rect" : [ 70.0, 85.0, 20.0, 20.0 ],
					"outlettype" : [ "bang" ]
				}

			}
, 			{
				"box" : 				{
					"maxclass" : "newobj",
					"text" : "prepend dst_position",
					"id" : "obj-22",
					"fontname" : "Verdana",
					"numinlets" : 1,
					"numoutlets" : 1,
					"patching_rect" : [ 50.0, 275.0, 116.0, 19.0 ],
					"fontsize" : 10.0,
					"outlettype" : [ "" ]
				}

			}
, 			{
				"box" : 				{
					"maxclass" : "newobj",
					"text" : "pack 0 0. 0. 0.",
					"id" : "obj-21",
					"fontname" : "Verdana",
					"numinlets" : 4,
					"numoutlets" : 1,
					"patching_rect" : [ 50.0, 250.0, 84.0, 19.0 ],
					"fontsize" : 10.0,
					"outlettype" : [ "" ]
				}

			}
, 			{
				"box" : 				{
					"maxclass" : "newobj",
					"text" : "* 1.3",
					"id" : "obj-20",
					"fontname" : "Verdana",
					"numinlets" : 2,
					"numoutlets" : 1,
					"patching_rect" : [ 160.0, 210.0, 37.0, 19.0 ],
					"fontsize" : 10.0,
					"outlettype" : [ "float" ]
				}

			}
, 			{
				"box" : 				{
					"maxclass" : "newobj",
					"text" : "* 1.2",
					"id" : "obj-19",
					"fontname" : "Verdana",
					"numinlets" : 2,
					"numoutlets" : 1,
					"patching_rect" : [ 120.0, 210.0, 37.0, 19.0 ],
					"fontsize" : 10.0,
					"outlettype" : [ "float" ]
				}

			}
, 			{
				"box" : 				{
					"maxclass" : "newobj",
					"text" : "* 1.1",
					"id" : "obj-18",
					"fontname" : "Verdana",
					"numinlets" : 2,
					"numoutlets" : 1,
					"patching_rect" : [ 80.0, 210.0, 37.0, 19.0 ],
					"fontsize" : 10.0,
					"outlettype" : [ "float" ]
				}

			}
, 			{
				"box" : 				{
					"maxclass" : "newobj",
					"text" : "uzi 6 0",
					"id" : "obj-7",
					"fontname" : "Verdana",
					"numinlets" : 2,
					"numoutlets" : 3,
					"patching_rect" : [ 65.0, 125.0, 46.0, 19.0 ],
					"fontsize" : 10.0,
					"outlettype" : [ "bang", "bang", "int" ]
				}

			}
, 			{
				"box" : 				{
					"maxclass" : "message",
					"text" : "info",
					"id" : "obj-5",
					"fontname" : "Verdana",
					"numinlets" : 2,
					"numoutlets" : 1,
					"patching_rect" : [ 200.0, 180.0, 32.5, 17.0 ],
					"fontsize" : 10.0,
					"outlettype" : [ "" ]
				}

			}
, 			{
				"box" : 				{
					"maxclass" : "newobj",
					"text" : "print",
					"id" : "obj-3",
					"fontname" : "Verdana",
					"numinlets" : 1,
					"numoutlets" : 0,
					"patching_rect" : [ 415.0, 240.0, 34.0, 19.0 ],
					"fontsize" : 10.0
				}

			}
, 			{
				"box" : 				{
					"maxclass" : "message",
					"text" : "getrolloff",
					"id" : "obj-17",
					"fontname" : "Verdana",
					"numinlets" : 2,
					"numoutlets" : 1,
					"patching_rect" : [ 560.0, 180.0, 56.0, 17.0 ],
					"fontsize" : 10.0,
					"outlettype" : [ "" ]
				}

			}
, 			{
				"box" : 				{
					"maxclass" : "flonum",
					"id" : "obj-16",
					"fontname" : "Verdana",
					"numinlets" : 1,
					"numoutlets" : 2,
					"patching_rect" : [ 565.0, 95.0, 50.0, 19.0 ],
					"fontsize" : 10.0,
					"outlettype" : [ "float", "bang" ]
				}

			}
, 			{
				"box" : 				{
					"maxclass" : "number",
					"id" : "obj-15",
					"fontname" : "Verdana",
					"numinlets" : 1,
					"numoutlets" : 2,
					"patching_rect" : [ 435.0, 80.0, 50.0, 19.0 ],
					"fontsize" : 10.0,
					"outlettype" : [ "int", "bang" ]
				}

			}
, 			{
				"box" : 				{
					"maxclass" : "message",
					"text" : "rolloff $1",
					"id" : "obj-14",
					"fontname" : "Verdana",
					"numinlets" : 2,
					"numoutlets" : 1,
					"patching_rect" : [ 555.0, 155.0, 54.0, 17.0 ],
					"fontsize" : 10.0,
					"outlettype" : [ "" ]
				}

			}
, 			{
				"box" : 				{
					"maxclass" : "message",
					"text" : "num_destinations $1",
					"id" : "obj-13",
					"fontname" : "Verdana",
					"numinlets" : 2,
					"numoutlets" : 1,
					"patching_rect" : [ 435.0, 135.0, 114.0, 17.0 ],
					"fontsize" : 10.0,
					"outlettype" : [ "" ]
				}

			}
, 			{
				"box" : 				{
					"maxclass" : "message",
					"text" : "getdimensions",
					"id" : "obj-12",
					"fontname" : "Verdana",
					"numinlets" : 2,
					"numoutlets" : 1,
					"patching_rect" : [ 450.0, 155.0, 83.0, 17.0 ],
					"fontsize" : 10.0,
					"outlettype" : [ "" ]
				}

			}
, 			{
				"box" : 				{
					"maxclass" : "message",
					"text" : "getdimensions",
					"id" : "obj-10",
					"fontname" : "Verdana",
					"numinlets" : 2,
					"numoutlets" : 1,
					"patching_rect" : [ 340.0, 105.0, 83.0, 17.0 ],
					"fontsize" : 10.0,
					"outlettype" : [ "" ]
				}

			}
, 			{
				"box" : 				{
					"maxclass" : "number",
					"id" : "obj-11",
					"fontname" : "Verdana",
					"numinlets" : 1,
					"numoutlets" : 2,
					"patching_rect" : [ 315.0, 80.0, 50.0, 19.0 ],
					"fontsize" : 10.0,
					"outlettype" : [ "int", "bang" ]
				}

			}
, 			{
				"box" : 				{
					"maxclass" : "flonum",
					"id" : "obj-8",
					"fontname" : "Verdana",
					"numinlets" : 1,
					"numoutlets" : 2,
					"patching_rect" : [ 240.0, 85.0, 50.0, 19.0 ],
					"fontsize" : 10.0,
					"outlettype" : [ "float", "bang" ]
				}

			}
, 			{
				"box" : 				{
					"maxclass" : "message",
					"text" : "dst_position 5 5.5 6. 6.5",
					"id" : "obj-4",
					"fontname" : "Verdana",
					"numinlets" : 2,
					"numoutlets" : 1,
					"patching_rect" : [ 350.0, 310.0, 164.0, 17.0 ],
					"fontsize" : 10.0,
					"outlettype" : [ "" ]
				}

			}
, 			{
				"box" : 				{
					"maxclass" : "newobj",
					"text" : "jcom.dbap",
					"id" : "obj-1",
					"fontname" : "Verdana",
					"numinlets" : 1,
					"numoutlets" : 2,
					"patching_rect" : [ 300.0, 210.0, 63.0, 19.0 ],
					"fontsize" : 10.0,
					"outlettype" : [ "", "" ]
				}

			}
, 			{
				"box" : 				{
					"maxclass" : "message",
					"text" : "getblur",
					"id" : "obj-2",
					"fontname" : "Verdana",
					"numinlets" : 2,
					"numoutlets" : 1,
					"patching_rect" : [ 275.0, 140.0, 46.0, 17.0 ],
					"fontsize" : 10.0,
					"outlettype" : [ "" ]
				}

			}
, 			{
				"box" : 				{
					"maxclass" : "message",
					"text" : "blur $1",
					"id" : "obj-6",
					"fontname" : "Verdana",
					"numinlets" : 2,
					"numoutlets" : 1,
					"patching_rect" : [ 240.0, 120.0, 50.0, 17.0 ],
					"fontsize" : 10.0,
					"outlettype" : [ "" ]
				}

			}
, 			{
				"box" : 				{
					"maxclass" : "message",
					"text" : "dimensions $1",
					"id" : "obj-9",
					"fontname" : "Verdana",
					"numinlets" : 2,
					"numoutlets" : 1,
					"patching_rect" : [ 315.0, 120.0, 81.0, 17.0 ],
					"fontsize" : 10.0,
					"outlettype" : [ "" ]
				}

			}
 ],
		"lines" : [ 			{
				"patchline" : 				{
					"source" : [ "obj-26", 1 ],
					"destination" : [ "obj-40", 1 ],
					"hidden" : 0,
					"midpoints" : [  ]
				}

			}
, 			{
				"patchline" : 				{
					"source" : [ "obj-28", 0 ],
					"destination" : [ "obj-39", 1 ],
					"hidden" : 0,
					"midpoints" : [  ]
				}

			}
, 			{
				"patchline" : 				{
					"source" : [ "obj-30", 0 ],
					"destination" : [ "obj-38", 1 ],
					"hidden" : 0,
					"midpoints" : [  ]
				}

			}
, 			{
				"patchline" : 				{
					"source" : [ "obj-30", 0 ],
					"destination" : [ "obj-36", 0 ],
					"hidden" : 0,
					"midpoints" : [  ]
				}

			}
, 			{
				"patchline" : 				{
					"source" : [ "obj-26", 1 ],
					"destination" : [ "obj-28", 0 ],
					"hidden" : 0,
					"midpoints" : [  ]
				}

			}
, 			{
				"patchline" : 				{
					"source" : [ "obj-31", 0 ],
					"destination" : [ "obj-33", 0 ],
					"hidden" : 0,
					"midpoints" : [  ]
				}

			}
, 			{
				"patchline" : 				{
					"source" : [ "obj-30", 0 ],
					"destination" : [ "obj-31", 0 ],
					"hidden" : 0,
					"midpoints" : [  ]
				}

			}
, 			{
				"patchline" : 				{
					"source" : [ "obj-28", 0 ],
					"destination" : [ "obj-30", 0 ],
					"hidden" : 0,
					"midpoints" : [  ]
				}

			}
, 			{
				"patchline" : 				{
					"source" : [ "obj-27", 0 ],
					"destination" : [ "obj-29", 0 ],
					"hidden" : 0,
					"midpoints" : [  ]
				}

			}
, 			{
				"patchline" : 				{
					"source" : [ "obj-29", 0 ],
					"destination" : [ "obj-28", 0 ],
					"hidden" : 0,
					"midpoints" : [  ]
				}

			}
, 			{
				"patchline" : 				{
					"source" : [ "obj-1", 0 ],
					"destination" : [ "obj-26", 0 ],
					"hidden" : 0,
					"midpoints" : [  ]
				}

			}
, 			{
				"patchline" : 				{
					"source" : [ "obj-21", 0 ],
					"destination" : [ "obj-22", 0 ],
					"hidden" : 0,
					"midpoints" : [  ]
				}

			}
, 			{
				"patchline" : 				{
					"source" : [ "obj-22", 0 ],
					"destination" : [ "obj-1", 0 ],
					"hidden" : 0,
					"midpoints" : [  ]
				}

			}
, 			{
				"patchline" : 				{
					"source" : [ "obj-24", 0 ],
					"destination" : [ "obj-7", 0 ],
					"hidden" : 0,
					"midpoints" : [  ]
				}

			}
, 			{
				"patchline" : 				{
					"source" : [ "obj-20", 0 ],
					"destination" : [ "obj-21", 3 ],
					"hidden" : 0,
					"midpoints" : [  ]
				}

			}
, 			{
				"patchline" : 				{
					"source" : [ "obj-19", 0 ],
					"destination" : [ "obj-21", 2 ],
					"hidden" : 0,
					"midpoints" : [  ]
				}

			}
, 			{
				"patchline" : 				{
					"source" : [ "obj-18", 0 ],
					"destination" : [ "obj-21", 1 ],
					"hidden" : 0,
					"midpoints" : [  ]
				}

			}
, 			{
				"patchline" : 				{
					"source" : [ "obj-7", 2 ],
					"destination" : [ "obj-21", 0 ],
					"hidden" : 0,
					"midpoints" : [  ]
				}

			}
, 			{
				"patchline" : 				{
					"source" : [ "obj-7", 2 ],
					"destination" : [ "obj-20", 0 ],
					"hidden" : 0,
					"midpoints" : [  ]
				}

			}
, 			{
				"patchline" : 				{
					"source" : [ "obj-7", 2 ],
					"destination" : [ "obj-19", 0 ],
					"hidden" : 0,
					"midpoints" : [  ]
				}

			}
, 			{
				"patchline" : 				{
					"source" : [ "obj-7", 2 ],
					"destination" : [ "obj-18", 0 ],
					"hidden" : 0,
					"midpoints" : [  ]
				}

			}
, 			{
				"patchline" : 				{
					"source" : [ "obj-5", 0 ],
					"destination" : [ "obj-1", 0 ],
					"hidden" : 0,
					"midpoints" : [  ]
				}

			}
, 			{
				"patchline" : 				{
					"source" : [ "obj-1", 1 ],
					"destination" : [ "obj-3", 0 ],
					"hidden" : 0,
					"midpoints" : [  ]
				}

			}
, 			{
				"patchline" : 				{
					"source" : [ "obj-2", 0 ],
					"destination" : [ "obj-1", 0 ],
					"hidden" : 0,
					"midpoints" : [  ]
				}

			}
, 			{
				"patchline" : 				{
					"source" : [ "obj-6", 0 ],
					"destination" : [ "obj-1", 0 ],
					"hidden" : 0,
					"midpoints" : [  ]
				}

			}
, 			{
				"patchline" : 				{
					"source" : [ "obj-8", 0 ],
					"destination" : [ "obj-6", 0 ],
					"hidden" : 0,
					"midpoints" : [  ]
				}

			}
, 			{
				"patchline" : 				{
					"source" : [ "obj-9", 0 ],
					"destination" : [ "obj-1", 0 ],
					"hidden" : 0,
					"midpoints" : [  ]
				}

			}
, 			{
				"patchline" : 				{
					"source" : [ "obj-11", 0 ],
					"destination" : [ "obj-9", 0 ],
					"hidden" : 0,
					"midpoints" : [  ]
				}

			}
, 			{
				"patchline" : 				{
					"source" : [ "obj-1", 1 ],
					"destination" : [ "obj-4", 1 ],
					"hidden" : 0,
					"midpoints" : [  ]
				}

			}
, 			{
				"patchline" : 				{
					"source" : [ "obj-10", 0 ],
					"destination" : [ "obj-1", 0 ],
					"hidden" : 0,
					"midpoints" : [  ]
				}

			}
, 			{
				"patchline" : 				{
					"source" : [ "obj-15", 0 ],
					"destination" : [ "obj-13", 0 ],
					"hidden" : 0,
					"midpoints" : [  ]
				}

			}
, 			{
				"patchline" : 				{
					"source" : [ "obj-13", 0 ],
					"destination" : [ "obj-1", 0 ],
					"hidden" : 0,
					"midpoints" : [  ]
				}

			}
, 			{
				"patchline" : 				{
					"source" : [ "obj-16", 0 ],
					"destination" : [ "obj-14", 0 ],
					"hidden" : 0,
					"midpoints" : [  ]
				}

			}
, 			{
				"patchline" : 				{
					"source" : [ "obj-14", 0 ],
					"destination" : [ "obj-1", 0 ],
					"hidden" : 0,
					"midpoints" : [  ]
				}

			}
, 			{
				"patchline" : 				{
					"source" : [ "obj-17", 0 ],
					"destination" : [ "obj-1", 0 ],
					"hidden" : 0,
					"midpoints" : [  ]
				}

			}
, 			{
				"patchline" : 				{
					"source" : [ "obj-12", 0 ],
					"destination" : [ "obj-1", 0 ],
					"hidden" : 0,
					"midpoints" : [  ]
				}

			}
, 			{
				"patchline" : 				{
					"source" : [ "obj-1", 0 ],
					"destination" : [ "obj-23", 0 ],
					"hidden" : 0,
					"midpoints" : [  ]
				}

			}
, 			{
				"patchline" : 				{
					"source" : [ "obj-27", 0 ],
					"destination" : [ "obj-1", 0 ],
					"hidden" : 0,
					"midpoints" : [  ]
				}

			}
 ]
	}

}
