{
	"patcher" : 	{
		"fileversion" : 1,
		"rect" : [ 25.0, 69.0, 691.0, 373.0 ],
		"bglocked" : 0,
		"defrect" : [ 25.0, 69.0, 691.0, 373.0 ],
		"openrect" : [ 0.0, 0.0, 0.0, 0.0 ],
		"openinpresentation" : 0,
		"default_fontsize" : 10.0,
		"default_fontface" : 0,
		"default_fontname" : "Verdana",
		"gridonopen" : 0,
		"gridsize" : [ 5.0, 5.0 ],
		"gridsnaponopen" : 0,
		"toolbarvisible" : 1,
		"boxanimatetime" : 200,
		"imprint" : 0,
		"metadata" : [  ],
		"boxes" : [ 			{
				"box" : 				{
					"maxclass" : "newobj",
					"text" : "loadbang",
					"numoutlets" : 1,
					"id" : "obj-1",
					"outlettype" : [ "bang" ],
					"fontname" : "Verdana",
					"patching_rect" : [ 75.0, 110.0, 56.0, 19.0 ],
					"fontsize" : 10.0,
					"numinlets" : 1
				}

			}
, 			{
				"box" : 				{
					"maxclass" : "newobj",
					"text" : "p osc_messages_with_instances",
					"numoutlets" : 0,
					"id" : "obj-6",
					"fontname" : "Verdana",
					"patching_rect" : [ 75.0, 215.0, 173.0, 19.0 ],
					"fontsize" : 10.0,
					"numinlets" : 1,
					"patcher" : 					{
						"fileversion" : 1,
						"rect" : [ 50.0, 94.0, 1310.0, 730.0 ],
						"bglocked" : 0,
						"defrect" : [ 50.0, 94.0, 1310.0, 730.0 ],
						"openrect" : [ 0.0, 0.0, 0.0, 0.0 ],
						"openinpresentation" : 0,
						"default_fontsize" : 10.0,
						"default_fontface" : 0,
						"default_fontname" : "Verdana",
						"gridonopen" : 0,
						"gridsize" : [ 5.0, 5.0 ],
						"gridsnaponopen" : 0,
						"toolbarvisible" : 1,
						"boxanimatetime" : 200,
						"imprint" : 0,
						"metadata" : [  ],
						"boxes" : [ 							{
								"box" : 								{
									"maxclass" : "comment",
									"text" : "not yet coping with 2nd outlet...",
									"numoutlets" : 0,
									"frgb" : [ 0.0, 0.0, 0.0, 1.0 ],
									"id" : "obj-8",
									"fontname" : "Verdana",
									"patching_rect" : [ 260.0, 375.0, 173.0, 19.0 ],
									"fontsize" : 10.0,
									"numinlets" : 1
								}

							}
, 							{
								"box" : 								{
									"maxclass" : "message",
									"text" : "/channel.left 1. 1. 2.",
									"numoutlets" : 1,
									"id" : "obj-17",
									"outlettype" : [ "" ],
									"fontname" : "Verdana",
									"patching_rect" : [ 665.0, 180.0, 114.0, 17.0 ],
									"fontsize" : 10.0,
									"numinlets" : 2
								}

							}
, 							{
								"box" : 								{
									"maxclass" : "newobj",
									"text" : "zl reg",
									"numoutlets" : 2,
									"id" : "obj-18",
									"outlettype" : [ "", "" ],
									"fontname" : "Verdana",
									"patching_rect" : [ 600.0, 235.0, 38.0, 19.0 ],
									"fontsize" : 10.0,
									"numinlets" : 2
								}

							}
, 							{
								"box" : 								{
									"maxclass" : "newobj",
									"text" : "t b b 0.",
									"numoutlets" : 3,
									"id" : "obj-19",
									"outlettype" : [ "bang", "bang", "float" ],
									"fontname" : "Verdana",
									"patching_rect" : [ 600.0, 145.0, 47.0, 19.0 ],
									"fontsize" : 10.0,
									"numinlets" : 1
								}

							}
, 							{
								"box" : 								{
									"maxclass" : "newobj",
									"text" : "jcom.oscinstance",
									"numoutlets" : 3,
									"id" : "obj-20",
									"outlettype" : [ "", "", "" ],
									"fontname" : "Verdana",
									"patching_rect" : [ 665.0, 200.0, 97.0, 19.0 ],
									"fontsize" : 10.0,
									"numinlets" : 1
								}

							}
, 							{
								"box" : 								{
									"maxclass" : "newobj",
									"text" : "jcom.test.assert.equal TESTosc_symbol_instance_no_subbranch /channel 1. 1. 2.",
									"linecount" : 3,
									"numoutlets" : 0,
									"id" : "obj-21",
									"fontname" : "Verdana",
									"patching_rect" : [ 600.0, 265.0, 220.0, 43.0 ],
									"fontsize" : 10.0,
									"numinlets" : 2
								}

							}
, 							{
								"box" : 								{
									"maxclass" : "message",
									"text" : "/source.7 1. 1. 2.",
									"numoutlets" : 1,
									"id" : "obj-10",
									"outlettype" : [ "" ],
									"fontname" : "Verdana",
									"patching_rect" : [ 230.0, 180.0, 99.0, 17.0 ],
									"fontsize" : 10.0,
									"numinlets" : 2
								}

							}
, 							{
								"box" : 								{
									"maxclass" : "newobj",
									"text" : "zl reg",
									"numoutlets" : 2,
									"id" : "obj-11",
									"outlettype" : [ "", "" ],
									"fontname" : "Verdana",
									"patching_rect" : [ 165.0, 235.0, 38.0, 19.0 ],
									"fontsize" : 10.0,
									"numinlets" : 2
								}

							}
, 							{
								"box" : 								{
									"maxclass" : "newobj",
									"text" : "t b b 0.",
									"numoutlets" : 3,
									"id" : "obj-12",
									"outlettype" : [ "bang", "bang", "float" ],
									"fontname" : "Verdana",
									"patching_rect" : [ 165.0, 145.0, 47.0, 19.0 ],
									"fontsize" : 10.0,
									"numinlets" : 1
								}

							}
, 							{
								"box" : 								{
									"maxclass" : "newobj",
									"text" : "jcom.oscinstance",
									"numoutlets" : 3,
									"id" : "obj-13",
									"outlettype" : [ "", "", "" ],
									"fontname" : "Verdana",
									"patching_rect" : [ 230.0, 200.0, 97.0, 19.0 ],
									"fontsize" : 10.0,
									"numinlets" : 1
								}

							}
, 							{
								"box" : 								{
									"maxclass" : "newobj",
									"text" : "jcom.test.assert.equal TESTosc_int_instance_no_subbranch /source 1. 1. 2.",
									"linecount" : 3,
									"numoutlets" : 0,
									"id" : "obj-15",
									"fontname" : "Verdana",
									"patching_rect" : [ 165.0, 265.0, 204.0, 43.0 ],
									"fontsize" : 10.0,
									"numinlets" : 2
								}

							}
, 							{
								"box" : 								{
									"maxclass" : "message",
									"text" : "/source.7/xyz 1. 1. 2.",
									"numoutlets" : 1,
									"id" : "obj-2",
									"outlettype" : [ "" ],
									"fontname" : "Verdana",
									"patching_rect" : [ 445.0, 180.0, 120.0, 17.0 ],
									"fontsize" : 10.0,
									"numinlets" : 2
								}

							}
, 							{
								"box" : 								{
									"maxclass" : "newobj",
									"text" : "zl reg",
									"numoutlets" : 2,
									"id" : "obj-3",
									"outlettype" : [ "", "" ],
									"fontname" : "Verdana",
									"patching_rect" : [ 380.0, 235.0, 38.0, 19.0 ],
									"fontsize" : 10.0,
									"numinlets" : 2
								}

							}
, 							{
								"box" : 								{
									"maxclass" : "newobj",
									"text" : "t b b 0.",
									"numoutlets" : 3,
									"id" : "obj-4",
									"outlettype" : [ "bang", "bang", "float" ],
									"fontname" : "Verdana",
									"patching_rect" : [ 380.0, 145.0, 47.0, 19.0 ],
									"fontsize" : 10.0,
									"numinlets" : 1
								}

							}
, 							{
								"box" : 								{
									"maxclass" : "newobj",
									"text" : "jcom.oscinstance",
									"numoutlets" : 3,
									"id" : "obj-5",
									"outlettype" : [ "", "", "" ],
									"fontname" : "Verdana",
									"patching_rect" : [ 445.0, 200.0, 97.0, 19.0 ],
									"fontsize" : 10.0,
									"numinlets" : 1
								}

							}
, 							{
								"box" : 								{
									"maxclass" : "newobj",
									"text" : "jcom.test.assert.equal TESTosc_int_instance_and_subbranch /source/xyz 1. 1. 2.",
									"linecount" : 3,
									"numoutlets" : 0,
									"id" : "obj-6",
									"fontname" : "Verdana",
									"patching_rect" : [ 380.0, 265.0, 209.0, 43.0 ],
									"fontsize" : 10.0,
									"numinlets" : 2
								}

							}
, 							{
								"box" : 								{
									"maxclass" : "newobj",
									"text" : "t b",
									"numoutlets" : 1,
									"id" : "obj-56",
									"outlettype" : [ "bang" ],
									"fontname" : "Verdana",
									"patching_rect" : [ 50.0, 100.0, 24.0, 19.0 ],
									"fontsize" : 10.0,
									"numinlets" : 1
								}

							}
, 							{
								"box" : 								{
									"maxclass" : "message",
									"text" : "/dot.then/slash 1 2 3",
									"numoutlets" : 1,
									"id" : "obj-50",
									"outlettype" : [ "" ],
									"fontname" : "Verdana",
									"patching_rect" : [ 895.0, 180.0, 117.0, 17.0 ],
									"fontsize" : 10.0,
									"numinlets" : 2
								}

							}
, 							{
								"box" : 								{
									"maxclass" : "newobj",
									"text" : "zl reg",
									"numoutlets" : 2,
									"id" : "obj-51",
									"outlettype" : [ "", "" ],
									"fontname" : "Verdana",
									"patching_rect" : [ 830.0, 235.0, 38.0, 19.0 ],
									"fontsize" : 10.0,
									"numinlets" : 2
								}

							}
, 							{
								"box" : 								{
									"maxclass" : "newobj",
									"text" : "t b b 0.",
									"numoutlets" : 3,
									"id" : "obj-52",
									"outlettype" : [ "bang", "bang", "float" ],
									"fontname" : "Verdana",
									"patching_rect" : [ 830.0, 145.0, 47.0, 19.0 ],
									"fontsize" : 10.0,
									"numinlets" : 1
								}

							}
, 							{
								"box" : 								{
									"maxclass" : "newobj",
									"text" : "jcom.oscinstance",
									"numoutlets" : 3,
									"id" : "obj-53",
									"outlettype" : [ "", "", "" ],
									"fontname" : "Verdana",
									"patching_rect" : [ 895.0, 200.0, 97.0, 19.0 ],
									"fontsize" : 10.0,
									"numinlets" : 1
								}

							}
, 							{
								"box" : 								{
									"maxclass" : "newobj",
									"text" : "jcom.test.assert.equal TESTosc_symbol_instance_and_subbranch /dot/slash 1 2 3",
									"linecount" : 3,
									"numoutlets" : 0,
									"id" : "obj-54",
									"fontname" : "Verdana",
									"patching_rect" : [ 830.0, 265.0, 222.0, 43.0 ],
									"fontsize" : 10.0,
									"numinlets" : 2
								}

							}
, 							{
								"box" : 								{
									"maxclass" : "message",
									"text" : "/slah/then.dot 1 2 3",
									"numoutlets" : 1,
									"id" : "obj-45",
									"outlettype" : [ "" ],
									"fontname" : "Verdana",
									"patching_rect" : [ 1120.0, 180.0, 112.0, 17.0 ],
									"fontsize" : 10.0,
									"numinlets" : 2
								}

							}
, 							{
								"box" : 								{
									"maxclass" : "newobj",
									"text" : "zl reg",
									"numoutlets" : 2,
									"id" : "obj-46",
									"outlettype" : [ "", "" ],
									"fontname" : "Verdana",
									"patching_rect" : [ 1055.0, 235.0, 38.0, 19.0 ],
									"fontsize" : 10.0,
									"numinlets" : 2
								}

							}
, 							{
								"box" : 								{
									"maxclass" : "newobj",
									"text" : "t b b 0.",
									"numoutlets" : 3,
									"id" : "obj-47",
									"outlettype" : [ "bang", "bang", "float" ],
									"fontname" : "Verdana",
									"patching_rect" : [ 1055.0, 145.0, 47.0, 19.0 ],
									"fontsize" : 10.0,
									"numinlets" : 1
								}

							}
, 							{
								"box" : 								{
									"maxclass" : "newobj",
									"text" : "jcom.oscinstance",
									"numoutlets" : 3,
									"id" : "obj-48",
									"outlettype" : [ "", "", "" ],
									"fontname" : "Verdana",
									"patching_rect" : [ 1120.0, 200.0, 97.0, 19.0 ],
									"fontsize" : 10.0,
									"numinlets" : 1
								}

							}
, 							{
								"box" : 								{
									"maxclass" : "newobj",
									"text" : "jcom.test.assert.equal TESTosc_subbranch_has_instance /slah/then.dot 1 2 3",
									"linecount" : 3,
									"numoutlets" : 0,
									"id" : "obj-49",
									"fontname" : "Verdana",
									"patching_rect" : [ 1055.0, 265.0, 186.0, 43.0 ],
									"fontsize" : 10.0,
									"numinlets" : 2
								}

							}
, 							{
								"box" : 								{
									"maxclass" : "inlet",
									"numoutlets" : 1,
									"id" : "obj-59",
									"outlettype" : [ "bang" ],
									"patching_rect" : [ 50.0, 40.0, 25.0, 25.0 ],
									"numinlets" : 0,
									"comment" : ""
								}

							}
 ],
						"lines" : [ 							{
								"patchline" : 								{
									"source" : [ "obj-20", 0 ],
									"destination" : [ "obj-18", 1 ],
									"hidden" : 0,
									"midpoints" : [  ]
								}

							}
, 							{
								"patchline" : 								{
									"source" : [ "obj-19", 2 ],
									"destination" : [ "obj-18", 1 ],
									"hidden" : 0,
									"midpoints" : [  ]
								}

							}
, 							{
								"patchline" : 								{
									"source" : [ "obj-19", 0 ],
									"destination" : [ "obj-18", 0 ],
									"hidden" : 0,
									"midpoints" : [  ]
								}

							}
, 							{
								"patchline" : 								{
									"source" : [ "obj-19", 1 ],
									"destination" : [ "obj-17", 0 ],
									"hidden" : 0,
									"midpoints" : [  ]
								}

							}
, 							{
								"patchline" : 								{
									"source" : [ "obj-17", 0 ],
									"destination" : [ "obj-20", 0 ],
									"hidden" : 0,
									"midpoints" : [  ]
								}

							}
, 							{
								"patchline" : 								{
									"source" : [ "obj-11", 0 ],
									"destination" : [ "obj-15", 0 ],
									"hidden" : 0,
									"midpoints" : [  ]
								}

							}
, 							{
								"patchline" : 								{
									"source" : [ "obj-13", 0 ],
									"destination" : [ "obj-11", 1 ],
									"hidden" : 0,
									"midpoints" : [  ]
								}

							}
, 							{
								"patchline" : 								{
									"source" : [ "obj-12", 2 ],
									"destination" : [ "obj-11", 1 ],
									"hidden" : 0,
									"midpoints" : [  ]
								}

							}
, 							{
								"patchline" : 								{
									"source" : [ "obj-12", 0 ],
									"destination" : [ "obj-11", 0 ],
									"hidden" : 0,
									"midpoints" : [  ]
								}

							}
, 							{
								"patchline" : 								{
									"source" : [ "obj-12", 1 ],
									"destination" : [ "obj-10", 0 ],
									"hidden" : 0,
									"midpoints" : [  ]
								}

							}
, 							{
								"patchline" : 								{
									"source" : [ "obj-10", 0 ],
									"destination" : [ "obj-13", 0 ],
									"hidden" : 0,
									"midpoints" : [  ]
								}

							}
, 							{
								"patchline" : 								{
									"source" : [ "obj-46", 0 ],
									"destination" : [ "obj-49", 0 ],
									"hidden" : 0,
									"midpoints" : [  ]
								}

							}
, 							{
								"patchline" : 								{
									"source" : [ "obj-51", 0 ],
									"destination" : [ "obj-54", 0 ],
									"hidden" : 0,
									"midpoints" : [  ]
								}

							}
, 							{
								"patchline" : 								{
									"source" : [ "obj-3", 0 ],
									"destination" : [ "obj-6", 0 ],
									"hidden" : 0,
									"midpoints" : [  ]
								}

							}
, 							{
								"patchline" : 								{
									"source" : [ "obj-2", 0 ],
									"destination" : [ "obj-5", 0 ],
									"hidden" : 0,
									"midpoints" : [  ]
								}

							}
, 							{
								"patchline" : 								{
									"source" : [ "obj-4", 1 ],
									"destination" : [ "obj-2", 0 ],
									"hidden" : 0,
									"midpoints" : [  ]
								}

							}
, 							{
								"patchline" : 								{
									"source" : [ "obj-4", 0 ],
									"destination" : [ "obj-3", 0 ],
									"hidden" : 0,
									"midpoints" : [  ]
								}

							}
, 							{
								"patchline" : 								{
									"source" : [ "obj-4", 2 ],
									"destination" : [ "obj-3", 1 ],
									"hidden" : 0,
									"midpoints" : [  ]
								}

							}
, 							{
								"patchline" : 								{
									"source" : [ "obj-5", 0 ],
									"destination" : [ "obj-3", 1 ],
									"hidden" : 0,
									"midpoints" : [  ]
								}

							}
, 							{
								"patchline" : 								{
									"source" : [ "obj-53", 0 ],
									"destination" : [ "obj-51", 1 ],
									"hidden" : 0,
									"midpoints" : [  ]
								}

							}
, 							{
								"patchline" : 								{
									"source" : [ "obj-45", 0 ],
									"destination" : [ "obj-48", 0 ],
									"hidden" : 0,
									"midpoints" : [  ]
								}

							}
, 							{
								"patchline" : 								{
									"source" : [ "obj-47", 1 ],
									"destination" : [ "obj-45", 0 ],
									"hidden" : 0,
									"midpoints" : [  ]
								}

							}
, 							{
								"patchline" : 								{
									"source" : [ "obj-47", 0 ],
									"destination" : [ "obj-46", 0 ],
									"hidden" : 0,
									"midpoints" : [  ]
								}

							}
, 							{
								"patchline" : 								{
									"source" : [ "obj-47", 2 ],
									"destination" : [ "obj-46", 1 ],
									"hidden" : 0,
									"midpoints" : [  ]
								}

							}
, 							{
								"patchline" : 								{
									"source" : [ "obj-48", 2 ],
									"destination" : [ "obj-46", 1 ],
									"hidden" : 0,
									"midpoints" : [  ]
								}

							}
, 							{
								"patchline" : 								{
									"source" : [ "obj-52", 2 ],
									"destination" : [ "obj-51", 1 ],
									"hidden" : 0,
									"midpoints" : [  ]
								}

							}
, 							{
								"patchline" : 								{
									"source" : [ "obj-52", 0 ],
									"destination" : [ "obj-51", 0 ],
									"hidden" : 0,
									"midpoints" : [  ]
								}

							}
, 							{
								"patchline" : 								{
									"source" : [ "obj-52", 1 ],
									"destination" : [ "obj-50", 0 ],
									"hidden" : 0,
									"midpoints" : [  ]
								}

							}
, 							{
								"patchline" : 								{
									"source" : [ "obj-50", 0 ],
									"destination" : [ "obj-53", 0 ],
									"hidden" : 0,
									"midpoints" : [  ]
								}

							}
, 							{
								"patchline" : 								{
									"source" : [ "obj-56", 0 ],
									"destination" : [ "obj-52", 0 ],
									"hidden" : 0,
									"midpoints" : [ 59.5, 132.0, 839.5, 132.0 ]
								}

							}
, 							{
								"patchline" : 								{
									"source" : [ "obj-56", 0 ],
									"destination" : [ "obj-47", 0 ],
									"hidden" : 0,
									"midpoints" : [ 59.5, 132.0, 1064.5, 132.0 ]
								}

							}
, 							{
								"patchline" : 								{
									"source" : [ "obj-59", 0 ],
									"destination" : [ "obj-56", 0 ],
									"hidden" : 0,
									"midpoints" : [  ]
								}

							}
, 							{
								"patchline" : 								{
									"source" : [ "obj-18", 0 ],
									"destination" : [ "obj-21", 0 ],
									"hidden" : 0,
									"midpoints" : [  ]
								}

							}
, 							{
								"patchline" : 								{
									"source" : [ "obj-56", 0 ],
									"destination" : [ "obj-19", 0 ],
									"hidden" : 0,
									"midpoints" : [ 59.5, 132.0, 609.5, 132.0 ]
								}

							}
, 							{
								"patchline" : 								{
									"source" : [ "obj-56", 0 ],
									"destination" : [ "obj-12", 0 ],
									"hidden" : 0,
									"midpoints" : [ 59.5, 132.0, 174.5, 132.0 ]
								}

							}
, 							{
								"patchline" : 								{
									"source" : [ "obj-56", 0 ],
									"destination" : [ "obj-4", 0 ],
									"hidden" : 0,
									"midpoints" : [ 59.5, 132.0, 389.5, 132.0 ]
								}

							}
 ]
					}
,
					"saved_object_attributes" : 					{
						"default_fontface" : 0,
						"default_fontname" : "Verdana",
						"fontname" : "Verdana",
						"default_fontsize" : 10.0,
						"globalpatchername" : "",
						"fontface" : 0,
						"fontsize" : 10.0
					}

				}

			}
, 			{
				"box" : 				{
					"maxclass" : "newobj",
					"text" : "p non_osc_messages",
					"numoutlets" : 0,
					"id" : "obj-62",
					"fontname" : "Verdana",
					"patching_rect" : [ 460.0, 215.0, 118.0, 19.0 ],
					"fontsize" : 10.0,
					"numinlets" : 1,
					"patcher" : 					{
						"fileversion" : 1,
						"rect" : [ 0.0, 0.0, 640.0, 480.0 ],
						"bglocked" : 0,
						"defrect" : [ 0.0, 0.0, 640.0, 480.0 ],
						"openrect" : [ 0.0, 0.0, 0.0, 0.0 ],
						"openinpresentation" : 0,
						"default_fontsize" : 10.0,
						"default_fontface" : 0,
						"default_fontname" : "Verdana",
						"gridonopen" : 0,
						"gridsize" : [ 5.0, 5.0 ],
						"gridsnaponopen" : 0,
						"toolbarvisible" : 1,
						"boxanimatetime" : 200,
						"imprint" : 0,
						"metadata" : [  ],
						"boxes" : [ 							{
								"box" : 								{
									"maxclass" : "newobj",
									"text" : "t b",
									"numoutlets" : 1,
									"id" : "obj-55",
									"outlettype" : [ "bang" ],
									"fontname" : "Verdana",
									"patching_rect" : [ 50.0, 100.0, 24.0, 19.0 ],
									"fontsize" : 10.0,
									"numinlets" : 1
								}

							}
, 							{
								"box" : 								{
									"maxclass" : "message",
									"text" : "no_slash 1 2 3",
									"numoutlets" : 1,
									"id" : "obj-40",
									"outlettype" : [ "" ],
									"fontname" : "Verdana",
									"patching_rect" : [ 115.0, 170.0, 84.0, 17.0 ],
									"fontsize" : 10.0,
									"numinlets" : 2
								}

							}
, 							{
								"box" : 								{
									"maxclass" : "newobj",
									"text" : "zl reg",
									"numoutlets" : 2,
									"id" : "obj-41",
									"outlettype" : [ "", "" ],
									"fontname" : "Verdana",
									"patching_rect" : [ 50.0, 225.0, 38.0, 19.0 ],
									"fontsize" : 10.0,
									"numinlets" : 2
								}

							}
, 							{
								"box" : 								{
									"maxclass" : "newobj",
									"text" : "t b b 0.",
									"numoutlets" : 3,
									"id" : "obj-42",
									"outlettype" : [ "bang", "bang", "float" ],
									"fontname" : "Verdana",
									"patching_rect" : [ 50.0, 135.0, 47.0, 19.0 ],
									"fontsize" : 10.0,
									"numinlets" : 1
								}

							}
, 							{
								"box" : 								{
									"maxclass" : "newobj",
									"text" : "jcom.oscinstance",
									"numoutlets" : 3,
									"id" : "obj-43",
									"outlettype" : [ "", "", "" ],
									"fontname" : "Verdana",
									"patching_rect" : [ 115.0, 190.0, 97.0, 19.0 ],
									"fontsize" : 10.0,
									"numinlets" : 1
								}

							}
, 							{
								"box" : 								{
									"maxclass" : "newobj",
									"text" : "jcom.test.assert.equal TESTnon_osc_symbol no_slash 1 2 3",
									"linecount" : 2,
									"numoutlets" : 0,
									"id" : "obj-44",
									"fontname" : "Verdana",
									"patching_rect" : [ 50.0, 250.0, 209.0, 31.0 ],
									"fontsize" : 10.0,
									"numinlets" : 2
								}

							}
, 							{
								"box" : 								{
									"maxclass" : "message",
									"text" : "1 2 3",
									"numoutlets" : 1,
									"id" : "obj-39",
									"outlettype" : [ "" ],
									"fontname" : "Verdana",
									"patching_rect" : [ 330.0, 170.0, 37.0, 17.0 ],
									"fontsize" : 10.0,
									"numinlets" : 2
								}

							}
, 							{
								"box" : 								{
									"maxclass" : "newobj",
									"text" : "zl reg",
									"numoutlets" : 2,
									"id" : "obj-35",
									"outlettype" : [ "", "" ],
									"fontname" : "Verdana",
									"patching_rect" : [ 265.0, 225.0, 38.0, 19.0 ],
									"fontsize" : 10.0,
									"numinlets" : 2
								}

							}
, 							{
								"box" : 								{
									"maxclass" : "newobj",
									"text" : "t b b 0.",
									"numoutlets" : 3,
									"id" : "obj-36",
									"outlettype" : [ "bang", "bang", "float" ],
									"fontname" : "Verdana",
									"patching_rect" : [ 265.0, 135.0, 47.0, 19.0 ],
									"fontsize" : 10.0,
									"numinlets" : 1
								}

							}
, 							{
								"box" : 								{
									"maxclass" : "newobj",
									"text" : "jcom.oscinstance",
									"numoutlets" : 3,
									"id" : "obj-37",
									"outlettype" : [ "", "", "" ],
									"fontname" : "Verdana",
									"patching_rect" : [ 330.0, 190.0, 97.0, 19.0 ],
									"fontsize" : 10.0,
									"numinlets" : 1
								}

							}
, 							{
								"box" : 								{
									"maxclass" : "newobj",
									"text" : "jcom.test.assert.equal TESTlist 1 2 3",
									"numoutlets" : 0,
									"id" : "obj-38",
									"fontname" : "Verdana",
									"patching_rect" : [ 265.0, 250.0, 196.0, 19.0 ],
									"fontsize" : 10.0,
									"numinlets" : 2
								}

							}
, 							{
								"box" : 								{
									"maxclass" : "newobj",
									"text" : "i",
									"numoutlets" : 1,
									"id" : "obj-26",
									"outlettype" : [ "int" ],
									"fontname" : "Verdana",
									"patching_rect" : [ 700.0, 225.0, 32.5, 19.0 ],
									"fontsize" : 10.0,
									"numinlets" : 2
								}

							}
, 							{
								"box" : 								{
									"maxclass" : "newobj",
									"text" : "t b 10 0",
									"numoutlets" : 3,
									"id" : "obj-27",
									"outlettype" : [ "bang", "int", "int" ],
									"fontname" : "Verdana",
									"patching_rect" : [ 700.0, 135.0, 50.0, 19.0 ],
									"fontsize" : 10.0,
									"numinlets" : 1
								}

							}
, 							{
								"box" : 								{
									"maxclass" : "newobj",
									"text" : "jcom.oscinstance",
									"numoutlets" : 3,
									"id" : "obj-28",
									"outlettype" : [ "", "", "" ],
									"fontname" : "Verdana",
									"patching_rect" : [ 765.0, 190.0, 97.0, 19.0 ],
									"fontsize" : 10.0,
									"numinlets" : 1
								}

							}
, 							{
								"box" : 								{
									"maxclass" : "newobj",
									"text" : "jcom.test.assert.equal TESTint 10",
									"numoutlets" : 0,
									"id" : "obj-29",
									"fontname" : "Verdana",
									"patching_rect" : [ 700.0, 250.0, 181.0, 19.0 ],
									"fontsize" : 10.0,
									"numinlets" : 2
								}

							}
, 							{
								"box" : 								{
									"maxclass" : "newobj",
									"text" : "f",
									"numoutlets" : 1,
									"id" : "obj-25",
									"outlettype" : [ "float" ],
									"fontname" : "Verdana",
									"patching_rect" : [ 480.0, 225.0, 32.5, 19.0 ],
									"fontsize" : 10.0,
									"numinlets" : 2
								}

							}
, 							{
								"box" : 								{
									"maxclass" : "newobj",
									"text" : "t b 3.14 0.",
									"numoutlets" : 3,
									"id" : "obj-20",
									"outlettype" : [ "bang", "float", "float" ],
									"fontname" : "Verdana",
									"patching_rect" : [ 480.0, 135.0, 64.0, 19.0 ],
									"fontsize" : 10.0,
									"numinlets" : 1
								}

							}
, 							{
								"box" : 								{
									"maxclass" : "newobj",
									"text" : "jcom.oscinstance",
									"numoutlets" : 3,
									"id" : "obj-9",
									"outlettype" : [ "", "", "" ],
									"fontname" : "Verdana",
									"patching_rect" : [ 545.0, 190.0, 97.0, 19.0 ],
									"fontsize" : 10.0,
									"numinlets" : 1
								}

							}
, 							{
								"box" : 								{
									"maxclass" : "newobj",
									"text" : "jcom.test.assert.equal TESTfloat 3.14",
									"numoutlets" : 0,
									"id" : "obj-6",
									"fontname" : "Verdana",
									"patching_rect" : [ 480.0, 250.0, 200.0, 19.0 ],
									"fontsize" : 10.0,
									"numinlets" : 2
								}

							}
, 							{
								"box" : 								{
									"maxclass" : "inlet",
									"numoutlets" : 1,
									"id" : "obj-61",
									"outlettype" : [ "bang" ],
									"patching_rect" : [ 55.0, 40.0, 25.0, 25.0 ],
									"numinlets" : 0,
									"comment" : ""
								}

							}
 ],
						"lines" : [ 							{
								"patchline" : 								{
									"source" : [ "obj-61", 0 ],
									"destination" : [ "obj-55", 0 ],
									"hidden" : 0,
									"midpoints" : [  ]
								}

							}
, 							{
								"patchline" : 								{
									"source" : [ "obj-55", 0 ],
									"destination" : [ "obj-27", 0 ],
									"hidden" : 0,
									"midpoints" : [ 59.5, 121.0, 709.5, 121.0 ]
								}

							}
, 							{
								"patchline" : 								{
									"source" : [ "obj-55", 0 ],
									"destination" : [ "obj-20", 0 ],
									"hidden" : 0,
									"midpoints" : [ 59.5, 121.0, 489.5, 121.0 ]
								}

							}
, 							{
								"patchline" : 								{
									"source" : [ "obj-55", 0 ],
									"destination" : [ "obj-36", 0 ],
									"hidden" : 0,
									"midpoints" : [ 59.5, 121.0, 274.5, 121.0 ]
								}

							}
, 							{
								"patchline" : 								{
									"source" : [ "obj-55", 0 ],
									"destination" : [ "obj-42", 0 ],
									"hidden" : 0,
									"midpoints" : [  ]
								}

							}
, 							{
								"patchline" : 								{
									"source" : [ "obj-41", 0 ],
									"destination" : [ "obj-44", 0 ],
									"hidden" : 0,
									"midpoints" : [  ]
								}

							}
, 							{
								"patchline" : 								{
									"source" : [ "obj-40", 0 ],
									"destination" : [ "obj-43", 0 ],
									"hidden" : 0,
									"midpoints" : [  ]
								}

							}
, 							{
								"patchline" : 								{
									"source" : [ "obj-42", 1 ],
									"destination" : [ "obj-40", 0 ],
									"hidden" : 0,
									"midpoints" : [  ]
								}

							}
, 							{
								"patchline" : 								{
									"source" : [ "obj-42", 0 ],
									"destination" : [ "obj-41", 0 ],
									"hidden" : 0,
									"midpoints" : [  ]
								}

							}
, 							{
								"patchline" : 								{
									"source" : [ "obj-42", 2 ],
									"destination" : [ "obj-41", 1 ],
									"hidden" : 0,
									"midpoints" : [  ]
								}

							}
, 							{
								"patchline" : 								{
									"source" : [ "obj-43", 2 ],
									"destination" : [ "obj-41", 1 ],
									"hidden" : 0,
									"midpoints" : [  ]
								}

							}
, 							{
								"patchline" : 								{
									"source" : [ "obj-37", 2 ],
									"destination" : [ "obj-35", 1 ],
									"hidden" : 0,
									"midpoints" : [  ]
								}

							}
, 							{
								"patchline" : 								{
									"source" : [ "obj-35", 0 ],
									"destination" : [ "obj-38", 0 ],
									"hidden" : 0,
									"midpoints" : [  ]
								}

							}
, 							{
								"patchline" : 								{
									"source" : [ "obj-36", 2 ],
									"destination" : [ "obj-35", 1 ],
									"hidden" : 0,
									"midpoints" : [  ]
								}

							}
, 							{
								"patchline" : 								{
									"source" : [ "obj-36", 0 ],
									"destination" : [ "obj-35", 0 ],
									"hidden" : 0,
									"midpoints" : [  ]
								}

							}
, 							{
								"patchline" : 								{
									"source" : [ "obj-36", 1 ],
									"destination" : [ "obj-39", 0 ],
									"hidden" : 0,
									"midpoints" : [  ]
								}

							}
, 							{
								"patchline" : 								{
									"source" : [ "obj-39", 0 ],
									"destination" : [ "obj-37", 0 ],
									"hidden" : 0,
									"midpoints" : [  ]
								}

							}
, 							{
								"patchline" : 								{
									"source" : [ "obj-27", 1 ],
									"destination" : [ "obj-28", 0 ],
									"hidden" : 0,
									"midpoints" : [  ]
								}

							}
, 							{
								"patchline" : 								{
									"source" : [ "obj-27", 0 ],
									"destination" : [ "obj-26", 0 ],
									"hidden" : 0,
									"midpoints" : [  ]
								}

							}
, 							{
								"patchline" : 								{
									"source" : [ "obj-27", 2 ],
									"destination" : [ "obj-26", 1 ],
									"hidden" : 0,
									"midpoints" : [  ]
								}

							}
, 							{
								"patchline" : 								{
									"source" : [ "obj-28", 2 ],
									"destination" : [ "obj-26", 1 ],
									"hidden" : 0,
									"midpoints" : [  ]
								}

							}
, 							{
								"patchline" : 								{
									"source" : [ "obj-26", 0 ],
									"destination" : [ "obj-29", 0 ],
									"hidden" : 0,
									"midpoints" : [  ]
								}

							}
, 							{
								"patchline" : 								{
									"source" : [ "obj-25", 0 ],
									"destination" : [ "obj-6", 0 ],
									"hidden" : 0,
									"midpoints" : [  ]
								}

							}
, 							{
								"patchline" : 								{
									"source" : [ "obj-20", 0 ],
									"destination" : [ "obj-25", 0 ],
									"hidden" : 0,
									"midpoints" : [  ]
								}

							}
, 							{
								"patchline" : 								{
									"source" : [ "obj-9", 2 ],
									"destination" : [ "obj-25", 1 ],
									"hidden" : 0,
									"midpoints" : [  ]
								}

							}
, 							{
								"patchline" : 								{
									"source" : [ "obj-20", 1 ],
									"destination" : [ "obj-9", 0 ],
									"hidden" : 0,
									"midpoints" : [  ]
								}

							}
, 							{
								"patchline" : 								{
									"source" : [ "obj-20", 2 ],
									"destination" : [ "obj-25", 1 ],
									"hidden" : 0,
									"midpoints" : [  ]
								}

							}
 ]
					}
,
					"saved_object_attributes" : 					{
						"default_fontface" : 0,
						"default_fontname" : "Verdana",
						"fontname" : "Verdana",
						"default_fontsize" : 10.0,
						"globalpatchername" : "",
						"fontface" : 0,
						"fontsize" : 10.0
					}

				}

			}
, 			{
				"box" : 				{
					"maxclass" : "newobj",
					"text" : "p osc_messages_without_instances",
					"numoutlets" : 0,
					"id" : "obj-60",
					"fontname" : "Verdana",
					"patching_rect" : [ 265.0, 215.0, 190.0, 19.0 ],
					"fontsize" : 10.0,
					"numinlets" : 1,
					"patcher" : 					{
						"fileversion" : 1,
						"rect" : [ 0.0, 0.0, 640.0, 480.0 ],
						"bglocked" : 0,
						"defrect" : [ 0.0, 0.0, 640.0, 480.0 ],
						"openrect" : [ 0.0, 0.0, 0.0, 0.0 ],
						"openinpresentation" : 0,
						"default_fontsize" : 10.0,
						"default_fontface" : 0,
						"default_fontname" : "Verdana",
						"gridonopen" : 0,
						"gridsize" : [ 5.0, 5.0 ],
						"gridsnaponopen" : 0,
						"toolbarvisible" : 1,
						"boxanimatetime" : 200,
						"imprint" : 0,
						"metadata" : [  ],
						"boxes" : [ 							{
								"box" : 								{
									"maxclass" : "newobj",
									"text" : "t b",
									"numoutlets" : 1,
									"id" : "obj-56",
									"outlettype" : [ "bang" ],
									"fontname" : "Verdana",
									"patching_rect" : [ 50.0, 100.0, 24.0, 19.0 ],
									"fontsize" : 10.0,
									"numinlets" : 1
								}

							}
, 							{
								"box" : 								{
									"maxclass" : "message",
									"text" : "/two/branches 1 2 3",
									"numoutlets" : 1,
									"id" : "obj-50",
									"outlettype" : [ "" ],
									"fontname" : "Verdana",
									"patching_rect" : [ 545.0, 180.0, 113.0, 17.0 ],
									"fontsize" : 10.0,
									"numinlets" : 2
								}

							}
, 							{
								"box" : 								{
									"maxclass" : "newobj",
									"text" : "zl reg",
									"numoutlets" : 2,
									"id" : "obj-51",
									"outlettype" : [ "", "" ],
									"fontname" : "Verdana",
									"patching_rect" : [ 480.0, 235.0, 38.0, 19.0 ],
									"fontsize" : 10.0,
									"numinlets" : 2
								}

							}
, 							{
								"box" : 								{
									"maxclass" : "newobj",
									"text" : "t b b 0.",
									"numoutlets" : 3,
									"id" : "obj-52",
									"outlettype" : [ "bang", "bang", "float" ],
									"fontname" : "Verdana",
									"patching_rect" : [ 480.0, 145.0, 47.0, 19.0 ],
									"fontsize" : 10.0,
									"numinlets" : 1
								}

							}
, 							{
								"box" : 								{
									"maxclass" : "newobj",
									"text" : "jcom.oscinstance",
									"numoutlets" : 3,
									"id" : "obj-53",
									"outlettype" : [ "", "", "" ],
									"fontname" : "Verdana",
									"patching_rect" : [ 545.0, 200.0, 97.0, 19.0 ],
									"fontsize" : 10.0,
									"numinlets" : 1
								}

							}
, 							{
								"box" : 								{
									"maxclass" : "newobj",
									"text" : "jcom.test.assert.equal TESTosc_several_branches_no_instance /two/branches 1 2 3",
									"linecount" : 3,
									"numoutlets" : 0,
									"id" : "obj-54",
									"fontname" : "Verdana",
									"patching_rect" : [ 480.0, 265.0, 214.0, 43.0 ],
									"fontsize" : 10.0,
									"numinlets" : 2
								}

							}
, 							{
								"box" : 								{
									"maxclass" : "message",
									"text" : "/one_branch 1 2 3",
									"numoutlets" : 1,
									"id" : "obj-45",
									"outlettype" : [ "" ],
									"fontname" : "Verdana",
									"patching_rect" : [ 770.0, 180.0, 104.0, 17.0 ],
									"fontsize" : 10.0,
									"numinlets" : 2
								}

							}
, 							{
								"box" : 								{
									"maxclass" : "newobj",
									"text" : "zl reg",
									"numoutlets" : 2,
									"id" : "obj-46",
									"outlettype" : [ "", "" ],
									"fontname" : "Verdana",
									"patching_rect" : [ 705.0, 235.0, 38.0, 19.0 ],
									"fontsize" : 10.0,
									"numinlets" : 2
								}

							}
, 							{
								"box" : 								{
									"maxclass" : "newobj",
									"text" : "t b b 0.",
									"numoutlets" : 3,
									"id" : "obj-47",
									"outlettype" : [ "bang", "bang", "float" ],
									"fontname" : "Verdana",
									"patching_rect" : [ 705.0, 145.0, 47.0, 19.0 ],
									"fontsize" : 10.0,
									"numinlets" : 1
								}

							}
, 							{
								"box" : 								{
									"maxclass" : "newobj",
									"text" : "jcom.oscinstance",
									"numoutlets" : 3,
									"id" : "obj-48",
									"outlettype" : [ "", "", "" ],
									"fontname" : "Verdana",
									"patching_rect" : [ 770.0, 200.0, 97.0, 19.0 ],
									"fontsize" : 10.0,
									"numinlets" : 1
								}

							}
, 							{
								"box" : 								{
									"maxclass" : "newobj",
									"text" : "jcom.test.assert.equal TESTosc_one_branch_no_instance /one_branch 1 2 3",
									"linecount" : 3,
									"numoutlets" : 0,
									"id" : "obj-49",
									"fontname" : "Verdana",
									"patching_rect" : [ 705.0, 265.0, 194.0, 43.0 ],
									"fontsize" : 10.0,
									"numinlets" : 2
								}

							}
, 							{
								"box" : 								{
									"maxclass" : "inlet",
									"numoutlets" : 1,
									"id" : "obj-59",
									"outlettype" : [ "bang" ],
									"patching_rect" : [ 55.0, 40.0, 25.0, 25.0 ],
									"numinlets" : 0,
									"comment" : ""
								}

							}
 ],
						"lines" : [ 							{
								"patchline" : 								{
									"source" : [ "obj-59", 0 ],
									"destination" : [ "obj-56", 0 ],
									"hidden" : 0,
									"midpoints" : [  ]
								}

							}
, 							{
								"patchline" : 								{
									"source" : [ "obj-56", 0 ],
									"destination" : [ "obj-47", 0 ],
									"hidden" : 0,
									"midpoints" : [ 59.5, 131.0, 714.5, 131.0 ]
								}

							}
, 							{
								"patchline" : 								{
									"source" : [ "obj-56", 0 ],
									"destination" : [ "obj-52", 0 ],
									"hidden" : 0,
									"midpoints" : [ 59.5, 131.0, 489.5, 131.0 ]
								}

							}
, 							{
								"patchline" : 								{
									"source" : [ "obj-51", 0 ],
									"destination" : [ "obj-54", 0 ],
									"hidden" : 0,
									"midpoints" : [  ]
								}

							}
, 							{
								"patchline" : 								{
									"source" : [ "obj-50", 0 ],
									"destination" : [ "obj-53", 0 ],
									"hidden" : 0,
									"midpoints" : [  ]
								}

							}
, 							{
								"patchline" : 								{
									"source" : [ "obj-52", 1 ],
									"destination" : [ "obj-50", 0 ],
									"hidden" : 0,
									"midpoints" : [  ]
								}

							}
, 							{
								"patchline" : 								{
									"source" : [ "obj-52", 0 ],
									"destination" : [ "obj-51", 0 ],
									"hidden" : 0,
									"midpoints" : [  ]
								}

							}
, 							{
								"patchline" : 								{
									"source" : [ "obj-52", 2 ],
									"destination" : [ "obj-51", 1 ],
									"hidden" : 0,
									"midpoints" : [  ]
								}

							}
, 							{
								"patchline" : 								{
									"source" : [ "obj-53", 2 ],
									"destination" : [ "obj-51", 1 ],
									"hidden" : 0,
									"midpoints" : [  ]
								}

							}
, 							{
								"patchline" : 								{
									"source" : [ "obj-46", 0 ],
									"destination" : [ "obj-49", 0 ],
									"hidden" : 0,
									"midpoints" : [  ]
								}

							}
, 							{
								"patchline" : 								{
									"source" : [ "obj-48", 2 ],
									"destination" : [ "obj-46", 1 ],
									"hidden" : 0,
									"midpoints" : [  ]
								}

							}
, 							{
								"patchline" : 								{
									"source" : [ "obj-47", 2 ],
									"destination" : [ "obj-46", 1 ],
									"hidden" : 0,
									"midpoints" : [  ]
								}

							}
, 							{
								"patchline" : 								{
									"source" : [ "obj-47", 0 ],
									"destination" : [ "obj-46", 0 ],
									"hidden" : 0,
									"midpoints" : [  ]
								}

							}
, 							{
								"patchline" : 								{
									"source" : [ "obj-47", 1 ],
									"destination" : [ "obj-45", 0 ],
									"hidden" : 0,
									"midpoints" : [  ]
								}

							}
, 							{
								"patchline" : 								{
									"source" : [ "obj-45", 0 ],
									"destination" : [ "obj-48", 0 ],
									"hidden" : 0,
									"midpoints" : [  ]
								}

							}
 ]
					}
,
					"saved_object_attributes" : 					{
						"default_fontface" : 0,
						"default_fontname" : "Verdana",
						"fontname" : "Verdana",
						"default_fontsize" : 10.0,
						"globalpatchername" : "",
						"fontface" : 0,
						"fontsize" : 10.0
					}

				}

			}
, 			{
				"box" : 				{
					"maxclass" : "button",
					"numoutlets" : 1,
					"id" : "obj-33",
					"outlettype" : [ "bang" ],
					"patching_rect" : [ 75.0, 145.0, 20.0, 20.0 ],
					"numinlets" : 1
				}

			}
, 			{
				"box" : 				{
					"maxclass" : "newobj",
					"text" : "print",
					"numoutlets" : 0,
					"id" : "obj-31",
					"fontname" : "Verdana",
					"patching_rect" : [ 75.0, 285.0, 34.0, 19.0 ],
					"fontsize" : 10.0,
					"numinlets" : 1
				}

			}
, 			{
				"box" : 				{
					"maxclass" : "newobj",
					"text" : "r JamomaTestResult",
					"numoutlets" : 1,
					"id" : "obj-30",
					"outlettype" : [ "" ],
					"fontname" : "Verdana",
					"patching_rect" : [ 75.0, 255.0, 111.0, 19.0 ],
					"fontsize" : 10.0,
					"numinlets" : 0
				}

			}
 ],
		"lines" : [ 			{
				"patchline" : 				{
					"source" : [ "obj-33", 0 ],
					"destination" : [ "obj-6", 0 ],
					"hidden" : 0,
					"midpoints" : [  ]
				}

			}
, 			{
				"patchline" : 				{
					"source" : [ "obj-30", 0 ],
					"destination" : [ "obj-31", 0 ],
					"hidden" : 0,
					"midpoints" : [  ]
				}

			}
, 			{
				"patchline" : 				{
					"source" : [ "obj-33", 0 ],
					"destination" : [ "obj-60", 0 ],
					"hidden" : 0,
					"midpoints" : [  ]
				}

			}
, 			{
				"patchline" : 				{
					"source" : [ "obj-33", 0 ],
					"destination" : [ "obj-62", 0 ],
					"hidden" : 0,
					"midpoints" : [  ]
				}

			}
, 			{
				"patchline" : 				{
					"source" : [ "obj-1", 0 ],
					"destination" : [ "obj-33", 0 ],
					"hidden" : 0,
					"midpoints" : [  ]
				}

			}
 ]
	}

}
