{
	"patcher" : 	{
		"fileversion" : 1,
		"rect" : [ 57.0, 60.0, 1031.0, 369.0 ],
		"bglocked" : 0,
		"defrect" : [ 57.0, 60.0, 1031.0, 369.0 ],
		"openrect" : [ 0.0, 0.0, 0.0, 0.0 ],
		"openinpresentation" : 0,
		"default_fontsize" : 10.0,
		"default_fontface" : 0,
		"default_fontname" : "Arial",
		"gridonopen" : 0,
		"gridsize" : [ 5.0, 5.0 ],
		"gridsnaponopen" : 0,
		"toolbarvisible" : 1,
		"boxanimatetime" : 200,
		"imprint" : 0,
		"metadata" : [  ],
		"boxes" : [ 			{
				"box" : 				{
					"maxclass" : "newobj",
					"text" : "thispatcher",
					"fontname" : "Arial",
					"numinlets" : 1,
					"numoutlets" : 2,
					"fontsize" : 10.0,
					"outlettype" : [ "", "" ],
					"patching_rect" : [ 13.0, 339.0, 59.0, 18.0 ],
					"id" : "obj-5",
					"save" : [ "#N", "thispatcher", ";", "#Q", "end", ";" ]
				}

			}
, 			{
				"box" : 				{
					"maxclass" : "button",
					"numinlets" : 1,
					"numoutlets" : 1,
					"outlettype" : [ "bang" ],
					"patching_rect" : [ 58.0, 3.0, 20.0, 20.0 ],
					"id" : "obj-4"
				}

			}
, 			{
				"box" : 				{
					"maxclass" : "newobj",
					"text" : "p wildcards",
					"fontname" : "Arial",
					"numinlets" : 1,
					"numoutlets" : 0,
					"fontsize" : 18.0,
					"patching_rect" : [ 29.0, 63.0, 118.0, 27.0 ],
					"id" : "obj-23",
					"patcher" : 					{
						"fileversion" : 1,
						"rect" : [ 264.0, 83.0, 676.0, 347.0 ],
						"bglocked" : 0,
						"defrect" : [ 264.0, 83.0, 676.0, 347.0 ],
						"openrect" : [ 0.0, 0.0, 0.0, 0.0 ],
						"openinpresentation" : 0,
						"default_fontsize" : 10.0,
						"default_fontface" : 0,
						"default_fontname" : "Arial",
						"gridonopen" : 0,
						"gridsize" : [ 5.0, 5.0 ],
						"gridsnaponopen" : 0,
						"toolbarvisible" : 1,
						"boxanimatetime" : 200,
						"imprint" : 0,
						"metadata" : [  ],
						"boxes" : [ 							{
								"box" : 								{
									"maxclass" : "newobj",
									"text" : "jcom.test.assert.equal Wildcard/*/ /finger 0.2",
									"fontname" : "Verdana",
									"numinlets" : 2,
									"numoutlets" : 0,
									"fontsize" : 10.0,
									"patching_rect" : [ 295.0, 283.0, 294.0, 19.0 ],
									"id" : "obj-15"
								}

							}
, 							{
								"box" : 								{
									"maxclass" : "newobj",
									"text" : "jcom.test.assert.equal Wildcard.n/ /param 0.1",
									"fontname" : "Verdana",
									"numinlets" : 2,
									"numoutlets" : 0,
									"fontsize" : 10.0,
									"patching_rect" : [ 221.0, 251.0, 329.0, 19.0 ],
									"id" : "obj-9"
								}

							}
, 							{
								"box" : 								{
									"maxclass" : "newobj",
									"text" : "jcom.test.assert.equal Wildcard. 0.5",
									"fontname" : "Verdana",
									"numinlets" : 2,
									"numoutlets" : 0,
									"fontsize" : 10.0,
									"patching_rect" : [ 111.0, 217.0, 302.0, 19.0 ],
									"id" : "obj-6"
								}

							}
, 							{
								"box" : 								{
									"maxclass" : "newobj",
									"text" : "jcom.test.assert.equal Wildcard/ 0.5",
									"fontname" : "Verdana",
									"numinlets" : 2,
									"numoutlets" : 0,
									"fontsize" : 10.0,
									"patching_rect" : [ 37.0, 183.0, 294.0, 19.0 ],
									"id" : "obj-7"
								}

							}
, 							{
								"box" : 								{
									"maxclass" : "newobj",
									"text" : "jcom.oscroute /robot.* /foot/*",
									"fontname" : "Arial",
									"numinlets" : 1,
									"numoutlets" : 3,
									"fontsize" : 10.0,
									"outlettype" : [ "", "", "" ],
									"patching_rect" : [ 220.0, 144.0, 166.0, 18.0 ],
									"id" : "obj-5"
								}

							}
, 							{
								"box" : 								{
									"maxclass" : "message",
									"text" : "/robot.1 0.5",
									"fontname" : "Verdana",
									"numinlets" : 2,
									"numoutlets" : 1,
									"fontsize" : 10.0,
									"outlettype" : [ "" ],
									"patching_rect" : [ 129.0, 111.0, 74.0, 17.0 ],
									"id" : "obj-13"
								}

							}
, 							{
								"box" : 								{
									"maxclass" : "message",
									"text" : "/foot/hand/finger 0.2",
									"fontname" : "Verdana",
									"numinlets" : 2,
									"numoutlets" : 1,
									"fontsize" : 10.0,
									"outlettype" : [ "" ],
									"patching_rect" : [ 336.0, 109.0, 159.0, 17.0 ],
									"id" : "obj-51"
								}

							}
, 							{
								"box" : 								{
									"maxclass" : "message",
									"text" : "/robot.2/param 0.1",
									"fontname" : "Verdana",
									"numinlets" : 2,
									"numoutlets" : 1,
									"fontsize" : 10.0,
									"outlettype" : [ "" ],
									"patching_rect" : [ 220.0, 110.0, 108.0, 17.0 ],
									"id" : "obj-54"
								}

							}
, 							{
								"box" : 								{
									"maxclass" : "message",
									"text" : "/fruit/barf 0.5",
									"fontname" : "Verdana",
									"numinlets" : 2,
									"numoutlets" : 1,
									"fontsize" : 10.0,
									"outlettype" : [ "" ],
									"patching_rect" : [ 37.0, 111.0, 87.0, 17.0 ],
									"id" : "obj-56"
								}

							}
, 							{
								"box" : 								{
									"maxclass" : "newobj",
									"text" : "jcom.oscroute /fruit/* /robot.*",
									"fontname" : "Arial",
									"numinlets" : 1,
									"numoutlets" : 3,
									"fontsize" : 10.0,
									"outlettype" : [ "", "", "" ],
									"patching_rect" : [ 37.0, 144.0, 166.0, 18.0 ],
									"id" : "obj-4"
								}

							}
, 							{
								"box" : 								{
									"maxclass" : "inlet",
									"numinlets" : 0,
									"numoutlets" : 1,
									"outlettype" : [ "bang" ],
									"patching_rect" : [ 36.0, 40.0, 25.0, 25.0 ],
									"id" : "obj-1",
									"comment" : ""
								}

							}
 ],
						"lines" : [ 							{
								"patchline" : 								{
									"source" : [ "obj-1", 0 ],
									"destination" : [ "obj-56", 0 ],
									"hidden" : 0,
									"midpoints" : [  ]
								}

							}
, 							{
								"patchline" : 								{
									"source" : [ "obj-1", 0 ],
									"destination" : [ "obj-13", 0 ],
									"hidden" : 0,
									"midpoints" : [  ]
								}

							}
, 							{
								"patchline" : 								{
									"source" : [ "obj-1", 0 ],
									"destination" : [ "obj-51", 0 ],
									"hidden" : 0,
									"midpoints" : [  ]
								}

							}
, 							{
								"patchline" : 								{
									"source" : [ "obj-1", 0 ],
									"destination" : [ "obj-54", 0 ],
									"hidden" : 0,
									"midpoints" : [  ]
								}

							}
, 							{
								"patchline" : 								{
									"source" : [ "obj-51", 0 ],
									"destination" : [ "obj-5", 0 ],
									"hidden" : 0,
									"midpoints" : [  ]
								}

							}
, 							{
								"patchline" : 								{
									"source" : [ "obj-54", 0 ],
									"destination" : [ "obj-5", 0 ],
									"hidden" : 0,
									"midpoints" : [  ]
								}

							}
, 							{
								"patchline" : 								{
									"source" : [ "obj-4", 1 ],
									"destination" : [ "obj-6", 0 ],
									"hidden" : 0,
									"midpoints" : [  ]
								}

							}
, 							{
								"patchline" : 								{
									"source" : [ "obj-4", 0 ],
									"destination" : [ "obj-7", 0 ],
									"hidden" : 0,
									"midpoints" : [  ]
								}

							}
, 							{
								"patchline" : 								{
									"source" : [ "obj-13", 0 ],
									"destination" : [ "obj-4", 0 ],
									"hidden" : 0,
									"midpoints" : [  ]
								}

							}
, 							{
								"patchline" : 								{
									"source" : [ "obj-56", 0 ],
									"destination" : [ "obj-4", 0 ],
									"hidden" : 0,
									"midpoints" : [  ]
								}

							}
, 							{
								"patchline" : 								{
									"source" : [ "obj-5", 0 ],
									"destination" : [ "obj-9", 0 ],
									"hidden" : 0,
									"midpoints" : [  ]
								}

							}
, 							{
								"patchline" : 								{
									"source" : [ "obj-5", 1 ],
									"destination" : [ "obj-15", 0 ],
									"hidden" : 0,
									"midpoints" : [  ]
								}

							}
 ]
					}
,
					"saved_object_attributes" : 					{
						"fontname" : "Arial",
						"default_fontsize" : 10.0,
						"globalpatchername" : "",
						"fontface" : 0,
						"fontsize" : 10.0,
						"default_fontface" : 0,
						"default_fontname" : "Arial"
					}

				}

			}
, 			{
				"box" : 				{
					"maxclass" : "newobj",
					"text" : "jcom.test.assert.equal TESTdumpoutlet /meat/chicken roasted",
					"fontname" : "Verdana",
					"numinlets" : 2,
					"numoutlets" : 0,
					"fontsize" : 10.0,
					"patching_rect" : [ 544.0, 206.0, 391.0, 19.0 ],
					"id" : "obj-16"
				}

			}
, 			{
				"box" : 				{
					"maxclass" : "newobj",
					"text" : "jcom.test.assert.equal TEST/adress /beans",
					"fontname" : "Verdana",
					"numinlets" : 2,
					"numoutlets" : 0,
					"fontsize" : 10.0,
					"patching_rect" : [ 628.0, 321.0, 329.0, 19.0 ],
					"id" : "obj-10"
				}

			}
, 			{
				"box" : 				{
					"maxclass" : "newobj",
					"text" : "jcom.test.assert.equal TESTlist 1 2 3",
					"fontname" : "Verdana",
					"numinlets" : 2,
					"numoutlets" : 0,
					"fontsize" : 10.0,
					"patching_rect" : [ 554.0, 290.0, 302.0, 19.0 ],
					"id" : "obj-14"
				}

			}
, 			{
				"box" : 				{
					"maxclass" : "newobj",
					"text" : "jcom.test.assert.equal TESTfloat 7.8",
					"fontname" : "Verdana",
					"numinlets" : 2,
					"numoutlets" : 0,
					"fontsize" : 10.0,
					"patching_rect" : [ 480.0, 262.0, 294.0, 19.0 ],
					"id" : "obj-15"
				}

			}
, 			{
				"box" : 				{
					"maxclass" : "newobj",
					"text" : "jcom.test.assert.equal TEST/adress+int /banana 3",
					"fontname" : "Verdana",
					"numinlets" : 2,
					"numoutlets" : 0,
					"fontsize" : 10.0,
					"patching_rect" : [ 205.0, 313.0, 329.0, 19.0 ],
					"id" : "obj-9"
				}

			}
, 			{
				"box" : 				{
					"maxclass" : "newobj",
					"text" : "jcom.test.assert.equal TESTbang bang",
					"fontname" : "Verdana",
					"numinlets" : 2,
					"numoutlets" : 0,
					"fontsize" : 10.0,
					"patching_rect" : [ 131.0, 283.0, 302.0, 19.0 ],
					"id" : "obj-3"
				}

			}
, 			{
				"box" : 				{
					"maxclass" : "newobj",
					"text" : "loadbang",
					"fontname" : "Verdana",
					"numinlets" : 1,
					"numoutlets" : 1,
					"fontsize" : 10.0,
					"outlettype" : [ "bang" ],
					"patching_rect" : [ 58.0, 28.0, 58.0, 19.0 ],
					"id" : "obj-2"
				}

			}
, 			{
				"box" : 				{
					"maxclass" : "message",
					"text" : "/fruit/orange",
					"fontname" : "Verdana",
					"numinlets" : 2,
					"numoutlets" : 1,
					"fontsize" : 10.0,
					"outlettype" : [ "" ],
					"patching_rect" : [ 150.0, 96.0, 74.0, 17.0 ],
					"id" : "obj-13"
				}

			}
, 			{
				"box" : 				{
					"maxclass" : "newobj",
					"text" : "jcom.oscroute /fruit /vegetable",
					"fontname" : "Verdana",
					"numinlets" : 1,
					"numoutlets" : 3,
					"fontsize" : 10.0,
					"outlettype" : [ "", "", "" ],
					"patching_rect" : [ 58.0, 163.0, 862.0, 19.0 ],
					"id" : "obj-17"
				}

			}
, 			{
				"box" : 				{
					"maxclass" : "newobj",
					"text" : "p thru",
					"fontname" : "Verdana",
					"numinlets" : 1,
					"numoutlets" : 1,
					"fontsize" : 10.0,
					"outlettype" : [ "" ],
					"patching_rect" : [ 58.0, 133.0, 46.0, 19.0 ],
					"id" : "obj-18",
					"patcher" : 					{
						"fileversion" : 1,
						"rect" : [ 44.0, 74.0, 600.0, 426.0 ],
						"bglocked" : 0,
						"defrect" : [ 44.0, 74.0, 600.0, 426.0 ],
						"openrect" : [ 0.0, 0.0, 0.0, 0.0 ],
						"openinpresentation" : 0,
						"default_fontsize" : 10.0,
						"default_fontface" : 0,
						"default_fontname" : "Verdana",
						"gridonopen" : 0,
						"gridsize" : [ 5.0, 5.0 ],
						"gridsnaponopen" : 0,
						"toolbarvisible" : 1,
						"boxanimatetime" : 200,
						"imprint" : 0,
						"metadata" : [  ],
						"boxes" : [ 							{
								"box" : 								{
									"maxclass" : "outlet",
									"numinlets" : 1,
									"numoutlets" : 0,
									"patching_rect" : [ 50.0, 60.0, 15.0, 15.0 ],
									"id" : "obj-1",
									"comment" : ""
								}

							}
, 							{
								"box" : 								{
									"maxclass" : "inlet",
									"numinlets" : 0,
									"numoutlets" : 1,
									"outlettype" : [ "" ],
									"patching_rect" : [ 50.0, 30.0, 15.0, 15.0 ],
									"id" : "obj-2",
									"comment" : ""
								}

							}
 ],
						"lines" : [ 							{
								"patchline" : 								{
									"source" : [ "obj-2", 0 ],
									"destination" : [ "obj-1", 0 ],
									"hidden" : 0,
									"midpoints" : [  ]
								}

							}
 ]
					}
,
					"saved_object_attributes" : 					{
						"fontname" : "Verdana",
						"default_fontsize" : 10.0,
						"globalpatchername" : "",
						"fontface" : 0,
						"fontsize" : 10.0,
						"default_fontface" : 0,
						"default_fontname" : "Verdana"
					}

				}

			}
, 			{
				"box" : 				{
					"maxclass" : "newobj",
					"text" : "jcom.oscroute /potato /carrots",
					"fontname" : "Verdana",
					"numinlets" : 1,
					"numoutlets" : 3,
					"fontsize" : 10.0,
					"outlettype" : [ "", "", "" ],
					"patching_rect" : [ 480.0, 234.0, 166.0, 19.0 ],
					"id" : "obj-49"
				}

			}
, 			{
				"box" : 				{
					"maxclass" : "newobj",
					"text" : "jcom.oscroute /apple /orange",
					"fontname" : "Verdana",
					"numinlets" : 1,
					"numoutlets" : 3,
					"fontsize" : 10.0,
					"outlettype" : [ "", "", "" ],
					"patching_rect" : [ 58.0, 227.0, 165.0, 19.0 ],
					"id" : "obj-50"
				}

			}
, 			{
				"box" : 				{
					"maxclass" : "message",
					"text" : "/vegetable/carrots 1 2 3",
					"fontname" : "Verdana",
					"numinlets" : 2,
					"numoutlets" : 1,
					"fontsize" : 10.0,
					"outlettype" : [ "" ],
					"patching_rect" : [ 473.0, 96.0, 159.0, 17.0 ],
					"id" : "obj-51"
				}

			}
, 			{
				"box" : 				{
					"maxclass" : "message",
					"text" : "/vegetable/beans",
					"fontname" : "Verdana",
					"numinlets" : 2,
					"numoutlets" : 1,
					"fontsize" : 10.0,
					"outlettype" : [ "" ],
					"patching_rect" : [ 637.0, 96.0, 122.0, 17.0 ],
					"id" : "obj-52"
				}

			}
, 			{
				"box" : 				{
					"maxclass" : "message",
					"text" : "/vegetable/potato 7.8",
					"fontname" : "Verdana",
					"numinlets" : 2,
					"numoutlets" : 1,
					"fontsize" : 10.0,
					"outlettype" : [ "" ],
					"patching_rect" : [ 326.0, 96.0, 139.0, 17.0 ],
					"id" : "obj-53"
				}

			}
, 			{
				"box" : 				{
					"maxclass" : "message",
					"text" : "/fruit/banana 3",
					"fontname" : "Verdana",
					"numinlets" : 2,
					"numoutlets" : 1,
					"fontsize" : 10.0,
					"outlettype" : [ "" ],
					"patching_rect" : [ 233.0, 96.0, 86.0, 17.0 ],
					"id" : "obj-54"
				}

			}
, 			{
				"box" : 				{
					"maxclass" : "message",
					"text" : "/fruit/apple red",
					"fontname" : "Verdana",
					"numinlets" : 2,
					"numoutlets" : 1,
					"fontsize" : 10.0,
					"outlettype" : [ "" ],
					"patching_rect" : [ 58.0, 96.0, 87.0, 17.0 ],
					"id" : "obj-56"
				}

			}
, 			{
				"box" : 				{
					"maxclass" : "message",
					"text" : "/meat/chicken roasted",
					"fontname" : "Verdana",
					"numinlets" : 2,
					"numoutlets" : 1,
					"fontsize" : 10.0,
					"outlettype" : [ "" ],
					"patching_rect" : [ 766.0, 96.0, 123.0, 17.0 ],
					"id" : "obj-57"
				}

			}
, 			{
				"box" : 				{
					"maxclass" : "newobj",
					"text" : "jcom.test.finished",
					"fontname" : "Verdana",
					"numinlets" : 1,
					"numoutlets" : 1,
					"fontsize" : 10.0,
					"outlettype" : [ "" ],
					"patching_rect" : [ 13.0, 314.0, 100.0, 19.0 ],
					"id" : "obj-8"
				}

			}
, 			{
				"box" : 				{
					"maxclass" : "newobj",
					"text" : "jcom.test.assert.equal TESTsymbol red",
					"fontname" : "Verdana",
					"numinlets" : 2,
					"numoutlets" : 0,
					"fontsize" : 10.0,
					"patching_rect" : [ 58.0, 254.0, 294.0, 19.0 ],
					"id" : "obj-6"
				}

			}
 ],
		"lines" : [ 			{
				"patchline" : 				{
					"source" : [ "obj-8", 0 ],
					"destination" : [ "obj-5", 0 ],
					"hidden" : 0,
					"midpoints" : [  ]
				}

			}
, 			{
				"patchline" : 				{
					"source" : [ "obj-4", 0 ],
					"destination" : [ "obj-2", 0 ],
					"hidden" : 0,
					"midpoints" : [  ]
				}

			}
, 			{
				"patchline" : 				{
					"source" : [ "obj-17", 1 ],
					"destination" : [ "obj-49", 0 ],
					"hidden" : 0,
					"midpoints" : [ 489.0, 203.0, 489.5, 203.0 ]
				}

			}
, 			{
				"patchline" : 				{
					"source" : [ "obj-17", 0 ],
					"destination" : [ "obj-50", 0 ],
					"hidden" : 0,
					"midpoints" : [  ]
				}

			}
, 			{
				"patchline" : 				{
					"source" : [ "obj-18", 0 ],
					"destination" : [ "obj-17", 0 ],
					"hidden" : 0,
					"midpoints" : [  ]
				}

			}
, 			{
				"patchline" : 				{
					"source" : [ "obj-53", 0 ],
					"destination" : [ "obj-18", 0 ],
					"hidden" : 0,
					"midpoints" : [ 335.5, 120.0, 67.5, 120.0 ]
				}

			}
, 			{
				"patchline" : 				{
					"source" : [ "obj-56", 0 ],
					"destination" : [ "obj-18", 0 ],
					"hidden" : 0,
					"midpoints" : [ 67.5, 121.0, 67.5, 121.0 ]
				}

			}
, 			{
				"patchline" : 				{
					"source" : [ "obj-57", 0 ],
					"destination" : [ "obj-18", 0 ],
					"hidden" : 0,
					"midpoints" : [ 775.5, 121.0, 67.5, 121.0 ]
				}

			}
, 			{
				"patchline" : 				{
					"source" : [ "obj-52", 0 ],
					"destination" : [ "obj-18", 0 ],
					"hidden" : 0,
					"midpoints" : [ 646.5, 120.0, 67.5, 120.0 ]
				}

			}
, 			{
				"patchline" : 				{
					"source" : [ "obj-51", 0 ],
					"destination" : [ "obj-18", 0 ],
					"hidden" : 0,
					"midpoints" : [ 482.5, 120.0, 67.5, 120.0 ]
				}

			}
, 			{
				"patchline" : 				{
					"source" : [ "obj-13", 0 ],
					"destination" : [ "obj-18", 0 ],
					"hidden" : 0,
					"midpoints" : [ 159.5, 120.0, 67.5, 120.0 ]
				}

			}
, 			{
				"patchline" : 				{
					"source" : [ "obj-2", 0 ],
					"destination" : [ "obj-8", 0 ],
					"hidden" : 0,
					"midpoints" : [ 67.5, 55.0, 22.5, 55.0 ]
				}

			}
, 			{
				"patchline" : 				{
					"source" : [ "obj-2", 0 ],
					"destination" : [ "obj-56", 0 ],
					"hidden" : 0,
					"midpoints" : [  ]
				}

			}
, 			{
				"patchline" : 				{
					"source" : [ "obj-2", 0 ],
					"destination" : [ "obj-13", 0 ],
					"hidden" : 0,
					"midpoints" : [  ]
				}

			}
, 			{
				"patchline" : 				{
					"source" : [ "obj-54", 0 ],
					"destination" : [ "obj-18", 0 ],
					"hidden" : 0,
					"midpoints" : [ 242.5, 121.0, 67.5, 121.0 ]
				}

			}
, 			{
				"patchline" : 				{
					"source" : [ "obj-2", 0 ],
					"destination" : [ "obj-54", 0 ],
					"hidden" : 0,
					"midpoints" : [  ]
				}

			}
, 			{
				"patchline" : 				{
					"source" : [ "obj-2", 0 ],
					"destination" : [ "obj-53", 0 ],
					"hidden" : 0,
					"midpoints" : [  ]
				}

			}
, 			{
				"patchline" : 				{
					"source" : [ "obj-2", 0 ],
					"destination" : [ "obj-51", 0 ],
					"hidden" : 0,
					"midpoints" : [  ]
				}

			}
, 			{
				"patchline" : 				{
					"source" : [ "obj-2", 0 ],
					"destination" : [ "obj-52", 0 ],
					"hidden" : 0,
					"midpoints" : [  ]
				}

			}
, 			{
				"patchline" : 				{
					"source" : [ "obj-2", 0 ],
					"destination" : [ "obj-57", 0 ],
					"hidden" : 0,
					"midpoints" : [  ]
				}

			}
, 			{
				"patchline" : 				{
					"source" : [ "obj-50", 0 ],
					"destination" : [ "obj-6", 0 ],
					"hidden" : 0,
					"midpoints" : [  ]
				}

			}
, 			{
				"patchline" : 				{
					"source" : [ "obj-50", 1 ],
					"destination" : [ "obj-3", 0 ],
					"hidden" : 0,
					"midpoints" : [  ]
				}

			}
, 			{
				"patchline" : 				{
					"source" : [ "obj-50", 2 ],
					"destination" : [ "obj-9", 0 ],
					"hidden" : 0,
					"midpoints" : [  ]
				}

			}
, 			{
				"patchline" : 				{
					"source" : [ "obj-49", 0 ],
					"destination" : [ "obj-15", 0 ],
					"hidden" : 0,
					"midpoints" : [  ]
				}

			}
, 			{
				"patchline" : 				{
					"source" : [ "obj-49", 1 ],
					"destination" : [ "obj-14", 0 ],
					"hidden" : 0,
					"midpoints" : [  ]
				}

			}
, 			{
				"patchline" : 				{
					"source" : [ "obj-49", 2 ],
					"destination" : [ "obj-10", 0 ],
					"hidden" : 0,
					"midpoints" : [  ]
				}

			}
, 			{
				"patchline" : 				{
					"source" : [ "obj-17", 2 ],
					"destination" : [ "obj-16", 0 ],
					"hidden" : 0,
					"midpoints" : [ 910.5, 192.0, 553.5, 192.0 ]
				}

			}
, 			{
				"patchline" : 				{
					"source" : [ "obj-2", 0 ],
					"destination" : [ "obj-23", 0 ],
					"hidden" : 0,
					"midpoints" : [ 67.5, 55.0, 38.5, 55.0 ]
				}

			}
 ]
	}

}
