{
	"patcher" : 	{
		"fileversion" : 1,
		"rect" : [ 119.0, 437.0, 968.0, 375.0 ],
		"bglocked" : 0,
		"defrect" : [ 119.0, 437.0, 968.0, 375.0 ],
		"openrect" : [ 0.0, 0.0, 0.0, 0.0 ],
		"openinpresentation" : 0,
		"default_fontsize" : 10.0,
		"default_fontface" : 0,
		"default_fontname" : "Verdana",
		"gridonopen" : 0,
		"gridsize" : [ 5.0, 5.0 ],
		"gridsnaponopen" : 0,
		"toolbarvisible" : 1,
		"boxanimatetime" : 200,
		"imprint" : 0,
		"metadata" : [  ],
		"boxes" : [ 			{
				"box" : 				{
					"maxclass" : "newobj",
					"text" : "t b b b b",
					"numinlets" : 1,
					"numoutlets" : 4,
					"fontsize" : 10.0,
					"outlettype" : [ "bang", "bang", "bang", "bang" ],
					"patching_rect" : [ 120.0, 110.0, 59.5, 19.0 ],
					"id" : "obj-4",
					"fontname" : "Verdana"
				}

			}
, 			{
				"box" : 				{
					"maxclass" : "newobj",
					"text" : "thispatcher",
					"numinlets" : 1,
					"numoutlets" : 2,
					"fontsize" : 10.0,
					"outlettype" : [ "", "" ],
					"patching_rect" : [ 120.0, 220.0, 67.0, 19.0 ],
					"id" : "obj-53",
					"fontname" : "Verdana",
					"save" : [ "#N", "thispatcher", ";", "#Q", "end", ";" ]
				}

			}
, 			{
				"box" : 				{
					"maxclass" : "newobj",
					"text" : "jcom.test.finished",
					"numinlets" : 1,
					"numoutlets" : 1,
					"fontsize" : 10.0,
					"outlettype" : [ "" ],
					"patching_rect" : [ 120.0, 195.0, 100.0, 19.0 ],
					"id" : "obj-54",
					"fontname" : "Verdana"
				}

			}
, 			{
				"box" : 				{
					"maxclass" : "button",
					"numinlets" : 1,
					"numoutlets" : 1,
					"outlettype" : [ "bang" ],
					"patching_rect" : [ 430.0, 165.0, 20.0, 20.0 ],
					"id" : "obj-3"
				}

			}
, 			{
				"box" : 				{
					"maxclass" : "button",
					"numinlets" : 1,
					"numoutlets" : 1,
					"outlettype" : [ "bang" ],
					"patching_rect" : [ 625.0, 165.0, 20.0, 20.0 ],
					"id" : "obj-2"
				}

			}
, 			{
				"box" : 				{
					"maxclass" : "newobj",
					"text" : "loadbang",
					"numinlets" : 1,
					"numoutlets" : 1,
					"fontsize" : 10.0,
					"outlettype" : [ "bang" ],
					"patching_rect" : [ 120.0, 85.0, 56.0, 19.0 ],
					"id" : "obj-1",
					"fontname" : "Verdana"
				}

			}
, 			{
				"box" : 				{
					"maxclass" : "newobj",
					"text" : "p osc_messages_with_instances",
					"numinlets" : 1,
					"numoutlets" : 0,
					"fontsize" : 10.0,
					"patching_rect" : [ 240.0, 195.0, 173.0, 19.0 ],
					"id" : "obj-6",
					"fontname" : "Verdana",
					"patcher" : 					{
						"fileversion" : 1,
						"rect" : [ 923.0, 78.0, 441.0, 292.0 ],
						"bglocked" : 0,
						"defrect" : [ 923.0, 78.0, 441.0, 292.0 ],
						"openrect" : [ 0.0, 0.0, 0.0, 0.0 ],
						"openinpresentation" : 0,
						"default_fontsize" : 10.0,
						"default_fontface" : 0,
						"default_fontname" : "Verdana",
						"gridonopen" : 0,
						"gridsize" : [ 5.0, 5.0 ],
						"gridsnaponopen" : 0,
						"toolbarvisible" : 1,
						"boxanimatetime" : 200,
						"imprint" : 0,
						"metadata" : [  ],
						"boxes" : [ 							{
								"box" : 								{
									"maxclass" : "newobj",
									"text" : "p osc_int_instance_no_subbranch",
									"numinlets" : 1,
									"numoutlets" : 0,
									"fontsize" : 10.0,
									"patching_rect" : [ 50.0, 215.0, 181.0, 19.0 ],
									"id" : "obj-40",
									"fontname" : "Verdana",
									"patcher" : 									{
										"fileversion" : 1,
										"rect" : [ 50.0, 94.0, 1095.0, 636.0 ],
										"bglocked" : 0,
										"defrect" : [ 50.0, 94.0, 1095.0, 636.0 ],
										"openrect" : [ 0.0, 0.0, 0.0, 0.0 ],
										"openinpresentation" : 0,
										"default_fontsize" : 10.0,
										"default_fontface" : 0,
										"default_fontname" : "Verdana",
										"gridonopen" : 0,
										"gridsize" : [ 5.0, 5.0 ],
										"gridsnaponopen" : 0,
										"toolbarvisible" : 1,
										"boxanimatetime" : 200,
										"imprint" : 0,
										"metadata" : [  ],
										"boxes" : [ 											{
												"box" : 												{
													"maxclass" : "newobj",
													"text" : "zl reg",
													"numinlets" : 2,
													"numoutlets" : 2,
													"fontsize" : 10.0,
													"outlettype" : [ "", "" ],
													"patching_rect" : [ 245.0, 266.5, 47.0, 19.0 ],
													"id" : "obj-2",
													"fontname" : "Verdana"
												}

											}
, 											{
												"box" : 												{
													"maxclass" : "newobj",
													"text" : "jcom.test.assert.equal TEST1/jcom.oscinstance/osc_int_instance_no_subbranch:ARGUMENTS 1. 1. 2.",
													"numinlets" : 2,
													"numoutlets" : 0,
													"fontsize" : 10.0,
													"patching_rect" : [ 245.0, 290.0, 524.0, 19.0 ],
													"id" : "obj-3",
													"fontname" : "Verdana"
												}

											}
, 											{
												"box" : 												{
													"maxclass" : "newobj",
													"text" : "i",
													"numinlets" : 2,
													"numoutlets" : 1,
													"fontsize" : 10.0,
													"outlettype" : [ "int" ],
													"patching_rect" : [ 135.0, 295.0, 32.5, 19.0 ],
													"id" : "obj-9",
													"fontname" : "Verdana"
												}

											}
, 											{
												"box" : 												{
													"maxclass" : "newobj",
													"text" : "route int",
													"numinlets" : 1,
													"numoutlets" : 2,
													"fontsize" : 10.0,
													"outlettype" : [ "", "" ],
													"patching_rect" : [ 160.0, 270.0, 54.0, 19.0 ],
													"id" : "obj-1",
													"fontname" : "Verdana"
												}

											}
, 											{
												"box" : 												{
													"maxclass" : "button",
													"numinlets" : 1,
													"numoutlets" : 1,
													"outlettype" : [ "bang" ],
													"patching_rect" : [ 50.0, 101.5, 20.0, 20.0 ],
													"id" : "obj-26"
												}

											}
, 											{
												"box" : 												{
													"maxclass" : "message",
													"text" : "/source.47 1. 1. 2.",
													"numinlets" : 2,
													"numoutlets" : 1,
													"fontsize" : 10.0,
													"outlettype" : [ "" ],
													"patching_rect" : [ 290.0, 151.5, 105.0, 17.0 ],
													"id" : "obj-10",
													"fontname" : "Verdana"
												}

											}
, 											{
												"box" : 												{
													"maxclass" : "newobj",
													"text" : "zl reg",
													"numinlets" : 2,
													"numoutlets" : 2,
													"fontsize" : 10.0,
													"outlettype" : [ "", "" ],
													"patching_rect" : [ 70.0, 270.0, 47.0, 19.0 ],
													"id" : "obj-11",
													"fontname" : "Verdana"
												}

											}
, 											{
												"box" : 												{
													"maxclass" : "newobj",
													"text" : "t b b 0.",
													"numinlets" : 1,
													"numoutlets" : 3,
													"fontsize" : 10.0,
													"outlettype" : [ "bang", "bang", "float" ],
													"patching_rect" : [ 70.0, 101.5, 47.0, 19.0 ],
													"id" : "obj-12",
													"fontname" : "Verdana"
												}

											}
, 											{
												"box" : 												{
													"maxclass" : "newobj",
													"text" : "jcom.oscinstance",
													"numinlets" : 1,
													"numoutlets" : 4,
													"fontsize" : 10.0,
													"outlettype" : [ "", "", "", "" ],
													"patching_rect" : [ 290.0, 171.5, 97.0, 19.0 ],
													"id" : "obj-13",
													"fontname" : "Verdana"
												}

											}
, 											{
												"box" : 												{
													"maxclass" : "newobj",
													"text" : "jcom.test.assert.equal TEST3/jcom.oscinstance/osc_int_instance_no_subbranch:OSC /source",
													"numinlets" : 2,
													"numoutlets" : 0,
													"fontsize" : 10.0,
													"patching_rect" : [ 70.0, 353.5, 482.0, 19.0 ],
													"id" : "obj-15",
													"fontname" : "Verdana"
												}

											}
, 											{
												"box" : 												{
													"maxclass" : "newobj",
													"text" : "jcom.test.assert.equal TEST2/jcom.oscinstance/osc_int_instance_no_subbranch:INSTANCE 47",
													"numinlets" : 2,
													"numoutlets" : 0,
													"fontsize" : 10.0,
													"patching_rect" : [ 135.0, 320.0, 487.0, 19.0 ],
													"id" : "obj-16",
													"fontname" : "Verdana"
												}

											}
, 											{
												"box" : 												{
													"maxclass" : "inlet",
													"numinlets" : 0,
													"numoutlets" : 1,
													"outlettype" : [ "bang" ],
													"patching_rect" : [ 75.0, 40.0, 25.0, 25.0 ],
													"id" : "obj-39",
													"comment" : ""
												}

											}
 ],
										"lines" : [ 											{
												"patchline" : 												{
													"source" : [ "obj-2", 0 ],
													"destination" : [ "obj-3", 0 ],
													"hidden" : 0,
													"midpoints" : [  ]
												}

											}
, 											{
												"patchline" : 												{
													"source" : [ "obj-12", 0 ],
													"destination" : [ "obj-2", 0 ],
													"hidden" : 0,
													"midpoints" : [  ]
												}

											}
, 											{
												"patchline" : 												{
													"source" : [ "obj-12", 2 ],
													"destination" : [ "obj-2", 1 ],
													"hidden" : 0,
													"midpoints" : [  ]
												}

											}
, 											{
												"patchline" : 												{
													"source" : [ "obj-13", 2 ],
													"destination" : [ "obj-2", 1 ],
													"hidden" : 0,
													"midpoints" : [  ]
												}

											}
, 											{
												"patchline" : 												{
													"source" : [ "obj-11", 0 ],
													"destination" : [ "obj-15", 0 ],
													"hidden" : 0,
													"midpoints" : [  ]
												}

											}
, 											{
												"patchline" : 												{
													"source" : [ "obj-9", 0 ],
													"destination" : [ "obj-16", 0 ],
													"hidden" : 0,
													"midpoints" : [  ]
												}

											}
, 											{
												"patchline" : 												{
													"source" : [ "obj-10", 0 ],
													"destination" : [ "obj-13", 0 ],
													"hidden" : 0,
													"midpoints" : [  ]
												}

											}
, 											{
												"patchline" : 												{
													"source" : [ "obj-12", 0 ],
													"destination" : [ "obj-11", 0 ],
													"hidden" : 0,
													"midpoints" : [  ]
												}

											}
, 											{
												"patchline" : 												{
													"source" : [ "obj-12", 2 ],
													"destination" : [ "obj-11", 1 ],
													"hidden" : 0,
													"midpoints" : [  ]
												}

											}
, 											{
												"patchline" : 												{
													"source" : [ "obj-26", 0 ],
													"destination" : [ "obj-12", 0 ],
													"hidden" : 0,
													"midpoints" : [  ]
												}

											}
, 											{
												"patchline" : 												{
													"source" : [ "obj-13", 1 ],
													"destination" : [ "obj-1", 0 ],
													"hidden" : 0,
													"midpoints" : [  ]
												}

											}
, 											{
												"patchline" : 												{
													"source" : [ "obj-12", 2 ],
													"destination" : [ "obj-9", 1 ],
													"hidden" : 0,
													"midpoints" : [  ]
												}

											}
, 											{
												"patchline" : 												{
													"source" : [ "obj-1", 0 ],
													"destination" : [ "obj-9", 1 ],
													"hidden" : 0,
													"midpoints" : [  ]
												}

											}
, 											{
												"patchline" : 												{
													"source" : [ "obj-12", 0 ],
													"destination" : [ "obj-9", 0 ],
													"hidden" : 0,
													"midpoints" : [  ]
												}

											}
, 											{
												"patchline" : 												{
													"source" : [ "obj-12", 1 ],
													"destination" : [ "obj-10", 0 ],
													"hidden" : 0,
													"midpoints" : [ 93.5, 138.0, 299.5, 138.0 ]
												}

											}
, 											{
												"patchline" : 												{
													"source" : [ "obj-13", 0 ],
													"destination" : [ "obj-11", 1 ],
													"hidden" : 0,
													"midpoints" : [  ]
												}

											}
, 											{
												"patchline" : 												{
													"source" : [ "obj-39", 0 ],
													"destination" : [ "obj-12", 0 ],
													"hidden" : 0,
													"midpoints" : [  ]
												}

											}
 ]
									}
,
									"saved_object_attributes" : 									{
										"globalpatchername" : "",
										"fontface" : 0,
										"fontsize" : 10.0,
										"default_fontface" : 0,
										"default_fontname" : "Verdana",
										"fontname" : "Verdana",
										"default_fontsize" : 10.0
									}

								}

							}
, 							{
								"box" : 								{
									"maxclass" : "newobj",
									"text" : "p osc_int_instance_and_subbranch",
									"numinlets" : 1,
									"numoutlets" : 0,
									"fontsize" : 10.0,
									"patching_rect" : [ 70.0, 190.0, 187.0, 19.0 ],
									"id" : "obj-38",
									"fontname" : "Verdana",
									"patcher" : 									{
										"fileversion" : 1,
										"rect" : [ 50.0, 94.0, 886.0, 499.0 ],
										"bglocked" : 0,
										"defrect" : [ 50.0, 94.0, 886.0, 499.0 ],
										"openrect" : [ 0.0, 0.0, 0.0, 0.0 ],
										"openinpresentation" : 0,
										"default_fontsize" : 10.0,
										"default_fontface" : 0,
										"default_fontname" : "Verdana",
										"gridonopen" : 0,
										"gridsize" : [ 5.0, 5.0 ],
										"gridsnaponopen" : 0,
										"toolbarvisible" : 1,
										"boxanimatetime" : 200,
										"imprint" : 0,
										"metadata" : [  ],
										"boxes" : [ 											{
												"box" : 												{
													"maxclass" : "newobj",
													"text" : "zl reg",
													"numinlets" : 2,
													"numoutlets" : 2,
													"fontsize" : 10.0,
													"outlettype" : [ "", "" ],
													"patching_rect" : [ 250.0, 281.5, 47.0, 19.0 ],
													"id" : "obj-1",
													"fontname" : "Verdana"
												}

											}
, 											{
												"box" : 												{
													"maxclass" : "newobj",
													"text" : "jcom.test.assert.equal TEST1/jcom.oscinstance/osc_int_instance_and_subbranch:ARGUMENTS 1. 1. 2.",
													"numinlets" : 2,
													"numoutlets" : 0,
													"fontsize" : 10.0,
													"patching_rect" : [ 250.0, 305.0, 530.0, 19.0 ],
													"id" : "obj-7",
													"fontname" : "Verdana"
												}

											}
, 											{
												"box" : 												{
													"maxclass" : "newobj",
													"text" : "i",
													"numinlets" : 2,
													"numoutlets" : 1,
													"fontsize" : 10.0,
													"outlettype" : [ "int" ],
													"patching_rect" : [ 155.0, 310.0, 32.5, 19.0 ],
													"id" : "obj-23",
													"fontname" : "Verdana"
												}

											}
, 											{
												"box" : 												{
													"maxclass" : "newobj",
													"text" : "jcom.test.assert.equal TEST2/jcom.oscinstance/osc_int_instance_and_subbranch:INSTANCE 72",
													"numinlets" : 2,
													"numoutlets" : 0,
													"fontsize" : 10.0,
													"patching_rect" : [ 155.0, 335.0, 493.0, 19.0 ],
													"id" : "obj-25",
													"fontname" : "Verdana"
												}

											}
, 											{
												"box" : 												{
													"maxclass" : "newobj",
													"text" : "route int",
													"numinlets" : 1,
													"numoutlets" : 2,
													"fontsize" : 10.0,
													"outlettype" : [ "", "" ],
													"patching_rect" : [ 180.0, 285.0, 54.0, 19.0 ],
													"id" : "obj-8",
													"fontname" : "Verdana"
												}

											}
, 											{
												"box" : 												{
													"maxclass" : "button",
													"numinlets" : 1,
													"numoutlets" : 1,
													"outlettype" : [ "bang" ],
													"patching_rect" : [ 50.0, 101.5, 20.0, 20.0 ],
													"id" : "obj-24"
												}

											}
, 											{
												"box" : 												{
													"maxclass" : "message",
													"text" : "/source.72/xyz 1. 1. 2.",
													"numinlets" : 2,
													"numoutlets" : 1,
													"fontsize" : 10.0,
													"outlettype" : [ "" ],
													"patching_rect" : [ 300.0, 151.5, 127.0, 17.0 ],
													"id" : "obj-2",
													"fontname" : "Verdana"
												}

											}
, 											{
												"box" : 												{
													"maxclass" : "newobj",
													"text" : "zl reg",
													"numinlets" : 2,
													"numoutlets" : 2,
													"fontsize" : 10.0,
													"outlettype" : [ "", "" ],
													"patching_rect" : [ 75.0, 310.0, 47.0, 19.0 ],
													"id" : "obj-3",
													"fontname" : "Verdana"
												}

											}
, 											{
												"box" : 												{
													"maxclass" : "newobj",
													"text" : "t b b 0.",
													"numinlets" : 1,
													"numoutlets" : 3,
													"fontsize" : 10.0,
													"outlettype" : [ "bang", "bang", "float" ],
													"patching_rect" : [ 75.0, 101.5, 47.0, 19.0 ],
													"id" : "obj-4",
													"fontname" : "Verdana"
												}

											}
, 											{
												"box" : 												{
													"maxclass" : "newobj",
													"text" : "jcom.oscinstance",
													"numinlets" : 1,
													"numoutlets" : 4,
													"fontsize" : 10.0,
													"outlettype" : [ "", "", "", "" ],
													"patching_rect" : [ 300.0, 171.5, 97.0, 19.0 ],
													"id" : "obj-5",
													"fontname" : "Verdana"
												}

											}
, 											{
												"box" : 												{
													"maxclass" : "newobj",
													"text" : "jcom.test.assert.equal TEST3/jcom.oscinstance/osc_int_instance_and_subbranch:OSC /source/xyz",
													"numinlets" : 2,
													"numoutlets" : 0,
													"fontsize" : 10.0,
													"patching_rect" : [ 75.0, 373.5, 510.0, 19.0 ],
													"id" : "obj-6",
													"fontname" : "Verdana"
												}

											}
, 											{
												"box" : 												{
													"maxclass" : "inlet",
													"numinlets" : 0,
													"numoutlets" : 1,
													"outlettype" : [ "bang" ],
													"patching_rect" : [ 80.0, 40.0, 25.0, 25.0 ],
													"id" : "obj-36",
													"comment" : ""
												}

											}
 ],
										"lines" : [ 											{
												"patchline" : 												{
													"source" : [ "obj-1", 0 ],
													"destination" : [ "obj-7", 0 ],
													"hidden" : 0,
													"midpoints" : [  ]
												}

											}
, 											{
												"patchline" : 												{
													"source" : [ "obj-3", 0 ],
													"destination" : [ "obj-6", 0 ],
													"hidden" : 0,
													"midpoints" : [  ]
												}

											}
, 											{
												"patchline" : 												{
													"source" : [ "obj-4", 0 ],
													"destination" : [ "obj-1", 0 ],
													"hidden" : 0,
													"midpoints" : [  ]
												}

											}
, 											{
												"patchline" : 												{
													"source" : [ "obj-4", 2 ],
													"destination" : [ "obj-1", 1 ],
													"hidden" : 0,
													"midpoints" : [  ]
												}

											}
, 											{
												"patchline" : 												{
													"source" : [ "obj-5", 2 ],
													"destination" : [ "obj-1", 1 ],
													"hidden" : 0,
													"midpoints" : [  ]
												}

											}
, 											{
												"patchline" : 												{
													"source" : [ "obj-23", 0 ],
													"destination" : [ "obj-25", 0 ],
													"hidden" : 0,
													"midpoints" : [  ]
												}

											}
, 											{
												"patchline" : 												{
													"source" : [ "obj-2", 0 ],
													"destination" : [ "obj-5", 0 ],
													"hidden" : 0,
													"midpoints" : [  ]
												}

											}
, 											{
												"patchline" : 												{
													"source" : [ "obj-5", 1 ],
													"destination" : [ "obj-8", 0 ],
													"hidden" : 0,
													"midpoints" : [  ]
												}

											}
, 											{
												"patchline" : 												{
													"source" : [ "obj-4", 2 ],
													"destination" : [ "obj-3", 1 ],
													"hidden" : 0,
													"midpoints" : [  ]
												}

											}
, 											{
												"patchline" : 												{
													"source" : [ "obj-4", 0 ],
													"destination" : [ "obj-3", 0 ],
													"hidden" : 0,
													"midpoints" : [  ]
												}

											}
, 											{
												"patchline" : 												{
													"source" : [ "obj-24", 0 ],
													"destination" : [ "obj-4", 0 ],
													"hidden" : 0,
													"midpoints" : [  ]
												}

											}
, 											{
												"patchline" : 												{
													"source" : [ "obj-4", 2 ],
													"destination" : [ "obj-23", 1 ],
													"hidden" : 0,
													"midpoints" : [  ]
												}

											}
, 											{
												"patchline" : 												{
													"source" : [ "obj-4", 0 ],
													"destination" : [ "obj-23", 0 ],
													"hidden" : 0,
													"midpoints" : [  ]
												}

											}
, 											{
												"patchline" : 												{
													"source" : [ "obj-8", 0 ],
													"destination" : [ "obj-23", 1 ],
													"hidden" : 0,
													"midpoints" : [  ]
												}

											}
, 											{
												"patchline" : 												{
													"source" : [ "obj-5", 0 ],
													"destination" : [ "obj-3", 1 ],
													"hidden" : 0,
													"midpoints" : [  ]
												}

											}
, 											{
												"patchline" : 												{
													"source" : [ "obj-4", 1 ],
													"destination" : [ "obj-2", 0 ],
													"hidden" : 0,
													"midpoints" : [  ]
												}

											}
, 											{
												"patchline" : 												{
													"source" : [ "obj-36", 0 ],
													"destination" : [ "obj-4", 0 ],
													"hidden" : 0,
													"midpoints" : [  ]
												}

											}
 ]
									}
,
									"saved_object_attributes" : 									{
										"globalpatchername" : "",
										"fontface" : 0,
										"fontsize" : 10.0,
										"default_fontface" : 0,
										"default_fontname" : "Verdana",
										"fontname" : "Verdana",
										"default_fontsize" : 10.0
									}

								}

							}
, 							{
								"box" : 								{
									"maxclass" : "newobj",
									"text" : "p osc_symbol_instance_no_subbranch",
									"numinlets" : 1,
									"numoutlets" : 0,
									"fontsize" : 10.0,
									"patching_rect" : [ 95.0, 165.0, 204.0, 19.0 ],
									"id" : "obj-35",
									"fontname" : "Verdana",
									"patcher" : 									{
										"fileversion" : 1,
										"rect" : [ 50.0, 94.0, 968.0, 506.0 ],
										"bglocked" : 0,
										"defrect" : [ 50.0, 94.0, 968.0, 506.0 ],
										"openrect" : [ 0.0, 0.0, 0.0, 0.0 ],
										"openinpresentation" : 0,
										"default_fontsize" : 10.0,
										"default_fontface" : 0,
										"default_fontname" : "Verdana",
										"gridonopen" : 0,
										"gridsize" : [ 5.0, 5.0 ],
										"gridsnaponopen" : 0,
										"toolbarvisible" : 1,
										"boxanimatetime" : 200,
										"imprint" : 0,
										"metadata" : [  ],
										"boxes" : [ 											{
												"box" : 												{
													"maxclass" : "newobj",
													"text" : "zl reg",
													"numinlets" : 2,
													"numoutlets" : 2,
													"fontsize" : 10.0,
													"outlettype" : [ "", "" ],
													"patching_rect" : [ 330.0, 280.0, 38.0, 19.0 ],
													"id" : "obj-1",
													"fontname" : "Verdana"
												}

											}
, 											{
												"box" : 												{
													"maxclass" : "newobj",
													"text" : "jcom.test.assert.equal TEST1/jcom.oscinstance/osc_symbol_instance_no_subbranch:ARGUMENTS 1. 1. 2.",
													"numinlets" : 2,
													"numoutlets" : 0,
													"fontsize" : 10.0,
													"patching_rect" : [ 330.0, 310.0, 547.0, 19.0 ],
													"id" : "obj-2",
													"fontname" : "Verdana"
												}

											}
, 											{
												"box" : 												{
													"maxclass" : "newobj",
													"text" : "zl reg",
													"numinlets" : 2,
													"numoutlets" : 2,
													"fontsize" : 10.0,
													"outlettype" : [ "", "" ],
													"patching_rect" : [ 155.0, 320.0, 38.0, 19.0 ],
													"id" : "obj-34",
													"fontname" : "Verdana"
												}

											}
, 											{
												"box" : 												{
													"maxclass" : "newobj",
													"text" : "jcom.test.assert.equal TEST2/jcom.oscinstance/osc_symbol_instance_no_subbranch:INSTANCE left",
													"numinlets" : 2,
													"numoutlets" : 0,
													"fontsize" : 10.0,
													"patching_rect" : [ 155.0, 350.0, 513.0, 19.0 ],
													"id" : "obj-33",
													"fontname" : "Verdana"
												}

											}
, 											{
												"box" : 												{
													"maxclass" : "button",
													"numinlets" : 1,
													"numoutlets" : 1,
													"outlettype" : [ "bang" ],
													"patching_rect" : [ 50.0, 101.5, 20.0, 20.0 ],
													"id" : "obj-22"
												}

											}
, 											{
												"box" : 												{
													"maxclass" : "message",
													"text" : "/channel.left 1. 1. 2.",
													"numinlets" : 2,
													"numoutlets" : 1,
													"fontsize" : 10.0,
													"outlettype" : [ "" ],
													"patching_rect" : [ 320.0, 151.5, 114.0, 17.0 ],
													"id" : "obj-17",
													"fontname" : "Verdana"
												}

											}
, 											{
												"box" : 												{
													"maxclass" : "newobj",
													"text" : "zl reg",
													"numinlets" : 2,
													"numoutlets" : 2,
													"fontsize" : 10.0,
													"outlettype" : [ "", "" ],
													"patching_rect" : [ 80.0, 320.0, 38.0, 19.0 ],
													"id" : "obj-18",
													"fontname" : "Verdana"
												}

											}
, 											{
												"box" : 												{
													"maxclass" : "newobj",
													"text" : "t b b 0.",
													"numinlets" : 1,
													"numoutlets" : 3,
													"fontsize" : 10.0,
													"outlettype" : [ "bang", "bang", "float" ],
													"patching_rect" : [ 75.0, 101.5, 47.0, 19.0 ],
													"id" : "obj-19",
													"fontname" : "Verdana"
												}

											}
, 											{
												"box" : 												{
													"maxclass" : "newobj",
													"text" : "jcom.oscinstance",
													"numinlets" : 1,
													"numoutlets" : 4,
													"fontsize" : 10.0,
													"outlettype" : [ "", "", "", "" ],
													"patching_rect" : [ 320.0, 171.5, 97.0, 19.0 ],
													"id" : "obj-20",
													"fontname" : "Verdana"
												}

											}
, 											{
												"box" : 												{
													"maxclass" : "newobj",
													"text" : "jcom.test.assert.equal TEST3/jcom.oscinstance/osc_symbol_instance_no_subbranch:OSC /channel",
													"numinlets" : 2,
													"numoutlets" : 0,
													"fontsize" : 10.0,
													"patching_rect" : [ 80.0, 398.5, 511.0, 19.0 ],
													"id" : "obj-21",
													"fontname" : "Verdana"
												}

											}
, 											{
												"box" : 												{
													"maxclass" : "inlet",
													"numinlets" : 0,
													"numoutlets" : 1,
													"outlettype" : [ "bang" ],
													"patching_rect" : [ 80.0, 40.0, 25.0, 25.0 ],
													"id" : "obj-32",
													"comment" : ""
												}

											}
 ],
										"lines" : [ 											{
												"patchline" : 												{
													"source" : [ "obj-19", 0 ],
													"destination" : [ "obj-1", 0 ],
													"hidden" : 0,
													"midpoints" : [  ]
												}

											}
, 											{
												"patchline" : 												{
													"source" : [ "obj-19", 2 ],
													"destination" : [ "obj-1", 1 ],
													"hidden" : 0,
													"midpoints" : [  ]
												}

											}
, 											{
												"patchline" : 												{
													"source" : [ "obj-20", 2 ],
													"destination" : [ "obj-1", 1 ],
													"hidden" : 0,
													"midpoints" : [  ]
												}

											}
, 											{
												"patchline" : 												{
													"source" : [ "obj-18", 0 ],
													"destination" : [ "obj-21", 0 ],
													"hidden" : 0,
													"midpoints" : [  ]
												}

											}
, 											{
												"patchline" : 												{
													"source" : [ "obj-34", 0 ],
													"destination" : [ "obj-33", 0 ],
													"hidden" : 0,
													"midpoints" : [  ]
												}

											}
, 											{
												"patchline" : 												{
													"source" : [ "obj-17", 0 ],
													"destination" : [ "obj-20", 0 ],
													"hidden" : 0,
													"midpoints" : [  ]
												}

											}
, 											{
												"patchline" : 												{
													"source" : [ "obj-19", 1 ],
													"destination" : [ "obj-17", 0 ],
													"hidden" : 0,
													"midpoints" : [ 98.5, 138.0, 329.5, 138.0 ]
												}

											}
, 											{
												"patchline" : 												{
													"source" : [ "obj-19", 0 ],
													"destination" : [ "obj-18", 0 ],
													"hidden" : 0,
													"midpoints" : [  ]
												}

											}
, 											{
												"patchline" : 												{
													"source" : [ "obj-19", 2 ],
													"destination" : [ "obj-18", 1 ],
													"hidden" : 0,
													"midpoints" : [  ]
												}

											}
, 											{
												"patchline" : 												{
													"source" : [ "obj-20", 0 ],
													"destination" : [ "obj-18", 1 ],
													"hidden" : 0,
													"midpoints" : [  ]
												}

											}
, 											{
												"patchline" : 												{
													"source" : [ "obj-22", 0 ],
													"destination" : [ "obj-19", 0 ],
													"hidden" : 0,
													"midpoints" : [  ]
												}

											}
, 											{
												"patchline" : 												{
													"source" : [ "obj-19", 0 ],
													"destination" : [ "obj-34", 0 ],
													"hidden" : 0,
													"midpoints" : [  ]
												}

											}
, 											{
												"patchline" : 												{
													"source" : [ "obj-19", 2 ],
													"destination" : [ "obj-34", 1 ],
													"hidden" : 0,
													"midpoints" : [  ]
												}

											}
, 											{
												"patchline" : 												{
													"source" : [ "obj-20", 1 ],
													"destination" : [ "obj-34", 1 ],
													"hidden" : 0,
													"midpoints" : [  ]
												}

											}
, 											{
												"patchline" : 												{
													"source" : [ "obj-32", 0 ],
													"destination" : [ "obj-19", 0 ],
													"hidden" : 0,
													"midpoints" : [  ]
												}

											}
, 											{
												"patchline" : 												{
													"source" : [ "obj-1", 0 ],
													"destination" : [ "obj-2", 0 ],
													"hidden" : 0,
													"midpoints" : [  ]
												}

											}
 ]
									}
,
									"saved_object_attributes" : 									{
										"globalpatchername" : "",
										"fontface" : 0,
										"fontsize" : 10.0,
										"default_fontface" : 0,
										"default_fontname" : "Verdana",
										"fontname" : "Verdana",
										"default_fontsize" : 10.0
									}

								}

							}
, 							{
								"box" : 								{
									"maxclass" : "newobj",
									"text" : "p osc_symbol_instance_and_subbranch",
									"numinlets" : 1,
									"numoutlets" : 0,
									"fontsize" : 10.0,
									"patching_rect" : [ 120.0, 140.0, 210.0, 19.0 ],
									"id" : "obj-31",
									"fontname" : "Verdana",
									"patcher" : 									{
										"fileversion" : 1,
										"rect" : [ 50.0, 94.0, 1004.0, 545.0 ],
										"bglocked" : 0,
										"defrect" : [ 50.0, 94.0, 1004.0, 545.0 ],
										"openrect" : [ 0.0, 0.0, 0.0, 0.0 ],
										"openinpresentation" : 0,
										"default_fontsize" : 10.0,
										"default_fontface" : 0,
										"default_fontname" : "Verdana",
										"gridonopen" : 0,
										"gridsize" : [ 5.0, 5.0 ],
										"gridsnaponopen" : 0,
										"toolbarvisible" : 1,
										"boxanimatetime" : 200,
										"imprint" : 0,
										"metadata" : [  ],
										"boxes" : [ 											{
												"box" : 												{
													"maxclass" : "newobj",
													"text" : "zl reg",
													"numinlets" : 2,
													"numoutlets" : 2,
													"fontsize" : 10.0,
													"outlettype" : [ "", "" ],
													"patching_rect" : [ 340.0, 285.0, 38.0, 19.0 ],
													"id" : "obj-1",
													"fontname" : "Verdana"
												}

											}
, 											{
												"box" : 												{
													"maxclass" : "newobj",
													"text" : "jcom.test.assert.equal TEST1/jcom.oscinstance/osc_symbol_instance_and_subbranch:ARGUMENTS 1 2 3",
													"numinlets" : 2,
													"numoutlets" : 0,
													"fontsize" : 10.0,
													"patching_rect" : [ 340.0, 315.0, 542.0, 19.0 ],
													"id" : "obj-2",
													"fontname" : "Verdana"
												}

											}
, 											{
												"box" : 												{
													"maxclass" : "newobj",
													"text" : "zl reg",
													"numinlets" : 2,
													"numoutlets" : 2,
													"fontsize" : 10.0,
													"outlettype" : [ "", "" ],
													"patching_rect" : [ 185.0, 335.0, 38.0, 19.0 ],
													"id" : "obj-35",
													"fontname" : "Verdana"
												}

											}
, 											{
												"box" : 												{
													"maxclass" : "newobj",
													"text" : "jcom.test.assert.equal TEST2/jcom.oscinstance/osc_symbol_instance_and_subbranch:INSTANCE then",
													"numinlets" : 2,
													"numoutlets" : 0,
													"fontsize" : 10.0,
													"patching_rect" : [ 185.0, 365.0, 526.0, 19.0 ],
													"id" : "obj-36",
													"fontname" : "Verdana"
												}

											}
, 											{
												"box" : 												{
													"maxclass" : "button",
													"numinlets" : 1,
													"numoutlets" : 1,
													"outlettype" : [ "bang" ],
													"patching_rect" : [ 50.0, 101.5, 20.0, 20.0 ],
													"id" : "obj-14"
												}

											}
, 											{
												"box" : 												{
													"maxclass" : "message",
													"text" : "/dot.then/slash 1 2 3",
													"numinlets" : 2,
													"numoutlets" : 1,
													"fontsize" : 10.0,
													"outlettype" : [ "" ],
													"patching_rect" : [ 340.0, 151.5, 117.0, 17.0 ],
													"id" : "obj-50",
													"fontname" : "Verdana"
												}

											}
, 											{
												"box" : 												{
													"maxclass" : "newobj",
													"text" : "zl reg",
													"numinlets" : 2,
													"numoutlets" : 2,
													"fontsize" : 10.0,
													"outlettype" : [ "", "" ],
													"patching_rect" : [ 75.0, 335.0, 38.0, 19.0 ],
													"id" : "obj-51",
													"fontname" : "Verdana"
												}

											}
, 											{
												"box" : 												{
													"maxclass" : "newobj",
													"text" : "t b b 0.",
													"numinlets" : 1,
													"numoutlets" : 3,
													"fontsize" : 10.0,
													"outlettype" : [ "bang", "bang", "float" ],
													"patching_rect" : [ 75.0, 101.5, 47.0, 19.0 ],
													"id" : "obj-52",
													"fontname" : "Verdana"
												}

											}
, 											{
												"box" : 												{
													"maxclass" : "newobj",
													"text" : "jcom.oscinstance",
													"numinlets" : 1,
													"numoutlets" : 4,
													"fontsize" : 10.0,
													"outlettype" : [ "", "", "", "" ],
													"patching_rect" : [ 340.0, 171.5, 97.0, 19.0 ],
													"id" : "obj-53",
													"fontname" : "Verdana"
												}

											}
, 											{
												"box" : 												{
													"maxclass" : "newobj",
													"text" : "jcom.test.assert.equal TEST3/jcom.oscinstance/osc_symbol_instance_and_subbranch:OSC /dot/slash",
													"numinlets" : 2,
													"numoutlets" : 0,
													"fontsize" : 10.0,
													"patching_rect" : [ 75.0, 405.0, 524.0, 19.0 ],
													"id" : "obj-54",
													"fontname" : "Verdana"
												}

											}
, 											{
												"box" : 												{
													"maxclass" : "inlet",
													"numinlets" : 0,
													"numoutlets" : 1,
													"outlettype" : [ "bang" ],
													"patching_rect" : [ 80.0, 40.0, 25.0, 25.0 ],
													"id" : "obj-30",
													"comment" : ""
												}

											}
 ],
										"lines" : [ 											{
												"patchline" : 												{
													"source" : [ "obj-1", 0 ],
													"destination" : [ "obj-2", 0 ],
													"hidden" : 0,
													"midpoints" : [  ]
												}

											}
, 											{
												"patchline" : 												{
													"source" : [ "obj-51", 0 ],
													"destination" : [ "obj-54", 0 ],
													"hidden" : 0,
													"midpoints" : [  ]
												}

											}
, 											{
												"patchline" : 												{
													"source" : [ "obj-52", 0 ],
													"destination" : [ "obj-1", 0 ],
													"hidden" : 0,
													"midpoints" : [  ]
												}

											}
, 											{
												"patchline" : 												{
													"source" : [ "obj-52", 2 ],
													"destination" : [ "obj-1", 1 ],
													"hidden" : 0,
													"midpoints" : [  ]
												}

											}
, 											{
												"patchline" : 												{
													"source" : [ "obj-53", 2 ],
													"destination" : [ "obj-1", 1 ],
													"hidden" : 0,
													"midpoints" : [  ]
												}

											}
, 											{
												"patchline" : 												{
													"source" : [ "obj-35", 0 ],
													"destination" : [ "obj-36", 0 ],
													"hidden" : 0,
													"midpoints" : [  ]
												}

											}
, 											{
												"patchline" : 												{
													"source" : [ "obj-50", 0 ],
													"destination" : [ "obj-53", 0 ],
													"hidden" : 0,
													"midpoints" : [  ]
												}

											}
, 											{
												"patchline" : 												{
													"source" : [ "obj-52", 1 ],
													"destination" : [ "obj-50", 0 ],
													"hidden" : 0,
													"midpoints" : [  ]
												}

											}
, 											{
												"patchline" : 												{
													"source" : [ "obj-52", 0 ],
													"destination" : [ "obj-51", 0 ],
													"hidden" : 0,
													"midpoints" : [  ]
												}

											}
, 											{
												"patchline" : 												{
													"source" : [ "obj-52", 2 ],
													"destination" : [ "obj-51", 1 ],
													"hidden" : 0,
													"midpoints" : [  ]
												}

											}
, 											{
												"patchline" : 												{
													"source" : [ "obj-53", 0 ],
													"destination" : [ "obj-51", 1 ],
													"hidden" : 0,
													"midpoints" : [  ]
												}

											}
, 											{
												"patchline" : 												{
													"source" : [ "obj-14", 0 ],
													"destination" : [ "obj-52", 0 ],
													"hidden" : 0,
													"midpoints" : [  ]
												}

											}
, 											{
												"patchline" : 												{
													"source" : [ "obj-53", 1 ],
													"destination" : [ "obj-35", 1 ],
													"hidden" : 0,
													"midpoints" : [  ]
												}

											}
, 											{
												"patchline" : 												{
													"source" : [ "obj-52", 2 ],
													"destination" : [ "obj-35", 1 ],
													"hidden" : 0,
													"midpoints" : [  ]
												}

											}
, 											{
												"patchline" : 												{
													"source" : [ "obj-52", 0 ],
													"destination" : [ "obj-35", 0 ],
													"hidden" : 0,
													"midpoints" : [  ]
												}

											}
, 											{
												"patchline" : 												{
													"source" : [ "obj-30", 0 ],
													"destination" : [ "obj-52", 0 ],
													"hidden" : 0,
													"midpoints" : [  ]
												}

											}
 ]
									}
,
									"saved_object_attributes" : 									{
										"globalpatchername" : "",
										"fontface" : 0,
										"fontsize" : 10.0,
										"default_fontface" : 0,
										"default_fontname" : "Verdana",
										"fontname" : "Verdana",
										"default_fontsize" : 10.0
									}

								}

							}
, 							{
								"box" : 								{
									"maxclass" : "newobj",
									"text" : "p instance_not_in_leading_branch",
									"numinlets" : 1,
									"numoutlets" : 0,
									"fontsize" : 10.0,
									"patching_rect" : [ 145.0, 115.0, 183.0, 19.0 ],
									"id" : "obj-28",
									"fontname" : "Verdana",
									"patcher" : 									{
										"fileversion" : 1,
										"rect" : [ 50.0, 94.0, 640.0, 480.0 ],
										"bglocked" : 0,
										"defrect" : [ 50.0, 94.0, 640.0, 480.0 ],
										"openrect" : [ 0.0, 0.0, 0.0, 0.0 ],
										"openinpresentation" : 0,
										"default_fontsize" : 10.0,
										"default_fontface" : 0,
										"default_fontname" : "Verdana",
										"gridonopen" : 0,
										"gridsize" : [ 5.0, 5.0 ],
										"gridsnaponopen" : 0,
										"toolbarvisible" : 1,
										"boxanimatetime" : 200,
										"imprint" : 0,
										"metadata" : [  ],
										"boxes" : [ 											{
												"box" : 												{
													"maxclass" : "button",
													"numinlets" : 1,
													"numoutlets" : 1,
													"outlettype" : [ "bang" ],
													"patching_rect" : [ 50.0, 101.5, 20.0, 20.0 ],
													"id" : "obj-7"
												}

											}
, 											{
												"box" : 												{
													"maxclass" : "message",
													"text" : "/slah/then.dot 1 2 3",
													"numinlets" : 2,
													"numoutlets" : 1,
													"fontsize" : 10.0,
													"outlettype" : [ "" ],
													"patching_rect" : [ 140.0, 136.5, 112.0, 17.0 ],
													"id" : "obj-45",
													"fontname" : "Verdana"
												}

											}
, 											{
												"box" : 												{
													"maxclass" : "newobj",
													"text" : "zl reg",
													"numinlets" : 2,
													"numoutlets" : 2,
													"fontsize" : 10.0,
													"outlettype" : [ "", "" ],
													"patching_rect" : [ 75.0, 191.5, 38.0, 19.0 ],
													"id" : "obj-46",
													"fontname" : "Verdana"
												}

											}
, 											{
												"box" : 												{
													"maxclass" : "newobj",
													"text" : "t b b 0.",
													"numinlets" : 1,
													"numoutlets" : 3,
													"fontsize" : 10.0,
													"outlettype" : [ "bang", "bang", "float" ],
													"patching_rect" : [ 75.0, 101.5, 47.0, 19.0 ],
													"id" : "obj-47",
													"fontname" : "Verdana"
												}

											}
, 											{
												"box" : 												{
													"maxclass" : "newobj",
													"text" : "jcom.oscinstance",
													"numinlets" : 1,
													"numoutlets" : 4,
													"fontsize" : 10.0,
													"outlettype" : [ "", "", "", "" ],
													"patching_rect" : [ 140.0, 156.5, 97.0, 19.0 ],
													"id" : "obj-48",
													"fontname" : "Verdana"
												}

											}
, 											{
												"box" : 												{
													"maxclass" : "newobj",
													"text" : "jcom.test.assert.equal TEST/jcom.oscinstance/osc_subbranch_has_instance /slah/then.dot 1 2 3",
													"numinlets" : 2,
													"numoutlets" : 0,
													"fontsize" : 10.0,
													"patching_rect" : [ 75.0, 221.5, 499.0, 19.0 ],
													"id" : "obj-49",
													"fontname" : "Verdana"
												}

											}
, 											{
												"box" : 												{
													"maxclass" : "inlet",
													"numinlets" : 0,
													"numoutlets" : 1,
													"outlettype" : [ "bang" ],
													"patching_rect" : [ 80.0, 40.0, 25.0, 25.0 ],
													"id" : "obj-27",
													"comment" : ""
												}

											}
 ],
										"lines" : [ 											{
												"patchline" : 												{
													"source" : [ "obj-46", 0 ],
													"destination" : [ "obj-49", 0 ],
													"hidden" : 0,
													"midpoints" : [  ]
												}

											}
, 											{
												"patchline" : 												{
													"source" : [ "obj-47", 2 ],
													"destination" : [ "obj-46", 1 ],
													"hidden" : 0,
													"midpoints" : [  ]
												}

											}
, 											{
												"patchline" : 												{
													"source" : [ "obj-47", 0 ],
													"destination" : [ "obj-46", 0 ],
													"hidden" : 0,
													"midpoints" : [  ]
												}

											}
, 											{
												"patchline" : 												{
													"source" : [ "obj-47", 1 ],
													"destination" : [ "obj-45", 0 ],
													"hidden" : 0,
													"midpoints" : [  ]
												}

											}
, 											{
												"patchline" : 												{
													"source" : [ "obj-45", 0 ],
													"destination" : [ "obj-48", 0 ],
													"hidden" : 0,
													"midpoints" : [  ]
												}

											}
, 											{
												"patchline" : 												{
													"source" : [ "obj-7", 0 ],
													"destination" : [ "obj-47", 0 ],
													"hidden" : 0,
													"midpoints" : [  ]
												}

											}
, 											{
												"patchline" : 												{
													"source" : [ "obj-48", 3 ],
													"destination" : [ "obj-46", 1 ],
													"hidden" : 0,
													"midpoints" : [  ]
												}

											}
, 											{
												"patchline" : 												{
													"source" : [ "obj-27", 0 ],
													"destination" : [ "obj-47", 0 ],
													"hidden" : 0,
													"midpoints" : [  ]
												}

											}
 ]
									}
,
									"saved_object_attributes" : 									{
										"globalpatchername" : "",
										"fontface" : 0,
										"fontsize" : 10.0,
										"default_fontface" : 0,
										"default_fontname" : "Verdana",
										"fontname" : "Verdana",
										"default_fontsize" : 10.0
									}

								}

							}
, 							{
								"box" : 								{
									"maxclass" : "inlet",
									"numinlets" : 0,
									"numoutlets" : 1,
									"outlettype" : [ "bang" ],
									"patching_rect" : [ 50.0, 40.0, 25.0, 25.0 ],
									"id" : "obj-59",
									"comment" : ""
								}

							}
 ],
						"lines" : [ 							{
								"patchline" : 								{
									"source" : [ "obj-59", 0 ],
									"destination" : [ "obj-40", 0 ],
									"hidden" : 0,
									"midpoints" : [  ]
								}

							}
, 							{
								"patchline" : 								{
									"source" : [ "obj-59", 0 ],
									"destination" : [ "obj-38", 0 ],
									"hidden" : 0,
									"midpoints" : [  ]
								}

							}
, 							{
								"patchline" : 								{
									"source" : [ "obj-59", 0 ],
									"destination" : [ "obj-35", 0 ],
									"hidden" : 0,
									"midpoints" : [  ]
								}

							}
, 							{
								"patchline" : 								{
									"source" : [ "obj-59", 0 ],
									"destination" : [ "obj-31", 0 ],
									"hidden" : 0,
									"midpoints" : [  ]
								}

							}
, 							{
								"patchline" : 								{
									"source" : [ "obj-59", 0 ],
									"destination" : [ "obj-28", 0 ],
									"hidden" : 0,
									"midpoints" : [  ]
								}

							}
 ]
					}
,
					"saved_object_attributes" : 					{
						"globalpatchername" : "",
						"fontface" : 0,
						"fontsize" : 10.0,
						"default_fontface" : 0,
						"default_fontname" : "Verdana",
						"fontname" : "Verdana",
						"default_fontsize" : 10.0
					}

				}

			}
, 			{
				"box" : 				{
					"maxclass" : "newobj",
					"text" : "p non_osc_messages",
					"numinlets" : 1,
					"numoutlets" : 0,
					"fontsize" : 10.0,
					"patching_rect" : [ 625.0, 195.0, 118.0, 19.0 ],
					"id" : "obj-62",
					"fontname" : "Verdana",
					"patcher" : 					{
						"fileversion" : 1,
						"rect" : [ 50.0, 94.0, 1106.0, 444.0 ],
						"bglocked" : 0,
						"defrect" : [ 50.0, 94.0, 1106.0, 444.0 ],
						"openrect" : [ 0.0, 0.0, 0.0, 0.0 ],
						"openinpresentation" : 0,
						"default_fontsize" : 10.0,
						"default_fontface" : 0,
						"default_fontname" : "Verdana",
						"gridonopen" : 0,
						"gridsize" : [ 5.0, 5.0 ],
						"gridsnaponopen" : 0,
						"toolbarvisible" : 1,
						"boxanimatetime" : 200,
						"imprint" : 0,
						"metadata" : [  ],
						"boxes" : [ 							{
								"box" : 								{
									"maxclass" : "newobj",
									"text" : "t 10",
									"numinlets" : 1,
									"numoutlets" : 1,
									"fontsize" : 10.0,
									"outlettype" : [ "int" ],
									"patching_rect" : [ 1045.0, 215.0, 31.0, 19.0 ],
									"id" : "obj-5",
									"fontname" : "Verdana"
								}

							}
, 							{
								"box" : 								{
									"maxclass" : "newobj",
									"text" : "i",
									"numinlets" : 2,
									"numoutlets" : 1,
									"fontsize" : 10.0,
									"outlettype" : [ "int" ],
									"patching_rect" : [ 900.0, 225.0, 32.5, 19.0 ],
									"id" : "obj-1",
									"fontname" : "Verdana"
								}

							}
, 							{
								"box" : 								{
									"maxclass" : "newobj",
									"text" : "t b b 0",
									"numinlets" : 1,
									"numoutlets" : 3,
									"fontsize" : 10.0,
									"outlettype" : [ "bang", "bang", "int" ],
									"patching_rect" : [ 900.0, 135.0, 46.0, 19.0 ],
									"id" : "obj-2",
									"fontname" : "Verdana"
								}

							}
, 							{
								"box" : 								{
									"maxclass" : "newobj",
									"text" : "jcom.oscinstance",
									"numinlets" : 1,
									"numoutlets" : 4,
									"fontsize" : 10.0,
									"outlettype" : [ "", "", "", "" ],
									"patching_rect" : [ 965.0, 190.0, 97.0, 19.0 ],
									"id" : "obj-3",
									"fontname" : "Verdana"
								}

							}
, 							{
								"box" : 								{
									"maxclass" : "newobj",
									"text" : "jcom.test.assert.equal TESTbang 10",
									"numinlets" : 2,
									"numoutlets" : 0,
									"fontsize" : 10.0,
									"patching_rect" : [ 900.0, 250.0, 193.0, 19.0 ],
									"id" : "obj-4",
									"fontname" : "Verdana"
								}

							}
, 							{
								"box" : 								{
									"maxclass" : "newobj",
									"text" : "t b",
									"numinlets" : 1,
									"numoutlets" : 1,
									"fontsize" : 10.0,
									"outlettype" : [ "bang" ],
									"patching_rect" : [ 50.0, 75.0, 24.0, 19.0 ],
									"id" : "obj-55",
									"fontname" : "Verdana"
								}

							}
, 							{
								"box" : 								{
									"maxclass" : "message",
									"text" : "no_slash 1 2 3",
									"numinlets" : 2,
									"numoutlets" : 1,
									"fontsize" : 10.0,
									"outlettype" : [ "" ],
									"patching_rect" : [ 115.0, 170.0, 84.0, 17.0 ],
									"id" : "obj-40",
									"fontname" : "Verdana"
								}

							}
, 							{
								"box" : 								{
									"maxclass" : "newobj",
									"text" : "zl reg",
									"numinlets" : 2,
									"numoutlets" : 2,
									"fontsize" : 10.0,
									"outlettype" : [ "", "" ],
									"patching_rect" : [ 50.0, 225.0, 38.0, 19.0 ],
									"id" : "obj-41",
									"fontname" : "Verdana"
								}

							}
, 							{
								"box" : 								{
									"maxclass" : "newobj",
									"text" : "t b b 0.",
									"numinlets" : 1,
									"numoutlets" : 3,
									"fontsize" : 10.0,
									"outlettype" : [ "bang", "bang", "float" ],
									"patching_rect" : [ 50.0, 135.0, 47.0, 19.0 ],
									"id" : "obj-42",
									"fontname" : "Verdana"
								}

							}
, 							{
								"box" : 								{
									"maxclass" : "newobj",
									"text" : "jcom.oscinstance",
									"numinlets" : 1,
									"numoutlets" : 4,
									"fontsize" : 10.0,
									"outlettype" : [ "", "", "", "" ],
									"patching_rect" : [ 115.0, 190.0, 97.0, 19.0 ],
									"id" : "obj-43",
									"fontname" : "Verdana"
								}

							}
, 							{
								"box" : 								{
									"maxclass" : "newobj",
									"text" : "jcom.test.assert.equal TESTnon_osc_symbol no_slash 1 2 3",
									"linecount" : 2,
									"numinlets" : 2,
									"numoutlets" : 0,
									"fontsize" : 10.0,
									"patching_rect" : [ 50.0, 250.0, 209.0, 31.0 ],
									"id" : "obj-44",
									"fontname" : "Verdana"
								}

							}
, 							{
								"box" : 								{
									"maxclass" : "message",
									"text" : "1 2 3",
									"numinlets" : 2,
									"numoutlets" : 1,
									"fontsize" : 10.0,
									"outlettype" : [ "" ],
									"patching_rect" : [ 330.0, 170.0, 37.0, 17.0 ],
									"id" : "obj-39",
									"fontname" : "Verdana"
								}

							}
, 							{
								"box" : 								{
									"maxclass" : "newobj",
									"text" : "zl reg",
									"numinlets" : 2,
									"numoutlets" : 2,
									"fontsize" : 10.0,
									"outlettype" : [ "", "" ],
									"patching_rect" : [ 265.0, 225.0, 38.0, 19.0 ],
									"id" : "obj-35",
									"fontname" : "Verdana"
								}

							}
, 							{
								"box" : 								{
									"maxclass" : "newobj",
									"text" : "t b b 0.",
									"numinlets" : 1,
									"numoutlets" : 3,
									"fontsize" : 10.0,
									"outlettype" : [ "bang", "bang", "float" ],
									"patching_rect" : [ 265.0, 135.0, 47.0, 19.0 ],
									"id" : "obj-36",
									"fontname" : "Verdana"
								}

							}
, 							{
								"box" : 								{
									"maxclass" : "newobj",
									"text" : "jcom.oscinstance",
									"numinlets" : 1,
									"numoutlets" : 4,
									"fontsize" : 10.0,
									"outlettype" : [ "", "", "", "" ],
									"patching_rect" : [ 330.0, 190.0, 97.0, 19.0 ],
									"id" : "obj-37",
									"fontname" : "Verdana"
								}

							}
, 							{
								"box" : 								{
									"maxclass" : "newobj",
									"text" : "jcom.test.assert.equal TESTlist 1 2 3",
									"numinlets" : 2,
									"numoutlets" : 0,
									"fontsize" : 10.0,
									"patching_rect" : [ 265.0, 250.0, 196.0, 19.0 ],
									"id" : "obj-38",
									"fontname" : "Verdana"
								}

							}
, 							{
								"box" : 								{
									"maxclass" : "newobj",
									"text" : "i",
									"numinlets" : 2,
									"numoutlets" : 1,
									"fontsize" : 10.0,
									"outlettype" : [ "int" ],
									"patching_rect" : [ 700.0, 225.0, 32.5, 19.0 ],
									"id" : "obj-26",
									"fontname" : "Verdana"
								}

							}
, 							{
								"box" : 								{
									"maxclass" : "newobj",
									"text" : "t b 10 0",
									"numinlets" : 1,
									"numoutlets" : 3,
									"fontsize" : 10.0,
									"outlettype" : [ "bang", "int", "int" ],
									"patching_rect" : [ 700.0, 135.0, 50.0, 19.0 ],
									"id" : "obj-27",
									"fontname" : "Verdana"
								}

							}
, 							{
								"box" : 								{
									"maxclass" : "newobj",
									"text" : "jcom.oscinstance",
									"numinlets" : 1,
									"numoutlets" : 4,
									"fontsize" : 10.0,
									"outlettype" : [ "", "", "", "" ],
									"patching_rect" : [ 765.0, 190.0, 97.0, 19.0 ],
									"id" : "obj-28",
									"fontname" : "Verdana"
								}

							}
, 							{
								"box" : 								{
									"maxclass" : "newobj",
									"text" : "jcom.test.assert.equal TESTint 10",
									"numinlets" : 2,
									"numoutlets" : 0,
									"fontsize" : 10.0,
									"patching_rect" : [ 700.0, 250.0, 181.0, 19.0 ],
									"id" : "obj-29",
									"fontname" : "Verdana"
								}

							}
, 							{
								"box" : 								{
									"maxclass" : "newobj",
									"text" : "f",
									"numinlets" : 2,
									"numoutlets" : 1,
									"fontsize" : 10.0,
									"outlettype" : [ "float" ],
									"patching_rect" : [ 480.0, 225.0, 32.5, 19.0 ],
									"id" : "obj-25",
									"fontname" : "Verdana"
								}

							}
, 							{
								"box" : 								{
									"maxclass" : "newobj",
									"text" : "t b 3.14 0.",
									"numinlets" : 1,
									"numoutlets" : 3,
									"fontsize" : 10.0,
									"outlettype" : [ "bang", "float", "float" ],
									"patching_rect" : [ 480.0, 135.0, 64.0, 19.0 ],
									"id" : "obj-20",
									"fontname" : "Verdana"
								}

							}
, 							{
								"box" : 								{
									"maxclass" : "newobj",
									"text" : "jcom.oscinstance",
									"numinlets" : 1,
									"numoutlets" : 4,
									"fontsize" : 10.0,
									"outlettype" : [ "", "", "", "" ],
									"patching_rect" : [ 545.0, 190.0, 97.0, 19.0 ],
									"id" : "obj-9",
									"fontname" : "Verdana"
								}

							}
, 							{
								"box" : 								{
									"maxclass" : "newobj",
									"text" : "jcom.test.assert.equal TESTfloat 3.14",
									"numinlets" : 2,
									"numoutlets" : 0,
									"fontsize" : 10.0,
									"patching_rect" : [ 480.0, 250.0, 200.0, 19.0 ],
									"id" : "obj-6",
									"fontname" : "Verdana"
								}

							}
, 							{
								"box" : 								{
									"maxclass" : "inlet",
									"numinlets" : 0,
									"numoutlets" : 1,
									"outlettype" : [ "bang" ],
									"patching_rect" : [ 50.0, 30.0, 25.0, 25.0 ],
									"id" : "obj-61",
									"comment" : ""
								}

							}
 ],
						"lines" : [ 							{
								"patchline" : 								{
									"source" : [ "obj-43", 3 ],
									"destination" : [ "obj-41", 1 ],
									"hidden" : 0,
									"midpoints" : [  ]
								}

							}
, 							{
								"patchline" : 								{
									"source" : [ "obj-37", 3 ],
									"destination" : [ "obj-35", 1 ],
									"hidden" : 0,
									"midpoints" : [  ]
								}

							}
, 							{
								"patchline" : 								{
									"source" : [ "obj-9", 3 ],
									"destination" : [ "obj-25", 1 ],
									"hidden" : 0,
									"midpoints" : [  ]
								}

							}
, 							{
								"patchline" : 								{
									"source" : [ "obj-28", 3 ],
									"destination" : [ "obj-26", 1 ],
									"hidden" : 0,
									"midpoints" : [  ]
								}

							}
, 							{
								"patchline" : 								{
									"source" : [ "obj-3", 3 ],
									"destination" : [ "obj-5", 0 ],
									"hidden" : 0,
									"midpoints" : [  ]
								}

							}
, 							{
								"patchline" : 								{
									"source" : [ "obj-61", 0 ],
									"destination" : [ "obj-55", 0 ],
									"hidden" : 0,
									"midpoints" : [  ]
								}

							}
, 							{
								"patchline" : 								{
									"source" : [ "obj-55", 0 ],
									"destination" : [ "obj-27", 0 ],
									"hidden" : 0,
									"midpoints" : [ 59.5, 121.0, 709.5, 121.0 ]
								}

							}
, 							{
								"patchline" : 								{
									"source" : [ "obj-55", 0 ],
									"destination" : [ "obj-20", 0 ],
									"hidden" : 0,
									"midpoints" : [ 59.5, 121.0, 489.5, 121.0 ]
								}

							}
, 							{
								"patchline" : 								{
									"source" : [ "obj-55", 0 ],
									"destination" : [ "obj-36", 0 ],
									"hidden" : 0,
									"midpoints" : [ 59.5, 121.0, 274.5, 121.0 ]
								}

							}
, 							{
								"patchline" : 								{
									"source" : [ "obj-55", 0 ],
									"destination" : [ "obj-42", 0 ],
									"hidden" : 0,
									"midpoints" : [  ]
								}

							}
, 							{
								"patchline" : 								{
									"source" : [ "obj-41", 0 ],
									"destination" : [ "obj-44", 0 ],
									"hidden" : 0,
									"midpoints" : [  ]
								}

							}
, 							{
								"patchline" : 								{
									"source" : [ "obj-40", 0 ],
									"destination" : [ "obj-43", 0 ],
									"hidden" : 0,
									"midpoints" : [  ]
								}

							}
, 							{
								"patchline" : 								{
									"source" : [ "obj-42", 1 ],
									"destination" : [ "obj-40", 0 ],
									"hidden" : 0,
									"midpoints" : [  ]
								}

							}
, 							{
								"patchline" : 								{
									"source" : [ "obj-42", 0 ],
									"destination" : [ "obj-41", 0 ],
									"hidden" : 0,
									"midpoints" : [  ]
								}

							}
, 							{
								"patchline" : 								{
									"source" : [ "obj-42", 2 ],
									"destination" : [ "obj-41", 1 ],
									"hidden" : 0,
									"midpoints" : [  ]
								}

							}
, 							{
								"patchline" : 								{
									"source" : [ "obj-35", 0 ],
									"destination" : [ "obj-38", 0 ],
									"hidden" : 0,
									"midpoints" : [  ]
								}

							}
, 							{
								"patchline" : 								{
									"source" : [ "obj-36", 2 ],
									"destination" : [ "obj-35", 1 ],
									"hidden" : 0,
									"midpoints" : [  ]
								}

							}
, 							{
								"patchline" : 								{
									"source" : [ "obj-36", 0 ],
									"destination" : [ "obj-35", 0 ],
									"hidden" : 0,
									"midpoints" : [  ]
								}

							}
, 							{
								"patchline" : 								{
									"source" : [ "obj-36", 1 ],
									"destination" : [ "obj-39", 0 ],
									"hidden" : 0,
									"midpoints" : [  ]
								}

							}
, 							{
								"patchline" : 								{
									"source" : [ "obj-39", 0 ],
									"destination" : [ "obj-37", 0 ],
									"hidden" : 0,
									"midpoints" : [  ]
								}

							}
, 							{
								"patchline" : 								{
									"source" : [ "obj-27", 1 ],
									"destination" : [ "obj-28", 0 ],
									"hidden" : 0,
									"midpoints" : [  ]
								}

							}
, 							{
								"patchline" : 								{
									"source" : [ "obj-27", 0 ],
									"destination" : [ "obj-26", 0 ],
									"hidden" : 0,
									"midpoints" : [  ]
								}

							}
, 							{
								"patchline" : 								{
									"source" : [ "obj-27", 2 ],
									"destination" : [ "obj-26", 1 ],
									"hidden" : 0,
									"midpoints" : [  ]
								}

							}
, 							{
								"patchline" : 								{
									"source" : [ "obj-26", 0 ],
									"destination" : [ "obj-29", 0 ],
									"hidden" : 0,
									"midpoints" : [  ]
								}

							}
, 							{
								"patchline" : 								{
									"source" : [ "obj-25", 0 ],
									"destination" : [ "obj-6", 0 ],
									"hidden" : 0,
									"midpoints" : [  ]
								}

							}
, 							{
								"patchline" : 								{
									"source" : [ "obj-20", 0 ],
									"destination" : [ "obj-25", 0 ],
									"hidden" : 0,
									"midpoints" : [  ]
								}

							}
, 							{
								"patchline" : 								{
									"source" : [ "obj-20", 1 ],
									"destination" : [ "obj-9", 0 ],
									"hidden" : 0,
									"midpoints" : [  ]
								}

							}
, 							{
								"patchline" : 								{
									"source" : [ "obj-20", 2 ],
									"destination" : [ "obj-25", 1 ],
									"hidden" : 0,
									"midpoints" : [  ]
								}

							}
, 							{
								"patchline" : 								{
									"source" : [ "obj-2", 1 ],
									"destination" : [ "obj-3", 0 ],
									"hidden" : 0,
									"midpoints" : [  ]
								}

							}
, 							{
								"patchline" : 								{
									"source" : [ "obj-2", 0 ],
									"destination" : [ "obj-1", 0 ],
									"hidden" : 0,
									"midpoints" : [  ]
								}

							}
, 							{
								"patchline" : 								{
									"source" : [ "obj-2", 2 ],
									"destination" : [ "obj-1", 1 ],
									"hidden" : 0,
									"midpoints" : [  ]
								}

							}
, 							{
								"patchline" : 								{
									"source" : [ "obj-5", 0 ],
									"destination" : [ "obj-1", 1 ],
									"hidden" : 0,
									"midpoints" : [ 1054.5, 239.0, 943.0, 239.0, 943.0, 222.0, 923.0, 222.0 ]
								}

							}
, 							{
								"patchline" : 								{
									"source" : [ "obj-1", 0 ],
									"destination" : [ "obj-4", 0 ],
									"hidden" : 0,
									"midpoints" : [  ]
								}

							}
, 							{
								"patchline" : 								{
									"source" : [ "obj-55", 0 ],
									"destination" : [ "obj-2", 0 ],
									"hidden" : 0,
									"midpoints" : [ 59.5, 120.0, 909.5, 120.0 ]
								}

							}
 ]
					}
,
					"saved_object_attributes" : 					{
						"globalpatchername" : "",
						"fontface" : 0,
						"fontsize" : 10.0,
						"default_fontface" : 0,
						"default_fontname" : "Verdana",
						"fontname" : "Verdana",
						"default_fontsize" : 10.0
					}

				}

			}
, 			{
				"box" : 				{
					"maxclass" : "newobj",
					"text" : "p osc_messages_without_instances",
					"numinlets" : 1,
					"numoutlets" : 0,
					"fontsize" : 10.0,
					"patching_rect" : [ 430.0, 195.0, 190.0, 19.0 ],
					"id" : "obj-60",
					"fontname" : "Verdana",
					"patcher" : 					{
						"fileversion" : 1,
						"rect" : [ 50.0, 94.0, 1107.0, 437.0 ],
						"bglocked" : 0,
						"defrect" : [ 50.0, 94.0, 1107.0, 437.0 ],
						"openrect" : [ 0.0, 0.0, 0.0, 0.0 ],
						"openinpresentation" : 0,
						"default_fontsize" : 10.0,
						"default_fontface" : 0,
						"default_fontname" : "Verdana",
						"gridonopen" : 0,
						"gridsize" : [ 5.0, 5.0 ],
						"gridsnaponopen" : 0,
						"toolbarvisible" : 1,
						"boxanimatetime" : 200,
						"imprint" : 0,
						"metadata" : [  ],
						"boxes" : [ 							{
								"box" : 								{
									"maxclass" : "newobj",
									"text" : "t b",
									"numinlets" : 1,
									"numoutlets" : 1,
									"fontsize" : 10.0,
									"outlettype" : [ "bang" ],
									"patching_rect" : [ 50.0, 100.0, 24.0, 19.0 ],
									"id" : "obj-56",
									"fontname" : "Verdana"
								}

							}
, 							{
								"box" : 								{
									"maxclass" : "message",
									"text" : "/two/branches 1 2 3",
									"numinlets" : 2,
									"numoutlets" : 1,
									"fontsize" : 10.0,
									"outlettype" : [ "" ],
									"patching_rect" : [ 155.0, 180.0, 113.0, 17.0 ],
									"id" : "obj-50",
									"fontname" : "Verdana"
								}

							}
, 							{
								"box" : 								{
									"maxclass" : "newobj",
									"text" : "zl reg",
									"numinlets" : 2,
									"numoutlets" : 2,
									"fontsize" : 10.0,
									"outlettype" : [ "", "" ],
									"patching_rect" : [ 90.0, 235.0, 38.0, 19.0 ],
									"id" : "obj-51",
									"fontname" : "Verdana"
								}

							}
, 							{
								"box" : 								{
									"maxclass" : "newobj",
									"text" : "t b b 0.",
									"numinlets" : 1,
									"numoutlets" : 3,
									"fontsize" : 10.0,
									"outlettype" : [ "bang", "bang", "float" ],
									"patching_rect" : [ 90.0, 145.0, 47.0, 19.0 ],
									"id" : "obj-52",
									"fontname" : "Verdana"
								}

							}
, 							{
								"box" : 								{
									"maxclass" : "newobj",
									"text" : "jcom.oscinstance",
									"numinlets" : 1,
									"numoutlets" : 4,
									"fontsize" : 10.0,
									"outlettype" : [ "", "", "", "" ],
									"patching_rect" : [ 155.0, 200.0, 97.0, 19.0 ],
									"id" : "obj-53",
									"fontname" : "Verdana"
								}

							}
, 							{
								"box" : 								{
									"maxclass" : "newobj",
									"text" : "jcom.test.assert.equal TESTosc_several_branches_no_instance /two/branches 1 2 3",
									"linecount" : 3,
									"numinlets" : 2,
									"numoutlets" : 0,
									"fontsize" : 10.0,
									"patching_rect" : [ 90.0, 265.0, 214.0, 43.0 ],
									"id" : "obj-54",
									"fontname" : "Verdana"
								}

							}
, 							{
								"box" : 								{
									"maxclass" : "message",
									"text" : "/one_branch 1 2 3",
									"numinlets" : 2,
									"numoutlets" : 1,
									"fontsize" : 10.0,
									"outlettype" : [ "" ],
									"patching_rect" : [ 380.0, 180.0, 104.0, 17.0 ],
									"id" : "obj-45",
									"fontname" : "Verdana"
								}

							}
, 							{
								"box" : 								{
									"maxclass" : "newobj",
									"text" : "zl reg",
									"numinlets" : 2,
									"numoutlets" : 2,
									"fontsize" : 10.0,
									"outlettype" : [ "", "" ],
									"patching_rect" : [ 315.0, 235.0, 38.0, 19.0 ],
									"id" : "obj-46",
									"fontname" : "Verdana"
								}

							}
, 							{
								"box" : 								{
									"maxclass" : "newobj",
									"text" : "t b b 0.",
									"numinlets" : 1,
									"numoutlets" : 3,
									"fontsize" : 10.0,
									"outlettype" : [ "bang", "bang", "float" ],
									"patching_rect" : [ 315.0, 145.0, 47.0, 19.0 ],
									"id" : "obj-47",
									"fontname" : "Verdana"
								}

							}
, 							{
								"box" : 								{
									"maxclass" : "newobj",
									"text" : "jcom.oscinstance",
									"numinlets" : 1,
									"numoutlets" : 4,
									"fontsize" : 10.0,
									"outlettype" : [ "", "", "", "" ],
									"patching_rect" : [ 380.0, 200.0, 97.0, 19.0 ],
									"id" : "obj-48",
									"fontname" : "Verdana"
								}

							}
, 							{
								"box" : 								{
									"maxclass" : "newobj",
									"text" : "jcom.test.assert.equal TESTosc_one_branch_no_instance /one_branch 1 2 3",
									"linecount" : 3,
									"numinlets" : 2,
									"numoutlets" : 0,
									"fontsize" : 10.0,
									"patching_rect" : [ 315.0, 265.0, 194.0, 43.0 ],
									"id" : "obj-49",
									"fontname" : "Verdana"
								}

							}
, 							{
								"box" : 								{
									"maxclass" : "inlet",
									"numinlets" : 0,
									"numoutlets" : 1,
									"outlettype" : [ "bang" ],
									"patching_rect" : [ 55.0, 40.0, 25.0, 25.0 ],
									"id" : "obj-59",
									"comment" : ""
								}

							}
 ],
						"lines" : [ 							{
								"patchline" : 								{
									"source" : [ "obj-53", 3 ],
									"destination" : [ "obj-51", 1 ],
									"hidden" : 0,
									"midpoints" : [  ]
								}

							}
, 							{
								"patchline" : 								{
									"source" : [ "obj-48", 3 ],
									"destination" : [ "obj-46", 1 ],
									"hidden" : 0,
									"midpoints" : [  ]
								}

							}
, 							{
								"patchline" : 								{
									"source" : [ "obj-59", 0 ],
									"destination" : [ "obj-56", 0 ],
									"hidden" : 0,
									"midpoints" : [  ]
								}

							}
, 							{
								"patchline" : 								{
									"source" : [ "obj-56", 0 ],
									"destination" : [ "obj-47", 0 ],
									"hidden" : 0,
									"midpoints" : [ 59.5, 131.0, 324.5, 131.0 ]
								}

							}
, 							{
								"patchline" : 								{
									"source" : [ "obj-56", 0 ],
									"destination" : [ "obj-52", 0 ],
									"hidden" : 0,
									"midpoints" : [ 59.5, 131.0, 99.5, 131.0 ]
								}

							}
, 							{
								"patchline" : 								{
									"source" : [ "obj-51", 0 ],
									"destination" : [ "obj-54", 0 ],
									"hidden" : 0,
									"midpoints" : [  ]
								}

							}
, 							{
								"patchline" : 								{
									"source" : [ "obj-50", 0 ],
									"destination" : [ "obj-53", 0 ],
									"hidden" : 0,
									"midpoints" : [  ]
								}

							}
, 							{
								"patchline" : 								{
									"source" : [ "obj-52", 1 ],
									"destination" : [ "obj-50", 0 ],
									"hidden" : 0,
									"midpoints" : [  ]
								}

							}
, 							{
								"patchline" : 								{
									"source" : [ "obj-52", 0 ],
									"destination" : [ "obj-51", 0 ],
									"hidden" : 0,
									"midpoints" : [  ]
								}

							}
, 							{
								"patchline" : 								{
									"source" : [ "obj-52", 2 ],
									"destination" : [ "obj-51", 1 ],
									"hidden" : 0,
									"midpoints" : [  ]
								}

							}
, 							{
								"patchline" : 								{
									"source" : [ "obj-46", 0 ],
									"destination" : [ "obj-49", 0 ],
									"hidden" : 0,
									"midpoints" : [  ]
								}

							}
, 							{
								"patchline" : 								{
									"source" : [ "obj-47", 2 ],
									"destination" : [ "obj-46", 1 ],
									"hidden" : 0,
									"midpoints" : [  ]
								}

							}
, 							{
								"patchline" : 								{
									"source" : [ "obj-47", 0 ],
									"destination" : [ "obj-46", 0 ],
									"hidden" : 0,
									"midpoints" : [  ]
								}

							}
, 							{
								"patchline" : 								{
									"source" : [ "obj-47", 1 ],
									"destination" : [ "obj-45", 0 ],
									"hidden" : 0,
									"midpoints" : [  ]
								}

							}
, 							{
								"patchline" : 								{
									"source" : [ "obj-45", 0 ],
									"destination" : [ "obj-48", 0 ],
									"hidden" : 0,
									"midpoints" : [  ]
								}

							}
 ]
					}
,
					"saved_object_attributes" : 					{
						"globalpatchername" : "",
						"fontface" : 0,
						"fontsize" : 10.0,
						"default_fontface" : 0,
						"default_fontname" : "Verdana",
						"fontname" : "Verdana",
						"default_fontsize" : 10.0
					}

				}

			}
, 			{
				"box" : 				{
					"maxclass" : "button",
					"numinlets" : 1,
					"numoutlets" : 1,
					"outlettype" : [ "bang" ],
					"patching_rect" : [ 240.0, 165.0, 20.0, 20.0 ],
					"id" : "obj-33"
				}

			}
 ],
		"lines" : [ 			{
				"patchline" : 				{
					"source" : [ "obj-33", 0 ],
					"destination" : [ "obj-6", 0 ],
					"hidden" : 0,
					"midpoints" : [  ]
				}

			}
, 			{
				"patchline" : 				{
					"source" : [ "obj-2", 0 ],
					"destination" : [ "obj-62", 0 ],
					"hidden" : 0,
					"midpoints" : [  ]
				}

			}
, 			{
				"patchline" : 				{
					"source" : [ "obj-3", 0 ],
					"destination" : [ "obj-60", 0 ],
					"hidden" : 0,
					"midpoints" : [  ]
				}

			}
, 			{
				"patchline" : 				{
					"source" : [ "obj-54", 0 ],
					"destination" : [ "obj-53", 0 ],
					"hidden" : 0,
					"midpoints" : [  ]
				}

			}
, 			{
				"patchline" : 				{
					"source" : [ "obj-1", 0 ],
					"destination" : [ "obj-4", 0 ],
					"hidden" : 0,
					"midpoints" : [  ]
				}

			}
, 			{
				"patchline" : 				{
					"source" : [ "obj-4", 0 ],
					"destination" : [ "obj-54", 0 ],
					"hidden" : 0,
					"midpoints" : [  ]
				}

			}
, 			{
				"patchline" : 				{
					"source" : [ "obj-4", 1 ],
					"destination" : [ "obj-33", 0 ],
					"hidden" : 0,
					"midpoints" : [ 143.0, 159.0, 249.5, 159.0 ]
				}

			}
, 			{
				"patchline" : 				{
					"source" : [ "obj-4", 2 ],
					"destination" : [ "obj-3", 0 ],
					"hidden" : 0,
					"midpoints" : [ 156.5, 154.0, 439.5, 154.0 ]
				}

			}
, 			{
				"patchline" : 				{
					"source" : [ "obj-4", 3 ],
					"destination" : [ "obj-2", 0 ],
					"hidden" : 0,
					"midpoints" : [ 170.0, 149.0, 634.5, 149.0 ]
				}

			}
 ]
	}

}
