{
	"patcher" : 	{
		"fileversion" : 1,
		"rect" : [ 25.0, 69.0, 968.0, 375.0 ],
		"bglocked" : 0,
		"defrect" : [ 25.0, 69.0, 968.0, 375.0 ],
		"openrect" : [ 0.0, 0.0, 0.0, 0.0 ],
		"openinpresentation" : 0,
		"default_fontsize" : 10.0,
		"default_fontface" : 0,
		"default_fontname" : "Verdana",
		"gridonopen" : 0,
		"gridsize" : [ 5.0, 5.0 ],
		"gridsnaponopen" : 0,
		"toolbarvisible" : 1,
		"boxanimatetime" : 200,
		"imprint" : 0,
		"metadata" : [  ],
		"boxes" : [ 			{
				"box" : 				{
					"maxclass" : "newobj",
					"text" : "t b b b b",
					"numoutlets" : 4,
					"outlettype" : [ "bang", "bang", "bang", "bang" ],
					"id" : "obj-4",
					"fontname" : "Verdana",
					"patching_rect" : [ 120.0, 110.0, 59.5, 19.0 ],
					"fontsize" : 10.0,
					"numinlets" : 1
				}

			}
, 			{
				"box" : 				{
					"maxclass" : "newobj",
					"text" : "thispatcher",
					"numoutlets" : 2,
					"outlettype" : [ "", "" ],
					"id" : "obj-53",
					"fontname" : "Verdana",
					"patching_rect" : [ 120.0, 220.0, 67.0, 19.0 ],
					"fontsize" : 10.0,
					"numinlets" : 1,
					"save" : [ "#N", "thispatcher", ";", "#Q", "end", ";" ]
				}

			}
, 			{
				"box" : 				{
					"maxclass" : "newobj",
					"text" : "jcom.test.finished",
					"numoutlets" : 1,
					"outlettype" : [ "" ],
					"id" : "obj-54",
					"fontname" : "Verdana",
					"patching_rect" : [ 120.0, 195.0, 100.0, 19.0 ],
					"fontsize" : 10.0,
					"numinlets" : 1
				}

			}
, 			{
				"box" : 				{
					"maxclass" : "button",
					"numoutlets" : 1,
					"outlettype" : [ "bang" ],
					"id" : "obj-3",
					"patching_rect" : [ 430.0, 165.0, 20.0, 20.0 ],
					"numinlets" : 1
				}

			}
, 			{
				"box" : 				{
					"maxclass" : "button",
					"numoutlets" : 1,
					"outlettype" : [ "bang" ],
					"id" : "obj-2",
					"patching_rect" : [ 625.0, 165.0, 20.0, 20.0 ],
					"numinlets" : 1
				}

			}
, 			{
				"box" : 				{
					"maxclass" : "newobj",
					"text" : "loadbang",
					"numoutlets" : 1,
					"outlettype" : [ "bang" ],
					"id" : "obj-1",
					"fontname" : "Verdana",
					"patching_rect" : [ 120.0, 85.0, 56.0, 19.0 ],
					"fontsize" : 10.0,
					"numinlets" : 1
				}

			}
, 			{
				"box" : 				{
					"maxclass" : "newobj",
					"text" : "p osc_messages_with_instances",
					"numoutlets" : 0,
					"id" : "obj-6",
					"fontname" : "Verdana",
					"patching_rect" : [ 240.0, 195.0, 173.0, 19.0 ],
					"fontsize" : 10.0,
					"numinlets" : 1,
					"patcher" : 					{
						"fileversion" : 1,
						"rect" : [ 11.0, 60.0, 1417.0, 810.0 ],
						"bglocked" : 0,
						"defrect" : [ 11.0, 60.0, 1417.0, 810.0 ],
						"openrect" : [ 0.0, 0.0, 0.0, 0.0 ],
						"openinpresentation" : 0,
						"default_fontsize" : 10.0,
						"default_fontface" : 0,
						"default_fontname" : "Verdana",
						"gridonopen" : 0,
						"gridsize" : [ 5.0, 5.0 ],
						"gridsnaponopen" : 0,
						"toolbarvisible" : 1,
						"boxanimatetime" : 200,
						"imprint" : 0,
						"metadata" : [  ],
						"boxes" : [ 							{
								"box" : 								{
									"maxclass" : "newobj",
									"text" : "t b b",
									"numoutlets" : 2,
									"outlettype" : [ "bang", "bang" ],
									"id" : "obj-37",
									"fontname" : "Verdana",
									"patching_rect" : [ 135.0, 200.0, 34.0, 19.0 ],
									"fontsize" : 10.0,
									"numinlets" : 1
								}

							}
, 							{
								"box" : 								{
									"maxclass" : "newobj",
									"text" : "zl reg",
									"numoutlets" : 2,
									"outlettype" : [ "", "" ],
									"id" : "obj-35",
									"fontname" : "Verdana",
									"patching_rect" : [ 960.0, 350.0, 38.0, 19.0 ],
									"fontsize" : 10.0,
									"numinlets" : 2
								}

							}
, 							{
								"box" : 								{
									"maxclass" : "newobj",
									"text" : "jcom.test.assert.equal TEST1osc_symbol_instance_and_subbranch:INSTANCE then",
									"linecount" : 3,
									"numoutlets" : 0,
									"id" : "obj-36",
									"fontname" : "Verdana",
									"patching_rect" : [ 960.0, 380.0, 295.0, 43.0 ],
									"fontsize" : 10.0,
									"numinlets" : 2
								}

							}
, 							{
								"box" : 								{
									"maxclass" : "newobj",
									"text" : "zl reg",
									"numoutlets" : 2,
									"outlettype" : [ "", "" ],
									"id" : "obj-34",
									"fontname" : "Verdana",
									"patching_rect" : [ 395.0, 350.0, 38.0, 19.0 ],
									"fontsize" : 10.0,
									"numinlets" : 2
								}

							}
, 							{
								"box" : 								{
									"maxclass" : "newobj",
									"text" : "jcom.test.assert.equal TEST1osc_symbol_instance_no_subbranch:INSTANCE left",
									"linecount" : 3,
									"numoutlets" : 0,
									"id" : "obj-33",
									"fontname" : "Verdana",
									"patching_rect" : [ 395.0, 380.0, 288.0, 43.0 ],
									"fontsize" : 10.0,
									"numinlets" : 2
								}

							}
, 							{
								"box" : 								{
									"maxclass" : "newobj",
									"text" : "t b b",
									"numoutlets" : 2,
									"outlettype" : [ "bang", "bang" ],
									"id" : "obj-29",
									"fontname" : "Verdana",
									"patching_rect" : [ 50.0, 510.0, 34.0, 19.0 ],
									"fontsize" : 10.0,
									"numinlets" : 1
								}

							}
, 							{
								"box" : 								{
									"maxclass" : "newobj",
									"text" : "i",
									"numoutlets" : 1,
									"outlettype" : [ "int" ],
									"id" : "obj-9",
									"fontname" : "Verdana",
									"patching_rect" : [ 295.0, 675.0, 32.5, 19.0 ],
									"fontsize" : 10.0,
									"numinlets" : 2
								}

							}
, 							{
								"box" : 								{
									"maxclass" : "newobj",
									"text" : "i",
									"numoutlets" : 1,
									"outlettype" : [ "int" ],
									"id" : "obj-23",
									"fontname" : "Verdana",
									"patching_rect" : [ 820.0, 675.0, 32.5, 19.0 ],
									"fontsize" : 10.0,
									"numinlets" : 2
								}

							}
, 							{
								"box" : 								{
									"maxclass" : "newobj",
									"text" : "jcom.test.assert.equal TEST1osc_int_instance_and_subbranch:INSTANCE 72",
									"linecount" : 3,
									"numoutlets" : 0,
									"id" : "obj-25",
									"fontname" : "Verdana",
									"patching_rect" : [ 820.0, 700.0, 273.0, 43.0 ],
									"fontsize" : 10.0,
									"numinlets" : 2
								}

							}
, 							{
								"box" : 								{
									"maxclass" : "newobj",
									"text" : "route int",
									"numoutlets" : 2,
									"outlettype" : [ "", "" ],
									"id" : "obj-8",
									"fontname" : "Verdana",
									"patching_rect" : [ 835.0, 645.0, 54.0, 19.0 ],
									"fontsize" : 10.0,
									"numinlets" : 1
								}

							}
, 							{
								"box" : 								{
									"maxclass" : "newobj",
									"text" : "route int",
									"numoutlets" : 2,
									"outlettype" : [ "", "" ],
									"id" : "obj-1",
									"fontname" : "Verdana",
									"patching_rect" : [ 310.0, 645.0, 54.0, 19.0 ],
									"fontsize" : 10.0,
									"numinlets" : 1
								}

							}
, 							{
								"box" : 								{
									"maxclass" : "button",
									"numoutlets" : 1,
									"outlettype" : [ "bang" ],
									"id" : "obj-26",
									"patching_rect" : [ 30.0, 550.0, 20.0, 20.0 ],
									"numinlets" : 1
								}

							}
, 							{
								"box" : 								{
									"maxclass" : "button",
									"numoutlets" : 1,
									"outlettype" : [ "bang" ],
									"id" : "obj-24",
									"patching_rect" : [ 545.0, 550.0, 20.0, 20.0 ],
									"numinlets" : 1
								}

							}
, 							{
								"box" : 								{
									"maxclass" : "button",
									"numoutlets" : 1,
									"outlettype" : [ "bang" ],
									"id" : "obj-22",
									"patching_rect" : [ 110.0, 230.0, 20.0, 20.0 ],
									"numinlets" : 1
								}

							}
, 							{
								"box" : 								{
									"maxclass" : "button",
									"numoutlets" : 1,
									"outlettype" : [ "bang" ],
									"id" : "obj-14",
									"patching_rect" : [ 670.0, 230.0, 20.0, 20.0 ],
									"numinlets" : 1
								}

							}
, 							{
								"box" : 								{
									"maxclass" : "button",
									"numoutlets" : 1,
									"outlettype" : [ "bang" ],
									"id" : "obj-7",
									"patching_rect" : [ 1110.0, 150.0, 20.0, 20.0 ],
									"numinlets" : 1
								}

							}
, 							{
								"box" : 								{
									"maxclass" : "message",
									"text" : "/channel.left 1. 1. 2.",
									"numoutlets" : 1,
									"outlettype" : [ "" ],
									"id" : "obj-17",
									"fontname" : "Verdana",
									"patching_rect" : [ 380.0, 280.0, 114.0, 17.0 ],
									"fontsize" : 10.0,
									"numinlets" : 2
								}

							}
, 							{
								"box" : 								{
									"maxclass" : "newobj",
									"text" : "zl reg",
									"numoutlets" : 2,
									"outlettype" : [ "", "" ],
									"id" : "obj-18",
									"fontname" : "Verdana",
									"patching_rect" : [ 135.0, 350.0, 38.0, 19.0 ],
									"fontsize" : 10.0,
									"numinlets" : 2
								}

							}
, 							{
								"box" : 								{
									"maxclass" : "newobj",
									"text" : "t b b 0.",
									"numoutlets" : 3,
									"outlettype" : [ "bang", "bang", "float" ],
									"id" : "obj-19",
									"fontname" : "Verdana",
									"patching_rect" : [ 135.0, 230.0, 47.0, 19.0 ],
									"fontsize" : 10.0,
									"numinlets" : 1
								}

							}
, 							{
								"box" : 								{
									"maxclass" : "newobj",
									"text" : "jcom.oscinstance",
									"numoutlets" : 3,
									"outlettype" : [ "", "", "" ],
									"id" : "obj-20",
									"fontname" : "Verdana",
									"patching_rect" : [ 380.0, 300.0, 97.0, 19.0 ],
									"fontsize" : 10.0,
									"numinlets" : 1
								}

							}
, 							{
								"box" : 								{
									"maxclass" : "message",
									"text" : "/source.47 1. 1. 2.",
									"numoutlets" : 1,
									"outlettype" : [ "" ],
									"id" : "obj-10",
									"fontname" : "Verdana",
									"patching_rect" : [ 270.0, 600.0, 105.0, 17.0 ],
									"fontsize" : 10.0,
									"numinlets" : 2
								}

							}
, 							{
								"box" : 								{
									"maxclass" : "newobj",
									"text" : "zl reg",
									"numoutlets" : 2,
									"outlettype" : [ "", "" ],
									"id" : "obj-11",
									"fontname" : "Verdana",
									"patching_rect" : [ 50.0, 675.0, 47.0, 19.0 ],
									"fontsize" : 10.0,
									"numinlets" : 2
								}

							}
, 							{
								"box" : 								{
									"maxclass" : "newobj",
									"text" : "t b b 0.",
									"numoutlets" : 3,
									"outlettype" : [ "bang", "bang", "float" ],
									"id" : "obj-12",
									"fontname" : "Verdana",
									"patching_rect" : [ 50.0, 550.0, 47.0, 19.0 ],
									"fontsize" : 10.0,
									"numinlets" : 1
								}

							}
, 							{
								"box" : 								{
									"maxclass" : "newobj",
									"text" : "jcom.oscinstance",
									"numoutlets" : 3,
									"outlettype" : [ "", "", "" ],
									"id" : "obj-13",
									"fontname" : "Verdana",
									"patching_rect" : [ 270.0, 620.0, 97.0, 19.0 ],
									"fontsize" : 10.0,
									"numinlets" : 1
								}

							}
, 							{
								"box" : 								{
									"maxclass" : "newobj",
									"text" : "jcom.test.assert.equal TEST2osc_int_instance_no_subbranch:OSC /source 1. 1. 2.",
									"linecount" : 3,
									"numoutlets" : 0,
									"id" : "obj-15",
									"fontname" : "Verdana",
									"patching_rect" : [ 50.0, 700.0, 242.0, 43.0 ],
									"fontsize" : 10.0,
									"numinlets" : 2
								}

							}
, 							{
								"box" : 								{
									"maxclass" : "message",
									"text" : "/source.72/xyz 1. 1. 2.",
									"numoutlets" : 1,
									"outlettype" : [ "" ],
									"id" : "obj-2",
									"fontname" : "Verdana",
									"patching_rect" : [ 795.0, 600.0, 127.0, 17.0 ],
									"fontsize" : 10.0,
									"numinlets" : 2
								}

							}
, 							{
								"box" : 								{
									"maxclass" : "newobj",
									"text" : "zl reg",
									"numoutlets" : 2,
									"outlettype" : [ "", "" ],
									"id" : "obj-3",
									"fontname" : "Verdana",
									"patching_rect" : [ 570.0, 675.0, 47.0, 19.0 ],
									"fontsize" : 10.0,
									"numinlets" : 2
								}

							}
, 							{
								"box" : 								{
									"maxclass" : "newobj",
									"text" : "t b b 0.",
									"numoutlets" : 3,
									"outlettype" : [ "bang", "bang", "float" ],
									"id" : "obj-4",
									"fontname" : "Verdana",
									"patching_rect" : [ 570.0, 550.0, 47.0, 19.0 ],
									"fontsize" : 10.0,
									"numinlets" : 1
								}

							}
, 							{
								"box" : 								{
									"maxclass" : "newobj",
									"text" : "jcom.oscinstance",
									"numoutlets" : 3,
									"outlettype" : [ "", "", "" ],
									"id" : "obj-5",
									"fontname" : "Verdana",
									"patching_rect" : [ 795.0, 620.0, 97.0, 19.0 ],
									"fontsize" : 10.0,
									"numinlets" : 1
								}

							}
, 							{
								"box" : 								{
									"maxclass" : "newobj",
									"text" : "jcom.test.assert.equal TEST2osc_int_instance_and_subbranch:OSC /source/xyz 1. 1. 2.",
									"linecount" : 3,
									"numoutlets" : 0,
									"id" : "obj-6",
									"fontname" : "Verdana",
									"patching_rect" : [ 570.0, 700.0, 244.0, 43.0 ],
									"fontsize" : 10.0,
									"numinlets" : 2
								}

							}
, 							{
								"box" : 								{
									"maxclass" : "newobj",
									"text" : "t b b b",
									"numoutlets" : 3,
									"outlettype" : [ "bang", "bang", "bang" ],
									"id" : "obj-56",
									"fontname" : "Verdana",
									"patching_rect" : [ 50.0, 100.0, 46.0, 19.0 ],
									"fontsize" : 10.0,
									"numinlets" : 1
								}

							}
, 							{
								"box" : 								{
									"maxclass" : "message",
									"text" : "/dot.then/slash 1 2 3",
									"numoutlets" : 1,
									"outlettype" : [ "" ],
									"id" : "obj-50",
									"fontname" : "Verdana",
									"patching_rect" : [ 960.0, 280.0, 117.0, 17.0 ],
									"fontsize" : 10.0,
									"numinlets" : 2
								}

							}
, 							{
								"box" : 								{
									"maxclass" : "newobj",
									"text" : "zl reg",
									"numoutlets" : 2,
									"outlettype" : [ "", "" ],
									"id" : "obj-51",
									"fontname" : "Verdana",
									"patching_rect" : [ 695.0, 350.0, 38.0, 19.0 ],
									"fontsize" : 10.0,
									"numinlets" : 2
								}

							}
, 							{
								"box" : 								{
									"maxclass" : "newobj",
									"text" : "t b b 0.",
									"numoutlets" : 3,
									"outlettype" : [ "bang", "bang", "float" ],
									"id" : "obj-52",
									"fontname" : "Verdana",
									"patching_rect" : [ 695.0, 230.0, 47.0, 19.0 ],
									"fontsize" : 10.0,
									"numinlets" : 1
								}

							}
, 							{
								"box" : 								{
									"maxclass" : "newobj",
									"text" : "jcom.oscinstance",
									"numoutlets" : 3,
									"outlettype" : [ "", "", "" ],
									"id" : "obj-53",
									"fontname" : "Verdana",
									"patching_rect" : [ 960.0, 300.0, 97.0, 19.0 ],
									"fontsize" : 10.0,
									"numinlets" : 1
								}

							}
, 							{
								"box" : 								{
									"maxclass" : "newobj",
									"text" : "jcom.test.assert.equal TEST2osc_symbol_instance_and_subbranch:OSC /dot/slash 1 2 3",
									"linecount" : 3,
									"numoutlets" : 0,
									"id" : "obj-54",
									"fontname" : "Verdana",
									"patching_rect" : [ 695.0, 380.0, 261.0, 43.0 ],
									"fontsize" : 10.0,
									"numinlets" : 2
								}

							}
, 							{
								"box" : 								{
									"maxclass" : "message",
									"text" : "/slah/then.dot 1 2 3",
									"numoutlets" : 1,
									"outlettype" : [ "" ],
									"id" : "obj-45",
									"fontname" : "Verdana",
									"patching_rect" : [ 1200.0, 185.0, 112.0, 17.0 ],
									"fontsize" : 10.0,
									"numinlets" : 2
								}

							}
, 							{
								"box" : 								{
									"maxclass" : "newobj",
									"text" : "zl reg",
									"numoutlets" : 2,
									"outlettype" : [ "", "" ],
									"id" : "obj-46",
									"fontname" : "Verdana",
									"patching_rect" : [ 1135.0, 240.0, 38.0, 19.0 ],
									"fontsize" : 10.0,
									"numinlets" : 2
								}

							}
, 							{
								"box" : 								{
									"maxclass" : "newobj",
									"text" : "t b b 0.",
									"numoutlets" : 3,
									"outlettype" : [ "bang", "bang", "float" ],
									"id" : "obj-47",
									"fontname" : "Verdana",
									"patching_rect" : [ 1135.0, 150.0, 47.0, 19.0 ],
									"fontsize" : 10.0,
									"numinlets" : 1
								}

							}
, 							{
								"box" : 								{
									"maxclass" : "newobj",
									"text" : "jcom.oscinstance",
									"numoutlets" : 3,
									"outlettype" : [ "", "", "" ],
									"id" : "obj-48",
									"fontname" : "Verdana",
									"patching_rect" : [ 1200.0, 205.0, 97.0, 19.0 ],
									"fontsize" : 10.0,
									"numinlets" : 1
								}

							}
, 							{
								"box" : 								{
									"maxclass" : "newobj",
									"text" : "jcom.test.assert.equal TESTosc_subbranch_has_instance /slah/then.dot 1 2 3",
									"linecount" : 3,
									"numoutlets" : 0,
									"id" : "obj-49",
									"fontname" : "Verdana",
									"patching_rect" : [ 1135.0, 270.0, 186.0, 43.0 ],
									"fontsize" : 10.0,
									"numinlets" : 2
								}

							}
, 							{
								"box" : 								{
									"maxclass" : "inlet",
									"numoutlets" : 1,
									"outlettype" : [ "bang" ],
									"id" : "obj-59",
									"patching_rect" : [ 50.0, 40.0, 25.0, 25.0 ],
									"numinlets" : 0,
									"comment" : ""
								}

							}
, 							{
								"box" : 								{
									"maxclass" : "newobj",
									"text" : "jcom.test.assert.equal TEST2osc_symbol_instance_no_subbranch:OSC /channel:OSC 1. 1. 2.",
									"linecount" : 3,
									"numoutlets" : 0,
									"id" : "obj-21",
									"fontname" : "Verdana",
									"patching_rect" : [ 135.0, 380.0, 258.0, 43.0 ],
									"fontsize" : 10.0,
									"numinlets" : 2
								}

							}
, 							{
								"box" : 								{
									"maxclass" : "newobj",
									"text" : "jcom.test.assert.equal TEST1osc_int_instance_no_subbranch:INSTANCE 47",
									"linecount" : 3,
									"numoutlets" : 0,
									"id" : "obj-16",
									"fontname" : "Verdana",
									"patching_rect" : [ 295.0, 700.0, 267.0, 43.0 ],
									"fontsize" : 10.0,
									"numinlets" : 2
								}

							}
 ],
						"lines" : [ 							{
								"patchline" : 								{
									"source" : [ "obj-50", 0 ],
									"destination" : [ "obj-53", 0 ],
									"hidden" : 0,
									"midpoints" : [  ]
								}

							}
, 							{
								"patchline" : 								{
									"source" : [ "obj-52", 1 ],
									"destination" : [ "obj-50", 0 ],
									"hidden" : 0,
									"midpoints" : [  ]
								}

							}
, 							{
								"patchline" : 								{
									"source" : [ "obj-52", 0 ],
									"destination" : [ "obj-51", 0 ],
									"hidden" : 0,
									"midpoints" : [  ]
								}

							}
, 							{
								"patchline" : 								{
									"source" : [ "obj-52", 2 ],
									"destination" : [ "obj-51", 1 ],
									"hidden" : 0,
									"midpoints" : [  ]
								}

							}
, 							{
								"patchline" : 								{
									"source" : [ "obj-48", 2 ],
									"destination" : [ "obj-46", 1 ],
									"hidden" : 0,
									"midpoints" : [  ]
								}

							}
, 							{
								"patchline" : 								{
									"source" : [ "obj-47", 2 ],
									"destination" : [ "obj-46", 1 ],
									"hidden" : 0,
									"midpoints" : [  ]
								}

							}
, 							{
								"patchline" : 								{
									"source" : [ "obj-47", 0 ],
									"destination" : [ "obj-46", 0 ],
									"hidden" : 0,
									"midpoints" : [  ]
								}

							}
, 							{
								"patchline" : 								{
									"source" : [ "obj-47", 1 ],
									"destination" : [ "obj-45", 0 ],
									"hidden" : 0,
									"midpoints" : [  ]
								}

							}
, 							{
								"patchline" : 								{
									"source" : [ "obj-45", 0 ],
									"destination" : [ "obj-48", 0 ],
									"hidden" : 0,
									"midpoints" : [  ]
								}

							}
, 							{
								"patchline" : 								{
									"source" : [ "obj-53", 0 ],
									"destination" : [ "obj-51", 1 ],
									"hidden" : 0,
									"midpoints" : [  ]
								}

							}
, 							{
								"patchline" : 								{
									"source" : [ "obj-2", 0 ],
									"destination" : [ "obj-5", 0 ],
									"hidden" : 0,
									"midpoints" : [  ]
								}

							}
, 							{
								"patchline" : 								{
									"source" : [ "obj-46", 0 ],
									"destination" : [ "obj-49", 0 ],
									"hidden" : 0,
									"midpoints" : [  ]
								}

							}
, 							{
								"patchline" : 								{
									"source" : [ "obj-10", 0 ],
									"destination" : [ "obj-13", 0 ],
									"hidden" : 0,
									"midpoints" : [  ]
								}

							}
, 							{
								"patchline" : 								{
									"source" : [ "obj-12", 0 ],
									"destination" : [ "obj-11", 0 ],
									"hidden" : 0,
									"midpoints" : [  ]
								}

							}
, 							{
								"patchline" : 								{
									"source" : [ "obj-12", 2 ],
									"destination" : [ "obj-11", 1 ],
									"hidden" : 0,
									"midpoints" : [  ]
								}

							}
, 							{
								"patchline" : 								{
									"source" : [ "obj-17", 0 ],
									"destination" : [ "obj-20", 0 ],
									"hidden" : 0,
									"midpoints" : [  ]
								}

							}
, 							{
								"patchline" : 								{
									"source" : [ "obj-19", 1 ],
									"destination" : [ "obj-17", 0 ],
									"hidden" : 0,
									"midpoints" : [  ]
								}

							}
, 							{
								"patchline" : 								{
									"source" : [ "obj-19", 0 ],
									"destination" : [ "obj-18", 0 ],
									"hidden" : 0,
									"midpoints" : [  ]
								}

							}
, 							{
								"patchline" : 								{
									"source" : [ "obj-19", 2 ],
									"destination" : [ "obj-18", 1 ],
									"hidden" : 0,
									"midpoints" : [  ]
								}

							}
, 							{
								"patchline" : 								{
									"source" : [ "obj-20", 0 ],
									"destination" : [ "obj-18", 1 ],
									"hidden" : 0,
									"midpoints" : [  ]
								}

							}
, 							{
								"patchline" : 								{
									"source" : [ "obj-7", 0 ],
									"destination" : [ "obj-47", 0 ],
									"hidden" : 0,
									"midpoints" : [  ]
								}

							}
, 							{
								"patchline" : 								{
									"source" : [ "obj-14", 0 ],
									"destination" : [ "obj-52", 0 ],
									"hidden" : 0,
									"midpoints" : [  ]
								}

							}
, 							{
								"patchline" : 								{
									"source" : [ "obj-22", 0 ],
									"destination" : [ "obj-19", 0 ],
									"hidden" : 0,
									"midpoints" : [  ]
								}

							}
, 							{
								"patchline" : 								{
									"source" : [ "obj-26", 0 ],
									"destination" : [ "obj-12", 0 ],
									"hidden" : 0,
									"midpoints" : [  ]
								}

							}
, 							{
								"patchline" : 								{
									"source" : [ "obj-13", 1 ],
									"destination" : [ "obj-1", 0 ],
									"hidden" : 0,
									"midpoints" : [  ]
								}

							}
, 							{
								"patchline" : 								{
									"source" : [ "obj-5", 1 ],
									"destination" : [ "obj-8", 0 ],
									"hidden" : 0,
									"midpoints" : [  ]
								}

							}
, 							{
								"patchline" : 								{
									"source" : [ "obj-4", 2 ],
									"destination" : [ "obj-3", 1 ],
									"hidden" : 0,
									"midpoints" : [  ]
								}

							}
, 							{
								"patchline" : 								{
									"source" : [ "obj-4", 0 ],
									"destination" : [ "obj-3", 0 ],
									"hidden" : 0,
									"midpoints" : [  ]
								}

							}
, 							{
								"patchline" : 								{
									"source" : [ "obj-24", 0 ],
									"destination" : [ "obj-4", 0 ],
									"hidden" : 0,
									"midpoints" : [  ]
								}

							}
, 							{
								"patchline" : 								{
									"source" : [ "obj-12", 2 ],
									"destination" : [ "obj-9", 1 ],
									"hidden" : 0,
									"midpoints" : [  ]
								}

							}
, 							{
								"patchline" : 								{
									"source" : [ "obj-4", 2 ],
									"destination" : [ "obj-23", 1 ],
									"hidden" : 0,
									"midpoints" : [  ]
								}

							}
, 							{
								"patchline" : 								{
									"source" : [ "obj-4", 0 ],
									"destination" : [ "obj-23", 0 ],
									"hidden" : 0,
									"midpoints" : [  ]
								}

							}
, 							{
								"patchline" : 								{
									"source" : [ "obj-8", 0 ],
									"destination" : [ "obj-23", 1 ],
									"hidden" : 0,
									"midpoints" : [  ]
								}

							}
, 							{
								"patchline" : 								{
									"source" : [ "obj-1", 0 ],
									"destination" : [ "obj-9", 1 ],
									"hidden" : 0,
									"midpoints" : [  ]
								}

							}
, 							{
								"patchline" : 								{
									"source" : [ "obj-12", 0 ],
									"destination" : [ "obj-9", 0 ],
									"hidden" : 0,
									"midpoints" : [  ]
								}

							}
, 							{
								"patchline" : 								{
									"source" : [ "obj-9", 0 ],
									"destination" : [ "obj-16", 0 ],
									"hidden" : 0,
									"midpoints" : [  ]
								}

							}
, 							{
								"patchline" : 								{
									"source" : [ "obj-23", 0 ],
									"destination" : [ "obj-25", 0 ],
									"hidden" : 0,
									"midpoints" : [  ]
								}

							}
, 							{
								"patchline" : 								{
									"source" : [ "obj-3", 0 ],
									"destination" : [ "obj-6", 0 ],
									"hidden" : 0,
									"midpoints" : [  ]
								}

							}
, 							{
								"patchline" : 								{
									"source" : [ "obj-11", 0 ],
									"destination" : [ "obj-15", 0 ],
									"hidden" : 0,
									"midpoints" : [  ]
								}

							}
, 							{
								"patchline" : 								{
									"source" : [ "obj-5", 0 ],
									"destination" : [ "obj-3", 1 ],
									"hidden" : 0,
									"midpoints" : [  ]
								}

							}
, 							{
								"patchline" : 								{
									"source" : [ "obj-4", 1 ],
									"destination" : [ "obj-2", 0 ],
									"hidden" : 0,
									"midpoints" : [  ]
								}

							}
, 							{
								"patchline" : 								{
									"source" : [ "obj-12", 1 ],
									"destination" : [ "obj-10", 0 ],
									"hidden" : 0,
									"midpoints" : [  ]
								}

							}
, 							{
								"patchline" : 								{
									"source" : [ "obj-13", 0 ],
									"destination" : [ "obj-11", 1 ],
									"hidden" : 0,
									"midpoints" : [  ]
								}

							}
, 							{
								"patchline" : 								{
									"source" : [ "obj-29", 0 ],
									"destination" : [ "obj-12", 0 ],
									"hidden" : 0,
									"midpoints" : [  ]
								}

							}
, 							{
								"patchline" : 								{
									"source" : [ "obj-29", 1 ],
									"destination" : [ "obj-4", 0 ],
									"hidden" : 0,
									"midpoints" : [ 74.5, 531.0, 579.5, 531.0 ]
								}

							}
, 							{
								"patchline" : 								{
									"source" : [ "obj-34", 0 ],
									"destination" : [ "obj-33", 0 ],
									"hidden" : 0,
									"midpoints" : [  ]
								}

							}
, 							{
								"patchline" : 								{
									"source" : [ "obj-19", 0 ],
									"destination" : [ "obj-34", 0 ],
									"hidden" : 0,
									"midpoints" : [  ]
								}

							}
, 							{
								"patchline" : 								{
									"source" : [ "obj-19", 2 ],
									"destination" : [ "obj-34", 1 ],
									"hidden" : 0,
									"midpoints" : [  ]
								}

							}
, 							{
								"patchline" : 								{
									"source" : [ "obj-20", 1 ],
									"destination" : [ "obj-34", 1 ],
									"hidden" : 0,
									"midpoints" : [  ]
								}

							}
, 							{
								"patchline" : 								{
									"source" : [ "obj-18", 0 ],
									"destination" : [ "obj-21", 0 ],
									"hidden" : 0,
									"midpoints" : [  ]
								}

							}
, 							{
								"patchline" : 								{
									"source" : [ "obj-53", 1 ],
									"destination" : [ "obj-35", 1 ],
									"hidden" : 0,
									"midpoints" : [  ]
								}

							}
, 							{
								"patchline" : 								{
									"source" : [ "obj-52", 2 ],
									"destination" : [ "obj-35", 1 ],
									"hidden" : 0,
									"midpoints" : [  ]
								}

							}
, 							{
								"patchline" : 								{
									"source" : [ "obj-52", 0 ],
									"destination" : [ "obj-35", 0 ],
									"hidden" : 0,
									"midpoints" : [  ]
								}

							}
, 							{
								"patchline" : 								{
									"source" : [ "obj-37", 0 ],
									"destination" : [ "obj-19", 0 ],
									"hidden" : 0,
									"midpoints" : [  ]
								}

							}
, 							{
								"patchline" : 								{
									"source" : [ "obj-37", 1 ],
									"destination" : [ "obj-52", 0 ],
									"hidden" : 0,
									"midpoints" : [ 159.5, 225.0, 704.5, 225.0 ]
								}

							}
, 							{
								"patchline" : 								{
									"source" : [ "obj-51", 0 ],
									"destination" : [ "obj-54", 0 ],
									"hidden" : 0,
									"midpoints" : [  ]
								}

							}
, 							{
								"patchline" : 								{
									"source" : [ "obj-35", 0 ],
									"destination" : [ "obj-36", 0 ],
									"hidden" : 0,
									"midpoints" : [  ]
								}

							}
, 							{
								"patchline" : 								{
									"source" : [ "obj-56", 0 ],
									"destination" : [ "obj-29", 0 ],
									"hidden" : 0,
									"midpoints" : [  ]
								}

							}
, 							{
								"patchline" : 								{
									"source" : [ "obj-59", 0 ],
									"destination" : [ "obj-56", 0 ],
									"hidden" : 0,
									"midpoints" : [  ]
								}

							}
, 							{
								"patchline" : 								{
									"source" : [ "obj-56", 1 ],
									"destination" : [ "obj-37", 0 ],
									"hidden" : 0,
									"midpoints" : [ 73.0, 186.0, 144.5, 186.0 ]
								}

							}
, 							{
								"patchline" : 								{
									"source" : [ "obj-56", 2 ],
									"destination" : [ "obj-47", 0 ],
									"hidden" : 0,
									"midpoints" : [ 86.5, 137.0, 1144.5, 137.0 ]
								}

							}
 ]
					}
,
					"saved_object_attributes" : 					{
						"default_fontface" : 0,
						"default_fontname" : "Verdana",
						"fontname" : "Verdana",
						"default_fontsize" : 10.0,
						"globalpatchername" : "",
						"fontface" : 0,
						"fontsize" : 10.0
					}

				}

			}
, 			{
				"box" : 				{
					"maxclass" : "newobj",
					"text" : "p non_osc_messages",
					"numoutlets" : 0,
					"id" : "obj-62",
					"fontname" : "Verdana",
					"patching_rect" : [ 625.0, 195.0, 118.0, 19.0 ],
					"fontsize" : 10.0,
					"numinlets" : 1,
					"patcher" : 					{
						"fileversion" : 1,
						"rect" : [ 50.0, 94.0, 1106.0, 444.0 ],
						"bglocked" : 0,
						"defrect" : [ 50.0, 94.0, 1106.0, 444.0 ],
						"openrect" : [ 0.0, 0.0, 0.0, 0.0 ],
						"openinpresentation" : 0,
						"default_fontsize" : 10.0,
						"default_fontface" : 0,
						"default_fontname" : "Verdana",
						"gridonopen" : 0,
						"gridsize" : [ 5.0, 5.0 ],
						"gridsnaponopen" : 0,
						"toolbarvisible" : 1,
						"boxanimatetime" : 200,
						"imprint" : 0,
						"visible" : 1,
						"metadata" : [  ],
						"boxes" : [ 							{
								"box" : 								{
									"maxclass" : "newobj",
									"text" : "t 10",
									"numoutlets" : 1,
									"outlettype" : [ "int" ],
									"id" : "obj-5",
									"fontname" : "Verdana",
									"patching_rect" : [ 1040.0, 215.0, 31.0, 19.0 ],
									"fontsize" : 10.0,
									"numinlets" : 1
								}

							}
, 							{
								"box" : 								{
									"maxclass" : "newobj",
									"text" : "i",
									"numoutlets" : 1,
									"outlettype" : [ "int" ],
									"id" : "obj-1",
									"fontname" : "Verdana",
									"presentation_rect" : [ 902.0, 223.0, 0.0, 0.0 ],
									"patching_rect" : [ 900.0, 225.0, 32.5, 19.0 ],
									"fontsize" : 10.0,
									"numinlets" : 2
								}

							}
, 							{
								"box" : 								{
									"maxclass" : "newobj",
									"text" : "t b b 0",
									"numoutlets" : 3,
									"outlettype" : [ "bang", "bang", "int" ],
									"id" : "obj-2",
									"fontname" : "Verdana",
									"patching_rect" : [ 900.0, 135.0, 46.0, 19.0 ],
									"fontsize" : 10.0,
									"numinlets" : 1
								}

							}
, 							{
								"box" : 								{
									"maxclass" : "newobj",
									"text" : "jcom.oscinstance",
									"numoutlets" : 3,
									"outlettype" : [ "", "", "" ],
									"id" : "obj-3",
									"fontname" : "Verdana",
									"presentation_rect" : [ 967.0, 188.0, 0.0, 0.0 ],
									"patching_rect" : [ 965.0, 190.0, 97.0, 19.0 ],
									"fontsize" : 10.0,
									"numinlets" : 1
								}

							}
, 							{
								"box" : 								{
									"maxclass" : "newobj",
									"text" : "jcom.test.assert.equal TESTbang 10",
									"numoutlets" : 0,
									"id" : "obj-4",
									"fontname" : "Verdana",
									"patching_rect" : [ 900.0, 250.0, 193.0, 19.0 ],
									"fontsize" : 10.0,
									"numinlets" : 2
								}

							}
, 							{
								"box" : 								{
									"maxclass" : "newobj",
									"text" : "t b",
									"numoutlets" : 1,
									"outlettype" : [ "bang" ],
									"id" : "obj-55",
									"fontname" : "Verdana",
									"patching_rect" : [ 50.0, 75.0, 24.0, 19.0 ],
									"fontsize" : 10.0,
									"numinlets" : 1
								}

							}
, 							{
								"box" : 								{
									"maxclass" : "message",
									"text" : "no_slash 1 2 3",
									"numoutlets" : 1,
									"outlettype" : [ "" ],
									"id" : "obj-40",
									"fontname" : "Verdana",
									"patching_rect" : [ 115.0, 170.0, 84.0, 17.0 ],
									"fontsize" : 10.0,
									"numinlets" : 2
								}

							}
, 							{
								"box" : 								{
									"maxclass" : "newobj",
									"text" : "zl reg",
									"numoutlets" : 2,
									"outlettype" : [ "", "" ],
									"id" : "obj-41",
									"fontname" : "Verdana",
									"patching_rect" : [ 50.0, 225.0, 38.0, 19.0 ],
									"fontsize" : 10.0,
									"numinlets" : 2
								}

							}
, 							{
								"box" : 								{
									"maxclass" : "newobj",
									"text" : "t b b 0.",
									"numoutlets" : 3,
									"outlettype" : [ "bang", "bang", "float" ],
									"id" : "obj-42",
									"fontname" : "Verdana",
									"patching_rect" : [ 50.0, 135.0, 47.0, 19.0 ],
									"fontsize" : 10.0,
									"numinlets" : 1
								}

							}
, 							{
								"box" : 								{
									"maxclass" : "newobj",
									"text" : "jcom.oscinstance",
									"numoutlets" : 3,
									"outlettype" : [ "", "", "" ],
									"id" : "obj-43",
									"fontname" : "Verdana",
									"patching_rect" : [ 115.0, 190.0, 97.0, 19.0 ],
									"fontsize" : 10.0,
									"numinlets" : 1
								}

							}
, 							{
								"box" : 								{
									"maxclass" : "newobj",
									"text" : "jcom.test.assert.equal TESTnon_osc_symbol no_slash 1 2 3",
									"linecount" : 2,
									"numoutlets" : 0,
									"id" : "obj-44",
									"fontname" : "Verdana",
									"patching_rect" : [ 50.0, 250.0, 209.0, 31.0 ],
									"fontsize" : 10.0,
									"numinlets" : 2
								}

							}
, 							{
								"box" : 								{
									"maxclass" : "message",
									"text" : "1 2 3",
									"numoutlets" : 1,
									"outlettype" : [ "" ],
									"id" : "obj-39",
									"fontname" : "Verdana",
									"patching_rect" : [ 330.0, 170.0, 37.0, 17.0 ],
									"fontsize" : 10.0,
									"numinlets" : 2
								}

							}
, 							{
								"box" : 								{
									"maxclass" : "newobj",
									"text" : "zl reg",
									"numoutlets" : 2,
									"outlettype" : [ "", "" ],
									"id" : "obj-35",
									"fontname" : "Verdana",
									"patching_rect" : [ 265.0, 225.0, 38.0, 19.0 ],
									"fontsize" : 10.0,
									"numinlets" : 2
								}

							}
, 							{
								"box" : 								{
									"maxclass" : "newobj",
									"text" : "t b b 0.",
									"numoutlets" : 3,
									"outlettype" : [ "bang", "bang", "float" ],
									"id" : "obj-36",
									"fontname" : "Verdana",
									"patching_rect" : [ 265.0, 135.0, 47.0, 19.0 ],
									"fontsize" : 10.0,
									"numinlets" : 1
								}

							}
, 							{
								"box" : 								{
									"maxclass" : "newobj",
									"text" : "jcom.oscinstance",
									"numoutlets" : 3,
									"outlettype" : [ "", "", "" ],
									"id" : "obj-37",
									"fontname" : "Verdana",
									"patching_rect" : [ 330.0, 190.0, 97.0, 19.0 ],
									"fontsize" : 10.0,
									"numinlets" : 1
								}

							}
, 							{
								"box" : 								{
									"maxclass" : "newobj",
									"text" : "jcom.test.assert.equal TESTlist 1 2 3",
									"numoutlets" : 0,
									"id" : "obj-38",
									"fontname" : "Verdana",
									"patching_rect" : [ 265.0, 250.0, 196.0, 19.0 ],
									"fontsize" : 10.0,
									"numinlets" : 2
								}

							}
, 							{
								"box" : 								{
									"maxclass" : "newobj",
									"text" : "i",
									"numoutlets" : 1,
									"outlettype" : [ "int" ],
									"id" : "obj-26",
									"fontname" : "Verdana",
									"patching_rect" : [ 700.0, 225.0, 32.5, 19.0 ],
									"fontsize" : 10.0,
									"numinlets" : 2
								}

							}
, 							{
								"box" : 								{
									"maxclass" : "newobj",
									"text" : "t b 10 0",
									"numoutlets" : 3,
									"outlettype" : [ "bang", "int", "int" ],
									"id" : "obj-27",
									"fontname" : "Verdana",
									"patching_rect" : [ 700.0, 135.0, 50.0, 19.0 ],
									"fontsize" : 10.0,
									"numinlets" : 1
								}

							}
, 							{
								"box" : 								{
									"maxclass" : "newobj",
									"text" : "jcom.oscinstance",
									"numoutlets" : 3,
									"outlettype" : [ "", "", "" ],
									"id" : "obj-28",
									"fontname" : "Verdana",
									"patching_rect" : [ 765.0, 190.0, 97.0, 19.0 ],
									"fontsize" : 10.0,
									"numinlets" : 1
								}

							}
, 							{
								"box" : 								{
									"maxclass" : "newobj",
									"text" : "jcom.test.assert.equal TESTint 10",
									"numoutlets" : 0,
									"id" : "obj-29",
									"fontname" : "Verdana",
									"patching_rect" : [ 700.0, 250.0, 181.0, 19.0 ],
									"fontsize" : 10.0,
									"numinlets" : 2
								}

							}
, 							{
								"box" : 								{
									"maxclass" : "newobj",
									"text" : "f",
									"numoutlets" : 1,
									"outlettype" : [ "float" ],
									"id" : "obj-25",
									"fontname" : "Verdana",
									"patching_rect" : [ 480.0, 225.0, 32.5, 19.0 ],
									"fontsize" : 10.0,
									"numinlets" : 2
								}

							}
, 							{
								"box" : 								{
									"maxclass" : "newobj",
									"text" : "t b 3.14 0.",
									"numoutlets" : 3,
									"outlettype" : [ "bang", "float", "float" ],
									"id" : "obj-20",
									"fontname" : "Verdana",
									"patching_rect" : [ 480.0, 135.0, 64.0, 19.0 ],
									"fontsize" : 10.0,
									"numinlets" : 1
								}

							}
, 							{
								"box" : 								{
									"maxclass" : "newobj",
									"text" : "jcom.oscinstance",
									"numoutlets" : 3,
									"outlettype" : [ "", "", "" ],
									"id" : "obj-9",
									"fontname" : "Verdana",
									"patching_rect" : [ 545.0, 190.0, 97.0, 19.0 ],
									"fontsize" : 10.0,
									"numinlets" : 1
								}

							}
, 							{
								"box" : 								{
									"maxclass" : "newobj",
									"text" : "jcom.test.assert.equal TESTfloat 3.14",
									"numoutlets" : 0,
									"id" : "obj-6",
									"fontname" : "Verdana",
									"patching_rect" : [ 480.0, 250.0, 200.0, 19.0 ],
									"fontsize" : 10.0,
									"numinlets" : 2
								}

							}
, 							{
								"box" : 								{
									"maxclass" : "inlet",
									"numoutlets" : 1,
									"outlettype" : [ "bang" ],
									"id" : "obj-61",
									"patching_rect" : [ 50.0, 30.0, 25.0, 25.0 ],
									"numinlets" : 0,
									"comment" : ""
								}

							}
 ],
						"lines" : [ 							{
								"patchline" : 								{
									"source" : [ "obj-55", 0 ],
									"destination" : [ "obj-2", 0 ],
									"hidden" : 0,
									"midpoints" : [ 59.5, 120.0, 909.5, 120.0 ]
								}

							}
, 							{
								"patchline" : 								{
									"source" : [ "obj-1", 0 ],
									"destination" : [ "obj-4", 0 ],
									"hidden" : 0,
									"midpoints" : [  ]
								}

							}
, 							{
								"patchline" : 								{
									"source" : [ "obj-5", 0 ],
									"destination" : [ "obj-1", 1 ],
									"hidden" : 0,
									"midpoints" : [ 1049.5, 239.0, 943.0, 239.0, 943.0, 222.0, 923.0, 222.0 ]
								}

							}
, 							{
								"patchline" : 								{
									"source" : [ "obj-3", 2 ],
									"destination" : [ "obj-5", 0 ],
									"hidden" : 0,
									"midpoints" : [  ]
								}

							}
, 							{
								"patchline" : 								{
									"source" : [ "obj-2", 2 ],
									"destination" : [ "obj-1", 1 ],
									"hidden" : 0,
									"midpoints" : [  ]
								}

							}
, 							{
								"patchline" : 								{
									"source" : [ "obj-2", 0 ],
									"destination" : [ "obj-1", 0 ],
									"hidden" : 0,
									"midpoints" : [  ]
								}

							}
, 							{
								"patchline" : 								{
									"source" : [ "obj-2", 1 ],
									"destination" : [ "obj-3", 0 ],
									"hidden" : 0,
									"midpoints" : [  ]
								}

							}
, 							{
								"patchline" : 								{
									"source" : [ "obj-20", 2 ],
									"destination" : [ "obj-25", 1 ],
									"hidden" : 0,
									"midpoints" : [  ]
								}

							}
, 							{
								"patchline" : 								{
									"source" : [ "obj-20", 1 ],
									"destination" : [ "obj-9", 0 ],
									"hidden" : 0,
									"midpoints" : [  ]
								}

							}
, 							{
								"patchline" : 								{
									"source" : [ "obj-9", 2 ],
									"destination" : [ "obj-25", 1 ],
									"hidden" : 0,
									"midpoints" : [  ]
								}

							}
, 							{
								"patchline" : 								{
									"source" : [ "obj-20", 0 ],
									"destination" : [ "obj-25", 0 ],
									"hidden" : 0,
									"midpoints" : [  ]
								}

							}
, 							{
								"patchline" : 								{
									"source" : [ "obj-25", 0 ],
									"destination" : [ "obj-6", 0 ],
									"hidden" : 0,
									"midpoints" : [  ]
								}

							}
, 							{
								"patchline" : 								{
									"source" : [ "obj-26", 0 ],
									"destination" : [ "obj-29", 0 ],
									"hidden" : 0,
									"midpoints" : [  ]
								}

							}
, 							{
								"patchline" : 								{
									"source" : [ "obj-28", 2 ],
									"destination" : [ "obj-26", 1 ],
									"hidden" : 0,
									"midpoints" : [  ]
								}

							}
, 							{
								"patchline" : 								{
									"source" : [ "obj-27", 2 ],
									"destination" : [ "obj-26", 1 ],
									"hidden" : 0,
									"midpoints" : [  ]
								}

							}
, 							{
								"patchline" : 								{
									"source" : [ "obj-27", 0 ],
									"destination" : [ "obj-26", 0 ],
									"hidden" : 0,
									"midpoints" : [  ]
								}

							}
, 							{
								"patchline" : 								{
									"source" : [ "obj-27", 1 ],
									"destination" : [ "obj-28", 0 ],
									"hidden" : 0,
									"midpoints" : [  ]
								}

							}
, 							{
								"patchline" : 								{
									"source" : [ "obj-39", 0 ],
									"destination" : [ "obj-37", 0 ],
									"hidden" : 0,
									"midpoints" : [  ]
								}

							}
, 							{
								"patchline" : 								{
									"source" : [ "obj-36", 1 ],
									"destination" : [ "obj-39", 0 ],
									"hidden" : 0,
									"midpoints" : [  ]
								}

							}
, 							{
								"patchline" : 								{
									"source" : [ "obj-36", 0 ],
									"destination" : [ "obj-35", 0 ],
									"hidden" : 0,
									"midpoints" : [  ]
								}

							}
, 							{
								"patchline" : 								{
									"source" : [ "obj-36", 2 ],
									"destination" : [ "obj-35", 1 ],
									"hidden" : 0,
									"midpoints" : [  ]
								}

							}
, 							{
								"patchline" : 								{
									"source" : [ "obj-35", 0 ],
									"destination" : [ "obj-38", 0 ],
									"hidden" : 0,
									"midpoints" : [  ]
								}

							}
, 							{
								"patchline" : 								{
									"source" : [ "obj-37", 2 ],
									"destination" : [ "obj-35", 1 ],
									"hidden" : 0,
									"midpoints" : [  ]
								}

							}
, 							{
								"patchline" : 								{
									"source" : [ "obj-43", 2 ],
									"destination" : [ "obj-41", 1 ],
									"hidden" : 0,
									"midpoints" : [  ]
								}

							}
, 							{
								"patchline" : 								{
									"source" : [ "obj-42", 2 ],
									"destination" : [ "obj-41", 1 ],
									"hidden" : 0,
									"midpoints" : [  ]
								}

							}
, 							{
								"patchline" : 								{
									"source" : [ "obj-42", 0 ],
									"destination" : [ "obj-41", 0 ],
									"hidden" : 0,
									"midpoints" : [  ]
								}

							}
, 							{
								"patchline" : 								{
									"source" : [ "obj-42", 1 ],
									"destination" : [ "obj-40", 0 ],
									"hidden" : 0,
									"midpoints" : [  ]
								}

							}
, 							{
								"patchline" : 								{
									"source" : [ "obj-40", 0 ],
									"destination" : [ "obj-43", 0 ],
									"hidden" : 0,
									"midpoints" : [  ]
								}

							}
, 							{
								"patchline" : 								{
									"source" : [ "obj-41", 0 ],
									"destination" : [ "obj-44", 0 ],
									"hidden" : 0,
									"midpoints" : [  ]
								}

							}
, 							{
								"patchline" : 								{
									"source" : [ "obj-55", 0 ],
									"destination" : [ "obj-42", 0 ],
									"hidden" : 0,
									"midpoints" : [  ]
								}

							}
, 							{
								"patchline" : 								{
									"source" : [ "obj-55", 0 ],
									"destination" : [ "obj-36", 0 ],
									"hidden" : 0,
									"midpoints" : [ 59.5, 121.0, 274.5, 121.0 ]
								}

							}
, 							{
								"patchline" : 								{
									"source" : [ "obj-55", 0 ],
									"destination" : [ "obj-20", 0 ],
									"hidden" : 0,
									"midpoints" : [ 59.5, 121.0, 489.5, 121.0 ]
								}

							}
, 							{
								"patchline" : 								{
									"source" : [ "obj-55", 0 ],
									"destination" : [ "obj-27", 0 ],
									"hidden" : 0,
									"midpoints" : [ 59.5, 121.0, 709.5, 121.0 ]
								}

							}
, 							{
								"patchline" : 								{
									"source" : [ "obj-61", 0 ],
									"destination" : [ "obj-55", 0 ],
									"hidden" : 0,
									"midpoints" : [  ]
								}

							}
 ]
					}
,
					"saved_object_attributes" : 					{
						"default_fontface" : 0,
						"default_fontname" : "Verdana",
						"fontname" : "Verdana",
						"default_fontsize" : 10.0,
						"globalpatchername" : "",
						"fontface" : 0,
						"fontsize" : 10.0
					}

				}

			}
, 			{
				"box" : 				{
					"maxclass" : "newobj",
					"text" : "p osc_messages_without_instances",
					"numoutlets" : 0,
					"id" : "obj-60",
					"fontname" : "Verdana",
					"patching_rect" : [ 430.0, 195.0, 190.0, 19.0 ],
					"fontsize" : 10.0,
					"numinlets" : 1,
					"patcher" : 					{
						"fileversion" : 1,
						"rect" : [ 0.0, 0.0, 640.0, 480.0 ],
						"bglocked" : 0,
						"defrect" : [ 0.0, 0.0, 640.0, 480.0 ],
						"openrect" : [ 0.0, 0.0, 0.0, 0.0 ],
						"openinpresentation" : 0,
						"default_fontsize" : 10.0,
						"default_fontface" : 0,
						"default_fontname" : "Verdana",
						"gridonopen" : 0,
						"gridsize" : [ 5.0, 5.0 ],
						"gridsnaponopen" : 0,
						"toolbarvisible" : 1,
						"boxanimatetime" : 200,
						"imprint" : 0,
						"metadata" : [  ],
						"boxes" : [ 							{
								"box" : 								{
									"maxclass" : "newobj",
									"text" : "t b",
									"numoutlets" : 1,
									"outlettype" : [ "bang" ],
									"id" : "obj-56",
									"fontname" : "Verdana",
									"patching_rect" : [ 50.0, 100.0, 24.0, 19.0 ],
									"fontsize" : 10.0,
									"numinlets" : 1
								}

							}
, 							{
								"box" : 								{
									"maxclass" : "message",
									"text" : "/two/branches 1 2 3",
									"numoutlets" : 1,
									"outlettype" : [ "" ],
									"id" : "obj-50",
									"fontname" : "Verdana",
									"patching_rect" : [ 545.0, 180.0, 113.0, 17.0 ],
									"fontsize" : 10.0,
									"numinlets" : 2
								}

							}
, 							{
								"box" : 								{
									"maxclass" : "newobj",
									"text" : "zl reg",
									"numoutlets" : 2,
									"outlettype" : [ "", "" ],
									"id" : "obj-51",
									"fontname" : "Verdana",
									"patching_rect" : [ 480.0, 235.0, 38.0, 19.0 ],
									"fontsize" : 10.0,
									"numinlets" : 2
								}

							}
, 							{
								"box" : 								{
									"maxclass" : "newobj",
									"text" : "t b b 0.",
									"numoutlets" : 3,
									"outlettype" : [ "bang", "bang", "float" ],
									"id" : "obj-52",
									"fontname" : "Verdana",
									"patching_rect" : [ 480.0, 145.0, 47.0, 19.0 ],
									"fontsize" : 10.0,
									"numinlets" : 1
								}

							}
, 							{
								"box" : 								{
									"maxclass" : "newobj",
									"text" : "jcom.oscinstance",
									"numoutlets" : 3,
									"outlettype" : [ "", "", "" ],
									"id" : "obj-53",
									"fontname" : "Verdana",
									"patching_rect" : [ 545.0, 200.0, 97.0, 19.0 ],
									"fontsize" : 10.0,
									"numinlets" : 1
								}

							}
, 							{
								"box" : 								{
									"maxclass" : "newobj",
									"text" : "jcom.test.assert.equal TESTosc_several_branches_no_instance /two/branches 1 2 3",
									"linecount" : 3,
									"numoutlets" : 0,
									"id" : "obj-54",
									"fontname" : "Verdana",
									"patching_rect" : [ 480.0, 265.0, 214.0, 43.0 ],
									"fontsize" : 10.0,
									"numinlets" : 2
								}

							}
, 							{
								"box" : 								{
									"maxclass" : "message",
									"text" : "/one_branch 1 2 3",
									"numoutlets" : 1,
									"outlettype" : [ "" ],
									"id" : "obj-45",
									"fontname" : "Verdana",
									"patching_rect" : [ 770.0, 180.0, 104.0, 17.0 ],
									"fontsize" : 10.0,
									"numinlets" : 2
								}

							}
, 							{
								"box" : 								{
									"maxclass" : "newobj",
									"text" : "zl reg",
									"numoutlets" : 2,
									"outlettype" : [ "", "" ],
									"id" : "obj-46",
									"fontname" : "Verdana",
									"patching_rect" : [ 705.0, 235.0, 38.0, 19.0 ],
									"fontsize" : 10.0,
									"numinlets" : 2
								}

							}
, 							{
								"box" : 								{
									"maxclass" : "newobj",
									"text" : "t b b 0.",
									"numoutlets" : 3,
									"outlettype" : [ "bang", "bang", "float" ],
									"id" : "obj-47",
									"fontname" : "Verdana",
									"patching_rect" : [ 705.0, 145.0, 47.0, 19.0 ],
									"fontsize" : 10.0,
									"numinlets" : 1
								}

							}
, 							{
								"box" : 								{
									"maxclass" : "newobj",
									"text" : "jcom.oscinstance",
									"numoutlets" : 3,
									"outlettype" : [ "", "", "" ],
									"id" : "obj-48",
									"fontname" : "Verdana",
									"patching_rect" : [ 770.0, 200.0, 97.0, 19.0 ],
									"fontsize" : 10.0,
									"numinlets" : 1
								}

							}
, 							{
								"box" : 								{
									"maxclass" : "newobj",
									"text" : "jcom.test.assert.equal TESTosc_one_branch_no_instance /one_branch 1 2 3",
									"linecount" : 3,
									"numoutlets" : 0,
									"id" : "obj-49",
									"fontname" : "Verdana",
									"patching_rect" : [ 705.0, 265.0, 194.0, 43.0 ],
									"fontsize" : 10.0,
									"numinlets" : 2
								}

							}
, 							{
								"box" : 								{
									"maxclass" : "inlet",
									"numoutlets" : 1,
									"outlettype" : [ "bang" ],
									"id" : "obj-59",
									"patching_rect" : [ 55.0, 40.0, 25.0, 25.0 ],
									"numinlets" : 0,
									"comment" : ""
								}

							}
 ],
						"lines" : [ 							{
								"patchline" : 								{
									"source" : [ "obj-45", 0 ],
									"destination" : [ "obj-48", 0 ],
									"hidden" : 0,
									"midpoints" : [  ]
								}

							}
, 							{
								"patchline" : 								{
									"source" : [ "obj-47", 1 ],
									"destination" : [ "obj-45", 0 ],
									"hidden" : 0,
									"midpoints" : [  ]
								}

							}
, 							{
								"patchline" : 								{
									"source" : [ "obj-47", 0 ],
									"destination" : [ "obj-46", 0 ],
									"hidden" : 0,
									"midpoints" : [  ]
								}

							}
, 							{
								"patchline" : 								{
									"source" : [ "obj-47", 2 ],
									"destination" : [ "obj-46", 1 ],
									"hidden" : 0,
									"midpoints" : [  ]
								}

							}
, 							{
								"patchline" : 								{
									"source" : [ "obj-48", 2 ],
									"destination" : [ "obj-46", 1 ],
									"hidden" : 0,
									"midpoints" : [  ]
								}

							}
, 							{
								"patchline" : 								{
									"source" : [ "obj-46", 0 ],
									"destination" : [ "obj-49", 0 ],
									"hidden" : 0,
									"midpoints" : [  ]
								}

							}
, 							{
								"patchline" : 								{
									"source" : [ "obj-53", 2 ],
									"destination" : [ "obj-51", 1 ],
									"hidden" : 0,
									"midpoints" : [  ]
								}

							}
, 							{
								"patchline" : 								{
									"source" : [ "obj-52", 2 ],
									"destination" : [ "obj-51", 1 ],
									"hidden" : 0,
									"midpoints" : [  ]
								}

							}
, 							{
								"patchline" : 								{
									"source" : [ "obj-52", 0 ],
									"destination" : [ "obj-51", 0 ],
									"hidden" : 0,
									"midpoints" : [  ]
								}

							}
, 							{
								"patchline" : 								{
									"source" : [ "obj-52", 1 ],
									"destination" : [ "obj-50", 0 ],
									"hidden" : 0,
									"midpoints" : [  ]
								}

							}
, 							{
								"patchline" : 								{
									"source" : [ "obj-50", 0 ],
									"destination" : [ "obj-53", 0 ],
									"hidden" : 0,
									"midpoints" : [  ]
								}

							}
, 							{
								"patchline" : 								{
									"source" : [ "obj-51", 0 ],
									"destination" : [ "obj-54", 0 ],
									"hidden" : 0,
									"midpoints" : [  ]
								}

							}
, 							{
								"patchline" : 								{
									"source" : [ "obj-56", 0 ],
									"destination" : [ "obj-52", 0 ],
									"hidden" : 0,
									"midpoints" : [ 59.5, 131.0, 489.5, 131.0 ]
								}

							}
, 							{
								"patchline" : 								{
									"source" : [ "obj-56", 0 ],
									"destination" : [ "obj-47", 0 ],
									"hidden" : 0,
									"midpoints" : [ 59.5, 131.0, 714.5, 131.0 ]
								}

							}
, 							{
								"patchline" : 								{
									"source" : [ "obj-59", 0 ],
									"destination" : [ "obj-56", 0 ],
									"hidden" : 0,
									"midpoints" : [  ]
								}

							}
 ]
					}
,
					"saved_object_attributes" : 					{
						"default_fontface" : 0,
						"default_fontname" : "Verdana",
						"fontname" : "Verdana",
						"default_fontsize" : 10.0,
						"globalpatchername" : "",
						"fontface" : 0,
						"fontsize" : 10.0
					}

				}

			}
, 			{
				"box" : 				{
					"maxclass" : "button",
					"numoutlets" : 1,
					"outlettype" : [ "bang" ],
					"id" : "obj-33",
					"patching_rect" : [ 240.0, 165.0, 20.0, 20.0 ],
					"numinlets" : 1
				}

			}
 ],
		"lines" : [ 			{
				"patchline" : 				{
					"source" : [ "obj-4", 3 ],
					"destination" : [ "obj-2", 0 ],
					"hidden" : 0,
					"midpoints" : [ 170.0, 149.0, 634.5, 149.0 ]
				}

			}
, 			{
				"patchline" : 				{
					"source" : [ "obj-4", 2 ],
					"destination" : [ "obj-3", 0 ],
					"hidden" : 0,
					"midpoints" : [ 156.5, 154.0, 439.5, 154.0 ]
				}

			}
, 			{
				"patchline" : 				{
					"source" : [ "obj-4", 1 ],
					"destination" : [ "obj-33", 0 ],
					"hidden" : 0,
					"midpoints" : [ 143.0, 159.0, 249.5, 159.0 ]
				}

			}
, 			{
				"patchline" : 				{
					"source" : [ "obj-4", 0 ],
					"destination" : [ "obj-54", 0 ],
					"hidden" : 0,
					"midpoints" : [  ]
				}

			}
, 			{
				"patchline" : 				{
					"source" : [ "obj-1", 0 ],
					"destination" : [ "obj-4", 0 ],
					"hidden" : 0,
					"midpoints" : [  ]
				}

			}
, 			{
				"patchline" : 				{
					"source" : [ "obj-54", 0 ],
					"destination" : [ "obj-53", 0 ],
					"hidden" : 0,
					"midpoints" : [  ]
				}

			}
, 			{
				"patchline" : 				{
					"source" : [ "obj-3", 0 ],
					"destination" : [ "obj-60", 0 ],
					"hidden" : 0,
					"midpoints" : [  ]
				}

			}
, 			{
				"patchline" : 				{
					"source" : [ "obj-2", 0 ],
					"destination" : [ "obj-62", 0 ],
					"hidden" : 0,
					"midpoints" : [  ]
				}

			}
, 			{
				"patchline" : 				{
					"source" : [ "obj-33", 0 ],
					"destination" : [ "obj-6", 0 ],
					"hidden" : 0,
					"midpoints" : [  ]
				}

			}
 ]
	}

}
