{
	"patcher" : 	{
		"fileversion" : 1,
		"rect" : [ 34.0, 80.0, 1242.0, 744.0 ],
		"bglocked" : 0,
		"defrect" : [ 34.0, 80.0, 1242.0, 744.0 ],
		"openrect" : [ 0.0, 0.0, 0.0, 0.0 ],
		"openinpresentation" : 0,
		"default_fontsize" : 10.0,
		"default_fontface" : 0,
		"default_fontname" : "Verdana",
		"gridonopen" : 0,
		"gridsize" : [ 5.0, 5.0 ],
		"gridsnaponopen" : 0,
		"toolbarvisible" : 1,
		"boxanimatetime" : 200,
		"imprint" : 0,
		"metadata" : [  ],
		"boxes" : [ 			{
				"box" : 				{
					"maxclass" : "newobj",
					"varname" : "multiout",
					"text" : "jcom.multi.out~",
					"outlettype" : [ "", "", "", "", "", "", "", "", "", "", "", "", "", "", "", "", "", "", "", "", "", "", "", "", "", "", "", "", "", "", "", "" ],
					"fontsize" : 10.0,
					"patching_rect" : [ 80.0, 86.0, 417.0, 17.0 ],
					"numinlets" : 2,
					"id" : "obj-1",
					"fontname" : "Verdana",
					"numoutlets" : 32
				}

			}
, 			{
				"box" : 				{
					"maxclass" : "newobj",
					"varname" : "multiin",
					"text" : "jcom.multi.in~",
					"outlettype" : [ "" ],
					"fontsize" : 10.0,
					"patching_rect" : [ 80.0, 602.0, 417.0, 17.0 ],
					"numinlets" : 32,
					"id" : "obj-2",
					"fontname" : "Verdana",
					"numoutlets" : 1
				}

			}
, 			{
				"box" : 				{
					"maxclass" : "newobj",
					"text" : "jcom.oscroute /aed",
					"outlettype" : [ "", "" ],
					"fontsize" : 10.0,
					"patching_rect" : [ 779.0, 83.0, 98.0, 17.0 ],
					"numinlets" : 1,
					"id" : "obj-3",
					"fontname" : "Verdana",
					"numoutlets" : 2
				}

			}
, 			{
				"box" : 				{
					"maxclass" : "newobj",
					"varname" : "oscroute",
					"text" : "jcom.oscroute /meters_per_unit",
					"outlettype" : [ "", "" ],
					"fontsize" : 10.0,
					"patching_rect" : [ 1028.0, 190.0, 159.0, 17.0 ],
					"numinlets" : 1,
					"id" : "obj-4",
					"fontname" : "Verdana",
					"numoutlets" : 2
				}

			}
, 			{
				"box" : 				{
					"maxclass" : "newobj",
					"varname" : "route",
					"text" : "route 1 2 3 4 5 6 7 8 9 10 11 12 13 14 15 16",
					"outlettype" : [ "", "", "", "", "", "", "", "", "", "", "", "", "", "", "", "", "" ],
					"fontsize" : 10.0,
					"patching_rect" : [ 779.0, 163.0, 222.0, 17.0 ],
					"numinlets" : 1,
					"id" : "obj-5",
					"fontname" : "Verdana",
					"numoutlets" : 17
				}

			}
, 			{
				"box" : 				{
					"maxclass" : "newobj",
					"text" : "prepend dspstate",
					"outlettype" : [ "" ],
					"fontsize" : 10.0,
					"patching_rect" : [ 969.0, 540.0, 87.0, 17.0 ],
					"numinlets" : 1,
					"id" : "obj-6",
					"fontname" : "Verdana",
					"numoutlets" : 1
				}

			}
, 			{
				"box" : 				{
					"maxclass" : "inlet",
					"outlettype" : [ "" ],
					"patching_rect" : [ 20.0, 49.0, 15.0, 15.0 ],
					"numinlets" : 0,
					"id" : "obj-7",
					"numoutlets" : 1,
					"comment" : ""
				}

			}
, 			{
				"box" : 				{
					"maxclass" : "newobj",
					"text" : "dspstate~",
					"outlettype" : [ "int", "float", "int", "int" ],
					"fontsize" : 10.0,
					"patching_rect" : [ 969.0, 515.0, 54.0, 17.0 ],
					"numinlets" : 1,
					"id" : "obj-8",
					"fontname" : "Verdana",
					"numoutlets" : 4
				}

			}
, 			{
				"box" : 				{
					"maxclass" : "newobj",
					"text" : "jcom.pass /voices",
					"outlettype" : [ "", "" ],
					"fontsize" : 10.0,
					"patching_rect" : [ 867.0, 109.0, 93.0, 17.0 ],
					"numinlets" : 1,
					"id" : "obj-9",
					"fontname" : "Verdana",
					"numoutlets" : 2
				}

			}
, 			{
				"box" : 				{
					"maxclass" : "outlet",
					"varname" : "out[1]",
					"patching_rect" : [ 80.0, 640.0, 15.0, 15.0 ],
					"numinlets" : 1,
					"id" : "obj-10",
					"numoutlets" : 0,
					"comment" : ""
				}

			}
, 			{
				"box" : 				{
					"maxclass" : "inlet",
					"varname" : "in[1]",
					"outlettype" : [ "" ],
					"patching_rect" : [ 80.0, 49.0, 15.0, 15.0 ],
					"numinlets" : 0,
					"id" : "obj-11",
					"numoutlets" : 1,
					"comment" : ""
				}

			}
, 			{
				"box" : 				{
					"maxclass" : "newobj",
					"text" : "thispatcher",
					"outlettype" : [ "", "" ],
					"fontsize" : 10.0,
					"patching_rect" : [ 867.0, 612.0, 61.0, 17.0 ],
					"numinlets" : 1,
					"id" : "obj-12",
					"fontname" : "Verdana",
					"numoutlets" : 2,
					"save" : [ "#N", "thispatcher", ";", "#Q", "end", ";" ]
				}

			}
, 			{
				"box" : 				{
					"maxclass" : "newobj",
					"varname" : "javascript",
					"text" : "js jcom.sur.doppler.js",
					"outlettype" : [ "" ],
					"fontsize" : 10.0,
					"patching_rect" : [ 867.0, 587.0, 110.0, 17.0 ],
					"numinlets" : 1,
					"id" : "obj-13",
					"fontname" : "Verdana",
					"numoutlets" : 1
				}

			}
 ],
		"lines" : [ 			{
				"patchline" : 				{
					"source" : [ "obj-9", 1 ],
					"destination" : [ "obj-4", 0 ],
					"hidden" : 0,
					"midpoints" : [ 950.5, 138.0, 1037.5, 138.0 ]
				}

			}
, 			{
				"patchline" : 				{
					"source" : [ "obj-8", 0 ],
					"destination" : [ "obj-6", 0 ],
					"hidden" : 0,
					"midpoints" : [  ]
				}

			}
, 			{
				"patchline" : 				{
					"source" : [ "obj-13", 0 ],
					"destination" : [ "obj-12", 0 ],
					"hidden" : 0,
					"midpoints" : [  ]
				}

			}
, 			{
				"patchline" : 				{
					"source" : [ "obj-9", 0 ],
					"destination" : [ "obj-13", 0 ],
					"hidden" : 0,
					"midpoints" : [  ]
				}

			}
, 			{
				"patchline" : 				{
					"source" : [ "obj-6", 0 ],
					"destination" : [ "obj-13", 0 ],
					"hidden" : 0,
					"midpoints" : [ 978.5, 577.0, 876.5, 577.0 ]
				}

			}
, 			{
				"patchline" : 				{
					"source" : [ "obj-3", 1 ],
					"destination" : [ "obj-9", 0 ],
					"hidden" : 0,
					"midpoints" : [  ]
				}

			}
, 			{
				"patchline" : 				{
					"source" : [ "obj-3", 0 ],
					"destination" : [ "obj-5", 0 ],
					"hidden" : 0,
					"midpoints" : [  ]
				}

			}
, 			{
				"patchline" : 				{
					"source" : [ "obj-7", 0 ],
					"destination" : [ "obj-3", 0 ],
					"hidden" : 0,
					"midpoints" : [ 29.0, 76.0, 788.5, 76.0 ]
				}

			}
, 			{
				"patchline" : 				{
					"source" : [ "obj-2", 0 ],
					"destination" : [ "obj-10", 0 ],
					"hidden" : 0,
					"midpoints" : [  ]
				}

			}
, 			{
				"patchline" : 				{
					"source" : [ "obj-11", 0 ],
					"destination" : [ "obj-1", 0 ],
					"hidden" : 0,
					"midpoints" : [  ]
				}

			}
 ]
	}

}
