{
	"patcher" : 	{
		"fileversion" : 1,
		"rect" : [ 43.0, 57.0, 1243.0, 528.0 ],
		"bglocked" : 0,
		"defrect" : [ 43.0, 57.0, 1243.0, 528.0 ],
		"openrect" : [ 0.0, 0.0, 0.0, 0.0 ],
		"openinpresentation" : 1,
		"default_fontsize" : 10.0,
		"default_fontface" : 0,
		"default_fontname" : "Verdana",
		"gridonopen" : 0,
		"gridsize" : [ 5.0, 5.0 ],
		"gridsnaponopen" : 0,
		"toolbarvisible" : 1,
		"boxanimatetime" : 200,
		"imprint" : 0,
		"metadata" : [  ],
		"boxes" : [ 			{
				"box" : 				{
					"maxclass" : "message",
					"text" : "/audio/mute 0",
					"fontname" : "Verdana",
					"numinlets" : 2,
					"fontsize" : 10.0,
					"patching_rect" : [ 50.0, 225.0, 112.0, 17.0 ],
					"numoutlets" : 1,
					"id" : "obj-3",
					"outlettype" : [ "" ]
				}

			}
, 			{
				"box" : 				{
					"maxclass" : "message",
					"text" : "set",
					"fontname" : "Verdana",
					"numinlets" : 2,
					"fontsize" : 10.0,
					"patching_rect" : [ 345.0, 185.0, 32.5, 17.0 ],
					"numoutlets" : 1,
					"id" : "obj-35",
					"outlettype" : [ "" ]
				}

			}
, 			{
				"box" : 				{
					"maxclass" : "message",
					"text" : "/audio/mute 0",
					"linecount" : 2,
					"fontname" : "Verdana",
					"numinlets" : 2,
					"fontsize" : 10.0,
					"patching_rect" : [ 345.0, 215.0, 50.0, 29.0 ],
					"numoutlets" : 1,
					"id" : "obj-34",
					"outlettype" : [ "" ]
				}

			}
, 			{
				"box" : 				{
					"maxclass" : "newobj",
					"text" : "jcom.in",
					"fontname" : "Verdana",
					"numinlets" : 1,
					"fontsize" : 10.0,
					"patching_rect" : [ 180.0, 190.0, 46.0, 19.0 ],
					"numoutlets" : 2,
					"id" : "obj-1",
					"outlettype" : [ "", "" ]
				}

			}
, 			{
				"box" : 				{
					"maxclass" : "newobj",
					"varname" : "meters_per_unit",
					"text" : "jcom.parameter meters_per_unit @type msg_float @repetitions/allow 0 @range/bounds 0. 10. @range/clipmode low @description \"Meters per unit lengt as provided by the /aed messages.\"",
					"linecount" : 2,
					"fontname" : "Verdana",
					"numinlets" : 1,
					"fontsize" : 10.0,
					"patching_rect" : [ 590.0, 169.0, 576.0, 31.0 ],
					"numoutlets" : 3,
					"id" : "obj-2",
					"outlettype" : [ "", "", "" ]
				}

			}
, 			{
				"box" : 				{
					"maxclass" : "flonum",
					"varname" : "PerUnit",
					"fontname" : "Verdana",
					"triangle" : 0,
					"triscale" : 0.9,
					"presentation_rect" : [ 205.0, 25.0, 41.0, 19.0 ],
					"numinlets" : 1,
					"fontsize" : 10.0,
					"patching_rect" : [ 590.0, 145.0, 41.0, 19.0 ],
					"presentation" : 1,
					"numoutlets" : 2,
					"minimum" : 0.0,
					"id" : "obj-4",
					"outlettype" : [ "float", "bang" ],
					"maximum" : 10.0
				}

			}
, 			{
				"box" : 				{
					"maxclass" : "comment",
					"text" : "Metres per unit",
					"fontname" : "Verdana",
					"presentation_rect" : [ 115.0, 25.0, 85.0, 19.0 ],
					"frgb" : [ 0.658824, 0.658824, 0.658824, 1.0 ],
					"numinlets" : 1,
					"fontsize" : 10.0,
					"patching_rect" : [ 130.0, 25.0, 85.0, 19.0 ],
					"presentation" : 1,
					"numoutlets" : 0,
					"id" : "obj-5"
				}

			}
, 			{
				"box" : 				{
					"maxclass" : "newobj",
					"text" : "jcom.pass open",
					"fontname" : "Verdana",
					"numinlets" : 1,
					"fontsize" : 10.0,
					"patching_rect" : [ 180.0, 235.0, 89.0, 19.0 ],
					"numoutlets" : 2,
					"id" : "obj-6",
					"outlettype" : [ "", "" ]
				}

			}
, 			{
				"box" : 				{
					"maxclass" : "newobj",
					"text" : "pcontrol",
					"fontname" : "Verdana",
					"numinlets" : 1,
					"fontsize" : 10.0,
					"patching_rect" : [ 180.0, 260.0, 49.0, 19.0 ],
					"numoutlets" : 1,
					"id" : "obj-7",
					"outlettype" : [ "" ]
				}

			}
, 			{
				"box" : 				{
					"maxclass" : "message",
					"text" : "$2",
					"fontname" : "Verdana",
					"numinlets" : 2,
					"fontsize" : 10.0,
					"patching_rect" : [ 250.0, 285.0, 32.5, 17.0 ],
					"numoutlets" : 1,
					"id" : "obj-8",
					"outlettype" : [ "" ]
				}

			}
, 			{
				"box" : 				{
					"maxclass" : "newobj",
					"text" : "route mute",
					"fontname" : "Verdana",
					"numinlets" : 1,
					"fontsize" : 10.0,
					"patching_rect" : [ 250.0, 260.0, 72.0, 19.0 ],
					"numoutlets" : 2,
					"id" : "obj-9",
					"outlettype" : [ "", "" ]
				}

			}
, 			{
				"box" : 				{
					"maxclass" : "newobj",
					"text" : "mute~",
					"fontname" : "Verdana",
					"numinlets" : 1,
					"fontsize" : 10.0,
					"patching_rect" : [ 250.0, 305.0, 43.0, 19.0 ],
					"numoutlets" : 1,
					"id" : "obj-10",
					"outlettype" : [ "" ]
				}

			}
, 			{
				"box" : 				{
					"maxclass" : "comment",
					"text" : "Voices are only updated when audio is off.",
					"fontname" : "Verdana",
					"presentation_rect" : [ 10.0, 45.0, 238.0, 19.0 ],
					"frgb" : [ 0.658824, 0.658824, 0.658824, 1.0 ],
					"numinlets" : 1,
					"fontsize" : 10.0,
					"patching_rect" : [ 25.0, 45.0, 238.0, 19.0 ],
					"presentation" : 1,
					"numoutlets" : 0,
					"id" : "obj-11"
				}

			}
, 			{
				"box" : 				{
					"maxclass" : "message",
					"text" : "/documentation/generate",
					"fontname" : "Verdana",
					"numinlets" : 2,
					"fontsize" : 10.0,
					"patching_rect" : [ 185.0, 115.0, 137.0, 17.0 ],
					"numoutlets" : 1,
					"id" : "obj-12",
					"outlettype" : [ "" ]
				}

			}
, 			{
				"box" : 				{
					"maxclass" : "outlet",
					"numinlets" : 1,
					"patching_rect" : [ 315.0, 429.0, 27.0, 27.0 ],
					"numoutlets" : 0,
					"id" : "obj-16",
					"comment" : ""
				}

			}
, 			{
				"box" : 				{
					"maxclass" : "inlet",
					"numinlets" : 0,
					"patching_rect" : [ 430.0, 345.0, 27.0, 27.0 ],
					"numoutlets" : 1,
					"id" : "obj-17",
					"outlettype" : [ "" ],
					"comment" : ""
				}

			}
, 			{
				"box" : 				{
					"maxclass" : "newobj",
					"text" : "jcom.message aed @type msg_list @description \"List describing index (counting from 1), azimuth, elevation, distance for one speaker.\"",
					"linecount" : 2,
					"fontname" : "Verdana",
					"numinlets" : 1,
					"fontsize" : 10.0,
					"patching_rect" : [ 590.0, 320.0, 367.0, 31.0 ],
					"numoutlets" : 3,
					"id" : "obj-18",
					"outlettype" : [ "", "", "" ]
				}

			}
, 			{
				"box" : 				{
					"maxclass" : "comment",
					"text" : "Voices",
					"fontname" : "Verdana",
					"presentation_rect" : [ 10.0, 25.0, 41.0, 19.0 ],
					"frgb" : [ 0.658824, 0.658824, 0.658824, 1.0 ],
					"numinlets" : 1,
					"fontsize" : 10.0,
					"patching_rect" : [ 25.0, 25.0, 41.0, 19.0 ],
					"presentation" : 1,
					"numoutlets" : 0,
					"id" : "obj-19"
				}

			}
, 			{
				"box" : 				{
					"maxclass" : "number",
					"varname" : "Voices",
					"fontname" : "Verdana",
					"triangle" : 0,
					"triscale" : 0.9,
					"presentation_rect" : [ 55.0, 25.0, 40.0, 19.0 ],
					"numinlets" : 1,
					"fontsize" : 10.0,
					"patching_rect" : [ 590.0, 235.0, 40.0, 19.0 ],
					"presentation" : 1,
					"numoutlets" : 2,
					"minimum" : 1,
					"id" : "obj-20",
					"outlettype" : [ "int", "bang" ],
					"maximum" : 16
				}

			}
, 			{
				"box" : 				{
					"maxclass" : "newobj",
					"varname" : "voices",
					"text" : "jcom.parameter voices @type msg_int @repetitions/allow 0 @range/bounds 1 16 @range/clipmode both @description \"The number of audio channels that the ambisonic signal is diffused to. Changes only take effect when audio is off.\"",
					"linecount" : 2,
					"fontname" : "Verdana",
					"numinlets" : 1,
					"fontsize" : 10.0,
					"patching_rect" : [ 590.0, 260.0, 609.0, 31.0 ],
					"numoutlets" : 3,
					"id" : "obj-22",
					"outlettype" : [ "", "", "" ]
				}

			}
, 			{
				"box" : 				{
					"maxclass" : "comment",
					"text" : "command input",
					"fontname" : "Verdana",
					"frgb" : [ 0.658824, 0.658824, 0.658824, 1.0 ],
					"numinlets" : 1,
					"fontsize" : 10.0,
					"patching_rect" : [ 60.0, 115.0, 87.0, 19.0 ],
					"numoutlets" : 0,
					"id" : "obj-24"
				}

			}
, 			{
				"box" : 				{
					"maxclass" : "inlet",
					"numinlets" : 0,
					"patching_rect" : [ 30.0, 115.0, 27.0, 27.0 ],
					"numoutlets" : 1,
					"id" : "obj-25",
					"outlettype" : [ "" ],
					"comment" : ""
				}

			}
, 			{
				"box" : 				{
					"maxclass" : "newobj",
					"text" : "jalg.sur.doppler~",
					"fontname" : "Verdana",
					"numinlets" : 2,
					"fontsize" : 10.0,
					"patching_rect" : [ 315.0, 395.0, 134.0, 19.0 ],
					"numoutlets" : 1,
					"id" : "obj-27",
					"outlettype" : [ "" ]
				}

			}
, 			{
				"box" : 				{
					"maxclass" : "comment",
					"text" : "----multicable signal input----",
					"fontname" : "Verdana",
					"frgb" : [ 0.658824, 0.658824, 0.658824, 1.0 ],
					"numinlets" : 1,
					"fontsize" : 10.0,
					"patching_rect" : [ 375.0, 320.0, 158.0, 19.0 ],
					"numoutlets" : 0,
					"id" : "obj-28"
				}

			}
, 			{
				"box" : 				{
					"maxclass" : "outlet",
					"numinlets" : 1,
					"patching_rect" : [ 30.0, 255.0, 27.0, 27.0 ],
					"numoutlets" : 0,
					"id" : "obj-29",
					"comment" : ""
				}

			}
, 			{
				"box" : 				{
					"maxclass" : "comment",
					"text" : "---multicable signal output---",
					"fontname" : "Verdana",
					"frgb" : [ 0.658824, 0.658824, 0.658824, 1.0 ],
					"numinlets" : 1,
					"fontsize" : 10.0,
					"patching_rect" : [ 345.0, 430.0, 156.0, 19.0 ],
					"numoutlets" : 0,
					"id" : "obj-30"
				}

			}
, 			{
				"box" : 				{
					"maxclass" : "newobj",
					"varname" : "jcom.hub",
					"text" : "jcom.hub @description \"Add doppler shift for up to 16 mono signals.\"",
					"fontname" : "Verdana",
					"numinlets" : 1,
					"fontsize" : 10.0,
					"patching_rect" : [ 30.0, 160.0, 458.0, 19.0 ],
					"numoutlets" : 2,
					"id" : "obj-31",
					"outlettype" : [ "", "" ]
				}

			}
, 			{
				"box" : 				{
					"maxclass" : "jcom.ui",
					"text" : "/editing_this_module",
					"prefix" : "audio",
					"presentation_rect" : [ 0.0, 0.0, 300.0, 70.0 ],
					"numinlets" : 1,
					"presentation" : 1,
					"numoutlets" : 1,
					"has_mute" : 1,
					"id" : "obj-32",
					"outlettype" : [ "" ]
				}

			}
 ],
		"lines" : [ 			{
				"patchline" : 				{
					"source" : [ "obj-12", 0 ],
					"destination" : [ "obj-31", 0 ],
					"hidden" : 0,
					"midpoints" : [ 194.5, 152.0, 39.5, 152.0 ]
				}

			}
, 			{
				"patchline" : 				{
					"source" : [ "obj-25", 0 ],
					"destination" : [ "obj-31", 0 ],
					"hidden" : 0,
					"midpoints" : [  ]
				}

			}
, 			{
				"patchline" : 				{
					"source" : [ "obj-31", 0 ],
					"destination" : [ "obj-29", 0 ],
					"hidden" : 0,
					"midpoints" : [  ]
				}

			}
, 			{
				"patchline" : 				{
					"source" : [ "obj-31", 0 ],
					"destination" : [ "obj-3", 1 ],
					"hidden" : 0,
					"midpoints" : [  ]
				}

			}
, 			{
				"patchline" : 				{
					"source" : [ "obj-22", 0 ],
					"destination" : [ "obj-20", 0 ],
					"hidden" : 0,
					"midpoints" : [ 599.5, 310.0, 583.0, 310.0, 583.0, 231.0, 599.5, 231.0 ]
				}

			}
, 			{
				"patchline" : 				{
					"source" : [ "obj-20", 0 ],
					"destination" : [ "obj-22", 0 ],
					"hidden" : 0,
					"midpoints" : [  ]
				}

			}
, 			{
				"patchline" : 				{
					"source" : [ "obj-2", 0 ],
					"destination" : [ "obj-4", 0 ],
					"hidden" : 0,
					"midpoints" : [ 599.5, 216.0, 583.0, 216.0, 583.0, 139.0, 599.5, 139.0 ]
				}

			}
, 			{
				"patchline" : 				{
					"source" : [ "obj-4", 0 ],
					"destination" : [ "obj-2", 0 ],
					"hidden" : 0,
					"midpoints" : [  ]
				}

			}
, 			{
				"patchline" : 				{
					"source" : [ "obj-17", 0 ],
					"destination" : [ "obj-27", 1 ],
					"hidden" : 0,
					"midpoints" : [  ]
				}

			}
, 			{
				"patchline" : 				{
					"source" : [ "obj-27", 0 ],
					"destination" : [ "obj-16", 0 ],
					"hidden" : 0,
					"midpoints" : [  ]
				}

			}
, 			{
				"patchline" : 				{
					"source" : [ "obj-9", 1 ],
					"destination" : [ "obj-27", 0 ],
					"hidden" : 0,
					"midpoints" : [ 312.5, 363.0, 324.5, 363.0 ]
				}

			}
, 			{
				"patchline" : 				{
					"source" : [ "obj-10", 0 ],
					"destination" : [ "obj-27", 0 ],
					"hidden" : 0,
					"midpoints" : [ 259.5, 363.0, 324.5, 363.0 ]
				}

			}
, 			{
				"patchline" : 				{
					"source" : [ "obj-7", 0 ],
					"destination" : [ "obj-27", 0 ],
					"hidden" : 0,
					"midpoints" : [ 189.5, 363.0, 324.5, 363.0 ]
				}

			}
, 			{
				"patchline" : 				{
					"source" : [ "obj-8", 0 ],
					"destination" : [ "obj-10", 0 ],
					"hidden" : 0,
					"midpoints" : [  ]
				}

			}
, 			{
				"patchline" : 				{
					"source" : [ "obj-9", 0 ],
					"destination" : [ "obj-8", 0 ],
					"hidden" : 0,
					"midpoints" : [  ]
				}

			}
, 			{
				"patchline" : 				{
					"source" : [ "obj-6", 1 ],
					"destination" : [ "obj-9", 0 ],
					"hidden" : 0,
					"midpoints" : [  ]
				}

			}
, 			{
				"patchline" : 				{
					"source" : [ "obj-6", 0 ],
					"destination" : [ "obj-7", 0 ],
					"hidden" : 0,
					"midpoints" : [  ]
				}

			}
, 			{
				"patchline" : 				{
					"source" : [ "obj-1", 0 ],
					"destination" : [ "obj-6", 0 ],
					"hidden" : 0,
					"midpoints" : [  ]
				}

			}
, 			{
				"patchline" : 				{
					"source" : [ "obj-1", 0 ],
					"destination" : [ "obj-34", 1 ],
					"hidden" : 0,
					"midpoints" : [  ]
				}

			}
, 			{
				"patchline" : 				{
					"source" : [ "obj-35", 0 ],
					"destination" : [ "obj-34", 0 ],
					"hidden" : 0,
					"midpoints" : [  ]
				}

			}
 ]
	}

}
