{
	"patcher" : 	{
		"fileversion" : 1,
		"rect" : [ 318.0, 67.0, 663.0, 649.0 ],
		"bglocked" : 0,
		"defrect" : [ 318.0, 67.0, 663.0, 649.0 ],
		"openrect" : [ 0.0, 0.0, 0.0, 0.0 ],
		"openinpresentation" : 0,
		"default_fontsize" : 10.0,
		"default_fontface" : 0,
		"default_fontname" : "Verdana",
		"gridonopen" : 0,
		"gridsize" : [ 5.0, 5.0 ],
		"gridsnaponopen" : 0,
		"toolbarvisible" : 1,
		"boxanimatetime" : 200,
		"imprint" : 0,
		"boxes" : [ 			{
				"box" : 				{
					"maxclass" : "message",
					"text" : "jcom.parameter.array",
					"numoutlets" : 1,
					"outlettype" : [ "" ],
					"fontsize" : 10.0,
					"patching_rect" : [ 445.0, 605.0, 119.0, 17.0 ],
					"id" : "obj-46",
					"numinlets" : 2,
					"fontname" : "Verdana"
				}

			}
, 			{
				"box" : 				{
					"maxclass" : "newobj",
					"text" : "prepend help",
					"numoutlets" : 1,
					"hidden" : 1,
					"outlettype" : [ "" ],
					"fontsize" : 10.0,
					"patching_rect" : [ 505.0, 550.0, 76.0, 19.0 ],
					"id" : "obj-47",
					"numinlets" : 1,
					"fontname" : "Verdana"
				}

			}
, 			{
				"box" : 				{
					"maxclass" : "newobj",
					"text" : "pcontrol",
					"numoutlets" : 1,
					"hidden" : 1,
					"outlettype" : [ "" ],
					"fontsize" : 10.0,
					"patching_rect" : [ 505.0, 575.0, 51.0, 19.0 ],
					"id" : "obj-48",
					"numinlets" : 1,
					"fontname" : "Verdana"
				}

			}
, 			{
				"box" : 				{
					"maxclass" : "comment",
					"text" : "See also",
					"numoutlets" : 0,
					"frgb" : [ 0.0, 0.0, 0.0, 1.0 ],
					"fontsize" : 10.0,
					"patching_rect" : [ 440.0, 585.0, 52.0, 19.0 ],
					"id" : "obj-72",
					"numinlets" : 1,
					"fontname" : "Verdana"
				}

			}
, 			{
				"box" : 				{
					"maxclass" : "message",
					"text" : "/object.2 0.031",
					"numoutlets" : 1,
					"outlettype" : [ "" ],
					"fontsize" : 10.0,
					"patching_rect" : [ 40.0, 535.0, 140.0, 17.0 ],
					"id" : "obj-9",
					"numinlets" : 2,
					"fontname" : "Verdana"
				}

			}
, 			{
				"box" : 				{
					"maxclass" : "flonum",
					"numoutlets" : 2,
					"outlettype" : [ "float", "bang" ],
					"fontsize" : 10.0,
					"patching_rect" : [ 190.0, 415.0, 50.0, 19.0 ],
					"id" : "obj-35",
					"numinlets" : 1,
					"fontname" : "Verdana"
				}

			}
, 			{
				"box" : 				{
					"maxclass" : "comment",
					"text" : "attributes:",
					"numoutlets" : 0,
					"frgb" : [ 0.0, 0.0, 0.0, 1.0 ],
					"fontsize" : 10.0,
					"patching_rect" : [ 45.0, 335.0, 64.0, 19.0 ],
					"id" : "obj-30",
					"numinlets" : 1,
					"fontname" : "Verdana"
				}

			}
, 			{
				"box" : 				{
					"maxclass" : "comment",
					"text" : "Attribute(s) to be set for each instance.",
					"numoutlets" : 0,
					"frgb" : [ 0.0, 0.0, 0.0, 1.0 ],
					"fontsize" : 10.0,
					"patching_rect" : [ 105.0, 335.0, 287.0, 19.0 ],
					"id" : "obj-31",
					"numinlets" : 1,
					"fontname" : "Verdana"
				}

			}
, 			{
				"box" : 				{
					"maxclass" : "comment",
					"text" : "symbol:",
					"numoutlets" : 0,
					"frgb" : [ 0.0, 0.0, 0.0, 1.0 ],
					"fontsize" : 10.0,
					"patching_rect" : [ 45.0, 320.0, 51.0, 19.0 ],
					"id" : "obj-28",
					"numinlets" : 1,
					"fontname" : "Verdana"
				}

			}
, 			{
				"box" : 				{
					"maxclass" : "comment",
					"text" : "Optional additional OSC branch(es) to be appended after the instance number",
					"numoutlets" : 0,
					"frgb" : [ 0.0, 0.0, 0.0, 1.0 ],
					"fontsize" : 10.0,
					"patching_rect" : [ 105.0, 320.0, 405.0, 19.0 ],
					"id" : "obj-29",
					"numinlets" : 1,
					"fontname" : "Verdana"
				}

			}
, 			{
				"box" : 				{
					"maxclass" : "comment",
					"text" : "symbol:",
					"numoutlets" : 0,
					"frgb" : [ 0.0, 0.0, 0.0, 1.0 ],
					"fontsize" : 10.0,
					"patching_rect" : [ 45.0, 305.0, 51.0, 19.0 ],
					"id" : "obj-26",
					"numinlets" : 1,
					"fontname" : "Verdana"
				}

			}
, 			{
				"box" : 				{
					"maxclass" : "comment",
					"text" : "OSC name prepending the instancenumber",
					"numoutlets" : 0,
					"frgb" : [ 0.0, 0.0, 0.0, 1.0 ],
					"fontsize" : 10.0,
					"patching_rect" : [ 105.0, 305.0, 228.0, 19.0 ],
					"id" : "obj-27",
					"numinlets" : 1,
					"fontname" : "Verdana"
				}

			}
, 			{
				"box" : 				{
					"maxclass" : "comment",
					"text" : "int:",
					"numoutlets" : 0,
					"frgb" : [ 0.0, 0.0, 0.0, 1.0 ],
					"fontsize" : 10.0,
					"patching_rect" : [ 45.0, 290.0, 28.0, 19.0 ],
					"id" : "obj-25",
					"numinlets" : 1,
					"fontname" : "Verdana"
				}

			}
, 			{
				"box" : 				{
					"maxclass" : "comment",
					"text" : "The number of instances to create",
					"numoutlets" : 0,
					"frgb" : [ 0.0, 0.0, 0.0, 1.0 ],
					"fontsize" : 10.0,
					"patching_rect" : [ 105.0, 290.0, 209.0, 19.0 ],
					"id" : "obj-24",
					"numinlets" : 1,
					"fontname" : "Verdana"
				}

			}
, 			{
				"box" : 				{
					"maxclass" : "comment",
					"text" : "Arguments:",
					"numoutlets" : 0,
					"frgb" : [ 0.0, 0.0, 0.0, 1.0 ],
					"fontsize" : 10.0,
					"patching_rect" : [ 40.0, 270.0, 150.0, 19.0 ],
					"id" : "obj-23",
					"numinlets" : 1,
					"fontname" : "Verdana"
				}

			}
, 			{
				"box" : 				{
					"maxclass" : "comment",
					"text" : "- an array of six messages named /objetc.N",
					"numoutlets" : 0,
					"frgb" : [ 0.0, 0.0, 0.0, 1.0 ],
					"fontsize" : 10.0,
					"patching_rect" : [ 40.0, 175.0, 345.0, 19.0 ],
					"id" : "obj-13",
					"numinlets" : 1,
					"fontname" : "Verdana"
				}

			}
, 			{
				"box" : 				{
					"maxclass" : "comment",
					"text" : "- an array of four messages named /source.N/position",
					"numoutlets" : 0,
					"frgb" : [ 0.0, 0.0, 0.0, 1.0 ],
					"fontsize" : 10.0,
					"patching_rect" : [ 40.0, 160.0, 345.0, 19.0 ],
					"id" : "obj-12",
					"numinlets" : 1,
					"fontname" : "Verdana"
				}

			}
, 			{
				"box" : 				{
					"maxclass" : "comment",
					"text" : "This comonent is a utility for creating an array of message instances in one go. Currently the number of instances can not be changed on the fly.",
					"linecount" : 2,
					"numoutlets" : 0,
					"frgb" : [ 0.0, 0.0, 0.0, 1.0 ],
					"fontsize" : 10.0,
					"patching_rect" : [ 40.0, 90.0, 464.0, 31.0 ],
					"id" : "obj-10",
					"numinlets" : 1,
					"fontname" : "Verdana"
				}

			}
, 			{
				"box" : 				{
					"maxclass" : "comment",
					"text" : "The help patch mimicks a module containing ",
					"numoutlets" : 0,
					"frgb" : [ 0.0, 0.0, 0.0, 1.0 ],
					"fontsize" : 10.0,
					"patching_rect" : [ 40.0, 145.0, 345.0, 19.0 ],
					"id" : "obj-21",
					"numinlets" : 1,
					"fontname" : "Verdana"
				}

			}
, 			{
				"box" : 				{
					"maxclass" : "message",
					"text" : "/object.2 $1",
					"numoutlets" : 1,
					"outlettype" : [ "" ],
					"fontsize" : 10.0,
					"patching_rect" : [ 190.0, 445.0, 72.0, 17.0 ],
					"id" : "obj-7",
					"numinlets" : 2,
					"fontname" : "Verdana"
				}

			}
, 			{
				"box" : 				{
					"maxclass" : "number",
					"numoutlets" : 2,
					"outlettype" : [ "int", "bang" ],
					"fontsize" : 10.0,
					"patching_rect" : [ 40.0, 415.0, 50.0, 19.0 ],
					"id" : "obj-8",
					"numinlets" : 1,
					"fontname" : "Verdana"
				}

			}
, 			{
				"box" : 				{
					"maxclass" : "message",
					"text" : "/source.4/position $1",
					"numoutlets" : 1,
					"outlettype" : [ "" ],
					"fontsize" : 10.0,
					"patching_rect" : [ 40.0, 445.0, 118.0, 17.0 ],
					"id" : "obj-6",
					"numinlets" : 2,
					"fontname" : "Verdana"
				}

			}
, 			{
				"box" : 				{
					"maxclass" : "newobj",
					"text" : "jcom.hub",
					"numoutlets" : 2,
					"outlettype" : [ "", "" ],
					"fontsize" : 10.0,
					"patching_rect" : [ 40.0, 505.0, 57.0, 19.0 ],
					"id" : "obj-3",
					"numinlets" : 1,
					"fontname" : "Verdana"
				}

			}
, 			{
				"box" : 				{
					"maxclass" : "comment",
					"text" : "jcom.message.array",
					"numoutlets" : 0,
					"frgb" : [ 0.0, 0.0, 0.0, 1.0 ],
					"fontsize" : 18.0,
					"patching_rect" : [ 20.0, 15.0, 206.0, 28.0 ],
					"id" : "obj-68",
					"numinlets" : 1,
					"fontname" : "Verdana"
				}

			}
, 			{
				"box" : 				{
					"maxclass" : "comment",
					"text" : "define an array of message instances",
					"numoutlets" : 0,
					"frgb" : [ 0.0, 0.0, 0.0, 1.0 ],
					"fontsize" : 10.0,
					"patching_rect" : [ 20.0, 45.0, 253.0, 19.0 ],
					"id" : "obj-69",
					"numinlets" : 1,
					"fontname" : "Verdana"
				}

			}
, 			{
				"box" : 				{
					"maxclass" : "panel",
					"numoutlets" : 0,
					"patching_rect" : [ 10.0, 10.0, 295.0, 60.0 ],
					"id" : "obj-70",
					"rounded" : 15,
					"numinlets" : 1
				}

			}
, 			{
				"box" : 				{
					"maxclass" : "jcom.ui",
					"text" : "/editing_this_module",
					"numoutlets" : 1,
					"outlettype" : [ "" ],
					"patching_rect" : [ 40.0, 565.0, 300.0, 70.0 ],
					"id" : "obj-4",
					"numinlets" : 1
				}

			}
, 			{
				"box" : 				{
					"maxclass" : "newobj",
					"text" : "jcom.message.array 4 source position @type msg_int @description Hello",
					"numoutlets" : 0,
					"fontsize" : 10.0,
					"patching_rect" : [ 40.0, 205.0, 378.0, 19.0 ],
					"id" : "obj-2",
					"numinlets" : 0,
					"fontname" : "Verdana"
				}

			}
, 			{
				"box" : 				{
					"maxclass" : "newobj",
					"text" : "jcom.message.array 6 object @type msg_float @description Hello",
					"numoutlets" : 0,
					"fontsize" : 10.0,
					"patching_rect" : [ 40.0, 235.0, 343.0, 19.0 ],
					"id" : "obj-1",
					"numinlets" : 0,
					"fontname" : "Verdana"
				}

			}
 ],
		"lines" : [ 			{
				"patchline" : 				{
					"source" : [ "obj-47", 0 ],
					"destination" : [ "obj-48", 0 ],
					"hidden" : 1,
					"midpoints" : [  ]
				}

			}
, 			{
				"patchline" : 				{
					"source" : [ "obj-46", 0 ],
					"destination" : [ "obj-47", 0 ],
					"hidden" : 1,
					"midpoints" : [  ]
				}

			}
, 			{
				"patchline" : 				{
					"source" : [ "obj-3", 0 ],
					"destination" : [ "obj-9", 1 ],
					"hidden" : 0,
					"midpoints" : [ 49.5, 530.0, 170.5, 530.0 ]
				}

			}
, 			{
				"patchline" : 				{
					"source" : [ "obj-8", 0 ],
					"destination" : [ "obj-6", 0 ],
					"hidden" : 0,
					"midpoints" : [  ]
				}

			}
, 			{
				"patchline" : 				{
					"source" : [ "obj-6", 0 ],
					"destination" : [ "obj-3", 0 ],
					"hidden" : 0,
					"midpoints" : [  ]
				}

			}
, 			{
				"patchline" : 				{
					"source" : [ "obj-7", 0 ],
					"destination" : [ "obj-3", 0 ],
					"hidden" : 0,
					"midpoints" : [ 199.5, 493.0, 49.5, 493.0 ]
				}

			}
, 			{
				"patchline" : 				{
					"source" : [ "obj-35", 0 ],
					"destination" : [ "obj-7", 0 ],
					"hidden" : 0,
					"midpoints" : [  ]
				}

			}
 ]
	}

}
