max v2;#N vpatcher 309 68 694 558;#P origin -32 -85;#P window setfont "Sans Serif" 9.;#N vpatcher 50 119 342 436;#P window setfont "Sans Serif" 9.;#P message 188 214 50 196617 set lineto;#P message 126 214 58 196617 set moveto;#P newex 124 108 29 196617 t i b;#P newex 126 135 27 196617 int;#P newex 50 245 79 196617 prepend moveto;#P newex 50 152 47 196617 pack 0 0;#P newex 50 76 166 196617 unpack 0 0 0 0 0 0 0 0;#P newex 50 50 110 196617 route mouse mouseidle;#P newex 126 156 40 196617 sel 0 1;#P inlet 50 30 15 0;#P outlet 50 267 15 0;#P connect 1 0 3 0;#P fasten 3 1 4 0 105 71 55 71;#P connect 3 0 4 0;#P connect 4 0 5 0;#P connect 5 0 6 0;#P fasten 9 0 6 0 131 238 55 238;#P fasten 10 0 6 0 193 238 55 238;#P connect 6 0 0 0;#P connect 4 1 5 1;#P connect 4 2 8 0;#P connect 8 1 7 0;#P connect 7 0 2 0;#P connect 2 0 9 0;#P connect 8 0 7 1;#P fasten 2 1 10 0 146 193 193 193;#P pop;#P newobj 80 99 73 196617 p mouse-stuff;#P newex 80 138 27 196617 t b l;#P bpatcher 23 21 255 60 0 0 jmod.input%.mxt 0;#P objectname /input%;#P newex 25 97 27 196617 t b l;#P message 155 122 32 196617 reset;#P number 240 99 35 9 1 0 1 3 0 0 0 221 221 221 222 222 222 0 0 0;#P message 240 122 71 196617 pensize \$1 \$1;#P message 191 122 45 196617 color \$1;#P number 191 99 35 9 0 255 3 3 0 0 0 221 221 221 222 222 222 0 0 0;#P message 121 122 31 196617 clear;#P newex 25 165 144 196617 jit.lcd 4 char 320 240;#B color 5;#P user jit.pwindow 24 188 322 242 0 1 0 0 1 0;#P user jit.fpsgui 25 438 60 196617 0;#P fasten 10 1 9 0 273 87 30 87;#P fasten 9 1 2 0 47 141 30 141;#P connect 9 0 2 0;#P fasten 11 0 2 0 85 159 30 159;#P fasten 11 1 2 0 102 159 30 159;#P hidden fasten 6 0 2 0 245 156 30 156;#P hidden fasten 8 0 2 0 160 156 30 156;#P hidden fasten 5 0 2 0 196 156 30 156;#P connect 2 0 1 0;#P connect 1 0 0 0;#P fasten 1 1 12 0 340 436 353 436 353 94 85 94;#P connect 12 0 11 0;#P connect 3 0 11 0;#P connect 4 0 5 0;#P connect 7 0 6 0;#P pop;