{
	"patcher" : 	{
		"fileversion" : 1,
		"rect" : [ 291.0, 152.0, 985.0, 581.0 ],
		"bglocked" : 0,
		"defrect" : [ 291.0, 152.0, 985.0, 581.0 ],
		"openrect" : [ 0.0, 0.0, 0.0, 0.0 ],
		"openinpresentation" : 1,
		"default_fontsize" : 10.970939,
		"default_fontface" : 0,
		"default_fontname" : "Verdana",
		"gridonopen" : 0,
		"gridsize" : [ 5.0, 5.0 ],
		"gridsnaponopen" : 0,
		"toolbarvisible" : 1,
		"boxanimatetime" : 200,
		"imprint" : 0,
		"metadata" : [  ],
		"boxes" : [ 			{
				"box" : 				{
					"maxclass" : "newobj",
					"text" : "jcom.meter_receive 2",
					"fontname" : "Verdana",
					"numinlets" : 0,
					"fontsize" : 10.970939,
					"patching_rect" : [ 540.0, 246.0, 152.0, 20.0 ],
					"numoutlets" : 1,
					"id" : "obj-51",
					"outlettype" : [ "" ]
				}

			}
, 			{
				"box" : 				{
					"maxclass" : "newobj",
					"text" : "jcom.meter_receive 1",
					"fontname" : "Verdana",
					"numinlets" : 0,
					"fontsize" : 10.970939,
					"patching_rect" : [ 540.0, 214.0, 152.0, 20.0 ],
					"numoutlets" : 1,
					"id" : "obj-3",
					"outlettype" : [ "" ]
				}

			}
, 			{
				"box" : 				{
					"maxclass" : "jcom.meter~",
					"presentation_rect" : [ 152.0, 10.0, 80.0, 4.0 ],
					"numinlets" : 1,
					"patching_rect" : [ 445.0, 276.0, 80.0, 4.0 ],
					"presentation" : 1,
					"numoutlets" : 0,
					"id" : "obj-50"
				}

			}
, 			{
				"box" : 				{
					"maxclass" : "jcom.meter~",
					"presentation_rect" : [ 152.0, 5.0, 80.0, 4.0 ],
					"numinlets" : 1,
					"patching_rect" : [ 445.0, 244.0, 80.0, 4.0 ],
					"presentation" : 1,
					"numoutlets" : 0,
					"id" : "obj-49"
				}

			}
, 			{
				"box" : 				{
					"maxclass" : "comment",
					"text" : "Phase offset (0-1)",
					"fontname" : "Verdana",
					"presentation_rect" : [ 6.0, 51.0, 100.0, 19.0 ],
					"frgb" : [ 0.584314, 0.584314, 0.584314, 1.0 ],
					"numinlets" : 1,
					"fontsize" : 10.0,
					"patching_rect" : [ 6.0, 46.0, 100.0, 19.0 ],
					"presentation" : 1,
					"numoutlets" : 0,
					"id" : "obj-1",
					"textcolor" : [ 0.584314, 0.584314, 0.584314, 1.0 ]
				}

			}
, 			{
				"box" : 				{
					"maxclass" : "newobj",
					"varname" : "tremolo/phase_offset",
					"text" : "jcom.parameter tremolo/phase_offset @type msg_float @range/bounds 0. 1. @range/clipmode none @ramp/drive scheduler @description \"LFO phase offset between left and right channels (0-1).\"",
					"linecount" : 3,
					"fontname" : "Verdana",
					"numinlets" : 1,
					"fontsize" : 9.873845,
					"patching_rect" : [ 467.0, 140.0, 362.0, 42.0 ],
					"numoutlets" : 3,
					"id" : "obj-2",
					"outlettype" : [ "", "", "" ]
				}

			}
, 			{
				"box" : 				{
					"maxclass" : "flonum",
					"varname" : "PhaseOffset",
					"fontname" : "Verdana",
					"triangle" : 0,
					"triscale" : 0.9,
					"presentation_rect" : [ 118.0, 51.0, 40.0, 19.0 ],
					"numinlets" : 1,
					"fontsize" : 10.0,
					"patching_rect" : [ 467.0, 117.0, 40.0, 19.0 ],
					"presentation" : 1,
					"numoutlets" : 2,
					"id" : "obj-4",
					"outlettype" : [ "float", "bang" ]
				}

			}
, 			{
				"box" : 				{
					"maxclass" : "flonum",
					"varname" : "Depth",
					"fontname" : "Verdana",
					"triangle" : 0,
					"triscale" : 0.9,
					"presentation_rect" : [ 118.0, 35.0, 40.0, 19.0 ],
					"numinlets" : 1,
					"fontsize" : 10.0,
					"patching_rect" : [ 638.0, 45.0, 40.0, 19.0 ],
					"presentation" : 1,
					"numoutlets" : 2,
					"minimum" : 0.0,
					"id" : "obj-5",
					"outlettype" : [ "float", "bang" ],
					"maximum" : 100.0
				}

			}
, 			{
				"box" : 				{
					"maxclass" : "newobj",
					"varname" : "jcom.class.lfo_parameters",
					"text" : "jcom.class.lfo_parameters tremolo",
					"fontname" : "Verdana",
					"numinlets" : 2,
					"fontsize" : 9.873845,
					"patching_rect" : [ 467.0, 71.0, 190.0, 18.0 ],
					"numoutlets" : 2,
					"id" : "obj-6",
					"outlettype" : [ "", "" ]
				}

			}
, 			{
				"box" : 				{
					"maxclass" : "newobj",
					"text" : "pcontrol",
					"fontname" : "Verdana",
					"numinlets" : 1,
					"fontsize" : 9.873845,
					"patching_rect" : [ 381.0, 370.0, 49.0, 18.0 ],
					"numoutlets" : 1,
					"id" : "obj-7",
					"outlettype" : [ "" ]
				}

			}
, 			{
				"box" : 				{
					"maxclass" : "newobj",
					"text" : "jcom.algorithm_control~.maxpat",
					"fontname" : "Verdana",
					"numinlets" : 1,
					"fontsize" : 9.873845,
					"patching_rect" : [ 248.0, 346.0, 173.0, 18.0 ],
					"numoutlets" : 2,
					"id" : "obj-8",
					"outlettype" : [ "", "" ]
				}

			}
, 			{
				"box" : 				{
					"maxclass" : "message",
					"text" : "/preset/store 1 default, /preset/write",
					"fontname" : "Verdana",
					"bgcolor" : [ 0.8, 0.54902, 0.54902, 1.0 ],
					"numinlets" : 2,
					"fontsize" : 9.873845,
					"patching_rect" : [ 110.0, 141.0, 193.0, 16.0 ],
					"numoutlets" : 1,
					"id" : "obj-9",
					"outlettype" : [ "" ]
				}

			}
, 			{
				"box" : 				{
					"maxclass" : "newobj",
					"text" : "jcom.out~ 2",
					"fontname" : "Verdana",
					"numinlets" : 2,
					"fontsize" : 9.873845,
					"patching_rect" : [ 138.0, 442.0, 70.0, 18.0 ],
					"numoutlets" : 3,
					"id" : "obj-10",
					"outlettype" : [ "signal", "signal", "" ]
				}

			}
, 			{
				"box" : 				{
					"maxclass" : "newobj",
					"text" : "jcom.in~ 2",
					"fontname" : "Verdana",
					"numinlets" : 2,
					"fontsize" : 9.873845,
					"patching_rect" : [ 138.0, 323.0, 177.0, 18.0 ],
					"numoutlets" : 4,
					"id" : "obj-11",
					"outlettype" : [ "signal", "signal", "", "" ]
				}

			}
, 			{
				"box" : 				{
					"maxclass" : "message",
					"text" : "/documentation/generate",
					"fontname" : "Verdana",
					"bgcolor" : [ 0.8, 0.54902, 0.54902, 1.0 ],
					"numinlets" : 2,
					"fontsize" : 9.873845,
					"patching_rect" : [ 118.0, 163.0, 135.0, 16.0 ],
					"numoutlets" : 1,
					"id" : "obj-12",
					"outlettype" : [ "" ]
				}

			}
, 			{
				"box" : 				{
					"maxclass" : "newobj",
					"varname" : "jcom.hub",
					"text" : "jcom.hub @module_type audio @description \"Apply tremolo to incoming signal.\"",
					"linecount" : 2,
					"fontname" : "Verdana",
					"numinlets" : 1,
					"fontsize" : 9.873845,
					"patching_rect" : [ 20.0, 197.0, 287.0, 30.0 ],
					"numoutlets" : 2,
					"id" : "obj-16",
					"outlettype" : [ "", "" ]
				}

			}
, 			{
				"box" : 				{
					"maxclass" : "comment",
					"text" : "command input",
					"fontname" : "Verdana",
					"frgb" : [ 0.658824, 0.658824, 0.658824, 1.0 ],
					"numinlets" : 1,
					"fontsize" : 10.0,
					"patching_rect" : [ 34.0, 164.0, 87.0, 19.0 ],
					"numoutlets" : 0,
					"id" : "obj-17"
				}

			}
, 			{
				"box" : 				{
					"maxclass" : "inlet",
					"numinlets" : 0,
					"patching_rect" : [ 20.0, 164.0, 13.0, 13.0 ],
					"numoutlets" : 1,
					"id" : "obj-18",
					"outlettype" : [ "" ],
					"comment" : ""
				}

			}
, 			{
				"box" : 				{
					"maxclass" : "message",
					"text" : "/init",
					"fontname" : "Verdana",
					"numinlets" : 2,
					"fontsize" : 9.873845,
					"patching_rect" : [ 249.0, 163.0, 31.0, 16.0 ],
					"numoutlets" : 1,
					"id" : "obj-19",
					"outlettype" : [ "" ]
				}

			}
, 			{
				"box" : 				{
					"maxclass" : "inlet",
					"numinlets" : 0,
					"patching_rect" : [ 138.0, 294.0, 13.0, 13.0 ],
					"numoutlets" : 1,
					"id" : "obj-20",
					"outlettype" : [ "" ],
					"comment" : ""
				}

			}
, 			{
				"box" : 				{
					"maxclass" : "outlet",
					"numinlets" : 1,
					"patching_rect" : [ 138.0, 471.0, 13.0, 13.0 ],
					"numoutlets" : 0,
					"id" : "obj-21",
					"comment" : ""
				}

			}
, 			{
				"box" : 				{
					"maxclass" : "flonum",
					"varname" : "Frequency",
					"fontname" : "Verdana",
					"triangle" : 0,
					"triscale" : 0.9,
					"presentation_rect" : [ 118.0, 18.0, 40.0, 19.0 ],
					"numinlets" : 1,
					"fontsize" : 10.0,
					"patching_rect" : [ 467.0, 46.0, 40.0, 19.0 ],
					"presentation" : 1,
					"numoutlets" : 2,
					"minimum" : 0.0,
					"id" : "obj-22",
					"outlettype" : [ "float", "bang" ]
				}

			}
, 			{
				"box" : 				{
					"maxclass" : "inlet",
					"numinlets" : 0,
					"patching_rect" : [ 305.0, 296.0, 13.0, 13.0 ],
					"numoutlets" : 1,
					"id" : "obj-23",
					"outlettype" : [ "" ],
					"comment" : ""
				}

			}
, 			{
				"box" : 				{
					"maxclass" : "comment",
					"text" : "LFO Depth (%)",
					"fontname" : "Verdana",
					"presentation_rect" : [ 6.0, 35.0, 85.0, 19.0 ],
					"frgb" : [ 0.584314, 0.584314, 0.584314, 1.0 ],
					"numinlets" : 1,
					"fontsize" : 10.0,
					"patching_rect" : [ 6.0, 33.0, 85.0, 19.0 ],
					"presentation" : 1,
					"numoutlets" : 0,
					"id" : "obj-24",
					"textcolor" : [ 0.584314, 0.584314, 0.584314, 1.0 ]
				}

			}
, 			{
				"box" : 				{
					"maxclass" : "comment",
					"text" : "LFO Frequency (Hz)",
					"fontname" : "Verdana",
					"presentation_rect" : [ 5.0, 20.0, 109.0, 19.0 ],
					"frgb" : [ 0.584314, 0.584314, 0.584314, 1.0 ],
					"numinlets" : 1,
					"fontsize" : 10.0,
					"patching_rect" : [ 5.0, 20.0, 109.0, 19.0 ],
					"presentation" : 1,
					"numoutlets" : 0,
					"id" : "obj-25",
					"textcolor" : [ 0.584314, 0.584314, 0.584314, 1.0 ]
				}

			}
, 			{
				"box" : 				{
					"maxclass" : "newobj",
					"text" : "jalg.tremolo~",
					"fontname" : "Verdana",
					"numinlets" : 3,
					"fontsize" : 9.873845,
					"patching_rect" : [ 83.0, 409.0, 120.0, 18.0 ],
					"numoutlets" : 3,
					"id" : "obj-26",
					"outlettype" : [ "", "signal", "signal" ]
				}

			}
, 			{
				"box" : 				{
					"maxclass" : "comment",
					"text" : "----signal inputs----",
					"fontname" : "Verdana",
					"frgb" : [ 0.658824, 0.658824, 0.658824, 1.0 ],
					"numinlets" : 1,
					"fontsize" : 10.0,
					"patching_rect" : [ 174.0, 295.0, 108.0, 19.0 ],
					"numoutlets" : 0,
					"id" : "obj-27"
				}

			}
, 			{
				"box" : 				{
					"maxclass" : "outlet",
					"numinlets" : 1,
					"patching_rect" : [ 20.0, 240.0, 13.0, 13.0 ],
					"numoutlets" : 0,
					"id" : "obj-28",
					"comment" : ""
				}

			}
, 			{
				"box" : 				{
					"maxclass" : "outlet",
					"numinlets" : 1,
					"patching_rect" : [ 166.0, 471.0, 13.0, 13.0 ],
					"numoutlets" : 0,
					"id" : "obj-29",
					"comment" : ""
				}

			}
, 			{
				"box" : 				{
					"maxclass" : "comment",
					"text" : "---signal outputs---",
					"fontname" : "Verdana",
					"frgb" : [ 0.658824, 0.658824, 0.658824, 1.0 ],
					"numinlets" : 1,
					"fontsize" : 10.0,
					"patching_rect" : [ 111.0, 489.0, 107.0, 19.0 ],
					"numoutlets" : 0,
					"id" : "obj-30"
				}

			}
, 			{
				"box" : 				{
					"maxclass" : "jcom.ui",
					"text" : "/editing_this_module",
					"has_bypass" : 1,
					"prefix" : "audio",
					"presentation_rect" : [ 0.0, 0.0, 300.0, 70.0 ],
					"has_gain" : 1,
					"numinlets" : 1,
					"has_mix" : 1,
					"presentation" : 1,
					"numoutlets" : 1,
					"has_mute" : 1,
					"id" : "obj-31",
					"outlettype" : [ "" ]
				}

			}
 ],
		"lines" : [ 			{
				"patchline" : 				{
					"source" : [ "obj-22", 0 ],
					"destination" : [ "obj-6", 0 ],
					"hidden" : 0,
					"midpoints" : [  ]
				}

			}
, 			{
				"patchline" : 				{
					"source" : [ "obj-6", 0 ],
					"destination" : [ "obj-22", 0 ],
					"hidden" : 0,
					"midpoints" : [ 476.5, 95.0, 453.0, 95.0, 453.0, 39.0, 476.5, 39.0 ]
				}

			}
, 			{
				"patchline" : 				{
					"source" : [ "obj-5", 0 ],
					"destination" : [ "obj-6", 1 ],
					"hidden" : 0,
					"midpoints" : [  ]
				}

			}
, 			{
				"patchline" : 				{
					"source" : [ "obj-6", 1 ],
					"destination" : [ "obj-5", 0 ],
					"hidden" : 0,
					"midpoints" : [ 647.5, 96.0, 690.0, 96.0, 690.0, 30.0, 647.5, 30.0 ]
				}

			}
, 			{
				"patchline" : 				{
					"source" : [ "obj-51", 0 ],
					"destination" : [ "obj-50", 0 ],
					"hidden" : 0,
					"midpoints" : [  ]
				}

			}
, 			{
				"patchline" : 				{
					"source" : [ "obj-3", 0 ],
					"destination" : [ "obj-49", 0 ],
					"hidden" : 0,
					"midpoints" : [  ]
				}

			}
, 			{
				"patchline" : 				{
					"source" : [ "obj-2", 0 ],
					"destination" : [ "obj-4", 0 ],
					"hidden" : 0,
					"midpoints" : [ 476.5, 190.0, 453.0, 190.0, 453.0, 111.0, 476.5, 111.0 ]
				}

			}
, 			{
				"patchline" : 				{
					"source" : [ "obj-4", 0 ],
					"destination" : [ "obj-2", 0 ],
					"hidden" : 0,
					"midpoints" : [ 476.5, 132.0, 476.5, 132.0 ]
				}

			}
, 			{
				"patchline" : 				{
					"source" : [ "obj-8", 1 ],
					"destination" : [ "obj-7", 0 ],
					"hidden" : 0,
					"midpoints" : [  ]
				}

			}
, 			{
				"patchline" : 				{
					"source" : [ "obj-23", 0 ],
					"destination" : [ "obj-11", 1 ],
					"hidden" : 0,
					"midpoints" : [  ]
				}

			}
, 			{
				"patchline" : 				{
					"source" : [ "obj-11", 2 ],
					"destination" : [ "obj-8", 0 ],
					"hidden" : 0,
					"midpoints" : [  ]
				}

			}
, 			{
				"patchline" : 				{
					"source" : [ "obj-26", 2 ],
					"destination" : [ "obj-10", 1 ],
					"hidden" : 0,
					"midpoints" : [  ]
				}

			}
, 			{
				"patchline" : 				{
					"source" : [ "obj-11", 1 ],
					"destination" : [ "obj-26", 2 ],
					"hidden" : 0,
					"midpoints" : [  ]
				}

			}
, 			{
				"patchline" : 				{
					"source" : [ "obj-10", 1 ],
					"destination" : [ "obj-29", 0 ],
					"hidden" : 0,
					"midpoints" : [  ]
				}

			}
, 			{
				"patchline" : 				{
					"source" : [ "obj-10", 0 ],
					"destination" : [ "obj-21", 0 ],
					"hidden" : 0,
					"midpoints" : [  ]
				}

			}
, 			{
				"patchline" : 				{
					"source" : [ "obj-26", 1 ],
					"destination" : [ "obj-10", 0 ],
					"hidden" : 0,
					"midpoints" : [  ]
				}

			}
, 			{
				"patchline" : 				{
					"source" : [ "obj-11", 0 ],
					"destination" : [ "obj-26", 1 ],
					"hidden" : 0,
					"midpoints" : [  ]
				}

			}
, 			{
				"patchline" : 				{
					"source" : [ "obj-20", 0 ],
					"destination" : [ "obj-11", 0 ],
					"hidden" : 0,
					"midpoints" : [  ]
				}

			}
, 			{
				"patchline" : 				{
					"source" : [ "obj-7", 0 ],
					"destination" : [ "obj-26", 0 ],
					"hidden" : 0,
					"midpoints" : [ 390.5, 398.0, 92.5, 398.0 ]
				}

			}
, 			{
				"patchline" : 				{
					"source" : [ "obj-8", 0 ],
					"destination" : [ "obj-26", 0 ],
					"hidden" : 0,
					"midpoints" : [ 257.5, 398.0, 92.5, 398.0 ]
				}

			}
, 			{
				"patchline" : 				{
					"source" : [ "obj-9", 0 ],
					"destination" : [ "obj-16", 0 ],
					"hidden" : 0,
					"midpoints" : [ 119.5, 184.0, 29.5, 184.0 ]
				}

			}
, 			{
				"patchline" : 				{
					"source" : [ "obj-18", 0 ],
					"destination" : [ "obj-16", 0 ],
					"hidden" : 0,
					"midpoints" : [  ]
				}

			}
, 			{
				"patchline" : 				{
					"source" : [ "obj-12", 0 ],
					"destination" : [ "obj-16", 0 ],
					"hidden" : 0,
					"midpoints" : [ 127.5, 184.0, 29.5, 184.0 ]
				}

			}
, 			{
				"patchline" : 				{
					"source" : [ "obj-19", 0 ],
					"destination" : [ "obj-16", 0 ],
					"hidden" : 0,
					"midpoints" : [ 258.5, 185.0, 29.5, 185.0 ]
				}

			}
, 			{
				"patchline" : 				{
					"source" : [ "obj-16", 0 ],
					"destination" : [ "obj-28", 0 ],
					"hidden" : 0,
					"midpoints" : [  ]
				}

			}
 ]
	}

}
