#N canvas 448 282 655 400 10;
#X obj 121 145 ttlimiter~;
#X obj 121 50 osc~ 110;
#X obj 121 112 *~;
#X obj 125 206 *~;
#X floatatom 142 181 5 0 0 0 - - -;
#X floatatom 137 81 5 0 0 0 - - -;
#X obj 125 255 dac~ 1;
#X obj 311 183 metro 500;
#X text 273 233 graph the output;
#N canvas 0 22 450 300 (subpatch) 0;
#X array array99 100 float 0;
#X coords 0 -1 100 1 200 100 1;
#X restore 279 277 graph;
#X obj 274 211 tabwrite~ array99;
#X msg 312 158 1;
#X msg 342 157 0;
#X floatatom 119 27 5 0 0 0 - - -;
#X msg 192 119 preamp 18;
#X connect 0 0 3 0;
#X connect 0 0 10 0;
#X connect 1 0 2 0;
#X connect 2 0 0 0;
#X connect 3 0 6 0;
#X connect 4 0 3 1;
#X connect 5 0 2 1;
#X connect 7 0 10 0;
#X connect 11 0 7 0;
#X connect 12 0 7 0;
#X connect 13 0 1 0;
#X connect 14 0 0 0;
