max v2;
#N vpatcher 232 126 891 434;
#P origin 0 -27;
#P window setfont "Sans Serif" 9.;
#P window linecount 1;
#P newex 281 120 167 196617 jcom.pass /bleed /gain /normalize;
#P newex 215 120 57 196617 prepend fb;
#P newex 149 120 56 196617 prepend ff;
#P newex 17 83 274 196617 jcom.oscroute /genframe /direct /feedforward /feedback;
#P comment 548 30 75 196617 VIDEO INPUT;
#P inlet 577 49 15 0;
#P inlet 17 45 15 0;
#P comment 247 234 75 196617 VIDEO OUTPUT;
#P outlet 232 234 15 0;
#P newex 232 212 45 196617 jit.wake;
#P connect 3 0 6 0;
#P connect 6 2 7 0;
#P connect 6 3 8 0;
#P fasten 8 0 0 0 220 174 237 174;
#P fasten 7 0 0 0 154 174 237 174;
#P fasten 6 0 0 0 22 174 237 174;
#P fasten 6 1 0 0 88 174 237 174;
#P fasten 4 0 0 0 582 206 237 206;
#P fasten 9 1 0 0 338 174 237 174;
#P fasten 9 2 0 0 390 174 237 174;
#P fasten 9 0 0 0 286 174 237 174;
#P connect 0 0 1 0;
#P connect 6 4 9 0;
#P pop;
