max v2;#N vpatcher 273 298 822 649;#P origin 0 -22;#P window setfont "Sans Serif" 9.;#P hidden newex 376 236 64 196617 jcom.out~ 1;#P hidden newex 376 190 49 196617 jcom.in~;#P hidden message 140 212 125 196617 /documentation/generate;#P comment 136 31 37 196617 mode:;#B frgb 172 172 172;#P user ubumenu 171 30 83 196617 0 1 1 0;#X add off;#X add white;#X add pink;#X prefix_set 0 0 0 0;#X pattrmode 1;#P objectname Mode;#P hidden message 268 212 37 196617 /init;#P hidden outlet 376 280 15 0;#P hidden comment 401 281 108 196617 ---signal outputs---;#P hidden comment 29 209 79 196617 command input;#P hidden newex 376 213 108 196617 poly~ jalg.noise~.mxt;#P hidden outlet 15 292 15 0;#P hidden inlet 15 210 13 0;#P window linecount 2;#P hidden newex 15 239 288 196617 jcom.hub jmod.noise~ @size 1U-half @module_type audio @description "Play sine tones - square - triangle waves etc.";#P objectname jcom.hub;#P window linecount 1;#P hidden newex 8 112 57 196617 pvar Mode;#P hidden newex 108 112 378 196617 jcom.parameter mode @type msg_menu @description "choose the noise function.";#P objectname mode[1];#P bpatcher 0 0 256 60 0 0 jcom.gui.mxt 0;#P objectname jcom.gui.1Uh.a.stereo.mxb;#P hidden connect 1 0 2 0;#P hidden fasten 10 0 3 0 273 233 20 233;#P hidden fasten 13 0 3 0 145 233 20 233;#P hidden connect 4 0 3 0;#P hidden connect 3 0 5 0;#P hidden connect 2 0 1 0;#P hidden connect 14 0 6 0;#P hidden connect 6 0 15 0;#P hidden connect 15 0 9 0;#P pop;