max v2;#N vpatcher 107 73 1037 777;#P origin 0 -24;#P window setfont "Sans Serif" 9.;#P window linecount 1;#P newex 236 104 81 196617 prepend settitle;#P newex 236 81 102 196617 jcom.oscroute /title;#N vpatcher 20 74 400 526;#P inlet 90 34 15 0;#P outlet 143 381 15 0;#P window setfont "Sans Serif" 9.;#P newex 215 47 48 196617 loadbang;#P newex 143 355 92 196617 prepend midievent;#N vpatcher 20 74 220 330;#P outlet 38 134 15 0;#P window setfont "Sans Serif" 9.;#P newex 38 110 66 196617 pack 0 0;#P newex 38 86 37 196617 + 191;#P newex 38 62 66 196617 unpack 0 s 0;#P inlet 38 38 15 0;#P connect 0 0 1 0;#P connect 1 0 2 0;#P connect 2 0 3 0;#P connect 3 0 4 0;#P connect 1 2 3 1;#P pop;#P newobj 90 247 56 196617 p program;#N vpatcher 20 74 220 330;#P outlet 38 134 15 0;#P window setfont "Sans Serif" 9.;#P newex 38 110 76 196617 pack 0 0 0;#P newex 38 86 37 196617 + 159;#P newex 38 62 76 196617 unpack 0 s 0 0;#P inlet 38 38 15 0;#P connect 0 0 1 0;#P connect 1 0 2 0;#P connect 2 0 3 0;#P connect 3 0 4 0;#P connect 1 2 3 1;#P connect 1 3 3 2;#P pop;#P newobj 76 269 37 196617 p poly;#N vpatcher 20 74 220 330;#P outlet 38 146 15 0;#P window setfont "Sans Serif" 9.;#P newex 38 119 66 196617 pack 0 0;#P newex 38 92 37 196617 + 223;#P newex 38 65 66 196617 unpack 0 s 0;#P inlet 38 38 15 0;#P connect 0 0 1 0;#P connect 1 0 2 0;#P connect 2 0 3 0;#P connect 3 0 4 0;#P connect 1 2 3 1;#P pop;#P newobj 34 335 38 196617 p bend;#N vpatcher 20 74 221 308;#P outlet 38 142 15 0;#P window setfont "Sans Serif" 9.;#P newex 38 116 84 196617 pack 0 0 0;#P newex 38 90 37 196617 + 143;#P newex 38 64 85 196617 unpack 0 s 0 0;#P inlet 38 38 15 0;#P connect 0 0 1 0;#P connect 1 0 2 0;#P connect 2 0 3 0;#P connect 3 0 4 0;#P connect 1 2 3 1;#P connect 1 3 3 2;#P pop;#P newobj 62 291 37 196617 p note;#N vpatcher 20 74 220 330;#P outlet 38 150 15 0;#P window setfont "Sans Serif" 9.;#P newex 38 122 76 196617 pack 0 0 0;#P newex 38 94 37 196617 + 175;#P newex 38 66 76 196617 unpack 0 s 0 0;#P inlet 38 38 15 0;#P connect 0 0 1 0;#P connect 1 0 2 0;#P connect 2 0 3 0;#P connect 3 0 4 0;#P connect 1 2 3 1;#P connect 1 3 3 2;#P pop;#P newobj 48 313 26 196617 p cc;#P newex 34 221 66 196617 gate 5;#P newex 296 189 21 196617 t 5;#P newex 270 189 21 196617 t 4;#P newex 244 189 21 196617 t 3;#P newex 218 189 21 196617 t 2;#P newex 192 189 21 196617 t 1;#P newex 192 167 144 196617 sel bend cc note poly program;#P message 192 145 20 196617 \$2;#P message 215 74 97 196617 re / \, substitute " ";#P newex 90 104 66 196617 regexp;#P fasten 4 0 9 0 197 213 39 213;#P fasten 5 0 9 0 223 213 39 213;#P fasten 6 0 9 0 249 213 39 213;#P fasten 7 0 9 0 275 213 39 213;#P fasten 8 0 9 0 301 213 39 213;#P connect 9 0 12 0;#P connect 9 1 10 0;#P connect 9 2 11 0;#P connect 9 3 13 0;#P fasten 1 0 0 0 220 92 95 92;#P connect 18 0 0 0;#P connect 0 0 9 1;#P connect 9 4 14 0;#P connect 10 0 15 0;#P connect 12 0 15 0;#P connect 11 0 15 0;#P connect 13 0 15 0;#P connect 14 0 15 0;#P connect 15 0 17 0;#P connect 0 0 2 0;#P connect 2 0 3 0;#P connect 3 0 4 0;#P connect 16 0 1 0;#P connect 3 1 5 0;#P connect 3 2 6 0;#P connect 3 3 7 0;#P connect 3 4 8 0;#P pop;#P newobj 430 81 68 196617 p midi_parse;#P newex 623 406 78 196617 s $1pgm_menu;#N vpatcher 10 59 610 459;#P window setfont "Sans Serif" 9.;#P newex 50 96 51 196617 tosymbol;#P newex 50 122 78 196617 prepend append;#P outlet 50 196 15 0;#P inlet 249 63 15 0;#P inlet 50 63 15 0;#P connect 0 0 4 0;#P connect 4 0 3 0;#P connect 1 0 2 0;#P connect 3 0 2 0;#P pop;#P newobj 623 383 112 196617 p build_program_menu;#N vpatcher 10 59 610 459;#P window setfont "Sans Serif" 9.;#P window linecount 0;#P newex 164 149 37 196617 t read;#P newex 200 125 68 196617 prepend read;#P newex 164 97 46 196617 sel bang;#P newex 412 159 60 196617 t writepgm;#P newex 448 135 91 196617 prepend writepgm;#P newex 412 107 46 196617 sel bang;#P newex 278 155 62 196617 t writebank;#P newex 314 131 93 196617 prepend writebank;#P newex 278 103 46 196617 sel bang;#P newex 278 79 279 196617 route /bank /program;#N vpatcher 10 59 610 459;#P window setfont "Sans Serif" 9.;#P newex 191 156 27 196617 + 1;#P newex 191 80 80 196617 prepend symbol;#P user ubumenu 191 133 100 196617 0 1 1 0;#X prefix_set 0 0 <none> 0;#P newex 284 80 78 196617 r $1pgm_menu;#P message 87 169 39 196617 get \$1;#P newex 50 117 50 196617 deferlow;#N coll $1params 1;#P newobj 50 140 121 196617 coll $1params 1;#P newex 50 50 151 196617 t dump s;#P inlet 50 30 15 0;#P outlet 87 194 15 0;#P connect 1 0 2 0;#P connect 2 0 4 0;#P connect 4 0 3 0;#P connect 3 1 5 0;#P fasten 9 0 0 0 196 189 92 189;#P connect 5 0 0 0;#P connect 2 1 8 0;#P connect 8 0 7 0;#P connect 6 0 7 0;#P connect 7 0 9 0;#P pop;#P newobj 50 83 76 196617 p set_program;#P outlet 392 251 15 0;#P outlet 50 251 15 0;#P window linecount 1;#P newex 50 50 352 196617 jcom.oscroute /program /read /write/;#P inlet 50 30 15 0;#P connect 0 0 1 0;#P connect 1 0 4 0;#P connect 4 0 2 0;#P connect 1 1 12 0;#P connect 12 0 14 0;#P connect 12 1 13 0;#P connect 1 2 5 0;#P connect 5 0 6 0;#P connect 6 0 8 0;#P connect 6 1 7 0;#P connect 1 3 3 0;#P connect 14 0 3 0;#P connect 13 0 3 0;#P connect 7 0 3 0;#P connect 8 0 3 0;#P connect 10 0 3 0;#P connect 11 0 3 0;#P connect 5 1 9 0;#P connect 9 0 11 0;#P connect 9 1 10 0;#P pop;#P newobj 342 81 84 196617 p program&bank;#P newex 753 378 40 196617 t 1 l 0;#N vpatcher 20 74 620 474;#P inlet 130 41 15 0;#P window setfont "Sans Serif" 9.;#P newex 59 108 47 196617 gate 1 1;#P outlet 59 202 15 0;#P inlet 96 41 15 0;#P connect 3 0 2 0;#P connect 2 0 1 0;#P connect 0 0 2 1;#P pop;#P newobj 50 36 77 196617 p kill_feedback;#P newex 535 252 109 196617 r $1get_param_value;#P newex 122 81 111 196617 jcom.pass /plug /open;#N comlet OSC messages;#P outlet 491 444 15 0;#N vpatcher 438 111 911 503;#P window setfont "Sans Serif" 9.;#P newex 127 193 49 196617 deferlow;#N vpatcher 91 103 1153 844;#P origin 301 10;#P window setfont "Sans Serif" 9.;#P newex 163 123 50 196617 deferlow;#P newex 59 469 62 196617 prepend get;#P outlet 59 577 15 0;#P window linecount 1;#P newex 387 382 40 196617 uzi;#P window linecount 0;#P newex 387 356 27 196617 i;#P newex 417 442 31 196617 sel 0;#P newex 860 221 40 196617 uzi 0;#P newex 458 129 40 196617 t 1 0 b;#P inlet 458 87 15 0;#P inlet 163 87 15 0;#P inlet 404 87 15 0;#P outlet 163 577 15 0;#P newex 163 151 30 196617 t b b;#P newex 769 370 37 196617 + 200;#P newex 319 475 107 196617 sprintf script connect oscrt-%d 0 vst 0;#P message 163 475 101 196617 script connect oscroute_parameter 0 oscrt-1 0;#P newex 417 420 27 196617 - 1;#P newex 404 279 40 196617 t i i i;#P newex 438 475 125 196617 sprintf script connect oscrt-%d 1 oscrt-%d 0;#P newex 769 349 31 196617 * 20;#P newex 404 129 29 196617 t b s;#N counter;#X flags 0 0;#P newobj 404 189 66 196617 counter;#P newex 682 475 185 196617 sprintf script new oscrt-%d newex 50 %d 200 196617 jcom.pass /%s;#P newex 890 475 147 196617 sprintf script delete oscrt-%d;#P connect 20 2 22 0;#P connect 22 0 21 0;#P connect 14 0 23 0;#P connect 23 0 11 0;#P connect 11 0 8 0;#P fasten 1 0 12 0 687 560 168 560;#P fasten 0 0 12 0 895 562 168 562;#P fasten 9 0 12 0 324 556 168 556;#P fasten 8 0 12 0 168 543 168 543;#P fasten 5 0 12 0 443 558 168 558;#P connect 20 2 9 0;#P connect 11 1 19 0;#P connect 19 0 20 0;#P connect 13 0 3 0;#P connect 3 0 2 0;#P connect 2 0 6 0;#P connect 6 0 19 1;#P connect 20 2 7 0;#P connect 7 0 18 0;#P connect 16 0 2 2;#P connect 18 1 5 0;#P connect 15 0 16 0;#P connect 20 2 5 1;#P fasten 6 1 1 0 424 343 687 343;#P fasten 6 2 4 0 439 336 774 336;#P connect 4 0 10 0;#P connect 10 0 1 1;#P connect 3 1 1 2;#P fasten 16 2 17 0 493 152 865 152;#P fasten 2 0 17 1 409 213 895 213;#P fasten 16 1 17 1 478 162 895 162;#P connect 17 2 0 0;#P pop;#P newobj 127 301 81 196617 p scripting _etc;#P newex 127 221 141 196617 t b params pgmnames b clear;#P newex 127 119 27 196617 t b l;#P newex 50 50 87 196617 sel bang;#P newex 50 119 43 196617 t b plug;#P inlet 50 30 15 0;#P inlet 399 30 15 0;#P outlet 83 331 15 0;#P outlet 223 331 15 0;#P outlet 198 331 15 0;#P outlet 255 331 15 0;#P connect 5 0 7 0;#P connect 7 0 6 0;#P connect 6 1 3 0;#P lcolor 2;#P fasten 8 1 3 0 149 143 88 143;#P lcolor 2;#P fasten 9 1 3 0 164 257 88 257;#P lcolor 2;#P fasten 9 2 3 0 196 259 88 259;#P lcolor 2;#P connect 10 0 3 0;#P lcolor 2;#P connect 7 1 8 0;#P connect 8 0 11 0;#P connect 6 0 11 0;#P connect 11 0 9 0;#P connect 9 0 10 0;#P fasten 4 0 10 1 404 276 167 276;#P connect 9 3 10 2;#P connect 10 1 1 0;#P connect 9 4 2 0;#P connect 9 3 2 0;#P connect 9 4 0 0;#P pop;#P newobj 122 161 105 196617 p load_new_plug;#N comlet parameter updated (index \, value);#P outlet 768 444 15 0;#P newex 50 55 227 196617 jcom.oscroute /parameter /vst /raw/voice;#P objectname oscroute_parameter;#N thispatcher;#Q end;#P newobj 153 194 60 196617 thispatcher;#N comlet (signal) channel 2;#P outlet 526 444 15 0;#N comlet (signal) channel 1;#P outlet 510 444 15 0;#N comlet (signal) channel 2;#P inlet 594 14 15 0;#N comlet (signal) channel 1;#P inlet 510 14 15 0;#N comlet build menu of parameters;#P outlet 542 444 15 0;#N comlet OSC messages;#P inlet 50 14 15 0;#P objectname ctlinlet;#P newex 542 384 75 196617 prepend append;#N vst~ loaduniqueid 0;#P newobj 510 332 94 196617 vst~;#P objectname vst;#P connect 2 0 15 0;#P connect 15 0 9 0;#P fasten 16 2 15 1 788 402 819 402 819 33 122 33;#P lcolor 9;#P fasten 16 0 15 1 758 402 819 402 819 33 122 33;#P lcolor 9;#P connect 9 1 13 0;#P connect 13 0 11 0;#P connect 11 1 8 0;#P fasten 0 2 11 1 547 359 654 359 654 150 222 150;#P lcolor 2;#P connect 13 2 21 0;#P connect 21 0 22 0;#P connect 21 1 17 0;#P fasten 9 2 20 0 199 77 435 77;#P fasten 20 0 0 0 435 140 515 140;#P connect 14 0 0 0;#P connect 4 0 0 0;#P fasten 11 0 0 0 127 215 515 215;#P fasten 17 0 0 0 347 140 515 140;#P fasten 13 1 0 0 177 140 515 140;#P fasten 22 0 0 0 241 140 515 140;#P connect 0 0 6 0;#P connect 0 1 7 0;#P connect 0 2 1 0;#P connect 1 0 3 0;#P fasten 11 2 3 0 189 187 501 187 501 426 547 426;#P lcolor 13;#P connect 5 0 0 1;#P connect 0 5 18 0;#P connect 18 0 19 0;#P fasten 11 3 18 1 220 184 730 184;#P lcolor 13;#P fasten 0 3 16 0 563 355 758 355;#P lcolor 9;#P connect 16 1 10 0;#P pop;