{
	"patcher" : 	{
		"rect" : [ 460.0, 71.0, 678.0, 432.0 ],
		"bglocked" : 0,
		"defrect" : [ 460.0, 71.0, 678.0, 432.0 ],
		"openinpresentation" : 0,
		"default_fontsize" : 10.0,
		"default_fontface" : 0,
		"default_fontname" : "Verdana",
		"gridonopen" : 0,
		"gridsize" : [ 5.0, 5.0 ],
		"gridsnaponopen" : 0,
		"toolbarvisible" : 1,
		"boxfadetime" : 200,
		"boxanimatetime" : 200,
		"scrollanimatetime" : 200,
		"metadata" : [  ],
		"boxes" : [ 			{
				"box" : 				{
					"maxclass" : "comment",
					"text" : "RETURNED MESSAGES",
					"numinlets" : 1,
					"patching_rect" : [ 40.0, 365.0, 113.0, 17.0 ],
					"numoutlets" : 0,
					"fontsize" : 9.0,
					"fontname" : "Verdana",
					"id" : "obj-1"
				}

			}
, 			{
				"box" : 				{
					"maxclass" : "comment",
					"text" : "VIDEO OUTPUT",
					"numinlets" : 1,
					"patching_rect" : [ 343.0, 365.0, 77.0, 17.0 ],
					"numoutlets" : 0,
					"fontsize" : 9.0,
					"fontname" : "Verdana",
					"id" : "obj-2"
				}

			}
, 			{
				"box" : 				{
					"maxclass" : "outlet",
					"numinlets" : 1,
					"patching_rect" : [ 42.0, 345.0, 15.0, 15.0 ],
					"numoutlets" : 0,
					"id" : "obj-3",
					"comment" : "Returned messages"
				}

			}
, 			{
				"box" : 				{
					"maxclass" : "newobj",
					"varname" : "+[1]",
					"text" : "+ 1",
					"numinlets" : 2,
					"patching_rect" : [ 271.0, 269.0, 27.0, 17.0 ],
					"numoutlets" : 1,
					"fontsize" : 9.0,
					"fontname" : "Verdana",
					"outlettype" : [ "int" ],
					"id" : "obj-4"
				}

			}
, 			{
				"box" : 				{
					"maxclass" : "outlet",
					"numinlets" : 1,
					"patching_rect" : [ 346.0, 345.0, 15.0, 15.0 ],
					"numoutlets" : 0,
					"id" : "obj-5",
					"comment" : "Video output"
				}

			}
, 			{
				"box" : 				{
					"maxclass" : "newobj",
					"text" : "gate 2 1",
					"numinlets" : 2,
					"patching_rect" : [ 271.0, 291.0, 85.0, 17.0 ],
					"numoutlets" : 2,
					"fontsize" : 9.0,
					"fontname" : "Verdana",
					"outlettype" : [ "", "" ],
					"id" : "obj-6"
				}

			}
, 			{
				"box" : 				{
					"maxclass" : "newobj",
					"varname" : "u339000005[1]",
					"text" : "jit.rgb2luma",
					"numinlets" : 1,
					"patching_rect" : [ 346.0, 315.0, 65.0, 17.0 ],
					"numoutlets" : 2,
					"fontsize" : 9.0,
					"fontname" : "Verdana",
					"outlettype" : [ "jit_matrix", "" ],
					"id" : "obj-7"
				}

			}
, 			{
				"box" : 				{
					"maxclass" : "newobj",
					"text" : "jit.brcosa",
					"numinlets" : 1,
					"patching_rect" : [ 346.0, 253.0, 53.0, 17.0 ],
					"numoutlets" : 2,
					"fontsize" : 9.0,
					"fontname" : "Verdana",
					"outlettype" : [ "jit_matrix", "" ],
					"id" : "obj-8"
				}

			}
, 			{
				"box" : 				{
					"maxclass" : "newobj",
					"text" : "jcom.oscroute \/dummy \/monochrome \/genframe \/direct",
					"numinlets" : 1,
					"patching_rect" : [ 42.0, 60.0, 317.0, 17.0 ],
					"numoutlets" : 5,
					"fontsize" : 9.0,
					"fontname" : "Verdana",
					"outlettype" : [ "", "", "", "", "" ],
					"id" : "obj-9"
				}

			}
, 			{
				"box" : 				{
					"maxclass" : "comment",
					"text" : "INSTRUCTIONS",
					"numinlets" : 1,
					"patching_rect" : [ 59.0, 36.0, 77.0, 17.0 ],
					"numoutlets" : 0,
					"fontsize" : 9.0,
					"fontname" : "Verdana",
					"id" : "obj-10"
				}

			}
, 			{
				"box" : 				{
					"maxclass" : "newobj",
					"text" : "jcom.pass \/brightness \/contrast \/saturation",
					"numinlets" : 1,
					"patching_rect" : [ 346.0, 162.0, 213.0, 17.0 ],
					"numoutlets" : 4,
					"fontsize" : 9.0,
					"fontname" : "Verdana",
					"outlettype" : [ "", "", "", "" ],
					"id" : "obj-11"
				}

			}
, 			{
				"box" : 				{
					"maxclass" : "inlet",
					"numinlets" : 0,
					"patching_rect" : [ 42.0, 36.0, 15.0, 15.0 ],
					"numoutlets" : 1,
					"outlettype" : [ "" ],
					"id" : "obj-12",
					"comment" : "Instructions"
				}

			}
, 			{
				"box" : 				{
					"maxclass" : "comment",
					"text" : "VIDEO INPUT",
					"numinlets" : 1,
					"patching_rect" : [ 509.0, 36.0, 75.0, 17.0 ],
					"numoutlets" : 0,
					"fontsize" : 9.0,
					"fontname" : "Verdana",
					"id" : "obj-13"
				}

			}
, 			{
				"box" : 				{
					"maxclass" : "inlet",
					"numinlets" : 0,
					"patching_rect" : [ 587.0, 36.0, 15.0, 15.0 ],
					"numoutlets" : 1,
					"outlettype" : [ "" ],
					"id" : "obj-14",
					"comment" : "Video input"
				}

			}
 ],
		"lines" : [ 			{
				"patchline" : 				{
					"source" : [ "obj-12", 0 ],
					"destination" : [ "obj-9", 0 ],
					"hidden" : 0
				}

			}
, 			{
				"patchline" : 				{
					"source" : [ "obj-9", 1 ],
					"destination" : [ "obj-4", 0 ],
					"hidden" : 0,
					"midpoints" : [ 126.0, 229.0, 280.5, 229.0 ]
				}

			}
, 			{
				"patchline" : 				{
					"source" : [ "obj-4", 0 ],
					"destination" : [ "obj-6", 0 ],
					"hidden" : 0
				}

			}
, 			{
				"patchline" : 				{
					"source" : [ "obj-9", 4 ],
					"destination" : [ "obj-11", 0 ],
					"hidden" : 0
				}

			}
, 			{
				"patchline" : 				{
					"source" : [ "obj-14", 0 ],
					"destination" : [ "obj-8", 0 ],
					"hidden" : 0,
					"midpoints" : [ 596.0, 222.0, 355.5, 222.0 ]
				}

			}
, 			{
				"patchline" : 				{
					"source" : [ "obj-11", 1 ],
					"destination" : [ "obj-8", 0 ],
					"hidden" : 0,
					"midpoints" : [ 420.166656, 216.0, 355.5, 216.0 ]
				}

			}
, 			{
				"patchline" : 				{
					"source" : [ "obj-11", 0 ],
					"destination" : [ "obj-8", 0 ],
					"hidden" : 0
				}

			}
, 			{
				"patchline" : 				{
					"source" : [ "obj-11", 2 ],
					"destination" : [ "obj-8", 0 ],
					"hidden" : 0,
					"midpoints" : [ 484.833344, 219.0, 355.5, 219.0 ]
				}

			}
, 			{
				"patchline" : 				{
					"source" : [ "obj-9", 2 ],
					"destination" : [ "obj-8", 0 ],
					"hidden" : 0,
					"midpoints" : [ 200.5, 205.0, 355.5, 205.0 ]
				}

			}
, 			{
				"patchline" : 				{
					"source" : [ "obj-9", 3 ],
					"destination" : [ "obj-8", 0 ],
					"hidden" : 0,
					"midpoints" : [ 275.0, 202.0, 355.5, 202.0 ]
				}

			}
, 			{
				"patchline" : 				{
					"source" : [ "obj-8", 0 ],
					"destination" : [ "obj-6", 1 ],
					"hidden" : 0
				}

			}
, 			{
				"patchline" : 				{
					"source" : [ "obj-6", 1 ],
					"destination" : [ "obj-7", 0 ],
					"hidden" : 0
				}

			}
, 			{
				"patchline" : 				{
					"source" : [ "obj-6", 0 ],
					"destination" : [ "obj-5", 0 ],
					"hidden" : 0
				}

			}
, 			{
				"patchline" : 				{
					"source" : [ "obj-7", 0 ],
					"destination" : [ "obj-5", 0 ],
					"hidden" : 0
				}

			}
 ]
	}

}
