{
	"patcher" : 	{
		"fileversion" : 1,
		"rect" : [ 163.0, 71.0, 523.0, 620.0 ],
		"bglocked" : 0,
		"defrect" : [ 163.0, 71.0, 523.0, 620.0 ],
		"openrect" : [ 0.0, 0.0, 0.0, 0.0 ],
		"openinpresentation" : 0,
		"default_fontsize" : 10.970939,
		"default_fontface" : 0,
		"default_fontname" : "Verdana",
		"gridonopen" : 0,
		"gridsize" : [ 5.0, 5.0 ],
		"gridsnaponopen" : 0,
		"toolbarvisible" : 1,
		"boxanimatetime" : 200,
		"imprint" : 0,
		"metadata" : [  ],
		"boxes" : [ 			{
				"box" : 				{
					"maxclass" : "jit.pwindow",
					"patching_rect" : [ 235.0, 20.0, 60.0, 45.0 ],
					"outlettype" : [ "", "" ],
					"id" : "obj-37",
					"numinlets" : 1,
					"numoutlets" : 2
				}

			}
, 			{
				"box" : 				{
					"maxclass" : "newobj",
					"text" : "p mouse-stuff",
					"hidden" : 1,
					"patching_rect" : [ 28.0, 209.0, 78.0, 18.0 ],
					"outlettype" : [ "" ],
					"id" : "obj-1",
					"fontname" : "Verdana",
					"fontsize" : 9.873845,
					"numinlets" : 1,
					"numoutlets" : 1,
					"patcher" : 					{
						"fileversion" : 1,
						"rect" : [ 734.0, 44.0, 440.0, 398.0 ],
						"bglocked" : 0,
						"defrect" : [ 734.0, 44.0, 440.0, 398.0 ],
						"openrect" : [ 0.0, 0.0, 0.0, 0.0 ],
						"openinpresentation" : 0,
						"default_fontsize" : 10.0,
						"default_fontface" : 0,
						"default_fontname" : "Verdana",
						"gridonopen" : 0,
						"gridsize" : [ 5.0, 5.0 ],
						"gridsnaponopen" : 0,
						"toolbarvisible" : 1,
						"boxanimatetime" : 200,
						"imprint" : 0,
						"metadata" : [  ],
						"boxes" : [ 							{
								"box" : 								{
									"maxclass" : "message",
									"text" : "/brightness $1",
									"patching_rect" : [ 114.0, 280.0, 81.0, 16.0 ],
									"outlettype" : [ "" ],
									"id" : "obj-1",
									"fontname" : "Verdana",
									"fontsize" : 9.873845,
									"numinlets" : 2,
									"numoutlets" : 1
								}

							}
, 							{
								"box" : 								{
									"maxclass" : "message",
									"text" : "/contrast $1",
									"patching_rect" : [ 234.0, 280.0, 69.0, 16.0 ],
									"outlettype" : [ "" ],
									"id" : "obj-2",
									"fontname" : "Verdana",
									"fontsize" : 9.873845,
									"numinlets" : 2,
									"numoutlets" : 1
								}

							}
, 							{
								"box" : 								{
									"maxclass" : "newobj",
									"text" : "clip -200 200",
									"patching_rect" : [ 114.0, 214.0, 74.0, 18.0 ],
									"outlettype" : [ "" ],
									"id" : "obj-3",
									"fontname" : "Verdana",
									"fontsize" : 9.873845,
									"numinlets" : 3,
									"numoutlets" : 1
								}

							}
, 							{
								"box" : 								{
									"maxclass" : "newobj",
									"text" : "scale -200 200 -3. 5.",
									"patching_rect" : [ 114.0, 244.0, 114.0, 18.0 ],
									"outlettype" : [ "float" ],
									"id" : "obj-4",
									"fontname" : "Verdana",
									"fontsize" : 9.873845,
									"numinlets" : 6,
									"numoutlets" : 1
								}

							}
, 							{
								"box" : 								{
									"maxclass" : "newobj",
									"text" : "t 1",
									"patching_rect" : [ 182.0, 115.0, 22.0, 18.0 ],
									"outlettype" : [ "int" ],
									"id" : "obj-5",
									"fontname" : "Verdana",
									"fontsize" : 9.873845,
									"numinlets" : 1,
									"numoutlets" : 1
								}

							}
, 							{
								"box" : 								{
									"maxclass" : "newobj",
									"text" : "sel 0",
									"patching_rect" : [ 182.0, 93.0, 32.0, 18.0 ],
									"outlettype" : [ "bang", "" ],
									"id" : "obj-6",
									"fontname" : "Verdana",
									"fontsize" : 9.873845,
									"numinlets" : 2,
									"numoutlets" : 2
								}

							}
, 							{
								"box" : 								{
									"maxclass" : "newobj",
									"text" : "t 0",
									"patching_rect" : [ 108.0, 115.0, 22.0, 18.0 ],
									"outlettype" : [ "int" ],
									"id" : "obj-7",
									"fontname" : "Verdana",
									"fontsize" : 9.873845,
									"numinlets" : 1,
									"numoutlets" : 1
								}

							}
, 							{
								"box" : 								{
									"maxclass" : "newobj",
									"text" : "gate 1 1",
									"patching_rect" : [ 50.0, 146.0, 50.0, 18.0 ],
									"outlettype" : [ "" ],
									"id" : "obj-8",
									"fontname" : "Verdana",
									"fontsize" : 9.873845,
									"numinlets" : 2,
									"numoutlets" : 1
								}

							}
, 							{
								"box" : 								{
									"maxclass" : "newobj",
									"text" : "clip -200 200",
									"patching_rect" : [ 234.0, 214.0, 74.0, 18.0 ],
									"outlettype" : [ "" ],
									"id" : "obj-9",
									"fontname" : "Verdana",
									"fontsize" : 9.873845,
									"numinlets" : 3,
									"numoutlets" : 1
								}

							}
, 							{
								"box" : 								{
									"maxclass" : "newobj",
									"text" : "scale -200 200 5. -3.",
									"patching_rect" : [ 234.0, 244.0, 114.0, 18.0 ],
									"outlettype" : [ "float" ],
									"id" : "obj-10",
									"fontname" : "Verdana",
									"fontsize" : 9.873845,
									"numinlets" : 6,
									"numoutlets" : 1
								}

							}
, 							{
								"box" : 								{
									"maxclass" : "comment",
									"text" : "Find change in mouse position to control the offset.",
									"linecount" : 3,
									"patching_rect" : [ 240.0, 87.0, 101.0, 42.0 ],
									"frgb" : [ 0.658824, 0.658824, 0.658824, 1.0 ],
									"id" : "obj-11",
									"fontname" : "Verdana",
									"fontsize" : 9.873845,
									"numinlets" : 1,
									"numoutlets" : 0
								}

							}
, 							{
								"box" : 								{
									"maxclass" : "newobj",
									"text" : "unpack 0 0 0 0 0 0",
									"patching_rect" : [ 50.0, 169.0, 103.0, 18.0 ],
									"outlettype" : [ "int", "int", "int", "int", "int", "int" ],
									"id" : "obj-12",
									"fontname" : "Verdana",
									"fontsize" : 9.873845,
									"numinlets" : 1,
									"numoutlets" : 6
								}

							}
, 							{
								"box" : 								{
									"maxclass" : "newobj",
									"text" : "route 2 4",
									"patching_rect" : [ 87.0, 93.0, 54.0, 18.0 ],
									"outlettype" : [ "", "", "" ],
									"id" : "obj-13",
									"fontname" : "Verdana",
									"fontsize" : 9.873845,
									"numinlets" : 1,
									"numoutlets" : 3
								}

							}
, 							{
								"box" : 								{
									"maxclass" : "newobj",
									"text" : "jcom.pwindow.mouse",
									"patching_rect" : [ 87.0, 71.0, 116.0, 18.0 ],
									"outlettype" : [ "", "" ],
									"id" : "obj-14",
									"fontname" : "Verdana",
									"fontsize" : 9.873845,
									"numinlets" : 1,
									"numoutlets" : 2
								}

							}
, 							{
								"box" : 								{
									"maxclass" : "inlet",
									"patching_rect" : [ 87.0, 29.0, 15.0, 15.0 ],
									"outlettype" : [ "" ],
									"id" : "obj-15",
									"numinlets" : 0,
									"numoutlets" : 1,
									"comment" : ""
								}

							}
, 							{
								"box" : 								{
									"maxclass" : "outlet",
									"patching_rect" : [ 114.0, 324.0, 15.0, 15.0 ],
									"id" : "obj-16",
									"numinlets" : 1,
									"numoutlets" : 0,
									"comment" : ""
								}

							}
 ],
						"lines" : [ 							{
								"patchline" : 								{
									"source" : [ "obj-10", 0 ],
									"destination" : [ "obj-2", 0 ],
									"hidden" : 0,
									"midpoints" : [  ]
								}

							}
, 							{
								"patchline" : 								{
									"source" : [ "obj-9", 0 ],
									"destination" : [ "obj-10", 0 ],
									"hidden" : 0,
									"midpoints" : [  ]
								}

							}
, 							{
								"patchline" : 								{
									"source" : [ "obj-12", 5 ],
									"destination" : [ "obj-9", 0 ],
									"hidden" : 0,
									"midpoints" : [  ]
								}

							}
, 							{
								"patchline" : 								{
									"source" : [ "obj-6", 0 ],
									"destination" : [ "obj-5", 0 ],
									"hidden" : 0,
									"midpoints" : [  ]
								}

							}
, 							{
								"patchline" : 								{
									"source" : [ "obj-14", 1 ],
									"destination" : [ "obj-6", 0 ],
									"hidden" : 0,
									"midpoints" : [  ]
								}

							}
, 							{
								"patchline" : 								{
									"source" : [ "obj-2", 0 ],
									"destination" : [ "obj-16", 0 ],
									"hidden" : 0,
									"midpoints" : [  ]
								}

							}
, 							{
								"patchline" : 								{
									"source" : [ "obj-1", 0 ],
									"destination" : [ "obj-16", 0 ],
									"hidden" : 0,
									"midpoints" : [  ]
								}

							}
, 							{
								"patchline" : 								{
									"source" : [ "obj-4", 0 ],
									"destination" : [ "obj-1", 0 ],
									"hidden" : 0,
									"midpoints" : [  ]
								}

							}
, 							{
								"patchline" : 								{
									"source" : [ "obj-3", 0 ],
									"destination" : [ "obj-4", 0 ],
									"hidden" : 0,
									"midpoints" : [  ]
								}

							}
, 							{
								"patchline" : 								{
									"source" : [ "obj-12", 4 ],
									"destination" : [ "obj-3", 0 ],
									"hidden" : 0,
									"midpoints" : [  ]
								}

							}
, 							{
								"patchline" : 								{
									"source" : [ "obj-13", 1 ],
									"destination" : [ "obj-7", 0 ],
									"hidden" : 0,
									"midpoints" : [  ]
								}

							}
, 							{
								"patchline" : 								{
									"source" : [ "obj-13", 0 ],
									"destination" : [ "obj-8", 1 ],
									"hidden" : 0,
									"midpoints" : [  ]
								}

							}
, 							{
								"patchline" : 								{
									"source" : [ "obj-14", 0 ],
									"destination" : [ "obj-13", 0 ],
									"hidden" : 0,
									"midpoints" : [  ]
								}

							}
, 							{
								"patchline" : 								{
									"source" : [ "obj-15", 0 ],
									"destination" : [ "obj-14", 0 ],
									"hidden" : 0,
									"midpoints" : [  ]
								}

							}
, 							{
								"patchline" : 								{
									"source" : [ "obj-8", 0 ],
									"destination" : [ "obj-12", 0 ],
									"hidden" : 0,
									"midpoints" : [  ]
								}

							}
, 							{
								"patchline" : 								{
									"source" : [ "obj-7", 0 ],
									"destination" : [ "obj-8", 0 ],
									"hidden" : 0,
									"midpoints" : [  ]
								}

							}
, 							{
								"patchline" : 								{
									"source" : [ "obj-5", 0 ],
									"destination" : [ "obj-8", 0 ],
									"hidden" : 0,
									"midpoints" : [  ]
								}

							}
 ]
					}
,
					"saved_object_attributes" : 					{
						"default_fontname" : "Verdana",
						"fontname" : "Verdana",
						"default_fontsize" : 10.0,
						"globalpatchername" : "",
						"fontface" : 0,
						"fontsize" : 10.0,
						"default_fontface" : 0
					}

				}

			}
, 			{
				"box" : 				{
					"maxclass" : "newobj",
					"varname" : "jcom.hub[1]",
					"text" : "jcom.oscroute /preview_dumpout",
					"hidden" : 1,
					"patching_rect" : [ 28.0, 184.0, 176.0, 18.0 ],
					"outlettype" : [ "", "" ],
					"id" : "obj-2",
					"fontname" : "Verdana",
					"fontsize" : 9.873845,
					"numinlets" : 1,
					"numoutlets" : 2
				}

			}
, 			{
				"box" : 				{
					"maxclass" : "newobj",
					"text" : "jcom.out",
					"hidden" : 1,
					"patching_rect" : [ 377.0, 269.0, 52.0, 18.0 ],
					"outlettype" : [ "", "" ],
					"id" : "obj-3",
					"fontname" : "Verdana",
					"fontsize" : 9.873845,
					"numinlets" : 1,
					"numoutlets" : 2
				}

			}
, 			{
				"box" : 				{
					"maxclass" : "inlet",
					"hidden" : 1,
					"patching_rect" : [ 377.0, 140.0, 13.0, 13.0 ],
					"outlettype" : [ "" ],
					"id" : "obj-4",
					"numinlets" : 0,
					"numoutlets" : 1,
					"comment" : ""
				}

			}
, 			{
				"box" : 				{
					"maxclass" : "comment",
					"text" : "VIDEO INPUT",
					"hidden" : 1,
					"patching_rect" : [ 392.0, 141.0, 75.0, 18.0 ],
					"frgb" : [ 0.658824, 0.658824, 0.658824, 1.0 ],
					"id" : "obj-5",
					"fontname" : "Verdana",
					"fontsize" : 9.873845,
					"numinlets" : 1,
					"numoutlets" : 0
				}

			}
, 			{
				"box" : 				{
					"maxclass" : "newobj",
					"text" : "jcom.in 1",
					"hidden" : 1,
					"patching_rect" : [ 377.0, 157.0, 55.0, 18.0 ],
					"outlettype" : [ "", "", "" ],
					"id" : "obj-6",
					"fontname" : "Verdana",
					"fontsize" : 9.873845,
					"numinlets" : 1,
					"numoutlets" : 3
				}

			}
, 			{
				"box" : 				{
					"maxclass" : "comment",
					"text" : "Alexander Refsum Jensenius\rhttp://musicalgestures.uio.no",
					"linecount" : 2,
					"hidden" : 1,
					"patching_rect" : [ 329.0, 555.0, 156.0, 30.0 ],
					"frgb" : [ 0.658824, 0.658824, 0.658824, 1.0 ],
					"id" : "obj-7",
					"fontname" : "Verdana",
					"fontsize" : 9.873845,
					"numinlets" : 1,
					"numoutlets" : 0
				}

			}
, 			{
				"box" : 				{
					"maxclass" : "newobj",
					"text" : "jcom.oscroute /brightness /contrast",
					"hidden" : 1,
					"patching_rect" : [ 125.0, 272.0, 187.0, 18.0 ],
					"outlettype" : [ "", "", "" ],
					"id" : "obj-8",
					"fontname" : "Verdana",
					"fontsize" : 9.873845,
					"numinlets" : 1,
					"numoutlets" : 3
				}

			}
, 			{
				"box" : 				{
					"maxclass" : "newobj",
					"text" : "pcontrol",
					"hidden" : 1,
					"patching_rect" : [ 188.0, 207.0, 49.0, 18.0 ],
					"outlettype" : [ "" ],
					"id" : "obj-9",
					"fontname" : "Verdana",
					"fontsize" : 9.873845,
					"numinlets" : 1,
					"numoutlets" : 1
				}

			}
, 			{
				"box" : 				{
					"maxclass" : "newobj",
					"text" : "jcom.pass open",
					"hidden" : 1,
					"patching_rect" : [ 188.0, 184.0, 86.0, 18.0 ],
					"outlettype" : [ "", "" ],
					"id" : "obj-10",
					"fontname" : "Verdana",
					"fontsize" : 9.873845,
					"numinlets" : 1,
					"numoutlets" : 2
				}

			}
, 			{
				"box" : 				{
					"maxclass" : "newobj",
					"text" : "pvar monochrome",
					"hidden" : 1,
					"patching_rect" : [ 26.0, 533.0, 99.0, 18.0 ],
					"outlettype" : [ "" ],
					"id" : "obj-11",
					"fontname" : "Verdana",
					"fontsize" : 9.873845,
					"numinlets" : 1,
					"numoutlets" : 1
				}

			}
, 			{
				"box" : 				{
					"maxclass" : "newobj",
					"varname" : "monochrome[1]",
					"text" : "jcom.parameter monochrome @type msg_toggle @description \"Monochrome image - 0 is default\"",
					"linecount" : 2,
					"hidden" : 1,
					"patching_rect" : [ 26.0, 555.0, 256.0, 30.0 ],
					"outlettype" : [ "", "", "" ],
					"id" : "obj-12",
					"fontname" : "Verdana",
					"fontsize" : 9.873845,
					"numinlets" : 1,
					"numoutlets" : 3
				}

			}
, 			{
				"box" : 				{
					"maxclass" : "comment",
					"text" : "monochrome",
					"patching_rect" : [ 98.0, 42.0, 73.0, 18.0 ],
					"frgb" : [ 0.584314, 0.584314, 0.584314, 1.0 ],
					"id" : "obj-13",
					"fontname" : "Verdana",
					"textcolor" : [ 0.584314, 0.584314, 0.584314, 1.0 ],
					"fontsize" : 9.873845,
					"numinlets" : 1,
					"numoutlets" : 0
				}

			}
, 			{
				"box" : 				{
					"maxclass" : "radiogroup",
					"varname" : "monochrome",
					"patching_rect" : [ 160.0, 40.0, 18.0, 18.0 ],
					"outlettype" : [ "" ],
					"id" : "obj-14",
					"numinlets" : 1,
					"numoutlets" : 1,
					"itemtype" : 1,
					"size" : 1,
					"values" : [ 0 ],
					"disabled" : [ 0 ]
				}

			}
, 			{
				"box" : 				{
					"maxclass" : "newobj",
					"text" : "pvar saturation",
					"hidden" : 1,
					"patching_rect" : [ 25.0, 453.0, 84.0, 18.0 ],
					"outlettype" : [ "" ],
					"id" : "obj-15",
					"fontname" : "Verdana",
					"fontsize" : 9.873845,
					"numinlets" : 1,
					"numoutlets" : 1
				}

			}
, 			{
				"box" : 				{
					"maxclass" : "newobj",
					"varname" : "saturation[1]",
					"text" : "jcom.parameter saturation @type msg_float @ramp/drive scheduler @repetitions 0 @range/bounds 0. 4. @range/clipmode none @description \"Saturation of image - 1 is default\"",
					"linecount" : 2,
					"hidden" : 1,
					"patching_rect" : [ 25.0, 475.0, 477.0, 30.0 ],
					"outlettype" : [ "", "", "" ],
					"id" : "obj-16",
					"fontname" : "Verdana",
					"fontsize" : 9.873845,
					"numinlets" : 1,
					"numoutlets" : 3
				}

			}
, 			{
				"box" : 				{
					"maxclass" : "flonum",
					"varname" : "saturation",
					"patching_rect" : [ 56.0, 41.0, 35.0, 18.0 ],
					"triscale" : 0.9,
					"outlettype" : [ "float", "bang" ],
					"id" : "obj-17",
					"fontname" : "Verdana",
					"textcolor" : [ 0.709804, 0.709804, 0.709804, 1.0 ],
					"triangle" : 0,
					"fontsize" : 9.873845,
					"numinlets" : 1,
					"numoutlets" : 2,
					"bgcolor" : [ 0.866667, 0.866667, 0.866667, 1.0 ]
				}

			}
, 			{
				"box" : 				{
					"maxclass" : "flonum",
					"varname" : "contrast",
					"patching_rect" : [ 143.0, 22.0, 35.0, 18.0 ],
					"triscale" : 0.9,
					"outlettype" : [ "float", "bang" ],
					"id" : "obj-18",
					"fontname" : "Verdana",
					"textcolor" : [ 0.584314, 0.584314, 0.584314, 1.0 ],
					"triangle" : 0,
					"fontsize" : 9.873845,
					"numinlets" : 1,
					"numoutlets" : 2,
					"bgcolor" : [ 0.866667, 0.866667, 0.866667, 1.0 ]
				}

			}
, 			{
				"box" : 				{
					"maxclass" : "flonum",
					"varname" : "brightness",
					"patching_rect" : [ 56.0, 22.0, 35.0, 18.0 ],
					"triscale" : 0.9,
					"outlettype" : [ "float", "bang" ],
					"id" : "obj-19",
					"fontname" : "Verdana",
					"textcolor" : [ 0.709804, 0.709804, 0.709804, 1.0 ],
					"triangle" : 0,
					"fontsize" : 9.873845,
					"minimum" : 0.0,
					"numinlets" : 1,
					"numoutlets" : 2,
					"bgcolor" : [ 0.866667, 0.866667, 0.866667, 1.0 ]
				}

			}
, 			{
				"box" : 				{
					"maxclass" : "comment",
					"text" : "saturation",
					"patching_rect" : [ 5.0, 42.0, 59.0, 18.0 ],
					"frgb" : [ 0.584314, 0.584314, 0.584314, 1.0 ],
					"id" : "obj-20",
					"fontname" : "Verdana",
					"textcolor" : [ 0.584314, 0.584314, 0.584314, 1.0 ],
					"fontsize" : 9.873845,
					"numinlets" : 1,
					"numoutlets" : 0
				}

			}
, 			{
				"box" : 				{
					"maxclass" : "comment",
					"text" : "contrast",
					"patching_rect" : [ 98.0, 24.0, 49.0, 18.0 ],
					"frgb" : [ 0.584314, 0.584314, 0.584314, 1.0 ],
					"id" : "obj-21",
					"fontname" : "Verdana",
					"textcolor" : [ 0.584314, 0.584314, 0.584314, 1.0 ],
					"fontsize" : 9.873845,
					"numinlets" : 1,
					"numoutlets" : 0
				}

			}
, 			{
				"box" : 				{
					"maxclass" : "comment",
					"text" : "brightness",
					"patching_rect" : [ 4.0, 24.0, 60.0, 18.0 ],
					"frgb" : [ 0.584314, 0.584314, 0.584314, 1.0 ],
					"id" : "obj-22",
					"fontname" : "Verdana",
					"textcolor" : [ 0.584314, 0.584314, 0.584314, 1.0 ],
					"fontsize" : 9.873845,
					"numinlets" : 1,
					"numoutlets" : 0
				}

			}
, 			{
				"box" : 				{
					"maxclass" : "newobj",
					"text" : "pvar contrast",
					"hidden" : 1,
					"patching_rect" : [ 24.0, 365.0, 74.0, 18.0 ],
					"outlettype" : [ "" ],
					"id" : "obj-23",
					"fontname" : "Verdana",
					"fontsize" : 9.873845,
					"numinlets" : 1,
					"numoutlets" : 1
				}

			}
, 			{
				"box" : 				{
					"maxclass" : "message",
					"text" : "/documentation/generate",
					"hidden" : 1,
					"patching_rect" : [ 99.0, 86.0, 135.0, 16.0 ],
					"outlettype" : [ "" ],
					"id" : "obj-24",
					"fontname" : "Verdana",
					"fontsize" : 9.873845,
					"numinlets" : 2,
					"numoutlets" : 1,
					"bgcolor" : [ 0.8, 0.54902, 0.54902, 1.0 ]
				}

			}
, 			{
				"box" : 				{
					"maxclass" : "newobj",
					"varname" : "contrast[1]",
					"text" : "jcom.parameter contrast @type msg_float @ramp/drive scheduler @repetitions 0 @range/bounds 0. 4. @range/clipmode none @description \"Contrast of image - 1 is default\"",
					"linecount" : 2,
					"hidden" : 1,
					"patching_rect" : [ 24.0, 393.0, 468.0, 30.0 ],
					"outlettype" : [ "", "", "" ],
					"id" : "obj-25",
					"fontname" : "Verdana",
					"fontsize" : 9.873845,
					"numinlets" : 1,
					"numoutlets" : 3
				}

			}
, 			{
				"box" : 				{
					"maxclass" : "newobj",
					"varname" : "brightness[1]",
					"text" : "jcom.parameter brightness @type msg_float @ramp/drive scheduler @repetitions 0 @range/bounds 0. 4. @range/clipmode none @description \"Brightness of image - 1 is default\"",
					"linecount" : 2,
					"hidden" : 1,
					"patching_rect" : [ 24.0, 313.0, 478.0, 30.0 ],
					"outlettype" : [ "", "", "" ],
					"id" : "obj-26",
					"fontname" : "Verdana",
					"fontsize" : 9.873845,
					"numinlets" : 1,
					"numoutlets" : 3
				}

			}
, 			{
				"box" : 				{
					"maxclass" : "newobj",
					"text" : "pvar brightness",
					"hidden" : 1,
					"patching_rect" : [ 24.0, 287.0, 86.0, 18.0 ],
					"outlettype" : [ "" ],
					"id" : "obj-27",
					"fontname" : "Verdana",
					"fontsize" : 9.873845,
					"numinlets" : 1,
					"numoutlets" : 1
				}

			}
, 			{
				"box" : 				{
					"maxclass" : "comment",
					"text" : "VIDEO OUTPUT",
					"hidden" : 1,
					"patching_rect" : [ 392.0, 296.0, 85.0, 18.0 ],
					"frgb" : [ 0.658824, 0.658824, 0.658824, 1.0 ],
					"id" : "obj-28",
					"fontname" : "Verdana",
					"fontsize" : 9.873845,
					"numinlets" : 1,
					"numoutlets" : 0
				}

			}
, 			{
				"box" : 				{
					"maxclass" : "outlet",
					"hidden" : 1,
					"patching_rect" : [ 377.0, 296.0, 13.0, 13.0 ],
					"id" : "obj-29",
					"numinlets" : 1,
					"numoutlets" : 0,
					"comment" : ""
				}

			}
, 			{
				"box" : 				{
					"maxclass" : "newobj",
					"text" : "jalg.brcosa%",
					"hidden" : 1,
					"patching_rect" : [ 188.0, 236.0, 199.0, 18.0 ],
					"outlettype" : [ "", "jit_matrix" ],
					"id" : "obj-30",
					"fontname" : "Verdana",
					"fontsize" : 9.873845,
					"numinlets" : 2,
					"numoutlets" : 2
				}

			}
, 			{
				"box" : 				{
					"maxclass" : "message",
					"text" : ";\rjcom.init bang",
					"linecount" : 2,
					"hidden" : 1,
					"patching_rect" : [ 401.0, 510.0, 80.0, 28.0 ],
					"outlettype" : [ "" ],
					"id" : "obj-31",
					"fontname" : "Verdana",
					"fontsize" : 9.873845,
					"numinlets" : 2,
					"numoutlets" : 1,
					"bgcolor" : [ 0.8, 0.54902, 0.54902, 1.0 ]
				}

			}
, 			{
				"box" : 				{
					"maxclass" : "comment",
					"text" : "command input",
					"hidden" : 1,
					"patching_rect" : [ 15.0, 84.0, 86.0, 18.0 ],
					"frgb" : [ 0.658824, 0.658824, 0.658824, 1.0 ],
					"id" : "obj-32",
					"fontname" : "Verdana",
					"fontsize" : 9.873845,
					"numinlets" : 1,
					"numoutlets" : 0
				}

			}
, 			{
				"box" : 				{
					"maxclass" : "newobj",
					"varname" : "jcom.hub",
					"text" : "jcom.hub jmod.brcosa% @size 1U-half @module_type video @algorithm_type jitter @description \"Simple image controls\"",
					"linecount" : 2,
					"hidden" : 1,
					"patching_rect" : [ 1.0, 109.0, 385.0, 30.0 ],
					"outlettype" : [ "", "" ],
					"id" : "obj-33",
					"fontname" : "Verdana",
					"fontsize" : 9.873845,
					"numinlets" : 1,
					"numoutlets" : 2
				}

			}
, 			{
				"box" : 				{
					"maxclass" : "outlet",
					"hidden" : 1,
					"patching_rect" : [ 1.0, 171.0, 13.0, 13.0 ],
					"id" : "obj-34",
					"numinlets" : 1,
					"numoutlets" : 0,
					"comment" : ""
				}

			}
, 			{
				"box" : 				{
					"maxclass" : "inlet",
					"hidden" : 1,
					"patching_rect" : [ 1.0, 84.0, 13.0, 13.0 ],
					"outlettype" : [ "" ],
					"id" : "obj-35",
					"numinlets" : 0,
					"numoutlets" : 1,
					"comment" : ""
				}

			}
, 			{
				"box" : 				{
					"maxclass" : "jcom.ui",
					"text" : "/editing_this_module",
					"outlettype" : [ "" ],
					"id" : "obj-36",
					"textcolor" : [ 0.65, 0.65, 0.65, 1.0 ],
					"has_freeze" : 1,
					"prefix" : "video",
					"has_mute" : 1,
					"color" : [ 1.0, 1.0, 1.0, 1.0 ],
					"has_preview" : 1,
					"numinlets" : 1,
					"has_bypass" : 1,
					"numoutlets" : 1
				}

			}
 ],
		"lines" : [ 			{
				"patchline" : 				{
					"source" : [ "obj-36", 0 ],
					"destination" : [ "obj-37", 0 ],
					"hidden" : 0,
					"midpoints" : [  ]
				}

			}
, 			{
				"patchline" : 				{
					"source" : [ "obj-3", 0 ],
					"destination" : [ "obj-29", 0 ],
					"hidden" : 1,
					"midpoints" : [  ]
				}

			}
, 			{
				"patchline" : 				{
					"source" : [ "obj-30", 1 ],
					"destination" : [ "obj-3", 0 ],
					"hidden" : 1,
					"midpoints" : [  ]
				}

			}
, 			{
				"patchline" : 				{
					"source" : [ "obj-6", 0 ],
					"destination" : [ "obj-30", 1 ],
					"hidden" : 1,
					"midpoints" : [  ]
				}

			}
, 			{
				"patchline" : 				{
					"source" : [ "obj-4", 0 ],
					"destination" : [ "obj-6", 0 ],
					"hidden" : 1,
					"midpoints" : [  ]
				}

			}
, 			{
				"patchline" : 				{
					"source" : [ "obj-10", 1 ],
					"destination" : [ "obj-30", 0 ],
					"hidden" : 1,
					"midpoints" : [ 264.5, 229.0, 197.5, 229.0 ]
				}

			}
, 			{
				"patchline" : 				{
					"source" : [ "obj-9", 0 ],
					"destination" : [ "obj-30", 0 ],
					"hidden" : 1,
					"midpoints" : [  ]
				}

			}
, 			{
				"patchline" : 				{
					"source" : [ "obj-1", 0 ],
					"destination" : [ "obj-30", 0 ],
					"hidden" : 1,
					"midpoints" : [ 37.5, 231.0, 197.5, 231.0 ]
				}

			}
, 			{
				"patchline" : 				{
					"source" : [ "obj-10", 0 ],
					"destination" : [ "obj-9", 0 ],
					"hidden" : 1,
					"midpoints" : [  ]
				}

			}
, 			{
				"patchline" : 				{
					"source" : [ "obj-6", 1 ],
					"destination" : [ "obj-10", 0 ],
					"hidden" : 1,
					"midpoints" : [ 404.5, 179.0, 197.5, 179.0 ]
				}

			}
, 			{
				"patchline" : 				{
					"source" : [ "obj-1", 0 ],
					"destination" : [ "obj-8", 0 ],
					"hidden" : 1,
					"midpoints" : [ 37.5, 249.0, 134.5, 249.0 ]
				}

			}
, 			{
				"patchline" : 				{
					"source" : [ "obj-2", 0 ],
					"destination" : [ "obj-1", 0 ],
					"hidden" : 1,
					"midpoints" : [  ]
				}

			}
, 			{
				"patchline" : 				{
					"source" : [ "obj-33", 0 ],
					"destination" : [ "obj-2", 0 ],
					"hidden" : 1,
					"midpoints" : [ 10.5, 161.0, 37.5, 161.0 ]
				}

			}
, 			{
				"patchline" : 				{
					"source" : [ "obj-11", 0 ],
					"destination" : [ "obj-12", 0 ],
					"hidden" : 1,
					"midpoints" : [  ]
				}

			}
, 			{
				"patchline" : 				{
					"source" : [ "obj-12", 0 ],
					"destination" : [ "obj-11", 0 ],
					"hidden" : 1,
					"midpoints" : [ 35.5, 590.0, 20.0, 590.0, 20.0, 524.0, 35.5, 524.0 ]
				}

			}
, 			{
				"patchline" : 				{
					"source" : [ "obj-15", 0 ],
					"destination" : [ "obj-16", 0 ],
					"hidden" : 1,
					"midpoints" : [  ]
				}

			}
, 			{
				"patchline" : 				{
					"source" : [ "obj-16", 0 ],
					"destination" : [ "obj-15", 0 ],
					"hidden" : 1,
					"midpoints" : [ 34.5, 510.0, 19.0, 510.0, 19.0, 444.0, 34.5, 444.0 ]
				}

			}
, 			{
				"patchline" : 				{
					"source" : [ "obj-23", 0 ],
					"destination" : [ "obj-25", 0 ],
					"hidden" : 1,
					"midpoints" : [  ]
				}

			}
, 			{
				"patchline" : 				{
					"source" : [ "obj-8", 1 ],
					"destination" : [ "obj-25", 0 ],
					"hidden" : 1,
					"midpoints" : [ 218.5, 387.0, 33.5, 387.0 ]
				}

			}
, 			{
				"patchline" : 				{
					"source" : [ "obj-25", 0 ],
					"destination" : [ "obj-23", 0 ],
					"hidden" : 1,
					"midpoints" : [ 33.5, 431.0, 18.0, 431.0, 18.0, 361.0, 33.5, 361.0 ]
				}

			}
, 			{
				"patchline" : 				{
					"source" : [ "obj-27", 0 ],
					"destination" : [ "obj-26", 0 ],
					"hidden" : 1,
					"midpoints" : [  ]
				}

			}
, 			{
				"patchline" : 				{
					"source" : [ "obj-8", 0 ],
					"destination" : [ "obj-26", 0 ],
					"hidden" : 1,
					"midpoints" : [ 134.5, 308.0, 33.5, 308.0 ]
				}

			}
, 			{
				"patchline" : 				{
					"source" : [ "obj-26", 0 ],
					"destination" : [ "obj-27", 0 ],
					"hidden" : 1,
					"midpoints" : [ 33.5, 347.0, 19.0, 347.0, 19.0, 284.0, 33.5, 284.0 ]
				}

			}
, 			{
				"patchline" : 				{
					"source" : [ "obj-33", 0 ],
					"destination" : [ "obj-34", 0 ],
					"hidden" : 1,
					"midpoints" : [  ]
				}

			}
, 			{
				"patchline" : 				{
					"source" : [ "obj-35", 0 ],
					"destination" : [ "obj-33", 0 ],
					"hidden" : 1,
					"midpoints" : [  ]
				}

			}
, 			{
				"patchline" : 				{
					"source" : [ "obj-24", 0 ],
					"destination" : [ "obj-33", 0 ],
					"hidden" : 1,
					"midpoints" : [ 108.5, 105.0, 10.5, 105.0 ]
				}

			}
 ]
	}

}
