max v2;
#N vpatcher 87 103 658 526;
#P window setfont Verdana 9.;
#P comment 114 342 73 472055817 these two can have an optional argument;
#P message 34 368 80 472055817 save_settings;
#P message 24 348 76 472055817 load_settings;
#P message 14 313 91 472055817 restore_defaults;
#P comment 12 282 141 472055817 standard messages for all modules;
#P user panel 9 277 179 124;
#X brgb 191 191 191;
#X frgb 0 0 0;
#X border 1;
#X rounded 0;
#X shadow 0;
#X done;
#P number 55 111 35 9 0 0 0 7203 0 0 0 221 221 221 222 222 222 0 0 0;
#P message 55 128 36 472055817 sr \$1;
#P toggle 55 153 15 0;
#P message 55 171 98 472055817 defeat_meters \$1;
#P comment 106 35 75 472055817 standardized audio attributes;
#P message 122 213 62 472055817 bypass \$1;
#P toggle 122 194 15 0;
#P message 60 213 51 472055817 mute \$1;
#P toggle 60 194 15 0;
#P flonum 41 72 35 9 0 0 0 7203 0 0 0 221 221 221 222 222 222 0 0 0;
#P message 74 44 27 472055817 -48;
#P message 43 44 22 472055817 12;
#P message 21 44 15 472055817 0;
#P message 41 90 78 472055817 gain \$1 5000;
#P flonum 298 177 35 9 0 0 0 7203 0 0 0 221 221 221 222 222 222 0 0 0;
#P message 298 194 64 472055817 sr-ratio \$1;
#P number 225 177 35 9 0 0 0 7203 0 0 0 221 221 221 222 222 222 0 0 0;
#P message 225 194 66 472055817 bitdepth \$1;
#P user ezdac~ 365 355 409 388 0;
#P message 480 187 33 472055817 open;
#P message 433 187 46 472055817 loop \$1;
#P toggle 433 170 15 0;
#P toggle 421 152 15 0;
#N sfplay~  2 120960 0 ;
#P newobj 421 210 56 472055817 sfplay~ 2;
#P newex 472 290 79 472055817 send jmod.init;
#P newex 472 268 54 472055817 loadbang;
#P bpatcher 198 254 256 61 0 0 jmod.degrade~.mod 0;
#P objectname degrade.mod;
#P comment 239 146 100 472055817 module specific attributes;
#P user panel 215 138 162 80;
#X brgb 191 191 191;
#X frgb 0 0 0;
#X border 1;
#X rounded 0;
#X shadow 0;
#X done;
#P comment 94 112 84 472055817 0 = global \, -1 = half \, etc.;
#P user panel 9 26 179 238;
#X brgb 191 191 191;
#X frgb 0 0 0;
#X border 1;
#X rounded 0;
#X shadow 0;
#X done;
#P connect 20 0 21 0;
#P connect 19 0 21 0;
#P connect 18 0 21 0;
#P connect 21 0 17 0;
#P connect 30 0 29 0;
#P connect 28 0 27 0;
#P connect 22 0 23 0;
#P connect 24 0 25 0;
#P fasten 35 0 4 0 39 406 189 406 189 243 203 243;
#P fasten 34 0 4 0 29 409 192 409 192 246 203 246;
#P fasten 33 0 4 0 19 412 195 412 195 249 203 249;
#P fasten 29 0 4 0 60 146 203 146;
#P fasten 27 0 4 0 60 188 203 188;
#P fasten 25 0 4 0 127 234 203 234;
#P fasten 23 0 4 0 65 237 203 237;
#P fasten 17 0 4 0 46 240 203 240;
#P connect 15 0 4 0;
#P connect 13 0 4 0;
#P connect 14 0 13 0;
#P connect 16 0 15 0;
#P connect 7 0 4 1;
#P connect 4 1 12 0;
#P connect 4 2 12 1;
#P fasten 11 0 7 0 485 207 426 207;
#P fasten 10 0 7 0 438 205 426 205;
#P connect 8 0 7 0;
#P connect 9 0 10 0;
#P connect 7 1 4 2;
#P connect 5 0 6 0;
#P pop;
