max v2;
#N vpatcher 116 231 847 791;
#P window setfont "Sans Serif" 9.;
#P message 6 133 82 196617 gain_m -6 3000;
#P comment 6 116 206 196617 Ramp to new value;
#P message 243 212 60 196617 gain_2_dec;
#P message 307 212 58 196617 gain_2_inc;
#P message 148 212 79 196617 gain_2_midi \$1;
#P number 111 212 35 9 0 0 0 3 0 0 0 221 221 221 222 222 222 0 0 0;
#P message 41 212 54 196617 gain_2 \$1;
#P number 4 212 35 9 0 0 0 3 0 0 0 221 221 221 222 222 222 0 0 0;
#P message 243 191 60 196617 gain_1_dec;
#P message 307 191 58 196617 gain_1_inc;
#P message 148 191 79 196617 gain_1_midi \$1;
#P number 111 191 35 9 0 0 0 3 0 0 0 221 221 221 222 222 222 0 0 0;
#P message 41 191 54 196617 gain_1 \$1;
#P number 4 191 35 9 0 0 0 3 0 0 0 221 221 221 222 222 222 0 0 0;
#P window setfont "Sans Serif" 12.;
#P comment 4 165 215 196620 Channel gains;
#P hidden outlet 403 389 15 0;
#P window setfont "Sans Serif" 9.;
#P comment 244 59 118 196617 Increase/decrease by one MIDI unit;
#P message 245 88 62 196617 gain_m_dec;
#P message 309 88 60 196617 gain_m_inc;
#P message 113 132 108 196617 gain_m_midi 0 10000;
#P message 150 88 81 196617 gain_m_midi \$1;
#P number 113 88 35 9 0 0 0 3 0 0 0 221 221 221 222 222 222 0 0 0;
#P comment 112 59 115 196617 Set gain in midi units;
#P message 43 88 55 196617 gain_m \$1;
#P number 6 88 35 9 0 0 0 3 0 0 0 221 221 221 222 222 222 0 0 0;
#P window setfont "Sans Serif" 18.;
#P comment 3 1 148 196626 Gain Controls;
#P window setfont "Sans Serif" 9.;
#P comment 6 59 75 196617 Set gain in dB;
#P window setfont "Sans Serif" 12.;
#P comment 3 31 112 196620 Master gain;
#P user panel 0 0 373 27;
#X brgb 205 201 228;
#X frgb 0 0 0;
#X border 0;
#X rounded 0;
#X shadow 0;
#X done;
#P background;
#P user panel 0 31 373 124;
#X brgb 205 201 228;
#X frgb 0 0 0;
#X border 0;
#X rounded 0;
#X shadow 0;
#X done;
#P background;
#P user panel 0 159 373 308;
#X brgb 205 201 228;
#X frgb 0 0 0;
#X border 0;
#X rounded 0;
#X shadow 0;
#X done;
#P background;
#P hidden connect 17 0 18 0;
#P hidden connect 23 0 24 0;
#P hidden connect 6 0 7 0;
#P hidden connect 19 0 20 0;
#P hidden connect 25 0 26 0;
#P hidden connect 9 0 10 0;
#P hidden connect 18 0 15 0;
#P hidden connect 24 0 15 0;
#P hidden connect 20 0 15 0;
#P hidden connect 26 0 15 0;
#P hidden connect 21 0 15 0;
#P hidden connect 22 0 15 0;
#P hidden connect 27 0 15 0;
#P hidden connect 28 0 15 0;
#P hidden connect 7 0 15 0;
#P hidden connect 10 0 15 0;
#P hidden connect 11 0 15 0;
#P hidden connect 12 0 15 0;
#P hidden connect 13 0 15 0;
#P hidden connect 30 0 15 0;
#P pop;
