{
	"patcher" : 	{
		"rect" : [ 55.0, 51.0, 769.0, 656.0 ],
		"bgcolor" : [ 1.0, 1.0, 1.0, 1.0 ],
		"bglocked" : 0,
		"defrect" : [ 55.0, 51.0, 769.0, 656.0 ],
		"openinpresentation" : 0,
		"default_fontsize" : 10.0,
		"default_fontface" : 0,
		"default_fontname" : "Verdana",
		"gridonopen" : 0,
		"gridsize" : [ 15.0, 15.0 ],
		"gridsnaponopen" : 0,
		"toolbarvisible" : 1,
		"boxfadetime" : 200,
		"boxanimatetime" : 200,
		"scrollanimatetime" : 200,
		"metadata" : [  ],
		"boxes" : [ 			{
				"box" : 				{
					"maxclass" : "newobj",
					"text" : "s jmod.echo.cmd",
					"hidden" : 1,
					"patching_rect" : [ 658.0, 513.0, 99.0, 17.0 ],
					"fontname" : "Verdana",
					"id" : "obj-1",
					"numinlets" : 1,
					"numoutlets" : 0,
					"fontsize" : 9.0
				}

			}
, 			{
				"box" : 				{
					"maxclass" : "bpatcher",
					"outlettype" : [ "" ],
					"patching_rect" : [ 387.0, 509.0, 374.0, 143.0 ],
					"args" : [ "\/left" ],
					"id" : "obj-2",
					"numinlets" : 0,
					"numoutlets" : 1,
					"name" : "jmod.attr_params.maxpat"
				}

			}
, 			{
				"box" : 				{
					"maxclass" : "newobj",
					"text" : "s jmod.echo.cmd",
					"hidden" : 1,
					"patching_rect" : [ 263.0, 314.0, 99.0, 17.0 ],
					"fontname" : "Verdana",
					"id" : "obj-3",
					"numinlets" : 1,
					"numoutlets" : 0,
					"fontsize" : 9.0
				}

			}
, 			{
				"box" : 				{
					"maxclass" : "bpatcher",
					"outlettype" : [ "" ],
					"patching_rect" : [ 4.0, 305.0, 374.0, 347.0 ],
					"args" : [ "jmod.echo~" ],
					"id" : "obj-4",
					"numinlets" : 0,
					"numoutlets" : 1,
					"name" : "jmod.preset_params.maxpat"
				}

			}
, 			{
				"box" : 				{
					"maxclass" : "newobj",
					"text" : "s jmod.echo.cmd",
					"hidden" : 1,
					"patching_rect" : [ 268.0, 83.0, 99.0, 17.0 ],
					"fontname" : "Verdana",
					"id" : "obj-5",
					"numinlets" : 1,
					"numoutlets" : 0,
					"fontsize" : 9.0
				}

			}
, 			{
				"box" : 				{
					"maxclass" : "bpatcher",
					"outlettype" : [ "" ],
					"patching_rect" : [ 4.0, 76.0, 374.0, 221.0 ],
					"args" : [  ],
					"id" : "obj-6",
					"numinlets" : 0,
					"numoutlets" : 1,
					"name" : "jmod.gain_params.maxpat"
				}

			}
, 			{
				"box" : 				{
					"maxclass" : "number",
					"outlettype" : [ "int", "bang" ],
					"htextcolor" : [ 0.870588, 0.870588, 0.870588, 1.0 ],
					"patching_rect" : [ 393.0, 400.0, 35.0, 17.0 ],
					"fontname" : "Verdana",
					"maximum" : 10000,
					"id" : "obj-7",
					"numinlets" : 1,
					"triscale" : 0.9,
					"minimum" : 0,
					"numoutlets" : 2,
					"fontsize" : 9.0,
					"bgcolor" : [ 0.866667, 0.866667, 0.866667, 1.0 ]
				}

			}
, 			{
				"box" : 				{
					"maxclass" : "number",
					"outlettype" : [ "int", "bang" ],
					"htextcolor" : [ 0.870588, 0.870588, 0.870588, 1.0 ],
					"patching_rect" : [ 393.0, 382.0, 35.0, 17.0 ],
					"fontname" : "Verdana",
					"maximum" : 10000,
					"id" : "obj-8",
					"numinlets" : 1,
					"triscale" : 0.9,
					"minimum" : 0,
					"numoutlets" : 2,
					"fontsize" : 9.0,
					"bgcolor" : [ 0.866667, 0.866667, 0.866667, 1.0 ]
				}

			}
, 			{
				"box" : 				{
					"maxclass" : "message",
					"text" : "\/feedback 0.7 ramp 5000",
					"outlettype" : [ "" ],
					"patching_rect" : [ 565.0, 402.0, 126.0, 15.0 ],
					"fontname" : "Verdana",
					"id" : "obj-9",
					"numinlets" : 2,
					"numoutlets" : 1,
					"fontsize" : 9.0
				}

			}
, 			{
				"box" : 				{
					"maxclass" : "message",
					"text" : "\/feedback $1",
					"outlettype" : [ "" ],
					"patching_rect" : [ 602.0, 384.0, 70.0, 15.0 ],
					"fontname" : "Verdana",
					"id" : "obj-10",
					"numinlets" : 2,
					"numoutlets" : 1,
					"fontsize" : 9.0
				}

			}
, 			{
				"box" : 				{
					"maxclass" : "flonum",
					"outlettype" : [ "float", "bang" ],
					"htextcolor" : [ 0.870588, 0.870588, 0.870588, 1.0 ],
					"patching_rect" : [ 565.0, 384.0, 35.0, 17.0 ],
					"fontname" : "Verdana",
					"id" : "obj-11",
					"numinlets" : 1,
					"triscale" : 0.9,
					"numoutlets" : 2,
					"fontsize" : 9.0,
					"bgcolor" : [ 0.866667, 0.866667, 0.866667, 1.0 ]
				}

			}
, 			{
				"box" : 				{
					"maxclass" : "message",
					"text" : "\/right $1",
					"outlettype" : [ "" ],
					"patching_rect" : [ 430.0, 399.0, 53.0, 15.0 ],
					"fontname" : "Verdana",
					"id" : "obj-12",
					"numinlets" : 2,
					"numoutlets" : 1,
					"fontsize" : 9.0
				}

			}
, 			{
				"box" : 				{
					"maxclass" : "message",
					"text" : "\/left $1",
					"outlettype" : [ "" ],
					"patching_rect" : [ 430.0, 382.0, 47.0, 15.0 ],
					"fontname" : "Verdana",
					"id" : "obj-13",
					"numinlets" : 2,
					"numoutlets" : 1,
					"fontsize" : 9.0
				}

			}
, 			{
				"box" : 				{
					"maxclass" : "comment",
					"text" : "jmod.echo~",
					"patching_rect" : [ 9.0, 19.0, 189.0, 28.0 ],
					"frgb" : [ 1.0, 1.0, 1.0, 1.0 ],
					"fontname" : "Verdana",
					"id" : "obj-14",
					"numinlets" : 1,
					"textcolor" : [ 1.0, 1.0, 1.0, 1.0 ],
					"numoutlets" : 0,
					"fontsize" : 15.799999
				}

			}
, 			{
				"box" : 				{
					"maxclass" : "comment",
					"text" : "stereo echo module",
					"patching_rect" : [ 10.0, 45.0, 242.0, 17.0 ],
					"frgb" : [ 1.0, 1.0, 1.0, 1.0 ],
					"fontname" : "Verdana",
					"id" : "obj-15",
					"numinlets" : 1,
					"textcolor" : [ 1.0, 1.0, 1.0, 1.0 ],
					"numoutlets" : 0,
					"fontsize" : 9.0
				}

			}
, 			{
				"box" : 				{
					"maxclass" : "panel",
					"rounded" : 0,
					"bordercolor" : [ 0.501961, 0.043137, 0.039216, 1.0 ],
					"patching_rect" : [ 3.0, 3.0, 374.0, 68.0 ],
					"id" : "obj-16",
					"numinlets" : 1,
					"numoutlets" : 0,
					"bgcolor" : [ 0.262745, 0.254902, 0.419608, 1.0 ]
				}

			}
, 			{
				"box" : 				{
					"maxclass" : "umenu",
					"labelclick" : 1,
					"outlettype" : [ "int", "", "" ],
					"types" : [  ],
					"patching_rect" : [ 393.0, 419.0, 74.0, 17.0 ],
					"fontname" : "Verdana",
					"id" : "obj-17",
					"numinlets" : 1,
					"numoutlets" : 3,
					"items" : [ "lowpass", ",", "highpass", ",", "bandpass", ",", "bandstop", ",", "peaknotch", ",", "lowshelf", ",", "highshelf" ],
					"fontsize" : 9.0
				}

			}
, 			{
				"box" : 				{
					"maxclass" : "newobj",
					"text" : "prepend \/filtertype",
					"outlettype" : [ "" ],
					"hidden" : 1,
					"patching_rect" : [ 466.0, 419.0, 98.0, 17.0 ],
					"fontname" : "Verdana",
					"id" : "obj-18",
					"numinlets" : 1,
					"numoutlets" : 1,
					"fontsize" : 9.0
				}

			}
, 			{
				"box" : 				{
					"maxclass" : "message",
					"text" : "\/q 10 ramp 5000",
					"outlettype" : [ "" ],
					"patching_rect" : [ 565.0, 479.0, 89.0, 15.0 ],
					"fontname" : "Verdana",
					"id" : "obj-19",
					"numinlets" : 2,
					"numoutlets" : 1,
					"fontsize" : 9.0
				}

			}
, 			{
				"box" : 				{
					"maxclass" : "message",
					"text" : "\/q $1",
					"outlettype" : [ "" ],
					"patching_rect" : [ 430.0, 476.0, 36.0, 15.0 ],
					"fontname" : "Verdana",
					"id" : "obj-20",
					"numinlets" : 2,
					"numoutlets" : 1,
					"fontsize" : 9.0
				}

			}
, 			{
				"box" : 				{
					"maxclass" : "flonum",
					"outlettype" : [ "float", "bang" ],
					"htextcolor" : [ 0.870588, 0.870588, 0.870588, 1.0 ],
					"patching_rect" : [ 393.0, 476.0, 35.0, 17.0 ],
					"fontname" : "Verdana",
					"id" : "obj-21",
					"numinlets" : 1,
					"triscale" : 0.9,
					"numoutlets" : 2,
					"fontsize" : 9.0,
					"bgcolor" : [ 0.866667, 0.866667, 0.866667, 1.0 ]
				}

			}
, 			{
				"box" : 				{
					"maxclass" : "message",
					"text" : "\/filtergain $1",
					"outlettype" : [ "" ],
					"patching_rect" : [ 430.0, 458.0, 73.0, 15.0 ],
					"fontname" : "Verdana",
					"id" : "obj-22",
					"numinlets" : 2,
					"numoutlets" : 1,
					"fontsize" : 9.0
				}

			}
, 			{
				"box" : 				{
					"maxclass" : "flonum",
					"outlettype" : [ "float", "bang" ],
					"htextcolor" : [ 0.870588, 0.870588, 0.870588, 1.0 ],
					"patching_rect" : [ 393.0, 458.0, 35.0, 17.0 ],
					"fontname" : "Verdana",
					"id" : "obj-23",
					"numinlets" : 1,
					"triscale" : 0.9,
					"numoutlets" : 2,
					"fontsize" : 9.0,
					"bgcolor" : [ 0.866667, 0.866667, 0.866667, 1.0 ]
				}

			}
, 			{
				"box" : 				{
					"maxclass" : "message",
					"text" : "\/filtergain 0.2 ramp 5000",
					"outlettype" : [ "" ],
					"patching_rect" : [ 565.0, 461.0, 129.0, 15.0 ],
					"fontname" : "Verdana",
					"id" : "obj-24",
					"numinlets" : 2,
					"numoutlets" : 1,
					"fontsize" : 9.0
				}

			}
, 			{
				"box" : 				{
					"maxclass" : "newobj",
					"text" : "s jmod.echo.cmd",
					"hidden" : 1,
					"patching_rect" : [ 650.0, 350.0, 84.0, 17.0 ],
					"fontname" : "Verdana",
					"id" : "obj-25",
					"numinlets" : 1,
					"numoutlets" : 0,
					"fontsize" : 9.0
				}

			}
, 			{
				"box" : 				{
					"maxclass" : "newobj",
					"text" : "r jmod.echo.cmd",
					"outlettype" : [ "" ],
					"patching_rect" : [ 457.0, 207.0, 84.0, 17.0 ],
					"fontname" : "Verdana",
					"id" : "obj-26",
					"numinlets" : 0,
					"numoutlets" : 1,
					"fontsize" : 9.0
				}

			}
, 			{
				"box" : 				{
					"maxclass" : "message",
					"text" : "\/cf 5000 ramp 5000",
					"outlettype" : [ "" ],
					"patching_rect" : [ 565.0, 443.0, 105.0, 15.0 ],
					"fontname" : "Verdana",
					"id" : "obj-27",
					"numinlets" : 2,
					"numoutlets" : 1,
					"fontsize" : 9.0
				}

			}
, 			{
				"box" : 				{
					"maxclass" : "comment",
					"text" : "Module specific attributes",
					"patching_rect" : [ 392.0, 347.0, 236.0, 28.0 ],
					"fontname" : "Verdana",
					"id" : "obj-28",
					"numinlets" : 1,
					"numoutlets" : 0,
					"fontsize" : 15.799999
				}

			}
, 			{
				"box" : 				{
					"maxclass" : "panel",
					"rounded" : 0,
					"patching_rect" : [ 388.0, 345.0, 373.0, 27.0 ],
					"id" : "obj-29",
					"numinlets" : 1,
					"numoutlets" : 0,
					"bgcolor" : [ 0.596078, 0.596078, 0.701961, 1.0 ]
				}

			}
, 			{
				"box" : 				{
					"maxclass" : "newobj",
					"text" : "loadmess set",
					"outlettype" : [ "" ],
					"hidden" : 1,
					"patching_rect" : [ 522.0, 300.0, 65.0, 17.0 ],
					"fontname" : "Verdana",
					"id" : "obj-30",
					"numinlets" : 1,
					"numoutlets" : 1,
					"fontsize" : 9.0
				}

			}
, 			{
				"box" : 				{
					"maxclass" : "newobj",
					"text" : "dac~ 1 2",
					"patching_rect" : [ 598.0, 302.0, 160.0, 17.0 ],
					"fontname" : "Verdana",
					"id" : "obj-31",
					"numinlets" : 2,
					"numoutlets" : 0,
					"fontsize" : 9.0
				}

			}
, 			{
				"box" : 				{
					"maxclass" : "message",
					"outlettype" : [ "" ],
					"patching_rect" : [ 457.0, 323.0, 95.0, 15.0 ],
					"fontname" : "Verdana",
					"id" : "obj-32",
					"numinlets" : 2,
					"numoutlets" : 1,
					"fontsize" : 9.0
				}

			}
, 			{
				"box" : 				{
					"maxclass" : "newobj",
					"text" : "prepend set",
					"outlettype" : [ "" ],
					"patching_rect" : [ 457.0, 300.0, 61.0, 17.0 ],
					"fontname" : "Verdana",
					"id" : "obj-33",
					"numinlets" : 1,
					"numoutlets" : 1,
					"fontsize" : 9.0
				}

			}
, 			{
				"box" : 				{
					"maxclass" : "bpatcher",
					"varname" : "jmod.control",
					"outlettype" : [ "" ],
					"patching_rect" : [ 456.0, 3.0, 301.0, 71.0 ],
					"args" : [ "\/control" ],
					"id" : "obj-34",
					"numinlets" : 1,
					"numoutlets" : 1,
					"name" : "jmod.control.maxpat"
				}

			}
, 			{
				"box" : 				{
					"maxclass" : "bpatcher",
					"varname" : "\/input~",
					"outlettype" : [ "", "", "" ],
					"patching_rect" : [ 457.0, 79.0, 301.0, 141.0 ],
					"args" : [ "\/input~" ],
					"id" : "obj-35",
					"numinlets" : 1,
					"numoutlets" : 3,
					"name" : "jmod.input~.maxpat"
				}

			}
, 			{
				"box" : 				{
					"maxclass" : "bpatcher",
					"varname" : "\/echo~",
					"outlettype" : [ "", "", "" ],
					"patching_rect" : [ 457.0, 226.0, 301.0, 71.0 ],
					"args" : [ "\/echo" ],
					"id" : "obj-36",
					"numinlets" : 3,
					"numoutlets" : 3,
					"name" : "jmod.echo~.maxpat"
				}

			}
, 			{
				"box" : 				{
					"maxclass" : "message",
					"text" : "\/cf $1",
					"outlettype" : [ "" ],
					"patching_rect" : [ 430.0, 440.0, 40.0, 15.0 ],
					"fontname" : "Verdana",
					"id" : "obj-37",
					"numinlets" : 2,
					"numoutlets" : 1,
					"fontsize" : 9.0
				}

			}
, 			{
				"box" : 				{
					"maxclass" : "flonum",
					"outlettype" : [ "float", "bang" ],
					"htextcolor" : [ 0.870588, 0.870588, 0.870588, 1.0 ],
					"patching_rect" : [ 393.0, 440.0, 35.0, 17.0 ],
					"fontname" : "Verdana",
					"id" : "obj-38",
					"numinlets" : 1,
					"triscale" : 0.9,
					"numoutlets" : 2,
					"fontsize" : 9.0,
					"bgcolor" : [ 0.866667, 0.866667, 0.866667, 1.0 ]
				}

			}
, 			{
				"box" : 				{
					"maxclass" : "panel",
					"rounded" : 0,
					"patching_rect" : [ 388.0, 376.0, 373.0, 130.0 ],
					"id" : "obj-39",
					"numinlets" : 1,
					"numoutlets" : 0,
					"bgcolor" : [ 0.780392, 0.780392, 0.839216, 1.0 ]
				}

			}
 ],
		"lines" : [ 			{
				"patchline" : 				{
					"source" : [ "obj-4", 0 ],
					"destination" : [ "obj-3", 0 ],
					"hidden" : 1
				}

			}
, 			{
				"patchline" : 				{
					"source" : [ "obj-6", 0 ],
					"destination" : [ "obj-5", 0 ],
					"hidden" : 1
				}

			}
, 			{
				"patchline" : 				{
					"source" : [ "obj-8", 0 ],
					"destination" : [ "obj-13", 0 ],
					"hidden" : 1
				}

			}
, 			{
				"patchline" : 				{
					"source" : [ "obj-7", 0 ],
					"destination" : [ "obj-12", 0 ],
					"hidden" : 1
				}

			}
, 			{
				"patchline" : 				{
					"source" : [ "obj-38", 0 ],
					"destination" : [ "obj-37", 0 ],
					"hidden" : 1
				}

			}
, 			{
				"patchline" : 				{
					"source" : [ "obj-23", 0 ],
					"destination" : [ "obj-22", 0 ],
					"hidden" : 1
				}

			}
, 			{
				"patchline" : 				{
					"source" : [ "obj-21", 0 ],
					"destination" : [ "obj-20", 0 ],
					"hidden" : 1
				}

			}
, 			{
				"patchline" : 				{
					"source" : [ "obj-26", 0 ],
					"destination" : [ "obj-36", 0 ],
					"hidden" : 0
				}

			}
, 			{
				"patchline" : 				{
					"source" : [ "obj-36", 0 ],
					"destination" : [ "obj-33", 0 ],
					"hidden" : 0
				}

			}
, 			{
				"patchline" : 				{
					"source" : [ "obj-30", 0 ],
					"destination" : [ "obj-32", 0 ],
					"hidden" : 1,
					"midpoints" : [ 531.5, 320.0, 466.5, 320.0 ]
				}

			}
, 			{
				"patchline" : 				{
					"source" : [ "obj-33", 0 ],
					"destination" : [ "obj-32", 0 ],
					"hidden" : 0
				}

			}
, 			{
				"patchline" : 				{
					"source" : [ "obj-17", 1 ],
					"destination" : [ "obj-18", 0 ],
					"hidden" : 1
				}

			}
, 			{
				"patchline" : 				{
					"source" : [ "obj-35", 1 ],
					"destination" : [ "obj-36", 1 ],
					"hidden" : 0
				}

			}
, 			{
				"patchline" : 				{
					"source" : [ "obj-36", 1 ],
					"destination" : [ "obj-31", 0 ],
					"hidden" : 0
				}

			}
, 			{
				"patchline" : 				{
					"source" : [ "obj-11", 0 ],
					"destination" : [ "obj-10", 0 ],
					"hidden" : 1
				}

			}
, 			{
				"patchline" : 				{
					"source" : [ "obj-9", 0 ],
					"destination" : [ "obj-25", 0 ],
					"hidden" : 1
				}

			}
, 			{
				"patchline" : 				{
					"source" : [ "obj-13", 0 ],
					"destination" : [ "obj-25", 0 ],
					"hidden" : 1
				}

			}
, 			{
				"patchline" : 				{
					"source" : [ "obj-12", 0 ],
					"destination" : [ "obj-25", 0 ],
					"hidden" : 1
				}

			}
, 			{
				"patchline" : 				{
					"source" : [ "obj-10", 0 ],
					"destination" : [ "obj-25", 0 ],
					"hidden" : 1
				}

			}
, 			{
				"patchline" : 				{
					"source" : [ "obj-27", 0 ],
					"destination" : [ "obj-25", 0 ],
					"hidden" : 1
				}

			}
, 			{
				"patchline" : 				{
					"source" : [ "obj-24", 0 ],
					"destination" : [ "obj-25", 0 ],
					"hidden" : 1
				}

			}
, 			{
				"patchline" : 				{
					"source" : [ "obj-37", 0 ],
					"destination" : [ "obj-25", 0 ],
					"hidden" : 1
				}

			}
, 			{
				"patchline" : 				{
					"source" : [ "obj-22", 0 ],
					"destination" : [ "obj-25", 0 ],
					"hidden" : 1
				}

			}
, 			{
				"patchline" : 				{
					"source" : [ "obj-20", 0 ],
					"destination" : [ "obj-25", 0 ],
					"hidden" : 1
				}

			}
, 			{
				"patchline" : 				{
					"source" : [ "obj-19", 0 ],
					"destination" : [ "obj-25", 0 ],
					"hidden" : 1
				}

			}
, 			{
				"patchline" : 				{
					"source" : [ "obj-18", 0 ],
					"destination" : [ "obj-25", 0 ],
					"hidden" : 1
				}

			}
, 			{
				"patchline" : 				{
					"source" : [ "obj-2", 0 ],
					"destination" : [ "obj-1", 0 ],
					"hidden" : 1
				}

			}
, 			{
				"patchline" : 				{
					"source" : [ "obj-35", 2 ],
					"destination" : [ "obj-36", 2 ],
					"hidden" : 0
				}

			}
, 			{
				"patchline" : 				{
					"source" : [ "obj-36", 2 ],
					"destination" : [ "obj-31", 1 ],
					"hidden" : 0
				}

			}
 ]
	}

}
