{
	"patcher" : 	{
		"rect" : [ 31.0, 58.0, 913.0, 698.0 ],
		"bgcolor" : [ 1.0, 1.0, 1.0, 1.0 ],
		"bglocked" : 0,
		"defrect" : [ 31.0, 58.0, 913.0, 698.0 ],
		"openinpresentation" : 0,
		"default_fontsize" : 10.0,
		"default_fontface" : 0,
		"default_fontname" : "Verdana",
		"gridonopen" : 0,
		"gridsize" : [ 15.0, 15.0 ],
		"gridsnaponopen" : 0,
		"toolbarvisible" : 1,
		"boxfadetime" : 200,
		"boxanimatetime" : 200,
		"scrollanimatetime" : 200,
		"metadata" : [  ],
		"boxes" : [ 			{
				"box" : 				{
					"maxclass" : "newobj",
					"text" : "pcontrol",
					"outlettype" : [ "" ],
					"hidden" : 1,
					"patching_rect" : [ 351.0, 412.0, 47.0, 17.0 ],
					"fontname" : "Verdana",
					"id" : "obj-1",
					"numinlets" : 1,
					"numoutlets" : 1,
					"fontsize" : 9.0
				}

			}
, 			{
				"box" : 				{
					"maxclass" : "newobj",
					"text" : "jcom.algorithm_control~.maxpat",
					"outlettype" : [ "", "" ],
					"hidden" : 1,
					"patching_rect" : [ 218.0, 388.0, 143.0, 17.0 ],
					"fontname" : "Verdana",
					"id" : "obj-2",
					"numinlets" : 1,
					"numoutlets" : 2,
					"fontsize" : 9.0
				}

			}
, 			{
				"box" : 				{
					"maxclass" : "newobj",
					"text" : "jalg.echo~.mxt",
					"outlettype" : [ "", "", "" ],
					"hidden" : 1,
					"patching_rect" : [ 38.0, 454.0, 82.0, 17.0 ],
					"fontname" : "Verdana",
					"id" : "obj-3",
					"numinlets" : 3,
					"numoutlets" : 3,
					"fontsize" : 9.0
				}

			}
, 			{
				"box" : 				{
					"maxclass" : "message",
					"text" : "\/preset\/recall 1",
					"outlettype" : [ "" ],
					"hidden" : 1,
					"patching_rect" : [ 187.0, 621.0, 86.0, 15.0 ],
					"fontname" : "Verdana",
					"id" : "obj-4",
					"numinlets" : 2,
					"numoutlets" : 1,
					"fontsize" : 9.0
				}

			}
, 			{
				"box" : 				{
					"maxclass" : "message",
					"text" : "\/preset\/post",
					"outlettype" : [ "" ],
					"hidden" : 1,
					"patching_rect" : [ 109.0, 621.0, 70.0, 15.0 ],
					"fontname" : "Verdana",
					"id" : "obj-5",
					"numinlets" : 2,
					"numoutlets" : 1,
					"fontsize" : 9.0
				}

			}
, 			{
				"box" : 				{
					"maxclass" : "newobj",
					"text" : "jcom.out~ 2",
					"outlettype" : [ "", "" ],
					"hidden" : 1,
					"patching_rect" : [ 74.0, 484.0, 82.0, 17.0 ],
					"fontname" : "Verdana",
					"id" : "obj-6",
					"numinlets" : 2,
					"numoutlets" : 2,
					"fontsize" : 9.0
				}

			}
, 			{
				"box" : 				{
					"maxclass" : "newobj",
					"text" : "jcom.in~ 2",
					"outlettype" : [ "", "", "" ],
					"hidden" : 1,
					"patching_rect" : [ 74.0, 365.0, 228.0, 17.0 ],
					"fontname" : "Verdana",
					"id" : "obj-7",
					"numinlets" : 2,
					"numoutlets" : 3,
					"fontsize" : 9.0
				}

			}
, 			{
				"box" : 				{
					"maxclass" : "message",
					"text" : "\/documentation\/generate",
					"outlettype" : [ "" ],
					"hidden" : 1,
					"patching_rect" : [ 119.0, 574.0, 125.0, 15.0 ],
					"fontname" : "Verdana",
					"id" : "obj-8",
					"numinlets" : 2,
					"numoutlets" : 1,
					"fontsize" : 9.0
				}

			}
, 			{
				"box" : 				{
					"maxclass" : "flonum",
					"varname" : "Feedback",
					"outlettype" : [ "float", "bang" ],
					"htextcolor" : [ 0.870588, 0.870588, 0.870588, 1.0 ],
					"patching_rect" : [ 53.0, 44.0, 40.0, 17.0 ],
					"transparent" : 1,
					"triangle" : 0,
					"fontname" : "Verdana",
					"maximum" : 1.0,
					"id" : "obj-9",
					"numinlets" : 1,
					"triscale" : 0.9,
					"minimum" : 0.0,
					"textcolor" : [ 0.776471, 0.776471, 0.776471, 1.0 ],
					"numoutlets" : 2,
					"fontsize" : 9.0,
					"bgcolor" : [ 0.866667, 0.866667, 0.866667, 1.0 ]
				}

			}
, 			{
				"box" : 				{
					"maxclass" : "number",
					"varname" : "Right",
					"outlettype" : [ "int", "bang" ],
					"htextcolor" : [ 0.870588, 0.870588, 0.870588, 1.0 ],
					"patching_rect" : [ 53.0, 31.0, 41.0, 17.0 ],
					"transparent" : 1,
					"triangle" : 0,
					"fontname" : "Verdana",
					"maximum" : 10000,
					"id" : "obj-10",
					"numinlets" : 1,
					"triscale" : 0.9,
					"minimum" : 0,
					"textcolor" : [ 0.776471, 0.776471, 0.776471, 1.0 ],
					"numoutlets" : 2,
					"fontsize" : 9.0,
					"bgcolor" : [ 0.866667, 0.866667, 0.866667, 1.0 ]
				}

			}
, 			{
				"box" : 				{
					"maxclass" : "number",
					"varname" : "Left",
					"outlettype" : [ "int", "bang" ],
					"htextcolor" : [ 0.870588, 0.870588, 0.870588, 1.0 ],
					"patching_rect" : [ 53.0, 17.0, 41.0, 17.0 ],
					"transparent" : 1,
					"triangle" : 0,
					"fontname" : "Verdana",
					"maximum" : 10000,
					"id" : "obj-11",
					"numinlets" : 1,
					"triscale" : 0.9,
					"minimum" : 0,
					"textcolor" : [ 0.776471, 0.776471, 0.776471, 1.0 ],
					"numoutlets" : 2,
					"fontsize" : 9.0,
					"bgcolor" : [ 0.866667, 0.866667, 0.866667, 1.0 ]
				}

			}
, 			{
				"box" : 				{
					"maxclass" : "newobj",
					"text" : "pvar Feedback",
					"outlettype" : [ "" ],
					"hidden" : 1,
					"patching_rect" : [ 18.0, 241.0, 74.0, 17.0 ],
					"fontname" : "Verdana",
					"id" : "obj-12",
					"numinlets" : 1,
					"numoutlets" : 1,
					"fontsize" : 9.0
				}

			}
, 			{
				"box" : 				{
					"maxclass" : "newobj",
					"varname" : "feedback",
					"text" : "jcom.parameter feedback @type msg_float @ramp/drive scheduler @repetitions 0 @range/bounds 0. 1. @range/clipmode both @description \"Feedback.\"",
					"linecount" : 2,
					"outlettype" : [ "" ],
					"hidden" : 1,
					"patching_rect" : [ 18.0, 265.0, 333.0, 28.0 ],
					"fontname" : "Verdana",
					"id" : "obj-13",
					"numinlets" : 1,
					"numoutlets" : 1,
					"fontsize" : 9.0
				}

			}
, 			{
				"box" : 				{
					"maxclass" : "newobj",
					"text" : "pvar Right",
					"outlettype" : [ "" ],
					"hidden" : 1,
					"patching_rect" : [ 18.0, 161.0, 57.0, 17.0 ],
					"fontname" : "Verdana",
					"id" : "obj-14",
					"numinlets" : 1,
					"numoutlets" : 1,
					"fontsize" : 9.0
				}

			}
, 			{
				"box" : 				{
					"maxclass" : "newobj",
					"varname" : "right",
					"text" : "jcom.parameter right @type msg_int @ramp/drive scheduler @repetitions 0 @range/bounds 0 10000 @range/clipmode both @description \"Delay time in milliseconds for right channel.\"",
					"linecount" : 2,
					"outlettype" : [ "" ],
					"hidden" : 1,
					"patching_rect" : [ 18.0, 184.0, 392.0, 28.0 ],
					"fontname" : "Verdana",
					"id" : "obj-15",
					"numinlets" : 1,
					"numoutlets" : 1,
					"fontsize" : 9.0
				}

			}
, 			{
				"box" : 				{
					"maxclass" : "comment",
					"text" : "Feedback",
					"patching_rect" : [ 4.0, 46.0, 50.0, 17.0 ],
					"frgb" : [ 0.67451, 0.67451, 0.67451, 1.0 ],
					"fontname" : "Verdana",
					"id" : "obj-16",
					"numinlets" : 1,
					"textcolor" : [ 0.67451, 0.67451, 0.67451, 1.0 ],
					"numoutlets" : 0,
					"fontsize" : 9.0
				}

			}
, 			{
				"box" : 				{
					"maxclass" : "newobj",
					"text" : "t 1 s 0",
					"outlettype" : [ "int", "", "int" ],
					"hidden" : 1,
					"patching_rect" : [ 606.0, 160.0, 40.0, 17.0 ],
					"fontname" : "Verdana",
					"id" : "obj-17",
					"numinlets" : 1,
					"numoutlets" : 3,
					"fontsize" : 9.0
				}

			}
, 			{
				"box" : 				{
					"maxclass" : "newobj",
					"text" : "p DecodeFilterGraph",
					"outlettype" : [ "", "float", "" ],
					"hidden" : 1,
					"patching_rect" : [ 436.0, 226.0, 100.0, 17.0 ],
					"fontname" : "Verdana",
					"id" : "obj-18",
					"numinlets" : 4,
					"numoutlets" : 3,
					"fontsize" : 9.0,
					"patcher" : 					{
						"rect" : [ 564.0, 189.0, 486.0, 356.0 ],
						"bgcolor" : [ 1.0, 1.0, 1.0, 1.0 ],
						"bglocked" : 0,
						"defrect" : [ 564.0, 189.0, 486.0, 356.0 ],
						"openinpresentation" : 0,
						"default_fontsize" : 10.0,
						"default_fontface" : 0,
						"default_fontname" : "Verdana",
						"gridonopen" : 0,
						"gridsize" : [ 15.0, 15.0 ],
						"gridsnaponopen" : 0,
						"toolbarvisible" : 1,
						"boxfadetime" : 200,
						"boxanimatetime" : 200,
						"scrollanimatetime" : 200,
						"metadata" : [  ],
						"boxes" : [ 							{
								"box" : 								{
									"maxclass" : "comment",
									"text" : "Else \"Restore Default Settings\" will not function properly as past values for q, filtergain and cf maintained in FilterGraph will overrule the attempt to reset values to defaults.",
									"linecount" : 2,
									"patching_rect" : [ 34.0, 260.0, 415.0, 28.0 ],
									"fontname" : "Verdana",
									"id" : "obj-1",
									"numinlets" : 1,
									"numoutlets" : 0,
									"fontsize" : 9.0
								}

							}
, 							{
								"box" : 								{
									"maxclass" : "outlet",
									"patching_rect" : [ 142.0, 194.0, 15.0, 15.0 ],
									"id" : "obj-2",
									"numinlets" : 1,
									"numoutlets" : 0,
									"comment" : ""
								}

							}
, 							{
								"box" : 								{
									"maxclass" : "outlet",
									"patching_rect" : [ 88.0, 194.0, 15.0, 15.0 ],
									"id" : "obj-3",
									"numinlets" : 1,
									"numoutlets" : 0,
									"comment" : ""
								}

							}
, 							{
								"box" : 								{
									"maxclass" : "outlet",
									"patching_rect" : [ 34.0, 194.0, 15.0, 15.0 ],
									"id" : "obj-4",
									"numinlets" : 1,
									"numoutlets" : 0,
									"comment" : ""
								}

							}
, 							{
								"box" : 								{
									"maxclass" : "newobj",
									"text" : "atodb",
									"outlettype" : [ "float" ],
									"patching_rect" : [ 88.0, 157.0, 33.0, 17.0 ],
									"fontname" : "Verdana",
									"id" : "obj-5",
									"numinlets" : 1,
									"numoutlets" : 1,
									"fontsize" : 9.0
								}

							}
, 							{
								"box" : 								{
									"maxclass" : "inlet",
									"outlettype" : [ "" ],
									"patching_rect" : [ 179.0, 35.0, 15.0, 15.0 ],
									"id" : "obj-6",
									"numinlets" : 0,
									"numoutlets" : 1,
									"comment" : ""
								}

							}
, 							{
								"box" : 								{
									"maxclass" : "inlet",
									"outlettype" : [ "" ],
									"patching_rect" : [ 125.0, 35.0, 15.0, 15.0 ],
									"id" : "obj-7",
									"numinlets" : 0,
									"numoutlets" : 1,
									"comment" : ""
								}

							}
, 							{
								"box" : 								{
									"maxclass" : "inlet",
									"outlettype" : [ "" ],
									"patching_rect" : [ 71.0, 35.0, 15.0, 15.0 ],
									"id" : "obj-8",
									"numinlets" : 0,
									"numoutlets" : 1,
									"comment" : ""
								}

							}
, 							{
								"box" : 								{
									"maxclass" : "newobj",
									"text" : "gate 1 1",
									"outlettype" : [ "" ],
									"patching_rect" : [ 142.0, 128.0, 47.0, 17.0 ],
									"fontname" : "Verdana",
									"id" : "obj-9",
									"numinlets" : 2,
									"numoutlets" : 1,
									"fontsize" : 9.0
								}

							}
, 							{
								"box" : 								{
									"maxclass" : "newobj",
									"text" : "gate 1 1",
									"outlettype" : [ "" ],
									"patching_rect" : [ 88.0, 128.0, 47.0, 17.0 ],
									"fontname" : "Verdana",
									"id" : "obj-10",
									"numinlets" : 2,
									"numoutlets" : 1,
									"fontsize" : 9.0
								}

							}
, 							{
								"box" : 								{
									"maxclass" : "newobj",
									"text" : "gate 1 1",
									"outlettype" : [ "" ],
									"patching_rect" : [ 34.0, 128.0, 47.0, 17.0 ],
									"fontname" : "Verdana",
									"id" : "obj-11",
									"numinlets" : 2,
									"numoutlets" : 1,
									"fontsize" : 9.0
								}

							}
, 							{
								"box" : 								{
									"maxclass" : "inlet",
									"outlettype" : [ "int" ],
									"patching_rect" : [ 263.0, 35.0, 15.0, 15.0 ],
									"id" : "obj-12",
									"numinlets" : 0,
									"numoutlets" : 1,
									"comment" : ""
								}

							}
, 							{
								"box" : 								{
									"maxclass" : "comment",
									"text" : "Output from FilterFraph has to be muted when filtertype is changes.",
									"patching_rect" : [ 34.0, 238.0, 315.0, 17.0 ],
									"fontname" : "Verdana",
									"id" : "obj-13",
									"numinlets" : 1,
									"numoutlets" : 0,
									"fontsize" : 9.0
								}

							}
 ],
						"lines" : [ 							{
								"patchline" : 								{
									"source" : [ "obj-12", 0 ],
									"destination" : [ "obj-11", 0 ],
									"hidden" : 0
								}

							}
, 							{
								"patchline" : 								{
									"source" : [ "obj-11", 0 ],
									"destination" : [ "obj-4", 0 ],
									"hidden" : 0
								}

							}
, 							{
								"patchline" : 								{
									"source" : [ "obj-8", 0 ],
									"destination" : [ "obj-11", 1 ],
									"hidden" : 0
								}

							}
, 							{
								"patchline" : 								{
									"source" : [ "obj-12", 0 ],
									"destination" : [ "obj-10", 0 ],
									"hidden" : 0
								}

							}
, 							{
								"patchline" : 								{
									"source" : [ "obj-10", 0 ],
									"destination" : [ "obj-5", 0 ],
									"hidden" : 0
								}

							}
, 							{
								"patchline" : 								{
									"source" : [ "obj-5", 0 ],
									"destination" : [ "obj-3", 0 ],
									"hidden" : 0
								}

							}
, 							{
								"patchline" : 								{
									"source" : [ "obj-7", 0 ],
									"destination" : [ "obj-10", 1 ],
									"hidden" : 0
								}

							}
, 							{
								"patchline" : 								{
									"source" : [ "obj-12", 0 ],
									"destination" : [ "obj-9", 0 ],
									"hidden" : 0
								}

							}
, 							{
								"patchline" : 								{
									"source" : [ "obj-9", 0 ],
									"destination" : [ "obj-2", 0 ],
									"hidden" : 0
								}

							}
, 							{
								"patchline" : 								{
									"source" : [ "obj-6", 0 ],
									"destination" : [ "obj-9", 1 ],
									"hidden" : 0
								}

							}
 ]
					}
,
					"saved_object_attributes" : 					{
						"default_fontface" : 0,
						"fontname" : "Verdana",
						"default_fontsize" : 10.0,
						"fontface" : 0,
						"default_fontname" : "Verdana",
						"globalpatchername" : "",
						"fontsize" : 10.0
					}

				}

			}
, 			{
				"box" : 				{
					"maxclass" : "umenu",
					"varname" : "FilterType",
					"labelclick" : 1,
					"outlettype" : [ "int", "", "" ],
					"types" : [  ],
					"patching_rect" : [ 100.0, 24.0, 70.0, 17.0 ],
					"fontname" : "Verdana",
					"id" : "obj-19",
					"numinlets" : 1,
					"numoutlets" : 3,
					"items" : [ "lowpass", ",", "highpass", ",", "bandpass", ",", "bandstop", ",", "peaknotch", ",", "lowshelf", ",", "highshelf" ],
					"fontsize" : 9.0
				}

			}
, 			{
				"box" : 				{
					"maxclass" : "newobj",
					"text" : "r #0_xxx_to_filtergraph",
					"outlettype" : [ "" ],
					"hidden" : 1,
					"patching_rect" : [ 261.0, 2.0, 124.0, 17.0 ],
					"fontname" : "Verdana",
					"id" : "obj-20",
					"numinlets" : 0,
					"numoutlets" : 1,
					"fontsize" : 9.0
				}

			}
, 			{
				"box" : 				{
					"maxclass" : "newobj",
					"text" : "s #0_xxx_to_filtergraph",
					"hidden" : 1,
					"patching_rect" : [ 399.0, 373.0, 124.0, 17.0 ],
					"fontname" : "Verdana",
					"id" : "obj-21",
					"numinlets" : 1,
					"numoutlets" : 0,
					"fontsize" : 9.0
				}

			}
, 			{
				"box" : 				{
					"maxclass" : "newobj",
					"text" : "p PrepareForFiltergraph~",
					"outlettype" : [ "" ],
					"hidden" : 1,
					"patching_rect" : [ 399.0, 349.0, 124.0, 17.0 ],
					"fontname" : "Verdana",
					"id" : "obj-22",
					"numinlets" : 3,
					"numoutlets" : 1,
					"fontsize" : 9.0,
					"patcher" : 					{
						"rect" : [ 91.0, 247.0, 597.0, 355.0 ],
						"bgcolor" : [ 1.0, 1.0, 1.0, 1.0 ],
						"bglocked" : 0,
						"defrect" : [ 91.0, 247.0, 597.0, 355.0 ],
						"openinpresentation" : 0,
						"default_fontsize" : 10.0,
						"default_fontface" : 0,
						"default_fontname" : "Verdana",
						"gridonopen" : 0,
						"gridsize" : [ 15.0, 15.0 ],
						"gridsnaponopen" : 0,
						"toolbarvisible" : 1,
						"boxfadetime" : 200,
						"boxanimatetime" : 200,
						"scrollanimatetime" : 200,
						"metadata" : [  ],
						"boxes" : [ 							{
								"box" : 								{
									"maxclass" : "newobj",
									"text" : "dbtoa",
									"outlettype" : [ "float" ],
									"patching_rect" : [ 267.0, 143.0, 33.0, 17.0 ],
									"fontname" : "Verdana",
									"id" : "obj-1",
									"numinlets" : 1,
									"numoutlets" : 1,
									"fontsize" : 9.0
								}

							}
, 							{
								"box" : 								{
									"maxclass" : "comment",
									"text" : "Set message to 6nd inlet",
									"patching_rect" : [ 401.0, 232.0, 119.0, 17.0 ],
									"fontname" : "Verdana",
									"id" : "obj-2",
									"numinlets" : 1,
									"numoutlets" : 0,
									"fontsize" : 9.0
								}

							}
, 							{
								"box" : 								{
									"maxclass" : "outlet",
									"patching_rect" : [ 131.0, 219.0, 15.0, 15.0 ],
									"id" : "obj-3",
									"numinlets" : 1,
									"numoutlets" : 0,
									"comment" : ""
								}

							}
, 							{
								"box" : 								{
									"maxclass" : "newobj",
									"text" : "pak set 1200. 1. 1.",
									"outlettype" : [ "" ],
									"patching_rect" : [ 131.0, 177.0, 215.0, 17.0 ],
									"fontname" : "Verdana",
									"id" : "obj-4",
									"numinlets" : 4,
									"numoutlets" : 1,
									"fontsize" : 9.0
								}

							}
, 							{
								"box" : 								{
									"maxclass" : "newobj",
									"text" : "route set",
									"outlettype" : [ "", "" ],
									"patching_rect" : [ 335.0, 119.0, 50.0, 17.0 ],
									"fontname" : "Verdana",
									"id" : "obj-5",
									"numinlets" : 1,
									"numoutlets" : 2,
									"fontsize" : 9.0
								}

							}
, 							{
								"box" : 								{
									"maxclass" : "inlet",
									"outlettype" : [ "" ],
									"patching_rect" : [ 199.0, 50.0, 15.0, 15.0 ],
									"id" : "obj-6",
									"numinlets" : 0,
									"numoutlets" : 1,
									"comment" : ""
								}

							}
, 							{
								"box" : 								{
									"maxclass" : "newobj",
									"text" : "route set",
									"outlettype" : [ "", "" ],
									"patching_rect" : [ 267.0, 119.0, 50.0, 17.0 ],
									"fontname" : "Verdana",
									"id" : "obj-7",
									"numinlets" : 1,
									"numoutlets" : 2,
									"fontsize" : 9.0
								}

							}
, 							{
								"box" : 								{
									"maxclass" : "inlet",
									"outlettype" : [ "" ],
									"patching_rect" : [ 267.0, 50.0, 15.0, 15.0 ],
									"id" : "obj-8",
									"numinlets" : 0,
									"numoutlets" : 1,
									"comment" : ""
								}

							}
, 							{
								"box" : 								{
									"maxclass" : "newobj",
									"text" : "route set",
									"outlettype" : [ "", "" ],
									"patching_rect" : [ 199.0, 119.0, 50.0, 17.0 ],
									"fontname" : "Verdana",
									"id" : "obj-9",
									"numinlets" : 1,
									"numoutlets" : 2,
									"fontsize" : 9.0
								}

							}
, 							{
								"box" : 								{
									"maxclass" : "inlet",
									"outlettype" : [ "" ],
									"patching_rect" : [ 335.0, 50.0, 15.0, 15.0 ],
									"id" : "obj-10",
									"numinlets" : 0,
									"numoutlets" : 1,
									"comment" : ""
								}

							}
, 							{
								"box" : 								{
									"maxclass" : "comment",
									"text" : "Get rid of set",
									"patching_rect" : [ 405.0, 121.0, 100.0, 17.0 ],
									"fontname" : "Verdana",
									"id" : "obj-11",
									"numinlets" : 1,
									"numoutlets" : 0,
									"fontsize" : 9.0
								}

							}
 ],
						"lines" : [ 							{
								"patchline" : 								{
									"source" : [ "obj-4", 0 ],
									"destination" : [ "obj-3", 0 ],
									"hidden" : 0
								}

							}
, 							{
								"patchline" : 								{
									"source" : [ "obj-10", 0 ],
									"destination" : [ "obj-9", 0 ],
									"hidden" : 0
								}

							}
, 							{
								"patchline" : 								{
									"source" : [ "obj-9", 0 ],
									"destination" : [ "obj-4", 1 ],
									"hidden" : 0
								}

							}
, 							{
								"patchline" : 								{
									"source" : [ "obj-8", 0 ],
									"destination" : [ "obj-7", 0 ],
									"hidden" : 0
								}

							}
, 							{
								"patchline" : 								{
									"source" : [ "obj-7", 0 ],
									"destination" : [ "obj-1", 0 ],
									"hidden" : 0
								}

							}
, 							{
								"patchline" : 								{
									"source" : [ "obj-1", 0 ],
									"destination" : [ "obj-4", 2 ],
									"hidden" : 0
								}

							}
, 							{
								"patchline" : 								{
									"source" : [ "obj-6", 0 ],
									"destination" : [ "obj-5", 0 ],
									"hidden" : 0
								}

							}
, 							{
								"patchline" : 								{
									"source" : [ "obj-5", 0 ],
									"destination" : [ "obj-4", 3 ],
									"hidden" : 0
								}

							}
 ]
					}
,
					"saved_object_attributes" : 					{
						"default_fontface" : 0,
						"fontname" : "Verdana",
						"default_fontsize" : 10.0,
						"fontface" : 0,
						"default_fontname" : "Verdana",
						"globalpatchername" : "",
						"fontsize" : 10.0
					}

				}

			}
, 			{
				"box" : 				{
					"maxclass" : "newobj",
					"text" : "pvar FilterType 2",
					"outlettype" : [ "", "" ],
					"hidden" : 1,
					"patching_rect" : [ 458.0, 85.0, 89.0, 17.0 ],
					"fontname" : "Verdana",
					"id" : "obj-23",
					"numinlets" : 1,
					"numoutlets" : 2,
					"fontsize" : 9.0
				}

			}
, 			{
				"box" : 				{
					"maxclass" : "newobj",
					"text" : "pvar FilterGraph 7",
					"outlettype" : [ "", "", "", "", "", "", "" ],
					"hidden" : 1,
					"patching_rect" : [ 423.0, 201.0, 93.0, 17.0 ],
					"fontname" : "Verdana",
					"id" : "obj-24",
					"numinlets" : 1,
					"numoutlets" : 7,
					"fontsize" : 9.0
				}

			}
, 			{
				"box" : 				{
					"maxclass" : "newobj",
					"text" : "jcom.message filtergraph @description \"Messages to filtergraph. See the MSP reference for further details\"",
					"linecount" : 2,
					"outlettype" : [ "" ],
					"hidden" : 1,
					"patching_rect" : [ 261.0, 26.0, 266.0, 28.0 ],
					"fontname" : "Verdana",
					"id" : "obj-25",
					"numinlets" : 0,
					"numoutlets" : 1,
					"fontsize" : 9.0
				}

			}
, 			{
				"box" : 				{
					"maxclass" : "newobj",
					"varname" : "filtertype",
					"text" : "jcom.parameter filtertype @type msg_symbol @repetitions 0 @description \"What kind of filter to use. Possible values: lowpass | highpass | bandpass | bandstop | peaknotch | lowshelf | highshelf\"",
					"linecount" : 3,
					"outlettype" : [ "", "" ],
					"hidden" : 1,
					"patching_rect" : [ 458.0, 110.0, 306.0, 38.0 ],
					"fontname" : "Verdana",
					"id" : "obj-26",
					"numinlets" : 1,
					"numoutlets" : 2,
					"fontsize" : 9.0
				}

			}
, 			{
				"box" : 				{
					"maxclass" : "newobj",
					"varname" : "filtergain",
					"text" : "jcom.parameter filtergain @type msg_float @range/bounds -24 24 @range/clipmode both @ramp/drive scheduler @repetitions 0 @description \"Gain (dB)\"",
					"linecount" : 2,
					"outlettype" : [ "" ],
					"hidden" : 1,
					"patching_rect" : [ 550.0, 296.0, 330.0, 28.0 ],
					"fontname" : "Verdana",
					"id" : "obj-27",
					"numinlets" : 1,
					"numoutlets" : 1,
					"fontsize" : 9.0
				}

			}
, 			{
				"box" : 				{
					"maxclass" : "newobj",
					"varname" : "q",
					"text" : "jcom.parameter q @type msg_float @ramp/drive scheduler @range/bounds 0. 100. @range/clipmode both @repetitions 0 @description \"Resonance (Q)\"",
					"linecount" : 2,
					"outlettype" : [ "" ],
					"hidden" : 1,
					"patching_rect" : [ 549.0, 252.0, 311.0, 28.0 ],
					"fontname" : "Verdana",
					"id" : "obj-28",
					"numinlets" : 1,
					"numoutlets" : 1,
					"fontsize" : 9.0
				}

			}
, 			{
				"box" : 				{
					"maxclass" : "newobj",
					"varname" : "cf",
					"text" : "jcom.parameter cf @type msg_float @range/bounds 30. 11025. @range/clipmode both @ramp/drive scheduler @repetitions 0 @description \"Center frequency (Hz)\"",
					"linecount" : 2,
					"outlettype" : [ "" ],
					"hidden" : 1,
					"patching_rect" : [ 549.0, 336.0, 341.0, 28.0 ],
					"fontname" : "Verdana",
					"id" : "obj-29",
					"numinlets" : 1,
					"numoutlets" : 1,
					"fontsize" : 9.0
				}

			}
, 			{
				"box" : 				{
					"maxclass" : "filtergraph~",
					"varname" : "FilterGraph",
					"outlettype" : [ "list", "float", "float", "float", "float", "list", "int" ],
					"domain" : [ 20.0, 22050.0 ],
					"hcurvecolor" : [ 1.0, 0.086275, 0.086275, 1.0 ],
					"patching_rect" : [ 170.0, 23.0, 88.0, 39.0 ],
					"bwidthcolor" : [ 0.462745, 0.47451, 0.65098, 1.0 ],
					"logmarkers" : [ 50.0, 500.0, 5000.0 ],
					"fgcolor" : [ 0.388235, 0.388235, 0.388235, 1.0 ],
					"id" : "obj-30",
					"numinlets" : 8,
					"hbwidthwcolor" : [ 0.478431, 0.290196, 0.290196, 1.0 ],
					"textcolor" : [  ],
					"numoutlets" : 7,
					"bgcolor" : [ 0.678431, 0.678431, 0.678431, 1.0 ],
					"markercolor" : [ 0.329412, 0.329412, 0.329412, 1.0 ],
					"nfilters" : 1,
					"setfilter" : [ 0, 1, 1, 0, 0, 8571.957031, 0.938949, 0.801651, 30.0, 11025.0, 0.0625, 16.0, 0.0, 25.0 ]
				}

			}
, 			{
				"box" : 				{
					"maxclass" : "comment",
					"text" : "Convertion from freq, gain and q to biquad coeffisients has to take place inside the poly~ (.alg) in case the poly is up- or downsampled.",
					"linecount" : 3,
					"hidden" : 1,
					"patching_rect" : [ 546.0, 387.0, 259.0, 38.0 ],
					"fontname" : "Verdana",
					"id" : "obj-31",
					"numinlets" : 1,
					"numoutlets" : 0,
					"fontsize" : 9.0
				}

			}
, 			{
				"box" : 				{
					"maxclass" : "comment",
					"text" : "Right",
					"patching_rect" : [ 4.0, 33.0, 36.0, 17.0 ],
					"frgb" : [ 0.67451, 0.67451, 0.67451, 1.0 ],
					"fontname" : "Verdana",
					"id" : "obj-32",
					"numinlets" : 1,
					"textcolor" : [ 0.67451, 0.67451, 0.67451, 1.0 ],
					"numoutlets" : 0,
					"fontsize" : 9.0
				}

			}
, 			{
				"box" : 				{
					"maxclass" : "message",
					"text" : ";\rmax refresh",
					"linecount" : 2,
					"outlettype" : [ "" ],
					"hidden" : 1,
					"patching_rect" : [ 319.0, 564.0, 65.0, 26.0 ],
					"fontname" : "Verdana",
					"id" : "obj-33",
					"numinlets" : 2,
					"numoutlets" : 1,
					"fontsize" : 9.0
				}

			}
, 			{
				"box" : 				{
					"maxclass" : "newobj",
					"text" : "pvar Left",
					"outlettype" : [ "" ],
					"hidden" : 1,
					"patching_rect" : [ 18.0, 87.0, 52.0, 17.0 ],
					"fontname" : "Verdana",
					"id" : "obj-34",
					"numinlets" : 1,
					"numoutlets" : 1,
					"fontsize" : 9.0
				}

			}
, 			{
				"box" : 				{
					"maxclass" : "newobj",
					"varname" : "jcom.hub",
					"text" : "jcom.hub jmod.echo~ @size 1U-half @module_type audio @description \"Stereo echo module.\"",
					"outlettype" : [ "", "" ],
					"hidden" : 1,
					"patching_rect" : [ 19.0, 600.0, 436.0, 17.0 ],
					"fontname" : "Verdana",
					"id" : "obj-35",
					"numinlets" : 1,
					"numoutlets" : 2,
					"fontsize" : 9.0
				}

			}
, 			{
				"box" : 				{
					"maxclass" : "comment",
					"text" : "command input",
					"hidden" : 1,
					"patching_rect" : [ 33.0, 574.0, 79.0, 17.0 ],
					"fontname" : "Verdana",
					"id" : "obj-36",
					"numinlets" : 1,
					"numoutlets" : 0,
					"fontsize" : 9.0
				}

			}
, 			{
				"box" : 				{
					"maxclass" : "inlet",
					"outlettype" : [ "" ],
					"hidden" : 1,
					"patching_rect" : [ 19.0, 575.0, 13.0, 13.0 ],
					"id" : "obj-37",
					"numinlets" : 0,
					"numoutlets" : 1,
					"comment" : ""
				}

			}
, 			{
				"box" : 				{
					"maxclass" : "message",
					"text" : "\/init",
					"outlettype" : [ "" ],
					"hidden" : 1,
					"patching_rect" : [ 248.0, 574.0, 37.0, 15.0 ],
					"fontname" : "Verdana",
					"id" : "obj-38",
					"numinlets" : 2,
					"numoutlets" : 1,
					"fontsize" : 9.0
				}

			}
, 			{
				"box" : 				{
					"maxclass" : "inlet",
					"outlettype" : [ "" ],
					"hidden" : 1,
					"patching_rect" : [ 74.0, 344.0, 13.0, 13.0 ],
					"id" : "obj-39",
					"numinlets" : 0,
					"numoutlets" : 1,
					"comment" : ""
				}

			}
, 			{
				"box" : 				{
					"maxclass" : "outlet",
					"hidden" : 1,
					"patching_rect" : [ 74.0, 508.0, 13.0, 13.0 ],
					"id" : "obj-40",
					"numinlets" : 1,
					"numoutlets" : 0,
					"comment" : ""
				}

			}
, 			{
				"box" : 				{
					"maxclass" : "newobj",
					"varname" : "left",
					"text" : "jcom.parameter left @type msg_int @ramp/drive scheduler @repetitions 0 @range/bounds 0 10000 @range/clipmode both @description \"Delay time in milliseconds for left channel.\"",
					"linecount" : 2,
					"outlettype" : [ "" ],
					"hidden" : 1,
					"patching_rect" : [ 18.0, 110.0, 383.0, 28.0 ],
					"fontname" : "Verdana",
					"id" : "obj-41",
					"numinlets" : 1,
					"numoutlets" : 1,
					"fontsize" : 9.0
				}

			}
, 			{
				"box" : 				{
					"maxclass" : "inlet",
					"outlettype" : [ "" ],
					"hidden" : 1,
					"patching_rect" : [ 292.0, 344.0, 13.0, 13.0 ],
					"id" : "obj-42",
					"numinlets" : 0,
					"numoutlets" : 1,
					"comment" : ""
				}

			}
, 			{
				"box" : 				{
					"maxclass" : "comment",
					"text" : "Left",
					"patching_rect" : [ 4.0, 19.0, 36.0, 17.0 ],
					"frgb" : [ 0.67451, 0.67451, 0.67451, 1.0 ],
					"fontname" : "Verdana",
					"id" : "obj-43",
					"numinlets" : 1,
					"textcolor" : [ 0.67451, 0.67451, 0.67451, 1.0 ],
					"numoutlets" : 0,
					"fontsize" : 9.0
				}

			}
, 			{
				"box" : 				{
					"maxclass" : "comment",
					"text" : "----signal inputs----",
					"hidden" : 1,
					"patching_rect" : [ 93.0, 344.0, 113.0, 17.0 ],
					"fontname" : "Verdana",
					"id" : "obj-44",
					"numinlets" : 1,
					"numoutlets" : 0,
					"fontsize" : 9.0
				}

			}
, 			{
				"box" : 				{
					"maxclass" : "outlet",
					"hidden" : 1,
					"patching_rect" : [ 19.0, 629.0, 13.0, 13.0 ],
					"id" : "obj-45",
					"numinlets" : 1,
					"numoutlets" : 0,
					"comment" : ""
				}

			}
, 			{
				"box" : 				{
					"maxclass" : "outlet",
					"hidden" : 1,
					"patching_rect" : [ 110.0, 508.0, 13.0, 13.0 ],
					"id" : "obj-46",
					"numinlets" : 1,
					"numoutlets" : 0,
					"comment" : ""
				}

			}
, 			{
				"box" : 				{
					"maxclass" : "comment",
					"text" : "---signal outputs---",
					"hidden" : 1,
					"patching_rect" : [ 74.0, 522.0, 101.0, 17.0 ],
					"fontname" : "Verdana",
					"id" : "obj-47",
					"numinlets" : 1,
					"numoutlets" : 0,
					"fontsize" : 9.0
				}

			}
, 			{
				"box" : 				{
					"maxclass" : "jcom.ui",
					"text" : "\/Jamoma",
					"outlettype" : [ "" ],
					"id" : "obj-48",
					"numinlets" : 1,
					"color" : [ 1.0, 1.0, 1.0, 1.0 ],
					"textcolor" : [ 0.65, 0.65, 0.65, 1.0 ],
					"numoutlets" : 1
				}

			}
 ],
		"lines" : [ 			{
				"patchline" : 				{
					"source" : [ "obj-41", 0 ],
					"destination" : [ "obj-34", 0 ],
					"hidden" : 1,
					"midpoints" : [ 27.5, 148.0, 13.0, 148.0, 13.0, 80.0, 27.5, 80.0 ]
				}

			}
, 			{
				"patchline" : 				{
					"source" : [ "obj-34", 0 ],
					"destination" : [ "obj-41", 0 ],
					"hidden" : 1
				}

			}
, 			{
				"patchline" : 				{
					"source" : [ "obj-15", 0 ],
					"destination" : [ "obj-14", 0 ],
					"hidden" : 1,
					"midpoints" : [ 27.5, 222.0, 13.0, 222.0, 13.0, 154.0, 27.5, 154.0 ]
				}

			}
, 			{
				"patchline" : 				{
					"source" : [ "obj-14", 0 ],
					"destination" : [ "obj-15", 0 ],
					"hidden" : 1
				}

			}
, 			{
				"patchline" : 				{
					"source" : [ "obj-13", 0 ],
					"destination" : [ "obj-12", 0 ],
					"hidden" : 1,
					"midpoints" : [ 27.5, 303.0, 13.0, 303.0, 13.0, 235.0, 27.5, 235.0 ]
				}

			}
, 			{
				"patchline" : 				{
					"source" : [ "obj-12", 0 ],
					"destination" : [ "obj-13", 0 ],
					"hidden" : 1
				}

			}
, 			{
				"patchline" : 				{
					"source" : [ "obj-38", 0 ],
					"destination" : [ "obj-35", 0 ],
					"hidden" : 1,
					"midpoints" : [ 257.5, 596.0, 28.5, 596.0 ]
				}

			}
, 			{
				"patchline" : 				{
					"source" : [ "obj-8", 0 ],
					"destination" : [ "obj-35", 0 ],
					"hidden" : 1,
					"midpoints" : [ 128.5, 594.0, 28.5, 594.0 ]
				}

			}
, 			{
				"patchline" : 				{
					"source" : [ "obj-37", 0 ],
					"destination" : [ "obj-35", 0 ],
					"hidden" : 1
				}

			}
, 			{
				"patchline" : 				{
					"source" : [ "obj-5", 0 ],
					"destination" : [ "obj-35", 0 ],
					"hidden" : 1
				}

			}
, 			{
				"patchline" : 				{
					"source" : [ "obj-4", 0 ],
					"destination" : [ "obj-35", 0 ],
					"hidden" : 1
				}

			}
, 			{
				"patchline" : 				{
					"source" : [ "obj-35", 0 ],
					"destination" : [ "obj-45", 0 ],
					"hidden" : 1
				}

			}
, 			{
				"patchline" : 				{
					"source" : [ "obj-1", 0 ],
					"destination" : [ "obj-3", 0 ],
					"hidden" : 1,
					"midpoints" : [ 360.5, 441.0, 47.5, 441.0 ]
				}

			}
, 			{
				"patchline" : 				{
					"source" : [ "obj-2", 0 ],
					"destination" : [ "obj-3", 0 ],
					"hidden" : 1,
					"midpoints" : [ 227.5, 438.0, 47.5, 438.0 ]
				}

			}
, 			{
				"patchline" : 				{
					"source" : [ "obj-39", 0 ],
					"destination" : [ "obj-7", 0 ],
					"hidden" : 1
				}

			}
, 			{
				"patchline" : 				{
					"source" : [ "obj-7", 0 ],
					"destination" : [ "obj-3", 1 ],
					"hidden" : 1
				}

			}
, 			{
				"patchline" : 				{
					"source" : [ "obj-3", 1 ],
					"destination" : [ "obj-6", 0 ],
					"hidden" : 1
				}

			}
, 			{
				"patchline" : 				{
					"source" : [ "obj-6", 0 ],
					"destination" : [ "obj-40", 0 ],
					"hidden" : 1
				}

			}
, 			{
				"patchline" : 				{
					"source" : [ "obj-7", 1 ],
					"destination" : [ "obj-3", 2 ],
					"hidden" : 1,
					"midpoints" : [ 188.0, 391.0, 110.5, 391.0 ]
				}

			}
, 			{
				"patchline" : 				{
					"source" : [ "obj-6", 1 ],
					"destination" : [ "obj-46", 0 ],
					"hidden" : 1
				}

			}
, 			{
				"patchline" : 				{
					"source" : [ "obj-3", 2 ],
					"destination" : [ "obj-6", 1 ],
					"hidden" : 1,
					"midpoints" : [ 110.5, 477.0, 146.5, 477.0 ]
				}

			}
, 			{
				"patchline" : 				{
					"source" : [ "obj-25", 0 ],
					"destination" : [ "obj-30", 0 ],
					"hidden" : 1
				}

			}
, 			{
				"patchline" : 				{
					"source" : [ "obj-7", 2 ],
					"destination" : [ "obj-2", 0 ],
					"hidden" : 1
				}

			}
, 			{
				"patchline" : 				{
					"source" : [ "obj-20", 0 ],
					"destination" : [ "obj-30", 5 ],
					"hidden" : 1
				}

			}
, 			{
				"patchline" : 				{
					"source" : [ "obj-42", 0 ],
					"destination" : [ "obj-7", 1 ],
					"hidden" : 1
				}

			}
, 			{
				"patchline" : 				{
					"source" : [ "obj-2", 1 ],
					"destination" : [ "obj-1", 0 ],
					"hidden" : 1
				}

			}
, 			{
				"patchline" : 				{
					"source" : [ "obj-28", 0 ],
					"destination" : [ "obj-22", 0 ],
					"hidden" : 1
				}

			}
, 			{
				"patchline" : 				{
					"source" : [ "obj-22", 0 ],
					"destination" : [ "obj-21", 0 ],
					"hidden" : 1
				}

			}
, 			{
				"patchline" : 				{
					"source" : [ "obj-17", 1 ],
					"destination" : [ "obj-24", 0 ],
					"hidden" : 1,
					"midpoints" : [ 626.0, 187.0, 432.5, 187.0 ]
				}

			}
, 			{
				"patchline" : 				{
					"source" : [ "obj-24", 1 ],
					"destination" : [ "obj-18", 0 ],
					"hidden" : 1
				}

			}
, 			{
				"patchline" : 				{
					"source" : [ "obj-27", 0 ],
					"destination" : [ "obj-22", 1 ],
					"hidden" : 1
				}

			}
, 			{
				"patchline" : 				{
					"source" : [ "obj-26", 0 ],
					"destination" : [ "obj-23", 0 ],
					"hidden" : 1,
					"midpoints" : [ 467.5, 159.0, 454.0, 159.0, 454.0, 77.0, 467.5, 77.0 ]
				}

			}
, 			{
				"patchline" : 				{
					"source" : [ "obj-23", 1 ],
					"destination" : [ "obj-26", 0 ],
					"hidden" : 1,
					"midpoints" : [ 537.5, 106.0, 467.5, 106.0 ]
				}

			}
, 			{
				"patchline" : 				{
					"source" : [ "obj-24", 2 ],
					"destination" : [ "obj-18", 1 ],
					"hidden" : 1
				}

			}
, 			{
				"patchline" : 				{
					"source" : [ "obj-24", 3 ],
					"destination" : [ "obj-18", 2 ],
					"hidden" : 1
				}

			}
, 			{
				"patchline" : 				{
					"source" : [ "obj-29", 0 ],
					"destination" : [ "obj-22", 2 ],
					"hidden" : 1
				}

			}
, 			{
				"patchline" : 				{
					"source" : [ "obj-17", 0 ],
					"destination" : [ "obj-18", 3 ],
					"hidden" : 1,
					"color" : [ 1.0, 1.0, 1.0, 1.0 ],
					"midpoints" : [ 615.5, 201.0, 526.5, 201.0 ]
				}

			}
, 			{
				"patchline" : 				{
					"source" : [ "obj-17", 2 ],
					"destination" : [ "obj-18", 3 ],
					"hidden" : 1,
					"color" : [ 1.0, 1.0, 1.0, 1.0 ],
					"midpoints" : [ 636.5, 201.0, 526.5, 201.0 ]
				}

			}
, 			{
				"patchline" : 				{
					"source" : [ "obj-18", 2 ],
					"destination" : [ "obj-28", 0 ],
					"hidden" : 1
				}

			}
, 			{
				"patchline" : 				{
					"source" : [ "obj-18", 0 ],
					"destination" : [ "obj-29", 0 ],
					"hidden" : 1
				}

			}
, 			{
				"patchline" : 				{
					"source" : [ "obj-18", 1 ],
					"destination" : [ "obj-27", 0 ],
					"hidden" : 1
				}

			}
, 			{
				"patchline" : 				{
					"source" : [ "obj-26", 1 ],
					"destination" : [ "obj-17", 0 ],
					"hidden" : 1
				}

			}
 ]
	}

}
