max v2;#N vpatcher 20 74 620 474;#P window setfont "Sans Serif" 9.;#P window linecount 1;#P message 173 190 17 196617 0.;#P newex 173 121 46 196617 route 0.;#P comment 242 253 302 196617 obsolete when Unit lib is ready :);#P newex 209 146 118 196617 expr ($f1 - 127.) * 0.6;#P newex 209 194 34 196617 dbtoa;#P outlet 209 249 15 0;#P inlet 173 92 15 0;#P comment 217 44 302 196617 conversion of midi gain value to linear amplitude gain;#P window linecount 3;#P comment 68 183 100 196617 so that a midi 0 is also a linear amplitude of 0;#P connect 2 0 7 0;#P connect 7 0 8 0;#P connect 7 1 5 0;#P connect 5 0 4 0;#P connect 8 0 3 0;#P connect 4 0 3 0;#P pop;