{
	"patcher" : 	{
		"fileversion" : 1,
		"rect" : [ 490.0, 75.0, 818.0, 733.0 ],
		"bglocked" : 0,
		"defrect" : [ 490.0, 75.0, 818.0, 733.0 ],
		"openrect" : [ 0.0, 0.0, 0.0, 0.0 ],
		"openinpresentation" : 0,
		"default_fontsize" : 10.0,
		"default_fontface" : 0,
		"default_fontname" : "Verdana",
		"gridonopen" : 0,
		"gridsize" : [ 5.0, 5.0 ],
		"gridsnaponopen" : 0,
		"toolbarvisible" : 1,
		"boxanimatetime" : 200,
		"imprint" : 0,
		"metadata" : [  ],
		"boxes" : [ 			{
				"box" : 				{
					"maxclass" : "newobj",
					"text" : "jalg.tap.warp~",
					"numinlets" : 3,
					"patching_rect" : [ 80.0, 155.0, 88.0, 19.0 ],
					"id" : "obj-42",
					"numoutlets" : 3,
					"fontname" : "Verdana",
					"outlettype" : [ "", "signal", "signal" ],
					"fontsize" : 10.0
				}

			}
, 			{
				"box" : 				{
					"maxclass" : "message",
					"text" : "/preset/store 12 RacketBall",
					"numinlets" : 2,
					"patching_rect" : [ 233.0, 476.0, 154.0, 17.0 ],
					"id" : "obj-1",
					"numoutlets" : 1,
					"fontname" : "Verdana",
					"outlettype" : [ "" ],
					"fontsize" : 10.0
				}

			}
, 			{
				"box" : 				{
					"maxclass" : "message",
					"text" : "/preset/store 11 OnTheRoof",
					"numinlets" : 2,
					"patching_rect" : [ 219.0, 458.0, 155.0, 17.0 ],
					"id" : "obj-2",
					"numoutlets" : 1,
					"fontname" : "Verdana",
					"outlettype" : [ "" ],
					"fontsize" : 10.0
				}

			}
, 			{
				"box" : 				{
					"maxclass" : "message",
					"text" : "/preset/store 10 Spoof",
					"numinlets" : 2,
					"patching_rect" : [ 205.0, 440.0, 130.0, 17.0 ],
					"id" : "obj-3",
					"numoutlets" : 1,
					"fontname" : "Verdana",
					"outlettype" : [ "" ],
					"fontsize" : 10.0
				}

			}
, 			{
				"box" : 				{
					"maxclass" : "message",
					"text" : "/preset/store 9 Goof",
					"numinlets" : 2,
					"patching_rect" : [ 191.0, 422.0, 118.0, 17.0 ],
					"id" : "obj-4",
					"numoutlets" : 1,
					"fontname" : "Verdana",
					"outlettype" : [ "" ],
					"fontsize" : 10.0
				}

			}
, 			{
				"box" : 				{
					"maxclass" : "message",
					"text" : "/preset/store 8 Inversion",
					"numinlets" : 2,
					"patching_rect" : [ 177.0, 404.0, 143.0, 17.0 ],
					"id" : "obj-5",
					"numoutlets" : 1,
					"fontname" : "Verdana",
					"outlettype" : [ "" ],
					"fontsize" : 10.0
				}

			}
, 			{
				"box" : 				{
					"maxclass" : "message",
					"text" : "/preset/store 7 InvertedDownShift",
					"numinlets" : 2,
					"patching_rect" : [ 163.0, 386.0, 189.0, 17.0 ],
					"id" : "obj-6",
					"numoutlets" : 1,
					"fontname" : "Verdana",
					"outlettype" : [ "" ],
					"fontsize" : 10.0
				}

			}
, 			{
				"box" : 				{
					"maxclass" : "message",
					"text" : "/preset/store 6 Uncertainty",
					"numinlets" : 2,
					"patching_rect" : [ 149.0, 368.0, 155.0, 17.0 ],
					"id" : "obj-7",
					"numoutlets" : 1,
					"fontname" : "Verdana",
					"outlettype" : [ "" ],
					"fontsize" : 10.0
				}

			}
, 			{
				"box" : 				{
					"maxclass" : "message",
					"text" : "/preset/store 5 WayWayDown",
					"numinlets" : 2,
					"patching_rect" : [ 135.0, 350.0, 165.0, 17.0 ],
					"id" : "obj-8",
					"numoutlets" : 1,
					"fontname" : "Verdana",
					"outlettype" : [ "" ],
					"fontsize" : 10.0
				}

			}
, 			{
				"box" : 				{
					"maxclass" : "message",
					"text" : "/preset/store 4 UpShift",
					"numinlets" : 2,
					"patching_rect" : [ 121.0, 332.0, 133.0, 17.0 ],
					"id" : "obj-9",
					"numoutlets" : 1,
					"fontname" : "Verdana",
					"outlettype" : [ "" ],
					"fontsize" : 10.0
				}

			}
, 			{
				"box" : 				{
					"maxclass" : "message",
					"text" : "/preset/store 3 Expansion",
					"numinlets" : 2,
					"patching_rect" : [ 107.0, 314.0, 145.0, 17.0 ],
					"id" : "obj-10",
					"numoutlets" : 1,
					"fontname" : "Verdana",
					"outlettype" : [ "" ],
					"fontsize" : 10.0
				}

			}
, 			{
				"box" : 				{
					"maxclass" : "message",
					"text" : "/preset/store 2 Compression",
					"numinlets" : 2,
					"patching_rect" : [ 93.0, 296.0, 160.0, 17.0 ],
					"id" : "obj-11",
					"numoutlets" : 1,
					"fontname" : "Verdana",
					"outlettype" : [ "" ],
					"fontsize" : 10.0
				}

			}
, 			{
				"box" : 				{
					"maxclass" : "message",
					"text" : "preset/write",
					"numinlets" : 2,
					"patching_rect" : [ 200.0, 510.0, 77.0, 17.0 ],
					"id" : "obj-12",
					"numoutlets" : 1,
					"fontname" : "Verdana",
					"outlettype" : [ "" ],
					"fontsize" : 10.0
				}

			}
, 			{
				"box" : 				{
					"maxclass" : "message",
					"text" : "/preset/store 1 default",
					"numinlets" : 2,
					"patching_rect" : [ 79.0, 279.0, 131.0, 17.0 ],
					"id" : "obj-13",
					"numoutlets" : 1,
					"fontname" : "Verdana",
					"outlettype" : [ "" ],
					"fontsize" : 10.0
				}

			}
, 			{
				"box" : 				{
					"maxclass" : "message",
					"text" : "/documentation/generate",
					"numinlets" : 2,
					"patching_rect" : [ 50.0, 245.0, 139.0, 17.0 ],
					"id" : "obj-14",
					"numoutlets" : 1,
					"fontname" : "Verdana",
					"outlettype" : [ "" ],
					"fontsize" : 10.0
				}

			}
, 			{
				"box" : 				{
					"maxclass" : "message",
					"text" : "/init",
					"numinlets" : 2,
					"patching_rect" : [ 40.0, 225.0, 34.0, 17.0 ],
					"id" : "obj-15",
					"numoutlets" : 1,
					"fontname" : "Verdana",
					"outlettype" : [ "" ],
					"fontsize" : 10.0
				}

			}
, 			{
				"box" : 				{
					"maxclass" : "newobj",
					"text" : "jcom.out~ 2",
					"numinlets" : 2,
					"patching_rect" : [ 115.0, 185.0, 78.0, 19.0 ],
					"id" : "obj-16",
					"numoutlets" : 3,
					"fontname" : "Verdana",
					"outlettype" : [ "signal", "signal", "" ],
					"fontsize" : 10.0
				}

			}
, 			{
				"box" : 				{
					"maxclass" : "newobj",
					"text" : "jcom.in~ 2",
					"numinlets" : 2,
					"patching_rect" : [ 115.0, 125.0, 89.0, 19.0 ],
					"id" : "obj-17",
					"numoutlets" : 4,
					"fontname" : "Verdana",
					"outlettype" : [ "signal", "signal", "", "" ],
					"fontsize" : 10.0
				}

			}
, 			{
				"box" : 				{
					"maxclass" : "newobj",
					"varname" : "destHigh",
					"text" : "jcom.parameter destHigh @ramp/drive scheduler @description \"The spectral_warp takes an FFT and then scales the numbers that are used for the FFT bin and reassociates the spectral data with the new bin numbers. Thus the parameters are the range of the original bin numbers (srcLow and srcHigh) which are scaled to the range if the destination bin numbers (destLow and destHigh). The mathematical relationship of the scale actually extends beyond these ranges as long as there is data present to remap.\"",
					"linecount" : 6,
					"numinlets" : 1,
					"patching_rect" : [ 312.0, 245.0, 499.0, 79.0 ],
					"id" : "obj-18",
					"numoutlets" : 3,
					"fontname" : "Verdana",
					"outlettype" : [ "", "", "" ],
					"fontsize" : 10.0
				}

			}
, 			{
				"box" : 				{
					"maxclass" : "newobj",
					"varname" : "destLow",
					"text" : "jcom.parameter destLow @ramp/drive scheduler @description \"The spectral_warp takes an FFT and then scales the numbers that are used for the FFT bin and reassociates the spectral data with the new bin numbers. Thus the parameters are the range of the original bin numbers (srcLow and srcHigh) which are scaled to the range if the destination bin numbers (destLow and destHigh). The mathematical relationship of the scale actually extends beyond these ranges as long as there is data present to remap.\"",
					"linecount" : 6,
					"numinlets" : 1,
					"patching_rect" : [ 312.0, 165.0, 499.0, 79.0 ],
					"id" : "obj-19",
					"numoutlets" : 3,
					"fontname" : "Verdana",
					"outlettype" : [ "", "", "" ],
					"fontsize" : 10.0
				}

			}
, 			{
				"box" : 				{
					"maxclass" : "newobj",
					"varname" : "srcHigh",
					"text" : "jcom.parameter srcHigh @ramp/drive scheduler @description \"The spectral_warp takes an FFT and then scales the numbers that are used for the FFT bin and reassociates the spectral data with the new bin numbers. Thus the parameters are the range of the original bin numbers (srcLow and srcHigh) which are scaled to the range if the destination bin numbers (destLow and destHigh). The mathematical relationship of the scale actually extends beyond these ranges as long as there is data present to remap.\"",
					"linecount" : 6,
					"numinlets" : 1,
					"patching_rect" : [ 312.0, 85.0, 499.0, 79.0 ],
					"id" : "obj-20",
					"numoutlets" : 3,
					"fontname" : "Verdana",
					"outlettype" : [ "", "", "" ],
					"fontsize" : 10.0
				}

			}
, 			{
				"box" : 				{
					"maxclass" : "newobj",
					"varname" : "srcLow",
					"text" : "jcom.parameter srcLow @ramp/drive scheduler @description \"The spectral_warp takes an FFT and then scales the numbers that are used for the FFT bin and reassociates the spectral data with the new bin numbers. Thus the parameters are the range of the original bin numbers (srcLow and srcHigh) which are scaled to the range if the destination bin numbers (destLow and destHigh). The mathematical relationship of the scale actually extends beyond these ranges as long as there is data present to remap.\"",
					"linecount" : 6,
					"numinlets" : 1,
					"patching_rect" : [ 312.0, 5.0, 499.0, 79.0 ],
					"id" : "obj-21",
					"numoutlets" : 3,
					"fontname" : "Verdana",
					"outlettype" : [ "", "", "" ],
					"fontsize" : 10.0
				}

			}
, 			{
				"box" : 				{
					"maxclass" : "flonum",
					"numinlets" : 1,
					"bgcolor" : [ 1.0, 1.0, 1.0, 0.0 ],
					"patching_rect" : [ 180.0, 45.0, 43.0, 19.0 ],
					"id" : "obj-22",
					"numoutlets" : 2,
					"fontname" : "Verdana",
					"textcolor" : [ 0.709804, 0.709804, 0.709804, 1.0 ],
					"outlettype" : [ "float", "bang" ],
					"triangle" : 0,
					"hbgcolor" : [ 1.0, 1.0, 1.0, 0.0 ],
					"fontsize" : 10.0,
					"bordercolor" : [ 1.0, 1.0, 1.0, 0.0 ],
					"triscale" : 0.9
				}

			}
, 			{
				"box" : 				{
					"maxclass" : "flonum",
					"numinlets" : 1,
					"bgcolor" : [ 1.0, 1.0, 1.0, 0.0 ],
					"patching_rect" : [ 180.0, 25.0, 43.0, 19.0 ],
					"id" : "obj-23",
					"numoutlets" : 2,
					"fontname" : "Verdana",
					"textcolor" : [ 0.709804, 0.709804, 0.709804, 1.0 ],
					"outlettype" : [ "float", "bang" ],
					"triangle" : 0,
					"hbgcolor" : [ 1.0, 1.0, 1.0, 0.0 ],
					"fontsize" : 10.0,
					"bordercolor" : [ 1.0, 1.0, 1.0, 0.0 ],
					"triscale" : 0.9
				}

			}
, 			{
				"box" : 				{
					"maxclass" : "flonum",
					"numinlets" : 1,
					"bgcolor" : [ 1.0, 1.0, 1.0, 0.0 ],
					"patching_rect" : [ 65.0, 45.0, 43.0, 19.0 ],
					"id" : "obj-24",
					"numoutlets" : 2,
					"fontname" : "Verdana",
					"textcolor" : [ 0.709804, 0.709804, 0.709804, 1.0 ],
					"outlettype" : [ "float", "bang" ],
					"triangle" : 0,
					"hbgcolor" : [ 1.0, 1.0, 1.0, 0.0 ],
					"fontsize" : 10.0,
					"bordercolor" : [ 1.0, 1.0, 1.0, 0.0 ],
					"triscale" : 0.9
				}

			}
, 			{
				"box" : 				{
					"maxclass" : "flonum",
					"numinlets" : 1,
					"bgcolor" : [ 1.0, 1.0, 1.0, 0.0 ],
					"patching_rect" : [ 65.0, 25.0, 43.0, 19.0 ],
					"id" : "obj-25",
					"numoutlets" : 2,
					"fontname" : "Verdana",
					"textcolor" : [ 0.709804, 0.709804, 0.709804, 1.0 ],
					"outlettype" : [ "float", "bang" ],
					"triangle" : 0,
					"hbgcolor" : [ 1.0, 1.0, 1.0, 0.0 ],
					"fontsize" : 10.0,
					"bordercolor" : [ 1.0, 1.0, 1.0, 0.0 ],
					"triscale" : 0.9
				}

			}
, 			{
				"box" : 				{
					"maxclass" : "comment",
					"text" : "destHigh:",
					"numinlets" : 1,
					"frgb" : [ 0.584314, 0.584314, 0.584314, 1.0 ],
					"patching_rect" : [ 125.0, 45.0, 57.0, 19.0 ],
					"id" : "obj-26",
					"numoutlets" : 0,
					"fontname" : "Verdana",
					"textcolor" : [ 0.584314, 0.584314, 0.584314, 1.0 ],
					"fontsize" : 10.0
				}

			}
, 			{
				"box" : 				{
					"maxclass" : "comment",
					"text" : "destLow:",
					"numinlets" : 1,
					"frgb" : [ 0.584314, 0.584314, 0.584314, 1.0 ],
					"patching_rect" : [ 125.0, 25.0, 60.0, 19.0 ],
					"id" : "obj-27",
					"numoutlets" : 0,
					"fontname" : "Verdana",
					"textcolor" : [ 0.584314, 0.584314, 0.584314, 1.0 ],
					"fontsize" : 10.0
				}

			}
, 			{
				"box" : 				{
					"maxclass" : "comment",
					"text" : "srcHigh:",
					"numinlets" : 1,
					"frgb" : [ 0.584314, 0.584314, 0.584314, 1.0 ],
					"patching_rect" : [ 15.0, 45.0, 56.0, 19.0 ],
					"id" : "obj-28",
					"numoutlets" : 0,
					"fontname" : "Verdana",
					"textcolor" : [ 0.584314, 0.584314, 0.584314, 1.0 ],
					"fontsize" : 10.0
				}

			}
, 			{
				"box" : 				{
					"maxclass" : "comment",
					"text" : "srcLow:",
					"numinlets" : 1,
					"frgb" : [ 0.584314, 0.584314, 0.584314, 1.0 ],
					"patching_rect" : [ 15.0, 25.0, 53.0, 19.0 ],
					"id" : "obj-29",
					"numoutlets" : 0,
					"fontname" : "Verdana",
					"textcolor" : [ 0.584314, 0.584314, 0.584314, 1.0 ],
					"fontsize" : 10.0
				}

			}
, 			{
				"box" : 				{
					"maxclass" : "newobj",
					"text" : "jcom.hub @description \"Idiosyncratic spectral mangling.\"",
					"numinlets" : 1,
					"patching_rect" : [ 15.0, 540.0, 299.0, 19.0 ],
					"id" : "obj-32",
					"numoutlets" : 2,
					"fontname" : "Verdana",
					"outlettype" : [ "", "" ],
					"fontsize" : 10.0
				}

			}
, 			{
				"box" : 				{
					"maxclass" : "outlet",
					"numinlets" : 1,
					"patching_rect" : [ 145.0, 215.0, 20.0, 20.0 ],
					"id" : "obj-33",
					"numoutlets" : 0,
					"comment" : ""
				}

			}
, 			{
				"box" : 				{
					"maxclass" : "inlet",
					"numinlets" : 0,
					"patching_rect" : [ 115.0, 100.0, 20.0, 20.0 ],
					"id" : "obj-34",
					"numoutlets" : 1,
					"outlettype" : [ "" ],
					"comment" : ""
				}

			}
, 			{
				"box" : 				{
					"maxclass" : "outlet",
					"numinlets" : 1,
					"patching_rect" : [ 15.0, 575.0, 20.0, 20.0 ],
					"id" : "obj-37",
					"numoutlets" : 0,
					"comment" : ""
				}

			}
, 			{
				"box" : 				{
					"maxclass" : "inlet",
					"numinlets" : 0,
					"patching_rect" : [ 185.0, 100.0, 20.0, 20.0 ],
					"id" : "obj-38",
					"numoutlets" : 1,
					"outlettype" : [ "" ],
					"comment" : ""
				}

			}
, 			{
				"box" : 				{
					"maxclass" : "outlet",
					"numinlets" : 1,
					"patching_rect" : [ 115.0, 215.0, 20.0, 20.0 ],
					"id" : "obj-39",
					"numoutlets" : 0,
					"comment" : ""
				}

			}
, 			{
				"box" : 				{
					"maxclass" : "inlet",
					"numinlets" : 0,
					"patching_rect" : [ 15.0, 210.0, 20.0, 20.0 ],
					"id" : "obj-40",
					"numoutlets" : 1,
					"outlettype" : [ "" ],
					"comment" : ""
				}

			}
, 			{
				"box" : 				{
					"maxclass" : "jcom.ui",
					"text" : "/editing_this_module",
					"numinlets" : 1,
					"has_meters" : 1,
					"has_gain" : 1,
					"id" : "obj-41",
					"numoutlets" : 1,
					"has_mix" : 1,
					"prefix" : "audio",
					"outlettype" : [ "" ],
					"has_mute" : 1,
					"has_bypass" : 1
				}

			}
 ],
		"lines" : [ 			{
				"patchline" : 				{
					"source" : [ "obj-18", 0 ],
					"destination" : [ "obj-22", 0 ],
					"hidden" : 1,
					"midpoints" : [  ]
				}

			}
, 			{
				"patchline" : 				{
					"source" : [ "obj-22", 0 ],
					"destination" : [ "obj-18", 0 ],
					"hidden" : 1,
					"midpoints" : [  ]
				}

			}
, 			{
				"patchline" : 				{
					"source" : [ "obj-19", 0 ],
					"destination" : [ "obj-23", 0 ],
					"hidden" : 1,
					"midpoints" : [  ]
				}

			}
, 			{
				"patchline" : 				{
					"source" : [ "obj-23", 0 ],
					"destination" : [ "obj-19", 0 ],
					"hidden" : 1,
					"midpoints" : [  ]
				}

			}
, 			{
				"patchline" : 				{
					"source" : [ "obj-20", 0 ],
					"destination" : [ "obj-24", 0 ],
					"hidden" : 1,
					"midpoints" : [  ]
				}

			}
, 			{
				"patchline" : 				{
					"source" : [ "obj-24", 0 ],
					"destination" : [ "obj-20", 0 ],
					"hidden" : 1,
					"midpoints" : [  ]
				}

			}
, 			{
				"patchline" : 				{
					"source" : [ "obj-21", 0 ],
					"destination" : [ "obj-25", 0 ],
					"hidden" : 1,
					"midpoints" : [  ]
				}

			}
, 			{
				"patchline" : 				{
					"source" : [ "obj-25", 0 ],
					"destination" : [ "obj-21", 0 ],
					"hidden" : 1,
					"midpoints" : [  ]
				}

			}
, 			{
				"patchline" : 				{
					"source" : [ "obj-1", 0 ],
					"destination" : [ "obj-32", 0 ],
					"hidden" : 0,
					"midpoints" : [  ]
				}

			}
, 			{
				"patchline" : 				{
					"source" : [ "obj-2", 0 ],
					"destination" : [ "obj-32", 0 ],
					"hidden" : 0,
					"midpoints" : [  ]
				}

			}
, 			{
				"patchline" : 				{
					"source" : [ "obj-3", 0 ],
					"destination" : [ "obj-32", 0 ],
					"hidden" : 0,
					"midpoints" : [  ]
				}

			}
, 			{
				"patchline" : 				{
					"source" : [ "obj-4", 0 ],
					"destination" : [ "obj-32", 0 ],
					"hidden" : 0,
					"midpoints" : [  ]
				}

			}
, 			{
				"patchline" : 				{
					"source" : [ "obj-5", 0 ],
					"destination" : [ "obj-32", 0 ],
					"hidden" : 0,
					"midpoints" : [  ]
				}

			}
, 			{
				"patchline" : 				{
					"source" : [ "obj-6", 0 ],
					"destination" : [ "obj-32", 0 ],
					"hidden" : 0,
					"midpoints" : [  ]
				}

			}
, 			{
				"patchline" : 				{
					"source" : [ "obj-7", 0 ],
					"destination" : [ "obj-32", 0 ],
					"hidden" : 0,
					"midpoints" : [  ]
				}

			}
, 			{
				"patchline" : 				{
					"source" : [ "obj-8", 0 ],
					"destination" : [ "obj-32", 0 ],
					"hidden" : 0,
					"midpoints" : [  ]
				}

			}
, 			{
				"patchline" : 				{
					"source" : [ "obj-9", 0 ],
					"destination" : [ "obj-32", 0 ],
					"hidden" : 0,
					"midpoints" : [  ]
				}

			}
, 			{
				"patchline" : 				{
					"source" : [ "obj-10", 0 ],
					"destination" : [ "obj-32", 0 ],
					"hidden" : 0,
					"midpoints" : [  ]
				}

			}
, 			{
				"patchline" : 				{
					"source" : [ "obj-11", 0 ],
					"destination" : [ "obj-32", 0 ],
					"hidden" : 0,
					"midpoints" : [  ]
				}

			}
, 			{
				"patchline" : 				{
					"source" : [ "obj-13", 0 ],
					"destination" : [ "obj-32", 0 ],
					"hidden" : 0,
					"midpoints" : [  ]
				}

			}
, 			{
				"patchline" : 				{
					"source" : [ "obj-12", 0 ],
					"destination" : [ "obj-32", 0 ],
					"hidden" : 0,
					"midpoints" : [  ]
				}

			}
, 			{
				"patchline" : 				{
					"source" : [ "obj-14", 0 ],
					"destination" : [ "obj-32", 0 ],
					"hidden" : 0,
					"midpoints" : [  ]
				}

			}
, 			{
				"patchline" : 				{
					"source" : [ "obj-15", 0 ],
					"destination" : [ "obj-32", 0 ],
					"hidden" : 0,
					"midpoints" : [  ]
				}

			}
, 			{
				"patchline" : 				{
					"source" : [ "obj-40", 0 ],
					"destination" : [ "obj-32", 0 ],
					"hidden" : 0,
					"midpoints" : [  ]
				}

			}
, 			{
				"patchline" : 				{
					"source" : [ "obj-32", 0 ],
					"destination" : [ "obj-37", 0 ],
					"hidden" : 0,
					"midpoints" : [  ]
				}

			}
, 			{
				"patchline" : 				{
					"source" : [ "obj-42", 2 ],
					"destination" : [ "obj-16", 1 ],
					"hidden" : 0,
					"midpoints" : [  ]
				}

			}
, 			{
				"patchline" : 				{
					"source" : [ "obj-42", 1 ],
					"destination" : [ "obj-16", 0 ],
					"hidden" : 0,
					"midpoints" : [  ]
				}

			}
, 			{
				"patchline" : 				{
					"source" : [ "obj-17", 1 ],
					"destination" : [ "obj-42", 2 ],
					"hidden" : 0,
					"midpoints" : [  ]
				}

			}
, 			{
				"patchline" : 				{
					"source" : [ "obj-17", 0 ],
					"destination" : [ "obj-42", 1 ],
					"hidden" : 0,
					"midpoints" : [  ]
				}

			}
, 			{
				"patchline" : 				{
					"source" : [ "obj-16", 1 ],
					"destination" : [ "obj-33", 0 ],
					"hidden" : 0,
					"midpoints" : [  ]
				}

			}
, 			{
				"patchline" : 				{
					"source" : [ "obj-38", 0 ],
					"destination" : [ "obj-17", 1 ],
					"hidden" : 0,
					"midpoints" : [  ]
				}

			}
, 			{
				"patchline" : 				{
					"source" : [ "obj-16", 0 ],
					"destination" : [ "obj-39", 0 ],
					"hidden" : 0,
					"midpoints" : [  ]
				}

			}
, 			{
				"patchline" : 				{
					"source" : [ "obj-34", 0 ],
					"destination" : [ "obj-17", 0 ],
					"hidden" : 0,
					"midpoints" : [  ]
				}

			}
 ]
	}

}
