max v2;#N vpatcher 183 98 866 366;#P window setfont "Sans Serif" 9.;#P window linecount 1;#P newex 5 90 165 196617 pak color 0. 0. 0. 0.;#P message 517 85 76 196617 alphaignore \$1;#P message 445 85 60 196617 maxkey \$1;#P message 373 86 57 196617 minkey \$1;#P message 301 87 44 196617 fade \$1;#P message 229 87 35 196617 tol \$1;#N comlet video input 2 (background);#P inlet 93 135 15 0;#N comlet video input 1 (key);#P inlet 18 134 15 0;#P inlet 3 38 15 0;#P comment 45 190 75 196617 VIDEO OUTPUT;#P outlet 30 190 15 0;#P newex 30 158 73 196617 jit.chromakey;#P newex 13 57 589 196617 jcom.oscroute /key/red /key/green /key/blue /tolerance /fade /minkey /maxkey /alphaignore;#P connect 4 0 0 0;#P fasten 5 0 1 0 23 153 35 153;#P fasten 7 0 1 0 234 133 35 133;#P fasten 8 0 1 0 306 133 35 133;#P fasten 9 0 1 0 378 133 35 133;#P fasten 10 0 1 0 450 133 35 133;#P fasten 11 0 1 0 522 132 35 132;#P fasten 12 0 1 0 10 132 35 132;#P connect 1 0 2 0;#P connect 0 0 12 2;#P fasten 6 0 1 1 98 156 98 156;#P connect 0 1 12 3;#P connect 0 2 12 4;#P connect 0 3 7 0;#P connect 0 4 8 0;#P connect 0 5 9 0;#P connect 0 6 10 0;#P connect 0 7 11 0;#P pop;