max v2;#N vpatcher 172 44 1072 634;#P origin 0 -21;#P window setfont "Sans Serif" 9.;#P flonum 154 42 35 9 0. 0 8225 3 181 181 181 221 221 221 255 255 255 0 0 0;#P objectname noise-threshold;#P user radiogroup 35 42 18 16;#X size 1;#X offset 16;#X inactive 0;#X itemtype 1;#X flagmode 0;#X set 1;#X done;#P objectname filter-on;#P hidden newex 446 441 248 196617 jcom.parameter noise @type msg_float @description "Set threshold level for the noise reduction";#P objectname noise[2];#P window linecount 1;#P hidden newex 446 421 104 196617 pvar noise-threshold;#P window linecount 2;#P hidden newex 445 262 218 196617 jcom.parameter filter/on @type msg_toggle @description "Turn low pass filter on and off";#P objectname filter/on;#P window linecount 1;#P hidden newex 445 242 73 196617 pvar filter-on;#P user radiogroup 137 42 18 16;#X size 1;#X offset 16;#X inactive 0;#X itemtype 1;#X flagmode 0;#X set 1;#X done;#P objectname noise-on;#P hidden newex 446 384 372 196617 jcom.parameter noise @type msg_toggle @description "Turn on noise reduction";#P objectname noise[1];#P hidden newex 446 364 72 196617 pvar noise-on;#P comment 110 44 33 196617 noise;#B frgb 149 149 149;#P flonum 52 42 35 9 0. 0 8225 3 181 181 181 221 221 221 255 255 255 0 0 0;#P objectname filter-threshold;#P comment 5 44 34 196617 filter;#B frgb 149 149 149;#P window linecount 2;#P hidden newex 446 324 286 196617 jcom.parameter filter/threshold @type msg_float @description "Set the threshold level for the low pass filter";#P objectname filter/threshold;#P window linecount 1;#P hidden newex 446 304 105 196617 pvar filter-threshold;#P user jsui 111 22 44 16 1 0 0 jcom.jsui_texttoggle.js record recording;#P objectname Record;#P hidden newex 445 166 65 196617 pvar Record;#P window linecount 2;#P hidden newex 445 188 246 196617 jcom.parameter record @type msg_int @description "Turn on recording of the background image.";#P objectname record;#P user umenu 5 22 100 196647 1 64 38 1;#X add Select mode;#X add Simple;#X add Slide;#X add Mask;#X add Mean;#P objectname Mode;#P window linecount 1;#P hidden newex 44 281 49 196617 jcom.out;#P hidden inlet 144 165 13 0;#P hidden comment 159 166 65 196617 VIDEO INPUT;#P hidden newex 144 182 52 196617 jcom.in 1;#P hidden newex 44 230 47 196617 pcontrol;#P hidden newex 44 209 78 196617 jcom.pass open;#P hidden newex 445 92 57 196617 pvar Mode;#P window linecount 2;#P hidden newex 445 114 278 196617 jcom.parameter mode @type msg_int @description "Choose between four different background subtraction models.";#P objectname mode;#P window linecount 1;#P hidden message 99 86 125 196617 /documentation/generate;#B color 3;#P hidden comment 59 308 75 196617 VIDEO OUTPUT;#P hidden outlet 44 308 13 0;#P hidden newex 44 257 110 196617 jalg.background%;#P hidden comment 15 84 79 196617 command input;#P window linecount 2;#P hidden newex 1 109 378 196617 jcom.hub jmod.background% @size 1U-half @module_type video @algorithm_type jitter @description "Two different types of video background subtraction";#P objectname jcom.hub;#P hidden outlet 1 171 13 0;#P hidden inlet 1 84 13 0;#P bpatcher 0 0 256 60 0 0 jcom.gui 0;#P objectname jcom.gui;#P hidden fasten 8 0 3 0 104 105 6 105;#P hidden connect 1 0 3 0;#P hidden connect 3 0 2 0;#P hidden fasten 13 1 11 0 170 204 49 204;#P hidden connect 11 0 12 0;#P hidden fasten 11 1 5 0 117 250 49 250;#P hidden connect 12 0 5 0;#P hidden connect 5 0 16 0;#P hidden connect 16 0 6 0;#P hidden connect 15 0 13 0;#P hidden connect 13 0 5 2;#P hidden fasten 9 0 10 0 450 149 439 149 439 88 450 88;#P hidden connect 10 0 9 0;#P hidden fasten 18 0 19 0 450 223 439 223 439 162 450 162;#P hidden connect 19 0 18 0;#P hidden fasten 30 0 29 0 450 287 440 287 440 237 450 237;#P hidden connect 29 0 30 0;#P hidden fasten 22 0 21 0 451 349 441 349 441 299 451 299;#P hidden connect 21 0 22 0;#P hidden fasten 27 0 26 0 451 409 441 409 441 359 451 359;#P hidden connect 26 0 27 0;#P hidden fasten 32 0 31 0 451 475 441 475 441 416 451 416;#P hidden connect 31 0 32 0;#P pop;