{
	"patcher" : 	{
		"rect" : [ 18.0, 54.0, 837.0, 445.0 ],
		"bgcolor" : [ 1.0, 1.0, 1.0, 1.0 ],
		"bglocked" : 0,
		"defrect" : [ 18.0, 54.0, 837.0, 445.0 ],
		"openinpresentation" : 0,
		"default_fontsize" : 10.0,
		"default_fontface" : 0,
		"default_fontname" : "Verdana",
		"gridonopen" : 0,
		"gridsize" : [ 15.0, 15.0 ],
		"gridsnaponopen" : 0,
		"toolbarvisible" : 1,
		"boxfadetime" : 200,
		"boxanimatetime" : 200,
		"scrollanimatetime" : 200,
		"metadata" : [  ],
		"boxes" : [ 			{
				"box" : 				{
					"maxclass" : "comment",
					"text" : "Mode 1: is a simple background removal based on recording the background and subtracting this recorded image from the input image. A low-pass filter is applied to recorded image to remove any unwanted movements, changing light, or other types of artifacts that may reduce the quality of the background removal process. \r\rMode 2: is a more advanced background removal based on finding a \"foreground mask\" which is used for subtraction. This technique results in a better foreground\/background separation. Unfortunately, this technique is much more computationally expensive than the simple background removal technique. Choosing one of these therefore depends on the processing load of the rest of the patch.\r",
					"linecount" : 17,
					"numinlets" : 1,
					"patching_rect" : [ 627.0, 151.0, 208.0, 186.0 ],
					"numoutlets" : 0,
					"fontsize" : 9.0,
					"fontname" : "Verdana",
					"id" : "obj-1"
				}

			}
, 			{
				"box" : 				{
					"maxclass" : "comment",
					"text" : "In computer vision it is common to talk about the background and the foreground of an image. The foreground is typically an object or a person which is the focus of the analysis, while the background may be considered \"noise\" that should be removed to enhance the foreground. \r\rThis module contains two different algorithms for carrying out background subtraction: \r",
					"linecount" : 9,
					"numinlets" : 1,
					"patching_rect" : [ 610.0, 27.0, 219.0, 101.0 ],
					"numoutlets" : 0,
					"fontsize" : 9.0,
					"fontname" : "Verdana",
					"id" : "obj-2"
				}

			}
, 			{
				"box" : 				{
					"maxclass" : "bpatcher",
					"varname" : "\/input%",
					"name" : "jmod.input%.mxt",
					"numinlets" : 1,
					"patching_rect" : [ 306.0, 26.0, 301.0, 69.0 ],
					"numoutlets" : 2,
					"outlettype" : [ "", "" ],
					"id" : "obj-3",
					"args" : [ "\/input%" ],
					"lockeddragscroll" : 1
				}

			}
, 			{
				"box" : 				{
					"maxclass" : "bpatcher",
					"name" : "jmod.video_params.maxpat",
					"numinlets" : 0,
					"patching_rect" : [ 13.0, 87.0, 273.0, 146.0 ],
					"numoutlets" : 1,
					"outlettype" : [ "" ],
					"id" : "obj-4",
					"args" : [  ],
					"lockeddragscroll" : 1
				}

			}
, 			{
				"box" : 				{
					"maxclass" : "comment",
					"text" : "jmod.background%",
					"numinlets" : 1,
					"patching_rect" : [ 19.0, 34.0, 189.0, 28.0 ],
					"numoutlets" : 0,
					"fontsize" : 15.799999,
					"fontname" : "Verdana",
					"frgb" : [ 1.0, 1.0, 1.0, 1.0 ],
					"id" : "obj-5",
					"textcolor" : [ 1.0, 1.0, 1.0, 1.0 ]
				}

			}
, 			{
				"box" : 				{
					"maxclass" : "comment",
					"text" : "Background video subtraction",
					"numinlets" : 1,
					"patching_rect" : [ 20.0, 60.0, 242.0, 17.0 ],
					"numoutlets" : 0,
					"fontsize" : 9.0,
					"fontname" : "Verdana",
					"frgb" : [ 1.0, 1.0, 1.0, 1.0 ],
					"id" : "obj-6",
					"textcolor" : [ 1.0, 1.0, 1.0, 1.0 ]
				}

			}
, 			{
				"box" : 				{
					"maxclass" : "panel",
					"numinlets" : 1,
					"bgcolor" : [ 0.262745, 0.254902, 0.419608, 1.0 ],
					"patching_rect" : [ 13.0, 18.0, 273.0, 63.0 ],
					"rounded" : 0,
					"numoutlets" : 0,
					"bordercolor" : [ 0.501961, 0.043137, 0.039216, 1.0 ],
					"id" : "obj-7"
				}

			}
, 			{
				"box" : 				{
					"maxclass" : "jit.fpsgui",
					"numinlets" : 1,
					"patching_rect" : [ 305.0, 364.0, 60.0, 30.533276 ],
					"numoutlets" : 1,
					"fontsize" : 9.0,
					"fontname" : "Verdana",
					"outlettype" : [ "" ],
					"id" : "obj-8"
				}

			}
, 			{
				"box" : 				{
					"maxclass" : "jit.pwindow",
					"numinlets" : 1,
					"depthbuffer" : 0,
					"patching_rect" : [ 304.0, 178.0, 240.0, 180.0 ],
					"numoutlets" : 2,
					"outlettype" : [ "", "" ],
					"id" : "obj-9"
				}

			}
, 			{
				"box" : 				{
					"maxclass" : "bpatcher",
					"varname" : "jmod.background%.mxt",
					"name" : "jmod.background%.maxpat",
					"numinlets" : 2,
					"patching_rect" : [ 306.0, 103.0, 301.0, 69.0 ],
					"numoutlets" : 2,
					"outlettype" : [ "", "" ],
					"id" : "obj-10",
					"args" : [ "\/background%" ],
					"lockeddragscroll" : 1
				}

			}
 ],
		"lines" : [ 			{
				"patchline" : 				{
					"source" : [ "obj-10", 1 ],
					"destination" : [ "obj-9", 0 ],
					"hidden" : 0,
					"midpoints" : [ 597.5, 174.0, 313.5, 174.0 ]
				}

			}
, 			{
				"patchline" : 				{
					"source" : [ "obj-9", 0 ],
					"destination" : [ "obj-8", 0 ],
					"hidden" : 0
				}

			}
, 			{
				"patchline" : 				{
					"source" : [ "obj-4", 0 ],
					"destination" : [ "obj-10", 0 ],
					"hidden" : 1
				}

			}
, 			{
				"patchline" : 				{
					"source" : [ "obj-3", 1 ],
					"destination" : [ "obj-10", 1 ],
					"hidden" : 0
				}

			}
 ]
	}

}
