max v2;
#N vpatcher 15 55 537 458;
#P origin -21 -185;
#P window setfont "Sans Serif" 9.;
#P window linecount 1;
#P hidden newex 57 325 109 9109513 jcom.pass /nvt @strip 0;
#P objectname jcom.hub[1];
#N comlet name value tables out \, with /data/0 prefix;
#P hidden outlet 57 352 13 0;
#P hidden newex 304 65 28 9109513 del 5;
#P hidden newex 264 84 28 9109513 del 5;
#P hidden newex 132 111 57 9109513 prepend set;
#P hidden user ftm.mess 49 155 50 15 139 9 255 255 255 0 0 0 1 2 0 0 0 --> 0;
#T _#ftm version 2 3;
#T _#scope begin;
#T _#absargs $0_ $1_ $2_ $3_ $4_ $5_ $6_ $7_ $8_ $9_;
#T _#line "_nvt $1";
#P hidden newex 49 111 57 9109513 prepend set;
#P hidden newex 49 89 48 9109513 route text;
#P hidden user ftm.object 49 133 30 18 139 9 --> 0;
#T _#obj 1 dict;
#T _#mess 1 set table_name setup-info;
#T _#def 1 _dict setup-info local;
#P hidden newex 132 178 405 9109513 jcom.return nvt @type msg_symbol @description "Name value tables to be written to sdif-file";
#P hidden user ftm.mess 132 155 50 15 139 9 255 255 255 0 0 0 1 2 0 0 0 --> 0;
#T _#line "_nvt $1";
#P hidden newex 132 89 48 9109513 route text;
#P hidden message 264 108 28 9109513 clear;
#P hidden newex 264 61 33 9109513 sel 13;
#P comment 1 42 61 9109513 other info;
#B frgb 181 181 181;
#P comment 216 43 38 9109513 add nvt;
#B frgb 181 181 181;
#P button 202 43 15 0;
#P objectname bt_opendialog[1];
#P user textedit 49 41 202 59 98436 139 9;
#P comment 1 21 61 9109513 setup info;
#B frgb 181 181 181;
#P hidden message 304 88 28 9109513 clear;
#P hidden newex 304 41 33 9109513 sel 13;
#P hidden user ftm.object 132 133 30 18 139 9 --> 0;
#T _#obj 2 dict;
#T _#mess 2 set table-name other-info;
#T _#def 1 _dict other-info local;
#T _#scope end;
#P hidden message 56 248 165 9109513 /preset/store 1 default \, /preset/write;
#P comment 216 22 38 9109513 add nvt;
#B frgb 181 181 181;
#P button 202 22 15 0;
#P objectname bt_opendialog;
#P user textedit 49 20 202 38 98436 139 9;
#P hidden message 49 229 118 9109513 /documentation/generate;
#P window linecount 2;
#P hidden newex 32 274 263 9109513 jcom.hub jmod.sdif.record.nvt @size 1U-half @module_type control @description "write name value tables to the sdif file";
#P objectname jcom.hub;
#P hidden inlet 32 250 13 0;
#P hidden outlet 32 352 13 0;
#P bpatcher 0 0 256 61 0 0 jcom.gui.mxt 0 $0_;
#P objectname jcom.gui.1Uh.a.stereo;
#P hidden fasten 4 0 3 0 54 268 37 268;
#P hidden connect 2 0 3 0;
#P hidden fasten 8 0 3 0 61 268 37 268;
#P hidden connect 3 0 1 0;
#P hidden fasten 11 0 5 0 309 109 339 109 339 19 54 19;
#P hidden fasten 18 0 13 0 269 127 298 127 298 40 54 40;
#P hidden connect 5 0 23 0;
#P hidden connect 23 0 24 0;
#P hidden connect 6 0 22 0;
#P hidden connect 24 0 22 0;
#P hidden connect 22 0 25 0;
#P hidden fasten 3 0 30 0 37 315 62 315;
#P hidden connect 30 0 29 0;
#P hidden connect 13 0 19 0;
#P hidden connect 19 0 26 0;
#P hidden connect 26 0 9 0;
#P hidden connect 14 0 9 0;
#P hidden connect 9 0 20 0;
#P hidden fasten 25 0 21 0 54 175 137 175;
#P hidden connect 20 0 21 0;
#P hidden fasten 13 1 17 0 125 59 269 59;
#P hidden connect 17 0 27 0;
#P hidden connect 27 0 18 0;
#P hidden fasten 5 1 10 0 125 38 309 38;
#P hidden connect 10 0 28 0;
#P hidden connect 28 0 11 0;
#P pop;
