{
	"patcher" : 	{
		"fileversion" : 1,
		"rect" : [ 20.0, 44.0, 623.0, 673.0 ],
		"bglocked" : 0,
		"defrect" : [ 20.0, 44.0, 623.0, 673.0 ],
		"openrect" : [ 0.0, 0.0, 0.0, 0.0 ],
		"openinpresentation" : 0,
		"default_fontsize" : 10.970939,
		"default_fontface" : 0,
		"default_fontname" : "Verdana",
		"gridonopen" : 0,
		"gridsize" : [ 5.0, 5.0 ],
		"gridsnaponopen" : 0,
		"toolbarvisible" : 1,
		"boxanimatetime" : 200,
		"imprint" : 0,
		"metadata" : [  ],
		"boxes" : [ 			{
				"box" : 				{
					"maxclass" : "message",
					"text" : "stop",
					"patching_rect" : [ 80.0, 590.0, 30.0, 17.0 ],
					"id" : "obj-1",
					"fontname" : "Verdana",
					"numinlets" : 2,
					"fontsize" : 10.0,
					"numoutlets" : 1,
					"outlettype" : [ "" ]
				}

			}
, 			{
				"box" : 				{
					"maxclass" : "message",
					"text" : "startwindow",
					"patching_rect" : [ 30.0, 570.0, 82.0, 17.0 ],
					"id" : "obj-2",
					"fontname" : "Verdana",
					"numinlets" : 2,
					"fontsize" : 10.0,
					"numoutlets" : 1,
					"outlettype" : [ "" ]
				}

			}
, 			{
				"box" : 				{
					"maxclass" : "newobj",
					"text" : "dac~ 1 2",
					"patching_rect" : [ 125.0, 635.0, 54.0, 19.0 ],
					"id" : "obj-3",
					"fontname" : "Verdana",
					"numinlets" : 2,
					"fontsize" : 10.0,
					"numoutlets" : 0
				}

			}
, 			{
				"box" : 				{
					"maxclass" : "comment",
					"text" : "jcom.multi.in~",
					"patching_rect" : [ 15.0, 10.0, 145.0, 28.0 ],
					"frgb" : [ 0.933333, 0.937255, 0.968627, 1.0 ],
					"id" : "obj-4",
					"fontname" : "Verdana",
					"numinlets" : 1,
					"fontsize" : 17.334082,
					"numoutlets" : 0
				}

			}
, 			{
				"box" : 				{
					"maxclass" : "comment",
					"text" : "Put audio signals on a multicable",
					"patching_rect" : [ 15.0, 35.0, 355.0, 19.0 ],
					"frgb" : [ 0.933333, 0.937255, 0.968627, 1.0 ],
					"id" : "obj-5",
					"fontname" : "Verdana",
					"numinlets" : 1,
					"fontsize" : 10.0,
					"numoutlets" : 0
				}

			}
, 			{
				"box" : 				{
					"maxclass" : "panel",
					"patching_rect" : [ 5.0, 5.0, 399.0, 55.0 ],
					"id" : "obj-6",
					"rounded" : 15,
					"numinlets" : 1,
					"numoutlets" : 0
				}

			}
, 			{
				"box" : 				{
					"maxclass" : "newobj",
					"text" : "*~ 0.2",
					"patching_rect" : [ 205.0, 510.0, 54.0, 19.0 ],
					"id" : "obj-7",
					"fontname" : "Verdana",
					"numinlets" : 2,
					"fontsize" : 10.0,
					"numoutlets" : 1,
					"outlettype" : [ "signal" ]
				}

			}
, 			{
				"box" : 				{
					"maxclass" : "newobj",
					"text" : "*~ 0.2",
					"patching_rect" : [ 125.0, 510.0, 54.0, 19.0 ],
					"id" : "obj-8",
					"fontname" : "Verdana",
					"numinlets" : 2,
					"fontsize" : 10.0,
					"numoutlets" : 1,
					"outlettype" : [ "signal" ]
				}

			}
, 			{
				"box" : 				{
					"maxclass" : "newobj",
					"text" : "cycle~ 440",
					"patching_rect" : [ 205.0, 485.0, 75.0, 19.0 ],
					"id" : "obj-9",
					"fontname" : "Verdana",
					"numinlets" : 2,
					"fontsize" : 10.0,
					"numoutlets" : 1,
					"outlettype" : [ "signal" ]
				}

			}
, 			{
				"box" : 				{
					"maxclass" : "newobj",
					"text" : "cycle~ 220",
					"patching_rect" : [ 125.0, 485.0, 75.0, 19.0 ],
					"id" : "obj-10",
					"fontname" : "Verdana",
					"numinlets" : 2,
					"fontsize" : 10.0,
					"numoutlets" : 1,
					"outlettype" : [ "signal" ]
				}

			}
, 			{
				"box" : 				{
					"maxclass" : "newobj",
					"text" : "jcom.multi.out~",
					"patching_rect" : [ 125.0, 575.0, 464.0, 19.0 ],
					"id" : "obj-11",
					"fontname" : "Verdana",
					"numinlets" : 2,
					"fontsize" : 10.0,
					"numoutlets" : 32,
					"outlettype" : [ "", "", "", "", "", "", "", "", "", "", "", "", "", "", "", "", "", "", "", "", "", "", "", "", "", "", "", "", "", "", "", "" ]
				}

			}
, 			{
				"box" : 				{
					"maxclass" : "newobj",
					"text" : "jcom.multi.in~",
					"patching_rect" : [ 125.0, 545.0, 464.0, 19.0 ],
					"id" : "obj-12",
					"fontname" : "Verdana",
					"numinlets" : 32,
					"fontsize" : 10.0,
					"numoutlets" : 1,
					"outlettype" : [ "" ]
				}

			}
, 			{
				"box" : 				{
					"maxclass" : "newobj",
					"text" : "phasor~ 2",
					"patching_rect" : [ 260.0, 260.0, 67.0, 19.0 ],
					"id" : "obj-13",
					"fontname" : "Verdana",
					"numinlets" : 2,
					"fontsize" : 10.0,
					"numoutlets" : 1,
					"outlettype" : [ "signal" ]
				}

			}
, 			{
				"box" : 				{
					"maxclass" : "scope~",
					"patching_rect" : [ 440.0, 410.0, 100.0, 50.0 ],
					"id" : "obj-14",
					"rounded" : 0,
					"bgcolor" : [ 0.529412, 0.529412, 0.529412, 1.0 ],
					"numinlets" : 2,
					"numoutlets" : 0
				}

			}
, 			{
				"box" : 				{
					"maxclass" : "scope~",
					"patching_rect" : [ 230.0, 410.0, 100.0, 50.0 ],
					"id" : "obj-15",
					"rounded" : 0,
					"bgcolor" : [ 0.529412, 0.529412, 0.529412, 1.0 ],
					"numinlets" : 2,
					"numoutlets" : 0
				}

			}
, 			{
				"box" : 				{
					"maxclass" : "scope~",
					"patching_rect" : [ 335.0, 410.0, 100.0, 50.0 ],
					"id" : "obj-16",
					"rounded" : 0,
					"bgcolor" : [ 0.529412, 0.529412, 0.529412, 1.0 ],
					"numinlets" : 2,
					"numoutlets" : 0
				}

			}
, 			{
				"box" : 				{
					"maxclass" : "scope~",
					"patching_rect" : [ 125.0, 410.0, 100.0, 50.0 ],
					"id" : "obj-17",
					"rounded" : 0,
					"bgcolor" : [ 0.529412, 0.529412, 0.529412, 1.0 ],
					"numinlets" : 2,
					"numoutlets" : 0
				}

			}
, 			{
				"box" : 				{
					"maxclass" : "newobj",
					"text" : "triangle~ 0.5",
					"linecount" : 2,
					"patching_rect" : [ 260.0, 285.0, 65.0, 31.0 ],
					"id" : "obj-18",
					"fontname" : "Verdana",
					"numinlets" : 2,
					"fontsize" : 10.0,
					"numoutlets" : 1,
					"outlettype" : [ "signal" ]
				}

			}
, 			{
				"box" : 				{
					"maxclass" : "newobj",
					"text" : "phasor~ 2",
					"patching_rect" : [ 190.0, 285.0, 67.0, 19.0 ],
					"id" : "obj-19",
					"fontname" : "Verdana",
					"numinlets" : 2,
					"fontsize" : 10.0,
					"numoutlets" : 1,
					"outlettype" : [ "signal" ]
				}

			}
, 			{
				"box" : 				{
					"maxclass" : "newobj",
					"text" : "cycle~ 2",
					"patching_rect" : [ 125.0, 285.0, 60.0, 19.0 ],
					"id" : "obj-20",
					"fontname" : "Verdana",
					"numinlets" : 2,
					"fontsize" : 10.0,
					"numoutlets" : 1,
					"outlettype" : [ "signal" ]
				}

			}
, 			{
				"box" : 				{
					"maxclass" : "newobj",
					"text" : "jcom.multi.out~ 5",
					"patching_rect" : [ 125.0, 370.0, 464.0, 19.0 ],
					"id" : "obj-21",
					"fontname" : "Verdana",
					"numinlets" : 2,
					"fontsize" : 10.0,
					"numoutlets" : 32,
					"outlettype" : [ "", "", "", "", "", "", "", "", "", "", "", "", "", "", "", "", "", "", "", "", "", "", "", "", "", "", "", "", "", "", "", "" ]
				}

			}
, 			{
				"box" : 				{
					"maxclass" : "newobj",
					"text" : "jcom.multi.in~ 5",
					"patching_rect" : [ 125.0, 345.0, 464.0, 19.0 ],
					"id" : "obj-22",
					"fontname" : "Verdana",
					"numinlets" : 32,
					"fontsize" : 10.0,
					"numoutlets" : 1,
					"outlettype" : [ "" ]
				}

			}
, 			{
				"box" : 				{
					"maxclass" : "number~",
					"patching_rect" : [ 290.0, 210.0, 53.0, 19.0 ],
					"id" : "obj-23",
					"fontname" : "Verdana",
					"mode" : 2,
					"interval" : 250.0,
					"sig" : 0.0,
					"htextcolor" : [ 0.870588, 0.870588, 0.870588, 1.0 ],
					"numinlets" : 2,
					"fontsize" : 10.0,
					"numoutlets" : 2,
					"outlettype" : [ "signal", "float" ]
				}

			}
, 			{
				"box" : 				{
					"maxclass" : "number~",
					"patching_rect" : [ 235.0, 210.0, 53.0, 19.0 ],
					"id" : "obj-24",
					"fontname" : "Verdana",
					"mode" : 2,
					"interval" : 250.0,
					"sig" : 0.0,
					"htextcolor" : [ 0.870588, 0.870588, 0.870588, 1.0 ],
					"numinlets" : 2,
					"fontsize" : 10.0,
					"numoutlets" : 2,
					"outlettype" : [ "signal", "float" ]
				}

			}
, 			{
				"box" : 				{
					"maxclass" : "number~",
					"patching_rect" : [ 180.0, 210.0, 53.0, 19.0 ],
					"id" : "obj-25",
					"fontname" : "Verdana",
					"mode" : 2,
					"interval" : 250.0,
					"sig" : 0.0,
					"htextcolor" : [ 0.870588, 0.870588, 0.870588, 1.0 ],
					"numinlets" : 2,
					"fontsize" : 10.0,
					"numoutlets" : 2,
					"outlettype" : [ "signal", "float" ]
				}

			}
, 			{
				"box" : 				{
					"maxclass" : "number~",
					"patching_rect" : [ 125.0, 210.0, 53.0, 19.0 ],
					"id" : "obj-26",
					"fontname" : "Verdana",
					"mode" : 2,
					"interval" : 250.0,
					"sig" : 0.0,
					"htextcolor" : [ 0.870588, 0.870588, 0.870588, 1.0 ],
					"numinlets" : 2,
					"fontsize" : 10.0,
					"numoutlets" : 2,
					"outlettype" : [ "signal", "float" ]
				}

			}
, 			{
				"box" : 				{
					"maxclass" : "newobj",
					"text" : "jcom.multi.out~",
					"patching_rect" : [ 125.0, 170.0, 464.0, 19.0 ],
					"id" : "obj-27",
					"fontname" : "Verdana",
					"numinlets" : 2,
					"fontsize" : 10.0,
					"numoutlets" : 32,
					"outlettype" : [ "", "", "", "", "", "", "", "", "", "", "", "", "", "", "", "", "", "", "", "", "", "", "", "", "", "", "", "", "", "", "", "" ]
				}

			}
, 			{
				"box" : 				{
					"maxclass" : "newobj",
					"text" : "jcom.multi.in~",
					"patching_rect" : [ 125.0, 145.0, 464.0, 19.0 ],
					"id" : "obj-28",
					"fontname" : "Verdana",
					"numinlets" : 32,
					"fontsize" : 10.0,
					"numoutlets" : 1,
					"outlettype" : [ "" ]
				}

			}
, 			{
				"box" : 				{
					"maxclass" : "newobj",
					"text" : "sig~ 8",
					"patching_rect" : [ 275.0, 100.0, 47.0, 19.0 ],
					"id" : "obj-29",
					"fontname" : "Verdana",
					"numinlets" : 1,
					"fontsize" : 10.0,
					"numoutlets" : 1,
					"outlettype" : [ "signal" ]
				}

			}
, 			{
				"box" : 				{
					"maxclass" : "newobj",
					"text" : "sig~ 4",
					"patching_rect" : [ 225.0, 100.0, 47.0, 19.0 ],
					"id" : "obj-30",
					"fontname" : "Verdana",
					"numinlets" : 1,
					"fontsize" : 10.0,
					"numoutlets" : 1,
					"outlettype" : [ "signal" ]
				}

			}
, 			{
				"box" : 				{
					"maxclass" : "newobj",
					"text" : "sig~ 2",
					"patching_rect" : [ 175.0, 100.0, 47.0, 19.0 ],
					"id" : "obj-31",
					"fontname" : "Verdana",
					"numinlets" : 1,
					"fontsize" : 10.0,
					"numoutlets" : 1,
					"outlettype" : [ "signal" ]
				}

			}
, 			{
				"box" : 				{
					"maxclass" : "newobj",
					"text" : "sig~ 1",
					"patching_rect" : [ 125.0, 100.0, 47.0, 19.0 ],
					"id" : "obj-32",
					"fontname" : "Verdana",
					"numinlets" : 1,
					"fontsize" : 10.0,
					"numoutlets" : 1,
					"outlettype" : [ "signal" ]
				}

			}
, 			{
				"box" : 				{
					"maxclass" : "newobj",
					"text" : "rect~ 2",
					"patching_rect" : [ 330.0, 285.0, 54.0, 19.0 ],
					"id" : "obj-33",
					"fontname" : "Verdana",
					"numinlets" : 3,
					"fontsize" : 10.0,
					"numoutlets" : 1,
					"outlettype" : [ "signal" ]
				}

			}
, 			{
				"box" : 				{
					"maxclass" : "comment",
					"text" : "Argument: Channel offset (default 0)",
					"patching_rect" : [ 15.0, 65.0, 240.0, 19.0 ],
					"frgb" : [ 0.933333, 0.937255, 0.968627, 1.0 ],
					"id" : "obj-34",
					"fontname" : "Verdana",
					"numinlets" : 1,
					"fontsize" : 10.0,
					"numoutlets" : 0
				}

			}
 ],
		"lines" : [ 			{
				"patchline" : 				{
					"source" : [ "obj-21", 3 ],
					"destination" : [ "obj-14", 0 ],
					"hidden" : 0,
					"midpoints" : [ 177.564514, 397.0, 449.5, 397.0 ]
				}

			}
, 			{
				"patchline" : 				{
					"source" : [ "obj-21", 2 ],
					"destination" : [ "obj-16", 0 ],
					"hidden" : 0,
					"midpoints" : [ 163.209671, 400.0, 344.5, 400.0 ]
				}

			}
, 			{
				"patchline" : 				{
					"source" : [ "obj-21", 1 ],
					"destination" : [ "obj-15", 0 ],
					"hidden" : 0,
					"midpoints" : [ 148.854843, 403.0, 239.5, 403.0 ]
				}

			}
, 			{
				"patchline" : 				{
					"source" : [ "obj-21", 0 ],
					"destination" : [ "obj-17", 0 ],
					"hidden" : 0,
					"midpoints" : [  ]
				}

			}
, 			{
				"patchline" : 				{
					"source" : [ "obj-22", 0 ],
					"destination" : [ "obj-21", 0 ],
					"hidden" : 0,
					"midpoints" : [  ]
				}

			}
, 			{
				"patchline" : 				{
					"source" : [ "obj-13", 0 ],
					"destination" : [ "obj-18", 0 ],
					"hidden" : 0,
					"midpoints" : [  ]
				}

			}
, 			{
				"patchline" : 				{
					"source" : [ "obj-9", 0 ],
					"destination" : [ "obj-7", 0 ],
					"hidden" : 0,
					"midpoints" : [  ]
				}

			}
, 			{
				"patchline" : 				{
					"source" : [ "obj-1", 0 ],
					"destination" : [ "obj-3", 0 ],
					"hidden" : 0,
					"midpoints" : [ 89.5, 625.0, 134.5, 625.0 ]
				}

			}
, 			{
				"patchline" : 				{
					"source" : [ "obj-2", 0 ],
					"destination" : [ "obj-3", 0 ],
					"hidden" : 0,
					"midpoints" : [ 39.5, 625.0, 134.5, 625.0 ]
				}

			}
, 			{
				"patchline" : 				{
					"source" : [ "obj-10", 0 ],
					"destination" : [ "obj-8", 0 ],
					"hidden" : 0,
					"midpoints" : [  ]
				}

			}
, 			{
				"patchline" : 				{
					"source" : [ "obj-32", 0 ],
					"destination" : [ "obj-28", 0 ],
					"hidden" : 0,
					"midpoints" : [  ]
				}

			}
, 			{
				"patchline" : 				{
					"source" : [ "obj-31", 0 ],
					"destination" : [ "obj-28", 1 ],
					"hidden" : 0,
					"midpoints" : [ 184.5, 125.0, 148.854843, 125.0 ]
				}

			}
, 			{
				"patchline" : 				{
					"source" : [ "obj-30", 0 ],
					"destination" : [ "obj-28", 2 ],
					"hidden" : 0,
					"midpoints" : [ 234.5, 130.0, 163.209671, 130.0 ]
				}

			}
, 			{
				"patchline" : 				{
					"source" : [ "obj-29", 0 ],
					"destination" : [ "obj-28", 3 ],
					"hidden" : 0,
					"midpoints" : [ 284.5, 135.0, 177.564514, 135.0 ]
				}

			}
, 			{
				"patchline" : 				{
					"source" : [ "obj-28", 0 ],
					"destination" : [ "obj-27", 0 ],
					"hidden" : 0,
					"midpoints" : [  ]
				}

			}
, 			{
				"patchline" : 				{
					"source" : [ "obj-27", 0 ],
					"destination" : [ "obj-26", 0 ],
					"hidden" : 0,
					"midpoints" : [  ]
				}

			}
, 			{
				"patchline" : 				{
					"source" : [ "obj-27", 1 ],
					"destination" : [ "obj-25", 0 ],
					"hidden" : 0,
					"midpoints" : [ 148.854843, 202.0, 189.5, 202.0 ]
				}

			}
, 			{
				"patchline" : 				{
					"source" : [ "obj-27", 2 ],
					"destination" : [ "obj-24", 0 ],
					"hidden" : 0,
					"midpoints" : [ 163.209671, 199.0, 244.5, 199.0 ]
				}

			}
, 			{
				"patchline" : 				{
					"source" : [ "obj-27", 3 ],
					"destination" : [ "obj-23", 0 ],
					"hidden" : 0,
					"midpoints" : [ 177.564514, 196.0, 299.5, 196.0 ]
				}

			}
, 			{
				"patchline" : 				{
					"source" : [ "obj-20", 0 ],
					"destination" : [ "obj-22", 0 ],
					"hidden" : 0,
					"midpoints" : [  ]
				}

			}
, 			{
				"patchline" : 				{
					"source" : [ "obj-19", 0 ],
					"destination" : [ "obj-22", 1 ],
					"hidden" : 0,
					"midpoints" : [ 199.5, 324.0, 148.854843, 324.0 ]
				}

			}
, 			{
				"patchline" : 				{
					"source" : [ "obj-18", 0 ],
					"destination" : [ "obj-22", 2 ],
					"hidden" : 0,
					"midpoints" : [ 269.5, 330.0, 163.209671, 330.0 ]
				}

			}
, 			{
				"patchline" : 				{
					"source" : [ "obj-33", 0 ],
					"destination" : [ "obj-22", 3 ],
					"hidden" : 0,
					"midpoints" : [ 339.5, 336.0, 177.564514, 336.0 ]
				}

			}
, 			{
				"patchline" : 				{
					"source" : [ "obj-8", 0 ],
					"destination" : [ "obj-12", 0 ],
					"hidden" : 0,
					"midpoints" : [  ]
				}

			}
, 			{
				"patchline" : 				{
					"source" : [ "obj-7", 0 ],
					"destination" : [ "obj-12", 1 ],
					"hidden" : 0,
					"midpoints" : [ 214.5, 537.0, 148.854843, 537.0 ]
				}

			}
, 			{
				"patchline" : 				{
					"source" : [ "obj-12", 0 ],
					"destination" : [ "obj-11", 0 ],
					"hidden" : 0,
					"midpoints" : [  ]
				}

			}
, 			{
				"patchline" : 				{
					"source" : [ "obj-11", 0 ],
					"destination" : [ "obj-3", 0 ],
					"hidden" : 0,
					"midpoints" : [  ]
				}

			}
, 			{
				"patchline" : 				{
					"source" : [ "obj-11", 1 ],
					"destination" : [ "obj-3", 1 ],
					"hidden" : 0,
					"midpoints" : [ 148.854843, 606.0, 169.5, 606.0 ]
				}

			}
 ]
	}

}
