max v2;#N vpatcher 26 270 597 597;#P window setfont "Sans Serif" 9.;#P window linecount 1;#N vpatcher 8 312 846 737;#P window setfont "Sans Serif" 9.;#P window linecount 0;#P newex 144 184 71 196617 prepend color;#P window linecount 1;#P newex 144 158 38 196617 zl join;#P window linecount 0;#P newex 233 104 29 196617 t b f;#P newex 144 135 36 196617 zl reg;#P window linecount 1;#P newex 144 73 188 196617 jcom.oscroute /color/rgb /color/alpha;#P outlet 30 371 15 0;#P window linecount 0;#P newex 459 320 54 196617 jcom.thru;#P inlet 715 31 15 0;#P window linecount 1;#P newex 118 248 36 196617 zl reg;#P window linecount 0;#P newex 355 153 83 196617 prepend position;#P newex 30 320 29 196617 gate;#P window linecount 1;#P newex 30 72 111 196617 jcom.oscroute /enable;#P window linecount 0;#P newex 538 95 27 196617 t b l;#P newex 355 131 112 196617 vexpr $f1*0.01 + $f2;#P newex 329 248 36 196617 zl reg;#P inlet 30 31 15 0;#P newex 497 73 51 196617 zl slice 1;#P window linecount 1;#P newex 355 72 110 196617 jcom.oscroute /offset;#P newex 600 248 36 196617 zl reg;#P newex 548 248 36 196617 zl reg;#P newex 715 66 53 196617 t b b b b;#P inlet 626 31 15 0;#P inlet 574 31 15 0;#P connect 7 0 11 0;#P connect 11 0 12 0;#P fasten 16 0 17 0 464 354 35 354;#P connect 12 0 17 0;#P fasten 2 2 12 1 748 209 54 209;#P lcolor 4;#P connect 8 0 12 1;#P connect 14 0 12 1;#P fasten 2 3 14 0 762 222 123 222;#P lcolor 13;#P connect 11 1 18 0;#P connect 20 0 19 0;#P connect 18 0 19 0;#P connect 19 0 21 0;#P connect 21 0 22 0;#P connect 22 0 14 1;#P connect 20 1 21 1;#P connect 18 1 20 0;#P fasten 2 3 8 0 762 224 334 224;#P lcolor 13;#P connect 18 2 5 0;#P connect 5 0 9 0;#P connect 10 0 9 0;#P connect 9 0 13 0;#P connect 13 0 8 1;#P connect 10 1 9 1;#P fasten 2 0 16 0 720 149 464 149;#P lcolor 4;#P connect 4 0 16 0;#P connect 3 0 16 0;#P connect 1 0 6 0;#P connect 6 1 10 0;#P fasten 2 1 3 0 734 165 553 165;#P lcolor 13;#P connect 0 0 3 1;#P fasten 2 1 4 0 734 167 605 167;#P lcolor 13;#P connect 1 0 4 1;#P connect 15 0 2 0;#P pop;#P newobj 189 125 101 196617 p shadow_and_draw;#P newex 239 72 119 196617 jcom.pass color position;#P outlet 17 251 15 0;#N vpatcher 0 82 839 353;#P window setfont "Sans Serif" 9.;#P window linecount 0;#P newex 34 105 20 196617 t b;#P window linecount 2;#P newex 60 135 57 196617 jit.textfile @adapt 1;#P outlet 647 202 15 0;#P outlet 753 202 15 0;#P window linecount 0;#P newex 476 139 69 196617 pak font s 12;#P newex 383 139 69 196617 prepend align;#P newex 383 95 80 196617 prepend symbol;#P user umenu 383 117 49 196647 1 64 133 1;#X add left;#X add center;#X add right;#P newex 383 73 204 196617 jcom.oscroute /align /text /font /fontsize;#P outlet 175 206 15 0;#P inlet 60 41 15 0;#P window linecount 1;#P newex 60 73 306 196617 jcom.pass /read /face /leadscale /screenmode /interp /tracking;#P newex 647 75 116 196617 jcom.oscroute /shadow;#P connect 1 0 12 0;#P connect 2 0 1 0;#P connect 1 0 11 0;#P connect 12 0 11 0;#P connect 11 0 3 0;#P connect 1 5 3 0;#P connect 1 1 3 0;#P connect 1 2 3 0;#P connect 1 3 3 0;#P connect 1 4 3 0;#P connect 8 0 3 0;#P connect 7 0 3 0;#P connect 1 6 4 0;#P connect 4 0 6 0;#P connect 6 0 5 0;#P connect 5 0 7 0;#P connect 4 2 8 1;#P connect 4 3 8 2;#P connect 4 4 0 0;#P connect 0 0 10 0;#P connect 0 1 9 0;#P pop;#P newobj 153 46 83 196617 p class.gl_txt2d;#P newex 239 46 148 196617 jcom.class.gl_group.route;#P newex 153 196 88 196617 jit.gl.text2d none;#P inlet 526 25 15 0;#P inlet 18 25 15 0;#P comment 168 251 75 196617 VIDEO OUTPUT;#P outlet 153 251 15 0;#P newex 18 46 131 196617 sel /video/genframe open;#P comment 17 285 256 196617 Based on the SubTitle Jitter recipie by Andrew Benson;#P connect 4 0 1 0;#P connect 1 2 8 0;#P connect 8 0 6 0;#P connect 11 0 6 0;#P connect 1 0 6 0;#P fasten 10 2 6 0 352 171 158 171;#P connect 6 0 2 0;#P connect 8 1 11 0;#P connect 10 0 11 1;#P connect 8 2 7 0;#P connect 7 0 10 0;#P connect 10 1 11 2;#P connect 5 0 11 3;#P pop;