max v2;#N vpatcher 399 114 1396 723;#P origin 0 31;#P window setfont "Sans Serif" 9.;#P newex 188 220 32 196617 print;#P message 819 410 76 196617 77 0 9;#P newex 819 383 62 196617 prepend set;#P message 641 410 76 196617 3934 9;#P newex 641 383 62 196617 prepend set;#P message 440 410 76 196617 63 9;#P newex 440 383 62 196617 prepend set;#P message 239 410 76 196617 0 9;#P newex 239 383 62 196617 prepend set;#P newex 819 355 81 196617 r $0_midi_note;#P newex 641 355 82 196617 r $0_midi_bend;#P newex 440 355 114 196617 r $0_midi_y_direction;#P newex 239 355 102 196617 r $0_midi_pressure;#N vpatcher 10 59 1136 688;#P window setfont "Sans Serif" 9.;#P window linecount 1;#P newex 95 550 302 196617 jcom.return gdif/cooked/voice/* @description "Cooked output.";#P newex 713 95 81 196617 r $0_midi_note;#P newex 694 138 29 196617 gate;#P newex 535 97 82 196617 r $0_midi_bend;#P newex 334 98 114 196617 r $0_midi_y_direction;#P newex 133 98 102 196617 r $0_midi_pressure;#P newex 69 54 178 196617 jcom.oscroute /on /unit /description;#P newex 516 137 29 196617 gate;#P newex 315 138 29 196617 gate;#P toggle 69 108 15 0;#P newex 114 138 29 196617 gate;#P newex 694 162 78 196617 unpack 0 0 0;#P newex 516 162 75 196617 unpack 0 0;#P newex 315 162 108 196617 unpack 0 0;#P window linecount 0;#P newex 114 162 105 196617 unpack 0 0;#P window linecount 1;#P message 516 415 37 196617 \$2 \$1;#P newex 516 392 75 196617 pack 0. 0;#P newex 516 370 27 196617 + 0.;#P newex 795 305 40 196617 t i l l;#P message 795 287 37 196617 \$2 \$1;#P newex 795 265 48 196617 pack 0 0;#P newex 795 244 27 196617 > 0;#P message 712 272 59 196617 \$2 \$1 \, \$2;#P newex 712 248 60 196617 pack 0 0;#P newex 315 296 51 196617 pack 0. 0;#P message 315 320 37 196617 \$2 \$1;#P newex 114 296 51 196617 pack 0. 0;#P message 114 320 37 196617 \$2 \$1;#P newex 581 236 50 196617 clip 1 10;#P window linecount 2;#P comment 657 350 61 196617 fundamental pitch;#P window linecount 1;#P newex 694 219 28 196617 t b i;#P newex 516 327 27 196617 f;#P newex 95 497 29 196617 gate;#N funbuff 0;#P newobj 769 330 42 196617 funbuff;#P newex 762 215 50 196617 clip 1 10;#P newex 413 223 50 196617 clip 1 10;#P newex 209 226 50 196617 clip 1 10;#P newex 315 223 93 196617 scale 0. 127. 0. 1.;#P newex 114 226 93 196617 scale 0. 127. 0. 1.;#N funbuff 0;#P newobj 646 330 42 196617 funbuff;#P newex 114 446 88 196617 sprintf %ld/z %f;#P newex 315 446 89 196617 sprintf %ld/y %f;#P newex 516 446 89 196617 sprintf %ld/x %f;#P newex 825 446 115 196617 sprintf %ld/active %ld;#N vpatcher 46 74 418 351;#P window setfont "Sans Serif" 9.;#P window linecount 4;#P comment 50 162 230 196617 The MIDI specification stipulates that pitch bend be a 14-bit value \, where zero is maximum downward bend \, 16383 is maximum upward bend \, and 8192 is the center (no pitch bend).;#P window linecount 1;#P newex 50 90 110 196617 scale 0. 8192. -24. 0.;#P newex 169 90 129 196617 scale 8192. 16383. 0. 24.;#P newex 50 50 66 196617 split 0 8191;#P inlet 50 30 15 0;#P outlet 50 132 15 0;#P connect 1 0 2 0;#P connect 2 0 4 0;#P connect 3 0 0 0;#P connect 4 0 0 0;#P connect 2 1 3 0;#P pop;#P newobj 516 236 62 196617 p bend_map;#P comment 779 196 157 196617 pitch range of half-size: 39 - 85;#P comment 529 487 156 196617 gate closed if voice is not active;#P comment 776 350 47 196617 active?;#P window linecount 2;#P comment 849 351 177 196617 When funbuf content is changed \, it also need to be passed through;#P inlet 69 30 15 0;#P connect 0 0 43 0;#P connect 43 0 40 0;#P fasten 16 0 17 0 774 484 100 484;#P lcolor 12;#P fasten 6 0 49 0 830 545 100 545;#P connect 17 0 49 0;#P fasten 40 0 39 0 74 129 119 129;#P connect 39 0 35 0;#P connect 35 0 11 0;#P connect 11 0 23 0;#P connect 23 0 22 0;#P connect 22 0 9 0;#P fasten 7 0 17 1 521 480 119 480;#P fasten 8 0 17 1 320 480 119 480;#P connect 9 0 17 1;#P connect 44 0 39 1;#P connect 13 0 23 1;#P connect 35 1 13 0;#P fasten 40 0 41 0 74 129 320 129;#P connect 41 0 36 0;#P connect 36 0 12 0;#P connect 12 0 25 0;#P connect 25 0 24 0;#P connect 24 0 8 0;#P connect 45 0 41 1;#P connect 14 0 25 1;#P connect 36 1 14 0;#P fasten 40 0 42 0 74 129 521 129;#P connect 42 0 37 0;#P connect 37 0 5 0;#P connect 19 0 18 0;#P connect 5 0 18 0;#P connect 18 0 32 0;#P connect 32 0 33 0;#P connect 33 0 34 0;#P connect 34 0 7 0;#P connect 10 0 32 1;#P connect 46 0 42 1;#P connect 37 1 21 0;#P connect 21 0 33 1;#P connect 21 0 10 0;#P connect 27 0 10 0;#P fasten 40 0 47 0 74 129 699 129;#P connect 47 0 38 0;#P connect 38 0 19 0;#P connect 19 1 26 0;#P connect 26 0 27 0;#P connect 48 0 47 1;#P connect 38 2 15 0;#P connect 15 0 26 1;#P connect 14 0 16 0;#P lcolor 12;#P connect 13 0 16 0;#P lcolor 12;#P connect 21 0 16 0;#P lcolor 12;#P connect 31 0 16 0;#P connect 31 1 16 0;#P fasten 38 1 28 0 733 240 800 240;#P connect 28 0 29 0;#P connect 29 0 30 0;#P connect 30 0 31 0;#P connect 31 2 6 0;#P fasten 15 0 29 1 767 236 838 236;#P pop;#P newobj 170 147 70 196617 p gdif-cooked;#P newex 53 83 142 196617 jcom.oscroute /midi_in /gdif;#N vpatcher 107 361 1239 745;#P origin 0 -5;#P window setfont "Sans Serif" 9.;#P window linecount 0;#P newex 924 200 67 196617 slide 10. 10.;#P newex 790 200 67 196617 slide 10. 10.;#N vpatcher 10 59 269 406;#P window setfont "Sans Serif" 9.;#P newex 92 235 34 196617 * -1.;#P newex 144 46 50 196617 jcom.init;#P newex 92 212 27 196617 / 0.;#P newex 55 212 27 196617 / 0.;#P newex 123 105 76 196617 unpack 0 0 0 0;#P button 123 46 15 0;#P newex 123 75 58 196617 screensize;#P inlet 55 46 15 0;#P inlet 92 46 15 0;#P outlet 55 260 15 0;#P outlet 92 260 15 0;#P connect 3 0 7 0;#P connect 7 0 1 0;#P fasten 6 2 7 1 77 157;#P connect 2 0 8 0;#P connect 8 0 10 0;#P connect 10 0 0 0;#P connect 6 3 8 1;#P connect 5 0 4 0;#P fasten 9 0 4 0 149 69 128 69;#P connect 4 0 6 0;#P pop;#P newobj 790 170 144 196617 p normalize;#P newex 924 146 29 196617 gate;#P newex 790 146 29 196617 gate;#P window linecount 2;#P newex 790 307 274 196617 jcom.return gdif/meta/flow @type msg_float @range 0. 1. @description "Fluidity of movements (legato-staccato)";#P newex 790 256 240 196617 jcom.return gdif/meta/dynamics @type msg_float @range 0. 1. @description "Dynamic level (pp-FF)";#P window linecount 1;#P newex 790 231 144 196617 cartopol;#P newex 943 95 101 196617 r $0_delta_vertical;#P newex 809 95 110 196617 r $0_delta_horizontal;#P newex 519 241 86 196617 scale 0. 1. -1. 1.;#P newex 346 241 86 196617 scale 0. 1. -1. 1.;#P newex 19 53 178 196617 jcom.oscroute /on /unit /description;#P newex 538 95 104 196617 r $0_vertical;#P newex 365 95 113 196617 r $0_horizontal;#P newex 90 95 96 196617 r $0_button;#P newex 519 146 29 196617 gate;#P newex 346 146 29 196617 gate;#P inlet 19 26 15 0;#P toggle 19 116 15 0;#P newex 71 146 29 196617 gate;#N vpatcher 532 157 913 485;#P window setfont "Sans Serif" 9.;#P newex 144 46 50 196617 jcom.init;#P newex 92 184 23 196617 abs;#P newex 92 160 27 196617 -;#P newex 92 212 27 196617 / 0.;#P newex 55 212 27 196617 / 0.;#P newex 123 105 76 196617 unpack 0 0 0 0;#P button 123 46 15 0;#P newex 123 75 58 196617 screensize;#P inlet 55 46 15 0;#P inlet 92 46 15 0;#P outlet 55 260 15 0;#P outlet 92 260 15 0;#P comment 223 80 100 196617 Finds the number of pixels of the screen and uses his to calculate absolute position on screen.;#P connect 4 0 8 0;#P connect 8 0 2 0;#P fasten 7 2 8 1 77 157;#P connect 3 0 10 0;#P connect 10 0 11 0;#P connect 11 0 9 0;#P connect 9 0 1 0;#P connect 7 3 10 1;#P connect 7 3 9 1;#P connect 6 0 5 0;#P fasten 12 0 5 0 149 69 128 69;#P connect 5 0 7 0;#P pop;#P newobj 346 195 183 196617 p normalize;#P connect 3 0 9 0;#P connect 9 0 2 0;#P fasten 2 0 1 0 24 137 76 137;#P connect 6 0 1 1;#P fasten 2 0 4 0 24 137 351 137;#P connect 4 0 0 0;#P connect 0 0 10 0;#P connect 7 0 4 1;#P fasten 2 0 5 0 24 137 524 137;#P connect 5 0 0 1;#P connect 0 1 11 0;#P connect 8 0 5 1;#P fasten 2 0 17 0 24 133 795 133;#P connect 17 0 19 0;#P connect 19 0 20 0;#P connect 20 0 14 0;#P connect 14 0 15 0;#P connect 14 1 16 0;#P connect 12 0 17 1;#P fasten 2 0 18 0 24 133 929 133;#P connect 18 0 19 1;#P connect 19 1 21 0;#P connect 21 0 14 1;#P connect 13 0 18 1;#P pop;#P newobj 425 177 62 196617 p gdif-meta;#N vpatcher 49 159 923 666;#P origin 0 -5;#P window setfont "Sans Serif" 9.;#P window linecount 0;#P newex 519 241 86 196617 scale 0. 1. -1. 1.;#P newex 346 241 86 196617 scale 0. 1. -1. 1.;#P newex 19 53 178 196617 jcom.oscroute /on /unit /description;#P newex 538 95 104 196617 r $0_vertical;#P newex 365 95 113 196617 r $0_horizontal;#P newex 90 95 96 196617 r $0_button;#P newex 519 146 29 196617 gate;#P newex 346 146 29 196617 gate;#P inlet 19 26 15 0;#P toggle 19 116 15 0;#P newex 71 146 29 196617 gate;#P window linecount 2;#P newex 71 371 261 196617 jcom.return gdif/device/mouse/button/2/press @type toggle @range 0 1 @description "Button up or down";#P newex 519 422 298 196617 jcom.return gdif/device/mouse/location/vertical @type msg_float @range 0. 1. @description "Vertical position of hand";#P newex 346 371 308 196617 jcom.return gdif/device/mouse/location/horizontal @type msg_float @range 0. 1. @description "Horizontal position of hand";#P window linecount 1;#N vpatcher 532 157 913 485;#P window setfont "Sans Serif" 9.;#P newex 144 46 50 196617 jcom.init;#P newex 92 184 23 196617 abs;#P newex 92 160 27 196617 -;#P newex 92 212 27 196617 / 0.;#P newex 55 212 27 196617 / 0.;#P newex 123 105 76 196617 unpack 0 0 0 0;#P button 123 46 15 0;#P newex 123 75 58 196617 screensize;#P inlet 55 46 15 0;#P inlet 92 46 15 0;#P outlet 55 260 15 0;#P outlet 92 260 15 0;#P comment 223 80 100 196617 Finds the number of pixels of the screen and uses his to calculate absolute position on screen.;#P connect 4 0 8 0;#P connect 8 0 2 0;#P fasten 7 2 8 1 77 157;#P connect 3 0 10 0;#P connect 10 0 11 0;#P connect 11 0 9 0;#P connect 9 0 1 0;#P connect 7 3 10 1;#P connect 7 3 9 1;#P connect 6 0 5 0;#P fasten 12 0 5 0 149 69 128 69;#P connect 5 0 7 0;#P pop;#P newobj 346 195 183 196617 p normalize;#P connect 6 0 12 0;#P connect 12 0 5 0;#P fasten 5 0 4 0 24 137 76 137;#P connect 4 0 3 0;#P connect 9 0 4 1;#P fasten 5 0 7 0 24 137 351 137;#P connect 7 0 0 0;#P connect 0 0 13 0;#P connect 13 0 1 0;#P connect 10 0 7 1;#P fasten 5 0 8 0 24 137 524 137;#P connect 8 0 0 1;#P connect 0 1 14 0;#P connect 14 0 2 0;#P connect 11 0 8 1;#P pop;#P newobj 272 147 69 196617 p gdif-device;#N vpatcher 11 44 1173 508;#P origin 0 -5;#P window setfont "Sans Serif" 9.;#P window linecount 0;#P newex 924 200 67 196617 slide 10. 10.;#P newex 790 200 67 196617 slide 10. 10.;#N vpatcher 10 59 269 406;#P window setfont "Sans Serif" 9.;#P newex 92 235 34 196617 * -1.;#P newex 144 46 50 196617 jcom.init;#P newex 92 212 27 196617 / 0.;#P newex 55 212 27 196617 / 0.;#P newex 123 105 76 196617 unpack 0 0 0 0;#P button 123 46 15 0;#P newex 123 75 58 196617 screensize;#P inlet 55 46 15 0;#P inlet 92 46 15 0;#P outlet 55 260 15 0;#P outlet 92 260 15 0;#P connect 3 0 7 0;#P connect 7 0 1 0;#P fasten 6 2 7 1 77 157;#P connect 2 0 8 0;#P connect 8 0 10 0;#P connect 10 0 0 0;#P connect 6 3 8 1;#P connect 5 0 4 0;#P fasten 9 0 4 0 149 69 128 69;#P connect 4 0 6 0;#P pop;#P newobj 790 170 144 196617 p normalize;#P newex 924 146 29 196617 gate;#P newex 790 146 29 196617 gate;#P window linecount 2;#P newex 790 307 301 196617 jcom.return gdif/performance/fluidity @type msg_float @range 0. 1. @description "Fluidity of movements (legato-staccato)";#P newex 790 256 274 196617 jcom.return gdif/performance/dynamics @type msg_float @range 0. 1. @description "Dynamic level (pp-FF)";#P window linecount 1;#P newex 790 231 144 196617 cartopol;#P newex 943 95 101 196617 r $0_delta_vertical;#P newex 809 95 110 196617 r $0_delta_horizontal;#P newex 519 241 86 196617 scale 0. 1. -1. 1.;#P newex 346 241 86 196617 scale 0. 1. -1. 1.;#P newex 19 53 178 196617 jcom.oscroute /on /unit /description;#P newex 538 95 104 196617 r $0_vertical;#P newex 365 95 113 196617 r $0_horizontal;#P newex 90 95 96 196617 r $0_button;#P newex 519 146 29 196617 gate;#P newex 346 146 29 196617 gate;#P inlet 19 26 15 0;#P toggle 19 116 15 0;#P newex 71 146 29 196617 gate;#N vpatcher 532 157 913 485;#P window setfont "Sans Serif" 9.;#P newex 144 46 50 196617 jcom.init;#P newex 92 184 23 196617 abs;#P newex 92 160 27 196617 -;#P newex 92 212 27 196617 / 0.;#P newex 55 212 27 196617 / 0.;#P newex 123 105 76 196617 unpack 0 0 0 0;#P button 123 46 15 0;#P newex 123 75 58 196617 screensize;#P inlet 55 46 15 0;#P inlet 92 46 15 0;#P outlet 55 260 15 0;#P outlet 92 260 15 0;#P comment 223 80 100 196617 Finds the number of pixels of the screen and uses his to calculate absolute position on screen.;#P connect 4 0 8 0;#P connect 8 0 2 0;#P fasten 7 2 8 1 77 157;#P connect 3 0 10 0;#P connect 10 0 11 0;#P connect 11 0 9 0;#P connect 9 0 1 0;#P connect 7 3 10 1;#P connect 7 3 9 1;#P connect 6 0 5 0;#P fasten 12 0 5 0 149 69 128 69;#P connect 5 0 7 0;#P pop;#P newobj 346 195 183 196617 p normalize;#P connect 3 0 9 0;#P connect 9 0 2 0;#P fasten 2 0 1 0 24 137 76 137;#P connect 6 0 1 1;#P fasten 2 0 4 0 24 137 351 137;#P connect 4 0 0 0;#P connect 0 0 10 0;#P connect 7 0 4 1;#P fasten 2 0 5 0 24 137 524 137;#P connect 5 0 0 1;#P connect 0 1 11 0;#P connect 8 0 5 1;#P fasten 2 0 17 0 24 133 795 133;#P connect 17 0 19 0;#P connect 19 0 20 0;#P connect 20 0 14 0;#P connect 14 0 15 0;#P connect 14 1 16 0;#P connect 12 0 17 1;#P fasten 2 0 18 0 24 133 929 133;#P connect 18 0 19 1;#P connect 19 1 21 0;#P connect 21 0 14 1;#P connect 13 0 18 1;#P pop;#P newobj 374 147 97 196617 p gdif-performance;#N vpatcher 18 137 1201 646;#P origin 0 -5;#P window setfont "Sans Serif" 9.;#P window linecount 0;#N vpatcher 10 59 269 406;#P window setfont "Sans Serif" 9.;#P newex 92 235 34 196617 * -1.;#P newex 144 46 50 196617 jcom.init;#P newex 92 212 27 196617 / 0.;#P newex 55 212 27 196617 / 0.;#P newex 123 105 76 196617 unpack 0 0 0 0;#P button 123 46 15 0;#P newex 123 75 58 196617 screensize;#P inlet 55 46 15 0;#P inlet 92 46 15 0;#P outlet 55 260 15 0;#P outlet 92 260 15 0;#P connect 3 0 7 0;#P connect 7 0 1 0;#P fasten 6 2 7 1 77 157;#P connect 2 0 8 0;#P connect 8 0 10 0;#P connect 10 0 0 0;#P connect 6 3 8 1;#P connect 5 0 4 0;#P fasten 9 0 4 0 149 69 128 69;#P connect 4 0 6 0;#P pop;#P newobj 790 170 144 196617 p normalize;#P newex 924 146 29 196617 gate;#P newex 790 146 29 196617 gate;#P window linecount 2;#P newex 790 270 322 196617 jcom.return gdif/body/hand/right/motion/direction @type msg_float @range 0. 1. @description "Direction of motion in radians";#P newex 790 219 323 196617 jcom.return gdif/body/hand/right/motion/quantity @type msg_float @range 0. 1. @description "Quantity of Motion (QoM) of hand";#P window linecount 1;#P newex 790 194 144 196617 cartopol;#P newex 943 95 101 196617 r $0_delta_vertical;#P newex 809 95 110 196617 r $0_delta_horizontal;#P window linecount 2;#P newex 699 371 298 196617 jcom.return gdif/body/hand/right/orientation @type msg_float @range 0. 1. @description "Vertical position of hand";#P newex 662 327 287 196617 jcom.return gdif/body/hand/right/distance @type msg_float @range 0. 1. @description "Horizontal position of hand";#P window linecount 1;#P newex 662 303 47 196617 cartopol;#P newex 519 241 86 196617 scale 0. 1. -1. 1.;#P newex 346 241 86 196617 scale 0. 1. -1. 1.;#P newex 19 53 178 196617 jcom.oscroute /on /unit /description;#P newex 538 95 104 196617 r $0_vertical;#P newex 365 95 113 196617 r $0_horizontal;#P newex 90 95 96 196617 r $0_button;#P newex 519 146 29 196617 gate;#P newex 346 146 29 196617 gate;#P inlet 19 26 15 0;#P toggle 19 116 15 0;#P newex 71 146 29 196617 gate;#P window linecount 2;#P newex 71 371 272 196617 jcom.return gdif/body/hand/right/finger/2/press @type toggle @range 0 1 @description "Finger up or down";#P newex 519 422 298 196617 jcom.return gdif/body/hand/right/location/vertical @type msg_float @range 0. 1. @description "Vertical position of hand";#P newex 346 371 308 196617 jcom.return gdif/body/hand/right/location/horizontal @type msg_float @range 0. 1. @description "Horizontal position of hand";#P window linecount 1;#N vpatcher 532 157 913 485;#P window setfont "Sans Serif" 9.;#P newex 144 46 50 196617 jcom.init;#P newex 92 184 23 196617 abs;#P newex 92 160 27 196617 -;#P newex 92 212 27 196617 / 0.;#P newex 55 212 27 196617 / 0.;#P newex 123 105 76 196617 unpack 0 0 0 0;#P button 123 46 15 0;#P newex 123 75 58 196617 screensize;#P inlet 55 46 15 0;#P inlet 92 46 15 0;#P outlet 55 260 15 0;#P outlet 92 260 15 0;#P comment 223 80 100 196617 Finds the number of pixels of the screen and uses his to calculate absolute position on screen.;#P connect 4 0 8 0;#P connect 8 0 2 0;#P fasten 7 2 8 1 77 157;#P connect 3 0 10 0;#P connect 10 0 11 0;#P connect 11 0 9 0;#P connect 9 0 1 0;#P connect 7 3 10 1;#P connect 7 3 9 1;#P connect 6 0 5 0;#P fasten 12 0 5 0 149 69 128 69;#P connect 5 0 7 0;#P pop;#P newobj 346 195 183 196617 p normalize;#P connect 6 0 12 0;#P connect 12 0 5 0;#P fasten 5 0 4 0 24 137 76 137;#P connect 4 0 3 0;#P connect 9 0 4 1;#P fasten 5 0 7 0 24 137 351 137;#P connect 7 0 0 0;#P connect 0 0 13 0;#P connect 13 0 1 0;#P connect 10 0 7 1;#P fasten 5 0 8 0 24 137 524 137;#P connect 8 0 0 1;#P connect 0 1 14 0;#P connect 14 0 2 0;#P connect 11 0 8 1;#P connect 13 0 15 0;#P connect 15 0 16 0;#P connect 14 0 15 1;#P connect 15 1 17 0;#P fasten 5 0 23 0 24 133 795 133;#P connect 23 0 25 0;#P connect 25 0 20 0;#P connect 20 0 21 0;#P connect 20 1 22 0;#P connect 18 0 23 1;#P fasten 5 0 24 0 24 133 929 133;#P connect 24 0 25 1;#P connect 25 1 20 1;#P connect 19 0 24 1;#P pop;#P newobj 221 177 61 196617 p gdif-body;#P newex 119 116 370 196617 jcom.oscroute /raw /cooked /body /device /environment /performance /meta;#N vpatcher 202 309 1171 681;#P origin 0 -5;#P window setfont "Sans Serif" 9.;#P window linecount 1;#P newex 19 53 178 196617 jcom.oscroute /on /unit /description;#P newex 676 95 103 196617 r $0_vertical;#P newex 365 95 112 196617 r $0_horizontal;#P newex 90 95 95 196617 r $0_button;#P newex 657 146 29 196617 gate;#P newex 346 146 29 196617 gate;#P inlet 19 26 15 0;#P toggle 19 116 15 0;#P newex 71 146 29 196617 gate;#P window linecount 2;#P newex 71 241 236 196617 jcom.return gdif/cooked/button @type toggle @range 0 1 @description "Mouse button on or off";#P newex 657 241 282 196617 jcom.return gdif/cooked/location/vertical @type msg_float @range 0. 1. @description "Vertical position of mouse";#P newex 346 241 291 196617 jcom.return gdif/cooked/location/horizontal @type msg_float @range 0. 1. @description "Horizontal position of mouse";#P window linecount 1;#N vpatcher 532 157 913 485;#P window setfont "Sans Serif" 9.;#P newex 144 46 50 196617 jcom.init;#P newex 92 184 23 196617 abs;#P newex 92 160 27 196617 -;#P newex 92 212 27 196617 / 0.;#P newex 55 212 27 196617 / 0.;#P newex 123 105 76 196617 unpack 0 0 0 0;#P button 123 46 15 0;#P newex 123 75 58 196617 screensize;#P inlet 55 46 15 0;#P inlet 92 46 15 0;#P outlet 55 260 15 0;#P outlet 92 260 15 0;#P comment 223 80 100 196617 Finds the number of pixels of the screen and uses his to calculate absolute position on screen.;#P connect 4 0 8 0;#P connect 8 0 2 0;#P fasten 7 2 8 1 77 157;#P connect 3 0 10 0;#P connect 10 0 11 0;#P connect 11 0 9 0;#P connect 9 0 1 0;#P connect 7 3 10 1;#P connect 7 3 9 1;#P connect 6 0 5 0;#P fasten 12 0 5 0 149 69 128 69;#P connect 5 0 7 0;#P pop;#P newobj 346 195 321 196617 p normalize;#P window linecount 0;#P comment 71 322 391 196617 These are the pre-processed data values \, based on doing simple filtering and scaling.;#P connect 7 0 13 0;#P connect 13 0 6 0;#P fasten 6 0 5 0 24 137 76 137;#P connect 5 0 4 0;#P connect 10 0 5 1;#P fasten 6 0 8 0 24 137 351 137;#P connect 8 0 1 0;#P connect 1 0 2 0;#P connect 11 0 8 1;#P fasten 6 0 9 0 24 137 662 137;#P connect 9 0 1 1;#P connect 1 1 3 0;#P connect 12 0 9 1;#P pop;#P newobj 27 319 103 196617 p mouse-gdif-cooked;#N vpatcher 468 232 1250 522;#P origin 0 -18;#P window setfont "Sans Serif" 9.;#P window linecount 1;#P newex 551 190 152 196617 sprintf %ld/note %ld %ld;#P message 551 163 52 196617 \$3 \$1 \$2;#P newex 392 163 37 196617 zl rev;#P newex 392 190 109 196617 sprintf %ld/xbend %f;#P newex 233 163 37 196617 zl rev;#P newex 233 190 111 196617 sprintf %ld/cc/12 %f;#P window linecount 0;#P newex 74 163 37 196617 zl rev;#P window linecount 1;#P newex 74 224 301 196617 jcom.return gdif/raw/voice/* @description "Raw MIDI output.";#P newex 74 190 105 196617 sprintf %ld/cc/7 %f;#P newex 570 94 81 196617 r $0_midi_note;#P newex 551 134 29 196617 gate;#P newex 411 94 82 196617 r $0_midi_bend;#P newex 252 94 114 196617 r $0_midi_y_direction;#P newex 93 94 102 196617 r $0_midi_pressure;#P window linecount 0;#P newex 29 50 178 196617 jcom.oscroute /on /unit /description;#P window linecount 1;#P newex 392 134 29 196617 gate;#P newex 233 134 29 196617 gate;#P inlet 29 29 15 0;#P toggle 29 104 15 0;#P window linecount 0;#P newex 74 134 29 196617 gate;#P connect 2 0 5 0;#P connect 5 0 1 0;#P fasten 1 0 0 0 34 125 79 125;#P connect 0 0 13 0;#P connect 13 0 11 0;#P connect 11 0 12 0;#P fasten 14 0 12 0 238 215 79 215;#P fasten 16 0 12 0 397 215 79 215;#P fasten 19 0 12 0 556 215 79 215;#P connect 6 0 0 1;#P fasten 1 0 3 0 34 125 238 125;#P connect 3 0 15 0;#P connect 15 0 14 0;#P connect 7 0 3 1;#P fasten 1 0 4 0 34 125 397 125;#P connect 4 0 17 0;#P connect 17 0 16 0;#P connect 8 0 4 1;#P fasten 1 0 9 0 34 125 556 125;#P connect 9 0 18 0;#P connect 18 0 19 0;#P connect 10 0 9 1;#P pop;#P newobj 119 177 58 196617 p gdif-raw;#N vpatcher 51 78 1006 301;#P window setfont "Sans Serif" 9.;#P window linecount 0;#P newex 649 158 81 196617 s $0_midi_note;#P newex 471 158 82 196617 s $0_midi_bend;#P newex 270 158 114 196617 s $0_midi_y_direction;#P newex 69 158 102 196617 s $0_midi_pressure;#P window linecount 1;#P newex 649 133 78 196617 pack 0 0 0;#P newex 471 133 105 196617 pack 0 0;#P newex 270 133 108 196617 pack 0 0;#P window linecount 0;#P newex 69 133 105 196617 pack 0 0;#P window linecount 1;#P newex 649 86 78 196617 notein;#P newex 471 86 37 196617 midiin;#P newex 471 108 105 196617 xbendin;#P newex 270 86 108 196617 ctlin 12;#P newex 69 86 105 196617 ctlin 7;#P comment 734 89 157 196617 pitch range of half-size: 39 - 85;#P inlet 69 30 15 0;#P connect 0 0 2 0;#P connect 2 0 7 0;#P connect 7 0 11 0;#P connect 2 1 7 1;#P fasten 0 0 3 0 74 65 275 65;#P connect 3 0 8 0;#P connect 8 0 12 0;#P connect 3 1 8 1;#P fasten 0 0 5 0 74 65 476 65;#P connect 5 0 4 0;#P connect 4 0 9 0;#P connect 9 0 13 0;#P connect 4 1 9 1;#P fasten 0 0 6 0 74 65 654 65;#P connect 6 0 10 0;#P connect 10 0 14 0;#P connect 6 1 10 1;#P connect 6 2 10 2;#P pop;#P newobj 53 177 50 196617 p midi-in;#P window linecount 2;#P comment 53 506 656 196617 When translated to OSC the first pitch bend value tends to trigger a faulty x-position value \, using the midi pitch value from last time the voice was active. x-position therefor needs to be gated \, so that it is only pass if the voice currently is active (note on is received).;#N comlet (/midiport) MIDI port to listen to;#P inlet 53 37 15 0;#N comlet OSC-formated messages;#P outlet 53 428 15 0;#P comment 53 475 656 196617 When a new finger is pressed \, the fingerboard transmit a Pitch Bend message *before* noteon. This makes a lot of sense in the case that the fingerboard is directly connected to a synth.;#P window linecount 1;#P comment 53 559 100 196617 Trond Lossius \, 2006;#P connect 8 1 7 0;#P connect 3 0 13 0;#P connect 13 0 5 0;#P connect 13 1 8 0;#P connect 8 0 6 0;#P connect 8 1 14 0;#P connect 8 2 9 0;#P connect 15 0 19 0;#P connect 19 0 20 0;#P connect 8 3 11 0;#P connect 8 5 10 0;#P connect 8 6 12 0;#P connect 16 0 21 0;#P connect 21 0 22 0;#P connect 17 0 23 0;#P connect 23 0 24 0;#P connect 18 0 25 0;#P connect 25 0 26 0;#P pop;