max v2;#N vpatcher 222 77 1497 857;#P window setfont "Sans Serif" 9.;#P window linecount 1;#P newex 493 71 72 196617 pvar MIDIIN 2;#P newex 529 27 48 196617 loadbang;#P user umenu 86 28 129 196647 1 64 44 1;#X add "828mk2 Midi Port";#X add BCF2000;#X add Keyboard;#X add "continuum fingerboard";#X add MU90A;#X add "to MaxMSP 1";#X add "to MaxMSP 2";#P objectname MIDIIN;#P newex 493 48 46 196617 midiinfo;#P comment 11 28 65 196617 MIDI in:;#B frgb 149 149 149;#P window linecount 2;#P newex 493 98 240 196617 jcom.parameter midi_in @priority 0 @description "Port to receive MIDI messages on.";#P objectname midi_in;#P window linecount 1;#P newex 72 219 47 196617 pcontrol;#P newex 72 195 37 196617 t open;#P newex 72 171 151 196617 jcom.oscroute /open_inspector;#N vpatcher 66 151 300 502;#P origin 0 -20;#P window setfont "Sans Serif" 9.;#P window linecount 0;#P hidden newex 206 295 69 196617 pvar Emotion;#P hidden newex 206 255 92 196617 pvar Performance;#P hidden newex 206 215 90 196617 pvar Environment;#P hidden newex 206 175 64 196617 pvar Device;#P hidden newex 206 135 56 196617 pvar Body;#P hidden newex 206 95 65 196617 pvar Cooked;#P hidden newex 206 55 53 196617 pvar Raw;#P comment 68 38 128 196617 Turn on an off GDIF layers;#P window linecount 2;#P hidden newex 306 295 244 196617 jcom.parameter gdif/emotion/on @type msg_toggle @clipmode none @description "Turn data on";#P objectname gdif/emotion/on;#P hidden newex 306 255 264 196617 jcom.parameter gdif/performance/on @type msg_toggle @clipmode none @description "Turn data on";#P objectname gdif/performance/on;#P hidden newex 306 215 264 196617 jcom.parameter gdif/environment/on @type msg_toggle @clipmode none @description "Turn data on";#P objectname gdif/environment/on;#P hidden newex 306 175 238 196617 jcom.parameter gdif/device/on @type msg_toggle @clipmode none @description "Turn data on";#P objectname gdif/device/on;#P hidden newex 306 135 230 196617 jcom.parameter gdif/body/on @type msg_toggle @clipmode none @description "Turn data on";#P objectname gdif/body/on;#P hidden newex 306 95 239 196617 jcom.parameter gdif/cooked/on @type msg_toggle @clipmode none @description "Turn data on";#P objectname gdif/cooked/on;#P hidden newex 306 55 227 196617 jcom.parameter gdif/raw/on @type msg_toggle @clipmode none @description "Turn data on";#P objectname gdif/raw/on;#P window linecount 0;#P comment 36 284 100 196617 Meta;#P comment 36 233 100 196617 Functional;#P comment 36 140 100 196617 Descriptive;#P toggle 36 101 15 0;#P objectname Cooked;#P message 53 101 100 196617 /gdif/cooked/on \$1;#P toggle 36 300 15 0;#P objectname Emotion;#P message 53 300 105 196617 /gdif/emotion/on \$1;#P toggle 36 249 15 0;#P objectname Performance;#P message 53 249 127 196617 /gdif/performance/on \$1;#P toggle 36 195 15 0;#P objectname Environment;#P message 53 195 126 196617 /gdif/environment/on \$1;#P toggle 36 176 15 0;#P objectname Device;#P message 53 176 99 196617 /gdif/device/on \$1;#P toggle 36 157 15 0;#P objectname Body;#P message 53 157 91 196617 /gdif/body/on \$1;#P hidden newex 232 414 58 196617 r jmod.init;#P window linecount 1;#P hidden newex 277 387 40 196617 t front;#P hidden newex 277 366 151 196617 jcom.oscroute /open_inspector;#P toggle 36 79 15 0;#P objectname Raw;#P message 53 79 88 196617 /gdif/raw/on \$1;#P window setfont "Sans Serif" 12.;#P comment 36 34 86 196620 GDIF;#P hidden inlet 277 346 15 0;#P window setfont "Sans Serif" 9.;#P window linecount 0;#P hidden message 232 436 111 196617 patcher more features;#P window linecount 1;#N thispatcher;#Q end;#P hidden newobj 232 455 61 196617 thispatcher;#P comment 36 62 100 196617 Acquisition;#P hidden connect 6 0 5 0;#P hidden connect 21 0 20 0;#P hidden connect 11 0 10 0;#P hidden connect 13 0 12 0;#P hidden connect 15 0 14 0;#P hidden connect 17 0 16 0;#P hidden connect 19 0 18 0;#P hidden connect 25 0 33 0;#P hidden connect 26 0 34 0;#P hidden connect 27 0 35 0;#P hidden connect 28 0 36 0;#P hidden connect 29 0 37 0;#P hidden connect 30 0 38 0;#P hidden connect 31 0 39 0;#P hidden connect 9 0 2 0;#P hidden connect 2 0 1 0;#P hidden connect 8 0 1 0;#P hidden connect 3 0 7 0;#P hidden connect 7 0 8 0;#P hidden connect 33 0 25 0;#P hidden connect 34 0 26 0;#P hidden connect 35 0 27 0;#P hidden connect 36 0 28 0;#P hidden connect 37 0 29 0;#P hidden connect 38 0 30 0;#P hidden connect 39 0 31 0;#P pop;#P newobj 72 243 60 196617 p inspector;#P objectname inspector;#P message 49 72 191 196617 /preset/store 1 default \, /preset/write;#B color 3;#P newex 213 305 167 196617 jcom.return return_c @range 0. 1.;#P newex 72 149 43 196617 jcom.in;#P newex 213 223 45 196617 pcontrol;#P newex 213 199 78 196617 jcom.pass open;#P window linecount 2;#P message 23 364 65 196617 \; max refresh;#P window linecount 1;#P message 185 89 31 196617 /init;#P newex 213 280 96 196617 jalg.continuum.mxt;#P window linecount 2;#P newex 16 114 368 196617 jcom.hub jmod.continuum @size 1U-half @module_type control @inspector 1 @description "A module receving input from the Haken Continuum Fingerboard.";#P objectname jcom.hub;#P inlet 16 90 13 0;#P outlet 16 316 13 0;#P window linecount 1;#P message 319 281 172 196617 /documentation/html;#P newex 319 260 61 196617 prepend set;#P message 56 89 125 196617 /documentation/generate;#B color 3;#P bpatcher 0 0 256 62 0 0 jcom.gui.mxt 0 $0_;#P objectname jcom.gui.audio-component.mxt;#P fasten 14 0 6 0 54 110 21 110;#P fasten 1 0 6 0 61 110 21 110;#P connect 5 0 6 0;#P fasten 8 0 6 0 190 110 21 110;#P connect 6 0 4 0;#P connect 12 0 16 0;#P connect 16 0 17 0;#P connect 17 0 18 0;#P connect 18 0 15 0;#P connect 16 1 10 0;#P connect 10 0 11 0;#P fasten 10 1 7 0 286 271 218 271;#P connect 11 0 7 0;#P connect 7 0 13 0;#P fasten 10 1 2 0 286 251 324 251;#P connect 2 0 3 0;#P fasten 19 0 24 0 498 132 485 132 485 68 498 68;#P connect 21 0 24 0;#P fasten 24 1 19 0 560 92 498 92;#P connect 23 0 21 1;#P pop;