max v2;#N vpatcher 172 104 1033 800;#P window setfont "Sans Serif" 9.;#P window linecount 1;#P newex 231 52 31 196617 == 0;#P toggle 176 189 15 0;#P message 231 72 45 196617 mute \$1;#P newex 68 439 79 196617 biquad~;#P newex 134 287 29 196617 t b f;#P newex 134 338 31 196617 mtof;#P newex 134 365 86 196617 clip 100. 18000.;#P newex 134 314 29 196617 + 0.;#P newex 134 262 96 196617 scale 0. 1. 12. 48.;#P window setfont Helvetica 9.;#P user filtergraph~ 89 389 79 37 21 9 20. 20000. 0.0625 16. 0 1 1 0 0 1 1;#X frgb 170 170 170;#X brgb 209 209 209;#X rgb2 0 0 0;#X rgb3 130 130 130;#X rgb4 0 0 0;#X rgb5 76 108 172;#X rgb6 210 74 54;#X rgb7 255 22 22;#X linmarkers 5512.5 11025. 16537.5;#X logmarkers 10. 100. 1000. 10000.;#X nfilters 1;#X setfilter 0 1 1 0 0 19912.126953 1. 2.5 0. 0. 0. 0. 0. 0.;#X done;#P user gain~ 68 497 24 100 158 0 1.071519 7.94321 10.;#P window setfont "Sans Serif" 9.;#P newex 393 344 41 196617 * 127.;#P newex 68 213 31 196617 mtof;#P flonum 140 189 35 9 0 0 0 3 0 0 0 221 221 221 222 222 222 0 0 0;#P flonum 104 189 35 9 0 0 0 3 0 0 0 221 221 221 222 222 222 0 0 0;#P flonum 68 189 35 9 0 0 0 3 0 0 0 221 221 221 222 222 222 0 0 0;#P newex 68 166 155 196617 jcom.oscroute /x /y /z /active;#P newex 169 120 67 196617 sprintf /%ld;#P newex 169 64 48 196617 loadbang;#P newex 169 96 52 196617 thispoly~;#P newex 68 142 74 196617 jcom.oscroute;#P newex 68 296 34 196617 saw~;#N out~ 1;#P newobj 68 627 39 196617 out~ 1;#N in 1;#P newobj 68 116 25 196617 in 1;#P connect 0 0 3 0;#P connect 3 0 7 0;#P connect 7 0 8 0;#P connect 8 0 11 0;#P connect 11 0 2 0;#P connect 14 0 20 0;#P connect 2 0 20 0;#P connect 12 0 13 0;#P connect 20 0 13 0;#P connect 13 0 1 0;#P connect 7 1 9 0;#P connect 6 0 3 1;#P connect 9 0 15 0;#P connect 15 0 19 0;#P connect 8 0 16 0;#P connect 19 0 16 0;#P connect 16 0 18 0;#P connect 18 0 17 0;#P connect 17 0 14 5;#P connect 7 2 10 0;#P connect 19 1 16 1;#P connect 5 0 4 0;#P connect 21 0 4 0;#P connect 4 0 6 0;#P connect 7 3 22 0;#P fasten 22 0 23 0 181 210 288 210 288 45 236 45;#P connect 23 0 21 0;#P connect 10 0 12 0;#P pop;