max v2;#N vpatcher 72 55 1148 702;#P window setfont "Sans Serif" 9.;#P window linecount 1;#P hidden newex 744 200 27 196617 t b i;#P window linecount 2;#P hidden message 744 294 198 196617 script hidden connect pak 0 parameter 0 \, script hidden connect parameter 0 route 0;#P window linecount 1;#P hidden message 123 486 54 196617 \$1 set \$2;#P hidden newex 123 464 52 196617 listfunnel;#P hidden newex 123 442 51 196617 route set;#P objectname route;#P hidden newex 123 337 217 196617 pak 0. 0. 0. 0. 0. 0. 0. 0. 0. 0. 0. 0. 0. 0. 0. 0.;#P objectname pak;#P hidden newex 132 -50 222 196617 route 0 1 2 3 4 5 6 7 8 9 10 11 12 13 14 15;#P flonum 1 288 40 9 0. 1. 8227 3 198 198 198 221 221 221 222 222 222 0 0 0;#P flonum 1 269 40 9 0. 1. 8227 3 198 198 198 221 221 221 222 222 222 0 0 0;#P flonum 1 250 40 9 0. 1. 8227 3 198 198 198 221 221 221 222 222 222 0 0 0;#P flonum 1 231 40 9 0. 1. 8227 3 198 198 198 221 221 221 222 222 222 0 0 0;#P flonum 1 212 40 9 0. 1. 8227 3 198 198 198 221 221 221 222 222 222 0 0 0;#P flonum 1 193 40 9 0. 1. 8227 3 198 198 198 221 221 221 222 222 222 0 0 0;#P flonum 1 174 40 9 0. 1. 8227 3 198 198 198 221 221 221 222 222 222 0 0 0;#P flonum 1 155 40 9 0. 1. 8227 3 198 198 198 221 221 221 222 222 222 0 0 0;#P flonum 1 136 40 9 0. 1. 8227 3 198 198 198 221 221 221 222 222 222 0 0 0;#P flonum 1 117 40 9 0. 1. 8227 3 198 198 198 221 221 221 222 222 222 0 0 0;#P flonum 1 98 40 9 0. 1. 8227 3 198 198 198 221 221 221 222 222 222 0 0 0;#P flonum 1 79 40 9 0. 1. 8227 3 198 198 198 221 221 221 222 222 222 0 0 0;#P flonum 1 60 40 9 0. 1. 8227 3 198 198 198 221 221 221 222 222 222 0 0 0;#P flonum 1 41 40 9 0. 1. 8227 3 198 198 198 221 221 221 222 222 222 0 0 0;#P flonum 1 22 40 9 0. 1. 8227 3 198 198 198 221 221 221 222 222 222 0 0 0;#P flonum 1 3 40 9 0. 1. 8227 3 198 198 198 221 221 221 222 222 222 0 0 0;#P hidden newex 355 100 204 196617 jmod.oscroute /omni /first /second /third;#P hidden inlet 355 72 15 0;#P hidden newex 722 177 32 196617 sel 0;#P hidden newex 722 152 27 196617 i;#P hidden newex 722 129 67 196617 loadmess $2;#N thispatcher;#Q end;#P hidden newobj 790 337 61 196617 thispatcher;#P window linecount 4;#P hidden newex 761 225 347 196617 sprintf script new parameter newex 123 433 384 196617 jmod.parameter $1 /setcoefs/voice_%ld @type msg_list @description "Other formulas than the symetrical decoding formula used by default\\\\\\\, can be used by setting coefficients separately for each ambisonic channel.";#P user panel 0 0 46 310;#X brgb 35 35 35;#X frgb 255 255 255;#X border 1;#X rounded 0;#X shadow 0;#X done;#P hidden connect 24 0 8 0;#P hidden connect 24 1 9 0;#P hidden connect 24 2 10 0;#P hidden connect 24 3 11 0;#P hidden connect 24 4 12 0;#P hidden connect 24 5 13 0;#P hidden connect 24 6 14 0;#P hidden connect 24 7 15 0;#P hidden connect 24 8 16 0;#P hidden connect 24 9 17 0;#P hidden connect 24 10 18 0;#P hidden connect 24 11 19 0;#P hidden connect 24 12 20 0;#P hidden connect 24 13 21 0;#P hidden connect 24 14 22 0;#P hidden connect 24 15 23 0;#P hidden connect 7 0 25 0;#P hidden connect 8 0 25 0;#P hidden connect 26 0 27 0;#P hidden connect 27 0 28 0;#P hidden fasten 28 0 24 0 128 524 705 524 705 -59 137 -59;#P hidden connect 7 1 25 1;#P hidden connect 9 0 25 1;#P hidden connect 7 1 25 2;#P hidden connect 10 0 25 2;#P hidden connect 7 1 25 3;#P hidden connect 11 0 25 3;#P hidden connect 7 2 25 4;#P hidden connect 12 0 25 4;#P hidden connect 7 2 25 5;#P hidden connect 13 0 25 5;#P hidden connect 7 2 25 6;#P hidden connect 14 0 25 6;#P hidden connect 7 2 25 7;#P hidden connect 15 0 25 7;#P hidden connect 7 2 25 8;#P hidden connect 16 0 25 8;#P hidden connect 7 3 25 9;#P hidden connect 17 0 25 9;#P hidden connect 7 3 25 10;#P hidden connect 18 0 25 10;#P hidden connect 7 3 25 11;#P hidden connect 19 0 25 11;#P hidden connect 7 3 25 12;#P hidden connect 20 0 25 12;#P hidden connect 7 3 25 13;#P hidden connect 21 0 25 13;#P hidden connect 7 3 25 14;#P hidden connect 22 0 25 14;#P hidden connect 7 3 25 15;#P hidden connect 23 0 25 15;#P hidden connect 6 0 7 0;#P hidden connect 3 0 4 0;#P hidden connect 4 0 5 0;#P hidden connect 5 1 30 0;#P hidden connect 30 0 29 0;#P hidden connect 30 1 1 0;#P hidden connect 1 0 2 0;#P hidden connect 29 0 2 0;#P pop;