max v2;#N vpatcher 46 174 450 603;#P window setfont "Sans Serif" 9.;#P window linecount 1;#P newex 259 110 29 196617 t b f;#P inlet 259 63 15 0;#P comment 210 291 73 196617 smoothing;#P inlet 155 63 15 0;#P outlet 37 376 15 0;#P inlet 37 63 15 0;#P newex 155 244 27 196617 + 0.;#P comment 295 120 80 196617 metres per unit;#P newex 155 289 49 196617 onepole~;#P newex 155 267 29 196617 sig~;#P newex 37 327 56 196617 tapout~ 0.;#P newex 37 287 65 196617 tapin~ 2000;#P newex 155 117 44 196617 zl nth 3;#P newex 155 152 29 196617 * 1.;#P newex 155 217 52 196617 / 0.3438;#P newex 238 192 114 196617 expr ($f2/$f1)*1000.;#P newex 224 165 54 196617 dspstate~;#P comment 194 246 191 196617 adding the duration of one signal vector;#P window setfont "Sans Serif" 12.;#P comment 15 27 258 196620 Dopler shift for one audio channel;#P connect 13 0 7 0;#P fasten 10 0 8 0 160 313 42 313;#P connect 7 0 8 0;#P connect 8 0 14 0;#P connect 15 0 6 0;#P connect 18 0 5 0;#P connect 6 0 5 0;#P connect 5 0 4 0;#P connect 4 0 12 0;#P connect 12 0 9 0;#P connect 9 0 10 0;#P fasten 3 0 12 1 243 239 177 239;#P connect 18 1 5 1;#P connect 2 1 3 0;#P connect 17 0 18 0;#P fasten 2 2 3 1 257 187 347 187;#P pop;