max v2;#N vpatcher 33 59 671 712;#P window setfont "Sans Serif" 9.;#P newex 412 215 27 196617 - 1;#P comment 96 566 293 196617 <- no point in updating coefficients for non-existing speakers...;#P newex 554 224 27 196617 >=;#P newex 61 563 29 196617 gate;#P comment 41 64 100 196617 /setcoefs;#N in 3;#P newobj 554 81 25 196617 in 3;#P comment 554 64 57 196617 /voices;#N in 2;#P newobj 329 81 25 196617 in 2;#P message 412 238 80 196617 set setcoefs \$1;#P newex 80 488 45 196617 prepend;#P window linecount 2;#P newex 102 398 68 196617 loadmess scalarmode 1;#P window linecount 1;#P newex 143 327 70 196617 t b f;#P newex 80 447 133 196617 vexpr $f1*$f2;#P newex 80 360 36 196617 zl reg;#P newex 143 298 171 196617 scale 0. 158. 0. 7.94321 1.071519;#P comment 134 514 228 196617 <- reduce traffic when updating/changing values;#P newex 41 247 49 196617 route int;#P newex 80 511 44 196617 qlim 40;#P newex 105 177 97 196617 sprintf /voice_%ld;#P newex 105 117 48 196617 loadbang;#P newex 105 143 52 196617 thispoly~;#P newex 41 206 74 196617 jmod.oscroute;#N out 1;#P newobj 61 595 33 196617 out 1;#N in 1;#P newobj 41 81 25 196617 in 1;#P comment 95 250 205 196617 <- avoid nonsense message when loading;#P comment 31 30 458 196617 Decode coefficients are multiplied by gain to provide output levels adjusted for gain settings.;#P comment 31 42 464 196617 This save some CPU as compared to doing gain adjustment in separate gain~ or *~ objects.;#P comment 329 64 100 196617 /midi/gain;#P window linecount 2;#P comment 420 260 115 196617 count starting from 0 instead of 1;#P connect 5 0 7 0;#P connect 7 0 12 0;#P fasten 26 0 25 0 559 554 66 554;#P connect 25 0 6 0;#P connect 17 0 15 0;#P connect 12 1 15 0;#P connect 18 0 16 0;#P connect 15 0 16 0;#P fasten 20 0 19 0 417 474 85 474;#P connect 16 0 19 0;#P connect 19 0 11 0;#P connect 11 0 25 1;#P connect 9 0 8 0;#P connect 8 0 10 0;#P connect 10 0 7 1;#P fasten 21 0 14 0 334 284 148 284;#P connect 14 0 17 0;#P connect 17 1 16 1;#P fasten 8 0 28 0 110 174 417 174;#P connect 28 0 20 0;#P connect 23 0 26 0;#P fasten 8 0 26 1 110 165 576 165;#P pop;