{
	"patcher" : 	{
		"fileversion" : 1,
		"rect" : [ 211.0, 163.0, 712.0, 469.0 ],
		"bglocked" : 0,
		"defrect" : [ 211.0, 163.0, 712.0, 469.0 ],
		"openrect" : [ 0.0, 0.0, 0.0, 0.0 ],
		"openinpresentation" : 0,
		"default_fontsize" : 12.0,
		"default_fontface" : 0,
		"default_fontname" : "Arial",
		"gridonopen" : 0,
		"gridsize" : [ 15.0, 15.0 ],
		"gridsnaponopen" : 0,
		"toolbarvisible" : 1,
		"boxanimatetime" : 200,
		"imprint" : 0,
		"metadata" : [  ],
		"boxes" : [ 			{
				"box" : 				{
					"maxclass" : "outlet",
					"patching_rect" : [ 300.0, 393.0, 25.0, 25.0 ],
					"id" : "obj-19",
					"numinlets" : 1,
					"numoutlets" : 0,
					"comment" : ""
				}

			}
, 			{
				"box" : 				{
					"maxclass" : "newobj",
					"text" : "p player_controls",
					"outlettype" : [ "", "", "", "" ],
					"patching_rect" : [ 300.0, 127.0, 104.0, 17.0 ],
					"id" : "obj-2",
					"fontname" : "Arial",
					"numinlets" : 1,
					"fontsize" : 9.0,
					"numoutlets" : 4,
					"patcher" : 					{
						"fileversion" : 1,
						"rect" : [ 506.0, 126.0, 564.0, 323.0 ],
						"bglocked" : 0,
						"defrect" : [ 506.0, 126.0, 564.0, 323.0 ],
						"openrect" : [ 0.0, 0.0, 0.0, 0.0 ],
						"openinpresentation" : 0,
						"default_fontsize" : 12.0,
						"default_fontface" : 0,
						"default_fontname" : "Arial",
						"gridonopen" : 0,
						"gridsize" : [ 15.0, 15.0 ],
						"gridsnaponopen" : 0,
						"toolbarvisible" : 1,
						"boxanimatetime" : 200,
						"imprint" : 0,
						"metadata" : [  ],
						"boxes" : [ 							{
								"box" : 								{
									"maxclass" : "message",
									"text" : "loop",
									"outlettype" : [ "" ],
									"patching_rect" : [ 411.0, 173.0, 26.0, 15.0 ],
									"id" : "obj-1",
									"fontname" : "Arial",
									"numinlets" : 2,
									"fontsize" : 9.0,
									"numoutlets" : 1
								}

							}
, 							{
								"box" : 								{
									"maxclass" : "comment",
									"text" : "the play/stop/pause mapping should be improved.",
									"linecount" : 2,
									"patching_rect" : [ 62.0, 230.0, 138.0, 27.0 ],
									"id" : "obj-2",
									"fontname" : "Arial",
									"numinlets" : 1,
									"fontsize" : 9.0,
									"numoutlets" : 0
								}

							}
, 							{
								"box" : 								{
									"maxclass" : "outlet",
									"patching_rect" : [ 215.0, 259.0, 15.0, 15.0 ],
									"id" : "obj-3",
									"numinlets" : 1,
									"numoutlets" : 0,
									"comment" : "Segment beginning"
								}

							}
, 							{
								"box" : 								{
									"maxclass" : "outlet",
									"varname" : "Segment",
									"patching_rect" : [ 273.0, 259.0, 15.0, 15.0 ],
									"id" : "obj-4",
									"numinlets" : 1,
									"numoutlets" : 0,
									"comment" : "Segment end"
								}

							}
, 							{
								"box" : 								{
									"maxclass" : "outlet",
									"patching_rect" : [ 331.0, 259.0, 15.0, 15.0 ],
									"id" : "obj-5",
									"numinlets" : 1,
									"numoutlets" : 0,
									"comment" : "Speed"
								}

							}
, 							{
								"box" : 								{
									"maxclass" : "message",
									"text" : "locate",
									"outlettype" : [ "" ],
									"patching_rect" : [ 411.0, 156.0, 33.0, 15.0 ],
									"id" : "obj-6",
									"fontname" : "Arial",
									"numinlets" : 2,
									"fontsize" : 9.0,
									"numoutlets" : 1
								}

							}
, 							{
								"box" : 								{
									"maxclass" : "message",
									"text" : "next",
									"outlettype" : [ "" ],
									"patching_rect" : [ 411.0, 138.0, 29.0, 15.0 ],
									"id" : "obj-7",
									"fontname" : "Arial",
									"numinlets" : 2,
									"fontsize" : 9.0,
									"numoutlets" : 1
								}

							}
, 							{
								"box" : 								{
									"maxclass" : "newobj",
									"text" : "jcom.oscroute /play /time /pause /beginning /end /speed",
									"outlettype" : [ "", "", "", "", "", "", "" ],
									"patching_rect" : [ 40.0, 81.0, 368.0, 17.0 ],
									"id" : "obj-8",
									"fontname" : "Arial",
									"numinlets" : 1,
									"fontsize" : 9.0,
									"numoutlets" : 7
								}

							}
, 							{
								"box" : 								{
									"maxclass" : "inlet",
									"outlettype" : [ "" ],
									"patching_rect" : [ 40.0, 47.0, 15.0, 15.0 ],
									"id" : "obj-9",
									"numinlets" : 0,
									"numoutlets" : 1,
									"comment" : ""
								}

							}
, 							{
								"box" : 								{
									"maxclass" : "newobj",
									"text" : "sel 1 0",
									"outlettype" : [ "bang", "bang", "" ],
									"patching_rect" : [ 156.0, 146.0, 54.0, 17.0 ],
									"id" : "obj-10",
									"fontname" : "Arial",
									"numinlets" : 1,
									"fontsize" : 9.0,
									"numoutlets" : 3
								}

							}
, 							{
								"box" : 								{
									"maxclass" : "message",
									"text" : "play",
									"outlettype" : [ "" ],
									"patching_rect" : [ 189.0, 169.0, 26.0, 15.0 ],
									"id" : "obj-11",
									"fontname" : "Arial",
									"numinlets" : 2,
									"fontsize" : 9.0,
									"numoutlets" : 1
								}

							}
, 							{
								"box" : 								{
									"maxclass" : "message",
									"text" : "play",
									"outlettype" : [ "" ],
									"patching_rect" : [ 40.0, 169.0, 26.0, 15.0 ],
									"id" : "obj-12",
									"fontname" : "Arial",
									"numinlets" : 2,
									"fontsize" : 9.0,
									"numoutlets" : 1
								}

							}
, 							{
								"box" : 								{
									"maxclass" : "newobj",
									"text" : "sel 1 0",
									"outlettype" : [ "bang", "bang", "" ],
									"patching_rect" : [ 40.0, 146.0, 52.0, 17.0 ],
									"id" : "obj-13",
									"fontname" : "Arial",
									"numinlets" : 1,
									"fontsize" : 9.0,
									"numoutlets" : 3
								}

							}
, 							{
								"box" : 								{
									"maxclass" : "message",
									"text" : "pause",
									"outlettype" : [ "" ],
									"patching_rect" : [ 156.0, 169.0, 33.0, 15.0 ],
									"id" : "obj-14",
									"fontname" : "Arial",
									"numinlets" : 2,
									"fontsize" : 9.0,
									"numoutlets" : 1
								}

							}
, 							{
								"box" : 								{
									"maxclass" : "message",
									"text" : "jump $1",
									"outlettype" : [ "" ],
									"patching_rect" : [ 98.0, 169.0, 55.0, 15.0 ],
									"id" : "obj-15",
									"fontname" : "Arial",
									"numinlets" : 2,
									"fontsize" : 9.0,
									"numoutlets" : 1
								}

							}
, 							{
								"box" : 								{
									"maxclass" : "message",
									"text" : "stop",
									"outlettype" : [ "" ],
									"patching_rect" : [ 66.0, 169.0, 26.0, 15.0 ],
									"id" : "obj-16",
									"fontname" : "Arial",
									"numinlets" : 2,
									"fontsize" : 9.0,
									"numoutlets" : 1
								}

							}
, 							{
								"box" : 								{
									"maxclass" : "outlet",
									"patching_rect" : [ 40.0, 259.0, 15.0, 15.0 ],
									"id" : "obj-17",
									"numinlets" : 1,
									"numoutlets" : 0,
									"comment" : ""
								}

							}
, 							{
								"box" : 								{
									"maxclass" : "comment",
									"text" : "control messages still to be implemented:",
									"linecount" : 2,
									"patching_rect" : [ 408.0, 109.0, 138.0, 27.0 ],
									"id" : "obj-18",
									"fontname" : "Arial",
									"numinlets" : 1,
									"fontsize" : 9.0,
									"numoutlets" : 0
								}

							}
 ],
						"lines" : [ 							{
								"patchline" : 								{
									"source" : [ "obj-9", 0 ],
									"destination" : [ "obj-8", 0 ],
									"hidden" : 0,
									"midpoints" : [  ]
								}

							}
, 							{
								"patchline" : 								{
									"source" : [ "obj-8", 0 ],
									"destination" : [ "obj-13", 0 ],
									"hidden" : 0,
									"midpoints" : [  ]
								}

							}
, 							{
								"patchline" : 								{
									"source" : [ "obj-13", 0 ],
									"destination" : [ "obj-12", 0 ],
									"hidden" : 0,
									"midpoints" : [  ]
								}

							}
, 							{
								"patchline" : 								{
									"source" : [ "obj-15", 0 ],
									"destination" : [ "obj-17", 0 ],
									"hidden" : 0,
									"midpoints" : [ 107.5, 222.0, 49.0, 222.0 ]
								}

							}
, 							{
								"patchline" : 								{
									"source" : [ "obj-14", 0 ],
									"destination" : [ "obj-17", 0 ],
									"hidden" : 0,
									"midpoints" : [ 165.5, 222.0, 49.0, 222.0 ]
								}

							}
, 							{
								"patchline" : 								{
									"source" : [ "obj-16", 0 ],
									"destination" : [ "obj-17", 0 ],
									"hidden" : 0,
									"midpoints" : [ 75.5, 222.0, 49.0, 222.0 ]
								}

							}
, 							{
								"patchline" : 								{
									"source" : [ "obj-12", 0 ],
									"destination" : [ "obj-17", 0 ],
									"hidden" : 0,
									"midpoints" : [ 49.5, 222.0, 49.0, 222.0 ]
								}

							}
, 							{
								"patchline" : 								{
									"source" : [ "obj-11", 0 ],
									"destination" : [ "obj-17", 0 ],
									"hidden" : 0,
									"midpoints" : [ 198.5, 222.0, 49.0, 222.0 ]
								}

							}
, 							{
								"patchline" : 								{
									"source" : [ "obj-13", 1 ],
									"destination" : [ "obj-16", 0 ],
									"hidden" : 0,
									"midpoints" : [ 66.0, 167.0, 75.5, 167.0 ]
								}

							}
, 							{
								"patchline" : 								{
									"source" : [ "obj-8", 1 ],
									"destination" : [ "obj-15", 0 ],
									"hidden" : 0,
									"midpoints" : [  ]
								}

							}
, 							{
								"patchline" : 								{
									"source" : [ "obj-8", 2 ],
									"destination" : [ "obj-10", 0 ],
									"hidden" : 0,
									"midpoints" : [  ]
								}

							}
, 							{
								"patchline" : 								{
									"source" : [ "obj-10", 0 ],
									"destination" : [ "obj-14", 0 ],
									"hidden" : 0,
									"midpoints" : [  ]
								}

							}
, 							{
								"patchline" : 								{
									"source" : [ "obj-10", 1 ],
									"destination" : [ "obj-11", 0 ],
									"hidden" : 0,
									"midpoints" : [ 183.0, 167.0, 198.5, 167.0 ]
								}

							}
, 							{
								"patchline" : 								{
									"source" : [ "obj-8", 3 ],
									"destination" : [ "obj-3", 0 ],
									"hidden" : 0,
									"midpoints" : [  ]
								}

							}
, 							{
								"patchline" : 								{
									"source" : [ "obj-8", 4 ],
									"destination" : [ "obj-4", 0 ],
									"hidden" : 0,
									"midpoints" : [  ]
								}

							}
, 							{
								"patchline" : 								{
									"source" : [ "obj-8", 5 ],
									"destination" : [ "obj-5", 0 ],
									"hidden" : 0,
									"midpoints" : [  ]
								}

							}
 ]
					}
,
					"saved_object_attributes" : 					{
						"default_fontname" : "Arial",
						"default_fontsize" : 12.0,
						"fontname" : "Arial",
						"globalpatchername" : "",
						"default_fontface" : 0,
						"fontface" : 0,
						"fontsize" : 12.0
					}

				}

			}
, 			{
				"box" : 				{
					"maxclass" : "newobj",
					"text" : "p get_chosen_stream_name",
					"outlettype" : [ "" ],
					"patching_rect" : [ 42.0, 142.0, 140.0, 17.0 ],
					"id" : "obj-3",
					"fontname" : "Arial",
					"numinlets" : 2,
					"fontsize" : 9.0,
					"numoutlets" : 1,
					"patcher" : 					{
						"fileversion" : 1,
						"rect" : [ 188.0, 104.0, 600.0, 426.0 ],
						"bglocked" : 0,
						"defrect" : [ 188.0, 104.0, 600.0, 426.0 ],
						"openrect" : [ 0.0, 0.0, 0.0, 0.0 ],
						"openinpresentation" : 0,
						"default_fontsize" : 12.0,
						"default_fontface" : 0,
						"default_fontname" : "Arial",
						"gridonopen" : 0,
						"gridsize" : [ 15.0, 15.0 ],
						"gridsnaponopen" : 0,
						"toolbarvisible" : 1,
						"boxanimatetime" : 200,
						"imprint" : 0,
						"metadata" : [  ],
						"boxes" : [ 							{
								"box" : 								{
									"maxclass" : "comment",
									"text" : "Stream index",
									"patching_rect" : [ 137.0, 86.0, 67.0, 17.0 ],
									"id" : "obj-1",
									"fontname" : "Arial",
									"numinlets" : 1,
									"fontsize" : 9.0,
									"numoutlets" : 0
								}

							}
, 							{
								"box" : 								{
									"maxclass" : "outlet",
									"patching_rect" : [ 207.0, 305.0, 15.0, 15.0 ],
									"id" : "obj-2",
									"numinlets" : 1,
									"numoutlets" : 0,
									"comment" : ""
								}

							}
, 							{
								"box" : 								{
									"maxclass" : "inlet",
									"outlettype" : [ "" ],
									"patching_rect" : [ 207.0, 83.0, 15.0, 15.0 ],
									"id" : "obj-3",
									"numinlets" : 0,
									"numoutlets" : 1,
									"comment" : "SDIF stream index"
								}

							}
, 							{
								"box" : 								{
									"maxclass" : "inlet",
									"outlettype" : [ "" ],
									"patching_rect" : [ 264.0, 83.0, 15.0, 15.0 ],
									"id" : "obj-4",
									"numinlets" : 0,
									"numoutlets" : 1,
									"comment" : "SDIF file name"
								}

							}
, 							{
								"box" : 								{
									"maxclass" : "ftm.mess",
									"ftm_scope" : 1,
									"presentation_rect" : [ 264.0, 161.0, 62.693363, 16.001465 ],
									"outlettype" : [ "" ],
									"#init" : "",
									"patching_rect" : [ 264.0, 161.0, 62.693363, 16.001465 ],
									"id" : "obj-5",
									"#triggerall" : 0,
									"fontname" : "Geneva",
									"#untuple" : 0,
									"text" : [ "_set $1, bang" ],
									"numinlets" : 2,
									"#loadbang" : 0,
									"fontsize" : 9.0,
									"numoutlets" : 1
								}

							}
, 							{
								"box" : 								{
									"maxclass" : "ftm.mess",
									"ftm_scope" : 0,
									"presentation_rect" : [ 207.0, 236.0, 41.529301, 14.349121 ],
									"outlettype" : [ "" ],
									"#init" : "",
									"patching_rect" : [ 207.0, 236.0, 41.529301, 14.349121 ],
									"id" : "obj-6",
									"#triggerall" : 0,
									"fontname" : "Arial",
									"#untuple" : 0,
									"text" : [ "_$2 [$1 0]" ],
									"numinlets" : 2,
									"#loadbang" : 0,
									"fontsize" : 9.0,
									"numoutlets" : 1
								}

							}
, 							{
								"box" : 								{
									"maxclass" : "newobj",
									"text" : "ftm.sdif.info",
									"outlettype" : [ "", "", "" ],
									"patching_rect" : [ 264.0, 187.0, 66.0, 17.0 ],
									"id" : "obj-7",
									"fontname" : "Arial",
									"numinlets" : 1,
									"fontsize" : 9.0,
									"numoutlets" : 3,
									"saved_object_attributes" : 									{
										"ftm_scope" : 0
									}

								}

							}
, 							{
								"box" : 								{
									"maxclass" : "comment",
									"text" : "SDIF file name",
									"patching_rect" : [ 284.0, 85.0, 100.0, 17.0 ],
									"id" : "obj-8",
									"fontname" : "Arial",
									"numinlets" : 1,
									"fontsize" : 9.0,
									"numoutlets" : 0
								}

							}
 ],
						"lines" : [ 							{
								"patchline" : 								{
									"source" : [ "obj-3", 0 ],
									"destination" : [ "obj-6", 0 ],
									"hidden" : 0,
									"midpoints" : [  ]
								}

							}
, 							{
								"patchline" : 								{
									"source" : [ "obj-6", 0 ],
									"destination" : [ "obj-2", 0 ],
									"hidden" : 0,
									"midpoints" : [  ]
								}

							}
, 							{
								"patchline" : 								{
									"source" : [ "obj-7", 1 ],
									"destination" : [ "obj-6", 1 ],
									"hidden" : 0,
									"midpoints" : [  ]
								}

							}
, 							{
								"patchline" : 								{
									"source" : [ "obj-4", 0 ],
									"destination" : [ "obj-5", 0 ],
									"hidden" : 0,
									"midpoints" : [  ]
								}

							}
, 							{
								"patchline" : 								{
									"source" : [ "obj-5", 0 ],
									"destination" : [ "obj-7", 0 ],
									"hidden" : 0,
									"midpoints" : [  ]
								}

							}
 ]
					}
,
					"saved_object_attributes" : 					{
						"default_fontname" : "Arial",
						"default_fontsize" : 12.0,
						"fontname" : "Arial",
						"globalpatchername" : "",
						"default_fontface" : 0,
						"fontface" : 0,
						"fontsize" : 12.0
					}

				}

			}
, 			{
				"box" : 				{
					"maxclass" : "newobj",
					"text" : "jcom.return time @range/bounds 0. 1000000. @range/clipmode low @description \"Current playing position (in milliseconds)\"",
					"linecount" : 3,
					"outlettype" : [ "", "" ],
					"patching_rect" : [ 343.0, 236.0, 203.0, 38.0 ],
					"id" : "obj-4",
					"fontname" : "Arial",
					"numinlets" : 1,
					"fontsize" : 9.0,
					"numoutlets" : 2
				}

			}
, 			{
				"box" : 				{
					"maxclass" : "newobj",
					"text" : "p get_stream_names",
					"outlettype" : [ "" ],
					"patching_rect" : [ 11.0, 332.0, 110.0, 17.0 ],
					"id" : "obj-5",
					"fontname" : "Arial",
					"numinlets" : 1,
					"fontsize" : 9.0,
					"numoutlets" : 1,
					"patcher" : 					{
						"fileversion" : 1,
						"rect" : [ 240.0, 60.0, 599.0, 546.0 ],
						"bglocked" : 0,
						"defrect" : [ 240.0, 60.0, 599.0, 546.0 ],
						"openrect" : [ 0.0, 0.0, 0.0, 0.0 ],
						"openinpresentation" : 0,
						"default_fontsize" : 12.0,
						"default_fontface" : 0,
						"default_fontname" : "Arial",
						"gridonopen" : 0,
						"gridsize" : [ 15.0, 15.0 ],
						"gridsnaponopen" : 0,
						"toolbarvisible" : 1,
						"boxanimatetime" : 200,
						"imprint" : 0,
						"metadata" : [  ],
						"boxes" : [ 							{
								"box" : 								{
									"maxclass" : "comment",
									"text" : "this populates the ubumenu in the GUI",
									"patching_rect" : [ 24.0, 464.0, 375.0, 17.0 ],
									"id" : "obj-1",
									"fontname" : "Arial",
									"numinlets" : 1,
									"fontsize" : 9.0,
									"numoutlets" : 0
								}

							}
, 							{
								"box" : 								{
									"maxclass" : "comment",
									"text" : "/toubu append [stream name] (with [number] rows and [number] columns)",
									"patching_rect" : [ 24.0, 445.0, 375.0, 17.0 ],
									"id" : "obj-2",
									"fontname" : "Arial",
									"numinlets" : 1,
									"fontsize" : 9.0,
									"numoutlets" : 0
								}

							}
, 							{
								"box" : 								{
									"maxclass" : "comment",
									"text" : "succeeding output messages formatted like this:",
									"patching_rect" : [ 24.0, 431.0, 214.0, 17.0 ],
									"id" : "obj-3",
									"fontname" : "Arial",
									"numinlets" : 1,
									"fontsize" : 9.0,
									"numoutlets" : 0
								}

							}
, 							{
								"box" : 								{
									"maxclass" : "comment",
									"text" : "inlet: SDIF file name",
									"patching_rect" : [ 147.0, 23.0, 107.0, 17.0 ],
									"id" : "obj-4",
									"fontname" : "Arial",
									"numinlets" : 1,
									"fontsize" : 9.0,
									"numoutlets" : 0
								}

							}
, 							{
								"box" : 								{
									"maxclass" : "outlet",
									"patching_rect" : [ 183.0, 409.0, 15.0, 15.0 ],
									"id" : "obj-5",
									"numinlets" : 1,
									"numoutlets" : 0,
									"comment" : ""
								}

							}
, 							{
								"box" : 								{
									"maxclass" : "newobj",
									"text" : "pipe 50",
									"outlettype" : [ "" ],
									"patching_rect" : [ 128.0, 312.0, 43.0, 17.0 ],
									"id" : "obj-6",
									"fontname" : "Arial",
									"numinlets" : 2,
									"fontsize" : 9.0,
									"numoutlets" : 1
								}

							}
, 							{
								"box" : 								{
									"maxclass" : "inlet",
									"outlettype" : [ "" ],
									"patching_rect" : [ 127.0, 20.0, 15.0, 15.0 ],
									"id" : "obj-7",
									"numinlets" : 0,
									"numoutlets" : 1,
									"comment" : "SDIF file name"
								}

							}
, 							{
								"box" : 								{
									"maxclass" : "newobj",
									"text" : "prepend /toubu",
									"outlettype" : [ "" ],
									"patching_rect" : [ 183.0, 383.0, 78.0, 17.0 ],
									"id" : "obj-8",
									"fontname" : "Arial",
									"numinlets" : 1,
									"fontsize" : 9.0,
									"numoutlets" : 1
								}

							}
, 							{
								"box" : 								{
									"maxclass" : "comment",
									"text" : "column number 7 is the number of matrix rows, and column number 8 is the number of matrix columns.",
									"linecount" : 4,
									"patching_rect" : [ 227.0, 221.0, 138.0, 48.0 ],
									"id" : "obj-9",
									"fontname" : "Arial",
									"numinlets" : 1,
									"fontsize" : 9.0,
									"numoutlets" : 0
								}

							}
, 							{
								"box" : 								{
									"maxclass" : "comment",
									"text" : "number of rows equals number of streams in the SDIF file",
									"linecount" : 2,
									"patching_rect" : [ 4.0, 128.0, 145.0, 27.0 ],
									"id" : "obj-11",
									"fontname" : "Arial",
									"numinlets" : 1,
									"fontsize" : 9.0,
									"numoutlets" : 0
								}

							}
, 							{
								"box" : 								{
									"maxclass" : "comment",
									"text" : "ftm.sdif.info outputs a matrix with info on the data in the different streams",
									"linecount" : 2,
									"patching_rect" : [ 198.0, 103.0, 195.0, 27.0 ],
									"id" : "obj-12",
									"fontname" : "Arial",
									"numinlets" : 1,
									"fontsize" : 9.0,
									"numoutlets" : 0
								}

							}
, 							{
								"box" : 								{
									"maxclass" : "newobj",
									"text" : "t s b",
									"outlettype" : [ "", "bang" ],
									"patching_rect" : [ 127.0, 37.0, 30.0, 17.0 ],
									"id" : "obj-13",
									"fontname" : "Arial",
									"numinlets" : 1,
									"fontsize" : 9.0,
									"numoutlets" : 2
								}

							}
, 							{
								"box" : 								{
									"maxclass" : "message",
									"text" : "0",
									"outlettype" : [ "" ],
									"patching_rect" : [ 119.0, 269.0, 16.0, 15.0 ],
									"id" : "obj-14",
									"fontname" : "Arial",
									"numinlets" : 2,
									"fontsize" : 9.0,
									"numoutlets" : 1
								}

							}
, 							{
								"box" : 								{
									"maxclass" : "newobj",
									"text" : "t 1 l -1",
									"outlettype" : [ "int", "", "int" ],
									"patching_rect" : [ 151.0, 189.0, 51.0, 17.0 ],
									"id" : "obj-15",
									"fontname" : "Arial",
									"numinlets" : 1,
									"fontsize" : 9.0,
									"numoutlets" : 3
								}

							}
, 							{
								"box" : 								{
									"maxclass" : "newobj",
									"text" : "metro 50",
									"outlettype" : [ "bang" ],
									"patching_rect" : [ 129.0, 232.0, 52.0, 17.0 ],
									"id" : "obj-16",
									"fontname" : "Arial",
									"numinlets" : 2,
									"fontsize" : 9.0,
									"numoutlets" : 1
								}

							}
, 							{
								"box" : 								{
									"maxclass" : "newobj",
									"text" : "bline",
									"outlettype" : [ "", "" ],
									"patching_rect" : [ 183.0, 260.0, 31.0, 17.0 ],
									"id" : "obj-17",
									"fontname" : "Arial",
									"numinlets" : 1,
									"fontsize" : 9.0,
									"numoutlets" : 2
								}

							}
, 							{
								"box" : 								{
									"maxclass" : "newobj",
									"text" : "sprintf append %s (with %i rows and %i columns)",
									"linecount" : 2,
									"outlettype" : [ "" ],
									"patching_rect" : [ 183.0, 311.0, 146.0, 27.0 ],
									"id" : "obj-18",
									"fontname" : "Arial",
									"numinlets" : 3,
									"fontsize" : 9.0,
									"numoutlets" : 1
								}

							}
, 							{
								"box" : 								{
									"maxclass" : "message",
									"text" : "clear",
									"outlettype" : [ "" ],
									"patching_rect" : [ 346.0, 322.0, 33.0, 15.0 ],
									"id" : "obj-19",
									"fontname" : "Arial",
									"numinlets" : 2,
									"fontsize" : 9.0,
									"numoutlets" : 1
								}

							}
, 							{
								"box" : 								{
									"maxclass" : "ftm.mess",
									"ftm_scope" : 0,
									"presentation_rect" : [ 183.0, 292.0, 145.117188, 16.001465 ],
									"outlettype" : [ "" ],
									"#init" : "",
									"patching_rect" : [ 183.0, 292.0, 145.117188, 16.001465 ],
									"id" : "obj-20",
									"#triggerall" : 0,
									"fontname" : "Geneva",
									"#untuple" : 0,
									"text" : [ "_$2 [$1 0] $2 [$1 7] $2 [$1 8]" ],
									"numinlets" : 2,
									"#loadbang" : 0,
									"fontsize" : 9.0,
									"numoutlets" : 1
								}

							}
, 							{
								"box" : 								{
									"maxclass" : "ftm.mess",
									"ftm_scope" : 0,
									"presentation_rect" : [ 151.0, 135.0, 50.577633, 16.001465 ],
									"outlettype" : [ "" ],
									"#init" : "",
									"patching_rect" : [ 151.0, 135.0, 50.577633, 16.001465 ],
									"id" : "obj-21",
									"#triggerall" : 0,
									"fontname" : "Geneva",
									"#untuple" : 0,
									"text" : [ "_($1 rows)" ],
									"numinlets" : 2,
									"#loadbang" : 0,
									"fontsize" : 9.0,
									"numoutlets" : 1
								}

							}
, 							{
								"box" : 								{
									"maxclass" : "message",
									"text" : "$1 $1",
									"outlettype" : [ "" ],
									"patching_rect" : [ 151.0, 167.0, 37.0, 15.0 ],
									"id" : "obj-22",
									"fontname" : "Arial",
									"numinlets" : 2,
									"fontsize" : 9.0,
									"numoutlets" : 1
								}

							}
, 							{
								"box" : 								{
									"maxclass" : "ftm.mess",
									"ftm_scope" : 0,
									"presentation_rect" : [ 127.0, 81.0, 88.673836, 16.001465 ],
									"outlettype" : [ "" ],
									"#init" : "",
									"patching_rect" : [ 127.0, 81.0, 88.673836, 16.001465 ],
									"id" : "obj-23",
									"#triggerall" : 0,
									"fontname" : "Geneva",
									"#untuple" : 0,
									"text" : [ "_set $1, bang, print" ],
									"numinlets" : 2,
									"#loadbang" : 0,
									"fontsize" : 9.0,
									"numoutlets" : 1
								}

							}
, 							{
								"box" : 								{
									"maxclass" : "newobj",
									"text" : "ftm.sdif.info",
									"outlettype" : [ "", "", "" ],
									"patching_rect" : [ 127.0, 103.0, 66.0, 17.0 ],
									"id" : "obj-24",
									"fontname" : "Arial",
									"numinlets" : 1,
									"fontsize" : 9.0,
									"numoutlets" : 3,
									"saved_object_attributes" : 									{
										"ftm_scope" : 0
									}

								}

							}
, 							{
								"box" : 								{
									"maxclass" : "comment",
									"text" : "Populate the ubumenu according to the frame definitions in the SDIF file.",
									"linecount" : 4,
									"patching_rect" : [ 12.0, 270.0, 102.0, 48.0 ],
									"id" : "obj-25",
									"fontname" : "Arial",
									"numinlets" : 1,
									"fontsize" : 9.0,
									"numoutlets" : 0
								}

							}
, 							{
								"box" : 								{
									"maxclass" : "comment",
									"text" : "The first column (0) of the matrix given by ftm.sdif.info holds the frame definitions. The contents of these cells are output one after another, and sent to a sprintf-object which populates the ubumenu",
									"linecount" : 7,
									"patching_rect" : [ 227.0, 134.0, 147.0, 79.0 ],
									"id" : "obj-26",
									"fontname" : "Arial",
									"numinlets" : 1,
									"fontsize" : 9.0,
									"numoutlets" : 0
								}

							}
 ],
						"lines" : [ 							{
								"patchline" : 								{
									"source" : [ "obj-17", 1 ],
									"destination" : [ "obj-14", 0 ],
									"hidden" : 0,
									"color" : [ 0.6667, 0.6667, 0.6667, 1.0 ],
									"midpoints" : [ 204.5, 285.0, 139.0, 285.0, 139.0, 263.0, 125.0, 263.0 ]
								}

							}
, 							{
								"patchline" : 								{
									"source" : [ "obj-7", 0 ],
									"destination" : [ "obj-13", 0 ],
									"hidden" : 0,
									"midpoints" : [  ]
								}

							}
, 							{
								"patchline" : 								{
									"source" : [ "obj-13", 0 ],
									"destination" : [ "obj-23", 0 ],
									"hidden" : 0,
									"midpoints" : [  ]
								}

							}
, 							{
								"patchline" : 								{
									"source" : [ "obj-23", 0 ],
									"destination" : [ "obj-24", 0 ],
									"hidden" : 0,
									"midpoints" : [  ]
								}

							}
, 							{
								"patchline" : 								{
									"source" : [ "obj-14", 0 ],
									"destination" : [ "obj-6", 0 ],
									"hidden" : 0,
									"midpoints" : [ 128.5, 290.0, 137.5, 290.0 ]
								}

							}
, 							{
								"patchline" : 								{
									"source" : [ "obj-14", 0 ],
									"destination" : [ "obj-16", 0 ],
									"hidden" : 0,
									"midpoints" : [ 128.5, 295.0, 113.0, 295.0, 113.0, 215.0, 138.5, 215.0 ]
								}

							}
, 							{
								"patchline" : 								{
									"source" : [ "obj-15", 0 ],
									"destination" : [ "obj-16", 0 ],
									"hidden" : 0,
									"midpoints" : [ 160.5, 221.0, 138.5, 221.0 ]
								}

							}
, 							{
								"patchline" : 								{
									"source" : [ "obj-24", 1 ],
									"destination" : [ "obj-21", 0 ],
									"hidden" : 0,
									"midpoints" : [  ]
								}

							}
, 							{
								"patchline" : 								{
									"source" : [ "obj-21", 0 ],
									"destination" : [ "obj-22", 0 ],
									"hidden" : 0,
									"midpoints" : [  ]
								}

							}
, 							{
								"patchline" : 								{
									"source" : [ "obj-22", 0 ],
									"destination" : [ "obj-15", 0 ],
									"hidden" : 0,
									"midpoints" : [  ]
								}

							}
, 							{
								"patchline" : 								{
									"source" : [ "obj-15", 1 ],
									"destination" : [ "obj-17", 0 ],
									"hidden" : 0,
									"midpoints" : [ 176.5, 216.0, 192.5, 216.0 ]
								}

							}
, 							{
								"patchline" : 								{
									"source" : [ "obj-15", 2 ],
									"destination" : [ "obj-17", 0 ],
									"hidden" : 0,
									"midpoints" : [  ]
								}

							}
, 							{
								"patchline" : 								{
									"source" : [ "obj-16", 0 ],
									"destination" : [ "obj-17", 0 ],
									"hidden" : 0,
									"midpoints" : [ 138.5, 256.0, 192.5, 256.0 ]
								}

							}
, 							{
								"patchline" : 								{
									"source" : [ "obj-17", 0 ],
									"destination" : [ "obj-20", 0 ],
									"hidden" : 0,
									"midpoints" : [  ]
								}

							}
, 							{
								"patchline" : 								{
									"source" : [ "obj-20", 0 ],
									"destination" : [ "obj-18", 0 ],
									"hidden" : 0,
									"midpoints" : [  ]
								}

							}
, 							{
								"patchline" : 								{
									"source" : [ "obj-6", 0 ],
									"destination" : [ "obj-8", 0 ],
									"hidden" : 0,
									"midpoints" : [ 137.5, 365.0, 192.5, 365.0 ]
								}

							}
, 							{
								"patchline" : 								{
									"source" : [ "obj-18", 0 ],
									"destination" : [ "obj-8", 0 ],
									"hidden" : 0,
									"midpoints" : [  ]
								}

							}
, 							{
								"patchline" : 								{
									"source" : [ "obj-19", 0 ],
									"destination" : [ "obj-8", 0 ],
									"hidden" : 0,
									"midpoints" : [ 355.5, 369.0, 192.5, 369.0 ]
								}

							}
, 							{
								"patchline" : 								{
									"source" : [ "obj-8", 0 ],
									"destination" : [ "obj-5", 0 ],
									"hidden" : 0,
									"midpoints" : [  ]
								}

							}
, 							{
								"patchline" : 								{
									"source" : [ "obj-24", 1 ],
									"destination" : [ "obj-20", 1 ],
									"hidden" : 0,
									"midpoints" : [ 160.0, 128.0, 384.0, 128.0, 384.0, 286.0, 318.617188, 286.0 ]
								}

							}
, 							{
								"patchline" : 								{
									"source" : [ "obj-13", 1 ],
									"destination" : [ "obj-19", 0 ],
									"hidden" : 0,
									"midpoints" : [ 147.5, 57.0, 410.0, 57.0, 410.0, 317.0, 355.5, 317.0 ]
								}

							}
 ]
					}
,
					"saved_object_attributes" : 					{
						"default_fontname" : "Arial",
						"default_fontsize" : 12.0,
						"fontname" : "Arial",
						"globalpatchername" : "",
						"default_fontface" : 0,
						"fontface" : 0,
						"fontsize" : 12.0
					}

				}

			}
, 			{
				"box" : 				{
					"maxclass" : "outlet",
					"patching_rect" : [ 11.0, 386.0, 25.0, 25.0 ],
					"id" : "obj-6",
					"numinlets" : 1,
					"numoutlets" : 0,
					"comment" : ""
				}

			}
, 			{
				"box" : 				{
					"maxclass" : "ftm.mess",
					"ftm_scope" : 0,
					"presentation_rect" : [ 42.0, 216.0, 70.0, 16.001465 ],
					"outlettype" : [ "" ],
					"#init" : "",
					"patching_rect" : [ 42.0, 216.0, 70.0, 16.001465 ],
					"id" : "obj-7",
					"#triggerall" : 0,
					"fontname" : "Geneva",
					"#untuple" : 0,
					"text" : [ "_($1 duration)" ],
					"numinlets" : 2,
					"#loadbang" : 0,
					"fontsize" : 9.0,
					"numoutlets" : 1
				}

			}
, 			{
				"box" : 				{
					"maxclass" : "newobj",
					"text" : "jcom.return duration @range/bounds 0. 1000000. @range/clipmode low @description \"Size of the chosen SDIF stream (in milliseconds)\"",
					"linecount" : 3,
					"outlettype" : [ "", "" ],
					"patching_rect" : [ 42.0, 234.0, 233.0, 38.0 ],
					"id" : "obj-8",
					"fontname" : "Arial",
					"numinlets" : 1,
					"fontsize" : 9.0,
					"numoutlets" : 2
				}

			}
, 			{
				"box" : 				{
					"maxclass" : "ftm.mess",
					"ftm_scope" : 0,
					"presentation_rect" : [ 42.0, 177.0, 127.0, 16.001465 ],
					"outlettype" : [ "" ],
					"#init" : "",
					"patching_rect" : [ 42.0, 177.0, 127.0, 16.001465 ],
					"id" : "obj-9",
					"#triggerall" : 0,
					"fontname" : "Geneva",
					"#untuple" : 0,
					"text" : [ "_clear, import $2 $1, bang" ],
					"numinlets" : 2,
					"#loadbang" : 0,
					"fontsize" : 9.0,
					"numoutlets" : 1
				}

			}
, 			{
				"box" : 				{
					"maxclass" : "ftm.object",
					"ftm_scope" : 0,
					"presentation_rect" : [ 42.0, 195.0, 93.139656, 18.001465 ],
					"persistence" : 1,
					"outlettype" : [ "", "" ],
					"description" : "track fmat",
					"patching_rect" : [ 42.0, 195.0, 93.139656, 18.001465 ],
					"id" : "obj-10",
					"fontname" : "Geneva",
					"name" : "track1",
					"numinlets" : 1,
					"scope" : 0,
					"fontsize" : 9.0,
					"numoutlets" : 2,
					"serialized_objects" : [ [ "track", "fmat", 1 ], [ "sequence", "fmat", 2 ], [ 1, "events", "#2" ], [ "sequence", "marker", 3 ], [ 1, "markers", "#3" ], [ "sequence", "metric", 4 ], [ 1, "metric", "#4" ], [ "sequence", "number", 5 ], [ 1, "tempo", "#5" ] ]
				}

			}
, 			{
				"box" : 				{
					"maxclass" : "newobj",
					"text" : "ftm.play $track1",
					"outlettype" : [ "", "", "" ],
					"patching_rect" : [ 300.0, 157.0, 104.0, 17.0 ],
					"id" : "obj-11",
					"fontname" : "Arial",
					"numinlets" : 4,
					"fontsize" : 9.0,
					"numoutlets" : 3,
					"saved_object_attributes" : 					{
						"ftm_scope" : 2
					}

				}

			}
, 			{
				"box" : 				{
					"maxclass" : "newobj",
					"text" : "jcom.oscroute /file /stream",
					"outlettype" : [ "", "", "" ],
					"patching_rect" : [ 11.0, 81.0, 147.0, 17.0 ],
					"id" : "obj-12",
					"fontname" : "Arial",
					"numinlets" : 1,
					"fontsize" : 9.0,
					"numoutlets" : 3
				}

			}
, 			{
				"box" : 				{
					"maxclass" : "inlet",
					"varname" : "inlet",
					"outlettype" : [ "" ],
					"patching_rect" : [ 11.0, 42.0, 25.0, 25.0 ],
					"id" : "obj-13",
					"numinlets" : 0,
					"numoutlets" : 1,
					"comment" : ""
				}

			}
, 			{
				"box" : 				{
					"maxclass" : "message",
					"text" : "0",
					"outlettype" : [ "" ],
					"patching_rect" : [ 388.0, 179.0, 16.0, 15.0 ],
					"id" : "obj-14",
					"fontname" : "Arial",
					"numinlets" : 2,
					"fontsize" : 9.0,
					"numoutlets" : 1
				}

			}
, 			{
				"box" : 				{
					"maxclass" : "newobj",
					"text" : "prepend /playoff",
					"outlettype" : [ "" ],
					"patching_rect" : [ 388.0, 203.0, 86.0, 17.0 ],
					"id" : "obj-15",
					"fontname" : "Arial",
					"numinlets" : 1,
					"fontsize" : 9.0,
					"numoutlets" : 1
				}

			}
 ],
		"lines" : [ 			{
				"patchline" : 				{
					"source" : [ "obj-11", 0 ],
					"destination" : [ "obj-19", 0 ],
					"hidden" : 0,
					"midpoints" : [  ]
				}

			}
, 			{
				"patchline" : 				{
					"source" : [ "obj-13", 0 ],
					"destination" : [ "obj-12", 0 ],
					"hidden" : 0,
					"midpoints" : [  ]
				}

			}
, 			{
				"patchline" : 				{
					"source" : [ "obj-12", 0 ],
					"destination" : [ "obj-5", 0 ],
					"hidden" : 0,
					"midpoints" : [  ]
				}

			}
, 			{
				"patchline" : 				{
					"source" : [ "obj-15", 0 ],
					"destination" : [ "obj-6", 0 ],
					"hidden" : 0,
					"midpoints" : [ 397.5, 223.0, 593.0, 223.0, 593.0, 357.0, 20.5, 357.0 ]
				}

			}
, 			{
				"patchline" : 				{
					"source" : [ "obj-5", 0 ],
					"destination" : [ "obj-6", 0 ],
					"hidden" : 0,
					"midpoints" : [  ]
				}

			}
, 			{
				"patchline" : 				{
					"source" : [ "obj-12", 1 ],
					"destination" : [ "obj-3", 0 ],
					"hidden" : 0,
					"midpoints" : [  ]
				}

			}
, 			{
				"patchline" : 				{
					"source" : [ "obj-3", 0 ],
					"destination" : [ "obj-9", 0 ],
					"hidden" : 0,
					"midpoints" : [  ]
				}

			}
, 			{
				"patchline" : 				{
					"source" : [ "obj-9", 0 ],
					"destination" : [ "obj-10", 0 ],
					"hidden" : 0,
					"midpoints" : [  ]
				}

			}
, 			{
				"patchline" : 				{
					"source" : [ "obj-10", 0 ],
					"destination" : [ "obj-7", 0 ],
					"hidden" : 0,
					"midpoints" : [  ]
				}

			}
, 			{
				"patchline" : 				{
					"source" : [ "obj-12", 0 ],
					"destination" : [ "obj-9", 1 ],
					"hidden" : 0,
					"midpoints" : [ 20.5, 293.0, 286.0, 293.0, 286.0, 170.0, 159.5, 170.0 ]
				}

			}
, 			{
				"patchline" : 				{
					"source" : [ "obj-12", 0 ],
					"destination" : [ "obj-3", 1 ],
					"hidden" : 0,
					"midpoints" : [ 20.5, 293.0, 286.0, 293.0, 286.0, 135.0, 172.5, 135.0 ]
				}

			}
, 			{
				"patchline" : 				{
					"source" : [ "obj-12", 2 ],
					"destination" : [ "obj-2", 0 ],
					"hidden" : 0,
					"midpoints" : [ 148.5, 103.0, 309.5, 103.0 ]
				}

			}
, 			{
				"patchline" : 				{
					"source" : [ "obj-2", 0 ],
					"destination" : [ "obj-11", 0 ],
					"hidden" : 0,
					"midpoints" : [  ]
				}

			}
, 			{
				"patchline" : 				{
					"source" : [ "obj-2", 1 ],
					"destination" : [ "obj-11", 1 ],
					"hidden" : 0,
					"midpoints" : [  ]
				}

			}
, 			{
				"patchline" : 				{
					"source" : [ "obj-2", 2 ],
					"destination" : [ "obj-11", 2 ],
					"hidden" : 0,
					"midpoints" : [  ]
				}

			}
, 			{
				"patchline" : 				{
					"source" : [ "obj-2", 3 ],
					"destination" : [ "obj-11", 3 ],
					"hidden" : 0,
					"midpoints" : [  ]
				}

			}
, 			{
				"patchline" : 				{
					"source" : [ "obj-11", 2 ],
					"destination" : [ "obj-14", 0 ],
					"hidden" : 0,
					"midpoints" : [  ]
				}

			}
, 			{
				"patchline" : 				{
					"source" : [ "obj-14", 0 ],
					"destination" : [ "obj-15", 0 ],
					"hidden" : 0,
					"midpoints" : [  ]
				}

			}
, 			{
				"patchline" : 				{
					"source" : [ "obj-11", 1 ],
					"destination" : [ "obj-4", 0 ],
					"hidden" : 0,
					"midpoints" : [  ]
				}

			}
, 			{
				"patchline" : 				{
					"source" : [ "obj-7", 0 ],
					"destination" : [ "obj-8", 0 ],
					"hidden" : 0,
					"midpoints" : [  ]
				}

			}
 ]
	}

}
