max v2;#N vpatcher 227 142 505 472;#P origin 0 -20;#P window setfont "Sans Serif" 9.;#P window linecount 1;#P comment 33 280 100 196617 a d z;#P newex 68 169 40 196617 + 360.;#P newex 68 195 43 196617 % 360.;#P message 13 256 52 196617 \$2 \$1 \$3;#P newex 68 99 52 196617 change 0.;#P newex 13 233 120 196617 pak 0. 0. 0.;#P newex 13 53 120 196617 unpack 0. 0. 0.;#P newex 68 145 43 196617 % 360.;#N comlet a d z;#P outlet 13 279 15 0;#N comlet x y z;#P inlet 13 26 15 0;#P newex 68 122 194 196617 expr (450 + (($f1 * 180.) / -3.14159));#P newex 13 76 65 196617 cartopol;#P comment 35 27 100 196617 x y z;#P connect 3 0 6 0;#P connect 6 0 1 0;#P connect 1 0 7 0;#P connect 7 0 9 0;#P connect 9 0 4 0;#P connect 6 1 1 1;#P connect 1 1 8 0;#P connect 8 0 2 0;#P connect 2 0 5 0;#P connect 5 0 11 0;#P connect 11 0 10 0;#P connect 10 0 7 1;#P connect 6 2 7 2;#P pop;