max v2;#N vpatcher 203 117 491 487;#P origin 0 -35;#P window setfont "Sans Serif" 9.;#P window linecount 1;#P comment 31 293 100 196617 x y z;#P newex 67 207 49 196617 % 6.283;#P newex 67 180 46 196617 + 6.283;#P newex 67 154 49 196617 % 6.283;#P newex 48 113 29 196617 t b f;#P newex 67 88 52 196617 change 0.;#P message 12 44 52 196617 \$2 \$1 \$3;#P newex 12 270 120 196617 pak 0. 0. 0.;#P newex 12 66 120 196617 unpack 0. 0. 0.;#N comlet x y z;#P outlet 12 292 15 0;#N comlet a d z;#P inlet 12 23 15 0;#P newex 12 248 65 196617 poltocar;#P newex 67 133 196 196617 expr ((($f1 - 450.) * -3.14159) / 180.);#P comment 29 24 100 196617 a d z;#P connect 3 0 7 0;#P connect 7 0 5 0;#P fasten 9 0 2 0 53 153 17 153;#P connect 5 0 2 0;#P connect 2 0 6 0;#P connect 6 0 4 0;#P fasten 8 0 9 0 72 109 53 109;#P connect 5 1 8 0;#P connect 9 1 1 0;#P connect 1 0 10 0;#P connect 10 0 11 0;#P connect 11 0 12 0;#P connect 12 0 2 1;#P connect 2 1 6 1;#P connect 5 2 6 2;#P pop;