max v2;#N vpatcher 180 60 1263 624;#P origin 0 -4;#P window setfont "Sans Serif" 9.;#P window linecount 1;#N vpatcher 20 74 286 216;#P window setfont "Sans Serif" 9.;#P window linecount 1;#P newex 50 50 166 196617 jcom.oscroute /slab;#P newex 50 72 141 196617 jcom.class.gl_slab.route;#P inlet 50 30 15 0;#P outlet 50 94 15 0;#P outlet 206 94 15 0;#P connect 2 0 4 0;#P connect 4 0 3 0;#P connect 3 0 1 0;#P connect 4 1 0 0;#P pop;#P newobj 311 49 36 196617 p slab;#P newex 839 26 116 196617 r $0_refresh_textures;#N thispatcher;#Q end;#P newobj 360 212 61 196617 thispatcher;#N vpatcher 90 70 550 567;#P window setfont "Sans Serif" 9.;#P window linecount 1;#P newex 274 209 40 196617 t l l l;#P newex 304 257 94 196617 jcom.equals param;#P newex 274 278 40 196617 zl mth;#P newex 274 324 72 196617 prepend store;#P newex 274 301 138 196617 zl join;#P newex 304 234 51 196617 zl slice 1;#P window linecount 0;#P newex 60 435 116 196617 s $0_refresh_textures;#N vpatcher 10 59 943 602;#P window setfont "Sans Serif" 9.;#P window linecount 0;#P newex 87 94 651 196617 t b s b;#P window linecount 1;#P message 196 296 189 196617 script connect THRU_0 0 ALPHASLAB 0;#P message 196 192 180 196617 script connect ALPHASLAB 1 PRINT 0;#P message 196 166 171 196617 script connect ALPHASLAB 0 OUT 0;#P message 196 218 182 196617 script connect REG_3 0 ALPHASLAB 3;#P message 196 244 182 196617 script connect REG_2 0 ALPHASLAB 2;#P window linecount 0;#P message 196 270 182 196617 script connect REG_1 0 ALPHASLAB 1;#P window linecount 1;#P message 726 311 125 196617 script delete ALPHASLAB;#P window linecount 2;#P newex 407 289 284 196617 sprintf script new ALPHASLAB newex 550 230 271 196617 jit.gl.slab %s @file jcom.4ch_alphamixer.jxs @inputs 4;#P outlet 87 358 15 0;#P inlet 87 62 15 0;#P connect 0 0 10 0;#P connect 9 0 1 0;#P connect 4 0 1 0;#P connect 5 0 1 0;#P connect 6 0 1 0;#P connect 8 0 1 0;#P connect 7 0 1 0;#P connect 3 0 1 0;#P connect 2 0 1 0;#P connect 10 0 7 0;#P connect 10 0 8 0;#P connect 10 0 6 0;#P connect 10 0 5 0;#P connect 10 0 4 0;#P connect 10 0 9 0;#P connect 10 1 2 0;#P connect 10 2 3 0;#P pop;#P newobj 158 241 58 196617 p scripting;#P outlet 158 383 15 0;#P newex 60 210 108 196617 t b s;#P newex 60 237 50 196617 deferlow;#P outlet 98 383 15 0;#P newex 60 260 48 196617 t b dump;#P inlet 60 183 15 0;#P window linecount 1;#N coll ;#P newobj 98 359 53 196617 coll;#P inlet 274 183 15 0;#P window linecount 0;#P comment 31 39 383 196617 This is a hack around a current bug in jit.gl.slab (as of Jitter 1.6.3 \, August 2007):;#P comment 31 69 383 196617 If a jit.gl.slab is created and activated while drawing to a non-existing context \, it seems to die. To avoid this \, the jit.gl.slab is recreated using scripting whenever context is changed. In order for settings and textures not to get lost when changing context \, they are stored locally in the coll of this subpatch and the four "zl reg" objects of the algorithm so that they can be dumped to the newly created instance of jit.gl.slab.;#P connect 4 0 8 0;#P connect 8 0 7 0;#P connect 7 0 5 0;#P connect 5 0 11 0;#P connect 5 1 3 0;#P connect 14 0 3 0;#P connect 3 0 6 0;#P connect 8 1 10 0;#P connect 10 0 9 0;#P connect 2 0 17 0;#P connect 17 0 15 0;#P connect 15 0 13 0;#P connect 13 0 14 0;#P connect 17 2 12 0;#P connect 12 0 16 0;#P connect 16 0 15 1;#P fasten 17 1 13 1 294 229 407 229;#P pop;#P newobj 256 145 114 196617 p set_new_context;#P newex 360 119 75 196617 jcom.thru;#P newex 550 192 75 196617 jcom.thru;#P objectname THRU_0;#P newex 811 83 36 196617 zl reg;#P objectname REG_3;#P newex 724 83 36 196617 zl reg;#P objectname REG_2;#P newex 637 83 36 196617 zl reg;#P objectname REG_1;#P newex 550 83 36 196617 zl reg;#P newex 813 263 105 196617 print alphaslab_dump;#P objectname PRINT;#N vpatcher 373 87 838 287;#P outlet 362 130 15 0;#P window setfont "Sans Serif" 9.;#N vpatcher 0 44 443 240;#P window setfont "Sans Serif" 9.;#P window linecount 0;#P newex 290 75 30 196617 t s s;#P outlet 290 145 15 0;#P newex 310 99 80 196617 prepend drawto;#P window linecount 1;#P newex 290 51 117 196617 jcom.oscroute /context;#P newex 50 50 225 196617 jcom.pass /antialias /automatic /enable /layer;#P inlet 50 30 15 0;#P outlet 50 139 15 0;#P connect 1 0 2 0;#P fasten 2 3 0 0 214 99 55 99;#P fasten 2 2 0 0 161 99 55 99;#P fasten 2 1 0 0 108 99 55 99;#P fasten 2 0 0 0 55 99 55 99;#P fasten 4 0 0 0 315 127 55 127;#P connect 2 4 3 0;#P connect 3 0 6 0;#P connect 6 0 5 0;#P connect 6 1 4 0;#P pop;#P newobj 332 84 40 196617 p render;#N vpatcher 0 44 451 247;#P window setfont "Sans Serif" 9.;#P newex 274 85 108 196617 prepend inherit_depth;#P newex 162 85 106 196617 prepend depth_enable;#P newex 50 85 101 196617 prepend depth_clear;#P newex 50 50 348 196617 jcom.oscroute /clear /enable /inherit;#P inlet 50 30 15 0;#P outlet 50 128 15 0;#P connect 1 0 2 0;#P connect 2 0 3 0;#P connect 3 0 0 0;#P fasten 4 0 0 0 167 115 55 115;#P fasten 5 0 0 0 279 115 55 115;#P connect 2 1 4 0;#P connect 2 2 5 0;#P pop;#P newobj 191 84 42 196617 p depth;#N vpatcher 0 44 338 300;#P window setfont "Sans Serif" 9.;#P newex 105 75 29 196617 t b f;#P newex 158 109 107 196617 prepend inherit_color;#P newex 52 160 71 196617 prepend color;#P newex 52 125 82 196617 zl join;#P newex 52 101 36 196617 zl reg;#P newex 52 50 169 196617 jcom.oscroute /rgb /alpha /inherit;#P inlet 52 30 15 0;#P outlet 52 204 15 0;#P connect 1 0 2 0;#P fasten 7 0 3 0 110 96 57 96;#P connect 2 0 3 0;#P connect 3 0 4 0;#P connect 4 0 5 0;#P connect 5 0 0 0;#P fasten 6 0 0 0 163 188 57 188;#P connect 2 1 7 0;#P connect 7 1 4 1;#P connect 2 2 6 0;#P pop;#P newobj 144 84 41 196617 p color;#N vpatcher 0 44 299 208;#P window setfont "Sans Serif" 9.;#P newex 50 50 99 196617 jcom.pass /position;#P inlet 50 30 15 0;#P outlet 50 80 15 0;#P connect 1 0 2 0;#P connect 2 0 0 0;#P pop;#P newobj 50 84 30 196617 p 3D;#N vpatcher 0 44 322 219;#P window setfont "Sans Serif" 9.;#P newex 166 80 100 196617 prepend blend_mode;#P newex 50 80 105 196617 prepend blend_enable;#P newex 50 50 243 196617 jcom.oscroute /enable /mode;#P inlet 50 30 15 0;#P outlet 50 125 15 0;#P connect 1 0 2 0;#P connect 2 0 3 0;#P connect 3 0 0 0;#P connect 4 0 0 0;#P connect 2 1 4 0;#P pop;#P newobj 97 84 41 196617 p blend;#P newex 50 50 341 196617 jcom.oscroute /3D /blend /color /depth /fog /material /render;#P inlet 50 30 15 0;#P outlet 379 130 15 0;#P outlet 50 130 15 0;#P connect 2 0 3 0;#P connect 3 0 5 0;#P fasten 5 0 0 0 55 115 55 115;#P fasten 8 0 0 0 337 115 55 115;#P fasten 4 0 0 0 102 115 55 115;#P fasten 6 0 0 0 149 115 55 115;#P fasten 7 0 0 0 196 115 55 115;#P connect 3 1 4 0;#P connect 3 2 6 0;#P connect 3 3 7 0;#P connect 3 6 8 0;#P connect 8 1 9 0;#P connect 3 7 1 0;#P pop;#P newobj 215 49 93 196617 p route-gl-classes;#P inlet 811 26 15 0;#P inlet 724 26 15 0;#P objectname TEXTURE_2;#N comlet;#P inlet 637 26 15 0;#P objectname TEXTURE_1;#N vpatcher 10 59 419 322;#P window setfont "Sans Serif" 9.;#P window linecount 0;#P newex 239 99 53 196617 prepend d;#P newex 176 99 53 196617 prepend c;#P newex 113 99 53 196617 prepend b;#P newex 50 99 53 196617 prepend a;#P outlet 302 198 15 0;#P window linecount 1;#P newex 50 50 263 196617 jcom.oscroute /layer_0 /layer_1 /layer_2 /layer_3;#P newex 50 176 84 196617 prepend param;#P inlet 50 30 15 0;#P outlet 50 198 15 0;#P connect 1 0 3 0;#P connect 3 0 5 0;#P connect 8 0 2 0;#P connect 7 0 2 0;#P connect 6 0 2 0;#P connect 5 0 2 0;#P connect 2 0 0 0;#P connect 3 1 6 0;#P connect 3 2 7 0;#P connect 3 3 8 0;#P connect 3 4 4 0;#P pop;#P newobj 360 49 87 196617 p alphamix-route;#N vpatcher 20 74 229 307;#P window setfont "Sans Serif" 9.;#P message 69 50 50 196617;#P newex 69 30 62 196617 prepend set;#P newex 71 92 19 196617 t 1;#P newex 50 92 19 196617 t 2;#P newex 50 69 40 196617 sel 0 1;#P newex 50 122 96 196617 gate 2 2;#P inlet 136 30 15 0;#P inlet 50 30 15 0;#P outlet 50 170 15 0;#P outlet 136 170 15 0;#P connect 2 0 5 0;#P connect 5 0 6 0;#P connect 6 0 4 0;#P connect 7 0 4 0;#P connect 4 0 1 0;#P connect 2 0 8 0;#P connect 8 0 9 0;#P connect 5 1 7 0;#P connect 3 0 4 1;#P connect 4 1 0 0;#P pop;#P newobj 451 117 109 196617 p bypass;#P comment 73 285 100 196617 OSC output;#P outlet 48 285 15 0;#P comment 548 9 124 196617 JITTER/TEXTURE INPUTS;#P inlet 550 26 15 0;#P objectname TEXTURE_0;#P inlet 30 30 15 0;#P comment 567 285 89 196617 TEXTURE OUTPUT;#P outlet 550 285 15 0;#P objectname OUT;#P window linecount 2;#P newex 30 49 181 196617 sel open preview disable_ui_updates /video/genframe;#P newex 451 49 76 196617 jcom.oscroute /video/bypass;#P window linecount 1;#P comment 49 30 100 196617 OSC input;#P newex 550 234 273 196617 jit.gl.slab none @file jcom.4ch_alphamixer.jxs @inputs 4;#P objectname ALPHASLAB;#P connect 6 0 3 0;#P connect 3 4 16 0;#P connect 16 1 24 0;#P connect 16 2 27 0;#P connect 27 1 12 0;#P connect 27 0 23 0;#P connect 16 0 23 0;#P connect 12 0 23 0;#P connect 23 0 24 1;#P connect 24 1 25 0;#P connect 12 1 2 0;#P connect 2 0 11 0;#P fasten 26 0 18 0 844 68 555 68;#P connect 7 0 18 0;#P connect 18 0 11 1;#P connect 23 0 22 0;#P connect 11 1 22 0;#P connect 24 0 22 0;#P connect 22 0 0 0;#P connect 0 0 4 0;#P connect 11 0 4 0;#P lcolor 12;#P fasten 26 0 19 0 844 71 642 71;#P connect 13 0 19 0;#P connect 19 0 0 1;#P fasten 26 0 20 0 844 74 729 74;#P connect 14 0 20 0;#P connect 20 0 0 2;#P fasten 26 0 21 0 844 77 816 77;#P connect 15 0 21 0;#P connect 21 0 0 3;#P connect 0 1 17 0;#P pop;