{
	"patcher" : 	{
		"fileversion" : 1,
		"rect" : [ 3.0, 44.0, 888.0, 533.0 ],
		"bglocked" : 0,
		"defrect" : [ 3.0, 44.0, 888.0, 533.0 ],
		"openrect" : [ 0.0, 0.0, 0.0, 0.0 ],
		"openinpresentation" : 1,
		"default_fontsize" : 10.0,
		"default_fontface" : 0,
		"default_fontname" : "Verdana",
		"gridonopen" : 0,
		"gridsize" : [ 5.0, 5.0 ],
		"gridsnaponopen" : 0,
		"toolbarvisible" : 1,
		"boxanimatetime" : 200,
		"imprint" : 0,
		"metadata" : [  ],
		"boxes" : [ 			{
				"box" : 				{
					"maxclass" : "newobj",
					"text" : "poly~ jcom.sur.dbap.speaker_instance 32",
					"numinlets" : 1,
					"fontname" : "Verdana",
					"numoutlets" : 0,
					"fontsize" : 10.0,
					"patching_rect" : [ 640.0, 235.0, 221.0, 19.0 ],
					"id" : "obj-43"
				}

			}
, 			{
				"box" : 				{
					"maxclass" : "newobj",
					"text" : "poly~ jcom.sur.dbap.source_instance 32",
					"numinlets" : 1,
					"fontname" : "Verdana",
					"numoutlets" : 0,
					"fontsize" : 10.0,
					"patching_rect" : [ 640.0, 210.0, 215.0, 19.0 ],
					"id" : "obj-41"
				}

			}
, 			{
				"box" : 				{
					"maxclass" : "comment",
					"text" : "All attributes are set using the inspector.",
					"frgb" : [ 0.0, 0.0, 0.0, 1.0 ],
					"numinlets" : 1,
					"fontname" : "Verdana",
					"numoutlets" : 0,
					"fontsize" : 10.0,
					"patching_rect" : [ 645.0, 25.0, 215.0, 19.0 ],
					"id" : "obj-39"
				}

			}
, 			{
				"box" : 				{
					"maxclass" : "newobj",
					"text" : "jcom.message info",
					"numinlets" : 1,
					"fontname" : "Verdana",
					"numoutlets" : 3,
					"outlettype" : [ "", "", "" ],
					"fontsize" : 10.0,
					"patching_rect" : [ 645.0, 160.0, 105.0, 19.0 ],
					"id" : "obj-28",
					"frozen_object_attributes" : 					{
						"name" : "info",
						"description" : "Get info on current positions of sources and speakers",
						"type" : "msg_none"
					}

				}

			}
, 			{
				"box" : 				{
					"maxclass" : "flonum",
					"numinlets" : 1,
					"fontname" : "Arial",
					"numoutlets" : 2,
					"presentation_rect" : [ 245.0, 45.0, 40.0, 18.0 ],
					"outlettype" : [ "float", "bang" ],
					"fontsize" : 10.0,
					"patching_rect" : [ 585.0, 125.0, 40.0, 18.0 ],
					"presentation" : 1,
					"id" : "obj-17"
				}

			}
, 			{
				"box" : 				{
					"maxclass" : "newobj",
					"varname" : "voices[3]",
					"text" : "jcom.parameter rolloff",
					"numinlets" : 1,
					"fontname" : "Verdana",
					"numoutlets" : 3,
					"outlettype" : [ "", "", "" ],
					"fontsize" : 10.0,
					"patching_rect" : [ 645.0, 125.0, 123.0, 19.0 ],
					"id" : "obj-15",
					"frozen_object_attributes" : 					{
						"name" : "rolloff",
						"priority" : 3,
						"dataspace/unit/internal" : "none",
						"dataspace" : "none",
						"description" : "The relative rolloff of amplitude with distance from speakers, expressed in dB.",
						"ramp/drive" : "none",
						"dataspace/unit/active" : "none",
						"range/bounds" : [ 1.0, 6.0 ],
						"range/clipmode" : "low",
						"dataspace/unit/native" : "none",
						"type" : "msg_float"
					}

				}

			}
, 			{
				"box" : 				{
					"maxclass" : "number",
					"numinlets" : 1,
					"fontname" : "Arial",
					"numoutlets" : 2,
					"presentation_rect" : [ 245.0, 25.0, 40.0, 18.0 ],
					"outlettype" : [ "int", "bang" ],
					"fontsize" : 10.0,
					"patching_rect" : [ 585.0, 100.0, 40.0, 18.0 ],
					"presentation" : 1,
					"id" : "obj-12"
				}

			}
, 			{
				"box" : 				{
					"maxclass" : "newobj",
					"varname" : "voices[2]",
					"text" : "jcom.parameter dimensions",
					"numinlets" : 1,
					"fontname" : "Verdana",
					"numoutlets" : 3,
					"outlettype" : [ "", "", "" ],
					"fontsize" : 10.0,
					"patching_rect" : [ 645.0, 100.0, 151.0, 19.0 ],
					"id" : "obj-13",
					"frozen_object_attributes" : 					{
						"name" : "dimensions",
						"priority" : 1,
						"dataspace" : "none",
						"description" : "Dimensions of the virtual space.",
						"ramp/drive" : "none",
						"dataspace/unit/active" : "none",
						"range/bounds" : [ 1.0, 3.0 ],
						"dataspace/unit/native" : "none",
						"type" : "msg_int"
					}

				}

			}
, 			{
				"box" : 				{
					"maxclass" : "number",
					"numinlets" : 1,
					"fontname" : "Arial",
					"numoutlets" : 2,
					"presentation_rect" : [ 120.0, 45.0, 40.0, 18.0 ],
					"outlettype" : [ "int", "bang" ],
					"fontsize" : 10.0,
					"patching_rect" : [ 585.0, 75.0, 40.0, 18.0 ],
					"presentation" : 1,
					"id" : "obj-10"
				}

			}
, 			{
				"box" : 				{
					"maxclass" : "newobj",
					"varname" : "voices[1]",
					"text" : "jcom.parameter num_speakers",
					"numinlets" : 1,
					"fontname" : "Verdana",
					"numoutlets" : 3,
					"outlettype" : [ "", "", "" ],
					"fontsize" : 10.0,
					"patching_rect" : [ 645.0, 75.0, 168.0, 19.0 ],
					"id" : "obj-11",
					"frozen_object_attributes" : 					{
						"name" : "num_speakers",
						"priority" : 2,
						"dataspace/unit/internal" : "none",
						"dataspace" : "none",
						"description" : "The number of speakers that sources are diffused to.",
						"ramp/drive" : "none",
						"dataspace/unit/active" : "none",
						"range/bounds" : [ 1.0, 32.0 ],
						"range/clipmode" : "both",
						"dataspace/unit/native" : "none",
						"type" : "msg_int"
					}

				}

			}
, 			{
				"box" : 				{
					"maxclass" : "number",
					"numinlets" : 1,
					"fontname" : "Arial",
					"numoutlets" : 2,
					"presentation_rect" : [ 120.0, 25.0, 40.0, 18.0 ],
					"outlettype" : [ "int", "bang" ],
					"fontsize" : 10.0,
					"patching_rect" : [ 585.0, 50.0, 40.0, 18.0 ],
					"presentation" : 1,
					"id" : "obj-9"
				}

			}
, 			{
				"box" : 				{
					"maxclass" : "message",
					"text" : "/preset/store 1 default, /preset/write",
					"numinlets" : 2,
					"fontname" : "Verdana",
					"numoutlets" : 1,
					"outlettype" : [ "" ],
					"fontsize" : 10.0,
					"patching_rect" : [ 300.0, 105.0, 196.0, 17.0 ],
					"id" : "obj-8"
				}

			}
, 			{
				"box" : 				{
					"maxclass" : "newobj",
					"text" : "jcom.in",
					"numinlets" : 1,
					"fontname" : "Verdana",
					"numoutlets" : 2,
					"outlettype" : [ "", "" ],
					"fontsize" : 10.0,
					"patching_rect" : [ 160.0, 225.0, 54.0, 19.0 ],
					"id" : "obj-1"
				}

			}
, 			{
				"box" : 				{
					"maxclass" : "comment",
					"text" : "----multicable signal output----",
					"frgb" : [ 0.0, 0.0, 0.0, 1.0 ],
					"numinlets" : 1,
					"fontname" : "Verdana",
					"numoutlets" : 0,
					"fontsize" : 10.0,
					"patching_rect" : [ 445.0, 450.0, 206.0, 19.0 ],
					"id" : "obj-2"
				}

			}
, 			{
				"box" : 				{
					"maxclass" : "message",
					"text" : "/documentation/generate",
					"numinlets" : 2,
					"fontname" : "Verdana",
					"numoutlets" : 1,
					"outlettype" : [ "" ],
					"fontsize" : 10.0,
					"patching_rect" : [ 135.0, 105.0, 160.0, 17.0 ],
					"id" : "obj-3"
				}

			}
, 			{
				"box" : 				{
					"maxclass" : "newobj",
					"text" : "jcom.pass open",
					"numinlets" : 1,
					"fontname" : "Verdana",
					"numoutlets" : 2,
					"outlettype" : [ "", "" ],
					"fontsize" : 10.0,
					"patching_rect" : [ 160.0, 250.0, 94.0, 19.0 ],
					"id" : "obj-4"
				}

			}
, 			{
				"box" : 				{
					"maxclass" : "newobj",
					"text" : "pcontrol",
					"numinlets" : 1,
					"fontname" : "Verdana",
					"numoutlets" : 1,
					"outlettype" : [ "" ],
					"fontsize" : 10.0,
					"patching_rect" : [ 160.0, 275.0, 57.0, 19.0 ],
					"id" : "obj-5"
				}

			}
, 			{
				"box" : 				{
					"maxclass" : "comment",
					"text" : "Rolloff (dB):",
					"frgb" : [ 0.0, 0.0, 0.0, 1.0 ],
					"numinlets" : 1,
					"fontname" : "Verdana",
					"numoutlets" : 0,
					"presentation_rect" : [ 170.0, 45.0, 72.0, 19.0 ],
					"fontsize" : 10.0,
					"patching_rect" : [ 170.0, 45.0, 72.0, 19.0 ],
					"presentation" : 1,
					"id" : "obj-22"
				}

			}
, 			{
				"box" : 				{
					"maxclass" : "comment",
					"text" : "Dimensions:",
					"frgb" : [ 0.0, 0.0, 0.0, 1.0 ],
					"numinlets" : 1,
					"fontname" : "Verdana",
					"numoutlets" : 0,
					"presentation_rect" : [ 170.0, 25.0, 73.0, 19.0 ],
					"fontsize" : 10.0,
					"patching_rect" : [ 170.0, 25.0, 73.0, 19.0 ],
					"presentation" : 1,
					"id" : "obj-23"
				}

			}
, 			{
				"box" : 				{
					"maxclass" : "comment",
					"text" : "Number of speakers:",
					"frgb" : [ 0.0, 0.0, 0.0, 1.0 ],
					"numinlets" : 1,
					"fontname" : "Verdana",
					"numoutlets" : 0,
					"presentation_rect" : [ 5.0, 45.0, 116.0, 19.0 ],
					"fontsize" : 10.0,
					"patching_rect" : [ 5.0, 45.0, 116.0, 19.0 ],
					"presentation" : 1,
					"id" : "obj-24"
				}

			}
, 			{
				"box" : 				{
					"maxclass" : "outlet",
					"numinlets" : 1,
					"numoutlets" : 0,
					"patching_rect" : [ 415.0, 450.0, 25.0, 25.0 ],
					"id" : "obj-25",
					"comment" : "Channel 1"
				}

			}
, 			{
				"box" : 				{
					"maxclass" : "inlet",
					"numinlets" : 0,
					"numoutlets" : 1,
					"outlettype" : [ "" ],
					"patching_rect" : [ 415.0, 375.0, 25.0, 25.0 ],
					"id" : "obj-26",
					"comment" : "W - omni"
				}

			}
, 			{
				"box" : 				{
					"maxclass" : "comment",
					"text" : "----multicable signal input----",
					"frgb" : [ 0.0, 0.0, 0.0, 1.0 ],
					"numinlets" : 1,
					"fontname" : "Verdana",
					"numoutlets" : 0,
					"fontsize" : 10.0,
					"patching_rect" : [ 445.0, 380.0, 207.0, 19.0 ],
					"id" : "obj-27"
				}

			}
, 			{
				"box" : 				{
					"maxclass" : "newobj",
					"text" : "route /mute",
					"numinlets" : 1,
					"fontname" : "Verdana",
					"numoutlets" : 2,
					"outlettype" : [ "", "" ],
					"fontsize" : 10.0,
					"patching_rect" : [ 235.0, 315.0, 73.0, 19.0 ],
					"id" : "obj-29"
				}

			}
, 			{
				"box" : 				{
					"maxclass" : "newobj",
					"text" : "mute~",
					"numinlets" : 1,
					"fontname" : "Verdana",
					"numoutlets" : 1,
					"outlettype" : [ "" ],
					"fontsize" : 10.0,
					"patching_rect" : [ 235.0, 360.0, 49.0, 19.0 ],
					"id" : "obj-30"
				}

			}
, 			{
				"box" : 				{
					"maxclass" : "newobj",
					"text" : "jalg.sur.dbap~",
					"numinlets" : 2,
					"fontname" : "Verdana",
					"numoutlets" : 2,
					"outlettype" : [ "", "" ],
					"fontsize" : 10.0,
					"patching_rect" : [ 350.0, 415.0, 84.0, 19.0 ],
					"id" : "obj-31"
				}

			}
, 			{
				"box" : 				{
					"maxclass" : "newobj",
					"varname" : "jcom.hub",
					"text" : "jcom.hub @description \"Distance-based amplitude panning. <br>NOTE: The positions of the speakers are not maintained by this module.\"",
					"linecount" : 2,
					"numinlets" : 1,
					"fontname" : "Verdana",
					"numoutlets" : 2,
					"outlettype" : [ "", "" ],
					"fontsize" : 10.0,
					"patching_rect" : [ 0.0, 150.0, 379.0, 31.0 ],
					"id" : "obj-34"
				}

			}
, 			{
				"box" : 				{
					"maxclass" : "comment",
					"text" : "command input",
					"frgb" : [ 0.0, 0.0, 0.0, 1.0 ],
					"numinlets" : 1,
					"fontname" : "Verdana",
					"numoutlets" : 0,
					"fontsize" : 10.0,
					"patching_rect" : [ 30.0, 105.0, 100.0, 19.0 ],
					"id" : "obj-35"
				}

			}
, 			{
				"box" : 				{
					"maxclass" : "inlet",
					"numinlets" : 0,
					"numoutlets" : 1,
					"outlettype" : [ "" ],
					"patching_rect" : [ 0.0, 105.0, 25.0, 25.0 ],
					"id" : "obj-36",
					"comment" : ""
				}

			}
, 			{
				"box" : 				{
					"maxclass" : "comment",
					"text" : "Number of sources:",
					"frgb" : [ 0.0, 0.0, 0.0, 1.0 ],
					"numinlets" : 1,
					"fontname" : "Verdana",
					"numoutlets" : 0,
					"presentation_rect" : [ 5.0, 25.0, 110.0, 19.0 ],
					"fontsize" : 10.0,
					"patching_rect" : [ 5.0, 25.0, 110.0, 19.0 ],
					"presentation" : 1,
					"id" : "obj-40"
				}

			}
, 			{
				"box" : 				{
					"maxclass" : "outlet",
					"numinlets" : 1,
					"numoutlets" : 0,
					"patching_rect" : [ 0.0, 245.0, 25.0, 25.0 ],
					"id" : "obj-42",
					"comment" : ""
				}

			}
, 			{
				"box" : 				{
					"maxclass" : "newobj",
					"varname" : "voices",
					"text" : "jcom.parameter num_sources",
					"numinlets" : 1,
					"fontname" : "Verdana",
					"numoutlets" : 3,
					"outlettype" : [ "", "", "" ],
					"fontsize" : 10.0,
					"patching_rect" : [ 645.0, 50.0, 161.0, 19.0 ],
					"id" : "obj-44",
					"frozen_object_attributes" : 					{
						"name" : "num_sources",
						"priority" : 2,
						"dataspace/unit/internal" : "none",
						"dataspace" : "none",
						"description" : "The number of mono sources that are to be distributed spatially.",
						"ramp/drive" : "none",
						"dataspace/unit/active" : "none",
						"range/bounds" : [ 1.0, 32.0 ],
						"range/clipmode" : "both",
						"dataspace/unit/native" : "none",
						"type" : "msg_int"
					}

				}

			}
, 			{
				"box" : 				{
					"maxclass" : "jcom.ui",
					"text" : "/editing_this_module",
					"prefix" : "audio",
					"has_mute" : 1,
					"numinlets" : 1,
					"numoutlets" : 1,
					"presentation_rect" : [ 0.0, 0.0, 300.0, 70.0 ],
					"outlettype" : [ "" ],
					"has_gain" : 1,
					"presentation" : 1,
					"id" : "obj-46"
				}

			}
 ],
		"lines" : [ 			{
				"patchline" : 				{
					"source" : [ "obj-26", 0 ],
					"destination" : [ "obj-31", 1 ],
					"hidden" : 0,
					"midpoints" : [  ]
				}

			}
, 			{
				"patchline" : 				{
					"source" : [ "obj-30", 0 ],
					"destination" : [ "obj-31", 0 ],
					"hidden" : 0,
					"midpoints" : [  ]
				}

			}
, 			{
				"patchline" : 				{
					"source" : [ "obj-5", 0 ],
					"destination" : [ "obj-31", 0 ],
					"hidden" : 0,
					"midpoints" : [ 169.5, 300.0, 359.5, 300.0 ]
				}

			}
, 			{
				"patchline" : 				{
					"source" : [ "obj-29", 1 ],
					"destination" : [ "obj-31", 0 ],
					"hidden" : 0,
					"midpoints" : [  ]
				}

			}
, 			{
				"patchline" : 				{
					"source" : [ "obj-17", 0 ],
					"destination" : [ "obj-15", 0 ],
					"hidden" : 0,
					"midpoints" : [  ]
				}

			}
, 			{
				"patchline" : 				{
					"source" : [ "obj-15", 0 ],
					"destination" : [ "obj-17", 0 ],
					"hidden" : 0,
					"midpoints" : [  ]
				}

			}
, 			{
				"patchline" : 				{
					"source" : [ "obj-12", 0 ],
					"destination" : [ "obj-13", 0 ],
					"hidden" : 0,
					"midpoints" : [  ]
				}

			}
, 			{
				"patchline" : 				{
					"source" : [ "obj-13", 0 ],
					"destination" : [ "obj-12", 0 ],
					"hidden" : 0,
					"midpoints" : [  ]
				}

			}
, 			{
				"patchline" : 				{
					"source" : [ "obj-10", 0 ],
					"destination" : [ "obj-11", 0 ],
					"hidden" : 0,
					"midpoints" : [  ]
				}

			}
, 			{
				"patchline" : 				{
					"source" : [ "obj-11", 0 ],
					"destination" : [ "obj-10", 0 ],
					"hidden" : 0,
					"midpoints" : [  ]
				}

			}
, 			{
				"patchline" : 				{
					"source" : [ "obj-9", 0 ],
					"destination" : [ "obj-44", 0 ],
					"hidden" : 0,
					"midpoints" : [  ]
				}

			}
, 			{
				"patchline" : 				{
					"source" : [ "obj-44", 0 ],
					"destination" : [ "obj-9", 0 ],
					"hidden" : 0,
					"midpoints" : [  ]
				}

			}
, 			{
				"patchline" : 				{
					"source" : [ "obj-34", 0 ],
					"destination" : [ "obj-42", 0 ],
					"hidden" : 0,
					"midpoints" : [  ]
				}

			}
, 			{
				"patchline" : 				{
					"source" : [ "obj-3", 0 ],
					"destination" : [ "obj-34", 0 ],
					"hidden" : 0,
					"midpoints" : [ 144.5, 135.0, 12.0, 135.0, 12.0, 147.0, 9.5, 147.0 ]
				}

			}
, 			{
				"patchline" : 				{
					"source" : [ "obj-36", 0 ],
					"destination" : [ "obj-34", 0 ],
					"hidden" : 0,
					"midpoints" : [  ]
				}

			}
, 			{
				"patchline" : 				{
					"source" : [ "obj-8", 0 ],
					"destination" : [ "obj-34", 0 ],
					"hidden" : 0,
					"midpoints" : [ 309.5, 135.0, 12.0, 135.0, 12.0, 147.0, 9.5, 147.0 ]
				}

			}
, 			{
				"patchline" : 				{
					"source" : [ "obj-29", 0 ],
					"destination" : [ "obj-30", 0 ],
					"hidden" : 0,
					"midpoints" : [  ]
				}

			}
, 			{
				"patchline" : 				{
					"source" : [ "obj-4", 1 ],
					"destination" : [ "obj-29", 0 ],
					"hidden" : 0,
					"midpoints" : [  ]
				}

			}
, 			{
				"patchline" : 				{
					"source" : [ "obj-1", 0 ],
					"destination" : [ "obj-4", 0 ],
					"hidden" : 0,
					"midpoints" : [  ]
				}

			}
, 			{
				"patchline" : 				{
					"source" : [ "obj-4", 0 ],
					"destination" : [ "obj-5", 0 ],
					"hidden" : 0,
					"midpoints" : [  ]
				}

			}
, 			{
				"patchline" : 				{
					"source" : [ "obj-31", 1 ],
					"destination" : [ "obj-25", 0 ],
					"hidden" : 0,
					"midpoints" : [  ]
				}

			}
 ]
	}

}
