{
	"patcher" : 	{
		"fileversion" : 1,
		"rect" : [ 368.0, 218.0, 258.0, 327.0 ],
		"bglocked" : 0,
		"defrect" : [ 368.0, 218.0, 258.0, 327.0 ],
		"openrect" : [ 0.0, 0.0, 0.0, 0.0 ],
		"openinpresentation" : 0,
		"default_fontsize" : 12.0,
		"default_fontface" : 0,
		"default_fontname" : "Arial",
		"gridonopen" : 0,
		"gridsize" : [ 15.0, 15.0 ],
		"gridsnaponopen" : 0,
		"toolbarvisible" : 1,
		"boxanimatetime" : 200,
		"imprint" : 0,
		"metadata" : [  ],
		"boxes" : [ 			{
				"box" : 				{
					"maxclass" : "outlet",
					"numoutlets" : 0,
					"id" : "obj-1",
					"patching_rect" : [ 101.0, 231.0, 15.0, 15.0 ],
					"numinlets" : 1,
					"comment" : "Oblique strategies"
				}

			}
, 			{
				"box" : 				{
					"maxclass" : "newobj",
					"text" : "zl slice 1",
					"fontname" : "Arial",
					"numoutlets" : 2,
					"id" : "obj-2",
					"outlettype" : [ "", "" ],
					"fontsize" : 9.0,
					"patching_rect" : [ 60.0, 202.0, 51.0, 17.0 ],
					"numinlets" : 2
				}

			}
, 			{
				"box" : 				{
					"maxclass" : "message",
					"text" : "query",
					"fontname" : "Arial",
					"numoutlets" : 1,
					"id" : "obj-3",
					"outlettype" : [ "" ],
					"fontsize" : 9.0,
					"patching_rect" : [ 148.0, 110.0, 36.0, 15.0 ],
					"numinlets" : 2
				}

			}
, 			{
				"box" : 				{
					"maxclass" : "newobj",
					"text" : "route set",
					"fontname" : "Arial",
					"numoutlets" : 2,
					"id" : "obj-4",
					"outlettype" : [ "", "" ],
					"fontsize" : 9.0,
					"patching_rect" : [ 60.0, 174.0, 51.0, 17.0 ],
					"numinlets" : 1
				}

			}
, 			{
				"box" : 				{
					"maxclass" : "button",
					"numoutlets" : 1,
					"id" : "obj-5",
					"outlettype" : [ "bang" ],
					"patching_rect" : [ 60.0, 56.0, 15.0, 15.0 ],
					"numinlets" : 1
				}

			}
, 			{
				"box" : 				{
					"maxclass" : "message",
					"text" : "line $1",
					"fontname" : "Arial",
					"numoutlets" : 1,
					"id" : "obj-6",
					"outlettype" : [ "" ],
					"fontsize" : 9.0,
					"patching_rect" : [ 60.0, 110.0, 41.0, 15.0 ],
					"numinlets" : 2
				}

			}
, 			{
				"box" : 				{
					"maxclass" : "message",
					"text" : "read",
					"fontname" : "Arial",
					"numoutlets" : 1,
					"id" : "obj-7",
					"outlettype" : [ "" ],
					"fontsize" : 9.0,
					"patching_rect" : [ 111.0, 110.0, 30.0, 15.0 ],
					"numinlets" : 2
				}

			}
, 			{
				"box" : 				{
					"maxclass" : "newobj",
					"text" : "text eno.txt",
					"fontname" : "Arial",
					"numoutlets" : 3,
					"id" : "obj-8",
					"outlettype" : [ "", "bang", "int" ],
					"fontsize" : 9.0,
					"patching_rect" : [ 60.0, 146.0, 64.0, 17.0 ],
					"numinlets" : 1
				}

			}
, 			{
				"box" : 				{
					"maxclass" : "newobj",
					"text" : "random 467",
					"fontname" : "Arial",
					"numoutlets" : 1,
					"id" : "obj-9",
					"outlettype" : [ "int" ],
					"fontsize" : 9.0,
					"patching_rect" : [ 60.0, 76.0, 64.0, 17.0 ],
					"numinlets" : 2
				}

			}
, 			{
				"box" : 				{
					"maxclass" : "inlet",
					"numoutlets" : 1,
					"id" : "obj-10",
					"outlettype" : [ "" ],
					"patching_rect" : [ 60.0, 36.0, 15.0, 15.0 ],
					"numinlets" : 0,
					"comment" : "Bang in"
				}

			}
 ],
		"lines" : [ 			{
				"patchline" : 				{
					"source" : [ "obj-2", 1 ],
					"destination" : [ "obj-1", 0 ],
					"hidden" : 0,
					"midpoints" : [  ]
				}

			}
, 			{
				"patchline" : 				{
					"source" : [ "obj-4", 0 ],
					"destination" : [ "obj-2", 0 ],
					"hidden" : 0,
					"midpoints" : [  ]
				}

			}
, 			{
				"patchline" : 				{
					"source" : [ "obj-8", 0 ],
					"destination" : [ "obj-4", 0 ],
					"hidden" : 0,
					"midpoints" : [  ]
				}

			}
, 			{
				"patchline" : 				{
					"source" : [ "obj-7", 0 ],
					"destination" : [ "obj-8", 0 ],
					"hidden" : 0,
					"midpoints" : [ 120.5, 135.0, 69.5, 135.0 ]
				}

			}
, 			{
				"patchline" : 				{
					"source" : [ "obj-6", 0 ],
					"destination" : [ "obj-8", 0 ],
					"hidden" : 0,
					"midpoints" : [  ]
				}

			}
, 			{
				"patchline" : 				{
					"source" : [ "obj-3", 0 ],
					"destination" : [ "obj-8", 0 ],
					"hidden" : 0,
					"midpoints" : [ 157.5, 135.0, 69.5, 135.0 ]
				}

			}
, 			{
				"patchline" : 				{
					"source" : [ "obj-9", 0 ],
					"destination" : [ "obj-6", 0 ],
					"hidden" : 0,
					"midpoints" : [  ]
				}

			}
, 			{
				"patchline" : 				{
					"source" : [ "obj-5", 0 ],
					"destination" : [ "obj-9", 0 ],
					"hidden" : 0,
					"midpoints" : [  ]
				}

			}
, 			{
				"patchline" : 				{
					"source" : [ "obj-10", 0 ],
					"destination" : [ "obj-5", 0 ],
					"hidden" : 0,
					"midpoints" : [  ]
				}

			}
 ]
	}

}
