{
	"patcher" : 	{
		"rect" : [ 32.0, 396.0, 284.0, 349.0 ],
		"bgcolor" : [ 1.0, 1.0, 1.0, 1.0 ],
		"bglocked" : 0,
		"defrect" : [ 32.0, 396.0, 284.0, 349.0 ],
		"openinpresentation" : 0,
		"default_fontsize" : 10.0,
		"default_fontface" : 0,
		"default_fontname" : "Verdana",
		"gridonopen" : 0,
		"gridsize" : [ 5.0, 5.0 ],
		"gridsnaponopen" : 0,
		"toolbarvisible" : 1,
		"boxfadetime" : 200,
		"boxanimatetime" : 200,
		"scrollanimatetime" : 200,
		"metadata" : [  ],
		"boxes" : [ 			{
				"box" : 				{
					"maxclass" : "number",
					"patching_rect" : [ 85.0, 219.0, 35.0, 17.0 ],
					"triscale" : 0.9,
					"fontname" : "Verdana",
					"htextcolor" : [ 0.870588, 0.870588, 0.870588, 1.0 ],
					"id" : "obj-1",
					"numinlets" : 1,
					"numoutlets" : 2,
					"fontsize" : 9.0,
					"bgcolor" : [ 0.866667, 0.866667, 0.866667, 1.0 ],
					"outlettype" : [ "int", "bang" ]
				}

			}
, 			{
				"box" : 				{
					"maxclass" : "newobj",
					"text" : "t b i",
					"patching_rect" : [ 85.0, 146.0, 27.0, 17.0 ],
					"fontname" : "Verdana",
					"id" : "obj-2",
					"numinlets" : 1,
					"numoutlets" : 2,
					"fontsize" : 9.0,
					"outlettype" : [ "bang", "int" ]
				}

			}
, 			{
				"box" : 				{
					"maxclass" : "newobj",
					"text" : "+",
					"patching_rect" : [ 85.0, 195.0, 27.0, 17.0 ],
					"fontname" : "Verdana",
					"id" : "obj-3",
					"numinlets" : 2,
					"numoutlets" : 1,
					"fontsize" : 9.0,
					"outlettype" : [ "int" ]
				}

			}
, 			{
				"box" : 				{
					"maxclass" : "number",
					"patching_rect" : [ 116.0, 159.0, 35.0, 17.0 ],
					"triscale" : 0.9,
					"fontname" : "Verdana",
					"htextcolor" : [ 0.870588, 0.870588, 0.870588, 1.0 ],
					"id" : "obj-4",
					"numinlets" : 1,
					"numoutlets" : 2,
					"fontsize" : 9.0,
					"bgcolor" : [ 0.866667, 0.866667, 0.866667, 1.0 ],
					"outlettype" : [ "int", "bang" ]
				}

			}
, 			{
				"box" : 				{
					"maxclass" : "newobj",
					"text" : "-",
					"patching_rect" : [ 116.0, 132.0, 64.0, 17.0 ],
					"fontname" : "Verdana",
					"id" : "obj-5",
					"numinlets" : 2,
					"numoutlets" : 1,
					"fontsize" : 9.0,
					"outlettype" : [ "int" ]
				}

			}
, 			{
				"box" : 				{
					"maxclass" : "newobj",
					"text" : "* 0.5",
					"patching_rect" : [ 170.0, 106.0, 28.0, 17.0 ],
					"fontname" : "Verdana",
					"id" : "obj-6",
					"numinlets" : 2,
					"numoutlets" : 1,
					"fontsize" : 9.0,
					"outlettype" : [ "float" ]
				}

			}
, 			{
				"box" : 				{
					"maxclass" : "number",
					"patching_rect" : [ 153.0, 80.0, 35.0, 17.0 ],
					"triscale" : 0.9,
					"fontname" : "Verdana",
					"htextcolor" : [ 0.870588, 0.870588, 0.870588, 1.0 ],
					"id" : "obj-7",
					"numinlets" : 1,
					"numoutlets" : 2,
					"fontsize" : 9.0,
					"bgcolor" : [ 0.866667, 0.866667, 0.866667, 1.0 ],
					"outlettype" : [ "int", "bang" ]
				}

			}
, 			{
				"box" : 				{
					"maxclass" : "newobj",
					"text" : "random 0",
					"patching_rect" : [ 116.0, 106.0, 47.0, 17.0 ],
					"fontname" : "Verdana",
					"id" : "obj-8",
					"numinlets" : 2,
					"numoutlets" : 1,
					"fontsize" : 9.0,
					"outlettype" : [ "int" ]
				}

			}
, 			{
				"box" : 				{
					"maxclass" : "outlet",
					"patching_rect" : [ 17.0, 268.0, 15.0, 15.0 ],
					"id" : "obj-9",
					"numinlets" : 1,
					"numoutlets" : 0,
					"comment" : ""
				}

			}
, 			{
				"box" : 				{
					"maxclass" : "newobj",
					"text" : "qmetro",
					"patching_rect" : [ 17.0, 239.0, 78.0, 17.0 ],
					"fontname" : "Verdana",
					"id" : "obj-10",
					"numinlets" : 2,
					"numoutlets" : 1,
					"fontsize" : 9.0,
					"outlettype" : [ "bang" ]
				}

			}
, 			{
				"box" : 				{
					"maxclass" : "newobj",
					"text" : "jcom.oscroute \/toggle \/time \/randomness",
					"patching_rect" : [ 17.0, 54.0, 216.0, 17.0 ],
					"fontname" : "Verdana",
					"id" : "obj-11",
					"numinlets" : 1,
					"numoutlets" : 4,
					"fontsize" : 9.0,
					"outlettype" : [ "", "", "", "" ]
				}

			}
, 			{
				"box" : 				{
					"maxclass" : "inlet",
					"patching_rect" : [ 17.0, 32.0, 15.0, 15.0 ],
					"id" : "obj-12",
					"numinlets" : 0,
					"numoutlets" : 1,
					"outlettype" : [ "" ],
					"comment" : ""
				}

			}
 ],
		"lines" : [ 			{
				"patchline" : 				{
					"source" : [ "obj-12", 0 ],
					"destination" : [ "obj-11", 0 ],
					"hidden" : 0
				}

			}
, 			{
				"patchline" : 				{
					"source" : [ "obj-11", 0 ],
					"destination" : [ "obj-10", 0 ],
					"hidden" : 0
				}

			}
, 			{
				"patchline" : 				{
					"source" : [ "obj-10", 0 ],
					"destination" : [ "obj-9", 0 ],
					"hidden" : 0
				}

			}
, 			{
				"patchline" : 				{
					"source" : [ "obj-11", 1 ],
					"destination" : [ "obj-2", 0 ],
					"hidden" : 0
				}

			}
, 			{
				"patchline" : 				{
					"source" : [ "obj-2", 0 ],
					"destination" : [ "obj-3", 0 ],
					"hidden" : 0
				}

			}
, 			{
				"patchline" : 				{
					"source" : [ "obj-4", 0 ],
					"destination" : [ "obj-3", 0 ],
					"hidden" : 0
				}

			}
, 			{
				"patchline" : 				{
					"source" : [ "obj-3", 0 ],
					"destination" : [ "obj-1", 0 ],
					"hidden" : 0
				}

			}
, 			{
				"patchline" : 				{
					"source" : [ "obj-1", 0 ],
					"destination" : [ "obj-10", 1 ],
					"hidden" : 0
				}

			}
, 			{
				"patchline" : 				{
					"source" : [ "obj-2", 1 ],
					"destination" : [ "obj-3", 1 ],
					"hidden" : 0
				}

			}
, 			{
				"patchline" : 				{
					"source" : [ "obj-10", 0 ],
					"destination" : [ "obj-8", 0 ],
					"hidden" : 0,
					"color" : [ 0.6, 0.6, 1.0, 1.0 ],
					"midpoints" : [ 26.5, 263.0, 210.0, 263.0, 210.0, 100.0, 125.5, 100.0 ]
				}

			}
, 			{
				"patchline" : 				{
					"source" : [ "obj-8", 0 ],
					"destination" : [ "obj-5", 0 ],
					"hidden" : 0
				}

			}
, 			{
				"patchline" : 				{
					"source" : [ "obj-5", 0 ],
					"destination" : [ "obj-4", 0 ],
					"hidden" : 0
				}

			}
, 			{
				"patchline" : 				{
					"source" : [ "obj-11", 2 ],
					"destination" : [ "obj-7", 0 ],
					"hidden" : 0
				}

			}
, 			{
				"patchline" : 				{
					"source" : [ "obj-7", 0 ],
					"destination" : [ "obj-8", 1 ],
					"hidden" : 0
				}

			}
, 			{
				"patchline" : 				{
					"source" : [ "obj-7", 0 ],
					"destination" : [ "obj-6", 0 ],
					"hidden" : 0
				}

			}
, 			{
				"patchline" : 				{
					"source" : [ "obj-6", 0 ],
					"destination" : [ "obj-5", 1 ],
					"hidden" : 0
				}

			}
 ]
	}

}
