{
	"patcher" : 	{
		"fileversion" : 1,
		"rect" : [ 217.0, 94.0, 581.0, 479.0 ],
		"bglocked" : 0,
		"defrect" : [ 217.0, 94.0, 581.0, 479.0 ],
		"openrect" : [ 0.0, 0.0, 0.0, 0.0 ],
		"openinpresentation" : 0,
		"default_fontsize" : 10.0,
		"default_fontface" : 0,
		"default_fontname" : "Verdana",
		"gridonopen" : 0,
		"gridsize" : [ 5.0, 5.0 ],
		"gridsnaponopen" : 0,
		"toolbarvisible" : 1,
		"boxanimatetime" : 200,
		"imprint" : 0,
		"metadata" : [  ],
		"boxes" : [ 			{
				"box" : 				{
					"maxclass" : "newobj",
					"text" : "jcom.test.finished",
					"patching_rect" : [ 30.0, 415.0, 100.0, 19.0 ],
					"outlettype" : [ "" ],
					"id" : "obj-8",
					"fontname" : "Verdana",
					"fontsize" : 10.0,
					"numinlets" : 1,
					"numoutlets" : 1
				}

			}
, 			{
				"box" : 				{
					"maxclass" : "newobj",
					"text" : "qlim",
					"patching_rect" : [ 235.0, 85.0, 32.5, 19.0 ],
					"outlettype" : [ "" ],
					"id" : "obj-7",
					"fontname" : "Verdana",
					"fontsize" : 10.0,
					"numinlets" : 2,
					"numoutlets" : 1
				}

			}
, 			{
				"box" : 				{
					"maxclass" : "comment",
					"text" : "how do we really know that initialization is complete?",
					"linecount" : 2,
					"patching_rect" : [ 280.0, 60.0, 157.0, 31.0 ],
					"frgb" : [ 0.658824, 0.658824, 0.658824, 1.0 ],
					"id" : "obj-5",
					"fontname" : "Verdana",
					"fontsize" : 10.0,
					"numinlets" : 1,
					"numoutlets" : 0
				}

			}
, 			{
				"box" : 				{
					"maxclass" : "newobj",
					"text" : "qlim",
					"patching_rect" : [ 235.0, 65.0, 32.5, 19.0 ],
					"outlettype" : [ "" ],
					"id" : "obj-2",
					"fontname" : "Verdana",
					"fontsize" : 10.0,
					"numinlets" : 2,
					"numoutlets" : 1
				}

			}
, 			{
				"box" : 				{
					"maxclass" : "button",
					"patching_rect" : [ 30.0, 390.0, 20.0, 20.0 ],
					"outlettype" : [ "bang" ],
					"id" : "obj-3",
					"numinlets" : 1,
					"numoutlets" : 1
				}

			}
, 			{
				"box" : 				{
					"maxclass" : "message",
					"text" : "/toggle 0",
					"patching_rect" : [ 150.0, 340.0, 56.0, 17.0 ],
					"outlettype" : [ "" ],
					"id" : "obj-34",
					"fontname" : "Verdana",
					"fontsize" : 10.0,
					"numinlets" : 2,
					"numoutlets" : 1
				}

			}
, 			{
				"box" : 				{
					"maxclass" : "message",
					"text" : "7",
					"patching_rect" : [ 215.0, 340.0, 54.0, 17.0 ],
					"outlettype" : [ "" ],
					"id" : "obj-33",
					"fontname" : "Verdana",
					"fontsize" : 10.0,
					"numinlets" : 2,
					"numoutlets" : 1
				}

			}
, 			{
				"box" : 				{
					"maxclass" : "newobj",
					"text" : "counter 0 1 1000",
					"patching_rect" : [ 250.0, 310.0, 97.0, 19.0 ],
					"outlettype" : [ "int", "", "", "int" ],
					"id" : "obj-29",
					"fontname" : "Verdana",
					"fontsize" : 10.0,
					"numinlets" : 5,
					"numoutlets" : 4
				}

			}
, 			{
				"box" : 				{
					"maxclass" : "newobj",
					"text" : "route /trigger",
					"patching_rect" : [ 250.0, 280.0, 79.0, 19.0 ],
					"outlettype" : [ "", "" ],
					"id" : "obj-28",
					"fontname" : "Verdana",
					"fontsize" : 10.0,
					"numinlets" : 1,
					"numoutlets" : 2
				}

			}
, 			{
				"box" : 				{
					"maxclass" : "newobj",
					"text" : "delay 250",
					"patching_rect" : [ 185.0, 310.0, 60.0, 19.0 ],
					"outlettype" : [ "bang" ],
					"id" : "obj-27",
					"fontname" : "Verdana",
					"fontsize" : 10.0,
					"numinlets" : 2,
					"numoutlets" : 1
				}

			}
, 			{
				"box" : 				{
					"maxclass" : "newobj",
					"text" : "b 2",
					"patching_rect" : [ 235.0, 115.0, 33.5, 19.0 ],
					"outlettype" : [ "bang", "bang" ],
					"id" : "obj-26",
					"fontname" : "Verdana",
					"fontsize" : 10.0,
					"numinlets" : 1,
					"numoutlets" : 2
				}

			}
, 			{
				"box" : 				{
					"maxclass" : "message",
					"text" : "/toggle 1",
					"patching_rect" : [ 250.0, 145.0, 56.0, 17.0 ],
					"outlettype" : [ "" ],
					"id" : "obj-25",
					"fontname" : "Verdana",
					"fontsize" : 10.0,
					"numinlets" : 2,
					"numoutlets" : 1
				}

			}
, 			{
				"box" : 				{
					"maxclass" : "newobj",
					"text" : "qlim",
					"patching_rect" : [ 235.0, 45.0, 32.5, 19.0 ],
					"outlettype" : [ "" ],
					"id" : "obj-23",
					"fontname" : "Verdana",
					"fontsize" : 10.0,
					"numinlets" : 2,
					"numoutlets" : 1
				}

			}
, 			{
				"box" : 				{
					"maxclass" : "newobj",
					"text" : "loadbang",
					"patching_rect" : [ 235.0, 15.0, 65.0, 19.0 ],
					"outlettype" : [ "bang" ],
					"id" : "obj-21",
					"fontname" : "Verdana",
					"fontsize" : 10.0,
					"numinlets" : 1,
					"numoutlets" : 1
				}

			}
, 			{
				"box" : 				{
					"maxclass" : "bpatcher",
					"patching_rect" : [ 250.0, 195.0, 305.0, 74.0 ],
					"outlettype" : [ "" ],
					"id" : "obj-1",
					"name" : "jmod.qmetro.maxpat",
					"args" : [ "/qmetro" ],
					"numinlets" : 1,
					"numoutlets" : 1
				}

			}
, 			{
				"box" : 				{
					"maxclass" : "newobj",
					"text" : "jcom.test.assert.equal CorrectNumberOfInitialBangs 7",
					"patching_rect" : [ 215.0, 380.0, 284.0, 19.0 ],
					"id" : "obj-6",
					"fontname" : "Verdana",
					"fontsize" : 10.0,
					"numinlets" : 2,
					"numoutlets" : 0
				}

			}
 ],
		"lines" : [ 			{
				"patchline" : 				{
					"source" : [ "obj-3", 0 ],
					"destination" : [ "obj-8", 0 ],
					"hidden" : 0,
					"midpoints" : [  ]
				}

			}
, 			{
				"patchline" : 				{
					"source" : [ "obj-23", 0 ],
					"destination" : [ "obj-2", 0 ],
					"hidden" : 0,
					"midpoints" : [  ]
				}

			}
, 			{
				"patchline" : 				{
					"source" : [ "obj-27", 0 ],
					"destination" : [ "obj-34", 0 ],
					"hidden" : 0,
					"midpoints" : [  ]
				}

			}
, 			{
				"patchline" : 				{
					"source" : [ "obj-27", 0 ],
					"destination" : [ "obj-33", 0 ],
					"hidden" : 0,
					"midpoints" : [  ]
				}

			}
, 			{
				"patchline" : 				{
					"source" : [ "obj-26", 0 ],
					"destination" : [ "obj-27", 0 ],
					"hidden" : 0,
					"midpoints" : [  ]
				}

			}
, 			{
				"patchline" : 				{
					"source" : [ "obj-26", 1 ],
					"destination" : [ "obj-25", 0 ],
					"hidden" : 0,
					"midpoints" : [  ]
				}

			}
, 			{
				"patchline" : 				{
					"source" : [ "obj-21", 0 ],
					"destination" : [ "obj-23", 0 ],
					"hidden" : 0,
					"midpoints" : [  ]
				}

			}
, 			{
				"patchline" : 				{
					"source" : [ "obj-25", 0 ],
					"destination" : [ "obj-1", 0 ],
					"hidden" : 0,
					"midpoints" : [  ]
				}

			}
, 			{
				"patchline" : 				{
					"source" : [ "obj-1", 0 ],
					"destination" : [ "obj-28", 0 ],
					"hidden" : 0,
					"midpoints" : [  ]
				}

			}
, 			{
				"patchline" : 				{
					"source" : [ "obj-34", 0 ],
					"destination" : [ "obj-1", 0 ],
					"hidden" : 0,
					"midpoints" : [ 159.5, 365.0, 140.0, 365.0, 140.0, 173.0, 259.5, 173.0 ]
				}

			}
, 			{
				"patchline" : 				{
					"source" : [ "obj-34", 0 ],
					"destination" : [ "obj-3", 0 ],
					"hidden" : 0,
					"midpoints" : [ 159.5, 377.0, 39.5, 377.0 ]
				}

			}
, 			{
				"patchline" : 				{
					"source" : [ "obj-33", 0 ],
					"destination" : [ "obj-6", 0 ],
					"hidden" : 0,
					"midpoints" : [  ]
				}

			}
, 			{
				"patchline" : 				{
					"source" : [ "obj-2", 0 ],
					"destination" : [ "obj-7", 0 ],
					"hidden" : 0,
					"midpoints" : [  ]
				}

			}
, 			{
				"patchline" : 				{
					"source" : [ "obj-7", 0 ],
					"destination" : [ "obj-26", 0 ],
					"hidden" : 0,
					"midpoints" : [  ]
				}

			}
, 			{
				"patchline" : 				{
					"source" : [ "obj-28", 0 ],
					"destination" : [ "obj-29", 0 ],
					"hidden" : 0,
					"midpoints" : [  ]
				}

			}
, 			{
				"patchline" : 				{
					"source" : [ "obj-29", 0 ],
					"destination" : [ "obj-33", 1 ],
					"hidden" : 0,
					"midpoints" : [  ]
				}

			}
 ]
	}

}
