{
	"patcher" : 	{
		"fileversion" : 1,
		"rect" : [ 269.0, 44.0, 920.0, 700.0 ],
		"bglocked" : 0,
		"defrect" : [ 269.0, 44.0, 920.0, 700.0 ],
		"openrect" : [ 0.0, 0.0, 0.0, 0.0 ],
		"openinpresentation" : 0,
		"default_fontsize" : 10.0,
		"default_fontface" : 0,
		"default_fontname" : "Verdana",
		"gridonopen" : 0,
		"gridsize" : [ 5.0, 5.0 ],
		"gridsnaponopen" : 0,
		"toolbarvisible" : 1,
		"boxanimatetime" : 200,
		"imprint" : 0,
		"metadata" : [  ],
		"boxes" : [ 			{
				"box" : 				{
					"maxclass" : "newobj",
					"text" : "thispatcher",
					"patching_rect" : [ 220.0, 450.0, 67.0, 19.0 ],
					"outlettype" : [ "", "" ],
					"id" : "obj-4",
					"fontname" : "Verdana",
					"fontsize" : 10.0,
					"numinlets" : 1,
					"numoutlets" : 2,
					"save" : [ "#N", "thispatcher", ";", "#Q", "end", ";" ]
				}

			}
, 			{
				"box" : 				{
					"maxclass" : "newobj",
					"text" : "jcom.test.finished",
					"patching_rect" : [ 220.0, 425.0, 100.0, 19.0 ],
					"outlettype" : [ "" ],
					"id" : "obj-8",
					"fontname" : "Verdana",
					"fontsize" : 10.0,
					"numinlets" : 1,
					"numoutlets" : 1
				}

			}
, 			{
				"box" : 				{
					"maxclass" : "newobj",
					"text" : "qlim",
					"patching_rect" : [ 425.0, 95.0, 32.5, 19.0 ],
					"outlettype" : [ "" ],
					"id" : "obj-7",
					"fontname" : "Verdana",
					"fontsize" : 10.0,
					"numinlets" : 2,
					"numoutlets" : 1
				}

			}
, 			{
				"box" : 				{
					"maxclass" : "comment",
					"text" : "how do we really know that initialization is complete?",
					"linecount" : 2,
					"patching_rect" : [ 470.0, 70.0, 157.0, 31.0 ],
					"id" : "obj-5",
					"fontname" : "Verdana",
					"fontsize" : 10.0,
					"frgb" : [ 0.658824, 0.658824, 0.658824, 1.0 ],
					"numinlets" : 1,
					"numoutlets" : 0
				}

			}
, 			{
				"box" : 				{
					"maxclass" : "newobj",
					"text" : "qlim",
					"patching_rect" : [ 425.0, 75.0, 32.5, 19.0 ],
					"outlettype" : [ "" ],
					"id" : "obj-2",
					"fontname" : "Verdana",
					"fontsize" : 10.0,
					"numinlets" : 2,
					"numoutlets" : 1
				}

			}
, 			{
				"box" : 				{
					"maxclass" : "button",
					"patching_rect" : [ 220.0, 400.0, 20.0, 20.0 ],
					"outlettype" : [ "bang" ],
					"id" : "obj-3",
					"numinlets" : 1,
					"numoutlets" : 1
				}

			}
, 			{
				"box" : 				{
					"maxclass" : "message",
					"text" : "/toggle 0",
					"patching_rect" : [ 340.0, 350.0, 56.0, 17.0 ],
					"outlettype" : [ "" ],
					"id" : "obj-34",
					"fontname" : "Verdana",
					"fontsize" : 10.0,
					"numinlets" : 2,
					"numoutlets" : 1
				}

			}
, 			{
				"box" : 				{
					"maxclass" : "message",
					"text" : "7",
					"patching_rect" : [ 405.0, 350.0, 54.0, 17.0 ],
					"outlettype" : [ "" ],
					"id" : "obj-33",
					"fontname" : "Verdana",
					"fontsize" : 10.0,
					"numinlets" : 2,
					"numoutlets" : 1
				}

			}
, 			{
				"box" : 				{
					"maxclass" : "newobj",
					"text" : "counter 0 0 1000",
					"patching_rect" : [ 440.0, 320.0, 97.0, 19.0 ],
					"outlettype" : [ "int", "", "", "int" ],
					"id" : "obj-29",
					"fontname" : "Verdana",
					"fontsize" : 10.0,
					"numinlets" : 5,
					"numoutlets" : 4
				}

			}
, 			{
				"box" : 				{
					"maxclass" : "newobj",
					"text" : "route /trigger",
					"patching_rect" : [ 440.0, 290.0, 79.0, 19.0 ],
					"outlettype" : [ "", "" ],
					"id" : "obj-28",
					"fontname" : "Verdana",
					"fontsize" : 10.0,
					"numinlets" : 1,
					"numoutlets" : 2
				}

			}
, 			{
				"box" : 				{
					"maxclass" : "newobj",
					"text" : "delay 250",
					"patching_rect" : [ 375.0, 320.0, 60.0, 19.0 ],
					"outlettype" : [ "bang" ],
					"id" : "obj-27",
					"fontname" : "Verdana",
					"fontsize" : 10.0,
					"numinlets" : 2,
					"numoutlets" : 1
				}

			}
, 			{
				"box" : 				{
					"maxclass" : "newobj",
					"text" : "b 2",
					"patching_rect" : [ 425.0, 125.0, 33.5, 19.0 ],
					"outlettype" : [ "bang", "bang" ],
					"id" : "obj-26",
					"fontname" : "Verdana",
					"fontsize" : 10.0,
					"numinlets" : 1,
					"numoutlets" : 2
				}

			}
, 			{
				"box" : 				{
					"maxclass" : "message",
					"text" : "/toggle 1",
					"patching_rect" : [ 440.0, 155.0, 56.0, 17.0 ],
					"outlettype" : [ "" ],
					"id" : "obj-25",
					"fontname" : "Verdana",
					"fontsize" : 10.0,
					"numinlets" : 2,
					"numoutlets" : 1
				}

			}
, 			{
				"box" : 				{
					"maxclass" : "newobj",
					"text" : "qlim",
					"patching_rect" : [ 425.0, 55.0, 32.5, 19.0 ],
					"outlettype" : [ "" ],
					"id" : "obj-23",
					"fontname" : "Verdana",
					"fontsize" : 10.0,
					"numinlets" : 2,
					"numoutlets" : 1
				}

			}
, 			{
				"box" : 				{
					"maxclass" : "newobj",
					"text" : "loadbang",
					"patching_rect" : [ 425.0, 25.0, 65.0, 19.0 ],
					"outlettype" : [ "bang" ],
					"id" : "obj-21",
					"fontname" : "Verdana",
					"fontsize" : 10.0,
					"numinlets" : 1,
					"numoutlets" : 1
				}

			}
, 			{
				"box" : 				{
					"maxclass" : "bpatcher",
					"patching_rect" : [ 440.0, 205.0, 305.0, 74.0 ],
					"outlettype" : [ "" ],
					"id" : "obj-1",
					"name" : "jmod.qmetro.maxpat",
					"args" : [ "/qmetro" ],
					"numinlets" : 1,
					"numoutlets" : 1
				}

			}
, 			{
				"box" : 				{
					"maxclass" : "newobj",
					"text" : "jcom.test.assert.equal CorrectNumberOfInitialBangs 7",
					"patching_rect" : [ 405.0, 390.0, 284.0, 19.0 ],
					"id" : "obj-6",
					"fontname" : "Verdana",
					"fontsize" : 10.0,
					"numinlets" : 2,
					"numoutlets" : 0
				}

			}
 ],
		"lines" : [ 			{
				"patchline" : 				{
					"source" : [ "obj-8", 0 ],
					"destination" : [ "obj-4", 0 ],
					"hidden" : 0,
					"midpoints" : [  ]
				}

			}
, 			{
				"patchline" : 				{
					"source" : [ "obj-3", 0 ],
					"destination" : [ "obj-8", 0 ],
					"hidden" : 0,
					"midpoints" : [  ]
				}

			}
, 			{
				"patchline" : 				{
					"source" : [ "obj-23", 0 ],
					"destination" : [ "obj-2", 0 ],
					"hidden" : 0,
					"midpoints" : [  ]
				}

			}
, 			{
				"patchline" : 				{
					"source" : [ "obj-27", 0 ],
					"destination" : [ "obj-34", 0 ],
					"hidden" : 0,
					"midpoints" : [  ]
				}

			}
, 			{
				"patchline" : 				{
					"source" : [ "obj-27", 0 ],
					"destination" : [ "obj-33", 0 ],
					"hidden" : 0,
					"midpoints" : [  ]
				}

			}
, 			{
				"patchline" : 				{
					"source" : [ "obj-29", 0 ],
					"destination" : [ "obj-33", 1 ],
					"hidden" : 0,
					"midpoints" : [  ]
				}

			}
, 			{
				"patchline" : 				{
					"source" : [ "obj-28", 0 ],
					"destination" : [ "obj-29", 0 ],
					"hidden" : 0,
					"midpoints" : [  ]
				}

			}
, 			{
				"patchline" : 				{
					"source" : [ "obj-26", 0 ],
					"destination" : [ "obj-27", 0 ],
					"hidden" : 0,
					"midpoints" : [  ]
				}

			}
, 			{
				"patchline" : 				{
					"source" : [ "obj-26", 1 ],
					"destination" : [ "obj-25", 0 ],
					"hidden" : 0,
					"midpoints" : [  ]
				}

			}
, 			{
				"patchline" : 				{
					"source" : [ "obj-21", 0 ],
					"destination" : [ "obj-23", 0 ],
					"hidden" : 0,
					"midpoints" : [  ]
				}

			}
, 			{
				"patchline" : 				{
					"source" : [ "obj-25", 0 ],
					"destination" : [ "obj-1", 0 ],
					"hidden" : 0,
					"midpoints" : [  ]
				}

			}
, 			{
				"patchline" : 				{
					"source" : [ "obj-1", 0 ],
					"destination" : [ "obj-28", 0 ],
					"hidden" : 0,
					"midpoints" : [  ]
				}

			}
, 			{
				"patchline" : 				{
					"source" : [ "obj-34", 0 ],
					"destination" : [ "obj-1", 0 ],
					"hidden" : 0,
					"midpoints" : [ 349.5, 375.0, 330.0, 375.0, 330.0, 183.0, 449.5, 183.0 ]
				}

			}
, 			{
				"patchline" : 				{
					"source" : [ "obj-34", 0 ],
					"destination" : [ "obj-3", 0 ],
					"hidden" : 0,
					"midpoints" : [ 349.5, 387.0, 229.5, 387.0 ]
				}

			}
, 			{
				"patchline" : 				{
					"source" : [ "obj-33", 0 ],
					"destination" : [ "obj-6", 0 ],
					"hidden" : 0,
					"midpoints" : [  ]
				}

			}
, 			{
				"patchline" : 				{
					"source" : [ "obj-2", 0 ],
					"destination" : [ "obj-7", 0 ],
					"hidden" : 0,
					"midpoints" : [  ]
				}

			}
, 			{
				"patchline" : 				{
					"source" : [ "obj-7", 0 ],
					"destination" : [ "obj-26", 0 ],
					"hidden" : 0,
					"midpoints" : [  ]
				}

			}
 ]
	}

}
