{
	"patcher" : 	{
		"fileversion" : 1,
		"rect" : [ 216.0, 125.0, 884.0, 691.0 ],
		"bglocked" : 0,
		"defrect" : [ 216.0, 125.0, 884.0, 691.0 ],
		"openrect" : [ 0.0, 0.0, 0.0, 0.0 ],
		"openinpresentation" : 0,
		"default_fontsize" : 10.0,
		"default_fontface" : 0,
		"default_fontname" : "Verdana",
		"gridonopen" : 0,
		"gridsize" : [ 5.0, 5.0 ],
		"gridsnaponopen" : 0,
		"toolbarvisible" : 1,
		"boxanimatetime" : 200,
		"imprint" : 0,
		"metadata" : [  ],
		"boxes" : [ 			{
				"box" : 				{
					"maxclass" : "newobj",
					"text" : "p display",
					"numoutlets" : 1,
					"fontname" : "Arial",
					"outlettype" : [ "" ],
					"patching_rect" : [ 25.0, 245.0, 50.0, 18.0 ],
					"id" : "obj-16",
					"fontsize" : 10.0,
					"numinlets" : 1,
					"patcher" : 					{
						"fileversion" : 1,
						"rect" : [ 142.0, 44.0, 564.0, 422.0 ],
						"bglocked" : 0,
						"defrect" : [ 142.0, 44.0, 564.0, 422.0 ],
						"openrect" : [ 0.0, 0.0, 0.0, 0.0 ],
						"openinpresentation" : 0,
						"default_fontsize" : 10.0,
						"default_fontface" : 0,
						"default_fontname" : "Arial",
						"gridonopen" : 0,
						"gridsize" : [ 5.0, 5.0 ],
						"gridsnaponopen" : 0,
						"toolbarvisible" : 1,
						"boxanimatetime" : 200,
						"imprint" : 0,
						"metadata" : [  ],
						"boxes" : [ 							{
								"box" : 								{
									"maxclass" : "newobj",
									"text" : "zl slice 1",
									"numoutlets" : 2,
									"fontname" : "Arial",
									"outlettype" : [ "", "" ],
									"patching_rect" : [ 295.0, 115.0, 100.0, 18.0 ],
									"id" : "obj-14",
									"fontsize" : 10.0,
									"numinlets" : 2
								}

							}
, 							{
								"box" : 								{
									"maxclass" : "newobj",
									"text" : "jcom.aed2xyz",
									"numoutlets" : 2,
									"fontname" : "Arial",
									"outlettype" : [ "", "" ],
									"patching_rect" : [ 325.0, 140.0, 72.0, 18.0 ],
									"id" : "obj-13",
									"fontsize" : 10.0,
									"numinlets" : 1
								}

							}
, 							{
								"box" : 								{
									"maxclass" : "newobj",
									"text" : "print",
									"numoutlets" : 0,
									"fontname" : "Arial",
									"patching_rect" : [ 140.0, 120.0, 30.0, 18.0 ],
									"id" : "obj-9",
									"fontsize" : 10.0,
									"numinlets" : 1
								}

							}
, 							{
								"box" : 								{
									"maxclass" : "inlet",
									"numoutlets" : 1,
									"outlettype" : [ "" ],
									"patching_rect" : [ 245.0, 45.0, 19.0, 19.0 ],
									"id" : "obj-8",
									"numinlets" : 0,
									"comment" : ""
								}

							}
, 							{
								"box" : 								{
									"maxclass" : "newobj",
									"text" : "jcom.oscroute /xyz /aed",
									"numoutlets" : 3,
									"fontname" : "Arial",
									"outlettype" : [ "", "", "" ],
									"patching_rect" : [ 245.0, 75.0, 116.0, 18.0 ],
									"id" : "obj-1",
									"fontsize" : 10.0,
									"numinlets" : 1
								}

							}
, 							{
								"box" : 								{
									"maxclass" : "newobj",
									"text" : "loadmess scalarmode 1",
									"numoutlets" : 1,
									"fontname" : "Arial",
									"outlettype" : [ "" ],
									"patching_rect" : [ 435.0, 140.0, 116.0, 18.0 ],
									"id" : "obj-6",
									"fontsize" : 10.0,
									"numinlets" : 1
								}

							}
, 							{
								"box" : 								{
									"maxclass" : "newobj",
									"text" : "sprintf drawsprite position_%ld %ld %ld",
									"numoutlets" : 1,
									"fontname" : "Arial",
									"outlettype" : [ "" ],
									"patching_rect" : [ 245.0, 250.0, 185.0, 18.0 ],
									"id" : "obj-4",
									"fontsize" : 10.0,
									"numinlets" : 3
								}

							}
, 							{
								"box" : 								{
									"maxclass" : "newobj",
									"text" : "zl slice 1",
									"numoutlets" : 2,
									"fontname" : "Arial",
									"outlettype" : [ "", "" ],
									"patching_rect" : [ 245.0, 115.0, 51.0, 18.0 ],
									"id" : "obj-3",
									"fontsize" : 10.0,
									"numinlets" : 2
								}

							}
, 							{
								"box" : 								{
									"maxclass" : "newobj",
									"text" : "vexpr $f1/7.*95",
									"numoutlets" : 1,
									"fontname" : "Arial",
									"outlettype" : [ "" ],
									"patching_rect" : [ 325.0, 170.0, 100.0, 18.0 ],
									"id" : "obj-2",
									"fontsize" : 10.0,
									"numinlets" : 1
								}

							}
, 							{
								"box" : 								{
									"maxclass" : "newobj",
									"text" : "p create_sprites",
									"numoutlets" : 1,
									"fontname" : "Verdana",
									"outlettype" : [ "" ],
									"patching_rect" : [ 50.0, 175.0, 92.0, 19.0 ],
									"id" : "obj-48",
									"fontsize" : 10.0,
									"numinlets" : 1,
									"patcher" : 									{
										"fileversion" : 1,
										"rect" : [ 175.0, 112.0, 701.0, 275.0 ],
										"bglocked" : 0,
										"defrect" : [ 175.0, 112.0, 701.0, 275.0 ],
										"openrect" : [ 0.0, 0.0, 0.0, 0.0 ],
										"openinpresentation" : 0,
										"default_fontsize" : 10.0,
										"default_fontface" : 0,
										"default_fontname" : "Verdana",
										"gridonopen" : 0,
										"gridsize" : [ 5.0, 5.0 ],
										"gridsnaponopen" : 0,
										"toolbarvisible" : 1,
										"boxanimatetime" : 200,
										"imprint" : 0,
										"metadata" : [  ],
										"boxes" : [ 											{
												"box" : 												{
													"maxclass" : "newobj",
													"text" : "sprintf %ld position_%ld",
													"numoutlets" : 1,
													"fontname" : "Verdana",
													"outlettype" : [ "" ],
													"patching_rect" : [ 70.0, 120.0, 135.0, 19.0 ],
													"id" : "obj-2",
													"fontsize" : 10.0,
													"numinlets" : 2
												}

											}
, 											{
												"box" : 												{
													"maxclass" : "newobj",
													"text" : "uzi 16",
													"numoutlets" : 3,
													"fontname" : "Verdana",
													"outlettype" : [ "bang", "bang", "int" ],
													"patching_rect" : [ 55.0, 75.0, 46.0, 19.0 ],
													"id" : "obj-1",
													"fontsize" : 10.0,
													"numinlets" : 2
												}

											}
, 											{
												"box" : 												{
													"maxclass" : "message",
													"text" : "recordsprite, paintoval 98 98 102 102 156 156 156, frameoval 97 97 103 103 0 0 0, color 255, pensize 3 3, font Verdana 12, moveto 104 104, write $1, closesprite $2, $2 0 0, hidesprite $2",
													"linecount" : 2,
													"numoutlets" : 1,
													"fontname" : "Arial",
													"outlettype" : [ "" ],
													"patching_rect" : [ 70.0, 145.0, 582.0, 31.0 ],
													"id" : "obj-25",
													"fontsize" : 11.595187,
													"numinlets" : 2
												}

											}
, 											{
												"box" : 												{
													"maxclass" : "inlet",
													"numoutlets" : 1,
													"outlettype" : [ "bang" ],
													"patching_rect" : [ 55.0, 40.0, 25.0, 25.0 ],
													"id" : "obj-46",
													"numinlets" : 0,
													"comment" : ""
												}

											}
, 											{
												"box" : 												{
													"maxclass" : "outlet",
													"numoutlets" : 0,
													"patching_rect" : [ 70.0, 216.0, 25.0, 25.0 ],
													"id" : "obj-47",
													"numinlets" : 1,
													"comment" : ""
												}

											}
 ],
										"lines" : [ 											{
												"patchline" : 												{
													"source" : [ "obj-2", 0 ],
													"destination" : [ "obj-25", 0 ],
													"hidden" : 0,
													"midpoints" : [  ]
												}

											}
, 											{
												"patchline" : 												{
													"source" : [ "obj-46", 0 ],
													"destination" : [ "obj-1", 0 ],
													"hidden" : 0,
													"midpoints" : [  ]
												}

											}
, 											{
												"patchline" : 												{
													"source" : [ "obj-1", 2 ],
													"destination" : [ "obj-2", 1 ],
													"hidden" : 0,
													"midpoints" : [  ]
												}

											}
, 											{
												"patchline" : 												{
													"source" : [ "obj-1", 2 ],
													"destination" : [ "obj-2", 0 ],
													"hidden" : 0,
													"midpoints" : [  ]
												}

											}
, 											{
												"patchline" : 												{
													"source" : [ "obj-25", 0 ],
													"destination" : [ "obj-47", 0 ],
													"hidden" : 0,
													"midpoints" : [  ]
												}

											}
 ]
									}
,
									"saved_object_attributes" : 									{
										"default_fontname" : "Verdana",
										"fontname" : "Verdana",
										"default_fontsize" : 10.0,
										"fontface" : 0,
										"fontsize" : 10.0,
										"globalpatchername" : "",
										"default_fontface" : 0
									}

								}

							}
, 							{
								"box" : 								{
									"maxclass" : "newobj",
									"text" : "loadbang",
									"numoutlets" : 1,
									"fontname" : "Verdana",
									"outlettype" : [ "bang" ],
									"patching_rect" : [ 50.0, 100.0, 56.0, 19.0 ],
									"id" : "obj-45",
									"fontsize" : 10.0,
									"numinlets" : 1
								}

							}
, 							{
								"box" : 								{
									"maxclass" : "newobj",
									"text" : "p background",
									"numoutlets" : 1,
									"fontname" : "Verdana",
									"outlettype" : [ "" ],
									"patching_rect" : [ 145.0, 175.0, 79.0, 19.0 ],
									"id" : "obj-24",
									"fontsize" : 10.0,
									"numinlets" : 1,
									"patcher" : 									{
										"fileversion" : 1,
										"rect" : [ 25.0, 69.0, 1246.0, 628.0 ],
										"bglocked" : 0,
										"defrect" : [ 25.0, 69.0, 1246.0, 628.0 ],
										"openrect" : [ 0.0, 0.0, 0.0, 0.0 ],
										"openinpresentation" : 0,
										"default_fontsize" : 10.0,
										"default_fontface" : 0,
										"default_fontname" : "Verdana",
										"gridonopen" : 0,
										"gridsize" : [ 5.0, 5.0 ],
										"gridsnaponopen" : 0,
										"toolbarvisible" : 1,
										"boxanimatetime" : 200,
										"imprint" : 0,
										"metadata" : [  ],
										"boxes" : [ 											{
												"box" : 												{
													"maxclass" : "message",
													"text" : "font Verdana 12",
													"numoutlets" : 1,
													"fontname" : "Arial",
													"outlettype" : [ "" ],
													"patching_rect" : [ 30.0, 175.0, 92.0, 18.0 ],
													"id" : "obj-4",
													"fontsize" : 11.595187,
													"numinlets" : 2
												}

											}
, 											{
												"box" : 												{
													"maxclass" : "message",
													"text" : "enablesprites 1",
													"numoutlets" : 1,
													"fontname" : "Verdana",
													"outlettype" : [ "" ],
													"patching_rect" : [ 55.0, 150.0, 87.0, 17.0 ],
													"id" : "obj-2",
													"fontsize" : 10.0,
													"numinlets" : 2
												}

											}
, 											{
												"box" : 												{
													"maxclass" : "newobj",
													"text" : "t b b b b",
													"numoutlets" : 4,
													"fontname" : "Verdana",
													"outlettype" : [ "bang", "bang", "bang", "bang" ],
													"patching_rect" : [ 185.0, 115.0, 59.5, 19.0 ],
													"id" : "obj-21",
													"fontsize" : 10.0,
													"numinlets" : 1
												}

											}
, 											{
												"box" : 												{
													"maxclass" : "message",
													"text" : "linesegment 5 100 195 100 116 116 254",
													"numoutlets" : 1,
													"fontname" : "Verdana",
													"outlettype" : [ "" ],
													"patching_rect" : [ 220.0, 240.0, 217.0, 17.0 ],
													"id" : "obj-20",
													"fontsize" : 10.0,
													"numinlets" : 2
												}

											}
, 											{
												"box" : 												{
													"maxclass" : "message",
													"text" : "linesegment 100 5 100 195 116 116 254",
													"numoutlets" : 1,
													"fontname" : "Verdana",
													"outlettype" : [ "" ],
													"patching_rect" : [ 185.0, 215.0, 217.0, 17.0 ],
													"id" : "obj-19",
													"fontsize" : 10.0,
													"numinlets" : 2
												}

											}
, 											{
												"box" : 												{
													"maxclass" : "message",
													"text" : "linesegment $1 5 $1 195 175 175 242",
													"numoutlets" : 1,
													"fontname" : "Verdana",
													"outlettype" : [ "" ],
													"patching_rect" : [ 540.0, 280.0, 204.0, 17.0 ],
													"id" : "obj-17",
													"fontsize" : 10.0,
													"numinlets" : 2
												}

											}
, 											{
												"box" : 												{
													"maxclass" : "message",
													"text" : "linesegment 5 $1 195 $1 175 175 242",
													"numoutlets" : 1,
													"fontname" : "Verdana",
													"outlettype" : [ "" ],
													"patching_rect" : [ 505.0, 240.0, 204.0, 17.0 ],
													"id" : "obj-13",
													"fontsize" : 10.0,
													"numinlets" : 2
												}

											}
, 											{
												"box" : 												{
													"maxclass" : "newobj",
													"text" : "scale 0 20 5 195",
													"numoutlets" : 1,
													"fontname" : "Verdana",
													"outlettype" : [ "int" ],
													"patching_rect" : [ 505.0, 205.0, 94.0, 19.0 ],
													"id" : "obj-10",
													"fontsize" : 10.0,
													"numinlets" : 6
												}

											}
, 											{
												"box" : 												{
													"maxclass" : "newobj",
													"text" : "uzi 21 0",
													"numoutlets" : 3,
													"fontname" : "Verdana",
													"outlettype" : [ "bang", "bang", "int" ],
													"patching_rect" : [ 475.0, 175.0, 51.0, 19.0 ],
													"id" : "obj-7",
													"fontsize" : 10.0,
													"numinlets" : 2
												}

											}
, 											{
												"box" : 												{
													"maxclass" : "message",
													"text" : "clear, local 0",
													"numoutlets" : 1,
													"fontname" : "Verdana",
													"outlettype" : [ "" ],
													"patching_rect" : [ 1095.0, 240.0, 73.0, 17.0 ],
													"id" : "obj-6",
													"fontsize" : 10.0,
													"numinlets" : 2
												}

											}
, 											{
												"box" : 												{
													"maxclass" : "message",
													"text" : "paintoval 5 5 195 195 195 195 195",
													"numoutlets" : 1,
													"fontname" : "Verdana",
													"outlettype" : [ "" ],
													"patching_rect" : [ 825.0, 255.0, 189.0, 17.0 ],
													"id" : "obj-3",
													"fontsize" : 10.0,
													"numinlets" : 2
												}

											}
, 											{
												"box" : 												{
													"maxclass" : "inlet",
													"numoutlets" : 1,
													"outlettype" : [ "bang" ],
													"patching_rect" : [ 55.0, 40.0, 25.0, 25.0 ],
													"id" : "obj-22",
													"numinlets" : 0,
													"comment" : ""
												}

											}
, 											{
												"box" : 												{
													"maxclass" : "outlet",
													"numoutlets" : 0,
													"patching_rect" : [ 55.0, 420.0, 25.0, 25.0 ],
													"id" : "obj-23",
													"numinlets" : 1,
													"comment" : ""
												}

											}
 ],
										"lines" : [ 											{
												"patchline" : 												{
													"source" : [ "obj-4", 0 ],
													"destination" : [ "obj-23", 0 ],
													"hidden" : 0,
													"midpoints" : [  ]
												}

											}
, 											{
												"patchline" : 												{
													"source" : [ "obj-22", 0 ],
													"destination" : [ "obj-4", 0 ],
													"hidden" : 0,
													"midpoints" : [  ]
												}

											}
, 											{
												"patchline" : 												{
													"source" : [ "obj-2", 0 ],
													"destination" : [ "obj-23", 0 ],
													"hidden" : 0,
													"midpoints" : [  ]
												}

											}
, 											{
												"patchline" : 												{
													"source" : [ "obj-22", 0 ],
													"destination" : [ "obj-2", 0 ],
													"hidden" : 0,
													"midpoints" : [  ]
												}

											}
, 											{
												"patchline" : 												{
													"source" : [ "obj-10", 0 ],
													"destination" : [ "obj-17", 0 ],
													"hidden" : 0,
													"midpoints" : [  ]
												}

											}
, 											{
												"patchline" : 												{
													"source" : [ "obj-10", 0 ],
													"destination" : [ "obj-13", 0 ],
													"hidden" : 0,
													"midpoints" : [  ]
												}

											}
, 											{
												"patchline" : 												{
													"source" : [ "obj-7", 2 ],
													"destination" : [ "obj-10", 0 ],
													"hidden" : 0,
													"midpoints" : [  ]
												}

											}
, 											{
												"patchline" : 												{
													"source" : [ "obj-21", 3 ],
													"destination" : [ "obj-6", 0 ],
													"hidden" : 0,
													"midpoints" : [ 235.0, 162.0, 1104.5, 162.0 ]
												}

											}
, 											{
												"patchline" : 												{
													"source" : [ "obj-21", 2 ],
													"destination" : [ "obj-3", 0 ],
													"hidden" : 0,
													"midpoints" : [ 221.5, 162.0, 834.5, 162.0 ]
												}

											}
, 											{
												"patchline" : 												{
													"source" : [ "obj-21", 1 ],
													"destination" : [ "obj-7", 0 ],
													"hidden" : 0,
													"midpoints" : [ 208.0, 162.0, 484.5, 162.0 ]
												}

											}
, 											{
												"patchline" : 												{
													"source" : [ "obj-21", 0 ],
													"destination" : [ "obj-19", 0 ],
													"hidden" : 0,
													"midpoints" : [  ]
												}

											}
, 											{
												"patchline" : 												{
													"source" : [ "obj-21", 0 ],
													"destination" : [ "obj-20", 0 ],
													"hidden" : 0,
													"midpoints" : [  ]
												}

											}
, 											{
												"patchline" : 												{
													"source" : [ "obj-22", 0 ],
													"destination" : [ "obj-21", 0 ],
													"hidden" : 0,
													"midpoints" : [  ]
												}

											}
, 											{
												"patchline" : 												{
													"source" : [ "obj-19", 0 ],
													"destination" : [ "obj-23", 0 ],
													"hidden" : 0,
													"midpoints" : [  ]
												}

											}
, 											{
												"patchline" : 												{
													"source" : [ "obj-20", 0 ],
													"destination" : [ "obj-23", 0 ],
													"hidden" : 0,
													"midpoints" : [  ]
												}

											}
, 											{
												"patchline" : 												{
													"source" : [ "obj-13", 0 ],
													"destination" : [ "obj-23", 0 ],
													"hidden" : 0,
													"midpoints" : [ 514.5, 405.0, 64.5, 405.0 ]
												}

											}
, 											{
												"patchline" : 												{
													"source" : [ "obj-17", 0 ],
													"destination" : [ "obj-23", 0 ],
													"hidden" : 0,
													"midpoints" : [ 549.5, 405.0, 64.5, 405.0 ]
												}

											}
, 											{
												"patchline" : 												{
													"source" : [ "obj-3", 0 ],
													"destination" : [ "obj-23", 0 ],
													"hidden" : 0,
													"midpoints" : [ 834.5, 405.0, 64.5, 405.0 ]
												}

											}
, 											{
												"patchline" : 												{
													"source" : [ "obj-6", 0 ],
													"destination" : [ "obj-23", 0 ],
													"hidden" : 0,
													"midpoints" : [ 1104.5, 405.0, 64.5, 405.0 ]
												}

											}
 ]
									}
,
									"saved_object_attributes" : 									{
										"default_fontname" : "Verdana",
										"fontname" : "Verdana",
										"default_fontsize" : 10.0,
										"fontface" : 0,
										"fontsize" : 10.0,
										"globalpatchername" : "",
										"default_fontface" : 0
									}

								}

							}
, 							{
								"box" : 								{
									"maxclass" : "button",
									"numoutlets" : 1,
									"outlettype" : [ "bang" ],
									"patching_rect" : [ 50.0, 125.0, 20.0, 20.0 ],
									"id" : "obj-5",
									"numinlets" : 1
								}

							}
, 							{
								"box" : 								{
									"maxclass" : "outlet",
									"numoutlets" : 0,
									"patching_rect" : [ 135.0, 333.0, 25.0, 25.0 ],
									"id" : "obj-7",
									"numinlets" : 1,
									"comment" : ""
								}

							}
 ],
						"lines" : [ 							{
								"patchline" : 								{
									"source" : [ "obj-5", 0 ],
									"destination" : [ "obj-48", 0 ],
									"hidden" : 0,
									"midpoints" : [  ]
								}

							}
, 							{
								"patchline" : 								{
									"source" : [ "obj-45", 0 ],
									"destination" : [ "obj-5", 0 ],
									"hidden" : 0,
									"midpoints" : [  ]
								}

							}
, 							{
								"patchline" : 								{
									"source" : [ "obj-5", 0 ],
									"destination" : [ "obj-24", 0 ],
									"hidden" : 0,
									"midpoints" : [  ]
								}

							}
, 							{
								"patchline" : 								{
									"source" : [ "obj-3", 1 ],
									"destination" : [ "obj-2", 0 ],
									"hidden" : 0,
									"midpoints" : [  ]
								}

							}
, 							{
								"patchline" : 								{
									"source" : [ "obj-6", 0 ],
									"destination" : [ "obj-2", 0 ],
									"hidden" : 0,
									"midpoints" : [  ]
								}

							}
, 							{
								"patchline" : 								{
									"source" : [ "obj-48", 0 ],
									"destination" : [ "obj-7", 0 ],
									"hidden" : 0,
									"midpoints" : [  ]
								}

							}
, 							{
								"patchline" : 								{
									"source" : [ "obj-24", 0 ],
									"destination" : [ "obj-7", 0 ],
									"hidden" : 0,
									"midpoints" : [  ]
								}

							}
, 							{
								"patchline" : 								{
									"source" : [ "obj-4", 0 ],
									"destination" : [ "obj-7", 0 ],
									"hidden" : 0,
									"midpoints" : [  ]
								}

							}
, 							{
								"patchline" : 								{
									"source" : [ "obj-1", 0 ],
									"destination" : [ "obj-3", 0 ],
									"hidden" : 0,
									"midpoints" : [  ]
								}

							}
, 							{
								"patchline" : 								{
									"source" : [ "obj-8", 0 ],
									"destination" : [ "obj-1", 0 ],
									"hidden" : 0,
									"midpoints" : [  ]
								}

							}
, 							{
								"patchline" : 								{
									"source" : [ "obj-1", 1 ],
									"destination" : [ "obj-14", 0 ],
									"hidden" : 0,
									"midpoints" : [  ]
								}

							}
, 							{
								"patchline" : 								{
									"source" : [ "obj-14", 1 ],
									"destination" : [ "obj-13", 0 ],
									"hidden" : 0,
									"midpoints" : [  ]
								}

							}
, 							{
								"patchline" : 								{
									"source" : [ "obj-14", 0 ],
									"destination" : [ "obj-4", 0 ],
									"hidden" : 0,
									"midpoints" : [  ]
								}

							}
, 							{
								"patchline" : 								{
									"source" : [ "obj-13", 0 ],
									"destination" : [ "obj-2", 0 ],
									"hidden" : 0,
									"midpoints" : [  ]
								}

							}
, 							{
								"patchline" : 								{
									"source" : [ "obj-2", 0 ],
									"destination" : [ "obj-4", 1 ],
									"hidden" : 0,
									"midpoints" : [  ]
								}

							}
 ]
					}
,
					"saved_object_attributes" : 					{
						"default_fontname" : "Arial",
						"fontname" : "Arial",
						"default_fontsize" : 10.0,
						"fontface" : 0,
						"fontsize" : 10.0,
						"globalpatchername" : "",
						"default_fontface" : 0
					}

				}

			}
, 			{
				"box" : 				{
					"maxclass" : "lcd",
					"numoutlets" : 4,
					"outlettype" : [ "list", "list", "int", "" ],
					"patching_rect" : [ 25.0, 305.0, 200.0, 200.0 ],
					"id" : "obj-17",
					"local" : 0,
					"enablesprites" : 1,
					"numinlets" : 1
				}

			}
, 			{
				"box" : 				{
					"maxclass" : "comment",
					"text" : "Common loudspeaker layouts are provided as presets.",
					"numoutlets" : 0,
					"fontname" : "Verdana",
					"frgb" : [ 0.933333, 0.937255, 0.968627, 1.0 ],
					"patching_rect" : [ 10.0, 87.0, 310.0, 17.0 ],
					"id" : "obj-1",
					"fontsize" : 9.0,
					"numinlets" : 1
				}

			}
, 			{
				"box" : 				{
					"maxclass" : "newobj",
					"text" : "print",
					"numoutlets" : 0,
					"fontname" : "Verdana",
					"patching_rect" : [ 115.0, 245.0, 32.0, 17.0 ],
					"id" : "obj-2",
					"fontsize" : 9.0,
					"numinlets" : 1
				}

			}
, 			{
				"box" : 				{
					"maxclass" : "bpatcher",
					"numoutlets" : 0,
					"lockeddragscroll" : 1,
					"patching_rect" : [ 350.0, 0.0, 522.0, 675.0 ],
					"border" : 1,
					"id" : "obj-3",
					"name" : "jcom.SpatDIF.coordinates.maxpat",
					"args" : [  ],
					"numinlets" : 0
				}

			}
, 			{
				"box" : 				{
					"maxclass" : "newobj",
					"text" : "p equal_distro",
					"numoutlets" : 1,
					"fontname" : "Verdana",
					"outlettype" : [ "" ],
					"patching_rect" : [ 27.0, 143.0, 74.0, 17.0 ],
					"id" : "obj-4",
					"fontsize" : 9.0,
					"numinlets" : 1,
					"patcher" : 					{
						"fileversion" : 1,
						"rect" : [ 10.0, 59.0, 399.0, 364.0 ],
						"bglocked" : 0,
						"defrect" : [ 10.0, 59.0, 399.0, 364.0 ],
						"openrect" : [ 0.0, 0.0, 0.0, 0.0 ],
						"openinpresentation" : 0,
						"default_fontsize" : 10.0,
						"default_fontface" : 0,
						"default_fontname" : "Verdana",
						"gridonopen" : 0,
						"gridsize" : [ 5.0, 5.0 ],
						"gridsnaponopen" : 0,
						"toolbarvisible" : 1,
						"boxanimatetime" : 200,
						"imprint" : 0,
						"metadata" : [  ],
						"boxes" : [ 							{
								"box" : 								{
									"maxclass" : "message",
									"text" : "/voices $1",
									"numoutlets" : 1,
									"fontname" : "Verdana",
									"outlettype" : [ "" ],
									"patching_rect" : [ 301.0, 96.0, 60.0, 15.0 ],
									"id" : "obj-1",
									"fontsize" : 9.0,
									"numinlets" : 2
								}

							}
, 							{
								"box" : 								{
									"maxclass" : "newobj",
									"text" : "!/ 360.",
									"numoutlets" : 1,
									"fontname" : "Verdana",
									"outlettype" : [ "float" ],
									"patching_rect" : [ 228.0, 95.0, 43.0, 17.0 ],
									"id" : "obj-2",
									"fontsize" : 9.0,
									"numinlets" : 2
								}

							}
, 							{
								"box" : 								{
									"maxclass" : "newobj",
									"text" : "t i i i",
									"numoutlets" : 3,
									"fontname" : "Verdana",
									"outlettype" : [ "int", "int", "int" ],
									"patching_rect" : [ 50.0, 50.0, 40.0, 17.0 ],
									"id" : "obj-3",
									"fontsize" : 9.0,
									"numinlets" : 1
								}

							}
, 							{
								"box" : 								{
									"maxclass" : "newobj",
									"text" : "zl join",
									"numoutlets" : 2,
									"fontname" : "Verdana",
									"outlettype" : [ "", "" ],
									"patching_rect" : [ 80.0, 238.0, 38.0, 17.0 ],
									"id" : "obj-4",
									"fontsize" : 9.0,
									"numinlets" : 2
								}

							}
, 							{
								"box" : 								{
									"maxclass" : "message",
									"text" : "$1 0. 7",
									"numoutlets" : 1,
									"fontname" : "Verdana",
									"outlettype" : [ "" ],
									"patching_rect" : [ 203.0, 180.0, 43.0, 15.0 ],
									"id" : "obj-5",
									"fontsize" : 9.0,
									"numinlets" : 2
								}

							}
, 							{
								"box" : 								{
									"maxclass" : "newobj",
									"text" : "sprintf /xyz.%ld",
									"numoutlets" : 1,
									"fontname" : "Verdana",
									"outlettype" : [ "" ],
									"patching_rect" : [ 80.0, 200.0, 90.0, 17.0 ],
									"id" : "obj-6",
									"fontsize" : 9.0,
									"numinlets" : 1
								}

							}
, 							{
								"box" : 								{
									"maxclass" : "newobj",
									"text" : "* 45.",
									"numoutlets" : 1,
									"fontname" : "Verdana",
									"outlettype" : [ "float" ],
									"patching_rect" : [ 203.0, 158.0, 35.0, 17.0 ],
									"id" : "obj-7",
									"fontsize" : 9.0,
									"numinlets" : 2
								}

							}
, 							{
								"box" : 								{
									"maxclass" : "newobj",
									"text" : "- 1",
									"numoutlets" : 1,
									"fontname" : "Verdana",
									"outlettype" : [ "int" ],
									"patching_rect" : [ 203.0, 133.0, 27.0, 17.0 ],
									"id" : "obj-8",
									"fontsize" : 9.0,
									"numinlets" : 2
								}

							}
, 							{
								"box" : 								{
									"maxclass" : "newobj",
									"text" : "uzi 8",
									"numoutlets" : 3,
									"fontname" : "Verdana",
									"outlettype" : [ "bang", "bang", "int" ],
									"patching_rect" : [ 50.0, 89.0, 40.0, 17.0 ],
									"id" : "obj-9",
									"fontsize" : 9.0,
									"numinlets" : 2
								}

							}
, 							{
								"box" : 								{
									"maxclass" : "newobj",
									"text" : "jcom.aed2xyz",
									"numoutlets" : 2,
									"fontname" : "Verdana",
									"outlettype" : [ "", "" ],
									"patching_rect" : [ 203.0, 199.0, 94.0, 17.0 ],
									"id" : "obj-10",
									"fontsize" : 9.0,
									"numinlets" : 1
								}

							}
, 							{
								"box" : 								{
									"maxclass" : "inlet",
									"numoutlets" : 1,
									"outlettype" : [ "int" ],
									"patching_rect" : [ 50.0, 30.0, 15.0, 15.0 ],
									"id" : "obj-11",
									"numinlets" : 0,
									"comment" : ""
								}

							}
, 							{
								"box" : 								{
									"maxclass" : "outlet",
									"numoutlets" : 0,
									"patching_rect" : [ 80.0, 271.0, 15.0, 15.0 ],
									"id" : "obj-12",
									"numinlets" : 1,
									"comment" : ""
								}

							}
 ],
						"lines" : [ 							{
								"patchline" : 								{
									"source" : [ "obj-11", 0 ],
									"destination" : [ "obj-3", 0 ],
									"hidden" : 0,
									"midpoints" : [  ]
								}

							}
, 							{
								"patchline" : 								{
									"source" : [ "obj-3", 0 ],
									"destination" : [ "obj-9", 0 ],
									"hidden" : 0,
									"midpoints" : [  ]
								}

							}
, 							{
								"patchline" : 								{
									"source" : [ "obj-4", 0 ],
									"destination" : [ "obj-12", 0 ],
									"hidden" : 0,
									"midpoints" : [  ]
								}

							}
, 							{
								"patchline" : 								{
									"source" : [ "obj-1", 0 ],
									"destination" : [ "obj-12", 0 ],
									"hidden" : 0,
									"midpoints" : [ 310.5, 259.0, 89.0, 259.0 ]
								}

							}
, 							{
								"patchline" : 								{
									"source" : [ "obj-10", 0 ],
									"destination" : [ "obj-4", 1 ],
									"hidden" : 0,
									"midpoints" : [  ]
								}

							}
, 							{
								"patchline" : 								{
									"source" : [ "obj-9", 2 ],
									"destination" : [ "obj-8", 0 ],
									"hidden" : 0,
									"midpoints" : [ 80.5, 128.0, 212.5, 128.0 ]
								}

							}
, 							{
								"patchline" : 								{
									"source" : [ "obj-8", 0 ],
									"destination" : [ "obj-7", 0 ],
									"hidden" : 0,
									"midpoints" : [  ]
								}

							}
, 							{
								"patchline" : 								{
									"source" : [ "obj-7", 0 ],
									"destination" : [ "obj-5", 0 ],
									"hidden" : 0,
									"midpoints" : [  ]
								}

							}
, 							{
								"patchline" : 								{
									"source" : [ "obj-5", 0 ],
									"destination" : [ "obj-10", 0 ],
									"hidden" : 0,
									"midpoints" : [  ]
								}

							}
, 							{
								"patchline" : 								{
									"source" : [ "obj-3", 1 ],
									"destination" : [ "obj-2", 0 ],
									"hidden" : 0,
									"midpoints" : [ 70.0, 82.0, 237.5, 82.0 ]
								}

							}
, 							{
								"patchline" : 								{
									"source" : [ "obj-2", 0 ],
									"destination" : [ "obj-7", 1 ],
									"hidden" : 0,
									"midpoints" : [  ]
								}

							}
, 							{
								"patchline" : 								{
									"source" : [ "obj-3", 2 ],
									"destination" : [ "obj-1", 0 ],
									"hidden" : 0,
									"midpoints" : [ 80.5, 76.0, 310.5, 76.0 ]
								}

							}
, 							{
								"patchline" : 								{
									"source" : [ "obj-6", 0 ],
									"destination" : [ "obj-4", 0 ],
									"hidden" : 0,
									"midpoints" : [  ]
								}

							}
, 							{
								"patchline" : 								{
									"source" : [ "obj-9", 2 ],
									"destination" : [ "obj-6", 0 ],
									"hidden" : 0,
									"midpoints" : [  ]
								}

							}
 ]
					}
,
					"saved_object_attributes" : 					{
						"default_fontname" : "Verdana",
						"fontname" : "Verdana",
						"default_fontsize" : 10.0,
						"fontface" : 0,
						"fontsize" : 10.0,
						"globalpatchername" : "",
						"default_fontface" : 0
					}

				}

			}
, 			{
				"box" : 				{
					"maxclass" : "comment",
					"text" : "jmod.sur.speaker.setup",
					"numoutlets" : 0,
					"fontname" : "Verdana",
					"frgb" : [ 1.0, 1.0, 1.0, 1.0 ],
					"patching_rect" : [ 10.0, 15.0, 258.0, 28.0 ],
					"id" : "obj-5",
					"textcolor" : [ 1.0, 1.0, 1.0, 1.0 ],
					"fontsize" : 18.0,
					"numinlets" : 1
				}

			}
, 			{
				"box" : 				{
					"maxclass" : "comment",
					"text" : "Module for describing loudspeaker setup as XYZ coordinates.",
					"numoutlets" : 0,
					"fontname" : "Verdana",
					"frgb" : [ 1.0, 1.0, 1.0, 1.0 ],
					"patching_rect" : [ 10.0, 40.0, 284.0, 17.0 ],
					"id" : "obj-6",
					"textcolor" : [ 1.0, 1.0, 1.0, 1.0 ],
					"fontsize" : 9.0,
					"numinlets" : 1
				}

			}
, 			{
				"box" : 				{
					"maxclass" : "panel",
					"numoutlets" : 0,
					"bgcolor" : [ 0.262745, 0.254902, 0.419608, 1.0 ],
					"patching_rect" : [ 5.0, 10.0, 331.0, 53.0 ],
					"id" : "obj-7",
					"rounded" : 15,
					"numinlets" : 1
				}

			}
, 			{
				"box" : 				{
					"maxclass" : "newobj",
					"text" : "jcom.aed2ambimonitor",
					"numoutlets" : 1,
					"fontname" : "Verdana",
					"outlettype" : [ "" ],
					"patching_rect" : [ 150.0, 245.0, 113.0, 17.0 ],
					"id" : "obj-8",
					"fontsize" : 9.0,
					"numinlets" : 1
				}

			}
, 			{
				"box" : 				{
					"maxclass" : "number",
					"numoutlets" : 2,
					"minimum" : 1,
					"fontname" : "Verdana",
					"outlettype" : [ "int", "bang" ],
					"maximum" : 16,
					"patching_rect" : [ 27.0, 123.0, 35.0, 17.0 ],
					"id" : "obj-9",
					"fontsize" : 9.0,
					"triscale" : 0.9,
					"numinlets" : 1
				}

			}
, 			{
				"box" : 				{
					"maxclass" : "ambimonitor",
					"numoutlets" : 0,
					"patching_rect" : [ 155.0, 270.0, 100.0, 20.0 ],
					"id" : "obj-10",
					"numinlets" : 1
				}

			}
, 			{
				"box" : 				{
					"maxclass" : "bpatcher",
					"presentation_rect" : [ 0.0, 0.0, 150.0, 70.0 ],
					"numoutlets" : 1,
					"lockeddragscroll" : 1,
					"outlettype" : [ "" ],
					"patching_rect" : [ 27.0, 168.0, 150.0, 70.0 ],
					"id" : "obj-11",
					"name" : "jmod.sur.speaker.setup.maxpat",
					"args" : [  ],
					"numinlets" : 1
				}

			}
, 			{
				"box" : 				{
					"maxclass" : "comment",
					"text" : "Number of speakers",
					"numoutlets" : 0,
					"fontname" : "Verdana",
					"frgb" : [ 0.933333, 0.937255, 0.968627, 1.0 ],
					"patching_rect" : [ 67.0, 124.0, 100.0, 17.0 ],
					"id" : "obj-12",
					"fontsize" : 9.0,
					"numinlets" : 1
				}

			}
, 			{
				"box" : 				{
					"maxclass" : "comment",
					"text" : "Loudspeaker x, y, z-coordinates can be set in the inspector.",
					"numoutlets" : 0,
					"fontname" : "Verdana",
					"frgb" : [ 0.933333, 0.937255, 0.968627, 1.0 ],
					"patching_rect" : [ 10.0, 73.0, 310.0, 17.0 ],
					"id" : "obj-13",
					"fontsize" : 9.0,
					"numinlets" : 1
				}

			}
 ],
		"lines" : [ 			{
				"patchline" : 				{
					"source" : [ "obj-4", 0 ],
					"destination" : [ "obj-11", 0 ],
					"hidden" : 0,
					"midpoints" : [  ]
				}

			}
, 			{
				"patchline" : 				{
					"source" : [ "obj-11", 0 ],
					"destination" : [ "obj-8", 0 ],
					"hidden" : 0,
					"midpoints" : [  ]
				}

			}
, 			{
				"patchline" : 				{
					"source" : [ "obj-9", 0 ],
					"destination" : [ "obj-4", 0 ],
					"hidden" : 0,
					"midpoints" : [  ]
				}

			}
, 			{
				"patchline" : 				{
					"source" : [ "obj-8", 0 ],
					"destination" : [ "obj-10", 0 ],
					"hidden" : 0,
					"midpoints" : [  ]
				}

			}
, 			{
				"patchline" : 				{
					"source" : [ "obj-16", 0 ],
					"destination" : [ "obj-17", 0 ],
					"hidden" : 0,
					"midpoints" : [  ]
				}

			}
, 			{
				"patchline" : 				{
					"source" : [ "obj-11", 0 ],
					"destination" : [ "obj-16", 0 ],
					"hidden" : 0,
					"midpoints" : [  ]
				}

			}
 ]
	}

}
