{
	"patcher" : 	{
		"rect" : [ 71.0, 74.0, 889.0, 740.0 ],
		"bgcolor" : [ 1.0, 1.0, 1.0, 1.0 ],
		"bglocked" : 0,
		"defrect" : [ 71.0, 74.0, 889.0, 740.0 ],
		"openinpresentation" : 0,
		"default_fontsize" : 10.0,
		"default_fontface" : 0,
		"default_fontname" : "Verdana",
		"gridonopen" : 0,
		"gridsize" : [ 15.0, 15.0 ],
		"gridsnaponopen" : 0,
		"toolbarvisible" : 1,
		"boxfadetime" : 200,
		"boxanimatetime" : 200,
		"scrollanimatetime" : 200,
		"metadata" : [  ],
		"boxes" : [ 			{
				"box" : 				{
					"maxclass" : "comment",
					"text" : "Common loudspeaker layouts are provided as presets.",
					"numinlets" : 1,
					"patching_rect" : [ 10.0, 87.0, 310.0, 17.0 ],
					"numoutlets" : 0,
					"fontsize" : 9.0,
					"fontname" : "Verdana",
					"id" : "obj-1"
				}

			}
, 			{
				"box" : 				{
					"maxclass" : "newobj",
					"text" : "print",
					"numinlets" : 1,
					"patching_rect" : [ 149.0, 252.0, 32.0, 17.0 ],
					"numoutlets" : 0,
					"fontsize" : 9.0,
					"fontname" : "Verdana",
					"id" : "obj-2"
				}

			}
, 			{
				"box" : 				{
					"maxclass" : "bpatcher",
					"name" : "jcom.coordinat_system.mxt",
					"numinlets" : 0,
					"patching_rect" : [ 360.0, 10.0, 502.0, 675.0 ],
					"numoutlets" : 0,
					"id" : "obj-3",
					"args" : [  ],
					"lockeddragscroll" : 1
				}

			}
, 			{
				"box" : 				{
					"maxclass" : "newobj",
					"text" : "p equal_distro",
					"numinlets" : 1,
					"patching_rect" : [ 27.0, 143.0, 74.0, 17.0 ],
					"numoutlets" : 1,
					"fontsize" : 9.0,
					"fontname" : "Verdana",
					"outlettype" : [ "" ],
					"id" : "obj-4",
					"patcher" : 					{
						"rect" : [ 10.0, 59.0, 399.0, 364.0 ],
						"bgcolor" : [ 1.0, 1.0, 1.0, 1.0 ],
						"bglocked" : 0,
						"defrect" : [ 10.0, 59.0, 399.0, 364.0 ],
						"openinpresentation" : 0,
						"default_fontsize" : 10.0,
						"default_fontface" : 0,
						"default_fontname" : "Verdana",
						"gridonopen" : 0,
						"gridsize" : [ 15.0, 15.0 ],
						"gridsnaponopen" : 0,
						"toolbarvisible" : 1,
						"boxfadetime" : 200,
						"boxanimatetime" : 200,
						"scrollanimatetime" : 200,
						"metadata" : [  ],
						"boxes" : [ 							{
								"box" : 								{
									"maxclass" : "message",
									"text" : "\/voices $1",
									"numinlets" : 2,
									"patching_rect" : [ 301.0, 96.0, 60.0, 15.0 ],
									"numoutlets" : 1,
									"fontsize" : 9.0,
									"fontname" : "Verdana",
									"outlettype" : [ "" ],
									"id" : "obj-1"
								}

							}
, 							{
								"box" : 								{
									"maxclass" : "newobj",
									"text" : "!\/ 360.",
									"numinlets" : 2,
									"patching_rect" : [ 228.0, 95.0, 43.0, 17.0 ],
									"numoutlets" : 1,
									"fontsize" : 9.0,
									"fontname" : "Verdana",
									"outlettype" : [ "float" ],
									"id" : "obj-2"
								}

							}
, 							{
								"box" : 								{
									"maxclass" : "newobj",
									"text" : "t i i i",
									"numinlets" : 1,
									"patching_rect" : [ 50.0, 50.0, 40.0, 17.0 ],
									"numoutlets" : 3,
									"fontsize" : 9.0,
									"fontname" : "Verdana",
									"outlettype" : [ "int", "int", "int" ],
									"id" : "obj-3"
								}

							}
, 							{
								"box" : 								{
									"maxclass" : "newobj",
									"text" : "zl join",
									"numinlets" : 2,
									"patching_rect" : [ 80.0, 238.0, 38.0, 17.0 ],
									"numoutlets" : 2,
									"fontsize" : 9.0,
									"fontname" : "Verdana",
									"outlettype" : [ "", "" ],
									"id" : "obj-4"
								}

							}
, 							{
								"box" : 								{
									"maxclass" : "message",
									"text" : "$1 0. 7",
									"numinlets" : 2,
									"patching_rect" : [ 203.0, 180.0, 43.0, 15.0 ],
									"numoutlets" : 1,
									"fontsize" : 9.0,
									"fontname" : "Verdana",
									"outlettype" : [ "" ],
									"id" : "obj-5"
								}

							}
, 							{
								"box" : 								{
									"maxclass" : "newobj",
									"text" : "sprintf \/xyz\/%ld",
									"numinlets" : 1,
									"patching_rect" : [ 80.0, 200.0, 90.0, 17.0 ],
									"numoutlets" : 1,
									"fontsize" : 9.0,
									"fontname" : "Verdana",
									"outlettype" : [ "" ],
									"id" : "obj-6"
								}

							}
, 							{
								"box" : 								{
									"maxclass" : "newobj",
									"text" : "* 45.",
									"numinlets" : 2,
									"patching_rect" : [ 203.0, 158.0, 35.0, 17.0 ],
									"numoutlets" : 1,
									"fontsize" : 9.0,
									"fontname" : "Verdana",
									"outlettype" : [ "float" ],
									"id" : "obj-7"
								}

							}
, 							{
								"box" : 								{
									"maxclass" : "newobj",
									"text" : "- 1",
									"numinlets" : 2,
									"patching_rect" : [ 203.0, 133.0, 27.0, 17.0 ],
									"numoutlets" : 1,
									"fontsize" : 9.0,
									"fontname" : "Verdana",
									"outlettype" : [ "int" ],
									"id" : "obj-8"
								}

							}
, 							{
								"box" : 								{
									"maxclass" : "newobj",
									"text" : "uzi 8",
									"numinlets" : 2,
									"patching_rect" : [ 50.0, 89.0, 40.0, 17.0 ],
									"numoutlets" : 3,
									"fontsize" : 9.0,
									"fontname" : "Verdana",
									"outlettype" : [ "bang", "bang", "int" ],
									"id" : "obj-9"
								}

							}
, 							{
								"box" : 								{
									"maxclass" : "newobj",
									"text" : "jcom.aed2xyz.mxt",
									"numinlets" : 1,
									"patching_rect" : [ 203.0, 199.0, 94.0, 17.0 ],
									"numoutlets" : 1,
									"fontsize" : 9.0,
									"fontname" : "Verdana",
									"outlettype" : [ "" ],
									"id" : "obj-10"
								}

							}
, 							{
								"box" : 								{
									"maxclass" : "inlet",
									"numinlets" : 0,
									"patching_rect" : [ 50.0, 30.0, 15.0, 15.0 ],
									"numoutlets" : 1,
									"outlettype" : [ "int" ],
									"id" : "obj-11",
									"comment" : ""
								}

							}
, 							{
								"box" : 								{
									"maxclass" : "outlet",
									"numinlets" : 1,
									"patching_rect" : [ 80.0, 271.0, 15.0, 15.0 ],
									"numoutlets" : 0,
									"id" : "obj-12",
									"comment" : ""
								}

							}
 ],
						"lines" : [ 							{
								"patchline" : 								{
									"source" : [ "obj-11", 0 ],
									"destination" : [ "obj-3", 0 ],
									"hidden" : 0
								}

							}
, 							{
								"patchline" : 								{
									"source" : [ "obj-3", 0 ],
									"destination" : [ "obj-9", 0 ],
									"hidden" : 0
								}

							}
, 							{
								"patchline" : 								{
									"source" : [ "obj-9", 2 ],
									"destination" : [ "obj-6", 0 ],
									"hidden" : 0
								}

							}
, 							{
								"patchline" : 								{
									"source" : [ "obj-6", 0 ],
									"destination" : [ "obj-4", 0 ],
									"hidden" : 0
								}

							}
, 							{
								"patchline" : 								{
									"source" : [ "obj-4", 0 ],
									"destination" : [ "obj-12", 0 ],
									"hidden" : 0
								}

							}
, 							{
								"patchline" : 								{
									"source" : [ "obj-1", 0 ],
									"destination" : [ "obj-12", 0 ],
									"hidden" : 0,
									"midpoints" : [ 310.5, 259.0, 89.0, 259.0 ]
								}

							}
, 							{
								"patchline" : 								{
									"source" : [ "obj-10", 0 ],
									"destination" : [ "obj-4", 1 ],
									"hidden" : 0
								}

							}
, 							{
								"patchline" : 								{
									"source" : [ "obj-9", 2 ],
									"destination" : [ "obj-8", 0 ],
									"hidden" : 0,
									"midpoints" : [ 80.5, 128.0, 212.5, 128.0 ]
								}

							}
, 							{
								"patchline" : 								{
									"source" : [ "obj-8", 0 ],
									"destination" : [ "obj-7", 0 ],
									"hidden" : 0
								}

							}
, 							{
								"patchline" : 								{
									"source" : [ "obj-7", 0 ],
									"destination" : [ "obj-5", 0 ],
									"hidden" : 0
								}

							}
, 							{
								"patchline" : 								{
									"source" : [ "obj-5", 0 ],
									"destination" : [ "obj-10", 0 ],
									"hidden" : 0
								}

							}
, 							{
								"patchline" : 								{
									"source" : [ "obj-3", 1 ],
									"destination" : [ "obj-2", 0 ],
									"hidden" : 0,
									"midpoints" : [ 70.0, 82.0, 237.5, 82.0 ]
								}

							}
, 							{
								"patchline" : 								{
									"source" : [ "obj-2", 0 ],
									"destination" : [ "obj-7", 1 ],
									"hidden" : 0
								}

							}
, 							{
								"patchline" : 								{
									"source" : [ "obj-3", 2 ],
									"destination" : [ "obj-1", 0 ],
									"hidden" : 0,
									"midpoints" : [ 80.5, 76.0, 310.5, 76.0 ]
								}

							}
 ]
					}
,
					"saved_object_attributes" : 					{
						"globalpatchername" : "",
						"fontsize" : 10.0,
						"default_fontsize" : 10.0,
						"default_fontface" : 0,
						"fontname" : "Verdana",
						"fontface" : 0,
						"default_fontname" : "Verdana"
					}

				}

			}
, 			{
				"box" : 				{
					"maxclass" : "comment",
					"text" : "jmod.sur.speaker.setup",
					"numinlets" : 1,
					"patching_rect" : [ 10.0, 15.0, 258.0, 28.0 ],
					"numoutlets" : 0,
					"fontsize" : 15.799999,
					"fontname" : "Verdana",
					"frgb" : [ 1.0, 1.0, 1.0, 1.0 ],
					"id" : "obj-5",
					"textcolor" : [ 1.0, 1.0, 1.0, 1.0 ]
				}

			}
, 			{
				"box" : 				{
					"maxclass" : "comment",
					"text" : "Module for describing loudspeaker setup as XYZ coordinates.",
					"numinlets" : 1,
					"patching_rect" : [ 10.0, 40.0, 281.0, 17.0 ],
					"numoutlets" : 0,
					"fontsize" : 9.0,
					"fontname" : "Verdana",
					"frgb" : [ 1.0, 1.0, 1.0, 1.0 ],
					"id" : "obj-6",
					"textcolor" : [ 1.0, 1.0, 1.0, 1.0 ]
				}

			}
, 			{
				"box" : 				{
					"maxclass" : "panel",
					"numinlets" : 1,
					"bgcolor" : [ 0.262745, 0.254902, 0.419608, 1.0 ],
					"patching_rect" : [ 5.0, 10.0, 331.0, 53.0 ],
					"rounded" : 0,
					"numoutlets" : 0,
					"id" : "obj-7"
				}

			}
, 			{
				"box" : 				{
					"maxclass" : "newobj",
					"text" : "jcom.aed2ambimonitor",
					"numinlets" : 1,
					"patching_rect" : [ 27.0, 252.0, 112.0, 17.0 ],
					"numoutlets" : 1,
					"fontsize" : 9.0,
					"fontname" : "Verdana",
					"outlettype" : [ "" ],
					"id" : "obj-8"
				}

			}
, 			{
				"box" : 				{
					"maxclass" : "number",
					"numinlets" : 1,
					"bgcolor" : [ 0.866667, 0.866667, 0.866667, 1.0 ],
					"htextcolor" : [ 0.870588, 0.870588, 0.870588, 1.0 ],
					"patching_rect" : [ 27.0, 123.0, 35.0, 17.0 ],
					"numoutlets" : 2,
					"fontsize" : 9.0,
					"fontname" : "Verdana",
					"triscale" : 0.9,
					"maximum" : 16,
					"outlettype" : [ "int", "bang" ],
					"id" : "obj-9",
					"minimum" : 1
				}

			}
, 			{
				"box" : 				{
					"maxclass" : "ambimonitor",
					"numinlets" : 1,
					"patching_rect" : [ 27.0, 282.0, 100.0, 20.0 ],
					"numoutlets" : 0,
					"id" : "obj-10"
				}

			}
, 			{
				"box" : 				{
					"maxclass" : "bpatcher",
					"varname" : "\/speaker_setup",
					"name" : "jmod.sur.speaker.setup.maxpat",
					"numinlets" : 1,
					"patching_rect" : [ 27.0, 168.0, 301.0, 71.0 ],
					"numoutlets" : 1,
					"outlettype" : [ "" ],
					"id" : "obj-11",
					"args" : [  ],
					"lockeddragscroll" : 1
				}

			}
, 			{
				"box" : 				{
					"maxclass" : "comment",
					"text" : "Number of speakers",
					"numinlets" : 1,
					"patching_rect" : [ 67.0, 124.0, 100.0, 17.0 ],
					"numoutlets" : 0,
					"fontsize" : 9.0,
					"fontname" : "Verdana",
					"id" : "obj-12"
				}

			}
, 			{
				"box" : 				{
					"maxclass" : "comment",
					"text" : "Loudspeaker x, y, z-coordinates can be set in the inspector.",
					"numinlets" : 1,
					"patching_rect" : [ 10.0, 73.0, 310.0, 17.0 ],
					"numoutlets" : 0,
					"fontsize" : 9.0,
					"fontname" : "Verdana",
					"id" : "obj-13"
				}

			}
 ],
		"lines" : [ 			{
				"patchline" : 				{
					"source" : [ "obj-9", 0 ],
					"destination" : [ "obj-4", 0 ],
					"hidden" : 0
				}

			}
, 			{
				"patchline" : 				{
					"source" : [ "obj-4", 0 ],
					"destination" : [ "obj-11", 0 ],
					"hidden" : 0
				}

			}
, 			{
				"patchline" : 				{
					"source" : [ "obj-11", 0 ],
					"destination" : [ "obj-8", 0 ],
					"hidden" : 0
				}

			}
, 			{
				"patchline" : 				{
					"source" : [ "obj-8", 0 ],
					"destination" : [ "obj-10", 0 ],
					"hidden" : 0
				}

			}
, 			{
				"patchline" : 				{
					"source" : [ "obj-11", 0 ],
					"destination" : [ "obj-2", 0 ],
					"hidden" : 0,
					"midpoints" : [ 36.5, 246.0, 158.5, 246.0 ]
				}

			}
 ]
	}

}
