{
	"patcher" : 	{
		"fileversion" : 1,
		"rect" : [ 468.0, 183.0, 660.0, 531.0 ],
		"bglocked" : 0,
		"defrect" : [ 468.0, 183.0, 660.0, 531.0 ],
		"openrect" : [ 0.0, 0.0, 0.0, 0.0 ],
		"openinpresentation" : 0,
		"default_fontsize" : 10.0,
		"default_fontface" : 0,
		"default_fontname" : "Verdana",
		"gridonopen" : 0,
		"gridsize" : [ 10.0, 5.0 ],
		"gridsnaponopen" : 0,
		"toolbarvisible" : 1,
		"boxanimatetime" : 200,
		"imprint" : 0,
		"metadata" : [  ],
		"boxes" : [ 			{
				"box" : 				{
					"maxclass" : "newobj",
					"text" : "p annotation",
					"patching_rect" : [ 40.0, 450.0, 79.0, 19.0 ],
					"id" : "obj-34",
					"fontname" : "Verdana",
					"numinlets" : 2,
					"numoutlets" : 1,
					"fontsize" : 10.0,
					"outlettype" : [ "" ],
					"patcher" : 					{
						"fileversion" : 1,
						"rect" : [ 581.0, 318.0, 502.0, 300.0 ],
						"bglocked" : 0,
						"defrect" : [ 581.0, 318.0, 502.0, 300.0 ],
						"openrect" : [ 0.0, 0.0, 0.0, 0.0 ],
						"openinpresentation" : 0,
						"default_fontsize" : 10.0,
						"default_fontface" : 0,
						"default_fontname" : "Verdana",
						"gridonopen" : 0,
						"gridsize" : [ 10.0, 5.0 ],
						"gridsnaponopen" : 0,
						"toolbarvisible" : 1,
						"boxanimatetime" : 200,
						"imprint" : 0,
						"metadata" : [  ],
						"boxes" : [ 							{
								"box" : 								{
									"maxclass" : "comment",
									"text" : "After the fail message is sent, then the fail message clears itself.",
									"linecount" : 2,
									"patching_rect" : [ 300.0, 130.0, 182.0, 31.0 ],
									"id" : "obj-10",
									"fontname" : "Verdana",
									"numinlets" : 1,
									"numoutlets" : 0,
									"fontsize" : 10.0,
									"frgb" : [ 0.658824, 0.658824, 0.658824, 1.0 ],
									"presentation_rect" : [ 295.0, 129.0, 0.0, 0.0 ]
								}

							}
, 							{
								"box" : 								{
									"maxclass" : "comment",
									"text" : "When an assertion test fails, the fail message can be annotated by sending a message to the 2nd inlet of the assertion object.",
									"linecount" : 4,
									"patching_rect" : [ 300.0, 55.0, 182.0, 55.0 ],
									"id" : "obj-9",
									"fontname" : "Verdana",
									"numinlets" : 1,
									"numoutlets" : 0,
									"fontsize" : 10.0,
									"frgb" : [ 0.658824, 0.658824, 0.658824, 1.0 ]
								}

							}
, 							{
								"box" : 								{
									"maxclass" : "inlet",
									"patching_rect" : [ 200.0, 20.0, 20.0, 20.0 ],
									"id" : "obj-7",
									"numinlets" : 0,
									"numoutlets" : 1,
									"outlettype" : [ "" ],
									"presentation_rect" : [ 271.0, 82.0, 0.0, 0.0 ],
									"comment" : ""
								}

							}
, 							{
								"box" : 								{
									"maxclass" : "newobj",
									"text" : "t l b",
									"patching_rect" : [ 30.0, 55.0, 38.5, 19.0 ],
									"id" : "obj-6",
									"fontname" : "Verdana",
									"numinlets" : 1,
									"numoutlets" : 2,
									"fontsize" : 10.0,
									"outlettype" : [ "", "bang" ]
								}

							}
, 							{
								"box" : 								{
									"maxclass" : "message",
									"patching_rect" : [ 30.0, 245.0, 50.0, 17.0 ],
									"id" : "obj-5",
									"fontname" : "Verdana",
									"numinlets" : 2,
									"numoutlets" : 1,
									"fontsize" : 10.0,
									"outlettype" : [ "" ]
								}

							}
, 							{
								"box" : 								{
									"maxclass" : "newobj",
									"text" : "t b l",
									"patching_rect" : [ 30.0, 185.0, 38.5, 19.0 ],
									"id" : "obj-3",
									"fontname" : "Verdana",
									"numinlets" : 1,
									"numoutlets" : 2,
									"fontsize" : 10.0,
									"outlettype" : [ "bang", "" ]
								}

							}
, 							{
								"box" : 								{
									"maxclass" : "outlet",
									"patching_rect" : [ 50.0, 210.0, 20.0, 20.0 ],
									"id" : "obj-2",
									"numinlets" : 1,
									"numoutlets" : 0,
									"comment" : ""
								}

							}
, 							{
								"box" : 								{
									"maxclass" : "inlet",
									"patching_rect" : [ 30.0, 20.0, 20.0, 20.0 ],
									"id" : "obj-1",
									"numinlets" : 0,
									"numoutlets" : 1,
									"outlettype" : [ "" ],
									"comment" : ""
								}

							}
, 							{
								"box" : 								{
									"maxclass" : "newobj",
									"text" : "prepend set",
									"patching_rect" : [ 50.0, 125.0, 70.0, 19.0 ],
									"id" : "obj-33",
									"fontname" : "Verdana",
									"numinlets" : 1,
									"numoutlets" : 1,
									"fontsize" : 10.0,
									"outlettype" : [ "" ]
								}

							}
, 							{
								"box" : 								{
									"maxclass" : "message",
									"text" : "1",
									"patching_rect" : [ 50.0, 100.0, 170.0, 17.0 ],
									"id" : "obj-32",
									"fontname" : "Verdana",
									"numinlets" : 2,
									"numoutlets" : 1,
									"fontsize" : 10.0,
									"outlettype" : [ "" ]
								}

							}
, 							{
								"box" : 								{
									"maxclass" : "newobj",
									"text" : "append",
									"patching_rect" : [ 30.0, 160.0, 47.0, 19.0 ],
									"id" : "obj-31",
									"fontname" : "Verdana",
									"numinlets" : 1,
									"numoutlets" : 1,
									"fontsize" : 10.0,
									"outlettype" : [ "" ]
								}

							}
 ],
						"lines" : [ 							{
								"patchline" : 								{
									"source" : [ "obj-7", 0 ],
									"destination" : [ "obj-32", 1 ],
									"hidden" : 0,
									"midpoints" : [  ]
								}

							}
, 							{
								"patchline" : 								{
									"source" : [ "obj-6", 0 ],
									"destination" : [ "obj-31", 0 ],
									"hidden" : 0,
									"midpoints" : [  ]
								}

							}
, 							{
								"patchline" : 								{
									"source" : [ "obj-6", 1 ],
									"destination" : [ "obj-32", 0 ],
									"hidden" : 0,
									"midpoints" : [  ]
								}

							}
, 							{
								"patchline" : 								{
									"source" : [ "obj-1", 0 ],
									"destination" : [ "obj-6", 0 ],
									"hidden" : 0,
									"midpoints" : [  ]
								}

							}
, 							{
								"patchline" : 								{
									"source" : [ "obj-32", 0 ],
									"destination" : [ "obj-33", 0 ],
									"hidden" : 0,
									"midpoints" : [  ]
								}

							}
, 							{
								"patchline" : 								{
									"source" : [ "obj-5", 0 ],
									"destination" : [ "obj-32", 1 ],
									"hidden" : 0,
									"midpoints" : [ 39.5, 274.0, 275.0, 274.0, 275.0, 96.0, 210.5, 96.0 ]
								}

							}
, 							{
								"patchline" : 								{
									"source" : [ "obj-3", 0 ],
									"destination" : [ "obj-5", 0 ],
									"hidden" : 0,
									"midpoints" : [  ]
								}

							}
, 							{
								"patchline" : 								{
									"source" : [ "obj-3", 1 ],
									"destination" : [ "obj-2", 0 ],
									"hidden" : 0,
									"midpoints" : [  ]
								}

							}
, 							{
								"patchline" : 								{
									"source" : [ "obj-31", 0 ],
									"destination" : [ "obj-3", 0 ],
									"hidden" : 0,
									"midpoints" : [  ]
								}

							}
, 							{
								"patchline" : 								{
									"source" : [ "obj-33", 0 ],
									"destination" : [ "obj-31", 0 ],
									"hidden" : 0,
									"midpoints" : [  ]
								}

							}
 ]
					}
,
					"saved_object_attributes" : 					{
						"default_fontname" : "Verdana",
						"fontname" : "Verdana",
						"default_fontsize" : 10.0,
						"globalpatchername" : "",
						"fontface" : 0,
						"fontsize" : 10.0,
						"default_fontface" : 0
					}

				}

			}
, 			{
				"box" : 				{
					"maxclass" : "comment",
					"text" : "<-- fail message",
					"patching_rect" : [ 150.0, 420.0, 94.0, 19.0 ],
					"id" : "obj-30",
					"fontname" : "Verdana",
					"numinlets" : 1,
					"numoutlets" : 0,
					"fontsize" : 10.0,
					"frgb" : [ 0.658824, 0.658824, 0.658824, 1.0 ],
					"presentation_rect" : [ 97.0, 10.0, 0.0, 0.0 ]
				}

			}
, 			{
				"box" : 				{
					"maxclass" : "comment",
					"text" : "result value",
					"patching_rect" : [ 10.0, 10.0, 69.0, 19.0 ],
					"id" : "obj-28",
					"fontname" : "Verdana",
					"numinlets" : 1,
					"numoutlets" : 0,
					"fontsize" : 10.0,
					"frgb" : [ 0.658824, 0.658824, 0.658824, 1.0 ]
				}

			}
, 			{
				"box" : 				{
					"maxclass" : "inlet",
					"patching_rect" : [ 100.0, 420.0, 20.0, 20.0 ],
					"id" : "obj-22",
					"numinlets" : 0,
					"numoutlets" : 1,
					"outlettype" : [ "" ],
					"presentation_rect" : [ 83.0, 37.0, 0.0, 0.0 ],
					"comment" : ""
				}

			}
, 			{
				"box" : 				{
					"maxclass" : "newobj",
					"text" : "loadbang",
					"patching_rect" : [ 190.0, 10.0, 64.0, 19.0 ],
					"id" : "obj-16",
					"fontname" : "Verdana",
					"numinlets" : 1,
					"numoutlets" : 1,
					"fontsize" : 10.0,
					"outlettype" : [ "bang" ]
				}

			}
, 			{
				"box" : 				{
					"maxclass" : "newobj",
					"text" : "print jcom.test.assert:Error",
					"patching_rect" : [ 490.0, 105.0, 154.0, 19.0 ],
					"id" : "obj-21",
					"fontname" : "Verdana",
					"numinlets" : 1,
					"numoutlets" : 0,
					"fontsize" : 10.0
				}

			}
, 			{
				"box" : 				{
					"maxclass" : "button",
					"patching_rect" : [ 440.0, 105.0, 20.0, 20.0 ],
					"id" : "obj-18",
					"numinlets" : 1,
					"numoutlets" : 1,
					"outlettype" : [ "bang" ]
				}

			}
, 			{
				"box" : 				{
					"maxclass" : "newobj",
					"text" : "t l b",
					"patching_rect" : [ 20.0, 90.0, 39.0, 19.0 ],
					"id" : "obj-29",
					"fontname" : "Verdana",
					"numinlets" : 1,
					"numoutlets" : 2,
					"fontsize" : 10.0,
					"outlettype" : [ "", "bang" ]
				}

			}
, 			{
				"box" : 				{
					"maxclass" : "message",
					"text" : "1",
					"patching_rect" : [ 80.0, 130.0, 170.0, 17.0 ],
					"id" : "obj-26",
					"fontname" : "Verdana",
					"numinlets" : 2,
					"numoutlets" : 1,
					"fontsize" : 10.0,
					"outlettype" : [ "" ]
				}

			}
, 			{
				"box" : 				{
					"maxclass" : "newobj",
					"text" : "zl slice 1",
					"patching_rect" : [ 190.0, 75.0, 60.0, 19.0 ],
					"id" : "obj-25",
					"fontname" : "Verdana",
					"numinlets" : 2,
					"numoutlets" : 2,
					"fontsize" : 10.0,
					"outlettype" : [ "", "" ]
				}

			}
, 			{
				"box" : 				{
					"maxclass" : "newobj",
					"text" : "route reverse done",
					"patching_rect" : [ 390.0, 80.0, 119.0, 19.0 ],
					"id" : "obj-24",
					"fontname" : "Verdana",
					"numinlets" : 1,
					"numoutlets" : 3,
					"fontsize" : 10.0,
					"outlettype" : [ "", "", "" ]
				}

			}
, 			{
				"box" : 				{
					"maxclass" : "newobj",
					"text" : "t b i",
					"patching_rect" : [ 20.0, 255.0, 38.5, 19.0 ],
					"id" : "obj-23",
					"fontname" : "Verdana",
					"numinlets" : 1,
					"numoutlets" : 2,
					"fontsize" : 10.0,
					"outlettype" : [ "bang", "int" ]
				}

			}
, 			{
				"box" : 				{
					"maxclass" : "newobj",
					"text" : "== 1",
					"patching_rect" : [ 20.0, 230.0, 43.0, 19.0 ],
					"id" : "obj-20",
					"fontname" : "Verdana",
					"numinlets" : 2,
					"numoutlets" : 1,
					"fontsize" : 10.0,
					"outlettype" : [ "int" ]
				}

			}
, 			{
				"box" : 				{
					"maxclass" : "toggle",
					"patching_rect" : [ 20.0, 205.0, 20.0, 20.0 ],
					"id" : "obj-19",
					"numinlets" : 1,
					"numoutlets" : 1,
					"outlettype" : [ "int" ]
				}

			}
, 			{
				"box" : 				{
					"maxclass" : "newobj",
					"text" : "== 0",
					"patching_rect" : [ 390.0, 105.0, 43.0, 19.0 ],
					"id" : "obj-10",
					"fontname" : "Verdana",
					"numinlets" : 2,
					"numoutlets" : 1,
					"fontsize" : 10.0,
					"outlettype" : [ "int" ]
				}

			}
, 			{
				"box" : 				{
					"maxclass" : "newobj",
					"text" : "patcherargs \"Jamoma Assertion Test\" 1 @reverse 0",
					"linecount" : 2,
					"patching_rect" : [ 190.0, 35.0, 219.0, 31.0 ],
					"id" : "obj-8",
					"fontname" : "Verdana",
					"numinlets" : 1,
					"numoutlets" : 2,
					"fontsize" : 10.0,
					"outlettype" : [ "", "" ]
				}

			}
, 			{
				"box" : 				{
					"maxclass" : "newobj",
					"text" : "zl compare",
					"patching_rect" : [ 20.0, 180.0, 79.0, 19.0 ],
					"id" : "obj-4",
					"fontname" : "Verdana",
					"numinlets" : 2,
					"numoutlets" : 2,
					"fontsize" : 10.0,
					"outlettype" : [ "", "" ]
				}

			}
, 			{
				"box" : 				{
					"maxclass" : "comment",
					"text" : "@reverse: reverses the test results (e.g. to look for non-matching behavior and have it PASS)",
					"linecount" : 2,
					"patching_rect" : [ 340.0, 390.0, 255.0, 31.0 ],
					"id" : "obj-15",
					"fontname" : "Verdana",
					"numinlets" : 1,
					"numoutlets" : 0,
					"fontsize" : 10.0,
					"frgb" : [ 0.658824, 0.658824, 0.658824, 1.0 ]
				}

			}
, 			{
				"box" : 				{
					"maxclass" : "comment",
					"text" : "Attributes",
					"patching_rect" : [ 320.0, 370.0, 157.0, 19.0 ],
					"id" : "obj-14",
					"fontname" : "Verdana",
					"numinlets" : 1,
					"numoutlets" : 0,
					"fontsize" : 10.0,
					"frgb" : [ 0.658824, 0.658824, 0.658824, 1.0 ]
				}

			}
, 			{
				"box" : 				{
					"maxclass" : "comment",
					"text" : "Arguments",
					"patching_rect" : [ 320.0, 300.0, 156.0, 19.0 ],
					"id" : "obj-13",
					"fontname" : "Verdana",
					"numinlets" : 1,
					"numoutlets" : 0,
					"fontsize" : 10.0,
					"frgb" : [ 0.658824, 0.658824, 0.658824, 1.0 ]
				}

			}
, 			{
				"box" : 				{
					"maxclass" : "comment",
					"text" : "additional args: result to match",
					"patching_rect" : [ 340.0, 340.0, 196.0, 19.0 ],
					"id" : "obj-12",
					"fontname" : "Verdana",
					"numinlets" : 1,
					"numoutlets" : 0,
					"fontsize" : 10.0,
					"frgb" : [ 0.658824, 0.658824, 0.658824, 1.0 ]
				}

			}
, 			{
				"box" : 				{
					"maxclass" : "comment",
					"text" : "first arg: test name",
					"patching_rect" : [ 340.0, 320.0, 156.0, 19.0 ],
					"id" : "obj-11",
					"fontname" : "Verdana",
					"numinlets" : 1,
					"numoutlets" : 0,
					"fontsize" : 10.0,
					"frgb" : [ 0.658824, 0.658824, 0.658824, 1.0 ]
				}

			}
, 			{
				"box" : 				{
					"maxclass" : "toggle",
					"patching_rect" : [ 40.0, 305.0, 20.0, 20.0 ],
					"id" : "obj-9",
					"numinlets" : 1,
					"numoutlets" : 1,
					"outlettype" : [ "int" ]
				}

			}
, 			{
				"box" : 				{
					"maxclass" : "newobj",
					"text" : "+ 1",
					"patching_rect" : [ 40.0, 335.0, 40.0, 19.0 ],
					"id" : "obj-7",
					"fontname" : "Verdana",
					"numinlets" : 2,
					"numoutlets" : 1,
					"fontsize" : 10.0,
					"outlettype" : [ "int" ]
				}

			}
, 			{
				"box" : 				{
					"maxclass" : "newobj",
					"text" : "gate 2 2",
					"patching_rect" : [ 40.0, 365.0, 109.0, 19.0 ],
					"id" : "obj-6",
					"fontname" : "Verdana",
					"numinlets" : 2,
					"numoutlets" : 2,
					"fontsize" : 10.0,
					"outlettype" : [ "", "" ]
				}

			}
, 			{
				"box" : 				{
					"maxclass" : "message",
					"text" : "\"Jamoma Assertion Test\"",
					"patching_rect" : [ 130.0, 335.0, 165.0, 17.0 ],
					"id" : "obj-5",
					"fontname" : "Verdana",
					"numinlets" : 2,
					"numoutlets" : 1,
					"fontsize" : 10.0,
					"outlettype" : [ "" ]
				}

			}
, 			{
				"box" : 				{
					"maxclass" : "newobj",
					"text" : "prepend PASS",
					"patching_rect" : [ 130.0, 395.0, 81.0, 19.0 ],
					"id" : "obj-2",
					"fontname" : "Verdana",
					"numinlets" : 1,
					"numoutlets" : 1,
					"fontsize" : 10.0,
					"outlettype" : [ "" ]
				}

			}
, 			{
				"box" : 				{
					"maxclass" : "newobj",
					"text" : "prepend FAIL",
					"patching_rect" : [ 40.0, 395.0, 77.0, 19.0 ],
					"id" : "obj-1",
					"fontname" : "Verdana",
					"numinlets" : 1,
					"numoutlets" : 1,
					"fontsize" : 10.0,
					"outlettype" : [ "" ]
				}

			}
, 			{
				"box" : 				{
					"maxclass" : "inlet",
					"patching_rect" : [ 20.0, 35.0, 20.0, 20.0 ],
					"id" : "obj-3",
					"numinlets" : 0,
					"numoutlets" : 1,
					"outlettype" : [ "" ],
					"comment" : ""
				}

			}
, 			{
				"box" : 				{
					"maxclass" : "newobj",
					"text" : "s JamomaTestResult",
					"patching_rect" : [ 40.0, 490.0, 120.0, 19.0 ],
					"id" : "obj-17",
					"fontname" : "Verdana",
					"numinlets" : 1,
					"numoutlets" : 0,
					"fontsize" : 10.0
				}

			}
 ],
		"lines" : [ 			{
				"patchline" : 				{
					"source" : [ "obj-22", 0 ],
					"destination" : [ "obj-34", 1 ],
					"hidden" : 0,
					"midpoints" : [  ]
				}

			}
, 			{
				"patchline" : 				{
					"source" : [ "obj-34", 0 ],
					"destination" : [ "obj-17", 0 ],
					"hidden" : 0,
					"midpoints" : [  ]
				}

			}
, 			{
				"patchline" : 				{
					"source" : [ "obj-1", 0 ],
					"destination" : [ "obj-34", 0 ],
					"hidden" : 0,
					"midpoints" : [  ]
				}

			}
, 			{
				"patchline" : 				{
					"source" : [ "obj-16", 0 ],
					"destination" : [ "obj-8", 0 ],
					"hidden" : 0,
					"midpoints" : [  ]
				}

			}
, 			{
				"patchline" : 				{
					"source" : [ "obj-24", 2 ],
					"destination" : [ "obj-21", 0 ],
					"hidden" : 0,
					"midpoints" : [  ]
				}

			}
, 			{
				"patchline" : 				{
					"source" : [ "obj-24", 1 ],
					"destination" : [ "obj-18", 0 ],
					"hidden" : 0,
					"midpoints" : [  ]
				}

			}
, 			{
				"patchline" : 				{
					"source" : [ "obj-8", 1 ],
					"destination" : [ "obj-24", 0 ],
					"hidden" : 0,
					"midpoints" : [  ]
				}

			}
, 			{
				"patchline" : 				{
					"source" : [ "obj-24", 0 ],
					"destination" : [ "obj-10", 0 ],
					"hidden" : 0,
					"midpoints" : [  ]
				}

			}
, 			{
				"patchline" : 				{
					"source" : [ "obj-7", 0 ],
					"destination" : [ "obj-6", 0 ],
					"hidden" : 0,
					"midpoints" : [  ]
				}

			}
, 			{
				"patchline" : 				{
					"source" : [ "obj-9", 0 ],
					"destination" : [ "obj-7", 0 ],
					"hidden" : 0,
					"midpoints" : [  ]
				}

			}
, 			{
				"patchline" : 				{
					"source" : [ "obj-19", 0 ],
					"destination" : [ "obj-20", 0 ],
					"hidden" : 0,
					"midpoints" : [  ]
				}

			}
, 			{
				"patchline" : 				{
					"source" : [ "obj-10", 0 ],
					"destination" : [ "obj-20", 1 ],
					"hidden" : 0,
					"midpoints" : [ 399.5, 221.0, 53.5, 221.0 ]
				}

			}
, 			{
				"patchline" : 				{
					"source" : [ "obj-5", 0 ],
					"destination" : [ "obj-6", 1 ],
					"hidden" : 0,
					"midpoints" : [  ]
				}

			}
, 			{
				"patchline" : 				{
					"source" : [ "obj-8", 0 ],
					"destination" : [ "obj-25", 0 ],
					"hidden" : 0,
					"midpoints" : [  ]
				}

			}
, 			{
				"patchline" : 				{
					"source" : [ "obj-25", 0 ],
					"destination" : [ "obj-5", 1 ],
					"hidden" : 0,
					"midpoints" : [ 199.5, 115.0, 285.5, 115.0 ]
				}

			}
, 			{
				"patchline" : 				{
					"source" : [ "obj-25", 1 ],
					"destination" : [ "obj-26", 1 ],
					"hidden" : 0,
					"midpoints" : [  ]
				}

			}
, 			{
				"patchline" : 				{
					"source" : [ "obj-3", 0 ],
					"destination" : [ "obj-29", 0 ],
					"hidden" : 0,
					"midpoints" : [  ]
				}

			}
, 			{
				"patchline" : 				{
					"source" : [ "obj-29", 1 ],
					"destination" : [ "obj-26", 0 ],
					"hidden" : 0,
					"midpoints" : [  ]
				}

			}
, 			{
				"patchline" : 				{
					"source" : [ "obj-29", 0 ],
					"destination" : [ "obj-4", 0 ],
					"hidden" : 0,
					"midpoints" : [  ]
				}

			}
, 			{
				"patchline" : 				{
					"source" : [ "obj-26", 0 ],
					"destination" : [ "obj-4", 1 ],
					"hidden" : 0,
					"midpoints" : [  ]
				}

			}
, 			{
				"patchline" : 				{
					"source" : [ "obj-4", 0 ],
					"destination" : [ "obj-19", 0 ],
					"hidden" : 0,
					"midpoints" : [  ]
				}

			}
, 			{
				"patchline" : 				{
					"source" : [ "obj-23", 0 ],
					"destination" : [ "obj-5", 0 ],
					"hidden" : 0,
					"midpoints" : [ 29.5, 284.0, 139.5, 284.0 ]
				}

			}
, 			{
				"patchline" : 				{
					"source" : [ "obj-23", 1 ],
					"destination" : [ "obj-9", 0 ],
					"hidden" : 0,
					"midpoints" : [  ]
				}

			}
, 			{
				"patchline" : 				{
					"source" : [ "obj-20", 0 ],
					"destination" : [ "obj-23", 0 ],
					"hidden" : 0,
					"midpoints" : [  ]
				}

			}
, 			{
				"patchline" : 				{
					"source" : [ "obj-6", 0 ],
					"destination" : [ "obj-1", 0 ],
					"hidden" : 0,
					"midpoints" : [  ]
				}

			}
, 			{
				"patchline" : 				{
					"source" : [ "obj-6", 1 ],
					"destination" : [ "obj-2", 0 ],
					"hidden" : 0,
					"midpoints" : [  ]
				}

			}
, 			{
				"patchline" : 				{
					"source" : [ "obj-2", 0 ],
					"destination" : [ "obj-17", 0 ],
					"hidden" : 0,
					"midpoints" : [ 139.5, 482.0, 49.5, 482.0 ]
				}

			}
 ]
	}

}
