{
	"patcher" : 	{
		"fileversion" : 1,
		"rect" : [ 117.0, 46.0, 1123.0, 517.0 ],
		"bglocked" : 0,
		"defrect" : [ 117.0, 46.0, 1123.0, 517.0 ],
		"openrect" : [ 0.0, 0.0, 0.0, 0.0 ],
		"openinpresentation" : 0,
		"default_fontsize" : 10.0,
		"default_fontface" : 0,
		"default_fontname" : "Arial",
		"gridonopen" : 0,
		"gridsize" : [ 15.0, 15.0 ],
		"gridsnaponopen" : 0,
		"toolbarvisible" : 1,
		"boxanimatetime" : 200,
		"imprint" : 0,
		"metadata" : [  ],
		"boxes" : [ 			{
				"box" : 				{
					"maxclass" : "newobj",
					"varname" : "multiin",
					"text" : "jcom.multi.in~",
					"numoutlets" : 1,
					"fontsize" : 9.0,
					"outlettype" : [ "" ],
					"id" : "obj-1",
					"fontname" : "Arial",
					"numinlets" : 32,
					"patching_rect" : [ 252.0, 351.0, 861.0, 17.0 ]
				}

			}
, 			{
				"box" : 				{
					"maxclass" : "newobj",
					"varname" : "multiout",
					"text" : "jcom.multi.out~",
					"numoutlets" : 32,
					"fontsize" : 9.0,
					"outlettype" : [ "", "", "", "", "", "", "", "", "", "", "", "", "", "", "", "", "", "", "", "", "", "", "", "", "", "", "", "", "", "", "", "" ],
					"id" : "obj-2",
					"fontname" : "Arial",
					"numinlets" : 2,
					"patching_rect" : [ 252.0, 60.0, 417.0, 17.0 ]
				}

			}
, 			{
				"box" : 				{
					"maxclass" : "newobj",
					"varname" : "messages",
					"text" : "p messages",
					"numoutlets" : 1,
					"fontsize" : 9.0,
					"outlettype" : [ "" ],
					"id" : "obj-3",
					"fontname" : "Arial",
					"numinlets" : 1,
					"patching_rect" : [ 118.0, 85.0, 61.0, 17.0 ],
					"patcher" : 					{
						"fileversion" : 1,
						"rect" : [ 44.0, 74.0, 685.0, 457.0 ],
						"bglocked" : 0,
						"defrect" : [ 44.0, 74.0, 685.0, 457.0 ],
						"openrect" : [ 0.0, 0.0, 0.0, 0.0 ],
						"openinpresentation" : 0,
						"default_fontsize" : 10.0,
						"default_fontface" : 0,
						"default_fontname" : "Arial",
						"gridonopen" : 0,
						"gridsize" : [ 15.0, 15.0 ],
						"gridsnaponopen" : 0,
						"toolbarvisible" : 1,
						"boxanimatetime" : 200,
						"imprint" : 0,
						"metadata" : [  ],
						"boxes" : [ 							{
								"box" : 								{
									"maxclass" : "comment",
									"text" : "If /order or /voices has caused ambidecode~ to be recreated, all values have to be resent when audio start to recreate current state.",
									"linecount" : 4,
									"numoutlets" : 0,
									"fontsize" : 9.0,
									"id" : "obj-1",
									"fontname" : "Arial",
									"numinlets" : 1,
									"patching_rect" : [ 481.0, 41.0, 180.0, 48.0 ]
								}

							}
, 							{
								"box" : 								{
									"maxclass" : "newobj",
									"text" : "zl join",
									"numoutlets" : 2,
									"fontsize" : 9.0,
									"outlettype" : [ "", "" ],
									"id" : "obj-2",
									"fontname" : "Arial",
									"numinlets" : 2,
									"patching_rect" : [ 355.0, 190.0, 43.0, 17.0 ]
								}

							}
, 							{
								"box" : 								{
									"maxclass" : "newobj",
									"text" : "t b dump",
									"numoutlets" : 2,
									"fontsize" : 9.0,
									"outlettype" : [ "bang", "dump" ],
									"id" : "obj-3",
									"fontname" : "Arial",
									"numinlets" : 1,
									"patching_rect" : [ 421.0, 89.0, 45.0, 17.0 ]
								}

							}
, 							{
								"box" : 								{
									"maxclass" : "newobj",
									"text" : "t i l",
									"numoutlets" : 2,
									"fontsize" : 9.0,
									"outlettype" : [ "int", "" ],
									"id" : "obj-4",
									"fontname" : "Arial",
									"numinlets" : 1,
									"patching_rect" : [ 355.0, 163.0, 31.0, 17.0 ]
								}

							}
, 							{
								"box" : 								{
									"maxclass" : "newobj",
									"text" : "coll",
									"numoutlets" : 4,
									"fontsize" : 9.0,
									"outlettype" : [ "", "", "", "" ],
									"id" : "obj-5",
									"fontname" : "Arial",
									"numinlets" : 1,
									"patching_rect" : [ 355.0, 222.0, 53.0, 17.0 ],
									"save" : [ "#N", "coll", ";" ],
									"saved_object_attributes" : 									{
										"embed" : 0
									}

								}

							}
, 							{
								"box" : 								{
									"maxclass" : "newobj",
									"text" : "sel 1",
									"numoutlets" : 2,
									"fontsize" : 9.0,
									"outlettype" : [ "bang", "" ],
									"id" : "obj-6",
									"fontname" : "Arial",
									"numinlets" : 2,
									"patching_rect" : [ 421.0, 64.0, 28.0, 17.0 ]
								}

							}
, 							{
								"box" : 								{
									"maxclass" : "newobj",
									"text" : "dspstate~",
									"numoutlets" : 4,
									"fontsize" : 9.0,
									"outlettype" : [ "int", "float", "int", "int" ],
									"id" : "obj-7",
									"fontname" : "Arial",
									"numinlets" : 1,
									"patching_rect" : [ 421.0, 37.0, 53.0, 17.0 ]
								}

							}
, 							{
								"box" : 								{
									"maxclass" : "newobj",
									"text" : "f",
									"numoutlets" : 1,
									"fontsize" : 9.0,
									"outlettype" : [ "float" ],
									"id" : "obj-8",
									"fontname" : "Arial",
									"numinlets" : 2,
									"patching_rect" : [ 246.0, 149.0, 27.0, 17.0 ]
								}

							}
, 							{
								"box" : 								{
									"maxclass" : "newobj",
									"text" : "prepend third",
									"linecount" : 2,
									"numoutlets" : 1,
									"fontsize" : 9.0,
									"outlettype" : [ "" ],
									"id" : "obj-9",
									"fontname" : "Arial",
									"numinlets" : 1,
									"patching_rect" : [ 191.0, 297.0, 44.0, 27.0 ]
								}

							}
, 							{
								"box" : 								{
									"maxclass" : "newobj",
									"text" : "prepend second",
									"linecount" : 2,
									"numoutlets" : 1,
									"fontsize" : 9.0,
									"outlettype" : [ "" ],
									"id" : "obj-10",
									"fontname" : "Arial",
									"numinlets" : 1,
									"patching_rect" : [ 136.0, 297.0, 45.0, 27.0 ]
								}

							}
, 							{
								"box" : 								{
									"maxclass" : "newobj",
									"text" : "prepend first",
									"linecount" : 2,
									"numoutlets" : 1,
									"fontsize" : 9.0,
									"outlettype" : [ "" ],
									"id" : "obj-11",
									"fontname" : "Arial",
									"numinlets" : 1,
									"patching_rect" : [ 81.0, 297.0, 44.0, 27.0 ]
								}

							}
, 							{
								"box" : 								{
									"maxclass" : "newobj",
									"text" : "prepend omni",
									"linecount" : 2,
									"numoutlets" : 1,
									"fontsize" : 9.0,
									"outlettype" : [ "" ],
									"id" : "obj-12",
									"fontname" : "Arial",
									"numinlets" : 1,
									"patching_rect" : [ 26.0, 297.0, 41.0, 27.0 ]
								}

							}
, 							{
								"box" : 								{
									"maxclass" : "newobj",
									"text" : "* 0.",
									"numoutlets" : 1,
									"fontsize" : 9.0,
									"outlettype" : [ "float" ],
									"id" : "obj-13",
									"fontname" : "Arial",
									"numinlets" : 2,
									"patching_rect" : [ 191.0, 229.0, 29.0, 17.0 ]
								}

							}
, 							{
								"box" : 								{
									"maxclass" : "newobj",
									"text" : "* 0.",
									"numoutlets" : 1,
									"fontsize" : 9.0,
									"outlettype" : [ "float" ],
									"id" : "obj-14",
									"fontname" : "Arial",
									"numinlets" : 2,
									"patching_rect" : [ 136.0, 229.0, 29.0, 17.0 ]
								}

							}
, 							{
								"box" : 								{
									"maxclass" : "newobj",
									"text" : "* 0.",
									"numoutlets" : 1,
									"fontsize" : 9.0,
									"outlettype" : [ "float" ],
									"id" : "obj-15",
									"fontname" : "Arial",
									"numinlets" : 2,
									"patching_rect" : [ 81.0, 229.0, 29.0, 17.0 ]
								}

							}
, 							{
								"box" : 								{
									"maxclass" : "newobj",
									"text" : "* 0.",
									"numoutlets" : 1,
									"fontsize" : 9.0,
									"outlettype" : [ "float" ],
									"id" : "obj-16",
									"fontname" : "Arial",
									"numinlets" : 2,
									"patching_rect" : [ 26.0, 229.0, 29.0, 17.0 ]
								}

							}
, 							{
								"box" : 								{
									"maxclass" : "newobj",
									"text" : "t b f",
									"numoutlets" : 2,
									"fontsize" : 9.0,
									"outlettype" : [ "bang", "float" ],
									"id" : "obj-17",
									"fontname" : "Arial",
									"numinlets" : 1,
									"patching_rect" : [ 246.0, 184.0, 29.0, 17.0 ]
								}

							}
, 							{
								"box" : 								{
									"maxclass" : "newobj",
									"text" : "scale 0. 158. 0. 7.94321 1.071519",
									"linecount" : 2,
									"numoutlets" : 1,
									"fontsize" : 9.0,
									"outlettype" : [ "float" ],
									"id" : "obj-18",
									"fontname" : "Arial",
									"numinlets" : 6,
									"patching_rect" : [ 246.0, 102.0, 95.0, 27.0 ]
								}

							}
, 							{
								"box" : 								{
									"maxclass" : "newobj",
									"text" : "prepend aed",
									"linecount" : 2,
									"numoutlets" : 1,
									"fontsize" : 9.0,
									"outlettype" : [ "" ],
									"id" : "obj-19",
									"fontname" : "Arial",
									"numinlets" : 1,
									"patching_rect" : [ 301.0, 297.0, 41.0, 27.0 ]
								}

							}
, 							{
								"box" : 								{
									"maxclass" : "newobj",
									"text" : "jcom.oscroute /omni /first /second /third /audio/gain/midi /aed",
									"numoutlets" : 7,
									"fontsize" : 9.0,
									"outlettype" : [ "", "", "", "", "", "", "" ],
									"id" : "obj-20",
									"fontname" : "Arial",
									"numinlets" : 1,
									"patching_rect" : [ 26.0, 60.0, 344.0, 17.0 ]
								}

							}
, 							{
								"box" : 								{
									"maxclass" : "inlet",
									"numoutlets" : 1,
									"outlettype" : [ "" ],
									"id" : "obj-21",
									"numinlets" : 0,
									"patching_rect" : [ 26.0, 28.0, 15.0, 15.0 ],
									"comment" : ""
								}

							}
, 							{
								"box" : 								{
									"maxclass" : "outlet",
									"numoutlets" : 0,
									"id" : "obj-22",
									"numinlets" : 1,
									"patching_rect" : [ 26.0, 357.0, 15.0, 15.0 ],
									"comment" : ""
								}

							}
 ],
						"lines" : [ 							{
								"patchline" : 								{
									"source" : [ "obj-21", 0 ],
									"destination" : [ "obj-20", 0 ],
									"hidden" : 0,
									"midpoints" : [  ]
								}

							}
, 							{
								"patchline" : 								{
									"source" : [ "obj-20", 0 ],
									"destination" : [ "obj-16", 0 ],
									"hidden" : 0,
									"midpoints" : [  ]
								}

							}
, 							{
								"patchline" : 								{
									"source" : [ "obj-17", 0 ],
									"destination" : [ "obj-16", 0 ],
									"hidden" : 0,
									"midpoints" : [ 255.5, 215.0, 35.5, 215.0 ]
								}

							}
, 							{
								"patchline" : 								{
									"source" : [ "obj-16", 0 ],
									"destination" : [ "obj-12", 0 ],
									"hidden" : 0,
									"midpoints" : [  ]
								}

							}
, 							{
								"patchline" : 								{
									"source" : [ "obj-19", 0 ],
									"destination" : [ "obj-22", 0 ],
									"hidden" : 0,
									"midpoints" : [ 310.5, 339.0, 35.0, 339.0 ]
								}

							}
, 							{
								"patchline" : 								{
									"source" : [ "obj-12", 0 ],
									"destination" : [ "obj-22", 0 ],
									"hidden" : 0,
									"midpoints" : [  ]
								}

							}
, 							{
								"patchline" : 								{
									"source" : [ "obj-11", 0 ],
									"destination" : [ "obj-22", 0 ],
									"hidden" : 0,
									"midpoints" : [ 90.5, 339.0, 35.0, 339.0 ]
								}

							}
, 							{
								"patchline" : 								{
									"source" : [ "obj-10", 0 ],
									"destination" : [ "obj-22", 0 ],
									"hidden" : 0,
									"midpoints" : [ 145.5, 339.0, 35.0, 339.0 ]
								}

							}
, 							{
								"patchline" : 								{
									"source" : [ "obj-9", 0 ],
									"destination" : [ "obj-22", 0 ],
									"hidden" : 0,
									"midpoints" : [ 200.5, 339.0, 35.0, 339.0 ]
								}

							}
, 							{
								"patchline" : 								{
									"source" : [ "obj-17", 1 ],
									"destination" : [ "obj-16", 1 ],
									"hidden" : 0,
									"midpoints" : [ 265.5, 220.0, 45.5, 220.0 ]
								}

							}
, 							{
								"patchline" : 								{
									"source" : [ "obj-20", 1 ],
									"destination" : [ "obj-15", 0 ],
									"hidden" : 0,
									"midpoints" : [  ]
								}

							}
, 							{
								"patchline" : 								{
									"source" : [ "obj-17", 0 ],
									"destination" : [ "obj-15", 0 ],
									"hidden" : 0,
									"midpoints" : [ 255.5, 215.0, 90.5, 215.0 ]
								}

							}
, 							{
								"patchline" : 								{
									"source" : [ "obj-15", 0 ],
									"destination" : [ "obj-11", 0 ],
									"hidden" : 0,
									"midpoints" : [  ]
								}

							}
, 							{
								"patchline" : 								{
									"source" : [ "obj-17", 1 ],
									"destination" : [ "obj-15", 1 ],
									"hidden" : 0,
									"midpoints" : [ 265.5, 220.0, 100.5, 220.0 ]
								}

							}
, 							{
								"patchline" : 								{
									"source" : [ "obj-20", 2 ],
									"destination" : [ "obj-14", 0 ],
									"hidden" : 0,
									"midpoints" : [  ]
								}

							}
, 							{
								"patchline" : 								{
									"source" : [ "obj-17", 0 ],
									"destination" : [ "obj-14", 0 ],
									"hidden" : 0,
									"midpoints" : [ 255.5, 215.0, 145.5, 215.0 ]
								}

							}
, 							{
								"patchline" : 								{
									"source" : [ "obj-14", 0 ],
									"destination" : [ "obj-10", 0 ],
									"hidden" : 0,
									"midpoints" : [  ]
								}

							}
, 							{
								"patchline" : 								{
									"source" : [ "obj-17", 1 ],
									"destination" : [ "obj-14", 1 ],
									"hidden" : 0,
									"midpoints" : [ 265.5, 220.0, 155.5, 220.0 ]
								}

							}
, 							{
								"patchline" : 								{
									"source" : [ "obj-20", 3 ],
									"destination" : [ "obj-13", 0 ],
									"hidden" : 0,
									"midpoints" : [  ]
								}

							}
, 							{
								"patchline" : 								{
									"source" : [ "obj-17", 0 ],
									"destination" : [ "obj-13", 0 ],
									"hidden" : 0,
									"midpoints" : [ 255.5, 215.0, 200.5, 215.0 ]
								}

							}
, 							{
								"patchline" : 								{
									"source" : [ "obj-13", 0 ],
									"destination" : [ "obj-9", 0 ],
									"hidden" : 0,
									"midpoints" : [  ]
								}

							}
, 							{
								"patchline" : 								{
									"source" : [ "obj-17", 1 ],
									"destination" : [ "obj-13", 1 ],
									"hidden" : 0,
									"midpoints" : [ 265.5, 220.0, 210.5, 220.0 ]
								}

							}
, 							{
								"patchline" : 								{
									"source" : [ "obj-20", 4 ],
									"destination" : [ "obj-18", 0 ],
									"hidden" : 0,
									"midpoints" : [  ]
								}

							}
, 							{
								"patchline" : 								{
									"source" : [ "obj-18", 0 ],
									"destination" : [ "obj-8", 0 ],
									"hidden" : 0,
									"midpoints" : [  ]
								}

							}
, 							{
								"patchline" : 								{
									"source" : [ "obj-3", 0 ],
									"destination" : [ "obj-8", 0 ],
									"hidden" : 0,
									"midpoints" : [ 430.5, 142.0, 255.5, 142.0 ]
								}

							}
, 							{
								"patchline" : 								{
									"source" : [ "obj-8", 0 ],
									"destination" : [ "obj-17", 0 ],
									"hidden" : 0,
									"midpoints" : [  ]
								}

							}
, 							{
								"patchline" : 								{
									"source" : [ "obj-20", 5 ],
									"destination" : [ "obj-19", 0 ],
									"hidden" : 0,
									"midpoints" : [  ]
								}

							}
, 							{
								"patchline" : 								{
									"source" : [ "obj-5", 0 ],
									"destination" : [ "obj-19", 0 ],
									"hidden" : 0,
									"midpoints" : [  ]
								}

							}
, 							{
								"patchline" : 								{
									"source" : [ "obj-20", 5 ],
									"destination" : [ "obj-4", 0 ],
									"hidden" : 0,
									"midpoints" : [ 306.333344, 100.0, 364.5, 100.0 ]
								}

							}
, 							{
								"patchline" : 								{
									"source" : [ "obj-4", 0 ],
									"destination" : [ "obj-2", 0 ],
									"hidden" : 0,
									"midpoints" : [  ]
								}

							}
, 							{
								"patchline" : 								{
									"source" : [ "obj-2", 0 ],
									"destination" : [ "obj-5", 0 ],
									"hidden" : 0,
									"midpoints" : [  ]
								}

							}
, 							{
								"patchline" : 								{
									"source" : [ "obj-3", 1 ],
									"destination" : [ "obj-5", 0 ],
									"hidden" : 0,
									"midpoints" : [ 456.5, 215.0, 364.5, 215.0 ]
								}

							}
, 							{
								"patchline" : 								{
									"source" : [ "obj-4", 1 ],
									"destination" : [ "obj-2", 1 ],
									"hidden" : 0,
									"midpoints" : [  ]
								}

							}
, 							{
								"patchline" : 								{
									"source" : [ "obj-7", 0 ],
									"destination" : [ "obj-6", 0 ],
									"hidden" : 0,
									"midpoints" : [  ]
								}

							}
, 							{
								"patchline" : 								{
									"source" : [ "obj-6", 0 ],
									"destination" : [ "obj-3", 0 ],
									"hidden" : 0,
									"midpoints" : [  ]
								}

							}
 ]
					}
,
					"saved_object_attributes" : 					{
						"fontface" : 0,
						"fontsize" : 10.0,
						"default_fontface" : 0,
						"default_fontname" : "Arial",
						"fontname" : "Arial",
						"default_fontsize" : 10.0,
						"globalpatchername" : ""
					}

				}

			}
, 			{
				"box" : 				{
					"maxclass" : "inlet",
					"numoutlets" : 1,
					"outlettype" : [ "" ],
					"id" : "obj-4",
					"numinlets" : 0,
					"patching_rect" : [ 26.0, 30.0, 15.0, 15.0 ],
					"comment" : ""
				}

			}
, 			{
				"box" : 				{
					"maxclass" : "newobj",
					"text" : "p scripting",
					"numoutlets" : 1,
					"fontsize" : 9.0,
					"outlettype" : [ "" ],
					"id" : "obj-5",
					"fontname" : "Arial",
					"numinlets" : 1,
					"patching_rect" : [ 26.0, 85.0, 78.0, 17.0 ],
					"patcher" : 					{
						"fileversion" : 1,
						"rect" : [ 249.0, 61.0, 967.0, 520.0 ],
						"bglocked" : 0,
						"defrect" : [ 249.0, 61.0, 967.0, 520.0 ],
						"openrect" : [ 0.0, 0.0, 0.0, 0.0 ],
						"openinpresentation" : 0,
						"default_fontsize" : 10.0,
						"default_fontface" : 0,
						"default_fontname" : "Arial",
						"gridonopen" : 0,
						"gridsize" : [ 15.0, 15.0 ],
						"gridsnaponopen" : 0,
						"toolbarvisible" : 1,
						"boxanimatetime" : 200,
						"imprint" : 0,
						"metadata" : [  ],
						"boxes" : [ 							{
								"box" : 								{
									"maxclass" : "newobj",
									"text" : "jcom.oscroute /voices /order",
									"numoutlets" : 3,
									"fontsize" : 9.0,
									"outlettype" : [ "", "", "" ],
									"id" : "obj-1",
									"fontname" : "Arial",
									"numinlets" : 1,
									"patching_rect" : [ 166.0, 65.0, 146.0, 17.0 ]
								}

							}
, 							{
								"box" : 								{
									"maxclass" : "comment",
									"text" : "Changes can not take place while audio is running",
									"linecount" : 2,
									"numoutlets" : 0,
									"fontsize" : 9.0,
									"id" : "obj-2",
									"fontname" : "Arial",
									"numinlets" : 1,
									"patching_rect" : [ 198.0, 172.0, 134.0, 27.0 ]
								}

							}
, 							{
								"box" : 								{
									"maxclass" : "newobj",
									"text" : "unpack 0 0",
									"numoutlets" : 2,
									"fontsize" : 9.0,
									"outlettype" : [ "int", "int" ],
									"id" : "obj-3",
									"fontname" : "Arial",
									"numinlets" : 1,
									"patching_rect" : [ 147.0, 254.0, 58.0, 17.0 ]
								}

							}
, 							{
								"box" : 								{
									"maxclass" : "newobj",
									"text" : "if $i1 != $i3 || $i2 !=$i4 then $i1 $i2",
									"numoutlets" : 1,
									"fontsize" : 9.0,
									"outlettype" : [ "" ],
									"id" : "obj-4",
									"fontname" : "Arial",
									"numinlets" : 4,
									"patching_rect" : [ 147.0, 230.0, 175.0, 17.0 ]
								}

							}
, 							{
								"box" : 								{
									"maxclass" : "newobj",
									"text" : "change",
									"numoutlets" : 3,
									"fontsize" : 9.0,
									"outlettype" : [ "", "int", "int" ],
									"id" : "obj-5",
									"fontname" : "Arial",
									"numinlets" : 1,
									"patching_rect" : [ 166.0, 90.0, 40.0, 17.0 ]
								}

							}
, 							{
								"box" : 								{
									"maxclass" : "newobj",
									"text" : "t b i",
									"numoutlets" : 2,
									"fontsize" : 9.0,
									"outlettype" : [ "bang", "int" ],
									"id" : "obj-6",
									"fontname" : "Arial",
									"numinlets" : 1,
									"patching_rect" : [ 348.0, 115.0, 27.0, 17.0 ],
									"color" : [ 0.156863, 0.8, 0.54902, 1.0 ]
								}

							}
, 							{
								"box" : 								{
									"maxclass" : "newobj",
									"text" : "p connect_from_decode",
									"numoutlets" : 1,
									"fontsize" : 9.0,
									"outlettype" : [ "" ],
									"id" : "obj-7",
									"fontname" : "Arial",
									"numinlets" : 1,
									"patching_rect" : [ 147.0, 350.0, 116.0, 17.0 ],
									"patcher" : 									{
										"fileversion" : 1,
										"rect" : [ 603.0, 217.0, 600.0, 463.0 ],
										"bglocked" : 0,
										"defrect" : [ 603.0, 217.0, 600.0, 463.0 ],
										"openrect" : [ 0.0, 0.0, 0.0, 0.0 ],
										"openinpresentation" : 0,
										"default_fontsize" : 10.0,
										"default_fontface" : 0,
										"default_fontname" : "Arial",
										"gridonopen" : 0,
										"gridsize" : [ 15.0, 15.0 ],
										"gridsnaponopen" : 0,
										"toolbarvisible" : 1,
										"boxanimatetime" : 200,
										"imprint" : 0,
										"metadata" : [  ],
										"boxes" : [ 											{
												"box" : 												{
													"maxclass" : "newobj",
													"text" : "prepend script connect decode",
													"numoutlets" : 1,
													"fontsize" : 10.0,
													"outlettype" : [ "" ],
													"id" : "obj-16",
													"fontname" : "Arial",
													"numinlets" : 1,
													"patching_rect" : [ 307.0, 127.0, 147.0, 18.0 ]
												}

											}
, 											{
												"box" : 												{
													"maxclass" : "newobj",
													"text" : "append",
													"numoutlets" : 1,
													"fontsize" : 10.0,
													"outlettype" : [ "" ],
													"id" : "obj-15",
													"fontname" : "Arial",
													"numinlets" : 1,
													"patching_rect" : [ 307.0, 213.0, 44.0, 18.0 ]
												}

											}
, 											{
												"box" : 												{
													"maxclass" : "newobj",
													"text" : "prepend set",
													"numoutlets" : 1,
													"fontsize" : 10.0,
													"outlettype" : [ "" ],
													"id" : "obj-13",
													"fontname" : "Arial",
													"numinlets" : 1,
													"patching_rect" : [ 457.0, 169.0, 63.0, 18.0 ]
												}

											}
, 											{
												"box" : 												{
													"maxclass" : "newobj",
													"text" : "append 0",
													"numoutlets" : 1,
													"fontsize" : 10.0,
													"outlettype" : [ "" ],
													"id" : "obj-12",
													"fontname" : "Arial",
													"numinlets" : 1,
													"patching_rect" : [ 457.0, 148.0, 52.0, 18.0 ]
												}

											}
, 											{
												"box" : 												{
													"maxclass" : "newobj",
													"text" : "combine pass[ 2 ] @triggers 1",
													"numoutlets" : 2,
													"fontsize" : 10.0,
													"outlettype" : [ "", "" ],
													"id" : "obj-11",
													"fontname" : "Arial",
													"numinlets" : 3,
													"patching_rect" : [ 457.0, 127.0, 143.0, 18.0 ]
												}

											}
, 											{
												"box" : 												{
													"maxclass" : "newobj",
													"text" : "combine pass[ 2 ] @triggers 1",
													"numoutlets" : 2,
													"fontsize" : 10.0,
													"outlettype" : [ "", "" ],
													"id" : "obj-14",
													"fontname" : "Arial",
													"numinlets" : 3,
													"patching_rect" : [ 8.0, 123.0, 143.0, 18.0 ]
												}

											}
, 											{
												"box" : 												{
													"maxclass" : "newobj",
													"text" : "append",
													"numoutlets" : 1,
													"fontsize" : 10.0,
													"outlettype" : [ "" ],
													"id" : "obj-10",
													"fontname" : "Arial",
													"numinlets" : 1,
													"patching_rect" : [ 36.0, 172.0, 44.0, 18.0 ]
												}

											}
, 											{
												"box" : 												{
													"maxclass" : "newobj",
													"text" : "prepend script connect",
													"numoutlets" : 1,
													"fontsize" : 10.0,
													"outlettype" : [ "" ],
													"id" : "obj-9",
													"fontname" : "Arial",
													"numinlets" : 1,
													"patching_rect" : [ 36.0, 147.0, 112.0, 18.0 ]
												}

											}
, 											{
												"box" : 												{
													"maxclass" : "newobj",
													"text" : "prepend set",
													"numoutlets" : 1,
													"fontsize" : 10.0,
													"outlettype" : [ "" ],
													"id" : "obj-8",
													"fontname" : "Arial",
													"numinlets" : 1,
													"patching_rect" : [ 154.0, 143.0, 63.0, 18.0 ]
												}

											}
, 											{
												"box" : 												{
													"maxclass" : "newobj",
													"text" : "prepend 0 multiin",
													"numoutlets" : 1,
													"fontsize" : 10.0,
													"outlettype" : [ "" ],
													"id" : "obj-7",
													"fontname" : "Arial",
													"numinlets" : 1,
													"patching_rect" : [ 154.0, 122.0, 87.0, 18.0 ]
												}

											}
, 											{
												"box" : 												{
													"maxclass" : "newobj",
													"text" : "sprintf script connect decode %ld pass[%ld] 0",
													"numoutlets" : 1,
													"fontsize" : 9.0,
													"outlettype" : [ "" ],
													"id" : "obj-1",
													"fontname" : "Arial",
													"numinlets" : 2,
													"patching_rect" : [ 353.0, 215.0, 218.0, 17.0 ]
												}

											}
, 											{
												"box" : 												{
													"maxclass" : "newobj",
													"text" : "- 1",
													"numoutlets" : 1,
													"fontsize" : 9.0,
													"outlettype" : [ "int" ],
													"id" : "obj-2",
													"fontname" : "Arial",
													"numinlets" : 2,
													"patching_rect" : [ 289.0, 99.0, 27.0, 17.0 ]
												}

											}
, 											{
												"box" : 												{
													"maxclass" : "newobj",
													"text" : "sprintf script connect pass[%ld] 0 multiin %ld",
													"numoutlets" : 1,
													"fontsize" : 9.0,
													"outlettype" : [ "" ],
													"id" : "obj-3",
													"fontname" : "Arial",
													"numinlets" : 2,
													"patching_rect" : [ 81.0, 178.0, 191.0, 17.0 ]
												}

											}
, 											{
												"box" : 												{
													"maxclass" : "newobj",
													"text" : "uzi",
													"numoutlets" : 3,
													"fontsize" : 9.0,
													"outlettype" : [ "bang", "bang", "int" ],
													"id" : "obj-4",
													"fontname" : "Arial",
													"numinlets" : 2,
													"patching_rect" : [ 50.0, 63.0, 40.0, 17.0 ]
												}

											}
, 											{
												"box" : 												{
													"maxclass" : "inlet",
													"numoutlets" : 1,
													"outlettype" : [ "int" ],
													"id" : "obj-5",
													"numinlets" : 0,
													"patching_rect" : [ 50.0, 30.0, 15.0, 15.0 ],
													"comment" : ""
												}

											}
, 											{
												"box" : 												{
													"maxclass" : "outlet",
													"numoutlets" : 0,
													"id" : "obj-6",
													"numinlets" : 1,
													"patching_rect" : [ 133.0, 242.0, 15.0, 15.0 ],
													"comment" : ""
												}

											}
 ],
										"lines" : [ 											{
												"patchline" : 												{
													"source" : [ "obj-5", 0 ],
													"destination" : [ "obj-4", 0 ],
													"hidden" : 0,
													"midpoints" : [  ]
												}

											}
, 											{
												"patchline" : 												{
													"source" : [ "obj-4", 2 ],
													"destination" : [ "obj-2", 0 ],
													"hidden" : 0,
													"midpoints" : [ 80.5, 90.0, 298.5, 90.0 ]
												}

											}
, 											{
												"patchline" : 												{
													"source" : [ "obj-2", 0 ],
													"destination" : [ "obj-7", 0 ],
													"hidden" : 0,
													"midpoints" : [ 298.5, 117.0, 163.5, 117.0 ]
												}

											}
, 											{
												"patchline" : 												{
													"source" : [ "obj-7", 0 ],
													"destination" : [ "obj-8", 0 ],
													"hidden" : 0,
													"midpoints" : [  ]
												}

											}
, 											{
												"patchline" : 												{
													"source" : [ "obj-9", 0 ],
													"destination" : [ "obj-10", 0 ],
													"hidden" : 0,
													"midpoints" : [  ]
												}

											}
, 											{
												"patchline" : 												{
													"source" : [ "obj-8", 0 ],
													"destination" : [ "obj-10", 0 ],
													"hidden" : 0,
													"midpoints" : [ 163.5, 175.0, 81.0, 175.0, 81.0, 169.0, 45.5, 169.0 ]
												}

											}
, 											{
												"patchline" : 												{
													"source" : [ "obj-10", 0 ],
													"destination" : [ "obj-6", 0 ],
													"hidden" : 0,
													"midpoints" : [  ]
												}

											}
, 											{
												"patchline" : 												{
													"source" : [ "obj-14", 0 ],
													"destination" : [ "obj-9", 0 ],
													"hidden" : 0,
													"midpoints" : [  ]
												}

											}
, 											{
												"patchline" : 												{
													"source" : [ "obj-4", 2 ],
													"destination" : [ "obj-14", 1 ],
													"hidden" : 0,
													"midpoints" : [  ]
												}

											}
, 											{
												"patchline" : 												{
													"source" : [ "obj-4", 2 ],
													"destination" : [ "obj-11", 1 ],
													"hidden" : 0,
													"midpoints" : [ 80.5, 81.0, 528.5, 81.0 ]
												}

											}
, 											{
												"patchline" : 												{
													"source" : [ "obj-11", 0 ],
													"destination" : [ "obj-12", 0 ],
													"hidden" : 0,
													"midpoints" : [  ]
												}

											}
, 											{
												"patchline" : 												{
													"source" : [ "obj-12", 0 ],
													"destination" : [ "obj-13", 0 ],
													"hidden" : 0,
													"midpoints" : [  ]
												}

											}
, 											{
												"patchline" : 												{
													"source" : [ "obj-13", 0 ],
													"destination" : [ "obj-15", 0 ],
													"hidden" : 0,
													"midpoints" : [  ]
												}

											}
, 											{
												"patchline" : 												{
													"source" : [ "obj-2", 0 ],
													"destination" : [ "obj-16", 0 ],
													"hidden" : 0,
													"midpoints" : [  ]
												}

											}
, 											{
												"patchline" : 												{
													"source" : [ "obj-16", 0 ],
													"destination" : [ "obj-15", 0 ],
													"hidden" : 0,
													"midpoints" : [  ]
												}

											}
, 											{
												"patchline" : 												{
													"source" : [ "obj-15", 0 ],
													"destination" : [ "obj-6", 0 ],
													"hidden" : 0,
													"midpoints" : [  ]
												}

											}
 ]
									}
,
									"saved_object_attributes" : 									{
										"fontface" : 0,
										"fontsize" : 10.0,
										"default_fontface" : 0,
										"default_fontname" : "Arial",
										"fontname" : "Arial",
										"default_fontsize" : 10.0,
										"globalpatchername" : ""
									}

								}

							}
, 							{
								"box" : 								{
									"maxclass" : "newobj",
									"text" : "p connect_to_decode",
									"numoutlets" : 1,
									"fontsize" : 9.0,
									"outlettype" : [ "" ],
									"id" : "obj-8",
									"fontname" : "Arial",
									"numinlets" : 2,
									"patching_rect" : [ 271.0, 350.0, 103.0, 17.0 ],
									"patcher" : 									{
										"fileversion" : 1,
										"rect" : [ 44.0, 74.0, 600.0, 426.0 ],
										"bglocked" : 0,
										"defrect" : [ 44.0, 74.0, 600.0, 426.0 ],
										"openrect" : [ 0.0, 0.0, 0.0, 0.0 ],
										"openinpresentation" : 0,
										"default_fontsize" : 10.0,
										"default_fontface" : 0,
										"default_fontname" : "Arial",
										"gridonopen" : 0,
										"gridsize" : [ 15.0, 15.0 ],
										"gridsnaponopen" : 0,
										"toolbarvisible" : 1,
										"boxanimatetime" : 200,
										"imprint" : 0,
										"metadata" : [  ],
										"boxes" : [ 											{
												"box" : 												{
													"maxclass" : "newobj",
													"text" : "append",
													"numoutlets" : 1,
													"fontsize" : 10.0,
													"outlettype" : [ "" ],
													"id" : "obj-13",
													"fontname" : "Arial",
													"numinlets" : 1,
													"patching_rect" : [ 247.0, 274.0, 44.0, 18.0 ]
												}

											}
, 											{
												"box" : 												{
													"maxclass" : "newobj",
													"text" : "prepend set",
													"numoutlets" : 1,
													"fontsize" : 10.0,
													"outlettype" : [ "" ],
													"id" : "obj-12",
													"fontname" : "Arial",
													"numinlets" : 1,
													"patching_rect" : [ 400.0, 226.0, 63.0, 18.0 ]
												}

											}
, 											{
												"box" : 												{
													"maxclass" : "newobj",
													"text" : "prepend decode",
													"numoutlets" : 1,
													"fontsize" : 10.0,
													"outlettype" : [ "" ],
													"id" : "obj-11",
													"fontname" : "Arial",
													"numinlets" : 1,
													"patching_rect" : [ 400.0, 200.0, 83.0, 18.0 ]
												}

											}
, 											{
												"box" : 												{
													"maxclass" : "newobj",
													"text" : "prepend script connect multiout",
													"numoutlets" : 1,
													"fontsize" : 10.0,
													"outlettype" : [ "" ],
													"id" : "obj-10",
													"fontname" : "Arial",
													"numinlets" : 1,
													"patching_rect" : [ 248.0, 213.0, 149.0, 18.0 ]
												}

											}
, 											{
												"box" : 												{
													"maxclass" : "newobj",
													"text" : "coll",
													"numoutlets" : 4,
													"fontsize" : 9.0,
													"outlettype" : [ "", "", "", "" ],
													"id" : "obj-1",
													"fontname" : "Arial",
													"numinlets" : 1,
													"patching_rect" : [ 353.0, 57.0, 53.0, 17.0 ],
													"save" : [ "#N", "coll", ";", "#T", "flags", 1, 0, ";", "#T", 1, 4, ";", "#T", 2, 9, ";", "#T", 3, 16, ";" ],
													"saved_object_attributes" : 													{
														"embed" : 1
													}

												}

											}
, 											{
												"box" : 												{
													"maxclass" : "inlet",
													"numoutlets" : 1,
													"outlettype" : [ "int" ],
													"id" : "obj-2",
													"numinlets" : 0,
													"patching_rect" : [ 353.0, 31.0, 15.0, 15.0 ],
													"comment" : ""
												}

											}
, 											{
												"box" : 												{
													"maxclass" : "newobj",
													"text" : "i 4",
													"numoutlets" : 1,
													"fontsize" : 9.0,
													"outlettype" : [ "int" ],
													"id" : "obj-3",
													"fontname" : "Arial",
													"numinlets" : 2,
													"patching_rect" : [ 50.0, 115.0, 27.0, 17.0 ]
												}

											}
, 											{
												"box" : 												{
													"maxclass" : "message",
													"text" : "script connect messages 0 decode 0",
													"numoutlets" : 1,
													"fontsize" : 9.0,
													"outlettype" : [ "" ],
													"id" : "obj-4",
													"fontname" : "Arial",
													"numinlets" : 2,
													"patching_rect" : [ 61.0, 201.0, 171.0, 15.0 ]
												}

											}
, 											{
												"box" : 												{
													"maxclass" : "newobj",
													"text" : "- 1",
													"numoutlets" : 1,
													"fontsize" : 9.0,
													"outlettype" : [ "int" ],
													"id" : "obj-5",
													"fontname" : "Arial",
													"numinlets" : 2,
													"patching_rect" : [ 248.0, 173.0, 27.0, 17.0 ]
												}

											}
, 											{
												"box" : 												{
													"maxclass" : "newobj",
													"text" : "sprintf script connect multiout %ld decode %ld",
													"numoutlets" : 1,
													"fontsize" : 9.0,
													"outlettype" : [ "" ],
													"id" : "obj-6",
													"fontname" : "Arial",
													"numinlets" : 2,
													"patching_rect" : [ 300.0, 275.0, 202.0, 17.0 ]
												}

											}
, 											{
												"box" : 												{
													"maxclass" : "newobj",
													"text" : "uzi 4",
													"numoutlets" : 3,
													"fontsize" : 9.0,
													"outlettype" : [ "bang", "bang", "int" ],
													"id" : "obj-7",
													"fontname" : "Arial",
													"numinlets" : 2,
													"patching_rect" : [ 50.0, 141.0, 40.0, 17.0 ]
												}

											}
, 											{
												"box" : 												{
													"maxclass" : "inlet",
													"numoutlets" : 1,
													"outlettype" : [ "bang" ],
													"id" : "obj-8",
													"numinlets" : 0,
													"patching_rect" : [ 50.0, 30.0, 15.0, 15.0 ],
													"comment" : ""
												}

											}
, 											{
												"box" : 												{
													"maxclass" : "outlet",
													"numoutlets" : 0,
													"id" : "obj-9",
													"numinlets" : 1,
													"patching_rect" : [ 61.0, 357.0, 15.0, 15.0 ],
													"comment" : ""
												}

											}
 ],
										"lines" : [ 											{
												"patchline" : 												{
													"source" : [ "obj-8", 0 ],
													"destination" : [ "obj-3", 0 ],
													"hidden" : 0,
													"midpoints" : [  ]
												}

											}
, 											{
												"patchline" : 												{
													"source" : [ "obj-3", 0 ],
													"destination" : [ "obj-7", 0 ],
													"hidden" : 0,
													"midpoints" : [  ]
												}

											}
, 											{
												"patchline" : 												{
													"source" : [ "obj-7", 1 ],
													"destination" : [ "obj-4", 0 ],
													"hidden" : 0,
													"midpoints" : [  ]
												}

											}
, 											{
												"patchline" : 												{
													"source" : [ "obj-4", 0 ],
													"destination" : [ "obj-9", 0 ],
													"hidden" : 0,
													"midpoints" : [  ]
												}

											}
, 											{
												"patchline" : 												{
													"source" : [ "obj-1", 0 ],
													"destination" : [ "obj-3", 1 ],
													"hidden" : 0,
													"midpoints" : [  ]
												}

											}
, 											{
												"patchline" : 												{
													"source" : [ "obj-7", 2 ],
													"destination" : [ "obj-5", 0 ],
													"hidden" : 0,
													"midpoints" : [ 80.5, 165.0, 257.5, 165.0 ]
												}

											}
, 											{
												"patchline" : 												{
													"source" : [ "obj-2", 0 ],
													"destination" : [ "obj-1", 0 ],
													"hidden" : 0,
													"midpoints" : [  ]
												}

											}
, 											{
												"patchline" : 												{
													"source" : [ "obj-5", 0 ],
													"destination" : [ "obj-10", 0 ],
													"hidden" : 0,
													"midpoints" : [  ]
												}

											}
, 											{
												"patchline" : 												{
													"source" : [ "obj-5", 0 ],
													"destination" : [ "obj-11", 0 ],
													"hidden" : 0,
													"midpoints" : [  ]
												}

											}
, 											{
												"patchline" : 												{
													"source" : [ "obj-11", 0 ],
													"destination" : [ "obj-12", 0 ],
													"hidden" : 0,
													"midpoints" : [  ]
												}

											}
, 											{
												"patchline" : 												{
													"source" : [ "obj-12", 0 ],
													"destination" : [ "obj-13", 0 ],
													"hidden" : 0,
													"midpoints" : [  ]
												}

											}
, 											{
												"patchline" : 												{
													"source" : [ "obj-10", 0 ],
													"destination" : [ "obj-13", 0 ],
													"hidden" : 0,
													"midpoints" : [  ]
												}

											}
, 											{
												"patchline" : 												{
													"source" : [ "obj-13", 0 ],
													"destination" : [ "obj-9", 0 ],
													"hidden" : 0,
													"midpoints" : [  ]
												}

											}
 ]
									}
,
									"saved_object_attributes" : 									{
										"fontface" : 0,
										"fontsize" : 10.0,
										"default_fontface" : 0,
										"default_fontname" : "Arial",
										"fontname" : "Arial",
										"default_fontsize" : 10.0,
										"globalpatchername" : ""
									}

								}

							}
, 							{
								"box" : 								{
									"maxclass" : "newobj",
									"text" : "p new_decode",
									"numoutlets" : 1,
									"fontsize" : 9.0,
									"outlettype" : [ "" ],
									"id" : "obj-9",
									"fontname" : "Arial",
									"numinlets" : 2,
									"patching_rect" : [ 381.0, 350.0, 72.0, 17.0 ],
									"patcher" : 									{
										"fileversion" : 1,
										"rect" : [ 44.0, 74.0, 600.0, 426.0 ],
										"bglocked" : 0,
										"defrect" : [ 44.0, 74.0, 600.0, 426.0 ],
										"openrect" : [ 0.0, 0.0, 0.0, 0.0 ],
										"openinpresentation" : 0,
										"default_fontsize" : 10.0,
										"default_fontface" : 0,
										"default_fontname" : "Arial",
										"gridonopen" : 0,
										"gridsize" : [ 15.0, 15.0 ],
										"gridsnaponopen" : 0,
										"toolbarvisible" : 1,
										"boxanimatetime" : 200,
										"imprint" : 0,
										"metadata" : [  ],
										"boxes" : [ 											{
												"box" : 												{
													"maxclass" : "newobj",
													"text" : "append",
													"numoutlets" : 1,
													"fontsize" : 10.0,
													"outlettype" : [ "" ],
													"id" : "obj-9",
													"fontname" : "Arial",
													"numinlets" : 1,
													"patching_rect" : [ 50.0, 164.0, 44.0, 18.0 ]
												}

											}
, 											{
												"box" : 												{
													"maxclass" : "newobj",
													"text" : "prepend set",
													"numoutlets" : 1,
													"fontsize" : 10.0,
													"outlettype" : [ "" ],
													"id" : "obj-8",
													"fontname" : "Arial",
													"numinlets" : 1,
													"patching_rect" : [ 371.0, 125.0, 63.0, 18.0 ]
												}

											}
, 											{
												"box" : 												{
													"maxclass" : "newobj",
													"text" : "prepend script new decode newex 252 153 209 196617 ambidecode~",
													"numoutlets" : 1,
													"fontsize" : 10.0,
													"outlettype" : [ "" ],
													"id" : "obj-7",
													"fontname" : "Arial",
													"numinlets" : 1,
													"patching_rect" : [ 50.0, 125.0, 320.0, 18.0 ]
												}

											}
, 											{
												"box" : 												{
													"maxclass" : "inlet",
													"numoutlets" : 1,
													"outlettype" : [ "int" ],
													"id" : "obj-1",
													"numinlets" : 0,
													"patching_rect" : [ 202.0, 30.0, 15.0, 15.0 ],
													"comment" : ""
												}

											}
, 											{
												"box" : 												{
													"maxclass" : "newobj",
													"text" : "i 1",
													"numoutlets" : 1,
													"fontsize" : 9.0,
													"outlettype" : [ "int" ],
													"id" : "obj-2",
													"fontname" : "Arial",
													"numinlets" : 2,
													"patching_rect" : [ 50.0, 100.0, 27.0, 17.0 ]
												}

											}
, 											{
												"box" : 												{
													"maxclass" : "newobj",
													"text" : "t b i",
													"numoutlets" : 2,
													"fontsize" : 9.0,
													"outlettype" : [ "bang", "int" ],
													"id" : "obj-3",
													"fontname" : "Arial",
													"numinlets" : 1,
													"patching_rect" : [ 50.0, 60.0, 27.0, 17.0 ]
												}

											}
, 											{
												"box" : 												{
													"maxclass" : "newobj",
													"text" : "sprintf script new decode newex 252 153 209 196617 ambidecode~ %ld %ld;\r",
													"numoutlets" : 1,
													"fontsize" : 9.0,
													"outlettype" : [ "" ],
													"id" : "obj-4",
													"fontname" : "Arial",
													"numinlets" : 2,
													"patching_rect" : [ 105.0, 169.0, 363.0, 17.0 ]
												}

											}
, 											{
												"box" : 												{
													"maxclass" : "inlet",
													"numoutlets" : 1,
													"outlettype" : [ "int" ],
													"id" : "obj-5",
													"numinlets" : 0,
													"patching_rect" : [ 50.0, 30.0, 15.0, 15.0 ],
													"comment" : ""
												}

											}
, 											{
												"box" : 												{
													"maxclass" : "outlet",
													"numoutlets" : 0,
													"id" : "obj-6",
													"numinlets" : 1,
													"patching_rect" : [ 50.0, 190.0, 22.0, 22.0 ],
													"comment" : ""
												}

											}
 ],
										"lines" : [ 											{
												"patchline" : 												{
													"source" : [ "obj-5", 0 ],
													"destination" : [ "obj-3", 0 ],
													"hidden" : 0,
													"midpoints" : [  ]
												}

											}
, 											{
												"patchline" : 												{
													"source" : [ "obj-3", 0 ],
													"destination" : [ "obj-2", 0 ],
													"hidden" : 0,
													"midpoints" : [  ]
												}

											}
, 											{
												"patchline" : 												{
													"source" : [ "obj-1", 0 ],
													"destination" : [ "obj-2", 1 ],
													"hidden" : 0,
													"midpoints" : [  ]
												}

											}
, 											{
												"patchline" : 												{
													"source" : [ "obj-8", 0 ],
													"destination" : [ "obj-9", 0 ],
													"hidden" : 0,
													"midpoints" : [ 380.5, 160.0, 59.5, 160.0 ]
												}

											}
, 											{
												"patchline" : 												{
													"source" : [ "obj-3", 1 ],
													"destination" : [ "obj-8", 0 ],
													"hidden" : 0,
													"midpoints" : [ 67.5, 82.0, 380.5, 82.0 ]
												}

											}
, 											{
												"patchline" : 												{
													"source" : [ "obj-7", 0 ],
													"destination" : [ "obj-9", 0 ],
													"hidden" : 0,
													"midpoints" : [  ]
												}

											}
, 											{
												"patchline" : 												{
													"source" : [ "obj-2", 0 ],
													"destination" : [ "obj-7", 0 ],
													"hidden" : 0,
													"midpoints" : [  ]
												}

											}
, 											{
												"patchline" : 												{
													"source" : [ "obj-9", 0 ],
													"destination" : [ "obj-6", 0 ],
													"hidden" : 0,
													"midpoints" : [  ]
												}

											}
 ]
									}
,
									"saved_object_attributes" : 									{
										"fontface" : 0,
										"fontsize" : 10.0,
										"default_fontface" : 0,
										"default_fontname" : "Arial",
										"fontname" : "Arial",
										"default_fontsize" : 10.0,
										"globalpatchername" : ""
									}

								}

							}
, 							{
								"box" : 								{
									"maxclass" : "newobj",
									"text" : "p delete_decode",
									"numoutlets" : 1,
									"fontsize" : 9.0,
									"outlettype" : [ "" ],
									"id" : "obj-10",
									"fontname" : "Arial",
									"numinlets" : 1,
									"patching_rect" : [ 479.0, 350.0, 81.0, 17.0 ],
									"patcher" : 									{
										"fileversion" : 1,
										"rect" : [ 44.0, 74.0, 600.0, 426.0 ],
										"bglocked" : 0,
										"defrect" : [ 44.0, 74.0, 600.0, 426.0 ],
										"openrect" : [ 0.0, 0.0, 0.0, 0.0 ],
										"openinpresentation" : 0,
										"default_fontsize" : 10.0,
										"default_fontface" : 0,
										"default_fontname" : "Arial",
										"gridonopen" : 0,
										"gridsize" : [ 15.0, 15.0 ],
										"gridsnaponopen" : 0,
										"toolbarvisible" : 1,
										"boxanimatetime" : 200,
										"imprint" : 0,
										"metadata" : [  ],
										"boxes" : [ 											{
												"box" : 												{
													"maxclass" : "message",
													"text" : "script delete decode",
													"numoutlets" : 1,
													"fontsize" : 9.0,
													"outlettype" : [ "" ],
													"id" : "obj-1",
													"fontname" : "Arial",
													"numinlets" : 2,
													"patching_rect" : [ 50.0, 50.0, 100.0, 15.0 ]
												}

											}
, 											{
												"box" : 												{
													"maxclass" : "inlet",
													"numoutlets" : 1,
													"outlettype" : [ "bang" ],
													"id" : "obj-2",
													"numinlets" : 0,
													"patching_rect" : [ 50.0, 30.0, 15.0, 15.0 ],
													"comment" : ""
												}

											}
, 											{
												"box" : 												{
													"maxclass" : "outlet",
													"numoutlets" : 0,
													"id" : "obj-3",
													"numinlets" : 1,
													"patching_rect" : [ 50.0, 70.0, 15.0, 15.0 ],
													"comment" : ""
												}

											}
 ],
										"lines" : [ 											{
												"patchline" : 												{
													"source" : [ "obj-2", 0 ],
													"destination" : [ "obj-1", 0 ],
													"hidden" : 0,
													"midpoints" : [  ]
												}

											}
, 											{
												"patchline" : 												{
													"source" : [ "obj-1", 0 ],
													"destination" : [ "obj-3", 0 ],
													"hidden" : 0,
													"midpoints" : [  ]
												}

											}
 ]
									}
,
									"saved_object_attributes" : 									{
										"fontface" : 0,
										"fontsize" : 10.0,
										"default_fontface" : 0,
										"default_fontname" : "Arial",
										"fontname" : "Arial",
										"default_fontsize" : 10.0,
										"globalpatchername" : ""
									}

								}

							}
, 							{
								"box" : 								{
									"maxclass" : "newobj",
									"text" : "p delete_pass",
									"numoutlets" : 1,
									"fontsize" : 9.0,
									"outlettype" : [ "" ],
									"id" : "obj-11",
									"fontname" : "Arial",
									"numinlets" : 1,
									"patching_rect" : [ 667.0, 350.0, 71.0, 17.0 ],
									"patcher" : 									{
										"fileversion" : 1,
										"rect" : [ 44.0, 74.0, 600.0, 426.0 ],
										"bglocked" : 0,
										"defrect" : [ 44.0, 74.0, 600.0, 426.0 ],
										"openrect" : [ 0.0, 0.0, 0.0, 0.0 ],
										"openinpresentation" : 0,
										"default_fontsize" : 10.0,
										"default_fontface" : 0,
										"default_fontname" : "Arial",
										"gridonopen" : 0,
										"gridsize" : [ 15.0, 15.0 ],
										"gridsnaponopen" : 0,
										"toolbarvisible" : 1,
										"boxanimatetime" : 200,
										"imprint" : 0,
										"metadata" : [  ],
										"boxes" : [ 											{
												"box" : 												{
													"maxclass" : "newobj",
													"text" : "t i b",
													"numoutlets" : 2,
													"fontsize" : 9.0,
													"outlettype" : [ "int", "bang" ],
													"id" : "obj-1",
													"fontname" : "Arial",
													"numinlets" : 1,
													"patching_rect" : [ 50.0, 57.0, 27.0, 17.0 ]
												}

											}
, 											{
												"box" : 												{
													"maxclass" : "newobj",
													"text" : "sprintf script delete pass[%ld]",
													"numoutlets" : 1,
													"fontsize" : 9.0,
													"outlettype" : [ "" ],
													"id" : "obj-2",
													"fontname" : "Arial",
													"numinlets" : 1,
													"patching_rect" : [ 80.0, 152.0, 149.0, 17.0 ]
												}

											}
, 											{
												"box" : 												{
													"maxclass" : "newobj",
													"text" : "uzi",
													"numoutlets" : 3,
													"fontsize" : 9.0,
													"outlettype" : [ "bang", "bang", "int" ],
													"id" : "obj-3",
													"fontname" : "Arial",
													"numinlets" : 2,
													"patching_rect" : [ 50.0, 125.0, 40.0, 17.0 ]
												}

											}
, 											{
												"box" : 												{
													"maxclass" : "newobj",
													"text" : "i 16",
													"numoutlets" : 1,
													"fontsize" : 9.0,
													"outlettype" : [ "int" ],
													"id" : "obj-4",
													"fontname" : "Arial",
													"numinlets" : 2,
													"patching_rect" : [ 50.0, 90.0, 27.0, 17.0 ]
												}

											}
, 											{
												"box" : 												{
													"maxclass" : "inlet",
													"numoutlets" : 1,
													"outlettype" : [ "int" ],
													"id" : "obj-5",
													"numinlets" : 0,
													"patching_rect" : [ 50.0, 30.0, 15.0, 15.0 ],
													"comment" : ""
												}

											}
, 											{
												"box" : 												{
													"maxclass" : "outlet",
													"numoutlets" : 0,
													"id" : "obj-6",
													"numinlets" : 1,
													"patching_rect" : [ 80.0, 174.0, 15.0, 15.0 ],
													"comment" : ""
												}

											}
 ],
										"lines" : [ 											{
												"patchline" : 												{
													"source" : [ "obj-5", 0 ],
													"destination" : [ "obj-1", 0 ],
													"hidden" : 0,
													"midpoints" : [  ]
												}

											}
, 											{
												"patchline" : 												{
													"source" : [ "obj-1", 1 ],
													"destination" : [ "obj-4", 0 ],
													"hidden" : 0,
													"midpoints" : [  ]
												}

											}
, 											{
												"patchline" : 												{
													"source" : [ "obj-4", 0 ],
													"destination" : [ "obj-3", 0 ],
													"hidden" : 0,
													"midpoints" : [  ]
												}

											}
, 											{
												"patchline" : 												{
													"source" : [ "obj-1", 0 ],
													"destination" : [ "obj-4", 1 ],
													"hidden" : 0,
													"midpoints" : [  ]
												}

											}
, 											{
												"patchline" : 												{
													"source" : [ "obj-3", 2 ],
													"destination" : [ "obj-2", 0 ],
													"hidden" : 0,
													"midpoints" : [  ]
												}

											}
, 											{
												"patchline" : 												{
													"source" : [ "obj-2", 0 ],
													"destination" : [ "obj-6", 0 ],
													"hidden" : 0,
													"midpoints" : [  ]
												}

											}
 ]
									}
,
									"saved_object_attributes" : 									{
										"fontface" : 0,
										"fontsize" : 10.0,
										"default_fontface" : 0,
										"default_fontname" : "Arial",
										"fontname" : "Arial",
										"default_fontsize" : 10.0,
										"globalpatchername" : ""
									}

								}

							}
, 							{
								"box" : 								{
									"maxclass" : "newobj",
									"text" : "p new_pass",
									"numoutlets" : 1,
									"fontsize" : 9.0,
									"outlettype" : [ "" ],
									"id" : "obj-12",
									"fontname" : "Arial",
									"numinlets" : 1,
									"patching_rect" : [ 585.0, 350.0, 62.0, 17.0 ],
									"patcher" : 									{
										"fileversion" : 1,
										"rect" : [ 472.0, 238.0, 586.0, 354.0 ],
										"bglocked" : 0,
										"defrect" : [ 472.0, 238.0, 586.0, 354.0 ],
										"openrect" : [ 0.0, 0.0, 0.0, 0.0 ],
										"openinpresentation" : 0,
										"default_fontsize" : 10.0,
										"default_fontface" : 0,
										"default_fontname" : "Arial",
										"gridonopen" : 0,
										"gridsize" : [ 15.0, 15.0 ],
										"gridsnaponopen" : 0,
										"toolbarvisible" : 1,
										"boxanimatetime" : 200,
										"imprint" : 0,
										"metadata" : [  ],
										"boxes" : [ 											{
												"box" : 												{
													"maxclass" : "newobj",
													"text" : "combine pass[ 2 ] @triggers 1",
													"numoutlets" : 2,
													"fontsize" : 10.0,
													"outlettype" : [ "", "" ],
													"id" : "obj-14",
													"fontname" : "Arial",
													"numinlets" : 3,
													"patching_rect" : [ 9.0, 205.0, 143.0, 18.0 ]
												}

											}
, 											{
												"box" : 												{
													"maxclass" : "newobj",
													"text" : "prepend script new",
													"numoutlets" : 1,
													"fontsize" : 10.0,
													"outlettype" : [ "" ],
													"id" : "obj-13",
													"fontname" : "Arial",
													"numinlets" : 1,
													"patching_rect" : [ 10.0, 227.0, 95.0, 18.0 ]
												}

											}
, 											{
												"box" : 												{
													"maxclass" : "newobj",
													"text" : "append",
													"numoutlets" : 1,
													"fontsize" : 10.0,
													"outlettype" : [ "" ],
													"id" : "obj-12",
													"fontname" : "Arial",
													"numinlets" : 1,
													"patching_rect" : [ 10.0, 267.0, 44.0, 18.0 ]
												}

											}
, 											{
												"box" : 												{
													"maxclass" : "newobj",
													"text" : "prepend set",
													"numoutlets" : 1,
													"fontsize" : 10.0,
													"outlettype" : [ "" ],
													"id" : "obj-11",
													"fontname" : "Arial",
													"numinlets" : 1,
													"patching_rect" : [ 351.0, 228.0, 63.0, 18.0 ]
												}

											}
, 											{
												"box" : 												{
													"maxclass" : "newobj",
													"text" : "prepend newex",
													"numoutlets" : 1,
													"fontsize" : 10.0,
													"outlettype" : [ "" ],
													"id" : "obj-10",
													"fontname" : "Arial",
													"numinlets" : 1,
													"patching_rect" : [ 351.0, 205.0, 79.0, 18.0 ]
												}

											}
, 											{
												"box" : 												{
													"maxclass" : "newobj",
													"text" : "append 230 36 196617 pass~",
													"numoutlets" : 1,
													"fontsize" : 10.0,
													"outlettype" : [ "" ],
													"id" : "obj-9",
													"fontname" : "Arial",
													"numinlets" : 1,
													"patching_rect" : [ 351.0, 183.0, 143.0, 18.0 ]
												}

											}
, 											{
												"box" : 												{
													"maxclass" : "newobj",
													"text" : "+ 252",
													"numoutlets" : 1,
													"fontsize" : 10.0,
													"outlettype" : [ "int" ],
													"id" : "obj-8",
													"fontname" : "Arial",
													"numinlets" : 2,
													"patching_rect" : [ 351.0, 126.0, 36.0, 18.0 ]
												}

											}
, 											{
												"box" : 												{
													"maxclass" : "newobj",
													"text" : "* 38",
													"numoutlets" : 1,
													"fontsize" : 10.0,
													"outlettype" : [ "int" ],
													"id" : "obj-7",
													"fontname" : "Arial",
													"numinlets" : 2,
													"patching_rect" : [ 351.0, 104.0, 32.5, 18.0 ]
												}

											}
, 											{
												"box" : 												{
													"maxclass" : "newobj",
													"text" : "- 1",
													"numoutlets" : 1,
													"fontsize" : 10.0,
													"outlettype" : [ "int" ],
													"id" : "obj-6",
													"fontname" : "Arial",
													"numinlets" : 2,
													"patching_rect" : [ 351.0, 82.0, 32.5, 18.0 ]
												}

											}
, 											{
												"box" : 												{
													"maxclass" : "newobj",
													"text" : "uzi",
													"numoutlets" : 3,
													"fontsize" : 9.0,
													"outlettype" : [ "bang", "bang", "int" ],
													"id" : "obj-1",
													"fontname" : "Arial",
													"numinlets" : 2,
													"patching_rect" : [ 50.0, 51.0, 40.0, 17.0 ]
												}

											}
, 											{
												"box" : 												{
													"maxclass" : "newobj",
													"text" : "sprintf script new pass[%ld] newex %ld 230 36 196617 pass~",
													"numoutlets" : 1,
													"fontsize" : 9.0,
													"outlettype" : [ "" ],
													"id" : "obj-3",
													"fontname" : "Arial",
													"numinlets" : 2,
													"patching_rect" : [ 83.0, 265.0, 299.0, 17.0 ]
												}

											}
, 											{
												"box" : 												{
													"maxclass" : "inlet",
													"numoutlets" : 1,
													"outlettype" : [ "int" ],
													"id" : "obj-4",
													"numinlets" : 0,
													"patching_rect" : [ 50.0, 23.0, 15.0, 15.0 ],
													"comment" : ""
												}

											}
, 											{
												"box" : 												{
													"maxclass" : "outlet",
													"numoutlets" : 0,
													"id" : "obj-5",
													"numinlets" : 1,
													"patching_rect" : [ 10.0, 292.0, 25.0, 25.0 ],
													"comment" : ""
												}

											}
 ],
										"lines" : [ 											{
												"patchline" : 												{
													"source" : [ "obj-4", 0 ],
													"destination" : [ "obj-1", 0 ],
													"hidden" : 0,
													"midpoints" : [  ]
												}

											}
, 											{
												"patchline" : 												{
													"source" : [ "obj-6", 0 ],
													"destination" : [ "obj-7", 0 ],
													"hidden" : 0,
													"midpoints" : [  ]
												}

											}
, 											{
												"patchline" : 												{
													"source" : [ "obj-7", 0 ],
													"destination" : [ "obj-8", 0 ],
													"hidden" : 0,
													"midpoints" : [  ]
												}

											}
, 											{
												"patchline" : 												{
													"source" : [ "obj-1", 2 ],
													"destination" : [ "obj-6", 0 ],
													"hidden" : 0,
													"midpoints" : [ 80.5, 78.0, 360.5, 78.0 ]
												}

											}
, 											{
												"patchline" : 												{
													"source" : [ "obj-8", 0 ],
													"destination" : [ "obj-9", 0 ],
													"hidden" : 0,
													"midpoints" : [  ]
												}

											}
, 											{
												"patchline" : 												{
													"source" : [ "obj-9", 0 ],
													"destination" : [ "obj-10", 0 ],
													"hidden" : 0,
													"midpoints" : [  ]
												}

											}
, 											{
												"patchline" : 												{
													"source" : [ "obj-10", 0 ],
													"destination" : [ "obj-11", 0 ],
													"hidden" : 0,
													"midpoints" : [  ]
												}

											}
, 											{
												"patchline" : 												{
													"source" : [ "obj-11", 0 ],
													"destination" : [ "obj-12", 0 ],
													"hidden" : 0,
													"midpoints" : [ 360.5, 252.0, 19.5, 252.0 ]
												}

											}
, 											{
												"patchline" : 												{
													"source" : [ "obj-13", 0 ],
													"destination" : [ "obj-12", 0 ],
													"hidden" : 0,
													"midpoints" : [  ]
												}

											}
, 											{
												"patchline" : 												{
													"source" : [ "obj-12", 0 ],
													"destination" : [ "obj-5", 0 ],
													"hidden" : 0,
													"midpoints" : [  ]
												}

											}
, 											{
												"patchline" : 												{
													"source" : [ "obj-14", 0 ],
													"destination" : [ "obj-13", 0 ],
													"hidden" : 0,
													"midpoints" : [  ]
												}

											}
, 											{
												"patchline" : 												{
													"source" : [ "obj-1", 2 ],
													"destination" : [ "obj-14", 1 ],
													"hidden" : 0,
													"midpoints" : [  ]
												}

											}
 ]
									}
,
									"saved_object_attributes" : 									{
										"fontface" : 0,
										"fontsize" : 10.0,
										"default_fontface" : 0,
										"default_fontname" : "Arial",
										"fontname" : "Arial",
										"default_fontsize" : 10.0,
										"globalpatchername" : ""
									}

								}

							}
, 							{
								"box" : 								{
									"maxclass" : "newobj",
									"text" : "loadbang",
									"numoutlets" : 1,
									"fontsize" : 9.0,
									"outlettype" : [ "bang" ],
									"id" : "obj-13",
									"fontname" : "Arial",
									"numinlets" : 1,
									"patching_rect" : [ 30.0, 41.0, 48.0, 17.0 ]
								}

							}
, 							{
								"box" : 								{
									"maxclass" : "newobj",
									"text" : "== 0",
									"numoutlets" : 1,
									"fontsize" : 9.0,
									"outlettype" : [ "int" ],
									"id" : "obj-14",
									"fontname" : "Arial",
									"numinlets" : 2,
									"patching_rect" : [ 88.0, 102.0, 31.0, 17.0 ]
								}

							}
, 							{
								"box" : 								{
									"maxclass" : "outlet",
									"numoutlets" : 0,
									"id" : "obj-15",
									"numinlets" : 1,
									"patching_rect" : [ 147.0, 395.0, 15.0, 15.0 ],
									"comment" : ""
								}

							}
, 							{
								"box" : 								{
									"maxclass" : "newobj",
									"text" : "t i b i b i i",
									"numoutlets" : 6,
									"fontsize" : 9.0,
									"outlettype" : [ "int", "bang", "int", "bang", "int", "int" ],
									"id" : "obj-16",
									"fontname" : "Arial",
									"numinlets" : 1,
									"patching_rect" : [ 147.0, 316.0, 531.0, 17.0 ]
								}

							}
, 							{
								"box" : 								{
									"maxclass" : "inlet",
									"numoutlets" : 1,
									"outlettype" : [ "" ],
									"id" : "obj-17",
									"numinlets" : 0,
									"patching_rect" : [ 166.0, 44.0, 15.0, 15.0 ],
									"comment" : ""
								}

							}
, 							{
								"box" : 								{
									"maxclass" : "newobj",
									"text" : "i",
									"numoutlets" : 1,
									"fontsize" : 9.0,
									"outlettype" : [ "int" ],
									"id" : "obj-18",
									"fontname" : "Arial",
									"numinlets" : 2,
									"patching_rect" : [ 166.0, 166.0, 27.0, 17.0 ]
								}

							}
, 							{
								"box" : 								{
									"maxclass" : "newobj",
									"text" : "gate",
									"numoutlets" : 1,
									"fontsize" : 9.0,
									"outlettype" : [ "" ],
									"id" : "obj-19",
									"fontname" : "Arial",
									"numinlets" : 2,
									"patching_rect" : [ 147.0, 187.0, 29.0, 17.0 ]
								}

							}
, 							{
								"box" : 								{
									"maxclass" : "newobj",
									"text" : "sel 0",
									"numoutlets" : 2,
									"fontsize" : 9.0,
									"outlettype" : [ "bang", "" ],
									"id" : "obj-20",
									"fontname" : "Arial",
									"numinlets" : 2,
									"patching_rect" : [ 30.0, 102.0, 32.0, 17.0 ]
								}

							}
, 							{
								"box" : 								{
									"maxclass" : "newobj",
									"text" : "dspstate~",
									"numoutlets" : 4,
									"fontsize" : 9.0,
									"outlettype" : [ "int", "float", "int", "int" ],
									"id" : "obj-21",
									"fontname" : "Arial",
									"numinlets" : 1,
									"patching_rect" : [ 30.0, 69.0, 54.0, 17.0 ]
								}

							}
, 							{
								"box" : 								{
									"maxclass" : "comment",
									"text" : "voices",
									"numoutlets" : 0,
									"fontsize" : 9.0,
									"id" : "obj-22",
									"fontname" : "Arial",
									"numinlets" : 1,
									"patching_rect" : [ 188.0, 44.0, 100.0, 17.0 ]
								}

							}
, 							{
								"box" : 								{
									"maxclass" : "comment",
									"text" : "Only apply script if either voices and/or order is changed",
									"linecount" : 2,
									"numoutlets" : 0,
									"fontsize" : 9.0,
									"id" : "obj-23",
									"fontname" : "Arial",
									"numinlets" : 1,
									"patching_rect" : [ 371.0, 227.0, 151.0, 27.0 ]
								}

							}
 ],
						"lines" : [ 							{
								"patchline" : 								{
									"source" : [ "obj-13", 0 ],
									"destination" : [ "obj-21", 0 ],
									"hidden" : 0,
									"midpoints" : [  ]
								}

							}
, 							{
								"patchline" : 								{
									"source" : [ "obj-21", 0 ],
									"destination" : [ "obj-20", 0 ],
									"hidden" : 0,
									"midpoints" : [  ]
								}

							}
, 							{
								"patchline" : 								{
									"source" : [ "obj-21", 0 ],
									"destination" : [ "obj-14", 0 ],
									"hidden" : 0,
									"midpoints" : [ 39.5, 92.0, 97.5, 92.0 ]
								}

							}
, 							{
								"patchline" : 								{
									"source" : [ "obj-14", 0 ],
									"destination" : [ "obj-19", 0 ],
									"hidden" : 0,
									"midpoints" : [  ]
								}

							}
, 							{
								"patchline" : 								{
									"source" : [ "obj-19", 0 ],
									"destination" : [ "obj-4", 0 ],
									"hidden" : 0,
									"midpoints" : [  ]
								}

							}
, 							{
								"patchline" : 								{
									"source" : [ "obj-4", 0 ],
									"destination" : [ "obj-3", 0 ],
									"hidden" : 0,
									"midpoints" : [  ]
								}

							}
, 							{
								"patchline" : 								{
									"source" : [ "obj-3", 0 ],
									"destination" : [ "obj-16", 0 ],
									"hidden" : 0,
									"midpoints" : [  ]
								}

							}
, 							{
								"patchline" : 								{
									"source" : [ "obj-16", 0 ],
									"destination" : [ "obj-7", 0 ],
									"hidden" : 0,
									"midpoints" : [  ]
								}

							}
, 							{
								"patchline" : 								{
									"source" : [ "obj-12", 0 ],
									"destination" : [ "obj-15", 0 ],
									"hidden" : 0,
									"midpoints" : [ 594.5, 381.0, 156.0, 381.0 ]
								}

							}
, 							{
								"patchline" : 								{
									"source" : [ "obj-11", 0 ],
									"destination" : [ "obj-15", 0 ],
									"hidden" : 0,
									"midpoints" : [ 676.5, 381.0, 156.0, 381.0 ]
								}

							}
, 							{
								"patchline" : 								{
									"source" : [ "obj-10", 0 ],
									"destination" : [ "obj-15", 0 ],
									"hidden" : 0,
									"midpoints" : [ 488.5, 381.0, 156.0, 381.0 ]
								}

							}
, 							{
								"patchline" : 								{
									"source" : [ "obj-9", 0 ],
									"destination" : [ "obj-15", 0 ],
									"hidden" : 0,
									"midpoints" : [ 390.5, 381.0, 156.0, 381.0 ]
								}

							}
, 							{
								"patchline" : 								{
									"source" : [ "obj-8", 0 ],
									"destination" : [ "obj-15", 0 ],
									"hidden" : 0,
									"midpoints" : [ 280.5, 381.0, 156.0, 381.0 ]
								}

							}
, 							{
								"patchline" : 								{
									"source" : [ "obj-7", 0 ],
									"destination" : [ "obj-15", 0 ],
									"hidden" : 0,
									"midpoints" : [  ]
								}

							}
, 							{
								"patchline" : 								{
									"source" : [ "obj-17", 0 ],
									"destination" : [ "obj-1", 0 ],
									"hidden" : 0,
									"midpoints" : [  ]
								}

							}
, 							{
								"patchline" : 								{
									"source" : [ "obj-1", 0 ],
									"destination" : [ "obj-5", 0 ],
									"hidden" : 0,
									"midpoints" : [  ]
								}

							}
, 							{
								"patchline" : 								{
									"source" : [ "obj-20", 0 ],
									"destination" : [ "obj-18", 0 ],
									"hidden" : 0,
									"midpoints" : [ 39.5, 131.0, 175.5, 131.0 ]
								}

							}
, 							{
								"patchline" : 								{
									"source" : [ "obj-6", 0 ],
									"destination" : [ "obj-18", 0 ],
									"hidden" : 0,
									"color" : [ 0.156863, 0.8, 0.54902, 1.0 ],
									"midpoints" : [ 357.5, 149.0, 175.5, 149.0 ]
								}

							}
, 							{
								"patchline" : 								{
									"source" : [ "obj-5", 0 ],
									"destination" : [ "obj-18", 0 ],
									"hidden" : 0,
									"midpoints" : [  ]
								}

							}
, 							{
								"patchline" : 								{
									"source" : [ "obj-18", 0 ],
									"destination" : [ "obj-19", 1 ],
									"hidden" : 0,
									"midpoints" : [  ]
								}

							}
, 							{
								"patchline" : 								{
									"source" : [ "obj-6", 1 ],
									"destination" : [ "obj-4", 1 ],
									"hidden" : 0,
									"color" : [ 0.156863, 0.8, 0.54902, 1.0 ],
									"midpoints" : [ 365.5, 201.0, 208.5, 201.0 ]
								}

							}
, 							{
								"patchline" : 								{
									"source" : [ "obj-3", 0 ],
									"destination" : [ "obj-4", 2 ],
									"hidden" : 0,
									"midpoints" : [ 156.5, 281.0, 344.0, 281.0, 344.0, 220.0, 260.5, 220.0 ]
								}

							}
, 							{
								"patchline" : 								{
									"source" : [ "obj-16", 1 ],
									"destination" : [ "obj-8", 0 ],
									"hidden" : 0,
									"midpoints" : [  ]
								}

							}
, 							{
								"patchline" : 								{
									"source" : [ "obj-3", 1 ],
									"destination" : [ "obj-4", 3 ],
									"hidden" : 0,
									"midpoints" : [ 195.5, 278.0, 341.0, 278.0, 341.0, 223.0, 312.5, 223.0 ]
								}

							}
, 							{
								"patchline" : 								{
									"source" : [ "obj-1", 1 ],
									"destination" : [ "obj-6", 0 ],
									"hidden" : 0,
									"color" : [ 0.156863, 0.8, 0.54902, 1.0 ],
									"midpoints" : [ 239.0, 90.0, 357.5, 90.0 ]
								}

							}
, 							{
								"patchline" : 								{
									"source" : [ "obj-3", 1 ],
									"destination" : [ "obj-8", 1 ],
									"hidden" : 0,
									"midpoints" : [ 195.5, 310.0, 364.5, 310.0 ]
								}

							}
, 							{
								"patchline" : 								{
									"source" : [ "obj-16", 2 ],
									"destination" : [ "obj-9", 0 ],
									"hidden" : 0,
									"midpoints" : [  ]
								}

							}
, 							{
								"patchline" : 								{
									"source" : [ "obj-3", 1 ],
									"destination" : [ "obj-9", 1 ],
									"hidden" : 0,
									"midpoints" : [ 195.5, 307.0, 443.5, 307.0 ]
								}

							}
, 							{
								"patchline" : 								{
									"source" : [ "obj-16", 3 ],
									"destination" : [ "obj-10", 0 ],
									"hidden" : 0,
									"midpoints" : [  ]
								}

							}
, 							{
								"patchline" : 								{
									"source" : [ "obj-16", 4 ],
									"destination" : [ "obj-12", 0 ],
									"hidden" : 0,
									"midpoints" : [  ]
								}

							}
, 							{
								"patchline" : 								{
									"source" : [ "obj-16", 5 ],
									"destination" : [ "obj-11", 0 ],
									"hidden" : 0,
									"midpoints" : [  ]
								}

							}
 ]
					}
,
					"saved_object_attributes" : 					{
						"fontface" : 0,
						"fontsize" : 10.0,
						"default_fontface" : 0,
						"default_fontname" : "Arial",
						"fontname" : "Arial",
						"default_fontsize" : 10.0,
						"globalpatchername" : ""
					}

				}

			}
, 			{
				"box" : 				{
					"maxclass" : "newobj",
					"text" : "thispatcher",
					"numoutlets" : 2,
					"fontsize" : 9.0,
					"outlettype" : [ "", "" ],
					"id" : "obj-6",
					"fontname" : "Arial",
					"numinlets" : 1,
					"patching_rect" : [ 26.0, 109.0, 61.0, 17.0 ],
					"save" : [ "#N", "thispatcher", ";", "#Q", "end", ";" ]
				}

			}
, 			{
				"box" : 				{
					"maxclass" : "outlet",
					"varname" : "out[1]",
					"numoutlets" : 0,
					"id" : "obj-7",
					"numinlets" : 1,
					"patching_rect" : [ 252.0, 382.0, 15.0, 15.0 ],
					"comment" : ""
				}

			}
, 			{
				"box" : 				{
					"maxclass" : "inlet",
					"varname" : "in[1]",
					"numoutlets" : 1,
					"outlettype" : [ "" ],
					"id" : "obj-8",
					"numinlets" : 0,
					"patching_rect" : [ 252.0, 29.0, 15.0, 15.0 ],
					"comment" : "W - omni"
				}

			}
, 			{
				"box" : 				{
					"maxclass" : "newobj",
					"varname" : "pass[1]",
					"text" : "pass~",
					"numoutlets" : 1,
					"fontsize" : 9.0,
					"outlettype" : [ "signal" ],
					"id" : "obj-9",
					"fontname" : "Arial",
					"numinlets" : 1,
					"patching_rect" : [ 252.0, 230.0, 36.0, 17.0 ]
				}

			}
, 			{
				"box" : 				{
					"maxclass" : "newobj",
					"varname" : "pass[2]",
					"text" : "pass~",
					"numoutlets" : 1,
					"fontsize" : 9.0,
					"outlettype" : [ "signal" ],
					"id" : "obj-10",
					"fontname" : "Arial",
					"numinlets" : 1,
					"patching_rect" : [ 290.0, 230.0, 36.0, 17.0 ]
				}

			}
, 			{
				"box" : 				{
					"maxclass" : "newobj",
					"varname" : "pass[3]",
					"text" : "pass~",
					"numoutlets" : 1,
					"fontsize" : 9.0,
					"outlettype" : [ "signal" ],
					"id" : "obj-11",
					"fontname" : "Arial",
					"numinlets" : 1,
					"patching_rect" : [ 328.0, 230.0, 36.0, 17.0 ]
				}

			}
, 			{
				"box" : 				{
					"maxclass" : "newobj",
					"varname" : "pass[4]",
					"text" : "pass~",
					"numoutlets" : 1,
					"fontsize" : 9.0,
					"outlettype" : [ "signal" ],
					"id" : "obj-12",
					"fontname" : "Arial",
					"numinlets" : 1,
					"patching_rect" : [ 366.0, 230.0, 36.0, 17.0 ]
				}

			}
, 			{
				"box" : 				{
					"maxclass" : "newobj",
					"varname" : "pass[5]",
					"text" : "pass~",
					"numoutlets" : 1,
					"fontsize" : 9.0,
					"outlettype" : [ "signal" ],
					"id" : "obj-13",
					"fontname" : "Arial",
					"numinlets" : 1,
					"patching_rect" : [ 404.0, 230.0, 36.0, 17.0 ]
				}

			}
, 			{
				"box" : 				{
					"maxclass" : "newobj",
					"varname" : "pass[6]",
					"text" : "pass~",
					"numoutlets" : 1,
					"fontsize" : 9.0,
					"outlettype" : [ "signal" ],
					"id" : "obj-14",
					"fontname" : "Arial",
					"numinlets" : 1,
					"patching_rect" : [ 442.0, 230.0, 36.0, 17.0 ]
				}

			}
, 			{
				"box" : 				{
					"maxclass" : "newobj",
					"varname" : "pass[7]",
					"text" : "pass~",
					"numoutlets" : 1,
					"fontsize" : 9.0,
					"outlettype" : [ "signal" ],
					"id" : "obj-15",
					"fontname" : "Arial",
					"numinlets" : 1,
					"patching_rect" : [ 480.0, 230.0, 36.0, 17.0 ]
				}

			}
, 			{
				"box" : 				{
					"maxclass" : "newobj",
					"varname" : "pass[8]",
					"text" : "pass~",
					"numoutlets" : 1,
					"fontsize" : 9.0,
					"outlettype" : [ "signal" ],
					"id" : "obj-16",
					"fontname" : "Arial",
					"numinlets" : 1,
					"patching_rect" : [ 518.0, 230.0, 36.0, 17.0 ]
				}

			}
, 			{
				"box" : 				{
					"maxclass" : "newobj",
					"varname" : "pass[9]",
					"text" : "pass~",
					"numoutlets" : 1,
					"fontsize" : 9.0,
					"outlettype" : [ "signal" ],
					"id" : "obj-17",
					"fontname" : "Arial",
					"numinlets" : 1,
					"patching_rect" : [ 556.0, 230.0, 36.0, 17.0 ]
				}

			}
, 			{
				"box" : 				{
					"maxclass" : "newobj",
					"varname" : "pass[10]",
					"text" : "pass~",
					"numoutlets" : 1,
					"fontsize" : 9.0,
					"outlettype" : [ "signal" ],
					"id" : "obj-18",
					"fontname" : "Arial",
					"numinlets" : 1,
					"patching_rect" : [ 594.0, 230.0, 36.0, 17.0 ]
				}

			}
, 			{
				"box" : 				{
					"maxclass" : "newobj",
					"varname" : "pass[11]",
					"text" : "pass~",
					"numoutlets" : 1,
					"fontsize" : 9.0,
					"outlettype" : [ "signal" ],
					"id" : "obj-19",
					"fontname" : "Arial",
					"numinlets" : 1,
					"patching_rect" : [ 632.0, 230.0, 36.0, 17.0 ]
				}

			}
, 			{
				"box" : 				{
					"maxclass" : "newobj",
					"varname" : "pass[12]",
					"text" : "pass~",
					"numoutlets" : 1,
					"fontsize" : 9.0,
					"outlettype" : [ "signal" ],
					"id" : "obj-20",
					"fontname" : "Arial",
					"numinlets" : 1,
					"patching_rect" : [ 670.0, 230.0, 36.0, 17.0 ]
				}

			}
, 			{
				"box" : 				{
					"maxclass" : "newobj",
					"varname" : "pass[13]",
					"text" : "pass~",
					"numoutlets" : 1,
					"fontsize" : 9.0,
					"outlettype" : [ "signal" ],
					"id" : "obj-21",
					"fontname" : "Arial",
					"numinlets" : 1,
					"patching_rect" : [ 708.0, 230.0, 36.0, 17.0 ]
				}

			}
, 			{
				"box" : 				{
					"maxclass" : "newobj",
					"varname" : "pass[14]",
					"text" : "pass~",
					"numoutlets" : 1,
					"fontsize" : 9.0,
					"outlettype" : [ "signal" ],
					"id" : "obj-22",
					"fontname" : "Arial",
					"numinlets" : 1,
					"patching_rect" : [ 746.0, 230.0, 36.0, 17.0 ]
				}

			}
, 			{
				"box" : 				{
					"maxclass" : "newobj",
					"varname" : "pass[15]",
					"text" : "pass~",
					"numoutlets" : 1,
					"fontsize" : 9.0,
					"outlettype" : [ "signal" ],
					"id" : "obj-23",
					"fontname" : "Arial",
					"numinlets" : 1,
					"patching_rect" : [ 784.0, 230.0, 36.0, 17.0 ]
				}

			}
, 			{
				"box" : 				{
					"maxclass" : "newobj",
					"varname" : "pass[16]",
					"text" : "pass~",
					"numoutlets" : 1,
					"fontsize" : 9.0,
					"outlettype" : [ "signal" ],
					"id" : "obj-24",
					"fontname" : "Arial",
					"numinlets" : 1,
					"patching_rect" : [ 822.0, 230.0, 36.0, 17.0 ]
				}

			}
, 			{
				"box" : 				{
					"maxclass" : "newobj",
					"varname" : "decode",
					"text" : "ambidecode~ 3 16",
					"numoutlets" : 16,
					"fontsize" : 9.0,
					"outlettype" : [ "signal", "signal", "signal", "signal", "signal", "signal", "signal", "signal", "signal", "signal", "signal", "signal", "signal", "signal", "signal", "signal" ],
					"id" : "obj-25",
					"fontname" : "Arial",
					"numinlets" : 16,
					"patching_rect" : [ 252.0, 153.0, 209.0, 17.0 ]
				}

			}
 ],
		"lines" : [ 			{
				"patchline" : 				{
					"source" : [ "obj-4", 0 ],
					"destination" : [ "obj-5", 0 ],
					"hidden" : 0,
					"midpoints" : [  ]
				}

			}
, 			{
				"patchline" : 				{
					"source" : [ "obj-5", 0 ],
					"destination" : [ "obj-6", 0 ],
					"hidden" : 0,
					"midpoints" : [  ]
				}

			}
, 			{
				"patchline" : 				{
					"source" : [ "obj-4", 0 ],
					"destination" : [ "obj-3", 0 ],
					"hidden" : 0,
					"midpoints" : [  ]
				}

			}
, 			{
				"patchline" : 				{
					"source" : [ "obj-8", 0 ],
					"destination" : [ "obj-2", 0 ],
					"hidden" : 0,
					"midpoints" : [  ]
				}

			}
, 			{
				"patchline" : 				{
					"source" : [ "obj-2", 0 ],
					"destination" : [ "obj-25", 0 ],
					"hidden" : 0,
					"midpoints" : [  ]
				}

			}
, 			{
				"patchline" : 				{
					"source" : [ "obj-3", 0 ],
					"destination" : [ "obj-25", 0 ],
					"hidden" : 0,
					"midpoints" : [  ]
				}

			}
, 			{
				"patchline" : 				{
					"source" : [ "obj-25", 0 ],
					"destination" : [ "obj-9", 0 ],
					"hidden" : 0,
					"midpoints" : [  ]
				}

			}
, 			{
				"patchline" : 				{
					"source" : [ "obj-9", 0 ],
					"destination" : [ "obj-1", 0 ],
					"hidden" : 0,
					"midpoints" : [  ]
				}

			}
, 			{
				"patchline" : 				{
					"source" : [ "obj-1", 0 ],
					"destination" : [ "obj-7", 0 ],
					"hidden" : 0,
					"midpoints" : [  ]
				}

			}
, 			{
				"patchline" : 				{
					"source" : [ "obj-2", 1 ],
					"destination" : [ "obj-25", 1 ],
					"hidden" : 0,
					"midpoints" : [  ]
				}

			}
, 			{
				"patchline" : 				{
					"source" : [ "obj-10", 0 ],
					"destination" : [ "obj-1", 1 ],
					"hidden" : 0,
					"midpoints" : [  ]
				}

			}
, 			{
				"patchline" : 				{
					"source" : [ "obj-2", 2 ],
					"destination" : [ "obj-25", 2 ],
					"hidden" : 0,
					"midpoints" : [  ]
				}

			}
, 			{
				"patchline" : 				{
					"source" : [ "obj-11", 0 ],
					"destination" : [ "obj-1", 2 ],
					"hidden" : 0,
					"midpoints" : [  ]
				}

			}
, 			{
				"patchline" : 				{
					"source" : [ "obj-25", 1 ],
					"destination" : [ "obj-10", 0 ],
					"hidden" : 0,
					"midpoints" : [  ]
				}

			}
, 			{
				"patchline" : 				{
					"source" : [ "obj-2", 3 ],
					"destination" : [ "obj-25", 3 ],
					"hidden" : 0,
					"midpoints" : [  ]
				}

			}
, 			{
				"patchline" : 				{
					"source" : [ "obj-12", 0 ],
					"destination" : [ "obj-1", 3 ],
					"hidden" : 0,
					"midpoints" : [  ]
				}

			}
, 			{
				"patchline" : 				{
					"source" : [ "obj-2", 4 ],
					"destination" : [ "obj-25", 4 ],
					"hidden" : 0,
					"midpoints" : [  ]
				}

			}
, 			{
				"patchline" : 				{
					"source" : [ "obj-13", 0 ],
					"destination" : [ "obj-1", 4 ],
					"hidden" : 0,
					"midpoints" : [  ]
				}

			}
, 			{
				"patchline" : 				{
					"source" : [ "obj-2", 5 ],
					"destination" : [ "obj-25", 5 ],
					"hidden" : 0,
					"midpoints" : [  ]
				}

			}
, 			{
				"patchline" : 				{
					"source" : [ "obj-14", 0 ],
					"destination" : [ "obj-1", 5 ],
					"hidden" : 0,
					"midpoints" : [  ]
				}

			}
, 			{
				"patchline" : 				{
					"source" : [ "obj-25", 2 ],
					"destination" : [ "obj-11", 0 ],
					"hidden" : 0,
					"midpoints" : [  ]
				}

			}
, 			{
				"patchline" : 				{
					"source" : [ "obj-2", 6 ],
					"destination" : [ "obj-25", 6 ],
					"hidden" : 0,
					"midpoints" : [  ]
				}

			}
, 			{
				"patchline" : 				{
					"source" : [ "obj-15", 0 ],
					"destination" : [ "obj-1", 6 ],
					"hidden" : 0,
					"midpoints" : [  ]
				}

			}
, 			{
				"patchline" : 				{
					"source" : [ "obj-2", 7 ],
					"destination" : [ "obj-25", 7 ],
					"hidden" : 0,
					"midpoints" : [  ]
				}

			}
, 			{
				"patchline" : 				{
					"source" : [ "obj-16", 0 ],
					"destination" : [ "obj-1", 7 ],
					"hidden" : 0,
					"midpoints" : [  ]
				}

			}
, 			{
				"patchline" : 				{
					"source" : [ "obj-2", 8 ],
					"destination" : [ "obj-25", 8 ],
					"hidden" : 0,
					"midpoints" : [  ]
				}

			}
, 			{
				"patchline" : 				{
					"source" : [ "obj-17", 0 ],
					"destination" : [ "obj-1", 8 ],
					"hidden" : 0,
					"midpoints" : [  ]
				}

			}
, 			{
				"patchline" : 				{
					"source" : [ "obj-25", 3 ],
					"destination" : [ "obj-12", 0 ],
					"hidden" : 0,
					"midpoints" : [  ]
				}

			}
, 			{
				"patchline" : 				{
					"source" : [ "obj-2", 9 ],
					"destination" : [ "obj-25", 9 ],
					"hidden" : 0,
					"midpoints" : [  ]
				}

			}
, 			{
				"patchline" : 				{
					"source" : [ "obj-18", 0 ],
					"destination" : [ "obj-1", 9 ],
					"hidden" : 0,
					"midpoints" : [  ]
				}

			}
, 			{
				"patchline" : 				{
					"source" : [ "obj-2", 10 ],
					"destination" : [ "obj-25", 10 ],
					"hidden" : 0,
					"midpoints" : [  ]
				}

			}
, 			{
				"patchline" : 				{
					"source" : [ "obj-19", 0 ],
					"destination" : [ "obj-1", 10 ],
					"hidden" : 0,
					"midpoints" : [  ]
				}

			}
, 			{
				"patchline" : 				{
					"source" : [ "obj-2", 11 ],
					"destination" : [ "obj-25", 11 ],
					"hidden" : 0,
					"midpoints" : [  ]
				}

			}
, 			{
				"patchline" : 				{
					"source" : [ "obj-20", 0 ],
					"destination" : [ "obj-1", 11 ],
					"hidden" : 0,
					"midpoints" : [  ]
				}

			}
, 			{
				"patchline" : 				{
					"source" : [ "obj-25", 4 ],
					"destination" : [ "obj-13", 0 ],
					"hidden" : 0,
					"midpoints" : [  ]
				}

			}
, 			{
				"patchline" : 				{
					"source" : [ "obj-2", 12 ],
					"destination" : [ "obj-25", 12 ],
					"hidden" : 0,
					"midpoints" : [  ]
				}

			}
, 			{
				"patchline" : 				{
					"source" : [ "obj-21", 0 ],
					"destination" : [ "obj-1", 12 ],
					"hidden" : 0,
					"midpoints" : [  ]
				}

			}
, 			{
				"patchline" : 				{
					"source" : [ "obj-2", 13 ],
					"destination" : [ "obj-25", 13 ],
					"hidden" : 0,
					"midpoints" : [  ]
				}

			}
, 			{
				"patchline" : 				{
					"source" : [ "obj-22", 0 ],
					"destination" : [ "obj-1", 13 ],
					"hidden" : 0,
					"midpoints" : [  ]
				}

			}
, 			{
				"patchline" : 				{
					"source" : [ "obj-2", 14 ],
					"destination" : [ "obj-25", 14 ],
					"hidden" : 0,
					"midpoints" : [  ]
				}

			}
, 			{
				"patchline" : 				{
					"source" : [ "obj-23", 0 ],
					"destination" : [ "obj-1", 14 ],
					"hidden" : 0,
					"midpoints" : [  ]
				}

			}
, 			{
				"patchline" : 				{
					"source" : [ "obj-25", 5 ],
					"destination" : [ "obj-14", 0 ],
					"hidden" : 0,
					"midpoints" : [  ]
				}

			}
, 			{
				"patchline" : 				{
					"source" : [ "obj-2", 15 ],
					"destination" : [ "obj-25", 15 ],
					"hidden" : 0,
					"midpoints" : [  ]
				}

			}
, 			{
				"patchline" : 				{
					"source" : [ "obj-24", 0 ],
					"destination" : [ "obj-1", 15 ],
					"hidden" : 0,
					"midpoints" : [  ]
				}

			}
, 			{
				"patchline" : 				{
					"source" : [ "obj-25", 6 ],
					"destination" : [ "obj-15", 0 ],
					"hidden" : 0,
					"midpoints" : [  ]
				}

			}
, 			{
				"patchline" : 				{
					"source" : [ "obj-25", 7 ],
					"destination" : [ "obj-16", 0 ],
					"hidden" : 0,
					"midpoints" : [  ]
				}

			}
, 			{
				"patchline" : 				{
					"source" : [ "obj-25", 8 ],
					"destination" : [ "obj-17", 0 ],
					"hidden" : 0,
					"midpoints" : [  ]
				}

			}
, 			{
				"patchline" : 				{
					"source" : [ "obj-25", 9 ],
					"destination" : [ "obj-18", 0 ],
					"hidden" : 0,
					"midpoints" : [  ]
				}

			}
, 			{
				"patchline" : 				{
					"source" : [ "obj-25", 10 ],
					"destination" : [ "obj-19", 0 ],
					"hidden" : 0,
					"midpoints" : [  ]
				}

			}
, 			{
				"patchline" : 				{
					"source" : [ "obj-25", 11 ],
					"destination" : [ "obj-20", 0 ],
					"hidden" : 0,
					"midpoints" : [  ]
				}

			}
, 			{
				"patchline" : 				{
					"source" : [ "obj-25", 12 ],
					"destination" : [ "obj-21", 0 ],
					"hidden" : 0,
					"midpoints" : [  ]
				}

			}
, 			{
				"patchline" : 				{
					"source" : [ "obj-25", 13 ],
					"destination" : [ "obj-22", 0 ],
					"hidden" : 0,
					"midpoints" : [  ]
				}

			}
, 			{
				"patchline" : 				{
					"source" : [ "obj-25", 14 ],
					"destination" : [ "obj-23", 0 ],
					"hidden" : 0,
					"midpoints" : [  ]
				}

			}
, 			{
				"patchline" : 				{
					"source" : [ "obj-25", 15 ],
					"destination" : [ "obj-24", 0 ],
					"hidden" : 0,
					"midpoints" : [  ]
				}

			}
 ]
	}

}
