{
	"patcher" : 	{
		"fileversion" : 1,
		"rect" : [ 275.0, 50.0, 942.0, 639.0 ],
		"bglocked" : 0,
		"defrect" : [ 275.0, 50.0, 942.0, 639.0 ],
		"openrect" : [ 0.0, 0.0, 0.0, 0.0 ],
		"openinpresentation" : 1,
		"default_fontsize" : 10.0,
		"default_fontface" : 0,
		"default_fontname" : "Arial",
		"gridonopen" : 0,
		"gridsize" : [ 15.0, 15.0 ],
		"gridsnaponopen" : 0,
		"toolbarvisible" : 1,
		"boxanimatetime" : 200,
		"imprint" : 0,
		"metadata" : [  ],
		"boxes" : [ 			{
				"box" : 				{
					"maxclass" : "flonum",
					"fontname" : "Arial",
					"triangle" : 0,
					"presentation_rect" : [ 203.0, 42.0, 39.0, 18.0 ],
					"numinlets" : 1,
					"fontsize" : 10.0,
					"patching_rect" : [ 528.0, 304.0, 36.0, 18.0 ],
					"presentation" : 1,
					"numoutlets" : 2,
					"id" : "obj-45",
					"outlettype" : [ "float", "bang" ]
				}

			}
, 			{
				"box" : 				{
					"maxclass" : "flonum",
					"fontname" : "Arial",
					"triangle" : 0,
					"presentation_rect" : [ 203.0, 21.0, 39.0, 18.0 ],
					"numinlets" : 1,
					"fontsize" : 10.0,
					"patching_rect" : [ 517.0, 268.0, 36.0, 18.0 ],
					"presentation" : 1,
					"numoutlets" : 2,
					"id" : "obj-43",
					"outlettype" : [ "float", "bang" ]
				}

			}
, 			{
				"box" : 				{
					"maxclass" : "flonum",
					"fontname" : "Arial",
					"triangle" : 0,
					"presentation_rect" : [ 125.0, 42.0, 39.0, 18.0 ],
					"numinlets" : 1,
					"fontsize" : 10.0,
					"patching_rect" : [ 514.0, 227.0, 36.0, 18.0 ],
					"presentation" : 1,
					"numoutlets" : 2,
					"id" : "obj-37",
					"outlettype" : [ "float", "bang" ]
				}

			}
, 			{
				"box" : 				{
					"maxclass" : "flonum",
					"fontname" : "Arial",
					"triangle" : 0,
					"presentation_rect" : [ 125.0, 21.0, 39.0, 18.0 ],
					"numinlets" : 1,
					"fontsize" : 10.0,
					"patching_rect" : [ 499.0, 177.0, 36.0, 18.0 ],
					"presentation" : 1,
					"numoutlets" : 2,
					"id" : "obj-33",
					"outlettype" : [ "float", "bang" ]
				}

			}
, 			{
				"box" : 				{
					"maxclass" : "number",
					"fontname" : "Arial",
					"triangle" : 0,
					"presentation_rect" : [ 48.0, 42.0, 21.0, 18.0 ],
					"numinlets" : 1,
					"fontsize" : 10.0,
					"patching_rect" : [ 496.0, 122.0, 20.0, 18.0 ],
					"presentation" : 1,
					"numoutlets" : 2,
					"id" : "obj-32",
					"outlettype" : [ "int", "bang" ]
				}

			}
, 			{
				"box" : 				{
					"maxclass" : "number",
					"fontname" : "Arial",
					"triangle" : 0,
					"presentation_rect" : [ 48.0, 21.0, 21.0, 18.0 ],
					"numinlets" : 1,
					"fontsize" : 10.0,
					"patching_rect" : [ 483.0, 85.0, 20.0, 18.0 ],
					"presentation" : 1,
					"numoutlets" : 2,
					"id" : "obj-28",
					"outlettype" : [ "int", "bang" ]
				}

			}
, 			{
				"box" : 				{
					"maxclass" : "newobj",
					"text" : "jcom.in",
					"fontname" : "Arial",
					"hidden" : 1,
					"numinlets" : 1,
					"fontsize" : 9.0,
					"patching_rect" : [ 161.0, 227.0, 43.0, 17.0 ],
					"numoutlets" : 2,
					"id" : "obj-1",
					"outlettype" : [ "", "" ]
				}

			}
, 			{
				"box" : 				{
					"maxclass" : "comment",
					"text" : "----multicable signal output----",
					"fontname" : "Arial",
					"hidden" : 1,
					"frgb" : [ 0.658824, 0.658824, 0.658824, 1.0 ],
					"numinlets" : 1,
					"fontsize" : 9.0,
					"patching_rect" : [ 368.0, 463.0, 158.0, 17.0 ],
					"numoutlets" : 0,
					"id" : "obj-2"
				}

			}
, 			{
				"box" : 				{
					"maxclass" : "message",
					"text" : "/documentation/generate",
					"fontname" : "Arial",
					"hidden" : 1,
					"numinlets" : 2,
					"fontsize" : 9.0,
					"patching_rect" : [ 98.0, 121.0, 125.0, 15.0 ],
					"numoutlets" : 1,
					"id" : "obj-3",
					"outlettype" : [ "" ]
				}

			}
, 			{
				"box" : 				{
					"maxclass" : "newobj",
					"text" : "jcom.pass open",
					"fontname" : "Arial",
					"hidden" : 1,
					"numinlets" : 1,
					"fontsize" : 9.0,
					"patching_rect" : [ 161.0, 251.0, 93.0, 17.0 ],
					"numoutlets" : 2,
					"id" : "obj-4",
					"outlettype" : [ "", "" ]
				}

			}
, 			{
				"box" : 				{
					"maxclass" : "newobj",
					"text" : "pcontrol",
					"fontname" : "Arial",
					"hidden" : 1,
					"numinlets" : 1,
					"fontsize" : 9.0,
					"patching_rect" : [ 161.0, 276.0, 47.0, 17.0 ],
					"numoutlets" : 1,
					"id" : "obj-5",
					"outlettype" : [ "" ]
				}

			}
, 			{
				"box" : 				{
					"maxclass" : "newobj",
					"text" : "p display_gain",
					"fontname" : "Arial",
					"hidden" : 1,
					"numinlets" : 2,
					"fontsize" : 9.0,
					"patching_rect" : [ 235.0, 413.0, 74.0, 17.0 ],
					"numoutlets" : 1,
					"id" : "obj-6",
					"outlettype" : [ "signal" ],
					"patcher" : 					{
						"fileversion" : 1,
						"rect" : [ 38.0, 82.0, 600.0, 426.0 ],
						"bglocked" : 0,
						"defrect" : [ 38.0, 82.0, 600.0, 426.0 ],
						"openrect" : [ 0.0, 0.0, 0.0, 0.0 ],
						"openinpresentation" : 0,
						"default_fontsize" : 10.0,
						"default_fontface" : 0,
						"default_fontname" : "Arial",
						"gridonopen" : 0,
						"gridsize" : [ 15.0, 15.0 ],
						"gridsnaponopen" : 0,
						"toolbarvisible" : 1,
						"boxanimatetime" : 200,
						"imprint" : 0,
						"metadata" : [  ],
						"boxes" : [ 							{
								"box" : 								{
									"maxclass" : "newobj",
									"text" : "jcom.sur.ambi.getW~",
									"fontname" : "Arial",
									"numinlets" : 1,
									"fontsize" : 9.0,
									"patching_rect" : [ 233.0, 88.0, 126.0, 17.0 ],
									"numoutlets" : 1,
									"id" : "obj-1",
									"outlettype" : [ "" ]
								}

							}
, 							{
								"box" : 								{
									"maxclass" : "newobj",
									"text" : "pass~",
									"fontname" : "Arial",
									"numinlets" : 1,
									"fontsize" : 9.0,
									"patching_rect" : [ 233.0, 286.0, 36.0, 17.0 ],
									"numoutlets" : 1,
									"id" : "obj-2",
									"outlettype" : [ "signal" ]
								}

							}
, 							{
								"box" : 								{
									"maxclass" : "outlet",
									"numinlets" : 1,
									"patching_rect" : [ 233.0, 324.0, 15.0, 15.0 ],
									"numoutlets" : 0,
									"id" : "obj-3",
									"comment" : ""
								}

							}
, 							{
								"box" : 								{
									"maxclass" : "inlet",
									"numinlets" : 0,
									"patching_rect" : [ 61.0, 61.0, 15.0, 15.0 ],
									"numoutlets" : 1,
									"id" : "obj-4",
									"outlettype" : [ "" ],
									"comment" : ""
								}

							}
, 							{
								"box" : 								{
									"maxclass" : "gain~",
									"numinlets" : 2,
									"patching_rect" : [ 234.0, 150.0, 22.0, 122.0 ],
									"numoutlets" : 2,
									"id" : "obj-5",
									"outlettype" : [ "signal", "int" ],
									"orientation" : 2
								}

							}
, 							{
								"box" : 								{
									"maxclass" : "inlet",
									"numinlets" : 0,
									"patching_rect" : [ 233.0, 61.0, 15.0, 15.0 ],
									"numoutlets" : 1,
									"id" : "obj-6",
									"outlettype" : [ "" ],
									"comment" : ""
								}

							}
, 							{
								"box" : 								{
									"maxclass" : "newobj",
									"text" : "jcom.oscroute /gain/midi",
									"fontname" : "Arial",
									"numinlets" : 1,
									"fontsize" : 9.0,
									"patching_rect" : [ 61.0, 117.0, 126.0, 17.0 ],
									"numoutlets" : 2,
									"id" : "obj-7",
									"outlettype" : [ "", "" ]
								}

							}
 ],
						"lines" : [ 							{
								"patchline" : 								{
									"source" : [ "obj-4", 0 ],
									"destination" : [ "obj-7", 0 ],
									"hidden" : 0,
									"midpoints" : [  ]
								}

							}
, 							{
								"patchline" : 								{
									"source" : [ "obj-6", 0 ],
									"destination" : [ "obj-1", 0 ],
									"hidden" : 0,
									"midpoints" : [  ]
								}

							}
, 							{
								"patchline" : 								{
									"source" : [ "obj-7", 0 ],
									"destination" : [ "obj-5", 0 ],
									"hidden" : 0,
									"midpoints" : [  ]
								}

							}
, 							{
								"patchline" : 								{
									"source" : [ "obj-1", 0 ],
									"destination" : [ "obj-5", 0 ],
									"hidden" : 0,
									"midpoints" : [  ]
								}

							}
, 							{
								"patchline" : 								{
									"source" : [ "obj-5", 0 ],
									"destination" : [ "obj-2", 0 ],
									"hidden" : 0,
									"midpoints" : [  ]
								}

							}
, 							{
								"patchline" : 								{
									"source" : [ "obj-2", 0 ],
									"destination" : [ "obj-3", 0 ],
									"hidden" : 0,
									"midpoints" : [  ]
								}

							}
 ]
					}
,
					"saved_object_attributes" : 					{
						"fontname" : "Arial",
						"globalpatchername" : "",
						"fontface" : 0,
						"fontsize" : 10.0,
						"default_fontface" : 0,
						"default_fontname" : "Arial",
						"default_fontsize" : 10.0
					}

				}

			}
, 			{
				"box" : 				{
					"maxclass" : "newobj",
					"text" : "jcom.message aed @type msg_list @description \"List describing index (counting from 1), azimuth, elevation, distance for one speaker.\"",
					"linecount" : 2,
					"fontname" : "Arial",
					"hidden" : 1,
					"numinlets" : 1,
					"fontsize" : 9.0,
					"patching_rect" : [ 573.0, 374.0, 349.0, 27.0 ],
					"numoutlets" : 3,
					"id" : "obj-7",
					"outlettype" : [ "", "", "" ]
				}

			}
, 			{
				"box" : 				{
					"maxclass" : "newobj",
					"varname" : "third",
					"text" : "jcom.parameter third @type msg_float @repetitions/allow 0 @range/bounds 0. 2. @range/clipmode both @description \"Third order weight (KLMNOPQ).\"",
					"linecount" : 2,
					"fontname" : "Arial",
					"hidden" : 1,
					"numinlets" : 1,
					"fontsize" : 9.0,
					"patching_rect" : [ 589.0, 302.0, 355.0, 27.0 ],
					"numoutlets" : 3,
					"id" : "obj-9",
					"outlettype" : [ "", "", "" ]
				}

			}
, 			{
				"box" : 				{
					"maxclass" : "newobj",
					"varname" : "second",
					"text" : "jcom.parameter second @type msg_float @repetitions/allow 0 @range/bounds 0. 2. @range/clipmode both @description \"Second order weight (RSTUV).\"",
					"linecount" : 2,
					"fontname" : "Arial",
					"hidden" : 1,
					"numinlets" : 1,
					"fontsize" : 9.0,
					"patching_rect" : [ 575.0, 264.0, 355.0, 27.0 ],
					"numoutlets" : 3,
					"id" : "obj-11",
					"outlettype" : [ "", "", "" ]
				}

			}
, 			{
				"box" : 				{
					"maxclass" : "newobj",
					"varname" : "first",
					"text" : "jcom.parameter first @type msg_float @repetitions/allow 0 @range/bounds 0. 2. @range/clipmode both @description \"First order weight (XYZ).\"",
					"linecount" : 2,
					"fontname" : "Arial",
					"hidden" : 1,
					"numinlets" : 1,
					"fontsize" : 9.0,
					"patching_rect" : [ 581.0, 226.0, 337.0, 27.0 ],
					"numoutlets" : 3,
					"id" : "obj-13",
					"outlettype" : [ "", "", "" ]
				}

			}
, 			{
				"box" : 				{
					"maxclass" : "newobj",
					"varname" : "omni",
					"text" : "jcom.parameter omni @type msg_float @repetitions/allow 0 @range/bounds 0. 2. @range/clipmode both @description \"Zeroth order weight (W).\"",
					"linecount" : 2,
					"fontname" : "Arial",
					"hidden" : 1,
					"numinlets" : 1,
					"fontsize" : 9.0,
					"patching_rect" : [ 560.0, 175.0, 337.0, 27.0 ],
					"numoutlets" : 3,
					"id" : "obj-15",
					"outlettype" : [ "", "", "" ]
				}

			}
, 			{
				"box" : 				{
					"maxclass" : "comment",
					"text" : "3rd",
					"fontname" : "Arial",
					"presentation_rect" : [ 173.0, 43.0, 31.0, 17.0 ],
					"frgb" : [ 0.67451, 0.67451, 0.67451, 1.0 ],
					"numinlets" : 1,
					"fontsize" : 9.0,
					"patching_rect" : [ 173.0, 41.0, 31.0, 17.0 ],
					"presentation" : 1,
					"numoutlets" : 0,
					"id" : "obj-20",
					"textcolor" : [ 0.67451, 0.67451, 0.67451, 1.0 ]
				}

			}
, 			{
				"box" : 				{
					"maxclass" : "comment",
					"text" : "2nd",
					"fontname" : "Arial",
					"presentation_rect" : [ 173.0, 22.0, 31.0, 17.0 ],
					"frgb" : [ 0.67451, 0.67451, 0.67451, 1.0 ],
					"numinlets" : 1,
					"fontsize" : 9.0,
					"patching_rect" : [ 173.0, 23.0, 31.0, 17.0 ],
					"presentation" : 1,
					"numoutlets" : 0,
					"id" : "obj-21",
					"textcolor" : [ 0.67451, 0.67451, 0.67451, 1.0 ]
				}

			}
, 			{
				"box" : 				{
					"maxclass" : "comment",
					"text" : "1st",
					"fontname" : "Arial",
					"presentation_rect" : [ 89.0, 43.0, 37.0, 17.0 ],
					"frgb" : [ 0.67451, 0.67451, 0.67451, 1.0 ],
					"numinlets" : 1,
					"fontsize" : 9.0,
					"patching_rect" : [ 88.0, 41.0, 37.0, 17.0 ],
					"presentation" : 1,
					"numoutlets" : 0,
					"id" : "obj-22",
					"textcolor" : [ 0.67451, 0.67451, 0.67451, 1.0 ]
				}

			}
, 			{
				"box" : 				{
					"maxclass" : "comment",
					"text" : "Omni",
					"fontname" : "Arial",
					"presentation_rect" : [ 88.0, 22.0, 37.0, 17.0 ],
					"frgb" : [ 0.67451, 0.67451, 0.67451, 1.0 ],
					"numinlets" : 1,
					"fontsize" : 9.0,
					"patching_rect" : [ 88.0, 23.0, 37.0, 17.0 ],
					"presentation" : 1,
					"numoutlets" : 0,
					"id" : "obj-23",
					"textcolor" : [ 0.67451, 0.67451, 0.67451, 1.0 ]
				}

			}
, 			{
				"box" : 				{
					"maxclass" : "comment",
					"text" : "Order",
					"fontname" : "Arial",
					"presentation_rect" : [ 4.0, 43.0, 41.0, 17.0 ],
					"frgb" : [ 0.67451, 0.67451, 0.67451, 1.0 ],
					"numinlets" : 1,
					"fontsize" : 9.0,
					"patching_rect" : [ 3.0, 41.0, 41.0, 17.0 ],
					"presentation" : 1,
					"numoutlets" : 0,
					"id" : "obj-24",
					"textcolor" : [ 0.67451, 0.67451, 0.67451, 1.0 ]
				}

			}
, 			{
				"box" : 				{
					"maxclass" : "outlet",
					"hidden" : 1,
					"numinlets" : 1,
					"patching_rect" : [ 347.0, 460.0, 22.0, 22.0 ],
					"numoutlets" : 0,
					"id" : "obj-25",
					"comment" : "Channel 1"
				}

			}
, 			{
				"box" : 				{
					"maxclass" : "inlet",
					"hidden" : 1,
					"numinlets" : 0,
					"patching_rect" : [ 484.0, 251.0, 19.0, 19.0 ],
					"numoutlets" : 1,
					"id" : "obj-26",
					"outlettype" : [ "" ],
					"comment" : "W - omni"
				}

			}
, 			{
				"box" : 				{
					"maxclass" : "comment",
					"text" : "----multicable signal input----",
					"fontname" : "Arial",
					"hidden" : 1,
					"frgb" : [ 0.658824, 0.658824, 0.658824, 1.0 ],
					"numinlets" : 1,
					"fontsize" : 9.0,
					"patching_rect" : [ 317.0, 248.0, 158.0, 17.0 ],
					"numoutlets" : 0,
					"id" : "obj-27"
				}

			}
, 			{
				"box" : 				{
					"maxclass" : "newobj",
					"text" : "route /mute",
					"fontname" : "Arial",
					"hidden" : 1,
					"numinlets" : 1,
					"fontsize" : 9.0,
					"patching_rect" : [ 235.0, 313.0, 56.0, 17.0 ],
					"numoutlets" : 2,
					"id" : "obj-29",
					"outlettype" : [ "", "" ]
				}

			}
, 			{
				"box" : 				{
					"maxclass" : "newobj",
					"text" : "mute~",
					"fontname" : "Arial",
					"hidden" : 1,
					"numinlets" : 1,
					"fontsize" : 9.0,
					"patching_rect" : [ 235.0, 360.0, 38.0, 17.0 ],
					"numoutlets" : 1,
					"id" : "obj-30",
					"outlettype" : [ "" ]
				}

			}
, 			{
				"box" : 				{
					"maxclass" : "newobj",
					"text" : "jalg.sur.ambi.decode~",
					"fontname" : "Arial",
					"hidden" : 1,
					"numinlets" : 2,
					"fontsize" : 9.0,
					"patching_rect" : [ 347.0, 420.0, 154.0, 17.0 ],
					"numoutlets" : 1,
					"id" : "obj-31",
					"outlettype" : [ "" ]
				}

			}
, 			{
				"box" : 				{
					"maxclass" : "newobj",
					"varname" : "jcom.hub",
					"text" : "jcom.hub @description \"Decoding ambisonic signal to multispeaker setup. <br>NOTE: The positions of the speakers are not maintained by this module.\"",
					"linecount" : 2,
					"fontname" : "Arial",
					"hidden" : 1,
					"numinlets" : 1,
					"fontsize" : 9.0,
					"patching_rect" : [ -2.0, 150.0, 382.0, 27.0 ],
					"numoutlets" : 2,
					"id" : "obj-34",
					"outlettype" : [ "", "" ]
				}

			}
, 			{
				"box" : 				{
					"maxclass" : "comment",
					"text" : "command input",
					"fontname" : "Arial",
					"hidden" : 1,
					"frgb" : [ 0.658824, 0.658824, 0.658824, 1.0 ],
					"numinlets" : 1,
					"fontsize" : 9.0,
					"patching_rect" : [ 14.0, 121.0, 79.0, 17.0 ],
					"numoutlets" : 0,
					"id" : "obj-35"
				}

			}
, 			{
				"box" : 				{
					"maxclass" : "inlet",
					"hidden" : 1,
					"numinlets" : 0,
					"patching_rect" : [ 0.0, 121.0, 13.0, 13.0 ],
					"numoutlets" : 1,
					"id" : "obj-36",
					"outlettype" : [ "" ],
					"comment" : ""
				}

			}
, 			{
				"box" : 				{
					"maxclass" : "newobj",
					"varname" : "order",
					"text" : "jcom.parameter order @type msg_int @repetitions/allow 0 @range/bounds 1 3 @range/clipmode both @description \"Order of decoding for ambisonic signal.  Changes only take effect when audio is off.\"",
					"linecount" : 3,
					"fontname" : "Arial",
					"hidden" : 1,
					"numinlets" : 1,
					"fontsize" : 9.0,
					"patching_rect" : [ 555.0, 116.0, 332.0, 38.0 ],
					"numoutlets" : 3,
					"id" : "obj-39",
					"outlettype" : [ "", "", "" ]
				}

			}
, 			{
				"box" : 				{
					"maxclass" : "comment",
					"text" : "Voices",
					"fontname" : "Arial",
					"presentation_rect" : [ 3.0, 22.0, 41.0, 17.0 ],
					"frgb" : [ 0.67451, 0.67451, 0.67451, 1.0 ],
					"numinlets" : 1,
					"fontsize" : 9.0,
					"patching_rect" : [ 3.0, 23.0, 41.0, 17.0 ],
					"presentation" : 1,
					"numoutlets" : 0,
					"id" : "obj-40",
					"textcolor" : [ 0.67451, 0.67451, 0.67451, 1.0 ]
				}

			}
, 			{
				"box" : 				{
					"maxclass" : "outlet",
					"hidden" : 1,
					"numinlets" : 1,
					"patching_rect" : [ 0.0, 246.0, 13.0, 13.0 ],
					"numoutlets" : 0,
					"id" : "obj-42",
					"comment" : ""
				}

			}
, 			{
				"box" : 				{
					"maxclass" : "newobj",
					"varname" : "voices",
					"text" : "jcom.parameter voices @type msg_int @repetitions/allow 0 @range/bounds 1 32 @range/clipmode both @description \"The number of audio channels that the ambisonic signal is diffused to. Changes only take effect when audio is off.\"",
					"linecount" : 3,
					"fontname" : "Arial",
					"hidden" : 1,
					"numinlets" : 1,
					"fontsize" : 9.0,
					"patching_rect" : [ 557.0, 73.0, 348.0, 38.0 ],
					"numoutlets" : 3,
					"id" : "obj-44",
					"outlettype" : [ "", "", "" ]
				}

			}
, 			{
				"box" : 				{
					"maxclass" : "jcom.ui",
					"text" : "/editing_this_module",
					"presentation_rect" : [ -1.0, -1.0, 300.0, 70.0 ],
					"numinlets" : 1,
					"patching_rect" : [ -1.0, -1.0, 300.0, 70.0 ],
					"presentation" : 1,
					"numoutlets" : 1,
					"id" : "obj-46",
					"outlettype" : [ "" ]
				}

			}
 ],
		"lines" : [ 			{
				"patchline" : 				{
					"source" : [ "obj-36", 0 ],
					"destination" : [ "obj-34", 0 ],
					"hidden" : 1,
					"midpoints" : [  ]
				}

			}
, 			{
				"patchline" : 				{
					"source" : [ "obj-3", 0 ],
					"destination" : [ "obj-34", 0 ],
					"hidden" : 1,
					"midpoints" : [ 107.5, 138.0, 7.5, 138.0 ]
				}

			}
, 			{
				"patchline" : 				{
					"source" : [ "obj-34", 0 ],
					"destination" : [ "obj-42", 0 ],
					"hidden" : 1,
					"midpoints" : [  ]
				}

			}
, 			{
				"patchline" : 				{
					"source" : [ "obj-29", 0 ],
					"destination" : [ "obj-30", 0 ],
					"hidden" : 1,
					"midpoints" : [  ]
				}

			}
, 			{
				"patchline" : 				{
					"source" : [ "obj-29", 1 ],
					"destination" : [ "obj-31", 0 ],
					"hidden" : 1,
					"midpoints" : [  ]
				}

			}
, 			{
				"patchline" : 				{
					"source" : [ "obj-29", 1 ],
					"destination" : [ "obj-6", 0 ],
					"hidden" : 1,
					"midpoints" : [ 281.5, 399.0, 244.5, 399.0 ]
				}

			}
, 			{
				"patchline" : 				{
					"source" : [ "obj-4", 1 ],
					"destination" : [ "obj-29", 0 ],
					"hidden" : 1,
					"midpoints" : [  ]
				}

			}
, 			{
				"patchline" : 				{
					"source" : [ "obj-1", 0 ],
					"destination" : [ "obj-4", 0 ],
					"hidden" : 1,
					"midpoints" : [  ]
				}

			}
, 			{
				"patchline" : 				{
					"source" : [ "obj-4", 0 ],
					"destination" : [ "obj-5", 0 ],
					"hidden" : 1,
					"midpoints" : [  ]
				}

			}
, 			{
				"patchline" : 				{
					"source" : [ "obj-30", 0 ],
					"destination" : [ "obj-6", 0 ],
					"hidden" : 1,
					"midpoints" : [  ]
				}

			}
, 			{
				"patchline" : 				{
					"source" : [ "obj-26", 0 ],
					"destination" : [ "obj-6", 1 ],
					"hidden" : 1,
					"midpoints" : [  ]
				}

			}
, 			{
				"patchline" : 				{
					"source" : [ "obj-5", 0 ],
					"destination" : [ "obj-31", 0 ],
					"hidden" : 1,
					"midpoints" : [ 170.5, 300.0, 356.5, 300.0 ]
				}

			}
, 			{
				"patchline" : 				{
					"source" : [ "obj-30", 0 ],
					"destination" : [ "obj-31", 0 ],
					"hidden" : 1,
					"midpoints" : [  ]
				}

			}
, 			{
				"patchline" : 				{
					"source" : [ "obj-31", 0 ],
					"destination" : [ "obj-25", 0 ],
					"hidden" : 1,
					"midpoints" : [  ]
				}

			}
, 			{
				"patchline" : 				{
					"source" : [ "obj-26", 0 ],
					"destination" : [ "obj-31", 1 ],
					"hidden" : 1,
					"midpoints" : [  ]
				}

			}
, 			{
				"patchline" : 				{
					"source" : [ "obj-28", 0 ],
					"destination" : [ "obj-44", 0 ],
					"hidden" : 0,
					"midpoints" : [  ]
				}

			}
, 			{
				"patchline" : 				{
					"source" : [ "obj-44", 0 ],
					"destination" : [ "obj-28", 0 ],
					"hidden" : 0,
					"midpoints" : [  ]
				}

			}
, 			{
				"patchline" : 				{
					"source" : [ "obj-32", 0 ],
					"destination" : [ "obj-39", 0 ],
					"hidden" : 0,
					"midpoints" : [  ]
				}

			}
, 			{
				"patchline" : 				{
					"source" : [ "obj-39", 0 ],
					"destination" : [ "obj-32", 0 ],
					"hidden" : 0,
					"midpoints" : [  ]
				}

			}
, 			{
				"patchline" : 				{
					"source" : [ "obj-33", 0 ],
					"destination" : [ "obj-15", 0 ],
					"hidden" : 0,
					"midpoints" : [  ]
				}

			}
, 			{
				"patchline" : 				{
					"source" : [ "obj-15", 0 ],
					"destination" : [ "obj-33", 0 ],
					"hidden" : 0,
					"midpoints" : [  ]
				}

			}
, 			{
				"patchline" : 				{
					"source" : [ "obj-37", 0 ],
					"destination" : [ "obj-13", 0 ],
					"hidden" : 0,
					"midpoints" : [  ]
				}

			}
, 			{
				"patchline" : 				{
					"source" : [ "obj-13", 0 ],
					"destination" : [ "obj-37", 0 ],
					"hidden" : 0,
					"midpoints" : [  ]
				}

			}
, 			{
				"patchline" : 				{
					"source" : [ "obj-43", 0 ],
					"destination" : [ "obj-11", 0 ],
					"hidden" : 0,
					"midpoints" : [  ]
				}

			}
, 			{
				"patchline" : 				{
					"source" : [ "obj-11", 0 ],
					"destination" : [ "obj-43", 0 ],
					"hidden" : 0,
					"midpoints" : [  ]
				}

			}
, 			{
				"patchline" : 				{
					"source" : [ "obj-45", 0 ],
					"destination" : [ "obj-9", 0 ],
					"hidden" : 0,
					"midpoints" : [  ]
				}

			}
, 			{
				"patchline" : 				{
					"source" : [ "obj-9", 0 ],
					"destination" : [ "obj-45", 0 ],
					"hidden" : 0,
					"midpoints" : [  ]
				}

			}
 ]
	}

}
