max v2;#N vpatcher 523 324 1098 683;#P origin 0 11;#P window setfont "Sans Serif" 9.;#P message 427 230 127 196617 ?namespace /adc.2/simul;#P newex 31 159 46 196617 r minuit;#P newex 140 321 75 196617 print udp-send;#P newex 104 159 89 196617 print udp-receive;#P newex 16 133 91 196617 udpreceive 9998;#P newex 16 321 120 196617 udpsend 127.0.0.1 7002;#P window setfont "Sans Serif" 12.;#N vpatcher 697 208 1343 758;#P window setfont "Sans Serif" 9.;#P newex 54 313 354 196617 t l l l l l;#P newex 54 338 44 196617 zl nth 5;#P newex 226 338 44 196617 zl nth 4;#P newex 140 338 44 196617 zl nth 3;#P newex 312 338 44 196617 zl nth 2;#P newex 398 338 44 196617 zl nth 1;#P window linecount 0;#P newex 54 72 293 196617 t s s;#P window linecount 2;#P newex 337 153 44 196617 zl slice 1;#P window linecount 1;#P newex 337 130 73 196617 t l 1;#P window linecount 2;#P newex 337 95 119 196617 regexp (\\\\/) @substitute " ";#P outlet 54 499 15 0;#P inlet 54 54 15 0;#P window linecount 1;#P newex 472 191 120 196617 sprintf refer /%s/state;#N coll /ch.2/state;#P newobj 472 284 83 196617 coll;#B color 5;#N coll /ch.2/params;#P newobj 54 284 53 196617 coll;#B color 5;#P newex 337 191 132 196617 sprintf refer /%s/params;#P newex 472 336 69 196617 route symbol;#P newex 472 365 72 196617 prepend value;#P newex 54 476 72 196617 prepend store;#P newex 398 365 68 196617 prepend type;#P window linecount 2;#P newex 312 365 74 196617 prepend default_value;#P window linecount 1;#P newex 140 417 73 196617 prepend range;#P newex 140 365 96 196617 pack 0 0;#P newex 54 365 85 196617 prepend dynamic;#P connect 12 0 17 0;#P connect 17 0 9 0;#P fasten 8 0 9 0 342 257 59 257;#P lcolor 8;#P connect 9 0 23 0;#P connect 23 0 22 0;#P connect 22 0 0 0;#P fasten 6 0 5 0 477 468 59 468;#P fasten 4 0 5 0 403 463 59 463;#P fasten 3 0 5 0 317 456 59 456;#P fasten 2 0 5 0 145 450 59 450;#P connect 0 0 5 0;#P connect 5 0 13 0;#P connect 23 1 20 0;#P connect 20 0 1 0;#P connect 1 0 2 0;#P connect 23 2 21 0;#P connect 21 0 1 1;#P connect 23 3 19 0;#P connect 19 0 3 0;#P fasten 17 1 14 0 342 92 342 92;#P connect 14 0 15 0;#P connect 15 0 16 0;#P connect 16 0 8 0;#P connect 23 4 18 0;#P connect 18 0 4 0;#P fasten 16 0 11 0 342 186 477 186;#P fasten 17 0 10 0 59 270 477 270;#P lcolor 15;#P connect 11 0 10 0;#P connect 10 0 7 0;#P connect 7 1 6 0;#P connect 7 0 6 0;#P pop;#P newobj 63 288 132 196620 p get_all_attributes;#B color 6;#N vpatcher 906 165 1250 566;#P origin -36 0;#P window setfont "Sans Serif" 9.;#P newex 68 290 40 196617 itoa;#P newex 27 269 51 196617 zl slice 1;#P newex 26 248 40 196617 atoi;#P newex 92 135 60 196617 t s s;#P newex 133 230 64 196617 sprintf /%s;#P newex 92 180 51 196617 zl slice 1;#P newex 92 160 142 196617 regexp (\\\\/) @substitute " ";#P newex 133 203 128 196617 regexp " " @substitute /;#P newex 133 291 45 196617 prepend;#P newex 183 250 62 196617 prepend set;#P newex 133 314 72 196617 prepend store;#P newex 92 112 69 196617 route symbol;#N coll /ch.2/params;#P newobj 12 92 254 196617 coll;#B color 5;#P newex 12 69 46 196617 t dump l;#P newex 12 47 130 196617 sprintf refer /%s/params;#P outlet 133 337 15 0;#P inlet 12 27 15 0;#P connect 0 0 2 0;#P connect 2 0 3 0;#P connect 3 0 4 0;#P connect 3 1 4 0;#P connect 12 0 14 0;#P connect 14 0 15 0;#P connect 15 1 16 0;#P connect 4 1 5 0;#P connect 5 0 13 0;#P connect 13 0 10 0;#P connect 10 0 11 0;#P connect 11 1 9 0;#P connect 9 0 12 0;#P connect 9 3 12 0;#P connect 16 0 8 0;#P connect 7 0 8 0;#P connect 8 0 6 0;#P fasten 4 3 1 0 260 334 138 334;#P connect 6 0 1 0;#P connect 13 1 7 0;#P pop;#P newobj 110 261 115 196620 p get_all_params;#B color 6;#N vpatcher 346 44 1142 728;#P origin 0 28;#P window setfont "Sans Serif" 9.;#P message 255 623 33 196617 clear;#P window setfont "Sans Serif" 12.;#P window linecount 1;#P comment 454 416 80 196620 submodules;#P window setfont "Sans Serif" 9.;#P newex 543 464 20 196617 t b;#P newex 543 485 36 196617 zl reg;#P newex 543 506 173 196617 sprintf %s.%ld/%s;#P newex 543 322 62 196617 t s s s;#P newex 543 441 47 196617 zl iter 1;#P newex 543 416 69 196617 route symbol;#P button 504 69 15 0;#P button 548 69 15 0;#P newex 612 127 142 196617 sprintf refer %s_submodules;#N coll m_submodules;#P newobj 543 394 53 196617 coll;#B color 5;#P button 47 28 15 0;#P window setfont "Sans Serif" 10.;#P comment 553 177 52 196618 x_config;#P outlet 135 639 15 0;#P inlet 83 8 15 0;#P window setfont "Sans Serif" 9.;#P newex 135 593 45 196617 prepend;#P newex 135 547 30 196617 t s s;#P newex 155 570 62 196617 prepend set;#P newex 135 616 72 196617 prepend store;#P newex 535 95 27 196617 t t t;#P newex 491 95 36 196617 t m m;#P newex 491 46 98 196617 sel movie tape;#P window setfont "Sans Serif" 12.;#P window linecount 2;#P comment 597 242 87 196620 numérote les instances;#P window setfont "Sans Serif" 9.;#P window linecount 1;#P newex 491 127 118 196617 sprintf refer %s_config;#P newex 543 277 172 196617 t b i;#P newex 595 344 78 196617 sprintf %s.%ld;#P newex 543 299 51 196617 zl reg;#P newex 513 255 40 196617 uzi;#P newex 513 235 18 196617 t i;#P newex 491 215 32 196617 sel 0;#P newex 558 204 69 196617 route symbol;#P window setfont "Sans Serif" 10.;#P window linecount 2;#P comment 374 210 117 196618 verifie s'il le nombre d'instance n'est pas 0;#P window setfont "Sans Serif" 9.;#P window linecount 1;#P newex 491 149 46 196617 t dump l;#N coll m_config;#T flags 1 0;#T store mov 2;#T store cam 1;#T store pict 2;#T store ch 4;#T store grid 2;#T store noiz 2;#T store boids 1;#T store nurbs 2;#T store plan 4;#T store net 0;#T store rec 1;#T store render 1;#P newobj 491 175 53 196617 coll;#B color 5;#P newex 261 340 31 196617 t s 0;#P newex 151 345 31 196617 t s 1;#P newex 116 405 29 196617 gate;#P window setfont "Sans Serif" 14.;#P window linecount 5;#P comment 258 51 155 196622 on aurait aussi pu partir du coll modules et demander ensuite s'ils appartenaient à movie ou à tape...;#P window setfont "Sans Serif" 12.;#P window linecount 2;#P comment 43 449 87 196620 numérote les instances;#P window setfont "Sans Serif" 9.;#P window linecount 1;#P newex 105 129 27 196617 t i b;#P newex 122 153 38 196617 zl reg;#P newex 83 107 32 196617 sel 0;#P newex 122 196 30 196617 t s s;#P newex 189 293 21 196617 t 1;#P newex 142 293 21 196617 t 2;#P newex 142 319 129 196617 gate 2;#P newex 142 272 57 196617 sel plugins;#P newex 142 250 51 196617 zl slice 1;#N coll tm_modules 1;#P newobj 142 228 92 196617 coll tm_modules 1;#B color 5;#P newex 135 377 78 196617 t b i;#P newex 135 454 78 196617 sprintf %s.%ld;#P newex 135 430 51 196617 zl reg;#P newex 105 354 40 196617 uzi;#P newex 133 74 69 196617 route symbol;#P newex 83 28 351 196617 t dump clear;#N coll tm_config 1;#T flags 1 0;#T store mapper 2;#T store oscsend 2;#T store oscreceive 2;#T store midi 1;#T store sensors 0;#T store ct 1;#T store enttec 0;#T store kroonde 0;#T store iz 0;#T store lanbox 0;#T store modul8 1;#T store mouse 1;#T store shutter 0;#T store wii 0;#T store lfo 1;#T store random 2;#T store cue-list 1;#T store tape 1;#T store movie 1;#T store light 1;#P newobj 83 49 161 196617 coll tm_config 1;#B color 5;#P window setfont "Sans Serif" 12.;#P window linecount 3;#P comment 207 250 174 196620 les plugins ne peuvent avoir qu'une instance et ne sont donc pas numérotés;#P window setfont "Sans Serif" 10.;#P window linecount 2;#P comment 163 153 117 196618 verifie s'il le nombre d'instance n'est pas 0;#P connect 46 0 3 0;#P connect 43 0 3 0;#P connect 3 0 2 0;#P connect 2 0 16 0;#P connect 16 1 18 0;#P connect 18 0 5 0;#P connect 23 1 21 0;#P connect 22 1 21 0;#P connect 18 1 17 0;#P connect 17 0 15 0;#P connect 2 1 4 0;#P connect 5 2 8 0;#P connect 8 0 21 1;#P connect 21 0 6 0;#P connect 6 0 7 0;#P connect 54 0 41 0;#P connect 32 0 41 0;#P connect 7 0 41 0;#P connect 40 0 42 0;#P connect 41 0 42 0;#P connect 42 0 39 0;#P connect 39 0 44 0;#P connect 3 1 44 0;#P connect 58 0 44 0;#P connect 15 1 9 0;#P connect 9 0 10 0;#P connect 10 0 11 0;#P connect 11 0 13 0;#P connect 13 0 12 0;#P fasten 14 0 12 0 194 314 147 314;#P connect 4 0 17 1;#P connect 12 0 22 0;#P connect 41 1 40 0;#P connect 22 0 6 1;#P connect 11 1 14 0;#P connect 8 1 7 1;#P fasten 15 0 12 1 127 220 266 220;#P lcolor 2;#P connect 12 1 23 0;#P connect 23 0 36 0;#P connect 36 0 37 0;#P connect 50 0 37 0;#P connect 38 0 34 0;#P connect 37 0 34 0;#P connect 34 0 25 0;#P fasten 25 0 24 0 496 172 496 172;#P fasten 25 1 24 0 532 172 496 172;#P connect 24 0 28 0;#P connect 28 1 29 0;#P connect 29 0 30 0;#P connect 36 1 38 0;#P connect 49 0 38 0;#P connect 30 2 33 0;#P connect 33 0 31 0;#P connect 31 0 53 0;#P connect 48 0 47 0;#P connect 53 0 47 0;#P connect 47 0 51 0;#P connect 51 0 52 0;#P connect 51 1 52 0;#P connect 52 0 56 0;#P connect 56 0 55 0;#P connect 55 0 54 0;#P connect 24 1 27 0;#P connect 53 1 55 1;#P connect 27 0 31 1;#P connect 53 2 32 0;#P connect 38 1 48 0;#P connect 37 1 48 0;#P connect 33 1 54 1;#P connect 33 1 32 1;#P fasten 52 0 54 2 548 461 656 461;#P pop;#P newobj 157 231 166 196620 p get_all_modules_names;#B color 6;#P window setfont "Sans Serif" 20.;#P newex 16 193 153 196628 OSC2minuit-15;#B color 6;#P window setfont "Sans Serif" 9.;#P newex 342 266 46 196617 s minuit;#P message 377 141 110 196617 ?get /filt.1/sw:range;#P message 365 122 115 196617 ?namespace /filt.1/sw;#P message 352 105 96 196617 ?namespace /filt.1;#P message 342 87 73 196617 ?namespace /;#P message 415 213 135 196617 ?namespace /mov.2/dim/y;#P message 404 195 125 196617 ?namespace /mov.1/loop;#P message 394 175 101 196617 ?namespace /mov.1;#P window setfont "Sans Serif" 18.;#P user ubumenu 10 30 120 196626 0 1 1 0;#X add init;#X add cue1;#X add cue2;#X add cue3;#X prefix_set 0 0 <none> 0;#P window setfont "Sans Serif" 9.;#P newex 6 115 120 196617 udpsend 127.0.0.1 7002;#P window setfont "Sans Serif" 14.;#P message 70 64 24 196622 fin;#P message 6 64 51 196622 debut;#P user textedit 134 22 348 57 32896 3 14 filtinit;#P window setfont "Sans Serif" 12.;#N vpatcher 30 89 291 287;#P button 146 58 15 0;#P window setfont "Sans Serif" 9.;#P newex 172 69 51 196617 tosymbol;#P newex 172 48 56 196617 route text;#P button 11 58 15 0;#P newex 146 101 36 196617 zl reg;#P newex 146 127 85 196617 sprintf /%s/end;#P newex 11 127 93 196617 sprintf /%s/start;#P newex 11 101 36 196617 zl reg;#P inlet 146 27 15 0;#P inlet 172 27 15 0;#P inlet 11 27 15 0;#P outlet 11 162 15 0;#P connect 1 0 8 0;#P connect 8 0 4 0;#P connect 4 0 5 0;#P fasten 6 0 0 0 151 153 16 153;#P connect 5 0 0 0;#P fasten 10 0 4 1 177 93 42 93;#P lcolor 2;#P connect 3 0 11 0;#P connect 11 0 7 0;#P connect 7 0 6 0;#P connect 2 0 9 0;#P connect 9 0 10 0;#P fasten 9 1 10 0 223 67 177 67;#P connect 10 0 7 1;#P pop;#P newobj 6 89 138 196620 p send cue;#B color 6;#P connect 2 0 0 0;#P connect 0 0 4 0;#P connect 19 0 14 0;#P connect 22 0 14 0;#P connect 14 0 18 0;#P fasten 17 0 14 1 68 312 333 312 333 179 68 179;#P connect 14 1 17 0;#P connect 3 0 0 1;#P fasten 19 0 20 0 21 154 109 154;#P fasten 16 0 14 2 115 285 328 285 328 183 115 183;#P connect 14 2 16 0;#P fasten 5 1 0 2 70 60 139 60;#P connect 1 0 0 2;#P fasten 14 0 21 0 21 316 145 316;#P fasten 15 0 14 3 162 256 325 256 325 187 162 187;#P connect 14 3 15 0;#P fasten 23 0 13 0 432 255 347 255;#P fasten 6 0 13 0 399 228 347 228;#P fasten 8 0 13 0 420 247 347 247;#P fasten 7 0 13 0 409 238 347 238;#P fasten 9 0 13 0 347 184 347 184;#P fasten 10 0 13 0 357 193 347 193;#P fasten 11 0 13 0 370 201 347 201;#P fasten 12 0 13 0 382 211 347 211;#P pop;