max v2;#N vpatcher 57 73 882 579;#P window setfont "Sans Serif" 9.;#P hidden newex 271 44 95 196617 r bonjour_menu_in;#P hidden message 498 110 50 196617 set;#P comment 18 40 90 196617 available clients :;#B frgb 149 149 149;#P user umenu 134 38 100 196647 1 64 54 1;#X add;#P comment 19 20 41 196617 Name :;#B frgb 149 149 149;#P user textedit 62 17 137 36 98438 3 9 test;#P objectname name;#P hidden message 420 278 153 196617 $1_net_in;#P hidden newex 421 110 72 196617 pvar name 2;#P window linecount 2;#P hidden newex 421 161 241 196617 jcom.parameter service_name @type msg_symbol @description "bonjour name of this multicast core";#P objectname service_name;#P window linecount 1;#P hidden newex 421 134 56 196617 route text;#P hidden message 49 72 191 196617 /preset/store 1 default \, /preset/write;#B color 3;#P hidden newex 119 173 43 196617 jcom.in;#P hidden newex 119 221 45 196617 pcontrol;#P hidden newex 119 197 78 196617 jcom.pass open;#P window linecount 2;#P hidden message 23 364 65 196617 \; max refresh;#P window linecount 1;#P hidden message 185 89 31 196617 /init;#P hidden newex 119 278 88 196617 jalg.multicast.mxt;#P comment 157 20 47 196617 Port # :;#B frgb 149 149 149;#P number 199 19 35 9 0 0 8224 3 181 181 181 221 221 221 255 255 255 0 0 0;#P objectname port_nr;#P hidden newex 419 36 88 196617 pvar port_nr;#P window linecount 2;#P hidden newex 16 114 312 196617 jcom.hub jmod.multicast @size 1U-half @module_type control @description "Multicast bonjour device";#P objectname jcom.hub;#P hidden inlet 16 90 13 0;#P hidden outlet 16 316 13 0;#P hidden newex 418 56 243 196617 jcom.parameter port @repetitions 0 @type msg_int @description "port number for this multicast core";#P objectname port;#P window linecount 1;#P hidden message 225 279 153 196617 /service_name test;#P hidden newex 225 258 61 196617 prepend set;#P hidden message 56 89 125 196617 /documentation/generate;#B color 3;#P bpatcher 0 0 256 62 0 0 jcom.gui.mxt 0 $0_;#P objectname jcom.gui.audio-component.mxt;#P hidden fasten 17 0 7 0 54 110 21 110;#P hidden fasten 1 0 7 0 61 110 21 110;#P hidden connect 6 0 7 0;#P hidden fasten 12 0 7 0 190 110 21 110;#P hidden connect 7 0 5 0;#P hidden connect 16 0 14 0;#P hidden connect 14 0 15 0;#P hidden fasten 14 1 11 0 192 269 124 269;#P hidden connect 15 0 11 0;#P hidden connect 27 0 24 0;#P hidden fasten 14 1 2 0 192 249 230 249;#P hidden connect 2 0 3 0;#P hidden connect 8 0 4 0;#P hidden fasten 4 0 8 0 423 89 412 89 412 31 424 31;#P hidden fasten 19 0 20 0 426 195 413 195 413 105 426 105;#P hidden connect 26 0 20 0;#P hidden connect 20 0 18 0;#P hidden connect 18 0 19 0;#P pop;