max v2;#N vpatcher 317 163 1089 598;#P origin -7 -40;#P window setfont "Sans Serif" 9.;#P window linecount 1;#P hidden newex 12 130 173 196617 jcom.parameter file @type msg_list;#P objectname file;#P hidden newex 240 130 210 196617 jcom.message number_items @type msg_int;#P hidden newex 563 22 48 196617 loadbang;#P hidden newex 500 22 58 196617 r jcom.init;#P hidden newex 500 45 54 196617 onebang 1;#P user ubumenu 8 41 53 196617 0 1 1 0;#X add all;#X add audio;#X add video;#X add pictures;#X prefix_set 0 0 <none> 0;#X pattrmode 1;#P hidden newex 500 66 57 196617 t clear set;#P button 8 21 15 0;#P objectname bt_opendialog;#P hidden newex 323 25 76 196617 opendialog fold;#P user dropfile 25 22 253 40 0 fold;#P user textedit 23 21 253 39 32896 3 9 "Macintosh HD:/Users/alexanje/Movies/";#P user ubumenu 112 42 139 196617 0 1 1 0;#X add aashild-dans-front-cd.mov;#X add Capture.mov;#X add "Komet mot planet.mov";#X add latke_vr.mov;#X add noise1.mov;#X add track1.mov;#X add track2.mov;#X types "MOV " MooV "AVI ";#X prefix_set 0 1 "Macintosh HD:/Users/alexanje/Movies/" 0;#X pattrmode 1;#P objectname menu;#P number 69 41 35 9 0 0 8225 3 181 181 181 221 221 221 255 255 255 0 0 0;#P hidden message 69 61 48 196617 depth \$1;#P hidden newex 240 108 72 196617 route populate;#P hidden newex 387 51 74 196617 prepend prefix;#P hidden button 323 73 15 0;#P hidden newex 323 51 60 196617 prepend set;#P hidden newex 119 319 49 196617 jcom.out;#P hidden newex 119 267 45 196617 jcom.in;#P hidden message 38 178 125 196617 /documentation/generate;#P window linecount 2;#P hidden newex 16 203 357 196617 jcom.hub jmod.file_browser @size 1U-half @module_type control @description "Browsing and selecting files to send to audio or video players";#P objectname jcom.hub;#P hidden inlet 16 179 13 0;#P hidden outlet 16 316 13 0;#P bpatcher 0 0 256 62 0 0 jcom.gui.mxt 0 $0_;#P objectname jcom.gui.1Uh.a.stereo;#P hidden fasten 13 1 24 0 181 94 17 94;#P hidden fasten 4 0 3 0 43 197 21 197;#P hidden connect 2 0 3 0;#P hidden connect 3 0 1 0;#P hidden connect 7 0 14 0;#P lcolor 3;#P hidden connect 18 1 14 0;#P lcolor 3;#P hidden connect 8 0 14 0;#P lcolor 3;#P hidden connect 12 0 11 0;#P hidden connect 18 0 13 0;#P lcolor 3;#P hidden connect 11 0 13 0;#P lcolor 3;#P hidden connect 9 0 13 0;#P lcolor 3;#P hidden connect 13 2 10 0;#P hidden connect 10 0 23 0;#P hidden connect 17 0 16 0;#P lcolor 3;#P hidden connect 15 0 7 0;#P lcolor 3;#P hidden connect 16 0 7 0;#P hidden connect 7 0 8 0;#P hidden fasten 16 0 9 0 328 46 392 46;#P hidden connect 15 0 9 0;#P lcolor 3;#P hidden connect 21 0 20 0;#P hidden fasten 22 0 20 0 568 42 505 42;#P hidden connect 20 0 18 0;#P pop;