max v2;#N vpatcher 9 44 1260 717;#P origin -250 -343;#P window setfont "Sans Serif" 9.;#P user ubumenu 33 41 103 196617 0 0 1 0;#X prefix_set 0 0 <none> 0;#X pattrmode 1;#P objectname module_out;#P user ubumenu 33 21 103 196617 0 0 1 0;#X prefix_set 0 0 <none> 0;#X pattrmode 1;#P objectname module_in;#P hidden newex 108 183 43 196617 jcom.in;#P hidden comment 369 22 37 196617 data :;#B frgb 255 255 255;#P objectname in_com;#P hidden user textedit 403 41 508 58 98436 3 9 0 1000;#P objectname out_message;#P hidden comment 370 45 37 196617 data :;#B frgb 255 255 255;#P objectname out_com;#P hidden flonum 404 42 35 9 0 0 0 3 0 0 0 221 221 221 222 222 222 0 0 0;#P objectname out_value;#P hidden flonum 404 21 35 9 0 0 0 3 0 0 0 221 221 221 222 222 222 0 0 0;#P objectname in_value;#P hidden user textedit 403 19 508 36 98436 3 9 0;#P objectname in_message;#P window setfont "Sans Serif" 10.;#P number 116 21 20 10 1 1 99 3 0 0 0 221 221 221 222 222 222 0 0 0;#P objectname module_in#;#P window setfont "Sans Serif" 9.;#P user ubumenu 104 21 15 196617 0 0 1 0;#X add /;#X prefix_set 0 0 <none> 0;#X pattrmode 1;#P objectname in_slash;#P window setfont "Sans Serif" 10.;#P number 116 41 20 10 1 2 99 3 0 0 0 221 221 221 222 222 222 0 0 0;#P objectname module_out#;#P window setfont "Sans Serif" 9.;#P user ubumenu 104 41 15 196617 0 0 1 0;#X add /;#X prefix_set 0 0 <none> 0;#X pattrmode 1;#P objectname out_slash;#P window linecount 2;#P hidden newex 930 56 340 196617 jcom.parameter wait_time @repetitions 1 @type msg_float @description "Wait time before sending the output data";#P objectname wait_time;#P hidden newex 552 56 340 196617 jcom.parameter repeat_time @repetitions 1 @type msg_float @description "minimum time between two repetitions";#P objectname repeat_time;#P window linecount 1;#P hidden newex 930 30 57 196617 pvar wait;#P hidden newex 552 36 57 196617 pvar tgate;#P flonum 349 2 35 9 0 0 0 3 0 0 0 221 221 221 222 222 222 0 0 0;#P objectname wait;#P flonum 473 2 35 9 0 0 0 3 0 0 0 221 221 221 222 222 222 0 0 0;#P objectname tgate;#P comment 387 3 87 196617 Repeat time (s) :;#B frgb 255 255 255;#P comment 277 3 76 196617 Wait time (s) :;#B frgb 255 255 255;#N vpatcher 250 148 1039 459;#P origin 24 0;#P window setfont "Sans Serif" 9.;#P number 44 45 35 9 0 0 0 3 0 0 0 221 221 221 222 222 222 0 0 0;#P outlet 329 247 15 0;#P window linecount 2;#P message 329 199 177 196617 script hide out_message \, script hide out_value \, script hide out_com;#P message 366 101 323 196617 script hide out_message \, script show out_value \, script bringtofront out_value \, script show out_com \, script bringtofront out_com;#P message 477 145 322 196617 script show out_message \, script hide out_value \, script bringtofront out_message \, script show out_com \, script bringtofront in_com;#P window linecount 1;#P newex 329 67 195 196617 sel 0 1 3 4 2;#P outlet 16 235 15 0;#P window linecount 2;#P message 16 175 167 196617 script hide in_message \, script hide in_value \, script hide in_com;#P window linecount 3;#P message 53 104 222 196617 script hide in_message \, script show in_value \, script bringtofront in_value \, script show in_com \, script bringtofront in_com;#P window linecount 0;#P message 200 151 118 196617 script show in_message \, script hide in_value \, script bringtofront in_message \, script show in_com \, script bringtofront in_com;#P newex 16 72 243 196617 sel 0 1 3 4 2;#P inlet 329 45 15 0;#P inlet 16 45 15 0;#P connect 0 0 2 0;#P connect 2 0 5 0;#P fasten 3 0 6 0 205 231 21 231;#P fasten 4 0 6 0 58 211 21 211;#P connect 5 0 6 0;#P connect 0 0 12 0;#P connect 2 3 4 0;#P connect 2 2 4 0;#P connect 2 1 4 0;#P connect 2 4 3 0;#P connect 1 0 7 0;#P connect 7 0 10 0;#P connect 10 0 11 0;#P fasten 9 0 11 0 371 231 334 231;#P fasten 8 0 11 0 482 238 334 238;#P connect 7 1 9 0;#P connect 7 2 8 0;#P connect 7 4 8 0;#P pop;#P hidden newobj 1146 447 65 196617 p show_hide;#P comment 236 44 44 196617 action :;#B frgb 255 255 255;#P comment 236 22 44 196617 action :;#B frgb 255 255 255;#P hidden newex 240 561 72 196617 pvar in_value;#P hidden newex 240 533 86 196617 pvar in_message;#P hidden newex 118 561 78 196617 pvar out_value;#P hidden newex 118 533 92 196617 pvar out_message;#P hidden newex 929 385 127 196617 pvar module_in_action;#P window linecount 2;#P hidden newex 929 408 312 196617 jcom.parameter module_in_action @repetitions 1 @type msg_int @description "Destination module of the mapping";#P objectname module_in_action[1];#P window linecount 1;#P hidden newex 933 488 56 196617 route text;#P hidden newex 933 564 72 196617 pvar in_value;#P window linecount 2;#P hidden newex 933 589 312 196617 jcom.parameter in_value @repetitions 1 @type msg_float @description "Message sent to output";#P objectname in_value[1];#P window linecount 1;#P hidden newex 933 466 86 196617 pvar in_message;#P window linecount 2;#P hidden newex 933 513 312 196617 jcom.parameter in_message @repetitions 1 @type generic @description "Message sent to output";#P objectname in_message[1];#P window linecount 1;#P hidden newex 927 120 127 196617 pvar module_out_action;#P window linecount 2;#P hidden newex 927 143 312 196617 jcom.parameter module_out_action @repetitions 1 @type msg_int @description "Destination module of the mapping";#P objectname module_out_action[1];#P window linecount 1;#P hidden newex 931 223 56 196617 route text;#P hidden newex 931 299 78 196617 pvar out_value;#P window linecount 2;#P hidden newex 931 324 312 196617 jcom.parameter out_value @repetitions 1 @type msg_float @description "value sent to output";#P objectname out_value[1];#P window linecount 1;#P hidden newex 931 201 92 196617 pvar out_message;#P window linecount 2;#P hidden newex 931 248 312 196617 jcom.parameter out_message @repetitions 1 @type generic @description "Message sent to output";#P objectname out_message[1];#P user ubumenu 276 41 83 196617 0 0 1 0;#X add impulsion;#X add value;#X add message;#X add counter;#X prefix_set 0 0 <none> 0;#X pattrmode 1;#P objectname module_out_action;#P user ubumenu 276 20 83 196617 0 0 1 0;#X add impulsion;#X add select value;#X add select message;#X add threshold up;#X add threshold down;#X prefix_set 0 0 <none> 0;#X pattrmode 1;#P objectname module_in_action;#P window linecount 1;#P hidden newex 297 369 86 196617 pvar module_in#;#P hidden newex 166 348 88 196617 pvar module_out#;#N thispatcher;#Q end;#P hidden newobj 207 421 61 196617 thispatcher;#P comment 1 30 514 196617 ____________________________________________________________________________________;#P hidden newex 297 349 95 196617 pvar module_in_fct;#P hidden newex 156 367 104 196617 pvar module_out_fct;#P hidden newex 554 494 107 196617 pvar module_in_fct 2;#P window linecount 2;#P hidden newex 554 519 347 196617 jcom.parameter module_in_function @repetitions 1 @type menu @description "Source module function of the mapping";#P objectname module_in_function;#P window linecount 1;#P hidden newex 551 266 113 196617 pvar module_out_fct 2;#P window linecount 2;#P hidden newex 551 291 353 196617 jcom.parameter module_out_function @repetitions 1 @type menu @description "Destination function of the mapping";#P objectname module_out_function;#P user ubumenu 135 21 90 196617 0 0 1 0;#X add /preset/out;#X add /module/size;#X add /button;#X add /position_x;#X add /position_y;#X add /delta_x;#X add /delta_y;#X add /delta_mag;#X add /delta_angle;#X add <separator>;#X add /mouse_menu;#X add /mouse_on;#X add /clock/set;#X add /ui/freeze;#X prefix_set 0 0 <none> 0;#X pattrmode 1;#P objectname module_in_fct;#P user ubumenu 135 41 90 196617 0 0 1 0;#X add /audio/gain/midi;#X add /audio/meters/freeze;#X add /audio/mix;#X add /audio/bypass;#X add /audio/mute;#X add /audio/sample_rate;#X add /ui/freeze;#X add /clock/set;#X add /preamp;#X add /postamp;#X add /threshold;#X add /lookahead;#X add /release;#X add /mode;#X add <separator>;#X add /module/init;#X add /documentation/help;#X add /documentation/html;#X add /module/size/get;#X add /preset/store;#X add /preset/recall;#X add /preset/direct;#X add /preset/load;#X add /preset/save;#X add /audio/meters/clear;#X add /audio/gain/dec;#X add /audio/gain/inc;#X add /audio/gain;#X prefix_set 0 0 <none> 0;#X pattrmode 1;#P objectname module_out_fct;#P window linecount 1;#P hidden newex 402 327 88 196617 pvar module_in;#P hidden newex 552 413 88 196617 pvar module_in#;#P window linecount 2;#P hidden newex 552 436 340 196617 jcom.parameter module_in_nr @repetitions 1 @type msg_int @description "Source module instance of the mapping";#P objectname module_in_nr;#P window linecount 1;#P hidden newex 552 341 94 196617 pvar module_in 2;#P window linecount 2;#P hidden newex 552 366 312 196617 jcom.parameter module_in @repetitions 1 @type menu @description "Source module of the mapping";#P objectname module_in[1];#P window linecount 1;#P hidden newex 552 187 88 196617 pvar module_out#;#P window linecount 2;#P hidden newex 552 210 340 196617 jcom.parameter module_out_nr @repetitions 1 @type msg_int @description "Destination module instance of the mapping";#P objectname module_out_nr;#P window linecount 1;#P hidden newex 552 117 94 196617 pvar module_out 2;#P hidden newex 411 306 88 196617 pvar module_out;#P comment 8 43 23 196617 Out;#B frgb 255 255 255;#P hidden newex 108 227 45 196617 pcontrol;#P hidden newex 108 205 78 196617 jcom.pass open;#P hidden message 39 113 125 196617 /documentation/generate;#P window linecount 2;#P hidden message 17 430 65 196617 \; max refresh;#P hidden message 17 393 75 196617 \; jcom.init bang;#P window linecount 1;#N vpatcher 168 267 769 623;#P origin 0 3;#P window setfont "Sans Serif" 9.;#N vpatcher 32 131 1155 605;#P window setfont "Sans Serif" 9.;#P window linecount 1;#P message 823 347 55 196617 setmin \$1;#P newex 838 313 47 196617 unpack;#N counter;#X flags 0 0;#P newobj 790 374 109 196617 counter;#P window linecount 0;#P newex 692 291 50 196617 * 1000.;#P newex 541 320 161 196617 del 0;#P newex 599 269 196 196617 jcom.oscroute /repeat_time /wait_time;#N vpatcher 10 59 250 273;#P window setfont "Sans Serif" 9.;#P window linecount 0;#P newex 146 92 50 196617 * 1000.;#P inlet 146 63 15 0;#P outlet 98 105 15 0;#P window linecount 1;#P newex 31 145 22 196617 t 1;#P newex 30 83 78 196617 t b 0 b;#P newex 31 123 125 196617 del 0;#P newex 30 60 50 196617 gate 1 1;#P inlet 70 38 15 0;#P fasten 4 0 1 0 36 169 26 169 26 53 35 53;#P connect 3 1 1 0;#P connect 1 0 3 0;#P connect 3 0 2 0;#P connect 2 0 4 0;#P connect 0 0 1 1;#P connect 3 2 5 0;#P connect 6 0 7 0;#P connect 7 0 2 1;#P pop;#P newobj 541 297 68 196617 p tgate;#P newex 43 214 27 196617 + 1;#P newex 157 112 27 196617 + 1;#P inlet 43 61 15 0;#P newex 329 243 509 196617 jcom.oscroute /out_value /out_message;#P newex 43 82 586 196617 jcom.oscroute /module_out_action /module_in_action /in_message /in_value;#P newex 541 376 47 196617 zl reg;#P newex 541 204 20 196617 t b;#P newex 541 158 70 196617 > 0.;#P newex 541 180 60 196617 change 0 -;#P newex 445 204 20 196617 t b;#P newex 445 160 65 196617 > 0.;#P newex 445 182 60 196617 change 0 +;#P inlet 556 139 15 0;#P newex 292 372 47 196617 f;#P newex 43 371 20 196617 t b;#P outlet 43 410 15 0;#P newex 43 344 758 196617 gate 4;#P newex 197 113 417 196617 gate 5;#P newex 157 160 20 196617 t b;#P newex 157 137 396 196617 gate 5;#P newex 253 180 32 196617 sel 1;#P newex 253 158 55 196617 == 0.;#P newex 349 181 32 196617 sel 1;#P newex 349 160 60 196617 jcom.equals;#P connect 21 0 19 0;#P connect 19 0 23 0;#P connect 23 0 7 0;#P connect 7 0 9 0;#P fasten 28 0 8 0 795 400 48 400;#P connect 9 0 8 0;#P fasten 10 0 8 0 297 400 48 400;#P fasten 18 0 8 0 546 400 48 400;#P connect 19 1 22 0;#P connect 22 0 4 0;#P connect 4 0 5 0;#P connect 22 0 6 0;#P connect 4 1 2 0;#P connect 2 0 3 0;#P connect 7 1 10 0;#P connect 6 1 2 1;#P fasten 19 4 20 0 624 235 334 235;#P connect 20 0 10 1;#P connect 4 2 0 0;#P connect 0 0 1 0;#P connect 6 2 0 1;#P connect 4 3 13 0;#P connect 13 0 12 0;#P connect 12 0 14 0;#P connect 6 3 13 1;#P connect 4 4 16 0;#P connect 16 0 15 0;#P connect 15 0 17 0;#P connect 17 0 24 0;#P fasten 14 0 24 0 450 231 546 231;#P fasten 1 0 24 0 354 231 546 231;#P fasten 3 0 24 0 258 231 546 231;#P fasten 5 0 24 0 162 231 546 231;#P connect 24 0 26 0;#P connect 7 2 18 0;#P connect 11 0 4 1;#P connect 20 1 18 1;#P fasten 20 2 25 0 832 265 604 265;#P connect 25 0 24 1;#P connect 6 4 16 1;#P connect 19 3 6 1;#P connect 19 2 6 1;#P connect 25 1 27 0;#P connect 27 0 26 1;#P connect 30 0 28 0;#P connect 7 3 28 0;#P fasten 26 0 7 1 546 340 796 340;#P connect 29 0 30 0;#P connect 20 1 29 0;#P connect 29 1 28 4;#P pop;#P newobj 148 202 50 196617 p engine;#N comlet to in #;#P outlet 524 128 15 0;#N vpatcher 724 44 1262 719;#P origin 0 -15;#P window setfont "Sans Serif" 9.;#P window linecount 1;#P newex 353 289 67 196617 prepend set;#P newex 271 163 60 196617 loadmess -1;#P message 294 563 31 196617 0. 1.;#P newex 28 393 47 196617 gate 1 1;#P newex 28 414 119 196617 t s 0 clear;#P newex 151 72 65 196617 jcom.change;#P newex 255 372 83 196617 t b s;#P outlet 114 637 15 0;#P newex 114 615 134 196617 sprintf set /jcom_from%s;#P newex 353 188 32 196617 sel 1;#P newex 241 185 40 196617 change;#N comlet to thispatcher;#P outlet 291 264 15 0;#N vpatcher 214 154 710 327;#P window setfont "Sans Serif" 9.;#P newex 69 45 50 196617 loadbang;#P outlet 28 111 15 0;#P message 218 63 234 196617 script size module_in 72 16 \, script bringtofront in_slash \, script bringtofront module_in#;#P inlet 218 36 15 0;#P inlet 28 44 15 0;#P message 28 67 151 196617 script size module_in 103 16 \, script bringtofront module_in;#P connect 1 0 0 0;#P connect 5 0 0 0;#P fasten 3 0 4 0 223 100 33 100;#P connect 0 0 4 0;#P connect 2 0 3 0;#P pop;#P newobj 291 239 45 196617 p script;#N comlet to nr;#P outlet 353 329 15 0;#P newex 382 253 67 196617 prepend max;#P newex 382 232 25 196617 i;#P newex 291 212 44 196617 sel 0 1;#P newex 65 260 96 196617 gate 2 1;#P newex 151 94 191 196617 t s s 1;#P newex 241 116 80 196617 prepend symbol;#N coll jcom.modules_instances 1;#P newobj 241 138 144 196617 coll jcom.modules_instances 1;#P newex 65 340 96 196617 switch 2 1;#P newex 241 210 27 196617 + 1;#P newex 65 295 58 196617 sprintf %s;#P newex 185 260 42 196617 t b i;#P newex 241 163 27 196617 > 0;#P newex 151 294 76 196617 sprintf %s/%s;#P inlet 185 242 13 0;#P newex 353 211 39 196617 t 1 b;#P inlet 294 477 15 0;#P newex 294 497 47 196617 gate 1 0;#P newex 294 540 64 196617 route default;#N comlet to in_max;#P outlet 346 612 15 0;#N comlet to in_min;#P outlet 294 613 15 0;#P newex 294 589 62 196617 unpack 0. 0.;#P newex 294 519 62 196617 route range;#P newex 255 450 86 196617 zl slice 1;#N vpatcher 10 59 395 304;#P window setfont "Sans Serif" 9.;#P window linecount 0;#P newex 267 163 50 196617 zl rev;#P newex 267 45 50 196617 zl rev;#P window linecount 2;#P newex 60 95 202 196617 sel name kind current_state type range clipmode ramp repetitions description;#P window linecount 1;#P newex 267 142 67 196617 zl group 256;#P newex 267 65 25 196617 iter;#P outlet 267 186 15 0;#P inlet 267 26 15 0;#P fasten 2 0 4 0 272 86 65 86;#P connect 0 0 5 0;#P connect 5 0 2 0;#P connect 2 0 3 0;#P fasten 4 0 3 0 65 133 272 133;#P fasten 4 1 3 0 86 133 272 133;#P fasten 4 2 3 0 107 133 272 133;#P fasten 4 3 3 0 128 133 272 133;#P fasten 4 4 3 0 149 133 272 133;#P fasten 4 5 3 0 170 133 272 133;#P fasten 4 6 3 0 191 133 272 133;#P fasten 4 7 3 0 212 133 272 133;#P fasten 4 8 3 0 233 133 272 133;#P connect 3 0 6 0;#P connect 6 0 1 0;#P pop;#P newobj 331 475 35 196617 p iter;#N coll jcom.namespace 1;#P newobj 255 426 111 196617 coll jcom.namespace 1;#P newex 255 403 83 196617 sprintf %s%s;#P inlet 255 350 15 0;#P newex 28 502 50 196617 zl iter 1;#P newex 28 436 80 196617 prepend symbol;#P newex 136 550 50 196617 jcom.thru;#P newex 65 367 173 196617 t s s;#P newex 28 523 78 196617 prepend append;#P window linecount 3;#N coll jcom.trig_mapper_ins 1;#P newobj 28 457 72 196617 coll jcom.trig_mapper_ins 1;#N comlet to module in function menu;#P outlet 136 572 15 0;#P inlet 151 53 15 0;#P window linecount 10;#P comment 35 44 46 196617 this is to avoid the function menu to change when only the instance number changes;#P connect 45 1 46 0;#P fasten 31 2 46 0 336 120 354 120 354 43 33 43;#P connect 46 0 45 0;#P connect 45 0 7 0;#P connect 7 0 3 0;#P connect 3 0 8 0;#P connect 8 0 4 0;#P connect 27 0 32 0;#P connect 32 0 26 0;#P fasten 27 0 28 0 246 328 70 328;#P connect 28 0 5 0;#P connect 5 0 46 1;#P connect 26 0 28 1;#P fasten 10 0 41 0 260 423 242 423 242 603 119 603;#P connect 41 0 42 0;#P connect 45 2 6 0;#P fasten 4 0 6 0 33 545 141 545;#P connect 6 0 2 0;#P connect 1 0 44 0;#P connect 44 0 31 0;#P connect 31 0 32 1;#P connect 32 1 23 0;#P connect 25 0 23 0;#P connect 23 0 28 2;#P connect 22 0 25 0;#P fasten 21 0 23 1 358 282 222 282;#P connect 25 1 23 1;#P connect 31 1 30 0;#P connect 30 0 29 0;#P connect 29 0 24 0;#P connect 24 0 39 0;#P fasten 48 0 39 0 276 182 246 182;#P connect 39 0 27 0;#P connect 9 0 43 0;#P connect 43 0 10 0;#P connect 5 1 10 0;#P connect 10 0 11 0;#P connect 11 0 13 0;#P fasten 39 0 33 0 246 206 296 206;#P connect 33 0 37 0;#P connect 37 0 38 0;#P connect 20 0 19 0;#P connect 19 0 14 0;#P connect 14 0 18 0;#P connect 18 0 47 0;#P fasten 18 1 15 0 353 582 299 582;#P connect 47 0 15 0;#P connect 15 0 16 0;#P connect 33 1 37 1;#P connect 43 1 10 1;#P connect 13 1 12 0;#P connect 12 0 19 1;#P connect 15 1 17 0;#P fasten 24 0 40 0 246 182 358 182;#P connect 40 0 21 0;#P connect 21 0 49 0;#P fasten 35 0 36 0 387 314 358 314;#P connect 49 0 36 0;#P connect 21 1 34 0;#P connect 34 0 35 0;#P fasten 29 0 34 1 246 159 402 159;#P pop;#P newobj 289 102 245 196617 p adress_in;#N comlet to thispatcher;#P outlet 383 128 15 0;#N comlet to module out instance number;#P outlet 265 125 15 0;#N comlet to thispatcher;#P outlet 148 127 15 0;#N comlet to in_max;#P outlet 477 128 15 0;#N comlet to in_min;#P outlet 430 128 15 0;#N comlet to module out function menu;#P outlet 226 126 15 0;#N comlet to module out function menu;#P outlet 187 126 15 0;#N comlet to module out function menu;#P outlet 109 127 15 0;#P newex 31 238 50 196617 forward;#P newex 188 159 50 196617 receive;#N comlet to module out function menu;#P outlet 70 126 15 0;#N vpatcher 699 72 1237 747;#P origin 0 -15;#P window setfont "Sans Serif" 9.;#P window linecount 1;#P newex 353 290 67 196617 prepend set;#P window linecount 0;#P newex 271 163 60 196617 loadmess -1;#P window linecount 1;#P newex 438 518 60 196617 route ramp;#P window linecount 2;#P newex 352 537 45 196617 prepend symbol;#P window linecount 1;#P newex 438 537 68 196617 s ramp;#P outlet 352 570 15 0;#P newex 284 517 147 196617 route range clipmode;#P window linecount 0;#P message 284 562 31 196617 0. 1.;#P window linecount 1;#P newex 28 393 47 196617 gate 1 1;#P newex 28 414 119 196617 t s 0 clear;#P newex 151 72 65 196617 jcom.change;#P newex 281 365 83 196617 t b s;#P outlet 123 624 15 0;#P newex 123 602 121 196617 sprintf send /jcom_to%s;#P newex 353 188 32 196617 sel 1;#P newex 241 185 40 196617 change;#P outlet 292 262 15 0;#N vpatcher 335 79 831 252;#P window setfont "Sans Serif" 9.;#P newex 69 45 50 196617 loadbang;#P outlet 28 111 15 0;#P message 218 63 234 196617 script size module_out 72 16 \, script bringtofront out_slash \, script bringtofront module_out#;#P inlet 218 36 15 0;#P inlet 28 44 15 0;#P message 28 67 151 196617 script size module_out 103 16 \, script bringtofront module_out;#P connect 5 0 0 0;#P connect 1 0 0 0;#P connect 0 0 4 0;#P fasten 3 0 4 0 223 100 33 100;#P connect 2 0 3 0;#P pop;#P newobj 292 237 45 196617 p script;#P outlet 353 323 15 0;#P newex 382 253 67 196617 prepend max;#P newex 382 232 25 196617 i;#P newex 292 210 44 196617 sel 0 1;#P newex 65 260 96 196617 gate 2;#P newex 151 94 191 196617 t s s 1;#P newex 241 116 80 196617 prepend symbol;#N coll jcom.modules_instances 1;#P newobj 241 138 144 196617 coll jcom.modules_instances 1;#P newex 65 339 96 196617 switch 2 1;#P newex 241 210 27 196617 + 1;#P newex 65 295 58 196617 sprintf %s;#P newex 185 260 42 196617 t b i;#P newex 241 163 27 196617 > 0;#P newex 151 294 76 196617 sprintf %s/%s;#P inlet 185 242 13 0;#P newex 353 211 39 196617 t 1 b;#P inlet 284 470 15 0;#P window linecount 0;#P newex 284 496 47 196617 gate 1 0;#P window linecount 1;#P newex 284 539 64 196617 route default;#P outlet 336 611 15 0;#P outlet 284 612 15 0;#P newex 284 588 62 196617 unpack 0. 0.;#P newex 281 447 50 196617 zl slice 1;#N vpatcher 10 59 395 304;#P window setfont "Sans Serif" 9.;#P window linecount 0;#P newex 267 163 50 196617 zl rev;#P newex 267 45 50 196617 zl rev;#P window linecount 2;#P newex 60 95 202 196617 sel name kind current_state type range clipmode ramp repetitions description;#P window linecount 1;#P newex 267 142 67 196617 zl group 256;#P newex 267 65 25 196617 iter;#P outlet 267 186 15 0;#P inlet 267 26 15 0;#P fasten 2 0 4 0 272 86 65 86;#P connect 0 0 5 0;#P connect 5 0 2 0;#P fasten 4 8 3 0 233 133 272 133;#P fasten 4 7 3 0 212 133 272 133;#P fasten 4 6 3 0 191 133 272 133;#P fasten 4 5 3 0 170 133 272 133;#P fasten 4 4 3 0 149 133 272 133;#P fasten 4 3 3 0 128 133 272 133;#P fasten 4 2 3 0 107 133 272 133;#P fasten 4 1 3 0 86 133 272 133;#P fasten 4 0 3 0 65 133 272 133;#P connect 2 0 3 0;#P connect 3 0 6 0;#P connect 6 0 1 0;#P pop;#P newobj 321 469 35 196617 p iter;#N coll jcom.namespace 1;#P newobj 281 423 111 196617 coll jcom.namespace 1;#P newex 281 400 83 196617 sprintf %s%s;#P inlet 281 343 15 0;#P newex 28 502 50 196617 zl iter 1;#P newex 28 436 80 196617 prepend symbol;#P newex 136 550 50 196617 jcom.thru;#P newex 65 372 188 196617 t s s;#P newex 28 523 78 196617 prepend append;#P window linecount 3;#N coll jcom.trig_mapper_outs 1;#P newobj 28 457 72 196617 coll jcom.trig_mapper_outs 1;#P outlet 136 572 15 0;#P inlet 151 53 15 0;#P window linecount 0;#P comment 35 44 46 196617 this is to avoid the function menu to change when only the instance number changes;#P fasten 30 2 45 0 336 120 354 120 354 43 33 43;#P connect 44 1 45 0;#P connect 45 0 44 0;#P connect 44 0 7 0;#P connect 7 0 3 0;#P connect 3 0 8 0;#P connect 8 0 4 0;#P connect 26 0 31 0;#P connect 31 0 25 0;#P fasten 26 0 27 0 246 328 70 328;#P connect 27 0 5 0;#P connect 5 0 45 1;#P connect 25 0 27 1;#P fasten 10 0 40 0 286 420 251 420 251 590 128 590;#P connect 40 0 41 0;#P connect 44 2 6 0;#P fasten 4 0 6 0 33 545 141 545;#P connect 6 0 2 0;#P connect 1 0 43 0;#P connect 43 0 30 0;#P connect 30 0 31 1;#P connect 24 0 22 0;#P connect 31 1 22 0;#P connect 22 0 27 2;#P connect 21 0 24 0;#P fasten 20 0 22 1 358 283 222 283;#P connect 24 1 22 1;#P connect 30 1 29 0;#P connect 29 0 28 0;#P connect 28 0 23 0;#P connect 23 0 38 0;#P fasten 52 0 38 0 276 182 246 182;#P connect 38 0 26 0;#P connect 9 0 42 0;#P connect 42 0 10 0;#P connect 5 1 10 0;#P connect 10 0 11 0;#P connect 11 0 13 0;#P connect 19 0 18 0;#P connect 18 0 47 0;#P connect 47 0 17 0;#P connect 17 0 46 0;#P connect 46 0 14 0;#P fasten 17 1 14 0 343 581 289 581;#P connect 14 0 15 0;#P fasten 38 0 32 0 246 206 297 206;#P connect 32 0 36 0;#P connect 36 0 37 0;#P connect 13 1 12 0;#P connect 12 0 18 1;#P connect 32 1 36 1;#P connect 14 1 16 0;#P connect 47 1 50 0;#P connect 50 0 48 0;#P fasten 23 0 39 0 246 183 358 183;#P connect 39 0 20 0;#P connect 20 0 53 0;#P fasten 34 0 35 0 387 313 358 313;#P connect 53 0 35 0;#P connect 42 1 10 1;#P connect 20 1 33 0;#P connect 33 0 34 0;#P fasten 28 0 33 1 246 159 402 159;#P fasten 12 0 51 0 326 491 443 491;#P connect 51 0 49 0;#P pop;#P newobj 31 102 245 196617 p adress_out;#N comlet to module in function menu;#P outlet 336 128 15 0;#N vpatcher 256 243 481 471;#P window setfont "Sans Serif" 9.;#P window linecount 1;#N coll jcom.modules_instances 1;#P newobj 23 83 147 196617 coll jcom.modules_instances 1;#P button 118 37 15 0;#P newex 23 18 103 196617 r jcom.analysis.done;#P window linecount 0;#P newex 68 105 69 196617 route symbol;#P newex 41 38 72 196617 jcom.init;#P newex 68 160 50 196617 jcom.thru;#P newex 23 61 123 196617 t dump clear;#P newex 68 130 73 196617 prepend append;#P outlet 68 182 15 0;#P fasten 7 0 2 0 123 58 28 58;#P fasten 4 0 2 0 46 58 28 58;#P connect 6 0 2 0;#P connect 2 0 8 0;#P connect 8 1 5 0;#P connect 5 0 1 0;#P fasten 2 1 3 0 141 153 73 153;#P connect 1 0 3 0;#P connect 3 0 0 0;#P pop;#P newobj 442 240 78 196617 p module_menu;#P outlet 442 261 15 0;#P newex 31 54 530 196617 jcom.oscroute /module_out /module_out_nr /module_out_function /module_in /module_in_nr /module_in_function;#P outlet 3 206 15 0;#P inlet 31 30 15 0;#P connect 0 0 2 0;#P connect 2 0 6 0;#P connect 6 0 9 0;#P connect 20 0 9 0;#P connect 6 1 7 0;#P fasten 2 1 6 1 122 86 114 86;#P connect 6 2 10 0;#P connect 6 3 15 0;#P fasten 2 6 20 0 552 190 153 190;#P connect 2 2 6 2;#P connect 6 4 11 0;#P fasten 18 0 8 0 294 148 193 148;#P connect 8 0 20 1;#P connect 6 5 12 0;#P connect 6 6 16 0;#P connect 2 3 18 0;#P connect 18 1 5 0;#P connect 2 4 18 1;#P connect 18 2 17 0;#P connect 18 3 13 0;#P connect 4 0 3 0;#P connect 2 5 18 2;#P connect 18 4 14 0;#P connect 18 5 19 0;#P pop;#P hidden newobj 108 284 315 196617 p mapper;#P comment 8 23 16 196617 In;#B frgb 255 255 255;#P window linecount 3;#P hidden newex 17 139 192 196617 jcom.hub jmod.trig_mapper @size 1U @module_type control @description "One-to-one Mapper";#P objectname jcom.hub;#P hidden inlet 17 114 13 0;#P hidden outlet 17 340 13 0;#P window linecount 2;#P hidden newex 552 140 312 196617 jcom.parameter module_out @repetitions 1 @type menu @description "Destination module of the mapping";#P objectname module_out[1];#P window linecount 1;#P hidden message 194 259 196 196617 /documentation/html;#P hidden newex 194 235 61 196617 prepend set;#N thispatcher;#Q end;#P hidden newobj 1037 480 61 196617 thispatcher;#P bpatcher 0 0 511 61 0 0 jcom.gui.mxt 0;#P objectname jcom.gui.1Uh.a.stereo.mxt;#P hidden fasten 12 0 7 0 44 132 22 132;#P hidden connect 6 0 7 0;#P hidden fasten 9 0 5 0 113 333 22 333;#P hidden connect 7 0 5 0;#P connect 78 0 13 0;#P hidden connect 13 0 14 0;#P hidden fasten 13 1 9 0 181 275 113 275;#P hidden connect 14 0 9 0;#P hidden connect 9 1 31 0;#P hidden connect 9 6 35 0;#P hidden fasten 13 1 2 0 181 225 199 225;#P hidden connect 2 0 3 0;#P hidden fasten 9 8 34 0 313 413 212 413;#P hidden fasten 9 3 34 0 188 304 212 304;#P hidden fasten 9 7 32 0 288 303 302 303;#P hidden connect 9 12 36 0;#P hidden connect 9 10 24 0;#P hidden connect 9 10 16 0;#P hidden fasten 27 0 28 0 556 325 538 325 538 261 556 261;#P hidden fasten 28 1 27 0 659 287 556 287;#P hidden fasten 66 0 64 0 557 93 540 93 540 25 557 25;#P hidden connect 64 0 66 0;#P hidden fasten 4 0 17 0 557 173 540 173 540 109 557 109;#P hidden fasten 17 1 4 0 641 138 557 138;#P hidden fasten 18 0 19 0 542 245 542 180;#P hidden connect 19 0 18 0;#P hidden fasten 20 0 21 0 557 398 539 398 539 336 557 336;#P hidden fasten 21 1 20 0 641 362 557 362;#P hidden fasten 22 0 23 0 557 470 539 470 539 406 557 406;#P hidden connect 23 0 22 0;#P hidden fasten 29 0 30 0 559 552 541 552 541 489 559 489;#P hidden fasten 30 1 29 0 656 515 559 515;#P hidden fasten 44 0 45 0 932 178 917 178 917 109 932 109;#P hidden connect 45 0 44 0;#P hidden fasten 51 0 52 0 934 443 921 443 921 377 934 377;#P hidden connect 52 0 51 0;#P hidden fasten 67 0 65 0 935 94 921 94 921 21 935 21;#P hidden connect 65 0 67 0;#P hidden fasten 39 0 40 0 936 283 918 283 918 191 936 191;#P hidden connect 40 0 43 0;#P hidden connect 43 0 39 0;#P hidden fasten 41 0 42 0 936 359 921 359 921 296 936 296;#P hidden connect 42 0 41 0;#P hidden fasten 46 0 47 0 938 548 920 548 920 456 938 456;#P hidden connect 47 0 50 0;#P hidden connect 50 0 46 0;#P hidden fasten 48 0 49 0 938 624 923 624 923 561 938 561;#P hidden connect 49 0 48 0;#P hidden fasten 59 0 1 0 1151 472 1042 472;#P hidden fasten 59 1 1 0 1206 472 1042 472;#P hidden connect 51 1 59 0;#P hidden connect 44 1 59 1;#P pop;