max v2;#N vpatcher 159 140 994 589;#P origin 10 -64;#P window setfont "Sans Serif" 9.;#P window linecount 1;#P hidden newex 142 212 47 196617 pcontrol;#P hidden newex 142 188 37 196617 t open;#P hidden newex 142 164 151 196617 jcom.oscroute /open_inspector;#N vpatcher 293 125 527 542;#P origin 0 -20;#P window setfont "Sans Serif" 9.;#P window linecount 2;#P hidden newex 267 297 244 196617 jcom.parameter gdif/emotion/on @type msg_toggle @clipmode none @description "Turn data on";#P objectname gdif/emotion/on;#P hidden newex 267 250 264 196617 jcom.parameter gdif/performance/on @type msg_toggle @clipmode none @description "Turn data on";#P objectname gdif/performance/on;#P hidden newex 267 216 264 196617 jcom.parameter gdif/environment/on @type msg_toggle @clipmode none @description "Turn data on";#P objectname gdif/environment/on;#P hidden newex 267 181 258 196617 jcom.parameter gdif/instrument/on @type msg_toggle @clipmode none @description "Turn data on";#P objectname gdif/instrument/on;#P hidden newex 267 144 230 196617 jcom.parameter gdif/body/on @type msg_toggle @clipmode none @description "Turn data on";#P objectname gdif/body/on;#P hidden newex 267 92 239 196617 jcom.parameter gdif/cooked/on @type msg_toggle @clipmode none @description "Turn data on";#P objectname gdif/cooked/on;#P hidden newex 267 55 227 196617 jcom.parameter gdif/raw/on @type msg_toggle @clipmode none @description "Turn data on";#P objectname gdif/raw/on;#P window linecount 0;#P comment 36 284 100 196617 Meta;#P comment 36 233 100 196617 Functional;#P comment 36 140 100 196617 Descriptive;#P toggle 36 101 15 0;#P message 53 101 100 196617 /gdif/cooked/on \$1;#P toggle 36 300 15 0;#P message 53 300 105 196617 /gdif/emotion/on \$1;#P toggle 36 249 15 0;#P message 53 249 127 196617 /gdif/performance/on \$1;#P toggle 36 195 15 0;#P message 53 195 126 196617 /gdif/environment/on \$1;#P toggle 36 176 15 0;#P message 53 176 119 196617 /gdif/instrument/on \$1;#P toggle 36 157 15 0;#P message 53 157 91 196617 /gdif/body/on \$1;#P hidden newex 232 414 58 196617 r jmod.init;#P window linecount 1;#P hidden newex 277 387 40 196617 t front;#P hidden newex 277 366 151 196617 jcom.oscroute /open_inspector;#P toggle 36 79 15 0;#P message 53 79 88 196617 /gdif/raw/on \$1;#P hidden outlet 53 356 15 0;#P window setfont "Sans Serif" 12.;#P comment 36 34 86 196620 GDIF;#P hidden inlet 277 346 15 0;#P window setfont "Sans Serif" 9.;#P window linecount 0;#P hidden message 232 436 111 196617 patcher more features;#P window linecount 1;#N thispatcher;#Q end;#P hidden newobj 232 455 61 196617 thispatcher;#P comment 36 62 100 196617 Acquisition;#P hidden connect 7 0 6 0;#P hidden connect 22 0 21 0;#P hidden connect 12 0 11 0;#P hidden connect 14 0 13 0;#P hidden connect 16 0 15 0;#P hidden connect 18 0 17 0;#P hidden connect 20 0 19 0;#P hidden connect 19 0 5 0;#P hidden connect 17 0 5 0;#P hidden connect 15 0 5 0;#P hidden connect 13 0 5 0;#P hidden connect 11 0 5 0;#P hidden connect 6 0 5 0;#P hidden connect 21 0 5 0;#P hidden connect 10 0 2 0;#P hidden connect 9 0 1 0;#P hidden connect 2 0 1 0;#P hidden connect 3 0 8 0;#P hidden connect 8 0 9 0;#P pop;#P hidden newobj 142 236 60 196617 p inspector;#P objectname inspector;#P hidden newex 142 142 43 196617 jcom.in;#P hidden newex 496 124 91 196617 pvar mouse_menu;#P window linecount 2;#P hidden newex 496 146 258 196617 jcom.parameter mouse_menu @type msg_menu @clipmode none @description "Choose reference mode";#P objectname mouse_menu[1];#P user jsui 22 30 20 15 1 0 0 jcom.jsui_texttoggle.js off on;#P objectname mouse_on;#P user umenu 148 31 100 196647 1 64 47 1;#X add Screen;#X add Click;#P objectname mouse_menu;#P window linecount 1;#P hidden newex 493 44 78 196617 pvar mouse_on;#P window linecount 2;#P hidden newex 493 66 239 196617 jcom.parameter mouse_on @type msg_toggle @clipmode none @description "Turn polling on";#P objectname mouse_on[1];#P window linecount 1;#P hidden newex 283 212 45 196617 pcontrol;#P hidden newex 283 188 91 196617 jcom.pass open;#P hidden message 38 69 125 196617 /documentation/generate;#P window linecount 2;#P hidden message 16 229 66 196617 \; max refresh;#P hidden message 16 195 75 196617 \; jcom.init bang;#P window linecount 1;#P hidden newex 283 266 99 196617 jalg.mouse.gdif.mxt;#P window linecount 2;#P hidden newex 16 94 283 196617 jcom.hub jmod.mouse @size 1U-half @module_type control @inspector 1 @description "Output information from mouse";#P objectname jcom.hub;#P hidden inlet 16 70 13 0;#P hidden outlet 16 167 13 0;#P window linecount 1;#P comment 93 33 55 196617 Reference;#B frgb 255 255 255;#P bpatcher 0 0 256 62 0 0 jcom.gui.mxt 0;#P objectname jcom.gui.1Uh.a.stereo.mxt;#P hidden fasten 8 0 4 0 43 88 21 88;#P hidden connect 3 0 4 0;#P hidden connect 4 0 2 0;#P hidden connect 17 0 19 0;#P hidden connect 19 0 20 0;#P hidden connect 20 0 21 0;#P hidden connect 21 0 18 0;#P hidden connect 19 1 9 0;#P hidden connect 9 0 10 0;#P hidden fasten 9 1 5 0 369 232 288 232;#P hidden connect 10 0 5 0;#P hidden fasten 18 0 5 0 147 259 288 259;#P hidden fasten 11 0 12 0 498 99 486 99 486 39 498 39;#P hidden connect 12 0 11 0;#P hidden fasten 15 0 16 0 501 179 489 179 489 119 501 119;#P hidden connect 16 0 15 0;#P pop;