max v2;#N vpatcher 279 44 1115 767;#P origin 10 -64;#N comlet signal inlet (int/float);#P hidden inlet 518 21 15 0;#P window setfont "Sans Serif" 9.;#P window linecount 1;#P hidden newex 20 439 83 196617 pvar repetitions;#P window linecount 2;#P hidden newex 20 461 332 196617 jcom.parameter repetitions @type msg_toggle @clipmode none @description "Select whether repetitions should be filtered out or not.";#P objectname repetitions[1];#P window linecount 1;#P hidden newex 20 377 50 196617 pvar clip;#P window linecount 2;#P hidden newex 20 399 274 196617 jcom.parameter clip @type msg_toggle @clipmode none @description "Turn clipping on.";#P objectname clip[1];#P window linecount 1;#P hidden newex 20 252 66 196617 pvar smooth;#P window linecount 2;#P hidden newex 20 274 236 196617 jcom.parameter smooth @type msg_toggle @clipmode none @description "Turn smoothing on";#P objectname smooth[1];#P window linecount 1;#P hidden newex 20 314 95 196617 pvar smooth-value;#P window linecount 2;#P hidden newex 20 336 262 196617 jcom.parameter smooth/value @type msg_float @clipmode none @description "Smoothing value (slide).";#P objectname smooth/value;#P flonum 84 41 35 9 0 0 8224 3 149 149 149 221 221 221 222 222 222 0 0 0;#P objectname scale-input-min;#P window linecount 1;#P hidden newex 405 463 114 196617 pvar scale-output-max;#P window linecount 2;#P hidden newex 405 485 293 196617 jcom.parameter scale/output/max @type msg_float @clipmode none @description "Output maximum scaling value.";#P objectname scale/output/max;#P window linecount 1;#P hidden newex 405 400 111 196617 pvar scale-output-min;#P window linecount 2;#P hidden newex 405 422 283 196617 jcom.parameter scale/output/min @type msg_float @clipmode none @description "Input minimum scaling value.";#P objectname scale/output/min;#P window linecount 1;#P hidden newex 405 338 108 196617 pvar scale-input-max;#P window linecount 2;#P hidden newex 405 360 374 196617 jcom.parameter scale/input/max @type msg_float @clipmode none @description "Input maximum scaling value. Only works in manual scaling mode.";#P objectname scale/input/max;#P window linecount 1;#P hidden newex 405 276 105 196617 pvar scale-input-min;#P window linecount 2;#P hidden newex 405 298 371 196617 jcom.parameter scale/input/min @type msg_float @clipmode none @description "Input minimum scaling value. Only works in manual scaling mode.";#P objectname scale/input/min;#P flonum 190 41 35 9 0 0 8224 3 149 149 149 221 221 221 222 222 222 0 0 0;#P objectname scale-output-max;#P flonum 154 41 35 9 0 0 8224 3 149 149 149 221 221 221 222 222 222 0 0 0;#P objectname scale-output-min;#P flonum 119 41 35 9 0 0 8224 3 149 149 149 221 221 221 222 222 222 0 0 0;#P objectname scale-input-max;#P user umenu 6 42 74 196647 1 64 58 1;#X add no scale;#X add manual scale;#X add autoscale;#P objectname scale;#P hidden outlet 487 187 15 0;#P toggle 158 24 15 0;#P objectname repetitions;#P window linecount 1;#P comment 174 25 59 196617 repetitions;#B frgb 149 149 149;#P toggle 116 24 15 0;#P objectname clip;#P comment 132 25 24 196617 clip;#B frgb 149 149 149;#P toggle 7 23 15 0;#P objectname smooth;#P flonum 80 23 35 9 0. 0 8225 3 149 149 149 221 221 221 222 222 222 0 0 0;#P objectname smooth-value;#P hidden message 56 79 191 196617 /preset/store 1 default \, /preset/write;#B color 3;#P hidden message 63 96 125 196617 /documentation/generate;#B color 3;#P hidden newex 518 45 52 196617 jcom.in 1;#P comment 23 24 50 196617 smooth;#B frgb 149 149 149;#P hidden newex 405 213 57 196617 pvar scale;#P window linecount 2;#P hidden newex 405 235 274 196617 jcom.parameter scale @type msg_menu @clipmode none @description "Choose scaling mode: none - manual - auto.";#P objectname scale[1];#P window linecount 1;#P hidden newex 406 97 45 196617 pcontrol;#P hidden newex 406 76 91 196617 jcom.pass open;#P hidden newex 406 156 91 196617 jalg.condition.mxt;#P window linecount 2;#P hidden newex 17 130 348 196617 jcom.hub jmod.condition @size 1U-half @module_type control @description "Condition a continuous control signal: smooth - scale - clip - repeat.";#P objectname jcom.hub;#P hidden inlet 17 106 13 0;#P hidden outlet 17 203 13 0;#P window linecount 1;#P hidden message 563 141 153 196617 /smooth/value 2.;#P hidden newex 563 119 61 196617 prepend set;#P user hint 82 42 119 60 "Input minimum value (only in manual scaling mode)" 1000 100 0 65535 65535 52428 9 3 0 1 0 0 0;#P user hint 190 42 227 62 "Input maximum value" 1000 100 0 65535 65535 52428 9 3 0 1 0 0 0;#P user hint 155 42 188 61 "Output minimum value" 1000 100 0 65535 65535 52428 9 3 0 1 0 0 0;#P user hint 120 42 153 59 "Input maximum value (only in manual scaling mode)" 1000 100 0 65535 65535 52428 9 3 0 1 0 0 0;#P user hint 79 22 116 42 "Smoothing value" 1000 100 0 65535 65535 52428 9 3 0 1 0 0 0;#P window linecount 2;#P hidden message 62 191 66 196617 \; max refresh;#P bpatcher 0 0 256 62 0 0 jcom.gui.mxt 0;#P objectname jcom.gui.1Uh.a.stereo.mxt;#P hidden connect 10 0 11 0;#P hidden connect 20 0 11 0;#P hidden connect 19 0 11 0;#P hidden connect 11 0 9 0;#P hidden fasten 43 0 44 0 25 307 13 307 13 247 25 247;#P hidden connect 44 0 43 0;#P hidden fasten 41 0 42 0 25 369 13 369 13 309 25 309;#P hidden connect 42 0 41 0;#P hidden fasten 45 0 46 0 25 432 13 432 13 372 25 372;#P hidden connect 46 0 45 0;#P hidden fasten 47 0 48 0 25 494 13 494 13 434 25 434;#P hidden connect 48 0 47 0;#P hidden fasten 15 0 16 0 410 268 398 268 398 208 410 208;#P hidden connect 16 0 15 0;#P hidden fasten 32 0 33 0 410 331 398 331 398 271 410 271;#P hidden connect 33 0 32 0;#P hidden fasten 34 0 35 0 410 393 398 393 398 333 410 333;#P hidden connect 35 0 34 0;#P hidden fasten 36 0 37 0 410 455 398 455 398 395 410 395;#P hidden connect 37 0 36 0;#P hidden fasten 38 0 39 0 410 518 398 518 398 458 410 458;#P hidden connect 39 0 38 0;#P hidden connect 18 1 13 0;#P hidden connect 13 0 14 0;#P hidden fasten 13 1 12 0 492 119 411 119;#P hidden connect 14 0 12 0;#P hidden connect 18 0 12 1;#P hidden connect 12 1 27 0;#P hidden connect 49 0 18 0;#P hidden fasten 13 1 7 0 492 105 568 105;#P hidden connect 7 0 8 0;#P pop;