max v2;#N vpatcher 70 44 888 440;#P origin 10 -64;#P window setfont "Sans Serif" 9.;#P window linecount 1;#P hidden newex 170 182 43 196617 jcom.in;#P user umenu 184 28 39 196647 1 64 44 1;#X add 1000;#X add 500;#X add 100;#X add 50;#P hidden newex 476 231 90 196617 pvar sample_rate;#P window linecount 2;#P hidden newex 476 253 314 196617 jcom.parameter sample_rate @type msg_int @ramp 1 @repetitions 0 @range -1 1000 @clipmode low @description "Turn polling on";#P objectname sample_rate[1];#P number 143 28 35 9 -1 0 8225 3 0 0 0 221 221 221 222 222 222 0 0 0;#P objectname sample_rate;#P user jsui 47 27 20 15 1 0 0 jcom.jsui_texttoggle.js off on;#P objectname status;#P window linecount 1;#P hidden newex 476 158 49 196617 pvar init;#P window linecount 2;#P hidden newex 476 180 257 196617 jcom.message init @type generic @clipmode none @description "Initialization of devices";#P objectname jcom.parameter[3];#P window linecount 1;#P hidden newex 476 81 62 196617 pvar status;#P window linecount 2;#P hidden newex 476 103 223 196617 jcom.parameter status @type toggle @clipmode none @description "Turn polling on";#P objectname status[1];#P window linecount 1;#P hidden newex 170 229 45 196617 pcontrol;#P hidden newex 170 205 91 196617 jcom.pass open;#P hidden message 38 69 125 196617 /documentation/generate;#P window linecount 2;#P hidden message 16 229 66 196617 \; max refresh;#P hidden message 16 195 75 196617 \; jcom.init bang;#P window linecount 1;#P hidden newex 170 321 92 196617 jalg.polhemus.mxt;#P window linecount 2;#P hidden newex 16 94 329 196617 jcom.hub jmod.polhemus @size 1U-half @module_type control @description "Use polhemus.";#P objectname jcom.hub;#P hidden inlet 16 70 13 0;#P hidden outlet 16 167 13 0;#P window linecount 1;#P hidden message 276 288 153 196617 /hi_on 0;#P hidden newex 276 266 61 196617 prepend set;#P comment 88 30 63 196617 sample rate;#P bpatcher 0 0 256 62 0 0 jcom.gui.mxt 0 $0_;#P objectname jcom.gui.1Uh.a.stereo;#P hidden connect 5 0 6 0;#P hidden fasten 10 0 6 0 43 88 21 88;#P hidden connect 6 0 4 0;#P hidden connect 22 0 11 0;#P hidden connect 11 0 12 0;#P hidden fasten 11 1 7 0 256 257 175 257;#P hidden connect 12 0 7 0;#P hidden fasten 11 1 2 0 256 243 281 243;#P hidden connect 2 0 3 0;#P hidden fasten 13 0 14 0 481 136 469 136 469 76 481 76;#P hidden connect 14 0 13 0;#P hidden connect 16 0 15 0;#P hidden fasten 19 0 20 0 481 286 469 286 469 226 481 226;#P hidden connect 20 0 19 0;#P pop;