max v2;#N vpatcher 57 44 985 763;#P origin -15 -108;#P window setfont "Sans Serif" 9.;#P hidden newex 106 240 38 196617 jcom.in;#P hidden newex 482 631 57 196617 pvar clear;#P window linecount 2;#P hidden newex 482 653 335 196617 jcom.message clear @description "Reset by removing all existing mappings. ";#P user jsui 200 21 40 18 3 0 0 jsui_textbutton.js Clear;#P objectname clear;#P window linecount 1;#P hidden newex 106 262 78 196617 jcom.pass open;#P hidden newex 106 284 45 196617 pcontrol;#P user jsui 7 96 75 18 3 0 0 jsui_textbutton.js "Create mapping";#P objectname mapCreate;#P window linecount 2;#P hidden newex 66 439 267 196617 jcom.parameter mapToReturn @type msg_generic @description "Displays the currently active parameter";#P objectname mapToReturn[1];#P window linecount 1;#P hidden newex 66 419 93 196617 pvar mapToReturn;#P window linecount 2;#P hidden newex 66 381 267 196617 jcom.parameter mapFromReturn @type msg_generic @description "Displays the currently active parameter";#P objectname mapFromReturn[1];#P window linecount 1;#P hidden newex 66 361 105 196617 pvar mapFromReturn;#P hidden newex 482 608 326 196617 jcom.message mapCreate @description "Bang to create new mapping.";#P objectname jcom.parameter.mxt[6];#P hidden newex 482 585 82 196617 pvar mapCreate;#P window linecount 2;#P hidden newex 66 501 239 196617 jcom.parameter mapAlgorithm @type msg_generic @description "algorithm to use when mapping. ";#P objectname mapAlgorithm[1];#P window linecount 1;#P hidden newex 66 479 97 196617 pvar mapAlgorithm;#P window linecount 2;#P hidden newex 482 541 294 196617 jcom.parameter mapTo @type msg_toggle @description "Turn on the listen function for values that you want to map to.";#P objectname mapTo[1];#P window linecount 1;#P hidden newex 482 518 63 196617 pvar mapTo;#P window linecount 2;#P hidden newex 482 478 306 196617 jcom.parameter mapFrom @type msg_toggle @description "Turn on the listen function for values that you want to map from.";#P objectname mapFrom[1];#P window linecount 1;#P hidden newex 482 455 75 196617 pvar mapFrom;#P comment 111 100 55 196617 Algorithm;#B frgb 255 255 255;#P user textedit 166 98 248 115 98470 3 9 * 1.3;#P objectname mapAlgorithm;#P message 133 79 115 196617 0;#P objectname mapToReturn;#P toggle 133 61 15 0;#P objectname mapTo;#P comment 150 62 40 196617 Map to;#B frgb 255 255 255;#P message 7 79 116 196617 0;#P objectname mapFromReturn;#P toggle 7 61 15 0;#P objectname mapFrom;#P comment 24 63 53 196617 Map from;#B frgb 255 255 255;#P window linecount 3;#P hidden newex 482 249 381 196617 jcom.message update @description "If you have made changes in the viewer (or an external text editor) then you will need to send this /update message in order for them to take effect.  This done automatically when you open a fresh file.";#P window linecount 1;#P hidden newex 482 227 93 196617 pvar UpdateButten;#P user jsui 156 21 40 18 3 0 0 jsui_textbutton.js Update;#P objectname UpdateButton;#P user jsui 56 21 40 18 3 0 0 jsui_textbutton.js Save;#P objectname SaveMappingsButton;#P window linecount 2;#P hidden newex 482 320 442 196617 jcom.message save_mappings @description "Save mappings to a file.  An argument determines the file path and name.  If no argument is given then a file dialog will be presented.";#P window linecount 1;#P hidden newex 482 297 126 196617 pvar SaveMappingsButton;#P hidden newex 482 130 364 196617 jcom.message clear @description "Reset by removing all existing mappings. ";#P hidden message 8 283 81 196617 /load_mappings;#P hidden newex 482 198 362 196617 jcom.message view @description "View current mappings in a text window.";#P hidden newex 482 176 84 196617 pvar OpenButten;#P user jsui 112 21 40 18 3 0 0 jsui_textbutton.js View;#P objectname OpenButten;#P user jsui 12 21 40 18 3 0 0 jsui_textbutton.js Load;#P objectname LoadMappingsButton;#P hidden newex 482 369 124 196617 pvar LoadMappingsButton;#P window linecount 4;#P hidden newex 482 391 331 196617 jcom.message load_mappings @description "Load mappings from file. <br/>NOTE: jcom.mappings will be watching the file and automatically update if the content of the file is changed. This way you can use an external editor to work on the cue script while Jamoma is running.";#P window linecount 2;#P hidden newex 482 92 268 196617 jcom.message modify @description "Remove an existing mapping.  the required argument is the mapping_name.";#P hidden newex 482 55 270 196617 jcom.message remove @description "Remove an existing mapping.  the required argument is the mapping_name.";#P window linecount 1;#P hidden message 33 139 125 196617 /documentation/generate;#P window linecount 2;#P hidden newex 482 6 425 196617 jcom.message create @description "Create a new mapping. Arguments are: [mapping_name] [mapping_source (OSC)] [optional.mxtorithm to apply][ ->][mapping_destination (OSC)].";#P hidden message 217 137 65 196617 \; max refresh;#P window linecount 1;#P hidden message 160 139 37 196617 /init;#P hidden newex 66 330 91 196617 jalg.mapper.mxt;#P window linecount 2;#P hidden newex 11 172 286 196617 jcom.hub jmod.mapper @size 2U-half @module_type control @description "Create and manage mappings of parameters";#P objectname jcom.hub;#P hidden inlet 11 140 13 0;#P hidden outlet 11 212 13 0;#P window linecount 1;#P hidden message 189 308 232 196617 /mapFrom 0;#P hidden newex 189 287 61 196617 prepend set;#P bpatcher 0 0 258 124 0 0 jcom.gui.mxt 0 $0_;#P objectname jcom.gui.1Uh.a.stereo.mxt;#P hidden fasten 7 0 5 0 165 165 16 165;#P hidden connect 4 0 5 0;#P hidden fasten 10 0 5 0 38 162 16 162;#P hidden connect 5 0 3 0;#P hidden fasten 49 1 6 0 179 318 71 318;#P hidden connect 19 0 6 0;#P hidden connect 48 0 6 0;#P hidden connect 6 0 43 0;#P hidden fasten 44 0 43 0 71 412 61 412 61 357 71 357;#P hidden connect 43 0 44 0;#P hidden connect 6 1 45 0;#P hidden fasten 46 0 45 0 71 473 61 473 61 415 71 415;#P hidden connect 45 0 46 0;#P hidden connect 39 0 40 0;#P hidden connect 53 0 49 0;#P hidden connect 49 0 48 0;#P hidden connect 49 1 1 0;#P hidden connect 1 0 2 0;#P hidden connect 17 0 18 0;#P hidden connect 25 0 26 0;#P hidden connect 21 0 22 0;#P hidden connect 14 0 13 0;#P hidden connect 35 0 36 0;#P hidden connect 37 0 38 0;#P hidden connect 41 0 42 0;#P hidden connect 52 0 51 0;#P pop;