max v2;
#N vpatcher 33 56 888 491;
#P window setfont "Sans Serif" 9.;
#P hidden newex 198 154 38 9109513 jcom.in;
#P window linecount 2;
#P hidden newex 494 184 247 9109513 jcom.message send @description "An OpenSoundControl message to send out over the network.";
#P hidden newex 198 304 278 9109513 jcom.return receive @description "OpenSoundControl messages coming in from the network are reported here.";
#P user umenu 177 2 76 9109543 1 64 18 1;
#X add single;
#X add multicast;
#P objectname multicast_button;
#P window linecount 1;
#P hidden newex 493 99 110 9109513 pvar multicast_button;
#P window linecount 2;
#P hidden newex 493 121 259 9109513 jcom.parameter mode @type toggle @clipmode none @description "Choose between single IP or multicast usage";
#P objectname jcom.parameter[2];
#P bpatcher 0 20 256 42 0 -19 jalg.oscnet.ui.mxt 0 $0_;
#P objectname jalg.oscnet.ui.mxt;
#P window linecount 1;
#P hidden comment 44 276 100 9109513 * activity monitor;
#P hidden newex 198 198 45 9109513 pcontrol;
#P hidden newex 198 176 91 9109513 jcom.pass open;
#P hidden message 38 69 125 9109513 /documentation/generate;
#P window linecount 2;
#P hidden message 99 195 66 9109513 \; max refresh;
#P window linecount 1;
#P hidden message 167 69 23 9109513 /init;
#P hidden newex 198 282 80 9109513 jalg.oscnet.mxt;
#P window linecount 3;
#P hidden newex 16 94 331 9109513 jcom.hub jmod.oscnet @size 1U-half @module_type control @description "Send and receive OpenSoundControl over a network port.  You may receive directly or join up to 2 multicast addresses in addition to receiving directly.";
#P objectname jcom.hub;
#P hidden inlet 16 70 13 0;
#P hidden outlet 16 146 13 0;
#P window linecount 1;
#P hidden message 279 248 153 9109513 /mode 0;
#P hidden newex 279 226 61 9109513 prepend set;
#P hidden comment 44 254 100 9109513 * activity monitor;
#P bpatcher 0 0 256 62 0 0 jcom.gui.mxt 0;
#P objectname jcom.gui.1Uh.a.stereo.mxt;
#P hidden fasten 15 1 14 0 622 161 792 161 792 14 5 14;
#P hidden connect 17 0 14 0;
#P hidden fasten 8 0 6 0 172 90 21 90;
#P hidden connect 5 0 6 0;
#P hidden fasten 10 0 6 0 43 88 21 88;
#P hidden connect 6 0 4 0;
#P hidden connect 20 0 11 0;
#P hidden connect 11 0 12 0;
#P hidden fasten 11 1 7 0 284 222 203 222;
#P hidden connect 12 0 7 0;
#P hidden connect 7 0 18 0;
#P hidden fasten 19 1 7 1 617 276 273 276;
#P hidden fasten 11 1 2 0 284 225 284 225;
#P hidden connect 2 0 3 0;
#P hidden fasten 15 0 16 0 498 158 486 158 486 92 498 92;
#P hidden connect 16 0 15 0;
#P pop;
