max v2;#N vpatcher 50 212 868 608;#P origin 10 -64;#P window setfont "Sans Serif" 9.;#P hidden newex 175 129 43 196617 jcom.in;#P user jsui 47 27 20 15 1 0 0 jcom.jsui_texttoggle.js off on;#P objectname hi_on;#P user jsui 17 27 25 15 1 0 0 jsui_textbutton.js init;#P objectname hi_init;#P hidden newex 497 208 63 196617 pvar hi_init;#P window linecount 2;#P hidden newex 497 230 264 196617 jcom.message hi_init @type msg_generic @clipmode none @description "Initialization of hi object";#P objectname jcom.parameter[3];#P window linecount 1;#P hidden newex 495 131 58 196617 pvar hi_on;#P window linecount 2;#P hidden newex 495 153 220 196617 jcom.parameter hi_on @type msg_toggle @clipmode none @description "Turn polling on";#P objectname hi_on[1];#P user umenu 148 28 100 196647 1 64 44 1;#X add "Apple IR";#X add "NetScroll + Mini Traveler";#X add "Apple Internal Keyboard / Trackpad";#X add "Apple Internal Keyboard / Trackpad 2";#X add Trackpad;#X add "Trackpad 2";#X add "Apple Internal Keyboard / Trackpad 3";#P objectname device_menu;#P window linecount 1;#P comment 100 29 50 196617 HI device;#P hidden newex 496 283 92 196617 pvar device_menu;#P window linecount 2;#P hidden newex 496 305 288 196617 jcom.parameter device_menu @type msg_menu @clipmode none @description "Choose which HI device to use";#P objectname device_menu[1];#P window linecount 1;#P hidden newex 175 173 45 196617 pcontrol;#P hidden newex 175 149 91 196617 jcom.pass open;#P hidden message 38 69 125 196617 /documentation/generate;#P window linecount 2;#P hidden message 16 229 66 196617 \; max refresh;#P hidden message 16 195 75 196617 \; jcom.init bang;#P window linecount 1;#P hidden newex 175 256 81 196617 jalg.hi.mxt;#P window linecount 2;#P hidden newex 16 94 329 196617 jcom.hub jmod.hi @size 1U-half @module_type control @description "Use human interface devices (gamepads and joysticks).";#P objectname jcom.hub;#P hidden inlet 16 70 13 0;#P hidden outlet 16 167 13 0;#P window linecount 1;#P hidden message 281 223 153 196617 /device_menu 0;#P hidden newex 281 201 61 196617 prepend set;#P bpatcher 0 0 256 62 0 0 jcom.gui.mxt 0;#P objectname jcom.gui.1Uh.a.stereo.mxt;#P hidden connect 4 0 5 0;#P hidden fasten 9 0 5 0 43 88 21 88;#P hidden connect 5 0 3 0;#P hidden connect 22 0 10 0;#P hidden connect 10 0 11 0;#P hidden fasten 10 1 6 0 261 192 180 192;#P hidden connect 11 0 6 0;#P hidden fasten 10 1 1 0 261 178 286 178;#P hidden connect 1 0 2 0;#P hidden fasten 16 0 17 0 500 186 488 186 488 126 500 126;#P hidden connect 17 0 16 0;#P hidden connect 6 1 13 0;#P hidden fasten 12 0 13 0 501 338 489 338 489 278 501 278;#P hidden connect 13 0 12 0;#P hidden connect 19 0 18 0;#P pop;