max v2;#N vpatcher 21 45 941 567;#P window setfont "Sans Serif" 9.;#P hidden message 168 89 191 196617 /preset/store 1 default \, /preset/write;#B color 3;#P hidden newex 119 174 43 196617 jcom.in;#P hidden newex 440 416 122 196617 pvar InterpolateStepSize;#P hidden newex 439 352 83 196617 pvar Interpolate;#P hidden newex 439 265 107 196617 pvar RandomStepSize;#P hidden newex 439 198 100 196617 pvar RandomMode 2;#P hidden newex 439 142 58 196617 pvar Clear;#P hidden newex 439 34 77 196617 pvar NewColor;#P user jsui 131 0 61 18 3 0 0 jsui_textbutton.js "New Color";#P objectname NewColor;#P user jsui 194 0 61 18 3 0 0 jsui_textbutton.js Clear;#P objectname Clear;#P comment 145 42 58 196617 Step Size;#B frgb 255 255 255;#P comment 4 42 53 196617 Step Size;#B frgb 255 255 255;#P flonum 58 41 47 9 0. 1. 8227 3 255 255 255 221 221 221 222 222 222 0 0 0;#P objectname RandomStepSize;#P window linecount 2;#P hidden newex 439 79 315 196617 jcom.message colors @type msg_list @description "Set what colors to mix from (list containing 1 to 12 triplets of RGB values).";#P objectname jcom.parameter[7];#P window linecount 3;#P hidden newex 439 285 342 196617 jcom.parameter random/step_size @type msg_float @ramp 1 @repetitions 0 @range 0. 1. @clipmode both @description "Set how much next color can deviate from the current when random mode is walk.""";#P objectname random/step_size;#P window linecount 1;#P hidden newex 439 162 344 196617 jcom.message clear @description "Set all colors on palett to black.";#P objectname jcom.parameter[5];#P hidden newex 439 54 338 196617 jcom.message gencolor @description "Generate new color triplet.";#P objectname jcom.parameter[4];#P window linecount 2;#P hidden newex 439 436 395 196617 jcom.parameter interpolate/step_size @type msg_float @range 0. 1. @clipmode both @ramp 1 @repetitions 1 @description "Step size when interpolating.";#P objectname interpolate/step_size;#P hidden newex 439 221 270 196617 jcom.parameter random/mode @type msg_menu @description "Select distribution mode: random or walk.";#P objectname random/mode;#P hidden newex 439 372 236 196617 jcom.parameter interpolate @type msg_toggle @description "Perform cubic interpolation (flag).";#P objectname interpolate;#P user umenu 58 23 61 196647 1 64 39 1;#X add random;#X add walk;#P objectname RandomMode;#P window linecount 1;#P comment 160 24 65 196617 Interpolate;#B frgb 255 255 255;#P hidden newex 119 221 45 196617 pcontrol;#P hidden newex 119 197 78 196617 jcom.pass open;#P hidden message 38 89 125 196617 /documentation/generate;#P window linecount 2;#P hidden message 16 406 65 196617 \; max refresh;#P hidden message 16 369 75 196617 \; jcom.init bang;#P window linecount 1;#P hidden newex 119 278 104 196617 jalg.palette.mxt $0_;#P comment 4 24 51 196617 Random;#B frgb 255 255 255;#P window linecount 3;#P hidden newex 16 114 216 196617 jcom.hub jmod.palette @size 1U-half @module_type control @description "Create various blends of the RGB colors available.";#P objectname jcom.hub;#P hidden inlet 16 90 13 0;#P hidden outlet 16 316 13 0;#P window linecount 1;#P hidden message 236 279 153 196617 /random/mode 0;#P hidden newex 236 258 61 196617 prepend set;#P flonum 204 41 47 9 0. 1. 8227 3 255 255 255 221 221 221 222 222 222 0 0 0;#P objectname InterpolateStepSize;#P user radiogroup 144 22 78 16;#X size 1;#X offset 16;#X inactive 0;#X itemtype 1;#X flagmode 0;#X set 0;#X done;#P objectname Interpolate;#P bpatcher 0 0 256 62 0 0 jcom.gui.mxt 0 $0_;#P objectname jcom.gui.1Uh.a.stereo.mxt;#P hidden connect 6 0 7 0;#P hidden fasten 12 0 7 0 43 108 21 108;#P hidden fasten 36 0 7 0 173 109 21 109;#P hidden connect 7 0 5 0;#P hidden connect 35 0 13 0;#P hidden connect 13 0 14 0;#P hidden connect 14 0 9 0;#P hidden fasten 13 1 9 0 192 269 124 269;#P hidden fasten 13 1 3 0 192 249 241 249;#P hidden connect 3 0 4 0;#P hidden connect 29 0 20 0;#P hidden connect 30 0 21 0;#P hidden fasten 18 0 31 0 444 252 434 252 434 196 444 196;#P hidden fasten 31 1 18 0 534 218 444 218;#P hidden fasten 22 0 32 0 444 329 434 329 434 261 444 261;#P hidden connect 32 0 22 0;#P hidden fasten 17 0 33 0 444 405 434 405 434 349 444 349;#P hidden connect 33 0 17 0;#P hidden connect 34 0 19 0;#P hidden fasten 19 0 34 0 444 468 434 468 434 414 445 414;#P pop;