max v2;#N vpatcher 50 212 868 608;#P origin 10 -64;#P user jsui 47 27 20 15 1 0 0 jcom.jsui_texttoggle.js off on;#P objectname hi_on;#P user jsui 17 27 25 15 1 0 0 jsui_textbutton.js init;#P objectname hi_init;#P window setfont "Sans Serif" 9.;#P hidden newex 497 208 63 196617 pvar hi_init;#P window linecount 2;#P hidden newex 497 230 264 196617 jcom.message.mxt $0_ /hi_init @type generic @clipmode none @description "Initialization of hi object";#P objectname jcom.parameter[3];#P window linecount 1;#P hidden newex 495 131 58 196617 pvar hi_on;#P window linecount 2;#P hidden newex 495 153 220 196617 jcom.parameter.mxt $0_ /hi_on @type toggle @clipmode none @description "Turn polling on";#P objectname jcom.parameter[1];#P user umenu 148 28 100 196647 1 64 44 1;#X add "Apple IR";#X add "NetScroll + Mini Traveler";#X add "Apple Internal Keyboard / Trackpad";#X add "Apple Internal Keyboard / Trackpad 2";#X add Trackpad;#X add "Trackpad 2";#X add "Apple Internal Keyboard / Trackpad 3";#P objectname device_menu;#P window linecount 1;#P comment 100 29 50 196617 HI device;#P hidden newex 496 283 92 196617 pvar device_menu;#P window linecount 2;#P hidden newex 496 305 288 196617 jcom.parameter.mxt $0_ /device_menu @type menu @clipmode none @description "Choose which HI device to use";#P objectname jcom.parameter[2];#P window linecount 1;#P hidden newex 175 164 45 196617 pcontrol;#P hidden newex 175 140 91 196617 jcom.pass open;#P hidden message 38 69 125 196617 /documentation/generate;#P window linecount 2;#P hidden message 16 229 66 196617 \; max refresh;#P hidden message 16 195 75 196617 \; jcom.init bang;#P window linecount 1;#P hidden newex 175 256 81 196617 jalg.hi.mxt $0_;#P window linecount 2;#P hidden newex 16 94 329 196617 jcom.hub $0_ jcom.hi @size 1U-half @module_type control @description "Use human interface devices (gamepads and joysticks).";#P objectname jcom.hub;#P hidden inlet 16 70 13 0;#P hidden outlet 16 167 13 0;#P window linecount 3;#P hidden newex 350 94 79 196617 pattrstorage @autorestore 0 @savemode 0;#X client_rect 14 59 654 299;#X storage_rect 0 0 640 240;#P objectname jcom.hi;#P window linecount 1;#P hidden message 281 223 153 196617 /preset/save bang;#P hidden newex 281 201 61 196617 prepend set;#P bpatcher 0 0 256 62 0 0 jcom.gui.mxt 0 $0_;#P objectname jcom.gui.1Uh.a.stereo.mxt;#P hidden fasten 10 0 6 0 43 88 21 88;#P hidden connect 5 0 6 0;#P hidden connect 6 0 4 0;#P hidden connect 6 1 11 0;#P connect 11 0 12 0;#P hidden fasten 11 1 7 0 261 192 180 192;#P hidden connect 12 0 7 0;#P hidden fasten 11 1 1 0 261 178 286 178;#P hidden connect 1 0 2 0;#P hidden connect 3 0 6 1;#P hidden connect 6 2 3 0;#P hidden fasten 17 0 18 0 500 186 488 186 488 126 500 126;#P hidden connect 18 0 17 0;#P hidden connect 7 1 14 0;#P hidden fasten 13 0 14 0 501 338 489 338 489 278 501 278;#P hidden connect 14 0 13 0;#P hidden connect 20 0 19 0;#P pop;