max v2;
#N vpatcher 32 194 721 727;
#P window setfont "Sans Serif" 9.;
#P hidden newex 86 185 38 196617 jcom.in;
#P hidden newex 276 330 82 196617 pvar CueMenu 2;
#P user umenu 104 42 146 196647 1 64 58 1;
#P objectname CueMenu;
#N vpatcher 302 84 902 484;
#P window setfont "Sans Serif" 9.;
#P newex 57 117 104 196617 prepend "Select cue";
#P outlet 57 239 15 0;
#P newex 57 198 78 196617 prepend append;
#P window linecount 1;
#P newex 57 140 114 196617 t l clear;
#P window linecount 0;
#P newex 57 172 25 196617 iter;
#P newex 57 89 86 196617 r $0__set_menu;
#P connect 0 0 5 0;
#P connect 5 0 2 0;
#P connect 2 0 1 0;
#P connect 1 0 3 0;
#P connect 3 0 4 0;
#P fasten 2 1 4 0 166 231 62 231;
#P pop;
#P hidden newobj 276 306 62 196617 p cue_menu;
#P hidden newex 276 159 113 196617 pvar SaveScriptButton;
#P window linecount 3;
#P hidden newex 276 180 374 196617 jcom.message save_script @description "Save cue script to a file. An argument determines the path and name of the file.  No argument will bring up a file dialog (like saveas) or save the script to the existing file that is in use.";
#P user jsui 7 40 94 19 1 0 0 jsui_textbutton.js "Save Cue Script";
#P objectname SaveScriptButton;
#P window linecount 2;
#P hidden newex 276 460 280 196617 jcom.parameter listen @type msg_toggle @repetitions 0 @description "Listen to remote change of parameters.";
#P objectname listen;
#P window linecount 1;
#P hidden newex 276 440 90 196617 pvar ListenToggle;
#P user radiogroup 183 1 54 16;
#X size 1;
#X offset 16;
#X inactive 0;
#X itemtype 1;
#X flagmode 0;
#X set 0;
#X done;
#P objectname ListenToggle;
#P hidden newex 86 209 78 196617 jcom.pass open;
#P window linecount 2;
#P hidden newex 276 265 208 196617 jcom.message view @description "View current cue script in a text window.";
#P window linecount 1;
#P hidden newex 276 243 84 196617 pvar OpenButten;
#P user jsui 103 20 52 19 1 0 0 jsui_textbutton.js View;
#P objectname OpenButten;
#P window linecount 2;
#P hidden newex 276 392 305 196617 jcom.message remote @type msg_generic @description "Wireless communication of messages to modules via the bridge.";
#P hidden newex 276 351 230 196617 jcom.message cue @type msg_generic @description "Recall cue event from cue script.";
#P user jsui 157 20 94 19 1 0 0 jsui_textbutton.js "Get State";
#P objectname GetStateButton;
#P user jsui 7 20 94 19 1 0 0 jsui_textbutton.js "Load Cue Script";
#P objectname CueScriptButton;
#P window linecount 1;
#P hidden newex 86 235 45 196617 pcontrol;
#P hidden message 38 89 125 196617 /documentation/generate;
#P hidden newex 276 75 107 196617 pvar CueScriptButton;
#P window linecount 4;
#P hidden newex 276 96 338 196617 jcom.message load_script @description "Load cue script from file. <br>NOTE: jcom.cue_list will be watching the file and automatically update if the content of the file is changed. This way you can use an external editor to work on the cue script while Jamoma is running.";
#P window linecount 2;
#P hidden message 92 327 65 196617 \; max refresh;
#P window linecount 1;
#P hidden message 166 89 37 196617 /init;
#P hidden newex 86 264 103 196617 jalg.cuelist.mxt $0_;
#P hidden newex 276 16 102 196617 pvar GetStateButton;
#P window linecount 2;
#P hidden newex 16 114 256 196617 jcom.hub jmod.cuelist @size 1U-half @module_type control @description "Manage cue list in text format";
#P objectname jcom.hub;
#P hidden inlet 16 90 13 0;
#P hidden outlet 16 154 13 0;
#P hidden newex 276 36 280 196617 jcom.message get_state @description "Poll state for all bridged modules\\\, and display in text window.";
#P objectname jcom.parameter.mxt;
#P window linecount 1;
#P comment 201 3 47 196617 listen;
#B frgb 255 255 255;
#P bpatcher 0 0 256 62 0 0 jcom.gui.mxt 0;
#P objectname jcom.gui.1Uh.a.stereo.mxt;
#P hidden fasten 12 0 5 0 43 108 21 108;
#P hidden connect 4 0 5 0;
#P hidden fasten 8 0 5 0 171 110 21 110;
#P hidden connect 5 0 3 0;
#P hidden connect 31 0 21 0;
#P hidden connect 21 0 13 0;
#P hidden connect 13 0 7 0;
#P hidden fasten 21 1 7 0 159 259 91 259;
#P hidden connect 6 0 2 0;
#P hidden connect 11 0 10 0;
#P hidden connect 27 0 26 0;
#P hidden connect 19 0 20 0;
#P hidden fasten 16 0 30 0 281 386 266 386 266 327 281 327;
#P hidden connect 28 0 30 0;
#P hidden fasten 30 1 16 0 353 349 281 349;
#P hidden fasten 24 0 23 0 281 494 268 494 268 436 281 436;
#P hidden connect 23 0 24 0;
#P pop;
