max v2;#N vpatcher 39 146 998 580;#P origin 10 -64;#P window setfont "Sans Serif" 9.;#P hidden message 165 69 191 196617 /preset/store 1 default \, /preset/write;#B color 3;#N vpatcher 601 120 839 484;#P origin 0 -20;#P window setfont "Sans Serif" 9.;#P window linecount 0;#P hidden newex 206 295 69 196617 pvar Emotion;#P hidden newex 206 255 92 196617 pvar Performance;#P hidden newex 206 215 90 196617 pvar Environment;#P hidden newex 206 175 64 196617 pvar Device;#P hidden newex 206 135 56 196617 pvar Body;#P hidden newex 206 95 65 196617 pvar Cooked;#P hidden newex 206 55 53 196617 pvar Raw;#P comment 68 38 128 196617 Turn on an off GDIF layers;#P window linecount 2;#P hidden newex 306 295 244 196617 jcom.parameter gdif/emotion/on @type msg_toggle @clipmode none @description "Turn data on";#P objectname gdif/emotion/on;#P hidden newex 306 255 264 196617 jcom.parameter gdif/performance/on @type msg_toggle @clipmode none @description "Turn data on";#P objectname gdif/performance/on;#P hidden newex 306 215 264 196617 jcom.parameter gdif/environment/on @type msg_toggle @clipmode none @description "Turn data on";#P objectname gdif/environment/on;#P hidden newex 306 175 238 196617 jcom.parameter gdif/device/on @type msg_toggle @clipmode none @description "Turn data on";#P objectname gdif/device/on;#P hidden newex 306 135 230 196617 jcom.parameter gdif/body/on @type msg_toggle @clipmode none @description "Turn data on";#P objectname gdif/body/on;#P hidden newex 306 95 239 196617 jcom.parameter gdif/cooked/on @type msg_toggle @clipmode none @description "Turn data on";#P objectname gdif/cooked/on;#P hidden newex 306 55 227 196617 jcom.parameter gdif/raw/on @type msg_toggle @clipmode none @description "Turn data on";#P objectname gdif/raw/on;#P window linecount 0;#P comment 36 284 100 196617 Meta;#P comment 36 233 100 196617 Functional;#P comment 36 140 100 196617 Descriptive;#P toggle 36 101 15 0;#P objectname Cooked;#P message 53 101 100 196617 /gdif/cooked/on \$1;#P toggle 36 300 15 0;#P objectname Emotion;#P message 53 300 105 196617 /gdif/emotion/on \$1;#P toggle 36 249 15 0;#P objectname Performance;#P message 53 249 127 196617 /gdif/performance/on \$1;#P toggle 36 195 15 0;#P objectname Environment;#P message 53 195 126 196617 /gdif/environment/on \$1;#P toggle 36 176 15 0;#P objectname Device;#P message 53 176 99 196617 /gdif/device/on \$1;#P toggle 36 157 15 0;#P objectname Body;#P message 53 157 91 196617 /gdif/body/on \$1;#P hidden newex 232 414 58 196617 r jmod.init;#P window linecount 1;#P hidden newex 277 387 40 196617 t front;#P hidden newex 277 366 151 196617 jcom.oscroute /open_inspector;#P toggle 36 79 15 0;#P objectname Raw;#P message 53 79 88 196617 /gdif/raw/on \$1;#P window setfont "Sans Serif" 12.;#P comment 36 34 86 196620 GDIF;#P hidden inlet 277 346 15 0;#P window setfont "Sans Serif" 9.;#P window linecount 0;#P hidden message 232 436 111 196617 patcher more features;#P window linecount 1;#N thispatcher;#Q end;#P hidden newobj 232 455 61 196617 thispatcher;#P comment 36 62 100 196617 Acquisition;#P hidden connect 6 0 5 0;#P hidden connect 21 0 20 0;#P hidden connect 11 0 10 0;#P hidden connect 13 0 12 0;#P hidden connect 15 0 14 0;#P hidden connect 17 0 16 0;#P hidden connect 19 0 18 0;#P hidden connect 25 0 33 0;#P hidden connect 26 0 34 0;#P hidden connect 27 0 35 0;#P hidden connect 28 0 36 0;#P hidden connect 29 0 37 0;#P hidden connect 30 0 38 0;#P hidden connect 31 0 39 0;#P hidden connect 9 0 2 0;#P hidden connect 2 0 1 0;#P hidden connect 8 0 1 0;#P hidden connect 3 0 7 0;#P hidden connect 7 0 8 0;#P hidden connect 33 0 25 0;#P hidden connect 34 0 26 0;#P hidden connect 35 0 27 0;#P hidden connect 36 0 28 0;#P hidden connect 37 0 29 0;#P hidden connect 38 0 30 0;#P hidden connect 39 0 31 0;#P pop;#P hidden newobj 142 235 60 196617 p inspector;#P objectname inspector;#P comment 87 35 64 196617 Sample rate;#B frgb 255 255 255;#P number 146 33 35 9 0 0 8225 3 255 255 255 221 221 221 222 222 222 0 0 0;#P objectname samplerate;#P hidden newex 493 193 66 196617 pvar mode 2;#P hidden newex 493 215 376 196617 jcom.parameter mode @type msg_symbol @description "Choose reference mode";#P objectname mode[1];#P user umenu 7 33 51 196647 1 64 49 1;#X add poll;#X add sample;#P objectname mode;#P hidden newex 493 270 84 196617 pvar samplerate;#P window linecount 2;#P hidden newex 493 292 333 196617 jcom.parameter sample_rate @type msg_int @range 0 1000 @clipmode low @clipmode none @description "Sample rate of mouse values.";#P objectname sample_rate;#P window linecount 1;#P hidden newex 142 212 47 196617 pcontrol;#P hidden newex 142 188 37 196617 t open;#P hidden newex 142 164 151 196617 jcom.oscroute /open_inspector;#P hidden newex 142 142 43 196617 jcom.in;#P hidden newex 493 124 87 196617 pvar reference 2;#P hidden newex 493 146 397 196617 jcom.parameter reference @type msg_symbol @description "Choose reference mode";#P objectname reference[1];#P user jsui 63 33 20 15 1 0 0 jcom.jsui_texttoggle.js off on;#P objectname mouse_on;#P user umenu 198 33 49 196647 1 64 49 1;#X add screen;#X add click;#P objectname reference;#P hidden newex 493 44 78 196617 pvar mouse_on;#P window linecount 2;#P hidden newex 493 66 220 196617 jcom.parameter mouse_on @type msg_toggle @clipmode none @description "Turn polling on";#P objectname mouse_on[1];#P window linecount 1;#P hidden newex 283 212 45 196617 pcontrol;#P hidden newex 283 188 91 196617 jcom.pass open;#P hidden message 38 69 125 196617 /documentation/generate;#P window linecount 2;#P hidden message 16 229 66 196617 \; max refresh;#P hidden message 16 195 75 196617 \; jcom.init bang;#P window linecount 1;#P hidden newex 283 266 99 196617 jalg.mouse.gdif.mxt;#P window linecount 2;#P hidden newex 16 94 295 196617 jcom.hub jmod.mouse.gdif @size 1U-half @module_type control @inspector 1 @description "Output information from mouse";#P objectname jcom.hub;#P hidden inlet 16 70 13 0;#P hidden outlet 16 167 13 0;#P window linecount 1;#P comment 198 22 55 196617 Reference;#B frgb 255 255 255;#P bpatcher 0 0 256 62 0 0 jcom.gui.mxt 0;#P objectname jcom.gui.1Uh.a.stereo.mxt;#P hidden fasten 29 0 4 0 170 89 21 89;#P hidden fasten 8 0 4 0 43 89 21 89;#P hidden connect 3 0 4 0;#P hidden connect 4 0 2 0;#P hidden connect 17 0 18 0;#P hidden connect 18 0 19 0;#P hidden connect 19 0 20 0;#P hidden connect 20 0 28 0;#P hidden connect 18 1 9 0;#P hidden connect 9 0 10 0;#P hidden fasten 9 1 5 0 369 232 288 232;#P hidden connect 10 0 5 0;#P hidden fasten 11 0 12 0 498 98 486 98 486 39 498 39;#P hidden connect 12 0 11 0;#P hidden fasten 15 0 16 0 498 166 486 166 486 119 498 119;#P hidden fasten 16 1 15 0 575 143 498 143;#P hidden fasten 24 0 25 0 498 235 486 235 486 188 498 188;#P hidden fasten 25 1 24 0 554 213 498 213;#P hidden fasten 21 0 22 0 498 325 486 325 486 265 498 265;#P hidden connect 22 0 21 0;#P pop;