max v2;#N vpatcher 241 115 1140 584;#P origin 10 -85;#P window setfont "Sans Serif" 9.;#P window linecount 1;#P hidden message 57 69 191 196617 /preset/store 1 default \, /preset/write;#B color 3;#P hidden message 66 87 125 196617 /documentation/generate;#B color 3;#P hidden outlet 137 354 15 0;#P hidden newex 137 321 58 196617 jcom.out 1;#P hidden newex 137 149 43 196617 jcom.in;#P user jsui 197 28 55 18 3 0 0 jcom.jsui_texttoggle.js normalize normalize;#P objectname midi_normalize;#P hidden newex 527 261 103 196617 pvar midi_normalize;#P window linecount 2;#P hidden newex 527 283 347 196617 jcom.message midi_normalize @type msg_generic @clipmode none @description "Choose whether data should be normalized to a 0.-1. range.";#P objectname jcom.parameter[1];#P user jsui 7 28 25 18 3 0 0 jsui_textbutton.js init;#P objectname midi_init;#P window linecount 1;#P hidden newex 527 324 74 196617 pvar midi_init;#P window linecount 2;#P hidden newex 527 346 281 196617 jcom.message midi_init @type msg_generic @clipmode none @description "Initialization of midi devices";#P objectname jcom.parameter[3];#P user umenu 69 29 126 196647 1 64 45 1;#X add "Keystation Port 1";#X add "to MaxMSP 1";#X add "to MaxMSP 2";#P objectname device_menu;#P window linecount 1;#P comment 35 31 40 196617 Device;#B frgb 255 255 255;#P hidden newex 227 327 92 196617 pvar device_menu;#P window linecount 2;#P hidden newex 227 349 288 196617 jcom.parameter device_menu @type msg_menu @clipmode none @description "Choose which HI device to use";#P objectname device_menu[1];#P window linecount 1;#P hidden newex 137 203 45 196617 pcontrol;#P hidden newex 137 177 91 196617 jcom.pass open;#P window linecount 2;#P message 16 229 66 196617 \; max refresh;#P message 16 195 75 196617 \; jcom.init bang;#P window linecount 1;#P hidden newex 137 293 100 196617 jalg.midiin.mxt;#P window linecount 2;#P hidden newex 16 112 261 196617 jcom.hub jmod.midiin @size 1U-half @module_type control @description "Use any MIDI device";#P objectname jcom.hub;#P hidden inlet 16 88 13 0;#P hidden outlet 16 167 13 0;#P window linecount 1;#P hidden message 243 260 153 196617 /documentation/html;#P hidden newex 243 238 61 196617 prepend set;#P bpatcher 0 0 256 62 0 0 jcom.gui.mxt 0;#P objectname jcom.gui.1Uh.a.stereo.mxt;#P hidden connect 4 0 5 0;#P hidden fasten 25 0 5 0 62 105 21 105;#P hidden fasten 24 0 5 0 71 107 21 107;#P hidden connect 5 0 3 0;#P hidden connect 21 0 9 0;#P hidden connect 9 0 10 0;#P hidden fasten 9 1 6 0 223 249 142 249;#P hidden connect 10 0 6 0;#P hidden connect 6 0 22 0;#P hidden connect 22 0 23 0;#P hidden fasten 11 0 12 0 232 382 220 382 220 322 232 322;#P hidden connect 6 1 12 0;#P hidden connect 12 0 11 0;#P hidden fasten 9 1 1 0 223 229 248 229;#P hidden connect 1 0 2 0;#P hidden fasten 18 0 19 0 532 317 520 317 520 254 532 254;#P hidden connect 19 0 18 0;#P hidden connect 16 0 15 0;#P pop;