max v2;#N vpatcher 42 59 843 760;#P window setfont "Sans Serif" 9.;#P hidden newex 242 442 67 196617 prepend port;#P hidden newex 242 467 70 196617 s $0__inport;#P hidden newex 127 379 72 196617 pvar MIDIIN 2;#P hidden newex 163 322 48 196617 loadbang;#P user umenu 79 21 100 196647 1 64 37 1;#X add UC-33;#X add "UC-33 USB MIDI Controller Port 2";#X add "to MaxMSP 1";#X add "to MaxMSP 2";#P objectname MIDIIN;#P hidden newex 127 356 46 196617 midiinfo;#P window setfont "Sans Serif" 18.;#N vpatcher 100 100 634 362;#P window setfont "Sans Serif" 9.;#N vpatcher 10 59 509 329;#P window setfont "Sans Serif" 9.;#P window linecount 0;#P newex 69 115 20 196617 t b;#P newex 96 66 62 196617 prepend set;#P inlet 46 27 15 0;#P newex 69 27 70 196617 r $0__inport;#P window linecount 1;#P newex 69 93 54 196617 ctlin 15 1;#P newex 46 147 404 196617 jcom.return transport/record @type msg_none @description "Transport button: Stop.";#P objectname transport/record;#P outlet 46 177 15 0;#P connect 6 0 1 0;#P connect 4 0 1 0;#P connect 1 0 0 0;#P connect 5 0 2 0;#P connect 3 0 2 0;#P connect 2 0 6 0;#P pop;#P hidden newobj 627 417 72 196617 p transp_stop;#P objectname "sub patch[14]";#P hidden newex 627 395 101 196617 pvar TRANSP_STOP;#N vpatcher 10 59 509 329;#P window setfont "Sans Serif" 9.;#P window linecount 0;#P newex 69 125 20 196617 t b;#P newex 96 76 62 196617 prepend set;#P inlet 46 27 15 0;#P newex 69 27 70 196617 r $0__inport;#P window linecount 1;#P newex 69 103 54 196617 ctlin 14 1;#P newex 46 149 393 196617 jcom.return transport/play @type msg_none @description "Transport button: Play.";#P objectname transport/play;#P outlet 46 199 15 0;#P connect 6 0 1 0;#P connect 4 0 1 0;#P connect 1 0 0 0;#P connect 3 0 2 0;#P connect 5 0 2 0;#P connect 2 0 6 0;#P pop;#P hidden newobj 516 417 72 196617 p transp_play;#P objectname "sub patch[13]";#P hidden newex 516 395 101 196617 pvar TRANSP_PLAY;#N vpatcher 10 59 509 329;#P window setfont "Sans Serif" 9.;#P newex 46 189 62 196617 prepend set;#P newex 46 168 44 196617 qlim 40;#P window linecount 0;#P newex 96 76 62 196617 prepend set;#P inlet 46 27 15 0;#P newex 69 27 70 196617 r $0__inport;#P window linecount 1;#P newex 69 103 54 196617 ctlin 17 1;#P newex 46 127 391 196617 jcom.return button/tap @type msg_toggle @description "Button labeled Tap Tempo.";#P objectname button/tap;#P outlet 46 219 15 0;#P connect 4 0 1 0;#P connect 2 0 1 0;#P connect 1 0 6 0;#P connect 6 0 7 0;#P connect 7 0 0 0;#P connect 5 0 2 0;#P connect 3 0 2 0;#P pop;#P hidden newobj 844 374 32 196617 p tap;#P objectname "sub patch[11]";#P hidden newex 844 395 53 196617 pvar TAP;#N vpatcher 10 59 509 329;#P window setfont "Sans Serif" 9.;#P window linecount 1;#P newex 46 189 62 196617 prepend set;#P newex 46 168 44 196617 qlim 40;#P window linecount 0;#P newex 96 76 62 196617 prepend set;#P inlet 46 27 15 0;#P newex 69 27 70 196617 r $0__inport;#P window linecount 1;#P newex 69 103 54 196617 ctlin 16 1;#P window linecount 2;#P newex 46 127 231 196617 jcom.return transport/record @type msg_toggle @description "Transport button: Record.";#P objectname transport/record;#P outlet 46 224 15 0;#P connect 2 0 1 0;#P connect 4 0 1 0;#P connect 1 0 6 0;#P connect 6 0 7 0;#P connect 7 0 0 0;#P connect 3 0 2 0;#P connect 5 0 2 0;#P pop;#P hidden newobj 738 374 68 196617 p transp_rec;#P objectname "sub patch[12]";#P hidden newex 738 395 94 196617 pvar TRANSP_REC;#N vpatcher 10 59 471 338;#P window setfont "Sans Serif" 9.;#P window linecount 1;#P newex 46 189 62 196617 prepend set;#P newex 46 167 44 196617 qlim 40;#P window linecount 0;#P newex 69 94 30 196617 > 64;#P inlet 46 27 15 0;#P window linecount 1;#P newex 69 27 70 196617 r $0__inport;#P newex 69 63 54 196617 ctlin 18 1;#P newex 46 127 367 196617 jcom.return button/stop @type msg_toggle @description "Button labeled stop.";#P objectname button/stop;#P outlet 46 234 15 0;#P connect 5 0 1 0;#P connect 4 0 1 0;#P connect 1 0 6 0;#P connect 6 0 7 0;#P connect 7 0 0 0;#P connect 3 0 2 0;#P connect 2 0 5 0;#P pop;#P hidden newobj 681 303 37 196617 p stop;#P objectname "sub patch[8]";#P hidden newex 681 324 58 196617 pvar STOP;#N vpatcher 10 59 478 332;#P window setfont "Sans Serif" 9.;#P newex 46 189 62 196617 prepend set;#P newex 46 168 44 196617 qlim 40;#P window linecount 0;#P newex 69 94 30 196617 > 64;#P inlet 46 27 15 0;#P window linecount 1;#P newex 69 27 70 196617 r $0__inport;#P newex 69 63 54 196617 ctlin 27 1;#P newex 46 127 375 196617 jcom.return button/pluss @type msg_toggle @description "Button labeled pluss.";#P objectname button/pluss;#P outlet 46 236 15 0;#P connect 4 0 1 0;#P connect 5 0 1 0;#P connect 1 0 6 0;#P connect 6 0 7 0;#P connect 7 0 0 0;#P connect 3 0 2 0;#P connect 2 0 5 0;#P pop;#P hidden newobj 782 247 41 196617 p pluss;#P objectname "sub patch[5]";#P hidden newex 782 268 63 196617 pvar PLUSS;#N vpatcher 10 59 453 317;#P window setfont "Sans Serif" 9.;#P newex 46 189 62 196617 prepend set;#P newex 46 168 44 196617 qlim 40;#P window linecount 0;#P newex 69 90 30 196617 > 64;#P inlet 46 27 15 0;#P window linecount 1;#P newex 69 27 70 196617 r $0__inport;#P newex 69 60 54 196617 ctlin 24 1;#P newex 46 127 307 196617 jcom.return button/6 @type msg_toggle @description "Button 6.";#P objectname button/6;#P outlet 46 226 15 0;#P connect 4 0 1 0;#P connect 5 0 1 0;#P connect 1 0 6 0;#P connect 6 0 7 0;#P connect 7 0 0 0;#P connect 3 0 2 0;#P connect 2 0 5 0;#P pop;#P hidden newobj 782 192 32 196617 p six;#P objectname "sub patch[6]";#P hidden newex 782 213 49 196617 pvar SIX;#N vpatcher 10 59 509 329;#P window setfont "Sans Serif" 9.;#P newex 46 182 62 196617 prepend set;#P newex 46 161 44 196617 qlim 40;#P window linecount 0;#P newex 96 76 62 196617 prepend set;#P inlet 46 27 15 0;#P newex 69 27 70 196617 r $0__inport;#P window linecount 1;#P newex 69 103 54 196617 ctlin 21 1;#P newex 46 127 307 196617 jcom.return button/3 @type msg_toggle @description "Button 3.";#P objectname button/3;#P outlet 46 219 15 0;#P connect 4 0 1 0;#P connect 2 0 1 0;#P connect 1 0 6 0;#P connect 6 0 7 0;#P connect 7 0 0 0;#P connect 3 0 2 0;#P connect 5 0 2 0;#P pop;#P hidden newobj 782 121 42 196617 p three;#P objectname "sub patch[7]";#P hidden newex 782 142 62 196617 pvar THREE;#P user jsui 435 231 19 13 1 0 0 jsui_textbutton.js " " 74 74 74 74 74 74;#P user jsui 457 231 19 13 1 0 0 jsui_textbutton.js " " 74 74 74 74 74 74;#P user jsui 501 231 19 13 1 0 0 jcom.jsui_texttoggle.js " " " " 74 74 74 0 0 0 162 226 132;#P objectname TAP;#P user jsui 479 231 19 13 1 0 0 jcom.jsui_texttoggle.js " " " " 74 74 74 0 0 0 255 64 64;#P objectname TRANSP_REC;#P user jsui 468 213 19 13 1 0 0 jcom.jsui_texttoggle.js " " " " 74 74 74 0 0 0 162 226 132;#P objectname STOP;#P user jsui 490 196 19 13 1 0 0 jcom.jsui_texttoggle.js " " " " 74 74 74 0 0 0 162 226 132;#P objectname PLUSS;#P user jsui 468 196 19 13 1 0 0 jcom.jsui_texttoggle.js " " " " 74 74 74 0 0 0 162 226 132;#P objectname PLAY;#P user jsui 446 196 19 13 1 0 0 jcom.jsui_texttoggle.js " " " " 74 74 74 0 0 0 162 226 132;#P objectname MINUS;#P user jsui 490 179 19 13 1 0 0 jcom.jsui_texttoggle.js " " " " 74 74 74 0 0 0 162 226 132;#P objectname SIX;#P user jsui 468 179 19 13 1 0 0 jcom.jsui_texttoggle.js " " " " 74 74 74 0 0 0 162 226 132;#P objectname FIVE;#P user jsui 446 179 19 13 1 0 0 jcom.jsui_texttoggle.js " " " " 74 74 74 0 0 0 162 226 132;#P objectname FOUR;#P user jsui 490 162 19 13 1 0 0 jcom.jsui_texttoggle.js " " " " 74 74 74 0 0 0 162 226 132;#P objectname THREE;#P user jsui 468 162 19 13 1 0 0 jcom.jsui_texttoggle.js " " " " 74 74 74 0 0 0 162 226 132;#P objectname TWO;#N vpatcher 10 59 437 337;#P window setfont "Sans Serif" 9.;#P newex 46 182 62 196617 prepend set;#P newex 46 161 44 196617 qlim 40;#P window linecount 0;#P newex 69 82 30 196617 > 64;#P inlet 46 27 15 0;#P window linecount 1;#P newex 69 27 70 196617 r $0__inport;#P newex 69 53 54 196617 ctlin 19 1;#P newex 46 127 307 196617 jcom.return button/1 @type msg_toggle @description "Button 1.";#P objectname button/1;#P outlet 46 233 15 0;#P connect 4 0 1 0;#P connect 5 0 1 0;#P connect 1 0 6 0;#P connect 6 0 7 0;#P connect 7 0 0 0;#P connect 3 0 2 0;#P connect 2 0 5 0;#P pop;#P hidden newobj 585 121 33 196617 p one;#P objectname "sub patch[4]";#P hidden newex 585 142 51 196617 pvar ONE;#N vpatcher 10 59 471 338;#P window setfont "Sans Serif" 9.;#P newex 46 189 62 196617 prepend set;#P newex 46 168 44 196617 qlim 40;#P window linecount 0;#P newex 69 94 30 196617 > 64;#P inlet 46 27 15 0;#P window linecount 1;#P newex 69 27 70 196617 r $0__inport;#P newex 69 63 54 196617 ctlin 26 1;#P newex 46 127 378 196617 jcom.return button/play @type msg_toggle @description "Button labeled Play.""";#P objectname button/play;#P outlet 46 228 15 0;#P connect 5 0 1 0;#P connect 4 0 1 0;#P connect 1 0 6 0;#P connect 6 0 7 0;#P connect 7 0 0 0;#P connect 3 0 2 0;#P connect 2 0 5 0;#P pop;#P hidden newobj 681 247 37 196617 p play;#P objectname "sub patch[2]";#P hidden newex 681 268 58 196617 pvar PLAY;#N vpatcher 10 59 360 348;#P window setfont "Sans Serif" 9.;#P newex 46 189 62 196617 prepend set;#P newex 46 168 44 196617 qlim 40;#P window linecount 0;#P newex 69 90 30 196617 > 64;#P inlet 46 27 15 0;#P window linecount 1;#P newex 69 27 70 196617 r $0__inport;#P newex 69 60 54 196617 ctlin 23 1;#P newex 46 127 222 196617 jcom.return button/5 @description "Button 5.";#P objectname button/5;#P outlet 46 233 15 0;#P connect 5 0 1 0;#P connect 4 0 1 0;#P connect 1 0 6 0;#P connect 6 0 7 0;#P connect 7 0 0 0;#P connect 3 0 2 0;#P connect 2 0 5 0;#P pop;#P hidden newobj 681 192 36 196617 p five;#P objectname "sub patch[3]";#P hidden newex 681 213 53 196617 pvar FIVE;#P window linecount 2;#P hidden message 441 34 93 196617 window flags grow \, window exec;#P window linecount 6;#P hidden message 441 66 95 196617 window size 100 100 634 362 \, window flags nogrow \, window exec \, savewindow 1;#P window linecount 0;#N vpatcher 10 59 610 459;#P window setfont "Sans Serif" 9.;#P hidden newex 50 71 32 196617 sel 1;#P hidden newex 50 50 151 196617 jcom.oscroute /open_inspector;#P hidden newex 50 92 40 196617 t front;#P inlet 50 30 15 0;#P outlet 50 114 15 0;#P connect 1 0 3 0;#P hidden connect 3 0 4 0;#P hidden connect 4 0 2 0;#P connect 2 0 0 0;#P pop;#P hidden newobj 432 14 41 196617 p front;#P window linecount 1;#N vpatcher 10 59 509 329;#P window setfont "Sans Serif" 9.;#P newex 46 189 62 196617 prepend set;#P newex 46 168 44 196617 qlim 40;#P window linecount 0;#P newex 96 76 62 196617 prepend set;#P inlet 46 27 15 0;#P newex 69 27 70 196617 r $0__inport;#P window linecount 1;#P newex 69 103 54 196617 ctlin 20 1;#P newex 46 127 307 196617 jcom.return button/2 @type msg_toggle @description "Button 2.";#P objectname button/2;#P outlet 46 226 15 0;#P connect 4 0 1 0;#P connect 2 0 1 0;#P connect 1 0 6 0;#P connect 6 0 7 0;#P connect 7 0 0 0;#P connect 3 0 2 0;#P connect 5 0 2 0;#P pop;#P hidden newobj 681 121 35 196617 p two;#P objectname "sub patch[1]";#P hidden newex 681 142 54 196617 pvar TWO;#P user jsui 446 162 19 13 1 0 0 jcom.jsui_texttoggle.js " " " " 74 74 74 0 0 0 162 226 132;#P objectname ONE;#N vpatcher 10 59 374 318;#P window setfont "Sans Serif" 9.;#P window linecount 1;#P newex 46 189 62 196617 prepend set;#P newex 46 168 44 196617 qlim 40;#P window linecount 0;#P newex 69 102 30 196617 > 64;#P inlet 46 27 15 0;#P newex 69 27 70 196617 r $0__inport;#P newex 69 78 54 196617 ctlin 25 1;#P newex 46 127 291 196617 jcom.return button/minus @description "Button labels minus.";#P objectname button/minus;#P outlet 46 221 15 0;#P connect 5 0 1 0;#P connect 4 0 1 0;#P connect 1 0 6 0;#P connect 6 0 7 0;#P connect 7 0 0 0;#P connect 3 0 2 0;#P connect 2 0 5 0;#P pop;#P hidden newobj 585 247 44 196617 p minus;#P objectname "sub patch[10]";#P hidden newex 585 268 63 196617 pvar MINUS;#N vpatcher 10 59 428 327;#P window setfont "Sans Serif" 9.;#P window linecount 1;#P newex 46 189 62 196617 prepend set;#P newex 46 168 44 196617 qlim 40;#P window linecount 0;#P newex 69 86 30 196617 > 64;#P inlet 46 27 15 0;#P newex 69 33 70 196617 r $0__inport;#P newex 69 56 54 196617 ctlin 22 1;#P newex 46 127 307 196617 jcom.return button/4 @type msg_toggle @description "Button 4.";#P objectname button/4;#P outlet 46 232 15 0;#P connect 5 0 1 0;#P connect 4 0 1 0;#P connect 1 0 6 0;#P connect 6 0 7 0;#P connect 7 0 0 0;#P connect 3 0 2 0;#P connect 2 0 5 0;#P pop;#P hidden newobj 585 192 37 196617 p four;#P objectname "sub patch[9]";#P hidden newex 585 213 57 196617 pvar FOUR;#P window linecount 0;#N thispatcher;#Q window flags nogrow close zoom nofloat;#Q window size 100 100 634 362;#Q window title;#Q window exec;#Q savewindow 1;#Q end;#P hidden newobj 432 145 61 196617 thispatcher;#P hidden inlet 432 -4 15 0;#P hidden newex 432 165 88 196617 bgcolor 24 24 24;#P bpatcher 378 8 51 243 0 0 jalg.uc-33.mxt 0 $0_ 8;#P objectname jalg.uc-33.mxt[7];#P bpatcher 325 8 51 243 0 0 jalg.uc-33.mxt 0 $0_ 7;#P objectname jalg.uc-33.mxt[6];#P bpatcher 272 8 51 243 0 0 jalg.uc-33.mxt 0 $0_ 6;#P objectname jalg.uc-33.mxt[5];#P bpatcher 219 8 51 243 0 0 jalg.uc-33.mxt 0 $0_ 5;#P objectname jalg.uc-33.mxt[4];#P bpatcher 166 8 51 243 0 0 jalg.uc-33.mxt 0 $0_ 4;#P objectname jalg.uc-33.mxt[3];#P bpatcher 113 8 51 243 0 0 jalg.uc-33.mxt 0 $0_ 3;#P objectname jalg.uc-33.mxt[2];#P bpatcher 60 8 51 243 0 0 jalg.uc-33.mxt 0 $0_ 2;#P objectname jalg.uc-33.mxt[1];#P bpatcher 7 8 51 243 0 0 jalg.uc-33.mxt 0 $0_ 1;#P objectname jalg.uc-33.mxt;#P user panel 431 155 94 96;#X brgb 24 24 24;#X frgb 132 132 132;#X border 1;#X rounded 0;#X shadow 0;#X done;#P hidden connect 10 0 19 0;#P hidden connect 20 0 11 0;#P hidden fasten 21 0 11 0 446 64 437 64;#P hidden connect 19 0 11 0;#P connect 53 0 54 0;#P hidden fasten 26 0 27 0 590 164 579 164 579 162 579 161 579 114 590 114;#P hidden connect 27 0 26 0;#P hidden fasten 12 0 13 0 590 235 579 235 579 233 579 232 579 185 590 185;#P hidden connect 13 0 12 0;#P hidden fasten 14 0 15 0 590 290 579 290 579 288 579 287 579 240 590 240;#P hidden connect 15 0 14 0;#P connect 55 0 56 0;#P hidden fasten 17 0 18 0 686 164 675 164 675 162 675 161 675 114 686 114;#P hidden connect 18 0 17 0;#P hidden fasten 22 0 23 0 686 235 675 235 675 233 675 232 675 185 686 185;#P hidden connect 23 0 22 0;#P hidden fasten 24 0 25 0 686 290 675 290 675 288 675 287 675 240 686 240;#P hidden connect 25 0 24 0;#P hidden fasten 47 0 48 0 686 346 675 346 675 344 675 343 675 296 686 296;#P hidden connect 48 0 47 0;#P hidden fasten 49 0 50 0 743 417 732 417 732 415 732 414 732 367 743 367;#P hidden connect 50 0 49 0;#P hidden fasten 41 0 42 0 787 164 776 164 776 162 776 161 776 114 787 114;#P hidden connect 42 0 41 0;#P hidden fasten 43 0 44 0 787 235 776 235 776 233 776 232 776 185 787 185;#P hidden connect 44 0 43 0;#P hidden fasten 45 0 46 0 787 290 776 290 776 288 776 287 776 240 787 240;#P hidden connect 46 0 45 0;#P hidden fasten 51 0 52 0 849 417 838 417 838 415 838 414 838 367 849 367;#P hidden connect 52 0 51 0;#P pop;#P hidden newobj 119 270 77 196626 p uc-33;#P objectname inspector;#P window setfont "Sans Serif" 9.;#P hidden message 49 72 191 196617 /preset/store 1 default \, /preset/write;#B color 3;#P hidden newex 119 173 43 196617 jcom.in;#P hidden newex 119 221 45 196617 pcontrol;#P hidden newex 119 197 78 196617 jcom.pass open;#P window linecount 2;#P hidden message 23 364 65 196617 \; max refresh;#P window linecount 1;#P hidden message 185 89 31 196617 /init;#P comment 4 21 65 196617 MIDI in:;#B frgb 149 149 149;#P window linecount 2;#P hidden newex 16 114 336 196617 jcom.hub jmod.uc-33 @size 1U-half @module_type control @inspector 1 @description "A module interfacing with the Edirol UC-33 MIDI fader.";#P objectname jcom.hub;#P hidden inlet 16 90 13 0;#P hidden outlet 16 316 13 0;#P hidden newex 127 406 240 196617 jcom.parameter midi_in @priority 0 @description "Port to receive MIDI messages on.";#P objectname midi_in;#P window linecount 1;#P hidden message 231 290 222 196617 /open_inspector 0;#P hidden newex 231 270 61 196617 prepend set;#P hidden message 56 89 125 196617 /documentation/generate;#B color 3;#P bpatcher 0 0 256 62 0 0 jcom.gui.mxt 0 $0_;#P objectname jcom.gui.audio-component.mxt;#P hidden fasten 9 0 7 0 190 110 21 110;#P hidden connect 6 0 7 0;#P hidden fasten 1 0 7 0 61 110 21 110;#P hidden fasten 14 0 7 0 54 110 21 110;#P hidden connect 7 0 5 0;#P hidden connect 13 0 11 0;#P hidden connect 11 0 12 0;#P hidden fasten 11 1 15 0 192 260 124 260;#P hidden connect 12 0 15 0;#P hidden connect 16 0 19 0;#P hidden fasten 4 0 19 0 132 440 119 440 119 376 132 376;#P hidden fasten 19 1 4 0 194 400 132 400;#P hidden connect 18 0 16 1;#P hidden fasten 11 1 2 0 192 249 236 249;#P hidden connect 2 0 3 0;#P hidden connect 4 1 21 0;#P hidden connect 21 0 20 0;#P pop;