max v2;#N vpatcher 59 298 1009 711;#P origin 10 -64;#P window setfont "Sans Serif" 9.;#P window linecount 1;#P hidden newex 173 167 43 196617 jcom.in;#P hidden newex 476 231 90 196617 pvar sample_rate;#P window linecount 2;#P hidden newex 476 253 314 196617 jcom.parameter sample_rate @type msg_int @ramp 1 @repetitions 0 @range -1 1000 @clipmode low @description "Turn polling on";#P objectname sample_rate[1];#P number 143 28 35 9 -1 0 8225 3 0 0 0 221 221 221 222 222 222 0 0 0;#P objectname sample_rate;#P user jsui 47 27 20 15 1 0 0 jcom.jsui_texttoggle.js on off;#P objectname status;#P user jsui 17 27 25 15 1 0 0 jsui_textbutton.js init;#P objectname init;#P window linecount 1;#P hidden newex 476 158 49 196617 pvar init;#P window linecount 2;#P hidden newex 476 180 209 196617 jcom.message init @type generic @clipmode none @description "Initialization of devices";#P objectname jmod.parameter[3];#P window linecount 1;#P hidden newex 476 81 62 196617 pvar status;#P hidden newex 476 103 387 196617 jcom.parameter status @type toggle @clipmode none @description "Turn polling on";#P objectname status[1];#P hidden newex 173 225 45 196617 pcontrol;#P hidden newex 173 201 78 196617 jcom.pass open;#P hidden message 38 69 125 196617 /documentation/generate;#P window linecount 2;#P hidden message 16 229 66 196617 \; max refresh;#P hidden message 16 195 75 196617 \; jmod.init bang;#P window linecount 1;#P hidden newex 173 317 156 196617 jalg.phidgets.accelerometer.mxt;#P window linecount 2;#P hidden newex 16 94 329 196617 jcom.hub mod.phidgets @size 1U-half @module_type control @description "Use human interface devices (gamepads and joysticks).";#P objectname jmod.hub;#P hidden inlet 16 70 13 0;#P hidden outlet 16 167 13 0;#P window linecount 1;#P comment 88 30 63 196617 sample rate;#P bpatcher 0 0 256 62 0 0 jcom.gui.mxt 0;#P objectname jmod.gui.1Uh.a.stereo.mxt;#P hidden connect 3 0 4 0;#P hidden fasten 8 0 4 0 43 88 21 88;#P hidden connect 4 0 2 0;#P hidden connect 20 0 9 0;#P hidden connect 9 0 10 0;#P hidden fasten 9 1 5 0 246 253 178 253;#P hidden connect 10 0 5 0;#P hidden fasten 11 0 12 0 481 126 465 126 465 70 481 70;#P hidden connect 12 0 11 0;#P hidden connect 14 0 13 0;#P hidden fasten 18 0 19 0 481 286 469 286 469 226 481 226;#P hidden connect 19 0 18 0;#P pop;