max v2;#N vpatcher 61 67 859 878;#P window setfont "Sans Serif" 9.;#P window linecount 2;#P hidden newex 177 170 257 196617 jcom.return cue @type msg_symbol @description "Cue to be triggered. For communication with jmod.cuelist.";#P window linecount 1;#P hidden message 272 85 33 196617 clear;#P hidden message 272 103 47 196617 clear all;#P hidden newex 26 514 66 196617 pvar Rewind;#P hidden newex 26 536 377 196617 jcom.message rewind @type msg_none @description "Rewind to first cue in list.";#P user jsui 229 0 26 21 3 0 0 jsui_textbutton.js |<< 225 225 225 68 68 68;#P objectname Rewind;#P hidden newex 26 492 383 196617 jcom.message cues @type msg_generic @description "List of all cues as symbols.";#N vpatcher 510 135 1141 692;#P window setfont "Sans Serif" 9.;#P window linecount 0;#P newex 73 51 272 196617 jcom.message ho @type msg_none "Trigger selected cue.";#P comment 69 439 100 196617 Cue triggered;#P newex 78 116 30 196617 t b b;#P newex 386 320 27 196617 + 1;#P window linecount 1;#P message 386 353 61 196617 select 0 \$1;#P outlet 386 415 15 0;#P outlet 475 417 15 0;#P number 243 190 35 9 0 0 0 3 0 0 0 221 221 221 222 222 222 0 0 0;#P newex 140 212 53 196617 t i b i i;#P newex 154 302 114 196617 pack sync click 0 0 0 0;#P newex 234 278 27 196617 + 4;#P newex 140 182 27 196617 i;#P window linecount 0;#P message 243 159 20 196617 \$2;#P inlet 78 91 15 0;#P newex 98 182 36 196617 zl reg;#P outlet 98 411 15 0;#P window linecount 1;#P newex 284 155 62 196617 prepend set;#P newex 243 121 51 196617 zl slice 2;#P inlet 243 91 15 0;#P outlet 284 410 15 0;#P comment 382 439 133 196617 to ji.cellblock left and right;#P comment 249 439 100 196617 To text display;#P connect 8 0 19 0;#P fasten 21 1 19 0 209 111 83 111;#P connect 19 1 7 0;#P connect 7 0 6 0;#P connect 4 1 7 1;#P connect 19 0 10 0;#P connect 10 0 13 0;#P connect 13 1 12 0;#P connect 9 0 10 1;#P connect 13 2 12 2;#P connect 13 3 11 0;#P connect 11 0 12 4;#P connect 3 0 4 0;#P connect 4 0 9 0;#P connect 9 0 14 0;#P connect 4 1 5 0;#P connect 5 0 2 0;#P fasten 13 0 18 0 145 258 391 258;#P connect 18 0 17 0;#P connect 17 0 16 0;#P connect 12 0 15 0;#P pop;#P hidden newobj 177 147 76 196617 p display_next;#P user jsui 3 57 65 61 1 0 0 jsui_textbutton.js Go 225 225 225 68 68 68;#P window setfont "Sans Serif" 24.;#P user textedit 3 20 253 56 32841 3 24;#X setrgb 225 225 225 48 48 48;#P user jit.cellblock 70 57 253 118 3 9 1 256 283 14 0 1 0 0 0 0 1 0 1 181 181 181 48 48 48 227 153 153 0 0 0 191 191 191 0 0 0 67 65 81 1 1 1 0 4 0 0 0;#P window setfont "Sans Serif" 9.;#P hidden newex 268 19 116 196617 loadmess nosymquote 1;#P hidden message 59 210 191 196617 /preset/store 1 default \, /preset/write;#B color 3;#P hidden newex 129 327 43 196617 jcom.in;#P hidden newex 129 375 45 196617 pcontrol;#P hidden newex 129 351 78 196617 jcom.pass open;#P window linecount 2;#P hidden message 26 558 65 196617 \; max refresh;#P window linecount 1;#P hidden message 195 227 31 196617 /init;#N vpatcher 272 168 1004 472;#P window setfont "Sans Serif" 9.;#P window linecount 1;#P comment 87 51 114 196617 incomming osc;#P window linecount 0;#P message 70 141 93 196617 sync click 0 0 4 0 \, select 0 0;#P window linecount 1;#P newex 195 141 40 196617 t b l b;#P message 195 203 55 196617 select 0 0;#P outlet 195 241 15 0;#P message 254 202 63 196617 set 0 \$1 \$2;#P window linecount 0;#P newex 347 178 20 196617 t b;#P window linecount 1;#P message 347 202 47 196617 clear all;#P newex 254 174 52 196617 listfunnel;#P window linecount 0;#P newex 70 83 146 196617 jcom.oscroute /rewind /cues;#P outlet 78 241 15 0;#P inlet 70 50 15 0;#P comment 216 241 114 196617 controlling jit.cellblock;#P connect 1 0 3 0;#P connect 3 0 11 0;#P connect 3 1 10 0;#P connect 10 0 9 0;#P connect 5 0 8 0;#P connect 7 0 8 0;#P connect 9 0 8 0;#P connect 11 0 8 0;#P connect 10 1 4 0;#P connect 4 0 7 0;#P connect 10 2 6 0;#P connect 6 0 5 0;#P pop;#P hidden newobj 129 432 91 196617 p jalg.cue_trigger;#P window linecount 3;#P hidden newex 26 252 280 196617 jcom.hub jmod.cue_trigger @size 2U-half @module_type control @description "graphical interface for triggering cues in conjunction with jmod.cuelist.";#P objectname jcom.hub;#P hidden inlet 26 228 13 0;#P hidden outlet 26 454 13 0;#P window linecount 1;#P hidden message 66 227 125 196617 /documentation/generate;#B color 3;#P user hint 1 22 251 59 "Next cue to be triggered" 1000 100 0 65535 65535 52428 9 3 0 1 0 0 0;#P bpatcher 0 0 256 120 0 0 jcom.gui.mxt 0 $0_;#P objectname jcom.gui.audio-component.mxt;#P hidden fasten 13 0 15 0 273 15 8 15;#P hidden connect 17 1 15 0;#P lcolor 14;#P hidden connect 23 0 15 0;#P hidden fasten 12 0 5 0 64 248 31 248;#P hidden fasten 2 0 5 0 71 248 31 248;#P hidden connect 4 0 5 0;#P hidden fasten 7 0 5 0 200 248 31 248;#P hidden connect 5 0 3 0;#P hidden connect 21 0 20 0;#P hidden connect 17 2 14 0;#P lcolor 14;#P hidden fasten 6 1 14 0 215 458 442 458 442 45 75 45;#P hidden connect 22 0 14 0;#P hidden connect 11 0 9 0;#P hidden connect 9 0 10 0;#P hidden connect 10 0 6 0;#P hidden fasten 9 1 6 0 202 423 134 423;#P hidden connect 16 0 17 0;#P hidden connect 17 0 24 0;#P hidden connect 17 3 14 1;#P lcolor 14;#P hidden connect 14 0 17 1;#P pop;