max v2;#N vpatcher 276 58 1094 454;#P origin 10 -64;#P window setfont "Sans Serif" 9.;#P hidden newex 176 139 43 196617 jcom.in;#P hidden newex 476 231 90 196617 pvar sample_rate;#P window linecount 2;#P hidden newex 476 253 335 196617 jcom.parameter status @type msg_int @ramp linear.sched @repetitions 0 @range -1 1000 @clipmode low @description "Turn polling on";#P objectname status[1];#P number 143 28 35 9 -1 0 8225 3 0 0 0 221 221 221 222 222 222 0 0 0;#P objectname sample_rate;#P user jsui 47 27 20 15 1 0 0 jcom.jsui_texttoggle.js off on;#P objectname status;#P user jsui 17 27 25 15 1 0 0 jsui_textbutton.js init;#P objectname init;#P window linecount 1;#P hidden newex 476 158 49 196617 pvar init;#P window linecount 2;#P hidden newex 476 180 257 196617 jcom.message init @type msg_generic @clipmode none @description "Initialization of devices";#P objectname jcom.parameter[3];#P window linecount 1;#P hidden newex 476 81 62 196617 pvar status;#P window linecount 2;#P hidden newex 476 103 223 196617 jcom.parameter status @type msg_toggle @clipmode none @description "Turn polling on";#P objectname status[2];#P window linecount 1;#P hidden newex 176 185 45 196617 pcontrol;#P hidden newex 176 161 91 196617 jcom.pass open;#P hidden message 38 69 125 196617 /documentation/generate;#P window linecount 2;#P hidden message 16 229 66 196617 \; max refresh;#P hidden message 16 195 75 196617 \; jcom.init bang;#P window linecount 1;#P hidden newex 176 275 110 196617 jalg.phidgets.mxt;#P window linecount 2;#P hidden newex 16 94 329 196617 jcom.hub jmod.phidgets @size 1U-half @module_type control @description "Use human interface devices (gamepads and joysticks).";#P objectname jcom.hub;#P hidden inlet 16 70 13 0;#P hidden outlet 16 167 13 0;#P window linecount 1;#P hidden message 282 244 153 196617 /preset/save bang;#P hidden newex 282 222 61 196617 prepend set;#P comment 88 30 63 196617 sample rate;#P bpatcher 0 0 256 62 0 0 jcom.gui.mxt 0;#P objectname jcom.gui.1Uh.a.stereo.mxt;#P hidden fasten 10 0 6 0 43 88 21 88;#P hidden connect 5 0 6 0;#P hidden connect 6 0 4 0;#P connect 22 0 11 0;#P hidden connect 11 0 12 0;#P hidden connect 12 0 7 0;#P hidden fasten 11 1 7 0 262 211 181 211;#P hidden fasten 11 1 2 0 262 199 287 199;#P hidden connect 2 0 3 0;#P hidden fasten 13 0 14 0 481 136 469 136 469 76 481 76;#P hidden connect 14 0 13 0;#P hidden connect 16 0 15 0;#P hidden fasten 20 0 21 0 481 286 469 286 469 226 481 226;#P hidden connect 21 0 20 0;#P pop;