max v2;
#N vpatcher 108 106 1261 745;
#P window setfont "Sans Serif" 9.;
#P window linecount 1;
#P newex 610 293 80 9109513 prepend set 0 0;
#P newex 610 317 27 9109513 t b l;
#P user ftm.object 610 344 51 18 139 9 --> 0;
#T _#ftm version 2 3;
#T _#scope begin;
#T _#absargs $0_ $1_ $2_ $3_ $4_ $5_ $6_ $7_ $8_ $9_;
#T _#obj 1 fmat;
#T _#def 0 "_fmat 1 1" stream6 local;
#P newex 704 293 80 9109513 prepend set 0 0;
#P newex 704 317 27 9109513 t b l;
#P user ftm.object 704 344 51 18 139 9 --> 0;
#T _#obj 2 fmat;
#T _#def 0 "_fmat 1 1" stream7 local;
#P newex 422 293 80 9109513 prepend set 0 0;
#P newex 422 317 27 9109513 t b l;
#P user ftm.object 422 344 51 18 139 9 --> 0;
#T _#obj 3 fmat;
#T _#def 0 "_fmat 1 1" stream4 local;
#P newex 516 293 80 9109513 prepend set 0 0;
#P newex 516 317 27 9109513 t b l;
#P user ftm.object 516 344 51 18 139 9 --> 0;
#T _#obj 4 fmat;
#T _#def 0 "_fmat 1 1" stream5 local;
#P newex 234 293 80 9109513 prepend set 0 0;
#P newex 234 317 27 9109513 t b l;
#P user ftm.object 234 344 51 18 139 9 --> 0;
#T _#obj 5 fmat;
#T _#def 0 "_fmat 1 1" stream2 local;
#P newex 328 293 80 9109513 prepend set 0 0;
#P newex 328 317 27 9109513 t b l;
#P user ftm.object 328 344 51 18 139 9 --> 0;
#T _#obj 6 fmat;
#T _#def 0 "_fmat 1 1" stream3 local;
#P user ftm.mess 829 208 52 15 3 9 255 255 255 0 0 0 1 2 0 0 0 --> 0;
#T _#line "_size $1 $2";
#P user ftm.mess 745 208 52 15 3 9 255 255 255 0 0 0 1 2 0 0 0 --> 0;
#T _#line "_size $1 $2";
#P user ftm.mess 661 208 52 15 3 9 255 255 255 0 0 0 1 2 0 0 0 --> 0;
#T _#line "_size $1 $2";
#P user ftm.mess 493 208 52 15 3 9 255 255 255 0 0 0 1 2 0 0 0 --> 0;
#T _#line "_size $1 $2";
#P user ftm.mess 577 208 52 15 3 9 255 255 255 0 0 0 1 2 0 0 0 --> 0;
#T _#line "_size $1 $2";
#P user ftm.mess 409 208 52 15 3 9 255 255 255 0 0 0 1 2 0 0 0 --> 0;
#T _#line "_size $1 $2";
#P user ftm.mess 325 208 52 15 3 9 255 255 255 0 0 0 1 2 0 0 0 --> 0;
#T _#line "_size $1 $2";
#P newex 140 293 80 9109513 prepend set 0 0;
#P newex 140 317 27 9109513 t b l;
#P user ftm.object 140 344 51 18 139 9 --> 0;
#T _#obj 7 fmat;
#T _#def 0 "_fmat 1 1" stream1 local;
#P user ftm.mess 241 208 52 15 3 9 255 255 255 0 0 0 1 2 0 0 0 --> 0;
#T _#line "_size $1 $2";
#P newex 241 179 641 9109513 unpack 0 0 0 0 0 0 0 0 0 0 0 0 0 0 0 0;
#P newex 241 152 185 9109513 patcherargs 1 1 1 1 1 1 1 1 1 1 1 1 1 1 1 1;
#P newex 46 293 80 9109513 prepend set 0 0;
#P newex 46 317 27 9109513 t b l;
#P user ftm.object 46 344 51 18 139 9 --> 0;
#T _#obj 8 fmat;
#T _#def 0 "_fmat 1 1" stream0 local;
#T _#scope end;
#N comlet Data to be recorded to stream 7;
#P inlet 704 247 15 0;
#N comlet Data to be recorded to stream 3;
#P inlet 328 247 15 0;
#N comlet Data to be recorded to stream 4;
#P inlet 422 247 15 0;
#N comlet Data to be recorded to stream 5;
#P inlet 516 247 15 0;
#N comlet Data to be recorded to stream 6;
#P inlet 610 247 15 0;
#N comlet Data to be recorded to stream 2;
#P inlet 234 247 15 0;
#N comlet Data to be recorded to stream 1;
#P inlet 140 247 15 0;
#P newex 704 402 73 9109513 prepend /data/7;
#P newex 610 402 73 9109513 prepend /data/6;
#P newex 516 402 73 9109513 prepend /data/5;
#P newex 422 402 73 9109513 prepend /data/4;
#P newex 328 402 73 9109513 prepend /data/3;
#P newex 234 402 73 9109513 prepend /data/2;
#P newex 140 402 73 9109513 prepend /data/1;
#P newex 46 402 73 9109513 prepend /data/0;
#P outlet 46 440 15 0;
#N comlet Data to be recorded to stream 0;
#P inlet 46 247 15 0;
#P connect 0 0 19 0;
#P connect 19 0 18 0;
#P connect 18 1 17 0;
#P connect 18 0 17 0;
#P connect 22 0 17 0;
#P lcolor 1;
#P connect 17 0 2 0;
#P fasten 9 0 1 0 709 430 51 430;
#P fasten 8 0 1 0 615 430 51 430;
#P fasten 7 0 1 0 521 430 51 430;
#P fasten 6 0 1 0 427 430 51 430;
#P fasten 5 0 1 0 333 430 51 430;
#P fasten 4 0 1 0 239 430 51 430;
#P fasten 2 0 1 0 51 430 51 430;
#P fasten 3 0 1 0 145 430 51 430;
#P connect 10 0 25 0;
#P connect 25 0 24 0;
#P connect 24 0 23 0;
#P connect 24 1 23 0;
#P connect 26 0 23 0;
#P lcolor 1;
#P connect 23 0 3 0;
#P connect 11 0 38 0;
#P connect 38 0 37 0;
#P connect 27 0 36 0;
#P lcolor 1;
#P connect 37 1 36 0;
#P connect 37 0 36 0;
#P connect 36 0 4 0;
#P connect 20 0 21 0;
#P connect 21 0 22 0;
#P connect 21 1 22 1;
#P connect 21 2 26 0;
#P connect 15 0 35 0;
#P connect 35 0 34 0;
#P connect 29 0 33 0;
#P lcolor 1;
#P connect 34 0 33 0;
#P connect 34 1 33 0;
#P connect 33 0 5 0;
#P connect 21 3 26 1;
#P connect 21 4 27 0;
#P connect 14 0 44 0;
#P connect 44 0 43 0;
#P connect 28 0 42 0;
#P lcolor 1;
#P connect 43 0 42 0;
#P connect 43 1 42 0;
#P connect 42 0 6 0;
#P connect 21 5 27 1;
#P connect 21 6 29 0;
#P connect 13 0 41 0;
#P connect 41 0 40 0;
#P connect 30 0 39 0;
#P lcolor 1;
#P connect 40 1 39 0;
#P connect 40 0 39 0;
#P connect 39 0 7 0;
#P connect 21 7 29 1;
#P connect 21 8 28 0;
#P connect 12 0 50 0;
#P connect 50 0 49 0;
#P connect 31 0 48 0;
#P lcolor 1;
#P connect 49 1 48 0;
#P connect 49 0 48 0;
#P connect 48 0 8 0;
#P connect 21 9 28 1;
#P connect 21 10 30 0;
#P connect 21 11 30 1;
#P connect 16 0 47 0;
#P connect 47 0 46 0;
#P connect 32 0 45 0;
#P lcolor 1;
#P connect 46 0 45 0;
#P connect 46 1 45 0;
#P connect 45 0 9 0;
#P connect 21 12 31 0;
#P connect 21 13 31 1;
#P connect 21 14 32 0;
#P connect 21 15 32 1;
#P pop;
