{
	"patcher" : 	{
		"fileversion" : 1,
		"rect" : [ 620.0, 147.0, 566.0, 307.0 ],
		"bglocked" : 0,
		"defrect" : [ 620.0, 147.0, 566.0, 307.0 ],
		"openrect" : [ 0.0, 0.0, 0.0, 0.0 ],
		"openinpresentation" : 0,
		"default_fontsize" : 10.0,
		"default_fontface" : 0,
		"default_fontname" : "Verdana",
		"gridonopen" : 0,
		"gridsize" : [ 5.0, 5.0 ],
		"gridsnaponopen" : 0,
		"toolbarvisible" : 1,
		"boxanimatetime" : 200,
		"imprint" : 0,
		"boxes" : [ 			{
				"box" : 				{
					"fontname" : "Verdana",
					"fontsize" : 10.0,
					"id" : "obj-8",
					"maxclass" : "newobj",
					"numinlets" : 1,
					"numoutlets" : 2,
					"outlettype" : [ "bang", "" ],
					"patching_rect" : [ 470.0, 175.0, 33.0, 19.0 ],
					"text" : "t b s"
				}

			}
, 			{
				"box" : 				{
					"fontname" : "Verdana",
					"fontsize" : 10.0,
					"id" : "obj-1",
					"items" : [ "value", ",", "type", ",", "range/bounds", ",", "range/clipmode", ",", "ramp/drive", ",", "repetitions/allow" ],
					"maxclass" : "umenu",
					"numinlets" : 1,
					"numoutlets" : 3,
					"outlettype" : [ "int", "", "" ],
					"patching_rect" : [ 430.0, 125.0, 100.0, 19.0 ],
					"types" : [  ]
				}

			}
, 			{
				"box" : 				{
					"args" : [ "/mouse" ],
					"id" : "obj-13",
					"maxclass" : "bpatcher",
					"name" : "jmod.mouse.maxpat",
					"numinlets" : 1,
					"numoutlets" : 1,
					"outlettype" : [ "" ],
					"patching_rect" : [ 25.0, 200.0, 150.0, 70.0 ],
					"presentation_rect" : [ 0.0, 0.0, 150.0, 70.0 ]
				}

			}
, 			{
				"box" : 				{
					"fontname" : "Verdana",
					"fontsize" : 10.0,
					"id" : "obj-9",
					"maxclass" : "message",
					"numinlets" : 2,
					"numoutlets" : 1,
					"outlettype" : [ "" ],
					"patching_rect" : [ 240.0, 260.0, 150.0, 17.0 ],
					"text" : "0"
				}

			}
, 			{
				"box" : 				{
					"fontname" : "Verdana",
					"fontsize" : 10.0,
					"id" : "obj-7",
					"maxclass" : "message",
					"numinlets" : 2,
					"numoutlets" : 1,
					"outlettype" : [ "" ],
					"patching_rect" : [ 240.0, 125.0, 81.0, 17.0 ],
					"text" : "/control/audio"
				}

			}
, 			{
				"box" : 				{
					"fontname" : "Verdana",
					"fontsize" : 10.0,
					"id" : "obj-6",
					"maxclass" : "message",
					"numinlets" : 2,
					"numoutlets" : 1,
					"outlettype" : [ "" ],
					"patching_rect" : [ 330.0, 125.0, 83.0, 17.0 ],
					"text" : "/mouse/active"
				}

			}
, 			{
				"box" : 				{
					"args" : [ "/control" ],
					"id" : "obj-2",
					"maxclass" : "bpatcher",
					"name" : "jmod.control.maxpat",
					"numinlets" : 1,
					"numoutlets" : 1,
					"outlettype" : [ "" ],
					"patching_rect" : [ 25.0, 125.0, 150.0, 70.0 ],
					"presentation_rect" : [ 0.0, 0.0, 150.0, 70.0 ]
				}

			}
, 			{
				"box" : 				{
					"fontname" : "Verdana",
					"fontsize" : 10.0,
					"id" : "obj-29",
					"maxclass" : "newobj",
					"numinlets" : 2,
					"numoutlets" : 1,
					"outlettype" : [ "" ],
					"patching_rect" : [ 240.0, 220.0, 149.0, 19.0 ],
					"text" : "jcom.getOneAttribute value"
				}

			}
, 			{
				"box" : 				{
					"fontname" : "Verdana",
					"fontsize" : 17.553501,
					"frgb" : [ 0.0, 0.0, 0.0, 1.0 ],
					"id" : "obj-32",
					"maxclass" : "comment",
					"numinlets" : 1,
					"numoutlets" : 0,
					"patching_rect" : [ 30.0, 30.0, 251.0, 28.0 ],
					"presentation" : 1,
					"presentation_rect" : [ 52.0, 56.0, 251.0, 28.0 ],
					"text" : "jcom.getOneAttribute"
				}

			}
, 			{
				"box" : 				{
					"fontname" : "Verdana",
					"fontsize" : 10.0,
					"frgb" : [ 0.0, 0.0, 0.0, 1.0 ],
					"id" : "obj-33",
					"maxclass" : "comment",
					"numinlets" : 1,
					"numoutlets" : 0,
					"patching_rect" : [ 31.0, 60.0, 267.0, 19.0 ],
					"presentation" : 1,
					"presentation_rect" : [ 53.0, 86.0, 295.0, 19.0 ],
					"text" : "get the attribute of a parameter/message/return"
				}

			}
, 			{
				"box" : 				{
					"id" : "obj-34",
					"maxclass" : "panel",
					"numinlets" : 1,
					"numoutlets" : 0,
					"patching_rect" : [ 25.0, 20.0, 298.0, 65.0 ],
					"presentation" : 1,
					"presentation_rect" : [ 46.0, 44.0, 298.0, 65.0 ],
					"rounded" : 15
				}

			}
 ],
		"lines" : [ 			{
				"patchline" : 				{
					"destination" : [ "obj-29", 1 ],
					"hidden" : 0,
					"midpoints" : [ 493.5, 207.0, 379.5, 207.0 ],
					"source" : [ "obj-8", 1 ]
				}

			}
, 			{
				"patchline" : 				{
					"destination" : [ "obj-29", 0 ],
					"hidden" : 0,
					"midpoints" : [ 479.5, 202.0, 249.5, 202.0 ],
					"source" : [ "obj-8", 0 ]
				}

			}
, 			{
				"patchline" : 				{
					"destination" : [ "obj-8", 0 ],
					"hidden" : 0,
					"midpoints" : [  ],
					"source" : [ "obj-1", 1 ]
				}

			}
, 			{
				"patchline" : 				{
					"destination" : [ "obj-9", 1 ],
					"hidden" : 0,
					"midpoints" : [ 249.5, 249.0, 380.5, 249.0 ],
					"source" : [ "obj-29", 0 ]
				}

			}
, 			{
				"patchline" : 				{
					"destination" : [ "obj-29", 0 ],
					"hidden" : 0,
					"midpoints" : [  ],
					"source" : [ "obj-7", 0 ]
				}

			}
, 			{
				"patchline" : 				{
					"destination" : [ "obj-29", 0 ],
					"hidden" : 0,
					"midpoints" : [ 339.5, 155.5, 249.5, 155.5 ],
					"source" : [ "obj-6", 0 ]
				}

			}
 ]
	}

}
