max v2;#N vpatcher 117 44 921 388;#P window setfont "Sans Serif" 9.;#P window linecount 1;#P hidden newex 646 245 91 196617 prepend setitem 0;#P objectname display/1[6];#P window linecount 2;#P hidden newex 525 212 253 196617 jcom.parameter display/4 @type msg_symbol  @description "Lower-right display string";#P objectname display/4;#P window linecount 1;#P hidden newex 647 179 91 196617 prepend setitem 0;#P objectname display/1[4];#P window linecount 2;#P hidden newex 526 146 252 196617 jcom.parameter display/3 @type msg_symbol  @description "Lower-left display string";#P objectname display/3;#P window linecount 1;#P hidden newex 647 113 91 196617 prepend setitem 0;#P objectname display/1[2];#P window linecount 2;#P hidden newex 526 80 253 196617 jcom.parameter display/2 @type msg_symbol  @description "Secondary/Digest display string";#P objectname display/2;#P window linecount 1;#P hidden message 5 182 156 196617 /display/1 "Jamoma Messages";#P hidden newex 646 46 91 196617 prepend setitem 0;#P objectname display/1[1];#P window linecount 2;#P hidden newex 525 13 253 196617 jcom.parameter display/1 @type msg_symbol  @description "Main/Headline display string";#P objectname display/1;#P window setfont Arial 36.;#P user umenu 15 25 477 131137680 3 64 71 0;#X setrgb 66 66 66 221 221 221 255 255 255 221 221 221 170 170 170 119 119 119 187 187 187;#X add "Jamoma Messages";#P window setfont Arial 14.;#P user umenu 255 92 237 131137592 3 64 112 0;#X setrgb 66 66 66 221 221 221 255 255 255 221 221 221 170 170 170 119 119 119 187 187 187;#X add;#P user umenu 17 69 475 131137592 3 64 89 0;#X setrgb 66 66 66 221 221 221 255 255 255 221 221 221 170 170 170 119 119 119 187 187 187;#X add Interactive Performance Environment;#P user umenu 17 92 237 131137592 3 64 112 0;#X setrgb 66 66 66 221 221 221 255 255 255 221 221 221 170 170 170 119 119 119 187 187 187;#X add Welcome...;#P window setfont "Sans Serif" 9.;#P window linecount 1;#P hidden message 209 212 179 196617 preset/store 1 default \, preset/write;#P hidden newex 71 291 38 196617 jcom.in;#P hidden message 40 212 125 196617 /documentation/generate;#P window linecount 2;#P hidden message 140 287 65 196617 \; max refresh;#P window linecount 1;#P hidden message 167 212 37 196617 /init;#P window linecount 2;#P hidden newex 18 239 233 196617 jcom.hub jmod.messages @size 2U @module_type control @description "Message Display";#P objectname jcom.hub;#P hidden inlet 18 213 13 0;#P hidden outlet 18 298 13 0;#P user panel 5 22 499 93;#X brgb 231 231 231;#X frgb 0 0 0;#X border 0;#X rounded 15;#X shadow 0;#X done;#P bpatcher 0 0 511 121 0 0 jcom.gui.mxt 0;#P objectname jcom.gui.1Uh.a.stereo.mxt;#P hidden connect 15 0 13 0;#P hidden connect 18 0 11 0;#P hidden connect 20 0 10 0;#P hidden fasten 16 0 4 0 10 236 23 236;#P hidden fasten 9 0 4 0 214 233 23 233;#P hidden fasten 5 0 4 0 172 233 23 233;#P hidden connect 3 0 4 0;#P hidden fasten 7 0 4 0 45 231 23 231;#P hidden connect 4 0 2 0;#P hidden connect 22 0 12 0;#P hidden connect 14 1 15 0;#P hidden connect 21 1 22 0;#P hidden connect 17 1 18 0;#P hidden connect 19 1 20 0;#P pop;