max v2;
#N vpatcher 317 91 940 605;
#P window setfont "Sans Serif" 9.;
#P window linecount 1;
#P newex 91 175 71 196617 prepend mode;
#P newex 91 135 80 196617 prepend symbol;
#P user umenu 91 155 67 196647 1 64 171 1;
#X add s-shaped;
#X add sinus;
#P objectname Mode;
#N comlet OSC;
#P outlet 25 328 15 0;
#P newex 157 107 137 196617 jcom.pass /bypass /preamp;
#P newex 25 212 120 196617 expr 1./(1. - $f1*0.01);
#N comlet signal 1;
#P outlet 317 328 15 0;
#N comlet signal 2;
#P outlet 353 328 15 0;
#N comlet signal 2;
#P inlet 389 57 15 0;
#N comlet signal 1;
#P inlet 317 57 15 0;
#P newex 25 238 92 196617 prepend overdrive;
#P newex 25 82 142 196617 jcom.oscroute /depth /mode;
#N comlet OSC;
#P inlet 25 57 15 0;
#P newex 317 301 82 196617 jcom.saturation~;
#P connect 1 0 2 0;
#P connect 2 0 8 0;
#P connect 8 0 3 0;
#P connect 2 1 12 0;
#P connect 12 0 11 0;
#P connect 11 0 13 0;
#P connect 2 2 9 0;
#P connect 13 0 0 0;
#P connect 9 1 0 0;
#P connect 9 0 0 0;
#P connect 3 0 0 0;
#P connect 4 0 0 0;
#P connect 0 0 7 0;
#P connect 0 1 6 0;
#P connect 5 0 0 1;
#P pop;
