max v2;#N vpatcher 4 68 945 451;#P origin 0 36;#P user ftm.mess 660 210 168 15 3 9 255 255 255 0 0 0 1 3 0 0 --> 0;#T _#ftm version 2 1;#T _#scope begin;#T _#absargs $0_ $1_ $2_ $3_ $4_ $5_ $6_ $7_ $8_ $9_;#T _#line "_(print in $1 - out $2: ampitude $3)";#P objectname PRINT;#P user ftm.mess 298 303 119 15 3 9 255 255 255 0 0 0 1 3 0 0 --> 0;#T _#line "_print channel $1 amp $3";#P outlet 88 286 15 0;#P inlet 88 64 15 0;#P outlet 431 286 15 0;#P window setfont "Sans Serif" 9.;#P window linecount 1;#N vpatcher 20 74 846 601;#P window setfont "Sans Serif" 9.;#P newex 91 146 50 196617 deferlow;#P button 618 31 15 0;#P message 652 84 111 196617 Current matrix values;#P newex 652 107 166 196617 print ---jmod.sur.speaker.distamp;#P newex 599 56 63 196617 t dump bang;#P inlet 599 31 15 0;#P newex 170 421 206 196617 pattrforward parent::parent::MULTISLIDER;#P newex 143 280 131 196617 if $f1==0. then 1. else $f1;#P user ftm.mess 143 258 52 15 3 9 255 255 255 0 0 0 1 2 0 0 --> 1;#T _#line "_($1 max)";#P newex 432 71 40 196617 change;#P newex 432 48 50 196617 clip 1 32;#P user ftm.mess 91 236 50 15 3 9 255 255 255 0 0 0 1 2 0 0 --> 1;#T _#line "_($1 abs)";#N vpatcher 616 138 1392 593;#P window setfont "Sans Serif" 9.;#P window linecount 1;#P message 349 246 173 196617 script connect MATRIX \$1 PRINT2 0;#P window linecount 3;#P message 314 167 77 196617 script connect MATRIX \$1 PRINT 0;#P window linecount 0;#P newex 96 67 53 196617 t b i i b;#P message 62 167 80 196617 script connect SUBPATCH 0 MATRIX 0;#P window linecount 3;#P message 146 167 80 196617 script connect MATRIX \$1 MULTI_IN \$1;#P window linecount 0;#P message 228 167 83 196617 script connect MULTI_OUT \$1 MATRIX \$1;#P newex 110 115 47 196617 uzi 12 0;#P window linecount 4;#P message 394 167 108 196617 script new MATRIX newex 431 209 222 196617 matrix~ \$1 \$1 1.;#P window linecount 0;#P message 505 167 49 196617 script delete MATRIX;#P outlet 121 336 15 0;#P inlet 96 39 15 0;#P connect 8 0 7 0;#P connect 0 0 8 0;#P connect 8 1 4 0;#P connect 10 0 1 0;#P connect 9 0 1 0;#P connect 2 0 1 0;#P connect 7 0 1 0;#P connect 3 0 1 0;#P connect 6 0 1 0;#P connect 5 0 1 0;#P connect 4 2 6 0;#P connect 4 2 5 0;#P connect 8 2 9 0;#P connect 8 2 10 0;#P connect 8 2 3 0;#P connect 8 3 2 0;#P pop;#P newobj 432 132 58 196617 p scripting;#P message 91 368 52 196617 \$1 \$1 \$2;#P newex 91 346 52 196617 listfunnel;#P newex 91 170 56 196617 clip 1 128;#P newex 91 77 20 196617 t b;#P newex 91 324 44 196617 ftm.list;#P user ftm.mess 91 302 62 15 3 9 255 255 255 0 0 0 1 2 0 0 --> 1;#T _#line "_($1 div $2)";#P newex 91 122 27 196617 i;#N ftm.copy fmat --> 1;#P newobj 91 214 74 196617 ftm.copy fmat;#P user ftm.mess 91 192 129 15 3 9 255 255 255 0 0 0 1 2 0 0 --> 1;#T _#line "_($distances colref 0 0 $1)";#P user ftm.mess 114 77 147 15 3 9 255 255 255 0 0 0 1 2 0 0 --> 1;#T _#line "_($distances set ($1 - 1) 0 $2)";#P user ftm.object 91 446 66 18 3 9 --> 1;#T _#obj 1 fmat;#T _#def 0 "_fmat 128 1" distances local;#T _#scope end;#P newex 91 49 172 196617 unpack 0 0. 0. 0.;#P inlet 432 26 15 0;#P inlet 91 26 15 0;#P outlet 432 421 15 0;#P outlet 91 421 15 0;#P comment 277 282 100 196617 avoid division by 0;#P connect 3 0 5 0;#P connect 5 0 13 0;#P connect 20 0 10 0;#P connect 13 0 10 0;#P connect 10 0 29 0;#P connect 29 0 14 0;#P connect 14 0 8 0;#P connect 8 0 9 0;#P connect 9 0 18 0;#P connect 18 0 11 0;#P connect 11 0 12 0;#P connect 12 0 15 0;#P connect 15 0 16 0;#P connect 16 0 1 0;#P fasten 25 0 1 0 604 411 96 411;#P lcolor 12;#P connect 5 0 7 0;#P connect 18 0 21 0;#P connect 21 0 22 0;#P connect 22 0 11 1;#P fasten 12 0 23 0 96 343 175 343;#P connect 5 3 7 1;#P connect 4 0 19 0;#P connect 19 0 20 0;#P connect 20 0 17 0;#P connect 17 0 2 0;#P connect 24 0 25 0;#P connect 28 0 25 0;#P connect 25 1 27 0;#P connect 27 0 26 0;#P pop;#P newobj 88 141 140 196617 p set_levels;#P objectname SUBPATCH;#N thispatcher;#Q end;#P newobj 232 141 61 196617 thispatcher;#P newex 431 254 417 196617 jcom.multi.in~;#P objectname MULTI_IN;#P newex 431 88 417 196617 jcom.multi.out~;#P objectname MULTI_OUT;#P inlet 431 64 15 0;#P newex 88 115 205 196617 jcom.oscroute /aed /voices /matrix/dump;#P newex 431 209 222 196617 matrix~ 1 1 1.;#P objectname MATRIX;#P connect 8 0 1 0;#P connect 1 0 6 0;#P connect 6 0 9 0;#P connect 1 1 6 1;#P connect 1 2 6 2;#P connect 6 1 5 0;#P connect 2 0 3 0;#P connect 3 0 0 0;#P connect 6 0 0 0;#P connect 0 0 4 0;#P connect 4 0 7 0;#P connect 0 1 11 0;#P pop;