max v2;
#N vpatcher 218 60 1058 394;
#P origin 10 -64;
#P window setfont "Sans Serif" 9.;
#P window linecount 1;
#P hidden newex 116 159 43 9109513 jcom.in;
#P hidden newex 411 193 90 9109513 pvar sample_rate;
#P window linecount 2;
#P hidden newex 411 215 335 9109513 jcom.parameter sample_rate @type msg_int @ramp/drive scheduler @repetitions/allow/allow 0 @range -1 1000 @range/clipmode low @description "Sample rate in milliseconds";
#P objectname sample_rate[1];
#P number 152 30 35 9 -1 0 8225 139 149 149 149 221 221 221 222 222 222 0 0 0;
#P objectname sample_rate;
#P user jsui 47 27 20 15 1 0 0 jcom.jsui_texttoggle.js on off;
#P objectname status;
#P user jsui 17 27 25 15 1 0 0 jsui_textbutton.js init;
#P objectname init;
#P window linecount 1;
#P hidden newex 411 120 49 9109513 pvar init;
#P window linecount 2;
#P hidden newex 411 142 209 9109513 jcom.message init @type generic @range/clipmode none @description "Initialization of devices";
#P objectname jmod.parameter[3];
#P window linecount 1;
#P hidden newex 411 43 62 9109513 pvar status;
#P hidden newex 411 65 387 9109513 jcom.parameter status @type toggle @range/clipmode none @description "Turn polling on";
#P objectname status[1];
#P hidden newex 116 217 45 9109513 pcontrol;
#P hidden newex 116 193 78 9109513 jcom.pass open;
#P hidden message 38 69 125 9109513 /documentation/generate;
#P hidden newex 116 285 156 9109513 jalg.phidgets.accelerometer;
#P window linecount 2;
#P hidden newex 16 94 352 9109513 jcom.hub jmod.phidgets.accelerometer @size 1U-half @module_type control @description "Use human interface devices (gamepads and joysticks).";
#P objectname jmod.hub;
#P hidden inlet 16 70 13 0;
#P hidden outlet 16 167 13 0;
#P window linecount 1;
#P comment 88 30 61 9109513 sample rate;
#B frgb 149 149 149;
#P bpatcher 0 0 256 62 0 0 jcom.gui 0;
#P objectname jmod.gui.1Uh.a.stereo;
#P hidden connect 3 0 4 0;
#P hidden fasten 6 0 4 0 43 88 21 88;
#P hidden connect 4 0 2 0;
#P hidden connect 18 0 7 0;
#P hidden connect 7 0 8 0;
#P hidden connect 8 0 5 0;
#P hidden fasten 7 1 5 0 189 245 121 245;
#P hidden fasten 9 0 10 0 416 88 406 88 406 37 416 37;
#P hidden connect 10 0 9 0;
#P hidden connect 12 0 11 0;
#P hidden fasten 16 0 17 0 416 248 404 248 404 188 416 188;
#P hidden connect 17 0 16 0;
#P pop;
