max v2;#N vpatcher 91 74 1222 766;#P origin -22 0;#P window setfont "Sans Serif" 9.;#P window linecount 2;#P newex 742 254 333 196617 jcom.return cooked/button/right @range 0 1 @type msg_int @clipmode both @description "Cooked right button activity on-off (1-0)";#P newex 720 215 321 196617 jcom.return raw/right_button @range 0 1 @type msg_int @clipmode both @description "Raw right button activity on-off (1-0)";#P newex 693 177 327 196617 jcom.return cooked/button/left @range 0 1 @type msg_int @clipmode both @description "Cooked left button activity on-off (1-0)";#P newex 676 140 315 196617 jcom.return raw/left_button @range 0 1 @type msg_int @clipmode both @description "Raw left button activity on-off (1-0)";#P newex 641 567 363 196617 jcom.return cooked/rotation/z @range -1. 1. @type msg_float @clipmode none @description "Cooked Z rotation from the 3D Connexion Space Navigator";#P newex 598 522 328 196617 jcom.return raw/Rz @range -225 221 @type msg_int @clipmode none @description "Raw Z rotation from the 3D Connexion Space Navigator";#P newex 558 470 364 196617 jcom.return cooked/rotation/y @range -1. 1. @type msg_float @clipmode none @description "Cooked Y rotation from the 3D Connexion Space Navigator";#P newex 528 425 329 196617 jcom.return raw/Ry @range -294 175 @type msg_int @clipmode none @description "Raw Y rotation from the 3D Connexion Space Navigator";#P newex 468 373 364 196617 jcom.return cooked/rotation/x @range -1. 1. @type msg_float @clipmode none @description "Cooked X rotation from the 3D Connexion Space Navigator";#P newex 458 328 329 196617 jcom.return raw/Rx @range -207 208 @type msg_int @clipmode none @description "Raw X rotation from the 3D Connexion Space Navigator";#P newex 259 571 362 196617 jcom.return cooked/position/z @range -1. 1. @type msg_float @clipmode none @description "Cooked Z position from the 3D Connexion Space Navigator";#P newex 216 526 328 196617 jcom.return raw/Tz @range -243 232 @type msg_int @clipmode none @description "Raw Z position from the 3D Connexion Space Navigator";#P newex 176 474 363 196617 jcom.return cooked/position/y @range -1. 1. @type msg_float @clipmode none @description "Cooked Y position from the 3D Connexion Space Navigator";#P newex 146 429 329 196617 jcom.return raw/Ty @range -241 255 @type msg_int @clipmode none @description "Raw Y position from the 3D Connexion Space Navigator";#P newex 86 377 363 196617 jcom.return cooked/position/x @range -1. 1. @type msg_float @clipmode none @description "Cooked X position from the 3D Connexion Space Navigator";#P window linecount 1;#P newex 633 284 40 196617 / 255.;#P newex 564 284 40 196617 / 255.;#P newex 468 284 45 196617 / -255.;#P newex 259 284 40 196617 / 255.;#P newex 176 284 45 196617 / -255.;#P newex 85 284 40 196617 / 255.;#P comment 91 80 101 196617 Enable polling ...or...;#P newex 76 106 715 196617 aka.spacenavigator;#P toggle 76 79 15 0;#P outlet 17 51 15 0;#P window linecount 2;#P newex 76 332 329 196617 jcom.return raw/Tx @range -214 281 @type msg_int @clipmode none @description "Raw X position from the 3D Connexion Space Navigator";#P window linecount 1;#P newex 76 54 93 196617 jcom.oscroute /on;#P inlet 76 30 15 0;#P connect 0 0 1 0;#P connect 1 0 4 0;#P connect 4 0 5 0;#P connect 5 0 2 0;#P connect 5 0 7 0;#P connect 7 0 13 0;#P connect 5 1 14 0;#P fasten 5 1 8 0 181 203 181 203;#P connect 8 0 15 0;#P connect 5 2 16 0;#P connect 5 2 9 0;#P connect 9 0 17 0;#P connect 5 3 18 0;#P connect 5 3 10 0;#P connect 10 0 19 0;#P connect 5 4 20 0;#P connect 11 0 21 0;#P connect 5 4 11 0;#P connect 5 5 22 0;#P connect 5 5 12 0;#P connect 12 0 23 0;#P connect 5 6 24 0;#P connect 5 6 25 0;#P connect 5 7 26 0;#P connect 5 7 27 0;#P pop;