max v2;#N vpatcher 694 166 1027 417;#P origin -22 0;#P window setfont "Sans Serif" 9.;#P window linecount 1;#N vpatcher 52 59 506 348;#P window setfont "Sans Serif" 9.;#P window linecount 2;#P newex 55 195 365 196617 jcom.return cooked/motion/quantity @range 0. 1. @type msg_float @range/clipmode none @description "Quantity of motion from 3D Connexion Space Navigator";#P window linecount 1;#P newex 116 142 40 196617 / 360.;#P newex 50 113 76 196617 unpack 0. 0. 0.;#P newex 50 64 61 196617 pak 0. 0. 0.;#P newex 50 89 73 196617 jcom.xyz2aed;#P inlet 100 30 15 0;#P inlet 75 30 15 0;#P inlet 50 30 15 0;#P connect 0 0 4 0;#P connect 4 0 3 0;#P connect 3 0 5 0;#P connect 6 0 7 0;#P connect 1 0 4 1;#P connect 2 0 4 2;#P connect 5 2 6 0;#P pop;#P newobj 21 167 48 196617 p motion;#N vpatcher 52 59 850 261;#P window setfont "Sans Serif" 9.;#P newex 417 103 333 196617 jcom.return cooked/button/right @range 0 1 @type msg_int @range/clipmode both @description "Cooked right button activity on-off (1-0)";#P newex 395 60 321 196617 jcom.return raw/right_button @range 0 1 @type msg_int @range/clipmode both @description "Raw right button activity on-off (1-0)";#P newex 67 103 327 196617 jcom.return cooked/button/left @range 0 1 @type msg_int @range/clipmode both @description "Cooked left button activity on-off (1-0)";#P newex 50 60 315 196617 jcom.return raw/left_button @range 0 1 @type msg_int @range/clipmode both @description "Raw left button activity on-off (1-0)";#P inlet 395 30 15 0;#P inlet 50 30 15 0;#P connect 0 0 2 0;#P connect 0 0 3 0;#P connect 1 0 4 0;#P connect 1 0 5 0;#P pop;#P newobj 231 167 51 196617 p buttons;#N vpatcher 52 59 693 488;#P window setfont "Sans Serif" 9.;#P window linecount 2;#P newex 239 333 363 196617 jcom.return cooked/rotation/z @range -1. 1. @type msg_float @range/clipmode none @description "Cooked Z rotation from the 3D Connexion Space Navigator";#P newex 226 288 328 196617 jcom.return raw/Rz @range -225 221 @type msg_int @range/clipmode none @description "Raw Z rotation from the 3D Connexion Space Navigator";#P newex 156 236 364 196617 jcom.return cooked/rotation/y @range -1. 1. @type msg_float @range/clipmode none @description "Cooked Y rotation from the 3D Connexion Space Navigator";#P newex 133 191 329 196617 jcom.return raw/Ry @range -294 175 @type msg_int @range/clipmode none @description "Raw Y rotation from the 3D Connexion Space Navigator";#P newex 60 139 364 196617 jcom.return cooked/rotation/x @range -1. 1. @type msg_float @range/clipmode none @description "Cooked X rotation from the 3D Connexion Space Navigator";#P newex 50 94 329 196617 jcom.return raw/Rx @range -207 208 @type msg_int @range/clipmode none @description "Raw X rotation from the 3D Connexion Space Navigator";#P window linecount 1;#P newex 239 61 40 196617 / 255.;#P newex 156 61 40 196617 / 255.;#P newex 60 61 45 196617 / -255.;#P inlet 225 28 15 0;#P inlet 133 28 15 0;#P inlet 50 28 15 0;#P connect 0 0 6 0;#P connect 0 0 3 0;#P connect 3 0 7 0;#P connect 1 0 8 0;#P connect 1 0 4 0;#P connect 4 0 9 0;#P connect 2 0 10 0;#P connect 2 0 5 0;#P connect 5 0 11 0;#P pop;#P newobj 160 167 54 196617 p rotation;#N vpatcher 367 276 1052 711;#P window setfont "Sans Serif" 9.;#P window linecount 2;#P newex 233 337 362 196617 jcom.return cooked/position/z @range -1. 1. @type msg_float @range/clipmode none @description "Cooked Z position from the 3D Connexion Space Navigator";#P newex 212 292 328 196617 jcom.return raw/Tz @range -243 232 @type msg_int @range/clipmode none @description "Raw Z position from the 3D Connexion Space Navigator";#P newex 150 240 363 196617 jcom.return cooked/position/y @range -1. 1. @type msg_float @range/clipmode none @description "Cooked Y position from the 3D Connexion Space Navigator";#P newex 120 195 329 196617 jcom.return raw/Ty @range -241 255 @type msg_int @range/clipmode none @description "Raw Y position from the 3D Connexion Space Navigator";#P newex 60 143 363 196617 jcom.return cooked/position/x @range -1. 1. @type msg_float @range/clipmode none @description "Cooked X position from the 3D Connexion Space Navigator";#P window linecount 1;#P newex 233 65 40 196617 / 255.;#P newex 150 65 45 196617 / -255.;#P newex 59 65 40 196617 / 255.;#P window linecount 2;#P newex 50 98 329 196617 jcom.return raw/Tx @range -214 281 @type msg_int @range/clipmode none @description "Raw X position from the 3D Connexion Space Navigator";#P inlet 212 28 15 0;#P inlet 120 28 15 0;#P inlet 50 28 15 0;#P connect 0 0 3 0;#P connect 0 0 4 0;#P connect 4 0 7 0;#P connect 1 0 8 0;#P connect 1 0 5 0;#P connect 5 0 9 0;#P connect 2 0 10 0;#P connect 2 0 6 0;#P connect 6 0 11 0;#P pop;#P newobj 76 167 67 196617 p orientation;#P comment 91 80 101 196617 Enable polling ...or...;#P newex 76 106 209 196617 aka.spacenavigator;#P toggle 76 79 15 0;#P outlet 17 51 15 0;#P newex 76 54 93 196617 jcom.oscroute /on;#P inlet 76 30 15 0;#P connect 4 0 9 0;#P connect 4 1 9 1;#P connect 4 2 9 2;#P connect 0 0 1 0;#P connect 1 0 3 0;#P connect 3 0 4 0;#P connect 4 0 6 0;#P connect 4 1 6 1;#P connect 4 2 6 2;#P connect 4 3 7 0;#P connect 4 4 7 1;#P connect 4 5 7 2;#P connect 4 6 8 0;#P connect 4 7 8 1;#P pop;