max v2;
#N vpatcher 141 135 736 504;
#P window setfont Verdana 9.;
#N standalone;
#S creator Ztap;
#S statusvisible 1;
#S noloadbangdefeating 0;
#S useownplist 0;
#S preffilename "Jamoma Wizard Preferences";
#S overdrive 0;
#S allwindowsactive 0;
#S searchformissingfiles 1;
#S usesearchpath 0;
#S cantclosetoplevelpatchers 1;
#S audiosupport 0;
#S midisupport 0;
#P newobj 268 79 64 472055817 standalone;
#P window setfont "Sans Serif" 9.;
#P hidden newex 136 194 59 196617 jmod.usurp;
#P hidden newex 136 154 63 196617 route toggle;
#P hidden newex 136 214 63 196617 b 2;
#P user ubumenu 46 120 100 196617 1 0 0 1;
#X add Build Template;
#X prefix_set 0 0  0;
#P window setfont "Sans Serif" 12.;
#P comment 0 -1 178 196620 Jade: Module Building Wizard;
#P user ubumenu 47 78 98 196620 0 1 1 0;
#X add 1U;
#X add 1U (half width);
#X add 2U;
#X add 2U (half width);
#X prefix_set 0 0  0;
#P window setfont "Sans Serif" 9.;
#P comment 22 66 100 196617 Module Size:;
#P user ubumenu 28 41 134 196617 0 1 1 0;
#X add Audio (stereo in / out);
#X add Audio (mono in / out);
#X add Control;
#X add Video (1 in / 1 out);
#X add Video (2 in / 1 out);
#X prefix_set 0 0  0;
#P hidden newex 136 260 83 196617 savedialog maxb;
#P hidden newex 136 174 31 196617 sel 1;
#P comment 22 29 100 196617 Module Type:;
#P user fpic -1 -3 200 156 jmod.bg.temp.half.v.pct 0 -50 0 0. 0 0 0;
#P background;
#P hidden message 189 236 45 196617 toggle 0;
#P hidden fasten 0 0 9 0 194 255 240 255 240 115 51 115;
#P hidden connect 9 2 11 0;
#P hidden connect 11 0 3 0;
#P hidden connect 3 0 12 0;
#P hidden connect 12 0 10 0;
#P hidden connect 10 0 4 0;
#P hidden connect 10 1 0 0;
#P pop;
