max v2;#N vpatcher 86 57 1081 764;#P window setfont "Sans Serif" 9.;#P window linecount 2;#P hidden newex 563 164 350 196617 jcom.message matrix/dump @type msg_none @description "Post current matrix settings to the Max window .";#P hidden newex 563 125 349 196617 jcom.message aed @type msg_list @description "List describing index (counting from 1)\\\, azimuth\\\, elevation\\\, distance for one speaker.";#P window linecount 3;#P hidden newex 563 78 348 196617 jcom.message voices @type msg_int  @repetitions 0 @range 1 16 @range/clipmode both @description "The number of audio channels that the ambisonic signal is diffused to. Changes only take effect when audio is off.";#P objectname voices;#P user multiSlider 2 25 250 31 0. 1. 1 2681 15 0 3 2 0 50 0;#M frgb 107 107 107;#M brgb 24 24 24;#M rgb2 127 127 127;#M rgb3 24 24 24;#M rgb4 37 52 91;#M rgb5 74 105 182;#M rgb6 112 158 18;#M rgb7 149 211 110;#M rgb8 187 9 201;#M rgb9 224 62 37;#M rgb10 7 114 128;#P objectname MULTISLIDER;#P window linecount 1;#P hidden newex 15 253 43 196617 jcom.in;#P hidden comment 216 486 158 196617 ----multicable signal output----;#P hidden newex 15 277 84 196617 jcom.pass open;#P hidden newex 15 302 47 196617 pcontrol;#N comlet Channel 1;#P hidden outlet 201 486 13 0;#N comlet W - omni;#P hidden inlet 345 273 13 0;#P hidden comment 171 274 158 196617 ----multicable signal input----;#P hidden message 89 362 20 196617 \$2;#P hidden newex 89 339 72 196617 route mute;#P hidden newex 89 386 38 196617 mute~;#P hidden newex 201 446 154 196617 jalg.sur.speaker.distamp~;#P hidden message 105 78 191 196617 /preset/store 1 default \, /preset/write;#B color 3;#P hidden message 113 100 125 196617 /documentation/generate;#B color 3;#P window linecount 2;#P hidden message 15 197 65 196617 \; max refresh;#P hidden newex 15 134 400 196617 jcom.hub jmod.sur.distamp~ @size 1U-half @module_type audio.no_panel @description "Amplitude of speakers adjusted in proportion to distance from sweet spot";#P objectname jcom.hub;#P window linecount 1;#P hidden comment 29 101 79 196617 command input;#P hidden inlet 15 101 13 0;#P hidden message 244 100 31 196617 /init;#P hidden outlet 15 177 13 0;#P user hint 0 28 253 58 "For display purpose only" 1000 100 0 65535 65535 52428 9 3 0 1 0 0 0;#P window linecount 2;#P hidden comment 15 522 358 196617 This module adjust amplitude of speakers according to distance from sweet spot \, so that normalized amplitude correction is proportional to distance.;#P window linecount 3;#P hidden comment 15 553 358 196617 Such amplitude correction is performed in the ambipan~ Max external for ambisonic panning made by A.Sedes \, B.Courribet and J.B.Thiebaut at CICM Université Paris8 \, Maison des Sciences de l'Homme Paris Nord.;#P window linecount 1;#P hidden comment 16 600 357 196617 MOTE: FTM is required in this module!;#P bpatcher 0 0 256 60 0 0 jcom.gui 0 $0_;#P objectname jmod.gui.1Uh.a.stereo;#P hidden fasten 12 0 9 0 110 121 20 121;#P hidden connect 7 0 9 0;#P hidden fasten 11 0 9 0 118 121 20 121;#P hidden fasten 6 0 9 0 249 122 20 122;#P hidden connect 9 0 5 0;#P hidden connect 23 0 21 0;#P hidden connect 21 0 20 0;#P hidden connect 21 1 15 0;#P hidden connect 15 0 16 0;#P hidden connect 16 0 14 0;#P hidden fasten 20 0 13 0 20 326 206 326;#P hidden connect 14 0 13 0;#P hidden connect 15 1 13 0;#P hidden connect 13 0 19 0;#P hidden connect 18 0 13 1;#P pop;