max v2;#N vpatcher 3 47 1271 786;#P origin -73 -693;#P window setfont "Sans Serif" 9.;#P window linecount 2;#P hidden message 808 834 285 196617 script connect pvar_switch 0 active 0 \, script connect active 0 pvar_switch 0 \, script connect active 1 sel_switch 0;#P window linecount 3;#P hidden newex 825 790 280 196617 sprintf script new active newex 750 20 270 196617 jcom.parameter active/%ld @type msg_int @repetitions 0 @description "change active status of the %ldth voice";#P window linecount 1;#P hidden newex 808 764 27 196617 t b i;#P window linecount 2;#P hidden message 24 907 407 196617 script connect pvar_Z 0 parameter_Z 0 \, script connect parameter_Z 0 pvar_Z 0 \, script connect parameter_Z 1 list2parameter 2 \, script connect route_Z 0 parameter_Z 0;#P window linecount 1;#P newex 252 143 51 196617 route set;#P objectname route_Z;#P newex 251 123 51 196617 route set;#P objectname route_Y;#P newex 250 103 51 196617 route set;#P objectname route_X;#P hidden newex 222 841 27 196617 * 3;#P hidden newex 24 818 31 196617 t b i;#P window linecount 3;#P hidden newex 45 861 370 196617 sprintf script new parameter_Z newex 393 50 270 196617 jcom.parameter z/%ld @type msg_float @priority %ld @repetitions 0 @ramp linear @description "Z-component of the position of the %ldth voice in cartesian coodinates.";#P window linecount 1;#P hidden newex 239 708 27 196617 * 3;#P hidden newex 41 685 31 196617 t b i;#P window linecount 3;#P hidden newex 62 728 363 196617 sprintf script new parameter_Y newex 393 100 270 196617 jcom.parameter y/%ld @type msg_float @priority %ld @repetitions 0 @description "Y-component of the position of the %ldth voice in cartesian coodinates.";#P hidden message 41 774 277 196617 script connect pvar_Y 0 parameter_Y 0 \, script connect parameter_Y 0 pvar_Y 0 \, script connect parameter_Y 1 list2parameter 1 \, script connect route_Y 0 parameter_Y 0;#P window linecount 1;#P hidden newex 255 556 27 196617 * 3;#P hidden newex 50 524 27 196617 t b i;#P window linecount 3;#P hidden newex 78 576 363 196617 sprintf script new parameter_X newex 391 145 270 196617 jcom.parameter x/%ld @type msg_float @priority %ld @repetitions 0 @description "X-component of the position of the %ldth voice in cartesian coodinates.";#P hidden message 62 637 277 196617 script connect pvar_X 0 parameter_X 0 \, script connect parameter_X 0 pvar_X 0 \, script connect parameter_X 1 list2parameter 0 \, script connect route_X 0 parameter_X 0;#P window linecount 1;#P newex 747 116 51 196617 route set;#P objectname route_D;#P newex 751 69 51 196617 route set;#P objectname route_E;#P newex 749 92 51 196617 route set;#P objectname route_A;#P hidden newex 995 660 27 196617 * 3;#P hidden newex 797 637 31 196617 t b i;#P window linecount 3;#P hidden newex 818 680 363 196617 sprintf script new parameter_E newex 830 50 270 196617 jcom.parameter e/%ld @type msg_float @priority %ld @repetitions 0 @description "elevation component of the position of the %ldth voice in spherical coodinates.";#P window linecount 2;#P hidden message 797 726 407 196617 script connect pvar_E 0 parameter_E 0 \, script connect parameter_E 0 pvar_E 0 \, script connect parameter_E 1 list2parameter2 1 \, script connect route_E 0 parameter_E 0;#P button 670 297 15 0;#P window linecount 1;#P message 532 25 33 196617 set 1;#P message 668 315 14 196617 1;#P newex 532 2 65 196617 jcom.change;#P hidden newex 1008 535 27 196617 * 3;#P hidden newex 810 512 31 196617 t b i;#P window linecount 3;#P hidden newex 831 555 364 196617 sprintf script new parameter_A newex 830 100 270 196617 jcom.parameter a/%ld @type msg_float @priority %ld @repetitions 0 @description "azimuth component of the position of the %ldth voice in spherical coodinates.";#P hidden message 810 601 285 196617 script connect pvar_A 0 parameter_A 0 \, script connect parameter_A 0 pvar_A 0 \, script connect parameter_A 1 list2parameter2 0 \, script connect route_A 0 parameter_A 0;#P button 620 93 15 0;#P window linecount 1;#P message 557 86 53 196617 delete $1;#P outlet 557 104 15 0;#P hidden newex 988 397 27 196617 * 3;#P hidden newex 817 370 27 196617 t b i;#P window linecount 4;#P hidden newex 834 414 319 196617 sprintf script new parameter_d newex 750 20 270 196617 jcom.parameter d/%ld @type msg_float @range 0. 20. @clipmode low @priority %ld @repetitions 0 @description "Distance component of the position of the %ldth voice in spherical coodinates.";#P window linecount 3;#P hidden message 843 469 282 196617 script connect pvar_D 0 parameter_d 0 \, script connect parameter_d 0 pvar_D 0 \, script connect parameter_d 1 list2parameter2 2 \, script connect route_D 0 parameter_d 0;#P window linecount 1;#P message 132 322 14 196617 1;#P hidden newex 613 405 27 196617 * 3;#P hidden newex 440 386 27 196617 t b i;#P window linecount 3;#P hidden newex 457 424 323 196617 sprintf script new parameter2 newex 830 245 270 196617 jcom.parameter aed/%ld @type msg_list @priority %ld @repetitions 0 @description "Position of %ldth voice as aed coodinate.";#P hidden message 440 471 302 196617 script connect list2parameter2 10 parameter2 0 \, script connect parameter2 0 list2parameter2 10 \, script connect xyz2aed 3 parameter2 0 \, script connect parameter2 1 aed2xyz 0;#P window linecount 1;#P newex 684 227 163 196617 jcom.list2parameter 3;#P objectname list2parameter2;#N vpatcher 402 342 1002 742;#P origin 0 -29;#P outlet 274 365 15 0;#P window setfont "Sans Serif" 9.;#P window linecount 0;#P newex 272 339 51 196617 pack f f f;#P newex 56 239 43 196617 % 360.;#P newex 56 216 106 196617 expr (-1.0*$f1)+90.;#P window linecount 1;#P newex 56 336 62 196617 prepend set;#P newex 90 291 62 196617 prepend set;#P newex 165 314 62 196617 prepend set;#P newex 101 74 29 196617 t b f;#P newex 101 -14 84 196617 unpack 0. 0. 0.;#P newex 211 113 47 196617 cartopol;#P newex 248 170 92 196617 jcom.rad2deg.mxt;#P newex 138 143 92 196617 jcom.rad2deg.mxt;#P newex 101 51 47 196617 cartopol;#P inlet 101 -51 15 0;#P outlet 165 370 15 0;#P outlet 89 315 15 0;#P outlet 56 358 15 0;#P connect 5 0 13 0;#P connect 13 0 14 0;#P connect 14 0 12 0;#P connect 12 0 0 0;#P connect 11 0 1 0;#P connect 6 0 11 0;#P connect 3 0 8 0;#P connect 8 0 4 0;#P connect 4 0 9 0;#P connect 8 1 4 1;#P connect 4 1 5 0;#P connect 7 0 10 0;#P connect 10 0 2 0;#P connect 9 1 7 0;#P connect 8 2 7 1;#P connect 7 1 6 0;#P connect 9 0 15 0;#P connect 12 0 15 0;#P connect 15 0 16 0;#P connect 6 0 15 1;#P connect 7 0 15 2;#P pop;#P newobj 661 148 91 196617 p xyz2aed;#P objectname xyz2aed;#P hidden newex 719 200 39 196617 pvar E;#P objectname pvar_E;#P hidden newex 675 199 41 196617 pvar A;#P objectname pvar_A;#P hidden newex 759 200 40 196617 pvar D;#P objectname pvar_D;#P flonum 359 2 53 9 0. 0 8225 3 198 198 198 221 221 221 222 222 222 0 0 0;#P objectname D;#P flonum 304 2 53 9 0 0 8224 3 198 198 198 221 221 221 222 222 222 0 0 0;#P objectname E;#P flonum 249 2 53 9 0 0 8224 3 198 198 198 221 221 221 222 222 222 0 0 0;#P objectname A;#P window setfont "Sans Serif" 12.;#P comment 236 1 13 196620 ||;#B frgb 198 0 65;#P window setfont "Sans Serif" 9.;#P hidden newex 532 122 165 196617 jcom.return delete @type msg_int;#P newex 532 43 64 196617 pvar switch;#P objectname pvar_switch;#P user radiogroup 1 1 34 16;#X size 1;#X offset 29;#X inactive 0;#X itemtype 1;#X flagmode 0;#X set 0;#X done;#P objectname switch;#P message 532 102 21 196617 $1;#P newex 612 62 41 196617 sel 0 1;#P objectname sel_switch;#N vpatcher 233 223 833 623;#P origin 0 -15;#P outlet 368 369 15 0;#P window setfont "Sans Serif" 9.;#P newex 367 275 29 196617 t b f;#P newex 367 347 51 196617 pack f f f;#P window linecount 1;#P newex 182 312 62 196617 prepend set;#P newex 51 236 62 196617 prepend set;#P window linecount 0;#P newex 116 236 62 196617 prepend set;#P window linecount 1;#P comment 181 356 100 196617 z;#P comment 117 355 100 196617 y;#P outlet 182 340 15 0;#P outlet 116 338 15 0;#P newex 51 203 75 196617 poltocar;#P newex 51 175 141 196617 poltocar;#P newex 51 105 84 196617 unpack 0. 0. 0.;#P newex 88 135 92 196617 jcom.deg2rad.mxt;#P newex 182 135 92 196617 jcom.deg2rad.mxt;#P message 51 82 52 196617 \$3 \$1 \$2;#P inlet 51 17 15 0;#P outlet 51 337 15 0;#P window linecount 0;#P comment 51 356 100 196617 x;#P comment 70 19 100 196617 (list) aed;#P connect 3 0 4 0;#P connect 4 0 7 0;#P connect 7 0 8 0;#P connect 8 0 9 0;#P connect 9 0 15 0;#P connect 14 0 2 0;#P connect 7 1 6 0;#P connect 6 0 9 1;#P connect 9 1 14 0;#P connect 15 0 10 0;#P fasten 7 2 5 0 130 128 187 128;#P connect 5 0 8 1;#P connect 8 1 16 0;#P connect 16 0 11 0;#P connect 9 0 18 0;#P connect 14 0 17 0;#P connect 18 0 17 0;#P connect 17 0 19 0;#P connect 18 1 17 1;#P connect 8 1 17 2;#P pop;#P newobj 191 168 92 196617 p aed2xyz;#P objectname aed2xyz;#P hidden newex 236 398 83 196617 expr ($f1*2)+1;#P newex 194 242 166 196617 jcom.list2parameter.mxt 3;#P objectname list2parameter;#P hidden newex 59 377 31 196617 t b i;#P hidden newex 59 320 67 196617 loadmess $1;#P hidden newex 59 342 96 196617 if $i1 != 0 then $i1;#P window linecount 3;#P hidden newex 80 419 325 196617 sprintf script new parameter newex 391 200 270 196617 jcom.parameter xyz/%ld @type msg_list @priority %ld @repetitions 0 @description "Position of %ldth voice as xyz coodinate.";#P window linecount 2;#P hidden message 59 475 332 196617 script connect list2parameter 10 parameter 0 \, script connect parameter 0 list2parameter 10 \, script connect aed2xyz 3 parameter 0;#P window linecount 1;#N thispatcher;#Q end;#P hidden newobj 702 770 61 196617 thispatcher;#P newex 283 212 39 196617 pvar Z;#P objectname pvar_Z;#P newex 237 211 40 196617 pvar Y;#P objectname pvar_Y;#P newex 195 211 40 196617 pvar X;#P objectname pvar_X;#P flonum 182 2 53 9 0 0 8224 3 198 198 198 221 221 221 222 222 222 0 0 0;#P objectname Z;#P flonum 127 2 53 9 0 0 8224 3 198 198 198 221 221 221 222 222 222 0 0 0;#P objectname Y;#P flonum 72 2 53 9 0 0 8224 3 198 198 198 221 221 221 222 222 222 0 0 0;#P objectname X;#P comment 17 3 51 196617 voice $1:;#B frgb 172 172 172;#P user panel 0 1 416 17;#X brgb 80 80 80;#X frgb 255 255 255;#X border 1;#X rounded 0;#X shadow 0;#X done;#P connect 67 0 72 0;#P connect 64 0 62 0;#P fasten 67 1 66 0 50 849 50 849;#P fasten 35 0 11 0 137 339 64 339;#P hidden connect 12 0 11 0;#P hidden connect 11 0 13 0;#P connect 13 0 9 0;#P fasten 60 0 58 0 55 581 67 581;#P fasten 64 1 63 0 67 716 67 716;#P fasten 60 1 59 0 72 558 83 558;#P fasten 13 1 10 0 85 406 85 406;#P connect 30 10 16 0;#P connect 16 0 14 0;#P connect 5 0 14 0;#P connect 42 0 14 0;#P connect 16 0 5 0;#P fasten 14 0 5 0 199 266 185 266 185 210 200 210;#P connect 16 1 14 1;#P connect 6 0 14 1;#P fasten 67 1 68 0 50 839 227 839;#P connect 16 2 14 2;#P connect 7 0 14 2;#P hidden connect 68 0 66 1;#P fasten 13 1 15 0 85 395 241 395;#P connect 16 1 6 0;#P fasten 14 1 6 0 214 270 180 270 180 204 242 204;#P hidden connect 15 0 10 1;#P hidden connect 65 0 63 1;#P fasten 64 1 65 0 67 706 244 706;#P connect 16 0 69 0;#P connect 16 1 70 0;#P connect 16 2 71 0;#P hidden connect 61 0 59 1;#P fasten 60 1 61 0 72 548 260 548;#P connect 16 2 7 0;#P fasten 14 2 7 0 229 274 175 274 175 199 288 199;#P fasten 13 1 10 2 85 394 399 394;#P fasten 67 1 66 2 50 838 410 838;#P fasten 64 1 63 2 67 705 419 705;#P fasten 60 1 59 2 72 548 435 548;#P fasten 11 0 33 0 64 364 445 364;#P fasten 33 0 31 0 445 471 445 471;#P connect 33 1 32 0;#P connect 48 0 47 0;#P connect 47 0 49 0;#P connect 49 0 20 0;#P connect 17 0 18 0;#P connect 18 0 21 0;#P connect 17 0 41 0;#P connect 41 0 40 0;#P connect 20 0 47 1;#P fasten 33 1 34 0 462 401 618 401;#P hidden connect 34 0 32 1;#P connect 14 10 29 0;#P connect 50 0 48 0;#P connect 30 10 50 0;#P connect 14 10 50 0;#P connect 29 0 27 0;#P fasten 30 0 27 0 689 252 671 252 671 195 680 195;#P connect 29 0 30 0;#P fasten 27 0 30 0 680 224 689 224;#P connect 29 1 30 1;#P fasten 28 0 30 1 724 220 704 220;#P connect 63 0 8 0;#P connect 59 0 8 0;#P connect 52 0 8 0;#P connect 44 0 8 0;#P connect 37 0 8 0;#P connect 74 0 8 0;#P connect 72 0 8 0;#P connect 66 0 8 0;#P connect 62 0 8 0;#P connect 58 0 8 0;#P connect 51 0 8 0;#P fasten 32 0 8 0 462 468 707 468;#P fasten 31 0 8 0 445 523 707 523;#P hidden fasten 9 0 8 0 64 518 707 518;#P connect 36 0 8 0;#P hidden fasten 10 0 8 0 85 464 707 464;#P connect 43 0 8 0;#P connect 75 0 8 0;#P connect 29 2 30 2;#P connect 26 0 30 2;#P connect 29 1 28 0;#P fasten 30 1 28 0 704 259 668 259 668 188 724 188;#P connect 29 2 57 0;#P connect 29 0 55 0;#P connect 29 1 56 0;#P connect 29 2 26 0;#P fasten 30 2 26 0 719 264 663 264 663 182 764 182;#P fasten 33 1 32 2 462 401 774 401;#P fasten 11 0 53 0 64 364 802 364;#P connect 53 0 51 0;#P connect 11 0 73 0;#P connect 73 0 75 0;#P fasten 11 0 45 0 64 365 815 365;#P connect 45 0 43 0;#P fasten 11 0 38 0 64 364 822 364;#P fasten 53 1 52 0 823 668 823 668;#P connect 73 1 74 0;#P fasten 45 1 44 0 836 543 836 543;#P fasten 38 1 37 0 839 404 839 404;#P fasten 38 0 36 0 822 427 848 427;#P fasten 38 1 39 0 839 394 993 394;#P hidden connect 39 0 37 1;#P hidden connect 54 0 52 1;#P fasten 53 1 54 0 823 658 1000 658;#P fasten 45 1 46 0 836 533 1013 533;#P hidden connect 46 0 44 1;#P connect 73 1 74 1;#P fasten 38 1 37 2 839 394 1147 394;#P fasten 53 1 52 2 823 657 1175 657;#P fasten 45 1 44 2 836 532 1190 532;#P pop;