max v2;#N vpatcher 50 47 1318 786;#P origin -58 -743;#P window setfont "Sans Serif" 9.;#P newex 292 400 43 196617 delay 5;#P message 368 375 14 196617 1;#N vpatcher 108 133 1368 811;#P origin 9 256;#P window setfont "Sans Serif" 9.;#P window linecount 1;#P message 538 492 54 196617 separator;#P newex 753 510 62 196617 prepend set;#P newex 419 581 40 196617 append;#P newex 419 558 406 196617 append @type msg_int @repetitions 0 @description "changes_active_status." @priority;#P newex 419 536 330 196617 prepend script new active newex 700 80 290 196617 jcom.parameter;#P newex 419 517 51 196617 tosymbol;#P newex 419 493 82 196617 prepend active/;#P message 542 357 54 196617 separator;#P newex 755 375 62 196617 prepend set;#P newex 422 446 40 196617 append;#P newex 422 423 614 196617 append @type msg_float @repetitions 0 @description "elevation_component of the position_in_spherical_coordinates." @priority;#P newex 422 401 360 196617 prepend script new parameter_E newex 830 50 270 196617 jcom.parameter;#P newex 422 382 51 196617 tosymbol;#P newex 422 358 59 196617 prepend e/;#P message 548 214 54 196617 separator;#P newex 761 232 62 196617 prepend set;#P newex 430 303 40 196617 append;#P newex 430 280 592 196617 append @type msg_float @repetitions 0 @description "azimuth_component of the position_in_spherical_coordinates." @priority;#P newex 430 258 368 196617 prepend script new parameter_A newex 830 100 270 196617 jcom.parameter;#P newex 430 239 51 196617 tosymbol;#P newex 430 215 59 196617 prepend a/;#P message 550 77 54 196617 separator;#P newex 763 95 62 196617 prepend set;#P newex 431 166 40 196617 append;#P newex 431 143 731 196617 append @type msg_float @range 0. 20. @clipmode low @repetitions 0 @description "Distance_component_of the position_in_spherical_coordinates." @priority;#P newex 431 121 360 196617 prepend script new parameter_d newex 750 20 270 196617 jcom.parameter;#P newex 431 102 51 196617 tosymbol;#P newex 431 78 59 196617 prepend d/;#P message 602 -52 54 196617 separator;#P newex 836 -39 62 196617 prepend set;#P newex 432 32 40 196617 append;#P newex 432 9 433 196617 append @type msg_list @repetitions 0 @description "Position_in_aed_coordinate." @priority;#P newex 432 -13 361 196617 prepend script new parameter2 newex 830 245 270 196617 jcom.parameter;#P newex 432 -32 51 196617 tosymbol;#P newex 432 -56 69 196617 prepend aed/;#P message 592 -194 54 196617 separator;#P newex 826 -181 62 196617 prepend set;#P newex 431 -111 40 196617 append;#P newex 431 -134 443 196617 append @type msg_list @repetitions 0 @description "Position_in_xyz_coordinates." @priority;#P newex 431 -156 355 196617 prepend script new parameter newex 391 200 270 196617 jcom.parameter;#P newex 431 -175 51 196617 tosymbol;#P newex 431 -199 74 196617 prepend xyz/;#P outlet 337 648 15 0;#P newex 337 620 40 196617 t b l;#P message 198 -271 14 196617 1;#P newex 332 -258 79 196617 t i i i i i i;#P hidden newex 753 489 111 196617 expr ($i1*10)+6 - 10;#P window linecount 2;#P hidden newex 882 517 393 196617 sprintf script new active newex 700 80 290 196617 jcom.parameter active/%ld @type msg_int @priority %ld @repetitions 0 @description "changes_active_status.";#P window linecount 1;#P hidden newex 419 471 54 196617 jcom.thru;#P hidden newex 754 353 111 196617 expr ($i1*10)+5 - 10;#P hidden newex 422 331 54 196617 jcom.thru;#P window linecount 2;#P hidden newex 908 361 653 196617 sprintf script new parameter_E newex 830 50 270 196617 jcom.parameter e/%ld @type msg_float @priority %ld @repetitions 0 @description "elevation_component of the position_in_spherical_coordinates.";#P window linecount 1;#P hidden newex 761 210 111 196617 expr ($i1*10)+4 - 10;#P hidden newex 430 190 54 196617 jcom.thru;#P window linecount 2;#P hidden newex 908 228 580 196617 sprintf script new parameter_A newex 830 100 270 196617 jcom.parameter a/%ld @type msg_float @priority %ld @repetitions 0 @description "azimuth_component of the position_in_spherical_coordinates.";#P window linecount 1;#P hidden newex 763 74 111 196617 expr ($i1*10)+3 - 10;#P hidden newex 431 56 54 196617 jcom.thru;#P window linecount 2;#P hidden newex 892 103 638 196617 sprintf script new parameter_d newex 750 20 270 196617 jcom.parameter d/%ld @type msg_float @range 0. 20. @clipmode low @priority %ld @repetitions 0 @description "Distance_component_of the position_in_spherical_coordinates.";#P window linecount 1;#P hidden newex 836 -61 108 196617 expr ($i1*10)+2 -10;#P hidden newex 432 -83 54 196617 jcom.thru;#P window linecount 2;#P hidden newex 960 -38 465 196617 sprintf script new parameter2 newex 830 245 270 196617 jcom.parameter aed/%ld @type msg_list @priority %ld @repetitions 0 @description "Position_in_aed_coordinate.";#P window linecount 1;#P hidden newex 826 -206 111 196617 expr ($i1*10)+1 - 10;#P hidden newex 431 -233 54 196617 jcom.thru;#P window linecount 2;#P hidden newex 930 -183 442 196617 sprintf script new parameter newex 391 200 270 196617 jcom.parameter xyz/%ld @type msg_list @priority %ld @repetitions 0 @description "Position_in_xyz_coordinates.";#P outlet 69 439 15 0;#P inlet 330 -311 15 0;#P connect 22 1 1 0;#P connect 28 0 1 0;#P connect 35 0 1 0;#P connect 42 0 1 0;#P connect 49 0 1 0;#P connect 56 0 1 0;#P connect 0 0 20 0;#P connect 21 0 20 0;#P connect 63 0 22 0;#P connect 22 0 23 0;#P connect 20 0 17 0;#P connect 17 0 59 0;#P fasten 65 0 60 0 543 512 424 512;#P connect 59 0 60 0;#P connect 60 0 61 0;#P connect 61 0 62 0;#P fasten 64 0 63 0 758 578 424 578;#P connect 62 0 63 0;#P connect 20 1 15 0;#P fasten 15 0 52 0 427 353 427 353;#P fasten 58 0 53 0 547 386 427 386;#P connect 52 0 53 0;#P connect 53 0 54 0;#P connect 54 0 55 0;#P fasten 57 0 56 0 760 443 427 443;#P connect 55 0 56 0;#P connect 20 2 12 0;#P connect 12 0 45 0;#P fasten 51 0 46 0 553 243 435 243;#P connect 45 0 46 0;#P connect 46 0 47 0;#P connect 47 0 48 0;#P fasten 50 0 49 0 766 300 435 300;#P connect 48 0 49 0;#P connect 20 5 3 0;#P connect 3 0 24 0;#P fasten 30 0 25 0 597 -178 436 -178;#P connect 24 0 25 0;#P connect 25 0 26 0;#P connect 26 0 27 0;#P fasten 29 0 28 0 831 -115 436 -115;#P connect 27 0 28 0;#P connect 20 3 9 0;#P connect 9 0 38 0;#P fasten 44 0 39 0 555 106 436 106;#P connect 38 0 39 0;#P connect 39 0 40 0;#P connect 40 0 41 0;#P fasten 43 0 42 0 768 163 436 163;#P connect 41 0 42 0;#P connect 20 4 6 0;#P connect 6 0 31 0;#P fasten 37 0 32 0 607 -36 437 -36;#P connect 31 0 32 0;#P connect 32 0 33 0;#P connect 33 0 34 0;#P fasten 36 0 35 0 841 27 437 27;#P connect 34 0 35 0;#P connect 17 0 65 0;#P fasten 15 0 58 0 427 352 547 352;#P fasten 12 0 51 0 435 210 553 210;#P fasten 9 0 44 0 436 73 555 73;#P fasten 3 0 30 0 436 -214 597 -214;#P fasten 6 0 37 0 437 -65 607 -65;#P connect 17 0 19 0;#P connect 19 0 64 0;#P fasten 15 0 16 0 427 351 759 351;#P connect 16 0 57 0;#P fasten 12 0 13 0 435 208 766 208;#P connect 13 0 50 0;#P connect 9 0 10 0;#P connect 10 0 43 0;#P fasten 3 0 4 0 436 -214 831 -214;#P connect 4 0 29 0;#P fasten 6 0 7 0 437 -66 841 -66;#P connect 7 0 36 0;#P pop;#P newobj 255 380 47 196617 p create;#N vpatcher 361 150 961 550;#P window setfont "Sans Serif" 9.;#P message 144 115 388 196617 script connect list2parameter 10 parameter 0 \, script connect parameter 0 list2parameter 10 \, script connect aed2xyz 3 parameter 0 \, script connect list2parameter2 10 parameter2 0 \, script connect parameter2 0 list2parameter2 10 \, script connect xyz2aed 3 parameter2 0 \, script connect parameter2 1 aed2xyz 0 \, script connect pvar_D 0 parameter_d 0 \, script connect parameter_d 0 pvar_D 0 \, script connect parameter_d 1 list2parameter2 2 \, script connect route_D 0 parameter_d 0 \, script connect pvar_A 0 parameter_A 0 \, script connect parameter_A 0 pvar_A 0 \, script connect parameter_A 1 list2parameter2 0 \, script connect route_A 0 parameter_A 0 \, script connect pvar_E 0 parameter_E 0 \, script connect parameter_E 0 pvar_E 0 \, script connect parameter_E 1 list2parameter2 1 \, script connect route_E 0 parameter_E 0 \, script connect pvar_switch 0 active 0 \, script connect active 0 pvar_switch 0 \, script connect active 1 sel_switch 0;#P outlet 144 323 15 0;#P inlet 144 65 15 0;#P connect 0 0 2 0;#P connect 2 0 1 0;#P pop;#P newobj 291 441 52 196617 p connect;#P hidden newex 255 356 96 196617 if $i1 != 0 then $i1;#P window linecount 2;#P hidden message 885 665 285 196617 script connect pvar_switch 0 active 0 \, script connect active 0 pvar_switch 0 \, script connect active 1 sel_switch 0;#P hidden message 24 906 407 196617 script connect pvar_Z 0 parameter_Z 0 \, script connect parameter_Z 0 pvar_Z 0 \, script connect parameter_Z 1 list2parameter 2 \, script connect route_Z 0 parameter_Z 0;#P window linecount 1;#P newex 252 142 51 196617 route set;#P objectname route_Z;#P newex 251 122 51 196617 route set;#P objectname route_Y;#P newex 250 102 51 196617 route set;#P objectname route_X;#P hidden newex 222 840 27 196617 * 3;#P hidden newex 24 817 31 196617 t b i;#P window linecount 3;#P hidden newex 45 860 337 196617 sprintf script new parameter_Z newex 393 50 270 196617 jcom.parameter z/%ld @type msg_float @priority %ld @repetitions 0 @description "Z-component_of_the_position_in_cartesian_coordinates.";#P window linecount 1;#P hidden newex 239 707 27 196617 * 3;#P hidden newex 41 684 31 196617 t b i;#P window linecount 3;#P hidden newex 62 727 338 196617 sprintf script new parameter_Y newex 393 100 270 196617 jcom.parameter y/%ld @type msg_float @priority %ld @repetitions 0 @description "Y-component_of_the_position_in_cartesian_coordinates.";#P hidden message 41 773 277 196617 script connect pvar_Y 0 parameter_Y 0 \, script connect parameter_Y 0 pvar_Y 0 \, script connect parameter_Y 1 list2parameter 1 \, script connect route_Y 0 parameter_Y 0;#P window linecount 1;#P hidden newex 255 555 27 196617 * 3;#P hidden newex 50 523 27 196617 t b i;#P window linecount 3;#P hidden newex 78 575 338 196617 sprintf script new parameter_X newex 391 145 270 196617 jcom.parameter x/%ld @type msg_float @priority %ld @repetitions 0 @description "X-component_of_the_position_in_cartesian_coordinates.";#P hidden message 62 636 277 196617 script connect pvar_X 0 parameter_X 0 \, script connect parameter_X 0 pvar_X 0 \, script connect parameter_X 1 list2parameter 0 \, script connect route_X 0 parameter_X 0;#P window linecount 1;#P newex 747 115 51 196617 route set;#P objectname route_D;#P newex 751 68 51 196617 route set;#P objectname route_E;#P newex 749 91 51 196617 route set;#P objectname route_A;#P window linecount 2;#P hidden message 887 740 407 196617 script connect pvar_E 0 parameter_E 0 \, script connect parameter_E 0 pvar_E 0 \, script connect parameter_E 1 list2parameter2 1 \, script connect route_E 0 parameter_E 0;#P button 670 296 15 0;#P window linecount 1;#P message 532 24 33 196617 set 1;#P message 668 314 14 196617 1;#P newex 532 1 65 196617 jcom.change;#P window linecount 3;#P hidden message 580 731 285 196617 script connect pvar_A 0 parameter_A 0 \, script connect parameter_A 0 pvar_A 0 \, script connect parameter_A 1 list2parameter2 0 \, script connect route_A 0 parameter_A 0;#P button 617 88 15 0;#P window linecount 1;#P message 557 85 53 196617 delete $1;#P outlet 557 103 15 0;#P window linecount 3;#P hidden message 587 686 282 196617 script connect pvar_D 0 parameter_d 0 \, script connect parameter_d 0 pvar_D 0 \, script connect parameter_d 1 list2parameter2 2 \, script connect route_D 0 parameter_d 0;#P hidden message 881 697 302 196617 script connect list2parameter2 10 parameter2 0 \, script connect parameter2 0 list2parameter2 10 \, script connect xyz2aed 3 parameter2 0 \, script connect parameter2 1 aed2xyz 0;#P window linecount 1;#P newex 684 226 163 196617 jcom.list2parameter 3;#P objectname list2parameter2;#N vpatcher 402 342 1002 742;#P origin 0 -29;#P outlet 274 365 15 0;#P window setfont "Sans Serif" 9.;#P window linecount 0;#P newex 272 339 51 196617 pack f f f;#P newex 56 239 43 196617 % 360.;#P newex 56 216 106 196617 expr (-1.0*$f1)+90.;#P window linecount 1;#P newex 56 336 62 196617 prepend set;#P newex 90 291 62 196617 prepend set;#P newex 165 314 62 196617 prepend set;#P newex 101 74 29 196617 t b f;#P newex 101 -14 84 196617 unpack 0. 0. 0.;#P newex 211 113 47 196617 cartopol;#P newex 248 170 92 196617 jcom.rad2deg.mxt;#P newex 138 143 92 196617 jcom.rad2deg.mxt;#P newex 101 51 47 196617 cartopol;#P inlet 101 -51 15 0;#P outlet 165 370 15 0;#P outlet 89 315 15 0;#P outlet 56 358 15 0;#P connect 5 0 13 0;#P connect 13 0 14 0;#P connect 14 0 12 0;#P connect 12 0 0 0;#P connect 11 0 1 0;#P connect 6 0 11 0;#P connect 3 0 8 0;#P connect 8 0 4 0;#P connect 4 0 9 0;#P connect 8 1 4 1;#P connect 4 1 5 0;#P connect 7 0 10 0;#P connect 10 0 2 0;#P connect 9 1 7 0;#P connect 8 2 7 1;#P connect 7 1 6 0;#P connect 9 0 15 0;#P connect 12 0 15 0;#P connect 15 0 16 0;#P connect 6 0 15 1;#P connect 7 0 15 2;#P pop;#P newobj 661 147 91 196617 p xyz2aed;#P objectname xyz2aed;#P hidden newex 719 199 39 196617 pvar E;#P objectname pvar_E;#P hidden newex 675 198 41 196617 pvar A;#P objectname pvar_A;#P hidden newex 759 199 40 196617 pvar D;#P objectname pvar_D;#P flonum 359 1 53 9 0. 0 8225 3 198 198 198 221 221 221 222 222 222 0 0 0;#P objectname D;#P flonum 304 1 53 9 0 0 8224 3 198 198 198 221 221 221 222 222 222 0 0 0;#P objectname E;#P flonum 249 1 53 9 0 0 8224 3 198 198 198 221 221 221 222 222 222 0 0 0;#P objectname A;#P window setfont "Sans Serif" 12.;#P comment 236 0 13 196620 ||;#B frgb 198 0 65;#P window setfont "Sans Serif" 9.;#P hidden newex 532 121 165 196617 jcom.return delete @type msg_int;#P newex 532 42 64 196617 pvar switch;#P objectname pvar_switch;#P user radiogroup 1 0 34 16;#X size 1;#X offset 29;#X inactive 0;#X itemtype 1;#X flagmode 0;#X set 0;#X done;#P objectname switch;#P message 532 101 21 196617 $1;#P newex 612 61 41 196617 sel 0 1;#P objectname sel_switch;#N vpatcher 233 223 833 623;#P origin 0 -15;#P outlet 368 369 15 0;#P window setfont "Sans Serif" 9.;#P newex 367 275 29 196617 t b f;#P newex 367 347 51 196617 pack f f f;#P window linecount 1;#P newex 182 312 62 196617 prepend set;#P newex 51 236 62 196617 prepend set;#P window linecount 0;#P newex 116 236 62 196617 prepend set;#P window linecount 1;#P comment 181 356 100 196617 z;#P comment 117 355 100 196617 y;#P outlet 182 340 15 0;#P outlet 116 338 15 0;#P newex 51 203 75 196617 poltocar;#P newex 51 175 141 196617 poltocar;#P newex 51 105 84 196617 unpack 0. 0. 0.;#P newex 88 135 92 196617 jcom.deg2rad.mxt;#P newex 182 135 92 196617 jcom.deg2rad.mxt;#P message 51 82 52 196617 \$3 \$1 \$2;#P inlet 51 17 15 0;#P outlet 51 337 15 0;#P window linecount 0;#P comment 51 356 100 196617 x;#P comment 70 19 100 196617 (list) aed;#P connect 3 0 4 0;#P connect 4 0 7 0;#P connect 7 0 8 0;#P connect 8 0 9 0;#P connect 9 0 15 0;#P connect 14 0 2 0;#P connect 7 1 6 0;#P connect 6 0 9 1;#P connect 9 1 14 0;#P connect 15 0 10 0;#P fasten 7 2 5 0 130 128 187 128;#P connect 5 0 8 1;#P connect 8 1 16 0;#P connect 16 0 11 0;#P connect 9 0 18 0;#P connect 14 0 17 0;#P connect 18 0 17 0;#P connect 17 0 19 0;#P connect 18 1 17 1;#P connect 8 1 17 2;#P pop;#P newobj 191 167 92 196617 p aed2xyz;#P objectname aed2xyz;#P newex 194 241 166 196617 jcom.list2parameter.mxt 3;#P objectname list2parameter;#P hidden newex 255 325 67 196617 loadmess $1;#P window linecount 2;#P hidden message 591 665 332 196617 script connect list2parameter 10 parameter 0 \, script connect parameter 0 list2parameter 10 \, script connect aed2xyz 3 parameter 0;#P window linecount 1;#N thispatcher;#Q end;#P hidden newobj 255 476 61 196617 thispatcher;#P newex 283 211 39 196617 pvar Z;#P objectname pvar_Z;#P newex 237 210 40 196617 pvar Y;#P objectname pvar_Y;#P newex 195 210 40 196617 pvar X;#P objectname pvar_X;#P flonum 182 1 53 9 0 0 8224 3 198 198 198 221 221 221 222 222 222 0 0 0;#P objectname Z;#P flonum 127 1 53 9 0 0 8224 3 198 198 198 221 221 221 222 222 222 0 0 0;#P objectname Y;#P flonum 72 1 53 9 0 0 8224 3 198 198 198 221 221 221 222 222 222 0 0 0;#P objectname X;#P comment 17 2 51 196617 voice $1:;#B frgb 172 172 172;#P user panel 0 0 416 17;#X brgb 80 80 80;#X frgb 255 255 255;#X border 1;#X rounded 0;#X shadow 0;#X done;#P connect 50 0 55 0;#P connect 47 0 45 0;#P fasten 50 1 49 0 50 848 50 848;#P fasten 43 0 41 0 55 580 67 580;#P fasten 47 1 46 0 67 715 67 715;#P fasten 43 1 42 0 72 557 83 557;#P connect 26 10 12 0;#P connect 12 0 11 0;#P connect 5 0 11 0;#P connect 31 0 11 0;#P connect 12 0 5 0;#P fasten 11 0 5 0 199 265 185 265 185 209 200 209;#P connect 12 1 11 1;#P connect 6 0 11 1;#P fasten 50 1 51 0 50 838 227 838;#P connect 12 2 11 2;#P connect 7 0 11 2;#P connect 12 1 6 0;#P fasten 11 1 6 0 214 269 180 269 180 203 242 203;#P fasten 47 1 48 0 67 705 244 705;#P connect 12 0 52 0;#P connect 12 1 53 0;#P connect 12 2 54 0;#P connect 10 0 57 0;#P connect 60 0 59 0;#P connect 57 0 59 0;#P connect 58 0 8 0;#P connect 59 0 8 0;#P fasten 43 1 44 0 72 547 260 547;#P connect 12 2 7 0;#P fasten 11 2 7 0 229 273 175 273 175 198 288 198;#P connect 61 0 58 0;#P connect 59 1 61 0;#P hidden connect 51 0 49 1;#P hidden connect 48 0 46 1;#P hidden connect 44 0 42 1;#P connect 34 0 33 0;#P connect 33 0 35 0;#P connect 35 0 16 0;#P connect 13 0 14 0;#P connect 14 0 17 0;#P connect 13 0 30 0;#P connect 30 0 29 0;#P connect 16 0 33 1;#P connect 11 10 25 0;#P connect 36 0 34 0;#P connect 26 10 36 0;#P connect 11 10 36 0;#P connect 25 0 23 0;#P fasten 26 0 23 0 689 251 671 251 671 194 680 194;#P connect 25 0 26 0;#P fasten 23 0 26 0 680 223 689 223;#P connect 25 1 26 1;#P fasten 24 0 26 1 724 219 704 219;#P connect 25 2 26 2;#P connect 22 0 26 2;#P connect 25 1 24 0;#P fasten 26 1 24 0 704 258 668 258 668 187 724 187;#P connect 25 2 40 0;#P connect 25 0 38 0;#P connect 25 1 39 0;#P connect 25 2 22 0;#P fasten 26 2 22 0 719 263 663 263 663 181 764 181;#P pop;