max v2;#N vpatcher 50 47 1318 786;#P origin -58 -721;#P window setfont "Sans Serif" 9.;#P newex 366 423 43 196617 delay 5;#P message 368 375 14 196617 1;#N vpatcher 108 133 1368 811;#P origin 9 47;#P outlet 346 614 15 0;#P window setfont "Sans Serif" 9.;#P window linecount 1;#P newex 346 546 40 196617 t b l;#P message 198 -62 14 196617 1;#P newex 332 -49 79 196617 t i i i i i i;#P hidden newex 772 467 112 196617 expr ($f1*10)+6 - 10;#P window linecount 2;#P hidden newex 388 488 393 196617 sprintf script new active newex 700 80 290 196617 jcom.parameter active/%ld @type msg_int @priority %ld @repetitions 0 @description "changes_active_status.";#P window linecount 1;#P hidden newex 386 438 54 196617 jcom.thru;#P hidden newex 1062 379 112 196617 expr ($f1*10)+5 - 10;#P hidden newex 407 370 54 196617 jcom.thru;#P window linecount 2;#P hidden newex 406 391 653 196617 sprintf script new parameter_E newex 830 50 270 196617 jcom.parameter e/%ld @type msg_float @priority %ld @repetitions 0 @description "elevation_component of the position_in_spherical_coordinates.";#P window linecount 1;#P hidden newex 990 254 112 196617 expr ($f1*10)+4 - 10;#P hidden newex 420 240 54 196617 jcom.thru;#P window linecount 2;#P hidden newex 420 279 580 196617 sprintf script new parameter_A newex 830 100 270 196617 jcom.parameter a/%ld @type msg_float @priority %ld @repetitions 0 @description "azimuth_component of the position_in_spherical_coordinates.";#P window linecount 1;#P hidden newex 1040 181 112 196617 expr ($f1*10)+3 - 10;#P hidden newex 415 164 54 196617 jcom.thru;#P window linecount 2;#P hidden newex 415 190 638 196617 sprintf script new parameter_d newex 750 20 270 196617 jcom.parameter d/%ld @type msg_float @range 0. 20. @clipmode low @priority %ld @repetitions 0 @description "Distance_component_of the position_in_spherical_coordinates.";#P window linecount 1;#P hidden newex 873 78 109 196617 expr ($f1*10)+2 -10;#P hidden newex 418 63 54 196617 jcom.thru;#P window linecount 2;#P hidden newex 418 103 465 196617 sprintf script new parameter2 newex 830 245 270 196617 jcom.parameter aed/%ld @type msg_list @priority %ld @repetitions 0 @description "Position_in_aed_coordinate.";#P window linecount 1;#P hidden newex 851 -4 112 196617 expr ($f1*10)+1 - 10;#P hidden newex 419 -20 54 196617 jcom.thru;#P window linecount 2;#P hidden newex 419 19 442 196617 sprintf script new parameter newex 391 200 270 196617 jcom.parameter xyz/%ld @type msg_list @priority %ld @repetitions 0 @description "Position_in_xyz_coordinates.";#P outlet 69 648 15 0;#P inlet 330 -102 15 0;#P connect 22 1 1 0;#P connect 14 0 1 0;#P connect 11 0 1 0;#P connect 8 0 1 0;#P connect 5 0 1 0;#P connect 2 0 1 0;#P connect 0 0 20 0;#P connect 21 0 20 0;#P connect 18 0 22 0;#P connect 22 0 23 0;#P connect 20 0 17 0;#P connect 17 0 18 0;#P connect 15 0 14 0;#P connect 20 1 15 0;#P connect 20 3 9 0;#P connect 9 0 8 0;#P connect 20 4 6 0;#P connect 6 0 5 0;#P connect 20 5 3 0;#P connect 3 0 2 0;#P connect 20 2 12 0;#P connect 12 0 11 0;#P connect 19 0 18 1;#P connect 17 0 19 0;#P connect 3 0 4 0;#P hidden connect 4 0 2 1;#P connect 6 0 7 0;#P hidden connect 7 0 5 1;#P connect 12 0 13 0;#P hidden connect 13 0 11 1;#P connect 9 0 10 0;#P hidden connect 10 0 8 1;#P hidden connect 16 0 14 1;#P connect 15 0 16 0;#P pop;#P newobj 330 403 47 196617 p create;#N vpatcher 361 150 961 550;#P window setfont "Sans Serif" 9.;#P message 144 115 388 196617 script connect list2parameter 10 parameter 0 \, script connect parameter 0 list2parameter 10 \, script connect aed2xyz 3 parameter 0 \, script connect list2parameter2 10 parameter2 0 \, script connect parameter2 0 list2parameter2 10 \, script connect xyz2aed 3 parameter2 0 \, script connect parameter2 1 aed2xyz 0 \, script connect pvar_D 0 parameter_d 0 \, script connect parameter_d 0 pvar_D 0 \, script connect parameter_d 1 list2parameter2 2 \, script connect route_D 0 parameter_d 0 \, script connect pvar_A 0 parameter_A 0 \, script connect parameter_A 0 pvar_A 0 \, script connect parameter_A 1 list2parameter2 0 \, script connect route_A 0 parameter_A 0 \, script connect pvar_E 0 parameter_E 0 \, script connect parameter_E 0 pvar_E 0 \, script connect parameter_E 1 list2parameter2 1 \, script connect route_E 0 parameter_E 0 \, script connect pvar_switch 0 active 0 \, script connect active 0 pvar_switch 0 \, script connect active 1 sel_switch 0;#P outlet 144 323 15 0;#P inlet 144 65 15 0;#P connect 0 0 2 0;#P connect 2 0 1 0;#P pop;#P newobj 366 446 52 196617 p connect;#P hidden newex 255 356 96 196617 if $i1 != 0 then $i1;#P window linecount 2;#P hidden message 885 665 285 196617 script connect pvar_switch 0 active 0 \, script connect active 0 pvar_switch 0 \, script connect active 1 sel_switch 0;#P hidden message 24 906 407 196617 script connect pvar_Z 0 parameter_Z 0 \, script connect parameter_Z 0 pvar_Z 0 \, script connect parameter_Z 1 list2parameter 2 \, script connect route_Z 0 parameter_Z 0;#P window linecount 1;#P newex 252 142 51 196617 route set;#P objectname route_Z;#P newex 251 122 51 196617 route set;#P objectname route_Y;#P newex 250 102 51 196617 route set;#P objectname route_X;#P hidden newex 222 840 27 196617 * 3;#P hidden newex 24 817 31 196617 t b i;#P window linecount 3;#P hidden newex 45 860 337 196617 sprintf script new parameter_Z newex 393 50 270 196617 jcom.parameter z/%ld @type msg_float @priority %ld @repetitions 0 @description "Z-component_of_the_position_in_cartesian_coordinates.";#P window linecount 1;#P hidden newex 239 707 27 196617 * 3;#P hidden newex 41 684 31 196617 t b i;#P window linecount 3;#P hidden newex 62 727 338 196617 sprintf script new parameter_Y newex 393 100 270 196617 jcom.parameter y/%ld @type msg_float @priority %ld @repetitions 0 @description "Y-component_of_the_position_in_cartesian_coordinates.";#P hidden message 41 773 277 196617 script connect pvar_Y 0 parameter_Y 0 \, script connect parameter_Y 0 pvar_Y 0 \, script connect parameter_Y 1 list2parameter 1 \, script connect route_Y 0 parameter_Y 0;#P window linecount 1;#P hidden newex 255 555 27 196617 * 3;#P hidden newex 50 523 27 196617 t b i;#P window linecount 3;#P hidden newex 78 575 338 196617 sprintf script new parameter_X newex 391 145 270 196617 jcom.parameter x/%ld @type msg_float @priority %ld @repetitions 0 @description "X-component_of_the_position_in_cartesian_coordinates.";#P hidden message 62 636 277 196617 script connect pvar_X 0 parameter_X 0 \, script connect parameter_X 0 pvar_X 0 \, script connect parameter_X 1 list2parameter 0 \, script connect route_X 0 parameter_X 0;#P window linecount 1;#P newex 747 115 51 196617 route set;#P objectname route_D;#P newex 751 68 51 196617 route set;#P objectname route_E;#P newex 749 91 51 196617 route set;#P objectname route_A;#P window linecount 2;#P hidden message 887 740 407 196617 script connect pvar_E 0 parameter_E 0 \, script connect parameter_E 0 pvar_E 0 \, script connect parameter_E 1 list2parameter2 1 \, script connect route_E 0 parameter_E 0;#P button 670 296 15 0;#P window linecount 1;#P message 532 24 33 196617 set 1;#P message 668 314 14 196617 1;#P newex 532 1 65 196617 jcom.change;#P window linecount 3;#P hidden message 580 731 285 196617 script connect pvar_A 0 parameter_A 0 \, script connect parameter_A 0 pvar_A 0 \, script connect parameter_A 1 list2parameter2 0 \, script connect route_A 0 parameter_A 0;#P button 617 88 15 0;#P window linecount 1;#P message 557 85 53 196617 delete $1;#P outlet 557 103 15 0;#P window linecount 3;#P hidden message 587 686 282 196617 script connect pvar_D 0 parameter_d 0 \, script connect parameter_d 0 pvar_D 0 \, script connect parameter_d 1 list2parameter2 2 \, script connect route_D 0 parameter_d 0;#P hidden message 881 697 302 196617 script connect list2parameter2 10 parameter2 0 \, script connect parameter2 0 list2parameter2 10 \, script connect xyz2aed 3 parameter2 0 \, script connect parameter2 1 aed2xyz 0;#P window linecount 1;#P newex 684 226 163 196617 jcom.list2parameter 3;#P objectname list2parameter2;#N vpatcher 402 342 1002 742;#P origin 0 -29;#P outlet 274 365 15 0;#P window setfont "Sans Serif" 9.;#P window linecount 0;#P newex 272 339 51 196617 pack f f f;#P newex 56 239 43 196617 % 360.;#P newex 56 216 106 196617 expr (-1.0*$f1)+90.;#P window linecount 1;#P newex 56 336 62 196617 prepend set;#P newex 90 291 62 196617 prepend set;#P newex 165 314 62 196617 prepend set;#P newex 101 74 29 196617 t b f;#P newex 101 -14 84 196617 unpack 0. 0. 0.;#P newex 211 113 47 196617 cartopol;#P newex 248 170 92 196617 jcom.rad2deg.mxt;#P newex 138 143 92 196617 jcom.rad2deg.mxt;#P newex 101 51 47 196617 cartopol;#P inlet 101 -51 15 0;#P outlet 165 370 15 0;#P outlet 89 315 15 0;#P outlet 56 358 15 0;#P connect 5 0 13 0;#P connect 13 0 14 0;#P connect 14 0 12 0;#P connect 12 0 0 0;#P connect 11 0 1 0;#P connect 6 0 11 0;#P connect 3 0 8 0;#P connect 8 0 4 0;#P connect 4 0 9 0;#P connect 8 1 4 1;#P connect 4 1 5 0;#P connect 7 0 10 0;#P connect 10 0 2 0;#P connect 9 1 7 0;#P connect 8 2 7 1;#P connect 7 1 6 0;#P connect 9 0 15 0;#P connect 12 0 15 0;#P connect 15 0 16 0;#P connect 6 0 15 1;#P connect 7 0 15 2;#P pop;#P newobj 661 147 91 196617 p xyz2aed;#P objectname xyz2aed;#P hidden newex 719 199 39 196617 pvar E;#P objectname pvar_E;#P hidden newex 675 198 41 196617 pvar A;#P objectname pvar_A;#P hidden newex 759 199 40 196617 pvar D;#P objectname pvar_D;#P flonum 359 1 53 9 0. 0 8225 3 198 198 198 221 221 221 222 222 222 0 0 0;#P objectname D;#P flonum 304 1 53 9 0 0 8224 3 198 198 198 221 221 221 222 222 222 0 0 0;#P objectname E;#P flonum 249 1 53 9 0 0 8224 3 198 198 198 221 221 221 222 222 222 0 0 0;#P objectname A;#P window setfont "Sans Serif" 12.;#P comment 236 0 13 196620 ||;#B frgb 198 0 65;#P window setfont "Sans Serif" 9.;#P hidden newex 532 121 165 196617 jcom.return delete @type msg_int;#P newex 532 42 64 196617 pvar switch;#P objectname pvar_switch;#P user radiogroup 1 0 34 16;#X size 1;#X offset 29;#X inactive 0;#X itemtype 1;#X flagmode 0;#X set 0;#X done;#P objectname switch;#P message 532 101 21 196617 $1;#P newex 612 61 41 196617 sel 0 1;#P objectname sel_switch;#N vpatcher 233 223 833 623;#P origin 0 -15;#P outlet 368 369 15 0;#P window setfont "Sans Serif" 9.;#P newex 367 275 29 196617 t b f;#P newex 367 347 51 196617 pack f f f;#P window linecount 1;#P newex 182 312 62 196617 prepend set;#P newex 51 236 62 196617 prepend set;#P window linecount 0;#P newex 116 236 62 196617 prepend set;#P window linecount 1;#P comment 181 356 100 196617 z;#P comment 117 355 100 196617 y;#P outlet 182 340 15 0;#P outlet 116 338 15 0;#P newex 51 203 75 196617 poltocar;#P newex 51 175 141 196617 poltocar;#P newex 51 105 84 196617 unpack 0. 0. 0.;#P newex 88 135 92 196617 jcom.deg2rad.mxt;#P newex 182 135 92 196617 jcom.deg2rad.mxt;#P message 51 82 52 196617 \$3 \$1 \$2;#P inlet 51 17 15 0;#P outlet 51 337 15 0;#P window linecount 0;#P comment 51 356 100 196617 x;#P comment 70 19 100 196617 (list) aed;#P connect 3 0 4 0;#P connect 4 0 7 0;#P connect 7 0 8 0;#P connect 8 0 9 0;#P connect 9 0 15 0;#P connect 14 0 2 0;#P connect 7 1 6 0;#P connect 6 0 9 1;#P connect 9 1 14 0;#P connect 15 0 10 0;#P fasten 7 2 5 0 130 128 187 128;#P connect 5 0 8 1;#P connect 8 1 16 0;#P connect 16 0 11 0;#P connect 9 0 18 0;#P connect 14 0 17 0;#P connect 18 0 17 0;#P connect 17 0 19 0;#P connect 18 1 17 1;#P connect 8 1 17 2;#P pop;#P newobj 191 167 92 196617 p aed2xyz;#P objectname aed2xyz;#P newex 194 241 166 196617 jcom.list2parameter.mxt 3;#P objectname list2parameter;#P hidden newex 255 325 67 196617 loadmess $1;#P window linecount 2;#P hidden message 591 665 332 196617 script connect list2parameter 10 parameter 0 \, script connect parameter 0 list2parameter 10 \, script connect aed2xyz 3 parameter 0;#P window linecount 1;#N thispatcher;#Q end;#P hidden newobj 255 476 61 196617 thispatcher;#P newex 283 211 39 196617 pvar Z;#P objectname pvar_Z;#P newex 237 210 40 196617 pvar Y;#P objectname pvar_Y;#P newex 195 210 40 196617 pvar X;#P objectname pvar_X;#P flonum 182 1 53 9 0 0 8224 3 198 198 198 221 221 221 222 222 222 0 0 0;#P objectname Z;#P flonum 127 1 53 9 0 0 8224 3 198 198 198 221 221 221 222 222 222 0 0 0;#P objectname Y;#P flonum 72 1 53 9 0 0 8224 3 198 198 198 221 221 221 222 222 222 0 0 0;#P objectname X;#P comment 17 2 51 196617 voice $1:;#B frgb 172 172 172;#P user panel 0 0 416 17;#X brgb 80 80 80;#X frgb 255 255 255;#X border 1;#X rounded 0;#X shadow 0;#X done;#P connect 50 0 55 0;#P connect 47 0 45 0;#P fasten 50 1 49 0 50 848 50 848;#P fasten 43 0 41 0 55 580 67 580;#P fasten 47 1 46 0 67 715 67 715;#P fasten 43 1 42 0 72 557 83 557;#P connect 26 10 12 0;#P connect 12 0 11 0;#P connect 5 0 11 0;#P connect 31 0 11 0;#P connect 12 0 5 0;#P fasten 11 0 5 0 199 265 185 265 185 209 200 209;#P connect 12 1 11 1;#P connect 6 0 11 1;#P fasten 50 1 51 0 50 838 227 838;#P connect 12 2 11 2;#P connect 7 0 11 2;#P connect 12 1 6 0;#P fasten 11 1 6 0 214 269 180 269 180 203 242 203;#P fasten 47 1 48 0 67 705 244 705;#P connect 12 0 52 0;#P connect 12 1 53 0;#P connect 12 2 54 0;#P connect 10 0 57 0;#P connect 58 0 8 0;#P connect 59 0 8 0;#P fasten 43 1 44 0 72 547 260 547;#P fasten 11 2 7 0 229 273 175 273 175 198 288 198;#P connect 12 2 7 0;#P connect 60 0 59 0;#P connect 57 0 59 0;#P connect 59 1 61 0;#P connect 61 0 58 0;#P hidden connect 51 0 49 1;#P hidden connect 48 0 46 1;#P hidden connect 44 0 42 1;#P connect 34 0 33 0;#P connect 33 0 35 0;#P connect 35 0 16 0;#P connect 13 0 14 0;#P connect 14 0 17 0;#P connect 13 0 30 0;#P connect 30 0 29 0;#P connect 16 0 33 1;#P connect 11 10 25 0;#P connect 36 0 34 0;#P connect 11 10 36 0;#P connect 26 10 36 0;#P connect 25 0 23 0;#P fasten 26 0 23 0 689 251 671 251 671 194 680 194;#P connect 25 0 26 0;#P fasten 23 0 26 0 680 223 689 223;#P connect 25 1 26 1;#P fasten 24 0 26 1 724 219 704 219;#P connect 25 2 26 2;#P connect 22 0 26 2;#P connect 25 1 24 0;#P fasten 26 1 24 0 704 258 668 258 668 187 724 187;#P connect 25 2 40 0;#P connect 25 0 38 0;#P connect 25 1 39 0;#P fasten 26 2 22 0 719 263 663 263 663 181 764 181;#P connect 25 2 22 0;#P pop;