max v2;#N vpatcher 168 54 1096 657;#P origin -6 -417;#P window setfont "Sans Serif" 9.;#P number 64 25 35 9 -31 31 8227 3 198 198 198 221 221 221 222 222 222 0 0 0;#P objectname Voices;#P window linecount 1;#P comment 9 26 46 196617 Voices:;#B frgb 172 172 172;#P user jsui 121 25 25 15 1 0 0 jsui_textbutton.js dump 225 225 225 68 68 68;#P objectname Dump;#P message 184 67 191 196617 /preset/store 1 default \, /preset/write;#B color 3;#P hidden newex 538 126 58 196617 pvar Dump;#P window linecount 2;#P hidden newex 538 146 246 196617 jcom.message dump @repetitions 0 @type msg_none @description "dump out state of active voices.";#P objectname dump;#P window linecount 1;#N vpatcher 625 231 1225 631;#P outlet 119 292 15 0;#P window setfont "Sans Serif" 9.;#P newex 119 159 39 196617 t i i;#P newex 119 257 38 196617 zl join;#P window linecount 1;#P newex 119 218 95 196617 sprintf active/%ld;#P window linecount 0;#P newex 148 185 125 196617 if $i1<= $i2 then 1 else 0;#P newex 89 133 40 196617 uzi 16;#P newex 89 99 27 196617 t b i;#P inlet 88 45 15 0;#P newex 88 66 115 196617 jcom.OSCroute /voices;#P connect 1 0 0 0;#P connect 0 0 2 0;#P connect 2 0 3 0;#P connect 3 2 7 0;#P connect 7 0 5 0;#P connect 5 0 6 0;#P connect 6 0 8 0;#P connect 4 0 6 1;#P connect 7 1 4 0;#P fasten 2 1 4 1 111 121 268 121;#P pop;#P newobj 305 296 140 196617 p jalg.SpeakerMAtcher~.mxt;#P hidden message 329 89 76 196617 /preset/write;#P hidden message 184 89 142 196617 /preset/store 1 "mydefault";#P hidden newex 150 172 43 196617 jcom.in;#P hidden newex 150 244 47 196617 pcontrol;#P hidden newex 150 220 37 196617 t open;#P hidden newex 150 196 151 196617 jcom.oscroute /open_inspector;#N vpatcher 237 55 954 619;#P origin 2 -4;#P bpatcher 287 493 421 22 0 0 jcom.sur.ch.mxt 0 23;#P objectname jcom.sur.ch.xyz_setup.mxt[23];#P bpatcher 287 514 421 22 0 0 jcom.sur.ch.mxt 0 24;#P objectname jcom.sur.ch.xyz_setup.mxt[24];#P bpatcher 287 472 421 22 0 0 jcom.sur.ch.mxt 0 22;#P objectname jcom.sur.ch.xyz_setup.mxt[22];#P bpatcher 287 451 421 22 0 0 jcom.sur.ch.mxt 0 21;#P objectname jcom.sur.ch.xyz_setup.mxt[21];#P bpatcher 287 430 421 22 0 0 jcom.sur.ch.mxt 0 20;#P objectname jcom.sur.ch.xyz_setup.mxt[20];#P bpatcher 287 409 421 22 0 0 jcom.sur.ch.mxt 0 19;#P objectname jcom.sur.ch.xyz_setup.mxt[19];#P bpatcher 287 388 421 22 0 0 jcom.sur.ch.mxt 0 18;#P objectname jcom.sur.ch.xyz_setup.mxt[18];#P bpatcher 287 367 421 22 0 0 jcom.sur.ch.mxt 0 17;#P objectname jcom.sur.ch.xyz_setup.mxt[17];#P window setfont "Sans Serif" 9.;#P message 426 -45 33 196617 dump;#P button 429 -65 15 0;#P window linecount 1;#N vpatcher 537 113 1303 515;#P origin 0 -42;#P window setfont "Sans Serif" 9.;#P window linecount 0;#P message 288 138 14 196617 1;#P newex 288 158 47 196617 gate 1 0;#P message 25 140 14 196617 1;#P newex 25 160 47 196617 gate 1 0;#P newex 288 228 51 196617 tosymbol;#P newex 288 204 54 196617 prepend /;#P newex 288 181 66 196617 regexp " ";#P newex 288 116 70 196617 t b l;#P newex 315 68 51 196617 zl slice 2;#P newex 356 91 185 196617 if $i4==1 then $f1 $f2 $f3 else out2 0;#P newex 25 233 51 196617 tosymbol;#P newex 152 182 98 196617 loadmess separator;#P newex 25 209 54 196617 prepend /;#P newex 25 255 121 196617 zl join;#P newex 153 134 108 196617 loadmess substitute /;#P newex 25 186 66 196617 regexp " ";#P newex 92 115 53 196617 t b l;#P window linecount 1;#P newex 51 73 51 196617 zl slice 2;#P window linecount 0;#P newex 92 95 185 196617 if $i4==1 then $f1 $f2 $f3 else out2 0;#P window linecount 1;#P newex 366 228 114 196617 loadmess scalarmode 1;#P newex 348 250 81 196617 vexpr $f1* 10.;#P newex 288 274 69 196617 zl join;#P inlet 316 31 15 0;#P inlet 55 29 15 0;#P outlet 151 300 15 0;#P fasten 8 0 22 0 97 136 30 136;#P connect 22 0 21 0;#P connect 6 1 21 0;#P connect 10 0 9 0;#P connect 21 0 9 0;#P connect 9 0 12 0;#P connect 13 0 14 0;#P connect 12 0 14 0;#P connect 14 0 11 0;#P connect 1 0 7 0;#P connect 7 0 21 1;#P connect 7 1 6 0;#P connect 6 0 8 0;#P connect 8 1 11 1;#P connect 3 0 0 0;#P connect 11 0 0 0;#P fasten 15 0 17 0 361 111 293 111;#P connect 17 0 24 0;#P connect 24 0 23 0;#P connect 15 1 23 0;#P connect 10 0 18 0;#P connect 23 0 18 0;#P connect 18 0 19 0;#P connect 13 0 20 0;#P connect 19 0 20 0;#P connect 20 0 3 0;#P connect 2 0 16 0;#P connect 16 0 23 1;#P connect 4 0 3 1;#P connect 5 0 4 0;#P connect 17 1 4 0;#P connect 16 1 15 0;#P pop;#P hidden newobj 257 638 30 196617 p;#P bpatcher 287 325 421 22 0 0 jcom.sur.ch.mxt 0 15;#P objectname jcom.sur.ch.xyz_setup.mxt[15];#P bpatcher 287 346 421 22 0 0 jcom.sur.ch.mxt 0 16;#P objectname jcom.sur.ch.xyz_setup.mxt[16];#P bpatcher 287 304 421 22 0 0 jcom.sur.ch.mxt 0 14;#P objectname jcom.sur.ch.xyz_setup.mxt[14];#P bpatcher 287 282 421 22 0 0 jcom.sur.ch.mxt 0 13;#P objectname jcom.sur.ch.xyz_setup.mxt[13];#P bpatcher 287 261 421 22 0 0 jcom.sur.ch.mxt 0 12;#P objectname jcom.sur.ch.xyz_setup.mxt[12];#P bpatcher 287 240 421 22 0 0 jcom.sur.ch.mxt 0 11;#P objectname jcom.sur.ch.xyz_setup.mxt[11];#P bpatcher 287 219 421 22 0 0 jcom.sur.ch.mxt 0 10;#P objectname jcom.sur.ch.xyz_setup.mxt[10];#P bpatcher 287 198 421 22 0 0 jcom.sur.ch.mxt 0 9;#P objectname jcom.sur.ch.xyz_setup.mxt[9];#P bpatcher 287 176 421 22 0 0 jcom.sur.ch.mxt 0 8;#P objectname jcom.sur.ch.xyz_setup.mxt[8];#P bpatcher 287 155 421 22 0 0 jcom.sur.ch.mxt 0 7;#P objectname jcom.sur.ch.xyz_setup.mxt[7];#P bpatcher 287 134 421 22 0 0 jcom.sur.ch.mxt 0 6;#P objectname jcom.sur.ch.xyz_setup.mxt[6];#P hidden newex 29 677 155 196617 loadmess patcher speaker-setup;#P hidden newex 18 655 40 196617 t front;#P hidden newex 18 630 151 196617 jcom.oscroute /open_inspector;#P hidden inlet 18 603 15 0;#N thispatcher;#Q end;#P hidden newobj 29 697 61 196617 thispatcher;#P comment 657 15 24 196617 d;#B frgb 198 198 198;#P comment 602 15 24 196617 e;#B frgb 198 198 198;#P comment 547 15 24 196617 a;#B frgb 198 198 198;#P bpatcher 287 113 421 22 0 0 jcom.sur.ch.mxt 0 5;#P objectname jcom.sur.ch.xyz_setup.mxt[5];#P bpatcher 287 92 421 22 0 0 jcom.sur.ch.mxt 0 4;#P objectname jcom.sur.ch.xyz_setup.mxt[4];#P bpatcher 287 71 421 22 0 0 jcom.sur.ch.mxt 0 3;#P objectname jcom.sur.ch.xyz_setup.mxt[3];#P bpatcher 287 50 421 22 0 0 jcom.sur.ch.mxt 0 2;#P objectname jcom.sur.ch.xyz_setup.mxt[2];#P window linecount 0;#N vpatcher 194 99 794 499;#P window setfont "Sans Serif" 9.;#P newex 50 250 62 196617 prepend set;#P window linecount 1;#P newex 130 180 38 196617 zl join;#P window linecount 0;#P newex 130 100 51 196617 zl slice 1;#P button 240 48 15 0;#P newex 240 68 114 196617 loadmess scalarmode 1;#P newex 218 118 81 196617 vexpr $f1* 0.1;#P newex 121 72 66 196617 regexp /;#P newex 122 206 65 196617 prepend xyz;#P newex 80 29 115 196617 loadmess substitute " ";#P newex 50 70 66 196617 regexp /;#P newex 50 90 63 196617 prepend aed;#P inlet 121 52 15 0;#P inlet 50 50 15 0;#P outlet 49 292 15 0;#P connect 13 0 0 0;#P connect 5 0 4 0;#P connect 1 0 4 0;#P connect 4 0 3 0;#P connect 6 0 13 0;#P connect 3 0 13 0;#P connect 5 0 7 0;#P connect 2 0 7 0;#P connect 12 0 6 0;#P connect 7 0 11 0;#P connect 11 0 12 0;#P fasten 8 0 12 1 223 141 163 141;#P connect 9 0 8 0;#P connect 11 1 8 0;#P connect 10 0 9 0;#P pop;#P newobj 342 -70 60 196617 p;#P newex 342 -90 156 196617 jcom.oscroute /aed /xyz /dump;#P hidden newex 14 -44 77 196617 loadmess clear;#P inlet 341 -109 15 0;#P hidden outlet 257 662 15 0;#P user ambimonitor 3 3 280 560 2 1 1 0 1 0 777;#X rgb1 0 0 0;#X rgb2 0 0 0;#X rgb3 0 0 0;#X rgb4 235 235 117;#X rgb5 181 181 181;#X rgb6 80 80 80;#X rgb7 176 176 243;#X rgb8 117 117 255;#P comment 483 15 24 196617 z;#B frgb 198 198 198;#P comment 428 15 24 196617 y;#B frgb 198 198 198;#P bpatcher 287 30 421 22 0 0 jcom.sur.ch.mxt 0 1;#P objectname jcom.sur.ch.xyz_setup.mxt[1];#P comment 373 15 24 196617 x;#B frgb 198 198 198;#P hidden message 514 598 214 196617 window size 100 100 400 615 \, window exec;#N thispatcher;#Q window flags nogrow close zoom nofloat;#Q window size 237 55 954 619;#Q window title;#Q window exec;#Q savewindow 1;#Q end;#P hidden newobj 385 644 59 196617 thispatcher;#P hidden newex 587 630 88 196617 bgcolor 80 80 80;#P hidden message 454 537 239 196617 window flags nogrow \, savewindow 1 \, window exec;#P hidden message 296 537 158 196617 window flags grow \, window exec;#P hidden connect 48 0 9 0;#P hidden connect 46 0 9 0;#P hidden connect 45 0 9 0;#P hidden connect 44 0 9 0;#P hidden connect 43 0 9 0;#P hidden connect 42 0 9 0;#P hidden connect 41 0 9 0;#P hidden connect 36 0 9 0;#P hidden connect 37 0 9 0;#P hidden connect 14 0 9 0;#P hidden connect 12 0 9 0;#P hidden connect 6 0 9 0;#P hidden connect 15 0 9 0;#P hidden connect 16 0 9 0;#P hidden connect 17 0 9 0;#P hidden connect 18 0 9 0;#P hidden connect 27 0 9 0;#P hidden connect 28 0 9 0;#P hidden connect 29 0 9 0;#P hidden connect 30 0 9 0;#P hidden connect 31 0 9 0;#P hidden connect 32 0 9 0;#P hidden connect 33 0 9 0;#P hidden connect 34 0 9 0;#P hidden connect 35 0 9 0;#P hidden connect 40 0 9 0;#P connect 23 0 24 0;#P hidden connect 24 0 25 0;#P connect 26 0 22 0;#P hidden connect 25 0 22 0;#P hidden connect 9 0 38 0;#P hidden connect 38 0 10 0;#P hidden connect 9 1 38 1;#P connect 11 0 13 0;#P connect 13 0 14 0;#P hidden connect 0 0 3 0;#P hidden connect 1 0 3 0;#P hidden connect 4 0 3 0;#P connect 13 1 14 1;#P connect 39 0 40 0;#P connect 13 2 39 0;#P pop;#P hidden newobj 149 283 60 196617 p inspector;#P objectname inspector;#P hidden newex 305 244 45 196617 pcontrol;#P hidden newex 305 197 78 196617 jcom.pass open;#P hidden message 38 89 125 196617 /documentation/generate;#P window linecount 2;#P hidden message 16 377 65 196617 \; max refresh;#P hidden message 17 342 75 196617 \; jcom.init bang;#P window linecount 1;#P hidden newex 537 63 63 196617 pvar Voices;#P window linecount 2;#P hidden newex 16 114 285 196617 jcom.hub jmod.speakermatcher @size 1U-half @module_type control @inspector 1 @description "Describe speaker setup.";#P objectname jcom.hub;#P hidden inlet 16 90 13 0;#P hidden outlet 16 293 13 0;#P hidden newex 537 83 344 196617 jcom.parameter voices @repetitions 0 @type msg_int @range 0 24 @clipmode both @priority 1 @description "Number of voices to transmit.";#P objectname voices;#P bpatcher 0 0 256 62 0 0 jcom.gui.mxt 0;#P objectname jcom.gui.1Uh.a.stereo.mxt;#P connect 21 0 4 0;#P connect 11 0 4 0;#P hidden connect 3 0 4 0;#P hidden fasten 8 0 4 0 43 108 21 108;#P hidden fasten 16 0 4 0 189 109 21 109;#P hidden fasten 17 0 4 0 334 109 21 109;#P connect 18 0 4 0;#P hidden connect 4 0 2 0;#P connect 14 0 11 0;#P hidden connect 15 0 12 0;#P hidden connect 12 0 13 0;#P hidden connect 13 0 14 0;#P hidden fasten 9 1 11 1 378 236 204 236;#P hidden connect 12 1 9 0;#P hidden connect 9 0 10 0;#P connect 10 0 18 0;#P fasten 9 1 18 0 378 286 310 286;#P hidden fasten 1 0 5 0 542 115 530 115 530 58 542 58;#P hidden connect 5 0 1 0;#P connect 20 0 19 0;#P pop;