max v2;#N vpatcher 422 205 1124 468;#P window setfont "Sans Serif" 9.;#P hidden newex 433 186 64 196617 jcom.out~ 1;#P hidden newex 433 144 49 196617 jcom.in~;#P user umenu 49 25 65 196647 1 64 41 1;#X add sine;#X add square;#X add triangle;#X add ramp;#P window linecount 2;#P hidden newex 278 84 364 196617 jcom.parameter shape @type msg_symbol @repetitions 0 @description "The waveform used by the oscillator.  Choices are sine - square - triangle - ramp";#P objectname shape;#P flonum 189 25 40 9 0 0 8224 3 181 181 181 221 221 221 255 255 255 0 0 0;#P objectname left.shift[2];#P hidden newex 278 7 395 196617 jcom.parameter frequency @type msg_float @ramp linear @repetitions 0 @range 0. 200. @clipmode both @description "Frequency of the oscillator in cycles per second.";#P objectname frequency;#P hidden newex 278 45 307 196617 jcom.parameter depth @type msg_float @ramp linear @repetitions 0 @description "Depth (amplitude) of the oscillator.";#P objectname depth;#P window linecount 1;#P comment 158 41 31 196617 depth;#B frgb 149 149 149;#P flonum 189 39 40 9 0 0 8224 3 181 181 181 221 221 221 255 255 255 0 0 0;#P objectname left.shift[1];#P comment 137 27 51 196617 frequency;#B frgb 149 149 149;#P comment 21 27 27 196617 type;#B frgb 149 149 149;#P hidden message 126 140 125 196617 /documentation/generate;#P window linecount 2;#P hidden newex 16 174 406 196617 jcom.hub tap.jmod.yalfo~ @size 1U-half @module_type audio.no_panel @algorithm_type blue @description "Yet Another LFO - a very efficient low frequency oscillator.";#P objectname jmod.hub;#P window linecount 1;#P hidden comment 30 141 79 196617 command input;#P hidden inlet 16 141 13 0;#P hidden message 253 140 31 196617 /init;#P hidden outlet 433 208 15 0;#P hidden newex 433 165 40 196617 tap.lfo~;#P objectname tap.harmonizer~.mod;#P hidden outlet 16 215 13 0;#P bpatcher 0 0 256 60 0 0 jcom.gui.mxt 0;#P objectname jmod.gui.1Uh.a.stereo.mxt;#P hidden fasten 8 0 7 0 131 161 21 161;#P hidden connect 5 0 7 0;#P hidden fasten 4 0 7 0 258 164 21 164;#P hidden connect 7 0 1 0;#P hidden connect 16 0 17 0;#P hidden connect 14 0 15 0;#P hidden connect 13 0 11 0;#P hidden connect 15 0 14 0;#P hidden connect 11 0 13 0;#P hidden connect 17 1 16 0;#P hidden connect 18 0 2 0;#P hidden connect 2 0 19 0;#P hidden connect 19 0 3 0;#P pop;