max v2;#N vpatcher 51 377 626 743;#P window setfont "Sans Serif" 9.;#P hidden newex 339 136 125 196617 jmod.message $0_ buffer;#P objectname jmod.parameter.mxb[6];#P hidden newex 319 73 22 196617 b 1;#P objectname jmod.parameter.mxb[5];#P hidden message 189 116 74 196617 store 1 \, write;#P hidden newex 189 136 65 196617 pattrstorage;#X client_rect 0 0 640 240;#X storage_rect 0 0 640 240;#P objectname sustainM;#P hidden newex 319 46 143 196617 jmod.parameter $0_ length;#P objectname jmod.parameter.mxb;#P hidden newex 344 73 141 196617 jmod.message $0_ normalize;#P objectname jmod.parameter.mxb[1];#P hidden newex 319 104 144 196617 jmod.parameter $0_ capture;#P objectname jmod.parameter.mxb[2];#P hidden newex 319 25 156 196617 jmod.parameter $0_ target;#P objectname jmod.parameter.mxb[3];#P hidden newex 319 5 237 196617 jmod.parameter $0_ voices @special RestartDSP;#P objectname jmod.parameter.mxb[4];#P number 219 32 35 9 1 16 8227 3 198 198 198 221 221 221 222 222 222 0 0 0;#P comment 147 34 95 196617 target (voice):;#B frgb 172 172 172;#P number 219 18 35 9 1 16 8227 3 198 198 198 221 221 221 222 222 222 0 0 0;#P comment 137 20 95 196617 voices (number):;#B frgb 172 172 172;#P hidden newex 127 195 141 196617 poly~ sustainM.lib args 1000;#P message 81 27 52 196617 normalize;#P hidden message 258 217 14 196617 0;#P comment 26 47 128 196617 length (of capture in ms):;#B frgb 172 172 172;#P flonum 150 46 57 9 1. 0 8225 3 198 198 198 221 221 221 222 222 222 0 0 0;#P user led 6 26 17 17 0 150;#P window setfont "Sans Serif" 12.;#P comment 24 25 54 196620 capture;#B frgb 172 172 172;#P window setfont "Sans Serif" 9.;#P hidden comment 175 83 101 196617 ---signal outputs---;#P hidden comment 18 113 79 196617 command input;#P hidden newex 4 136 182 196617 jmod.hub $0_ sustainM @size 1U-half;#P hidden outlet 244 67 15 0;#P hidden inlet 17 -26 15 0;#P hidden comment 35 -33 105 196617 ----signal inputs----;#P hidden outlet 4 191 15 0;#P hidden inlet 4 113 13 0;#P bpatcher 0 0 256 60 0 0 jmod.gui.1Uh.a.mono.mxb 0 $0_;#P objectname jmod.gui.1Uh.a.mono.mxb;#P hidden connect 4 0 0 0;#P hidden connect 1 0 6 0;#P hidden connect 6 0 2 0;#P hidden fasten 13 0 10 0 263 238 536 238 536 20 11 20;#P lcolor 1;#P hidden connect 22 0 10 0;#P hidden connect 27 0 14 0;#P hidden connect 14 0 15 0;#P hidden fasten 0 0 15 0 5 94 132 94;#P hidden connect 6 1 15 0;#P hidden connect 24 0 11 0;#P hidden connect 25 0 6 1;#P hidden connect 6 2 25 0;#P hidden connect 26 0 25 0;#P hidden connect 20 0 17 0;#P hidden connect 21 0 19 0;#P hidden connect 0 1 5 0;#P hidden fasten 15 0 0 1 132 249 306 249 306 -17 251 -17;#P hidden connect 15 1 13 0;#P hidden connect 17 0 20 0;#P hidden connect 19 0 21 0;#P hidden connect 11 0 24 0;#P hidden connect 23 0 27 0;#P hidden connect 10 0 22 0;#P pop;