max v2;#N vpatcher 280 494 881 874;#P window setfont "Sans Serif" 9.;#P hidden newex 279 83 71 196617 prepend set 1;#P hidden newex 279 62 51 196617 route set;#P hidden message 55 145 125 196617 /documentation/generate;#P hidden newex 311 295 64 196617 jcom.out~ 2;#P objectname jmod.parameter.mxb[3];#P hidden newex 352 244 58 196617 jcom.in~ 1;#P objectname jmod.parameter.mxb[1];#P hidden newex 376 161 104 196617 jcom.message buffer;#P objectname jmod.parameter.mxb[6];#P hidden message 19 145 31 196617 /init;#P flonum 196 21 57 9 1. 0 8225 3 181 181 181 221 221 221 255 255 255 0 0 0;#P hidden newex 279 41 242 196617 jcom.parameter pan @type msg_float @ramp linear;#P objectname pan;#P flonum 210 40 40 9 0 0 8224 3 181 181 181 221 221 221 255 255 255 0 0 0;#P noclick;#P user multiSlider 120 41 91 14 0. 1. 1 2936 47 0 0 2 0 0 0;#M frgb 254 210 10;#M brgb 107 107 107;#M rgb2 127 127 127;#M rgb3 0 0 0;#M rgb4 37 52 91;#M rgb5 74 105 182;#M rgb6 112 158 18;#M rgb7 149 211 110;#M rgb8 187 9 201;#M rgb9 224 62 37;#M rgb10 7 114 128;#P comment 96 43 25 196617 pan:;#B frgb 149 149 149;#P hidden outlet 311 321 15 0;#P hidden newex 278 13 191 196617 jcom.parameter length @type msg_float;#P objectname length;#P hidden newex 20 92 198 196617 jcom.message normalize @type msg_none;#P objectname jmod.parameter.mxb[2];#P hidden newex 69 69 204 196617 jcom.parameter capture @type msg_toggle;#P objectname capture;#P hidden newex 271 272 91 196617 tap.jalg.grabloop~;#P message 20 42 52 196617 normalize;#P hidden message 271 296 14 196617 0;#P comment 110 22 128 196617 length (to capture);#B frgb 149 149 149;#P user led 5 24 17 17 0 150;#P comment 23 25 54 196617 capture;#B frgb 149 149 149;#P hidden comment 293 337 101 196617 ---signal outputs---;#P hidden comment 18 117 79 196617 command input;#P window linecount 3;#P hidden newex 4 167 295 196617 jcom.hub tap.jmod.grabloop~ @size 1U-half @module_type audio @description "sample for the duration specified by 'length' and then loop through overlapped copies of the sample.";#P hidden outlet 338 321 15 0;#P hidden inlet 352 222 15 0;#P window linecount 1;#P hidden comment 373 222 105 196617 ----signal input----;#P hidden outlet 4 216 15 0;#P hidden inlet 4 117 13 0;#P hidden newex 20 71 22 196617 b 1;#P bpatcher 0 0 256 60 0 0 jcom.gui.mxt 0;#P objectname jmod.gui.1Uh.a.stereo.mxb;#P hidden connect 2 0 7 0;#P hidden connect 25 0 7 0;#P hidden connect 29 0 7 0;#P hidden connect 7 0 3 0;#P hidden fasten 13 0 11 0 276 351 536 351 536 6 10 6;#P lcolor 1;#P hidden connect 16 0 11 0;#P hidden connect 14 0 1 0;#P hidden connect 1 0 17 0;#P hidden connect 11 0 16 0;#P hidden connect 31 0 21 0;#P hidden connect 18 0 24 0;#P hidden connect 21 0 22 0;#P lcolor 6;#P hidden connect 23 0 22 0;#P hidden fasten 27 1 15 0 381 265 276 265;#P hidden connect 15 0 13 0;#P hidden connect 24 0 18 0;#P hidden connect 21 0 23 0;#P hidden connect 23 0 30 0;#P hidden connect 30 0 31 0;#P hidden connect 15 1 28 0;#P hidden connect 28 0 19 0;#P hidden connect 28 1 6 0;#P hidden connect 5 0 27 0;#P hidden connect 27 0 15 1;#P hidden connect 15 2 28 1;#P pop;