max v2;#N vpatcher 669 293 1358 600;#P window setfont "Sans Serif" 9.;#P window linecount 1;#P hidden message 158 154 185 196617 /preset/store 1 default \, preset/write;#P hidden message 49 137 125 196617 /documentation/generate;#P hidden message 124 154 31 196617 /init;#P hidden newex 369 213 64 196617 jcom.out~ 1;#P hidden newex 369 155 58 196617 jcom.in~ 1;#P window linecount 3;#P hidden newex 269 68 319 196617 jcom.parameter thresh @ramp linear @type msg_float @repetitions 0 @description "Threshold that determines how large a jump in consecutive samples will be required before applying pop reduction.";#P objectname thresh;#P window linecount 2;#P hidden newex 269 36 397 196617 jcom.parameter response @ramp linear @type msg_float @repetitions 0 @description "How quickly does the frequency content of the signal shift internal settings.";#P objectname response;#P hidden newex 269 4 348 196617 jcom.parameter analysis_size @ramp linear @type msg_float @repetitions 0 @description "Number of samples long each analysis block will be.";#P objectname analysis_size;#P flonum 182 45 40 9 0. 0 8225 3 181 181 181 221 221 221 255 255 255 0 0 0;#P window linecount 1;#P comment 75 47 108 196617 threshold adjustment:;#B frgb 149 149 149;#P flonum 182 31 40 9 0. 0 8225 3 181 181 181 221 221 221 255 255 255 0 0 0;#P comment 130 33 53 196617 response:;#B frgb 149 149 149;#P flonum 182 17 40 9 0. 0 8225 3 181 181 181 221 221 221 255 255 255 0 0 0;#P comment 5 19 178 196617 Number of samples in analysis (size):;#B frgb 149 149 149;#P hidden comment 360 250 101 196617 ---signal outputs---;#P hidden comment 33 118 79 196617 command input;#P window linecount 2;#P hidden newex 19 186 273 196617 jcom.hub tap.jmod.anticlick~ @size 1U-half @module_type audio @description "Audio click and pop reduction.";#P hidden inlet 369 136 15 0;#P window linecount 1;#P hidden newex 369 185 140 196617 poly~ tap.jalg.anticlick~.mxt;#P hidden comment 368 120 105 196617 ----signal inputs----;#P hidden outlet 19 223 15 0;#P hidden outlet 369 234 15 0;#P hidden inlet 19 118 13 0;#P bpatcher 0 0 256 60 0 0 jcom.gui.mxt 0;#P objectname jmod.gui.1Uh.a.stereo.mxb;#P hidden connect 22 0 7 0;#P hidden connect 23 0 7 0;#P hidden connect 21 0 7 0;#P hidden connect 1 0 7 0;#P hidden connect 7 0 3 0;#P lcolor 6;#P hidden connect 16 0 11 0;#P hidden connect 17 0 13 0;#P hidden connect 18 0 15 0;#P hidden connect 11 0 16 0;#P hidden connect 13 0 17 0;#P hidden connect 15 0 18 0;#P hidden connect 6 0 19 0;#P connect 19 1 5 0;#P hidden connect 19 0 5 0;#P hidden connect 5 0 20 0;#P hidden connect 20 0 2 0;#P pop;