max v2;#N vpatcher 264 67 651 512;#P window setfont "Sans Serif" 9.;#P comment 83 33 104 196617 generate parameters;#B frgb 149 149 149;#P button 66 32 15 0;#P hidden newex 175 338 37 196617 t open;#P hidden newex 175 359 47 196617 pcontrol;#N vpatcher 256 104 533 510;#P window setfont "Sans Serif" 9.;#P flonum 168 364 40 9 0 0 8224 3 181 181 181 221 221 221 255 255 255 0 0 0;#P flonum 168 348 40 9 0 0 8224 3 181 181 181 221 221 221 255 255 255 0 0 0;#P flonum 168 331 40 9 0 0 8224 3 181 181 181 221 221 221 255 255 255 0 0 0;#P flonum 168 315 40 9 0 0 8224 3 181 181 181 221 221 221 255 255 255 0 0 0;#P flonum 125 364 40 9 0 0 8224 3 181 181 181 221 221 221 255 255 255 0 0 0;#P window linecount 1;#P comment 66 365 68 196617 pan_range:;#B frgb 149 149 149;#P flonum 125 348 40 9 0 0 8224 3 181 181 181 221 221 221 255 255 255 0 0 0;#P comment 63 349 68 196617 gain_range:;#B frgb 149 149 149;#P flonum 125 331 40 9 0 0 8224 3 181 181 181 221 221 221 255 255 255 0 0 0;#P comment 63 332 68 196617 shift_range:;#B frgb 149 149 149;#P flonum 125 315 40 9 0 0 8224 3 181 181 181 221 221 221 255 255 255 0 0 0;#P comment 60 316 68 196617 delay_range:;#B frgb 149 149 149;#P window setfont "Sans Serif" 18.;#P comment 19 320 20 196626 4;#B frgb 149 149 149;#P window setfont "Sans Serif" 9.;#P window linecount 2;#P hidden newex 357 531 339 196617 jcom.parameter 4/pan/max @type msg_float @description "Set the range of the for the generated parameter values used by this delay unit.";#P objectname 4/pan/max;#P hidden newex 357 498 339 196617 jcom.parameter 4/pan/min @type msg_float @description "Set the range of the for the generated parameter values used by this delay unit.";#P objectname 4/pan/min;#P hidden newex 11 531 339 196617 jcom.parameter 4/gain/max @type msg_float @description "Set the range of the for the generated parameter values used by this delay unit.";#P objectname 4/gain/max;#P hidden newex 11 498 339 196617 jcom.parameter 4/gain/min @type msg_float @description "Set the range of the for the generated parameter values used by this delay unit.";#P objectname 4/gain/min;#P hidden newex 357 466 339 196617 jcom.parameter 4/shift/max @type msg_float @description "Set the range of the for the generated parameter values used by this delay unit.";#P objectname 4/shift/max;#P hidden newex 357 433 339 196617 jcom.parameter 4/shift/min @type msg_float @description "Set the range of the for the generated parameter values used by this delay unit.";#P objectname 4/shift/min;#P hidden newex 11 466 339 196617 jcom.parameter 4/delay/max @type msg_float @description "Set the range of the for the generated parameter values used by this delay unit.";#P objectname 4/delay/max;#P hidden newex 11 433 339 196617 jcom.parameter 4/delay/min @type msg_float @description "Set the range of the for the generated parameter values used by this delay unit.";#P objectname 4/delay/min;#P user panel 4 309 255 75;#X brgb 46 46 46;#X frgb 0 0 0;#X border 0;#X rounded 7;#X shadow 0;#X done;#P flonum 168 284 40 9 0 0 8224 3 181 181 181 221 221 221 255 255 255 0 0 0;#P flonum 168 268 40 9 0 0 8224 3 181 181 181 221 221 221 255 255 255 0 0 0;#P flonum 168 251 40 9 0 0 8224 3 181 181 181 221 221 221 255 255 255 0 0 0;#P flonum 168 235 40 9 0 0 8224 3 181 181 181 221 221 221 255 255 255 0 0 0;#P flonum 125 284 40 9 0 0 8224 3 181 181 181 221 221 221 255 255 255 0 0 0;#P window linecount 1;#P comment 66 285 68 196617 pan_range:;#B frgb 149 149 149;#P flonum 125 268 40 9 0 0 8224 3 181 181 181 221 221 221 255 255 255 0 0 0;#P comment 63 269 68 196617 gain_range:;#B frgb 149 149 149;#P flonum 125 251 40 9 0 0 8224 3 181 181 181 221 221 221 255 255 255 0 0 0;#P comment 63 252 68 196617 shift_range:;#B frgb 149 149 149;#P flonum 125 235 40 9 0 0 8224 3 181 181 181 221 221 221 255 255 255 0 0 0;#P comment 60 236 68 196617 delay_range:;#B frgb 149 149 149;#P window setfont "Sans Serif" 18.;#P comment 19 240 20 196626 3;#B frgb 149 149 149;#P window setfont "Sans Serif" 9.;#P window linecount 2;#P hidden newex 647 390 339 196617 jcom.parameter 3/pan/max @type msg_float @description "Set the range of the for the generated parameter values used by this delay unit.";#P objectname 3/pan/max;#P hidden newex 647 357 339 196617 jcom.parameter 3/pan/min @type msg_float @description "Set the range of the for the generated parameter values used by this delay unit.";#P objectname 3/pan/min;#P hidden newex 301 390 339 196617 jcom.parameter 3/gain/max @type msg_float @description "Set the range of the for the generated parameter values used by this delay unit.";#P objectname 3/gain/max;#P hidden newex 301 357 339 196617 jcom.parameter 3/gain/min @type msg_float @description "Set the range of the for the generated parameter values used by this delay unit.";#P objectname 3/gain/min;#P hidden newex 647 325 339 196617 jcom.parameter 3/shift/max @type msg_float @description "Set the range of the for the generated parameter values used by this delay unit.";#P objectname 3/shift/max;#P hidden newex 647 292 339 196617 jcom.parameter 3/shift/min @type msg_float @description "Set the range of the for the generated parameter values used by this delay unit.";#P objectname 3/shift/min;#P hidden newex 301 325 339 196617 jcom.parameter 3/delay/max @type msg_float @description "Set the range of the for the generated parameter values used by this delay unit.";#P objectname 3/delay/max;#P hidden newex 301 292 339 196617 jcom.parameter 3/delay/min @type msg_float @description "Set the range of the for the generated parameter values used by this delay unit.";#P objectname 3/delay/min;#P user panel 4 229 255 75;#X brgb 46 46 46;#X frgb 0 0 0;#X border 0;#X rounded 7;#X shadow 0;#X done;#P flonum 168 204 40 9 0 0 8224 3 181 181 181 221 221 221 255 255 255 0 0 0;#P flonum 168 188 40 9 0 0 8224 3 181 181 181 221 221 221 255 255 255 0 0 0;#P flonum 168 171 40 9 0 0 8224 3 181 181 181 221 221 221 255 255 255 0 0 0;#P flonum 168 155 40 9 0 0 8224 3 181 181 181 221 221 221 255 255 255 0 0 0;#P flonum 125 204 40 9 0 0 8224 3 181 181 181 221 221 221 255 255 255 0 0 0;#P window linecount 1;#P comment 66 205 68 196617 pan_range:;#B frgb 149 149 149;#P flonum 125 188 40 9 0 0 8224 3 181 181 181 221 221 221 255 255 255 0 0 0;#P comment 63 189 68 196617 gain_range:;#B frgb 149 149 149;#P flonum 125 171 40 9 0 0 8224 3 181 181 181 221 221 221 255 255 255 0 0 0;#P comment 63 172 68 196617 shift_range:;#B frgb 149 149 149;#P flonum 125 155 40 9 0 0 8224 3 181 181 181 221 221 221 255 255 255 0 0 0;#P comment 60 156 68 196617 delay_range:;#B frgb 149 149 149;#P window setfont "Sans Serif" 18.;#P comment 19 160 20 196626 2;#B frgb 149 149 149;#P window setfont "Sans Serif" 9.;#P window linecount 2;#P hidden newex 647 249 339 196617 jcom.parameter 2/pan/max @type msg_float @description "Set the range of the for the generated parameter values used by this delay unit.";#P objectname 2/pan/max;#P hidden newex 647 216 339 196617 jcom.parameter 2/pan/min @type msg_float @description "Set the range of the for the generated parameter values used by this delay unit.";#P objectname 2/pan/min;#P hidden newex 301 249 339 196617 jcom.parameter 2/gain/max @type msg_float @description "Set the range of the for the generated parameter values used by this delay unit.";#P objectname 2/gain/max;#P hidden newex 301 216 339 196617 jcom.parameter 2/gain/min @type msg_float @description "Set the range of the for the generated parameter values used by this delay unit.";#P objectname 2/gain/min;#P hidden newex 647 184 339 196617 jcom.parameter 2/shift/max @type msg_float @description "Set the range of the for the generated parameter values used by this delay unit.";#P objectname 2/shift/max;#P hidden newex 647 151 339 196617 jcom.parameter 2/shift/min @type msg_float @description "Set the range of the for the generated parameter values used by this delay unit.";#P objectname 2/shift/min;#P hidden newex 301 184 339 196617 jcom.parameter 2/delay/max @type msg_float @description "Set the range of the for the generated parameter values used by this delay unit.";#P objectname 2/delay/max;#P hidden newex 301 151 339 196617 jcom.parameter 2/delay/min @type msg_float @description "Set the range of the for the generated parameter values used by this delay unit.";#P objectname 2/delay/min;#P user panel 4 149 255 75;#X brgb 46 46 46;#X frgb 0 0 0;#X border 0;#X rounded 7;#X shadow 0;#X done;#P flonum 168 124 40 9 0 0 8224 3 181 181 181 221 221 221 255 255 255 0 0 0;#P flonum 168 108 40 9 0 0 8224 3 181 181 181 221 221 221 255 255 255 0 0 0;#P flonum 168 91 40 9 0 0 8224 3 181 181 181 221 221 221 255 255 255 0 0 0;#P flonum 168 75 40 9 0 0 8224 3 181 181 181 221 221 221 255 255 255 0 0 0;#P flonum 125 124 40 9 0 0 8224 3 181 181 181 221 221 221 255 255 255 0 0 0;#P window linecount 1;#P comment 66 125 68 196617 pan_range:;#B frgb 149 149 149;#P flonum 125 108 40 9 0 0 8224 3 181 181 181 221 221 221 255 255 255 0 0 0;#P comment 63 109 68 196617 gain_range:;#B frgb 149 149 149;#P flonum 125 91 40 9 0 0 8224 3 181 181 181 221 221 221 255 255 255 0 0 0;#P comment 63 92 68 196617 shift_range:;#B frgb 149 149 149;#P flonum 125 75 40 9 0 0 8224 3 181 181 181 221 221 221 255 255 255 0 0 0;#P comment 60 76 68 196617 delay_range:;#B frgb 149 149 149;#P window setfont "Sans Serif" 18.;#P comment 19 80 20 196626 1;#B frgb 149 149 149;#P hidden inlet 230 30 15 0;#P window setfont "Sans Serif" 9.;#P comment 19 43 130 196617 inspector;#B frgb 149 149 149;#P hidden newex 190 8 88 196617 bgcolor 35 35 35;#P window setfont "Sans Serif" 18.;#P comment 19 16 221 196626 tap.jmod.procrastinate~;#B frgb 149 149 149;#P user panel 4 5 255 60;#X brgb 46 46 46;#X frgb 0 0 0;#X border 0;#X rounded 7;#X shadow 0;#X done;#P window setfont "Sans Serif" 9.;#P window linecount 2;#P hidden newex 647 109 339 196617 jcom.parameter 1/pan/max @type msg_float @description "Set the range of the for the generated parameter values used by this delay unit.";#P objectname 1/pan/max;#P hidden newex 647 76 339 196617 jcom.parameter 1/pan/min @type msg_float @description "Set the range of the for the generated parameter values used by this delay unit.";#P objectname 1/pan/min;#P hidden newex 301 109 339 196617 jcom.parameter 1/gain/max @type msg_float @description "Set the range of the for the generated parameter values used by this delay unit.";#P objectname 1/gain/max;#P hidden newex 301 76 339 196617 jcom.parameter 1/gain/min @type msg_float @description "Set the range of the for the generated parameter values used by this delay unit.";#P objectname 1/gain/min;#P hidden newex 647 44 339 196617 jcom.parameter 1/shift/max @type msg_float @description "Set the range of the for the generated parameter values used by this delay unit.";#P objectname 1/shift/max;#P hidden newex 647 11 339 196617 jcom.parameter 1/shift/min @type msg_float @description "Set the range of the for the generated parameter values used by this delay unit.";#P objectname 1/shift/min;#P hidden newex 301 44 339 196617 jcom.parameter 1/delay/max @type msg_float @description "Set the range of the for the generated parameter values used by this delay unit.";#P objectname 1/delay/max;#P hidden newex 301 11 339 196617 jcom.parameter 1/delay/min @type msg_float @description "Set the range of the for the generated parameter values used by this delay unit.";#P objectname 1/delay/min;#P user panel 4 69 255 75;#X brgb 46 46 46;#X frgb 0 0 0;#X border 0;#X rounded 7;#X shadow 0;#X done;#P hidden connect 82 0 72 0;#P hidden connect 89 0 73 0;#P hidden connect 86 0 76 0;#P hidden connect 91 0 77 0;#P hidden connect 1 0 16 0;#P hidden connect 3 0 18 0;#P hidden connect 5 0 20 0;#P hidden connect 7 0 22 0;#P hidden connect 28 0 38 0;#P hidden connect 30 0 40 0;#P hidden connect 32 0 42 0;#P hidden connect 34 0 44 0;#P hidden connect 50 0 60 0;#P hidden connect 52 0 62 0;#P hidden connect 54 0 64 0;#P hidden connect 56 0 66 0;#P hidden connect 72 0 82 0;#P hidden connect 74 0 84 0;#P hidden connect 76 0 86 0;#P hidden connect 78 0 88 0;#P hidden connect 2 0 23 0;#P hidden connect 4 0 24 0;#P hidden connect 6 0 25 0;#P hidden connect 8 0 26 0;#P hidden connect 29 0 45 0;#P hidden connect 31 0 46 0;#P hidden connect 33 0 47 0;#P hidden connect 35 0 48 0;#P hidden connect 51 0 67 0;#P hidden connect 53 0 68 0;#P hidden connect 55 0 69 0;#P hidden connect 57 0 70 0;#P hidden connect 73 0 89 0;#P hidden connect 75 0 90 0;#P hidden connect 77 0 91 0;#P hidden connect 79 0 92 0;#P hidden connect 16 0 1 0;#P hidden connect 23 0 2 0;#P hidden connect 20 0 5 0;#P hidden connect 25 0 6 0;#P hidden connect 38 0 28 0;#P hidden connect 45 0 29 0;#P hidden connect 42 0 32 0;#P hidden connect 47 0 33 0;#P hidden connect 60 0 50 0;#P hidden connect 67 0 51 0;#P hidden connect 64 0 54 0;#P hidden connect 69 0 55 0;#P hidden connect 84 0 74 0;#P hidden connect 90 0 75 0;#P hidden connect 88 0 78 0;#P hidden connect 92 0 79 0;#P hidden connect 18 0 3 0;#P hidden connect 24 0 4 0;#P hidden connect 22 0 7 0;#P hidden connect 26 0 8 0;#P hidden connect 40 0 30 0;#P hidden connect 46 0 31 0;#P hidden connect 44 0 34 0;#P hidden connect 48 0 35 0;#P hidden connect 62 0 52 0;#P hidden connect 68 0 53 0;#P hidden connect 66 0 56 0;#P hidden connect 70 0 57 0;#P pop;#P hidden newobj 175 380 176 196617 p "tap.jmod.procrastinate inspector";#P objectname "tap.jmod.procrastinate inspector";#P hidden newex 59 297 100 196617 sel /open_inspector;#P hidden newex 35 338 119 196617 tap.procrastinate~;#P hidden newex 35 364 64 196617 jcom.out~ 2;#P hidden newex 35 276 58 196617 jcom.in~ 1;#P hidden message 135 170 185 196617 /preset/store 1 default \, preset/write;#P hidden message 33 150 125 196617 /documentation/generate;#P hidden message 101 170 31 196617 /init;#P window linecount 3;#P hidden newex 20 72 298 196617 jcom.message generate_parameters @type msg_none @description "Generates new\\\, random\\\, parameters for all delay settings based on the ranges specified in the rules below.";#P objectname jmod.parameter.mxb;#P window linecount 2;#P hidden newex 8 201 341 196617 jcom.hub tap.jmod.procrastinate @size 1U-half @module_type audio @description "Idiosyncratic cascaded pitch-shifting delays" @inspector 1;#P hidden outlet 35 390 15 0;#P window linecount 1;#P hidden comment 35 407 101 196617 ---signal outputs---;#P hidden comment 22 134 79 196617 command input;#P hidden inlet 35 257 15 0;#P hidden outlet 8 237 15 0;#P hidden outlet 62 390 15 0;#P hidden inlet 8 134 13 0;#P bpatcher 0 0 256 60 0 0 jcom.gui.mxt 0;#P objectname jmod.gui.1Uh.a.stereo.mxb;#P hidden connect 1 0 8 0;#P hidden connect 11 0 8 0;#P hidden connect 10 0 8 0;#P hidden connect 12 0 8 0;#P hidden connect 8 0 3 0;#P lcolor 6;#P hidden connect 20 0 9 0;#P hidden connect 4 0 13 0;#P hidden connect 13 0 15 0;#P hidden connect 16 1 15 0;#P hidden connect 15 0 14 0;#P hidden connect 14 0 7 0;#P hidden connect 13 1 16 0;#P hidden connect 14 1 2 0;#P hidden connect 15 1 14 1;#P hidden fasten 16 0 19 0 64 324 180 324;#P hidden connect 19 0 18 0;#P hidden connect 18 0 17 0;#P pop;