max v2;#N vpatcher 661 136 1350 843;#P window setfont "Sans Serif" 9.;#P hidden message 233 366 140 196617 /preset/store 12 RacketBall;#P hidden message 219 348 140 196617 /preset/store 11 OnTheRoof;#P hidden message 205 330 118 196617 /preset/store 10 Spoof;#P hidden message 191 312 107 196617 /preset/store 9 Goof;#P hidden message 177 294 129 196617 /preset/store 8 Inversion;#P hidden message 163 276 171 196617 /preset/store 7 InvertedDownShift;#P hidden message 149 258 140 196617 /preset/store 6 Uncertainty;#P hidden message 135 240 149 196617 /preset/store 5 WayWayDown;#P hidden message 121 222 120 196617 /preset/store 4 UpShift;#P hidden message 107 204 131 196617 /preset/store 3 Expansion;#P hidden message 93 186 144 196617 /preset/store 2 Compression;#P hidden message 200 400 70 196617 preset/write;#P hidden message 79 169 118 196617 /preset/store 1 default;#P hidden message 44 132 125 196617 /documentation/generate;#P hidden message 10 132 31 196617 /init;#P hidden newex 393 584 64 196617 jcom.out~ 2;#P hidden newex 393 504 83 196617 jcom.in~ 2;#P window linecount 6;#P hidden newex 272 245 399 196617 jcom.parameter destHigh @ramp linear @description "The spectral_warp takes an FFT and then scales the numbers that are used for the FFT bin and reassociates the spectral data with the new bin numbers. Thus the parameters are the range of the original bin numbers (srcLow and srcHigh) which are scaled to the range if the destination bin numbers (destLow and destHigh). The mathematical relationship of the scale actually extends beyond these ranges as long as there is data present to remap.";#P objectname destHigh;#P hidden newex 272 165 399 196617 jcom.parameter destLow @ramp linear @description "The spectral_warp takes an FFT and then scales the numbers that are used for the FFT bin and reassociates the spectral data with the new bin numbers. Thus the parameters are the range of the original bin numbers (srcLow and srcHigh) which are scaled to the range if the destination bin numbers (destLow and destHigh). The mathematical relationship of the scale actually extends beyond these ranges as long as there is data present to remap.";#P objectname destLow;#P hidden newex 272 85 399 196617 jcom.parameter srcHigh @ramp linear @description "The spectral_warp takes an FFT and then scales the numbers that are used for the FFT bin and reassociates the spectral data with the new bin numbers. Thus the parameters are the range of the original bin numbers (srcLow and srcHigh) which are scaled to the range if the destination bin numbers (destLow and destHigh). The mathematical relationship of the scale actually extends beyond these ranges as long as there is data present to remap.";#P objectname srcHigh;#P hidden newex 272 5 399 196617 jcom.parameter srcLow @ramp linear @description "The spectral_warp takes an FFT and then scales the numbers that are used for the FFT bin and reassociates the spectral data with the new bin numbers. Thus the parameters are the range of the original bin numbers (srcLow and srcHigh) which are scaled to the range if the destination bin numbers (destLow and destHigh). The mathematical relationship of the scale actually extends beyond these ranges as long as there is data present to remap.";#P objectname srcLow;#P flonum 180 40 40 9 0 0 8224 3 181 181 181 221 221 221 255 255 255 0 0 0;#P flonum 180 22 40 9 0 0 8224 3 181 181 181 221 221 221 255 255 255 0 0 0;#P flonum 66 41 40 9 0 0 8224 3 181 181 181 221 221 221 255 255 255 0 0 0;#P flonum 66 22 40 9 0 0 8224 3 181 181 181 221 221 221 255 255 255 0 0 0;#P window linecount 1;#P comment 134 43 48 196617 destHigh:;#B frgb 149 149 149;#P comment 135 23 55 196617 destLow:;#B frgb 149 149 149;#P comment 23 43 50 196617 srcHigh:;#B frgb 149 149 149;#P comment 24 23 48 196617 srcLow:;#B frgb 149 149 149;#P hidden comment 393 626 101 196617 ---signal outputs---;#P hidden comment 16 111 79 196617 command input;#P window linecount 2;#P hidden newex 2 429 258 196617 jcom.hub tap.jmod.warp~ @size 1U-half @module_type audio @description "Idiosyncratic spectral mangling.";#P hidden outlet 466 610 15 0;#P hidden inlet 393 479 15 0;#P window linecount 3;#P hidden newex 393 535 73 196617 poly~ tap.jalg.warp~ 1;#P window linecount 1;#P hidden comment 393 465 105 196617 ----signal inputs----;#P hidden outlet 2 464 15 0;#P hidden inlet 466 478 15 0;#P hidden outlet 393 610 15 0;#P hidden inlet 2 111 13 0;#P bpatcher 0 0 256 60 0 0 jcom.gui.mxt 0;#P objectname jmod.gui.1Uh.a.stereo.mxb;#P hidden connect 40 0 9 0;#P hidden connect 39 0 9 0;#P hidden connect 38 0 9 0;#P hidden connect 37 0 9 0;#P hidden connect 36 0 9 0;#P hidden connect 35 0 9 0;#P hidden connect 34 0 9 0;#P hidden connect 33 0 9 0;#P hidden connect 32 0 9 0;#P hidden connect 31 0 9 0;#P hidden connect 30 0 9 0;#P hidden connect 28 0 9 0;#P hidden connect 29 0 9 0;#P hidden connect 27 0 9 0;#P hidden connect 26 0 9 0;#P hidden connect 1 0 9 0;#P hidden connect 9 0 4 0;#P hidden connect 20 0 16 0;#P hidden connect 21 0 17 0;#P hidden connect 22 0 18 0;#P hidden connect 23 0 19 0;#P hidden connect 16 0 20 0;#P hidden connect 17 0 21 0;#P hidden connect 18 0 22 0;#P hidden connect 19 0 23 0;#P hidden connect 7 0 24 0;#P hidden connect 24 0 6 0;#P hidden connect 24 2 6 0;#P hidden connect 6 0 25 0;#P hidden connect 25 0 2 0;#P hidden connect 6 1 25 1;#P hidden connect 24 1 6 1;#P hidden connect 3 0 24 1;#P hidden connect 25 1 8 0;#P pop;