max v2;#N vpatcher 316 255 917 635;#P window setfont "Sans Serif" 9.;#P hidden newex 344 172 125 196617 jmod.message $0_ buffer;#P objectname jmod.parameter.mxb[6];#P hidden message 37 315 51 196617 \; bng bang;#P hidden message 196 146 74 196617 store 1 \, write;#P hidden newex 196 167 65 196617 pattrstorage;#X client_rect 10 59 650 299;#X storage_rect 0 0 640 240;#P objectname sustainMS;#P flonum 85 35 57 9 1. 0 8225 3 198 198 198 221 221 221 222 222 222 0 0 0;#P hidden newex 325 137 199 196617 jmod.parameter $0_ pan @ramp_enable 1;#P objectname jmod.parameter.mxb;#P flonum 215 44 40 9 0 0 8224 3 198 198 198 221 221 221 222 222 222 0 0 0;#P noclick;#P user multiSlider 125 45 91 14 0. 1. 1 2936 47 0 0 2 0 0 0;#M frgb 254 210 10;#M brgb 107 107 107;#M rgb2 127 127 127;#M rgb3 0 0 0;#M rgb4 37 52 91;#M rgb5 74 105 182;#M rgb6 112 158 18;#M rgb7 149 211 110;#M rgb8 187 9 201;#M rgb9 224 62 37;#M rgb10 7 114 128;#P comment 101 47 25 196617 pan:;#B frgb 172 172 172;#P hidden outlet 188 84 15 0;#P hidden newex 325 47 134 196617 jmod.parameter $0_ length;#P objectname jmod.parameter.mxb[1];#P hidden newex 355 78 141 196617 jmod.message $0_ normalize;#P objectname jmod.parameter.mxb[2];#P hidden newex 324 104 140 196617 jmod.parameter $0_ capture;#P objectname jmod.parameter.mxb[3];#P hidden newex 324 25 146 196617 jmod.parameter $0_ target;#P objectname jmod.parameter.mxb[4];#P hidden newex 326 2 247 196617 jmod.parameter $0_ voices @special RestartDSP;#P objectname jmod.parameter.mxb[5];#P number 219 30 35 9 1 16 8227 3 198 198 198 221 221 221 222 222 222 0 0 0;#P comment 152 32 95 196617 Target Voice:;#B frgb 172 172 172;#P number 219 17 35 9 1 16 8227 3 198 198 198 221 221 221 222 222 222 0 0 0;#P comment 131 19 95 196617 Number of Voices:;#B frgb 172 172 172;#P hidden newex 132 210 145 196617 poly~ sustainMS.lib args 1000;#P message 67 19 52 196617 normalize;#P hidden message 266 230 14 196617 0;#P comment -1 36 128 196617 length (to capture);#B frgb 172 172 172;#P user led 3 20 17 17 0 150;#P comment 21 21 54 196617 capture;#B frgb 172 172 172;#P hidden comment 168 100 101 196617 ---signal outputs---;#P hidden comment 18 142 79 196617 command input;#P hidden newex 4 167 185 196617 jmod.hub $0_ sustainMS @size 1U-half;#P hidden outlet 237 84 15 0;#P hidden inlet 22 -26 15 0;#P hidden comment 43 -26 105 196617 ----signal input----;#P hidden outlet 4 216 15 0;#P hidden inlet 4 142 13 0;#P bpatcher 0 0 256 60 0 0 jmod.gui.1Uh.a.stereo.mxb 0 $0_;#P objectname jmod.gui.1Uh.a.stereo.mxb;#P hidden newex 328 78 22 196617 b 1;#P hidden connect 5 0 1 0;#P hidden connect 22 0 11 0;#P hidden fasten 13 0 11 0 271 258 536 258 536 20 8 20;#P lcolor 1;#P hidden connect 2 0 7 0;#P hidden connect 7 0 3 0;#P hidden connect 0 0 14 0;#P hidden connect 24 0 30 0;#P hidden connect 29 0 27 0;#P hidden connect 7 1 15 0;#P hidden connect 14 0 15 0;#P hidden fasten 15 0 1 2 137 284 306 284 306 -23 169 -23;#P hidden connect 31 0 7 1;#P hidden connect 1 2 25 0;#P hidden connect 7 2 31 0;#P hidden connect 32 0 31 0;#P hidden connect 27 0 28 0;#P lcolor 6;#P hidden connect 20 0 17 0;#P hidden connect 21 0 19 0;#P hidden connect 1 3 6 0;#P hidden fasten 15 1 1 3 204 275 301 275 301 -15 251 -15;#P hidden connect 15 2 13 0;#P hidden connect 19 0 21 0;#P hidden connect 11 0 22 0;#P hidden connect 30 0 24 0;#P hidden connect 27 0 29 0;#P hidden connect 17 0 20 0;#P hidden connect 23 0 0 0;#P pop;