max v2;#N vpatcher 387 256 1247 714;#P window setfont "Sans Serif" 9.;#P window linecount 1;#P hidden newex 274 299 47 196617 pcontrol;#P hidden newex 255 274 143 196617 jcom.algorithm_control~.mxt;#P hidden outlet 169 378 15 0;#P hidden outlet 141 378 15 0;#P hidden inlet 312 227 15 0;#P hidden inlet 141 227 15 0;#P hidden newex 141 351 67 196617 jcom.out~ 2;#P hidden newex 141 253 181 196617 jcom.in~ 2;#P window linecount 3;#P hidden newex 439 232 303 196617 jcom.message window @type msg_int @ramp linear @repetitions 0 @range 1 250 @clipmode both @description "Length of the internal buffers in milliseconds to apply to both channels.";#P objectname jmod.parameter[5];#P window linecount 1;#P hidden newex 439 372 99 196617 pvar right.window;#P window linecount 2;#P hidden newex 439 394 385 196617 jcom.parameter window/right @type msg_int @ramp linear @repetitions 0 @range 1 250 @clipmode both @description "Length of internal buffers in milliseconds.";#P objectname window/right;#P window linecount 1;#P comment 142 41 65 196617 Window (ms);#B frgb 149 149 149;#P number 213 41 35 9 0 0 8224 3 181 181 181 221 221 221 255 255 255 0 0 0;#P objectname right.window;#P window linecount 3;#P hidden newex 439 11 314 196617 jcom.message shift @type msg_float @ramp linear @repetitions 0 @range -48. 48. @clipmode none @description "The amount of pitch shift in semitones to apply tp both the left and right channels.";#P objectname jmod.parameter[3];#P window linecount 1;#P hidden newex 439 79 80 196617 pvar left.shift;#P window linecount 2;#P hidden newex 439 101 375 196617 jcom.parameter shift/left @type msg_float @ramp linear @repetitions 0 @range -48. 48. @clipmode none @description "The amount of pitch shift in semitones.";#P objectname shift/left;#P flonum 210 21 40 9 0 0 8224 3 181 181 181 221 221 221 255 255 255 0 0 0;#P objectname right.shift;#P window linecount 1;#P comment 130 22 80 196617 Shift Right;#B frgb 149 149 149;#P hidden message 121 119 125 196617 /documentation/generate;#P hidden newex 439 304 95 196617 pvar left.window;#P hidden newex 439 149 84 196617 pvar right.shift;#P window linecount 2;#P hidden newex 8 146 270 196617 jcom.hub tap.jmod.harmonizer~ @size 1U-half @module_type audio @description "Stereo pitch shifter.";#P objectname jmod.hub;#P window linecount 1;#P hidden comment 22 120 79 196617 command input;#P hidden inlet 8 120 13 0;#P hidden message 248 119 31 196617 /init;#P flonum 81 21 40 9 0 0 8224 3 181 181 181 221 221 221 255 255 255 0 0 0;#P objectname left.shift;#P window linecount 2;#P hidden newex 439 171 381 196617 jcom.parameter shift/right @type msg_float @ramp linear @repetitions 0 @range -48. 48. @clipmode none @description "The amount of pitch shift in semitones.";#P objectname shift/right;#P hidden newex 439 326 379 196617 jcom.parameter window/left @type msg_int @ramp linear @repetitions 0 @range 1 250 @clipmode both @description "Length of internal buffers in milliseconds.";#P objectname window/left;#P window linecount 1;#P comment 12 41 65 196617 Window (ms);#B frgb 149 149 149;#P number 83 41 35 9 0 0 8224 3 181 181 181 221 221 221 255 255 255 0 0 0;#P objectname left.window;#P comment 5 22 74 196617 Shift Left;#B frgb 149 149 149;#P hidden newex 84 327 125 196617 tap.jalg.harmonizer~.mxt;#P objectname tap.harmonizer~.mod;#P hidden outlet 8 214 13 0;#P bpatcher 0 0 256 60 0 0 jcom.gui.mxt 0;#P objectname jmod.gui.1Uh.a.stereo.mxt;#P hidden fasten 9 0 12 0 253 137 13 137;#P hidden fasten 15 0 12 0 126 135 13 135;#P hidden connect 10 0 12 0;#P hidden connect 12 0 1 0;#P lcolor 6;#P hidden fasten 32 0 2 0 260 319 89 319;#P hidden fasten 33 0 2 0 279 321 89 321;#P hidden connect 28 0 26 0;#P hidden connect 26 0 2 1;#P hidden connect 2 1 27 0;#P hidden connect 27 0 30 0;#P hidden connect 27 1 31 0;#P hidden connect 26 1 2 2;#P hidden connect 2 2 27 1;#P hidden connect 26 2 32 0;#P hidden fasten 32 1 33 0 393 295 279 295;#P hidden connect 29 0 26 1;#P hidden connect 20 1 19 0;#P hidden fasten 18 0 19 0 444 136 434 136 434 73 444 73;#P hidden connect 19 0 18 0;#P hidden fasten 7 0 13 0 444 208 434 208 434 144 444 144;#P hidden connect 20 1 13 0;#P hidden connect 13 0 7 0;#P hidden connect 25 1 14 0;#P hidden fasten 6 0 14 0 444 359 434 359 434 300 444 300;#P hidden connect 14 0 6 0;#P hidden fasten 23 0 24 0 444 427 434 427 434 368 444 368;#P hidden connect 25 1 24 0;#P hidden connect 24 0 23 0;#P pop;