max v2;#N vpatcher 37 44 1440 897;#P window setfont "Sans Serif" 9.;#P window linecount 2;#P hidden newex 734 1046 339 196617 jcom.parameter 4/pan/max @type msg_float @description "Set the range of the for the generated parameter values used by this delay unit.";#P objectname 4/pan/max;#P hidden newex 734 1013 339 196617 jcom.parameter 4/pan/min @type msg_float @description "Set the range of the for the generated parameter values used by this delay unit.";#P objectname 4/pan/min;#P hidden newex 734 980 339 196617 jcom.parameter 4/gain/max @type msg_float @description "Set the range of the for the generated parameter values used by this delay unit.";#P objectname 4/gain/max;#P hidden newex 734 947 339 196617 jcom.parameter 4/gain/min @type msg_float @description "Set the range of the for the generated parameter values used by this delay unit.";#P objectname 4/gain/min;#P hidden newex 734 914 339 196617 jcom.parameter 4/shift/max @type msg_float @description "Set the range of the for the generated parameter values used by this delay unit.";#P objectname 4/shift/max;#P hidden newex 734 881 339 196617 jcom.parameter 4/shift/min @type msg_float @description "Set the range of the for the generated parameter values used by this delay unit.";#P objectname 4/shift/min;#P hidden newex 734 848 339 196617 jcom.parameter 4/delay/max @type msg_float @description "Set the range of the for the generated parameter values used by this delay unit.";#P objectname 4/delay/max;#P hidden newex 734 815 339 196617 jcom.parameter 4/delay/min @type msg_float @description "Set the range of the for the generated parameter values used by this delay unit.";#P objectname 4/delay/min;#P hidden newex 734 778 339 196617 jcom.parameter 3/pan/max @type msg_float @description "Set the range of the for the generated parameter values used by this delay unit.";#P objectname 3/pan/max;#P hidden newex 734 745 339 196617 jcom.parameter 3/pan/min @type msg_float @description "Set the range of the for the generated parameter values used by this delay unit.";#P objectname 3/pan/min;#P hidden newex 734 712 339 196617 jcom.parameter 3/gain/max @type msg_float @description "Set the range of the for the generated parameter values used by this delay unit.";#P objectname 3/gain/max;#P hidden newex 734 679 339 196617 jcom.parameter 3/gain/min @type msg_float @description "Set the range of the for the generated parameter values used by this delay unit.";#P objectname 3/gain/min;#P hidden newex 734 646 339 196617 jcom.parameter 3/shift/max @type msg_float @description "Set the range of the for the generated parameter values used by this delay unit.";#P objectname 3/shift/max;#P hidden newex 734 613 339 196617 jcom.parameter 3/shift/min @type msg_float @description "Set the range of the for the generated parameter values used by this delay unit.";#P objectname 3/shift/min;#P hidden newex 734 580 339 196617 jcom.parameter 3/delay/max @type msg_float @description "Set the range of the for the generated parameter values used by this delay unit.";#P objectname 3/delay/max;#P hidden newex 734 547 339 196617 jcom.parameter 3/delay/min @type msg_float @description "Set the range of the for the generated parameter values used by this delay unit.";#P objectname 3/delay/min;#P hidden newex 735 509 339 196617 jcom.parameter 2/pan/max @type msg_float @description "Set the range of the for the generated parameter values used by this delay unit.";#P objectname 2/pan/max;#P hidden newex 735 476 339 196617 jcom.parameter 2/pan/min @type msg_float @description "Set the range of the for the generated parameter values used by this delay unit.";#P objectname 2/pan/min;#P hidden newex 735 443 339 196617 jcom.parameter 2/gain/max @type msg_float @description "Set the range of the for the generated parameter values used by this delay unit.";#P objectname 2/gain/max;#P hidden newex 735 410 339 196617 jcom.parameter 2/gain/min @type msg_float @description "Set the range of the for the generated parameter values used by this delay unit.";#P objectname 2/gain/min;#P hidden newex 735 377 339 196617 jcom.parameter 2/shift/max @type msg_float @description "Set the range of the for the generated parameter values used by this delay unit.";#P objectname 2/shift/max;#P hidden newex 735 344 339 196617 jcom.parameter 2/shift/min @type msg_float @description "Set the range of the for the generated parameter values used by this delay unit.";#P objectname 2/shift/min;#P hidden newex 735 311 339 196617 jcom.parameter 2/delay/max @type msg_float @description "Set the range of the for the generated parameter values used by this delay unit.";#P objectname 2/delay/max;#P hidden newex 735 278 339 196617 jcom.parameter 2/delay/min @type msg_float @description "Set the range of the for the generated parameter values used by this delay unit.";#P objectname 2/delay/min;#P hidden newex 735 240 339 196617 jcom.parameter 1/pan/max @type msg_float @description "Set the range of the for the generated parameter values used by this delay unit.";#P objectname 1/pan/max;#P hidden newex 735 207 339 196617 jcom.parameter 1/pan/min @type msg_float @description "Set the range of the for the generated parameter values used by this delay unit.";#P objectname 1/pan/min;#P hidden newex 735 174 339 196617 jcom.parameter 1/gain/max @type msg_float @description "Set the range of the for the generated parameter values used by this delay unit.";#P objectname 1/gain/max;#P hidden newex 735 141 339 196617 jcom.parameter 1/gain/min @type msg_float @description "Set the range of the for the generated parameter values used by this delay unit.";#P objectname 1/gain/min;#P hidden newex 735 108 339 196617 jcom.parameter 1/shift/max @type msg_float @description "Set the range of the for the generated parameter values used by this delay unit.";#P objectname 1/shift/max;#P hidden newex 735 75 339 196617 jcom.parameter 1/shift/min @type msg_float @description "Set the range of the for the generated parameter values used by this delay unit.";#P objectname 1/shift/min;#P hidden newex 735 42 339 196617 jcom.parameter 1/delay/max @type msg_float @description "Set the range of the for the generated parameter values used by this delay unit.";#P objectname 1/delay/max;#P hidden newex 735 9 339 196617 jcom.parameter 1/delay/min @type msg_float @description "Set the range of the for the generated parameter values used by this delay unit.";#P objectname 1/delay/min;#P window linecount 1;#P newex 571 343 94 196617 tap.procrastinate~;#P hidden newex 406 369 134 196617 jcom.out~ 2;#P hidden newex 406 291 58 196617 jcom.in~ 1;#P hidden message 130 316 185 196617 /preset/store 1 default \, preset/write;#P hidden message 28 296 125 196617 /documentation/generate;#P hidden message 96 316 31 196617 /init;#P hidden flonum 668 56 40 9 0. 1. 8227 3 198 198 198 221 221 221 222 222 222 0 0 0;#P hidden comment 609 57 68 196617 pan_range:;#B frgb 172 172 172;#P hidden flonum 668 40 40 9 0. 1. 8227 3 198 198 198 221 221 221 222 222 222 0 0 0;#P hidden comment 606 41 68 196617 gain_range:;#B frgb 172 172 172;#P hidden flonum 668 23 40 9 0. 1. 8227 3 198 198 198 221 221 221 222 222 222 0 0 0;#P hidden comment 606 24 68 196617 shift_range:;#B frgb 172 172 172;#P hidden flonum 668 7 40 9 0. 1. 8227 3 198 198 198 221 221 221 222 222 222 0 0 0;#P hidden comment 603 8 68 196617 delay_range:;#B frgb 172 172 172;#P hidden flonum 559 56 40 9 0. 1. 8227 3 198 198 198 221 221 221 222 222 222 0 0 0;#P hidden comment 500 57 68 196617 pan_range:;#B frgb 172 172 172;#P hidden flonum 559 40 40 9 0. 1. 8227 3 198 198 198 221 221 221 222 222 222 0 0 0;#P hidden comment 497 41 68 196617 gain_range:;#B frgb 172 172 172;#P hidden flonum 559 23 40 9 0. 1. 8227 3 198 198 198 221 221 221 222 222 222 0 0 0;#P hidden comment 497 24 68 196617 shift_range:;#B frgb 172 172 172;#P hidden flonum 559 7 40 9 0. 1. 8227 3 198 198 198 221 221 221 222 222 222 0 0 0;#P hidden comment 494 8 68 196617 delay_range:;#B frgb 172 172 172;#P hidden flonum 450 56 40 9 0. 1. 8227 3 198 198 198 221 221 221 222 222 222 0 0 0;#P hidden comment 391 57 68 196617 pan_range:;#B frgb 172 172 172;#P hidden flonum 450 40 40 9 0. 1. 8227 3 198 198 198 221 221 221 222 222 222 0 0 0;#P hidden comment 388 41 68 196617 gain_range:;#B frgb 172 172 172;#P hidden flonum 450 23 40 9 0. 1. 8227 3 198 198 198 221 221 221 222 222 222 0 0 0;#P hidden comment 388 24 68 196617 shift_range:;#B frgb 172 172 172;#P hidden flonum 450 7 40 9 0. 1. 8227 3 198 198 198 221 221 221 222 222 222 0 0 0;#P hidden comment 385 8 68 196617 delay_range:;#B frgb 172 172 172;#P hidden flonum 342 56 40 9 0. 1. 8227 3 198 198 198 221 221 221 222 222 222 0 0 0;#P hidden comment 283 57 68 196617 pan_range:;#B frgb 172 172 172;#P hidden flonum 342 40 40 9 0. 1. 8227 3 198 198 198 221 221 221 222 222 222 0 0 0;#P hidden comment 280 41 68 196617 gain_range:;#B frgb 172 172 172;#P hidden flonum 342 23 40 9 0. 1. 8227 3 198 198 198 221 221 221 222 222 222 0 0 0;#P hidden comment 280 24 68 196617 shift_range:;#B frgb 172 172 172;#P hidden flonum 342 7 40 9 0. 1. 8227 3 198 198 198 221 221 221 222 222 222 0 0 0;#P hidden comment 277 8 68 196617 delay_range:;#B frgb 172 172 172;#P window linecount 3;#P hidden newex 28 187 298 196617 jcom.message generate_parameters @type msg_none @description "Generates new\\\, random\\\, parameters for all delay settings based on the ranges specified in the rules below.";#P objectname jmod.parameter.mxb;#P window linecount 5;#P hidden newex 28 110 367 196617 jcom.message change_rules @type msg_list "Sends messages to the underlying tap.procrastinate~ component.  The first arg should be 'delay_range'\\\, 'shift_range'\\\, 'gain_range'\\\, or 'pan_range'.  This should be followed by the stage number (there are 4 delay stages) and the minimum and maximum delay times (float arguments) in milliseconds for the specified stage(int argument).";#P objectname jmod.parameter.mxb[1];#P window linecount 2;#P hidden newex 3 347 341 196617 jcom.hub tap.jmod.procrastinate @size 1U-half @module_type audio @description "Idiosyncratic cascaded pitch-shifting delays" @inspector 1;#P hidden outlet 406 395 15 0;#P window linecount 1;#P hidden comment 406 412 101 196617 ---signal outputs---;#P hidden comment 17 280 79 196617 command input;#P hidden inlet 406 268 15 0;#P hidden newex 406 344 163 196617 poly~ tap.jalg.procrastinate~.mxt;#P hidden outlet 3 383 15 0;#P hidden outlet 468 395 15 0;#P hidden inlet 3 280 13 0;#P bpatcher 0 0 256 60 0 0 jcom.gui.mxt 0;#P objectname jmod.gui.1Uh.a.stereo.mxb;#P hidden connect 1 0 9 0;#P hidden connect 45 0 9 0;#P hidden connect 44 0 9 0;#P hidden connect 46 0 9 0;#P hidden connect 9 0 3 0;#P lcolor 6;#P hidden connect 5 0 47 0;#P hidden connect 47 1 4 0;#P hidden connect 47 0 4 0;#P connect 49 0 48 0;#P hidden connect 4 0 48 0;#P hidden connect 48 0 8 0;#P hidden connect 48 1 2 0;#P connect 49 1 48 1;#P hidden connect 4 1 48 1;#P connect 47 1 49 0;#P connect 47 0 49 0;#P pop;