{
	"patcher" : 	{
		"fileversion" : 1,
		"rect" : [ 511.0, 294.0, 929.0, 374.0 ],
		"bglocked" : 0,
		"defrect" : [ 511.0, 294.0, 929.0, 374.0 ],
		"openrect" : [ 0.0, 0.0, 0.0, 0.0 ],
		"openinpresentation" : 1,
		"default_fontsize" : 10.970939,
		"default_fontface" : 0,
		"default_fontname" : "Verdana",
		"gridonopen" : 0,
		"gridsize" : [ 5.0, 5.0 ],
		"gridsnaponopen" : 0,
		"toolbarvisible" : 1,
		"boxanimatetime" : 200,
		"imprint" : 0,
		"metadata" : [  ],
		"boxes" : [ 			{
				"box" : 				{
					"maxclass" : "multislider",
					"varname" : "xfade",
					"setminmax" : [ 0.0, 1.0 ],
					"slidercolor" : [ 0.356863, 0.356863, 0.356863, 1.0 ],
					"compatibility" : 1,
					"contdata" : 1,
					"setstyle" : 1,
					"candicane3" : [ 0.290196, 0.411765, 0.713726, 1.0 ],
					"presentation_rect" : [ 4.0, 23.0, 75.0, 15.0 ],
					"bgcolor" : [ 0.678431, 0.678431, 0.678431, 1.0 ],
					"candicane2" : [ 0.145098, 0.203922, 0.356863, 1.0 ],
					"peakcolor" : [ 0.498039, 0.498039, 0.498039, 1.0 ],
					"candicane7" : [ 0.878431, 0.243137, 0.145098, 1.0 ],
					"numinlets" : 1,
					"patching_rect" : [ 285.0, 253.0, 75.0, 15.0 ],
					"candicane4" : [ 0.439216, 0.619608, 0.070588, 1.0 ],
					"candicane6" : [ 0.733333, 0.035294, 0.788235, 1.0 ],
					"presentation" : 1,
					"numoutlets" : 2,
					"candicane8" : [ 0.027451, 0.447059, 0.501961, 1.0 ],
					"candicane5" : [ 0.584314, 0.827451, 0.431373, 1.0 ],
					"id" : "obj-8",
					"outlettype" : [ "", "" ],
					"orientation" : 0
				}

			}
, 			{
				"box" : 				{
					"maxclass" : "newobj",
					"text" : "jcom.out",
					"fontname" : "Verdana",
					"numinlets" : 1,
					"fontsize" : 9.873845,
					"patching_rect" : [ 35.0, 314.0, 52.0, 18.0 ],
					"numoutlets" : 2,
					"id" : "obj-1",
					"outlettype" : [ "", "" ]
				}

			}
, 			{
				"box" : 				{
					"maxclass" : "inlet",
					"numinlets" : 0,
					"patching_rect" : [ 207.0, 178.0, 13.0, 13.0 ],
					"numoutlets" : 1,
					"id" : "obj-2",
					"outlettype" : [ "" ],
					"comment" : ""
				}

			}
, 			{
				"box" : 				{
					"maxclass" : "comment",
					"text" : "VIDEO INPUT",
					"fontname" : "Verdana",
					"frgb" : [ 0.658824, 0.658824, 0.658824, 1.0 ],
					"numinlets" : 1,
					"fontsize" : 9.873845,
					"patching_rect" : [ 222.0, 179.0, 75.0, 18.0 ],
					"numoutlets" : 0,
					"id" : "obj-3"
				}

			}
, 			{
				"box" : 				{
					"maxclass" : "inlet",
					"numinlets" : 0,
					"patching_rect" : [ 117.0, 179.0, 13.0, 13.0 ],
					"numoutlets" : 1,
					"id" : "obj-4",
					"outlettype" : [ "" ],
					"comment" : ""
				}

			}
, 			{
				"box" : 				{
					"maxclass" : "comment",
					"text" : "VIDEO INPUT",
					"fontname" : "Verdana",
					"frgb" : [ 0.658824, 0.658824, 0.658824, 1.0 ],
					"numinlets" : 1,
					"fontsize" : 9.873845,
					"patching_rect" : [ 132.0, 180.0, 75.0, 18.0 ],
					"numoutlets" : 0,
					"id" : "obj-5"
				}

			}
, 			{
				"box" : 				{
					"maxclass" : "newobj",
					"text" : "jcom.in 2",
					"fontname" : "Verdana",
					"numinlets" : 2,
					"fontsize" : 9.873845,
					"patching_rect" : [ 117.0, 201.0, 100.0, 18.0 ],
					"numoutlets" : 4,
					"id" : "obj-6",
					"outlettype" : [ "", "", "", "" ]
				}

			}
, 			{
				"box" : 				{
					"maxclass" : "newobj",
					"text" : "p formating",
					"fontname" : "Verdana",
					"numinlets" : 1,
					"fontsize" : 9.873845,
					"patching_rect" : [ 285.0, 229.0, 66.0, 18.0 ],
					"numoutlets" : 1,
					"id" : "obj-7",
					"outlettype" : [ "" ],
					"patcher" : 					{
						"fileversion" : 1,
						"rect" : [ 14.0, 59.0, 198.0, 241.0 ],
						"bglocked" : 0,
						"defrect" : [ 14.0, 59.0, 198.0, 241.0 ],
						"openrect" : [ 0.0, 0.0, 0.0, 0.0 ],
						"openinpresentation" : 0,
						"default_fontsize" : 10.0,
						"default_fontface" : 0,
						"default_fontname" : "Verdana",
						"gridonopen" : 0,
						"gridsize" : [ 5.0, 5.0 ],
						"gridsnaponopen" : 0,
						"toolbarvisible" : 1,
						"boxanimatetime" : 200,
						"imprint" : 0,
						"metadata" : [  ],
						"boxes" : [ 							{
								"box" : 								{
									"maxclass" : "newobj",
									"text" : "prepend 1",
									"fontname" : "Verdana",
									"numinlets" : 1,
									"fontsize" : 9.873845,
									"patching_rect" : [ 101.0, 95.0, 59.0, 18.0 ],
									"numoutlets" : 1,
									"id" : "obj-1",
									"outlettype" : [ "" ]
								}

							}
, 							{
								"box" : 								{
									"maxclass" : "outlet",
									"numinlets" : 1,
									"patching_rect" : [ 53.0, 155.0, 15.0, 15.0 ],
									"numoutlets" : 0,
									"id" : "obj-2",
									"comment" : ""
								}

							}
, 							{
								"box" : 								{
									"maxclass" : "newobj",
									"text" : "zl join",
									"fontname" : "Verdana",
									"numinlets" : 2,
									"fontsize" : 9.873845,
									"patching_rect" : [ 53.0, 125.0, 58.0, 18.0 ],
									"numoutlets" : 2,
									"id" : "obj-3",
									"outlettype" : [ "", "" ]
								}

							}
, 							{
								"box" : 								{
									"maxclass" : "newobj",
									"text" : "zl slice 1",
									"fontname" : "Verdana",
									"numinlets" : 2,
									"fontsize" : 9.873845,
									"patching_rect" : [ 53.0, 68.0, 58.0, 18.0 ],
									"numoutlets" : 2,
									"id" : "obj-4",
									"outlettype" : [ "", "" ]
								}

							}
, 							{
								"box" : 								{
									"maxclass" : "inlet",
									"numinlets" : 0,
									"patching_rect" : [ 53.0, 39.0, 15.0, 15.0 ],
									"numoutlets" : 1,
									"id" : "obj-5",
									"outlettype" : [ "" ],
									"comment" : ""
								}

							}
 ],
						"lines" : [ 							{
								"patchline" : 								{
									"source" : [ "obj-1", 0 ],
									"destination" : [ "obj-3", 1 ],
									"hidden" : 0,
									"midpoints" : [  ]
								}

							}
, 							{
								"patchline" : 								{
									"source" : [ "obj-4", 1 ],
									"destination" : [ "obj-1", 0 ],
									"hidden" : 0,
									"midpoints" : [  ]
								}

							}
, 							{
								"patchline" : 								{
									"source" : [ "obj-3", 0 ],
									"destination" : [ "obj-2", 0 ],
									"hidden" : 0,
									"midpoints" : [  ]
								}

							}
, 							{
								"patchline" : 								{
									"source" : [ "obj-4", 0 ],
									"destination" : [ "obj-3", 0 ],
									"hidden" : 0,
									"midpoints" : [  ]
								}

							}
, 							{
								"patchline" : 								{
									"source" : [ "obj-5", 0 ],
									"destination" : [ "obj-4", 0 ],
									"hidden" : 0,
									"midpoints" : [  ]
								}

							}
 ]
					}
,
					"saved_object_attributes" : 					{
						"fontname" : "Verdana",
						"globalpatchername" : "",
						"fontface" : 0,
						"fontsize" : 10.0,
						"default_fontface" : 0,
						"default_fontname" : "Verdana",
						"default_fontsize" : 10.0
					}

				}

			}
, 			{
				"box" : 				{
					"maxclass" : "newobj",
					"text" : "pcontrol",
					"fontname" : "Verdana",
					"numinlets" : 1,
					"fontsize" : 9.873845,
					"patching_rect" : [ 35.0, 258.0, 49.0, 18.0 ],
					"numoutlets" : 1,
					"id" : "obj-9",
					"outlettype" : [ "" ]
				}

			}
, 			{
				"box" : 				{
					"maxclass" : "newobj",
					"text" : "jcom.pass open",
					"fontname" : "Verdana",
					"numinlets" : 1,
					"fontsize" : 9.873845,
					"patching_rect" : [ 35.0, 235.0, 86.0, 18.0 ],
					"numoutlets" : 2,
					"id" : "obj-10",
					"outlettype" : [ "", "" ]
				}

			}
, 			{
				"box" : 				{
					"maxclass" : "newobj",
					"varname" : "xfade[1]",
					"text" : "jcom.parameter xfade @type msg_float @ramp/drive scheduler @repetitions/allow 0 @range/bounds 0. 1. @range/clipmode both @description \"Crossfade value\"",
					"linecount" : 2,
					"fontname" : "Verdana",
					"numinlets" : 1,
					"fontsize" : 9.873845,
					"patching_rect" : [ 285.0, 273.0, 422.0, 30.0 ],
					"numoutlets" : 3,
					"id" : "obj-12",
					"outlettype" : [ "", "", "" ]
				}

			}
, 			{
				"box" : 				{
					"maxclass" : "message",
					"text" : "/documentation/generate",
					"fontname" : "Verdana",
					"bgcolor" : [ 0.8, 0.54902, 0.54902, 1.0 ],
					"numinlets" : 2,
					"fontsize" : 9.873845,
					"patching_rect" : [ 114.0, 101.0, 135.0, 16.0 ],
					"numoutlets" : 1,
					"id" : "obj-13",
					"outlettype" : [ "" ]
				}

			}
, 			{
				"box" : 				{
					"maxclass" : "comment",
					"text" : "VIDEO OUTPUT",
					"fontname" : "Verdana",
					"frgb" : [ 0.658824, 0.658824, 0.658824, 1.0 ],
					"numinlets" : 1,
					"fontsize" : 9.873845,
					"patching_rect" : [ 50.0, 343.0, 85.0, 18.0 ],
					"numoutlets" : 0,
					"id" : "obj-14"
				}

			}
, 			{
				"box" : 				{
					"maxclass" : "outlet",
					"numinlets" : 1,
					"patching_rect" : [ 35.0, 343.0, 13.0, 13.0 ],
					"numoutlets" : 0,
					"id" : "obj-15",
					"comment" : ""
				}

			}
, 			{
				"box" : 				{
					"maxclass" : "newobj",
					"text" : "jalg.xfade%",
					"fontname" : "Verdana",
					"numinlets" : 3,
					"fontsize" : 9.873845,
					"patching_rect" : [ 35.0, 287.0, 175.0, 18.0 ],
					"numoutlets" : 1,
					"id" : "obj-17",
					"outlettype" : [ "" ]
				}

			}
, 			{
				"box" : 				{
					"maxclass" : "message",
					"text" : ";\rjcom.init bang",
					"linecount" : 2,
					"fontname" : "Verdana",
					"bgcolor" : [ 0.8, 0.54902, 0.54902, 1.0 ],
					"numinlets" : 2,
					"fontsize" : 9.873845,
					"patching_rect" : [ 401.0, 81.0, 80.0, 28.0 ],
					"numoutlets" : 1,
					"id" : "obj-18",
					"outlettype" : [ "" ]
				}

			}
, 			{
				"box" : 				{
					"maxclass" : "comment",
					"text" : "command input",
					"fontname" : "Verdana",
					"frgb" : [ 0.658824, 0.658824, 0.658824, 1.0 ],
					"numinlets" : 1,
					"fontsize" : 9.873845,
					"patching_rect" : [ 30.0, 99.0, 86.0, 18.0 ],
					"numoutlets" : 0,
					"id" : "obj-19"
				}

			}
, 			{
				"box" : 				{
					"maxclass" : "newobj",
					"varname" : "jcom.hub",
					"text" : "jcom.hub @module_type video @algorithm_type jitter @description \"Crossfade between two video sources.\"",
					"linecount" : 2,
					"fontname" : "Verdana",
					"numinlets" : 1,
					"fontsize" : 9.873845,
					"patching_rect" : [ 16.0, 124.0, 311.0, 30.0 ],
					"numoutlets" : 2,
					"id" : "obj-20",
					"outlettype" : [ "", "" ]
				}

			}
, 			{
				"box" : 				{
					"maxclass" : "outlet",
					"numinlets" : 1,
					"patching_rect" : [ 16.0, 186.0, 13.0, 13.0 ],
					"numoutlets" : 0,
					"id" : "obj-21",
					"comment" : ""
				}

			}
, 			{
				"box" : 				{
					"maxclass" : "inlet",
					"numinlets" : 0,
					"patching_rect" : [ 16.0, 99.0, 13.0, 13.0 ],
					"numoutlets" : 1,
					"id" : "obj-23",
					"outlettype" : [ "" ],
					"comment" : ""
				}

			}
, 			{
				"box" : 				{
					"maxclass" : "jit.pwindow",
					"presentation_rect" : [ 83.0, 21.0, 60.0, 45.0 ],
					"numinlets" : 1,
					"patching_rect" : [ 240.0, 23.0, 60.0, 45.0 ],
					"presentation" : 1,
					"numoutlets" : 2,
					"id" : "obj-28",
					"outlettype" : [ "", "" ]
				}

			}
, 			{
				"box" : 				{
					"maxclass" : "jcom.ui",
					"text" : "/editing_this_module",
					"has_bypass" : 1,
					"prefix" : "video",
					"presentation_rect" : [ 0.0, 0.0, 150.0, 70.0 ],
					"numinlets" : 1,
					"has_freeze" : 1,
					"patching_rect" : [ 3.0, 1.0, 300.0, 70.0 ],
					"presentation" : 1,
					"numoutlets" : 1,
					"has_mute" : 1,
					"id" : "obj-16",
					"outlettype" : [ "" ],
					"has_preview" : 1
				}

			}
 ],
		"lines" : [ 			{
				"patchline" : 				{
					"source" : [ "obj-20", 0 ],
					"destination" : [ "obj-21", 0 ],
					"hidden" : 0,
					"midpoints" : [  ]
				}

			}
, 			{
				"patchline" : 				{
					"source" : [ "obj-13", 0 ],
					"destination" : [ "obj-20", 0 ],
					"hidden" : 0,
					"midpoints" : [ 123.5, 120.0, 25.5, 120.0 ]
				}

			}
, 			{
				"patchline" : 				{
					"source" : [ "obj-23", 0 ],
					"destination" : [ "obj-20", 0 ],
					"hidden" : 0,
					"midpoints" : [  ]
				}

			}
, 			{
				"patchline" : 				{
					"source" : [ "obj-16", 0 ],
					"destination" : [ "obj-28", 0 ],
					"hidden" : 0,
					"midpoints" : [  ]
				}

			}
, 			{
				"patchline" : 				{
					"source" : [ "obj-2", 0 ],
					"destination" : [ "obj-6", 1 ],
					"hidden" : 0,
					"midpoints" : [  ]
				}

			}
, 			{
				"patchline" : 				{
					"source" : [ "obj-6", 1 ],
					"destination" : [ "obj-17", 2 ],
					"hidden" : 0,
					"midpoints" : [ 153.5, 252.0, 200.5, 252.0 ]
				}

			}
, 			{
				"patchline" : 				{
					"source" : [ "obj-6", 0 ],
					"destination" : [ "obj-17", 1 ],
					"hidden" : 0,
					"midpoints" : [  ]
				}

			}
, 			{
				"patchline" : 				{
					"source" : [ "obj-4", 0 ],
					"destination" : [ "obj-6", 0 ],
					"hidden" : 0,
					"midpoints" : [  ]
				}

			}
, 			{
				"patchline" : 				{
					"source" : [ "obj-1", 0 ],
					"destination" : [ "obj-15", 0 ],
					"hidden" : 0,
					"midpoints" : [  ]
				}

			}
, 			{
				"patchline" : 				{
					"source" : [ "obj-17", 0 ],
					"destination" : [ "obj-1", 0 ],
					"hidden" : 0,
					"midpoints" : [  ]
				}

			}
, 			{
				"patchline" : 				{
					"source" : [ "obj-10", 1 ],
					"destination" : [ "obj-17", 0 ],
					"hidden" : 0,
					"midpoints" : [ 111.5, 280.0, 44.5, 280.0 ]
				}

			}
, 			{
				"patchline" : 				{
					"source" : [ "obj-9", 0 ],
					"destination" : [ "obj-17", 0 ],
					"hidden" : 0,
					"midpoints" : [  ]
				}

			}
, 			{
				"patchline" : 				{
					"source" : [ "obj-10", 0 ],
					"destination" : [ "obj-9", 0 ],
					"hidden" : 0,
					"midpoints" : [  ]
				}

			}
, 			{
				"patchline" : 				{
					"source" : [ "obj-6", 2 ],
					"destination" : [ "obj-10", 0 ],
					"hidden" : 0,
					"midpoints" : [ 180.5, 226.0, 44.5, 226.0 ]
				}

			}
, 			{
				"patchline" : 				{
					"source" : [ "obj-12", 0 ],
					"destination" : [ "obj-7", 0 ],
					"hidden" : 0,
					"midpoints" : [ 294.5, 308.0, 279.0, 308.0, 279.0, 222.0, 294.5, 222.0 ]
				}

			}
, 			{
				"patchline" : 				{
					"source" : [ "obj-7", 0 ],
					"destination" : [ "obj-8", 0 ],
					"hidden" : 0,
					"midpoints" : [  ]
				}

			}
, 			{
				"patchline" : 				{
					"source" : [ "obj-8", 0 ],
					"destination" : [ "obj-12", 0 ],
					"hidden" : 0,
					"midpoints" : [  ]
				}

			}
 ]
	}

}
