max v2;#N vpatcher 59 52 582 646;#P origin 0 -1045;#P window setfont "Sans Serif" 9.;#P window linecount 1;#P hidden newex 119 512 49 196617 jcom.out;#P hidden inlet 291 376 13 0;#P hidden comment 306 377 65 196617 VIDEO INPUT;#P hidden inlet 201 377 13 0;#P hidden comment 216 378 65 196617 VIDEO INPUT;#P hidden newex 201 399 100 196617 jcom.in 2;#N vpatcher 14 59 212 274;#P window setfont "Sans Serif" 9.;#P newex 101 95 53 196617 prepend 1;#P outlet 53 155 15 0;#P newex 53 125 58 196617 zl join;#P newex 53 68 58 196617 zl slice 1;#P inlet 53 39 15 0;#P connect 0 0 1 0;#P connect 1 0 2 0;#P connect 2 0 3 0;#P connect 1 1 4 0;#P connect 4 0 2 1;#P pop;#P hidden newobj 10 237 61 196617 p formating;#P user multiSlider 28 29 127 17 0. 1. 1 2936 47 0 0 2 0 0 1;#M frgb 91 91 91;#M brgb 173 173 173;#M rgb2 127 127 127;#M rgb3 0 0 0;#M rgb4 37 52 91;#M rgb5 74 105 182;#M rgb6 112 158 18;#M rgb7 149 211 110;#M rgb8 187 9 201;#M rgb9 224 62 37;#M rgb10 7 114 128;#P objectname xfade;#P hidden newex 119 456 47 196617 pcontrol;#P hidden newex 119 433 78 196617 jcom.pass open;#P hidden newex 10 259 59 196617 pvar xfade;#P window linecount 2;#P hidden newex 10 281 320 196617 jcom.parameter xfade @type msg_float @ramp/drive scheduler @repetitions 0 @range 0. 1. @clipmode both @description "Crossfade value";#P objectname xfade[1];#P window linecount 1;#P hidden message 99 86 125 196617 /documentation/generate;#B color 3;#P hidden comment 134 541 75 196617 VIDEO OUTPUT;#P hidden outlet 119 541 13 0;#P hidden newex 119 485 175 196617 jalg.xfade%.mxt;#P window linecount 2;#P hidden message 386 316 72 196617 \; jcom.init bang;#B color 3;#P window linecount 1;#P hidden comment 15 84 79 196617 command input;#P window linecount 2;#P hidden newex 1 109 403 196617 jcom.hub jmod.xfade% @size 1U-half @module_type video @algorithm_type jitter @description "Crossfade between two video sources.";#P objectname jcom.hub;#P hidden outlet 1 171 13 0;#P hidden inlet 1 84 13 0;#P bpatcher 0 0 256 60 0 0 jcom.gui.mxt 0;#P objectname jcom.gui;#P hidden connect 1 0 3 0;#P hidden fasten 9 0 3 0 104 105 6 105;#P hidden connect 3 0 2 0;#P hidden fasten 10 0 15 0 15 316 4 316 4 230 15 230;#P hidden connect 15 0 11 0;#P hidden connect 11 0 10 0;#P hidden fasten 16 2 12 0 266 424 124 424;#P hidden connect 12 0 13 0;#P hidden connect 13 0 6 0;#P hidden fasten 12 1 6 0 192 478 124 478;#P hidden connect 6 0 21 0;#P hidden connect 21 0 7 0;#P hidden connect 18 0 16 0;#P hidden connect 16 0 6 1;#P hidden fasten 16 1 6 2 236 450 288 450;#P hidden connect 20 0 16 1;#P pop;