max v2;#N vpatcher 113 98 829 554;#P origin 0 -21;#P window setfont "Sans Serif" 9.;#P window linecount 1;#P hidden newex 412 215 92 196617 pvar device_menu;#P window linecount 2;#P hidden newex 412 237 274 196617 jcom.parameter device_menu @type msg_menu @clipmode none @description "Choose which serial device to use";#P objectname device_menu[1];#P window linecount 1;#P hidden newex 415 300 58 196617 pvar reset;#P window linecount 2;#P hidden newex 415 322 241 196617 jcom.message reset @type msg_generic @clipmode none @description "Resetting serial object";#P objectname jcom.parameter[3];#P user jsui 149 62 29 16 1 0 0 jsui_textbutton.js reset;#P objectname reset;#P number 83 61 35 9 1 0 8225 3 247 247 247 221 221 221 222 222 222 0 0 0;#P window linecount 1;#P newex 277 45 82 196617 jcom.parameter;#P objectname u008000025;#P newex 124 302 85 196617 jalg.wi-microdig;#P user umenu 79 42 130 196647 1 64 58 1;#X add "to MaxMSP 1";#X add "to MaxMSP 2";#P objectname device_menu;#P hidden message 49 93 191 196617 /preset/store 1 default \, /preset/write;#B color 3;#P hidden newex 119 194 43 196617 jcom.in;#P comment 4 64 65 196617 interval;#B frgb 149 149 149;#P hidden newex 119 242 45 196617 pcontrol;#P hidden newex 119 218 78 196617 jcom.pass open;#P window linecount 2;#P hidden message 23 385 65 196617 \; max refresh;#P window linecount 1;#P hidden message 185 110 31 196617 /init;#P comment 4 42 65 196617 Device;#B frgb 149 149 149;#P window linecount 2;#P hidden newex 16 135 378 196617 jcom.hub jmod.wi-microdig @size 1U-half @module_type control @inspector 0 @description "A module interfacing with the wi-microDig from Infusion Systems";#P objectname jcom.hub;#P hidden inlet 16 111 13 0;#P hidden outlet 16 337 13 0;#P window linecount 1;#P hidden message 231 311 153 196617 /open_inspector 0;#P hidden newex 231 291 61 196617 prepend set;#P hidden message 56 110 125 196617 /documentation/generate;#B color 3;#P bpatcher 0 21 256 62 0 0 jcom.gui.mxt 0 $0_;#P objectname jcom.gui.audio-component.mxt;#P hidden fasten 14 0 6 0 54 131 21 131;#P hidden fasten 1 0 6 0 61 131 21 131;#P hidden connect 5 0 6 0;#P hidden fasten 8 0 6 0 190 131 21 131;#P hidden connect 6 0 4 0;#P hidden connect 13 0 10 0;#P hidden connect 10 0 11 0;#P hidden fasten 10 1 2 0 192 270 236 270;#P hidden connect 2 0 3 0;#P hidden fasten 22 0 23 0 417 270 405 270 405 210 417 210;#P hidden connect 23 0 22 0;#P hidden connect 21 0 20 0;#P pop;