{
	"patcher" : 	{
		"fileversion" : 1,
		"rect" : [ 257.0, 44.0, 554.0, 389.0 ],
		"bglocked" : 0,
		"defrect" : [ 257.0, 44.0, 554.0, 389.0 ],
		"openrect" : [ 0.0, 0.0, 0.0, 0.0 ],
		"openinpresentation" : 0,
		"default_fontsize" : 10.970939,
		"default_fontface" : 0,
		"default_fontname" : "Verdana",
		"gridonopen" : 0,
		"gridsize" : [ 5.0, 5.0 ],
		"gridsnaponopen" : 0,
		"toolbarvisible" : 1,
		"boxanimatetime" : 200,
		"imprint" : 0,
		"metadata" : [  ],
		"boxes" : [ 			{
				"box" : 				{
					"maxclass" : "comment",
					"text" : "jmod.fluidsynth~",
					"numoutlets" : 0,
					"fontname" : "Verdana",
					"fontsize" : 17.334082,
					"patching_rect" : [ 25.0, 15.0, 164.0, 28.0 ],
					"numinlets" : 1,
					"id" : "obj-38",
					"frgb" : [ 0.0, 0.0, 0.0, 1.0 ]
				}

			}
, 			{
				"box" : 				{
					"maxclass" : "comment",
					"text" : "Synth based on the fluidsynth using soundfonts",
					"numoutlets" : 0,
					"fontname" : "Verdana",
					"fontsize" : 10.0,
					"patching_rect" : [ 25.0, 40.0, 293.0, 19.0 ],
					"numinlets" : 1,
					"id" : "obj-39",
					"frgb" : [ 0.0, 0.0, 0.0, 1.0 ]
				}

			}
, 			{
				"box" : 				{
					"maxclass" : "panel",
					"numoutlets" : 0,
					"patching_rect" : [ 10.0, 10.0, 351.0, 53.0 ],
					"numinlets" : 1,
					"rounded" : 15,
					"id" : "obj-40"
				}

			}
, 			{
				"box" : 				{
					"maxclass" : "newobj",
					"text" : "p standard-messages",
					"numoutlets" : 1,
					"fontname" : "Verdana",
					"outlettype" : [ "" ],
					"fontsize" : 9.873845,
					"patching_rect" : [ 20.0, 100.0, 115.0, 18.0 ],
					"numinlets" : 0,
					"id" : "obj-1",
					"patcher" : 					{
						"fileversion" : 1,
						"rect" : [ 10.0, 59.0, 493.0, 667.0 ],
						"bglocked" : 0,
						"defrect" : [ 10.0, 59.0, 493.0, 667.0 ],
						"openrect" : [ 0.0, 0.0, 0.0, 0.0 ],
						"openinpresentation" : 0,
						"default_fontsize" : 10.0,
						"default_fontface" : 0,
						"default_fontname" : "Verdana",
						"gridonopen" : 0,
						"gridsize" : [ 5.0, 5.0 ],
						"gridsnaponopen" : 0,
						"toolbarvisible" : 1,
						"boxanimatetime" : 200,
						"imprint" : 0,
						"metadata" : [  ],
						"boxes" : [ 							{
								"box" : 								{
									"maxclass" : "bpatcher",
									"numoutlets" : 1,
									"name" : "jmod.preset_params.maxpat",
									"outlettype" : [ "" ],
									"patching_rect" : [ 50.0, 255.0, 374.0, 347.0 ],
									"args" : [ "jmod.delay~" ],
									"numinlets" : 0,
									"id" : "obj-1"
								}

							}
, 							{
								"box" : 								{
									"maxclass" : "bpatcher",
									"numoutlets" : 1,
									"name" : "jmod.gain_params.maxpat",
									"outlettype" : [ "" ],
									"patching_rect" : [ 50.0, 22.0, 374.0, 221.0 ],
									"args" : [  ],
									"numinlets" : 0,
									"id" : "obj-2"
								}

							}
, 							{
								"box" : 								{
									"maxclass" : "outlet",
									"numoutlets" : 0,
									"patching_rect" : [ 50.0, 636.0, 15.0, 15.0 ],
									"numinlets" : 1,
									"hidden" : 1,
									"id" : "obj-3",
									"comment" : ""
								}

							}
 ],
						"lines" : [ 							{
								"patchline" : 								{
									"source" : [ "obj-1", 0 ],
									"destination" : [ "obj-3", 0 ],
									"hidden" : 1,
									"midpoints" : [  ]
								}

							}
, 							{
								"patchline" : 								{
									"source" : [ "obj-2", 0 ],
									"destination" : [ "obj-3", 0 ],
									"hidden" : 1,
									"midpoints" : [  ]
								}

							}
 ]
					}
,
					"saved_object_attributes" : 					{
						"default_fontsize" : 10.0,
						"fontname" : "Verdana",
						"globalpatchername" : "",
						"fontface" : 0,
						"fontsize" : 10.0,
						"default_fontface" : 0,
						"default_fontname" : "Verdana"
					}

				}

			}
, 			{
				"box" : 				{
					"maxclass" : "newobj",
					"text" : "prepend /notein",
					"numoutlets" : 1,
					"fontname" : "Verdana",
					"outlettype" : [ "" ],
					"fontsize" : 9.873845,
					"patching_rect" : [ 190.0, 215.0, 88.0, 18.0 ],
					"numinlets" : 1,
					"id" : "obj-2"
				}

			}
, 			{
				"box" : 				{
					"maxclass" : "bpatcher",
					"varname" : "/midiin",
					"numoutlets" : 2,
					"name" : "jmod.midiin.maxpat",
					"outlettype" : [ "", "" ],
					"presentation_rect" : [ 0.0, 0.0, 300.0, 70.0 ],
					"patching_rect" : [ 175.0, 95.0, 150.0, 70.0 ],
					"args" : [ "/midiin" ],
					"numinlets" : 1,
					"id" : "obj-3"
				}

			}
, 			{
				"box" : 				{
					"maxclass" : "toggle",
					"numoutlets" : 1,
					"outlettype" : [ "int" ],
					"patching_rect" : [ 330.0, 315.0, 20.0, 20.0 ],
					"numinlets" : 1,
					"id" : "obj-4"
				}

			}
, 			{
				"box" : 				{
					"maxclass" : "kslider",
					"numoutlets" : 2,
					"outlettype" : [ "int", "int" ],
					"presentation_rect" : [ 0.0, 0.0, 245.0, 35.0 ],
					"hkeycolor" : [ 0.501961, 0.501961, 0.501961, 1.0 ],
					"range" : 60,
					"patching_rect" : [ 190.0, 175.0, 245.0, 34.0 ],
					"numinlets" : 2,
					"id" : "obj-5"
				}

			}
, 			{
				"box" : 				{
					"maxclass" : "newobj",
					"text" : "loadmess set",
					"numoutlets" : 1,
					"fontname" : "Verdana",
					"outlettype" : [ "" ],
					"fontsize" : 9.873845,
					"patching_rect" : [ 90.0, 335.0, 73.0, 18.0 ],
					"numinlets" : 1,
					"hidden" : 1,
					"id" : "obj-9"
				}

			}
, 			{
				"box" : 				{
					"maxclass" : "newobj",
					"text" : "dac~ 1 2",
					"numoutlets" : 0,
					"fontname" : "Verdana",
					"fontsize" : 9.873845,
					"patching_rect" : [ 315.0, 340.0, 160.0, 18.0 ],
					"numinlets" : 2,
					"id" : "obj-10"
				}

			}
, 			{
				"box" : 				{
					"maxclass" : "message",
					"numoutlets" : 1,
					"fontname" : "Verdana",
					"outlettype" : [ "" ],
					"fontsize" : 9.873845,
					"patching_rect" : [ 175.0, 335.0, 114.0, 16.0 ],
					"numinlets" : 2,
					"id" : "obj-11"
				}

			}
, 			{
				"box" : 				{
					"maxclass" : "bpatcher",
					"varname" : "jmod.control",
					"numoutlets" : 1,
					"name" : "jmod.control.maxpat",
					"outlettype" : [ "" ],
					"presentation_rect" : [ 0.0, 0.0, 150.0, 70.0 ],
					"patching_rect" : [ 15.0, 240.0, 150.0, 70.0 ],
					"args" : [ "/control" ],
					"numinlets" : 1,
					"id" : "obj-13"
				}

			}
, 			{
				"box" : 				{
					"maxclass" : "bpatcher",
					"varname" : "/fluidsynth~",
					"numoutlets" : 3,
					"name" : "jmod.fluidsynth~.maxpat",
					"outlettype" : [ "", "signal", "signal" ],
					"presentation_rect" : [ 0.0, 0.0, 300.0, 70.0 ],
					"patching_rect" : [ 175.0, 240.0, 300.0, 70.0 ],
					"args" : [ "/fluidsynth~" ],
					"numinlets" : 1,
					"id" : "obj-14"
				}

			}
 ],
		"lines" : [ 			{
				"patchline" : 				{
					"source" : [ "obj-4", 0 ],
					"destination" : [ "obj-10", 0 ],
					"hidden" : 0,
					"midpoints" : [  ]
				}

			}
, 			{
				"patchline" : 				{
					"source" : [ "obj-5", 0 ],
					"destination" : [ "obj-2", 0 ],
					"hidden" : 0,
					"midpoints" : [  ]
				}

			}
, 			{
				"patchline" : 				{
					"source" : [ "obj-9", 0 ],
					"destination" : [ "obj-11", 0 ],
					"hidden" : 1,
					"midpoints" : [ 99.5, 318.0, 184.5, 318.0 ]
				}

			}
, 			{
				"patchline" : 				{
					"source" : [ "obj-14", 0 ],
					"destination" : [ "obj-11", 1 ],
					"hidden" : 1,
					"midpoints" : [  ]
				}

			}
, 			{
				"patchline" : 				{
					"source" : [ "obj-2", 0 ],
					"destination" : [ "obj-14", 0 ],
					"hidden" : 0,
					"midpoints" : [ 199.5, 235.0, 184.5, 235.0 ]
				}

			}
, 			{
				"patchline" : 				{
					"source" : [ "obj-1", 0 ],
					"destination" : [ "obj-14", 0 ],
					"hidden" : 1,
					"midpoints" : [  ]
				}

			}
, 			{
				"patchline" : 				{
					"source" : [ "obj-14", 1 ],
					"destination" : [ "obj-10", 0 ],
					"hidden" : 0,
					"midpoints" : [  ]
				}

			}
, 			{
				"patchline" : 				{
					"source" : [ "obj-14", 2 ],
					"destination" : [ "obj-10", 1 ],
					"hidden" : 0,
					"midpoints" : [  ]
				}

			}
, 			{
				"patchline" : 				{
					"source" : [ "obj-3", 0 ],
					"destination" : [ "obj-14", 0 ],
					"hidden" : 0,
					"midpoints" : [  ]
				}

			}
 ]
	}

}
