max v2;#N vpatcher 125 44 1203 827;#P origin 80 49;#P window setfont "Sans Serif" 9.;#P window linecount 1;#N out~ 2;#P newobj 202 720 39 196617 out~ 2;#N out~ 1;#P newobj 145 720 39 196617 out~ 1;#N in 1;#P newobj 34 194 25 196617 in 1;#N in~ 2;#P newobj 43 326 33 196617 in~ 2;#P message 139 493 142 196617 note 12 0.9 0. 20 80 0.3 500;#P toggle 139 453 15 0;#P message 139 475 58 196617 oneshot \$1;#P message 450 597 31 196617 clear;#P message 450 579 31 196617 state;#P flonum 452 464 35 9 0 0 0 3 0 0 0 221 221 221 222 222 222 0 0 0;#P message 488 464 65 196617 rand_gain \$1;#P flonum 452 445 35 9 0 0 0 3 0 0 0 221 221 221 222 222 222 0 0 0;#P message 488 445 41 196617 gain \$1;#P toggle 452 351 15 0;#P flonum 452 400 35 9 0 0 0 3 0 0 0 221 221 221 222 222 222 0 0 0;#P message 452 418 58 196617 position \$1;#P message 452 369 53 196617 record \$1;#P number 452 288 35 9 -1 1 3 3 0 0 0 221 221 221 222 222 222 0 0 0;#P message 452 329 51 196617 minsize 5;#P message 452 307 92 196617 ambidirectional \$1;#P message 506 132 71 196617 maxvoices 30;#P message 451 488 40 196617 smooth;#P message 451 505 50 196617 tempered;#P flonum 452 241 56 9 0 0 0 3 0 0 0 221 221 221 222 222 222 0 0 0;#P message 452 262 93 196617 delaylength_ms \$1;#P toggle 452 198 15 0;#P message 452 216 51 196617 power \$1;#P comment 449 100 118 196617 send some messages....;#P number 452 158 35 9 0 0 0 3 0 0 0 221 221 221 222 222 222 0 0 0;#P number 452 114 35 9 0 0 0 3 0 0 0 221 221 221 222 222 222 0 0 0;#P message 452 132 52 196617 voices \$1;#P window linecount 2;#P comment 475 621 53 196617 grain pitch variation;#P window linecount 1;#P comment 420 621 53 196617 grain pitch;#P window linecount 2;#P comment 365 621 53 196617 grain size variation;#P comment 255 621 53 196617 grain rate variation;#P window linecount 1;#P message 452 176 65 196617 ramptime \$1;#P flonum 475 648 35 9 0. 1. 3 3 0 0 0 221 221 221 222 222 222 0 0 0;#P flonum 365 648 35 9 0. 0 1 3 0 0 0 221 221 221 222 222 222 0 0 0;#P flonum 255 648 35 9 0. 0 1 3 0 0 0 221 221 221 222 222 222 0 0 0;#P flonum 530 648 35 9 0. 1. 3 3 0 0 0 221 221 221 222 222 222 0 0 0;#P flonum 420 648 35 9 0 0 0 3 0 0 0 221 221 221 222 222 222 0 0 0;#P flonum 310 648 40 9 0. 20000. 3 3 0 0 0 221 221 221 222 222 222 0 0 0;#P flonum 200 648 35 9 0 0 0 3 0 0 0 221 221 221 222 222 222 0 0 0;#P newex 145 672 399 196617 munger~ 3000;#B color 2;#P window linecount 2;#P comment 200 621 53 196617 grain separation;#P window linecount 1;#P comment 310 621 52 196617 grain size;#P window linecount 2;#P comment 530 621 38 196617 stereo spread;#P window linecount 1;#P comment 248 600 117 196617 <-- values are in ms -->;#P comment 296 582 100 196617 PRIMARY CONTROLS;#P comment 139 510 260 196617 transp \, gain \, pan \, attack \, decay \, sustain level \, release;#P newex 34 240 193 196617 jmod.oscroute /mouse_menu /mouse_on;#P connect 48 0 0 0;#P connect 45 0 44 0;#P fasten 47 0 7 0 48 648 150 648;#P hidden fasten 43 0 7 0 455 686 150 686;#P hidden fasten 32 0 7 0 457 537 150 537;#P hidden fasten 30 0 7 0 511 496 150 496;#P hidden fasten 28 0 7 0 456 493 150 493;#P hidden fasten 29 0 7 0 456 496 150 496;#P hidden fasten 26 0 7 0 457 387 150 387;#P hidden fasten 24 0 7 0 457 387 150 387;#P hidden fasten 15 0 7 0 457 387 150 387;#P hidden fasten 20 0 7 0 457 387 150 387;#P hidden fasten 31 0 7 0 457 538 150 538;#P hidden fasten 35 0 7 0 150 433;#P hidden fasten 34 0 7 0 150 384;#P hidden fasten 38 0 7 0 150 460;#P hidden fasten 40 0 7 0 150 479;#P hidden connect 42 0 7 0;#P hidden connect 44 0 7 0;#P hidden connect 46 0 7 0;#P connect 7 0 49 0;#P connect 8 0 7 1;#P fasten 7 1 50 0 539 704 207 704;#P connect 12 0 7 2;#P connect 9 0 7 3;#P connect 13 0 7 4;#P connect 10 0 7 5;#P hidden connect 21 0 20 0;#P hidden connect 22 0 15 0;#P hidden connect 25 0 24 0;#P connect 27 0 26 0;#P connect 33 0 31 0;#P connect 37 0 34 0;#P connect 36 0 35 0;#P connect 14 0 7 6;#P hidden connect 39 0 38 0;#P hidden connect 41 0 40 0;#P connect 11 0 7 7;#P pop;