{
	"patcher" : 	{
		"rect" : [ 201.0, 230.0, 603.0, 494.0 ],
		"bglocked" : 0,
		"defrect" : [ 201.0, 230.0, 603.0, 494.0 ],
		"openinpresentation" : 0,
		"default_fontsize" : 10.0,
		"default_fontface" : 0,
		"default_fontname" : "Verdana",
		"gridonopen" : 0,
		"gridsize" : [ 5.0, 5.0 ],
		"gridsnaponopen" : 0,
		"toolbarvisible" : 1,
		"boxfadetime" : 200,
		"boxanimatetime" : 200,
		"scrollanimatetime" : 200,
		"metadata" : [  ],
		"boxes" : [ 			{
				"box" : 				{
					"maxclass" : "newobj",
					"text" : "jcom.pass \/thresh",
					"numinlets" : 1,
					"patching_rect" : [ 179.0, 174.0, 93.0, 17.0 ],
					"numoutlets" : 2,
					"fontsize" : 9.0,
					"fontname" : "Verdana",
					"outlettype" : [ "", "" ],
					"id" : "obj-1"
				}

			}
, 			{
				"box" : 				{
					"maxclass" : "newobj",
					"text" : "jcom.oscroute \/direct \/genframe",
					"linecount" : 2,
					"numinlets" : 1,
					"patching_rect" : [ 24.0, 58.0, 105.0, 28.0 ],
					"numoutlets" : 3,
					"fontsize" : 9.0,
					"fontname" : "Verdana",
					"outlettype" : [ "", "", "" ],
					"id" : "obj-2"
				}

			}
, 			{
				"box" : 				{
					"maxclass" : "newobj",
					"text" : "jcom.menuprep",
					"numinlets" : 1,
					"patching_rect" : [ 321.0, 159.0, 99.0, 17.0 ],
					"numoutlets" : 2,
					"fontsize" : 9.0,
					"fontname" : "Verdana",
					"outlettype" : [ "", "" ],
					"id" : "obj-3"
				}

			}
, 			{
				"box" : 				{
					"maxclass" : "message",
					"text" : "1",
					"numinlets" : 2,
					"patching_rect" : [ 396.0, 245.0, 16.0, 15.0 ],
					"numoutlets" : 1,
					"fontsize" : 9.0,
					"fontname" : "Verdana",
					"outlettype" : [ "" ],
					"id" : "obj-4"
				}

			}
, 			{
				"box" : 				{
					"maxclass" : "message",
					"text" : "2",
					"numinlets" : 2,
					"patching_rect" : [ 376.0, 245.0, 16.0, 15.0 ],
					"numoutlets" : 1,
					"fontsize" : 9.0,
					"fontname" : "Verdana",
					"outlettype" : [ "" ],
					"id" : "obj-5"
				}

			}
, 			{
				"box" : 				{
					"maxclass" : "newobj",
					"text" : "sel 0 1 2",
					"numinlets" : 1,
					"patching_rect" : [ 368.0, 220.0, 53.0, 17.0 ],
					"numoutlets" : 4,
					"fontsize" : 9.0,
					"fontname" : "Verdana",
					"outlettype" : [ "bang", "bang", "bang", "" ],
					"id" : "obj-6"
				}

			}
, 			{
				"box" : 				{
					"maxclass" : "newobj",
					"text" : "gate 2 2",
					"color" : [ 0.8, 0.54902, 0.54902, 1.0 ],
					"numinlets" : 2,
					"patching_rect" : [ 396.0, 281.0, 74.0, 17.0 ],
					"numoutlets" : 2,
					"fontsize" : 9.0,
					"fontname" : "Verdana",
					"outlettype" : [ "", "" ],
					"id" : "obj-7"
				}

			}
, 			{
				"box" : 				{
					"maxclass" : "message",
					"text" : "mode $1",
					"numinlets" : 2,
					"patching_rect" : [ 320.0, 245.0, 45.0, 15.0 ],
					"numoutlets" : 1,
					"fontsize" : 9.0,
					"fontname" : "Verdana",
					"outlettype" : [ "" ],
					"id" : "obj-8"
				}

			}
, 			{
				"box" : 				{
					"maxclass" : "newobj",
					"text" : "clip 0 1",
					"numinlets" : 3,
					"patching_rect" : [ 320.0, 220.0, 42.0, 17.0 ],
					"numoutlets" : 1,
					"fontsize" : 9.0,
					"fontname" : "Verdana",
					"outlettype" : [ "" ],
					"id" : "obj-9"
				}

			}
, 			{
				"box" : 				{
					"maxclass" : "newobj",
					"text" : "jit.sobel",
					"numinlets" : 1,
					"patching_rect" : [ 460.0, 364.0, 45.0, 17.0 ],
					"numoutlets" : 2,
					"fontsize" : 9.0,
					"fontname" : "Verdana",
					"outlettype" : [ "jit_matrix", "" ],
					"id" : "obj-10"
				}

			}
, 			{
				"box" : 				{
					"maxclass" : "umenu",
					"numinlets" : 1,
					"patching_rect" : [ 368.0, 183.0, 60.0, 17.0 ],
					"types" : [  ],
					"numoutlets" : 3,
					"fontsize" : 9.0,
					"fontname" : "Verdana",
					"outlettype" : [ "int", "", "" ],
					"id" : "obj-11",
					"items" : [ "Sobel", ",", "Prewitt", ",", "Robcross" ]
				}

			}
, 			{
				"box" : 				{
					"maxclass" : "comment",
					"text" : "VIDEO OUTPUT",
					"numinlets" : 1,
					"patching_rect" : [ 411.0, 396.0, 77.0, 17.0 ],
					"numoutlets" : 0,
					"fontsize" : 9.0,
					"fontname" : "Verdana",
					"id" : "obj-12"
				}

			}
, 			{
				"box" : 				{
					"maxclass" : "comment",
					"text" : "INSTRUCTIONS",
					"numinlets" : 1,
					"patching_rect" : [ 41.0, 27.0, 77.0, 17.0 ],
					"numoutlets" : 0,
					"fontsize" : 9.0,
					"fontname" : "Verdana",
					"id" : "obj-13"
				}

			}
, 			{
				"box" : 				{
					"maxclass" : "inlet",
					"numinlets" : 0,
					"patching_rect" : [ 460.0, 27.0, 15.0, 15.0 ],
					"numoutlets" : 1,
					"outlettype" : [ "" ],
					"id" : "obj-14",
					"comment" : ""
				}

			}
, 			{
				"box" : 				{
					"maxclass" : "outlet",
					"numinlets" : 1,
					"patching_rect" : [ 396.0, 396.0, 15.0, 15.0 ],
					"numoutlets" : 0,
					"id" : "obj-15",
					"comment" : ""
				}

			}
, 			{
				"box" : 				{
					"maxclass" : "newobj",
					"text" : "jit.robcross",
					"numinlets" : 1,
					"patching_rect" : [ 396.0, 364.0, 62.0, 17.0 ],
					"numoutlets" : 2,
					"fontsize" : 9.0,
					"fontname" : "Verdana",
					"outlettype" : [ "jit_matrix", "" ],
					"id" : "obj-16"
				}

			}
, 			{
				"box" : 				{
					"maxclass" : "newobj",
					"text" : "jcom.oscroute \/algorithm",
					"linecount" : 2,
					"numinlets" : 1,
					"patching_rect" : [ 118.0, 105.0, 71.0, 28.0 ],
					"numoutlets" : 2,
					"fontsize" : 9.0,
					"fontname" : "Verdana",
					"outlettype" : [ "", "" ],
					"id" : "obj-17"
				}

			}
, 			{
				"box" : 				{
					"maxclass" : "inlet",
					"numinlets" : 0,
					"patching_rect" : [ 24.0, 27.0, 15.0, 15.0 ],
					"numoutlets" : 1,
					"outlettype" : [ "" ],
					"id" : "obj-18",
					"comment" : ""
				}

			}
, 			{
				"box" : 				{
					"maxclass" : "comment",
					"text" : "VIDEO INPUT",
					"numinlets" : 1,
					"patching_rect" : [ 383.0, 27.0, 75.0, 17.0 ],
					"numoutlets" : 0,
					"fontsize" : 9.0,
					"fontname" : "Verdana",
					"id" : "obj-19"
				}

			}
 ],
		"lines" : [ 			{
				"patchline" : 				{
					"source" : [ "obj-18", 0 ],
					"destination" : [ "obj-2", 0 ],
					"hidden" : 0
				}

			}
, 			{
				"patchline" : 				{
					"source" : [ "obj-2", 2 ],
					"destination" : [ "obj-17", 0 ],
					"hidden" : 0
				}

			}
, 			{
				"patchline" : 				{
					"source" : [ "obj-17", 1 ],
					"destination" : [ "obj-1", 0 ],
					"hidden" : 0
				}

			}
, 			{
				"patchline" : 				{
					"source" : [ "obj-11", 0 ],
					"destination" : [ "obj-9", 0 ],
					"hidden" : 0
				}

			}
, 			{
				"patchline" : 				{
					"source" : [ "obj-9", 0 ],
					"destination" : [ "obj-8", 0 ],
					"hidden" : 0
				}

			}
, 			{
				"patchline" : 				{
					"source" : [ "obj-17", 0 ],
					"destination" : [ "obj-3", 0 ],
					"hidden" : 0,
					"midpoints" : [ 127.5, 144.0, 330.5, 144.0 ]
				}

			}
, 			{
				"patchline" : 				{
					"source" : [ "obj-3", 1 ],
					"destination" : [ "obj-11", 0 ],
					"hidden" : 0
				}

			}
, 			{
				"patchline" : 				{
					"source" : [ "obj-11", 0 ],
					"destination" : [ "obj-6", 0 ],
					"hidden" : 0
				}

			}
, 			{
				"patchline" : 				{
					"source" : [ "obj-6", 1 ],
					"destination" : [ "obj-5", 0 ],
					"hidden" : 0
				}

			}
, 			{
				"patchline" : 				{
					"source" : [ "obj-6", 0 ],
					"destination" : [ "obj-5", 0 ],
					"hidden" : 0
				}

			}
, 			{
				"patchline" : 				{
					"source" : [ "obj-6", 2 ],
					"destination" : [ "obj-4", 0 ],
					"hidden" : 0
				}

			}
, 			{
				"patchline" : 				{
					"source" : [ "obj-4", 0 ],
					"destination" : [ "obj-7", 0 ],
					"hidden" : 0
				}

			}
, 			{
				"patchline" : 				{
					"source" : [ "obj-5", 0 ],
					"destination" : [ "obj-7", 0 ],
					"hidden" : 0
				}

			}
, 			{
				"patchline" : 				{
					"source" : [ "obj-2", 0 ],
					"destination" : [ "obj-16", 0 ],
					"hidden" : 0,
					"midpoints" : [ 33.5, 338.0, 405.5, 338.0 ]
				}

			}
, 			{
				"patchline" : 				{
					"source" : [ "obj-7", 0 ],
					"destination" : [ "obj-16", 0 ],
					"hidden" : 0,
					"color" : [ 1.0, 0.741176, 0.611765, 1.0 ],
					"midpoints" : [ 405.5, 303.0, 405.5, 303.0 ]
				}

			}
, 			{
				"patchline" : 				{
					"source" : [ "obj-1", 0 ],
					"destination" : [ "obj-16", 0 ],
					"hidden" : 0,
					"midpoints" : [ 188.5, 328.0, 405.5, 328.0 ]
				}

			}
, 			{
				"patchline" : 				{
					"source" : [ "obj-10", 0 ],
					"destination" : [ "obj-15", 0 ],
					"hidden" : 0,
					"midpoints" : [ 469.5, 387.0, 405.0, 387.0 ]
				}

			}
, 			{
				"patchline" : 				{
					"source" : [ "obj-16", 0 ],
					"destination" : [ "obj-15", 0 ],
					"hidden" : 0
				}

			}
, 			{
				"patchline" : 				{
					"source" : [ "obj-2", 1 ],
					"destination" : [ "obj-7", 1 ],
					"hidden" : 0,
					"color" : [ 1.0, 1.0, 1.0, 1.0 ],
					"midpoints" : [ 76.5, 94.0, 460.5, 94.0 ]
				}

			}
, 			{
				"patchline" : 				{
					"source" : [ "obj-14", 0 ],
					"destination" : [ "obj-7", 1 ],
					"hidden" : 0,
					"color" : [ 1.0, 0.741176, 0.611765, 1.0 ]
				}

			}
, 			{
				"patchline" : 				{
					"source" : [ "obj-1", 0 ],
					"destination" : [ "obj-10", 0 ],
					"hidden" : 0,
					"midpoints" : [ 188.5, 326.0, 469.5, 326.0 ]
				}

			}
, 			{
				"patchline" : 				{
					"source" : [ "obj-2", 0 ],
					"destination" : [ "obj-10", 0 ],
					"hidden" : 0,
					"midpoints" : [ 33.5, 336.0, 469.5, 336.0 ]
				}

			}
, 			{
				"patchline" : 				{
					"source" : [ "obj-7", 1 ],
					"destination" : [ "obj-10", 0 ],
					"hidden" : 0,
					"color" : [ 1.0, 0.741176, 0.611765, 1.0 ],
					"midpoints" : [ 460.5, 306.0, 469.5, 306.0 ]
				}

			}
, 			{
				"patchline" : 				{
					"source" : [ "obj-8", 0 ],
					"destination" : [ "obj-10", 0 ],
					"hidden" : 0
				}

			}
 ]
	}

}
