{
	"patcher" : 	{
		"rect" : [ 541.0, 277.0, 723.0, 524.0 ],
		"bgcolor" : [ 1.0, 1.0, 1.0, 1.0 ],
		"bglocked" : 0,
		"defrect" : [ 541.0, 277.0, 723.0, 524.0 ],
		"openinpresentation" : 0,
		"default_fontsize" : 10.0,
		"default_fontface" : 0,
		"default_fontname" : "Verdana",
		"gridonopen" : 0,
		"gridsize" : [ 15.0, 15.0 ],
		"gridsnaponopen" : 0,
		"toolbarvisible" : 1,
		"boxfadetime" : 200,
		"boxanimatetime" : 200,
		"scrollanimatetime" : 200,
		"metadata" : [  ],
		"boxes" : [ 			{
				"box" : 				{
					"maxclass" : "newobj",
					"text" : "jcom.out 1",
					"numinlets" : 1,
					"patching_rect" : [ 143.0, 425.0, 58.0, 17.0 ],
					"numoutlets" : 1,
					"hidden" : 1,
					"fontsize" : 9.0,
					"fontname" : "Verdana",
					"outlettype" : [ "" ],
					"id" : "obj-1"
				}

			}
, 			{
				"box" : 				{
					"maxclass" : "newobj",
					"text" : "jcom.in 1",
					"numinlets" : 1,
					"patching_rect" : [ 212.0, 215.0, 52.0, 17.0 ],
					"numoutlets" : 2,
					"hidden" : 1,
					"fontsize" : 9.0,
					"fontname" : "Verdana",
					"outlettype" : [ "", "" ],
					"id" : "obj-2"
				}

			}
, 			{
				"box" : 				{
					"maxclass" : "umenu",
					"varname" : "Algorithm",
					"numinlets" : 1,
					"patching_rect" : [ 112.0, 40.0, 60.0, 17.0 ],
					"types" : [  ],
					"numoutlets" : 3,
					"pattrmode" : 1,
					"fontsize" : 9.0,
					"fontname" : "Verdana",
					"outlettype" : [ "int", "", "" ],
					"id" : "obj-3",
					"items" : [ "Sobel", ",", "Prewitt", ",", "Robcross" ]
				}

			}
, 			{
				"box" : 				{
					"maxclass" : "newobj",
					"text" : "pcontrol",
					"numinlets" : 1,
					"patching_rect" : [ 69.0, 317.0, 47.0, 17.0 ],
					"numoutlets" : 1,
					"hidden" : 1,
					"fontsize" : 9.0,
					"fontname" : "Verdana",
					"outlettype" : [ "" ],
					"id" : "obj-4"
				}

			}
, 			{
				"box" : 				{
					"maxclass" : "newobj",
					"text" : "jcom.pass \/open",
					"numinlets" : 1,
					"patching_rect" : [ 69.0, 296.0, 84.0, 17.0 ],
					"numoutlets" : 2,
					"hidden" : 1,
					"fontsize" : 9.0,
					"fontname" : "Verdana",
					"outlettype" : [ "", "" ],
					"id" : "obj-5"
				}

			}
, 			{
				"box" : 				{
					"maxclass" : "newobj",
					"text" : "pvar Algorithm 3",
					"numinlets" : 1,
					"patching_rect" : [ 351.0, 99.0, 88.0, 17.0 ],
					"numoutlets" : 3,
					"hidden" : 1,
					"fontsize" : 9.0,
					"fontname" : "Verdana",
					"outlettype" : [ "", "", "" ],
					"id" : "obj-6"
				}

			}
, 			{
				"box" : 				{
					"maxclass" : "message",
					"text" : "\/documentation\/generate",
					"numinlets" : 2,
					"bgcolor" : [ 0.8, 0.54902, 0.54902, 1.0 ],
					"patching_rect" : [ 99.0, 86.0, 125.0, 15.0 ],
					"numoutlets" : 1,
					"hidden" : 1,
					"fontsize" : 9.0,
					"fontname" : "Verdana",
					"outlettype" : [ "" ],
					"id" : "obj-7"
				}

			}
, 			{
				"box" : 				{
					"maxclass" : "newobj",
					"varname" : "algorithm",
					"text" : "jcom.parameter algorithm @type msg_symbol @description \"Choose the type of.mxtorithm to use for the edge detection.\"",
					"linecount" : 2,
					"numinlets" : 1,
					"patching_rect" : [ 351.0, 128.0, 288.0, 28.0 ],
					"numoutlets" : 1,
					"hidden" : 1,
					"fontsize" : 9.0,
					"fontname" : "Verdana",
					"outlettype" : [ "" ],
					"id" : "obj-8"
				}

			}
, 			{
				"box" : 				{
					"maxclass" : "newobj",
					"varname" : "thresh",
					"text" : "jcom.parameter thresh @type msg_float @ramp/drive scheduler @description \"Edge detection threshold - pixels below the threshold are set to black.\"",
					"linecount" : 2,
					"numinlets" : 1,
					"patching_rect" : [ 351.0, 47.0, 334.0, 28.0 ],
					"numoutlets" : 1,
					"hidden" : 1,
					"fontsize" : 9.0,
					"fontname" : "Verdana",
					"outlettype" : [ "" ],
					"id" : "obj-9"
				}

			}
, 			{
				"box" : 				{
					"maxclass" : "newobj",
					"text" : "pvar Thresh",
					"numinlets" : 1,
					"patching_rect" : [ 351.0, 27.0, 64.0, 17.0 ],
					"numoutlets" : 1,
					"hidden" : 1,
					"fontsize" : 9.0,
					"fontname" : "Verdana",
					"outlettype" : [ "" ],
					"id" : "obj-10"
				}

			}
, 			{
				"box" : 				{
					"maxclass" : "flonum",
					"varname" : "Thresh",
					"numinlets" : 1,
					"bgcolor" : [ 0.866667, 0.866667, 0.866667, 1.0 ],
					"patching_rect" : [ 112.0, 20.0, 35.0, 17.0 ],
					"transparent" : 1,
					"numoutlets" : 2,
					"fontsize" : 9.0,
					"fontname" : "Verdana",
					"triangle" : 0,
					"triscale" : 0.9,
					"outlettype" : [ "float", "bang" ],
					"id" : "obj-11",
					"textcolor" : [ 0.709804, 0.709804, 0.709804, 1.0 ]
				}

			}
, 			{
				"box" : 				{
					"maxclass" : "comment",
					"text" : "thresh",
					"numinlets" : 1,
					"patching_rect" : [ 71.0, 22.0, 39.0, 17.0 ],
					"numoutlets" : 0,
					"fontsize" : 9.0,
					"fontname" : "Verdana",
					"frgb" : [ 0.584314, 0.584314, 0.584314, 1.0 ],
					"id" : "obj-12",
					"textcolor" : [ 0.584314, 0.584314, 0.584314, 1.0 ]
				}

			}
, 			{
				"box" : 				{
					"maxclass" : "comment",
					"text" : "algorithm",
					"numinlets" : 1,
					"patching_rect" : [ 58.0, 41.0, 53.0, 17.0 ],
					"numoutlets" : 0,
					"fontsize" : 9.0,
					"fontname" : "Verdana",
					"frgb" : [ 0.584314, 0.584314, 0.584314, 1.0 ],
					"id" : "obj-13",
					"textcolor" : [ 0.584314, 0.584314, 0.584314, 1.0 ]
				}

			}
, 			{
				"box" : 				{
					"maxclass" : "comment",
					"text" : "VIDEO OUTPUT",
					"numinlets" : 1,
					"patching_rect" : [ 158.0, 410.0, 77.0, 17.0 ],
					"numoutlets" : 0,
					"hidden" : 1,
					"fontsize" : 9.0,
					"fontname" : "Verdana",
					"id" : "obj-14"
				}

			}
, 			{
				"box" : 				{
					"maxclass" : "outlet",
					"numinlets" : 1,
					"patching_rect" : [ 143.0, 453.0, 13.0, 13.0 ],
					"numoutlets" : 0,
					"hidden" : 1,
					"id" : "obj-15",
					"comment" : ""
				}

			}
, 			{
				"box" : 				{
					"maxclass" : "inlet",
					"numinlets" : 0,
					"patching_rect" : [ 212.0, 194.0, 13.0, 13.0 ],
					"numoutlets" : 1,
					"hidden" : 1,
					"outlettype" : [ "" ],
					"id" : "obj-16",
					"comment" : ""
				}

			}
, 			{
				"box" : 				{
					"maxclass" : "comment",
					"text" : "VIDEO INPUT",
					"numinlets" : 1,
					"patching_rect" : [ 227.0, 194.0, 67.0, 17.0 ],
					"numoutlets" : 0,
					"hidden" : 1,
					"fontsize" : 9.0,
					"fontname" : "Verdana",
					"id" : "obj-17"
				}

			}
, 			{
				"box" : 				{
					"maxclass" : "newobj",
					"text" : "jalg.edge%.mxt",
					"numinlets" : 2,
					"patching_rect" : [ 143.0, 379.0, 79.0, 17.0 ],
					"numoutlets" : 1,
					"hidden" : 1,
					"fontsize" : 9.0,
					"fontname" : "Verdana",
					"outlettype" : [ "jit_matrix" ],
					"id" : "obj-18"
				}

			}
, 			{
				"box" : 				{
					"maxclass" : "message",
					"text" : "\/init",
					"numinlets" : 2,
					"bgcolor" : [ 0.8, 0.54902, 0.54902, 1.0 ],
					"patching_rect" : [ 227.0, 86.0, 31.0, 15.0 ],
					"numoutlets" : 1,
					"hidden" : 1,
					"fontsize" : 9.0,
					"fontname" : "Verdana",
					"outlettype" : [ "" ],
					"id" : "obj-19"
				}

			}
, 			{
				"box" : 				{
					"maxclass" : "comment",
					"text" : "command input",
					"numinlets" : 1,
					"patching_rect" : [ 15.0, 84.0, 79.0, 17.0 ],
					"numoutlets" : 0,
					"hidden" : 1,
					"fontsize" : 9.0,
					"fontname" : "Verdana",
					"id" : "obj-20"
				}

			}
, 			{
				"box" : 				{
					"maxclass" : "newobj",
					"varname" : "jcom.hub",
					"text" : "jcom.hub jmod.edge% @size 1U-half @module_type video @algorithm_type jitter @description \"Glowing Edges Effect\"",
					"linecount" : 2,
					"numinlets" : 1,
					"patching_rect" : [ 1.0, 114.0, 282.0, 28.0 ],
					"numoutlets" : 2,
					"hidden" : 1,
					"fontsize" : 9.0,
					"fontname" : "Verdana",
					"outlettype" : [ "", "" ],
					"id" : "obj-21"
				}

			}
, 			{
				"box" : 				{
					"maxclass" : "outlet",
					"numinlets" : 1,
					"patching_rect" : [ 1.0, 171.0, 13.0, 13.0 ],
					"numoutlets" : 0,
					"hidden" : 1,
					"id" : "obj-22",
					"comment" : ""
				}

			}
, 			{
				"box" : 				{
					"maxclass" : "inlet",
					"numinlets" : 0,
					"patching_rect" : [ 1.0, 84.0, 13.0, 13.0 ],
					"numoutlets" : 1,
					"hidden" : 1,
					"outlettype" : [ "" ],
					"id" : "obj-23",
					"comment" : ""
				}

			}
, 			{
				"box" : 				{
					"maxclass" : "jcom.ui",
					"text" : "\/Jamoma",
					"color" : [ 1.0, 1.0, 1.0, 1.0 ],
					"numinlets" : 1,
					"numoutlets" : 1,
					"outlettype" : [ "" ],
					"id" : "obj-34",
					"textcolor" : [ 0.65, 0.65, 0.65, 1.0 ]
				}

			}
 ],
		"lines" : [ 			{
				"patchline" : 				{
					"source" : [ "obj-7", 0 ],
					"destination" : [ "obj-21", 0 ],
					"hidden" : 1,
					"midpoints" : [ 108.5, 105.0, 10.5, 105.0 ]
				}

			}
, 			{
				"patchline" : 				{
					"source" : [ "obj-23", 0 ],
					"destination" : [ "obj-21", 0 ],
					"hidden" : 1
				}

			}
, 			{
				"patchline" : 				{
					"source" : [ "obj-19", 0 ],
					"destination" : [ "obj-21", 0 ],
					"hidden" : 1,
					"midpoints" : [ 236.5, 107.0, 10.5, 107.0 ]
				}

			}
, 			{
				"patchline" : 				{
					"source" : [ "obj-21", 0 ],
					"destination" : [ "obj-22", 0 ],
					"hidden" : 1
				}

			}
, 			{
				"patchline" : 				{
					"source" : [ "obj-2", 1 ],
					"destination" : [ "obj-5", 0 ],
					"hidden" : 1
				}

			}
, 			{
				"patchline" : 				{
					"source" : [ "obj-5", 0 ],
					"destination" : [ "obj-4", 0 ],
					"hidden" : 1
				}

			}
, 			{
				"patchline" : 				{
					"source" : [ "obj-5", 1 ],
					"destination" : [ "obj-18", 0 ],
					"hidden" : 1,
					"midpoints" : [ 143.5, 348.0, 152.5, 348.0 ]
				}

			}
, 			{
				"patchline" : 				{
					"source" : [ "obj-4", 0 ],
					"destination" : [ "obj-18", 0 ],
					"hidden" : 1,
					"midpoints" : [ 78.5, 356.0, 152.5, 356.0 ]
				}

			}
, 			{
				"patchline" : 				{
					"source" : [ "obj-18", 0 ],
					"destination" : [ "obj-1", 0 ],
					"hidden" : 1
				}

			}
, 			{
				"patchline" : 				{
					"source" : [ "obj-1", 0 ],
					"destination" : [ "obj-15", 0 ],
					"hidden" : 1
				}

			}
, 			{
				"patchline" : 				{
					"source" : [ "obj-16", 0 ],
					"destination" : [ "obj-2", 0 ],
					"hidden" : 1
				}

			}
, 			{
				"patchline" : 				{
					"source" : [ "obj-2", 0 ],
					"destination" : [ "obj-18", 1 ],
					"hidden" : 1
				}

			}
, 			{
				"patchline" : 				{
					"source" : [ "obj-9", 0 ],
					"destination" : [ "obj-10", 0 ],
					"hidden" : 1,
					"midpoints" : [ 360.5, 81.0, 346.0, 81.0, 346.0, 18.0, 360.5, 18.0 ]
				}

			}
, 			{
				"patchline" : 				{
					"source" : [ "obj-10", 0 ],
					"destination" : [ "obj-9", 0 ],
					"hidden" : 1
				}

			}
, 			{
				"patchline" : 				{
					"source" : [ "obj-8", 0 ],
					"destination" : [ "obj-6", 0 ],
					"hidden" : 1,
					"midpoints" : [ 360.5, 159.0, 345.0, 159.0, 345.0, 89.0, 360.5, 89.0 ]
				}

			}
, 			{
				"patchline" : 				{
					"source" : [ "obj-6", 1 ],
					"destination" : [ "obj-8", 0 ],
					"hidden" : 1,
					"midpoints" : [ 395.0, 121.0, 360.5, 121.0 ]
				}

			}
 ]
	}

}
