{
	"patcher" : 	{
		"fileversion" : 1,
		"rect" : [ 73.0, 44.0, 732.0, 578.0 ],
		"bglocked" : 0,
		"defrect" : [ 73.0, 44.0, 732.0, 578.0 ],
		"openrect" : [ 0.0, 0.0, 0.0, 0.0 ],
		"openinpresentation" : 0,
		"default_fontsize" : 10.970939,
		"default_fontface" : 0,
		"default_fontname" : "Verdana",
		"gridonopen" : 0,
		"gridsize" : [ 5.0, 5.0 ],
		"gridsnaponopen" : 0,
		"toolbarvisible" : 1,
		"boxanimatetime" : 200,
		"imprint" : 0,
		"metadata" : [  ],
		"boxes" : [ 			{
				"box" : 				{
					"maxclass" : "bpatcher",
					"varname" : "/input%1",
					"args" : [  ],
					"presentation_rect" : [ 0.0, 0.0, 300.0, 70.0 ],
					"lockeddragscroll" : 1,
					"numinlets" : 1,
					"numoutlets" : 2,
					"patching_rect" : [ 355.0, 32.0, 300.0, 70.0 ],
					"id" : "obj-1",
					"outlettype" : [ "", "" ],
					"name" : "jmod.input%.maxpat"
				}

			}
, 			{
				"box" : 				{
					"maxclass" : "newobj",
					"text" : "s jmod.edge%.cmd",
					"fontsize" : 9.873845,
					"hidden" : 1,
					"numinlets" : 1,
					"numoutlets" : 0,
					"patching_rect" : [ 17.0, 240.0, 105.0, 18.0 ],
					"id" : "obj-8",
					"fontname" : "Verdana"
				}

			}
, 			{
				"box" : 				{
					"maxclass" : "bpatcher",
					"args" : [  ],
					"lockeddragscroll" : 1,
					"numinlets" : 0,
					"numoutlets" : 1,
					"patching_rect" : [ 17.0, 92.0, 260.0, 146.0 ],
					"id" : "obj-9",
					"outlettype" : [ "" ],
					"name" : "jmod.video_params.maxpat"
				}

			}
, 			{
				"box" : 				{
					"maxclass" : "comment",
					"text" : "jmod.edge%",
					"textcolor" : [ 1.0, 1.0, 1.0, 1.0 ],
					"fontsize" : 17.334082,
					"frgb" : [ 1.0, 1.0, 1.0, 1.0 ],
					"numinlets" : 1,
					"numoutlets" : 0,
					"patching_rect" : [ 23.0, 31.0, 189.0, 28.0 ],
					"id" : "obj-10",
					"fontname" : "Verdana"
				}

			}
, 			{
				"box" : 				{
					"maxclass" : "comment",
					"text" : "edge detection",
					"textcolor" : [ 1.0, 1.0, 1.0, 1.0 ],
					"fontsize" : 9.873845,
					"frgb" : [ 1.0, 1.0, 1.0, 1.0 ],
					"numinlets" : 1,
					"numoutlets" : 0,
					"patching_rect" : [ 24.0, 57.0, 242.0, 18.0 ],
					"id" : "obj-11",
					"fontname" : "Verdana"
				}

			}
, 			{
				"box" : 				{
					"maxclass" : "newobj",
					"text" : "loadmess set",
					"fontsize" : 9.873845,
					"hidden" : 1,
					"numinlets" : 1,
					"numoutlets" : 1,
					"patching_rect" : [ 534.0, 216.0, 73.0, 18.0 ],
					"id" : "obj-13",
					"fontname" : "Verdana",
					"outlettype" : [ "" ]
				}

			}
, 			{
				"box" : 				{
					"maxclass" : "message",
					"text" : "/thresh 1.28",
					"fontsize" : 9.873845,
					"numinlets" : 2,
					"numoutlets" : 1,
					"patching_rect" : [ 355.0, 219.0, 174.0, 16.0 ],
					"id" : "obj-14",
					"fontname" : "Verdana",
					"outlettype" : [ "" ]
				}

			}
, 			{
				"box" : 				{
					"maxclass" : "jit.pwindow",
					"numinlets" : 1,
					"numoutlets" : 2,
					"patching_rect" : [ 355.0, 262.0, 320.0, 240.0 ],
					"id" : "obj-16",
					"outlettype" : [ "", "" ],
					"depthbuffer" : 0
				}

			}
, 			{
				"box" : 				{
					"maxclass" : "bpatcher",
					"varname" : "jmod.edge%",
					"args" : [ "/edge%" ],
					"presentation_rect" : [ 0.0, 0.0, 300.0, 70.0 ],
					"lockeddragscroll" : 1,
					"numinlets" : 2,
					"numoutlets" : 2,
					"patching_rect" : [ 355.0, 134.0, 300.0, 70.0 ],
					"id" : "obj-17",
					"outlettype" : [ "", "" ],
					"name" : "jmod.edge%.maxpat"
				}

			}
, 			{
				"box" : 				{
					"maxclass" : "panel",
					"numinlets" : 1,
					"numoutlets" : 0,
					"patching_rect" : [ 15.0, 18.0, 273.0, 63.0 ],
					"id" : "obj-18",
					"rounded" : 15
				}

			}
 ],
		"lines" : [ 			{
				"patchline" : 				{
					"source" : [ "obj-17", 1 ],
					"destination" : [ "obj-16", 0 ],
					"hidden" : 0,
					"midpoints" : [ 645.5, 244.0, 364.5, 244.0 ]
				}

			}
, 			{
				"patchline" : 				{
					"source" : [ "obj-1", 1 ],
					"destination" : [ "obj-17", 1 ],
					"hidden" : 0,
					"midpoints" : [  ]
				}

			}
, 			{
				"patchline" : 				{
					"source" : [ "obj-17", 0 ],
					"destination" : [ "obj-14", 1 ],
					"hidden" : 0,
					"midpoints" : [ 364.5, 211.0, 519.5, 211.0 ]
				}

			}
, 			{
				"patchline" : 				{
					"source" : [ "obj-13", 0 ],
					"destination" : [ "obj-14", 0 ],
					"hidden" : 1,
					"midpoints" : [ 543.5, 216.0, 364.5, 216.0 ]
				}

			}
, 			{
				"patchline" : 				{
					"source" : [ "obj-9", 0 ],
					"destination" : [ "obj-8", 0 ],
					"hidden" : 1,
					"midpoints" : [  ]
				}

			}
 ]
	}

}
