#N canvas 448 282 655 400 10;
#X obj 121 158 jcom_op=;
#X msg 168 111 operator /;
#X msg 246 111 operator +;
#X msg 360 111 operand \$1;
#X floatatom 360 86 5 0 0 0 - - -;
#X connect 1 0 0 0;
#X connect 2 0 0 0;
#X connect 3 0 0 0;
#X connect 4 0 3 0;
