{
	"patcher" : 	{
		"fileversion" : 1,
		"rect" : [ 367.0, 142.0, 614.0, 486.0 ],
		"bglocked" : 0,
		"defrect" : [ 367.0, 142.0, 614.0, 486.0 ],
		"openrect" : [ 0.0, 0.0, 0.0, 0.0 ],
		"openinpresentation" : 0,
		"default_fontsize" : 10.0,
		"default_fontface" : 0,
		"default_fontname" : "Verdana",
		"gridonopen" : 0,
		"gridsize" : [ 5.0, 5.0 ],
		"gridsnaponopen" : 0,
		"toolbarvisible" : 1,
		"boxanimatetime" : 200,
		"imprint" : 0,
		"metadata" : [  ],
		"boxes" : [ 			{
				"box" : 				{
					"maxclass" : "newobj",
					"text" : "t 54 100",
					"outlettype" : [ "int", "int" ],
					"patching_rect" : [ 275.0, 225.0, 60.0, 19.0 ],
					"id" : "obj-1",
					"fontname" : "Verdana",
					"numinlets" : 1,
					"fontsize" : 10.0,
					"numoutlets" : 2,
					"hidden" : 1
				}

			}
, 			{
				"box" : 				{
					"maxclass" : "message",
					"text" : "1, loop 1, modout 1",
					"outlettype" : [ "" ],
					"patching_rect" : [ 130.0, 210.0, 113.0, 17.0 ],
					"id" : "obj-2",
					"fontname" : "Verdana",
					"numinlets" : 2,
					"fontsize" : 10.0,
					"numoutlets" : 1
				}

			}
, 			{
				"box" : 				{
					"maxclass" : "newobj",
					"text" : "loadbang",
					"outlettype" : [ "bang" ],
					"patching_rect" : [ 275.0, 200.0, 56.0, 19.0 ],
					"id" : "obj-3",
					"fontname" : "Verdana",
					"numinlets" : 1,
					"fontsize" : 10.0,
					"numoutlets" : 1,
					"hidden" : 1
				}

			}
, 			{
				"box" : 				{
					"maxclass" : "comment",
					"text" : "mixed and gained output",
					"linecount" : 2,
					"frgb" : [ 0.658824, 0.658824, 0.658824, 1.0 ],
					"patching_rect" : [ 319.0, 151.0, 109.0, 31.0 ],
					"id" : "obj-4",
					"fontname" : "Verdana",
					"numinlets" : 1,
					"fontsize" : 10.0,
					"numoutlets" : 0
				}

			}
, 			{
				"box" : 				{
					"maxclass" : "comment",
					"text" : "wet input",
					"frgb" : [ 0.658824, 0.658824, 0.658824, 1.0 ],
					"patching_rect" : [ 404.0, 106.0, 70.0, 19.0 ],
					"id" : "obj-5",
					"fontname" : "Verdana",
					"numinlets" : 1,
					"fontsize" : 10.0,
					"numoutlets" : 0
				}

			}
, 			{
				"box" : 				{
					"maxclass" : "panel",
					"patching_rect" : [ 402.0, 102.0, 71.0, 20.0 ],
					"id" : "obj-6",
					"rounded" : 15,
					"numinlets" : 1,
					"numoutlets" : 0
				}

			}
, 			{
				"box" : 				{
					"maxclass" : "comment",
					"text" : "dumpout",
					"frgb" : [ 0.658824, 0.658824, 0.658824, 1.0 ],
					"patching_rect" : [ 464.0, 151.0, 58.0, 19.0 ],
					"id" : "obj-7",
					"fontname" : "Verdana",
					"numinlets" : 1,
					"fontsize" : 10.0,
					"numoutlets" : 0
				}

			}
, 			{
				"box" : 				{
					"maxclass" : "comment",
					"text" : "dry input",
					"frgb" : [ 0.658824, 0.658824, 0.658824, 1.0 ],
					"patching_rect" : [ 319.0, 106.0, 70.0, 19.0 ],
					"id" : "obj-8",
					"fontname" : "Verdana",
					"numinlets" : 1,
					"fontsize" : 10.0,
					"numoutlets" : 0
				}

			}
, 			{
				"box" : 				{
					"maxclass" : "newobj",
					"text" : "tt.gain~ 4",
					"outlettype" : [ "signal", "signal", "signal", "signal", "" ],
					"patching_rect" : [ 316.0, 127.0, 163.5, 19.0 ],
					"id" : "obj-9",
					"fontname" : "Verdana",
					"numinlets" : 8,
					"fontsize" : 10.0,
					"numoutlets" : 5
				}

			}
, 			{
				"box" : 				{
					"maxclass" : "panel",
					"patching_rect" : [ 316.0, 103.0, 71.0, 20.0 ],
					"id" : "obj-10",
					"rounded" : 15,
					"numinlets" : 1,
					"numoutlets" : 0
				}

			}
, 			{
				"box" : 				{
					"maxclass" : "comment",
					"text" : "N channels of processed (mixed and gained) signal",
					"frgb" : [ 0.658824, 0.658824, 0.658824, 1.0 ],
					"patching_rect" : [ 31.0, 167.0, 277.0, 19.0 ],
					"id" : "obj-11",
					"fontname" : "Verdana",
					"numinlets" : 1,
					"fontsize" : 10.0,
					"numoutlets" : 0
				}

			}
, 			{
				"box" : 				{
					"maxclass" : "comment",
					"text" : "Outlets:",
					"frgb" : [ 0.658824, 0.658824, 0.658824, 1.0 ],
					"patching_rect" : [ 10.0, 153.0, 49.0, 19.0 ],
					"id" : "obj-12",
					"fontname" : "Verdana",
					"numinlets" : 1,
					"fontsize" : 10.0,
					"numoutlets" : 0
				}

			}
, 			{
				"box" : 				{
					"maxclass" : "comment",
					"text" : "the number of channels (default 1)",
					"frgb" : [ 0.658824, 0.658824, 0.658824, 1.0 ],
					"patching_rect" : [ 31.0, 86.0, 243.0, 19.0 ],
					"id" : "obj-13",
					"fontname" : "Verdana",
					"numinlets" : 1,
					"fontsize" : 10.0,
					"numoutlets" : 0
				}

			}
, 			{
				"box" : 				{
					"maxclass" : "comment",
					"text" : "If number of channels is N, the first N inlets are raw input, and the next N inlets are for wet signal",
					"linecount" : 2,
					"frgb" : [ 0.658824, 0.658824, 0.658824, 1.0 ],
					"patching_rect" : [ 31.0, 122.0, 263.0, 31.0 ],
					"id" : "obj-14",
					"fontname" : "Verdana",
					"numinlets" : 1,
					"fontsize" : 10.0,
					"numoutlets" : 0
				}

			}
, 			{
				"box" : 				{
					"maxclass" : "comment",
					"text" : "wet",
					"frgb" : [ 0.658824, 0.658824, 0.658824, 1.0 ],
					"patching_rect" : [ 438.0, 305.0, 27.0, 19.0 ],
					"id" : "obj-15",
					"fontname" : "Verdana",
					"numinlets" : 1,
					"fontsize" : 10.0,
					"numoutlets" : 0
				}

			}
, 			{
				"box" : 				{
					"maxclass" : "message",
					"text" : "stop",
					"outlettype" : [ "" ],
					"patching_rect" : [ 97.0, 385.0, 30.0, 17.0 ],
					"id" : "obj-16",
					"fontname" : "Verdana",
					"numinlets" : 2,
					"fontsize" : 10.0,
					"numoutlets" : 1
				}

			}
, 			{
				"box" : 				{
					"maxclass" : "message",
					"text" : "startwindow",
					"outlettype" : [ "" ],
					"patching_rect" : [ 15.0, 385.0, 73.0, 17.0 ],
					"id" : "obj-17",
					"fontname" : "Verdana",
					"numinlets" : 2,
					"fontsize" : 10.0,
					"numoutlets" : 1
				}

			}
, 			{
				"box" : 				{
					"maxclass" : "newobj",
					"text" : "dac~",
					"patching_rect" : [ 130.0, 415.0, 46.0, 19.0 ],
					"id" : "obj-18",
					"fontname" : "Verdana",
					"numinlets" : 2,
					"fontsize" : 10.0,
					"numoutlets" : 0
				}

			}
, 			{
				"box" : 				{
					"maxclass" : "newobj",
					"text" : "p vertigo",
					"outlettype" : [ "signal", "signal" ],
					"patching_rect" : [ 165.0, 300.0, 53.0, 19.0 ],
					"id" : "obj-19",
					"fontname" : "Verdana",
					"numinlets" : 2,
					"fontsize" : 10.0,
					"numoutlets" : 2,
					"patcher" : 					{
						"fileversion" : 1,
						"rect" : [ 317.0, 264.0, 493.0, 278.0 ],
						"bglocked" : 0,
						"defrect" : [ 317.0, 264.0, 493.0, 278.0 ],
						"openrect" : [ 0.0, 0.0, 0.0, 0.0 ],
						"openinpresentation" : 0,
						"default_fontsize" : 10.0,
						"default_fontface" : 0,
						"default_fontname" : "Verdana",
						"gridonopen" : 0,
						"gridsize" : [ 5.0, 5.0 ],
						"gridsnaponopen" : 0,
						"toolbarvisible" : 1,
						"boxanimatetime" : 200,
						"imprint" : 0,
						"metadata" : [  ],
						"boxes" : [ 							{
								"box" : 								{
									"maxclass" : "newobj",
									"text" : "*~ 0.35",
									"outlettype" : [ "signal" ],
									"patching_rect" : [ 57.0, 64.0, 45.0, 17.0 ],
									"id" : "obj-1",
									"fontname" : "Verdana",
									"numinlets" : 2,
									"fontsize" : 9.0,
									"numoutlets" : 1
								}

							}
, 							{
								"box" : 								{
									"maxclass" : "newobj",
									"text" : "*~ 0.35",
									"linecount" : 2,
									"outlettype" : [ "signal" ],
									"patching_rect" : [ 154.0, 63.0, 38.0, 28.0 ],
									"id" : "obj-2",
									"fontname" : "Verdana",
									"numinlets" : 2,
									"fontsize" : 9.0,
									"numoutlets" : 1
								}

							}
, 							{
								"box" : 								{
									"maxclass" : "newobj",
									"text" : "tapout~ 500",
									"outlettype" : [ "signal" ],
									"patching_rect" : [ 200.0, 111.0, 65.0, 17.0 ],
									"id" : "obj-3",
									"fontname" : "Verdana",
									"numinlets" : 1,
									"fontsize" : 9.0,
									"numoutlets" : 1
								}

							}
, 							{
								"box" : 								{
									"maxclass" : "newobj",
									"text" : "tapin~ 1000",
									"outlettype" : [ "tapconnect" ],
									"patching_rect" : [ 200.0, 87.0, 65.0, 17.0 ],
									"id" : "obj-4",
									"fontname" : "Verdana",
									"numinlets" : 1,
									"fontsize" : 9.0,
									"numoutlets" : 1
								}

							}
, 							{
								"box" : 								{
									"maxclass" : "newobj",
									"text" : "tapout~ 750",
									"linecount" : 2,
									"outlettype" : [ "signal" ],
									"patching_rect" : [ 35.0, 111.0, 57.0, 28.0 ],
									"id" : "obj-5",
									"fontname" : "Verdana",
									"numinlets" : 1,
									"fontsize" : 9.0,
									"numoutlets" : 1
								}

							}
, 							{
								"box" : 								{
									"maxclass" : "newobj",
									"text" : "tapin~ 1000",
									"linecount" : 2,
									"outlettype" : [ "tapconnect" ],
									"patching_rect" : [ 35.0, 87.0, 56.0, 28.0 ],
									"id" : "obj-6",
									"fontname" : "Verdana",
									"numinlets" : 1,
									"fontsize" : 9.0,
									"numoutlets" : 1
								}

							}
, 							{
								"box" : 								{
									"maxclass" : "flonum",
									"outlettype" : [ "float", "bang" ],
									"bgcolor" : [ 0.866667, 0.866667, 0.866667, 1.0 ],
									"patching_rect" : [ 349.0, 119.0, 35.0, 17.0 ],
									"id" : "obj-7",
									"fontname" : "Verdana",
									"textcolor" : [ 0.0, 0.0, 0.0, 1.0 ],
									"htextcolor" : [ 0.870588, 0.870588, 0.870588, 1.0 ],
									"triscale" : 0.9,
									"numinlets" : 1,
									"fontsize" : 9.0,
									"numoutlets" : 2
								}

							}
, 							{
								"box" : 								{
									"maxclass" : "outlet",
									"patching_rect" : [ 200.0, 217.0, 15.0, 15.0 ],
									"id" : "obj-8",
									"numinlets" : 1,
									"numoutlets" : 0,
									"comment" : ""
								}

							}
, 							{
								"box" : 								{
									"maxclass" : "outlet",
									"patching_rect" : [ 35.0, 217.0, 15.0, 15.0 ],
									"id" : "obj-9",
									"numinlets" : 1,
									"numoutlets" : 0,
									"comment" : ""
								}

							}
, 							{
								"box" : 								{
									"maxclass" : "inlet",
									"outlettype" : [ "signal" ],
									"patching_rect" : [ 200.0, 65.0, 15.0, 15.0 ],
									"id" : "obj-10",
									"numinlets" : 0,
									"numoutlets" : 1,
									"comment" : ""
								}

							}
, 							{
								"box" : 								{
									"maxclass" : "inlet",
									"outlettype" : [ "signal" ],
									"patching_rect" : [ 35.0, 65.0, 15.0, 15.0 ],
									"id" : "obj-11",
									"numinlets" : 0,
									"numoutlets" : 1,
									"comment" : ""
								}

							}
, 							{
								"box" : 								{
									"maxclass" : "newobj",
									"text" : "loadmess -200",
									"linecount" : 2,
									"outlettype" : [ "" ],
									"patching_rect" : [ 349.0, 93.0, 69.0, 28.0 ],
									"id" : "obj-12",
									"fontname" : "Verdana",
									"numinlets" : 1,
									"fontsize" : 9.0,
									"numoutlets" : 1
								}

							}
, 							{
								"box" : 								{
									"maxclass" : "newobj",
									"text" : "freqshift~ -50",
									"outlettype" : [ "signal", "signal" ],
									"patching_rect" : [ 200.0, 179.0, 72.0, 17.0 ],
									"id" : "obj-13",
									"fontname" : "Verdana",
									"numinlets" : 2,
									"fontsize" : 9.0,
									"numoutlets" : 2
								}

							}
, 							{
								"box" : 								{
									"maxclass" : "newobj",
									"text" : "freqshift~ -50",
									"outlettype" : [ "signal", "signal" ],
									"patching_rect" : [ 35.0, 179.0, 72.0, 17.0 ],
									"id" : "obj-14",
									"fontname" : "Verdana",
									"numinlets" : 2,
									"fontsize" : 9.0,
									"numoutlets" : 2
								}

							}
 ],
						"lines" : [ 							{
								"patchline" : 								{
									"source" : [ "obj-1", 0 ],
									"destination" : [ "obj-6", 0 ],
									"hidden" : 0,
									"midpoints" : [ 66.5, 85.0, 44.5, 85.0 ]
								}

							}
, 							{
								"patchline" : 								{
									"source" : [ "obj-11", 0 ],
									"destination" : [ "obj-6", 0 ],
									"hidden" : 0,
									"midpoints" : [  ]
								}

							}
, 							{
								"patchline" : 								{
									"source" : [ "obj-6", 0 ],
									"destination" : [ "obj-5", 0 ],
									"hidden" : 0,
									"midpoints" : [  ]
								}

							}
, 							{
								"patchline" : 								{
									"source" : [ "obj-5", 0 ],
									"destination" : [ "obj-14", 0 ],
									"hidden" : 0,
									"midpoints" : [  ]
								}

							}
, 							{
								"patchline" : 								{
									"source" : [ "obj-14", 0 ],
									"destination" : [ "obj-9", 0 ],
									"hidden" : 0,
									"midpoints" : [  ]
								}

							}
, 							{
								"patchline" : 								{
									"source" : [ "obj-13", 0 ],
									"destination" : [ "obj-1", 0 ],
									"hidden" : 0,
									"midpoints" : [ 209.5, 208.0, 121.0, 208.0, 121.0, 55.0, 66.5, 55.0 ]
								}

							}
, 							{
								"patchline" : 								{
									"source" : [ "obj-7", 0 ],
									"destination" : [ "obj-14", 1 ],
									"hidden" : 0,
									"midpoints" : [  ]
								}

							}
, 							{
								"patchline" : 								{
									"source" : [ "obj-14", 0 ],
									"destination" : [ "obj-2", 0 ],
									"hidden" : 0,
									"midpoints" : [ 44.5, 203.0, 132.0, 203.0, 132.0, 56.0, 163.5, 56.0 ]
								}

							}
, 							{
								"patchline" : 								{
									"source" : [ "obj-2", 0 ],
									"destination" : [ "obj-4", 0 ],
									"hidden" : 0,
									"midpoints" : [ 163.5, 84.0, 209.5, 84.0 ]
								}

							}
, 							{
								"patchline" : 								{
									"source" : [ "obj-10", 0 ],
									"destination" : [ "obj-4", 0 ],
									"hidden" : 0,
									"midpoints" : [  ]
								}

							}
, 							{
								"patchline" : 								{
									"source" : [ "obj-4", 0 ],
									"destination" : [ "obj-3", 0 ],
									"hidden" : 0,
									"midpoints" : [  ]
								}

							}
, 							{
								"patchline" : 								{
									"source" : [ "obj-3", 0 ],
									"destination" : [ "obj-13", 0 ],
									"hidden" : 0,
									"midpoints" : [  ]
								}

							}
, 							{
								"patchline" : 								{
									"source" : [ "obj-13", 0 ],
									"destination" : [ "obj-8", 0 ],
									"hidden" : 0,
									"midpoints" : [  ]
								}

							}
, 							{
								"patchline" : 								{
									"source" : [ "obj-7", 0 ],
									"destination" : [ "obj-13", 1 ],
									"hidden" : 0,
									"midpoints" : [  ]
								}

							}
, 							{
								"patchline" : 								{
									"source" : [ "obj-12", 0 ],
									"destination" : [ "obj-7", 0 ],
									"hidden" : 0,
									"midpoints" : [  ]
								}

							}
 ]
					}
,
					"saved_object_attributes" : 					{
						"default_fontname" : "Verdana",
						"fontname" : "Verdana",
						"default_fontsize" : 10.0,
						"globalpatchername" : "",
						"fontface" : 0,
						"fontsize" : 10.0,
						"default_fontface" : 0
					}

				}

			}
, 			{
				"box" : 				{
					"maxclass" : "comment",
					"text" : "tt.gain~",
					"frgb" : [ 0.658824, 0.658824, 0.658824, 1.0 ],
					"patching_rect" : [ 10.0, 10.0, 93.0, 24.0 ],
					"id" : "obj-20",
					"fontname" : "Verdana",
					"numinlets" : 1,
					"fontsize" : 14.0,
					"numoutlets" : 0
				}

			}
, 			{
				"box" : 				{
					"maxclass" : "comment",
					"text" : "Control level as well as dry/wet mix",
					"frgb" : [ 0.658824, 0.658824, 0.658824, 1.0 ],
					"patching_rect" : [ 10.0, 35.0, 399.0, 19.0 ],
					"id" : "obj-21",
					"fontname" : "Verdana",
					"numinlets" : 1,
					"fontsize" : 10.0,
					"numoutlets" : 0
				}

			}
, 			{
				"box" : 				{
					"maxclass" : "panel",
					"patching_rect" : [ 5.0, 5.0, 400.0, 50.0 ],
					"id" : "obj-22",
					"rounded" : 15,
					"numinlets" : 1,
					"numoutlets" : 0
				}

			}
, 			{
				"box" : 				{
					"maxclass" : "flonum",
					"outlettype" : [ "float", "bang" ],
					"patching_rect" : [ 467.0, 286.0, 48.0, 19.0 ],
					"id" : "obj-23",
					"fontname" : "Verdana",
					"triscale" : 0.9,
					"numinlets" : 1,
					"fontsize" : 10.0,
					"numoutlets" : 2
				}

			}
, 			{
				"box" : 				{
					"maxclass" : "slider",
					"outlettype" : [ "" ],
					"patching_rect" : [ 321.0, 286.0, 144.0, 15.0 ],
					"id" : "obj-24",
					"orientation" : 1,
					"size" : 101.0,
					"numinlets" : 1,
					"numoutlets" : 1
				}

			}
, 			{
				"box" : 				{
					"maxclass" : "message",
					"text" : "mix $1",
					"outlettype" : [ "" ],
					"patching_rect" : [ 520.0, 285.0, 45.0, 17.0 ],
					"id" : "obj-25",
					"fontname" : "Verdana",
					"numinlets" : 2,
					"fontsize" : 10.0,
					"numoutlets" : 1
				}

			}
, 			{
				"box" : 				{
					"maxclass" : "flonum",
					"outlettype" : [ "float", "bang" ],
					"patching_rect" : [ 467.0, 259.0, 48.0, 19.0 ],
					"id" : "obj-26",
					"fontname" : "Verdana",
					"triscale" : 0.9,
					"numinlets" : 1,
					"fontsize" : 10.0,
					"numoutlets" : 2
				}

			}
, 			{
				"box" : 				{
					"maxclass" : "slider",
					"outlettype" : [ "" ],
					"patching_rect" : [ 321.0, 259.0, 144.0, 15.0 ],
					"id" : "obj-27",
					"orientation" : 1,
					"numinlets" : 1,
					"numoutlets" : 1
				}

			}
, 			{
				"box" : 				{
					"maxclass" : "message",
					"text" : "gain $1",
					"outlettype" : [ "" ],
					"patching_rect" : [ 520.0, 260.0, 48.0, 17.0 ],
					"id" : "obj-28",
					"fontname" : "Verdana",
					"numinlets" : 2,
					"fontsize" : 10.0,
					"numoutlets" : 1
				}

			}
, 			{
				"box" : 				{
					"maxclass" : "toggle",
					"outlettype" : [ "int" ],
					"patching_rect" : [ 488.0, 315.0, 15.0, 15.0 ],
					"id" : "obj-29",
					"numinlets" : 1,
					"numoutlets" : 1
				}

			}
, 			{
				"box" : 				{
					"maxclass" : "message",
					"text" : "bypass $1",
					"outlettype" : [ "" ],
					"patching_rect" : [ 504.0, 315.0, 62.0, 17.0 ],
					"id" : "obj-30",
					"fontname" : "Verdana",
					"numinlets" : 2,
					"fontsize" : 10.0,
					"numoutlets" : 1
				}

			}
, 			{
				"box" : 				{
					"maxclass" : "message",
					"text" : "open",
					"outlettype" : [ "" ],
					"patching_rect" : [ 95.0, 210.0, 33.0, 17.0 ],
					"id" : "obj-31",
					"fontname" : "Verdana",
					"numinlets" : 2,
					"fontsize" : 10.0,
					"numoutlets" : 1
				}

			}
, 			{
				"box" : 				{
					"maxclass" : "comment",
					"text" : "processed",
					"frgb" : [ 0.658824, 0.658824, 0.658824, 1.0 ],
					"patching_rect" : [ 205.0, 335.0, 59.0, 19.0 ],
					"id" : "obj-32",
					"fontname" : "Verdana",
					"numinlets" : 1,
					"fontsize" : 10.0,
					"numoutlets" : 0
				}

			}
, 			{
				"box" : 				{
					"maxclass" : "jcom.meter~",
					"patching_rect" : [ 190.0, 405.0, 100.0, 12.0 ],
					"id" : "obj-33",
					"numinlets" : 1,
					"numoutlets" : 0
				}

			}
, 			{
				"box" : 				{
					"maxclass" : "jcom.meter~",
					"patching_rect" : [ 295.0, 405.0, 100.0, 12.0 ],
					"id" : "obj-34",
					"numinlets" : 1,
					"numoutlets" : 0
				}

			}
, 			{
				"box" : 				{
					"maxclass" : "newobj",
					"text" : "sfplay~ 2",
					"outlettype" : [ "signal", "signal", "bang" ],
					"patching_rect" : [ 130.0, 240.0, 58.0, 19.0 ],
					"id" : "obj-35",
					"fontname" : "Verdana",
					"numinlets" : 2,
					"fontsize" : 10.0,
					"numoutlets" : 3,
					"save" : [ "#N", "sfplay~", "", 2, 120960, 0, "", ";" ]
				}

			}
, 			{
				"box" : 				{
					"maxclass" : "newobj",
					"text" : "tt.gain~ 2",
					"outlettype" : [ "signal", "signal", "" ],
					"patching_rect" : [ 130.0, 370.0, 72.0, 19.0 ],
					"id" : "obj-36",
					"fontname" : "Verdana",
					"numinlets" : 4,
					"fontsize" : 10.0,
					"numoutlets" : 3
				}

			}
, 			{
				"box" : 				{
					"maxclass" : "comment",
					"text" : "raw",
					"frgb" : [ 0.658824, 0.658824, 0.658824, 1.0 ],
					"patching_rect" : [ 95.0, 340.0, 29.0, 19.0 ],
					"id" : "obj-37",
					"fontname" : "Verdana",
					"numinlets" : 1,
					"fontsize" : 10.0,
					"numoutlets" : 0
				}

			}
, 			{
				"box" : 				{
					"maxclass" : "comment",
					"text" : "Argument:",
					"frgb" : [ 0.658824, 0.658824, 0.658824, 1.0 ],
					"patching_rect" : [ 10.0, 71.0, 243.0, 19.0 ],
					"id" : "obj-38",
					"fontname" : "Verdana",
					"numinlets" : 1,
					"fontsize" : 10.0,
					"numoutlets" : 0
				}

			}
, 			{
				"box" : 				{
					"maxclass" : "comment",
					"text" : "dry",
					"frgb" : [ 0.658824, 0.658824, 0.658824, 1.0 ],
					"patching_rect" : [ 321.0, 305.0, 27.0, 19.0 ],
					"id" : "obj-39",
					"fontname" : "Verdana",
					"numinlets" : 1,
					"fontsize" : 10.0,
					"numoutlets" : 0
				}

			}
, 			{
				"box" : 				{
					"maxclass" : "panel",
					"patching_rect" : [ 316.0, 248.0, 261.0, 91.0 ],
					"id" : "obj-40",
					"rounded" : 15,
					"numinlets" : 1,
					"numoutlets" : 0
				}

			}
, 			{
				"box" : 				{
					"maxclass" : "comment",
					"text" : "Inlets:",
					"frgb" : [ 0.658824, 0.658824, 0.658824, 1.0 ],
					"patching_rect" : [ 10.0, 104.0, 108.0, 19.0 ],
					"id" : "obj-41",
					"fontname" : "Verdana",
					"numinlets" : 1,
					"fontsize" : 10.0,
					"numoutlets" : 0
				}

			}
, 			{
				"box" : 				{
					"maxclass" : "panel",
					"patching_rect" : [ 461.0, 148.0, 56.0, 20.0 ],
					"id" : "obj-42",
					"rounded" : 15,
					"numinlets" : 1,
					"numoutlets" : 0
				}

			}
, 			{
				"box" : 				{
					"maxclass" : "panel",
					"patching_rect" : [ 316.0, 148.0, 124.0, 37.0 ],
					"id" : "obj-43",
					"rounded" : 15,
					"numinlets" : 1,
					"numoutlets" : 0
				}

			}
, 			{
				"box" : 				{
					"maxclass" : "panel",
					"patching_rect" : [ 185.0, 395.0, 221.0, 39.0 ],
					"id" : "obj-44",
					"rounded" : 15,
					"numinlets" : 1,
					"numoutlets" : 0
				}

			}
 ],
		"lines" : [ 			{
				"patchline" : 				{
					"source" : [ "obj-2", 0 ],
					"destination" : [ "obj-35", 0 ],
					"hidden" : 0,
					"midpoints" : [  ]
				}

			}
, 			{
				"patchline" : 				{
					"source" : [ "obj-31", 0 ],
					"destination" : [ "obj-35", 0 ],
					"hidden" : 0,
					"midpoints" : [  ]
				}

			}
, 			{
				"patchline" : 				{
					"source" : [ "obj-17", 0 ],
					"destination" : [ "obj-18", 0 ],
					"hidden" : 0,
					"midpoints" : [ 24.5, 408.0, 139.5, 408.0 ]
				}

			}
, 			{
				"patchline" : 				{
					"source" : [ "obj-16", 0 ],
					"destination" : [ "obj-18", 0 ],
					"hidden" : 0,
					"midpoints" : [ 106.5, 408.0, 139.5, 408.0 ]
				}

			}
, 			{
				"patchline" : 				{
					"source" : [ "obj-35", 0 ],
					"destination" : [ "obj-19", 0 ],
					"hidden" : 0,
					"midpoints" : [  ]
				}

			}
, 			{
				"patchline" : 				{
					"source" : [ "obj-35", 1 ],
					"destination" : [ "obj-19", 1 ],
					"hidden" : 0,
					"midpoints" : [  ]
				}

			}
, 			{
				"patchline" : 				{
					"source" : [ "obj-3", 0 ],
					"destination" : [ "obj-1", 0 ],
					"hidden" : 1,
					"midpoints" : [  ]
				}

			}
, 			{
				"patchline" : 				{
					"source" : [ "obj-1", 1 ],
					"destination" : [ "obj-27", 0 ],
					"hidden" : 1,
					"midpoints" : [  ]
				}

			}
, 			{
				"patchline" : 				{
					"source" : [ "obj-1", 0 ],
					"destination" : [ "obj-24", 0 ],
					"hidden" : 1,
					"midpoints" : [  ]
				}

			}
, 			{
				"patchline" : 				{
					"source" : [ "obj-27", 0 ],
					"destination" : [ "obj-26", 0 ],
					"hidden" : 1,
					"midpoints" : [  ]
				}

			}
, 			{
				"patchline" : 				{
					"source" : [ "obj-24", 0 ],
					"destination" : [ "obj-23", 0 ],
					"hidden" : 1,
					"midpoints" : [  ]
				}

			}
, 			{
				"patchline" : 				{
					"source" : [ "obj-26", 0 ],
					"destination" : [ "obj-28", 0 ],
					"hidden" : 1,
					"midpoints" : [  ]
				}

			}
, 			{
				"patchline" : 				{
					"source" : [ "obj-23", 0 ],
					"destination" : [ "obj-25", 0 ],
					"hidden" : 1,
					"midpoints" : [  ]
				}

			}
, 			{
				"patchline" : 				{
					"source" : [ "obj-29", 0 ],
					"destination" : [ "obj-30", 0 ],
					"hidden" : 1,
					"midpoints" : [  ]
				}

			}
, 			{
				"patchline" : 				{
					"source" : [ "obj-19", 1 ],
					"destination" : [ "obj-36", 3 ],
					"hidden" : 0,
					"midpoints" : [ 208.5, 327.0, 192.5, 327.0 ]
				}

			}
, 			{
				"patchline" : 				{
					"source" : [ "obj-36", 0 ],
					"destination" : [ "obj-33", 0 ],
					"hidden" : 0,
					"midpoints" : [  ]
				}

			}
, 			{
				"patchline" : 				{
					"source" : [ "obj-36", 1 ],
					"destination" : [ "obj-34", 0 ],
					"hidden" : 0,
					"midpoints" : [  ]
				}

			}
, 			{
				"patchline" : 				{
					"source" : [ "obj-19", 0 ],
					"destination" : [ "obj-36", 2 ],
					"hidden" : 0,
					"midpoints" : [  ]
				}

			}
, 			{
				"patchline" : 				{
					"source" : [ "obj-36", 1 ],
					"destination" : [ "obj-18", 1 ],
					"hidden" : 0,
					"midpoints" : [  ]
				}

			}
, 			{
				"patchline" : 				{
					"source" : [ "obj-35", 1 ],
					"destination" : [ "obj-36", 1 ],
					"hidden" : 0,
					"midpoints" : [  ]
				}

			}
, 			{
				"patchline" : 				{
					"source" : [ "obj-36", 0 ],
					"destination" : [ "obj-18", 0 ],
					"hidden" : 0,
					"midpoints" : [  ]
				}

			}
, 			{
				"patchline" : 				{
					"source" : [ "obj-30", 0 ],
					"destination" : [ "obj-36", 0 ],
					"hidden" : 1,
					"midpoints" : [ 513.5, 362.0, 139.5, 362.0 ]
				}

			}
, 			{
				"patchline" : 				{
					"source" : [ "obj-28", 0 ],
					"destination" : [ "obj-36", 0 ],
					"hidden" : 1,
					"midpoints" : [ 529.5, 276.0, 571.0, 276.0, 571.0, 362.0, 139.5, 362.0 ]
				}

			}
, 			{
				"patchline" : 				{
					"source" : [ "obj-25", 0 ],
					"destination" : [ "obj-36", 0 ],
					"hidden" : 1,
					"midpoints" : [ 529.5, 303.0, 571.0, 303.0, 571.0, 362.0, 139.5, 362.0 ]
				}

			}
, 			{
				"patchline" : 				{
					"source" : [ "obj-35", 0 ],
					"destination" : [ "obj-36", 0 ],
					"hidden" : 0,
					"midpoints" : [  ]
				}

			}
 ]
	}

}
