max v2;#N vpatcher 10 59 862 560;#P window setfont "Sans Serif" 9.;#P newex 67 79 127 196617 jcom.oscroute /transpose;#N comlet unvoiced signal;#P outlet 234 438 15 0;#P newex 234 416 185 196617 gbr.drain~ $0_psola.unvoiced_out 500;#P comment 713 418 68 196617 output buffer;#P comment 243 150 236 196617 window two analysed periods to obtain wave form;#P comment 243 194 176 196617 separate voiced and unvoiced periods;#P comment 282 250 217 196617 paste unvoided period directly to output buffer;#P newex 234 304 105 196617 ftm.copy fmat $wave;#N vpatcher 643 165 1176 673;#P window setfont "Sans Serif" 9.;#P window linecount 0;#P newex 292 313 50 196617 f;#P newex 292 170 50 196617 t f f;#P window linecount 1;#P message 353 142 23 196617 0.;#P newex 292 118 71 196617 split 50. 400.;#P outlet 292 381 15 0;#P inlet 179 79 15 0;#P inlet 292 79 15 0;#P outlet 196 381 15 0;#P outlet 119 381 15 0;#P window linecount 0;#P newex 119 256 27 196617 + 1;#P newex 119 313 87 196617 gate 2;#P newex 119 233 34 196617 == 0.;#P window linecount 1;#P newex 179 170 27 196617 t b l;#P connect 11 0 1 0;#P connect 1 0 3 0;#P connect 3 0 2 0;#P connect 2 0 4 0;#P connect 7 0 0 0;#P connect 0 1 2 1;#P connect 2 1 5 0;#P connect 6 0 9 0;#P connect 10 0 11 0;#P connect 9 0 11 0;#P connect 0 0 12 0;#P connect 12 0 8 0;#P connect 11 1 12 1;#P connect 9 1 10 0;#P pop;#P newobj 234 211 91 196617 p voiced/unvoiced;#P user ftm.object 234 377 37 19 3 10;#T _#aa $0_ $1_ $2_ $3_ $4_ $5_ $6_ $7_ $8_ $9_;#T _#scope begin;#T _#obj 1 fmat;#T _#def 0 _fmat wave local;#T _#scope end;#P newex 533 324 149 196617 gbr.paste $0_psola.voiced_out;#P newex 274 265 159 196617 gbr.paste $0_psola.unvoiced_out;#P newex 234 166 75 196617 gbr.wind= hann;#P window setfont "Sans Serif" 18.;#P newex 234 114 255 196626 gbr.psy~;#P window setfont "Sans Serif" 9.;#P newex 533 416 175 196617 gbr.drain~ $0_psola.voiced_out 500;#P comment 234 289 166 196617 store voiced period to fmat $wave;#P comment 67 29 125 196617 yin-based PSOLA analysis;#P window linecount 2;#P comment 707 321 116 196617 paste wave periodically to output buffer;#P window linecount 1;#P comment 629 299 113 196617 wave of voiced periods;#P inlet 234 53 15 0;#P inlet 67 53 15 0;#N comlet voiced signal;#P outlet 533 438 15 0;#P newex 573 266 50 196617 * 1.;#P user ftm.mess 613 242 107 15 3 9 255 255 255 0 0 0 1 2 1 0;#T _#aa $0_ $1_ $2_ $3_ $4_ $5_ $6_ $7_ $8_ $9_;#T _#init "_0 1";#T _#line "_(pow 2 ($1 / 1200.))";#P newex 533 296 93 196617 gbr.fire~ 0 $wave;#P newex 533 242 50 196617 split 0.;#P connect 5 0 25 0;#P connect 6 0 12 0;#P connect 12 0 13 0;#P connect 13 0 17 0;#P connect 17 0 18 0;#P connect 23 0 24 0;#P connect 17 1 14 0;#P connect 12 1 17 1;#P fasten 17 2 0 0 319 234 538 234;#P connect 0 0 1 0;#P connect 3 0 1 0;#P connect 1 0 15 0;#P connect 11 0 4 0;#P connect 0 1 3 0;#P fasten 25 0 2 0 72 105 618 105;#P connect 2 0 3 1;#P pop;