{
	"patcher" : 	{
		"fileversion" : 1,
		"rect" : [ 44.0, 49.0, 564.0, 531.0 ],
		"bglocked" : 0,
		"defrect" : [ 44.0, 49.0, 564.0, 531.0 ],
		"openrect" : [ 0.0, 0.0, 0.0, 0.0 ],
		"openinpresentation" : 0,
		"default_fontsize" : 10.0,
		"default_fontface" : 0,
		"default_fontname" : "Arial",
		"gridonopen" : 0,
		"gridsize" : [ 5.0, 5.0 ],
		"gridsnaponopen" : 0,
		"toolbarvisible" : 1,
		"boxanimatetime" : 200,
		"imprint" : 0,
		"metadata" : [  ],
		"boxes" : [ 			{
				"box" : 				{
					"maxclass" : "bpatcher",
					"varname" : "jmod.gl.td.rota%",
					"name" : "jmod.gl.edgeblend%.maxpat",
					"numinlets" : 2,
					"numoutlets" : 2,
					"args" : [  ],
					"outlettype" : [ "", "" ],
					"lockeddragscroll" : 1,
					"patching_rect" : [ 176.0, 359.0, 301.0, 73.0 ],
					"id" : "obj-1"
				}

			}
, 			{
				"box" : 				{
					"maxclass" : "newobj",
					"text" : "deferlow",
					"fontname" : "Verdana",
					"numinlets" : 1,
					"numoutlets" : 1,
					"fontsize" : 9.0,
					"outlettype" : [ "" ],
					"patching_rect" : [ 36.0, 119.0, 55.0, 17.0 ],
					"id" : "obj-2"
				}

			}
, 			{
				"box" : 				{
					"maxclass" : "comment",
					"text" : "jmod.gl.edgeblend%",
					"fontname" : "Verdana",
					"numinlets" : 1,
					"numoutlets" : 0,
					"fontsize" : 18.0,
					"frgb" : [ 0.658824, 0.658824, 0.658824, 1.0 ],
					"patching_rect" : [ 17.0, 26.0, 216.0, 28.0 ],
					"id" : "obj-4"
				}

			}
, 			{
				"box" : 				{
					"maxclass" : "comment",
					"text" : "slab-based edge blending with alpha channel",
					"fontname" : "Verdana",
					"numinlets" : 1,
					"numoutlets" : 0,
					"fontsize" : 9.0,
					"frgb" : [ 0.658824, 0.658824, 0.658824, 1.0 ],
					"patching_rect" : [ 18.0, 53.0, 368.0, 17.0 ],
					"id" : "obj-5"
				}

			}
, 			{
				"box" : 				{
					"maxclass" : "panel",
					"numinlets" : 1,
					"numoutlets" : 0,
					"patching_rect" : [ 11.0, 10.0, 340.0, 63.0 ],
					"rounded" : 0,
					"id" : "obj-6"
				}

			}
, 			{
				"box" : 				{
					"maxclass" : "newobj",
					"text" : "jit.window jamoma_demo @depthbuffer 1 @floating 1",
					"linecount" : 4,
					"fontname" : "Verdana",
					"numinlets" : 1,
					"numoutlets" : 2,
					"fontsize" : 9.0,
					"outlettype" : [ "bang", "" ],
					"patching_rect" : [ 36.0, 240.0, 95.0, 50.0 ],
					"id" : "obj-7"
				}

			}
, 			{
				"box" : 				{
					"maxclass" : "newobj",
					"text" : "jit.gl.videoplane jamoma_demo @scale 1.333 1. 1. @blend_enable 1",
					"linecount" : 4,
					"fontname" : "Verdana",
					"numinlets" : 1,
					"numoutlets" : 2,
					"fontsize" : 9.0,
					"outlettype" : [ "jit_matrix", "" ],
					"patching_rect" : [ 430.0, 446.0, 109.0, 50.0 ],
					"id" : "obj-8"
				}

			}
, 			{
				"box" : 				{
					"maxclass" : "newobj",
					"text" : "sel 1",
					"fontname" : "Verdana",
					"numinlets" : 2,
					"numoutlets" : 2,
					"fontsize" : 9.0,
					"outlettype" : [ "bang", "" ],
					"patching_rect" : [ 163.0, 120.0, 35.0, 17.0 ],
					"id" : "obj-9"
				}

			}
, 			{
				"box" : 				{
					"maxclass" : "newobj",
					"text" : "t b b erase",
					"fontname" : "Verdana",
					"numinlets" : 1,
					"numoutlets" : 3,
					"fontsize" : 9.0,
					"outlettype" : [ "bang", "bang", "erase" ],
					"patching_rect" : [ 36.0, 163.0, 65.0, 17.0 ],
					"id" : "obj-10"
				}

			}
, 			{
				"box" : 				{
					"maxclass" : "newobj",
					"text" : "jit.gl.render jamoma_demo @erase_color 0. 0. 0. 1.",
					"linecount" : 3,
					"fontname" : "Verdana",
					"numinlets" : 1,
					"numoutlets" : 2,
					"fontsize" : 9.0,
					"outlettype" : [ "bang", "" ],
					"patching_rect" : [ 36.0, 198.0, 129.0, 39.0 ],
					"id" : "obj-11"
				}

			}
, 			{
				"box" : 				{
					"maxclass" : "message",
					"text" : "/render/context jamoma_demo",
					"linecount" : 2,
					"fontname" : "Verdana",
					"numinlets" : 2,
					"numoutlets" : 1,
					"fontsize" : 9.0,
					"outlettype" : [ "" ],
					"patching_rect" : [ 176.0, 316.0, 102.0, 26.0 ],
					"id" : "obj-12"
				}

			}
, 			{
				"box" : 				{
					"maxclass" : "toggle",
					"numinlets" : 1,
					"numoutlets" : 1,
					"outlettype" : [ "int" ],
					"patching_rect" : [ 36.0, 88.0, 15.0, 15.0 ],
					"id" : "obj-13"
				}

			}
, 			{
				"box" : 				{
					"maxclass" : "newobj",
					"text" : "qmetro 40",
					"fontname" : "Verdana",
					"numinlets" : 2,
					"numoutlets" : 1,
					"fontsize" : 9.0,
					"outlettype" : [ "bang" ],
					"patching_rect" : [ 36.0, 141.0, 66.0, 17.0 ],
					"id" : "obj-14"
				}

			}
, 			{
				"box" : 				{
					"maxclass" : "message",
					"text" : "read dishes.mov",
					"linecount" : 2,
					"fontname" : "Verdana",
					"numinlets" : 2,
					"numoutlets" : 1,
					"fontsize" : 9.0,
					"outlettype" : [ "" ],
					"patching_rect" : [ 228.0, 199.0, 66.0, 26.0 ],
					"id" : "obj-15"
				}

			}
, 			{
				"box" : 				{
					"maxclass" : "message",
					"text" : "read",
					"fontname" : "Verdana",
					"numinlets" : 2,
					"numoutlets" : 1,
					"fontsize" : 9.0,
					"outlettype" : [ "" ],
					"patching_rect" : [ 197.0, 199.0, 31.0, 15.0 ],
					"id" : "obj-16"
				}

			}
, 			{
				"box" : 				{
					"maxclass" : "newobj",
					"text" : "jit.qt.movie 320 240",
					"fontname" : "Verdana",
					"numinlets" : 1,
					"numoutlets" : 2,
					"fontsize" : 9.0,
					"outlettype" : [ "jit_matrix", "" ],
					"patching_rect" : [ 179.0, 240.0, 121.0, 17.0 ],
					"id" : "obj-17"
				}

			}
 ],
		"lines" : [ 			{
				"patchline" : 				{
					"source" : [ "obj-13", 0 ],
					"destination" : [ "obj-2", 0 ],
					"hidden" : 0,
					"midpoints" : [  ]
				}

			}
, 			{
				"patchline" : 				{
					"source" : [ "obj-2", 0 ],
					"destination" : [ "obj-14", 0 ],
					"hidden" : 0,
					"midpoints" : [  ]
				}

			}
, 			{
				"patchline" : 				{
					"source" : [ "obj-14", 0 ],
					"destination" : [ "obj-10", 0 ],
					"hidden" : 0,
					"midpoints" : [  ]
				}

			}
, 			{
				"patchline" : 				{
					"source" : [ "obj-10", 2 ],
					"destination" : [ "obj-11", 0 ],
					"hidden" : 0,
					"midpoints" : [  ]
				}

			}
, 			{
				"patchline" : 				{
					"source" : [ "obj-10", 0 ],
					"destination" : [ "obj-11", 0 ],
					"hidden" : 0,
					"midpoints" : [  ]
				}

			}
, 			{
				"patchline" : 				{
					"source" : [ "obj-13", 0 ],
					"destination" : [ "obj-9", 0 ],
					"hidden" : 0,
					"color" : [ 0.6667, 0.6667, 0.6667, 1.0 ],
					"midpoints" : [ 45.0, 113.0, 172.5, 113.0 ]
				}

			}
, 			{
				"patchline" : 				{
					"source" : [ "obj-9", 0 ],
					"destination" : [ "obj-12", 0 ],
					"hidden" : 0,
					"color" : [ 0.6667, 0.6667, 0.6667, 1.0 ],
					"midpoints" : [ 172.5, 311.0, 185.5, 311.0 ]
				}

			}
, 			{
				"patchline" : 				{
					"source" : [ "obj-12", 0 ],
					"destination" : [ "obj-1", 0 ],
					"hidden" : 0,
					"color" : [ 0.6667, 0.6667, 0.6667, 1.0 ],
					"midpoints" : [  ]
				}

			}
, 			{
				"patchline" : 				{
					"source" : [ "obj-10", 1 ],
					"destination" : [ "obj-17", 0 ],
					"hidden" : 0,
					"midpoints" : [ 68.5, 190.0, 188.5, 190.0 ]
				}

			}
, 			{
				"patchline" : 				{
					"source" : [ "obj-16", 0 ],
					"destination" : [ "obj-17", 0 ],
					"hidden" : 0,
					"midpoints" : [ 206.5, 230.0, 188.5, 230.0 ]
				}

			}
, 			{
				"patchline" : 				{
					"source" : [ "obj-15", 0 ],
					"destination" : [ "obj-17", 0 ],
					"hidden" : 0,
					"midpoints" : [ 237.5, 230.0, 188.5, 230.0 ]
				}

			}
, 			{
				"patchline" : 				{
					"source" : [ "obj-9", 0 ],
					"destination" : [ "obj-15", 0 ],
					"hidden" : 0,
					"color" : [ 0.6667, 0.6667, 0.6667, 1.0 ],
					"midpoints" : [ 172.5, 173.0, 237.5, 173.0 ]
				}

			}
, 			{
				"patchline" : 				{
					"source" : [ "obj-17", 0 ],
					"destination" : [ "obj-1", 1 ],
					"hidden" : 0,
					"midpoints" : [ 188.5, 288.0, 467.5, 288.0 ]
				}

			}
, 			{
				"patchline" : 				{
					"source" : [ "obj-1", 1 ],
					"destination" : [ "obj-8", 0 ],
					"hidden" : 0,
					"midpoints" : [ 467.5, 439.0, 439.5, 439.0 ]
				}

			}
 ]
	}

}
