{
	"patcher" : 	{
		"fileversion" : 1,
		"rect" : [ 89.0, 153.0, 719.0, 476.0 ],
		"bglocked" : 0,
		"defrect" : [ 89.0, 153.0, 719.0, 476.0 ],
		"openrect" : [ 0.0, 0.0, 0.0, 0.0 ],
		"openinpresentation" : 0,
		"default_fontsize" : 10.970939,
		"default_fontface" : 0,
		"default_fontname" : "Verdana",
		"gridonopen" : 0,
		"gridsize" : [ 5.0, 5.0 ],
		"gridsnaponopen" : 0,
		"toolbarvisible" : 1,
		"boxanimatetime" : 200,
		"imprint" : 0,
		"metadata" : [  ],
		"boxes" : [ 			{
				"box" : 				{
					"maxclass" : "newobj",
					"text" : "jcom.oscroute /attack /release /threshold /lookahead",
					"numoutlets" : 5,
					"fontname" : "Verdana",
					"outlettype" : [ "", "", "", "", "" ],
					"fontsize" : 10.0,
					"patching_rect" : [ 30.0, 130.0, 277.0, 19.0 ],
					"numinlets" : 1,
					"id" : "obj-1"
				}

			}
, 			{
				"box" : 				{
					"maxclass" : "outlet",
					"numoutlets" : 0,
					"patching_rect" : [ 30.0, 380.0, 24.0, 24.0 ],
					"numinlets" : 1,
					"id" : "obj-2",
					"comment" : ""
				}

			}
, 			{
				"box" : 				{
					"maxclass" : "outlet",
					"numoutlets" : 0,
					"patching_rect" : [ 445.0, 380.0, 24.0, 24.0 ],
					"numinlets" : 1,
					"id" : "obj-3",
					"comment" : ""
				}

			}
, 			{
				"box" : 				{
					"maxclass" : "outlet",
					"numoutlets" : 0,
					"patching_rect" : [ 375.0, 380.0, 24.0, 24.0 ],
					"numinlets" : 1,
					"id" : "obj-4",
					"comment" : ""
				}

			}
, 			{
				"box" : 				{
					"maxclass" : "inlet",
					"numoutlets" : 1,
					"outlettype" : [ "" ],
					"patching_rect" : [ 375.0, 90.0, 24.0, 24.0 ],
					"numinlets" : 0,
					"id" : "obj-5",
					"comment" : ""
				}

			}
, 			{
				"box" : 				{
					"maxclass" : "inlet",
					"numoutlets" : 1,
					"outlettype" : [ "" ],
					"patching_rect" : [ 445.0, 90.0, 24.0, 24.0 ],
					"numinlets" : 0,
					"id" : "obj-6",
					"comment" : ""
				}

			}
, 			{
				"box" : 				{
					"maxclass" : "inlet",
					"numoutlets" : 1,
					"outlettype" : [ "" ],
					"patching_rect" : [ 30.0, 90.0, 24.0, 24.0 ],
					"numinlets" : 0,
					"id" : "obj-7",
					"comment" : ""
				}

			}
, 			{
				"box" : 				{
					"maxclass" : "newobj",
					"text" : "change",
					"numoutlets" : 3,
					"fontname" : "Verdana",
					"outlettype" : [ "", "int", "int" ],
					"fontsize" : 10.0,
					"patching_rect" : [ 606.0, 352.0, 45.0, 19.0 ],
					"numinlets" : 1,
					"id" : "obj-8"
				}

			}
, 			{
				"box" : 				{
					"maxclass" : "newobj",
					"text" : "delay~ 10",
					"numoutlets" : 1,
					"fontname" : "Verdana",
					"outlettype" : [ "signal" ],
					"fontsize" : 10.0,
					"patching_rect" : [ 445.0, 180.0, 60.0, 19.0 ],
					"numinlets" : 2,
					"id" : "obj-9"
				}

			}
, 			{
				"box" : 				{
					"maxclass" : "newobj",
					"text" : "*~",
					"numoutlets" : 1,
					"fontname" : "Verdana",
					"outlettype" : [ "signal" ],
					"fontsize" : 10.0,
					"patching_rect" : [ 445.0, 350.0, 27.0, 19.0 ],
					"numinlets" : 2,
					"id" : "obj-10"
				}

			}
, 			{
				"box" : 				{
					"maxclass" : "newobj",
					"text" : "snapshot~ 40",
					"numoutlets" : 1,
					"fontname" : "Verdana",
					"outlettype" : [ "float" ],
					"fontsize" : 10.0,
					"patching_rect" : [ 606.0, 330.0, 78.0, 19.0 ],
					"numinlets" : 2,
					"id" : "obj-11"
				}

			}
, 			{
				"box" : 				{
					"maxclass" : "newobj",
					"text" : "delay~ 10",
					"numoutlets" : 1,
					"fontname" : "Verdana",
					"outlettype" : [ "signal" ],
					"fontsize" : 10.0,
					"patching_rect" : [ 375.0, 180.0, 60.0, 19.0 ],
					"numinlets" : 2,
					"id" : "obj-12"
				}

			}
, 			{
				"box" : 				{
					"maxclass" : "newobj",
					"text" : "*~",
					"numoutlets" : 1,
					"fontname" : "Verdana",
					"outlettype" : [ "signal" ],
					"fontsize" : 10.0,
					"patching_rect" : [ 375.0, 350.0, 27.0, 19.0 ],
					"numinlets" : 2,
					"id" : "obj-13"
				}

			}
, 			{
				"box" : 				{
					"maxclass" : "newobj",
					"text" : "dbtoa",
					"numoutlets" : 1,
					"fontname" : "Verdana",
					"outlettype" : [ "" ],
					"fontsize" : 10.0,
					"patching_rect" : [ 240.0, 180.0, 37.0, 19.0 ],
					"numinlets" : 1,
					"id" : "obj-14"
				}

			}
, 			{
				"box" : 				{
					"maxclass" : "newobj",
					"text" : ">~ 0.",
					"numoutlets" : 1,
					"fontname" : "Verdana",
					"outlettype" : [ "signal" ],
					"fontsize" : 10.0,
					"patching_rect" : [ 522.0, 248.0, 107.0, 19.0 ],
					"numinlets" : 2,
					"id" : "obj-15"
				}

			}
, 			{
				"box" : 				{
					"maxclass" : "newobj",
					"text" : "average~ 1000 absolute",
					"numoutlets" : 1,
					"fontname" : "Verdana",
					"outlettype" : [ "signal" ],
					"fontsize" : 10.0,
					"patching_rect" : [ 522.0, 157.0, 132.0, 19.0 ],
					"numinlets" : 1,
					"id" : "obj-16"
				}

			}
, 			{
				"box" : 				{
					"maxclass" : "newobj",
					"text" : "mstosamps~",
					"numoutlets" : 2,
					"fontname" : "Verdana",
					"outlettype" : [ "signal", "float" ],
					"fontsize" : 10.0,
					"patching_rect" : [ 110.0, 180.0, 74.0, 19.0 ],
					"numinlets" : 1,
					"id" : "obj-17"
				}

			}
, 			{
				"box" : 				{
					"maxclass" : "newobj",
					"text" : "mstosamps~",
					"numoutlets" : 2,
					"fontname" : "Verdana",
					"outlettype" : [ "signal", "float" ],
					"fontsize" : 10.0,
					"patching_rect" : [ 30.0, 180.0, 74.0, 19.0 ],
					"numinlets" : 1,
					"id" : "obj-18"
				}

			}
, 			{
				"box" : 				{
					"maxclass" : "message",
					"text" : "rampdown $1",
					"numoutlets" : 1,
					"fontname" : "Verdana",
					"outlettype" : [ "" ],
					"fontsize" : 10.0,
					"patching_rect" : [ 165.0, 220.0, 78.0, 17.0 ],
					"numinlets" : 2,
					"id" : "obj-19"
				}

			}
, 			{
				"box" : 				{
					"maxclass" : "message",
					"text" : "rampup $1",
					"numoutlets" : 1,
					"fontname" : "Verdana",
					"outlettype" : [ "" ],
					"fontsize" : 10.0,
					"patching_rect" : [ 85.0, 220.0, 63.0, 17.0 ],
					"numinlets" : 2,
					"id" : "obj-20"
				}

			}
, 			{
				"box" : 				{
					"maxclass" : "newobj",
					"text" : "rampsmooth~",
					"numoutlets" : 1,
					"fontname" : "Verdana",
					"outlettype" : [ "signal" ],
					"fontsize" : 10.0,
					"patching_rect" : [ 522.0, 301.0, 80.0, 19.0 ],
					"numinlets" : 3,
					"id" : "obj-21"
				}

			}
, 			{
				"box" : 				{
					"maxclass" : "comment",
					"text" : "Noise gate - stereo",
					"numoutlets" : 0,
					"fontname" : "Verdana",
					"fontsize" : 12.0,
					"patching_rect" : [ 30.0, 45.0, 131.0, 21.0 ],
					"numinlets" : 1,
					"id" : "obj-22",
					"frgb" : [ 0.0, 0.0, 0.0, 1.0 ]
				}

			}
, 			{
				"box" : 				{
					"maxclass" : "newobj",
					"text" : "s #1_monitor",
					"numoutlets" : 0,
					"fontname" : "Verdana",
					"fontsize" : 10.0,
					"patching_rect" : [ 606.0, 374.0, 77.0, 19.0 ],
					"numinlets" : 1,
					"id" : "obj-23"
				}

			}
 ],
		"lines" : [ 			{
				"patchline" : 				{
					"source" : [ "obj-7", 0 ],
					"destination" : [ "obj-1", 0 ],
					"hidden" : 0,
					"midpoints" : [  ]
				}

			}
, 			{
				"patchline" : 				{
					"source" : [ "obj-1", 0 ],
					"destination" : [ "obj-18", 0 ],
					"hidden" : 0,
					"midpoints" : [  ]
				}

			}
, 			{
				"patchline" : 				{
					"source" : [ "obj-18", 1 ],
					"destination" : [ "obj-20", 0 ],
					"hidden" : 0,
					"midpoints" : [  ]
				}

			}
, 			{
				"patchline" : 				{
					"source" : [ "obj-1", 1 ],
					"destination" : [ "obj-17", 0 ],
					"hidden" : 0,
					"midpoints" : [  ]
				}

			}
, 			{
				"patchline" : 				{
					"source" : [ "obj-17", 1 ],
					"destination" : [ "obj-19", 0 ],
					"hidden" : 0,
					"midpoints" : [  ]
				}

			}
, 			{
				"patchline" : 				{
					"source" : [ "obj-1", 2 ],
					"destination" : [ "obj-14", 0 ],
					"hidden" : 0,
					"midpoints" : [  ]
				}

			}
, 			{
				"patchline" : 				{
					"source" : [ "obj-5", 0 ],
					"destination" : [ "obj-12", 0 ],
					"hidden" : 0,
					"midpoints" : [  ]
				}

			}
, 			{
				"patchline" : 				{
					"source" : [ "obj-12", 0 ],
					"destination" : [ "obj-13", 0 ],
					"hidden" : 0,
					"midpoints" : [  ]
				}

			}
, 			{
				"patchline" : 				{
					"source" : [ "obj-13", 0 ],
					"destination" : [ "obj-4", 0 ],
					"hidden" : 0,
					"midpoints" : [  ]
				}

			}
, 			{
				"patchline" : 				{
					"source" : [ "obj-21", 0 ],
					"destination" : [ "obj-13", 1 ],
					"hidden" : 0,
					"midpoints" : [  ]
				}

			}
, 			{
				"patchline" : 				{
					"source" : [ "obj-1", 3 ],
					"destination" : [ "obj-12", 1 ],
					"hidden" : 0,
					"midpoints" : [  ]
				}

			}
, 			{
				"patchline" : 				{
					"source" : [ "obj-6", 0 ],
					"destination" : [ "obj-9", 0 ],
					"hidden" : 0,
					"midpoints" : [  ]
				}

			}
, 			{
				"patchline" : 				{
					"source" : [ "obj-9", 0 ],
					"destination" : [ "obj-10", 0 ],
					"hidden" : 0,
					"midpoints" : [  ]
				}

			}
, 			{
				"patchline" : 				{
					"source" : [ "obj-10", 0 ],
					"destination" : [ "obj-3", 0 ],
					"hidden" : 0,
					"midpoints" : [  ]
				}

			}
, 			{
				"patchline" : 				{
					"source" : [ "obj-21", 0 ],
					"destination" : [ "obj-10", 1 ],
					"hidden" : 0,
					"midpoints" : [  ]
				}

			}
, 			{
				"patchline" : 				{
					"source" : [ "obj-1", 3 ],
					"destination" : [ "obj-9", 1 ],
					"hidden" : 0,
					"midpoints" : [  ]
				}

			}
, 			{
				"patchline" : 				{
					"source" : [ "obj-5", 0 ],
					"destination" : [ "obj-16", 0 ],
					"hidden" : 0,
					"midpoints" : [  ]
				}

			}
, 			{
				"patchline" : 				{
					"source" : [ "obj-6", 0 ],
					"destination" : [ "obj-16", 0 ],
					"hidden" : 0,
					"midpoints" : [  ]
				}

			}
, 			{
				"patchline" : 				{
					"source" : [ "obj-16", 0 ],
					"destination" : [ "obj-15", 0 ],
					"hidden" : 0,
					"midpoints" : [  ]
				}

			}
, 			{
				"patchline" : 				{
					"source" : [ "obj-15", 0 ],
					"destination" : [ "obj-21", 0 ],
					"hidden" : 0,
					"midpoints" : [  ]
				}

			}
, 			{
				"patchline" : 				{
					"source" : [ "obj-19", 0 ],
					"destination" : [ "obj-21", 0 ],
					"hidden" : 0,
					"midpoints" : [ 174.5, 294.0, 531.5, 294.0 ]
				}

			}
, 			{
				"patchline" : 				{
					"source" : [ "obj-20", 0 ],
					"destination" : [ "obj-21", 0 ],
					"hidden" : 0,
					"midpoints" : [ 94.5, 296.0, 531.5, 296.0 ]
				}

			}
, 			{
				"patchline" : 				{
					"source" : [ "obj-15", 0 ],
					"destination" : [ "obj-11", 0 ],
					"hidden" : 0,
					"midpoints" : [ 531.5, 284.0, 615.5, 284.0 ]
				}

			}
, 			{
				"patchline" : 				{
					"source" : [ "obj-11", 0 ],
					"destination" : [ "obj-8", 0 ],
					"hidden" : 0,
					"midpoints" : [  ]
				}

			}
, 			{
				"patchline" : 				{
					"source" : [ "obj-8", 0 ],
					"destination" : [ "obj-23", 0 ],
					"hidden" : 0,
					"midpoints" : [  ]
				}

			}
, 			{
				"patchline" : 				{
					"source" : [ "obj-14", 0 ],
					"destination" : [ "obj-15", 1 ],
					"hidden" : 0,
					"midpoints" : [ 249.5, 213.0, 619.5, 213.0 ]
				}

			}
 ]
	}

}
