{
	"patcher" : 	{
		"rect" : [ 123.0, 70.0, 464.0, 714.0 ],
		"bglocked" : 0,
		"defrect" : [ 123.0, 70.0, 464.0, 714.0 ],
		"openinpresentation" : 0,
		"default_fontsize" : 10.0,
		"default_fontface" : 0,
		"default_fontname" : "Verdana",
		"gridonopen" : 0,
		"gridsize" : [ 5.0, 5.0 ],
		"gridsnaponopen" : 0,
		"toolbarvisible" : 1,
		"boxfadetime" : 200,
		"boxanimatetime" : 200,
		"scrollanimatetime" : 200,
		"metadata" : [  ],
		"boxes" : [ 			{
				"box" : 				{
					"maxclass" : "newobj",
					"text" : "pcontrol",
					"patching_rect" : [ 380.0, 473.0, 47.0, 17.0 ],
					"fontname" : "Verdana",
					"numinlets" : 1,
					"hidden" : 1,
					"id" : "obj-1",
					"numoutlets" : 1,
					"outlettype" : [ "" ],
					"fontsize" : 9.0
				}

			}
, 			{
				"box" : 				{
					"maxclass" : "newobj",
					"text" : "jcom.algorithm_control~.maxpat",
					"patching_rect" : [ 247.0, 451.0, 143.0, 17.0 ],
					"fontname" : "Verdana",
					"numinlets" : 1,
					"hidden" : 1,
					"id" : "obj-2",
					"numoutlets" : 2,
					"outlettype" : [ "", "" ],
					"fontsize" : 9.0
				}

			}
, 			{
				"box" : 				{
					"maxclass" : "newobj",
					"text" : "r #0__monitor",
					"patching_rect" : [ 247.0, 520.0, 78.0, 17.0 ],
					"fontname" : "Verdana",
					"numinlets" : 0,
					"hidden" : 1,
					"id" : "obj-3",
					"numoutlets" : 1,
					"outlettype" : [ "" ],
					"fontsize" : 9.0
				}

			}
, 			{
				"box" : 				{
					"maxclass" : "newobj",
					"text" : "jcom.out~ 2",
					"patching_rect" : [ 113.0, 539.0, 77.0, 17.0 ],
					"fontname" : "Verdana",
					"numinlets" : 2,
					"hidden" : 1,
					"id" : "obj-4",
					"numoutlets" : 2,
					"outlettype" : [ "", "" ],
					"fontsize" : 9.0
				}

			}
, 			{
				"box" : 				{
					"maxclass" : "newobj",
					"text" : "jcom.in~ 2",
					"patching_rect" : [ 113.0, 428.0, 212.0, 17.0 ],
					"fontname" : "Verdana",
					"numinlets" : 2,
					"hidden" : 1,
					"id" : "obj-5",
					"numoutlets" : 3,
					"outlettype" : [ "", "", "" ],
					"fontsize" : 9.0
				}

			}
, 			{
				"box" : 				{
					"maxclass" : "inlet",
					"patching_rect" : [ 315.0, 408.0, 13.0, 13.0 ],
					"numinlets" : 0,
					"hidden" : 1,
					"id" : "obj-6",
					"numoutlets" : 1,
					"outlettype" : [ "" ],
					"comment" : ""
				}

			}
, 			{
				"box" : 				{
					"maxclass" : "outlet",
					"patching_rect" : [ 113.0, 565.0, 13.0, 13.0 ],
					"numinlets" : 1,
					"hidden" : 1,
					"id" : "obj-7",
					"numoutlets" : 0,
					"comment" : ""
				}

			}
, 			{
				"box" : 				{
					"maxclass" : "message",
					"text" : "\/documentation\/generate",
					"patching_rect" : [ 127.0, 629.0, 125.0, 15.0 ],
					"fontname" : "Verdana",
					"numinlets" : 2,
					"hidden" : 1,
					"id" : "obj-8",
					"numoutlets" : 1,
					"outlettype" : [ "" ],
					"fontsize" : 9.0
				}

			}
, 			{
				"box" : 				{
					"maxclass" : "comment",
					"text" : "ms",
					"patching_rect" : [ 206.0, 43.0, 22.0, 17.0 ],
					"fontname" : "Verdana",
					"numinlets" : 1,
					"id" : "obj-9",
					"numoutlets" : 0,
					"frgb" : [ 0.67451, 0.67451, 0.67451, 1.0 ],
					"textcolor" : [ 0.67451, 0.67451, 0.67451, 1.0 ],
					"fontsize" : 9.0
				}

			}
, 			{
				"box" : 				{
					"maxclass" : "comment",
					"text" : "dB",
					"patching_rect" : [ 85.0, 42.0, 39.0, 17.0 ],
					"fontname" : "Verdana",
					"numinlets" : 1,
					"id" : "obj-10",
					"numoutlets" : 0,
					"frgb" : [ 0.67451, 0.67451, 0.67451, 1.0 ],
					"textcolor" : [ 0.67451, 0.67451, 0.67451, 1.0 ],
					"fontsize" : 9.0
				}

			}
, 			{
				"box" : 				{
					"maxclass" : "comment",
					"text" : "samps",
					"patching_rect" : [ 85.0, 26.0, 39.0, 17.0 ],
					"fontname" : "Verdana",
					"numinlets" : 1,
					"id" : "obj-11",
					"numoutlets" : 0,
					"frgb" : [ 0.67451, 0.67451, 0.67451, 1.0 ],
					"textcolor" : [ 0.67451, 0.67451, 0.67451, 1.0 ],
					"fontsize" : 9.0
				}

			}
, 			{
				"box" : 				{
					"maxclass" : "number",
					"varname" : "THRESHOLD",
					"patching_rect" : [ 53.0, 41.0, 35.0, 17.0 ],
					"transparent" : 1,
					"htextcolor" : [ 0.870588, 0.870588, 0.870588, 1.0 ],
					"fontname" : "Verdana",
					"numinlets" : 1,
					"triangle" : 0,
					"maximum" : 24,
					"id" : "obj-12",
					"numoutlets" : 2,
					"minimum" : -90,
					"textcolor" : [ 0.776471, 0.776471, 0.776471, 1.0 ],
					"outlettype" : [ "int", "bang" ],
					"bgcolor" : [ 0.866667, 0.866667, 0.866667, 1.0 ],
					"fontsize" : 9.0,
					"triscale" : 0.9
				}

			}
, 			{
				"box" : 				{
					"maxclass" : "newobj",
					"text" : "pvar THRESHOLD",
					"patching_rect" : [ 14.0, 158.0, 86.0, 17.0 ],
					"fontname" : "Verdana",
					"numinlets" : 1,
					"hidden" : 1,
					"id" : "obj-13",
					"numoutlets" : 1,
					"outlettype" : [ "" ],
					"fontsize" : 9.0
				}

			}
, 			{
				"box" : 				{
					"maxclass" : "newobj",
					"varname" : "threshold",
					"text" : "jcom.parameter threshold @type msg_int @ramp/drive scheduler @repetitions 0 @range/bounds -90 24 @range/clipmode both @description \"The threshold sets the level at which the Noise Gate opens and closes..\"",
					"linecount" : 3,
					"patching_rect" : [ 14.0, 181.0, 318.0, 38.0 ],
					"fontname" : "Verdana",
					"numinlets" : 1,
					"hidden" : 1,
					"id" : "obj-14",
					"numoutlets" : 1,
					"outlettype" : [ "" ],
					"fontsize" : 9.0
				}

			}
, 			{
				"box" : 				{
					"maxclass" : "comment",
					"text" : "Threshold",
					"patching_rect" : [ 1.0, 41.0, 58.0, 17.0 ],
					"fontname" : "Verdana",
					"numinlets" : 1,
					"id" : "obj-15",
					"numoutlets" : 0,
					"frgb" : [ 0.67451, 0.67451, 0.67451, 1.0 ],
					"textcolor" : [ 0.67451, 0.67451, 0.67451, 1.0 ],
					"fontsize" : 9.0
				}

			}
, 			{
				"box" : 				{
					"maxclass" : "newobj",
					"varname" : "release",
					"text" : "jcom.parameter release @type msg_int @ramp/drive scheduler @repetitions 0 @range/bounds 0 1000 @range/clipmode both @description \"When the gate closes\\, this parameter sets how many milliseconds it will take to fade out.\"",
					"linecount" : 3,
					"patching_rect" : [ 14.0, 345.0, 330.0, 38.0 ],
					"fontname" : "Verdana",
					"numinlets" : 1,
					"hidden" : 1,
					"id" : "obj-16",
					"numoutlets" : 1,
					"outlettype" : [ "" ],
					"fontsize" : 9.0
				}

			}
, 			{
				"box" : 				{
					"maxclass" : "newobj",
					"text" : "pvar RELEASE",
					"patching_rect" : [ 14.0, 322.0, 73.0, 17.0 ],
					"fontname" : "Verdana",
					"numinlets" : 1,
					"hidden" : 1,
					"id" : "obj-17",
					"numoutlets" : 1,
					"outlettype" : [ "" ],
					"fontsize" : 9.0
				}

			}
, 			{
				"box" : 				{
					"maxclass" : "number",
					"varname" : "RELEASE",
					"patching_rect" : [ 172.0, 42.0, 35.0, 17.0 ],
					"transparent" : 1,
					"htextcolor" : [ 0.870588, 0.870588, 0.870588, 1.0 ],
					"fontname" : "Verdana",
					"numinlets" : 1,
					"triangle" : 0,
					"maximum" : 1000,
					"id" : "obj-18",
					"numoutlets" : 2,
					"minimum" : 0,
					"textcolor" : [ 0.776471, 0.776471, 0.776471, 1.0 ],
					"outlettype" : [ "int", "bang" ],
					"bgcolor" : [ 0.866667, 0.866667, 0.866667, 1.0 ],
					"fontsize" : 9.0,
					"triscale" : 0.9
				}

			}
, 			{
				"box" : 				{
					"maxclass" : "comment",
					"text" : "Release",
					"patching_rect" : [ 127.0, 43.0, 48.0, 17.0 ],
					"fontname" : "Verdana",
					"numinlets" : 1,
					"id" : "obj-19",
					"numoutlets" : 0,
					"frgb" : [ 0.67451, 0.67451, 0.67451, 1.0 ],
					"textcolor" : [ 0.67451, 0.67451, 0.67451, 1.0 ],
					"fontsize" : 9.0
				}

			}
, 			{
				"box" : 				{
					"maxclass" : "comment",
					"text" : "ms",
					"patching_rect" : [ 206.0, 27.0, 22.0, 17.0 ],
					"fontname" : "Verdana",
					"numinlets" : 1,
					"id" : "obj-20",
					"numoutlets" : 0,
					"frgb" : [ 0.67451, 0.67451, 0.67451, 1.0 ],
					"textcolor" : [ 0.67451, 0.67451, 0.67451, 1.0 ],
					"fontsize" : 9.0
				}

			}
, 			{
				"box" : 				{
					"maxclass" : "newobj",
					"varname" : "attack",
					"text" : "jcom.parameter attack @type msg_int @ramp/drive scheduler @repetitions 0 @range/bounds 0 1000 @range/clipmode low @description \"When the gate opens\\, this parameter sets how many milliseconds it will take to fade in.\"",
					"linecount" : 3,
					"patching_rect" : [ 14.0, 265.0, 323.0, 38.0 ],
					"fontname" : "Verdana",
					"numinlets" : 1,
					"hidden" : 1,
					"id" : "obj-21",
					"numoutlets" : 1,
					"outlettype" : [ "" ],
					"fontsize" : 9.0
				}

			}
, 			{
				"box" : 				{
					"maxclass" : "newobj",
					"text" : "pvar ATTACK",
					"patching_rect" : [ 14.0, 242.0, 72.0, 17.0 ],
					"fontname" : "Verdana",
					"numinlets" : 1,
					"hidden" : 1,
					"id" : "obj-22",
					"numoutlets" : 1,
					"outlettype" : [ "" ],
					"fontsize" : 9.0
				}

			}
, 			{
				"box" : 				{
					"maxclass" : "newobj",
					"text" : "p visualize",
					"patching_rect" : [ 247.0, 543.0, 58.0, 17.0 ],
					"fontname" : "Verdana",
					"numinlets" : 1,
					"hidden" : 1,
					"id" : "obj-23",
					"numoutlets" : 1,
					"outlettype" : [ "" ],
					"fontsize" : 9.0,
					"patcher" : 					{
						"rect" : [ 541.0, 69.0, 407.0, 381.0 ],
										"bglocked" : 0,
						"defrect" : [ 541.0, 69.0, 407.0, 381.0 ],
						"openinpresentation" : 0,
						"default_fontsize" : 10.0,
						"default_fontface" : 0,
						"default_fontname" : "Verdana",
						"gridonopen" : 0,
						"gridsize" : [ 5.0, 5.0 ],
						"gridsnaponopen" : 0,
						"toolbarvisible" : 1,
						"boxfadetime" : 200,
						"boxanimatetime" : 200,
						"scrollanimatetime" : 200,
						"metadata" : [  ],
						"boxes" : [ 							{
								"box" : 								{
									"maxclass" : "newobj",
									"text" : "== 0",
									"patching_rect" : [ 50.0, 77.0, 31.0, 17.0 ],
									"fontname" : "Verdana",
									"numinlets" : 2,
									"id" : "obj-1",
									"numoutlets" : 1,
									"outlettype" : [ "int" ],
									"fontsize" : 9.0
								}

							}
, 							{
								"box" : 								{
									"maxclass" : "newobj",
									"text" : "qlim",
									"patching_rect" : [ 50.0, 176.0, 29.0, 17.0 ],
									"fontname" : "Verdana",
									"numinlets" : 2,
									"id" : "obj-2",
									"numoutlets" : 1,
									"outlettype" : [ "" ],
									"fontsize" : 9.0
								}

							}
, 							{
								"box" : 								{
									"maxclass" : "message",
									"text" : "brgb 100 100 100",
									"patching_rect" : [ 225.0, 195.0, 93.0, 15.0 ],
									"fontname" : "Verdana",
									"numinlets" : 2,
									"id" : "obj-3",
									"numoutlets" : 1,
									"outlettype" : [ "" ],
									"fontsize" : 9.0
								}

							}
, 							{
								"box" : 								{
									"maxclass" : "newobj",
									"text" : "sel 0",
									"patching_rect" : [ 225.0, 166.0, 32.0, 17.0 ],
									"fontname" : "Verdana",
									"numinlets" : 2,
									"id" : "obj-4",
									"numoutlets" : 2,
									"outlettype" : [ "bang", "" ],
									"fontsize" : 9.0
								}

							}
, 							{
								"box" : 								{
									"maxclass" : "newobj",
									"text" : "dspstate~",
									"patching_rect" : [ 225.0, 141.0, 54.0, 17.0 ],
									"fontname" : "Verdana",
									"numinlets" : 1,
									"id" : "obj-5",
									"numoutlets" : 4,
									"outlettype" : [ "int", "float", "int", "int" ],
									"fontsize" : 9.0
								}

							}
, 							{
								"box" : 								{
									"maxclass" : "newobj",
									"text" : "gate 1 1",
									"patching_rect" : [ 50.0, 104.0, 149.0, 17.0 ],
									"fontname" : "Verdana",
									"numinlets" : 2,
									"id" : "obj-6",
									"numoutlets" : 1,
									"outlettype" : [ "" ],
									"fontsize" : 9.0
								}

							}
, 							{
								"box" : 								{
									"maxclass" : "newobj",
									"text" : "r #0__freeze_display",
									"patching_rect" : [ 50.0, 54.0, 110.0, 17.0 ],
									"fontname" : "Verdana",
									"numinlets" : 0,
									"id" : "obj-7",
									"numoutlets" : 1,
									"outlettype" : [ "" ],
									"fontsize" : 9.0
								}

							}
, 							{
								"box" : 								{
									"maxclass" : "newobj",
									"text" : "sel 0 1",
									"patching_rect" : [ 50.0, 198.0, 41.0, 17.0 ],
									"fontname" : "Verdana",
									"numinlets" : 1,
									"id" : "obj-8",
									"numoutlets" : 3,
									"outlettype" : [ "bang", "bang", "" ],
									"fontsize" : 9.0
								}

							}
, 							{
								"box" : 								{
									"maxclass" : "message",
									"text" : "brgb 0 220 0",
									"patching_rect" : [ 65.0, 253.0, 69.0, 15.0 ],
									"fontname" : "Verdana",
									"numinlets" : 2,
									"id" : "obj-9",
									"numoutlets" : 1,
									"outlettype" : [ "" ],
									"fontsize" : 9.0
								}

							}
, 							{
								"box" : 								{
									"maxclass" : "message",
									"text" : "brgb 200 20 20",
									"patching_rect" : [ 50.0, 231.0, 81.0, 15.0 ],
									"fontname" : "Verdana",
									"numinlets" : 2,
									"id" : "obj-10",
									"numoutlets" : 1,
									"outlettype" : [ "" ],
									"fontsize" : 9.0
								}

							}
, 							{
								"box" : 								{
									"maxclass" : "inlet",
									"patching_rect" : [ 189.0, 34.0, 15.0, 15.0 ],
									"numinlets" : 0,
									"id" : "obj-11",
									"numoutlets" : 1,
									"outlettype" : [ "" ],
									"comment" : ""
								}

							}
, 							{
								"box" : 								{
									"maxclass" : "outlet",
									"patching_rect" : [ 50.0, 290.0, 15.0, 15.0 ],
									"numinlets" : 1,
									"id" : "obj-12",
									"numoutlets" : 0,
									"comment" : ""
								}

							}
 ],
						"lines" : [ 							{
								"patchline" : 								{
									"source" : [ "obj-7", 0 ],
									"destination" : [ "obj-1", 0 ],
									"hidden" : 0
								}

							}
, 							{
								"patchline" : 								{
									"source" : [ "obj-1", 0 ],
									"destination" : [ "obj-6", 0 ],
									"hidden" : 0
								}

							}
, 							{
								"patchline" : 								{
									"source" : [ "obj-6", 0 ],
									"destination" : [ "obj-2", 0 ],
									"hidden" : 0
								}

							}
, 							{
								"patchline" : 								{
									"source" : [ "obj-2", 0 ],
									"destination" : [ "obj-8", 0 ],
									"hidden" : 0
								}

							}
, 							{
								"patchline" : 								{
									"source" : [ "obj-8", 0 ],
									"destination" : [ "obj-10", 0 ],
									"hidden" : 0
								}

							}
, 							{
								"patchline" : 								{
									"source" : [ "obj-3", 0 ],
									"destination" : [ "obj-12", 0 ],
									"hidden" : 0
								}

							}
, 							{
								"patchline" : 								{
									"source" : [ "obj-9", 0 ],
									"destination" : [ "obj-12", 0 ],
									"hidden" : 0
								}

							}
, 							{
								"patchline" : 								{
									"source" : [ "obj-10", 0 ],
									"destination" : [ "obj-12", 0 ],
									"hidden" : 0
								}

							}
, 							{
								"patchline" : 								{
									"source" : [ "obj-8", 1 ],
									"destination" : [ "obj-9", 0 ],
									"hidden" : 0
								}

							}
, 							{
								"patchline" : 								{
									"source" : [ "obj-11", 0 ],
									"destination" : [ "obj-6", 1 ],
									"hidden" : 0
								}

							}
, 							{
								"patchline" : 								{
									"source" : [ "obj-5", 0 ],
									"destination" : [ "obj-4", 0 ],
									"hidden" : 0
								}

							}
, 							{
								"patchline" : 								{
									"source" : [ "obj-4", 0 ],
									"destination" : [ "obj-3", 0 ],
									"hidden" : 0
								}

							}
 ]
					}
,
					"saved_object_attributes" : 					{
						"fontname" : "Verdana",
						"default_fontface" : 0,
						"default_fontname" : "Verdana",
						"fontface" : 0,
						"fontsize" : 10.0,
						"globalpatchername" : "",
						"default_fontsize" : 10.0
					}

				}

			}
, 			{
				"box" : 				{
					"maxclass" : "newobj",
					"text" : "pvar ACTIVE",
					"patching_rect" : [ 247.0, 565.0, 67.0, 17.0 ],
					"fontname" : "Verdana",
					"numinlets" : 1,
					"hidden" : 1,
					"id" : "obj-24",
					"numoutlets" : 1,
					"outlettype" : [ "" ],
					"fontsize" : 9.0
				}

			}
, 			{
				"box" : 				{
					"maxclass" : "panel",
					"varname" : "ACTIVE",
					"patching_rect" : [ 234.0, 32.0, 16.0, 16.0 ],
					"rounded" : 20,
					"numinlets" : 1,
					"id" : "obj-25",
					"numoutlets" : 0,
					"bgcolor" : [ 0.392157, 0.392157, 0.392157, 1.0 ]
				}

			}
, 			{
				"box" : 				{
					"maxclass" : "number",
					"varname" : "ATTACK",
					"patching_rect" : [ 172.0, 25.0, 35.0, 17.0 ],
					"transparent" : 1,
					"htextcolor" : [ 0.870588, 0.870588, 0.870588, 1.0 ],
					"fontname" : "Verdana",
					"numinlets" : 1,
					"triangle" : 0,
					"maximum" : 1000,
					"id" : "obj-26",
					"numoutlets" : 2,
					"minimum" : 0,
					"textcolor" : [ 0.776471, 0.776471, 0.776471, 1.0 ],
					"outlettype" : [ "int", "bang" ],
					"bgcolor" : [ 0.866667, 0.866667, 0.866667, 1.0 ],
					"fontsize" : 9.0,
					"triscale" : 0.9
				}

			}
, 			{
				"box" : 				{
					"maxclass" : "newobj",
					"text" : "pvar LOOKAHEAD",
					"patching_rect" : [ 14.0, 76.0, 88.0, 17.0 ],
					"fontname" : "Verdana",
					"numinlets" : 1,
					"hidden" : 1,
					"id" : "obj-27",
					"numoutlets" : 1,
					"outlettype" : [ "" ],
					"fontsize" : 9.0
				}

			}
, 			{
				"box" : 				{
					"maxclass" : "newobj",
					"varname" : "jcom.hub",
					"text" : "jcom.hub jmod.noisegate~ @size 1U-half @module_type audio @description \"noise gate.\"",
					"patching_rect" : [ 14.0, 656.0, 408.0, 17.0 ],
					"fontname" : "Verdana",
					"numinlets" : 1,
					"hidden" : 1,
					"id" : "obj-28",
					"numoutlets" : 2,
					"outlettype" : [ "", "" ],
					"fontsize" : 9.0
				}

			}
, 			{
				"box" : 				{
					"maxclass" : "comment",
					"text" : "command input",
					"patching_rect" : [ 33.0, 629.0, 79.0, 17.0 ],
					"fontname" : "Verdana",
					"numinlets" : 1,
					"hidden" : 1,
					"id" : "obj-29",
					"numoutlets" : 0,
					"fontsize" : 9.0
				}

			}
, 			{
				"box" : 				{
					"maxclass" : "inlet",
					"patching_rect" : [ 14.0, 630.0, 13.0, 13.0 ],
					"numinlets" : 0,
					"hidden" : 1,
					"id" : "obj-30",
					"numoutlets" : 1,
					"outlettype" : [ "" ],
					"comment" : ""
				}

			}
, 			{
				"box" : 				{
					"maxclass" : "message",
					"text" : "\/init",
					"patching_rect" : [ 254.0, 629.0, 37.0, 15.0 ],
					"fontname" : "Verdana",
					"numinlets" : 2,
					"hidden" : 1,
					"id" : "obj-31",
					"numoutlets" : 1,
					"outlettype" : [ "" ],
					"fontsize" : 9.0
				}

			}
, 			{
				"box" : 				{
					"maxclass" : "inlet",
					"patching_rect" : [ 113.0, 408.0, 13.0, 13.0 ],
					"numinlets" : 0,
					"hidden" : 1,
					"id" : "obj-32",
					"numoutlets" : 1,
					"outlettype" : [ "" ],
					"comment" : ""
				}

			}
, 			{
				"box" : 				{
					"maxclass" : "outlet",
					"patching_rect" : [ 146.0, 565.0, 13.0, 13.0 ],
					"numinlets" : 1,
					"hidden" : 1,
					"id" : "obj-33",
					"numoutlets" : 0,
					"comment" : ""
				}

			}
, 			{
				"box" : 				{
					"maxclass" : "newobj",
					"varname" : "lookahead",
					"text" : "jcom.parameter lookahead @type msg_int @ramp/drive scheduler @repetitions 0 @range/bounds 0 100 @range/clipmode low @description \"How many samples to look ahead while monitoring incoming signal.\"",
					"linecount" : 3,
					"patching_rect" : [ 14.0, 98.0, 304.0, 38.0 ],
					"fontname" : "Verdana",
					"numinlets" : 1,
					"hidden" : 1,
					"id" : "obj-34",
					"numoutlets" : 1,
					"outlettype" : [ "" ],
					"fontsize" : 9.0
				}

			}
, 			{
				"box" : 				{
					"maxclass" : "comment",
					"text" : "Attack",
					"patching_rect" : [ 127.0, 26.0, 48.0, 17.0 ],
					"fontname" : "Verdana",
					"numinlets" : 1,
					"id" : "obj-35",
					"numoutlets" : 0,
					"frgb" : [ 0.67451, 0.67451, 0.67451, 1.0 ],
					"textcolor" : [ 0.67451, 0.67451, 0.67451, 1.0 ],
					"fontsize" : 9.0
				}

			}
, 			{
				"box" : 				{
					"maxclass" : "number",
					"varname" : "LOOKAHEAD",
					"patching_rect" : [ 53.0, 24.0, 35.0, 17.0 ],
					"transparent" : 1,
					"htextcolor" : [ 0.870588, 0.870588, 0.870588, 1.0 ],
					"fontname" : "Verdana",
					"numinlets" : 1,
					"triangle" : 0,
					"maximum" : 1000,
					"id" : "obj-36",
					"numoutlets" : 2,
					"minimum" : 0,
					"textcolor" : [ 0.776471, 0.776471, 0.776471, 1.0 ],
					"outlettype" : [ "int", "bang" ],
					"bgcolor" : [ 0.866667, 0.866667, 0.866667, 1.0 ],
					"fontsize" : 9.0,
					"triscale" : 0.9
				}

			}
, 			{
				"box" : 				{
					"maxclass" : "comment",
					"text" : "Lookahead",
					"patching_rect" : [ 1.0, 25.0, 58.0, 17.0 ],
					"fontname" : "Verdana",
					"numinlets" : 1,
					"id" : "obj-37",
					"numoutlets" : 0,
					"frgb" : [ 0.67451, 0.67451, 0.67451, 1.0 ],
					"textcolor" : [ 0.67451, 0.67451, 0.67451, 1.0 ],
					"fontsize" : 9.0
				}

			}
, 			{
				"box" : 				{
					"maxclass" : "newobj",
					"text" : "jalg.noisegate~ #0_",
					"patching_rect" : [ 46.0, 506.0, 145.0, 17.0 ],
					"fontname" : "Verdana",
					"numinlets" : 3,
					"hidden" : 1,
					"id" : "obj-38",
					"numoutlets" : 3,
					"outlettype" : [ "", "signal", "signal" ],
					"fontsize" : 9.0
				}

			}
, 			{
				"box" : 				{
					"maxclass" : "comment",
					"text" : "----signal inputs----",
					"patching_rect" : [ 182.0, 407.0, 105.0, 17.0 ],
					"fontname" : "Verdana",
					"numinlets" : 1,
					"hidden" : 1,
					"id" : "obj-39",
					"numoutlets" : 0,
					"fontsize" : 9.0
				}

			}
, 			{
				"box" : 				{
					"maxclass" : "outlet",
					"patching_rect" : [ 14.0, 683.0, 13.0, 13.0 ],
					"numinlets" : 1,
					"hidden" : 1,
					"id" : "obj-40",
					"numoutlets" : 0,
					"comment" : ""
				}

			}
, 			{
				"box" : 				{
					"maxclass" : "comment",
					"text" : "---signal output---",
					"patching_rect" : [ 113.0, 582.0, 103.0, 17.0 ],
					"fontname" : "Verdana",
					"numinlets" : 1,
					"hidden" : 1,
					"id" : "obj-41",
					"numoutlets" : 0,
					"fontsize" : 9.0
				}

			}
, 			{
				"box" : 				{
					"maxclass" : "jcom.ui",
					"text" : "\/Jamoma",
					"color" : [ 1.0, 1.0, 1.0, 1.0 ],
					"numinlets" : 1,
					"id" : "obj-42",
					"numoutlets" : 1,
					"textcolor" : [ 0.65, 0.65, 0.65, 1.0 ],
					"outlettype" : [ "" ]
				}

			}
 ],
		"lines" : [ 			{
				"patchline" : 				{
					"source" : [ "obj-34", 0 ],
					"destination" : [ "obj-27", 0 ],
					"hidden" : 1,
					"midpoints" : [ 23.5, 142.0, 9.0, 142.0, 9.0, 72.0, 23.5, 72.0 ]
				}

			}
, 			{
				"patchline" : 				{
					"source" : [ "obj-27", 0 ],
					"destination" : [ "obj-34", 0 ],
					"hidden" : 1
				}

			}
, 			{
				"patchline" : 				{
					"source" : [ "obj-14", 0 ],
					"destination" : [ "obj-13", 0 ],
					"hidden" : 1,
					"midpoints" : [ 23.5, 225.0, 8.0, 225.0, 8.0, 149.0, 23.5, 149.0 ]
				}

			}
, 			{
				"patchline" : 				{
					"source" : [ "obj-13", 0 ],
					"destination" : [ "obj-14", 0 ],
					"hidden" : 1
				}

			}
, 			{
				"patchline" : 				{
					"source" : [ "obj-21", 0 ],
					"destination" : [ "obj-22", 0 ],
					"hidden" : 1,
					"midpoints" : [ 23.5, 310.0, 7.0, 310.0, 7.0, 239.0, 23.5, 239.0 ]
				}

			}
, 			{
				"patchline" : 				{
					"source" : [ "obj-22", 0 ],
					"destination" : [ "obj-21", 0 ],
					"hidden" : 1
				}

			}
, 			{
				"patchline" : 				{
					"source" : [ "obj-16", 0 ],
					"destination" : [ "obj-17", 0 ],
					"hidden" : 1,
					"midpoints" : [ 23.5, 390.0, 6.0, 390.0, 6.0, 315.0, 23.5, 315.0 ]
				}

			}
, 			{
				"patchline" : 				{
					"source" : [ "obj-17", 0 ],
					"destination" : [ "obj-16", 0 ],
					"hidden" : 1
				}

			}
, 			{
				"patchline" : 				{
					"source" : [ "obj-31", 0 ],
					"destination" : [ "obj-28", 0 ],
					"hidden" : 1,
					"midpoints" : [ 263.5, 649.0, 23.5, 649.0 ]
				}

			}
, 			{
				"patchline" : 				{
					"source" : [ "obj-8", 0 ],
					"destination" : [ "obj-28", 0 ],
					"hidden" : 1,
					"midpoints" : [ 136.5, 649.0, 23.5, 649.0 ]
				}

			}
, 			{
				"patchline" : 				{
					"source" : [ "obj-30", 0 ],
					"destination" : [ "obj-28", 0 ],
					"hidden" : 1
				}

			}
, 			{
				"patchline" : 				{
					"source" : [ "obj-28", 0 ],
					"destination" : [ "obj-40", 0 ],
					"hidden" : 1
				}

			}
, 			{
				"patchline" : 				{
					"source" : [ "obj-1", 0 ],
					"destination" : [ "obj-38", 0 ],
					"hidden" : 1,
					"midpoints" : [ 389.5, 498.0, 55.5, 498.0 ]
				}

			}
, 			{
				"patchline" : 				{
					"source" : [ "obj-2", 0 ],
					"destination" : [ "obj-38", 0 ],
					"hidden" : 1,
					"midpoints" : [ 256.5, 498.0, 55.5, 498.0 ]
				}

			}
, 			{
				"patchline" : 				{
					"source" : [ "obj-32", 0 ],
					"destination" : [ "obj-5", 0 ],
					"hidden" : 1
				}

			}
, 			{
				"patchline" : 				{
					"source" : [ "obj-5", 0 ],
					"destination" : [ "obj-38", 1 ],
					"hidden" : 1
				}

			}
, 			{
				"patchline" : 				{
					"source" : [ "obj-38", 1 ],
					"destination" : [ "obj-4", 0 ],
					"hidden" : 1
				}

			}
, 			{
				"patchline" : 				{
					"source" : [ "obj-4", 0 ],
					"destination" : [ "obj-7", 0 ],
					"hidden" : 1
				}

			}
, 			{
				"patchline" : 				{
					"source" : [ "obj-4", 1 ],
					"destination" : [ "obj-33", 0 ],
					"hidden" : 1
				}

			}
, 			{
				"patchline" : 				{
					"source" : [ "obj-5", 1 ],
					"destination" : [ "obj-38", 2 ],
					"hidden" : 1
				}

			}
, 			{
				"patchline" : 				{
					"source" : [ "obj-38", 2 ],
					"destination" : [ "obj-4", 1 ],
					"hidden" : 1
				}

			}
, 			{
				"patchline" : 				{
					"source" : [ "obj-5", 2 ],
					"destination" : [ "obj-2", 0 ],
					"hidden" : 1
				}

			}
, 			{
				"patchline" : 				{
					"source" : [ "obj-3", 0 ],
					"destination" : [ "obj-23", 0 ],
					"hidden" : 1
				}

			}
, 			{
				"patchline" : 				{
					"source" : [ "obj-23", 0 ],
					"destination" : [ "obj-24", 0 ],
					"hidden" : 1
				}

			}
, 			{
				"patchline" : 				{
					"source" : [ "obj-6", 0 ],
					"destination" : [ "obj-5", 1 ],
					"hidden" : 1
				}

			}
, 			{
				"patchline" : 				{
					"source" : [ "obj-2", 1 ],
					"destination" : [ "obj-1", 0 ],
					"hidden" : 1
				}

			}
 ]
	}

}
