max v2;#N vpatcher 495 44 1192 538;#P inlet 48 31 15 0;#P inlet 644 31 15 0;#P window setfont "Sans Serif" 9.;#P window linecount 1;#P newex 167 334 330 196617 jcom.return bark @description "Bark decomposition (list of 25 floats)";#P newex 233 391 322 196617 jcom.return raw_pitch @description "Raw pitch values (midi - amp)";#P newex 266 420 341 196617 jcom.return sinusoids @description "Sinusoidal components (freq - amp)";#P newex 89 222 241 196617 jcom.return pitch/hz @description "Pitch in Hertz";#P newex 35 199 273 196617 jcom.return pitch/midi @description "Pitch as midi value";#P newex 200 363 238 196617 jcom.return attack @description "Onset detection";#P newex 134 305 256 196617 jcom.return noisiness @description "Noisiness (float)";#P newex 101 278 268 196617 jcom.return brightness @description "Brightness (float)";#P newex 16 66 396 196617 jcom.pass /amp-range /vibrato /reattack /npartial /print /linear /log /loud /bright;#P newex 35 157 64 196617 unpack 0. 0.;#P newex 35 127 246 196617 analyzer~ 2048 512 4096 blackman70 0 1 10 3 list;#P newex 68 251 251 196617 jcom.return loudness @description "Loudness (float)";#N in 1;#P newobj 16 31 25 196617 in 1;#N in~ 1;#X comment (signal);#P newobj 608 31 32 196617 in~ 1;#P connect 1 0 5 0;#P connect 15 0 5 0;#P fasten 14 0 3 0 649 122 40 122;#P fasten 5 0 3 0 21 101 40 101;#P fasten 5 1 3 0 63 101 40 101;#P fasten 5 2 3 0 105 101 40 101;#P fasten 5 3 3 0 147 101 40 101;#P fasten 5 4 3 0 189 101 40 101;#P fasten 5 5 3 0 231 101 40 101;#P fasten 5 6 3 0 273 101 40 101;#P fasten 5 7 3 0 315 101 40 101;#P fasten 5 8 3 0 357 101 40 101;#P fasten 5 9 3 0 399 101 40 101;#P fasten 0 0 3 0 613 118 40 118;#P connect 3 0 4 0;#P connect 4 0 9 0;#P connect 3 1 2 0;#P connect 4 1 10 0;#P connect 3 2 6 0;#P connect 3 3 7 0;#P connect 3 4 13 0;#P connect 3 5 8 0;#P connect 3 6 12 0;#P connect 3 7 11 0;#P pop;