max v2;#N vpatcher 154 44 909 427;#P origin 0 -205;#P window setfont "Sans Serif" 9.;#P window linecount 1;#P hidden newex 623 122 47 196617 pcontrol;#P hidden newex 490 88 143 196617 jcom.algorithm_control~.mxt;#P hidden newex 483 219 64 196617 jcom.out~ 0;#P hidden inlet 466 32 13 0;#P hidden comment 481 32 65 196617 Audio INPUT;#P hidden newex 466 51 58 196617 jcom.in~ 1;#P hidden newex 490 169 96 196617 jalg.analyzer~.mxt;#P user spectroscope~ 0 16 255 104 20 0 1 0 1 1 0 0 0 0 0 0;#X frgb 224 224 224;#X brgb 255 255 255;#X rgb2 0 0 0;#X rgb3 243 204 204;#X rgb4 255 0 0;#X rgb5 184 184 184;#X rgb6 0 0 0;#X rgb7 0 0 0;#X rgb8 255 255 255;#X rgb9 255 0 0;#X rgb10 255 191 0;#X rgb11 0 191 127;#X rgb12 127 0 127;#X rgb13 0 0 0;#X range 0. 1.2;#X domain 0. 22050.;#X done;#P hidden message 107 142 125 196617 /documentation/generate;#P window linecount 2;#P hidden newex -1 164 257 196617 jcom.hub jmod.analyzer~ @size 2U-half @module_type audio @inspector 1 @description "Sound analysis.";#P objectname jmod.hub;#P window linecount 1;#P hidden comment 13 145 79 196617 command input;#P hidden inlet -1 145 13 0;#P hidden inlet 20 -20 13 0;#P hidden comment 15 -30 105 196617 ----signal inputs----;#P hidden outlet -1 306 13 0;#P bpatcher 0 0 256 125 0 0 jcom.gui.mxt 0;#P objectname jcom.gui.1Uh.a.stereo.mxt;#P hidden fasten 7 0 6 0 112 161 4 161;#P hidden connect 4 0 6 0;#P hidden connect 6 0 1 0;#P lcolor 6;#P hidden connect 10 0 8 0;#P hidden connect 12 0 10 0;#P hidden connect 10 1 14 0;#P hidden connect 14 0 9 0;#P hidden connect 15 0 9 0;#P hidden fasten 10 0 9 1 471 147 581 147;#P hidden connect 14 1 15 0;#P pop;