{
	"patcher" : 	{
		"fileversion" : 1,
		"rect" : [ 187.0, 44.0, 560.0, 468.0 ],
		"bglocked" : 0,
		"defrect" : [ 187.0, 44.0, 560.0, 468.0 ],
		"openrect" : [ 0.0, 0.0, 0.0, 0.0 ],
		"openinpresentation" : 1,
		"default_fontsize" : 10.0,
		"default_fontface" : 0,
		"default_fontname" : "Verdana",
		"gridonopen" : 0,
		"gridsize" : [ 5.0, 5.0 ],
		"gridsnaponopen" : 0,
		"toolbarvisible" : 1,
		"boxanimatetime" : 200,
		"imprint" : 0,
		"metadata" : [  ],
		"boxes" : [ 			{
				"box" : 				{
					"maxclass" : "newobj",
					"text" : "p matrix",
					"numinlets" : 1,
					"id" : "obj-13",
					"fontname" : "Verdana",
					"numoutlets" : 0,
					"fontsize" : 10.0,
					"patching_rect" : [ 85.0, 395.0, 100.0, 19.0 ],
					"patcher" : 					{
						"fileversion" : 1,
						"rect" : [ 778.0, 211.0, 640.0, 480.0 ],
						"bglocked" : 0,
						"defrect" : [ 778.0, 211.0, 640.0, 480.0 ],
						"openrect" : [ 0.0, 0.0, 0.0, 0.0 ],
						"openinpresentation" : 0,
						"default_fontsize" : 10.0,
						"default_fontface" : 0,
						"default_fontname" : "Arial",
						"gridonopen" : 0,
						"gridsize" : [ 5.0, 5.0 ],
						"gridsnaponopen" : 0,
						"toolbarvisible" : 1,
						"boxanimatetime" : 200,
						"imprint" : 0,
						"visible" : 1,
						"metadata" : [  ],
						"boxes" : [ 							{
								"box" : 								{
									"maxclass" : "bpatcher",
									"name" : "jcom.levelslider.maxpat",
									"numinlets" : 1,
									"id" : "obj-4",
									"numoutlets" : 1,
									"args" : [ "in.5/to/out.2", "@size", 50, 15, "@frgb", 255, 255, 255, "@brgb", 50, 50, 50, "@rgb2", 111, 111, 111, "@range", 0.0, 1.0 ],
									"outlettype" : [ "" ],
									"patching_rect" : [ 180.0, 220.0, 53.0, 17.0 ]
								}

							}
, 							{
								"box" : 								{
									"maxclass" : "bpatcher",
									"name" : "jcom.levelslider.maxpat",
									"numinlets" : 1,
									"id" : "obj-2",
									"numoutlets" : 1,
									"args" : [ "in.3/to/out.4", "@size", 50, 15, "@frgb", 255, 255, 255, "@brgb", 50, 50, 50, "@rgb2", 111, 111, 111, "@range", 0.0, 1.0 ],
									"outlettype" : [ "" ],
									"patching_rect" : [ 180.0, 155.0, 53.0, 17.0 ]
								}

							}
, 							{
								"box" : 								{
									"maxclass" : "bpatcher",
									"name" : "jcom.levelslider.maxpat",
									"numinlets" : 1,
									"id" : "obj-3",
									"numoutlets" : 1,
									"args" : [ "in.1/to/out.1", "@size", 50, 15, "@frgb", 255, 255, 255, "@brgb", 50, 50, 50, "@rgb2", 111, 111, 111, "@range", 0.0, 1.0 ],
									"outlettype" : [ "" ],
									"patching_rect" : [ 170.0, 90.0, 53.0, 17.0 ]
								}

							}
, 							{
								"box" : 								{
									"maxclass" : "inlet",
									"numinlets" : 0,
									"id" : "obj-1",
									"numoutlets" : 1,
									"outlettype" : [ "" ],
									"patching_rect" : [ 15.0, 20.0, 13.0, 13.0 ],
									"comment" : ""
								}

							}
 ],
						"lines" : [  ]
					}
,
					"saved_object_attributes" : 					{
						"default_fontface" : 0,
						"default_fontname" : "Arial",
						"fontname" : "Arial",
						"default_fontsize" : 10.0,
						"globalpatchername" : "",
						"fontface" : 0,
						"fontsize" : 10.0
					}

				}

			}
, 			{
				"box" : 				{
					"maxclass" : "newobj",
					"text" : "jcom.pass /open",
					"numinlets" : 1,
					"id" : "obj-12",
					"fontname" : "Verdana",
					"numoutlets" : 2,
					"outlettype" : [ "", "" ],
					"fontsize" : 10.0,
					"patching_rect" : [ 85.0, 340.0, 93.0, 19.0 ]
				}

			}
, 			{
				"box" : 				{
					"maxclass" : "newobj",
					"text" : "pcontrol",
					"numinlets" : 1,
					"id" : "obj-11",
					"fontname" : "Verdana",
					"numoutlets" : 1,
					"outlettype" : [ "" ],
					"fontsize" : 10.0,
					"patching_rect" : [ 85.0, 365.0, 57.0, 19.0 ]
				}

			}
, 			{
				"box" : 				{
					"maxclass" : "newobj",
					"text" : "jcom.oscroute /panel",
					"numinlets" : 1,
					"id" : "obj-10",
					"fontname" : "Verdana",
					"numoutlets" : 2,
					"outlettype" : [ "", "" ],
					"fontsize" : 10.0,
					"patching_rect" : [ 85.0, 315.0, 122.0, 19.0 ]
				}

			}
, 			{
				"box" : 				{
					"maxclass" : "newobj",
					"text" : "p matrix~",
					"numinlets" : 2,
					"id" : "obj-4",
					"fontname" : "Verdana",
					"numoutlets" : 1,
					"outlettype" : [ "" ],
					"fontsize" : 10.0,
					"patching_rect" : [ 215.0, 355.0, 100.0, 19.0 ],
					"patcher" : 					{
						"fileversion" : 1,
						"rect" : [ 151.0, 101.0, 743.0, 509.0 ],
						"bglocked" : 0,
						"defrect" : [ 151.0, 101.0, 743.0, 509.0 ],
						"openrect" : [ 0.0, 0.0, 0.0, 0.0 ],
						"openinpresentation" : 0,
						"default_fontsize" : 10.0,
						"default_fontface" : 0,
						"default_fontname" : "Arial",
						"gridonopen" : 0,
						"gridsize" : [ 5.0, 5.0 ],
						"gridsnaponopen" : 0,
						"toolbarvisible" : 1,
						"boxanimatetime" : 200,
						"imprint" : 0,
						"visible" : 1,
						"metadata" : [  ],
						"boxes" : [ 							{
								"box" : 								{
									"maxclass" : "newobj",
									"text" : "thispatcher",
									"numinlets" : 1,
									"id" : "obj-41",
									"fontname" : "Arial",
									"numoutlets" : 2,
									"outlettype" : [ "", "" ],
									"fontsize" : 10.0,
									"patching_rect" : [ 25.0, 130.0, 59.0, 18.0 ],
									"save" : [ "#N", "thispatcher", ";", "#Q", "end", ";" ]
								}

							}
, 							{
								"box" : 								{
									"maxclass" : "newobj",
									"text" : "p script",
									"numinlets" : 1,
									"id" : "obj-40",
									"fontname" : "Arial",
									"numoutlets" : 1,
									"outlettype" : [ "" ],
									"fontsize" : 10.0,
									"patching_rect" : [ 25.0, 95.0, 100.0, 18.0 ],
									"patcher" : 									{
										"fileversion" : 1,
										"rect" : [ 596.0, 232.0, 640.0, 480.0 ],
										"bglocked" : 0,
										"defrect" : [ 596.0, 232.0, 640.0, 480.0 ],
										"openrect" : [ 0.0, 0.0, 0.0, 0.0 ],
										"openinpresentation" : 0,
										"default_fontsize" : 10.0,
										"default_fontface" : 0,
										"default_fontname" : "Arial",
										"gridonopen" : 0,
										"gridsize" : [ 5.0, 5.0 ],
										"gridsnaponopen" : 0,
										"toolbarvisible" : 1,
										"boxanimatetime" : 200,
										"imprint" : 0,
										"visible" : 1,
										"metadata" : [  ],
										"boxes" : [ 											{
												"box" : 												{
													"maxclass" : "outlet",
													"numinlets" : 1,
													"id" : "obj-2",
													"numoutlets" : 0,
													"patching_rect" : [ 50.0, 320.0, 25.0, 25.0 ],
													"comment" : ""
												}

											}
, 											{
												"box" : 												{
													"maxclass" : "inlet",
													"numinlets" : 0,
													"id" : "obj-1",
													"numoutlets" : 1,
													"outlettype" : [ "" ],
													"patching_rect" : [ 35.0, 35.0, 25.0, 25.0 ],
													"comment" : ""
												}

											}
 ],
										"lines" : [  ]
									}
,
									"saved_object_attributes" : 									{
										"default_fontface" : 0,
										"default_fontname" : "Arial",
										"fontname" : "Arial",
										"default_fontsize" : 10.0,
										"globalpatchername" : "",
										"fontface" : 0,
										"fontsize" : 10.0
									}

								}

							}
, 							{
								"box" : 								{
									"maxclass" : "newobj",
									"text" : "jcom.oscroute /inlets/number /outlets/number",
									"numinlets" : 1,
									"id" : "obj-39",
									"fontname" : "Arial",
									"numoutlets" : 3,
									"outlettype" : [ "", "", "" ],
									"fontsize" : 10.0,
									"patching_rect" : [ 25.0, 55.0, 210.0, 18.0 ]
								}

							}
, 							{
								"box" : 								{
									"maxclass" : "newobj",
									"varname" : "in",
									"text" : "jcom.multi.out~",
									"numinlets" : 2,
									"id" : "obj-38",
									"fontname" : "Arial",
									"numoutlets" : 32,
									"outlettype" : [ "", "", "", "", "", "", "", "", "", "", "", "", "", "", "", "", "", "", "", "", "", "", "", "", "", "", "", "", "", "", "", "" ],
									"fontsize" : 10.0,
									"patching_rect" : [ 260.0, 350.0, 445.0, 18.0 ]
								}

							}
, 							{
								"box" : 								{
									"maxclass" : "newobj",
									"varname" : "out",
									"text" : "jcom.multi.in~",
									"numinlets" : 32,
									"id" : "obj-37",
									"fontname" : "Arial",
									"numoutlets" : 1,
									"outlettype" : [ "" ],
									"fontsize" : 10.0,
									"patching_rect" : [ 260.0, 425.0, 448.0, 18.0 ]
								}

							}
, 							{
								"box" : 								{
									"maxclass" : "newobj",
									"text" : "- 1",
									"numinlets" : 2,
									"id" : "obj-22",
									"fontname" : "Arial",
									"numoutlets" : 1,
									"presentation_rect" : [ 112.0, 255.0, 0.0, 0.0 ],
									"outlettype" : [ "int" ],
									"fontsize" : 10.0,
									"patching_rect" : [ 240.0, 190.0, 32.5, 18.0 ]
								}

							}
, 							{
								"box" : 								{
									"maxclass" : "newobj",
									"text" : "zl rev",
									"numinlets" : 2,
									"id" : "obj-21",
									"fontname" : "Arial",
									"numoutlets" : 2,
									"outlettype" : [ "", "" ],
									"fontsize" : 10.0,
									"patching_rect" : [ 240.0, 245.0, 34.0, 18.0 ]
								}

							}
, 							{
								"box" : 								{
									"maxclass" : "newobj",
									"text" : "pack",
									"numinlets" : 2,
									"id" : "obj-20",
									"fontname" : "Arial",
									"numoutlets" : 1,
									"outlettype" : [ "" ],
									"fontsize" : 10.0,
									"patching_rect" : [ 240.0, 215.0, 85.0, 18.0 ]
								}

							}
, 							{
								"box" : 								{
									"maxclass" : "newobj",
									"text" : "- 1",
									"numinlets" : 2,
									"id" : "obj-19",
									"fontname" : "Arial",
									"numoutlets" : 1,
									"outlettype" : [ "int" ],
									"fontsize" : 10.0,
									"patching_rect" : [ 305.0, 160.0, 32.5, 18.0 ]
								}

							}
, 							{
								"box" : 								{
									"maxclass" : "newobj",
									"text" : "zl join",
									"numinlets" : 2,
									"id" : "obj-17",
									"fontname" : "Arial",
									"numoutlets" : 2,
									"outlettype" : [ "", "" ],
									"fontsize" : 10.0,
									"patching_rect" : [ 240.0, 275.0, 169.0, 18.0 ]
								}

							}
, 							{
								"box" : 								{
									"maxclass" : "newobj",
									"text" : "jcom.oscroute /in/to",
									"linecount" : 2,
									"numinlets" : 1,
									"id" : "obj-15",
									"fontname" : "Verdana",
									"numoutlets" : 2,
									"outlettype" : [ "", "" ],
									"fontsize" : 10.0,
									"patching_rect" : [ 215.0, 125.0, 83.0, 31.0 ]
								}

							}
, 							{
								"box" : 								{
									"maxclass" : "newobj",
									"text" : "jcom.oscinstance",
									"numinlets" : 1,
									"id" : "obj-2",
									"fontname" : "Arial",
									"numoutlets" : 4,
									"presentation_rect" : [ 26.0, 232.0, 0.0, 0.0 ],
									"outlettype" : [ "", "", "", "" ],
									"fontsize" : 10.0,
									"patching_rect" : [ 215.0, 165.0, 87.0, 18.0 ]
								}

							}
, 							{
								"box" : 								{
									"maxclass" : "newobj",
									"text" : "jcom.oscinstance",
									"numinlets" : 1,
									"id" : "obj-3",
									"fontname" : "Arial",
									"numoutlets" : 4,
									"outlettype" : [ "", "", "", "" ],
									"fontsize" : 10.0,
									"patching_rect" : [ 215.0, 95.0, 284.0, 18.0 ]
								}

							}
, 							{
								"box" : 								{
									"maxclass" : "newobj",
									"varname" : "matrix",
									"text" : "matrix~ 5 4 0.",
									"numinlets" : 5,
									"id" : "obj-23",
									"fontname" : "Arial",
									"numoutlets" : 5,
									"outlettype" : [ "signal", "signal", "signal", "signal", "list" ],
									"fontsize" : 10.0,
									"patching_rect" : [ 260.0, 390.0, 100.0, 18.0 ]
								}

							}
, 							{
								"box" : 								{
									"maxclass" : "inlet",
									"numinlets" : 0,
									"id" : "obj-4",
									"numoutlets" : 1,
									"outlettype" : [ "" ],
									"patching_rect" : [ 25.0, 15.0, 23.0, 23.0 ],
									"comment" : "osc messages to algorithm"
								}

							}
, 							{
								"box" : 								{
									"maxclass" : "outlet",
									"numinlets" : 1,
									"id" : "obj-7",
									"numoutlets" : 0,
									"patching_rect" : [ 260.0, 455.0, 26.0, 26.0 ],
									"comment" : "signal outlet 1"
								}

							}
, 							{
								"box" : 								{
									"maxclass" : "inlet",
									"numinlets" : 0,
									"id" : "obj-9",
									"numoutlets" : 1,
									"outlettype" : [ "" ],
									"patching_rect" : [ 260.0, 315.0, 20.0, 20.0 ],
									"comment" : "signal inlet 1"
								}

							}
 ],
						"lines" : [ 							{
								"patchline" : 								{
									"source" : [ "obj-40", 0 ],
									"destination" : [ "obj-41", 0 ],
									"hidden" : 0,
									"midpoints" : [  ]
								}

							}
, 							{
								"patchline" : 								{
									"source" : [ "obj-4", 0 ],
									"destination" : [ "obj-39", 0 ],
									"hidden" : 0,
									"midpoints" : [  ]
								}

							}
, 							{
								"patchline" : 								{
									"source" : [ "obj-39", 2 ],
									"destination" : [ "obj-3", 0 ],
									"hidden" : 0,
									"midpoints" : [  ]
								}

							}
, 							{
								"patchline" : 								{
									"source" : [ "obj-37", 0 ],
									"destination" : [ "obj-7", 0 ],
									"hidden" : 0,
									"midpoints" : [  ]
								}

							}
, 							{
								"patchline" : 								{
									"source" : [ "obj-9", 0 ],
									"destination" : [ "obj-38", 0 ],
									"hidden" : 0,
									"midpoints" : [  ]
								}

							}
, 							{
								"patchline" : 								{
									"source" : [ "obj-17", 0 ],
									"destination" : [ "obj-23", 0 ],
									"hidden" : 0,
									"midpoints" : [ 249.5, 383.0, 269.5, 383.0 ]
								}

							}
, 							{
								"patchline" : 								{
									"source" : [ "obj-3", 2 ],
									"destination" : [ "obj-17", 1 ],
									"hidden" : 0,
									"midpoints" : [  ]
								}

							}
, 							{
								"patchline" : 								{
									"source" : [ "obj-21", 0 ],
									"destination" : [ "obj-17", 0 ],
									"hidden" : 0,
									"midpoints" : [  ]
								}

							}
, 							{
								"patchline" : 								{
									"source" : [ "obj-22", 0 ],
									"destination" : [ "obj-20", 0 ],
									"hidden" : 0,
									"midpoints" : [  ]
								}

							}
, 							{
								"patchline" : 								{
									"source" : [ "obj-2", 1 ],
									"destination" : [ "obj-22", 0 ],
									"hidden" : 0,
									"midpoints" : [  ]
								}

							}
, 							{
								"patchline" : 								{
									"source" : [ "obj-19", 0 ],
									"destination" : [ "obj-20", 1 ],
									"hidden" : 0,
									"midpoints" : [  ]
								}

							}
, 							{
								"patchline" : 								{
									"source" : [ "obj-20", 0 ],
									"destination" : [ "obj-21", 0 ],
									"hidden" : 0,
									"midpoints" : [  ]
								}

							}
, 							{
								"patchline" : 								{
									"source" : [ "obj-3", 1 ],
									"destination" : [ "obj-19", 0 ],
									"hidden" : 0,
									"midpoints" : [  ]
								}

							}
, 							{
								"patchline" : 								{
									"source" : [ "obj-15", 0 ],
									"destination" : [ "obj-2", 0 ],
									"hidden" : 0,
									"midpoints" : [  ]
								}

							}
, 							{
								"patchline" : 								{
									"source" : [ "obj-3", 0 ],
									"destination" : [ "obj-15", 0 ],
									"hidden" : 0,
									"midpoints" : [  ]
								}

							}
 ]
					}
,
					"saved_object_attributes" : 					{
						"default_fontface" : 0,
						"default_fontname" : "Arial",
						"fontname" : "Arial",
						"default_fontsize" : 10.0,
						"globalpatchername" : "",
						"fontface" : 0,
						"fontsize" : 10.0
					}

				}

			}
, 			{
				"box" : 				{
					"maxclass" : "jcom.ui",
					"text" : "/editing_this_module",
					"presentation" : 1,
					"prefix" : "audio",
					"numinlets" : 1,
					"id" : "obj-37",
					"numoutlets" : 1,
					"has_panel" : 1,
					"presentation_rect" : [ 0.0, 0.0, 300.0, 70.0 ],
					"outlettype" : [ "" ],
					"patching_rect" : [ 2.0, 0.0, 300.0, 70.0 ]
				}

			}
, 			{
				"box" : 				{
					"maxclass" : "newobj",
					"text" : "pcontrol",
					"numinlets" : 1,
					"id" : "obj-1",
					"fontname" : "Verdana",
					"numoutlets" : 1,
					"outlettype" : [ "" ],
					"fontsize" : 10.0,
					"patching_rect" : [ 155.0, 275.0, 57.0, 19.0 ]
				}

			}
, 			{
				"box" : 				{
					"maxclass" : "newobj",
					"text" : "jcom.algorithm_control~",
					"numinlets" : 1,
					"id" : "obj-2",
					"fontname" : "Verdana",
					"numoutlets" : 2,
					"outlettype" : [ "", "" ],
					"fontsize" : 10.0,
					"patching_rect" : [ 85.0, 250.0, 136.0, 19.0 ]
				}

			}
, 			{
				"box" : 				{
					"maxclass" : "message",
					"text" : "/preset/store 1 default, /preset/write",
					"numinlets" : 2,
					"id" : "obj-6",
					"fontname" : "Verdana",
					"numoutlets" : 1,
					"outlettype" : [ "" ],
					"fontsize" : 10.0,
					"patching_rect" : [ 35.0, 115.0, 247.0, 17.0 ]
				}

			}
, 			{
				"box" : 				{
					"maxclass" : "newobj",
					"text" : "jcom.in",
					"numinlets" : 1,
					"id" : "obj-8",
					"fontname" : "Verdana",
					"numoutlets" : 2,
					"outlettype" : [ "", "" ],
					"fontsize" : 10.0,
					"patching_rect" : [ 85.0, 220.0, 151.0, 19.0 ]
				}

			}
, 			{
				"box" : 				{
					"maxclass" : "message",
					"text" : "/documentation/generate",
					"numinlets" : 2,
					"id" : "obj-9",
					"fontname" : "Verdana",
					"numoutlets" : 1,
					"outlettype" : [ "" ],
					"fontsize" : 10.0,
					"patching_rect" : [ 55.0, 135.0, 140.0, 17.0 ]
				}

			}
, 			{
				"box" : 				{
					"maxclass" : "newobj",
					"varname" : "jcom.hub",
					"text" : "jcom.hub @description \"Audio Matrix module\"",
					"numinlets" : 1,
					"id" : "obj-30",
					"fontname" : "Verdana",
					"numoutlets" : 2,
					"outlettype" : [ "", "" ],
					"fontsize" : 10.0,
					"patching_rect" : [ 15.0, 170.0, 354.0, 19.0 ]
				}

			}
, 			{
				"box" : 				{
					"maxclass" : "comment",
					"text" : "command input",
					"numinlets" : 1,
					"id" : "obj-31",
					"fontname" : "Verdana",
					"frgb" : [ 0.933333, 0.937255, 0.968627, 1.0 ],
					"numoutlets" : 0,
					"fontsize" : 10.0,
					"patching_rect" : [ 45.0, 85.0, 99.0, 19.0 ]
				}

			}
, 			{
				"box" : 				{
					"maxclass" : "inlet",
					"numinlets" : 0,
					"id" : "obj-32",
					"numoutlets" : 1,
					"outlettype" : [ "" ],
					"patching_rect" : [ 15.0, 85.0, 24.0, 24.0 ],
					"comment" : ""
				}

			}
, 			{
				"box" : 				{
					"maxclass" : "message",
					"text" : "/init",
					"numinlets" : 2,
					"id" : "obj-33",
					"fontname" : "Verdana",
					"numoutlets" : 1,
					"outlettype" : [ "" ],
					"fontsize" : 10.0,
					"patching_rect" : [ 285.0, 115.0, 41.0, 17.0 ]
				}

			}
, 			{
				"box" : 				{
					"maxclass" : "inlet",
					"numinlets" : 0,
					"id" : "obj-34",
					"numoutlets" : 1,
					"outlettype" : [ "" ],
					"patching_rect" : [ 295.0, 320.0, 24.0, 24.0 ],
					"comment" : ""
				}

			}
, 			{
				"box" : 				{
					"maxclass" : "outlet",
					"numinlets" : 1,
					"id" : "obj-35",
					"numoutlets" : 0,
					"patching_rect" : [ 215.0, 390.0, 24.0, 24.0 ],
					"comment" : ""
				}

			}
, 			{
				"box" : 				{
					"maxclass" : "comment",
					"text" : "----multi cable signal input----",
					"numinlets" : 1,
					"id" : "obj-44",
					"fontname" : "Verdana",
					"frgb" : [ 0.933333, 0.937255, 0.968627, 1.0 ],
					"numoutlets" : 0,
					"fontsize" : 10.0,
					"patching_rect" : [ 315.0, 321.0, 163.0, 19.0 ]
				}

			}
, 			{
				"box" : 				{
					"maxclass" : "outlet",
					"numinlets" : 1,
					"id" : "obj-45",
					"numoutlets" : 0,
					"patching_rect" : [ 15.0, 215.0, 24.0, 24.0 ],
					"comment" : ""
				}

			}
, 			{
				"box" : 				{
					"maxclass" : "comment",
					"text" : "----multi cable signal output----",
					"numinlets" : 1,
					"id" : "obj-47",
					"fontname" : "Verdana",
					"frgb" : [ 0.933333, 0.937255, 0.968627, 1.0 ],
					"numoutlets" : 0,
					"fontsize" : 10.0,
					"patching_rect" : [ 255.0, 390.0, 171.0, 19.0 ]
				}

			}
 ],
		"lines" : [ 			{
				"patchline" : 				{
					"source" : [ "obj-10", 1 ],
					"destination" : [ "obj-4", 0 ],
					"hidden" : 0,
					"midpoints" : [  ]
				}

			}
, 			{
				"patchline" : 				{
					"source" : [ "obj-30", 0 ],
					"destination" : [ "obj-45", 0 ],
					"hidden" : 0,
					"midpoints" : [  ]
				}

			}
, 			{
				"patchline" : 				{
					"source" : [ "obj-33", 0 ],
					"destination" : [ "obj-30", 0 ],
					"hidden" : 0,
					"midpoints" : [ 294.5, 156.0, 24.5, 156.0 ]
				}

			}
, 			{
				"patchline" : 				{
					"source" : [ "obj-9", 0 ],
					"destination" : [ "obj-30", 0 ],
					"hidden" : 0,
					"midpoints" : [ 64.5, 156.0, 24.5, 156.0 ]
				}

			}
, 			{
				"patchline" : 				{
					"source" : [ "obj-32", 0 ],
					"destination" : [ "obj-30", 0 ],
					"hidden" : 0,
					"midpoints" : [  ]
				}

			}
, 			{
				"patchline" : 				{
					"source" : [ "obj-6", 0 ],
					"destination" : [ "obj-30", 0 ],
					"hidden" : 0,
					"midpoints" : [ 44.5, 156.0, 24.5, 156.0 ]
				}

			}
, 			{
				"patchline" : 				{
					"source" : [ "obj-2", 1 ],
					"destination" : [ "obj-1", 0 ],
					"hidden" : 0,
					"midpoints" : [  ]
				}

			}
, 			{
				"patchline" : 				{
					"source" : [ "obj-8", 0 ],
					"destination" : [ "obj-2", 0 ],
					"hidden" : 0,
					"midpoints" : [  ]
				}

			}
, 			{
				"patchline" : 				{
					"source" : [ "obj-1", 0 ],
					"destination" : [ "obj-4", 0 ],
					"hidden" : 0,
					"midpoints" : [ 164.5, 305.0, 224.5, 305.0 ]
				}

			}
, 			{
				"patchline" : 				{
					"source" : [ "obj-34", 0 ],
					"destination" : [ "obj-4", 1 ],
					"hidden" : 0,
					"midpoints" : [  ]
				}

			}
, 			{
				"patchline" : 				{
					"source" : [ "obj-4", 0 ],
					"destination" : [ "obj-35", 0 ],
					"hidden" : 0,
					"midpoints" : [  ]
				}

			}
, 			{
				"patchline" : 				{
					"source" : [ "obj-2", 0 ],
					"destination" : [ "obj-10", 0 ],
					"hidden" : 0,
					"midpoints" : [  ]
				}

			}
, 			{
				"patchline" : 				{
					"source" : [ "obj-10", 0 ],
					"destination" : [ "obj-12", 0 ],
					"hidden" : 0,
					"midpoints" : [  ]
				}

			}
, 			{
				"patchline" : 				{
					"source" : [ "obj-12", 0 ],
					"destination" : [ "obj-11", 0 ],
					"hidden" : 0,
					"midpoints" : [  ]
				}

			}
, 			{
				"patchline" : 				{
					"source" : [ "obj-11", 0 ],
					"destination" : [ "obj-13", 0 ],
					"hidden" : 0,
					"midpoints" : [  ]
				}

			}
 ]
	}

}
