max v2;
#N vpatcher 163 60 1340 757;
#P window setfont "Sans Serif" 9.;
#P window linecount 1;
#P hidden message 924 570 14 196617 1;
#P hidden newex 940 570 32 196617 sel 1;
#P window linecount 2;
#P hidden newex 790 537 310 196617 jcom.parameter dcblocker/active @type msg_toggle @description "DC Blocker: Active or bypassed - works only if limiter is active";
#P objectname limiter/active[1];
#P window linecount 1;
#P hidden newex 790 517 109 196617 pvar DCBlockerToggle;
#P comment 77 105 57 196617 DC Blocker;
#B frgb 198 198 198;
#P user radiogroup 61 102 75 16;
#X size 1;
#X offset 16;
#X inactive 0;
#X itemtype 1;
#X flagmode 0;
#X set 0;
#X done;
#P objectname DCBlockerToggle;
#P window linecount 2;
#P hidden message 202 312 121 196617 /preset/store 1 default \, /preset/write;
#B color 3;
#P user lcd 35 44 123 10 0 0 0 0 1;
#P window linecount 1;
#N vpatcher 101 72 1371 786;
#P origin 30 -44;
#P window setfont "Sans Serif" 9.;
#P window linecount 0;
#P newex 1027 328 31 196617 == 0;
#P newex 635 359 47 196617 gate 1 1;
#P newex 171 359 47 196617 gate 1 1;
#P inlet 859 76 15 0;
#P inlet 397 76 15 0;
#P newex 859 99 75 196617 peakamp~ 125;
#P newex 397 100 75 196617 peakamp~ 125;
#P newex 1078 380 193 196617 send $1_FROM_GUI_AUDIO_COMPONENT;
#P newex 1078 358 144 196617 prepend audio_meters_freeze;
#P objectname audio_meter_freeze_prepend;
#P window linecount 2;
#P newex 816 289 433 196617 jcom.parameter audio/meters/freeze @type msg_toggle @range 0 1 @description "When active\\\, this attribute turns off the signal level meters in the module to conserve CPU.";
#P objectname audio/meters/freeze;
#P comment 1077 400 179 196617 this is sent to the js in the gui so that it can flag the menu item correctly.;
#P window linecount 1;
#P newex 41 202 21 196617 t 0;
#B color 1;
#P objectname jcom.parameter[4];
#P newex 52 174 166 196617 jcom.message audio/meters/clear;
#B color 1;
#P objectname jcom.parameter[3];
#N vpatcher 350 363 1169 752;
#P window setfont "Sans Serif" 9.;
#P window linecount 1;
#P newex 360 226 22 196617 b 1;
#P window linecount 2;
#P message 101 254 62 196617 deletesprite myPeak;
#P window linecount 1;
#P newex 186 210 99 196617 scale 1 124 35 255;
#P newex 166 231 30 196617 pack;
#P newex 144 185 32 196617 sel 0;
#P newex 144 163 60 196617 split 0 123;
#P newex 144 141 40 196617 peak;
#P message 617 118 124 196617 drawsprite myMask \$1 0;
#P number 617 97 35 9 0 0 0 3 0 0 0 221 221 221 222 222 222 0 0 0;
#P newex 617 76 122 196617 scale -96 0 0 124 1.035;
#P newex 617 55 34 196617 atodb;
#P window linecount 3;
#P message 166 254 174 196617 recordsprite \, linesegment \$1 0 \$1 9 \$2 255 16 \, closesprite myPeak \, drawsprite myPeak 0 0;
#P inlet 174 34 15 0;
#P inlet 617 34 15 0;
#P outlet 166 332 15 0;
#P window linecount 2;
#P message 360 254 224 196617 recordsprite \, paintrect 119 0 123 10 250 0 0 \, closesprite myPeak \, drawsprite myPeak 0 0;
#P connect 11 0 14 0;
#P fasten 7 0 9 0 622 136 149 136;
#P connect 9 0 10 0;
#P connect 10 0 11 0;
#P connect 11 1 12 0;
#P connect 12 0 4 0;
#P connect 14 0 1 0;
#P connect 4 0 1 0;
#P fasten 8 0 1 0 622 319 171 319;
#P fasten 0 0 1 0 365 319 171 319;
#P connect 3 0 9 1;
#P connect 11 1 13 0;
#P connect 13 0 12 1;
#P connect 10 1 15 0;
#P connect 15 0 0 0;
#P connect 2 0 5 0;
#P connect 5 0 6 0;
#P connect 6 0 7 0;
#P connect 7 0 8 0;
#P pop;
#P newobj 208 288 128 196617 p dynamic_draw_right_ch;
#N vpatcher 350 363 1169 752;
#P window setfont "Sans Serif" 9.;
#P window linecount 1;
#P newex 360 226 22 196617 b 1;
#P window linecount 2;
#P message 101 254 62 196617 deletesprite myPeak;
#P window linecount 1;
#P newex 186 210 99 196617 scale 1 124 35 255;
#P newex 166 231 30 196617 pack;
#P newex 144 185 32 196617 sel 0;
#P newex 144 163 60 196617 split 0 123;
#P newex 144 141 40 196617 peak;
#P message 617 118 124 196617 drawsprite myMask \$1 0;
#P number 617 97 35 9 0 0 0 3 0 0 0 221 221 221 222 222 222 0 0 0;
#P newex 617 76 122 196617 scale -96 0 0 124 1.035;
#P newex 617 55 34 196617 atodb;
#P window linecount 3;
#P message 166 254 174 196617 recordsprite \, linesegment \$1 0 \$1 9 \$2 255 16 \, closesprite myPeak \, drawsprite myPeak 0 0;
#P inlet 174 34 15 0;
#P inlet 617 34 15 0;
#P outlet 166 332 15 0;
#P window linecount 2;
#P message 360 254 224 196617 recordsprite \, paintrect 119 0 123 10 250 0 0 \, closesprite myPeak \, drawsprite myPeak 0 0;
#P connect 11 0 14 0;
#P fasten 7 0 9 0 622 136 149 136;
#P connect 9 0 10 0;
#P connect 10 0 11 0;
#P connect 11 1 12 0;
#P connect 12 0 4 0;
#P fasten 0 0 1 0 365 319 171 319;
#P fasten 8 0 1 0 622 319 171 319;
#P connect 4 0 1 0;
#P connect 14 0 1 0;
#P connect 3 0 9 1;
#P connect 11 1 13 0;
#P connect 13 0 12 1;
#P connect 10 1 15 0;
#P connect 15 0 0 0;
#P connect 2 0 5 0;
#P connect 5 0 6 0;
#P connect 6 0 7 0;
#P connect 7 0 8 0;
#P pop;
#P newobj 672 288 128 196617 p dynamic_draw_right_ch;
#P comment 526 487 100 196617 lower (right) meter;
#P outlet 635 487 15 0;
#P button 349 403 15 0;
#N vpatcher 11 96 806 530;
#P window setfont "Sans Serif" 9.;
#P window linecount 0;
#P message 63 384 110 196617 deletesprite myMask1;
#P window linecount 1;
#P message 45 123 40 196617 local 0;
#P window linecount 4;
#P message 91 123 118 196617 recordsprite \, paintrect 0 0 123 10 50 50 50 \, closesprite myMask \, drawsprite myMask 0 0;
#P window linecount 1;
#P newex 45 76 196 196617 b 5;
#P newex 260 271 30 196617 pack;
#P newex 280 247 99 196617 scale 0 125 35 255;
#P message 260 293 162 196617 linesegment \$1 0 \$1 9 \$2 255 16;
#P message 427 293 150 196617 linesegment \$1 0 \$1 9 250 0 0;
#P newex 260 194 177 196617 split 0 118;
#P comment 265 152 73 196617 meter 1 (left);
#P newex 260 171 75 196617 jcom.thru.mxt;
#P newex 218 124 53 196617 uzi 123 0;
#P message 624 138 33 196617 clear;
#P message 659 138 93 196617 brgb 170 170 170;
#P inlet 45 39 15 0;
#P outlet 45 384 15 0;
#P connect 1 0 12 0;
#P connect 12 0 14 0;
#P connect 15 0 0 0;
#P fasten 2 0 0 0 664 360 50 360;
#P fasten 3 0 0 0 629 360 50 360;
#P fasten 14 0 0 0 50 360 50 360;
#P fasten 8 0 0 0 432 360 50 360;
#P fasten 9 0 0 0 265 360 50 360;
#P fasten 13 0 0 0 96 360 50 360;
#P connect 12 1 13 0;
#P fasten 12 2 4 0 142 113 223 113;
#P connect 4 2 5 0;
#P connect 5 0 7 0;
#P connect 7 0 11 0;
#P connect 11 0 9 0;
#P connect 7 0 10 0;
#P connect 10 0 11 1;
#P connect 7 1 8 0;
#P fasten 12 3 3 0 188 104 629 104;
#P fasten 12 4 2 0 234 98 664 98;
#P pop;
#P newobj 349 424 73 196617 p static_draw;
#P window linecount 4;
#P newex 923 196 176 196617 jcom.return audio/amplitude/2 @type msg_float @range 0. 1. @description "Instant amplitude of the signal of track 2 (range 0. 1.)";
#P objectname audio/enveloppe/1[1];
#P window linecount 1;
#P newex 923 171 50 196617 gate 1 0;
#P window linecount 3;
#P newex 804 24 248 196617 jcom.parameter audio/enveloppe_follower/2 @type msg_toggle @range 0 1 @description "Turn on/off the enveloppe follower for track 2 of this module";
#P objectname audio/enveloppe_follower/2;
#P window linecount 5;
#P newex 459 196 155 196617 jcom.return audio/amplitude/1 @type msg_float @range 0. 1. @description "Instant amplitude of the signal of track 1 (range 0. 1.)";
#P objectname audio/enveloppe/1;
#P window linecount 1;
#P newex 459 171 47 196617 gate 1 0;
#P window linecount 3;
#P newex 340 24 248 196617 jcom.parameter audio/enveloppe_follower/1 @type msg_toggle @range 0 1 @description "Turn on/off the enveloppe follower for track 1 of this module";
#P objectname audio/enveloppe_follower/1;
#P window linecount 1;
#P comment 141 116 90 196617 defeat the meters;
#P toggle 123 136 15 0;
#P inlet 123 116 15 0;
#P comment 504 124 252 196617 these receive amplitude envelope info from jcom.out~;
#P inlet 41 115 15 0;
#P flonum 326 138 35 9 0 0 0 3 0 0 0 221 221 221 222 222 222 0 0 0;
#P newex 349 379 50 196617 jcom.init;
#P flonum 790 138 35 9 0 0 0 3 0 0 0 221 221 221 222 222 222 0 0 0;
#P window linecount 2;
#P newex 790 100 66 196617 jcom.remote __meter__2;
#P newex 326 100 67 196617 jcom.remote __meter__1;
#P outlet 171 487 15 0;
#P comment 605 31 162 196617 For now we assume two meters - we can make this dynamic later...;
#P window linecount 1;
#P comment 59 115 59 196617 in from lcd;
#P comment 187 487 100 196617 upper (left) meter;
#P connect 9 0 27 0;
#P connect 26 0 27 0;
#P connect 11 0 12 0;
#P fasten 38 0 36 0 1032 350 176 350;
#P connect 20 0 3 0;
#P connect 36 0 3 0;
#P fasten 27 0 25 0 46 280 213 280;
#P connect 25 0 36 1;
#P fasten 32 0 8 0 402 134 331 134;
#P connect 4 0 8 0;
#P connect 8 0 25 1;
#P connect 7 0 21 0;
#P connect 21 0 20 0;
#P connect 34 0 32 0;
#P connect 14 1 15 0;
#P connect 15 0 16 0;
#P fasten 8 0 15 1 331 162 501 162;
#P fasten 38 0 37 0 1032 352 640 352;
#P connect 20 0 22 0;
#P connect 37 0 22 0;
#P fasten 27 0 24 0 46 279 677 279;
#P connect 24 0 37 1;
#P fasten 33 0 6 0 864 131 795 131;
#P connect 5 0 6 0;
#P connect 6 0 24 1;
#P connect 35 0 33 0;
#P connect 17 1 18 0;
#P fasten 18 0 19 0 928 192 928 192;
#P fasten 6 0 18 1 795 162 968 162;
#P connect 29 1 38 0;
#P fasten 29 1 30 0 1032 322 1083 322;
#P connect 30 0 31 0;
#P pop;
#P hidden newobj 21 287 77 196617 p metercontrol;
#P objectname metercontrol;
#P user lcd 35 28 123 10 0 0 0 0 1;
#P hidden newex 346 161 51 196617 route set;
#P window linecount 2;
#P hidden newex 199 166 57 196617 jcom.out~ 0;
#P window linecount 1;
#P hidden newex 143 165 53 196617 jcom.in~ 2;
#P window linecount 2;
#P hidden newex 346 128 272 196617 jcom.parameter.gain.mxt audio/gain @description "master gain";
#B color 2;
#P objectname jcom.parameter.gain.mxt;
#P window linecount 1;
#P hidden comment 25 652 265 196617 - record 0: stops recording.;
#P window linecount 2;
#P hidden comment 25 623 258 196617 - record (filename): starts recording to the sound file specified;
#P hidden comment 25 593 265 196617 - record 1: starts recording to a previously specified sound file. If no sound file is psecified \, it's to bad...;
#P hidden comment 25 563 265 196617 - open with no argument: bring up the open dialog??? (Or should we forget about this one?);
#P hidden comment 25 534 265 196617 - open filename: open the soundfile specified \, but do not start recording;
#P window linecount 3;
#P hidden comment 25 492 265 196617 - samptype and filetype can be set beforehand using messages "samptype $1" and "filetype $1" \, and is remembered.;
#P window linecount 1;
#P hidden newex 360 635 320 196617 jcom.message dsp_status @description " Open DSP Status window.";
#P hidden message 34 312 125 196617 /documentation/generate;
#P hidden newex 27 236 45 196617 pcontrol;
#P hidden newex 27 213 84 196617 jcom.pass /open;
#P hidden newex 346 106 89 196617 pvar gain_master;
#B color 7;
#P user pictslider 26 70 161 13 2 0 2 0 jcom.slider.ch.knob.bottom.pct 1 jcom.slider.ch.bg.pct 1 2657 0 0 157 1. 1.;
#P objectname gain_master;
#P hidden newex 468 356 229 196617 jcom.parameter record @type msg_toggle;
#P objectname record;
#P window linecount 3;
#P hidden newex 15 345 296 196617 jcom.hub jmod.output~ @size 2U-half @module_type audio.no_panel @description "A generic module for stereo audio output. Includes saturation \\\, limiter and recording device";
#P objectname jcom.hub;
#P window linecount 1;
#P hidden comment 25 473 244 196617 - left channel jcom-meter~ tends to die;
#P hidden newex 346 377 90 196617 s $0_xxx_record;
#B color 14;
#P comment 146 105 68 196617 Release (ms);
#B frgb 198 198 198;
#P hidden newex 750 233 65 196617 pvar Preamp;
#P comment 146 88 66 196617 Preamp (dB);
#B frgb 198 198 198;
#P hidden newex 750 373 65 196617 pvar Release;
#P hidden user umenu 680 484 66 196647 1 64 500 1;
#X add exponential;
#X add linear;
#P hidden newex 792 579 95 196617 pvar LimiterToggle;
#P hidden newex 792 600 443 196617 jcom.parameter limiter/active @type msg_toggle @description "Limiter: Active or bypassed.";
#P objectname limiter/active;
#P hidden flonum 703 443 43 9 0 0 0 3 0 0 0 221 221 221 222 222 222 0 0 0;
#P flonum 215 103 37 9 0. 10000. 8227 3 198 198 198 221 221 221 222 222 222 0 0 0;
#P objectname Release;
#P hidden number 703 339 43 9 0 256 3 3 0 0 0 221 221 221 222 222 222 0 0 0;
#P hidden flonum 704 301 43 9 0 0 0 3 0 0 0 221 221 221 222 222 222 0 0 0;
#P flonum 215 86 36 9 0. 48. 8227 3 198 198 198 221 221 221 222 222 222 0 0 0;
#P objectname Preamp;
#P window setfont "Sans Serif" 12.;
#P hidden comment 324 183 210 196620 Sound File Record;
#B color 7;
#P window setfont "Sans Serif" 9.;
#P window linecount 2;
#P hidden newex 750 476 301 196617 jcom.parameter limiter/mode @type msg_symbol @description "Limiter: Set the function to be used for calculating the scaling.";
#P objectname limiter/mode;
#P hidden newex 750 434 371 196617 jcom.parameter limiter/threshold @ramp/drive scheduler @range -24 48 @clipmode none @type msg_float @description "Limiter: Set threshold as dB.";
#P objectname limiter/threshold;
#P hidden newex 750 393 366 196617 jcom.parameter limiter/release @ramp/drive scheduler @type msg_float @range 0 3000 @clipmode low @description "Limiter: Set release time as ms.";
#P objectname limiter/release;
#P hidden newex 750 330 388 196617 jcom.parameter limiter/lookahead @ramp/drive scheduler @range 0 256 @clipmode both @type msg_int @description "Limiter: The number of samples to look ahead.";
#P objectname limiter/lookahead;
#P hidden newex 750 293 345 196617 jcom.parameter limiter/postamp @ramp/drive scheduler @range -24 48 @clipmode none @type msg_float @description "Limiter: Postamp as dB.";
#P objectname limiter/postamp;
#P hidden newex 750 255 332 196617 jcom.parameter limiter/preamp @ramp/drive scheduler @range 0 48 @clipmode none @type msg_float @description "Limiter: Preamp as dB.";
#P objectname limiter/preamp;
#P window linecount 1;
#P comment 16 105 57 196617 Limiter;
#B frgb 198 198 198;
#P window setfont "Sans Serif" 12.;
#P hidden comment 730 158 353 196620 Limiter (not all parameters are exposed in the interface);
#B color 7;
#P hidden comment 730 11 210 196620 Saturation;
#B color 7;
#P window setfont "Sans Serif" 9.;
#P window linecount 2;
#P hidden newex 750 122 434 196617 jcom.parameter saturation/active @type msg_toggle @description "Saturation: Active or bypassed.";
#P objectname saturation/active;
#P window linecount 1;
#P hidden newex 750 100 109 196617 pvar SaturationToggle;
#P hidden newex 750 35 105 196617 pvar SaturationDepth;
#P window linecount 2;
#P hidden newex 750 57 376 196617 jcom.parameter saturation/depth @ramp/drive scheduler @repetitions 0 @type msg_float @range 0 99 @clipmode both @description "Saturation: Depth.";
#P objectname saturation/depth;
#P number 77 86 21 9 0 99 8227 3 198 198 189 221 221 221 222 222 222 0 0 0;
#P objectname SaturationDepth;
#P window linecount 1;
#P comment 97 88 18 196617 %;
#B frgb 198 198 198;
#P hidden newex 346 294 109 196617 pvar SamptypeMenu 2;
#P window linecount 2;
#P hidden newex 346 317 275 196617 jcom.parameter record/samptype @type msg_symbol @description "Recording: Set sample type for sound files.";
#P objectname record/samptype;
#P hidden newex 346 253 259 196617 jcom.parameter record/filetype @type msg_symbol @description "Recording: Set file type for sound files.";
#B color 2;
#P objectname record/filetype;
#P window linecount 1;
#N vpatcher 14 59 614 459;
#P outlet 60 265 15 0;
#P window setfont "Sans Serif" 9.;
#P newex 60 218 75 196617 prepend append;
#P newex 60 60 55 196617 r jcom.init;
#P message 111 175 98 196617 aiff \, au \, raw \, wave;
#P message 60 192 121 196617 aiff \, au \, raw \, wave \, sd2;
#P newex 222 164 39 196617 t clear;
#P newex 60 151 112 196617 sel macintosh windows;
#P newex 60 130 45 196617 route os;
#P newex 60 99 123 196617 js jcom.js_systeminfo.js;
#P connect 6 0 0 0;
#P connect 0 0 1 0;
#P connect 1 0 2 0;
#P connect 2 0 4 0;
#P connect 5 0 7 0;
#P connect 4 0 7 0;
#P fasten 3 0 8 0 227 250 65 250;
#P connect 7 0 8 0;
#P connect 2 1 5 0;
#P fasten 6 0 3 0 65 89 227 89;
#P pop;
#P hidden newobj 346 202 60 196617 p FileTypes;
#P user umenu 191 46 61 196647 1 64 62 0;
#X setrgb 225 225 225 68 68 68 91 91 91 17 17 17 58 58 58 0 0 0 50 50 50;
#X add aiff;
#X add au;
#X add raw;
#X add wave;
#X add sd2;
#P objectname FiletypeMenu;
#P hidden newex 346 230 101 196617 pvar FiletypeMenu 2;
#P user umenu 191 64 61 196647 1 64 80 0;
#X setrgb 225 225 225 68 68 68 91 91 91 17 17 17 58 58 58 0 0 0 50 50 50;
#X add int8;
#X add int16;
#X add int24;
#X add int32;
#X add float32;
#X add float64;
#X add mulaw;
#X add alaw;
#P objectname SamptypeMenu;
#P hidden inlet 186 146 15 0;
#P hidden inlet 143 146 15 0;
#P hidden number 455 536 35 9 0 0 0 3 0 0 0 74 156 97 222 222 222 0 0 0;
#P hidden number 458 587 35 9 0 0 0 3 0 0 0 74 156 97 222 222 222 0 0 0;
#P hidden message 346 86 45 196617 set \$1 0;
#P hidden number 438 108 35 9 0 0 0 3 0 0 0 74 156 97 222 222 222 0 0 0;
#P user jsui 196 24 45 19 3 0 0 jcom.jsui_texttoggle.js Record Record 68 68 68 225 225 225 255 40 40 0 0 0;
#P objectname RecordButton;
#P window setfont "Sans Serif" 12.;
#P hidden comment 337 484 210 196620 DSP and dac~ settings;
#B color 7;
#P window setfont "Sans Serif" 9.;
#P hidden comment 24 458 100 196617 Bugs/required fixes:;
#P hidden newex 360 613 85 196617 pvar DSP_Status;
#B color 7;
#P hidden newex 360 586 95 196617 pvar Channel_Right;
#B color 7;
#P hidden newex 360 535 91 196617 pvar Channel_Left;
#B color 7;
#P hidden newex 360 564 417 196617 jcom.parameter ch_2 @type msg_int @description " Set logical output for right channel.";
#B color 2;
#P objectname ch_2;
#P hidden newex 360 513 413 196617 jcom.parameter ch_1 @type msg_int @description " Set logical output for left channel.";
#B color 2;
#P objectname ch_1;
#P user jsui 196 0 45 19 3 0 0 jsui_textbutton.js DSP 225 225 225 68 68 68;
#P objectname DSP_Status;
#P number 7 43 30 9 1 512 8227 3 198 198 198 221 221 221 222 222 222 0 0 0;
#P objectname Channel_Right;
#P number 7 26 30 9 1 512 8227 3 198 198 198 221 221 221 222 222 222 0 0 0;
#P objectname Channel_Left;
#P hidden toggle 126 402 15 0;
#P hidden message 88 402 35 196617 1 100;
#P hidden message 49 402 35 196617 0 100;
#P window linecount 2;
#P hidden message 195 430 69 196617 \; max refresh;
#P window linecount 1;
#P hidden message 162 312 37 196617 /init;
#P hidden newex 49 426 84 196617 s jcom.dsptoggle;
#P window setfont "Sans Serif" 12.;
#P hidden comment 324 13 210 196620 Volume;
#B color 7;
#P hidden user led 441 355 17 17 1 150;
#P window setfont "Sans Serif" 9.;
#N vpatcher 363 74 1023 527;
#P origin -64 11;
#P window setfont "Sans Serif" 9.;
#P newex 223 118 316 196617 jcom.oscroute /saturation /limiter /dcblocker /audio/gain /record;
#P outlet 29 365 15 0;
#P outlet 9 365 15 0;
#N vpatcher 14 59 614 459;
#P window setfont "Sans Serif" 9.;
#P window linecount 1;
#P newex 230 163 35 196617 t open;
#P window linecount 0;
#P newex 30 186 75 196617 r $0_xxx_dac;
#B color 14;
#P inlet 180 55 15 0;
#P inlet 107 55 15 0;
#P outlet 434 255 15 0;
#P newex 366 163 61 196617 prepend set;
#P newex 298 163 61 196617 prepend set;
#P inlet 230 55 15 0;
#P newex 230 135 216 196617 jcom.oscroute /dsp_status /ch_1 /ch_2;
#P newex 107 241 83 196617 dac~ 1 2;
#P connect 9 0 0 0;
#P connect 6 0 0 0;
#P connect 8 0 0 0;
#P connect 3 0 0 0;
#P connect 7 0 0 1;
#P connect 4 0 0 1;
#P connect 2 0 1 0;
#P connect 1 0 9 0;
#P connect 1 1 3 0;
#P connect 1 2 4 0;
#P connect 1 3 5 0;
#P pop;
#P newobj 77 365 157 196617 p dac;
#N vpatcher 429 81 1247 410;
#P origin 11 0;
#P window setfont "Sans Serif" 9.;
#P window linecount 1;
#P newex 639 88 111 196617 jcom.oscroute /active;
#P inlet 639 45 15 0;
#P window linecount 0;
#P newex 454 173 54 196617 jcom.thru;
#P newex 639 135 128 196617 prepend bypass_dcblocker;
#P window linecount 1;
#P newex 639 111 31 196617 == 0;
#P window linecount 0;
#P newex 511 140 79 196617 prepend bypass;
#P newex 511 119 31 196617 == 0;
#P newex 510 99 111 196617 jcom.oscroute /active;
#P newex 204 79 320 196617 jcom.pass /preamp /postamp /threshold /lookahead /release /mode;
#P inlet 204 46 15 0;
#P outlet 111 256 15 0;
#P outlet 61 256 15 0;
#P inlet 161 46 15 0;
#P inlet 61 46 15 0;
#P newex 61 202 110 196617 jcom.limiter~;
#P comment 650 67 65 196617 DC Blocker;
#P fasten 13 0 1 0 459 196 66 196;
#P connect 7 0 1 0;
#P connect 7 5 1 0;
#P connect 7 4 1 0;
#P connect 7 3 1 0;
#P connect 7 2 1 0;
#P connect 7 1 1 0;
#P connect 2 0 1 0;
#P connect 1 0 4 0;
#P connect 1 1 5 0;
#P connect 3 0 1 1;
#P connect 6 0 7 0;
#P fasten 10 0 13 0 516 168 459 168;
#P fasten 12 0 13 0 644 168 459 168;
#P connect 7 6 8 0;
#P connect 8 0 9 0;
#P connect 9 0 10 0;
#P connect 14 0 15 0;
#P connect 15 0 11 0;
#P fasten 11 0 12 0 644 130 644 130;
#P pop;
#P newobj 77 197 158 196617 p limiter&DC-Blocker;
#N vpatcher 417 152 1017 552;
#P window setfont "Sans Serif" 9.;
#P newex 396 209 79 196617 prepend bypass;
#P newex 396 186 31 196617 == 0;
#P window linecount 1;
#P newex 396 164 111 196617 jcom.oscroute /active;
#P window linecount 0;
#P newex 266 121 120 196617 expr 1./(1. - $f1*0.01);
#P outlet 136 309 15 0;
#P outlet 172 309 15 0;
#P inlet 208 50 15 0;
#P inlet 136 50 15 0;
#P newex 266 151 92 196617 prepend overdrive;
#P newex 266 75 140 196617 jcom.oscroute /depth;
#P inlet 266 50 15 0;
#P newex 136 268 82 196617 jcom.saturation~;
#P connect 4 0 0 0;
#P connect 3 0 0 0;
#P connect 11 0 0 0;
#P connect 0 0 7 0;
#P connect 0 1 6 0;
#P connect 5 0 0 1;
#P connect 1 0 2 0;
#P connect 2 0 8 0;
#P connect 8 0 3 0;
#P connect 2 1 9 0;
#P connect 9 0 10 0;
#P connect 10 0 11 0;
#P pop;
#P newobj 77 168 157 196617 p saturation;
#P inlet 3 32 15 0;
#P inlet 150 135 15 0;
#P inlet 77 135 15 0;
#N vpatcher 185 98 808 500;
#P window setfont "Sans Serif" 9.;
#P message 475 163 30 196617 0 10;
#P newex 410 140 31 196617 sel 1;
#P newex 319 270 27 196617 *~;
#P newex 284 270 27 196617 *~;
#P message 410 163 43 196617 0 \, 1 10;
#P newex 410 189 31 196617 line~;
#P newex 410 112 53 196617 dspstate~;
#P comment 94 334 202 196617 NOTE: This fade is not displayed in the GUI.;
#P comment 24 75 145 196617 Quick fade in when audio start;
#P inlet 319 91 15 0;
#P inlet 284 91 15 0;
#P outlet 319 305 15 0;
#P outlet 284 305 15 0;
#P newex 475 112 81 196617 r jcom.audio.off;
#P comment 24 59 145 196617 Quick fade out when audio stop;
#P comment 24 95 245 196617 line~ is able to handle this. gain~ and matrix~ is not.;
#P connect 5 0 12 0;
#P connect 12 0 3 0;
#P connect 10 0 12 1;
#P connect 6 0 13 0;
#P connect 13 0 4 0;
#P connect 10 0 13 1;
#P connect 9 0 14 0;
#P connect 14 0 11 0;
#P connect 11 0 10 0;
#P connect 15 0 10 0;
#P connect 2 0 15 0;
#P pop;
#P newobj 77 289 83 196617 p smooth_in_out;
#N vpatcher 759 82 1072 489;
#P inlet 177 42 15 0;
#P outlet 64 318 15 0;
#P outlet 93 318 15 0;
#P inlet 64 44 15 0;
#P inlet 93 44 15 0;
#P window setfont "Sans Serif" 9.;
#P newex 177 78 102 196617 jcom.oscroute /midi;
#P user gain~ 64 130 24 100 158 0 1.071519 7.94321 10.;
#P user gain~ 93 131 24 100 158 0 1.071519 7.94321 10.;
#P connect 2 0 1 0;
#P connect 4 0 1 0;
#P connect 1 0 6 0;
#P connect 2 0 0 0;
#P connect 3 0 0 0;
#P connect 0 0 5 0;
#P connect 7 0 2 0;
#P pop;
#P newobj 77 226 156 196617 p gain;
#N vpatcher 316 274 1264 806;
#P origin 0 80;
#P window setfont "Sans Serif" 9.;
#P window linecount 0;
#P newex 453 203 20 196617 t b;
#P newex 453 225 36 196617 zl reg;
#P newex 479 132 107 196617 jcom.pass /samptype;
#P comment 549 282 78 196617 FROM REMOTE:;
#P comment 549 459 265 196617 - record 0: stops recording.;
#P window linecount 2;
#P comment 549 430 265 196617 - record (filename): starts recording to the sound file specified;
#P comment 549 400 265 196617 - record 1: starts recording to a previously specified sound file. If no sound file has been specified \, it's to bad...;
#P comment 549 370 265 196617 - open with no argument: bring up the open dialog??? (Or should we forget about this one?);
#P comment 549 341 265 196617 - open filename: open the soundfile specified \, but do not start recording;
#P window linecount 3;
#P comment 549 299 265 196617 - samptype and filetype can be set beforehand using messages "samptype $1" and "filetype $1" \, and is remembered.;
#P window linecount 1;
#P newex 261 147 120 196617 pack open aiff;
#P newex 371 87 118 196617 jcom.oscroute /filetype;
#P newex 261 92 90 196617 r $0_xxx_record;
#B color 14;
#P newex 261 121 31 196617 sel 1;
#P inlet 371 60 15 0;
#P inlet 80 91 15 0;
#P inlet 153 91 15 0;
#P newex 80 278 83 196617 sfrecord~ 2;
#P comment 504 214 271 196617 <- required to avoid an error message during initialisation;
#P connect 8 0 1 0;
#P connect 6 0 1 0;
#P connect 3 0 1 0;
#P connect 17 0 1 0;
#P connect 2 0 1 1;
#P connect 6 0 5 0;
#P connect 5 0 8 0;
#P connect 4 0 7 0;
#P connect 7 0 8 1;
#P connect 8 0 18 0;
#P connect 18 0 17 0;
#P connect 7 1 16 0;
#P connect 16 0 17 1;
#P pop;
#P newobj 263 365 214 196617 p record;
#P connect 2 0 9 0;
#P connect 2 1 10 0;
#P connect 3 0 6 0;
#P connect 6 0 7 0;
#P connect 7 0 1 0;
#P connect 1 0 2 0;
#P connect 2 0 8 0;
#P fasten 6 1 7 1 229 191 131 191;
#P connect 4 0 6 1;
#P fasten 7 1 1 1 230 220 155 220;
#P fasten 1 1 2 1 228 266 155 266;
#P connect 2 1 8 1;
#P fasten 11 1 7 2 289 152 180 152;
#P fasten 5 0 11 0 8 68 228 68;
#P connect 11 0 6 2;
#P fasten 11 3 1 2 411 222 228 222;
#P fasten 11 5 8 2 533 338 228 338;
#P fasten 11 2 7 3 350 194 229 194;
#P connect 2 0 0 0;
#P connect 2 1 0 1;
#P connect 11 4 0 2;
#P pop;
#P hidden newobj 101 263 95 196617 p Sound_processing;
#P hidden newex 346 355 93 196617 pvar RecordButton;
#B color 7;
#P user fpic 26 18 160 52 jcom.bg.hgain.pct 0 0 0 0. 0 0 0;
#P hidden outlet 15 396 15 0;
#P hidden inlet 15 312 15 0;
#P window linecount 3;
#P hidden comment 324 34 202 196617 The set message is important to prevent feedback into jcom.parameter.gain from killing ongoing ramps;
#P window linecount 1;
#P hidden comment 146 129 77 196617 -- audio in --;
#P comment 16 88 57 196617 Saturation;
#B frgb 198 198 198;
#P user radiogroup 2 85 75 16;
#X size 1;
#X offset 16;
#X inactive 0;
#X itemtype 1;
#X flagmode 0;
#X set 0;
#X done;
#P objectname SaturationToggle;
#P user radiogroup 2 102 75 16;
#X size 1;
#X offset 16;
#X inactive 0;
#X itemtype 1;
#X flagmode 0;
#X set 0;
#X done;
#P objectname LimiterToggle;
#P bpatcher 0 0 255 120 0 0 jcom.gui.mxt 0;
#P objectname jcom.gui.mxt;
#P hidden fasten 94 0 73 0 207 342 20 342;
#P hidden fasten 14 0 73 0 167 342 20 342;
#P hidden connect 6 0 73 0;
#P hidden fasten 79 0 73 0 39 342 20 342;
#P hidden connect 73 0 7 0;
#P hidden connect 93 2 92 0;
#P lcolor 2;
#P hidden connect 91 2 92 0;
#P lcolor 2;
#P hidden connect 88 2 77 0;
#P hidden connect 77 0 78 0;
#P hidden connect 92 0 91 0;
#P lcolor 2;
#P hidden connect 92 1 93 0;
#P lcolor 2;
#P hidden fasten 16 0 13 0 54 421 54 421;
#P hidden fasten 17 0 13 0 93 421 54 421;
#P hidden fasten 18 0 13 0 131 421 54 421;
#P hidden connect 10 0 92 2;
#P hidden connect 10 1 92 3;
#P hidden connect 77 1 10 0;
#P hidden fasten 78 0 10 0 32 259 106 259;
#P hidden connect 34 0 88 0;
#P hidden connect 88 0 10 1;
#P hidden fasten 88 1 10 2 162 223 190 223;
#P hidden connect 35 0 88 1;
#P hidden fasten 90 0 31 0 351 181 338 181 338 75 351 75;
#P hidden connect 31 0 76 0;
#P hidden connect 76 0 87 0;
#P hidden connect 87 0 90 0;
#P hidden connect 39 0 37 0;
#P hidden fasten 40 0 37 0 351 285 339 285 339 223 351 223;
#P hidden fasten 37 1 40 0 442 250 351 250;
#P hidden fasten 41 0 42 0 351 348 339 348 339 290 351 290;
#P hidden fasten 42 1 41 0 450 314 351 314;
#P hidden connect 74 0 9 0;
#P hidden connect 9 0 71 0;
#P hidden fasten 24 0 22 0 365 556 355 556 355 510 365 510;
#P hidden connect 22 0 24 0;
#P hidden fasten 25 0 23 0 365 607 355 607 355 560 365 560;
#P hidden connect 23 0 25 0;
#P hidden connect 26 0 80 0;
#P hidden connect 76 0 30 0;
#P hidden connect 9 0 11 0;
#P hidden connect 24 0 33 0;
#P hidden connect 25 0 32 0;
#P hidden connect 9 0 74 0;
#P hidden connect 57 0 66 0;
#P hidden connect 54 0 61 0;
#P hidden connect 56 0 63 0;
#P hidden connect 53 0 60 0;
#P hidden fasten 45 0 46 0 755 92 745 92 745 32 755 32;
#P hidden connect 46 0 45 0;
#P hidden fasten 48 0 47 0 755 154 745 154 745 97 755 97;
#P hidden connect 47 0 48 0;
#P hidden fasten 52 0 69 0 755 289 743 289 743 230 755 230;
#P hidden connect 69 0 52 0;
#P hidden connect 60 0 53 0;
#P hidden connect 61 0 54 0;
#P hidden fasten 55 0 67 0 755 428 745 428 745 370 755 370;
#P hidden connect 67 0 55 0;
#P hidden connect 63 0 56 0;
#P hidden connect 66 1 57 0;
#P hidden fasten 98 0 97 0 795 571 787 571 787 511 795 511;
#P hidden connect 97 0 98 0;
#P hidden connect 100 0 65 0;
#P hidden fasten 64 0 65 0 797 622 786 622 786 577 797 577;
#P hidden connect 65 0 64 0;
#P hidden connect 99 0 100 0;
#P hidden connect 98 1 99 0;
#P pop;
