{
	"patcher" : 	{
		"rect" : [ 30.0, 44.0, 689.0, 576.0 ],
		"bgcolor" : [ 1.0, 1.0, 1.0, 1.0 ],
		"bglocked" : 0,
		"defrect" : [ 30.0, 44.0, 689.0, 576.0 ],
		"openinpresentation" : 0,
		"default_fontsize" : 10.0,
		"default_fontface" : 0,
		"default_fontname" : "Verdana",
		"gridonopen" : 0,
		"gridsize" : [ 5.0, 5.0 ],
		"gridsnaponopen" : 0,
		"toolbarvisible" : 1,
		"boxfadetime" : 200,
		"boxanimatetime" : 200,
		"scrollanimatetime" : 200,
		"metadata" : [  ],
		"boxes" : [ 			{
				"box" : 				{
					"maxclass" : "message",
					"text" : ";\rmax refresh",
					"linecount" : 2,
					"patching_rect" : [ 575.0, 32.0, 73.0, 26.0 ],
					"fontname" : "Verdana",
					"numinlets" : 2,
					"id" : "obj-1",
					"numoutlets" : 1,
					"outlettype" : [ "" ],
					"fontsize" : 9.0
				}

			}
, 			{
				"box" : 				{
					"maxclass" : "newobj",
					"text" : "loadmess 1",
					"patching_rect" : [ 45.0, 85.0, 60.0, 17.0 ],
					"fontname" : "Verdana",
					"numinlets" : 1,
					"hidden" : 1,
					"id" : "obj-2",
					"numoutlets" : 1,
					"outlettype" : [ "" ],
					"fontsize" : 9.0
				}

			}
, 			{
				"box" : 				{
					"maxclass" : "message",
					"text" : "change",
					"patching_rect" : [ 605.0, 466.0, 40.0, 15.0 ],
					"fontname" : "Verdana",
					"numinlets" : 2,
					"id" : "obj-3",
					"numoutlets" : 1,
					"outlettype" : [ "" ],
					"fontsize" : 9.0
				}

			}
, 			{
				"box" : 				{
					"maxclass" : "message",
					"text" : "scale",
					"patching_rect" : [ 570.0, 466.0, 33.0, 15.0 ],
					"fontname" : "Verdana",
					"numinlets" : 2,
					"id" : "obj-4",
					"numoutlets" : 1,
					"outlettype" : [ "" ],
					"fontsize" : 9.0
				}

			}
, 			{
				"box" : 				{
					"maxclass" : "message",
					"text" : "clip",
					"patching_rect" : [ 544.0, 466.0, 24.0, 15.0 ],
					"fontname" : "Verdana",
					"numinlets" : 2,
					"id" : "obj-5",
					"numoutlets" : 1,
					"outlettype" : [ "" ],
					"fontsize" : 9.0
				}

			}
, 			{
				"box" : 				{
					"maxclass" : "message",
					"text" : "jcom.autoscale",
					"patching_rect" : [ 511.0, 486.0, 77.0, 15.0 ],
					"fontname" : "Verdana",
					"numinlets" : 2,
					"id" : "obj-6",
					"numoutlets" : 1,
					"outlettype" : [ "" ],
					"fontsize" : 9.0
				}

			}
, 			{
				"box" : 				{
					"maxclass" : "comment",
					"text" : "see also:",
					"patching_rect" : [ 463.0, 467.0, 50.0, 17.0 ],
					"fontname" : "Verdana",
					"numinlets" : 1,
					"id" : "obj-7",
					"numoutlets" : 0,
					"fontsize" : 9.0
				}

			}
, 			{
				"box" : 				{
					"maxclass" : "message",
					"text" : "slide",
					"patching_rect" : [ 511.0, 466.0, 31.0, 15.0 ],
					"fontname" : "Verdana",
					"numinlets" : 2,
					"id" : "obj-8",
					"numoutlets" : 1,
					"outlettype" : [ "" ],
					"fontsize" : 9.0
				}

			}
, 			{
				"box" : 				{
					"maxclass" : "newobj",
					"varname" : "phelp",
					"text" : "prepend help",
					"patching_rect" : [ 511.0, 514.0, 64.0, 17.0 ],
					"fontname" : "Verdana",
					"numinlets" : 1,
					"hidden" : 1,
					"id" : "obj-9",
					"numoutlets" : 1,
					"outlettype" : [ "" ],
					"fontsize" : 9.0
				}

			}
, 			{
				"box" : 				{
					"maxclass" : "newobj",
					"text" : "pcontrol",
					"patching_rect" : [ 511.0, 534.0, 45.0, 17.0 ],
					"fontname" : "Verdana",
					"numinlets" : 1,
					"hidden" : 1,
					"id" : "obj-10",
					"numoutlets" : 1,
					"outlettype" : [ "" ],
					"fontsize" : 9.0
				}

			}
, 			{
				"box" : 				{
					"maxclass" : "comment",
					"text" : "Smooth: this is a simple low-pass filter implemented with the slide object. It is good for removing noise in the signal by averaging the signal over a running window which can be set as a paremeter.\r\rScaling: turn off to pass through the data using the input range. If you know the range you are converting from you can use the manual scaling mode and set input and output values. If you do not know the range, you can use the autoscaling which will look for maximum and minimum values in the input data and use that to scale to the desired output range.\r\rClip: turn on this to clip the values to the range used by the scaling.\r\rRepetitions: this can be used to filter out repetitions in the signal. ",
					"linecount" : 22,
					"patching_rect" : [ 462.0, 150.0, 181.0, 238.0 ],
					"fontname" : "Verdana",
					"numinlets" : 1,
					"id" : "obj-11",
					"numoutlets" : 0,
					"fontsize" : 9.0
				}

			}
, 			{
				"box" : 				{
					"maxclass" : "bpatcher",
					"varname" : "jmod.condition.mxt",
					"patching_rect" : [ 22.0, 264.0, 300.0, 71.0 ],
					"name" : "jmod.condition.maxpat",
					"numinlets" : 2,
					"lockeddragscroll" : 1,
					"id" : "obj-12",
					"numoutlets" : 2,
					"outlettype" : [ "", "" ],
					"args" : [ "\/condition" ]
				}

			}
, 			{
				"box" : 				{
					"maxclass" : "multislider",
					"patching_rect" : [ 22.0, 370.0, 406.0, 86.0 ],
					"candicane8" : [ 0.027451, 0.447059, 0.501961, 1.0 ],
					"candicane2" : [ 0.145098, 0.203922, 0.356863, 1.0 ],
					"numinlets" : 1,
					"candicane7" : [ 0.878431, 0.243137, 0.145098, 1.0 ],
					"setminmax" : [ 0.0, 300.0 ],
					"id" : "obj-13",
					"numoutlets" : 2,
					"setstyle" : 4,
					"peakcolor" : [ 0.498039, 0.498039, 0.498039, 1.0 ],
					"outlettype" : [ "", "" ],
					"candicane5" : [ 0.584314, 0.827451, 0.431373, 1.0 ],
					"candicane6" : [ 0.733333, 0.035294, 0.788235, 1.0 ],
					"settype" : 0,
					"candicane3" : [ 0.290196, 0.411765, 0.713726, 1.0 ],
					"candicane4" : [ 0.439216, 0.619608, 0.070588, 1.0 ]
				}

			}
, 			{
				"box" : 				{
					"maxclass" : "number",
					"patching_rect" : [ 120.0, 106.0, 35.0, 17.0 ],
					"htextcolor" : [ 0.870588, 0.870588, 0.870588, 1.0 ],
					"fontname" : "Verdana",
					"numinlets" : 1,
					"id" : "obj-14",
					"numoutlets" : 2,
					"outlettype" : [ "int", "bang" ],
					"bgcolor" : [ 0.866667, 0.866667, 0.866667, 1.0 ],
					"fontsize" : 9.0,
					"triscale" : 0.9
				}

			}
, 			{
				"box" : 				{
					"maxclass" : "newobj",
					"text" : "p drifting_random",
					"patching_rect" : [ 22.0, 106.0, 91.0, 17.0 ],
					"fontname" : "Verdana",
					"numinlets" : 1,
					"id" : "obj-15",
					"numoutlets" : 1,
					"outlettype" : [ "int" ],
					"fontsize" : 9.0,
					"patcher" : 					{
						"rect" : [ 297.0, 209.0, 485.0, 371.0 ],
						"bgcolor" : [ 1.0, 1.0, 1.0, 1.0 ],
						"bglocked" : 0,
						"defrect" : [ 297.0, 209.0, 485.0, 371.0 ],
						"openinpresentation" : 0,
						"default_fontsize" : 10.0,
						"default_fontface" : 0,
						"default_fontname" : "Verdana",
						"gridonopen" : 0,
						"gridsize" : [ 5.0, 5.0 ],
						"gridsnaponopen" : 0,
						"toolbarvisible" : 1,
						"boxfadetime" : 200,
						"boxanimatetime" : 200,
						"scrollanimatetime" : 200,
						"metadata" : [  ],
						"boxes" : [ 							{
								"box" : 								{
									"maxclass" : "newobj",
									"text" : "metro 50",
									"patching_rect" : [ 50.0, 79.0, 52.0, 17.0 ],
									"fontname" : "Verdana",
									"numinlets" : 2,
									"id" : "obj-1",
									"numoutlets" : 1,
									"outlettype" : [ "bang" ],
									"fontsize" : 9.0
								}

							}
, 							{
								"box" : 								{
									"maxclass" : "newobj",
									"text" : "+ 100",
									"patching_rect" : [ 50.0, 204.0, 92.0, 17.0 ],
									"fontname" : "Verdana",
									"numinlets" : 2,
									"id" : "obj-2",
									"numoutlets" : 1,
									"outlettype" : [ "int" ],
									"fontsize" : 9.0
								}

							}
, 							{
								"box" : 								{
									"maxclass" : "newobj",
									"text" : "drunk 200 4",
									"patching_rect" : [ 132.0, 174.0, 65.0, 17.0 ],
									"fontname" : "Verdana",
									"numinlets" : 3,
									"id" : "obj-3",
									"numoutlets" : 1,
									"outlettype" : [ "int" ],
									"fontsize" : 9.0
								}

							}
, 							{
								"box" : 								{
									"maxclass" : "newobj",
									"text" : "random 100",
									"patching_rect" : [ 50.0, 175.0, 64.0, 17.0 ],
									"fontname" : "Verdana",
									"numinlets" : 2,
									"id" : "obj-4",
									"numoutlets" : 1,
									"outlettype" : [ "int" ],
									"fontsize" : 9.0
								}

							}
, 							{
								"box" : 								{
									"maxclass" : "inlet",
									"patching_rect" : [ 50.0, 30.0, 15.0, 15.0 ],
									"numinlets" : 0,
									"id" : "obj-5",
									"numoutlets" : 1,
									"outlettype" : [ "int" ],
									"comment" : ""
								}

							}
, 							{
								"box" : 								{
									"maxclass" : "outlet",
									"patching_rect" : [ 50.0, 256.0, 15.0, 15.0 ],
									"numinlets" : 1,
									"id" : "obj-6",
									"numoutlets" : 0,
									"comment" : ""
								}

							}
, 							{
								"box" : 								{
									"maxclass" : "comment",
									"text" : "Random values in the range 0-300",
									"patching_rect" : [ 265.0, 121.0, 164.0, 17.0 ],
									"fontname" : "Verdana",
									"numinlets" : 1,
									"id" : "obj-7",
									"numoutlets" : 0,
									"fontsize" : 9.0
								}

							}
 ],
						"lines" : [ 							{
								"patchline" : 								{
									"source" : [ "obj-5", 0 ],
									"destination" : [ "obj-1", 0 ],
									"hidden" : 0
								}

							}
, 							{
								"patchline" : 								{
									"source" : [ "obj-1", 0 ],
									"destination" : [ "obj-4", 0 ],
									"hidden" : 0
								}

							}
, 							{
								"patchline" : 								{
									"source" : [ "obj-4", 0 ],
									"destination" : [ "obj-2", 0 ],
									"hidden" : 0
								}

							}
, 							{
								"patchline" : 								{
									"source" : [ "obj-2", 0 ],
									"destination" : [ "obj-6", 0 ],
									"hidden" : 0
								}

							}
, 							{
								"patchline" : 								{
									"source" : [ "obj-1", 0 ],
									"destination" : [ "obj-3", 0 ],
									"hidden" : 0
								}

							}
, 							{
								"patchline" : 								{
									"source" : [ "obj-3", 0 ],
									"destination" : [ "obj-2", 1 ],
									"hidden" : 0
								}

							}
 ]
					}
,
					"saved_object_attributes" : 					{
						"fontname" : "Verdana",
						"default_fontface" : 0,
						"default_fontname" : "Verdana",
						"fontface" : 0,
						"fontsize" : 10.0,
						"globalpatchername" : "",
						"default_fontsize" : 10.0
					}

				}

			}
, 			{
				"box" : 				{
					"maxclass" : "toggle",
					"patching_rect" : [ 22.0, 86.0, 15.0, 15.0 ],
					"numinlets" : 1,
					"id" : "obj-16",
					"numoutlets" : 1,
					"outlettype" : [ "int" ]
				}

			}
, 			{
				"box" : 				{
					"maxclass" : "multislider",
					"patching_rect" : [ 22.0, 143.0, 406.0, 86.0 ],
					"candicane8" : [ 0.027451, 0.447059, 0.501961, 1.0 ],
					"candicane2" : [ 0.145098, 0.203922, 0.356863, 1.0 ],
					"numinlets" : 1,
					"candicane7" : [ 0.878431, 0.243137, 0.145098, 1.0 ],
					"setminmax" : [ 0.0, 300.0 ],
					"id" : "obj-17",
					"numoutlets" : 2,
					"setstyle" : 4,
					"peakcolor" : [ 0.498039, 0.498039, 0.498039, 1.0 ],
					"outlettype" : [ "", "" ],
					"candicane5" : [ 0.584314, 0.827451, 0.431373, 1.0 ],
					"candicane6" : [ 0.733333, 0.035294, 0.788235, 1.0 ],
					"settype" : 0,
					"candicane3" : [ 0.290196, 0.411765, 0.713726, 1.0 ],
					"candicane4" : [ 0.439216, 0.619608, 0.070588, 1.0 ]
				}

			}
, 			{
				"box" : 				{
					"maxclass" : "flonum",
					"patching_rect" : [ 301.0, 337.0, 35.0, 17.0 ],
					"htextcolor" : [ 0.870588, 0.870588, 0.870588, 1.0 ],
					"fontname" : "Verdana",
					"numinlets" : 1,
					"id" : "obj-18",
					"numoutlets" : 2,
					"outlettype" : [ "float", "bang" ],
					"bgcolor" : [ 0.866667, 0.866667, 0.866667, 1.0 ],
					"fontsize" : 9.0,
					"triscale" : 0.9
				}

			}
, 			{
				"box" : 				{
					"maxclass" : "flonum",
					"patching_rect" : [ 22.0, 238.0, 35.0, 17.0 ],
					"htextcolor" : [ 0.870588, 0.870588, 0.870588, 1.0 ],
					"fontname" : "Verdana",
					"numinlets" : 1,
					"id" : "obj-19",
					"numoutlets" : 2,
					"outlettype" : [ "float", "bang" ],
					"bgcolor" : [ 0.866667, 0.866667, 0.866667, 1.0 ],
					"fontsize" : 9.0,
					"triscale" : 0.9
				}

			}
, 			{
				"box" : 				{
					"maxclass" : "comment",
					"text" : "jmod.condition",
					"patching_rect" : [ 23.0, 31.0, 189.0, 28.0 ],
					"fontname" : "Verdana",
					"numinlets" : 1,
					"id" : "obj-20",
					"numoutlets" : 0,
					"frgb" : [ 1.0, 1.0, 1.0, 1.0 ],
					"textcolor" : [ 1.0, 1.0, 1.0, 1.0 ],
					"fontsize" : 15.799999
				}

			}
, 			{
				"box" : 				{
					"maxclass" : "comment",
					"text" : "condition a control signal",
					"patching_rect" : [ 24.0, 57.0, 242.0, 17.0 ],
					"fontname" : "Verdana",
					"numinlets" : 1,
					"id" : "obj-21",
					"numoutlets" : 0,
					"frgb" : [ 1.0, 1.0, 1.0, 1.0 ],
					"textcolor" : [ 1.0, 1.0, 1.0, 1.0 ],
					"fontsize" : 9.0
				}

			}
, 			{
				"box" : 				{
					"maxclass" : "panel",
					"patching_rect" : [ 17.0, 15.0, 256.0, 63.0 ],
					"rounded" : 0,
					"numinlets" : 1,
					"id" : "obj-22",
					"numoutlets" : 0,
					"bgcolor" : [ 0.262745, 0.254902, 0.419608, 1.0 ],
					"bordercolor" : [ 0.501961, 0.043137, 0.039216, 1.0 ]
				}

			}
, 			{
				"box" : 				{
					"maxclass" : "comment",
					"text" : "This module is meant to offer a simple way of conditioning a control signal before it is mapped onto something.",
					"linecount" : 2,
					"patching_rect" : [ 285.0, 37.0, 280.0, 28.0 ],
					"fontname" : "Verdana",
					"numinlets" : 1,
					"id" : "obj-23",
					"numoutlets" : 0,
					"fontsize" : 9.0
				}

			}
 ],
		"lines" : [ 			{
				"patchline" : 				{
					"source" : [ "obj-2", 0 ],
					"destination" : [ "obj-16", 0 ],
					"hidden" : 1
				}

			}
, 			{
				"patchline" : 				{
					"source" : [ "obj-16", 0 ],
					"destination" : [ "obj-15", 0 ],
					"hidden" : 0
				}

			}
, 			{
				"patchline" : 				{
					"source" : [ "obj-15", 0 ],
					"destination" : [ "obj-17", 0 ],
					"hidden" : 0
				}

			}
, 			{
				"patchline" : 				{
					"source" : [ "obj-17", 0 ],
					"destination" : [ "obj-19", 0 ],
					"hidden" : 0
				}

			}
, 			{
				"patchline" : 				{
					"source" : [ "obj-18", 0 ],
					"destination" : [ "obj-13", 0 ],
					"hidden" : 0,
					"midpoints" : [ 310.5, 357.0, 31.5, 357.0 ]
				}

			}
, 			{
				"patchline" : 				{
					"source" : [ "obj-15", 0 ],
					"destination" : [ "obj-14", 0 ],
					"hidden" : 0,
					"midpoints" : [ 31.5, 127.0, 115.0, 127.0, 115.0, 102.0, 129.5, 102.0 ]
				}

			}
, 			{
				"patchline" : 				{
					"source" : [ "obj-19", 0 ],
					"destination" : [ "obj-12", 1 ],
					"hidden" : 0,
					"midpoints" : [ 31.5, 259.0, 312.5, 259.0 ]
				}

			}
, 			{
				"patchline" : 				{
					"source" : [ "obj-12", 1 ],
					"destination" : [ "obj-18", 0 ],
					"hidden" : 0
				}

			}
, 			{
				"patchline" : 				{
					"source" : [ "obj-3", 0 ],
					"destination" : [ "obj-9", 0 ],
					"hidden" : 1
				}

			}
, 			{
				"patchline" : 				{
					"source" : [ "obj-6", 0 ],
					"destination" : [ "obj-9", 0 ],
					"hidden" : 1
				}

			}
, 			{
				"patchline" : 				{
					"source" : [ "obj-4", 0 ],
					"destination" : [ "obj-9", 0 ],
					"hidden" : 1
				}

			}
, 			{
				"patchline" : 				{
					"source" : [ "obj-5", 0 ],
					"destination" : [ "obj-9", 0 ],
					"hidden" : 1
				}

			}
, 			{
				"patchline" : 				{
					"source" : [ "obj-8", 0 ],
					"destination" : [ "obj-9", 0 ],
					"hidden" : 1
				}

			}
, 			{
				"patchline" : 				{
					"source" : [ "obj-9", 0 ],
					"destination" : [ "obj-10", 0 ],
					"hidden" : 1
				}

			}
 ]
	}

}
