max v2;#N vpatcher 173 65 1062 629;#N comlet 32;#P hidden outlet 658 339 13 0;#N comlet 31;#P hidden outlet 645 339 13 0;#N comlet 30;#P hidden outlet 632 339 13 0;#N comlet 29;#P hidden outlet 619 339 13 0;#N comlet 28;#P hidden outlet 606 339 13 0;#N comlet 27;#P hidden outlet 593 339 13 0;#N comlet 26;#P hidden outlet 580 339 13 0;#N comlet 25;#P hidden outlet 567 339 13 0;#N comlet 24;#P hidden outlet 554 339 13 0;#N comlet 23;#P hidden outlet 541 339 13 0;#N comlet 22;#P hidden outlet 528 339 13 0;#N comlet 21;#P hidden outlet 515 339 13 0;#N comlet 20;#P hidden outlet 502 339 13 0;#N comlet 19;#P hidden outlet 489 339 13 0;#N comlet 18;#P hidden outlet 476 339 13 0;#N comlet 17;#P hidden outlet 463 339 13 0;#P window setfont "Sans Serif" 9.;#P hidden message 223 120 179 196617 preset/store 1 default \, preset/write;#P hidden newex 143 204 43 196617 jcom.in;#P hidden newex 143 227 84 196617 jcom.pass open;#P hidden newex 143 252 47 196617 pcontrol;#N comlet 16;#P hidden outlet 450 339 13 0;#N comlet 15;#P hidden outlet 437 339 13 0;#N comlet 14;#P hidden outlet 424 339 13 0;#N comlet 13;#P hidden outlet 411 339 13 0;#N comlet 12;#P hidden outlet 398 339 13 0;#N comlet 11;#P hidden outlet 385 339 13 0;#N comlet 10;#P hidden outlet 372 339 13 0;#N comlet 9;#P hidden outlet 359 339 13 0;#N comlet 8;#P hidden outlet 346 339 13 0;#N comlet 7;#P hidden outlet 333 339 13 0;#N comlet 6;#P hidden outlet 320 339 13 0;#N comlet 5;#P hidden outlet 307 339 13 0;#N comlet 4;#P hidden outlet 294 339 13 0;#N comlet 3;#P hidden outlet 281 339 13 0;#N comlet 2;#P hidden outlet 268 339 13 0;#P hidden message 96 120 125 196617 /documentation/generate;#P window linecount 2;#P hidden message 73 414 65 196617 \; max refresh;#P window linecount 1;#P hidden newex 268 38 62 196617 pvar Offset;#P window linecount 2;#P hidden newex 0 142 344 196617 jcom.hub jmod.sur.multi.out~ @size 1U-half @module_type audio.no_panel @description "Pack up to 32 mono signals onto a multi cable.";#P objectname jcom.hub;#P window linecount 1;#P hidden comment 14 121 79 196617 command input;#P hidden inlet 0 121 13 0;#P window linecount 2;#P hidden message 73 382 72 196617 \; jcom.init bang;#P hidden inlet 662 175 13 0;#N comlet 1;#P hidden outlet 255 339 13 0;#P window linecount 3;#P hidden newex 268 63 313 196617 jcom.parameter channel_offset @type msg_int @repetitions 1 @range 0 64 @clipmode low @ramp none @description "Set channel offset for signals. Only take effect the next time audio is started.";#P objectname channel_offset;#P number 93 26 35 9 -31 31 8227 3 198 198 198 221 221 221 222 222 222 0 0 0;#P objectname Offset;#P window linecount 1;#P comment 16 27 74 196617 Channel offset;#B frgb 172 172 172;#P hidden comment 421 135 169 196617 --- multi channel signal input ---;#P hidden outlet 0 229 13 0;#P hidden comment 252 367 167 196617 --- signal outputs ---;#P hidden newex 255 306 417 196617 jalg.sur.multi.out~.mxt;#P bpatcher 0 0 256 60 0 0 jcom.gui.mxt 0;#P objectname jcom.gui.1Uh.a.stereo.mxt;#P hidden fasten 35 0 13 0 228 137 5 137;#P hidden connect 11 0 13 0;#P hidden fasten 16 0 13 0 101 137 5 137;#P hidden connect 13 0 3 0;#P hidden connect 34 0 33 0;#P hidden connect 33 0 32 0;#P hidden connect 33 1 1 0;#P hidden connect 32 0 1 0;#P hidden connect 1 0 8 0;#P hidden fasten 7 0 14 0 273 109 262 109 262 31 273 31;#P hidden connect 14 0 7 0;#P hidden connect 1 1 17 0;#P hidden connect 1 2 18 0;#P hidden connect 1 3 19 0;#P hidden connect 1 4 20 0;#P hidden connect 1 5 21 0;#P hidden connect 1 6 22 0;#P hidden connect 1 7 23 0;#P hidden connect 1 8 24 0;#P hidden connect 1 9 25 0;#P hidden connect 1 10 26 0;#P hidden connect 1 11 27 0;#P hidden connect 1 12 28 0;#P hidden connect 1 13 29 0;#P hidden connect 1 14 30 0;#P hidden connect 1 15 31 0;#P hidden connect 1 16 36 0;#P hidden connect 1 17 37 0;#P hidden connect 1 18 38 0;#P hidden connect 1 19 39 0;#P hidden connect 1 20 40 0;#P hidden connect 1 21 41 0;#P hidden connect 1 22 42 0;#P hidden connect 1 23 43 0;#P hidden connect 1 24 44 0;#P hidden connect 1 25 45 0;#P hidden connect 1 26 46 0;#P hidden connect 1 27 47 0;#P hidden connect 1 28 48 0;#P hidden connect 1 29 49 0;#P hidden connect 1 30 50 0;#P hidden connect 1 31 51 0;#P hidden connect 9 0 1 1;#P pop;