max v2;#N vpatcher 25 89 1287 710;#P window setfont "Sans Serif" 9.;#P flonum 199 17 35 9 0 0 8224 3 181 181 181 221 221 221 255 255 255 0 0 0;#P objectname THETA;#P comment 131 33 66 196617 Bound mode:;#B frgb 149 149 149;#P comment 131 19 47 196617 Theta:;#B frgb 149 149 149;#P comment 3 47 47 196617 Anchor:;#B frgb 149 149 149;#P comment 3 33 47 196617 Offset:;#B frgb 149 149 149;#P flonum 87 45 35 9 0 0 8224 3 181 181 181 221 221 221 255 255 255 0 0 0;#P objectname ANCHOR_Y;#P flonum 53 45 35 9 0 0 8224 3 181 181 181 221 221 221 255 255 255 0 0 0;#P objectname ANCHOR_X;#P flonum 87 31 35 9 0 0 8224 3 181 181 181 221 221 221 255 255 255 0 0 0;#P objectname OFFSET_Y;#P flonum 53 31 35 9 0 0 8224 3 181 181 181 221 221 221 255 255 255 0 0 0;#P objectname OFFSET_X;#P flonum 87 17 35 9 0 0 8224 3 181 181 181 221 221 221 255 255 255 0 0 0;#P objectname ZOOM_Y;#N vpatcher 42 65 612 848;#P origin 0 -51;#P bpatcher 280 0 268 762 0 0 jcom.class.gl_slab.inspect.mxt 0;#P objectname jcom.class.gl_slab.inspect.mxt;#P window setfont "Sans Serif" 9.;#P window linecount 0;#P hidden newex 584 194 106 196617 bgcolor 110 110 110;#P bpatcher 7 0 268 761 0 0 jcom.class.gl_group.inspect.mxt 0;#P objectname jcom.class.gl_group.inspect.mxt;#P hidden inlet 584 74 15 0;#P window linecount 1;#P hidden newex 584 119 40 196617 t front;#P hidden newex 584 99 151 196617 jcom.oscroute /open_inspector;#N thispatcher;#Q end;#P hidden newobj 584 141 61 196617 thispatcher;#P hidden connect 3 0 1 0;#P hidden connect 1 0 2 0;#P hidden connect 2 0 0 0;#P pop;#P hidden newobj 256 215 60 196617 p inspector;#P objectname inspector;#P hidden newex 655 331 407 196617 jcom.parameter boundmode @type msg_symbol @description "Boundary handling mode.";#P objectname boundmode;#P hidden newex 655 353 98 196617 pvar BOUNDMODE 2;#P user ubumenu 199 31 50 196617 0 1 1 0;#X add clear;#X add alpha;#X add wrap;#X add clip;#X add fold;#X prefix_set 0 0 <none> 0;#P objectname BOUNDMODE;#P window linecount 2;#P hidden newex 656 251 326 196617 jcom.parameter theta @type msg_float @range -180. 180. @clipmode none @ramp/drive scheduler @description "Rotation angle in degrees.";#P objectname theta;#P window linecount 1;#P hidden newex 656 283 64 196617 pvar THETA;#P hidden newex 656 183 392 196617 jcom.parameter anchor @type msg_list @ramp/drive scheduler @description "Zooming.";#P objectname anchor;#P hidden newex 586 209 83 196617 pvar ANCHOR_Y;#P hidden newex 499 209 83 196617 pvar ANCHOR_X;#P hidden newex 499 183 144 196617 jcom.list2parameter.mxt 2;#P hidden newex 656 112 389 196617 jcom.parameter offset @type msg_list @ramp/drive scheduler @description "Zooming.";#P objectname offset;#P hidden newex 581 138 79 196617 pvar OFFSET_Y;#P hidden newex 499 138 79 196617 pvar OFFSET_X;#P hidden newex 499 112 144 196617 jcom.list2parameter.mxt 2;#P hidden newex 656 48 385 196617 jcom.parameter zoom @type msg_list @ramp/drive scheduler @description "Zooming.";#P objectname zoom;#P hidden newex 575 74 71 196617 pvar ZOOM_Y;#P hidden newex 499 74 71 196617 pvar ZOOM_X;#P hidden newex 499 48 144 196617 jcom.list2parameter.mxt 2;#P hidden newex 176 237 47 196617 pcontrol;#P hidden newex 176 215 78 196617 jcom.pass open;#P flonum 53 17 35 9 0 0 8224 3 181 181 181 221 221 221 255 255 255 0 0 0;#P objectname ZOOM_X;#P hidden message 94 69 191 196617 /preset/store 1 default \, /preset/write;#B color 3;#P hidden newex 155 305 58 196617 jcom.out 1;#P hidden newex 155 193 52 196617 jcom.in 1;#P comment 3 19 47 196617 Zoom:;#B frgb 149 149 149;#P hidden message 106 87 125 196617 /documentation/generate;#B color 3;#P window linecount 2;#P hidden newex 0 114 370 196617 jcom.hub jmod.gl.td.rota% @size 1U-half @module_type video @algorithm_type jitter @inspector 1 @description "Slab-based rotation and repositioning.";#P objectname jmod.hub;#P window linecount 1;#P hidden comment 170 338 75 196617 VIDEO OUTPUT;#P hidden outlet 155 338 13 0;#P hidden inlet 155 172 13 0;#P hidden comment 170 172 65 196617 VIDEO INPUT;#P hidden newex 63 277 102 196617 jalg.gl.td.rota%.mxt;#P hidden message 236 87 31 196617 /init;#P hidden comment 15 86 79 196617 command input;#P hidden outlet 0 171 13 0;#P hidden inlet 0 84 13 0;#P bpatcher 0 0 256 60 0 0 jcom.gui.mxt 0;#P objectname jmod.gui.1Uh.v.mxb;#P hidden fasten 15 0 10 0 99 109 5 109;#P hidden fasten 4 0 10 0 241 109 5 109;#P hidden fasten 11 0 10 0 111 109 5 109;#P hidden connect 1 0 10 0;#P hidden connect 10 0 2 0;#P hidden fasten 17 1 5 0 249 263 68 263;#P hidden fasten 18 0 5 0 181 263 68 263;#P hidden connect 7 0 13 0;#P lcolor 7;#P hidden connect 13 0 5 1;#P lcolor 7;#P hidden connect 5 1 14 0;#P hidden connect 14 0 8 0;#P hidden connect 13 1 17 0;#P hidden connect 17 0 18 0;#P hidden fasten 13 1 36 0 181 212 261 212;#P hidden fasten 20 0 19 0 504 95 490 95 490 41 504 41;#P hidden connect 19 0 20 0;#P hidden fasten 24 0 23 0 504 159 490 159 490 105 504 105;#P hidden connect 23 0 24 0;#P hidden fasten 28 0 27 0 504 230 490 230 490 176 504 176;#P hidden connect 27 0 28 0;#P hidden fasten 21 0 19 1 580 98 487 98 487 38 517 38;#P hidden fasten 25 0 23 1 586 162 487 162 487 102 517 102;#P hidden fasten 29 0 27 1 591 233 487 233 487 173 517 173;#P hidden fasten 19 1 21 0 517 69 580 69;#P hidden fasten 23 1 25 0 517 133 586 133;#P hidden fasten 27 1 29 0 517 204 591 204;#P hidden connect 22 0 19 10;#P hidden connect 26 0 23 10;#P hidden connect 30 0 27 10;#P hidden fasten 34 1 35 0 748 378 651 378 651 324 660 324;#P hidden connect 35 0 34 0;#P hidden connect 19 10 22 0;#P hidden connect 23 10 26 0;#P hidden connect 27 10 30 0;#P hidden fasten 31 0 32 0 661 305 650 305 650 245 661 245;#P hidden connect 32 0 31 0;#P pop;