{
	"patcher" : 	{
		"fileversion" : 1,
		"rect" : [ 121.0, 252.0, 477.0, 315.0 ],
		"bglocked" : 0,
		"defrect" : [ 121.0, 252.0, 477.0, 315.0 ],
		"openrect" : [ 0.0, 0.0, 0.0, 0.0 ],
		"openinpresentation" : 0,
		"default_fontsize" : 12.0,
		"default_fontface" : 0,
		"default_fontname" : "Arial",
		"gridonopen" : 0,
		"gridsize" : [ 15.0, 15.0 ],
		"gridsnaponopen" : 0,
		"toolbarvisible" : 1,
		"boxanimatetime" : 200,
		"imprint" : 0,
		"metadata" : [  ],
		"boxes" : [ 			{
				"box" : 				{
					"maxclass" : "newobj",
					"text" : "unpack i i",
					"id" : "obj-1",
					"patching_rect" : [ 330.0, 90.0, 75.0, 20.0 ],
					"numinlets" : 1,
					"fontname" : "Arial",
					"numoutlets" : 2,
					"outlettype" : [ "int", "int" ],
					"fontsize" : 12.0
				}

			}
, 			{
				"box" : 				{
					"maxclass" : "outlet",
					"id" : "obj-2",
					"patching_rect" : [ 345.0, 255.0, 25.0, 25.0 ],
					"numinlets" : 1,
					"numoutlets" : 0,
					"comment" : ""
				}

			}
, 			{
				"box" : 				{
					"maxclass" : "inlet",
					"id" : "obj-3",
					"patching_rect" : [ 240.0, 15.0, 25.0, 25.0 ],
					"numinlets" : 0,
					"numoutlets" : 1,
					"outlettype" : [ "" ],
					"comment" : ""
				}

			}
, 			{
				"box" : 				{
					"maxclass" : "newobj",
					"text" : "zl group",
					"id" : "obj-4",
					"patching_rect" : [ 345.0, 225.0, 58.0, 20.0 ],
					"numinlets" : 2,
					"fontname" : "Arial",
					"numoutlets" : 2,
					"outlettype" : [ "", "" ],
					"fontsize" : 12.0
				}

			}
, 			{
				"box" : 				{
					"maxclass" : "newobj",
					"text" : "if $i1==$i2 then bang else out2 $f1",
					"id" : "obj-5",
					"patching_rect" : [ 210.0, 180.0, 195.0, 20.0 ],
					"numinlets" : 2,
					"fontname" : "Arial",
					"numoutlets" : 2,
					"outlettype" : [ "", "" ],
					"fontsize" : 12.0
				}

			}
, 			{
				"box" : 				{
					"maxclass" : "newobj",
					"text" : "t 1 i",
					"id" : "obj-6",
					"patching_rect" : [ 240.0, 135.0, 36.0, 20.0 ],
					"numinlets" : 1,
					"fontname" : "Arial",
					"numoutlets" : 2,
					"outlettype" : [ "int", "int" ],
					"fontsize" : 12.0
				}

			}
, 			{
				"box" : 				{
					"maxclass" : "newobj",
					"text" : "gate 2 1",
					"id" : "obj-7",
					"patching_rect" : [ 45.0, 90.0, 214.0, 20.0 ],
					"numinlets" : 2,
					"fontname" : "Arial",
					"numoutlets" : 2,
					"outlettype" : [ "", "" ],
					"fontsize" : 12.0
				}

			}
, 			{
				"box" : 				{
					"maxclass" : "newobj",
					"text" : "if $i1==$i2 then 2 else out2 $f1",
					"id" : "obj-8",
					"patching_rect" : [ 45.0, 135.0, 184.0, 20.0 ],
					"numinlets" : 2,
					"fontname" : "Arial",
					"numoutlets" : 2,
					"outlettype" : [ "", "" ],
					"fontsize" : 12.0
				}

			}
, 			{
				"box" : 				{
					"maxclass" : "comment",
					"text" : "Joseph Malloch IDMIL 2007 www.idmil.org",
					"linecount" : 3,
					"id" : "obj-9",
					"patching_rect" : [ 30.0, 195.0, 107.0, 48.0 ],
					"numinlets" : 1,
					"fontname" : "Arial",
					"numoutlets" : 0,
					"fontsize" : 12.0
				}

			}
, 			{
				"box" : 				{
					"maxclass" : "newobj",
					"text" : "loadmess #2 #1",
					"id" : "obj-10",
					"patching_rect" : [ 330.0, 60.0, 108.0, 20.0 ],
					"numinlets" : 1,
					"fontname" : "Arial",
					"numoutlets" : 1,
					"outlettype" : [ "" ],
					"fontsize" : 12.0
				}

			}
, 			{
				"box" : 				{
					"maxclass" : "newobj",
					"text" : "iter",
					"id" : "obj-11",
					"patching_rect" : [ 240.0, 60.0, 30.0, 20.0 ],
					"numinlets" : 1,
					"fontname" : "Arial",
					"numoutlets" : 1,
					"outlettype" : [ "" ],
					"fontsize" : 12.0
				}

			}
 ],
		"lines" : [ 			{
				"patchline" : 				{
					"source" : [ "obj-1", 1 ],
					"destination" : [ "obj-5", 1 ],
					"hidden" : 0,
					"midpoints" : [  ]
				}

			}
, 			{
				"patchline" : 				{
					"source" : [ "obj-5", 1 ],
					"destination" : [ "obj-4", 0 ],
					"hidden" : 0,
					"midpoints" : [ 395.5, 210.0, 354.5, 210.0 ]
				}

			}
, 			{
				"patchline" : 				{
					"source" : [ "obj-5", 0 ],
					"destination" : [ "obj-4", 0 ],
					"hidden" : 0,
					"midpoints" : [ 219.5, 210.0, 354.5, 210.0 ]
				}

			}
, 			{
				"patchline" : 				{
					"source" : [ "obj-8", 1 ],
					"destination" : [ "obj-5", 0 ],
					"hidden" : 0,
					"midpoints" : [  ]
				}

			}
, 			{
				"patchline" : 				{
					"source" : [ "obj-8", 0 ],
					"destination" : [ "obj-7", 0 ],
					"hidden" : 0,
					"midpoints" : [ 54.5, 156.0, 30.0, 156.0, 30.0, 87.0, 54.5, 87.0 ]
				}

			}
, 			{
				"patchline" : 				{
					"source" : [ "obj-7", 0 ],
					"destination" : [ "obj-8", 0 ],
					"hidden" : 0,
					"midpoints" : [  ]
				}

			}
, 			{
				"patchline" : 				{
					"source" : [ "obj-1", 0 ],
					"destination" : [ "obj-8", 1 ],
					"hidden" : 0,
					"midpoints" : [ 339.5, 120.0, 219.5, 120.0 ]
				}

			}
, 			{
				"patchline" : 				{
					"source" : [ "obj-4", 0 ],
					"destination" : [ "obj-2", 0 ],
					"hidden" : 0,
					"midpoints" : [  ]
				}

			}
, 			{
				"patchline" : 				{
					"source" : [ "obj-6", 1 ],
					"destination" : [ "obj-4", 0 ],
					"hidden" : 0,
					"midpoints" : [ 266.5, 166.0, 354.5, 166.0 ]
				}

			}
, 			{
				"patchline" : 				{
					"source" : [ "obj-10", 0 ],
					"destination" : [ "obj-1", 0 ],
					"hidden" : 0,
					"midpoints" : [  ]
				}

			}
, 			{
				"patchline" : 				{
					"source" : [ "obj-7", 1 ],
					"destination" : [ "obj-6", 0 ],
					"hidden" : 0,
					"midpoints" : [  ]
				}

			}
, 			{
				"patchline" : 				{
					"source" : [ "obj-11", 0 ],
					"destination" : [ "obj-7", 1 ],
					"hidden" : 0,
					"midpoints" : [  ]
				}

			}
, 			{
				"patchline" : 				{
					"source" : [ "obj-3", 0 ],
					"destination" : [ "obj-11", 0 ],
					"hidden" : 0,
					"midpoints" : [  ]
				}

			}
, 			{
				"patchline" : 				{
					"source" : [ "obj-6", 0 ],
					"destination" : [ "obj-7", 0 ],
					"hidden" : 0,
					"midpoints" : [ 249.5, 165.0, 24.0, 165.0, 24.0, 81.0, 54.5, 81.0 ]
				}

			}
 ]
	}

}
