{
	"patcher" : 	{
		"fileversion" : 1,
		"rect" : [ 99.0, 140.0, 385.0, 383.0 ],
		"bglocked" : 0,
		"defrect" : [ 99.0, 140.0, 385.0, 383.0 ],
		"openrect" : [ 0.0, 0.0, 0.0, 0.0 ],
		"openinpresentation" : 0,
		"default_fontsize" : 12.0,
		"default_fontface" : 0,
		"default_fontname" : "Arial",
		"gridonopen" : 0,
		"gridsize" : [ 15.0, 15.0 ],
		"gridsnaponopen" : 0,
		"toolbarvisible" : 1,
		"boxanimatetime" : 200,
		"imprint" : 0,
		"metadata" : [  ],
		"boxes" : [ 			{
				"box" : 				{
					"maxclass" : "flonum",
					"outlettype" : [ "float", "bang" ],
					"fontname" : "Arial",
					"id" : "obj-18",
					"fontsize" : 12.0,
					"numinlets" : 1,
					"patching_rect" : [ 45.0, 75.0, 50.0, 20.0 ],
					"numoutlets" : 2
				}

			}
, 			{
				"box" : 				{
					"maxclass" : "newobj",
					"text" : "t b l",
					"outlettype" : [ "bang", "" ],
					"fontname" : "Arial",
					"id" : "obj-1",
					"fontsize" : 12.0,
					"numinlets" : 1,
					"patching_rect" : [ 240.0, 135.0, 32.5, 20.0 ],
					"numoutlets" : 2
				}

			}
, 			{
				"box" : 				{
					"maxclass" : "newobj",
					"text" : "t b l",
					"outlettype" : [ "bang", "" ],
					"fontname" : "Arial",
					"id" : "obj-2",
					"fontsize" : 12.0,
					"numinlets" : 1,
					"patching_rect" : [ 90.0, 135.0, 32.5, 20.0 ],
					"numoutlets" : 2
				}

			}
, 			{
				"box" : 				{
					"maxclass" : "inlet",
					"outlettype" : [ "" ],
					"id" : "obj-3",
					"numinlets" : 0,
					"patching_rect" : [ 45.0, 30.0, 25.0, 25.0 ],
					"numoutlets" : 1,
					"comment" : ""
				}

			}
, 			{
				"box" : 				{
					"maxclass" : "outlet",
					"id" : "obj-4",
					"numinlets" : 1,
					"patching_rect" : [ 45.0, 315.0, 25.0, 25.0 ],
					"numoutlets" : 0,
					"comment" : ""
				}

			}
, 			{
				"box" : 				{
					"maxclass" : "newobj",
					"text" : "loadmess scalarmode 1",
					"outlettype" : [ "" ],
					"fontname" : "Arial",
					"id" : "obj-5",
					"fontsize" : 12.0,
					"numinlets" : 1,
					"patching_rect" : [ 225.0, 210.0, 137.0, 20.0 ],
					"numoutlets" : 1
				}

			}
, 			{
				"box" : 				{
					"maxclass" : "newobj",
					"text" : "vexpr $f1*$f2",
					"outlettype" : [ "" ],
					"fontname" : "Arial",
					"id" : "obj-6",
					"fontsize" : 12.0,
					"numinlets" : 2,
					"patching_rect" : [ 210.0, 255.0, 101.0, 20.0 ],
					"numoutlets" : 1
				}

			}
, 			{
				"box" : 				{
					"maxclass" : "inlet",
					"outlettype" : [ "" ],
					"id" : "obj-7",
					"numinlets" : 0,
					"patching_rect" : [ 240.0, 30.0, 25.0, 25.0 ],
					"numoutlets" : 1,
					"comment" : ""
				}

			}
, 			{
				"box" : 				{
					"maxclass" : "newobj",
					"text" : "zl reg",
					"outlettype" : [ "", "" ],
					"fontname" : "Arial",
					"id" : "obj-8",
					"fontsize" : 12.0,
					"numinlets" : 2,
					"patching_rect" : [ 210.0, 180.0, 63.0, 20.0 ],
					"numoutlets" : 2
				}

			}
, 			{
				"box" : 				{
					"maxclass" : "newobj",
					"text" : "t b f b f",
					"outlettype" : [ "bang", "float", "bang", "float" ],
					"fontname" : "Arial",
					"id" : "obj-9",
					"fontsize" : 12.0,
					"numinlets" : 1,
					"patching_rect" : [ 45.0, 105.0, 266.0, 20.0 ],
					"numoutlets" : 4
				}

			}
, 			{
				"box" : 				{
					"maxclass" : "newobj",
					"text" : "vexpr $f1 + $f2",
					"outlettype" : [ "" ],
					"fontname" : "Arial",
					"id" : "obj-10",
					"fontsize" : 12.0,
					"numinlets" : 2,
					"patching_rect" : [ 45.0, 285.0, 184.0, 20.0 ],
					"numoutlets" : 1
				}

			}
, 			{
				"box" : 				{
					"maxclass" : "newobj",
					"text" : "loadmess scalarmode 1",
					"outlettype" : [ "" ],
					"fontname" : "Arial",
					"id" : "obj-11",
					"fontsize" : 12.0,
					"numinlets" : 1,
					"patching_rect" : [ 60.0, 210.0, 137.0, 20.0 ],
					"numoutlets" : 1
				}

			}
, 			{
				"box" : 				{
					"maxclass" : "newobj",
					"text" : "vexpr $f1*(1-$f2)",
					"outlettype" : [ "" ],
					"fontname" : "Arial",
					"id" : "obj-12",
					"fontsize" : 12.0,
					"numinlets" : 2,
					"patching_rect" : [ 45.0, 255.0, 101.0, 20.0 ],
					"numoutlets" : 1
				}

			}
, 			{
				"box" : 				{
					"maxclass" : "inlet",
					"outlettype" : [ "" ],
					"id" : "obj-14",
					"numinlets" : 0,
					"patching_rect" : [ 90.0, 30.0, 25.0, 25.0 ],
					"numoutlets" : 1,
					"comment" : ""
				}

			}
, 			{
				"box" : 				{
					"maxclass" : "newobj",
					"text" : "zl reg",
					"outlettype" : [ "", "" ],
					"fontname" : "Arial",
					"id" : "obj-15",
					"fontsize" : 12.0,
					"numinlets" : 2,
					"patching_rect" : [ 45.0, 180.0, 78.0, 20.0 ],
					"numoutlets" : 2
				}

			}
, 			{
				"box" : 				{
					"maxclass" : "comment",
					"text" : "Joseph Malloch IDMIL 2007 www.idmil.org",
					"linecount" : 3,
					"fontname" : "Arial",
					"id" : "obj-16",
					"fontsize" : 12.0,
					"numinlets" : 1,
					"patching_rect" : [ 240.0, 285.0, 95.0, 48.0 ],
					"numoutlets" : 0
				}

			}
 ],
		"lines" : [ 			{
				"patchline" : 				{
					"source" : [ "obj-3", 0 ],
					"destination" : [ "obj-18", 0 ],
					"hidden" : 0,
					"midpoints" : [  ]
				}

			}
, 			{
				"patchline" : 				{
					"source" : [ "obj-18", 0 ],
					"destination" : [ "obj-9", 0 ],
					"hidden" : 0,
					"midpoints" : [  ]
				}

			}
, 			{
				"patchline" : 				{
					"source" : [ "obj-2", 0 ],
					"destination" : [ "obj-18", 0 ],
					"hidden" : 0,
					"midpoints" : [ 99.5, 156.0, 30.0, 156.0, 30.0, 72.0, 54.5, 72.0 ]
				}

			}
, 			{
				"patchline" : 				{
					"source" : [ "obj-1", 0 ],
					"destination" : [ "obj-18", 0 ],
					"hidden" : 0,
					"midpoints" : [ 249.5, 165.0, 25.0, 165.0, 25.0, 67.0, 54.5, 67.0 ]
				}

			}
, 			{
				"patchline" : 				{
					"source" : [ "obj-14", 0 ],
					"destination" : [ "obj-2", 0 ],
					"hidden" : 0,
					"midpoints" : [  ]
				}

			}
, 			{
				"patchline" : 				{
					"source" : [ "obj-2", 1 ],
					"destination" : [ "obj-15", 1 ],
					"hidden" : 0,
					"midpoints" : [  ]
				}

			}
, 			{
				"patchline" : 				{
					"source" : [ "obj-7", 0 ],
					"destination" : [ "obj-1", 0 ],
					"hidden" : 0,
					"midpoints" : [  ]
				}

			}
, 			{
				"patchline" : 				{
					"source" : [ "obj-1", 1 ],
					"destination" : [ "obj-8", 1 ],
					"hidden" : 0,
					"midpoints" : [  ]
				}

			}
, 			{
				"patchline" : 				{
					"source" : [ "obj-5", 0 ],
					"destination" : [ "obj-6", 0 ],
					"hidden" : 0,
					"midpoints" : [ 234.5, 244.0, 219.5, 244.0 ]
				}

			}
, 			{
				"patchline" : 				{
					"source" : [ "obj-11", 0 ],
					"destination" : [ "obj-12", 0 ],
					"hidden" : 0,
					"midpoints" : [ 69.5, 244.0, 54.5, 244.0 ]
				}

			}
, 			{
				"patchline" : 				{
					"source" : [ "obj-10", 0 ],
					"destination" : [ "obj-4", 0 ],
					"hidden" : 0,
					"midpoints" : [  ]
				}

			}
, 			{
				"patchline" : 				{
					"source" : [ "obj-12", 0 ],
					"destination" : [ "obj-10", 0 ],
					"hidden" : 0,
					"midpoints" : [  ]
				}

			}
, 			{
				"patchline" : 				{
					"source" : [ "obj-6", 0 ],
					"destination" : [ "obj-10", 1 ],
					"hidden" : 0,
					"midpoints" : [  ]
				}

			}
, 			{
				"patchline" : 				{
					"source" : [ "obj-8", 0 ],
					"destination" : [ "obj-6", 0 ],
					"hidden" : 0,
					"midpoints" : [  ]
				}

			}
, 			{
				"patchline" : 				{
					"source" : [ "obj-9", 3 ],
					"destination" : [ "obj-6", 1 ],
					"hidden" : 0,
					"midpoints" : [  ]
				}

			}
, 			{
				"patchline" : 				{
					"source" : [ "obj-15", 0 ],
					"destination" : [ "obj-12", 0 ],
					"hidden" : 0,
					"midpoints" : [  ]
				}

			}
, 			{
				"patchline" : 				{
					"source" : [ "obj-9", 1 ],
					"destination" : [ "obj-12", 1 ],
					"hidden" : 0,
					"midpoints" : [  ]
				}

			}
, 			{
				"patchline" : 				{
					"source" : [ "obj-9", 2 ],
					"destination" : [ "obj-8", 0 ],
					"hidden" : 0,
					"midpoints" : [  ]
				}

			}
, 			{
				"patchline" : 				{
					"source" : [ "obj-9", 0 ],
					"destination" : [ "obj-15", 0 ],
					"hidden" : 0,
					"midpoints" : [  ]
				}

			}
 ]
	}

}
