{
	"patcher" : 	{
		"fileversion" : 1,
		"rect" : [ 1461.0, 210.0, 315.0, 277.0 ],
		"bglocked" : 0,
		"defrect" : [ 1461.0, 210.0, 315.0, 277.0 ],
		"openrect" : [ 0.0, 0.0, 0.0, 0.0 ],
		"openinpresentation" : 0,
		"default_fontsize" : 12.0,
		"default_fontface" : 0,
		"default_fontname" : "Arial",
		"gridonopen" : 0,
		"gridsize" : [ 15.0, 15.0 ],
		"gridsnaponopen" : 0,
		"toolbarvisible" : 1,
		"boxanimatetime" : 200,
		"imprint" : 0,
		"metadata" : [  ],
		"boxes" : [ 			{
				"box" : 				{
					"maxclass" : "comment",
					"text" : "Joseph Malloch\nIDMIL 2009\nwww.idmil.org",
					"linecount" : 3,
					"numinlets" : 1,
					"patching_rect" : [ 195.0, 105.0, 94.0, 48.0 ],
					"numoutlets" : 0,
					"id" : "obj-6",
					"fontname" : "Arial",
					"fontsize" : 12.0
				}

			}
, 			{
				"box" : 				{
					"maxclass" : "inlet",
					"numinlets" : 0,
					"patching_rect" : [ 30.0, 30.0, 25.0, 25.0 ],
					"numoutlets" : 1,
					"id" : "obj-4",
					"outlettype" : [ "" ],
					"comment" : ""
				}

			}
, 			{
				"box" : 				{
					"maxclass" : "outlet",
					"numinlets" : 1,
					"patching_rect" : [ 75.0, 210.0, 25.0, 25.0 ],
					"numoutlets" : 0,
					"id" : "obj-3",
					"comment" : ""
				}

			}
, 			{
				"box" : 				{
					"maxclass" : "newobj",
					"text" : "zl join",
					"numinlets" : 2,
					"patching_rect" : [ 75.0, 180.0, 79.0, 20.0 ],
					"numoutlets" : 2,
					"id" : "obj-2",
					"outlettype" : [ "", "" ],
					"fontname" : "Arial",
					"fontsize" : 12.0
				}

			}
, 			{
				"box" : 				{
					"maxclass" : "newobj",
					"text" : "t l zlclear",
					"numinlets" : 1,
					"patching_rect" : [ 30.0, 75.0, 153.0, 20.0 ],
					"numoutlets" : 2,
					"id" : "obj-12",
					"outlettype" : [ "", "zlclear" ],
					"fontname" : "Arial",
					"fontsize" : 12.0
				}

			}
, 			{
				"box" : 				{
					"maxclass" : "newobj",
					"text" : "zl nth 1",
					"numinlets" : 2,
					"patching_rect" : [ 30.0, 120.0, 124.0, 20.0 ],
					"numoutlets" : 2,
					"id" : "obj-8",
					"outlettype" : [ "", "" ],
					"fontname" : "Arial",
					"fontsize" : 12.0
				}

			}
, 			{
				"box" : 				{
					"maxclass" : "newobj",
					"text" : "regexp /([^/^\\\\s]*)",
					"numinlets" : 1,
					"patching_rect" : [ 30.0, 150.0, 108.0, 20.0 ],
					"numoutlets" : 5,
					"id" : "obj-1",
					"outlettype" : [ "", "", "", "", "" ],
					"fontname" : "Arial",
					"fontsize" : 12.0
				}

			}
 ],
		"lines" : [ 			{
				"patchline" : 				{
					"source" : [ "obj-12", 1 ],
					"destination" : [ "obj-2", 1 ],
					"hidden" : 0,
					"midpoints" : [ 173.5, 165.0, 144.5, 165.0 ]
				}

			}
, 			{
				"patchline" : 				{
					"source" : [ "obj-8", 1 ],
					"destination" : [ "obj-2", 1 ],
					"hidden" : 0,
					"midpoints" : [  ]
				}

			}
, 			{
				"patchline" : 				{
					"source" : [ "obj-4", 0 ],
					"destination" : [ "obj-12", 0 ],
					"hidden" : 0,
					"midpoints" : [  ]
				}

			}
, 			{
				"patchline" : 				{
					"source" : [ "obj-2", 0 ],
					"destination" : [ "obj-3", 0 ],
					"hidden" : 0,
					"midpoints" : [  ]
				}

			}
, 			{
				"patchline" : 				{
					"source" : [ "obj-1", 2 ],
					"destination" : [ "obj-2", 0 ],
					"hidden" : 0,
					"midpoints" : [  ]
				}

			}
, 			{
				"patchline" : 				{
					"source" : [ "obj-8", 0 ],
					"destination" : [ "obj-1", 0 ],
					"hidden" : 0,
					"midpoints" : [  ]
				}

			}
, 			{
				"patchline" : 				{
					"source" : [ "obj-12", 0 ],
					"destination" : [ "obj-8", 0 ],
					"hidden" : 0,
					"midpoints" : [  ]
				}

			}
 ]
	}

}
