{
	"patcher" : 	{
		"fileversion" : 1,
		"rect" : [ 221.0, 44.0, 919.0, 418.0 ],
		"bglocked" : 0,
		"defrect" : [ 221.0, 44.0, 919.0, 418.0 ],
		"openrect" : [ 0.0, 0.0, 0.0, 0.0 ],
		"openinpresentation" : 0,
		"default_fontsize" : 10.0,
		"default_fontface" : 0,
		"default_fontname" : "Arial",
		"gridonopen" : 0,
		"gridsize" : [ 15.0, 15.0 ],
		"gridsnaponopen" : 0,
		"toolbarvisible" : 1,
		"boxanimatetime" : 200,
		"imprint" : 0,
		"metadata" : [  ],
		"boxes" : [ 			{
				"box" : 				{
					"maxclass" : "newobj",
					"varname" : "multiout",
					"text" : "jcom.multi.out~",
					"numoutlets" : 32,
					"fontsize" : 9.0,
					"outlettype" : [ "", "", "", "", "", "", "", "", "", "", "", "", "", "", "", "", "", "", "", "", "", "", "", "", "", "", "", "", "", "", "", "" ],
					"id" : "obj-1",
					"fontname" : "Arial",
					"numinlets" : 2,
					"patching_rect" : [ 252.0, 93.0, 417.0, 17.0 ]
				}

			}
, 			{
				"box" : 				{
					"maxclass" : "newobj",
					"varname" : "multiin",
					"text" : "jcom.multi.in~",
					"numoutlets" : 1,
					"fontsize" : 9.0,
					"outlettype" : [ "" ],
					"id" : "obj-2",
					"fontname" : "Arial",
					"numinlets" : 32,
					"patching_rect" : [ 252.0, 313.0, 641.0, 17.0 ]
				}

			}
, 			{
				"box" : 				{
					"maxclass" : "newobj",
					"varname" : "messages",
					"text" : "p messages",
					"numoutlets" : 1,
					"fontsize" : 9.0,
					"outlettype" : [ "" ],
					"id" : "obj-3",
					"fontname" : "Arial",
					"numinlets" : 1,
					"patching_rect" : [ 179.0, 122.0, 61.0, 17.0 ],
					"patcher" : 					{
						"fileversion" : 1,
						"rect" : [ 258.0, 147.0, 632.0, 665.0 ],
						"bglocked" : 0,
						"defrect" : [ 258.0, 147.0, 632.0, 665.0 ],
						"openrect" : [ 0.0, 0.0, 0.0, 0.0 ],
						"openinpresentation" : 0,
						"default_fontsize" : 10.0,
						"default_fontface" : 0,
						"default_fontname" : "Arial",
						"gridonopen" : 0,
						"gridsize" : [ 15.0, 15.0 ],
						"gridsnaponopen" : 0,
						"toolbarvisible" : 1,
						"boxanimatetime" : 200,
						"imprint" : 0,
						"metadata" : [  ],
						"boxes" : [ 							{
								"box" : 								{
									"maxclass" : "newobj",
									"text" : "p distance_translator",
									"numoutlets" : 2,
									"fontsize" : 9.0,
									"outlettype" : [ "float", "" ],
									"id" : "obj-1",
									"fontname" : "Arial",
									"numinlets" : 3,
									"patching_rect" : [ 36.0, 331.0, 188.0, 17.0 ],
									"patcher" : 									{
										"fileversion" : 1,
										"rect" : [ 27.0, 97.0, 470.0, 434.0 ],
										"bglocked" : 0,
										"defrect" : [ 27.0, 97.0, 470.0, 434.0 ],
										"openrect" : [ 0.0, 0.0, 0.0, 0.0 ],
										"openinpresentation" : 0,
										"default_fontsize" : 10.0,
										"default_fontface" : 0,
										"default_fontname" : "Arial",
										"gridonopen" : 0,
										"gridsize" : [ 15.0, 15.0 ],
										"gridsnaponopen" : 0,
										"toolbarvisible" : 1,
										"boxanimatetime" : 200,
										"imprint" : 0,
										"metadata" : [  ],
										"boxes" : [ 											{
												"box" : 												{
													"maxclass" : "comment",
													"text" : "This subpatch is a distance translator from Jamoma to ambiencode~.",
													"numoutlets" : 0,
													"fontsize" : 9.0,
													"id" : "obj-1",
													"fontname" : "Arial",
													"numinlets" : 1,
													"patching_rect" : [ 40.0, 142.0, 391.0, 17.0 ]
												}

											}
, 											{
												"box" : 												{
													"maxclass" : "comment",
													"text" : "In the jamoma module/algorithm, distance is measured in meters. The size of the center circle where spatialisation starts collapsing, approaching an omni signal, is defined as /center_distance.",
													"linecount" : 3,
													"numoutlets" : 0,
													"fontsize" : 9.0,
													"id" : "obj-2",
													"fontname" : "Arial",
													"numinlets" : 1,
													"patching_rect" : [ 40.0, 99.0, 393.0, 38.0 ]
												}

											}
, 											{
												"box" : 												{
													"maxclass" : "newobj",
													"text" : "* 1.",
													"numoutlets" : 1,
													"fontsize" : 9.0,
													"outlettype" : [ "float" ],
													"id" : "obj-3",
													"fontname" : "Arial",
													"numinlets" : 2,
													"patching_rect" : [ 68.0, 289.0, 29.0, 17.0 ]
												}

											}
, 											{
												"box" : 												{
													"maxclass" : "newobj",
													"text" : "zl join",
													"numoutlets" : 2,
													"fontsize" : 9.0,
													"outlettype" : [ "", "" ],
													"id" : "obj-4",
													"fontname" : "Arial",
													"numinlets" : 2,
													"patching_rect" : [ 152.0, 307.0, 51.0, 17.0 ]
												}

											}
, 											{
												"box" : 												{
													"maxclass" : "newobj",
													"text" : "* 1.",
													"numoutlets" : 1,
													"fontsize" : 9.0,
													"outlettype" : [ "float" ],
													"id" : "obj-5",
													"fontname" : "Arial",
													"numinlets" : 2,
													"patching_rect" : [ 193.0, 283.0, 29.0, 17.0 ]
												}

											}
, 											{
												"box" : 												{
													"maxclass" : "newobj",
													"text" : "zl slice 3",
													"numoutlets" : 2,
													"fontsize" : 9.0,
													"outlettype" : [ "", "" ],
													"id" : "obj-6",
													"fontname" : "Arial",
													"numinlets" : 2,
													"patching_rect" : [ 152.0, 260.0, 51.0, 17.0 ]
												}

											}
, 											{
												"box" : 												{
													"maxclass" : "newobj",
													"text" : "!/ 1.",
													"numoutlets" : 1,
													"fontsize" : 9.0,
													"outlettype" : [ "float" ],
													"id" : "obj-7",
													"fontname" : "Arial",
													"numinlets" : 2,
													"patching_rect" : [ 255.0, 250.0, 31.0, 17.0 ]
												}

											}
, 											{
												"box" : 												{
													"maxclass" : "newobj",
													"text" : "maximum 0.01",
													"numoutlets" : 2,
													"fontsize" : 9.0,
													"outlettype" : [ "float", "int" ],
													"id" : "obj-8",
													"fontname" : "Arial",
													"numinlets" : 2,
													"patching_rect" : [ 255.0, 213.0, 77.0, 17.0 ]
												}

											}
, 											{
												"box" : 												{
													"maxclass" : "inlet",
													"numoutlets" : 1,
													"outlettype" : [ "float" ],
													"id" : "obj-9",
													"numinlets" : 0,
													"patching_rect" : [ 255.0, 182.0, 15.0, 15.0 ],
													"comment" : ""
												}

											}
, 											{
												"box" : 												{
													"maxclass" : "inlet",
													"numoutlets" : 1,
													"outlettype" : [ "float" ],
													"id" : "obj-10",
													"numinlets" : 0,
													"patching_rect" : [ 68.0, 183.0, 15.0, 15.0 ],
													"comment" : ""
												}

											}
, 											{
												"box" : 												{
													"maxclass" : "inlet",
													"numoutlets" : 1,
													"outlettype" : [ "" ],
													"id" : "obj-11",
													"numinlets" : 0,
													"patching_rect" : [ 152.0, 182.0, 15.0, 15.0 ],
													"comment" : ""
												}

											}
, 											{
												"box" : 												{
													"maxclass" : "outlet",
													"numoutlets" : 0,
													"id" : "obj-12",
													"numinlets" : 1,
													"patching_rect" : [ 68.0, 352.0, 15.0, 15.0 ],
													"comment" : ""
												}

											}
, 											{
												"box" : 												{
													"maxclass" : "outlet",
													"numoutlets" : 0,
													"id" : "obj-13",
													"numinlets" : 1,
													"patching_rect" : [ 152.0, 352.0, 15.0, 15.0 ],
													"comment" : ""
												}

											}
, 											{
												"box" : 												{
													"maxclass" : "comment",
													"text" : "Distance is interpreted differently in ambiencode~ and this jamoma module/algorithm.",
													"numoutlets" : 0,
													"fontsize" : 9.0,
													"id" : "obj-14",
													"fontname" : "Arial",
													"numinlets" : 1,
													"patching_rect" : [ 40.0, 48.0, 394.0, 17.0 ]
												}

											}
, 											{
												"box" : 												{
													"maxclass" : "comment",
													"text" : "In ambiencode~ (distance < 1) is the circle where spatial encoding starts collapsing, instead approaching a omni signal as distance approach zero.",
													"linecount" : 2,
													"numoutlets" : 0,
													"fontsize" : 9.0,
													"id" : "obj-15",
													"fontname" : "Arial",
													"numinlets" : 1,
													"patching_rect" : [ 40.0, 67.0, 392.0, 27.0 ]
												}

											}
 ],
										"lines" : [ 											{
												"patchline" : 												{
													"source" : [ "obj-8", 0 ],
													"destination" : [ "obj-7", 0 ],
													"hidden" : 0,
													"midpoints" : [  ]
												}

											}
, 											{
												"patchline" : 												{
													"source" : [ "obj-9", 0 ],
													"destination" : [ "obj-8", 0 ],
													"hidden" : 0,
													"midpoints" : [  ]
												}

											}
, 											{
												"patchline" : 												{
													"source" : [ "obj-7", 0 ],
													"destination" : [ "obj-5", 1 ],
													"hidden" : 0,
													"midpoints" : [  ]
												}

											}
, 											{
												"patchline" : 												{
													"source" : [ "obj-5", 0 ],
													"destination" : [ "obj-4", 1 ],
													"hidden" : 0,
													"midpoints" : [  ]
												}

											}
, 											{
												"patchline" : 												{
													"source" : [ "obj-6", 1 ],
													"destination" : [ "obj-5", 0 ],
													"hidden" : 0,
													"midpoints" : [  ]
												}

											}
, 											{
												"patchline" : 												{
													"source" : [ "obj-4", 0 ],
													"destination" : [ "obj-13", 0 ],
													"hidden" : 0,
													"midpoints" : [  ]
												}

											}
, 											{
												"patchline" : 												{
													"source" : [ "obj-6", 0 ],
													"destination" : [ "obj-4", 0 ],
													"hidden" : 0,
													"midpoints" : [  ]
												}

											}
, 											{
												"patchline" : 												{
													"source" : [ "obj-11", 0 ],
													"destination" : [ "obj-6", 0 ],
													"hidden" : 0,
													"midpoints" : [  ]
												}

											}
, 											{
												"patchline" : 												{
													"source" : [ "obj-8", 0 ],
													"destination" : [ "obj-3", 1 ],
													"hidden" : 0,
													"midpoints" : [ 264.5, 241.0, 87.5, 241.0 ]
												}

											}
, 											{
												"patchline" : 												{
													"source" : [ "obj-3", 0 ],
													"destination" : [ "obj-12", 0 ],
													"hidden" : 0,
													"midpoints" : [  ]
												}

											}
, 											{
												"patchline" : 												{
													"source" : [ "obj-10", 0 ],
													"destination" : [ "obj-3", 0 ],
													"hidden" : 0,
													"midpoints" : [  ]
												}

											}
 ]
									}
,
									"saved_object_attributes" : 									{
										"fontface" : 0,
										"fontsize" : 10.0,
										"default_fontface" : 0,
										"default_fontname" : "Arial",
										"fontname" : "Arial",
										"default_fontsize" : 10.0,
										"globalpatchername" : ""
									}

								}

							}
, 							{
								"box" : 								{
									"maxclass" : "newobj",
									"text" : "t b f",
									"numoutlets" : 2,
									"fontsize" : 9.0,
									"outlettype" : [ "bang", "float" ],
									"id" : "obj-2",
									"fontname" : "Arial",
									"numinlets" : 1,
									"patching_rect" : [ 214.0, 108.0, 29.0, 17.0 ]
								}

							}
, 							{
								"box" : 								{
									"maxclass" : "newobj",
									"text" : "prepend aed",
									"numoutlets" : 1,
									"fontsize" : 9.0,
									"outlettype" : [ "" ],
									"id" : "obj-3",
									"fontname" : "Arial",
									"numinlets" : 1,
									"patching_rect" : [ 214.0, 360.0, 59.0, 17.0 ]
								}

							}
, 							{
								"box" : 								{
									"maxclass" : "newobj",
									"text" : "f",
									"numoutlets" : 1,
									"fontsize" : 9.0,
									"outlettype" : [ "float" ],
									"id" : "obj-4",
									"fontname" : "Arial",
									"numinlets" : 2,
									"patching_rect" : [ 36.0, 214.0, 27.0, 17.0 ]
								}

							}
, 							{
								"box" : 								{
									"maxclass" : "newobj",
									"text" : "prepend db_unit",
									"linecount" : 2,
									"numoutlets" : 1,
									"fontsize" : 9.0,
									"outlettype" : [ "" ],
									"id" : "obj-5",
									"fontname" : "Arial",
									"numinlets" : 1,
									"patching_rect" : [ 36.0, 360.0, 67.0, 27.0 ]
								}

							}
, 							{
								"box" : 								{
									"maxclass" : "newobj",
									"text" : "zl join",
									"numoutlets" : 2,
									"fontsize" : 9.0,
									"outlettype" : [ "", "" ],
									"id" : "obj-6",
									"fontname" : "Arial",
									"numinlets" : 2,
									"patching_rect" : [ 144.0, 252.0, 38.0, 17.0 ]
								}

							}
, 							{
								"box" : 								{
									"maxclass" : "newobj",
									"text" : "t b dump",
									"numoutlets" : 2,
									"fontsize" : 9.0,
									"outlettype" : [ "bang", "dump" ],
									"id" : "obj-7",
									"fontname" : "Arial",
									"numinlets" : 1,
									"patching_rect" : [ 327.0, 146.0, 45.0, 17.0 ]
								}

							}
, 							{
								"box" : 								{
									"maxclass" : "newobj",
									"text" : "sel 1",
									"numoutlets" : 2,
									"fontsize" : 9.0,
									"outlettype" : [ "bang", "" ],
									"id" : "obj-8",
									"fontname" : "Arial",
									"numinlets" : 2,
									"patching_rect" : [ 327.0, 113.0, 28.0, 17.0 ]
								}

							}
, 							{
								"box" : 								{
									"maxclass" : "newobj",
									"text" : "dspstate~",
									"numoutlets" : 4,
									"fontsize" : 9.0,
									"outlettype" : [ "int", "float", "int", "int" ],
									"id" : "obj-9",
									"fontname" : "Arial",
									"numinlets" : 1,
									"patching_rect" : [ 327.0, 83.0, 53.0, 17.0 ]
								}

							}
, 							{
								"box" : 								{
									"maxclass" : "newobj",
									"text" : "coll",
									"numoutlets" : 4,
									"fontsize" : 9.0,
									"outlettype" : [ "", "", "", "" ],
									"id" : "obj-10",
									"fontname" : "Arial",
									"numinlets" : 1,
									"patching_rect" : [ 144.0, 283.0, 53.0, 17.0 ],
									"save" : [ "#N", "coll", ";" ],
									"saved_object_attributes" : 									{
										"embed" : 0
									}

								}

							}
, 							{
								"box" : 								{
									"maxclass" : "newobj",
									"text" : "t i l",
									"numoutlets" : 2,
									"fontsize" : 9.0,
									"outlettype" : [ "int", "" ],
									"id" : "obj-11",
									"fontname" : "Arial",
									"numinlets" : 1,
									"patching_rect" : [ 144.0, 223.0, 38.0, 17.0 ]
								}

							}
, 							{
								"box" : 								{
									"maxclass" : "newobj",
									"text" : "jcom.oscroute /db_drop_off /aed /center_radius",
									"numoutlets" : 4,
									"fontsize" : 9.0,
									"outlettype" : [ "", "", "", "" ],
									"id" : "obj-12",
									"fontname" : "Arial",
									"numinlets" : 1,
									"patching_rect" : [ 36.0, 83.0, 279.0, 17.0 ]
								}

							}
, 							{
								"box" : 								{
									"maxclass" : "inlet",
									"numoutlets" : 1,
									"outlettype" : [ "" ],
									"id" : "obj-13",
									"numinlets" : 0,
									"patching_rect" : [ 36.0, 56.0, 15.0, 15.0 ],
									"comment" : ""
								}

							}
, 							{
								"box" : 								{
									"maxclass" : "outlet",
									"numoutlets" : 0,
									"id" : "obj-14",
									"numinlets" : 1,
									"patching_rect" : [ 36.0, 421.0, 15.0, 15.0 ],
									"comment" : ""
								}

							}
, 							{
								"box" : 								{
									"maxclass" : "comment",
									"text" : "If /order or /voices has caused ambiencode~ to be recreated, all values have to be resent when audio start to recreate current state. The same holds true if the center_radius is changed.",
									"linecount" : 6,
									"numoutlets" : 0,
									"fontsize" : 9.0,
									"id" : "obj-15",
									"fontname" : "Arial",
									"numinlets" : 1,
									"patching_rect" : [ 401.0, 87.0, 161.0, 69.0 ]
								}

							}
 ],
						"lines" : [ 							{
								"patchline" : 								{
									"source" : [ "obj-8", 0 ],
									"destination" : [ "obj-7", 0 ],
									"hidden" : 0,
									"midpoints" : [  ]
								}

							}
, 							{
								"patchline" : 								{
									"source" : [ "obj-2", 0 ],
									"destination" : [ "obj-7", 0 ],
									"hidden" : 0,
									"midpoints" : [ 223.5, 139.0, 336.5, 139.0 ]
								}

							}
, 							{
								"patchline" : 								{
									"source" : [ "obj-9", 0 ],
									"destination" : [ "obj-8", 0 ],
									"hidden" : 0,
									"midpoints" : [  ]
								}

							}
, 							{
								"patchline" : 								{
									"source" : [ "obj-1", 1 ],
									"destination" : [ "obj-3", 0 ],
									"hidden" : 0,
									"midpoints" : [  ]
								}

							}
, 							{
								"patchline" : 								{
									"source" : [ "obj-2", 1 ],
									"destination" : [ "obj-1", 2 ],
									"hidden" : 0,
									"midpoints" : [  ]
								}

							}
, 							{
								"patchline" : 								{
									"source" : [ "obj-12", 2 ],
									"destination" : [ "obj-2", 0 ],
									"hidden" : 0,
									"midpoints" : [  ]
								}

							}
, 							{
								"patchline" : 								{
									"source" : [ "obj-11", 1 ],
									"destination" : [ "obj-6", 1 ],
									"hidden" : 0,
									"midpoints" : [  ]
								}

							}
, 							{
								"patchline" : 								{
									"source" : [ "obj-6", 0 ],
									"destination" : [ "obj-10", 0 ],
									"hidden" : 0,
									"midpoints" : [  ]
								}

							}
, 							{
								"patchline" : 								{
									"source" : [ "obj-7", 1 ],
									"destination" : [ "obj-10", 0 ],
									"hidden" : 0,
									"midpoints" : [ 362.5, 278.0, 153.5, 278.0 ]
								}

							}
, 							{
								"patchline" : 								{
									"source" : [ "obj-11", 0 ],
									"destination" : [ "obj-6", 0 ],
									"hidden" : 0,
									"midpoints" : [  ]
								}

							}
, 							{
								"patchline" : 								{
									"source" : [ "obj-12", 1 ],
									"destination" : [ "obj-11", 0 ],
									"hidden" : 0,
									"midpoints" : [  ]
								}

							}
, 							{
								"patchline" : 								{
									"source" : [ "obj-12", 1 ],
									"destination" : [ "obj-1", 1 ],
									"hidden" : 0,
									"midpoints" : [  ]
								}

							}
, 							{
								"patchline" : 								{
									"source" : [ "obj-10", 0 ],
									"destination" : [ "obj-1", 1 ],
									"hidden" : 0,
									"midpoints" : [  ]
								}

							}
, 							{
								"patchline" : 								{
									"source" : [ "obj-5", 0 ],
									"destination" : [ "obj-14", 0 ],
									"hidden" : 0,
									"midpoints" : [  ]
								}

							}
, 							{
								"patchline" : 								{
									"source" : [ "obj-3", 0 ],
									"destination" : [ "obj-14", 0 ],
									"hidden" : 0,
									"midpoints" : [  ]
								}

							}
, 							{
								"patchline" : 								{
									"source" : [ "obj-1", 0 ],
									"destination" : [ "obj-5", 0 ],
									"hidden" : 0,
									"midpoints" : [  ]
								}

							}
, 							{
								"patchline" : 								{
									"source" : [ "obj-4", 0 ],
									"destination" : [ "obj-1", 0 ],
									"hidden" : 0,
									"midpoints" : [  ]
								}

							}
, 							{
								"patchline" : 								{
									"source" : [ "obj-12", 0 ],
									"destination" : [ "obj-4", 0 ],
									"hidden" : 0,
									"midpoints" : [  ]
								}

							}
, 							{
								"patchline" : 								{
									"source" : [ "obj-7", 0 ],
									"destination" : [ "obj-4", 0 ],
									"hidden" : 0,
									"midpoints" : [ 336.5, 188.0, 45.5, 188.0 ]
								}

							}
, 							{
								"patchline" : 								{
									"source" : [ "obj-13", 0 ],
									"destination" : [ "obj-12", 0 ],
									"hidden" : 0,
									"midpoints" : [  ]
								}

							}
 ]
					}
,
					"saved_object_attributes" : 					{
						"fontface" : 0,
						"fontsize" : 10.0,
						"default_fontface" : 0,
						"default_fontname" : "Arial",
						"fontname" : "Arial",
						"default_fontsize" : 10.0,
						"globalpatchername" : ""
					}

				}

			}
, 			{
				"box" : 				{
					"maxclass" : "inlet",
					"numoutlets" : 1,
					"outlettype" : [ "" ],
					"id" : "obj-4",
					"numinlets" : 0,
					"patching_rect" : [ 43.0, 48.0, 15.0, 15.0 ],
					"comment" : ""
				}

			}
, 			{
				"box" : 				{
					"maxclass" : "newobj",
					"text" : "p scripting",
					"numoutlets" : 1,
					"fontsize" : 9.0,
					"outlettype" : [ "" ],
					"id" : "obj-5",
					"fontname" : "Arial",
					"numinlets" : 2,
					"patching_rect" : [ 43.0, 139.0, 83.0, 17.0 ],
					"patcher" : 					{
						"fileversion" : 1,
						"rect" : [ 18.0, 97.0, 967.0, 520.0 ],
						"bglocked" : 0,
						"defrect" : [ 18.0, 97.0, 967.0, 520.0 ],
						"openrect" : [ 0.0, 0.0, 0.0, 0.0 ],
						"openinpresentation" : 0,
						"default_fontsize" : 10.0,
						"default_fontface" : 0,
						"default_fontname" : "Arial",
						"gridonopen" : 0,
						"gridsize" : [ 15.0, 15.0 ],
						"gridsnaponopen" : 0,
						"toolbarvisible" : 1,
						"boxanimatetime" : 200,
						"imprint" : 0,
						"visible" : 1,
						"metadata" : [  ],
						"boxes" : [ 							{
								"box" : 								{
									"maxclass" : "comment",
									"text" : "Changes can not take place while audio is running",
									"linecount" : 2,
									"numoutlets" : 0,
									"fontsize" : 9.0,
									"id" : "obj-1",
									"fontname" : "Arial",
									"numinlets" : 1,
									"patching_rect" : [ 199.0, 169.0, 134.0, 27.0 ]
								}

							}
, 							{
								"box" : 								{
									"maxclass" : "comment",
									"text" : "Only apply script if either voices and/or order is changed",
									"linecount" : 2,
									"numoutlets" : 0,
									"fontsize" : 9.0,
									"id" : "obj-2",
									"fontname" : "Arial",
									"numinlets" : 1,
									"patching_rect" : [ 356.0, 229.0, 151.0, 27.0 ]
								}

							}
, 							{
								"box" : 								{
									"maxclass" : "newobj",
									"text" : "unpack 0 0",
									"numoutlets" : 2,
									"fontsize" : 9.0,
									"outlettype" : [ "int", "int" ],
									"id" : "obj-3",
									"fontname" : "Arial",
									"numinlets" : 1,
									"patching_rect" : [ 147.0, 256.0, 58.0, 17.0 ]
								}

							}
, 							{
								"box" : 								{
									"maxclass" : "newobj",
									"text" : "if $i1 != $i3 || $i2 !=$i4 then $i1 $i2",
									"numoutlets" : 1,
									"fontsize" : 9.0,
									"outlettype" : [ "" ],
									"id" : "obj-4",
									"fontname" : "Arial",
									"numinlets" : 4,
									"patching_rect" : [ 147.0, 232.0, 175.0, 17.0 ]
								}

							}
, 							{
								"box" : 								{
									"maxclass" : "newobj",
									"text" : "t b i",
									"numoutlets" : 2,
									"fontsize" : 9.0,
									"outlettype" : [ "bang", "int" ],
									"id" : "obj-5",
									"fontname" : "Arial",
									"numinlets" : 1,
									"patching_rect" : [ 441.0, 125.0, 27.0, 17.0 ]
								}

							}
, 							{
								"box" : 								{
									"maxclass" : "inlet",
									"numoutlets" : 1,
									"outlettype" : [ "" ],
									"id" : "obj-6",
									"numinlets" : 0,
									"patching_rect" : [ 441.0, 44.0, 15.0, 15.0 ],
									"comment" : ""
								}

							}
, 							{
								"box" : 								{
									"maxclass" : "comment",
									"text" : "order",
									"numoutlets" : 0,
									"fontsize" : 9.0,
									"id" : "obj-7",
									"fontname" : "Arial",
									"numinlets" : 1,
									"patching_rect" : [ 470.0, 44.0, 100.0, 17.0 ]
								}

							}
, 							{
								"box" : 								{
									"maxclass" : "newobj",
									"text" : "p connect_from_encode",
									"numoutlets" : 1,
									"fontsize" : 9.0,
									"outlettype" : [ "" ],
									"id" : "obj-8",
									"fontname" : "Arial",
									"numinlets" : 2,
									"patching_rect" : [ 147.0, 361.0, 116.0, 17.0 ],
									"patcher" : 									{
										"fileversion" : 1,
										"rect" : [ 1.0, 44.0, 667.0, 711.0 ],
										"bglocked" : 0,
										"defrect" : [ 1.0, 44.0, 667.0, 711.0 ],
										"openrect" : [ 0.0, 0.0, 0.0, 0.0 ],
										"openinpresentation" : 0,
										"default_fontsize" : 10.0,
										"default_fontface" : 0,
										"default_fontname" : "Arial",
										"gridonopen" : 0,
										"gridsize" : [ 15.0, 15.0 ],
										"gridsnaponopen" : 0,
										"toolbarvisible" : 1,
										"boxanimatetime" : 200,
										"imprint" : 0,
										"metadata" : [  ],
										"boxes" : [ 											{
												"box" : 												{
													"maxclass" : "newobj",
													"text" : "prepend script connect encode",
													"numoutlets" : 1,
													"fontsize" : 10.0,
													"outlettype" : [ "" ],
													"id" : "obj-16",
													"fontname" : "Arial",
													"numinlets" : 1,
													"patching_rect" : [ 307.0, 386.0, 147.0, 18.0 ]
												}

											}
, 											{
												"box" : 												{
													"maxclass" : "newobj",
													"text" : "append",
													"numoutlets" : 1,
													"fontsize" : 10.0,
													"outlettype" : [ "" ],
													"id" : "obj-15",
													"fontname" : "Arial",
													"numinlets" : 1,
													"patching_rect" : [ 307.0, 472.0, 44.0, 18.0 ]
												}

											}
, 											{
												"box" : 												{
													"maxclass" : "newobj",
													"text" : "prepend set",
													"numoutlets" : 1,
													"fontsize" : 10.0,
													"outlettype" : [ "" ],
													"id" : "obj-13",
													"fontname" : "Arial",
													"numinlets" : 1,
													"patching_rect" : [ 457.0, 428.0, 63.0, 18.0 ]
												}

											}
, 											{
												"box" : 												{
													"maxclass" : "newobj",
													"text" : "append 0",
													"numoutlets" : 1,
													"fontsize" : 10.0,
													"outlettype" : [ "" ],
													"id" : "obj-12",
													"fontname" : "Arial",
													"numinlets" : 1,
													"patching_rect" : [ 457.0, 407.0, 52.0, 18.0 ]
												}

											}
, 											{
												"box" : 												{
													"maxclass" : "newobj",
													"text" : "combine pass[ 2 ] @triggers 1",
													"numoutlets" : 2,
													"fontsize" : 10.0,
													"outlettype" : [ "", "" ],
													"id" : "obj-11",
													"fontname" : "Arial",
													"numinlets" : 3,
													"patching_rect" : [ 457.0, 386.0, 143.0, 18.0 ]
												}

											}
, 											{
												"box" : 												{
													"maxclass" : "newobj",
													"text" : "combine pass[ 2 ] @triggers 1",
													"numoutlets" : 2,
													"fontsize" : 10.0,
													"outlettype" : [ "", "" ],
													"id" : "obj-14",
													"fontname" : "Arial",
													"numinlets" : 3,
													"patching_rect" : [ 8.0, 382.0, 143.0, 18.0 ]
												}

											}
, 											{
												"box" : 												{
													"maxclass" : "newobj",
													"text" : "append",
													"numoutlets" : 1,
													"fontsize" : 10.0,
													"outlettype" : [ "" ],
													"id" : "obj-10",
													"fontname" : "Arial",
													"numinlets" : 1,
													"patching_rect" : [ 36.0, 431.0, 44.0, 18.0 ]
												}

											}
, 											{
												"box" : 												{
													"maxclass" : "newobj",
													"text" : "prepend script connect",
													"numoutlets" : 1,
													"fontsize" : 10.0,
													"outlettype" : [ "" ],
													"id" : "obj-17",
													"fontname" : "Arial",
													"numinlets" : 1,
													"patching_rect" : [ 36.0, 406.0, 112.0, 18.0 ]
												}

											}
, 											{
												"box" : 												{
													"maxclass" : "newobj",
													"text" : "prepend set",
													"numoutlets" : 1,
													"fontsize" : 10.0,
													"outlettype" : [ "" ],
													"id" : "obj-18",
													"fontname" : "Arial",
													"numinlets" : 1,
													"patching_rect" : [ 154.0, 402.0, 63.0, 18.0 ]
												}

											}
, 											{
												"box" : 												{
													"maxclass" : "newobj",
													"text" : "prepend 0 multiin",
													"numoutlets" : 1,
													"fontsize" : 10.0,
													"outlettype" : [ "" ],
													"id" : "obj-19",
													"fontname" : "Arial",
													"numinlets" : 1,
													"patching_rect" : [ 154.0, 381.0, 87.0, 18.0 ]
												}

											}
, 											{
												"box" : 												{
													"maxclass" : "newobj",
													"text" : "sprintf script connect encode %ld pass[%ld] 0",
													"numoutlets" : 1,
													"fontsize" : 9.0,
													"outlettype" : [ "" ],
													"id" : "obj-20",
													"fontname" : "Arial",
													"numinlets" : 2,
													"patching_rect" : [ 353.0, 474.0, 192.0, 17.0 ]
												}

											}
, 											{
												"box" : 												{
													"maxclass" : "newobj",
													"text" : "- 1",
													"numoutlets" : 1,
													"fontsize" : 9.0,
													"outlettype" : [ "int" ],
													"id" : "obj-21",
													"fontname" : "Arial",
													"numinlets" : 2,
													"patching_rect" : [ 289.0, 358.0, 27.0, 17.0 ]
												}

											}
, 											{
												"box" : 												{
													"maxclass" : "newobj",
													"text" : "sprintf script connect pass[%ld] 0 multiin %ld",
													"numoutlets" : 1,
													"fontsize" : 9.0,
													"outlettype" : [ "" ],
													"id" : "obj-22",
													"fontname" : "Arial",
													"numinlets" : 2,
													"patching_rect" : [ 81.0, 437.0, 191.0, 17.0 ]
												}

											}
, 											{
												"box" : 												{
													"maxclass" : "newobj",
													"text" : "uzi",
													"numoutlets" : 3,
													"fontsize" : 9.0,
													"outlettype" : [ "bang", "bang", "int" ],
													"id" : "obj-23",
													"fontname" : "Arial",
													"numinlets" : 2,
													"patching_rect" : [ 50.0, 322.0, 40.0, 17.0 ]
												}

											}
, 											{
												"box" : 												{
													"maxclass" : "newobj",
													"text" : "coll",
													"numoutlets" : 4,
													"fontsize" : 9.0,
													"outlettype" : [ "", "", "", "" ],
													"id" : "obj-1",
													"fontname" : "Arial",
													"numinlets" : 1,
													"patching_rect" : [ 404.0, 69.0, 53.0, 17.0 ],
													"save" : [ "#N", "coll", ";", "#T", "flags", 1, 0, ";", "#T", 1, 4, ";", "#T", 2, 9, ";", "#T", 3, 16, ";" ],
													"saved_object_attributes" : 													{
														"embed" : 1
													}

												}

											}
, 											{
												"box" : 												{
													"maxclass" : "newobj",
													"text" : "i 16",
													"numoutlets" : 1,
													"fontsize" : 9.0,
													"outlettype" : [ "int" ],
													"id" : "obj-2",
													"fontname" : "Arial",
													"numinlets" : 2,
													"patching_rect" : [ 50.0, 130.0, 27.0, 17.0 ]
												}

											}
, 											{
												"box" : 												{
													"maxclass" : "inlet",
													"numoutlets" : 1,
													"outlettype" : [ "int" ],
													"id" : "obj-3",
													"numinlets" : 0,
													"patching_rect" : [ 404.0, 30.0, 15.0, 15.0 ],
													"comment" : ""
												}

											}
, 											{
												"box" : 												{
													"maxclass" : "inlet",
													"numoutlets" : 1,
													"outlettype" : [ "bang" ],
													"id" : "obj-8",
													"numinlets" : 0,
													"patching_rect" : [ 50.0, 30.0, 15.0, 15.0 ],
													"comment" : ""
												}

											}
, 											{
												"box" : 												{
													"maxclass" : "outlet",
													"numoutlets" : 0,
													"id" : "obj-9",
													"numinlets" : 1,
													"patching_rect" : [ 99.0, 541.0, 15.0, 15.0 ],
													"comment" : ""
												}

											}
 ],
										"lines" : [ 											{
												"patchline" : 												{
													"source" : [ "obj-10", 0 ],
													"destination" : [ "obj-9", 0 ],
													"hidden" : 0,
													"midpoints" : [  ]
												}

											}
, 											{
												"patchline" : 												{
													"source" : [ "obj-15", 0 ],
													"destination" : [ "obj-9", 0 ],
													"hidden" : 0,
													"midpoints" : [  ]
												}

											}
, 											{
												"patchline" : 												{
													"source" : [ "obj-21", 0 ],
													"destination" : [ "obj-16", 0 ],
													"hidden" : 0,
													"midpoints" : [  ]
												}

											}
, 											{
												"patchline" : 												{
													"source" : [ "obj-16", 0 ],
													"destination" : [ "obj-15", 0 ],
													"hidden" : 0,
													"midpoints" : [  ]
												}

											}
, 											{
												"patchline" : 												{
													"source" : [ "obj-2", 0 ],
													"destination" : [ "obj-23", 0 ],
													"hidden" : 0,
													"midpoints" : [  ]
												}

											}
, 											{
												"patchline" : 												{
													"source" : [ "obj-13", 0 ],
													"destination" : [ "obj-15", 0 ],
													"hidden" : 0,
													"midpoints" : [  ]
												}

											}
, 											{
												"patchline" : 												{
													"source" : [ "obj-12", 0 ],
													"destination" : [ "obj-13", 0 ],
													"hidden" : 0,
													"midpoints" : [  ]
												}

											}
, 											{
												"patchline" : 												{
													"source" : [ "obj-11", 0 ],
													"destination" : [ "obj-12", 0 ],
													"hidden" : 0,
													"midpoints" : [  ]
												}

											}
, 											{
												"patchline" : 												{
													"source" : [ "obj-23", 2 ],
													"destination" : [ "obj-11", 1 ],
													"hidden" : 0,
													"midpoints" : [ 80.5, 340.0, 528.5, 340.0 ]
												}

											}
, 											{
												"patchline" : 												{
													"source" : [ "obj-23", 2 ],
													"destination" : [ "obj-14", 1 ],
													"hidden" : 0,
													"midpoints" : [  ]
												}

											}
, 											{
												"patchline" : 												{
													"source" : [ "obj-14", 0 ],
													"destination" : [ "obj-17", 0 ],
													"hidden" : 0,
													"midpoints" : [  ]
												}

											}
, 											{
												"patchline" : 												{
													"source" : [ "obj-18", 0 ],
													"destination" : [ "obj-10", 0 ],
													"hidden" : 0,
													"midpoints" : [ 163.5, 434.0, 81.0, 434.0, 81.0, 428.0, 45.5, 428.0 ]
												}

											}
, 											{
												"patchline" : 												{
													"source" : [ "obj-17", 0 ],
													"destination" : [ "obj-10", 0 ],
													"hidden" : 0,
													"midpoints" : [  ]
												}

											}
, 											{
												"patchline" : 												{
													"source" : [ "obj-19", 0 ],
													"destination" : [ "obj-18", 0 ],
													"hidden" : 0,
													"midpoints" : [  ]
												}

											}
, 											{
												"patchline" : 												{
													"source" : [ "obj-21", 0 ],
													"destination" : [ "obj-19", 0 ],
													"hidden" : 0,
													"midpoints" : [ 298.5, 376.0, 163.5, 376.0 ]
												}

											}
, 											{
												"patchline" : 												{
													"source" : [ "obj-23", 2 ],
													"destination" : [ "obj-21", 0 ],
													"hidden" : 0,
													"midpoints" : [ 80.5, 349.0, 298.5, 349.0 ]
												}

											}
, 											{
												"patchline" : 												{
													"source" : [ "obj-3", 0 ],
													"destination" : [ "obj-1", 0 ],
													"hidden" : 0,
													"midpoints" : [  ]
												}

											}
, 											{
												"patchline" : 												{
													"source" : [ "obj-1", 0 ],
													"destination" : [ "obj-2", 1 ],
													"hidden" : 0,
													"midpoints" : [  ]
												}

											}
, 											{
												"patchline" : 												{
													"source" : [ "obj-8", 0 ],
													"destination" : [ "obj-2", 0 ],
													"hidden" : 0,
													"midpoints" : [  ]
												}

											}
 ]
									}
,
									"saved_object_attributes" : 									{
										"fontface" : 0,
										"fontsize" : 10.0,
										"default_fontface" : 0,
										"default_fontname" : "Arial",
										"fontname" : "Arial",
										"default_fontsize" : 10.0,
										"globalpatchername" : ""
									}

								}

							}
, 							{
								"box" : 								{
									"maxclass" : "newobj",
									"text" : "p connect_to_encode",
									"numoutlets" : 1,
									"fontsize" : 9.0,
									"outlettype" : [ "" ],
									"id" : "obj-9",
									"fontname" : "Arial",
									"numinlets" : 1,
									"patching_rect" : [ 271.0, 361.0, 103.0, 17.0 ],
									"patcher" : 									{
										"fileversion" : 1,
										"rect" : [ 44.0, 74.0, 600.0, 426.0 ],
										"bglocked" : 0,
										"defrect" : [ 44.0, 74.0, 600.0, 426.0 ],
										"openrect" : [ 0.0, 0.0, 0.0, 0.0 ],
										"openinpresentation" : 0,
										"default_fontsize" : 10.0,
										"default_fontface" : 0,
										"default_fontname" : "Arial",
										"gridonopen" : 0,
										"gridsize" : [ 15.0, 15.0 ],
										"gridsnaponopen" : 0,
										"toolbarvisible" : 1,
										"boxanimatetime" : 200,
										"imprint" : 0,
										"metadata" : [  ],
										"boxes" : [ 											{
												"box" : 												{
													"maxclass" : "newobj",
													"text" : "append",
													"numoutlets" : 1,
													"fontsize" : 10.0,
													"outlettype" : [ "" ],
													"id" : "obj-11",
													"fontname" : "Arial",
													"numinlets" : 1,
													"patching_rect" : [ 248.0, 332.0, 44.0, 18.0 ]
												}

											}
, 											{
												"box" : 												{
													"maxclass" : "newobj",
													"text" : "prepend set",
													"numoutlets" : 1,
													"fontsize" : 10.0,
													"outlettype" : [ "" ],
													"id" : "obj-10",
													"fontname" : "Arial",
													"numinlets" : 1,
													"patching_rect" : [ 454.0, 253.0, 63.0, 18.0 ]
												}

											}
, 											{
												"box" : 												{
													"maxclass" : "newobj",
													"text" : "prepend script connect multiout",
													"numoutlets" : 1,
													"fontsize" : 10.0,
													"outlettype" : [ "" ],
													"id" : "obj-9",
													"fontname" : "Arial",
													"numinlets" : 1,
													"patching_rect" : [ 248.0, 244.0, 149.0, 18.0 ]
												}

											}
, 											{
												"box" : 												{
													"maxclass" : "newobj",
													"text" : "prepend encode",
													"numoutlets" : 1,
													"fontsize" : 10.0,
													"outlettype" : [ "" ],
													"id" : "obj-8",
													"fontname" : "Arial",
													"numinlets" : 1,
													"patching_rect" : [ 454.0, 233.0, 83.0, 18.0 ]
												}

											}
, 											{
												"box" : 												{
													"maxclass" : "newobj",
													"text" : "i 4",
													"numoutlets" : 1,
													"fontsize" : 9.0,
													"outlettype" : [ "int" ],
													"id" : "obj-1",
													"fontname" : "Arial",
													"numinlets" : 2,
													"patching_rect" : [ 50.0, 115.0, 27.0, 17.0 ]
												}

											}
, 											{
												"box" : 												{
													"maxclass" : "message",
													"text" : "script connect messages 0 encode 0",
													"numoutlets" : 1,
													"fontsize" : 9.0,
													"outlettype" : [ "" ],
													"id" : "obj-2",
													"fontname" : "Arial",
													"numinlets" : 2,
													"patching_rect" : [ 61.0, 210.0, 171.0, 15.0 ]
												}

											}
, 											{
												"box" : 												{
													"maxclass" : "newobj",
													"text" : "- 1",
													"numoutlets" : 1,
													"fontsize" : 9.0,
													"outlettype" : [ "int" ],
													"id" : "obj-3",
													"fontname" : "Arial",
													"numinlets" : 2,
													"patching_rect" : [ 248.0, 175.0, 27.0, 17.0 ]
												}

											}
, 											{
												"box" : 												{
													"maxclass" : "newobj",
													"text" : "sprintf script connect multiout %ld encode %ld",
													"numoutlets" : 1,
													"fontsize" : 9.0,
													"outlettype" : [ "" ],
													"id" : "obj-4",
													"fontname" : "Arial",
													"numinlets" : 2,
													"patching_rect" : [ 301.0, 338.0, 221.0, 17.0 ]
												}

											}
, 											{
												"box" : 												{
													"maxclass" : "newobj",
													"text" : "uzi 4",
													"numoutlets" : 3,
													"fontsize" : 9.0,
													"outlettype" : [ "bang", "bang", "int" ],
													"id" : "obj-5",
													"fontname" : "Arial",
													"numinlets" : 2,
													"patching_rect" : [ 50.0, 141.0, 40.0, 17.0 ]
												}

											}
, 											{
												"box" : 												{
													"maxclass" : "inlet",
													"numoutlets" : 1,
													"outlettype" : [ "int" ],
													"id" : "obj-6",
													"numinlets" : 0,
													"patching_rect" : [ 50.0, 30.0, 15.0, 15.0 ],
													"comment" : ""
												}

											}
, 											{
												"box" : 												{
													"maxclass" : "outlet",
													"numoutlets" : 0,
													"id" : "obj-7",
													"numinlets" : 1,
													"patching_rect" : [ 61.0, 399.0, 15.0, 15.0 ],
													"comment" : ""
												}

											}
 ],
										"lines" : [ 											{
												"patchline" : 												{
													"source" : [ "obj-9", 0 ],
													"destination" : [ "obj-11", 0 ],
													"hidden" : 0,
													"midpoints" : [  ]
												}

											}
, 											{
												"patchline" : 												{
													"source" : [ "obj-11", 0 ],
													"destination" : [ "obj-7", 0 ],
													"hidden" : 0,
													"midpoints" : [  ]
												}

											}
, 											{
												"patchline" : 												{
													"source" : [ "obj-10", 0 ],
													"destination" : [ "obj-11", 0 ],
													"hidden" : 0,
													"midpoints" : [  ]
												}

											}
, 											{
												"patchline" : 												{
													"source" : [ "obj-8", 0 ],
													"destination" : [ "obj-10", 0 ],
													"hidden" : 0,
													"midpoints" : [  ]
												}

											}
, 											{
												"patchline" : 												{
													"source" : [ "obj-3", 0 ],
													"destination" : [ "obj-9", 0 ],
													"hidden" : 0,
													"midpoints" : [  ]
												}

											}
, 											{
												"patchline" : 												{
													"source" : [ "obj-3", 0 ],
													"destination" : [ "obj-8", 0 ],
													"hidden" : 0,
													"midpoints" : [  ]
												}

											}
, 											{
												"patchline" : 												{
													"source" : [ "obj-5", 2 ],
													"destination" : [ "obj-3", 0 ],
													"hidden" : 0,
													"midpoints" : [ 80.5, 165.0, 257.5, 165.0 ]
												}

											}
, 											{
												"patchline" : 												{
													"source" : [ "obj-2", 0 ],
													"destination" : [ "obj-7", 0 ],
													"hidden" : 0,
													"midpoints" : [  ]
												}

											}
, 											{
												"patchline" : 												{
													"source" : [ "obj-5", 1 ],
													"destination" : [ "obj-2", 0 ],
													"hidden" : 0,
													"midpoints" : [  ]
												}

											}
, 											{
												"patchline" : 												{
													"source" : [ "obj-1", 0 ],
													"destination" : [ "obj-5", 0 ],
													"hidden" : 0,
													"midpoints" : [  ]
												}

											}
, 											{
												"patchline" : 												{
													"source" : [ "obj-6", 0 ],
													"destination" : [ "obj-1", 0 ],
													"hidden" : 0,
													"midpoints" : [  ]
												}

											}
 ]
									}
,
									"saved_object_attributes" : 									{
										"fontface" : 0,
										"fontsize" : 10.0,
										"default_fontface" : 0,
										"default_fontname" : "Arial",
										"fontname" : "Arial",
										"default_fontsize" : 10.0,
										"globalpatchername" : ""
									}

								}

							}
, 							{
								"box" : 								{
									"maxclass" : "newobj",
									"text" : "p new_encode",
									"numoutlets" : 1,
									"fontsize" : 9.0,
									"outlettype" : [ "" ],
									"id" : "obj-10",
									"fontname" : "Arial",
									"numinlets" : 2,
									"patching_rect" : [ 381.0, 361.0, 72.0, 17.0 ],
									"patcher" : 									{
										"fileversion" : 1,
										"rect" : [ 44.0, 74.0, 600.0, 426.0 ],
										"bglocked" : 0,
										"defrect" : [ 44.0, 74.0, 600.0, 426.0 ],
										"openrect" : [ 0.0, 0.0, 0.0, 0.0 ],
										"openinpresentation" : 0,
										"default_fontsize" : 10.0,
										"default_fontface" : 0,
										"default_fontname" : "Arial",
										"gridonopen" : 0,
										"gridsize" : [ 15.0, 15.0 ],
										"gridsnaponopen" : 0,
										"toolbarvisible" : 1,
										"boxanimatetime" : 200,
										"imprint" : 0,
										"metadata" : [  ],
										"boxes" : [ 											{
												"box" : 												{
													"maxclass" : "newobj",
													"text" : "prepend script new encode newex 252 153 209 196617 ambiencode~",
													"numoutlets" : 1,
													"fontsize" : 10.0,
													"outlettype" : [ "" ],
													"id" : "obj-9",
													"fontname" : "Arial",
													"numinlets" : 1,
													"patching_rect" : [ 49.0, 142.0, 320.0, 18.0 ]
												}

											}
, 											{
												"box" : 												{
													"maxclass" : "newobj",
													"text" : "append",
													"numoutlets" : 1,
													"fontsize" : 10.0,
													"outlettype" : [ "" ],
													"id" : "obj-8",
													"fontname" : "Arial",
													"numinlets" : 1,
													"patching_rect" : [ 117.0, 293.0, 44.0, 18.0 ]
												}

											}
, 											{
												"box" : 												{
													"maxclass" : "newobj",
													"text" : "prepend set",
													"numoutlets" : 1,
													"fontsize" : 10.0,
													"outlettype" : [ "" ],
													"id" : "obj-7",
													"fontname" : "Arial",
													"numinlets" : 1,
													"patching_rect" : [ 371.0, 142.0, 63.0, 18.0 ]
												}

											}
, 											{
												"box" : 												{
													"maxclass" : "inlet",
													"numoutlets" : 1,
													"outlettype" : [ "int" ],
													"id" : "obj-1",
													"numinlets" : 0,
													"patching_rect" : [ 202.0, 30.0, 15.0, 15.0 ],
													"comment" : ""
												}

											}
, 											{
												"box" : 												{
													"maxclass" : "newobj",
													"text" : "i 16",
													"numoutlets" : 1,
													"fontsize" : 9.0,
													"outlettype" : [ "int" ],
													"id" : "obj-2",
													"fontname" : "Arial",
													"numinlets" : 2,
													"patching_rect" : [ 50.0, 100.0, 27.0, 17.0 ]
												}

											}
, 											{
												"box" : 												{
													"maxclass" : "newobj",
													"text" : "t b i",
													"numoutlets" : 2,
													"fontsize" : 9.0,
													"outlettype" : [ "bang", "int" ],
													"id" : "obj-3",
													"fontname" : "Arial",
													"numinlets" : 1,
													"patching_rect" : [ 50.0, 60.0, 27.0, 17.0 ]
												}

											}
, 											{
												"box" : 												{
													"maxclass" : "newobj",
													"text" : "sprintf script new encode newex 252 153 209 196617 ambiencode~ %ld %ld;\r",
													"numoutlets" : 1,
													"fontsize" : 9.0,
													"outlettype" : [ "" ],
													"id" : "obj-4",
													"fontname" : "Arial",
													"numinlets" : 2,
													"patching_rect" : [ 146.0, 328.0, 363.0, 17.0 ]
												}

											}
, 											{
												"box" : 												{
													"maxclass" : "inlet",
													"numoutlets" : 1,
													"outlettype" : [ "int" ],
													"id" : "obj-5",
													"numinlets" : 0,
													"patching_rect" : [ 50.0, 30.0, 15.0, 15.0 ],
													"comment" : ""
												}

											}
, 											{
												"box" : 												{
													"maxclass" : "outlet",
													"numoutlets" : 0,
													"id" : "obj-6",
													"numinlets" : 1,
													"patching_rect" : [ 77.0, 337.0, 15.0, 15.0 ],
													"comment" : ""
												}

											}
 ],
										"lines" : [ 											{
												"patchline" : 												{
													"source" : [ "obj-9", 0 ],
													"destination" : [ "obj-8", 0 ],
													"hidden" : 0,
													"midpoints" : [  ]
												}

											}
, 											{
												"patchline" : 												{
													"source" : [ "obj-2", 0 ],
													"destination" : [ "obj-9", 0 ],
													"hidden" : 0,
													"midpoints" : [  ]
												}

											}
, 											{
												"patchline" : 												{
													"source" : [ "obj-3", 1 ],
													"destination" : [ "obj-7", 0 ],
													"hidden" : 0,
													"midpoints" : [ 67.5, 86.0, 380.5, 86.0 ]
												}

											}
, 											{
												"patchline" : 												{
													"source" : [ "obj-7", 0 ],
													"destination" : [ "obj-8", 0 ],
													"hidden" : 0,
													"midpoints" : [  ]
												}

											}
, 											{
												"patchline" : 												{
													"source" : [ "obj-8", 0 ],
													"destination" : [ "obj-6", 0 ],
													"hidden" : 0,
													"midpoints" : [  ]
												}

											}
, 											{
												"patchline" : 												{
													"source" : [ "obj-1", 0 ],
													"destination" : [ "obj-2", 1 ],
													"hidden" : 0,
													"midpoints" : [  ]
												}

											}
, 											{
												"patchline" : 												{
													"source" : [ "obj-3", 0 ],
													"destination" : [ "obj-2", 0 ],
													"hidden" : 0,
													"midpoints" : [  ]
												}

											}
, 											{
												"patchline" : 												{
													"source" : [ "obj-5", 0 ],
													"destination" : [ "obj-3", 0 ],
													"hidden" : 0,
													"midpoints" : [  ]
												}

											}
 ]
									}
,
									"saved_object_attributes" : 									{
										"fontface" : 0,
										"fontsize" : 10.0,
										"default_fontface" : 0,
										"default_fontname" : "Arial",
										"fontname" : "Arial",
										"default_fontsize" : 10.0,
										"globalpatchername" : ""
									}

								}

							}
, 							{
								"box" : 								{
									"maxclass" : "newobj",
									"text" : "p delete_encode",
									"numoutlets" : 1,
									"fontsize" : 9.0,
									"outlettype" : [ "" ],
									"id" : "obj-11",
									"fontname" : "Arial",
									"numinlets" : 1,
									"patching_rect" : [ 479.0, 361.0, 81.0, 17.0 ],
									"patcher" : 									{
										"fileversion" : 1,
										"rect" : [ 44.0, 74.0, 600.0, 426.0 ],
										"bglocked" : 0,
										"defrect" : [ 44.0, 74.0, 600.0, 426.0 ],
										"openrect" : [ 0.0, 0.0, 0.0, 0.0 ],
										"openinpresentation" : 0,
										"default_fontsize" : 10.0,
										"default_fontface" : 0,
										"default_fontname" : "Arial",
										"gridonopen" : 0,
										"gridsize" : [ 15.0, 15.0 ],
										"gridsnaponopen" : 0,
										"toolbarvisible" : 1,
										"boxanimatetime" : 200,
										"imprint" : 0,
										"metadata" : [  ],
										"boxes" : [ 											{
												"box" : 												{
													"maxclass" : "message",
													"text" : "script delete encode",
													"numoutlets" : 1,
													"fontsize" : 9.0,
													"outlettype" : [ "" ],
													"id" : "obj-1",
													"fontname" : "Arial",
													"numinlets" : 2,
													"patching_rect" : [ 50.0, 50.0, 100.0, 15.0 ]
												}

											}
, 											{
												"box" : 												{
													"maxclass" : "inlet",
													"numoutlets" : 1,
													"outlettype" : [ "bang" ],
													"id" : "obj-2",
													"numinlets" : 0,
													"patching_rect" : [ 50.0, 30.0, 15.0, 15.0 ],
													"comment" : ""
												}

											}
, 											{
												"box" : 												{
													"maxclass" : "outlet",
													"numoutlets" : 0,
													"id" : "obj-3",
													"numinlets" : 1,
													"patching_rect" : [ 50.0, 70.0, 15.0, 15.0 ],
													"comment" : ""
												}

											}
 ],
										"lines" : [ 											{
												"patchline" : 												{
													"source" : [ "obj-1", 0 ],
													"destination" : [ "obj-3", 0 ],
													"hidden" : 0,
													"midpoints" : [  ]
												}

											}
, 											{
												"patchline" : 												{
													"source" : [ "obj-2", 0 ],
													"destination" : [ "obj-1", 0 ],
													"hidden" : 0,
													"midpoints" : [  ]
												}

											}
 ]
									}
,
									"saved_object_attributes" : 									{
										"fontface" : 0,
										"fontsize" : 10.0,
										"default_fontface" : 0,
										"default_fontname" : "Arial",
										"fontname" : "Arial",
										"default_fontsize" : 10.0,
										"globalpatchername" : ""
									}

								}

							}
, 							{
								"box" : 								{
									"maxclass" : "newobj",
									"text" : "p delete_pass",
									"numoutlets" : 1,
									"fontsize" : 9.0,
									"outlettype" : [ "" ],
									"id" : "obj-12",
									"fontname" : "Arial",
									"numinlets" : 2,
									"patching_rect" : [ 667.0, 361.0, 71.0, 17.0 ],
									"patcher" : 									{
										"fileversion" : 1,
										"rect" : [ 44.0, 74.0, 600.0, 426.0 ],
										"bglocked" : 0,
										"defrect" : [ 44.0, 74.0, 600.0, 426.0 ],
										"openrect" : [ 0.0, 0.0, 0.0, 0.0 ],
										"openinpresentation" : 0,
										"default_fontsize" : 10.0,
										"default_fontface" : 0,
										"default_fontname" : "Arial",
										"gridonopen" : 0,
										"gridsize" : [ 15.0, 15.0 ],
										"gridsnaponopen" : 0,
										"toolbarvisible" : 1,
										"boxanimatetime" : 200,
										"imprint" : 0,
										"metadata" : [  ],
										"boxes" : [ 											{
												"box" : 												{
													"maxclass" : "newobj",
													"text" : "prepend script delete",
													"numoutlets" : 1,
													"fontsize" : 10.0,
													"outlettype" : [ "" ],
													"id" : "obj-11",
													"fontname" : "Arial",
													"numinlets" : 1,
													"patching_rect" : [ 9.0, 283.0, 104.0, 18.0 ]
												}

											}
, 											{
												"box" : 												{
													"maxclass" : "newobj",
													"text" : "combine pass[ 2 ] @triggers 1",
													"numoutlets" : 2,
													"fontsize" : 10.0,
													"outlettype" : [ "", "" ],
													"id" : "obj-10",
													"fontname" : "Arial",
													"numinlets" : 3,
													"patching_rect" : [ 9.0, 263.0, 143.0, 18.0 ]
												}

											}
, 											{
												"box" : 												{
													"maxclass" : "newobj",
													"text" : "i 16",
													"numoutlets" : 1,
													"fontsize" : 9.0,
													"outlettype" : [ "int" ],
													"id" : "obj-1",
													"fontname" : "Arial",
													"numinlets" : 2,
													"patching_rect" : [ 50.0, 129.0, 27.0, 17.0 ]
												}

											}
, 											{
												"box" : 												{
													"maxclass" : "newobj",
													"text" : "coll",
													"numoutlets" : 4,
													"fontsize" : 9.0,
													"outlettype" : [ "", "", "", "" ],
													"id" : "obj-2",
													"fontname" : "Arial",
													"numinlets" : 1,
													"patching_rect" : [ 228.0, 62.0, 53.0, 17.0 ],
													"save" : [ "#N", "coll", ";", "#T", "flags", 1, 0, ";", "#T", 1, 4, ";", "#T", 2, 9, ";", "#T", 3, 16, ";" ],
													"saved_object_attributes" : 													{
														"embed" : 1
													}

												}

											}
, 											{
												"box" : 												{
													"maxclass" : "inlet",
													"numoutlets" : 1,
													"outlettype" : [ "int" ],
													"id" : "obj-3",
													"numinlets" : 0,
													"patching_rect" : [ 228.0, 34.0, 15.0, 15.0 ],
													"comment" : ""
												}

											}
, 											{
												"box" : 												{
													"maxclass" : "newobj",
													"text" : "t i b",
													"numoutlets" : 2,
													"fontsize" : 9.0,
													"outlettype" : [ "int", "bang" ],
													"id" : "obj-4",
													"fontname" : "Arial",
													"numinlets" : 1,
													"patching_rect" : [ 50.0, 167.0, 27.0, 17.0 ]
												}

											}
, 											{
												"box" : 												{
													"maxclass" : "newobj",
													"text" : "sprintf script delete pass[%ld]",
													"numoutlets" : 1,
													"fontsize" : 9.0,
													"outlettype" : [ "" ],
													"id" : "obj-5",
													"fontname" : "Arial",
													"numinlets" : 1,
													"patching_rect" : [ 215.0, 308.0, 149.0, 17.0 ]
												}

											}
, 											{
												"box" : 												{
													"maxclass" : "newobj",
													"text" : "uzi",
													"numoutlets" : 3,
													"fontsize" : 9.0,
													"outlettype" : [ "bang", "bang", "int" ],
													"id" : "obj-6",
													"fontname" : "Arial",
													"numinlets" : 2,
													"patching_rect" : [ 50.0, 235.0, 40.0, 17.0 ]
												}

											}
, 											{
												"box" : 												{
													"maxclass" : "newobj",
													"text" : "i 16",
													"numoutlets" : 1,
													"fontsize" : 9.0,
													"outlettype" : [ "int" ],
													"id" : "obj-7",
													"fontname" : "Arial",
													"numinlets" : 2,
													"patching_rect" : [ 50.0, 200.0, 27.0, 17.0 ]
												}

											}
, 											{
												"box" : 												{
													"maxclass" : "inlet",
													"numoutlets" : 1,
													"outlettype" : [ "bang" ],
													"id" : "obj-8",
													"numinlets" : 0,
													"patching_rect" : [ 50.0, 30.0, 15.0, 15.0 ],
													"comment" : ""
												}

											}
, 											{
												"box" : 												{
													"maxclass" : "outlet",
													"numoutlets" : 0,
													"id" : "obj-9",
													"numinlets" : 1,
													"patching_rect" : [ 62.0, 330.0, 15.0, 15.0 ],
													"comment" : ""
												}

											}
 ],
										"lines" : [ 											{
												"patchline" : 												{
													"source" : [ "obj-11", 0 ],
													"destination" : [ "obj-9", 0 ],
													"hidden" : 0,
													"midpoints" : [  ]
												}

											}
, 											{
												"patchline" : 												{
													"source" : [ "obj-10", 0 ],
													"destination" : [ "obj-11", 0 ],
													"hidden" : 0,
													"midpoints" : [  ]
												}

											}
, 											{
												"patchline" : 												{
													"source" : [ "obj-6", 2 ],
													"destination" : [ "obj-10", 1 ],
													"hidden" : 0,
													"midpoints" : [  ]
												}

											}
, 											{
												"patchline" : 												{
													"source" : [ "obj-3", 0 ],
													"destination" : [ "obj-2", 0 ],
													"hidden" : 0,
													"midpoints" : [  ]
												}

											}
, 											{
												"patchline" : 												{
													"source" : [ "obj-4", 0 ],
													"destination" : [ "obj-7", 1 ],
													"hidden" : 0,
													"midpoints" : [  ]
												}

											}
, 											{
												"patchline" : 												{
													"source" : [ "obj-2", 0 ],
													"destination" : [ "obj-1", 1 ],
													"hidden" : 0,
													"midpoints" : [  ]
												}

											}
, 											{
												"patchline" : 												{
													"source" : [ "obj-7", 0 ],
													"destination" : [ "obj-6", 0 ],
													"hidden" : 0,
													"midpoints" : [  ]
												}

											}
, 											{
												"patchline" : 												{
													"source" : [ "obj-4", 1 ],
													"destination" : [ "obj-7", 0 ],
													"hidden" : 0,
													"midpoints" : [  ]
												}

											}
, 											{
												"patchline" : 												{
													"source" : [ "obj-1", 0 ],
													"destination" : [ "obj-4", 0 ],
													"hidden" : 0,
													"midpoints" : [  ]
												}

											}
, 											{
												"patchline" : 												{
													"source" : [ "obj-8", 0 ],
													"destination" : [ "obj-1", 0 ],
													"hidden" : 0,
													"midpoints" : [  ]
												}

											}
 ]
									}
,
									"saved_object_attributes" : 									{
										"fontface" : 0,
										"fontsize" : 10.0,
										"default_fontface" : 0,
										"default_fontname" : "Arial",
										"fontname" : "Arial",
										"default_fontsize" : 10.0,
										"globalpatchername" : ""
									}

								}

							}
, 							{
								"box" : 								{
									"maxclass" : "newobj",
									"text" : "p new_pass",
									"numoutlets" : 1,
									"fontsize" : 9.0,
									"outlettype" : [ "" ],
									"id" : "obj-13",
									"fontname" : "Arial",
									"numinlets" : 2,
									"patching_rect" : [ 585.0, 361.0, 62.0, 17.0 ],
									"patcher" : 									{
										"fileversion" : 1,
										"rect" : [ 44.0, 74.0, 802.0, 463.0 ],
										"bglocked" : 0,
										"defrect" : [ 44.0, 74.0, 802.0, 463.0 ],
										"openrect" : [ 0.0, 0.0, 0.0, 0.0 ],
										"openinpresentation" : 0,
										"default_fontsize" : 10.0,
										"default_fontface" : 0,
										"default_fontname" : "Arial",
										"gridonopen" : 0,
										"gridsize" : [ 15.0, 15.0 ],
										"gridsnaponopen" : 0,
										"toolbarvisible" : 1,
										"boxanimatetime" : 200,
										"imprint" : 0,
										"metadata" : [  ],
										"boxes" : [ 											{
												"box" : 												{
													"maxclass" : "newobj",
													"text" : "prepend script new",
													"numoutlets" : 1,
													"fontsize" : 10.0,
													"outlettype" : [ "" ],
													"id" : "obj-17",
													"fontname" : "Arial",
													"numinlets" : 1,
													"patching_rect" : [ 178.0, 243.0, 95.0, 18.0 ]
												}

											}
, 											{
												"box" : 												{
													"maxclass" : "newobj",
													"text" : "append",
													"numoutlets" : 1,
													"fontsize" : 10.0,
													"outlettype" : [ "" ],
													"id" : "obj-16",
													"fontname" : "Arial",
													"numinlets" : 1,
													"patching_rect" : [ 216.0, 353.0, 44.0, 18.0 ]
												}

											}
, 											{
												"box" : 												{
													"maxclass" : "newobj",
													"text" : "prepend set",
													"numoutlets" : 1,
													"fontsize" : 10.0,
													"outlettype" : [ "" ],
													"id" : "obj-15",
													"fontname" : "Arial",
													"numinlets" : 1,
													"patching_rect" : [ 506.0, 267.0, 63.0, 18.0 ]
												}

											}
, 											{
												"box" : 												{
													"maxclass" : "newobj",
													"text" : "prepend newex",
													"numoutlets" : 1,
													"fontsize" : 10.0,
													"outlettype" : [ "" ],
													"id" : "obj-14",
													"fontname" : "Arial",
													"numinlets" : 1,
													"patching_rect" : [ 506.0, 245.0, 79.0, 18.0 ]
												}

											}
, 											{
												"box" : 												{
													"maxclass" : "newobj",
													"text" : "combine pass[ 2 ] @triggers 1",
													"numoutlets" : 2,
													"fontsize" : 10.0,
													"outlettype" : [ "", "" ],
													"id" : "obj-13",
													"fontname" : "Arial",
													"numinlets" : 3,
													"patching_rect" : [ 178.0, 213.0, 143.0, 18.0 ]
												}

											}
, 											{
												"box" : 												{
													"maxclass" : "newobj",
													"text" : "append 230 36 196617 pass~",
													"numoutlets" : 1,
													"fontsize" : 10.0,
													"outlettype" : [ "" ],
													"id" : "obj-12",
													"fontname" : "Arial",
													"numinlets" : 1,
													"patching_rect" : [ 506.0, 225.0, 143.0, 18.0 ]
												}

											}
, 											{
												"box" : 												{
													"maxclass" : "newobj",
													"text" : "+ 252",
													"numoutlets" : 1,
													"fontsize" : 10.0,
													"outlettype" : [ "int" ],
													"id" : "obj-11",
													"fontname" : "Arial",
													"numinlets" : 2,
													"patching_rect" : [ 506.0, 204.0, 36.0, 18.0 ]
												}

											}
, 											{
												"box" : 												{
													"maxclass" : "newobj",
													"text" : "* 38",
													"numoutlets" : 1,
													"fontsize" : 10.0,
													"outlettype" : [ "int" ],
													"id" : "obj-10",
													"fontname" : "Arial",
													"numinlets" : 2,
													"patching_rect" : [ 506.0, 182.0, 32.5, 18.0 ]
												}

											}
, 											{
												"box" : 												{
													"maxclass" : "newobj",
													"text" : "- 1",
													"numoutlets" : 1,
													"fontsize" : 10.0,
													"outlettype" : [ "int" ],
													"id" : "obj-9",
													"fontname" : "Arial",
													"numinlets" : 2,
													"patching_rect" : [ 506.0, 160.0, 32.5, 18.0 ]
												}

											}
, 											{
												"box" : 												{
													"maxclass" : "newobj",
													"text" : "coll",
													"numoutlets" : 4,
													"fontsize" : 9.0,
													"outlettype" : [ "", "", "", "" ],
													"id" : "obj-1",
													"fontname" : "Arial",
													"numinlets" : 1,
													"patching_rect" : [ 397.0, 62.0, 53.0, 17.0 ],
													"save" : [ "#N", "coll", ";", "#T", "flags", 1, 0, ";", "#T", 1, 4, ";", "#T", 2, 9, ";", "#T", 3, 16, ";" ],
													"saved_object_attributes" : 													{
														"embed" : 1
													}

												}

											}
, 											{
												"box" : 												{
													"maxclass" : "newobj",
													"text" : "i 16",
													"numoutlets" : 1,
													"fontsize" : 9.0,
													"outlettype" : [ "int" ],
													"id" : "obj-2",
													"fontname" : "Arial",
													"numinlets" : 2,
													"patching_rect" : [ 50.0, 123.0, 27.0, 17.0 ]
												}

											}
, 											{
												"box" : 												{
													"maxclass" : "inlet",
													"numoutlets" : 1,
													"outlettype" : [ "int" ],
													"id" : "obj-3",
													"numinlets" : 0,
													"patching_rect" : [ 397.0, 23.0, 15.0, 15.0 ],
													"comment" : ""
												}

											}
, 											{
												"box" : 												{
													"maxclass" : "newobj",
													"text" : "uzi",
													"numoutlets" : 3,
													"fontsize" : 9.0,
													"outlettype" : [ "bang", "bang", "int" ],
													"id" : "obj-4",
													"fontname" : "Arial",
													"numinlets" : 2,
													"patching_rect" : [ 50.0, 151.0, 40.0, 17.0 ]
												}

											}
, 											{
												"box" : 												{
													"maxclass" : "newobj",
													"text" : "sprintf script new pass[%ld] newex %ld 230 36 196617 pass~",
													"numoutlets" : 1,
													"fontsize" : 9.0,
													"outlettype" : [ "" ],
													"id" : "obj-6",
													"fontname" : "Arial",
													"numinlets" : 2,
													"patching_rect" : [ 292.0, 361.0, 296.0, 17.0 ]
												}

											}
, 											{
												"box" : 												{
													"maxclass" : "inlet",
													"numoutlets" : 1,
													"outlettype" : [ "bang" ],
													"id" : "obj-7",
													"numinlets" : 0,
													"patching_rect" : [ 50.0, 23.0, 15.0, 15.0 ],
													"comment" : ""
												}

											}
, 											{
												"box" : 												{
													"maxclass" : "outlet",
													"numoutlets" : 0,
													"id" : "obj-8",
													"numinlets" : 1,
													"patching_rect" : [ 216.0, 379.0, 15.0, 15.0 ],
													"comment" : ""
												}

											}
 ],
										"lines" : [ 											{
												"patchline" : 												{
													"source" : [ "obj-17", 0 ],
													"destination" : [ "obj-16", 0 ],
													"hidden" : 0,
													"midpoints" : [  ]
												}

											}
, 											{
												"patchline" : 												{
													"source" : [ "obj-13", 0 ],
													"destination" : [ "obj-17", 0 ],
													"hidden" : 0,
													"midpoints" : [  ]
												}

											}
, 											{
												"patchline" : 												{
													"source" : [ "obj-16", 0 ],
													"destination" : [ "obj-8", 0 ],
													"hidden" : 0,
													"midpoints" : [  ]
												}

											}
, 											{
												"patchline" : 												{
													"source" : [ "obj-15", 0 ],
													"destination" : [ "obj-16", 0 ],
													"hidden" : 0,
													"midpoints" : [  ]
												}

											}
, 											{
												"patchline" : 												{
													"source" : [ "obj-14", 0 ],
													"destination" : [ "obj-15", 0 ],
													"hidden" : 0,
													"midpoints" : [  ]
												}

											}
, 											{
												"patchline" : 												{
													"source" : [ "obj-12", 0 ],
													"destination" : [ "obj-14", 0 ],
													"hidden" : 0,
													"midpoints" : [  ]
												}

											}
, 											{
												"patchline" : 												{
													"source" : [ "obj-4", 2 ],
													"destination" : [ "obj-13", 1 ],
													"hidden" : 0,
													"midpoints" : [  ]
												}

											}
, 											{
												"patchline" : 												{
													"source" : [ "obj-11", 0 ],
													"destination" : [ "obj-12", 0 ],
													"hidden" : 0,
													"midpoints" : [  ]
												}

											}
, 											{
												"patchline" : 												{
													"source" : [ "obj-4", 2 ],
													"destination" : [ "obj-9", 0 ],
													"hidden" : 0,
													"midpoints" : [  ]
												}

											}
, 											{
												"patchline" : 												{
													"source" : [ "obj-10", 0 ],
													"destination" : [ "obj-11", 0 ],
													"hidden" : 0,
													"midpoints" : [  ]
												}

											}
, 											{
												"patchline" : 												{
													"source" : [ "obj-9", 0 ],
													"destination" : [ "obj-10", 0 ],
													"hidden" : 0,
													"midpoints" : [  ]
												}

											}
, 											{
												"patchline" : 												{
													"source" : [ "obj-3", 0 ],
													"destination" : [ "obj-1", 0 ],
													"hidden" : 0,
													"midpoints" : [  ]
												}

											}
, 											{
												"patchline" : 												{
													"source" : [ "obj-1", 0 ],
													"destination" : [ "obj-2", 1 ],
													"hidden" : 0,
													"midpoints" : [  ]
												}

											}
, 											{
												"patchline" : 												{
													"source" : [ "obj-2", 0 ],
													"destination" : [ "obj-4", 0 ],
													"hidden" : 0,
													"midpoints" : [  ]
												}

											}
, 											{
												"patchline" : 												{
													"source" : [ "obj-7", 0 ],
													"destination" : [ "obj-2", 0 ],
													"hidden" : 0,
													"midpoints" : [  ]
												}

											}
 ]
									}
,
									"saved_object_attributes" : 									{
										"fontface" : 0,
										"fontsize" : 10.0,
										"default_fontface" : 0,
										"default_fontname" : "Arial",
										"fontname" : "Arial",
										"default_fontsize" : 10.0,
										"globalpatchername" : ""
									}

								}

							}
, 							{
								"box" : 								{
									"maxclass" : "newobj",
									"text" : "loadbang",
									"numoutlets" : 1,
									"fontsize" : 9.0,
									"outlettype" : [ "bang" ],
									"id" : "obj-14",
									"fontname" : "Arial",
									"numinlets" : 1,
									"patching_rect" : [ 30.0, 41.0, 48.0, 17.0 ]
								}

							}
, 							{
								"box" : 								{
									"maxclass" : "newobj",
									"text" : "== 0",
									"numoutlets" : 1,
									"fontsize" : 9.0,
									"outlettype" : [ "int" ],
									"id" : "obj-15",
									"fontname" : "Arial",
									"numinlets" : 2,
									"patching_rect" : [ 88.0, 102.0, 31.0, 17.0 ]
								}

							}
, 							{
								"box" : 								{
									"maxclass" : "outlet",
									"numoutlets" : 0,
									"id" : "obj-16",
									"numinlets" : 1,
									"patching_rect" : [ 147.0, 406.0, 15.0, 15.0 ],
									"comment" : ""
								}

							}
, 							{
								"box" : 								{
									"maxclass" : "newobj",
									"text" : "t b i i b b b",
									"numoutlets" : 6,
									"fontsize" : 9.0,
									"outlettype" : [ "bang", "int", "int", "bang", "bang", "bang" ],
									"id" : "obj-17",
									"fontname" : "Arial",
									"numinlets" : 1,
									"patching_rect" : [ 147.0, 327.0, 533.0, 17.0 ]
								}

							}
, 							{
								"box" : 								{
									"maxclass" : "inlet",
									"numoutlets" : 1,
									"outlettype" : [ "" ],
									"id" : "obj-18",
									"numinlets" : 0,
									"patching_rect" : [ 166.0, 44.0, 15.0, 15.0 ],
									"comment" : ""
								}

							}
, 							{
								"box" : 								{
									"maxclass" : "newobj",
									"text" : "i 3",
									"numoutlets" : 1,
									"fontsize" : 9.0,
									"outlettype" : [ "int" ],
									"id" : "obj-19",
									"fontname" : "Arial",
									"numinlets" : 2,
									"patching_rect" : [ 166.0, 166.0, 27.0, 17.0 ]
								}

							}
, 							{
								"box" : 								{
									"maxclass" : "newobj",
									"text" : "gate",
									"numoutlets" : 1,
									"fontsize" : 9.0,
									"outlettype" : [ "" ],
									"id" : "obj-20",
									"fontname" : "Arial",
									"numinlets" : 2,
									"patching_rect" : [ 147.0, 187.0, 29.0, 17.0 ]
								}

							}
, 							{
								"box" : 								{
									"maxclass" : "newobj",
									"text" : "sel 0",
									"numoutlets" : 2,
									"fontsize" : 9.0,
									"outlettype" : [ "bang", "" ],
									"id" : "obj-21",
									"fontname" : "Arial",
									"numinlets" : 2,
									"patching_rect" : [ 30.0, 102.0, 32.0, 17.0 ]
								}

							}
, 							{
								"box" : 								{
									"maxclass" : "newobj",
									"text" : "dspstate~",
									"numoutlets" : 4,
									"fontsize" : 9.0,
									"outlettype" : [ "int", "float", "int", "int" ],
									"id" : "obj-22",
									"fontname" : "Arial",
									"numinlets" : 1,
									"patching_rect" : [ 30.0, 69.0, 54.0, 17.0 ]
								}

							}
, 							{
								"box" : 								{
									"maxclass" : "comment",
									"text" : "voices",
									"numoutlets" : 0,
									"fontsize" : 9.0,
									"id" : "obj-23",
									"fontname" : "Arial",
									"numinlets" : 1,
									"patching_rect" : [ 188.0, 44.0, 100.0, 17.0 ]
								}

							}
 ],
						"lines" : [ 							{
								"patchline" : 								{
									"source" : [ "obj-3", 1 ],
									"destination" : [ "obj-12", 1 ],
									"hidden" : 0,
									"midpoints" : [ 195.5, 317.0, 728.5, 317.0 ]
								}

							}
, 							{
								"patchline" : 								{
									"source" : [ "obj-17", 5 ],
									"destination" : [ "obj-12", 0 ],
									"hidden" : 0,
									"midpoints" : [  ]
								}

							}
, 							{
								"patchline" : 								{
									"source" : [ "obj-3", 1 ],
									"destination" : [ "obj-13", 1 ],
									"hidden" : 0,
									"midpoints" : [ 195.5, 317.0, 637.5, 317.0 ]
								}

							}
, 							{
								"patchline" : 								{
									"source" : [ "obj-17", 4 ],
									"destination" : [ "obj-13", 0 ],
									"hidden" : 0,
									"midpoints" : [  ]
								}

							}
, 							{
								"patchline" : 								{
									"source" : [ "obj-17", 3 ],
									"destination" : [ "obj-11", 0 ],
									"hidden" : 0,
									"midpoints" : [  ]
								}

							}
, 							{
								"patchline" : 								{
									"source" : [ "obj-3", 1 ],
									"destination" : [ "obj-10", 1 ],
									"hidden" : 0,
									"midpoints" : [ 195.5, 317.0, 443.5, 317.0 ]
								}

							}
, 							{
								"patchline" : 								{
									"source" : [ "obj-6", 0 ],
									"destination" : [ "obj-5", 0 ],
									"hidden" : 0,
									"midpoints" : [  ]
								}

							}
, 							{
								"patchline" : 								{
									"source" : [ "obj-17", 2 ],
									"destination" : [ "obj-10", 0 ],
									"hidden" : 0,
									"midpoints" : [  ]
								}

							}
, 							{
								"patchline" : 								{
									"source" : [ "obj-3", 1 ],
									"destination" : [ "obj-4", 3 ],
									"hidden" : 0,
									"midpoints" : [ 195.5, 280.0, 341.0, 280.0, 341.0, 225.0, 312.5, 225.0 ]
								}

							}
, 							{
								"patchline" : 								{
									"source" : [ "obj-17", 1 ],
									"destination" : [ "obj-9", 0 ],
									"hidden" : 0,
									"midpoints" : [  ]
								}

							}
, 							{
								"patchline" : 								{
									"source" : [ "obj-3", 0 ],
									"destination" : [ "obj-4", 2 ],
									"hidden" : 0,
									"midpoints" : [ 156.5, 283.0, 344.0, 283.0, 344.0, 222.0, 260.5, 222.0 ]
								}

							}
, 							{
								"patchline" : 								{
									"source" : [ "obj-3", 1 ],
									"destination" : [ "obj-8", 1 ],
									"hidden" : 0,
									"midpoints" : [ 195.5, 317.0, 253.5, 317.0 ]
								}

							}
, 							{
								"patchline" : 								{
									"source" : [ "obj-5", 1 ],
									"destination" : [ "obj-4", 1 ],
									"hidden" : 0,
									"midpoints" : [  ]
								}

							}
, 							{
								"patchline" : 								{
									"source" : [ "obj-19", 0 ],
									"destination" : [ "obj-20", 1 ],
									"hidden" : 0,
									"midpoints" : [  ]
								}

							}
, 							{
								"patchline" : 								{
									"source" : [ "obj-21", 0 ],
									"destination" : [ "obj-19", 0 ],
									"hidden" : 0,
									"midpoints" : [ 39.5, 131.0, 175.5, 131.0 ]
								}

							}
, 							{
								"patchline" : 								{
									"source" : [ "obj-5", 0 ],
									"destination" : [ "obj-19", 0 ],
									"hidden" : 0,
									"midpoints" : [  ]
								}

							}
, 							{
								"patchline" : 								{
									"source" : [ "obj-18", 0 ],
									"destination" : [ "obj-19", 0 ],
									"hidden" : 0,
									"midpoints" : [  ]
								}

							}
, 							{
								"patchline" : 								{
									"source" : [ "obj-8", 0 ],
									"destination" : [ "obj-16", 0 ],
									"hidden" : 0,
									"midpoints" : [  ]
								}

							}
, 							{
								"patchline" : 								{
									"source" : [ "obj-9", 0 ],
									"destination" : [ "obj-16", 0 ],
									"hidden" : 0,
									"midpoints" : [ 280.5, 392.0, 156.0, 392.0 ]
								}

							}
, 							{
								"patchline" : 								{
									"source" : [ "obj-10", 0 ],
									"destination" : [ "obj-16", 0 ],
									"hidden" : 0,
									"midpoints" : [ 390.5, 392.0, 156.0, 392.0 ]
								}

							}
, 							{
								"patchline" : 								{
									"source" : [ "obj-11", 0 ],
									"destination" : [ "obj-16", 0 ],
									"hidden" : 0,
									"midpoints" : [ 488.5, 392.0, 156.0, 392.0 ]
								}

							}
, 							{
								"patchline" : 								{
									"source" : [ "obj-12", 0 ],
									"destination" : [ "obj-16", 0 ],
									"hidden" : 0,
									"midpoints" : [ 676.5, 392.0, 156.0, 392.0 ]
								}

							}
, 							{
								"patchline" : 								{
									"source" : [ "obj-13", 0 ],
									"destination" : [ "obj-16", 0 ],
									"hidden" : 0,
									"midpoints" : [ 594.5, 392.0, 156.0, 392.0 ]
								}

							}
, 							{
								"patchline" : 								{
									"source" : [ "obj-17", 0 ],
									"destination" : [ "obj-8", 0 ],
									"hidden" : 0,
									"midpoints" : [  ]
								}

							}
, 							{
								"patchline" : 								{
									"source" : [ "obj-3", 0 ],
									"destination" : [ "obj-17", 0 ],
									"hidden" : 0,
									"midpoints" : [  ]
								}

							}
, 							{
								"patchline" : 								{
									"source" : [ "obj-4", 0 ],
									"destination" : [ "obj-3", 0 ],
									"hidden" : 0,
									"midpoints" : [  ]
								}

							}
, 							{
								"patchline" : 								{
									"source" : [ "obj-20", 0 ],
									"destination" : [ "obj-4", 0 ],
									"hidden" : 0,
									"midpoints" : [  ]
								}

							}
, 							{
								"patchline" : 								{
									"source" : [ "obj-15", 0 ],
									"destination" : [ "obj-20", 0 ],
									"hidden" : 0,
									"midpoints" : [  ]
								}

							}
, 							{
								"patchline" : 								{
									"source" : [ "obj-22", 0 ],
									"destination" : [ "obj-15", 0 ],
									"hidden" : 0,
									"midpoints" : [ 39.5, 92.0, 97.5, 92.0 ]
								}

							}
, 							{
								"patchline" : 								{
									"source" : [ "obj-22", 0 ],
									"destination" : [ "obj-21", 0 ],
									"hidden" : 0,
									"midpoints" : [  ]
								}

							}
, 							{
								"patchline" : 								{
									"source" : [ "obj-14", 0 ],
									"destination" : [ "obj-22", 0 ],
									"hidden" : 0,
									"midpoints" : [  ]
								}

							}
 ]
					}
,
					"saved_object_attributes" : 					{
						"fontface" : 0,
						"fontsize" : 10.0,
						"default_fontface" : 0,
						"default_fontname" : "Arial",
						"fontname" : "Arial",
						"default_fontsize" : 10.0,
						"globalpatchername" : ""
					}

				}

			}
, 			{
				"box" : 				{
					"maxclass" : "newobj",
					"text" : "thispatcher",
					"numoutlets" : 2,
					"fontsize" : 9.0,
					"outlettype" : [ "", "" ],
					"id" : "obj-6",
					"fontname" : "Arial",
					"numinlets" : 1,
					"patching_rect" : [ 43.0, 159.0, 61.0, 17.0 ],
					"save" : [ "#N", "thispatcher", ";", "#Q", "end", ";" ]
				}

			}
, 			{
				"box" : 				{
					"maxclass" : "outlet",
					"varname" : "out[1]",
					"numoutlets" : 0,
					"id" : "obj-7",
					"numinlets" : 1,
					"patching_rect" : [ 252.0, 346.0, 15.0, 15.0 ],
					"comment" : ""
				}

			}
, 			{
				"box" : 				{
					"maxclass" : "inlet",
					"varname" : "in[1]",
					"numoutlets" : 1,
					"outlettype" : [ "" ],
					"id" : "obj-8",
					"numinlets" : 0,
					"patching_rect" : [ 252.0, 47.0, 15.0, 15.0 ],
					"comment" : "W - omni"
				}

			}
, 			{
				"box" : 				{
					"maxclass" : "newobj",
					"text" : "jcom.oscroute /voices /order",
					"numoutlets" : 3,
					"fontsize" : 9.0,
					"outlettype" : [ "", "", "" ],
					"id" : "obj-9",
					"fontname" : "Arial",
					"numinlets" : 1,
					"patching_rect" : [ 43.0, 96.0, 146.0, 17.0 ]
				}

			}
, 			{
				"box" : 				{
					"maxclass" : "newobj",
					"varname" : "pass[1]",
					"text" : "pass~",
					"numoutlets" : 1,
					"fontsize" : 9.0,
					"outlettype" : [ "signal" ],
					"id" : "obj-27",
					"fontname" : "Geneva",
					"numinlets" : 1,
					"patching_rect" : [ 252.0, 230.0, 36.0, 19.0 ]
				}

			}
, 			{
				"box" : 				{
					"maxclass" : "newobj",
					"varname" : "pass[2]",
					"text" : "pass~",
					"numoutlets" : 1,
					"fontsize" : 9.0,
					"outlettype" : [ "signal" ],
					"id" : "obj-28",
					"fontname" : "Geneva",
					"numinlets" : 1,
					"patching_rect" : [ 290.0, 230.0, 36.0, 19.0 ]
				}

			}
, 			{
				"box" : 				{
					"maxclass" : "newobj",
					"varname" : "pass[3]",
					"text" : "pass~",
					"numoutlets" : 1,
					"fontsize" : 9.0,
					"outlettype" : [ "signal" ],
					"id" : "obj-29",
					"fontname" : "Geneva",
					"numinlets" : 1,
					"patching_rect" : [ 328.0, 230.0, 36.0, 19.0 ]
				}

			}
, 			{
				"box" : 				{
					"maxclass" : "newobj",
					"varname" : "pass[4]",
					"text" : "pass~",
					"numoutlets" : 1,
					"fontsize" : 9.0,
					"outlettype" : [ "signal" ],
					"id" : "obj-30",
					"fontname" : "Geneva",
					"numinlets" : 1,
					"patching_rect" : [ 366.0, 230.0, 36.0, 19.0 ]
				}

			}
, 			{
				"box" : 				{
					"maxclass" : "newobj",
					"varname" : "pass[5]",
					"text" : "pass~",
					"numoutlets" : 1,
					"fontsize" : 9.0,
					"outlettype" : [ "signal" ],
					"id" : "obj-31",
					"fontname" : "Geneva",
					"numinlets" : 1,
					"patching_rect" : [ 404.0, 230.0, 36.0, 19.0 ]
				}

			}
, 			{
				"box" : 				{
					"maxclass" : "newobj",
					"varname" : "pass[6]",
					"text" : "pass~",
					"numoutlets" : 1,
					"fontsize" : 9.0,
					"outlettype" : [ "signal" ],
					"id" : "obj-32",
					"fontname" : "Geneva",
					"numinlets" : 1,
					"patching_rect" : [ 442.0, 230.0, 36.0, 19.0 ]
				}

			}
, 			{
				"box" : 				{
					"maxclass" : "newobj",
					"varname" : "pass[7]",
					"text" : "pass~",
					"numoutlets" : 1,
					"fontsize" : 9.0,
					"outlettype" : [ "signal" ],
					"id" : "obj-33",
					"fontname" : "Geneva",
					"numinlets" : 1,
					"patching_rect" : [ 480.0, 230.0, 36.0, 19.0 ]
				}

			}
, 			{
				"box" : 				{
					"maxclass" : "newobj",
					"varname" : "pass[8]",
					"text" : "pass~",
					"numoutlets" : 1,
					"fontsize" : 9.0,
					"outlettype" : [ "signal" ],
					"id" : "obj-34",
					"fontname" : "Geneva",
					"numinlets" : 1,
					"patching_rect" : [ 518.0, 230.0, 36.0, 19.0 ]
				}

			}
, 			{
				"box" : 				{
					"maxclass" : "newobj",
					"varname" : "pass[9]",
					"text" : "pass~",
					"numoutlets" : 1,
					"fontsize" : 9.0,
					"outlettype" : [ "signal" ],
					"id" : "obj-35",
					"fontname" : "Geneva",
					"numinlets" : 1,
					"patching_rect" : [ 556.0, 230.0, 36.0, 19.0 ]
				}

			}
, 			{
				"box" : 				{
					"maxclass" : "newobj",
					"varname" : "pass[10]",
					"text" : "pass~",
					"numoutlets" : 1,
					"fontsize" : 9.0,
					"outlettype" : [ "signal" ],
					"id" : "obj-36",
					"fontname" : "Geneva",
					"numinlets" : 1,
					"patching_rect" : [ 594.0, 230.0, 36.0, 19.0 ]
				}

			}
, 			{
				"box" : 				{
					"maxclass" : "newobj",
					"varname" : "pass[11]",
					"text" : "pass~",
					"numoutlets" : 1,
					"fontsize" : 9.0,
					"outlettype" : [ "signal" ],
					"id" : "obj-37",
					"fontname" : "Geneva",
					"numinlets" : 1,
					"patching_rect" : [ 632.0, 230.0, 36.0, 19.0 ]
				}

			}
, 			{
				"box" : 				{
					"maxclass" : "newobj",
					"varname" : "pass[12]",
					"text" : "pass~",
					"numoutlets" : 1,
					"fontsize" : 9.0,
					"outlettype" : [ "signal" ],
					"id" : "obj-38",
					"fontname" : "Geneva",
					"numinlets" : 1,
					"patching_rect" : [ 670.0, 230.0, 36.0, 19.0 ]
				}

			}
, 			{
				"box" : 				{
					"maxclass" : "newobj",
					"varname" : "pass[13]",
					"text" : "pass~",
					"numoutlets" : 1,
					"fontsize" : 9.0,
					"outlettype" : [ "signal" ],
					"id" : "obj-39",
					"fontname" : "Geneva",
					"numinlets" : 1,
					"patching_rect" : [ 708.0, 230.0, 36.0, 19.0 ]
				}

			}
, 			{
				"box" : 				{
					"maxclass" : "newobj",
					"varname" : "pass[14]",
					"text" : "pass~",
					"numoutlets" : 1,
					"fontsize" : 9.0,
					"outlettype" : [ "signal" ],
					"id" : "obj-40",
					"fontname" : "Geneva",
					"numinlets" : 1,
					"patching_rect" : [ 746.0, 230.0, 36.0, 19.0 ]
				}

			}
, 			{
				"box" : 				{
					"maxclass" : "newobj",
					"varname" : "pass[15]",
					"text" : "pass~",
					"numoutlets" : 1,
					"fontsize" : 9.0,
					"outlettype" : [ "signal" ],
					"id" : "obj-41",
					"fontname" : "Geneva",
					"numinlets" : 1,
					"patching_rect" : [ 784.0, 230.0, 36.0, 19.0 ]
				}

			}
, 			{
				"box" : 				{
					"maxclass" : "newobj",
					"varname" : "pass[16]",
					"text" : "pass~",
					"numoutlets" : 1,
					"fontsize" : 9.0,
					"outlettype" : [ "signal" ],
					"id" : "obj-42",
					"fontname" : "Geneva",
					"numinlets" : 1,
					"patching_rect" : [ 822.0, 230.0, 36.0, 19.0 ]
				}

			}
, 			{
				"box" : 				{
					"maxclass" : "newobj",
					"varname" : "encode",
					"text" : "ambiencode~ 0 3",
					"numoutlets" : 16,
					"fontsize" : 9.0,
					"outlettype" : [ "signal", "signal", "signal", "signal", "signal", "signal", "signal", "signal", "signal", "signal", "signal", "signal", "signal", "signal", "signal", "signal" ],
					"id" : "obj-43",
					"fontname" : "Geneva",
					"numinlets" : 3,
					"patching_rect" : [ 252.0, 153.0, 209.0, 19.0 ]
				}

			}
 ],
		"lines" : [ 			{
				"patchline" : 				{
					"source" : [ "obj-43", 8 ],
					"destination" : [ "obj-35", 0 ],
					"hidden" : 0,
					"midpoints" : [  ]
				}

			}
, 			{
				"patchline" : 				{
					"source" : [ "obj-42", 0 ],
					"destination" : [ "obj-2", 15 ],
					"hidden" : 0,
					"midpoints" : [  ]
				}

			}
, 			{
				"patchline" : 				{
					"source" : [ "obj-43", 15 ],
					"destination" : [ "obj-42", 0 ],
					"hidden" : 0,
					"midpoints" : [  ]
				}

			}
, 			{
				"patchline" : 				{
					"source" : [ "obj-41", 0 ],
					"destination" : [ "obj-2", 14 ],
					"hidden" : 0,
					"midpoints" : [  ]
				}

			}
, 			{
				"patchline" : 				{
					"source" : [ "obj-43", 14 ],
					"destination" : [ "obj-41", 0 ],
					"hidden" : 0,
					"midpoints" : [  ]
				}

			}
, 			{
				"patchline" : 				{
					"source" : [ "obj-40", 0 ],
					"destination" : [ "obj-2", 13 ],
					"hidden" : 0,
					"midpoints" : [  ]
				}

			}
, 			{
				"patchline" : 				{
					"source" : [ "obj-43", 13 ],
					"destination" : [ "obj-40", 0 ],
					"hidden" : 0,
					"midpoints" : [  ]
				}

			}
, 			{
				"patchline" : 				{
					"source" : [ "obj-39", 0 ],
					"destination" : [ "obj-2", 12 ],
					"hidden" : 0,
					"midpoints" : [  ]
				}

			}
, 			{
				"patchline" : 				{
					"source" : [ "obj-43", 12 ],
					"destination" : [ "obj-39", 0 ],
					"hidden" : 0,
					"midpoints" : [  ]
				}

			}
, 			{
				"patchline" : 				{
					"source" : [ "obj-38", 0 ],
					"destination" : [ "obj-2", 11 ],
					"hidden" : 0,
					"midpoints" : [  ]
				}

			}
, 			{
				"patchline" : 				{
					"source" : [ "obj-43", 11 ],
					"destination" : [ "obj-38", 0 ],
					"hidden" : 0,
					"midpoints" : [  ]
				}

			}
, 			{
				"patchline" : 				{
					"source" : [ "obj-37", 0 ],
					"destination" : [ "obj-2", 10 ],
					"hidden" : 0,
					"midpoints" : [  ]
				}

			}
, 			{
				"patchline" : 				{
					"source" : [ "obj-43", 10 ],
					"destination" : [ "obj-37", 0 ],
					"hidden" : 0,
					"midpoints" : [  ]
				}

			}
, 			{
				"patchline" : 				{
					"source" : [ "obj-36", 0 ],
					"destination" : [ "obj-2", 9 ],
					"hidden" : 0,
					"midpoints" : [  ]
				}

			}
, 			{
				"patchline" : 				{
					"source" : [ "obj-43", 9 ],
					"destination" : [ "obj-36", 0 ],
					"hidden" : 0,
					"midpoints" : [  ]
				}

			}
, 			{
				"patchline" : 				{
					"source" : [ "obj-35", 0 ],
					"destination" : [ "obj-2", 8 ],
					"hidden" : 0,
					"midpoints" : [  ]
				}

			}
, 			{
				"patchline" : 				{
					"source" : [ "obj-34", 0 ],
					"destination" : [ "obj-2", 7 ],
					"hidden" : 0,
					"midpoints" : [  ]
				}

			}
, 			{
				"patchline" : 				{
					"source" : [ "obj-43", 7 ],
					"destination" : [ "obj-34", 0 ],
					"hidden" : 0,
					"midpoints" : [  ]
				}

			}
, 			{
				"patchline" : 				{
					"source" : [ "obj-33", 0 ],
					"destination" : [ "obj-2", 6 ],
					"hidden" : 0,
					"midpoints" : [  ]
				}

			}
, 			{
				"patchline" : 				{
					"source" : [ "obj-43", 6 ],
					"destination" : [ "obj-33", 0 ],
					"hidden" : 0,
					"midpoints" : [  ]
				}

			}
, 			{
				"patchline" : 				{
					"source" : [ "obj-32", 0 ],
					"destination" : [ "obj-2", 5 ],
					"hidden" : 0,
					"midpoints" : [  ]
				}

			}
, 			{
				"patchline" : 				{
					"source" : [ "obj-43", 5 ],
					"destination" : [ "obj-32", 0 ],
					"hidden" : 0,
					"midpoints" : [  ]
				}

			}
, 			{
				"patchline" : 				{
					"source" : [ "obj-31", 0 ],
					"destination" : [ "obj-2", 4 ],
					"hidden" : 0,
					"midpoints" : [  ]
				}

			}
, 			{
				"patchline" : 				{
					"source" : [ "obj-43", 4 ],
					"destination" : [ "obj-31", 0 ],
					"hidden" : 0,
					"midpoints" : [  ]
				}

			}
, 			{
				"patchline" : 				{
					"source" : [ "obj-30", 0 ],
					"destination" : [ "obj-2", 3 ],
					"hidden" : 0,
					"midpoints" : [  ]
				}

			}
, 			{
				"patchline" : 				{
					"source" : [ "obj-43", 3 ],
					"destination" : [ "obj-30", 0 ],
					"hidden" : 0,
					"midpoints" : [  ]
				}

			}
, 			{
				"patchline" : 				{
					"source" : [ "obj-29", 0 ],
					"destination" : [ "obj-2", 2 ],
					"hidden" : 0,
					"midpoints" : [  ]
				}

			}
, 			{
				"patchline" : 				{
					"source" : [ "obj-43", 2 ],
					"destination" : [ "obj-29", 0 ],
					"hidden" : 0,
					"midpoints" : [  ]
				}

			}
, 			{
				"patchline" : 				{
					"source" : [ "obj-28", 0 ],
					"destination" : [ "obj-2", 1 ],
					"hidden" : 0,
					"midpoints" : [  ]
				}

			}
, 			{
				"patchline" : 				{
					"source" : [ "obj-43", 1 ],
					"destination" : [ "obj-28", 0 ],
					"hidden" : 0,
					"midpoints" : [  ]
				}

			}
, 			{
				"patchline" : 				{
					"source" : [ "obj-27", 0 ],
					"destination" : [ "obj-2", 0 ],
					"hidden" : 0,
					"midpoints" : [  ]
				}

			}
, 			{
				"patchline" : 				{
					"source" : [ "obj-43", 0 ],
					"destination" : [ "obj-27", 0 ],
					"hidden" : 0,
					"midpoints" : [  ]
				}

			}
, 			{
				"patchline" : 				{
					"source" : [ "obj-3", 0 ],
					"destination" : [ "obj-43", 0 ],
					"hidden" : 0,
					"midpoints" : [  ]
				}

			}
, 			{
				"patchline" : 				{
					"source" : [ "obj-1", 2 ],
					"destination" : [ "obj-43", 2 ],
					"hidden" : 0,
					"midpoints" : [  ]
				}

			}
, 			{
				"patchline" : 				{
					"source" : [ "obj-1", 1 ],
					"destination" : [ "obj-43", 1 ],
					"hidden" : 0,
					"midpoints" : [  ]
				}

			}
, 			{
				"patchline" : 				{
					"source" : [ "obj-1", 0 ],
					"destination" : [ "obj-43", 0 ],
					"hidden" : 0,
					"midpoints" : [  ]
				}

			}
, 			{
				"patchline" : 				{
					"source" : [ "obj-2", 0 ],
					"destination" : [ "obj-7", 0 ],
					"hidden" : 0,
					"midpoints" : [  ]
				}

			}
, 			{
				"patchline" : 				{
					"source" : [ "obj-8", 0 ],
					"destination" : [ "obj-1", 0 ],
					"hidden" : 0,
					"midpoints" : [  ]
				}

			}
, 			{
				"patchline" : 				{
					"source" : [ "obj-9", 2 ],
					"destination" : [ "obj-3", 0 ],
					"hidden" : 0,
					"midpoints" : [  ]
				}

			}
, 			{
				"patchline" : 				{
					"source" : [ "obj-9", 1 ],
					"destination" : [ "obj-5", 1 ],
					"hidden" : 0,
					"midpoints" : [  ]
				}

			}
, 			{
				"patchline" : 				{
					"source" : [ "obj-5", 0 ],
					"destination" : [ "obj-6", 0 ],
					"hidden" : 0,
					"midpoints" : [  ]
				}

			}
, 			{
				"patchline" : 				{
					"source" : [ "obj-9", 0 ],
					"destination" : [ "obj-5", 0 ],
					"hidden" : 0,
					"midpoints" : [  ]
				}

			}
, 			{
				"patchline" : 				{
					"source" : [ "obj-4", 0 ],
					"destination" : [ "obj-9", 0 ],
					"hidden" : 0,
					"midpoints" : [  ]
				}

			}
 ]
	}

}
