{
	"patcher" : 	{
		"fileversion" : 1,
		"rect" : [ 227.0, 44.0, 879.0, 524.0 ],
		"bglocked" : 0,
		"defrect" : [ 227.0, 44.0, 879.0, 524.0 ],
		"openrect" : [ 0.0, 0.0, 0.0, 0.0 ],
		"openinpresentation" : 1,
		"default_fontsize" : 10.0,
		"default_fontface" : 0,
		"default_fontname" : "Arial",
		"gridonopen" : 0,
		"gridsize" : [ 15.0, 15.0 ],
		"gridsnaponopen" : 0,
		"toolbarvisible" : 1,
		"boxanimatetime" : 200,
		"imprint" : 0,
		"metadata" : [  ],
		"boxes" : [ 			{
				"box" : 				{
					"maxclass" : "flonum",
					"numoutlets" : 2,
					"presentation" : 1,
					"fontsize" : 10.0,
					"outlettype" : [ "float", "bang" ],
					"triangle" : 0,
					"presentation_rect" : [ 196.0, 39.0, 50.0, 18.0 ],
					"id" : "obj-39",
					"fontname" : "Arial",
					"numinlets" : 1,
					"patching_rect" : [ 396.0, 271.0, 50.0, 18.0 ]
				}

			}
, 			{
				"box" : 				{
					"maxclass" : "flonum",
					"numoutlets" : 2,
					"presentation" : 1,
					"fontsize" : 10.0,
					"outlettype" : [ "float", "bang" ],
					"triangle" : 0,
					"presentation_rect" : [ 196.0, 20.0, 50.0, 18.0 ],
					"id" : "obj-38",
					"fontname" : "Arial",
					"numinlets" : 1,
					"patching_rect" : [ 382.0, 205.0, 50.0, 18.0 ]
				}

			}
, 			{
				"box" : 				{
					"maxclass" : "number",
					"numoutlets" : 2,
					"presentation" : 1,
					"fontsize" : 10.0,
					"outlettype" : [ "int", "bang" ],
					"triangle" : 0,
					"presentation_rect" : [ 51.0, 39.0, 22.0, 18.0 ],
					"id" : "obj-37",
					"fontname" : "Arial",
					"numinlets" : 1,
					"patching_rect" : [ 426.0, 131.0, 22.0, 18.0 ]
				}

			}
, 			{
				"box" : 				{
					"maxclass" : "number",
					"numoutlets" : 2,
					"presentation" : 1,
					"fontsize" : 10.0,
					"outlettype" : [ "int", "bang" ],
					"triangle" : 0,
					"presentation_rect" : [ 51.0, 20.0, 22.0, 18.0 ],
					"id" : "obj-36",
					"fontname" : "Arial",
					"numinlets" : 1,
					"patching_rect" : [ 412.0, 62.0, 22.0, 18.0 ]
				}

			}
, 			{
				"box" : 				{
					"maxclass" : "newobj",
					"text" : "jcom.in",
					"numoutlets" : 2,
					"fontsize" : 9.0,
					"outlettype" : [ "", "" ],
					"hidden" : 1,
					"id" : "obj-1",
					"fontname" : "Arial",
					"numinlets" : 1,
					"patching_rect" : [ 152.0, 194.0, 43.0, 17.0 ]
				}

			}
, 			{
				"box" : 				{
					"maxclass" : "newobj",
					"varname" : "center_radius",
					"text" : "jcom.parameter center_radius @repetitions/allow 0 @type msg_float @range/bounds 0.01 5. @range/clipmode low @description \"The radius (in meters) of the center circle where spatial information collapse to an omni signal as distance approaches zero.\"",
					"linecount" : 3,
					"numoutlets" : 3,
					"fontsize" : 9.0,
					"outlettype" : [ "", "", "" ],
					"hidden" : 1,
					"id" : "obj-2",
					"fontname" : "Arial",
					"numinlets" : 1,
					"patching_rect" : [ 462.0, 264.0, 381.0, 38.0 ]
				}

			}
, 			{
				"box" : 				{
					"maxclass" : "comment",
					"text" : "center radius",
					"numoutlets" : 0,
					"presentation" : 1,
					"fontsize" : 9.0,
					"textcolor" : [ 0.67451, 0.67451, 0.67451, 1.0 ],
					"frgb" : [ 0.67451, 0.67451, 0.67451, 1.0 ],
					"presentation_rect" : [ 123.0, 40.0, 70.0, 17.0 ],
					"id" : "obj-5",
					"fontname" : "Arial",
					"numinlets" : 1,
					"patching_rect" : [ 123.0, 40.0, 70.0, 17.0 ]
				}

			}
, 			{
				"box" : 				{
					"maxclass" : "inlet",
					"numoutlets" : 1,
					"outlettype" : [ "" ],
					"hidden" : 1,
					"id" : "obj-6",
					"numinlets" : 0,
					"patching_rect" : [ 407.0, 322.0, 15.0, 15.0 ],
					"comment" : ""
				}

			}
, 			{
				"box" : 				{
					"maxclass" : "newobj",
					"text" : "jcom.message aed @type msg_list",
					"numoutlets" : 3,
					"fontsize" : 9.0,
					"outlettype" : [ "", "", "" ],
					"hidden" : 1,
					"id" : "obj-8",
					"fontname" : "Arial",
					"numinlets" : 1,
					"patching_rect" : [ 462.0, 340.0, 213.0, 17.0 ]
				}

			}
, 			{
				"box" : 				{
					"maxclass" : "newobj",
					"varname" : "db_drop_off",
					"text" : "jcom.parameter db_drop_off @repetitions/allow 0 @type msg_float @range/bounds 0 60 @range/clipmode both @description \"db drop off per meter.\"",
					"linecount" : 2,
					"numoutlets" : 3,
					"fontsize" : 9.0,
					"outlettype" : [ "", "", "" ],
					"hidden" : 1,
					"id" : "obj-10",
					"fontname" : "Arial",
					"numinlets" : 1,
					"patching_rect" : [ 462.0, 191.0, 337.0, 27.0 ]
				}

			}
, 			{
				"box" : 				{
					"maxclass" : "newobj",
					"varname" : "order",
					"text" : "jcom.parameter order @repetitions/allow 0 @type msg_int @range/bounds 1 16 @range/clipmode both @description \"Order of encoding.\"",
					"linecount" : 2,
					"numoutlets" : 3,
					"fontsize" : 9.0,
					"outlettype" : [ "", "", "" ],
					"hidden" : 1,
					"id" : "obj-12",
					"fontname" : "Arial",
					"numinlets" : 1,
					"patching_rect" : [ 462.0, 123.0, 298.0, 27.0 ]
				}

			}
, 			{
				"box" : 				{
					"maxclass" : "newobj",
					"text" : "jcom.pass open",
					"numoutlets" : 2,
					"fontsize" : 9.0,
					"outlettype" : [ "", "" ],
					"hidden" : 1,
					"id" : "obj-13",
					"fontname" : "Arial",
					"numinlets" : 1,
					"patching_rect" : [ 152.0, 215.0, 78.0, 17.0 ]
				}

			}
, 			{
				"box" : 				{
					"maxclass" : "newobj",
					"text" : "pcontrol",
					"numoutlets" : 1,
					"fontsize" : 9.0,
					"outlettype" : [ "" ],
					"hidden" : 1,
					"id" : "obj-14",
					"fontname" : "Arial",
					"numinlets" : 1,
					"patching_rect" : [ 152.0, 237.0, 47.0, 17.0 ]
				}

			}
, 			{
				"box" : 				{
					"maxclass" : "newobj",
					"text" : "route /mute",
					"numoutlets" : 2,
					"fontsize" : 9.0,
					"outlettype" : [ "", "" ],
					"hidden" : 1,
					"id" : "obj-16",
					"fontname" : "Arial",
					"numinlets" : 1,
					"patching_rect" : [ 220.0, 277.0, 56.0, 17.0 ]
				}

			}
, 			{
				"box" : 				{
					"maxclass" : "newobj",
					"text" : "mute~",
					"numoutlets" : 1,
					"fontsize" : 9.0,
					"outlettype" : [ "" ],
					"hidden" : 1,
					"id" : "obj-17",
					"fontname" : "Arial",
					"numinlets" : 1,
					"patching_rect" : [ 220.0, 320.0, 38.0, 17.0 ]
				}

			}
, 			{
				"box" : 				{
					"maxclass" : "outlet",
					"numoutlets" : 0,
					"hidden" : 1,
					"id" : "obj-18",
					"numinlets" : 1,
					"patching_rect" : [ 280.0, 403.0, 13.0, 13.0 ],
					"comment" : "W - omni"
				}

			}
, 			{
				"box" : 				{
					"maxclass" : "newobj",
					"text" : "jalg.sur.ambi.encodeM~",
					"numoutlets" : 1,
					"fontsize" : 9.0,
					"outlettype" : [ "" ],
					"hidden" : 1,
					"id" : "obj-19",
					"fontname" : "Arial",
					"numinlets" : 2,
					"patching_rect" : [ 280.0, 362.0, 137.0, 17.0 ]
				}

			}
, 			{
				"box" : 				{
					"maxclass" : "comment",
					"text" : "Order",
					"numoutlets" : 0,
					"presentation" : 1,
					"fontsize" : 9.0,
					"textcolor" : [ 0.67451, 0.67451, 0.67451, 1.0 ],
					"frgb" : [ 0.67451, 0.67451, 0.67451, 1.0 ],
					"presentation_rect" : [ 4.0, 39.0, 44.0, 17.0 ],
					"id" : "obj-21",
					"fontname" : "Arial",
					"numinlets" : 1,
					"patching_rect" : [ 4.0, 39.0, 44.0, 17.0 ]
				}

			}
, 			{
				"box" : 				{
					"maxclass" : "comment",
					"text" : "db drop off",
					"numoutlets" : 0,
					"presentation" : 1,
					"fontsize" : 9.0,
					"textcolor" : [ 0.67451, 0.67451, 0.67451, 1.0 ],
					"frgb" : [ 0.67451, 0.67451, 0.67451, 1.0 ],
					"presentation_rect" : [ 123.0, 21.0, 59.0, 17.0 ],
					"id" : "obj-23",
					"fontname" : "Arial",
					"numinlets" : 1,
					"patching_rect" : [ 123.0, 21.0, 59.0, 17.0 ]
				}

			}
, 			{
				"box" : 				{
					"maxclass" : "message",
					"text" : "/documentation/generate",
					"numoutlets" : 1,
					"fontsize" : 9.0,
					"outlettype" : [ "" ],
					"hidden" : 1,
					"id" : "obj-24",
					"fontname" : "Arial",
					"numinlets" : 2,
					"patching_rect" : [ 36.0, 123.0, 125.0, 15.0 ]
				}

			}
, 			{
				"box" : 				{
					"maxclass" : "comment",
					"text" : "Voices",
					"numoutlets" : 0,
					"presentation" : 1,
					"fontsize" : 9.0,
					"textcolor" : [ 0.67451, 0.67451, 0.67451, 1.0 ],
					"frgb" : [ 0.67451, 0.67451, 0.67451, 1.0 ],
					"presentation_rect" : [ 4.0, 20.0, 44.0, 17.0 ],
					"id" : "obj-27",
					"fontname" : "Arial",
					"numinlets" : 1,
					"patching_rect" : [ 4.0, 20.0, 44.0, 17.0 ]
				}

			}
, 			{
				"box" : 				{
					"maxclass" : "newobj",
					"varname" : "jcom.hub",
					"text" : "jcom.hub jmod.sur.ambi.encodeM~ @description \"Ambisonic encoding of mono signals.\"",
					"numoutlets" : 2,
					"fontsize" : 9.0,
					"outlettype" : [ "", "" ],
					"hidden" : 1,
					"id" : "obj-30",
					"fontname" : "Arial",
					"numinlets" : 1,
					"patching_rect" : [ 14.0, 148.0, 363.0, 17.0 ]
				}

			}
, 			{
				"box" : 				{
					"maxclass" : "inlet",
					"numoutlets" : 1,
					"outlettype" : [ "" ],
					"hidden" : 1,
					"id" : "obj-31",
					"numinlets" : 0,
					"patching_rect" : [ 14.0, 124.0, 13.0, 13.0 ],
					"comment" : ""
				}

			}
, 			{
				"box" : 				{
					"maxclass" : "outlet",
					"numoutlets" : 0,
					"hidden" : 1,
					"id" : "obj-32",
					"numinlets" : 1,
					"patching_rect" : [ 14.0, 350.0, 13.0, 13.0 ],
					"comment" : ""
				}

			}
, 			{
				"box" : 				{
					"maxclass" : "newobj",
					"varname" : "voices",
					"text" : "jcom.parameter voices @repetitions/allow 0 @type msg_int @range/bounds 1 16 @range/clipmode both @description \"Number of mono sources to encode.\"",
					"linecount" : 2,
					"numoutlets" : 3,
					"fontsize" : 9.0,
					"outlettype" : [ "", "", "" ],
					"hidden" : 1,
					"id" : "obj-33",
					"fontname" : "Arial",
					"numinlets" : 1,
					"patching_rect" : [ 462.0, 56.0, 313.0, 27.0 ]
				}

			}
, 			{
				"box" : 				{
					"maxclass" : "jcom.ui",
					"text" : "/editing_this_module",
					"numoutlets" : 1,
					"presentation" : 1,
					"outlettype" : [ "" ],
					"presentation_rect" : [ 0.0, 0.0, 300.0, 70.0 ],
					"id" : "obj-34",
					"numinlets" : 1
				}

			}
 ],
		"lines" : [ 			{
				"patchline" : 				{
					"source" : [ "obj-16", 0 ],
					"destination" : [ "obj-17", 0 ],
					"hidden" : 1,
					"midpoints" : [  ]
				}

			}
, 			{
				"patchline" : 				{
					"source" : [ "obj-16", 1 ],
					"destination" : [ "obj-19", 0 ],
					"hidden" : 1,
					"midpoints" : [  ]
				}

			}
, 			{
				"patchline" : 				{
					"source" : [ "obj-13", 1 ],
					"destination" : [ "obj-16", 0 ],
					"hidden" : 1,
					"midpoints" : [  ]
				}

			}
, 			{
				"patchline" : 				{
					"source" : [ "obj-2", 0 ],
					"destination" : [ "obj-39", 0 ],
					"hidden" : 0,
					"midpoints" : [  ]
				}

			}
, 			{
				"patchline" : 				{
					"source" : [ "obj-39", 0 ],
					"destination" : [ "obj-2", 0 ],
					"hidden" : 0,
					"midpoints" : [  ]
				}

			}
, 			{
				"patchline" : 				{
					"source" : [ "obj-10", 0 ],
					"destination" : [ "obj-38", 0 ],
					"hidden" : 0,
					"midpoints" : [  ]
				}

			}
, 			{
				"patchline" : 				{
					"source" : [ "obj-38", 0 ],
					"destination" : [ "obj-10", 0 ],
					"hidden" : 0,
					"midpoints" : [  ]
				}

			}
, 			{
				"patchline" : 				{
					"source" : [ "obj-12", 0 ],
					"destination" : [ "obj-37", 0 ],
					"hidden" : 0,
					"midpoints" : [  ]
				}

			}
, 			{
				"patchline" : 				{
					"source" : [ "obj-37", 0 ],
					"destination" : [ "obj-12", 0 ],
					"hidden" : 0,
					"midpoints" : [  ]
				}

			}
, 			{
				"patchline" : 				{
					"source" : [ "obj-33", 0 ],
					"destination" : [ "obj-36", 0 ],
					"hidden" : 0,
					"midpoints" : [  ]
				}

			}
, 			{
				"patchline" : 				{
					"source" : [ "obj-36", 0 ],
					"destination" : [ "obj-33", 0 ],
					"hidden" : 0,
					"midpoints" : [  ]
				}

			}
, 			{
				"patchline" : 				{
					"source" : [ "obj-30", 0 ],
					"destination" : [ "obj-32", 0 ],
					"hidden" : 1,
					"midpoints" : [  ]
				}

			}
, 			{
				"patchline" : 				{
					"source" : [ "obj-24", 0 ],
					"destination" : [ "obj-30", 0 ],
					"hidden" : 1,
					"midpoints" : [ 45.5, 142.0, 23.5, 142.0 ]
				}

			}
, 			{
				"patchline" : 				{
					"source" : [ "obj-31", 0 ],
					"destination" : [ "obj-30", 0 ],
					"hidden" : 1,
					"midpoints" : [  ]
				}

			}
, 			{
				"patchline" : 				{
					"source" : [ "obj-1", 0 ],
					"destination" : [ "obj-13", 0 ],
					"hidden" : 1,
					"midpoints" : [  ]
				}

			}
, 			{
				"patchline" : 				{
					"source" : [ "obj-13", 0 ],
					"destination" : [ "obj-14", 0 ],
					"hidden" : 1,
					"midpoints" : [  ]
				}

			}
, 			{
				"patchline" : 				{
					"source" : [ "obj-17", 0 ],
					"destination" : [ "obj-19", 0 ],
					"hidden" : 1,
					"midpoints" : [  ]
				}

			}
, 			{
				"patchline" : 				{
					"source" : [ "obj-14", 0 ],
					"destination" : [ "obj-19", 0 ],
					"hidden" : 1,
					"midpoints" : [ 161.5, 259.0, 289.5, 259.0 ]
				}

			}
, 			{
				"patchline" : 				{
					"source" : [ "obj-19", 0 ],
					"destination" : [ "obj-18", 0 ],
					"hidden" : 1,
					"midpoints" : [  ]
				}

			}
, 			{
				"patchline" : 				{
					"source" : [ "obj-6", 0 ],
					"destination" : [ "obj-19", 1 ],
					"hidden" : 1,
					"midpoints" : [  ]
				}

			}
 ]
	}

}
