{
	"patcher" : 	{
		"fileversion" : 1,
		"rect" : [ 376.0, 431.0, 959.0, 447.0 ],
		"bglocked" : 0,
		"defrect" : [ 376.0, 431.0, 959.0, 447.0 ],
		"openrect" : [ 0.0, 0.0, 0.0, 0.0 ],
		"openinpresentation" : 1,
		"default_fontsize" : 10.970939,
		"default_fontface" : 0,
		"default_fontname" : "Verdana",
		"gridonopen" : 0,
		"gridsize" : [ 5.0, 5.0 ],
		"gridsnaponopen" : 0,
		"toolbarvisible" : 1,
		"boxanimatetime" : 200,
		"imprint" : 0,
		"metadata" : [  ],
		"boxes" : [ 			{
				"box" : 				{
					"maxclass" : "newobj",
					"text" : "loadbang",
					"fontname" : "Verdana",
					"numinlets" : 1,
					"fontsize" : 9.873845,
					"patching_rect" : [ 524.0, 26.0, 54.0, 18.0 ],
					"numoutlets" : 1,
					"id" : "obj-2",
					"outlettype" : [ "bang" ]
				}

			}
, 			{
				"box" : 				{
					"maxclass" : "umenu",
					"varname" : "MIDIIN",
					"fontname" : "Verdana",
					"presentation_rect" : [ 5.0, 42.0, 139.0, 19.0 ],
					"numinlets" : 1,
					"labelclick" : 1,
					"items" : [ "to MaxMSP 1", ",", "to MaxMSP 2" ],
					"fontsize" : 10.0,
					"patching_rect" : [ 495.0, 73.0, 129.0, 19.0 ],
					"presentation" : 1,
					"numoutlets" : 3,
					"types" : [  ],
					"id" : "obj-3",
					"outlettype" : [ "int", "", "" ]
				}

			}
, 			{
				"box" : 				{
					"maxclass" : "newobj",
					"text" : "midiinfo",
					"fontname" : "Verdana",
					"numinlets" : 2,
					"fontsize" : 9.873845,
					"patching_rect" : [ 495.0, 48.0, 48.0, 18.0 ],
					"numoutlets" : 1,
					"id" : "obj-4",
					"outlettype" : [ "" ]
				}

			}
, 			{
				"box" : 				{
					"maxclass" : "comment",
					"text" : "MIDI in:",
					"fontname" : "Verdana",
					"presentation_rect" : [ 1.0, 25.0, 65.0, 19.0 ],
					"frgb" : [ 0.658824, 0.658824, 0.658824, 1.0 ],
					"numinlets" : 1,
					"fontsize" : 10.0,
					"patching_rect" : [ 11.0, 28.0, 65.0, 19.0 ],
					"presentation" : 1,
					"numoutlets" : 0,
					"id" : "obj-5"
				}

			}
, 			{
				"box" : 				{
					"maxclass" : "newobj",
					"varname" : "midi_in",
					"text" : "jcom.parameter midi_in @priority 0 @description \"Port to receive MIDI messages on.\"",
					"linecount" : 2,
					"fontname" : "Verdana",
					"numinlets" : 1,
					"fontsize" : 9.873845,
					"patching_rect" : [ 495.0, 98.0, 257.0, 30.0 ],
					"numoutlets" : 3,
					"id" : "obj-6",
					"outlettype" : [ "", "", "" ]
				}

			}
, 			{
				"box" : 				{
					"maxclass" : "newobj",
					"text" : "pcontrol",
					"fontname" : "Verdana",
					"numinlets" : 1,
					"fontsize" : 9.873845,
					"patching_rect" : [ 45.0, 239.0, 49.0, 18.0 ],
					"numoutlets" : 1,
					"id" : "obj-7",
					"outlettype" : [ "" ]
				}

			}
, 			{
				"box" : 				{
					"maxclass" : "newobj",
					"text" : "t open",
					"fontname" : "Verdana",
					"numinlets" : 1,
					"fontsize" : 9.873845,
					"patching_rect" : [ 45.0, 215.0, 40.0, 18.0 ],
					"numoutlets" : 1,
					"id" : "obj-8",
					"outlettype" : [ "open" ]
				}

			}
, 			{
				"box" : 				{
					"maxclass" : "newobj",
					"text" : "jcom.oscroute /open_inspector",
					"fontname" : "Verdana",
					"numinlets" : 1,
					"fontsize" : 9.873845,
					"patching_rect" : [ 45.0, 191.0, 163.0, 18.0 ],
					"numoutlets" : 2,
					"id" : "obj-9",
					"outlettype" : [ "", "" ]
				}

			}
, 			{
				"box" : 				{
					"maxclass" : "newobj",
					"varname" : "inspector",
					"text" : "p inspector",
					"fontname" : "Verdana",
					"numinlets" : 1,
					"fontsize" : 9.873845,
					"patching_rect" : [ 45.0, 263.0, 64.0, 18.0 ],
					"numoutlets" : 0,
					"id" : "obj-10",
					"patcher" : 					{
						"fileversion" : 1,
						"rect" : [ 66.0, 151.0, 234.0, 377.0 ],
						"bglocked" : 0,
						"defrect" : [ 66.0, 151.0, 234.0, 377.0 ],
						"openrect" : [ 0.0, 0.0, 0.0, 0.0 ],
						"openinpresentation" : 0,
						"default_fontsize" : 10.0,
						"default_fontface" : 0,
						"default_fontname" : "Verdana",
						"gridonopen" : 0,
						"gridsize" : [ 5.0, 5.0 ],
						"gridsnaponopen" : 0,
						"toolbarvisible" : 1,
						"boxanimatetime" : 200,
						"imprint" : 0,
						"metadata" : [  ],
						"boxes" : [ 							{
								"box" : 								{
									"maxclass" : "newobj",
									"text" : "pvar Emotion",
									"fontname" : "Verdana",
									"hidden" : 1,
									"numinlets" : 1,
									"fontsize" : 9.873845,
									"patching_rect" : [ 206.0, 295.0, 75.0, 18.0 ],
									"numoutlets" : 1,
									"id" : "obj-1",
									"outlettype" : [ "" ]
								}

							}
, 							{
								"box" : 								{
									"maxclass" : "newobj",
									"text" : "pvar Performance",
									"fontname" : "Verdana",
									"hidden" : 1,
									"numinlets" : 1,
									"fontsize" : 9.873845,
									"patching_rect" : [ 206.0, 255.0, 97.0, 18.0 ],
									"numoutlets" : 1,
									"id" : "obj-2",
									"outlettype" : [ "" ]
								}

							}
, 							{
								"box" : 								{
									"maxclass" : "newobj",
									"text" : "pvar Environment",
									"fontname" : "Verdana",
									"hidden" : 1,
									"numinlets" : 1,
									"fontsize" : 9.873845,
									"patching_rect" : [ 206.0, 215.0, 97.0, 18.0 ],
									"numoutlets" : 1,
									"id" : "obj-3",
									"outlettype" : [ "" ]
								}

							}
, 							{
								"box" : 								{
									"maxclass" : "newobj",
									"text" : "pvar Device",
									"fontname" : "Verdana",
									"hidden" : 1,
									"numinlets" : 1,
									"fontsize" : 9.873845,
									"patching_rect" : [ 206.0, 175.0, 67.0, 18.0 ],
									"numoutlets" : 1,
									"id" : "obj-4",
									"outlettype" : [ "" ]
								}

							}
, 							{
								"box" : 								{
									"maxclass" : "newobj",
									"text" : "pvar Body",
									"fontname" : "Verdana",
									"hidden" : 1,
									"numinlets" : 1,
									"fontsize" : 9.873845,
									"patching_rect" : [ 206.0, 135.0, 59.0, 18.0 ],
									"numoutlets" : 1,
									"id" : "obj-5",
									"outlettype" : [ "" ]
								}

							}
, 							{
								"box" : 								{
									"maxclass" : "newobj",
									"text" : "pvar Cooked",
									"fontname" : "Verdana",
									"hidden" : 1,
									"numinlets" : 1,
									"fontsize" : 9.873845,
									"patching_rect" : [ 206.0, 95.0, 71.0, 18.0 ],
									"numoutlets" : 1,
									"id" : "obj-6",
									"outlettype" : [ "" ]
								}

							}
, 							{
								"box" : 								{
									"maxclass" : "newobj",
									"text" : "pvar Raw",
									"fontname" : "Verdana",
									"hidden" : 1,
									"numinlets" : 1,
									"fontsize" : 9.873845,
									"patching_rect" : [ 206.0, 55.0, 55.0, 18.0 ],
									"numoutlets" : 1,
									"id" : "obj-7",
									"outlettype" : [ "" ]
								}

							}
, 							{
								"box" : 								{
									"maxclass" : "comment",
									"text" : "Turn on an off GDIF layers",
									"fontname" : "Verdana",
									"frgb" : [ 0.658824, 0.658824, 0.658824, 1.0 ],
									"numinlets" : 1,
									"fontsize" : 9.873845,
									"patching_rect" : [ 68.0, 38.0, 141.0, 18.0 ],
									"numoutlets" : 0,
									"id" : "obj-8"
								}

							}
, 							{
								"box" : 								{
									"maxclass" : "newobj",
									"varname" : "gdif/emotion/on",
									"text" : "jcom.parameter gdif/emotion/on @type msg_toggle @range/clipmode none @description \"Turn data on\"",
									"linecount" : 2,
									"fontname" : "Verdana",
									"hidden" : 1,
									"numinlets" : 1,
									"fontsize" : 9.873845,
									"patching_rect" : [ 306.0, 295.0, 271.0, 30.0 ],
									"numoutlets" : 3,
									"id" : "obj-9",
									"outlettype" : [ "", "", "" ]
								}

							}
, 							{
								"box" : 								{
									"maxclass" : "newobj",
									"varname" : "gdif/performance/on",
									"text" : "jcom.parameter gdif/performance/on @type msg_toggle @range/clipmode none @description \"Turn data on\"",
									"linecount" : 2,
									"fontname" : "Verdana",
									"hidden" : 1,
									"numinlets" : 1,
									"fontsize" : 9.873845,
									"patching_rect" : [ 306.0, 255.0, 294.0, 30.0 ],
									"numoutlets" : 3,
									"id" : "obj-10",
									"outlettype" : [ "", "", "" ]
								}

							}
, 							{
								"box" : 								{
									"maxclass" : "newobj",
									"varname" : "gdif/environment/on",
									"text" : "jcom.parameter gdif/environment/on @type msg_toggle @range/clipmode none @description \"Turn data on\"",
									"linecount" : 2,
									"fontname" : "Verdana",
									"hidden" : 1,
									"numinlets" : 1,
									"fontsize" : 9.873845,
									"patching_rect" : [ 306.0, 215.0, 294.0, 30.0 ],
									"numoutlets" : 3,
									"id" : "obj-11",
									"outlettype" : [ "", "", "" ]
								}

							}
, 							{
								"box" : 								{
									"maxclass" : "newobj",
									"varname" : "gdif/device/on",
									"text" : "jcom.parameter gdif/device/on @type msg_toggle @range/clipmode none @description \"Turn data on\"",
									"linecount" : 2,
									"fontname" : "Verdana",
									"hidden" : 1,
									"numinlets" : 1,
									"fontsize" : 9.873845,
									"patching_rect" : [ 306.0, 175.0, 267.0, 30.0 ],
									"numoutlets" : 3,
									"id" : "obj-12",
									"outlettype" : [ "", "", "" ]
								}

							}
, 							{
								"box" : 								{
									"maxclass" : "newobj",
									"varname" : "gdif/body/on",
									"text" : "jcom.parameter gdif/body/on @type msg_toggle @range/clipmode none @description \"Turn data on\"",
									"linecount" : 2,
									"fontname" : "Verdana",
									"hidden" : 1,
									"numinlets" : 1,
									"fontsize" : 9.873845,
									"patching_rect" : [ 306.0, 135.0, 267.0, 30.0 ],
									"numoutlets" : 3,
									"id" : "obj-13",
									"outlettype" : [ "", "", "" ]
								}

							}
, 							{
								"box" : 								{
									"maxclass" : "newobj",
									"varname" : "gdif/cooked/on",
									"text" : "jcom.parameter gdif/cooked/on @type msg_toggle @range/clipmode none @description \"Turn data on\"",
									"linecount" : 2,
									"fontname" : "Verdana",
									"hidden" : 1,
									"numinlets" : 1,
									"fontsize" : 9.873845,
									"patching_rect" : [ 306.0, 95.0, 267.0, 30.0 ],
									"numoutlets" : 3,
									"id" : "obj-14",
									"outlettype" : [ "", "", "" ]
								}

							}
, 							{
								"box" : 								{
									"maxclass" : "newobj",
									"varname" : "gdif/raw/on",
									"text" : "jcom.parameter gdif/raw/on @type msg_toggle @range/clipmode none @description \"Turn data on\"",
									"linecount" : 2,
									"fontname" : "Verdana",
									"hidden" : 1,
									"numinlets" : 1,
									"fontsize" : 9.873845,
									"patching_rect" : [ 306.0, 55.0, 267.0, 30.0 ],
									"numoutlets" : 3,
									"id" : "obj-15",
									"outlettype" : [ "", "", "" ]
								}

							}
, 							{
								"box" : 								{
									"maxclass" : "comment",
									"text" : "Meta",
									"fontname" : "Verdana",
									"frgb" : [ 0.658824, 0.658824, 0.658824, 1.0 ],
									"numinlets" : 1,
									"fontsize" : 9.873845,
									"patching_rect" : [ 36.0, 284.0, 100.0, 18.0 ],
									"numoutlets" : 0,
									"id" : "obj-16"
								}

							}
, 							{
								"box" : 								{
									"maxclass" : "comment",
									"text" : "Functional",
									"fontname" : "Verdana",
									"frgb" : [ 0.658824, 0.658824, 0.658824, 1.0 ],
									"numinlets" : 1,
									"fontsize" : 9.873845,
									"patching_rect" : [ 36.0, 233.0, 100.0, 18.0 ],
									"numoutlets" : 0,
									"id" : "obj-17"
								}

							}
, 							{
								"box" : 								{
									"maxclass" : "comment",
									"text" : "Descriptive",
									"fontname" : "Verdana",
									"frgb" : [ 0.658824, 0.658824, 0.658824, 1.0 ],
									"numinlets" : 1,
									"fontsize" : 9.873845,
									"patching_rect" : [ 36.0, 140.0, 100.0, 18.0 ],
									"numoutlets" : 0,
									"id" : "obj-18"
								}

							}
, 							{
								"box" : 								{
									"maxclass" : "toggle",
									"varname" : "Cooked",
									"numinlets" : 1,
									"patching_rect" : [ 36.0, 101.0, 15.0, 15.0 ],
									"numoutlets" : 1,
									"id" : "obj-19",
									"outlettype" : [ "int" ]
								}

							}
, 							{
								"box" : 								{
									"maxclass" : "message",
									"text" : "/gdif/cooked/on $1",
									"fontname" : "Verdana",
									"numinlets" : 2,
									"fontsize" : 9.873845,
									"patching_rect" : [ 53.0, 101.0, 104.0, 16.0 ],
									"numoutlets" : 1,
									"id" : "obj-20",
									"outlettype" : [ "" ]
								}

							}
, 							{
								"box" : 								{
									"maxclass" : "toggle",
									"varname" : "Emotion",
									"numinlets" : 1,
									"patching_rect" : [ 36.0, 300.0, 15.0, 15.0 ],
									"numoutlets" : 1,
									"id" : "obj-21",
									"outlettype" : [ "int" ]
								}

							}
, 							{
								"box" : 								{
									"maxclass" : "message",
									"text" : "/gdif/emotion/on $1",
									"fontname" : "Verdana",
									"numinlets" : 2,
									"fontsize" : 9.873845,
									"patching_rect" : [ 53.0, 300.0, 109.0, 16.0 ],
									"numoutlets" : 1,
									"id" : "obj-22",
									"outlettype" : [ "" ]
								}

							}
, 							{
								"box" : 								{
									"maxclass" : "toggle",
									"varname" : "Performance",
									"numinlets" : 1,
									"patching_rect" : [ 36.0, 249.0, 15.0, 15.0 ],
									"numoutlets" : 1,
									"id" : "obj-23",
									"outlettype" : [ "int" ]
								}

							}
, 							{
								"box" : 								{
									"maxclass" : "message",
									"text" : "/gdif/performance/on $1",
									"fontname" : "Verdana",
									"numinlets" : 2,
									"fontsize" : 9.873845,
									"patching_rect" : [ 53.0, 249.0, 131.0, 16.0 ],
									"numoutlets" : 1,
									"id" : "obj-24",
									"outlettype" : [ "" ]
								}

							}
, 							{
								"box" : 								{
									"maxclass" : "toggle",
									"varname" : "Environment",
									"numinlets" : 1,
									"patching_rect" : [ 36.0, 195.0, 15.0, 15.0 ],
									"numoutlets" : 1,
									"id" : "obj-25",
									"outlettype" : [ "int" ]
								}

							}
, 							{
								"box" : 								{
									"maxclass" : "message",
									"text" : "/gdif/environment/on $1",
									"fontname" : "Verdana",
									"numinlets" : 2,
									"fontsize" : 9.873845,
									"patching_rect" : [ 53.0, 195.0, 131.0, 16.0 ],
									"numoutlets" : 1,
									"id" : "obj-26",
									"outlettype" : [ "" ]
								}

							}
, 							{
								"box" : 								{
									"maxclass" : "toggle",
									"varname" : "Device",
									"numinlets" : 1,
									"patching_rect" : [ 36.0, 176.0, 15.0, 15.0 ],
									"numoutlets" : 1,
									"id" : "obj-27",
									"outlettype" : [ "int" ]
								}

							}
, 							{
								"box" : 								{
									"maxclass" : "message",
									"text" : "/gdif/device/on $1",
									"fontname" : "Verdana",
									"numinlets" : 2,
									"fontsize" : 9.873845,
									"patching_rect" : [ 53.0, 176.0, 100.0, 16.0 ],
									"numoutlets" : 1,
									"id" : "obj-28",
									"outlettype" : [ "" ]
								}

							}
, 							{
								"box" : 								{
									"maxclass" : "toggle",
									"varname" : "Body",
									"numinlets" : 1,
									"patching_rect" : [ 36.0, 157.0, 15.0, 15.0 ],
									"numoutlets" : 1,
									"id" : "obj-29",
									"outlettype" : [ "int" ]
								}

							}
, 							{
								"box" : 								{
									"maxclass" : "message",
									"text" : "/gdif/body/on $1",
									"fontname" : "Verdana",
									"numinlets" : 2,
									"fontsize" : 9.873845,
									"patching_rect" : [ 53.0, 157.0, 93.0, 16.0 ],
									"numoutlets" : 1,
									"id" : "obj-30",
									"outlettype" : [ "" ]
								}

							}
, 							{
								"box" : 								{
									"maxclass" : "newobj",
									"text" : "r jmod.init",
									"fontname" : "Verdana",
									"hidden" : 1,
									"numinlets" : 0,
									"fontsize" : 9.873845,
									"patching_rect" : [ 232.0, 414.0, 60.0, 18.0 ],
									"numoutlets" : 1,
									"id" : "obj-31",
									"outlettype" : [ "" ]
								}

							}
, 							{
								"box" : 								{
									"maxclass" : "newobj",
									"text" : "t front",
									"fontname" : "Verdana",
									"hidden" : 1,
									"numinlets" : 1,
									"fontsize" : 9.873845,
									"patching_rect" : [ 277.0, 387.0, 40.0, 18.0 ],
									"numoutlets" : 1,
									"id" : "obj-32",
									"outlettype" : [ "front" ]
								}

							}
, 							{
								"box" : 								{
									"maxclass" : "newobj",
									"text" : "jcom.oscroute /open_inspector",
									"fontname" : "Verdana",
									"hidden" : 1,
									"numinlets" : 1,
									"fontsize" : 9.873845,
									"patching_rect" : [ 277.0, 366.0, 163.0, 18.0 ],
									"numoutlets" : 2,
									"id" : "obj-33",
									"outlettype" : [ "", "" ]
								}

							}
, 							{
								"box" : 								{
									"maxclass" : "toggle",
									"varname" : "Raw",
									"numinlets" : 1,
									"patching_rect" : [ 36.0, 79.0, 15.0, 15.0 ],
									"numoutlets" : 1,
									"id" : "obj-34",
									"outlettype" : [ "int" ]
								}

							}
, 							{
								"box" : 								{
									"maxclass" : "message",
									"text" : "/gdif/raw/on $1",
									"fontname" : "Verdana",
									"numinlets" : 2,
									"fontsize" : 9.873845,
									"patching_rect" : [ 53.0, 79.0, 88.0, 16.0 ],
									"numoutlets" : 1,
									"id" : "obj-35",
									"outlettype" : [ "" ]
								}

							}
, 							{
								"box" : 								{
									"maxclass" : "comment",
									"text" : "GDIF",
									"fontname" : "Verdana",
									"frgb" : [ 0.658824, 0.658824, 0.658824, 1.0 ],
									"numinlets" : 1,
									"fontsize" : 11.556055,
									"patching_rect" : [ 36.0, 34.0, 86.0, 21.0 ],
									"numoutlets" : 0,
									"id" : "obj-36"
								}

							}
, 							{
								"box" : 								{
									"maxclass" : "inlet",
									"hidden" : 1,
									"numinlets" : 0,
									"patching_rect" : [ 277.0, 346.0, 15.0, 15.0 ],
									"numoutlets" : 1,
									"id" : "obj-37",
									"outlettype" : [ "" ],
									"comment" : ""
								}

							}
, 							{
								"box" : 								{
									"maxclass" : "message",
									"text" : "patcher more features",
									"fontname" : "Verdana",
									"hidden" : 1,
									"numinlets" : 2,
									"fontsize" : 9.873845,
									"patching_rect" : [ 232.0, 436.0, 119.0, 16.0 ],
									"numoutlets" : 1,
									"id" : "obj-38",
									"outlettype" : [ "" ]
								}

							}
, 							{
								"box" : 								{
									"maxclass" : "newobj",
									"text" : "thispatcher",
									"fontname" : "Verdana",
									"hidden" : 1,
									"numinlets" : 1,
									"fontsize" : 9.873845,
									"patching_rect" : [ 232.0, 455.0, 64.0, 18.0 ],
									"numoutlets" : 2,
									"id" : "obj-39",
									"outlettype" : [ "", "" ],
									"save" : [ "#N", "thispatcher", ";", "#Q", "end", ";" ]
								}

							}
, 							{
								"box" : 								{
									"maxclass" : "comment",
									"text" : "Acquisition",
									"fontname" : "Verdana",
									"frgb" : [ 0.658824, 0.658824, 0.658824, 1.0 ],
									"numinlets" : 1,
									"fontsize" : 9.873845,
									"patching_rect" : [ 36.0, 62.0, 100.0, 18.0 ],
									"numoutlets" : 0,
									"id" : "obj-40"
								}

							}
 ],
						"lines" : [ 							{
								"patchline" : 								{
									"source" : [ "obj-34", 0 ],
									"destination" : [ "obj-35", 0 ],
									"hidden" : 1,
									"midpoints" : [  ]
								}

							}
, 							{
								"patchline" : 								{
									"source" : [ "obj-19", 0 ],
									"destination" : [ "obj-20", 0 ],
									"hidden" : 1,
									"midpoints" : [  ]
								}

							}
, 							{
								"patchline" : 								{
									"source" : [ "obj-29", 0 ],
									"destination" : [ "obj-30", 0 ],
									"hidden" : 1,
									"midpoints" : [  ]
								}

							}
, 							{
								"patchline" : 								{
									"source" : [ "obj-27", 0 ],
									"destination" : [ "obj-28", 0 ],
									"hidden" : 1,
									"midpoints" : [  ]
								}

							}
, 							{
								"patchline" : 								{
									"source" : [ "obj-25", 0 ],
									"destination" : [ "obj-26", 0 ],
									"hidden" : 1,
									"midpoints" : [  ]
								}

							}
, 							{
								"patchline" : 								{
									"source" : [ "obj-23", 0 ],
									"destination" : [ "obj-24", 0 ],
									"hidden" : 1,
									"midpoints" : [  ]
								}

							}
, 							{
								"patchline" : 								{
									"source" : [ "obj-21", 0 ],
									"destination" : [ "obj-22", 0 ],
									"hidden" : 1,
									"midpoints" : [  ]
								}

							}
, 							{
								"patchline" : 								{
									"source" : [ "obj-15", 0 ],
									"destination" : [ "obj-7", 0 ],
									"hidden" : 1,
									"midpoints" : [  ]
								}

							}
, 							{
								"patchline" : 								{
									"source" : [ "obj-14", 0 ],
									"destination" : [ "obj-6", 0 ],
									"hidden" : 1,
									"midpoints" : [  ]
								}

							}
, 							{
								"patchline" : 								{
									"source" : [ "obj-13", 0 ],
									"destination" : [ "obj-5", 0 ],
									"hidden" : 1,
									"midpoints" : [  ]
								}

							}
, 							{
								"patchline" : 								{
									"source" : [ "obj-12", 0 ],
									"destination" : [ "obj-4", 0 ],
									"hidden" : 1,
									"midpoints" : [  ]
								}

							}
, 							{
								"patchline" : 								{
									"source" : [ "obj-11", 0 ],
									"destination" : [ "obj-3", 0 ],
									"hidden" : 1,
									"midpoints" : [  ]
								}

							}
, 							{
								"patchline" : 								{
									"source" : [ "obj-10", 0 ],
									"destination" : [ "obj-2", 0 ],
									"hidden" : 1,
									"midpoints" : [  ]
								}

							}
, 							{
								"patchline" : 								{
									"source" : [ "obj-9", 0 ],
									"destination" : [ "obj-1", 0 ],
									"hidden" : 1,
									"midpoints" : [  ]
								}

							}
, 							{
								"patchline" : 								{
									"source" : [ "obj-31", 0 ],
									"destination" : [ "obj-38", 0 ],
									"hidden" : 1,
									"midpoints" : [  ]
								}

							}
, 							{
								"patchline" : 								{
									"source" : [ "obj-38", 0 ],
									"destination" : [ "obj-39", 0 ],
									"hidden" : 1,
									"midpoints" : [  ]
								}

							}
, 							{
								"patchline" : 								{
									"source" : [ "obj-32", 0 ],
									"destination" : [ "obj-39", 0 ],
									"hidden" : 1,
									"midpoints" : [  ]
								}

							}
, 							{
								"patchline" : 								{
									"source" : [ "obj-37", 0 ],
									"destination" : [ "obj-33", 0 ],
									"hidden" : 1,
									"midpoints" : [  ]
								}

							}
, 							{
								"patchline" : 								{
									"source" : [ "obj-33", 0 ],
									"destination" : [ "obj-32", 0 ],
									"hidden" : 1,
									"midpoints" : [  ]
								}

							}
, 							{
								"patchline" : 								{
									"source" : [ "obj-7", 0 ],
									"destination" : [ "obj-15", 0 ],
									"hidden" : 1,
									"midpoints" : [  ]
								}

							}
, 							{
								"patchline" : 								{
									"source" : [ "obj-6", 0 ],
									"destination" : [ "obj-14", 0 ],
									"hidden" : 1,
									"midpoints" : [  ]
								}

							}
, 							{
								"patchline" : 								{
									"source" : [ "obj-5", 0 ],
									"destination" : [ "obj-13", 0 ],
									"hidden" : 1,
									"midpoints" : [  ]
								}

							}
, 							{
								"patchline" : 								{
									"source" : [ "obj-4", 0 ],
									"destination" : [ "obj-12", 0 ],
									"hidden" : 1,
									"midpoints" : [  ]
								}

							}
, 							{
								"patchline" : 								{
									"source" : [ "obj-3", 0 ],
									"destination" : [ "obj-11", 0 ],
									"hidden" : 1,
									"midpoints" : [  ]
								}

							}
, 							{
								"patchline" : 								{
									"source" : [ "obj-2", 0 ],
									"destination" : [ "obj-10", 0 ],
									"hidden" : 1,
									"midpoints" : [  ]
								}

							}
, 							{
								"patchline" : 								{
									"source" : [ "obj-1", 0 ],
									"destination" : [ "obj-9", 0 ],
									"hidden" : 1,
									"midpoints" : [  ]
								}

							}
 ]
					}
,
					"saved_object_attributes" : 					{
						"fontname" : "Verdana",
						"globalpatchername" : "",
						"fontface" : 0,
						"fontsize" : 10.0,
						"default_fontface" : 0,
						"default_fontname" : "Verdana",
						"default_fontsize" : 10.0
					}

				}

			}
, 			{
				"box" : 				{
					"maxclass" : "message",
					"text" : "/preset/store 1 default, /preset/write",
					"fontname" : "Verdana",
					"bgcolor" : [ 0.8, 0.54902, 0.54902, 1.0 ],
					"numinlets" : 2,
					"fontsize" : 9.873845,
					"patching_rect" : [ 49.0, 72.0, 193.0, 16.0 ],
					"numoutlets" : 1,
					"id" : "obj-11",
					"outlettype" : [ "" ]
				}

			}
, 			{
				"box" : 				{
					"maxclass" : "newobj",
					"text" : "jcom.return return_c @range/bounds 0. 1.",
					"fontname" : "Verdana",
					"numinlets" : 1,
					"fontsize" : 9.873845,
					"patching_rect" : [ 186.0, 325.0, 221.0, 18.0 ],
					"numoutlets" : 2,
					"id" : "obj-12",
					"outlettype" : [ "", "" ]
				}

			}
, 			{
				"box" : 				{
					"maxclass" : "newobj",
					"text" : "jcom.in",
					"fontname" : "Verdana",
					"numinlets" : 1,
					"fontsize" : 9.873845,
					"patching_rect" : [ 45.0, 169.0, 45.0, 18.0 ],
					"numoutlets" : 2,
					"id" : "obj-13",
					"outlettype" : [ "", "" ]
				}

			}
, 			{
				"box" : 				{
					"maxclass" : "newobj",
					"text" : "pcontrol",
					"fontname" : "Verdana",
					"numinlets" : 1,
					"fontsize" : 9.873845,
					"patching_rect" : [ 186.0, 243.0, 49.0, 18.0 ],
					"numoutlets" : 1,
					"id" : "obj-14",
					"outlettype" : [ "" ]
				}

			}
, 			{
				"box" : 				{
					"maxclass" : "newobj",
					"text" : "jcom.pass open",
					"fontname" : "Verdana",
					"numinlets" : 1,
					"fontsize" : 9.873845,
					"patching_rect" : [ 186.0, 219.0, 86.0, 18.0 ],
					"numoutlets" : 2,
					"id" : "obj-15",
					"outlettype" : [ "", "" ]
				}

			}
, 			{
				"box" : 				{
					"maxclass" : "message",
					"text" : "/init",
					"fontname" : "Verdana",
					"numinlets" : 2,
					"fontsize" : 9.873845,
					"patching_rect" : [ 185.0, 89.0, 31.0, 16.0 ],
					"numoutlets" : 1,
					"id" : "obj-17",
					"outlettype" : [ "" ]
				}

			}
, 			{
				"box" : 				{
					"maxclass" : "newobj",
					"text" : "jalg.continuum",
					"fontname" : "Verdana",
					"numinlets" : 1,
					"fontsize" : 9.873845,
					"patching_rect" : [ 186.0, 300.0, 96.0, 18.0 ],
					"numoutlets" : 1,
					"id" : "obj-18",
					"outlettype" : [ "" ]
				}

			}
, 			{
				"box" : 				{
					"maxclass" : "newobj",
					"varname" : "jcom.hub",
					"text" : "jcom.hub @module_type control @description \"A module receving input from the Haken Continuum Fingerboard.\"",
					"linecount" : 2,
					"fontname" : "Verdana",
					"numinlets" : 1,
					"fontsize" : 9.873845,
					"patching_rect" : [ 15.0, 114.0, 342.0, 30.0 ],
					"numoutlets" : 2,
					"id" : "obj-19",
					"outlettype" : [ "", "" ]
				}

			}
, 			{
				"box" : 				{
					"maxclass" : "inlet",
					"numinlets" : 0,
					"patching_rect" : [ 16.0, 90.0, 13.0, 13.0 ],
					"numoutlets" : 1,
					"id" : "obj-20",
					"outlettype" : [ "" ],
					"comment" : ""
				}

			}
, 			{
				"box" : 				{
					"maxclass" : "outlet",
					"numinlets" : 1,
					"patching_rect" : [ 16.0, 316.0, 13.0, 13.0 ],
					"numoutlets" : 0,
					"id" : "obj-21",
					"comment" : ""
				}

			}
, 			{
				"box" : 				{
					"maxclass" : "message",
					"text" : "/ui/freeze 0",
					"fontname" : "Verdana",
					"numinlets" : 2,
					"fontsize" : 9.873845,
					"patching_rect" : [ 292.0, 301.0, 172.0, 16.0 ],
					"numoutlets" : 1,
					"id" : "obj-22",
					"outlettype" : [ "" ]
				}

			}
, 			{
				"box" : 				{
					"maxclass" : "newobj",
					"text" : "prepend set",
					"fontname" : "Verdana",
					"numinlets" : 1,
					"fontsize" : 9.873845,
					"patching_rect" : [ 292.0, 280.0, 68.0, 18.0 ],
					"numoutlets" : 1,
					"id" : "obj-23",
					"outlettype" : [ "" ]
				}

			}
, 			{
				"box" : 				{
					"maxclass" : "message",
					"text" : "/documentation/generate",
					"fontname" : "Verdana",
					"bgcolor" : [ 0.8, 0.54902, 0.54902, 1.0 ],
					"numinlets" : 2,
					"fontsize" : 9.873845,
					"patching_rect" : [ 56.0, 89.0, 135.0, 16.0 ],
					"numoutlets" : 1,
					"id" : "obj-24",
					"outlettype" : [ "" ]
				}

			}
, 			{
				"box" : 				{
					"maxclass" : "jcom.ui",
					"text" : "/editing_this_module",
					"presentation_rect" : [ 0.0, 0.0, 150.0, 70.0 ],
					"numinlets" : 1,
					"presentation" : 1,
					"numoutlets" : 1,
					"id" : "obj-26",
					"outlettype" : [ "" ]
				}

			}
 ],
		"lines" : [ 			{
				"patchline" : 				{
					"source" : [ "obj-13", 0 ],
					"destination" : [ "obj-9", 0 ],
					"hidden" : 0,
					"midpoints" : [  ]
				}

			}
, 			{
				"patchline" : 				{
					"source" : [ "obj-9", 0 ],
					"destination" : [ "obj-8", 0 ],
					"hidden" : 0,
					"midpoints" : [  ]
				}

			}
, 			{
				"patchline" : 				{
					"source" : [ "obj-8", 0 ],
					"destination" : [ "obj-7", 0 ],
					"hidden" : 0,
					"midpoints" : [  ]
				}

			}
, 			{
				"patchline" : 				{
					"source" : [ "obj-7", 0 ],
					"destination" : [ "obj-10", 0 ],
					"hidden" : 0,
					"midpoints" : [  ]
				}

			}
, 			{
				"patchline" : 				{
					"source" : [ "obj-9", 1 ],
					"destination" : [ "obj-15", 0 ],
					"hidden" : 0,
					"midpoints" : [  ]
				}

			}
, 			{
				"patchline" : 				{
					"source" : [ "obj-15", 0 ],
					"destination" : [ "obj-14", 0 ],
					"hidden" : 0,
					"midpoints" : [  ]
				}

			}
, 			{
				"patchline" : 				{
					"source" : [ "obj-15", 1 ],
					"destination" : [ "obj-18", 0 ],
					"hidden" : 0,
					"midpoints" : [ 262.5, 291.0, 195.5, 291.0 ]
				}

			}
, 			{
				"patchline" : 				{
					"source" : [ "obj-14", 0 ],
					"destination" : [ "obj-18", 0 ],
					"hidden" : 0,
					"midpoints" : [  ]
				}

			}
, 			{
				"patchline" : 				{
					"source" : [ "obj-18", 0 ],
					"destination" : [ "obj-12", 0 ],
					"hidden" : 0,
					"midpoints" : [  ]
				}

			}
, 			{
				"patchline" : 				{
					"source" : [ "obj-15", 1 ],
					"destination" : [ "obj-23", 0 ],
					"hidden" : 0,
					"midpoints" : [ 262.5, 271.0, 301.5, 271.0 ]
				}

			}
, 			{
				"patchline" : 				{
					"source" : [ "obj-23", 0 ],
					"destination" : [ "obj-22", 0 ],
					"hidden" : 0,
					"midpoints" : [  ]
				}

			}
, 			{
				"patchline" : 				{
					"source" : [ "obj-2", 0 ],
					"destination" : [ "obj-4", 1 ],
					"hidden" : 0,
					"midpoints" : [  ]
				}

			}
, 			{
				"patchline" : 				{
					"source" : [ "obj-4", 0 ],
					"destination" : [ "obj-3", 0 ],
					"hidden" : 0,
					"midpoints" : [  ]
				}

			}
, 			{
				"patchline" : 				{
					"source" : [ "obj-3", 1 ],
					"destination" : [ "obj-6", 0 ],
					"hidden" : 0,
					"midpoints" : [ 559.5, 93.0, 504.0, 93.0, 504.0, 99.0, 504.5, 99.0 ]
				}

			}
, 			{
				"patchline" : 				{
					"source" : [ "obj-6", 0 ],
					"destination" : [ "obj-3", 0 ],
					"hidden" : 0,
					"midpoints" : [ 504.5, 134.0, 484.0, 134.0, 484.0, 70.0, 504.5, 70.0 ]
				}

			}
, 			{
				"patchline" : 				{
					"source" : [ "obj-11", 0 ],
					"destination" : [ "obj-19", 0 ],
					"hidden" : 0,
					"midpoints" : [ 58.5, 110.0, 24.5, 110.0 ]
				}

			}
, 			{
				"patchline" : 				{
					"source" : [ "obj-24", 0 ],
					"destination" : [ "obj-19", 0 ],
					"hidden" : 0,
					"midpoints" : [ 65.5, 110.0, 24.5, 110.0 ]
				}

			}
, 			{
				"patchline" : 				{
					"source" : [ "obj-20", 0 ],
					"destination" : [ "obj-19", 0 ],
					"hidden" : 0,
					"midpoints" : [  ]
				}

			}
, 			{
				"patchline" : 				{
					"source" : [ "obj-17", 0 ],
					"destination" : [ "obj-19", 0 ],
					"hidden" : 0,
					"midpoints" : [ 194.5, 110.0, 24.5, 110.0 ]
				}

			}
, 			{
				"patchline" : 				{
					"source" : [ "obj-19", 0 ],
					"destination" : [ "obj-21", 0 ],
					"hidden" : 0,
					"midpoints" : [  ]
				}

			}
 ]
	}

}
