{
	"patcher" : 	{
		"rect" : [ 222.0, 77.0, 1275.0, 806.0 ],
		"bgcolor" : [ 1.0, 1.0, 1.0, 1.0 ],
		"bglocked" : 0,
		"defrect" : [ 222.0, 77.0, 1275.0, 806.0 ],
		"openinpresentation" : 0,
		"default_fontsize" : 10.0,
		"default_fontface" : 0,
		"default_fontname" : "Verdana",
		"gridonopen" : 0,
		"gridsize" : [ 15.0, 15.0 ],
		"gridsnaponopen" : 0,
		"toolbarvisible" : 1,
		"boxfadetime" : 200,
		"boxanimatetime" : 200,
		"scrollanimatetime" : 200,
		"metadata" : [  ],
		"boxes" : [ 			{
				"box" : 				{
					"maxclass" : "newobj",
					"text" : "pvar MIDIIN 2",
					"patching_rect" : [ 493.0, 71.0, 72.0, 17.0 ],
					"fontname" : "Verdana",
					"id" : "obj-1",
					"numinlets" : 1,
					"numoutlets" : 2,
					"fontsize" : 9.0,
					"outlettype" : [ "", "" ]
				}

			}
, 			{
				"box" : 				{
					"maxclass" : "newobj",
					"text" : "loadbang",
					"patching_rect" : [ 529.0, 27.0, 48.0, 17.0 ],
					"fontname" : "Verdana",
					"id" : "obj-2",
					"numinlets" : 1,
					"numoutlets" : 1,
					"fontsize" : 9.0,
					"outlettype" : [ "bang" ]
				}

			}
, 			{
				"box" : 				{
					"maxclass" : "umenu",
					"varname" : "MIDIIN",
					"patching_rect" : [ 86.0, 28.0, 129.0, 17.0 ],
					"fontname" : "Verdana",
					"types" : [  ],
					"id" : "obj-3",
					"numinlets" : 1,
					"numoutlets" : 3,
					"fontsize" : 9.0,
					"items" : [ "from MaxMSP 1", ",", "from MaxMSP 2", ",", "to MaxMSP 1", ",", "to MaxMSP 2" ],
					"labelclick" : 1,
					"outlettype" : [ "int", "", "" ]
				}

			}
, 			{
				"box" : 				{
					"maxclass" : "newobj",
					"text" : "midiinfo",
					"patching_rect" : [ 493.0, 48.0, 46.0, 17.0 ],
					"fontname" : "Verdana",
					"id" : "obj-4",
					"numinlets" : 2,
					"numoutlets" : 1,
					"fontsize" : 9.0,
					"outlettype" : [ "" ]
				}

			}
, 			{
				"box" : 				{
					"maxclass" : "comment",
					"text" : "MIDI in:",
					"patching_rect" : [ 11.0, 28.0, 65.0, 17.0 ],
					"fontname" : "Verdana",
					"frgb" : [ 0.584314, 0.584314, 0.584314, 1.0 ],
					"id" : "obj-5",
					"numinlets" : 1,
					"textcolor" : [ 0.584314, 0.584314, 0.584314, 1.0 ],
					"numoutlets" : 0,
					"fontsize" : 9.0
				}

			}
, 			{
				"box" : 				{
					"maxclass" : "newobj",
					"varname" : "midi_in",
					"text" : "jcom.parameter midi_in @priority 0 @description \"Port to receive MIDI messages on.\"",
					"linecount" : 2,
					"patching_rect" : [ 493.0, 98.0, 242.0, 28.0 ],
					"fontname" : "Verdana",
					"id" : "obj-6",
					"numinlets" : 1,
					"numoutlets" : 1,
					"fontsize" : 9.0,
					"outlettype" : [ "" ]
				}

			}
, 			{
				"box" : 				{
					"maxclass" : "newobj",
					"text" : "pcontrol",
					"patching_rect" : [ 72.0, 219.0, 47.0, 17.0 ],
					"fontname" : "Verdana",
					"id" : "obj-7",
					"numinlets" : 1,
					"numoutlets" : 1,
					"fontsize" : 9.0,
					"outlettype" : [ "" ]
				}

			}
, 			{
				"box" : 				{
					"maxclass" : "newobj",
					"text" : "t open",
					"patching_rect" : [ 72.0, 195.0, 37.0, 17.0 ],
					"fontname" : "Verdana",
					"id" : "obj-8",
					"numinlets" : 1,
					"numoutlets" : 1,
					"fontsize" : 9.0,
					"outlettype" : [ "open" ]
				}

			}
, 			{
				"box" : 				{
					"maxclass" : "newobj",
					"text" : "jcom.oscroute \/open_inspector",
					"patching_rect" : [ 72.0, 171.0, 151.0, 17.0 ],
					"fontname" : "Verdana",
					"id" : "obj-9",
					"numinlets" : 1,
					"numoutlets" : 2,
					"fontsize" : 9.0,
					"outlettype" : [ "", "" ]
				}

			}
, 			{
				"box" : 				{
					"maxclass" : "newobj",
					"varname" : "inspector",
					"text" : "p inspector",
					"patching_rect" : [ 72.0, 243.0, 60.0, 17.0 ],
					"fontname" : "Verdana",
					"id" : "obj-10",
					"numinlets" : 1,
					"numoutlets" : 0,
					"fontsize" : 9.0,
					"patcher" : 					{
						"rect" : [ 66.0, 151.0, 234.0, 377.0 ],
						"bgcolor" : [ 1.0, 1.0, 1.0, 1.0 ],
						"bglocked" : 0,
						"defrect" : [ 66.0, 151.0, 234.0, 377.0 ],
						"openinpresentation" : 0,
						"default_fontsize" : 10.0,
						"default_fontface" : 0,
						"default_fontname" : "Verdana",
						"gridonopen" : 0,
						"gridsize" : [ 15.0, 15.0 ],
						"gridsnaponopen" : 0,
						"toolbarvisible" : 1,
						"boxfadetime" : 200,
						"boxanimatetime" : 200,
						"scrollanimatetime" : 200,
						"metadata" : [  ],
						"boxes" : [ 							{
								"box" : 								{
									"maxclass" : "newobj",
									"text" : "pvar Emotion",
									"patching_rect" : [ 206.0, 295.0, 69.0, 17.0 ],
									"fontname" : "Verdana",
									"hidden" : 1,
									"id" : "obj-1",
									"numinlets" : 1,
									"numoutlets" : 1,
									"fontsize" : 9.0,
									"outlettype" : [ "" ]
								}

							}
, 							{
								"box" : 								{
									"maxclass" : "newobj",
									"text" : "pvar Performance",
									"patching_rect" : [ 206.0, 255.0, 92.0, 17.0 ],
									"fontname" : "Verdana",
									"hidden" : 1,
									"id" : "obj-2",
									"numinlets" : 1,
									"numoutlets" : 1,
									"fontsize" : 9.0,
									"outlettype" : [ "" ]
								}

							}
, 							{
								"box" : 								{
									"maxclass" : "newobj",
									"text" : "pvar Environment",
									"patching_rect" : [ 206.0, 215.0, 90.0, 17.0 ],
									"fontname" : "Verdana",
									"hidden" : 1,
									"id" : "obj-3",
									"numinlets" : 1,
									"numoutlets" : 1,
									"fontsize" : 9.0,
									"outlettype" : [ "" ]
								}

							}
, 							{
								"box" : 								{
									"maxclass" : "newobj",
									"text" : "pvar Device",
									"patching_rect" : [ 206.0, 175.0, 64.0, 17.0 ],
									"fontname" : "Verdana",
									"hidden" : 1,
									"id" : "obj-4",
									"numinlets" : 1,
									"numoutlets" : 1,
									"fontsize" : 9.0,
									"outlettype" : [ "" ]
								}

							}
, 							{
								"box" : 								{
									"maxclass" : "newobj",
									"text" : "pvar Body",
									"patching_rect" : [ 206.0, 135.0, 56.0, 17.0 ],
									"fontname" : "Verdana",
									"hidden" : 1,
									"id" : "obj-5",
									"numinlets" : 1,
									"numoutlets" : 1,
									"fontsize" : 9.0,
									"outlettype" : [ "" ]
								}

							}
, 							{
								"box" : 								{
									"maxclass" : "newobj",
									"text" : "pvar Cooked",
									"patching_rect" : [ 206.0, 95.0, 65.0, 17.0 ],
									"fontname" : "Verdana",
									"hidden" : 1,
									"id" : "obj-6",
									"numinlets" : 1,
									"numoutlets" : 1,
									"fontsize" : 9.0,
									"outlettype" : [ "" ]
								}

							}
, 							{
								"box" : 								{
									"maxclass" : "newobj",
									"text" : "pvar Raw",
									"patching_rect" : [ 206.0, 55.0, 53.0, 17.0 ],
									"fontname" : "Verdana",
									"hidden" : 1,
									"id" : "obj-7",
									"numinlets" : 1,
									"numoutlets" : 1,
									"fontsize" : 9.0,
									"outlettype" : [ "" ]
								}

							}
, 							{
								"box" : 								{
									"maxclass" : "comment",
									"text" : "Turn on an off GDIF layers",
									"patching_rect" : [ 68.0, 38.0, 128.0, 17.0 ],
									"fontname" : "Verdana",
									"id" : "obj-8",
									"numinlets" : 1,
									"numoutlets" : 0,
									"fontsize" : 9.0
								}

							}
, 							{
								"box" : 								{
									"maxclass" : "newobj",
									"varname" : "gdif\/emotion\/on",
									"text" : "jcom.parameter gdif\/emotion\/on @type msg_toggle @range/clipmode none @description \"Turn data on\"",
									"linecount" : 2,
									"patching_rect" : [ 306.0, 295.0, 244.0, 28.0 ],
									"fontname" : "Verdana",
									"hidden" : 1,
									"id" : "obj-9",
									"numinlets" : 1,
									"numoutlets" : 1,
									"fontsize" : 9.0,
									"outlettype" : [ "" ]
								}

							}
, 							{
								"box" : 								{
									"maxclass" : "newobj",
									"varname" : "gdif\/performance\/on",
									"text" : "jcom.parameter gdif\/performance\/on @type msg_toggle @range/clipmode none @description \"Turn data on\"",
									"linecount" : 2,
									"patching_rect" : [ 306.0, 255.0, 264.0, 28.0 ],
									"fontname" : "Verdana",
									"hidden" : 1,
									"id" : "obj-10",
									"numinlets" : 1,
									"numoutlets" : 1,
									"fontsize" : 9.0,
									"outlettype" : [ "" ]
								}

							}
, 							{
								"box" : 								{
									"maxclass" : "newobj",
									"varname" : "gdif\/environment\/on",
									"text" : "jcom.parameter gdif\/environment\/on @type msg_toggle @range/clipmode none @description \"Turn data on\"",
									"linecount" : 2,
									"patching_rect" : [ 306.0, 215.0, 264.0, 28.0 ],
									"fontname" : "Verdana",
									"hidden" : 1,
									"id" : "obj-11",
									"numinlets" : 1,
									"numoutlets" : 1,
									"fontsize" : 9.0,
									"outlettype" : [ "" ]
								}

							}
, 							{
								"box" : 								{
									"maxclass" : "newobj",
									"varname" : "gdif\/device\/on",
									"text" : "jcom.parameter gdif\/device\/on @type msg_toggle @range/clipmode none @description \"Turn data on\"",
									"linecount" : 2,
									"patching_rect" : [ 306.0, 175.0, 238.0, 28.0 ],
									"fontname" : "Verdana",
									"hidden" : 1,
									"id" : "obj-12",
									"numinlets" : 1,
									"numoutlets" : 1,
									"fontsize" : 9.0,
									"outlettype" : [ "" ]
								}

							}
, 							{
								"box" : 								{
									"maxclass" : "newobj",
									"varname" : "gdif\/body\/on",
									"text" : "jcom.parameter gdif\/body\/on @type msg_toggle @range/clipmode none @description \"Turn data on\"",
									"linecount" : 2,
									"patching_rect" : [ 306.0, 135.0, 230.0, 28.0 ],
									"fontname" : "Verdana",
									"hidden" : 1,
									"id" : "obj-13",
									"numinlets" : 1,
									"numoutlets" : 1,
									"fontsize" : 9.0,
									"outlettype" : [ "" ]
								}

							}
, 							{
								"box" : 								{
									"maxclass" : "newobj",
									"varname" : "gdif\/cooked\/on",
									"text" : "jcom.parameter gdif\/cooked\/on @type msg_toggle @range/clipmode none @description \"Turn data on\"",
									"linecount" : 2,
									"patching_rect" : [ 306.0, 95.0, 239.0, 28.0 ],
									"fontname" : "Verdana",
									"hidden" : 1,
									"id" : "obj-14",
									"numinlets" : 1,
									"numoutlets" : 1,
									"fontsize" : 9.0,
									"outlettype" : [ "" ]
								}

							}
, 							{
								"box" : 								{
									"maxclass" : "newobj",
									"varname" : "gdif\/raw\/on",
									"text" : "jcom.parameter gdif\/raw\/on @type msg_toggle @range/clipmode none @description \"Turn data on\"",
									"linecount" : 2,
									"patching_rect" : [ 306.0, 55.0, 227.0, 28.0 ],
									"fontname" : "Verdana",
									"hidden" : 1,
									"id" : "obj-15",
									"numinlets" : 1,
									"numoutlets" : 1,
									"fontsize" : 9.0,
									"outlettype" : [ "" ]
								}

							}
, 							{
								"box" : 								{
									"maxclass" : "comment",
									"text" : "Meta",
									"patching_rect" : [ 36.0, 284.0, 100.0, 17.0 ],
									"fontname" : "Verdana",
									"id" : "obj-16",
									"numinlets" : 1,
									"numoutlets" : 0,
									"fontsize" : 9.0
								}

							}
, 							{
								"box" : 								{
									"maxclass" : "comment",
									"text" : "Functional",
									"patching_rect" : [ 36.0, 233.0, 100.0, 17.0 ],
									"fontname" : "Verdana",
									"id" : "obj-17",
									"numinlets" : 1,
									"numoutlets" : 0,
									"fontsize" : 9.0
								}

							}
, 							{
								"box" : 								{
									"maxclass" : "comment",
									"text" : "Descriptive",
									"patching_rect" : [ 36.0, 140.0, 100.0, 17.0 ],
									"fontname" : "Verdana",
									"id" : "obj-18",
									"numinlets" : 1,
									"numoutlets" : 0,
									"fontsize" : 9.0
								}

							}
, 							{
								"box" : 								{
									"maxclass" : "toggle",
									"varname" : "Cooked",
									"patching_rect" : [ 36.0, 101.0, 15.0, 15.0 ],
									"id" : "obj-19",
									"numinlets" : 1,
									"numoutlets" : 1,
									"outlettype" : [ "int" ]
								}

							}
, 							{
								"box" : 								{
									"maxclass" : "message",
									"text" : "\/gdif\/cooked\/on $1",
									"patching_rect" : [ 53.0, 101.0, 100.0, 15.0 ],
									"fontname" : "Verdana",
									"id" : "obj-20",
									"numinlets" : 2,
									"numoutlets" : 1,
									"fontsize" : 9.0,
									"outlettype" : [ "" ]
								}

							}
, 							{
								"box" : 								{
									"maxclass" : "toggle",
									"varname" : "Emotion",
									"patching_rect" : [ 36.0, 300.0, 15.0, 15.0 ],
									"id" : "obj-21",
									"numinlets" : 1,
									"numoutlets" : 1,
									"outlettype" : [ "int" ]
								}

							}
, 							{
								"box" : 								{
									"maxclass" : "message",
									"text" : "\/gdif\/emotion\/on $1",
									"patching_rect" : [ 53.0, 300.0, 105.0, 15.0 ],
									"fontname" : "Verdana",
									"id" : "obj-22",
									"numinlets" : 2,
									"numoutlets" : 1,
									"fontsize" : 9.0,
									"outlettype" : [ "" ]
								}

							}
, 							{
								"box" : 								{
									"maxclass" : "toggle",
									"varname" : "Performance",
									"patching_rect" : [ 36.0, 249.0, 15.0, 15.0 ],
									"id" : "obj-23",
									"numinlets" : 1,
									"numoutlets" : 1,
									"outlettype" : [ "int" ]
								}

							}
, 							{
								"box" : 								{
									"maxclass" : "message",
									"text" : "\/gdif\/performance\/on $1",
									"patching_rect" : [ 53.0, 249.0, 127.0, 15.0 ],
									"fontname" : "Verdana",
									"id" : "obj-24",
									"numinlets" : 2,
									"numoutlets" : 1,
									"fontsize" : 9.0,
									"outlettype" : [ "" ]
								}

							}
, 							{
								"box" : 								{
									"maxclass" : "toggle",
									"varname" : "Environment",
									"patching_rect" : [ 36.0, 195.0, 15.0, 15.0 ],
									"id" : "obj-25",
									"numinlets" : 1,
									"numoutlets" : 1,
									"outlettype" : [ "int" ]
								}

							}
, 							{
								"box" : 								{
									"maxclass" : "message",
									"text" : "\/gdif\/environment\/on $1",
									"patching_rect" : [ 53.0, 195.0, 126.0, 15.0 ],
									"fontname" : "Verdana",
									"id" : "obj-26",
									"numinlets" : 2,
									"numoutlets" : 1,
									"fontsize" : 9.0,
									"outlettype" : [ "" ]
								}

							}
, 							{
								"box" : 								{
									"maxclass" : "toggle",
									"varname" : "Device",
									"patching_rect" : [ 36.0, 176.0, 15.0, 15.0 ],
									"id" : "obj-27",
									"numinlets" : 1,
									"numoutlets" : 1,
									"outlettype" : [ "int" ]
								}

							}
, 							{
								"box" : 								{
									"maxclass" : "message",
									"text" : "\/gdif\/device\/on $1",
									"patching_rect" : [ 53.0, 176.0, 99.0, 15.0 ],
									"fontname" : "Verdana",
									"id" : "obj-28",
									"numinlets" : 2,
									"numoutlets" : 1,
									"fontsize" : 9.0,
									"outlettype" : [ "" ]
								}

							}
, 							{
								"box" : 								{
									"maxclass" : "toggle",
									"varname" : "Body",
									"patching_rect" : [ 36.0, 157.0, 15.0, 15.0 ],
									"id" : "obj-29",
									"numinlets" : 1,
									"numoutlets" : 1,
									"outlettype" : [ "int" ]
								}

							}
, 							{
								"box" : 								{
									"maxclass" : "message",
									"text" : "\/gdif\/body\/on $1",
									"patching_rect" : [ 53.0, 157.0, 91.0, 15.0 ],
									"fontname" : "Verdana",
									"id" : "obj-30",
									"numinlets" : 2,
									"numoutlets" : 1,
									"fontsize" : 9.0,
									"outlettype" : [ "" ]
								}

							}
, 							{
								"box" : 								{
									"maxclass" : "newobj",
									"text" : "r jmod.init",
									"patching_rect" : [ 232.0, 414.0, 58.0, 17.0 ],
									"fontname" : "Verdana",
									"hidden" : 1,
									"id" : "obj-31",
									"numinlets" : 0,
									"numoutlets" : 1,
									"fontsize" : 9.0,
									"outlettype" : [ "" ]
								}

							}
, 							{
								"box" : 								{
									"maxclass" : "newobj",
									"text" : "t front",
									"patching_rect" : [ 277.0, 387.0, 40.0, 17.0 ],
									"fontname" : "Verdana",
									"hidden" : 1,
									"id" : "obj-32",
									"numinlets" : 1,
									"numoutlets" : 1,
									"fontsize" : 9.0,
									"outlettype" : [ "front" ]
								}

							}
, 							{
								"box" : 								{
									"maxclass" : "newobj",
									"text" : "jcom.oscroute \/open_inspector",
									"patching_rect" : [ 277.0, 366.0, 151.0, 17.0 ],
									"fontname" : "Verdana",
									"hidden" : 1,
									"id" : "obj-33",
									"numinlets" : 1,
									"numoutlets" : 2,
									"fontsize" : 9.0,
									"outlettype" : [ "", "" ]
								}

							}
, 							{
								"box" : 								{
									"maxclass" : "toggle",
									"varname" : "Raw",
									"patching_rect" : [ 36.0, 79.0, 15.0, 15.0 ],
									"id" : "obj-34",
									"numinlets" : 1,
									"numoutlets" : 1,
									"outlettype" : [ "int" ]
								}

							}
, 							{
								"box" : 								{
									"maxclass" : "message",
									"text" : "\/gdif\/raw\/on $1",
									"patching_rect" : [ 53.0, 79.0, 88.0, 15.0 ],
									"fontname" : "Verdana",
									"id" : "obj-35",
									"numinlets" : 2,
									"numoutlets" : 1,
									"fontsize" : 9.0,
									"outlettype" : [ "" ]
								}

							}
, 							{
								"box" : 								{
									"maxclass" : "comment",
									"text" : "GDIF",
									"patching_rect" : [ 36.0, 34.0, 86.0, 21.0 ],
									"fontname" : "Verdana",
									"id" : "obj-36",
									"numinlets" : 1,
									"numoutlets" : 0,
									"fontsize" : 10.533333
								}

							}
, 							{
								"box" : 								{
									"maxclass" : "inlet",
									"patching_rect" : [ 277.0, 346.0, 15.0, 15.0 ],
									"hidden" : 1,
									"id" : "obj-37",
									"numinlets" : 0,
									"numoutlets" : 1,
									"outlettype" : [ "" ],
									"comment" : ""
								}

							}
, 							{
								"box" : 								{
									"maxclass" : "message",
									"text" : "patcher more features",
									"patching_rect" : [ 232.0, 436.0, 111.0, 15.0 ],
									"fontname" : "Verdana",
									"hidden" : 1,
									"id" : "obj-38",
									"numinlets" : 2,
									"numoutlets" : 1,
									"fontsize" : 9.0,
									"outlettype" : [ "" ]
								}

							}
, 							{
								"box" : 								{
									"maxclass" : "newobj",
									"text" : "thispatcher",
									"patching_rect" : [ 232.0, 455.0, 61.0, 17.0 ],
									"fontname" : "Verdana",
									"hidden" : 1,
									"id" : "obj-39",
									"numinlets" : 1,
									"numoutlets" : 2,
									"fontsize" : 9.0,
									"outlettype" : [ "", "" ],
									"save" : [ "#N", "thispatcher", ";", "#Q", "end", ";" ]
								}

							}
, 							{
								"box" : 								{
									"maxclass" : "comment",
									"text" : "Acquisition",
									"patching_rect" : [ 36.0, 62.0, 100.0, 17.0 ],
									"fontname" : "Verdana",
									"id" : "obj-40",
									"numinlets" : 1,
									"numoutlets" : 0,
									"fontsize" : 9.0
								}

							}
 ],
						"lines" : [ 							{
								"patchline" : 								{
									"source" : [ "obj-34", 0 ],
									"destination" : [ "obj-35", 0 ],
									"hidden" : 1
								}

							}
, 							{
								"patchline" : 								{
									"source" : [ "obj-19", 0 ],
									"destination" : [ "obj-20", 0 ],
									"hidden" : 1
								}

							}
, 							{
								"patchline" : 								{
									"source" : [ "obj-29", 0 ],
									"destination" : [ "obj-30", 0 ],
									"hidden" : 1
								}

							}
, 							{
								"patchline" : 								{
									"source" : [ "obj-27", 0 ],
									"destination" : [ "obj-28", 0 ],
									"hidden" : 1
								}

							}
, 							{
								"patchline" : 								{
									"source" : [ "obj-25", 0 ],
									"destination" : [ "obj-26", 0 ],
									"hidden" : 1
								}

							}
, 							{
								"patchline" : 								{
									"source" : [ "obj-23", 0 ],
									"destination" : [ "obj-24", 0 ],
									"hidden" : 1
								}

							}
, 							{
								"patchline" : 								{
									"source" : [ "obj-21", 0 ],
									"destination" : [ "obj-22", 0 ],
									"hidden" : 1
								}

							}
, 							{
								"patchline" : 								{
									"source" : [ "obj-15", 0 ],
									"destination" : [ "obj-7", 0 ],
									"hidden" : 1
								}

							}
, 							{
								"patchline" : 								{
									"source" : [ "obj-14", 0 ],
									"destination" : [ "obj-6", 0 ],
									"hidden" : 1
								}

							}
, 							{
								"patchline" : 								{
									"source" : [ "obj-13", 0 ],
									"destination" : [ "obj-5", 0 ],
									"hidden" : 1
								}

							}
, 							{
								"patchline" : 								{
									"source" : [ "obj-12", 0 ],
									"destination" : [ "obj-4", 0 ],
									"hidden" : 1
								}

							}
, 							{
								"patchline" : 								{
									"source" : [ "obj-11", 0 ],
									"destination" : [ "obj-3", 0 ],
									"hidden" : 1
								}

							}
, 							{
								"patchline" : 								{
									"source" : [ "obj-10", 0 ],
									"destination" : [ "obj-2", 0 ],
									"hidden" : 1
								}

							}
, 							{
								"patchline" : 								{
									"source" : [ "obj-9", 0 ],
									"destination" : [ "obj-1", 0 ],
									"hidden" : 1
								}

							}
, 							{
								"patchline" : 								{
									"source" : [ "obj-31", 0 ],
									"destination" : [ "obj-38", 0 ],
									"hidden" : 1
								}

							}
, 							{
								"patchline" : 								{
									"source" : [ "obj-38", 0 ],
									"destination" : [ "obj-39", 0 ],
									"hidden" : 1
								}

							}
, 							{
								"patchline" : 								{
									"source" : [ "obj-32", 0 ],
									"destination" : [ "obj-39", 0 ],
									"hidden" : 1
								}

							}
, 							{
								"patchline" : 								{
									"source" : [ "obj-37", 0 ],
									"destination" : [ "obj-33", 0 ],
									"hidden" : 1
								}

							}
, 							{
								"patchline" : 								{
									"source" : [ "obj-33", 0 ],
									"destination" : [ "obj-32", 0 ],
									"hidden" : 1
								}

							}
, 							{
								"patchline" : 								{
									"source" : [ "obj-7", 0 ],
									"destination" : [ "obj-15", 0 ],
									"hidden" : 1
								}

							}
, 							{
								"patchline" : 								{
									"source" : [ "obj-6", 0 ],
									"destination" : [ "obj-14", 0 ],
									"hidden" : 1
								}

							}
, 							{
								"patchline" : 								{
									"source" : [ "obj-5", 0 ],
									"destination" : [ "obj-13", 0 ],
									"hidden" : 1
								}

							}
, 							{
								"patchline" : 								{
									"source" : [ "obj-4", 0 ],
									"destination" : [ "obj-12", 0 ],
									"hidden" : 1
								}

							}
, 							{
								"patchline" : 								{
									"source" : [ "obj-3", 0 ],
									"destination" : [ "obj-11", 0 ],
									"hidden" : 1
								}

							}
, 							{
								"patchline" : 								{
									"source" : [ "obj-2", 0 ],
									"destination" : [ "obj-10", 0 ],
									"hidden" : 1
								}

							}
, 							{
								"patchline" : 								{
									"source" : [ "obj-1", 0 ],
									"destination" : [ "obj-9", 0 ],
									"hidden" : 1
								}

							}
 ]
					}
,
					"saved_object_attributes" : 					{
						"default_fontface" : 0,
						"fontname" : "Verdana",
						"default_fontname" : "Verdana",
						"fontface" : 0,
						"globalpatchername" : "",
						"fontsize" : 10.0,
						"default_fontsize" : 10.0
					}

				}

			}
, 			{
				"box" : 				{
					"maxclass" : "message",
					"text" : "\/preset\/store 1 default, \/preset\/write",
					"patching_rect" : [ 49.0, 72.0, 191.0, 15.0 ],
					"fontname" : "Verdana",
					"id" : "obj-11",
					"numinlets" : 2,
					"numoutlets" : 1,
					"fontsize" : 9.0,
					"bgcolor" : [ 0.8, 0.54902, 0.54902, 1.0 ],
					"outlettype" : [ "" ]
				}

			}
, 			{
				"box" : 				{
					"maxclass" : "newobj",
					"text" : "jcom.return return_c @range/bounds 0. 1.",
					"patching_rect" : [ 213.0, 305.0, 167.0, 17.0 ],
					"fontname" : "Verdana",
					"id" : "obj-12",
					"numinlets" : 1,
					"numoutlets" : 2,
					"fontsize" : 9.0,
					"outlettype" : [ "", "" ]
				}

			}
, 			{
				"box" : 				{
					"maxclass" : "newobj",
					"text" : "jcom.in",
					"patching_rect" : [ 72.0, 149.0, 43.0, 17.0 ],
					"fontname" : "Verdana",
					"id" : "obj-13",
					"numinlets" : 0,
					"numoutlets" : 1,
					"fontsize" : 9.0,
					"outlettype" : [ "" ]
				}

			}
, 			{
				"box" : 				{
					"maxclass" : "newobj",
					"text" : "pcontrol",
					"patching_rect" : [ 213.0, 223.0, 45.0, 17.0 ],
					"fontname" : "Verdana",
					"id" : "obj-14",
					"numinlets" : 1,
					"numoutlets" : 1,
					"fontsize" : 9.0,
					"outlettype" : [ "" ]
				}

			}
, 			{
				"box" : 				{
					"maxclass" : "newobj",
					"text" : "jcom.pass open",
					"patching_rect" : [ 213.0, 199.0, 78.0, 17.0 ],
					"fontname" : "Verdana",
					"id" : "obj-15",
					"numinlets" : 1,
					"numoutlets" : 2,
					"fontsize" : 9.0,
					"outlettype" : [ "", "" ]
				}

			}
, 			{
				"box" : 				{
					"maxclass" : "message",
					"text" : ";\rmax refresh",
					"linecount" : 2,
					"patching_rect" : [ 23.0, 364.0, 65.0, 26.0 ],
					"fontname" : "Verdana",
					"id" : "obj-16",
					"numinlets" : 2,
					"numoutlets" : 1,
					"fontsize" : 9.0,
					"outlettype" : [ "" ]
				}

			}
, 			{
				"box" : 				{
					"maxclass" : "message",
					"text" : "\/init",
					"patching_rect" : [ 185.0, 89.0, 31.0, 15.0 ],
					"fontname" : "Verdana",
					"id" : "obj-17",
					"numinlets" : 2,
					"numoutlets" : 1,
					"fontsize" : 9.0,
					"outlettype" : [ "" ]
				}

			}
, 			{
				"box" : 				{
					"maxclass" : "newobj",
					"text" : "jalg.continuum.mxt",
					"patching_rect" : [ 213.0, 280.0, 96.0, 17.0 ],
					"fontname" : "Verdana",
					"id" : "obj-18",
					"numinlets" : 1,
					"numoutlets" : 1,
					"fontsize" : 9.0,
					"outlettype" : [ "" ]
				}

			}
, 			{
				"box" : 				{
					"maxclass" : "newobj",
					"varname" : "jcom.hub",
					"text" : "jcom.hub jmod.continuum @size 1U-half @module_type control @inspector 1 @description \"A module receving input from the Haken Continuum Fingerboard.\"",
					"linecount" : 2,
					"patching_rect" : [ 16.0, 114.0, 368.0, 28.0 ],
					"fontname" : "Verdana",
					"id" : "obj-19",
					"numinlets" : 1,
					"numoutlets" : 2,
					"fontsize" : 9.0,
					"outlettype" : [ "", "" ]
				}

			}
, 			{
				"box" : 				{
					"maxclass" : "inlet",
					"patching_rect" : [ 16.0, 90.0, 13.0, 13.0 ],
					"id" : "obj-20",
					"numinlets" : 0,
					"numoutlets" : 1,
					"outlettype" : [ "" ],
					"comment" : ""
				}

			}
, 			{
				"box" : 				{
					"maxclass" : "outlet",
					"patching_rect" : [ 16.0, 316.0, 13.0, 13.0 ],
					"id" : "obj-21",
					"numinlets" : 1,
					"numoutlets" : 0,
					"comment" : ""
				}

			}
, 			{
				"box" : 				{
					"maxclass" : "message",
					"text" : "\/documentation\/html",
					"patching_rect" : [ 319.0, 281.0, 172.0, 15.0 ],
					"fontname" : "Verdana",
					"id" : "obj-22",
					"numinlets" : 2,
					"numoutlets" : 1,
					"fontsize" : 9.0,
					"outlettype" : [ "" ]
				}

			}
, 			{
				"box" : 				{
					"maxclass" : "newobj",
					"text" : "prepend set",
					"patching_rect" : [ 319.0, 260.0, 61.0, 17.0 ],
					"fontname" : "Verdana",
					"id" : "obj-23",
					"numinlets" : 1,
					"numoutlets" : 1,
					"fontsize" : 9.0,
					"outlettype" : [ "" ]
				}

			}
, 			{
				"box" : 				{
					"maxclass" : "message",
					"text" : "\/documentation\/generate",
					"patching_rect" : [ 56.0, 89.0, 125.0, 15.0 ],
					"fontname" : "Verdana",
					"id" : "obj-24",
					"numinlets" : 2,
					"numoutlets" : 1,
					"fontsize" : 9.0,
					"bgcolor" : [ 0.8, 0.54902, 0.54902, 1.0 ],
					"outlettype" : [ "" ]
				}

			}
, 			{
				"box" : 				{
					"maxclass" : "jcom.ui",
					"text" : "\/Jamoma",
					"color" : [ 1.0, 1.0, 1.0, 1.0 ],
					"id" : "obj-26",
					"numinlets" : 1,
					"textcolor" : [ 0.65, 0.65, 0.65, 1.0 ],
					"numoutlets" : 1,
					"outlettype" : [ "" ]
				}

			}
 ],
		"lines" : [ 			{
				"patchline" : 				{
					"source" : [ "obj-11", 0 ],
					"destination" : [ "obj-19", 0 ],
					"hidden" : 0,
					"midpoints" : [ 58.5, 110.0, 25.5, 110.0 ]
				}

			}
, 			{
				"patchline" : 				{
					"source" : [ "obj-24", 0 ],
					"destination" : [ "obj-19", 0 ],
					"hidden" : 0,
					"midpoints" : [ 65.5, 110.0, 25.5, 110.0 ]
				}

			}
, 			{
				"patchline" : 				{
					"source" : [ "obj-20", 0 ],
					"destination" : [ "obj-19", 0 ],
					"hidden" : 0
				}

			}
, 			{
				"patchline" : 				{
					"source" : [ "obj-17", 0 ],
					"destination" : [ "obj-19", 0 ],
					"hidden" : 0,
					"midpoints" : [ 194.5, 110.0, 25.5, 110.0 ]
				}

			}
, 			{
				"patchline" : 				{
					"source" : [ "obj-19", 0 ],
					"destination" : [ "obj-21", 0 ],
					"hidden" : 0
				}

			}
, 			{
				"patchline" : 				{
					"source" : [ "obj-13", 0 ],
					"destination" : [ "obj-9", 0 ],
					"hidden" : 0
				}

			}
, 			{
				"patchline" : 				{
					"source" : [ "obj-9", 0 ],
					"destination" : [ "obj-8", 0 ],
					"hidden" : 0
				}

			}
, 			{
				"patchline" : 				{
					"source" : [ "obj-8", 0 ],
					"destination" : [ "obj-7", 0 ],
					"hidden" : 0
				}

			}
, 			{
				"patchline" : 				{
					"source" : [ "obj-7", 0 ],
					"destination" : [ "obj-10", 0 ],
					"hidden" : 0
				}

			}
, 			{
				"patchline" : 				{
					"source" : [ "obj-9", 1 ],
					"destination" : [ "obj-15", 0 ],
					"hidden" : 0
				}

			}
, 			{
				"patchline" : 				{
					"source" : [ "obj-15", 0 ],
					"destination" : [ "obj-14", 0 ],
					"hidden" : 0
				}

			}
, 			{
				"patchline" : 				{
					"source" : [ "obj-15", 1 ],
					"destination" : [ "obj-18", 0 ],
					"hidden" : 0,
					"midpoints" : [ 281.5, 271.0, 222.5, 271.0 ]
				}

			}
, 			{
				"patchline" : 				{
					"source" : [ "obj-14", 0 ],
					"destination" : [ "obj-18", 0 ],
					"hidden" : 0
				}

			}
, 			{
				"patchline" : 				{
					"source" : [ "obj-18", 0 ],
					"destination" : [ "obj-12", 0 ],
					"hidden" : 0
				}

			}
, 			{
				"patchline" : 				{
					"source" : [ "obj-15", 1 ],
					"destination" : [ "obj-23", 0 ],
					"hidden" : 0,
					"midpoints" : [ 281.5, 251.0, 328.5, 251.0 ]
				}

			}
, 			{
				"patchline" : 				{
					"source" : [ "obj-23", 0 ],
					"destination" : [ "obj-22", 0 ],
					"hidden" : 0
				}

			}
, 			{
				"patchline" : 				{
					"source" : [ "obj-6", 0 ],
					"destination" : [ "obj-1", 0 ],
					"hidden" : 0,
					"midpoints" : [ 502.5, 132.0, 485.0, 132.0, 485.0, 68.0, 502.5, 68.0 ]
				}

			}
, 			{
				"patchline" : 				{
					"source" : [ "obj-4", 0 ],
					"destination" : [ "obj-1", 0 ],
					"hidden" : 0
				}

			}
, 			{
				"patchline" : 				{
					"source" : [ "obj-1", 1 ],
					"destination" : [ "obj-6", 0 ],
					"hidden" : 0,
					"midpoints" : [ 555.5, 92.0, 502.5, 92.0 ]
				}

			}
, 			{
				"patchline" : 				{
					"source" : [ "obj-2", 0 ],
					"destination" : [ "obj-4", 1 ],
					"hidden" : 0
				}

			}
 ]
	}

}
