{
	"patcher" : 	{
		"rect" : [ 149.0, 44.0, 370.0, 810.0 ],
		"bglocked" : 0,
		"defrect" : [ 149.0, 44.0, 370.0, 810.0 ],
		"openinpresentation" : 0,
		"default_fontsize" : 10.0,
		"default_fontface" : 0,
		"default_fontname" : "Verdana",
		"gridonopen" : 0,
		"gridsize" : [ 5.0, 5.0 ],
		"gridsnaponopen" : 0,
		"toolbarvisible" : 1,
		"boxfadetime" : 200,
		"boxanimatetime" : 200,
		"scrollanimatetime" : 200,
		"metadata" : [  ],
		"boxes" : [ 			{
				"box" : 				{
					"maxclass" : "ezdac~",
					"patching_rect" : [ 297.0, 183.0, 33.0, 33.0 ],
					"id" : "obj-1",
					"numinlets" : 2,
					"numoutlets" : 0
				}

			}
, 			{
				"box" : 				{
					"maxclass" : "bpatcher",
					"varname" : "jmod.output~",
					"patching_rect" : [ 46.0, 667.0, 300.0, 141.0 ],
					"name" : "jmod.output~.maxpat",
					"lockeddragscroll" : 1,
					"id" : "obj-2",
					"numinlets" : 3,
					"numoutlets" : 1,
					"args" : [ "\/output" ],
					"outlettype" : [ "" ]
				}

			}
, 			{
				"box" : 				{
					"maxclass" : "bpatcher",
					"varname" : "jmod.vst~[1]",
					"patching_rect" : [ 46.0, 455.0, 300.0, 210.0 ],
					"name" : "jmod.vst~.maxpat",
					"lockeddragscroll" : 1,
					"id" : "obj-3",
					"numinlets" : 3,
					"numoutlets" : 3,
					"args" : [ "\/vst~.2" ],
					"outlettype" : [ "", "", "" ]
				}

			}
, 			{
				"box" : 				{
					"maxclass" : "bpatcher",
					"varname" : "jmod.vst~",
					"patching_rect" : [ 46.0, 243.0, 300.0, 210.0 ],
					"name" : "jmod.vst~.maxpat",
					"lockeddragscroll" : 1,
					"id" : "obj-4",
					"numinlets" : 3,
					"numoutlets" : 3,
					"args" : [ "\/vst~.1" ],
					"outlettype" : [ "", "", "" ]
				}

			}
, 			{
				"box" : 				{
					"maxclass" : "newobj",
					"text" : "loadmess target 0",
					"patching_rect" : [ 61.0, 175.0, 91.0, 17.0 ],
					"fontname" : "Verdana",
					"id" : "obj-5",
					"numinlets" : 1,
					"numoutlets" : 1,
					"fontsize" : 9.0,
					"outlettype" : [ "" ]
				}

			}
, 			{
				"box" : 				{
					"maxclass" : "newobj",
					"text" : "poly~ jmod.continuum_synth 10",
					"patching_rect" : [ 46.0, 199.0, 175.0, 17.0 ],
					"fontname" : "Verdana",
					"id" : "obj-6",
					"numinlets" : 1,
					"numoutlets" : 1,
					"fontsize" : 9.0,
					"outlettype" : [ "signal" ]
				}

			}
, 			{
				"box" : 				{
					"maxclass" : "comment",
					"text" : "jmod.continuum",
					"patching_rect" : [ 16.0, 29.0, 189.0, 28.0 ],
					"fontname" : "Verdana",
					"frgb" : [ 1.0, 1.0, 1.0, 1.0 ],
					"id" : "obj-7",
					"numinlets" : 1,
					"textcolor" : [ 1.0, 1.0, 1.0, 1.0 ],
					"numoutlets" : 0,
					"fontsize" : 15.799999
				}

			}
, 			{
				"box" : 				{
					"maxclass" : "comment",
					"text" : "module interfacing with the Haken Continuum Fingerboard",
					"patching_rect" : [ 16.0, 55.0, 267.0, 17.0 ],
					"fontname" : "Verdana",
					"frgb" : [ 1.0, 1.0, 1.0, 1.0 ],
					"id" : "obj-8",
					"numinlets" : 1,
					"textcolor" : [ 1.0, 1.0, 1.0, 1.0 ],
					"numoutlets" : 0,
					"fontsize" : 9.0
				}

			}
, 			{
				"box" : 				{
					"maxclass" : "panel",
					"bordercolor" : [ 0.501961, 0.043137, 0.039216, 1.0 ],
					"patching_rect" : [ 10.0, 13.0, 289.0, 63.0 ],
					"rounded" : 0,
					"id" : "obj-9",
					"numinlets" : 1,
					"numoutlets" : 0,
					"bgcolor" : [ 0.262745, 0.254902, 0.419608, 1.0 ]
				}

			}
, 			{
				"box" : 				{
					"maxclass" : "bpatcher",
					"varname" : "jmod.continuum",
					"patching_rect" : [ 46.0, 86.0, 255.0, 60.0 ],
					"name" : "jmod.continuum.maxpat",
					"lockeddragscroll" : 1,
					"id" : "obj-10",
					"numinlets" : 1,
					"numoutlets" : 1,
					"args" : [ "\/continuum" ],
					"outlettype" : [ "" ]
				}

			}
, 			{
				"box" : 				{
					"maxclass" : "newobj",
					"text" : "jcom.oscroute \/gdif\/cooked\/voice",
					"patching_rect" : [ 46.0, 152.0, 166.0, 17.0 ],
					"fontname" : "Verdana",
					"id" : "obj-11",
					"numinlets" : 1,
					"numoutlets" : 2,
					"fontsize" : 9.0,
					"outlettype" : [ "", "" ]
				}

			}
 ],
		"lines" : [ 			{
				"patchline" : 				{
					"source" : [ "obj-10", 0 ],
					"destination" : [ "obj-11", 0 ],
					"hidden" : 0
				}

			}
, 			{
				"patchline" : 				{
					"source" : [ "obj-11", 0 ],
					"destination" : [ "obj-6", 0 ],
					"hidden" : 0
				}

			}
, 			{
				"patchline" : 				{
					"source" : [ "obj-5", 0 ],
					"destination" : [ "obj-6", 0 ],
					"hidden" : 0
				}

			}
, 			{
				"patchline" : 				{
					"source" : [ "obj-6", 0 ],
					"destination" : [ "obj-4", 1 ],
					"hidden" : 0,
					"midpoints" : [ 55.5, 239.0, 196.0, 239.0 ]
				}

			}
, 			{
				"patchline" : 				{
					"source" : [ "obj-4", 1 ],
					"destination" : [ "obj-3", 1 ],
					"hidden" : 0
				}

			}
, 			{
				"patchline" : 				{
					"source" : [ "obj-3", 1 ],
					"destination" : [ "obj-2", 1 ],
					"hidden" : 0
				}

			}
, 			{
				"patchline" : 				{
					"source" : [ "obj-6", 0 ],
					"destination" : [ "obj-4", 2 ],
					"hidden" : 0,
					"midpoints" : [ 55.5, 235.0, 336.5, 235.0 ]
				}

			}
, 			{
				"patchline" : 				{
					"source" : [ "obj-4", 2 ],
					"destination" : [ "obj-3", 2 ],
					"hidden" : 0
				}

			}
, 			{
				"patchline" : 				{
					"source" : [ "obj-3", 2 ],
					"destination" : [ "obj-2", 2 ],
					"hidden" : 0
				}

			}
 ]
	}

}
