max v2;#N vpatcher 411 224 1300 788;#P window setfont "Sans Serif" 9.;#P hidden comment 398 396 124 196617 multichannel signal outlet;#P hidden message 91 147 191 196617 /preset/store 1 default \, /preset/write;#B color 3;#P hidden newex 225 247 43 196617 jcom.in;#P hidden newex 225 268 78 196617 jcom.pass open;#P hidden newex 225 290 47 196617 pcontrol;#P hidden message 293 317 20 196617 \$2;#P hidden newex 293 294 59 196617 route mute;#P hidden newex 293 337 38 196617 mute~;#P window linecount 2;#P hidden newex 467 263 254 196617 jcom.parameter meter @type msg_toggle @description "Enable or disable monotoring of levels.";#P objectname meter;#P window linecount 1;#P hidden newex 467 235 61 196617 pvar Meter;#P hidden message 108 166 125 196617 /documentation/generate;#N vpatcher 203 50 1201 802;#P origin 0 1;#P window setfont "Sans Serif" 9.;#P window linecount 1;#P newex 747 654 145 196617 jcom.freeze_display $0_;#P window linecount 2;#P newex 256 221 449 196617 jcom.parameter r/gain @type msg_float @range -24 24 @range/clipmode both @repetitions 0 @ramp/drive scheduler @description "Adjustment of volum for Nth component of ambisonic signal.";#P objectname r/gain;#P window linecount 1;#P newex 747 700 57 196617 prepend set;#P newex 747 677 44 196617 qlim 65;#P newex 747 631 217 196617 pak 0. 0. 0. 0. 0. 0. 0. 0. 0. 0. 0. 0. 0. 0. 0. 0.;#P newex 3 57 232 196617 unpack 0. 0. 0. 0. 0. 0. 0. 0. 0. 0. 0. 0. 0. 0. 0. 0.;#P inlet 3 23 15 0;#P outlet 747 723 15 0;#P window linecount 0;#P newex 256 89 449 196617 jcom.parameter w/gain @type msg_float @range -24 24 @range/clipmode both @repetitions 1 @ramp/drive scheduler @description "Adjustment of volum for Nth component of ambisonic signal.";#P objectname w/gain;#P newex 256 122 449 196617 jcom.parameter x/gain @type msg_float @range -24 24 @range/clipmode both @repetitions 0 @ramp/drive scheduler @description "Adjustment of volum for Nth component of ambisonic signal.";#P objectname x/gain;#P newex 256 155 449 196617 jcom.parameter y/gain @type msg_float @range -24 24 @range/clipmode both @repetitions 0 @ramp/drive scheduler @description "Adjustment of volum for Nth component of ambisonic signal.";#P objectname y/gain;#P newex 256 188 449 196617 jcom.parameter z/gain @type msg_float @range -24 24 @range/clipmode both @repetitions 0 @ramp/drive scheduler @description "Adjustment of volum for Nth component of ambisonic signal.";#P objectname z/gain;#P newex 256 254 449 196617 jcom.parameter s/gain @type msg_float @range -24 24 @range/clipmode both @repetitions 0 @ramp/drive scheduler @description "Adjustment of volum for Nth component of ambisonic signal.";#P objectname s/gain;#P newex 256 287 449 196617 jcom.parameter t/gain @type msg_float @range -24 24 @range/clipmode both @repetitions 0 @ramp/drive scheduler @description "Adjustment of volum for Nth component of ambisonic signal.";#P objectname t/gain;#P newex 256 320 449 196617 jcom.parameter u/gain @type msg_float @range -24 24 @range/clipmode both @repetitions 0 @ramp/drive scheduler @description "Adjustment of volum for Nth component of ambisonic signal.";#P objectname u/gain;#P newex 255 353 449 196617 jcom.parameter v/gain @type msg_float @range -24 24 @range/clipmode both @repetitions 0 @ramp/drive scheduler @description "Adjustment of volum for Nth component of ambisonic signal.";#P objectname v/gain;#P newex 255 386 449 196617 jcom.parameter k/gain @type msg_float @range -24 24 @range/clipmode both @repetitions 0 @ramp/drive scheduler @description "Adjustment of volum for Nth component of ambisonic signal.";#P objectname k/gain;#P newex 255 419 449 196617 jcom.parameter l/gain @type msg_float @range -24 24 @range/clipmode both @repetitions 0 @ramp/drive scheduler @description "Adjustment of volum for Nth component of ambisonic signal.";#P objectname l/gain;#P newex 255 452 449 196617 jcom.parameter m/gain @type msg_float @range -24 24 @range/clipmode both @repetitions 0 @ramp/drive scheduler @description "Adjustment of volum for Nth component of ambisonic signal.";#P objectname m/gain;#P newex 255 485 449 196617 jcom.parameter n/gain @type msg_float @range -24 24 @range/clipmode both @repetitions 0 @ramp/drive scheduler @description "Adjustment of volum for Nth component of ambisonic signal.";#P objectname n/gain;#P newex 255 518 449 196617 jcom.parameter o/gain @type msg_float @range -24 24 @range/clipmode both @repetitions 0 @ramp/drive scheduler @description "Adjustment of volum for Nth component of ambisonic signal.";#P objectname o/gain;#P newex 255 551 449 196617 jcom.parameter p/gain @type msg_float @range -24 24 @range/clipmode both @repetitions 0 @ramp/drive scheduler @description "Adjustment of volum for Nth component of ambisonic signal.";#P objectname p/gain;#P newex 255 584 449 196617 jcom.parameter q/gain @type msg_float @range -24 24 @range/clipmode both @repetitions 0 @ramp/drive scheduler @description "Adjustment of volum for Nth component of ambisonic signal.";#P objectname q/gain;#P comment 756 165 100 196617 Xenakis-patching...;#P connect 17 0 18 0;#P connect 18 8 8 0;#P lcolor 1;#P connect 18 9 7 0;#P lcolor 1;#P connect 18 10 6 0;#P lcolor 1;#P connect 18 11 5 0;#P lcolor 1;#P connect 18 12 4 0;#P lcolor 1;#P connect 18 13 3 0;#P lcolor 1;#P connect 18 14 2 0;#P lcolor 1;#P connect 18 15 1 0;#P lcolor 1;#P connect 18 0 15 0;#P lcolor 1;#P connect 18 1 14 0;#P lcolor 1;#P connect 18 2 13 0;#P lcolor 1;#P connect 18 3 12 0;#P lcolor 1;#P connect 18 4 22 0;#P lcolor 1;#P connect 18 5 11 0;#P lcolor 1;#P connect 18 6 10 0;#P lcolor 1;#P connect 18 7 9 0;#P lcolor 1;#P connect 15 1 19 0;#P lcolor 1;#P connect 19 0 23 0;#P connect 23 0 20 0;#P connect 20 0 21 0;#P connect 21 0 16 0;#P connect 14 1 19 1;#P lcolor 1;#P connect 13 1 19 2;#P lcolor 1;#P connect 12 1 19 3;#P lcolor 1;#P connect 22 1 19 4;#P lcolor 1;#P connect 11 1 19 5;#P lcolor 1;#P connect 10 1 19 6;#P lcolor 1;#P connect 9 1 19 7;#P lcolor 1;#P connect 8 1 19 8;#P lcolor 1;#P connect 7 1 19 9;#P lcolor 1;#P connect 6 1 19 10;#P lcolor 1;#P connect 5 1 19 11;#P lcolor 1;#P connect 4 1 19 12;#P lcolor 1;#P connect 3 1 19 13;#P lcolor 1;#P connect 2 1 19 14;#P lcolor 1;#P connect 1 1 19 15;#P lcolor 1;#P pop;#P hidden newobj 225 426 38 196617 p gains;#P objectname gains;#P hidden newex 225 397 123 196617 pvar jsui_multigain;#P window linecount 2;#P hidden newex 467 167 346 196617 jcom.parameter mute @type msg_toggle @description "When active\\\, this attribute turns off the module's processing algorithm to save CPU";#P objectname mute;#P window linecount 1;#P hidden newex 467 145 56 196617 pvar Mute;#P objectname jcom.parameter[2];#P user pictctrl 238 3 11 11 jcom.button.mute.pct 0 0 1 1 26 0 0 0 11 11 128 0 1 10 2 1 1 270;#P objectname Mute;#P user jsui 9 21 236 80 1 0 0 jcom.jsui_multigain.js 16 16 1 1;#P objectname jsui_multigain;#P window linecount 2;#P hidden message 47 373 65 196617 \; max refresh;#P window linecount 1;#P hidden newex 467 37 67 196617 pvar Order;#P window linecount 3;#P hidden newex 0 186 310 196617 jcom.hub jcom.sur.ambi.adjust~ @size 2U-half @module_type audio.no_panel @description "Adjust relative weight of components of ambisonic signal.";#P objectname jcom.hub;#P window linecount 1;#P hidden comment 14 167 79 196617 command input;#P hidden inlet 0 167 13 0;#P window linecount 2;#P hidden message 47 341 72 196617 \; jcom.init bang;#P window linecount 3;#P hidden newex 467 63 314 196617 jcom.parameter order @type msg_int @range 1 3 @range/clipmode both  @repetitions 1 @description "Ambisonic order. Note: Order is only updated when audio is not running.";#P objectname order;#P window linecount 1;#P hidden newex 225 367 163 196617 jalg.sur.ambi.adjust~;#P hidden outlet 0 261 13 0;#P hidden outlet 378 394 13 0;#P comment 9 104 37 196617 Order:;#B frgb 172 172 172;#P number 45 102 20 9 1 3 8227 3 198 198 198 221 221 221 222 222 222 0 0 0;#P objectname Order;#P comment 209 104 40 196617 Meter;#B frgb 172 172 172;#P user radiogroup 194 101 54 16;#X size 1;#X offset 16;#X inactive 0;#X itemtype 1;#X flagmode 0;#X set 1;#X done;#P objectname Meter;#P hidden comment 402 343 124 196617 multichannel signal inlet;#P hidden inlet 378 345 13 0;#P bpatcher 0 0 255 120 0 0 jcom.gui 0;#P objectname jcom.gui.1Uh.a.stereo;#P hidden fasten 23 0 14 0 113 183 5 183;#P hidden connect 12 0 14 0;#P hidden fasten 32 0 14 0 96 182 5 182;#P hidden connect 14 0 8 0;#P hidden connect 31 0 30 0;#P hidden connect 30 0 29 0;#P hidden connect 29 0 9 0;#P hidden fasten 26 0 9 0 298 360 230 360;#P hidden fasten 27 1 9 0 347 360 230 360;#P hidden fasten 9 0 21 0 230 388 230 388;#P hidden fasten 22 0 21 0 230 450 222 450 222 392 230 392;#P hidden connect 21 0 22 0;#P hidden connect 30 1 27 0;#P hidden connect 27 0 28 0;#P hidden connect 28 0 26 0;#P hidden connect 1 0 9 1;#P hidden connect 9 1 7 0;#P hidden fasten 10 0 15 0 472 112 461 112 461 33 472 33;#P hidden connect 15 0 10 0;#P hidden fasten 20 0 19 0 472 200 461 200 461 140 472 140;#P hidden connect 19 0 20 0;#P hidden fasten 25 0 24 0 472 297 459 297 459 230 472 230;#P hidden connect 24 0 25 0;#P pop;