max v2;#N vpatcher 424 164 1154 595;#P origin 0 -25;#P window setfont "Sans Serif" 9.;#P hidden newex 97 310 58 196617 jcom.out 1;#P hidden inlet 188 182 13 0;#P hidden comment 202 182 65 196617 VIDEO INPUT;#P hidden newex 188 201 78 196617 jcom.in 1;#P comment 105 46 53 196617 blue mask;#B frgb 149 149 149;#P flonum 153 46 35 9 0 0 8224 3 181 181 181 221 221 221 255 255 255 0 0 0;#P window linecount 2;#P hidden newex 386 83 272 196617 jcom.parameter mask/blue @ramp/drive scheduler @description "Sets the masking for the blue component.";#P objectname mask/blue;#P flonum 53 46 35 9 0 0 8224 3 181 181 181 221 221 221 255 255 255 0 0 0;#P window linecount 1;#P comment 11 46 48 196617 blue tint;#B frgb 149 149 149;#P window linecount 2;#P hidden newex 386 218 257 196617 jcom.parameter tint/blue @ramp/drive scheduler @description "Sets the tinting of the blue component.";#P objectname tint/blue;#P window linecount 1;#P comment 108 18 50 196617 red mask;#B frgb 149 149 149;#P comment 98 32 60 196617 green mask;#B frgb 149 149 149;#P flonum 153 18 35 9 0 0 8224 3 181 181 181 221 221 221 255 255 255 0 0 0;#P flonum 153 32 35 9 0 0 8224 3 181 181 181 221 221 221 255 255 255 0 0 0;#P window linecount 2;#P hidden newex 386 9 268 196617 jcom.parameter mask/red @ramp/drive scheduler @description "Sets the masking for the red component.";#P objectname mask/red;#P hidden newex 386 46 276 196617 jcom.parameter mask/green @ramp/drive scheduler @description "Sets the masking for the green component.";#P objectname mask/green;#P flonum 53 18 35 9 0 0 8224 3 181 181 181 221 221 221 255 255 255 0 0 0;#P window linecount 1;#P comment 14 18 65 196617 red tint;#B frgb 149 149 149;#P flonum 53 32 35 9 0 0 8224 3 181 181 181 221 221 221 255 255 255 0 0 0;#P comment 4 32 53 196617 green tint;#B frgb 149 149 149;#P window linecount 2;#P hidden newex 386 122 249 196617 jcom.parameter tint/red @ramp/drive scheduler @description "Sets the tinting of the red component.";#P objectname tint/red;#P hidden newex 386 170 268 196617 jcom.parameter tint/green @ramp/drive scheduler @description "Sets the tinting of the green component.";#P objectname tint/green;#P window linecount 3;#P hidden newex 0 109 213 196617 jcom.hub jmod.emboss% @size 1U-half @module_type video @algorithm_type jitter @description "cheesy embossing effect";#P objectname jcom.hub;#P window linecount 1;#P hidden newex 97 256 47 196617 pcontrol;#P hidden newex 97 234 78 196617 jcom.pass open;#P hidden message 103 87 125 196617 /documentation/generate;#B color 3;#P hidden comment 112 339 75 196617 VIDEO OUTPUT;#P hidden outlet 97 339 13 0;#P window linecount 2;#P hidden message 20 252 72 196617 \; jcom.init bang;#B color 3;#P window linecount 1;#P hidden comment 14 84 79 196617 command input;#P hidden outlet 0 251 13 0;#P hidden inlet 0 84 13 0;#P hidden newex 97 280 101 196617 jalg.emboss%.mxt;#P bpatcher 0 0 256 60 0 0 jcom.gui.mxt 0;#P objectname jcom.gui.1Uh.v.mxb;#P hidden fasten 8 0 11 0 108 105 5 105;#P hidden connect 2 0 11 0;#P hidden connect 11 0 3 0;#P hidden connect 13 0 17 0;#P hidden connect 12 0 15 0;#P hidden connect 24 0 26 0;#P hidden fasten 30 1 9 0 227 226 102 226;#P hidden connect 9 0 10 0;#P hidden connect 10 0 1 0;#P hidden fasten 9 1 1 0 170 277 102 277;#P hidden connect 1 0 33 0;#P hidden connect 33 0 6 0;#P hidden connect 19 0 21 0;#P hidden connect 18 0 20 0;#P hidden connect 27 0 28 0;#P hidden connect 32 0 30 0;#P hidden connect 30 0 1 1;#P hidden connect 21 0 19 0;#P hidden connect 20 0 18 0;#P hidden connect 28 0 27 0;#P hidden connect 17 0 13 0;#P hidden connect 15 0 12 0;#P hidden connect 26 0 24 0;#P pop;