max v2;
#N vpatcher 619 426 909 659;
#P origin 0 -20;
#P window setfont "Sans Serif" 9.;
#P window linecount 1;
#P newex 13 32 50 196617 route car;
#P message 13 170 52 196617 \$2 \$1 \$3;
#P newex 13 147 120 196617 pack 0. 0. 0.;
#P newex 13 55 120 196617 unpack 0. 0. 0.;
#P newex 68 124 51 196617 mod 360.;
#P outlet 13 193 15 0;
#P inlet 13 9 15 0;
#P newex 68 101 188 196617 expr (450 + (($f1 * 180.) / 3.14159));
#P newex 13 78 65 196617 cartopol;
#P connect 2 0 8 0;
#P connect 8 0 5 0;
#P connect 5 0 0 0;
#P connect 0 0 6 0;
#P connect 6 0 7 0;
#P connect 7 0 3 0;
#P connect 5 1 0 1;
#P connect 0 1 1 0;
#P connect 1 0 4 0;
#P connect 4 0 6 1;
#P connect 5 2 6 2;
#P pop;
