max v2;#N vpatcher 574 146 1038 437;#P origin -31 11;#P window setfont "Sans Serif" 9.;#P window linecount 1;#P newex 236 129 73 196617 prepend xfade;#N vpatcher 963 209 1378 519;#P window setfont "Sans Serif" 9.;#P window linecount 0;#P newex 138 90 42 196617 t 1 1;#P newex 115 151 40 196617 change;#P newex 194 153 40 196617 change;#P window linecount 1;#P newex 94 89 42 196617 t 0 2;#P window linecount 0;#P newex 50 89 42 196617 t 2 0;#P window linecount 1;#P newex 194 184 50 196617 gate 2 1;#P outlet 247 234 15 0;#P outlet 163 235 15 0;#P outlet 283 236 15 0;#P inlet 234 18 15 0;#P inlet 155 18 15 0;#P newex 115 186 50 196617 gate 2 1;#P newex 50 57 98 196617 sel 0. 1.;#P inlet 50 18 15 0;#P connect 0 0 1 0;#P connect 1 0 9 0;#P connect 1 1 10 0;#P connect 13 0 12 0;#P connect 9 0 12 0;#P connect 10 0 12 0;#P connect 12 0 2 0;#P connect 1 2 13 0;#P connect 3 0 2 1;#P lcolor 7;#P connect 2 0 6 0;#P connect 13 1 11 0;#P connect 9 1 11 0;#P connect 10 1 11 0;#P connect 11 0 8 0;#P connect 4 0 8 1;#P lcolor 7;#P connect 8 0 7 0;#P connect 8 1 5 0;#P connect 2 1 5 0;#P pop;#P newobj 100 166 81 196617 p optimize;#P newex 236 93 108 196617 jcom.oscroute /xfade;#P newex 38 53 210 196617 jcom.oscroute /genframe /direct /op_value;#P inlet 401 34 15 0;#P inlet 382 34 15 0;#P inlet 38 29 15 0;#P comment 53 241 75 196617 VIDEO OUTPUT;#P outlet 38 241 15 0;#P newex 38 212 49 196617 jit.xfade;#P connect 3 0 6 0;#P fasten 9 0 0 0 241 204 43 204;#P connect 6 0 0 0;#P connect 6 1 0 0;#P connect 8 0 0 0;#P connect 0 0 1 0;#P fasten 8 2 1 0 175 232 43 232;#P connect 8 1 0 1;#P fasten 7 0 8 0 241 120 105 120;#P fasten 4 0 8 1 387 154 140 154;#P lcolor 7;#P fasten 5 0 8 2 406 157 175 157;#P lcolor 7;#P connect 6 2 8 2;#P connect 6 3 7 0;#P connect 7 0 9 0;#P pop;