max v2;#N vpatcher 502 449 1006 716;#P origin 0 -27;#P window setfont "Sans Serif" 9.;#P window linecount 2;#P newex 22 64 257 196617 jcom.oscroute /video/bypass /video/direct /video/freeze /video/genframe /video/mute /video/preview;#P window linecount 1;#P newex 284 64 154 196617 jcom.pass @stripnonmatches 1;#P comment 416 31 75 196617 VIDEO INPUT;#P inlet 445 48 15 0;#P inlet 22 41 15 0;#P comment 78 192 75 196617 VIDEO OUTPUT;#P outlet 63 192 15 0;#P newex 63 170 53 196617 jit.avg4;#P connect 3 0 7 0;#P fasten 7 3 0 0 150 147 68 147;#P connect 7 1 0 0;#P fasten 4 0 0 0 450 164 68 164;#P lcolor 8;#P fasten 6 0 0 0 289 150 68 150;#P connect 0 0 1 0;#P connect 7 6 6 0;#P pop;