{
	"patcher" : 	{
		"fileversion" : 1,
		"rect" : [ 71.0, 69.0, 640.0, 506.0 ],
		"bglocked" : 0,
		"defrect" : [ 71.0, 69.0, 640.0, 506.0 ],
		"openrect" : [ 0.0, 0.0, 0.0, 0.0 ],
		"openinpresentation" : 0,
		"default_fontsize" : 10.0,
		"default_fontface" : 0,
		"default_fontname" : "Verdana",
		"gridonopen" : 0,
		"gridsize" : [ 5.0, 5.0 ],
		"gridsnaponopen" : 0,
		"toolbarvisible" : 1,
		"boxanimatetime" : 200,
		"imprint" : 0,
		"metadata" : [  ],
		"boxes" : [ 			{
				"box" : 				{
					"maxclass" : "ezdac~",
					"patching_rect" : [ 155.0, 210.0, 45.0, 45.0 ],
					"id" : "obj-12",
					"numinlets" : 2,
					"numoutlets" : 0
				}

			}
, 			{
				"box" : 				{
					"maxclass" : "message",
					"text" : "operator +",
					"patching_rect" : [ 285.0, 160.0, 65.0, 17.0 ],
					"id" : "obj-13",
					"fontname" : "Verdana",
					"numinlets" : 2,
					"numoutlets" : 1,
					"fontsize" : 10.0,
					"outlettype" : [ "" ]
				}

			}
, 			{
				"box" : 				{
					"maxclass" : "number~",
					"patching_rect" : [ 435.0, 300.0, 56.0, 19.0 ],
					"id" : "obj-11",
					"fontname" : "Verdana",
					"sig" : 0.0,
					"numinlets" : 2,
					"numoutlets" : 2,
					"fontsize" : 10.0,
					"outlettype" : [ "signal", "float" ],
					"mode" : 2
				}

			}
, 			{
				"box" : 				{
					"maxclass" : "number~",
					"patching_rect" : [ 375.0, 300.0, 56.0, 19.0 ],
					"id" : "obj-10",
					"fontname" : "Verdana",
					"sig" : 0.0,
					"numinlets" : 2,
					"numoutlets" : 2,
					"fontsize" : 10.0,
					"outlettype" : [ "signal", "float" ],
					"mode" : 2
				}

			}
, 			{
				"box" : 				{
					"maxclass" : "number~",
					"patching_rect" : [ 315.0, 300.0, 56.0, 19.0 ],
					"id" : "obj-9",
					"fontname" : "Verdana",
					"sig" : 0.0,
					"numinlets" : 2,
					"numoutlets" : 2,
					"fontsize" : 10.0,
					"outlettype" : [ "signal", "float" ],
					"mode" : 2
				}

			}
, 			{
				"box" : 				{
					"maxclass" : "number~",
					"patching_rect" : [ 255.0, 300.0, 56.0, 19.0 ],
					"id" : "obj-8",
					"fontname" : "Verdana",
					"sig" : 0.0,
					"numinlets" : 2,
					"numoutlets" : 2,
					"fontsize" : 10.0,
					"outlettype" : [ "signal", "float" ],
					"mode" : 2
				}

			}
, 			{
				"box" : 				{
					"maxclass" : "newobj",
					"text" : "sig~ -200",
					"patching_rect" : [ 465.0, 70.0, 60.0, 19.0 ],
					"id" : "obj-6",
					"fontname" : "Verdana",
					"numinlets" : 1,
					"numoutlets" : 1,
					"fontsize" : 10.0,
					"outlettype" : [ "signal" ]
				}

			}
, 			{
				"box" : 				{
					"maxclass" : "newobj",
					"text" : "sig~ 200",
					"patching_rect" : [ 395.0, 70.0, 55.0, 19.0 ],
					"id" : "obj-7",
					"fontname" : "Verdana",
					"numinlets" : 1,
					"numoutlets" : 1,
					"fontsize" : 10.0,
					"outlettype" : [ "signal" ]
				}

			}
, 			{
				"box" : 				{
					"maxclass" : "newobj",
					"text" : "sig~ -100",
					"patching_rect" : [ 325.0, 70.0, 60.0, 19.0 ],
					"id" : "obj-5",
					"fontname" : "Verdana",
					"numinlets" : 1,
					"numoutlets" : 1,
					"fontsize" : 10.0,
					"outlettype" : [ "signal" ]
				}

			}
, 			{
				"box" : 				{
					"maxclass" : "newobj",
					"text" : "sig~ 100",
					"patching_rect" : [ 255.0, 70.0, 55.0, 19.0 ],
					"id" : "obj-4",
					"fontname" : "Verdana",
					"numinlets" : 1,
					"numoutlets" : 1,
					"fontsize" : 10.0,
					"outlettype" : [ "signal" ]
				}

			}
, 			{
				"box" : 				{
					"maxclass" : "newobj",
					"text" : "out≈ 4",
					"patching_rect" : [ 255.0, 250.0, 259.0, 19.0 ],
					"id" : "obj-3",
					"fontname" : "Verdana",
					"numinlets" : 1,
					"numoutlets" : 5,
					"fontsize" : 10.0,
					"outlettype" : [ "signal", "signal", "signal", "signal", "" ]
				}

			}
, 			{
				"box" : 				{
					"maxclass" : "newobj",
					"text" : "op≈ @operator + @operand 5",
					"patching_rect" : [ 255.0, 190.0, 163.0, 19.0 ],
					"id" : "obj-2",
					"fontname" : "Verdana",
					"numinlets" : 1,
					"numoutlets" : 2,
					"fontsize" : 10.0,
					"outlettype" : [ "", "" ]
				}

			}
, 			{
				"box" : 				{
					"maxclass" : "newobj",
					"text" : "in≈ 4",
					"patching_rect" : [ 255.0, 125.0, 229.5, 19.0 ],
					"id" : "obj-1",
					"fontname" : "Verdana",
					"numinlets" : 4,
					"numoutlets" : 2,
					"fontsize" : 10.0,
					"outlettype" : [ "", "" ]
				}

			}
, 			{
				"box" : 				{
					"maxclass" : "message",
					"text" : "operator /",
					"patching_rect" : [ 353.0, 160.0, 61.0, 17.0 ],
					"id" : "obj-14",
					"fontname" : "Verdana",
					"numinlets" : 2,
					"numoutlets" : 1,
					"fontsize" : 10.0,
					"outlettype" : [ "" ]
				}

			}
 ],
		"lines" : [ 			{
				"patchline" : 				{
					"source" : [ "obj-3", 3 ],
					"destination" : [ "obj-11", 0 ],
					"hidden" : 0,
					"midpoints" : [  ]
				}

			}
, 			{
				"patchline" : 				{
					"source" : [ "obj-3", 2 ],
					"destination" : [ "obj-10", 0 ],
					"hidden" : 0,
					"midpoints" : [  ]
				}

			}
, 			{
				"patchline" : 				{
					"source" : [ "obj-3", 1 ],
					"destination" : [ "obj-9", 0 ],
					"hidden" : 0,
					"midpoints" : [  ]
				}

			}
, 			{
				"patchline" : 				{
					"source" : [ "obj-3", 0 ],
					"destination" : [ "obj-8", 0 ],
					"hidden" : 0,
					"midpoints" : [  ]
				}

			}
, 			{
				"patchline" : 				{
					"source" : [ "obj-6", 0 ],
					"destination" : [ "obj-1", 3 ],
					"hidden" : 0,
					"midpoints" : [  ]
				}

			}
, 			{
				"patchline" : 				{
					"source" : [ "obj-7", 0 ],
					"destination" : [ "obj-1", 2 ],
					"hidden" : 0,
					"midpoints" : [  ]
				}

			}
, 			{
				"patchline" : 				{
					"source" : [ "obj-5", 0 ],
					"destination" : [ "obj-1", 1 ],
					"hidden" : 0,
					"midpoints" : [  ]
				}

			}
, 			{
				"patchline" : 				{
					"source" : [ "obj-4", 0 ],
					"destination" : [ "obj-1", 0 ],
					"hidden" : 0,
					"midpoints" : [  ]
				}

			}
, 			{
				"patchline" : 				{
					"source" : [ "obj-1", 0 ],
					"destination" : [ "obj-2", 0 ],
					"hidden" : 0,
					"midpoints" : [  ]
				}

			}
, 			{
				"patchline" : 				{
					"source" : [ "obj-2", 0 ],
					"destination" : [ "obj-3", 0 ],
					"hidden" : 0,
					"midpoints" : [  ]
				}

			}
, 			{
				"patchline" : 				{
					"source" : [ "obj-13", 0 ],
					"destination" : [ "obj-2", 0 ],
					"hidden" : 0,
					"midpoints" : [  ]
				}

			}
, 			{
				"patchline" : 				{
					"source" : [ "obj-14", 0 ],
					"destination" : [ "obj-2", 0 ],
					"hidden" : 0,
					"midpoints" : [  ]
				}

			}
 ]
	}

}
