{
	"patcher" : 	{
		"fileversion" : 1,
		"rect" : [ 380.0, 44.0, 624.0, 446.0 ],
		"bglocked" : 0,
		"defrect" : [ 380.0, 44.0, 624.0, 446.0 ],
		"openrect" : [ 0.0, 0.0, 0.0, 0.0 ],
		"openinpresentation" : 0,
		"default_fontsize" : 10.970939,
		"default_fontface" : 0,
		"default_fontname" : "Verdana",
		"gridonopen" : 0,
		"gridsize" : [ 5.0, 5.0 ],
		"gridsnaponopen" : 0,
		"toolbarvisible" : 1,
		"boxanimatetime" : 200,
		"imprint" : 0,
		"boxes" : [ 			{
				"box" : 				{
					"maxclass" : "message",
					"text" : "getsearchstring",
					"patching_rect" : [ 507.0, 125.0, 88.0, 17.0 ],
					"id" : "obj-55",
					"numinlets" : 2,
					"fontname" : "Verdana",
					"numoutlets" : 1,
					"outlettype" : [ "" ],
					"fontsize" : 10.0,
					"bgcolor" : [ 0.917647, 0.937255, 0.670588, 1.0 ]
				}

			}
, 			{
				"box" : 				{
					"maxclass" : "message",
					"text" : "getpartialmatch",
					"patching_rect" : [ 411.0, 125.0, 90.0, 17.0 ],
					"id" : "obj-29",
					"numinlets" : 2,
					"fontname" : "Verdana",
					"numoutlets" : 1,
					"outlettype" : [ "" ],
					"fontsize" : 10.0,
					"bgcolor" : [ 0.917647, 0.937255, 0.670588, 1.0 ]
				}

			}
, 			{
				"box" : 				{
					"maxclass" : "message",
					"text" : "getsearchpositions",
					"patching_rect" : [ 508.0, 280.0, 111.0, 18.0 ],
					"id" : "obj-26",
					"numinlets" : 2,
					"fontname" : "Verdana",
					"numoutlets" : 1,
					"outlettype" : [ "" ],
					"fontsize" : 10.970939,
					"bgcolor" : [ 0.917647, 0.937255, 0.670588, 1.0 ]
				}

			}
, 			{
				"box" : 				{
					"maxclass" : "comment",
					"text" : "dumpout",
					"patching_rect" : [ 342.0, 383.0, 122.0, 19.0 ],
					"id" : "obj-10",
					"numinlets" : 1,
					"fontname" : "Verdana",
					"numoutlets" : 0,
					"fontsize" : 10.0,
					"frgb" : [ 0.0, 0.0, 0.0, 1.0 ]
				}

			}
, 			{
				"box" : 				{
					"maxclass" : "comment",
					"text" : "dumpout",
					"patching_rect" : [ 311.0, 217.0, 122.0, 19.0 ],
					"id" : "obj-7",
					"numinlets" : 1,
					"fontname" : "Verdana",
					"numoutlets" : 0,
					"fontsize" : 10.0,
					"frgb" : [ 0.0, 0.0, 0.0, 1.0 ]
				}

			}
, 			{
				"box" : 				{
					"maxclass" : "toggle",
					"patching_rect" : [ 305.0, 100.0, 19.0, 19.0 ],
					"id" : "obj-1",
					"numinlets" : 1,
					"numoutlets" : 1,
					"outlettype" : [ "int" ]
				}

			}
, 			{
				"box" : 				{
					"maxclass" : "message",
					"text" : "partialmatch $1",
					"patching_rect" : [ 305.0, 125.0, 100.0, 17.0 ],
					"id" : "obj-2",
					"numinlets" : 2,
					"fontname" : "Verdana",
					"numoutlets" : 1,
					"outlettype" : [ "" ],
					"fontsize" : 10.0
				}

			}
, 			{
				"box" : 				{
					"maxclass" : "newobj",
					"text" : "loadmess set",
					"patching_rect" : [ 385.0, 327.0, 78.0, 19.0 ],
					"id" : "obj-3",
					"numinlets" : 1,
					"fontname" : "Verdana",
					"numoutlets" : 1,
					"hidden" : 1,
					"outlettype" : [ "" ],
					"fontsize" : 10.0
				}

			}
, 			{
				"box" : 				{
					"maxclass" : "comment",
					"text" : "doesn't match",
					"patching_rect" : [ 192.0, 383.0, 122.0, 19.0 ],
					"id" : "obj-4",
					"numinlets" : 1,
					"fontname" : "Verdana",
					"numoutlets" : 0,
					"fontsize" : 10.0,
					"frgb" : [ 0.0, 0.0, 0.0, 1.0 ]
				}

			}
, 			{
				"box" : 				{
					"maxclass" : "button",
					"patching_rect" : [ 340.0, 360.0, 19.0, 19.0 ],
					"id" : "obj-5",
					"numinlets" : 1,
					"numoutlets" : 1,
					"outlettype" : [ "bang" ]
				}

			}
, 			{
				"box" : 				{
					"maxclass" : "message",
					"patching_rect" : [ 360.0, 360.0, 134.0, 17.0 ],
					"id" : "obj-6",
					"numinlets" : 2,
					"fontname" : "Verdana",
					"numoutlets" : 1,
					"outlettype" : [ "" ],
					"fontsize" : 10.0,
					"bgcolor" : [ 0.917647, 0.937255, 0.670588, 1.0 ]
				}

			}
, 			{
				"box" : 				{
					"maxclass" : "button",
					"patching_rect" : [ 190.0, 360.0, 19.0, 19.0 ],
					"id" : "obj-8",
					"numinlets" : 1,
					"numoutlets" : 1,
					"outlettype" : [ "bang" ]
				}

			}
, 			{
				"box" : 				{
					"maxclass" : "message",
					"patching_rect" : [ 210.0, 360.0, 130.0, 17.0 ],
					"id" : "obj-9",
					"numinlets" : 2,
					"fontname" : "Verdana",
					"numoutlets" : 1,
					"outlettype" : [ "" ],
					"fontsize" : 10.0
				}

			}
, 			{
				"box" : 				{
					"maxclass" : "button",
					"patching_rect" : [ 40.0, 360.0, 19.0, 19.0 ],
					"id" : "obj-11",
					"numinlets" : 1,
					"numoutlets" : 1,
					"outlettype" : [ "bang" ]
				}

			}
, 			{
				"box" : 				{
					"maxclass" : "message",
					"text" : "module filter~ freq 440",
					"patching_rect" : [ 374.0, 280.0, 127.0, 17.0 ],
					"id" : "obj-12",
					"numinlets" : 2,
					"fontname" : "Verdana",
					"numoutlets" : 1,
					"outlettype" : [ "" ],
					"fontsize" : 10.0
				}

			}
, 			{
				"box" : 				{
					"maxclass" : "message",
					"text" : "module filter~ gain_midi 124",
					"patching_rect" : [ 40.0, 280.0, 156.0, 17.0 ],
					"id" : "obj-13",
					"numinlets" : 2,
					"fontname" : "Verdana",
					"numoutlets" : 1,
					"outlettype" : [ "" ],
					"fontsize" : 10.0
				}

			}
, 			{
				"box" : 				{
					"maxclass" : "message",
					"patching_rect" : [ 60.0, 360.0, 114.0, 17.0 ],
					"id" : "obj-14",
					"numinlets" : 2,
					"fontname" : "Verdana",
					"numoutlets" : 1,
					"outlettype" : [ "" ],
					"fontsize" : 10.0
				}

			}
, 			{
				"box" : 				{
					"maxclass" : "newobj",
					"text" : "jcom.route @searchstring gain_midi @searchpositions 3",
					"patching_rect" : [ 40.0, 330.0, 319.0, 19.0 ],
					"id" : "obj-16",
					"numinlets" : 1,
					"fontname" : "Verdana",
					"numoutlets" : 3,
					"outlettype" : [ "", "", "" ],
					"fontsize" : 10.0
				}

			}
, 			{
				"box" : 				{
					"maxclass" : "comment",
					"text" : "Routing based on 3rd list member",
					"patching_rect" : [ 30.0, 250.0, 194.0, 19.0 ],
					"id" : "obj-17",
					"numinlets" : 1,
					"fontname" : "Verdana",
					"numoutlets" : 0,
					"fontsize" : 10.0,
					"frgb" : [ 0.0, 0.0, 0.0, 1.0 ]
				}

			}
, 			{
				"box" : 				{
					"maxclass" : "comment",
					"text" : "match",
					"patching_rect" : [ 40.0, 383.0, 120.0, 19.0 ],
					"id" : "obj-18",
					"numinlets" : 1,
					"fontname" : "Verdana",
					"numoutlets" : 0,
					"fontsize" : 10.0,
					"frgb" : [ 0.0, 0.0, 0.0, 1.0 ]
				}

			}
, 			{
				"box" : 				{
					"maxclass" : "newobj",
					"text" : "loadmess set",
					"patching_rect" : [ 333.0, 165.0, 78.0, 19.0 ],
					"id" : "obj-19",
					"numinlets" : 1,
					"fontname" : "Verdana",
					"numoutlets" : 1,
					"hidden" : 1,
					"outlettype" : [ "" ],
					"fontsize" : 10.0
				}

			}
, 			{
				"box" : 				{
					"maxclass" : "comment",
					"text" : "doesn't match",
					"patching_rect" : [ 175.0, 217.0, 122.0, 19.0 ],
					"id" : "obj-20",
					"numinlets" : 1,
					"fontname" : "Verdana",
					"numoutlets" : 0,
					"fontsize" : 10.0,
					"frgb" : [ 0.0, 0.0, 0.0, 1.0 ]
				}

			}
, 			{
				"box" : 				{
					"maxclass" : "comment",
					"text" : "jcom.route",
					"patching_rect" : [ 15.0, 15.0, 106.0, 28.0 ],
					"id" : "obj-21",
					"numinlets" : 1,
					"fontname" : "Verdana",
					"numoutlets" : 0,
					"fontsize" : 17.334082,
					"frgb" : [ 0.0, 0.0, 0.0, 1.0 ]
				}

			}
, 			{
				"box" : 				{
					"maxclass" : "comment",
					"text" : "A routing object with advanced features",
					"patching_rect" : [ 15.0, 40.0, 309.0, 19.0 ],
					"id" : "obj-22",
					"numinlets" : 1,
					"fontname" : "Verdana",
					"numoutlets" : 0,
					"fontsize" : 10.0,
					"frgb" : [ 0.0, 0.0, 0.0, 1.0 ]
				}

			}
, 			{
				"box" : 				{
					"maxclass" : "panel",
					"patching_rect" : [ 10.0, 10.0, 334.0, 51.0 ],
					"id" : "obj-23",
					"numinlets" : 1,
					"numoutlets" : 0,
					"rounded" : 15
				}

			}
, 			{
				"box" : 				{
					"maxclass" : "button",
					"patching_rect" : [ 310.0, 195.0, 19.0, 19.0 ],
					"id" : "obj-24",
					"numinlets" : 1,
					"numoutlets" : 1,
					"outlettype" : [ "bang" ]
				}

			}
, 			{
				"box" : 				{
					"maxclass" : "message",
					"patching_rect" : [ 330.0, 195.0, 105.0, 17.0 ],
					"id" : "obj-25",
					"numinlets" : 2,
					"fontname" : "Verdana",
					"numoutlets" : 1,
					"outlettype" : [ "" ],
					"fontsize" : 10.0,
					"bgcolor" : [ 0.917647, 0.937255, 0.670588, 1.0 ]
				}

			}
, 			{
				"box" : 				{
					"maxclass" : "button",
					"patching_rect" : [ 175.0, 195.0, 19.0, 19.0 ],
					"id" : "obj-27",
					"numinlets" : 1,
					"numoutlets" : 1,
					"outlettype" : [ "bang" ]
				}

			}
, 			{
				"box" : 				{
					"maxclass" : "message",
					"patching_rect" : [ 195.0, 195.0, 105.0, 17.0 ],
					"id" : "obj-28",
					"numinlets" : 2,
					"fontname" : "Verdana",
					"numoutlets" : 1,
					"outlettype" : [ "" ],
					"fontsize" : 10.0
				}

			}
, 			{
				"box" : 				{
					"maxclass" : "button",
					"patching_rect" : [ 40.0, 195.0, 19.0, 19.0 ],
					"id" : "obj-30",
					"numinlets" : 1,
					"numoutlets" : 1,
					"outlettype" : [ "bang" ]
				}

			}
, 			{
				"box" : 				{
					"maxclass" : "message",
					"text" : "module9 10 11",
					"patching_rect" : [ 205.0, 125.0, 91.0, 17.0 ],
					"id" : "obj-31",
					"numinlets" : 2,
					"fontname" : "Verdana",
					"numoutlets" : 1,
					"outlettype" : [ "" ],
					"fontsize" : 10.0
				}

			}
, 			{
				"box" : 				{
					"maxclass" : "message",
					"text" : "module9",
					"patching_rect" : [ 145.0, 125.0, 54.0, 17.0 ],
					"id" : "obj-32",
					"numinlets" : 2,
					"fontname" : "Verdana",
					"numoutlets" : 1,
					"outlettype" : [ "" ],
					"fontsize" : 10.0
				}

			}
, 			{
				"box" : 				{
					"maxclass" : "message",
					"text" : "module1",
					"patching_rect" : [ 80.0, 125.0, 54.0, 17.0 ],
					"id" : "obj-33",
					"numinlets" : 2,
					"fontname" : "Verdana",
					"numoutlets" : 1,
					"outlettype" : [ "" ],
					"fontsize" : 10.0
				}

			}
, 			{
				"box" : 				{
					"maxclass" : "message",
					"text" : "module",
					"patching_rect" : [ 25.0, 125.0, 48.0, 17.0 ],
					"id" : "obj-34",
					"numinlets" : 2,
					"fontname" : "Verdana",
					"numoutlets" : 1,
					"outlettype" : [ "" ],
					"fontsize" : 10.0
				}

			}
, 			{
				"box" : 				{
					"maxclass" : "message",
					"patching_rect" : [ 60.0, 195.0, 105.0, 17.0 ],
					"id" : "obj-35",
					"numinlets" : 2,
					"fontname" : "Verdana",
					"numoutlets" : 1,
					"outlettype" : [ "" ],
					"fontsize" : 10.0
				}

			}
, 			{
				"box" : 				{
					"maxclass" : "newobj",
					"text" : "jcom.route @searchstring module @partialmatch 1",
					"patching_rect" : [ 40.0, 165.0, 289.0, 19.0 ],
					"id" : "obj-37",
					"numinlets" : 1,
					"fontname" : "Verdana",
					"numoutlets" : 3,
					"outlettype" : [ "", "", "" ],
					"fontsize" : 10.0
				}

			}
, 			{
				"box" : 				{
					"maxclass" : "comment",
					"text" : "Routing based on partial match",
					"patching_rect" : [ 15.0, 90.0, 177.0, 19.0 ],
					"id" : "obj-38",
					"numinlets" : 1,
					"fontname" : "Verdana",
					"numoutlets" : 0,
					"fontsize" : 10.0,
					"frgb" : [ 0.0, 0.0, 0.0, 1.0 ]
				}

			}
, 			{
				"box" : 				{
					"maxclass" : "comment",
					"text" : "match",
					"patching_rect" : [ 39.0, 217.0, 120.0, 19.0 ],
					"id" : "obj-39",
					"numinlets" : 1,
					"fontname" : "Verdana",
					"numoutlets" : 0,
					"fontsize" : 10.0,
					"frgb" : [ 0.0, 0.0, 0.0, 1.0 ]
				}

			}
, 			{
				"box" : 				{
					"maxclass" : "message",
					"text" : "module degrade~ gain_midi 124",
					"patching_rect" : [ 200.0, 280.0, 173.0, 17.0 ],
					"id" : "obj-40",
					"numinlets" : 2,
					"fontname" : "Verdana",
					"numoutlets" : 1,
					"outlettype" : [ "" ],
					"fontsize" : 10.0
				}

			}
 ],
		"lines" : [ 			{
				"patchline" : 				{
					"source" : [ "obj-16", 2 ],
					"destination" : [ "obj-6", 1 ],
					"hidden" : 0,
					"midpoints" : [ 349.5, 356.0, 484.5, 356.0 ]
				}

			}
, 			{
				"patchline" : 				{
					"source" : [ "obj-16", 1 ],
					"destination" : [ "obj-9", 1 ],
					"hidden" : 0,
					"midpoints" : [ 199.5, 356.0, 330.5, 356.0 ]
				}

			}
, 			{
				"patchline" : 				{
					"source" : [ "obj-16", 0 ],
					"destination" : [ "obj-14", 1 ],
					"hidden" : 0,
					"midpoints" : [ 49.5, 356.0, 164.5, 356.0 ]
				}

			}
, 			{
				"patchline" : 				{
					"source" : [ "obj-3", 0 ],
					"destination" : [ "obj-14", 0 ],
					"hidden" : 1,
					"midpoints" : [  ]
				}

			}
, 			{
				"patchline" : 				{
					"source" : [ "obj-3", 0 ],
					"destination" : [ "obj-9", 0 ],
					"hidden" : 1,
					"midpoints" : [  ]
				}

			}
, 			{
				"patchline" : 				{
					"source" : [ "obj-3", 0 ],
					"destination" : [ "obj-6", 0 ],
					"hidden" : 1,
					"midpoints" : [  ]
				}

			}
, 			{
				"patchline" : 				{
					"source" : [ "obj-16", 2 ],
					"destination" : [ "obj-5", 0 ],
					"hidden" : 0,
					"midpoints" : [  ]
				}

			}
, 			{
				"patchline" : 				{
					"source" : [ "obj-16", 1 ],
					"destination" : [ "obj-8", 0 ],
					"hidden" : 0,
					"midpoints" : [  ]
				}

			}
, 			{
				"patchline" : 				{
					"source" : [ "obj-16", 0 ],
					"destination" : [ "obj-11", 0 ],
					"hidden" : 0,
					"midpoints" : [  ]
				}

			}
, 			{
				"patchline" : 				{
					"source" : [ "obj-19", 0 ],
					"destination" : [ "obj-35", 0 ],
					"hidden" : 1,
					"midpoints" : [  ]
				}

			}
, 			{
				"patchline" : 				{
					"source" : [ "obj-19", 0 ],
					"destination" : [ "obj-28", 0 ],
					"hidden" : 1,
					"midpoints" : [  ]
				}

			}
, 			{
				"patchline" : 				{
					"source" : [ "obj-19", 0 ],
					"destination" : [ "obj-25", 0 ],
					"hidden" : 1,
					"midpoints" : [  ]
				}

			}
, 			{
				"patchline" : 				{
					"source" : [ "obj-37", 2 ],
					"destination" : [ "obj-25", 1 ],
					"hidden" : 0,
					"midpoints" : [ 319.5, 192.0, 425.5, 192.0 ]
				}

			}
, 			{
				"patchline" : 				{
					"source" : [ "obj-37", 1 ],
					"destination" : [ "obj-28", 1 ],
					"hidden" : 0,
					"midpoints" : [ 184.5, 192.0, 290.5, 192.0 ]
				}

			}
, 			{
				"patchline" : 				{
					"source" : [ "obj-37", 2 ],
					"destination" : [ "obj-24", 0 ],
					"hidden" : 0,
					"midpoints" : [  ]
				}

			}
, 			{
				"patchline" : 				{
					"source" : [ "obj-37", 1 ],
					"destination" : [ "obj-27", 0 ],
					"hidden" : 0,
					"midpoints" : [  ]
				}

			}
, 			{
				"patchline" : 				{
					"source" : [ "obj-37", 0 ],
					"destination" : [ "obj-30", 0 ],
					"hidden" : 0,
					"midpoints" : [  ]
				}

			}
, 			{
				"patchline" : 				{
					"source" : [ "obj-37", 0 ],
					"destination" : [ "obj-35", 1 ],
					"hidden" : 0,
					"midpoints" : [ 49.5, 192.0, 155.5, 192.0 ]
				}

			}
, 			{
				"patchline" : 				{
					"source" : [ "obj-34", 0 ],
					"destination" : [ "obj-37", 0 ],
					"hidden" : 0,
					"midpoints" : [ 34.5, 151.0, 49.5, 151.0 ]
				}

			}
, 			{
				"patchline" : 				{
					"source" : [ "obj-33", 0 ],
					"destination" : [ "obj-37", 0 ],
					"hidden" : 0,
					"midpoints" : [ 89.5, 155.0, 49.5, 155.0 ]
				}

			}
, 			{
				"patchline" : 				{
					"source" : [ "obj-32", 0 ],
					"destination" : [ "obj-37", 0 ],
					"hidden" : 0,
					"midpoints" : [ 154.5, 155.0, 49.5, 155.0 ]
				}

			}
, 			{
				"patchline" : 				{
					"source" : [ "obj-31", 0 ],
					"destination" : [ "obj-37", 0 ],
					"hidden" : 0,
					"midpoints" : [ 214.5, 155.0, 49.5, 155.0 ]
				}

			}
, 			{
				"patchline" : 				{
					"source" : [ "obj-2", 0 ],
					"destination" : [ "obj-37", 0 ],
					"hidden" : 0,
					"midpoints" : [ 314.5, 155.0, 49.5, 155.0 ]
				}

			}
, 			{
				"patchline" : 				{
					"source" : [ "obj-12", 0 ],
					"destination" : [ "obj-16", 0 ],
					"hidden" : 0,
					"midpoints" : [ 383.5, 317.0, 49.5, 317.0 ]
				}

			}
, 			{
				"patchline" : 				{
					"source" : [ "obj-40", 0 ],
					"destination" : [ "obj-16", 0 ],
					"hidden" : 0,
					"midpoints" : [ 209.5, 317.0, 49.5, 317.0 ]
				}

			}
, 			{
				"patchline" : 				{
					"source" : [ "obj-13", 0 ],
					"destination" : [ "obj-16", 0 ],
					"hidden" : 0,
					"midpoints" : [ 49.5, 317.0, 49.5, 317.0 ]
				}

			}
, 			{
				"patchline" : 				{
					"source" : [ "obj-1", 0 ],
					"destination" : [ "obj-2", 0 ],
					"hidden" : 0,
					"midpoints" : [  ]
				}

			}
, 			{
				"patchline" : 				{
					"source" : [ "obj-26", 0 ],
					"destination" : [ "obj-16", 0 ],
					"hidden" : 0,
					"midpoints" : [ 517.5, 317.0, 369.0, 317.0, 369.0, 317.0, 49.5, 317.0 ]
				}

			}
, 			{
				"patchline" : 				{
					"source" : [ "obj-29", 0 ],
					"destination" : [ "obj-37", 0 ],
					"hidden" : 0,
					"midpoints" : [ 420.5, 155.0, 49.0, 155.0, 49.0, 162.0, 49.5, 162.0 ]
				}

			}
, 			{
				"patchline" : 				{
					"source" : [ "obj-55", 0 ],
					"destination" : [ "obj-37", 0 ],
					"hidden" : 0,
					"midpoints" : [ 516.5, 155.0, 501.0, 155.0, 501.0, 155.0, 49.0, 155.0, 49.0, 162.0, 49.5, 162.0 ]
				}

			}
 ]
	}

}
