{
	"patcher" : 	{
		"rect" : [ 86.0, 44.0, 469.0, 543.0 ],
		"bgcolor" : [ 1.0, 1.0, 1.0, 1.0 ],
		"bglocked" : 0,
		"defrect" : [ 86.0, 44.0, 469.0, 543.0 ],
		"openinpresentation" : 0,
		"default_fontsize" : 10.0,
		"default_fontface" : 0,
		"default_fontname" : "Verdana",
		"gridonopen" : 0,
		"gridsize" : [ 15.0, 15.0 ],
		"gridsnaponopen" : 0,
		"toolbarvisible" : 1,
		"boxfadetime" : 200,
		"boxanimatetime" : 200,
		"scrollanimatetime" : 200,
		"metadata" : [  ],
		"boxes" : [ 			{
				"box" : 				{
					"maxclass" : "comment",
					"text" : "see also:",
					"fontname" : "Verdana",
					"numinlets" : 1,
					"id" : "obj-1",
					"numoutlets" : 0,
					"fontsize" : 9.0,
					"patching_rect" : [ 335.0, 35.0, 48.0, 17.0 ]
				}

			}
, 			{
				"box" : 				{
					"maxclass" : "newobj",
					"text" : "prepend help",
					"fontname" : "Verdana",
					"numinlets" : 1,
					"hidden" : 1,
					"id" : "obj-2",
					"numoutlets" : 1,
					"outlettype" : [ "" ],
					"fontsize" : 9.0,
					"patching_rect" : [ 335.0, 71.0, 64.0, 17.0 ]
				}

			}
, 			{
				"box" : 				{
					"maxclass" : "message",
					"text" : "jcom.luma2rgb%",
					"fontname" : "Verdana",
					"numinlets" : 2,
					"id" : "obj-3",
					"numoutlets" : 1,
					"outlettype" : [ "" ],
					"fontsize" : 9.0,
					"patching_rect" : [ 335.0, 49.0, 86.0, 15.0 ]
				}

			}
, 			{
				"box" : 				{
					"maxclass" : "newobj",
					"text" : "pcontrol",
					"fontname" : "Verdana",
					"numinlets" : 1,
					"hidden" : 1,
					"id" : "obj-4",
					"numoutlets" : 1,
					"outlettype" : [ "" ],
					"fontsize" : 9.0,
					"patching_rect" : [ 335.0, 92.0, 45.0, 17.0 ]
				}

			}
, 			{
				"box" : 				{
					"maxclass" : "jit.fpsgui",
					"fontname" : "Verdana",
					"numinlets" : 1,
					"id" : "obj-5",
					"numoutlets" : 1,
					"mode" : 4,
					"outlettype" : [ "" ],
					"fontsize" : 9.0,
					"patching_rect" : [ 281.0, 171.0, 60.0, 30.533276 ]
				}

			}
, 			{
				"box" : 				{
					"maxclass" : "jit.fpsgui",
					"fontname" : "Verdana",
					"numinlets" : 1,
					"id" : "obj-6",
					"numoutlets" : 1,
					"mode" : 4,
					"outlettype" : [ "" ],
					"fontsize" : 9.0,
					"patching_rect" : [ 69.0, 171.0, 60.0, 30.533276 ]
				}

			}
, 			{
				"box" : 				{
					"maxclass" : "jit.fpsgui",
					"fontname" : "Verdana",
					"numinlets" : 1,
					"id" : "obj-7",
					"numoutlets" : 1,
					"mode" : 4,
					"outlettype" : [ "" ],
					"fontsize" : 9.0,
					"patching_rect" : [ 281.0, 236.0, 60.0, 30.533276 ]
				}

			}
, 			{
				"box" : 				{
					"maxclass" : "newobj",
					"text" : "jcom.rgb2luma%",
					"fontname" : "Verdana",
					"numinlets" : 1,
					"id" : "obj-8",
					"numoutlets" : 1,
					"outlettype" : [ "jit_matrix" ],
					"fontsize" : 9.0,
					"patching_rect" : [ 241.0, 212.0, 86.0, 17.0 ]
				}

			}
, 			{
				"box" : 				{
					"maxclass" : "jit.pwindow",
					"numinlets" : 1,
					"id" : "obj-9",
					"numoutlets" : 2,
					"outlettype" : [ "", "" ],
					"depthbuffer" : 0,
					"patching_rect" : [ 240.0, 274.0, 183.0, 150.0 ]
				}

			}
, 			{
				"box" : 				{
					"maxclass" : "newobj",
					"text" : "jit.noise 4 char 12 12",
					"fontname" : "Verdana",
					"numinlets" : 1,
					"id" : "obj-10",
					"numoutlets" : 2,
					"outlettype" : [ "jit_matrix", "" ],
					"fontsize" : 9.0,
					"patching_rect" : [ 241.0, 145.0, 109.0, 17.0 ]
				}

			}
, 			{
				"box" : 				{
					"maxclass" : "newobj",
					"text" : "loadmess 1",
					"fontname" : "Verdana",
					"numinlets" : 1,
					"hidden" : 1,
					"id" : "obj-11",
					"numoutlets" : 1,
					"outlettype" : [ "" ],
					"fontsize" : 9.0,
					"patching_rect" : [ 29.0, 75.0, 60.0, 17.0 ]
				}

			}
, 			{
				"box" : 				{
					"maxclass" : "jit.fpsgui",
					"fontname" : "Verdana",
					"numinlets" : 1,
					"id" : "obj-12",
					"numoutlets" : 1,
					"mode" : 4,
					"outlettype" : [ "" ],
					"fontsize" : 9.0,
					"patching_rect" : [ 69.0, 236.0, 60.0, 30.533276 ]
				}

			}
, 			{
				"box" : 				{
					"maxclass" : "newobj",
					"text" : "jcom.rgb2luma%",
					"fontname" : "Verdana",
					"numinlets" : 1,
					"id" : "obj-13",
					"numoutlets" : 1,
					"outlettype" : [ "jit_matrix" ],
					"fontsize" : 9.0,
					"patching_rect" : [ 29.0, 212.0, 86.0, 17.0 ]
				}

			}
, 			{
				"box" : 				{
					"maxclass" : "jit.pwindow",
					"numinlets" : 1,
					"id" : "obj-14",
					"numoutlets" : 2,
					"outlettype" : [ "", "" ],
					"depthbuffer" : 0,
					"patching_rect" : [ 28.0, 274.0, 183.0, 150.0 ]
				}

			}
, 			{
				"box" : 				{
					"maxclass" : "toggle",
					"numinlets" : 1,
					"id" : "obj-15",
					"numoutlets" : 1,
					"outlettype" : [ "int" ],
					"patching_rect" : [ 29.0, 98.0, 15.0, 15.0 ]
				}

			}
, 			{
				"box" : 				{
					"maxclass" : "newobj",
					"text" : "qmetro 50",
					"fontname" : "Verdana",
					"numinlets" : 2,
					"id" : "obj-16",
					"numoutlets" : 1,
					"outlettype" : [ "bang" ],
					"fontsize" : 9.0,
					"patching_rect" : [ 29.0, 119.0, 57.0, 17.0 ]
				}

			}
, 			{
				"box" : 				{
					"maxclass" : "newobj",
					"text" : "jit.noise 1 char 12 12",
					"fontname" : "Verdana",
					"numinlets" : 1,
					"id" : "obj-17",
					"numoutlets" : 2,
					"outlettype" : [ "jit_matrix", "" ],
					"fontsize" : 9.0,
					"patching_rect" : [ 29.0, 145.0, 109.0, 17.0 ]
				}

			}
, 			{
				"box" : 				{
					"maxclass" : "comment",
					"text" : "jcom.rgb2luma%",
					"fontname" : "Verdana",
					"numinlets" : 1,
					"id" : "obj-18",
					"frgb" : [ 1.0, 1.0, 1.0, 1.0 ],
					"numoutlets" : 0,
					"textcolor" : [ 1.0, 1.0, 1.0, 1.0 ],
					"fontsize" : 15.799999,
					"patching_rect" : [ 28.0, 16.0, 189.0, 28.0 ]
				}

			}
, 			{
				"box" : 				{
					"maxclass" : "comment",
					"text" : "checks whether it is necessary to use rgb2luma",
					"fontname" : "Verdana",
					"numinlets" : 1,
					"id" : "obj-19",
					"frgb" : [ 1.0, 1.0, 1.0, 1.0 ],
					"numoutlets" : 0,
					"textcolor" : [ 1.0, 1.0, 1.0, 1.0 ],
					"fontsize" : 9.0,
					"patching_rect" : [ 29.0, 42.0, 242.0, 17.0 ]
				}

			}
, 			{
				"box" : 				{
					"maxclass" : "panel",
					"numinlets" : 1,
					"id" : "obj-20",
					"numoutlets" : 0,
					"rounded" : 0,
					"bgcolor" : [ 0.262745, 0.254902, 0.419608, 1.0 ],
					"bordercolor" : [ 0.501961, 0.043137, 0.039216, 1.0 ],
					"patching_rect" : [ 0.0, 0.0, 273.0, 63.0 ]
				}

			}
, 			{
				"box" : 				{
					"maxclass" : "comment",
					"text" : "The abstraction checks the planes of the matrix and decides whether it is necessary to perform a jit.rgb2luma or not. Saves a little CPU.",
					"linecount" : 2,
					"fontname" : "Verdana",
					"numinlets" : 1,
					"id" : "obj-21",
					"numoutlets" : 0,
					"fontsize" : 9.0,
					"patching_rect" : [ 54.0, 458.0, 328.0, 28.0 ]
				}

			}
 ],
		"lines" : [ 			{
				"patchline" : 				{
					"source" : [ "obj-11", 0 ],
					"destination" : [ "obj-15", 0 ],
					"hidden" : 1
				}

			}
, 			{
				"patchline" : 				{
					"source" : [ "obj-15", 0 ],
					"destination" : [ "obj-16", 0 ],
					"hidden" : 0
				}

			}
, 			{
				"patchline" : 				{
					"source" : [ "obj-16", 0 ],
					"destination" : [ "obj-17", 0 ],
					"hidden" : 0
				}

			}
, 			{
				"patchline" : 				{
					"source" : [ "obj-17", 0 ],
					"destination" : [ "obj-13", 0 ],
					"hidden" : 0
				}

			}
, 			{
				"patchline" : 				{
					"source" : [ "obj-13", 0 ],
					"destination" : [ "obj-14", 0 ],
					"hidden" : 0
				}

			}
, 			{
				"patchline" : 				{
					"source" : [ "obj-17", 0 ],
					"destination" : [ "obj-6", 0 ],
					"hidden" : 0,
					"midpoints" : [ 38.5, 166.0, 78.5, 166.0 ]
				}

			}
, 			{
				"patchline" : 				{
					"source" : [ "obj-13", 0 ],
					"destination" : [ "obj-12", 0 ],
					"hidden" : 0,
					"midpoints" : [ 38.5, 232.0, 78.5, 232.0 ]
				}

			}
, 			{
				"patchline" : 				{
					"source" : [ "obj-16", 0 ],
					"destination" : [ "obj-10", 0 ],
					"hidden" : 0,
					"midpoints" : [ 38.5, 139.0, 250.5, 139.0 ]
				}

			}
, 			{
				"patchline" : 				{
					"source" : [ "obj-10", 0 ],
					"destination" : [ "obj-8", 0 ],
					"hidden" : 0
				}

			}
, 			{
				"patchline" : 				{
					"source" : [ "obj-8", 0 ],
					"destination" : [ "obj-9", 0 ],
					"hidden" : 0
				}

			}
, 			{
				"patchline" : 				{
					"source" : [ "obj-10", 0 ],
					"destination" : [ "obj-5", 0 ],
					"hidden" : 0,
					"midpoints" : [ 250.5, 166.0, 290.5, 166.0 ]
				}

			}
, 			{
				"patchline" : 				{
					"source" : [ "obj-8", 0 ],
					"destination" : [ "obj-7", 0 ],
					"hidden" : 0,
					"midpoints" : [ 250.5, 233.0, 290.5, 233.0 ]
				}

			}
, 			{
				"patchline" : 				{
					"source" : [ "obj-3", 0 ],
					"destination" : [ "obj-2", 0 ],
					"hidden" : 1
				}

			}
, 			{
				"patchline" : 				{
					"source" : [ "obj-2", 0 ],
					"destination" : [ "obj-4", 0 ],
					"hidden" : 1
				}

			}
 ]
	}

}
