{
	"patcher" : 	{
		"rect" : [ 27.0, 122.0, 1158.0, 593.0 ],
		"bgcolor" : [ 1.0, 1.0, 1.0, 1.0 ],
		"bglocked" : 1,
		"defrect" : [ 27.0, 122.0, 1158.0, 593.0 ],
		"openinpresentation" : 0,
		"default_fontsize" : 10.0,
		"default_fontface" : 0,
		"default_fontname" : "Verdana",
		"gridonopen" : 0,
		"gridsize" : [ 15.0, 15.0 ],
		"gridsnaponopen" : 0,
		"toolbarvisible" : 1,
		"boxfadetime" : 200,
		"boxanimatetime" : 200,
		"scrollanimatetime" : 200,
		"metadata" : [  ],
		"boxes" : [ 			{
				"box" : 				{
					"maxclass" : "message",
					"text" : "jcom.gui",
					"patching_rect" : [ 891.0, 551.0, 53.0, 16.0 ],
					"numinlets" : 2,
					"fontname" : "Verdana",
					"numoutlets" : 1,
					"id" : "obj-1",
					"outlettype" : [ "" ],
					"fontsize" : 9.0
				}

			}
, 			{
				"box" : 				{
					"maxclass" : "message",
					"text" : "jcom.return",
					"patching_rect" : [ 891.0, 533.0, 69.0, 16.0 ],
					"numinlets" : 2,
					"fontname" : "Verdana",
					"numoutlets" : 1,
					"id" : "obj-2",
					"outlettype" : [ "" ],
					"fontsize" : 9.0
				}

			}
, 			{
				"box" : 				{
					"maxclass" : "message",
					"text" : "jcom.message",
					"patching_rect" : [ 891.0, 515.0, 82.0, 16.0 ],
					"numinlets" : 2,
					"fontname" : "Verdana",
					"numoutlets" : 1,
					"id" : "obj-3",
					"outlettype" : [ "" ],
					"fontsize" : 9.0
				}

			}
, 			{
				"box" : 				{
					"maxclass" : "comment",
					"text" : "- pattrstorage outlet connected to right inlet of jcom.hub.",
					"patching_rect" : [ 157.0, 490.0, 297.0, 18.0 ],
					"numinlets" : 1,
					"fontname" : "Verdana",
					"numoutlets" : 0,
					"id" : "obj-4",
					"fontsize" : 9.0
				}

			}
, 			{
				"box" : 				{
					"maxclass" : "comment",
					"text" : "- Right outlet of jcom.hub connected to pattrstorage.",
					"patching_rect" : [ 157.0, 533.0, 275.0, 18.0 ],
					"numinlets" : 1,
					"fontname" : "Verdana",
					"numoutlets" : 0,
					"id" : "obj-5",
					"fontsize" : 9.0
				}

			}
, 			{
				"box" : 				{
					"maxclass" : "comment",
					"text" : "- Middle outlet connected to algorithm.",
					"patching_rect" : [ 157.0, 521.0, 204.0, 18.0 ],
					"numinlets" : 1,
					"fontname" : "Verdana",
					"numoutlets" : 0,
					"id" : "obj-6",
					"fontsize" : 9.0
				}

			}
, 			{
				"box" : 				{
					"maxclass" : "comment",
					"text" : "1",
					"patching_rect" : [ 58.0, 373.0, 19.0, 18.0 ],
					"numinlets" : 1,
					"fontname" : "Verdana",
					"numoutlets" : 0,
					"id" : "obj-7",
					"fontsize" : 9.0
				}

			}
, 			{
				"box" : 				{
					"maxclass" : "comment",
					"text" : "- Leftmost inlet of module is connected to left inlet of jcom.hub.",
					"patching_rect" : [ 157.0, 478.0, 329.0, 18.0 ],
					"numinlets" : 1,
					"fontname" : "Verdana",
					"numoutlets" : 0,
					"id" : "obj-9",
					"fontsize" : 9.0
				}

			}
, 			{
				"box" : 				{
					"maxclass" : "comment",
					"text" : "- Left outlet of jcom.hub connected to leftmost outlet of module.",
					"patching_rect" : [ 157.0, 509.0, 332.0, 18.0 ],
					"numinlets" : 1,
					"fontname" : "Verdana",
					"numoutlets" : 0,
					"id" : "obj-10",
					"fontsize" : 9.0
				}

			}
, 			{
				"box" : 				{
					"maxclass" : "comment",
					"text" : "Outlets:",
					"patching_rect" : [ 41.0, 509.0, 51.0, 18.0 ],
					"numinlets" : 1,
					"fontname" : "Verdana",
					"frgb" : [ 0.741176, 0.035294, 0.035294, 1.0 ],
					"numoutlets" : 0,
					"id" : "obj-11",
					"textcolor" : [ 0.741176, 0.035294, 0.035294, 1.0 ],
					"fontsize" : 9.0
				}

			}
, 			{
				"box" : 				{
					"maxclass" : "comment",
					"text" : "Inlets:",
					"patching_rect" : [ 41.0, 478.0, 43.0, 18.0 ],
					"numinlets" : 1,
					"fontname" : "Verdana",
					"frgb" : [ 0.741176, 0.035294, 0.035294, 1.0 ],
					"numoutlets" : 0,
					"id" : "obj-12",
					"textcolor" : [ 0.741176, 0.035294, 0.035294, 1.0 ],
					"fontsize" : 9.0
				}

			}
, 			{
				"box" : 				{
					"maxclass" : "comment",
					"text" : "Standard connections:",
					"patching_rect" : [ 18.0, 450.0, 176.0, 23.0 ],
					"numinlets" : 1,
					"fontname" : "Verdana",
					"frgb" : [ 0.741176, 0.035294, 0.035294, 1.0 ],
					"numoutlets" : 0,
					"id" : "obj-13",
					"textcolor" : [ 0.741176, 0.035294, 0.035294, 1.0 ],
					"fontsize" : 12.288889
				}

			}
, 			{
				"box" : 				{
					"maxclass" : "comment",
					"text" : "- within each module all parameter names must be unique. Different modules sharing the same parameter names is no problem.",
					"linecount" : 2,
					"patching_rect" : [ 149.0, 194.0, 359.0, 30.0 ],
					"numinlets" : 1,
					"fontname" : "Verdana",
					"numoutlets" : 0,
					"id" : "obj-14",
					"fontsize" : 9.0
				}

			}
, 			{
				"box" : 				{
					"maxclass" : "comment",
					"text" : "(name of module)",
					"patching_rect" : [ 40.0, 197.0, 100.0, 18.0 ],
					"numinlets" : 1,
					"fontname" : "Verdana",
					"frgb" : [ 0.741176, 0.035294, 0.035294, 1.0 ],
					"numoutlets" : 0,
					"id" : "obj-15",
					"textcolor" : [ 0.741176, 0.035294, 0.035294, 1.0 ],
					"fontsize" : 9.0
				}

			}
, 			{
				"box" : 				{
					"maxclass" : "comment",
					"text" : "Argument(obligatory):",
					"patching_rect" : [ 13.0, 167.0, 176.0, 23.0 ],
					"numinlets" : 1,
					"fontname" : "Verdana",
					"frgb" : [ 0.741176, 0.035294, 0.035294, 1.0 ],
					"numoutlets" : 0,
					"id" : "obj-16",
					"textcolor" : [ 0.741176, 0.035294, 0.035294, 1.0 ],
					"fontsize" : 12.288889
				}

			}
, 			{
				"box" : 				{
					"maxclass" : "comment",
					"text" : "Attributes:",
					"patching_rect" : [ 17.0, 238.0, 85.0, 23.0 ],
					"numinlets" : 1,
					"fontname" : "Verdana",
					"frgb" : [ 0.741176, 0.035294, 0.035294, 1.0 ],
					"numoutlets" : 0,
					"id" : "obj-17",
					"textcolor" : [ 0.741176, 0.035294, 0.035294, 1.0 ],
					"fontsize" : 12.288889
				}

			}
, 			{
				"box" : 				{
					"maxclass" : "panel",
					"patching_rect" : [ 37.0, 194.0, 469.0, 29.0 ],
					"numinlets" : 1,
					"numoutlets" : 0,
					"rounded" : 0,
					"border" : 1,
					"id" : "obj-18",
					"bgcolor" : [ 0.780392, 0.780392, 0.839216, 1.0 ]
				}

			}
, 			{
				"box" : 				{
					"maxclass" : "comment",
					"text" : "- text describing the parameter for html auto-documenting modules",
					"patching_rect" : [ 151.0, 407.0, 349.0, 18.0 ],
					"numinlets" : 1,
					"fontname" : "Verdana",
					"numoutlets" : 0,
					"id" : "obj-22",
					"fontsize" : 9.0
				}

			}
, 			{
				"box" : 				{
					"maxclass" : "comment",
					"text" : "@description",
					"patching_rect" : [ 41.0, 395.0, 100.0, 18.0 ],
					"numinlets" : 1,
					"fontname" : "Verdana",
					"frgb" : [ 0.741176, 0.035294, 0.035294, 1.0 ],
					"numoutlets" : 0,
					"id" : "obj-23",
					"textcolor" : [ 0.741176, 0.035294, 0.035294, 1.0 ],
					"fontsize" : 9.0
				}

			}
, 			{
				"box" : 				{
					"maxclass" : "comment",
					"text" : "(text)",
					"patching_rect" : [ 57.0, 407.0, 39.0, 18.0 ],
					"numinlets" : 1,
					"fontname" : "Verdana",
					"numoutlets" : 0,
					"id" : "obj-24",
					"fontsize" : 9.0
				}

			}
, 			{
				"box" : 				{
					"maxclass" : "comment",
					"text" : "- do the module contain an inspector window with additional settings?",
					"patching_rect" : [ 150.0, 361.0, 359.0, 18.0 ],
					"numinlets" : 1,
					"fontname" : "Verdana",
					"numoutlets" : 0,
					"id" : "obj-26",
					"fontsize" : 9.0
				}

			}
, 			{
				"box" : 				{
					"maxclass" : "comment",
					"text" : "@inspector",
					"patching_rect" : [ 41.0, 349.0, 100.0, 18.0 ],
					"numinlets" : 1,
					"fontname" : "Verdana",
					"frgb" : [ 0.741176, 0.035294, 0.035294, 1.0 ],
					"numoutlets" : 0,
					"id" : "obj-27",
					"textcolor" : [ 0.741176, 0.035294, 0.035294, 1.0 ],
					"fontsize" : 9.0
				}

			}
, 			{
				"box" : 				{
					"maxclass" : "comment",
					"text" : "0 (default)",
					"patching_rect" : [ 57.0, 361.0, 63.0, 18.0 ],
					"numinlets" : 1,
					"fontname" : "Verdana",
					"numoutlets" : 0,
					"id" : "obj-28",
					"fontsize" : 9.0
				}

			}
, 			{
				"box" : 				{
					"maxclass" : "comment",
					"text" : "- what kind of module is this? Possible values: control, audio, audio.ambisonic, audio.no_panel, video",
					"linecount" : 2,
					"patching_rect" : [ 156.0, 309.0, 326.0, 30.0 ],
					"numinlets" : 1,
					"fontname" : "Verdana",
					"numoutlets" : 0,
					"id" : "obj-29",
					"fontsize" : 9.0
				}

			}
, 			{
				"box" : 				{
					"maxclass" : "comment",
					"text" : "1",
					"patching_rect" : [ 56.0, 290.0, 19.0, 18.0 ],
					"numinlets" : 1,
					"fontname" : "Verdana",
					"numoutlets" : 0,
					"id" : "obj-30",
					"fontsize" : 9.0
				}

			}
, 			{
				"box" : 				{
					"maxclass" : "comment",
					"patching_rect" : [ 56.0, 321.0, 100.0, 18.0 ],
					"numinlets" : 1,
					"fontname" : "Verdana",
					"numoutlets" : 0,
					"id" : "obj-31",
					"fontsize" : 9.0
				}

			}
, 			{
				"box" : 				{
					"maxclass" : "comment",
					"text" : "@module_type",
					"patching_rect" : [ 40.0, 309.0, 100.0, 18.0 ],
					"numinlets" : 1,
					"fontname" : "Verdana",
					"frgb" : [ 0.741176, 0.035294, 0.035294, 1.0 ],
					"numoutlets" : 0,
					"id" : "obj-32",
					"textcolor" : [ 0.741176, 0.035294, 0.035294, 1.0 ],
					"fontsize" : 9.0
				}

			}
, 			{
				"box" : 				{
					"maxclass" : "comment",
					"patching_rect" : [ 56.0, 333.0, 100.0, 18.0 ],
					"numinlets" : 1,
					"fontname" : "Verdana",
					"numoutlets" : 0,
					"id" : "obj-33",
					"fontsize" : 9.0
				}

			}
, 			{
				"box" : 				{
					"maxclass" : "comment",
					"text" : "(symbol)",
					"patching_rect" : [ 56.0, 278.0, 55.0, 18.0 ],
					"numinlets" : 1,
					"fontname" : "Verdana",
					"numoutlets" : 0,
					"id" : "obj-34",
					"fontsize" : 9.0
				}

			}
, 			{
				"box" : 				{
					"maxclass" : "comment",
					"text" : "- define size of the module: Some examples: 1U-half, 1U, 2U-half, 2U, etc.",
					"linecount" : 2,
					"patching_rect" : [ 156.0, 266.0, 297.0, 30.0 ],
					"numinlets" : 1,
					"fontname" : "Verdana",
					"numoutlets" : 0,
					"id" : "obj-35",
					"fontsize" : 9.0
				}

			}
, 			{
				"box" : 				{
					"maxclass" : "comment",
					"text" : "@size",
					"patching_rect" : [ 40.0, 266.0, 109.0, 18.0 ],
					"numinlets" : 1,
					"fontname" : "Verdana",
					"frgb" : [ 0.741176, 0.035294, 0.035294, 1.0 ],
					"numoutlets" : 0,
					"id" : "obj-36",
					"textcolor" : [ 0.741176, 0.035294, 0.035294, 1.0 ],
					"fontsize" : 9.0
				}

			}
, 			{
				"box" : 				{
					"maxclass" : "message",
					"text" : ";\rmax refresh",
					"linecount" : 2,
					"patching_rect" : [ 890.0, 428.0, 70.0, 28.0 ],
					"numinlets" : 2,
					"fontname" : "Verdana",
					"numoutlets" : 1,
					"id" : "obj-40",
					"outlettype" : [ "" ],
					"fontsize" : 9.0
				}

			}
, 			{
				"box" : 				{
					"maxclass" : "message",
					"text" : "jcom.parameter",
					"patching_rect" : [ 891.0, 497.0, 90.0, 16.0 ],
					"numinlets" : 2,
					"fontname" : "Verdana",
					"numoutlets" : 1,
					"id" : "obj-41",
					"outlettype" : [ "" ],
					"fontsize" : 9.0
				}

			}
, 			{
				"box" : 				{
					"maxclass" : "newobj",
					"text" : "prepend help",
					"patching_rect" : [ 985.0, 532.0, 76.0, 18.0 ],
					"numinlets" : 1,
					"hidden" : 1,
					"fontname" : "Verdana",
					"numoutlets" : 1,
					"id" : "obj-42",
					"outlettype" : [ "" ],
					"fontsize" : 9.0
				}

			}
, 			{
				"box" : 				{
					"maxclass" : "newobj",
					"text" : "pcontrol",
					"patching_rect" : [ 985.0, 552.0, 51.0, 18.0 ],
					"numinlets" : 1,
					"hidden" : 1,
					"fontname" : "Verdana",
					"numoutlets" : 1,
					"id" : "obj-43",
					"outlettype" : [ "" ],
					"fontsize" : 9.0
				}

			}
, 			{
				"box" : 				{
					"maxclass" : "newobj",
					"text" : "loadbang",
					"patching_rect" : [ 890.0, 401.0, 56.0, 18.0 ],
					"numinlets" : 1,
					"fontname" : "Verdana",
					"numoutlets" : 1,
					"id" : "obj-44",
					"outlettype" : [ "bang" ],
					"fontsize" : 9.0
				}

			}
, 			{
				"box" : 				{
					"maxclass" : "newobj",
					"text" : "s incomming",
					"patching_rect" : [ 890.0, 357.0, 74.0, 18.0 ],
					"numinlets" : 1,
					"fontname" : "Verdana",
					"numoutlets" : 0,
					"id" : "obj-45",
					"fontsize" : 9.0
				}

			}
, 			{
				"box" : 				{
					"maxclass" : "message",
					"text" : "\/mymessage So Long",
					"patching_rect" : [ 890.0, 316.0, 118.0, 16.0 ],
					"numinlets" : 2,
					"fontname" : "Verdana",
					"numoutlets" : 1,
					"id" : "obj-46",
					"outlettype" : [ "" ],
					"fontsize" : 9.0
				}

			}
, 			{
				"box" : 				{
					"maxclass" : "message",
					"text" : "\/mymessage And thanks for all the fish!",
					"patching_rect" : [ 902.0, 334.0, 210.0, 16.0 ],
					"numinlets" : 2,
					"fontname" : "Verdana",
					"numoutlets" : 1,
					"id" : "obj-47",
					"outlettype" : [ "" ],
					"fontsize" : 9.0
				}

			}
, 			{
				"box" : 				{
					"maxclass" : "newobj",
					"text" : "loadmess set",
					"patching_rect" : [ 708.0, 429.0, 75.0, 18.0 ],
					"numinlets" : 1,
					"hidden" : 1,
					"fontname" : "Verdana",
					"numoutlets" : 1,
					"id" : "obj-48",
					"outlettype" : [ "" ],
					"fontsize" : 9.0
				}

			}
, 			{
				"box" : 				{
					"maxclass" : "newobj",
					"text" : "jcom.message mymessage @type msg_generic",
					"patching_rect" : [ 889.0, 247.0, 247.0, 18.0 ],
					"numinlets" : 1,
					"fontname" : "Verdana",
					"numoutlets" : 1,
					"id" : "obj-49",
					"outlettype" : [ "" ],
					"fontsize" : 9.0
				}

			}
, 			{
				"box" : 				{
					"maxclass" : "newobj",
					"text" : "pvar MyMessage",
					"patching_rect" : [ 889.0, 219.0, 93.0, 18.0 ],
					"numinlets" : 1,
					"fontname" : "Verdana",
					"numoutlets" : 1,
					"id" : "obj-50",
					"outlettype" : [ "" ],
					"fontsize" : 9.0
				}

			}
, 			{
				"box" : 				{
					"maxclass" : "message",
					"varname" : "MyMessage",
					"text" : "10",
					"patching_rect" : [ 633.0, 251.0, 143.0, 15.0 ],
					"numinlets" : 2,
					"fontname" : "Verdana",
					"numoutlets" : 1,
					"id" : "obj-51",
					"outlettype" : [ "" ],
					"fontsize" : 9.0
				}

			}
, 			{
				"box" : 				{
					"maxclass" : "newobj",
					"text" : "r incomming",
					"patching_rect" : [ 651.0, 359.0, 73.0, 18.0 ],
					"numinlets" : 0,
					"fontname" : "Verdana",
					"numoutlets" : 1,
					"id" : "obj-52",
					"outlettype" : [ "" ],
					"fontsize" : 9.0
				}

			}
, 			{
				"box" : 				{
					"maxclass" : "comment",
					"text" : "Can be used internally for processing",
					"patching_rect" : [ 638.0, 474.0, 195.0, 18.0 ],
					"numinlets" : 1,
					"fontname" : "Verdana",
					"numoutlets" : 0,
					"id" : "obj-53",
					"fontsize" : 9.0
				}

			}
, 			{
				"box" : 				{
					"maxclass" : "message",
					"patching_rect" : [ 568.0, 529.0, 202.0, 16.0 ],
					"numinlets" : 2,
					"fontname" : "Verdana",
					"numoutlets" : 1,
					"id" : "obj-54",
					"outlettype" : [ "" ],
					"fontsize" : 9.0
				}

			}
, 			{
				"box" : 				{
					"maxclass" : "newobj",
					"text" : "prepend set",
					"patching_rect" : [ 568.0, 504.0, 70.0, 18.0 ],
					"numinlets" : 1,
					"fontname" : "Verdana",
					"numoutlets" : 1,
					"id" : "obj-55",
					"outlettype" : [ "" ],
					"fontsize" : 9.0
				}

			}
, 			{
				"box" : 				{
					"maxclass" : "message",
					"patching_rect" : [ 638.0, 454.0, 187.0, 16.0 ],
					"numinlets" : 2,
					"fontname" : "Verdana",
					"numoutlets" : 1,
					"id" : "obj-56",
					"outlettype" : [ "" ],
					"fontsize" : 9.0
				}

			}
, 			{
				"box" : 				{
					"maxclass" : "newobj",
					"text" : "prepend set",
					"patching_rect" : [ 638.0, 429.0, 70.0, 18.0 ],
					"numinlets" : 1,
					"fontname" : "Verdana",
					"numoutlets" : 1,
					"id" : "obj-57",
					"outlettype" : [ "" ],
					"fontsize" : 9.0
				}

			}
, 			{
				"box" : 				{
					"maxclass" : "comment",
					"text" : "jcom.hub",
					"patching_rect" : [ 555.0, 330.0, 84.0, 23.0 ],
					"numinlets" : 1,
					"fontname" : "Verdana",
					"numoutlets" : 0,
					"id" : "obj-58",
					"fontsize" : 12.288889
				}

			}
, 			{
				"box" : 				{
					"maxclass" : "newobj",
					"varname" : "jcom.hub",
					"text" : "jcom.hub jcom.hub_help @size 1U-half @module_type control",
					"linecount" : 2,
					"patching_rect" : [ 555.0, 380.0, 220.0, 30.0 ],
					"numinlets" : 1,
					"fontname" : "Verdana",
					"numoutlets" : 2,
					"id" : "obj-59",
					"outlettype" : [ "", "" ],
					"fontsize" : 9.0
				}

			}
, 			{
				"box" : 				{
					"maxclass" : "comment",
					"text" : "command input",
					"patching_rect" : [ 567.0, 361.0, 88.0, 18.0 ],
					"numinlets" : 1,
					"fontname" : "Verdana",
					"numoutlets" : 0,
					"id" : "obj-60",
					"fontsize" : 9.0
				}

			}
, 			{
				"box" : 				{
					"maxclass" : "inlet",
					"patching_rect" : [ 555.0, 361.0, 13.0, 13.0 ],
					"numinlets" : 0,
					"numoutlets" : 1,
					"id" : "obj-61",
					"outlettype" : [ "" ],
					"comment" : ""
				}

			}
, 			{
				"box" : 				{
					"maxclass" : "outlet",
					"patching_rect" : [ 555.0, 444.0, 13.0, 13.0 ],
					"numinlets" : 1,
					"numoutlets" : 0,
					"id" : "obj-62",
					"comment" : ""
				}

			}
, 			{
				"box" : 				{
					"maxclass" : "comment",
					"text" : "my_message",
					"patching_rect" : [ 560.0, 252.0, 65.0, 17.0 ],
					"numinlets" : 1,
					"fontname" : "Verdana",
					"frgb" : [ 1.0, 1.0, 1.0, 1.0 ],
					"numoutlets" : 0,
					"id" : "obj-63",
					"textcolor" : [ 1.0, 1.0, 1.0, 1.0 ],
					"fontsize" : 9.0
				}

			}
, 			{
				"box" : 				{
					"maxclass" : "comment",
					"text" : "jcom.gui",
					"patching_rect" : [ 554.0, 200.0, 79.0, 23.0 ],
					"numinlets" : 1,
					"fontname" : "Verdana",
					"numoutlets" : 0,
					"id" : "obj-64",
					"fontsize" : 12.288889
				}

			}
, 			{
				"box" : 				{
					"maxclass" : "comment",
					"text" : "Reporting to the rest of the world",
					"patching_rect" : [ 568.0, 550.0, 177.0, 18.0 ],
					"numinlets" : 1,
					"fontname" : "Verdana",
					"numoutlets" : 0,
					"id" : "obj-65",
					"fontsize" : 9.0
				}

			}
, 			{
				"box" : 				{
					"maxclass" : "comment",
					"text" : "For information on configuring the attributes to the jcom.hub object, please refer to the Jamoma tutorials. These are the best source for getting familiar with the steps involved in building modules.",
					"linecount" : 2,
					"patching_rect" : [ 16.0, 117.0, 596.0, 30.0 ],
					"numinlets" : 1,
					"fontname" : "Verdana",
					"numoutlets" : 0,
					"id" : "obj-67",
					"fontsize" : 9.0
				}

			}
, 			{
				"box" : 				{
					"maxclass" : "comment",
					"text" : "jcom.hub",
					"patching_rect" : [ 15.0, 27.0, 189.0, 28.0 ],
					"numinlets" : 1,
					"fontname" : "Verdana",
					"frgb" : [ 1.0, 1.0, 1.0, 1.0 ],
					"numoutlets" : 0,
					"id" : "obj-68",
					"textcolor" : [ 1.0, 1.0, 1.0, 1.0 ],
					"fontsize" : 15.799999
				}

			}
, 			{
				"box" : 				{
					"maxclass" : "comment",
					"text" : "the central nervous system of a jamoma module",
					"patching_rect" : [ 16.0, 53.0, 252.0, 18.0 ],
					"numinlets" : 1,
					"fontname" : "Verdana",
					"frgb" : [ 1.0, 1.0, 1.0, 1.0 ],
					"numoutlets" : 0,
					"id" : "obj-69",
					"textcolor" : [ 1.0, 1.0, 1.0, 1.0 ],
					"fontsize" : 9.0
				}

			}
, 			{
				"box" : 				{
					"maxclass" : "comment",
					"text" : "jcom.hub is the central abstraction in a jamoma module. It parses input, distributes messaging to parameters, manages the pattrstorage object, generates documentation, configures the jcom.gui object, etc.",
					"linecount" : 2,
					"patching_rect" : [ 16.0, 80.0, 566.0, 30.0 ],
					"numinlets" : 1,
					"fontname" : "Verdana",
					"numoutlets" : 0,
					"id" : "obj-71",
					"fontsize" : 9.0
				}

			}
, 			{
				"box" : 				{
					"maxclass" : "comment",
					"text" : "See also",
					"patching_rect" : [ 891.0, 480.0, 52.0, 18.0 ],
					"numinlets" : 1,
					"fontname" : "Verdana",
					"numoutlets" : 0,
					"id" : "obj-72",
					"fontsize" : 9.0
				}

			}
, 			{
				"box" : 				{
					"maxclass" : "bpatcher",
					"varname" : "jcom.gui.1Uh.a.stereo.mxt",
					"patching_rect" : [ 554.0, 227.0, 256.0, 60.0 ],
					"numinlets" : 0,
					"numoutlets" : 0,
					"args" : [ "1227_" ],
					"id" : "obj-74",
					"name" : "jcom.gui.mxt"
				}

			}
, 			{
				"box" : 				{
					"maxclass" : "panel",
					"patching_rect" : [ 535.0, 182.0, 300.0, 119.0 ],
					"numinlets" : 1,
					"numoutlets" : 0,
					"rounded" : 0,
					"id" : "obj-75",
					"background" : 1,
					"bgcolor" : [ 0.780392, 0.780392, 0.839216, 1.0 ]
				}

			}
, 			{
				"box" : 				{
					"maxclass" : "panel",
					"patching_rect" : [ 37.0, 473.0, 469.0, 34.0 ],
					"numinlets" : 1,
					"numoutlets" : 0,
					"rounded" : 0,
					"border" : 1,
					"id" : "obj-19",
					"background" : 1,
					"bgcolor" : [ 0.780392, 0.780392, 0.839216, 1.0 ]
				}

			}
, 			{
				"box" : 				{
					"maxclass" : "panel",
					"patching_rect" : [ 37.0, 506.0, 469.0, 56.0 ],
					"numinlets" : 1,
					"numoutlets" : 0,
					"rounded" : 0,
					"border" : 1,
					"id" : "obj-20",
					"background" : 1,
					"bgcolor" : [ 0.780392, 0.780392, 0.839216, 1.0 ]
				}

			}
, 			{
				"box" : 				{
					"maxclass" : "panel",
					"patching_rect" : [ 37.0, 391.0, 470.0, 44.0 ],
					"numinlets" : 1,
					"numoutlets" : 0,
					"rounded" : 0,
					"border" : 1,
					"id" : "obj-25",
					"background" : 1,
					"bgcolor" : [ 0.780392, 0.780392, 0.839216, 1.0 ]
				}

			}
, 			{
				"box" : 				{
					"maxclass" : "panel",
					"patching_rect" : [ 37.0, 262.0, 470.0, 44.0 ],
					"numinlets" : 1,
					"numoutlets" : 0,
					"rounded" : 0,
					"border" : 1,
					"id" : "obj-37",
					"background" : 1,
					"bgcolor" : [ 0.780392, 0.780392, 0.839216, 1.0 ]
				}

			}
, 			{
				"box" : 				{
					"maxclass" : "panel",
					"patching_rect" : [ 37.0, 305.0, 470.0, 44.0 ],
					"numinlets" : 1,
					"numoutlets" : 0,
					"rounded" : 0,
					"border" : 1,
					"id" : "obj-38",
					"background" : 1,
					"bgcolor" : [ 0.780392, 0.780392, 0.839216, 1.0 ]
				}

			}
, 			{
				"box" : 				{
					"maxclass" : "panel",
					"patching_rect" : [ 37.0, 348.0, 470.0, 44.0 ],
					"numinlets" : 1,
					"numoutlets" : 0,
					"rounded" : 0,
					"border" : 1,
					"id" : "obj-39",
					"background" : 1,
					"bgcolor" : [ 0.780392, 0.780392, 0.839216, 1.0 ]
				}

			}
, 			{
				"box" : 				{
					"maxclass" : "panel",
					"patching_rect" : [ 536.0, 308.0, 300.0, 263.0 ],
					"numinlets" : 1,
					"numoutlets" : 0,
					"rounded" : 0,
					"id" : "obj-66",
					"background" : 1,
					"bgcolor" : [ 0.780392, 0.780392, 0.839216, 1.0 ]
				}

			}
, 			{
				"box" : 				{
					"maxclass" : "panel",
					"patching_rect" : [ 14.0, 21.0, 579.0, 51.0 ],
					"numinlets" : 1,
					"numoutlets" : 0,
					"rounded" : 0,
					"id" : "obj-70",
					"background" : 1,
					"bgcolor" : [ 0.262745, 0.254902, 0.419608, 1.0 ]
				}

			}
 ],
		"lines" : [ 			{
				"patchline" : 				{
					"source" : [ "obj-61", 0 ],
					"destination" : [ "obj-59", 0 ],
					"hidden" : 0
				}

			}
, 			{
				"patchline" : 				{
					"source" : [ "obj-52", 0 ],
					"destination" : [ "obj-59", 0 ],
					"hidden" : 0,
					"midpoints" : [ 660.5, 377.0, 564.5, 377.0 ]
				}

			}
, 			{
				"patchline" : 				{
					"source" : [ "obj-59", 0 ],
					"destination" : [ "obj-62", 0 ],
					"hidden" : 0
				}

			}
, 			{
				"patchline" : 				{
					"source" : [ "obj-59", 0 ],
					"destination" : [ "obj-55", 0 ],
					"hidden" : 0,
					"midpoints" : [ 564.5, 429.0, 577.5, 429.0 ]
				}

			}
, 			{
				"patchline" : 				{
					"source" : [ "obj-48", 0 ],
					"destination" : [ "obj-54", 0 ],
					"hidden" : 1
				}

			}
, 			{
				"patchline" : 				{
					"source" : [ "obj-55", 0 ],
					"destination" : [ "obj-54", 0 ],
					"hidden" : 0
				}

			}
, 			{
				"patchline" : 				{
					"source" : [ "obj-59", 1 ],
					"destination" : [ "obj-57", 0 ],
					"hidden" : 0,
					"midpoints" : [ 765.5, 419.0, 647.5, 419.0 ]
				}

			}
, 			{
				"patchline" : 				{
					"source" : [ "obj-57", 0 ],
					"destination" : [ "obj-56", 0 ],
					"hidden" : 0
				}

			}
, 			{
				"patchline" : 				{
					"source" : [ "obj-48", 0 ],
					"destination" : [ "obj-56", 0 ],
					"hidden" : 1,
					"midpoints" : [ 717.5, 450.0, 647.5, 450.0 ]
				}

			}
, 			{
				"patchline" : 				{
					"source" : [ "obj-49", 0 ],
					"destination" : [ "obj-50", 0 ],
					"hidden" : 0,
					"midpoints" : [ 898.5, 271.0, 877.0, 271.0, 877.0, 211.0, 898.5, 211.0 ]
				}

			}
, 			{
				"patchline" : 				{
					"source" : [ "obj-50", 0 ],
					"destination" : [ "obj-49", 0 ],
					"hidden" : 0
				}

			}
, 			{
				"patchline" : 				{
					"source" : [ "obj-47", 0 ],
					"destination" : [ "obj-45", 0 ],
					"hidden" : 0
				}

			}
, 			{
				"patchline" : 				{
					"source" : [ "obj-46", 0 ],
					"destination" : [ "obj-45", 0 ],
					"hidden" : 0
				}

			}
, 			{
				"patchline" : 				{
					"source" : [ "obj-44", 0 ],
					"destination" : [ "obj-40", 0 ],
					"hidden" : 0
				}

			}
, 			{
				"patchline" : 				{
					"source" : [ "obj-41", 0 ],
					"destination" : [ "obj-42", 0 ],
					"hidden" : 1
				}

			}
, 			{
				"patchline" : 				{
					"source" : [ "obj-1", 0 ],
					"destination" : [ "obj-42", 0 ],
					"hidden" : 1
				}

			}
, 			{
				"patchline" : 				{
					"source" : [ "obj-2", 0 ],
					"destination" : [ "obj-42", 0 ],
					"hidden" : 1
				}

			}
, 			{
				"patchline" : 				{
					"source" : [ "obj-3", 0 ],
					"destination" : [ "obj-42", 0 ],
					"hidden" : 1
				}

			}
, 			{
				"patchline" : 				{
					"source" : [ "obj-42", 0 ],
					"destination" : [ "obj-43", 0 ],
					"hidden" : 1
				}

			}
 ]
	}

}
