{
	"patcher" : 	{
		"fileversion" : 1,
		"rect" : [ 98.0, 268.0, 996.0, 478.0 ],
		"bglocked" : 0,
		"defrect" : [ 98.0, 268.0, 996.0, 478.0 ],
		"openrect" : [ 0.0, 0.0, 0.0, 0.0 ],
		"openinpresentation" : 0,
		"default_fontsize" : 10.970939,
		"default_fontface" : 0,
		"default_fontname" : "Verdana",
		"gridonopen" : 0,
		"gridsize" : [ 5.0, 5.0 ],
		"gridsnaponopen" : 0,
		"toolbarvisible" : 1,
		"boxanimatetime" : 200,
		"imprint" : 0,
		"metadata" : [  ],
		"boxes" : [ 			{
				"box" : 				{
					"maxclass" : "comment",
					"text" : "Choose replacement color",
					"linecount" : 2,
					"fontsize" : 10,
					"patching_rect" : [ 888.0, 162.0, 98.0, 30.0 ],
					"id" : "obj-1",
					"numinlets" : 1,
					"fontname" : "Verdana",
					"numoutlets" : 0
				}

			}
, 			{
				"box" : 				{
					"maxclass" : "comment",
					"text" : "Manually hoose which color to chromakey",
					"linecount" : 2,
					"fontsize" : 10,
					"patching_rect" : [ 860.0, 117.0, 121.0, 30.0 ],
					"id" : "obj-2",
					"numinlets" : 1,
					"fontname" : "Verdana",
					"numoutlets" : 0
				}

			}
, 			{
				"box" : 				{
					"maxclass" : "swatch",
					"outlettype" : [ "", "float" ],
					"compatibility" : 1,
					"patching_rect" : [ 757.0, 161.0, 128.0, 32.0 ],
					"id" : "obj-3",
					"numinlets" : 3,
					"numoutlets" : 2
				}

			}
, 			{
				"box" : 				{
					"maxclass" : "toggle",
					"outlettype" : [ "int" ],
					"patching_rect" : [ 696.0, 90.0, 15.0, 15.0 ],
					"id" : "obj-4",
					"numinlets" : 1,
					"numoutlets" : 1
				}

			}
, 			{
				"box" : 				{
					"maxclass" : "swatch",
					"outlettype" : [ "", "float" ],
					"compatibility" : 1,
					"patching_rect" : [ 726.0, 118.0, 128.0, 32.0 ],
					"id" : "obj-5",
					"numinlets" : 3,
					"numoutlets" : 2
				}

			}
, 			{
				"box" : 				{
					"maxclass" : "jit.pwindow",
					"outlettype" : [ "", "" ],
					"patching_rect" : [ 311.0, 228.0, 320.0, 240.0 ],
					"id" : "obj-6",
					"numinlets" : 1,
					"depthbuffer" : 0,
					"numoutlets" : 2
				}

			}
, 			{
				"box" : 				{
					"maxclass" : "newobj",
					"text" : "jcom.chromacolor%",
					"outlettype" : [ "jit_matrix" ],
					"fontsize" : 10,
					"patching_rect" : [ 666.0, 205.0, 110.0, 18.0 ],
					"id" : "obj-7",
					"numinlets" : 4,
					"fontname" : "Verdana",
					"numoutlets" : 1
				}

			}
, 			{
				"box" : 				{
					"maxclass" : "bpatcher",
					"varname" : "/input%[1]",
					"outlettype" : [ "", "" ],
					"patching_rect" : [ 312.0, 55.0, 255.0, 60.0 ],
					"args" : [ "/input%" ],
					"id" : "obj-8",
					"numinlets" : 1,
					"name" : "jmod.input%.maxpat",
					"numoutlets" : 2
				}

			}
, 			{
				"box" : 				{
					"maxclass" : "bpatcher",
					"varname" : "/brcosa%",
					"outlettype" : [ "", "" ],
					"patching_rect" : [ 312.0, 121.0, 255.0, 60.0 ],
					"args" : [ "/brcosa%" ],
					"id" : "obj-9",
					"numinlets" : 2,
					"name" : "jmod.brcosa%.maxpat",
					"numoutlets" : 2
				}

			}
, 			{
				"box" : 				{
					"maxclass" : "bpatcher",
					"outlettype" : [ "" ],
					"patching_rect" : [ 12.0, 77.0, 260.0, 146.0 ],
					"args" : [  ],
					"id" : "obj-10",
					"numinlets" : 0,
					"name" : "jmod.video_params.maxpat",
					"numoutlets" : 1
				}

			}
, 			{
				"box" : 				{
					"maxclass" : "comment",
					"text" : "jmod.chromacolor%",
					"fontsize" : 17.334082,
					"textcolor" : [ 1.0, 1.0, 1.0, 1.0 ],
					"frgb" : [ 1.0, 1.0, 1.0, 1.0 ],
					"patching_rect" : [ 4.0, 9.0, 189.0, 28.0 ],
					"id" : "obj-11",
					"numinlets" : 1,
					"fontname" : "Verdana",
					"numoutlets" : 0
				}

			}
, 			{
				"box" : 				{
					"maxclass" : "comment",
					"text" : "Change the color in the image based on chromakeying",
					"fontsize" : 10,
					"textcolor" : [ 1.0, 1.0, 1.0, 1.0 ],
					"frgb" : [ 1.0, 1.0, 1.0, 1.0 ],
					"patching_rect" : [ 5.0, 35.0, 282.0, 18.0 ],
					"id" : "obj-12",
					"numinlets" : 1,
					"fontname" : "Verdana",
					"numoutlets" : 0
				}

			}
, 			{
				"box" : 				{
					"maxclass" : "panel",
					"rounded" : 0,
					"patching_rect" : [ 0.0, 0.0, 287.0, 63.0 ],
					"id" : "obj-13",
					"numinlets" : 1,
					"numoutlets" : 0,
					"bgcolor" : [ 0.262745, 0.254902, 0.419608, 1.0 ],
					"bordercolor" : [ 0.501961, 0.043137, 0.039216, 1.0 ]
				}

			}
, 			{
				"box" : 				{
					"maxclass" : "jit.pwindow",
					"outlettype" : [ "", "" ],
					"patching_rect" : [ 665.0, 228.0, 320.0, 240.0 ],
					"id" : "obj-14",
					"numinlets" : 1,
					"depthbuffer" : 0,
					"numoutlets" : 2
				}

			}
, 			{
				"box" : 				{
					"maxclass" : "comment",
					"text" : "Automatic / manual chromakey",
					"fontsize" : 10,
					"patching_rect" : [ 714.0, 91.0, 187.0, 18.0 ],
					"id" : "obj-15",
					"numinlets" : 1,
					"fontname" : "Verdana",
					"numoutlets" : 0
				}

			}
 ],
		"lines" : [ 			{
				"patchline" : 				{
					"source" : [ "obj-3", 0 ],
					"destination" : [ "obj-7", 3 ],
					"hidden" : 0,
					"midpoints" : [  ]
				}

			}
, 			{
				"patchline" : 				{
					"source" : [ "obj-5", 0 ],
					"destination" : [ "obj-7", 2 ],
					"hidden" : 0,
					"midpoints" : [  ]
				}

			}
, 			{
				"patchline" : 				{
					"source" : [ "obj-4", 0 ],
					"destination" : [ "obj-7", 1 ],
					"hidden" : 0,
					"midpoints" : [  ]
				}

			}
, 			{
				"patchline" : 				{
					"source" : [ "obj-7", 0 ],
					"destination" : [ "obj-14", 0 ],
					"hidden" : 0,
					"midpoints" : [  ]
				}

			}
, 			{
				"patchline" : 				{
					"source" : [ "obj-9", 1 ],
					"destination" : [ "obj-7", 0 ],
					"hidden" : 0,
					"midpoints" : [ 557.5, 193.0, 675.5, 193.0 ]
				}

			}
, 			{
				"patchline" : 				{
					"source" : [ "obj-8", 1 ],
					"destination" : [ "obj-9", 1 ],
					"hidden" : 0,
					"midpoints" : [  ]
				}

			}
, 			{
				"patchline" : 				{
					"source" : [ "obj-9", 1 ],
					"destination" : [ "obj-6", 0 ],
					"hidden" : 0,
					"midpoints" : [ 557.5, 205.0, 320.5, 205.0 ]
				}

			}
 ]
	}

}
