{
	"patcher" : 	{
		"fileversion" : 1,
		"rect" : [ 95.0, 71.0, 467.0, 264.0 ],
		"bglocked" : 0,
		"defrect" : [ 95.0, 71.0, 467.0, 264.0 ],
		"openrect" : [ 0.0, 0.0, 0.0, 0.0 ],
		"openinpresentation" : 0,
		"default_fontsize" : 10.970939,
		"default_fontface" : 0,
		"default_fontname" : "Verdana",
		"gridonopen" : 0,
		"gridsize" : [ 5.0, 5.0 ],
		"gridsnaponopen" : 0,
		"toolbarvisible" : 1,
		"boxanimatetime" : 200,
		"imprint" : 0,
		"metadata" : [  ],
		"boxes" : [ 			{
				"box" : 				{
					"maxclass" : "newobj",
					"text" : "loadbang",
					"patching_rect" : [ 58.0, 82.0, 54.0, 19.0 ],
					"id" : "obj-1",
					"fontname" : "Verdana",
					"numinlets" : 1,
					"fontsize" : 10.0,
					"numoutlets" : 1,
					"outlettype" : [ "bang" ]
				}

			}
, 			{
				"box" : 				{
					"maxclass" : "message",
					"text" : "0",
					"patching_rect" : [ 273.0, 220.0, 56.0, 17.0 ],
					"id" : "obj-2",
					"fontname" : "Verdana",
					"numinlets" : 2,
					"fontsize" : 10.0,
					"numoutlets" : 1,
					"outlettype" : [ "" ]
				}

			}
, 			{
				"box" : 				{
					"maxclass" : "message",
					"text" : "0",
					"patching_rect" : [ 210.0, 220.0, 56.0, 17.0 ],
					"id" : "obj-3",
					"fontname" : "Verdana",
					"numinlets" : 2,
					"fontsize" : 10.0,
					"numoutlets" : 1,
					"outlettype" : [ "" ]
				}

			}
, 			{
				"box" : 				{
					"maxclass" : "message",
					"text" : "\"504\"",
					"patching_rect" : [ 147.0, 220.0, 56.0, 17.0 ],
					"id" : "obj-4",
					"fontname" : "Verdana",
					"numinlets" : 2,
					"fontsize" : 10.0,
					"numoutlets" : 1,
					"outlettype" : [ "" ]
				}

			}
, 			{
				"box" : 				{
					"maxclass" : "message",
					"text" : "\"54\"",
					"patching_rect" : [ 84.0, 220.0, 56.0, 17.0 ],
					"id" : "obj-5",
					"fontname" : "Verdana",
					"numinlets" : 2,
					"fontsize" : 10.0,
					"numoutlets" : 1,
					"outlettype" : [ "" ]
				}

			}
, 			{
				"box" : 				{
					"maxclass" : "message",
					"text" : "macintosh",
					"patching_rect" : [ 15.0, 220.0, 62.0, 17.0 ],
					"id" : "obj-6",
					"fontname" : "Verdana",
					"numinlets" : 2,
					"fontsize" : 10.0,
					"numoutlets" : 1,
					"outlettype" : [ "" ]
				}

			}
, 			{
				"box" : 				{
					"maxclass" : "newobj",
					"text" : "route os os_version max_version plugin runtime",
					"patching_rect" : [ 58.0, 167.0, 334.0, 19.0 ],
					"id" : "obj-12",
					"fontname" : "Verdana",
					"numinlets" : 1,
					"fontsize" : 10.0,
					"numoutlets" : 6,
					"outlettype" : [ "", "", "", "", "", "" ]
				}

			}
, 			{
				"box" : 				{
					"maxclass" : "button",
					"patching_rect" : [ 58.0, 112.0, 22.0, 22.0 ],
					"id" : "obj-13",
					"numinlets" : 1,
					"numoutlets" : 1,
					"outlettype" : [ "bang" ]
				}

			}
, 			{
				"box" : 				{
					"maxclass" : "newobj",
					"text" : "js jcom.js_systeminfo.js",
					"patching_rect" : [ 58.0, 137.0, 154.0, 19.0 ],
					"id" : "obj-14",
					"fontname" : "Verdana",
					"numinlets" : 1,
					"fontsize" : 10.0,
					"numoutlets" : 1,
					"outlettype" : [ "" ]
				}

			}
, 			{
				"box" : 				{
					"maxclass" : "comment",
					"text" : "jcom.js_systeminfo.js",
					"patching_rect" : [ 12.0, 12.0, 222.0, 28.0 ],
					"frgb" : [ 0.933333, 0.937255, 0.968627, 1.0 ],
					"id" : "obj-15",
					"fontname" : "Verdana",
					"numinlets" : 1,
					"fontsize" : 17.334082,
					"numoutlets" : 0
				}

			}
, 			{
				"box" : 				{
					"maxclass" : "comment",
					"text" : "Javascript providing some info on the system",
					"patching_rect" : [ 12.0, 37.0, 286.0, 19.0 ],
					"frgb" : [ 0.933333, 0.937255, 0.968627, 1.0 ],
					"id" : "obj-16",
					"fontname" : "Verdana",
					"numinlets" : 1,
					"fontsize" : 10.0,
					"numoutlets" : 0
				}

			}
, 			{
				"box" : 				{
					"maxclass" : "panel",
					"patching_rect" : [ 5.0, 5.0, 372.0, 53.0 ],
					"id" : "obj-17",
					"rounded" : 15,
					"numinlets" : 1,
					"numoutlets" : 0
				}

			}
, 			{
				"box" : 				{
					"maxclass" : "message",
					"text" : "set",
					"hidden" : 1,
					"patching_rect" : [ 405.0, 135.0, 40.0, 17.0 ],
					"id" : "obj-18",
					"fontname" : "Verdana",
					"numinlets" : 2,
					"fontsize" : 10.0,
					"numoutlets" : 1,
					"outlettype" : [ "" ]
				}

			}
 ],
		"lines" : [ 			{
				"patchline" : 				{
					"source" : [ "obj-1", 0 ],
					"destination" : [ "obj-18", 0 ],
					"hidden" : 1,
					"color" : [ 1.0, 0.890196, 0.090196, 1.0 ],
					"midpoints" : [ 67.5, 106.0, 414.5, 106.0 ]
				}

			}
, 			{
				"patchline" : 				{
					"source" : [ "obj-18", 0 ],
					"destination" : [ "obj-2", 0 ],
					"hidden" : 1,
					"color" : [ 1.0, 0.890196, 0.090196, 1.0 ],
					"midpoints" : [ 414.5, 211.0, 282.5, 211.0 ]
				}

			}
, 			{
				"patchline" : 				{
					"source" : [ "obj-18", 0 ],
					"destination" : [ "obj-3", 0 ],
					"hidden" : 1,
					"color" : [ 1.0, 0.890196, 0.090196, 1.0 ],
					"midpoints" : [ 414.5, 211.0, 219.5, 211.0 ]
				}

			}
, 			{
				"patchline" : 				{
					"source" : [ "obj-18", 0 ],
					"destination" : [ "obj-4", 0 ],
					"hidden" : 1,
					"color" : [ 1.0, 0.890196, 0.090196, 1.0 ],
					"midpoints" : [ 414.5, 211.0, 156.5, 211.0 ]
				}

			}
, 			{
				"patchline" : 				{
					"source" : [ "obj-18", 0 ],
					"destination" : [ "obj-5", 0 ],
					"hidden" : 1,
					"color" : [ 1.0, 0.890196, 0.090196, 1.0 ],
					"midpoints" : [ 414.5, 211.0, 93.5, 211.0 ]
				}

			}
, 			{
				"patchline" : 				{
					"source" : [ "obj-18", 0 ],
					"destination" : [ "obj-6", 0 ],
					"hidden" : 1,
					"color" : [ 1.0, 0.890196, 0.090196, 1.0 ],
					"midpoints" : [ 414.5, 211.0, 24.5, 211.0 ]
				}

			}
, 			{
				"patchline" : 				{
					"source" : [ "obj-14", 0 ],
					"destination" : [ "obj-12", 0 ],
					"hidden" : 0,
					"midpoints" : [  ]
				}

			}
, 			{
				"patchline" : 				{
					"source" : [ "obj-13", 0 ],
					"destination" : [ "obj-14", 0 ],
					"hidden" : 0,
					"midpoints" : [  ]
				}

			}
, 			{
				"patchline" : 				{
					"source" : [ "obj-1", 0 ],
					"destination" : [ "obj-13", 0 ],
					"hidden" : 0,
					"midpoints" : [  ]
				}

			}
, 			{
				"patchline" : 				{
					"source" : [ "obj-12", 0 ],
					"destination" : [ "obj-6", 1 ],
					"hidden" : 0,
					"midpoints" : [ 67.5, 184.0 ]
				}

			}
, 			{
				"patchline" : 				{
					"source" : [ "obj-12", 1 ],
					"destination" : [ "obj-5", 1 ],
					"hidden" : 0,
					"midpoints" : [  ]
				}

			}
, 			{
				"patchline" : 				{
					"source" : [ "obj-12", 2 ],
					"destination" : [ "obj-4", 1 ],
					"hidden" : 0,
					"midpoints" : [  ]
				}

			}
, 			{
				"patchline" : 				{
					"source" : [ "obj-12", 3 ],
					"destination" : [ "obj-3", 1 ],
					"hidden" : 0,
					"midpoints" : [  ]
				}

			}
, 			{
				"patchline" : 				{
					"source" : [ "obj-12", 4 ],
					"destination" : [ "obj-2", 1 ],
					"hidden" : 0,
					"midpoints" : [  ]
				}

			}
 ]
	}

}
