{
	"patcher" : 	{
		"fileversion" : 1,
		"rect" : [ 145.0, 130.0, 346.0, 247.0 ],
		"bglocked" : 0,
		"defrect" : [ 145.0, 130.0, 346.0, 247.0 ],
		"openrect" : [ 0.0, 0.0, 0.0, 0.0 ],
		"openinpresentation" : 0,
		"default_fontsize" : 10.0,
		"default_fontface" : 0,
		"default_fontname" : "Verdana",
		"gridonopen" : 0,
		"gridsize" : [ 5.0, 5.0 ],
		"gridsnaponopen" : 0,
		"toolbarvisible" : 1,
		"boxanimatetime" : 200,
		"imprint" : 0,
		"metadata" : [  ],
		"boxes" : [ 			{
				"box" : 				{
					"maxclass" : "flonum",
					"outlettype" : [ "float", "bang" ],
					"fontsize" : 10.0,
					"patching_rect" : [ 88.0, 106.0, 41.0, 19.0 ],
					"triscale" : 0.9,
					"id" : "obj-1",
					"numinlets" : 1,
					"fontname" : "Verdana",
					"numoutlets" : 2
				}

			}
, 			{
				"box" : 				{
					"maxclass" : "flonum",
					"outlettype" : [ "float", "bang" ],
					"fontsize" : 10.0,
					"patching_rect" : [ 32.0, 173.0, 41.0, 19.0 ],
					"triscale" : 0.9,
					"id" : "obj-2",
					"numinlets" : 1,
					"fontname" : "Verdana",
					"numoutlets" : 2
				}

			}
, 			{
				"box" : 				{
					"maxclass" : "flonum",
					"outlettype" : [ "float", "bang" ],
					"fontsize" : 10.0,
					"patching_rect" : [ 32.0, 106.0, 41.0, 19.0 ],
					"triscale" : 0.9,
					"id" : "obj-3",
					"numinlets" : 1,
					"fontname" : "Verdana",
					"numoutlets" : 2
				}

			}
, 			{
				"box" : 				{
					"maxclass" : "newobj",
					"text" : "jcom.absdiff",
					"outlettype" : [ "float" ],
					"fontsize" : 10.0,
					"patching_rect" : [ 32.0, 138.0, 75.0, 19.0 ],
					"id" : "obj-4",
					"numinlets" : 2,
					"fontname" : "Verdana",
					"numoutlets" : 1,
					"color" : [ 0.5, 0.5, 0.5, 1.0 ]
				}

			}
, 			{
				"box" : 				{
					"maxclass" : "comment",
					"text" : "jcom.absdiff",
					"fontsize" : 17.553501,
					"patching_rect" : [ 17.0, 18.0, 157.0, 28.0 ],
					"id" : "obj-5",
					"numinlets" : 1,
					"fontname" : "Verdana",
					"numoutlets" : 0
				}

			}
, 			{
				"box" : 				{
					"maxclass" : "comment",
					"text" : "Calculates the absolute difference between two numbers",
					"fontsize" : 10.0,
					"patching_rect" : [ 17.0, 43.0, 308.0, 19.0 ],
					"id" : "obj-6",
					"numinlets" : 1,
					"fontname" : "Verdana",
					"numoutlets" : 0
				}

			}
, 			{
				"box" : 				{
					"maxclass" : "panel",
					"rounded" : 15,
					"patching_rect" : [ 16.0, 13.0, 310.0, 50.0 ],
					"id" : "obj-7",
					"numinlets" : 1,
					"numoutlets" : 0
				}

			}
 ],
		"lines" : [ 			{
				"patchline" : 				{
					"source" : [ "obj-1", 0 ],
					"destination" : [ "obj-4", 1 ],
					"hidden" : 0,
					"midpoints" : [  ]
				}

			}
, 			{
				"patchline" : 				{
					"source" : [ "obj-4", 0 ],
					"destination" : [ "obj-2", 0 ],
					"hidden" : 0,
					"midpoints" : [  ]
				}

			}
, 			{
				"patchline" : 				{
					"source" : [ "obj-3", 0 ],
					"destination" : [ "obj-4", 0 ],
					"hidden" : 0,
					"midpoints" : [  ]
				}

			}
 ]
	}

}
