{
	"patcher" : 	{
		"rect" : [ 128.0, 119.0, 837.0, 419.0 ],
		"bglocked" : 0,
		"defrect" : [ 128.0, 119.0, 837.0, 419.0 ],
		"openinpresentation" : 0,
		"default_fontsize" : 10.0,
		"default_fontface" : 0,
		"default_fontname" : "Verdana",
		"gridonopen" : 0,
		"gridsize" : [ 5.0, 5.0 ],
		"gridsnaponopen" : 0,
		"toolbarvisible" : 1,
		"boxfadetime" : 200,
		"boxanimatetime" : 200,
		"scrollanimatetime" : 200,
		"metadata" : [  ],
		"boxes" : [ 			{
				"box" : 				{
					"maxclass" : "umenu",
					"varname" : "module_out",
					"outlettype" : [ "int", "", "" ],
					"fontsize" : 9.0,
					"items" : [ "\/limiter", ",", "\/control", ",", "\/mouse" ],
					"patching_rect" : [ 356.0, 108.0, 84.0, 18.0 ],
					"numinlets" : 1,
					"fontname" : "Verdana",
					"numoutlets" : 3,
					"id" : "obj-1",
					"types" : [  ]
				}

			}
, 			{
				"box" : 				{
					"maxclass" : "bpatcher",
					"varname" : "\/limiter~\/2",
					"patching_rect" : [ 32.0, 351.0, 255.0, 60.0 ],
					"args" : [ "\/limiter.2" ],
					"numinlets" : 0,
					"name" : "jmod.limiter~.mxt",
					"numoutlets" : 0,
					"id" : "obj-2"
				}

			}
, 			{
				"box" : 				{
					"maxclass" : "bpatcher",
					"varname" : "control",
					"patching_rect" : [ 32.0, 173.0, 255.0, 60.0 ],
					"args" : [ "\/control" ],
					"numinlets" : 0,
					"name" : "jmod.control.mxt",
					"numoutlets" : 0,
					"id" : "obj-3"
				}

			}
, 			{
				"box" : 				{
					"maxclass" : "bpatcher",
					"varname" : "\/mouse\/1",
					"patching_rect" : [ 32.0, 232.0, 255.0, 60.0 ],
					"args" : [ "\/mouse" ],
					"numinlets" : 0,
					"name" : "jmod.mouse.mxt",
					"numoutlets" : 0,
					"id" : "obj-4"
				}

			}
, 			{
				"box" : 				{
					"maxclass" : "bpatcher",
					"varname" : "\/limiter~\/1",
					"patching_rect" : [ 32.0, 292.0, 255.0, 60.0 ],
					"args" : [ "\/limiter.1" ],
					"numinlets" : 0,
					"name" : "jmod.limiter~.mxt",
					"numoutlets" : 0,
					"id" : "obj-5"
				}

			}
, 			{
				"box" : 				{
					"maxclass" : "comment",
					"text" : "can be used for namespace discovery",
					"fontsize" : 9.0,
					"patching_rect" : [ 34.0, 111.0, 232.0, 18.0 ],
					"numinlets" : 1,
					"fontname" : "Verdana",
					"numoutlets" : 0,
					"id" : "obj-6"
				}

			}
, 			{
				"box" : 				{
					"maxclass" : "comment",
					"text" : "(according to the JIG, the instance number should be indicated in the form \".n\")",
					"linecount" : 2,
					"fontsize" : 9.0,
					"patching_rect" : [ 555.0, 93.0, 246.0, 30.0 ],
					"numinlets" : 1,
					"fontname" : "Verdana",
					"numoutlets" : 0,
					"id" : "obj-7"
				}

			}
, 			{
				"box" : 				{
					"maxclass" : "newobj",
					"text" : "thispatcher",
					"outlettype" : [ "", "" ],
					"hidden" : 1,
					"fontsize" : 9.0,
					"patching_rect" : [ 500.0, 128.0, 75.0, 18.0 ],
					"numinlets" : 1,
					"fontname" : "Verdana",
					"numoutlets" : 2,
					"id" : "obj-8",
					"save" : [ "#N", "thispatcher", ";", "#Q", "end", ";" ]
				}

			}
, 			{
				"box" : 				{
					"maxclass" : "newobj",
					"text" : "t s set",
					"outlettype" : [ "", "set" ],
					"hidden" : 1,
					"fontsize" : 9.0,
					"patching_rect" : [ 663.0, 242.0, 60.0, 18.0 ],
					"numinlets" : 1,
					"fontname" : "Verdana",
					"numoutlets" : 2,
					"id" : "obj-9"
				}

			}
, 			{
				"box" : 				{
					"maxclass" : "newobj",
					"text" : "t s set",
					"outlettype" : [ "", "set" ],
					"hidden" : 1,
					"fontsize" : 9.0,
					"patching_rect" : [ 511.0, 222.0, 60.0, 18.0 ],
					"numinlets" : 1,
					"fontname" : "Verdana",
					"numoutlets" : 2,
					"id" : "obj-10"
				}

			}
, 			{
				"box" : 				{
					"maxclass" : "newobj",
					"text" : "p format",
					"outlettype" : [ "" ],
					"hidden" : 1,
					"fontsize" : 9.0,
					"patching_rect" : [ 357.0, 264.0, 55.0, 18.0 ],
					"numinlets" : 1,
					"fontname" : "Verdana",
					"numoutlets" : 1,
					"id" : "obj-11",
					"patcher" : 					{
						"rect" : [ 10.0, 59.0, 205.0, 198.0 ],
										"bglocked" : 0,
						"defrect" : [ 10.0, 59.0, 205.0, 198.0 ],
						"openinpresentation" : 0,
						"default_fontsize" : 10.0,
						"default_fontface" : 0,
						"default_fontname" : "Verdana",
						"gridonopen" : 0,
						"gridsize" : [ 5.0, 5.0 ],
						"gridsnaponopen" : 0,
						"toolbarvisible" : 1,
						"boxfadetime" : 200,
						"boxanimatetime" : 200,
						"scrollanimatetime" : 200,
						"metadata" : [  ],
						"boxes" : [ 							{
								"box" : 								{
									"maxclass" : "button",
									"outlettype" : [ "bang" ],
									"patching_rect" : [ 31.0, 51.0, 15.0, 15.0 ],
									"numinlets" : 1,
									"numoutlets" : 1,
									"id" : "obj-1"
								}

							}
, 							{
								"box" : 								{
									"maxclass" : "message",
									"text" : "append \\;",
									"outlettype" : [ "" ],
									"fontsize" : 9.0,
									"patching_rect" : [ 31.0, 69.0, 50.0, 15.0 ],
									"numinlets" : 2,
									"fontname" : "Verdana",
									"numoutlets" : 1,
									"id" : "obj-2"
								}

							}
, 							{
								"box" : 								{
									"maxclass" : "newobj",
									"text" : "prepend append",
									"outlettype" : [ "" ],
									"fontsize" : 9.0,
									"patching_rect" : [ 86.0, 68.0, 78.0, 17.0 ],
									"numinlets" : 1,
									"fontname" : "Verdana",
									"numoutlets" : 1,
									"id" : "obj-3"
								}

							}
, 							{
								"box" : 								{
									"maxclass" : "outlet",
									"patching_rect" : [ 31.0, 102.0, 15.0, 15.0 ],
									"numinlets" : 1,
									"numoutlets" : 0,
									"id" : "obj-4",
									"comment" : ""
								}

							}
, 							{
								"box" : 								{
									"maxclass" : "inlet",
									"outlettype" : [ "" ],
									"patching_rect" : [ 31.0, 31.0, 15.0, 15.0 ],
									"numinlets" : 0,
									"numoutlets" : 1,
									"id" : "obj-5",
									"comment" : ""
								}

							}
 ],
						"lines" : [ 							{
								"patchline" : 								{
									"source" : [ "obj-5", 0 ],
									"destination" : [ "obj-1", 0 ],
									"hidden" : 0
								}

							}
, 							{
								"patchline" : 								{
									"source" : [ "obj-1", 0 ],
									"destination" : [ "obj-2", 0 ],
									"hidden" : 0
								}

							}
, 							{
								"patchline" : 								{
									"source" : [ "obj-2", 0 ],
									"destination" : [ "obj-4", 0 ],
									"hidden" : 0,
									"midpoints" : [ 40.5, 92.0, 40.0, 92.0 ]
								}

							}
, 							{
								"patchline" : 								{
									"source" : [ "obj-3", 0 ],
									"destination" : [ "obj-4", 0 ],
									"hidden" : 0,
									"midpoints" : [ 95.5, 92.0, 40.0, 92.0 ]
								}

							}
, 							{
								"patchline" : 								{
									"source" : [ "obj-5", 0 ],
									"destination" : [ "obj-3", 0 ],
									"hidden" : 0,
									"midpoints" : [ 40.0, 48.0, 95.5, 48.0 ]
								}

							}
 ]
					}
,
					"saved_object_attributes" : 					{
						"fontsize" : 10.0,
						"default_fontsize" : 10.0,
						"globalpatchername" : "",
						"fontname" : "Verdana",
						"default_fontface" : 0,
						"default_fontname" : "Verdana",
						"fontface" : 0
					}

				}

			}
, 			{
				"box" : 				{
					"maxclass" : "newobj",
					"text" : "t s set",
					"outlettype" : [ "", "set" ],
					"hidden" : 1,
					"fontsize" : 9.0,
					"patching_rect" : [ 357.0, 222.0, 62.0, 18.0 ],
					"numinlets" : 1,
					"fontname" : "Verdana",
					"numoutlets" : 2,
					"id" : "obj-12"
				}

			}
, 			{
				"box" : 				{
					"maxclass" : "newobj",
					"text" : "prepend append",
					"outlettype" : [ "" ],
					"hidden" : 1,
					"fontsize" : 9.0,
					"patching_rect" : [ 663.0, 181.0, 89.0, 18.0 ],
					"numinlets" : 1,
					"fontname" : "Verdana",
					"numoutlets" : 1,
					"id" : "obj-13"
				}

			}
, 			{
				"box" : 				{
					"maxclass" : "newobj",
					"text" : "prepend append",
					"outlettype" : [ "" ],
					"hidden" : 1,
					"fontsize" : 9.0,
					"patching_rect" : [ 511.0, 179.0, 89.0, 18.0 ],
					"numinlets" : 1,
					"fontname" : "Verdana",
					"numoutlets" : 1,
					"id" : "obj-14"
				}

			}
, 			{
				"box" : 				{
					"maxclass" : "newobj",
					"text" : "prepend append",
					"outlettype" : [ "" ],
					"hidden" : 1,
					"fontsize" : 9.0,
					"patching_rect" : [ 357.0, 180.0, 89.0, 18.0 ],
					"numinlets" : 1,
					"fontname" : "Verdana",
					"numoutlets" : 1,
					"id" : "obj-15"
				}

			}
, 			{
				"box" : 				{
					"maxclass" : "message",
					"text" : "\"clipmode none\";\r\"description reports\" the cpu usage of the dsp processing\"\";\r\"range 0. 1.\";\r\"repetitions 1\";\r\"type msg_generic\";\r",
					"linecount" : 5,
					"outlettype" : [ "" ],
					"fontsize" : 9.0,
					"patching_rect" : [ 357.0, 289.0, 313.0, 64.0 ],
					"numinlets" : 2,
					"fontname" : "Verdana",
					"numoutlets" : 1,
					"id" : "obj-16"
				}

			}
, 			{
				"box" : 				{
					"maxclass" : "newobj",
					"text" : "jcom.attributes_dumper",
					"outlettype" : [ "" ],
					"fontsize" : 9.0,
					"patching_rect" : [ 663.0, 242.0, 149.0, 18.0 ],
					"numinlets" : 2,
					"fontname" : "Verdana",
					"numoutlets" : 1,
					"id" : "obj-17"
				}

			}
, 			{
				"box" : 				{
					"maxclass" : "newobj",
					"text" : "jcom.attributes_dumper",
					"outlettype" : [ "" ],
					"fontsize" : 9.0,
					"patching_rect" : [ 511.0, 242.0, 149.0, 18.0 ],
					"numinlets" : 2,
					"fontname" : "Verdana",
					"numoutlets" : 1,
					"id" : "obj-18"
				}

			}
, 			{
				"box" : 				{
					"maxclass" : "umenu",
					"outlettype" : [ "int", "", "" ],
					"fontsize" : 9.0,
					"items" : [ "audio\/amplitude\/1", ",", "audio\/amplitude\/2" ],
					"patching_rect" : [ 663.0, 202.0, 120.0, 18.0 ],
					"numinlets" : 1,
					"fontname" : "Verdana",
					"numoutlets" : 3,
					"id" : "obj-19",
					"types" : [  ]
				}

			}
, 			{
				"box" : 				{
					"maxclass" : "umenu",
					"outlettype" : [ "int", "", "" ],
					"fontsize" : 9.0,
					"items" : [ "audio\/gain", ",", "audio\/meters\/clear", ",", "documentation\/generate", ",", "documentation\/help", ",", "documentation\/html", ",", "module\/view_internals", ",", "preset\/default", ",", "preset\/post", ",", "preset\/read", ",", "preset\/recall", ",", "preset\/store", ",", "preset\/write", ",", "ui\/refresh" ],
					"patching_rect" : [ 511.0, 202.0, 120.0, 18.0 ],
					"numinlets" : 1,
					"fontname" : "Verdana",
					"numoutlets" : 3,
					"id" : "obj-20",
					"types" : [  ]
				}

			}
, 			{
				"box" : 				{
					"maxclass" : "umenu",
					"outlettype" : [ "int", "", "" ],
					"fontsize" : 9.0,
					"items" : [ "audio\/bypass", ",", "audio\/enveloppe_follower\/1", ",", "audio\/enveloppe_follower\/2", ",", "audio\/gain\/midi", ",", "audio\/meters\/freeze", ",", "audio\/mix", ",", "audio\/mute", ",", "lookahead", ",", "mode", ",", "postamp", ",", "preamp", ",", "release", ",", "threshold", ",", "ui\/freeze" ],
					"patching_rect" : [ 357.0, 202.0, 125.0, 18.0 ],
					"numinlets" : 1,
					"fontname" : "Verdana",
					"numoutlets" : 3,
					"id" : "obj-21",
					"types" : [  ]
				}

			}
, 			{
				"box" : 				{
					"maxclass" : "number",
					"outlettype" : [ "int", "bang" ],
					"fontsize" : 9.0,
					"htextcolor" : [ 0.870588, 0.870588, 0.870588, 1.0 ],
					"bgcolor" : [ 0.866667, 0.866667, 0.866667, 1.0 ],
					"triscale" : 0.9,
					"patching_rect" : [ 450.0, 108.0, 37.0, 18.0 ],
					"maximum" : 2,
					"numinlets" : 1,
					"fontname" : "Verdana",
					"numoutlets" : 2,
					"id" : "obj-22"
				}

			}
, 			{
				"box" : 				{
					"maxclass" : "umenu",
					"outlettype" : [ "int", "", "" ],
					"fontsize" : 9.0,
					"items" : ".",
					"patching_rect" : [ 438.0, 108.0, 13.0, 18.0 ],
					"numinlets" : 1,
					"fontname" : "Verdana",
					"numoutlets" : 3,
					"arrow" : 0,
					"id" : "obj-23",
					"types" : [  ]
				}

			}
, 			{
				"box" : 				{
					"maxclass" : "newobj",
					"text" : "prepend append",
					"outlettype" : [ "" ],
					"hidden" : 1,
					"fontsize" : 9.0,
					"patching_rect" : [ 356.0, 84.0, 89.0, 18.0 ],
					"numinlets" : 1,
					"fontname" : "Verdana",
					"numoutlets" : 1,
					"id" : "obj-24"
				}

			}
, 			{
				"box" : 				{
					"maxclass" : "message",
					"text" : "get the module names here",
					"outlettype" : [ "" ],
					"fontsize" : 9.0,
					"patching_rect" : [ 356.0, 34.0, 158.0, 16.0 ],
					"numinlets" : 2,
					"fontname" : "Verdana",
					"numoutlets" : 1,
					"id" : "obj-25"
				}

			}
, 			{
				"box" : 				{
					"maxclass" : "newobj",
					"text" : "jcom.modules_dumper",
					"outlettype" : [ "", "", "" ],
					"fontsize" : 9.0,
					"patching_rect" : [ 356.0, 64.0, 196.0, 18.0 ],
					"numinlets" : 1,
					"fontname" : "Verdana",
					"numoutlets" : 3,
					"id" : "obj-26"
				}

			}
, 			{
				"box" : 				{
					"maxclass" : "newobj",
					"text" : "jcom.returns_dumper",
					"outlettype" : [ "" ],
					"fontsize" : 9.0,
					"patching_rect" : [ 663.0, 156.0, 135.0, 18.0 ],
					"numinlets" : 1,
					"fontname" : "Verdana",
					"numoutlets" : 1,
					"id" : "obj-27"
				}

			}
, 			{
				"box" : 				{
					"maxclass" : "newobj",
					"text" : "jcom.messages_dumper",
					"outlettype" : [ "" ],
					"fontsize" : 9.0,
					"patching_rect" : [ 511.0, 156.0, 142.0, 18.0 ],
					"numinlets" : 1,
					"fontname" : "Verdana",
					"numoutlets" : 1,
					"id" : "obj-28"
				}

			}
, 			{
				"box" : 				{
					"maxclass" : "newobj",
					"text" : "jcom.parameters_dumper",
					"outlettype" : [ "" ],
					"fontsize" : 9.0,
					"patching_rect" : [ 357.0, 156.0, 152.0, 18.0 ],
					"numinlets" : 1,
					"fontname" : "Verdana",
					"numoutlets" : 1,
					"id" : "obj-29"
				}

			}
, 			{
				"box" : 				{
					"maxclass" : "newobj",
					"text" : "jcom.attributes_dumper",
					"outlettype" : [ "" ],
					"fontsize" : 9.0,
					"patching_rect" : [ 357.0, 242.0, 149.0, 18.0 ],
					"numinlets" : 2,
					"fontname" : "Verdana",
					"numoutlets" : 1,
					"id" : "obj-30"
				}

			}
, 			{
				"box" : 				{
					"maxclass" : "comment",
					"text" : "put some modules to have a namespace :",
					"fontsize" : 9.0,
					"patching_rect" : [ 34.0, 155.0, 236.0, 18.0 ],
					"numinlets" : 1,
					"fontname" : "Verdana",
					"numoutlets" : 0,
					"id" : "obj-31"
				}

			}
, 			{
				"box" : 				{
					"maxclass" : "comment",
					"text" : "jcom.all_dumper",
					"textcolor" : [ 1.0, 1.0, 1.0, 1.0 ],
					"fontsize" : 16.0,
					"frgb" : [ 1.0, 1.0, 1.0, 1.0 ],
					"patching_rect" : [ 37.0, 41.0, 251.0, 28.0 ],
					"numinlets" : 1,
					"fontname" : "Verdana",
					"numoutlets" : 0,
					"id" : "obj-32"
				}

			}
, 			{
				"box" : 				{
					"maxclass" : "comment",
					"text" : "utilities to analyze the whole Jamoma namespace",
					"textcolor" : [ 1.0, 1.0, 1.0, 1.0 ],
					"fontsize" : 9.0,
					"frgb" : [ 1.0, 1.0, 1.0, 1.0 ],
					"patching_rect" : [ 38.0, 71.0, 295.0, 18.0 ],
					"numinlets" : 1,
					"fontname" : "Verdana",
					"numoutlets" : 0,
					"id" : "obj-33"
				}

			}
, 			{
				"box" : 				{
					"maxclass" : "panel",
					"bordercolor" : [ 0.501961, 0.043137, 0.039216, 1.0 ],
					"bgcolor" : [ 0.262745, 0.254902, 0.419608, 1.0 ],
					"rounded" : 0,
					"patching_rect" : [ 31.0, 29.0, 298.0, 65.0 ],
					"numinlets" : 1,
					"numoutlets" : 0,
					"id" : "obj-34"
				}

			}
, 			{
				"box" : 				{
					"maxclass" : "newobj",
					"text" : "p instances",
					"outlettype" : [ "", "", "clear", "" ],
					"hidden" : 1,
					"fontsize" : 9.0,
					"patching_rect" : [ 387.0, 128.0, 110.0, 18.0 ],
					"numinlets" : 2,
					"fontname" : "Verdana",
					"numoutlets" : 4,
					"id" : "obj-35",
					"patcher" : 					{
						"rect" : [ 694.0, 405.0, 480.0, 416.0 ],
										"bglocked" : 0,
						"defrect" : [ 694.0, 405.0, 480.0, 416.0 ],
						"openinpresentation" : 0,
						"default_fontsize" : 10.0,
						"default_fontface" : 0,
						"default_fontname" : "Verdana",
						"gridonopen" : 0,
						"gridsize" : [ 5.0, 5.0 ],
						"gridsnaponopen" : 0,
						"toolbarvisible" : 1,
						"boxfadetime" : 200,
						"boxanimatetime" : 200,
						"scrollanimatetime" : 200,
						"metadata" : [  ],
						"boxes" : [ 							{
								"box" : 								{
									"maxclass" : "outlet",
									"patching_rect" : [ 413.0, 183.0, 15.0, 15.0 ],
									"numinlets" : 1,
									"numoutlets" : 0,
									"id" : "obj-1",
									"comment" : ""
								}

							}
, 							{
								"box" : 								{
									"maxclass" : "newobj",
									"text" : "p script",
									"outlettype" : [ "" ],
									"fontsize" : 9.0,
									"patching_rect" : [ 413.0, 158.0, 45.0, 17.0 ],
									"numinlets" : 2,
									"fontname" : "Verdana",
									"numoutlets" : 1,
									"id" : "obj-2",
									"patcher" : 									{
										"rect" : [ 139.0, 51.0, 496.0, 199.0 ],
																		"bglocked" : 0,
										"defrect" : [ 139.0, 51.0, 496.0, 199.0 ],
										"openinpresentation" : 0,
										"default_fontsize" : 10.0,
										"default_fontface" : 0,
										"default_fontname" : "Verdana",
										"gridonopen" : 0,
										"gridsize" : [ 5.0, 5.0 ],
										"gridsnaponopen" : 0,
										"toolbarvisible" : 1,
										"boxfadetime" : 200,
										"boxanimatetime" : 200,
										"scrollanimatetime" : 200,
										"metadata" : [  ],
										"boxes" : [ 											{
												"box" : 												{
													"maxclass" : "newobj",
													"text" : "loadbang",
													"outlettype" : [ "bang" ],
													"fontsize" : 9.0,
													"patching_rect" : [ 69.0, 45.0, 50.0, 17.0 ],
													"numinlets" : 1,
													"fontname" : "Verdana",
													"numoutlets" : 1,
													"id" : "obj-1"
												}

											}
, 											{
												"box" : 												{
													"maxclass" : "outlet",
													"patching_rect" : [ 28.0, 111.0, 15.0, 15.0 ],
													"numinlets" : 1,
													"numoutlets" : 0,
													"id" : "obj-2",
													"comment" : ""
												}

											}
, 											{
												"box" : 												{
													"maxclass" : "message",
													"text" : "script size module_out 91 16",
													"outlettype" : [ "" ],
													"fontsize" : 9.0,
													"patching_rect" : [ 218.0, 63.0, 234.0, 15.0 ],
													"numinlets" : 2,
													"fontname" : "Verdana",
													"numoutlets" : 1,
													"id" : "obj-3"
												}

											}
, 											{
												"box" : 												{
													"maxclass" : "inlet",
													"outlettype" : [ "bang" ],
													"patching_rect" : [ 218.0, 36.0, 15.0, 15.0 ],
													"numinlets" : 0,
													"numoutlets" : 1,
													"id" : "obj-4",
													"comment" : ""
												}

											}
, 											{
												"box" : 												{
													"maxclass" : "inlet",
													"outlettype" : [ "bang" ],
													"patching_rect" : [ 28.0, 44.0, 15.0, 15.0 ],
													"numinlets" : 0,
													"numoutlets" : 1,
													"id" : "obj-5",
													"comment" : ""
												}

											}
, 											{
												"box" : 												{
													"maxclass" : "message",
													"text" : "script size module_out 138 16",
													"outlettype" : [ "" ],
													"fontsize" : 9.0,
													"patching_rect" : [ 28.0, 67.0, 151.0, 15.0 ],
													"numinlets" : 2,
													"fontname" : "Verdana",
													"numoutlets" : 1,
													"id" : "obj-6"
												}

											}
 ],
										"lines" : [ 											{
												"patchline" : 												{
													"source" : [ "obj-1", 0 ],
													"destination" : [ "obj-6", 0 ],
													"hidden" : 0
												}

											}
, 											{
												"patchline" : 												{
													"source" : [ "obj-5", 0 ],
													"destination" : [ "obj-6", 0 ],
													"hidden" : 0
												}

											}
, 											{
												"patchline" : 												{
													"source" : [ "obj-6", 0 ],
													"destination" : [ "obj-2", 0 ],
													"hidden" : 0
												}

											}
, 											{
												"patchline" : 												{
													"source" : [ "obj-3", 0 ],
													"destination" : [ "obj-2", 0 ],
													"hidden" : 0,
													"midpoints" : [ 227.5, 100.0, 37.0, 100.0 ]
												}

											}
, 											{
												"patchline" : 												{
													"source" : [ "obj-4", 0 ],
													"destination" : [ "obj-3", 0 ],
													"hidden" : 0
												}

											}
 ]
									}
,
									"saved_object_attributes" : 									{
										"fontsize" : 10.0,
										"default_fontsize" : 10.0,
										"globalpatchername" : "",
										"fontname" : "Verdana",
										"default_fontface" : 0,
										"default_fontname" : "Verdana",
										"fontface" : 0
									}

								}

							}
, 							{
								"box" : 								{
									"maxclass" : "newobj",
									"text" : "sel 0 1",
									"outlettype" : [ "bang", "bang", "" ],
									"fontsize" : 9.0,
									"patching_rect" : [ 413.0, 131.0, 44.0, 17.0 ],
									"numinlets" : 1,
									"fontname" : "Verdana",
									"numoutlets" : 3,
									"id" : "obj-3"
								}

							}
, 							{
								"box" : 								{
									"maxclass" : "outlet",
									"patching_rect" : [ 401.0, 325.0, 16.0, 16.0 ],
									"numinlets" : 1,
									"numoutlets" : 0,
									"id" : "obj-4",
									"comment" : "connect to menus to clear them when a new module is chosen"
								}

							}
, 							{
								"box" : 								{
									"maxclass" : "newobj",
									"text" : "t s clear",
									"outlettype" : [ "", "clear" ],
									"fontsize" : 9.0,
									"patching_rect" : [ 14.0, 301.0, 397.0, 17.0 ],
									"numinlets" : 1,
									"fontname" : "Verdana",
									"numoutlets" : 2,
									"id" : "obj-5"
								}

							}
, 							{
								"box" : 								{
									"maxclass" : "newobj",
									"text" : "prepend set",
									"outlettype" : [ "" ],
									"fontsize" : 9.0,
									"patching_rect" : [ 302.0, 232.0, 67.0, 17.0 ],
									"numinlets" : 1,
									"fontname" : "Verdana",
									"numoutlets" : 1,
									"id" : "obj-6"
								}

							}
, 							{
								"box" : 								{
									"maxclass" : "newobj",
									"text" : "loadmess -1",
									"outlettype" : [ "" ],
									"fontsize" : 9.0,
									"patching_rect" : [ 220.0, 105.0, 60.0, 17.0 ],
									"numinlets" : 1,
									"fontname" : "Verdana",
									"numoutlets" : 1,
									"id" : "obj-7"
								}

							}
, 							{
								"box" : 								{
									"maxclass" : "newobj",
									"text" : "sel 1",
									"outlettype" : [ "bang", "" ],
									"fontsize" : 9.0,
									"patching_rect" : [ 302.0, 130.0, 39.0, 17.0 ],
									"numinlets" : 2,
									"fontname" : "Verdana",
									"numoutlets" : 2,
									"id" : "obj-8"
								}

							}
, 							{
								"box" : 								{
									"maxclass" : "newobj",
									"text" : "change",
									"outlettype" : [ "", "int", "int" ],
									"fontsize" : 9.0,
									"patching_rect" : [ 190.0, 127.0, 40.0, 17.0 ],
									"numinlets" : 1,
									"fontname" : "Verdana",
									"numoutlets" : 3,
									"id" : "obj-9"
								}

							}
, 							{
								"box" : 								{
									"maxclass" : "outlet",
									"patching_rect" : [ 302.0, 265.0, 15.0, 15.0 ],
									"numinlets" : 1,
									"numoutlets" : 0,
									"id" : "obj-10",
									"comment" : ""
								}

							}
, 							{
								"box" : 								{
									"maxclass" : "newobj",
									"text" : "prepend max",
									"outlettype" : [ "" ],
									"fontsize" : 9.0,
									"patching_rect" : [ 331.0, 200.0, 67.0, 17.0 ],
									"numinlets" : 1,
									"fontname" : "Verdana",
									"numoutlets" : 1,
									"id" : "obj-11"
								}

							}
, 							{
								"box" : 								{
									"maxclass" : "newobj",
									"text" : "i",
									"outlettype" : [ "int" ],
									"fontsize" : 9.0,
									"patching_rect" : [ 331.0, 174.0, 25.0, 17.0 ],
									"numinlets" : 2,
									"fontname" : "Verdana",
									"numoutlets" : 1,
									"id" : "obj-12"
								}

							}
, 							{
								"box" : 								{
									"maxclass" : "newobj",
									"text" : "gate 2",
									"outlettype" : [ "", "" ],
									"fontsize" : 9.0,
									"patching_rect" : [ 14.0, 202.0, 96.0, 17.0 ],
									"numinlets" : 2,
									"fontname" : "Verdana",
									"numoutlets" : 2,
									"id" : "obj-13"
								}

							}
, 							{
								"box" : 								{
									"maxclass" : "newobj",
									"text" : "prepend symbol",
									"outlettype" : [ "" ],
									"fontsize" : 9.0,
									"patching_rect" : [ 190.0, 58.0, 80.0, 17.0 ],
									"numinlets" : 1,
									"fontname" : "Verdana",
									"numoutlets" : 1,
									"id" : "obj-14"
								}

							}
, 							{
								"box" : 								{
									"maxclass" : "newobj",
									"text" : "coll jcom.modules_instances 1",
									"outlettype" : [ "", "", "", "" ],
									"fontsize" : 9.0,
									"patching_rect" : [ 190.0, 80.0, 144.0, 17.0 ],
									"numinlets" : 1,
									"fontname" : "Verdana",
									"numoutlets" : 4,
									"id" : "obj-15",
									"save" : [ "#N", "coll", "jcom.modules_instances", 1, ";" ],
									"saved_object_attributes" : 									{
										"embed" : 0
									}

								}

							}
, 							{
								"box" : 								{
									"maxclass" : "newobj",
									"text" : "switch 2 1",
									"outlettype" : [ "" ],
									"fontsize" : 9.0,
									"patching_rect" : [ 14.0, 281.0, 96.0, 17.0 ],
									"numinlets" : 3,
									"fontname" : "Verdana",
									"numoutlets" : 1,
									"id" : "obj-16"
								}

							}
, 							{
								"box" : 								{
									"maxclass" : "newobj",
									"text" : "+ 1",
									"outlettype" : [ "int" ],
									"fontsize" : 9.0,
									"patching_rect" : [ 190.0, 152.0, 27.0, 17.0 ],
									"numinlets" : 2,
									"fontname" : "Verdana",
									"numoutlets" : 1,
									"id" : "obj-17"
								}

							}
, 							{
								"box" : 								{
									"maxclass" : "newobj",
									"text" : "sprintf %s",
									"outlettype" : [ "" ],
									"fontsize" : 9.0,
									"patching_rect" : [ 14.0, 237.0, 58.0, 17.0 ],
									"numinlets" : 1,
									"fontname" : "Verdana",
									"numoutlets" : 1,
									"id" : "obj-18"
								}

							}
, 							{
								"box" : 								{
									"maxclass" : "newobj",
									"text" : "t b i",
									"outlettype" : [ "bang", "int" ],
									"fontsize" : 9.0,
									"patching_rect" : [ 134.0, 202.0, 42.0, 17.0 ],
									"numinlets" : 1,
									"fontname" : "Verdana",
									"numoutlets" : 2,
									"id" : "obj-19"
								}

							}
, 							{
								"box" : 								{
									"maxclass" : "newobj",
									"text" : "> 0",
									"outlettype" : [ "int" ],
									"fontsize" : 9.0,
									"patching_rect" : [ 190.0, 105.0, 27.0, 17.0 ],
									"numinlets" : 2,
									"fontname" : "Verdana",
									"numoutlets" : 1,
									"id" : "obj-20"
								}

							}
, 							{
								"box" : 								{
									"maxclass" : "newobj",
									"text" : "sprintf %s.%s",
									"outlettype" : [ "" ],
									"fontsize" : 9.0,
									"patching_rect" : [ 100.0, 236.0, 76.0, 17.0 ],
									"numinlets" : 2,
									"fontname" : "Verdana",
									"numoutlets" : 1,
									"id" : "obj-21"
								}

							}
, 							{
								"box" : 								{
									"maxclass" : "inlet",
									"outlettype" : [ "int" ],
									"patching_rect" : [ 134.0, 184.0, 13.0, 13.0 ],
									"numinlets" : 0,
									"numoutlets" : 1,
									"id" : "obj-22",
									"comment" : ""
								}

							}
, 							{
								"box" : 								{
									"maxclass" : "newobj",
									"text" : "t 1 b",
									"outlettype" : [ "int", "bang" ],
									"fontsize" : 9.0,
									"patching_rect" : [ 302.0, 153.0, 39.0, 17.0 ],
									"numinlets" : 1,
									"fontname" : "Verdana",
									"numoutlets" : 2,
									"id" : "obj-23"
								}

							}
, 							{
								"box" : 								{
									"maxclass" : "outlet",
									"patching_rect" : [ 14.0, 326.0, 15.0, 15.0 ],
									"numinlets" : 1,
									"numoutlets" : 0,
									"id" : "obj-24",
									"comment" : ""
								}

							}
, 							{
								"box" : 								{
									"maxclass" : "inlet",
									"outlettype" : [ "" ],
									"patching_rect" : [ 100.0, 24.0, 15.0, 15.0 ],
									"numinlets" : 0,
									"numoutlets" : 1,
									"id" : "obj-25",
									"comment" : ""
								}

							}
 ],
						"lines" : [ 							{
								"patchline" : 								{
									"source" : [ "obj-17", 0 ],
									"destination" : [ "obj-13", 0 ],
									"hidden" : 0
								}

							}
, 							{
								"patchline" : 								{
									"source" : [ "obj-13", 0 ],
									"destination" : [ "obj-18", 0 ],
									"hidden" : 0
								}

							}
, 							{
								"patchline" : 								{
									"source" : [ "obj-17", 0 ],
									"destination" : [ "obj-16", 0 ],
									"hidden" : 0,
									"midpoints" : [ 199.5, 270.0, 23.5, 270.0 ]
								}

							}
, 							{
								"patchline" : 								{
									"source" : [ "obj-16", 0 ],
									"destination" : [ "obj-5", 0 ],
									"hidden" : 0
								}

							}
, 							{
								"patchline" : 								{
									"source" : [ "obj-5", 0 ],
									"destination" : [ "obj-24", 0 ],
									"hidden" : 0
								}

							}
, 							{
								"patchline" : 								{
									"source" : [ "obj-18", 0 ],
									"destination" : [ "obj-16", 1 ],
									"hidden" : 0
								}

							}
, 							{
								"patchline" : 								{
									"source" : [ "obj-25", 0 ],
									"destination" : [ "obj-13", 1 ],
									"hidden" : 0
								}

							}
, 							{
								"patchline" : 								{
									"source" : [ "obj-19", 0 ],
									"destination" : [ "obj-21", 0 ],
									"hidden" : 0
								}

							}
, 							{
								"patchline" : 								{
									"source" : [ "obj-13", 1 ],
									"destination" : [ "obj-21", 0 ],
									"hidden" : 0
								}

							}
, 							{
								"patchline" : 								{
									"source" : [ "obj-21", 0 ],
									"destination" : [ "obj-16", 2 ],
									"hidden" : 0
								}

							}
, 							{
								"patchline" : 								{
									"source" : [ "obj-22", 0 ],
									"destination" : [ "obj-19", 0 ],
									"hidden" : 0
								}

							}
, 							{
								"patchline" : 								{
									"source" : [ "obj-23", 0 ],
									"destination" : [ "obj-21", 1 ],
									"hidden" : 0,
									"midpoints" : [ 311.5, 225.0, 166.5, 225.0 ]
								}

							}
, 							{
								"patchline" : 								{
									"source" : [ "obj-19", 1 ],
									"destination" : [ "obj-21", 1 ],
									"hidden" : 0
								}

							}
, 							{
								"patchline" : 								{
									"source" : [ "obj-25", 0 ],
									"destination" : [ "obj-14", 0 ],
									"hidden" : 0
								}

							}
, 							{
								"patchline" : 								{
									"source" : [ "obj-14", 0 ],
									"destination" : [ "obj-15", 0 ],
									"hidden" : 0
								}

							}
, 							{
								"patchline" : 								{
									"source" : [ "obj-15", 0 ],
									"destination" : [ "obj-20", 0 ],
									"hidden" : 0
								}

							}
, 							{
								"patchline" : 								{
									"source" : [ "obj-20", 0 ],
									"destination" : [ "obj-9", 0 ],
									"hidden" : 0
								}

							}
, 							{
								"patchline" : 								{
									"source" : [ "obj-7", 0 ],
									"destination" : [ "obj-9", 0 ],
									"hidden" : 0,
									"midpoints" : [ 229.5, 124.0, 199.5, 124.0 ]
								}

							}
, 							{
								"patchline" : 								{
									"source" : [ "obj-9", 0 ],
									"destination" : [ "obj-17", 0 ],
									"hidden" : 0
								}

							}
, 							{
								"patchline" : 								{
									"source" : [ "obj-20", 0 ],
									"destination" : [ "obj-8", 0 ],
									"hidden" : 0,
									"midpoints" : [ 199.5, 125.0, 311.5, 125.0 ]
								}

							}
, 							{
								"patchline" : 								{
									"source" : [ "obj-8", 0 ],
									"destination" : [ "obj-23", 0 ],
									"hidden" : 0
								}

							}
, 							{
								"patchline" : 								{
									"source" : [ "obj-23", 0 ],
									"destination" : [ "obj-6", 0 ],
									"hidden" : 0
								}

							}
, 							{
								"patchline" : 								{
									"source" : [ "obj-6", 0 ],
									"destination" : [ "obj-10", 0 ],
									"hidden" : 0
								}

							}
, 							{
								"patchline" : 								{
									"source" : [ "obj-11", 0 ],
									"destination" : [ "obj-10", 0 ],
									"hidden" : 0,
									"midpoints" : [ 340.5, 255.0, 311.0, 255.0 ]
								}

							}
, 							{
								"patchline" : 								{
									"source" : [ "obj-23", 1 ],
									"destination" : [ "obj-12", 0 ],
									"hidden" : 0
								}

							}
, 							{
								"patchline" : 								{
									"source" : [ "obj-12", 0 ],
									"destination" : [ "obj-11", 0 ],
									"hidden" : 0
								}

							}
, 							{
								"patchline" : 								{
									"source" : [ "obj-15", 0 ],
									"destination" : [ "obj-12", 1 ],
									"hidden" : 0,
									"midpoints" : [ 199.5, 101.0, 346.5, 101.0 ]
								}

							}
, 							{
								"patchline" : 								{
									"source" : [ "obj-5", 1 ],
									"destination" : [ "obj-4", 0 ],
									"hidden" : 0
								}

							}
, 							{
								"patchline" : 								{
									"source" : [ "obj-20", 0 ],
									"destination" : [ "obj-3", 0 ],
									"hidden" : 0,
									"midpoints" : [ 199.5, 125.0, 422.5, 125.0 ]
								}

							}
, 							{
								"patchline" : 								{
									"source" : [ "obj-3", 0 ],
									"destination" : [ "obj-2", 0 ],
									"hidden" : 0
								}

							}
, 							{
								"patchline" : 								{
									"source" : [ "obj-2", 0 ],
									"destination" : [ "obj-1", 0 ],
									"hidden" : 0
								}

							}
, 							{
								"patchline" : 								{
									"source" : [ "obj-3", 1 ],
									"destination" : [ "obj-2", 1 ],
									"hidden" : 0
								}

							}
 ]
					}
,
					"saved_object_attributes" : 					{
						"fontsize" : 10.0,
						"default_fontsize" : 10.0,
						"globalpatchername" : "",
						"fontname" : "Verdana",
						"default_fontface" : 0,
						"default_fontname" : "Verdana",
						"fontface" : 0
					}

				}

			}
, 			{
				"box" : 				{
					"maxclass" : "comment",
					"text" : "also analyzes the number of instantiated modules of the same type",
					"linecount" : 2,
					"fontsize" : 9.0,
					"patching_rect" : [ 555.0, 63.0, 243.0, 30.0 ],
					"numinlets" : 1,
					"fontname" : "Verdana",
					"numoutlets" : 0,
					"id" : "obj-36"
				}

			}
 ],
		"lines" : [ 			{
				"patchline" : 				{
					"source" : [ "obj-25", 0 ],
					"destination" : [ "obj-26", 0 ],
					"hidden" : 0
				}

			}
, 			{
				"patchline" : 				{
					"source" : [ "obj-26", 0 ],
					"destination" : [ "obj-24", 0 ],
					"hidden" : 1
				}

			}
, 			{
				"patchline" : 				{
					"source" : [ "obj-26", 2 ],
					"destination" : [ "obj-1", 0 ],
					"hidden" : 1,
					"midpoints" : [ 542.5, 104.0, 365.5, 104.0 ]
				}

			}
, 			{
				"patchline" : 				{
					"source" : [ "obj-24", 0 ],
					"destination" : [ "obj-1", 0 ],
					"hidden" : 1
				}

			}
, 			{
				"patchline" : 				{
					"source" : [ "obj-35", 0 ],
					"destination" : [ "obj-29", 0 ],
					"hidden" : 1,
					"midpoints" : [ 396.5, 151.0, 366.5, 151.0 ]
				}

			}
, 			{
				"patchline" : 				{
					"source" : [ "obj-29", 0 ],
					"destination" : [ "obj-15", 0 ],
					"hidden" : 1
				}

			}
, 			{
				"patchline" : 				{
					"source" : [ "obj-35", 2 ],
					"destination" : [ "obj-21", 0 ],
					"hidden" : 1,
					"midpoints" : [ 457.166656, 177.0, 366.5, 177.0 ]
				}

			}
, 			{
				"patchline" : 				{
					"source" : [ "obj-15", 0 ],
					"destination" : [ "obj-21", 0 ],
					"hidden" : 1
				}

			}
, 			{
				"patchline" : 				{
					"source" : [ "obj-21", 1 ],
					"destination" : [ "obj-12", 0 ],
					"hidden" : 1,
					"midpoints" : [ 419.5, 220.0, 366.5, 220.0 ]
				}

			}
, 			{
				"patchline" : 				{
					"source" : [ "obj-12", 0 ],
					"destination" : [ "obj-30", 0 ],
					"hidden" : 0
				}

			}
, 			{
				"patchline" : 				{
					"source" : [ "obj-30", 0 ],
					"destination" : [ "obj-11", 0 ],
					"hidden" : 1
				}

			}
, 			{
				"patchline" : 				{
					"source" : [ "obj-18", 0 ],
					"destination" : [ "obj-11", 0 ],
					"hidden" : 1,
					"midpoints" : [ 520.5, 261.0, 366.5, 261.0 ]
				}

			}
, 			{
				"patchline" : 				{
					"source" : [ "obj-17", 0 ],
					"destination" : [ "obj-11", 0 ],
					"hidden" : 1,
					"midpoints" : [ 672.5, 261.0, 366.5, 261.0 ]
				}

			}
, 			{
				"patchline" : 				{
					"source" : [ "obj-11", 0 ],
					"destination" : [ "obj-16", 0 ],
					"hidden" : 1
				}

			}
, 			{
				"patchline" : 				{
					"source" : [ "obj-12", 1 ],
					"destination" : [ "obj-16", 0 ],
					"hidden" : 1,
					"midpoints" : [ 409.5, 284.0, 366.5, 284.0 ]
				}

			}
, 			{
				"patchline" : 				{
					"source" : [ "obj-10", 1 ],
					"destination" : [ "obj-16", 0 ],
					"hidden" : 1,
					"midpoints" : [ 561.5, 284.0, 366.5, 284.0 ]
				}

			}
, 			{
				"patchline" : 				{
					"source" : [ "obj-9", 1 ],
					"destination" : [ "obj-16", 0 ],
					"hidden" : 1,
					"midpoints" : [ 713.5, 284.0, 366.5, 284.0 ]
				}

			}
, 			{
				"patchline" : 				{
					"source" : [ "obj-1", 1 ],
					"destination" : [ "obj-35", 0 ],
					"hidden" : 1
				}

			}
, 			{
				"patchline" : 				{
					"source" : [ "obj-35", 1 ],
					"destination" : [ "obj-22", 0 ],
					"hidden" : 1
				}

			}
, 			{
				"patchline" : 				{
					"source" : [ "obj-35", 0 ],
					"destination" : [ "obj-30", 0 ],
					"hidden" : 1,
					"midpoints" : [ 396.5, 151.0, 366.5, 151.0 ]
				}

			}
, 			{
				"patchline" : 				{
					"source" : [ "obj-22", 0 ],
					"destination" : [ "obj-35", 1 ],
					"hidden" : 1
				}

			}
, 			{
				"patchline" : 				{
					"source" : [ "obj-35", 0 ],
					"destination" : [ "obj-28", 0 ],
					"hidden" : 1,
					"midpoints" : [ 396.5, 151.0, 520.5, 151.0 ]
				}

			}
, 			{
				"patchline" : 				{
					"source" : [ "obj-28", 0 ],
					"destination" : [ "obj-14", 0 ],
					"hidden" : 1
				}

			}
, 			{
				"patchline" : 				{
					"source" : [ "obj-35", 2 ],
					"destination" : [ "obj-20", 0 ],
					"hidden" : 1,
					"midpoints" : [ 457.166656, 198.0, 520.5, 198.0 ]
				}

			}
, 			{
				"patchline" : 				{
					"source" : [ "obj-14", 0 ],
					"destination" : [ "obj-20", 0 ],
					"hidden" : 1
				}

			}
, 			{
				"patchline" : 				{
					"source" : [ "obj-20", 1 ],
					"destination" : [ "obj-10", 0 ],
					"hidden" : 1,
					"midpoints" : [ 571.0, 220.0, 520.5, 220.0 ]
				}

			}
, 			{
				"patchline" : 				{
					"source" : [ "obj-10", 0 ],
					"destination" : [ "obj-18", 0 ],
					"hidden" : 1
				}

			}
, 			{
				"patchline" : 				{
					"source" : [ "obj-35", 3 ],
					"destination" : [ "obj-8", 0 ],
					"hidden" : 1
				}

			}
, 			{
				"patchline" : 				{
					"source" : [ "obj-35", 0 ],
					"destination" : [ "obj-18", 0 ],
					"hidden" : 1,
					"midpoints" : [ 396.5, 151.0, 520.5, 151.0 ]
				}

			}
, 			{
				"patchline" : 				{
					"source" : [ "obj-35", 0 ],
					"destination" : [ "obj-27", 0 ],
					"hidden" : 1,
					"midpoints" : [ 396.5, 151.0, 672.5, 151.0 ]
				}

			}
, 			{
				"patchline" : 				{
					"source" : [ "obj-27", 0 ],
					"destination" : [ "obj-13", 0 ],
					"hidden" : 1
				}

			}
, 			{
				"patchline" : 				{
					"source" : [ "obj-35", 2 ],
					"destination" : [ "obj-19", 0 ],
					"hidden" : 1,
					"midpoints" : [ 457.166656, 177.0, 672.5, 177.0 ]
				}

			}
, 			{
				"patchline" : 				{
					"source" : [ "obj-13", 0 ],
					"destination" : [ "obj-19", 0 ],
					"hidden" : 1
				}

			}
, 			{
				"patchline" : 				{
					"source" : [ "obj-19", 1 ],
					"destination" : [ "obj-9", 0 ],
					"hidden" : 1,
					"midpoints" : [ 723.0, 222.0, 672.5, 222.0 ]
				}

			}
, 			{
				"patchline" : 				{
					"source" : [ "obj-9", 0 ],
					"destination" : [ "obj-17", 0 ],
					"hidden" : 1,
					"midpoints" : [ 672.5, 243.0, 672.5, 243.0 ]
				}

			}
, 			{
				"patchline" : 				{
					"source" : [ "obj-35", 0 ],
					"destination" : [ "obj-17", 0 ],
					"hidden" : 1,
					"midpoints" : [ 396.5, 151.0, 672.5, 151.0 ]
				}

			}
 ]
	}

}
