max v2;#N vpatcher 58 50 582 727;#P window setfont "Sans Serif" 9.;#P window linecount 1;#P hidden newex 248 182 47 196617 pcontrol;#P hidden newex 248 161 66 196617 prepend help;#P message 235 139 114 196617 jcom.ambimonitor2xyz;#P message 235 121 114 196617 jcom.xyz2ambimonitor;#P message 112 139 112 196617 jcom.ambimonitor2aed;#P message 112 121 112 196617 jcom.aed2ambimonitor;#P message 28 139 73 196617 jcom.xyz2aed;#P message 28 121 73 196617 jcom.aed2xyz;#P comment 346 417 81 196617 front view (x/z);#P comment 370 596 30 196617 down;#P comment 286 520 24 196617 left;#P comment 455 520 33 196617 right;#P comment 376 442 18 196617 up;#P comment 430 520 20 196617 +x;#B frgb 255 255 255;#P comment 317 520 19 196617 -x;#B frgb 255 255 255;#P comment 376 577 18 196617 -z;#B frgb 255 255 255;#P comment 376 460 19 196617 +z;#B frgb 255 255 255;#P user panel 313 455 140 140;#X brgb 132 132 132;#X frgb 0 0 0;#X border 0;#X rounded 140;#X shadow 0;#X done;#P comment 346 203 78 196617 top view (x/y);#P comment 372 382 30 196617 rear;#P comment 286 306 24 196617 left;#P comment 455 306 33 196617 right;#P comment 369 228 33 196617 front;#P comment 430 306 20 196617 +x;#B frgb 255 255 255;#P comment 317 306 19 196617 -x;#B frgb 255 255 255;#P comment 376 364 19 196617 -y;#B frgb 255 255 255;#P comment 376 247 20 196617 +y;#B frgb 255 255 255;#P user panel 313 241 140 140;#X brgb 132 132 132;#X frgb 0 0 0;#X border 0;#X rounded 140;#X shadow 0;#X done;#P comment 83 417 105 196617 front view (elevation);#P comment 115 596 30 196617 down;#P comment 31 520 24 196617 left;#P comment 200 520 33 196617 right;#P comment 121 442 18 196617 up;#P comment 178 520 19 196617 0¡;#B frgb 255 255 255;#P comment 62 520 19 196617 0¡;#B frgb 255 255 255;#P comment 115 577 32 196617 -90¡;#B frgb 255 255 255;#P comment 115 460 33 196617 +90¡;#B frgb 255 255 255;#P user panel 58 455 140 140;#X brgb 132 132 132;#X frgb 0 0 0;#X border 0;#X rounded 140;#X shadow 0;#X done;#P comment 83 203 95 196617 top view (azimuth);#P comment 117 382 30 196617 rear;#P comment 31 306 24 196617 left;#P comment 200 306 33 196617 right;#P comment 114 228 33 196617 front;#P comment 166 306 33 196617 +90¡;#B frgb 255 255 255;#P comment 62 306 32 196617 -90¡;#B frgb 255 255 255;#P comment 106 363 50 196617 +/-180¡;#B frgb 255 255 255;#P comment 121 246 20 196617 0¡;#B frgb 255 255 255;#P user panel 58 241 140 140;#X brgb 132 132 132;#X frgb 0 0 0;#X border 0;#X rounded 140;#X shadow 0;#X done;#P window linecount 2;#P comment 21 66 455 196617 SpatDIF uses spherical and Cartesian coordinate systems based on navigation/topology conventions. These also seem to be common in contemporary music practises.;#P window linecount 1;#P comment 26 174 217 196617 angles can take any positive or negative value;#P comment 20 99 449 196617 The following utilities are available for mapping and convertion of spatial data in Jamoma:;#P window setfont "Sans Serif" 18.;#P comment 19 19 188 196626 SpatDIF Coordinates;#B frgb 255 255 255;#P window setfont "Sans Serif" 9.;#P comment 19 44 448 196617 Recommended coordinate systems in the SpatDIF Spatial Sound Description Interchange Format;#B frgb 255 255 255;#P user panel 14 14 459 49;#X brgb 67 65 107;#X frgb 0 0 0;#X border 0;#X rounded 0;#X shadow 0;#X done;#P hidden newex 8 671 22 196617 b 1;#P background;#P window linecount 2;#P hidden message 33 667 217 196617 \; max launch_browser http://www.spatdif.org;#P background;#P user umenu 21 642 126 196644 3 64 658 1;#X setrgb 42 31 233 221 221 221 255 255 255 221 221 221 170 170 170 119 119 119 187 187 187;#X add www.spatdif.org;#P background;#P user panel 22 202 218 15;#X brgb 240 240 240;#X frgb 0 0 0;#X border 0;#X rounded 0;#X shadow 0;#X done;#P background;#P objectname arg.2.bg[1];#P user panel 21 201 220 208;#X brgb 255 255 255;#X frgb 191 191 191;#X border 1;#X rounded 0;#X shadow 0;#X done;#P background;#P user panel 22 416 218 15;#X brgb 240 240 240;#X frgb 0 0 0;#X border 0;#X rounded 0;#X shadow 0;#X done;#P background;#P objectname arg.2.bg[2];#P user panel 21 415 220 208;#X brgb 255 255 255;#X frgb 191 191 191;#X border 1;#X rounded 0;#X shadow 0;#X done;#P background;#P user panel 277 202 218 15;#X brgb 240 240 240;#X frgb 0 0 0;#X border 0;#X rounded 0;#X shadow 0;#X done;#P background;#P objectname arg.2.bg[3];#P user panel 276 201 220 208;#X brgb 255 255 255;#X frgb 191 191 191;#X border 1;#X rounded 0;#X shadow 0;#X done;#P background;#P user panel 277 416 218 15;#X brgb 240 240 240;#X frgb 0 0 0;#X border 0;#X rounded 0;#X shadow 0;#X done;#P background;#P objectname arg.2.bg[4];#P user panel 276 415 220 208;#X brgb 255 255 255;#X frgb 191 191 191;#X border 1;#X rounded 0;#X shadow 0;#X done;#P background;#P hidden connect 8 0 10 0;#P hidden connect 10 0 9 0;#P hidden connect 57 0 63 0;#P hidden connect 58 0 63 0;#P hidden connect 59 0 63 0;#P hidden connect 60 0 63 0;#P hidden connect 61 0 63 0;#P hidden connect 62 0 63 0;#P hidden connect 63 0 64 0;#P pop;