{
	"patcher" : 	{
		"fileversion" : 1,
		"rect" : [ 83.0, 97.0, 801.0, 465.0 ],
		"bglocked" : 0,
		"defrect" : [ 83.0, 97.0, 801.0, 465.0 ],
		"openrect" : [ 0.0, 0.0, 0.0, 0.0 ],
		"openinpresentation" : 0,
		"default_fontsize" : 10.970939,
		"default_fontface" : 0,
		"default_fontname" : "Verdana",
		"gridonopen" : 0,
		"gridsize" : [ 5.0, 5.0 ],
		"gridsnaponopen" : 0,
		"toolbarvisible" : 1,
		"boxanimatetime" : 200,
		"imprint" : 0,
		"metadata" : [  ],
		"boxes" : [ 			{
				"box" : 				{
					"maxclass" : "comment",
					"text" : "The name of the send and receive can be changed to accomodate for new routings.",
					"linecount" : 2,
					"fontsize" : 9.873845,
					"patching_rect" : [ 553.0, 354.0, 240.0, 30.0 ],
					"id" : "obj-1",
					"numinlets" : 1,
					"fontname" : "Verdana",
					"numoutlets" : 0
				}

			}
, 			{
				"box" : 				{
					"maxclass" : "message",
					"text" : "/jmod.degrade~/bitdepth 24",
					"outlettype" : [ "" ],
					"fontsize" : 9.873845,
					"patching_rect" : [ 232.0, 348.0, 244.0, 16.0 ],
					"id" : "obj-2",
					"numinlets" : 2,
					"fontname" : "Verdana",
					"numoutlets" : 1
				}

			}
, 			{
				"box" : 				{
					"maxclass" : "comment",
					"text" : "Here you can receive messages from all modules. Do something with the above module and watch what happens.",
					"linecount" : 3,
					"fontsize" : 9.873845,
					"patching_rect" : [ 10.0, 296.0, 211.0, 42.0 ],
					"id" : "obj-3",
					"numinlets" : 1,
					"fontname" : "Verdana",
					"numoutlets" : 0
				}

			}
, 			{
				"box" : 				{
					"maxclass" : "comment",
					"text" : "jmod.receive",
					"fontsize" : 17.334082,
					"textcolor" : [ 1.0, 1.0, 1.0, 1.0 ],
					"frgb" : [ 1.0, 1.0, 1.0, 1.0 ],
					"patching_rect" : [ 28.0, 16.0, 189.0, 28.0 ],
					"id" : "obj-4",
					"numinlets" : 1,
					"fontname" : "Verdana",
					"numoutlets" : 0
				}

			}
, 			{
				"box" : 				{
					"maxclass" : "comment",
					"text" : "Send messages to any jamoma module",
					"fontsize" : 9.873845,
					"textcolor" : [ 1.0, 1.0, 1.0, 1.0 ],
					"frgb" : [ 1.0, 1.0, 1.0, 1.0 ],
					"patching_rect" : [ 29.0, 42.0, 295.0, 18.0 ],
					"id" : "obj-5",
					"numinlets" : 1,
					"fontname" : "Verdana",
					"numoutlets" : 0
				}

			}
, 			{
				"box" : 				{
					"maxclass" : "panel",
					"rounded" : 0,
					"patching_rect" : [ 0.0, 0.0, 273.0, 63.0 ],
					"id" : "obj-6",
					"numinlets" : 1,
					"numoutlets" : 0,
					"bgcolor" : [ 0.262745, 0.254902, 0.419608, 1.0 ],
					"bordercolor" : [ 0.501961, 0.043137, 0.039216, 1.0 ]
				}

			}
, 			{
				"box" : 				{
					"maxclass" : "bpatcher",
					"varname" : "/degrade~",
					"outlettype" : [ "", "signal", "signal" ],
					"patching_rect" : [ 342.0, 31.0, 255.0, 60.0 ],
					"args" : [  ],
					"id" : "obj-7",
					"numinlets" : 3,
					"name" : "jmod.degrade~.maxpat",
					"numoutlets" : 3
				}

			}
, 			{
				"box" : 				{
					"maxclass" : "flonum",
					"outlettype" : [ "float", "bang" ],
					"fontsize" : 9.873845,
					"patching_rect" : [ 232.0, 126.0, 39.0, 18.0 ],
					"triscale" : 0.9,
					"htextcolor" : [ 0.870588, 0.870588, 0.870588, 1.0 ],
					"id" : "obj-8",
					"numinlets" : 1,
					"fontname" : "Verdana",
					"numoutlets" : 2,
					"bgcolor" : [ 0.866667, 0.866667, 0.866667, 1.0 ]
				}

			}
, 			{
				"box" : 				{
					"maxclass" : "message",
					"text" : "/degrade~/sr_ratio $1",
					"outlettype" : [ "" ],
					"fontsize" : 9.873845,
					"patching_rect" : [ 232.0, 144.0, 146.0, 16.0 ],
					"id" : "obj-9",
					"numinlets" : 2,
					"fontname" : "Verdana",
					"numoutlets" : 1
				}

			}
, 			{
				"box" : 				{
					"maxclass" : "toggle",
					"outlettype" : [ "int" ],
					"patching_rect" : [ 247.0, 166.0, 15.0, 15.0 ],
					"id" : "obj-10",
					"numinlets" : 1,
					"numoutlets" : 1
				}

			}
, 			{
				"box" : 				{
					"maxclass" : "message",
					"text" : "/degrade~/audio/bypass $1",
					"outlettype" : [ "" ],
					"fontsize" : 9.873845,
					"patching_rect" : [ 247.0, 188.0, 172.0, 16.0 ],
					"id" : "obj-11",
					"numinlets" : 2,
					"fontname" : "Verdana",
					"numoutlets" : 1
				}

			}
, 			{
				"box" : 				{
					"maxclass" : "newobj",
					"text" : "jcom.send jcom.remote.module.to",
					"outlettype" : [ "" ],
					"fontsize" : 9.873845,
					"patching_rect" : [ 232.0, 218.0, 182.0, 18.0 ],
					"id" : "obj-12",
					"numinlets" : 1,
					"fontname" : "Verdana",
					"numoutlets" : 1
				}

			}
, 			{
				"box" : 				{
					"maxclass" : "message",
					"text" : "name foo",
					"outlettype" : [ "" ],
					"fontsize" : 9.873845,
					"patching_rect" : [ 676.0, 265.0, 57.0, 16.0 ],
					"id" : "obj-13",
					"numinlets" : 2,
					"fontname" : "Verdana",
					"numoutlets" : 1
				}

			}
, 			{
				"box" : 				{
					"maxclass" : "message",
					"text" : "name bar",
					"outlettype" : [ "" ],
					"fontsize" : 9.873845,
					"patching_rect" : [ 737.0, 265.0, 58.0, 16.0 ],
					"id" : "obj-14",
					"numinlets" : 2,
					"fontname" : "Verdana",
					"numoutlets" : 1
				}

			}
, 			{
				"box" : 				{
					"maxclass" : "message",
					"text" : "name foo",
					"outlettype" : [ "" ],
					"fontsize" : 9.873845,
					"patching_rect" : [ 559.0, 265.0, 57.0, 16.0 ],
					"id" : "obj-15",
					"numinlets" : 2,
					"fontname" : "Verdana",
					"numoutlets" : 1
				}

			}
, 			{
				"box" : 				{
					"maxclass" : "message",
					"text" : "name bar",
					"outlettype" : [ "" ],
					"fontsize" : 9.873845,
					"patching_rect" : [ 617.0, 265.0, 58.0, 16.0 ],
					"id" : "obj-16",
					"numinlets" : 2,
					"fontname" : "Verdana",
					"numoutlets" : 1
				}

			}
, 			{
				"box" : 				{
					"maxclass" : "newobj",
					"text" : "prepend set",
					"outlettype" : [ "" ],
					"fontsize" : 9.873845,
					"patching_rect" : [ 232.0, 323.0, 75.0, 18.0 ],
					"id" : "obj-17",
					"numinlets" : 1,
					"fontname" : "Verdana",
					"numoutlets" : 1
				}

			}
, 			{
				"box" : 				{
					"maxclass" : "newobj",
					"text" : "jcom.receive jcom.remote.module.from",
					"outlettype" : [ "", "" ],
					"fontsize" : 9.873845,
					"patching_rect" : [ 232.0, 294.0, 207.0, 18.0 ],
					"id" : "obj-18",
					"numinlets" : 1,
					"fontname" : "Verdana",
					"numoutlets" : 2
				}

			}
, 			{
				"box" : 				{
					"maxclass" : "button",
					"outlettype" : [ "bang" ],
					"patching_rect" : [ 657.0, 190.0, 15.0, 15.0 ],
					"id" : "obj-19",
					"numinlets" : 1,
					"numoutlets" : 1
				}

			}
, 			{
				"box" : 				{
					"maxclass" : "newobj",
					"text" : "jcom.send bar",
					"outlettype" : [ "" ],
					"fontsize" : 9.873845,
					"patching_rect" : [ 657.0, 218.0, 88.0, 18.0 ],
					"id" : "obj-20",
					"numinlets" : 1,
					"fontname" : "Verdana",
					"numoutlets" : 1
				}

			}
, 			{
				"box" : 				{
					"maxclass" : "newobj",
					"text" : "print 2",
					"fontsize" : 9.873845,
					"patching_rect" : [ 676.0, 328.0, 50.0, 18.0 ],
					"id" : "obj-21",
					"numinlets" : 1,
					"fontname" : "Verdana",
					"numoutlets" : 0
				}

			}
, 			{
				"box" : 				{
					"maxclass" : "newobj",
					"text" : "jcom.receive foo",
					"outlettype" : [ "", "" ],
					"fontsize" : 9.873845,
					"patching_rect" : [ 676.0, 294.0, 93.0, 18.0 ],
					"id" : "obj-22",
					"numinlets" : 1,
					"fontname" : "Verdana",
					"numoutlets" : 2
				}

			}
, 			{
				"box" : 				{
					"maxclass" : "button",
					"outlettype" : [ "bang" ],
					"patching_rect" : [ 559.0, 190.0, 15.0, 15.0 ],
					"id" : "obj-23",
					"numinlets" : 1,
					"numoutlets" : 1
				}

			}
, 			{
				"box" : 				{
					"maxclass" : "newobj",
					"text" : "jcom.send foo",
					"outlettype" : [ "" ],
					"fontsize" : 9.873845,
					"patching_rect" : [ 559.0, 218.0, 87.0, 18.0 ],
					"id" : "obj-24",
					"numinlets" : 1,
					"fontname" : "Verdana",
					"numoutlets" : 1
				}

			}
, 			{
				"box" : 				{
					"maxclass" : "newobj",
					"text" : "print 1",
					"fontsize" : 9.873845,
					"patching_rect" : [ 559.0, 328.0, 50.0, 18.0 ],
					"id" : "obj-25",
					"numinlets" : 1,
					"fontname" : "Verdana",
					"numoutlets" : 0
				}

			}
, 			{
				"box" : 				{
					"maxclass" : "newobj",
					"text" : "jcom.receive foo",
					"outlettype" : [ "", "" ],
					"fontsize" : 9.873845,
					"patching_rect" : [ 559.0, 294.0, 93.0, 18.0 ],
					"id" : "obj-26",
					"numinlets" : 1,
					"fontname" : "Verdana",
					"numoutlets" : 2
				}

			}
, 			{
				"box" : 				{
					"maxclass" : "comment",
					"text" : "This is a global send object. Remember to send messages to the correct address (/module_name/parameter...)",
					"linecount" : 3,
					"fontsize" : 9.873845,
					"patching_rect" : [ 12.0, 192.0, 208.0, 42.0 ],
					"id" : "obj-27",
					"numinlets" : 1,
					"fontname" : "Verdana",
					"numoutlets" : 0
				}

			}
, 			{
				"box" : 				{
					"maxclass" : "panel",
					"rounded" : 0,
					"patching_rect" : [ 227.0, 210.0, 193.0, 35.0 ],
					"id" : "obj-28",
					"numinlets" : 1,
					"numoutlets" : 0,
					"bgcolor" : [ 0.858824, 0.882353, 0.8, 1.0 ],
					"bordercolor" : [ 0.501961, 0.043137, 0.039216, 1.0 ]
				}

			}
, 			{
				"box" : 				{
					"maxclass" : "panel",
					"rounded" : 0,
					"patching_rect" : [ 225.0, 283.0, 219.0, 35.0 ],
					"id" : "obj-29",
					"numinlets" : 1,
					"numoutlets" : 0,
					"bgcolor" : [ 0.858824, 0.882353, 0.8, 1.0 ],
					"bordercolor" : [ 0.501961, 0.043137, 0.039216, 1.0 ]
				}

			}
, 			{
				"box" : 				{
					"maxclass" : "panel",
					"rounded" : 0,
					"patching_rect" : [ 554.0, 210.0, 201.0, 34.0 ],
					"id" : "obj-30",
					"numinlets" : 1,
					"numoutlets" : 0,
					"bgcolor" : [ 0.858824, 0.882353, 0.8, 1.0 ],
					"bordercolor" : [ 0.501961, 0.043137, 0.039216, 1.0 ]
				}

			}
, 			{
				"box" : 				{
					"maxclass" : "panel",
					"rounded" : 0,
					"patching_rect" : [ 556.0, 283.0, 215.0, 34.0 ],
					"id" : "obj-31",
					"numinlets" : 1,
					"numoutlets" : 0,
					"bgcolor" : [ 0.858824, 0.882353, 0.8, 1.0 ],
					"bordercolor" : [ 0.501961, 0.043137, 0.039216, 1.0 ]
				}

			}
 ],
		"lines" : [ 			{
				"patchline" : 				{
					"source" : [ "obj-22", 0 ],
					"destination" : [ "obj-21", 0 ],
					"hidden" : 0,
					"midpoints" : [  ]
				}

			}
, 			{
				"patchline" : 				{
					"source" : [ "obj-13", 0 ],
					"destination" : [ "obj-22", 0 ],
					"hidden" : 0,
					"midpoints" : [  ]
				}

			}
, 			{
				"patchline" : 				{
					"source" : [ "obj-14", 0 ],
					"destination" : [ "obj-22", 0 ],
					"hidden" : 0,
					"midpoints" : [ 746.5, 288.0, 685.5, 288.0 ]
				}

			}
, 			{
				"patchline" : 				{
					"source" : [ "obj-19", 0 ],
					"destination" : [ "obj-20", 0 ],
					"hidden" : 0,
					"midpoints" : [  ]
				}

			}
, 			{
				"patchline" : 				{
					"source" : [ "obj-26", 0 ],
					"destination" : [ "obj-25", 0 ],
					"hidden" : 0,
					"midpoints" : [  ]
				}

			}
, 			{
				"patchline" : 				{
					"source" : [ "obj-16", 0 ],
					"destination" : [ "obj-26", 0 ],
					"hidden" : 0,
					"midpoints" : [ 626.5, 288.0, 568.5, 288.0 ]
				}

			}
, 			{
				"patchline" : 				{
					"source" : [ "obj-15", 0 ],
					"destination" : [ "obj-26", 0 ],
					"hidden" : 0,
					"midpoints" : [ 568.5, 283.0, 568.5, 283.0 ]
				}

			}
, 			{
				"patchline" : 				{
					"source" : [ "obj-23", 0 ],
					"destination" : [ "obj-24", 0 ],
					"hidden" : 0,
					"midpoints" : [  ]
				}

			}
, 			{
				"patchline" : 				{
					"source" : [ "obj-10", 0 ],
					"destination" : [ "obj-11", 0 ],
					"hidden" : 0,
					"midpoints" : [  ]
				}

			}
, 			{
				"patchline" : 				{
					"source" : [ "obj-17", 0 ],
					"destination" : [ "obj-2", 0 ],
					"hidden" : 0,
					"midpoints" : [  ]
				}

			}
, 			{
				"patchline" : 				{
					"source" : [ "obj-18", 0 ],
					"destination" : [ "obj-17", 0 ],
					"hidden" : 0,
					"midpoints" : [  ]
				}

			}
, 			{
				"patchline" : 				{
					"source" : [ "obj-11", 0 ],
					"destination" : [ "obj-12", 0 ],
					"hidden" : 0,
					"midpoints" : [  ]
				}

			}
, 			{
				"patchline" : 				{
					"source" : [ "obj-9", 0 ],
					"destination" : [ "obj-12", 0 ],
					"hidden" : 0,
					"midpoints" : [  ]
				}

			}
, 			{
				"patchline" : 				{
					"source" : [ "obj-8", 0 ],
					"destination" : [ "obj-9", 0 ],
					"hidden" : 0,
					"midpoints" : [  ]
				}

			}
 ]
	}

}
