{
	"patcher" : 	{
		"fileversion" : 1,
		"rect" : [ 122.0, 48.0, 481.0, 409.0 ],
		"bglocked" : 0,
		"defrect" : [ 122.0, 48.0, 481.0, 409.0 ],
		"openrect" : [ 0.0, 0.0, 0.0, 0.0 ],
		"openinpresentation" : 0,
		"default_fontsize" : 10.970939,
		"default_fontface" : 0,
		"default_fontname" : "Verdana",
		"gridonopen" : 0,
		"gridsize" : [ 5.0, 5.0 ],
		"gridsnaponopen" : 0,
		"toolbarvisible" : 1,
		"boxanimatetime" : 200,
		"imprint" : 0,
		"metadata" : [  ],
		"boxes" : [ 			{
				"box" : 				{
					"maxclass" : "comment",
					"text" : "Another important function they provide is bypassing and wet/dry mix. for muting, the jcom.out~ does zero the output signals for you, but it is expected that you will handle the mute message yourself so that your algorithm does not use CPU (using poly~ or pcontrol).",
					"linecount" : 4,
					"numinlets" : 1,
					"numoutlets" : 0,
					"id" : "obj-1",
					"fontname" : "Verdana",
					"frgb" : [ 1.0, 1.0, 1.0, 1.0 ],
					"patching_rect" : [ 25.0, 325.0, 433.0, 55.0 ],
					"fontsize" : 10.0
				}

			}
, 			{
				"box" : 				{
					"maxclass" : "comment",
					"text" : "jcom.in~ and jcom.out~ do the communication in a module between the hub and the algorithm. jcom.out~, for example, sends the results of its internal envelope follower to the hub so that the audio level meters can be updated.",
					"linecount" : 3,
					"numinlets" : 1,
					"numoutlets" : 0,
					"id" : "obj-2",
					"fontname" : "Verdana",
					"frgb" : [ 1.0, 1.0, 1.0, 1.0 ],
					"patching_rect" : [ 25.0, 280.0, 424.0, 43.0 ],
					"fontsize" : 10.0
				}

			}
, 			{
				"box" : 				{
					"maxclass" : "comment",
					"text" : "Why do we need these?",
					"numinlets" : 1,
					"numoutlets" : 0,
					"id" : "obj-3",
					"fontname" : "Verdana",
					"frgb" : [ 1.0, 1.0, 1.0, 1.0 ],
					"patching_rect" : [ 25.0, 260.0, 130.0, 19.0 ],
					"fontsize" : 10.0
				}

			}
, 			{
				"box" : 				{
					"maxclass" : "comment",
					"text" : "The second outlet from the right for jcom.in~ are control messages for the algorithm.",
					"linecount" : 2,
					"numinlets" : 1,
					"numoutlets" : 0,
					"id" : "obj-4",
					"fontname" : "Verdana",
					"frgb" : [ 1.0, 1.0, 1.0, 1.0 ],
					"patching_rect" : [ 150.0, 210.0, 249.0, 31.0 ],
					"fontsize" : 10.0
				}

			}
, 			{
				"box" : 				{
					"maxclass" : "comment",
					"text" : "The argument specifies the number of channels to manage for both objects. the last outlet of both objects is a standard 'dumpout' outlet for attribute return values",
					"linecount" : 4,
					"numinlets" : 1,
					"numoutlets" : 0,
					"id" : "obj-5",
					"fontname" : "Verdana",
					"frgb" : [ 1.0, 1.0, 1.0, 1.0 ],
					"patching_rect" : [ 150.0, 145.0, 226.0, 55.0 ],
					"fontsize" : 10.0
				}

			}
, 			{
				"box" : 				{
					"maxclass" : "newobj",
					"text" : "p algorithm",
					"numinlets" : 3,
					"numoutlets" : 3,
					"id" : "obj-6",
					"fontname" : "Verdana",
					"outlettype" : [ "", "signal", "signal" ],
					"patching_rect" : [ 27.0, 168.0, 75.0, 19.0 ],
					"fontsize" : 10.0,
					"patcher" : 					{
						"fileversion" : 1,
						"rect" : [ 49.0, 59.0, 600.0, 426.0 ],
						"bglocked" : 0,
						"defrect" : [ 49.0, 59.0, 600.0, 426.0 ],
						"openrect" : [ 0.0, 0.0, 0.0, 0.0 ],
						"openinpresentation" : 0,
						"default_fontsize" : 10.0,
						"default_fontface" : 0,
						"default_fontname" : "Verdana",
						"gridonopen" : 0,
						"gridsize" : [ 5.0, 5.0 ],
						"gridsnaponopen" : 0,
						"toolbarvisible" : 1,
						"boxanimatetime" : 200,
						"imprint" : 0,
						"metadata" : [  ],
						"boxes" : [ 							{
								"box" : 								{
									"maxclass" : "outlet",
									"numinlets" : 1,
									"numoutlets" : 0,
									"id" : "obj-1",
									"patching_rect" : [ 50.0, 135.0, 15.0, 15.0 ],
									"comment" : ""
								}

							}
, 							{
								"box" : 								{
									"maxclass" : "inlet",
									"numinlets" : 0,
									"numoutlets" : 1,
									"id" : "obj-2",
									"outlettype" : [ "" ],
									"patching_rect" : [ 52.0, 33.0, 15.0, 15.0 ],
									"comment" : ""
								}

							}
, 							{
								"box" : 								{
									"maxclass" : "outlet",
									"numinlets" : 1,
									"numoutlets" : 0,
									"id" : "obj-3",
									"patching_rect" : [ 162.0, 110.0, 15.0, 15.0 ],
									"comment" : ""
								}

							}
, 							{
								"box" : 								{
									"maxclass" : "outlet",
									"numinlets" : 1,
									"numoutlets" : 0,
									"id" : "obj-4",
									"patching_rect" : [ 130.0, 107.0, 15.0, 15.0 ],
									"comment" : ""
								}

							}
, 							{
								"box" : 								{
									"maxclass" : "inlet",
									"numinlets" : 0,
									"numoutlets" : 1,
									"id" : "obj-5",
									"outlettype" : [ "signal" ],
									"patching_rect" : [ 166.0, 35.0, 15.0, 15.0 ],
									"comment" : ""
								}

							}
, 							{
								"box" : 								{
									"maxclass" : "inlet",
									"numinlets" : 0,
									"numoutlets" : 1,
									"id" : "obj-6",
									"outlettype" : [ "signal" ],
									"patching_rect" : [ 146.0, 38.0, 15.0, 15.0 ],
									"comment" : ""
								}

							}
 ],
						"lines" : [ 							{
								"patchline" : 								{
									"source" : [ "obj-5", 0 ],
									"destination" : [ "obj-3", 0 ],
									"hidden" : 0,
									"midpoints" : [  ]
								}

							}
, 							{
								"patchline" : 								{
									"source" : [ "obj-6", 0 ],
									"destination" : [ "obj-4", 0 ],
									"hidden" : 0,
									"midpoints" : [  ]
								}

							}
 ]
					}
,
					"saved_object_attributes" : 					{
						"default_fontface" : 0,
						"default_fontname" : "Verdana",
						"fontname" : "Verdana",
						"default_fontsize" : 10.0,
						"globalpatchername" : "",
						"fontface" : 0,
						"fontsize" : 10.0
					}

				}

			}
, 			{
				"box" : 				{
					"maxclass" : "inlet",
					"numinlets" : 0,
					"numoutlets" : 1,
					"id" : "obj-7",
					"outlettype" : [ "" ],
					"patching_rect" : [ 115.0, 95.0, 26.0, 26.0 ],
					"comment" : ""
				}

			}
, 			{
				"box" : 				{
					"maxclass" : "inlet",
					"numinlets" : 0,
					"numoutlets" : 1,
					"id" : "obj-8",
					"outlettype" : [ "" ],
					"patching_rect" : [ 55.0, 95.0, 26.0, 26.0 ],
					"comment" : ""
				}

			}
, 			{
				"box" : 				{
					"maxclass" : "outlet",
					"numinlets" : 1,
					"numoutlets" : 0,
					"id" : "obj-9",
					"patching_rect" : [ 90.0, 225.0, 26.0, 26.0 ],
					"comment" : ""
				}

			}
, 			{
				"box" : 				{
					"maxclass" : "outlet",
					"numinlets" : 1,
					"numoutlets" : 0,
					"id" : "obj-10",
					"patching_rect" : [ 55.0, 225.0, 26.0, 26.0 ],
					"comment" : ""
				}

			}
, 			{
				"box" : 				{
					"maxclass" : "newobj",
					"text" : "jcom.out~ 2",
					"numinlets" : 2,
					"numoutlets" : 3,
					"id" : "obj-11",
					"fontname" : "Verdana",
					"outlettype" : [ "signal", "signal", "" ],
					"patching_rect" : [ 55.0, 200.0, 89.0, 19.0 ],
					"fontsize" : 10.0
				}

			}
, 			{
				"box" : 				{
					"maxclass" : "newobj",
					"text" : "jcom.in~ 2",
					"numinlets" : 2,
					"numoutlets" : 4,
					"id" : "obj-12",
					"fontname" : "Verdana",
					"outlettype" : [ "signal", "signal", "", "" ],
					"patching_rect" : [ 55.0, 130.0, 79.0, 19.0 ],
					"fontsize" : 10.0
				}

			}
, 			{
				"box" : 				{
					"maxclass" : "comment",
					"text" : "module conduits for audio input/output",
					"numinlets" : 1,
					"numoutlets" : 0,
					"id" : "obj-13",
					"fontname" : "Verdana",
					"frgb" : [ 0.584314, 0.584314, 0.584314, 1.0 ],
					"patching_rect" : [ 35.0, 53.0, 240.0, 19.0 ],
					"fontsize" : 10.0,
					"textcolor" : [ 0.584314, 0.584314, 0.584314, 1.0 ]
				}

			}
, 			{
				"box" : 				{
					"maxclass" : "comment",
					"text" : "jcom.in~ / jcom.out~",
					"numinlets" : 1,
					"numoutlets" : 0,
					"id" : "obj-14",
					"fontname" : "Verdana",
					"frgb" : [ 0.584314, 0.584314, 0.584314, 1.0 ],
					"patching_rect" : [ 35.0, 26.0, 198.0, 28.0 ],
					"fontsize" : 17.334082,
					"textcolor" : [ 0.584314, 0.584314, 0.584314, 1.0 ]
				}

			}
, 			{
				"box" : 				{
					"maxclass" : "panel",
					"numinlets" : 1,
					"numoutlets" : 0,
					"id" : "obj-15",
					"patching_rect" : [ 20.0, 15.0, 255.0, 60.0 ],
					"rounded" : 15
				}

			}
, 			{
				"box" : 				{
					"maxclass" : "comment",
					"text" : "jcom.in~ and jcom.out~ are input/output conduits for audio signals in a jamoma module, much like jcom.in and jcom.out (no tildes) for control 'signals'.",
					"linecount" : 3,
					"numinlets" : 1,
					"numoutlets" : 0,
					"id" : "obj-16",
					"fontname" : "Verdana",
					"frgb" : [ 1.0, 1.0, 1.0, 1.0 ],
					"patching_rect" : [ 150.0, 100.0, 274.0, 43.0 ],
					"fontsize" : 10.0
				}

			}
 ],
		"lines" : [ 			{
				"patchline" : 				{
					"source" : [ "obj-6", 2 ],
					"destination" : [ "obj-11", 1 ],
					"hidden" : 0,
					"midpoints" : [ 92.5, 195.0, 134.5, 195.0 ]
				}

			}
, 			{
				"patchline" : 				{
					"source" : [ "obj-7", 0 ],
					"destination" : [ "obj-12", 1 ],
					"hidden" : 0,
					"midpoints" : [  ]
				}

			}
, 			{
				"patchline" : 				{
					"source" : [ "obj-11", 1 ],
					"destination" : [ "obj-9", 0 ],
					"hidden" : 0,
					"midpoints" : [  ]
				}

			}
, 			{
				"patchline" : 				{
					"source" : [ "obj-12", 1 ],
					"destination" : [ "obj-6", 2 ],
					"hidden" : 0,
					"midpoints" : [ 84.5, 160.0, 92.5, 160.0 ]
				}

			}
, 			{
				"patchline" : 				{
					"source" : [ "obj-11", 0 ],
					"destination" : [ "obj-10", 0 ],
					"hidden" : 0,
					"midpoints" : [  ]
				}

			}
, 			{
				"patchline" : 				{
					"source" : [ "obj-6", 1 ],
					"destination" : [ "obj-11", 0 ],
					"hidden" : 0,
					"midpoints" : [  ]
				}

			}
, 			{
				"patchline" : 				{
					"source" : [ "obj-12", 0 ],
					"destination" : [ "obj-6", 1 ],
					"hidden" : 0,
					"midpoints" : [  ]
				}

			}
, 			{
				"patchline" : 				{
					"source" : [ "obj-8", 0 ],
					"destination" : [ "obj-12", 0 ],
					"hidden" : 0,
					"color" : [ 1.0, 0.611765, 0.611765, 1.0 ],
					"midpoints" : [  ]
				}

			}
, 			{
				"patchline" : 				{
					"source" : [ "obj-12", 2 ],
					"destination" : [ "obj-6", 0 ],
					"hidden" : 0,
					"midpoints" : [  ]
				}

			}
 ]
	}

}
