{
	"patcher" : 	{
		"fileversion" : 1,
		"rect" : [ 9.0, 54.0, 1158.0, 593.0 ],
		"bglocked" : 0,
		"defrect" : [ 9.0, 54.0, 1158.0, 593.0 ],
		"openrect" : [ 0.0, 0.0, 0.0, 0.0 ],
		"openinpresentation" : 0,
		"default_fontsize" : 10.970939,
		"default_fontface" : 0,
		"default_fontname" : "Verdana",
		"gridonopen" : 0,
		"gridsize" : [ 5.0, 5.0 ],
		"gridsnaponopen" : 0,
		"toolbarvisible" : 1,
		"boxanimatetime" : 200,
		"imprint" : 0,
		"metadata" : [  ],
		"boxes" : [ 			{
				"box" : 				{
					"maxclass" : "message",
					"text" : "jcom.gui",
					"numinlets" : 2,
					"numoutlets" : 1,
					"id" : "obj-1",
					"fontname" : "Verdana",
					"outlettype" : [ "" ],
					"patching_rect" : [ 890.0, 505.0, 53.0, 17.0 ],
					"fontsize" : 10.0
				}

			}
, 			{
				"box" : 				{
					"maxclass" : "message",
					"text" : "jcom.return",
					"numinlets" : 2,
					"numoutlets" : 1,
					"id" : "obj-2",
					"fontname" : "Verdana",
					"outlettype" : [ "" ],
					"patching_rect" : [ 890.0, 485.0, 69.0, 17.0 ],
					"fontsize" : 10.0
				}

			}
, 			{
				"box" : 				{
					"maxclass" : "message",
					"text" : "jcom.message",
					"numinlets" : 2,
					"numoutlets" : 1,
					"id" : "obj-3",
					"fontname" : "Verdana",
					"outlettype" : [ "" ],
					"patching_rect" : [ 890.0, 465.0, 82.0, 17.0 ],
					"fontsize" : 10.0
				}

			}
, 			{
				"box" : 				{
					"maxclass" : "comment",
					"text" : "- pattrstorage outlet connected to right inlet of jcom.hub.",
					"numinlets" : 1,
					"numoutlets" : 0,
					"id" : "obj-4",
					"fontname" : "Verdana",
					"frgb" : [ 1.0, 1.0, 1.0, 1.0 ],
					"patching_rect" : [ 157.0, 490.0, 299.0, 19.0 ],
					"fontsize" : 10.0
				}

			}
, 			{
				"box" : 				{
					"maxclass" : "comment",
					"text" : "- Right outlet of jcom.hub connected to pattrstorage.",
					"numinlets" : 1,
					"numoutlets" : 0,
					"id" : "obj-5",
					"fontname" : "Verdana",
					"frgb" : [ 1.0, 1.0, 1.0, 1.0 ],
					"patching_rect" : [ 157.0, 533.0, 276.0, 19.0 ],
					"fontsize" : 10.0
				}

			}
, 			{
				"box" : 				{
					"maxclass" : "comment",
					"text" : "- Middle outlet connected to algorithm.",
					"numinlets" : 1,
					"numoutlets" : 0,
					"id" : "obj-6",
					"fontname" : "Verdana",
					"frgb" : [ 1.0, 1.0, 1.0, 1.0 ],
					"patching_rect" : [ 157.0, 521.0, 205.0, 19.0 ],
					"fontsize" : 10.0
				}

			}
, 			{
				"box" : 				{
					"maxclass" : "comment",
					"text" : "1",
					"numinlets" : 1,
					"numoutlets" : 0,
					"id" : "obj-7",
					"fontname" : "Verdana",
					"frgb" : [ 1.0, 1.0, 1.0, 1.0 ],
					"patching_rect" : [ 58.0, 373.0, 19.0, 19.0 ],
					"fontsize" : 10.0
				}

			}
, 			{
				"box" : 				{
					"maxclass" : "comment",
					"text" : "- Leftmost inlet of module is connected to left inlet of jcom.hub.",
					"numinlets" : 1,
					"numoutlets" : 0,
					"id" : "obj-9",
					"fontname" : "Verdana",
					"frgb" : [ 1.0, 1.0, 1.0, 1.0 ],
					"patching_rect" : [ 157.0, 478.0, 331.0, 19.0 ],
					"fontsize" : 10.0
				}

			}
, 			{
				"box" : 				{
					"maxclass" : "comment",
					"text" : "- Left outlet of jcom.hub connected to leftmost outlet of module.",
					"numinlets" : 1,
					"numoutlets" : 0,
					"id" : "obj-10",
					"fontname" : "Verdana",
					"frgb" : [ 1.0, 1.0, 1.0, 1.0 ],
					"patching_rect" : [ 157.0, 509.0, 334.0, 19.0 ],
					"fontsize" : 10.0
				}

			}
, 			{
				"box" : 				{
					"maxclass" : "comment",
					"text" : "Outlets:",
					"numinlets" : 1,
					"numoutlets" : 0,
					"id" : "obj-11",
					"fontname" : "Verdana",
					"frgb" : [ 1.0, 1.0, 1.0, 1.0 ],
					"patching_rect" : [ 41.0, 509.0, 51.0, 19.0 ],
					"fontsize" : 10.0
				}

			}
, 			{
				"box" : 				{
					"maxclass" : "comment",
					"text" : "Inlets:",
					"numinlets" : 1,
					"numoutlets" : 0,
					"id" : "obj-12",
					"fontname" : "Verdana",
					"frgb" : [ 1.0, 1.0, 1.0, 1.0 ],
					"patching_rect" : [ 41.0, 478.0, 43.0, 19.0 ],
					"fontsize" : 10.0
				}

			}
, 			{
				"box" : 				{
					"maxclass" : "comment",
					"text" : "Standard connections:",
					"numinlets" : 1,
					"numoutlets" : 0,
					"id" : "obj-13",
					"fontname" : "Verdana",
					"frgb" : [ 1.0, 1.0, 1.0, 1.0 ],
					"patching_rect" : [ 18.0, 450.0, 183.0, 24.0 ],
					"fontsize" : 14.0
				}

			}
, 			{
				"box" : 				{
					"maxclass" : "comment",
					"text" : "- within each module all parameter names must be unique. Different modules sharing the same parameter names is no problem.",
					"linecount" : 2,
					"numinlets" : 1,
					"numoutlets" : 0,
					"id" : "obj-14",
					"fontname" : "Verdana",
					"frgb" : [ 1.0, 1.0, 1.0, 1.0 ],
					"patching_rect" : [ 149.0, 194.0, 359.0, 31.0 ],
					"fontsize" : 10.0
				}

			}
, 			{
				"box" : 				{
					"maxclass" : "comment",
					"text" : "(name of module)",
					"numinlets" : 1,
					"numoutlets" : 0,
					"id" : "obj-15",
					"fontname" : "Verdana",
					"frgb" : [ 1.0, 1.0, 1.0, 1.0 ],
					"patching_rect" : [ 40.0, 197.0, 100.0, 19.0 ],
					"fontsize" : 10.0
				}

			}
, 			{
				"box" : 				{
					"maxclass" : "comment",
					"text" : "Argument(obligatory):",
					"numinlets" : 1,
					"numoutlets" : 0,
					"id" : "obj-16",
					"fontname" : "Verdana",
					"frgb" : [ 1.0, 1.0, 1.0, 1.0 ],
					"patching_rect" : [ 13.0, 167.0, 183.0, 24.0 ],
					"fontsize" : 14.0
				}

			}
, 			{
				"box" : 				{
					"maxclass" : "comment",
					"text" : "Attributes:",
					"numinlets" : 1,
					"numoutlets" : 0,
					"id" : "obj-17",
					"fontname" : "Verdana",
					"frgb" : [ 1.0, 1.0, 1.0, 1.0 ],
					"patching_rect" : [ 17.0, 238.0, 89.0, 24.0 ],
					"fontsize" : 14.0
				}

			}
, 			{
				"box" : 				{
					"maxclass" : "comment",
					"text" : "- text describing the parameter for html auto-documenting modules",
					"numinlets" : 1,
					"numoutlets" : 0,
					"id" : "obj-22",
					"fontname" : "Verdana",
					"frgb" : [ 1.0, 1.0, 1.0, 1.0 ],
					"patching_rect" : [ 151.0, 407.0, 351.0, 19.0 ],
					"fontsize" : 10.0
				}

			}
, 			{
				"box" : 				{
					"maxclass" : "comment",
					"text" : "@description",
					"numinlets" : 1,
					"numoutlets" : 0,
					"id" : "obj-23",
					"fontname" : "Verdana",
					"frgb" : [ 1.0, 1.0, 1.0, 1.0 ],
					"patching_rect" : [ 41.0, 395.0, 100.0, 19.0 ],
					"fontsize" : 10.0
				}

			}
, 			{
				"box" : 				{
					"maxclass" : "comment",
					"text" : "(text)",
					"numinlets" : 1,
					"numoutlets" : 0,
					"id" : "obj-24",
					"fontname" : "Verdana",
					"frgb" : [ 1.0, 1.0, 1.0, 1.0 ],
					"patching_rect" : [ 57.0, 407.0, 39.0, 19.0 ],
					"fontsize" : 10.0
				}

			}
, 			{
				"box" : 				{
					"maxclass" : "comment",
					"text" : "- do the module contain an inspector window with additional settings?",
					"numinlets" : 1,
					"numoutlets" : 0,
					"id" : "obj-26",
					"fontname" : "Verdana",
					"frgb" : [ 1.0, 1.0, 1.0, 1.0 ],
					"patching_rect" : [ 150.0, 361.0, 362.0, 19.0 ],
					"fontsize" : 10.0
				}

			}
, 			{
				"box" : 				{
					"maxclass" : "comment",
					"text" : "@inspector",
					"numinlets" : 1,
					"numoutlets" : 0,
					"id" : "obj-27",
					"fontname" : "Verdana",
					"frgb" : [ 1.0, 1.0, 1.0, 1.0 ],
					"patching_rect" : [ 41.0, 349.0, 100.0, 19.0 ],
					"fontsize" : 10.0
				}

			}
, 			{
				"box" : 				{
					"maxclass" : "comment",
					"text" : "0 (default)",
					"numinlets" : 1,
					"numoutlets" : 0,
					"id" : "obj-28",
					"fontname" : "Verdana",
					"frgb" : [ 1.0, 1.0, 1.0, 1.0 ],
					"patching_rect" : [ 57.0, 361.0, 63.0, 19.0 ],
					"fontsize" : 10.0
				}

			}
, 			{
				"box" : 				{
					"maxclass" : "comment",
					"text" : "- what kind of module is this? Possible values: control, audio, audio.ambisonic, audio.no_panel, video",
					"linecount" : 2,
					"numinlets" : 1,
					"numoutlets" : 0,
					"id" : "obj-29",
					"fontname" : "Verdana",
					"frgb" : [ 1.0, 1.0, 1.0, 1.0 ],
					"patching_rect" : [ 156.0, 309.0, 326.0, 31.0 ],
					"fontsize" : 10.0
				}

			}
, 			{
				"box" : 				{
					"maxclass" : "comment",
					"text" : "1",
					"numinlets" : 1,
					"numoutlets" : 0,
					"id" : "obj-30",
					"fontname" : "Verdana",
					"frgb" : [ 1.0, 1.0, 1.0, 1.0 ],
					"patching_rect" : [ 56.0, 290.0, 19.0, 19.0 ],
					"fontsize" : 10.0
				}

			}
, 			{
				"box" : 				{
					"maxclass" : "comment",
					"numinlets" : 1,
					"numoutlets" : 0,
					"id" : "obj-31",
					"fontname" : "Verdana",
					"frgb" : [ 1.0, 1.0, 1.0, 1.0 ],
					"patching_rect" : [ 56.0, 321.0, 100.0, 19.0 ],
					"fontsize" : 10.0
				}

			}
, 			{
				"box" : 				{
					"maxclass" : "comment",
					"text" : "@module_type",
					"numinlets" : 1,
					"numoutlets" : 0,
					"id" : "obj-32",
					"fontname" : "Verdana",
					"frgb" : [ 1.0, 1.0, 1.0, 1.0 ],
					"patching_rect" : [ 40.0, 309.0, 100.0, 19.0 ],
					"fontsize" : 10.0
				}

			}
, 			{
				"box" : 				{
					"maxclass" : "comment",
					"numinlets" : 1,
					"numoutlets" : 0,
					"id" : "obj-33",
					"fontname" : "Verdana",
					"frgb" : [ 1.0, 1.0, 1.0, 1.0 ],
					"patching_rect" : [ 56.0, 333.0, 100.0, 19.0 ],
					"fontsize" : 10.0
				}

			}
, 			{
				"box" : 				{
					"maxclass" : "comment",
					"text" : "(symbol)",
					"numinlets" : 1,
					"numoutlets" : 0,
					"id" : "obj-34",
					"fontname" : "Verdana",
					"frgb" : [ 1.0, 1.0, 1.0, 1.0 ],
					"patching_rect" : [ 56.0, 278.0, 55.0, 19.0 ],
					"fontsize" : 10.0
				}

			}
, 			{
				"box" : 				{
					"maxclass" : "comment",
					"text" : "- define size of the module: Some examples: 1U-half, 1U, 2U-half, 2U, etc.",
					"linecount" : 2,
					"numinlets" : 1,
					"numoutlets" : 0,
					"id" : "obj-35",
					"fontname" : "Verdana",
					"frgb" : [ 1.0, 1.0, 1.0, 1.0 ],
					"patching_rect" : [ 156.0, 266.0, 303.0, 31.0 ],
					"fontsize" : 10.0
				}

			}
, 			{
				"box" : 				{
					"maxclass" : "comment",
					"text" : "@size",
					"numinlets" : 1,
					"numoutlets" : 0,
					"id" : "obj-36",
					"fontname" : "Verdana",
					"frgb" : [ 1.0, 1.0, 1.0, 1.0 ],
					"patching_rect" : [ 40.0, 266.0, 109.0, 19.0 ],
					"fontsize" : 10.0
				}

			}
, 			{
				"box" : 				{
					"maxclass" : "message",
					"text" : "jcom.parameter",
					"numinlets" : 2,
					"numoutlets" : 1,
					"id" : "obj-41",
					"fontname" : "Verdana",
					"outlettype" : [ "" ],
					"patching_rect" : [ 890.0, 445.0, 90.0, 17.0 ],
					"fontsize" : 10.0
				}

			}
, 			{
				"box" : 				{
					"maxclass" : "newobj",
					"text" : "prepend help",
					"numinlets" : 1,
					"numoutlets" : 1,
					"id" : "obj-42",
					"hidden" : 1,
					"fontname" : "Verdana",
					"outlettype" : [ "" ],
					"patching_rect" : [ 985.0, 480.0, 76.0, 19.0 ],
					"fontsize" : 10.0
				}

			}
, 			{
				"box" : 				{
					"maxclass" : "newobj",
					"text" : "pcontrol",
					"numinlets" : 1,
					"numoutlets" : 1,
					"id" : "obj-43",
					"hidden" : 1,
					"fontname" : "Verdana",
					"outlettype" : [ "" ],
					"patching_rect" : [ 985.0, 505.0, 51.0, 19.0 ],
					"fontsize" : 10.0
				}

			}
, 			{
				"box" : 				{
					"maxclass" : "newobj",
					"text" : "s incomming",
					"numinlets" : 1,
					"numoutlets" : 0,
					"id" : "obj-45",
					"fontname" : "Verdana",
					"patching_rect" : [ 890.0, 370.0, 74.0, 19.0 ],
					"fontsize" : 10.0
				}

			}
, 			{
				"box" : 				{
					"maxclass" : "message",
					"text" : "/mymessage So Long",
					"numinlets" : 2,
					"numoutlets" : 1,
					"id" : "obj-46",
					"fontname" : "Verdana",
					"outlettype" : [ "" ],
					"patching_rect" : [ 890.0, 320.0, 118.0, 17.0 ],
					"fontsize" : 10.0
				}

			}
, 			{
				"box" : 				{
					"maxclass" : "message",
					"text" : "/mymessage And thanks for all the fish!",
					"numinlets" : 2,
					"numoutlets" : 1,
					"id" : "obj-47",
					"fontname" : "Verdana",
					"outlettype" : [ "" ],
					"patching_rect" : [ 905.0, 345.0, 210.0, 17.0 ],
					"fontsize" : 10.0
				}

			}
, 			{
				"box" : 				{
					"maxclass" : "newobj",
					"text" : "loadmess set",
					"numinlets" : 1,
					"numoutlets" : 1,
					"id" : "obj-48",
					"hidden" : 1,
					"fontname" : "Verdana",
					"outlettype" : [ "" ],
					"patching_rect" : [ 595.0, 430.0, 75.0, 19.0 ],
					"fontsize" : 10.0
				}

			}
, 			{
				"box" : 				{
					"maxclass" : "newobj",
					"text" : "jcom.message mymessage @type msg_generic",
					"numinlets" : 1,
					"numoutlets" : 3,
					"id" : "obj-49",
					"fontname" : "Verdana",
					"outlettype" : [ "", "", "" ],
					"patching_rect" : [ 885.0, 245.0, 247.0, 19.0 ],
					"fontsize" : 10.0
				}

			}
, 			{
				"box" : 				{
					"maxclass" : "newobj",
					"text" : "pvar MyMessage",
					"numinlets" : 1,
					"numoutlets" : 1,
					"id" : "obj-50",
					"fontname" : "Verdana",
					"outlettype" : [ "" ],
					"patching_rect" : [ 885.0, 220.0, 93.0, 19.0 ],
					"fontsize" : 10.0
				}

			}
, 			{
				"box" : 				{
					"maxclass" : "message",
					"varname" : "MyMessage",
					"text" : "So Long",
					"numinlets" : 2,
					"numoutlets" : 1,
					"id" : "obj-51",
					"fontname" : "Verdana",
					"outlettype" : [ "" ],
					"patching_rect" : [ 645.0, 255.0, 187.0, 17.0 ],
					"fontsize" : 10.0
				}

			}
, 			{
				"box" : 				{
					"maxclass" : "newobj",
					"text" : "r incomming",
					"numinlets" : 0,
					"numoutlets" : 1,
					"id" : "obj-52",
					"fontname" : "Verdana",
					"outlettype" : [ "" ],
					"patching_rect" : [ 695.0, 345.0, 73.0, 19.0 ],
					"fontsize" : 10.0
				}

			}
, 			{
				"box" : 				{
					"maxclass" : "message",
					"numinlets" : 2,
					"numoutlets" : 1,
					"id" : "obj-54",
					"fontname" : "Verdana",
					"outlettype" : [ "" ],
					"patching_rect" : [ 595.0, 450.0, 202.0, 17.0 ],
					"fontsize" : 10.0
				}

			}
, 			{
				"box" : 				{
					"maxclass" : "comment",
					"text" : "jcom.hub",
					"numinlets" : 1,
					"numoutlets" : 0,
					"id" : "obj-58",
					"fontname" : "Verdana",
					"frgb" : [ 1.0, 1.0, 1.0, 1.0 ],
					"patching_rect" : [ 550.0, 320.0, 84.0, 23.0 ],
					"fontsize" : 13.482065
				}

			}
, 			{
				"box" : 				{
					"maxclass" : "newobj",
					"varname" : "jcom.hub",
					"text" : "jcom.hub jcom.hub_help @size 1U-half @module_type control",
					"linecount" : 2,
					"numinlets" : 1,
					"numoutlets" : 2,
					"id" : "obj-59",
					"fontname" : "Verdana",
					"outlettype" : [ "", "" ],
					"patching_rect" : [ 555.0, 385.0, 220.0, 31.0 ],
					"fontsize" : 10.0
				}

			}
, 			{
				"box" : 				{
					"maxclass" : "comment",
					"text" : "command input",
					"numinlets" : 1,
					"numoutlets" : 0,
					"id" : "obj-60",
					"fontname" : "Verdana",
					"frgb" : [ 1.0, 1.0, 1.0, 1.0 ],
					"patching_rect" : [ 590.0, 345.0, 88.0, 19.0 ],
					"fontsize" : 10.0
				}

			}
, 			{
				"box" : 				{
					"maxclass" : "inlet",
					"numinlets" : 0,
					"numoutlets" : 1,
					"id" : "obj-61",
					"outlettype" : [ "" ],
					"patching_rect" : [ 555.0, 345.0, 26.0, 26.0 ],
					"comment" : ""
				}

			}
, 			{
				"box" : 				{
					"maxclass" : "outlet",
					"numinlets" : 1,
					"numoutlets" : 0,
					"id" : "obj-62",
					"patching_rect" : [ 555.0, 450.0, 26.0, 26.0 ],
					"comment" : ""
				}

			}
, 			{
				"box" : 				{
					"maxclass" : "comment",
					"text" : "my_message",
					"numinlets" : 1,
					"numoutlets" : 0,
					"id" : "obj-63",
					"fontname" : "Verdana",
					"frgb" : [ 1.0, 1.0, 1.0, 1.0 ],
					"patching_rect" : [ 565.0, 255.0, 75.0, 19.0 ],
					"fontsize" : 10.0
				}

			}
, 			{
				"box" : 				{
					"maxclass" : "comment",
					"text" : "jcom.gui",
					"numinlets" : 1,
					"numoutlets" : 0,
					"id" : "obj-64",
					"fontname" : "Verdana",
					"frgb" : [ 1.0, 1.0, 1.0, 1.0 ],
					"patching_rect" : [ 550.0, 195.0, 82.0, 24.0 ],
					"fontsize" : 14.0
				}

			}
, 			{
				"box" : 				{
					"maxclass" : "comment",
					"text" : "Reporting to the rest of the world",
					"numinlets" : 1,
					"numoutlets" : 0,
					"id" : "obj-65",
					"fontname" : "Verdana",
					"frgb" : [ 1.0, 1.0, 1.0, 1.0 ],
					"patching_rect" : [ 555.0, 485.0, 177.0, 19.0 ],
					"fontsize" : 10.0
				}

			}
, 			{
				"box" : 				{
					"maxclass" : "comment",
					"text" : "For information on configuring the attributes to the jcom.hub object, please refer to the Jamoma tutorials. These are the best source for getting familiar with the steps involved in building modules.",
					"linecount" : 2,
					"numinlets" : 1,
					"numoutlets" : 0,
					"id" : "obj-67",
					"fontname" : "Verdana",
					"frgb" : [ 1.0, 1.0, 1.0, 1.0 ],
					"patching_rect" : [ 16.0, 117.0, 596.0, 31.0 ],
					"fontsize" : 10.0
				}

			}
, 			{
				"box" : 				{
					"maxclass" : "comment",
					"text" : "jcom.hub",
					"numinlets" : 1,
					"numoutlets" : 0,
					"id" : "obj-68",
					"fontname" : "Verdana",
					"frgb" : [ 1.0, 1.0, 1.0, 1.0 ],
					"patching_rect" : [ 20.0, 30.0, 196.0, 28.0 ],
					"fontsize" : 18.0
				}

			}
, 			{
				"box" : 				{
					"maxclass" : "comment",
					"text" : "the central nervous system of a jamoma module",
					"numinlets" : 1,
					"numoutlets" : 0,
					"id" : "obj-69",
					"fontname" : "Verdana",
					"frgb" : [ 1.0, 1.0, 1.0, 1.0 ],
					"patching_rect" : [ 20.0, 55.0, 253.0, 19.0 ],
					"fontsize" : 10.0
				}

			}
, 			{
				"box" : 				{
					"maxclass" : "comment",
					"text" : "jcom.hub is the central abstraction in a jamoma module. It parses input, distributes messaging to parameters, manages the pattrstorage object, generates documentation, configures the jcom.gui object, etc.",
					"linecount" : 2,
					"numinlets" : 1,
					"numoutlets" : 0,
					"id" : "obj-71",
					"fontname" : "Verdana",
					"frgb" : [ 1.0, 1.0, 1.0, 1.0 ],
					"patching_rect" : [ 16.0, 80.0, 566.0, 31.0 ],
					"fontsize" : 10.0
				}

			}
, 			{
				"box" : 				{
					"maxclass" : "comment",
					"text" : "See also",
					"numinlets" : 1,
					"numoutlets" : 0,
					"id" : "obj-72",
					"fontname" : "Verdana",
					"frgb" : [ 1.0, 1.0, 1.0, 1.0 ],
					"patching_rect" : [ 885.0, 425.0, 52.0, 19.0 ],
					"fontsize" : 10.0
				}

			}
, 			{
				"box" : 				{
					"maxclass" : "panel",
					"numinlets" : 1,
					"numoutlets" : 0,
					"id" : "obj-70",
					"patching_rect" : [ 10.0, 20.0, 515.0, 57.0 ],
					"rounded" : 15
				}

			}
, 			{
				"box" : 				{
					"maxclass" : "jcom.ui",
					"text" : "/editing_this_module",
					"numinlets" : 1,
					"numoutlets" : 1,
					"id" : "obj-8",
					"outlettype" : [ "" ],
					"patching_rect" : [ 545.0, 220.0, 300.0, 70.0 ],
					"color" : [ 1.0, 1.0, 1.0, 1.0 ],
					"textcolor" : [ 0.65, 0.65, 0.65, 1.0 ]
				}

			}
, 			{
				"box" : 				{
					"maxclass" : "panel",
					"numinlets" : 1,
					"numoutlets" : 0,
					"id" : "obj-75",
					"border" : 2,
					"patching_rect" : [ 535.0, 182.0, 323.0, 120.0 ],
					"bgcolor" : [ 0.780392, 0.780392, 0.839216, 0.0 ],
					"background" : 1,
					"rounded" : 15
				}

			}
, 			{
				"box" : 				{
					"maxclass" : "panel",
					"numinlets" : 1,
					"numoutlets" : 0,
					"id" : "obj-66",
					"border" : 2,
					"patching_rect" : [ 535.0, 310.0, 325.0, 210.0 ],
					"bgcolor" : [ 0.780392, 0.780392, 0.839216, 0.0 ],
					"background" : 1,
					"rounded" : 15
				}

			}
 ],
		"lines" : [ 			{
				"patchline" : 				{
					"source" : [ "obj-59", 0 ],
					"destination" : [ "obj-54", 1 ],
					"hidden" : 0,
					"midpoints" : [ 564.5, 426.0, 787.5, 426.0 ]
				}

			}
, 			{
				"patchline" : 				{
					"source" : [ "obj-42", 0 ],
					"destination" : [ "obj-43", 0 ],
					"hidden" : 1,
					"midpoints" : [  ]
				}

			}
, 			{
				"patchline" : 				{
					"source" : [ "obj-3", 0 ],
					"destination" : [ "obj-42", 0 ],
					"hidden" : 1,
					"midpoints" : [  ]
				}

			}
, 			{
				"patchline" : 				{
					"source" : [ "obj-2", 0 ],
					"destination" : [ "obj-42", 0 ],
					"hidden" : 1,
					"midpoints" : [  ]
				}

			}
, 			{
				"patchline" : 				{
					"source" : [ "obj-1", 0 ],
					"destination" : [ "obj-42", 0 ],
					"hidden" : 1,
					"midpoints" : [  ]
				}

			}
, 			{
				"patchline" : 				{
					"source" : [ "obj-41", 0 ],
					"destination" : [ "obj-42", 0 ],
					"hidden" : 1,
					"midpoints" : [  ]
				}

			}
, 			{
				"patchline" : 				{
					"source" : [ "obj-46", 0 ],
					"destination" : [ "obj-45", 0 ],
					"hidden" : 0,
					"midpoints" : [  ]
				}

			}
, 			{
				"patchline" : 				{
					"source" : [ "obj-47", 0 ],
					"destination" : [ "obj-45", 0 ],
					"hidden" : 0,
					"midpoints" : [  ]
				}

			}
, 			{
				"patchline" : 				{
					"source" : [ "obj-50", 0 ],
					"destination" : [ "obj-49", 0 ],
					"hidden" : 0,
					"midpoints" : [  ]
				}

			}
, 			{
				"patchline" : 				{
					"source" : [ "obj-49", 0 ],
					"destination" : [ "obj-50", 0 ],
					"hidden" : 0,
					"midpoints" : [ 894.5, 271.0, 877.0, 271.0, 877.0, 211.0, 894.5, 211.0 ]
				}

			}
, 			{
				"patchline" : 				{
					"source" : [ "obj-48", 0 ],
					"destination" : [ "obj-54", 0 ],
					"hidden" : 1,
					"midpoints" : [  ]
				}

			}
, 			{
				"patchline" : 				{
					"source" : [ "obj-59", 0 ],
					"destination" : [ "obj-62", 0 ],
					"hidden" : 0,
					"midpoints" : [  ]
				}

			}
, 			{
				"patchline" : 				{
					"source" : [ "obj-52", 0 ],
					"destination" : [ "obj-59", 0 ],
					"hidden" : 0,
					"midpoints" : [ 704.5, 377.0, 564.5, 377.0 ]
				}

			}
, 			{
				"patchline" : 				{
					"source" : [ "obj-61", 0 ],
					"destination" : [ "obj-59", 0 ],
					"hidden" : 0,
					"midpoints" : [  ]
				}

			}
 ]
	}

}
