{
	"patcher" : 	{
		"rect" : [ 45.0, 72.0, 734.0, 318.0 ],
		"bgcolor" : [ 1.0, 1.0, 1.0, 1.0 ],
		"bglocked" : 0,
		"defrect" : [ 45.0, 72.0, 734.0, 318.0 ],
		"openinpresentation" : 0,
		"default_fontsize" : 10.0,
		"default_fontface" : 0,
		"default_fontname" : "Verdana",
		"gridonopen" : 0,
		"gridsize" : [ 15.0, 15.0 ],
		"gridsnaponopen" : 0,
		"toolbarvisible" : 1,
		"boxfadetime" : 200,
		"boxanimatetime" : 200,
		"scrollanimatetime" : 200,
		"metadata" : [  ],
		"boxes" : [ 			{
				"box" : 				{
					"maxclass" : "message",
					"text" : "11.11 22.22 33.33 ramp 1000",
					"patching_rect" : [ 552.0, 99.0, 161.0, 16.0 ],
					"numinlets" : 2,
					"fontname" : "Verdana",
					"numoutlets" : 1,
					"id" : "obj-1",
					"outlettype" : [ "" ],
					"fontsize" : 9.0
				}

			}
, 			{
				"box" : 				{
					"maxclass" : "message",
					"text" : "1. 2. 3.",
					"patching_rect" : [ 503.0, 99.0, 47.0, 16.0 ],
					"numinlets" : 2,
					"fontname" : "Verdana",
					"numoutlets" : 1,
					"id" : "obj-2",
					"outlettype" : [ "" ],
					"fontsize" : 9.0
				}

			}
, 			{
				"box" : 				{
					"maxclass" : "comment",
					"text" : "jcom.list2parameter",
					"patching_rect" : [ 21.0, 18.0, 330.0, 28.0 ],
					"numinlets" : 1,
					"fontname" : "Verdana",
					"frgb" : [ 1.0, 1.0, 1.0, 1.0 ],
					"numoutlets" : 0,
					"id" : "obj-3",
					"textcolor" : [ 1.0, 1.0, 1.0, 1.0 ],
					"fontsize" : 15.799999
				}

			}
, 			{
				"box" : 				{
					"maxclass" : "comment",
					"text" : "Z",
					"patching_rect" : [ 117.0, 168.0, 17.0, 17.0 ],
					"numinlets" : 1,
					"fontname" : "Verdana",
					"numoutlets" : 0,
					"id" : "obj-4",
					"fontsize" : 9.0
				}

			}
, 			{
				"box" : 				{
					"maxclass" : "comment",
					"text" : "Y",
					"patching_rect" : [ 78.0, 168.0, 18.0, 17.0 ],
					"numinlets" : 1,
					"fontname" : "Verdana",
					"numoutlets" : 0,
					"id" : "obj-5",
					"fontsize" : 9.0
				}

			}
, 			{
				"box" : 				{
					"maxclass" : "newobj",
					"text" : "jcom.list2parameter 3",
					"patching_rect" : [ 255.0, 170.0, 190.0, 18.0 ],
					"numinlets" : 11,
					"fontname" : "Verdana",
					"numoutlets" : 11,
					"id" : "obj-6",
					"outlettype" : [ "", "", "", "", "", "", "", "", "", "", "" ],
					"fontsize" : 9.0
				}

			}
, 			{
				"box" : 				{
					"maxclass" : "message",
					"text" : "10 20 30",
					"patching_rect" : [ 447.0, 99.0, 55.0, 16.0 ],
					"numinlets" : 2,
					"fontname" : "Verdana",
					"numoutlets" : 1,
					"id" : "obj-7",
					"outlettype" : [ "" ],
					"fontsize" : 9.0
				}

			}
, 			{
				"box" : 				{
					"maxclass" : "message",
					"patching_rect" : [ 447.0, 271.0, 86.0, 16.0 ],
					"numinlets" : 2,
					"fontname" : "Verdana",
					"numoutlets" : 1,
					"id" : "obj-8",
					"outlettype" : [ "" ],
					"fontsize" : 9.0
				}

			}
, 			{
				"box" : 				{
					"maxclass" : "newobj",
					"text" : "loadmess set",
					"patching_rect" : [ 463.0, 245.0, 81.0, 18.0 ],
					"numinlets" : 1,
					"hidden" : 1,
					"fontname" : "Verdana",
					"numoutlets" : 1,
					"id" : "obj-9",
					"outlettype" : [ "" ],
					"fontsize" : 9.0
				}

			}
, 			{
				"box" : 				{
					"maxclass" : "newobj",
					"varname" : "testing",
					"text" : "jcom.parameter testing @type msg_list",
					"patching_rect" : [ 447.0, 170.0, 233.0, 18.0 ],
					"numinlets" : 1,
					"fontname" : "Verdana",
					"numoutlets" : 1,
					"id" : "obj-10",
					"outlettype" : [ "" ],
					"fontsize" : 9.0
				}

			}
, 			{
				"box" : 				{
					"maxclass" : "number",
					"varname" : "Z",
					"patching_rect" : [ 111.0, 187.0, 35.0, 17.0 ],
					"triscale" : 0.9,
					"htextcolor" : [ 0.870588, 0.870588, 0.870588, 1.0 ],
					"numinlets" : 1,
					"fontname" : "Verdana",
					"numoutlets" : 2,
					"id" : "obj-11",
					"outlettype" : [ "int", "bang" ],
					"bgcolor" : [ 0.866667, 0.866667, 0.866667, 1.0 ],
					"fontsize" : 9.0
				}

			}
, 			{
				"box" : 				{
					"maxclass" : "number",
					"varname" : "Y",
					"patching_rect" : [ 72.0, 187.0, 35.0, 17.0 ],
					"triscale" : 0.9,
					"htextcolor" : [ 0.870588, 0.870588, 0.870588, 1.0 ],
					"numinlets" : 1,
					"fontname" : "Verdana",
					"numoutlets" : 2,
					"id" : "obj-12",
					"outlettype" : [ "int", "bang" ],
					"bgcolor" : [ 0.866667, 0.866667, 0.866667, 1.0 ],
					"fontsize" : 9.0
				}

			}
, 			{
				"box" : 				{
					"maxclass" : "number",
					"varname" : "X",
					"patching_rect" : [ 33.0, 187.0, 35.0, 17.0 ],
					"triscale" : 0.9,
					"htextcolor" : [ 0.870588, 0.870588, 0.870588, 1.0 ],
					"numinlets" : 1,
					"fontname" : "Verdana",
					"numoutlets" : 2,
					"id" : "obj-13",
					"outlettype" : [ "int", "bang" ],
					"bgcolor" : [ 0.866667, 0.866667, 0.866667, 1.0 ],
					"fontsize" : 9.0
				}

			}
, 			{
				"box" : 				{
					"maxclass" : "newobj",
					"text" : "pvar Z",
					"patching_rect" : [ 341.0, 206.0, 48.0, 18.0 ],
					"numinlets" : 1,
					"fontname" : "Verdana",
					"numoutlets" : 1,
					"id" : "obj-14",
					"outlettype" : [ "" ],
					"fontsize" : 9.0
				}

			}
, 			{
				"box" : 				{
					"maxclass" : "newobj",
					"text" : "pvar Y",
					"patching_rect" : [ 298.0, 206.0, 47.0, 18.0 ],
					"numinlets" : 1,
					"fontname" : "Verdana",
					"numoutlets" : 1,
					"id" : "obj-15",
					"outlettype" : [ "" ],
					"fontsize" : 9.0
				}

			}
, 			{
				"box" : 				{
					"maxclass" : "newobj",
					"text" : "pvar X",
					"patching_rect" : [ 255.0, 206.0, 48.0, 18.0 ],
					"numinlets" : 1,
					"fontname" : "Verdana",
					"numoutlets" : 1,
					"id" : "obj-16",
					"outlettype" : [ "" ],
					"fontsize" : 9.0
				}

			}
, 			{
				"box" : 				{
					"maxclass" : "comment",
					"text" : "X",
					"patching_rect" : [ 39.0, 168.0, 18.0, 17.0 ],
					"numinlets" : 1,
					"fontname" : "Verdana",
					"numoutlets" : 0,
					"id" : "obj-17",
					"fontsize" : 9.0
				}

			}
, 			{
				"box" : 				{
					"maxclass" : "comment",
					"text" : "making life easier if you want to access the individual members of a @type msg_list parameter in the GUI",
					"patching_rect" : [ 21.0, 46.0, 539.0, 18.0 ],
					"numinlets" : 1,
					"fontname" : "Verdana",
					"frgb" : [ 1.0, 1.0, 1.0, 1.0 ],
					"numoutlets" : 0,
					"id" : "obj-18",
					"textcolor" : [ 1.0, 1.0, 1.0, 1.0 ],
					"fontsize" : 9.0
				}

			}
, 			{
				"box" : 				{
					"maxclass" : "panel",
					"patching_rect" : [ 16.0, 13.0, 568.0, 50.0 ],
					"numinlets" : 1,
					"numoutlets" : 0,
					"rounded" : 0,
					"id" : "obj-19",
					"bgcolor" : [ 0.262745, 0.254902, 0.419608, 1.0 ]
				}

			}
, 			{
				"box" : 				{
					"maxclass" : "comment",
					"text" : "Argument: list length",
					"patching_rect" : [ 21.0, 77.0, 166.0, 18.0 ],
					"numinlets" : 1,
					"fontname" : "Verdana",
					"numoutlets" : 0,
					"id" : "obj-20",
					"fontsize" : 9.0
				}

			}
 ],
		"lines" : [ 			{
				"patchline" : 				{
					"source" : [ "obj-6", 10 ],
					"destination" : [ "obj-10", 0 ],
					"hidden" : 0
				}

			}
, 			{
				"patchline" : 				{
					"source" : [ "obj-10", 0 ],
					"destination" : [ "obj-6", 10 ],
					"hidden" : 0
				}

			}
, 			{
				"patchline" : 				{
					"source" : [ "obj-6", 2 ],
					"destination" : [ "obj-14", 0 ],
					"hidden" : 0
				}

			}
, 			{
				"patchline" : 				{
					"source" : [ "obj-6", 1 ],
					"destination" : [ "obj-15", 0 ],
					"hidden" : 0
				}

			}
, 			{
				"patchline" : 				{
					"source" : [ "obj-14", 0 ],
					"destination" : [ "obj-6", 2 ],
					"hidden" : 0,
					"midpoints" : [ 350.5, 232.0, 242.0, 232.0, 242.0, 160.0, 298.700012, 160.0 ]
				}

			}
, 			{
				"patchline" : 				{
					"source" : [ "obj-15", 0 ],
					"destination" : [ "obj-6", 1 ],
					"hidden" : 0,
					"midpoints" : [ 307.5, 230.0, 245.0, 230.0, 245.0, 162.0, 281.600006, 162.0 ]
				}

			}
, 			{
				"patchline" : 				{
					"source" : [ "obj-6", 0 ],
					"destination" : [ "obj-16", 0 ],
					"hidden" : 0
				}

			}
, 			{
				"patchline" : 				{
					"source" : [ "obj-16", 0 ],
					"destination" : [ "obj-6", 0 ],
					"hidden" : 0,
					"midpoints" : [ 264.5, 228.0, 248.0, 228.0, 248.0, 164.0, 264.5, 164.0 ]
				}

			}
, 			{
				"patchline" : 				{
					"source" : [ "obj-7", 0 ],
					"destination" : [ "obj-10", 0 ],
					"hidden" : 0
				}

			}
, 			{
				"patchline" : 				{
					"source" : [ "obj-2", 0 ],
					"destination" : [ "obj-10", 0 ],
					"hidden" : 0
				}

			}
, 			{
				"patchline" : 				{
					"source" : [ "obj-1", 0 ],
					"destination" : [ "obj-10", 0 ],
					"hidden" : 0
				}

			}
, 			{
				"patchline" : 				{
					"source" : [ "obj-9", 0 ],
					"destination" : [ "obj-8", 0 ],
					"hidden" : 1
				}

			}
, 			{
				"patchline" : 				{
					"source" : [ "obj-10", 0 ],
					"destination" : [ "obj-8", 0 ],
					"hidden" : 0
				}

			}
 ]
	}

}
