{
	"patcher" : 	{
		"rect" : [ 305.0, 44.0, 422.0, 705.0 ],
		"bglocked" : 0,
		"defrect" : [ 305.0, 44.0, 422.0, 705.0 ],
		"openinpresentation" : 0,
		"default_fontsize" : 10.0,
		"default_fontface" : 0,
		"default_fontname" : "Verdana",
		"gridonopen" : 0,
		"gridsize" : [ 5.0, 5.0 ],
		"gridsnaponopen" : 0,
		"toolbarvisible" : 1,
		"boxfadetime" : 200,
		"boxanimatetime" : 200,
		"scrollanimatetime" : 200,
		"metadata" : [  ],
		"boxes" : [ 			{
				"box" : 				{
					"maxclass" : "comment",
					"text" : "Both the look-and-feel of the jcom.gui, and its functionality, are determined by the arguments to the jcom.hub object. This includes the size of the module. The look and feel can actually be completely customized by using the",
					"linecount" : 4,
					"patching_rect" : [ 32.0, 160.0, 340.0, 54.0 ],
					"numinlets" : 1,
					"fontname" : "Verdana",
					"numoutlets" : 0,
					"id" : "obj-1",
					"fontsize" : 9.0
				}

			}
, 			{
				"box" : 				{
					"maxclass" : "message",
					"text" : ";\rmax refresh",
					"linecount" : 2,
					"patching_rect" : [ 50.0, 669.0, 65.0, 26.0 ],
					"numinlets" : 2,
					"fontname" : "Verdana",
					"numoutlets" : 1,
					"id" : "obj-2",
					"outlettype" : [ "" ],
					"fontsize" : 9.0
				}

			}
, 			{
				"box" : 				{
					"maxclass" : "newobj",
					"text" : "loadbang",
					"patching_rect" : [ 50.0, 642.0, 46.0, 17.0 ],
					"numinlets" : 1,
					"fontname" : "Verdana",
					"numoutlets" : 1,
					"id" : "obj-3",
					"outlettype" : [ "bang" ],
					"fontsize" : 9.0
				}

			}
, 			{
				"box" : 				{
					"maxclass" : "message",
					"text" : ";\rjcom.init bang",
					"linecount" : 2,
					"patching_rect" : [ 118.0, 669.0, 75.0, 26.0 ],
					"numinlets" : 2,
					"fontname" : "Verdana",
					"numoutlets" : 1,
					"id" : "obj-4",
					"outlettype" : [ "" ],
					"fontsize" : 9.0
				}

			}
, 			{
				"box" : 				{
					"maxclass" : "newobj",
					"text" : "loadmess set",
					"patching_rect" : [ 213.0, 478.0, 78.0, 18.0 ],
					"numinlets" : 1,
					"hidden" : 1,
					"fontname" : "Verdana",
					"numoutlets" : 1,
					"id" : "obj-5",
					"outlettype" : [ "" ],
					"fontsize" : 9.0
				}

			}
, 			{
				"box" : 				{
					"maxclass" : "message",
					"varname" : "MyMessage",
					"text" : "So Long",
					"patching_rect" : [ 131.0, 300.0, 143.0, 15.0 ],
					"numinlets" : 2,
					"fontname" : "Verdana",
					"numoutlets" : 1,
					"id" : "obj-6",
					"outlettype" : [ "" ],
					"fontsize" : 9.0
				}

			}
, 			{
				"box" : 				{
					"maxclass" : "newobj",
					"text" : "r incomming",
					"patching_rect" : [ 149.0, 408.0, 79.0, 18.0 ],
					"numinlets" : 0,
					"fontname" : "Verdana",
					"numoutlets" : 1,
					"id" : "obj-7",
					"outlettype" : [ "" ],
					"fontsize" : 9.0
				}

			}
, 			{
				"box" : 				{
					"maxclass" : "comment",
					"text" : "Can be used internally for processing",
					"patching_rect" : [ 142.0, 523.0, 213.0, 18.0 ],
					"numinlets" : 1,
					"fontname" : "Verdana",
					"numoutlets" : 0,
					"id" : "obj-8",
					"fontsize" : 9.0
				}

			}
, 			{
				"box" : 				{
					"maxclass" : "message",
					"patching_rect" : [ 66.0, 578.0, 153.0, 16.0 ],
					"numinlets" : 2,
					"fontname" : "Verdana",
					"numoutlets" : 1,
					"id" : "obj-9",
					"outlettype" : [ "" ],
					"fontsize" : 9.0
				}

			}
, 			{
				"box" : 				{
					"maxclass" : "newobj",
					"text" : "prepend set",
					"patching_rect" : [ 66.0, 553.0, 74.0, 18.0 ],
					"numinlets" : 1,
					"fontname" : "Verdana",
					"numoutlets" : 1,
					"id" : "obj-10",
					"outlettype" : [ "" ],
					"fontsize" : 9.0
				}

			}
, 			{
				"box" : 				{
					"maxclass" : "message",
					"patching_rect" : [ 143.0, 503.0, 187.0, 16.0 ],
					"numinlets" : 2,
					"fontname" : "Verdana",
					"numoutlets" : 1,
					"id" : "obj-11",
					"outlettype" : [ "" ],
					"fontsize" : 9.0
				}

			}
, 			{
				"box" : 				{
					"maxclass" : "newobj",
					"text" : "prepend set",
					"patching_rect" : [ 143.0, 478.0, 74.0, 18.0 ],
					"numinlets" : 1,
					"fontname" : "Verdana",
					"numoutlets" : 1,
					"id" : "obj-12",
					"outlettype" : [ "" ],
					"fontsize" : 9.0
				}

			}
, 			{
				"box" : 				{
					"maxclass" : "comment",
					"text" : "jcom.hub",
					"patching_rect" : [ 53.0, 379.0, 84.0, 23.0 ],
					"numinlets" : 1,
					"fontname" : "Verdana",
					"numoutlets" : 0,
					"id" : "obj-13",
					"fontsize" : 12.288889
				}

			}
, 			{
				"box" : 				{
					"maxclass" : "newobj",
					"varname" : "jcom.hub",
					"text" : "jcom.hub jcom.gui_help @size 1U-half @module_type control",
					"linecount" : 2,
					"patching_rect" : [ 53.0, 429.0, 232.0, 30.0 ],
					"numinlets" : 1,
					"fontname" : "Verdana",
					"numoutlets" : 2,
					"id" : "obj-14",
					"outlettype" : [ "", "" ],
					"fontsize" : 9.0
				}

			}
, 			{
				"box" : 				{
					"maxclass" : "comment",
					"text" : "command input",
					"patching_rect" : [ 65.0, 410.0, 97.0, 18.0 ],
					"numinlets" : 1,
					"fontname" : "Verdana",
					"numoutlets" : 0,
					"id" : "obj-15",
					"fontsize" : 9.0
				}

			}
, 			{
				"box" : 				{
					"maxclass" : "inlet",
					"patching_rect" : [ 53.0, 410.0, 13.0, 13.0 ],
					"numinlets" : 0,
					"numoutlets" : 1,
					"id" : "obj-16",
					"outlettype" : [ "" ],
					"comment" : ""
				}

			}
, 			{
				"box" : 				{
					"maxclass" : "outlet",
					"patching_rect" : [ 53.0, 493.0, 13.0, 13.0 ],
					"numinlets" : 1,
					"numoutlets" : 0,
					"id" : "obj-17",
					"comment" : ""
				}

			}
, 			{
				"box" : 				{
					"maxclass" : "comment",
					"text" : "my_message",
					"patching_rect" : [ 58.0, 301.0, 65.0, 17.0 ],
					"numinlets" : 1,
					"fontname" : "Verdana",
					"frgb" : [ 1.0, 1.0, 1.0, 1.0 ],
					"numoutlets" : 0,
					"id" : "obj-18",
					"textcolor" : [ 1.0, 1.0, 1.0, 1.0 ],
					"fontsize" : 9.0
				}

			}
, 			{
				"box" : 				{
					"maxclass" : "comment",
					"text" : "jcom.gui",
					"patching_rect" : [ 52.0, 249.0, 79.0, 23.0 ],
					"numinlets" : 1,
					"fontname" : "Verdana",
					"numoutlets" : 0,
					"id" : "obj-19",
					"fontsize" : 12.288889
				}

			}
, 			{
				"box" : 				{
					"maxclass" : "comment",
					"text" : "Reporting to the rest of the world",
					"patching_rect" : [ 66.0, 599.0, 200.0, 18.0 ],
					"numinlets" : 1,
					"fontname" : "Verdana",
					"numoutlets" : 0,
					"id" : "obj-20",
					"fontsize" : 9.0
				}

			}
, 			{
				"box" : 				{
					"maxclass" : "panel",
					"patching_rect" : [ 34.0, 357.0, 300.0, 263.0 ],
					"numinlets" : 1,
					"numoutlets" : 0,
					"rounded" : 0,
					"id" : "obj-21",
					"bgcolor" : [ 0.780392, 0.780392, 0.839216, 1.0 ]
				}

			}
, 			{
				"box" : 				{
					"maxclass" : "comment",
					"text" : "jcom.gui also provides many of the standard facilities of modules so that you don't have to think about them. This includes signal level metering for audio modules, and a preview window for video modules.",
					"linecount" : 3,
					"patching_rect" : [ 32.0, 110.0, 360.0, 42.0 ],
					"numinlets" : 1,
					"fontname" : "Verdana",
					"numoutlets" : 0,
					"id" : "obj-22",
					"fontsize" : 9.0
				}

			}
, 			{
				"box" : 				{
					"maxclass" : "comment",
					"text" : "jcom.gui",
					"patching_rect" : [ 15.0, 21.0, 189.0, 28.0 ],
					"numinlets" : 1,
					"fontname" : "Verdana",
					"frgb" : [ 1.0, 1.0, 1.0, 1.0 ],
					"numoutlets" : 0,
					"id" : "obj-23",
					"textcolor" : [ 1.0, 1.0, 1.0, 1.0 ],
					"fontsize" : 15.799999
				}

			}
, 			{
				"box" : 				{
					"maxclass" : "comment",
					"text" : "user interface component",
					"patching_rect" : [ 16.0, 47.0, 267.0, 18.0 ],
					"numinlets" : 1,
					"fontname" : "Verdana",
					"frgb" : [ 1.0, 1.0, 1.0, 1.0 ],
					"numoutlets" : 0,
					"id" : "obj-24",
					"textcolor" : [ 1.0, 1.0, 1.0, 1.0 ],
					"fontsize" : 9.0
				}

			}
, 			{
				"box" : 				{
					"maxclass" : "panel",
					"patching_rect" : [ 14.0, 15.0, 389.0, 51.0 ],
					"numinlets" : 1,
					"numoutlets" : 0,
					"rounded" : 0,
					"id" : "obj-25",
					"bgcolor" : [ 0.262745, 0.254902, 0.419608, 1.0 ]
				}

			}
, 			{
				"box" : 				{
					"maxclass" : "comment",
					"text" : "jcom.gui is a component that is used as the background for a module when it is being designed. It is loaded in a bpatcher",
					"linecount" : 2,
					"patching_rect" : [ 30.0, 73.0, 320.0, 30.0 ],
					"numinlets" : 1,
					"fontname" : "Verdana",
					"numoutlets" : 0,
					"id" : "obj-26",
					"fontsize" : 9.0
				}

			}
, 			{
				"box" : 				{
					"maxclass" : "bpatcher",
					"varname" : "jcom.gui.1Uh.a.stereo.mxt",
					"patching_rect" : [ 52.0, 276.0, 256.0, 60.0 ],
					"numinlets" : 0,
					"numoutlets" : 0,
					"args" : [  ],
					"id" : "obj-27",
					"name" : "jcom.gui.mxt"
				}

			}
, 			{
				"box" : 				{
					"maxclass" : "panel",
					"patching_rect" : [ 33.0, 231.0, 300.0, 119.0 ],
					"numinlets" : 1,
					"numoutlets" : 0,
					"rounded" : 0,
					"id" : "obj-28",
					"background" : 1,
					"bgcolor" : [ 0.780392, 0.780392, 0.839216, 1.0 ]
				}

			}
 ],
		"lines" : [ 			{
				"patchline" : 				{
					"source" : [ "obj-3", 0 ],
					"destination" : [ "obj-2", 0 ],
					"hidden" : 0
				}

			}
, 			{
				"patchline" : 				{
					"source" : [ "obj-16", 0 ],
					"destination" : [ "obj-14", 0 ],
					"hidden" : 0
				}

			}
, 			{
				"patchline" : 				{
					"source" : [ "obj-7", 0 ],
					"destination" : [ "obj-14", 0 ],
					"hidden" : 0,
					"midpoints" : [ 158.5, 426.0, 62.5, 426.0 ]
				}

			}
, 			{
				"patchline" : 				{
					"source" : [ "obj-14", 0 ],
					"destination" : [ "obj-17", 0 ],
					"hidden" : 0
				}

			}
, 			{
				"patchline" : 				{
					"source" : [ "obj-14", 0 ],
					"destination" : [ "obj-10", 0 ],
					"hidden" : 0,
					"midpoints" : [ 62.5, 478.0, 75.5, 478.0 ]
				}

			}
, 			{
				"patchline" : 				{
					"source" : [ "obj-5", 0 ],
					"destination" : [ "obj-9", 0 ],
					"hidden" : 1
				}

			}
, 			{
				"patchline" : 				{
					"source" : [ "obj-10", 0 ],
					"destination" : [ "obj-9", 0 ],
					"hidden" : 0
				}

			}
, 			{
				"patchline" : 				{
					"source" : [ "obj-3", 0 ],
					"destination" : [ "obj-4", 0 ],
					"hidden" : 0,
					"midpoints" : [ 59.5, 664.0, 127.5, 664.0 ]
				}

			}
, 			{
				"patchline" : 				{
					"source" : [ "obj-14", 1 ],
					"destination" : [ "obj-12", 0 ],
					"hidden" : 0
				}

			}
, 			{
				"patchline" : 				{
					"source" : [ "obj-12", 0 ],
					"destination" : [ "obj-11", 0 ],
					"hidden" : 0
				}

			}
, 			{
				"patchline" : 				{
					"source" : [ "obj-5", 0 ],
					"destination" : [ "obj-11", 0 ],
					"hidden" : 1,
					"midpoints" : [ 222.5, 499.0, 152.5, 499.0 ]
				}

			}
 ]
	}

}
