{
	"patcher" : 	{
		"fileversion" : 1,
		"rect" : [ 69.0, 106.0, 296.0, 278.0 ],
		"bglocked" : 0,
		"defrect" : [ 69.0, 106.0, 296.0, 278.0 ],
		"openrect" : [ 0.0, 0.0, 0.0, 0.0 ],
		"openinpresentation" : 0,
		"default_fontsize" : 10.970939,
		"default_fontface" : 0,
		"default_fontname" : "Verdana",
		"gridonopen" : 0,
		"gridsize" : [ 5.0, 5.0 ],
		"gridsnaponopen" : 0,
		"toolbarvisible" : 1,
		"boxanimatetime" : 200,
		"imprint" : 0,
		"metadata" : [  ],
		"boxes" : [ 			{
				"box" : 				{
					"maxclass" : "newobj",
					"text" : "loadmess set",
					"numinlets" : 1,
					"fontsize" : 10.970939,
					"numoutlets" : 1,
					"hidden" : 1,
					"patching_rect" : [ 55.0, 230.0, 83.0, 20.0 ],
					"outlettype" : [ "" ],
					"id" : "obj-2",
					"fontname" : "Verdana"
				}

			}
, 			{
				"box" : 				{
					"maxclass" : "message",
					"text" : "0.12",
					"numinlets" : 2,
					"fontsize" : 10.0,
					"numoutlets" : 1,
					"patching_rect" : [ 55.0, 205.0, 60.0, 17.0 ],
					"outlettype" : [ "" ],
					"id" : "obj-1",
					"fontname" : "Verdana"
				}

			}
, 			{
				"box" : 				{
					"maxclass" : "message",
					"text" : "hello!",
					"numinlets" : 2,
					"fontsize" : 10.0,
					"numoutlets" : 1,
					"patching_rect" : [ 140.0, 100.0, 42.0, 17.0 ],
					"outlettype" : [ "" ],
					"id" : "obj-3",
					"fontname" : "Verdana"
				}

			}
, 			{
				"box" : 				{
					"maxclass" : "number",
					"numinlets" : 1,
					"fontsize" : 10.0,
					"triscale" : 0.9,
					"numoutlets" : 2,
					"patching_rect" : [ 100.0, 100.0, 37.0, 19.0 ],
					"outlettype" : [ "int", "bang" ],
					"id" : "obj-4",
					"fontname" : "Verdana"
				}

			}
, 			{
				"box" : 				{
					"maxclass" : "newobj",
					"text" : "jcom.thru",
					"numinlets" : 1,
					"fontsize" : 10.0,
					"numoutlets" : 1,
					"patching_rect" : [ 55.0, 160.0, 61.0, 19.0 ],
					"outlettype" : [ "float" ],
					"id" : "obj-5",
					"fontname" : "Verdana"
				}

			}
, 			{
				"box" : 				{
					"maxclass" : "flonum",
					"numinlets" : 1,
					"fontsize" : 10.0,
					"triscale" : 0.9,
					"numoutlets" : 2,
					"patching_rect" : [ 55.0, 100.0, 39.0, 19.0 ],
					"outlettype" : [ "float", "bang" ],
					"id" : "obj-6",
					"fontname" : "Verdana"
				}

			}
, 			{
				"box" : 				{
					"maxclass" : "comment",
					"text" : "jcom.thru",
					"numinlets" : 1,
					"fontsize" : 17.334082,
					"numoutlets" : 0,
					"frgb" : [ 0.337255, 0.356863, 0.690196, 1.0 ],
					"patching_rect" : [ 21.0, 18.0, 145.0, 28.0 ],
					"id" : "obj-7",
					"fontname" : "Verdana"
				}

			}
, 			{
				"box" : 				{
					"maxclass" : "comment",
					"text" : "utility to keep patches tidy",
					"numinlets" : 1,
					"fontsize" : 10.0,
					"numoutlets" : 0,
					"frgb" : [ 0.337255, 0.356863, 0.690196, 1.0 ],
					"patching_rect" : [ 21.0, 43.0, 170.0, 19.0 ],
					"id" : "obj-8",
					"fontname" : "Verdana"
				}

			}
, 			{
				"box" : 				{
					"maxclass" : "panel",
					"numinlets" : 1,
					"rounded" : 15,
					"numoutlets" : 0,
					"patching_rect" : [ 16.0, 13.0, 243.0, 50.0 ],
					"id" : "obj-9"
				}

			}
, 			{
				"box" : 				{
					"maxclass" : "comment",
					"text" : "<- look inside",
					"numinlets" : 1,
					"fontsize" : 10.0,
					"numoutlets" : 0,
					"frgb" : [ 0.337255, 0.356863, 0.690196, 1.0 ],
					"patching_rect" : [ 130.0, 160.0, 123.0, 19.0 ],
					"id" : "obj-10",
					"fontname" : "Verdana"
				}

			}
 ],
		"lines" : [ 			{
				"patchline" : 				{
					"source" : [ "obj-2", 0 ],
					"destination" : [ "obj-1", 0 ],
					"hidden" : 1,
					"midpoints" : [ 64.5, 252.0, 42.0, 252.0, 42.0, 201.0, 64.5, 201.0 ]
				}

			}
, 			{
				"patchline" : 				{
					"source" : [ "obj-5", 0 ],
					"destination" : [ "obj-1", 1 ],
					"hidden" : 0,
					"midpoints" : [ 64.5, 192.0, 105.5, 192.0 ]
				}

			}
, 			{
				"patchline" : 				{
					"source" : [ "obj-6", 0 ],
					"destination" : [ "obj-5", 0 ],
					"hidden" : 0,
					"midpoints" : [  ]
				}

			}
, 			{
				"patchline" : 				{
					"source" : [ "obj-4", 0 ],
					"destination" : [ "obj-5", 0 ],
					"hidden" : 0,
					"midpoints" : [  ]
				}

			}
, 			{
				"patchline" : 				{
					"source" : [ "obj-3", 0 ],
					"destination" : [ "obj-5", 0 ],
					"hidden" : 0,
					"midpoints" : [  ]
				}

			}
 ]
	}

}
