{
	"patcher" : 	{
		"fileversion" : 1,
		"rect" : [ 25.0, 69.0, 553.0, 626.0 ],
		"bglocked" : 0,
		"defrect" : [ 25.0, 69.0, 553.0, 626.0 ],
		"openrect" : [ 0.0, 0.0, 0.0, 0.0 ],
		"openinpresentation" : 0,
		"default_fontsize" : 10.0,
		"default_fontface" : 0,
		"default_fontname" : "Verdana",
		"gridonopen" : 0,
		"gridsize" : [ 5.0, 5.0 ],
		"gridsnaponopen" : 0,
		"toolbarvisible" : 1,
		"boxanimatetime" : 200,
		"imprint" : 0,
		"metadata" : [  ],
		"boxes" : [ 			{
				"box" : 				{
					"maxclass" : "message",
					"numinlets" : 2,
					"numoutlets" : 1,
					"fontsize" : 10.0,
					"outlettype" : [ "" ],
					"presentation_rect" : [ 318.0, 224.0, 0.0, 0.0 ],
					"patching_rect" : [ 320.0, 225.0, 100.0, 17.0 ],
					"id" : "obj-2",
					"fontname" : "Verdana"
				}

			}
, 			{
				"box" : 				{
					"maxclass" : "button",
					"numinlets" : 1,
					"numoutlets" : 1,
					"outlettype" : [ "bang" ],
					"patching_rect" : [ 105.0, 485.0, 20.0, 20.0 ],
					"id" : "obj-4"
				}

			}
, 			{
				"box" : 				{
					"maxclass" : "newobj",
					"text" : "p openReference",
					"numinlets" : 1,
					"hidden" : 1,
					"numoutlets" : 0,
					"fontsize" : 10.0,
					"patching_rect" : [ 305.0, 60.0, 95.0, 19.0 ],
					"id" : "obj-37",
					"fontname" : "Verdana",
					"patcher" : 					{
						"fileversion" : 1,
						"rect" : [ 75.0, 119.0, 262.0, 204.0 ],
						"bglocked" : 0,
						"defrect" : [ 75.0, 119.0, 262.0, 204.0 ],
						"openrect" : [ 0.0, 0.0, 0.0, 0.0 ],
						"openinpresentation" : 0,
						"default_fontsize" : 10.0,
						"default_fontface" : 0,
						"default_fontname" : "Verdana",
						"gridonopen" : 0,
						"gridsize" : [ 5.0, 5.0 ],
						"gridsnaponopen" : 0,
						"toolbarvisible" : 1,
						"boxanimatetime" : 200,
						"imprint" : 0,
						"metadata" : [  ],
						"boxes" : [ 							{
								"box" : 								{
									"maxclass" : "newobj",
									"text" : "zl nth 2",
									"numinlets" : 2,
									"numoutlets" : 2,
									"fontsize" : 10.0,
									"outlettype" : [ "", "" ],
									"patching_rect" : [ 55.0, 70.0, 48.0, 19.0 ],
									"id" : "obj-21",
									"fontname" : "Verdana"
								}

							}
, 							{
								"box" : 								{
									"maxclass" : "newobj",
									"text" : "sprintf load %s.maxref.xml",
									"numinlets" : 1,
									"numoutlets" : 1,
									"fontsize" : 10.0,
									"outlettype" : [ "" ],
									"patching_rect" : [ 55.0, 95.0, 147.0, 19.0 ],
									"id" : "obj-20",
									"fontname" : "Verdana"
								}

							}
, 							{
								"box" : 								{
									"maxclass" : "newobj",
									"text" : "pcontrol",
									"numinlets" : 1,
									"numoutlets" : 1,
									"fontsize" : 10.0,
									"outlettype" : [ "" ],
									"patching_rect" : [ 55.0, 120.0, 51.0, 19.0 ],
									"id" : "obj-19",
									"fontname" : "Verdana"
								}

							}
, 							{
								"box" : 								{
									"maxclass" : "inlet",
									"numinlets" : 0,
									"numoutlets" : 1,
									"outlettype" : [ "" ],
									"patching_rect" : [ 55.0, 40.0, 25.0, 25.0 ],
									"id" : "obj-24",
									"comment" : ""
								}

							}
 ],
						"lines" : [ 							{
								"patchline" : 								{
									"source" : [ "obj-21", 0 ],
									"destination" : [ "obj-20", 0 ],
									"hidden" : 0,
									"midpoints" : [  ]
								}

							}
, 							{
								"patchline" : 								{
									"source" : [ "obj-20", 0 ],
									"destination" : [ "obj-19", 0 ],
									"hidden" : 0,
									"midpoints" : [  ]
								}

							}
, 							{
								"patchline" : 								{
									"source" : [ "obj-24", 0 ],
									"destination" : [ "obj-21", 0 ],
									"hidden" : 0,
									"midpoints" : [  ]
								}

							}
 ]
					}
,
					"saved_object_attributes" : 					{
						"globalpatchername" : "",
						"fontface" : 0,
						"fontsize" : 10.0,
						"default_fontface" : 0,
						"default_fontname" : "Verdana",
						"fontname" : "Verdana",
						"default_fontsize" : 10.0
					}

				}

			}
, 			{
				"box" : 				{
					"maxclass" : "message",
					"text" : "open jcom.oscinstance reference",
					"numinlets" : 2,
					"numoutlets" : 1,
					"bgcolor2" : [ 0.698039, 0.698039, 0.698039, 0.0 ],
					"fontface" : 2,
					"fontsize" : 12.0,
					"outlettype" : [ "" ],
					"bgcolor" : [ 0.698039, 0.698039, 0.698039, 0.0 ],
					"gradient" : 0,
					"patching_rect" : [ 305.0, 35.0, 212.0, 19.0 ],
					"id" : "obj-17",
					"fontname" : "Verdana",
					"frozen_box_attributes" : [ "gradient" ]
				}

			}
, 			{
				"box" : 				{
					"maxclass" : "newobj",
					"text" : "loadmess set",
					"numinlets" : 1,
					"hidden" : 1,
					"numoutlets" : 1,
					"fontsize" : 10.0,
					"outlettype" : [ "" ],
					"patching_rect" : [ 335.0, 545.0, 76.0, 19.0 ],
					"id" : "obj-31",
					"fontname" : "Verdana"
				}

			}
, 			{
				"box" : 				{
					"maxclass" : "message",
					"numinlets" : 2,
					"numoutlets" : 1,
					"fontsize" : 10.0,
					"outlettype" : [ "" ],
					"patching_rect" : [ 210.0, 225.0, 100.0, 17.0 ],
					"id" : "obj-30",
					"fontname" : "Verdana"
				}

			}
, 			{
				"box" : 				{
					"maxclass" : "message",
					"numinlets" : 2,
					"numoutlets" : 1,
					"fontsize" : 10.0,
					"outlettype" : [ "" ],
					"patching_rect" : [ 105.0, 225.0, 100.0, 17.0 ],
					"id" : "obj-28",
					"fontname" : "Verdana"
				}

			}
, 			{
				"box" : 				{
					"maxclass" : "newobj",
					"text" : "jcom.oscinstance",
					"numinlets" : 1,
					"numoutlets" : 4,
					"fontsize" : 10.0,
					"outlettype" : [ "", "", "", "" ],
					"patching_rect" : [ 105.0, 165.0, 100.0, 19.0 ],
					"id" : "obj-29",
					"fontname" : "Verdana"
				}

			}
, 			{
				"box" : 				{
					"maxclass" : "message",
					"text" : "/speaker.16/xyz 5. 1. -0.2",
					"numinlets" : 2,
					"numoutlets" : 1,
					"fontsize" : 10.0,
					"outlettype" : [ "" ],
					"patching_rect" : [ 240.0, 130.0, 142.0, 17.0 ],
					"id" : "obj-26",
					"fontname" : "Verdana"
				}

			}
, 			{
				"box" : 				{
					"maxclass" : "message",
					"text" : "/channel.left/gain 100",
					"numinlets" : 2,
					"numoutlets" : 1,
					"fontsize" : 10.0,
					"outlettype" : [ "" ],
					"patching_rect" : [ 105.0, 130.0, 122.0, 17.0 ],
					"id" : "obj-25",
					"fontname" : "Verdana"
				}

			}
, 			{
				"box" : 				{
					"maxclass" : "comment",
					"text" : "OSC messages with no instance in the first branch, are passed to the rightmost outlet.",
					"linecount" : 2,
					"numinlets" : 1,
					"frgb" : [ 0.0, 0.0, 0.0, 1.0 ],
					"numoutlets" : 0,
					"fontsize" : 10.0,
					"patching_rect" : [ 105.0, 290.0, 280.0, 31.0 ],
					"id" : "obj-23",
					"fontname" : "Verdana"
				}

			}
, 			{
				"box" : 				{
					"maxclass" : "message",
					"text" : "/no/instances",
					"numinlets" : 2,
					"numoutlets" : 1,
					"fontsize" : 10.0,
					"outlettype" : [ "" ],
					"patching_rect" : [ 215.0, 330.0, 79.0, 17.0 ],
					"id" : "obj-22",
					"fontname" : "Verdana"
				}

			}
, 			{
				"box" : 				{
					"maxclass" : "message",
					"text" : "/fruit/apple.red 4",
					"numinlets" : 2,
					"numoutlets" : 1,
					"fontsize" : 10.0,
					"outlettype" : [ "" ],
					"patching_rect" : [ 105.0, 330.0, 98.0, 17.0 ],
					"id" : "obj-21",
					"fontname" : "Verdana"
				}

			}
, 			{
				"box" : 				{
					"maxclass" : "message",
					"numinlets" : 2,
					"numoutlets" : 1,
					"fontsize" : 10.0,
					"outlettype" : [ "" ],
					"patching_rect" : [ 105.0, 395.0, 100.0, 17.0 ],
					"id" : "obj-19",
					"fontname" : "Verdana"
				}

			}
, 			{
				"box" : 				{
					"maxclass" : "newobj",
					"text" : "jcom.oscinstance",
					"numinlets" : 1,
					"numoutlets" : 4,
					"fontsize" : 10.0,
					"outlettype" : [ "", "", "", "" ],
					"patching_rect" : [ 105.0, 365.0, 100.0, 19.0 ],
					"id" : "obj-20",
					"fontname" : "Verdana"
				}

			}
, 			{
				"box" : 				{
					"maxclass" : "comment",
					"text" : "Non-osc messages are passed to the rightmost outlet",
					"numinlets" : 1,
					"frgb" : [ 0.0, 0.0, 0.0, 1.0 ],
					"numoutlets" : 0,
					"fontsize" : 10.0,
					"patching_rect" : [ 105.0, 455.0, 280.0, 19.0 ],
					"id" : "obj-18",
					"fontname" : "Verdana"
				}

			}
, 			{
				"box" : 				{
					"maxclass" : "message",
					"numinlets" : 2,
					"numoutlets" : 1,
					"fontsize" : 10.0,
					"outlettype" : [ "" ],
					"patching_rect" : [ 105.0, 550.0, 100.0, 17.0 ],
					"id" : "obj-16",
					"fontname" : "Verdana"
				}

			}
, 			{
				"box" : 				{
					"maxclass" : "message",
					"text" : "1 2 3 a list",
					"numinlets" : 2,
					"numoutlets" : 1,
					"fontsize" : 10.0,
					"outlettype" : [ "" ],
					"patching_rect" : [ 360.0, 485.0, 64.0, 17.0 ],
					"id" : "obj-14",
					"fontname" : "Verdana"
				}

			}
, 			{
				"box" : 				{
					"maxclass" : "message",
					"text" : "non an osc message",
					"numinlets" : 2,
					"numoutlets" : 1,
					"fontsize" : 10.0,
					"outlettype" : [ "" ],
					"patching_rect" : [ 240.0, 485.0, 113.0, 17.0 ],
					"id" : "obj-12",
					"fontname" : "Verdana"
				}

			}
, 			{
				"box" : 				{
					"maxclass" : "number",
					"numinlets" : 1,
					"numoutlets" : 2,
					"fontsize" : 10.0,
					"outlettype" : [ "int", "bang" ],
					"patching_rect" : [ 130.0, 485.0, 50.0, 19.0 ],
					"id" : "obj-10",
					"fontname" : "Verdana"
				}

			}
, 			{
				"box" : 				{
					"maxclass" : "flonum",
					"numinlets" : 1,
					"numoutlets" : 2,
					"fontsize" : 10.0,
					"outlettype" : [ "float", "bang" ],
					"patching_rect" : [ 185.0, 485.0, 50.0, 19.0 ],
					"id" : "obj-8",
					"fontname" : "Verdana"
				}

			}
, 			{
				"box" : 				{
					"maxclass" : "newobj",
					"text" : "jcom.oscinstance",
					"numinlets" : 1,
					"numoutlets" : 4,
					"fontsize" : 10.0,
					"outlettype" : [ "", "", "", "" ],
					"patching_rect" : [ 105.0, 520.0, 100.0, 19.0 ],
					"id" : "obj-6",
					"fontname" : "Verdana"
				}

			}
, 			{
				"box" : 				{
					"maxclass" : "comment",
					"text" : "retrieve the instance addressed in OSC messages",
					"numinlets" : 1,
					"frgb" : [ 0.0, 0.0, 0.0, 1.0 ],
					"numoutlets" : 0,
					"fontsize" : 10.0,
					"patching_rect" : [ 20.0, 50.0, 278.0, 19.0 ],
					"id" : "obj-5",
					"fontname" : "Verdana"
				}

			}
, 			{
				"box" : 				{
					"maxclass" : "comment",
					"text" : "jcom.oscinstance",
					"numinlets" : 1,
					"frgb" : [ 0.0, 0.0, 0.0, 1.0 ],
					"numoutlets" : 0,
					"fontsize" : 18.0,
					"patching_rect" : [ 20.0, 20.0, 259.0, 28.0 ],
					"id" : "obj-3",
					"fontname" : "Verdana"
				}

			}
, 			{
				"box" : 				{
					"maxclass" : "panel",
					"numinlets" : 1,
					"numoutlets" : 0,
					"patching_rect" : [ 10.0, 10.0, 510.0, 65.0 ],
					"id" : "obj-1",
					"rounded" : 15
				}

			}
 ],
		"lines" : [ 			{
				"patchline" : 				{
					"source" : [ "obj-31", 0 ],
					"destination" : [ "obj-2", 0 ],
					"hidden" : 1,
					"midpoints" : [  ]
				}

			}
, 			{
				"patchline" : 				{
					"source" : [ "obj-29", 2 ],
					"destination" : [ "obj-2", 1 ],
					"hidden" : 0,
					"midpoints" : [ 168.5, 202.0, 410.5, 202.0 ]
				}

			}
, 			{
				"patchline" : 				{
					"source" : [ "obj-6", 3 ],
					"destination" : [ "obj-16", 1 ],
					"hidden" : 0,
					"midpoints" : [  ]
				}

			}
, 			{
				"patchline" : 				{
					"source" : [ "obj-20", 3 ],
					"destination" : [ "obj-19", 1 ],
					"hidden" : 0,
					"midpoints" : [  ]
				}

			}
, 			{
				"patchline" : 				{
					"source" : [ "obj-17", 0 ],
					"destination" : [ "obj-37", 0 ],
					"hidden" : 1,
					"midpoints" : [  ]
				}

			}
, 			{
				"patchline" : 				{
					"source" : [ "obj-31", 0 ],
					"destination" : [ "obj-16", 0 ],
					"hidden" : 1,
					"midpoints" : [  ]
				}

			}
, 			{
				"patchline" : 				{
					"source" : [ "obj-31", 0 ],
					"destination" : [ "obj-19", 0 ],
					"hidden" : 1,
					"midpoints" : [  ]
				}

			}
, 			{
				"patchline" : 				{
					"source" : [ "obj-31", 0 ],
					"destination" : [ "obj-28", 0 ],
					"hidden" : 1,
					"midpoints" : [  ]
				}

			}
, 			{
				"patchline" : 				{
					"source" : [ "obj-31", 0 ],
					"destination" : [ "obj-30", 0 ],
					"hidden" : 1,
					"midpoints" : [  ]
				}

			}
, 			{
				"patchline" : 				{
					"source" : [ "obj-29", 1 ],
					"destination" : [ "obj-30", 1 ],
					"hidden" : 0,
					"midpoints" : [ 141.5, 210.0, 300.5, 210.0 ]
				}

			}
, 			{
				"patchline" : 				{
					"source" : [ "obj-29", 0 ],
					"destination" : [ "obj-28", 1 ],
					"hidden" : 0,
					"midpoints" : [ 114.5, 218.0, 195.5, 218.0 ]
				}

			}
, 			{
				"patchline" : 				{
					"source" : [ "obj-26", 0 ],
					"destination" : [ "obj-29", 0 ],
					"hidden" : 0,
					"midpoints" : [ 249.5, 159.0, 114.5, 159.0 ]
				}

			}
, 			{
				"patchline" : 				{
					"source" : [ "obj-25", 0 ],
					"destination" : [ "obj-29", 0 ],
					"hidden" : 0,
					"midpoints" : [  ]
				}

			}
, 			{
				"patchline" : 				{
					"source" : [ "obj-22", 0 ],
					"destination" : [ "obj-20", 0 ],
					"hidden" : 0,
					"midpoints" : [ 224.5, 360.0, 114.5, 360.0 ]
				}

			}
, 			{
				"patchline" : 				{
					"source" : [ "obj-21", 0 ],
					"destination" : [ "obj-20", 0 ],
					"hidden" : 0,
					"midpoints" : [  ]
				}

			}
, 			{
				"patchline" : 				{
					"source" : [ "obj-14", 0 ],
					"destination" : [ "obj-6", 0 ],
					"hidden" : 0,
					"midpoints" : [ 369.5, 516.0, 114.5, 516.0 ]
				}

			}
, 			{
				"patchline" : 				{
					"source" : [ "obj-12", 0 ],
					"destination" : [ "obj-6", 0 ],
					"hidden" : 0,
					"midpoints" : [ 249.5, 516.0, 114.5, 516.0 ]
				}

			}
, 			{
				"patchline" : 				{
					"source" : [ "obj-8", 0 ],
					"destination" : [ "obj-6", 0 ],
					"hidden" : 0,
					"midpoints" : [ 194.5, 516.0, 126.0, 516.0, 126.0, 516.0, 114.5, 516.0 ]
				}

			}
, 			{
				"patchline" : 				{
					"source" : [ "obj-10", 0 ],
					"destination" : [ "obj-6", 0 ],
					"hidden" : 0,
					"midpoints" : [ 139.5, 504.0, 139.0, 504.0, 139.0, 516.0, 114.5, 516.0 ]
				}

			}
, 			{
				"patchline" : 				{
					"source" : [ "obj-4", 0 ],
					"destination" : [ "obj-6", 0 ],
					"hidden" : 0,
					"midpoints" : [ 114.5, 507.0, 114.5, 507.0 ]
				}

			}
 ]
	}

}
