{
	"patcher" : 	{
		"fileversion" : 1,
		"rect" : [ 118.0, 162.0, 1287.0, 662.0 ],
		"bglocked" : 0,
		"defrect" : [ 118.0, 162.0, 1287.0, 662.0 ],
		"openrect" : [ 0.0, 0.0, 0.0, 0.0 ],
		"openinpresentation" : 0,
		"default_fontsize" : 10.0,
		"default_fontface" : 0,
		"default_fontname" : "Verdana",
		"gridonopen" : 0,
		"gridsize" : [ 5.0, 5.0 ],
		"gridsnaponopen" : 0,
		"toolbarvisible" : 1,
		"boxanimatetime" : 200,
		"imprint" : 0,
		"metadata" : [  ],
		"boxes" : [ 			{
				"box" : 				{
					"maxclass" : "message",
					"text" : "getdrive",
					"patching_rect" : [ 320.0, 255.0, 52.0, 17.0 ],
					"id" : "obj-50",
					"fontname" : "Verdana",
					"numinlets" : 2,
					"fontsize" : 10.0,
					"numoutlets" : 1,
					"outlettype" : [ "" ]
				}

			}
, 			{
				"box" : 				{
					"maxclass" : "comment",
					"text" : "More on available ramp units and parameters specific to each of them:",
					"linecount" : 3,
					"patching_rect" : [ 895.0, 215.0, 175.0, 43.0 ],
					"frgb" : [ 0.933333, 0.937255, 0.968627, 1.0 ],
					"id" : "obj-47",
					"fontname" : "Verdana",
					"numinlets" : 1,
					"fontsize" : 10.0,
					"numoutlets" : 0
				}

			}
, 			{
				"box" : 				{
					"maxclass" : "newobj",
					"text" : "loadmess set scheduler",
					"hidden" : 1,
					"patching_rect" : [ 605.0, 115.0, 128.0, 19.0 ],
					"id" : "obj-45",
					"fontname" : "Verdana",
					"numinlets" : 1,
					"fontsize" : 10.0,
					"numoutlets" : 1,
					"outlettype" : [ "" ]
				}

			}
, 			{
				"box" : 				{
					"maxclass" : "newobj",
					"text" : "p openReference",
					"hidden" : 1,
					"patching_rect" : [ 385.0, 60.0, 95.0, 19.0 ],
					"id" : "obj-43",
					"fontname" : "Verdana",
					"numinlets" : 1,
					"fontsize" : 10.0,
					"numoutlets" : 0,
					"patcher" : 					{
						"fileversion" : 1,
						"rect" : [ 75.0, 119.0, 262.0, 204.0 ],
						"bglocked" : 0,
						"defrect" : [ 75.0, 119.0, 262.0, 204.0 ],
						"openrect" : [ 0.0, 0.0, 0.0, 0.0 ],
						"openinpresentation" : 0,
						"default_fontsize" : 10.0,
						"default_fontface" : 0,
						"default_fontname" : "Verdana",
						"gridonopen" : 0,
						"gridsize" : [ 5.0, 5.0 ],
						"gridsnaponopen" : 0,
						"toolbarvisible" : 1,
						"boxanimatetime" : 200,
						"imprint" : 0,
						"metadata" : [  ],
						"boxes" : [ 							{
								"box" : 								{
									"maxclass" : "newobj",
									"text" : "zl nth 2",
									"patching_rect" : [ 55.0, 70.0, 48.0, 19.0 ],
									"id" : "obj-21",
									"fontname" : "Verdana",
									"numinlets" : 2,
									"fontsize" : 10.0,
									"numoutlets" : 2,
									"outlettype" : [ "", "" ]
								}

							}
, 							{
								"box" : 								{
									"maxclass" : "newobj",
									"text" : "sprintf load %s.maxref.xml",
									"patching_rect" : [ 55.0, 95.0, 147.0, 19.0 ],
									"id" : "obj-20",
									"fontname" : "Verdana",
									"numinlets" : 1,
									"fontsize" : 10.0,
									"numoutlets" : 1,
									"outlettype" : [ "" ]
								}

							}
, 							{
								"box" : 								{
									"maxclass" : "newobj",
									"text" : "pcontrol",
									"patching_rect" : [ 55.0, 120.0, 51.0, 19.0 ],
									"id" : "obj-19",
									"fontname" : "Verdana",
									"numinlets" : 1,
									"fontsize" : 10.0,
									"numoutlets" : 1,
									"outlettype" : [ "" ]
								}

							}
, 							{
								"box" : 								{
									"maxclass" : "inlet",
									"patching_rect" : [ 55.0, 40.0, 25.0, 25.0 ],
									"id" : "obj-24",
									"numinlets" : 0,
									"numoutlets" : 1,
									"outlettype" : [ "" ],
									"comment" : ""
								}

							}
 ],
						"lines" : [ 							{
								"patchline" : 								{
									"source" : [ "obj-24", 0 ],
									"destination" : [ "obj-21", 0 ],
									"hidden" : 0,
									"midpoints" : [  ]
								}

							}
, 							{
								"patchline" : 								{
									"source" : [ "obj-20", 0 ],
									"destination" : [ "obj-19", 0 ],
									"hidden" : 0,
									"midpoints" : [  ]
								}

							}
, 							{
								"patchline" : 								{
									"source" : [ "obj-21", 0 ],
									"destination" : [ "obj-20", 0 ],
									"hidden" : 0,
									"midpoints" : [  ]
								}

							}
 ]
					}
,
					"saved_object_attributes" : 					{
						"fontname" : "Verdana",
						"default_fontface" : 0,
						"globalpatchername" : "",
						"default_fontname" : "Verdana",
						"fontface" : 0,
						"fontsize" : 10.0,
						"default_fontsize" : 10.0
					}

				}

			}
, 			{
				"box" : 				{
					"maxclass" : "message",
					"text" : "open jcom.ramp reference",
					"gradient" : 0,
					"patching_rect" : [ 385.0, 35.0, 171.0, 19.0 ],
					"id" : "obj-44",
					"fontname" : "Verdana",
					"bgcolor" : [ 0.698039, 0.698039, 0.698039, 0.0 ],
					"numinlets" : 2,
					"fontface" : 2,
					"fontsize" : 12.0,
					"numoutlets" : 1,
					"bgcolor2" : [ 0.698039, 0.698039, 0.698039, 0.0 ],
					"outlettype" : [ "" ],
					"frozen_box_attributes" : [ "gradient" ]
				}

			}
, 			{
				"box" : 				{
					"maxclass" : "message",
					"text" : "getfunction",
					"patching_rect" : [ 5.0, 260.0, 75.0, 17.0 ],
					"id" : "obj-1",
					"fontname" : "Verdana",
					"numinlets" : 2,
					"fontsize" : 10.0,
					"numoutlets" : 1,
					"outlettype" : [ "" ]
				}

			}
, 			{
				"box" : 				{
					"maxclass" : "number",
					"patching_rect" : [ 653.0, 258.0, 35.0, 18.0 ],
					"id" : "obj-2",
					"fontname" : "Arial",
					"numinlets" : 1,
					"fontsize" : 10.0,
					"numoutlets" : 2,
					"triscale" : 0.9,
					"outlettype" : [ "int", "bang" ]
				}

			}
, 			{
				"box" : 				{
					"maxclass" : "newobj",
					"text" : "setclock test",
					"patching_rect" : [ 653.0, 281.0, 85.0, 19.0 ],
					"id" : "obj-3",
					"fontname" : "Verdana",
					"numinlets" : 2,
					"fontsize" : 10.0,
					"numoutlets" : 1,
					"outlettype" : [ "" ]
				}

			}
, 			{
				"box" : 				{
					"maxclass" : "message",
					"text" : "clock test",
					"patching_rect" : [ 0.0, 195.0, 67.0, 17.0 ],
					"id" : "obj-4",
					"fontname" : "Verdana",
					"numinlets" : 2,
					"fontsize" : 10.0,
					"numoutlets" : 1,
					"outlettype" : [ "" ]
				}

			}
, 			{
				"box" : 				{
					"maxclass" : "multislider",
					"candycane" : 2,
					"patching_rect" : [ 76.0, 422.0, 108.0, 159.0 ],
					"candicane2" : [ 0.145098, 0.203922, 0.356863, 1.0 ],
					"candicane6" : [ 0.733333, 0.035294, 0.788235, 1.0 ],
					"id" : "obj-5",
					"candicane8" : [ 0.027451, 0.447059, 0.501961, 1.0 ],
					"numinlets" : 1,
					"ghostbar" : 50,
					"candicane3" : [ 0.290196, 0.411765, 0.713726, 1.0 ],
					"candicane5" : [ 0.584314, 0.827451, 0.431373, 1.0 ],
					"size" : 2,
					"numoutlets" : 2,
					"setminmax" : [ 0.0, 15000.0 ],
					"peakcolor" : [ 0.498039, 0.498039, 0.498039, 1.0 ],
					"candicane7" : [ 0.878431, 0.243137, 0.145098, 1.0 ],
					"outlettype" : [ "", "" ],
					"candicane4" : [ 0.439216, 0.619608, 0.070588, 1.0 ]
				}

			}
, 			{
				"box" : 				{
					"maxclass" : "message",
					"text" : "current.parameter granularity 200.",
					"linecount" : 2,
					"patching_rect" : [ 155.0, 290.0, 120.0, 29.0 ],
					"id" : "obj-6",
					"fontname" : "Verdana",
					"numinlets" : 2,
					"fontsize" : 10.0,
					"numoutlets" : 1,
					"outlettype" : [ "" ]
				}

			}
, 			{
				"box" : 				{
					"maxclass" : "newobj",
					"text" : "loadmess set linear",
					"hidden" : 1,
					"patching_rect" : [ 725.0, 115.0, 121.0, 19.0 ],
					"id" : "obj-8",
					"fontname" : "Verdana",
					"numinlets" : 1,
					"fontsize" : 10.0,
					"numoutlets" : 1,
					"outlettype" : [ "" ]
				}

			}
, 			{
				"box" : 				{
					"maxclass" : "comment",
					"text" : "When using an 'async' drive, output is only sent in response to a bang. This is particularly useful for fixed-time automation of parameters that are used with Jitter matric processing.",
					"linecount" : 8,
					"patching_rect" : [ 658.0, 307.0, 141.0, 104.0 ],
					"frgb" : [ 0.933333, 0.937255, 0.968627, 1.0 ],
					"id" : "obj-9",
					"fontname" : "Verdana",
					"numinlets" : 1,
					"fontsize" : 10.0,
					"numoutlets" : 0
				}

			}
, 			{
				"box" : 				{
					"maxclass" : "button",
					"patching_rect" : [ 640.0, 340.0, 20.0, 20.0 ],
					"id" : "obj-10",
					"numinlets" : 1,
					"numoutlets" : 1,
					"outlettype" : [ "bang" ]
				}

			}
, 			{
				"box" : 				{
					"maxclass" : "comment",
					"text" : "These should be retrieved and auto-populated from the object",
					"patching_rect" : [ 605.0, 80.0, 343.0, 19.0 ],
					"frgb" : [ 1.0, 0.098039, 0.098039, 1.0 ],
					"id" : "obj-12",
					"fontname" : "Verdana",
					"textcolor" : [ 1.0, 0.098039, 0.098039, 1.0 ],
					"numinlets" : 1,
					"fontsize" : 10.0,
					"numoutlets" : 0
				}

			}
, 			{
				"box" : 				{
					"maxclass" : "newobj",
					"text" : "p granularity",
					"patching_rect" : [ 915.0, 265.0, 88.0, 19.0 ],
					"id" : "obj-13",
					"fontname" : "Verdana",
					"numinlets" : 0,
					"fontsize" : 10.0,
					"numoutlets" : 0,
					"patcher" : 					{
						"fileversion" : 1,
						"rect" : [ 14.0, 59.0, 465.0, 312.0 ],
						"bglocked" : 0,
						"defrect" : [ 14.0, 59.0, 465.0, 312.0 ],
						"openrect" : [ 0.0, 0.0, 0.0, 0.0 ],
						"openinpresentation" : 0,
						"default_fontsize" : 10.0,
						"default_fontface" : 0,
						"default_fontname" : "Verdana",
						"gridonopen" : 0,
						"gridsize" : [ 5.0, 5.0 ],
						"gridsnaponopen" : 0,
						"toolbarvisible" : 1,
						"boxanimatetime" : 200,
						"imprint" : 0,
						"metadata" : [  ],
						"boxes" : [ 							{
								"box" : 								{
									"maxclass" : "newobj",
									"text" : "s ramp",
									"patching_rect" : [ 40.0, 232.0, 61.0, 19.0 ],
									"id" : "obj-1",
									"fontname" : "Verdana",
									"numinlets" : 1,
									"fontsize" : 10.0,
									"numoutlets" : 0
								}

							}
, 							{
								"box" : 								{
									"maxclass" : "comment",
									"text" : "<- set the value of an attribute (all drive methods may have different attributes)",
									"linecount" : 2,
									"patching_rect" : [ 212.0, 144.0, 217.0, 31.0 ],
									"frgb" : [ 0.933333, 0.937255, 0.968627, 1.0 ],
									"id" : "obj-2",
									"fontname" : "Verdana",
									"numinlets" : 1,
									"fontsize" : 10.0,
									"numoutlets" : 0
								}

							}
, 							{
								"box" : 								{
									"maxclass" : "comment",
									"text" : "<- get the value of an attribute (all rampunits may have different attributes)",
									"linecount" : 2,
									"patching_rect" : [ 213.0, 61.0, 214.0, 31.0 ],
									"frgb" : [ 0.933333, 0.937255, 0.968627, 1.0 ],
									"id" : "obj-3",
									"fontname" : "Verdana",
									"numinlets" : 1,
									"fontsize" : 10.0,
									"numoutlets" : 0
								}

							}
, 							{
								"box" : 								{
									"maxclass" : "message",
									"text" : "attrset granularity 200",
									"patching_rect" : [ 77.0, 160.0, 149.0, 17.0 ],
									"id" : "obj-4",
									"fontname" : "Verdana",
									"numinlets" : 2,
									"fontsize" : 10.0,
									"numoutlets" : 1,
									"outlettype" : [ "" ]
								}

							}
, 							{
								"box" : 								{
									"maxclass" : "message",
									"text" : "attrset granularity 20",
									"patching_rect" : [ 62.0, 140.0, 142.0, 17.0 ],
									"id" : "obj-5",
									"fontname" : "Verdana",
									"numinlets" : 2,
									"fontsize" : 10.0,
									"numoutlets" : 1,
									"outlettype" : [ "" ]
								}

							}
, 							{
								"box" : 								{
									"maxclass" : "comment",
									"text" : "set this with the granularity message...",
									"linecount" : 2,
									"patching_rect" : [ 59.0, 111.0, 175.0, 31.0 ],
									"frgb" : [ 0.933333, 0.937255, 0.968627, 1.0 ],
									"id" : "obj-6",
									"fontname" : "Verdana",
									"numinlets" : 1,
									"fontsize" : 10.0,
									"numoutlets" : 0
								}

							}
, 							{
								"box" : 								{
									"maxclass" : "message",
									"text" : "attrget granularity",
									"patching_rect" : [ 61.0, 58.0, 124.0, 17.0 ],
									"id" : "obj-7",
									"fontname" : "Verdana",
									"numinlets" : 2,
									"fontsize" : 10.0,
									"numoutlets" : 1,
									"outlettype" : [ "" ]
								}

							}
, 							{
								"box" : 								{
									"maxclass" : "comment",
									"text" : "the granularity of the ramp in ms",
									"linecount" : 2,
									"patching_rect" : [ 93.0, 78.0, 107.0, 31.0 ],
									"frgb" : [ 0.933333, 0.937255, 0.968627, 1.0 ],
									"id" : "obj-8",
									"fontname" : "Verdana",
									"numinlets" : 1,
									"fontsize" : 10.0,
									"numoutlets" : 0
								}

							}
 ],
						"lines" : [ 							{
								"patchline" : 								{
									"source" : [ "obj-4", 0 ],
									"destination" : [ "obj-1", 0 ],
									"hidden" : 0,
									"midpoints" : [  ]
								}

							}
, 							{
								"patchline" : 								{
									"source" : [ "obj-5", 0 ],
									"destination" : [ "obj-1", 0 ],
									"hidden" : 0,
									"midpoints" : [  ]
								}

							}
, 							{
								"patchline" : 								{
									"source" : [ "obj-7", 0 ],
									"destination" : [ "obj-1", 0 ],
									"hidden" : 0,
									"midpoints" : [  ]
								}

							}
 ]
					}
,
					"saved_object_attributes" : 					{
						"fontname" : "Verdana",
						"default_fontface" : 0,
						"globalpatchername" : "",
						"default_fontname" : "Verdana",
						"fontface" : 0,
						"fontsize" : 10.0,
						"default_fontsize" : 10.0
					}

				}

			}
, 			{
				"box" : 				{
					"maxclass" : "umenu",
					"types" : [  ],
					"patching_rect" : [ 725.0, 140.0, 100.0, 19.0 ],
					"id" : "obj-15",
					"fontname" : "Verdana",
					"numinlets" : 1,
					"fontsize" : 10.0,
					"numoutlets" : 3,
					"labelclick" : 1,
					"items" : [ "cosine", ",", "linear", ",", "lowpass", ",", "power", ",", "tanh" ],
					"outlettype" : [ "int", "", "" ]
				}

			}
, 			{
				"box" : 				{
					"maxclass" : "newobj",
					"text" : "prepend function",
					"patching_rect" : [ 725.0, 170.0, 105.0, 19.0 ],
					"id" : "obj-16",
					"fontname" : "Verdana",
					"numinlets" : 1,
					"fontsize" : 10.0,
					"numoutlets" : 1,
					"outlettype" : [ "" ]
				}

			}
, 			{
				"box" : 				{
					"maxclass" : "newobj",
					"text" : "r ramp",
					"patching_rect" : [ 90.0, 258.0, 50.0, 19.0 ],
					"id" : "obj-17",
					"fontname" : "Verdana",
					"numinlets" : 0,
					"fontsize" : 10.0,
					"numoutlets" : 1,
					"outlettype" : [ "" ]
				}

			}
, 			{
				"box" : 				{
					"maxclass" : "newobj",
					"text" : "p tanh",
					"patching_rect" : [ 915.0, 382.0, 46.0, 19.0 ],
					"id" : "obj-18",
					"fontname" : "Verdana",
					"numinlets" : 0,
					"fontsize" : 10.0,
					"numoutlets" : 0,
					"patcher" : 					{
						"fileversion" : 1,
						"rect" : [ 696.0, 44.0, 582.0, 263.0 ],
						"bglocked" : 0,
						"defrect" : [ 696.0, 44.0, 582.0, 263.0 ],
						"openrect" : [ 0.0, 0.0, 0.0, 0.0 ],
						"openinpresentation" : 0,
						"default_fontsize" : 10.0,
						"default_fontface" : 0,
						"default_fontname" : "Arial",
						"gridonopen" : 0,
						"gridsize" : [ 5.0, 5.0 ],
						"gridsnaponopen" : 0,
						"toolbarvisible" : 1,
						"boxanimatetime" : 200,
						"imprint" : 0,
						"metadata" : [  ],
						"boxes" : [ 							{
								"box" : 								{
									"maxclass" : "comment",
									"text" : "Offset of the symmetry point",
									"patching_rect" : [ 271.0, 109.0, 156.0, 19.0 ],
									"frgb" : [ 0.933333, 0.937255, 0.968627, 1.0 ],
									"id" : "obj-1",
									"fontname" : "Verdana",
									"numinlets" : 1,
									"fontsize" : 10.0,
									"numoutlets" : 0
								}

							}
, 							{
								"box" : 								{
									"maxclass" : "newobj",
									"text" : "prepend function.parameter.get",
									"patching_rect" : [ 195.0, 153.0, 190.0, 19.0 ],
									"id" : "obj-2",
									"fontname" : "Verdana",
									"numinlets" : 1,
									"fontsize" : 10.0,
									"numoutlets" : 1,
									"outlettype" : [ "" ]
								}

							}
, 							{
								"box" : 								{
									"maxclass" : "newobj",
									"text" : "prepend function.parameter",
									"patching_rect" : [ 50.0, 153.0, 170.0, 19.0 ],
									"id" : "obj-3",
									"fontname" : "Verdana",
									"numinlets" : 1,
									"fontsize" : 10.0,
									"numoutlets" : 1,
									"outlettype" : [ "" ]
								}

							}
, 							{
								"box" : 								{
									"maxclass" : "newobj",
									"text" : "s ramp",
									"patching_rect" : [ 50.0, 180.0, 50.0, 19.0 ],
									"id" : "obj-4",
									"fontname" : "Verdana",
									"numinlets" : 1,
									"fontsize" : 10.0,
									"numoutlets" : 0
								}

							}
, 							{
								"box" : 								{
									"maxclass" : "message",
									"text" : "offset",
									"patching_rect" : [ 218.0, 112.0, 46.0, 17.0 ],
									"id" : "obj-5",
									"fontname" : "Verdana",
									"numinlets" : 2,
									"fontsize" : 10.0,
									"numoutlets" : 1,
									"outlettype" : [ "" ]
								}

							}
, 							{
								"box" : 								{
									"maxclass" : "message",
									"text" : "width",
									"patching_rect" : [ 218.0, 57.0, 43.0, 17.0 ],
									"id" : "obj-6",
									"fontname" : "Verdana",
									"numinlets" : 2,
									"fontsize" : 10.0,
									"numoutlets" : 1,
									"outlettype" : [ "" ]
								}

							}
, 							{
								"box" : 								{
									"maxclass" : "flonum",
									"patching_rect" : [ 68.0, 92.0, 39.0, 19.0 ],
									"id" : "obj-7",
									"fontname" : "Verdana",
									"htextcolor" : [ 0.870588, 0.870588, 0.870588, 1.0 ],
									"bgcolor" : [ 0.866667, 0.866667, 0.866667, 1.0 ],
									"numinlets" : 1,
									"fontsize" : 10.0,
									"numoutlets" : 2,
									"triscale" : 0.9,
									"outlettype" : [ "float", "bang" ]
								}

							}
, 							{
								"box" : 								{
									"maxclass" : "flonum",
									"patching_rect" : [ 68.0, 34.0, 39.0, 19.0 ],
									"id" : "obj-8",
									"fontname" : "Verdana",
									"htextcolor" : [ 0.870588, 0.870588, 0.870588, 1.0 ],
									"bgcolor" : [ 0.866667, 0.866667, 0.866667, 1.0 ],
									"numinlets" : 1,
									"fontsize" : 10.0,
									"numoutlets" : 2,
									"triscale" : 0.9,
									"outlettype" : [ "float", "bang" ]
								}

							}
, 							{
								"box" : 								{
									"maxclass" : "newobj",
									"text" : "prepend offset",
									"patching_rect" : [ 68.0, 112.0, 93.0, 19.0 ],
									"id" : "obj-9",
									"fontname" : "Verdana",
									"numinlets" : 1,
									"fontsize" : 10.0,
									"numoutlets" : 1,
									"outlettype" : [ "" ]
								}

							}
, 							{
								"box" : 								{
									"maxclass" : "newobj",
									"text" : "prepend width",
									"patching_rect" : [ 68.0, 57.0, 92.0, 19.0 ],
									"id" : "obj-10",
									"fontname" : "Verdana",
									"numinlets" : 1,
									"fontsize" : 10.0,
									"numoutlets" : 1,
									"outlettype" : [ "" ]
								}

							}
, 							{
								"box" : 								{
									"maxclass" : "comment",
									"text" : "Width of the curve (describes the width of the section of the curve covering from -75% to +75%).",
									"linecount" : 2,
									"patching_rect" : [ 271.0, 39.0, 291.0, 31.0 ],
									"frgb" : [ 0.933333, 0.937255, 0.968627, 1.0 ],
									"id" : "obj-11",
									"fontname" : "Verdana",
									"numinlets" : 1,
									"fontsize" : 10.0,
									"numoutlets" : 0
								}

							}
 ],
						"lines" : [ 							{
								"patchline" : 								{
									"source" : [ "obj-10", 0 ],
									"destination" : [ "obj-3", 0 ],
									"hidden" : 0,
									"midpoints" : [ 77.5, 81.0, 59.5, 81.0 ]
								}

							}
, 							{
								"patchline" : 								{
									"source" : [ "obj-9", 0 ],
									"destination" : [ "obj-3", 0 ],
									"hidden" : 0,
									"midpoints" : [ 77.5, 141.0, 59.5, 141.0 ]
								}

							}
, 							{
								"patchline" : 								{
									"source" : [ "obj-3", 0 ],
									"destination" : [ "obj-4", 0 ],
									"hidden" : 0,
									"midpoints" : [  ]
								}

							}
, 							{
								"patchline" : 								{
									"source" : [ "obj-2", 0 ],
									"destination" : [ "obj-4", 0 ],
									"hidden" : 0,
									"midpoints" : [ 204.5, 176.0, 59.5, 176.0 ]
								}

							}
, 							{
								"patchline" : 								{
									"source" : [ "obj-8", 0 ],
									"destination" : [ "obj-10", 0 ],
									"hidden" : 0,
									"midpoints" : [  ]
								}

							}
, 							{
								"patchline" : 								{
									"source" : [ "obj-7", 0 ],
									"destination" : [ "obj-9", 0 ],
									"hidden" : 0,
									"midpoints" : [  ]
								}

							}
, 							{
								"patchline" : 								{
									"source" : [ "obj-6", 0 ],
									"destination" : [ "obj-2", 0 ],
									"hidden" : 0,
									"midpoints" : [ 227.5, 80.0, 204.5, 80.0 ]
								}

							}
, 							{
								"patchline" : 								{
									"source" : [ "obj-5", 0 ],
									"destination" : [ "obj-2", 0 ],
									"hidden" : 0,
									"midpoints" : [ 227.5, 141.0, 204.5, 141.0 ]
								}

							}
 ]
					}
,
					"saved_object_attributes" : 					{
						"fontname" : "Arial",
						"default_fontface" : 0,
						"globalpatchername" : "",
						"default_fontname" : "Arial",
						"fontface" : 0,
						"fontsize" : 10.0,
						"default_fontsize" : 10.0
					}

				}

			}
, 			{
				"box" : 				{
					"maxclass" : "newobj",
					"text" : "p lowpass",
					"patching_rect" : [ 915.0, 340.0, 65.0, 19.0 ],
					"id" : "obj-19",
					"fontname" : "Verdana",
					"numinlets" : 0,
					"fontsize" : 10.0,
					"numoutlets" : 0,
					"patcher" : 					{
						"fileversion" : 1,
						"rect" : [ 10.0, 59.0, 428.0, 221.0 ],
						"bglocked" : 0,
						"defrect" : [ 10.0, 59.0, 428.0, 221.0 ],
						"openrect" : [ 0.0, 0.0, 0.0, 0.0 ],
						"openinpresentation" : 0,
						"default_fontsize" : 10.0,
						"default_fontface" : 0,
						"default_fontname" : "Verdana",
						"gridonopen" : 0,
						"gridsize" : [ 5.0, 5.0 ],
						"gridsnaponopen" : 0,
						"toolbarvisible" : 1,
						"boxanimatetime" : 200,
						"imprint" : 0,
						"metadata" : [  ],
						"boxes" : [ 							{
								"box" : 								{
									"maxclass" : "message",
									"text" : "coefficient",
									"patching_rect" : [ 247.0, 78.0, 72.0, 17.0 ],
									"id" : "obj-1",
									"fontname" : "Verdana",
									"numinlets" : 2,
									"fontsize" : 10.0,
									"numoutlets" : 1,
									"outlettype" : [ "" ]
								}

							}
, 							{
								"box" : 								{
									"maxclass" : "newobj",
									"text" : "prepend function.parameter.get",
									"patching_rect" : [ 247.0, 99.0, 190.0, 19.0 ],
									"id" : "obj-2",
									"fontname" : "Verdana",
									"numinlets" : 1,
									"fontsize" : 10.0,
									"numoutlets" : 1,
									"outlettype" : [ "" ]
								}

							}
, 							{
								"box" : 								{
									"maxclass" : "newobj",
									"text" : "prepend function.parameter",
									"patching_rect" : [ 50.0, 99.0, 170.0, 19.0 ],
									"id" : "obj-3",
									"fontname" : "Verdana",
									"numinlets" : 1,
									"fontsize" : 10.0,
									"numoutlets" : 1,
									"outlettype" : [ "" ]
								}

							}
, 							{
								"box" : 								{
									"maxclass" : "newobj",
									"text" : "s ramp",
									"patching_rect" : [ 50.0, 126.0, 50.0, 19.0 ],
									"id" : "obj-4",
									"fontname" : "Verdana",
									"numinlets" : 1,
									"fontsize" : 10.0,
									"numoutlets" : 0
								}

							}
, 							{
								"box" : 								{
									"maxclass" : "flonum",
									"patching_rect" : [ 50.0, 57.0, 39.0, 19.0 ],
									"id" : "obj-5",
									"fontname" : "Verdana",
									"htextcolor" : [ 0.870588, 0.870588, 0.870588, 1.0 ],
									"bgcolor" : [ 0.866667, 0.866667, 0.866667, 1.0 ],
									"numinlets" : 1,
									"fontsize" : 10.0,
									"numoutlets" : 2,
									"triscale" : 0.9,
									"outlettype" : [ "float", "bang" ]
								}

							}
, 							{
								"box" : 								{
									"maxclass" : "message",
									"text" : "coefficient $1",
									"patching_rect" : [ 50.0, 78.0, 92.0, 17.0 ],
									"id" : "obj-6",
									"fontname" : "Verdana",
									"numinlets" : 2,
									"fontsize" : 10.0,
									"numoutlets" : 1,
									"outlettype" : [ "" ]
								}

							}
, 							{
								"box" : 								{
									"maxclass" : "comment",
									"text" : "Smoothing coefficient",
									"patching_rect" : [ 49.0, 37.0, 341.0, 19.0 ],
									"frgb" : [ 0.933333, 0.937255, 0.968627, 1.0 ],
									"id" : "obj-7",
									"fontname" : "Verdana",
									"numinlets" : 1,
									"fontsize" : 10.0,
									"numoutlets" : 0
								}

							}
 ],
						"lines" : [ 							{
								"patchline" : 								{
									"source" : [ "obj-5", 0 ],
									"destination" : [ "obj-6", 0 ],
									"hidden" : 0,
									"midpoints" : [  ]
								}

							}
, 							{
								"patchline" : 								{
									"source" : [ "obj-6", 0 ],
									"destination" : [ "obj-3", 0 ],
									"hidden" : 0,
									"midpoints" : [  ]
								}

							}
, 							{
								"patchline" : 								{
									"source" : [ "obj-2", 0 ],
									"destination" : [ "obj-4", 0 ],
									"hidden" : 0,
									"midpoints" : [ 256.5, 122.0, 59.5, 122.0 ]
								}

							}
, 							{
								"patchline" : 								{
									"source" : [ "obj-3", 0 ],
									"destination" : [ "obj-4", 0 ],
									"hidden" : 0,
									"midpoints" : [  ]
								}

							}
, 							{
								"patchline" : 								{
									"source" : [ "obj-1", 0 ],
									"destination" : [ "obj-2", 0 ],
									"hidden" : 0,
									"midpoints" : [  ]
								}

							}
 ]
					}
,
					"saved_object_attributes" : 					{
						"fontname" : "Verdana",
						"default_fontface" : 0,
						"globalpatchername" : "",
						"default_fontname" : "Verdana",
						"fontface" : 0,
						"fontsize" : 10.0,
						"default_fontsize" : 10.0
					}

				}

			}
, 			{
				"box" : 				{
					"maxclass" : "newobj",
					"text" : "p power",
					"patching_rect" : [ 915.0, 361.0, 56.0, 19.0 ],
					"id" : "obj-20",
					"fontname" : "Verdana",
					"numinlets" : 0,
					"fontsize" : 10.0,
					"numoutlets" : 0,
					"patcher" : 					{
						"fileversion" : 1,
						"rect" : [ 10.0, 59.0, 442.0, 279.0 ],
						"bglocked" : 0,
						"defrect" : [ 10.0, 59.0, 442.0, 279.0 ],
						"openrect" : [ 0.0, 0.0, 0.0, 0.0 ],
						"openinpresentation" : 0,
						"default_fontsize" : 10.0,
						"default_fontface" : 0,
						"default_fontname" : "Verdana",
						"gridonopen" : 0,
						"gridsize" : [ 5.0, 5.0 ],
						"gridsnaponopen" : 0,
						"toolbarvisible" : 1,
						"boxanimatetime" : 200,
						"imprint" : 0,
						"metadata" : [  ],
						"boxes" : [ 							{
								"box" : 								{
									"maxclass" : "message",
									"text" : "powerValue",
									"patching_rect" : [ 225.0, 65.0, 76.0, 17.0 ],
									"id" : "obj-1",
									"fontname" : "Verdana",
									"numinlets" : 2,
									"fontsize" : 10.0,
									"numoutlets" : 1,
									"outlettype" : [ "" ]
								}

							}
, 							{
								"box" : 								{
									"maxclass" : "message",
									"text" : "symmetry",
									"patching_rect" : [ 226.0, 121.0, 73.0, 17.0 ],
									"id" : "obj-2",
									"fontname" : "Verdana",
									"numinlets" : 2,
									"fontsize" : 10.0,
									"numoutlets" : 1,
									"outlettype" : [ "" ]
								}

							}
, 							{
								"box" : 								{
									"maxclass" : "newobj",
									"text" : "prepend function.parameter.get",
									"patching_rect" : [ 205.0, 160.0, 190.0, 19.0 ],
									"id" : "obj-3",
									"fontname" : "Verdana",
									"numinlets" : 1,
									"fontsize" : 10.0,
									"numoutlets" : 1,
									"outlettype" : [ "" ]
								}

							}
, 							{
								"box" : 								{
									"maxclass" : "newobj",
									"text" : "prepend function.parameter",
									"patching_rect" : [ 30.0, 160.0, 170.0, 19.0 ],
									"id" : "obj-4",
									"fontname" : "Verdana",
									"numinlets" : 1,
									"fontsize" : 10.0,
									"numoutlets" : 1,
									"outlettype" : [ "" ]
								}

							}
, 							{
								"box" : 								{
									"maxclass" : "newobj",
									"text" : "s ramp",
									"patching_rect" : [ 31.0, 190.0, 50.0, 19.0 ],
									"id" : "obj-5",
									"fontname" : "Verdana",
									"numinlets" : 1,
									"fontsize" : 10.0,
									"numoutlets" : 0
								}

							}
, 							{
								"box" : 								{
									"maxclass" : "umenu",
									"types" : [  ],
									"patching_rect" : [ 50.0, 95.0, 100.0, 19.0 ],
									"id" : "obj-6",
									"fontname" : "Verdana",
									"numinlets" : 1,
									"fontsize" : 10.0,
									"numoutlets" : 3,
									"labelclick" : 1,
									"items" : [ "none", ",", "point", ",", "axis" ],
									"outlettype" : [ "int", "", "" ]
								}

							}
, 							{
								"box" : 								{
									"maxclass" : "newobj",
									"text" : "prepend symmetry",
									"patching_rect" : [ 50.0, 125.0, 120.0, 19.0 ],
									"id" : "obj-7",
									"fontname" : "Verdana",
									"numinlets" : 1,
									"fontsize" : 10.0,
									"numoutlets" : 1,
									"outlettype" : [ "" ]
								}

							}
, 							{
								"box" : 								{
									"maxclass" : "flonum",
									"patching_rect" : [ 50.0, 45.0, 39.0, 19.0 ],
									"id" : "obj-8",
									"fontname" : "Verdana",
									"htextcolor" : [ 0.870588, 0.870588, 0.870588, 1.0 ],
									"bgcolor" : [ 0.866667, 0.866667, 0.866667, 1.0 ],
									"numinlets" : 1,
									"fontsize" : 10.0,
									"numoutlets" : 2,
									"triscale" : 0.9,
									"outlettype" : [ "float", "bang" ]
								}

							}
, 							{
								"box" : 								{
									"maxclass" : "message",
									"text" : "powerValue $1",
									"patching_rect" : [ 50.0, 70.0, 95.0, 17.0 ],
									"id" : "obj-9",
									"fontname" : "Verdana",
									"numinlets" : 2,
									"fontsize" : 10.0,
									"numoutlets" : 1,
									"outlettype" : [ "" ]
								}

							}
 ],
						"lines" : [ 							{
								"patchline" : 								{
									"source" : [ "obj-9", 0 ],
									"destination" : [ "obj-4", 0 ],
									"hidden" : 0,
									"midpoints" : [ 59.5, 88.0, 39.5, 88.0 ]
								}

							}
, 							{
								"patchline" : 								{
									"source" : [ "obj-7", 0 ],
									"destination" : [ "obj-4", 0 ],
									"hidden" : 0,
									"midpoints" : [ 59.5, 152.0, 39.5, 152.0 ]
								}

							}
, 							{
								"patchline" : 								{
									"source" : [ "obj-4", 0 ],
									"destination" : [ "obj-5", 0 ],
									"hidden" : 0,
									"midpoints" : [  ]
								}

							}
, 							{
								"patchline" : 								{
									"source" : [ "obj-3", 0 ],
									"destination" : [ "obj-5", 0 ],
									"hidden" : 0,
									"midpoints" : [ 214.5, 186.0, 40.5, 186.0 ]
								}

							}
, 							{
								"patchline" : 								{
									"source" : [ "obj-8", 0 ],
									"destination" : [ "obj-9", 0 ],
									"hidden" : 0,
									"midpoints" : [  ]
								}

							}
, 							{
								"patchline" : 								{
									"source" : [ "obj-6", 1 ],
									"destination" : [ "obj-7", 0 ],
									"hidden" : 0,
									"midpoints" : [ 100.0, 119.0, 59.5, 119.0 ]
								}

							}
, 							{
								"patchline" : 								{
									"source" : [ "obj-1", 0 ],
									"destination" : [ "obj-3", 0 ],
									"hidden" : 0,
									"midpoints" : [ 234.5, 86.0, 214.5, 86.0 ]
								}

							}
, 							{
								"patchline" : 								{
									"source" : [ "obj-2", 0 ],
									"destination" : [ "obj-3", 0 ],
									"hidden" : 0,
									"midpoints" : [ 235.5, 148.0, 214.5, 148.0 ]
								}

							}
 ]
					}
,
					"saved_object_attributes" : 					{
						"fontname" : "Verdana",
						"default_fontface" : 0,
						"globalpatchername" : "",
						"default_fontname" : "Verdana",
						"fontface" : 0,
						"fontsize" : 10.0,
						"default_fontsize" : 10.0
					}

				}

			}
, 			{
				"box" : 				{
					"maxclass" : "comment",
					"text" : "More on available function units and parameters specific to each of them:",
					"linecount" : 3,
					"patching_rect" : [ 895.0, 295.0, 175.0, 43.0 ],
					"frgb" : [ 0.933333, 0.937255, 0.968627, 1.0 ],
					"id" : "obj-21",
					"fontname" : "Verdana",
					"numinlets" : 1,
					"fontsize" : 10.0,
					"numoutlets" : 0
				}

			}
, 			{
				"box" : 				{
					"maxclass" : "comment",
					"text" : "jcom.ramp",
					"patching_rect" : [ 20.0, 20.0, 168.0, 28.0 ],
					"frgb" : [ 0.933333, 0.937255, 0.968627, 1.0 ],
					"id" : "obj-22",
					"fontname" : "Verdana",
					"numinlets" : 1,
					"fontsize" : 18.0,
					"numoutlets" : 0
				}

			}
, 			{
				"box" : 				{
					"maxclass" : "comment",
					"text" : "ramping from a value to another... with some extra features....",
					"patching_rect" : [ 20.0, 50.0, 328.0, 19.0 ],
					"frgb" : [ 0.933333, 0.937255, 0.968627, 1.0 ],
					"id" : "obj-23",
					"fontname" : "Verdana",
					"numinlets" : 1,
					"fontsize" : 10.0,
					"numoutlets" : 0
				}

			}
, 			{
				"box" : 				{
					"maxclass" : "panel",
					"patching_rect" : [ 10.0, 10.0, 565.0, 65.0 ],
					"id" : "obj-24",
					"rounded" : 15,
					"numinlets" : 1,
					"numoutlets" : 0
				}

			}
, 			{
				"box" : 				{
					"maxclass" : "multislider",
					"patching_rect" : [ 210.0, 422.0, 457.0, 159.0 ],
					"candicane2" : [ 0.145098, 0.203922, 0.356863, 1.0 ],
					"candicane6" : [ 0.733333, 0.035294, 0.788235, 1.0 ],
					"id" : "obj-25",
					"candicane8" : [ 0.027451, 0.447059, 0.501961, 1.0 ],
					"numinlets" : 1,
					"candicane3" : [ 0.290196, 0.411765, 0.713726, 1.0 ],
					"candicane5" : [ 0.584314, 0.827451, 0.431373, 1.0 ],
					"numoutlets" : 2,
					"setminmax" : [ 0.0, 15000.0 ],
					"peakcolor" : [ 0.498039, 0.498039, 0.498039, 1.0 ],
					"candicane7" : [ 0.878431, 0.243137, 0.145098, 1.0 ],
					"setstyle" : 4,
					"outlettype" : [ "", "" ],
					"candicane4" : [ 0.439216, 0.619608, 0.070588, 1.0 ]
				}

			}
, 			{
				"box" : 				{
					"maxclass" : "message",
					"text" : "7000 12220 ramp 10000",
					"patching_rect" : [ 370.0, 115.0, 159.0, 17.0 ],
					"id" : "obj-26",
					"fontname" : "Verdana",
					"numinlets" : 2,
					"fontsize" : 10.0,
					"numoutlets" : 1,
					"outlettype" : [ "" ]
				}

			}
, 			{
				"box" : 				{
					"maxclass" : "message",
					"text" : "set 14900 107",
					"patching_rect" : [ 400.0, 160.0, 97.0, 17.0 ],
					"id" : "obj-27",
					"fontname" : "Verdana",
					"numinlets" : 2,
					"fontsize" : 10.0,
					"numoutlets" : 1,
					"outlettype" : [ "" ]
				}

			}
, 			{
				"box" : 				{
					"maxclass" : "comment",
					"text" : "list support",
					"patching_rect" : [ 375.0, 95.0, 130.0, 19.0 ],
					"frgb" : [ 0.933333, 0.937255, 0.968627, 1.0 ],
					"id" : "obj-28",
					"fontname" : "Verdana",
					"numinlets" : 1,
					"fontsize" : 10.0,
					"numoutlets" : 0
				}

			}
, 			{
				"box" : 				{
					"maxclass" : "message",
					"text" : "13 27",
					"patching_rect" : [ 415.0, 180.0, 45.0, 17.0 ],
					"id" : "obj-29",
					"fontname" : "Verdana",
					"numinlets" : 2,
					"fontsize" : 10.0,
					"numoutlets" : 1,
					"outlettype" : [ "" ]
				}

			}
, 			{
				"box" : 				{
					"maxclass" : "message",
					"text" : "20 40 ramp 500",
					"patching_rect" : [ 385.0, 140.0, 106.0, 17.0 ],
					"id" : "obj-30",
					"fontname" : "Verdana",
					"numinlets" : 2,
					"fontsize" : 10.0,
					"numoutlets" : 1,
					"outlettype" : [ "" ]
				}

			}
, 			{
				"box" : 				{
					"maxclass" : "newobj",
					"text" : "route list",
					"patching_rect" : [ 75.0, 335.0, 154.0, 19.0 ],
					"id" : "obj-31",
					"fontname" : "Verdana",
					"numinlets" : 1,
					"fontsize" : 10.0,
					"numoutlets" : 2,
					"outlettype" : [ "", "" ]
				}

			}
, 			{
				"box" : 				{
					"maxclass" : "newobj",
					"text" : "prepend drive",
					"patching_rect" : [ 605.0, 170.0, 109.0, 19.0 ],
					"id" : "obj-32",
					"fontname" : "Verdana",
					"numinlets" : 1,
					"fontsize" : 10.0,
					"numoutlets" : 1,
					"outlettype" : [ "" ]
				}

			}
, 			{
				"box" : 				{
					"maxclass" : "umenu",
					"types" : [  ],
					"patching_rect" : [ 605.0, 140.0, 100.0, 19.0 ],
					"id" : "obj-34",
					"fontname" : "Verdana",
					"numinlets" : 1,
					"fontsize" : 10.0,
					"numoutlets" : 3,
					"labelclick" : 1,
					"items" : [ "none", ",", "async", ",", "queue", ",", "scheduler" ],
					"outlettype" : [ "int", "", "" ]
				}

			}
, 			{
				"box" : 				{
					"maxclass" : "message",
					"text" : "set 4000",
					"patching_rect" : [ 90.0, 140.0, 64.0, 17.0 ],
					"id" : "obj-35",
					"fontname" : "Verdana",
					"numinlets" : 2,
					"fontsize" : 10.0,
					"numoutlets" : 1,
					"outlettype" : [ "" ]
				}

			}
, 			{
				"box" : 				{
					"maxclass" : "comment",
					"text" : "set the current value",
					"linecount" : 2,
					"patching_rect" : [ 105.0, 160.0, 75.0, 31.0 ],
					"frgb" : [ 0.933333, 0.937255, 0.968627, 1.0 ],
					"id" : "obj-36",
					"fontname" : "Verdana",
					"numinlets" : 1,
					"fontsize" : 10.0,
					"numoutlets" : 0
				}

			}
, 			{
				"box" : 				{
					"maxclass" : "message",
					"text" : "0, 15000 ramp 10000",
					"patching_rect" : [ 75.0, 115.0, 142.0, 17.0 ],
					"id" : "obj-37",
					"fontname" : "Verdana",
					"numinlets" : 2,
					"fontsize" : 10.0,
					"numoutlets" : 1,
					"outlettype" : [ "" ]
				}

			}
, 			{
				"box" : 				{
					"maxclass" : "flonum",
					"patching_rect" : [ 210.0, 365.0, 54.0, 18.0 ],
					"id" : "obj-38",
					"fontname" : "Arial",
					"numinlets" : 1,
					"fontsize" : 10.0,
					"numoutlets" : 2,
					"triscale" : 0.9,
					"outlettype" : [ "float", "bang" ]
				}

			}
, 			{
				"box" : 				{
					"maxclass" : "message",
					"text" : "0 ramp 500",
					"patching_rect" : [ 220.0, 115.0, 102.0, 17.0 ],
					"id" : "obj-39",
					"fontname" : "Verdana",
					"numinlets" : 2,
					"fontsize" : 10.0,
					"numoutlets" : 1,
					"outlettype" : [ "" ]
				}

			}
, 			{
				"box" : 				{
					"maxclass" : "newobj",
					"text" : "jcom.ramp",
					"patching_rect" : [ 75.0, 290.0, 73.0, 19.0 ],
					"id" : "obj-40",
					"fontname" : "Verdana",
					"numinlets" : 1,
					"fontsize" : 10.0,
					"numoutlets" : 2,
					"outlettype" : [ "", "" ]
				}

			}
, 			{
				"box" : 				{
					"maxclass" : "comment",
					"text" : "ramp to a new value",
					"patching_rect" : [ 75.0, 95.0, 131.0, 19.0 ],
					"frgb" : [ 0.933333, 0.937255, 0.968627, 1.0 ],
					"id" : "obj-41",
					"fontname" : "Verdana",
					"numinlets" : 1,
					"fontsize" : 10.0,
					"numoutlets" : 0
				}

			}
, 			{
				"box" : 				{
					"maxclass" : "comment",
					"text" : "Choose from among the available ramp drive methods and functions",
					"patching_rect" : [ 605.0, 100.0, 363.0, 19.0 ],
					"frgb" : [ 0.933333, 0.937255, 0.968627, 1.0 ],
					"id" : "obj-42",
					"fontname" : "Verdana",
					"numinlets" : 1,
					"fontsize" : 10.0,
					"numoutlets" : 0
				}

			}
 ],
		"lines" : [ 			{
				"patchline" : 				{
					"source" : [ "obj-50", 0 ],
					"destination" : [ "obj-40", 0 ],
					"hidden" : 0,
					"midpoints" : [  ]
				}

			}
, 			{
				"patchline" : 				{
					"source" : [ "obj-40", 1 ],
					"destination" : [ "obj-6", 1 ],
					"hidden" : 0,
					"midpoints" : [ 138.5, 314.0, 150.0, 314.0, 150.0, 286.0, 265.5, 286.0 ]
				}

			}
, 			{
				"patchline" : 				{
					"source" : [ "obj-45", 0 ],
					"destination" : [ "obj-34", 0 ],
					"hidden" : 1,
					"midpoints" : [  ]
				}

			}
, 			{
				"patchline" : 				{
					"source" : [ "obj-44", 0 ],
					"destination" : [ "obj-43", 0 ],
					"hidden" : 1,
					"midpoints" : [  ]
				}

			}
, 			{
				"patchline" : 				{
					"source" : [ "obj-1", 0 ],
					"destination" : [ "obj-40", 0 ],
					"hidden" : 0,
					"midpoints" : [  ]
				}

			}
, 			{
				"patchline" : 				{
					"source" : [ "obj-4", 0 ],
					"destination" : [ "obj-40", 0 ],
					"hidden" : 0,
					"midpoints" : [  ]
				}

			}
, 			{
				"patchline" : 				{
					"source" : [ "obj-16", 0 ],
					"destination" : [ "obj-40", 0 ],
					"hidden" : 0,
					"midpoints" : [ 734.5, 238.0, 84.5, 238.0 ]
				}

			}
, 			{
				"patchline" : 				{
					"source" : [ "obj-17", 0 ],
					"destination" : [ "obj-40", 0 ],
					"hidden" : 0,
					"midpoints" : [ 99.5, 281.0, 84.5, 281.0 ]
				}

			}
, 			{
				"patchline" : 				{
					"source" : [ "obj-32", 0 ],
					"destination" : [ "obj-40", 0 ],
					"hidden" : 0,
					"midpoints" : [ 614.5, 238.0, 84.5, 238.0 ]
				}

			}
, 			{
				"patchline" : 				{
					"source" : [ "obj-27", 0 ],
					"destination" : [ "obj-40", 0 ],
					"hidden" : 0,
					"midpoints" : [ 409.5, 209.0, 84.5, 209.0 ]
				}

			}
, 			{
				"patchline" : 				{
					"source" : [ "obj-29", 0 ],
					"destination" : [ "obj-40", 0 ],
					"hidden" : 0,
					"midpoints" : [ 424.5, 209.0, 84.5, 209.0 ]
				}

			}
, 			{
				"patchline" : 				{
					"source" : [ "obj-30", 0 ],
					"destination" : [ "obj-40", 0 ],
					"hidden" : 0,
					"midpoints" : [ 394.5, 209.0, 84.5, 209.0 ]
				}

			}
, 			{
				"patchline" : 				{
					"source" : [ "obj-37", 0 ],
					"destination" : [ "obj-40", 0 ],
					"hidden" : 0,
					"midpoints" : [ 84.5, 192.0, 84.5, 192.0 ]
				}

			}
, 			{
				"patchline" : 				{
					"source" : [ "obj-39", 0 ],
					"destination" : [ "obj-40", 0 ],
					"hidden" : 0,
					"midpoints" : [ 229.5, 201.0, 84.5, 201.0 ]
				}

			}
, 			{
				"patchline" : 				{
					"source" : [ "obj-35", 0 ],
					"destination" : [ "obj-40", 0 ],
					"hidden" : 0,
					"midpoints" : [ 99.5, 201.0, 84.5, 201.0 ]
				}

			}
, 			{
				"patchline" : 				{
					"source" : [ "obj-26", 0 ],
					"destination" : [ "obj-40", 0 ],
					"hidden" : 0,
					"midpoints" : [ 379.5, 209.0, 84.5, 209.0 ]
				}

			}
, 			{
				"patchline" : 				{
					"source" : [ "obj-10", 0 ],
					"destination" : [ "obj-40", 0 ],
					"hidden" : 0,
					"midpoints" : [ 649.5, 404.0, 336.0, 404.0, 336.0, 283.0, 84.5, 283.0 ]
				}

			}
, 			{
				"patchline" : 				{
					"source" : [ "obj-40", 0 ],
					"destination" : [ "obj-31", 0 ],
					"hidden" : 0,
					"midpoints" : [  ]
				}

			}
, 			{
				"patchline" : 				{
					"source" : [ "obj-31", 0 ],
					"destination" : [ "obj-5", 0 ],
					"hidden" : 0,
					"midpoints" : [  ]
				}

			}
, 			{
				"patchline" : 				{
					"source" : [ "obj-31", 1 ],
					"destination" : [ "obj-38", 0 ],
					"hidden" : 0,
					"midpoints" : [  ]
				}

			}
, 			{
				"patchline" : 				{
					"source" : [ "obj-38", 0 ],
					"destination" : [ "obj-25", 0 ],
					"hidden" : 0,
					"midpoints" : [  ]
				}

			}
, 			{
				"patchline" : 				{
					"source" : [ "obj-34", 1 ],
					"destination" : [ "obj-32", 0 ],
					"hidden" : 0,
					"midpoints" : [ 655.0, 165.0, 614.5, 165.0 ]
				}

			}
, 			{
				"patchline" : 				{
					"source" : [ "obj-8", 0 ],
					"destination" : [ "obj-15", 0 ],
					"hidden" : 1,
					"midpoints" : [  ]
				}

			}
, 			{
				"patchline" : 				{
					"source" : [ "obj-15", 1 ],
					"destination" : [ "obj-16", 0 ],
					"hidden" : 0,
					"midpoints" : [ 775.0, 165.0, 734.5, 165.0 ]
				}

			}
, 			{
				"patchline" : 				{
					"source" : [ "obj-2", 0 ],
					"destination" : [ "obj-3", 0 ],
					"hidden" : 0,
					"midpoints" : [  ]
				}

			}
 ]
	}

}
