{
	"patcher" : 	{
		"fileversion" : 1,
		"rect" : [ 387.0, 121.0, 753.0, 573.0 ],
		"bglocked" : 0,
		"defrect" : [ 387.0, 121.0, 753.0, 573.0 ],
		"openrect" : [ 0.0, 0.0, 0.0, 0.0 ],
		"openinpresentation" : 0,
		"default_fontsize" : 10.0,
		"default_fontface" : 0,
		"default_fontname" : "Verdana",
		"gridonopen" : 0,
		"gridsize" : [ 5.0, 5.0 ],
		"gridsnaponopen" : 0,
		"toolbarvisible" : 1,
		"boxanimatetime" : 200,
		"imprint" : 0,
		"boxes" : [ 			{
				"box" : 				{
					"id" : "obj-2",
					"maxclass" : "button",
					"numinlets" : 1,
					"numoutlets" : 1,
					"outlettype" : [ "bang" ],
					"patching_rect" : [ 105.0, 421.0, 20.0, 20.0 ]
				}

			}
, 			{
				"box" : 				{
					"fontname" : "Verdana",
					"fontsize" : 10.0,
					"id" : "obj-44",
					"maxclass" : "number",
					"numinlets" : 1,
					"numoutlets" : 2,
					"outlettype" : [ "int", "bang" ],
					"patching_rect" : [ 395.0, 372.0, 50.0, 19.0 ]
				}

			}
, 			{
				"box" : 				{
					"fontname" : "Verdana",
					"fontsize" : 10.0,
					"id" : "obj-39",
					"maxclass" : "message",
					"numinlets" : 2,
					"numoutlets" : 1,
					"outlettype" : [ "" ],
					"patching_rect" : [ 245.0, 421.0, 35.0, 17.0 ]
				}

			}
, 			{
				"box" : 				{
					"fontname" : "Verdana",
					"fontsize" : 10.0,
					"id" : "obj-38",
					"maxclass" : "message",
					"numinlets" : 2,
					"numoutlets" : 1,
					"outlettype" : [ "" ],
					"patching_rect" : [ 156.0, 421.0, 35.0, 17.0 ],
					"text" : "2."
				}

			}
, 			{
				"box" : 				{
					"fontname" : "Verdana",
					"fontsize" : 10.0,
					"id" : "obj-28",
					"maxclass" : "newobj",
					"numinlets" : 1,
					"numoutlets" : 1,
					"outlettype" : [ "inc" ],
					"patching_rect" : [ 395.0, 249.0, 32.0, 19.0 ],
					"text" : "t inc"
				}

			}
, 			{
				"box" : 				{
					"id" : "obj-27",
					"maxclass" : "incdec",
					"numinlets" : 1,
					"numoutlets" : 1,
					"outlettype" : [ "float" ],
					"patching_rect" : [ 395.0, 279.0, 20.0, 20.0 ]
				}

			}
, 			{
				"box" : 				{
					"color" : [ 0.619608, 0.0, 0.360784, 0.698039 ],
					"fontname" : "Verdana",
					"fontsize" : 10.0,
					"id" : "obj-26",
					"linecount" : 3,
					"maxclass" : "newobj",
					"numinlets" : 1,
					"numoutlets" : 2,
					"outlettype" : [ "", "" ],
					"patching_rect" : [ 395.0, 304.0, 293.0, 43.0 ],
					"text" : "jcom.return myCounter @type integer @enable 1 @range/bounds 0 10 @range/clipmode wrap @repetitions/allow 0 @description \"Count from 0 to 9\""
				}

			}
, 			{
				"box" : 				{
					"fontname" : "Verdana",
					"fontsize" : 10.0,
					"id" : "obj-24",
					"maxclass" : "newobj",
					"numinlets" : 1,
					"numoutlets" : 3,
					"outlettype" : [ "", "", "" ],
					"patching_rect" : [ 83.0, 396.0, 197.0, 19.0 ],
					"text" : "jcom.oscroute /myMetro /myCounter"
				}

			}
, 			{
				"box" : 				{
					"fontname" : "Verdana",
					"fontsize" : 10.0,
					"hidden" : 1,
					"id" : "obj-18",
					"maxclass" : "newobj",
					"numinlets" : 1,
					"numoutlets" : 1,
					"outlettype" : [ "" ],
					"patching_rect" : [ 395.0, 145.0, 68.0, 19.0 ],
					"text" : "loadmess 1"
				}

			}
, 			{
				"box" : 				{
					"args" : [ "@name", "jcom.return", "@description", "Return information from the module to the outside world" ],
					"bgmode" : 1,
					"id" : "obj-12",
					"maxclass" : "bpatcher",
					"name" : "jcom.maxhelpui.maxpat",
					"numinlets" : 1,
					"numoutlets" : 0,
					"patching_rect" : [ 0.0, 0.0, 753.0, 70.0 ],
					"varname" : "maxhelpui"
				}

			}
, 			{
				"box" : 				{
					"fontname" : "Verdana",
					"fontsize" : 10.0,
					"id" : "obj-8",
					"maxclass" : "message",
					"numinlets" : 2,
					"numoutlets" : 1,
					"outlettype" : [ "" ],
					"patching_rect" : [ 147.0, 545.0, 83.0, 17.0 ],
					"text" : "jcom.message"
				}

			}
, 			{
				"box" : 				{
					"fontname" : "Verdana",
					"fontsize" : 10.0,
					"id" : "obj-15",
					"maxclass" : "message",
					"numinlets" : 2,
					"numoutlets" : 1,
					"outlettype" : [ "" ],
					"patching_rect" : [ 41.0, 545.0, 100.0, 17.0 ],
					"text" : "jcom.parameter"
				}

			}
, 			{
				"box" : 				{
					"fontname" : "Verdana",
					"fontsize" : 10.0,
					"hidden" : 1,
					"id" : "obj-16",
					"maxclass" : "newobj",
					"numinlets" : 1,
					"numoutlets" : 1,
					"outlettype" : [ "" ],
					"patching_rect" : [ 41.0, 568.0, 78.0, 19.0 ],
					"text" : "prepend help"
				}

			}
, 			{
				"box" : 				{
					"fontname" : "Verdana",
					"fontsize" : 10.0,
					"hidden" : 1,
					"id" : "obj-17",
					"maxclass" : "newobj",
					"numinlets" : 1,
					"numoutlets" : 1,
					"outlettype" : [ "" ],
					"patching_rect" : [ 41.0, 588.0, 55.0, 19.0 ],
					"text" : "pcontrol"
				}

			}
, 			{
				"box" : 				{
					"fontname" : "Verdana",
					"fontsize" : 10.0,
					"hidden" : 1,
					"id" : "obj-20",
					"maxclass" : "newobj",
					"numinlets" : 1,
					"numoutlets" : 1,
					"outlettype" : [ "" ],
					"patching_rect" : [ 67.0, 400.0, 78.0, 19.0 ],
					"text" : "loadmess set"
				}

			}
, 			{
				"box" : 				{
					"color" : [ 0.619608, 0.0, 0.360784, 0.698039 ],
					"fontname" : "Verdana",
					"fontsize" : 10.0,
					"id" : "obj-21",
					"linecount" : 2,
					"maxclass" : "newobj",
					"numinlets" : 1,
					"numoutlets" : 2,
					"outlettype" : [ "", "" ],
					"patching_rect" : [ 412.0, 213.0, 234.0, 31.0 ],
					"text" : "jcom.return myMetro @type generic @description \"Send bang out of jcom.hub\""
				}

			}
, 			{
				"box" : 				{
					"fontname" : "Verdana",
					"fontsize" : 10.0,
					"id" : "obj-22",
					"maxclass" : "newobj",
					"numinlets" : 2,
					"numoutlets" : 1,
					"outlettype" : [ "bang" ],
					"patching_rect" : [ 395.0, 181.0, 63.0, 19.0 ],
					"text" : "metro 500"
				}

			}
, 			{
				"box" : 				{
					"fontname" : "Verdana",
					"fontsize" : 10.0,
					"id" : "obj-23",
					"maxclass" : "newobj",
					"numinlets" : 0,
					"numoutlets" : 1,
					"outlettype" : [ "" ],
					"patching_rect" : [ 192.0, 330.0, 79.0, 19.0 ],
					"text" : "r incomming"
				}

			}
, 			{
				"box" : 				{
					"fontname" : "Verdana",
					"fontsize" : 10.0,
					"id" : "obj-25",
					"maxclass" : "message",
					"numinlets" : 2,
					"numoutlets" : 1,
					"outlettype" : [ "" ],
					"patching_rect" : [ 67.0, 421.0, 35.0, 17.0 ],
					"text" : "bang"
				}

			}
, 			{
				"box" : 				{
					"fontname" : "Verdana",
					"fontsize" : 14.0,
					"frgb" : [ 0.0, 0.0, 0.0, 1.0 ],
					"id" : "obj-29",
					"maxclass" : "comment",
					"numinlets" : 1,
					"numoutlets" : 0,
					"patching_rect" : [ 43.0, 307.0, 84.0, 24.0 ],
					"text" : "jcom.hub"
				}

			}
, 			{
				"box" : 				{
					"fontname" : "Verdana",
					"fontsize" : 10.0,
					"id" : "obj-30",
					"maxclass" : "newobj",
					"numinlets" : 1,
					"numoutlets" : 2,
					"outlettype" : [ "", "" ],
					"patching_rect" : [ 42.0, 360.0, 243.0, 19.0 ],
					"text" : "jcom.hub @module_type control",
					"varname" : "jcom.hub"
				}

			}
, 			{
				"box" : 				{
					"fontname" : "Verdana",
					"fontsize" : 10.0,
					"frgb" : [ 0.0, 0.0, 0.0, 1.0 ],
					"id" : "obj-31",
					"maxclass" : "comment",
					"numinlets" : 1,
					"numoutlets" : 0,
					"patching_rect" : [ 67.0, 330.0, 97.0, 19.0 ],
					"text" : "command input"
				}

			}
, 			{
				"box" : 				{
					"comment" : "",
					"id" : "obj-32",
					"maxclass" : "inlet",
					"numinlets" : 0,
					"numoutlets" : 1,
					"outlettype" : [ "" ],
					"patching_rect" : [ 42.0, 330.0, 22.0, 22.0 ]
				}

			}
, 			{
				"box" : 				{
					"comment" : "",
					"id" : "obj-33",
					"maxclass" : "outlet",
					"numinlets" : 1,
					"numoutlets" : 0,
					"patching_rect" : [ 42.0, 421.0, 22.0, 22.0 ]
				}

			}
, 			{
				"box" : 				{
					"fontname" : "Verdana",
					"fontsize" : 14.0,
					"frgb" : [ 0.0, 0.0, 0.0, 1.0 ],
					"id" : "obj-35",
					"maxclass" : "comment",
					"numinlets" : 1,
					"numoutlets" : 0,
					"patching_rect" : [ 42.0, 177.0, 79.0, 24.0 ],
					"text" : "jcom.ui"
				}

			}
, 			{
				"box" : 				{
					"fontname" : "Verdana",
					"fontsize" : 10.0,
					"frgb" : [ 0.0, 0.0, 0.0, 1.0 ],
					"id" : "obj-36",
					"linecount" : 2,
					"maxclass" : "comment",
					"numinlets" : 1,
					"numoutlets" : 0,
					"patching_rect" : [ 42.0, 455.0, 177.0, 31.0 ],
					"text" : "Reporting messages out of the module"
				}

			}
, 			{
				"box" : 				{
					"fontname" : "Verdana",
					"fontsize" : 10.0,
					"frgb" : [ 0.0, 0.0, 0.0, 1.0 ],
					"id" : "obj-42",
					"linecount" : 2,
					"maxclass" : "comment",
					"numinlets" : 1,
					"numoutlets" : 0,
					"patching_rect" : [ 22.0, 92.0, 335.0, 31.0 ],
					"text" : "jcom.return can be used to expose some messages to jcom.hub and output them out of the module."
				}

			}
, 			{
				"box" : 				{
					"fontname" : "Verdana",
					"fontsize" : 10.0,
					"frgb" : [ 0.0, 0.0, 0.0, 1.0 ],
					"id" : "obj-43",
					"maxclass" : "comment",
					"numinlets" : 1,
					"numoutlets" : 0,
					"patching_rect" : [ 42.0, 515.0, 115.0, 19.0 ],
					"text" : "See also"
				}

			}
, 			{
				"box" : 				{
					"id" : "obj-1",
					"maxclass" : "jcom.ui",
					"numinlets" : 1,
					"numoutlets" : 1,
					"outlettype" : [ "" ],
					"patching_rect" : [ 42.0, 205.0, 300.0, 70.0 ],
					"text" : "/editing_this_module"
				}

			}
, 			{
				"box" : 				{
					"background" : 1,
					"bgcolor" : [ 1.0, 0.678431, 0.2, 0.0 ],
					"border" : 2,
					"bordercolor" : [ 0.619608, 0.0, 0.360784, 1.0 ],
					"id" : "obj-45",
					"maxclass" : "panel",
					"numinlets" : 1,
					"numoutlets" : 0,
					"patching_rect" : [ 20.0, 167.0, 340.0, 118.0 ],
					"rounded" : 15
				}

			}
, 			{
				"box" : 				{
					"background" : 1,
					"bgcolor" : [ 1.0, 0.678431, 0.2, 0.0 ],
					"border" : 2,
					"bordercolor" : [ 0.619608, 0.0, 0.360784, 1.0 ],
					"id" : "obj-37",
					"maxclass" : "panel",
					"numinlets" : 1,
					"numoutlets" : 0,
					"patching_rect" : [ 20.0, 296.0, 340.0, 194.0 ],
					"rounded" : 15
				}

			}
 ],
		"lines" : [ 			{
				"patchline" : 				{
					"destination" : [ "obj-26", 0 ],
					"hidden" : 0,
					"midpoints" : [  ],
					"source" : [ "obj-27", 0 ]
				}

			}
, 			{
				"patchline" : 				{
					"destination" : [ "obj-44", 0 ],
					"hidden" : 0,
					"midpoints" : [  ],
					"source" : [ "obj-26", 0 ]
				}

			}
, 			{
				"patchline" : 				{
					"destination" : [ "obj-2", 0 ],
					"hidden" : 0,
					"midpoints" : [ 92.5, 418.0, 114.5, 418.0 ],
					"source" : [ "obj-24", 0 ]
				}

			}
, 			{
				"patchline" : 				{
					"destination" : [ "obj-16", 0 ],
					"hidden" : 1,
					"midpoints" : [ 156.5, 564.0, 50.5, 564.0 ],
					"source" : [ "obj-8", 0 ]
				}

			}
, 			{
				"patchline" : 				{
					"destination" : [ "obj-33", 0 ],
					"hidden" : 0,
					"midpoints" : [  ],
					"source" : [ "obj-30", 0 ]
				}

			}
, 			{
				"patchline" : 				{
					"destination" : [ "obj-30", 0 ],
					"hidden" : 0,
					"midpoints" : [ 201.5, 354.0, 51.5, 354.0 ],
					"source" : [ "obj-23", 0 ]
				}

			}
, 			{
				"patchline" : 				{
					"destination" : [ "obj-30", 0 ],
					"hidden" : 0,
					"midpoints" : [  ],
					"source" : [ "obj-32", 0 ]
				}

			}
, 			{
				"patchline" : 				{
					"destination" : [ "obj-16", 0 ],
					"hidden" : 1,
					"midpoints" : [  ],
					"source" : [ "obj-15", 0 ]
				}

			}
, 			{
				"patchline" : 				{
					"destination" : [ "obj-17", 0 ],
					"hidden" : 1,
					"midpoints" : [  ],
					"source" : [ "obj-16", 0 ]
				}

			}
, 			{
				"patchline" : 				{
					"destination" : [ "obj-25", 0 ],
					"hidden" : 1,
					"midpoints" : [  ],
					"source" : [ "obj-20", 0 ]
				}

			}
, 			{
				"patchline" : 				{
					"destination" : [ "obj-22", 0 ],
					"hidden" : 1,
					"midpoints" : [  ],
					"source" : [ "obj-18", 0 ]
				}

			}
, 			{
				"patchline" : 				{
					"destination" : [ "obj-21", 0 ],
					"hidden" : 0,
					"midpoints" : [  ],
					"source" : [ "obj-22", 0 ]
				}

			}
, 			{
				"patchline" : 				{
					"destination" : [ "obj-28", 0 ],
					"hidden" : 0,
					"midpoints" : [  ],
					"source" : [ "obj-22", 0 ]
				}

			}
, 			{
				"patchline" : 				{
					"destination" : [ "obj-27", 0 ],
					"hidden" : 0,
					"midpoints" : [  ],
					"source" : [ "obj-28", 0 ]
				}

			}
, 			{
				"patchline" : 				{
					"destination" : [ "obj-24", 0 ],
					"hidden" : 0,
					"midpoints" : [  ],
					"source" : [ "obj-30", 0 ]
				}

			}
, 			{
				"patchline" : 				{
					"destination" : [ "obj-25", 1 ],
					"hidden" : 0,
					"midpoints" : [  ],
					"source" : [ "obj-24", 0 ]
				}

			}
, 			{
				"patchline" : 				{
					"destination" : [ "obj-38", 1 ],
					"hidden" : 0,
					"midpoints" : [  ],
					"source" : [ "obj-24", 1 ]
				}

			}
, 			{
				"patchline" : 				{
					"destination" : [ "obj-39", 1 ],
					"hidden" : 0,
					"midpoints" : [  ],
					"source" : [ "obj-24", 2 ]
				}

			}
, 			{
				"patchline" : 				{
					"destination" : [ "obj-39", 0 ],
					"hidden" : 1,
					"midpoints" : [ 76.5, 419.5, 254.5, 419.5 ],
					"source" : [ "obj-20", 0 ]
				}

			}
 ]
	}

}
