{
	"patcher" : 	{
		"fileversion" : 1,
		"rect" : [ 522.0, 125.0, 334.0, 338.0 ],
		"bglocked" : 0,
		"defrect" : [ 522.0, 125.0, 334.0, 338.0 ],
		"openrect" : [ 0.0, 0.0, 0.0, 0.0 ],
		"openinpresentation" : 0,
		"default_fontsize" : 10.970939,
		"default_fontface" : 0,
		"default_fontname" : "Verdana",
		"gridonopen" : 0,
		"gridsize" : [ 10.0, 5.0 ],
		"gridsnaponopen" : 0,
		"toolbarvisible" : 1,
		"boxanimatetime" : 200,
		"imprint" : 0,
		"metadata" : [  ],
		"boxes" : [ 			{
				"box" : 				{
					"maxclass" : "button",
					"outlettype" : [ "bang" ],
					"patching_rect" : [ 220.0, 235.0, 20.0, 20.0 ],
					"id" : "obj-16",
					"numinlets" : 1,
					"numoutlets" : 1
				}

			}
, 			{
				"box" : 				{
					"maxclass" : "flonum",
					"outlettype" : [ "float", "bang" ],
					"fontsize" : 10.970939,
					"patching_rect" : [ 20.0, 235.0, 50.0, 20.0 ],
					"minimum" : 0.0,
					"id" : "obj-15",
					"numinlets" : 1,
					"maximum" : 1.01,
					"fontname" : "Verdana",
					"numoutlets" : 2
				}

			}
, 			{
				"box" : 				{
					"maxclass" : "jcom.meter~",
					"patching_rect" : [ 20.0, 275.0, 143.0, 13.0 ],
					"id" : "obj-1",
					"numinlets" : 1,
					"numoutlets" : 0
				}

			}
, 			{
				"box" : 				{
					"maxclass" : "newobj",
					"text" : "loadmess defeat 1",
					"outlettype" : [ "" ],
					"fontsize" : 10.970939,
					"patching_rect" : [ 100.0, 235.0, 112.0, 20.0 ],
					"id" : "obj-2",
					"numinlets" : 1,
					"fontname" : "Verdana",
					"numoutlets" : 1
				}

			}
, 			{
				"box" : 				{
					"maxclass" : "button",
					"outlettype" : [ "bang" ],
					"patching_rect" : [ 245.0, 88.0, 15.0, 15.0 ],
					"id" : "obj-4",
					"numinlets" : 1,
					"numoutlets" : 1
				}

			}
, 			{
				"box" : 				{
					"maxclass" : "toggle",
					"outlettype" : [ "int" ],
					"patching_rect" : [ 185.0, 88.0, 15.0, 15.0 ],
					"id" : "obj-5",
					"numinlets" : 1,
					"numoutlets" : 1
				}

			}
, 			{
				"box" : 				{
					"maxclass" : "message",
					"text" : "defeat $1",
					"outlettype" : [ "" ],
					"fontsize" : 10,
					"patching_rect" : [ 185.0, 110.0, 63.0, 16.0 ],
					"id" : "obj-6",
					"numinlets" : 2,
					"fontname" : "Verdana",
					"numoutlets" : 1
				}

			}
, 			{
				"box" : 				{
					"maxclass" : "message",
					"text" : "stop",
					"outlettype" : [ "" ],
					"fontsize" : 10,
					"patching_rect" : [ 123.0, 88.0, 33.0, 16.0 ],
					"id" : "obj-7",
					"numinlets" : 2,
					"fontname" : "Verdana",
					"numoutlets" : 1
				}

			}
, 			{
				"box" : 				{
					"maxclass" : "message",
					"text" : "startwindow",
					"outlettype" : [ "" ],
					"fontsize" : 10,
					"patching_rect" : [ 35.0, 88.0, 80.0, 16.0 ],
					"id" : "obj-8",
					"numinlets" : 2,
					"fontname" : "Verdana",
					"numoutlets" : 1
				}

			}
, 			{
				"box" : 				{
					"maxclass" : "comment",
					"text" : "jcom.meter~",
					"fontsize" : 17.334082,
					"patching_rect" : [ 13.0, 13.0, 123.0, 28.0 ],
					"id" : "obj-9",
					"numinlets" : 1,
					"fontname" : "Verdana",
					"numoutlets" : 0
				}

			}
, 			{
				"box" : 				{
					"maxclass" : "comment",
					"text" : "logarithmic level meter",
					"fontsize" : 10,
					"patching_rect" : [ 13.0, 39.0, 281.0, 18.0 ],
					"id" : "obj-10",
					"numinlets" : 1,
					"fontname" : "Verdana",
					"numoutlets" : 0
				}

			}
, 			{
				"box" : 				{
					"maxclass" : "panel",
					"rounded" : 15,
					"patching_rect" : [ 8.0, 9.0, 280.0, 50.0 ],
					"id" : "obj-11",
					"numinlets" : 1,
					"numoutlets" : 0
				}

			}
, 			{
				"box" : 				{
					"maxclass" : "jcom.meter~",
					"patching_rect" : [ 36.0, 149.0, 80.0, 13.0 ],
					"id" : "obj-12",
					"numinlets" : 1,
					"numoutlets" : 0
				}

			}
, 			{
				"box" : 				{
					"maxclass" : "newobj",
					"text" : "adc~ 1",
					"outlettype" : [ "signal" ],
					"fontsize" : 10,
					"patching_rect" : [ 35.0, 121.0, 49.0, 18.0 ],
					"id" : "obj-13",
					"numinlets" : 1,
					"fontname" : "Verdana",
					"numoutlets" : 1
				}

			}
, 			{
				"box" : 				{
					"maxclass" : "comment",
					"text" : "Can also be used to display floats as levels",
					"fontsize" : 10,
					"patching_rect" : [ 13.0, 202.0, 244.0, 18.0 ],
					"id" : "obj-14",
					"numinlets" : 1,
					"fontname" : "Verdana",
					"numoutlets" : 0
				}

			}
, 			{
				"box" : 				{
					"maxclass" : "panel",
					"rounded" : 15,
					"patching_rect" : [ 10.0, 80.0, 279.0, 97.0 ],
					"id" : "obj-3",
					"numinlets" : 1,
					"numoutlets" : 0
				}

			}
, 			{
				"box" : 				{
					"maxclass" : "panel",
					"rounded" : 15,
					"patching_rect" : [ 10.0, 200.0, 279.0, 97.0 ],
					"id" : "obj-17",
					"numinlets" : 1,
					"numoutlets" : 0
				}

			}
 ],
		"lines" : [ 			{
				"patchline" : 				{
					"source" : [ "obj-2", 0 ],
					"destination" : [ "obj-1", 0 ],
					"hidden" : 0,
					"midpoints" : [ 109.5, 266.0, 29.5, 266.0 ]
				}

			}
, 			{
				"patchline" : 				{
					"source" : [ "obj-15", 0 ],
					"destination" : [ "obj-1", 0 ],
					"hidden" : 0,
					"midpoints" : [  ]
				}

			}
, 			{
				"patchline" : 				{
					"source" : [ "obj-5", 0 ],
					"destination" : [ "obj-6", 0 ],
					"hidden" : 0,
					"midpoints" : [  ]
				}

			}
, 			{
				"patchline" : 				{
					"source" : [ "obj-13", 0 ],
					"destination" : [ "obj-12", 0 ],
					"hidden" : 0,
					"midpoints" : [  ]
				}

			}
, 			{
				"patchline" : 				{
					"source" : [ "obj-6", 0 ],
					"destination" : [ "obj-12", 0 ],
					"hidden" : 0,
					"midpoints" : [ 194.5, 144.0, 45.5, 144.0 ]
				}

			}
, 			{
				"patchline" : 				{
					"source" : [ "obj-8", 0 ],
					"destination" : [ "obj-13", 0 ],
					"hidden" : 0,
					"midpoints" : [ 44.5, 112.0, 44.5, 112.0 ]
				}

			}
, 			{
				"patchline" : 				{
					"source" : [ "obj-7", 0 ],
					"destination" : [ "obj-13", 0 ],
					"hidden" : 0,
					"midpoints" : [ 132.5, 112.0, 44.5, 112.0 ]
				}

			}
, 			{
				"patchline" : 				{
					"source" : [ "obj-16", 0 ],
					"destination" : [ "obj-1", 0 ],
					"hidden" : 0,
					"midpoints" : [ 229.5, 270.0, 29.5, 270.0 ]
				}

			}
 ]
	}

}
