{
	"patcher" : 	{
		"fileversion" : 1,
		"rect" : [ 50.0, 44.0, 837.0, 788.0 ],
		"bglocked" : 0,
		"defrect" : [ 50.0, 44.0, 837.0, 788.0 ],
		"openrect" : [ 0.0, 0.0, 0.0, 0.0 ],
		"openinpresentation" : 0,
		"default_fontsize" : 10.970939,
		"default_fontface" : 0,
		"default_fontname" : "Verdana",
		"gridonopen" : 0,
		"gridsize" : [ 5.0, 5.0 ],
		"gridsnaponopen" : 0,
		"toolbarvisible" : 1,
		"boxanimatetime" : 200,
		"imprint" : 0,
		"metadata" : [  ],
		"boxes" : [ 			{
				"box" : 				{
					"maxclass" : "comment",
					"text" : "Optional argument makes it possible to specify either the height or width of the output window, and the other value will be set accordingly to maintain the correct video ratio.",
					"linecount" : 3,
					"fontsize" : 10.0,
					"frgb" : [ 0.337255, 0.356863, 0.690196, 1.0 ],
					"patching_rect" : [ 400.0, 230.0, 305.0, 43.0 ],
					"id" : "obj-1",
					"numinlets" : 1,
					"fontname" : "Verdana",
					"numoutlets" : 0
				}

			}
, 			{
				"box" : 				{
					"maxclass" : "newobj",
					"text" : "jcom.autosize% @width 120",
					"outlettype" : [ "" ],
					"fontsize" : 10.0,
					"patching_rect" : [ 645.0, 80.0, 170.0, 19.0 ],
					"id" : "obj-2",
					"numinlets" : 1,
					"fontname" : "Verdana",
					"numoutlets" : 1
				}

			}
, 			{
				"box" : 				{
					"maxclass" : "jit.pwindow",
					"outlettype" : [ "", "" ],
					"presentation_rect" : [ 0.0, 0.0, 120.0, 10.0 ],
					"patching_rect" : [ 645.0, 105.0, 120.0, 10.0 ],
					"id" : "obj-3",
					"numinlets" : 1,
					"depthbuffer" : 0,
					"numoutlets" : 2
				}

			}
, 			{
				"box" : 				{
					"maxclass" : "newobj",
					"text" : "jcom.autosize% @height 100",
					"outlettype" : [ "" ],
					"fontsize" : 10.0,
					"patching_rect" : [ 450.0, 80.0, 172.0, 19.0 ],
					"id" : "obj-4",
					"numinlets" : 1,
					"fontname" : "Verdana",
					"numoutlets" : 1
				}

			}
, 			{
				"box" : 				{
					"maxclass" : "jit.pwindow",
					"outlettype" : [ "", "" ],
					"presentation_rect" : [ 0.0, 0.0, 10.0, 100.0 ],
					"patching_rect" : [ 455.0, 105.0, 10.0, 100.0 ],
					"id" : "obj-5",
					"numinlets" : 1,
					"depthbuffer" : 0,
					"numoutlets" : 2
				}

			}
, 			{
				"box" : 				{
					"maxclass" : "comment",
					"text" : "Change the resolution or rotation of the video and watch the pwindow below.",
					"linecount" : 5,
					"fontsize" : 10.0,
					"frgb" : [ 0.337255, 0.356863, 0.690196, 1.0 ],
					"patching_rect" : [ 330.0, 80.0, 108.0, 67.0 ],
					"id" : "obj-6",
					"numinlets" : 1,
					"fontname" : "Verdana",
					"numoutlets" : 0
				}

			}
, 			{
				"box" : 				{
					"maxclass" : "bpatcher",
					"varname" : "/orsize%",
					"outlettype" : [ "", "" ],
					"patching_rect" : [ 25.0, 158.0, 300.0, 60.0 ],
					"args" : [ "/orsize%" ],
					"id" : "obj-7",
					"numinlets" : 2,
					"name" : "jmod.orsize%.maxpat",
					"numoutlets" : 2
				}

			}
, 			{
				"box" : 				{
					"maxclass" : "bpatcher",
					"varname" : "/input%",
					"outlettype" : [ "", "" ],
					"patching_rect" : [ 25.0, 80.0, 300.0, 70.0 ],
					"args" : [ "/input%" ],
					"id" : "obj-8",
					"numinlets" : 1,
					"name" : "jmod.input%.maxpat",
					"numoutlets" : 2
				}

			}
, 			{
				"box" : 				{
					"maxclass" : "jit.fpsgui",
					"outlettype" : [ "", "" ],
					"fontsize" : 10.0,
					"patching_rect" : [ 320.0, 235.0, 60.0, 34.245323 ],
					"mode" : 3,
					"id" : "obj-9",
					"numinlets" : 1,
					"fontname" : "Verdana",
					"numoutlets" : 2
				}

			}
, 			{
				"box" : 				{
					"maxclass" : "newobj",
					"text" : "jcom.autosize%",
					"outlettype" : [ "" ],
					"fontsize" : 10.0,
					"patching_rect" : [ 25.0, 240.0, 99.0, 19.0 ],
					"id" : "obj-10",
					"numinlets" : 1,
					"fontname" : "Verdana",
					"numoutlets" : 1
				}

			}
, 			{
				"box" : 				{
					"maxclass" : "comment",
					"text" : "jcom.autosize%",
					"fontsize" : 17.334082,
					"frgb" : [ 0.337255, 0.356863, 0.690196, 1.0 ],
					"patching_rect" : [ 13.0, 16.0, 189.0, 28.0 ],
					"id" : "obj-11",
					"numinlets" : 1,
					"fontname" : "Verdana",
					"numoutlets" : 0
				}

			}
, 			{
				"box" : 				{
					"maxclass" : "comment",
					"text" : "resizing the output window from incoming video",
					"fontsize" : 10.0,
					"frgb" : [ 0.337255, 0.356863, 0.690196, 1.0 ],
					"patching_rect" : [ 14.0, 43.0, 299.0, 19.0 ],
					"id" : "obj-12",
					"numinlets" : 1,
					"fontname" : "Verdana",
					"numoutlets" : 0
				}

			}
, 			{
				"box" : 				{
					"maxclass" : "panel",
					"rounded" : 15,
					"patching_rect" : [ 5.0, 5.0, 273.0, 63.0 ],
					"id" : "obj-13",
					"numinlets" : 1,
					"numoutlets" : 0,
					"bordercolor" : [ 0.501961, 0.043137, 0.039216, 1.0 ]
				}

			}
, 			{
				"box" : 				{
					"maxclass" : "jit.pwindow",
					"outlettype" : [ "", "" ],
					"patching_rect" : [ 25.0, 283.0, 720.0, 480.0 ],
					"id" : "obj-14",
					"numinlets" : 1,
					"depthbuffer" : 0,
					"numoutlets" : 2
				}

			}
, 			{
				"box" : 				{
					"maxclass" : "comment",
					"text" : "Automatically updates the size of the output window to match the incoming video stream.",
					"linecount" : 3,
					"fontsize" : 10.0,
					"frgb" : [ 0.337255, 0.356863, 0.690196, 1.0 ],
					"patching_rect" : [ 130.0, 230.0, 170.0, 43.0 ],
					"id" : "obj-15",
					"numinlets" : 1,
					"fontname" : "Verdana",
					"numoutlets" : 0
				}

			}
 ],
		"lines" : [ 			{
				"patchline" : 				{
					"source" : [ "obj-2", 0 ],
					"destination" : [ "obj-3", 0 ],
					"hidden" : 0,
					"midpoints" : [  ]
				}

			}
, 			{
				"patchline" : 				{
					"source" : [ "obj-7", 1 ],
					"destination" : [ "obj-2", 0 ],
					"hidden" : 0,
					"midpoints" : [ 315.5, 224.0, 443.0, 224.0, 443.0, 73.0, 654.5, 73.0 ]
				}

			}
, 			{
				"patchline" : 				{
					"source" : [ "obj-4", 0 ],
					"destination" : [ "obj-5", 0 ],
					"hidden" : 0,
					"midpoints" : [  ]
				}

			}
, 			{
				"patchline" : 				{
					"source" : [ "obj-7", 1 ],
					"destination" : [ "obj-4", 0 ],
					"hidden" : 0,
					"midpoints" : [ 315.5, 224.0, 443.0, 224.0, 443.0, 73.0, 459.5, 73.0 ]
				}

			}
, 			{
				"patchline" : 				{
					"source" : [ "obj-7", 1 ],
					"destination" : [ "obj-9", 0 ],
					"hidden" : 0,
					"midpoints" : [ 315.5, 224.0, 329.5, 224.0 ]
				}

			}
, 			{
				"patchline" : 				{
					"source" : [ "obj-8", 1 ],
					"destination" : [ "obj-7", 1 ],
					"hidden" : 0,
					"midpoints" : [  ]
				}

			}
, 			{
				"patchline" : 				{
					"source" : [ "obj-10", 0 ],
					"destination" : [ "obj-14", 0 ],
					"hidden" : 0,
					"midpoints" : [  ]
				}

			}
, 			{
				"patchline" : 				{
					"source" : [ "obj-7", 1 ],
					"destination" : [ "obj-10", 0 ],
					"hidden" : 0,
					"midpoints" : [ 315.5, 224.0, 34.5, 224.0 ]
				}

			}
 ]
	}

}
