{
	"patcher" : 	{
		"rect" : [ 66.0, 48.0, 317.0, 308.0 ],
		"bgcolor" : [ 1.0, 1.0, 1.0, 1.0 ],
		"bglocked" : 0,
		"defrect" : [ 66.0, 48.0, 317.0, 308.0 ],
		"openinpresentation" : 0,
		"default_fontsize" : 10.0,
		"default_fontface" : 0,
		"default_fontname" : "Verdana",
		"gridonopen" : 0,
		"gridsize" : [ 5.0, 5.0 ],
		"gridsnaponopen" : 0,
		"toolbarvisible" : 1,
		"boxfadetime" : 200,
		"boxanimatetime" : 200,
		"scrollanimatetime" : 200,
		"metadata" : [  ],
		"boxes" : [ 			{
				"box" : 				{
					"maxclass" : "number",
					"fontname" : "Verdana",
					"htextcolor" : [ 0.870588, 0.870588, 0.870588, 1.0 ],
					"numinlets" : 1,
					"triscale" : 0.9,
					"id" : "obj-1",
					"numoutlets" : 2,
					"outlettype" : [ "int", "bang" ],
					"bgcolor" : [ 0.866667, 0.866667, 0.866667, 1.0 ],
					"fontsize" : 9.0,
					"patching_rect" : [ 84.0, 198.0, 35.0, 17.0 ]
				}

			}
, 			{
				"box" : 				{
					"maxclass" : "comment",
					"text" : "It breaks the illegal feedback loop by using a private send~ and receive~ object. Without it, the audio would be killed in a patch like this.",
					"linecount" : 7,
					"fontname" : "Verdana",
					"numinlets" : 1,
					"id" : "obj-2",
					"numoutlets" : 0,
					"fontsize" : 9.0,
					"patching_rect" : [ 168.0, 150.0, 118.0, 90.0 ]
				}

			}
, 			{
				"box" : 				{
					"maxclass" : "ezdac~",
					"numinlets" : 2,
					"id" : "obj-3",
					"numoutlets" : 0,
					"patching_rect" : [ 45.0, 226.0, 33.0, 33.0 ]
				}

			}
, 			{
				"box" : 				{
					"maxclass" : "gain~",
					"numinlets" : 2,
					"id" : "obj-4",
					"numoutlets" : 2,
					"orientation" : 2,
					"outlettype" : [ "signal", "int" ],
					"patching_rect" : [ 46.0, 155.0, 33.0, 58.0 ]
				}

			}
, 			{
				"box" : 				{
					"maxclass" : "ezadc~",
					"numinlets" : 1,
					"id" : "obj-5",
					"numoutlets" : 2,
					"outlettype" : [ "signal", "signal" ],
					"patching_rect" : [ 43.0, 85.0, 33.0, 33.0 ]
				}

			}
, 			{
				"box" : 				{
					"maxclass" : "newobj",
					"text" : "*~ 0.1",
					"fontname" : "Verdana",
					"numinlets" : 2,
					"id" : "obj-6",
					"numoutlets" : 1,
					"outlettype" : [ "signal" ],
					"fontsize" : 9.0,
					"patching_rect" : [ 44.0, 127.0, 46.0, 18.0 ]
				}

			}
, 			{
				"box" : 				{
					"maxclass" : "newobj",
					"text" : "jcom.thru~",
					"fontname" : "Verdana",
					"numinlets" : 1,
					"id" : "obj-7",
					"numoutlets" : 1,
					"outlettype" : [ "signal" ],
					"fontsize" : 9.0,
					"patching_rect" : [ 96.0, 125.0, 67.0, 18.0 ]
				}

			}
, 			{
				"box" : 				{
					"maxclass" : "comment",
					"text" : "jcom.thru~",
					"fontname" : "Verdana",
					"numinlets" : 1,
					"id" : "obj-8",
					"frgb" : [ 1.0, 1.0, 1.0, 1.0 ],
					"numoutlets" : 0,
					"textcolor" : [ 1.0, 1.0, 1.0, 1.0 ],
					"fontsize" : 15.799999,
					"patching_rect" : [ 15.0, 21.0, 189.0, 28.0 ]
				}

			}
, 			{
				"box" : 				{
					"maxclass" : "comment",
					"text" : "a simple utilty for breaking feedback loops",
					"fontname" : "Verdana",
					"numinlets" : 1,
					"id" : "obj-9",
					"frgb" : [ 1.0, 1.0, 1.0, 1.0 ],
					"numoutlets" : 0,
					"textcolor" : [ 1.0, 1.0, 1.0, 1.0 ],
					"fontsize" : 9.0,
					"patching_rect" : [ 16.0, 47.0, 273.0, 18.0 ]
				}

			}
, 			{
				"box" : 				{
					"maxclass" : "panel",
					"numinlets" : 1,
					"id" : "obj-10",
					"numoutlets" : 0,
					"rounded" : 0,
					"bgcolor" : [ 0.262745, 0.254902, 0.419608, 1.0 ],
					"patching_rect" : [ 14.0, 15.0, 267.0, 50.0 ]
				}

			}
, 			{
				"box" : 				{
					"maxclass" : "comment",
					"text" : "This simple abstraction lets you do things like the patch to the left.",
					"linecount" : 3,
					"fontname" : "Verdana",
					"numinlets" : 1,
					"id" : "obj-11",
					"numoutlets" : 0,
					"fontsize" : 9.0,
					"patching_rect" : [ 168.0, 100.0, 126.0, 42.0 ]
				}

			}
 ],
		"lines" : [ 			{
				"patchline" : 				{
					"source" : [ "obj-7", 0 ],
					"destination" : [ "obj-6", 0 ],
					"hidden" : 0
				}

			}
, 			{
				"patchline" : 				{
					"source" : [ "obj-5", 0 ],
					"destination" : [ "obj-6", 0 ],
					"hidden" : 0
				}

			}
, 			{
				"patchline" : 				{
					"source" : [ "obj-6", 0 ],
					"destination" : [ "obj-4", 0 ],
					"hidden" : 0
				}

			}
, 			{
				"patchline" : 				{
					"source" : [ "obj-4", 0 ],
					"destination" : [ "obj-3", 0 ],
					"hidden" : 0
				}

			}
, 			{
				"patchline" : 				{
					"source" : [ "obj-4", 0 ],
					"destination" : [ "obj-3", 1 ],
					"hidden" : 0
				}

			}
, 			{
				"patchline" : 				{
					"source" : [ "obj-4", 1 ],
					"destination" : [ "obj-1", 0 ],
					"hidden" : 0
				}

			}
, 			{
				"patchline" : 				{
					"source" : [ "obj-6", 0 ],
					"destination" : [ "obj-7", 0 ],
					"hidden" : 0
				}

			}
 ]
	}

}
