{
	"patcher" : 	{
		"fileversion" : 1,
		"rect" : [ 146.0, 44.0, 512.0, 444.0 ],
		"bglocked" : 0,
		"defrect" : [ 146.0, 44.0, 512.0, 444.0 ],
		"openrect" : [ 0.0, 0.0, 0.0, 0.0 ],
		"openinpresentation" : 0,
		"default_fontsize" : 10.970939,
		"default_fontface" : 0,
		"default_fontname" : "Verdana",
		"gridonopen" : 0,
		"gridsize" : [ 5.0, 5.0 ],
		"gridsnaponopen" : 0,
		"toolbarvisible" : 1,
		"boxanimatetime" : 200,
		"imprint" : 0,
		"metadata" : [  ],
		"boxes" : [ 			{
				"box" : 				{
					"maxclass" : "comment",
					"text" : "button",
					"patching_rect" : [ 51.0, 394.0, 47.0, 20.0 ],
					"numoutlets" : 0,
					"fontsize" : 10.970939,
					"id" : "obj-22",
					"fontname" : "Verdana",
					"numinlets" : 1
				}

			}
, 			{
				"box" : 				{
					"maxclass" : "number",
					"patching_rect" : [ 49.0, 362.0, 50.0, 20.0 ],
					"numoutlets" : 2,
					"fontsize" : 10.970939,
					"outlettype" : [ "int", "bang" ],
					"id" : "obj-20",
					"fontname" : "Verdana",
					"numinlets" : 1
				}

			}
, 			{
				"box" : 				{
					"maxclass" : "comment",
					"text" : "difference XY",
					"patching_rect" : [ 371.0, 394.0, 83.0, 20.0 ],
					"numoutlets" : 0,
					"fontsize" : 10.970939,
					"id" : "obj-17",
					"fontname" : "Verdana",
					"numinlets" : 1
				}

			}
, 			{
				"box" : 				{
					"maxclass" : "comment",
					"text" : "end position XY",
					"patching_rect" : [ 241.0, 394.0, 96.0, 20.0 ],
					"numoutlets" : 0,
					"fontsize" : 10.970939,
					"presentation_rect" : [ 264.0, 443.0, 0.0, 0.0 ],
					"id" : "obj-15",
					"fontname" : "Verdana",
					"numinlets" : 1
				}

			}
, 			{
				"box" : 				{
					"maxclass" : "comment",
					"text" : "start position XY",
					"patching_rect" : [ 117.0, 394.0, 101.0, 20.0 ],
					"numoutlets" : 0,
					"fontsize" : 10.970939,
					"id" : "obj-14",
					"fontname" : "Verdana",
					"numinlets" : 1
				}

			}
, 			{
				"box" : 				{
					"maxclass" : "number",
					"patching_rect" : [ 408.0, 362.0, 50.0, 20.0 ],
					"numoutlets" : 2,
					"fontsize" : 10.970939,
					"outlettype" : [ "int", "bang" ],
					"presentation_rect" : [ 489.0, 413.0, 0.0, 0.0 ],
					"id" : "obj-11",
					"fontname" : "Verdana",
					"numinlets" : 1
				}

			}
, 			{
				"box" : 				{
					"maxclass" : "number",
					"patching_rect" : [ 348.0, 362.0, 50.0, 20.0 ],
					"numoutlets" : 2,
					"fontsize" : 10.970939,
					"outlettype" : [ "int", "bang" ],
					"presentation_rect" : [ 433.0, 411.0, 0.0, 0.0 ],
					"id" : "obj-12",
					"fontname" : "Verdana",
					"numinlets" : 1
				}

			}
, 			{
				"box" : 				{
					"maxclass" : "number",
					"patching_rect" : [ 288.0, 362.0, 50.0, 20.0 ],
					"numoutlets" : 2,
					"fontsize" : 10.970939,
					"outlettype" : [ "int", "bang" ],
					"presentation_rect" : [ 380.0, 410.0, 0.0, 0.0 ],
					"id" : "obj-9",
					"fontname" : "Verdana",
					"numinlets" : 1
				}

			}
, 			{
				"box" : 				{
					"maxclass" : "number",
					"patching_rect" : [ 229.0, 362.0, 50.0, 20.0 ],
					"numoutlets" : 2,
					"fontsize" : 10.970939,
					"outlettype" : [ "int", "bang" ],
					"presentation_rect" : [ 324.0, 408.0, 0.0, 0.0 ],
					"id" : "obj-10",
					"fontname" : "Verdana",
					"numinlets" : 1
				}

			}
, 			{
				"box" : 				{
					"maxclass" : "number",
					"patching_rect" : [ 169.0, 362.0, 50.0, 20.0 ],
					"numoutlets" : 2,
					"fontsize" : 10.970939,
					"outlettype" : [ "int", "bang" ],
					"id" : "obj-8",
					"fontname" : "Verdana",
					"numinlets" : 1
				}

			}
, 			{
				"box" : 				{
					"maxclass" : "number",
					"patching_rect" : [ 109.0, 362.0, 50.0, 20.0 ],
					"numoutlets" : 2,
					"fontsize" : 10.970939,
					"outlettype" : [ "int", "bang" ],
					"id" : "obj-6",
					"fontname" : "Verdana",
					"numinlets" : 1
				}

			}
, 			{
				"box" : 				{
					"maxclass" : "newobj",
					"text" : "unpack 0 0 0 0 0 0 0",
					"patching_rect" : [ 49.0, 322.0, 378.0, 20.0 ],
					"numoutlets" : 7,
					"fontsize" : 10.970939,
					"outlettype" : [ "int", "int", "int", "int", "int", "int", "int" ],
					"id" : "obj-4",
					"fontname" : "Verdana",
					"numinlets" : 1
				}

			}
, 			{
				"box" : 				{
					"maxclass" : "newobj",
					"text" : "jcom.pwindow.mouse",
					"patching_rect" : [ 49.0, 286.0, 130.0, 20.0 ],
					"numoutlets" : 2,
					"fontsize" : 10.970939,
					"outlettype" : [ "", "" ],
					"id" : "obj-1",
					"fontname" : "Verdana",
					"numinlets" : 1
				}

			}
, 			{
				"box" : 				{
					"maxclass" : "jit.pwindow",
					"patching_rect" : [ 54.0, 108.0, 183.0, 150.0 ],
					"numoutlets" : 2,
					"outlettype" : [ "", "" ],
					"id" : "obj-19",
					"numinlets" : 1,
					"depthbuffer" : 0
				}

			}
, 			{
				"box" : 				{
					"maxclass" : "comment",
					"text" : "jcom.pwindow.mouse",
					"patching_rect" : [ 15.0, 15.0, 223.0, 28.0 ],
					"numoutlets" : 0,
					"fontsize" : 17.553501,
					"id" : "obj-26",
					"fontname" : "Verdana",
					"numinlets" : 1
				}

			}
, 			{
				"box" : 				{
					"maxclass" : "comment",
					"text" : "returns cooked values from the mouse",
					"patching_rect" : [ 15.0, 46.0, 260.0, 19.0 ],
					"numoutlets" : 0,
					"fontsize" : 10.0,
					"id" : "obj-27",
					"fontname" : "Verdana",
					"numinlets" : 1
				}

			}
, 			{
				"box" : 				{
					"maxclass" : "panel",
					"patching_rect" : [ 10.0, 10.0, 273.0, 63.0 ],
					"numoutlets" : 0,
					"rounded" : 15,
					"id" : "obj-28",
					"numinlets" : 1
				}

			}
 ],
		"lines" : [ 			{
				"patchline" : 				{
					"source" : [ "obj-4", 0 ],
					"destination" : [ "obj-20", 0 ],
					"hidden" : 0,
					"midpoints" : [  ]
				}

			}
, 			{
				"patchline" : 				{
					"source" : [ "obj-4", 6 ],
					"destination" : [ "obj-11", 0 ],
					"hidden" : 0,
					"midpoints" : [  ]
				}

			}
, 			{
				"patchline" : 				{
					"source" : [ "obj-4", 5 ],
					"destination" : [ "obj-12", 0 ],
					"hidden" : 0,
					"midpoints" : [  ]
				}

			}
, 			{
				"patchline" : 				{
					"source" : [ "obj-4", 4 ],
					"destination" : [ "obj-9", 0 ],
					"hidden" : 0,
					"midpoints" : [  ]
				}

			}
, 			{
				"patchline" : 				{
					"source" : [ "obj-4", 3 ],
					"destination" : [ "obj-10", 0 ],
					"hidden" : 0,
					"midpoints" : [  ]
				}

			}
, 			{
				"patchline" : 				{
					"source" : [ "obj-4", 2 ],
					"destination" : [ "obj-8", 0 ],
					"hidden" : 0,
					"midpoints" : [  ]
				}

			}
, 			{
				"patchline" : 				{
					"source" : [ "obj-4", 1 ],
					"destination" : [ "obj-6", 0 ],
					"hidden" : 0,
					"midpoints" : [  ]
				}

			}
, 			{
				"patchline" : 				{
					"source" : [ "obj-1", 0 ],
					"destination" : [ "obj-4", 0 ],
					"hidden" : 0,
					"midpoints" : [  ]
				}

			}
, 			{
				"patchline" : 				{
					"source" : [ "obj-19", 1 ],
					"destination" : [ "obj-1", 0 ],
					"hidden" : 0,
					"midpoints" : [ 227.5, 271.0, 58.5, 271.0 ]
				}

			}
 ]
	}

}
