{
	"patcher" : 	{
		"fileversion" : 1,
		"rect" : [ 236.0, 108.0, 352.0, 310.0 ],
		"bglocked" : 0,
		"defrect" : [ 236.0, 108.0, 352.0, 310.0 ],
		"openrect" : [ 0.0, 0.0, 0.0, 0.0 ],
		"openinpresentation" : 0,
		"default_fontsize" : 10.970939,
		"default_fontface" : 0,
		"default_fontname" : "Verdana",
		"gridonopen" : 0,
		"gridsize" : [ 5.0, 5.0 ],
		"gridsnaponopen" : 0,
		"toolbarvisible" : 1,
		"boxanimatetime" : 200,
		"imprint" : 0,
		"metadata" : [  ],
		"boxes" : [ 			{
				"box" : 				{
					"maxclass" : "comment",
					"text" : "can be horizontal or vertical",
					"patching_rect" : [ 30.0, 170.0, 151.0, 19.0 ],
					"id" : "obj-20",
					"fontsize" : 10.0,
					"numinlets" : 1,
					"frgb" : [ 0.658824, 0.658824, 0.658824, 1.0 ],
					"numoutlets" : 0,
					"presentation_rect" : [ 31.0, 168.0, 0.0, 0.0 ],
					"fontname" : "Verdana"
				}

			}
, 			{
				"box" : 				{
					"maxclass" : "jcom.meter~",
					"patching_rect" : [ 15.0, 105.0, 11.0, 83.0 ],
					"id" : "obj-19",
					"numinlets" : 1,
					"numoutlets" : 0
				}

			}
, 			{
				"box" : 				{
					"maxclass" : "newobj",
					"text" : "p openReference",
					"patching_rect" : [ 150.0, 50.0, 95.0, 19.0 ],
					"id" : "obj-25",
					"fontsize" : 10.0,
					"numinlets" : 1,
					"hidden" : 1,
					"numoutlets" : 0,
					"fontname" : "Verdana",
					"patcher" : 					{
						"fileversion" : 1,
						"rect" : [ 75.0, 119.0, 262.0, 204.0 ],
						"bglocked" : 0,
						"defrect" : [ 75.0, 119.0, 262.0, 204.0 ],
						"openrect" : [ 0.0, 0.0, 0.0, 0.0 ],
						"openinpresentation" : 0,
						"default_fontsize" : 10.0,
						"default_fontface" : 0,
						"default_fontname" : "Verdana",
						"gridonopen" : 0,
						"gridsize" : [ 5.0, 5.0 ],
						"gridsnaponopen" : 0,
						"toolbarvisible" : 1,
						"boxanimatetime" : 200,
						"imprint" : 0,
						"metadata" : [  ],
						"boxes" : [ 							{
								"box" : 								{
									"maxclass" : "newobj",
									"text" : "zl nth 2",
									"patching_rect" : [ 55.0, 70.0, 48.0, 19.0 ],
									"id" : "obj-21",
									"fontsize" : 10.0,
									"numinlets" : 2,
									"numoutlets" : 2,
									"outlettype" : [ "", "" ],
									"fontname" : "Verdana"
								}

							}
, 							{
								"box" : 								{
									"maxclass" : "newobj",
									"text" : "sprintf load %s.maxref.xml",
									"patching_rect" : [ 55.0, 95.0, 147.0, 19.0 ],
									"id" : "obj-20",
									"fontsize" : 10.0,
									"numinlets" : 1,
									"numoutlets" : 1,
									"outlettype" : [ "" ],
									"fontname" : "Verdana"
								}

							}
, 							{
								"box" : 								{
									"maxclass" : "newobj",
									"text" : "pcontrol",
									"patching_rect" : [ 55.0, 120.0, 51.0, 19.0 ],
									"id" : "obj-19",
									"fontsize" : 10.0,
									"numinlets" : 1,
									"numoutlets" : 1,
									"outlettype" : [ "" ],
									"fontname" : "Verdana"
								}

							}
, 							{
								"box" : 								{
									"maxclass" : "inlet",
									"patching_rect" : [ 55.0, 40.0, 25.0, 25.0 ],
									"id" : "obj-24",
									"numinlets" : 0,
									"numoutlets" : 1,
									"outlettype" : [ "" ],
									"comment" : ""
								}

							}
 ],
						"lines" : [ 							{
								"patchline" : 								{
									"source" : [ "obj-21", 0 ],
									"destination" : [ "obj-20", 0 ],
									"hidden" : 0,
									"midpoints" : [  ]
								}

							}
, 							{
								"patchline" : 								{
									"source" : [ "obj-20", 0 ],
									"destination" : [ "obj-19", 0 ],
									"hidden" : 0,
									"midpoints" : [  ]
								}

							}
, 							{
								"patchline" : 								{
									"source" : [ "obj-24", 0 ],
									"destination" : [ "obj-21", 0 ],
									"hidden" : 0,
									"midpoints" : [  ]
								}

							}
 ]
					}
,
					"saved_object_attributes" : 					{
						"fontface" : 0,
						"fontsize" : 10.0,
						"globalpatchername" : "",
						"default_fontface" : 0,
						"default_fontname" : "Verdana",
						"fontname" : "Verdana",
						"default_fontsize" : 10.0
					}

				}

			}
, 			{
				"box" : 				{
					"maxclass" : "message",
					"text" : "open jcom.meter~ reference",
					"patching_rect" : [ 150.0, 25.0, 185.0, 19.0 ],
					"id" : "obj-18",
					"fontface" : 2,
					"bgcolor" : [ 0.698039, 0.698039, 0.698039, 0.0 ],
					"fontsize" : 12.0,
					"numinlets" : 2,
					"bgcolor2" : [ 0.698039, 0.698039, 0.698039, 0.0 ],
					"numoutlets" : 1,
					"gradient" : 0,
					"outlettype" : [ "" ],
					"fontname" : "Verdana",
					"frozen_box_attributes" : [ "gradient" ]
				}

			}
, 			{
				"box" : 				{
					"maxclass" : "button",
					"patching_rect" : [ 180.0, 90.0, 20.0, 20.0 ],
					"id" : "obj-4",
					"numinlets" : 1,
					"numoutlets" : 1,
					"outlettype" : [ "bang" ]
				}

			}
, 			{
				"box" : 				{
					"maxclass" : "button",
					"patching_rect" : [ 90.0, 235.0, 20.0, 20.0 ],
					"id" : "obj-16",
					"numinlets" : 1,
					"numoutlets" : 1,
					"outlettype" : [ "bang" ]
				}

			}
, 			{
				"box" : 				{
					"maxclass" : "flonum",
					"maximum" : 1.01,
					"patching_rect" : [ 20.0, 235.0, 50.0, 20.0 ],
					"id" : "obj-15",
					"fontsize" : 10.970939,
					"numinlets" : 1,
					"numoutlets" : 2,
					"outlettype" : [ "float", "bang" ],
					"minimum" : 0.0,
					"fontname" : "Verdana"
				}

			}
, 			{
				"box" : 				{
					"maxclass" : "jcom.meter~",
					"patching_rect" : [ 20.0, 275.0, 143.0, 13.0 ],
					"id" : "obj-1",
					"numinlets" : 1,
					"numoutlets" : 0
				}

			}
, 			{
				"box" : 				{
					"maxclass" : "newobj",
					"text" : "loadmess defeat 1",
					"patching_rect" : [ 140.0, 235.0, 112.0, 20.0 ],
					"id" : "obj-2",
					"fontsize" : 10.970939,
					"numinlets" : 1,
					"numoutlets" : 1,
					"outlettype" : [ "" ],
					"fontname" : "Verdana"
				}

			}
, 			{
				"box" : 				{
					"maxclass" : "toggle",
					"patching_rect" : [ 220.0, 88.0, 18.0, 18.0 ],
					"id" : "obj-5",
					"numinlets" : 1,
					"numoutlets" : 1,
					"outlettype" : [ "int" ]
				}

			}
, 			{
				"box" : 				{
					"maxclass" : "message",
					"text" : "defeat $1",
					"patching_rect" : [ 220.0, 110.0, 63.0, 17.0 ],
					"id" : "obj-6",
					"fontsize" : 10.0,
					"numinlets" : 2,
					"numoutlets" : 1,
					"outlettype" : [ "" ],
					"fontname" : "Verdana"
				}

			}
, 			{
				"box" : 				{
					"maxclass" : "message",
					"text" : "stop",
					"patching_rect" : [ 123.0, 88.0, 33.0, 17.0 ],
					"id" : "obj-7",
					"fontsize" : 10.0,
					"numinlets" : 2,
					"numoutlets" : 1,
					"outlettype" : [ "" ],
					"fontname" : "Verdana"
				}

			}
, 			{
				"box" : 				{
					"maxclass" : "message",
					"text" : "startwindow",
					"patching_rect" : [ 35.0, 88.0, 80.0, 17.0 ],
					"id" : "obj-8",
					"fontsize" : 10.0,
					"numinlets" : 2,
					"numoutlets" : 1,
					"outlettype" : [ "" ],
					"fontname" : "Verdana"
				}

			}
, 			{
				"box" : 				{
					"maxclass" : "comment",
					"text" : "jcom.meter~",
					"patching_rect" : [ 13.0, 13.0, 123.0, 28.0 ],
					"id" : "obj-9",
					"fontsize" : 17.334082,
					"numinlets" : 1,
					"frgb" : [ 0.658824, 0.658824, 0.658824, 1.0 ],
					"numoutlets" : 0,
					"fontname" : "Verdana"
				}

			}
, 			{
				"box" : 				{
					"maxclass" : "comment",
					"text" : "logarithmic level meter",
					"patching_rect" : [ 13.0, 39.0, 127.0, 19.0 ],
					"id" : "obj-10",
					"fontsize" : 10.0,
					"numinlets" : 1,
					"frgb" : [ 0.658824, 0.658824, 0.658824, 1.0 ],
					"numoutlets" : 0,
					"fontname" : "Verdana"
				}

			}
, 			{
				"box" : 				{
					"maxclass" : "panel",
					"patching_rect" : [ 8.0, 9.0, 332.0, 51.0 ],
					"id" : "obj-11",
					"rounded" : 15,
					"numinlets" : 1,
					"numoutlets" : 0
				}

			}
, 			{
				"box" : 				{
					"maxclass" : "jcom.meter~",
					"patching_rect" : [ 35.0, 150.0, 80.0, 13.0 ],
					"id" : "obj-12",
					"numinlets" : 1,
					"numoutlets" : 0
				}

			}
, 			{
				"box" : 				{
					"maxclass" : "newobj",
					"text" : "adc~ 1",
					"patching_rect" : [ 35.0, 115.0, 49.0, 19.0 ],
					"id" : "obj-13",
					"fontsize" : 10.0,
					"numinlets" : 1,
					"numoutlets" : 1,
					"outlettype" : [ "signal" ],
					"fontname" : "Verdana"
				}

			}
, 			{
				"box" : 				{
					"maxclass" : "comment",
					"text" : "Can also be used to display floats as levels",
					"patching_rect" : [ 13.0, 202.0, 244.0, 19.0 ],
					"id" : "obj-14",
					"fontsize" : 10.0,
					"numinlets" : 1,
					"frgb" : [ 0.658824, 0.658824, 0.658824, 1.0 ],
					"numoutlets" : 0,
					"fontname" : "Verdana"
				}

			}
, 			{
				"box" : 				{
					"maxclass" : "panel",
					"patching_rect" : [ 10.0, 80.0, 280.0, 112.0 ],
					"id" : "obj-3",
					"rounded" : 15,
					"numinlets" : 1,
					"numoutlets" : 0
				}

			}
, 			{
				"box" : 				{
					"maxclass" : "panel",
					"patching_rect" : [ 10.0, 200.0, 279.0, 97.0 ],
					"id" : "obj-17",
					"rounded" : 15,
					"numinlets" : 1,
					"numoutlets" : 0
				}

			}
 ],
		"lines" : [ 			{
				"patchline" : 				{
					"source" : [ "obj-4", 0 ],
					"destination" : [ "obj-12", 0 ],
					"hidden" : 0,
					"midpoints" : [ 189.5, 144.0, 44.5, 144.0 ]
				}

			}
, 			{
				"patchline" : 				{
					"source" : [ "obj-16", 0 ],
					"destination" : [ "obj-1", 0 ],
					"hidden" : 0,
					"midpoints" : [ 99.5, 270.0, 29.5, 270.0 ]
				}

			}
, 			{
				"patchline" : 				{
					"source" : [ "obj-7", 0 ],
					"destination" : [ "obj-13", 0 ],
					"hidden" : 0,
					"midpoints" : [ 132.5, 112.0, 44.5, 112.0 ]
				}

			}
, 			{
				"patchline" : 				{
					"source" : [ "obj-8", 0 ],
					"destination" : [ "obj-13", 0 ],
					"hidden" : 0,
					"midpoints" : [ 44.5, 112.0, 44.5, 112.0 ]
				}

			}
, 			{
				"patchline" : 				{
					"source" : [ "obj-6", 0 ],
					"destination" : [ "obj-12", 0 ],
					"hidden" : 0,
					"midpoints" : [ 229.5, 144.0, 44.5, 144.0 ]
				}

			}
, 			{
				"patchline" : 				{
					"source" : [ "obj-13", 0 ],
					"destination" : [ "obj-12", 0 ],
					"hidden" : 0,
					"midpoints" : [  ]
				}

			}
, 			{
				"patchline" : 				{
					"source" : [ "obj-5", 0 ],
					"destination" : [ "obj-6", 0 ],
					"hidden" : 0,
					"midpoints" : [  ]
				}

			}
, 			{
				"patchline" : 				{
					"source" : [ "obj-15", 0 ],
					"destination" : [ "obj-1", 0 ],
					"hidden" : 0,
					"midpoints" : [  ]
				}

			}
, 			{
				"patchline" : 				{
					"source" : [ "obj-18", 0 ],
					"destination" : [ "obj-25", 0 ],
					"hidden" : 1,
					"midpoints" : [  ]
				}

			}
, 			{
				"patchline" : 				{
					"source" : [ "obj-13", 0 ],
					"destination" : [ "obj-19", 0 ],
					"hidden" : 0,
					"midpoints" : [ 44.5, 135.0, 31.0, 135.0, 31.0, 102.0, 20.0, 102.0 ]
				}

			}
 ]
	}

}
