{
	"patcher" : 	{
		"rect" : [ 51.0, 79.0, 644.0, 547.0 ],
		"bgcolor" : [ 1.0, 1.0, 1.0, 1.0 ],
		"bglocked" : 0,
		"defrect" : [ 51.0, 79.0, 644.0, 547.0 ],
		"openinpresentation" : 0,
		"default_fontsize" : 10.0,
		"default_fontface" : 0,
		"default_fontname" : "Verdana",
		"gridonopen" : 0,
		"gridsize" : [ 15.0, 15.0 ],
		"gridsnaponopen" : 0,
		"toolbarvisible" : 1,
		"boxfadetime" : 200,
		"boxanimatetime" : 200,
		"scrollanimatetime" : 200,
		"metadata" : [  ],
		"boxes" : [ 			{
				"box" : 				{
					"maxclass" : "comment",
					"text" : "or list of ints:",
					"patching_rect" : [ 38.0, 118.0, 105.0, 18.0 ],
					"numinlets" : 1,
					"fontname" : "Verdana",
					"numoutlets" : 0,
					"id" : "obj-1",
					"fontsize" : 9.0
				}

			}
, 			{
				"box" : 				{
					"maxclass" : "newobj",
					"text" : "loadmess set",
					"patching_rect" : [ 148.0, 448.0, 81.0, 18.0 ],
					"numinlets" : 1,
					"hidden" : 1,
					"fontname" : "Verdana",
					"numoutlets" : 1,
					"id" : "obj-2",
					"outlettype" : [ "" ],
					"fontsize" : 9.0
				}

			}
, 			{
				"box" : 				{
					"maxclass" : "comment",
					"text" : "packed sends out a single list from the first outlet",
					"patching_rect" : [ 142.0, 203.0, 396.0, 18.0 ],
					"numinlets" : 1,
					"fontname" : "Verdana",
					"numoutlets" : 0,
					"id" : "obj-3",
					"fontsize" : 9.0
				}

			}
, 			{
				"box" : 				{
					"maxclass" : "comment",
					"text" : "split sends out 3 ints.",
					"patching_rect" : [ 142.0, 191.0, 395.0, 18.0 ],
					"numinlets" : 1,
					"fontname" : "Verdana",
					"numoutlets" : 0,
					"id" : "obj-4",
					"fontsize" : 9.0
				}

			}
, 			{
				"box" : 				{
					"maxclass" : "comment",
					"text" : "outputtype",
					"patching_rect" : [ 39.0, 191.0, 116.0, 18.0 ],
					"numinlets" : 1,
					"fontname" : "Verdana",
					"numoutlets" : 0,
					"id" : "obj-5",
					"fontsize" : 9.0
				}

			}
, 			{
				"box" : 				{
					"maxclass" : "comment",
					"text" : "autopack (1\/0):",
					"patching_rect" : [ 39.0, 224.0, 118.0, 18.0 ],
					"numinlets" : 1,
					"fontname" : "Verdana",
					"numoutlets" : 0,
					"id" : "obj-6",
					"fontsize" : 9.0
				}

			}
, 			{
				"box" : 				{
					"maxclass" : "comment",
					"text" : "(split or packed):",
					"patching_rect" : [ 39.0, 203.0, 117.0, 18.0 ],
					"numinlets" : 1,
					"fontname" : "Verdana",
					"numoutlets" : 0,
					"id" : "obj-7",
					"fontsize" : 9.0
				}

			}
, 			{
				"box" : 				{
					"maxclass" : "comment",
					"text" : "mode:",
					"patching_rect" : [ 39.0, 164.0, 76.0, 18.0 ],
					"numinlets" : 1,
					"fontname" : "Verdana",
					"numoutlets" : 0,
					"id" : "obj-8",
					"fontsize" : 9.0
				}

			}
, 			{
				"box" : 				{
					"maxclass" : "comment",
					"text" : "ints,",
					"patching_rect" : [ 38.0, 106.0, 75.0, 18.0 ],
					"numinlets" : 1,
					"fontname" : "Verdana",
					"numoutlets" : 0,
					"id" : "obj-9",
					"fontsize" : 9.0
				}

			}
, 			{
				"box" : 				{
					"maxclass" : "comment",
					"text" : "jcom.colorspace",
					"patching_rect" : [ 21.0, 18.0, 229.0, 28.0 ],
					"numinlets" : 1,
					"fontname" : "Verdana",
					"frgb" : [ 1.0, 1.0, 1.0, 1.0 ],
					"numoutlets" : 0,
					"id" : "obj-10",
					"textcolor" : [ 1.0, 1.0, 1.0, 1.0 ],
					"fontsize" : 15.799999
				}

			}
, 			{
				"box" : 				{
					"maxclass" : "comment",
					"text" : "colorspace conversion",
					"patching_rect" : [ 21.0, 43.0, 345.0, 18.0 ],
					"numinlets" : 1,
					"fontname" : "Verdana",
					"frgb" : [ 1.0, 1.0, 1.0, 1.0 ],
					"numoutlets" : 0,
					"id" : "obj-11",
					"textcolor" : [ 1.0, 1.0, 1.0, 1.0 ],
					"fontsize" : 9.0
				}

			}
, 			{
				"box" : 				{
					"maxclass" : "panel",
					"patching_rect" : [ 16.0, 13.0, 400.0, 50.0 ],
					"numinlets" : 1,
					"numoutlets" : 0,
					"rounded" : 0,
					"id" : "obj-12",
					"bgcolor" : [ 0.262745, 0.254902, 0.419608, 1.0 ]
				}

			}
, 			{
				"box" : 				{
					"maxclass" : "message",
					"patching_rect" : [ 70.0, 474.0, 62.0, 16.0 ],
					"numinlets" : 2,
					"fontname" : "Verdana",
					"numoutlets" : 1,
					"id" : "obj-13",
					"outlettype" : [ "" ],
					"fontsize" : 9.0
				}

			}
, 			{
				"box" : 				{
					"maxclass" : "newobj",
					"text" : "prepend set",
					"patching_rect" : [ 70.0, 448.0, 74.0, 18.0 ],
					"numinlets" : 1,
					"fontname" : "Verdana",
					"numoutlets" : 1,
					"id" : "obj-14",
					"outlettype" : [ "" ],
					"fontsize" : 9.0
				}

			}
, 			{
				"box" : 				{
					"maxclass" : "newobj",
					"text" : "prepend outputtype",
					"patching_rect" : [ 435.0, 313.0, 109.0, 18.0 ],
					"numinlets" : 1,
					"fontname" : "Verdana",
					"numoutlets" : 1,
					"id" : "obj-15",
					"outlettype" : [ "" ],
					"fontsize" : 9.0
				}

			}
, 			{
				"box" : 				{
					"maxclass" : "umenu",
					"patching_rect" : [ 435.0, 289.0, 99.0, 18.0 ],
					"numinlets" : 1,
					"fontname" : "Verdana",
					"numoutlets" : 3,
					"id" : "obj-16",
					"outlettype" : [ "int", "", "" ],
					"labelclick" : 1,
					"items" : [ "split", ",", "packed" ],
					"textcolor" : [ 0.0, 0.0, 0.0, 1.0 ],
					"bgcolor" : [ 0.835294, 0.878431, 0.905882, 1.0 ],
					"types" : [  ],
					"fontsize" : 9.0
				}

			}
, 			{
				"box" : 				{
					"maxclass" : "comment",
					"text" : "Set the type of conversion to perform on the input.",
					"patching_rect" : [ 142.0, 166.0, 469.0, 18.0 ],
					"numinlets" : 1,
					"fontname" : "Verdana",
					"numoutlets" : 0,
					"id" : "obj-17",
					"fontsize" : 9.0
				}

			}
, 			{
				"box" : 				{
					"maxclass" : "newobj",
					"text" : "p credits",
					"patching_rect" : [ 40.0, 508.0, 94.0, 23.0 ],
					"numinlets" : 0,
					"fontname" : "Verdana",
					"numoutlets" : 0,
					"id" : "obj-18",
					"fontsize" : 12.288889,
					"patcher" : 					{
						"rect" : [ 257.0, 136.0, 378.0, 261.0 ],
						"bgcolor" : [ 1.0, 1.0, 1.0, 1.0 ],
						"bglocked" : 0,
						"defrect" : [ 257.0, 136.0, 378.0, 261.0 ],
						"openinpresentation" : 0,
						"default_fontsize" : 10.0,
						"default_fontface" : 0,
						"default_fontname" : "Verdana",
						"gridonopen" : 0,
						"gridsize" : [ 15.0, 15.0 ],
						"gridsnaponopen" : 0,
						"toolbarvisible" : 1,
						"boxfadetime" : 200,
						"boxanimatetime" : 200,
						"scrollanimatetime" : 200,
						"metadata" : [  ],
						"boxes" : [ 							{
								"box" : 								{
									"maxclass" : "comment",
									"text" : "jcom.colorspace is a port to Jamoma of tap.colorspace from TapTools by Tim Place. The conversion routines were taken from Luke Dubois' Percolate Nato external 242.colorspace. His comments below:",
									"linecount" : 3,
									"patching_rect" : [ 12.0, 18.0, 332.0, 38.0 ],
									"numinlets" : 1,
									"fontname" : "Verdana",
									"numoutlets" : 0,
									"id" : "obj-1",
									"fontsize" : 9.0
								}

							}
, 							{
								"box" : 								{
									"maxclass" : "comment",
									"text" : "242.colorspace -- does colorspace conversion on an input image. by r. luke dubois (luke@music.columbia.edu), computer music center, columbia university, 2001.",
									"linecount" : 3,
									"patching_rect" : [ 12.0, 73.0, 301.0, 38.0 ],
									"numinlets" : 1,
									"fontname" : "Verdana",
									"numoutlets" : 0,
									"id" : "obj-2",
									"fontsize" : 9.0
								}

							}
, 							{
								"box" : 								{
									"maxclass" : "comment",
									"text" : "Most of the color conversion routines in this software are taken from Rafael Santos' color image processing toolkit. The copyright below cites the original author. Objects and source are provided without warranty of any kind, express or implied. Copyright (C) 1996, Rafael Santos. Developed at the Ejima Lab \/ Department of Artificial Intelligence, Kyushu Institute of Technology.",
									"linecount" : 6,
									"patching_rect" : [ 13.0, 116.0, 302.0, 70.0 ],
									"numinlets" : 1,
									"fontname" : "Verdana",
									"numoutlets" : 0,
									"id" : "obj-3",
									"fontsize" : 9.0
								}

							}
 ],
						"lines" : [  ]
					}
,
					"saved_object_attributes" : 					{
						"fontname" : "Verdana",
						"default_fontface" : 0,
						"fontface" : 0,
						"default_fontsize" : 10.0,
						"default_fontname" : "Verdana",
						"globalpatchername" : "",
						"fontsize" : 10.0
					}

				}

			}
, 			{
				"box" : 				{
					"maxclass" : "newobj",
					"text" : "print dump",
					"patching_rect" : [ 217.0, 409.0, 71.0, 18.0 ],
					"numinlets" : 1,
					"fontname" : "Verdana",
					"numoutlets" : 0,
					"id" : "obj-19",
					"fontsize" : 9.0
				}

			}
, 			{
				"box" : 				{
					"maxclass" : "newobj",
					"text" : "prepend mode",
					"patching_rect" : [ 327.0, 313.0, 83.0, 18.0 ],
					"numinlets" : 1,
					"fontname" : "Verdana",
					"numoutlets" : 1,
					"id" : "obj-20",
					"outlettype" : [ "" ],
					"fontsize" : 9.0
				}

			}
, 			{
				"box" : 				{
					"maxclass" : "number",
					"patching_rect" : [ 194.0, 290.0, 36.0, 18.0 ],
					"triscale" : 0.9,
					"maximum" : 255,
					"htextcolor" : [ 0.870588, 0.870588, 0.870588, 1.0 ],
					"numinlets" : 1,
					"fontname" : "Verdana",
					"minimum" : 0,
					"numoutlets" : 2,
					"id" : "obj-21",
					"outlettype" : [ "int", "bang" ],
					"bgcolor" : [ 0.866667, 0.866667, 0.866667, 1.0 ],
					"fontsize" : 9.0
				}

			}
, 			{
				"box" : 				{
					"maxclass" : "number",
					"patching_rect" : [ 140.0, 290.0, 36.0, 18.0 ],
					"triscale" : 0.9,
					"maximum" : 255,
					"htextcolor" : [ 0.870588, 0.870588, 0.870588, 1.0 ],
					"numinlets" : 1,
					"fontname" : "Verdana",
					"minimum" : 0,
					"numoutlets" : 2,
					"id" : "obj-22",
					"outlettype" : [ "int", "bang" ],
					"bgcolor" : [ 0.866667, 0.866667, 0.866667, 1.0 ],
					"fontsize" : 9.0
				}

			}
, 			{
				"box" : 				{
					"maxclass" : "number",
					"patching_rect" : [ 86.0, 290.0, 36.0, 18.0 ],
					"triscale" : 0.9,
					"maximum" : 360,
					"htextcolor" : [ 0.870588, 0.870588, 0.870588, 1.0 ],
					"numinlets" : 1,
					"fontname" : "Verdana",
					"minimum" : 0,
					"numoutlets" : 2,
					"id" : "obj-23",
					"outlettype" : [ "int", "bang" ],
					"bgcolor" : [ 0.866667, 0.866667, 0.866667, 1.0 ],
					"fontsize" : 9.0
				}

			}
, 			{
				"box" : 				{
					"maxclass" : "number",
					"patching_rect" : [ 158.0, 412.0, 36.0, 18.0 ],
					"triscale" : 0.9,
					"htextcolor" : [ 0.870588, 0.870588, 0.870588, 1.0 ],
					"numinlets" : 1,
					"fontname" : "Verdana",
					"numoutlets" : 2,
					"id" : "obj-24",
					"outlettype" : [ "int", "bang" ],
					"bgcolor" : [ 0.866667, 0.866667, 0.866667, 1.0 ],
					"fontsize" : 9.0
				}

			}
, 			{
				"box" : 				{
					"maxclass" : "number",
					"patching_rect" : [ 122.0, 412.0, 36.0, 18.0 ],
					"triscale" : 0.9,
					"htextcolor" : [ 0.870588, 0.870588, 0.870588, 1.0 ],
					"numinlets" : 1,
					"fontname" : "Verdana",
					"numoutlets" : 2,
					"id" : "obj-25",
					"outlettype" : [ "int", "bang" ],
					"bgcolor" : [ 0.866667, 0.866667, 0.866667, 1.0 ],
					"fontsize" : 9.0
				}

			}
, 			{
				"box" : 				{
					"maxclass" : "number",
					"patching_rect" : [ 86.0, 412.0, 36.0, 18.0 ],
					"triscale" : 0.9,
					"htextcolor" : [ 0.870588, 0.870588, 0.870588, 1.0 ],
					"numinlets" : 1,
					"fontname" : "Verdana",
					"numoutlets" : 2,
					"id" : "obj-26",
					"outlettype" : [ "int", "bang" ],
					"bgcolor" : [ 0.866667, 0.866667, 0.866667, 1.0 ],
					"fontsize" : 9.0
				}

			}
, 			{
				"box" : 				{
					"maxclass" : "umenu",
					"patching_rect" : [ 327.0, 289.0, 99.0, 18.0 ],
					"numinlets" : 1,
					"fontname" : "Verdana",
					"numoutlets" : 3,
					"id" : "obj-27",
					"outlettype" : [ "int", "", "" ],
					"labelclick" : 1,
					"items" : [ "no_transform", ",", "rgb2cmy", ",", "cmy2rgb", ",", "rgb2hsv", ",", "hsv2rgb", ",", "rgb2xyz", ",", "xyz2rgb", ",", "rgb2uvw", ",", "uvw2rgb", ",", "rgb2retinalcone", ",", "retinalcone2rgb", ",", "rgb2l*a*b ", ",", "l*a*b2rgb", ",", "rgb2yiq", ",", "yiq2rgb", ",", "rgb2hls", ",", "hls2rgb", ",", "rgb2rgbcie", ",", "rgbcie2rgb", ",", "rgb2rgbsmpte", ",", "rgbsmpte2rgb", ",", "rgb2hsl", ",", "hsl2rgb" ],
					"textcolor" : [ 0.0, 0.0, 0.0, 1.0 ],
					"bgcolor" : [ 0.835294, 0.878431, 0.905882, 1.0 ],
					"types" : [  ],
					"fontsize" : 9.0
				}

			}
, 			{
				"box" : 				{
					"maxclass" : "toggle",
					"patching_rect" : [ 545.0, 289.0, 15.0, 15.0 ],
					"numinlets" : 1,
					"numoutlets" : 1,
					"id" : "obj-28",
					"outlettype" : [ "int" ]
				}

			}
, 			{
				"box" : 				{
					"maxclass" : "message",
					"text" : "autopack $1",
					"patching_rect" : [ 545.0, 313.0, 76.0, 16.0 ],
					"numinlets" : 2,
					"fontname" : "Verdana",
					"numoutlets" : 1,
					"id" : "obj-29",
					"outlettype" : [ "" ],
					"fontsize" : 9.0
				}

			}
, 			{
				"box" : 				{
					"maxclass" : "message",
					"text" : "255 20 97",
					"patching_rect" : [ 245.0, 290.0, 67.0, 16.0 ],
					"numinlets" : 2,
					"fontname" : "Verdana",
					"numoutlets" : 1,
					"id" : "obj-30",
					"outlettype" : [ "" ],
					"fontsize" : 9.0
				}

			}
, 			{
				"box" : 				{
					"maxclass" : "button",
					"patching_rect" : [ 50.0, 290.0, 16.0, 16.0 ],
					"numinlets" : 1,
					"numoutlets" : 1,
					"id" : "obj-31",
					"outlettype" : [ "bang" ]
				}

			}
, 			{
				"box" : 				{
					"maxclass" : "newobj",
					"text" : "jcom.colorspace @mode rgb2hsl",
					"linecount" : 2,
					"patching_rect" : [ 86.0, 365.0, 126.0, 30.0 ],
					"numinlets" : 3,
					"fontname" : "Verdana",
					"numoutlets" : 4,
					"id" : "obj-32",
					"outlettype" : [ "", "", "", "" ],
					"fontsize" : 9.0
				}

			}
, 			{
				"box" : 				{
					"maxclass" : "comment",
					"text" : "determines whether or not a new set of calculations is made and output automatically whenever one of the 3 inputs changes.",
					"linecount" : 2,
					"patching_rect" : [ 142.0, 223.0, 370.0, 30.0 ],
					"numinlets" : 1,
					"fontname" : "Verdana",
					"numoutlets" : 0,
					"id" : "obj-33",
					"fontsize" : 9.0
				}

			}
, 			{
				"box" : 				{
					"maxclass" : "comment",
					"text" : "Most numbers should be in the range of 0 to 255, though there are a couple of exceptions (for example HSL translates as 0-360 0-100 0-100)",
					"linecount" : 2,
					"patching_rect" : [ 142.0, 106.0, 374.0, 30.0 ],
					"numinlets" : 1,
					"fontname" : "Verdana",
					"numoutlets" : 0,
					"id" : "obj-34",
					"fontsize" : 9.0
				}

			}
, 			{
				"box" : 				{
					"maxclass" : "comment",
					"text" : "Messages",
					"patching_rect" : [ 21.0, 83.0, 253.0, 21.0 ],
					"numinlets" : 1,
					"fontname" : "Verdana",
					"numoutlets" : 0,
					"id" : "obj-35",
					"fontsize" : 10.533333
				}

			}
, 			{
				"box" : 				{
					"maxclass" : "comment",
					"text" : "Attributes",
					"patching_rect" : [ 21.0, 140.0, 253.0, 21.0 ],
					"numinlets" : 1,
					"fontname" : "Verdana",
					"numoutlets" : 0,
					"id" : "obj-36",
					"fontsize" : 10.533333
				}

			}
 ],
		"lines" : [ 			{
				"patchline" : 				{
					"source" : [ "obj-21", 0 ],
					"destination" : [ "obj-32", 2 ],
					"hidden" : 0
				}

			}
, 			{
				"patchline" : 				{
					"source" : [ "obj-32", 0 ],
					"destination" : [ "obj-14", 0 ],
					"hidden" : 0,
					"midpoints" : [ 95.5, 402.0, 79.5, 402.0 ]
				}

			}
, 			{
				"patchline" : 				{
					"source" : [ "obj-14", 0 ],
					"destination" : [ "obj-13", 0 ],
					"hidden" : 0
				}

			}
, 			{
				"patchline" : 				{
					"source" : [ "obj-2", 0 ],
					"destination" : [ "obj-13", 0 ],
					"hidden" : 1
				}

			}
, 			{
				"patchline" : 				{
					"source" : [ "obj-15", 0 ],
					"destination" : [ "obj-32", 0 ],
					"hidden" : 0,
					"midpoints" : [ 444.5, 347.0, 95.5, 347.0 ]
				}

			}
, 			{
				"patchline" : 				{
					"source" : [ "obj-30", 0 ],
					"destination" : [ "obj-32", 0 ],
					"hidden" : 0,
					"midpoints" : [ 254.5, 347.0, 95.5, 347.0 ]
				}

			}
, 			{
				"patchline" : 				{
					"source" : [ "obj-31", 0 ],
					"destination" : [ "obj-32", 0 ],
					"hidden" : 0,
					"midpoints" : [ 59.5, 347.0, 95.5, 347.0 ]
				}

			}
, 			{
				"patchline" : 				{
					"source" : [ "obj-29", 0 ],
					"destination" : [ "obj-32", 0 ],
					"hidden" : 0,
					"midpoints" : [ 554.5, 347.0, 95.5, 347.0 ]
				}

			}
, 			{
				"patchline" : 				{
					"source" : [ "obj-23", 0 ],
					"destination" : [ "obj-32", 0 ],
					"hidden" : 0
				}

			}
, 			{
				"patchline" : 				{
					"source" : [ "obj-20", 0 ],
					"destination" : [ "obj-32", 0 ],
					"hidden" : 0,
					"midpoints" : [ 336.5, 347.0, 95.5, 347.0 ]
				}

			}
, 			{
				"patchline" : 				{
					"source" : [ "obj-32", 0 ],
					"destination" : [ "obj-26", 0 ],
					"hidden" : 0
				}

			}
, 			{
				"patchline" : 				{
					"source" : [ "obj-32", 1 ],
					"destination" : [ "obj-25", 0 ],
					"hidden" : 0
				}

			}
, 			{
				"patchline" : 				{
					"source" : [ "obj-22", 0 ],
					"destination" : [ "obj-32", 1 ],
					"hidden" : 0
				}

			}
, 			{
				"patchline" : 				{
					"source" : [ "obj-32", 2 ],
					"destination" : [ "obj-24", 0 ],
					"hidden" : 0
				}

			}
, 			{
				"patchline" : 				{
					"source" : [ "obj-32", 3 ],
					"destination" : [ "obj-19", 0 ],
					"hidden" : 0
				}

			}
, 			{
				"patchline" : 				{
					"source" : [ "obj-27", 1 ],
					"destination" : [ "obj-20", 0 ],
					"hidden" : 0,
					"midpoints" : [ 376.5, 309.0, 336.5, 309.0 ]
				}

			}
, 			{
				"patchline" : 				{
					"source" : [ "obj-16", 1 ],
					"destination" : [ "obj-15", 0 ],
					"hidden" : 0,
					"midpoints" : [ 484.5, 309.0, 444.5, 309.0 ]
				}

			}
, 			{
				"patchline" : 				{
					"source" : [ "obj-28", 0 ],
					"destination" : [ "obj-29", 0 ],
					"hidden" : 0
				}

			}
 ]
	}

}
