{
	"patcher" : 	{
		"rect" : [ 82.0, 44.0, 344.0, 383.0 ],
		"bgcolor" : [ 1.0, 1.0, 1.0, 1.0 ],
		"bglocked" : 0,
		"defrect" : [ 82.0, 44.0, 344.0, 383.0 ],
		"openinpresentation" : 0,
		"default_fontsize" : 10.0,
		"default_fontface" : 0,
		"default_fontname" : "Verdana",
		"gridonopen" : 0,
		"gridsize" : [ 15.0, 15.0 ],
		"gridsnaponopen" : 0,
		"toolbarvisible" : 1,
		"boxfadetime" : 200,
		"boxanimatetime" : 200,
		"scrollanimatetime" : 200,
		"metadata" : [  ],
		"boxes" : [ 			{
				"box" : 				{
					"maxclass" : "flonum",
					"fontname" : "Verdana",
					"htextcolor" : [ 0.870588, 0.870588, 0.870588, 1.0 ],
					"numinlets" : 1,
					"triscale" : 0.9,
					"id" : "obj-1",
					"numoutlets" : 2,
					"outlettype" : [ "float", "bang" ],
					"bgcolor" : [ 0.866667, 0.866667, 0.866667, 1.0 ],
					"fontsize" : 9.0,
					"patching_rect" : [ 117.0, 236.0, 39.0, 18.0 ]
				}

			}
, 			{
				"box" : 				{
					"maxclass" : "flonum",
					"fontname" : "Verdana",
					"htextcolor" : [ 0.870588, 0.870588, 0.870588, 1.0 ],
					"numinlets" : 1,
					"triscale" : 0.9,
					"id" : "obj-2",
					"numoutlets" : 2,
					"outlettype" : [ "float", "bang" ],
					"bgcolor" : [ 0.866667, 0.866667, 0.866667, 1.0 ],
					"fontsize" : 9.0,
					"patching_rect" : [ 29.0, 236.0, 53.0, 18.0 ]
				}

			}
, 			{
				"box" : 				{
					"maxclass" : "flonum",
					"fontname" : "Verdana",
					"htextcolor" : [ 0.870588, 0.870588, 0.870588, 1.0 ],
					"numinlets" : 1,
					"triscale" : 0.9,
					"id" : "obj-3",
					"numoutlets" : 2,
					"outlettype" : [ "float", "bang" ],
					"bgcolor" : [ 0.866667, 0.866667, 0.866667, 1.0 ],
					"fontsize" : 9.0,
					"patching_rect" : [ 29.0, 291.0, 55.0, 18.0 ]
				}

			}
, 			{
				"box" : 				{
					"maxclass" : "newobj",
					"text" : "jcom.randomizer 3.",
					"fontname" : "Verdana",
					"numinlets" : 2,
					"id" : "obj-4",
					"numoutlets" : 1,
					"outlettype" : [ "float" ],
					"fontsize" : 9.0,
					"patching_rect" : [ 29.0, 263.0, 122.0, 18.0 ]
				}

			}
, 			{
				"box" : 				{
					"maxclass" : "comment",
					"text" : "output = input +\/- (randomizer)",
					"fontname" : "Verdana",
					"numinlets" : 1,
					"id" : "obj-5",
					"numoutlets" : 0,
					"fontsize" : 9.0,
					"patching_rect" : [ 153.0, 66.0, 215.0, 18.0 ]
				}

			}
, 			{
				"box" : 				{
					"maxclass" : "comment",
					"text" : "Also works with floats",
					"fontname" : "Verdana",
					"numinlets" : 1,
					"id" : "obj-6",
					"numoutlets" : 0,
					"fontsize" : 9.0,
					"patching_rect" : [ 158.0, 272.0, 139.0, 18.0 ]
				}

			}
, 			{
				"box" : 				{
					"maxclass" : "number",
					"fontname" : "Verdana",
					"htextcolor" : [ 0.870588, 0.870588, 0.870588, 1.0 ],
					"numinlets" : 1,
					"triscale" : 0.9,
					"id" : "obj-7",
					"numoutlets" : 2,
					"outlettype" : [ "int", "bang" ],
					"bgcolor" : [ 0.866667, 0.866667, 0.866667, 1.0 ],
					"fontsize" : 9.0,
					"patching_rect" : [ 114.0, 97.0, 37.0, 18.0 ]
				}

			}
, 			{
				"box" : 				{
					"maxclass" : "number",
					"fontname" : "Verdana",
					"htextcolor" : [ 0.870588, 0.870588, 0.870588, 1.0 ],
					"numinlets" : 1,
					"triscale" : 0.9,
					"id" : "obj-8",
					"numoutlets" : 2,
					"outlettype" : [ "int", "bang" ],
					"bgcolor" : [ 0.866667, 0.866667, 0.866667, 1.0 ],
					"fontsize" : 9.0,
					"patching_rect" : [ 29.0, 97.0, 37.0, 18.0 ]
				}

			}
, 			{
				"box" : 				{
					"maxclass" : "number",
					"fontname" : "Verdana",
					"htextcolor" : [ 0.870588, 0.870588, 0.870588, 1.0 ],
					"numinlets" : 1,
					"triscale" : 0.9,
					"id" : "obj-9",
					"numoutlets" : 2,
					"outlettype" : [ "int", "bang" ],
					"bgcolor" : [ 0.866667, 0.866667, 0.866667, 1.0 ],
					"fontsize" : 9.0,
					"patching_rect" : [ 29.0, 152.0, 37.0, 18.0 ]
				}

			}
, 			{
				"box" : 				{
					"maxclass" : "newobj",
					"text" : "jcom.randomizer 3",
					"fontname" : "Verdana",
					"numinlets" : 2,
					"id" : "obj-10",
					"numoutlets" : 1,
					"outlettype" : [ "float" ],
					"fontsize" : 9.0,
					"patching_rect" : [ 29.0, 124.0, 116.0, 18.0 ]
				}

			}
, 			{
				"box" : 				{
					"maxclass" : "comment",
					"text" : "jcom.randomizer",
					"fontname" : "Verdana",
					"numinlets" : 1,
					"id" : "obj-11",
					"frgb" : [ 1.0, 1.0, 1.0, 1.0 ],
					"numoutlets" : 0,
					"textcolor" : [ 1.0, 1.0, 1.0, 1.0 ],
					"fontsize" : 15.799999,
					"patching_rect" : [ 21.0, 17.0, 154.0, 28.0 ]
				}

			}
, 			{
				"box" : 				{
					"maxclass" : "comment",
					"text" : "randomizes the input number a little",
					"fontname" : "Verdana",
					"numinlets" : 1,
					"id" : "obj-12",
					"frgb" : [ 1.0, 1.0, 1.0, 1.0 ],
					"numoutlets" : 0,
					"textcolor" : [ 1.0, 1.0, 1.0, 1.0 ],
					"fontsize" : 9.0,
					"patching_rect" : [ 21.0, 42.0, 213.0, 18.0 ]
				}

			}
, 			{
				"box" : 				{
					"maxclass" : "panel",
					"numinlets" : 1,
					"id" : "obj-13",
					"numoutlets" : 0,
					"rounded" : 0,
					"bgcolor" : [ 0.262745, 0.254902, 0.419608, 1.0 ],
					"patching_rect" : [ 16.0, 12.0, 292.0, 50.0 ]
				}

			}
, 			{
				"box" : 				{
					"maxclass" : "comment",
					"text" : "The argument is the randomizer value (default =100).",
					"linecount" : 3,
					"fontname" : "Verdana",
					"numinlets" : 1,
					"id" : "obj-14",
					"numoutlets" : 0,
					"fontsize" : 9.0,
					"patching_rect" : [ 158.0, 124.0, 115.0, 42.0 ]
				}

			}
 ],
		"lines" : [ 			{
				"patchline" : 				{
					"source" : [ "obj-8", 0 ],
					"destination" : [ "obj-10", 0 ],
					"hidden" : 0
				}

			}
, 			{
				"patchline" : 				{
					"source" : [ "obj-10", 0 ],
					"destination" : [ "obj-9", 0 ],
					"hidden" : 0
				}

			}
, 			{
				"patchline" : 				{
					"source" : [ "obj-2", 0 ],
					"destination" : [ "obj-4", 0 ],
					"hidden" : 0
				}

			}
, 			{
				"patchline" : 				{
					"source" : [ "obj-4", 0 ],
					"destination" : [ "obj-3", 0 ],
					"hidden" : 0
				}

			}
, 			{
				"patchline" : 				{
					"source" : [ "obj-7", 0 ],
					"destination" : [ "obj-10", 1 ],
					"hidden" : 0
				}

			}
, 			{
				"patchline" : 				{
					"source" : [ "obj-1", 0 ],
					"destination" : [ "obj-4", 1 ],
					"hidden" : 0
				}

			}
 ]
	}

}
