{
	"patcher" : 	{
		"rect" : [ 190.0, 159.0, 505.0, 395.0 ],
		"bglocked" : 0,
		"defrect" : [ 190.0, 159.0, 505.0, 395.0 ],
		"openinpresentation" : 0,
		"default_fontsize" : 10.0,
		"default_fontface" : 0,
		"default_fontname" : "Verdana",
		"gridonopen" : 0,
		"gridsize" : [ 5.0, 5.0 ],
		"gridsnaponopen" : 0,
		"toolbarvisible" : 1,
		"boxfadetime" : 200,
		"boxanimatetime" : 200,
		"scrollanimatetime" : 200,
		"metadata" : [  ],
		"boxes" : [ 			{
				"box" : 				{
					"maxclass" : "comment",
					"text" : "Mode 2 is practical to use for saving timetagged files on Mac",
					"linecount" : 2,
					"fontsize" : 9.0,
					"patching_rect" : [ 52.0, 225.0, 217.0, 30.0 ],
					"numinlets" : 1,
					"fontname" : "Verdana",
					"numoutlets" : 0,
					"id" : "obj-1"
				}

			}
, 			{
				"box" : 				{
					"maxclass" : "toggle",
					"outlettype" : [ "int" ],
					"patching_rect" : [ 53.0, 264.0, 15.0, 15.0 ],
					"numinlets" : 1,
					"numoutlets" : 1,
					"id" : "obj-2"
				}

			}
, 			{
				"box" : 				{
					"maxclass" : "newobj",
					"text" : "sel 0 1",
					"outlettype" : [ "bang", "bang", "" ],
					"fontsize" : 9.0,
					"patching_rect" : [ 53.0, 283.0, 83.0, 18.0 ],
					"numinlets" : 1,
					"fontname" : "Verdana",
					"numoutlets" : 3,
					"id" : "obj-3"
				}

			}
, 			{
				"box" : 				{
					"maxclass" : "message",
					"text" : "stop",
					"outlettype" : [ "" ],
					"fontsize" : 9.0,
					"patching_rect" : [ 53.0, 335.0, 33.0, 16.0 ],
					"numinlets" : 2,
					"fontname" : "Verdana",
					"numoutlets" : 1,
					"id" : "obj-4"
				}

			}
, 			{
				"box" : 				{
					"maxclass" : "newobj",
					"text" : "sprintf write %s.mov 30. jpeg normal 600",
					"outlettype" : [ "" ],
					"fontsize" : 9.0,
					"patching_rect" : [ 85.0, 335.0, 255.0, 18.0 ],
					"numinlets" : 1,
					"fontname" : "Verdana",
					"numoutlets" : 1,
					"id" : "obj-5"
				}

			}
, 			{
				"box" : 				{
					"maxclass" : "newobj",
					"text" : "jcom.datetime 2",
					"outlettype" : [ "" ],
					"fontsize" : 9.0,
					"patching_rect" : [ 85.0, 311.0, 103.0, 18.0 ],
					"numinlets" : 1,
					"fontname" : "Verdana",
					"numoutlets" : 1,
					"id" : "obj-6"
				}

			}
, 			{
				"box" : 				{
					"maxclass" : "newobj",
					"text" : "jit.qt.record 640 480",
					"outlettype" : [ "jit_matrix", "" ],
					"fontsize" : 9.0,
					"patching_rect" : [ 85.0, 359.0, 137.0, 18.0 ],
					"numinlets" : 1,
					"fontname" : "Verdana",
					"numoutlets" : 2,
					"id" : "obj-7"
				}

			}
, 			{
				"box" : 				{
					"maxclass" : "number",
					"outlettype" : [ "int", "bang" ],
					"fontsize" : 9.0,
					"htextcolor" : [ 0.870588, 0.870588, 0.870588, 1.0 ],
					"bgcolor" : [ 0.866667, 0.866667, 0.866667, 1.0 ],
					"triscale" : 0.9,
					"patching_rect" : [ 80.0, 108.0, 37.0, 18.0 ],
					"numinlets" : 1,
					"fontname" : "Verdana",
					"numoutlets" : 2,
					"id" : "obj-8"
				}

			}
, 			{
				"box" : 				{
					"maxclass" : "message",
					"text" : "2007-16-11T10-30-11",
					"outlettype" : [ "" ],
					"fontsize" : 9.0,
					"patching_rect" : [ 53.0, 182.0, 146.0, 16.0 ],
					"numinlets" : 2,
					"fontname" : "Verdana",
					"numoutlets" : 1,
					"id" : "obj-9"
				}

			}
, 			{
				"box" : 				{
					"maxclass" : "newobj",
					"text" : "prepend set",
					"outlettype" : [ "" ],
					"fontsize" : 9.0,
					"patching_rect" : [ 53.0, 155.0, 74.0, 18.0 ],
					"numinlets" : 1,
					"fontname" : "Verdana",
					"numoutlets" : 1,
					"id" : "obj-10"
				}

			}
, 			{
				"box" : 				{
					"maxclass" : "button",
					"outlettype" : [ "bang" ],
					"patching_rect" : [ 53.0, 86.0, 15.0, 15.0 ],
					"numinlets" : 1,
					"numoutlets" : 1,
					"id" : "obj-11"
				}

			}
, 			{
				"box" : 				{
					"maxclass" : "newobj",
					"text" : "jcom.datetime",
					"outlettype" : [ "" ],
					"fontsize" : 9.0,
					"patching_rect" : [ 53.0, 132.0, 91.0, 18.0 ],
					"numinlets" : 1,
					"fontname" : "Verdana",
					"numoutlets" : 1,
					"id" : "obj-12"
				}

			}
, 			{
				"box" : 				{
					"maxclass" : "comment",
					"text" : "Bang to output a string of date and time",
					"fontsize" : 9.0,
					"patching_rect" : [ 74.0, 88.0, 231.0, 18.0 ],
					"numinlets" : 1,
					"fontname" : "Verdana",
					"numoutlets" : 0,
					"id" : "obj-13"
				}

			}
, 			{
				"box" : 				{
					"maxclass" : "comment",
					"text" : "jcom.datetime",
					"textcolor" : [ 1.0, 1.0, 1.0, 1.0 ],
					"fontsize" : 16.0,
					"frgb" : [ 1.0, 1.0, 1.0, 1.0 ],
					"patching_rect" : [ 21.0, 18.0, 159.0, 28.0 ],
					"numinlets" : 1,
					"fontname" : "Verdana",
					"numoutlets" : 0,
					"id" : "obj-14"
				}

			}
, 			{
				"box" : 				{
					"maxclass" : "comment",
					"text" : "Returns the date and time in ISO8601 format",
					"textcolor" : [ 1.0, 1.0, 1.0, 1.0 ],
					"fontsize" : 9.0,
					"frgb" : [ 1.0, 1.0, 1.0, 1.0 ],
					"patching_rect" : [ 22.0, 43.0, 237.0, 18.0 ],
					"numinlets" : 1,
					"fontname" : "Verdana",
					"numoutlets" : 0,
					"id" : "obj-15"
				}

			}
, 			{
				"box" : 				{
					"maxclass" : "panel",
					"bgcolor" : [ 0.262745, 0.254902, 0.419608, 1.0 ],
					"rounded" : 0,
					"patching_rect" : [ 16.0, 13.0, 292.0, 50.0 ],
					"numinlets" : 1,
					"numoutlets" : 0,
					"id" : "obj-16"
				}

			}
, 			{
				"box" : 				{
					"maxclass" : "comment",
					"text" : "0 = only date, no time\r1 = date and time in ISO8601 (YYYY-MM-DDTHH:MM:SS)\r2 = date and time in almost ISO8601 (YYYY-MM-DDTHH-MM-SS)",
					"linecount" : 3,
					"fontsize" : 9.0,
					"patching_rect" : [ 152.0, 112.0, 335.0, 42.0 ],
					"numinlets" : 1,
					"fontname" : "Verdana",
					"numoutlets" : 0,
					"id" : "obj-17"
				}

			}
 ],
		"lines" : [ 			{
				"patchline" : 				{
					"source" : [ "obj-8", 0 ],
					"destination" : [ "obj-12", 0 ],
					"hidden" : 0
				}

			}
, 			{
				"patchline" : 				{
					"source" : [ "obj-11", 0 ],
					"destination" : [ "obj-12", 0 ],
					"hidden" : 0
				}

			}
, 			{
				"patchline" : 				{
					"source" : [ "obj-12", 0 ],
					"destination" : [ "obj-10", 0 ],
					"hidden" : 0
				}

			}
, 			{
				"patchline" : 				{
					"source" : [ "obj-10", 0 ],
					"destination" : [ "obj-9", 0 ],
					"hidden" : 0
				}

			}
, 			{
				"patchline" : 				{
					"source" : [ "obj-2", 0 ],
					"destination" : [ "obj-3", 0 ],
					"hidden" : 0
				}

			}
, 			{
				"patchline" : 				{
					"source" : [ "obj-3", 0 ],
					"destination" : [ "obj-4", 0 ],
					"hidden" : 0
				}

			}
, 			{
				"patchline" : 				{
					"source" : [ "obj-3", 1 ],
					"destination" : [ "obj-6", 0 ],
					"hidden" : 0
				}

			}
, 			{
				"patchline" : 				{
					"source" : [ "obj-6", 0 ],
					"destination" : [ "obj-5", 0 ],
					"hidden" : 0
				}

			}
, 			{
				"patchline" : 				{
					"source" : [ "obj-4", 0 ],
					"destination" : [ "obj-7", 0 ],
					"hidden" : 0,
					"midpoints" : [ 62.5, 356.0, 94.5, 356.0 ]
				}

			}
, 			{
				"patchline" : 				{
					"source" : [ "obj-5", 0 ],
					"destination" : [ "obj-7", 0 ],
					"hidden" : 0
				}

			}
 ]
	}

}
