{
	"patcher" : 	{
		"fileversion" : 1,
		"rect" : [ 290.0, 104.0, 344.0, 317.0 ],
		"bglocked" : 0,
		"defrect" : [ 290.0, 104.0, 344.0, 317.0 ],
		"openrect" : [ 0.0, 0.0, 0.0, 0.0 ],
		"openinpresentation" : 0,
		"default_fontsize" : 10.970939,
		"default_fontface" : 0,
		"default_fontname" : "Verdana",
		"gridonopen" : 0,
		"gridsize" : [ 5.0, 5.0 ],
		"gridsnaponopen" : 0,
		"toolbarvisible" : 1,
		"boxanimatetime" : 200,
		"imprint" : 0,
		"metadata" : [  ],
		"boxes" : [ 			{
				"box" : 				{
					"maxclass" : "comment",
					"text" : "jcom.change",
					"fontsize" : 17.553501,
					"textcolor" : [ 1.0, 1.0, 1.0, 1.0 ],
					"frgb" : [ 1.0, 1.0, 1.0, 1.0 ],
					"patching_rect" : [ 4.0, 2.0, 148.0, 28.0 ],
					"id" : "obj-1",
					"numinlets" : 1,
					"fontname" : "Verdana",
					"numoutlets" : 0
				}

			}
, 			{
				"box" : 				{
					"maxclass" : "comment",
					"text" : "Filter repetitions",
					"fontsize" : 9.873845,
					"textcolor" : [ 1.0, 1.0, 1.0, 1.0 ],
					"frgb" : [ 1.0, 1.0, 1.0, 1.0 ],
					"patching_rect" : [ 4.0, 27.0, 92.0, 18.0 ],
					"id" : "obj-2",
					"numinlets" : 1,
					"fontname" : "Verdana",
					"numoutlets" : 0
				}

			}
, 			{
				"box" : 				{
					"maxclass" : "panel",
					"rounded" : 0,
					"patching_rect" : [ 0.0, 0.0, 344.0, 51.0 ],
					"id" : "obj-3",
					"numinlets" : 1,
					"numoutlets" : 0,
					"bgcolor" : [ 0.262745, 0.254902, 0.419608, 1.0 ]
				}

			}
, 			{
				"box" : 				{
					"maxclass" : "comment",
					"text" : "repetitions are filtered out",
					"fontsize" : 9.873845,
					"patching_rect" : [ 22.0, 297.0, 162.0, 18.0 ],
					"id" : "obj-4",
					"numinlets" : 1,
					"fontname" : "Verdana",
					"numoutlets" : 0
				}

			}
, 			{
				"box" : 				{
					"maxclass" : "message",
					"text" : "1 2 3",
					"outlettype" : [ "" ],
					"fontsize" : 9.873845,
					"patching_rect" : [ 270.0, 150.0, 40.0, 16.0 ],
					"id" : "obj-5",
					"numinlets" : 2,
					"fontname" : "Verdana",
					"numoutlets" : 1
				}

			}
, 			{
				"box" : 				{
					"maxclass" : "message",
					"text" : "4 5 6",
					"outlettype" : [ "" ],
					"fontsize" : 9.873845,
					"patching_rect" : [ 150.0, 150.0, 40.0, 16.0 ],
					"id" : "obj-6",
					"numinlets" : 2,
					"fontname" : "Verdana",
					"numoutlets" : 1
				}

			}
, 			{
				"box" : 				{
					"maxclass" : "message",
					"text" : "1 2 3",
					"outlettype" : [ "" ],
					"fontsize" : 9.873845,
					"patching_rect" : [ 105.0, 150.0, 40.0, 16.0 ],
					"id" : "obj-7",
					"numinlets" : 2,
					"fontname" : "Verdana",
					"numoutlets" : 1
				}

			}
, 			{
				"box" : 				{
					"maxclass" : "message",
					"text" : "max",
					"outlettype" : [ "" ],
					"fontsize" : 9.873845,
					"patching_rect" : [ 270.0, 120.0, 33.0, 16.0 ],
					"id" : "obj-8",
					"numinlets" : 2,
					"fontname" : "Verdana",
					"numoutlets" : 1
				}

			}
, 			{
				"box" : 				{
					"maxclass" : "message",
					"text" : "msp",
					"outlettype" : [ "" ],
					"fontsize" : 9.873845,
					"patching_rect" : [ 150.0, 120.0, 29.0, 16.0 ],
					"id" : "obj-9",
					"numinlets" : 2,
					"fontname" : "Verdana",
					"numoutlets" : 1
				}

			}
, 			{
				"box" : 				{
					"maxclass" : "message",
					"text" : "max",
					"outlettype" : [ "" ],
					"fontsize" : 9.873845,
					"patching_rect" : [ 105.0, 120.0, 33.0, 16.0 ],
					"id" : "obj-10",
					"numinlets" : 2,
					"fontname" : "Verdana",
					"numoutlets" : 1
				}

			}
, 			{
				"box" : 				{
					"maxclass" : "newobj",
					"text" : "loadmess set",
					"outlettype" : [ "" ],
					"fontsize" : 9.873845,
					"hidden" : 1,
					"patching_rect" : [ 2.0, 229.0, 78.0, 18.0 ],
					"id" : "obj-11",
					"numinlets" : 1,
					"fontname" : "Verdana",
					"numoutlets" : 1
				}

			}
, 			{
				"box" : 				{
					"maxclass" : "comment",
					"text" : "list",
					"fontsize" : 9.873845,
					"patching_rect" : [ 30.0, 150.0, 32.0, 18.0 ],
					"id" : "obj-12",
					"numinlets" : 1,
					"fontname" : "Verdana",
					"numoutlets" : 0
				}

			}
, 			{
				"box" : 				{
					"maxclass" : "comment",
					"text" : "symbol",
					"fontsize" : 9.873845,
					"patching_rect" : [ 30.0, 120.0, 53.0, 18.0 ],
					"id" : "obj-13",
					"numinlets" : 1,
					"fontname" : "Verdana",
					"numoutlets" : 0
				}

			}
, 			{
				"box" : 				{
					"maxclass" : "message",
					"text" : "1.5",
					"outlettype" : [ "" ],
					"fontsize" : 9.873845,
					"patching_rect" : [ 270.0, 90.0, 29.0, 16.0 ],
					"id" : "obj-14",
					"numinlets" : 2,
					"fontname" : "Verdana",
					"numoutlets" : 1
				}

			}
, 			{
				"box" : 				{
					"maxclass" : "message",
					"text" : "3.14",
					"outlettype" : [ "" ],
					"fontsize" : 9.873845,
					"patching_rect" : [ 150.0, 90.0, 37.0, 16.0 ],
					"id" : "obj-15",
					"numinlets" : 2,
					"fontname" : "Verdana",
					"numoutlets" : 1
				}

			}
, 			{
				"box" : 				{
					"maxclass" : "message",
					"text" : "1.5",
					"outlettype" : [ "" ],
					"fontsize" : 9.873845,
					"patching_rect" : [ 105.0, 90.0, 29.0, 16.0 ],
					"id" : "obj-16",
					"numinlets" : 2,
					"fontname" : "Verdana",
					"numoutlets" : 1
				}

			}
, 			{
				"box" : 				{
					"maxclass" : "comment",
					"text" : "float",
					"fontsize" : 9.873845,
					"patching_rect" : [ 30.0, 90.0, 40.0, 18.0 ],
					"id" : "obj-17",
					"numinlets" : 1,
					"fontname" : "Verdana",
					"numoutlets" : 0
				}

			}
, 			{
				"box" : 				{
					"maxclass" : "button",
					"outlettype" : [ "bang" ],
					"patching_rect" : [ 70.0, 277.0, 15.0, 15.0 ],
					"id" : "obj-18",
					"numinlets" : 1,
					"numoutlets" : 1
				}

			}
, 			{
				"box" : 				{
					"maxclass" : "message",
					"text" : "5",
					"outlettype" : [ "" ],
					"fontsize" : 9.873845,
					"patching_rect" : [ 270.0, 60.0, 18.0, 16.0 ],
					"id" : "obj-19",
					"numinlets" : 2,
					"fontname" : "Verdana",
					"numoutlets" : 1
				}

			}
, 			{
				"box" : 				{
					"maxclass" : "message",
					"outlettype" : [ "" ],
					"fontsize" : 9.873845,
					"patching_rect" : [ 87.0, 277.0, 61.0, 16.0 ],
					"id" : "obj-20",
					"numinlets" : 2,
					"fontname" : "Verdana",
					"numoutlets" : 1
				}

			}
, 			{
				"box" : 				{
					"maxclass" : "newobj",
					"text" : "prepend set",
					"outlettype" : [ "" ],
					"fontsize" : 9.873845,
					"patching_rect" : [ 87.0, 252.0, 74.0, 18.0 ],
					"id" : "obj-21",
					"numinlets" : 1,
					"fontname" : "Verdana",
					"numoutlets" : 1
				}

			}
, 			{
				"box" : 				{
					"maxclass" : "button",
					"outlettype" : [ "bang" ],
					"patching_rect" : [ 198.0, 277.0, 15.0, 15.0 ],
					"id" : "obj-22",
					"numinlets" : 1,
					"numoutlets" : 1
				}

			}
, 			{
				"box" : 				{
					"maxclass" : "message",
					"text" : "5",
					"outlettype" : [ "" ],
					"fontsize" : 9.873845,
					"patching_rect" : [ 135.0, 60.0, 18.0, 16.0 ],
					"id" : "obj-23",
					"numinlets" : 2,
					"fontname" : "Verdana",
					"numoutlets" : 1
				}

			}
, 			{
				"box" : 				{
					"maxclass" : "message",
					"text" : "2",
					"outlettype" : [ "" ],
					"fontsize" : 9.873845,
					"patching_rect" : [ 105.0, 60.0, 18.0, 16.0 ],
					"id" : "obj-24",
					"numinlets" : 2,
					"fontname" : "Verdana",
					"numoutlets" : 1
				}

			}
, 			{
				"box" : 				{
					"maxclass" : "newobj",
					"text" : "jcom.change",
					"outlettype" : [ "", "bang", "" ],
					"fontsize" : 9.873845,
					"patching_rect" : [ 87.0, 225.0, 240.0, 18.0 ],
					"id" : "obj-25",
					"numinlets" : 2,
					"fontname" : "Verdana",
					"numoutlets" : 3
				}

			}
, 			{
				"box" : 				{
					"maxclass" : "comment",
					"text" : "same as previous (bang)",
					"fontsize" : 9.873845,
					"patching_rect" : [ 180.0, 297.0, 144.0, 18.0 ],
					"id" : "obj-26",
					"numinlets" : 1,
					"fontname" : "Verdana",
					"numoutlets" : 0
				}

			}
, 			{
				"box" : 				{
					"maxclass" : "comment",
					"text" : "int",
					"fontsize" : 9.873845,
					"patching_rect" : [ 30.0, 60.0, 29.0, 18.0 ],
					"id" : "obj-27",
					"numinlets" : 1,
					"fontname" : "Verdana",
					"numoutlets" : 0
				}

			}
 ],
		"lines" : [ 			{
				"patchline" : 				{
					"source" : [ "obj-21", 0 ],
					"destination" : [ "obj-18", 0 ],
					"hidden" : 0,
					"midpoints" : [ 96.5, 273.0, 79.0, 273.0 ]
				}

			}
, 			{
				"patchline" : 				{
					"source" : [ "obj-24", 0 ],
					"destination" : [ "obj-25", 0 ],
					"hidden" : 0,
					"midpoints" : [ 114.5, 78.0, 96.0, 78.0, 96.0, 216.0, 96.5, 216.0 ]
				}

			}
, 			{
				"patchline" : 				{
					"source" : [ "obj-23", 0 ],
					"destination" : [ "obj-25", 0 ],
					"hidden" : 0,
					"midpoints" : [ 144.5, 78.0, 96.0, 78.0, 96.0, 216.0, 96.5, 216.0 ]
				}

			}
, 			{
				"patchline" : 				{
					"source" : [ "obj-16", 0 ],
					"destination" : [ "obj-25", 0 ],
					"hidden" : 0,
					"midpoints" : [ 114.5, 108.0, 96.0, 108.0, 96.0, 216.0, 96.5, 216.0 ]
				}

			}
, 			{
				"patchline" : 				{
					"source" : [ "obj-15", 0 ],
					"destination" : [ "obj-25", 0 ],
					"hidden" : 0,
					"midpoints" : [ 159.5, 108.0, 96.0, 108.0, 96.0, 216.0, 96.5, 216.0 ]
				}

			}
, 			{
				"patchline" : 				{
					"source" : [ "obj-10", 0 ],
					"destination" : [ "obj-25", 0 ],
					"hidden" : 0,
					"midpoints" : [ 114.5, 138.0, 96.0, 138.0, 96.0, 216.0, 96.5, 216.0 ]
				}

			}
, 			{
				"patchline" : 				{
					"source" : [ "obj-9", 0 ],
					"destination" : [ "obj-25", 0 ],
					"hidden" : 0,
					"midpoints" : [ 159.5, 138.0, 96.0, 138.0, 96.0, 216.0, 96.5, 216.0 ]
				}

			}
, 			{
				"patchline" : 				{
					"source" : [ "obj-7", 0 ],
					"destination" : [ "obj-25", 0 ],
					"hidden" : 0,
					"midpoints" : [ 114.5, 216.0, 96.5, 216.0 ]
				}

			}
, 			{
				"patchline" : 				{
					"source" : [ "obj-6", 0 ],
					"destination" : [ "obj-25", 0 ],
					"hidden" : 0,
					"midpoints" : [ 159.5, 216.0, 96.5, 216.0 ]
				}

			}
, 			{
				"patchline" : 				{
					"source" : [ "obj-25", 0 ],
					"destination" : [ "obj-21", 0 ],
					"hidden" : 0,
					"midpoints" : [  ]
				}

			}
, 			{
				"patchline" : 				{
					"source" : [ "obj-11", 0 ],
					"destination" : [ "obj-20", 0 ],
					"hidden" : 1,
					"midpoints" : [ 11.5, 270.0, 96.5, 270.0 ]
				}

			}
, 			{
				"patchline" : 				{
					"source" : [ "obj-21", 0 ],
					"destination" : [ "obj-20", 0 ],
					"hidden" : 0,
					"midpoints" : [  ]
				}

			}
, 			{
				"patchline" : 				{
					"source" : [ "obj-25", 1 ],
					"destination" : [ "obj-22", 0 ],
					"hidden" : 0,
					"midpoints" : [ 207.0, 263.0, 207.0, 263.0 ]
				}

			}
, 			{
				"patchline" : 				{
					"source" : [ "obj-19", 0 ],
					"destination" : [ "obj-25", 1 ],
					"hidden" : 0,
					"midpoints" : [ 279.5, 85.0, 317.5, 85.0 ]
				}

			}
, 			{
				"patchline" : 				{
					"source" : [ "obj-14", 0 ],
					"destination" : [ "obj-25", 1 ],
					"hidden" : 0,
					"midpoints" : [ 279.5, 112.0, 317.5, 112.0 ]
				}

			}
, 			{
				"patchline" : 				{
					"source" : [ "obj-8", 0 ],
					"destination" : [ "obj-25", 1 ],
					"hidden" : 0,
					"midpoints" : [ 279.5, 143.0, 317.5, 143.0 ]
				}

			}
, 			{
				"patchline" : 				{
					"source" : [ "obj-5", 0 ],
					"destination" : [ "obj-25", 1 ],
					"hidden" : 0,
					"midpoints" : [ 279.5, 216.0, 317.5, 216.0 ]
				}

			}
 ]
	}

}
