{
	"patcher" : 	{
		"fileversion" : 1,
		"rect" : [ 109.0, 115.0, 494.0, 211.0 ],
		"bglocked" : 0,
		"defrect" : [ 109.0, 115.0, 494.0, 211.0 ],
		"openrect" : [ 0.0, 0.0, 0.0, 0.0 ],
		"openinpresentation" : 0,
		"default_fontsize" : 10.970939,
		"default_fontface" : 0,
		"default_fontname" : "Verdana",
		"gridonopen" : 0,
		"gridsize" : [ 5.0, 5.0 ],
		"gridsnaponopen" : 0,
		"toolbarvisible" : 1,
		"boxanimatetime" : 200,
		"imprint" : 0,
		"metadata" : [  ],
		"boxes" : [ 			{
				"box" : 				{
					"maxclass" : "comment",
					"text" : "Click here to read elaspsed time 'now'",
					"linecount" : 2,
					"fontsize" : 10.0,
					"frgb" : [ 0.337255, 0.356863, 0.690196, 1.0 ],
					"patching_rect" : [ 211.0, 80.0, 121.0, 31.0 ],
					"id" : "obj-1",
					"numinlets" : 1,
					"fontname" : "Verdana",
					"numoutlets" : 0
				}

			}
, 			{
				"box" : 				{
					"maxclass" : "comment",
					"text" : "Click here to start timer",
					"linecount" : 2,
					"fontsize" : 10.0,
					"frgb" : [ 0.337255, 0.356863, 0.690196, 1.0 ],
					"patching_rect" : [ 30.0, 80.0, 84.0, 31.0 ],
					"id" : "obj-2",
					"numinlets" : 1,
					"fontname" : "Verdana",
					"numoutlets" : 0
				}

			}
, 			{
				"box" : 				{
					"maxclass" : "message",
					"text" : "jcom.stats",
					"outlettype" : [ "" ],
					"fontsize" : 10.0,
					"patching_rect" : [ 346.0, 177.0, 70.0, 17.0 ],
					"id" : "obj-3",
					"numinlets" : 2,
					"fontname" : "Verdana",
					"numoutlets" : 1
				}

			}
, 			{
				"box" : 				{
					"maxclass" : "comment",
					"text" : "see also:",
					"fontsize" : 10.0,
					"frgb" : [ 0.337255, 0.356863, 0.690196, 1.0 ],
					"patching_rect" : [ 233.0, 178.0, 70.0, 19.0 ],
					"id" : "obj-4",
					"numinlets" : 1,
					"fontname" : "Verdana",
					"numoutlets" : 0
				}

			}
, 			{
				"box" : 				{
					"maxclass" : "message",
					"text" : "timer",
					"outlettype" : [ "" ],
					"fontsize" : 10.0,
					"patching_rect" : [ 301.0, 177.0, 43.0, 17.0 ],
					"id" : "obj-5",
					"numinlets" : 2,
					"fontname" : "Verdana",
					"numoutlets" : 1
				}

			}
, 			{
				"box" : 				{
					"maxclass" : "newobj",
					"text" : "prepend help",
					"outlettype" : [ "" ],
					"fontsize" : 10.0,
					"hidden" : 1,
					"patching_rect" : [ 301.0, 197.0, 78.0, 19.0 ],
					"id" : "obj-6",
					"numinlets" : 1,
					"fontname" : "Verdana",
					"numoutlets" : 1
				}

			}
, 			{
				"box" : 				{
					"maxclass" : "newobj",
					"text" : "pcontrol",
					"outlettype" : [ "" ],
					"fontsize" : 10.0,
					"hidden" : 1,
					"patching_rect" : [ 301.0, 217.0, 55.0, 19.0 ],
					"id" : "obj-7",
					"numinlets" : 1,
					"fontname" : "Verdana",
					"numoutlets" : 1
				}

			}
, 			{
				"box" : 				{
					"maxclass" : "comment",
					"text" : "jcom.cpu_timer",
					"fontsize" : 17.553501,
					"frgb" : [ 0.337255, 0.356863, 0.690196, 1.0 ],
					"patching_rect" : [ 30.0, 15.0, 191.0, 28.0 ],
					"id" : "obj-8",
					"numinlets" : 1,
					"fontname" : "Verdana",
					"numoutlets" : 0
				}

			}
, 			{
				"box" : 				{
					"maxclass" : "newobj",
					"text" : "jcom.cpu_timer",
					"outlettype" : [ "float" ],
					"fontsize" : 10.0,
					"patching_rect" : [ 335.0, 117.0, 88.0, 19.0 ],
					"id" : "obj-11",
					"numinlets" : 2,
					"fontname" : "Verdana",
					"numoutlets" : 1
				}

			}
, 			{
				"box" : 				{
					"maxclass" : "number",
					"outlettype" : [ "int", "bang" ],
					"fontsize" : 10.0,
					"patching_rect" : [ 335.0, 142.0, 46.0, 19.0 ],
					"triscale" : 0.9,
					"id" : "obj-12",
					"numinlets" : 1,
					"fontname" : "Verdana",
					"numoutlets" : 2
				}

			}
, 			{
				"box" : 				{
					"maxclass" : "button",
					"outlettype" : [ "bang" ],
					"patching_rect" : [ 335.0, 80.0, 20.0, 20.0 ],
					"id" : "obj-13",
					"numinlets" : 1,
					"numoutlets" : 1
				}

			}
, 			{
				"box" : 				{
					"maxclass" : "comment",
					"text" : "Report time between events",
					"linecount" : 2,
					"fontsize" : 10.0,
					"frgb" : [ 0.337255, 0.356863, 0.690196, 1.0 ],
					"patching_rect" : [ 365.0, 80.0, 93.0, 31.0 ],
					"id" : "obj-14",
					"numinlets" : 1,
					"fontname" : "Verdana",
					"numoutlets" : 0
				}

			}
, 			{
				"box" : 				{
					"maxclass" : "flonum",
					"outlettype" : [ "float", "bang" ],
					"fontsize" : 10.0,
					"patching_rect" : [ 102.0, 142.0, 164.0, 19.0 ],
					"triscale" : 0.9,
					"id" : "obj-15",
					"numinlets" : 1,
					"fontname" : "Verdana",
					"numoutlets" : 2
				}

			}
, 			{
				"box" : 				{
					"maxclass" : "button",
					"outlettype" : [ "bang" ],
					"patching_rect" : [ 194.0, 80.0, 20.0, 20.0 ],
					"id" : "obj-16",
					"numinlets" : 1,
					"numoutlets" : 1
				}

			}
, 			{
				"box" : 				{
					"maxclass" : "button",
					"outlettype" : [ "bang" ],
					"patching_rect" : [ 102.0, 80.0, 20.0, 20.0 ],
					"id" : "obj-17",
					"numinlets" : 1,
					"numoutlets" : 1
				}

			}
, 			{
				"box" : 				{
					"maxclass" : "newobj",
					"text" : "jcom.cpu_timer",
					"outlettype" : [ "float" ],
					"fontsize" : 10.0,
					"patching_rect" : [ 102.0, 117.0, 111.0, 19.0 ],
					"id" : "obj-18",
					"numinlets" : 2,
					"fontname" : "Verdana",
					"numoutlets" : 1
				}

			}
, 			{
				"box" : 				{
					"maxclass" : "comment",
					"text" : "Report elapsed time between two events according to the cpu clock",
					"fontsize" : 10.0,
					"frgb" : [ 0.337255, 0.356863, 0.690196, 1.0 ],
					"patching_rect" : [ 30.0, 42.0, 349.0, 19.0 ],
					"id" : "obj-9",
					"numinlets" : 1,
					"fontname" : "Verdana",
					"numoutlets" : 0
				}

			}
, 			{
				"box" : 				{
					"maxclass" : "panel",
					"rounded" : 15,
					"patching_rect" : [ 25.0, 10.0, 368.0, 53.0 ],
					"id" : "obj-10",
					"numinlets" : 1,
					"numoutlets" : 0
				}

			}
 ],
		"lines" : [ 			{
				"patchline" : 				{
					"source" : [ "obj-13", 0 ],
					"destination" : [ "obj-11", 1 ],
					"hidden" : 0,
					"midpoints" : [ 344.5, 114.0, 413.5, 114.0 ]
				}

			}
, 			{
				"patchline" : 				{
					"source" : [ "obj-13", 0 ],
					"destination" : [ "obj-11", 0 ],
					"hidden" : 0,
					"midpoints" : [  ]
				}

			}
, 			{
				"patchline" : 				{
					"source" : [ "obj-11", 0 ],
					"destination" : [ "obj-12", 0 ],
					"hidden" : 0,
					"midpoints" : [  ]
				}

			}
, 			{
				"patchline" : 				{
					"source" : [ "obj-13", 0 ],
					"destination" : [ "obj-11", 0 ],
					"hidden" : 0,
					"midpoints" : [ 344.5, 111.0, 344.5, 111.0 ]
				}

			}
, 			{
				"patchline" : 				{
					"source" : [ "obj-16", 0 ],
					"destination" : [ "obj-18", 1 ],
					"hidden" : 0,
					"midpoints" : [  ]
				}

			}
, 			{
				"patchline" : 				{
					"source" : [ "obj-17", 0 ],
					"destination" : [ "obj-18", 0 ],
					"hidden" : 0,
					"midpoints" : [  ]
				}

			}
, 			{
				"patchline" : 				{
					"source" : [ "obj-18", 0 ],
					"destination" : [ "obj-15", 0 ],
					"hidden" : 0,
					"midpoints" : [  ]
				}

			}
, 			{
				"patchline" : 				{
					"source" : [ "obj-6", 0 ],
					"destination" : [ "obj-7", 0 ],
					"hidden" : 1,
					"midpoints" : [  ]
				}

			}
, 			{
				"patchline" : 				{
					"source" : [ "obj-3", 0 ],
					"destination" : [ "obj-6", 0 ],
					"hidden" : 1,
					"midpoints" : [ 355.5, 194.0, 310.5, 194.0 ]
				}

			}
, 			{
				"patchline" : 				{
					"source" : [ "obj-5", 0 ],
					"destination" : [ "obj-6", 0 ],
					"hidden" : 1,
					"midpoints" : [  ]
				}

			}
 ]
	}

}
