{
	"patcher" : 	{
		"fileversion" : 1,
		"rect" : [ 479.0, 245.0, 640.0, 506.0 ],
		"bglocked" : 0,
		"defrect" : [ 479.0, 245.0, 640.0, 506.0 ],
		"openrect" : [ 0.0, 0.0, 0.0, 0.0 ],
		"openinpresentation" : 0,
		"default_fontsize" : 10.0,
		"default_fontface" : 0,
		"default_fontname" : "Verdana",
		"gridonopen" : 0,
		"gridsize" : [ 10.0, 5.0 ],
		"gridsnaponopen" : 0,
		"toolbarvisible" : 1,
		"boxanimatetime" : 200,
		"imprint" : 0,
		"metadata" : [  ],
		"boxes" : [ 			{
				"box" : 				{
					"maxclass" : "newobj",
					"text" : "jcom.return cow",
					"fontname" : "Verdana",
					"id" : "obj-39",
					"numinlets" : 1,
					"patching_rect" : [ 490.0, 365.0, 93.0, 19.0 ],
					"numoutlets" : 2,
					"fontsize" : 10.0,
					"outlettype" : [ "", "" ]
				}

			}
, 			{
				"box" : 				{
					"maxclass" : "newobj",
					"text" : "jcom.message messy",
					"fontname" : "Verdana",
					"id" : "obj-38",
					"numinlets" : 1,
					"patching_rect" : [ 490.0, 315.0, 118.0, 19.0 ],
					"numoutlets" : 3,
					"fontsize" : 10.0,
					"outlettype" : [ "", "", "" ]
				}

			}
, 			{
				"box" : 				{
					"maxclass" : "newobj",
					"text" : "jcom.parameter bar",
					"fontname" : "Verdana",
					"id" : "obj-37",
					"numinlets" : 1,
					"patching_rect" : [ 490.0, 270.0, 111.0, 19.0 ],
					"numoutlets" : 3,
					"fontsize" : 10.0,
					"outlettype" : [ "", "", "" ]
				}

			}
, 			{
				"box" : 				{
					"maxclass" : "newobj",
					"text" : "jcom.parameter foo",
					"fontname" : "Verdana",
					"id" : "obj-35",
					"numinlets" : 1,
					"patching_rect" : [ 490.0, 245.0, 110.0, 19.0 ],
					"numoutlets" : 3,
					"fontsize" : 10.0,
					"outlettype" : [ "", "", "" ]
				}

			}
, 			{
				"box" : 				{
					"maxclass" : "message",
					"text" : "/init",
					"fontname" : "Verdana",
					"id" : "obj-30",
					"numinlets" : 2,
					"patching_rect" : [ 140.0, 365.0, 32.5, 17.0 ],
					"numoutlets" : 1,
					"fontsize" : 10.0,
					"outlettype" : [ "" ]
				}

			}
, 			{
				"box" : 				{
					"maxclass" : "button",
					"id" : "obj-36",
					"numinlets" : 1,
					"patching_rect" : [ 30.0, 335.0, 20.0, 20.0 ],
					"numoutlets" : 1,
					"outlettype" : [ "bang" ]
				}

			}
, 			{
				"box" : 				{
					"maxclass" : "message",
					"text" : "/init",
					"fontname" : "Verdana",
					"id" : "obj-34",
					"numinlets" : 2,
					"patching_rect" : [ 100.0, 365.0, 32.5, 17.0 ],
					"numoutlets" : 1,
					"fontsize" : 10.0,
					"outlettype" : [ "" ]
				}

			}
, 			{
				"box" : 				{
					"maxclass" : "button",
					"id" : "obj-32",
					"numinlets" : 1,
					"patching_rect" : [ 50.0, 285.0, 20.0, 20.0 ],
					"numoutlets" : 1,
					"outlettype" : [ "bang" ]
				}

			}
, 			{
				"box" : 				{
					"maxclass" : "newobj",
					"text" : "jcom.init",
					"fontname" : "Verdana",
					"id" : "obj-28",
					"numinlets" : 1,
					"patching_rect" : [ 50.0, 310.0, 54.0, 19.0 ],
					"numoutlets" : 2,
					"fontsize" : 10.0,
					"outlettype" : [ "", "" ]
				}

			}
, 			{
				"box" : 				{
					"maxclass" : "message",
					"text" : "/audio/gain 100",
					"fontname" : "Verdana",
					"id" : "obj-31",
					"numinlets" : 2,
					"patching_rect" : [ 410.0, 430.0, 107.0, 17.0 ],
					"numoutlets" : 1,
					"fontsize" : 10.0,
					"outlettype" : [ "" ]
				}

			}
, 			{
				"box" : 				{
					"maxclass" : "button",
					"id" : "obj-29",
					"numinlets" : 1,
					"patching_rect" : [ 380.0, 430.0, 20.0, 20.0 ],
					"numoutlets" : 1,
					"outlettype" : [ "bang" ]
				}

			}
, 			{
				"box" : 				{
					"maxclass" : "newobj",
					"text" : "sel /panel/open",
					"fontname" : "Verdana",
					"id" : "obj-25",
					"numinlets" : 1,
					"patching_rect" : [ 380.0, 400.0, 89.0, 19.0 ],
					"numoutlets" : 2,
					"fontsize" : 10.0,
					"outlettype" : [ "bang", "" ]
				}

			}
, 			{
				"box" : 				{
					"maxclass" : "newobj",
					"text" : "jcom.in",
					"fontname" : "Verdana",
					"id" : "obj-23",
					"numinlets" : 1,
					"patching_rect" : [ 380.0, 375.0, 48.0, 19.0 ],
					"numoutlets" : 2,
					"fontsize" : 10.0,
					"outlettype" : [ "", "" ]
				}

			}
, 			{
				"box" : 				{
					"maxclass" : "newobj",
					"text" : "jcom.hub",
					"fontname" : "Verdana",
					"id" : "obj-19",
					"numinlets" : 1,
					"patching_rect" : [ 100.0, 395.0, 57.0, 19.0 ],
					"numoutlets" : 2,
					"fontsize" : 10.0,
					"outlettype" : [ "", "" ]
				}

			}
, 			{
				"box" : 				{
					"maxclass" : "comment",
					"text" : "gain is in midi units",
					"fontname" : "Verdana",
					"id" : "obj-8",
					"numinlets" : 1,
					"patching_rect" : [ 380.0, 95.0, 137.0, 19.0 ],
					"numoutlets" : 0,
					"fontsize" : 10.0,
					"frgb" : [ 0.933333, 0.937255, 0.968627, 1.0 ]
				}

			}
, 			{
				"box" : 				{
					"maxclass" : "message",
					"text" : "50",
					"fontname" : "Verdana",
					"id" : "obj-27",
					"numinlets" : 2,
					"patching_rect" : [ 340.0, 110.0, 32.5, 17.0 ],
					"numoutlets" : 1,
					"fontsize" : 10.0,
					"outlettype" : [ "" ]
				}

			}
, 			{
				"box" : 				{
					"maxclass" : "message",
					"text" : "100.",
					"fontname" : "Verdana",
					"id" : "obj-26",
					"numinlets" : 2,
					"patching_rect" : [ 280.0, 110.0, 33.0, 17.0 ],
					"numoutlets" : 1,
					"fontsize" : 10.0,
					"outlettype" : [ "" ]
				}

			}
, 			{
				"box" : 				{
					"maxclass" : "button",
					"id" : "obj-24",
					"numinlets" : 1,
					"patching_rect" : [ 320.0, 65.0, 20.0, 20.0 ],
					"numoutlets" : 1,
					"outlettype" : [ "bang" ]
				}

			}
, 			{
				"box" : 				{
					"maxclass" : "message",
					"text" : "mix $1",
					"fontname" : "Verdana",
					"id" : "obj-21",
					"numinlets" : 2,
					"patching_rect" : [ 340.0, 180.0, 45.0, 17.0 ],
					"numoutlets" : 1,
					"fontsize" : 10.0,
					"outlettype" : [ "" ]
				}

			}
, 			{
				"box" : 				{
					"maxclass" : "flonum",
					"fontname" : "Verdana",
					"id" : "obj-22",
					"numinlets" : 1,
					"patching_rect" : [ 340.0, 155.0, 51.0, 19.0 ],
					"numoutlets" : 2,
					"fontsize" : 10.0,
					"outlettype" : [ "float", "bang" ]
				}

			}
, 			{
				"box" : 				{
					"maxclass" : "message",
					"text" : "gain $1",
					"fontname" : "Verdana",
					"id" : "obj-20",
					"numinlets" : 2,
					"patching_rect" : [ 280.0, 180.0, 49.0, 17.0 ],
					"numoutlets" : 1,
					"fontsize" : 10.0,
					"outlettype" : [ "" ]
				}

			}
, 			{
				"box" : 				{
					"maxclass" : "flonum",
					"fontname" : "Verdana",
					"id" : "obj-17",
					"numinlets" : 1,
					"patching_rect" : [ 280.0, 155.0, 51.0, 19.0 ],
					"numoutlets" : 2,
					"fontsize" : 10.0,
					"outlettype" : [ "float", "bang" ]
				}

			}
, 			{
				"box" : 				{
					"maxclass" : "comment",
					"text" : "<-- outlet connects to jit.pwindow for preview",
					"linecount" : 2,
					"fontname" : "Verdana",
					"id" : "obj-18",
					"numinlets" : 1,
					"patching_rect" : [ 190.0, 315.0, 137.0, 31.0 ],
					"numoutlets" : 0,
					"fontsize" : 10.0,
					"frgb" : [ 0.933333, 0.937255, 0.968627, 1.0 ]
				}

			}
, 			{
				"box" : 				{
					"maxclass" : "toggle",
					"id" : "obj-6",
					"numinlets" : 1,
					"patching_rect" : [ 159.0, 40.0, 16.0, 16.0 ],
					"numoutlets" : 1,
					"outlettype" : [ "int" ]
				}

			}
, 			{
				"box" : 				{
					"maxclass" : "message",
					"text" : "has_gain $1",
					"fontname" : "Verdana",
					"id" : "obj-7",
					"numinlets" : 2,
					"patching_rect" : [ 159.0, 59.0, 70.0, 17.0 ],
					"numoutlets" : 1,
					"fontsize" : 10.0,
					"outlettype" : [ "" ]
				}

			}
, 			{
				"box" : 				{
					"maxclass" : "toggle",
					"id" : "obj-1",
					"numinlets" : 1,
					"patching_rect" : [ 139.0, 65.0, 16.0, 16.0 ],
					"numoutlets" : 1,
					"outlettype" : [ "int" ]
				}

			}
, 			{
				"box" : 				{
					"maxclass" : "message",
					"text" : "has_mix $1",
					"fontname" : "Verdana",
					"id" : "obj-5",
					"numinlets" : 2,
					"patching_rect" : [ 139.0, 84.0, 67.0, 17.0 ],
					"numoutlets" : 1,
					"fontsize" : 10.0,
					"outlettype" : [ "" ]
				}

			}
, 			{
				"box" : 				{
					"maxclass" : "toggle",
					"id" : "obj-15",
					"numinlets" : 1,
					"patching_rect" : [ 45.0, 188.0, 16.0, 16.0 ],
					"numoutlets" : 1,
					"outlettype" : [ "int" ]
				}

			}
, 			{
				"box" : 				{
					"maxclass" : "message",
					"text" : "has_inspector $1",
					"fontname" : "Verdana",
					"id" : "obj-16",
					"numinlets" : 2,
					"patching_rect" : [ 45.0, 207.0, 95.0, 17.0 ],
					"numoutlets" : 1,
					"fontsize" : 10.0,
					"outlettype" : [ "" ]
				}

			}
, 			{
				"box" : 				{
					"maxclass" : "toggle",
					"id" : "obj-13",
					"numinlets" : 1,
					"patching_rect" : [ 119.0, 90.0, 16.0, 16.0 ],
					"numoutlets" : 1,
					"outlettype" : [ "int" ]
				}

			}
, 			{
				"box" : 				{
					"maxclass" : "message",
					"text" : "has_mute $1",
					"fontname" : "Verdana",
					"id" : "obj-14",
					"numinlets" : 2,
					"patching_rect" : [ 119.0, 109.0, 75.0, 17.0 ],
					"numoutlets" : 1,
					"fontsize" : 10.0,
					"outlettype" : [ "" ]
				}

			}
, 			{
				"box" : 				{
					"maxclass" : "toggle",
					"id" : "obj-11",
					"numinlets" : 1,
					"patching_rect" : [ 101.0, 115.0, 16.0, 16.0 ],
					"numoutlets" : 1,
					"outlettype" : [ "int" ]
				}

			}
, 			{
				"box" : 				{
					"maxclass" : "message",
					"text" : "has_bypass $1",
					"fontname" : "Verdana",
					"id" : "obj-12",
					"numinlets" : 2,
					"patching_rect" : [ 101.0, 134.0, 83.0, 17.0 ],
					"numoutlets" : 1,
					"fontsize" : 10.0,
					"outlettype" : [ "" ]
				}

			}
, 			{
				"box" : 				{
					"maxclass" : "toggle",
					"id" : "obj-9",
					"numinlets" : 1,
					"patching_rect" : [ 83.0, 140.0, 16.0, 16.0 ],
					"numoutlets" : 1,
					"outlettype" : [ "int" ]
				}

			}
, 			{
				"box" : 				{
					"maxclass" : "message",
					"text" : "has_freeze $1",
					"fontname" : "Verdana",
					"id" : "obj-10",
					"numinlets" : 2,
					"patching_rect" : [ 83.0, 159.0, 79.0, 17.0 ],
					"numoutlets" : 1,
					"fontsize" : 10.0,
					"outlettype" : [ "" ]
				}

			}
, 			{
				"box" : 				{
					"maxclass" : "toggle",
					"id" : "obj-4",
					"numinlets" : 1,
					"patching_rect" : [ 65.0, 165.0, 16.0, 16.0 ],
					"numoutlets" : 1,
					"outlettype" : [ "int" ]
				}

			}
, 			{
				"box" : 				{
					"maxclass" : "jcom.ui",
					"text" : "/editing_this_module.1",
					"id" : "obj-2",
					"has_freeze" : 1,
					"has_mix" : 1,
					"numinlets" : 1,
					"has_mute" : 1,
					"patching_rect" : [ 166.0, 241.0, 300.0, 70.0 ],
					"numoutlets" : 1,
					"has_preview" : 1,
					"outlettype" : [ "" ],
					"textcolor" : [ 0.65, 0.65, 0.65, 1.0 ],
					"has_bypass" : 1,
					"has_gain" : 1
				}

			}
, 			{
				"box" : 				{
					"maxclass" : "message",
					"text" : "has_preview $1",
					"fontname" : "Verdana",
					"id" : "obj-3",
					"numinlets" : 2,
					"patching_rect" : [ 65.0, 184.0, 88.0, 17.0 ],
					"numoutlets" : 1,
					"fontsize" : 10.0,
					"outlettype" : [ "" ]
				}

			}
, 			{
				"box" : 				{
					"maxclass" : "message",
					"text" : "name foo",
					"fontname" : "Verdana",
					"id" : "obj-33",
					"numinlets" : 2,
					"patching_rect" : [ 175.5, 365.0, 58.0, 17.0 ],
					"numoutlets" : 1,
					"fontsize" : 10.0,
					"outlettype" : [ "" ]
				}

			}
 ],
		"lines" : [ 			{
				"patchline" : 				{
					"source" : [ "obj-34", 0 ],
					"destination" : [ "obj-19", 0 ],
					"hidden" : 0,
					"midpoints" : [  ]
				}

			}
, 			{
				"patchline" : 				{
					"source" : [ "obj-33", 0 ],
					"destination" : [ "obj-19", 0 ],
					"hidden" : 0,
					"midpoints" : [  ]
				}

			}
, 			{
				"patchline" : 				{
					"source" : [ "obj-25", 1 ],
					"destination" : [ "obj-31", 1 ],
					"hidden" : 0,
					"midpoints" : [ 459.5, 425.0, 507.5, 425.0 ]
				}

			}
, 			{
				"patchline" : 				{
					"source" : [ "obj-25", 0 ],
					"destination" : [ "obj-29", 0 ],
					"hidden" : 0,
					"midpoints" : [  ]
				}

			}
, 			{
				"patchline" : 				{
					"source" : [ "obj-23", 0 ],
					"destination" : [ "obj-25", 0 ],
					"hidden" : 0,
					"midpoints" : [  ]
				}

			}
, 			{
				"patchline" : 				{
					"source" : [ "obj-7", 0 ],
					"destination" : [ "obj-2", 0 ],
					"hidden" : 0,
					"midpoints" : [  ]
				}

			}
, 			{
				"patchline" : 				{
					"source" : [ "obj-5", 0 ],
					"destination" : [ "obj-2", 0 ],
					"hidden" : 0,
					"midpoints" : [  ]
				}

			}
, 			{
				"patchline" : 				{
					"source" : [ "obj-6", 0 ],
					"destination" : [ "obj-7", 0 ],
					"hidden" : 0,
					"midpoints" : [  ]
				}

			}
, 			{
				"patchline" : 				{
					"source" : [ "obj-1", 0 ],
					"destination" : [ "obj-5", 0 ],
					"hidden" : 0,
					"midpoints" : [  ]
				}

			}
, 			{
				"patchline" : 				{
					"source" : [ "obj-3", 0 ],
					"destination" : [ "obj-2", 0 ],
					"hidden" : 0,
					"midpoints" : [  ]
				}

			}
, 			{
				"patchline" : 				{
					"source" : [ "obj-4", 0 ],
					"destination" : [ "obj-3", 0 ],
					"hidden" : 0,
					"midpoints" : [  ]
				}

			}
, 			{
				"patchline" : 				{
					"source" : [ "obj-9", 0 ],
					"destination" : [ "obj-10", 0 ],
					"hidden" : 0,
					"midpoints" : [  ]
				}

			}
, 			{
				"patchline" : 				{
					"source" : [ "obj-11", 0 ],
					"destination" : [ "obj-12", 0 ],
					"hidden" : 0,
					"midpoints" : [  ]
				}

			}
, 			{
				"patchline" : 				{
					"source" : [ "obj-13", 0 ],
					"destination" : [ "obj-14", 0 ],
					"hidden" : 0,
					"midpoints" : [  ]
				}

			}
, 			{
				"patchline" : 				{
					"source" : [ "obj-15", 0 ],
					"destination" : [ "obj-16", 0 ],
					"hidden" : 0,
					"midpoints" : [  ]
				}

			}
, 			{
				"patchline" : 				{
					"source" : [ "obj-16", 0 ],
					"destination" : [ "obj-2", 0 ],
					"hidden" : 0,
					"midpoints" : [  ]
				}

			}
, 			{
				"patchline" : 				{
					"source" : [ "obj-10", 0 ],
					"destination" : [ "obj-2", 0 ],
					"hidden" : 0,
					"midpoints" : [  ]
				}

			}
, 			{
				"patchline" : 				{
					"source" : [ "obj-12", 0 ],
					"destination" : [ "obj-2", 0 ],
					"hidden" : 0,
					"midpoints" : [  ]
				}

			}
, 			{
				"patchline" : 				{
					"source" : [ "obj-14", 0 ],
					"destination" : [ "obj-2", 0 ],
					"hidden" : 0,
					"midpoints" : [  ]
				}

			}
, 			{
				"patchline" : 				{
					"source" : [ "obj-17", 0 ],
					"destination" : [ "obj-20", 0 ],
					"hidden" : 0,
					"midpoints" : [  ]
				}

			}
, 			{
				"patchline" : 				{
					"source" : [ "obj-20", 0 ],
					"destination" : [ "obj-2", 0 ],
					"hidden" : 0,
					"midpoints" : [  ]
				}

			}
, 			{
				"patchline" : 				{
					"source" : [ "obj-22", 0 ],
					"destination" : [ "obj-21", 0 ],
					"hidden" : 0,
					"midpoints" : [  ]
				}

			}
, 			{
				"patchline" : 				{
					"source" : [ "obj-24", 0 ],
					"destination" : [ "obj-26", 0 ],
					"hidden" : 0,
					"midpoints" : [  ]
				}

			}
, 			{
				"patchline" : 				{
					"source" : [ "obj-26", 0 ],
					"destination" : [ "obj-17", 0 ],
					"hidden" : 0,
					"midpoints" : [  ]
				}

			}
, 			{
				"patchline" : 				{
					"source" : [ "obj-21", 0 ],
					"destination" : [ "obj-2", 0 ],
					"hidden" : 0,
					"midpoints" : [  ]
				}

			}
, 			{
				"patchline" : 				{
					"source" : [ "obj-27", 0 ],
					"destination" : [ "obj-22", 0 ],
					"hidden" : 0,
					"midpoints" : [  ]
				}

			}
, 			{
				"patchline" : 				{
					"source" : [ "obj-24", 0 ],
					"destination" : [ "obj-27", 0 ],
					"hidden" : 0,
					"midpoints" : [  ]
				}

			}
, 			{
				"patchline" : 				{
					"source" : [ "obj-32", 0 ],
					"destination" : [ "obj-28", 0 ],
					"hidden" : 0,
					"midpoints" : [  ]
				}

			}
, 			{
				"patchline" : 				{
					"source" : [ "obj-28", 0 ],
					"destination" : [ "obj-36", 0 ],
					"hidden" : 0,
					"midpoints" : [  ]
				}

			}
 ]
	}

}
