{
	"patcher" : 	{
		"fileversion" : 1,
		"rect" : [ 43.0, 74.0, 590.0, 385.0 ],
		"bglocked" : 0,
		"defrect" : [ 43.0, 74.0, 590.0, 385.0 ],
		"openrect" : [ 0.0, 0.0, 0.0, 0.0 ],
		"openinpresentation" : 0,
		"default_fontsize" : 10.970939,
		"default_fontface" : 0,
		"default_fontname" : "Verdana",
		"gridonopen" : 0,
		"gridsize" : [ 5.0, 5.0 ],
		"gridsnaponopen" : 0,
		"toolbarvisible" : 1,
		"boxanimatetime" : 200,
		"imprint" : 0,
		"metadata" : [  ],
		"boxes" : [ 			{
				"box" : 				{
					"maxclass" : "comment",
					"text" : "jcom.multi.in%",
					"patching_rect" : [ 15.0, 15.0, 145.0, 28.0 ],
					"frgb" : [ 1.0, 1.0, 1.0, 1.0 ],
					"id" : "obj-1",
					"fontname" : "Verdana",
					"textcolor" : [ 1.0, 1.0, 1.0, 1.0 ],
					"numinlets" : 1,
					"fontsize" : 17.334082,
					"numoutlets" : 0
				}

			}
, 			{
				"box" : 				{
					"maxclass" : "comment",
					"text" : "Put video signals on a multicable",
					"patching_rect" : [ 15.0, 40.0, 355.0, 19.0 ],
					"frgb" : [ 0.933333, 0.937255, 0.968627, 1.0 ],
					"id" : "obj-2",
					"fontname" : "Verdana",
					"numinlets" : 1,
					"fontsize" : 10.0,
					"numoutlets" : 0
				}

			}
, 			{
				"box" : 				{
					"maxclass" : "panel",
					"patching_rect" : [ 10.0, 10.0, 400.0, 50.0 ],
					"id" : "obj-3",
					"rounded" : 15,
					"numinlets" : 1,
					"numoutlets" : 0
				}

			}
, 			{
				"box" : 				{
					"maxclass" : "comment",
					"text" : "the syncinlet message determines which inlet outputs the multimatrix. This can also be set as argument. default : 1 (inputs start at 1)",
					"linecount" : 3,
					"patching_rect" : [ 275.0, 85.0, 259.0, 43.0 ],
					"frgb" : [ 0.933333, 0.937255, 0.968627, 1.0 ],
					"id" : "obj-4",
					"fontname" : "Verdana",
					"numinlets" : 1,
					"fontsize" : 10.0,
					"numoutlets" : 0
				}

			}
, 			{
				"box" : 				{
					"maxclass" : "number",
					"patching_rect" : [ 470.0, 140.0, 37.0, 19.0 ],
					"id" : "obj-5",
					"fontname" : "Verdana",
					"numinlets" : 1,
					"fontsize" : 10.0,
					"numoutlets" : 2,
					"triscale" : 0.9,
					"outlettype" : [ "int", "bang" ]
				}

			}
, 			{
				"box" : 				{
					"maxclass" : "message",
					"text" : "syncinlet $1",
					"patching_rect" : [ 470.0, 165.0, 80.0, 17.0 ],
					"id" : "obj-6",
					"fontname" : "Verdana",
					"numinlets" : 2,
					"fontsize" : 10.0,
					"numoutlets" : 1,
					"outlettype" : [ "" ]
				}

			}
, 			{
				"box" : 				{
					"maxclass" : "newobj",
					"text" : "jcom.multi.in%",
					"patching_rect" : [ 30.0, 205.0, 458.5, 19.0 ],
					"id" : "obj-7",
					"fontname" : "Verdana",
					"numinlets" : 16,
					"fontsize" : 10.0,
					"numoutlets" : 1,
					"outlettype" : [ "" ]
				}

			}
, 			{
				"box" : 				{
					"maxclass" : "jit.fpsgui",
					"patching_rect" : [ 30.0, 305.0, 60.0, 35.0 ],
					"id" : "obj-8",
					"fontname" : "Verdana",
					"numinlets" : 1,
					"fontsize" : 10.0,
					"numoutlets" : 2,
					"outlettype" : [ "", "" ]
				}

			}
, 			{
				"box" : 				{
					"maxclass" : "jit.pwindow",
					"patching_rect" : [ 325.0, 305.0, 80.0, 60.0 ],
					"id" : "obj-9",
					"depthbuffer" : 0,
					"numinlets" : 1,
					"numoutlets" : 2,
					"outlettype" : [ "", "" ]
				}

			}
, 			{
				"box" : 				{
					"maxclass" : "jit.pwindow",
					"patching_rect" : [ 195.0, 305.0, 80.0, 60.0 ],
					"id" : "obj-10",
					"depthbuffer" : 0,
					"numinlets" : 1,
					"numoutlets" : 2,
					"outlettype" : [ "", "" ]
				}

			}
, 			{
				"box" : 				{
					"maxclass" : "jit.pwindow",
					"patching_rect" : [ 105.0, 305.0, 80.0, 60.0 ],
					"id" : "obj-11",
					"depthbuffer" : 0,
					"numinlets" : 1,
					"numoutlets" : 2,
					"outlettype" : [ "", "" ]
				}

			}
, 			{
				"box" : 				{
					"maxclass" : "newobj",
					"text" : "jcom.multi.out%",
					"patching_rect" : [ 30.0, 245.0, 458.5, 19.0 ],
					"id" : "obj-12",
					"fontname" : "Verdana",
					"numinlets" : 1,
					"fontsize" : 10.0,
					"numoutlets" : 16,
					"outlettype" : [ "", "", "", "", "", "", "", "", "", "", "", "", "", "", "", "" ]
				}

			}
, 			{
				"box" : 				{
					"maxclass" : "newobj",
					"text" : "jit.qt.movie 320 240",
					"patching_rect" : [ 325.0, 165.0, 130.0, 19.0 ],
					"id" : "obj-13",
					"fontname" : "Verdana",
					"numinlets" : 1,
					"fontsize" : 10.0,
					"numoutlets" : 2,
					"outlettype" : [ "jit_matrix", "" ]
				}

			}
, 			{
				"box" : 				{
					"maxclass" : "newobj",
					"text" : "jit.qt.movie 320 240",
					"patching_rect" : [ 175.0, 165.0, 130.0, 19.0 ],
					"id" : "obj-14",
					"fontname" : "Verdana",
					"numinlets" : 1,
					"fontsize" : 10.0,
					"numoutlets" : 2,
					"outlettype" : [ "jit_matrix", "" ]
				}

			}
, 			{
				"box" : 				{
					"maxclass" : "message",
					"text" : "read",
					"patching_rect" : [ 95.0, 125.0, 34.0, 17.0 ],
					"id" : "obj-15",
					"fontname" : "Verdana",
					"numinlets" : 2,
					"fontsize" : 10.0,
					"numoutlets" : 1,
					"outlettype" : [ "" ]
				}

			}
, 			{
				"box" : 				{
					"maxclass" : "toggle",
					"patching_rect" : [ 30.0, 100.0, 20.0, 20.0 ],
					"id" : "obj-16",
					"numinlets" : 1,
					"numoutlets" : 1,
					"outlettype" : [ "int" ]
				}

			}
, 			{
				"box" : 				{
					"maxclass" : "newobj",
					"text" : "qmetro 2",
					"patching_rect" : [ 30.0, 125.0, 62.0, 19.0 ],
					"id" : "obj-17",
					"fontname" : "Verdana",
					"numinlets" : 2,
					"fontsize" : 10.0,
					"numoutlets" : 1,
					"outlettype" : [ "bang" ]
				}

			}
, 			{
				"box" : 				{
					"maxclass" : "newobj",
					"text" : "jit.qt.movie 320 240",
					"patching_rect" : [ 30.0, 165.0, 130.0, 19.0 ],
					"id" : "obj-18",
					"fontname" : "Verdana",
					"numinlets" : 1,
					"fontsize" : 10.0,
					"numoutlets" : 2,
					"outlettype" : [ "jit_matrix", "" ]
				}

			}
 ],
		"lines" : [ 			{
				"patchline" : 				{
					"source" : [ "obj-5", 0 ],
					"destination" : [ "obj-6", 0 ],
					"hidden" : 0,
					"midpoints" : [  ]
				}

			}
, 			{
				"patchline" : 				{
					"source" : [ "obj-15", 0 ],
					"destination" : [ "obj-13", 0 ],
					"hidden" : 0,
					"midpoints" : [ 104.5, 152.0, 334.5, 152.0 ]
				}

			}
, 			{
				"patchline" : 				{
					"source" : [ "obj-17", 0 ],
					"destination" : [ "obj-13", 0 ],
					"hidden" : 0,
					"midpoints" : [ 39.5, 152.0, 334.5, 152.0 ]
				}

			}
, 			{
				"patchline" : 				{
					"source" : [ "obj-15", 0 ],
					"destination" : [ "obj-14", 0 ],
					"hidden" : 0,
					"midpoints" : [ 104.5, 152.0, 184.5, 152.0 ]
				}

			}
, 			{
				"patchline" : 				{
					"source" : [ "obj-17", 0 ],
					"destination" : [ "obj-14", 0 ],
					"hidden" : 0,
					"midpoints" : [ 39.5, 152.0, 184.5, 152.0 ]
				}

			}
, 			{
				"patchline" : 				{
					"source" : [ "obj-15", 0 ],
					"destination" : [ "obj-18", 0 ],
					"hidden" : 0,
					"midpoints" : [ 104.5, 152.0, 39.5, 152.0 ]
				}

			}
, 			{
				"patchline" : 				{
					"source" : [ "obj-17", 0 ],
					"destination" : [ "obj-18", 0 ],
					"hidden" : 0,
					"midpoints" : [ 39.5, 154.0, 39.5, 154.0 ]
				}

			}
, 			{
				"patchline" : 				{
					"source" : [ "obj-16", 0 ],
					"destination" : [ "obj-17", 0 ],
					"hidden" : 0,
					"midpoints" : [  ]
				}

			}
, 			{
				"patchline" : 				{
					"source" : [ "obj-18", 0 ],
					"destination" : [ "obj-7", 0 ],
					"hidden" : 0,
					"midpoints" : [  ]
				}

			}
, 			{
				"patchline" : 				{
					"source" : [ "obj-14", 0 ],
					"destination" : [ "obj-7", 3 ],
					"hidden" : 0,
					"midpoints" : [ 184.5, 191.0, 127.400002, 191.0 ]
				}

			}
, 			{
				"patchline" : 				{
					"source" : [ "obj-13", 0 ],
					"destination" : [ "obj-7", 11 ],
					"hidden" : 0,
					"midpoints" : [ 334.5, 195.0, 361.799988, 195.0 ]
				}

			}
, 			{
				"patchline" : 				{
					"source" : [ "obj-6", 0 ],
					"destination" : [ "obj-7", 15 ],
					"hidden" : 0,
					"midpoints" : [  ]
				}

			}
, 			{
				"patchline" : 				{
					"source" : [ "obj-7", 0 ],
					"destination" : [ "obj-12", 0 ],
					"hidden" : 0,
					"midpoints" : [  ]
				}

			}
, 			{
				"patchline" : 				{
					"source" : [ "obj-12", 0 ],
					"destination" : [ "obj-8", 0 ],
					"hidden" : 0,
					"midpoints" : [  ]
				}

			}
, 			{
				"patchline" : 				{
					"source" : [ "obj-12", 0 ],
					"destination" : [ "obj-11", 0 ],
					"hidden" : 0,
					"midpoints" : [ 39.5, 291.0, 114.5, 291.0 ]
				}

			}
, 			{
				"patchline" : 				{
					"source" : [ "obj-12", 3 ],
					"destination" : [ "obj-10", 0 ],
					"hidden" : 0,
					"midpoints" : [ 127.400002, 291.0, 204.5, 291.0 ]
				}

			}
, 			{
				"patchline" : 				{
					"source" : [ "obj-12", 11 ],
					"destination" : [ "obj-9", 0 ],
					"hidden" : 0,
					"midpoints" : [ 361.799988, 288.0, 334.5, 288.0 ]
				}

			}
 ]
	}

}
