{
	"patcher" : 	{
		"rect" : [ 436.0, 74.0, 439.0, 440.0 ],
		"bgcolor" : [ 1.0, 1.0, 1.0, 1.0 ],
		"bglocked" : 0,
		"defrect" : [ 436.0, 74.0, 439.0, 440.0 ],
		"openinpresentation" : 0,
		"default_fontsize" : 10.0,
		"default_fontface" : 0,
		"default_fontname" : "Verdana",
		"gridonopen" : 0,
		"gridsize" : [ 5.0, 5.0 ],
		"gridsnaponopen" : 0,
		"toolbarvisible" : 1,
		"boxfadetime" : 200,
		"boxanimatetime" : 200,
		"scrollanimatetime" : 200,
		"metadata" : [  ],
		"boxes" : [ 			{
				"box" : 				{
					"maxclass" : "comment",
					"text" : "another important function they provide is bypassing and wet\/dry mix. for muting, the jcom.out~ does zero the output signals for you, but it is expected that you will handle the mute message yourself so that your algorithm does not use CPU (using poly~ or pcontrol).",
					"linecount" : 4,
					"fontname" : "Verdana",
					"numinlets" : 1,
					"id" : "obj-1",
					"numoutlets" : 0,
					"fontsize" : 9.0,
					"patching_rect" : [ 28.0, 331.0, 354.0, 54.0 ]
				}

			}
, 			{
				"box" : 				{
					"maxclass" : "comment",
					"text" : "jcom.in~ and jcom.out~ do the communication in a module between the hub and the algorithm. jcom.out~, for example, sends the results of its internal envelope follower to the hub so that the audio level meters can be updated.",
					"linecount" : 3,
					"fontname" : "Verdana",
					"numinlets" : 1,
					"id" : "obj-2",
					"numoutlets" : 0,
					"fontsize" : 9.0,
					"patching_rect" : [ 28.0, 288.0, 407.0, 42.0 ]
				}

			}
, 			{
				"box" : 				{
					"maxclass" : "comment",
					"text" : "why do we need these?",
					"fontname" : "Verdana",
					"numinlets" : 1,
					"id" : "obj-3",
					"numoutlets" : 0,
					"fontsize" : 9.0,
					"patching_rect" : [ 28.0, 269.0, 127.0, 18.0 ]
				}

			}
, 			{
				"box" : 				{
					"maxclass" : "comment",
					"text" : "the second outlet from the right for jcom.in~ are control messages for the algorithm.",
					"linecount" : 2,
					"fontname" : "Verdana",
					"numinlets" : 1,
					"id" : "obj-4",
					"numoutlets" : 0,
					"fontsize" : 9.0,
					"patching_rect" : [ 151.0, 223.0, 249.0, 30.0 ]
				}

			}
, 			{
				"box" : 				{
					"maxclass" : "comment",
					"text" : "the argument specifies the number of channels to manage for both objects. the last outlet of both objects is a standard 'dumpout' outlet for attribute return values",
					"linecount" : 4,
					"fontname" : "Verdana",
					"numinlets" : 1,
					"id" : "obj-5",
					"numoutlets" : 0,
					"fontsize" : 9.0,
					"patching_rect" : [ 151.0, 162.0, 223.0, 54.0 ]
				}

			}
, 			{
				"box" : 				{
					"maxclass" : "newobj",
					"text" : "p algorithm",
					"fontname" : "Verdana",
					"numinlets" : 3,
					"id" : "obj-6",
					"numoutlets" : 3,
					"outlettype" : [ "", "", "" ],
					"fontsize" : 9.0,
					"patching_rect" : [ 41.0, 175.0, 61.0, 17.0 ],
					"patcher" : 					{
						"rect" : [ 49.0, 59.0, 600.0, 426.0 ],
						"bgcolor" : [ 1.0, 1.0, 1.0, 1.0 ],
						"bglocked" : 0,
						"defrect" : [ 49.0, 59.0, 600.0, 426.0 ],
						"openinpresentation" : 0,
						"default_fontsize" : 10.0,
						"default_fontface" : 0,
						"default_fontname" : "Verdana",
						"gridonopen" : 0,
						"gridsize" : [ 5.0, 5.0 ],
						"gridsnaponopen" : 0,
						"toolbarvisible" : 1,
						"boxfadetime" : 200,
						"boxanimatetime" : 200,
						"scrollanimatetime" : 200,
						"metadata" : [  ],
						"boxes" : [ 							{
								"box" : 								{
									"maxclass" : "outlet",
									"numinlets" : 1,
									"id" : "obj-1",
									"numoutlets" : 0,
									"patching_rect" : [ 50.0, 135.0, 15.0, 15.0 ],
									"comment" : ""
								}

							}
, 							{
								"box" : 								{
									"maxclass" : "inlet",
									"numinlets" : 0,
									"id" : "obj-2",
									"numoutlets" : 1,
									"outlettype" : [ "" ],
									"patching_rect" : [ 52.0, 33.0, 15.0, 15.0 ],
									"comment" : ""
								}

							}
, 							{
								"box" : 								{
									"maxclass" : "outlet",
									"numinlets" : 1,
									"id" : "obj-3",
									"numoutlets" : 0,
									"patching_rect" : [ 162.0, 110.0, 15.0, 15.0 ],
									"comment" : ""
								}

							}
, 							{
								"box" : 								{
									"maxclass" : "outlet",
									"numinlets" : 1,
									"id" : "obj-4",
									"numoutlets" : 0,
									"patching_rect" : [ 130.0, 107.0, 15.0, 15.0 ],
									"comment" : ""
								}

							}
, 							{
								"box" : 								{
									"maxclass" : "inlet",
									"numinlets" : 0,
									"id" : "obj-5",
									"numoutlets" : 1,
									"outlettype" : [ "" ],
									"patching_rect" : [ 166.0, 35.0, 15.0, 15.0 ],
									"comment" : ""
								}

							}
, 							{
								"box" : 								{
									"maxclass" : "inlet",
									"numinlets" : 0,
									"id" : "obj-6",
									"numoutlets" : 1,
									"outlettype" : [ "" ],
									"patching_rect" : [ 146.0, 38.0, 15.0, 15.0 ],
									"comment" : ""
								}

							}
 ],
						"lines" : [ 							{
								"patchline" : 								{
									"source" : [ "obj-6", 0 ],
									"destination" : [ "obj-4", 0 ],
									"hidden" : 0
								}

							}
, 							{
								"patchline" : 								{
									"source" : [ "obj-5", 0 ],
									"destination" : [ "obj-3", 0 ],
									"hidden" : 0
								}

							}
 ]
					}
,
					"saved_object_attributes" : 					{
						"fontname" : "Verdana",
						"default_fontface" : 0,
						"fontface" : 0,
						"default_fontname" : "Verdana",
						"globalpatchername" : "",
						"fontsize" : 10.0,
						"default_fontsize" : 10.0
					}

				}

			}
, 			{
				"box" : 				{
					"maxclass" : "inlet",
					"numinlets" : 0,
					"id" : "obj-7",
					"numoutlets" : 1,
					"outlettype" : [ "" ],
					"patching_rect" : [ 114.0, 113.0, 15.0, 15.0 ],
					"comment" : ""
				}

			}
, 			{
				"box" : 				{
					"maxclass" : "inlet",
					"numinlets" : 0,
					"id" : "obj-8",
					"numoutlets" : 1,
					"outlettype" : [ "" ],
					"patching_rect" : [ 66.0, 113.0, 15.0, 15.0 ],
					"comment" : ""
				}

			}
, 			{
				"box" : 				{
					"maxclass" : "outlet",
					"numinlets" : 1,
					"id" : "obj-9",
					"numoutlets" : 0,
					"patching_rect" : [ 93.0, 239.0, 15.0, 15.0 ],
					"comment" : ""
				}

			}
, 			{
				"box" : 				{
					"maxclass" : "outlet",
					"numinlets" : 1,
					"id" : "obj-10",
					"numoutlets" : 0,
					"patching_rect" : [ 66.0, 239.0, 15.0, 15.0 ],
					"comment" : ""
				}

			}
, 			{
				"box" : 				{
					"maxclass" : "newobj",
					"text" : "jcom.out~ 2",
					"fontname" : "Verdana",
					"numinlets" : 2,
					"id" : "obj-11",
					"numoutlets" : 2,
					"outlettype" : [ "", "" ],
					"fontsize" : 9.0,
					"patching_rect" : [ 66.0, 202.0, 64.0, 17.0 ]
				}

			}
, 			{
				"box" : 				{
					"maxclass" : "newobj",
					"text" : "jcom.in~ 2",
					"fontname" : "Verdana",
					"numinlets" : 2,
					"id" : "obj-12",
					"numoutlets" : 3,
					"outlettype" : [ "", "", "" ],
					"fontsize" : 9.0,
					"patching_rect" : [ 66.0, 136.0, 58.0, 17.0 ]
				}

			}
, 			{
				"box" : 				{
					"maxclass" : "comment",
					"text" : "module conduits for audio input\/output",
					"fontname" : "Verdana",
					"numinlets" : 1,
					"id" : "obj-13",
					"frgb" : [ 0.584314, 0.584314, 0.584314, 1.0 ],
					"numoutlets" : 0,
					"textcolor" : [ 0.584314, 0.584314, 0.584314, 1.0 ],
					"fontsize" : 9.0,
					"patching_rect" : [ 49.0, 68.0, 240.0, 18.0 ]
				}

			}
, 			{
				"box" : 				{
					"maxclass" : "comment",
					"text" : "jcom.in~ \/ jcom.out~",
					"fontname" : "Verdana",
					"numinlets" : 1,
					"id" : "obj-14",
					"frgb" : [ 0.584314, 0.584314, 0.584314, 1.0 ],
					"numoutlets" : 0,
					"textcolor" : [ 0.584314, 0.584314, 0.584314, 1.0 ],
					"fontsize" : 15.799999,
					"patching_rect" : [ 49.0, 41.0, 193.0, 28.0 ]
				}

			}
, 			{
				"box" : 				{
					"maxclass" : "panel",
					"numinlets" : 1,
					"id" : "obj-15",
					"numoutlets" : 0,
					"rounded" : 7,
					"bgcolor" : [ 0.180392, 0.180392, 0.180392, 1.0 ],
					"patching_rect" : [ 34.0, 30.0, 255.0, 60.0 ]
				}

			}
, 			{
				"box" : 				{
					"maxclass" : "comment",
					"text" : "jcom.in~ and jcom.out~ are input\/output conduits for audio signals in a jamoma module, much like jcom.in and jcom.out (no tildes) for control 'signals'.",
					"linecount" : 3,
					"fontname" : "Verdana",
					"numinlets" : 1,
					"id" : "obj-16",
					"numoutlets" : 0,
					"fontsize" : 9.0,
					"patching_rect" : [ 150.0, 113.0, 270.0, 42.0 ]
				}

			}
 ],
		"lines" : [ 			{
				"patchline" : 				{
					"source" : [ "obj-12", 2 ],
					"destination" : [ "obj-6", 0 ],
					"hidden" : 0
				}

			}
, 			{
				"patchline" : 				{
					"source" : [ "obj-8", 0 ],
					"destination" : [ "obj-12", 0 ],
					"hidden" : 0,
					"color" : [ 1.0, 0.611765, 0.611765, 1.0 ]
				}

			}
, 			{
				"patchline" : 				{
					"source" : [ "obj-12", 0 ],
					"destination" : [ "obj-6", 1 ],
					"hidden" : 0
				}

			}
, 			{
				"patchline" : 				{
					"source" : [ "obj-6", 1 ],
					"destination" : [ "obj-11", 0 ],
					"hidden" : 0
				}

			}
, 			{
				"patchline" : 				{
					"source" : [ "obj-11", 0 ],
					"destination" : [ "obj-10", 0 ],
					"hidden" : 0
				}

			}
, 			{
				"patchline" : 				{
					"source" : [ "obj-12", 1 ],
					"destination" : [ "obj-6", 2 ],
					"hidden" : 0,
					"midpoints" : [ 114.5, 166.0, 92.5, 166.0 ]
				}

			}
, 			{
				"patchline" : 				{
					"source" : [ "obj-11", 1 ],
					"destination" : [ "obj-9", 0 ],
					"hidden" : 0
				}

			}
, 			{
				"patchline" : 				{
					"source" : [ "obj-7", 0 ],
					"destination" : [ "obj-12", 1 ],
					"hidden" : 0,
					"color" : [ 1.0, 0.611765, 0.611765, 1.0 ]
				}

			}
, 			{
				"patchline" : 				{
					"source" : [ "obj-6", 2 ],
					"destination" : [ "obj-11", 1 ],
					"hidden" : 0
				}

			}
 ]
	}

}
