{
	"patcher" : 	{
		"fileversion" : 1,
		"rect" : [ 3.0, 52.0, 461.0, 494.0 ],
		"bglocked" : 0,
		"defrect" : [ 3.0, 52.0, 461.0, 494.0 ],
		"openrect" : [ 0.0, 0.0, 0.0, 0.0 ],
		"openinpresentation" : 0,
		"default_fontsize" : 10.970939,
		"default_fontface" : 0,
		"default_fontname" : "Verdana",
		"gridonopen" : 0,
		"gridsize" : [ 5.0, 5.0 ],
		"gridsnaponopen" : 0,
		"toolbarvisible" : 1,
		"boxanimatetime" : 200,
		"imprint" : 0,
		"metadata" : [  ],
		"boxes" : [ 			{
				"box" : 				{
					"maxclass" : "comment",
					"text" : "2 floats: range (min, max)",
					"patching_rect" : [ 40.0, 180.0, 165.0, 19.0 ],
					"frgb" : [ 0.933333, 0.937255, 0.968627, 1.0 ],
					"id" : "obj-1",
					"fontname" : "Verdana",
					"numinlets" : 1,
					"fontsize" : 10.0,
					"numoutlets" : 0
				}

			}
, 			{
				"box" : 				{
					"maxclass" : "number",
					"patching_rect" : [ 365.0, 350.0, 35.0, 19.0 ],
					"id" : "obj-2",
					"fontname" : "Verdana",
					"minimum" : 0,
					"maximum" : 200,
					"numinlets" : 1,
					"fontsize" : 10.0,
					"numoutlets" : 2,
					"triscale" : 0.9,
					"outlettype" : [ "int", "bang" ]
				}

			}
, 			{
				"box" : 				{
					"maxclass" : "flonum",
					"patching_rect" : [ 160.0, 350.0, 35.0, 19.0 ],
					"id" : "obj-3",
					"fontname" : "Verdana",
					"numinlets" : 1,
					"fontsize" : 10.0,
					"numoutlets" : 2,
					"triscale" : 0.9,
					"outlettype" : [ "float", "bang" ]
				}

			}
, 			{
				"box" : 				{
					"maxclass" : "flonum",
					"patching_rect" : [ 120.0, 350.0, 35.0, 19.0 ],
					"id" : "obj-4",
					"fontname" : "Verdana",
					"numinlets" : 1,
					"fontsize" : 10.0,
					"numoutlets" : 2,
					"triscale" : 0.9,
					"outlettype" : [ "float", "bang" ]
				}

			}
, 			{
				"box" : 				{
					"maxclass" : "newobj",
					"text" : "pak range 0. 1.",
					"patching_rect" : [ 85.0, 375.0, 90.0, 19.0 ],
					"id" : "obj-5",
					"fontname" : "Verdana",
					"numinlets" : 3,
					"fontsize" : 10.0,
					"numoutlets" : 1,
					"outlettype" : [ "" ]
				}

			}
, 			{
				"box" : 				{
					"maxclass" : "comment",
					"text" : "bang : output value",
					"patching_rect" : [ 40.0, 120.0, 200.0, 19.0 ],
					"frgb" : [ 0.933333, 0.937255, 0.968627, 1.0 ],
					"id" : "obj-10",
					"fontname" : "Verdana",
					"numinlets" : 1,
					"fontsize" : 10.0,
					"numoutlets" : 0
				}

			}
, 			{
				"box" : 				{
					"maxclass" : "newobj",
					"text" : "p colors",
					"patching_rect" : [ 260.0, 350.0, 50.0, 19.0 ],
					"id" : "obj-11",
					"fontname" : "Verdana",
					"numinlets" : 0,
					"fontsize" : 10.0,
					"numoutlets" : 1,
					"outlettype" : [ "bang" ],
					"patcher" : 					{
						"fileversion" : 1,
						"rect" : [ 467.0, 54.0, 480.0, 106.0 ],
						"bglocked" : 0,
						"defrect" : [ 467.0, 54.0, 480.0, 106.0 ],
						"openrect" : [ 0.0, 0.0, 0.0, 0.0 ],
						"openinpresentation" : 0,
						"default_fontsize" : 10.0,
						"default_fontface" : 0,
						"default_fontname" : "Verdana",
						"gridonopen" : 0,
						"gridsize" : [ 5.0, 5.0 ],
						"gridsnaponopen" : 0,
						"toolbarvisible" : 1,
						"boxanimatetime" : 200,
						"imprint" : 0,
						"visible" : 1,
						"metadata" : [  ],
						"boxes" : [ 							{
								"box" : 								{
									"maxclass" : "message",
									"patching_rect" : [ 650.0, 95.0, 50.0, 17.0 ],
									"id" : "obj-56",
									"fontname" : "Verdana",
									"numinlets" : 2,
									"fontsize" : 10.0,
									"numoutlets" : 1,
									"outlettype" : [ "" ]
								}

							}
, 							{
								"box" : 								{
									"maxclass" : "newobj",
									"text" : "t b l",
									"hidden" : 1,
									"patching_rect" : [ 310.0, 293.0, 28.0, 19.0 ],
									"id" : "obj-3",
									"fontname" : "Verdana",
									"numinlets" : 1,
									"fontsize" : 10.0,
									"numoutlets" : 2,
									"outlettype" : [ "bang", "" ]
								}

							}
, 							{
								"box" : 								{
									"maxclass" : "outlet",
									"hidden" : 1,
									"patching_rect" : [ 310.0, 325.0, 15.0, 15.0 ],
									"id" : "obj-4",
									"numinlets" : 1,
									"numoutlets" : 0,
									"comment" : ""
								}

							}
, 							{
								"box" : 								{
									"maxclass" : "newobj",
									"text" : "t b 1 b",
									"hidden" : 1,
									"patching_rect" : [ 97.0, -41.0, 42.0, 19.0 ],
									"id" : "obj-5",
									"fontname" : "Verdana",
									"numinlets" : 1,
									"fontsize" : 10.0,
									"numoutlets" : 3,
									"outlettype" : [ "bang", "int", "bang" ]
								}

							}
, 							{
								"box" : 								{
									"maxclass" : "message",
									"text" : "window title, window exec",
									"hidden" : 1,
									"patching_rect" : [ 9.0, 71.0, 140.0, 17.0 ],
									"id" : "obj-7",
									"fontname" : "Verdana",
									"numinlets" : 2,
									"fontsize" : 10.0,
									"numoutlets" : 1,
									"outlettype" : [ "" ]
								}

							}
, 							{
								"box" : 								{
									"maxclass" : "message",
									"text" : "window notitle, window exec",
									"hidden" : 1,
									"patching_rect" : [ 9.0, 59.0, 153.0, 17.0 ],
									"id" : "obj-8",
									"fontname" : "Verdana",
									"numinlets" : 2,
									"fontsize" : 10.0,
									"numoutlets" : 1,
									"outlettype" : [ "" ]
								}

							}
, 							{
								"box" : 								{
									"maxclass" : "message",
									"text" : "window size 100 100 580 206, window exec",
									"hidden" : 1,
									"patching_rect" : [ 9.0, 46.0, 231.0, 17.0 ],
									"id" : "obj-9",
									"fontname" : "Verdana",
									"numinlets" : 2,
									"fontsize" : 10.0,
									"numoutlets" : 1,
									"outlettype" : [ "" ]
								}

							}
, 							{
								"box" : 								{
									"maxclass" : "message",
									"text" : "42",
									"hidden" : 1,
									"patching_rect" : [ 238.0, -55.0, 21.0, 17.0 ],
									"id" : "obj-10",
									"fontname" : "Verdana",
									"numinlets" : 2,
									"fontsize" : 10.0,
									"numoutlets" : 1,
									"outlettype" : [ "" ]
								}

							}
, 							{
								"box" : 								{
									"maxclass" : "button",
									"hidden" : 1,
									"patching_rect" : [ -22.0, 213.0, 15.0, 15.0 ],
									"id" : "obj-11",
									"numinlets" : 1,
									"numoutlets" : 1,
									"outlettype" : [ "bang" ]
								}

							}
, 							{
								"box" : 								{
									"maxclass" : "newobj",
									"text" : "zl slice 1",
									"hidden" : 1,
									"patching_rect" : [ -1.0, 110.0, 52.0, 19.0 ],
									"id" : "obj-12",
									"fontname" : "Verdana",
									"numinlets" : 2,
									"fontsize" : 10.0,
									"numoutlets" : 2,
									"outlettype" : [ "", "" ]
								}

							}
, 							{
								"box" : 								{
									"maxclass" : "newobj",
									"text" : "prepend set",
									"hidden" : 1,
									"patching_rect" : [ 100.0, 113.0, 68.0, 19.0 ],
									"id" : "obj-13",
									"fontname" : "Verdana",
									"numinlets" : 1,
									"fontsize" : 10.0,
									"numoutlets" : 1,
									"outlettype" : [ "" ]
								}

							}
, 							{
								"box" : 								{
									"maxclass" : "message",
									"text" : "frgb 255 254 254",
									"patching_rect" : [ 0.0, 91.0, 160.0, 17.0 ],
									"id" : "obj-18",
									"fontname" : "Verdana",
									"numinlets" : 2,
									"fontsize" : 10.0,
									"numoutlets" : 1,
									"outlettype" : [ "" ]
								}

							}
, 							{
								"box" : 								{
									"maxclass" : "newobj",
									"text" : "prepend frgb",
									"hidden" : 1,
									"patching_rect" : [ 59.0, 224.0, 73.0, 19.0 ],
									"id" : "obj-19",
									"fontname" : "Verdana",
									"numinlets" : 1,
									"fontsize" : 10.0,
									"numoutlets" : 1,
									"outlettype" : [ "" ]
								}

							}
, 							{
								"box" : 								{
									"maxclass" : "slider",
									"patching_rect" : [ 0.0, 0.0, 160.0, 10.0 ],
									"id" : "obj-20",
									"orientation" : 1,
									"numinlets" : 1,
									"size" : 256.0,
									"numoutlets" : 1,
									"outlettype" : [ "" ]
								}

							}
, 							{
								"box" : 								{
									"maxclass" : "message",
									"text" : "saturation $1",
									"hidden" : 1,
									"patching_rect" : [ 0.0, -25.0, 75.0, 17.0 ],
									"id" : "obj-21",
									"fontname" : "Verdana",
									"numinlets" : 2,
									"fontsize" : 10.0,
									"numoutlets" : 1,
									"outlettype" : [ "" ]
								}

							}
, 							{
								"box" : 								{
									"maxclass" : "button",
									"hidden" : 1,
									"patching_rect" : [ 138.0, 213.0, 15.0, 15.0 ],
									"id" : "obj-22",
									"numinlets" : 1,
									"numoutlets" : 1,
									"outlettype" : [ "bang" ]
								}

							}
, 							{
								"box" : 								{
									"maxclass" : "newobj",
									"text" : "zl slice 1",
									"hidden" : 1,
									"patching_rect" : [ 159.0, 110.0, 52.0, 19.0 ],
									"id" : "obj-23",
									"fontname" : "Verdana",
									"numinlets" : 2,
									"fontsize" : 10.0,
									"numoutlets" : 2,
									"outlettype" : [ "", "" ]
								}

							}
, 							{
								"box" : 								{
									"maxclass" : "newobj",
									"text" : "prepend set",
									"hidden" : 1,
									"patching_rect" : [ 245.0, 110.0, 68.0, 19.0 ],
									"id" : "obj-24",
									"fontname" : "Verdana",
									"numinlets" : 1,
									"fontsize" : 10.0,
									"numoutlets" : 1,
									"outlettype" : [ "" ]
								}

							}
, 							{
								"box" : 								{
									"maxclass" : "message",
									"text" : "brgb 210 111 241",
									"patching_rect" : [ 160.0, 91.0, 160.0, 17.0 ],
									"id" : "obj-29",
									"fontname" : "Verdana",
									"numinlets" : 2,
									"fontsize" : 10.0,
									"numoutlets" : 1,
									"outlettype" : [ "" ]
								}

							}
, 							{
								"box" : 								{
									"maxclass" : "newobj",
									"text" : "prepend brgb",
									"hidden" : 1,
									"patching_rect" : [ 219.0, 224.0, 76.0, 19.0 ],
									"id" : "obj-30",
									"fontname" : "Verdana",
									"numinlets" : 1,
									"fontsize" : 10.0,
									"numoutlets" : 1,
									"outlettype" : [ "" ]
								}

							}
, 							{
								"box" : 								{
									"maxclass" : "slider",
									"patching_rect" : [ 160.0, 0.0, 160.0, 10.0 ],
									"id" : "obj-31",
									"orientation" : 1,
									"numinlets" : 1,
									"size" : 256.0,
									"numoutlets" : 1,
									"outlettype" : [ "" ]
								}

							}
, 							{
								"box" : 								{
									"maxclass" : "message",
									"text" : "saturation $1",
									"hidden" : 1,
									"patching_rect" : [ 160.0, -25.0, 75.0, 17.0 ],
									"id" : "obj-32",
									"fontname" : "Verdana",
									"numinlets" : 2,
									"fontsize" : 10.0,
									"numoutlets" : 1,
									"outlettype" : [ "" ]
								}

							}
, 							{
								"box" : 								{
									"maxclass" : "button",
									"hidden" : 1,
									"patching_rect" : [ 298.0, 213.0, 15.0, 15.0 ],
									"id" : "obj-33",
									"numinlets" : 1,
									"numoutlets" : 1,
									"outlettype" : [ "bang" ]
								}

							}
, 							{
								"box" : 								{
									"maxclass" : "newobj",
									"text" : "zl slice 1",
									"hidden" : 1,
									"patching_rect" : [ 320.0, 110.0, 52.0, 19.0 ],
									"id" : "obj-34",
									"fontname" : "Verdana",
									"numinlets" : 2,
									"fontsize" : 10.0,
									"numoutlets" : 2,
									"outlettype" : [ "", "" ]
								}

							}
, 							{
								"box" : 								{
									"maxclass" : "newobj",
									"text" : "prepend set",
									"hidden" : 1,
									"patching_rect" : [ 650.0, 160.0, 68.0, 19.0 ],
									"id" : "obj-35",
									"fontname" : "Verdana",
									"numinlets" : 1,
									"fontsize" : 10.0,
									"numoutlets" : 1,
									"outlettype" : [ "" ]
								}

							}
, 							{
								"box" : 								{
									"maxclass" : "message",
									"text" : "rgb2 10 92 159",
									"patching_rect" : [ 320.0, 90.0, 160.0, 17.0 ],
									"id" : "obj-40",
									"fontname" : "Verdana",
									"numinlets" : 2,
									"fontsize" : 10.0,
									"numoutlets" : 1,
									"outlettype" : [ "" ]
								}

							}
, 							{
								"box" : 								{
									"maxclass" : "newobj",
									"text" : "prepend rgb2",
									"hidden" : 1,
									"patching_rect" : [ 410.0, 230.0, 76.0, 19.0 ],
									"id" : "obj-41",
									"fontname" : "Verdana",
									"numinlets" : 1,
									"fontsize" : 10.0,
									"numoutlets" : 1,
									"outlettype" : [ "" ]
								}

							}
, 							{
								"box" : 								{
									"maxclass" : "slider",
									"patching_rect" : [ 320.0, 0.0, 160.0, 10.0 ],
									"id" : "obj-42",
									"orientation" : 1,
									"numinlets" : 1,
									"size" : 256.0,
									"numoutlets" : 1,
									"outlettype" : [ "" ]
								}

							}
, 							{
								"box" : 								{
									"maxclass" : "message",
									"text" : "saturation $1",
									"hidden" : 1,
									"patching_rect" : [ 320.0, -25.0, 75.0, 17.0 ],
									"id" : "obj-43",
									"fontname" : "Verdana",
									"numinlets" : 2,
									"fontsize" : 10.0,
									"numoutlets" : 1,
									"outlettype" : [ "" ]
								}

							}
, 							{
								"box" : 								{
									"maxclass" : "swatch",
									"patching_rect" : [ 320.0, 10.0, 160.0, 81.0 ],
									"id" : "obj-44",
									"compatibility" : 1,
									"numinlets" : 3,
									"numoutlets" : 2,
									"outlettype" : [ "", "float" ]
								}

							}
, 							{
								"box" : 								{
									"maxclass" : "button",
									"hidden" : 1,
									"patching_rect" : [ 458.0, 213.0, 15.0, 15.0 ],
									"id" : "obj-45",
									"numinlets" : 1,
									"numoutlets" : 1,
									"outlettype" : [ "bang" ]
								}

							}
, 							{
								"box" : 								{
									"maxclass" : "newobj",
									"text" : "zl slice 1",
									"hidden" : 1,
									"patching_rect" : [ 479.0, 110.0, 52.0, 19.0 ],
									"id" : "obj-46",
									"fontname" : "Verdana",
									"numinlets" : 2,
									"fontsize" : 10.0,
									"numoutlets" : 2,
									"outlettype" : [ "", "" ]
								}

							}
, 							{
								"box" : 								{
									"maxclass" : "message",
									"text" : "window flags grow, window exec",
									"hidden" : 1,
									"patching_rect" : [ 9.0, 32.0, 173.0, 17.0 ],
									"id" : "obj-47",
									"fontname" : "Verdana",
									"numinlets" : 2,
									"fontsize" : 10.0,
									"numoutlets" : 1,
									"outlettype" : [ "" ]
								}

							}
, 							{
								"box" : 								{
									"maxclass" : "message",
									"text" : "window flags nogrow, window exec",
									"hidden" : 1,
									"patching_rect" : [ 9.0, 20.0, 185.0, 17.0 ],
									"id" : "obj-48",
									"fontname" : "Verdana",
									"numinlets" : 2,
									"fontsize" : 10.0,
									"numoutlets" : 1,
									"outlettype" : [ "" ]
								}

							}
, 							{
								"box" : 								{
									"maxclass" : "newobj",
									"text" : "loadbang",
									"hidden" : 1,
									"patching_rect" : [ 97.0, -65.0, 54.0, 19.0 ],
									"id" : "obj-49",
									"fontname" : "Verdana",
									"numinlets" : 1,
									"fontsize" : 10.0,
									"numoutlets" : 1,
									"outlettype" : [ "bang" ]
								}

							}
, 							{
								"box" : 								{
									"maxclass" : "newobj",
									"text" : "thispatcher",
									"hidden" : 1,
									"patching_rect" : [ 9.0, -49.0, 65.0, 19.0 ],
									"id" : "obj-50",
									"fontname" : "Verdana",
									"numinlets" : 1,
									"fontsize" : 10.0,
									"numoutlets" : 2,
									"outlettype" : [ "", "" ],
									"save" : [ "#N", "thispatcher", ";", "#Q", "end", ";" ]
								}

							}
, 							{
								"box" : 								{
									"maxclass" : "message",
									"text" : "saturation $1",
									"hidden" : 1,
									"patching_rect" : [ 480.0, -25.0, 75.0, 17.0 ],
									"id" : "obj-51",
									"fontname" : "Verdana",
									"numinlets" : 2,
									"fontsize" : 10.0,
									"numoutlets" : 1,
									"outlettype" : [ "" ]
								}

							}
, 							{
								"box" : 								{
									"maxclass" : "newobj",
									"text" : "gate",
									"hidden" : 1,
									"patching_rect" : [ 195.0, 280.0, 31.0, 19.0 ],
									"id" : "obj-52",
									"fontname" : "Verdana",
									"numinlets" : 2,
									"fontsize" : 10.0,
									"numoutlets" : 1,
									"outlettype" : [ "" ]
								}

							}
, 							{
								"box" : 								{
									"maxclass" : "swatch",
									"patching_rect" : [ 0.0, 10.0, 160.0, 81.0 ],
									"id" : "obj-53",
									"compatibility" : 1,
									"numinlets" : 3,
									"numoutlets" : 2,
									"outlettype" : [ "", "float" ]
								}

							}
, 							{
								"box" : 								{
									"maxclass" : "swatch",
									"patching_rect" : [ 160.0, 10.0, 160.0, 81.0 ],
									"id" : "obj-54",
									"compatibility" : 1,
									"numinlets" : 3,
									"numoutlets" : 2,
									"outlettype" : [ "", "float" ]
								}

							}
 ],
						"lines" : [ 							{
								"patchline" : 								{
									"source" : [ "obj-3", 0 ],
									"destination" : [ "obj-4", 0 ],
									"hidden" : 0,
									"midpoints" : [  ]
								}

							}
, 							{
								"patchline" : 								{
									"source" : [ "obj-19", 0 ],
									"destination" : [ "obj-4", 0 ],
									"hidden" : 0,
									"midpoints" : [  ]
								}

							}
, 							{
								"patchline" : 								{
									"source" : [ "obj-30", 0 ],
									"destination" : [ "obj-4", 0 ],
									"hidden" : 0,
									"midpoints" : [  ]
								}

							}
, 							{
								"patchline" : 								{
									"source" : [ "obj-41", 0 ],
									"destination" : [ "obj-4", 0 ],
									"hidden" : 0,
									"midpoints" : [  ]
								}

							}
, 							{
								"patchline" : 								{
									"source" : [ "obj-34", 0 ],
									"destination" : [ "obj-56", 1 ],
									"hidden" : 0,
									"midpoints" : [  ]
								}

							}
, 							{
								"patchline" : 								{
									"source" : [ "obj-41", 0 ],
									"destination" : [ "obj-35", 0 ],
									"hidden" : 1,
									"midpoints" : [  ]
								}

							}
, 							{
								"patchline" : 								{
									"source" : [ "obj-44", 0 ],
									"destination" : [ "obj-41", 0 ],
									"hidden" : 1,
									"midpoints" : [  ]
								}

							}
, 							{
								"patchline" : 								{
									"source" : [ "obj-19", 0 ],
									"destination" : [ "obj-52", 1 ],
									"hidden" : 1,
									"midpoints" : [  ]
								}

							}
, 							{
								"patchline" : 								{
									"source" : [ "obj-30", 0 ],
									"destination" : [ "obj-52", 1 ],
									"hidden" : 1,
									"midpoints" : [  ]
								}

							}
, 							{
								"patchline" : 								{
									"source" : [ "obj-41", 0 ],
									"destination" : [ "obj-52", 1 ],
									"hidden" : 1,
									"midpoints" : [  ]
								}

							}
, 							{
								"patchline" : 								{
									"source" : [ "obj-35", 0 ],
									"destination" : [ "obj-40", 0 ],
									"hidden" : 1,
									"midpoints" : [  ]
								}

							}
, 							{
								"patchline" : 								{
									"source" : [ "obj-43", 0 ],
									"destination" : [ "obj-44", 0 ],
									"hidden" : 1,
									"midpoints" : [  ]
								}

							}
, 							{
								"patchline" : 								{
									"source" : [ "obj-33", 0 ],
									"destination" : [ "obj-44", 0 ],
									"hidden" : 1,
									"midpoints" : [  ]
								}

							}
, 							{
								"patchline" : 								{
									"source" : [ "obj-10", 0 ],
									"destination" : [ "obj-42", 0 ],
									"hidden" : 1,
									"midpoints" : [ 247.5, -5.0, 329.5, -5.0 ]
								}

							}
, 							{
								"patchline" : 								{
									"source" : [ "obj-42", 0 ],
									"destination" : [ "obj-43", 0 ],
									"hidden" : 1,
									"midpoints" : [  ]
								}

							}
, 							{
								"patchline" : 								{
									"source" : [ "obj-40", 0 ],
									"destination" : [ "obj-34", 0 ],
									"hidden" : 1,
									"midpoints" : [  ]
								}

							}
, 							{
								"patchline" : 								{
									"source" : [ "obj-5", 1 ],
									"destination" : [ "obj-52", 0 ],
									"hidden" : 1,
									"midpoints" : [  ]
								}

							}
, 							{
								"patchline" : 								{
									"source" : [ "obj-3", 1 ],
									"destination" : [ "obj-4", 0 ],
									"hidden" : 1,
									"midpoints" : [  ]
								}

							}
, 							{
								"patchline" : 								{
									"source" : [ "obj-52", 0 ],
									"destination" : [ "obj-3", 0 ],
									"hidden" : 0,
									"midpoints" : [  ]
								}

							}
, 							{
								"patchline" : 								{
									"source" : [ "obj-30", 0 ],
									"destination" : [ "obj-24", 0 ],
									"hidden" : 1,
									"midpoints" : [  ]
								}

							}
, 							{
								"patchline" : 								{
									"source" : [ "obj-5", 2 ],
									"destination" : [ "obj-10", 0 ],
									"hidden" : 1,
									"midpoints" : [  ]
								}

							}
, 							{
								"patchline" : 								{
									"source" : [ "obj-54", 0 ],
									"destination" : [ "obj-30", 0 ],
									"hidden" : 1,
									"midpoints" : [  ]
								}

							}
, 							{
								"patchline" : 								{
									"source" : [ "obj-24", 0 ],
									"destination" : [ "obj-29", 0 ],
									"hidden" : 1,
									"midpoints" : [  ]
								}

							}
, 							{
								"patchline" : 								{
									"source" : [ "obj-22", 0 ],
									"destination" : [ "obj-54", 0 ],
									"hidden" : 1,
									"midpoints" : [  ]
								}

							}
, 							{
								"patchline" : 								{
									"source" : [ "obj-32", 0 ],
									"destination" : [ "obj-54", 0 ],
									"hidden" : 1,
									"midpoints" : [  ]
								}

							}
, 							{
								"patchline" : 								{
									"source" : [ "obj-10", 0 ],
									"destination" : [ "obj-31", 0 ],
									"hidden" : 1,
									"midpoints" : [ 247.5, -5.0, 169.5, -5.0 ]
								}

							}
, 							{
								"patchline" : 								{
									"source" : [ "obj-31", 0 ],
									"destination" : [ "obj-32", 0 ],
									"hidden" : 1,
									"midpoints" : [  ]
								}

							}
, 							{
								"patchline" : 								{
									"source" : [ "obj-29", 0 ],
									"destination" : [ "obj-23", 0 ],
									"hidden" : 1,
									"midpoints" : [  ]
								}

							}
, 							{
								"patchline" : 								{
									"source" : [ "obj-19", 0 ],
									"destination" : [ "obj-13", 0 ],
									"hidden" : 1,
									"midpoints" : [  ]
								}

							}
, 							{
								"patchline" : 								{
									"source" : [ "obj-49", 0 ],
									"destination" : [ "obj-5", 0 ],
									"hidden" : 1,
									"midpoints" : [  ]
								}

							}
, 							{
								"patchline" : 								{
									"source" : [ "obj-53", 0 ],
									"destination" : [ "obj-19", 0 ],
									"hidden" : 1,
									"midpoints" : [  ]
								}

							}
, 							{
								"patchline" : 								{
									"source" : [ "obj-5", 0 ],
									"destination" : [ "obj-48", 0 ],
									"hidden" : 1,
									"midpoints" : [  ]
								}

							}
, 							{
								"patchline" : 								{
									"source" : [ "obj-48", 0 ],
									"destination" : [ "obj-50", 0 ],
									"hidden" : 1,
									"midpoints" : [  ]
								}

							}
, 							{
								"patchline" : 								{
									"source" : [ "obj-47", 0 ],
									"destination" : [ "obj-50", 0 ],
									"hidden" : 1,
									"midpoints" : [  ]
								}

							}
, 							{
								"patchline" : 								{
									"source" : [ "obj-9", 0 ],
									"destination" : [ "obj-50", 0 ],
									"hidden" : 1,
									"midpoints" : [  ]
								}

							}
, 							{
								"patchline" : 								{
									"source" : [ "obj-8", 0 ],
									"destination" : [ "obj-50", 0 ],
									"hidden" : 1,
									"midpoints" : [  ]
								}

							}
, 							{
								"patchline" : 								{
									"source" : [ "obj-7", 0 ],
									"destination" : [ "obj-50", 0 ],
									"hidden" : 1,
									"midpoints" : [  ]
								}

							}
, 							{
								"patchline" : 								{
									"source" : [ "obj-13", 0 ],
									"destination" : [ "obj-18", 0 ],
									"hidden" : 1,
									"midpoints" : [  ]
								}

							}
, 							{
								"patchline" : 								{
									"source" : [ "obj-21", 0 ],
									"destination" : [ "obj-53", 0 ],
									"hidden" : 1,
									"midpoints" : [  ]
								}

							}
, 							{
								"patchline" : 								{
									"source" : [ "obj-11", 0 ],
									"destination" : [ "obj-53", 0 ],
									"hidden" : 1,
									"midpoints" : [  ]
								}

							}
, 							{
								"patchline" : 								{
									"source" : [ "obj-10", 0 ],
									"destination" : [ "obj-20", 0 ],
									"hidden" : 1,
									"midpoints" : [ 247.5, -5.0, 9.5, -5.0 ]
								}

							}
, 							{
								"patchline" : 								{
									"source" : [ "obj-20", 0 ],
									"destination" : [ "obj-21", 0 ],
									"hidden" : 1,
									"midpoints" : [  ]
								}

							}
, 							{
								"patchline" : 								{
									"source" : [ "obj-18", 0 ],
									"destination" : [ "obj-12", 0 ],
									"hidden" : 1,
									"midpoints" : [  ]
								}

							}
 ]
					}
,
					"saved_object_attributes" : 					{
						"fontname" : "Verdana",
						"default_fontface" : 0,
						"globalpatchername" : "",
						"default_fontname" : "Verdana",
						"fontface" : 0,
						"fontsize" : 10.0,
						"default_fontsize" : 10.0
					}

				}

			}
, 			{
				"box" : 				{
					"maxclass" : "comment",
					"text" : "rgb2 : color of the slider",
					"patching_rect" : [ 45.0, 290.0, 152.0, 19.0 ],
					"frgb" : [ 0.933333, 0.937255, 0.968627, 1.0 ],
					"id" : "obj-15",
					"fontname" : "Verdana",
					"numinlets" : 1,
					"fontsize" : 10.0,
					"numoutlets" : 0
				}

			}
, 			{
				"box" : 				{
					"maxclass" : "comment",
					"text" : "brgb : color of the background",
					"patching_rect" : [ 45.0, 260.0, 181.0, 19.0 ],
					"frgb" : [ 0.933333, 0.937255, 0.968627, 1.0 ],
					"id" : "obj-16",
					"fontname" : "Verdana",
					"numinlets" : 1,
					"fontsize" : 10.0,
					"numoutlets" : 0
				}

			}
, 			{
				"box" : 				{
					"maxclass" : "comment",
					"text" : "frgb : color of the text",
					"patching_rect" : [ 45.0, 275.0, 143.0, 19.0 ],
					"frgb" : [ 0.933333, 0.937255, 0.968627, 1.0 ],
					"id" : "obj-17",
					"fontname" : "Verdana",
					"numinlets" : 1,
					"fontsize" : 10.0,
					"numoutlets" : 0
				}

			}
, 			{
				"box" : 				{
					"maxclass" : "comment",
					"text" : "size: resize. You will also have to resize the bpatcher manually",
					"patching_rect" : [ 45.0, 245.0, 361.0, 19.0 ],
					"frgb" : [ 0.933333, 0.937255, 0.968627, 1.0 ],
					"id" : "obj-18",
					"fontname" : "Verdana",
					"numinlets" : 1,
					"fontsize" : 10.0,
					"numoutlets" : 0
				}

			}
, 			{
				"box" : 				{
					"maxclass" : "comment",
					"text" : "range (2 floats) : range of the slider",
					"patching_rect" : [ 45.0, 230.0, 219.0, 19.0 ],
					"frgb" : [ 0.933333, 0.937255, 0.968627, 1.0 ],
					"id" : "obj-19",
					"fontname" : "Verdana",
					"numinlets" : 1,
					"fontsize" : 10.0,
					"numoutlets" : 0
				}

			}
, 			{
				"box" : 				{
					"maxclass" : "comment",
					"text" : "Attributes:",
					"patching_rect" : [ 25.0, 205.0, 124.0, 19.0 ],
					"frgb" : [ 0.933333, 0.937255, 0.968627, 1.0 ],
					"id" : "obj-20",
					"fontname" : "Verdana",
					"numinlets" : 1,
					"fontsize" : 10.0,
					"numoutlets" : 0
				}

			}
, 			{
				"box" : 				{
					"maxclass" : "comment",
					"text" : "float: initial value",
					"patching_rect" : [ 40.0, 165.0, 126.0, 19.0 ],
					"frgb" : [ 0.933333, 0.937255, 0.968627, 1.0 ],
					"id" : "obj-21",
					"fontname" : "Verdana",
					"numinlets" : 1,
					"fontsize" : 10.0,
					"numoutlets" : 0
				}

			}
, 			{
				"box" : 				{
					"maxclass" : "comment",
					"text" : "Argument",
					"patching_rect" : [ 25.0, 145.0, 120.0, 19.0 ],
					"frgb" : [ 0.933333, 0.937255, 0.968627, 1.0 ],
					"id" : "obj-22",
					"fontname" : "Verdana",
					"numinlets" : 1,
					"fontsize" : 10.0,
					"numoutlets" : 0
				}

			}
, 			{
				"box" : 				{
					"maxclass" : "comment",
					"text" : "set (float)",
					"patching_rect" : [ 40.0, 105.0, 199.0, 19.0 ],
					"frgb" : [ 0.933333, 0.937255, 0.968627, 1.0 ],
					"id" : "obj-23",
					"fontname" : "Verdana",
					"numinlets" : 1,
					"fontsize" : 10.0,
					"numoutlets" : 0
				}

			}
, 			{
				"box" : 				{
					"maxclass" : "comment",
					"text" : "float:",
					"patching_rect" : [ 40.0, 90.0, 201.0, 19.0 ],
					"frgb" : [ 0.933333, 0.937255, 0.968627, 1.0 ],
					"id" : "obj-24",
					"fontname" : "Verdana",
					"numinlets" : 1,
					"fontsize" : 10.0,
					"numoutlets" : 0
				}

			}
, 			{
				"box" : 				{
					"maxclass" : "number",
					"patching_rect" : [ 325.0, 350.0, 35.0, 19.0 ],
					"id" : "obj-25",
					"fontname" : "Verdana",
					"minimum" : 0,
					"maximum" : 200,
					"numinlets" : 1,
					"fontsize" : 10.0,
					"numoutlets" : 2,
					"triscale" : 0.9,
					"outlettype" : [ "int", "bang" ]
				}

			}
, 			{
				"box" : 				{
					"maxclass" : "newobj",
					"text" : "pak size 200 14",
					"patching_rect" : [ 290.0, 375.0, 88.0, 19.0 ],
					"id" : "obj-26",
					"fontname" : "Verdana",
					"numinlets" : 3,
					"fontsize" : 10.0,
					"numoutlets" : 1,
					"outlettype" : [ "" ]
				}

			}
, 			{
				"box" : 				{
					"maxclass" : "message",
					"text" : "set $1",
					"patching_rect" : [ 210.0, 370.0, 40.0, 17.0 ],
					"id" : "obj-27",
					"fontname" : "Verdana",
					"numinlets" : 2,
					"fontsize" : 10.0,
					"numoutlets" : 1,
					"outlettype" : [ "" ]
				}

			}
, 			{
				"box" : 				{
					"maxclass" : "flonum",
					"patching_rect" : [ 210.0, 350.0, 35.0, 19.0 ],
					"id" : "obj-28",
					"fontname" : "Verdana",
					"numinlets" : 1,
					"fontsize" : 10.0,
					"numoutlets" : 2,
					"triscale" : 0.9,
					"outlettype" : [ "float", "bang" ]
				}

			}
, 			{
				"box" : 				{
					"maxclass" : "flonum",
					"patching_rect" : [ 35.0, 445.0, 49.0, 19.0 ],
					"id" : "obj-29",
					"fontname" : "Verdana",
					"numinlets" : 1,
					"fontsize" : 10.0,
					"numoutlets" : 2,
					"triscale" : 0.9,
					"outlettype" : [ "float", "bang" ]
				}

			}
, 			{
				"box" : 				{
					"maxclass" : "flonum",
					"patching_rect" : [ 35.0, 350.0, 35.0, 19.0 ],
					"id" : "obj-30",
					"fontname" : "Verdana",
					"numinlets" : 1,
					"fontsize" : 10.0,
					"numoutlets" : 2,
					"triscale" : 0.9,
					"outlettype" : [ "float", "bang" ]
				}

			}
, 			{
				"box" : 				{
					"maxclass" : "comment",
					"text" : "jcom.numberslider",
					"patching_rect" : [ 21.0, 15.0, 172.0, 28.0 ],
					"frgb" : [ 0.933333, 0.937255, 0.968627, 1.0 ],
					"id" : "obj-31",
					"fontname" : "Verdana",
					"numinlets" : 1,
					"fontsize" : 17.334082,
					"numoutlets" : 0
				}

			}
, 			{
				"box" : 				{
					"maxclass" : "comment",
					"text" : "LCD based slider with value display in a bpatcher",
					"patching_rect" : [ 21.0, 39.0, 292.0, 19.0 ],
					"frgb" : [ 0.933333, 0.937255, 0.968627, 1.0 ],
					"id" : "obj-32",
					"fontname" : "Verdana",
					"numinlets" : 1,
					"fontsize" : 10.0,
					"numoutlets" : 0
				}

			}
, 			{
				"box" : 				{
					"maxclass" : "panel",
					"patching_rect" : [ 16.0, 10.0, 400.0, 50.0 ],
					"id" : "obj-33",
					"rounded" : 15,
					"numinlets" : 1,
					"numoutlets" : 0
				}

			}
, 			{
				"box" : 				{
					"maxclass" : "bpatcher",
					"patching_rect" : [ 35.0, 410.0, 202.0, 22.0 ],
					"args" : [ 0.2, "@size", 200, 20, "@frgb", 255, 255, 255, "@brgb", 50, 50, 50, "@rgb2", 111, 111, 111, "@range", 0.0, 1.0 ],
					"id" : "obj-34",
					"name" : "jcom.numberslider.maxpat",
					"numinlets" : 1,
					"numoutlets" : 1,
					"outlettype" : [ "" ]
				}

			}
, 			{
				"box" : 				{
					"maxclass" : "comment",
					"text" : "Input:",
					"patching_rect" : [ 25.0, 70.0, 130.0, 19.0 ],
					"frgb" : [ 0.933333, 0.937255, 0.968627, 1.0 ],
					"id" : "obj-35",
					"fontname" : "Verdana",
					"numinlets" : 1,
					"fontsize" : 10.0,
					"numoutlets" : 0
				}

			}
 ],
		"lines" : [ 			{
				"patchline" : 				{
					"source" : [ "obj-34", 0 ],
					"destination" : [ "obj-29", 0 ],
					"hidden" : 0,
					"midpoints" : [  ]
				}

			}
, 			{
				"patchline" : 				{
					"source" : [ "obj-5", 0 ],
					"destination" : [ "obj-34", 0 ],
					"hidden" : 0,
					"midpoints" : [  ]
				}

			}
, 			{
				"patchline" : 				{
					"source" : [ "obj-30", 0 ],
					"destination" : [ "obj-34", 0 ],
					"hidden" : 0,
					"midpoints" : [ 44.5, 400.0, 44.5, 400.0 ]
				}

			}
, 			{
				"patchline" : 				{
					"source" : [ "obj-27", 0 ],
					"destination" : [ "obj-34", 0 ],
					"hidden" : 0,
					"midpoints" : [ 219.5, 400.0, 44.5, 400.0 ]
				}

			}
, 			{
				"patchline" : 				{
					"source" : [ "obj-26", 0 ],
					"destination" : [ "obj-34", 0 ],
					"hidden" : 0,
					"midpoints" : [ 299.5, 400.0, 44.5, 400.0 ]
				}

			}
, 			{
				"patchline" : 				{
					"source" : [ "obj-11", 0 ],
					"destination" : [ "obj-34", 0 ],
					"hidden" : 0,
					"midpoints" : [ 269.5, 400.0, 44.5, 400.0 ]
				}

			}
, 			{
				"patchline" : 				{
					"source" : [ "obj-2", 0 ],
					"destination" : [ "obj-26", 2 ],
					"hidden" : 0,
					"midpoints" : [  ]
				}

			}
, 			{
				"patchline" : 				{
					"source" : [ "obj-25", 0 ],
					"destination" : [ "obj-26", 1 ],
					"hidden" : 0,
					"midpoints" : [  ]
				}

			}
, 			{
				"patchline" : 				{
					"source" : [ "obj-28", 0 ],
					"destination" : [ "obj-27", 0 ],
					"hidden" : 0,
					"midpoints" : [  ]
				}

			}
, 			{
				"patchline" : 				{
					"source" : [ "obj-3", 0 ],
					"destination" : [ "obj-5", 2 ],
					"hidden" : 0,
					"midpoints" : [  ]
				}

			}
, 			{
				"patchline" : 				{
					"source" : [ "obj-4", 0 ],
					"destination" : [ "obj-5", 1 ],
					"hidden" : 0,
					"midpoints" : [  ]
				}

			}
 ]
	}

}
