{
	"patcher" : 	{
		"fileversion" : 1,
		"rect" : [ 101.0, 241.0, 445.0, 439.0 ],
		"bglocked" : 0,
		"defrect" : [ 101.0, 241.0, 445.0, 439.0 ],
		"openrect" : [ 0.0, 0.0, 0.0, 0.0 ],
		"openinpresentation" : 0,
		"default_fontsize" : 10.970939,
		"default_fontface" : 0,
		"default_fontname" : "Verdana",
		"gridonopen" : 0,
		"gridsize" : [ 5.0, 5.0 ],
		"gridsnaponopen" : 0,
		"toolbarvisible" : 1,
		"boxanimatetime" : 200,
		"imprint" : 0,
		"metadata" : [  ],
		"boxes" : [ 			{
				"box" : 				{
					"maxclass" : "newobj",
					"text" : "p ?",
					"fontsize" : 9.873845,
					"patching_rect" : [ 317.0, 263.0, 24.0, 18.0 ],
					"id" : "obj-1",
					"numinlets" : 0,
					"fontname" : "Verdana",
					"numoutlets" : 0,
					"patcher" : 					{
						"fileversion" : 1,
						"rect" : [ 557.0, 242.0, 396.0, 184.0 ],
						"bglocked" : 0,
						"defrect" : [ 557.0, 242.0, 396.0, 184.0 ],
						"openrect" : [ 0.0, 0.0, 0.0, 0.0 ],
						"openinpresentation" : 0,
						"default_fontsize" : 10.0,
						"default_fontface" : 0,
						"default_fontname" : "Verdana",
						"gridonopen" : 0,
						"gridsize" : [ 5.0, 5.0 ],
						"gridsnaponopen" : 0,
						"toolbarvisible" : 1,
						"boxanimatetime" : 200,
						"imprint" : 0,
						"metadata" : [  ],
						"boxes" : [ 							{
								"box" : 								{
									"maxclass" : "comment",
									"text" : "http://www.cycling74.com/forums/index.php?t=msg&goto=49236&rid=0&srch=attributes+bpatcher#msg_49236",
									"linecount" : 2,
									"fontsize" : 9.873845,
									"patching_rect" : [ 37.0, 65.0, 294.0, 30.0 ],
									"id" : "obj-1",
									"numinlets" : 1,
									"fontname" : "Verdana",
									"numoutlets" : 0
								}

							}
, 							{
								"box" : 								{
									"maxclass" : "comment",
									"text" : "this was discussed on Max List here:",
									"fontsize" : 9.873845,
									"patching_rect" : [ 37.0, 47.0, 190.0, 18.0 ],
									"id" : "obj-2",
									"numinlets" : 1,
									"fontname" : "Verdana",
									"numoutlets" : 0
								}

							}
 ],
						"lines" : [  ]
					}
,
					"saved_object_attributes" : 					{
						"fontface" : 0,
						"fontsize" : 10.0,
						"default_fontface" : 0,
						"fontname" : "Verdana",
						"default_fontname" : "Verdana",
						"globalpatchername" : "",
						"default_fontsize" : 10.0
					}

				}

			}
, 			{
				"box" : 				{
					"maxclass" : "comment",
					"text" : "(this is a trick to get colors updated while changing in the subpatch)",
					"linecount" : 2,
					"fontsize" : 9.873845,
					"hidden" : 1,
					"patching_rect" : [ 205.0, 390.0, 197.0, 30.0 ],
					"id" : "obj-2",
					"numinlets" : 1,
					"fontname" : "Verdana",
					"numoutlets" : 0
				}

			}
, 			{
				"box" : 				{
					"maxclass" : "newobj",
					"text" : "thispatcher",
					"outlettype" : [ "", "" ],
					"fontsize" : 9.873845,
					"hidden" : 1,
					"patching_rect" : [ 262.0, 366.0, 64.0, 18.0 ],
					"id" : "obj-3",
					"numinlets" : 1,
					"fontname" : "Verdana",
					"numoutlets" : 2,
					"save" : [ "#N", "thispatcher", ";", "#Q", "end", ";" ]
				}

			}
, 			{
				"box" : 				{
					"maxclass" : "newobj",
					"text" : "p",
					"outlettype" : [ "front" ],
					"fontsize" : 9.873845,
					"hidden" : 1,
					"patching_rect" : [ 262.0, 343.0, 17.0, 18.0 ],
					"id" : "obj-4",
					"numinlets" : 1,
					"fontname" : "Verdana",
					"numoutlets" : 1,
					"patcher" : 					{
						"fileversion" : 1,
						"rect" : [ 188.0, 431.0, 147.0, 184.0 ],
						"bglocked" : 0,
						"defrect" : [ 188.0, 431.0, 147.0, 184.0 ],
						"openrect" : [ 0.0, 0.0, 0.0, 0.0 ],
						"openinpresentation" : 0,
						"default_fontsize" : 10.0,
						"default_fontface" : 0,
						"default_fontname" : "Verdana",
						"gridonopen" : 0,
						"gridsize" : [ 5.0, 5.0 ],
						"gridsnaponopen" : 0,
						"toolbarvisible" : 1,
						"boxanimatetime" : 200,
						"imprint" : 0,
						"metadata" : [  ],
						"boxes" : [ 							{
								"box" : 								{
									"maxclass" : "button",
									"outlettype" : [ "bang" ],
									"patching_rect" : [ 41.0, 33.0, 15.0, 15.0 ],
									"id" : "obj-1",
									"numinlets" : 1,
									"numoutlets" : 1
								}

							}
, 							{
								"box" : 								{
									"maxclass" : "newobj",
									"text" : "deferlow",
									"outlettype" : [ "" ],
									"fontsize" : 9.873845,
									"patching_rect" : [ 41.0, 54.0, 51.0, 18.0 ],
									"id" : "obj-2",
									"numinlets" : 1,
									"fontname" : "Verdana",
									"numoutlets" : 1
								}

							}
, 							{
								"box" : 								{
									"maxclass" : "newobj",
									"text" : "t front",
									"outlettype" : [ "front" ],
									"fontsize" : 9.873845,
									"patching_rect" : [ 41.0, 75.0, 50.0, 18.0 ],
									"id" : "obj-3",
									"numinlets" : 1,
									"fontname" : "Verdana",
									"numoutlets" : 1
								}

							}
, 							{
								"box" : 								{
									"maxclass" : "outlet",
									"patching_rect" : [ 41.0, 103.0, 15.0, 15.0 ],
									"id" : "obj-4",
									"numinlets" : 1,
									"numoutlets" : 0,
									"comment" : ""
								}

							}
, 							{
								"box" : 								{
									"maxclass" : "inlet",
									"outlettype" : [ "" ],
									"patching_rect" : [ 41.0, 15.0, 15.0, 15.0 ],
									"id" : "obj-5",
									"numinlets" : 0,
									"numoutlets" : 1,
									"comment" : ""
								}

							}
 ],
						"lines" : [ 							{
								"patchline" : 								{
									"source" : [ "obj-3", 0 ],
									"destination" : [ "obj-4", 0 ],
									"hidden" : 0,
									"midpoints" : [  ]
								}

							}
, 							{
								"patchline" : 								{
									"source" : [ "obj-2", 0 ],
									"destination" : [ "obj-3", 0 ],
									"hidden" : 0,
									"midpoints" : [  ]
								}

							}
, 							{
								"patchline" : 								{
									"source" : [ "obj-1", 0 ],
									"destination" : [ "obj-2", 0 ],
									"hidden" : 0,
									"midpoints" : [  ]
								}

							}
, 							{
								"patchline" : 								{
									"source" : [ "obj-5", 0 ],
									"destination" : [ "obj-1", 0 ],
									"hidden" : 0,
									"midpoints" : [  ]
								}

							}
 ]
					}
,
					"saved_object_attributes" : 					{
						"fontface" : 0,
						"fontsize" : 10.0,
						"default_fontface" : 0,
						"fontname" : "Verdana",
						"default_fontname" : "Verdana",
						"globalpatchername" : "",
						"default_fontsize" : 10.0
					}

				}

			}
, 			{
				"box" : 				{
					"maxclass" : "button",
					"outlettype" : [ "bang" ],
					"patching_rect" : [ 10.0, 295.0, 19.0, 19.0 ],
					"id" : "obj-5",
					"numinlets" : 1,
					"numoutlets" : 1
				}

			}
, 			{
				"box" : 				{
					"maxclass" : "comment",
					"text" : "bang : output value",
					"fontsize" : 9.873845,
					"patching_rect" : [ 37.0, 117.0, 160.0, 18.0 ],
					"id" : "obj-6",
					"numinlets" : 1,
					"fontname" : "Verdana",
					"numoutlets" : 0
				}

			}
, 			{
				"box" : 				{
					"maxclass" : "newobj",
					"text" : "p colors",
					"outlettype" : [ "" ],
					"fontsize" : 9.873845,
					"patching_rect" : [ 262.0, 293.0, 50.0, 18.0 ],
					"id" : "obj-7",
					"numinlets" : 0,
					"fontname" : "Verdana",
					"numoutlets" : 1,
					"patcher" : 					{
						"fileversion" : 1,
						"rect" : [ 100.0, 100.0, 480.0, 132.0 ],
						"bglocked" : 0,
						"defrect" : [ 100.0, 100.0, 480.0, 132.0 ],
						"openrect" : [ 0.0, 0.0, 0.0, 0.0 ],
						"openinpresentation" : 0,
						"default_fontsize" : 10.0,
						"default_fontface" : 0,
						"default_fontname" : "Verdana",
						"gridonopen" : 0,
						"gridsize" : [ 5.0, 5.0 ],
						"gridsnaponopen" : 0,
						"toolbarvisible" : 1,
						"boxanimatetime" : 200,
						"imprint" : 0,
						"metadata" : [  ],
						"boxes" : [ 							{
								"box" : 								{
									"maxclass" : "newobj",
									"text" : "thispatcher",
									"outlettype" : [ "", "" ],
									"fontsize" : 9.873845,
									"hidden" : 1,
									"patching_rect" : [ 265.0, 347.0, 64.0, 18.0 ],
									"id" : "obj-1",
									"numinlets" : 1,
									"fontname" : "Verdana",
									"numoutlets" : 2,
									"save" : [ "#N", "thispatcher", ";", "#Q", "end", ";" ]
								}

							}
, 							{
								"box" : 								{
									"maxclass" : "newobj",
									"text" : "p",
									"outlettype" : [ "front" ],
									"fontsize" : 9.873845,
									"hidden" : 1,
									"patching_rect" : [ 265.0, 324.0, 17.0, 18.0 ],
									"id" : "obj-2",
									"numinlets" : 1,
									"fontname" : "Verdana",
									"numoutlets" : 1,
									"patcher" : 									{
										"fileversion" : 1,
										"rect" : [ 183.0, 532.0, 147.0, 184.0 ],
										"bglocked" : 0,
										"defrect" : [ 183.0, 532.0, 147.0, 184.0 ],
										"openrect" : [ 0.0, 0.0, 0.0, 0.0 ],
										"openinpresentation" : 0,
										"default_fontsize" : 10.0,
										"default_fontface" : 0,
										"default_fontname" : "Verdana",
										"gridonopen" : 0,
										"gridsize" : [ 5.0, 5.0 ],
										"gridsnaponopen" : 0,
										"toolbarvisible" : 1,
										"boxanimatetime" : 200,
										"imprint" : 0,
										"metadata" : [  ],
										"boxes" : [ 											{
												"box" : 												{
													"maxclass" : "button",
													"outlettype" : [ "bang" ],
													"patching_rect" : [ 41.0, 33.0, 15.0, 15.0 ],
													"id" : "obj-1",
													"numinlets" : 1,
													"numoutlets" : 1
												}

											}
, 											{
												"box" : 												{
													"maxclass" : "newobj",
													"text" : "deferlow",
													"outlettype" : [ "" ],
													"fontsize" : 9.873845,
													"patching_rect" : [ 41.0, 54.0, 51.0, 18.0 ],
													"id" : "obj-2",
													"numinlets" : 1,
													"fontname" : "Verdana",
													"numoutlets" : 1
												}

											}
, 											{
												"box" : 												{
													"maxclass" : "newobj",
													"text" : "t front",
													"outlettype" : [ "front" ],
													"fontsize" : 9.873845,
													"patching_rect" : [ 41.0, 91.0, 50.0, 18.0 ],
													"id" : "obj-3",
													"numinlets" : 1,
													"fontname" : "Verdana",
													"numoutlets" : 1
												}

											}
, 											{
												"box" : 												{
													"maxclass" : "outlet",
													"patching_rect" : [ 41.0, 119.0, 15.0, 15.0 ],
													"id" : "obj-4",
													"numinlets" : 1,
													"numoutlets" : 0,
													"comment" : ""
												}

											}
, 											{
												"box" : 												{
													"maxclass" : "inlet",
													"outlettype" : [ "bang" ],
													"patching_rect" : [ 41.0, 15.0, 15.0, 15.0 ],
													"id" : "obj-5",
													"numinlets" : 0,
													"numoutlets" : 1,
													"comment" : ""
												}

											}
 ],
										"lines" : [ 											{
												"patchline" : 												{
													"source" : [ "obj-3", 0 ],
													"destination" : [ "obj-4", 0 ],
													"hidden" : 0,
													"midpoints" : [  ]
												}

											}
, 											{
												"patchline" : 												{
													"source" : [ "obj-2", 0 ],
													"destination" : [ "obj-3", 0 ],
													"hidden" : 0,
													"midpoints" : [  ]
												}

											}
, 											{
												"patchline" : 												{
													"source" : [ "obj-1", 0 ],
													"destination" : [ "obj-2", 0 ],
													"hidden" : 0,
													"midpoints" : [  ]
												}

											}
, 											{
												"patchline" : 												{
													"source" : [ "obj-5", 0 ],
													"destination" : [ "obj-1", 0 ],
													"hidden" : 0,
													"midpoints" : [  ]
												}

											}
 ]
									}
,
									"saved_object_attributes" : 									{
										"fontface" : 0,
										"fontsize" : 10.0,
										"default_fontface" : 0,
										"fontname" : "Verdana",
										"default_fontname" : "Verdana",
										"globalpatchername" : "",
										"default_fontsize" : 10.0
									}

								}

							}
, 							{
								"box" : 								{
									"maxclass" : "newobj",
									"text" : "t b l",
									"outlettype" : [ "bang", "" ],
									"fontsize" : 9.873845,
									"hidden" : 1,
									"patching_rect" : [ 310.0, 293.0, 28.0, 18.0 ],
									"id" : "obj-3",
									"numinlets" : 1,
									"fontname" : "Verdana",
									"numoutlets" : 2
								}

							}
, 							{
								"box" : 								{
									"maxclass" : "outlet",
									"hidden" : 1,
									"patching_rect" : [ 310.0, 325.0, 15.0, 15.0 ],
									"id" : "obj-4",
									"numinlets" : 1,
									"numoutlets" : 0,
									"comment" : ""
								}

							}
, 							{
								"box" : 								{
									"maxclass" : "newobj",
									"text" : "t b 1 b",
									"outlettype" : [ "bang", "int", "bang" ],
									"fontsize" : 9.873845,
									"hidden" : 1,
									"patching_rect" : [ 97.0, -41.0, 41.0, 18.0 ],
									"id" : "obj-5",
									"numinlets" : 1,
									"fontname" : "Verdana",
									"numoutlets" : 3
								}

							}
, 							{
								"box" : 								{
									"maxclass" : "newobj",
									"text" : "onecopy",
									"fontsize" : 9.873845,
									"hidden" : 1,
									"patching_rect" : [ 144.0, 323.0, 50.0, 18.0 ],
									"id" : "obj-6",
									"numinlets" : 1,
									"fontname" : "Verdana",
									"numoutlets" : 0
								}

							}
, 							{
								"box" : 								{
									"maxclass" : "message",
									"text" : "window title, window exec",
									"outlettype" : [ "" ],
									"fontsize" : 9.873845,
									"hidden" : 1,
									"patching_rect" : [ 9.0, 71.0, 139.0, 16.0 ],
									"id" : "obj-7",
									"numinlets" : 2,
									"fontname" : "Verdana",
									"numoutlets" : 1
								}

							}
, 							{
								"box" : 								{
									"maxclass" : "message",
									"text" : "window notitle, window exec",
									"outlettype" : [ "" ],
									"fontsize" : 9.873845,
									"hidden" : 1,
									"patching_rect" : [ 9.0, 59.0, 151.0, 16.0 ],
									"id" : "obj-8",
									"numinlets" : 2,
									"fontname" : "Verdana",
									"numoutlets" : 1
								}

							}
, 							{
								"box" : 								{
									"maxclass" : "message",
									"text" : "window size 100 100 580 206, window exec",
									"outlettype" : [ "" ],
									"fontsize" : 9.873845,
									"hidden" : 1,
									"patching_rect" : [ 9.0, 46.0, 228.0, 16.0 ],
									"id" : "obj-9",
									"numinlets" : 2,
									"fontname" : "Verdana",
									"numoutlets" : 1
								}

							}
, 							{
								"box" : 								{
									"maxclass" : "message",
									"text" : "42",
									"outlettype" : [ "" ],
									"fontsize" : 9.873845,
									"hidden" : 1,
									"patching_rect" : [ 238.0, -55.0, 21.0, 16.0 ],
									"id" : "obj-10",
									"numinlets" : 2,
									"fontname" : "Verdana",
									"numoutlets" : 1
								}

							}
, 							{
								"box" : 								{
									"maxclass" : "button",
									"outlettype" : [ "bang" ],
									"hidden" : 1,
									"patching_rect" : [ -22.0, 213.0, 15.0, 15.0 ],
									"id" : "obj-11",
									"numinlets" : 1,
									"numoutlets" : 1
								}

							}
, 							{
								"box" : 								{
									"maxclass" : "newobj",
									"text" : "zl slice 1",
									"outlettype" : [ "", "" ],
									"fontsize" : 9.873845,
									"hidden" : 1,
									"patching_rect" : [ -1.0, 110.0, 51.0, 18.0 ],
									"id" : "obj-12",
									"numinlets" : 2,
									"fontname" : "Verdana",
									"numoutlets" : 2
								}

							}
, 							{
								"box" : 								{
									"maxclass" : "newobj",
									"text" : "prepend set",
									"outlettype" : [ "" ],
									"fontsize" : 9.873845,
									"hidden" : 1,
									"patching_rect" : [ 100.0, 113.0, 68.0, 18.0 ],
									"id" : "obj-13",
									"numinlets" : 1,
									"fontname" : "Verdana",
									"numoutlets" : 1
								}

							}
, 							{
								"box" : 								{
									"maxclass" : "newobj",
									"text" : "route symbol",
									"outlettype" : [ "", "" ],
									"fontsize" : 9.873845,
									"hidden" : 1,
									"patching_rect" : [ -1.0, 173.0, 74.0, 18.0 ],
									"id" : "obj-14",
									"numinlets" : 1,
									"fontname" : "Verdana",
									"numoutlets" : 2
								}

							}
, 							{
								"box" : 								{
									"maxclass" : "newobj",
									"text" : "prepend set",
									"outlettype" : [ "" ],
									"fontsize" : 9.873845,
									"hidden" : 1,
									"patching_rect" : [ -1.0, 195.0, 68.0, 18.0 ],
									"id" : "obj-15",
									"numinlets" : 1,
									"fontname" : "Verdana",
									"numoutlets" : 1
								}

							}
, 							{
								"box" : 								{
									"maxclass" : "newobj",
									"text" : "prepend symbol",
									"outlettype" : [ "" ],
									"fontsize" : 9.873845,
									"hidden" : 1,
									"patching_rect" : [ -1.0, 131.0, 88.0, 18.0 ],
									"id" : "obj-16",
									"numinlets" : 1,
									"fontname" : "Verdana",
									"numoutlets" : 1
								}

							}
, 							{
								"box" : 								{
									"maxclass" : "newobj",
									"text" : "dialog \"Message to send:\"",
									"outlettype" : [ "" ],
									"fontsize" : 9.873845,
									"hidden" : 1,
									"patching_rect" : [ -1.0, 152.0, 138.0, 18.0 ],
									"id" : "obj-17",
									"numinlets" : 2,
									"fontname" : "Verdana",
									"numoutlets" : 1
								}

							}
, 							{
								"box" : 								{
									"maxclass" : "message",
									"text" : "frgb 106 148 148",
									"outlettype" : [ "" ],
									"fontsize" : 9.873845,
									"patching_rect" : [ 0.0, 91.0, 160.0, 16.0 ],
									"id" : "obj-18",
									"numinlets" : 2,
									"fontname" : "Verdana",
									"numoutlets" : 1
								}

							}
, 							{
								"box" : 								{
									"maxclass" : "newobj",
									"text" : "prepend frgb",
									"outlettype" : [ "" ],
									"fontsize" : 9.873845,
									"hidden" : 1,
									"patching_rect" : [ 59.0, 224.0, 73.0, 18.0 ],
									"id" : "obj-19",
									"numinlets" : 1,
									"fontname" : "Verdana",
									"numoutlets" : 1
								}

							}
, 							{
								"box" : 								{
									"maxclass" : "slider",
									"outlettype" : [ "" ],
									"patching_rect" : [ 0.0, 0.0, 160.0, 10.0 ],
									"id" : "obj-20",
									"numinlets" : 1,
									"orientation" : 1,
									"numoutlets" : 1,
									"size" : 256.0
								}

							}
, 							{
								"box" : 								{
									"maxclass" : "message",
									"text" : "saturation $1",
									"outlettype" : [ "" ],
									"fontsize" : 9.873845,
									"hidden" : 1,
									"patching_rect" : [ 0.0, -25.0, 75.0, 16.0 ],
									"id" : "obj-21",
									"numinlets" : 2,
									"fontname" : "Verdana",
									"numoutlets" : 1
								}

							}
, 							{
								"box" : 								{
									"maxclass" : "button",
									"outlettype" : [ "bang" ],
									"hidden" : 1,
									"patching_rect" : [ 138.0, 213.0, 15.0, 15.0 ],
									"id" : "obj-22",
									"numinlets" : 1,
									"numoutlets" : 1
								}

							}
, 							{
								"box" : 								{
									"maxclass" : "newobj",
									"text" : "zl slice 1",
									"outlettype" : [ "", "" ],
									"fontsize" : 9.873845,
									"hidden" : 1,
									"patching_rect" : [ 159.0, 110.0, 51.0, 18.0 ],
									"id" : "obj-23",
									"numinlets" : 2,
									"fontname" : "Verdana",
									"numoutlets" : 2
								}

							}
, 							{
								"box" : 								{
									"maxclass" : "newobj",
									"text" : "prepend set",
									"outlettype" : [ "" ],
									"fontsize" : 9.873845,
									"hidden" : 1,
									"patching_rect" : [ 260.0, 113.0, 68.0, 18.0 ],
									"id" : "obj-24",
									"numinlets" : 1,
									"fontname" : "Verdana",
									"numoutlets" : 1
								}

							}
, 							{
								"box" : 								{
									"maxclass" : "newobj",
									"text" : "route symbol",
									"outlettype" : [ "", "" ],
									"fontsize" : 9.873845,
									"hidden" : 1,
									"patching_rect" : [ 159.0, 173.0, 74.0, 18.0 ],
									"id" : "obj-25",
									"numinlets" : 1,
									"fontname" : "Verdana",
									"numoutlets" : 2
								}

							}
, 							{
								"box" : 								{
									"maxclass" : "newobj",
									"text" : "prepend set",
									"outlettype" : [ "" ],
									"fontsize" : 9.873845,
									"hidden" : 1,
									"patching_rect" : [ 159.0, 195.0, 68.0, 18.0 ],
									"id" : "obj-26",
									"numinlets" : 1,
									"fontname" : "Verdana",
									"numoutlets" : 1
								}

							}
, 							{
								"box" : 								{
									"maxclass" : "newobj",
									"text" : "prepend symbol",
									"outlettype" : [ "" ],
									"fontsize" : 9.873845,
									"hidden" : 1,
									"patching_rect" : [ 159.0, 131.0, 88.0, 18.0 ],
									"id" : "obj-27",
									"numinlets" : 1,
									"fontname" : "Verdana",
									"numoutlets" : 1
								}

							}
, 							{
								"box" : 								{
									"maxclass" : "newobj",
									"text" : "dialog \"Message to send:\"",
									"outlettype" : [ "" ],
									"fontsize" : 9.873845,
									"hidden" : 1,
									"patching_rect" : [ 159.0, 152.0, 138.0, 18.0 ],
									"id" : "obj-28",
									"numinlets" : 2,
									"fontname" : "Verdana",
									"numoutlets" : 1
								}

							}
, 							{
								"box" : 								{
									"maxclass" : "message",
									"text" : "brgb 106 148 148",
									"outlettype" : [ "" ],
									"fontsize" : 9.873845,
									"patching_rect" : [ 160.0, 91.0, 160.0, 16.0 ],
									"id" : "obj-29",
									"numinlets" : 2,
									"fontname" : "Verdana",
									"numoutlets" : 1
								}

							}
, 							{
								"box" : 								{
									"maxclass" : "newobj",
									"text" : "prepend brgb",
									"outlettype" : [ "" ],
									"fontsize" : 9.873845,
									"hidden" : 1,
									"patching_rect" : [ 219.0, 224.0, 75.0, 18.0 ],
									"id" : "obj-30",
									"numinlets" : 1,
									"fontname" : "Verdana",
									"numoutlets" : 1
								}

							}
, 							{
								"box" : 								{
									"maxclass" : "slider",
									"outlettype" : [ "" ],
									"patching_rect" : [ 160.0, 0.0, 160.0, 10.0 ],
									"id" : "obj-31",
									"numinlets" : 1,
									"orientation" : 1,
									"numoutlets" : 1,
									"size" : 256.0
								}

							}
, 							{
								"box" : 								{
									"maxclass" : "message",
									"text" : "saturation $1",
									"outlettype" : [ "" ],
									"fontsize" : 9.873845,
									"hidden" : 1,
									"patching_rect" : [ 160.0, -25.0, 75.0, 16.0 ],
									"id" : "obj-32",
									"numinlets" : 2,
									"fontname" : "Verdana",
									"numoutlets" : 1
								}

							}
, 							{
								"box" : 								{
									"maxclass" : "button",
									"outlettype" : [ "bang" ],
									"hidden" : 1,
									"patching_rect" : [ 298.0, 213.0, 15.0, 15.0 ],
									"id" : "obj-33",
									"numinlets" : 1,
									"numoutlets" : 1
								}

							}
, 							{
								"box" : 								{
									"maxclass" : "newobj",
									"text" : "zl slice 1",
									"outlettype" : [ "", "" ],
									"fontsize" : 9.873845,
									"hidden" : 1,
									"patching_rect" : [ 319.0, 110.0, 51.0, 18.0 ],
									"id" : "obj-34",
									"numinlets" : 2,
									"fontname" : "Verdana",
									"numoutlets" : 2
								}

							}
, 							{
								"box" : 								{
									"maxclass" : "newobj",
									"text" : "prepend set",
									"outlettype" : [ "" ],
									"fontsize" : 9.873845,
									"hidden" : 1,
									"patching_rect" : [ 420.0, 113.0, 68.0, 18.0 ],
									"id" : "obj-35",
									"numinlets" : 1,
									"fontname" : "Verdana",
									"numoutlets" : 1
								}

							}
, 							{
								"box" : 								{
									"maxclass" : "newobj",
									"text" : "route symbol",
									"outlettype" : [ "", "" ],
									"fontsize" : 9.873845,
									"hidden" : 1,
									"patching_rect" : [ 319.0, 173.0, 74.0, 18.0 ],
									"id" : "obj-36",
									"numinlets" : 1,
									"fontname" : "Verdana",
									"numoutlets" : 2
								}

							}
, 							{
								"box" : 								{
									"maxclass" : "newobj",
									"text" : "prepend set",
									"outlettype" : [ "" ],
									"fontsize" : 9.873845,
									"hidden" : 1,
									"patching_rect" : [ 319.0, 195.0, 68.0, 18.0 ],
									"id" : "obj-37",
									"numinlets" : 1,
									"fontname" : "Verdana",
									"numoutlets" : 1
								}

							}
, 							{
								"box" : 								{
									"maxclass" : "newobj",
									"text" : "prepend symbol",
									"outlettype" : [ "" ],
									"fontsize" : 9.873845,
									"hidden" : 1,
									"patching_rect" : [ 319.0, 131.0, 88.0, 18.0 ],
									"id" : "obj-38",
									"numinlets" : 1,
									"fontname" : "Verdana",
									"numoutlets" : 1
								}

							}
, 							{
								"box" : 								{
									"maxclass" : "newobj",
									"text" : "dialog \"Message to send:\"",
									"outlettype" : [ "" ],
									"fontsize" : 9.873845,
									"hidden" : 1,
									"patching_rect" : [ 319.0, 152.0, 138.0, 18.0 ],
									"id" : "obj-39",
									"numinlets" : 2,
									"fontname" : "Verdana",
									"numoutlets" : 1
								}

							}
, 							{
								"box" : 								{
									"maxclass" : "message",
									"text" : "rgb2 106 148 148",
									"outlettype" : [ "" ],
									"fontsize" : 9.873845,
									"patching_rect" : [ 320.0, 91.0, 160.0, 16.0 ],
									"id" : "obj-40",
									"numinlets" : 2,
									"fontname" : "Verdana",
									"numoutlets" : 1
								}

							}
, 							{
								"box" : 								{
									"maxclass" : "newobj",
									"text" : "prepend rgb2",
									"outlettype" : [ "" ],
									"fontsize" : 9.873845,
									"hidden" : 1,
									"patching_rect" : [ 379.0, 224.0, 75.0, 18.0 ],
									"id" : "obj-41",
									"numinlets" : 1,
									"fontname" : "Verdana",
									"numoutlets" : 1
								}

							}
, 							{
								"box" : 								{
									"maxclass" : "slider",
									"outlettype" : [ "" ],
									"patching_rect" : [ 320.0, 0.0, 160.0, 10.0 ],
									"id" : "obj-42",
									"numinlets" : 1,
									"orientation" : 1,
									"numoutlets" : 1,
									"size" : 256.0
								}

							}
, 							{
								"box" : 								{
									"maxclass" : "message",
									"text" : "saturation $1",
									"outlettype" : [ "" ],
									"fontsize" : 9.873845,
									"hidden" : 1,
									"patching_rect" : [ 320.0, -25.0, 75.0, 16.0 ],
									"id" : "obj-43",
									"numinlets" : 2,
									"fontname" : "Verdana",
									"numoutlets" : 1
								}

							}
, 							{
								"box" : 								{
									"maxclass" : "swatch",
									"outlettype" : [ "", "float" ],
									"compatibility" : 1,
									"patching_rect" : [ 320.0, 10.0, 160.0, 81.0 ],
									"id" : "obj-44",
									"numinlets" : 3,
									"numoutlets" : 2
								}

							}
, 							{
								"box" : 								{
									"maxclass" : "button",
									"outlettype" : [ "bang" ],
									"hidden" : 1,
									"patching_rect" : [ 458.0, 213.0, 15.0, 15.0 ],
									"id" : "obj-45",
									"numinlets" : 1,
									"numoutlets" : 1
								}

							}
, 							{
								"box" : 								{
									"maxclass" : "newobj",
									"text" : "zl slice 1",
									"outlettype" : [ "", "" ],
									"fontsize" : 9.873845,
									"hidden" : 1,
									"patching_rect" : [ 479.0, 110.0, 51.0, 18.0 ],
									"id" : "obj-46",
									"numinlets" : 2,
									"fontname" : "Verdana",
									"numoutlets" : 2
								}

							}
, 							{
								"box" : 								{
									"maxclass" : "message",
									"text" : "window flags grow, window exec",
									"outlettype" : [ "" ],
									"fontsize" : 9.873845,
									"hidden" : 1,
									"patching_rect" : [ 9.0, 32.0, 171.0, 16.0 ],
									"id" : "obj-47",
									"numinlets" : 2,
									"fontname" : "Verdana",
									"numoutlets" : 1
								}

							}
, 							{
								"box" : 								{
									"maxclass" : "message",
									"text" : "window flags nogrow, window exec",
									"outlettype" : [ "" ],
									"fontsize" : 9.873845,
									"hidden" : 1,
									"patching_rect" : [ 9.0, 20.0, 183.0, 16.0 ],
									"id" : "obj-48",
									"numinlets" : 2,
									"fontname" : "Verdana",
									"numoutlets" : 1
								}

							}
, 							{
								"box" : 								{
									"maxclass" : "newobj",
									"text" : "loadbang",
									"outlettype" : [ "bang" ],
									"fontsize" : 9.873845,
									"hidden" : 1,
									"patching_rect" : [ 97.0, -65.0, 54.0, 18.0 ],
									"id" : "obj-49",
									"numinlets" : 1,
									"fontname" : "Verdana",
									"numoutlets" : 1
								}

							}
, 							{
								"box" : 								{
									"maxclass" : "newobj",
									"text" : "thispatcher",
									"outlettype" : [ "", "" ],
									"fontsize" : 9.873845,
									"hidden" : 1,
									"patching_rect" : [ 9.0, -49.0, 64.0, 18.0 ],
									"id" : "obj-50",
									"numinlets" : 1,
									"fontname" : "Verdana",
									"numoutlets" : 2,
									"save" : [ "#N", "thispatcher", ";", "#Q", "end", ";" ]
								}

							}
, 							{
								"box" : 								{
									"maxclass" : "message",
									"text" : "saturation $1",
									"outlettype" : [ "" ],
									"fontsize" : 9.873845,
									"hidden" : 1,
									"patching_rect" : [ 480.0, -25.0, 75.0, 16.0 ],
									"id" : "obj-51",
									"numinlets" : 2,
									"fontname" : "Verdana",
									"numoutlets" : 1
								}

							}
, 							{
								"box" : 								{
									"maxclass" : "newobj",
									"text" : "gate",
									"outlettype" : [ "" ],
									"fontsize" : 9.873845,
									"hidden" : 1,
									"patching_rect" : [ 311.0, 274.0, 30.0, 18.0 ],
									"id" : "obj-52",
									"numinlets" : 2,
									"fontname" : "Verdana",
									"numoutlets" : 1
								}

							}
, 							{
								"box" : 								{
									"maxclass" : "swatch",
									"outlettype" : [ "", "float" ],
									"compatibility" : 1,
									"patching_rect" : [ 0.0, 10.0, 160.0, 81.0 ],
									"id" : "obj-53",
									"numinlets" : 3,
									"numoutlets" : 2
								}

							}
, 							{
								"box" : 								{
									"maxclass" : "swatch",
									"outlettype" : [ "", "float" ],
									"compatibility" : 1,
									"patching_rect" : [ 160.0, 10.0, 160.0, 81.0 ],
									"id" : "obj-54",
									"numinlets" : 3,
									"numoutlets" : 2
								}

							}
 ],
						"lines" : [ 							{
								"patchline" : 								{
									"source" : [ "obj-41", 0 ],
									"destination" : [ "obj-35", 0 ],
									"hidden" : 1,
									"midpoints" : [  ]
								}

							}
, 							{
								"patchline" : 								{
									"source" : [ "obj-37", 0 ],
									"destination" : [ "obj-41", 0 ],
									"hidden" : 1,
									"midpoints" : [  ]
								}

							}
, 							{
								"patchline" : 								{
									"source" : [ "obj-44", 0 ],
									"destination" : [ "obj-41", 0 ],
									"hidden" : 1,
									"midpoints" : [  ]
								}

							}
, 							{
								"patchline" : 								{
									"source" : [ "obj-19", 0 ],
									"destination" : [ "obj-52", 1 ],
									"hidden" : 1,
									"midpoints" : [  ]
								}

							}
, 							{
								"patchline" : 								{
									"source" : [ "obj-30", 0 ],
									"destination" : [ "obj-52", 1 ],
									"hidden" : 1,
									"midpoints" : [  ]
								}

							}
, 							{
								"patchline" : 								{
									"source" : [ "obj-41", 0 ],
									"destination" : [ "obj-52", 1 ],
									"hidden" : 1,
									"midpoints" : [  ]
								}

							}
, 							{
								"patchline" : 								{
									"source" : [ "obj-35", 0 ],
									"destination" : [ "obj-40", 0 ],
									"hidden" : 1,
									"midpoints" : [  ]
								}

							}
, 							{
								"patchline" : 								{
									"source" : [ "obj-43", 0 ],
									"destination" : [ "obj-44", 0 ],
									"hidden" : 1,
									"midpoints" : [  ]
								}

							}
, 							{
								"patchline" : 								{
									"source" : [ "obj-33", 0 ],
									"destination" : [ "obj-44", 0 ],
									"hidden" : 1,
									"midpoints" : [  ]
								}

							}
, 							{
								"patchline" : 								{
									"source" : [ "obj-10", 0 ],
									"destination" : [ "obj-42", 0 ],
									"hidden" : 1,
									"midpoints" : [ 247.5, -5.0, 329.5, -5.0 ]
								}

							}
, 							{
								"patchline" : 								{
									"source" : [ "obj-42", 0 ],
									"destination" : [ "obj-43", 0 ],
									"hidden" : 1,
									"midpoints" : [  ]
								}

							}
, 							{
								"patchline" : 								{
									"source" : [ "obj-36", 0 ],
									"destination" : [ "obj-37", 0 ],
									"hidden" : 1,
									"midpoints" : [  ]
								}

							}
, 							{
								"patchline" : 								{
									"source" : [ "obj-36", 1 ],
									"destination" : [ "obj-37", 0 ],
									"hidden" : 1,
									"midpoints" : [  ]
								}

							}
, 							{
								"patchline" : 								{
									"source" : [ "obj-39", 0 ],
									"destination" : [ "obj-36", 0 ],
									"hidden" : 1,
									"midpoints" : [  ]
								}

							}
, 							{
								"patchline" : 								{
									"source" : [ "obj-38", 0 ],
									"destination" : [ "obj-39", 0 ],
									"hidden" : 1,
									"midpoints" : [  ]
								}

							}
, 							{
								"patchline" : 								{
									"source" : [ "obj-34", 0 ],
									"destination" : [ "obj-38", 0 ],
									"hidden" : 1,
									"midpoints" : [  ]
								}

							}
, 							{
								"patchline" : 								{
									"source" : [ "obj-40", 0 ],
									"destination" : [ "obj-34", 0 ],
									"hidden" : 1,
									"midpoints" : [  ]
								}

							}
, 							{
								"patchline" : 								{
									"source" : [ "obj-5", 1 ],
									"destination" : [ "obj-52", 0 ],
									"hidden" : 1,
									"midpoints" : [  ]
								}

							}
, 							{
								"patchline" : 								{
									"source" : [ "obj-3", 1 ],
									"destination" : [ "obj-4", 0 ],
									"hidden" : 1,
									"midpoints" : [  ]
								}

							}
, 							{
								"patchline" : 								{
									"source" : [ "obj-52", 0 ],
									"destination" : [ "obj-3", 0 ],
									"hidden" : 0,
									"midpoints" : [  ]
								}

							}
, 							{
								"patchline" : 								{
									"source" : [ "obj-37", 0 ],
									"destination" : [ "obj-33", 0 ],
									"hidden" : 1,
									"midpoints" : [  ]
								}

							}
, 							{
								"patchline" : 								{
									"source" : [ "obj-2", 0 ],
									"destination" : [ "obj-1", 0 ],
									"hidden" : 1,
									"midpoints" : [  ]
								}

							}
, 							{
								"patchline" : 								{
									"source" : [ "obj-3", 0 ],
									"destination" : [ "obj-2", 0 ],
									"hidden" : 1,
									"midpoints" : [  ]
								}

							}
, 							{
								"patchline" : 								{
									"source" : [ "obj-30", 0 ],
									"destination" : [ "obj-24", 0 ],
									"hidden" : 1,
									"midpoints" : [  ]
								}

							}
, 							{
								"patchline" : 								{
									"source" : [ "obj-5", 2 ],
									"destination" : [ "obj-10", 0 ],
									"hidden" : 1,
									"midpoints" : [  ]
								}

							}
, 							{
								"patchline" : 								{
									"source" : [ "obj-26", 0 ],
									"destination" : [ "obj-30", 0 ],
									"hidden" : 1,
									"midpoints" : [  ]
								}

							}
, 							{
								"patchline" : 								{
									"source" : [ "obj-54", 0 ],
									"destination" : [ "obj-30", 0 ],
									"hidden" : 1,
									"midpoints" : [  ]
								}

							}
, 							{
								"patchline" : 								{
									"source" : [ "obj-24", 0 ],
									"destination" : [ "obj-29", 0 ],
									"hidden" : 1,
									"midpoints" : [  ]
								}

							}
, 							{
								"patchline" : 								{
									"source" : [ "obj-22", 0 ],
									"destination" : [ "obj-54", 0 ],
									"hidden" : 1,
									"midpoints" : [  ]
								}

							}
, 							{
								"patchline" : 								{
									"source" : [ "obj-32", 0 ],
									"destination" : [ "obj-54", 0 ],
									"hidden" : 1,
									"midpoints" : [  ]
								}

							}
, 							{
								"patchline" : 								{
									"source" : [ "obj-10", 0 ],
									"destination" : [ "obj-31", 0 ],
									"hidden" : 1,
									"midpoints" : [ 247.5, -5.0, 169.5, -5.0 ]
								}

							}
, 							{
								"patchline" : 								{
									"source" : [ "obj-31", 0 ],
									"destination" : [ "obj-32", 0 ],
									"hidden" : 1,
									"midpoints" : [  ]
								}

							}
, 							{
								"patchline" : 								{
									"source" : [ "obj-25", 1 ],
									"destination" : [ "obj-26", 0 ],
									"hidden" : 1,
									"midpoints" : [  ]
								}

							}
, 							{
								"patchline" : 								{
									"source" : [ "obj-25", 0 ],
									"destination" : [ "obj-26", 0 ],
									"hidden" : 1,
									"midpoints" : [  ]
								}

							}
, 							{
								"patchline" : 								{
									"source" : [ "obj-28", 0 ],
									"destination" : [ "obj-25", 0 ],
									"hidden" : 1,
									"midpoints" : [  ]
								}

							}
, 							{
								"patchline" : 								{
									"source" : [ "obj-27", 0 ],
									"destination" : [ "obj-28", 0 ],
									"hidden" : 1,
									"midpoints" : [  ]
								}

							}
, 							{
								"patchline" : 								{
									"source" : [ "obj-23", 0 ],
									"destination" : [ "obj-27", 0 ],
									"hidden" : 1,
									"midpoints" : [  ]
								}

							}
, 							{
								"patchline" : 								{
									"source" : [ "obj-29", 0 ],
									"destination" : [ "obj-23", 0 ],
									"hidden" : 1,
									"midpoints" : [  ]
								}

							}
, 							{
								"patchline" : 								{
									"source" : [ "obj-26", 0 ],
									"destination" : [ "obj-22", 0 ],
									"hidden" : 1,
									"midpoints" : [  ]
								}

							}
, 							{
								"patchline" : 								{
									"source" : [ "obj-19", 0 ],
									"destination" : [ "obj-13", 0 ],
									"hidden" : 1,
									"midpoints" : [  ]
								}

							}
, 							{
								"patchline" : 								{
									"source" : [ "obj-49", 0 ],
									"destination" : [ "obj-5", 0 ],
									"hidden" : 1,
									"midpoints" : [  ]
								}

							}
, 							{
								"patchline" : 								{
									"source" : [ "obj-15", 0 ],
									"destination" : [ "obj-19", 0 ],
									"hidden" : 1,
									"midpoints" : [  ]
								}

							}
, 							{
								"patchline" : 								{
									"source" : [ "obj-53", 0 ],
									"destination" : [ "obj-19", 0 ],
									"hidden" : 1,
									"midpoints" : [  ]
								}

							}
, 							{
								"patchline" : 								{
									"source" : [ "obj-5", 0 ],
									"destination" : [ "obj-48", 0 ],
									"hidden" : 1,
									"midpoints" : [  ]
								}

							}
, 							{
								"patchline" : 								{
									"source" : [ "obj-48", 0 ],
									"destination" : [ "obj-50", 0 ],
									"hidden" : 1,
									"midpoints" : [  ]
								}

							}
, 							{
								"patchline" : 								{
									"source" : [ "obj-47", 0 ],
									"destination" : [ "obj-50", 0 ],
									"hidden" : 1,
									"midpoints" : [  ]
								}

							}
, 							{
								"patchline" : 								{
									"source" : [ "obj-9", 0 ],
									"destination" : [ "obj-50", 0 ],
									"hidden" : 1,
									"midpoints" : [  ]
								}

							}
, 							{
								"patchline" : 								{
									"source" : [ "obj-8", 0 ],
									"destination" : [ "obj-50", 0 ],
									"hidden" : 1,
									"midpoints" : [  ]
								}

							}
, 							{
								"patchline" : 								{
									"source" : [ "obj-7", 0 ],
									"destination" : [ "obj-50", 0 ],
									"hidden" : 1,
									"midpoints" : [  ]
								}

							}
, 							{
								"patchline" : 								{
									"source" : [ "obj-13", 0 ],
									"destination" : [ "obj-18", 0 ],
									"hidden" : 1,
									"midpoints" : [  ]
								}

							}
, 							{
								"patchline" : 								{
									"source" : [ "obj-21", 0 ],
									"destination" : [ "obj-53", 0 ],
									"hidden" : 1,
									"midpoints" : [  ]
								}

							}
, 							{
								"patchline" : 								{
									"source" : [ "obj-11", 0 ],
									"destination" : [ "obj-53", 0 ],
									"hidden" : 1,
									"midpoints" : [  ]
								}

							}
, 							{
								"patchline" : 								{
									"source" : [ "obj-10", 0 ],
									"destination" : [ "obj-20", 0 ],
									"hidden" : 1,
									"midpoints" : [ 247.5, -5.0, 9.5, -5.0 ]
								}

							}
, 							{
								"patchline" : 								{
									"source" : [ "obj-20", 0 ],
									"destination" : [ "obj-21", 0 ],
									"hidden" : 1,
									"midpoints" : [  ]
								}

							}
, 							{
								"patchline" : 								{
									"source" : [ "obj-14", 0 ],
									"destination" : [ "obj-15", 0 ],
									"hidden" : 1,
									"midpoints" : [  ]
								}

							}
, 							{
								"patchline" : 								{
									"source" : [ "obj-14", 1 ],
									"destination" : [ "obj-15", 0 ],
									"hidden" : 1,
									"midpoints" : [  ]
								}

							}
, 							{
								"patchline" : 								{
									"source" : [ "obj-17", 0 ],
									"destination" : [ "obj-14", 0 ],
									"hidden" : 1,
									"midpoints" : [  ]
								}

							}
, 							{
								"patchline" : 								{
									"source" : [ "obj-16", 0 ],
									"destination" : [ "obj-17", 0 ],
									"hidden" : 1,
									"midpoints" : [  ]
								}

							}
, 							{
								"patchline" : 								{
									"source" : [ "obj-12", 0 ],
									"destination" : [ "obj-16", 0 ],
									"hidden" : 1,
									"midpoints" : [  ]
								}

							}
, 							{
								"patchline" : 								{
									"source" : [ "obj-18", 0 ],
									"destination" : [ "obj-12", 0 ],
									"hidden" : 1,
									"midpoints" : [  ]
								}

							}
, 							{
								"patchline" : 								{
									"source" : [ "obj-15", 0 ],
									"destination" : [ "obj-11", 0 ],
									"hidden" : 1,
									"midpoints" : [  ]
								}

							}
 ]
					}
,
					"saved_object_attributes" : 					{
						"fontface" : 0,
						"fontsize" : 10.0,
						"default_fontface" : 0,
						"fontname" : "Verdana",
						"default_fontname" : "Verdana",
						"globalpatchername" : "",
						"default_fontsize" : 10.0
					}

				}

			}
, 			{
				"box" : 				{
					"maxclass" : "comment",
					"text" : ")",
					"fontsize" : 23.11211,
					"patching_rect" : [ 336.0, 245.0, 29.0, 35.0 ],
					"id" : "obj-8",
					"numinlets" : 1,
					"fontname" : "Verdana",
					"numoutlets" : 0
				}

			}
, 			{
				"box" : 				{
					"maxclass" : "comment",
					"text" : "(",
					"fontsize" : 23.11211,
					"patching_rect" : [ 29.0, 245.0, 29.0, 35.0 ],
					"id" : "obj-9",
					"numinlets" : 1,
					"fontname" : "Verdana",
					"numoutlets" : 0
				}

			}
, 			{
				"box" : 				{
					"maxclass" : "comment",
					"text" : "note : bpatcher won't accept more than ten arguments in its 'get info' window, so don't freak out if your attributes disappear...",
					"linecount" : 2,
					"fontsize" : 9.873845,
					"patching_rect" : [ 43.0, 250.0, 332.0, 30.0 ],
					"id" : "obj-10",
					"numinlets" : 1,
					"fontname" : "Verdana",
					"numoutlets" : 0
				}

			}
, 			{
				"box" : 				{
					"maxclass" : "comment",
					"text" : "rgb2 : color of the slider",
					"fontsize" : 9.873845,
					"patching_rect" : [ 37.0, 230.0, 129.0, 18.0 ],
					"id" : "obj-11",
					"numinlets" : 1,
					"fontname" : "Verdana",
					"numoutlets" : 0
				}

			}
, 			{
				"box" : 				{
					"maxclass" : "comment",
					"text" : "brgb : color of the background",
					"fontsize" : 9.873845,
					"patching_rect" : [ 160.0, 215.0, 161.0, 18.0 ],
					"id" : "obj-12",
					"numinlets" : 1,
					"fontname" : "Verdana",
					"numoutlets" : 0
				}

			}
, 			{
				"box" : 				{
					"maxclass" : "comment",
					"text" : "frgb : color of the text",
					"fontsize" : 9.873845,
					"patching_rect" : [ 37.0, 215.0, 119.0, 18.0 ],
					"id" : "obj-13",
					"numinlets" : 1,
					"fontname" : "Verdana",
					"numoutlets" : 0
				}

			}
, 			{
				"box" : 				{
					"maxclass" : "comment",
					"text" : "size: resize. You will also have to resize the bpatcher manually",
					"fontsize" : 9.873845,
					"patching_rect" : [ 37.0, 198.0, 320.0, 18.0 ],
					"id" : "obj-14",
					"numinlets" : 1,
					"fontname" : "Verdana",
					"numoutlets" : 0
				}

			}
, 			{
				"box" : 				{
					"maxclass" : "comment",
					"text" : "text (symbol): set displayed text",
					"fontsize" : 9.873845,
					"patching_rect" : [ 37.0, 184.0, 172.0, 18.0 ],
					"id" : "obj-15",
					"numinlets" : 1,
					"fontname" : "Verdana",
					"numoutlets" : 0
				}

			}
, 			{
				"box" : 				{
					"maxclass" : "comment",
					"text" : "Attributes:",
					"fontsize" : 9.873845,
					"patching_rect" : [ 22.0, 168.0, 100.0, 18.0 ],
					"id" : "obj-16",
					"numinlets" : 1,
					"fontname" : "Verdana",
					"numoutlets" : 0
				}

			}
, 			{
				"box" : 				{
					"maxclass" : "comment",
					"text" : "float: initial value",
					"fontsize" : 9.873845,
					"patching_rect" : [ 37.0, 151.0, 100.0, 18.0 ],
					"id" : "obj-17",
					"numinlets" : 1,
					"fontname" : "Verdana",
					"numoutlets" : 0
				}

			}
, 			{
				"box" : 				{
					"maxclass" : "comment",
					"text" : "Argument",
					"fontsize" : 9.873845,
					"patching_rect" : [ 22.0, 135.0, 100.0, 18.0 ],
					"id" : "obj-18",
					"numinlets" : 1,
					"fontname" : "Verdana",
					"numoutlets" : 0
				}

			}
, 			{
				"box" : 				{
					"maxclass" : "comment",
					"text" : "set (float)",
					"fontsize" : 9.873845,
					"patching_rect" : [ 37.0, 102.0, 160.0, 18.0 ],
					"id" : "obj-19",
					"numinlets" : 1,
					"fontname" : "Verdana",
					"numoutlets" : 0
				}

			}
, 			{
				"box" : 				{
					"maxclass" : "comment",
					"text" : "float: (range 0-1)",
					"fontsize" : 9.873845,
					"patching_rect" : [ 37.0, 88.0, 160.0, 18.0 ],
					"id" : "obj-20",
					"numinlets" : 1,
					"fontname" : "Verdana",
					"numoutlets" : 0
				}

			}
, 			{
				"box" : 				{
					"maxclass" : "number",
					"outlettype" : [ "int", "bang" ],
					"fontsize" : 9.873845,
					"patching_rect" : [ 326.0, 296.0, 35.0, 18.0 ],
					"triscale" : 0.9,
					"minimum" : 0,
					"htextcolor" : [ 0.870588, 0.870588, 0.870588, 1.0 ],
					"id" : "obj-21",
					"numinlets" : 1,
					"maximum" : 200,
					"fontname" : "Verdana",
					"numoutlets" : 2,
					"bgcolor" : [ 0.866667, 0.866667, 0.866667, 1.0 ]
				}

			}
, 			{
				"box" : 				{
					"maxclass" : "newobj",
					"text" : "pak size 200 14",
					"outlettype" : [ "" ],
					"fontsize" : 9.873845,
					"patching_rect" : [ 290.0, 314.0, 87.0, 18.0 ],
					"id" : "obj-22",
					"numinlets" : 3,
					"fontname" : "Verdana",
					"numoutlets" : 1
				}

			}
, 			{
				"box" : 				{
					"maxclass" : "message",
					"text" : "set $1",
					"outlettype" : [ "" ],
					"fontsize" : 9.873845,
					"patching_rect" : [ 214.0, 314.0, 39.0, 16.0 ],
					"id" : "obj-23",
					"numinlets" : 2,
					"fontname" : "Verdana",
					"numoutlets" : 1
				}

			}
, 			{
				"box" : 				{
					"maxclass" : "flonum",
					"outlettype" : [ "float", "bang" ],
					"fontsize" : 9.873845,
					"patching_rect" : [ 214.0, 296.0, 35.0, 18.0 ],
					"triscale" : 0.9,
					"htextcolor" : [ 0.870588, 0.870588, 0.870588, 1.0 ],
					"id" : "obj-24",
					"numinlets" : 1,
					"fontname" : "Verdana",
					"numoutlets" : 2,
					"bgcolor" : [ 0.866667, 0.866667, 0.866667, 1.0 ]
				}

			}
, 			{
				"box" : 				{
					"maxclass" : "flonum",
					"outlettype" : [ "float", "bang" ],
					"fontsize" : 9.873845,
					"patching_rect" : [ 38.0, 368.0, 35.0, 18.0 ],
					"triscale" : 0.9,
					"htextcolor" : [ 0.870588, 0.870588, 0.870588, 1.0 ],
					"id" : "obj-25",
					"numinlets" : 1,
					"fontname" : "Verdana",
					"numoutlets" : 2,
					"bgcolor" : [ 0.866667, 0.866667, 0.866667, 1.0 ]
				}

			}
, 			{
				"box" : 				{
					"maxclass" : "flonum",
					"outlettype" : [ "float", "bang" ],
					"fontsize" : 9.873845,
					"patching_rect" : [ 171.0, 296.0, 35.0, 18.0 ],
					"triscale" : 0.9,
					"htextcolor" : [ 0.870588, 0.870588, 0.870588, 1.0 ],
					"id" : "obj-26",
					"numinlets" : 1,
					"fontname" : "Verdana",
					"numoutlets" : 2,
					"bgcolor" : [ 0.866667, 0.866667, 0.866667, 1.0 ]
				}

			}
, 			{
				"box" : 				{
					"maxclass" : "textedit",
					"text" : "Testing",
					"outlettype" : [ "", "int", "" ],
					"fontsize" : 8.998901,
					"keymode" : 1,
					"patching_rect" : [ 38.0, 295.0, 126.0, 20.0 ],
					"id" : "obj-27",
					"numinlets" : 1,
					"fontname" : "Geneva",
					"numoutlets" : 3
				}

			}
, 			{
				"box" : 				{
					"maxclass" : "comment",
					"text" : "jcom.textslider",
					"fontsize" : 17.334082,
					"textcolor" : [ 1.0, 1.0, 1.0, 1.0 ],
					"frgb" : [ 1.0, 1.0, 1.0, 1.0 ],
					"patching_rect" : [ 21.0, 15.0, 145.0, 28.0 ],
					"id" : "obj-28",
					"numinlets" : 1,
					"fontname" : "Verdana",
					"numoutlets" : 0
				}

			}
, 			{
				"box" : 				{
					"maxclass" : "comment",
					"text" : "LCD based slider with text display in a bpatcher",
					"fontsize" : 9.873845,
					"textcolor" : [ 1.0, 1.0, 1.0, 1.0 ],
					"frgb" : [ 1.0, 1.0, 1.0, 1.0 ],
					"patching_rect" : [ 21.0, 40.0, 292.0, 18.0 ],
					"id" : "obj-29",
					"numinlets" : 1,
					"fontname" : "Verdana",
					"numoutlets" : 0
				}

			}
, 			{
				"box" : 				{
					"maxclass" : "panel",
					"rounded" : 0,
					"patching_rect" : [ 16.0, 10.0, 400.0, 50.0 ],
					"id" : "obj-30",
					"numinlets" : 1,
					"numoutlets" : 0,
					"bgcolor" : [ 0.262745, 0.254902, 0.419608, 1.0 ]
				}

			}
, 			{
				"box" : 				{
					"maxclass" : "bpatcher",
					"outlettype" : [ "" ],
					"patching_rect" : [ 38.0, 348.0, 176.0, 15.0 ],
					"args" : [ 0.8 ],
					"id" : "obj-31",
					"numinlets" : 1,
					"name" : "jcom.textslider.maxpat",
					"numoutlets" : 1
				}

			}
, 			{
				"box" : 				{
					"maxclass" : "comment",
					"text" : "Input:",
					"fontsize" : 9.873845,
					"patching_rect" : [ 22.0, 72.0, 100.0, 18.0 ],
					"id" : "obj-32",
					"numinlets" : 1,
					"fontname" : "Verdana",
					"numoutlets" : 0
				}

			}
 ],
		"lines" : [ 			{
				"patchline" : 				{
					"source" : [ "obj-21", 0 ],
					"destination" : [ "obj-22", 1 ],
					"hidden" : 0,
					"midpoints" : [  ]
				}

			}
, 			{
				"patchline" : 				{
					"source" : [ "obj-4", 0 ],
					"destination" : [ "obj-3", 0 ],
					"hidden" : 1,
					"midpoints" : [  ]
				}

			}
, 			{
				"patchline" : 				{
					"source" : [ "obj-7", 0 ],
					"destination" : [ "obj-4", 0 ],
					"hidden" : 1,
					"midpoints" : [  ]
				}

			}
, 			{
				"patchline" : 				{
					"source" : [ "obj-24", 0 ],
					"destination" : [ "obj-23", 0 ],
					"hidden" : 0,
					"midpoints" : [  ]
				}

			}
, 			{
				"patchline" : 				{
					"source" : [ "obj-31", 0 ],
					"destination" : [ "obj-25", 0 ],
					"hidden" : 0,
					"midpoints" : [  ]
				}

			}
, 			{
				"patchline" : 				{
					"source" : [ "obj-5", 0 ],
					"destination" : [ "obj-31", 0 ],
					"hidden" : 0,
					"midpoints" : [ 19.5, 336.0, 47.5, 336.0 ]
				}

			}
, 			{
				"patchline" : 				{
					"source" : [ "obj-27", 0 ],
					"destination" : [ "obj-31", 0 ],
					"hidden" : 0,
					"midpoints" : [  ]
				}

			}
, 			{
				"patchline" : 				{
					"source" : [ "obj-26", 0 ],
					"destination" : [ "obj-31", 0 ],
					"hidden" : 0,
					"midpoints" : [ 180.5, 336.0, 47.5, 336.0 ]
				}

			}
, 			{
				"patchline" : 				{
					"source" : [ "obj-23", 0 ],
					"destination" : [ "obj-31", 0 ],
					"hidden" : 0,
					"midpoints" : [ 223.5, 336.0, 47.5, 336.0 ]
				}

			}
, 			{
				"patchline" : 				{
					"source" : [ "obj-22", 0 ],
					"destination" : [ "obj-31", 0 ],
					"hidden" : 0,
					"midpoints" : [ 299.5, 336.0, 47.5, 336.0 ]
				}

			}
, 			{
				"patchline" : 				{
					"source" : [ "obj-7", 0 ],
					"destination" : [ "obj-31", 0 ],
					"hidden" : 0,
					"midpoints" : [ 271.5, 336.0, 47.5, 336.0 ]
				}

			}
 ]
	}

}
