{
	"patcher" : 	{
		"fileversion" : 1,
		"rect" : [ 39.0, 50.0, 436.0, 275.0 ],
		"bglocked" : 0,
		"defrect" : [ 39.0, 50.0, 436.0, 275.0 ],
		"openrect" : [ 0.0, 0.0, 0.0, 0.0 ],
		"openinpresentation" : 0,
		"default_fontsize" : 10.970939,
		"default_fontface" : 0,
		"default_fontname" : "Verdana",
		"gridonopen" : 0,
		"gridsize" : [ 5.0, 5.0 ],
		"gridsnaponopen" : 0,
		"toolbarvisible" : 1,
		"boxanimatetime" : 200,
		"imprint" : 0,
		"metadata" : [  ],
		"boxes" : [ 			{
				"box" : 				{
					"maxclass" : "message",
					"text" : "apple 3.4 5.6 10",
					"outlettype" : [ "" ],
					"fontsize" : 10,
					"patching_rect" : [ 328.0, 78.0, 93.0, 16.0 ],
					"id" : "obj-1",
					"numinlets" : 2,
					"fontname" : "Verdana",
					"numoutlets" : 1
				}

			}
, 			{
				"box" : 				{
					"maxclass" : "message",
					"text" : "-4.3 -6.5 test 0 2 3 -4 5.6",
					"outlettype" : [ "" ],
					"fontsize" : 10,
					"patching_rect" : [ 185.0, 78.0, 141.0, 16.0 ],
					"id" : "obj-2",
					"numinlets" : 2,
					"fontname" : "Verdana",
					"numoutlets" : 1
				}

			}
, 			{
				"box" : 				{
					"maxclass" : "flonum",
					"outlettype" : [ "float", "bang" ],
					"fontsize" : 10,
					"patching_rect" : [ 143.0, 78.0, 39.0, 18.0 ],
					"triscale" : 0.9,
					"htextcolor" : [ 0.870588, 0.870588, 0.870588, 1.0 ],
					"id" : "obj-3",
					"numinlets" : 1,
					"fontname" : "Verdana",
					"numoutlets" : 2,
					"bgcolor" : [ 0.866667, 0.866667, 0.866667, 1.0 ]
				}

			}
, 			{
				"box" : 				{
					"maxclass" : "number",
					"outlettype" : [ "int", "bang" ],
					"fontsize" : 10,
					"patching_rect" : [ 102.0, 78.0, 37.0, 18.0 ],
					"triscale" : 0.9,
					"htextcolor" : [ 0.870588, 0.870588, 0.870588, 1.0 ],
					"id" : "obj-4",
					"numinlets" : 1,
					"fontname" : "Verdana",
					"numoutlets" : 2,
					"bgcolor" : [ 0.866667, 0.866667, 0.866667, 1.0 ]
				}

			}
, 			{
				"box" : 				{
					"maxclass" : "comment",
					"text" : "jcom.round",
					"fontsize" : 17.334082,
					"textcolor" : [ 1.0, 1.0, 1.0, 1.0 ],
					"frgb" : [ 1.0, 1.0, 1.0, 1.0 ],
					"patching_rect" : [ 14.0, 10.0, 145.0, 28.0 ],
					"id" : "obj-5",
					"numinlets" : 1,
					"fontname" : "Verdana",
					"numoutlets" : 0
				}

			}
, 			{
				"box" : 				{
					"maxclass" : "comment",
					"text" : "Round-off to int value. Work with positive and negative numbers.",
					"fontsize" : 10,
					"textcolor" : [ 0.968627, 0.968627, 0.968627, 1.0 ],
					"frgb" : [ 0.968627, 0.968627, 0.968627, 1.0 ],
					"patching_rect" : [ 14.0, 38.0, 382.0, 18.0 ],
					"id" : "obj-6",
					"numinlets" : 1,
					"fontname" : "Verdana",
					"numoutlets" : 0
				}

			}
, 			{
				"box" : 				{
					"maxclass" : "panel",
					"rounded" : 0,
					"patching_rect" : [ 9.0, 5.0, 345.0, 52.0 ],
					"id" : "obj-7",
					"numinlets" : 1,
					"numoutlets" : 0,
					"bgcolor" : [ 0.262745, 0.254902, 0.419608, 1.0 ]
				}

			}
, 			{
				"box" : 				{
					"maxclass" : "comment",
					"text" : "Returns int or list",
					"fontsize" : 10,
					"patching_rect" : [ 240.0, 188.0, 161.0, 18.0 ],
					"id" : "obj-8",
					"numinlets" : 1,
					"fontname" : "Verdana",
					"numoutlets" : 0
				}

			}
, 			{
				"box" : 				{
					"maxclass" : "newobj",
					"text" : "loadmess set",
					"outlettype" : [ "" ],
					"fontsize" : 10,
					"hidden" : 1,
					"patching_rect" : [ 17.0, 139.0, 78.0, 18.0 ],
					"id" : "obj-9",
					"numinlets" : 1,
					"fontname" : "Verdana",
					"numoutlets" : 1
				}

			}
, 			{
				"box" : 				{
					"maxclass" : "button",
					"outlettype" : [ "bang" ],
					"patching_rect" : [ 85.0, 187.0, 15.0, 15.0 ],
					"id" : "obj-10",
					"numinlets" : 1,
					"numoutlets" : 1
				}

			}
, 			{
				"box" : 				{
					"maxclass" : "message",
					"outlettype" : [ "" ],
					"fontsize" : 10,
					"patching_rect" : [ 102.0, 187.0, 127.0, 16.0 ],
					"id" : "obj-11",
					"numinlets" : 2,
					"fontname" : "Verdana",
					"numoutlets" : 1
				}

			}
, 			{
				"box" : 				{
					"maxclass" : "newobj",
					"text" : "prepend set",
					"outlettype" : [ "" ],
					"fontsize" : 10,
					"patching_rect" : [ 102.0, 162.0, 74.0, 18.0 ],
					"id" : "obj-12",
					"numinlets" : 1,
					"fontname" : "Verdana",
					"numoutlets" : 1
				}

			}
, 			{
				"box" : 				{
					"maxclass" : "newobj",
					"text" : "jcom.round",
					"outlettype" : [ "", "" ],
					"fontsize" : 10,
					"patching_rect" : [ 102.0, 126.0, 72.0, 18.0 ],
					"id" : "obj-13",
					"numinlets" : 1,
					"fontname" : "Verdana",
					"numoutlets" : 2
				}

			}
 ],
		"lines" : [ 			{
				"patchline" : 				{
					"source" : [ "obj-12", 0 ],
					"destination" : [ "obj-11", 0 ],
					"hidden" : 0,
					"midpoints" : [  ]
				}

			}
, 			{
				"patchline" : 				{
					"source" : [ "obj-9", 0 ],
					"destination" : [ "obj-11", 0 ],
					"hidden" : 1,
					"midpoints" : [ 26.5, 180.0, 111.5, 180.0 ]
				}

			}
, 			{
				"patchline" : 				{
					"source" : [ "obj-13", 0 ],
					"destination" : [ "obj-12", 0 ],
					"hidden" : 0,
					"midpoints" : [  ]
				}

			}
, 			{
				"patchline" : 				{
					"source" : [ "obj-1", 0 ],
					"destination" : [ "obj-13", 0 ],
					"hidden" : 0,
					"midpoints" : [ 337.5, 109.0, 111.5, 109.0 ]
				}

			}
, 			{
				"patchline" : 				{
					"source" : [ "obj-2", 0 ],
					"destination" : [ "obj-13", 0 ],
					"hidden" : 0,
					"midpoints" : [ 194.5, 109.0, 111.5, 109.0 ]
				}

			}
, 			{
				"patchline" : 				{
					"source" : [ "obj-3", 0 ],
					"destination" : [ "obj-13", 0 ],
					"hidden" : 0,
					"midpoints" : [ 152.5, 109.0, 111.5, 109.0 ]
				}

			}
, 			{
				"patchline" : 				{
					"source" : [ "obj-4", 0 ],
					"destination" : [ "obj-13", 0 ],
					"hidden" : 0,
					"midpoints" : [ 111.5, 109.0, 111.5, 109.0 ]
				}

			}
, 			{
				"patchline" : 				{
					"source" : [ "obj-12", 0 ],
					"destination" : [ "obj-10", 0 ],
					"hidden" : 0,
					"midpoints" : [ 111.5, 183.0, 94.0, 183.0 ]
				}

			}
 ]
	}

}
