{
	"patcher" : 	{
		"rect" : [ 176.0, 139.0, 586.0, 442.0 ],
		"bglocked" : 0,
		"defrect" : [ 176.0, 139.0, 586.0, 442.0 ],
		"openinpresentation" : 0,
		"default_fontsize" : 10.0,
		"default_fontface" : 0,
		"default_fontname" : "Verdana",
		"gridonopen" : 0,
		"gridsize" : [ 5.0, 5.0 ],
		"gridsnaponopen" : 0,
		"toolbarvisible" : 1,
		"boxfadetime" : 200,
		"boxanimatetime" : 200,
		"scrollanimatetime" : 200,
		"metadata" : [  ],
		"boxes" : [ 			{
				"box" : 				{
					"maxclass" : "comment",
					"text" : "and the dimensions and planecount is equal to the input matrix.",
					"linecount" : 2,
					"patching_rect" : [ 392.0, 384.0, 192.0, 30.0 ],
					"fontname" : "Verdana",
					"id" : "obj-1",
					"numinlets" : 1,
					"numoutlets" : 0,
					"fontsize" : 9.0
				}

			}
, 			{
				"box" : 				{
					"maxclass" : "comment",
					"text" : "see also:",
					"patching_rect" : [ 407.0, 422.0, 60.0, 18.0 ],
					"fontname" : "Verdana",
					"id" : "obj-2",
					"numinlets" : 1,
					"numoutlets" : 0,
					"fontsize" : 9.0
				}

			}
, 			{
				"box" : 				{
					"maxclass" : "message",
					"text" : "jcom.float2char%",
					"outlettype" : [ "" ],
					"patching_rect" : [ 458.0, 421.0, 113.0, 16.0 ],
					"fontname" : "Verdana",
					"id" : "obj-3",
					"numinlets" : 2,
					"numoutlets" : 1,
					"fontsize" : 9.0
				}

			}
, 			{
				"box" : 				{
					"maxclass" : "newobj",
					"text" : "prepend help",
					"outlettype" : [ "" ],
					"hidden" : 1,
					"patching_rect" : [ 458.0, 440.0, 78.0, 18.0 ],
					"fontname" : "Verdana",
					"id" : "obj-4",
					"numinlets" : 1,
					"numoutlets" : 1,
					"fontsize" : 9.0
				}

			}
, 			{
				"box" : 				{
					"maxclass" : "newobj",
					"text" : "pcontrol",
					"outlettype" : [ "" ],
					"hidden" : 1,
					"patching_rect" : [ 458.0, 461.0, 55.0, 18.0 ],
					"fontname" : "Verdana",
					"id" : "obj-5",
					"numinlets" : 1,
					"numoutlets" : 1,
					"fontsize" : 9.0
				}

			}
, 			{
				"box" : 				{
					"maxclass" : "comment",
					"text" : "It is often necessary to change the matrix to another type to perform some calculations. This abstraction helps to adjust subsequent modules with the relevant matrix info.",
					"linecount" : 3,
					"patching_rect" : [ 274.0, 21.0, 309.0, 42.0 ],
					"fontname" : "Verdana",
					"id" : "obj-6",
					"numinlets" : 1,
					"numoutlets" : 0,
					"fontsize" : 9.0
				}

			}
, 			{
				"box" : 				{
					"maxclass" : "jit.fpsgui",
					"outlettype" : [ "" ],
					"patching_rect" : [ 330.0, 383.0, 60.0, 30.533278 ],
					"mode" : 4,
					"fontname" : "Verdana",
					"id" : "obj-7",
					"numinlets" : 1,
					"numoutlets" : 1,
					"fontsize" : 9.0
				}

			}
, 			{
				"box" : 				{
					"maxclass" : "jit.fpsgui",
					"outlettype" : [ "" ],
					"patching_rect" : [ 271.0, 383.0, 60.0, 30.533278 ],
					"mode" : 3,
					"fontname" : "Verdana",
					"id" : "obj-8",
					"numinlets" : 1,
					"numoutlets" : 1,
					"fontsize" : 9.0
				}

			}
, 			{
				"box" : 				{
					"maxclass" : "jit.fpsgui",
					"outlettype" : [ "" ],
					"patching_rect" : [ 212.0, 383.0, 60.0, 30.533278 ],
					"mode" : 2,
					"fontname" : "Verdana",
					"id" : "obj-9",
					"numinlets" : 1,
					"numoutlets" : 1,
					"fontsize" : 9.0
				}

			}
, 			{
				"box" : 				{
					"maxclass" : "jit.fpsgui",
					"outlettype" : [ "" ],
					"patching_rect" : [ 142.0, 383.0, 60.0, 30.533278 ],
					"mode" : 4,
					"fontname" : "Verdana",
					"id" : "obj-10",
					"numinlets" : 1,
					"numoutlets" : 1,
					"fontsize" : 9.0
				}

			}
, 			{
				"box" : 				{
					"maxclass" : "jit.fpsgui",
					"outlettype" : [ "" ],
					"patching_rect" : [ 83.0, 383.0, 60.0, 30.533278 ],
					"mode" : 3,
					"fontname" : "Verdana",
					"id" : "obj-11",
					"numinlets" : 1,
					"numoutlets" : 1,
					"fontsize" : 9.0
				}

			}
, 			{
				"box" : 				{
					"maxclass" : "jit.fpsgui",
					"outlettype" : [ "" ],
					"patching_rect" : [ 24.0, 383.0, 60.0, 30.533278 ],
					"mode" : 2,
					"fontname" : "Verdana",
					"id" : "obj-12",
					"numinlets" : 1,
					"numoutlets" : 1,
					"fontsize" : 9.0
				}

			}
, 			{
				"box" : 				{
					"maxclass" : "comment",
					"text" : "The char matrix coming from here...",
					"patching_rect" : [ 165.0, 145.0, 215.0, 18.0 ],
					"fontname" : "Verdana",
					"id" : "obj-13",
					"numinlets" : 1,
					"numoutlets" : 0,
					"fontsize" : 9.0
				}

			}
, 			{
				"box" : 				{
					"maxclass" : "number",
					"outlettype" : [ "int", "bang" ],
					"htextcolor" : [ 0.870588, 0.870588, 0.870588, 1.0 ],
					"patching_rect" : [ 253.0, 97.0, 37.0, 18.0 ],
					"fontname" : "Verdana",
					"id" : "obj-14",
					"numinlets" : 1,
					"triscale" : 0.9,
					"minimum" : 1,
					"numoutlets" : 2,
					"fontsize" : 9.0,
					"bgcolor" : [ 0.866667, 0.866667, 0.866667, 1.0 ]
				}

			}
, 			{
				"box" : 				{
					"maxclass" : "number",
					"outlettype" : [ "int", "bang" ],
					"htextcolor" : [ 0.870588, 0.870588, 0.870588, 1.0 ],
					"patching_rect" : [ 217.0, 97.0, 37.0, 18.0 ],
					"fontname" : "Verdana",
					"id" : "obj-15",
					"numinlets" : 1,
					"triscale" : 0.9,
					"minimum" : 1,
					"numoutlets" : 2,
					"fontsize" : 9.0,
					"bgcolor" : [ 0.866667, 0.866667, 0.866667, 1.0 ]
				}

			}
, 			{
				"box" : 				{
					"maxclass" : "newobj",
					"text" : "pak dim 1 1",
					"outlettype" : [ "" ],
					"patching_rect" : [ 184.0, 118.0, 89.0, 18.0 ],
					"fontname" : "Verdana",
					"id" : "obj-16",
					"numinlets" : 3,
					"numoutlets" : 1,
					"fontsize" : 9.0
				}

			}
, 			{
				"box" : 				{
					"maxclass" : "comment",
					"text" : "... is converted to a float32 here",
					"patching_rect" : [ 331.0, 190.0, 195.0, 18.0 ],
					"fontname" : "Verdana",
					"id" : "obj-17",
					"numinlets" : 1,
					"numoutlets" : 0,
					"fontsize" : 9.0
				}

			}
, 			{
				"box" : 				{
					"maxclass" : "newobj",
					"text" : "loadmess 1",
					"outlettype" : [ "" ],
					"hidden" : 1,
					"patching_rect" : [ 24.0, 69.0, 72.0, 18.0 ],
					"fontname" : "Verdana",
					"id" : "obj-18",
					"numinlets" : 1,
					"numoutlets" : 1,
					"fontsize" : 9.0
				}

			}
, 			{
				"box" : 				{
					"maxclass" : "jit.pwindow",
					"outlettype" : [ "", "" ],
					"patching_rect" : [ 23.0, 223.0, 183.0, 150.0 ],
					"id" : "obj-19",
					"numinlets" : 1,
					"depthbuffer" : 0,
					"numoutlets" : 2
				}

			}
, 			{
				"box" : 				{
					"maxclass" : "number",
					"outlettype" : [ "int", "bang" ],
					"htextcolor" : [ 0.870588, 0.870588, 0.870588, 1.0 ],
					"patching_rect" : [ 95.0, 98.0, 37.0, 18.0 ],
					"fontname" : "Verdana",
					"maximum" : 4,
					"id" : "obj-20",
					"numinlets" : 1,
					"triscale" : 0.9,
					"minimum" : 1,
					"numoutlets" : 2,
					"fontsize" : 9.0,
					"bgcolor" : [ 0.866667, 0.866667, 0.866667, 1.0 ]
				}

			}
, 			{
				"box" : 				{
					"maxclass" : "message",
					"text" : "planecount $1",
					"outlettype" : [ "" ],
					"patching_rect" : [ 95.0, 119.0, 87.0, 16.0 ],
					"fontname" : "Verdana",
					"id" : "obj-21",
					"numinlets" : 2,
					"numoutlets" : 1,
					"fontsize" : 9.0
				}

			}
, 			{
				"box" : 				{
					"maxclass" : "toggle",
					"outlettype" : [ "int" ],
					"patching_rect" : [ 24.0, 97.0, 15.0, 15.0 ],
					"id" : "obj-22",
					"numinlets" : 1,
					"numoutlets" : 1
				}

			}
, 			{
				"box" : 				{
					"maxclass" : "newobj",
					"text" : "qmetro 50",
					"outlettype" : [ "bang" ],
					"patching_rect" : [ 24.0, 118.0, 69.0, 18.0 ],
					"fontname" : "Verdana",
					"id" : "obj-23",
					"numinlets" : 2,
					"numoutlets" : 1,
					"fontsize" : 9.0
				}

			}
, 			{
				"box" : 				{
					"maxclass" : "newobj",
					"text" : "jit.noise 1 char 12 12",
					"outlettype" : [ "jit_matrix", "" ],
					"patching_rect" : [ 24.0, 145.0, 139.0, 18.0 ],
					"fontname" : "Verdana",
					"id" : "obj-24",
					"numinlets" : 1,
					"numoutlets" : 2,
					"fontsize" : 9.0
				}

			}
, 			{
				"box" : 				{
					"maxclass" : "newobj",
					"text" : "jcom.char2float%",
					"outlettype" : [ "jit_matrix" ],
					"patching_rect" : [ 212.0, 188.0, 101.0, 18.0 ],
					"fontname" : "Verdana",
					"id" : "obj-25",
					"numinlets" : 1,
					"numoutlets" : 1,
					"fontsize" : 9.0
				}

			}
, 			{
				"box" : 				{
					"maxclass" : "comment",
					"text" : "jcom.char2float%",
					"patching_rect" : [ 5.0, 5.0, 223.0, 28.0 ],
					"frgb" : [ 1.0, 1.0, 1.0, 1.0 ],
					"fontname" : "Verdana",
					"id" : "obj-26",
					"numinlets" : 1,
					"textcolor" : [ 1.0, 1.0, 1.0, 1.0 ],
					"numoutlets" : 0,
					"fontsize" : 16.0
				}

			}
, 			{
				"box" : 				{
					"maxclass" : "comment",
					"text" : "adjust subsequent modules if matrix info changes",
					"patching_rect" : [ 5.0, 36.0, 258.0, 18.0 ],
					"frgb" : [ 1.0, 1.0, 1.0, 1.0 ],
					"fontname" : "Verdana",
					"id" : "obj-27",
					"numinlets" : 1,
					"textcolor" : [ 1.0, 1.0, 1.0, 1.0 ],
					"numoutlets" : 0,
					"fontsize" : 9.0
				}

			}
, 			{
				"box" : 				{
					"maxclass" : "panel",
					"rounded" : 0,
					"bordercolor" : [ 0.501961, 0.043137, 0.039216, 1.0 ],
					"patching_rect" : [ 0.0, 0.0, 273.0, 63.0 ],
					"id" : "obj-28",
					"numinlets" : 1,
					"numoutlets" : 0,
					"bgcolor" : [ 0.262745, 0.254902, 0.419608, 1.0 ]
				}

			}
, 			{
				"box" : 				{
					"maxclass" : "jit.pwindow",
					"outlettype" : [ "", "" ],
					"patching_rect" : [ 211.0, 223.0, 183.0, 150.0 ],
					"id" : "obj-29",
					"numinlets" : 1,
					"depthbuffer" : 0,
					"numoutlets" : 2
				}

			}
, 			{
				"box" : 				{
					"maxclass" : "comment",
					"text" : "try changing some of these values...",
					"patching_rect" : [ 298.0, 98.0, 212.0, 18.0 ],
					"fontname" : "Verdana",
					"id" : "obj-30",
					"numinlets" : 1,
					"numoutlets" : 0,
					"fontsize" : 9.0
				}

			}
, 			{
				"box" : 				{
					"maxclass" : "panel",
					"rounded" : 0,
					"patching_rect" : [ 208.0, 182.0, 110.0, 28.0 ],
					"id" : "obj-31",
					"numinlets" : 1,
					"numoutlets" : 0,
					"bgcolor" : [ 0.780392, 0.780392, 0.839216, 1.0 ]
				}

			}
 ],
		"lines" : [ 			{
				"patchline" : 				{
					"source" : [ "obj-4", 0 ],
					"destination" : [ "obj-5", 0 ],
					"hidden" : 1
				}

			}
, 			{
				"patchline" : 				{
					"source" : [ "obj-3", 0 ],
					"destination" : [ "obj-4", 0 ],
					"hidden" : 1
				}

			}
, 			{
				"patchline" : 				{
					"source" : [ "obj-29", 0 ],
					"destination" : [ "obj-7", 0 ],
					"hidden" : 0,
					"midpoints" : [ 220.5, 378.0, 339.5, 378.0 ]
				}

			}
, 			{
				"patchline" : 				{
					"source" : [ "obj-29", 0 ],
					"destination" : [ "obj-8", 0 ],
					"hidden" : 0,
					"midpoints" : [ 220.5, 378.0, 280.5, 378.0 ]
				}

			}
, 			{
				"patchline" : 				{
					"source" : [ "obj-14", 0 ],
					"destination" : [ "obj-16", 2 ],
					"hidden" : 0
				}

			}
, 			{
				"patchline" : 				{
					"source" : [ "obj-15", 0 ],
					"destination" : [ "obj-16", 1 ],
					"hidden" : 0
				}

			}
, 			{
				"patchline" : 				{
					"source" : [ "obj-29", 0 ],
					"destination" : [ "obj-9", 0 ],
					"hidden" : 0
				}

			}
, 			{
				"patchline" : 				{
					"source" : [ "obj-25", 0 ],
					"destination" : [ "obj-29", 0 ],
					"hidden" : 0
				}

			}
, 			{
				"patchline" : 				{
					"source" : [ "obj-24", 0 ],
					"destination" : [ "obj-25", 0 ],
					"hidden" : 0,
					"midpoints" : [ 33.5, 178.0, 221.5, 178.0 ]
				}

			}
, 			{
				"patchline" : 				{
					"source" : [ "obj-19", 0 ],
					"destination" : [ "obj-10", 0 ],
					"hidden" : 0,
					"midpoints" : [ 32.5, 378.0, 151.5, 378.0 ]
				}

			}
, 			{
				"patchline" : 				{
					"source" : [ "obj-20", 0 ],
					"destination" : [ "obj-21", 0 ],
					"hidden" : 0
				}

			}
, 			{
				"patchline" : 				{
					"source" : [ "obj-19", 0 ],
					"destination" : [ "obj-11", 0 ],
					"hidden" : 0,
					"midpoints" : [ 32.5, 378.0, 92.5, 378.0 ]
				}

			}
, 			{
				"patchline" : 				{
					"source" : [ "obj-19", 0 ],
					"destination" : [ "obj-12", 0 ],
					"hidden" : 0
				}

			}
, 			{
				"patchline" : 				{
					"source" : [ "obj-24", 0 ],
					"destination" : [ "obj-19", 0 ],
					"hidden" : 0
				}

			}
, 			{
				"patchline" : 				{
					"source" : [ "obj-16", 0 ],
					"destination" : [ "obj-24", 0 ],
					"hidden" : 0,
					"midpoints" : [ 193.5, 140.0, 33.5, 140.0 ]
				}

			}
, 			{
				"patchline" : 				{
					"source" : [ "obj-21", 0 ],
					"destination" : [ "obj-24", 0 ],
					"hidden" : 0,
					"midpoints" : [ 104.5, 140.0, 33.5, 140.0 ]
				}

			}
, 			{
				"patchline" : 				{
					"source" : [ "obj-23", 0 ],
					"destination" : [ "obj-24", 0 ],
					"hidden" : 0
				}

			}
, 			{
				"patchline" : 				{
					"source" : [ "obj-22", 0 ],
					"destination" : [ "obj-23", 0 ],
					"hidden" : 0
				}

			}
, 			{
				"patchline" : 				{
					"source" : [ "obj-18", 0 ],
					"destination" : [ "obj-22", 0 ],
					"hidden" : 1
				}

			}
 ]
	}

}
