{
	"patcher" : 	{
		"rect" : [ 131.0, 226.0, 449.0, 395.0 ],
		"bglocked" : 0,
		"defrect" : [ 131.0, 226.0, 449.0, 395.0 ],
		"openinpresentation" : 0,
		"default_fontsize" : 10.0,
		"default_fontface" : 0,
		"default_fontname" : "Verdana",
		"gridonopen" : 0,
		"gridsize" : [ 5.0, 5.0 ],
		"gridsnaponopen" : 0,
		"toolbarvisible" : 1,
		"boxfadetime" : 200,
		"boxanimatetime" : 200,
		"scrollanimatetime" : 200,
		"metadata" : [  ],
		"boxes" : [ 			{
				"box" : 				{
					"maxclass" : "comment",
					"text" : "or send directly the path of the desired folder",
					"fontname" : "Verdana",
					"numinlets" : 1,
					"id" : "obj-1",
					"numoutlets" : 0,
					"fontsize" : 9.0,
					"patching_rect" : [ 171.0, 221.0, 237.0, 18.0 ]
				}

			}
, 			{
				"box" : 				{
					"maxclass" : "comment",
					"text" : "jcom.mkdir",
					"fontname" : "Verdana",
					"numinlets" : 1,
					"id" : "obj-2",
					"frgb" : [ 1.0, 1.0, 1.0, 1.0 ],
					"numoutlets" : 0,
					"textcolor" : [ 1.0, 1.0, 1.0, 1.0 ],
					"fontsize" : 15.799999,
					"patching_rect" : [ 28.0, 25.0, 226.0, 28.0 ]
				}

			}
, 			{
				"box" : 				{
					"maxclass" : "comment",
					"text" : "create a directory on your drive",
					"fontname" : "Verdana",
					"numinlets" : 1,
					"id" : "obj-3",
					"frgb" : [ 1.0, 1.0, 1.0, 1.0 ],
					"numoutlets" : 0,
					"textcolor" : [ 1.0, 1.0, 1.0, 1.0 ],
					"fontsize" : 9.0,
					"patching_rect" : [ 28.0, 56.0, 194.0, 18.0 ]
				}

			}
, 			{
				"box" : 				{
					"maxclass" : "panel",
					"numinlets" : 1,
					"id" : "obj-4",
					"numoutlets" : 0,
					"rounded" : 0,
					"bgcolor" : [ 0.262745, 0.254902, 0.419608, 1.0 ],
					"patching_rect" : [ 23.0, 20.0, 368.0, 61.0 ]
				}

			}
, 			{
				"box" : 				{
					"maxclass" : "newobj",
					"text" : "deferlow",
					"fontname" : "Verdana",
					"numinlets" : 1,
					"hidden" : 1,
					"id" : "obj-5",
					"numoutlets" : 1,
					"outlettype" : [ "" ],
					"fontsize" : 9.0,
					"patching_rect" : [ 94.0, 61.0, 50.0, 17.0 ]
				}

			}
, 			{
				"box" : 				{
					"maxclass" : "newobj",
					"text" : "loadbang",
					"fontname" : "Verdana",
					"numinlets" : 1,
					"hidden" : 1,
					"id" : "obj-6",
					"numoutlets" : 1,
					"outlettype" : [ "bang" ],
					"fontsize" : 9.0,
					"patching_rect" : [ 94.0, 41.0, 48.0, 17.0 ]
				}

			}
, 			{
				"box" : 				{
					"maxclass" : "comment",
					"text" : "then type the name of the folder you want to create",
					"fontname" : "Verdana",
					"numinlets" : 1,
					"id" : "obj-7",
					"numoutlets" : 0,
					"fontsize" : 9.0,
					"patching_rect" : [ 148.0, 156.0, 303.0, 18.0 ]
				}

			}
, 			{
				"box" : 				{
					"maxclass" : "newobj",
					"text" : "p format",
					"fontname" : "Verdana",
					"numinlets" : 2,
					"id" : "obj-8",
					"numoutlets" : 2,
					"outlettype" : [ "", "" ],
					"fontsize" : 9.0,
					"patching_rect" : [ 33.0, 201.0, 132.0, 18.0 ],
					"patcher" : 					{
						"rect" : [ 20.0, 74.0, 565.0, 374.0 ],
										"bglocked" : 0,
						"defrect" : [ 20.0, 74.0, 565.0, 374.0 ],
						"openinpresentation" : 0,
						"default_fontsize" : 10.0,
						"default_fontface" : 0,
						"default_fontname" : "Verdana",
						"gridonopen" : 0,
						"gridsize" : [ 5.0, 5.0 ],
						"gridsnaponopen" : 0,
						"toolbarvisible" : 1,
						"boxfadetime" : 200,
						"boxanimatetime" : 200,
						"scrollanimatetime" : 200,
						"metadata" : [  ],
						"boxes" : [ 							{
								"box" : 								{
									"maxclass" : "newobj",
									"text" : "tosymbol",
									"fontname" : "Verdana",
									"numinlets" : 1,
									"id" : "obj-1",
									"numoutlets" : 1,
									"outlettype" : [ "" ],
									"fontsize" : 9.0,
									"patching_rect" : [ 140.0, 245.0, 51.0, 17.0 ]
								}

							}
, 							{
								"box" : 								{
									"maxclass" : "newobj",
									"text" : "prepend set",
									"fontname" : "Verdana",
									"numinlets" : 1,
									"id" : "obj-2",
									"numoutlets" : 1,
									"outlettype" : [ "" ],
									"fontsize" : 9.0,
									"patching_rect" : [ 204.0, 246.0, 57.0, 17.0 ]
								}

							}
, 							{
								"box" : 								{
									"maxclass" : "newobj",
									"text" : "route text",
									"fontname" : "Verdana",
									"numinlets" : 1,
									"id" : "obj-3",
									"numoutlets" : 2,
									"outlettype" : [ "", "" ],
									"fontsize" : 9.0,
									"patching_rect" : [ 140.0, 50.0, 56.0, 17.0 ]
								}

							}
, 							{
								"box" : 								{
									"maxclass" : "newobj",
									"text" : "tosymbol",
									"fontname" : "Verdana",
									"numinlets" : 1,
									"id" : "obj-4",
									"numoutlets" : 1,
									"outlettype" : [ "" ],
									"fontsize" : 9.0,
									"patching_rect" : [ 140.0, 72.0, 51.0, 17.0 ]
								}

							}
, 							{
								"box" : 								{
									"maxclass" : "newobj",
									"text" : "t b s",
									"fontname" : "Verdana",
									"numinlets" : 1,
									"id" : "obj-5",
									"numoutlets" : 2,
									"outlettype" : [ "bang", "" ],
									"fontsize" : 9.0,
									"patching_rect" : [ 140.0, 94.0, 227.0, 17.0 ]
								}

							}
, 							{
								"box" : 								{
									"maxclass" : "newobj",
									"text" : "tosymbol",
									"fontname" : "Verdana",
									"numinlets" : 1,
									"id" : "obj-6",
									"numoutlets" : 1,
									"outlettype" : [ "" ],
									"fontsize" : 9.0,
									"patching_rect" : [ 263.0, 163.0, 51.0, 17.0 ]
								}

							}
, 							{
								"box" : 								{
									"maxclass" : "newobj",
									"text" : "sprintf %s%s",
									"fontname" : "Verdana",
									"numinlets" : 2,
									"id" : "obj-7",
									"numoutlets" : 1,
									"outlettype" : [ "" ],
									"fontsize" : 9.0,
									"patching_rect" : [ 140.0, 221.0, 227.0, 17.0 ]
								}

							}
, 							{
								"box" : 								{
									"maxclass" : "newobj",
									"text" : "zl reg",
									"fontname" : "Verdana",
									"numinlets" : 2,
									"id" : "obj-8",
									"numoutlets" : 2,
									"outlettype" : [ "", "" ],
									"fontsize" : 9.0,
									"patching_rect" : [ 140.0, 187.0, 133.0, 17.0 ]
								}

							}
, 							{
								"box" : 								{
									"maxclass" : "button",
									"numinlets" : 1,
									"id" : "obj-9",
									"numoutlets" : 1,
									"outlettype" : [ "bang" ],
									"patching_rect" : [ 50.0, 109.0, 15.0, 15.0 ]
								}

							}
, 							{
								"box" : 								{
									"maxclass" : "newobj",
									"text" : "opendialog folder",
									"fontname" : "Verdana",
									"numinlets" : 1,
									"id" : "obj-10",
									"numoutlets" : 2,
									"outlettype" : [ "", "bang" ],
									"fontsize" : 9.0,
									"patching_rect" : [ 263.0, 141.0, 86.0, 17.0 ]
								}

							}
, 							{
								"box" : 								{
									"maxclass" : "inlet",
									"numinlets" : 0,
									"id" : "obj-11",
									"numoutlets" : 1,
									"outlettype" : [ "" ],
									"patching_rect" : [ 140.0, 30.0, 15.0, 15.0 ],
									"comment" : ""
								}

							}
, 							{
								"box" : 								{
									"maxclass" : "inlet",
									"numinlets" : 0,
									"id" : "obj-12",
									"numoutlets" : 1,
									"outlettype" : [ "" ],
									"patching_rect" : [ 50.0, 89.0, 15.0, 15.0 ],
									"comment" : ""
								}

							}
, 							{
								"box" : 								{
									"maxclass" : "outlet",
									"numinlets" : 1,
									"id" : "obj-13",
									"numoutlets" : 0,
									"patching_rect" : [ 140.0, 267.0, 15.0, 15.0 ],
									"comment" : ""
								}

							}
, 							{
								"box" : 								{
									"maxclass" : "outlet",
									"numinlets" : 1,
									"id" : "obj-14",
									"numoutlets" : 0,
									"patching_rect" : [ 204.0, 268.0, 15.0, 15.0 ],
									"comment" : ""
								}

							}
 ],
						"lines" : [ 							{
								"patchline" : 								{
									"source" : [ "obj-12", 0 ],
									"destination" : [ "obj-9", 0 ],
									"hidden" : 0
								}

							}
, 							{
								"patchline" : 								{
									"source" : [ "obj-11", 0 ],
									"destination" : [ "obj-3", 0 ],
									"hidden" : 0
								}

							}
, 							{
								"patchline" : 								{
									"source" : [ "obj-3", 0 ],
									"destination" : [ "obj-4", 0 ],
									"hidden" : 0
								}

							}
, 							{
								"patchline" : 								{
									"source" : [ "obj-4", 0 ],
									"destination" : [ "obj-5", 0 ],
									"hidden" : 0
								}

							}
, 							{
								"patchline" : 								{
									"source" : [ "obj-5", 0 ],
									"destination" : [ "obj-8", 0 ],
									"hidden" : 0
								}

							}
, 							{
								"patchline" : 								{
									"source" : [ "obj-8", 0 ],
									"destination" : [ "obj-7", 0 ],
									"hidden" : 0
								}

							}
, 							{
								"patchline" : 								{
									"source" : [ "obj-7", 0 ],
									"destination" : [ "obj-1", 0 ],
									"hidden" : 0
								}

							}
, 							{
								"patchline" : 								{
									"source" : [ "obj-1", 0 ],
									"destination" : [ "obj-13", 0 ],
									"hidden" : 0
								}

							}
, 							{
								"patchline" : 								{
									"source" : [ "obj-1", 0 ],
									"destination" : [ "obj-2", 0 ],
									"hidden" : 0
								}

							}
, 							{
								"patchline" : 								{
									"source" : [ "obj-2", 0 ],
									"destination" : [ "obj-14", 0 ],
									"hidden" : 0
								}

							}
, 							{
								"patchline" : 								{
									"source" : [ "obj-9", 0 ],
									"destination" : [ "obj-10", 0 ],
									"hidden" : 0,
									"midpoints" : [ 59.0, 132.0, 272.5, 132.0 ]
								}

							}
, 							{
								"patchline" : 								{
									"source" : [ "obj-10", 0 ],
									"destination" : [ "obj-6", 0 ],
									"hidden" : 0
								}

							}
, 							{
								"patchline" : 								{
									"source" : [ "obj-6", 0 ],
									"destination" : [ "obj-8", 1 ],
									"hidden" : 0
								}

							}
, 							{
								"patchline" : 								{
									"source" : [ "obj-5", 1 ],
									"destination" : [ "obj-7", 1 ],
									"hidden" : 0
								}

							}
 ]
					}
,
					"saved_object_attributes" : 					{
						"fontname" : "Verdana",
						"default_fontface" : 0,
						"fontface" : 0,
						"default_fontname" : "Verdana",
						"globalpatchername" : "",
						"fontsize" : 10.0,
						"default_fontsize" : 10.0
					}

				}

			}
, 			{
				"box" : 				{
					"maxclass" : "message",
					"text" : "\"C:\/jc\/a folder\"",
					"fontname" : "Verdana",
					"numinlets" : 2,
					"id" : "obj-9",
					"numoutlets" : 1,
					"outlettype" : [ "" ],
					"fontsize" : 9.0,
					"patching_rect" : [ 146.0, 238.0, 86.0, 16.0 ]
				}

			}
, 			{
				"box" : 				{
					"maxclass" : "textedit",
					"text" : "\"\"a folder\"\"",
					"fontname" : "Verdana",
					"numinlets" : 1,
					"outputmode" : 1,
					"id" : "obj-10",
					"numoutlets" : 3,
					"outlettype" : [ "", "int", "" ],
					"fontsize" : 9.0,
					"patching_rect" : [ 146.0, 176.0, 198.0, 18.0 ],
					"keymode" : 1
				}

			}
, 			{
				"box" : 				{
					"maxclass" : "message",
					"text" : "choose a folder on your drive",
					"linecount" : 2,
					"fontname" : "Verdana",
					"numinlets" : 2,
					"id" : "obj-11",
					"numoutlets" : 1,
					"outlettype" : [ "" ],
					"fontsize" : 9.0,
					"patching_rect" : [ 33.0, 154.0, 94.0, 28.0 ]
				}

			}
, 			{
				"box" : 				{
					"maxclass" : "newobj",
					"text" : "jcom.mkdir",
					"fontname" : "Verdana",
					"numinlets" : 1,
					"id" : "obj-12",
					"numoutlets" : 1,
					"outlettype" : [ "" ],
					"fontsize" : 9.0,
					"patching_rect" : [ 33.0, 293.0, 76.0, 18.0 ]
				}

			}
, 			{
				"box" : 				{
					"maxclass" : "comment",
					"text" : "->",
					"fontname" : "Verdana",
					"numinlets" : 1,
					"id" : "obj-13",
					"numoutlets" : 0,
					"fontsize" : 9.0,
					"patching_rect" : [ 125.0, 155.0, 24.0, 18.0 ]
				}

			}
 ],
		"lines" : [ 			{
				"patchline" : 				{
					"source" : [ "obj-11", 0 ],
					"destination" : [ "obj-8", 0 ],
					"hidden" : 0
				}

			}
, 			{
				"patchline" : 				{
					"source" : [ "obj-8", 0 ],
					"destination" : [ "obj-12", 0 ],
					"hidden" : 0
				}

			}
, 			{
				"patchline" : 				{
					"source" : [ "obj-9", 0 ],
					"destination" : [ "obj-12", 0 ],
					"hidden" : 0,
					"midpoints" : [ 155.5, 280.0, 42.5, 280.0 ]
				}

			}
, 			{
				"patchline" : 				{
					"source" : [ "obj-6", 0 ],
					"destination" : [ "obj-5", 0 ],
					"hidden" : 1
				}

			}
, 			{
				"patchline" : 				{
					"source" : [ "obj-10", 0 ],
					"destination" : [ "obj-8", 1 ],
					"hidden" : 0
				}

			}
, 			{
				"patchline" : 				{
					"source" : [ "obj-8", 1 ],
					"destination" : [ "obj-9", 0 ],
					"hidden" : 0
				}

			}
 ]
	}

}
