{
	"patcher" : 	{
		"rect" : [ 66.0, 66.0, 334.0, 338.0 ],
		"bgcolor" : [ 1.0, 1.0, 1.0, 1.0 ],
		"bglocked" : 0,
		"defrect" : [ 66.0, 66.0, 334.0, 338.0 ],
		"openinpresentation" : 0,
		"default_fontsize" : 10.0,
		"default_fontface" : 0,
		"default_fontname" : "Verdana",
		"gridonopen" : 0,
		"gridsize" : [ 15.0, 15.0 ],
		"gridsnaponopen" : 0,
		"toolbarvisible" : 1,
		"boxfadetime" : 200,
		"boxanimatetime" : 200,
		"scrollanimatetime" : 200,
		"metadata" : [  ],
		"boxes" : [ 			{
				"box" : 				{
					"maxclass" : "jcom.meter~",
					"numinlets" : 1,
					"id" : "obj-1",
					"numoutlets" : 1,
					"outlettype" : [ "float" ],
					"patching_rect" : [ 35.0, 264.0, 80.0, 13.0 ]
				}

			}
, 			{
				"box" : 				{
					"maxclass" : "newobj",
					"text" : "loadmess defeat 1",
					"fontname" : "Verdana",
					"numinlets" : 1,
					"id" : "obj-2",
					"numoutlets" : 1,
					"outlettype" : [ "" ],
					"fontsize" : 9.0,
					"patching_rect" : [ 103.0, 230.0, 108.0, 18.0 ]
				}

			}
, 			{
				"box" : 				{
					"maxclass" : "flonum",
					"fontname" : "Verdana",
					"htextcolor" : [ 0.870588, 0.870588, 0.870588, 1.0 ],
					"maximum" : 1.0,
					"numinlets" : 1,
					"triscale" : 0.9,
					"id" : "obj-3",
					"minimum" : 0.0,
					"numoutlets" : 2,
					"outlettype" : [ "float", "bang" ],
					"bgcolor" : [ 0.866667, 0.866667, 0.866667, 1.0 ],
					"fontsize" : 9.0,
					"patching_rect" : [ 35.0, 231.0, 67.0, 18.0 ]
				}

			}
, 			{
				"box" : 				{
					"maxclass" : "button",
					"numinlets" : 1,
					"id" : "obj-4",
					"numoutlets" : 1,
					"outlettype" : [ "bang" ],
					"patching_rect" : [ 245.0, 88.0, 15.0, 15.0 ]
				}

			}
, 			{
				"box" : 				{
					"maxclass" : "toggle",
					"numinlets" : 1,
					"id" : "obj-5",
					"numoutlets" : 1,
					"outlettype" : [ "int" ],
					"patching_rect" : [ 185.0, 88.0, 15.0, 15.0 ]
				}

			}
, 			{
				"box" : 				{
					"maxclass" : "message",
					"text" : "defeat $1",
					"fontname" : "Verdana",
					"numinlets" : 2,
					"id" : "obj-6",
					"numoutlets" : 1,
					"outlettype" : [ "" ],
					"fontsize" : 9.0,
					"patching_rect" : [ 185.0, 110.0, 63.0, 16.0 ]
				}

			}
, 			{
				"box" : 				{
					"maxclass" : "message",
					"text" : "stop",
					"fontname" : "Verdana",
					"numinlets" : 2,
					"id" : "obj-7",
					"numoutlets" : 1,
					"outlettype" : [ "" ],
					"fontsize" : 9.0,
					"patching_rect" : [ 103.0, 88.0, 33.0, 16.0 ]
				}

			}
, 			{
				"box" : 				{
					"maxclass" : "message",
					"text" : "startwindow",
					"fontname" : "Verdana",
					"numinlets" : 2,
					"id" : "obj-8",
					"numoutlets" : 1,
					"outlettype" : [ "" ],
					"fontsize" : 9.0,
					"patching_rect" : [ 35.0, 88.0, 80.0, 16.0 ]
				}

			}
, 			{
				"box" : 				{
					"maxclass" : "comment",
					"text" : "jcom.meter~",
					"fontname" : "Verdana",
					"numinlets" : 1,
					"id" : "obj-9",
					"frgb" : [ 1.0, 1.0, 1.0, 1.0 ],
					"numoutlets" : 0,
					"textcolor" : [ 1.0, 1.0, 1.0, 1.0 ],
					"fontsize" : 15.799999,
					"patching_rect" : [ 13.0, 13.0, 122.0, 28.0 ]
				}

			}
, 			{
				"box" : 				{
					"maxclass" : "comment",
					"text" : "logarithmic level meter",
					"fontname" : "Verdana",
					"numinlets" : 1,
					"id" : "obj-10",
					"frgb" : [ 1.0, 1.0, 1.0, 1.0 ],
					"numoutlets" : 0,
					"textcolor" : [ 1.0, 1.0, 1.0, 1.0 ],
					"fontsize" : 9.0,
					"patching_rect" : [ 13.0, 39.0, 281.0, 18.0 ]
				}

			}
, 			{
				"box" : 				{
					"maxclass" : "panel",
					"numinlets" : 1,
					"id" : "obj-11",
					"numoutlets" : 0,
					"rounded" : 0,
					"bgcolor" : [ 0.262745, 0.254902, 0.419608, 1.0 ],
					"patching_rect" : [ 8.0, 9.0, 280.0, 50.0 ]
				}

			}
, 			{
				"box" : 				{
					"maxclass" : "jcom.meter~",
					"numinlets" : 1,
					"id" : "obj-12",
					"numoutlets" : 1,
					"outlettype" : [ "float" ],
					"patching_rect" : [ 36.0, 149.0, 80.0, 13.0 ]
				}

			}
, 			{
				"box" : 				{
					"maxclass" : "newobj",
					"text" : "adc~ 1",
					"fontname" : "Verdana",
					"numinlets" : 1,
					"id" : "obj-13",
					"numoutlets" : 1,
					"outlettype" : [ "signal" ],
					"fontsize" : 9.0,
					"patching_rect" : [ 35.0, 121.0, 49.0, 18.0 ]
				}

			}
, 			{
				"box" : 				{
					"maxclass" : "comment",
					"text" : "Can also be used to display floats as levels",
					"fontname" : "Verdana",
					"numinlets" : 1,
					"id" : "obj-14",
					"numoutlets" : 0,
					"fontsize" : 9.0,
					"patching_rect" : [ 13.0, 202.0, 244.0, 18.0 ]
				}

			}
 ],
		"lines" : [ 			{
				"patchline" : 				{
					"source" : [ "obj-7", 0 ],
					"destination" : [ "obj-13", 0 ],
					"hidden" : 0,
					"midpoints" : [ 112.5, 112.0, 44.5, 112.0 ]
				}

			}
, 			{
				"patchline" : 				{
					"source" : [ "obj-8", 0 ],
					"destination" : [ "obj-13", 0 ],
					"hidden" : 0,
					"midpoints" : [ 44.5, 112.0, 44.5, 112.0 ]
				}

			}
, 			{
				"patchline" : 				{
					"source" : [ "obj-6", 0 ],
					"destination" : [ "obj-12", 0 ],
					"hidden" : 0,
					"midpoints" : [ 194.5, 144.0, 45.5, 144.0 ]
				}

			}
, 			{
				"patchline" : 				{
					"source" : [ "obj-13", 0 ],
					"destination" : [ "obj-12", 0 ],
					"hidden" : 0
				}

			}
, 			{
				"patchline" : 				{
					"source" : [ "obj-2", 0 ],
					"destination" : [ "obj-1", 0 ],
					"hidden" : 0,
					"midpoints" : [ 112.5, 260.0, 44.5, 260.0 ]
				}

			}
, 			{
				"patchline" : 				{
					"source" : [ "obj-3", 0 ],
					"destination" : [ "obj-1", 0 ],
					"hidden" : 0
				}

			}
, 			{
				"patchline" : 				{
					"source" : [ "obj-5", 0 ],
					"destination" : [ "obj-6", 0 ],
					"hidden" : 0
				}

			}
 ]
	}

}
