{
	"patcher" : 	{
		"fileversion" : 1,
		"rect" : [ 12.0, 49.0, 837.0, 494.0 ],
		"bglocked" : 0,
		"defrect" : [ 12.0, 49.0, 837.0, 494.0 ],
		"openrect" : [ 0.0, 0.0, 0.0, 0.0 ],
		"openinpresentation" : 0,
		"default_fontsize" : 10.970939,
		"default_fontface" : 0,
		"default_fontname" : "Verdana",
		"gridonopen" : 0,
		"gridsize" : [ 5.0, 5.0 ],
		"gridsnaponopen" : 0,
		"toolbarvisible" : 1,
		"boxanimatetime" : 200,
		"imprint" : 0,
		"metadata" : [  ],
		"boxes" : [ 			{
				"box" : 				{
					"maxclass" : "umenu",
					"varname" : "module_out",
					"types" : [  ],
					"outlettype" : [ "int", "", "" ],
					"fontsize" : 10.0,
					"items" : [ "/limiter", ",", "/control", ",", "/mouse" ],
					"patching_rect" : [ 356.0, 108.0, 138.0, 19.0 ],
					"id" : "obj-1",
					"numinlets" : 1,
					"fontname" : "Verdana",
					"numoutlets" : 3
				}

			}
, 			{
				"box" : 				{
					"maxclass" : "bpatcher",
					"varname" : "/limiter~/2",
					"outlettype" : [ "", "signal", "signal" ],
					"patching_rect" : [ 32.0, 396.0, 303.0, 73.0 ],
					"args" : [ "/limiter.2" ],
					"id" : "obj-2",
					"numinlets" : 3,
					"name" : "jmod.limiter~.maxpat",
					"numoutlets" : 3
				}

			}
, 			{
				"box" : 				{
					"maxclass" : "bpatcher",
					"varname" : "control",
					"outlettype" : [ "" ],
					"patching_rect" : [ 32.0, 173.0, 303.0, 73.0 ],
					"args" : [ "/control" ],
					"id" : "obj-3",
					"numinlets" : 1,
					"name" : "jmod.control.maxpat",
					"numoutlets" : 1
				}

			}
, 			{
				"box" : 				{
					"maxclass" : "bpatcher",
					"varname" : "/mouse/1",
					"outlettype" : [ "" ],
					"patching_rect" : [ 32.0, 247.0, 303.0, 73.0 ],
					"args" : [ "/mouse" ],
					"id" : "obj-4",
					"numinlets" : 1,
					"name" : "jmod.mouse.maxpat",
					"numoutlets" : 1
				}

			}
, 			{
				"box" : 				{
					"maxclass" : "bpatcher",
					"varname" : "/limiter~/1",
					"outlettype" : [ "", "signal", "signal" ],
					"patching_rect" : [ 32.0, 322.0, 303.0, 73.0 ],
					"args" : [ "/limiter.1" ],
					"id" : "obj-5",
					"numinlets" : 3,
					"name" : "jmod.limiter~.maxpat",
					"numoutlets" : 3
				}

			}
, 			{
				"box" : 				{
					"maxclass" : "comment",
					"text" : "can be used for namespace discovery",
					"fontsize" : 10.0,
					"patching_rect" : [ 35.0, 110.0, 232.0, 19.0 ],
					"id" : "obj-6",
					"numinlets" : 1,
					"fontname" : "Verdana",
					"numoutlets" : 0
				}

			}
, 			{
				"box" : 				{
					"maxclass" : "comment",
					"text" : "(according to the JIG, the instance number should be indicated in the form \".n\")",
					"linecount" : 2,
					"fontsize" : 10.0,
					"patching_rect" : [ 555.0, 93.0, 246.0, 31.0 ],
					"id" : "obj-7",
					"numinlets" : 1,
					"fontname" : "Verdana",
					"numoutlets" : 0
				}

			}
, 			{
				"box" : 				{
					"maxclass" : "newobj",
					"text" : "thispatcher",
					"outlettype" : [ "", "" ],
					"fontsize" : 10.0,
					"hidden" : 1,
					"patching_rect" : [ 500.0, 128.0, 75.0, 19.0 ],
					"id" : "obj-8",
					"numinlets" : 1,
					"fontname" : "Verdana",
					"numoutlets" : 2,
					"save" : [ "#N", "thispatcher", ";", "#Q", "end", ";" ]
				}

			}
, 			{
				"box" : 				{
					"maxclass" : "newobj",
					"text" : "t s set",
					"outlettype" : [ "", "set" ],
					"fontsize" : 10.0,
					"hidden" : 1,
					"patching_rect" : [ 663.0, 242.0, 60.0, 19.0 ],
					"id" : "obj-9",
					"numinlets" : 1,
					"fontname" : "Verdana",
					"numoutlets" : 2
				}

			}
, 			{
				"box" : 				{
					"maxclass" : "newobj",
					"text" : "t s set",
					"outlettype" : [ "", "set" ],
					"fontsize" : 10.0,
					"hidden" : 1,
					"patching_rect" : [ 511.0, 222.0, 60.0, 19.0 ],
					"id" : "obj-10",
					"numinlets" : 1,
					"fontname" : "Verdana",
					"numoutlets" : 2
				}

			}
, 			{
				"box" : 				{
					"maxclass" : "newobj",
					"text" : "p format",
					"outlettype" : [ "" ],
					"fontsize" : 10.0,
					"hidden" : 1,
					"patching_rect" : [ 357.0, 264.0, 55.0, 19.0 ],
					"id" : "obj-11",
					"numinlets" : 1,
					"fontname" : "Verdana",
					"numoutlets" : 1,
					"patcher" : 					{
						"fileversion" : 1,
						"rect" : [ 10.0, 59.0, 205.0, 198.0 ],
						"bglocked" : 0,
						"defrect" : [ 10.0, 59.0, 205.0, 198.0 ],
						"openrect" : [ 0.0, 0.0, 0.0, 0.0 ],
						"openinpresentation" : 0,
						"default_fontsize" : 10.0,
						"default_fontface" : 0,
						"default_fontname" : "Verdana",
						"gridonopen" : 0,
						"gridsize" : [ 5.0, 5.0 ],
						"gridsnaponopen" : 0,
						"toolbarvisible" : 1,
						"boxanimatetime" : 200,
						"imprint" : 0,
						"metadata" : [  ],
						"boxes" : [ 							{
								"box" : 								{
									"maxclass" : "button",
									"outlettype" : [ "bang" ],
									"patching_rect" : [ 31.0, 51.0, 15.0, 15.0 ],
									"id" : "obj-1",
									"numinlets" : 1,
									"numoutlets" : 1
								}

							}
, 							{
								"box" : 								{
									"maxclass" : "message",
									"text" : "append \\;",
									"outlettype" : [ "" ],
									"fontsize" : 10.0,
									"patching_rect" : [ 31.0, 69.0, 58.0, 17.0 ],
									"id" : "obj-2",
									"numinlets" : 2,
									"fontname" : "Verdana",
									"numoutlets" : 1
								}

							}
, 							{
								"box" : 								{
									"maxclass" : "newobj",
									"text" : "prepend append",
									"outlettype" : [ "" ],
									"fontsize" : 10.0,
									"patching_rect" : [ 86.0, 68.0, 90.0, 19.0 ],
									"id" : "obj-3",
									"numinlets" : 1,
									"fontname" : "Verdana",
									"numoutlets" : 1
								}

							}
, 							{
								"box" : 								{
									"maxclass" : "outlet",
									"patching_rect" : [ 31.0, 102.0, 15.0, 15.0 ],
									"id" : "obj-4",
									"numinlets" : 1,
									"numoutlets" : 0,
									"comment" : ""
								}

							}
, 							{
								"box" : 								{
									"maxclass" : "inlet",
									"outlettype" : [ "" ],
									"patching_rect" : [ 31.0, 31.0, 15.0, 15.0 ],
									"id" : "obj-5",
									"numinlets" : 0,
									"numoutlets" : 1,
									"comment" : ""
								}

							}
 ],
						"lines" : [ 							{
								"patchline" : 								{
									"source" : [ "obj-5", 0 ],
									"destination" : [ "obj-3", 0 ],
									"hidden" : 0,
									"midpoints" : [ 40.0, 48.0, 95.5, 48.0 ]
								}

							}
, 							{
								"patchline" : 								{
									"source" : [ "obj-3", 0 ],
									"destination" : [ "obj-4", 0 ],
									"hidden" : 0,
									"midpoints" : [ 95.5, 92.0, 40.0, 92.0 ]
								}

							}
, 							{
								"patchline" : 								{
									"source" : [ "obj-2", 0 ],
									"destination" : [ "obj-4", 0 ],
									"hidden" : 0,
									"midpoints" : [ 40.5, 92.0, 40.0, 92.0 ]
								}

							}
, 							{
								"patchline" : 								{
									"source" : [ "obj-1", 0 ],
									"destination" : [ "obj-2", 0 ],
									"hidden" : 0,
									"midpoints" : [  ]
								}

							}
, 							{
								"patchline" : 								{
									"source" : [ "obj-5", 0 ],
									"destination" : [ "obj-1", 0 ],
									"hidden" : 0,
									"midpoints" : [  ]
								}

							}
 ]
					}
,
					"saved_object_attributes" : 					{
						"fontface" : 0,
						"fontsize" : 10.0,
						"default_fontface" : 0,
						"fontname" : "Verdana",
						"default_fontname" : "Verdana",
						"globalpatchername" : "",
						"default_fontsize" : 10.0
					}

				}

			}
, 			{
				"box" : 				{
					"maxclass" : "newobj",
					"text" : "t s set",
					"outlettype" : [ "", "set" ],
					"fontsize" : 10.0,
					"hidden" : 1,
					"patching_rect" : [ 357.0, 222.0, 62.0, 19.0 ],
					"id" : "obj-12",
					"numinlets" : 1,
					"fontname" : "Verdana",
					"numoutlets" : 2
				}

			}
, 			{
				"box" : 				{
					"maxclass" : "newobj",
					"text" : "prepend append",
					"outlettype" : [ "" ],
					"fontsize" : 10.0,
					"hidden" : 1,
					"patching_rect" : [ 663.0, 181.0, 90.0, 19.0 ],
					"id" : "obj-13",
					"numinlets" : 1,
					"fontname" : "Verdana",
					"numoutlets" : 1
				}

			}
, 			{
				"box" : 				{
					"maxclass" : "newobj",
					"text" : "prepend append",
					"outlettype" : [ "" ],
					"fontsize" : 10.0,
					"hidden" : 1,
					"patching_rect" : [ 511.0, 179.0, 90.0, 19.0 ],
					"id" : "obj-14",
					"numinlets" : 1,
					"fontname" : "Verdana",
					"numoutlets" : 1
				}

			}
, 			{
				"box" : 				{
					"maxclass" : "newobj",
					"text" : "prepend append",
					"outlettype" : [ "" ],
					"fontsize" : 10.0,
					"hidden" : 1,
					"patching_rect" : [ 357.0, 180.0, 90.0, 19.0 ],
					"id" : "obj-15",
					"numinlets" : 1,
					"fontname" : "Verdana",
					"numoutlets" : 1
				}

			}
, 			{
				"box" : 				{
					"maxclass" : "message",
					"text" : "\"clipmode none\";\r\"description reports\" the cpu usage of the dsp processing;\r\"range 0. 1.\";\r\"repetitions 1\";\r\"type msg_generic\";\r",
					"linecount" : 6,
					"outlettype" : [ "" ],
					"fontsize" : 10.0,
					"patching_rect" : [ 357.0, 289.0, 313.0, 77.0 ],
					"id" : "obj-16",
					"numinlets" : 2,
					"fontname" : "Verdana",
					"numoutlets" : 1
				}

			}
, 			{
				"box" : 				{
					"maxclass" : "newobj",
					"text" : "jcom.attributes_dumper",
					"outlettype" : [ "", "" ],
					"fontsize" : 10.0,
					"patching_rect" : [ 663.0, 242.0, 149.0, 19.0 ],
					"id" : "obj-17",
					"numinlets" : 2,
					"fontname" : "Verdana",
					"numoutlets" : 2
				}

			}
, 			{
				"box" : 				{
					"maxclass" : "newobj",
					"text" : "jcom.attributes_dumper",
					"outlettype" : [ "", "" ],
					"fontsize" : 10.0,
					"patching_rect" : [ 511.0, 242.0, 149.0, 19.0 ],
					"id" : "obj-18",
					"numinlets" : 2,
					"fontname" : "Verdana",
					"numoutlets" : 2
				}

			}
, 			{
				"box" : 				{
					"maxclass" : "umenu",
					"types" : [  ],
					"outlettype" : [ "int", "", "" ],
					"fontsize" : 10.0,
					"items" : [ "audio/amplitude/1", ",", "audio/amplitude/2" ],
					"patching_rect" : [ 663.0, 202.0, 120.0, 19.0 ],
					"id" : "obj-19",
					"numinlets" : 1,
					"fontname" : "Verdana",
					"numoutlets" : 3
				}

			}
, 			{
				"box" : 				{
					"maxclass" : "umenu",
					"types" : [  ],
					"outlettype" : [ "int", "", "" ],
					"fontsize" : 10.0,
					"items" : [ "audio/gain", ",", "audio/meters/clear", ",", "documentation/generate", ",", "documentation/help", ",", "documentation/html", ",", "module/view_internals", ",", "preset/default", ",", "preset/post", ",", "preset/read", ",", "preset/recall", ",", "preset/store", ",", "preset/write", ",", "ui/refresh" ],
					"patching_rect" : [ 511.0, 202.0, 120.0, 19.0 ],
					"id" : "obj-20",
					"numinlets" : 1,
					"fontname" : "Verdana",
					"numoutlets" : 3
				}

			}
, 			{
				"box" : 				{
					"maxclass" : "umenu",
					"types" : [  ],
					"outlettype" : [ "int", "", "" ],
					"fontsize" : 10.0,
					"items" : [ "audio/bypass", ",", "audio/enveloppe_follower/1", ",", "audio/enveloppe_follower/2", ",", "audio/gain/midi", ",", "audio/meters/freeze", ",", "audio/mix", ",", "audio/mute", ",", "lookahead", ",", "mode", ",", "postamp", ",", "preamp", ",", "release", ",", "threshold", ",", "ui/freeze" ],
					"patching_rect" : [ 357.0, 202.0, 125.0, 19.0 ],
					"id" : "obj-21",
					"numinlets" : 1,
					"fontname" : "Verdana",
					"numoutlets" : 3
				}

			}
, 			{
				"box" : 				{
					"maxclass" : "number",
					"outlettype" : [ "int", "bang" ],
					"fontsize" : 10.0,
					"patching_rect" : [ 450.0, 108.0, 37.0, 19.0 ],
					"triscale" : 0.9,
					"htextcolor" : [ 0.870588, 0.870588, 0.870588, 1.0 ],
					"id" : "obj-22",
					"numinlets" : 1,
					"maximum" : 2,
					"fontname" : "Verdana",
					"numoutlets" : 2
				}

			}
, 			{
				"box" : 				{
					"maxclass" : "umenu",
					"types" : [  ],
					"outlettype" : [ "int", "", "" ],
					"fontsize" : 10.0,
					"arrow" : 0,
					"items" : ".",
					"patching_rect" : [ 438.0, 108.0, 13.0, 19.0 ],
					"id" : "obj-23",
					"numinlets" : 1,
					"fontname" : "Verdana",
					"numoutlets" : 3
				}

			}
, 			{
				"box" : 				{
					"maxclass" : "newobj",
					"text" : "prepend append",
					"outlettype" : [ "" ],
					"fontsize" : 10.0,
					"hidden" : 1,
					"patching_rect" : [ 356.0, 84.0, 90.0, 19.0 ],
					"id" : "obj-24",
					"numinlets" : 1,
					"fontname" : "Verdana",
					"numoutlets" : 1
				}

			}
, 			{
				"box" : 				{
					"maxclass" : "message",
					"text" : "get the module names here",
					"outlettype" : [ "" ],
					"fontsize" : 10.0,
					"patching_rect" : [ 356.0, 34.0, 158.0, 17.0 ],
					"id" : "obj-25",
					"numinlets" : 2,
					"fontname" : "Verdana",
					"numoutlets" : 1
				}

			}
, 			{
				"box" : 				{
					"maxclass" : "newobj",
					"text" : "jcom.modules_dumper",
					"outlettype" : [ "", "", "clear" ],
					"fontsize" : 10.0,
					"patching_rect" : [ 356.0, 64.0, 196.0, 19.0 ],
					"id" : "obj-26",
					"numinlets" : 1,
					"fontname" : "Verdana",
					"numoutlets" : 3
				}

			}
, 			{
				"box" : 				{
					"maxclass" : "newobj",
					"text" : "jcom.returns_dumper",
					"outlettype" : [ "" ],
					"fontsize" : 10.0,
					"patching_rect" : [ 663.0, 156.0, 135.0, 19.0 ],
					"id" : "obj-27",
					"numinlets" : 1,
					"fontname" : "Verdana",
					"numoutlets" : 1
				}

			}
, 			{
				"box" : 				{
					"maxclass" : "newobj",
					"text" : "jcom.messages_dumper",
					"outlettype" : [ "" ],
					"fontsize" : 10.0,
					"patching_rect" : [ 511.0, 156.0, 142.0, 19.0 ],
					"id" : "obj-28",
					"numinlets" : 1,
					"fontname" : "Verdana",
					"numoutlets" : 1
				}

			}
, 			{
				"box" : 				{
					"maxclass" : "newobj",
					"text" : "jcom.parameters_dumper",
					"outlettype" : [ "" ],
					"fontsize" : 10.0,
					"patching_rect" : [ 357.0, 156.0, 152.0, 19.0 ],
					"id" : "obj-29",
					"numinlets" : 1,
					"fontname" : "Verdana",
					"numoutlets" : 1
				}

			}
, 			{
				"box" : 				{
					"maxclass" : "newobj",
					"text" : "jcom.attributes_dumper",
					"outlettype" : [ "", "" ],
					"fontsize" : 10.0,
					"patching_rect" : [ 357.0, 242.0, 149.0, 19.0 ],
					"id" : "obj-30",
					"numinlets" : 2,
					"fontname" : "Verdana",
					"numoutlets" : 2
				}

			}
, 			{
				"box" : 				{
					"maxclass" : "comment",
					"text" : "put some modules to have a namespace :",
					"fontsize" : 10.0,
					"patching_rect" : [ 34.0, 155.0, 236.0, 19.0 ],
					"id" : "obj-31",
					"numinlets" : 1,
					"fontname" : "Verdana",
					"numoutlets" : 0
				}

			}
, 			{
				"box" : 				{
					"maxclass" : "comment",
					"text" : "jcom.all_dumper",
					"fontsize" : 17.553501,
					"patching_rect" : [ 37.0, 41.0, 251.0, 28.0 ],
					"id" : "obj-32",
					"numinlets" : 1,
					"fontname" : "Verdana",
					"numoutlets" : 0
				}

			}
, 			{
				"box" : 				{
					"maxclass" : "comment",
					"text" : "utilities to analyze the whole Jamoma namespace",
					"fontsize" : 10.0,
					"patching_rect" : [ 38.0, 71.0, 295.0, 19.0 ],
					"id" : "obj-33",
					"numinlets" : 1,
					"fontname" : "Verdana",
					"numoutlets" : 0
				}

			}
, 			{
				"box" : 				{
					"maxclass" : "panel",
					"rounded" : 15,
					"patching_rect" : [ 31.0, 29.0, 298.0, 65.0 ],
					"id" : "obj-34",
					"numinlets" : 1,
					"numoutlets" : 0
				}

			}
, 			{
				"box" : 				{
					"maxclass" : "newobj",
					"text" : "p instances",
					"outlettype" : [ "", "", "clear", "" ],
					"fontsize" : 10.0,
					"hidden" : 1,
					"patching_rect" : [ 387.0, 128.0, 110.0, 19.0 ],
					"id" : "obj-35",
					"numinlets" : 2,
					"fontname" : "Verdana",
					"numoutlets" : 4,
					"patcher" : 					{
						"fileversion" : 1,
						"rect" : [ 694.0, 405.0, 480.0, 416.0 ],
						"bglocked" : 0,
						"defrect" : [ 694.0, 405.0, 480.0, 416.0 ],
						"openrect" : [ 0.0, 0.0, 0.0, 0.0 ],
						"openinpresentation" : 0,
						"default_fontsize" : 10.0,
						"default_fontface" : 0,
						"default_fontname" : "Verdana",
						"gridonopen" : 0,
						"gridsize" : [ 5.0, 5.0 ],
						"gridsnaponopen" : 0,
						"toolbarvisible" : 1,
						"boxanimatetime" : 200,
						"imprint" : 0,
						"metadata" : [  ],
						"boxes" : [ 							{
								"box" : 								{
									"maxclass" : "outlet",
									"patching_rect" : [ 413.0, 183.0, 15.0, 15.0 ],
									"id" : "obj-1",
									"numinlets" : 1,
									"numoutlets" : 0,
									"comment" : ""
								}

							}
, 							{
								"box" : 								{
									"maxclass" : "newobj",
									"text" : "p script",
									"outlettype" : [ "" ],
									"fontsize" : 10.0,
									"patching_rect" : [ 413.0, 158.0, 46.0, 19.0 ],
									"id" : "obj-2",
									"numinlets" : 2,
									"fontname" : "Verdana",
									"numoutlets" : 1,
									"patcher" : 									{
										"fileversion" : 1,
										"rect" : [ 139.0, 51.0, 496.0, 199.0 ],
										"bglocked" : 0,
										"defrect" : [ 139.0, 51.0, 496.0, 199.0 ],
										"openrect" : [ 0.0, 0.0, 0.0, 0.0 ],
										"openinpresentation" : 0,
										"default_fontsize" : 10.0,
										"default_fontface" : 0,
										"default_fontname" : "Verdana",
										"gridonopen" : 0,
										"gridsize" : [ 5.0, 5.0 ],
										"gridsnaponopen" : 0,
										"toolbarvisible" : 1,
										"boxanimatetime" : 200,
										"imprint" : 0,
										"metadata" : [  ],
										"boxes" : [ 											{
												"box" : 												{
													"maxclass" : "newobj",
													"text" : "loadbang",
													"outlettype" : [ "bang" ],
													"fontsize" : 10.0,
													"patching_rect" : [ 69.0, 45.0, 54.0, 19.0 ],
													"id" : "obj-1",
													"numinlets" : 1,
													"fontname" : "Verdana",
													"numoutlets" : 1
												}

											}
, 											{
												"box" : 												{
													"maxclass" : "outlet",
													"patching_rect" : [ 28.0, 111.0, 15.0, 15.0 ],
													"id" : "obj-2",
													"numinlets" : 1,
													"numoutlets" : 0,
													"comment" : ""
												}

											}
, 											{
												"box" : 												{
													"maxclass" : "message",
													"text" : "script size module_out 91 16",
													"outlettype" : [ "" ],
													"fontsize" : 10.0,
													"patching_rect" : [ 218.0, 63.0, 234.0, 17.0 ],
													"id" : "obj-3",
													"numinlets" : 2,
													"fontname" : "Verdana",
													"numoutlets" : 1
												}

											}
, 											{
												"box" : 												{
													"maxclass" : "inlet",
													"outlettype" : [ "bang" ],
													"patching_rect" : [ 218.0, 36.0, 15.0, 15.0 ],
													"id" : "obj-4",
													"numinlets" : 0,
													"numoutlets" : 1,
													"comment" : ""
												}

											}
, 											{
												"box" : 												{
													"maxclass" : "inlet",
													"outlettype" : [ "bang" ],
													"patching_rect" : [ 28.0, 44.0, 15.0, 15.0 ],
													"id" : "obj-5",
													"numinlets" : 0,
													"numoutlets" : 1,
													"comment" : ""
												}

											}
, 											{
												"box" : 												{
													"maxclass" : "message",
													"text" : "script size module_out 138 16",
													"outlettype" : [ "" ],
													"fontsize" : 10.0,
													"patching_rect" : [ 28.0, 67.0, 161.0, 17.0 ],
													"id" : "obj-6",
													"numinlets" : 2,
													"fontname" : "Verdana",
													"numoutlets" : 1
												}

											}
 ],
										"lines" : [ 											{
												"patchline" : 												{
													"source" : [ "obj-4", 0 ],
													"destination" : [ "obj-3", 0 ],
													"hidden" : 0,
													"midpoints" : [  ]
												}

											}
, 											{
												"patchline" : 												{
													"source" : [ "obj-3", 0 ],
													"destination" : [ "obj-2", 0 ],
													"hidden" : 0,
													"midpoints" : [ 227.5, 100.0, 37.0, 100.0 ]
												}

											}
, 											{
												"patchline" : 												{
													"source" : [ "obj-6", 0 ],
													"destination" : [ "obj-2", 0 ],
													"hidden" : 0,
													"midpoints" : [  ]
												}

											}
, 											{
												"patchline" : 												{
													"source" : [ "obj-5", 0 ],
													"destination" : [ "obj-6", 0 ],
													"hidden" : 0,
													"midpoints" : [  ]
												}

											}
, 											{
												"patchline" : 												{
													"source" : [ "obj-1", 0 ],
													"destination" : [ "obj-6", 0 ],
													"hidden" : 0,
													"midpoints" : [  ]
												}

											}
 ]
									}
,
									"saved_object_attributes" : 									{
										"fontface" : 0,
										"fontsize" : 10.0,
										"default_fontface" : 0,
										"fontname" : "Verdana",
										"default_fontname" : "Verdana",
										"globalpatchername" : "",
										"default_fontsize" : 10.0
									}

								}

							}
, 							{
								"box" : 								{
									"maxclass" : "newobj",
									"text" : "sel 0 1",
									"outlettype" : [ "bang", "bang", "" ],
									"fontsize" : 10.0,
									"patching_rect" : [ 413.0, 131.0, 44.0, 19.0 ],
									"id" : "obj-3",
									"numinlets" : 1,
									"fontname" : "Verdana",
									"numoutlets" : 3
								}

							}
, 							{
								"box" : 								{
									"maxclass" : "outlet",
									"patching_rect" : [ 401.0, 325.0, 16.0, 16.0 ],
									"id" : "obj-4",
									"numinlets" : 1,
									"numoutlets" : 0,
									"comment" : "connect to menus to clear them when a new module is chosen"
								}

							}
, 							{
								"box" : 								{
									"maxclass" : "newobj",
									"text" : "t s clear",
									"outlettype" : [ "", "clear" ],
									"fontsize" : 10.0,
									"patching_rect" : [ 14.0, 301.0, 397.0, 19.0 ],
									"id" : "obj-5",
									"numinlets" : 1,
									"fontname" : "Verdana",
									"numoutlets" : 2
								}

							}
, 							{
								"box" : 								{
									"maxclass" : "newobj",
									"text" : "prepend set",
									"outlettype" : [ "" ],
									"fontsize" : 10.0,
									"patching_rect" : [ 302.0, 232.0, 68.0, 19.0 ],
									"id" : "obj-6",
									"numinlets" : 1,
									"fontname" : "Verdana",
									"numoutlets" : 1
								}

							}
, 							{
								"box" : 								{
									"maxclass" : "newobj",
									"text" : "loadmess -1",
									"outlettype" : [ "" ],
									"fontsize" : 10.0,
									"patching_rect" : [ 220.0, 105.0, 70.0, 19.0 ],
									"id" : "obj-7",
									"numinlets" : 1,
									"fontname" : "Verdana",
									"numoutlets" : 1
								}

							}
, 							{
								"box" : 								{
									"maxclass" : "newobj",
									"text" : "sel 1",
									"outlettype" : [ "bang", "" ],
									"fontsize" : 10.0,
									"patching_rect" : [ 302.0, 130.0, 39.0, 19.0 ],
									"id" : "obj-8",
									"numinlets" : 2,
									"fontname" : "Verdana",
									"numoutlets" : 2
								}

							}
, 							{
								"box" : 								{
									"maxclass" : "newobj",
									"text" : "change",
									"outlettype" : [ "", "int", "int" ],
									"fontsize" : 10.0,
									"patching_rect" : [ 190.0, 127.0, 45.0, 19.0 ],
									"id" : "obj-9",
									"numinlets" : 1,
									"fontname" : "Verdana",
									"numoutlets" : 3
								}

							}
, 							{
								"box" : 								{
									"maxclass" : "outlet",
									"patching_rect" : [ 302.0, 265.0, 15.0, 15.0 ],
									"id" : "obj-10",
									"numinlets" : 1,
									"numoutlets" : 0,
									"comment" : ""
								}

							}
, 							{
								"box" : 								{
									"maxclass" : "newobj",
									"text" : "prepend max",
									"outlettype" : [ "" ],
									"fontsize" : 10.0,
									"patching_rect" : [ 331.0, 200.0, 75.0, 19.0 ],
									"id" : "obj-11",
									"numinlets" : 1,
									"fontname" : "Verdana",
									"numoutlets" : 1
								}

							}
, 							{
								"box" : 								{
									"maxclass" : "newobj",
									"text" : "i",
									"outlettype" : [ "int" ],
									"fontsize" : 10.0,
									"patching_rect" : [ 331.0, 174.0, 25.0, 19.0 ],
									"id" : "obj-12",
									"numinlets" : 2,
									"fontname" : "Verdana",
									"numoutlets" : 1
								}

							}
, 							{
								"box" : 								{
									"maxclass" : "newobj",
									"text" : "gate 2",
									"outlettype" : [ "", "" ],
									"fontsize" : 10.0,
									"patching_rect" : [ 14.0, 202.0, 96.0, 19.0 ],
									"id" : "obj-13",
									"numinlets" : 2,
									"fontname" : "Verdana",
									"numoutlets" : 2
								}

							}
, 							{
								"box" : 								{
									"maxclass" : "newobj",
									"text" : "prepend symbol",
									"outlettype" : [ "" ],
									"fontsize" : 10.0,
									"patching_rect" : [ 190.0, 58.0, 89.0, 19.0 ],
									"id" : "obj-14",
									"numinlets" : 1,
									"fontname" : "Verdana",
									"numoutlets" : 1
								}

							}
, 							{
								"box" : 								{
									"maxclass" : "newobj",
									"text" : "coll jcom.modules_instances 1",
									"outlettype" : [ "", "", "", "" ],
									"fontsize" : 10.0,
									"patching_rect" : [ 190.0, 80.0, 162.0, 19.0 ],
									"id" : "obj-15",
									"numinlets" : 1,
									"fontname" : "Verdana",
									"numoutlets" : 4,
									"save" : [ "#N", "coll", "jcom.modules_instances", 1, ";" ],
									"saved_object_attributes" : 									{
										"embed" : 0
									}

								}

							}
, 							{
								"box" : 								{
									"maxclass" : "newobj",
									"text" : "switch 2 1",
									"outlettype" : [ "" ],
									"fontsize" : 10.0,
									"patching_rect" : [ 14.0, 281.0, 96.0, 19.0 ],
									"id" : "obj-16",
									"numinlets" : 3,
									"fontname" : "Verdana",
									"numoutlets" : 1
								}

							}
, 							{
								"box" : 								{
									"maxclass" : "newobj",
									"text" : "+ 1",
									"outlettype" : [ "int" ],
									"fontsize" : 10.0,
									"patching_rect" : [ 190.0, 152.0, 27.0, 19.0 ],
									"id" : "obj-17",
									"numinlets" : 2,
									"fontname" : "Verdana",
									"numoutlets" : 1
								}

							}
, 							{
								"box" : 								{
									"maxclass" : "newobj",
									"text" : "sprintf %s",
									"outlettype" : [ "" ],
									"fontsize" : 10.0,
									"patching_rect" : [ 14.0, 237.0, 60.0, 19.0 ],
									"id" : "obj-18",
									"numinlets" : 1,
									"fontname" : "Verdana",
									"numoutlets" : 1
								}

							}
, 							{
								"box" : 								{
									"maxclass" : "newobj",
									"text" : "t b i",
									"outlettype" : [ "bang", "int" ],
									"fontsize" : 10.0,
									"patching_rect" : [ 134.0, 202.0, 42.0, 19.0 ],
									"id" : "obj-19",
									"numinlets" : 1,
									"fontname" : "Verdana",
									"numoutlets" : 2
								}

							}
, 							{
								"box" : 								{
									"maxclass" : "newobj",
									"text" : "> 0",
									"outlettype" : [ "int" ],
									"fontsize" : 10.0,
									"patching_rect" : [ 190.0, 105.0, 27.0, 19.0 ],
									"id" : "obj-20",
									"numinlets" : 2,
									"fontname" : "Verdana",
									"numoutlets" : 1
								}

							}
, 							{
								"box" : 								{
									"maxclass" : "newobj",
									"text" : "sprintf %s.%s",
									"outlettype" : [ "" ],
									"fontsize" : 10.0,
									"patching_rect" : [ 100.0, 236.0, 80.0, 19.0 ],
									"id" : "obj-21",
									"numinlets" : 2,
									"fontname" : "Verdana",
									"numoutlets" : 1
								}

							}
, 							{
								"box" : 								{
									"maxclass" : "inlet",
									"outlettype" : [ "int" ],
									"patching_rect" : [ 134.0, 184.0, 13.0, 13.0 ],
									"id" : "obj-22",
									"numinlets" : 0,
									"numoutlets" : 1,
									"comment" : ""
								}

							}
, 							{
								"box" : 								{
									"maxclass" : "newobj",
									"text" : "t 1 b",
									"outlettype" : [ "int", "bang" ],
									"fontsize" : 10.0,
									"patching_rect" : [ 302.0, 153.0, 39.0, 19.0 ],
									"id" : "obj-23",
									"numinlets" : 1,
									"fontname" : "Verdana",
									"numoutlets" : 2
								}

							}
, 							{
								"box" : 								{
									"maxclass" : "outlet",
									"patching_rect" : [ 14.0, 326.0, 15.0, 15.0 ],
									"id" : "obj-24",
									"numinlets" : 1,
									"numoutlets" : 0,
									"comment" : ""
								}

							}
, 							{
								"box" : 								{
									"maxclass" : "inlet",
									"outlettype" : [ "" ],
									"patching_rect" : [ 100.0, 24.0, 15.0, 15.0 ],
									"id" : "obj-25",
									"numinlets" : 0,
									"numoutlets" : 1,
									"comment" : ""
								}

							}
 ],
						"lines" : [ 							{
								"patchline" : 								{
									"source" : [ "obj-3", 1 ],
									"destination" : [ "obj-2", 1 ],
									"hidden" : 0,
									"midpoints" : [  ]
								}

							}
, 							{
								"patchline" : 								{
									"source" : [ "obj-2", 0 ],
									"destination" : [ "obj-1", 0 ],
									"hidden" : 0,
									"midpoints" : [  ]
								}

							}
, 							{
								"patchline" : 								{
									"source" : [ "obj-3", 0 ],
									"destination" : [ "obj-2", 0 ],
									"hidden" : 0,
									"midpoints" : [  ]
								}

							}
, 							{
								"patchline" : 								{
									"source" : [ "obj-20", 0 ],
									"destination" : [ "obj-3", 0 ],
									"hidden" : 0,
									"midpoints" : [ 199.5, 125.0, 422.5, 125.0 ]
								}

							}
, 							{
								"patchline" : 								{
									"source" : [ "obj-5", 1 ],
									"destination" : [ "obj-4", 0 ],
									"hidden" : 0,
									"midpoints" : [  ]
								}

							}
, 							{
								"patchline" : 								{
									"source" : [ "obj-15", 0 ],
									"destination" : [ "obj-12", 1 ],
									"hidden" : 0,
									"midpoints" : [ 199.5, 101.0, 346.5, 101.0 ]
								}

							}
, 							{
								"patchline" : 								{
									"source" : [ "obj-12", 0 ],
									"destination" : [ "obj-11", 0 ],
									"hidden" : 0,
									"midpoints" : [  ]
								}

							}
, 							{
								"patchline" : 								{
									"source" : [ "obj-23", 1 ],
									"destination" : [ "obj-12", 0 ],
									"hidden" : 0,
									"midpoints" : [  ]
								}

							}
, 							{
								"patchline" : 								{
									"source" : [ "obj-11", 0 ],
									"destination" : [ "obj-10", 0 ],
									"hidden" : 0,
									"midpoints" : [ 340.5, 255.0, 311.0, 255.0 ]
								}

							}
, 							{
								"patchline" : 								{
									"source" : [ "obj-6", 0 ],
									"destination" : [ "obj-10", 0 ],
									"hidden" : 0,
									"midpoints" : [  ]
								}

							}
, 							{
								"patchline" : 								{
									"source" : [ "obj-23", 0 ],
									"destination" : [ "obj-6", 0 ],
									"hidden" : 0,
									"midpoints" : [  ]
								}

							}
, 							{
								"patchline" : 								{
									"source" : [ "obj-8", 0 ],
									"destination" : [ "obj-23", 0 ],
									"hidden" : 0,
									"midpoints" : [  ]
								}

							}
, 							{
								"patchline" : 								{
									"source" : [ "obj-20", 0 ],
									"destination" : [ "obj-8", 0 ],
									"hidden" : 0,
									"midpoints" : [ 199.5, 125.0, 311.5, 125.0 ]
								}

							}
, 							{
								"patchline" : 								{
									"source" : [ "obj-9", 0 ],
									"destination" : [ "obj-17", 0 ],
									"hidden" : 0,
									"midpoints" : [  ]
								}

							}
, 							{
								"patchline" : 								{
									"source" : [ "obj-7", 0 ],
									"destination" : [ "obj-9", 0 ],
									"hidden" : 0,
									"midpoints" : [ 229.5, 124.0, 199.5, 124.0 ]
								}

							}
, 							{
								"patchline" : 								{
									"source" : [ "obj-20", 0 ],
									"destination" : [ "obj-9", 0 ],
									"hidden" : 0,
									"midpoints" : [  ]
								}

							}
, 							{
								"patchline" : 								{
									"source" : [ "obj-15", 0 ],
									"destination" : [ "obj-20", 0 ],
									"hidden" : 0,
									"midpoints" : [  ]
								}

							}
, 							{
								"patchline" : 								{
									"source" : [ "obj-14", 0 ],
									"destination" : [ "obj-15", 0 ],
									"hidden" : 0,
									"midpoints" : [  ]
								}

							}
, 							{
								"patchline" : 								{
									"source" : [ "obj-25", 0 ],
									"destination" : [ "obj-14", 0 ],
									"hidden" : 0,
									"midpoints" : [  ]
								}

							}
, 							{
								"patchline" : 								{
									"source" : [ "obj-19", 1 ],
									"destination" : [ "obj-21", 1 ],
									"hidden" : 0,
									"midpoints" : [  ]
								}

							}
, 							{
								"patchline" : 								{
									"source" : [ "obj-23", 0 ],
									"destination" : [ "obj-21", 1 ],
									"hidden" : 0,
									"midpoints" : [ 311.5, 225.0, 170.5, 225.0 ]
								}

							}
, 							{
								"patchline" : 								{
									"source" : [ "obj-22", 0 ],
									"destination" : [ "obj-19", 0 ],
									"hidden" : 0,
									"midpoints" : [  ]
								}

							}
, 							{
								"patchline" : 								{
									"source" : [ "obj-21", 0 ],
									"destination" : [ "obj-16", 2 ],
									"hidden" : 0,
									"midpoints" : [  ]
								}

							}
, 							{
								"patchline" : 								{
									"source" : [ "obj-13", 1 ],
									"destination" : [ "obj-21", 0 ],
									"hidden" : 0,
									"midpoints" : [  ]
								}

							}
, 							{
								"patchline" : 								{
									"source" : [ "obj-19", 0 ],
									"destination" : [ "obj-21", 0 ],
									"hidden" : 0,
									"midpoints" : [  ]
								}

							}
, 							{
								"patchline" : 								{
									"source" : [ "obj-25", 0 ],
									"destination" : [ "obj-13", 1 ],
									"hidden" : 0,
									"midpoints" : [  ]
								}

							}
, 							{
								"patchline" : 								{
									"source" : [ "obj-18", 0 ],
									"destination" : [ "obj-16", 1 ],
									"hidden" : 0,
									"midpoints" : [  ]
								}

							}
, 							{
								"patchline" : 								{
									"source" : [ "obj-5", 0 ],
									"destination" : [ "obj-24", 0 ],
									"hidden" : 0,
									"midpoints" : [  ]
								}

							}
, 							{
								"patchline" : 								{
									"source" : [ "obj-16", 0 ],
									"destination" : [ "obj-5", 0 ],
									"hidden" : 0,
									"midpoints" : [  ]
								}

							}
, 							{
								"patchline" : 								{
									"source" : [ "obj-17", 0 ],
									"destination" : [ "obj-16", 0 ],
									"hidden" : 0,
									"midpoints" : [ 199.5, 270.0, 23.5, 270.0 ]
								}

							}
, 							{
								"patchline" : 								{
									"source" : [ "obj-13", 0 ],
									"destination" : [ "obj-18", 0 ],
									"hidden" : 0,
									"midpoints" : [  ]
								}

							}
, 							{
								"patchline" : 								{
									"source" : [ "obj-17", 0 ],
									"destination" : [ "obj-13", 0 ],
									"hidden" : 0,
									"midpoints" : [  ]
								}

							}
 ]
					}
,
					"saved_object_attributes" : 					{
						"fontface" : 0,
						"fontsize" : 10.0,
						"default_fontface" : 0,
						"fontname" : "Verdana",
						"default_fontname" : "Verdana",
						"globalpatchername" : "",
						"default_fontsize" : 10.0
					}

				}

			}
, 			{
				"box" : 				{
					"maxclass" : "comment",
					"text" : "also analyzes the number of instantiated modules of the same type",
					"linecount" : 2,
					"fontsize" : 10.0,
					"patching_rect" : [ 555.0, 63.0, 243.0, 31.0 ],
					"id" : "obj-36",
					"numinlets" : 1,
					"fontname" : "Verdana",
					"numoutlets" : 0
				}

			}
 ],
		"lines" : [ 			{
				"patchline" : 				{
					"source" : [ "obj-35", 0 ],
					"destination" : [ "obj-17", 0 ],
					"hidden" : 1,
					"midpoints" : [ 396.5, 151.0, 672.5, 151.0 ]
				}

			}
, 			{
				"patchline" : 				{
					"source" : [ "obj-9", 0 ],
					"destination" : [ "obj-17", 0 ],
					"hidden" : 1,
					"midpoints" : [ 672.5, 243.0, 672.5, 243.0 ]
				}

			}
, 			{
				"patchline" : 				{
					"source" : [ "obj-19", 1 ],
					"destination" : [ "obj-9", 0 ],
					"hidden" : 1,
					"midpoints" : [ 723.0, 222.0, 672.5, 222.0 ]
				}

			}
, 			{
				"patchline" : 				{
					"source" : [ "obj-13", 0 ],
					"destination" : [ "obj-19", 0 ],
					"hidden" : 1,
					"midpoints" : [  ]
				}

			}
, 			{
				"patchline" : 				{
					"source" : [ "obj-35", 2 ],
					"destination" : [ "obj-19", 0 ],
					"hidden" : 1,
					"midpoints" : [ 457.166656, 177.0, 672.5, 177.0 ]
				}

			}
, 			{
				"patchline" : 				{
					"source" : [ "obj-27", 0 ],
					"destination" : [ "obj-13", 0 ],
					"hidden" : 1,
					"midpoints" : [  ]
				}

			}
, 			{
				"patchline" : 				{
					"source" : [ "obj-35", 0 ],
					"destination" : [ "obj-27", 0 ],
					"hidden" : 1,
					"midpoints" : [ 396.5, 151.0, 672.5, 151.0 ]
				}

			}
, 			{
				"patchline" : 				{
					"source" : [ "obj-35", 0 ],
					"destination" : [ "obj-18", 0 ],
					"hidden" : 1,
					"midpoints" : [ 396.5, 151.0, 520.5, 151.0 ]
				}

			}
, 			{
				"patchline" : 				{
					"source" : [ "obj-35", 3 ],
					"destination" : [ "obj-8", 0 ],
					"hidden" : 1,
					"midpoints" : [  ]
				}

			}
, 			{
				"patchline" : 				{
					"source" : [ "obj-10", 0 ],
					"destination" : [ "obj-18", 0 ],
					"hidden" : 1,
					"midpoints" : [  ]
				}

			}
, 			{
				"patchline" : 				{
					"source" : [ "obj-20", 1 ],
					"destination" : [ "obj-10", 0 ],
					"hidden" : 1,
					"midpoints" : [ 571.0, 220.0, 520.5, 220.0 ]
				}

			}
, 			{
				"patchline" : 				{
					"source" : [ "obj-14", 0 ],
					"destination" : [ "obj-20", 0 ],
					"hidden" : 1,
					"midpoints" : [  ]
				}

			}
, 			{
				"patchline" : 				{
					"source" : [ "obj-35", 2 ],
					"destination" : [ "obj-20", 0 ],
					"hidden" : 1,
					"midpoints" : [ 457.166656, 198.0, 520.5, 198.0 ]
				}

			}
, 			{
				"patchline" : 				{
					"source" : [ "obj-28", 0 ],
					"destination" : [ "obj-14", 0 ],
					"hidden" : 1,
					"midpoints" : [  ]
				}

			}
, 			{
				"patchline" : 				{
					"source" : [ "obj-35", 0 ],
					"destination" : [ "obj-28", 0 ],
					"hidden" : 1,
					"midpoints" : [ 396.5, 151.0, 520.5, 151.0 ]
				}

			}
, 			{
				"patchline" : 				{
					"source" : [ "obj-22", 0 ],
					"destination" : [ "obj-35", 1 ],
					"hidden" : 1,
					"midpoints" : [  ]
				}

			}
, 			{
				"patchline" : 				{
					"source" : [ "obj-35", 0 ],
					"destination" : [ "obj-30", 0 ],
					"hidden" : 1,
					"midpoints" : [ 396.5, 151.0, 366.5, 151.0 ]
				}

			}
, 			{
				"patchline" : 				{
					"source" : [ "obj-35", 1 ],
					"destination" : [ "obj-22", 0 ],
					"hidden" : 1,
					"midpoints" : [  ]
				}

			}
, 			{
				"patchline" : 				{
					"source" : [ "obj-1", 1 ],
					"destination" : [ "obj-35", 0 ],
					"hidden" : 1,
					"midpoints" : [  ]
				}

			}
, 			{
				"patchline" : 				{
					"source" : [ "obj-9", 1 ],
					"destination" : [ "obj-16", 0 ],
					"hidden" : 1,
					"midpoints" : [ 713.5, 284.0, 366.5, 284.0 ]
				}

			}
, 			{
				"patchline" : 				{
					"source" : [ "obj-10", 1 ],
					"destination" : [ "obj-16", 0 ],
					"hidden" : 1,
					"midpoints" : [ 561.5, 284.0, 366.5, 284.0 ]
				}

			}
, 			{
				"patchline" : 				{
					"source" : [ "obj-12", 1 ],
					"destination" : [ "obj-16", 0 ],
					"hidden" : 1,
					"midpoints" : [ 409.5, 284.0, 366.5, 284.0 ]
				}

			}
, 			{
				"patchline" : 				{
					"source" : [ "obj-11", 0 ],
					"destination" : [ "obj-16", 0 ],
					"hidden" : 1,
					"midpoints" : [  ]
				}

			}
, 			{
				"patchline" : 				{
					"source" : [ "obj-17", 0 ],
					"destination" : [ "obj-11", 0 ],
					"hidden" : 1,
					"midpoints" : [ 672.5, 261.0, 366.5, 261.0 ]
				}

			}
, 			{
				"patchline" : 				{
					"source" : [ "obj-18", 0 ],
					"destination" : [ "obj-11", 0 ],
					"hidden" : 1,
					"midpoints" : [ 520.5, 261.0, 366.5, 261.0 ]
				}

			}
, 			{
				"patchline" : 				{
					"source" : [ "obj-30", 0 ],
					"destination" : [ "obj-11", 0 ],
					"hidden" : 1,
					"midpoints" : [  ]
				}

			}
, 			{
				"patchline" : 				{
					"source" : [ "obj-12", 0 ],
					"destination" : [ "obj-30", 0 ],
					"hidden" : 0,
					"midpoints" : [  ]
				}

			}
, 			{
				"patchline" : 				{
					"source" : [ "obj-21", 1 ],
					"destination" : [ "obj-12", 0 ],
					"hidden" : 1,
					"midpoints" : [ 419.5, 220.0, 366.5, 220.0 ]
				}

			}
, 			{
				"patchline" : 				{
					"source" : [ "obj-15", 0 ],
					"destination" : [ "obj-21", 0 ],
					"hidden" : 1,
					"midpoints" : [  ]
				}

			}
, 			{
				"patchline" : 				{
					"source" : [ "obj-35", 2 ],
					"destination" : [ "obj-21", 0 ],
					"hidden" : 1,
					"midpoints" : [ 457.166656, 177.0, 366.5, 177.0 ]
				}

			}
, 			{
				"patchline" : 				{
					"source" : [ "obj-29", 0 ],
					"destination" : [ "obj-15", 0 ],
					"hidden" : 1,
					"midpoints" : [  ]
				}

			}
, 			{
				"patchline" : 				{
					"source" : [ "obj-35", 0 ],
					"destination" : [ "obj-29", 0 ],
					"hidden" : 1,
					"midpoints" : [ 396.5, 151.0, 366.5, 151.0 ]
				}

			}
, 			{
				"patchline" : 				{
					"source" : [ "obj-24", 0 ],
					"destination" : [ "obj-1", 0 ],
					"hidden" : 1,
					"midpoints" : [  ]
				}

			}
, 			{
				"patchline" : 				{
					"source" : [ "obj-26", 2 ],
					"destination" : [ "obj-1", 0 ],
					"hidden" : 1,
					"midpoints" : [ 542.5, 104.0, 365.5, 104.0 ]
				}

			}
, 			{
				"patchline" : 				{
					"source" : [ "obj-26", 0 ],
					"destination" : [ "obj-24", 0 ],
					"hidden" : 1,
					"midpoints" : [  ]
				}

			}
, 			{
				"patchline" : 				{
					"source" : [ "obj-25", 0 ],
					"destination" : [ "obj-26", 0 ],
					"hidden" : 0,
					"midpoints" : [  ]
				}

			}
 ]
	}

}
