max v2;#N vpatcher 283 77 1345 759;#P origin 34 -27;#P window setfont "Sans Serif" 9.;#P message 512 423 14 196617 1;#P newex 512 403 53 196617 closebang;#P toggle 758 294 34 0;#P newex 484 61 29 196617 gate;#P newex 484 84 86 196617 print 0SC-OUT>>;#P newex 648 470 73 196617 r $0.toconf;#B color 5;#P newex 163 128 62 196617 s $0.toconf;#B color 5;#P newex 192 100 64 196617 prepend key;#P newex 119 99 67 196617 prepend port;#P newex 119 74 215 196617 jcom.oscroute /oscport /osckey /askconnect;#P button 69 346 58 14;#P newex 69 406 97 196617 s $0.before-save;#B color 14;#P toggle 290 40 15 0;#P message 351 449 118 196617 /connection/connect \$1;#P newex 351 417 129 196617 r $0.holo.spat.connected;#B color 5;#P newex 925 142 140 196617 s $0.holo.spat.connected;#B color 5;#P inlet 925 115 15 0;#P message 892 267 39 196617 set \$1;#P newex 582 130 91 196617 s $0.holo.edit;#B color 5;#P button 582 82 15 0;#P newex 582 106 161 196617 prepend /speaker/queryspeakers;#P newex 892 237 138 196617 r $0.holo.edit.connected;#B color 5;#P outlet 892 324 15 0;#P button 549 224 15 0;#P newex 329 25 66 196617 r OSC-debug;#B color 5;#P newex 308 138 29 196617 gate;#P comment 841 456 100 196617 >> Connection config;#P newex 828 546 62 196617 prepend set;#P newex 756 546 62 196617 prepend set;#P newex 684 546 62 196617 prepend set;#P newex 684 523 227 196617 route key service port;#P newex 648 493 46 196617 t b l;#P newex 771 477 288 196617 patcherargs @port 13008 @key /holospat @service holo.spat;#P newex 189 477 94 196617 r $0.get-hostname;#B color 5;#P newex 95 524 199 196617 sprintf %s@%s:%d;#P newex 189 497 113 196617 mxj holoedit.hostname;#P newex 203 428 27 196617 t b i;#P newex 95 570 36 196617 zl reg;#P newex 203 407 94 196617 r $0.holo.spat.port;#B color 5;#P newex 220 451 62 196617 prepend set;#P newex 95 595 73 196617 append 13008;#P newex 95 548 85 196617 prepend register;#P newex 95 437 101 196617 r $0.spat-osc-name;#B color 5;#P newex 95 618 59 196617 oscbonjour;#P newex 583 551 90 196617 s $0.get-hostname;#B color 5;#P newex 553 528 40 196617 t b b b;#P message 745 589 50 196617 13008;#P newex 745 613 103 196617 s $0.holo.spat.port;#B color 5;#P newex 771 451 48 196617 loadbang;#P message 640 588 50 196617 holo.spat;#P newex 640 614 112 196617 s $0.spat-osc-name;#B color 5;#P message 544 590 53 196617 /holospat;#P newex 544 614 104 196617 s $0.holo.spat.key;#B color 5;#P newex 26 43 72 196617 r $0.holo.edit;#B color 5;#P inlet 119 43 15 0;#P outlet 693 294 15 0;#P newex 308 161 97 196617 print OSC-IN<<<<<<;#N vpatcher 176 377 511 671;#P window setfont "Sans Serif" 9.;#P window linecount 1;#N vpatcher 473 182 1097 614;#P origin -924 -117;#P window setfont "Sans Serif" 9.;#P window linecount 0;#P newex 431 272 27 196617 + 1;#P newex 431 246 53 196617 maximum;#P newex 431 168 30 196617 t b b;#P window linecount 1;#P newex 431 220 46 196617 zl group;#P newex 515 193 63 196617 r $0.tk-i-exists;#B color 5;#P newex 451 194 60 196617 s $0.tk-exists;#B color 5;#P window linecount 0;#P message 338 24 121 196617 9 10 11 12 13 14 15 16;#P newex 62 165 32 196617 sel 1;#P newex 62 144 27 196617 > 8;#P newex 62 123 53 196617 maximum;#P message 62 185 160 196617 window flags grow \, window exec;#P newex 163 236 27 196617 % 8;#P newex 158 285 45 196617 zl join;#P newex 210 259 38 196617 * 360;#P newex 214 232 27 196617 / 8;#N vpatcher 10 59 277 250;#P window setfont "Sans Serif" 9.;#P window linecount 0;#P newex 20 80 27 196617 t b l;#P window linecount 2;#P message 20 102 60 196617 \; 6init bang;#P window linecount 1;#P newex 20 58 126 196617 sprintf set \\\; %dinit bang;#P newex 20 36 49 196617 pipe 500;#P inlet 20 16 15 0;#P connect 0 0 1 0;#P connect 1 0 2 0;#P connect 2 0 4 0;#P fasten 4 1 3 0 42 99 25 99;#P connect 4 0 3 0;#P pop;#P newobj 84 236 63 196617 p init_track;#P message 253 24 79 196617 1 2 3 4 5 6 7 8;#P message 220 167 14 196617 1;#P newex 293 143 21 196617 t 0;#P newex 241 165 47 196617 gate 1 1;#P newex 278 101 40 196617 t i i 1;#P newex 293 122 40 196617 zl sect;#P newex 323 100 46 196617 zl group;#P newex 431 71 63 196617 r $0.tk-i-exists;#B color 5;#P newex 368 71 60 196617 s $0.tk-exists;#B color 5;#P newex 233 49 190 196617 t l l b b b;#P newex 158 208 27 196617 - 1;#P message 158 335 290 196617 new \$3 bpatcher \$1 \$2 91 359 0 0 tranche-DSP.pat 0 \$4 p08;#P newex 111 260 92 196617 expr 90 + $i1*90;#P newex 158 310 45 196617 zl join;#P newex 158 382 77 196617 s $0.mixer-script;#B color 5;#P newex 158 357 77 196617 prepend script;#P newex 255 249 67 196617 sprintf tk%d;#P newex 255 270 39 196617 zl join;#P newex 241 186 39 196617 t i i i;#P newex 278 77 25 196617 iter;#P comment 291 168 65 196617 !!! at least 1;#P inlet 233 24 15 0;#P window linecount 1;#P newex 431 146 62 196617 r $0.newTrack;#B color 5;#P fasten 13 0 29 0 238 94 67 94;#P connect 29 0 30 0;#P connect 30 0 31 0;#P connect 31 0 28 0;#P fasten 4 0 23 0 246 205 89 205;#P connect 27 0 10 0;#P fasten 4 0 12 0 246 205 163 205;#P connect 10 0 26 0;#P connect 26 0 9 0;#P connect 9 0 11 0;#P connect 11 0 7 0;#P connect 7 0 8 0;#P fasten 28 0 8 0 67 377 163 377;#P connect 12 0 27 0;#P connect 25 0 26 1;#P fasten 5 0 9 1 260 305 198 305;#P connect 24 0 25 0;#P connect 12 0 24 0;#P fasten 1 0 13 0 238 44 238 44;#P fasten 22 0 13 0 258 44 238 44;#P fasten 32 0 13 0 343 44 238 44;#P connect 38 0 13 0;#P fasten 20 0 19 0 298 162 246 162;#P fasten 18 2 19 0 313 131 246 131;#P fasten 21 0 4 0 225 184 246 184;#P connect 19 0 4 0;#P connect 4 1 6 0;#P connect 6 0 5 0;#P connect 13 1 3 0;#P connect 3 0 18 0;#P connect 18 0 19 1;#P fasten 4 2 5 1 274 231 289 231;#P connect 18 1 17 0;#P connect 17 0 20 0;#P fasten 15 0 16 0 436 94 328 94;#P connect 13 2 16 0;#P fasten 13 4 16 0 418 94 328 94;#P connect 16 0 17 1;#P connect 13 3 14 0;#P connect 0 0 36 0;#P fasten 34 0 35 0 520 216 436 216;#P connect 36 0 35 0;#P connect 35 0 37 0;#P connect 37 0 38 0;#P connect 36 1 33 0;#P pop;#P newobj 135 150 37 196617 p tknb;#P newex 49 123 182 196617 OSC-route /tracknum /tracklist;#P outlet 148 98 15 0;#P window linecount 0;#P newex 49 65 109 196617 OSC-route /config;#P inlet 49 44 15 0;#P connect 0 0 1 0;#P connect 1 0 3 0;#P connect 1 1 2 0;#P pop;#P newobj 815 160 69 196617 p OSC-Config;#N vpatcher 159 290 405 472;#P outlet 140 124 15 0;#P window setfont "Sans Serif" 9.;#P newex 49 93 114 196617 s $0.holoedit.speakers.osc;#B color 5;#P newex 49 65 101 196617 OSC-route /speaker;#P inlet 49 44 15 0;#P connect 0 0 1 0;#P connect 1 0 2 0;#P connect 1 1 3 0;#P pop;#P newobj 814 137 82 196617 p OSC-Speakers;#N vpatcher 176 377 418 569;#P window setfont "Sans Serif" 9.;#P message 87 39 95 196617 /track/*/cue 101;#P outlet 134 126 15 0;#P newex 49 93 103 196617 s $0.holoedit.tracks.osc;#B color 5;#P newex 49 65 96 196617 OSC-route /track;#P inlet 49 44 15 0;#P connect 0 0 1 0;#P connect 4 0 1 0;#P connect 1 0 2 0;#P connect 1 1 3 0;#P pop;#P newobj 814 82 72 196617 p OSC-Tracks;#N vpatcher 582 376 1415 890;#P origin 34 0;#P outlet 774 354 15 0;#P inlet 91 28 15 0;#P window setfont "Sans Serif" 9.;#P newex 91 59 109 196617 OSC-route /transport;#P newex 90 311 40 196617 change;#P newex 90 288 62 196617 mousefilter;#P newex 211 311 40 196617 change;#P newex 211 288 62 196617 mousefilter;#P newex 211 265 84 196617 sw holo.endTime;#B color 5;#P newex 90 265 92 196617 sw holo.beginTime;#B color 5;#P message 463 295 98 196617 /transport/resume;#P newex 448 271 41 196617 sel 1 0;#P message 331 222 14 196617 1;#P message 38 235 121 196617 /transport/totaltime \$1;#P message 642 252 100 196617 /transport/position;#P newex 38 193 90 196617 sw holo.totalTime;#B color 5;#P newex 91 102 172 196617 OSC-route /time /total /begin /end;#P newex 703 208 68 196617 r holo.update;#B color 5;#P newex 642 163 72 196617 r holo.preload;#B color 5;#P newex 448 250 72 196617 sw holo.pause;#B color 5;#P newex 380 249 66 196617 sw holo.stop;#B color 5;#P newex 565 268 77 196617 sw holo.record;#B color 5;#P message 565 290 110 196617 /transport/record \$1;#P newex 91 125 59 196617 s holo.time;#B color 5;#P newex 331 251 66 196617 sw holo.play;#B color 5;#P message 703 232 94 196617 /transport/update;#P message 655 187 98 196617 /soundpool/preload;#P message 526 246 98 196617 /transport/loop \$1;#P message 211 334 115 196617 /transport/endtime \$1;#P message 380 275 84 196617 /transport/stop;#P message 448 319 90 196617 /transport/pause;#P message 331 294 84 196617 /transport/play;#P newex 257 384 72 196617 s $0.holo.edit;#B color 5;#P newex 526 222 65 196617 sw holo.loop;#B color 5;#P message 487 224 14 196617 0;#P message 448 226 14 196617 1;#P newex 331 103 326 196617 OSC-route /play /stop /jump /pause /resume /loop /record /looping;#P newex 331 273 32 196617 sel 1;#P message 90 334 115 196617 /transport/begtime \$1;#P fasten 22 1 23 0 136 164 43 164;#P connect 23 0 25 0;#P fasten 22 2 29 0 176 253 95 253;#P connect 29 0 33 0;#P connect 33 0 34 0;#P connect 34 0 0 0;#P connect 36 0 35 0;#P connect 35 0 22 0;#P connect 22 0 15 0;#P connect 22 3 30 0;#P connect 30 0 31 0;#P connect 31 0 32 0;#P connect 32 0 10 0;#P fasten 10 0 6 0 216 361 262 361;#P fasten 0 0 6 0 95 361 262 361;#P fasten 25 0 6 0 43 361 262 361;#P fasten 13 0 6 0 708 361 262 361;#P fasten 24 0 6 0 647 361 262 361;#P fasten 7 0 6 0 336 361 262 361;#P fasten 8 0 6 0 453 361 262 361;#P fasten 9 0 6 0 385 361 262 361;#P fasten 11 0 6 0 531 361 262 361;#P fasten 12 0 6 0 660 361 262 361;#P fasten 16 0 6 0 570 361 262 361;#P fasten 28 0 6 0 468 361 262 361;#P fasten 22 4 2 0 256 126 297 126 297 95 336 95;#P connect 2 0 26 0;#P connect 26 0 14 0;#P connect 14 0 1 0;#P connect 1 0 7 0;#P fasten 2 2 18 0 414 185 385 185;#P fasten 2 1 18 0 375 185 385 185;#P connect 18 0 9 0;#P connect 2 3 3 0;#P connect 3 0 19 0;#P fasten 4 0 19 0 492 244 453 244;#P connect 19 0 27 0;#P connect 27 0 8 0;#P connect 27 1 28 0;#P connect 2 4 4 0;#P connect 2 5 5 0;#P connect 5 0 11 0;#P connect 2 6 17 0;#P connect 17 0 16 0;#P connect 20 0 24 0;#P fasten 20 0 12 0 647 182 660 182;#P connect 21 0 13 0;#P fasten 35 1 37 0 195 87 779 87;#P pop;#P newobj 693 250 107 196617 p OSC-transport-msg;#P comment 447 117 100 196617 >> From HoloEdit;#P newex 346 181 328 196617 OSC-route /*/connection/holoedit /*/connection/holospat/querykey;#P newex 169 277 78 196617 route host port;#P newex 346 92 67 196617 prepend port;#P newex 346 69 100 196617 r $0.holo.spat.port;#B color 5;#P newex 203 300 102 196617 sw $0.holo.edit.port;#B color 5;#P newex 169 300 91 196617 sw $0.holo.edit.ip;#B color 5;#P newex 346 315 21 196617 t 1;#P newex 346 338 95 196617 s $0.holo.control;#B color 5;#P message 26 121 77 196617 /holoedit;#P newex 203 327 67 196617 prepend port;#P newex 52 242 51 196617 zl slice 1;#P newex 52 222 118 196617 r $0.holo.edit.address;#B color 5;#P newex 494 371 118 196617 s $0.holo.edit.address;#B color 5;#P newex 314 361 127 196617 s $0.holo.edit.connected;#B color 5;#P newex 169 208 106 196617 r $0.holo.edit.name;#B color 5;#P newex 440 260 106 196617 s $0.holo.edit.name;#B color 5;#P newex 169 230 82 196617 prepend resolve;#P newex 169 252 59 196617 oscbonjour;#P newex 693 141 112 196617 r $0.holo.spat.key;#B color 5;#P newex 693 162 71 196617 prepend set 1;#P newex 560 245 104 196617 r $0.holo.spat.key;#B color 5;#P message 549 292 53 196617 /holospat;#P newex 560 266 62 196617 prepend set;#P newex 346 292 32 196617 sel 1;#P newex 305 390 156 196617 loadmess /connection/connect 1;#P newex 351 502 80 196617 s $0.holo.edit;#B color 5;#P newex 549 313 123 196617 prepend /connection/key;#P newex 549 338 67 196617 s $0.holo.edit;#B color 5;#P newex 393 282 99 196617 s $0.holo.edit.key;#B color 5;#P newex 26 74 91 196617 r $0.holo.edit.key;#B color 5;#P newex 26 95 62 196617 prepend set;#P newex 346 223 201 196617 OSC-route /connect /key /name /address;#P newex 693 212 103 196617 OSC-route /holospat;#P newex 346 114 92 196617 udpreceive 13008;#B color 14;#P newex 157 361 120 196617 udpsend localhost 13005;#B color 14;#P newex 169 325 67 196617 prepend host;#P comment 157 382 100 196617 >> To HoloEdit;#P newex 157 186 141 196617 js OSC-unroute2.js /holoedit;#P connect 8 0 7 0;#P connect 7 0 29 0;#P connect 26 0 27 0;#P connect 89 0 88 0;#P fasten 63 0 65 0 208 471 100 471;#P connect 57 0 65 0;#P connect 65 0 58 0;#P connect 58 0 62 0;#P connect 62 0 59 0;#P fasten 60 0 59 0 225 591 100 591;#P connect 59 0 56 0;#P connect 45 0 90 0;#P connect 90 0 91 0;#P fasten 90 3 0 0 237 159 162 159;#P connect 46 0 0 0;#P connect 7 0 0 0;#P fasten 20 0 3 0 174 272 162 272;#P fasten 2 0 3 0 174 351 162 351;#P fasten 28 0 3 0 208 351 162 351;#P connect 0 0 3 0;#P fasten 91 0 93 0 124 122 168 122;#P fasten 92 0 93 0 197 122 168 122;#P connect 23 0 21 0;#P connect 21 0 20 0;#P connect 20 0 36 0;#P connect 36 0 32 0;#P fasten 27 0 32 0 57 297 174 297;#P connect 32 0 2 0;#P fasten 27 0 2 0 57 320 174 320;#P connect 66 0 64 0;#P connect 64 0 65 1;#P connect 90 1 92 0;#P connect 36 1 33 0;#P fasten 27 1 33 0 98 297 208 297;#P connect 33 0 28 0;#P fasten 27 1 28 0 98 320 208 320;#P connect 61 0 63 0;#P connect 63 1 60 0;#P fasten 63 1 65 2 225 448 288 448;#P connect 75 0 74 0;#P connect 87 0 74 0;#P connect 74 0 43 0;#P fasten 6 0 24 0 351 284 319 284;#P fasten 4 0 74 1 351 135 332 135;#P connect 34 0 35 0;#P connect 35 0 4 0;#P connect 4 0 37 0;#P connect 37 0 6 0;#P connect 6 0 14 0;#P connect 14 0 31 0;#P connect 31 0 30 0;#P fasten 97 0 86 0 763 441 356 441;#P connect 85 0 86 0;#P fasten 99 0 86 0 517 441 356 441;#P fasten 13 0 12 0 310 482 356 482;#P connect 86 0 12 0;#P connect 6 1 9 0;#P connect 6 2 22 0;#P connect 75 0 96 0;#P connect 96 0 95 0;#P fasten 6 3 25 0 492 348 499 348;#P fasten 45 0 96 1 124 65 508 65;#P connect 98 0 99 0;#P fasten 54 0 48 0 558 580 549 580;#P fasten 70 0 48 0 689 582 549 582;#P lcolor 10;#P connect 48 0 47 0;#P fasten 37 1 76 0 510 207 554 207;#P fasten 15 0 16 0 565 287 554 287;#P connect 76 0 16 0;#P connect 16 0 11 0;#P connect 11 0 10 0;#P fasten 68 0 54 0 653 514 558 514;#P connect 17 0 15 0;#P connect 80 0 79 0;#P connect 79 0 81 0;#P connect 54 2 55 0;#P fasten 54 1 50 0 573 578 645 578;#P fasten 71 0 50 0 761 580 645 580;#P lcolor 10;#P connect 50 0 49 0;#P connect 94 0 68 0;#P connect 68 1 69 0;#P connect 69 0 70 0;#P connect 19 0 18 0;#P connect 18 0 5 0;#P fasten 37 2 5 0 669 205 698 205;#P connect 5 0 39 0;#P connect 39 0 44 0;#P fasten 72 0 53 0 833 580 750 580;#P lcolor 10;#P fasten 54 1 53 0 573 578 750 578;#P connect 53 0 52 0;#P connect 69 1 71 0;#P fasten 82 0 97 0 897 289 823 283;#P fasten 90 2 97 0 317 256 448 207 668 233;#P connect 51 0 67 0;#P connect 69 2 72 0;#P connect 78 0 82 0;#P connect 82 0 77 0;#P connect 83 0 84 0;#P pop;