max v2;#N vpatcher 156 197 1279 688;#P origin 0 44;#P window setfont "Sans Serif" 9.;#P window linecount 1;#P comment 430 137 148 196617 9th Arg:max. mod. amplitude;#P comment 430 125 148 196617 8rd Arg:min. mod. amplitude;#P comment 429 114 148 196617 7th Arg:max. mod. frequency;#P comment 429 102 148 196617 6rd Arg:min. mod. frequency;#P toggle 698 239 15 0;#P objectname toggle16;#P newex 698 258 34 196617 mute~;#P toggle 663 239 15 0;#P objectname toggle15;#P newex 663 258 34 196617 mute~;#P toggle 628 239 15 0;#P objectname toggle14;#P newex 628 258 34 196617 mute~;#P toggle 593 239 15 0;#P objectname toggle13;#P newex 593 258 34 196617 mute~;#P toggle 556 239 15 0;#P objectname toggle12;#P newex 556 258 34 196617 mute~;#P toggle 515 239 15 0;#P objectname toggle11;#P newex 515 258 38 196617 mute~;#P toggle 474 239 15 0;#P objectname toggle10;#P newex 474 258 38 196617 mute~;#P toggle 433 239 15 0;#P objectname toggle9;#P newex 433 258 38 196617 mute~;#P toggle 392 239 15 0;#P objectname toggle8;#P newex 392 258 38 196617 mute~;#P toggle 351 239 15 0;#P objectname toggle7;#P newex 351 258 38 196617 mute~;#P toggle 310 239 15 0;#P objectname toggle6;#P newex 310 258 38 196617 mute~;#P toggle 270 239 15 0;#P objectname toggle5;#P newex 270 258 38 196617 mute~;#P toggle 228 239 15 0;#P objectname toggle4;#P newex 228 258 38 196617 mute~;#P toggle 186 239 15 0;#P objectname toggle3;#P newex 186 258 38 196617 mute~;#P toggle 134 239 15 0;#P objectname toggle2;#P newex 134 258 38 196617 mute~;#P toggle 85 239 15 0;#P objectname toggle1;#N vpatcher 224 271 824 671;#P window setfont "Sans Serif" 9.;#P window linecount 0;#N vpatcher 10 59 610 459;#P window setfont "Sans Serif" 9.;#P message 80 75 355 196617 script send toggle1 0 \, script send toggle2 0 \, script send toggle3 0 \, script send toggle4 0 \, script send toggle5 0 \, script send toggle6 0 \, script send toggle7 0 \, script send toggle8 0 \, script send toggle9 0 \, script send toggle10 0 \, script send toggle11 0 \, script send toggle12 0 \, script send toggle13 1 \, script send toggle14 1 \, script send toggle15 1 \, script send toggle16 1;#P inlet 80 31 15 0;#P outlet 70 233 15 0;#P connect 2 0 0 0;#P connect 1 0 2 0;#P pop;#P newobj 359 166 49 196617 p sel_12;#N vpatcher 10 59 610 459;#P window setfont "Sans Serif" 9.;#P message 80 75 355 196617 script send toggle1 0 \, script send toggle2 0 \, script send toggle3 0 \, script send toggle4 0 \, script send toggle5 0 \, script send toggle6 0 \, script send toggle7 0 \, script send toggle8 0 \, script send toggle9 1 \, script send toggle10 1 \, script send toggle11 1 \, script send toggle12 1 \, script send toggle13 1 \, script send toggle14 1 \, script send toggle15 1 \, script send toggle16 1;#P inlet 80 31 15 0;#P outlet 70 233 15 0;#P connect 2 0 0 0;#P connect 1 0 2 0;#P pop;#P newobj 270 167 43 196617 p sel_8;#N vpatcher 10 59 610 459;#P window setfont "Sans Serif" 9.;#P message 80 75 355 196617 script send toggle1 0 \, script send toggle2 0 \, script send toggle3 0 \, script send toggle4 0 \, script send toggle5 0 \, script send toggle6 1 \, script send toggle7 1 \, script send toggle8 1 \, script send toggle9 1 \, script send toggle10 1 \, script send toggle11 1 \, script send toggle12 1 \, script send toggle13 1 \, script send toggle14 1 \, script send toggle15 1 \, script send toggle16 1;#P inlet 80 31 15 0;#P outlet 70 233 15 0;#P connect 2 0 0 0;#P connect 1 0 2 0;#P pop;#P newobj 223 167 43 196617 p sel_5;#N vpatcher 10 59 610 459;#P window setfont "Sans Serif" 9.;#P message 80 75 355 196617 script send toggle1 0 \, script send toggle2 0 \, script send toggle3 0 \, script send toggle4 0 \, script send toggle5 1 \, script send toggle6 1 \, script send toggle7 1 \, script send toggle8 1 \, script send toggle9 1 \, script send toggle10 1 \, script send toggle11 1 \, script send toggle12 1 \, script send toggle13 1 \, script send toggle14 1 \, script send toggle15 1 \, script send toggle16 1;#P inlet 80 31 15 0;#P outlet 70 233 15 0;#P connect 2 0 0 0;#P connect 1 0 2 0;#P pop;#P newobj 177 167 43 196617 p sel_4;#N vpatcher 10 59 610 459;#P window setfont "Sans Serif" 9.;#P message 80 75 355 196617 script send toggle1 0 \, script send toggle2 0 \, script send toggle3 0 \, script send toggle4 1 \, script send toggle5 1 \, script send toggle6 1 \, script send toggle7 1 \, script send toggle8 1 \, script send toggle9 1 \, script send toggle10 1 \, script send toggle11 1 \, script send toggle12 1 \, script send toggle13 1 \, script send toggle14 1 \, script send toggle15 1 \, script send toggle16 1;#P inlet 80 31 15 0;#P outlet 70 233 15 0;#P connect 2 0 0 0;#P connect 1 0 2 0;#P pop;#P newobj 131 167 43 196617 p sel_3;#N vpatcher 10 59 610 459;#P window setfont "Sans Serif" 9.;#P message 80 75 355 196617 script send toggle1 0 \, script send toggle2 0 \, script send toggle3 1 \, script send toggle4 1 \, script send toggle5 1 \, script send toggle6 1 \, script send toggle7 1 \, script send toggle8 1 \, script send toggle9 1 \, script send toggle10 1 \, script send toggle11 1 \, script send toggle12 1 \, script send toggle13 1 \, script send toggle14 1 \, script send toggle15 1 \, script send toggle16 1;#P inlet 80 31 15 0;#P outlet 70 233 15 0;#P connect 2 0 0 0;#P connect 1 0 2 0;#P pop;#P newobj 85 165 43 196617 p sel_2;#P number 217 43 35 9 0 0 0 3 0 0 0 221 221 221 222 222 222 0 0 0;#N vpatcher 10 59 610 459;#P window setfont "Sans Serif" 9.;#P message 80 75 355 196617 script send toggle1 0 \, script send toggle2 0 \, script send toggle3 0 \, script send toggle4 0 \, script send toggle5 0 \, script send toggle6 0 \, script send toggle7 0 \, script send toggle8 0 \, script send toggle9 0 \, script send toggle10 0 \, script send toggle11 0 \, script send toggle12 0 \, script send toggle13 0 \, script send toggle14 0 \, script send toggle15 0 \, script send toggle16 0;#P inlet 80 31 15 0;#P outlet 70 233 15 0;#P connect 2 0 0 0;#P connect 1 0 2 0;#P pop;#P newobj 484 187 49 196617 p sel_16;#N vpatcher 10 59 610 459;#P window setfont "Sans Serif" 9.;#P message 80 75 355 196617 script send toggle1 0 \, script send toggle2 1 \, script send toggle3 1 \, script send toggle4 1 \, script send toggle5 1 \, script send toggle6 1 \, script send toggle7 1 \, script send toggle8 1 \, script send toggle9 1 \, script send toggle10 1 \, script send toggle11 1 \, script send toggle12 1 \, script send toggle13 1 \, script send toggle14 1 \, script send toggle15 1 \, script send toggle16 1;#P inlet 80 31 15 0;#P outlet 70 233 15 0;#P connect 2 0 0 0;#P connect 1 0 2 0;#P pop;#P newobj 39 166 43 196617 p sel_1;#P outlet 39 344 15 0;#P inlet 65 25 15 0;#P window linecount 1;#P newex 39 93 519 196617 sel 1 2 3 4 5 6 7 8 9 10 11 12 13 14 15 16;#P newex 50 50 116 196617 jcom.oscroute /outputs;#P connect 0 0 1 0;#P connect 6 0 1 0;#P connect 1 0 4 0;#P connect 4 0 3 0;#P connect 7 0 3 0;#P connect 8 0 3 0;#P connect 9 0 3 0;#P connect 10 0 3 0;#P connect 11 0 3 0;#P connect 12 0 3 0;#P connect 5 0 3 0;#P connect 2 0 0 0;#P connect 1 1 7 0;#P connect 1 2 8 0;#P connect 1 3 9 0;#P connect 1 4 10 0;#P connect 1 7 11 0;#P connect 1 11 12 0;#P connect 1 15 5 0;#P pop;#P newobj 26 78 87 196617 p muting_outputs;#N vpatcher 30 89 630 489;#P window setfont "Sans Serif" 9.;#P newex 50 50 36 196617 pass~;#P objectname pass[16];#P inlet 50 30 15 0;#P outlet 50 72 15 0;#P connect 1 0 2 0;#P connect 2 0 0 0;#P pop;#P newobj 690 293 30 196617 p;#N vpatcher 20 74 620 474;#P window setfont "Sans Serif" 9.;#P newex 50 50 36 196617 pass~;#P objectname pass[15];#P inlet 50 30 15 0;#P outlet 50 72 15 0;#P connect 1 0 2 0;#P connect 2 0 0 0;#P pop;#P newobj 648 293 30 196617 p;#N vpatcher 10 59 610 459;#P window setfont "Sans Serif" 9.;#P newex 50 50 36 196617 pass~;#P objectname pass[14];#P inlet 50 30 15 0;#P outlet 50 72 15 0;#P connect 1 0 2 0;#P connect 2 0 0 0;#P pop;#P newobj 614 293 30 196617 p;#N vpatcher 0 44 600 444;#P window setfont "Sans Serif" 9.;#P newex 50 50 36 196617 pass~;#P objectname pass[13];#P inlet 50 30 15 0;#P outlet 50 72 15 0;#P connect 1 0 2 0;#P connect 2 0 0 0;#P pop;#P newobj 576 293 30 196617 p;#N vpatcher 50 119 650 519;#P window setfont "Sans Serif" 9.;#P newex 50 50 36 196617 pass~;#P objectname pass[12];#P inlet 50 30 15 0;#P outlet 50 72 15 0;#P connect 1 0 2 0;#P connect 2 0 0 0;#P pop;#P newobj 538 293 30 196617 p;#N vpatcher 40 104 640 504;#P window setfont "Sans Serif" 9.;#P newex 50 50 36 196617 pass~;#P objectname pass[11];#P inlet 50 30 15 0;#P outlet 50 72 15 0;#P connect 1 0 2 0;#P connect 2 0 0 0;#P pop;#P newobj 500 293 30 196617 p;#N vpatcher 30 89 630 489;#P window setfont "Sans Serif" 9.;#P newex 50 50 36 196617 pass~;#P objectname pass[10];#P inlet 50 30 15 0;#P outlet 50 72 15 0;#P connect 1 0 2 0;#P connect 2 0 0 0;#P pop;#P newobj 462 293 30 196617 p;#N vpatcher 20 74 620 474;#P window setfont "Sans Serif" 9.;#P newex 50 50 36 196617 pass~;#P objectname pass[9];#P inlet 50 30 15 0;#P outlet 50 72 15 0;#P connect 1 0 2 0;#P connect 2 0 0 0;#P pop;#P newobj 424 293 30 196617 p;#N vpatcher 10 59 610 459;#P window setfont "Sans Serif" 9.;#P newex 50 50 36 196617 pass~;#P objectname pass[8];#P inlet 50 30 15 0;#P outlet 50 72 15 0;#P connect 1 0 2 0;#P connect 2 0 0 0;#P pop;#P newobj 386 293 30 196617 p;#N vpatcher 0 44 600 444;#P window setfont "Sans Serif" 9.;#P newex 50 50 36 196617 pass~;#P objectname pass[7];#P inlet 50 30 15 0;#P outlet 50 72 15 0;#P connect 1 0 2 0;#P connect 2 0 0 0;#P pop;#P newobj 345 293 30 196617 p;#N vpatcher 50 119 650 519;#P window setfont "Sans Serif" 9.;#P newex 50 50 36 196617 pass~;#P objectname pass[6];#P inlet 50 30 15 0;#P outlet 50 72 15 0;#P connect 1 0 2 0;#P connect 2 0 0 0;#P pop;#P newobj 310 293 30 196617 p;#N vpatcher 40 104 640 504;#P window setfont "Sans Serif" 9.;#P newex 50 50 36 196617 pass~;#P objectname pass[5];#P inlet 50 30 15 0;#P outlet 50 72 15 0;#P connect 1 0 2 0;#P connect 2 0 0 0;#P pop;#P newobj 272 293 30 196617 p;#N vpatcher 30 89 630 489;#P window setfont "Sans Serif" 9.;#P newex 50 50 36 196617 pass~;#P objectname pass[4];#P inlet 50 30 15 0;#P outlet 50 72 15 0;#P connect 1 0 2 0;#P connect 2 0 0 0;#P pop;#P newobj 234 293 30 196617 p;#N vpatcher 20 74 620 474;#P window setfont "Sans Serif" 9.;#P newex 50 50 36 196617 pass~;#P objectname pass[3];#P inlet 50 30 15 0;#P outlet 50 72 15 0;#P connect 1 0 2 0;#P connect 2 0 0 0;#P pop;#P newobj 196 293 30 196617 p;#N vpatcher 10 59 610 459;#P window setfont "Sans Serif" 9.;#P newex 50 50 36 196617 pass~;#P objectname pass[2];#P inlet 50 30 15 0;#P outlet 50 72 15 0;#P connect 1 0 2 0;#P connect 2 0 0 0;#P pop;#P newobj 158 293 30 196617 p;#N vpatcher 10 59 610 459;#P window setfont "Sans Serif" 9.;#P newex 50 50 36 196617 pass~;#P objectname pass[1];#P inlet 50 30 15 0;#P outlet 50 72 15 0;#P connect 1 0 2 0;#P connect 2 0 0 0;#P pop;#P newobj 120 293 30 196617 p;#P newex 85 258 38 196617 mute~;#P comment 422 28 222 196617 ------------------------------------------;#P comment 429 90 206 196617 5. arg. initial T60 Reverberation time;#P comment 429 78 206 196617 4. arg. initial maximum Delaylength;#P comment 429 66 206 196617 3. arg. initial minimal Delaylength;#P comment 429 54 206 196617 2. arg. max. Delaylenght of each FDN-path;#P comment 429 42 405 196617 1. arg. Reverb ID# for OSC message routing (not in use anymore \, but still necessary);#P comment 417 8 300 196617 FDN16-16-16 - Reverbsimulation with 16 inputs and 16 outputs;#P newex 119 171 586 196617 FDN16-16-16d 1 300 5.82 50.73 3.2 0.1 3 0.01 0.02;#N vpatcher 325 135 1435 563;#P origin 26 0;#P window setfont "Sans Serif" 9.;#N vpatcher 10 59 610 459;#P window setfont "Sans Serif" 9.;#P newex 50 142 81 196617 prepend /PreEQ;#P newex 149 73 31 196617 dbtoa;#P user filtergraph~ 50 104 97 34 3 9 20. 20000. 0.0625 16. 0 1 1 0 0 0 0;#X frgb 170 170 170;#X brgb 209 209 209;#X rgb2 0 0 0;#X rgb3 130 130 130;#X rgb4 0 0 0;#X rgb5 76 108 172;#X rgb6 210 74 54;#X rgb7 255 22 22;#X linmarkers 5512.5 11025. 16537.5;#X logmarkers 10. 100. 1000. 10000.;#X nfilters 1;#X setfilter 0 5 1 0 0 40. 1. 2.5 0. 0. 0. 0. 0. 0.;#X done;#P newex 50 50 210 196617 jcom.oscroute /filtertype /cf /filtergain /q;#P inlet 50 30 15 0;#P outlet 50 164 15 0;#P connect 1 0 2 0;#P connect 2 0 3 0;#P connect 3 0 5 0;#P connect 5 0 0 0;#P connect 2 1 3 5;#P fasten 4 0 3 6 154 96 127 96;#P fasten 2 3 3 7 205 99 139 99;#P connect 2 2 4 0;#P pop;#P newobj 329 77 56 196617 p input_eq;#N vpatcher 489 294 1089 694;#P window setfont "Sans Serif" 9.;#P newex 45 204 64 196617 prepend /eq;#P newex 150 70 31 196617 dbtoa;#P user filtergraph~ 45 166 97 34 3 9 20. 20000. 0.0625 16. 0 1 1 0 0 0 0;#X frgb 170 170 170;#X brgb 209 209 209;#X rgb2 0 0 0;#X rgb3 130 130 130;#X rgb4 0 0 0;#X rgb5 76 108 172;#X rgb6 210 74 54;#X rgb7 255 22 22;#X linmarkers 5512.5 11025. 16537.5;#X logmarkers 10. 100. 1000. 10000.;#X nfilters 1;#X setfilter 0 5 1 0 0 40. 0.07611 2.5 0. 0. 0. 0. 0. 0.;#X done;#P newex 50 50 210 196617 jcom.oscroute /filtertype /cf /filtergain /q;#P inlet 50 30 15 0;#P outlet 45 226 15 0;#P connect 2 0 3 0;#P connect 3 0 5 0;#P connect 5 0 0 0;#P connect 1 0 2 0;#P connect 2 1 3 5;#P connect 4 0 3 6;#P fasten 2 3 3 7 205 138 134 138;#P connect 2 2 4 0;#P pop;#P newobj 220 77 66 196617 p fdn_eq;#P newex 111 77 91 196617 prepend /FdInterp;#P window linecount 1;#P hidden newex 2 79 90 196617 prepend /FdRange;#P window linecount 0;#P newex 2 54 446 196617 jcom.oscroute /delaylength /interpolationtime /fdn_eq /input_eq;#P inlet 0 28 15 0;#P outlet 536 363 15 0;#P connect 1 0 2 0;#P connect 2 0 3 0;#P connect 2 1 4 0;#P connect 2 2 5 0;#P connect 2 3 6 0;#P fasten 2 4 0 0 443 81 541 81;#P fasten 6 0 0 0 334 118 541 118;#P fasten 5 0 0 0 225 118 541 118;#P fasten 4 0 0 0 116 118 541 118;#P fasten 3 0 0 0 7 328 541 328;#P pop;#P newobj 360 141 61 196617 p messages;#P objectname messages;#P inlet 26 52 15 0;#N thispatcher;#Q end;#P newobj 26 119 61 196617 thispatcher;#N comlet W - omni;#P inlet 119 48 15 0;#P objectname in[1];#P newex 119 370 417 196617 jcom.multi.in~.mxt;#P objectname multiin;#P outlet 119 401 15 0;#P objectname out[1];#P connect 4 0 31 0;#P connect 31 0 3 0;#P connect 32 0 14 0;#P connect 2 0 6 0;#P connect 15 0 1 0;#P connect 1 0 0 0;#P connect 6 0 15 0;#P connect 14 0 15 0;#P connect 16 0 1 1;#P connect 34 0 33 0;#P connect 17 0 1 2;#P connect 6 1 16 0;#P connect 33 0 16 0;#P connect 18 0 1 3;#P connect 19 0 1 4;#P connect 20 0 1 5;#P connect 36 0 35 0;#P connect 6 2 17 0;#P connect 35 0 17 0;#P connect 21 0 1 6;#P connect 22 0 1 7;#P connect 23 0 1 8;#P connect 38 0 37 0;#P connect 6 3 18 0;#P connect 37 0 18 0;#P connect 24 0 1 9;#P connect 25 0 1 10;#P connect 26 0 1 11;#P connect 40 0 39 0;#P connect 6 4 19 0;#P connect 39 0 19 0;#P connect 27 0 1 12;#P connect 28 0 1 13;#P connect 29 0 1 14;#P connect 42 0 41 0;#P connect 6 5 20 0;#P connect 41 0 20 0;#P connect 30 0 1 15;#P connect 6 6 21 0;#P connect 43 0 21 0;#P connect 44 0 43 0;#P fasten 4 0 5 0 31 73 365 73;#P connect 6 7 22 0;#P connect 45 0 22 0;#P connect 46 0 45 0;#P connect 6 8 23 0;#P connect 47 0 23 0;#P connect 48 0 47 0;#P connect 6 9 24 0;#P connect 49 0 24 0;#P connect 50 0 49 0;#P connect 6 10 25 0;#P connect 51 0 25 0;#P connect 52 0 51 0;#P connect 6 11 26 0;#P connect 53 0 26 0;#P connect 54 0 53 0;#P connect 6 12 27 0;#P connect 55 0 27 0;#P connect 56 0 55 0;#P connect 6 13 28 0;#P connect 57 0 28 0;#P connect 58 0 57 0;#P connect 6 14 29 0;#P connect 59 0 29 0;#P connect 60 0 59 0;#P connect 6 15 30 0;#P connect 61 0 30 0;#P fasten 5 0 6 1 365 164 700 164;#P connect 62 0 61 0;#P pop;