max v2;#N vpatcher 28 76 1270 794;#P origin 53 -18;#P window setfont "Sans Serif" 9.;#P window linecount 1;#P newex 819 103 68 196617 jcom.miditoa;#N vpatcher 541 136 1650 569;#P origin 43 0;#P window setfont "Sans Serif" 9.;#P newex 278 90 68 196617 jcom.miditoa;#P newex 354 152 27 196617 i 0;#P window linecount 1;#N vpatcher 546 213 1146 613;#P window setfont "Sans Serif" 9.;#P newex 195 124 27 196617 t i i;#P window linecount 1;#P newex 195 172 211 196617 sprintf script connect times%ld 0 pass%ld 0;#P window linecount 0;#P newex 165 101 40 196617 uzi 1;#P outlet 149 307 15 0;#P inlet 165 69 15 0;#P connect 3 0 1 0;#P connect 0 0 2 0;#P connect 2 2 4 0;#P connect 4 0 3 0;#P connect 4 1 3 1;#P pop;#P newobj 364 285 93 196617 p connect_to_pass;#P window linecount 0;#P newex 82 114 27 196617 t i i;#P message 354 178 161 196617 script send pcontrol3 enable \$1 1;#N vpatcher 346 378 946 778;#P window setfont "Sans Serif" 9.;#P window linecount 0;#P newex 309 55 29 196617 t b f;#P inlet 309 33 15 0;#P newex 177 82 39 196617 i;#P window linecount 1;#P newex 176 185 162 196617 sprintf script send times%ld %f;#P newex 176 107 40 196617 uzi 1;#P outlet 177 239 15 0;#P inlet 207 41 15 0;#P connect 4 0 2 0;#P connect 2 2 3 0;#P fasten 6 0 4 0 314 77 182 77;#P connect 3 0 1 0;#P connect 0 0 4 1;#P connect 5 0 6 0;#P connect 6 1 3 1;#P pop;#P newobj 232 215 56 196617 p set_gain;#P outlet 7 372 15 0;#N vpatcher 352 183 952 583;#P window setfont "Sans Serif" 9.;#P window linecount 1;#P newex 172 139 50 196617 deferlow;#P newex 172 161 49 196617 delay 10;#P outlet 436 312 15 0;#P window linecount 0;#P newex 254 115 27 196617 - 1;#P newex 254 134 27 196617 t i i;#P newex 254 182 209 196617 sprintf script connect input %ld p_aux3 %ld;#P newex 224 93 40 196617 uzi 1;#P outlet 208 317 15 0;#P inlet 224 75 15 0;#P connect 2 1 8 0;#P connect 8 0 7 0;#P connect 3 0 1 0;#P connect 0 0 2 0;#P connect 2 2 5 0;#P connect 5 0 4 0;#P connect 4 0 3 0;#P connect 7 0 6 0;#P connect 4 1 3 1;#P pop;#P newobj 7 288 86 196617 p connect_multiin;#N vpatcher 10 59 713 455;#P origin 0 41;#P window setfont "Sans Serif" 9.;#P newex 197 90 27 196617 t i i;#P newex 363 115 32 196617 * 20;#P message 210 30 14 196617 4;#P newex 166 146 207 196617 sprintf script new ins%ld inlet %ld 20 15 0;#P newex 166 68 40 196617 uzi 1;#P outlet 165 264 15 0;#P inlet 165 28 15 0;#P connect 3 0 1 0;#P connect 0 0 2 0;#P connect 4 0 2 0;#P fasten 6 0 3 0 202 112 171 112;#P connect 2 2 6 0;#P connect 6 1 5 0;#P connect 5 0 3 1;#P pop;#P newobj 483 288 66 196617 p create_ins;#N vpatcher 10 59 610 459;#P window setfont "Sans Serif" 9.;#P window linecount 1;#P newex 281 247 134 196617 sprintf script delete ins%ld;#P window linecount 0;#P newex 162 157 40 196617 uzi 1;#P newex 165 92 27 196617 t i b;#P newex 162 121 31 196617 int 0;#P outlet 149 307 15 0;#P inlet 165 69 15 0;#P connect 5 0 1 0;#P connect 3 1 2 0;#P connect 2 0 4 0;#P connect 0 0 3 0;#P connect 3 0 2 1;#P connect 4 2 5 0;#P pop;#P newobj 721 287 64 196617 p delete_ins;#P newex 7 247 844 196617 t i i i i i i i i;#N vpatcher 10 59 610 459;#P window setfont "Sans Serif" 9.;#P window linecount 1;#P newex 291 248 141 196617 sprintf script delete pass%ld;#P window linecount 0;#P newex 131 247 146 196617 sprintf script delete times%ld;#P newex 162 157 40 196617 uzi 1;#P newex 165 92 27 196617 t i b;#P newex 162 121 31 196617 int 0;#P outlet 149 307 15 0;#P inlet 165 69 15 0;#P connect 4 2 5 0;#P connect 5 0 1 0;#P connect 6 0 1 0;#P connect 3 1 2 0;#P connect 2 0 4 0;#P connect 0 0 3 0;#P connect 3 0 2 1;#P connect 4 2 6 0;#P pop;#P newobj 840 287 104 196617 p delete_times&pass;#N vpatcher 352 183 952 583;#P window setfont "Sans Serif" 9.;#P newex 254 134 27 196617 t i i;#P newex 254 182 204 196617 sprintf script connect ins%ld 0 times%ld 0;#P newex 224 111 40 196617 uzi 1;#P outlet 208 317 15 0;#P inlet 224 79 15 0;#P connect 3 0 1 0;#P connect 0 0 2 0;#P connect 2 2 4 0;#P connect 4 0 3 0;#P connect 4 1 3 1;#P pop;#P newobj 126 286 94 196617 p connect_to_times;#N vpatcher 546 213 1146 613;#P window setfont "Sans Serif" 9.;#P newex 409 149 27 196617 - 1;#P newex 195 124 27 196617 t i i;#P window linecount 1;#P newex 195 172 219 196617 sprintf script connect pass%ld 0 multiaux %ld;#P window linecount 0;#P newex 165 101 40 196617 uzi 1;#P outlet 149 307 15 0;#P inlet 165 69 15 0;#P connect 3 0 1 0;#P connect 0 0 2 0;#P connect 2 2 4 0;#P connect 4 0 3 0;#P connect 5 0 3 1;#P fasten 4 1 5 0 217 146 414 146;#P pop;#P newobj 245 284 108 196617 p connect_to_multiaux;#N vpatcher 433 216 1136 612;#P origin -211 35;#P window setfont "Sans Serif" 9.;#P message 247 59 14 196617 1;#P window linecount 1;#P newex 279 134 95 196617 expr $i1* 15 + 90;#P newex 225 95 40 196617 t i i i;#P newex 136 122 95 196617 expr $i1* 10 + 10;#P newex 1 156 287 196617 sprintf script new pass%ld newex %ld %ld 31 196617 pass~;#P newex 391 73 27 196617 t i i;#P window linecount 0;#P newex 701 125 63 196617 loadmess 1.;#P flonum 712 46 35 9 0 0 0 3 0 0 0 221 221 221 222 222 222 0 0 0;#P window linecount 1;#P newex 571 131 95 196617 expr $i1* 15 + 50;#P window linecount 0;#P newex 408 95 40 196617 t i i i;#P newex 474 131 95 196617 expr $i1* 10 + 30;#P inlet 668 27 15 0;#P message 420 23 14 196617 4;#P newex 377 154 302 196617 sprintf script new times%ld newex %ld %ld 32 196617 *~ %f;#P newex 375 49 42 196617 uzi 1;#P outlet 377 272 15 0;#P inlet 375 21 15 0;#P fasten 14 0 12 0 230 120 6 120;#P fasten 14 1 13 0 245 120 141 120;#P connect 13 0 12 1;#P fasten 11 0 14 0 396 92 230 92;#P connect 16 0 14 0;#P connect 15 0 12 2;#P fasten 14 2 15 0 260 118 284 118;#P connect 4 0 2 0;#P connect 0 0 2 0;#P fasten 7 0 3 0 413 118 382 118;#P connect 3 0 1 0;#P connect 12 0 1 0;#P connect 2 2 11 0;#P connect 11 1 7 0;#P fasten 7 1 6 0 428 118 479 118;#P connect 6 0 3 1;#P fasten 7 2 8 0 443 116 576 116;#P connect 8 0 3 2;#P connect 5 0 3 3;#P connect 9 0 3 3;#P connect 10 0 3 3;#P pop;#P newobj 602 286 74 196617 p create_times;#P newex 278 156 29 196617 t b f;#P newex 278 180 29 196617 * 1.;#P newex 278 61 163 196617 jcom.oscroute /gain/midi /active;#P comment 278 26 100 196617 output gain;#P inlet 278 43 15 0;#P inlet 160 43 15 0;#P inlet 82 42 15 0;#P outlet 505 368 15 0;#P comment 169 25 100 196617 input gain;#P comment 73 24 100 196617 voices;#P connect 21 1 14 0;#P connect 14 0 17 0;#P fasten 20 0 18 0 359 350 12 350;#P lcolor 15;#P connect 17 0 18 0;#P connect 3 0 21 0;#P connect 14 1 12 0;#P connect 21 0 19 0;#P connect 14 2 11 0;#P connect 5 0 7 0;#P connect 7 0 24 0;#P connect 24 0 9 0;#P fasten 4 0 8 0 165 176 283 176;#P connect 9 0 8 0;#P connect 8 0 19 1;#P connect 9 1 8 1;#P connect 7 1 23 0;#P connect 17 1 23 0;#P connect 23 0 20 0;#P connect 14 3 22 0;#P connect 14 4 16 0;#P fasten 12 0 2 0 131 336 510 336;#P fasten 16 0 2 0 488 336 510 336;#P fasten 15 0 2 0 726 336 510 336;#P fasten 13 0 2 0 845 336 510 336;#P fasten 10 0 2 0 607 336 510 336;#P fasten 11 0 2 0 250 336 510 336;#P fasten 19 0 2 0 237 362 510 362;#P lcolor 6;#P fasten 22 0 2 0 369 336 510 336;#P connect 14 5 10 0;#P connect 8 0 10 1;#P connect 14 6 15 0;#P connect 14 7 13 0;#P pop;#P newobj 980 182 86 196617 p scripting_aux3;#N vpatcher 307 145 1416 578;#P origin 43 0;#P window setfont "Sans Serif" 9.;#P newex 278 80 68 196617 jcom.miditoa;#P newex 342 98 27 196617 i 0;#P number 54 191 35 9 0 0 0 3 0 0 0 221 221 221 222 222 222 0 0 0;#P window linecount 1;#N vpatcher 546 213 1146 613;#P window setfont "Sans Serif" 9.;#P newex 195 124 27 196617 t i i;#P window linecount 1;#P newex 195 172 211 196617 sprintf script connect times%ld 0 pass%ld 0;#P window linecount 0;#P newex 165 101 40 196617 uzi 1;#P outlet 149 307 15 0;#P inlet 165 69 15 0;#P connect 3 0 1 0;#P connect 0 0 2 0;#P connect 2 2 4 0;#P connect 4 0 3 0;#P connect 4 1 3 1;#P pop;#P newobj 364 285 93 196617 p connect_to_pass;#P window linecount 0;#P newex 42 114 27 196617 t i i;#P message 342 121 161 196617 script send pcontrol2 enable \$1 1;#N vpatcher 346 378 946 778;#P window setfont "Sans Serif" 9.;#P window linecount 0;#P newex 309 55 29 196617 t b f;#P inlet 309 33 15 0;#P newex 177 82 39 196617 i;#P window linecount 1;#P newex 176 185 162 196617 sprintf script send times%ld %f;#P newex 176 107 40 196617 uzi 1;#P outlet 177 239 15 0;#P inlet 207 41 15 0;#P connect 4 0 2 0;#P connect 2 2 3 0;#P fasten 6 0 4 0 314 77 182 77;#P connect 3 0 1 0;#P connect 0 0 4 1;#P connect 5 0 6 0;#P connect 6 1 3 1;#P pop;#P newobj 232 215 56 196617 p set_gain;#P outlet 7 372 15 0;#N vpatcher 352 183 952 583;#P window setfont "Sans Serif" 9.;#P window linecount 1;#P newex 172 139 50 196617 deferlow;#P newex 172 161 49 196617 delay 10;#P outlet 436 312 15 0;#P window linecount 0;#P newex 254 115 27 196617 - 1;#P newex 254 134 27 196617 t i i;#P newex 254 182 209 196617 sprintf script connect input %ld p_aux2 %ld;#P newex 224 93 40 196617 uzi 1;#P outlet 208 317 15 0;#P inlet 224 75 15 0;#P connect 2 1 8 0;#P connect 8 0 7 0;#P connect 3 0 1 0;#P connect 0 0 2 0;#P connect 2 2 5 0;#P connect 5 0 4 0;#P connect 4 0 3 0;#P connect 7 0 6 0;#P connect 4 1 3 1;#P pop;#P newobj 7 288 86 196617 p connect_multiin;#N vpatcher 10 59 713 455;#P origin 0 41;#P window setfont "Sans Serif" 9.;#P newex 197 90 27 196617 t i i;#P newex 363 115 32 196617 * 20;#P message 210 30 14 196617 4;#P newex 166 146 207 196617 sprintf script new ins%ld inlet %ld 20 15 0;#P newex 166 68 40 196617 uzi 1;#P outlet 165 264 15 0;#P inlet 165 28 15 0;#P connect 3 0 1 0;#P connect 4 0 2 0;#P connect 0 0 2 0;#P fasten 6 0 3 0 202 112 171 112;#P connect 2 2 6 0;#P connect 6 1 5 0;#P connect 5 0 3 1;#P pop;#P newobj 483 288 66 196617 p create_ins;#N vpatcher 10 59 610 459;#P window setfont "Sans Serif" 9.;#P window linecount 1;#P newex 281 247 134 196617 sprintf script delete ins%ld;#P window linecount 0;#P newex 162 157 40 196617 uzi 1;#P newex 165 92 27 196617 t i b;#P newex 162 121 31 196617 int 0;#P outlet 149 307 15 0;#P inlet 165 69 15 0;#P connect 5 0 1 0;#P connect 3 1 2 0;#P connect 2 0 4 0;#P connect 0 0 3 0;#P connect 3 0 2 1;#P connect 4 2 5 0;#P pop;#P newobj 721 287 64 196617 p delete_ins;#P newex 7 247 844 196617 t i i i i i i i i;#N vpatcher 10 59 610 459;#P window setfont "Sans Serif" 9.;#P window linecount 1;#P newex 291 248 141 196617 sprintf script delete pass%ld;#P window linecount 0;#P newex 131 247 146 196617 sprintf script delete times%ld;#P newex 162 157 40 196617 uzi 1;#P newex 165 92 27 196617 t i b;#P newex 162 121 31 196617 int 0;#P outlet 149 307 15 0;#P inlet 165 69 15 0;#P connect 4 2 5 0;#P connect 6 0 1 0;#P connect 5 0 1 0;#P connect 3 1 2 0;#P connect 2 0 4 0;#P connect 0 0 3 0;#P connect 3 0 2 1;#P connect 4 2 6 0;#P pop;#P newobj 840 287 104 196617 p delete_times&pass;#N vpatcher 352 183 952 583;#P window setfont "Sans Serif" 9.;#P newex 254 134 27 196617 t i i;#P newex 254 182 204 196617 sprintf script connect ins%ld 0 times%ld 0;#P newex 224 111 40 196617 uzi 1;#P outlet 208 317 15 0;#P inlet 224 79 15 0;#P connect 3 0 1 0;#P connect 0 0 2 0;#P connect 2 2 4 0;#P connect 4 0 3 0;#P connect 4 1 3 1;#P pop;#P newobj 126 286 94 196617 p connect_to_times;#N vpatcher 546 213 1146 613;#P window setfont "Sans Serif" 9.;#P newex 409 149 27 196617 - 1;#P newex 195 124 27 196617 t i i;#P window linecount 1;#P newex 195 172 219 196617 sprintf script connect pass%ld 0 multiaux %ld;#P window linecount 0;#P newex 165 101 40 196617 uzi 1;#P outlet 149 307 15 0;#P inlet 165 69 15 0;#P connect 3 0 1 0;#P connect 0 0 2 0;#P connect 2 2 4 0;#P connect 4 0 3 0;#P connect 5 0 3 1;#P fasten 4 1 5 0 217 146 414 146;#P pop;#P newobj 245 284 108 196617 p connect_to_multiaux;#N vpatcher 433 216 1136 612;#P origin -211 35;#P window setfont "Sans Serif" 9.;#P message 247 59 14 196617 1;#P window linecount 1;#P newex 279 134 95 196617 expr $i1* 15 + 90;#P newex 225 95 40 196617 t i i i;#P newex 136 122 95 196617 expr $i1* 10 + 10;#P newex 1 156 287 196617 sprintf script new pass%ld newex %ld %ld 31 196617 pass~;#P newex 391 73 27 196617 t i i;#P window linecount 0;#P newex 701 125 63 196617 loadmess 1.;#P flonum 712 46 35 9 0 0 0 3 0 0 0 221 221 221 222 222 222 0 0 0;#P window linecount 1;#P newex 571 131 95 196617 expr $i1* 15 + 50;#P window linecount 0;#P newex 408 95 40 196617 t i i i;#P newex 474 131 95 196617 expr $i1* 10 + 30;#P inlet 668 27 15 0;#P message 420 23 14 196617 4;#P newex 377 154 302 196617 sprintf script new times%ld newex %ld %ld 32 196617 *~ %f;#P newex 375 49 42 196617 uzi 1;#P outlet 377 272 15 0;#P inlet 375 21 15 0;#P fasten 14 0 12 0 230 120 6 120;#P fasten 14 1 13 0 245 120 141 120;#P connect 13 0 12 1;#P connect 16 0 14 0;#P fasten 11 0 14 0 396 92 230 92;#P connect 15 0 12 2;#P fasten 14 2 15 0 260 118 284 118;#P connect 0 0 2 0;#P connect 4 0 2 0;#P fasten 7 0 3 0 413 118 382 118;#P connect 12 0 1 0;#P connect 3 0 1 0;#P connect 2 2 11 0;#P connect 11 1 7 0;#P fasten 7 1 6 0 428 118 479 118;#P connect 6 0 3 1;#P fasten 7 2 8 0 443 116 576 116;#P connect 8 0 3 2;#P connect 10 0 3 3;#P connect 9 0 3 3;#P connect 5 0 3 3;#P pop;#P newobj 602 286 74 196617 p create_times;#P newex 278 156 29 196617 t b f;#P newex 278 180 29 196617 * 1.;#P newex 278 61 163 196617 jcom.oscroute /gain/midi /active;#P comment 278 26 100 196617 output gain;#P inlet 278 43 15 0;#P inlet 160 43 15 0;#P inlet 82 42 15 0;#P outlet 505 368 15 0;#P comment 169 25 100 196617 input gain;#P comment 73 24 100 196617 voices;#P connect 23 0 14 0;#P connect 21 1 14 0;#P connect 14 0 17 0;#P connect 17 0 18 0;#P fasten 20 0 18 0 347 350 12 350;#P lcolor 15;#P connect 3 0 21 0;#P connect 14 1 12 0;#P connect 21 0 19 0;#P connect 14 2 11 0;#P connect 5 0 7 0;#P connect 7 0 25 0;#P connect 25 0 9 0;#P connect 4 0 8 0;#P connect 9 0 8 0;#P connect 8 0 19 1;#P connect 9 1 8 1;#P connect 7 1 24 0;#P connect 17 1 24 0;#P connect 24 0 20 0;#P connect 14 3 22 0;#P connect 14 4 16 0;#P fasten 22 0 2 0 369 336 510 336;#P fasten 19 0 2 0 237 362 510 362;#P lcolor 6;#P fasten 11 0 2 0 250 336 510 336;#P fasten 10 0 2 0 607 336 510 336;#P fasten 13 0 2 0 845 336 510 336;#P fasten 15 0 2 0 726 336 510 336;#P fasten 16 0 2 0 488 336 510 336;#P fasten 12 0 2 0 131 336 510 336;#P connect 14 5 10 0;#P connect 8 0 10 1;#P connect 14 6 15 0;#P connect 14 7 13 0;#P pop;#P newobj 890 183 86 196617 p scripting_aux2;#N vpatcher 290 323 890 723;#P window setfont "Sans Serif" 9.;#P number 226 154 35 9 0 0 0 3 0 0 0 221 221 221 222 222 222 0 0 0;#P newex 142 233 61 196617 pipe 0 0 10;#P outlet 141 258 15 0;#P newex 142 176 29 196617 gate;#P newex 50 50 48 196617 loadbang;#P newex 108 111 31 196617 == 0;#P newex 50 111 32 196617 sel 0;#P newex 50 78 54 196617 dspstate~;#P newex 161 99 40 196617 change;#P newex 161 149 27 196617 int;#P inlet 161 79 15 0;#P connect 6 0 3 0;#P connect 3 0 4 0;#P fasten 3 0 5 0 55 101 113 101;#P connect 9 0 8 0;#P connect 5 0 7 0;#P connect 10 0 9 0;#P connect 7 0 9 0;#P connect 0 0 2 0;#P connect 4 0 1 0;#P connect 2 0 1 0;#P connect 1 0 7 1;#P pop;#P newobj 731 114 79 196617 p check _4_dsp;#P newex 589 336 47 196617 pcontrol;#P objectname pcontrol3;#N vpatcher 348 224 1055 599;#P origin 0 -4;#P inlet 615 171 15 0;#P window setfont "Sans Serif" 9.;#P window linecount 0;#N thispatcher;#Q end;#P newobj 615 191 61 196617 thispatcher;#P window linecount 1;#P newex -4 336 417 196617 jcom.multi.in~.mxt;#P objectname multiaux;#P outlet -4 358 15 0;#P connect 1 0 0 0;#P connect 3 0 2 0;#P pop;#P newobj 547 335 40 196617 p aux3;#P objectname p_aux3;#P newex 393 321 47 196617 pcontrol;#P objectname pcontrol2;#N vpatcher 348 224 1055 599;#P origin 0 -4;#P inlet 615 171 15 0;#P window setfont "Sans Serif" 9.;#P window linecount 0;#N thispatcher;#Q end;#P newobj 615 191 61 196617 thispatcher;#P window linecount 1;#P newex -4 336 417 196617 jcom.multi.in~.mxt;#P objectname multiaux;#P outlet -4 358 15 0;#P connect 1 0 0 0;#P connect 3 0 2 0;#P pop;#P newobj 351 320 40 196617 p aux2;#P objectname p_aux2;#P newex 177 308 47 196617 pcontrol;#P objectname pcontrol1;#N vpatcher 49 188 783 692;#P origin 0 9;#P inlet 615 158 15 0;#P window setfont "Sans Serif" 9.;#P window linecount 0;#N thispatcher;#Q end;#P newobj 615 178 61 196617 thispatcher;#P window linecount 1;#P newex 27 429 417 196617 jcom.multi.in~.mxt;#P objectname multiaux;#P outlet 27 451 15 0;#P connect 1 0 0 0;#P connect 3 0 2 0;#P pop;#P newobj 135 307 40 196617 p aux1;#P objectname p_aux1;#N vpatcher 94 135 1203 568;#P origin 43 0;#P window setfont "Sans Serif" 9.;#P newex 278 82 68 196617 jcom.miditoa;#P newex 342 100 27 196617 i 0;#P number 54 191 35 9 0 0 0 3 0 0 0 221 221 221 222 222 222 0 0 0;#P window linecount 1;#N vpatcher 546 213 1146 613;#P window setfont "Sans Serif" 9.;#P newex 195 124 27 196617 t i i;#P window linecount 1;#P newex 195 172 211 196617 sprintf script connect times%ld 0 pass%ld 0;#P window linecount 0;#P newex 165 101 40 196617 uzi 1;#P outlet 149 307 15 0;#P inlet 165 69 15 0;#P connect 3 0 1 0;#P connect 0 0 2 0;#P connect 2 2 4 0;#P connect 4 0 3 0;#P connect 4 1 3 1;#P pop;#P newobj 364 285 93 196617 p connect_to_pass;#P window linecount 0;#P newex 42 114 27 196617 t i i;#P message 342 121 161 196617 script send pcontrol1 enable \$1 1;#N vpatcher 346 378 946 778;#P window setfont "Sans Serif" 9.;#P window linecount 0;#P newex 309 55 29 196617 t b f;#P inlet 309 33 15 0;#P newex 177 82 39 196617 i;#P window linecount 1;#P newex 176 185 162 196617 sprintf script send times%ld %f;#P newex 176 107 40 196617 uzi 1;#P outlet 177 239 15 0;#P inlet 207 41 15 0;#P connect 4 0 2 0;#P connect 2 2 3 0;#P fasten 6 0 4 0 314 77 182 77;#P connect 3 0 1 0;#P connect 0 0 4 1;#P connect 5 0 6 0;#P connect 6 1 3 1;#P pop;#P newobj 232 215 56 196617 p set_gain;#P outlet 7 372 15 0;#N vpatcher 352 183 952 583;#P window setfont "Sans Serif" 9.;#P newex 165 132 50 196617 deferlow;#P newex 165 154 49 196617 delay 10;#P outlet 429 305 15 0;#P newex 254 115 27 196617 - 1;#P newex 254 134 27 196617 t i i;#P newex 254 182 209 196617 sprintf script connect input %ld p_aux1 %ld;#P newex 224 93 40 196617 uzi 1;#P outlet 208 317 15 0;#P inlet 224 75 15 0;#P connect 2 1 8 0;#P connect 8 0 7 0;#P connect 3 0 1 0;#P connect 0 0 2 0;#P connect 2 2 5 0;#P connect 5 0 4 0;#P connect 4 0 3 0;#P connect 7 0 6 0;#P connect 4 1 3 1;#P pop;#P newobj 7 288 86 196617 p connect_multiin;#N vpatcher 10 59 713 455;#P origin 0 41;#P window setfont "Sans Serif" 9.;#P newex 197 90 27 196617 t i i;#P newex 363 115 32 196617 * 20;#P message 210 30 14 196617 4;#P newex 166 146 207 196617 sprintf script new ins%ld inlet %ld 20 15 0;#P newex 166 68 40 196617 uzi 1;#P outlet 165 264 15 0;#P inlet 165 28 15 0;#P connect 3 0 1 0;#P connect 0 0 2 0;#P connect 4 0 2 0;#P fasten 6 0 3 0 202 112 171 112;#P connect 2 2 6 0;#P connect 6 1 5 0;#P connect 5 0 3 1;#P pop;#P newobj 483 285 66 196617 p create_ins;#N vpatcher 10 59 610 459;#P window setfont "Sans Serif" 9.;#P window linecount 1;#P newex 281 247 134 196617 sprintf script delete ins%ld;#P window linecount 0;#P newex 162 157 40 196617 uzi 1;#P newex 165 92 27 196617 t i b;#P newex 162 121 31 196617 int 0;#P outlet 149 307 15 0;#P inlet 165 69 15 0;#P connect 5 0 1 0;#P connect 3 1 2 0;#P connect 2 0 4 0;#P connect 0 0 3 0;#P connect 3 0 2 1;#P connect 4 2 5 0;#P pop;#P newobj 721 287 64 196617 p delete_ins;#P newex 7 247 844 196617 t i i i i i i i i;#N vpatcher 10 59 610 459;#P window setfont "Sans Serif" 9.;#P window linecount 1;#P newex 291 248 141 196617 sprintf script delete pass%ld;#P window linecount 0;#P newex 131 247 146 196617 sprintf script delete times%ld;#P newex 162 157 40 196617 uzi 1;#P newex 165 92 27 196617 t i b;#P newex 162 121 31 196617 int 0;#P outlet 149 307 15 0;#P inlet 165 69 15 0;#P connect 4 2 5 0;#P connect 5 0 1 0;#P connect 6 0 1 0;#P connect 3 1 2 0;#P connect 2 0 4 0;#P connect 0 0 3 0;#P connect 3 0 2 1;#P connect 4 2 6 0;#P pop;#P newobj 840 287 104 196617 p delete_times&pass;#N vpatcher 352 183 952 583;#P window setfont "Sans Serif" 9.;#P newex 254 134 27 196617 t i i;#P newex 254 182 204 196617 sprintf script connect ins%ld 0 times%ld 0;#P newex 224 111 40 196617 uzi 1;#P outlet 208 317 15 0;#P inlet 224 79 15 0;#P connect 3 0 1 0;#P connect 0 0 2 0;#P connect 2 2 4 0;#P connect 4 0 3 0;#P connect 4 1 3 1;#P pop;#P newobj 126 286 94 196617 p connect_to_times;#N vpatcher 546 213 1146 613;#P window setfont "Sans Serif" 9.;#P newex 409 149 27 196617 - 1;#P newex 195 124 27 196617 t i i;#P window linecount 1;#P newex 195 172 219 196617 sprintf script connect pass%ld 0 multiaux %ld;#P window linecount 0;#P newex 165 101 40 196617 uzi 1;#P outlet 149 307 15 0;#P inlet 165 69 15 0;#P connect 3 0 1 0;#P connect 0 0 2 0;#P connect 2 2 4 0;#P connect 4 0 3 0;#P connect 5 0 3 1;#P fasten 4 1 5 0 217 146 414 146;#P pop;#P newobj 245 284 108 196617 p connect_to_multiaux;#N vpatcher 433 216 1136 612;#P origin -211 35;#P window setfont "Sans Serif" 9.;#P message 247 59 14 196617 1;#P window linecount 1;#P newex 279 134 95 196617 expr $i1* 15 + 90;#P newex 225 95 40 196617 t i i i;#P newex 136 122 95 196617 expr $i1* 10 + 10;#P newex 1 156 287 196617 sprintf script new pass%ld newex %ld %ld 31 196617 pass~;#P newex 391 73 27 196617 t i i;#P window linecount 0;#P newex 701 125 63 196617 loadmess 1.;#P flonum 712 46 35 9 0 0 0 3 0 0 0 221 221 221 222 222 222 0 0 0;#P window linecount 1;#P newex 571 131 95 196617 expr $i1* 15 + 50;#P window linecount 0;#P newex 408 95 40 196617 t i i i;#P newex 474 131 95 196617 expr $i1* 10 + 30;#P inlet 668 27 15 0;#P message 420 23 14 196617 4;#P newex 377 154 302 196617 sprintf script new times%ld newex %ld %ld 32 196617 *~ %f;#P newex 375 49 42 196617 uzi 1;#P outlet 377 272 15 0;#P inlet 375 21 15 0;#P fasten 14 0 12 0 230 120 6 120;#P fasten 14 1 13 0 245 120 141 120;#P connect 13 0 12 1;#P fasten 11 0 14 0 396 92 230 92;#P connect 16 0 14 0;#P connect 15 0 12 2;#P fasten 14 2 15 0 260 118 284 118;#P connect 4 0 2 0;#P connect 0 0 2 0;#P fasten 7 0 3 0 413 118 382 118;#P connect 3 0 1 0;#P connect 12 0 1 0;#P connect 2 2 11 0;#P connect 11 1 7 0;#P fasten 7 1 6 0 428 118 479 118;#P connect 6 0 3 1;#P fasten 7 2 8 0 443 116 576 116;#P connect 8 0 3 2;#P connect 5 0 3 3;#P connect 9 0 3 3;#P connect 10 0 3 3;#P pop;#P newobj 602 286 74 196617 p create_times;#P newex 278 156 29 196617 t b f;#P newex 278 180 29 196617 * 1.;#P newex 278 61 163 196617 jcom.oscroute /gain/midi /active;#P comment 278 26 100 196617 output gain;#P inlet 278 43 15 0;#P inlet 160 43 15 0;#P inlet 42 45 15 0;#P outlet 505 368 15 0;#P comment 169 25 100 196617 input gain;#P comment 33 27 100 196617 voices;#P connect 21 1 14 0;#P connect 23 0 14 0;#P connect 14 0 17 0;#P fasten 20 0 18 0 347 350 12 350;#P lcolor 15;#P connect 17 0 18 0;#P connect 3 0 21 0;#P connect 14 1 12 0;#P connect 21 0 19 0;#P connect 14 2 11 0;#P connect 5 0 7 0;#P connect 7 0 25 0;#P connect 25 0 9 0;#P connect 4 0 8 0;#P connect 9 0 8 0;#P connect 8 0 19 1;#P connect 9 1 8 1;#P connect 17 1 24 0;#P connect 7 1 24 0;#P connect 24 0 20 0;#P connect 14 3 22 0;#P connect 14 4 16 0;#P fasten 12 0 2 0 131 336 510 336;#P fasten 16 0 2 0 488 336 510 336;#P fasten 15 0 2 0 726 336 510 336;#P fasten 13 0 2 0 845 336 510 336;#P fasten 10 0 2 0 607 336 510 336;#P fasten 11 0 2 0 250 336 510 336;#P fasten 19 0 2 0 237 362 510 362;#P lcolor 6;#P fasten 22 0 2 0 369 336 510 336;#P connect 14 5 10 0;#P fasten 8 0 10 1 283 204 671 204;#P connect 14 6 15 0;#P connect 14 7 13 0;#P pop;#P newobj 781 185 86 196617 p scripting_aux1;#P outlet 547 357 15 0;#P outlet 351 346 15 0;#N comlet OSC messages;#P outlet 1 632 15 0;#P newex 61 86 417 196617 jcom.multi.out~.mxt;#P objectname input;#P newex 762 83 285 196617 jcom.oscroute /voices /input/gain/midi /aux1 /aux2 /aux3;#N comlet OSC messages;#P inlet 25 40 15 0;#N comlet multicable;#P outlet 135 337 15 0;#P objectname out[1];#N comlet multicable;#P inlet 61 41 15 0;#P objectname in[1];#N thispatcher;#Q end;#P newobj 891 255 61 196617 thispatcher;#B color 14;#P connect 1 0 5 0;#P connect 9 1 10 0;#P lcolor 15;#P connect 11 0 10 0;#P connect 10 0 2 0;#P connect 13 0 12 0;#P connect 17 1 12 0;#P connect 12 0 7 0;#P connect 15 0 14 0;#P connect 18 1 14 0;#P connect 14 0 8 0;#P connect 4 0 16 0;#P fasten 3 0 4 0 30 76 767 76;#P fasten 16 0 9 0 736 149 786 149;#P lcolor 13;#P connect 4 1 19 0;#P connect 19 0 9 1;#P fasten 4 2 9 2 877 160 862 160;#P fasten 16 0 17 0 736 150 895 150;#P lcolor 13;#P connect 9 0 0 0;#P lcolor 15;#P connect 17 0 0 0;#P connect 18 0 0 0;#P connect 19 0 17 1;#P fasten 4 3 17 2 932 107 971 107;#P fasten 16 0 18 0 736 149 985 149;#P lcolor 13;#P connect 19 0 18 1;#P fasten 4 4 18 2 987 106 1061 106;#P pop;