{
	"patcher" : 	{
		"fileversion" : 1,
		"rect" : [ 0.0, 44.0, 1280.0, 730.0 ],
		"bglocked" : 0,
		"defrect" : [ 0.0, 44.0, 1280.0, 730.0 ],
		"openrect" : [ 0.0, 0.0, 0.0, 0.0 ],
		"openinpresentation" : 1,
		"default_fontsize" : 12.0,
		"default_fontface" : 0,
		"default_fontname" : "Arial",
		"gridonopen" : 0,
		"gridsize" : [ 15.0, 15.0 ],
		"gridsnaponopen" : 0,
		"toolbarvisible" : 1,
		"boxanimatetime" : 200,
		"imprint" : 0,
		"metadata" : [  ],
		"boxes" : [ 			{
				"box" : 				{
					"maxclass" : "number",
					"outlettype" : [ "int", "bang" ],
					"bordercolor" : [ 1.0, 1.0, 1.0, 0.0 ],
					"cantchange" : 1,
					"patching_rect" : [ 1110.0, 684.0, 35.0, 17.0 ],
					"textcolor" : [ 1.0, 1.0, 1.0, 1.0 ],
					"hbgcolor" : [ 1.0, 1.0, 1.0, 0.0 ],
					"triscale" : 0.9,
					"hidden" : 1,
					"id" : "obj-61",
					"fontname" : "Arial",
					"triangle" : 0,
					"numinlets" : 1,
					"fontsize" : 9.0,
					"bgcolor" : [ 1.0, 1.0, 1.0, 0.0 ],
					"numoutlets" : 2
				}

			}
, 			{
				"box" : 				{
					"maxclass" : "message",
					"text" : "select",
					"outlettype" : [ "" ],
					"patching_rect" : [ 1110.0, 666.0, 33.0, 15.0 ],
					"hidden" : 1,
					"id" : "obj-63",
					"fontname" : "Arial",
					"numinlets" : 2,
					"fontsize" : 9.0,
					"numoutlets" : 1
				}

			}
, 			{
				"box" : 				{
					"maxclass" : "message",
					"text" : "select",
					"outlettype" : [ "" ],
					"patching_rect" : [ 1009.0, 607.0, 34.0, 15.0 ],
					"id" : "obj-208",
					"fontname" : "Arial",
					"numinlets" : 2,
					"fontsize" : 9.0,
					"numoutlets" : 1
				}

			}
, 			{
				"box" : 				{
					"maxclass" : "newobj",
					"text" : "sel 9",
					"outlettype" : [ "bang", "" ],
					"patching_rect" : [ 966.0, 603.0, 30.0, 17.0 ],
					"id" : "obj-209",
					"fontname" : "Arial",
					"numinlets" : 2,
					"fontsize" : 9.0,
					"numoutlets" : 2
				}

			}
, 			{
				"box" : 				{
					"maxclass" : "message",
					"text" : "select",
					"outlettype" : [ "" ],
					"patching_rect" : [ 1012.0, 530.0, 34.0, 15.0 ],
					"id" : "obj-210",
					"fontname" : "Arial",
					"numinlets" : 2,
					"fontsize" : 9.0,
					"numoutlets" : 1
				}

			}
, 			{
				"box" : 				{
					"maxclass" : "newobj",
					"text" : "sel 9",
					"outlettype" : [ "bang", "" ],
					"patching_rect" : [ 969.0, 526.0, 30.0, 17.0 ],
					"id" : "obj-211",
					"fontname" : "Arial",
					"numinlets" : 2,
					"fontsize" : 9.0,
					"numoutlets" : 2
				}

			}
, 			{
				"box" : 				{
					"maxclass" : "message",
					"text" : "select",
					"outlettype" : [ "" ],
					"patching_rect" : [ 780.0, 686.0, 34.0, 15.0 ],
					"id" : "obj-200",
					"fontname" : "Arial",
					"numinlets" : 2,
					"fontsize" : 9.0,
					"numoutlets" : 1
				}

			}
, 			{
				"box" : 				{
					"maxclass" : "newobj",
					"text" : "sel 9",
					"outlettype" : [ "bang", "" ],
					"patching_rect" : [ 737.0, 682.0, 30.0, 17.0 ],
					"id" : "obj-201",
					"fontname" : "Arial",
					"numinlets" : 2,
					"fontsize" : 9.0,
					"numoutlets" : 2
				}

			}
, 			{
				"box" : 				{
					"maxclass" : "message",
					"text" : "select",
					"outlettype" : [ "" ],
					"patching_rect" : [ 724.0, 606.0, 34.0, 15.0 ],
					"id" : "obj-202",
					"fontname" : "Arial",
					"numinlets" : 2,
					"fontsize" : 9.0,
					"numoutlets" : 1
				}

			}
, 			{
				"box" : 				{
					"maxclass" : "newobj",
					"text" : "sel 9",
					"outlettype" : [ "bang", "" ],
					"patching_rect" : [ 681.0, 602.0, 30.0, 17.0 ],
					"id" : "obj-203",
					"fontname" : "Arial",
					"numinlets" : 2,
					"fontsize" : 9.0,
					"numoutlets" : 2
				}

			}
, 			{
				"box" : 				{
					"maxclass" : "message",
					"text" : "select",
					"outlettype" : [ "" ],
					"patching_rect" : [ 727.0, 529.0, 34.0, 15.0 ],
					"id" : "obj-204",
					"fontname" : "Arial",
					"numinlets" : 2,
					"fontsize" : 9.0,
					"numoutlets" : 1
				}

			}
, 			{
				"box" : 				{
					"maxclass" : "newobj",
					"text" : "sel 9",
					"outlettype" : [ "bang", "" ],
					"patching_rect" : [ 684.0, 525.0, 30.0, 17.0 ],
					"id" : "obj-205",
					"fontname" : "Arial",
					"numinlets" : 2,
					"fontsize" : 9.0,
					"numoutlets" : 2
				}

			}
, 			{
				"box" : 				{
					"maxclass" : "message",
					"text" : "select",
					"outlettype" : [ "" ],
					"patching_rect" : [ 488.0, 683.0, 34.0, 15.0 ],
					"id" : "obj-194",
					"fontname" : "Arial",
					"numinlets" : 2,
					"fontsize" : 9.0,
					"numoutlets" : 1
				}

			}
, 			{
				"box" : 				{
					"maxclass" : "newobj",
					"text" : "sel 9",
					"outlettype" : [ "bang", "" ],
					"patching_rect" : [ 445.0, 679.0, 30.0, 17.0 ],
					"id" : "obj-195",
					"fontname" : "Arial",
					"numinlets" : 2,
					"fontsize" : 9.0,
					"numoutlets" : 2
				}

			}
, 			{
				"box" : 				{
					"maxclass" : "message",
					"text" : "select",
					"outlettype" : [ "" ],
					"patching_rect" : [ 432.0, 603.0, 34.0, 15.0 ],
					"id" : "obj-196",
					"fontname" : "Arial",
					"numinlets" : 2,
					"fontsize" : 9.0,
					"numoutlets" : 1
				}

			}
, 			{
				"box" : 				{
					"maxclass" : "newobj",
					"text" : "sel 9",
					"outlettype" : [ "bang", "" ],
					"patching_rect" : [ 389.0, 599.0, 30.0, 17.0 ],
					"id" : "obj-197",
					"fontname" : "Arial",
					"numinlets" : 2,
					"fontsize" : 9.0,
					"numoutlets" : 2
				}

			}
, 			{
				"box" : 				{
					"maxclass" : "message",
					"text" : "select",
					"outlettype" : [ "" ],
					"patching_rect" : [ 435.0, 526.0, 34.0, 15.0 ],
					"id" : "obj-198",
					"fontname" : "Arial",
					"numinlets" : 2,
					"fontsize" : 9.0,
					"numoutlets" : 1
				}

			}
, 			{
				"box" : 				{
					"maxclass" : "newobj",
					"text" : "sel 9",
					"outlettype" : [ "bang", "" ],
					"patching_rect" : [ 392.0, 522.0, 30.0, 17.0 ],
					"id" : "obj-199",
					"fontname" : "Arial",
					"numinlets" : 2,
					"fontsize" : 9.0,
					"numoutlets" : 2
				}

			}
, 			{
				"box" : 				{
					"maxclass" : "message",
					"text" : "select",
					"outlettype" : [ "" ],
					"patching_rect" : [ 197.0, 683.0, 34.0, 15.0 ],
					"id" : "obj-192",
					"fontname" : "Arial",
					"numinlets" : 2,
					"fontsize" : 9.0,
					"numoutlets" : 1
				}

			}
, 			{
				"box" : 				{
					"maxclass" : "newobj",
					"text" : "sel 9",
					"outlettype" : [ "bang", "" ],
					"patching_rect" : [ 154.0, 679.0, 30.0, 17.0 ],
					"id" : "obj-193",
					"fontname" : "Arial",
					"numinlets" : 2,
					"fontsize" : 9.0,
					"numoutlets" : 2
				}

			}
, 			{
				"box" : 				{
					"maxclass" : "message",
					"text" : "select",
					"outlettype" : [ "" ],
					"patching_rect" : [ 141.0, 603.0, 34.0, 15.0 ],
					"id" : "obj-190",
					"fontname" : "Arial",
					"numinlets" : 2,
					"fontsize" : 9.0,
					"numoutlets" : 1
				}

			}
, 			{
				"box" : 				{
					"maxclass" : "newobj",
					"text" : "sel 9",
					"outlettype" : [ "bang", "" ],
					"patching_rect" : [ 98.0, 599.0, 30.0, 17.0 ],
					"id" : "obj-191",
					"fontname" : "Arial",
					"numinlets" : 2,
					"fontsize" : 9.0,
					"numoutlets" : 2
				}

			}
, 			{
				"box" : 				{
					"maxclass" : "message",
					"text" : "select",
					"outlettype" : [ "" ],
					"patching_rect" : [ 144.0, 526.0, 34.0, 15.0 ],
					"id" : "obj-188",
					"fontname" : "Arial",
					"numinlets" : 2,
					"fontsize" : 9.0,
					"numoutlets" : 1
				}

			}
, 			{
				"box" : 				{
					"maxclass" : "newobj",
					"text" : "sel 9",
					"outlettype" : [ "bang", "" ],
					"patching_rect" : [ 101.0, 522.0, 30.0, 17.0 ],
					"id" : "obj-189",
					"fontname" : "Arial",
					"numinlets" : 2,
					"fontsize" : 9.0,
					"numoutlets" : 2
				}

			}
, 			{
				"box" : 				{
					"maxclass" : "message",
					"text" : "select",
					"outlettype" : [ "" ],
					"patching_rect" : [ 1051.0, 447.0, 34.0, 15.0 ],
					"id" : "obj-186",
					"fontname" : "Arial",
					"numinlets" : 2,
					"fontsize" : 9.0,
					"numoutlets" : 1
				}

			}
, 			{
				"box" : 				{
					"maxclass" : "newobj",
					"text" : "sel 9",
					"outlettype" : [ "bang", "" ],
					"patching_rect" : [ 998.0, 447.0, 30.0, 17.0 ],
					"id" : "obj-187",
					"fontname" : "Arial",
					"numinlets" : 2,
					"fontsize" : 9.0,
					"numoutlets" : 2
				}

			}
, 			{
				"box" : 				{
					"maxclass" : "message",
					"text" : "select",
					"outlettype" : [ "" ],
					"patching_rect" : [ 985.0, 370.0, 34.0, 15.0 ],
					"id" : "obj-184",
					"fontname" : "Arial",
					"numinlets" : 2,
					"fontsize" : 9.0,
					"numoutlets" : 1
				}

			}
, 			{
				"box" : 				{
					"maxclass" : "newobj",
					"text" : "sel 9",
					"outlettype" : [ "bang", "" ],
					"patching_rect" : [ 932.0, 370.0, 30.0, 17.0 ],
					"id" : "obj-185",
					"fontname" : "Arial",
					"numinlets" : 2,
					"fontsize" : 9.0,
					"numoutlets" : 2
				}

			}
, 			{
				"box" : 				{
					"maxclass" : "message",
					"text" : "select",
					"outlettype" : [ "" ],
					"patching_rect" : [ 1000.0, 282.0, 34.0, 15.0 ],
					"id" : "obj-182",
					"fontname" : "Arial",
					"numinlets" : 2,
					"fontsize" : 9.0,
					"numoutlets" : 1
				}

			}
, 			{
				"box" : 				{
					"maxclass" : "newobj",
					"text" : "sel 9",
					"outlettype" : [ "bang", "" ],
					"patching_rect" : [ 947.0, 282.0, 30.0, 17.0 ],
					"id" : "obj-183",
					"fontname" : "Arial",
					"numinlets" : 2,
					"fontsize" : 9.0,
					"numoutlets" : 2
				}

			}
, 			{
				"box" : 				{
					"maxclass" : "message",
					"text" : "select",
					"outlettype" : [ "" ],
					"patching_rect" : [ 770.0, 444.0, 34.0, 15.0 ],
					"id" : "obj-180",
					"fontname" : "Arial",
					"numinlets" : 2,
					"fontsize" : 9.0,
					"numoutlets" : 1
				}

			}
, 			{
				"box" : 				{
					"maxclass" : "newobj",
					"text" : "sel 9",
					"outlettype" : [ "bang", "" ],
					"patching_rect" : [ 717.0, 444.0, 30.0, 17.0 ],
					"id" : "obj-181",
					"fontname" : "Arial",
					"numinlets" : 2,
					"fontsize" : 9.0,
					"numoutlets" : 2
				}

			}
, 			{
				"box" : 				{
					"maxclass" : "message",
					"text" : "select",
					"outlettype" : [ "" ],
					"patching_rect" : [ 715.0, 362.0, 34.0, 15.0 ],
					"id" : "obj-178",
					"fontname" : "Arial",
					"numinlets" : 2,
					"fontsize" : 9.0,
					"numoutlets" : 1
				}

			}
, 			{
				"box" : 				{
					"maxclass" : "newobj",
					"text" : "sel 9",
					"outlettype" : [ "bang", "" ],
					"patching_rect" : [ 662.0, 362.0, 30.0, 17.0 ],
					"id" : "obj-179",
					"fontname" : "Arial",
					"numinlets" : 2,
					"fontsize" : 9.0,
					"numoutlets" : 2
				}

			}
, 			{
				"box" : 				{
					"maxclass" : "message",
					"text" : "select",
					"outlettype" : [ "" ],
					"patching_rect" : [ 724.0, 291.0, 34.0, 15.0 ],
					"id" : "obj-176",
					"fontname" : "Arial",
					"numinlets" : 2,
					"fontsize" : 9.0,
					"numoutlets" : 1
				}

			}
, 			{
				"box" : 				{
					"maxclass" : "newobj",
					"text" : "sel 9",
					"outlettype" : [ "bang", "" ],
					"patching_rect" : [ 671.0, 291.0, 30.0, 17.0 ],
					"id" : "obj-177",
					"fontname" : "Arial",
					"numinlets" : 2,
					"fontsize" : 9.0,
					"numoutlets" : 2
				}

			}
, 			{
				"box" : 				{
					"maxclass" : "message",
					"text" : "select",
					"outlettype" : [ "" ],
					"patching_rect" : [ 490.0, 442.0, 34.0, 15.0 ],
					"id" : "obj-174",
					"fontname" : "Arial",
					"numinlets" : 2,
					"fontsize" : 9.0,
					"numoutlets" : 1
				}

			}
, 			{
				"box" : 				{
					"maxclass" : "newobj",
					"text" : "sel 9",
					"outlettype" : [ "bang", "" ],
					"patching_rect" : [ 437.0, 442.0, 30.0, 17.0 ],
					"id" : "obj-175",
					"fontname" : "Arial",
					"numinlets" : 2,
					"fontsize" : 9.0,
					"numoutlets" : 2
				}

			}
, 			{
				"box" : 				{
					"maxclass" : "message",
					"text" : "select",
					"outlettype" : [ "" ],
					"patching_rect" : [ 199.0, 455.0, 34.0, 15.0 ],
					"id" : "obj-172",
					"fontname" : "Arial",
					"numinlets" : 2,
					"fontsize" : 9.0,
					"numoutlets" : 1
				}

			}
, 			{
				"box" : 				{
					"maxclass" : "newobj",
					"text" : "sel 9",
					"outlettype" : [ "bang", "" ],
					"patching_rect" : [ 175.0, 435.0, 30.0, 17.0 ],
					"id" : "obj-173",
					"fontname" : "Arial",
					"numinlets" : 2,
					"fontsize" : 9.0,
					"numoutlets" : 2
				}

			}
, 			{
				"box" : 				{
					"maxclass" : "message",
					"text" : "select",
					"outlettype" : [ "" ],
					"patching_rect" : [ 437.0, 371.0, 34.0, 15.0 ],
					"id" : "obj-170",
					"fontname" : "Arial",
					"numinlets" : 2,
					"fontsize" : 9.0,
					"numoutlets" : 1
				}

			}
, 			{
				"box" : 				{
					"maxclass" : "newobj",
					"text" : "sel 9",
					"outlettype" : [ "bang", "" ],
					"patching_rect" : [ 384.0, 371.0, 30.0, 17.0 ],
					"id" : "obj-171",
					"fontname" : "Arial",
					"numinlets" : 2,
					"fontsize" : 9.0,
					"numoutlets" : 2
				}

			}
, 			{
				"box" : 				{
					"maxclass" : "message",
					"text" : "select",
					"outlettype" : [ "" ],
					"patching_rect" : [ 425.0, 292.0, 34.0, 15.0 ],
					"id" : "obj-168",
					"fontname" : "Arial",
					"numinlets" : 2,
					"fontsize" : 9.0,
					"numoutlets" : 1
				}

			}
, 			{
				"box" : 				{
					"maxclass" : "newobj",
					"text" : "sel 9",
					"outlettype" : [ "bang", "" ],
					"patching_rect" : [ 372.0, 292.0, 30.0, 17.0 ],
					"id" : "obj-169",
					"fontname" : "Arial",
					"numinlets" : 2,
					"fontsize" : 9.0,
					"numoutlets" : 2
				}

			}
, 			{
				"box" : 				{
					"maxclass" : "message",
					"text" : "select",
					"outlettype" : [ "" ],
					"patching_rect" : [ 172.0, 365.0, 34.0, 15.0 ],
					"id" : "obj-166",
					"fontname" : "Arial",
					"numinlets" : 2,
					"fontsize" : 9.0,
					"numoutlets" : 1
				}

			}
, 			{
				"box" : 				{
					"maxclass" : "newobj",
					"text" : "sel 9",
					"outlettype" : [ "bang", "" ],
					"patching_rect" : [ 119.0, 365.0, 30.0, 17.0 ],
					"id" : "obj-167",
					"fontname" : "Arial",
					"numinlets" : 2,
					"fontsize" : 9.0,
					"numoutlets" : 2
				}

			}
, 			{
				"box" : 				{
					"maxclass" : "message",
					"text" : "select",
					"outlettype" : [ "" ],
					"patching_rect" : [ 147.0, 295.0, 34.0, 15.0 ],
					"id" : "obj-165",
					"fontname" : "Arial",
					"numinlets" : 2,
					"fontsize" : 9.0,
					"numoutlets" : 1
				}

			}
, 			{
				"box" : 				{
					"maxclass" : "newobj",
					"text" : "sel 9",
					"outlettype" : [ "bang", "" ],
					"patching_rect" : [ 94.0, 295.0, 30.0, 17.0 ],
					"id" : "obj-163",
					"fontname" : "Arial",
					"numinlets" : 2,
					"fontsize" : 9.0,
					"numoutlets" : 2
				}

			}
, 			{
				"box" : 				{
					"maxclass" : "number",
					"varname" : "streamcount",
					"presentation_rect" : [ 240.0, 21.0, 35.0, 19.0 ],
					"outlettype" : [ "int", "bang" ],
					"patching_rect" : [ 276.0, 24.0, 23.0, 19.0 ],
					"triscale" : 0.9,
					"presentation" : 1,
					"id" : "obj-117",
					"fontname" : "Verdana",
					"triangle" : 0,
					"minimum" : 1,
					"numinlets" : 1,
					"fontsize" : 10.0,
					"maximum" : 8,
					"numoutlets" : 2
				}

			}
, 			{
				"box" : 				{
					"maxclass" : "jsui",
					"varname" : "print_button",
					"presentation_rect" : [ 550.0, 21.0, 45.0, 19.0 ],
					"jsarguments" : [ "Print", "Print" ],
					"outlettype" : [ "", "" ],
					"patching_rect" : [ 550.0, 20.0, 45.0, 19.0 ],
					"presentation" : 1,
					"id" : "obj-1",
					"nofsaa" : 1,
					"filename" : "jcom.jsui_texttoggle.js",
					"numinlets" : 1,
					"numoutlets" : 2
				}

			}
, 			{
				"box" : 				{
					"maxclass" : "newobj",
					"text" : "pvar print_button",
					"outlettype" : [ "" ],
					"patching_rect" : [ 308.0, 223.0, 79.0, 17.0 ],
					"id" : "obj-2",
					"fontname" : "Arial",
					"numinlets" : 1,
					"fontsize" : 9.0,
					"numoutlets" : 1
				}

			}
, 			{
				"box" : 				{
					"maxclass" : "newobj",
					"varname" : "print",
					"text" : "jcom.parameter print @type msg_toggle @description \"Print script messages to Max window\"",
					"linecount" : 2,
					"outlettype" : [ "", "", "" ],
					"patching_rect" : [ 308.0, 243.0, 252.0, 27.0 ],
					"id" : "obj-3",
					"fontname" : "Arial",
					"numinlets" : 1,
					"fontsize" : 9.0,
					"numoutlets" : 3
				}

			}
, 			{
				"box" : 				{
					"maxclass" : "newobj",
					"text" : "route text",
					"outlettype" : [ "", "" ],
					"patching_rect" : [ 867.0, 616.0, 48.0, 17.0 ],
					"id" : "obj-4",
					"fontname" : "Arial",
					"numinlets" : 1,
					"fontsize" : 9.0,
					"numoutlets" : 2
				}

			}
, 			{
				"box" : 				{
					"maxclass" : "newobj",
					"varname" : "stream/7/description",
					"text" : "jcom.parameter stream/7/description @type msg_symbol @description \"one word stream description\"",
					"linecount" : 2,
					"outlettype" : [ "", "", "" ],
					"patching_rect" : [ 867.0, 710.0, 239.0, 27.0 ],
					"id" : "obj-5",
					"fontname" : "Arial",
					"numinlets" : 1,
					"fontsize" : 9.0,
					"numoutlets" : 3
				}

			}
, 			{
				"box" : 				{
					"maxclass" : "newobj",
					"varname" : "stream/7/variables",
					"text" : "jcom.parameter stream/7/variables @type msg_symbol @description \"Martix row variables. separated by \\\\,\"",
					"linecount" : 2,
					"outlettype" : [ "", "", "" ],
					"patching_rect" : [ 867.0, 636.0, 236.0, 27.0 ],
					"id" : "obj-6",
					"fontname" : "Arial",
					"numinlets" : 1,
					"fontsize" : 9.0,
					"numoutlets" : 3
				}

			}
, 			{
				"box" : 				{
					"maxclass" : "newobj",
					"varname" : "stream/7/ID",
					"text" : "jcom.parameter stream/7/ID @type msg_symbol @description \"4 letter frame/matrix identificator. e.g. 1MID or XPOS\"",
					"linecount" : 2,
					"outlettype" : [ "", "", "" ],
					"patching_rect" : [ 867.0, 561.0, 265.0, 27.0 ],
					"id" : "obj-7",
					"fontname" : "Arial",
					"numinlets" : 1,
					"fontsize" : 9.0,
					"numoutlets" : 3
				}

			}
, 			{
				"box" : 				{
					"maxclass" : "newobj",
					"varname" : "stream/6/description",
					"text" : "jcom.parameter stream/6/description @type msg_symbol @description \"one word stream description\"",
					"linecount" : 2,
					"outlettype" : [ "", "", "" ],
					"patching_rect" : [ 588.0, 710.0, 245.0, 27.0 ],
					"id" : "obj-8",
					"fontname" : "Arial",
					"numinlets" : 1,
					"fontsize" : 9.0,
					"numoutlets" : 3
				}

			}
, 			{
				"box" : 				{
					"maxclass" : "newobj",
					"varname" : "stream/6/variables",
					"text" : "jcom.parameter stream/6/variables @type msg_symbol @description \"Martix row variables. separated by \\\\,\"",
					"linecount" : 2,
					"outlettype" : [ "", "", "" ],
					"patching_rect" : [ 588.0, 636.0, 242.0, 27.0 ],
					"id" : "obj-9",
					"fontname" : "Arial",
					"numinlets" : 1,
					"fontsize" : 9.0,
					"numoutlets" : 3
				}

			}
, 			{
				"box" : 				{
					"maxclass" : "newobj",
					"varname" : "stream/6/ID",
					"text" : "jcom.parameter stream/6/ID @type msg_symbol @description \"4 letter frame/matrix identificator. e.g. 1MID or XPOS\"",
					"linecount" : 2,
					"outlettype" : [ "", "", "" ],
					"patching_rect" : [ 588.0, 561.0, 271.0, 27.0 ],
					"id" : "obj-10",
					"fontname" : "Arial",
					"numinlets" : 1,
					"fontsize" : 9.0,
					"numoutlets" : 3
				}

			}
, 			{
				"box" : 				{
					"maxclass" : "newobj",
					"text" : "route text",
					"outlettype" : [ "", "" ],
					"patching_rect" : [ 867.0, 541.0, 48.0, 17.0 ],
					"id" : "obj-11",
					"fontname" : "Arial",
					"numinlets" : 1,
					"fontsize" : 9.0,
					"numoutlets" : 2
				}

			}
, 			{
				"box" : 				{
					"maxclass" : "newobj",
					"text" : "route text",
					"outlettype" : [ "", "" ],
					"patching_rect" : [ 867.0, 690.0, 48.0, 17.0 ],
					"id" : "obj-12",
					"fontname" : "Arial",
					"numinlets" : 1,
					"fontsize" : 9.0,
					"numoutlets" : 2
				}

			}
, 			{
				"box" : 				{
					"maxclass" : "newobj",
					"text" : "route text",
					"outlettype" : [ "", "" ],
					"patching_rect" : [ 588.0, 616.0, 48.0, 17.0 ],
					"id" : "obj-13",
					"fontname" : "Arial",
					"numinlets" : 1,
					"fontsize" : 9.0,
					"numoutlets" : 2
				}

			}
, 			{
				"box" : 				{
					"maxclass" : "newobj",
					"text" : "route text",
					"outlettype" : [ "", "" ],
					"patching_rect" : [ 588.0, 541.0, 48.0, 17.0 ],
					"id" : "obj-14",
					"fontname" : "Arial",
					"numinlets" : 1,
					"fontsize" : 9.0,
					"numoutlets" : 2
				}

			}
, 			{
				"box" : 				{
					"maxclass" : "newobj",
					"text" : "route text",
					"outlettype" : [ "", "" ],
					"patching_rect" : [ 588.0, 690.0, 48.0, 17.0 ],
					"id" : "obj-15",
					"fontname" : "Arial",
					"numinlets" : 1,
					"fontsize" : 9.0,
					"numoutlets" : 2
				}

			}
, 			{
				"box" : 				{
					"maxclass" : "newobj",
					"text" : "route text",
					"outlettype" : [ "", "" ],
					"patching_rect" : [ 308.0, 616.0, 48.0, 17.0 ],
					"id" : "obj-16",
					"fontname" : "Arial",
					"numinlets" : 1,
					"fontsize" : 9.0,
					"numoutlets" : 2
				}

			}
, 			{
				"box" : 				{
					"maxclass" : "newobj",
					"varname" : "stream/5/description",
					"text" : "jcom.parameter stream/5/description @type msg_symbol @description \"one word stream description\"",
					"linecount" : 2,
					"outlettype" : [ "", "", "" ],
					"patching_rect" : [ 308.0, 710.0, 245.0, 27.0 ],
					"id" : "obj-17",
					"fontname" : "Arial",
					"numinlets" : 1,
					"fontsize" : 9.0,
					"numoutlets" : 3
				}

			}
, 			{
				"box" : 				{
					"maxclass" : "newobj",
					"varname" : "stream/5/variables",
					"text" : "jcom.parameter stream/5/variables @type msg_symbol @description \"Martix row variables. separated by \\\\,\"",
					"linecount" : 2,
					"outlettype" : [ "", "", "" ],
					"patching_rect" : [ 308.0, 636.0, 242.0, 27.0 ],
					"id" : "obj-18",
					"fontname" : "Arial",
					"numinlets" : 1,
					"fontsize" : 9.0,
					"numoutlets" : 3
				}

			}
, 			{
				"box" : 				{
					"maxclass" : "newobj",
					"varname" : "stream/5/ID",
					"text" : "jcom.parameter stream/5/ID @type msg_symbol @description \"4 letter frame/matrix identificator. e.g. 1MID or XPOS\"",
					"linecount" : 2,
					"outlettype" : [ "", "", "" ],
					"patching_rect" : [ 308.0, 561.0, 271.0, 27.0 ],
					"id" : "obj-19",
					"fontname" : "Arial",
					"numinlets" : 1,
					"fontsize" : 9.0,
					"numoutlets" : 3
				}

			}
, 			{
				"box" : 				{
					"maxclass" : "newobj",
					"varname" : "stream/4/description",
					"text" : "jcom.parameter stream/4/description @type msg_symbol @description \"one word stream description\"",
					"linecount" : 2,
					"outlettype" : [ "", "", "" ],
					"patching_rect" : [ 25.0, 710.0, 245.0, 27.0 ],
					"id" : "obj-20",
					"fontname" : "Arial",
					"numinlets" : 1,
					"fontsize" : 9.0,
					"numoutlets" : 3
				}

			}
, 			{
				"box" : 				{
					"maxclass" : "newobj",
					"varname" : "stream/4/variables",
					"text" : "jcom.parameter stream/4/variables @type msg_symbol @description \"Martix row variables. separated by \\\\,\"",
					"linecount" : 2,
					"outlettype" : [ "", "", "" ],
					"patching_rect" : [ 25.0, 636.0, 242.0, 27.0 ],
					"id" : "obj-21",
					"fontname" : "Arial",
					"numinlets" : 1,
					"fontsize" : 9.0,
					"numoutlets" : 3
				}

			}
, 			{
				"box" : 				{
					"maxclass" : "newobj",
					"varname" : "stream/4/ID",
					"text" : "jcom.parameter stream/4/ID @type msg_symbol @description \"4 letter frame/matrix identificator. e.g. 1MID or XPOS\"",
					"linecount" : 2,
					"outlettype" : [ "", "", "" ],
					"patching_rect" : [ 25.0, 561.0, 271.0, 27.0 ],
					"id" : "obj-22",
					"fontname" : "Arial",
					"numinlets" : 1,
					"fontsize" : 9.0,
					"numoutlets" : 3
				}

			}
, 			{
				"box" : 				{
					"maxclass" : "newobj",
					"text" : "route text",
					"outlettype" : [ "", "" ],
					"patching_rect" : [ 308.0, 541.0, 48.0, 17.0 ],
					"id" : "obj-23",
					"fontname" : "Arial",
					"numinlets" : 1,
					"fontsize" : 9.0,
					"numoutlets" : 2
				}

			}
, 			{
				"box" : 				{
					"maxclass" : "newobj",
					"text" : "route text",
					"outlettype" : [ "", "" ],
					"patching_rect" : [ 308.0, 690.0, 48.0, 17.0 ],
					"id" : "obj-24",
					"fontname" : "Arial",
					"numinlets" : 1,
					"fontsize" : 9.0,
					"numoutlets" : 2
				}

			}
, 			{
				"box" : 				{
					"maxclass" : "newobj",
					"text" : "route text",
					"outlettype" : [ "", "" ],
					"patching_rect" : [ 25.0, 616.0, 48.0, 17.0 ],
					"id" : "obj-25",
					"fontname" : "Arial",
					"numinlets" : 1,
					"fontsize" : 9.0,
					"numoutlets" : 2
				}

			}
, 			{
				"box" : 				{
					"maxclass" : "newobj",
					"text" : "route text",
					"outlettype" : [ "", "" ],
					"patching_rect" : [ 25.0, 541.0, 48.0, 17.0 ],
					"id" : "obj-26",
					"fontname" : "Arial",
					"numinlets" : 1,
					"fontsize" : 9.0,
					"numoutlets" : 2
				}

			}
, 			{
				"box" : 				{
					"maxclass" : "newobj",
					"text" : "route text",
					"outlettype" : [ "", "" ],
					"patching_rect" : [ 25.0, 690.0, 48.0, 17.0 ],
					"id" : "obj-27",
					"fontname" : "Arial",
					"numinlets" : 1,
					"fontsize" : 9.0,
					"numoutlets" : 2
				}

			}
, 			{
				"box" : 				{
					"maxclass" : "inlet",
					"outlettype" : [ "" ],
					"patching_rect" : [ 1126.0, 68.0, 13.0, 13.0 ],
					"id" : "obj-28",
					"numinlets" : 0,
					"numoutlets" : 1,
					"comment" : "data input to be recorded"
				}

			}
, 			{
				"box" : 				{
					"maxclass" : "newobj",
					"varname" : "jalg.sdif.player[5]",
					"text" : "jcom.message file @type msg_symbol @description \"full path of sdif file to record\"",
					"outlettype" : [ "", "", "" ],
					"patching_rect" : [ 833.0, 243.0, 388.0, 17.0 ],
					"id" : "obj-29",
					"fontname" : "Arial",
					"numinlets" : 1,
					"fontsize" : 9.0,
					"numoutlets" : 3
				}

			}
, 			{
				"box" : 				{
					"maxclass" : "textedit",
					"presentation_rect" : [ 117.0, 185.0, 338.0, 18.0 ],
					"outputmode" : 1,
					"outlettype" : [ "", "int", "", "" ],
					"patching_rect" : [ 867.0, 595.0, 60.0, 18.0 ],
					"presentation" : 1,
					"id" : "obj-30",
					"fontname" : "Arial",
					"lines" : 1,
					"numinlets" : 1,
					"fontsize" : 9.0,
					"keymode" : 1,
					"numoutlets" : 4
				}

			}
, 			{
				"box" : 				{
					"maxclass" : "comment",
					"text" : "Stream 7",
					"presentation_rect" : [ 6.0, 185.0, 59.0, 19.0 ],
					"patching_rect" : [ 6.0, 185.0, 59.0, 19.0 ],
					"textcolor" : [ 0.709804, 0.709804, 0.709804, 1.0 ],
					"presentation" : 1,
					"id" : "obj-31",
					"fontname" : "Verdana",
					"frgb" : [ 0.709804, 0.709804, 0.709804, 1.0 ],
					"numinlets" : 1,
					"fontsize" : 10.0,
					"numoutlets" : 0
				}

			}
, 			{
				"box" : 				{
					"maxclass" : "textedit",
					"presentation_rect" : [ 68.0, 185.0, 44.0, 18.0 ],
					"outputmode" : 1,
					"outlettype" : [ "", "int", "", "" ],
					"patching_rect" : [ 867.0, 520.0, 60.0, 18.0 ],
					"presentation" : 1,
					"id" : "obj-32",
					"fontname" : "Arial",
					"lines" : 1,
					"numinlets" : 1,
					"fontsize" : 9.0,
					"keymode" : 1,
					"numoutlets" : 4
				}

			}
, 			{
				"box" : 				{
					"maxclass" : "textedit",
					"presentation_rect" : [ 465.0, 185.0, 123.0, 18.0 ],
					"outlettype" : [ "", "int", "", "" ],
					"patching_rect" : [ 867.0, 669.0, 123.0, 18.0 ],
					"presentation" : 1,
					"id" : "obj-33",
					"fontname" : "Arial",
					"lines" : 1,
					"numinlets" : 1,
					"fontsize" : 9.0,
					"keymode" : 1,
					"numoutlets" : 4
				}

			}
, 			{
				"box" : 				{
					"maxclass" : "textedit",
					"presentation_rect" : [ 117.0, 167.0, 338.0, 18.0 ],
					"outputmode" : 1,
					"outlettype" : [ "", "int", "", "" ],
					"patching_rect" : [ 588.0, 595.0, 67.0, 18.0 ],
					"presentation" : 1,
					"id" : "obj-34",
					"fontname" : "Arial",
					"lines" : 1,
					"numinlets" : 1,
					"fontsize" : 9.0,
					"keymode" : 1,
					"numoutlets" : 4
				}

			}
, 			{
				"box" : 				{
					"maxclass" : "comment",
					"text" : "Stream 6",
					"presentation_rect" : [ 6.0, 167.0, 59.0, 19.0 ],
					"patching_rect" : [ 6.0, 168.0, 59.0, 19.0 ],
					"textcolor" : [ 0.709804, 0.709804, 0.709804, 1.0 ],
					"presentation" : 1,
					"id" : "obj-35",
					"fontname" : "Verdana",
					"frgb" : [ 0.709804, 0.709804, 0.709804, 1.0 ],
					"numinlets" : 1,
					"fontsize" : 10.0,
					"numoutlets" : 0
				}

			}
, 			{
				"box" : 				{
					"maxclass" : "textedit",
					"presentation_rect" : [ 68.0, 167.0, 44.0, 18.0 ],
					"outputmode" : 1,
					"outlettype" : [ "", "int", "", "" ],
					"patching_rect" : [ 588.0, 520.0, 60.0, 18.0 ],
					"presentation" : 1,
					"id" : "obj-36",
					"fontname" : "Arial",
					"lines" : 1,
					"numinlets" : 1,
					"fontsize" : 9.0,
					"keymode" : 1,
					"numoutlets" : 4
				}

			}
, 			{
				"box" : 				{
					"maxclass" : "textedit",
					"presentation_rect" : [ 465.0, 167.0, 123.0, 18.0 ],
					"outlettype" : [ "", "int", "", "" ],
					"patching_rect" : [ 588.0, 669.0, 123.0, 18.0 ],
					"presentation" : 1,
					"id" : "obj-37",
					"fontname" : "Arial",
					"lines" : 1,
					"numinlets" : 1,
					"fontsize" : 9.0,
					"keymode" : 1,
					"numoutlets" : 4
				}

			}
, 			{
				"box" : 				{
					"maxclass" : "textedit",
					"presentation_rect" : [ 117.0, 149.0, 338.0, 18.0 ],
					"outputmode" : 1,
					"outlettype" : [ "", "int", "", "" ],
					"patching_rect" : [ 308.0, 595.0, 67.0, 18.0 ],
					"presentation" : 1,
					"id" : "obj-38",
					"fontname" : "Arial",
					"lines" : 1,
					"numinlets" : 1,
					"fontsize" : 9.0,
					"keymode" : 1,
					"numoutlets" : 4
				}

			}
, 			{
				"box" : 				{
					"maxclass" : "comment",
					"text" : "Stream 5",
					"presentation_rect" : [ 6.0, 149.0, 59.0, 19.0 ],
					"patching_rect" : [ 6.0, 151.0, 59.0, 19.0 ],
					"textcolor" : [ 0.709804, 0.709804, 0.709804, 1.0 ],
					"presentation" : 1,
					"id" : "obj-39",
					"fontname" : "Verdana",
					"frgb" : [ 0.709804, 0.709804, 0.709804, 1.0 ],
					"numinlets" : 1,
					"fontsize" : 10.0,
					"numoutlets" : 0
				}

			}
, 			{
				"box" : 				{
					"maxclass" : "textedit",
					"presentation_rect" : [ 68.0, 149.0, 44.0, 18.0 ],
					"outputmode" : 1,
					"outlettype" : [ "", "int", "", "" ],
					"patching_rect" : [ 308.0, 520.0, 60.0, 18.0 ],
					"presentation" : 1,
					"id" : "obj-40",
					"fontname" : "Arial",
					"lines" : 1,
					"numinlets" : 1,
					"fontsize" : 9.0,
					"keymode" : 1,
					"numoutlets" : 4
				}

			}
, 			{
				"box" : 				{
					"maxclass" : "textedit",
					"presentation_rect" : [ 465.0, 149.0, 123.0, 18.0 ],
					"outlettype" : [ "", "int", "", "" ],
					"patching_rect" : [ 308.0, 669.0, 123.0, 18.0 ],
					"presentation" : 1,
					"id" : "obj-41",
					"fontname" : "Arial",
					"lines" : 1,
					"numinlets" : 1,
					"fontsize" : 9.0,
					"keymode" : 1,
					"numoutlets" : 4
				}

			}
, 			{
				"box" : 				{
					"maxclass" : "textedit",
					"presentation_rect" : [ 117.0, 131.0, 338.0, 18.0 ],
					"outputmode" : 1,
					"outlettype" : [ "", "int", "", "" ],
					"patching_rect" : [ 25.0, 595.0, 67.0, 18.0 ],
					"presentation" : 1,
					"id" : "obj-42",
					"fontname" : "Arial",
					"lines" : 1,
					"numinlets" : 1,
					"fontsize" : 9.0,
					"keymode" : 1,
					"numoutlets" : 4
				}

			}
, 			{
				"box" : 				{
					"maxclass" : "comment",
					"text" : "Stream 4",
					"presentation_rect" : [ 6.0, 131.0, 59.0, 19.0 ],
					"patching_rect" : [ 6.0, 134.0, 59.0, 19.0 ],
					"textcolor" : [ 0.709804, 0.709804, 0.709804, 1.0 ],
					"presentation" : 1,
					"id" : "obj-43",
					"fontname" : "Verdana",
					"frgb" : [ 0.709804, 0.709804, 0.709804, 1.0 ],
					"numinlets" : 1,
					"fontsize" : 10.0,
					"numoutlets" : 0
				}

			}
, 			{
				"box" : 				{
					"maxclass" : "textedit",
					"presentation_rect" : [ 68.0, 131.0, 44.0, 18.0 ],
					"outputmode" : 1,
					"outlettype" : [ "", "int", "", "" ],
					"patching_rect" : [ 25.0, 520.0, 60.0, 18.0 ],
					"presentation" : 1,
					"id" : "obj-44",
					"fontname" : "Arial",
					"lines" : 1,
					"numinlets" : 1,
					"fontsize" : 9.0,
					"keymode" : 1,
					"numoutlets" : 4
				}

			}
, 			{
				"box" : 				{
					"maxclass" : "textedit",
					"presentation_rect" : [ 465.0, 131.0, 123.0, 18.0 ],
					"outlettype" : [ "", "int", "", "" ],
					"patching_rect" : [ 25.0, 669.0, 123.0, 18.0 ],
					"presentation" : 1,
					"id" : "obj-45",
					"fontname" : "Arial",
					"lines" : 1,
					"numinlets" : 1,
					"fontsize" : 9.0,
					"keymode" : 1,
					"numoutlets" : 4
				}

			}
, 			{
				"box" : 				{
					"maxclass" : "newobj",
					"text" : "pvar record_button",
					"outlettype" : [ "" ],
					"patching_rect" : [ 588.0, 223.0, 87.0, 17.0 ],
					"id" : "obj-46",
					"fontname" : "Arial",
					"numinlets" : 1,
					"fontsize" : 9.0,
					"numoutlets" : 1
				}

			}
, 			{
				"box" : 				{
					"maxclass" : "newobj",
					"varname" : "record",
					"text" : "jcom.parameter record @type msg_toggle @description \"Start/Stop recording\"",
					"linecount" : 2,
					"outlettype" : [ "", "", "" ],
					"patching_rect" : [ 588.0, 243.0, 185.0, 27.0 ],
					"id" : "obj-47",
					"fontname" : "Arial",
					"numinlets" : 1,
					"fontsize" : 9.0,
					"numoutlets" : 3
				}

			}
, 			{
				"box" : 				{
					"maxclass" : "newobj",
					"text" : "route text",
					"outlettype" : [ "", "" ],
					"patching_rect" : [ 867.0, 380.0, 48.0, 17.0 ],
					"id" : "obj-48",
					"fontname" : "Arial",
					"numinlets" : 1,
					"fontsize" : 9.0,
					"numoutlets" : 2
				}

			}
, 			{
				"box" : 				{
					"maxclass" : "newobj",
					"varname" : "stream/3/description",
					"text" : "jcom.parameter stream/3/description @type msg_symbol @description \"one word stream description\"",
					"linecount" : 2,
					"outlettype" : [ "", "", "" ],
					"patching_rect" : [ 867.0, 477.0, 245.0, 27.0 ],
					"id" : "obj-49",
					"fontname" : "Arial",
					"numinlets" : 1,
					"fontsize" : 9.0,
					"numoutlets" : 3
				}

			}
, 			{
				"box" : 				{
					"maxclass" : "newobj",
					"varname" : "stream/3/variables",
					"text" : "jcom.parameter stream/3/variables @type msg_symbol @description \"Martix row variables. separated by \\\\,\"",
					"linecount" : 2,
					"outlettype" : [ "", "", "" ],
					"patching_rect" : [ 867.0, 400.0, 242.0, 27.0 ],
					"id" : "obj-50",
					"fontname" : "Arial",
					"numinlets" : 1,
					"fontsize" : 9.0,
					"numoutlets" : 3
				}

			}
, 			{
				"box" : 				{
					"maxclass" : "newobj",
					"varname" : "stream/3/ID",
					"text" : "jcom.parameter stream/3/ID @type msg_symbol @description \"4 letter frame/matrix identificator. e.g. 1MID or XPOS\"",
					"linecount" : 2,
					"outlettype" : [ "", "", "" ],
					"patching_rect" : [ 867.0, 325.0, 271.0, 27.0 ],
					"id" : "obj-51",
					"fontname" : "Arial",
					"numinlets" : 1,
					"fontsize" : 9.0,
					"numoutlets" : 3
				}

			}
, 			{
				"box" : 				{
					"maxclass" : "newobj",
					"varname" : "stream/2/description",
					"text" : "jcom.parameter stream/2/description @type msg_symbol @description \"one word stream description\"",
					"linecount" : 2,
					"outlettype" : [ "", "", "" ],
					"patching_rect" : [ 588.0, 477.0, 245.0, 27.0 ],
					"id" : "obj-52",
					"fontname" : "Arial",
					"numinlets" : 1,
					"fontsize" : 9.0,
					"numoutlets" : 3
				}

			}
, 			{
				"box" : 				{
					"maxclass" : "newobj",
					"varname" : "stream/2/variables",
					"text" : "jcom.parameter stream/2/variables @type msg_symbol @description \"Martix row variables. separated by \\\\,\"",
					"linecount" : 2,
					"outlettype" : [ "", "", "" ],
					"patching_rect" : [ 588.0, 400.0, 242.0, 27.0 ],
					"id" : "obj-53",
					"fontname" : "Arial",
					"numinlets" : 1,
					"fontsize" : 9.0,
					"numoutlets" : 3
				}

			}
, 			{
				"box" : 				{
					"maxclass" : "newobj",
					"varname" : "stream/2/ID",
					"text" : "jcom.parameter stream/2/ID @type msg_symbol @description \"4 letter frame/matrix identificator. e.g. 1MID or XPOS\"",
					"linecount" : 2,
					"outlettype" : [ "", "", "" ],
					"patching_rect" : [ 588.0, 325.0, 271.0, 27.0 ],
					"id" : "obj-54",
					"fontname" : "Arial",
					"numinlets" : 1,
					"fontsize" : 9.0,
					"numoutlets" : 3
				}

			}
, 			{
				"box" : 				{
					"maxclass" : "newobj",
					"text" : "route text",
					"outlettype" : [ "", "" ],
					"patching_rect" : [ 867.0, 305.0, 48.0, 17.0 ],
					"id" : "obj-55",
					"fontname" : "Arial",
					"numinlets" : 1,
					"fontsize" : 9.0,
					"numoutlets" : 2
				}

			}
, 			{
				"box" : 				{
					"maxclass" : "newobj",
					"text" : "route text",
					"outlettype" : [ "", "" ],
					"patching_rect" : [ 867.0, 457.0, 48.0, 17.0 ],
					"id" : "obj-56",
					"fontname" : "Arial",
					"numinlets" : 1,
					"fontsize" : 9.0,
					"numoutlets" : 2
				}

			}
, 			{
				"box" : 				{
					"maxclass" : "newobj",
					"text" : "route text",
					"outlettype" : [ "", "" ],
					"patching_rect" : [ 588.0, 380.0, 48.0, 17.0 ],
					"id" : "obj-57",
					"fontname" : "Arial",
					"numinlets" : 1,
					"fontsize" : 9.0,
					"numoutlets" : 2
				}

			}
, 			{
				"box" : 				{
					"maxclass" : "newobj",
					"text" : "route text",
					"outlettype" : [ "", "" ],
					"patching_rect" : [ 588.0, 305.0, 48.0, 17.0 ],
					"id" : "obj-58",
					"fontname" : "Arial",
					"numinlets" : 1,
					"fontsize" : 9.0,
					"numoutlets" : 2
				}

			}
, 			{
				"box" : 				{
					"maxclass" : "newobj",
					"text" : "route text",
					"outlettype" : [ "", "" ],
					"patching_rect" : [ 588.0, 457.0, 48.0, 17.0 ],
					"id" : "obj-59",
					"fontname" : "Arial",
					"numinlets" : 1,
					"fontsize" : 9.0,
					"numoutlets" : 2
				}

			}
, 			{
				"box" : 				{
					"maxclass" : "comment",
					"text" : "NB! variable names must be seperaed by \\,",
					"presentation_rect" : [ 272.0, 45.0, 203.0, 16.0 ],
					"patching_rect" : [ 225.0, 52.0, 203.0, 16.0 ],
					"textcolor" : [ 0.709804, 0.709804, 0.709804, 1.0 ],
					"presentation" : 1,
					"id" : "obj-60",
					"fontname" : "Verdana",
					"frgb" : [ 0.709804, 0.709804, 0.709804, 1.0 ],
					"numinlets" : 1,
					"fontsize" : 8.0,
					"numoutlets" : 0
				}

			}
, 			{
				"box" : 				{
					"maxclass" : "newobj",
					"text" : "pvar streamcount",
					"outlettype" : [ "" ],
					"patching_rect" : [ 25.0, 223.0, 82.0, 17.0 ],
					"id" : "obj-62",
					"fontname" : "Arial",
					"numinlets" : 1,
					"fontsize" : 9.0,
					"numoutlets" : 1
				}

			}
, 			{
				"box" : 				{
					"maxclass" : "newobj",
					"varname" : "streamcount[1]",
					"text" : "jcom.parameter streamcount @type msg_int @description \"Number of streams to be recorded\"",
					"linecount" : 2,
					"outlettype" : [ "", "", "" ],
					"patching_rect" : [ 25.0, 243.0, 232.0, 27.0 ],
					"id" : "obj-64",
					"fontname" : "Arial",
					"numinlets" : 1,
					"fontsize" : 9.0,
					"numoutlets" : 3
				}

			}
, 			{
				"box" : 				{
					"maxclass" : "newobj",
					"text" : "route text",
					"outlettype" : [ "", "" ],
					"patching_rect" : [ 308.0, 380.0, 48.0, 17.0 ],
					"id" : "obj-65",
					"fontname" : "Arial",
					"numinlets" : 1,
					"fontsize" : 9.0,
					"numoutlets" : 2
				}

			}
, 			{
				"box" : 				{
					"maxclass" : "newobj",
					"varname" : "stream/1/description",
					"text" : "jcom.parameter stream/1/description @type msg_symbol @description \"one word stream description\"",
					"linecount" : 2,
					"outlettype" : [ "", "", "" ],
					"patching_rect" : [ 308.0, 477.0, 245.0, 27.0 ],
					"id" : "obj-66",
					"fontname" : "Arial",
					"numinlets" : 1,
					"fontsize" : 9.0,
					"numoutlets" : 3
				}

			}
, 			{
				"box" : 				{
					"maxclass" : "newobj",
					"varname" : "stream/1/variables",
					"text" : "jcom.parameter stream/1/variables @type msg_symbol @description \"Martix row variables. separated by \\\\,\"",
					"linecount" : 2,
					"outlettype" : [ "", "", "" ],
					"patching_rect" : [ 308.0, 400.0, 242.0, 27.0 ],
					"id" : "obj-67",
					"fontname" : "Arial",
					"numinlets" : 1,
					"fontsize" : 9.0,
					"numoutlets" : 3
				}

			}
, 			{
				"box" : 				{
					"maxclass" : "newobj",
					"varname" : "stream/1/ID",
					"text" : "jcom.parameter stream/1/ID @type msg_symbol @description \"4 letter frame/matrix identificator. e.g. 1MID or XPOS\"",
					"linecount" : 2,
					"outlettype" : [ "", "", "" ],
					"patching_rect" : [ 308.0, 325.0, 271.0, 27.0 ],
					"id" : "obj-68",
					"fontname" : "Arial",
					"numinlets" : 1,
					"fontsize" : 9.0,
					"numoutlets" : 3
				}

			}
, 			{
				"box" : 				{
					"maxclass" : "newobj",
					"varname" : "stream/0/description",
					"text" : "jcom.parameter stream/0/description @type msg_symbol @description \"one word stream description\"",
					"linecount" : 2,
					"outlettype" : [ "", "", "" ],
					"patching_rect" : [ 25.0, 477.0, 245.0, 27.0 ],
					"id" : "obj-69",
					"fontname" : "Arial",
					"numinlets" : 1,
					"fontsize" : 9.0,
					"numoutlets" : 3
				}

			}
, 			{
				"box" : 				{
					"maxclass" : "newobj",
					"varname" : "stream/0/variables",
					"text" : "jcom.parameter stream/0/variables @type msg_symbol @description \"Martix row variables. separated by \\\\,\"",
					"linecount" : 2,
					"outlettype" : [ "", "", "" ],
					"patching_rect" : [ 25.0, 400.0, 242.0, 27.0 ],
					"id" : "obj-70",
					"fontname" : "Arial",
					"numinlets" : 1,
					"fontsize" : 9.0,
					"numoutlets" : 3
				}

			}
, 			{
				"box" : 				{
					"maxclass" : "newobj",
					"varname" : "stream/0/ID",
					"text" : "jcom.parameter stream/0/ID @type msg_symbol @description \"4 letter frame/matrix identificator. e.g. 1MID or XPOS\"",
					"linecount" : 2,
					"outlettype" : [ "", "", "" ],
					"patching_rect" : [ 25.0, 325.0, 271.0, 27.0 ],
					"id" : "obj-71",
					"fontname" : "Arial",
					"numinlets" : 1,
					"fontsize" : 9.0,
					"numoutlets" : 3
				}

			}
, 			{
				"box" : 				{
					"maxclass" : "newobj",
					"text" : "route text",
					"outlettype" : [ "", "" ],
					"patching_rect" : [ 308.0, 305.0, 48.0, 17.0 ],
					"id" : "obj-72",
					"fontname" : "Arial",
					"numinlets" : 1,
					"fontsize" : 9.0,
					"numoutlets" : 2
				}

			}
, 			{
				"box" : 				{
					"maxclass" : "newobj",
					"text" : "route text",
					"outlettype" : [ "", "" ],
					"patching_rect" : [ 308.0, 457.0, 48.0, 17.0 ],
					"id" : "obj-73",
					"fontname" : "Arial",
					"numinlets" : 1,
					"fontsize" : 9.0,
					"numoutlets" : 2
				}

			}
, 			{
				"box" : 				{
					"maxclass" : "newobj",
					"text" : "route text",
					"outlettype" : [ "", "" ],
					"patching_rect" : [ 25.0, 380.0, 48.0, 17.0 ],
					"id" : "obj-74",
					"fontname" : "Arial",
					"numinlets" : 1,
					"fontsize" : 9.0,
					"numoutlets" : 2
				}

			}
, 			{
				"box" : 				{
					"maxclass" : "textedit",
					"presentation_rect" : [ 117.0, 113.0, 338.0, 18.0 ],
					"outputmode" : 1,
					"outlettype" : [ "", "int", "", "" ],
					"patching_rect" : [ 867.0, 359.0, 60.0, 18.0 ],
					"presentation" : 1,
					"id" : "obj-75",
					"fontname" : "Arial",
					"lines" : 1,
					"numinlets" : 1,
					"fontsize" : 9.0,
					"keymode" : 1,
					"numoutlets" : 4
				}

			}
, 			{
				"box" : 				{
					"maxclass" : "comment",
					"text" : "Stream 3",
					"presentation_rect" : [ 6.0, 113.0, 59.0, 19.0 ],
					"patching_rect" : [ 6.0, 117.0, 59.0, 19.0 ],
					"textcolor" : [ 0.709804, 0.709804, 0.709804, 1.0 ],
					"presentation" : 1,
					"id" : "obj-76",
					"fontname" : "Verdana",
					"frgb" : [ 0.709804, 0.709804, 0.709804, 1.0 ],
					"numinlets" : 1,
					"fontsize" : 10.0,
					"numoutlets" : 0
				}

			}
, 			{
				"box" : 				{
					"maxclass" : "textedit",
					"presentation_rect" : [ 68.0, 113.0, 44.0, 18.0 ],
					"outputmode" : 1,
					"outlettype" : [ "", "int", "", "" ],
					"patching_rect" : [ 867.0, 284.0, 60.0, 18.0 ],
					"presentation" : 1,
					"id" : "obj-77",
					"fontname" : "Arial",
					"lines" : 1,
					"numinlets" : 1,
					"fontsize" : 9.0,
					"keymode" : 1,
					"numoutlets" : 4
				}

			}
, 			{
				"box" : 				{
					"maxclass" : "textedit",
					"presentation_rect" : [ 465.0, 113.0, 123.0, 18.0 ],
					"outlettype" : [ "", "int", "", "" ],
					"patching_rect" : [ 867.0, 434.0, 123.0, 18.0 ],
					"presentation" : 1,
					"id" : "obj-78",
					"fontname" : "Arial",
					"lines" : 1,
					"numinlets" : 1,
					"fontsize" : 9.0,
					"keymode" : 1,
					"numoutlets" : 4
				}

			}
, 			{
				"box" : 				{
					"maxclass" : "textedit",
					"presentation_rect" : [ 117.0, 95.0, 338.0, 18.0 ],
					"outputmode" : 1,
					"outlettype" : [ "", "int", "", "" ],
					"patching_rect" : [ 588.0, 359.0, 60.0, 18.0 ],
					"presentation" : 1,
					"id" : "obj-79",
					"fontname" : "Arial",
					"lines" : 1,
					"numinlets" : 1,
					"fontsize" : 9.0,
					"keymode" : 1,
					"numoutlets" : 4
				}

			}
, 			{
				"box" : 				{
					"maxclass" : "comment",
					"text" : "Stream 2",
					"presentation_rect" : [ 6.0, 95.0, 59.0, 19.0 ],
					"patching_rect" : [ 6.0, 100.0, 59.0, 19.0 ],
					"textcolor" : [ 0.709804, 0.709804, 0.709804, 1.0 ],
					"presentation" : 1,
					"id" : "obj-80",
					"fontname" : "Verdana",
					"frgb" : [ 0.709804, 0.709804, 0.709804, 1.0 ],
					"numinlets" : 1,
					"fontsize" : 10.0,
					"numoutlets" : 0
				}

			}
, 			{
				"box" : 				{
					"maxclass" : "textedit",
					"presentation_rect" : [ 68.0, 95.0, 44.0, 18.0 ],
					"outputmode" : 1,
					"outlettype" : [ "", "int", "", "" ],
					"patching_rect" : [ 588.0, 284.0, 60.0, 18.0 ],
					"presentation" : 1,
					"id" : "obj-81",
					"fontname" : "Arial",
					"lines" : 1,
					"numinlets" : 1,
					"fontsize" : 9.0,
					"keymode" : 1,
					"numoutlets" : 4
				}

			}
, 			{
				"box" : 				{
					"maxclass" : "textedit",
					"presentation_rect" : [ 465.0, 95.0, 123.0, 18.0 ],
					"outlettype" : [ "", "int", "", "" ],
					"patching_rect" : [ 588.0, 434.0, 123.0, 18.0 ],
					"presentation" : 1,
					"id" : "obj-82",
					"fontname" : "Arial",
					"lines" : 1,
					"numinlets" : 1,
					"fontsize" : 9.0,
					"keymode" : 1,
					"numoutlets" : 4
				}

			}
, 			{
				"box" : 				{
					"maxclass" : "textedit",
					"presentation_rect" : [ 117.0, 77.0, 338.0, 18.0 ],
					"outputmode" : 1,
					"outlettype" : [ "", "int", "", "" ],
					"patching_rect" : [ 308.0, 359.0, 60.0, 18.0 ],
					"presentation" : 1,
					"id" : "obj-83",
					"fontname" : "Arial",
					"lines" : 1,
					"numinlets" : 1,
					"fontsize" : 9.0,
					"keymode" : 1,
					"numoutlets" : 4
				}

			}
, 			{
				"box" : 				{
					"maxclass" : "comment",
					"text" : "Stream 1",
					"presentation_rect" : [ 6.0, 77.0, 59.0, 19.0 ],
					"patching_rect" : [ 6.0, 83.0, 59.0, 19.0 ],
					"textcolor" : [ 0.709804, 0.709804, 0.709804, 1.0 ],
					"presentation" : 1,
					"id" : "obj-84",
					"fontname" : "Verdana",
					"frgb" : [ 0.709804, 0.709804, 0.709804, 1.0 ],
					"numinlets" : 1,
					"fontsize" : 10.0,
					"numoutlets" : 0
				}

			}
, 			{
				"box" : 				{
					"maxclass" : "textedit",
					"presentation_rect" : [ 68.0, 77.0, 44.0, 18.0 ],
					"outputmode" : 1,
					"outlettype" : [ "", "int", "", "" ],
					"patching_rect" : [ 308.0, 284.0, 60.0, 18.0 ],
					"presentation" : 1,
					"id" : "obj-85",
					"fontname" : "Arial",
					"lines" : 1,
					"numinlets" : 1,
					"fontsize" : 9.0,
					"keymode" : 1,
					"numoutlets" : 4
				}

			}
, 			{
				"box" : 				{
					"maxclass" : "textedit",
					"presentation_rect" : [ 465.0, 77.0, 123.0, 18.0 ],
					"outlettype" : [ "", "int", "", "" ],
					"patching_rect" : [ 308.0, 434.0, 123.0, 18.0 ],
					"presentation" : 1,
					"id" : "obj-86",
					"fontname" : "Arial",
					"lines" : 1,
					"numinlets" : 1,
					"fontsize" : 9.0,
					"keymode" : 1,
					"numoutlets" : 4
				}

			}
, 			{
				"box" : 				{
					"maxclass" : "newobj",
					"text" : "route text",
					"outlettype" : [ "", "" ],
					"patching_rect" : [ 25.0, 305.0, 48.0, 17.0 ],
					"id" : "obj-87",
					"fontname" : "Arial",
					"numinlets" : 1,
					"fontsize" : 9.0,
					"numoutlets" : 2
				}

			}
, 			{
				"box" : 				{
					"maxclass" : "newobj",
					"text" : "route text",
					"outlettype" : [ "", "" ],
					"patching_rect" : [ 25.0, 457.0, 48.0, 17.0 ],
					"id" : "obj-88",
					"fontname" : "Arial",
					"numinlets" : 1,
					"fontsize" : 9.0,
					"numoutlets" : 2
				}

			}
, 			{
				"box" : 				{
					"maxclass" : "comment",
					"text" : "Frame description",
					"presentation_rect" : [ 469.0, 41.0, 108.0, 19.0 ],
					"patching_rect" : [ 455.0, 48.0, 108.0, 19.0 ],
					"textcolor" : [ 0.709804, 0.709804, 0.709804, 1.0 ],
					"presentation" : 1,
					"id" : "obj-89",
					"fontname" : "Verdana",
					"frgb" : [ 0.709804, 0.709804, 0.709804, 1.0 ],
					"numinlets" : 1,
					"fontsize" : 10.0,
					"numoutlets" : 0
				}

			}
, 			{
				"box" : 				{
					"maxclass" : "textedit",
					"presentation_rect" : [ 117.0, 59.0, 338.0, 18.0 ],
					"outputmode" : 1,
					"outlettype" : [ "", "int", "", "" ],
					"patching_rect" : [ 25.0, 359.0, 60.0, 18.0 ],
					"presentation" : 1,
					"id" : "obj-90",
					"fontname" : "Arial",
					"lines" : 1,
					"numinlets" : 1,
					"fontsize" : 9.0,
					"keymode" : 1,
					"numoutlets" : 4
				}

			}
, 			{
				"box" : 				{
					"maxclass" : "comment",
					"text" : "Variable names",
					"presentation_rect" : [ 128.0, 42.0, 86.0, 19.0 ],
					"patching_rect" : [ 135.0, 49.0, 86.0, 19.0 ],
					"textcolor" : [ 0.709804, 0.709804, 0.709804, 1.0 ],
					"presentation" : 1,
					"id" : "obj-91",
					"fontname" : "Verdana",
					"frgb" : [ 0.709804, 0.709804, 0.709804, 1.0 ],
					"numinlets" : 1,
					"fontsize" : 10.0,
					"numoutlets" : 0
				}

			}
, 			{
				"box" : 				{
					"maxclass" : "comment",
					"text" : "Stream 0",
					"presentation_rect" : [ 6.0, 59.0, 59.0, 19.0 ],
					"patching_rect" : [ 6.0, 66.0, 59.0, 19.0 ],
					"textcolor" : [ 0.709804, 0.709804, 0.709804, 1.0 ],
					"presentation" : 1,
					"id" : "obj-92",
					"fontname" : "Verdana",
					"frgb" : [ 0.709804, 0.709804, 0.709804, 1.0 ],
					"numinlets" : 1,
					"fontsize" : 10.0,
					"numoutlets" : 0
				}

			}
, 			{
				"box" : 				{
					"maxclass" : "textedit",
					"presentation_rect" : [ 68.0, 59.0, 44.0, 18.0 ],
					"outputmode" : 1,
					"outlettype" : [ "", "int", "", "" ],
					"patching_rect" : [ 25.0, 284.0, 60.0, 18.0 ],
					"presentation" : 1,
					"id" : "obj-93",
					"fontname" : "Arial",
					"lines" : 1,
					"numinlets" : 1,
					"fontsize" : 9.0,
					"keymode" : 1,
					"numoutlets" : 4
				}

			}
, 			{
				"box" : 				{
					"maxclass" : "message",
					"text" : "/preset/store 1 default, /preset/write",
					"outlettype" : [ "" ],
					"patching_rect" : [ 667.0, 54.0, 191.0, 15.0 ],
					"id" : "obj-94",
					"fontname" : "Arial",
					"numinlets" : 2,
					"fontsize" : 9.0,
					"bgcolor" : [ 0.8, 0.54902, 0.54902, 1.0 ],
					"numoutlets" : 1
				}

			}
, 			{
				"box" : 				{
					"maxclass" : "message",
					"text" : ";\rjcom.init bang",
					"linecount" : 2,
					"outlettype" : [ "" ],
					"patching_rect" : [ 958.0, 35.0, 75.0, 25.0 ],
					"id" : "obj-95",
					"fontname" : "Arial",
					"numinlets" : 2,
					"fontsize" : 9.0,
					"numoutlets" : 1
				}

			}
, 			{
				"box" : 				{
					"maxclass" : "message",
					"text" : "/streamcount 1",
					"outlettype" : [ "" ],
					"patching_rect" : [ 1005.0, 145.0, 106.0, 15.0 ],
					"id" : "obj-96",
					"fontname" : "Arial",
					"numinlets" : 2,
					"fontsize" : 9.0,
					"numoutlets" : 1
				}

			}
, 			{
				"box" : 				{
					"maxclass" : "newobj",
					"text" : "prepend set",
					"outlettype" : [ "" ],
					"patching_rect" : [ 1005.0, 124.0, 62.0, 17.0 ],
					"id" : "obj-97",
					"fontname" : "Arial",
					"numinlets" : 1,
					"fontsize" : 9.0,
					"numoutlets" : 1
				}

			}
, 			{
				"box" : 				{
					"maxclass" : "message",
					"text" : "/documentation/generate",
					"outlettype" : [ "" ],
					"patching_rect" : [ 694.0, 72.0, 125.0, 15.0 ],
					"id" : "obj-98",
					"fontname" : "Arial",
					"numinlets" : 2,
					"fontsize" : 9.0,
					"numoutlets" : 1
				}

			}
, 			{
				"box" : 				{
					"maxclass" : "comment",
					"text" : "ID",
					"presentation_rect" : [ 72.0, 42.0, 41.0, 19.0 ],
					"patching_rect" : [ 79.0, 49.0, 56.0, 19.0 ],
					"textcolor" : [ 0.709804, 0.709804, 0.709804, 1.0 ],
					"presentation" : 1,
					"id" : "obj-99",
					"fontname" : "Verdana",
					"frgb" : [ 0.709804, 0.709804, 0.709804, 1.0 ],
					"numinlets" : 1,
					"fontsize" : 10.0,
					"numoutlets" : 0
				}

			}
, 			{
				"box" : 				{
					"maxclass" : "jsui",
					"varname" : "record_button",
					"presentation_rect" : [ 3.0, 21.0, 45.0, 19.0 ],
					"jsarguments" : [ "Record", "Record", 68, 68, 68, 225, 225, 225, 255, 40, 40, 0, 0, 0 ],
					"outlettype" : [ "", "" ],
					"patching_rect" : [ 3.0, 24.0, 45.0, 19.0 ],
					"presentation" : 1,
					"id" : "obj-100",
					"nofsaa" : 1,
					"filename" : "jcom.jsui_texttoggle.js",
					"numinlets" : 1,
					"numoutlets" : 2
				}

			}
, 			{
				"box" : 				{
					"maxclass" : "newobj",
					"text" : "jcom.in",
					"outlettype" : [ "", "" ],
					"patching_rect" : [ 922.0, 73.0, 43.0, 17.0 ],
					"id" : "obj-101",
					"fontname" : "Arial",
					"numinlets" : 1,
					"fontsize" : 9.0,
					"numoutlets" : 2
				}

			}
, 			{
				"box" : 				{
					"maxclass" : "newobj",
					"text" : "pcontrol",
					"outlettype" : [ "" ],
					"patching_rect" : [ 922.0, 121.0, 45.0, 17.0 ],
					"id" : "obj-102",
					"fontname" : "Arial",
					"numinlets" : 1,
					"fontsize" : 9.0,
					"numoutlets" : 1
				}

			}
, 			{
				"box" : 				{
					"maxclass" : "newobj",
					"text" : "jcom.pass open",
					"outlettype" : [ "", "" ],
					"patching_rect" : [ 922.0, 97.0, 78.0, 17.0 ],
					"id" : "obj-103",
					"fontname" : "Arial",
					"numinlets" : 1,
					"fontsize" : 9.0,
					"numoutlets" : 2
				}

			}
, 			{
				"box" : 				{
					"maxclass" : "message",
					"text" : ";\rmax refresh",
					"linecount" : 2,
					"outlettype" : [ "" ],
					"patching_rect" : [ 888.0, 35.0, 65.0, 25.0 ],
					"id" : "obj-104",
					"fontname" : "Arial",
					"numinlets" : 2,
					"fontsize" : 9.0,
					"numoutlets" : 1
				}

			}
, 			{
				"box" : 				{
					"maxclass" : "message",
					"text" : "/init",
					"outlettype" : [ "" ],
					"patching_rect" : [ 820.0, 72.0, 31.0, 15.0 ],
					"id" : "obj-105",
					"fontname" : "Arial",
					"numinlets" : 2,
					"fontsize" : 9.0,
					"numoutlets" : 1
				}

			}
, 			{
				"box" : 				{
					"maxclass" : "newobj",
					"varname" : "jalg.sdif.player",
					"text" : "jalg.sdif.record",
					"patching_rect" : [ 922.0, 174.0, 70.0, 17.0 ],
					"id" : "obj-106",
					"fontname" : "Arial",
					"numinlets" : 2,
					"fontsize" : 9.0,
					"numoutlets" : 0
				}

			}
, 			{
				"box" : 				{
					"maxclass" : "newobj",
					"varname" : "jcom.hub",
					"text" : "jcom.hub jmod.sdif.record @module_type control @description \"SDIF record module\"",
					"linecount" : 2,
					"outlettype" : [ "", "" ],
					"patching_rect" : [ 631.0, 107.0, 210.0, 27.0 ],
					"id" : "obj-107",
					"fontname" : "Arial",
					"numinlets" : 1,
					"fontsize" : 9.0,
					"numoutlets" : 2
				}

			}
, 			{
				"box" : 				{
					"maxclass" : "inlet",
					"outlettype" : [ "" ],
					"patching_rect" : [ 633.0, 46.0, 13.0, 13.0 ],
					"id" : "obj-108",
					"numinlets" : 0,
					"numoutlets" : 1,
					"comment" : ""
				}

			}
, 			{
				"box" : 				{
					"maxclass" : "outlet",
					"patching_rect" : [ 633.0, 152.0, 13.0, 13.0 ],
					"id" : "obj-109",
					"numinlets" : 1,
					"numoutlets" : 0,
					"comment" : ""
				}

			}
, 			{
				"box" : 				{
					"maxclass" : "textedit",
					"presentation_rect" : [ 465.0, 59.0, 123.0, 18.0 ],
					"outlettype" : [ "", "int", "", "" ],
					"patching_rect" : [ 25.0, 434.0, 123.0, 18.0 ],
					"presentation" : 1,
					"id" : "obj-110",
					"fontname" : "Arial",
					"lines" : 1,
					"numinlets" : 1,
					"fontsize" : 9.0,
					"keymode" : 1,
					"numoutlets" : 4
				}

			}
, 			{
				"box" : 				{
					"maxclass" : "panel",
					"presentation_rect" : [ 4.0, 42.0, 591.0, 165.0 ],
					"rounded" : 20,
					"patching_rect" : [ 3.0, 45.0, 595.0, 159.0 ],
					"presentation" : 1,
					"id" : "obj-111",
					"numinlets" : 1,
					"bgcolor" : [ 0.078431, 0.078431, 0.078431, 1.0 ],
					"numoutlets" : 0
				}

			}
, 			{
				"box" : 				{
					"maxclass" : "comment",
					"text" : "Number of streams to record:",
					"presentation_rect" : [ 73.0, 21.0, 169.0, 19.0 ],
					"patching_rect" : [ 120.0, 25.0, 194.0, 19.0 ],
					"presentation" : 1,
					"id" : "obj-120",
					"fontname" : "Verdana",
					"numinlets" : 1,
					"fontsize" : 10.0,
					"numoutlets" : 0
				}

			}
, 			{
				"box" : 				{
					"maxclass" : "jcom.ui",
					"text" : "/editing_this_module.1",
					"presentation_rect" : [ 0.0, 0.0, 600.0, 210.0 ],
					"outlettype" : [ "" ],
					"patching_rect" : [ 0.0, 0.0, 600.0, 210.0 ],
					"presentation" : 1,
					"id" : "obj-121",
					"numinlets" : 1,
					"numoutlets" : 1
				}

			}
 ],
		"lines" : [ 			{
				"patchline" : 				{
					"source" : [ "obj-33", 1 ],
					"destination" : [ "obj-63", 0 ],
					"hidden" : 1,
					"color" : [ 0.917647, 0.937255, 0.670588, 1.0 ],
					"midpoints" : [  ]
				}

			}
, 			{
				"patchline" : 				{
					"source" : [ "obj-63", 0 ],
					"destination" : [ "obj-61", 0 ],
					"hidden" : 0,
					"midpoints" : [  ]
				}

			}
, 			{
				"patchline" : 				{
					"source" : [ "obj-62", 0 ],
					"destination" : [ "obj-64", 0 ],
					"hidden" : 0,
					"midpoints" : [ 34.5, 240.0, 34.5, 240.0 ]
				}

			}
, 			{
				"patchline" : 				{
					"source" : [ "obj-64", 0 ],
					"destination" : [ "obj-62", 0 ],
					"hidden" : 0,
					"midpoints" : [ 34.5, 273.0, 20.0, 273.0, 20.0, 219.0, 34.5, 219.0 ]
				}

			}
, 			{
				"patchline" : 				{
					"source" : [ "obj-107", 0 ],
					"destination" : [ "obj-109", 0 ],
					"hidden" : 0,
					"midpoints" : [  ]
				}

			}
, 			{
				"patchline" : 				{
					"source" : [ "obj-108", 0 ],
					"destination" : [ "obj-107", 0 ],
					"hidden" : 0,
					"midpoints" : [  ]
				}

			}
, 			{
				"patchline" : 				{
					"source" : [ "obj-105", 0 ],
					"destination" : [ "obj-107", 0 ],
					"hidden" : 0,
					"midpoints" : [ 829.5, 93.0, 640.5, 93.0 ]
				}

			}
, 			{
				"patchline" : 				{
					"source" : [ "obj-98", 0 ],
					"destination" : [ "obj-107", 0 ],
					"hidden" : 0,
					"midpoints" : [  ]
				}

			}
, 			{
				"patchline" : 				{
					"source" : [ "obj-94", 0 ],
					"destination" : [ "obj-107", 0 ],
					"hidden" : 0,
					"midpoints" : [  ]
				}

			}
, 			{
				"patchline" : 				{
					"source" : [ "obj-101", 0 ],
					"destination" : [ "obj-103", 0 ],
					"hidden" : 0,
					"midpoints" : [  ]
				}

			}
, 			{
				"patchline" : 				{
					"source" : [ "obj-103", 0 ],
					"destination" : [ "obj-102", 0 ],
					"hidden" : 0,
					"midpoints" : [  ]
				}

			}
, 			{
				"patchline" : 				{
					"source" : [ "obj-103", 1 ],
					"destination" : [ "obj-106", 0 ],
					"hidden" : 0,
					"midpoints" : [ 990.5, 160.0, 931.5, 160.0 ]
				}

			}
, 			{
				"patchline" : 				{
					"source" : [ "obj-102", 0 ],
					"destination" : [ "obj-106", 0 ],
					"hidden" : 0,
					"midpoints" : [  ]
				}

			}
, 			{
				"patchline" : 				{
					"source" : [ "obj-47", 0 ],
					"destination" : [ "obj-46", 0 ],
					"hidden" : 0,
					"midpoints" : [ 597.5, 274.0, 585.0, 274.0, 585.0, 219.0, 597.5, 219.0 ]
				}

			}
, 			{
				"patchline" : 				{
					"source" : [ "obj-46", 0 ],
					"destination" : [ "obj-47", 0 ],
					"hidden" : 0,
					"midpoints" : [ 597.5, 240.0, 597.5, 240.0 ]
				}

			}
, 			{
				"patchline" : 				{
					"source" : [ "obj-3", 0 ],
					"destination" : [ "obj-2", 0 ],
					"hidden" : 0,
					"midpoints" : [ 317.5, 273.0, 305.0, 273.0, 305.0, 219.0, 317.5, 219.0 ]
				}

			}
, 			{
				"patchline" : 				{
					"source" : [ "obj-2", 0 ],
					"destination" : [ "obj-3", 0 ],
					"hidden" : 0,
					"midpoints" : [ 317.5, 240.0, 317.5, 240.0 ]
				}

			}
, 			{
				"patchline" : 				{
					"source" : [ "obj-28", 0 ],
					"destination" : [ "obj-106", 1 ],
					"hidden" : 0,
					"midpoints" : [ 1133.0, 166.0, 982.5, 166.0 ]
				}

			}
, 			{
				"patchline" : 				{
					"source" : [ "obj-103", 1 ],
					"destination" : [ "obj-97", 0 ],
					"hidden" : 0,
					"midpoints" : [ 990.5, 121.0, 1014.5, 121.0 ]
				}

			}
, 			{
				"patchline" : 				{
					"source" : [ "obj-97", 0 ],
					"destination" : [ "obj-96", 0 ],
					"hidden" : 0,
					"midpoints" : [  ]
				}

			}
, 			{
				"patchline" : 				{
					"source" : [ "obj-21", 0 ],
					"destination" : [ "obj-42", 0 ],
					"hidden" : 0,
					"midpoints" : [ 34.5, 663.0, 20.0, 663.0, 20.0, 591.0, 34.5, 591.0 ]
				}

			}
, 			{
				"patchline" : 				{
					"source" : [ "obj-18", 0 ],
					"destination" : [ "obj-38", 0 ],
					"hidden" : 0,
					"midpoints" : [ 317.5, 663.0, 305.0, 663.0, 305.0, 591.0, 317.5, 591.0 ]
				}

			}
, 			{
				"patchline" : 				{
					"source" : [ "obj-9", 0 ],
					"destination" : [ "obj-34", 0 ],
					"hidden" : 0,
					"midpoints" : [ 597.5, 663.0, 584.0, 663.0, 584.0, 591.0, 597.5, 591.0 ]
				}

			}
, 			{
				"patchline" : 				{
					"source" : [ "obj-6", 0 ],
					"destination" : [ "obj-30", 0 ],
					"hidden" : 0,
					"midpoints" : [ 876.5, 663.0, 864.0, 663.0, 864.0, 591.0, 876.5, 591.0 ]
				}

			}
, 			{
				"patchline" : 				{
					"source" : [ "obj-52", 0 ],
					"destination" : [ "obj-82", 0 ],
					"hidden" : 0,
					"midpoints" : [ 597.5, 506.0, 584.0, 506.0, 584.0, 431.0, 597.5, 431.0 ]
				}

			}
, 			{
				"patchline" : 				{
					"source" : [ "obj-49", 0 ],
					"destination" : [ "obj-78", 0 ],
					"hidden" : 0,
					"midpoints" : [ 876.5, 506.0, 864.0, 506.0, 864.0, 431.0, 876.5, 431.0 ]
				}

			}
, 			{
				"patchline" : 				{
					"source" : [ "obj-20", 0 ],
					"destination" : [ "obj-45", 0 ],
					"hidden" : 0,
					"midpoints" : [ 34.5, 738.0, 20.0, 738.0, 20.0, 666.0, 34.5, 666.0 ]
				}

			}
, 			{
				"patchline" : 				{
					"source" : [ "obj-17", 0 ],
					"destination" : [ "obj-41", 0 ],
					"hidden" : 0,
					"midpoints" : [ 317.5, 738.0, 305.0, 738.0, 305.0, 666.0, 317.5, 666.0 ]
				}

			}
, 			{
				"patchline" : 				{
					"source" : [ "obj-8", 0 ],
					"destination" : [ "obj-37", 0 ],
					"hidden" : 0,
					"midpoints" : [ 597.5, 738.0, 584.0, 738.0, 584.0, 666.0, 597.5, 666.0 ]
				}

			}
, 			{
				"patchline" : 				{
					"source" : [ "obj-5", 0 ],
					"destination" : [ "obj-33", 0 ],
					"hidden" : 0,
					"midpoints" : [ 876.5, 738.0, 864.0, 738.0, 864.0, 666.0, 876.5, 666.0 ]
				}

			}
, 			{
				"patchline" : 				{
					"source" : [ "obj-26", 0 ],
					"destination" : [ "obj-22", 0 ],
					"hidden" : 0,
					"midpoints" : [ 34.5, 558.0, 34.5, 558.0 ]
				}

			}
, 			{
				"patchline" : 				{
					"source" : [ "obj-23", 0 ],
					"destination" : [ "obj-19", 0 ],
					"hidden" : 0,
					"midpoints" : [ 317.5, 558.0, 317.5, 558.0 ]
				}

			}
, 			{
				"patchline" : 				{
					"source" : [ "obj-14", 0 ],
					"destination" : [ "obj-10", 0 ],
					"hidden" : 0,
					"midpoints" : [ 597.5, 558.0, 597.5, 558.0 ]
				}

			}
, 			{
				"patchline" : 				{
					"source" : [ "obj-11", 0 ],
					"destination" : [ "obj-7", 0 ],
					"hidden" : 0,
					"midpoints" : [ 876.5, 558.0, 876.5, 558.0 ]
				}

			}
, 			{
				"patchline" : 				{
					"source" : [ "obj-42", 0 ],
					"destination" : [ "obj-25", 0 ],
					"hidden" : 0,
					"midpoints" : [ 34.5, 615.0, 34.5, 615.0 ]
				}

			}
, 			{
				"patchline" : 				{
					"source" : [ "obj-25", 0 ],
					"destination" : [ "obj-21", 0 ],
					"hidden" : 0,
					"midpoints" : [ 34.5, 633.0, 34.5, 633.0 ]
				}

			}
, 			{
				"patchline" : 				{
					"source" : [ "obj-38", 0 ],
					"destination" : [ "obj-16", 0 ],
					"hidden" : 0,
					"midpoints" : [ 317.5, 615.0, 317.5, 615.0 ]
				}

			}
, 			{
				"patchline" : 				{
					"source" : [ "obj-16", 0 ],
					"destination" : [ "obj-18", 0 ],
					"hidden" : 0,
					"midpoints" : [ 317.5, 633.0, 317.5, 633.0 ]
				}

			}
, 			{
				"patchline" : 				{
					"source" : [ "obj-34", 0 ],
					"destination" : [ "obj-13", 0 ],
					"hidden" : 0,
					"midpoints" : [ 597.5, 615.0, 597.5, 615.0 ]
				}

			}
, 			{
				"patchline" : 				{
					"source" : [ "obj-13", 0 ],
					"destination" : [ "obj-9", 0 ],
					"hidden" : 0,
					"midpoints" : [ 597.5, 633.0, 597.5, 633.0 ]
				}

			}
, 			{
				"patchline" : 				{
					"source" : [ "obj-30", 0 ],
					"destination" : [ "obj-4", 0 ],
					"hidden" : 0,
					"midpoints" : [ 876.5, 612.0, 876.5, 612.0 ]
				}

			}
, 			{
				"patchline" : 				{
					"source" : [ "obj-4", 0 ],
					"destination" : [ "obj-6", 0 ],
					"hidden" : 0,
					"midpoints" : [ 876.5, 633.0, 876.5, 633.0 ]
				}

			}
, 			{
				"patchline" : 				{
					"source" : [ "obj-45", 0 ],
					"destination" : [ "obj-27", 0 ],
					"hidden" : 0,
					"midpoints" : [ 34.5, 687.0, 34.5, 687.0 ]
				}

			}
, 			{
				"patchline" : 				{
					"source" : [ "obj-27", 0 ],
					"destination" : [ "obj-20", 0 ],
					"hidden" : 0,
					"midpoints" : [ 34.5, 708.0, 34.5, 708.0 ]
				}

			}
, 			{
				"patchline" : 				{
					"source" : [ "obj-41", 0 ],
					"destination" : [ "obj-24", 0 ],
					"hidden" : 0,
					"midpoints" : [ 317.5, 687.0, 317.5, 687.0 ]
				}

			}
, 			{
				"patchline" : 				{
					"source" : [ "obj-24", 0 ],
					"destination" : [ "obj-17", 0 ],
					"hidden" : 0,
					"midpoints" : [ 317.5, 708.0, 317.5, 708.0 ]
				}

			}
, 			{
				"patchline" : 				{
					"source" : [ "obj-37", 0 ],
					"destination" : [ "obj-15", 0 ],
					"hidden" : 0,
					"midpoints" : [ 597.5, 687.0, 597.5, 687.0 ]
				}

			}
, 			{
				"patchline" : 				{
					"source" : [ "obj-15", 0 ],
					"destination" : [ "obj-8", 0 ],
					"hidden" : 0,
					"midpoints" : [ 597.5, 708.0, 597.5, 708.0 ]
				}

			}
, 			{
				"patchline" : 				{
					"source" : [ "obj-33", 0 ],
					"destination" : [ "obj-12", 0 ],
					"hidden" : 0,
					"midpoints" : [ 876.5, 687.0, 876.5, 687.0 ]
				}

			}
, 			{
				"patchline" : 				{
					"source" : [ "obj-12", 0 ],
					"destination" : [ "obj-5", 0 ],
					"hidden" : 0,
					"midpoints" : [ 876.5, 708.0, 876.5, 708.0 ]
				}

			}
, 			{
				"patchline" : 				{
					"source" : [ "obj-87", 0 ],
					"destination" : [ "obj-71", 0 ],
					"hidden" : 0,
					"midpoints" : [ 34.5, 323.0, 34.5, 323.0 ]
				}

			}
, 			{
				"patchline" : 				{
					"source" : [ "obj-72", 0 ],
					"destination" : [ "obj-68", 0 ],
					"hidden" : 0,
					"midpoints" : [ 317.5, 323.0, 317.5, 323.0 ]
				}

			}
, 			{
				"patchline" : 				{
					"source" : [ "obj-58", 0 ],
					"destination" : [ "obj-54", 0 ],
					"hidden" : 0,
					"midpoints" : [ 597.5, 323.0, 597.5, 323.0 ]
				}

			}
, 			{
				"patchline" : 				{
					"source" : [ "obj-55", 0 ],
					"destination" : [ "obj-51", 0 ],
					"hidden" : 0,
					"midpoints" : [ 876.5, 323.0, 876.5, 323.0 ]
				}

			}
, 			{
				"patchline" : 				{
					"source" : [ "obj-74", 0 ],
					"destination" : [ "obj-70", 0 ],
					"hidden" : 0,
					"midpoints" : [ 34.5, 398.0, 34.5, 398.0 ]
				}

			}
, 			{
				"patchline" : 				{
					"source" : [ "obj-65", 0 ],
					"destination" : [ "obj-67", 0 ],
					"hidden" : 0,
					"midpoints" : [ 317.5, 398.0, 317.5, 398.0 ]
				}

			}
, 			{
				"patchline" : 				{
					"source" : [ "obj-57", 0 ],
					"destination" : [ "obj-53", 0 ],
					"hidden" : 0,
					"midpoints" : [ 597.5, 398.0, 597.5, 398.0 ]
				}

			}
, 			{
				"patchline" : 				{
					"source" : [ "obj-48", 0 ],
					"destination" : [ "obj-50", 0 ],
					"hidden" : 0,
					"midpoints" : [ 876.5, 398.0, 876.5, 398.0 ]
				}

			}
, 			{
				"patchline" : 				{
					"source" : [ "obj-88", 0 ],
					"destination" : [ "obj-69", 0 ],
					"hidden" : 0,
					"midpoints" : [ 34.5, 476.0, 34.5, 476.0 ]
				}

			}
, 			{
				"patchline" : 				{
					"source" : [ "obj-73", 0 ],
					"destination" : [ "obj-66", 0 ],
					"hidden" : 0,
					"midpoints" : [ 317.5, 476.0, 317.5, 476.0 ]
				}

			}
, 			{
				"patchline" : 				{
					"source" : [ "obj-82", 0 ],
					"destination" : [ "obj-59", 0 ],
					"hidden" : 0,
					"midpoints" : [ 597.5, 452.0, 597.5, 452.0 ]
				}

			}
, 			{
				"patchline" : 				{
					"source" : [ "obj-59", 0 ],
					"destination" : [ "obj-52", 0 ],
					"hidden" : 0,
					"midpoints" : [ 597.5, 476.0, 597.5, 476.0 ]
				}

			}
, 			{
				"patchline" : 				{
					"source" : [ "obj-78", 0 ],
					"destination" : [ "obj-56", 0 ],
					"hidden" : 0,
					"midpoints" : [ 876.5, 452.0, 876.5, 452.0 ]
				}

			}
, 			{
				"patchline" : 				{
					"source" : [ "obj-56", 0 ],
					"destination" : [ "obj-49", 0 ],
					"hidden" : 0,
					"midpoints" : [ 876.5, 476.0, 876.5, 476.0 ]
				}

			}
, 			{
				"patchline" : 				{
					"source" : [ "obj-163", 0 ],
					"destination" : [ "obj-165", 0 ],
					"hidden" : 0,
					"color" : [ 0.945098, 0.913725, 0.407843, 1.0 ],
					"midpoints" : [  ]
				}

			}
, 			{
				"patchline" : 				{
					"source" : [ "obj-167", 0 ],
					"destination" : [ "obj-166", 0 ],
					"hidden" : 0,
					"color" : [ 0.945098, 0.913725, 0.407843, 1.0 ],
					"midpoints" : [  ]
				}

			}
, 			{
				"patchline" : 				{
					"source" : [ "obj-169", 0 ],
					"destination" : [ "obj-168", 0 ],
					"hidden" : 0,
					"color" : [ 0.945098, 0.913725, 0.407843, 1.0 ],
					"midpoints" : [  ]
				}

			}
, 			{
				"patchline" : 				{
					"source" : [ "obj-171", 0 ],
					"destination" : [ "obj-170", 0 ],
					"hidden" : 0,
					"color" : [ 0.945098, 0.913725, 0.407843, 1.0 ],
					"midpoints" : [  ]
				}

			}
, 			{
				"patchline" : 				{
					"source" : [ "obj-173", 0 ],
					"destination" : [ "obj-172", 0 ],
					"hidden" : 0,
					"color" : [ 0.945098, 0.913725, 0.407843, 1.0 ],
					"midpoints" : [  ]
				}

			}
, 			{
				"patchline" : 				{
					"source" : [ "obj-175", 0 ],
					"destination" : [ "obj-174", 0 ],
					"hidden" : 0,
					"color" : [ 0.945098, 0.913725, 0.407843, 1.0 ],
					"midpoints" : [  ]
				}

			}
, 			{
				"patchline" : 				{
					"source" : [ "obj-93", 1 ],
					"destination" : [ "obj-163", 0 ],
					"hidden" : 0,
					"color" : [ 0.945098, 0.913725, 0.407843, 1.0 ],
					"midpoints" : [  ]
				}

			}
, 			{
				"patchline" : 				{
					"source" : [ "obj-93", 0 ],
					"destination" : [ "obj-87", 0 ],
					"hidden" : 0,
					"midpoints" : [ 34.5, 302.0, 34.5, 302.0 ]
				}

			}
, 			{
				"patchline" : 				{
					"source" : [ "obj-71", 0 ],
					"destination" : [ "obj-93", 0 ],
					"hidden" : 0,
					"midpoints" : [ 34.5, 353.0, 20.0, 353.0, 20.0, 281.0, 34.5, 281.0 ]
				}

			}
, 			{
				"patchline" : 				{
					"source" : [ "obj-90", 1 ],
					"destination" : [ "obj-167", 0 ],
					"hidden" : 0,
					"color" : [ 0.945098, 0.913725, 0.407843, 1.0 ],
					"midpoints" : [  ]
				}

			}
, 			{
				"patchline" : 				{
					"source" : [ "obj-165", 0 ],
					"destination" : [ "obj-90", 0 ],
					"hidden" : 0,
					"color" : [ 0.945098, 0.913725, 0.407843, 1.0 ],
					"midpoints" : [  ]
				}

			}
, 			{
				"patchline" : 				{
					"source" : [ "obj-90", 0 ],
					"destination" : [ "obj-74", 0 ],
					"hidden" : 0,
					"midpoints" : [ 34.5, 377.0, 34.5, 377.0 ]
				}

			}
, 			{
				"patchline" : 				{
					"source" : [ "obj-70", 0 ],
					"destination" : [ "obj-90", 0 ],
					"hidden" : 0,
					"midpoints" : [ 34.5, 428.0, 20.0, 428.0, 20.0, 356.0, 34.5, 356.0 ]
				}

			}
, 			{
				"patchline" : 				{
					"source" : [ "obj-172", 0 ],
					"destination" : [ "obj-85", 0 ],
					"hidden" : 0,
					"color" : [ 0.945098, 0.913725, 0.407843, 1.0 ],
					"midpoints" : [  ]
				}

			}
, 			{
				"patchline" : 				{
					"source" : [ "obj-85", 1 ],
					"destination" : [ "obj-169", 0 ],
					"hidden" : 0,
					"color" : [ 0.945098, 0.913725, 0.407843, 1.0 ],
					"midpoints" : [  ]
				}

			}
, 			{
				"patchline" : 				{
					"source" : [ "obj-85", 0 ],
					"destination" : [ "obj-72", 0 ],
					"hidden" : 0,
					"midpoints" : [ 317.5, 302.0, 317.5, 302.0 ]
				}

			}
, 			{
				"patchline" : 				{
					"source" : [ "obj-68", 0 ],
					"destination" : [ "obj-85", 0 ],
					"hidden" : 0,
					"midpoints" : [ 317.5, 353.0, 305.0, 353.0, 305.0, 281.0, 317.5, 281.0 ]
				}

			}
, 			{
				"patchline" : 				{
					"source" : [ "obj-83", 1 ],
					"destination" : [ "obj-171", 0 ],
					"hidden" : 0,
					"color" : [ 0.945098, 0.913725, 0.407843, 1.0 ],
					"midpoints" : [  ]
				}

			}
, 			{
				"patchline" : 				{
					"source" : [ "obj-168", 0 ],
					"destination" : [ "obj-83", 0 ],
					"hidden" : 0,
					"color" : [ 0.945098, 0.913725, 0.407843, 1.0 ],
					"midpoints" : [  ]
				}

			}
, 			{
				"patchline" : 				{
					"source" : [ "obj-83", 0 ],
					"destination" : [ "obj-65", 0 ],
					"hidden" : 0,
					"midpoints" : [ 317.5, 377.0, 317.5, 377.0 ]
				}

			}
, 			{
				"patchline" : 				{
					"source" : [ "obj-67", 0 ],
					"destination" : [ "obj-83", 0 ],
					"hidden" : 0,
					"midpoints" : [ 317.5, 428.0, 305.0, 428.0, 305.0, 356.0, 317.5, 356.0 ]
				}

			}
, 			{
				"patchline" : 				{
					"source" : [ "obj-81", 0 ],
					"destination" : [ "obj-58", 0 ],
					"hidden" : 0,
					"midpoints" : [ 597.5, 302.0, 597.5, 302.0 ]
				}

			}
, 			{
				"patchline" : 				{
					"source" : [ "obj-54", 0 ],
					"destination" : [ "obj-81", 0 ],
					"hidden" : 0,
					"midpoints" : [ 597.5, 353.0, 584.0, 353.0, 584.0, 281.0, 597.5, 281.0 ]
				}

			}
, 			{
				"patchline" : 				{
					"source" : [ "obj-79", 0 ],
					"destination" : [ "obj-57", 0 ],
					"hidden" : 0,
					"midpoints" : [ 597.5, 377.0, 597.5, 377.0 ]
				}

			}
, 			{
				"patchline" : 				{
					"source" : [ "obj-53", 0 ],
					"destination" : [ "obj-79", 0 ],
					"hidden" : 0,
					"midpoints" : [ 597.5, 428.0, 584.0, 428.0, 584.0, 356.0, 597.5, 356.0 ]
				}

			}
, 			{
				"patchline" : 				{
					"source" : [ "obj-77", 0 ],
					"destination" : [ "obj-55", 0 ],
					"hidden" : 0,
					"midpoints" : [ 876.5, 302.0, 876.5, 302.0 ]
				}

			}
, 			{
				"patchline" : 				{
					"source" : [ "obj-51", 0 ],
					"destination" : [ "obj-77", 0 ],
					"hidden" : 0,
					"midpoints" : [ 876.5, 353.0, 864.0, 353.0, 864.0, 281.0, 876.5, 281.0 ]
				}

			}
, 			{
				"patchline" : 				{
					"source" : [ "obj-75", 0 ],
					"destination" : [ "obj-48", 0 ],
					"hidden" : 0,
					"midpoints" : [ 876.5, 377.0, 876.5, 377.0 ]
				}

			}
, 			{
				"patchline" : 				{
					"source" : [ "obj-50", 0 ],
					"destination" : [ "obj-75", 0 ],
					"hidden" : 0,
					"midpoints" : [ 876.5, 428.0, 864.0, 428.0, 864.0, 356.0, 876.5, 356.0 ]
				}

			}
, 			{
				"patchline" : 				{
					"source" : [ "obj-44", 0 ],
					"destination" : [ "obj-26", 0 ],
					"hidden" : 0,
					"midpoints" : [ 34.5, 540.0, 34.5, 540.0 ]
				}

			}
, 			{
				"patchline" : 				{
					"source" : [ "obj-22", 0 ],
					"destination" : [ "obj-44", 0 ],
					"hidden" : 0,
					"midpoints" : [ 34.5, 588.0, 20.0, 588.0, 20.0, 516.0, 34.5, 516.0 ]
				}

			}
, 			{
				"patchline" : 				{
					"source" : [ "obj-40", 0 ],
					"destination" : [ "obj-23", 0 ],
					"hidden" : 0,
					"midpoints" : [ 317.5, 540.0, 317.5, 540.0 ]
				}

			}
, 			{
				"patchline" : 				{
					"source" : [ "obj-19", 0 ],
					"destination" : [ "obj-40", 0 ],
					"hidden" : 0,
					"midpoints" : [ 317.5, 588.0, 305.0, 588.0, 305.0, 516.0, 317.5, 516.0 ]
				}

			}
, 			{
				"patchline" : 				{
					"source" : [ "obj-36", 0 ],
					"destination" : [ "obj-14", 0 ],
					"hidden" : 0,
					"midpoints" : [ 597.5, 540.0, 597.5, 540.0 ]
				}

			}
, 			{
				"patchline" : 				{
					"source" : [ "obj-10", 0 ],
					"destination" : [ "obj-36", 0 ],
					"hidden" : 0,
					"midpoints" : [ 597.5, 588.0, 584.0, 588.0, 584.0, 516.0, 597.5, 516.0 ]
				}

			}
, 			{
				"patchline" : 				{
					"source" : [ "obj-32", 0 ],
					"destination" : [ "obj-11", 0 ],
					"hidden" : 0,
					"midpoints" : [ 876.5, 540.0, 876.5, 540.0 ]
				}

			}
, 			{
				"patchline" : 				{
					"source" : [ "obj-7", 0 ],
					"destination" : [ "obj-32", 0 ],
					"hidden" : 0,
					"midpoints" : [ 876.5, 588.0, 864.0, 588.0, 864.0, 516.0, 876.5, 516.0 ]
				}

			}
, 			{
				"patchline" : 				{
					"source" : [ "obj-177", 0 ],
					"destination" : [ "obj-176", 0 ],
					"hidden" : 0,
					"color" : [ 0.945098, 0.913725, 0.407843, 1.0 ],
					"midpoints" : [  ]
				}

			}
, 			{
				"patchline" : 				{
					"source" : [ "obj-179", 0 ],
					"destination" : [ "obj-178", 0 ],
					"hidden" : 0,
					"color" : [ 0.945098, 0.913725, 0.407843, 1.0 ],
					"midpoints" : [  ]
				}

			}
, 			{
				"patchline" : 				{
					"source" : [ "obj-181", 0 ],
					"destination" : [ "obj-180", 0 ],
					"hidden" : 0,
					"color" : [ 0.945098, 0.913725, 0.407843, 1.0 ],
					"midpoints" : [  ]
				}

			}
, 			{
				"patchline" : 				{
					"source" : [ "obj-183", 0 ],
					"destination" : [ "obj-182", 0 ],
					"hidden" : 0,
					"color" : [ 0.945098, 0.913725, 0.407843, 1.0 ],
					"midpoints" : [  ]
				}

			}
, 			{
				"patchline" : 				{
					"source" : [ "obj-185", 0 ],
					"destination" : [ "obj-184", 0 ],
					"hidden" : 0,
					"color" : [ 0.945098, 0.913725, 0.407843, 1.0 ],
					"midpoints" : [  ]
				}

			}
, 			{
				"patchline" : 				{
					"source" : [ "obj-187", 0 ],
					"destination" : [ "obj-186", 0 ],
					"hidden" : 0,
					"color" : [ 0.945098, 0.913725, 0.407843, 1.0 ],
					"midpoints" : [  ]
				}

			}
, 			{
				"patchline" : 				{
					"source" : [ "obj-174", 0 ],
					"destination" : [ "obj-81", 0 ],
					"hidden" : 0,
					"color" : [ 0.945098, 0.913725, 0.407843, 1.0 ],
					"midpoints" : [  ]
				}

			}
, 			{
				"patchline" : 				{
					"source" : [ "obj-81", 1 ],
					"destination" : [ "obj-177", 0 ],
					"hidden" : 0,
					"color" : [ 0.945098, 0.913725, 0.407843, 1.0 ],
					"midpoints" : [  ]
				}

			}
, 			{
				"patchline" : 				{
					"source" : [ "obj-176", 0 ],
					"destination" : [ "obj-79", 0 ],
					"hidden" : 0,
					"color" : [ 0.945098, 0.913725, 0.407843, 1.0 ],
					"midpoints" : [  ]
				}

			}
, 			{
				"patchline" : 				{
					"source" : [ "obj-79", 1 ],
					"destination" : [ "obj-179", 0 ],
					"hidden" : 0,
					"color" : [ 0.945098, 0.913725, 0.407843, 1.0 ],
					"midpoints" : [  ]
				}

			}
, 			{
				"patchline" : 				{
					"source" : [ "obj-178", 0 ],
					"destination" : [ "obj-82", 0 ],
					"hidden" : 0,
					"color" : [ 0.945098, 0.913725, 0.407843, 1.0 ],
					"midpoints" : [  ]
				}

			}
, 			{
				"patchline" : 				{
					"source" : [ "obj-82", 1 ],
					"destination" : [ "obj-181", 0 ],
					"hidden" : 0,
					"color" : [ 0.945098, 0.913725, 0.407843, 1.0 ],
					"midpoints" : [  ]
				}

			}
, 			{
				"patchline" : 				{
					"source" : [ "obj-180", 0 ],
					"destination" : [ "obj-77", 0 ],
					"hidden" : 0,
					"color" : [ 0.945098, 0.913725, 0.407843, 1.0 ],
					"midpoints" : [  ]
				}

			}
, 			{
				"patchline" : 				{
					"source" : [ "obj-77", 1 ],
					"destination" : [ "obj-183", 0 ],
					"hidden" : 0,
					"color" : [ 0.945098, 0.913725, 0.407843, 1.0 ],
					"midpoints" : [  ]
				}

			}
, 			{
				"patchline" : 				{
					"source" : [ "obj-182", 0 ],
					"destination" : [ "obj-75", 0 ],
					"hidden" : 0,
					"color" : [ 0.945098, 0.913725, 0.407843, 1.0 ],
					"midpoints" : [  ]
				}

			}
, 			{
				"patchline" : 				{
					"source" : [ "obj-75", 1 ],
					"destination" : [ "obj-185", 0 ],
					"hidden" : 0,
					"color" : [ 0.945098, 0.913725, 0.407843, 1.0 ],
					"midpoints" : [  ]
				}

			}
, 			{
				"patchline" : 				{
					"source" : [ "obj-184", 0 ],
					"destination" : [ "obj-78", 0 ],
					"hidden" : 0,
					"color" : [ 0.945098, 0.913725, 0.407843, 1.0 ],
					"midpoints" : [  ]
				}

			}
, 			{
				"patchline" : 				{
					"source" : [ "obj-78", 1 ],
					"destination" : [ "obj-187", 0 ],
					"hidden" : 0,
					"color" : [ 0.945098, 0.913725, 0.407843, 1.0 ],
					"midpoints" : [  ]
				}

			}
, 			{
				"patchline" : 				{
					"source" : [ "obj-186", 0 ],
					"destination" : [ "obj-44", 0 ],
					"hidden" : 0,
					"color" : [ 0.945098, 0.913725, 0.407843, 1.0 ],
					"midpoints" : [  ]
				}

			}
, 			{
				"patchline" : 				{
					"source" : [ "obj-189", 0 ],
					"destination" : [ "obj-188", 0 ],
					"hidden" : 0,
					"color" : [ 0.945098, 0.913725, 0.407843, 1.0 ],
					"midpoints" : [  ]
				}

			}
, 			{
				"patchline" : 				{
					"source" : [ "obj-191", 0 ],
					"destination" : [ "obj-190", 0 ],
					"hidden" : 0,
					"color" : [ 0.945098, 0.913725, 0.407843, 1.0 ],
					"midpoints" : [  ]
				}

			}
, 			{
				"patchline" : 				{
					"source" : [ "obj-193", 0 ],
					"destination" : [ "obj-192", 0 ],
					"hidden" : 0,
					"color" : [ 0.945098, 0.913725, 0.407843, 1.0 ],
					"midpoints" : [  ]
				}

			}
, 			{
				"patchline" : 				{
					"source" : [ "obj-195", 0 ],
					"destination" : [ "obj-194", 0 ],
					"hidden" : 0,
					"color" : [ 0.945098, 0.913725, 0.407843, 1.0 ],
					"midpoints" : [  ]
				}

			}
, 			{
				"patchline" : 				{
					"source" : [ "obj-197", 0 ],
					"destination" : [ "obj-196", 0 ],
					"hidden" : 0,
					"color" : [ 0.945098, 0.913725, 0.407843, 1.0 ],
					"midpoints" : [  ]
				}

			}
, 			{
				"patchline" : 				{
					"source" : [ "obj-199", 0 ],
					"destination" : [ "obj-198", 0 ],
					"hidden" : 0,
					"color" : [ 0.945098, 0.913725, 0.407843, 1.0 ],
					"midpoints" : [  ]
				}

			}
, 			{
				"patchline" : 				{
					"source" : [ "obj-205", 0 ],
					"destination" : [ "obj-204", 0 ],
					"hidden" : 0,
					"color" : [ 0.945098, 0.913725, 0.407843, 1.0 ],
					"midpoints" : [  ]
				}

			}
, 			{
				"patchline" : 				{
					"source" : [ "obj-203", 0 ],
					"destination" : [ "obj-202", 0 ],
					"hidden" : 0,
					"color" : [ 0.945098, 0.913725, 0.407843, 1.0 ],
					"midpoints" : [  ]
				}

			}
, 			{
				"patchline" : 				{
					"source" : [ "obj-201", 0 ],
					"destination" : [ "obj-200", 0 ],
					"hidden" : 0,
					"color" : [ 0.945098, 0.913725, 0.407843, 1.0 ],
					"midpoints" : [  ]
				}

			}
, 			{
				"patchline" : 				{
					"source" : [ "obj-209", 0 ],
					"destination" : [ "obj-208", 0 ],
					"hidden" : 0,
					"color" : [ 0.945098, 0.913725, 0.407843, 1.0 ],
					"midpoints" : [  ]
				}

			}
, 			{
				"patchline" : 				{
					"source" : [ "obj-211", 0 ],
					"destination" : [ "obj-210", 0 ],
					"hidden" : 0,
					"color" : [ 0.945098, 0.913725, 0.407843, 1.0 ],
					"midpoints" : [  ]
				}

			}
, 			{
				"patchline" : 				{
					"source" : [ "obj-44", 1 ],
					"destination" : [ "obj-189", 0 ],
					"hidden" : 0,
					"color" : [ 0.945098, 0.913725, 0.407843, 1.0 ],
					"midpoints" : [  ]
				}

			}
, 			{
				"patchline" : 				{
					"source" : [ "obj-188", 0 ],
					"destination" : [ "obj-42", 0 ],
					"hidden" : 0,
					"color" : [ 0.945098, 0.913725, 0.407843, 1.0 ],
					"midpoints" : [  ]
				}

			}
, 			{
				"patchline" : 				{
					"source" : [ "obj-42", 1 ],
					"destination" : [ "obj-191", 0 ],
					"hidden" : 0,
					"color" : [ 0.945098, 0.913725, 0.407843, 1.0 ],
					"midpoints" : [  ]
				}

			}
, 			{
				"patchline" : 				{
					"source" : [ "obj-190", 0 ],
					"destination" : [ "obj-45", 0 ],
					"hidden" : 0,
					"color" : [ 0.945098, 0.913725, 0.407843, 1.0 ],
					"midpoints" : [  ]
				}

			}
, 			{
				"patchline" : 				{
					"source" : [ "obj-45", 1 ],
					"destination" : [ "obj-193", 0 ],
					"hidden" : 0,
					"color" : [ 0.945098, 0.913725, 0.407843, 1.0 ],
					"midpoints" : [  ]
				}

			}
, 			{
				"patchline" : 				{
					"source" : [ "obj-192", 0 ],
					"destination" : [ "obj-40", 0 ],
					"hidden" : 0,
					"color" : [ 0.945098, 0.913725, 0.407843, 1.0 ],
					"midpoints" : [  ]
				}

			}
, 			{
				"patchline" : 				{
					"source" : [ "obj-40", 1 ],
					"destination" : [ "obj-199", 0 ],
					"hidden" : 0,
					"color" : [ 0.945098, 0.913725, 0.407843, 1.0 ],
					"midpoints" : [  ]
				}

			}
, 			{
				"patchline" : 				{
					"source" : [ "obj-198", 0 ],
					"destination" : [ "obj-38", 0 ],
					"hidden" : 0,
					"color" : [ 0.945098, 0.913725, 0.407843, 1.0 ],
					"midpoints" : [  ]
				}

			}
, 			{
				"patchline" : 				{
					"source" : [ "obj-38", 1 ],
					"destination" : [ "obj-197", 0 ],
					"hidden" : 0,
					"color" : [ 0.945098, 0.913725, 0.407843, 1.0 ],
					"midpoints" : [  ]
				}

			}
, 			{
				"patchline" : 				{
					"source" : [ "obj-196", 0 ],
					"destination" : [ "obj-41", 0 ],
					"hidden" : 0,
					"color" : [ 0.945098, 0.913725, 0.407843, 1.0 ],
					"midpoints" : [  ]
				}

			}
, 			{
				"patchline" : 				{
					"source" : [ "obj-41", 1 ],
					"destination" : [ "obj-195", 0 ],
					"hidden" : 0,
					"color" : [ 0.945098, 0.913725, 0.407843, 1.0 ],
					"midpoints" : [  ]
				}

			}
, 			{
				"patchline" : 				{
					"source" : [ "obj-194", 0 ],
					"destination" : [ "obj-36", 0 ],
					"hidden" : 0,
					"color" : [ 0.945098, 0.913725, 0.407843, 1.0 ],
					"midpoints" : [  ]
				}

			}
, 			{
				"patchline" : 				{
					"source" : [ "obj-36", 1 ],
					"destination" : [ "obj-205", 0 ],
					"hidden" : 0,
					"color" : [ 0.945098, 0.913725, 0.407843, 1.0 ],
					"midpoints" : [  ]
				}

			}
, 			{
				"patchline" : 				{
					"source" : [ "obj-204", 0 ],
					"destination" : [ "obj-34", 0 ],
					"hidden" : 0,
					"color" : [ 0.945098, 0.913725, 0.407843, 1.0 ],
					"midpoints" : [  ]
				}

			}
, 			{
				"patchline" : 				{
					"source" : [ "obj-34", 1 ],
					"destination" : [ "obj-203", 0 ],
					"hidden" : 0,
					"color" : [ 0.945098, 0.913725, 0.407843, 1.0 ],
					"midpoints" : [  ]
				}

			}
, 			{
				"patchline" : 				{
					"source" : [ "obj-202", 0 ],
					"destination" : [ "obj-37", 0 ],
					"hidden" : 0,
					"color" : [ 0.945098, 0.913725, 0.407843, 1.0 ],
					"midpoints" : [  ]
				}

			}
, 			{
				"patchline" : 				{
					"source" : [ "obj-37", 1 ],
					"destination" : [ "obj-201", 0 ],
					"hidden" : 0,
					"color" : [ 0.945098, 0.913725, 0.407843, 1.0 ],
					"midpoints" : [  ]
				}

			}
, 			{
				"patchline" : 				{
					"source" : [ "obj-200", 0 ],
					"destination" : [ "obj-32", 0 ],
					"hidden" : 0,
					"color" : [ 0.945098, 0.913725, 0.407843, 1.0 ],
					"midpoints" : [  ]
				}

			}
, 			{
				"patchline" : 				{
					"source" : [ "obj-32", 1 ],
					"destination" : [ "obj-211", 0 ],
					"hidden" : 0,
					"color" : [ 0.945098, 0.913725, 0.407843, 1.0 ],
					"midpoints" : [  ]
				}

			}
, 			{
				"patchline" : 				{
					"source" : [ "obj-210", 0 ],
					"destination" : [ "obj-30", 0 ],
					"hidden" : 0,
					"color" : [ 0.945098, 0.913725, 0.407843, 1.0 ],
					"midpoints" : [  ]
				}

			}
, 			{
				"patchline" : 				{
					"source" : [ "obj-30", 1 ],
					"destination" : [ "obj-209", 0 ],
					"hidden" : 0,
					"color" : [ 0.945098, 0.913725, 0.407843, 1.0 ],
					"midpoints" : [  ]
				}

			}
, 			{
				"patchline" : 				{
					"source" : [ "obj-208", 0 ],
					"destination" : [ "obj-33", 0 ],
					"hidden" : 0,
					"color" : [ 0.945098, 0.913725, 0.407843, 1.0 ],
					"midpoints" : [  ]
				}

			}
, 			{
				"patchline" : 				{
					"source" : [ "obj-110", 1 ],
					"destination" : [ "obj-173", 0 ],
					"hidden" : 0,
					"color" : [ 0.945098, 0.913725, 0.407843, 1.0 ],
					"midpoints" : [  ]
				}

			}
, 			{
				"patchline" : 				{
					"source" : [ "obj-166", 0 ],
					"destination" : [ "obj-110", 0 ],
					"hidden" : 0,
					"color" : [ 0.945098, 0.913725, 0.407843, 1.0 ],
					"midpoints" : [  ]
				}

			}
, 			{
				"patchline" : 				{
					"source" : [ "obj-110", 0 ],
					"destination" : [ "obj-88", 0 ],
					"hidden" : 0,
					"midpoints" : [ 34.5, 452.0, 34.5, 452.0 ]
				}

			}
, 			{
				"patchline" : 				{
					"source" : [ "obj-69", 0 ],
					"destination" : [ "obj-110", 0 ],
					"hidden" : 0,
					"midpoints" : [ 34.5, 506.0, 20.0, 506.0, 20.0, 431.0, 34.5, 431.0 ]
				}

			}
, 			{
				"patchline" : 				{
					"source" : [ "obj-86", 1 ],
					"destination" : [ "obj-175", 0 ],
					"hidden" : 0,
					"color" : [ 0.945098, 0.913725, 0.407843, 1.0 ],
					"midpoints" : [  ]
				}

			}
, 			{
				"patchline" : 				{
					"source" : [ "obj-170", 0 ],
					"destination" : [ "obj-86", 0 ],
					"hidden" : 0,
					"color" : [ 0.945098, 0.913725, 0.407843, 1.0 ],
					"midpoints" : [  ]
				}

			}
, 			{
				"patchline" : 				{
					"source" : [ "obj-86", 0 ],
					"destination" : [ "obj-73", 0 ],
					"hidden" : 0,
					"midpoints" : [ 317.5, 452.0, 317.5, 452.0 ]
				}

			}
, 			{
				"patchline" : 				{
					"source" : [ "obj-66", 0 ],
					"destination" : [ "obj-86", 0 ],
					"hidden" : 0,
					"midpoints" : [ 317.5, 506.0, 305.0, 506.0, 305.0, 431.0, 317.5, 431.0 ]
				}

			}
 ]
	}

}
