{
	"patcher" : 	{
		"fileversion" : 1,
		"rect" : [ 329.0, 142.0, 496.0, 499.0 ],
		"bglocked" : 0,
		"defrect" : [ 329.0, 142.0, 496.0, 499.0 ],
		"openrect" : [ 0.0, 0.0, 0.0, 0.0 ],
		"openinpresentation" : 0,
		"default_fontsize" : 10.0,
		"default_fontface" : 0,
		"default_fontname" : "Verdana",
		"gridonopen" : 0,
		"gridsize" : [ 5.0, 5.0 ],
		"gridsnaponopen" : 0,
		"toolbarvisible" : 1,
		"boxanimatetime" : 200,
		"imprint" : 0,
		"enablehscroll" : 1,
		"enablevscroll" : 1,
		"boxes" : [ 			{
				"box" : 				{
					"maxclass" : "bpatcher",
					"id" : "obj-18",
					"numinlets" : 1,
					"patching_rect" : [ 0.0, 0.0, 496.0, 70.0 ],
					"numoutlets" : 0,
					"name" : "jcom.maxhelpui.maxpat",
					"args" : [ "@name", "jcom.degrade~", "@description", "Degrade audio fidelity" ],
					"bgmode" : 1
				}

			}
, 			{
				"box" : 				{
					"maxclass" : "newobj",
					"text" : "t 24 1.",
					"id" : "obj-17",
					"fontname" : "Verdana",
					"numinlets" : 1,
					"patching_rect" : [ 320.0, 105.0, 44.0, 19.0 ],
					"hidden" : 1,
					"numoutlets" : 2,
					"fontsize" : 10.0,
					"outlettype" : [ "int", "float" ]
				}

			}
, 			{
				"box" : 				{
					"maxclass" : "newobj",
					"text" : "loadbang",
					"id" : "obj-16",
					"fontname" : "Verdana",
					"numinlets" : 1,
					"patching_rect" : [ 320.0, 80.0, 56.0, 19.0 ],
					"hidden" : 1,
					"numoutlets" : 1,
					"fontsize" : 10.0,
					"outlettype" : [ "bang" ]
				}

			}
, 			{
				"box" : 				{
					"maxclass" : "meter~",
					"id" : "obj-21",
					"numinlets" : 1,
					"patching_rect" : [ 140.0, 290.0, 15.0, 140.0 ],
					"numoutlets" : 1,
					"outlettype" : [ "float" ]
				}

			}
, 			{
				"box" : 				{
					"maxclass" : "meter~",
					"id" : "obj-19",
					"numinlets" : 1,
					"patching_rect" : [ 70.0, 290.0, 15.0, 140.0 ],
					"numoutlets" : 1,
					"outlettype" : [ "float" ]
				}

			}
, 			{
				"box" : 				{
					"maxclass" : "toggle",
					"id" : "obj-15",
					"numinlets" : 1,
					"patching_rect" : [ 170.0, 130.0, 18.0, 18.0 ],
					"numoutlets" : 1,
					"outlettype" : [ "int" ]
				}

			}
, 			{
				"box" : 				{
					"maxclass" : "message",
					"text" : "loop $1",
					"id" : "obj-14",
					"fontname" : "Verdana",
					"numinlets" : 2,
					"patching_rect" : [ 170.0, 155.0, 49.0, 17.0 ],
					"numoutlets" : 1,
					"fontsize" : 10.0,
					"outlettype" : [ "" ]
				}

			}
, 			{
				"box" : 				{
					"maxclass" : "toggle",
					"id" : "obj-7",
					"numinlets" : 1,
					"patching_rect" : [ 90.0, 130.0, 18.0, 18.0 ],
					"numoutlets" : 1,
					"outlettype" : [ "int" ]
				}

			}
, 			{
				"box" : 				{
					"maxclass" : "flonum",
					"id" : "obj-6",
					"fontname" : "Verdana",
					"numinlets" : 1,
					"patching_rect" : [ 395.0, 130.0, 50.0, 19.0 ],
					"numoutlets" : 2,
					"fontsize" : 10.0,
					"outlettype" : [ "float", "bang" ]
				}

			}
, 			{
				"box" : 				{
					"maxclass" : "number",
					"id" : "obj-5",
					"fontname" : "Verdana",
					"numinlets" : 1,
					"patching_rect" : [ 320.0, 130.0, 50.0, 19.0 ],
					"numoutlets" : 2,
					"fontsize" : 10.0,
					"outlettype" : [ "int", "bang" ]
				}

			}
, 			{
				"box" : 				{
					"maxclass" : "gain~",
					"id" : "obj-13",
					"numinlets" : 2,
					"patching_rect" : [ 115.0, 290.0, 20.0, 140.0 ],
					"numoutlets" : 2,
					"outlettype" : [ "signal", "int" ]
				}

			}
, 			{
				"box" : 				{
					"maxclass" : "newobj",
					"text" : "sfplay~ 2",
					"id" : "obj-11",
					"fontname" : "Verdana",
					"numinlets" : 2,
					"patching_rect" : [ 90.0, 190.0, 58.0, 19.0 ],
					"numoutlets" : 3,
					"fontsize" : 10.0,
					"outlettype" : [ "signal", "signal", "bang" ],
					"save" : [ "#N", "sfplay~", "", 2, 120960, 0, "", ";" ]
				}

			}
, 			{
				"box" : 				{
					"maxclass" : "toggle",
					"id" : "obj-10",
					"numinlets" : 1,
					"patching_rect" : [ 255.0, 130.0, 18.0, 18.0 ],
					"numoutlets" : 1,
					"outlettype" : [ "int" ]
				}

			}
, 			{
				"box" : 				{
					"maxclass" : "message",
					"text" : "bypass $1",
					"id" : "obj-3",
					"fontname" : "Verdana",
					"numinlets" : 2,
					"patching_rect" : [ 255.0, 155.0, 63.0, 17.0 ],
					"numoutlets" : 1,
					"fontsize" : 10.0,
					"outlettype" : [ "" ]
				}

			}
, 			{
				"box" : 				{
					"maxclass" : "newobj",
					"text" : "jcom.degrade~",
					"id" : "obj-1",
					"fontname" : "Verdana",
					"numinlets" : 2,
					"patching_rect" : [ 90.0, 255.0, 88.0, 19.0 ],
					"numoutlets" : 2,
					"fontsize" : 10.0,
					"outlettype" : [ "", "" ]
				}

			}
, 			{
				"box" : 				{
					"maxclass" : "ezdac~",
					"id" : "obj-8",
					"numinlets" : 2,
					"patching_rect" : [ 90.0, 440.0, 45.0, 45.0 ],
					"numoutlets" : 0
				}

			}
, 			{
				"box" : 				{
					"maxclass" : "gain~",
					"id" : "obj-12",
					"numinlets" : 2,
					"patching_rect" : [ 90.0, 290.0, 20.0, 140.0 ],
					"numoutlets" : 2,
					"outlettype" : [ "signal", "int" ]
				}

			}
, 			{
				"box" : 				{
					"maxclass" : "message",
					"text" : "bitdepth $1",
					"id" : "obj-2",
					"fontname" : "Verdana",
					"numinlets" : 2,
					"patching_rect" : [ 320.0, 155.0, 68.0, 17.0 ],
					"numoutlets" : 1,
					"fontsize" : 10.0,
					"outlettype" : [ "" ]
				}

			}
, 			{
				"box" : 				{
					"maxclass" : "message",
					"text" : "srRatio $1",
					"id" : "obj-4",
					"fontname" : "Verdana",
					"numinlets" : 2,
					"patching_rect" : [ 395.0, 155.0, 63.0, 17.0 ],
					"numoutlets" : 1,
					"fontsize" : 10.0,
					"outlettype" : [ "" ]
				}

			}
, 			{
				"box" : 				{
					"maxclass" : "message",
					"text" : "open",
					"id" : "obj-9",
					"fontname" : "Verdana",
					"numinlets" : 2,
					"patching_rect" : [ 110.0, 130.0, 50.0, 17.0 ],
					"numoutlets" : 1,
					"fontsize" : 10.0,
					"outlettype" : [ "" ]
				}

			}
 ],
		"lines" : [ 			{
				"patchline" : 				{
					"source" : [ "obj-9", 0 ],
					"destination" : [ "obj-11", 0 ],
					"hidden" : 0,
					"midpoints" : [ 119.5, 177.0, 99.5, 177.0 ]
				}

			}
, 			{
				"patchline" : 				{
					"source" : [ "obj-7", 0 ],
					"destination" : [ "obj-11", 0 ],
					"hidden" : 0,
					"midpoints" : [  ]
				}

			}
, 			{
				"patchline" : 				{
					"source" : [ "obj-6", 0 ],
					"destination" : [ "obj-4", 0 ],
					"hidden" : 0,
					"midpoints" : [  ]
				}

			}
, 			{
				"patchline" : 				{
					"source" : [ "obj-5", 0 ],
					"destination" : [ "obj-2", 0 ],
					"hidden" : 0,
					"midpoints" : [  ]
				}

			}
, 			{
				"patchline" : 				{
					"source" : [ "obj-4", 0 ],
					"destination" : [ "obj-1", 0 ],
					"hidden" : 0,
					"midpoints" : [ 404.5, 240.0, 99.5, 240.0 ]
				}

			}
, 			{
				"patchline" : 				{
					"source" : [ "obj-3", 0 ],
					"destination" : [ "obj-1", 0 ],
					"hidden" : 0,
					"midpoints" : [ 264.5, 240.0, 99.5, 240.0 ]
				}

			}
, 			{
				"patchline" : 				{
					"source" : [ "obj-2", 0 ],
					"destination" : [ "obj-1", 0 ],
					"hidden" : 0,
					"midpoints" : [ 329.5, 240.0, 99.5, 240.0 ]
				}

			}
, 			{
				"patchline" : 				{
					"source" : [ "obj-17", 1 ],
					"destination" : [ "obj-6", 0 ],
					"hidden" : 1,
					"midpoints" : [  ]
				}

			}
, 			{
				"patchline" : 				{
					"source" : [ "obj-17", 0 ],
					"destination" : [ "obj-5", 0 ],
					"hidden" : 1,
					"midpoints" : [  ]
				}

			}
, 			{
				"patchline" : 				{
					"source" : [ "obj-16", 0 ],
					"destination" : [ "obj-17", 0 ],
					"hidden" : 1,
					"midpoints" : [  ]
				}

			}
, 			{
				"patchline" : 				{
					"source" : [ "obj-15", 0 ],
					"destination" : [ "obj-14", 0 ],
					"hidden" : 0,
					"midpoints" : [  ]
				}

			}
, 			{
				"patchline" : 				{
					"source" : [ "obj-14", 0 ],
					"destination" : [ "obj-11", 0 ],
					"hidden" : 0,
					"midpoints" : [ 179.5, 180.0, 99.5, 180.0 ]
				}

			}
, 			{
				"patchline" : 				{
					"source" : [ "obj-13", 0 ],
					"destination" : [ "obj-8", 1 ],
					"hidden" : 0,
					"midpoints" : [  ]
				}

			}
, 			{
				"patchline" : 				{
					"source" : [ "obj-12", 0 ],
					"destination" : [ "obj-8", 0 ],
					"hidden" : 0,
					"midpoints" : [  ]
				}

			}
, 			{
				"patchline" : 				{
					"source" : [ "obj-12", 1 ],
					"destination" : [ "obj-13", 0 ],
					"hidden" : 0,
					"midpoints" : [ 102.0, 434.0, 62.0, 434.0, 62.0, 284.0, 123.0, 284.0 ]
				}

			}
, 			{
				"patchline" : 				{
					"source" : [ "obj-11", 0 ],
					"destination" : [ "obj-1", 0 ],
					"hidden" : 0,
					"midpoints" : [  ]
				}

			}
, 			{
				"patchline" : 				{
					"source" : [ "obj-11", 1 ],
					"destination" : [ "obj-1", 1 ],
					"hidden" : 0,
					"midpoints" : [  ]
				}

			}
, 			{
				"patchline" : 				{
					"source" : [ "obj-10", 0 ],
					"destination" : [ "obj-3", 0 ],
					"hidden" : 0,
					"midpoints" : [  ]
				}

			}
, 			{
				"patchline" : 				{
					"source" : [ "obj-1", 1 ],
					"destination" : [ "obj-21", 0 ],
					"hidden" : 0,
					"midpoints" : [  ]
				}

			}
, 			{
				"patchline" : 				{
					"source" : [ "obj-1", 0 ],
					"destination" : [ "obj-19", 0 ],
					"hidden" : 0,
					"midpoints" : [  ]
				}

			}
, 			{
				"patchline" : 				{
					"source" : [ "obj-1", 1 ],
					"destination" : [ "obj-13", 0 ],
					"hidden" : 0,
					"midpoints" : [  ]
				}

			}
, 			{
				"patchline" : 				{
					"source" : [ "obj-1", 0 ],
					"destination" : [ "obj-12", 0 ],
					"hidden" : 0,
					"midpoints" : [  ]
				}

			}
 ]
	}

}
