max v2;
#N vpatcher 40 52 653 452;
#P window setfont "Sans Serif" 9.;
#P hidden newex 387 349 57 9109513 jcom.out~ 0;
#P hidden newex 387 308 53 9109513 jcom.in~ 2;
#P hidden message 323 138 63 9109513 range \$1 \$2;
#P hidden newex 323 115 55 9109513 pack -1. 1.;
#P hidden newex 323 92 32 9109513 * -1.;
#P window linecount 2;
#P comment 3 21 51 9109513 buffers per pixel;
#B frgb 181 181 181;
#P comment 3 73 51 9109513 samples per buffer;
#B frgb 181 181 181;
#P window linecount 1;
#P hidden message 262 107 38 9109513 set \$1;
#P window linecount 2;
#P hidden newex 279 36 295 9109513 jcom.parameter range @repetitions 0 @type msg_float @description "range of values above and below the zero line to display.";
#P objectname jcom.parameter.mxb;
#P hidden newex 86 221 282 9109513 jcom.parameter samples_per_buffer @range 8 256 @type msg_int @clipmode both @description "control the scope display";
#P objectname jcom.parameter.mxb[2];
#P flonum 231 106 28 9 0 0 8224 139 181 181 181 221 221 221 222 222 222 0 0 0;
#P user multiSlider 239 20 13 85 0. 100. 1 2937 47 0 0 2 0 0 0;
#M frgb 255 180 75;
#M brgb 140 140 140;
#M rgb2 127 127 127;
#M rgb3 0 0 0;
#M rgb4 37 52 91;
#M rgb5 74 105 182;
#M rgb6 112 158 18;
#M rgb7 149 211 110;
#M rgb8 187 9 201;
#M rgb9 224 62 37;
#M rgb10 7 114 128;
#P number 14 101 25 9 8 256 8227 139 181 181 181 221 221 221 222 222 222 0 0 0;
#P number 14 49 32 9 2 8092 8227 139 181 181 181 221 221 221 222 222 222 0 0 0;
#P user scope~ 56 21 232 119 128 3 128 -1. 1. 0 0. 0 0. 102 255 51 0 0 0 0;
#P hidden newex 126 185 264 9109513 jcom.parameter buffers_per_pixel @range 2 8092 @clipmode both @type msg_int @description "control the scope display";
#P objectname jcom.parameter.mxb[3];
#P window linecount 1;
#P hidden message 32 279 125 9109513 /documentation/generate;
#P window linecount 2;
#P hidden newex 11 306 359 9109513 jcom.hub jmod.scope~ @size 2U-half @module_type audio.no_panel @description "An oscilloscope emulator for viewing waverforms or analyzing phase relationships.";
#P objectname jcom.hub;
#P hidden inlet 430 288 15 0;
#P hidden inlet 387 288 15 0;
#P window linecount 1;
#P hidden message 161 279 23 9109513 /init;
#P hidden outlet 11 345 15 0;
#P hidden inlet 11 280 15 0;
#P hidden comment 387 271 58 9109513 -- audio in --;
#P bpatcher 0 0 255 120 0 0 jcom.gui.mxt 0;
#P objectname jcom.gui.mxt;
#P hidden fasten 4 0 7 0 166 302 16 302;
#P hidden fasten 8 0 7 0 37 300 16 300;
#P hidden connect 2 0 7 0;
#P hidden connect 7 0 3 0;
#P hidden connect 9 0 11 0;
#P hidden connect 15 0 12 0;
#P hidden connect 11 0 10 0;
#P hidden fasten 23 0 10 0 392 338 585 338 585 7 61 7;
#P hidden connect 22 0 10 0;
#P hidden connect 12 0 15 0;
#P hidden connect 11 0 9 0;
#P hidden connect 12 0 10 1;
#P hidden fasten 23 1 10 1 406 334 580 334 580 12 227 12;
#P hidden connect 17 0 14 0;
#P hidden connect 14 0 13 0;
#P hidden connect 16 1 13 0;
#P hidden connect 13 0 17 0;
#P hidden connect 14 0 16 0;
#P hidden connect 13 0 16 0;
#P hidden connect 14 0 20 0;
#P hidden connect 20 0 21 0;
#P hidden connect 21 0 22 0;
#P hidden connect 14 0 21 1;
#P hidden connect 5 0 23 0;
#P hidden connect 6 0 23 1;
#P pop;
