{
	"patcher" : 	{
		"rect" : [ 118.0, 51.0, 790.0, 638.0 ],
		"bgcolor" : [ 1.0, 1.0, 1.0, 1.0 ],
		"bglocked" : 0,
		"defrect" : [ 118.0, 51.0, 790.0, 638.0 ],
		"openinpresentation" : 0,
		"default_fontsize" : 10.0,
		"default_fontface" : 0,
		"default_fontname" : "Verdana",
		"gridonopen" : 0,
		"gridsize" : [ 15.0, 15.0 ],
		"gridsnaponopen" : 0,
		"toolbarvisible" : 1,
		"boxfadetime" : 200,
		"boxanimatetime" : 200,
		"scrollanimatetime" : 200,
		"metadata" : [  ],
		"boxes" : [ 			{
				"box" : 				{
					"maxclass" : "message",
					"text" : "\/samples_per_buffer $1",
					"patching_rect" : [ 439.0, 439.0, 150.0, 16.0 ],
					"fontname" : "Verdana",
					"numinlets" : 2,
					"id" : "obj-1",
					"numoutlets" : 1,
					"outlettype" : [ "" ],
					"fontsize" : 9.0
				}

			}
, 			{
				"box" : 				{
					"maxclass" : "number",
					"patching_rect" : [ 402.0, 439.0, 35.0, 17.0 ],
					"htextcolor" : [ 0.870588, 0.870588, 0.870588, 1.0 ],
					"fontname" : "Verdana",
					"numinlets" : 1,
					"id" : "obj-2",
					"numoutlets" : 2,
					"outlettype" : [ "int", "bang" ],
					"bgcolor" : [ 0.866667, 0.866667, 0.866667, 1.0 ],
					"fontsize" : 9.0,
					"triscale" : 0.9
				}

			}
, 			{
				"box" : 				{
					"maxclass" : "comment",
					"text" : "change this module's specific parameters remotely : continuously or with a ramp",
					"linecount" : 3,
					"patching_rect" : [ 612.0, 420.0, 177.0, 42.0 ],
					"fontname" : "Verdana",
					"numinlets" : 1,
					"id" : "obj-3",
					"numoutlets" : 0,
					"fontsize" : 9.0
				}

			}
, 			{
				"box" : 				{
					"maxclass" : "newobj",
					"text" : "s jmod.scope.cmd",
					"patching_rect" : [ 668.0, 519.0, 99.0, 17.0 ],
					"fontname" : "Verdana",
					"numinlets" : 1,
					"hidden" : 1,
					"id" : "obj-4",
					"numoutlets" : 0,
					"fontsize" : 9.0
				}

			}
, 			{
				"box" : 				{
					"maxclass" : "bpatcher",
					"patching_rect" : [ 396.0, 475.0, 374.0, 143.0 ],
					"name" : "jmod.attr_params.maxpat",
					"numinlets" : 0,
					"lockeddragscroll" : 1,
					"id" : "obj-5",
					"numoutlets" : 1,
					"outlettype" : [ "" ],
					"args" : [ "\/range" ]
				}

			}
, 			{
				"box" : 				{
					"maxclass" : "newobj",
					"text" : "s jmod.scope.cmd",
					"patching_rect" : [ 272.0, 281.0, 99.0, 17.0 ],
					"fontname" : "Verdana",
					"numinlets" : 1,
					"hidden" : 1,
					"id" : "obj-6",
					"numoutlets" : 0,
					"fontsize" : 9.0
				}

			}
, 			{
				"box" : 				{
					"maxclass" : "bpatcher",
					"patching_rect" : [ 13.0, 272.0, 374.0, 347.0 ],
					"name" : "jmod.preset_params.maxpat",
					"numinlets" : 0,
					"lockeddragscroll" : 1,
					"id" : "obj-7",
					"numoutlets" : 1,
					"outlettype" : [ "" ],
					"args" : [ "jmod.scope~" ]
				}

			}
, 			{
				"box" : 				{
					"maxclass" : "comment",
					"text" : "jmod.scope~",
					"patching_rect" : [ 20.0, 24.0, 199.0, 28.0 ],
					"fontname" : "Verdana",
					"numinlets" : 1,
					"id" : "obj-8",
					"numoutlets" : 0,
					"frgb" : [ 1.0, 1.0, 1.0, 1.0 ],
					"textcolor" : [ 1.0, 1.0, 1.0, 1.0 ],
					"fontsize" : 15.799999
				}

			}
, 			{
				"box" : 				{
					"maxclass" : "newobj",
					"text" : "s jmod.scope.cmd",
					"patching_rect" : [ 271.0, 175.0, 99.0, 17.0 ],
					"fontname" : "Verdana",
					"numinlets" : 1,
					"hidden" : 1,
					"id" : "obj-9",
					"numoutlets" : 0,
					"fontsize" : 9.0
				}

			}
, 			{
				"box" : 				{
					"maxclass" : "newobj",
					"text" : "s jmod.scope.cmd",
					"patching_rect" : [ 660.0, 373.0, 99.0, 17.0 ],
					"fontname" : "Verdana",
					"numinlets" : 1,
					"hidden" : 1,
					"id" : "obj-10",
					"numoutlets" : 0,
					"fontsize" : 9.0
				}

			}
, 			{
				"box" : 				{
					"maxclass" : "newobj",
					"text" : "r jmod.scope.cmd",
					"patching_rect" : [ 408.0, 162.0, 99.0, 17.0 ],
					"fontname" : "Verdana",
					"numinlets" : 0,
					"id" : "obj-11",
					"numoutlets" : 1,
					"outlettype" : [ "" ],
					"fontsize" : 9.0
				}

			}
, 			{
				"box" : 				{
					"maxclass" : "message",
					"text" : "\/range 0.1 ramp 5000",
					"patching_rect" : [ 513.0, 401.0, 140.0, 16.0 ],
					"fontname" : "Verdana",
					"numinlets" : 2,
					"id" : "obj-12",
					"numoutlets" : 1,
					"outlettype" : [ "" ],
					"fontsize" : 9.0
				}

			}
, 			{
				"box" : 				{
					"maxclass" : "bpatcher",
					"patching_rect" : [ 13.0, 170.0, 371.0, 96.0 ],
					"name" : "jmod.gain_params.maxpat",
					"numinlets" : 0,
					"lockeddragscroll" : 1,
					"id" : "obj-13",
					"numoutlets" : 1,
					"outlettype" : [ "" ],
					"args" : [  ]
				}

			}
, 			{
				"box" : 				{
					"maxclass" : "comment",
					"text" : "Module specific attributes",
					"patching_rect" : [ 398.0, 369.0, 236.0, 28.0 ],
					"fontname" : "Verdana",
					"numinlets" : 1,
					"id" : "obj-14",
					"numoutlets" : 0,
					"fontsize" : 15.799999
				}

			}
, 			{
				"box" : 				{
					"maxclass" : "panel",
					"patching_rect" : [ 395.0, 367.0, 373.0, 27.0 ],
					"rounded" : 0,
					"numinlets" : 1,
					"id" : "obj-15",
					"numoutlets" : 0,
					"bgcolor" : [ 0.596078, 0.596078, 0.701961, 1.0 ]
				}

			}
, 			{
				"box" : 				{
					"maxclass" : "message",
					"patching_rect" : [ 473.0, 324.0, 154.0, 15.0 ],
					"fontname" : "Verdana",
					"numinlets" : 2,
					"id" : "obj-16",
					"numoutlets" : 1,
					"outlettype" : [ "" ],
					"fontsize" : 9.0
				}

			}
, 			{
				"box" : 				{
					"maxclass" : "newobj",
					"text" : "prepend set",
					"patching_rect" : [ 408.0, 323.0, 61.0, 17.0 ],
					"fontname" : "Verdana",
					"numinlets" : 1,
					"id" : "obj-17",
					"numoutlets" : 1,
					"outlettype" : [ "" ],
					"fontsize" : 9.0
				}

			}
, 			{
				"box" : 				{
					"maxclass" : "bpatcher",
					"varname" : "\/control",
					"patching_rect" : [ 45.0, 92.0, 301.0, 71.0 ],
					"name" : "jmod.control.maxpat",
					"numinlets" : 1,
					"lockeddragscroll" : 1,
					"id" : "obj-18",
					"numoutlets" : 1,
					"outlettype" : [ "" ],
					"args" : [  ]
				}

			}
, 			{
				"box" : 				{
					"maxclass" : "bpatcher",
					"varname" : "\/input~",
					"patching_rect" : [ 408.0, 20.0, 303.0, 142.0 ],
					"name" : "jmod.input~.maxpat",
					"numinlets" : 1,
					"lockeddragscroll" : 1,
					"id" : "obj-19",
					"numoutlets" : 3,
					"outlettype" : [ "", "", "" ],
					"args" : [  ]
				}

			}
, 			{
				"box" : 				{
					"maxclass" : "bpatcher",
					"varname" : "\/scope~",
					"patching_rect" : [ 408.0, 181.0, 303.0, 142.0 ],
					"name" : "jmod.scope~.maxpat",
					"numinlets" : 3,
					"lockeddragscroll" : 1,
					"id" : "obj-20",
					"numoutlets" : 1,
					"outlettype" : [ "" ],
					"args" : [  ]
				}

			}
, 			{
				"box" : 				{
					"maxclass" : "message",
					"text" : "\/buffers_per_pixel $1",
					"patching_rect" : [ 439.0, 420.0, 140.0, 16.0 ],
					"fontname" : "Verdana",
					"numinlets" : 2,
					"id" : "obj-21",
					"numoutlets" : 1,
					"outlettype" : [ "" ],
					"fontsize" : 9.0
				}

			}
, 			{
				"box" : 				{
					"maxclass" : "number",
					"patching_rect" : [ 402.0, 420.0, 35.0, 17.0 ],
					"htextcolor" : [ 0.870588, 0.870588, 0.870588, 1.0 ],
					"fontname" : "Verdana",
					"numinlets" : 1,
					"id" : "obj-22",
					"numoutlets" : 2,
					"outlettype" : [ "int", "bang" ],
					"bgcolor" : [ 0.866667, 0.866667, 0.866667, 1.0 ],
					"fontsize" : 9.0,
					"triscale" : 0.9
				}

			}
, 			{
				"box" : 				{
					"maxclass" : "message",
					"text" : "\/range $1",
					"patching_rect" : [ 439.0, 401.0, 84.0, 16.0 ],
					"fontname" : "Verdana",
					"numinlets" : 2,
					"id" : "obj-23",
					"numoutlets" : 1,
					"outlettype" : [ "" ],
					"fontsize" : 9.0
				}

			}
, 			{
				"box" : 				{
					"maxclass" : "flonum",
					"patching_rect" : [ 402.0, 401.0, 35.0, 17.0 ],
					"htextcolor" : [ 0.870588, 0.870588, 0.870588, 1.0 ],
					"fontname" : "Verdana",
					"numinlets" : 1,
					"id" : "obj-24",
					"numoutlets" : 2,
					"outlettype" : [ "float", "bang" ],
					"bgcolor" : [ 0.866667, 0.866667, 0.866667, 1.0 ],
					"fontsize" : 9.0,
					"triscale" : 0.9
				}

			}
, 			{
				"box" : 				{
					"maxclass" : "panel",
					"patching_rect" : [ 395.0, 395.0, 377.0, 75.0 ],
					"rounded" : 0,
					"numinlets" : 1,
					"id" : "obj-25",
					"numoutlets" : 0,
					"bgcolor" : [ 0.780392, 0.780392, 0.839216, 1.0 ]
				}

			}
, 			{
				"box" : 				{
					"maxclass" : "comment",
					"text" : "visualization of signal",
					"patching_rect" : [ 20.0, 55.0, 144.0, 18.0 ],
					"fontname" : "Verdana",
					"numinlets" : 1,
					"id" : "obj-26",
					"numoutlets" : 0,
					"frgb" : [ 1.0, 1.0, 1.0, 1.0 ],
					"textcolor" : [ 1.0, 1.0, 1.0, 1.0 ],
					"fontsize" : 9.0
				}

			}
, 			{
				"box" : 				{
					"maxclass" : "panel",
					"patching_rect" : [ 12.0, 15.0, 373.0, 68.0 ],
					"rounded" : 0,
					"numinlets" : 1,
					"id" : "obj-27",
					"numoutlets" : 0,
					"bgcolor" : [ 0.262745, 0.254902, 0.419608, 1.0 ],
					"bordercolor" : [ 0.501961, 0.043137, 0.039216, 1.0 ]
				}

			}
, 			{
				"box" : 				{
					"maxclass" : "panel",
					"patching_rect" : [ 12.0, 15.0, 273.0, 63.0 ],
					"rounded" : 0,
					"numinlets" : 1,
					"id" : "obj-28",
					"numoutlets" : 0,
					"bgcolor" : [ 0.262745, 0.254902, 0.419608, 1.0 ],
					"bordercolor" : [ 0.501961, 0.043137, 0.039216, 1.0 ]
				}

			}
, 			{
				"box" : 				{
					"maxclass" : "newobj",
					"text" : "dac~ 1 2",
					"patching_rect" : [ 571.0, 163.0, 114.0, 17.0 ],
					"fontname" : "Verdana",
					"numinlets" : 2,
					"id" : "obj-29",
					"numoutlets" : 0,
					"fontsize" : 9.0
				}

			}
, 			{
				"box" : 				{
					"maxclass" : "newobj",
					"text" : "loadmess set",
					"linecount" : 2,
					"patching_rect" : [ 473.0, 315.0, 52.0, 28.0 ],
					"fontname" : "Verdana",
					"numinlets" : 1,
					"hidden" : 1,
					"id" : "obj-30",
					"numoutlets" : 1,
					"outlettype" : [ "" ],
					"fontsize" : 9.0
				}

			}
 ],
		"lines" : [ 			{
				"patchline" : 				{
					"source" : [ "obj-13", 0 ],
					"destination" : [ "obj-9", 0 ],
					"hidden" : 1
				}

			}
, 			{
				"patchline" : 				{
					"source" : [ "obj-7", 0 ],
					"destination" : [ "obj-6", 0 ],
					"hidden" : 1
				}

			}
, 			{
				"patchline" : 				{
					"source" : [ "obj-24", 0 ],
					"destination" : [ "obj-23", 0 ],
					"hidden" : 1
				}

			}
, 			{
				"patchline" : 				{
					"source" : [ "obj-22", 0 ],
					"destination" : [ "obj-21", 0 ],
					"hidden" : 1
				}

			}
, 			{
				"patchline" : 				{
					"source" : [ "obj-2", 0 ],
					"destination" : [ "obj-1", 0 ],
					"hidden" : 1
				}

			}
, 			{
				"patchline" : 				{
					"source" : [ "obj-11", 0 ],
					"destination" : [ "obj-20", 0 ],
					"hidden" : 0
				}

			}
, 			{
				"patchline" : 				{
					"source" : [ "obj-20", 0 ],
					"destination" : [ "obj-17", 0 ],
					"hidden" : 0
				}

			}
, 			{
				"patchline" : 				{
					"source" : [ "obj-30", 0 ],
					"destination" : [ "obj-16", 0 ],
					"hidden" : 1,
					"midpoints" : [ 482.5, 343.0, 482.5, 343.0 ]
				}

			}
, 			{
				"patchline" : 				{
					"source" : [ "obj-17", 0 ],
					"destination" : [ "obj-16", 0 ],
					"hidden" : 0
				}

			}
, 			{
				"patchline" : 				{
					"source" : [ "obj-19", 1 ],
					"destination" : [ "obj-20", 1 ],
					"hidden" : 0
				}

			}
, 			{
				"patchline" : 				{
					"source" : [ "obj-19", 1 ],
					"destination" : [ "obj-29", 0 ],
					"hidden" : 0
				}

			}
, 			{
				"patchline" : 				{
					"source" : [ "obj-1", 0 ],
					"destination" : [ "obj-10", 0 ],
					"hidden" : 1
				}

			}
, 			{
				"patchline" : 				{
					"source" : [ "obj-12", 0 ],
					"destination" : [ "obj-10", 0 ],
					"hidden" : 1
				}

			}
, 			{
				"patchline" : 				{
					"source" : [ "obj-23", 0 ],
					"destination" : [ "obj-10", 0 ],
					"hidden" : 1
				}

			}
, 			{
				"patchline" : 				{
					"source" : [ "obj-21", 0 ],
					"destination" : [ "obj-10", 0 ],
					"hidden" : 1
				}

			}
, 			{
				"patchline" : 				{
					"source" : [ "obj-5", 0 ],
					"destination" : [ "obj-4", 0 ],
					"hidden" : 1
				}

			}
, 			{
				"patchline" : 				{
					"source" : [ "obj-19", 2 ],
					"destination" : [ "obj-29", 1 ],
					"hidden" : 0
				}

			}
, 			{
				"patchline" : 				{
					"source" : [ "obj-19", 2 ],
					"destination" : [ "obj-20", 2 ],
					"hidden" : 0
				}

			}
 ]
	}

}
