{
	"patcher" : 	{
		"fileversion" : 1,
		"rect" : [ 71.0, 69.0, 816.0, 378.0 ],
		"bglocked" : 0,
		"defrect" : [ 71.0, 69.0, 816.0, 378.0 ],
		"openrect" : [ 0.0, 0.0, 0.0, 0.0 ],
		"openinpresentation" : 0,
		"default_fontsize" : 10.0,
		"default_fontface" : 0,
		"default_fontname" : "Verdana",
		"gridonopen" : 0,
		"gridsize" : [ 5.0, 5.0 ],
		"gridsnaponopen" : 0,
		"toolbarvisible" : 1,
		"boxanimatetime" : 200,
		"imprint" : 0,
		"boxes" : [ 			{
				"box" : 				{
					"maxclass" : "comment",
					"text" : "I'm not yet sure if this is a feature or a bug.  The op was set to 5 channels when the audio graph was inintialized, but it is not dynamically updated during the processing of the graph.",
					"linecount" : 5,
					"presentation_rect" : [ 568.0, 258.0, 0.0, 0.0 ],
					"frgb" : [ 0.0, 0.0, 0.0, 1.0 ],
					"patching_rect" : [ 575.0, 255.0, 206.0, 67.0 ],
					"id" : "obj-21",
					"fontname" : "Verdana",
					"numinlets" : 1,
					"numoutlets" : 0,
					"fontsize" : 10.0
				}

			}
, 			{
				"box" : 				{
					"maxclass" : "comment",
					"text" : "Because the signal properties are modified dynamically while the audio graph is being calculated, and not at initialization, you will need to manually poll the info≈ objects to get an accurate idea of the number of audio channels.",
					"linecount" : 7,
					"presentation_rect" : [ 569.0, 50.0, 0.0, 0.0 ],
					"frgb" : [ 0.0, 0.0, 0.0, 1.0 ],
					"patching_rect" : [ 575.0, 50.0, 187.0, 92.0 ],
					"id" : "obj-14",
					"fontname" : "Verdana",
					"numinlets" : 1,
					"numoutlets" : 0,
					"fontsize" : 10.0
				}

			}
, 			{
				"box" : 				{
					"maxclass" : "number",
					"outlettype" : [ "int", "bang" ],
					"patching_rect" : [ 495.0, 260.0, 50.0, 19.0 ],
					"id" : "obj-28",
					"fontname" : "Verdana",
					"numinlets" : 1,
					"numoutlets" : 2,
					"fontsize" : 10.0
				}

			}
, 			{
				"box" : 				{
					"maxclass" : "newobj",
					"text" : "info≈",
					"outlettype" : [ "", "", "", "" ],
					"patching_rect" : [ 435.0, 260.0, 59.5, 19.0 ],
					"id" : "obj-29",
					"fontname" : "Verdana",
					"numinlets" : 1,
					"numoutlets" : 4,
					"fontsize" : 10.0
				}

			}
, 			{
				"box" : 				{
					"maxclass" : "newobj",
					"text" : "op≈ @operator * @operand 10",
					"outlettype" : [ "", "" ],
					"patching_rect" : [ 400.0, 235.0, 168.0, 19.0 ],
					"id" : "obj-23",
					"fontname" : "Verdana",
					"numinlets" : 1,
					"numoutlets" : 2,
					"fontsize" : 10.0
				}

			}
, 			{
				"box" : 				{
					"maxclass" : "number~",
					"outlettype" : [ "signal", "float" ],
					"patching_rect" : [ 475.0, 335.0, 70.0, 19.0 ],
					"mode" : 2,
					"id" : "obj-26",
					"fontname" : "Verdana",
					"sig" : 0.0,
					"numinlets" : 2,
					"numoutlets" : 2,
					"fontsize" : 10.0
				}

			}
, 			{
				"box" : 				{
					"maxclass" : "newobj",
					"text" : "sig~ 3.14",
					"outlettype" : [ "signal" ],
					"patching_rect" : [ 475.0, 50.0, 59.0, 19.0 ],
					"id" : "obj-25",
					"fontname" : "Verdana",
					"numinlets" : 1,
					"numoutlets" : 1,
					"fontsize" : 10.0
				}

			}
, 			{
				"box" : 				{
					"maxclass" : "comment",
					"text" : "Takes a multichannel signal, and splits it into 2 smaller multichannel signals.",
					"linecount" : 3,
					"frgb" : [ 0.0, 0.0, 0.0, 1.0 ],
					"patching_rect" : [ 15.0, 130.0, 159.0, 43.0 ],
					"id" : "obj-24",
					"fontname" : "Verdana",
					"numinlets" : 1,
					"numoutlets" : 0,
					"fontsize" : 10.0
				}

			}
, 			{
				"box" : 				{
					"maxclass" : "button",
					"outlettype" : [ "bang" ],
					"patching_rect" : [ 555.0, 85.0, 20.0, 20.0 ],
					"id" : "obj-19",
					"numinlets" : 1,
					"numoutlets" : 1
				}

			}
, 			{
				"box" : 				{
					"maxclass" : "number",
					"outlettype" : [ "int", "bang" ],
					"patching_rect" : [ 495.0, 190.0, 50.0, 19.0 ],
					"id" : "obj-20",
					"fontname" : "Verdana",
					"numinlets" : 1,
					"numoutlets" : 2,
					"fontsize" : 10.0
				}

			}
, 			{
				"box" : 				{
					"maxclass" : "newobj",
					"text" : "info≈",
					"outlettype" : [ "", "", "", "" ],
					"patching_rect" : [ 435.0, 190.0, 59.5, 19.0 ],
					"id" : "obj-22",
					"fontname" : "Verdana",
					"numinlets" : 1,
					"numoutlets" : 4,
					"fontsize" : 10.0
				}

			}
, 			{
				"box" : 				{
					"maxclass" : "number",
					"outlettype" : [ "int", "bang" ],
					"patching_rect" : [ 290.0, 115.0, 50.0, 19.0 ],
					"id" : "obj-15",
					"fontname" : "Verdana",
					"numinlets" : 1,
					"numoutlets" : 2,
					"fontsize" : 10.0
				}

			}
, 			{
				"box" : 				{
					"maxclass" : "newobj",
					"text" : "info≈",
					"outlettype" : [ "", "", "", "" ],
					"patching_rect" : [ 230.0, 115.0, 59.5, 19.0 ],
					"id" : "obj-16",
					"fontname" : "Verdana",
					"numinlets" : 1,
					"numoutlets" : 4,
					"fontsize" : 10.0
				}

			}
, 			{
				"box" : 				{
					"maxclass" : "number",
					"outlettype" : [ "int", "bang" ],
					"patching_rect" : [ 290.0, 190.0, 50.0, 19.0 ],
					"id" : "obj-17",
					"fontname" : "Verdana",
					"numinlets" : 1,
					"numoutlets" : 2,
					"fontsize" : 10.0
				}

			}
, 			{
				"box" : 				{
					"maxclass" : "newobj",
					"text" : "info≈",
					"outlettype" : [ "", "", "", "" ],
					"patching_rect" : [ 230.0, 190.0, 59.5, 19.0 ],
					"id" : "obj-18",
					"fontname" : "Verdana",
					"numinlets" : 1,
					"numoutlets" : 4,
					"fontsize" : 10.0
				}

			}
, 			{
				"box" : 				{
					"maxclass" : "number~",
					"outlettype" : [ "signal", "float" ],
					"patching_rect" : [ 315.0, 285.0, 56.0, 19.0 ],
					"mode" : 2,
					"id" : "obj-10",
					"fontname" : "Verdana",
					"sig" : 0.0,
					"numinlets" : 2,
					"numoutlets" : 2,
					"fontsize" : 10.0
				}

			}
, 			{
				"box" : 				{
					"maxclass" : "number~",
					"outlettype" : [ "signal", "float" ],
					"patching_rect" : [ 400.0, 335.0, 69.0, 19.0 ],
					"mode" : 2,
					"id" : "obj-11",
					"fontname" : "Verdana",
					"sig" : 0.0,
					"numinlets" : 2,
					"numoutlets" : 2,
					"fontsize" : 10.0
				}

			}
, 			{
				"box" : 				{
					"maxclass" : "newobj",
					"text" : "out≈ 2",
					"outlettype" : [ "signal", "signal", "" ],
					"patching_rect" : [ 400.0, 300.0, 169.0, 19.0 ],
					"id" : "obj-13",
					"fontname" : "Verdana",
					"numinlets" : 1,
					"numoutlets" : 3,
					"fontsize" : 10.0
				}

			}
, 			{
				"box" : 				{
					"maxclass" : "newobj",
					"text" : "split≈ @splitChannel 3",
					"outlettype" : [ "", "", "" ],
					"patching_rect" : [ 195.0, 160.0, 428.0, 19.0 ],
					"id" : "obj-2",
					"fontname" : "Verdana",
					"numinlets" : 1,
					"numoutlets" : 3,
					"fontsize" : 10.0
				}

			}
, 			{
				"box" : 				{
					"maxclass" : "ezdac~",
					"patching_rect" : [ 65.0, 195.0, 45.0, 45.0 ],
					"id" : "obj-12",
					"numinlets" : 2,
					"numoutlets" : 0
				}

			}
, 			{
				"box" : 				{
					"maxclass" : "number~",
					"outlettype" : [ "signal", "float" ],
					"patching_rect" : [ 255.0, 285.0, 56.0, 19.0 ],
					"mode" : 2,
					"id" : "obj-9",
					"fontname" : "Verdana",
					"sig" : 0.0,
					"numinlets" : 2,
					"numoutlets" : 2,
					"fontsize" : 10.0
				}

			}
, 			{
				"box" : 				{
					"maxclass" : "number~",
					"outlettype" : [ "signal", "float" ],
					"patching_rect" : [ 195.0, 285.0, 56.0, 19.0 ],
					"mode" : 2,
					"id" : "obj-8",
					"fontname" : "Verdana",
					"sig" : 0.0,
					"numinlets" : 2,
					"numoutlets" : 2,
					"fontsize" : 10.0
				}

			}
, 			{
				"box" : 				{
					"maxclass" : "newobj",
					"text" : "sig~ -200",
					"outlettype" : [ "signal" ],
					"patching_rect" : [ 405.0, 50.0, 60.0, 19.0 ],
					"id" : "obj-6",
					"fontname" : "Verdana",
					"numinlets" : 1,
					"numoutlets" : 1,
					"fontsize" : 10.0
				}

			}
, 			{
				"box" : 				{
					"maxclass" : "newobj",
					"text" : "sig~ 200",
					"outlettype" : [ "signal" ],
					"patching_rect" : [ 335.0, 50.0, 55.0, 19.0 ],
					"id" : "obj-7",
					"fontname" : "Verdana",
					"numinlets" : 1,
					"numoutlets" : 1,
					"fontsize" : 10.0
				}

			}
, 			{
				"box" : 				{
					"maxclass" : "newobj",
					"text" : "sig~ -100",
					"outlettype" : [ "signal" ],
					"patching_rect" : [ 265.0, 50.0, 60.0, 19.0 ],
					"id" : "obj-5",
					"fontname" : "Verdana",
					"numinlets" : 1,
					"numoutlets" : 1,
					"fontsize" : 10.0
				}

			}
, 			{
				"box" : 				{
					"maxclass" : "newobj",
					"text" : "sig~ 100",
					"outlettype" : [ "signal" ],
					"patching_rect" : [ 195.0, 50.0, 55.0, 19.0 ],
					"id" : "obj-4",
					"fontname" : "Verdana",
					"numinlets" : 1,
					"numoutlets" : 1,
					"fontsize" : 10.0
				}

			}
, 			{
				"box" : 				{
					"maxclass" : "newobj",
					"text" : "out≈ 3",
					"outlettype" : [ "signal", "signal", "signal", "" ],
					"patching_rect" : [ 195.0, 235.0, 198.5, 19.0 ],
					"id" : "obj-3",
					"fontname" : "Verdana",
					"numinlets" : 1,
					"numoutlets" : 4,
					"fontsize" : 10.0
				}

			}
, 			{
				"box" : 				{
					"maxclass" : "newobj",
					"text" : "in≈ 5",
					"outlettype" : [ "", "" ],
					"patching_rect" : [ 195.0, 85.0, 299.0, 19.0 ],
					"id" : "obj-1",
					"fontname" : "Verdana",
					"numinlets" : 5,
					"numoutlets" : 2,
					"fontsize" : 10.0
				}

			}
 ],
		"lines" : [ 			{
				"patchline" : 				{
					"source" : [ "obj-23", 0 ],
					"destination" : [ "obj-29", 0 ],
					"hidden" : 0,
					"midpoints" : [  ]
				}

			}
, 			{
				"patchline" : 				{
					"source" : [ "obj-29", 2 ],
					"destination" : [ "obj-28", 0 ],
					"hidden" : 0,
					"midpoints" : [  ]
				}

			}
, 			{
				"patchline" : 				{
					"source" : [ "obj-2", 1 ],
					"destination" : [ "obj-23", 0 ],
					"hidden" : 0,
					"midpoints" : [  ]
				}

			}
, 			{
				"patchline" : 				{
					"source" : [ "obj-23", 0 ],
					"destination" : [ "obj-13", 0 ],
					"hidden" : 0,
					"midpoints" : [  ]
				}

			}
, 			{
				"patchline" : 				{
					"source" : [ "obj-3", 2 ],
					"destination" : [ "obj-10", 0 ],
					"hidden" : 0,
					"midpoints" : [  ]
				}

			}
, 			{
				"patchline" : 				{
					"source" : [ "obj-3", 0 ],
					"destination" : [ "obj-8", 0 ],
					"hidden" : 0,
					"midpoints" : [  ]
				}

			}
, 			{
				"patchline" : 				{
					"source" : [ "obj-3", 1 ],
					"destination" : [ "obj-9", 0 ],
					"hidden" : 0,
					"midpoints" : [  ]
				}

			}
, 			{
				"patchline" : 				{
					"source" : [ "obj-18", 2 ],
					"destination" : [ "obj-17", 0 ],
					"hidden" : 0,
					"midpoints" : [  ]
				}

			}
, 			{
				"patchline" : 				{
					"source" : [ "obj-2", 0 ],
					"destination" : [ "obj-18", 0 ],
					"hidden" : 0,
					"midpoints" : [  ]
				}

			}
, 			{
				"patchline" : 				{
					"source" : [ "obj-2", 0 ],
					"destination" : [ "obj-3", 0 ],
					"hidden" : 0,
					"midpoints" : [  ]
				}

			}
, 			{
				"patchline" : 				{
					"source" : [ "obj-16", 2 ],
					"destination" : [ "obj-15", 0 ],
					"hidden" : 0,
					"midpoints" : [  ]
				}

			}
, 			{
				"patchline" : 				{
					"source" : [ "obj-19", 0 ],
					"destination" : [ "obj-22", 0 ],
					"hidden" : 0,
					"midpoints" : [  ]
				}

			}
, 			{
				"patchline" : 				{
					"source" : [ "obj-22", 2 ],
					"destination" : [ "obj-20", 0 ],
					"hidden" : 0,
					"midpoints" : [  ]
				}

			}
, 			{
				"patchline" : 				{
					"source" : [ "obj-2", 1 ],
					"destination" : [ "obj-22", 0 ],
					"hidden" : 0,
					"midpoints" : [  ]
				}

			}
, 			{
				"patchline" : 				{
					"source" : [ "obj-1", 0 ],
					"destination" : [ "obj-16", 0 ],
					"hidden" : 0,
					"midpoints" : [  ]
				}

			}
, 			{
				"patchline" : 				{
					"source" : [ "obj-1", 0 ],
					"destination" : [ "obj-2", 0 ],
					"hidden" : 0,
					"midpoints" : [  ]
				}

			}
, 			{
				"patchline" : 				{
					"source" : [ "obj-6", 0 ],
					"destination" : [ "obj-1", 3 ],
					"hidden" : 0,
					"midpoints" : [  ]
				}

			}
, 			{
				"patchline" : 				{
					"source" : [ "obj-7", 0 ],
					"destination" : [ "obj-1", 2 ],
					"hidden" : 0,
					"midpoints" : [  ]
				}

			}
, 			{
				"patchline" : 				{
					"source" : [ "obj-5", 0 ],
					"destination" : [ "obj-1", 1 ],
					"hidden" : 0,
					"midpoints" : [  ]
				}

			}
, 			{
				"patchline" : 				{
					"source" : [ "obj-4", 0 ],
					"destination" : [ "obj-1", 0 ],
					"hidden" : 0,
					"midpoints" : [  ]
				}

			}
, 			{
				"patchline" : 				{
					"source" : [ "obj-25", 0 ],
					"destination" : [ "obj-1", 4 ],
					"hidden" : 0,
					"midpoints" : [  ]
				}

			}
, 			{
				"patchline" : 				{
					"source" : [ "obj-13", 0 ],
					"destination" : [ "obj-11", 0 ],
					"hidden" : 0,
					"midpoints" : [  ]
				}

			}
, 			{
				"patchline" : 				{
					"source" : [ "obj-13", 1 ],
					"destination" : [ "obj-26", 0 ],
					"hidden" : 0,
					"midpoints" : [  ]
				}

			}
, 			{
				"patchline" : 				{
					"source" : [ "obj-19", 0 ],
					"destination" : [ "obj-29", 0 ],
					"hidden" : 0,
					"midpoints" : [  ]
				}

			}
, 			{
				"patchline" : 				{
					"source" : [ "obj-19", 0 ],
					"destination" : [ "obj-18", 0 ],
					"hidden" : 0,
					"midpoints" : [  ]
				}

			}
, 			{
				"patchline" : 				{
					"source" : [ "obj-19", 0 ],
					"destination" : [ "obj-16", 0 ],
					"hidden" : 0,
					"midpoints" : [  ]
				}

			}
 ]
	}

}
