max v2;
#N vpatcher 0 0 1440 834;
#P window setfont "Sans Serif" 9.;
#P newex 265 75 155 9109513 jcom.oscroute /0 /1 /2 /3 /4 /5 /6 /7;
#P objectname jcom.oscroute_2;
#P newex 21 75 210 9109513 jcom.oscroute /script /write_control /data;
#P objectname jcom.oscroute_1;
#P window linecount 5;
#P comment 334 267 155 9109513 This patcher takes a script in the left inlet. The script tells the dynamic patcher to create a new object. Data is sent through the right inlet.;
#P window linecount 1;
#N thispatcher;
#Q end;
#P newobj 21 121 57 9109513 thispatcher;
#P objectname tp;
#N comlet thispatcher;
#P inlet 21 46 16 0;
#P connect 0 0 3 0;
#P connect 3 0 1 0;
#P fasten 3 2 4 0 158 95 256 95 256 70 270 70;
#P pop;
