max v2;
#N vpatcher 25 70 581 458;
#P origin 0 -9;
#P window setfont "Sans Serif" 9.;
#P window linecount 1;
#P newex 201 50 111 9109513 jcom.oscroute /nvt /data;
#P objectname jcom.oscroute_3;
#N comlet data in;
#P inlet 201 21 15 0;
#P newex 173 267 112 9109513 prepend now recording to;
#P newex 173 240 52 9109513 route open;
#P newex 207 170 27 9109513 +;
#P objectname sdif_write;
#P newex 102 267 70 9109513 prepend define;
#P newex 102 239 58 9109513 route define;
#P newex 19 214 86 9109513 prepend script new;
#P newex 19 190 48 9109513 route new;
#P newex 19 168 55 9109513 route script;
#N ftm.print --> 0;
#T _#ftm version 2 3;
#T _#scope begin;
#T _#absargs $0_ $1_ $2_ $3_ $4_ $5_ $6_ $7_ $8_ $9_;
#T _#scope end;
#P newobj 19 299 44 9109513 ftm.print;
#P newex 251 73 155 9109513 jcom.oscroute /0 /1 /2 /3 /4 /5 /6 /7;
#P objectname jcom.oscroute_2;
#P newex 36 50 154 9109513 jcom.oscroute /script /write_control;
#P objectname jcom.oscroute_1;
#P window linecount 4;
#P comment 128 303 155 9109513 This patcher takes a script in the left inlet. The script tells the dynamic patcher to create a new object.;
#P window linecount 1;
#N thispatcher;
#Q end;
#P newobj 36 136 57 9109513 thispatcher;
#P objectname tp;
#N comlet thispatcher;
#P inlet 36 21 16 0;
#P fasten 3 0 6 0 41 129 24 129;
#P connect 6 0 7 0;
#P connect 7 0 8 0;
#P fasten 10 0 5 0 107 293 24 293;
#P connect 8 0 5 0;
#P fasten 13 0 5 0 178 293 24 293;
#P connect 0 0 3 0;
#P connect 3 0 1 0;
#P fasten 3 1 9 0 113 233 107 233;
#P connect 9 0 10 0;
#P fasten 3 1 12 0 113 233 178 233;
#P connect 12 0 13 0;
#P connect 14 0 15 0;
#P connect 15 1 4 0;
#P pop;
