max v2;
#N vpatcher 25 70 581 458;
#P origin 0 -9;
#P window setfont "Sans Serif" 9.;
#P newex 290 56 130 9109513 jcom.oscroute /nvt /data;
#P objectname jcom.oscroute_3;
#N comlet data in;
#P inlet 290 27 15 0;
#P newex 237 265 125 9109513 prepend now recording to;
#P newex 237 238 60 9109513 route open;
#P newex 241 172 27 9109513 +;
#P objectname sdif_write;
#P newex 152 265 80 9109513 prepend define;
#P newex 152 237 68 9109513 route define;
#P newex 51 216 102 9109513 prepend script new;
#P newex 51 192 64 9109513 route new;
#P newex 51 170 71 9109513 route script;
#N ftm.print --> 0;
#T _#ftm version 2 3;
#T _#scope begin;
#T _#absargs $0_ $1_ $2_ $3_ $4_ $5_ $6_ $7_ $8_ $9_;
#T _#scope end;
#P newobj 19 325 44 9109513 ftm.print;
#P newex 350 78 174 9109513 jcom.oscroute /0 /1 /2 /3 /4 /5 /6 /7;
#P objectname jcom.oscroute_2;
#P newex 19 56 233 9109513 jcom.oscroute /print /script /write_control;
#P objectname jcom.oscroute_1;
#P window linecount 2;
#P comment 86 299 257 9109513 This patcher takes a script in the left inlet. The script creates a new object \, ftm.sdif.write.;
#P window linecount 1;
#N thispatcher;
#Q end;
#P newobj 93 133 73 9109513 thispatcher;
#P objectname tp;
#N comlet thispatcher;
#P inlet 19 27 16 0;
#P newex 19 297 42 9109513 gate 1 1;
#P objectname tp[1];
#P connect 1 0 4 0;
#P connect 4 0 0 0;
#P connect 0 0 6 0;
#P fasten 4 1 7 0 98 122 56 122;
#P connect 7 0 8 0;
#P connect 8 0 9 0;
#P connect 9 0 0 1;
#P fasten 11 0 0 1 157 290 56 290;
#P fasten 14 0 0 1 242 290 56 290;
#P connect 4 1 2 0;
#P fasten 4 2 10 0 172 230 157 230;
#P connect 10 0 11 0;
#P fasten 4 2 13 0 172 230 242 230;
#P connect 13 0 14 0;
#P connect 15 0 16 0;
#P connect 16 1 5 0;
#P pop;
