max v2;
#N vpatcher 538 97 1229 361;
#P origin -28 16;
#P window setfont "Sans Serif" 9.;
#P window linecount 2;
#P comment 341 203 320 9109513 The messages are route according to the number of streams to be recorded.;
#P comment 341 170 320 9109513 The ftm.sdif.write needs different arguments according to the amount of streams and the stream ID.;
#P window linecount 1;
#N vpatcher 640 299 1240 699;
#P window setfont "Sans Serif" 9.;
#P window linecount 0;
#P newex 55 55 149 9109513 jcom.oscroute /stream_names;
#P newex 55 80 111 9109513 jcom.oscroute /0 /1 /2 /3;
#P outlet 55 366 15 0;
#P inlet 55 34 15 0;
#P window linecount 1;
#P newex 55 114 40 9109513 t b l b;
#P newex 457 332 81 9109513 prepend /script;
#P window setfont "Fixedwidth Serif" 10.;
#P message 85 138 154 9240586 script delete sdif_write;
#P window linecount 5;
#P message 55 214 380 9240586 script offsetfrom sdif_write tp 1 29 0 \, script connect jcom.oscroute_2 0 sdif_write 0 \, script connect jcom.oscroute_2 1 sdif_write 1 \, script connect jcom.oscroute_2 2 sdif_write 2 \, script connect jcom.oscroute_2 3 sdif_write 3 \, script connect jcom.oscroute_1 1 sdif_write 0 \, clean;
#P window setfont "Sans Serif" 9.;
#P window linecount 2;
#P newex 70 166 219 9109513 sprintf script new sdif_write newex 100 400 44 9109513 ftm.sdif.write %s 0 %s 1 %s 2 %s 3;
#P connect 5 0 8 0;
#P connect 8 0 7 0;
#P connect 7 0 4 0;
#P connect 4 0 1 0;
#P fasten 3 0 6 0 462 357 60 357;
#P fasten 8 1 6 0 199 93 542 93 542 357 60 357;
#P connect 4 1 0 0;
#P connect 4 2 2 0;
#P connect 7 1 0 1;
#P connect 7 2 0 2;
#P connect 7 3 0 3;
#P fasten 0 0 3 0 75 209 462 209;
#P fasten 2 0 3 0 90 159 462 159;
#P fasten 1 0 3 0 60 317 462 317;
#P pop;
#P newobj 256 159 67 9109513 p fourstreams;
#N vpatcher 717 37 1391 274;
#P window setfont "Sans Serif" 9.;
#P window linecount 1;
#N vpatcher 86 360 686 760;
#P window setfont "Sans Serif" 9.;
#P window linecount 2;
#P comment 39 198 107 9109513 argument: stream number;
#P window linecount 1;
#P newex 218 123 122 9109513 buddy 3;
#P newex 78 243 137 9109513 buddy;
#P newex 78 217 57 9109513 patcherargs;
#P newex 78 271 137 9109513 sprintf /stream_IDs/%ld %s;
#P window linecount 0;
#P newex 218 217 47 9109513 tosymbol;
#P newex 274 158 75 9109513 prepend symbol;
#P newex 218 57 178 9109513 jcom.oscroute /ID /variables /description;
#P newex 218 243 70 9109513 prepend define;
#P newex 274 85 47 9109513 tosymbol;
#P newex 218 188 237 9109513 sprintf "1MTD %s { %s } 1FTD %s { %s %s\\\\\\\; }";
#P newex 218 271 117 9109513 prepend /write_control;
#P inlet 218 35 15 0;
#P outlet 218 298 15 0;
#P comment 341 120 169 9109513 waiting for the full stream definition before sending the define message;
#P connect 11 0 12 0;
#P connect 12 0 10 0;
#P fasten 7 0 12 1 223 109 210 109;
#P connect 12 1 10 1;
#P connect 2 0 7 0;
#P connect 7 0 13 0;
#P connect 13 0 4 0;
#P connect 4 0 9 0;
#P connect 9 0 6 0;
#P connect 6 0 3 0;
#P connect 3 0 1 0;
#P fasten 10 0 1 0 83 294 223 294;
#P connect 7 1 5 0;
#P connect 5 0 13 1;
#P connect 13 1 8 0;
#P connect 8 0 4 1;
#P connect 7 2 13 2;
#P connect 7 0 4 2;
#P connect 7 0 4 3;
#P connect 13 2 4 4;
#P pop;
#P newobj 475 110 70 9109513 p streamdef 7;
#N vpatcher 86 360 686 760;
#P window setfont "Sans Serif" 9.;
#P window linecount 2;
#P comment 39 198 107 9109513 argument: stream number;
#P window linecount 1;
#P newex 218 123 122 9109513 buddy 3;
#P newex 78 243 137 9109513 buddy;
#P newex 78 217 57 9109513 patcherargs;
#P newex 78 271 137 9109513 sprintf /stream_IDs/%ld %s;
#P window linecount 0;
#P newex 218 217 47 9109513 tosymbol;
#P newex 274 158 75 9109513 prepend symbol;
#P newex 218 57 178 9109513 jcom.oscroute /ID /variables /description;
#P newex 218 243 70 9109513 prepend define;
#P newex 274 85 47 9109513 tosymbol;
#P newex 218 188 237 9109513 sprintf "1MTD %s { %s } 1FTD %s { %s %s\\\\\\\; }";
#P newex 218 271 117 9109513 prepend /write_control;
#P inlet 218 35 15 0;
#P outlet 218 298 15 0;
#P comment 341 120 169 9109513 waiting for the full stream definition before sending the define message;
#P connect 11 0 12 0;
#P connect 12 0 10 0;
#P fasten 7 0 12 1 223 109 210 109;
#P connect 12 1 10 1;
#P connect 2 0 7 0;
#P connect 7 0 13 0;
#P connect 13 0 4 0;
#P connect 4 0 9 0;
#P connect 9 0 6 0;
#P connect 6 0 3 0;
#P connect 3 0 1 0;
#P fasten 10 0 1 0 83 294 223 294;
#P connect 7 1 5 0;
#P connect 5 0 13 1;
#P connect 13 1 8 0;
#P connect 8 0 4 1;
#P connect 7 2 13 2;
#P connect 7 0 4 2;
#P connect 7 0 4 3;
#P connect 13 2 4 4;
#P pop;
#P newobj 409 87 70 9109513 p streamdef 6;
#N vpatcher 86 360 686 760;
#P window setfont "Sans Serif" 9.;
#P window linecount 2;
#P comment 39 198 107 9109513 argument: stream number;
#P window linecount 1;
#P newex 218 123 122 9109513 buddy 3;
#P newex 78 243 137 9109513 buddy;
#P newex 78 217 57 9109513 patcherargs;
#P newex 78 271 137 9109513 sprintf /stream_IDs/%ld %s;
#P window linecount 0;
#P newex 218 217 47 9109513 tosymbol;
#P newex 274 158 75 9109513 prepend symbol;
#P newex 218 57 178 9109513 jcom.oscroute /ID /variables /description;
#P newex 218 243 70 9109513 prepend define;
#P newex 274 85 47 9109513 tosymbol;
#P newex 218 188 237 9109513 sprintf "1MTD %s { %s } 1FTD %s { %s %s\\\\\\\; }";
#P newex 218 271 117 9109513 prepend /write_control;
#P inlet 218 35 15 0;
#P outlet 218 298 15 0;
#P comment 341 120 169 9109513 waiting for the full stream definition before sending the define message;
#P connect 11 0 12 0;
#P connect 12 0 10 0;
#P fasten 7 0 12 1 223 109 210 109;
#P connect 12 1 10 1;
#P connect 2 0 7 0;
#P connect 7 0 13 0;
#P connect 13 0 4 0;
#P connect 4 0 9 0;
#P connect 9 0 6 0;
#P connect 6 0 3 0;
#P connect 3 0 1 0;
#P fasten 10 0 1 0 83 294 223 294;
#P connect 7 1 5 0;
#P connect 5 0 13 1;
#P connect 13 1 8 0;
#P connect 8 0 4 1;
#P connect 7 2 13 2;
#P connect 7 0 4 2;
#P connect 7 0 4 3;
#P connect 13 2 4 4;
#P pop;
#P newobj 343 110 70 9109513 p streamdef 5;
#N vpatcher 86 360 686 760;
#P window setfont "Sans Serif" 9.;
#P window linecount 2;
#P comment 39 198 107 9109513 argument: stream number;
#P window linecount 1;
#P newex 218 123 122 9109513 buddy 3;
#P newex 78 243 137 9109513 buddy;
#P newex 78 217 57 9109513 patcherargs;
#P newex 78 271 137 9109513 sprintf /stream_IDs/%ld %s;
#P window linecount 0;
#P newex 218 217 47 9109513 tosymbol;
#P newex 274 158 75 9109513 prepend symbol;
#P newex 218 57 178 9109513 jcom.oscroute /ID /variables /description;
#P newex 218 243 70 9109513 prepend define;
#P newex 274 85 47 9109513 tosymbol;
#P newex 218 188 237 9109513 sprintf "1MTD %s { %s } 1FTD %s { %s %s\\\\\\\; }";
#P newex 218 271 117 9109513 prepend /write_control;
#P inlet 218 35 15 0;
#P outlet 218 298 15 0;
#P comment 341 120 169 9109513 waiting for the full stream definition before sending the define message;
#P connect 11 0 12 0;
#P connect 12 0 10 0;
#P fasten 7 0 12 1 223 109 210 109;
#P connect 12 1 10 1;
#P connect 2 0 7 0;
#P connect 7 0 13 0;
#P connect 13 0 4 0;
#P connect 4 0 9 0;
#P connect 9 0 6 0;
#P connect 6 0 3 0;
#P connect 3 0 1 0;
#P fasten 10 0 1 0 83 294 223 294;
#P connect 7 1 5 0;
#P connect 5 0 13 1;
#P connect 13 1 8 0;
#P connect 8 0 4 1;
#P connect 7 2 13 2;
#P connect 7 0 4 2;
#P connect 7 0 4 3;
#P connect 13 2 4 4;
#P pop;
#P newobj 277 87 70 9109513 p streamdef 4;
#N vpatcher 86 360 686 760;
#P window setfont "Sans Serif" 9.;
#P window linecount 2;
#P comment 39 198 107 9109513 argument: stream number;
#P window linecount 1;
#P newex 218 123 122 9109513 buddy 3;
#P newex 78 243 137 9109513 buddy;
#P newex 78 217 57 9109513 patcherargs;
#P newex 78 271 137 9109513 sprintf /stream_IDs/%ld %s;
#P window linecount 0;
#P newex 218 217 47 9109513 tosymbol;
#P newex 274 158 75 9109513 prepend symbol;
#P newex 218 57 178 9109513 jcom.oscroute /ID /variables /description;
#P newex 218 243 70 9109513 prepend define;
#P newex 274 85 47 9109513 tosymbol;
#P newex 218 188 237 9109513 sprintf "1MTD %s { %s } 1FTD %s { %s %s\\\\\\\; }";
#P newex 218 271 117 9109513 prepend /write_control;
#P inlet 218 35 15 0;
#P outlet 218 298 15 0;
#P comment 341 120 169 9109513 waiting for the full stream definition before sending the define message;
#P connect 11 0 12 0;
#P connect 12 0 10 0;
#P fasten 7 0 12 1 223 109 210 109;
#P connect 12 1 10 1;
#P connect 2 0 7 0;
#P connect 7 0 13 0;
#P connect 13 0 4 0;
#P connect 4 0 9 0;
#P connect 9 0 6 0;
#P connect 6 0 3 0;
#P connect 3 0 1 0;
#P fasten 10 0 1 0 83 294 223 294;
#P connect 7 1 5 0;
#P connect 5 0 13 1;
#P connect 13 1 8 0;
#P connect 8 0 4 1;
#P connect 7 2 13 2;
#P connect 7 0 4 2;
#P connect 7 0 4 3;
#P connect 13 2 4 4;
#P pop;
#P newobj 211 110 70 9109513 p streamdef 3;
#N vpatcher 86 360 686 760;
#P window setfont "Sans Serif" 9.;
#P window linecount 2;
#P comment 39 198 107 9109513 argument: stream number;
#P window linecount 1;
#P newex 218 123 122 9109513 buddy 3;
#P newex 78 243 137 9109513 buddy;
#P newex 78 217 57 9109513 patcherargs;
#P newex 78 271 137 9109513 sprintf /stream_IDs/%ld %s;
#P window linecount 0;
#P newex 218 217 47 9109513 tosymbol;
#P newex 274 158 75 9109513 prepend symbol;
#P newex 218 57 178 9109513 jcom.oscroute /ID /variables /description;
#P newex 218 243 70 9109513 prepend define;
#P newex 274 85 47 9109513 tosymbol;
#P newex 218 188 237 9109513 sprintf "1MTD %s { %s } 1FTD %s { %s %s\\\\\\\; }";
#P newex 218 271 117 9109513 prepend /write_control;
#P inlet 218 35 15 0;
#P outlet 218 298 15 0;
#P comment 341 120 169 9109513 waiting for the full stream definition before sending the define message;
#P connect 11 0 12 0;
#P connect 12 0 10 0;
#P fasten 7 0 12 1 223 109 210 109;
#P connect 12 1 10 1;
#P connect 2 0 7 0;
#P connect 7 0 13 0;
#P connect 13 0 4 0;
#P connect 4 0 9 0;
#P connect 9 0 6 0;
#P connect 6 0 3 0;
#P connect 3 0 1 0;
#P fasten 10 0 1 0 83 294 223 294;
#P connect 7 1 5 0;
#P connect 5 0 13 1;
#P connect 13 1 8 0;
#P connect 8 0 4 1;
#P connect 7 2 13 2;
#P connect 7 0 4 2;
#P connect 7 0 4 3;
#P connect 13 2 4 4;
#P pop;
#P newobj 145 87 70 9109513 p streamdef 2;
#N vpatcher 86 360 686 760;
#P window setfont "Sans Serif" 9.;
#P window linecount 2;
#P comment 39 198 107 9109513 argument: stream number;
#P window linecount 1;
#P newex 218 123 122 9109513 buddy 3;
#P newex 78 243 137 9109513 buddy;
#P newex 78 217 57 9109513 patcherargs;
#P newex 78 271 137 9109513 sprintf /stream_IDs/%ld %s;
#P window linecount 0;
#P newex 218 217 47 9109513 tosymbol;
#P newex 274 158 75 9109513 prepend symbol;
#P newex 218 57 178 9109513 jcom.oscroute /ID /variables /description;
#P newex 218 243 70 9109513 prepend define;
#P newex 274 85 47 9109513 tosymbol;
#P newex 218 188 237 9109513 sprintf "1MTD %s { %s } 1FTD %s { %s %s\\\\\\\; }";
#P newex 218 271 117 9109513 prepend /write_control;
#P inlet 218 35 15 0;
#P outlet 218 298 15 0;
#P comment 341 120 169 9109513 waiting for the full stream definition before sending the define message;
#P connect 11 0 12 0;
#P connect 12 0 10 0;
#P fasten 7 0 12 1 223 109 210 109;
#P connect 12 1 10 1;
#P connect 2 0 7 0;
#P connect 7 0 13 0;
#P connect 13 0 4 0;
#P connect 4 0 9 0;
#P connect 9 0 6 0;
#P connect 6 0 3 0;
#P connect 3 0 1 0;
#P fasten 10 0 1 0 83 294 223 294;
#P connect 7 1 5 0;
#P connect 5 0 13 1;
#P connect 13 1 8 0;
#P connect 8 0 4 1;
#P connect 7 2 13 2;
#P connect 7 0 4 2;
#P connect 7 0 4 3;
#P connect 13 2 4 4;
#P pop;
#P newobj 79 110 70 9109513 p streamdef 1;
#P window linecount 0;
#N vpatcher 86 360 686 760;
#P window setfont "Sans Serif" 9.;
#P window linecount 2;
#P comment 39 198 107 9109513 argument: stream number;
#P window linecount 1;
#P newex 218 123 122 9109513 buddy 3;
#P newex 78 243 137 9109513 buddy;
#P newex 78 217 57 9109513 patcherargs;
#P newex 78 271 137 9109513 sprintf /stream_IDs/%ld %s;
#P window linecount 0;
#P newex 218 217 47 9109513 tosymbol;
#P newex 274 158 75 9109513 prepend symbol;
#P newex 218 57 178 9109513 jcom.oscroute /ID /variables /description;
#P newex 218 243 70 9109513 prepend define;
#P newex 274 85 47 9109513 tosymbol;
#P newex 218 188 237 9109513 sprintf "1MTD %s { %s } 1FTD %s { %s %s\\\\\\\; }";
#P newex 218 271 117 9109513 prepend /write_control;
#P inlet 218 35 15 0;
#P outlet 218 298 15 0;
#P comment 341 120 169 9109513 waiting for the full stream definition before sending the define message;
#P connect 11 0 12 0;
#P connect 12 0 10 0;
#P fasten 7 0 12 1 223 109 210 109;
#P connect 12 1 10 1;
#P connect 2 0 7 0;
#P connect 7 0 13 0;
#P connect 13 0 4 0;
#P connect 4 0 9 0;
#P connect 9 0 6 0;
#P connect 6 0 3 0;
#P fasten 10 0 1 0 83 294 223 294;
#P connect 3 0 1 0;
#P connect 7 1 5 0;
#P connect 5 0 13 1;
#P connect 13 1 8 0;
#P connect 8 0 4 1;
#P connect 7 2 13 2;
#P connect 7 0 4 2;
#P connect 7 0 4 3;
#P connect 13 2 4 4;
#P pop;
#P newobj 13 87 70 9109513 p streamdef 0;
#P inlet 13 38 15 0;
#P outlet 13 173 15 0;
#P newex 13 60 538 9109513 jcom.oscroute /stream0 /stream1 /stream2 /stream3 /stream4 /stream5 /stream6 /stream7;
#P comment 33 155 181 9109513 A message generating stream definitions for the ftm.sdif.write object is generated inside the streamdef subpatchers;
#P connect 3 0 1 0;
#P connect 1 0 4 0;
#P fasten 11 0 2 0 480 146 18 146;
#P fasten 10 0 2 0 414 146 18 146;
#P fasten 9 0 2 0 348 146 18 146;
#P fasten 8 0 2 0 282 146 18 146;
#P fasten 7 0 2 0 216 146 18 146;
#P fasten 6 0 2 0 150 146 18 146;
#P fasten 5 0 2 0 84 146 18 146;
#P fasten 1 8 2 0 546 146 18 146;
#P fasten 4 0 2 0 18 146 18 146;
#P connect 1 1 5 0;
#P connect 1 2 6 0;
#P connect 1 3 7 0;
#P connect 1 4 8 0;
#P connect 1 5 9 0;
#P connect 1 6 10 0;
#P connect 1 7 11 0;
#P pop;
#P newobj 142 86 59 9109513 p definitions;
#N vpatcher 640 299 1240 699;
#P window setfont "Sans Serif" 9.;
#P window linecount 0;
#P newex 55 55 149 9109513 jcom.oscroute /stream_names;
#P newex 55 80 100 9109513 jcom.oscroute /0 /1 /2;
#P outlet 55 321 15 0;
#P inlet 55 34 15 0;
#P window linecount 1;
#P newex 55 114 40 9109513 t b l b;
#P newex 457 287 81 9109513 prepend /script;
#P window setfont "Fixedwidth Serif" 10.;
#P message 85 138 154 9240586 script delete sdif_write;
#P window linecount 4;
#P message 55 214 380 9240586 script offsetfrom sdif_write tp 1 29 0 \, script connect jcom.oscroute_2 0 sdif_write 0 \, script connect jcom.oscroute_2 1 sdif_write 1 \, script connect jcom.oscroute_2 2 sdif_write 2 \, script connect jcom.oscroute_1 1 sdif_write 0 \, clean;
#P window setfont "Sans Serif" 9.;
#P window linecount 1;
#P newex 70 166 370 9109513 sprintf script new sdif_write newex 100 400 44 9109513 ftm.sdif.write %s 0 %s 1 %s 2;
#P connect 5 0 8 0;
#P connect 8 0 7 0;
#P connect 7 0 4 0;
#P connect 4 0 1 0;
#P fasten 8 1 6 0 199 93 542 93 542 312 60 312;
#P fasten 3 0 6 0 462 312 60 312;
#P connect 4 1 0 0;
#P connect 4 2 2 0;
#P connect 7 1 0 1;
#P connect 7 2 0 2;
#P fasten 0 0 3 0 75 209 462 209;
#P fasten 1 0 3 0 60 277 462 277;
#P fasten 2 0 3 0 90 159 462 159;
#P pop;
#P newobj 175 159 79 9109513 p threestreams;
#P newex 13 123 579 9109513 gate 8;
#N vpatcher 648 392 1248 792;
#P window setfont "Sans Serif" 9.;
#P window linecount 1;
#P newex 55 70 149 9109513 jcom.oscroute /stream_names;
#P window linecount 0;
#P newex 55 95 104 9109513 jcom.oscroute /0 /1;
#P outlet 55 321 15 0;
#P inlet 55 49 15 0;
#P window linecount 1;
#P newex 55 129 40 9109513 t b l b;
#P newex 457 287 81 9109513 prepend /script;
#P window setfont "Fixedwidth Serif" 10.;
#P message 85 153 154 9240586 script delete sdif_write;
#P window linecount 3;
#P message 55 229 406 9240586 script offsetfrom sdif_write tp 1 29 0 \, script connect jcom.oscroute_2 0 sdif_write 0 \, script connect jcom.oscroute_2 1 sdif_write 1 \, script connect jcom.oscroute_1 1 sdif_write 0 \, clean;
#P window setfont "Sans Serif" 9.;
#P window linecount 2;
#P newex 70 181 321 9109513 sprintf script new sdif_write newex 100 400 44 9109513 ftm.sdif.write %s 0 %s 1;
#P connect 5 0 8 0;
#P connect 8 0 7 0;
#P connect 7 0 4 0;
#P connect 4 0 1 0;
#P fasten 3 0 6 0 462 312 60 312;
#P fasten 8 1 6 0 199 93 542 93 542 312 60 312;
#P connect 4 1 0 0;
#P connect 4 2 2 0;
#P connect 7 1 0 1;
#P fasten 2 0 3 0 90 174 462 174;
#P fasten 1 0 3 0 60 277 462 277;
#P fasten 0 0 3 0 75 222 462 222;
#P pop;
#P newobj 94 159 72 9109513 p twostreams;
#P newex 13 197 108 9109513 dynamic_patcher.mxt;
#N vpatcher 40 385 640 785;
#P window setfont "Sans Serif" 9.;
#P window linecount 1;
#P newex 55 95 78 9109513 jcom.oscroute /0;
#P window linecount 0;
#P newex 55 71 135 9109513 jcom.oscroute /stream_names;
#P outlet 55 308 15 0;
#P newex 55 129 40 9109513 t b l b;
#P newex 442 274 81 9109513 prepend /script;
#P window setfont "Fixedwidth Serif" 10.;
#P message 85 153 154 9240586 script delete sdif_write;
#P window linecount 3;
#P message 55 215 286 9240586 script offsetfrom sdif_write tp 1 29 0 \, script connect jcom.oscroute_2 0 sdif_write 0 \, script connect jcom.oscroute_1 1 sdif_write 0 \, clean;
#P inlet 55 44 15 0;
#P window setfont "Sans Serif" 9.;
#P window linecount 1;
#P newex 70 181 370 9109513 sprintf script new sdif_write newex 100 400 44 9109513 ftm.sdif.write %s 0;
#P connect 1 0 7 0;
#P connect 7 0 8 0;
#P connect 8 0 5 0;
#P connect 5 0 2 0;
#P fasten 7 1 6 0 185 125 532 125 532 297 60 297;
#P fasten 4 0 6 0 447 297 60 297;
#P connect 5 1 0 0;
#P connect 5 2 3 0;
#P fasten 2 0 4 0 60 264 447 264;
#P fasten 3 0 4 0 90 174 447 174;
#P fasten 0 0 4 0 75 208 447 208;
#P pop;
#P newobj 13 159 65 9109513 p onestream;
#P newex 13 57 139 9109513 jcom.oscroute /streamcount;
#P inlet 13 23 15 0;
#P objectname inlet;
#P comment 341 156 320 9109513 An ftm.sdif.write object is generated within the dynamic_patcher.mxt.;
#P connect 1 0 2 0;
#P connect 2 0 6 0;
#P connect 6 0 3 0;
#P fasten 5 0 4 0 99 188 18 188;
#P connect 3 0 4 0;
#P fasten 7 0 4 0 180 188 18 188;
#P fasten 9 0 4 0 261 188 18 188;
#P connect 6 1 5 0;
#P connect 2 1 8 0;
#P connect 6 2 7 0;
#P connect 6 3 9 0;
#P fasten 8 0 6 1 147 114 587 114;
#P pop;
