max v2;
#N vpatcher 43 301 1158 662;
#P origin -28 15;
#P window setfont "Sans Serif" 9.;
#P window linecount 1;
#P comment 295 26 218 9109513 Data and nvts to be recorded in the sdif file;
#P comment 678 124 169 9109513 These are the /order cues:;
#P window linecount 2;
#P comment 678 138 191 9109513 1. the streamcount parameter is adjusted \, and thereby the patcher is reset;
#P window linecount 1;
#P comment 678 192 191 9109513 3. a /file message is sent to the module;
#P inlet 276 24 15 0;
#P objectname inlet[1];
#P window linecount 2;
#P comment 678 165 191 9109513 2: ftm.sdif.write is generated within the dynamic patcher;
#P window linecount 3;
#P comment 678 82 169 9109513 The /order system is a system for making the order of input messages to the module arbitrary;
#P window linecount 1;
#P message 23 99 64 9109513 /order/order 1;
#P button 23 81 15 0;
#P message 535 272 14 9109513 2;
#P newex 535 293 92 9109513 prepend /order/order;
#P newex 535 249 45 9109513 sel clean;
#P newex 535 226 96 9109513 jcom.oscroute /script;
#P newex 13 249 108 9109513 dynamic_patcher.mxt;
#N vpatcher 665 319 1265 719;
#P window setfont "Sans Serif" 9.;
#P window linecount 1;
#P newex 55 53 163 9109513 jcom.oscroute /0 /1 /2 /3 /4 /5 /6 /7;
#P newex 55 28 173 9109513 jcom.oscroute /stream_IDs;
#P window linecount 0;
#P newex 55 82 149 9109513 buddy 8;
#P outlet 55 366 15 0;
#P inlet 55 7 15 0;
#P window linecount 1;
#P newex 55 114 40 9109513 t b l b;
#P newex 457 332 81 9109513 prepend /script;
#P window setfont "Fixedwidth Serif" 10.;
#P message 85 138 154 9240586 script delete sdif_write;
#P window linecount 6;
#P message 55 214 380 9240586 script offsetfrom sdif_write tp 1 80 0 \, script connect jcom.oscroute_3 0 sdif_write 0 \, script connect jcom.oscroute_2 0 sdif_write 0 \, script connect jcom.oscroute_2 1 sdif_write 1 \, script connect jcom.oscroute_2 2 sdif_write 2 \, script connect jcom.oscroute_2 3 sdif_write 3 \, script connect jcom.oscroute_1 1 sdif_write 0 \, clean;
#P window setfont "Sans Serif" 9.;
#P window linecount 2;
#P newex 70 166 240 9109513 sprintf script new sdif_write newex 100 400 44 9109513 ftm.sdif.write %s 0 %s 1 %s 2 %s 3 %s 4 %s 5 %6 %7;
#P connect 5 0 8 0;
#P connect 8 0 9 0;
#P connect 9 0 7 0;
#P connect 7 0 4 0;
#P connect 4 0 1 0;
#P fasten 3 0 6 0 462 357 60 357;
#P fasten 8 1 6 0 223 56 542 56 542 357 60 357;
#P connect 4 1 0 0;
#P connect 9 1 7 1;
#P connect 4 2 2 0;
#P connect 9 2 7 2;
#P connect 7 1 0 1;
#P lcolor 1;
#P connect 9 3 7 3;
#P connect 9 4 7 4;
#P connect 7 2 0 2;
#P lcolor 1;
#P connect 9 5 7 5;
#P connect 7 3 0 3;
#P lcolor 1;
#P connect 9 6 7 6;
#P connect 9 7 7 7;
#P connect 7 4 0 4;
#P lcolor 1;
#P connect 7 5 0 5;
#P lcolor 1;
#P connect 7 6 0 6;
#P lcolor 1;
#P connect 7 7 0 7;
#P lcolor 1;
#P fasten 0 0 3 0 75 209 462 209;
#P fasten 1 0 3 0 60 317 462 317;
#P fasten 2 0 3 0 90 159 462 159;
#P pop;
#P newobj 580 157 70 9109513 p eightstreams;
#N vpatcher 640 299 1240 699;
#P window setfont "Sans Serif" 9.;
#P window linecount 1;
#P newex 55 53 144 9109513 jcom.oscroute /0 /1 /2 /3 /4 /5 /6;
#P newex 55 28 157 9109513 jcom.oscroute /stream_IDs;
#P window linecount 0;
#P newex 55 82 128 9109513 buddy 7;
#P outlet 55 366 15 0;
#P inlet 55 7 15 0;
#P window linecount 1;
#P newex 55 114 40 9109513 t b l b;
#P newex 457 332 81 9109513 prepend /script;
#P window setfont "Fixedwidth Serif" 10.;
#P message 85 138 154 9240586 script delete sdif_write;
#P window linecount 6;
#P message 55 214 380 9240586 script offsetfrom sdif_write tp 1 80 0 \, script connect jcom.oscroute_3 0 sdif_write 0 \, script connect jcom.oscroute_2 0 sdif_write 0 \, script connect jcom.oscroute_2 1 sdif_write 1 \, script connect jcom.oscroute_2 2 sdif_write 2 \, script connect jcom.oscroute_2 3 sdif_write 3 \, script connect jcom.oscroute_1 1 sdif_write 0 \, clean;
#P window setfont "Sans Serif" 9.;
#P window linecount 2;
#P newex 70 166 239 9109513 sprintf script new sdif_write newex 100 400 44 9109513 ftm.sdif.write %s 0 %s 1 %s 2 %s 3 %s 4 %s 5 %6;
#P connect 5 0 8 0;
#P connect 8 0 9 0;
#P connect 9 0 7 0;
#P connect 7 0 4 0;
#P connect 4 0 1 0;
#P fasten 3 0 6 0 462 357 60 357;
#P fasten 8 1 6 0 207 56 542 56 542 357 60 357;
#P connect 4 1 0 0;
#P connect 9 1 7 1;
#P connect 4 2 2 0;
#P connect 9 2 7 2;
#P connect 7 1 0 1;
#P lcolor 1;
#P connect 9 3 7 3;
#P connect 9 4 7 4;
#P connect 7 2 0 2;
#P lcolor 1;
#P connect 9 5 7 5;
#P connect 9 6 7 6;
#P connect 7 3 0 3;
#P lcolor 1;
#P connect 7 4 0 4;
#P lcolor 1;
#P connect 7 5 0 5;
#P lcolor 1;
#P connect 7 6 0 6;
#P lcolor 1;
#P fasten 0 0 3 0 75 209 462 209;
#P fasten 2 0 3 0 90 159 462 159;
#P fasten 1 0 3 0 60 317 462 317;
#P pop;
#P newobj 499 157 76 9109513 p sevenstreams;
#N vpatcher 640 299 1240 699;
#P window setfont "Sans Serif" 9.;
#P window linecount 1;
#P newex 55 53 133 9109513 jcom.oscroute /0 /1 /2 /3 /4 /5;
#P newex 55 28 141 9109513 jcom.oscroute /stream_IDs;
#P window linecount 0;
#P newex 55 82 110 9109513 buddy 6;
#P outlet 55 366 15 0;
#P inlet 55 7 15 0;
#P window linecount 1;
#P newex 55 114 40 9109513 t b l b;
#P newex 457 332 81 9109513 prepend /script;
#P window setfont "Fixedwidth Serif" 10.;
#P message 85 138 154 9240586 script delete sdif_write;
#P window linecount 6;
#P message 55 214 380 9240586 script offsetfrom sdif_write tp 1 80 0 \, script connect jcom.oscroute_3 0 sdif_write 0 \, script connect jcom.oscroute_2 0 sdif_write 0 \, script connect jcom.oscroute_2 1 sdif_write 1 \, script connect jcom.oscroute_2 2 sdif_write 2 \, script connect jcom.oscroute_2 3 sdif_write 3 \, script connect jcom.oscroute_1 1 sdif_write 0 \, clean;
#P window setfont "Sans Serif" 9.;
#P window linecount 2;
#P newex 70 166 239 9109513 sprintf script new sdif_write newex 100 400 44 9109513 ftm.sdif.write %s 0 %s 1 %s 2 %s 3 %s 4 %s 5;
#P connect 5 0 8 0;
#P connect 8 0 9 0;
#P connect 9 0 7 0;
#P connect 7 0 4 0;
#P connect 4 0 1 0;
#P fasten 3 0 6 0 462 357 60 357;
#P fasten 8 1 6 0 191 56 542 56 542 357 60 357;
#P connect 4 1 0 0;
#P connect 9 1 7 1;
#P connect 4 2 2 0;
#P connect 9 2 7 2;
#P connect 9 3 7 3;
#P connect 7 1 0 1;
#P lcolor 1;
#P connect 9 4 7 4;
#P connect 9 5 7 5;
#P connect 7 2 0 2;
#P lcolor 1;
#P connect 7 3 0 3;
#P lcolor 1;
#P connect 7 4 0 4;
#P lcolor 1;
#P connect 7 5 0 5;
#P lcolor 1;
#P fasten 0 0 3 0 75 209 462 209;
#P fasten 1 0 3 0 60 317 462 317;
#P fasten 2 0 3 0 90 159 462 159;
#P pop;
#P newobj 418 157 62 9109513 p sixstreams;
#N vpatcher 640 299 1240 699;
#P window setfont "Sans Serif" 9.;
#P window linecount 1;
#P newex 55 55 122 9109513 jcom.oscroute /0 /1 /2 /3 /4;
#P window linecount 0;
#P newex 55 28 149 9109513 jcom.oscroute /stream_IDs;
#P newex 55 82 101 9109513 buddy 5;
#P outlet 55 366 15 0;
#P inlet 55 7 15 0;
#P window linecount 1;
#P newex 55 114 40 9109513 t b l b;
#P newex 457 332 81 9109513 prepend /script;
#P window setfont "Fixedwidth Serif" 10.;
#P message 85 138 154 9240586 script delete sdif_write;
#P window linecount 6;
#P message 55 214 380 9240586 script offsetfrom sdif_write tp 1 80 0 \, script connect jcom.oscroute_3 0 sdif_write 0 \, script connect jcom.oscroute_2 0 sdif_write 0 \, script connect jcom.oscroute_2 1 sdif_write 1 \, script connect jcom.oscroute_2 2 sdif_write 2 \, script connect jcom.oscroute_2 3 sdif_write 3 \, script connect jcom.oscroute_1 1 sdif_write 0 \, clean;
#P window setfont "Sans Serif" 9.;
#P window linecount 2;
#P newex 70 166 222 9109513 sprintf script new sdif_write newex 100 400 44 9109513 ftm.sdif.write %s 0 %s 1 %s 2 %s 3 %s 4;
#P connect 5 0 8 0;
#P connect 8 0 9 0;
#P connect 9 0 7 0;
#P connect 7 0 4 0;
#P connect 4 0 1 0;
#P fasten 3 0 6 0 462 357 60 357;
#P fasten 8 1 6 0 199 56 542 56 542 357 60 357;
#P connect 4 1 0 0;
#P connect 9 1 7 1;
#P connect 4 2 2 0;
#P connect 9 2 7 2;
#P connect 9 3 7 3;
#P connect 7 1 0 1;
#P lcolor 1;
#P connect 9 4 7 4;
#P connect 7 2 0 2;
#P lcolor 1;
#P connect 7 3 0 3;
#P lcolor 1;
#P connect 7 4 0 4;
#P lcolor 1;
#P fasten 0 0 3 0 75 209 462 209;
#P fasten 2 0 3 0 90 159 462 159;
#P fasten 1 0 3 0 60 317 462 317;
#P pop;
#P newobj 337 157 67 9109513 p fivestreams;
#P window linecount 2;
#P comment 129 252 320 9109513 The ftm.sdif.write needs different arguments according to the amount of streams and the stream IDs.;
#P window linecount 1;
#N vpatcher 640 299 1240 699;
#P window setfont "Sans Serif" 9.;
#P window linecount 1;
#P newex 55 55 111 9109513 jcom.oscroute /0 /1 /2 /3;
#P window linecount 0;
#P newex 55 28 122 9109513 jcom.oscroute /stream_IDs;
#P newex 55 82 86 9109513 buddy 4;
#P outlet 55 366 15 0;
#P inlet 55 7 15 0;
#P window linecount 1;
#P newex 55 114 40 9109513 t b l b;
#P newex 457 332 81 9109513 prepend /script;
#P window setfont "Fixedwidth Serif" 10.;
#P message 85 138 154 9240586 script delete sdif_write;
#P window linecount 6;
#P message 55 214 380 9240586 script offsetfrom sdif_write tp 1 80 0 \, script connect jcom.oscroute_3 0 sdif_write 0 \, script connect jcom.oscroute_2 0 sdif_write 0 \, script connect jcom.oscroute_2 1 sdif_write 1 \, script connect jcom.oscroute_2 2 sdif_write 2 \, script connect jcom.oscroute_2 3 sdif_write 3 \, script connect jcom.oscroute_1 1 sdif_write 0 \, clean;
#P window setfont "Sans Serif" 9.;
#P window linecount 2;
#P newex 70 166 219 9109513 sprintf script new sdif_write newex 100 400 44 9109513 ftm.sdif.write %s 0 %s 1 %s 2 %s 3;
#P connect 5 0 8 0;
#P connect 8 0 9 0;
#P connect 9 0 7 0;
#P connect 7 0 4 0;
#P connect 4 0 1 0;
#P fasten 3 0 6 0 462 357 60 357;
#P fasten 8 1 6 0 172 56 542 56 542 357 60 357;
#P connect 4 1 0 0;
#P connect 9 1 7 1;
#P connect 4 2 2 0;
#P connect 9 2 7 2;
#P connect 9 3 7 3;
#P connect 7 1 0 1;
#P lcolor 1;
#P connect 7 2 0 2;
#P lcolor 1;
#P connect 7 3 0 3;
#P lcolor 1;
#P fasten 1 0 3 0 60 317 462 317;
#P fasten 2 0 3 0 90 159 462 159;
#P fasten 0 0 3 0 75 209 462 209;
#P pop;
#P newobj 256 157 67 9109513 p fourstreams;
#N vpatcher 29 421 820 748;
#P origin 17 -188;
#P window setfont "Sans Serif" 9.;
#P window linecount 1;
#N vpatcher 605 210 1247 598;
#P origin 0 -41;
#P window setfont "Sans Serif" 9.;
#P window linecount 2;
#P comment 82 325 308 9109513 If a file has not yet been generated \, in the dynamic patcher \, the open message is stored \, and executed when a /order 2 message is received;
#P window linecount 1;
#P message 347 103 14 9109513 1;
#P window linecount 0;
#P message 331 103 14 9109513 2;
#P window linecount 1;
#P newex 76 135 42 9109513 gate 2 2;
#P newex 360 157 33 9109513 del 10;
#P window linecount 0;
#P newex 345 76 40 9109513 sel 1 2;
#P window linecount 1;
#P message 108 189 380 9109513;
#P newex 108 160 57 9109513 prepend set;
#P newex 438 271 68 9109513 prepend /order;
#P window linecount 0;
#P message 438 246 14 9109513 3;
#P button 438 224 15 0;
#P outlet 438 311 15 0;
#P window linecount 1;
#P newex 108 91 64 9109513 prepend open;
#P message 49 162 26 9109513 stop;
#P window linecount 0;
#P message 21 162 27 9109513 start;
#P window linecount 1;
#P newex 21 130 40 9109513 sel 1 0;
#P window linecount 0;
#P newex 21 267 99 9109513 prepend /write_control;
#P newex 21 53 498 9109513 jcom.oscroute /record_button /file /order;
#P outlet 21 311 15 0;
#P inlet 21 20 15 0;
#P comment 80 311 100 9109513 Order system:;
#P connect 1 0 3 0;
#P connect 3 0 5 0;
#P connect 5 0 6 0;
#P fasten 14 0 4 0 113 215 26 215;
#P fasten 7 0 4 0 54 190 26 190;
#P connect 6 0 4 0;
#P fasten 17 0 4 0 81 194 26 194;
#P connect 4 0 2 0;
#P fasten 3 3 2 0 512 301 26 301;
#P fasten 5 1 7 0 41 156 54 156;
#P fasten 19 0 17 0 352 127 81 127;
#P lcolor 1;
#P fasten 18 0 17 0 336 127 81 127;
#P lcolor 1;
#P fasten 3 1 8 0 188 85 113 85;
#P connect 8 0 17 1;
#P connect 17 1 13 0;
#P connect 13 0 14 0;
#P fasten 16 0 14 0 365 184 113 184;
#P connect 15 0 18 0;
#P connect 3 2 15 0;
#P connect 15 1 19 0;
#P connect 15 1 16 0;
#P connect 17 0 10 0;
#P fasten 14 0 10 0 113 209 443 209;
#P connect 10 0 11 0;
#P connect 11 0 12 0;
#P connect 12 0 9 0;
#P lcolor 1;
#P pop;
#P newobj 630 83 119 9109513 p write_control_commands;
#N vpatcher 370 67 1098 658;
#P window setfont "Sans Serif" 9.;
#P window linecount 1;
#P comment 33 518 446 9109513 - If [2] and [3] \, any stream definition message is directly forwarded to the dynamic patcher;
#P comment 33 502 394 9109513 - If [1] \, any stream definition message is put on hold \, and banged out after [2] and [3];
#P comment 25 488 291 9109513 In this subpatcher \, the order system works like this:;
#P comment 252 455 300 9109513 3. a /file message is sent to the module;
#P comment 252 441 291 9109513 2: ftm.sdif.write is generated within the dynamic patcher;
#P newex 78 220 44 9109513 pack s 0;
#P newex 78 246 31 9109513 zl rev;
#P comment 252 427 253 9109513 1. the streamcount parameter is adjusted;
#P window linecount 2;
#P comment 248 400 212 9109513 The /order system is a system for making the order of input messages to the module arbitrary;
#P window linecount 1;
#P newex 542 175 44 9109513 onebang;
#P message 508 247 14 9109513 2;
#P newex 508 135 114 9109513 sel 1 3 2;
#P newex 542 217 33 9109513 del 50;
#P window linecount 0;
#P message 525 247 14 9109513 1;
#P window linecount 1;
#P newex 186 307 42 9109513 gate 2 2;
#P window linecount 0;
#P message 218 371 394 9109513;
#P window linecount 1;
#P newex 218 339 57 9109513 prepend set;
#P newex 112 194 75 9109513 route streamdef;
#P comment 83 97 117 9109513 argument: stream number;
#P newex 112 172 57 9109513 patcherargs;
#P newex 218 123 122 9109513 buddy 3;
#P newex 78 271 137 9109513 sprintf /stream_IDs/%ld %s;
#P window linecount 0;
#P newex 218 220 47 9109513 tosymbol;
#P newex 274 154 75 9109513 prepend symbol;
#P newex 218 57 236 9109513 jcom.oscroute /ID /variables /description /order;
#P newex 218 246 70 9109513 prepend define;
#P newex 274 85 47 9109513 tosymbol;
#P newex 218 194 237 9109513 sprintf "1MTD %s { %s } 1FTD %s { %s %s\\\\\\\; }";
#P newex 218 271 117 9109513 prepend /write_control;
#P inlet 218 35 15 0;
#P outlet 148 408 15 0;
#P comment 341 106 169 9109513 waiting for the full stream definition before sending the define message;
#P fasten 7 0 26 0 223 110 83 110;
#P connect 26 0 25 0;
#P connect 25 0 10 0;
#P connect 12 0 14 0;
#P connect 14 0 26 1;
#P connect 17 0 1 0;
#P fasten 16 0 1 0 223 402 153 402;
#P fasten 10 0 1 0 83 397 153 397;
#P fasten 18 0 17 0 530 301 191 301;
#P lcolor 1;
#P fasten 21 0 17 0 513 301 191 301;
#P lcolor 1;
#P connect 2 0 7 0;
#P connect 7 0 11 0;
#P connect 11 0 4 0;
#P connect 4 0 9 0;
#P connect 9 0 6 0;
#P connect 6 0 3 0;
#P connect 3 0 17 1;
#P connect 17 1 15 0;
#P fasten 19 0 16 0 547 362 223 362;
#P connect 15 0 16 0;
#P connect 7 1 5 0;
#P connect 5 0 11 1;
#P connect 11 1 8 0;
#P connect 8 0 4 1;
#P connect 7 2 11 2;
#P connect 7 0 4 2;
#P connect 7 0 4 3;
#P connect 11 2 4 4;
#P fasten 7 3 20 0 391 90 513 90;
#P connect 20 0 21 0;
#P connect 19 0 18 0;
#P connect 20 1 22 0;
#P connect 22 0 19 0;
#P connect 20 2 22 1;
#P pop;
#P newobj 492 215 67 9109513 p streamdef 7;
#N vpatcher 370 67 1098 658;
#P window setfont "Sans Serif" 9.;
#P window linecount 1;
#P comment 33 518 446 9109513 - If [2] and [3] \, any stream definition message is directly forwarded to the dynamic patcher;
#P comment 33 502 394 9109513 - If [1] \, any stream definition message is put on hold \, and banged out after [2] and [3];
#P comment 25 488 291 9109513 In this subpatcher \, the order system works like this:;
#P comment 252 455 300 9109513 3. a /file message is sent to the module;
#P comment 252 441 291 9109513 2: ftm.sdif.write is generated within the dynamic patcher;
#P newex 78 220 44 9109513 pack s 0;
#P newex 78 246 31 9109513 zl rev;
#P comment 252 427 253 9109513 1. the streamcount parameter is adjusted;
#P window linecount 2;
#P comment 248 400 212 9109513 The /order system is a system for making the order of input messages to the module arbitrary;
#P window linecount 1;
#P newex 542 175 44 9109513 onebang;
#P message 508 247 14 9109513 2;
#P newex 508 135 114 9109513 sel 1 3 2;
#P newex 542 217 33 9109513 del 50;
#P window linecount 0;
#P message 525 247 14 9109513 1;
#P window linecount 1;
#P newex 186 307 42 9109513 gate 2 2;
#P window linecount 0;
#P message 218 371 394 9109513;
#P window linecount 1;
#P newex 218 339 57 9109513 prepend set;
#P newex 112 194 75 9109513 route streamdef;
#P comment 83 97 117 9109513 argument: stream number;
#P newex 112 172 57 9109513 patcherargs;
#P newex 218 123 122 9109513 buddy 3;
#P newex 78 271 137 9109513 sprintf /stream_IDs/%ld %s;
#P window linecount 0;
#P newex 218 220 47 9109513 tosymbol;
#P newex 274 154 75 9109513 prepend symbol;
#P newex 218 57 236 9109513 jcom.oscroute /ID /variables /description /order;
#P newex 218 246 70 9109513 prepend define;
#P newex 274 85 47 9109513 tosymbol;
#P newex 218 194 237 9109513 sprintf "1MTD %s { %s } 1FTD %s { %s %s\\\\\\\; }";
#P newex 218 271 117 9109513 prepend /write_control;
#P inlet 218 35 15 0;
#P outlet 148 408 15 0;
#P comment 341 106 169 9109513 waiting for the full stream definition before sending the define message;
#P fasten 7 0 26 0 223 110 83 110;
#P connect 26 0 25 0;
#P connect 25 0 10 0;
#P connect 12 0 14 0;
#P connect 14 0 26 1;
#P connect 17 0 1 0;
#P fasten 16 0 1 0 223 402 153 402;
#P fasten 10 0 1 0 83 397 153 397;
#P fasten 18 0 17 0 530 301 191 301;
#P lcolor 1;
#P fasten 21 0 17 0 513 301 191 301;
#P lcolor 1;
#P connect 2 0 7 0;
#P connect 7 0 11 0;
#P connect 11 0 4 0;
#P connect 4 0 9 0;
#P connect 9 0 6 0;
#P connect 6 0 3 0;
#P connect 3 0 17 1;
#P connect 17 1 15 0;
#P fasten 19 0 16 0 547 362 223 362;
#P connect 15 0 16 0;
#P connect 7 1 5 0;
#P connect 5 0 11 1;
#P connect 11 1 8 0;
#P connect 8 0 4 1;
#P connect 7 2 11 2;
#P connect 7 0 4 2;
#P connect 7 0 4 3;
#P connect 11 2 4 4;
#P fasten 7 3 20 0 391 90 513 90;
#P connect 20 0 21 0;
#P connect 19 0 18 0;
#P connect 20 1 22 0;
#P connect 22 0 19 0;
#P connect 20 2 22 1;
#P pop;
#P newobj 423 215 67 9109513 p streamdef 6;
#N vpatcher 370 67 1098 658;
#P window setfont "Sans Serif" 9.;
#P window linecount 1;
#P comment 33 518 446 9109513 - If [2] and [3] \, any stream definition message is directly forwarded to the dynamic patcher;
#P comment 33 502 394 9109513 - If [1] \, any stream definition message is put on hold \, and banged out after [2] and [3];
#P comment 25 488 291 9109513 In this subpatcher \, the order system works like this:;
#P comment 252 455 300 9109513 3. a /file message is sent to the module;
#P comment 252 441 291 9109513 2: ftm.sdif.write is generated within the dynamic patcher;
#P newex 78 220 44 9109513 pack s 0;
#P newex 78 246 31 9109513 zl rev;
#P comment 252 427 253 9109513 1. the streamcount parameter is adjusted;
#P window linecount 2;
#P comment 248 400 212 9109513 The /order system is a system for making the order of input messages to the module arbitrary;
#P window linecount 1;
#P newex 542 175 44 9109513 onebang;
#P message 508 247 14 9109513 2;
#P newex 508 135 114 9109513 sel 1 3 2;
#P newex 542 217 33 9109513 del 50;
#P window linecount 0;
#P message 525 247 14 9109513 1;
#P window linecount 1;
#P newex 186 307 42 9109513 gate 2 2;
#P window linecount 0;
#P message 218 371 394 9109513;
#P window linecount 1;
#P newex 218 339 57 9109513 prepend set;
#P newex 112 194 75 9109513 route streamdef;
#P comment 83 97 117 9109513 argument: stream number;
#P newex 112 172 57 9109513 patcherargs;
#P newex 218 123 122 9109513 buddy 3;
#P newex 78 271 137 9109513 sprintf /stream_IDs/%ld %s;
#P window linecount 0;
#P newex 218 220 47 9109513 tosymbol;
#P newex 274 154 75 9109513 prepend symbol;
#P newex 218 57 236 9109513 jcom.oscroute /ID /variables /description /order;
#P newex 218 246 70 9109513 prepend define;
#P newex 274 85 47 9109513 tosymbol;
#P newex 218 194 237 9109513 sprintf "1MTD %s { %s } 1FTD %s { %s %s\\\\\\\; }";
#P newex 218 271 117 9109513 prepend /write_control;
#P inlet 218 35 15 0;
#P outlet 148 408 15 0;
#P comment 341 106 169 9109513 waiting for the full stream definition before sending the define message;
#P fasten 7 0 26 0 223 110 83 110;
#P connect 26 0 25 0;
#P connect 25 0 10 0;
#P connect 12 0 14 0;
#P connect 14 0 26 1;
#P connect 17 0 1 0;
#P fasten 16 0 1 0 223 402 153 402;
#P fasten 10 0 1 0 83 397 153 397;
#P fasten 18 0 17 0 530 301 191 301;
#P lcolor 1;
#P fasten 21 0 17 0 513 301 191 301;
#P lcolor 1;
#P connect 2 0 7 0;
#P connect 7 0 11 0;
#P connect 11 0 4 0;
#P connect 4 0 9 0;
#P connect 9 0 6 0;
#P connect 6 0 3 0;
#P connect 3 0 17 1;
#P connect 17 1 15 0;
#P fasten 19 0 16 0 547 362 223 362;
#P connect 15 0 16 0;
#P connect 7 1 5 0;
#P connect 5 0 11 1;
#P connect 11 1 8 0;
#P connect 8 0 4 1;
#P connect 7 2 11 2;
#P connect 7 0 4 2;
#P connect 7 0 4 3;
#P connect 11 2 4 4;
#P fasten 7 3 20 0 391 90 513 90;
#P connect 20 0 21 0;
#P connect 19 0 18 0;
#P connect 20 1 22 0;
#P connect 22 0 19 0;
#P connect 20 2 22 1;
#P pop;
#P newobj 354 215 67 9109513 p streamdef 5;
#N vpatcher 370 67 1098 658;
#P window setfont "Sans Serif" 9.;
#P window linecount 1;
#P comment 33 518 446 9109513 - If [2] and [3] \, any stream definition message is directly forwarded to the dynamic patcher;
#P comment 33 502 394 9109513 - If [1] \, any stream definition message is put on hold \, and banged out after [2] and [3];
#P comment 25 488 291 9109513 In this subpatcher \, the order system works like this:;
#P comment 252 455 300 9109513 3. a /file message is sent to the module;
#P comment 252 441 291 9109513 2: ftm.sdif.write is generated within the dynamic patcher;
#P newex 78 220 44 9109513 pack s 0;
#P newex 78 246 31 9109513 zl rev;
#P comment 252 427 253 9109513 1. the streamcount parameter is adjusted;
#P window linecount 2;
#P comment 248 400 212 9109513 The /order system is a system for making the order of input messages to the module arbitrary;
#P window linecount 1;
#P newex 542 175 44 9109513 onebang;
#P message 508 247 14 9109513 2;
#P newex 508 135 114 9109513 sel 1 3 2;
#P newex 542 217 33 9109513 del 50;
#P window linecount 0;
#P message 525 247 14 9109513 1;
#P window linecount 1;
#P newex 186 307 42 9109513 gate 2 2;
#P window linecount 0;
#P message 218 371 394 9109513;
#P window linecount 1;
#P newex 218 339 57 9109513 prepend set;
#P newex 112 194 75 9109513 route streamdef;
#P comment 83 97 117 9109513 argument: stream number;
#P newex 112 172 57 9109513 patcherargs;
#P newex 218 123 122 9109513 buddy 3;
#P newex 78 271 137 9109513 sprintf /stream_IDs/%ld %s;
#P window linecount 0;
#P newex 218 220 47 9109513 tosymbol;
#P newex 274 154 75 9109513 prepend symbol;
#P newex 218 57 236 9109513 jcom.oscroute /ID /variables /description /order;
#P newex 218 246 70 9109513 prepend define;
#P newex 274 85 47 9109513 tosymbol;
#P newex 218 194 237 9109513 sprintf "1MTD %s { %s } 1FTD %s { %s %s\\\\\\\; }";
#P newex 218 271 117 9109513 prepend /write_control;
#P inlet 218 35 15 0;
#P outlet 148 408 15 0;
#P comment 341 106 169 9109513 waiting for the full stream definition before sending the define message;
#P fasten 7 0 26 0 223 110 83 110;
#P connect 26 0 25 0;
#P connect 25 0 10 0;
#P connect 12 0 14 0;
#P connect 14 0 26 1;
#P connect 17 0 1 0;
#P fasten 16 0 1 0 223 402 153 402;
#P fasten 10 0 1 0 83 397 153 397;
#P fasten 18 0 17 0 530 301 191 301;
#P lcolor 1;
#P fasten 21 0 17 0 513 301 191 301;
#P lcolor 1;
#P connect 2 0 7 0;
#P connect 7 0 11 0;
#P connect 11 0 4 0;
#P connect 4 0 9 0;
#P connect 9 0 6 0;
#P connect 6 0 3 0;
#P connect 3 0 17 1;
#P connect 17 1 15 0;
#P fasten 19 0 16 0 547 362 223 362;
#P connect 15 0 16 0;
#P connect 7 1 5 0;
#P connect 5 0 11 1;
#P connect 11 1 8 0;
#P connect 8 0 4 1;
#P connect 7 2 11 2;
#P connect 7 0 4 2;
#P connect 7 0 4 3;
#P connect 11 2 4 4;
#P fasten 7 3 20 0 391 90 513 90;
#P connect 20 0 21 0;
#P connect 19 0 18 0;
#P connect 20 1 22 0;
#P connect 22 0 19 0;
#P connect 20 2 22 1;
#P pop;
#P newobj 285 215 67 9109513 p streamdef 4;
#N vpatcher 370 67 1098 658;
#P window setfont "Sans Serif" 9.;
#P window linecount 1;
#P comment 33 518 446 9109513 - If [2] and [3] \, any stream definition message is directly forwarded to the dynamic patcher;
#P comment 33 502 394 9109513 - If [1] \, any stream definition message is put on hold \, and banged out after [2] and [3];
#P comment 25 488 291 9109513 In this subpatcher \, the order system works like this:;
#P comment 252 455 300 9109513 3. a /file message is sent to the module;
#P comment 252 441 291 9109513 2: ftm.sdif.write is generated within the dynamic patcher;
#P newex 78 220 44 9109513 pack s 0;
#P newex 78 246 31 9109513 zl rev;
#P comment 252 427 253 9109513 1. the streamcount parameter is adjusted;
#P window linecount 2;
#P comment 248 400 212 9109513 The /order system is a system for making the order of input messages to the module arbitrary;
#P window linecount 1;
#P newex 542 175 44 9109513 onebang;
#P message 508 247 14 9109513 2;
#P newex 508 135 114 9109513 sel 1 3 2;
#P newex 542 217 33 9109513 del 50;
#P window linecount 0;
#P message 525 247 14 9109513 1;
#P window linecount 1;
#P newex 186 307 42 9109513 gate 2 2;
#P window linecount 0;
#P message 218 371 394 9109513;
#P window linecount 1;
#P newex 218 339 57 9109513 prepend set;
#P newex 112 194 75 9109513 route streamdef;
#P comment 83 97 117 9109513 argument: stream number;
#P newex 112 172 57 9109513 patcherargs;
#P newex 218 123 122 9109513 buddy 3;
#P newex 78 271 137 9109513 sprintf /stream_IDs/%ld %s;
#P window linecount 0;
#P newex 218 220 47 9109513 tosymbol;
#P newex 274 154 75 9109513 prepend symbol;
#P newex 218 57 236 9109513 jcom.oscroute /ID /variables /description /order;
#P newex 218 246 70 9109513 prepend define;
#P newex 274 85 47 9109513 tosymbol;
#P newex 218 194 237 9109513 sprintf "1MTD %s { %s } 1FTD %s { %s %s\\\\\\\; }";
#P newex 218 271 117 9109513 prepend /write_control;
#P inlet 218 35 15 0;
#P outlet 148 408 15 0;
#P comment 341 106 169 9109513 waiting for the full stream definition before sending the define message;
#P fasten 7 0 26 0 223 110 83 110;
#P connect 26 0 25 0;
#P connect 25 0 10 0;
#P connect 12 0 14 0;
#P connect 14 0 26 1;
#P connect 17 0 1 0;
#P fasten 16 0 1 0 223 402 153 402;
#P fasten 10 0 1 0 83 397 153 397;
#P fasten 18 0 17 0 530 301 191 301;
#P lcolor 1;
#P fasten 21 0 17 0 513 301 191 301;
#P lcolor 1;
#P connect 2 0 7 0;
#P connect 7 0 11 0;
#P connect 11 0 4 0;
#P connect 4 0 9 0;
#P connect 9 0 6 0;
#P connect 6 0 3 0;
#P connect 3 0 17 1;
#P connect 17 1 15 0;
#P fasten 19 0 16 0 547 362 223 362;
#P connect 15 0 16 0;
#P connect 7 1 5 0;
#P connect 5 0 11 1;
#P connect 11 1 8 0;
#P connect 8 0 4 1;
#P connect 7 2 11 2;
#P connect 7 0 4 2;
#P connect 7 0 4 3;
#P connect 11 2 4 4;
#P fasten 7 3 20 0 391 90 513 90;
#P connect 20 0 21 0;
#P connect 19 0 18 0;
#P connect 20 1 22 0;
#P connect 22 0 19 0;
#P connect 20 2 22 1;
#P pop;
#P newobj 216 215 67 9109513 p streamdef 3;
#N vpatcher 370 67 1098 658;
#P window setfont "Sans Serif" 9.;
#P window linecount 1;
#P comment 33 518 446 9109513 - If [2] and [3] \, any stream definition message is directly forwarded to the dynamic patcher;
#P comment 33 502 394 9109513 - If [1] \, any stream definition message is put on hold \, and banged out after [2] and [3];
#P comment 25 488 291 9109513 In this subpatcher \, the order system works like this:;
#P comment 252 455 300 9109513 3. a /file message is sent to the module;
#P comment 252 441 291 9109513 2: ftm.sdif.write is generated within the dynamic patcher;
#P newex 78 220 44 9109513 pack s 0;
#P newex 78 246 31 9109513 zl rev;
#P comment 252 427 253 9109513 1. the streamcount parameter is adjusted;
#P window linecount 2;
#P comment 248 400 212 9109513 The /order system is a system for making the order of input messages to the module arbitrary;
#P window linecount 1;
#P newex 542 175 44 9109513 onebang;
#P message 508 247 14 9109513 2;
#P newex 508 135 114 9109513 sel 1 3 2;
#P newex 542 217 33 9109513 del 50;
#P window linecount 0;
#P message 525 247 14 9109513 1;
#P window linecount 1;
#P newex 186 307 42 9109513 gate 2 2;
#P window linecount 0;
#P message 218 371 394 9109513;
#P window linecount 1;
#P newex 218 339 57 9109513 prepend set;
#P newex 112 194 75 9109513 route streamdef;
#P comment 83 97 117 9109513 argument: stream number;
#P newex 112 172 57 9109513 patcherargs;
#P newex 218 123 122 9109513 buddy 3;
#P newex 78 271 137 9109513 sprintf /stream_IDs/%ld %s;
#P window linecount 0;
#P newex 218 220 47 9109513 tosymbol;
#P newex 274 154 75 9109513 prepend symbol;
#P newex 218 57 236 9109513 jcom.oscroute /ID /variables /description /order;
#P newex 218 246 70 9109513 prepend define;
#P newex 274 85 47 9109513 tosymbol;
#P newex 218 194 237 9109513 sprintf "1MTD %s { %s } 1FTD %s { %s %s\\\\\\\; }";
#P newex 218 271 117 9109513 prepend /write_control;
#P inlet 218 35 15 0;
#P outlet 148 408 15 0;
#P comment 341 106 169 9109513 waiting for the full stream definition before sending the define message;
#P fasten 7 0 26 0 223 110 83 110;
#P connect 26 0 25 0;
#P connect 25 0 10 0;
#P connect 12 0 14 0;
#P connect 14 0 26 1;
#P connect 17 0 1 0;
#P fasten 16 0 1 0 223 402 153 402;
#P fasten 10 0 1 0 83 397 153 397;
#P fasten 18 0 17 0 530 301 191 301;
#P lcolor 1;
#P fasten 21 0 17 0 513 301 191 301;
#P lcolor 1;
#P connect 2 0 7 0;
#P connect 7 0 11 0;
#P connect 11 0 4 0;
#P connect 4 0 9 0;
#P connect 9 0 6 0;
#P connect 6 0 3 0;
#P connect 3 0 17 1;
#P connect 17 1 15 0;
#P fasten 19 0 16 0 547 362 223 362;
#P connect 15 0 16 0;
#P connect 7 1 5 0;
#P connect 5 0 11 1;
#P connect 11 1 8 0;
#P connect 8 0 4 1;
#P connect 7 2 11 2;
#P connect 7 0 4 2;
#P connect 7 0 4 3;
#P connect 11 2 4 4;
#P fasten 7 3 20 0 391 90 513 90;
#P connect 20 0 21 0;
#P connect 19 0 18 0;
#P connect 20 1 22 0;
#P connect 22 0 19 0;
#P connect 20 2 22 1;
#P pop;
#P newobj 147 215 67 9109513 p streamdef 2;
#N vpatcher 370 67 1098 658;
#P window setfont "Sans Serif" 9.;
#P window linecount 1;
#P comment 33 518 446 9109513 - If [2] and [3] \, any stream definition message is directly forwarded to the dynamic patcher;
#P comment 33 502 394 9109513 - If [1] \, any stream definition message is put on hold \, and banged out after [2] and [3];
#P comment 25 488 291 9109513 In this subpatcher \, the order system works like this:;
#P comment 252 455 300 9109513 3. a /file message is sent to the module;
#P comment 252 441 291 9109513 2: ftm.sdif.write is generated within the dynamic patcher;
#P newex 78 220 44 9109513 pack s 0;
#P newex 78 246 31 9109513 zl rev;
#P comment 252 427 253 9109513 1. the streamcount parameter is adjusted;
#P window linecount 2;
#P comment 248 400 212 9109513 The /order system is a system for making the order of input messages to the module arbitrary;
#P window linecount 1;
#P newex 542 175 44 9109513 onebang;
#P message 508 247 14 9109513 2;
#P newex 508 135 114 9109513 sel 1 3 2;
#P newex 542 217 33 9109513 del 50;
#P window linecount 0;
#P message 525 247 14 9109513 1;
#P window linecount 1;
#P newex 186 307 42 9109513 gate 2 2;
#P window linecount 0;
#P message 218 371 394 9109513;
#P window linecount 1;
#P newex 218 339 57 9109513 prepend set;
#P newex 112 194 75 9109513 route streamdef;
#P comment 83 97 117 9109513 argument: stream number;
#P newex 112 172 57 9109513 patcherargs;
#P newex 218 123 122 9109513 buddy 3;
#P newex 78 271 137 9109513 sprintf /stream_IDs/%ld %s;
#P window linecount 0;
#P newex 218 220 47 9109513 tosymbol;
#P newex 274 154 75 9109513 prepend symbol;
#P newex 218 57 236 9109513 jcom.oscroute /ID /variables /description /order;
#P newex 218 246 70 9109513 prepend define;
#P newex 274 85 47 9109513 tosymbol;
#P newex 218 194 237 9109513 sprintf "1MTD %s { %s } 1FTD %s { %s %s\\\\\\\; }";
#P newex 218 271 117 9109513 prepend /write_control;
#P inlet 218 35 15 0;
#P outlet 148 408 15 0;
#P comment 341 106 169 9109513 waiting for the full stream definition before sending the define message;
#P fasten 7 0 26 0 223 110 83 110;
#P connect 26 0 25 0;
#P connect 25 0 10 0;
#P connect 12 0 14 0;
#P connect 14 0 26 1;
#P connect 17 0 1 0;
#P fasten 16 0 1 0 223 402 153 402;
#P fasten 10 0 1 0 83 397 153 397;
#P fasten 18 0 17 0 530 301 191 301;
#P lcolor 1;
#P fasten 21 0 17 0 513 301 191 301;
#P lcolor 1;
#P connect 2 0 7 0;
#P connect 7 0 11 0;
#P connect 11 0 4 0;
#P connect 4 0 9 0;
#P connect 9 0 6 0;
#P connect 6 0 3 0;
#P connect 3 0 17 1;
#P connect 17 1 15 0;
#P fasten 19 0 16 0 547 362 223 362;
#P connect 15 0 16 0;
#P connect 7 1 5 0;
#P connect 5 0 11 1;
#P connect 11 1 8 0;
#P connect 8 0 4 1;
#P connect 7 2 11 2;
#P connect 7 0 4 2;
#P connect 7 0 4 3;
#P connect 11 2 4 4;
#P fasten 7 3 20 0 391 90 513 90;
#P connect 20 0 21 0;
#P connect 19 0 18 0;
#P connect 20 1 22 0;
#P connect 22 0 19 0;
#P connect 20 2 22 1;
#P pop;
#P newobj 78 215 67 9109513 p streamdef 1;
#N vpatcher 370 67 1098 658;
#P window setfont "Sans Serif" 9.;
#P window linecount 1;
#P comment 33 518 446 9109513 - If [2] and [3] \, any stream definition message is directly forwarded to the dynamic patcher;
#P comment 33 502 394 9109513 - If [1] \, any stream definition message is put on hold \, and banged out after [2] and [3];
#P comment 25 488 291 9109513 In this subpatcher \, the order system works like this:;
#P comment 252 455 300 9109513 3. a /file message is sent to the module;
#P comment 252 441 291 9109513 2: ftm.sdif.write is generated within the dynamic patcher;
#P newex 78 220 44 9109513 pack s 0;
#P newex 78 246 31 9109513 zl rev;
#P comment 252 427 253 9109513 1. the streamcount parameter is adjusted;
#P window linecount 2;
#P comment 248 400 212 9109513 The /order system is a system for making the order of input messages to the module arbitrary;
#P window linecount 1;
#P newex 542 175 44 9109513 onebang;
#P message 508 247 14 9109513 2;
#P newex 508 135 114 9109513 sel 1 3 2;
#P newex 542 217 33 9109513 del 50;
#P window linecount 0;
#P message 525 247 14 9109513 1;
#P window linecount 1;
#P newex 186 307 42 9109513 gate 2 2;
#P window linecount 0;
#P message 218 371 394 9109513;
#P window linecount 1;
#P newex 218 339 57 9109513 prepend set;
#P newex 112 194 75 9109513 route streamdef;
#P comment 83 97 117 9109513 argument: stream number;
#P newex 112 172 57 9109513 patcherargs;
#P newex 218 123 122 9109513 buddy 3;
#P newex 78 271 137 9109513 sprintf /stream_IDs/%ld %s;
#P window linecount 0;
#P newex 218 220 47 9109513 tosymbol;
#P newex 274 154 75 9109513 prepend symbol;
#P newex 218 57 236 9109513 jcom.oscroute /ID /variables /description /order;
#P newex 218 246 70 9109513 prepend define;
#P newex 274 85 47 9109513 tosymbol;
#P newex 218 194 237 9109513 sprintf "1MTD %s { %s } 1FTD %s { %s %s\\\\\\\; }";
#P newex 218 271 117 9109513 prepend /write_control;
#P inlet 218 35 15 0;
#P outlet 148 408 15 0;
#P comment 341 106 169 9109513 waiting for the full stream definition before sending the define message;
#P fasten 7 0 26 0 223 110 83 110;
#P connect 26 0 25 0;
#P connect 25 0 10 0;
#P connect 12 0 14 0;
#P connect 14 0 26 1;
#P connect 17 0 1 0;
#P fasten 16 0 1 0 223 402 153 402;
#P fasten 10 0 1 0 83 397 153 397;
#P fasten 18 0 17 0 530 301 191 301;
#P lcolor 1;
#P fasten 21 0 17 0 513 301 191 301;
#P lcolor 1;
#P connect 2 0 7 0;
#P connect 7 0 11 0;
#P connect 11 0 4 0;
#P connect 4 0 9 0;
#P connect 9 0 6 0;
#P connect 6 0 3 0;
#P connect 3 0 17 1;
#P connect 17 1 15 0;
#P fasten 19 0 16 0 547 362 223 362;
#P connect 15 0 16 0;
#P connect 7 1 5 0;
#P connect 5 0 11 1;
#P connect 11 1 8 0;
#P connect 8 0 4 1;
#P connect 7 2 11 2;
#P connect 7 0 4 2;
#P connect 7 0 4 3;
#P connect 11 2 4 4;
#P fasten 7 3 20 0 391 90 513 90;
#P connect 20 0 21 0;
#P connect 19 0 18 0;
#P connect 20 1 22 0;
#P connect 22 0 19 0;
#P connect 20 2 22 1;
#P pop;
#P newobj 9 215 67 9109513 p streamdef 0;
#P inlet 9 27 15 0;
#P outlet 9 274 15 0;
#P newex 9 49 634 9109513 jcom.oscroute /stream/0 /stream/1 /stream/2 /stream/3 /stream/4 /stream/5 /stream/6 /stream/7 /order;
#P window linecount 3;
#P comment 29 256 181 9109513 A message generating stream definitions for the ftm.sdif.write object is generated inside the streamdef subpatchers;
#P connect 3 0 1 0;
#P connect 1 8 4 0;
#P connect 12 1 4 0;
#P connect 1 0 4 0;
#P fasten 12 0 2 0 635 247 14 247;
#P fasten 4 0 2 0 14 247 14 247;
#P fasten 5 0 2 0 83 247 14 247;
#P fasten 6 0 2 0 152 247 14 247;
#P fasten 7 0 2 0 221 247 14 247;
#P fasten 8 0 2 0 290 247 14 247;
#P fasten 9 0 2 0 359 247 14 247;
#P fasten 10 0 2 0 428 247 14 247;
#P fasten 11 0 2 0 497 247 14 247;
#P connect 1 8 5 0;
#P connect 1 1 5 0;
#P connect 12 1 5 0;
#P connect 1 8 6 0;
#P connect 1 2 6 0;
#P connect 12 1 6 0;
#P connect 1 8 7 0;
#P connect 1 3 7 0;
#P connect 12 1 7 0;
#P connect 1 8 8 0;
#P connect 1 4 8 0;
#P connect 12 1 8 0;
#P connect 1 8 9 0;
#P connect 1 5 9 0;
#P connect 12 1 9 0;
#P connect 1 8 10 0;
#P connect 1 6 10 0;
#P connect 12 1 10 0;
#P connect 1 7 11 0;
#P connect 1 8 11 0;
#P connect 12 1 11 0;
#P connect 1 9 12 0;
#P connect 1 8 12 0;
#P pop;
#P newobj 142 90 59 9109513 p definitions;
#N vpatcher 682 38 1282 438;
#P window setfont "Sans Serif" 9.;
#P window linecount 0;
#P newex 55 107 71 9109513 buddy 3;
#P newex 55 55 122 9109513 jcom.oscroute /stream_IDs;
#P newex 55 80 100 9109513 jcom.oscroute /0 /1 /2;
#P outlet 55 339 15 0;
#P inlet 55 34 15 0;
#P window linecount 1;
#P newex 55 132 40 9109513 t b l b;
#P newex 459 305 81 9109513 prepend /script;
#P window setfont "Fixedwidth Serif" 10.;
#P message 85 156 154 9240586 script delete sdif_write;
#P window linecount 5;
#P message 55 219 405 9240586 script offsetfrom sdif_write tp 1 80 0 \, script connect jcom.oscroute_3 0 sdif_write 0 \, script connect jcom.oscroute_2 0 sdif_write 0 \, script connect jcom.oscroute_2 1 sdif_write 1 \, script connect jcom.oscroute_2 2 sdif_write 2 \, script connect jcom.oscroute_1 1 sdif_write 0 \, clean;
#P window setfont "Sans Serif" 9.;
#P window linecount 1;
#P newex 70 184 386 9109513 sprintf script new sdif_write newex 100 400 44 9109513 ftm.sdif.write %s 0 %s 1 %s 2;
#P connect 5 0 8 0;
#P connect 8 0 7 0;
#P connect 7 0 9 0;
#P connect 9 0 4 0;
#P connect 4 0 1 0;
#P fasten 3 0 6 0 464 330 60 330;
#P fasten 8 1 6 0 172 93 542 93 542 330 60 330;
#P connect 4 1 0 0;
#P connect 7 1 9 1;
#P connect 4 2 2 0;
#P connect 7 2 9 2;
#P fasten 9 1 0 1 90 130 263 130;
#P lcolor 1;
#P fasten 9 2 0 2 120 128 451 128;
#P lcolor 1;
#P fasten 2 0 3 0 90 177 464 177;
#P fasten 1 0 3 0 60 297 464 297;
#P fasten 0 0 3 0 75 209 464 209;
#P pop;
#P newobj 175 157 79 9109513 p threestreams;
#P newex 13 124 580 9109513 gate 8 1;
#N vpatcher 670 81 1270 481;
#P window setfont "Sans Serif" 9.;
#P window linecount 1;
#P newex 28 97 49 9109513 buddy 2;
#P newex 28 44 122 9109513 jcom.oscroute /stream_IDs;
#P window linecount 0;
#P newex 28 69 89 9109513 jcom.oscroute /0 /1;
#P outlet 28 332 15 0;
#P inlet 28 23 15 0;
#P window linecount 1;
#P newex 28 125 40 9109513 t b l b;
#P newex 459 297 81 9109513 prepend /script;
#P window setfont "Fixedwidth Serif" 10.;
#P message 58 149 154 9240586 script delete sdif_write;
#P window linecount 4;
#P message 28 225 413 9240586 script offsetfrom sdif_write tp 1 80 0 \, script connect jcom.oscroute_3 0 sdif_write 0 \, script connect jcom.oscroute_2 0 sdif_write 0 \, script connect jcom.oscroute_2 1 sdif_write 1 \, script connect jcom.oscroute_1 1 sdif_write 0 \, clean;
#P window setfont "Sans Serif" 9.;
#P window linecount 2;
#P newex 43 177 321 9109513 sprintf script new sdif_write newex 100 400 44 9109513 ftm.sdif.write %s 0 %s 1;
#P connect 5 0 8 0;
#P connect 8 0 7 0;
#P connect 7 0 9 0;
#P connect 9 0 4 0;
#P connect 4 0 1 0;
#P fasten 3 0 6 0 464 323 33 323;
#P fasten 8 1 6 0 145 66 543 66 543 323 33 323;
#P connect 4 1 0 0;
#P connect 4 2 2 0;
#P connect 7 1 9 1;
#P connect 9 1 0 1;
#P fasten 0 0 3 0 48 218 464 218;
#P fasten 1 0 3 0 33 289 464 289;
#P fasten 2 0 3 0 63 170 464 170;
#P pop;
#P newobj 94 157 72 9109513 p twostreams;
#P newex 13 198 47 9109513 jcom.thru;
#N vpatcher 171 57 771 457;
#P window setfont "Sans Serif" 9.;
#P window linecount 0;
#P newex 55 95 78 9109513 jcom.oscroute /0;
#P newex 55 71 122 9109513 jcom.oscroute /stream_IDs;
#P outlet 55 314 15 0;
#P newex 55 129 40 9109513 t b l b;
#P newex 467 274 81 9109513 prepend /script;
#P window setfont "Fixedwidth Serif" 10.;
#P message 85 153 154 9240586 script delete sdif_write;
#P window linecount 4;
#P message 55 213 399 9240586 script offsetfrom sdif_write tp 1 80 0 \, script connect jcom.oscroute_3 0 sdif_write 0 \, script connect jcom.oscroute_2 0 sdif_write 0 \, script connect jcom.oscroute_1 1 sdif_write 0 \, clean;
#P inlet 55 44 15 0;
#P window setfont "Sans Serif" 9.;
#P window linecount 1;
#P newex 70 181 370 9109513 sprintf script new sdif_write newex 100 400 44 9109513 ftm.sdif.write %s 0;
#P connect 1 0 7 0;
#P connect 7 0 8 0;
#P connect 8 0 5 0;
#P connect 5 0 2 0;
#P fasten 4 0 6 0 472 308 60 308;
#P fasten 7 1 6 0 172 125 560 125 560 308 60 308;
#P connect 5 1 0 0;
#P connect 5 2 3 0;
#P fasten 0 0 4 0 75 208 472 208;
#P fasten 3 0 4 0 90 174 472 174;
#P fasten 2 0 4 0 60 272 472 272;
#P pop;
#P newobj 13 157 65 9109513 p onestream;
#P newex 13 48 139 9109513 jcom.oscroute /streamcount;
#P inlet 13 24 15 0;
#P objectname inlet;
#P comment 129 238 320 9109513 An ftm.sdif.write object is generated within the dynamic_patcher.mxt.;
#P connect 1 0 2 0;
#P connect 2 0 6 0;
#P connect 6 0 3 0;
#P connect 3 0 4 0;
#P fasten 13 0 4 0 504 188 18 188;
#P fasten 12 0 4 0 423 188 18 188;
#P fasten 11 0 4 0 342 188 18 188;
#P fasten 14 0 4 0 585 188 18 188;
#P fasten 7 0 4 0 180 188 18 188;
#P fasten 5 0 4 0 99 188 18 188;
#P fasten 9 0 4 0 261 188 18 188;
#P connect 4 0 15 0;
#P fasten 2 0 20 0 18 79 28 79;
#P connect 20 0 21 0;
#P connect 6 1 5 0;
#P connect 24 0 15 1;
#P lcolor 1;
#P connect 2 1 8 0;
#P fasten 21 0 8 0 28 120 123 120 123 79;
#P fasten 18 0 8 0 540 321 661 321 661 78 168 78 168 78;
#P connect 6 2 7 0;
#P connect 6 3 9 0;
#P connect 6 4 11 0;
#P connect 6 5 12 0;
#P connect 6 6 13 0;
#P fasten 4 0 16 0 18 221 540 221;
#P connect 16 0 17 0;
#P connect 17 0 19 0;
#P connect 19 0 18 0;
#P connect 6 7 14 0;
#P fasten 8 0 6 1 147 115 588 115;
#P pop;
