max v2;
#N vpatcher 105 126 1205 454;
#P origin -28 16;
#P window setfont "Sans Serif" 9.;
#N vpatcher 640 299 1240 699;
#P window setfont "Sans Serif" 9.;
#P window linecount 1;
#P newex 55 53 163 9109513 jcom.oscroute /0 /1 /2 /3 /4 /5 /6 /7;
#P window linecount 0;
#P newex 55 28 169 9109513 jcom.oscroute /stream_names;
#P newex 55 82 149 9109513 buddy 8;
#P outlet 55 366 15 0;
#P inlet 55 7 15 0;
#P window linecount 1;
#P newex 55 114 40 9109513 t b l b;
#P newex 457 332 81 9109513 prepend /script;
#P window setfont "Fixedwidth Serif" 10.;
#P message 85 138 154 9240586 script delete sdif_write;
#P window linecount 5;
#P message 55 214 380 9240586 script offsetfrom sdif_write tp 1 29 0 \, script connect jcom.oscroute_2 0 sdif_write 0 \, script connect jcom.oscroute_2 1 sdif_write 1 \, script connect jcom.oscroute_2 2 sdif_write 2 \, script connect jcom.oscroute_2 3 sdif_write 3 \, script connect jcom.oscroute_1 1 sdif_write 0 \, clean;
#P window setfont "Sans Serif" 9.;
#P window linecount 2;
#P newex 70 166 240 9109513 sprintf script new sdif_write newex 100 400 44 9109513 ftm.sdif.write %s 0 %s 1 %s 2 %s 3 %s 4 %s 5 %6 %7;
#P connect 5 0 8 0;
#P connect 8 0 9 0;
#P connect 9 0 7 0;
#P connect 7 0 4 0;
#P connect 4 0 1 0;
#P fasten 8 1 6 0 219 56 542 56 542 357 60 357;
#P fasten 3 0 6 0 462 357 60 357;
#P connect 4 1 0 0;
#P connect 9 1 7 1;
#P connect 4 2 2 0;
#P connect 9 2 7 2;
#P connect 7 1 0 1;
#P lcolor 1;
#P connect 9 3 7 3;
#P connect 9 4 7 4;
#P connect 7 2 0 2;
#P lcolor 1;
#P connect 9 5 7 5;
#P connect 7 3 0 3;
#P lcolor 1;
#P connect 9 6 7 6;
#P connect 9 7 7 7;
#P connect 7 4 0 4;
#P lcolor 1;
#P connect 7 5 0 5;
#P lcolor 1;
#P connect 7 6 0 6;
#P lcolor 1;
#P connect 7 7 0 7;
#P lcolor 1;
#P fasten 0 0 3 0 75 209 462 209;
#P fasten 1 0 3 0 60 317 462 317;
#P fasten 2 0 3 0 90 159 462 159;
#P pop;
#P newobj 580 156 70 9109513 p eightstreams;
#N vpatcher 640 299 1240 699;
#P window setfont "Sans Serif" 9.;
#P window linecount 1;
#P newex 55 53 144 9109513 jcom.oscroute /0 /1 /2 /3 /4 /5 /6;
#P window linecount 0;
#P newex 55 28 169 9109513 jcom.oscroute /stream_names;
#P newex 55 82 128 9109513 buddy 7;
#P outlet 55 366 15 0;
#P inlet 55 7 15 0;
#P window linecount 1;
#P newex 55 114 40 9109513 t b l b;
#P newex 457 332 81 9109513 prepend /script;
#P window setfont "Fixedwidth Serif" 10.;
#P message 85 138 154 9240586 script delete sdif_write;
#P window linecount 5;
#P message 55 214 380 9240586 script offsetfrom sdif_write tp 1 29 0 \, script connect jcom.oscroute_2 0 sdif_write 0 \, script connect jcom.oscroute_2 1 sdif_write 1 \, script connect jcom.oscroute_2 2 sdif_write 2 \, script connect jcom.oscroute_2 3 sdif_write 3 \, script connect jcom.oscroute_1 1 sdif_write 0 \, clean;
#P window setfont "Sans Serif" 9.;
#P window linecount 2;
#P newex 70 166 239 9109513 sprintf script new sdif_write newex 100 400 44 9109513 ftm.sdif.write %s 0 %s 1 %s 2 %s 3 %s 4 %s 5 %6;
#P connect 5 0 8 0;
#P connect 8 0 9 0;
#P connect 9 0 7 0;
#P connect 7 0 4 0;
#P connect 4 0 1 0;
#P fasten 3 0 6 0 462 357 60 357;
#P fasten 8 1 6 0 219 56 542 56 542 357 60 357;
#P connect 4 1 0 0;
#P connect 9 1 7 1;
#P connect 4 2 2 0;
#P connect 9 2 7 2;
#P connect 7 1 0 1;
#P lcolor 1;
#P connect 9 3 7 3;
#P connect 9 4 7 4;
#P connect 7 2 0 2;
#P lcolor 1;
#P connect 9 5 7 5;
#P connect 9 6 7 6;
#P connect 7 3 0 3;
#P lcolor 1;
#P connect 7 4 0 4;
#P lcolor 1;
#P connect 7 5 0 5;
#P lcolor 1;
#P connect 7 6 0 6;
#P lcolor 1;
#P fasten 0 0 3 0 75 209 462 209;
#P fasten 2 0 3 0 90 159 462 159;
#P fasten 1 0 3 0 60 317 462 317;
#P pop;
#P newobj 499 156 76 9109513 p sevenstreams;
#N vpatcher 640 299 1240 699;
#P window setfont "Sans Serif" 9.;
#P window linecount 1;
#P newex 55 53 133 9109513 jcom.oscroute /0 /1 /2 /3 /4 /5;
#P window linecount 0;
#P newex 55 28 149 9109513 jcom.oscroute /stream_names;
#P newex 55 82 110 9109513 buddy 6;
#P outlet 55 366 15 0;
#P inlet 55 7 15 0;
#P window linecount 1;
#P newex 55 114 40 9109513 t b l b;
#P newex 457 332 81 9109513 prepend /script;
#P window setfont "Fixedwidth Serif" 10.;
#P message 85 138 154 9240586 script delete sdif_write;
#P window linecount 5;
#P message 55 214 380 9240586 script offsetfrom sdif_write tp 1 29 0 \, script connect jcom.oscroute_2 0 sdif_write 0 \, script connect jcom.oscroute_2 1 sdif_write 1 \, script connect jcom.oscroute_2 2 sdif_write 2 \, script connect jcom.oscroute_2 3 sdif_write 3 \, script connect jcom.oscroute_1 1 sdif_write 0 \, clean;
#P window setfont "Sans Serif" 9.;
#P window linecount 2;
#P newex 70 166 239 9109513 sprintf script new sdif_write newex 100 400 44 9109513 ftm.sdif.write %s 0 %s 1 %s 2 %s 3 %s 4 %s 5;
#P connect 5 0 8 0;
#P connect 8 0 9 0;
#P connect 9 0 7 0;
#P connect 7 0 4 0;
#P connect 4 0 1 0;
#P fasten 8 1 6 0 199 56 542 56 542 357 60 357;
#P fasten 3 0 6 0 462 357 60 357;
#P connect 4 1 0 0;
#P connect 9 1 7 1;
#P connect 4 2 2 0;
#P connect 9 2 7 2;
#P connect 9 3 7 3;
#P connect 7 1 0 1;
#P lcolor 1;
#P connect 9 4 7 4;
#P connect 9 5 7 5;
#P connect 7 2 0 2;
#P lcolor 1;
#P connect 7 3 0 3;
#P lcolor 1;
#P connect 7 4 0 4;
#P lcolor 1;
#P connect 7 5 0 5;
#P lcolor 1;
#P fasten 0 0 3 0 75 209 462 209;
#P fasten 1 0 3 0 60 317 462 317;
#P fasten 2 0 3 0 90 159 462 159;
#P pop;
#P newobj 418 156 62 9109513 p sixstreams;
#N vpatcher 640 299 1240 699;
#P window setfont "Sans Serif" 9.;
#P window linecount 1;
#P newex 55 55 122 9109513 jcom.oscroute /0 /1 /2 /3 /4;
#P window linecount 0;
#P newex 55 28 149 9109513 jcom.oscroute /stream_names;
#P newex 55 82 101 9109513 buddy 5;
#P outlet 55 366 15 0;
#P inlet 55 7 15 0;
#P window linecount 1;
#P newex 55 114 40 9109513 t b l b;
#P newex 457 332 81 9109513 prepend /script;
#P window setfont "Fixedwidth Serif" 10.;
#P message 85 138 154 9240586 script delete sdif_write;
#P window linecount 5;
#P message 55 214 380 9240586 script offsetfrom sdif_write tp 1 29 0 \, script connect jcom.oscroute_2 0 sdif_write 0 \, script connect jcom.oscroute_2 1 sdif_write 1 \, script connect jcom.oscroute_2 2 sdif_write 2 \, script connect jcom.oscroute_2 3 sdif_write 3 \, script connect jcom.oscroute_1 1 sdif_write 0 \, clean;
#P window setfont "Sans Serif" 9.;
#P window linecount 2;
#P newex 70 166 222 9109513 sprintf script new sdif_write newex 100 400 44 9109513 ftm.sdif.write %s 0 %s 1 %s 2 %s 3 %s 4;
#P connect 5 0 8 0;
#P connect 8 0 9 0;
#P connect 9 0 7 0;
#P connect 7 0 4 0;
#P connect 4 0 1 0;
#P fasten 3 0 6 0 462 357 60 357;
#P fasten 8 1 6 0 199 56 542 56 542 357 60 357;
#P connect 4 1 0 0;
#P connect 9 1 7 1;
#P connect 4 2 2 0;
#P connect 9 2 7 2;
#P connect 9 3 7 3;
#P connect 7 1 0 1;
#P lcolor 1;
#P connect 9 4 7 4;
#P connect 7 2 0 2;
#P lcolor 1;
#P connect 7 3 0 3;
#P lcolor 1;
#P connect 7 4 0 4;
#P lcolor 1;
#P fasten 0 0 3 0 75 209 462 209;
#P fasten 2 0 3 0 90 159 462 159;
#P fasten 1 0 3 0 60 317 462 317;
#P pop;
#P newobj 337 156 67 9109513 p fivestreams;
#P comment 711 260 144 9109513 dynamic_patcher.mxt;
#P user panel 709 254 102 25;
#X brgb 173 173 173;
#X frgb 0 0 0;
#X border 0;
#X rounded 0;
#X shadow 0;
#X done;
#N vpatcher 15 55 615 455;
#P outlet 186 92 15 0;
#P outlet 122 100 15 0;
#P inlet 123 48 15 0;
#P pop;
#P newobj 710 254 77 9109513 p foo;
#P comment 779 99 70 9109513 p definitions;
#P user panel 775 94 76 22;
#X brgb 173 173 173;
#X frgb 0 0 0;
#X border 0;
#X rounded 0;
#X shadow 0;
#X done;
#P comment 713 52 70 9109513 jalg.sdif.record;
#P window linecount 2;
#P comment 229 82 320 9109513 This structure continiues in the mappings of the subpatchers \, it is displayed graphically to the right;
#P window linecount 3;
#P comment 229 43 320 9109513 the rightmost outlet of the jcom.oscroute object is connected to a subpatcher where the data not relevant for this part of this messages of the patcher is handled.;
#P window linecount 1;
#P comment 224 28 320 9109513 The mappings are arranged like this:;
#P window linecount 2;
#P comment 240 271 320 9109513 The messages are route according to the number of streams to be recorded.;
#P comment 240 238 320 9109513 The ftm.sdif.write needs different arguments according to the amount of streams and the stream ID.;
#P window linecount 1;
#N vpatcher 640 299 1240 699;
#P window setfont "Sans Serif" 9.;
#P window linecount 1;
#P newex 55 55 111 9109513 jcom.oscroute /0 /1 /2 /3;
#P window linecount 0;
#P newex 55 28 149 9109513 jcom.oscroute /stream_names;
#P newex 55 82 86 9109513 buddy 4;
#P outlet 55 366 15 0;
#P inlet 55 7 15 0;
#P window linecount 1;
#P newex 55 114 40 9109513 t b l b;
#P newex 457 332 81 9109513 prepend /script;
#P window setfont "Fixedwidth Serif" 10.;
#P message 85 138 154 9240586 script delete sdif_write;
#P window linecount 5;
#P message 55 214 380 9240586 script offsetfrom sdif_write tp 1 29 0 \, script connect jcom.oscroute_2 0 sdif_write 0 \, script connect jcom.oscroute_2 1 sdif_write 1 \, script connect jcom.oscroute_2 2 sdif_write 2 \, script connect jcom.oscroute_2 3 sdif_write 3 \, script connect jcom.oscroute_1 1 sdif_write 0 \, clean;
#P window setfont "Sans Serif" 9.;
#P window linecount 2;
#P newex 70 166 219 9109513 sprintf script new sdif_write newex 100 400 44 9109513 ftm.sdif.write %s 0 %s 1 %s 2 %s 3;
#P connect 5 0 8 0;
#P connect 8 0 9 0;
#P connect 9 0 7 0;
#P connect 7 0 4 0;
#P connect 4 0 1 0;
#P fasten 8 1 6 0 199 56 542 56 542 357 60 357;
#P fasten 3 0 6 0 462 357 60 357;
#P connect 4 1 0 0;
#P connect 9 1 7 1;
#P connect 4 2 2 0;
#P connect 9 2 7 2;
#P connect 9 3 7 3;
#P connect 7 1 0 1;
#P lcolor 1;
#P connect 7 2 0 2;
#P lcolor 1;
#P connect 7 3 0 3;
#P lcolor 1;
#P fasten 1 0 3 0 60 317 462 317;
#P fasten 2 0 3 0 90 159 462 159;
#P fasten 0 0 3 0 75 209 462 209;
#P pop;
#P newobj 256 156 67 9109513 p fourstreams;
#N vpatcher 77 464 789 681;
#P window setfont "Sans Serif" 9.;
#P window linecount 1;
#N vpatcher 15 55 575 343;
#P window setfont "Sans Serif" 9.;
#P window linecount 1;
#P newex 90 89 64 9109513 prepend open;
#P message 49 121 26 9109513 stop;
#P window linecount 0;
#P message 21 121 27 9109513 start;
#P window linecount 1;
#P newex 21 89 40 9109513 sel 1 0;
#P window linecount 0;
#P newex 21 162 99 9109513 prepend /write_control;
#P newex 21 61 149 9109513 jcom.oscroute /record_button /file;
#P outlet 21 219 15 0;
#P inlet 21 28 15 0;
#P connect 0 0 2 0;
#P connect 2 0 4 0;
#P connect 4 0 5 0;
#P fasten 6 0 3 0 54 149 26 149;
#P connect 5 0 3 0;
#P fasten 7 0 3 0 95 154 26 154;
#P fasten 2 2 1 0 164 198 26 198;
#P connect 3 0 1 0;
#P fasten 4 1 6 0 41 115 54 115;
#P connect 2 1 7 0;
#P pop;
#P newobj 541 87 119 9109513 p write_control_commands;
#N vpatcher 86 360 686 760;
#P window setfont "Sans Serif" 9.;
#P window linecount 1;
#P newex 78 217 75 9109513 route streamdef;
#P comment 39 175 117 9109513 argument: stream number;
#P newex 78 194 57 9109513 patcherargs;
#P newex 218 123 122 9109513 buddy 3;
#P newex 78 243 137 9109513 buddy;
#P newex 78 271 137 9109513 sprintf /stream_IDs/%ld %s;
#P window linecount 0;
#P newex 218 217 47 9109513 tosymbol;
#P newex 274 158 75 9109513 prepend symbol;
#P newex 218 57 178 9109513 jcom.oscroute /ID /variables /description;
#P newex 218 243 70 9109513 prepend define;
#P newex 274 85 47 9109513 tosymbol;
#P newex 218 188 237 9109513 sprintf "1MTD %s { %s } 1FTD %s { %s %s\\\\\\\; }";
#P newex 218 271 117 9109513 prepend /write_control;
#P inlet 218 35 15 0;
#P outlet 218 298 15 0;
#P comment 341 120 169 9109513 waiting for the full stream definition before sending the define message;
#P connect 13 0 15 0;
#P connect 15 0 11 0;
#P connect 11 0 10 0;
#P fasten 7 0 11 1 223 109 210 109;
#P connect 11 1 10 1;
#P connect 2 0 7 0;
#P connect 7 0 12 0;
#P connect 12 0 4 0;
#P connect 4 0 9 0;
#P connect 9 0 6 0;
#P connect 6 0 3 0;
#P fasten 10 0 1 0 83 294 223 294;
#P connect 3 0 1 0;
#P connect 7 1 5 0;
#P connect 5 0 12 1;
#P connect 12 1 8 0;
#P connect 8 0 4 1;
#P connect 7 2 12 2;
#P connect 7 0 4 2;
#P connect 7 0 4 3;
#P connect 12 2 4 4;
#P pop;
#P newobj 475 110 70 9109513 p streamdef 7;
#N vpatcher 86 360 686 760;
#P window setfont "Sans Serif" 9.;
#P window linecount 1;
#P newex 78 216 75 9109513 route streamdef;
#P comment 39 174 117 9109513 argument: stream number;
#P newex 78 193 57 9109513 patcherargs;
#P newex 218 123 122 9109513 buddy 3;
#P newex 78 243 137 9109513 buddy;
#P newex 78 271 137 9109513 sprintf /stream_IDs/%ld %s;
#P window linecount 0;
#P newex 218 217 47 9109513 tosymbol;
#P newex 274 158 75 9109513 prepend symbol;
#P newex 218 57 178 9109513 jcom.oscroute /ID /variables /description;
#P newex 218 243 70 9109513 prepend define;
#P newex 274 85 47 9109513 tosymbol;
#P newex 218 188 237 9109513 sprintf "1MTD %s { %s } 1FTD %s { %s %s\\\\\\\; }";
#P newex 218 271 117 9109513 prepend /write_control;
#P inlet 218 35 15 0;
#P outlet 218 298 15 0;
#P comment 341 120 169 9109513 waiting for the full stream definition before sending the define message;
#P connect 13 0 15 0;
#P connect 15 0 11 0;
#P connect 11 0 10 0;
#P fasten 7 0 11 1 223 109 210 109;
#P connect 11 1 10 1;
#P connect 2 0 7 0;
#P connect 7 0 12 0;
#P connect 12 0 4 0;
#P connect 4 0 9 0;
#P connect 9 0 6 0;
#P connect 6 0 3 0;
#P fasten 10 0 1 0 83 294 223 294;
#P connect 3 0 1 0;
#P connect 7 1 5 0;
#P connect 5 0 12 1;
#P connect 12 1 8 0;
#P connect 8 0 4 1;
#P connect 7 2 12 2;
#P connect 7 0 4 2;
#P connect 7 0 4 3;
#P connect 12 2 4 4;
#P pop;
#P newobj 409 87 67 9109513 p streamdef 6;
#N vpatcher 86 360 686 760;
#P window setfont "Sans Serif" 9.;
#P window linecount 1;
#P newex 78 216 75 9109513 route streamdef;
#P comment 39 174 117 9109513 argument: stream number;
#P newex 78 193 57 9109513 patcherargs;
#P newex 218 123 122 9109513 buddy 3;
#P newex 78 243 137 9109513 buddy;
#P newex 78 271 137 9109513 sprintf /stream_IDs/%ld %s;
#P window linecount 0;
#P newex 218 217 47 9109513 tosymbol;
#P newex 274 158 75 9109513 prepend symbol;
#P newex 218 57 178 9109513 jcom.oscroute /ID /variables /description;
#P newex 218 243 70 9109513 prepend define;
#P newex 274 85 47 9109513 tosymbol;
#P newex 218 188 237 9109513 sprintf "1MTD %s { %s } 1FTD %s { %s %s\\\\\\\; }";
#P newex 218 271 117 9109513 prepend /write_control;
#P inlet 218 35 15 0;
#P outlet 218 298 15 0;
#P comment 341 120 169 9109513 waiting for the full stream definition before sending the define message;
#P connect 13 0 15 0;
#P connect 15 0 11 0;
#P connect 11 0 10 0;
#P fasten 7 0 11 1 223 109 210 109;
#P connect 11 1 10 1;
#P connect 2 0 7 0;
#P connect 7 0 12 0;
#P connect 12 0 4 0;
#P connect 4 0 9 0;
#P connect 9 0 6 0;
#P connect 6 0 3 0;
#P fasten 10 0 1 0 83 294 223 294;
#P connect 3 0 1 0;
#P connect 7 1 5 0;
#P connect 5 0 12 1;
#P connect 12 1 8 0;
#P connect 8 0 4 1;
#P connect 7 2 12 2;
#P connect 7 0 4 2;
#P connect 7 0 4 3;
#P connect 12 2 4 4;
#P pop;
#P newobj 343 110 70 9109513 p streamdef 5;
#N vpatcher 86 360 686 760;
#P window setfont "Sans Serif" 9.;
#P window linecount 1;
#P newex 78 216 75 9109513 route streamdef;
#P comment 39 174 117 9109513 argument: stream number;
#P newex 78 193 57 9109513 patcherargs;
#P newex 218 123 122 9109513 buddy 3;
#P newex 78 243 137 9109513 buddy;
#P newex 78 271 137 9109513 sprintf /stream_IDs/%ld %s;
#P window linecount 0;
#P newex 218 217 47 9109513 tosymbol;
#P newex 274 158 75 9109513 prepend symbol;
#P newex 218 57 178 9109513 jcom.oscroute /ID /variables /description;
#P newex 218 243 70 9109513 prepend define;
#P newex 274 85 47 9109513 tosymbol;
#P newex 218 188 237 9109513 sprintf "1MTD %s { %s } 1FTD %s { %s %s\\\\\\\; }";
#P newex 218 271 117 9109513 prepend /write_control;
#P inlet 218 35 15 0;
#P outlet 218 298 15 0;
#P comment 341 120 169 9109513 waiting for the full stream definition before sending the define message;
#P connect 13 0 15 0;
#P connect 15 0 11 0;
#P connect 11 0 10 0;
#P fasten 7 0 11 1 223 109 210 109;
#P connect 11 1 10 1;
#P connect 2 0 7 0;
#P connect 7 0 12 0;
#P connect 12 0 4 0;
#P connect 4 0 9 0;
#P connect 9 0 6 0;
#P connect 6 0 3 0;
#P fasten 10 0 1 0 83 294 223 294;
#P connect 3 0 1 0;
#P connect 7 1 5 0;
#P connect 5 0 12 1;
#P connect 12 1 8 0;
#P connect 8 0 4 1;
#P connect 7 2 12 2;
#P connect 7 0 4 2;
#P connect 7 0 4 3;
#P connect 12 2 4 4;
#P pop;
#P newobj 277 87 70 9109513 p streamdef 4;
#N vpatcher 86 360 686 760;
#P window setfont "Sans Serif" 9.;
#P window linecount 1;
#P newex 78 221 75 9109513 route streamdef;
#P window linecount 2;
#P comment 39 181 107 9109513 argument: stream number;
#P window linecount 1;
#P newex 218 123 122 9109513 buddy 3;
#P newex 78 243 137 9109513 buddy;
#P newex 78 200 57 9109513 patcherargs;
#P newex 78 271 137 9109513 sprintf /stream_IDs/%ld %s;
#P window linecount 0;
#P newex 218 217 47 9109513 tosymbol;
#P newex 274 158 75 9109513 prepend symbol;
#P newex 218 57 178 9109513 jcom.oscroute /ID /variables /description;
#P newex 218 243 70 9109513 prepend define;
#P newex 274 85 47 9109513 tosymbol;
#P newex 218 188 237 9109513 sprintf "1MTD %s { %s } 1FTD %s { %s %s\\\\\\\; }";
#P newex 218 271 117 9109513 prepend /write_control;
#P inlet 218 35 15 0;
#P outlet 218 298 15 0;
#P comment 341 120 169 9109513 waiting for the full stream definition before sending the define message;
#P connect 11 0 15 0;
#P connect 15 0 12 0;
#P connect 12 0 10 0;
#P fasten 7 0 12 1 223 109 210 109;
#P connect 12 1 10 1;
#P connect 2 0 7 0;
#P connect 7 0 13 0;
#P connect 13 0 4 0;
#P connect 4 0 9 0;
#P connect 9 0 6 0;
#P connect 6 0 3 0;
#P fasten 10 0 1 0 83 294 223 294;
#P connect 3 0 1 0;
#P connect 7 1 5 0;
#P connect 5 0 13 1;
#P connect 13 1 8 0;
#P connect 8 0 4 1;
#P connect 7 2 13 2;
#P connect 7 0 4 2;
#P connect 7 0 4 3;
#P connect 13 2 4 4;
#P pop;
#P newobj 211 110 70 9109513 p streamdef 3;
#N vpatcher 86 360 686 760;
#P window setfont "Sans Serif" 9.;
#P window linecount 1;
#P newex 78 220 75 9109513 route streamdef;
#P comment 39 178 117 9109513 argument: stream number;
#P newex 218 123 122 9109513 buddy 3;
#P newex 78 243 137 9109513 buddy;
#P newex 78 197 57 9109513 patcherargs;
#P newex 78 271 137 9109513 sprintf /stream_IDs/%ld %s;
#P window linecount 0;
#P newex 218 217 47 9109513 tosymbol;
#P newex 274 158 75 9109513 prepend symbol;
#P newex 218 57 178 9109513 jcom.oscroute /ID /variables /description;
#P newex 218 243 70 9109513 prepend define;
#P newex 274 85 47 9109513 tosymbol;
#P newex 218 188 237 9109513 sprintf "1MTD %s { %s } 1FTD %s { %s %s\\\\\\\; }";
#P newex 218 271 117 9109513 prepend /write_control;
#P inlet 218 35 15 0;
#P outlet 218 298 15 0;
#P comment 341 120 169 9109513 waiting for the full stream definition before sending the define message;
#P connect 11 0 15 0;
#P connect 15 0 12 0;
#P connect 12 0 10 0;
#P fasten 7 0 12 1 223 109 210 109;
#P connect 12 1 10 1;
#P connect 2 0 7 0;
#P connect 7 0 13 0;
#P connect 13 0 4 0;
#P connect 4 0 9 0;
#P connect 9 0 6 0;
#P connect 6 0 3 0;
#P fasten 10 0 1 0 83 294 223 294;
#P connect 3 0 1 0;
#P connect 7 1 5 0;
#P connect 5 0 13 1;
#P connect 13 1 8 0;
#P connect 8 0 4 1;
#P connect 7 2 13 2;
#P connect 7 0 4 2;
#P connect 7 0 4 3;
#P connect 13 2 4 4;
#P pop;
#P newobj 145 87 70 9109513 p streamdef 2;
#N vpatcher 155 32 755 432;
#P window setfont "Sans Serif" 9.;
#P window linecount 1;
#P newex 78 213 75 9109513 route streamdef;
#P comment 43 169 118 9109513 argument: stream number;
#P newex 218 123 122 9109513 buddy 3;
#P newex 78 243 137 9109513 buddy;
#P newex 78 185 57 9109513 patcherargs;
#P newex 78 271 137 9109513 sprintf /stream_IDs/%ld %s;
#P window linecount 0;
#P newex 218 217 47 9109513 tosymbol;
#P newex 274 158 75 9109513 prepend symbol;
#P newex 218 57 178 9109513 jcom.oscroute /ID /variables /description;
#P newex 218 243 70 9109513 prepend define;
#P newex 274 85 47 9109513 tosymbol;
#P newex 218 188 237 9109513 sprintf "1MTD %s { %s } 1FTD %s { %s %s\\\\\\\; }";
#P newex 218 271 117 9109513 prepend /write_control;
#P inlet 218 35 15 0;
#P outlet 218 298 15 0;
#P comment 341 120 169 9109513 waiting for the full stream definition before sending the define message;
#P connect 11 0 15 0;
#P connect 15 0 12 0;
#P connect 12 0 10 0;
#P fasten 7 0 12 1 223 109 210 109;
#P connect 12 1 10 1;
#P connect 2 0 7 0;
#P connect 7 0 13 0;
#P connect 13 0 4 0;
#P connect 4 0 9 0;
#P connect 9 0 6 0;
#P connect 6 0 3 0;
#P fasten 10 0 1 0 83 294 223 294;
#P connect 3 0 1 0;
#P connect 7 1 5 0;
#P connect 5 0 13 1;
#P connect 13 1 8 0;
#P connect 8 0 4 1;
#P connect 7 2 13 2;
#P connect 7 0 4 2;
#P connect 7 0 4 3;
#P connect 13 2 4 4;
#P pop;
#P newobj 79 110 70 9109513 p streamdef 1;
#N vpatcher 51 399 651 799;
#P window setfont "Sans Serif" 9.;
#P newex 78 215 75 9109513 route streamdef;
#P window linecount 1;
#P comment 39 171 118 9109513 argument: stream number;
#P newex 218 123 122 9109513 buddy 3;
#P newex 78 243 137 9109513 buddy;
#P newex 78 190 57 9109513 patcherargs;
#P newex 78 271 137 9109513 sprintf /stream_IDs/%ld %s;
#P window linecount 0;
#P newex 218 217 47 9109513 tosymbol;
#P newex 274 158 75 9109513 prepend symbol;
#P newex 218 57 178 9109513 jcom.oscroute /ID /variables /description;
#P newex 218 243 70 9109513 prepend define;
#P newex 274 85 47 9109513 tosymbol;
#P newex 218 188 237 9109513 sprintf "1MTD %s { %s } 1FTD %s { %s %s\\\\\\\; }";
#P newex 218 271 117 9109513 prepend /write_control;
#P inlet 218 35 15 0;
#P outlet 218 298 15 0;
#P comment 341 120 169 9109513 waiting for the full stream definition before sending the define message;
#P connect 11 0 15 0;
#P connect 15 0 12 0;
#P connect 12 0 10 0;
#P fasten 7 0 12 1 223 109 210 109;
#P connect 12 1 10 1;
#P connect 2 0 7 0;
#P connect 7 0 13 0;
#P connect 13 0 4 0;
#P connect 4 0 9 0;
#P connect 9 0 6 0;
#P connect 6 0 3 0;
#P connect 3 0 1 0;
#P fasten 10 0 1 0 83 294 223 294;
#P connect 7 1 5 0;
#P connect 5 0 13 1;
#P connect 13 1 8 0;
#P connect 8 0 4 1;
#P connect 7 2 13 2;
#P connect 7 0 4 2;
#P connect 7 0 4 3;
#P connect 13 2 4 4;
#P pop;
#P newobj 13 87 70 9109513 p streamdef 0;
#P inlet 13 38 15 0;
#P outlet 13 173 15 0;
#P newex 13 60 540 9109513 jcom.oscroute /stream0 /stream1 /stream2 /stream3 /stream4 /stream5 /stream6 /stream7;
#P window linecount 3;
#P comment 33 155 181 9109513 A message generating stream definitions for the ftm.sdif.write object is generated inside the streamdef subpatchers;
#P connect 3 0 1 0;
#P connect 1 0 4 0;
#P fasten 12 0 2 0 546 146 18 146;
#P fasten 4 0 2 0 18 146 18 146;
#P fasten 5 0 2 0 84 146 18 146;
#P fasten 6 0 2 0 150 146 18 146;
#P fasten 7 0 2 0 216 146 18 146;
#P fasten 8 0 2 0 282 146 18 146;
#P fasten 9 0 2 0 348 146 18 146;
#P fasten 10 0 2 0 414 146 18 146;
#P fasten 11 0 2 0 480 146 18 146;
#P connect 1 1 5 0;
#P connect 1 2 6 0;
#P connect 1 3 7 0;
#P connect 1 4 8 0;
#P connect 1 5 9 0;
#P connect 1 6 10 0;
#P connect 1 7 11 0;
#P connect 1 8 12 0;
#P pop;
#P newobj 142 86 59 9109513 p definitions;
#N vpatcher 640 299 1240 699;
#P window setfont "Sans Serif" 9.;
#P window linecount 0;
#P newex 55 107 71 9109513 buddy 3;
#P newex 55 55 149 9109513 jcom.oscroute /stream_names;
#P newex 55 80 100 9109513 jcom.oscroute /0 /1 /2;
#P outlet 55 339 15 0;
#P inlet 55 34 15 0;
#P window linecount 1;
#P newex 55 132 40 9109513 t b l b;
#P newex 457 305 81 9109513 prepend /script;
#P window setfont "Fixedwidth Serif" 10.;
#P message 85 156 154 9240586 script delete sdif_write;
#P window linecount 4;
#P message 55 232 380 9240586 script offsetfrom sdif_write tp 1 29 0 \, script connect jcom.oscroute_2 0 sdif_write 0 \, script connect jcom.oscroute_2 1 sdif_write 1 \, script connect jcom.oscroute_2 2 sdif_write 2 \, script connect jcom.oscroute_1 1 sdif_write 0 \, clean;
#P window setfont "Sans Serif" 9.;
#P window linecount 1;
#P newex 70 184 370 9109513 sprintf script new sdif_write newex 100 400 44 9109513 ftm.sdif.write %s 0 %s 1 %s 2;
#P connect 5 0 8 0;
#P connect 8 0 7 0;
#P connect 7 0 9 0;
#P connect 9 0 4 0;
#P connect 4 0 1 0;
#P fasten 3 0 6 0 462 330 60 330;
#P fasten 8 1 6 0 199 93 542 93 542 330 60 330;
#P connect 4 1 0 0;
#P connect 7 1 9 1;
#P connect 4 2 2 0;
#P connect 7 2 9 2;
#P fasten 9 1 0 1 90 130 255 130;
#P lcolor 1;
#P fasten 9 2 0 2 120 128 435 128;
#P lcolor 1;
#P fasten 2 0 3 0 90 177 462 177;
#P fasten 1 0 3 0 60 295 462 295;
#P fasten 0 0 3 0 75 227 462 227;
#P pop;
#P newobj 175 156 79 9109513 p threestreams;
#P newex 13 123 580 9109513 gate 8 1;
#N vpatcher 293 275 893 675;
#P window setfont "Sans Serif" 9.;
#P window linecount 1;
#P newex 55 101 49 9109513 buddy 2;
#P newex 55 48 122 9109513 jcom.oscroute /stream_IDs;
#P window linecount 0;
#P newex 55 73 89 9109513 jcom.oscroute /0 /1;
#P outlet 55 321 15 0;
#P inlet 55 27 15 0;
#P window linecount 1;
#P newex 55 129 40 9109513 t b l b;
#P newex 457 287 81 9109513 prepend /script;
#P window setfont "Fixedwidth Serif" 10.;
#P message 85 153 154 9240586 script delete sdif_write;
#P window linecount 3;
#P message 55 229 406 9240586 script offsetfrom sdif_write tp 1 29 0 \, script connect jcom.oscroute_2 0 sdif_write 0 \, script connect jcom.oscroute_2 1 sdif_write 1 \, script connect jcom.oscroute_1 1 sdif_write 0 \, clean;
#P window setfont "Sans Serif" 9.;
#P window linecount 2;
#P newex 70 181 321 9109513 sprintf script new sdif_write newex 100 400 44 9109513 ftm.sdif.write %s 0 %s 1;
#P connect 5 0 8 0;
#P connect 8 0 7 0;
#P connect 7 0 9 0;
#P connect 9 0 4 0;
#P connect 4 0 1 0;
#P fasten 3 0 6 0 462 312 60 312;
#P fasten 8 1 6 0 172 70 542 70 542 312 60 312;
#P connect 4 1 0 0;
#P connect 4 2 2 0;
#P connect 7 1 9 1;
#P connect 9 1 0 1;
#P fasten 0 0 3 0 75 222 462 222;
#P fasten 1 0 3 0 60 277 462 277;
#P fasten 2 0 3 0 90 174 462 174;
#P pop;
#P newobj 94 156 72 9109513 p twostreams;
#P newex 13 197 108 9109513 dynamic_patcher.mxt;
#N vpatcher 404 47 1004 447;
#P window setfont "Sans Serif" 9.;
#P window linecount 0;
#P newex 55 95 78 9109513 jcom.oscroute /0;
#P newex 55 71 122 9109513 jcom.oscroute /stream_IDs;
#P outlet 55 308 15 0;
#P newex 55 129 40 9109513 t b l b;
#P newex 442 274 81 9109513 prepend /script;
#P window setfont "Fixedwidth Serif" 10.;
#P message 85 153 154 9240586 script delete sdif_write;
#P window linecount 3;
#P message 55 215 286 9240586 script offsetfrom sdif_write tp 1 29 0 \, script connect jcom.oscroute_2 0 sdif_write 0 \, script connect jcom.oscroute_1 1 sdif_write 0 \, clean;
#P inlet 55 44 15 0;
#P window setfont "Sans Serif" 9.;
#P window linecount 1;
#P newex 70 181 370 9109513 sprintf script new sdif_write newex 100 400 44 9109513 ftm.sdif.write %s 0;
#P connect 1 0 7 0;
#P connect 7 0 8 0;
#P connect 8 0 5 0;
#P connect 5 0 2 0;
#P fasten 7 1 6 0 172 125 532 125 532 297 60 297;
#P fasten 4 0 6 0 447 297 60 297;
#P connect 5 1 0 0;
#P connect 5 2 3 0;
#P fasten 0 0 4 0 75 208 447 208;
#P fasten 3 0 4 0 90 174 447 174;
#P fasten 2 0 4 0 60 264 447 264;
#P pop;
#P newobj 13 156 65 9109513 p onestream;
#P newex 13 57 139 9109513 jcom.oscroute /streamcount;
#P inlet 13 23 15 0;
#P objectname inlet;
#P comment 240 224 320 9109513 An ftm.sdif.write object is generated within the dynamic_patcher.mxt.;
#P user panel 707 45 87 31;
#X brgb 173 173 173;
#X frgb 0 0 0;
#X border 0;
#X rounded 0;
#X shadow 0;
#X done;
#N vpatcher 15 55 615 455;
#P outlet 186 92 15 0;
#P outlet 122 100 15 0;
#P inlet 123 48 15 0;
#P pop;
#P newobj 776 95 73 9109513 p foo;
#N vpatcher 15 55 615 455;
#P outlet 186 92 15 0;
#P outlet 122 100 15 0;
#P inlet 123 48 15 0;
#P pop;
#P newobj 709 55 77 9109513 p foo;
#P comment 709 205 144 9109513 mappings;
#P user panel 708 203 102 19;
#X brgb 173 173 173;
#X frgb 0 0 0;
#X border 0;
#X rounded 0;
#X shadow 0;
#X done;
#N vpatcher 15 55 615 455;
#P outlet 186 92 15 0;
#P outlet 122 100 15 0;
#P inlet 123 48 15 0;
#P pop;
#P newobj 709 203 77 9109513 p foo;
#P comment 805 145 121 9109513 p write_control commands;
#P user panel 801 142 127 21;
#X brgb 173 173 173;
#X frgb 0 0 0;
#X border 0;
#X rounded 0;
#X shadow 0;
#X done;
#N vpatcher 15 55 615 455;
#P outlet 186 92 15 0;
#P outlet 122 100 15 0;
#P inlet 123 48 15 0;
#P pop;
#P newobj 801 143 124 9109513 p foo;
#P connect 10 0 11 0;
#P connect 11 0 15 0;
#P connect 15 0 12 0;
#P fasten 32 0 13 0 504 187 18 187;
#P fasten 31 0 13 0 423 187 18 187;
#P fasten 30 0 13 0 342 187 18 187;
#P fasten 33 0 13 0 585 187 18 187;
#P fasten 18 0 13 0 261 187 18 187;
#P fasten 16 0 13 0 180 187 18 187;
#P connect 12 0 13 0;
#P fasten 14 0 13 0 99 187 18 187;
#P connect 15 1 14 0;
#P connect 11 1 17 0;
#P connect 15 2 16 0;
#P connect 15 3 18 0;
#P connect 15 4 30 0;
#P connect 15 5 31 0;
#P connect 15 6 32 0;
#P connect 15 7 33 0;
#P fasten 17 0 15 1 147 114 588 114;
#P connect 0 1 4 0;
#P connect 0 0 3 0;
#P connect 7 0 3 0;
#P connect 3 0 28 0;
#P connect 6 1 7 0;
#P fasten 7 1 0 0 844 129 806 129;
#P pop;
