max v2;
#N vpatcher 20 35 1421 828;
#P origin -97 -505;
#P window setfont "Sans Serif" 9.;
#P window linecount 1;
#P newex 914 651 360 9109513 jcom.message file @type msg_symbol @description "full path of sdif file to record";
#P objectname jalg.sdif.player[5];
#P user textedit 158 158 378 176 98316 139 9;
#P comment 64 159 47 9109513 Stream 7;
#B frgb 181 181 181;
#P user textedit 110 158 147 176 98308 139 9;
#P user textedit 381 158 504 176 98308 139 9;
#P user textedit 158 141 378 159 98316 139 9;
#P comment 64 142 47 9109513 Stream 6;
#B frgb 181 181 181;
#P user textedit 110 141 147 159 98308 139 9;
#P user textedit 381 141 504 159 98308 139 9;
#P user textedit 158 124 378 142 98316 139 9;
#P comment 64 125 47 9109513 Stream 5;
#B frgb 181 181 181;
#P user textedit 110 124 147 142 98308 139 9;
#P user textedit 381 124 504 142 98308 139 9;
#P user textedit 158 107 378 125 98316 139 9;
#P comment 64 108 47 9109513 Stream 4;
#B frgb 181 181 181;
#P user textedit 110 107 147 125 98308 139 9;
#P user textedit 381 107 504 125 98308 139 9;
#P window setfont "Sans Serif" 14.;
#P comment 245 620 238 9109518 Still to be implemented:;
#P comment 6 533 238 9109518 For testing purposes:;
#P window setfont "Sans Serif" 9.;
#P window linecount 4;
#P comment 3 80 50 9109513 (must be set before defining streams);
#B frgb 181 181 181;
#P window linecount 1;
#P newex 914 741 87 9109513 pvar record_button;
#P newex 914 764 364 9109513 jcom.parameter record_button @type msg_toggle @description "Start/Stop recording";
#P objectname record_button[1];
#P newex 1121 489 48 9109513 route text;
#P window linecount 2;
#P newex 1170 475 242 9109513 jcom.message stream3/description @type msg_symbol @description "one word stream description";
#P objectname jalg.sdif.player[1];
#P newex 1121 509 235 9109513 jcom.message stream3/variables @type msg_symbol @description "Martix row variables. separated by \\\\\\\,";
#P objectname jalg.sdif.player[2];
#P newex 1072 543 264 9109513 jcom.message stream3/ID @type msg_symbol @description "4 letter frame/matrix identificator. e.g. 1MID or XPOS";
#P objectname jalg.sdif.player[4];
#P newex 1170 344 242 9109513 jcom.message stream2/description @type msg_symbol @description "one word stream description";
#P objectname jalg.sdif.player[11];
#P newex 1121 378 235 9109513 jcom.message stream2/variables @type msg_symbol @description "Martix row variables. separated by \\\\\\\,";
#P objectname jalg.sdif.player[12];
#P newex 1072 412 264 9109513 jcom.message stream2/ID @type msg_symbol @description "4 letter frame/matrix identificator. e.g. 1MID or XPOS";
#P objectname jalg.sdif.player[13];
#P window linecount 1;
#P newex 1072 523 48 9109513 route text;
#P newex 1170 455 48 9109513 route text;
#P newex 1121 358 48 9109513 route text;
#P newex 1072 392 48 9109513 route text;
#P newex 1170 324 48 9109513 route text;
#P comment 514 31 199 9109513 variable names must be seperaed by \\\\\\\,;
#P number 3 64 17 9 1 0 8225 139 149 149 149 221 221 221 222 222 222 0 0 0;
#P objectname streamcount;
#P newex 914 685 82 9109513 pvar streamcount;
#P window linecount 3;
#P comment 3 22 60 9109513 Number of streams to record:;
#B frgb 181 181 181;
#P window linecount 1;
#P newex 914 710 406 9109513 jcom.parameter streamcount @type msg_int @description "Number of streams to be recorded";
#P objectname streamcount[1];
#P newex 1121 225 48 9109513 route text;
#P window linecount 2;
#P newex 1170 211 242 9109513 jcom.message stream1/description @type msg_symbol @description "one word stream description";
#P objectname jalg.sdif.player[8];
#P newex 1121 245 235 9109513 jcom.message stream1/variables @type msg_symbol @description "Martix row variables. separated by \\\\\\\,";
#P objectname jalg.sdif.player[9];
#P newex 1072 279 264 9109513 jcom.message stream1/ID @type msg_symbol @description "4 letter frame/matrix identificator. e.g. 1MID or XPOS";
#P objectname jalg.sdif.player[10];
#P window setfont "Sans Serif" 10.;
#P window linecount 1;
#P message 278 740 105 9109514 set c:/lala1.sdif \, print;
#P window setfont "Sans Serif" 9.;
#N ftm.sdif.info --> 0;
#T _#ftm version 2 2;
#T _#scope begin;
#T _#absargs $0_ $1_ $2_ $3_ $4_ $5_ $6_ $7_ $8_ $9_;
#P newobj 278 765 61 9109513 ftm.sdif.info;
#P window linecount 2;
#P newex 1170 77 242 9109513 jcom.message stream0/description @type msg_symbol @description "one word stream description";
#P objectname jalg.sdif.player[7];
#P newex 1121 111 235 9109513 jcom.message stream0/variables @type msg_symbol @description "Martix row variables. separated by \\\\\\\,";
#P objectname jalg.sdif.player[6];
#P newex 1072 145 264 9109513 jcom.message stream0/ID @type msg_symbol @description "4 letter frame/matrix identificator. e.g. 1MID or XPOS";
#P objectname jalg.sdif.player[3];
#P window linecount 1;
#P newex 1072 259 48 9109513 route text;
#P newex 1170 191 48 9109513 route text;
#P newex 1121 91 48 9109513 route text;
#P user textedit 158 90 378 108 98316 139 9;
#P comment 64 91 47 9109513 Stream 3;
#B frgb 181 181 181;
#P user textedit 110 90 147 108 98308 139 9;
#P user textedit 381 90 504 108 98308 139 9;
#P user textedit 158 73 378 91 98316 139 9;
#P comment 64 74 47 9109513 Stream 2;
#B frgb 181 181 181;
#P user textedit 110 73 147 91 98308 139 9;
#P user textedit 381 73 504 91 98308 139 9;
#P user textedit 158 56 378 74 98316 139 9;
#P comment 64 57 47 9109513 Stream 1;
#B frgb 181 181 181;
#P user textedit 110 56 147 74 98308 139 9;
#P user textedit 381 56 504 74 98308 139 9;
#P newex 1072 125 48 9109513 route text;
#P newex 1170 57 48 9109513 route text;
#P comment 381 27 88 9109513 Frame description;
#B frgb 181 181 181;
#P user textedit 158 39 378 57 98316 139 9;
#P comment 158 27 71 9109513 Variable names;
#B frgb 181 181 181;
#P comment 64 40 47 9109513 Stream 0;
#B frgb 181 181 181;
#P toggle 121 596 15 0;
#N vpatcher 10 59 610 459;
#P window setfont "Sans Serif" 9.;
#P window linecount 1;
#P newex 115 231 163 9109513 pack 0. 0. 0. 0. 0. 0.;
#P newex 293 196 29 9109513 * 1.;
#P newex 293 174 35 9109513 * 0.1;
#P newex 251 174 41 9109513 * 0.01;
#P newex 217 174 33 9109513 - 49.;
#P newex 175 174 41 9109513 * 0.34;
#P newex 145 174 27 9109513 - 1.;
#P newex 115 146 64 9109513 random 100;
#P window linecount 0;
#P newex 115 114 58 9109513 metro 100;
#P outlet 115 269 15 0;
#P inlet 115 62 15 0;
#P comment 227 105 100 9109513 just silly random data....;
#P connect 1 0 3 0;
#P connect 3 0 4 0;
#P fasten 4 0 11 0 120 197 120 197;
#P connect 11 0 2 0;
#P fasten 4 0 5 0 120 168 150 168;
#P connect 5 0 11 1;
#P fasten 4 0 6 0 120 168 180 168;
#P connect 6 0 11 2;
#P fasten 7 0 11 3 222 211 210 211;
#P fasten 4 0 7 0 120 168 222 168;
#P fasten 8 0 11 4 256 211 240 211;
#P fasten 4 0 8 0 120 168 256 168;
#P fasten 10 0 11 5 298 222 270 222;
#P fasten 4 0 9 0 120 168 298 168;
#P connect 9 0 10 0;
#P fasten 9 0 10 1 298 193 317 193;
#P pop;
#P newobj 121 615 76 9109513 p random_data;
#P newex 121 714 85 9109513 prepend /data/1;
#P newex 121 639 80 9109513 prepend set 0 0;
#P newex 121 663 27 9109513 t b l;
#P user ftm.object 121 690 51 18 139 9 --> 0;
#T _#obj 1 fmat;
#T _#def 0 "_fmat 2 3" stream1 local;
#P toggle 14 599 15 0;
#N vpatcher 130 531 730 931;
#P window setfont "Sans Serif" 9.;
#P window linecount 1;
#P newex 115 231 163 9109513 pack 0. 0. 0. 0. 0. 0.;
#P newex 293 196 29 9109513 * 1.;
#P newex 293 174 35 9109513 * 0.1;
#P newex 251 174 41 9109513 * 0.01;
#P newex 217 174 33 9109513 - 49.;
#P newex 175 174 41 9109513 * 0.34;
#P newex 145 174 27 9109513 - 1.;
#P newex 115 146 64 9109513 random 100;
#P window linecount 0;
#P newex 115 114 58 9109513 metro 100;
#P outlet 115 269 15 0;
#P inlet 115 62 15 0;
#P comment 227 105 100 9109513 just silly random data....;
#P connect 1 0 3 0;
#P connect 3 0 4 0;
#P fasten 4 0 11 0 120 197 120 197;
#P connect 11 0 2 0;
#P fasten 4 0 5 0 120 168 150 168;
#P connect 5 0 11 1;
#P fasten 4 0 6 0 120 168 180 168;
#P connect 6 0 11 2;
#P fasten 7 0 11 3 222 211 210 211;
#P fasten 4 0 7 0 120 168 222 168;
#P fasten 8 0 11 4 256 211 240 211;
#P fasten 4 0 8 0 120 168 256 168;
#P fasten 10 0 11 5 298 222 270 222;
#P fasten 4 0 9 0 120 168 298 168;
#P connect 9 0 10 0;
#P fasten 9 0 10 1 298 193 317 193;
#P pop;
#P newobj 14 618 76 9109513 p random_data;
#P newex 296 706 117 9109513 prepend /write_control;
#P comment 42 763 110 9109513 3. Open an SDIF file;
#P newex 14 716 85 9109513 prepend /data/0;
#P newex 14 641 80 9109513 prepend set 0 0;
#P comment 303 650 82 9109513 5. define NVT's;
#P window linecount 2;
#P comment 9 562 178 9109513 Randomly generated data for the two first streams (three columns):;
#P window linecount 1;
#P newex 14 665 27 9109513 t b l;
#P user ftm.object 14 692 51 18 139 9 --> 0;
#T _#obj 2 fmat;
#T _#def 0 "_fmat 2 3" stream0 local;
#P user ftm.object 296 665 30 18 139 9 --> 0;
#T _#obj 3 dict;
#T _#mess 3 set _table_name _jmod.sdif.record;
#T _#mess 3 set _Jamoma _test;
#T _#def 1 _dict test_nvt local;
#P user ftm.mess 296 687 67 15 139 9 255 255 255 0 0 0 1 2 0 0 --> 0;
#T _#line "_nvt $test_nvt";
#T _#scope end;
#P window setfont "Sans Serif" 10.;
#P message 52 777 85 9109514 /file C:/lala1.sdif;
#P user panel 35 755 125 24;
#X brgb 244 231 185;
#X frgb 0 0 0;
#X border 0;
#X rounded 0;
#X shadow 0;
#X done;
#P user panel 288 647 106 19;
#X brgb 244 231 185;
#X frgb 0 0 0;
#X border 0;
#X rounded 0;
#X shadow 0;
#X done;
#P user panel 6 559 200 35;
#X brgb 244 231 185;
#X frgb 0 0 0;
#X border 0;
#X rounded 0;
#X shadow 0;
#X done;
#P user panel 0 556 224 192;
#X brgb 165 169 216;
#X frgb 0 0 0;
#X border 0;
#X rounded 0;
#X shadow 0;
#X done;
#P user panel 274 641 168 84;
#X brgb 165 169 216;
#X frgb 0 0 0;
#X border 0;
#X rounded 0;
#X shadow 0;
#X done;
#P user panel 1 750 201 51;
#X brgb 165 169 216;
#X frgb 0 0 0;
#X border 0;
#X rounded 0;
#X shadow 0;
#X done;
#P window setfont "Sans Serif" 9.;
#P user textedit 110 39 147 57 98308 139 9;
#P message 67 230 191 9109513 /preset/store 1 default \, /preset/write;
#B color 3;
#P window linecount 2;
#P message 281 365 75 9109513 \; jcom.init bang;
#P window linecount 1;
#P message 147 423 243 9109513 /stream1/description;
#P newex 147 402 62 9109513 prepend set;
#P message 94 248 125 9109513 /documentation/generate;
#P comment 110 27 47 9109513 ID;
#B frgb 181 181 181;
#P user jsui 10 157 45 19 3 0 0 jcom.jsui_texttoggle.js Record Record 68 68 68 225 225 225 40 255 40 0 0 0;
#P objectname record_button;
#P newex 64 351 43 9109513 jcom.in;
#P newex 64 399 45 9109513 pcontrol;
#P newex 64 375 78 9109513 jcom.pass open;
#P window linecount 2;
#P message 211 365 65 9109513 \; max refresh;
#P window linecount 1;
#P message 220 248 31 9109513 /init;
#P newex 64 452 70 9109513 jalg.sdif.record;
#P objectname jalg.sdif.player;
#P window linecount 2;
#P newex 31 273 229 9109513 jcom.hub jmod.sdif.record @size 3U @module_type control @description "Single stream SDIF file player";
#P objectname jcom.hub;
#P inlet 31 249 13 0;
#P outlet 31 475 13 0;
#P user textedit 381 39 504 57 98308 139 9;
#P user panel 63 26 446 154;
#X brgb 20 20 20;
#X frgb 0 0 0;
#X border 0;
#X rounded 0;
#X shadow 0;
#X done;
#P bpatcher 1 1 511 181 0 0 jcom.gui.mxt 0 $0_;
#P objectname jcom.gui.audio-component.mxt;
#P user panel 268 728 168 84;
#X brgb 165 169 216;
#X frgb 0 0 0;
#X border 0;
#X rounded 0;
#X shadow 0;
#X done;
#P connect 39 0 38 0;
#P connect 38 0 34 0;
#P connect 34 0 31 0;
#P connect 31 1 30 0;
#P connect 31 0 30 0;
#P connect 30 0 35 0;
#P connect 19 0 6 0;
#P connect 15 0 6 0;
#P fasten 8 0 6 0 225 269 36 269;
#P connect 5 0 6 0;
#P connect 6 0 4 0;
#P connect 12 0 10 0;
#P connect 10 0 11 0;
#P fasten 10 1 7 0 137 438 69 438;
#P connect 43 0 7 0;
#P connect 35 0 7 0;
#P connect 37 0 7 0;
#P connect 11 0 7 0;
#P connect 27 0 7 0;
#P connect 45 0 44 0;
#P connect 44 0 42 0;
#P connect 42 0 41 0;
#P connect 41 0 40 0;
#P connect 41 1 40 0;
#P connect 40 0 43 0;
#P fasten 10 1 16 0 137 399 152 399;
#P connect 16 0 17 0;
#P connect 71 0 70 0;
#P connect 28 0 37 0;
#P fasten 76 0 78 0 919 734 910 734 910 678 919 678;
#P connect 78 0 76 0;
#P fasten 93 0 94 0 919 789 910 789 910 736 919 736;
#P connect 94 0 93 0;
#P fasten 20 0 51 0 115 57 1077 57;
#P connect 51 0 67 0;
#P fasten 53 0 66 0 115 73 1063 73 1063 190 1077 190;
#P connect 66 0 72 0;
#P fasten 57 0 82 0 115 90 1053 90 1053 324 1077 324;
#P connect 82 0 86 0;
#P fasten 61 0 85 0 115 108 1043 108 1043 455 1077 455;
#P connect 85 0 89 0;
#P fasten 48 0 64 0 163 56 1126 56;
#P connect 64 0 68 0;
#P fasten 55 0 75 0 163 72 1064 72 1064 190 1126 190;
#P connect 75 0 73 0;
#P fasten 59 0 83 0 163 89 1054 89 1054 323 1126 323;
#P connect 83 0 87 0;
#P fasten 63 0 92 0 163 107 1044 107 1044 454 1126 454;
#P connect 92 0 90 0;
#P fasten 3 0 50 0 386 55 1175 55;
#P connect 50 0 69 0;
#P fasten 52 0 65 0 386 71 1065 71 1065 189 1175 189;
#P connect 65 0 74 0;
#P fasten 56 0 81 0 386 88 1055 88 1055 322 1175 322;
#P connect 81 0 88 0;
#P fasten 60 0 84 0 386 106 1045 106 1045 453 1175 453;
#P connect 84 0 91 0;
#P pop;
