max v2;
#N vpatcher 8 23 1395 830;
#P origin -106 -554;
#P window setfont "Sans Serif" 9.;
#P window linecount 1;
#P hidden newex 725 573 48 9109513 route text;
#P window linecount 2;
#P hidden newex 774 559 242 9109513 jcom.message stream7/description @type msg_symbol @description "one word stream description";
#P objectname jalg.sdif.player[14];
#P hidden newex 725 593 235 9109513 jcom.message stream7/variables @type msg_symbol @description "Martix row variables. separated by \\\\\\\,";
#P objectname jalg.sdif.player[15];
#P hidden newex 676 627 264 9109513 jcom.message stream7/ID @type msg_symbol @description "4 letter frame/matrix identificator. e.g. 1MID or XPOS";
#P objectname jalg.sdif.player[16];
#P hidden newex 774 428 242 9109513 jcom.message stream6/description @type msg_symbol @description "one word stream description";
#P objectname jalg.sdif.player[17];
#P hidden newex 725 462 235 9109513 jcom.message stream6/variables @type msg_symbol @description "Martix row variables. separated by \\\\\\\,";
#P objectname jalg.sdif.player[18];
#P hidden newex 676 496 264 9109513 jcom.message stream6/ID @type msg_symbol @description "4 letter frame/matrix identificator. e.g. 1MID or XPOS";
#P objectname jalg.sdif.player[19];
#P window linecount 1;
#P hidden newex 676 607 48 9109513 route text;
#P hidden newex 774 539 48 9109513 route text;
#P hidden newex 725 442 48 9109513 route text;
#P hidden newex 676 476 48 9109513 route text;
#P hidden newex 774 408 48 9109513 route text;
#P hidden newex 725 309 48 9109513 route text;
#P window linecount 2;
#P hidden newex 774 295 242 9109513 jcom.message stream5/description @type msg_symbol @description "one word stream description";
#P objectname jalg.sdif.player[20];
#P hidden newex 725 329 235 9109513 jcom.message stream5/variables @type msg_symbol @description "Martix row variables. separated by \\\\\\\,";
#P objectname jalg.sdif.player[21];
#P hidden newex 676 363 264 9109513 jcom.message stream5/ID @type msg_symbol @description "4 letter frame/matrix identificator. e.g. 1MID or XPOS";
#P objectname jalg.sdif.player[22];
#P hidden newex 774 161 242 9109513 jcom.message stream4/description @type msg_symbol @description "one word stream description";
#P objectname jalg.sdif.player[23];
#P hidden newex 725 195 235 9109513 jcom.message stream4/variables @type msg_symbol @description "Martix row variables. separated by \\\\\\\,";
#P objectname jalg.sdif.player[24];
#P hidden newex 676 229 264 9109513 jcom.message stream4/ID @type msg_symbol @description "4 letter frame/matrix identificator. e.g. 1MID or XPOS";
#P objectname jalg.sdif.player[25];
#P window linecount 1;
#P hidden newex 676 343 48 9109513 route text;
#P hidden newex 774 275 48 9109513 route text;
#P hidden newex 725 175 48 9109513 route text;
#P hidden newex 676 209 48 9109513 route text;
#P hidden newex 774 141 48 9109513 route text;
#N comlet data input to be recorded;
#P hidden inlet 393 219 13 0;
#P hidden newex 521 733 360 9109513 jcom.message file @type msg_symbol @description "full path of sdif file to record";
#P objectname jalg.sdif.player[5];
#P user textedit 158 155 378 173 98316 139 9;
#P comment 64 156 47 9109513 Stream 7;
#B frgb 181 181 181;
#P user textedit 110 155 147 173 98308 139 9;
#P user textedit 381 155 504 173 98308 139 9;
#P user textedit 158 138 378 156 98316 139 9;
#P comment 64 139 47 9109513 Stream 6;
#B frgb 181 181 181;
#P user textedit 110 138 147 156 98308 139 9;
#P user textedit 381 138 504 156 98308 139 9;
#P user textedit 158 121 378 139 98316 139 9;
#P comment 64 122 47 9109513 Stream 5;
#B frgb 181 181 181;
#P user textedit 110 121 147 139 98308 139 9;
#P user textedit 381 121 504 139 98308 139 9;
#P user textedit 158 104 378 122 98316 139 9;
#P comment 64 105 47 9109513 Stream 4;
#B frgb 181 181 181;
#P user textedit 110 104 147 122 98308 139 9;
#P user textedit 381 104 504 122 98308 139 9;
#P window setfont "Sans Serif" 14.;
#P hidden comment 267 593 238 9109518 Still to be implemented:;
#P hidden comment 24 505 238 9109518 For testing purposes:;
#P window setfont "Sans Serif" 9.;
#P window linecount 4;
#P comment 3 77 50 9109513 (must be set before defining streams);
#B frgb 181 181 181;
#P window linecount 1;
#P hidden newex 908 750 87 9109513 pvar record_button;
#P hidden newex 908 773 364 9109513 jcom.parameter record_button @type msg_toggle @description "Start/Stop recording";
#P objectname record_button[1];
#P hidden newex 1121 486 48 9109513 route text;
#P window linecount 2;
#P hidden newex 1170 472 242 9109513 jcom.message stream3/description @type msg_symbol @description "one word stream description";
#P objectname jalg.sdif.player[1];
#P hidden newex 1121 506 235 9109513 jcom.message stream3/variables @type msg_symbol @description "Martix row variables. separated by \\\\\\\,";
#P objectname jalg.sdif.player[2];
#P hidden newex 1072 540 264 9109513 jcom.message stream3/ID @type msg_symbol @description "4 letter frame/matrix identificator. e.g. 1MID or XPOS";
#P objectname jalg.sdif.player[4];
#P hidden newex 1170 341 242 9109513 jcom.message stream2/description @type msg_symbol @description "one word stream description";
#P objectname jalg.sdif.player[11];
#P hidden newex 1121 375 235 9109513 jcom.message stream2/variables @type msg_symbol @description "Martix row variables. separated by \\\\\\\,";
#P objectname jalg.sdif.player[12];
#P hidden newex 1072 409 264 9109513 jcom.message stream2/ID @type msg_symbol @description "4 letter frame/matrix identificator. e.g. 1MID or XPOS";
#P objectname jalg.sdif.player[13];
#P window linecount 1;
#P hidden newex 1072 520 48 9109513 route text;
#P hidden newex 1170 452 48 9109513 route text;
#P hidden newex 1121 355 48 9109513 route text;
#P hidden newex 1072 389 48 9109513 route text;
#P hidden newex 1170 321 48 9109513 route text;
#P hidden comment 513 21 199 9109513 variable names must be seperaed by \\\\\\\,;
#P number 3 61 17 9 1 8 8227 139 149 149 149 221 221 221 222 222 222 0 0 0;
#P objectname streamcount;
#P hidden newex 908 678 82 9109513 pvar streamcount;
#P window linecount 3;
#P comment 3 19 60 9109513 Number of streams to record:;
#B frgb 181 181 181;
#P window linecount 2;
#P hidden newex 908 703 303 9109513 jcom.parameter streamcount @range 1 8 @clipmode both @type msg_int @description "Number of streams to be recorded";
#P objectname streamcount[1];
#P window linecount 1;
#P hidden newex 1121 222 48 9109513 route text;
#P window linecount 2;
#P hidden newex 1170 208 242 9109513 jcom.message stream1/description @type msg_symbol @description "one word stream description";
#P objectname jalg.sdif.player[8];
#P hidden newex 1121 242 235 9109513 jcom.message stream1/variables @type msg_symbol @description "Martix row variables. separated by \\\\\\\,";
#P objectname jalg.sdif.player[9];
#P hidden newex 1072 276 264 9109513 jcom.message stream1/ID @type msg_symbol @description "4 letter frame/matrix identificator. e.g. 1MID or XPOS";
#P objectname jalg.sdif.player[10];
#P window setfont "Sans Serif" 10.;
#P window linecount 1;
#P hidden message 300 713 105 9109514 set c:/lala1.sdif \, print;
#P window setfont "Sans Serif" 9.;
#N ftm.sdif.info --> 0;
#T _#ftm version 2 3;
#T _#scope begin;
#T _#absargs $0_ $1_ $2_ $3_ $4_ $5_ $6_ $7_ $8_ $9_;
#P hidden newobj 300 738 61 9109513 ftm.sdif.info;
#P window linecount 2;
#P hidden newex 1170 74 242 9109513 jcom.message stream0/description @type msg_symbol @description "one word stream description";
#P objectname jalg.sdif.player[7];
#P hidden newex 1121 108 235 9109513 jcom.message stream0/variables @type msg_symbol @description "Martix row variables. separated by \\\\\\\,";
#P objectname jalg.sdif.player[6];
#P hidden newex 1072 142 264 9109513 jcom.message stream0/ID @type msg_symbol @description "4 letter frame/matrix identificator. e.g. 1MID or XPOS";
#P objectname jalg.sdif.player[3];
#P window linecount 1;
#P hidden newex 1072 256 48 9109513 route text;
#P hidden newex 1170 188 48 9109513 route text;
#P hidden newex 1121 88 48 9109513 route text;
#P user textedit 158 87 378 105 98316 139 9;
#P comment 64 88 47 9109513 Stream 3;
#B frgb 181 181 181;
#P user textedit 110 87 147 105 98308 139 9;
#P user textedit 381 87 504 105 98308 139 9;
#P user textedit 158 70 378 88 98316 139 9;
#P comment 64 71 47 9109513 Stream 2;
#B frgb 181 181 181;
#P user textedit 110 70 147 88 98308 139 9;
#P user textedit 381 70 504 88 98308 139 9;
#P user textedit 158 53 378 71 98316 139 9;
#P comment 64 54 47 9109513 Stream 1;
#B frgb 181 181 181;
#P user textedit 110 53 147 71 98308 139 9;
#P user textedit 381 53 504 71 98308 139 9;
#P hidden newex 1072 122 48 9109513 route text;
#P hidden newex 1170 54 48 9109513 route text;
#P comment 381 24 88 9109513 Frame description;
#B frgb 181 181 181;
#P user textedit 158 36 378 54 98316 139 9;
#P comment 158 24 71 9109513 Variable names;
#B frgb 181 181 181;
#P comment 64 37 47 9109513 Stream 0;
#B frgb 181 181 181;
#P hidden toggle 143 569 15 0;
#N vpatcher 10 59 610 459;
#P window setfont "Sans Serif" 9.;
#P window linecount 1;
#P newex 115 231 163 9109513 pack 0. 0. 0. 0. 0. 0.;
#P newex 293 196 29 9109513 * 1.;
#P newex 293 174 35 9109513 * 0.1;
#P newex 251 174 41 9109513 * 0.01;
#P newex 217 174 33 9109513 - 49.;
#P newex 175 174 41 9109513 * 0.34;
#P newex 145 174 27 9109513 - 1.;
#P newex 115 146 64 9109513 random 100;
#P window linecount 0;
#P newex 115 114 58 9109513 metro 100;
#P outlet 115 269 15 0;
#P inlet 115 62 15 0;
#P comment 227 105 100 9109513 just silly random data....;
#P connect 1 0 3 0;
#P connect 3 0 4 0;
#P fasten 4 0 11 0 120 197 120 197;
#P connect 11 0 2 0;
#P fasten 4 0 5 0 120 168 150 168;
#P connect 5 0 11 1;
#P fasten 4 0 6 0 120 168 180 168;
#P connect 6 0 11 2;
#P fasten 7 0 11 3 222 211 210 211;
#P fasten 4 0 7 0 120 168 222 168;
#P fasten 8 0 11 4 256 211 240 211;
#P fasten 4 0 8 0 120 168 256 168;
#P fasten 10 0 11 5 298 222 270 222;
#P fasten 4 0 9 0 120 168 298 168;
#P connect 9 0 10 0;
#P fasten 9 0 10 1 298 193 317 193;
#P pop;
#P hidden newobj 143 588 76 9109513 p random_data;
#P hidden newex 143 687 85 9109513 prepend /data/1;
#P hidden newex 143 612 80 9109513 prepend set 0 0;
#P hidden newex 143 636 27 9109513 t b l;
#P hidden user ftm.object 143 663 51 18 139 9 --> 0;
#T _#obj 1 fmat;
#T _#def 0 "_fmat 2 3" stream1 local;
#P hidden toggle 36 572 15 0;
#N vpatcher 130 531 730 931;
#P window setfont "Sans Serif" 9.;
#P window linecount 1;
#P newex 115 231 163 9109513 pack 0. 0. 0. 0. 0. 0.;
#P newex 293 196 29 9109513 * 1.;
#P newex 293 174 35 9109513 * 0.1;
#P newex 251 174 41 9109513 * 0.01;
#P newex 217 174 33 9109513 - 49.;
#P newex 175 174 41 9109513 * 0.34;
#P newex 145 174 27 9109513 - 1.;
#P newex 115 146 64 9109513 random 100;
#P window linecount 0;
#P newex 115 114 58 9109513 metro 100;
#P outlet 115 269 15 0;
#P inlet 115 62 15 0;
#P comment 227 105 100 9109513 just silly random data....;
#P connect 1 0 3 0;
#P connect 3 0 4 0;
#P fasten 4 0 11 0 120 197 120 197;
#P connect 11 0 2 0;
#P fasten 4 0 5 0 120 168 150 168;
#P connect 5 0 11 1;
#P fasten 4 0 6 0 120 168 180 168;
#P connect 6 0 11 2;
#P fasten 7 0 11 3 222 211 210 211;
#P fasten 4 0 7 0 120 168 222 168;
#P fasten 8 0 11 4 256 211 240 211;
#P fasten 4 0 8 0 120 168 256 168;
#P fasten 10 0 11 5 298 222 270 222;
#P fasten 4 0 9 0 120 168 298 168;
#P connect 9 0 10 0;
#P fasten 9 0 10 1 298 193 317 193;
#P pop;
#P hidden newobj 36 591 76 9109513 p random_data;
#P hidden newex 318 679 117 9109513 prepend /write_control;
#P hidden comment 64 736 110 9109513 3. Open an SDIF file;
#P hidden newex 36 689 85 9109513 prepend /data/0;
#P hidden newex 36 614 80 9109513 prepend set 0 0;
#P hidden comment 325 623 82 9109513 5. define NVT's;
#P window linecount 2;
#P hidden comment 31 535 178 9109513 Randomly generated data for the two first streams (three columns):;
#P window linecount 1;
#P hidden newex 36 638 27 9109513 t b l;
#P hidden user ftm.object 36 665 51 18 139 9 --> 0;
#T _#obj 2 fmat;
#T _#def 0 "_fmat 2 3" stream0 local;
#P hidden user ftm.object 318 638 30 18 139 9 --> 0;
#T _#obj 3 dict;
#T _#mess 3 set Jamoma test;
#T _#mess 3 set table_name jmod.sdif.record;
#T _#def 1 _dict test_nvt local;
#P hidden user ftm.mess 318 660 67 15 139 9 255 255 255 0 0 0 1 2 0 0 0 --> 0;
#T _#line "_nvt $test_nvt";
#T _#scope end;
#P window setfont "Sans Serif" 10.;
#P hidden message 74 750 85 9109514 /file C:/lala1.sdif;
#P hidden user panel 57 728 125 24;
#X brgb 244 231 185;
#X frgb 0 0 0;
#X border 0;
#X rounded 0;
#X shadow 0;
#X done;
#P hidden user panel 310 620 106 19;
#X brgb 244 231 185;
#X frgb 0 0 0;
#X border 0;
#X rounded 0;
#X shadow 0;
#X done;
#P hidden user panel 28 532 200 35;
#X brgb 244 231 185;
#X frgb 0 0 0;
#X border 0;
#X rounded 0;
#X shadow 0;
#X done;
#P hidden user panel 22 529 224 192;
#X brgb 165 169 216;
#X frgb 0 0 0;
#X border 0;
#X rounded 0;
#X shadow 0;
#X done;
#P hidden user panel 296 614 168 84;
#X brgb 165 169 216;
#X frgb 0 0 0;
#X border 0;
#X rounded 0;
#X shadow 0;
#X done;
#P hidden user panel 23 723 201 51;
#X brgb 165 169 216;
#X frgb 0 0 0;
#X border 0;
#X rounded 0;
#X shadow 0;
#X done;
#P window setfont "Sans Serif" 9.;
#P user textedit 110 36 147 54 98308 139 9;
#P hidden message 67 227 191 9109513 /preset/store 1 default \, /preset/write;
#B color 3;
#P window linecount 2;
#P hidden message 281 362 75 9109513 \; jcom.init bang;
#P window linecount 1;
#P hidden message 147 420 243 9109513 /stream3/description;
#P hidden newex 147 399 62 9109513 prepend set;
#P hidden message 94 245 125 9109513 /documentation/generate;
#P comment 110 24 47 9109513 ID;
#B frgb 181 181 181;
#P user jsui 10 154 45 19 3 0 0 jcom.jsui_texttoggle.js Record Record 68 68 68 225 225 225 40 255 40 0 0 0;
#P objectname record_button;
#P hidden newex 64 348 43 9109513 jcom.in;
#P hidden newex 64 396 45 9109513 pcontrol;
#P hidden newex 64 372 78 9109513 jcom.pass open;
#P window linecount 2;
#P hidden message 211 362 65 9109513 \; max refresh;
#P window linecount 1;
#P hidden message 220 245 31 9109513 /init;
#P hidden newex 64 449 70 9109513 jalg.sdif.record;
#P objectname jalg.sdif.player;
#P window linecount 3;
#P hidden newex 31 280 217 9109513 jcom.hub jmod.sdif.record @size 3U @module_type control @description "SDIF record module";
#P objectname jcom.hub;
#P hidden inlet 31 219 13 0;
#P hidden outlet 31 472 13 0;
#P user textedit 381 36 504 54 98308 139 9;
#P user panel 63 23 446 154;
#X brgb 20 20 20;
#X frgb 0 0 0;
#X border 0;
#X rounded 0;
#X shadow 0;
#X done;
#P hidden user panel 290 701 167 69;
#X brgb 165 169 216;
#X frgb 0 0 0;
#X border 0;
#X rounded 0;
#X shadow 0;
#X done;
#P window linecount 1;
#P hidden comment 724 13 319 9109513 Sorry for the messy patching.. didn't know how else to solve it..;
#P bpatcher 1 0 511 181 0 0 jcom.gui.mxt 0 $0_;
#P objectname jcom.gui.audio-component.mxt;
#P hidden connect 6 0 7 0;
#P hidden fasten 9 0 7 0 225 266 36 266;
#P hidden connect 16 0 7 0;
#P hidden connect 20 0 7 0;
#P hidden connect 7 0 5 0;
#P hidden connect 40 0 39 0;
#P hidden connect 39 0 35 0;
#P hidden connect 35 0 32 0;
#P hidden connect 32 0 31 0;
#P hidden connect 32 1 31 0;
#P hidden connect 31 0 36 0;
#P hidden connect 13 0 11 0;
#P hidden connect 11 0 12 0;
#P hidden fasten 11 1 8 0 137 435 69 435;
#P hidden connect 44 0 8 0;
#P hidden connect 36 0 8 0;
#P hidden connect 38 0 8 0;
#P hidden connect 12 0 8 0;
#P hidden connect 28 0 8 0;
#P hidden fasten 68 0 21 0 1077 174 1416 174 1416 34 115 34;
#P lcolor 1;
#P hidden fasten 73 0 54 0 1077 308 1415 308 1415 180 1069 180 1069 55 115 55;
#P lcolor 1;
#P hidden fasten 87 0 58 0 1077 441 1415 441 1415 310 1062 310 1062 71 115 71;
#P lcolor 1;
#P hidden fasten 90 0 62 0 1077 572 1415 572 1415 443 1052 443 1052 88 115 88;
#P lcolor 1;
#P hidden fasten 122 0 100 0 681 261 1028 261 1028 106 115 106;
#P lcolor 1;
#P hidden fasten 125 0 104 0 681 395 1020 395 1020 264 674 264 674 123 115 123;
#P lcolor 1;
#P hidden fasten 134 0 108 0 681 528 1020 528 1020 397 667 397 667 140 115 140;
#P lcolor 1;
#P hidden fasten 137 0 112 0 681 660 1044 660 1044 531 658 531 658 157 115 157;
#P lcolor 1;
#P hidden fasten 116 0 8 1 398 440 129 440;
#P hidden connect 46 0 45 0;
#P hidden connect 45 0 43 0;
#P hidden connect 43 0 42 0;
#P hidden connect 42 1 41 0;
#P hidden connect 42 0 41 0;
#P hidden connect 41 0 44 0;
#P hidden fasten 11 1 17 0 137 396 152 396;
#P hidden connect 17 0 18 0;
#P hidden fasten 69 0 49 0 1126 140 1415 140 1415 35 163 35;
#P lcolor 1;
#P hidden fasten 74 0 56 0 1126 274 1414 274 1414 181 1068 181 1068 56 163 56;
#P lcolor 1;
#P hidden fasten 88 0 60 0 1126 407 1414 407 1414 311 1061 311 1061 72 163 72;
#P lcolor 1;
#P hidden fasten 91 0 64 0 1126 538 1414 538 1414 444 1051 444 1051 89 163 89;
#P lcolor 1;
#P hidden fasten 123 0 102 0 730 227 1027 227 1027 107 163 107;
#P lcolor 1;
#P hidden fasten 126 0 106 0 730 361 1019 361 1019 265 673 265 673 124 163 124;
#P lcolor 1;
#P hidden fasten 135 0 110 0 730 494 1019 494 1019 398 666 398 666 141 163 141;
#P lcolor 1;
#P hidden fasten 138 0 114 0 730 625 1043 625 1043 532 657 532 657 158 163 158;
#P lcolor 1;
#P hidden connect 72 0 71 0;
#P hidden connect 29 0 38 0;
#P hidden fasten 70 0 4 0 1175 106 1414 106 1414 36 386 36;
#P lcolor 1;
#P hidden fasten 75 0 53 0 1175 240 1413 240 1413 182 1067 182 1067 57 386 57;
#P lcolor 1;
#P hidden fasten 89 0 57 0 1175 373 1413 373 1413 312 1060 312 1060 73 386 73;
#P lcolor 1;
#P hidden fasten 92 0 61 0 1175 504 1413 504 1413 445 1050 445 1050 90 386 90;
#P lcolor 1;
#P hidden fasten 124 0 99 0 779 193 1026 193 1026 108 386 108;
#P lcolor 1;
#P hidden fasten 127 0 103 0 779 327 1018 327 1018 266 672 266 672 125 386 125;
#P lcolor 1;
#P hidden fasten 136 0 107 0 779 460 1018 460 1018 399 665 399 665 142 386 142;
#P lcolor 1;
#P hidden fasten 139 0 111 0 779 591 1042 591 1042 533 656 533 656 159 386 159;
#P lcolor 1;
#P hidden fasten 100 0 118 0 115 122 681 122;
#P hidden connect 118 0 122 0;
#P hidden fasten 104 0 121 0 115 139 668 139 668 270 681 270;
#P hidden connect 121 0 125 0;
#P hidden fasten 108 0 130 0 115 156 659 156 659 407 681 407;
#P hidden connect 130 0 134 0;
#P hidden fasten 112 0 133 0 115 173 651 173 651 537 681 537;
#P hidden connect 133 0 137 0;
#P hidden fasten 102 0 119 0 163 121 730 121;
#P hidden connect 119 0 123 0;
#P hidden fasten 106 0 128 0 163 138 669 138 669 269 730 269;
#P hidden connect 128 0 126 0;
#P hidden fasten 110 0 131 0 163 155 660 155 660 406 730 406;
#P hidden connect 131 0 135 0;
#P hidden fasten 114 0 140 0 163 172 652 172 652 536 730 536;
#P hidden connect 140 0 138 0;
#P hidden fasten 99 0 117 0 386 120 779 120;
#P hidden connect 117 0 124 0;
#P hidden fasten 103 0 120 0 386 137 670 137 670 268 779 268;
#P hidden connect 120 0 127 0;
#P hidden fasten 107 0 129 0 386 154 661 154 661 405 779 405;
#P hidden connect 129 0 136 0;
#P hidden fasten 111 0 132 0 386 171 653 171 653 535 779 535;
#P hidden connect 132 0 139 0;
#P hidden fasten 77 0 79 0 913 743 904 743 904 669 913 669;
#P hidden connect 79 0 77 0;
#P hidden fasten 94 0 95 0 913 798 904 798 904 745 913 745;
#P hidden connect 95 0 94 0;
#P hidden fasten 21 0 52 0 115 54 1077 54;
#P hidden connect 52 0 68 0;
#P hidden fasten 54 0 67 0 115 70 1063 70 1063 187 1077 187;
#P hidden connect 67 0 73 0;
#P hidden fasten 58 0 83 0 115 87 1053 87 1053 321 1077 321;
#P hidden connect 83 0 87 0;
#P hidden fasten 62 0 86 0 115 105 1043 105 1043 452 1077 452;
#P hidden connect 86 0 90 0;
#P hidden fasten 49 0 65 0 163 53 1126 53;
#P hidden connect 65 0 69 0;
#P hidden fasten 56 0 76 0 163 69 1064 69 1064 187 1126 187;
#P hidden connect 76 0 74 0;
#P hidden fasten 60 0 84 0 163 86 1054 86 1054 320 1126 320;
#P hidden connect 84 0 88 0;
#P hidden fasten 64 0 93 0 163 104 1044 104 1044 451 1126 451;
#P hidden connect 93 0 91 0;
#P hidden fasten 4 0 51 0 386 52 1175 52;
#P hidden connect 51 0 70 0;
#P hidden fasten 53 0 66 0 386 68 1065 68 1065 186 1175 186;
#P hidden connect 66 0 75 0;
#P hidden fasten 57 0 82 0 386 85 1055 85 1055 319 1175 319;
#P hidden connect 82 0 89 0;
#P hidden fasten 61 0 85 0 386 103 1045 103 1045 450 1175 450;
#P hidden connect 85 0 92 0;
#P pop;
