max v2;
#N vpatcher 22 54 1417 778;
#P origin -163 -748;
#P user jsui 2 157 45 19 3 0 0 jcom.jsui_texttoggle.js Print Print;
#P objectname print_button;
#P window setfont "Sans Serif" 9.;
#P hidden newex 63 640 79 9109513 pvar print_button;
#P window linecount 2;
#P hidden newex 63 663 252 9109513 jcom.parameter print @type msg_toggle @description "Print script messages to Max window";
#P objectname print;
#P window linecount 1;
#P hidden newex 619 573 48 9109513 route text;
#P window linecount 2;
#P hidden newex 668 559 245 9109513 jcom.parameter stream/7/description @type msg_symbol @description "one word stream description";
#P objectname stream/7/description;
#P hidden newex 619 593 242 9109513 jcom.parameter stream/7/variables @type msg_symbol @description "Martix row variables. separated by \\\\\\\,";
#P objectname stream/7/variables;
#P hidden newex 570 627 271 9109513 jcom.parameter stream/7/ID @type msg_symbol @description "4 letter frame/matrix identificator. e.g. 1MID or XPOS";
#P objectname stream/7/ID;
#P hidden newex 668 428 245 9109513 jcom.parameter stream/6/description @type msg_symbol @description "one word stream description";
#P objectname stream/6/description;
#P hidden newex 619 462 242 9109513 jcom.parameter stream/6/variables @type msg_symbol @description "Martix row variables. separated by \\\\\\\,";
#P objectname stream/6/variables;
#P hidden newex 570 496 271 9109513 jcom.parameter stream/6/ID @type msg_symbol @description "4 letter frame/matrix identificator. e.g. 1MID or XPOS";
#P objectname stream/6/ID;
#P window linecount 1;
#P hidden newex 570 607 48 9109513 route text;
#P hidden newex 668 539 48 9109513 route text;
#P hidden newex 619 442 48 9109513 route text;
#P hidden newex 570 476 48 9109513 route text;
#P hidden newex 668 408 48 9109513 route text;
#P hidden newex 619 309 48 9109513 route text;
#P window linecount 2;
#P hidden newex 668 295 245 9109513 jcom.parameter stream/5/description @type msg_symbol @description "one word stream description";
#P objectname stream/5/description;
#P hidden newex 619 329 242 9109513 jcom.parameter stream/5/variables @type msg_symbol @description "Martix row variables. separated by \\\\\\\,";
#P objectname stream/5/variables;
#P hidden newex 570 363 271 9109513 jcom.parameter stream/5/ID @type msg_symbol @description "4 letter frame/matrix identificator. e.g. 1MID or XPOS";
#P objectname stream/5/ID;
#P hidden newex 668 161 245 9109513 jcom.parameter stream/4/description @type msg_symbol @description "one word stream description";
#P objectname stream/4/description;
#P hidden newex 619 195 242 9109513 jcom.parameter stream/4/variables @type msg_symbol @description "Martix row variables. separated by \\\\\\\,";
#P objectname stream/4/variables;
#P hidden newex 570 229 271 9109513 jcom.parameter stream/4/ID @type msg_symbol @description "4 letter frame/matrix identificator. e.g. 1MID or XPOS";
#P objectname stream/4/ID;
#P window linecount 1;
#P hidden newex 570 343 48 9109513 route text;
#P hidden newex 668 275 48 9109513 route text;
#P hidden newex 619 175 48 9109513 route text;
#P hidden newex 570 209 48 9109513 route text;
#P hidden newex 668 141 48 9109513 route text;
#N comlet data input to be recorded;
#P hidden inlet 392 219 13 0;
#P hidden newex 63 608 388 9109513 jcom.message file @type msg_symbol @description "full path of sdif file to record";
#P objectname jalg.sdif.player[5];
#P user textedit 157 155 377 173 98444 139 9;
#P comment 63 156 47 9109513 Stream 7;
#B frgb 181 181 181;
#P user textedit 109 155 146 173 98436 139 9;
#P user textedit 380 155 503 173 98436 139 9;
#P user textedit 157 138 377 156 98444 139 9;
#P comment 63 139 47 9109513 Stream 6;
#B frgb 181 181 181;
#P user textedit 109 138 146 156 98436 139 9;
#P user textedit 380 138 503 156 98436 139 9;
#P user textedit 157 121 377 139 98444 139 9;
#P comment 63 122 47 9109513 Stream 5;
#B frgb 181 181 181;
#P user textedit 109 121 146 139 98436 139 9;
#P user textedit 380 121 503 139 98436 139 9;
#P user textedit 157 104 377 122 98444 139 9;
#P comment 63 105 47 9109513 Stream 4;
#B frgb 181 181 181;
#P user textedit 109 104 146 122 98436 139 9;
#P user textedit 380 104 503 122 98436 139 9;
#P hidden newex 63 556 87 9109513 pvar record_button;
#P hidden newex 63 579 362 9109513 jcom.parameter record @type msg_toggle @description "Start/Stop recording";
#P objectname record;
#P hidden newex 1015 486 48 9109513 route text;
#P window linecount 2;
#P hidden newex 1064 472 245 9109513 jcom.parameter stream/3/description @type msg_symbol @description "one word stream description";
#P objectname stream/3/description;
#P hidden newex 1015 506 242 9109513 jcom.parameter stream/3/variables @type msg_symbol @description "Martix row variables. separated by \\\\\\\,";
#P objectname stream/3/variables;
#P hidden newex 966 540 271 9109513 jcom.parameter stream/3/ID @type msg_symbol @description "4 letter frame/matrix identificator. e.g. 1MID or XPOS";
#P objectname stream/3/ID;
#P hidden newex 1064 341 245 9109513 jcom.parameter stream/2/description @type msg_symbol @description "one word stream description";
#P objectname stream/2/description;
#P hidden newex 1015 375 242 9109513 jcom.parameter stream/2/variables @type msg_symbol @description "Martix row variables. separated by \\\\\\\,";
#P objectname stream/2/variables;
#P hidden newex 966 409 271 9109513 jcom.parameter stream/2/ID @type msg_symbol @description "4 letter frame/matrix identificator. e.g. 1MID or XPOS";
#P objectname stream/2/ID;
#P window linecount 1;
#P hidden newex 966 520 48 9109513 route text;
#P hidden newex 1064 452 48 9109513 route text;
#P hidden newex 1015 355 48 9109513 route text;
#P hidden newex 966 389 48 9109513 route text;
#P hidden newex 1064 321 48 9109513 route text;
#P hidden comment 512 21 199 9109513 variable names must be seperaed by \\\\\\\,;
#P number 18 61 17 9 1 8 8227 139 149 149 149 221 221 221 222 222 222 0 0 0;
#P objectname streamcount;
#P hidden newex 63 484 82 9109513 pvar streamcount;
#P window linecount 3;
#P comment 2 19 60 9109513 Number of streams to record:;
#B frgb 181 181 181;
#P window linecount 2;
#P hidden newex 63 509 303 9109513 jcom.parameter streamcount @range 1 8 @clipmode both @type msg_int @description "Number of streams to be recorded";
#P objectname streamcount[1];
#P window linecount 1;
#P hidden newex 1015 222 48 9109513 route text;
#P window linecount 2;
#P hidden newex 1064 208 245 9109513 jcom.parameter stream/1/description @type msg_symbol @description "one word stream description";
#P objectname stream/1/description;
#P hidden newex 1015 242 242 9109513 jcom.parameter stream/1/variables @type msg_symbol @description "Martix row variables. separated by \\\\\\\,";
#P objectname stream/1/variables;
#P hidden newex 966 276 271 9109513 jcom.parameter stream/1/ID @type msg_symbol @description "4 letter frame/matrix identificator. e.g. 1MID or XPOS";
#P objectname stream/1/ID;
#P hidden newex 1064 74 245 9109513 jcom.parameter stream/0/description @type msg_symbol @description "one word stream description";
#P objectname stream/0/description;
#P hidden newex 1015 108 242 9109513 jcom.parameter stream/0/variables @type msg_symbol @description "Martix row variables. separated by \\\\\\\,";
#P objectname stream/0/variables;
#P hidden newex 966 142 271 9109513 jcom.parameter stream/0/ID @type msg_symbol @description "4 letter frame/matrix identificator. e.g. 1MID or XPOS";
#P objectname stream/0/ID;
#P window linecount 1;
#P hidden newex 966 256 48 9109513 route text;
#P hidden newex 1064 188 48 9109513 route text;
#P hidden newex 1015 88 48 9109513 route text;
#P user textedit 157 87 377 105 98444 139 9;
#P comment 63 88 47 9109513 Stream 3;
#B frgb 181 181 181;
#P user textedit 109 87 146 105 98436 139 9;
#P user textedit 380 87 503 105 98436 139 9;
#P user textedit 157 70 377 88 98444 139 9;
#P comment 63 71 47 9109513 Stream 2;
#B frgb 181 181 181;
#P user textedit 109 70 146 88 98436 139 9;
#P user textedit 380 70 503 88 98436 139 9;
#P user textedit 157 53 377 71 98444 139 9;
#P comment 63 54 47 9109513 Stream 1;
#B frgb 181 181 181;
#P user textedit 109 53 146 71 98436 139 9;
#P user textedit 380 53 503 71 98436 139 9;
#P hidden newex 966 122 48 9109513 route text;
#P hidden newex 1064 54 48 9109513 route text;
#P comment 380 24 88 9109513 Frame description;
#B frgb 181 181 181;
#P user textedit 157 36 377 54 98444 139 9;
#P comment 157 24 71 9109513 Variable names;
#B frgb 181 181 181;
#P comment 63 37 47 9109513 Stream 0;
#B frgb 181 181 181;
#P user textedit 109 36 146 54 98436 139 9;
#P hidden message 66 227 191 9109513 /preset/store 1 default \, /preset/write;
#B color 3;
#P window linecount 2;
#P hidden message 280 362 75 9109513 \; jcom.init bang;
#P window linecount 1;
#P hidden message 146 420 243 9109513 /ui/freeze 0;
#P hidden newex 146 399 62 9109513 prepend set;
#P hidden message 93 245 125 9109513 /documentation/generate;
#P comment 109 24 47 9109513 ID;
#B frgb 181 181 181;
#P user jsui 2 81 45 19 3 0 0 jcom.jsui_texttoggle.js Record Record 68 68 68 225 225 225 255 40 40 0 0 0;
#P objectname record_button;
#P hidden newex 63 348 43 9109513 jcom.in;
#P hidden newex 63 396 45 9109513 pcontrol;
#P hidden newex 63 372 78 9109513 jcom.pass open;
#P window linecount 2;
#P hidden message 210 362 65 9109513 \; max refresh;
#P window linecount 1;
#P hidden message 219 245 31 9109513 /init;
#P hidden newex 63 449 70 9109513 jalg.sdif.record;
#P objectname jalg.sdif.player;
#P window linecount 3;
#P hidden newex 30 280 217 9109513 jcom.hub jmod.sdif.record @size 3U @module_type control @description "SDIF record module";
#P objectname jcom.hub;
#P hidden inlet 30 219 13 0;
#P hidden outlet 30 472 13 0;
#P user textedit 380 36 503 54 98436 139 9;
#P user panel 62 23 446 154;
#X brgb 20 20 20;
#X frgb 0 0 0;
#X border 0;
#X rounded 20;
#X shadow 0;
#X done;
#P window linecount 1;
#P hidden comment 723 13 319 9109513 Sorry for the messy patching.. didn't know how else to solve it..;
#P bpatcher 0 0 511 181 0 0 jcom.gui.mxt 0 $0_;
#P objectname jcom.gui.audio-component.mxt;
#P hidden connect 19 0 6 0;
#P hidden connect 15 0 6 0;
#P hidden fasten 8 0 6 0 224 266 35 266;
#P hidden connect 5 0 6 0;
#P hidden connect 6 0 4 0;
#P hidden connect 12 0 10 0;
#P hidden connect 10 0 11 0;
#P hidden fasten 10 1 7 0 136 435 68 435;
#P hidden connect 11 0 7 0;
#P hidden fasten 49 0 51 0 68 544 59 544 59 479 68 479;
#P hidden connect 51 0 49 0;
#P hidden fasten 66 0 67 0 68 604 59 604 59 551 68 551;
#P hidden connect 67 0 66 0;
#P hidden fasten 110 0 111 0 68 699 59 699 59 635 68 635;
#P hidden connect 111 0 110 0;
#P hidden fasten 42 0 20 0 971 174 1310 174 1310 34 114 34;
#P lcolor 1;
#P hidden fasten 45 0 28 0 971 308 1309 308 1309 180 963 180 963 55 114 55;
#P lcolor 1;
#P hidden fasten 59 0 32 0 971 441 1309 441 1309 310 956 310 956 71 114 71;
#P lcolor 1;
#P hidden fasten 62 0 36 0 971 572 1309 572 1309 443 946 443 946 88 114 88;
#P lcolor 1;
#P hidden fasten 91 0 69 0 575 261 922 261 922 106 114 106;
#P lcolor 1;
#P hidden fasten 94 0 73 0 575 395 921 395 921 264 568 264 568 123 114 123;
#P lcolor 1;
#P hidden fasten 103 0 77 0 575 528 924 528 924 397 561 397 561 140 114 140;
#P lcolor 1;
#P hidden fasten 106 0 81 0 575 660 928 660 928 531 552 531 552 157 114 157;
#P lcolor 1;
#P hidden fasten 85 0 7 1 397 440 128 440;
#P hidden fasten 10 1 16 0 136 396 151 396;
#P hidden connect 16 0 17 0;
#P hidden fasten 43 0 23 0 1020 140 1309 140 1309 35 162 35;
#P lcolor 1;
#P hidden fasten 46 0 30 0 1020 274 1308 274 1308 181 962 181 962 56 162 56;
#P lcolor 1;
#P hidden fasten 60 0 34 0 1020 407 1308 407 1308 311 955 311 955 72 162 72;
#P lcolor 1;
#P hidden fasten 63 0 38 0 1020 538 1308 538 1308 444 945 444 945 89 162 89;
#P lcolor 1;
#P hidden fasten 92 0 71 0 624 227 921 227 921 107 162 107;
#P lcolor 1;
#P hidden fasten 95 0 75 0 624 361 920 361 920 265 567 265 567 124 162 124;
#P lcolor 1;
#P hidden fasten 104 0 79 0 624 494 923 494 923 398 560 398 560 141 162 141;
#P lcolor 1;
#P hidden fasten 107 0 83 0 624 625 927 625 927 532 551 532 551 158 162 158;
#P lcolor 1;
#P hidden fasten 44 0 3 0 1069 106 1308 106 1308 36 385 36;
#P lcolor 1;
#P hidden fasten 47 0 27 0 1069 240 1307 240 1307 182 961 182 961 57 385 57;
#P lcolor 1;
#P hidden fasten 61 0 31 0 1069 373 1307 373 1307 312 954 312 954 73 385 73;
#P lcolor 1;
#P hidden fasten 64 0 35 0 1069 504 1307 504 1307 445 944 445 944 90 385 90;
#P lcolor 1;
#P hidden fasten 93 0 68 0 673 193 920 193 920 108 385 108;
#P lcolor 1;
#P hidden fasten 96 0 72 0 673 327 919 327 919 266 566 266 566 125 385 125;
#P lcolor 1;
#P hidden fasten 105 0 76 0 673 460 922 460 922 399 559 399 559 142 385 142;
#P lcolor 1;
#P hidden fasten 108 0 80 0 673 591 926 591 926 533 550 533 550 159 385 159;
#P lcolor 1;
#P hidden fasten 69 0 87 0 114 122 575 122;
#P hidden connect 87 0 91 0;
#P hidden fasten 73 0 90 0 114 139 562 139 562 270 575 270;
#P hidden connect 90 0 94 0;
#P hidden fasten 77 0 99 0 114 156 553 156 553 407 575 407;
#P hidden connect 99 0 103 0;
#P hidden fasten 81 0 102 0 114 173 545 173 545 537 575 537;
#P hidden connect 102 0 106 0;
#P hidden fasten 71 0 88 0 162 121 624 121;
#P hidden connect 88 0 92 0;
#P hidden fasten 75 0 97 0 162 138 563 138 563 269 624 269;
#P hidden connect 97 0 95 0;
#P hidden fasten 79 0 100 0 162 155 554 155 554 406 624 406;
#P hidden connect 100 0 104 0;
#P hidden fasten 83 0 109 0 162 172 546 172 546 536 624 536;
#P hidden connect 109 0 107 0;
#P hidden fasten 68 0 86 0 385 120 673 120;
#P hidden connect 86 0 93 0;
#P hidden fasten 72 0 89 0 385 137 564 137 564 268 673 268;
#P hidden connect 89 0 96 0;
#P hidden fasten 76 0 98 0 385 154 555 154 555 405 673 405;
#P hidden connect 98 0 105 0;
#P hidden fasten 80 0 101 0 385 171 547 171 547 535 673 535;
#P hidden connect 101 0 108 0;
#P hidden fasten 20 0 26 0 114 54 971 54;
#P hidden connect 26 0 42 0;
#P hidden fasten 28 0 41 0 114 70 957 70 957 187 971 187;
#P hidden connect 41 0 45 0;
#P hidden fasten 32 0 55 0 114 87 947 87 947 321 971 321;
#P hidden connect 55 0 59 0;
#P hidden fasten 36 0 58 0 114 105 937 105 937 452 971 452;
#P hidden connect 58 0 62 0;
#P hidden fasten 23 0 39 0 162 53 1020 53;
#P hidden connect 39 0 43 0;
#P hidden fasten 30 0 48 0 162 69 958 69 958 187 1020 187;
#P hidden connect 48 0 46 0;
#P hidden fasten 34 0 56 0 162 86 948 86 948 320 1020 320;
#P hidden connect 56 0 60 0;
#P hidden fasten 38 0 65 0 162 104 938 104 938 451 1020 451;
#P hidden connect 65 0 63 0;
#P hidden fasten 3 0 25 0 385 52 1069 52;
#P hidden connect 25 0 44 0;
#P hidden fasten 27 0 40 0 385 68 959 68 959 186 1069 186;
#P hidden connect 40 0 47 0;
#P hidden fasten 31 0 54 0 385 85 949 85 949 319 1069 319;
#P hidden connect 54 0 61 0;
#P hidden fasten 35 0 57 0 385 103 939 103 939 450 1069 450;
#P hidden connect 57 0 64 0;
#P pop;
