{
	"patcher" : 	{
		"fileversion" : 1,
		"rect" : [ 105.0, 143.0, 528.0, 449.0 ],
		"bglocked" : 0,
		"defrect" : [ 105.0, 143.0, 528.0, 449.0 ],
		"openrect" : [ 0.0, 0.0, 0.0, 0.0 ],
		"openinpresentation" : 0,
		"default_fontsize" : 12.0,
		"default_fontface" : 0,
		"default_fontname" : "Arial",
		"gridonopen" : 0,
		"gridsize" : [ 15.0, 15.0 ],
		"gridsnaponopen" : 0,
		"toolbarvisible" : 1,
		"boxanimatetime" : 200,
		"imprint" : 0,
		"boxes" : [ 			{
				"box" : 				{
					"maxclass" : "message",
					"numinlets" : 2,
					"numoutlets" : 1,
					"presentation_rect" : [ 257.0, 239.0, 0.0, 0.0 ],
					"fontsize" : 12.0,
					"outlettype" : [ "" ],
					"id" : "obj-10",
					"patching_rect" : [ 255.0, 240.0, 50.0, 18.0 ],
					"fontname" : "Arial"
				}

			}
, 			{
				"box" : 				{
					"maxclass" : "message",
					"numinlets" : 2,
					"numoutlets" : 1,
					"presentation_rect" : [ 47.0, 239.0, 0.0, 0.0 ],
					"fontsize" : 12.0,
					"outlettype" : [ "" ],
					"id" : "obj-18",
					"patching_rect" : [ 45.0, 240.0, 50.0, 18.0 ],
					"fontname" : "Arial"
				}

			}
, 			{
				"box" : 				{
					"maxclass" : "message",
					"numinlets" : 2,
					"numoutlets" : 1,
					"presentation_rect" : [ 273.0, 181.0, 0.0, 0.0 ],
					"fontsize" : 12.0,
					"outlettype" : [ "" ],
					"id" : "obj-8",
					"patching_rect" : [ 270.0, 180.0, 50.0, 18.0 ],
					"fontname" : "Arial"
				}

			}
, 			{
				"box" : 				{
					"maxclass" : "message",
					"numinlets" : 2,
					"numoutlets" : 1,
					"fontsize" : 12.0,
					"outlettype" : [ "" ],
					"id" : "obj-6",
					"patching_rect" : [ 60.0, 180.0, 50.0, 18.0 ],
					"fontname" : "Arial"
				}

			}
, 			{
				"box" : 				{
					"maxclass" : "message",
					"text" : "dot.alloc",
					"numinlets" : 2,
					"numoutlets" : 1,
					"fontsize" : 12.0,
					"outlettype" : [ "" ],
					"id" : "obj-17",
					"patching_rect" : [ 45.0, 390.0, 55.0, 18.0 ],
					"fontname" : "Arial"
				}

			}
, 			{
				"box" : 				{
					"maxclass" : "message",
					"text" : "dot.namealloc",
					"numinlets" : 2,
					"numoutlets" : 1,
					"fontsize" : 12.0,
					"outlettype" : [ "" ],
					"id" : "obj-15",
					"patching_rect" : [ 180.0, 390.0, 85.0, 18.0 ],
					"fontname" : "Arial"
				}

			}
, 			{
				"box" : 				{
					"maxclass" : "comment",
					"text" : "see also:",
					"numinlets" : 1,
					"numoutlets" : 0,
					"fontsize" : 12.0,
					"id" : "obj-3",
					"patching_rect" : [ 45.0, 360.0, 60.0, 20.0 ],
					"fontname" : "Arial"
				}

			}
, 			{
				"box" : 				{
					"maxclass" : "message",
					"text" : "dot.alloc2",
					"numinlets" : 2,
					"numoutlets" : 1,
					"fontsize" : 12.0,
					"outlettype" : [ "" ],
					"id" : "obj-12",
					"patching_rect" : [ 105.0, 390.0, 62.0, 18.0 ],
					"fontname" : "Arial"
				}

			}
, 			{
				"box" : 				{
					"maxclass" : "newobj",
					"text" : "prepend help",
					"numinlets" : 1,
					"hidden" : 1,
					"numoutlets" : 1,
					"fontsize" : 12.0,
					"outlettype" : [ "" ],
					"id" : "obj-13",
					"patching_rect" : [ 105.0, 420.0, 83.0, 20.0 ],
					"fontname" : "Arial"
				}

			}
, 			{
				"box" : 				{
					"maxclass" : "newobj",
					"text" : "pcontrol",
					"numinlets" : 1,
					"hidden" : 1,
					"numoutlets" : 1,
					"fontsize" : 12.0,
					"outlettype" : [ "" ],
					"id" : "obj-14",
					"patching_rect" : [ 105.0, 450.0, 56.0, 20.0 ],
					"fontname" : "Arial"
				}

			}
, 			{
				"box" : 				{
					"maxclass" : "button",
					"numinlets" : 1,
					"numoutlets" : 1,
					"outlettype" : [ "bang" ],
					"id" : "obj-26",
					"patching_rect" : [ 45.0, 90.0, 20.0, 20.0 ]
				}

			}
, 			{
				"box" : 				{
					"maxclass" : "bpatcher",
					"numinlets" : 0,
					"numoutlets" : 0,
					"id" : "obj-64",
					"args" : [  ],
					"patching_rect" : [ 315.0, 285.0, 211.0, 145.0 ],
					"name" : "dot.menu.maxpat"
				}

			}
, 			{
				"box" : 				{
					"maxclass" : "comment",
					"text" : "Using a multicast OSC bus, deliberate to allocate a unique port number.",
					"numinlets" : 1,
					"numoutlets" : 0,
					"fontsize" : 14.0,
					"id" : "obj-16",
					"patching_rect" : [ 15.0, 45.0, 473.0, 23.0 ],
					"fontname" : "Arial"
				}

			}
, 			{
				"box" : 				{
					"maxclass" : "comment",
					"varname" : "autohelp_top_title",
					"text" : "dot.portalloc",
					"numinlets" : 1,
					"frgb" : [ 1.0, 1.0, 1.0, 1.0 ],
					"numoutlets" : 0,
					"fontface" : 3,
					"fontsize" : 20.871338,
					"id" : "obj-22",
					"patching_rect" : [ 15.0, 15.0, 485.0, 30.0 ],
					"textcolor" : [ 1.0, 1.0, 1.0, 1.0 ],
					"fontname" : "Arial"
				}

			}
, 			{
				"box" : 				{
					"maxclass" : "panel",
					"numinlets" : 1,
					"numoutlets" : 0,
					"id" : "obj-60",
					"patching_rect" : [ 501.0, 15.0, 4.0, 304.0 ],
					"bgcolor" : [ 0.0, 0.0, 0.0, 1.0 ]
				}

			}
, 			{
				"box" : 				{
					"maxclass" : "newobj",
					"text" : "mxj net.multi.recv @group 224.0.1.1 @port 8000",
					"linecount" : 2,
					"numinlets" : 1,
					"numoutlets" : 2,
					"fontsize" : 12.0,
					"outlettype" : [ "", "" ],
					"id" : "obj-1",
					"patching_rect" : [ 45.0, 285.0, 171.0, 34.0 ],
					"fontname" : "Arial"
				}

			}
, 			{
				"box" : 				{
					"maxclass" : "newobj",
					"text" : "print osc",
					"numinlets" : 1,
					"numoutlets" : 0,
					"fontsize" : 12.0,
					"id" : "obj-2",
					"patching_rect" : [ 45.0, 330.0, 63.0, 20.0 ],
					"fontname" : "Arial"
				}

			}
, 			{
				"box" : 				{
					"maxclass" : "newobj",
					"text" : "dot.portalloc 224.0.1.1 8000 4000",
					"numinlets" : 1,
					"numoutlets" : 1,
					"fontsize" : 12.0,
					"outlettype" : [ "" ],
					"id" : "obj-5",
					"patching_rect" : [ 255.0, 210.0, 189.0, 20.0 ],
					"color" : [ 0.741176, 0.184314, 0.756863, 1.0 ],
					"fontname" : "Arial"
				}

			}
, 			{
				"box" : 				{
					"maxclass" : "newobj",
					"text" : "dot.portalloc 224.0.1.1 8000 4000",
					"numinlets" : 1,
					"numoutlets" : 1,
					"fontsize" : 12.0,
					"outlettype" : [ "" ],
					"id" : "obj-7",
					"patching_rect" : [ 270.0, 150.0, 189.0, 20.0 ],
					"color" : [ 0.741176, 0.184314, 0.756863, 1.0 ],
					"fontname" : "Arial"
				}

			}
, 			{
				"box" : 				{
					"maxclass" : "newobj",
					"text" : "dot.portalloc 224.0.1.1 8000 4000",
					"numinlets" : 1,
					"numoutlets" : 1,
					"fontsize" : 12.0,
					"outlettype" : [ "" ],
					"id" : "obj-9",
					"patching_rect" : [ 45.0, 210.0, 189.0, 20.0 ],
					"color" : [ 0.741176, 0.184314, 0.756863, 1.0 ],
					"fontname" : "Arial"
				}

			}
, 			{
				"box" : 				{
					"maxclass" : "newobj",
					"text" : "dot.portalloc 224.0.1.1 8000 4000",
					"numinlets" : 1,
					"numoutlets" : 1,
					"fontsize" : 12.0,
					"outlettype" : [ "" ],
					"id" : "obj-11",
					"patching_rect" : [ 60.0, 150.0, 189.0, 20.0 ],
					"color" : [ 0.741176, 0.184314, 0.756863, 1.0 ],
					"fontname" : "Arial"
				}

			}
, 			{
				"box" : 				{
					"maxclass" : "comment",
					"text" : "Bang to start allocation process. Watch the max window to see the messages.",
					"linecount" : 2,
					"numinlets" : 1,
					"numoutlets" : 0,
					"fontsize" : 12.0,
					"id" : "obj-21",
					"patching_rect" : [ 75.0, 90.0, 221.0, 34.0 ],
					"fontname" : "Arial"
				}

			}
, 			{
				"box" : 				{
					"maxclass" : "comment",
					"text" : "Arguments: multicast group, multicast port, port root",
					"linecount" : 2,
					"numinlets" : 1,
					"numoutlets" : 0,
					"fontsize" : 12.0,
					"id" : "obj-23",
					"patching_rect" : [ 330.0, 90.0, 166.0, 34.0 ],
					"fontname" : "Arial"
				}

			}
, 			{
				"box" : 				{
					"maxclass" : "panel",
					"varname" : "autohelp_top_panel[1]",
					"numinlets" : 1,
					"numoutlets" : 0,
					"mode" : 1,
					"angle" : 180.0,
					"grad1" : [ 0.0, 0.0, 0.0, 1.0 ],
					"id" : "obj-24",
					"grad2" : [ 1.0, 0.0, 0.0, 1.0 ],
					"patching_rect" : [ 15.0, 15.0, 490.0, 31.0 ],
					"background" : 1
				}

			}
 ],
		"lines" : [ 			{
				"patchline" : 				{
					"source" : [ "obj-26", 0 ],
					"destination" : [ "obj-5", 0 ],
					"hidden" : 0,
					"midpoints" : [ 54.5, 129.5, 264.5, 129.5 ]
				}

			}
, 			{
				"patchline" : 				{
					"source" : [ "obj-5", 0 ],
					"destination" : [ "obj-10", 1 ],
					"hidden" : 0,
					"midpoints" : [ 264.5, 234.5, 295.5, 234.5 ]
				}

			}
, 			{
				"patchline" : 				{
					"source" : [ "obj-26", 0 ],
					"destination" : [ "obj-7", 0 ],
					"hidden" : 0,
					"midpoints" : [ 54.5, 129.5, 279.5, 129.5 ]
				}

			}
, 			{
				"patchline" : 				{
					"source" : [ "obj-7", 0 ],
					"destination" : [ "obj-8", 1 ],
					"hidden" : 0,
					"midpoints" : [ 279.5, 174.5, 310.5, 174.5 ]
				}

			}
, 			{
				"patchline" : 				{
					"source" : [ "obj-26", 0 ],
					"destination" : [ "obj-9", 0 ],
					"hidden" : 0,
					"midpoints" : [  ]
				}

			}
, 			{
				"patchline" : 				{
					"source" : [ "obj-9", 0 ],
					"destination" : [ "obj-18", 1 ],
					"hidden" : 0,
					"midpoints" : [ 54.5, 234.5, 85.5, 234.5 ]
				}

			}
, 			{
				"patchline" : 				{
					"source" : [ "obj-26", 0 ],
					"destination" : [ "obj-11", 0 ],
					"hidden" : 0,
					"midpoints" : [ 54.5, 129.5, 69.5, 129.5 ]
				}

			}
, 			{
				"patchline" : 				{
					"source" : [ "obj-11", 0 ],
					"destination" : [ "obj-6", 1 ],
					"hidden" : 0,
					"midpoints" : [ 69.5, 174.5, 100.5, 174.5 ]
				}

			}
, 			{
				"patchline" : 				{
					"source" : [ "obj-17", 0 ],
					"destination" : [ "obj-13", 0 ],
					"hidden" : 1,
					"midpoints" : [  ]
				}

			}
, 			{
				"patchline" : 				{
					"source" : [ "obj-1", 0 ],
					"destination" : [ "obj-2", 0 ],
					"hidden" : 0,
					"midpoints" : [  ]
				}

			}
, 			{
				"patchline" : 				{
					"source" : [ "obj-13", 0 ],
					"destination" : [ "obj-14", 0 ],
					"hidden" : 1,
					"midpoints" : [  ]
				}

			}
, 			{
				"patchline" : 				{
					"source" : [ "obj-12", 0 ],
					"destination" : [ "obj-13", 0 ],
					"hidden" : 1,
					"midpoints" : [  ]
				}

			}
, 			{
				"patchline" : 				{
					"source" : [ "obj-15", 0 ],
					"destination" : [ "obj-13", 0 ],
					"hidden" : 1,
					"midpoints" : [  ]
				}

			}
 ]
	}

}
