{
	"patcher" : 	{
		"fileversion" : 1,
		"rect" : [ 66.0, 138.0, 537.0, 449.0 ],
		"bglocked" : 0,
		"defrect" : [ 66.0, 138.0, 537.0, 449.0 ],
		"openrect" : [ 0.0, 0.0, 0.0, 0.0 ],
		"openinpresentation" : 0,
		"default_fontsize" : 12.0,
		"default_fontface" : 0,
		"default_fontname" : "Arial",
		"gridonopen" : 0,
		"gridsize" : [ 15.0, 15.0 ],
		"gridsnaponopen" : 0,
		"toolbarvisible" : 1,
		"boxanimatetime" : 200,
		"imprint" : 0,
		"metadata" : [  ],
		"boxes" : [ 			{
				"box" : 				{
					"maxclass" : "newobj",
					"text" : "print normal",
					"fontsize" : 12.0,
					"patching_rect" : [ 75.0, 225.0, 74.0, 20.0 ],
					"id" : "obj-15",
					"numinlets" : 1,
					"fontname" : "Arial",
					"numoutlets" : 0
				}

			}
, 			{
				"box" : 				{
					"maxclass" : "bpatcher",
					"patching_rect" : [ 315.0, 285.0, 211.0, 145.0 ],
					"args" : [  ],
					"id" : "obj-64",
					"name" : "dot.menu.maxpat",
					"numinlets" : 0,
					"numoutlets" : 0
				}

			}
, 			{
				"box" : 				{
					"maxclass" : "comment",
					"text" : "A little hack to allow thresh to work with symbols",
					"fontsize" : 14.0,
					"patching_rect" : [ 15.0, 45.0, 473.0, 23.0 ],
					"id" : "obj-16",
					"numinlets" : 1,
					"fontname" : "Arial",
					"numoutlets" : 0
				}

			}
, 			{
				"box" : 				{
					"maxclass" : "comment",
					"varname" : "autohelp_top_title",
					"text" : "dot.thresh",
					"fontface" : 3,
					"fontsize" : 20.871338,
					"patching_rect" : [ 15.0, 15.0, 485.0, 30.0 ],
					"id" : "obj-22",
					"textcolor" : [ 1.0, 1.0, 1.0, 1.0 ],
					"frgb" : [ 1.0, 1.0, 1.0, 1.0 ],
					"numinlets" : 1,
					"fontname" : "Arial",
					"numoutlets" : 0
				}

			}
, 			{
				"box" : 				{
					"maxclass" : "panel",
					"patching_rect" : [ 501.0, 15.0, 4.0, 304.0 ],
					"id" : "obj-60",
					"bgcolor" : [ 0.0, 0.0, 0.0, 1.0 ],
					"numinlets" : 1,
					"numoutlets" : 0
				}

			}
, 			{
				"box" : 				{
					"maxclass" : "message",
					"text" : "dump",
					"outlettype" : [ "" ],
					"fontsize" : 12.0,
					"patching_rect" : [ 165.0, 120.0, 42.0, 18.0 ],
					"id" : "obj-1",
					"numinlets" : 2,
					"fontname" : "Arial",
					"numoutlets" : 1
				}

			}
, 			{
				"box" : 				{
					"maxclass" : "newobj",
					"text" : "coll",
					"outlettype" : [ "", "", "", "" ],
					"fontsize" : 12.0,
					"patching_rect" : [ 165.0, 150.0, 66.0, 20.0 ],
					"id" : "obj-2",
					"numinlets" : 1,
					"fontname" : "Arial",
					"numoutlets" : 4,
					"color" : [ 0.156863, 0.8, 0.54902, 1.0 ],
					"save" : [ "#N", "coll", ";", "#T", "flags", 1, 0, ";", "#T", 1, "first", "item", ";", "#T", 2, "second", "item", ";", "#T", 3, "third", "item", ";", "#T", 4, "etc.", ";" ],
					"saved_object_attributes" : 					{
						"embed" : 1
					}

				}

			}
, 			{
				"box" : 				{
					"maxclass" : "newobj",
					"text" : "print dot.thresh",
					"fontsize" : 12.0,
					"patching_rect" : [ 165.0, 225.0, 91.0, 20.0 ],
					"id" : "obj-3",
					"numinlets" : 1,
					"fontname" : "Arial",
					"numoutlets" : 0
				}

			}
, 			{
				"box" : 				{
					"maxclass" : "comment",
					"text" : "Argument sets the default threshold (5 msec if you don't type an argument)",
					"linecount" : 3,
					"fontsize" : 12.0,
					"patching_rect" : [ 285.0, 195.0, 161.0, 48.0 ],
					"id" : "obj-4",
					"numinlets" : 1,
					"fontname" : "Arial",
					"numoutlets" : 0
				}

			}
, 			{
				"box" : 				{
					"maxclass" : "newobj",
					"text" : "dot.thresh",
					"outlettype" : [ "" ],
					"fontsize" : 12.0,
					"patching_rect" : [ 165.0, 195.0, 64.0, 20.0 ],
					"id" : "obj-5",
					"numinlets" : 1,
					"fontname" : "Arial",
					"numoutlets" : 1,
					"color" : [ 1.0, 0.360784, 0.682353, 1.0 ]
				}

			}
, 			{
				"box" : 				{
					"maxclass" : "comment",
					"text" : "Input: int, float, symbol or list",
					"fontsize" : 12.0,
					"patching_rect" : [ 255.0, 150.0, 194.0, 20.0 ],
					"id" : "obj-11",
					"numinlets" : 1,
					"fontname" : "Arial",
					"numoutlets" : 0
				}

			}
, 			{
				"box" : 				{
					"maxclass" : "panel",
					"varname" : "autohelp_top_panel[1]",
					"patching_rect" : [ 15.0, 15.0, 490.0, 31.0 ],
					"id" : "obj-12",
					"mode" : 1,
					"grad1" : [ 0.0, 0.0, 0.0, 1.0 ],
					"angle" : 180.0,
					"numinlets" : 1,
					"grad2" : [ 1.0, 0.0, 0.0, 1.0 ],
					"numoutlets" : 0,
					"background" : 1
				}

			}
 ],
		"lines" : [ 			{
				"patchline" : 				{
					"source" : [ "obj-2", 0 ],
					"destination" : [ "obj-15", 0 ],
					"hidden" : 0,
					"midpoints" : [ 174.5, 180.0, 84.5, 180.0 ]
				}

			}
, 			{
				"patchline" : 				{
					"source" : [ "obj-5", 0 ],
					"destination" : [ "obj-3", 0 ],
					"hidden" : 0,
					"midpoints" : [  ]
				}

			}
, 			{
				"patchline" : 				{
					"source" : [ "obj-2", 0 ],
					"destination" : [ "obj-5", 0 ],
					"hidden" : 0,
					"midpoints" : [  ]
				}

			}
, 			{
				"patchline" : 				{
					"source" : [ "obj-1", 0 ],
					"destination" : [ "obj-2", 0 ],
					"hidden" : 0,
					"midpoints" : [  ]
				}

			}
 ]
	}

}
