{
	"patcher" : 	{
		"fileversion" : 1,
		"rect" : [ 29.0, 78.0, 532.0, 438.0 ],
		"bglocked" : 0,
		"defrect" : [ 29.0, 78.0, 532.0, 438.0 ],
		"openrect" : [ 0.0, 0.0, 0.0, 0.0 ],
		"openinpresentation" : 0,
		"default_fontsize" : 12.0,
		"default_fontface" : 0,
		"default_fontname" : "Arial",
		"gridonopen" : 0,
		"gridsize" : [ 15.0, 15.0 ],
		"gridsnaponopen" : 0,
		"toolbarvisible" : 1,
		"boxanimatetime" : 200,
		"imprint" : 0,
		"metadata" : [  ],
		"boxes" : [ 			{
				"box" : 				{
					"maxclass" : "bpatcher",
					"id" : "obj-64",
					"name" : "dot.menu.maxpat",
					"args" : [  ],
					"numinlets" : 0,
					"numoutlets" : 0,
					"patching_rect" : [ 315.0, 285.0, 211.0, 145.0 ]
				}

			}
, 			{
				"box" : 				{
					"maxclass" : "comment",
					"text" : "Rescales numbers according to auto-detected maximum and minimum values.",
					"linecount" : 2,
					"id" : "obj-22",
					"fontsize" : 14.0,
					"numinlets" : 1,
					"numoutlets" : 0,
					"patching_rect" : [ 15.0, 45.0, 321.0, 39.0 ],
					"fontname" : "Arial"
				}

			}
, 			{
				"box" : 				{
					"maxclass" : "comment",
					"varname" : "autohelp_top_title",
					"text" : "dot.autoscale",
					"id" : "obj-26",
					"frgb" : [ 1.0, 1.0, 1.0, 1.0 ],
					"fontface" : 3,
					"fontsize" : 20.871338,
					"numinlets" : 1,
					"numoutlets" : 0,
					"patching_rect" : [ 15.0, 15.0, 485.0, 30.0 ],
					"textcolor" : [ 1.0, 1.0, 1.0, 1.0 ],
					"fontname" : "Arial"
				}

			}
, 			{
				"box" : 				{
					"maxclass" : "panel",
					"id" : "obj-60",
					"numinlets" : 1,
					"bgcolor" : [ 0.0, 0.0, 0.0, 1.0 ],
					"numoutlets" : 0,
					"patching_rect" : [ 501.0, 15.0, 4.0, 304.0 ]
				}

			}
, 			{
				"box" : 				{
					"maxclass" : "flonum",
					"id" : "obj-1",
					"fontsize" : 9.0,
					"numinlets" : 1,
					"bgcolor" : [ 0.866667, 0.866667, 0.866667, 1.0 ],
					"triscale" : 0.9,
					"numoutlets" : 2,
					"patching_rect" : [ 45.0, 90.0, 35.0, 17.0 ],
					"htextcolor" : [ 0.870588, 0.870588, 0.870588, 1.0 ],
					"outlettype" : [ "float", "bang" ],
					"fontname" : "Arial"
				}

			}
, 			{
				"box" : 				{
					"maxclass" : "flonum",
					"id" : "obj-2",
					"fontsize" : 9.0,
					"numinlets" : 1,
					"bgcolor" : [ 0.866667, 0.866667, 0.866667, 1.0 ],
					"triscale" : 0.9,
					"numoutlets" : 2,
					"patching_rect" : [ 45.0, 210.0, 35.0, 17.0 ],
					"htextcolor" : [ 0.870588, 0.870588, 0.870588, 1.0 ],
					"outlettype" : [ "float", "bang" ],
					"fontname" : "Arial"
				}

			}
, 			{
				"box" : 				{
					"maxclass" : "message",
					"text" : "bypass 0",
					"id" : "obj-3",
					"fontsize" : 12.0,
					"numinlets" : 2,
					"numoutlets" : 1,
					"patching_rect" : [ 120.0, 330.0, 64.0, 18.0 ],
					"outlettype" : [ "" ],
					"fontname" : "Arial"
				}

			}
, 			{
				"box" : 				{
					"maxclass" : "message",
					"text" : "bypass 1",
					"id" : "obj-4",
					"fontsize" : 12.0,
					"numinlets" : 2,
					"numoutlets" : 1,
					"patching_rect" : [ 45.0, 330.0, 64.0, 18.0 ],
					"outlettype" : [ "" ],
					"fontname" : "Arial"
				}

			}
, 			{
				"box" : 				{
					"maxclass" : "newobj",
					"text" : "print dot",
					"id" : "obj-5",
					"fontsize" : 12.0,
					"numinlets" : 1,
					"numoutlets" : 0,
					"patching_rect" : [ 180.0, 180.0, 63.0, 20.0 ],
					"fontname" : "Arial"
				}

			}
, 			{
				"box" : 				{
					"maxclass" : "comment",
					"text" : "can set scaling using input/output ranges or multiplier/offset",
					"linecount" : 5,
					"id" : "obj-6",
					"fontsize" : 12.0,
					"numinlets" : 1,
					"numoutlets" : 0,
					"patching_rect" : [ 150.0, 240.0, 97.0, 75.0 ],
					"fontname" : "Arial"
				}

			}
, 			{
				"box" : 				{
					"maxclass" : "message",
					"text" : "linear 1.2 100",
					"id" : "obj-7",
					"fontsize" : 12.0,
					"numinlets" : 2,
					"numoutlets" : 1,
					"patching_rect" : [ 45.0, 300.0, 97.0, 18.0 ],
					"outlettype" : [ "" ],
					"fontname" : "Arial"
				}

			}
, 			{
				"box" : 				{
					"maxclass" : "message",
					"text" : "rangeout 0 10",
					"id" : "obj-8",
					"fontsize" : 12.0,
					"numinlets" : 2,
					"numoutlets" : 1,
					"patching_rect" : [ 45.0, 270.0, 95.0, 18.0 ],
					"outlettype" : [ "" ],
					"fontname" : "Arial"
				}

			}
, 			{
				"box" : 				{
					"maxclass" : "message",
					"text" : "rangein 10 50",
					"id" : "obj-10",
					"fontsize" : 12.0,
					"numinlets" : 2,
					"numoutlets" : 1,
					"patching_rect" : [ 45.0, 240.0, 94.0, 18.0 ],
					"outlettype" : [ "" ],
					"fontname" : "Arial"
				}

			}
, 			{
				"box" : 				{
					"maxclass" : "comment",
					"text" : "Recalibrate",
					"id" : "obj-11",
					"fontsize" : 12.0,
					"numinlets" : 1,
					"numoutlets" : 0,
					"patching_rect" : [ 165.0, 120.0, 73.0, 20.0 ],
					"fontname" : "Arial"
				}

			}
, 			{
				"box" : 				{
					"maxclass" : "newobj",
					"text" : "dot.autoscale 0 127 clip",
					"id" : "obj-12",
					"fontsize" : 12.0,
					"numinlets" : 1,
					"numoutlets" : 2,
					"patching_rect" : [ 165.0, 375.0, 138.0, 20.0 ],
					"color" : [ 1.0, 0.360784, 0.682353, 1.0 ],
					"outlettype" : [ "", "" ],
					"fontname" : "Arial"
				}

			}
, 			{
				"box" : 				{
					"maxclass" : "multislider",
					"id" : "obj-13",
					"candicane7" : [ 0.878431, 0.243137, 0.145098, 1.0 ],
					"candicane8" : [ 0.027451, 0.447059, 0.501961, 1.0 ],
					"setminmax" : [ 0.0, 127.0 ],
					"peakcolor" : [ 0.498039, 0.498039, 0.498039, 1.0 ],
					"numinlets" : 1,
					"candicane5" : [ 0.584314, 0.827451, 0.431373, 1.0 ],
					"settype" : 0,
					"candicane6" : [ 0.733333, 0.035294, 0.788235, 1.0 ],
					"numoutlets" : 2,
					"patching_rect" : [ 270.0, 180.0, 197.0, 91.0 ],
					"candicane4" : [ 0.439216, 0.619608, 0.070588, 1.0 ],
					"setstyle" : 2,
					"outlettype" : [ "", "" ],
					"candicane2" : [ 0.145098, 0.203922, 0.356863, 1.0 ],
					"candicane3" : [ 0.290196, 0.411765, 0.713726, 1.0 ]
				}

			}
, 			{
				"box" : 				{
					"maxclass" : "slider",
					"id" : "obj-14",
					"numinlets" : 1,
					"numoutlets" : 1,
					"patching_rect" : [ 90.0, 210.0, 144.0, 18.0 ],
					"outlettype" : [ "" ],
					"orientation" : 1
				}

			}
, 			{
				"box" : 				{
					"maxclass" : "toggle",
					"id" : "obj-15",
					"numinlets" : 1,
					"numoutlets" : 1,
					"patching_rect" : [ 135.0, 120.0, 17.0, 17.0 ],
					"outlettype" : [ "int" ]
				}

			}
, 			{
				"box" : 				{
					"maxclass" : "message",
					"text" : "calibrate $1",
					"id" : "obj-16",
					"fontsize" : 12.0,
					"numinlets" : 2,
					"numoutlets" : 1,
					"patching_rect" : [ 60.0, 120.0, 73.0, 18.0 ],
					"outlettype" : [ "" ],
					"fontname" : "Arial"
				}

			}
, 			{
				"box" : 				{
					"maxclass" : "slider",
					"id" : "obj-17",
					"numinlets" : 1,
					"numoutlets" : 1,
					"patching_rect" : [ 90.0, 90.0, 144.0, 18.0 ],
					"outlettype" : [ "" ],
					"orientation" : 1
				}

			}
, 			{
				"box" : 				{
					"maxclass" : "newobj",
					"text" : "dot.autoscale 0 127",
					"id" : "obj-18",
					"fontsize" : 12.0,
					"numinlets" : 1,
					"numoutlets" : 2,
					"patching_rect" : [ 45.0, 180.0, 124.0, 20.0 ],
					"color" : [ 1.0, 0.360784, 0.682353, 1.0 ],
					"outlettype" : [ "", "" ],
					"fontname" : "Arial"
				}

			}
, 			{
				"box" : 				{
					"maxclass" : "comment",
					"text" : "Optional 3rd argument clips output.",
					"linecount" : 2,
					"id" : "obj-19",
					"fontsize" : 12.0,
					"numinlets" : 1,
					"numoutlets" : 0,
					"patching_rect" : [ 30.0, 375.0, 140.0, 34.0 ],
					"fontname" : "Arial"
				}

			}
, 			{
				"box" : 				{
					"maxclass" : "comment",
					"text" : "Arguments set output range",
					"id" : "obj-20",
					"fontsize" : 12.0,
					"numinlets" : 1,
					"numoutlets" : 0,
					"patching_rect" : [ 75.0, 150.0, 170.0, 20.0 ],
					"fontname" : "Arial"
				}

			}
, 			{
				"box" : 				{
					"maxclass" : "multislider",
					"id" : "obj-21",
					"candicane7" : [ 0.878431, 0.243137, 0.145098, 1.0 ],
					"candicane8" : [ 0.027451, 0.447059, 0.501961, 1.0 ],
					"setminmax" : [ 0.0, 127.0 ],
					"peakcolor" : [ 0.498039, 0.498039, 0.498039, 1.0 ],
					"numinlets" : 1,
					"candicane5" : [ 0.584314, 0.827451, 0.431373, 1.0 ],
					"settype" : 0,
					"candicane6" : [ 0.733333, 0.035294, 0.788235, 1.0 ],
					"numoutlets" : 2,
					"patching_rect" : [ 270.0, 90.0, 197.0, 91.0 ],
					"candicane4" : [ 0.439216, 0.619608, 0.070588, 1.0 ],
					"setstyle" : 2,
					"outlettype" : [ "", "" ],
					"candicane2" : [ 0.145098, 0.203922, 0.356863, 1.0 ],
					"candicane3" : [ 0.290196, 0.411765, 0.713726, 1.0 ]
				}

			}
, 			{
				"box" : 				{
					"maxclass" : "panel",
					"varname" : "autohelp_top_panel[1]",
					"id" : "obj-27",
					"mode" : 1,
					"numinlets" : 1,
					"grad1" : [ 0.0, 0.0, 0.0, 1.0 ],
					"numoutlets" : 0,
					"patching_rect" : [ 15.0, 15.0, 490.0, 31.0 ],
					"background" : 1,
					"grad2" : [ 1.0, 0.0, 0.0, 1.0 ],
					"angle" : 180.0
				}

			}
 ],
		"lines" : [ 			{
				"patchline" : 				{
					"source" : [ "obj-8", 0 ],
					"destination" : [ "obj-18", 0 ],
					"hidden" : 1,
					"midpoints" : [  ]
				}

			}
, 			{
				"patchline" : 				{
					"source" : [ "obj-10", 0 ],
					"destination" : [ "obj-18", 0 ],
					"hidden" : 1,
					"midpoints" : [  ]
				}

			}
, 			{
				"patchline" : 				{
					"source" : [ "obj-16", 0 ],
					"destination" : [ "obj-18", 0 ],
					"hidden" : 0,
					"midpoints" : [ 69.5, 168.0, 54.5, 168.0 ]
				}

			}
, 			{
				"patchline" : 				{
					"source" : [ "obj-7", 0 ],
					"destination" : [ "obj-18", 0 ],
					"hidden" : 1,
					"midpoints" : [  ]
				}

			}
, 			{
				"patchline" : 				{
					"source" : [ "obj-4", 0 ],
					"destination" : [ "obj-18", 0 ],
					"hidden" : 1,
					"midpoints" : [  ]
				}

			}
, 			{
				"patchline" : 				{
					"source" : [ "obj-3", 0 ],
					"destination" : [ "obj-18", 0 ],
					"hidden" : 1,
					"midpoints" : [  ]
				}

			}
, 			{
				"patchline" : 				{
					"source" : [ "obj-1", 0 ],
					"destination" : [ "obj-18", 0 ],
					"hidden" : 0,
					"midpoints" : [  ]
				}

			}
, 			{
				"patchline" : 				{
					"source" : [ "obj-18", 0 ],
					"destination" : [ "obj-2", 0 ],
					"hidden" : 0,
					"midpoints" : [  ]
				}

			}
, 			{
				"patchline" : 				{
					"source" : [ "obj-18", 1 ],
					"destination" : [ "obj-5", 0 ],
					"hidden" : 0,
					"midpoints" : [ 159.5, 201.0, 177.0, 201.0, 177.0, 177.0, 189.5, 177.0 ]
				}

			}
, 			{
				"patchline" : 				{
					"source" : [ "obj-14", 0 ],
					"destination" : [ "obj-13", 0 ],
					"hidden" : 1,
					"midpoints" : [  ]
				}

			}
, 			{
				"patchline" : 				{
					"source" : [ "obj-17", 0 ],
					"destination" : [ "obj-21", 0 ],
					"hidden" : 1,
					"midpoints" : [  ]
				}

			}
, 			{
				"patchline" : 				{
					"source" : [ "obj-15", 0 ],
					"destination" : [ "obj-16", 0 ],
					"hidden" : 1,
					"midpoints" : [  ]
				}

			}
, 			{
				"patchline" : 				{
					"source" : [ "obj-2", 0 ],
					"destination" : [ "obj-14", 0 ],
					"hidden" : 0,
					"midpoints" : [ 54.5, 228.0, 87.0, 228.0, 87.0, 207.0, 99.5, 207.0 ]
				}

			}
, 			{
				"patchline" : 				{
					"source" : [ "obj-17", 0 ],
					"destination" : [ "obj-1", 0 ],
					"hidden" : 0,
					"midpoints" : [ 99.5, 108.0, 81.0, 108.0, 81.0, 87.0, 54.5, 87.0 ]
				}

			}
 ]
	}

}
