{
	"patcher" : 	{
		"fileversion" : 1,
		"rect" : [ 9.0, 44.0, 1009.0, 703.0 ],
		"bglocked" : 0,
		"defrect" : [ 9.0, 44.0, 1009.0, 703.0 ],
		"openrect" : [ 0.0, 0.0, 0.0, 0.0 ],
		"openinpresentation" : 0,
		"default_fontsize" : 10.0,
		"default_fontface" : 0,
		"default_fontname" : "Verdana",
		"gridonopen" : 0,
		"gridsize" : [ 5.0, 5.0 ],
		"gridsnaponopen" : 0,
		"toolbarvisible" : 1,
		"boxanimatetime" : 200,
		"imprint" : 0,
		"metadata" : [  ],
		"boxes" : [ 			{
				"box" : 				{
					"maxclass" : "newobj",
					"text" : "loadmess set",
					"id" : "obj-16",
					"fontname" : "Verdana",
					"hidden" : 1,
					"presentation_rect" : [ 193.0, 635.0, 0.0, 0.0 ],
					"numinlets" : 1,
					"numoutlets" : 1,
					"patching_rect" : [ 193.0, 635.0, 76.0, 19.0 ],
					"fontsize" : 10.0,
					"outlettype" : [ "" ]
				}

			}
, 			{
				"box" : 				{
					"maxclass" : "newobj",
					"text" : "loadmess set",
					"id" : "obj-31",
					"fontname" : "Verdana",
					"hidden" : 1,
					"numinlets" : 1,
					"numoutlets" : 1,
					"patching_rect" : [ 209.0, 248.0, 76.0, 19.0 ],
					"fontsize" : 10.0,
					"outlettype" : [ "" ]
				}

			}
, 			{
				"box" : 				{
					"maxclass" : "message",
					"text" : "/source.1/position 2 3 0.4",
					"id" : "obj-28",
					"fontname" : "Verdana",
					"numinlets" : 2,
					"numoutlets" : 1,
					"patching_rect" : [ 41.0, 249.0, 263.0, 17.0 ],
					"fontsize" : 10.0,
					"outlettype" : [ "" ]
				}

			}
, 			{
				"box" : 				{
					"maxclass" : "newobj",
					"text" : "route /type",
					"id" : "obj-26",
					"fontname" : "Verdana",
					"numinlets" : 1,
					"numoutlets" : 2,
					"patching_rect" : [ 57.0, 286.0, 67.0, 19.0 ],
					"fontsize" : 10.0,
					"outlettype" : [ "", "" ]
				}

			}
, 			{
				"box" : 				{
					"maxclass" : "newobj",
					"text" : "prepend prefix",
					"id" : "obj-35",
					"fontname" : "Verdana",
					"numinlets" : 1,
					"numoutlets" : 1,
					"patching_rect" : [ 57.0, 311.0, 84.0, 19.0 ],
					"fontsize" : 10.0,
					"outlettype" : [ "" ]
				}

			}
, 			{
				"box" : 				{
					"maxclass" : "message",
					"text" : "/type speaker",
					"id" : "obj-21",
					"fontname" : "Verdana",
					"numinlets" : 2,
					"numoutlets" : 1,
					"patching_rect" : [ 198.0, 120.0, 80.0, 17.0 ],
					"fontsize" : 10.0,
					"outlettype" : [ "" ]
				}

			}
, 			{
				"box" : 				{
					"maxclass" : "message",
					"text" : "/type source, /numSources 1, /source.1/position 2 3 0.4",
					"id" : "obj-15",
					"fontname" : "Verdana",
					"numinlets" : 2,
					"numoutlets" : 1,
					"patching_rect" : [ 126.0, 146.0, 296.0, 17.0 ],
					"fontsize" : 10.0,
					"outlettype" : [ "" ]
				}

			}
, 			{
				"box" : 				{
					"maxclass" : "newobj",
					"text" : "sel /channels",
					"id" : "obj-19",
					"fontname" : "Verdana",
					"numinlets" : 1,
					"numoutlets" : 2,
					"patching_rect" : [ 220.0, 345.0, 77.0, 19.0 ],
					"fontsize" : 10.0,
					"outlettype" : [ "bang", "" ]
				}

			}
, 			{
				"box" : 				{
					"maxclass" : "message",
					"text" : "clear",
					"id" : "obj-18",
					"fontname" : "Verdana",
					"numinlets" : 2,
					"numoutlets" : 1,
					"patching_rect" : [ 220.0, 370.0, 35.0, 17.0 ],
					"fontsize" : 10.0,
					"outlettype" : [ "" ]
				}

			}
, 			{
				"box" : 				{
					"maxclass" : "newobj",
					"text" : "jcom.position2ambimonitor @prefix instance @radius 10.",
					"linecount" : 2,
					"id" : "obj-14",
					"fontname" : "Verdana",
					"numinlets" : 1,
					"numoutlets" : 1,
					"patching_rect" : [ 25.0, 350.0, 167.0, 31.0 ],
					"fontsize" : 10.0,
					"outlettype" : [ "" ]
				}

			}
, 			{
				"box" : 				{
					"maxclass" : "newobj",
					"text" : "jcom.ambimonitor2position @prefix instance @radius 10.",
					"id" : "obj-10",
					"fontname" : "Verdana",
					"numinlets" : 1,
					"numoutlets" : 1,
					"patching_rect" : [ 25.0, 607.0, 300.0, 19.0 ],
					"fontsize" : 10.0,
					"outlettype" : [ "" ]
				}

			}
, 			{
				"box" : 				{
					"maxclass" : "ambimonitor",
					"pt_image_file3" : "",
					"id" : "obj-2",
					"presentation_rect" : [ 0.0, 0.0, 100.0, 100.0 ],
					"pt_image_file4" : "",
					"numinlets" : 1,
					"numbers" : 1,
					"pt_image_file2" : "",
					"numoutlets" : 3,
					"patching_rect" : [ 25.0, 397.0, 200.0, 200.0 ],
					"outlettype" : [ "", "", "" ]
				}

			}
, 			{
				"box" : 				{
					"maxclass" : "comment",
					"text" : "jmod.sur.setup",
					"id" : "obj-6",
					"fontname" : "Verdana",
					"numinlets" : 1,
					"frgb" : [ 0.0, 0.0, 0.0, 1.0 ],
					"numoutlets" : 0,
					"patching_rect" : [ 15.0, 13.0, 196.0, 28.0 ],
					"fontsize" : 18.0
				}

			}
, 			{
				"box" : 				{
					"maxclass" : "comment",
					"text" : "Module for describing arrangements of instances as sets of XYZ coordinates",
					"id" : "obj-7",
					"fontname" : "Verdana",
					"numinlets" : 1,
					"frgb" : [ 0.0, 0.0, 0.0, 1.0 ],
					"numoutlets" : 0,
					"patching_rect" : [ 16.0, 43.0, 394.0, 19.0 ],
					"fontsize" : 10.0
				}

			}
, 			{
				"box" : 				{
					"maxclass" : "panel",
					"rounded" : 0,
					"id" : "obj-8",
					"numinlets" : 1,
					"numoutlets" : 0,
					"patching_rect" : [ 8.0, 9.0, 398.0, 58.0 ]
				}

			}
, 			{
				"box" : 				{
					"maxclass" : "comment",
					"text" : "Common layouts are provided as presets.",
					"id" : "obj-1",
					"fontname" : "Verdana",
					"numinlets" : 1,
					"frgb" : [ 0.0, 0.0, 0.0, 1.0 ],
					"numoutlets" : 0,
					"patching_rect" : [ 15.0, 88.0, 345.0, 19.0 ],
					"fontsize" : 10.0
				}

			}
, 			{
				"box" : 				{
					"maxclass" : "bpatcher",
					"id" : "obj-11",
					"presentation_rect" : [ 0.0, 0.0, 150.0, 70.0 ],
					"numinlets" : 1,
					"lockeddragscroll" : 1,
					"numoutlets" : 1,
					"patching_rect" : [ 25.0, 174.0, 150.0, 70.0 ],
					"args" : [ "/setup" ],
					"outlettype" : [ "" ],
					"name" : "jmod.sur.setup.maxpat"
				}

			}
, 			{
				"box" : 				{
					"maxclass" : "comment",
					"text" : "Number of instances",
					"id" : "obj-12",
					"fontname" : "Verdana",
					"numinlets" : 1,
					"frgb" : [ 0.0, 0.0, 0.0, 1.0 ],
					"numoutlets" : 0,
					"patching_rect" : [ 60.0, 119.0, 132.0, 19.0 ],
					"fontsize" : 10.0
				}

			}
, 			{
				"box" : 				{
					"maxclass" : "comment",
					"text" : "Coordinates can be set in the inspector.",
					"id" : "obj-13",
					"fontname" : "Verdana",
					"numinlets" : 1,
					"frgb" : [ 0.0, 0.0, 0.0, 1.0 ],
					"numoutlets" : 0,
					"patching_rect" : [ 15.0, 70.0, 344.0, 19.0 ],
					"fontsize" : 10.0
				}

			}
, 			{
				"box" : 				{
					"maxclass" : "bpatcher",
					"id" : "obj-3",
					"numinlets" : 0,
					"lockeddragscroll" : 1,
					"border" : 1,
					"numoutlets" : 0,
					"patching_rect" : [ 446.0, 8.0, 540.0, 675.0 ],
					"args" : [  ],
					"name" : "jcom.SpatDIF.coordinates.maxpat"
				}

			}
, 			{
				"box" : 				{
					"maxclass" : "newobj",
					"text" : "p equal_distro",
					"id" : "obj-4",
					"fontname" : "Verdana",
					"numinlets" : 1,
					"numoutlets" : 1,
					"patching_rect" : [ 25.0, 144.0, 82.0, 19.0 ],
					"fontsize" : 10.0,
					"outlettype" : [ "" ],
					"patcher" : 					{
						"fileversion" : 1,
						"rect" : [ 438.0, 297.0, 618.0, 376.0 ],
						"bglocked" : 0,
						"defrect" : [ 438.0, 297.0, 618.0, 376.0 ],
						"openrect" : [ 0.0, 0.0, 0.0, 0.0 ],
						"openinpresentation" : 0,
						"default_fontsize" : 10.0,
						"default_fontface" : 0,
						"default_fontname" : "Verdana",
						"gridonopen" : 0,
						"gridsize" : [ 5.0, 5.0 ],
						"gridsnaponopen" : 0,
						"toolbarvisible" : 1,
						"boxanimatetime" : 200,
						"imprint" : 0,
						"metadata" : [  ],
						"boxes" : [ 							{
								"box" : 								{
									"maxclass" : "message",
									"text" : "/channels $1",
									"id" : "obj-1",
									"fontname" : "Verdana",
									"numinlets" : 2,
									"numoutlets" : 1,
									"patching_rect" : [ 459.0, 118.0, 75.0, 17.0 ],
									"fontsize" : 10.0,
									"outlettype" : [ "" ]
								}

							}
, 							{
								"box" : 								{
									"maxclass" : "newobj",
									"text" : "jcom.dataspace @dataspace position @input aed @output xyz",
									"linecount" : 2,
									"id" : "obj-10",
									"fontname" : "Verdana",
									"numinlets" : 1,
									"numoutlets" : 2,
									"patching_rect" : [ 270.0, 225.0, 176.0, 31.0 ],
									"fontsize" : 10.0,
									"outlettype" : [ "", "" ]
								}

							}
, 							{
								"box" : 								{
									"maxclass" : "inlet",
									"id" : "obj-11",
									"numinlets" : 0,
									"numoutlets" : 1,
									"patching_rect" : [ 53.0, 9.0, 25.0, 25.0 ],
									"outlettype" : [ "int" ],
									"comment" : ""
								}

							}
, 							{
								"box" : 								{
									"maxclass" : "outlet",
									"id" : "obj-12",
									"numinlets" : 1,
									"numoutlets" : 0,
									"patching_rect" : [ 85.0, 320.0, 25.0, 25.0 ],
									"comment" : ""
								}

							}
, 							{
								"box" : 								{
									"maxclass" : "newobj",
									"text" : "qlim 100",
									"id" : "obj-13",
									"fontname" : "Verdana",
									"numinlets" : 2,
									"numoutlets" : 1,
									"patching_rect" : [ 53.0, 39.0, 55.0, 19.0 ],
									"fontsize" : 10.0,
									"outlettype" : [ "" ]
								}

							}
, 							{
								"box" : 								{
									"maxclass" : "newobj",
									"text" : "!/ 360.",
									"id" : "obj-2",
									"fontname" : "Verdana",
									"numinlets" : 2,
									"numoutlets" : 1,
									"patching_rect" : [ 325.0, 130.0, 47.0, 19.0 ],
									"fontsize" : 10.0,
									"outlettype" : [ "float" ]
								}

							}
, 							{
								"box" : 								{
									"maxclass" : "newobj",
									"text" : "t i i i i",
									"id" : "obj-3",
									"fontname" : "Verdana",
									"numinlets" : 1,
									"numoutlets" : 4,
									"patching_rect" : [ 53.0, 66.0, 59.5, 19.0 ],
									"fontsize" : 10.0,
									"outlettype" : [ "int", "int", "int", "int" ]
								}

							}
, 							{
								"box" : 								{
									"maxclass" : "newobj",
									"text" : "zl join",
									"id" : "obj-4",
									"fontname" : "Verdana",
									"numinlets" : 2,
									"numoutlets" : 2,
									"patching_rect" : [ 85.0, 280.0, 42.0, 19.0 ],
									"fontsize" : 10.0,
									"outlettype" : [ "", "" ]
								}

							}
, 							{
								"box" : 								{
									"maxclass" : "message",
									"text" : "$1 0. 5",
									"id" : "obj-5",
									"fontname" : "Verdana",
									"numinlets" : 2,
									"numoutlets" : 1,
									"patching_rect" : [ 270.0, 200.0, 48.0, 17.0 ],
									"fontsize" : 10.0,
									"outlettype" : [ "" ]
								}

							}
, 							{
								"box" : 								{
									"maxclass" : "newobj",
									"text" : "sprintf /instance.%ld/position",
									"id" : "obj-6",
									"fontname" : "Verdana",
									"numinlets" : 1,
									"numoutlets" : 1,
									"patching_rect" : [ 85.0, 205.0, 160.0, 19.0 ],
									"fontsize" : 10.0,
									"outlettype" : [ "" ]
								}

							}
, 							{
								"box" : 								{
									"maxclass" : "newobj",
									"text" : "* 45.",
									"id" : "obj-7",
									"fontname" : "Verdana",
									"numinlets" : 2,
									"numoutlets" : 1,
									"patching_rect" : [ 270.0, 175.0, 39.0, 19.0 ],
									"fontsize" : 10.0,
									"outlettype" : [ "float" ]
								}

							}
, 							{
								"box" : 								{
									"maxclass" : "newobj",
									"text" : "- 1",
									"id" : "obj-8",
									"fontname" : "Verdana",
									"numinlets" : 2,
									"numoutlets" : 1,
									"patching_rect" : [ 270.0, 150.0, 30.0, 19.0 ],
									"fontsize" : 10.0,
									"outlettype" : [ "int" ]
								}

							}
, 							{
								"box" : 								{
									"maxclass" : "newobj",
									"text" : "uzi 8 1",
									"id" : "obj-9",
									"fontname" : "Verdana",
									"numinlets" : 2,
									"numoutlets" : 3,
									"patching_rect" : [ 53.0, 109.0, 51.0, 19.0 ],
									"fontsize" : 10.0,
									"outlettype" : [ "bang", "bang", "int" ]
								}

							}
 ],
						"lines" : [ 							{
								"patchline" : 								{
									"source" : [ "obj-6", 0 ],
									"destination" : [ "obj-4", 0 ],
									"hidden" : 0,
									"midpoints" : [  ]
								}

							}
, 							{
								"patchline" : 								{
									"source" : [ "obj-9", 2 ],
									"destination" : [ "obj-6", 0 ],
									"hidden" : 0,
									"midpoints" : [  ]
								}

							}
, 							{
								"patchline" : 								{
									"source" : [ "obj-13", 0 ],
									"destination" : [ "obj-3", 0 ],
									"hidden" : 0,
									"midpoints" : [  ]
								}

							}
, 							{
								"patchline" : 								{
									"source" : [ "obj-3", 2 ],
									"destination" : [ "obj-1", 0 ],
									"hidden" : 0,
									"midpoints" : [ 89.5, 88.0, 468.5, 88.0 ]
								}

							}
, 							{
								"patchline" : 								{
									"source" : [ "obj-3", 1 ],
									"destination" : [ "obj-2", 0 ],
									"hidden" : 0,
									"midpoints" : [ 76.0, 94.0, 334.5, 94.0 ]
								}

							}
, 							{
								"patchline" : 								{
									"source" : [ "obj-3", 0 ],
									"destination" : [ "obj-9", 0 ],
									"hidden" : 0,
									"midpoints" : [  ]
								}

							}
, 							{
								"patchline" : 								{
									"source" : [ "obj-9", 2 ],
									"destination" : [ "obj-8", 0 ],
									"hidden" : 0,
									"midpoints" : [ 94.5, 140.0, 279.5, 140.0 ]
								}

							}
, 							{
								"patchline" : 								{
									"source" : [ "obj-8", 0 ],
									"destination" : [ "obj-7", 0 ],
									"hidden" : 0,
									"midpoints" : [  ]
								}

							}
, 							{
								"patchline" : 								{
									"source" : [ "obj-7", 0 ],
									"destination" : [ "obj-5", 0 ],
									"hidden" : 0,
									"midpoints" : [  ]
								}

							}
, 							{
								"patchline" : 								{
									"source" : [ "obj-5", 0 ],
									"destination" : [ "obj-10", 0 ],
									"hidden" : 0,
									"midpoints" : [  ]
								}

							}
, 							{
								"patchline" : 								{
									"source" : [ "obj-4", 0 ],
									"destination" : [ "obj-12", 0 ],
									"hidden" : 0,
									"midpoints" : [  ]
								}

							}
, 							{
								"patchline" : 								{
									"source" : [ "obj-2", 0 ],
									"destination" : [ "obj-7", 1 ],
									"hidden" : 0,
									"midpoints" : [  ]
								}

							}
, 							{
								"patchline" : 								{
									"source" : [ "obj-11", 0 ],
									"destination" : [ "obj-13", 0 ],
									"hidden" : 0,
									"midpoints" : [  ]
								}

							}
, 							{
								"patchline" : 								{
									"source" : [ "obj-10", 0 ],
									"destination" : [ "obj-4", 1 ],
									"hidden" : 0,
									"midpoints" : [ 279.5, 267.5, 117.5, 267.5 ]
								}

							}
, 							{
								"patchline" : 								{
									"source" : [ "obj-1", 0 ],
									"destination" : [ "obj-12", 0 ],
									"hidden" : 0,
									"midpoints" : [ 468.5, 308.0, 94.5, 308.0 ]
								}

							}
 ]
					}
,
					"saved_object_attributes" : 					{
						"fontname" : "Verdana",
						"default_fontface" : 0,
						"globalpatchername" : "",
						"fontface" : 0,
						"default_fontname" : "Verdana",
						"fontsize" : 10.0,
						"default_fontsize" : 10.0
					}

				}

			}
, 			{
				"box" : 				{
					"maxclass" : "message",
					"text" : "/source.1/position 2. 3. 0.4",
					"id" : "obj-5",
					"fontname" : "Verdana",
					"numinlets" : 2,
					"numoutlets" : 1,
					"patching_rect" : [ 24.0, 636.0, 250.0, 17.0 ],
					"fontsize" : 10.0,
					"outlettype" : [ "" ]
				}

			}
, 			{
				"box" : 				{
					"maxclass" : "number",
					"id" : "obj-9",
					"fontname" : "Verdana",
					"numinlets" : 1,
					"minimum" : 0,
					"numoutlets" : 2,
					"patching_rect" : [ 25.0, 119.0, 37.0, 19.0 ],
					"fontsize" : 10.0,
					"maximum" : 32,
					"outlettype" : [ "int", "bang" ],
					"triscale" : 0.9
				}

			}
 ],
		"lines" : [ 			{
				"patchline" : 				{
					"source" : [ "obj-16", 0 ],
					"destination" : [ "obj-5", 0 ],
					"hidden" : 1,
					"midpoints" : [  ]
				}

			}
, 			{
				"patchline" : 				{
					"source" : [ "obj-19", 0 ],
					"destination" : [ "obj-18", 0 ],
					"hidden" : 0,
					"midpoints" : [  ]
				}

			}
, 			{
				"patchline" : 				{
					"source" : [ "obj-9", 0 ],
					"destination" : [ "obj-4", 0 ],
					"hidden" : 0,
					"midpoints" : [  ]
				}

			}
, 			{
				"patchline" : 				{
					"source" : [ "obj-14", 0 ],
					"destination" : [ "obj-2", 0 ],
					"hidden" : 0,
					"midpoints" : [  ]
				}

			}
, 			{
				"patchline" : 				{
					"source" : [ "obj-18", 0 ],
					"destination" : [ "obj-2", 0 ],
					"hidden" : 0,
					"midpoints" : [ 229.5, 388.0, 36.0, 388.0, 36.0, 394.0, 34.5, 394.0 ]
				}

			}
, 			{
				"patchline" : 				{
					"source" : [ "obj-11", 0 ],
					"destination" : [ "obj-14", 0 ],
					"hidden" : 0,
					"midpoints" : [  ]
				}

			}
, 			{
				"patchline" : 				{
					"source" : [ "obj-4", 0 ],
					"destination" : [ "obj-11", 0 ],
					"hidden" : 0,
					"midpoints" : [  ]
				}

			}
, 			{
				"patchline" : 				{
					"source" : [ "obj-15", 0 ],
					"destination" : [ "obj-11", 0 ],
					"hidden" : 0,
					"midpoints" : [ 135.5, 170.0, 36.0, 170.0, 36.0, 169.0, 34.5, 169.0 ]
				}

			}
, 			{
				"patchline" : 				{
					"source" : [ "obj-11", 0 ],
					"destination" : [ "obj-19", 0 ],
					"hidden" : 0,
					"midpoints" : [ 34.5, 276.0, 229.5, 276.0 ]
				}

			}
, 			{
				"patchline" : 				{
					"source" : [ "obj-21", 0 ],
					"destination" : [ "obj-11", 0 ],
					"hidden" : 0,
					"midpoints" : [ 207.5, 142.0, 108.0, 142.0, 108.0, 170.0, 34.5, 170.0 ]
				}

			}
, 			{
				"patchline" : 				{
					"source" : [ "obj-35", 0 ],
					"destination" : [ "obj-14", 0 ],
					"hidden" : 0,
					"midpoints" : [ 66.5, 330.0, 34.5, 330.0 ]
				}

			}
, 			{
				"patchline" : 				{
					"source" : [ "obj-35", 0 ],
					"destination" : [ "obj-10", 0 ],
					"hidden" : 0,
					"midpoints" : [ 66.5, 330.0, 12.0, 330.0, 12.0, 603.0, 34.5, 603.0 ]
				}

			}
, 			{
				"patchline" : 				{
					"source" : [ "obj-10", 0 ],
					"destination" : [ "obj-5", 1 ],
					"hidden" : 0,
					"midpoints" : [ 34.5, 631.0, 264.5, 631.0 ]
				}

			}
, 			{
				"patchline" : 				{
					"source" : [ "obj-2", 0 ],
					"destination" : [ "obj-10", 0 ],
					"hidden" : 0,
					"midpoints" : [  ]
				}

			}
, 			{
				"patchline" : 				{
					"source" : [ "obj-11", 0 ],
					"destination" : [ "obj-28", 1 ],
					"hidden" : 1,
					"midpoints" : [  ]
				}

			}
, 			{
				"patchline" : 				{
					"source" : [ "obj-11", 0 ],
					"destination" : [ "obj-26", 0 ],
					"hidden" : 0,
					"midpoints" : [ 34.5, 276.0, 66.5, 276.0 ]
				}

			}
, 			{
				"patchline" : 				{
					"source" : [ "obj-26", 0 ],
					"destination" : [ "obj-35", 0 ],
					"hidden" : 0,
					"midpoints" : [  ]
				}

			}
, 			{
				"patchline" : 				{
					"source" : [ "obj-31", 0 ],
					"destination" : [ "obj-28", 0 ],
					"hidden" : 1,
					"midpoints" : [  ]
				}

			}
 ]
	}

}
