#N canvas 665 148 450 300 10;
#X obj 167 112 ttclip~;
#X obj 168 54 sig~;
#X obj 166 155 snapshot~;
#X obj 168 35 nbx 5 14 -1e+37 1e+37 0 0 empty empty empty 0 -8 0 10
-262144 -1 -1 4.5 256;
#X obj 166 181 nbx 5 14 -1e+37 1e+37 0 0 empty empty empty 0 -8 0 10
-262144 -1 -1 3.1415 256;
#X obj 71 123 bng 15 250 50 0 empty empty empty 17 7 0 10 -262144 -1
-1;
#X msg 223 75 lowbound -1;
#X msg 228 97 highbound 3.1415;
#X obj 71 80 tgl 15 0 empty empty empty 17 7 0 10 -262144 -1 -1 0 1
;
#X obj 71 100 metro 100;
#X obj 71 56 loadbang;
#X connect 0 0 2 0;
#X connect 1 0 0 0;
#X connect 2 0 4 0;
#X connect 3 0 1 0;
#X connect 5 0 2 0;
#X connect 6 0 0 0;
#X connect 7 0 0 0;
#X connect 8 0 9 0;
#X connect 9 0 5 0;
#X connect 10 0 8 0;
