max v2;#N vpatcher 27 44 1278 795;#P origin -2 -51;#P window setfont "Sans Serif" 9.;#P hidden newex 805 252 68 196617 pvar Camera;#P hidden newex 805 272 368 196617 jcom.parameter camera/camera @type msg_int @description "Choose camera";#P objectname camera/camera;#P hidden newex 805 203 64 196617 pvar Device;#P hidden newex 805 223 374 196617 jcom.parameter camera/device @type msg_int @description "Input device type";#P objectname camera/device;#P hidden newex 339 18 70 196617 r $1_camera;#P hidden newex 270 18 66 196617 r $1_device;#P window linecount 2;#P hidden newex 803 449 301 196617 jcom.parameter file/framedump @type msg_toggle @repetitions 0 @description "Turn on or off framedump of the video";#P objectname file/framedump;#P window linecount 1;#P hidden newex 16 689 107 196617 pvar synth_color_sw;#P hidden newex 16 710 385 196617 jcom.parameter synth/color @type msg_generic @description "List of RGB colors";#P objectname synth/color;#N vpatcher 20 74 206 227;#P window setfont "Sans Serif" 9.;#P newex 50 76 43 196617 pak 0 0;#P newex 50 50 38 196617 * 100;#P objectname *[3];#P newex 92 50 38 196617 * 100;#P objectname *[2];#P inlet 92 30 15 0;#P inlet 50 30 15 0;#P outlet 50 98 15 0;#P connect 1 0 4 0;#P connect 4 0 5 0;#P connect 5 0 0 0;#P connect 3 0 5 1;#P connect 2 0 3 0;#P pop;#P hidden newobj 284 245 41 196617 p scale;#P window linecount 4;#P hidden newex 284 306 168 196617 jcom.parameter file/loop_points @type msg_list @repetitions 0 @description "List of low and high loop point values";#P objectname file/loop_points;#P hidden toggle 484 308 15 0;#P user rslider 104 124 85 15 1763 1 0 0 0;#P objectname file_loop_points;#P window linecount 1;#P hidden newex 472 582 124 196617 pvar synth_noise_size_x;#P hidden newex 474 662 124 196617 pvar synth_noise_size_y;#P window linecount 3;#P hidden newex 474 683 264 196617 jcom.parameter synth/noise/size/y @type msg_int @repetitions 0 @ramp 1 @range 1 480 @clipmode low @description "x size of noise matrix";#P objectname synth/noise/size/y;#P window linecount 1;#P hidden newex 804 488 78 196617 pvar file_audio;#P window linecount 2;#P hidden newex 804 510 274 196617 jcom.parameter file/audio @type msg_toggle @repetitions 0 @description "Turn audio in the video file on or off";#P objectname file/audio;#P user jsui 77 124 25 15 1 0 0 jcom.jsui_texttoggle.js audio audio;#P objectname file_audio;#P window linecount 1;#P hidden message 193 121 39 196617 set \$1;#P window linecount 3;#P hidden newex 473 602 285 196617 jcom.parameter synth/noise/size/x @type msg_int @repetitions 0 @ramp 1 @range 1 640 @clipmode low @description "x size of noise matrix";#P objectname synth/noise/size/x;#P window linecount 1;#P comment 108 267 14 196617 x;#B frgb 149 149 149;#P number 122 265 32 9 1 0 8225 3 181 181 181 221 221 221 255 255 255 0 0 0;#P objectname synth_noise_size_y;#P comment 51 267 30 196617 Size;#B frgb 149 149 149;#P number 80 265 32 9 1 0 8225 3 181 181 181 221 221 221 255 255 255 0 0 0;#P objectname synth_noise_size_x;#P number 160 243 32 9 1 4 8227 3 181 181 181 221 221 221 255 255 255 0 0 0;#P objectname synth_noise_planes;#P hidden newex 103 172 50 196617 qlim 100;#P hidden message 362 120 83 196617 setminmax 0 \$1;#P hidden newex 319 97 97 196617 route time duration;#P hidden newex 804 46 20 196617 t b;#P hidden newex 804 341 20 196617 t b;#P user jsui 4 124 25 15 1 0 0 jsui_textbutton.js open;#P objectname file_open;#P hidden newex 804 674 89 196617 pvar file_counter;#P window linecount 2;#P hidden newex 804 696 252 196617 jcom.parameter file/counter @type msg_int @repetitions 0 @description "Video file time counter";#P objectname file/counter;#P window linecount 1;#P hidden newex 804 612 74 196617 pvar file_rate;#P window linecount 2;#P hidden newex 804 634 338 196617 jcom.parameter file/rate @type msg_float @repetitions 0 @ramp 1 @range -2. 2. @clipmode none @description "Playback rate of video file";#P objectname file/rate;#P window linecount 1;#P hidden newex 804 550 73 196617 pvar file_size;#P window linecount 2;#P hidden newex 804 572 254 196617 jcom.parameter file/size @type msg_int @repetitions 0 @description "Select size of video playback";#P objectname file/size;#P window linecount 1;#P hidden newex 484 287 73 196617 pvar file_loop;#P window linecount 2;#P hidden newex 484 327 247 196617 jcom.parameter file/loop @type msg_toggle @repetitions 0 @description "Turn looping on or off";#P objectname file/loop;#P window linecount 1;#P hidden newex 804 387 65 196617 pvar file_on;#P window linecount 2;#P hidden newex 804 409 240 196617 jcom.parameter file/on @type msg_toggle @repetitions 0 @description "Turn video on or off";#P objectname file/on;#P window linecount 1;#P hidden newex 804 320 75 196617 pvar file_open;#P hidden newex 804 362 328 196617 jcom.message file/read @description "Open dialog to select video file";#P objectname jcom.parameter[2];#P hidden newex 17 424 122 196617 pvar synth_noise_planes;#P window linecount 2;#P hidden newex 17 446 307 196617 jcom.parameter synth/noise/planes @type msg_int @range 1 4 @clipmode both @ramp 0 @description "Number of matrix planes";#P objectname synth/noise/planes;#P window linecount 1;#P hidden newex 17 490 113 196617 pvar synth_noise_rate;#P window linecount 2;#P hidden newex 17 512 337 196617 jcom.parameter synth/noise/rate @type msg_int @ramp 1 @repetitions 0 @range 2 1000 @clipmode low @description "Metro speed for noise";#P objectname synth/noise/rate;#P window linecount 1;#P comment 53 245 30 196617 Rate;#B frgb 149 149 149;#P comment 125 245 39 196617 Planes;#B frgb 149 149 149;#P user jsui 11 379 25 15 1 0 0 jcom.jsui_texttoggle.js color color;#P objectname synth_color_on_but;#P user swatch 54 365 128 32;#P objectname synth_color_sw;#P number 82 243 32 9 2 0 8225 3 181 181 181 221 221 221 255 255 255 0 0 0;#P objectname synth_noise_rate;#P hidden newex 804 138 91 196617 pvar camera_size;#P window linecount 2;#P hidden newex 804 158 212 196617 jcom.parameter camera/size @type msg_int @description "Resolution of captured image";#P objectname camera/size;#P user umenu 13 41 55 196647 1 64 57 1;#X add 640 480;#X add 320 240;#X add 160 120;#X add 80 60;#P objectname camera_size;#P window linecount 1;#P hidden newex 804 25 109 196617 pvar camera_settings;#P hidden newex 804 67 367 196617 jcom.message camera/settings @description "Open dialog for camera settings";#P objectname jcom.parameter.mxt[1];#P user jsui 38 24 35 15 1 0 0 jsui_textbutton.js settings;#P objectname camera_settings;#P number 193 145 51 9 0 0 8224 3 181 181 181 221 221 221 255 255 255 0 0 0;#P objectname file_counter;#P hidden message 193 170 48 196617 set 1 \$1;#P flonum 23 144 32 9 0 0 8224 3 181 181 181 221 221 221 255 255 255 0 0 0;#P objectname file_rate;#P comment 4 146 29 196617 rate;#B frgb 149 149 149;#P user multiSlider 103 145 85 15 0. 253. 1 2920 47 0 0 2 0 0 1;#M frgb 91 91 91;#M brgb 173 173 173;#M rgb2 127 127 127;#M rgb3 0 0 0;#M rgb4 37 52 91;#M rgb5 74 105 182;#M rgb6 112 158 18;#M rgb7 149 211 110;#M rgb8 187 9 201;#M rgb9 224 62 37;#M rgb10 7 114 128;#P user jsui 51 124 25 15 1 0 0 jcom.jsui_texttoggle.js loop loop;#P objectname file_loop;#P user jsui 30 124 20 15 1 0 0 jcom.jsui_texttoggle.js on off;#P objectname file_on;#P user umenu 49 145 46 196647 1 64 161 1;#X add native size;#X add 640 480;#X add 320 240;#X add 160 120;#X add 80 60;#P objectname file_size;#P user umenu 84 42 100 196647 1 64 58 1;#P objectname Camera;#P user umenu 84 24 100 196647 1 64 40 1;#P objectname Device;#P user jsui 13 24 20 15 1 0 0 jcom.jsui_texttoggle.js on off;#P objectname camera_on;#P hidden newex 17 622 124 196617 pvar synth_color_on_but;#P window linecount 2;#P hidden newex 17 644 359 196617 jcom.parameter synth/color/on @type msg_toggle @range 0 1 @clipmode both @repetitions 0 @ramp 0 @description "Turn video color synth on or off";#P objectname synth/color/on;#P window linecount 1;#P hidden newex 17 560 104 196617 pvar synth_noise_on;#P window linecount 2;#P hidden newex 17 582 344 196617 jcom.parameter synth/noise/on @type msg_toggle @range 0 1 @clipmode both @repetitions 0 @ramp 0 @description "Turn video noise on or off";#P objectname synth/noise/on;#P user jsui 11 252 25 15 1 0 0 jcom.jsui_texttoggle.js noise noise;#P objectname synth_noise_on;#P window linecount 1;#P hidden message 366 61 72 196617 offset 0 -240;#N thispatcher;#Q end;#P hidden newobj 212 85 61 196617 thispatcher;#P hidden message 289 60 72 196617 offset 0 -120;#P hidden message 212 60 66 196617 offset 0 -19;#P hidden newex 212 38 243 196617 sel 0 1 2;#P hidden inlet 212 17 15 0;#P hidden newex 804 91 83 196617 pvar camera_on;#P hidden newex 804 111 363 196617 jcom.parameter camera/on @type msg_toggle @description "Turn camera on";#P objectname camera/on;#P window linecount 3;#P hidden comment 516 138 175 196617 This almost works. There is a problem with setting max values after looping is turned off.;#P window linecount 1;#P hidden newex 284 213 115 196617 pvar file_loop_points 2;#P hidden newex 389 271 21 196617 t 1;#P hidden newex 389 245 76 196617 speedlim 1000;#P hidden newex 284 183 72 196617 pak set 0 100;#P hidden newex 284 157 32 196617 sel 0;#P hidden newex 362 159 37 196617 / 100;#P objectname /[2];#P hidden message 362 183 43 196617 size \$1;#P user panel 0 -1 239 413;#X brgb 36 36 36;#X frgb 0 0 0;#X border 0;#X rounded 0;#X shadow 0;#X done;#P hidden connect 84 0 83 0;#P hidden fasten 46 0 47 0 22 477 14 477 14 420 22 420;#P hidden connect 47 0 46 0;#P hidden fasten 44 0 45 0 22 543 14 543 14 486 22 486;#P hidden connect 45 0 44 0;#P hidden fasten 18 0 19 0 22 613 14 613 14 556 22 556;#P hidden connect 19 0 18 0;#P hidden fasten 20 0 21 0 22 675 14 675 14 618 22 618;#P hidden connect 21 0 20 0;#P hidden connect 86 0 23 0;#P hidden connect 87 0 24 0;#P hidden fasten 64 0 28 0 367 140 108 140;#P hidden connect 31 0 28 0;#P hidden connect 28 0 65 0;#P hidden fasten 63 0 72 0 324 117 198 117;#P hidden connect 65 0 32 0;#P hidden connect 72 0 32 0;#P hidden connect 63 0 31 0;#P hidden connect 32 0 31 0;#P hidden connect 11 0 12 0;#P hidden connect 12 0 13 0;#P hidden fasten 16 0 15 0 371 80 217 80;#P hidden fasten 14 0 15 0 294 80 217 80;#P hidden fasten 13 0 15 0 217 80 217 80;#P hidden connect 80 0 3 0;#P hidden connect 3 0 4 0;#P hidden connect 4 0 7 0;#P hidden fasten 1 0 7 0 367 205 289 205;#P hidden connect 7 0 82 0;#P hidden connect 82 0 81 0;#P hidden connect 12 1 14 0;#P hidden connect 7 1 82 1;#P hidden fasten 12 3 63 0 448 90 324 90;#P hidden connect 2 0 4 2;#P hidden connect 63 1 64 0;#P hidden connect 63 1 2 0;#P hidden connect 2 0 1 0;#P hidden connect 12 2 16 0;#P hidden connect 7 1 5 0;#P hidden connect 5 0 6 0;#P hidden fasten 71 0 78 0 478 650 467 650 467 577 477 577;#P hidden connect 78 0 71 0;#P hidden fasten 76 0 77 0 479 730 468 730 468 655 479 655;#P hidden connect 77 0 76 0;#P hidden fasten 52 0 53 0 489 362 478 362 478 283 489 283;#P hidden connect 6 0 80 0;#P hidden connect 53 0 80 0;#P hidden connect 80 0 52 0;#P hidden connect 35 0 62 0;#P hidden connect 62 0 34 0;#P hidden fasten 9 0 10 0 809 133 797 133 797 86 809 86;#P hidden connect 10 0 9 0;#P hidden fasten 37 0 38 0 809 193 797 193 797 133 809 133;#P hidden connect 38 0 37 0;#P hidden connect 49 0 61 0;#P hidden connect 61 0 48 0;#P hidden fasten 50 0 51 0 809 440 801 440 801 383 809 383;#P hidden connect 51 0 50 0;#P hidden fasten 74 0 75 0 809 541 801 541 801 484 809 484;#P hidden connect 75 0 74 0;#P hidden fasten 54 0 55 0 809 603 801 603 801 546 809 546;#P hidden connect 55 0 54 0;#P hidden fasten 56 0 57 0 809 665 801 665 801 608 809 608;#P hidden connect 57 0 56 0;#P hidden fasten 58 0 59 0 809 727 801 727 801 670 809 670;#P hidden connect 59 0 58 0;#P hidden fasten 88 0 89 0 810 245 798 245 798 198 810 198;#P hidden connect 89 0 88 0;#P hidden fasten 90 0 91 0 810 293 798 293 798 247 810 247;#P hidden connect 91 0 90 0;#P pop;