max v2;#N vpatcher 29 63 965 425;#P origin 0 -4;#P window setfont "Sans Serif" 9.;#P window linecount 1;#P newex 570 37 116 196617 r $0_refresh_textures;#N thispatcher;#Q end;#P newobj 360 212 61 196617 thispatcher;#N vpatcher 90 70 550 567;#P window setfont "Sans Serif" 9.;#P newex 60 435 116 196617 s $0_refresh_textures;#N vpatcher -24 214 848 605;#P window setfont "Sans Serif" 9.;#P window linecount 0;#P newex 51 68 651 196617 t b s b;#P window linecount 1;#P message 160 188 189 196617 script connect THRU_0 0 ROTASLAB 0;#P message 160 164 180 196617 script connect ROTASLAB 1 PRINT 0;#P message 160 140 171 196617 script connect ROTASLAB 0 OUT 0;#P message 691 192 125 196617 script delete ROTASLAB;#P window linecount 2;#P newex 371 176 234 196617 sprintf script new ROTASLAB newex 550 230 271 196617 jit.gl.slab %s @file @file td.rota.jxs;#P outlet 51 332 15 0;#P inlet 51 36 15 0;#P connect 0 0 7 0;#P connect 2 0 1 0;#P connect 3 0 1 0;#P connect 4 0 1 0;#P connect 5 0 1 0;#P connect 6 0 1 0;#P connect 7 0 4 0;#P connect 7 0 5 0;#P connect 7 0 6 0;#P connect 7 1 2 0;#P connect 7 2 3 0;#P pop;#P newobj 158 241 58 196617 p scripting;#P outlet 158 383 15 0;#P newex 60 210 108 196617 t b s;#P newex 60 237 50 196617 deferlow;#P outlet 98 383 15 0;#P newex 60 260 48 196617 t b dump;#P inlet 60 183 15 0;#P window linecount 1;#P newex 274 296 72 196617 prepend store;#P newex 274 273 73 196617 zl join;#P newex 274 249 51 196617 zl slice 1;#N coll ;#P newobj 98 343 53 196617 coll;#P inlet 274 183 15 0;#P window linecount 0;#P comment 31 39 383 196617 This is a hack around a current bug in jit.gl.slab (as of Jitter 1.6.3 \, August 2007):;#P comment 31 69 383 196617 If a jit.gl.slab is created and activated while drawing to a non-existing context \, it seems to die. To avoid this \, the jit.gl.slab is recreated using scripting whenever context is changed. In order for settings and textures not to get lost when changing context \, they are stored locally in the coll of this subpatch and the four "zl reg" objects of the algorithm so that they can be dumped to the newly created instance of jit.gl.slab.;#P connect 7 0 11 0;#P connect 11 0 10 0;#P connect 10 0 8 0;#P connect 8 0 14 0;#P connect 6 0 3 0;#P connect 8 1 3 0;#P connect 3 0 9 0;#P connect 11 1 13 0;#P connect 13 0 12 0;#P connect 2 0 4 0;#P connect 4 0 5 0;#P connect 5 0 6 0;#P fasten 2 0 5 1 279 224 342 224;#P pop;#P newobj 274 146 96 196617 p set_new_context;#P newex 360 119 75 196617 jcom.thru.mxt;#P newex 550 192 75 196617 jcom.thru.mxt;#P objectname THRU_0;#P newex 550 83 36 196617 zl reg;#P newex 811 285 101 196617 print rotaslab_dump;#P objectname PRINT;#N vpatcher 373 87 838 287;#P outlet 362 130 15 0;#P window setfont "Sans Serif" 9.;#N vpatcher 0 44 443 240;#P window setfont "Sans Serif" 9.;#P window linecount 0;#P newex 290 75 30 196617 t s s;#P outlet 290 145 15 0;#P newex 310 99 80 196617 prepend drawto;#P window linecount 1;#P newex 290 51 117 196617 jcom.oscroute /context;#P newex 50 50 225 196617 jcom.pass /antialias /automatic /enable /layer;#P inlet 50 30 15 0;#P outlet 50 139 15 0;#P connect 1 0 2 0;#P fasten 4 0 0 0 315 127 55 127;#P fasten 2 0 0 0 55 99 55 99;#P fasten 2 1 0 0 108 99 55 99;#P fasten 2 2 0 0 161 99 55 99;#P fasten 2 3 0 0 214 99 55 99;#P connect 2 4 3 0;#P connect 3 0 6 0;#P connect 6 0 5 0;#P connect 6 1 4 0;#P pop;#P newobj 332 84 40 196617 p render;#N vpatcher 0 44 451 247;#P window setfont "Sans Serif" 9.;#P newex 274 85 108 196617 prepend inherit_depth;#P newex 162 85 106 196617 prepend depth_enable;#P newex 50 85 101 196617 prepend depth_clear;#P newex 50 50 348 196617 jcom.oscroute /clear /enable /inherit;#P inlet 50 30 15 0;#P outlet 50 128 15 0;#P connect 1 0 2 0;#P connect 2 0 3 0;#P fasten 5 0 0 0 279 115 55 115;#P fasten 4 0 0 0 167 115 55 115;#P connect 3 0 0 0;#P connect 2 1 4 0;#P connect 2 2 5 0;#P pop;#P newobj 191 84 42 196617 p depth;#N vpatcher 0 44 338 300;#P window setfont "Sans Serif" 9.;#P newex 105 75 29 196617 t b f;#P newex 158 109 107 196617 prepend inherit_color;#P newex 52 160 71 196617 prepend color;#P newex 52 125 82 196617 zl join;#P newex 52 101 36 196617 zl reg;#P newex 52 50 169 196617 jcom.oscroute /rgb /alpha /inherit;#P inlet 52 30 15 0;#P outlet 52 204 15 0;#P connect 1 0 2 0;#P connect 2 0 3 0;#P fasten 7 0 3 0 110 96 57 96;#P connect 3 0 4 0;#P connect 4 0 5 0;#P fasten 6 0 0 0 163 188 57 188;#P connect 5 0 0 0;#P connect 2 1 7 0;#P connect 7 1 4 1;#P connect 2 2 6 0;#P pop;#P newobj 144 84 41 196617 p color;#N vpatcher 0 44 299 208;#P window setfont "Sans Serif" 9.;#P newex 50 50 99 196617 jcom.pass /position;#P inlet 50 30 15 0;#P outlet 50 80 15 0;#P connect 1 0 2 0;#P connect 2 0 0 0;#P pop;#P newobj 50 84 30 196617 p 3D;#N vpatcher 0 44 322 219;#P window setfont "Sans Serif" 9.;#P newex 166 80 100 196617 prepend blend_mode;#P newex 50 80 105 196617 prepend blend_enable;#P newex 50 50 243 196617 jcom.oscroute /enable /mode;#P inlet 50 30 15 0;#P outlet 50 125 15 0;#P connect 1 0 2 0;#P connect 2 0 3 0;#P connect 4 0 0 0;#P connect 3 0 0 0;#P connect 2 1 4 0;#P pop;#P newobj 97 84 41 196617 p blend;#P newex 50 50 341 196617 jcom.oscroute /3D /blend /color /depth /fog /material /render;#P inlet 50 30 15 0;#P outlet 379 130 15 0;#P outlet 50 130 15 0;#P connect 2 0 3 0;#P connect 3 0 5 0;#P fasten 7 0 0 0 196 115 55 115;#P fasten 6 0 0 0 149 115 55 115;#P fasten 4 0 0 0 102 115 55 115;#P fasten 8 0 0 0 337 115 55 115;#P fasten 5 0 0 0 55 115 55 115;#P connect 3 1 4 0;#P connect 3 2 6 0;#P connect 3 3 7 0;#P connect 3 6 8 0;#P connect 8 1 9 0;#P connect 3 7 1 0;#P pop;#P newobj 233 61 93 196617 p route-gl-classes;#N vpatcher 10 59 524 397;#P window setfont "Sans Serif" 9.;#P message 331 123 73 196617 boundmode \$1;#P window linecount 0;#P newex 331 77 80 196617 prepend symbol;#P user umenu 331 100 100 196647 1 64 116 1;#X add clear;#X add alpha;#X add wrap;#X add clip;#X add fold;#P newex 216 77 71 196617 jcom.deg2rad;#P window linecount 1;#P newex 50 53 162 196617 jcom.pass /zoom /offset /anchor;#P newex 216 53 240 196617 jcom.oscroute /theta /boundmode;#P message 216 123 48 196617 theta \$1;#P newex 50 217 76 196617 prepend param;#P message 133 218 67 196617 getparamlist;#P outlet 446 268 15 0;#P inlet 50 30 15 0;#P outlet 50 268 15 0;#P connect 1 0 7 0;#P connect 11 0 4 0;#P connect 7 2 4 0;#P connect 7 1 4 0;#P connect 7 0 4 0;#P connect 5 0 4 0;#P connect 3 0 0 0;#P connect 4 0 0 0;#P connect 7 3 6 0;#P connect 6 0 8 0;#P connect 8 0 5 0;#P connect 6 1 10 0;#P connect 10 0 9 0;#P connect 9 0 11 0;#P connect 6 2 2 0;#P pop;#P newobj 360 61 78 196617 p td.rota-route;#N vpatcher 20 74 229 307;#P window setfont "Sans Serif" 9.;#P message 69 50 50 196617;#P newex 69 30 62 196617 prepend set;#P newex 71 92 19 196617 t 1;#P newex 50 92 19 196617 t 2;#P newex 50 69 40 196617 sel 0 1;#P newex 50 122 96 196617 gate 2 2;#P inlet 136 30 15 0;#P inlet 50 30 15 0;#P outlet 50 170 15 0;#P outlet 136 170 15 0;#P connect 2 0 5 0;#P connect 5 0 6 0;#P connect 7 0 4 0;#P connect 6 0 4 0;#P connect 4 0 1 0;#P connect 2 0 8 0;#P connect 8 0 9 0;#P connect 5 1 7 0;#P connect 3 0 4 1;#P connect 4 1 0 0;#P pop;#P newobj 451 117 109 196617 p bypass;#P comment 73 285 100 196617 OSC output;#P outlet 48 285 15 0;#P comment 548 21 124 196617 JITTER/TEXTURE INPUT;#P inlet 550 37 15 0;#P objectname TEXTURE_0;#P inlet 48 37 15 0;#P comment 567 285 89 196617 TEXTURE OUTPUT;#P outlet 550 285 15 0;#P objectname OUT;#P window linecount 2;#P newex 48 61 181 196617 sel open preview disable_ui_updates /video/genframe;#P newex 451 61 76 196617 jcom.oscroute /video/bypass;#P window linecount 1;#P comment 48 21 100 196617 OSC input;#P newex 550 230 271 196617 jit.gl.slab none @file @file td.rota.jxs;#P objectname ROTASLAB;#P connect 6 0 3 0;#P connect 3 4 13 0;#P connect 13 1 18 0;#P connect 13 2 12 0;#P connect 12 0 17 0;#P connect 13 0 17 0;#P connect 17 0 18 1;#P connect 18 1 19 0;#P connect 12 1 2 0;#P connect 2 0 11 0;#P fasten 20 0 15 0 575 68 555 68;#P connect 7 0 15 0;#P connect 15 0 11 1;#P connect 18 0 16 0;#P connect 11 1 16 0;#P connect 17 0 16 0;#P connect 16 0 0 0;#P connect 0 0 4 0;#P connect 11 0 4 0;#P lcolor 12;#P connect 0 1 14 0;#P pop;