max v2;
#N vpatcher 460 71 1138 477;
#P origin -31 11;
#P window setfont "Sans Serif" 9.;
#P window linecount 1;
#P comment 40 365 108 196617 RETURNED MESSAGES;
#P comment 343 365 75 196617 VIDEO OUTPUT;
#N comlet Returned messages;
#P outlet 42 345 15 0;
#P newex 271 269 27 196617 + 1;
#P objectname +[1];
#N comlet Video output;
#P outlet 346 345 15 0;
#P newex 271 291 85 196617 gate 2 1;
#P newex 346 315 65 196617 jit.rgb2luma;
#P objectname u339000005[1];
#P newex 346 253 53 196617 jit.brcosa;
#P newex 42 60 317 196617 jcom.oscroute /dummy /monochrome /genframe /direct;
#P comment 59 36 75 196617 INSTRUCTIONS;
#P newex 346 162 213 196617 jcom.pass /brightness /contrast /saturation;
#N comlet Instructions;
#P inlet 42 36 15 0;
#P comment 509 36 75 196617 VIDEO INPUT;
#N comlet Video input;
#P inlet 587 36 15 0;
#P connect 2 0 5 0;
#P fasten 5 1 10 0 123 229 276 229;
#P connect 10 0 8 0;
#P connect 5 4 3 0;
#P fasten 0 0 6 0 592 222 351 222;
#P fasten 3 1 6 0 418 216 351 216;
#P connect 3 0 6 0;
#P fasten 3 2 6 0 485 219 351 219;
#P fasten 5 2 6 0 199 205 351 205;
#P fasten 5 3 6 0 275 202 351 202;
#P connect 6 0 8 1;
#P connect 8 1 7 0;
#P connect 8 0 9 0;
#P connect 7 0 9 0;
#P pop;
