max v2;#N vpatcher 214 44 725 428;#P origin -194 -7;#P window setfont "Sans Serif" 9.;#P newex 110 86 27 196617 + 1;#P newex 165 108 27 196617 > 0;#P newex 165 129 47 196617 gate 1 1;#P number 110 117 27 9 0 4 3 3 0 0 0 221 221 221 222 222 222 0 0 0;#P newex 110 153 53 196617 gate 4 1;#P newex 410 218 62 196617 jit.op @op ||;#P objectname xraymean[12];#P newex 298 218 89 196617 jit.op @op absdiff;#P objectname xraymean[13];#P newex 200 218 74 196617 jit.op @op &&;#P objectname xraymean[6];#P user ubumenu 25 132 60 196617 0 1 1 0;#X add pass;#X add *;#X add /;#X add +;#X add -;#X add +m;#X add -m;#X add %;#X add min;#X add max;#X add abs;#X add avg;#X add absdiff;#X add wrap;#X add fold;#X add !pass;#X add !/;#X add !-;#X add !%;#X add &;#X add |;#X add ^;#X add ~;#X add >>;#X add <<;#X add &&;#X add ||;#X add !;#X add >;#X add <;#X add >=;#X add <=;#X add ==;#X add !=;#X add >p;#X add <p;#X add >=p;#X add <=p;#X add ==p;#X add !=p;#X add sin;#X add cos;#X add tan;#X add asin;#X add acos;#X add atan;#X add atan2;#X add sinh;#X add cosh;#X add tanh;#X add asinh;#X add acosh;#X add atanh;#X add exp;#X add exp2;#X add ln;#X add log2;#X add log10;#X add hypot;#X add pow;#X add sqrt;#X add ceil;#X add floor;#X add round;#X add trunc;#X add ignore;#X prefix_set 0 0 <none> 0;#X pattrmode 1;#P newex 25 153 72 196617 prepend op;#P newex 110 218 65 196617 jit.op @op *;#P objectname xraymean[4];#P newex 165 153 68 196617 jit.transpose;#P objectname xraymean[3];#P inlet 202 24 15 0;#P outlet 110 351 15 0;#P comment 222 24 45 196617 Video in;#P newex 25 48 158 196617 jcom.oscroute /algorithm /mode;#P inlet 25 24 15 0;#P connect 0 0 1 0;#P connect 1 0 8 0;#P fasten 8 1 7 0 55 150 30 150;#P connect 1 1 16 0;#P connect 16 0 13 0;#P connect 13 0 12 0;#P connect 12 0 6 0;#P fasten 7 0 6 0 30 194 115 194;#P connect 6 0 3 0;#P fasten 9 0 3 0 205 293 115 293;#P fasten 10 0 3 0 303 293 115 293;#P fasten 11 0 3 0 415 293 115 293;#P connect 4 0 12 1;#P connect 13 0 15 0;#P connect 15 0 14 0;#P connect 14 0 5 0;#P connect 5 0 6 1;#P connect 12 1 9 0;#P connect 4 0 14 1;#P fasten 5 0 9 1 170 194 269 194;#P connect 12 2 10 0;#P fasten 5 0 10 1 170 194 382 194;#P connect 12 3 11 0;#P fasten 5 0 11 1 170 194 467 194;#P pop;