max v2;#N vpatcher 214 44 1095 652;#P origin -194 -7;#P window setfont "Sans Serif" 9.;#P window linecount 1;#P newex 615 188 132 196617 jcom.oscroute /dimensions;#P newex 254 405 115 196617 pak dstdimend 319 239;#P newex 439 405 115 196617 pak dstdimend 319 239;#P newex 615 314 144 196617 jcom.oscroute /width /height;#P window linecount 3;#P newex 451 434 253 196617 jcom.return motiongram_end @description " Returns a 1 when the counter gets to the end of the limit of the size of the motiongram and a 0 at the beginning";#P objectname xraymean[1];#P window linecount 1;#N vpatcher 361 44 961 444;#P window setfont "Sans Serif" 9.;#P user jit.fpsgui 114 316 60 196617 3;#P newex 177 183 65 196617 jcom.change;#P message 357 249 88 196617 exportimage jpeg;#P message 254 254 39 196617 getdim;#P inlet 256 56 15 0;#P inlet 39 58 15 0;#P newex 256 170 35 196617 zl join;#P newex 281 148 82 196617 r to-slider-time;#P newex 256 127 55 196617 v filename;#P newex 225 304 65 196617 print picture;#P newex 107 183 65 196617 jcom.change;#P newex 107 155 124 196617 jcom.pass dim planecount;#P newex 256 193 155 196617 sprintf exportimage %s-%ld tiff;#P newex 107 128 71 196617 jit.matrixinfo;#P newex 107 278 128 196617 jit.matrix 4 char 320 240;#P connect 9 0 1 0;#P connect 1 0 3 0;#P connect 3 0 4 0;#P connect 13 0 0 0;#P connect 9 0 0 0;#P connect 4 0 0 0;#P fasten 12 0 0 0 362 271 112 271;#P connect 11 0 0 0;#P connect 2 0 0 0;#P connect 0 0 14 0;#P connect 3 1 13 0;#P connect 0 1 5 0;#P connect 10 0 6 0;#P connect 6 0 8 0;#P connect 8 0 2 0;#P connect 7 0 8 1;#P pop;#P newobj 788 53 57 196617 p snapshot;#P button 233 89 15 0;#P message 233 117 93 196617 exportimage tiff 1;#P newex 310 172 21 196617 t 1;#P newex 675 367 27 196617 - 1;#P newex 185 244 27 196617 + 1;#P message 439 372 87 196617 dstdimstart 0 \$1;#N counter 0 0 239;#X flags 0 0;#P newobj 439 350 83 196617 counter 0 0 239;#P newex 253 324 47 196617 gate 2 1;#P message 253 372 87 196617 dstdimstart \$1 0;#P newex 248 296 27 196617 t l b;#N counter 0 0 319;#X flags 0 0;#P newobj 253 350 83 196617 counter 0 0 319;#P newex 131 510 194 196617 jit.matrix 4 char 720 240 @usedstdim 1;#P objectname xraymean[3];#P newex 231 272 68 196617 jit.normalize;#P objectname xraymean[4];#P toggle 310 196 15 0;#P objectname toggledim[2];#P message 310 216 48 196617 mean \$1;#P toggle 241 196 15 0;#P objectname toggledim[3];#P message 241 216 63 196617 meandim \$1;#P newex 231 244 284 196617 xray.jit.mean @out_name meanvector @meandim 0 @mean 1;#B color 5;#P objectname xraymean[5];#P newex 310 150 58 196617 r jcom.init;#N comlet Motiongram;#P outlet 131 547 15 0;#N comlet Mean values;#P outlet 41 547 15 0;#P comment 425 40 45 196617 Video in;#P newex 29 64 267 196617 jcom.oscroute /dummy /foo /clear /mode /exportimage;#P newex 588 365 27 196617 - 1;#P number 665 342 35 9 0 0 32 3 0 0 0 221 221 221 222 222 222 0 0 0;#P newex 565 389 110 196617 pak dim 1024 150;#P number 615 342 35 9 0 0 32 3 0 0 0 221 221 221 222 222 222 0 0 0;#P button 131 89 15 0;#P message 131 117 33 196617 clear;#P message 171 182 14 196617 0;#P inlet 402 40 15 0;#P inlet 29 40 15 0;#P window linecount 3;#P comment 630 44 153 196617 Should a some more advanced exportimage functions with automatic name \, etc.;#P connect 1 0 10 0;#P connect 20 0 12 0;#P connect 10 2 5 0;#P connect 5 0 4 0;#P fasten 37 0 21 0 259 466 136 466;#P fasten 36 0 21 0 444 468 136 468;#P connect 31 0 21 0;#P fasten 27 0 21 0 444 390 136 390;#P fasten 24 0 21 0 258 390 136 390;#P connect 23 0 21 0;#P fasten 7 0 21 0 570 500 136 500;#P connect 4 0 21 0;#P connect 21 0 13 0;#P fasten 5 0 3 0 136 111 176 111;#P connect 17 0 28 0;#P fasten 16 0 15 0 246 237 236 237;#P fasten 18 0 15 0 315 237 236 237;#P connect 2 0 15 0;#P connect 15 0 20 0;#P connect 10 4 32 0;#P connect 32 0 31 0;#P connect 10 3 17 0;#P connect 17 0 16 0;#P connect 20 0 23 0;#P fasten 28 0 25 0 190 319 258 319;#P connect 25 0 22 0;#P connect 22 0 24 0;#P connect 3 0 22 2;#P lcolor 6;#P fasten 23 1 25 1 270 316 295 316;#P connect 22 0 37 1;#P connect 14 0 30 0;#P connect 30 0 19 0;#P connect 19 0 18 0;#P connect 9 0 22 4;#P lcolor 5;#P connect 29 0 37 2;#P fasten 25 1 26 0 295 345 444 345;#P connect 26 0 27 0;#P connect 22 2 34 0;#P connect 26 2 34 0;#P connect 3 0 26 2;#P lcolor 6;#P connect 9 0 36 1;#P connect 29 0 26 4;#P lcolor 5;#P connect 26 0 36 2;#P fasten 6 0 9 0 620 361 593 361;#P fasten 10 5 38 0 289 89 620 89;#P connect 38 0 35 0;#P connect 35 0 6 0;#P connect 6 0 7 1;#P connect 35 1 8 0;#P connect 8 0 7 2;#P connect 8 0 29 0;#P pop;