max v2;#N vpatcher 574 146 978 467;#P origin -31 11;#P window setfont "Sans Serif" 9.;#P newex 173 193 108 196617 prepend /xfade;#N vpatcher 963 209 1276 513;#P window setfont "Sans Serif" 9.;#P window linecount 0;#P newex 138 90 42 196617 t 1 1;#P newex 115 151 40 196617 change;#P newex 194 153 40 196617 change;#P window linecount 1;#P newex 94 89 42 196617 t 0 2;#P window linecount 0;#P newex 50 89 42 196617 t 2 0;#P window linecount 1;#P newex 194 184 50 196617 gate 2 1;#P outlet 247 234 15 0;#P outlet 163 235 15 0;#P outlet 46 235 15 0;#P inlet 234 27 15 0;#P inlet 155 28 15 0;#P newex 115 186 50 196617 gate 2 1;#P newex 50 57 98 196617 sel 0. 1.;#P inlet 50 18 15 0;#P connect 2 1 5 0;#P connect 8 1 5 0;#P connect 0 0 1 0;#P connect 1 0 9 0;#P connect 1 1 10 0;#P connect 10 0 12 0;#P connect 9 0 12 0;#P connect 13 0 12 0;#P connect 12 0 2 0;#P connect 1 2 13 0;#P connect 3 0 2 1;#P connect 2 0 6 0;#P connect 10 1 11 0;#P connect 9 1 11 0;#P connect 13 1 11 0;#P connect 11 0 8 0;#P connect 4 0 8 1;#P connect 8 0 7 0;#P pop;#P newobj 1 177 81 196617 p optimize;#P newex 173 108 108 196617 jcom.oscroute /xfade;#P newex 32 68 210 196617 jcom.oscroute /genframe /direct /op_value;#P inlet 305 63 15 0;#P inlet 286 63 15 0;#P inlet 32 44 15 0;#P comment 47 252 75 196617 VIDEO OUTPUT;#P outlet 32 252 15 0;#P newex 32 223 49 196617 jit.xfade;#P fasten 7 0 8 0 178 142 6 142;#P connect 3 0 6 0;#P fasten 9 0 0 0 178 216 37 216;#P fasten 8 1 0 0 41 216 37 216;#P fasten 6 1 0 0 103 131 37 131;#P connect 6 0 0 0;#P fasten 8 0 1 0 6 247 37 247;#P connect 0 0 1 0;#P fasten 4 0 8 1 291 168 41 168;#P connect 6 2 8 2;#P fasten 5 0 8 2 310 173 76 173;#P connect 8 2 0 1;#P connect 6 3 7 0;#P connect 7 0 9 0;#P pop;