max v2;#N vpatcher 429 44 912 458;#P origin 10 16;#P window setfont "Sans Serif" 9.;#N vpatcher 259 132 430 285;#P outlet 55 72 15 0;#P inlet 55 30 15 0;#P connect 0 0 1 0;#P pop;#P newobj 55 107 37 196617 p thru;#P comment 67 359 65 196617 Dump output;#N vpatcher 576 77 951 454;#P window setfont "Sans Serif" 9.;#P window linecount 1;#P newex 149 213 122 196617 pak dim 320 240;#P message 37 213 72 196617 planecount \$1;#P number 105 140 26 9 0 0 0 3 0 0 0 221 221 221 222 222 222 0 0 0;#P toggle 71 139 15 0;#P newex 71 163 51 196617 qmetro 2;#P newex 37 246 121 196617 jit.noise 1 char 320 240;#P window linecount 2;#P newex 37 85 293 196617 jcom.oscroute /synth_noise_planes /synth_noise_on /synth_noise_rate /synth_noise_size_x /synth_noise_size_y;#P inlet 37 43 15 0;#P outlet 37 301 15 0;#P connect 1 0 2 0;#P connect 2 0 7 0;#P connect 4 0 3 0;#P fasten 8 0 3 0 154 238 42 238;#P connect 7 0 3 0;#P connect 3 0 0 0;#P connect 5 0 4 0;#P fasten 2 1 4 0 98 158 76 158;#P connect 6 0 4 1;#P fasten 2 2 4 1 154 159 117 159;#P connect 2 3 8 1;#P connect 2 4 8 2;#P pop;#P newobj 313 179 117 196617 p video-synthesis-stuff;#N vpatcher 144 90 1185 648;#P window setfont "Sans Serif" 9.;#P window linecount 0;#P newex 738 224 54 196617 jcom.thru;#P message 738 139 88 196617 cancelframedump;#P newex 674 107 41 196617 sel 1 0;#P message 674 139 60 196617 framedump;#P newex 607 173 93 196617 prepend looppoints;#P newex 45 266 86 196617 r global_tomovie;#P newex 36 244 73 196617 r $0_tomovie;#N vpatcher 10 59 320 285;#P window setfont "Sans Serif" 9.;#P newex 50 50 164 196617 jcom.pass read moviedim duration;#P newex 50 87 32 196617 print;#P inlet 50 30 15 0;#P connect 0 0 2 0;#P connect 2 2 1 0;#P connect 2 1 1 0;#P connect 2 0 1 0;#P pop;#P newobj 274 314 67 196617 p print-stuff;#P button 339 176 15 0;#P newex 339 196 91 196617 pack dim 320 240;#P toggle 558 132 15 0;#P flonum 558 152 35 9 0 0 0 3 0 0 0 221 221 221 222 222 222 0 0 0;#P message 540 173 39 196617 vol \$1;#P newex 344 352 118 196617 jcom.pass time duration;#N vpatcher 20 74 175 202;#P outlet 74 65 15 0;#P inlet 74 35 15 0;#P connect 0 0 1 0;#P pop;#P newobj 344 400 37 196617 p thru;#N vpatcher 20 74 175 202;#P outlet 74 65 15 0;#P inlet 74 35 15 0;#P connect 0 0 1 0;#P pop;#P newobj 173 437 37 196617 p thru;#P window linecount 2;#P newex 173 384 69 196617 t getduration getmoviedim;#P window linecount 1;#P newex 173 351 156 196617 route read moviedim framedump;#P newex 216 284 51 196617 t gettime;#P newex 216 262 49 196617 qlim 250;#P newex 339 152 65 196617 route native;#P flonum 486 152 35 9 0 0 0 3 0 0 0 221 221 221 222 222 222 0 0 0;#P message 473 173 45 196617 time \$1;#P flonum 424 152 35 9 0 0 0 3 0 0 0 221 221 221 222 222 222 0 0 0;#P message 411 173 44 196617 rate \$1;#P toggle 291 153 15 0;#P message 279 177 43 196617 loop \$1;#P message 138 147 30 196617 read;#P newex 220 188 45 196617 t stop 0;#P newex 205 166 49 196617 t 1 start;#P newex 205 143 41 196617 sel 1 0;#P toggle 217 120 15 0;#P newex 205 217 51 196617 qmetro 2;#P user umenu 339 129 62 196647 1 64 145 1;#X add native size;#X add 640 480;#X add 320 240;#X add 160 120;#X add 80 60;#P objectname file_size;#P newex 353 225 64 196617 prepend dim;#P newex 138 314 125 196617 jit.qt.movie @autostart 0;#P newex 138 76 618 196617 jcom.oscroute /file_open /file_on /file_loop /file_size /file_rate /file_counter /file_audio /file_loop_points /file_framedump;#P inlet 138 36 15 0;#P outlet 138 512 15 0;#P outlet 344 512 15 0;#P connect 2 0 3 0;#P connect 3 0 12 0;#P fasten 7 0 4 0 210 254 143 254;#P fasten 30 0 4 0 344 254 143 254;#P fasten 27 0 4 0 545 254 143 254;#P fasten 5 0 4 0 358 254 143 254;#P fasten 12 0 4 0 143 238 143 238;#P fasten 13 0 4 0 284 254 143 254;#P fasten 15 0 4 0 416 254 143 254;#P fasten 17 0 4 0 478 254 143 254;#P fasten 21 0 4 0 221 307 143 307;#P fasten 24 0 4 0 178 466 119 404 119 289;#P connect 10 1 4 0;#P connect 11 0 4 0;#P fasten 34 0 4 0 50 300 143 300;#P fasten 33 0 4 0 41 313 143 313;#P connect 4 0 1 0;#P fasten 4 1 22 0 258 340 178 340;#P connect 22 0 23 0;#P connect 23 1 24 0;#P connect 23 0 24 0;#P connect 3 1 9 0;#P connect 8 0 9 0;#P connect 9 0 10 0;#P connect 10 0 7 0;#P connect 11 1 7 0;#P connect 7 0 20 0;#P connect 20 0 21 0;#P connect 9 1 11 0;#P connect 4 1 32 0;#P connect 3 2 13 0;#P connect 14 0 13 0;#P connect 3 3 6 0;#P fasten 6 1 19 0 396 148 344 148;#P connect 19 0 31 0;#P connect 31 0 30 0;#P fasten 4 1 26 0 258 340 349 340;#P connect 26 0 25 0;#P connect 26 1 25 0;#P connect 25 0 0 0;#P fasten 19 1 5 0 399 220 358 220;#P connect 22 1 30 1;#P lcolor 4;#P connect 3 4 15 0;#P connect 16 0 15 0;#P connect 3 5 17 0;#P connect 18 0 17 0;#P connect 3 6 27 0;#P connect 28 0 27 0;#P connect 29 0 28 0;#P connect 3 7 35 0;#P connect 3 8 37 0;#P connect 37 0 36 0;#P fasten 37 1 38 0 694 131 743 131;#P pop;#P newobj 195 179 89 196617 p video-file-stuff;#N vpatcher 184 44 819 636;#P origin 209 -7;#P outlet 118 547 15 0;#P inlet 48 21 15 0;#P window setfont "Sans Serif" 9.;#P window linecount 1;#N vpatcher 20 74 179 221;#P outlet 34 68 15 0;#P inlet 34 39 15 0;#P connect 0 0 1 0;#P pop;#P newobj 203 373 43 196617 p thru3;#P objectname thru3;#N vpatcher 20 74 179 221;#P outlet 34 68 15 0;#P inlet 34 39 15 0;#P connect 0 0 1 0;#P pop;#P newobj 118 373 43 196617 p thru2;#P objectname thru2;#P user umenu 188 117 52 196647 1 64 133 1;#X add 640 480;#X add 320 240;#X add 160 120;#X add 80 60;#P objectname camera_size;#P newex 188 139 64 196617 prepend dim;#P newex 289 144 58 196617 r jmod.init;#P newex 63 139 49 196617 t close 0;#P newex 48 117 46 196617 t 1 open;#P newex 48 94 41 196617 sel 1 0;#P newex 203 426 25 196617 iter;#P newex 298 447 38 196617 t clear;#P newex 436 447 38 196617 t clear;#P message 358 492 45 196617 input \$1;#P user ubumenu 358 471 145 196617 0 1 1 0;#X prefix_set 0 0 <none> 0;#X pattrmode 1;#P newex 358 447 75 196617 prepend append;#P newex 358 426 25 196617 iter;#P message 203 492 58 196617 vdevice \$1;#P user ubumenu 203 471 145 196617 0 1 1 0;#X add "DVCPRO HD (1080i50)";#X add "DVCPRO HD (1080i60)";#X add "DVCPRO HD (720p60)";#X add "DV Video";#X add "IIDC FireWire Video";#X add "USB Video Class Video";#X prefix_set 0 0 <none> 0;#X pattrmode 1;#P newex 203 447 75 196617 prepend append;#P newex 203 396 112 196617 route vdevlist inputlist;#P message 352 184 59 196617 getinputlist;#P message 289 184 59 196617 getvdevlist;#P message 118 143 44 196617 settings;#N vpatcher 20 74 179 221;#P outlet 34 68 15 0;#P inlet 34 39 15 0;#P connect 0 0 1 0;#P pop;#P newobj 118 232 43 196617 p thru1;#P objectname thru1;#P toggle 60 71 15 0;#P newex 48 168 51 196617 qmetro 2;#P newex 48 43 362 196617 jcom.oscroute /camera_on /camera_settings /camera_size /device /camera;#P window linecount 0;#N vpatcher 607 201 1020 515;#P window setfont "Sans Serif" 9.;#P newex 92 110 88 196617 append 320 240;#P newex 92 88 262 196617 prepend script new grabber newex 107 304 98 196617;#P message 50 198 158 196617 script connect grabber 1 thru3 0;#P message 64 178 158 196617 script connect grabber 0 thru2 0;#P message 78 158 158 196617 script connect thru1 0 grabber 0;#P newex 50 50 53 196617 t b b b s;#P inlet 50 20 15 0;#P outlet 50 253 15 0;#P connect 1 0 2 0;#P connect 2 0 5 0;#P connect 3 0 0 0;#P connect 4 0 0 0;#P connect 7 0 0 0;#P connect 5 0 0 0;#P connect 2 1 4 0;#P connect 2 2 3 0;#P connect 2 3 6 0;#P connect 6 0 7 0;#P pop;#P newobj 476 84 85 196617 p script-grabber;#N vpatcher 796 44 1196 390;#P window setfont "Sans Serif" 9.;#P message 168 119 14 196617 1;#P message 122 121 34 196617 2047;#P newex 113 50 45 196617 loadbang;#P newex 50 75 51 196617 onebang 1;#P newex 273 156 28 196617 sel 0;#P newex 273 187 87 196617 print grab.ERROR;#P comment 57 177 21 196617 win;#P newex 127 200 67 196617 t jit.qt.grab;#P newex 50 200 69 196617 t jit.dx.grab;#P message 50 98 30 196617 sysv;#P newex 50 156 87 196617 split 1 2047;#P newex 50 121 36 196617 gestalt;#P newex 50 50 58 196617 r jcom.init;#P comment 139 177 26 196617 mac;#P outlet 50 261 15 0;#P fasten 12 0 11 0 118 71 55 71;#P connect 2 0 11 0;#P connect 11 0 5 0;#P connect 5 0 3 0;#P connect 13 0 4 0;#P connect 14 0 4 0;#P connect 3 0 4 0;#P connect 4 0 6 0;#P connect 7 0 0 0;#P connect 6 0 0 0;#P connect 4 1 7 0;#P fasten 3 1 10 0 81 146 278 146;#P connect 10 1 9 0;#P pop;#P newobj 476 48 81 196617 p check-system;#P window linecount 1;#N thispatcher;#Q end;#P newobj 476 121 68 196617 thispatcher;#P connect 29 0 3 0;#P connect 3 0 21 0;#P connect 5 0 21 0;#P connect 21 0 22 0;#P connect 22 0 4 0;#P connect 23 1 4 0;#P connect 21 1 23 0;#P connect 3 1 7 0;#P connect 4 0 6 0;#P fasten 17 0 6 0 363 514 527 514 527 228 123 228;#P fasten 13 0 6 0 208 521 527 521 527 228 123 228;#P fasten 8 0 6 0 294 215 123 215;#P connect 7 0 6 0;#P fasten 9 0 6 0 357 215 123 215;#P connect 22 1 6 0;#P connect 23 0 6 0;#P connect 25 0 6 0;#P connect 27 0 30 0;#P connect 3 2 26 0;#P fasten 26 1 25 0 235 136 193 136;#P connect 28 0 10 0;#P connect 10 0 20 0;#P connect 20 0 11 0;#P fasten 19 0 12 0 303 467 208 467;#P connect 11 0 12 0;#P connect 12 0 13 0;#P connect 24 0 8 0;#P fasten 10 0 19 0 208 420 303 420;#P fasten 24 0 9 0 294 172 357 172;#P fasten 10 1 14 0 259 416 363 416;#P connect 14 0 15 0;#P fasten 18 0 16 0 441 467 363 467;#P connect 15 0 16 0;#P connect 16 0 17 0;#P fasten 10 1 18 0 259 416 441 416;#P connect 1 0 2 0;#P connect 2 0 0 0;#P pop;#P newobj 55 179 109 196617 p video-grabber-stuff;#N vpatcher 259 132 748 484;#P outlet 131 277 15 0;#P window setfont "Sans Serif" 9.;#P window linecount 1;#P newex 215 93 32 196617 sel 1;#P newex 135 93 32 196617 sel 1;#P message 54 215 74 196617 /camera_on 0;#P message 207 215 95 196617 /synth_noise_on 0;#P message 131 215 56 196617 /file_on 0;#P newex 55 93 32 196617 sel 1;#P newex 55 60 251 196617 jcom.oscroute /camera_on /file_on /synth_noise_on;#P inlet 55 30 15 0;#P window linecount 0;#P comment 341 115 100 196617 Not very elegant \, but this ensures that only one metro is running at a time. This was easier to implement than trying to have one main metro.;#P connect 7 0 6 0;#P connect 8 0 6 0;#P connect 1 0 2 0;#P connect 2 0 3 0;#P connect 3 0 4 0;#P connect 8 0 4 0;#P connect 6 0 9 0;#P connect 4 0 9 0;#P connect 5 0 9 0;#P connect 2 1 7 0;#P connect 3 0 5 0;#P connect 7 0 5 0;#P connect 2 2 8 0;#P pop;#P newobj 71 71 92 196617 p turn-off-metros;#P inlet 55 37 15 0;#P comment 189 359 65 196617 Video output;#N comlet video output;#P outlet 195 339 15 0;#P outlet 84 339 15 0;#P connect 3 0 9 0;#P connect 4 0 9 0;#P connect 9 0 5 0;#P connect 3 0 4 0;#P connect 6 1 0 0;#P connect 9 0 6 0;#P connect 7 0 1 0;#P connect 6 0 1 0;#P connect 5 0 1 0;#P connect 9 0 7 0;#P pop;