{
	"patcher" : 	{
		"fileversion" : 1,
		"rect" : [ 34.0, 80.0, 1242.0, 744.0 ],
		"bglocked" : 0,
		"defrect" : [ 34.0, 80.0, 1242.0, 744.0 ],
		"openrect" : [ 0.0, 0.0, 0.0, 0.0 ],
		"openinpresentation" : 0,
		"default_fontsize" : 10.0,
		"default_fontface" : 0,
		"default_fontname" : "Arial",
		"gridonopen" : 0,
		"gridsize" : [ 15.0, 15.0 ],
		"gridsnaponopen" : 0,
		"toolbarvisible" : 1,
		"boxanimatetime" : 200,
		"imprint" : 0,
		"boxes" : [ 			{
				"box" : 				{
					"maxclass" : "newobj",
					"text" : "qlim 100",
					"fontsize" : 10.0,
					"numinlets" : 2,
					"patching_rect" : [ 966.0, 132.0, 48.0, 18.0 ],
					"numoutlets" : 1,
					"outlettype" : [ "" ],
					"fontname" : "Arial",
					"id" : "obj-13"
				}

			}
, 			{
				"box" : 				{
					"maxclass" : "newobj",
					"text" : "p oscinstance",
					"fontsize" : 10.0,
					"numinlets" : 1,
					"patching_rect" : [ 901.0, 89.0, 72.0, 18.0 ],
					"numoutlets" : 2,
					"outlettype" : [ "", "" ],
					"fontname" : "Arial",
					"id" : "obj-32",
					"patcher" : 					{
						"fileversion" : 1,
						"rect" : [ 25.0, 69.0, 640.0, 480.0 ],
						"bglocked" : 0,
						"defrect" : [ 25.0, 69.0, 640.0, 480.0 ],
						"openrect" : [ 0.0, 0.0, 0.0, 0.0 ],
						"openinpresentation" : 0,
						"default_fontsize" : 10.0,
						"default_fontface" : 0,
						"default_fontname" : "Verdana",
						"gridonopen" : 0,
						"gridsize" : [ 15.0, 15.0 ],
						"gridsnaponopen" : 0,
						"toolbarvisible" : 1,
						"boxanimatetime" : 200,
						"imprint" : 0,
						"boxes" : [ 							{
								"box" : 								{
									"maxclass" : "newobj",
									"text" : "jcom.oscroute /speakers",
									"fontsize" : 10.0,
									"numinlets" : 1,
									"patching_rect" : [ 66.0, 97.0, 134.0, 19.0 ],
									"numoutlets" : 2,
									"outlettype" : [ "", "" ],
									"fontname" : "Verdana",
									"id" : "obj-4"
								}

							}
, 							{
								"box" : 								{
									"maxclass" : "newobj",
									"text" : "prepend set",
									"fontsize" : 10.0,
									"numinlets" : 1,
									"patching_rect" : [ 288.0, 96.0, 70.0, 19.0 ],
									"numoutlets" : 1,
									"outlettype" : [ "" ],
									"fontname" : "Verdana",
									"id" : "obj-3"
								}

							}
, 							{
								"box" : 								{
									"maxclass" : "newobj",
									"text" : "prepend set",
									"fontsize" : 10.0,
									"numinlets" : 1,
									"patching_rect" : [ 206.0, 96.0, 70.0, 19.0 ],
									"numoutlets" : 1,
									"outlettype" : [ "" ],
									"fontname" : "Verdana",
									"id" : "obj-1"
								}

							}
, 							{
								"box" : 								{
									"maxclass" : "outlet",
									"numinlets" : 1,
									"patching_rect" : [ 124.0, 353.0, 25.0, 25.0 ],
									"numoutlets" : 0,
									"id" : "obj-2",
									"comment" : ""
								}

							}
, 							{
								"box" : 								{
									"maxclass" : "newobj",
									"text" : "append",
									"fontsize" : 10.0,
									"numinlets" : 1,
									"patching_rect" : [ 124.0, 193.0, 44.0, 18.0 ],
									"numoutlets" : 1,
									"outlettype" : [ "" ],
									"fontname" : "Arial",
									"id" : "obj-29"
								}

							}
, 							{
								"box" : 								{
									"maxclass" : "newobj",
									"text" : "append",
									"fontsize" : 10.0,
									"numinlets" : 1,
									"patching_rect" : [ 124.0, 137.0, 44.0, 18.0 ],
									"numoutlets" : 1,
									"outlettype" : [ "" ],
									"fontname" : "Arial",
									"id" : "obj-28"
								}

							}
, 							{
								"box" : 								{
									"maxclass" : "newobj",
									"text" : "jcom.oscinstance",
									"fontsize" : 10.0,
									"numinlets" : 1,
									"patching_rect" : [ 124.0, 75.0, 267.0, 18.0 ],
									"numoutlets" : 4,
									"outlettype" : [ "", "", "", "" ],
									"fontname" : "Arial",
									"id" : "obj-27"
								}

							}
, 							{
								"box" : 								{
									"maxclass" : "inlet",
									"numinlets" : 0,
									"patching_rect" : [ 124.0, 15.0, 25.0, 25.0 ],
									"numoutlets" : 1,
									"outlettype" : [ "" ],
									"id" : "obj-30",
									"comment" : ""
								}

							}
, 							{
								"box" : 								{
									"maxclass" : "outlet",
									"numinlets" : 1,
									"patching_rect" : [ 372.0, 347.0, 25.0, 25.0 ],
									"numoutlets" : 0,
									"id" : "obj-31",
									"comment" : ""
								}

							}
 ],
						"lines" : [ 							{
								"patchline" : 								{
									"source" : [ "obj-3", 0 ],
									"destination" : [ "obj-29", 0 ],
									"hidden" : 0,
									"midpoints" : [  ]
								}

							}
, 							{
								"patchline" : 								{
									"source" : [ "obj-1", 0 ],
									"destination" : [ "obj-28", 0 ],
									"hidden" : 0,
									"midpoints" : [  ]
								}

							}
, 							{
								"patchline" : 								{
									"source" : [ "obj-29", 0 ],
									"destination" : [ "obj-2", 0 ],
									"hidden" : 0,
									"midpoints" : [  ]
								}

							}
, 							{
								"patchline" : 								{
									"source" : [ "obj-28", 0 ],
									"destination" : [ "obj-29", 0 ],
									"hidden" : 0,
									"midpoints" : [  ]
								}

							}
, 							{
								"patchline" : 								{
									"source" : [ "obj-27", 2 ],
									"destination" : [ "obj-3", 0 ],
									"hidden" : 0,
									"midpoints" : [  ]
								}

							}
, 							{
								"patchline" : 								{
									"source" : [ "obj-27", 1 ],
									"destination" : [ "obj-1", 0 ],
									"hidden" : 0,
									"midpoints" : [  ]
								}

							}
, 							{
								"patchline" : 								{
									"source" : [ "obj-30", 0 ],
									"destination" : [ "obj-27", 0 ],
									"hidden" : 0,
									"midpoints" : [  ]
								}

							}
, 							{
								"patchline" : 								{
									"source" : [ "obj-27", 3 ],
									"destination" : [ "obj-31", 0 ],
									"hidden" : 0,
									"midpoints" : [ 381.5, 326.0, 381.5, 326.0 ]
								}

							}
, 							{
								"patchline" : 								{
									"source" : [ "obj-27", 0 ],
									"destination" : [ "obj-4", 0 ],
									"hidden" : 0,
									"midpoints" : [  ]
								}

							}
, 							{
								"patchline" : 								{
									"source" : [ "obj-4", 0 ],
									"destination" : [ "obj-28", 0 ],
									"hidden" : 0,
									"midpoints" : [  ]
								}

							}
 ]
					}
,
					"saved_object_attributes" : 					{
						"default_fontface" : 0,
						"fontface" : 0,
						"fontsize" : 10.0,
						"globalpatchername" : "",
						"default_fontname" : "Verdana",
						"default_fontsize" : 10.0,
						"fontname" : "Verdana"
					}

				}

			}
, 			{
				"box" : 				{
					"maxclass" : "newobj",
					"varname" : "multiin",
					"text" : "jcom.multi.in~",
					"fontsize" : 9.0,
					"numinlets" : 32,
					"patching_rect" : [ 220.0, 601.0, 417.0, 17.0 ],
					"numoutlets" : 1,
					"outlettype" : [ "" ],
					"fontname" : "Arial",
					"id" : "obj-1"
				}

			}
, 			{
				"box" : 				{
					"maxclass" : "newobj",
					"varname" : "multiout",
					"text" : "jcom.multi.out~",
					"fontsize" : 9.0,
					"numinlets" : 2,
					"patching_rect" : [ 220.0, 95.0, 417.0, 17.0 ],
					"numoutlets" : 32,
					"outlettype" : [ "", "", "", "", "", "", "", "", "", "", "", "", "", "", "", "", "", "", "", "", "", "", "", "", "", "", "", "", "", "", "", "" ],
					"fontname" : "Arial",
					"id" : "obj-2"
				}

			}
, 			{
				"box" : 				{
					"maxclass" : "newobj",
					"text" : "prepend dspstate",
					"fontsize" : 9.0,
					"numinlets" : 1,
					"patching_rect" : [ 1089.0, 126.0, 86.0, 17.0 ],
					"numoutlets" : 1,
					"outlettype" : [ "" ],
					"fontname" : "Arial",
					"id" : "obj-3"
				}

			}
, 			{
				"box" : 				{
					"maxclass" : "inlet",
					"numinlets" : 0,
					"patching_rect" : [ 138.0, 50.0, 15.0, 15.0 ],
					"numoutlets" : 1,
					"outlettype" : [ "" ],
					"id" : "obj-4",
					"comment" : ""
				}

			}
, 			{
				"box" : 				{
					"maxclass" : "newobj",
					"text" : "change",
					"fontsize" : 9.0,
					"numinlets" : 1,
					"patching_rect" : [ 1178.0, 102.0, 40.0, 17.0 ],
					"numoutlets" : 3,
					"outlettype" : [ "", "int", "int" ],
					"fontname" : "Arial",
					"id" : "obj-5"
				}

			}
, 			{
				"box" : 				{
					"maxclass" : "newobj",
					"text" : "prepend sr",
					"fontsize" : 9.0,
					"numinlets" : 1,
					"patching_rect" : [ 1178.0, 126.0, 54.0, 17.0 ],
					"numoutlets" : 1,
					"outlettype" : [ "" ],
					"fontname" : "Arial",
					"id" : "obj-6"
				}

			}
, 			{
				"box" : 				{
					"maxclass" : "newobj",
					"text" : "dspstate~",
					"fontsize" : 9.0,
					"numinlets" : 1,
					"patching_rect" : [ 1089.0, 74.0, 54.0, 17.0 ],
					"numoutlets" : 4,
					"outlettype" : [ "int", "float", "int", "int" ],
					"fontname" : "Arial",
					"id" : "obj-7"
				}

			}
, 			{
				"box" : 				{
					"maxclass" : "newobj",
					"text" : "jcom.pass /position /numSpeakers",
					"fontsize" : 9.0,
					"numinlets" : 1,
					"patching_rect" : [ 901.0, 112.0, 148.0, 17.0 ],
					"numoutlets" : 3,
					"outlettype" : [ "", "", "" ],
					"fontname" : "Arial",
					"id" : "obj-8"
				}

			}
, 			{
				"box" : 				{
					"maxclass" : "outlet",
					"varname" : "out[1]",
					"numinlets" : 1,
					"patching_rect" : [ 220.0, 626.0, 15.0, 15.0 ],
					"numoutlets" : 0,
					"id" : "obj-9",
					"comment" : ""
				}

			}
, 			{
				"box" : 				{
					"maxclass" : "inlet",
					"varname" : "in[1]",
					"numinlets" : 0,
					"patching_rect" : [ 220.0, 50.0, 15.0, 15.0 ],
					"numoutlets" : 1,
					"outlettype" : [ "" ],
					"id" : "obj-10",
					"comment" : ""
				}

			}
, 			{
				"box" : 				{
					"maxclass" : "newobj",
					"text" : "thispatcher",
					"fontsize" : 9.0,
					"numinlets" : 1,
					"patching_rect" : [ 838.0, 163.0, 61.0, 17.0 ],
					"numoutlets" : 2,
					"outlettype" : [ "", "" ],
					"fontname" : "Arial",
					"id" : "obj-11",
					"save" : [ "#N", "thispatcher", ";", "#Q", "end", ";" ]
				}

			}
, 			{
				"box" : 				{
					"maxclass" : "newobj",
					"varname" : "javascript",
					"text" : "js jcom.sur.speaker.delays.js",
					"fontsize" : 9.0,
					"numinlets" : 1,
					"patching_rect" : [ 900.0, 163.0, 222.0, 17.0 ],
					"numoutlets" : 33,
					"outlettype" : [ "", "", "", "", "", "", "", "", "", "", "", "", "", "", "", "", "", "", "", "", "", "", "", "", "", "", "", "", "", "", "", "", "" ],
					"fontname" : "Arial",
					"id" : "obj-12"
				}

			}
 ],
		"lines" : [ 			{
				"patchline" : 				{
					"source" : [ "obj-4", 0 ],
					"destination" : [ "obj-32", 0 ],
					"hidden" : 0,
					"midpoints" : [ 147.0, 81.0, 910.5, 81.0 ]
				}

			}
, 			{
				"patchline" : 				{
					"source" : [ "obj-10", 0 ],
					"destination" : [ "obj-2", 0 ],
					"hidden" : 0,
					"midpoints" : [  ]
				}

			}
, 			{
				"patchline" : 				{
					"source" : [ "obj-1", 0 ],
					"destination" : [ "obj-9", 0 ],
					"hidden" : 0,
					"midpoints" : [  ]
				}

			}
, 			{
				"patchline" : 				{
					"source" : [ "obj-3", 0 ],
					"destination" : [ "obj-12", 0 ],
					"hidden" : 0,
					"midpoints" : [ 1098.5, 157.0, 909.5, 157.0 ]
				}

			}
, 			{
				"patchline" : 				{
					"source" : [ "obj-12", 0 ],
					"destination" : [ "obj-11", 0 ],
					"hidden" : 0,
					"midpoints" : [ 909.5, 183.0, 835.0, 183.0, 835.0, 158.0, 847.5, 158.0 ]
				}

			}
, 			{
				"patchline" : 				{
					"source" : [ "obj-7", 0 ],
					"destination" : [ "obj-3", 0 ],
					"hidden" : 0,
					"midpoints" : [  ]
				}

			}
, 			{
				"patchline" : 				{
					"source" : [ "obj-7", 1 ],
					"destination" : [ "obj-5", 0 ],
					"hidden" : 0,
					"midpoints" : [ 1110.166626, 96.0, 1187.5, 96.0 ]
				}

			}
, 			{
				"patchline" : 				{
					"source" : [ "obj-5", 0 ],
					"destination" : [ "obj-6", 0 ],
					"hidden" : 0,
					"midpoints" : [  ]
				}

			}
, 			{
				"patchline" : 				{
					"source" : [ "obj-6", 0 ],
					"destination" : [ "obj-12", 0 ],
					"hidden" : 0,
					"midpoints" : [ 1187.5, 160.0, 909.5, 160.0 ]
				}

			}
, 			{
				"patchline" : 				{
					"source" : [ "obj-32", 0 ],
					"destination" : [ "obj-8", 0 ],
					"hidden" : 0,
					"midpoints" : [  ]
				}

			}
, 			{
				"patchline" : 				{
					"source" : [ "obj-32", 1 ],
					"destination" : [ "obj-8", 0 ],
					"hidden" : 0,
					"midpoints" : [  ]
				}

			}
, 			{
				"patchline" : 				{
					"source" : [ "obj-8", 0 ],
					"destination" : [ "obj-12", 0 ],
					"hidden" : 0,
					"midpoints" : [  ]
				}

			}
, 			{
				"patchline" : 				{
					"source" : [ "obj-8", 1 ],
					"destination" : [ "obj-13", 0 ],
					"hidden" : 0,
					"midpoints" : [  ]
				}

			}
, 			{
				"patchline" : 				{
					"source" : [ "obj-13", 0 ],
					"destination" : [ "obj-12", 0 ],
					"hidden" : 0,
					"midpoints" : [ 975.5, 153.0, 909.5, 153.0 ]
				}

			}
 ]
	}

}
