max v2;#N vpatcher 34 80 1276 798;#P origin 34 -18;#P window setfont "Sans Serif" 9.;#P window linecount 1;#P newex 220 601 417 196617 jcom.multi.in~;#P objectname multiin;#P newex 220 95 417 196617 jcom.multi.out~;#P objectname multiout;#P newex 1052 109 86 196617 prepend dspstate;#P inlet 138 50 15 0;#P newex 1141 85 40 196617 change;#P newex 1141 109 58 196617 prepend sr;#P newex 1052 57 54 196617 dspstate~;#P newex 900 126 117 196617 jcom.pass /aed /voices;#P outlet 220 626 15 0;#P objectname out[1];#P inlet 220 50 15 0;#P objectname in[1];#N thispatcher;#Q end;#P newobj 900 595 61 196617 thispatcher;#P newex 900 161 222 196617 js jcom.sur.speaker.delays.js;#P objectname javascript;#P connect 2 0 10 0;#P connect 11 0 3 0;#P fasten 8 0 4 0 143 80 905 80;#P lcolor 1;#P fasten 9 0 0 0 1057 154 905 154;#P fasten 6 0 0 0 1146 154 905 154;#P connect 4 0 0 0;#P fasten 4 1 0 0 958 154 905 154;#P connect 0 0 1 0;#P connect 5 0 9 0;#P fasten 5 1 7 0 1071 79 1146 79;#P connect 7 0 6 0;#P pop;