{
	"patcher" : 	{
		"fileversion" : 1,
		"rect" : [ 34.0, 80.0, 1242.0, 744.0 ],
		"bglocked" : 0,
		"defrect" : [ 34.0, 80.0, 1242.0, 744.0 ],
		"openrect" : [ 0.0, 0.0, 0.0, 0.0 ],
		"openinpresentation" : 0,
		"default_fontsize" : 10.0,
		"default_fontface" : 0,
		"default_fontname" : "Arial",
		"gridonopen" : 0,
		"gridsize" : [ 15.0, 15.0 ],
		"gridsnaponopen" : 0,
		"toolbarvisible" : 1,
		"boxanimatetime" : 200,
		"imprint" : 0,
		"metadata" : [  ],
		"boxes" : [ 			{
				"box" : 				{
					"maxclass" : "newobj",
					"varname" : "multiin",
					"text" : "jcom.multi.in~",
					"numoutlets" : 1,
					"fontsize" : 9.0,
					"outlettype" : [ "" ],
					"id" : "obj-1",
					"fontname" : "Arial",
					"numinlets" : 32,
					"patching_rect" : [ 220.0, 601.0, 417.0, 17.0 ]
				}

			}
, 			{
				"box" : 				{
					"maxclass" : "newobj",
					"varname" : "multiout",
					"text" : "jcom.multi.out~",
					"numoutlets" : 32,
					"fontsize" : 9.0,
					"outlettype" : [ "", "", "", "", "", "", "", "", "", "", "", "", "", "", "", "", "", "", "", "", "", "", "", "", "", "", "", "", "", "", "", "" ],
					"id" : "obj-2",
					"fontname" : "Arial",
					"numinlets" : 2,
					"patching_rect" : [ 220.0, 95.0, 417.0, 17.0 ]
				}

			}
, 			{
				"box" : 				{
					"maxclass" : "newobj",
					"text" : "prepend dspstate",
					"numoutlets" : 1,
					"fontsize" : 9.0,
					"outlettype" : [ "" ],
					"id" : "obj-3",
					"fontname" : "Arial",
					"numinlets" : 1,
					"patching_rect" : [ 1052.0, 109.0, 86.0, 17.0 ]
				}

			}
, 			{
				"box" : 				{
					"maxclass" : "inlet",
					"numoutlets" : 1,
					"outlettype" : [ "" ],
					"id" : "obj-4",
					"numinlets" : 0,
					"patching_rect" : [ 138.0, 50.0, 15.0, 15.0 ],
					"comment" : ""
				}

			}
, 			{
				"box" : 				{
					"maxclass" : "newobj",
					"text" : "change",
					"numoutlets" : 3,
					"fontsize" : 9.0,
					"outlettype" : [ "", "int", "int" ],
					"id" : "obj-5",
					"fontname" : "Arial",
					"numinlets" : 1,
					"patching_rect" : [ 1141.0, 85.0, 40.0, 17.0 ]
				}

			}
, 			{
				"box" : 				{
					"maxclass" : "newobj",
					"text" : "prepend sr",
					"numoutlets" : 1,
					"fontsize" : 9.0,
					"outlettype" : [ "" ],
					"id" : "obj-6",
					"fontname" : "Arial",
					"numinlets" : 1,
					"patching_rect" : [ 1141.0, 109.0, 58.0, 17.0 ]
				}

			}
, 			{
				"box" : 				{
					"maxclass" : "newobj",
					"text" : "dspstate~",
					"numoutlets" : 4,
					"fontsize" : 9.0,
					"outlettype" : [ "int", "float", "int", "int" ],
					"id" : "obj-7",
					"fontname" : "Arial",
					"numinlets" : 1,
					"patching_rect" : [ 1052.0, 57.0, 54.0, 17.0 ]
				}

			}
, 			{
				"box" : 				{
					"maxclass" : "newobj",
					"text" : "jcom.pass /aed /voices",
					"numoutlets" : 3,
					"fontsize" : 9.0,
					"outlettype" : [ "", "", "" ],
					"id" : "obj-8",
					"fontname" : "Arial",
					"numinlets" : 1,
					"patching_rect" : [ 900.0, 126.0, 117.0, 17.0 ]
				}

			}
, 			{
				"box" : 				{
					"maxclass" : "outlet",
					"varname" : "out[1]",
					"numoutlets" : 0,
					"id" : "obj-9",
					"numinlets" : 1,
					"patching_rect" : [ 220.0, 626.0, 15.0, 15.0 ],
					"comment" : ""
				}

			}
, 			{
				"box" : 				{
					"maxclass" : "inlet",
					"varname" : "in[1]",
					"numoutlets" : 1,
					"outlettype" : [ "" ],
					"id" : "obj-10",
					"numinlets" : 0,
					"patching_rect" : [ 220.0, 50.0, 15.0, 15.0 ],
					"comment" : ""
				}

			}
, 			{
				"box" : 				{
					"maxclass" : "newobj",
					"text" : "thispatcher",
					"numoutlets" : 2,
					"fontsize" : 9.0,
					"outlettype" : [ "", "" ],
					"id" : "obj-11",
					"fontname" : "Arial",
					"numinlets" : 1,
					"patching_rect" : [ 900.0, 595.0, 61.0, 17.0 ],
					"save" : [ "#N", "thispatcher", ";", "#Q", "end", ";" ]
				}

			}
, 			{
				"box" : 				{
					"maxclass" : "newobj",
					"varname" : "javascript",
					"text" : "js jcom.sur.speaker.delays.js",
					"numoutlets" : 17,
					"fontsize" : 9.0,
					"outlettype" : [ "", "", "", "", "", "", "", "", "", "", "", "", "", "", "", "", "" ],
					"id" : "obj-12",
					"fontname" : "Arial",
					"numinlets" : 1,
					"patching_rect" : [ 900.0, 161.0, 222.0, 17.0 ]
				}

			}
 ],
		"lines" : [ 			{
				"patchline" : 				{
					"source" : [ "obj-5", 0 ],
					"destination" : [ "obj-6", 0 ],
					"hidden" : 0,
					"midpoints" : [  ]
				}

			}
, 			{
				"patchline" : 				{
					"source" : [ "obj-7", 1 ],
					"destination" : [ "obj-5", 0 ],
					"hidden" : 0,
					"midpoints" : [ 1073.166626, 79.0, 1150.5, 79.0 ]
				}

			}
, 			{
				"patchline" : 				{
					"source" : [ "obj-7", 0 ],
					"destination" : [ "obj-3", 0 ],
					"hidden" : 0,
					"midpoints" : [  ]
				}

			}
, 			{
				"patchline" : 				{
					"source" : [ "obj-12", 0 ],
					"destination" : [ "obj-11", 0 ],
					"hidden" : 0,
					"midpoints" : [  ]
				}

			}
, 			{
				"patchline" : 				{
					"source" : [ "obj-8", 1 ],
					"destination" : [ "obj-12", 0 ],
					"hidden" : 0,
					"midpoints" : [ 958.5, 154.0, 909.5, 154.0 ]
				}

			}
, 			{
				"patchline" : 				{
					"source" : [ "obj-8", 0 ],
					"destination" : [ "obj-12", 0 ],
					"hidden" : 0,
					"midpoints" : [  ]
				}

			}
, 			{
				"patchline" : 				{
					"source" : [ "obj-6", 0 ],
					"destination" : [ "obj-12", 0 ],
					"hidden" : 0,
					"midpoints" : [ 1150.5, 154.0, 909.5, 154.0 ]
				}

			}
, 			{
				"patchline" : 				{
					"source" : [ "obj-3", 0 ],
					"destination" : [ "obj-12", 0 ],
					"hidden" : 0,
					"midpoints" : [ 1061.5, 154.0, 909.5, 154.0 ]
				}

			}
, 			{
				"patchline" : 				{
					"source" : [ "obj-4", 0 ],
					"destination" : [ "obj-8", 0 ],
					"hidden" : 0,
					"color" : [ 0.6667, 0.6667, 0.6667, 1.0 ],
					"midpoints" : [ 147.0, 80.0, 909.5, 80.0 ]
				}

			}
, 			{
				"patchline" : 				{
					"source" : [ "obj-1", 0 ],
					"destination" : [ "obj-9", 0 ],
					"hidden" : 0,
					"midpoints" : [  ]
				}

			}
, 			{
				"patchline" : 				{
					"source" : [ "obj-10", 0 ],
					"destination" : [ "obj-2", 0 ],
					"hidden" : 0,
					"midpoints" : [  ]
				}

			}
 ]
	}

}
