{
	"patcher" : 	{
		"fileversion" : 1,
		"rect" : [ 105.0, 241.0, 991.0, 304.0 ],
		"bglocked" : 0,
		"defrect" : [ 105.0, 241.0, 991.0, 304.0 ],
		"openrect" : [ 0.0, 0.0, 0.0, 0.0 ],
		"openinpresentation" : 1,
		"default_fontsize" : 10.0,
		"default_fontface" : 0,
		"default_fontname" : "Arial",
		"gridonopen" : 0,
		"gridsize" : [ 5.0, 5.0 ],
		"gridsnaponopen" : 0,
		"toolbarvisible" : 1,
		"boxanimatetime" : 200,
		"imprint" : 0,
		"boxes" : [ 			{
				"box" : 				{
					"maxclass" : "newobj",
					"text" : "poly~ jcom.sur.speaker_instance 32",
					"fontsize" : 10.0,
					"numinlets" : 1,
					"patching_rect" : [ 342.0, 219.0, 195.0, 19.0 ],
					"numoutlets" : 0,
					"fontname" : "Verdana",
					"id" : "obj-2"
				}

			}
, 			{
				"box" : 				{
					"maxclass" : "comment",
					"text" : "Speakers:",
					"fontsize" : 10.0,
					"numinlets" : 1,
					"patching_rect" : [ 57.0, 94.0, 159.0, 19.0 ],
					"presentation" : 1,
					"frgb" : [ 0.0, 0.0, 0.0, 1.0 ],
					"numoutlets" : 0,
					"fontname" : "Verdana",
					"presentation_rect" : [ 23.0, 33.0, 61.0, 19.0 ],
					"id" : "obj-17"
				}

			}
, 			{
				"box" : 				{
					"maxclass" : "message",
					"text" : "/preset/store 1 default, /preset/write",
					"fontsize" : 9.0,
					"numinlets" : 2,
					"patching_rect" : [ 230.0, 121.0, 191.0, 15.0 ],
					"numoutlets" : 1,
					"outlettype" : [ "" ],
					"fontname" : "Arial",
					"id" : "obj-4"
				}

			}
, 			{
				"box" : 				{
					"maxclass" : "number",
					"fontsize" : 10.0,
					"numinlets" : 1,
					"patching_rect" : [ 342.0, 180.0, 22.330078, 18.0 ],
					"presentation" : 1,
					"numoutlets" : 2,
					"triangle" : 0,
					"outlettype" : [ "int", "bang" ],
					"fontname" : "Arial",
					"presentation_rect" : [ 80.0, 33.0, 22.330078, 18.0 ],
					"id" : "obj-29"
				}

			}
, 			{
				"box" : 				{
					"maxclass" : "newobj",
					"text" : "jcom.in",
					"fontsize" : 9.0,
					"numinlets" : 1,
					"patching_rect" : [ 60.0, 171.0, 43.0, 17.0 ],
					"numoutlets" : 2,
					"outlettype" : [ "", "" ],
					"fontname" : "Arial",
					"id" : "obj-1"
				}

			}
, 			{
				"box" : 				{
					"maxclass" : "message",
					"text" : "/documentation/generate",
					"fontsize" : 9.0,
					"numinlets" : 2,
					"patching_rect" : [ 101.0, 120.0, 125.0, 15.0 ],
					"numoutlets" : 1,
					"outlettype" : [ "" ],
					"fontname" : "Arial",
					"id" : "obj-8"
				}

			}
, 			{
				"box" : 				{
					"maxclass" : "outlet",
					"numinlets" : 1,
					"patching_rect" : [ 62.0, 237.0, 13.0, 13.0 ],
					"numoutlets" : 0,
					"id" : "obj-12",
					"comment" : ""
				}

			}
, 			{
				"box" : 				{
					"maxclass" : "inlet",
					"numinlets" : 0,
					"patching_rect" : [ 212.0, 188.0, 13.0, 13.0 ],
					"numoutlets" : 1,
					"outlettype" : [ "" ],
					"id" : "obj-13",
					"comment" : ""
				}

			}
, 			{
				"box" : 				{
					"maxclass" : "newobj",
					"varname" : "voices",
					"text" : "jcom.parameter numSpeakers @type msg_int @repetitions/allow 0 @range/bounds 1 32 @range/clipmode both @description \"The number of audio channels that the ambisonic signal is diffused to. Changes only take effect when audio is off.\"",
					"linecount" : 2,
					"fontsize" : 9.0,
					"numinlets" : 1,
					"patching_rect" : [ 373.0, 177.0, 604.0, 27.0 ],
					"numoutlets" : 3,
					"outlettype" : [ "", "", "" ],
					"fontname" : "Arial",
					"id" : "obj-18"
				}

			}
, 			{
				"box" : 				{
					"maxclass" : "comment",
					"text" : "command input",
					"fontsize" : 9.0,
					"numinlets" : 1,
					"patching_rect" : [ 14.0, 121.0, 79.0, 17.0 ],
					"frgb" : [ 0.0, 0.0, 0.0, 1.0 ],
					"numoutlets" : 0,
					"fontname" : "Arial",
					"id" : "obj-20"
				}

			}
, 			{
				"box" : 				{
					"maxclass" : "inlet",
					"numinlets" : 0,
					"patching_rect" : [ 0.0, 121.0, 13.0, 13.0 ],
					"numoutlets" : 1,
					"outlettype" : [ "" ],
					"id" : "obj-21",
					"comment" : ""
				}

			}
, 			{
				"box" : 				{
					"maxclass" : "newobj",
					"text" : "jalg.sur.speaker.delay~",
					"fontsize" : 9.0,
					"numinlets" : 2,
					"patching_rect" : [ 60.0, 213.0, 162.0, 17.0 ],
					"numoutlets" : 1,
					"outlettype" : [ "" ],
					"fontname" : "Arial",
					"id" : "obj-23"
				}

			}
, 			{
				"box" : 				{
					"maxclass" : "comment",
					"text" : "----multicable signal input----",
					"fontsize" : 9.0,
					"numinlets" : 1,
					"patching_rect" : [ 138.0, 171.0, 155.0, 17.0 ],
					"frgb" : [ 0.0, 0.0, 0.0, 1.0 ],
					"numoutlets" : 0,
					"fontname" : "Arial",
					"id" : "obj-24"
				}

			}
, 			{
				"box" : 				{
					"maxclass" : "outlet",
					"numinlets" : 1,
					"patching_rect" : [ 0.0, 237.0, 13.0, 13.0 ],
					"numoutlets" : 0,
					"id" : "obj-25",
					"comment" : ""
				}

			}
, 			{
				"box" : 				{
					"maxclass" : "comment",
					"text" : "---multicable signal output---",
					"fontsize" : 9.0,
					"numinlets" : 1,
					"patching_rect" : [ 77.0, 237.0, 151.0, 17.0 ],
					"frgb" : [ 0.0, 0.0, 0.0, 1.0 ],
					"numoutlets" : 0,
					"fontname" : "Arial",
					"id" : "obj-26"
				}

			}
, 			{
				"box" : 				{
					"maxclass" : "newobj",
					"varname" : "jcom.hub",
					"text" : "jcom.hub @description \"Adjust delay of the loudspeakers to adjust for varying distances.\"",
					"fontsize" : 9.0,
					"numinlets" : 1,
					"patching_rect" : [ 0.0, 140.0, 466.0, 17.0 ],
					"numoutlets" : 2,
					"outlettype" : [ "", "" ],
					"fontname" : "Arial",
					"id" : "obj-27"
				}

			}
, 			{
				"box" : 				{
					"maxclass" : "jcom.ui",
					"text" : "/editing_this_module",
					"numinlets" : 1,
					"patching_rect" : [ 0.0, 0.0, 150.0, 70.0 ],
					"presentation" : 1,
					"numoutlets" : 1,
					"prefix" : "audio",
					"has_mute" : 1,
					"outlettype" : [ "" ],
					"presentation_rect" : [ 0.0, 0.0, 150.0, 70.0 ],
					"id" : "obj-30"
				}

			}
 ],
		"lines" : [ 			{
				"patchline" : 				{
					"source" : [ "obj-23", 0 ],
					"destination" : [ "obj-12", 0 ],
					"hidden" : 0,
					"midpoints" : [  ]
				}

			}
, 			{
				"patchline" : 				{
					"source" : [ "obj-13", 0 ],
					"destination" : [ "obj-23", 1 ],
					"hidden" : 0,
					"midpoints" : [  ]
				}

			}
, 			{
				"patchline" : 				{
					"source" : [ "obj-1", 0 ],
					"destination" : [ "obj-23", 0 ],
					"hidden" : 0,
					"midpoints" : [  ]
				}

			}
, 			{
				"patchline" : 				{
					"source" : [ "obj-21", 0 ],
					"destination" : [ "obj-27", 0 ],
					"hidden" : 0,
					"midpoints" : [  ]
				}

			}
, 			{
				"patchline" : 				{
					"source" : [ "obj-8", 0 ],
					"destination" : [ "obj-27", 0 ],
					"hidden" : 0,
					"midpoints" : [ 110.5, 137.0, 9.5, 137.0 ]
				}

			}
, 			{
				"patchline" : 				{
					"source" : [ "obj-27", 0 ],
					"destination" : [ "obj-25", 0 ],
					"hidden" : 0,
					"midpoints" : [  ]
				}

			}
, 			{
				"patchline" : 				{
					"source" : [ "obj-4", 0 ],
					"destination" : [ "obj-27", 0 ],
					"hidden" : 0,
					"midpoints" : [  ]
				}

			}
, 			{
				"patchline" : 				{
					"source" : [ "obj-29", 0 ],
					"destination" : [ "obj-18", 0 ],
					"hidden" : 0,
					"midpoints" : [  ]
				}

			}
, 			{
				"patchline" : 				{
					"source" : [ "obj-18", 0 ],
					"destination" : [ "obj-29", 0 ],
					"hidden" : 0,
					"midpoints" : [  ]
				}

			}
 ]
	}

}
