{
	"patcher" : 	{
		"fileversion" : 1,
		"rect" : [ 172.0, 153.0, 736.0, 546.0 ],
		"bglocked" : 0,
		"defrect" : [ 172.0, 153.0, 736.0, 546.0 ],
		"openrect" : [ 0.0, 0.0, 0.0, 0.0 ],
		"openinpresentation" : 0,
		"default_fontsize" : 10.970939,
		"default_fontface" : 0,
		"default_fontname" : "Verdana",
		"gridonopen" : 0,
		"gridsize" : [ 5.0, 5.0 ],
		"gridsnaponopen" : 0,
		"toolbarvisible" : 1,
		"boxanimatetime" : 200,
		"imprint" : 0,
		"metadata" : [  ],
		"boxes" : [ 			{
				"box" : 				{
					"maxclass" : "jit.pwindow",
					"patching_rect" : [ 235.0, 20.0, 60.0, 45.0 ],
					"outlettype" : [ "", "" ],
					"id" : "obj-22",
					"numinlets" : 1,
					"numoutlets" : 2
				}

			}
, 			{
				"box" : 				{
					"maxclass" : "newobj",
					"text" : "jcom.out",
					"hidden" : 1,
					"patching_rect" : [ 246.0, 328.0, 52.0, 18.0 ],
					"outlettype" : [ "", "" ],
					"id" : "obj-1",
					"fontname" : "Verdana",
					"fontsize" : 9.873845,
					"numinlets" : 1,
					"numoutlets" : 2
				}

			}
, 			{
				"box" : 				{
					"maxclass" : "inlet",
					"hidden" : 1,
					"patching_rect" : [ 320.0, 178.0, 13.0, 13.0 ],
					"outlettype" : [ "" ],
					"id" : "obj-2",
					"numinlets" : 0,
					"numoutlets" : 1,
					"comment" : ""
				}

			}
, 			{
				"box" : 				{
					"maxclass" : "comment",
					"text" : "VIDEO INPUT",
					"hidden" : 1,
					"patching_rect" : [ 335.0, 178.0, 75.0, 18.0 ],
					"frgb" : [ 0.658824, 0.658824, 0.658824, 1.0 ],
					"id" : "obj-3",
					"fontname" : "Verdana",
					"fontsize" : 9.873845,
					"numinlets" : 1,
					"numoutlets" : 0
				}

			}
, 			{
				"box" : 				{
					"maxclass" : "newobj",
					"text" : "jcom.in 1",
					"hidden" : 1,
					"patching_rect" : [ 320.0, 197.0, 78.0, 18.0 ],
					"outlettype" : [ "", "", "" ],
					"id" : "obj-4",
					"fontname" : "Verdana",
					"fontsize" : 9.873845,
					"numinlets" : 1,
					"numoutlets" : 3
				}

			}
, 			{
				"box" : 				{
					"maxclass" : "newobj",
					"text" : "pcontrol",
					"hidden" : 1,
					"patching_rect" : [ 178.0, 253.0, 49.0, 18.0 ],
					"outlettype" : [ "" ],
					"id" : "obj-5",
					"fontname" : "Verdana",
					"fontsize" : 9.873845,
					"numinlets" : 1,
					"numoutlets" : 1
				}

			}
, 			{
				"box" : 				{
					"maxclass" : "newobj",
					"text" : "jcom.pass open",
					"hidden" : 1,
					"patching_rect" : [ 178.0, 230.0, 86.0, 18.0 ],
					"outlettype" : [ "", "" ],
					"id" : "obj-6",
					"fontname" : "Verdana",
					"fontsize" : 9.873845,
					"numinlets" : 1,
					"numoutlets" : 2
				}

			}
, 			{
				"box" : 				{
					"maxclass" : "message",
					"text" : "/documentation/generate",
					"hidden" : 1,
					"patching_rect" : [ 100.0, 87.0, 135.0, 16.0 ],
					"outlettype" : [ "" ],
					"id" : "obj-7",
					"fontname" : "Verdana",
					"fontsize" : 9.873845,
					"numinlets" : 2,
					"numoutlets" : 1,
					"bgcolor" : [ 0.8, 0.54902, 0.54902, 1.0 ]
				}

			}
, 			{
				"box" : 				{
					"maxclass" : "comment",
					"text" : "VIDEO OUTPUT",
					"hidden" : 1,
					"patching_rect" : [ 261.0, 366.0, 85.0, 18.0 ],
					"frgb" : [ 0.658824, 0.658824, 0.658824, 1.0 ],
					"id" : "obj-8",
					"fontname" : "Verdana",
					"fontsize" : 9.873845,
					"numinlets" : 1,
					"numoutlets" : 0
				}

			}
, 			{
				"box" : 				{
					"maxclass" : "outlet",
					"hidden" : 1,
					"patching_rect" : [ 246.0, 366.0, 13.0, 13.0 ],
					"id" : "obj-9",
					"numinlets" : 1,
					"numoutlets" : 0,
					"comment" : ""
				}

			}
, 			{
				"box" : 				{
					"maxclass" : "newobj",
					"text" : "jalg.mblur%",
					"hidden" : 1,
					"patching_rect" : [ 246.0, 302.0, 84.0, 18.0 ],
					"outlettype" : [ "jit_matrix" ],
					"id" : "obj-10",
					"fontname" : "Verdana",
					"fontsize" : 9.873845,
					"numinlets" : 2,
					"numoutlets" : 1
				}

			}
, 			{
				"box" : 				{
					"maxclass" : "number",
					"patching_rect" : [ 69.0, 21.0, 43.0, 18.0 ],
					"triscale" : 0.9,
					"outlettype" : [ "int", "bang" ],
					"id" : "obj-11",
					"fontname" : "Verdana",
					"textcolor" : [ 0.709804, 0.709804, 0.709804, 1.0 ],
					"triangle" : 0,
					"fontsize" : 9.873845,
					"minimum" : 1,
					"numinlets" : 1,
					"numoutlets" : 2,
					"bgcolor" : [ 0.866667, 0.866667, 0.866667, 1.0 ]
				}

			}
, 			{
				"box" : 				{
					"maxclass" : "comment",
					"text" : "slide_up",
					"patching_rect" : [ 14.0, 23.0, 50.0, 18.0 ],
					"frgb" : [ 0.584314, 0.584314, 0.584314, 1.0 ],
					"id" : "obj-12",
					"fontname" : "Verdana",
					"textcolor" : [ 0.584314, 0.584314, 0.584314, 1.0 ],
					"fontsize" : 9.873845,
					"numinlets" : 1,
					"numoutlets" : 0
				}

			}
, 			{
				"box" : 				{
					"maxclass" : "number",
					"patching_rect" : [ 69.0, 35.0, 43.0, 18.0 ],
					"triscale" : 0.9,
					"outlettype" : [ "int", "bang" ],
					"id" : "obj-13",
					"fontname" : "Verdana",
					"textcolor" : [ 0.709804, 0.709804, 0.709804, 1.0 ],
					"triangle" : 0,
					"fontsize" : 9.873845,
					"minimum" : 0,
					"numinlets" : 1,
					"numoutlets" : 2,
					"bgcolor" : [ 0.866667, 0.866667, 0.866667, 1.0 ]
				}

			}
, 			{
				"box" : 				{
					"maxclass" : "comment",
					"text" : "slide_down",
					"patching_rect" : [ 14.0, 37.0, 64.0, 18.0 ],
					"frgb" : [ 0.584314, 0.584314, 0.584314, 1.0 ],
					"id" : "obj-14",
					"fontname" : "Verdana",
					"textcolor" : [ 0.584314, 0.584314, 0.584314, 1.0 ],
					"fontsize" : 9.873845,
					"numinlets" : 1,
					"numoutlets" : 0
				}

			}
, 			{
				"box" : 				{
					"maxclass" : "newobj",
					"varname" : "slide_down",
					"text" : "jcom.parameter slide_down @type msg_int @ramp/drive scheduler @range/clipmode low @range/bounds 1 100 @description \"The slide down factor - meaning how quickly (in frames) colors move from bright to dark\"",
					"linecount" : 3,
					"hidden" : 1,
					"patching_rect" : [ 307.0, 54.0, 383.0, 42.0 ],
					"outlettype" : [ "", "", "" ],
					"id" : "obj-15",
					"fontname" : "Verdana",
					"fontsize" : 9.873845,
					"numinlets" : 1,
					"numoutlets" : 3
				}

			}
, 			{
				"box" : 				{
					"maxclass" : "newobj",
					"varname" : "slide_up",
					"text" : "jcom.parameter slide_up @type msg_int @ramp/drive scheduler @range/clipmode low @range/bounds 1 100 @description \"The slide up factor - meaning how quickly (in frames) colors move from dark up to bright\"",
					"linecount" : 3,
					"hidden" : 1,
					"patching_rect" : [ 306.0, 7.0, 394.0, 42.0 ],
					"outlettype" : [ "", "", "" ],
					"id" : "obj-16",
					"fontname" : "Verdana",
					"fontsize" : 9.873845,
					"numinlets" : 1,
					"numoutlets" : 3
				}

			}
, 			{
				"box" : 				{
					"maxclass" : "message",
					"text" : ";\rjcom.init bang",
					"linecount" : 2,
					"hidden" : 1,
					"patching_rect" : [ 163.0, 307.0, 80.0, 28.0 ],
					"outlettype" : [ "" ],
					"id" : "obj-17",
					"fontname" : "Verdana",
					"fontsize" : 9.873845,
					"numinlets" : 2,
					"numoutlets" : 1,
					"bgcolor" : [ 0.8, 0.54902, 0.54902, 1.0 ]
				}

			}
, 			{
				"box" : 				{
					"maxclass" : "comment",
					"text" : "command input",
					"hidden" : 1,
					"patching_rect" : [ 14.0, 84.0, 86.0, 18.0 ],
					"frgb" : [ 0.658824, 0.658824, 0.658824, 1.0 ],
					"id" : "obj-18",
					"fontname" : "Verdana",
					"fontsize" : 9.873845,
					"numinlets" : 1,
					"numoutlets" : 0
				}

			}
, 			{
				"box" : 				{
					"maxclass" : "newobj",
					"varname" : "jcom.hub",
					"text" : "jcom.hub jmod.mblur% @size 1U-half @module_type video @algorithm_type jitter @description \"Create a Motion-Blur type of effect by using a brightness-based envelope follower\"",
					"linecount" : 3,
					"hidden" : 1,
					"patching_rect" : [ 0.0, 109.0, 313.0, 42.0 ],
					"outlettype" : [ "", "" ],
					"id" : "obj-19",
					"fontname" : "Verdana",
					"fontsize" : 9.873845,
					"numinlets" : 1,
					"numoutlets" : 2
				}

			}
, 			{
				"box" : 				{
					"maxclass" : "outlet",
					"hidden" : 1,
					"patching_rect" : [ 0.0, 171.0, 13.0, 13.0 ],
					"id" : "obj-20",
					"numinlets" : 1,
					"numoutlets" : 0,
					"comment" : ""
				}

			}
, 			{
				"box" : 				{
					"maxclass" : "inlet",
					"hidden" : 1,
					"patching_rect" : [ 0.0, 84.0, 13.0, 13.0 ],
					"outlettype" : [ "" ],
					"id" : "obj-21",
					"numinlets" : 0,
					"numoutlets" : 1,
					"comment" : ""
				}

			}
, 			{
				"box" : 				{
					"maxclass" : "jcom.ui",
					"text" : "/editing_this_module",
					"outlettype" : [ "" ],
					"id" : "obj-34",
					"textcolor" : [ 0.65, 0.65, 0.65, 1.0 ],
					"has_freeze" : 1,
					"prefix" : "video",
					"has_mute" : 1,
					"color" : [ 1.0, 1.0, 1.0, 1.0 ],
					"has_preview" : 1,
					"numinlets" : 1,
					"has_bypass" : 1,
					"numoutlets" : 1
				}

			}
 ],
		"lines" : [ 			{
				"patchline" : 				{
					"source" : [ "obj-34", 0 ],
					"destination" : [ "obj-22", 0 ],
					"hidden" : 0,
					"midpoints" : [  ]
				}

			}
, 			{
				"patchline" : 				{
					"source" : [ "obj-4", 0 ],
					"destination" : [ "obj-10", 1 ],
					"hidden" : 1,
					"midpoints" : [  ]
				}

			}
, 			{
				"patchline" : 				{
					"source" : [ "obj-2", 0 ],
					"destination" : [ "obj-4", 0 ],
					"hidden" : 1,
					"midpoints" : [  ]
				}

			}
, 			{
				"patchline" : 				{
					"source" : [ "obj-13", 0 ],
					"destination" : [ "obj-15", 0 ],
					"hidden" : 1,
					"midpoints" : [  ]
				}

			}
, 			{
				"patchline" : 				{
					"source" : [ "obj-11", 0 ],
					"destination" : [ "obj-16", 0 ],
					"hidden" : 1,
					"midpoints" : [  ]
				}

			}
, 			{
				"patchline" : 				{
					"source" : [ "obj-1", 0 ],
					"destination" : [ "obj-9", 0 ],
					"hidden" : 1,
					"midpoints" : [  ]
				}

			}
, 			{
				"patchline" : 				{
					"source" : [ "obj-10", 0 ],
					"destination" : [ "obj-1", 0 ],
					"hidden" : 1,
					"midpoints" : [  ]
				}

			}
, 			{
				"patchline" : 				{
					"source" : [ "obj-5", 0 ],
					"destination" : [ "obj-10", 0 ],
					"hidden" : 1,
					"midpoints" : [ 187.5, 275.0, 255.5, 275.0 ]
				}

			}
, 			{
				"patchline" : 				{
					"source" : [ "obj-6", 1 ],
					"destination" : [ "obj-10", 0 ],
					"hidden" : 1,
					"midpoints" : [  ]
				}

			}
, 			{
				"patchline" : 				{
					"source" : [ "obj-6", 0 ],
					"destination" : [ "obj-5", 0 ],
					"hidden" : 1,
					"midpoints" : [  ]
				}

			}
, 			{
				"patchline" : 				{
					"source" : [ "obj-4", 1 ],
					"destination" : [ "obj-6", 0 ],
					"hidden" : 1,
					"midpoints" : [ 359.0, 222.0, 187.5, 222.0 ]
				}

			}
, 			{
				"patchline" : 				{
					"source" : [ "obj-15", 0 ],
					"destination" : [ "obj-13", 0 ],
					"hidden" : 1,
					"midpoints" : [  ]
				}

			}
, 			{
				"patchline" : 				{
					"source" : [ "obj-16", 0 ],
					"destination" : [ "obj-11", 0 ],
					"hidden" : 1,
					"midpoints" : [  ]
				}

			}
, 			{
				"patchline" : 				{
					"source" : [ "obj-19", 0 ],
					"destination" : [ "obj-20", 0 ],
					"hidden" : 1,
					"midpoints" : [  ]
				}

			}
, 			{
				"patchline" : 				{
					"source" : [ "obj-7", 0 ],
					"destination" : [ "obj-19", 0 ],
					"hidden" : 1,
					"midpoints" : [ 109.5, 105.0, 9.5, 105.0 ]
				}

			}
, 			{
				"patchline" : 				{
					"source" : [ "obj-21", 0 ],
					"destination" : [ "obj-19", 0 ],
					"hidden" : 1,
					"midpoints" : [  ]
				}

			}
 ]
	}

}
