max v2;
#N vpatcher 81 112 1412 769;
#P origin -129 -501;
#P window setfont "Sans Serif" 9.;
#P hidden message 3 69 33 9109513 clear;
#B color 3;
#P hidden newex 58 465 148 9109513 jcom.oscroute /toubu /playoff;
#P hidden message 580 312 56 9109513 set 1 \$1;
#P hidden message 61 130 191 9109513 /preset/store 1 default \, /preset/write;
#B color 3;
#P window linecount 2;
#P hidden message 275 265 75 9109513 \; jcom.init bang;
#P window linecount 1;
#P hidden message 141 323 406 9109513 /ui/freeze 0;
#P hidden newex 141 304 62 9109513 prepend set;
#P hidden message 88 148 125 9109513 /documentation/generate;
#P hidden newex 580 394 328 9109513 jcom.message file @type msg_symbol @description "SDIF file to read";
#P objectname jalg.sdif.player[4];
#P comment 9 41 36 9109513 Speed:;
#B frgb 181 181 181;
#P comment 2 21 43 9109513 Stream:;
#B frgb 181 181 181;
#P flonum 46 40 28 9 0. 0 8225 139 181 181 181 221 221 221 222 222 222 0 0 0;
#P objectname speed;
#P hidden newex 580 178 55 9109513 pvar speed;
#P window linecount 2;
#P hidden newex 580 202 281 9109513 jcom.parameter speed @type msg_float @range 0 5 @clipmode low @description "Playing speed of SDIF stream";
#P objectname speed[1];
#P window linecount 1;
#P hidden newex 580 31 100 9109513 pvar pause_button;
#P hidden newex 580 56 271 9109513 jcom.parameter pause @description "Pause SDIF stream.";
#P objectname pause;
#P user jsui 208 40 45 19 3 0 0 jcom.jsui_texttoggle.js Pause Pause 68 68 68 225 225 225 255 255 40 0 0 0;
#P objectname pause_button;
#P hidden message 275 236 56 9109513 set 1 \$1;
#P hidden newex 580 353 343 9109513 jcom.parameter time @type msg_int @description "Current playing time";
#P objectname time[1];
#P hidden message 344 236 83 9109513 setminmax 0 \$1;
#P hidden newex 275 212 149 9109513 jcom.oscroute /time /duration;
#P objectname jalg.sdif.player[5];
#P user multiSlider 76 40 131 16 0. 74473.3125 1 2920 47 0 0 2 0 0 1;
#M frgb 91 91 91;
#M brgb 173 173 173;
#M rgb2 127 127 127;
#M rgb3 0 0 0;
#M rgb4 37 52 91;
#M rgb5 74 105 182;
#M rgb6 112 158 18;
#M rgb7 149 211 110;
#M rgb8 187 9 201;
#M rgb9 224 62 37;
#M rgb10 7 114 128;
#P objectname time;
#P user jsui 208 20 45 19 3 0 0 jcom.jsui_texttoggle.js Play Play 68 68 68 225 225 225 40 255 40 0 0 0;
#P objectname play_button;
#P hidden newex 580 110 93 9109513 pvar play_button;
#P hidden newex 580 134 344 9109513 jcom.parameter play @type msg_toggle @description "Play SDIF stream.";
#P objectname play;
#P window linecount 2;
#P hidden newex 580 270 232 9109513 jcom.parameter stream @type msg_int @repetitions 1 @description "SDIF stream index";
#P objectname stream[1];
#P window linecount 1;
#P hidden newex 580 246 73 9109513 pvar stream;
#P user ubumenu 46 20 161 9109513 0 1 1 0;
#X prefix_set 0 0 <none> 0;
#P objectname stream;
#P hidden newex 58 251 43 9109513 jcom.in;
#P hidden newex 58 299 45 9109513 pcontrol;
#P hidden newex 58 275 78 9109513 jcom.pass open;
#P window linecount 2;
#P hidden message 205 265 65 9109513 \; max refresh;
#P window linecount 1;
#P hidden message 214 148 31 9109513 /init;
#P hidden newex 58 424 84 9109513 jalg.sdif.play;
#P objectname jalg.sdif.player;
#P window linecount 2;
#P hidden newex 25 173 268 9109513 jcom.hub jmod.sdif.play @size 1U-half @module_type control @description "Module for playing a single stream of sdif files";
#P objectname jcom.hub;
#P hidden inlet 25 149 13 0;
#P hidden outlet 25 375 13 0;
#P window linecount 1;
#P hidden newex 580 330 54 9109513 pvar time;
#P objectname jalg.sdif.player[2];
#P bpatcher 0 0 256 61 0 0 jcom.gui.mxt 0 $0_;
#P objectname jcom.gui.audio-component.mxt;
#P hidden connect 35 0 4 0;
#P hidden connect 31 0 4 0;
#P hidden fasten 6 0 4 0 219 169 30 169;
#P hidden connect 3 0 4 0;
#P hidden connect 4 0 2 0;
#P hidden connect 38 0 11 0;
#P hidden fasten 37 0 11 0 63 491 -9 491 -9 16 51 16;
#P hidden connect 10 0 8 0;
#P hidden connect 8 0 9 0;
#P hidden fasten 8 1 5 0 131 358 63 358;
#P hidden connect 9 0 5 0;
#P hidden connect 5 0 37 0;
#P hidden fasten 19 0 17 0 349 254 529 254 529 37 81 37;
#P hidden fasten 21 0 17 0 280 254 529 254 529 37 81 37;
#P hidden fasten 8 1 32 0 131 299 146 299;
#P hidden connect 32 0 33 0;
#P hidden fasten 4 0 18 0 30 205 280 205;
#P hidden connect 18 0 21 0;
#P hidden connect 18 1 19 0;
#P hidden fasten 23 0 24 0 585 80 576 80 576 27 585 27;
#P hidden connect 24 0 23 0;
#P hidden fasten 14 0 15 0 585 170 576 170 576 106 585 106;
#P hidden fasten 37 1 15 0 132 489 562 489 562 101 585 101;
#P hidden connect 15 0 14 0;
#P hidden fasten 25 0 26 0 585 238 576 238 576 172 585 172;
#P hidden connect 26 0 25 0;
#P hidden fasten 13 0 12 0 585 306 576 306 576 240 585 240;
#P hidden connect 12 0 13 0;
#P hidden fasten 20 1 36 0 751 374 576 374 576 310 585 310;
#P hidden connect 36 0 1 0;
#P hidden connect 1 0 20 0;
#P pop;
