#N canvas 685 177 472 393 10;
#X obj 121 158 jcom_op=;
#X msg 168 111 operator /;
#X msg 246 111 operator +;
#X msg 360 111 operand \$1;
#X floatatom 360 86 5 0 0 0 - - -;
#X obj 120 68 jcom_pack= 4;
#X obj 120 29 sig~ 100;
#X obj 178 29 sig~ 200;
#X obj 237 29 sig~ 300;
#X obj 293 29 sig~ 400;
#X obj 121 225 jcom_unpack= 4;
#X obj 53 190 tgl 15 0 empty empty empty 17 7 0 10 -262144 -1 -1 1
1;
#X obj 131 305 snapshot~;
#X floatatom 131 330 5 0 0 0 - - -;
#X obj 198 305 snapshot~;
#X floatatom 198 330 5 0 0 0 - - -;
#X obj 263 305 snapshot~;
#X floatatom 263 330 5 0 0 0 - - -;
#X obj 328 306 snapshot~;
#X floatatom 328 331 5 0 0 0 - - -;
#X obj 59 246 metro 100;
#X connect 0 0 10 0;
#X connect 1 0 0 0;
#X connect 2 0 0 0;
#X connect 3 0 0 0;
#X connect 4 0 3 0;
#X connect 5 0 0 0;
#X connect 6 0 5 0;
#X connect 7 0 5 1;
#X connect 8 0 5 2;
#X connect 9 0 5 3;
#X connect 10 0 12 0;
#X connect 10 1 14 0;
#X connect 10 2 16 0;
#X connect 10 3 18 0;
#X connect 11 0 20 0;
#X connect 12 0 13 0;
#X connect 14 0 15 0;
#X connect 16 0 17 0;
#X connect 18 0 19 0;
#X connect 20 0 12 0;
#X connect 20 0 14 0;
#X connect 20 0 16 0;
#X connect 20 0 18 0;
