max v2;
#N vpatcher 148 71 928 691;
#P window setfont "Sans Serif" 9.;
#P window linecount 1;
#P hidden message 114 328 191 196617 /preset/store 1 default \, /preset/write;
#B color 3;
#P window linecount 2;
#P hidden newex 426 337 238 196617 jcom.parameter mode @type msg_symbol @description "Mode: Table used for waveshaping.";
#P objectname mode;
#P window linecount 1;
#P hidden newex 426 313 66 196617 pvar Mode 2;
#P user umenu 163 25 67 196647 1 64 41 1;
#X add s-shaped;
#X add sinus;
#P objectname Mode;
#P window linecount 2;
#P hidden newex 426 190 329 196617 jcom.parameter preamp @ramp linear @repetitions 0 @type msg_float @range -12 48 @clipmode none @description "Preamp (dB).";
#P objectname preamp;
#P window linecount 1;
#P hidden newex 426 168 70 196617 pvar PreAmp;
#P flonum 87 43 40 9 0. 99. 8227 3 198 198 198 221 221 221 222 222 222 0 0 0;
#P objectname PreAmp;
#P comment 15 44 66 196617 Preamp (dB);
#B frgb 172 172 172;
#P hidden newex 334 204 47 196617 pcontrol;
#P hidden newex 201 182 143 196617 jcom.algorithm_control~.mxt;
#P hidden newex 109 259 64 196617 jcom.out~ 2;
#P hidden newex 109 158 150 196617 jcom.in~ 2;
#P hidden message 130 346 125 196617 /documentation/generate;
#P hidden newex 426 242 105 196617 pvar SaturationDepth;
#P window linecount 2;
#P hidden newex 426 263 325 196617 jcom.parameter depth @ramp linear @repetitions 0 @type msg_float @range 0 99 @clipmode both @description "Saturation: Depth.";
#P objectname depth;
#P hidden message 57 422 65 196617 \; max refresh;
#P hidden newex 13 373 264 196617 jcom.hub jmod.saturation~ @size 1U-half @module_type audio @description "Saturation (distortion) effect.";
#P objectname jcom.hub;
#P window linecount 1;
#P hidden comment 27 345 79 196617 command input;
#P hidden inlet 13 345 13 0;
#P hidden message 258 346 37 196617 /init;
#P hidden inlet 109 138 13 0;
#P hidden outlet 109 285 13 0;
#P flonum 87 26 40 9 0. 99. 8227 3 198 198 198 221 221 221 222 222 222 0 0 0;
#P objectname SaturationDepth;
#P hidden inlet 249 138 13 0;
#P comment 16 28 67 196617 Depth (%);
#B frgb 172 172 172;
#P hidden newex 63 234 103 196617 jalg.saturation~.mxt;
#P hidden comment 102 120 105 196617 ----signal inputs----;
#P hidden outlet 13 416 13 0;
#P hidden outlet 136 285 13 0;
#P hidden comment 88 302 101 196617 ---signal outputs---;
#P bpatcher 0 0 256 60 0 0 jcom.gui.mxt 0;
#P objectname jcom.gui.1Uh.a.stereo.mxt;
#P hidden fasten 30 0 14 0 119 367 18 367;
#P hidden fasten 11 0 14 0 263 367 18 367;
#P hidden connect 12 0 14 0;
#P hidden fasten 18 0 14 0 135 367 18 367;
#P hidden connect 14 0 3 0;
#P hidden fasten 22 0 5 0 339 226 68 226;
#P hidden fasten 21 0 5 0 206 226 68 226;
#P hidden connect 10 0 19 0;
#P hidden connect 19 0 5 1;
#P hidden connect 5 1 20 0;
#P hidden connect 20 0 9 0;
#P hidden connect 20 1 2 0;
#P hidden connect 19 1 5 2;
#P hidden connect 5 2 20 1;
#P hidden connect 19 2 21 0;
#P hidden connect 7 0 19 1;
#P hidden connect 21 1 22 0;
#P hidden fasten 26 0 25 0 431 223 422 223 422 160 431 160;
#P hidden connect 25 0 26 0;
#P hidden fasten 16 0 17 0 431 301 421 301 421 236 431 236;
#P hidden connect 17 0 16 0;
#P hidden fasten 29 0 28 0 431 372 419 372 419 307 431 307;
#P hidden fasten 28 1 29 0 487 333 431 333;
#P pop;
