max v2;
#N vpatcher 62 77 506 779;
#P window setfont "Sans Serif" 9.;
#P newex 79 505 91 9109513 jcom.out~ 2;
#P newex 78 438 237 9109513 jcom.in~ 2;
#P hidden inlet 305 418 13 0;
#P hidden outlet 79 531 13 0;
#P hidden message 136 595 125 9109513 /documentation/generate;
#P comment 206 43 22 9109513 ms;
#B frgb 172 172 172;
#P comment 85 42 39 9109513 dB;
#B frgb 172 172 172;
#P comment 85 26 39 9109513 samps;
#B frgb 172 172 172;
#P number 53 41 35 9 -90 24 8227 139 198 198 198 221 221 221 222 222 222 0 0 0;
#P objectname THRESHOLD;
#P hidden newex 14 158 86 9109513 pvar THRESHOLD;
#P window linecount 3;
#P hidden newex 14 181 294 9109513 jcom.parameter threshold @type msg_int @ramp linear @repetitions 0 @range -90 24 @clipmode both @description "The threshold sets the level at which the Noise Gate opens and closes..";
#P objectname jcom.parameter[4];
#P window linecount 1;
#P comment 1 41 58 9109513 Threshold;
#B frgb 172 172 172;
#P window linecount 3;
#P hidden newex 14 345 301 9109513 jcom.parameter release @type msg_int @ramp linear @repetitions 0 @range 0 1000 @clipmode both @description "When the gate closes\\\, this parameter sets how many milliseconds it will take to fade out.";
#P objectname jcom.parameter[3];
#P window linecount 1;
#P hidden newex 14 322 73 9109513 pvar RELEASE;
#P number 172 42 35 9 0 1000 8227 139 198 198 198 221 221 221 222 222 222 0 0 0;
#P objectname RELEASE;
#P comment 127 43 48 9109513 Release;
#B frgb 172 172 172;
#P comment 206 27 22 9109513 ms;
#B frgb 172 172 172;
#P window linecount 3;
#P hidden newex 14 265 294 9109513 jcom.parameter attack @type msg_int @ramp linear @repetitions 0 @range 0 1000 @clipmode low @description "When the gate opens\\\, this parameter sets how many milliseconds it will take to fade in.";
#P objectname jcom.parameter[2];
#P window linecount 1;
#P hidden newex 14 242 72 9109513 pvar ATTACK;
#N vpatcher 541 69 948 424;
#P window setfont "Sans Serif" 9.;
#P window linecount 0;
#P newex 50 77 31 9109513 == 0;
#P newex 50 176 29 9109513 qlim;
#P message 225 195 93 9109513 brgb 100 100 100;
#P newex 225 166 32 9109513 sel 0;
#P newex 225 141 54 9109513 dspstate~;
#P window linecount 1;
#P newex 50 104 149 9109513 gate 1 1;
#P newex 50 54 110 9109513 r $0__freeze_display;
#P newex 50 198 41 9109513 sel 0 1;
#P message 65 253 69 9109513 brgb 0 220 0;
#P message 50 231 81 9109513 brgb 200 20 20;
#P inlet 189 34 15 0;
#P outlet 50 290 15 0;
#P connect 5 0 11 0;
#P connect 11 0 6 0;
#P connect 6 0 10 0;
#P connect 10 0 4 0;
#P connect 4 0 2 0;
#P connect 2 0 0 0;
#P connect 3 0 0 0;
#P connect 9 0 0 0;
#P connect 4 1 3 0;
#P connect 1 0 6 1;
#P connect 7 0 8 0;
#P connect 8 0 9 0;
#P pop;
#P hidden newobj 241 502 58 9109513 p visualize;
#P hidden newex 241 524 67 9109513 pvar ACTIVE;
#P user panel 234 32 16 16;
#X brgb 100 100 100;
#X frgb 0 0 0;
#X border 0;
#X rounded 50;
#X shadow 0;
#X done;
#P objectname ACTIVE;
#P number 172 25 35 9 0 1000 8227 139 198 198 198 221 221 221 222 222 222 0 0 0;
#P objectname ATTACK;
#P window linecount 2;
#P hidden message 318 588 65 9109513 \; max refresh;
#P window linecount 1;
#P hidden newex 14 76 88 9109513 pvar LOOKAHEAD;
#P hidden newex 28 622 385 9109513 jcom.hub jmod.noisegate~ @size 1U-half @module_type audio @description "noise gate.";
#P objectname jcom.hub;
#P hidden comment 42 595 79 9109513 command input;
#P hidden inlet 28 596 13 0;
#P hidden message 263 595 23 9109513 /init;
#P hidden inlet 78 418 13 0;
#P hidden outlet 118 531 13 0;
#P window linecount 3;
#P hidden newex 14 98 275 9109513 jcom.parameter lookahead @type msg_int @ramp linear @repetitions 0 @range 0 100 @clipmode low @description "How many samples to look ahead while monitoring incoming signal.";
#P objectname jcom.parameter[1];
#P window linecount 1;
#P comment 127 26 48 9109513 Attack;
#B frgb 172 172 172;
#P number 53 24 35 9 0 1000 8227 139 198 198 198 221 221 221 222 222 222 0 0 0;
#P objectname LOOKAHEAD;
#P comment 1 25 58 9109513 Lookahead;
#B frgb 172 172 172;
#P hidden newex 79 474 172 9109513 poly~ jalg.noisegate~.mxt args $0_;
#P hidden comment 147 417 105 9109513 ----signal inputs----;
#P hidden outlet 28 649 13 0;
#P hidden comment 70 548 79 9109513 ---signal output---;
#P bpatcher 0 0 255 60 0 0 jcom.gui.mxt 0 $0_;
#P objectname jcom.gui.1Uh.a.stereo.mxt;
#P hidden fasten 8 0 15 0 19 142 9 142 9 72 19 72;
#P hidden connect 15 0 8 0;
#P hidden fasten 29 0 30 0 19 225 8 225 8 149 19 149;
#P hidden connect 30 0 29 0;
#P hidden fasten 22 0 21 0 19 310 7 310 7 239 19 239;
#P hidden connect 21 0 22 0;
#P hidden fasten 27 0 26 0 19 390 6 390 6 315 19 315;
#P hidden connect 26 0 27 0;
#P hidden connect 12 0 14 0;
#P hidden fasten 35 0 14 0 141 615 33 615;
#P hidden fasten 11 0 14 0 268 618 33 618;
#P hidden connect 14 0 2 0;
#P connect 10 0 38 0;
#P connect 38 2 4 0;
#P connect 38 0 4 0;
#P connect 4 0 39 0;
#P connect 39 0 36 0;
#P connect 39 1 9 0;
#P connect 4 1 39 1;
#P fasten 38 1 4 1 158 470 246 470;
#P hidden connect 4 2 20 0;
#P hidden connect 20 0 19 0;
#P connect 37 0 38 1;
#P pop;
