max v2;#N vpatcher 30 69 719 777;#P window setfont "Sans Serif" 9.;#P window linecount 1;#P hidden newex 246 361 35 196617 mute~;#N vpatcher 48 59 648 459;#P window setfont "Sans Serif" 9.;#P hidden newex 100 70 59 196617 route mute;#P message 100 108 30 196617 \$1 1;#P toggle 100 90 15 0;#P hidden newex 50 70 47 196617 pcontrol;#P hidden newex 50 50 111 196617 jcom.pass open mute;#P inlet 50 30 15 0;#P outlet 100 148 15 0;#P outlet 50 92 15 0;#P connect 2 0 3 0;#P hidden connect 3 0 4 0;#P connect 4 0 0 0;#P connect 3 1 7 0;#P connect 7 0 5 0;#P connect 5 0 6 0;#P connect 6 0 1 0;#P pop;#P hidden newobj 157 340 99 196617 p algorithm_control;#P hidden message 113 493 191 196617 /preset/store 1 default \, /preset/write;#P hidden newex 69 425 114 196617 jcom.out~ 2;#P hidden newex 69 313 143 196617 jcom.in~ 2;#P number 190 30 43 9 0 0 8225 3 198 198 198 221 221 221 222 222 222 0 0 0;#P objectname Right;#P window linecount 2;#P hidden newex 38 77 326 196617 jcom.message delay @ramp linear @repetitions 1 @range 0 1000000 @description "Delay time in samples to be applied to both channels.";#P objectname jcom.parameter.mxb[9];#P number 71 30 43 9 0 0 8225 3 198 198 198 221 221 221 222 222 222 0 0 0;#P objectname Left;#P window linecount 1;#P comment 132 32 66 196617 delay right;#B frgb 172 172 172;#P comment 22 32 48 196617 delay left;#B frgb 172 172 172;#P hidden message 126 510 125 196617 /documentation/generate;#P hidden newex 12 198 57 196617 pvar Right;#P window linecount 2;#P hidden newex 12 223 390 196617 jcom.parameter delay/right @type msg_int @ramp linear @repetitions 0 @range 0 1000000 @clipmode both @description "Delay time in samples for right channel.";#P objectname delay/right;#P window linecount 1;#P hidden newex 12 124 52 196617 pvar Left;#P window linecount 2;#P hidden newex 19 546 252 196617 jcom.hub jmod.delay~ @size 1U-half @module_type audio @description "Sample-accurate stereo delay.";#P objectname jcom.hub;#P window linecount 1;#P hidden comment 33 510 79 196617 command input;#P hidden inlet 19 510 13 0;#P hidden message 253 510 37 196617 /init;#P hidden inlet 69 294 13 0;#P hidden outlet 69 455 13 0;#P window linecount 2;#P hidden newex 12 149 386 196617 jcom.parameter delay/left @type msg_int @ramp linear @repetitions 0 @range 0 1000000 @clipmode both @description "Delay time in samples for left channel.";#P objectname delay/left;#P hidden inlet 202 294 13 0;#P window linecount 1;#P hidden newex 69 399 81 196617 jalg.delay~.mxt;#P hidden comment 92 294 105 196617 ----signal inputs----;#P hidden outlet 19 586 13 0;#P hidden outlet 121 455 13 0;#P hidden comment 69 469 101 196617 ---signal outputs---;#P bpatcher 0 0 256 60 0 0 jcom.gui.mxt 0;#P objectname jcom.gui.1Uh.a.stereo.mxt;#P hidden connect 21 1 14 0;#P hidden fasten 7 0 14 0 17 185 7 185 7 117 17 117;#P hidden connect 14 0 7 0;#P hidden connect 21 1 16 0;#P hidden fasten 15 0 16 0 17 259 7 259 7 191 17 191;#P hidden connect 16 0 15 0;#P hidden connect 11 0 13 0;#P hidden fasten 17 0 13 0 131 531 24 531;#P hidden fasten 10 0 13 0 258 533 24 533;#P hidden fasten 25 0 13 0 118 528 24 528;#P hidden connect 13 0 3 0;#P hidden connect 9 0 23 0;#P hidden connect 27 0 5 0;#P hidden connect 26 0 5 0;#P hidden connect 23 0 5 0;#P hidden connect 5 0 24 0;#P hidden connect 24 0 8 0;#P hidden connect 24 1 2 0;#P hidden fasten 23 1 5 1 118 344 145 344;#P hidden connect 23 2 26 0;#P hidden connect 5 1 24 1;#P hidden connect 6 0 23 1;#P hidden connect 26 1 27 0;#P pop;