max v2;#N vpatcher 53 58 942 622;#P window setfont "Sans Serif" 9.;#P hidden newex 141 218 84 196617 jcom.pass open;#P hidden newex 141 243 47 196617 pcontrol;#P hidden inlet 618 137 13 0;#P hidden inlet 603 137 13 0;#P hidden inlet 588 137 13 0;#P hidden inlet 573 137 13 0;#P hidden inlet 558 137 13 0;#P hidden inlet 543 137 13 0;#P hidden inlet 528 137 13 0;#P hidden inlet 513 137 13 0;#P hidden inlet 498 137 13 0;#P hidden inlet 483 137 13 0;#P hidden inlet 468 137 13 0;#P hidden inlet 453 137 13 0;#P hidden inlet 438 137 13 0;#P hidden inlet 423 137 13 0;#P hidden inlet 408 137 13 0;#P hidden message 96 120 125 196617 /documentation/generate;#P window linecount 2;#P hidden message 46 422 65 196617 \; max refresh;#P window linecount 1;#P hidden newex 268 38 62 196617 pvar Offset;#P window linecount 3;#P hidden newex 0 140 292 196617 jcom.hub $0_ jcom.sur.multi.in~ @size 1U-half @module_type audio.no_panel @num_inputs 16 @num_outputs 1 @description "Pack up to 16 mono signals onto a multi cable.";#P objectname jcom.hub;#P window linecount 1;#P hidden comment 14 121 79 196617 command input;#P hidden inlet 0 121 13 0;#P window linecount 2;#P hidden message 46 390 72 196617 \; jcom.init bang;#P window linecount 3;#P hidden newex 297 140 79 196617 pattrstorage @autorestore 0 @savemode 0;#X client_rect 0 0 640 240;#X storage_rect 0 0 640 240;#P objectname jcom.sur.multi.in~;#P hidden inlet 393 137 13 0;#P hidden outlet 378 325 13 0;#P hidden newex 268 63 330 196617 jcom.parameter.mxt $0_ /channel_offset @type msg_int @repetitions 1 @range 0 31 @clipmode both @ramp 0 @description "Set channel offset for signals. Only take effect the next time audio is started.";#P objectname jcom.parameter;#P number 93 26 35 9 0 31 8227 3 198 198 198 221 221 221 222 222 222 0 0 0;#P objectname Offset;#P window linecount 1;#P comment 16 27 74 196617 Channel offset;#B frgb 172 172 172;#P hidden comment 392 118 105 196617 ----signal inputs----;#P hidden outlet 0 229 13 0;#P hidden comment 398 325 167 196617 --- multi channel signal output ---;#P hidden newex 378 294 257 196617 jalg.sur.multi.in~.mxt;#P bpatcher 0 0 256 60 0 0 jcom.gui.mxt 0 $0_;#P objectname jcom.gui.1Uh.a.stereo.mxt;#P hidden fasten 17 0 14 0 101 137 5 137;#P hidden connect 12 0 14 0;#P hidden connect 14 0 3 0;#P hidden connect 14 1 34 0;#P hidden connect 34 0 33 0;#P hidden fasten 7 0 15 0 273 109 262 109 262 31 273 31;#P hidden connect 15 0 7 0;#P hidden connect 10 0 14 1;#P hidden connect 14 2 10 0;#P hidden connect 34 1 1 0;#P hidden connect 33 0 1 0;#P hidden connect 1 0 8 0;#P hidden connect 9 0 1 1;#P hidden connect 18 0 1 2;#P hidden connect 19 0 1 3;#P hidden connect 20 0 1 4;#P hidden connect 21 0 1 5;#P hidden connect 22 0 1 6;#P hidden connect 23 0 1 7;#P hidden connect 24 0 1 8;#P hidden connect 25 0 1 9;#P hidden connect 26 0 1 10;#P hidden connect 27 0 1 11;#P hidden connect 28 0 1 12;#P hidden connect 29 0 1 13;#P hidden connect 30 0 1 14;#P hidden connect 31 0 1 15;#P hidden connect 32 0 1 16;#P pop;