max v2;#N vpatcher 316 140 1205 812;#P window setfont "Sans Serif" 9.;#P window linecount 1;#P hidden message 187 621 86 196617 /preset/recall 1;#P hidden message 109 621 70 196617 /preset/post;#P hidden newex 74 486 179 196617 jcom.out~ 2;#P hidden newex 74 425 227 196617 jcom.in~ 2;#P hidden message 119 574 125 196617 /documentation/generate;#P flonum 53 44 40 9 0. 1. 8227 3 198 198 198 221 221 221 222 222 222 0 0 0;#P objectname Feedback;#P number 53 31 41 9 0 10000 8227 3 198 198 198 221 221 221 222 222 222 0 0 0;#P objectname Right;#P number 53 17 41 9 0 10000 8227 3 198 198 198 221 221 221 222 222 222 0 0 0;#P objectname Left;#P hidden newex 26 283 74 196617 pvar Feedback;#P window linecount 2;#P hidden newex 26 307 333 196617 jcom.parameter feedback @type msg_float @ramp linear @repetitions 0 @range 0. 1. @clipmode both @description "Feedback.";#P objectname feedback;#P window linecount 1;#P hidden newex 26 203 57 196617 pvar Right;#P window linecount 2;#P hidden newex 26 226 392 196617 jcom.parameter right @type msg_int @ramp linear @repetitions 0 @range 0 10000 @clipmode both @description "Delay time in milliseconds for right channel.";#P objectname right;#P window linecount 1;#P comment 4 46 50 196617 Feedback;#B frgb 172 172 172;#P hidden newex 598 160 40 196617 t 1 s 0;#N vpatcher 564 189 1050 519;#P window setfont "Sans Serif" 9.;#P window linecount 2;#P comment 34 260 415 196617 Else "Restore Default Settings" will not function properly as past values for q \, filtergain and cf maintained in FilterGraph will overrule the attempt to reset values to defaults.;#P outlet 142 194 15 0;#P outlet 88 194 15 0;#P outlet 34 194 15 0;#P window linecount 1;#P newex 88 157 33 196617 atodb;#P inlet 179 35 15 0;#P inlet 125 35 15 0;#P inlet 71 35 15 0;#P newex 142 128 47 196617 gate 1 1;#P newex 88 128 47 196617 gate 1 1;#P window linecount 0;#P newex 34 128 47 196617 gate 1 1;#P inlet 263 35 15 0;#P comment 34 238 315 196617 Output from FilterFraph has to be muted when filtertype is changes.;#P connect 1 0 2 0;#P connect 2 0 9 0;#P connect 5 0 2 1;#P connect 1 0 3 0;#P connect 3 0 8 0;#P connect 8 0 10 0;#P connect 6 0 3 1;#P connect 1 0 4 0;#P connect 4 0 11 0;#P connect 7 0 4 1;#P pop;#P hidden newobj 436 226 100 196617 p DecodeFilterGraph;#P user umenu 95 20 70 196647 1 64 36 1;#X add lowpass;#X add highpass;#X add bandpass;#X add bandstop;#X add peaknotch;#X add lowshelf;#X add highshelf;#P objectname FilterType;#P hidden newex 261 2 124 196617 r $0_xxx_to_filtergraph;#P hidden newex 399 373 124 196617 s $0_xxx_to_filtergraph;#N vpatcher 91 247 688 576;#P window setfont "Sans Serif" 9.;#P window linecount 1;#P newex 267 143 33 196617 dbtoa;#P window linecount 0;#P comment 401 232 119 196617 Set message to 6nd inlet;#P outlet 131 219 15 0;#P newex 131 177 215 196617 pak set 1200. 1. 1.;#P newex 335 119 50 196617 route set;#P inlet 199 50 15 0;#P newex 267 119 50 196617 route set;#P inlet 267 50 15 0;#P newex 199 119 50 196617 route set;#P inlet 335 50 15 0;#P comment 405 121 100 196617 Get rid of set;#P connect 7 0 8 0;#P connect 1 0 2 0;#P connect 2 0 7 1;#P connect 3 0 4 0;#P connect 4 0 10 0;#P connect 10 0 7 2;#P connect 5 0 6 0;#P connect 6 0 7 3;#P pop;#P hidden newobj 399 349 124 196617 p PrepareForFiltergraph~;#P hidden newex 458 85 89 196617 pvar FilterType 2;#P hidden newex 423 201 93 196617 pvar FilterGraph 7;#P window linecount 2;#P hidden newex 261 26 266 196617 jcom.message filtergraph @description "Messages to filtergraph. See the MSP reference for further details";#P window linecount 3;#P hidden newex 458 110 306 196617 jcom.parameter filtertype @type msg_symbol @repetitions 0 @description "What kind of filter to use. Possible values: lowpass | highpass | bandpass | bandstop | peaknotch | lowshelf | highshelf";#P objectname filtertype;#P window linecount 2;#P hidden newex 550 296 330 196617 jcom.parameter filtergain @type msg_float @range -24 24 @clipmode both @ramp linear @repetitions 0 @description "Gain (dB)";#P objectname filtergain;#P hidden newex 549 252 311 196617 jcom.parameter q @type msg_float @ramp linear @range 0. 100. @clipmode both @repetitions 0 @description "Resonance (Q)";#P objectname q;#P hidden newex 549 336 341 196617 jcom.parameter cf @type msg_float @range 30. 11025. @clipmode both @ramp linear @repetitions 0 @description "Center frequency (Hz)";#P objectname cf;#P user filtergraph~ 165 19 88 39 3 9 20. 22050. 0.0625 16. 0 1 1 0 0 1 1;#X frgb 99 99 99;#X brgb 173 173 173;#X rgb2 0 0 0;#X rgb3 84 84 84;#X rgb4 0 0 0;#X rgb5 118 121 166;#X rgb6 122 74 74;#X rgb7 255 22 22;#X linmarkers 5512.5 11025. 16537.5;#X logmarkers 50. 500. 5000.;#X nfilters 1;#X setfilter 0 1 1 0 0 8571.957031 0.938949 0.801651 30. 11025. 0.0625 16. 0. 25.;#X done;#P objectname FilterGraph;#P window linecount 3;#P hidden comment 546 387 257 196617 Convertion from freq \, gain and q to biquad coeffisients has to take place inside the poly~ (.alg) in case the poly is up- or downsampled.;#P window linecount 1;#P comment 4 33 36 196617 Right;#B frgb 172 172 172;#P window linecount 2;#P hidden message 319 564 65 196617 \; max refresh;#P window linecount 1;#P hidden newex 26 129 52 196617 pvar Left;#P hidden newex 19 600 436 196617 jcom.hub jmod.echo~ @size 1U-half @module_type audio @description "Stereo echo module.";#P objectname jcom.hub;#P hidden comment 33 574 79 196617 command input;#P hidden inlet 19 575 13 0;#P hidden message 248 574 37 196617 /init;#P hidden inlet 74 406 13 0;#P hidden outlet 74 514 13 0;#P window linecount 2;#P hidden newex 26 152 383 196617 jcom.parameter left @type msg_int @ramp linear @repetitions 0 @range 0 10000 @clipmode both @description "Delay time in milliseconds for left channel.";#P objectname left;#P hidden inlet 291 406 13 0;#P window linecount 1;#P comment 4 19 36 196617 Left;#B frgb 172 172 172;#P hidden newex 74 460 179 196617 poly~ jalg.echo~.mxt;#P hidden comment 93 406 113 196617 ----signal inputs----;#P hidden outlet 19 629 13 0;#P hidden outlet 158 514 13 0;#P hidden comment 74 528 101 196617 ---signal outputs---;#P bpatcher 0 0 256 60 0 0 jcom.gui.mxt 0;#P objectname jcom.gui.1Uh.a.stereo.mxt;#P hidden connect 45 0 14 0;#P hidden connect 44 0 14 0;#P hidden connect 12 0 14 0;#P hidden fasten 41 0 14 0 124 594 24 594;#P hidden fasten 11 0 14 0 253 596 24 596;#P hidden connect 14 0 3 0;#P hidden fasten 8 0 15 0 31 190 21 190 21 122 31 122;#P hidden connect 15 0 8 0;#P hidden fasten 34 0 35 0 31 264 21 264 21 196 31 196;#P hidden connect 35 0 34 0;#P hidden fasten 36 0 37 0 31 345 21 345 21 277 31 277;#P hidden connect 37 0 36 0;#P hidden connect 10 0 42 0;#P hidden connect 42 2 5 0;#P hidden connect 42 0 5 0;#P hidden connect 5 0 43 0;#P hidden connect 43 0 9 0;#P hidden connect 43 1 2 0;#P hidden connect 24 0 19 0;#P hidden connect 29 0 19 5;#P hidden fasten 42 1 5 1 151 456 248 456;#P hidden connect 5 1 43 1;#P hidden connect 7 0 42 1;#P hidden connect 21 0 27 0;#P hidden connect 27 0 28 0;#P hidden fasten 32 1 25 0 618 187 428 187;#P hidden connect 25 1 31 0;#P hidden connect 22 0 27 1;#P hidden fasten 23 0 26 0 463 159 454 159 454 77 463 77;#P hidden fasten 26 1 23 0 542 106 463 106;#P hidden connect 25 2 31 1;#P hidden connect 25 3 31 2;#P hidden connect 20 0 27 2;#P hidden fasten 32 2 31 3 633 201 531 201;#P lcolor 1;#P hidden fasten 32 0 31 3 603 201 531 201;#P lcolor 1;#P hidden connect 31 2 21 0;#P hidden connect 31 0 20 0;#P hidden connect 31 1 22 0;#P hidden connect 23 1 32 0;#P pop;