max v2;#N vpatcher 218 109 1519 773;#P window setfont "Sans Serif" 9.;#P window linecount 1;#P message 822 119 14 196617 6;#P newex 820 175 47 196617 uzi 10 1;#N vpatcher 20 74 1093 345;#P window setfont "Sans Serif" 9.;#P window linecount 1;#P newex 840 80 81 196617 scale 1 2 23 38;#P window linecount 0;#P newex 520 80 81 196617 scale 1 2 23 38;#P window linecount 3;#P newex 197 112 137 196617 sprintf script hidden connect textslider[%ld] 0 vst_parameter[%ld] 0;#P newex 50 112 137 196617 sprintf script hidden connect vst_parameter[%ld] 0 textslider[%ld] 0;#P inlet 50 30 15 0;#P outlet 50 181 15 0;#P window linecount 2;#P newex 717 112 257 196617 sprintf script new textslider[%ld] bpatcher 5 %ld 150 14 0 0 jcom.textslider.mxt 0 @text parameter[%ld];#P window linecount 3;#P newex 342 112 367 196617 sprintf script hidden new vst_parameter[%ld] newex 175 %ld 341 196617 jcom.parameter vst_parameter[%ld] @type msg_float @range 0. 1. @clipmode both @ramp linear.sched @description "Nth parameter of the VST plugin.";#P connect 3 0 4 0;#P connect 4 0 2 0;#P fasten 5 0 2 0 202 167 55 167;#P fasten 1 0 2 0 722 167 55 167;#P fasten 0 0 2 0 347 167 55 167;#P fasten 3 0 4 1 55 59 182 59;#P fasten 3 0 5 0 55 59 202 59;#P fasten 3 0 5 1 55 59 329 59;#P fasten 3 0 0 0 55 59 347 59;#P fasten 3 0 6 0 55 59 525 59;#P connect 6 0 0 1;#P fasten 3 0 0 2 55 59 703 59;#P fasten 3 0 1 0 55 59 722 59;#P fasten 3 0 7 0 55 59 845 59;#P connect 7 0 1 1;#P fasten 3 0 1 2 55 59 968 59;#P pop;#P newobj 856 209 124 196617 p create_new_parameter;#N thispatcher;#Q end;#P newobj 928 277 61 196617 thispatcher;#P newex 863 275 32 196617 print;#P newex 856 234 54 196617 jcom.thru;#P bpatcher 5 23 150 14 0 0 jcom.textslider.mxt 0 @text parameter[1];#P objectname textslider[1];#P window linecount 3;#P hidden newex 175 23 341 196617 jcom.parameter vst_parameter[1] @type msg_float @range 0. 1. @clipmode both @ramp linear.sched @description Nth parameter of the VST plugin.;#P objectname vst_parameter[1];#P bpatcher 5 38 150 14 0 0 jcom.textslider.mxt 0 @text parameter[2];#P objectname textslider[2];#P hidden newex 175 38 341 196617 jcom.parameter vst_parameter[2] @type msg_float @range 0. 1. @clipmode both @ramp linear.sched @description Nth parameter of the VST plugin.;#P objectname vst_parameter[2];#P bpatcher 5 53 150 14 0 0 jcom.textslider.mxt 0 @text parameter[3];#P objectname textslider[3];#P hidden newex 175 53 341 196617 jcom.parameter vst_parameter[3] @type msg_float @range 0. 1. @clipmode both @ramp linear.sched @description Nth parameter of the VST plugin.;#P objectname vst_parameter[3];#P bpatcher 5 68 150 14 0 0 jcom.textslider.mxt 0 @text parameter[4];#P objectname textslider[4];#P hidden newex 175 68 341 196617 jcom.parameter vst_parameter[4] @type msg_float @range 0. 1. @clipmode both @ramp linear.sched @description Nth parameter of the VST plugin.;#P objectname vst_parameter[4];#P bpatcher 5 83 150 14 0 0 jcom.textslider.mxt 0 @text parameter[5];#P objectname textslider[5];#P hidden newex 175 83 341 196617 jcom.parameter vst_parameter[5] @type msg_float @range 0. 1. @clipmode both @ramp linear.sched @description Nth parameter of the VST plugin.;#P objectname vst_parameter[5];#P bpatcher 5 98 150 14 0 0 jcom.textslider.mxt 0 @text parameter[6];#P objectname textslider[6];#P hidden newex 175 98 341 196617 jcom.parameter vst_parameter[6] @type msg_float @range 0. 1. @clipmode both @ramp linear.sched @description Nth parameter of the VST plugin.;#P objectname vst_parameter[6];#P hidden connect 10 0 11 0;#P hidden connect 8 0 9 0;#P hidden connect 6 0 7 0;#P hidden connect 4 0 5 0;#P hidden connect 2 0 3 0;#P hidden connect 0 0 1 0;#P hidden connect 11 0 10 0;#P hidden connect 9 0 8 0;#P hidden connect 7 0 6 0;#P hidden connect 5 0 4 0;#P hidden connect 3 0 2 0;#P hidden connect 1 0 0 0;#P connect 17 0 16 0;#P connect 16 2 15 0;#P connect 15 0 12 0;#P connect 12 0 13 0;#P connect 12 0 14 0;#P pop;