max v2;#N vpatcher 110 72 1278 658;#P window setfont "Sans Serif" 9.;#P user ubumenu 129 21 123 196617 0 1 1 0;#X add P1;#X add P2;#X add P3;#X add P4;#X add P5;#X add P6;#X add P7;#X add P8;#X add P9;#X add P10;#X add P11;#X add P12;#X add P13;#X add P14;#X add P15;#X add P16;#X add P17;#X add P18;#X add P19;#X add P20;#X add P21;#X add P22;#X add P23;#X add P24;#X add P25;#X add P26;#X add P27;#X add P28;#X add P29;#X add P30;#X add P31;#X add P32;#X add P33;#X add P34;#X add P35;#X add P36;#X add P37;#X add P38;#X add P39;#X add P40;#X add P41;#X add P42;#X add P43;#X add P44;#X add P45;#X add P46;#X add P47;#X add P48;#X add P49;#X add P50;#X add P51;#X add P52;#X add P53;#X add P54;#X add P55;#X add P56;#X add P57;#X add P58;#X add P59;#X add P60;#X add P61;#X add P62;#X add P63;#X add P64;#X add P65;#X add P66;#X add P67;#X add P68;#X add P69;#X add P70;#X add P71;#X add P72;#X add P73;#X add Interpolator.Puck.Angle;#X add Interpolator.Puck.Distance;#X add frequency.scale;#X add frequency.offset;#X add delay.time;#X add delay.feedback;#X add mix;#X prefix_set 0 0 <none> 0;#P objectname Parameters;#P user ubumenu 129 38 123 196617 0 1 1 0;#X add "Default";#X add "Barking Ring";#X add "Effervescent Horn Queues";#X add "Globe of Smeary Echoes";#X add "Scratching Ranges";#X add "Shakin' Remora";#X add "Slap Labyrinth";#X add "Swamp Taxonomy";#X add "The Queasy Cruise";#X add "Try The Corners";#X add "Midnight!";#X add "Watch out for Gizmo...";#X prefix_set 0 0 <none> 0;#P objectname Programs;#P newex 171 308 87 196617 pvar Programs 2;#P newex 149 335 96 196617 pvar Parameters 2;#P comment 7 41 105 196617 VST Program names;#B frgb 149 149 149;#P comment 7 24 84 196617 VST Parameters;#B frgb 149 149 149;#P message 38 242 34 196617 /plug;#P newex 384 257 47 196617 pcontrol;#P newex 251 233 143 196617 jcom.algorithm_control~.mxt;#P window linecount 3;#P comment 803 223 324 196617 If you need to return messages from your algorithm to the rest of the world. you can specify type \, range... etc as in jcom.parameter or jcom.message;#B color 12;#P window linecount 1;#P comment 781 203 300 196617 jcom.return:;#B color 12;#P newex 296 524 167 196617 jcom.return return_c @range 0. 1.;#P message 105 78 191 196617 /preset/store 1 default \, /preset/write;#B color 3;#P newex 105 391 66 196617 jcom.out~ 2;#P newex 139 210 180 196617 jcom.in~ 2;#P message 113 100 125 196617 /documentation/generate;#B color 3;#P window linecount 2;#P comment 798 168 324 196617 If you need to send messages to or within the patch \, but it's not required that they be stored or retrieveable \, use jcom.message.;#B color 12;#P window linecount 1;#P comment 779 153 300 196617 jcom.message:;#B color 12;#P window linecount 2;#P comment 798 99 317 196617 Use this for any parameters that you'd like to be able to store and retrieve.;#B color 12;#P window linecount 1;#P comment 779 84 235 196617 jcom.parameter:;#B color 12;#P comment 884 359 241 196617 for html autodoc of module;#B color 12;#P comment 884 314 256 196617 1 (default)/0 --- 1 means that repetitions are allowed;#B color 12;#P comment 884 299 241 196617 none/linear/linear.q (none);#B color 12;#P comment 884 344 241 196617 none \, low \, high \, both (default);#B color 12;#P window linecount 0;#P comment 884 329 241 196617;#B color 12;#P window linecount 1;#P comment 884 284 241 196617 generic (default) \, msg_int \, msg_float \, menu \, toggle;#B color 12;#P comment 801 359 79 196617 @description;#B color 12;#P comment 801 314 79 196617 @repetitions;#B color 12;#P comment 801 299 79 196617 @ramp;#B color 12;#P comment 801 344 79 196617 @clipmode;#B color 12;#P comment 801 329 79 196617 @range;#B color 12;#P comment 801 284 79 196617 @type;#B color 12;#P comment 782 269 235 196617 Attributes for jcom.parameter and jcom.message:;#B color 12;#P window linecount 2;#P message 16 338 65 196617 \; max refresh;#P window linecount 1;#P newex 467 114 88 196617 pvar ParameterB;#P newex 467 49 89 196617 pvar ParameterA;#P window linecount 2;#P newex 15 134 280 196617 jcom.hub jmod.vst~ @size 1U-half @module_type audio @description "A Jamoma module wrapper for vst plug-ins.";#P objectname jcom.hub;#P window linecount 1;#P comment 29 101 79 196617 command input;#P inlet 15 101 13 0;#P message 244 100 31 196617 /init;#P inlet 139 181 13 0;#P outlet 105 420 13 0;#P newex 467 74 187 196617 jcom.parameter param_a @ramp linear;#P objectname param_a;#P newex 467 136 256 196617 jcom.parameter param_b @ramp linear.sched @repetitions 0;#P objectname param_b;#P inlet 309 183 13 0;#P newex 83 286 123 196617 jalg.vst~.mxt;#P comment 175 182 105 196617 ----signal inputs----;#P outlet 15 177 13 0;#P outlet 133 420 13 0;#P comment 78 438 101 196617 ---signal outputs---;#P bpatcher 0 0 256 60 0 0 jcom.gui.mxt 0 $0_;#P objectname jmod.gui.1Uh.a.stereo.mxt;#P fasten 11 0 14 0 249 122 20 122;#P fasten 35 0 14 0 118 121 20 121;#P connect 12 0 14 0;#P fasten 38 0 14 0 110 121 20 121;#P connect 14 0 3 0;#P fasten 42 0 5 0 256 279 88 279;#P fasten 43 0 5 0 389 279 88 279;#P connect 44 0 5 0;#P connect 5 1 37 0;#P connect 37 0 9 0;#P connect 37 1 2 0;#P connect 10 0 36 0;#P connect 36 0 5 1;#P connect 5 3 47 0;#P fasten 5 2 37 1 132 383 166 383;#P connect 5 4 48 0;#P connect 36 1 5 2;#P connect 36 2 42 0;#P connect 6 0 36 1;#P connect 42 1 43 0;#P fasten 8 0 15 0 472 96 462 96 462 42 472 42;#P connect 15 0 8 0;#P fasten 7 0 16 0 472 158 462 158 462 110 472 110;#P connect 16 0 7 0;#P pop;