max v2;
#N vpatcher 45 58 934 730;
#P window setfont "Sans Serif" 9.;
#P newex 74 486 179 9109513 jcom.out~ 2;
#P newex 74 425 227 9109513 jcom.in~ 2;
#P message 119 574 125 9109513 /documentation/generate;
#P flonum 53 44 40 9 0. 1. 8227 139 198 198 198 221 221 221 222 222 222 0 0 0;
#P objectname Feedback;
#P number 53 31 41 9 0 10000 8227 139 198 198 198 221 221 221 222 222 222 0 0 0;
#P objectname Right;
#P number 53 17 41 9 0 10000 8227 139 198 198 198 221 221 221 222 222 222 0 0 0;
#P objectname Left;
#P newex 26 283 74 9109513 pvar Feedback;
#P window linecount 2;
#P newex 26 307 304 9109513 jcom.parameter feedback @type msg_float @ramp linear @repetitions 0 @range 0. 1. @clipmode both @description "Feedback.";
#P objectname jcom.parameter[1];
#P window linecount 1;
#P newex 26 203 57 9109513 pvar Right;
#P window linecount 2;
#P newex 26 226 353 9109513 jcom.parameter right @type msg_int @ramp linear @repetitions 0 @range 0 10000 @clipmode both @description "Delay time in milliseconds for right channel.";
#P objectname jcom.parameter[2];
#P window linecount 1;
#P comment 4 46 50 9109513 Feedback;
#B frgb 172 172 172;
#P newex 598 160 40 9109513 t 1 s 0;
#N vpatcher 564 189 1050 519;
#P window setfont "Sans Serif" 9.;
#P window linecount 2;
#P comment 34 260 415 9109513 Else "Restore Default Settings" will not function properly as past values for q \, filtergain and cf maintained in FilterGraph will overrule the attempt to reset values to defaults.;
#P outlet 142 194 15 0;
#P outlet 88 194 15 0;
#P outlet 34 194 15 0;
#P window linecount 1;
#P newex 88 157 33 9109513 atodb;
#P inlet 179 35 15 0;
#P inlet 125 35 15 0;
#P inlet 71 35 15 0;
#P newex 142 128 47 9109513 gate 1 1;
#P newex 88 128 47 9109513 gate 1 1;
#P window linecount 0;
#P newex 34 128 47 9109513 gate 1 1;
#P inlet 263 35 15 0;
#P comment 34 238 315 9109513 Output from FilterFraph has to be muted when filtertype is changes.;
#P connect 1 0 2 0;
#P connect 2 0 9 0;
#P connect 5 0 2 1;
#P connect 1 0 3 0;
#P connect 3 0 8 0;
#P connect 8 0 10 0;
#P connect 6 0 3 1;
#P connect 1 0 4 0;
#P connect 4 0 11 0;
#P connect 7 0 4 1;
#P pop;
#P newobj 408 228 100 9109513 p DecodeFilterGraph;
#P user umenu 95 20 70 9109543 1 64 36 1;
#X add lowpass;
#X add highpass;
#X add bandpass;
#X add bandstop;
#X add peaknotch;
#X add lowshelf;
#X add highshelf;
#P objectname FilterType;
#P newex 261 2 124 9109513 r $0_xxx_to_filtergraph;
#P newex 399 373 124 9109513 s $0_xxx_to_filtergraph;
#N vpatcher 91 247 688 576;
#P window setfont "Sans Serif" 9.;
#P window linecount 1;
#P newex 267 143 33 9109513 dbtoa;
#P window linecount 0;
#P comment 401 232 119 9109513 Set message to 6nd inlet;
#P outlet 131 219 15 0;
#P newex 131 177 215 9109513 pak set 1200. 1. 1.;
#P newex 335 119 50 9109513 route set;
#P inlet 199 50 15 0;
#P newex 267 119 50 9109513 route set;
#P inlet 267 50 15 0;
#P newex 199 119 50 9109513 route set;
#P inlet 335 50 15 0;
#P comment 405 121 100 9109513 Get rid of set;
#P connect 7 0 8 0;
#P connect 1 0 2 0;
#P connect 2 0 7 1;
#P connect 3 0 4 0;
#P connect 4 0 10 0;
#P connect 10 0 7 2;
#P connect 5 0 6 0;
#P connect 6 0 7 3;
#P pop;
#P newobj 399 349 124 9109513 p PrepareForFiltergraph~;
#P newex 413 97 89 9109513 pvar FilterType 2;
#P newex 395 203 93 9109513 pvar FilterGraph 7;
#P window linecount 2;
#P newex 261 26 232 9109513 jcom.message filtergraph @description "Messages to filtergraph. See the MSP reference for further details";
#P newex 413 122 380 9109513 jcom.parameter filtertype @type msg_menu @description "What kind of filter to use. Possible values: lowpass | highpass | bandpass | bandstop | peaknotch | lowshelf | highshelf";
#P objectname jcom.parameter.mxb;
#P newex 550 296 301 9109513 jcom.parameter filtergain @type msg_float @range -24 24 @clipmode both @ramp linear @repetitions 0 @description "Gain (dB)";
#P objectname jcom.parameter.mxb[3];
#P newex 549 252 282 9109513 jcom.parameter q @type msg_float @ramp linear @range 0. 100. @clipmode both @repetitions 0 @description "Resonance (Q)";
#P objectname jcom.parameter.mxb[2];
#P newex 549 336 307 9109513 jcom.parameter cf @type msg_float @range 30. 11025. @clipmode both @ramp linear @repetitions 0 @description "Center frequency (Hz)";
#P objectname jcom.parameter.mxb[1];
#P user filtergraph~ 165 19 88 39 139 9 20. 22050. 0.0625 16. 0 1 1 0 0 1 1;
#X frgb 99 99 99;
#X brgb 173 173 173;
#X rgb2 0 0 0;
#X rgb3 84 84 84;
#X rgb4 0 0 0;
#X rgb5 118 121 166;
#X rgb6 122 74 74;
#X rgb7 255 22 22;
#X linmarkers 5512.5 11025. 16537.5;
#X logmarkers 50. 500. 5000.;
#X nfilters 1;
#X setfilter 0 1 1 0 0 8571.957031 0.938949 0.80165 30. 11025. 0.0625 16. 0. 25.;
#X done;
#P objectname FilterGraph;
#P window linecount 3;
#P comment 546 387 257 9109513 Convertion from freq \, gain and q to biquad coeffisients has to take place inside the poly~ (.alg) in case the poly is up- or downsampled.;
#P window linecount 1;
#P comment 4 33 36 9109513 Right;
#B frgb 172 172 172;
#P window linecount 2;
#P message 319 564 65 9109513 \; max refresh;
#P window linecount 1;
#P newex 26 129 52 9109513 pvar Left;
#P newex 19 600 402 9109513 jcom.hub jmod.echo~ @size 1U-half @module_type audio @description "Stereo echo module.";
#P objectname jcom.hub;
#P comment 33 574 79 9109513 command input;
#P inlet 19 575 13 0;
#P message 248 574 23 9109513 /init;
#P hidden inlet 74 406 13 0;
#P hidden outlet 74 514 13 0;
#P window linecount 2;
#P newex 26 152 349 9109513 jcom.parameter left @type msg_int @ramp linear @repetitions 0 @range 0 10000 @clipmode both @description "Delay time in milliseconds for left channel.";
#P objectname jcom.parameter;
#P hidden inlet 291 406 13 0;
#P window linecount 1;
#P comment 4 19 36 9109513 Left;
#B frgb 172 172 172;
#P newex 74 460 179 9109513 poly~ jalg.echo~.mxt;
#P hidden comment 93 406 84 9109513 ----signal inputs----;
#P outlet 19 629 13 0;
#P hidden outlet 158 514 13 0;
#P hidden comment 74 528 101 9109513 ---signal outputs---;
#P bpatcher 0 0 256 60 0 0 jcom.gui.mxt 0;
#P objectname jcom.gui.1Uh.a.stereo.mxt;
#P fasten 11 0 14 0 253 596 24 596;
#P fasten 41 0 14 0 124 594 24 594;
#P connect 12 0 14 0;
#P connect 14 0 3 0;
#P fasten 8 0 15 0 31 190 21 190 21 122 31 122;
#P connect 15 0 8 0;
#P fasten 34 0 35 0 31 264 21 264 21 196 31 196;
#P connect 35 0 34 0;
#P fasten 36 0 37 0 31 345 21 345 21 277 31 277;
#P connect 37 0 36 0;
#P connect 10 0 42 0;
#P connect 42 2 5 0;
#P connect 42 0 5 0;
#P connect 5 0 43 0;
#P connect 43 0 9 0;
#P connect 43 1 2 0;
#P hidden connect 24 0 19 0;
#P hidden connect 29 0 19 5;
#P fasten 42 1 5 1 151 456 248 456;
#P connect 5 1 43 1;
#P connect 7 0 42 1;
#P fasten 32 1 25 0 618 187 400 187;
#P connect 21 0 27 0;
#P connect 27 0 28 0;
#P connect 25 1 31 0;
#P fasten 23 0 26 0 418 166 406 166 406 92 418 92;
#P fasten 26 1 23 0 497 118 418 118;
#P connect 25 2 31 1;
#P connect 22 0 27 1;
#P connect 25 3 31 2;
#P fasten 32 0 31 3 603 201 503 201;
#P lcolor 1;
#P fasten 32 2 31 3 633 201 503 201;
#P lcolor 1;
#P connect 20 0 27 2;
#P connect 31 2 21 0;
#P connect 31 0 20 0;
#P connect 31 1 22 0;
#P connect 23 1 32 0;
#P pop;
