max v2;#N vpatcher 53 58 942 622;#P window setfont "Sans Serif" 9.;#P hidden message 224 120 179 196617 preset/store 1 default \, preset/write;#P hidden newex 141 218 84 196617 jcom.pass open;#P hidden newex 141 243 47 196617 pcontrol;#P hidden inlet 640 137 13 0;#P hidden inlet 625 137 13 0;#P hidden inlet 610 137 13 0;#P hidden inlet 595 137 13 0;#P hidden inlet 580 137 13 0;#P hidden inlet 565 137 13 0;#P hidden inlet 550 137 13 0;#P hidden inlet 535 137 13 0;#P hidden inlet 520 137 13 0;#P hidden inlet 505 137 13 0;#P hidden inlet 490 137 13 0;#P hidden inlet 475 137 13 0;#P hidden inlet 460 137 13 0;#P hidden inlet 445 137 13 0;#P hidden inlet 430 137 13 0;#P hidden message 96 120 125 196617 /documentation/generate;#P window linecount 2;#P hidden message 46 422 65 196617 \; max refresh;#P window linecount 1;#P hidden newex 268 38 62 196617 pvar Offset;#P window linecount 2;#P hidden newex 0 140 338 196617 jcom.hub jmod.sur.multi.in~ @size 1U-half @module_type audio.no_panel @description "Pack up to 16 mono signals onto a multi cable.";#P objectname jcom.hub;#P window linecount 1;#P hidden comment 14 121 79 196617 command input;#P hidden inlet 0 121 13 0;#P window linecount 2;#P hidden message 46 390 72 196617 \; jcom.init bang;#P hidden inlet 415 137 13 0;#P hidden outlet 400 325 13 0;#P window linecount 3;#P hidden newex 268 63 330 196617 jcom.parameter channel_offset @type msg_int @repetitions 1 @range 0 31 @clipmode both @ramp 0 @description "Set channel offset for signals. Only take effect the next time audio is started.";#P objectname channel_offset;#P number 93 26 35 9 0 31 8227 3 198 198 198 221 221 221 222 222 222 0 0 0;#P objectname Offset;#P window linecount 1;#P comment 16 27 74 196617 Channel offset;#B frgb 172 172 172;#P hidden comment 414 118 105 196617 ----signal inputs----;#P hidden outlet 0 229 13 0;#P hidden comment 420 325 167 196617 --- multi channel signal output ---;#P hidden newex 400 294 257 196617 jalg.sur.multi.in~.mxt;#P hidden newex 141 195 43 196617 jcom.in;#P bpatcher 0 0 256 60 0 0 jcom.gui.mxt 0;#P objectname jcom.gui.1Uh.a.stereo.mxt;#P hidden fasten 35 0 14 0 229 137 5 137;#P hidden connect 12 0 14 0;#P hidden fasten 17 0 14 0 101 137 5 137;#P hidden connect 14 0 4 0;#P hidden connect 1 0 34 0;#P hidden connect 34 0 33 0;#P hidden fasten 8 0 15 0 273 109 262 109 262 31 273 31;#P hidden connect 15 0 8 0;#P hidden connect 33 0 2 0;#P hidden connect 34 1 2 0;#P hidden connect 2 0 9 0;#P hidden connect 10 0 2 1;#P hidden connect 18 0 2 2;#P hidden connect 19 0 2 3;#P hidden connect 20 0 2 4;#P hidden connect 21 0 2 5;#P hidden connect 22 0 2 6;#P hidden connect 23 0 2 7;#P hidden connect 24 0 2 8;#P hidden connect 25 0 2 9;#P hidden connect 26 0 2 10;#P hidden connect 27 0 2 11;#P hidden connect 28 0 2 12;#P hidden connect 29 0 2 13;#P hidden connect 30 0 2 14;#P hidden connect 31 0 2 15;#P hidden connect 32 0 2 16;#P pop;