max v2;
#N vpatcher 30 134 529 772;
#P window setfont "Sans Serif" 9.;
#P hidden newex 303 529 133 9109513 jcom.out 2;
#P hidden newex 303 470 151 9109513 jcom.in~ 2;
#P hidden newex 16 355 73 9109513 pvar feedback;
#P window linecount 2;
#P hidden newex 16 380 361 9109513 jcom.parameter feedback @type msg_float @ramp linear @repetitions 0 @clipmode both @range 0. 1. @clipmode both @description "Amount of delay feedback.";
#P objectname jcom.parameter[3];
#P flonum 226 39 35 9 0. 1. 8227 139 255 255 255 221 221 221 222 222 222 0 0 0;
#P objectname feedback;
#P window linecount 1;
#P comment 184 40 49 9109513 feedback;
#B frgb 172 172 172;
#N vpatcher 59 215 551 472;
#P window setfont "Sans Serif" 9.;
#P window linecount 2;
#P comment 256 85 181 9109513 just formatting things so we can do the feedback.;
#P window linecount 1;
#P newex 69 76 51 9109513 zl slice 1;
#P newex 69 144 144 9109513 pak set 1 0 2 0 3 0 4 0 5 0;
#P outlet 69 183 15 0;
#P inlet 69 51 15 0;
#P window linecount 0;
#P newex 69 103 85 9109513 unpack 0 0 0 0 0;
#P comment 256 128 181 9109513 not very elegant \, but necessary since <interleave> isn't part of Jamoma.;
#P connect 2 0 5 0;
#P fasten 5 1 1 0 115 98 74 98;
#P connect 4 0 3 0;
#P connect 1 0 4 2;
#P connect 1 1 4 4;
#P connect 1 2 4 6;
#P connect 1 3 4 8;
#P connect 1 4 4 10;
#P pop;
#P hidden newobj 16 321 66 9109513 p formatting;
#N vpatcher 299 219 791 476;
#P window setfont "Sans Serif" 9.;
#P window linecount 2;
#P comment 257 58 181 9109513 Formatting the messages so that multislider can understand them \, by adding the slider number in front of each value in the message.;
#P window linecount 1;
#P newex 69 76 51 9109513 zl slice 1;
#P newex 69 144 144 9109513 pak set 1 0 2 0 3 0 4 0 5 0;
#P outlet 69 183 15 0;
#P inlet 69 51 15 0;
#P window linecount 0;
#P newex 69 103 85 9109513 unpack 0 0 0 0 0;
#P comment 256 128 181 9109513 not very elegant \, but necessary since <interleave> isn't part of Jamoma.;
#P connect 2 0 5 0;
#P fasten 5 1 1 0 115 98 74 98;
#P connect 4 0 3 0;
#P connect 1 0 4 2;
#P connect 1 1 4 4;
#P connect 1 2 4 6;
#P connect 1 3 4 8;
#P connect 1 4 4 10;
#P pop;
#P hidden newobj 17 227 66 9109513 p formatting;
#P hidden message 67 72 83 9109513 setminmax 0 \$1;
#P hidden newex 16 261 56 9109513 pvar right;
#P window linecount 2;
#P hidden newex 16 286 338 9109513 jcom.parameter right @type msg_list @repetitions 0 @ramp 0 @range 0 10000 @clipmode low @description "Delay time in milliseconds for right channel.";
#P objectname jcom.parameter[1];
#P user multiSlider 94 22 87 30 0. 100000. 5 2921 47 0 4 2 0 0 0;
#M frgb 0 0 0;
#M brgb 255 255 255;
#M rgb2 127 127 127;
#M rgb3 0 0 0;
#M rgb4 37 52 91;
#M rgb5 74 105 182;
#M rgb6 112 158 18;
#M rgb7 149 211 110;
#M rgb8 187 9 201;
#M rgb9 224 62 37;
#M rgb10 7 114 128;
#P objectname right;
#P user multiSlider 4 22 87 30 0. 100000. 5 2921 47 0 4 2 0 0 0;
#M frgb 0 0 0;
#M brgb 255 255 255;
#M rgb2 127 127 127;
#M rgb3 0 0 0;
#M rgb4 37 52 91;
#M rgb5 74 105 182;
#M rgb6 112 158 18;
#M rgb7 149 211 110;
#M rgb8 187 9 201;
#M rgb9 224 62 37;
#M rgb10 7 114 128;
#P objectname left;
#P number 206 24 50 9 0 0 8225 139 198 198 198 221 221 221 222 222 222 0 0 0;
#P objectname max-delay;
#P window linecount 1;
#P comment 184 25 29 9109513 max;
#B frgb 172 172 172;
#P hidden message 115 470 125 9109513 /documentation/generate;
#P hidden newex 17 169 50 9109513 pvar left;
#P window linecount 2;
#P hidden newex 17 191 334 9109513 jcom.parameter left @type msg_list @repetitions 0 @ramp 0 @range 0 10000 @clipmode low @description "Delay time in milliseconds for left channel.";
#P objectname jcom.parameter[2];
#P window linecount 1;
#P hidden newex 16 99 82 9109513 pvar max-delay;
#P window linecount 2;
#P hidden newex 15 497 248 9109513 jcom.hub jmod.multidelay~ @size 1U-half @module_type audio @description "Sample-accurate stereo multidelay.";
#P objectname jcom.hub;
#P window linecount 1;
#P hidden comment 29 471 79 9109513 command input;
#P hidden inlet 15 472 13 0;
#P hidden message 243 470 23 9109513 /init;
#P hidden inlet 303 447 13 0;
#P hidden outlet 302 557 13 0;
#P window linecount 2;
#P hidden newex 16 122 338 9109513 jcom.parameter maxdelay @type msg_int @ramp linear @repetitions 0 @range 0 10000 @clipmode low @description "Max delay time in milliseconds.";
#P objectname jcom.parameter;
#P hidden inlet 444 447 13 0;
#P window linecount 1;
#P hidden newex 304 504 132 9109513 poly~ jalg.multidelay~.mxt;
#P hidden comment 338 447 84 9109513 ----signal inputs----;
#P hidden outlet 15 538 13 0;
#P hidden outlet 364 557 13 0;
#P hidden comment 302 572 101 9109513 ---signal outputs---;
#P bpatcher 0 0 256 60 0 0 jcom.gui.mxt 0;
#P objectname jcom.gui.1Uh.a.stereo.mxt;
#P hidden connect 24 0 20 0;
#P hidden fasten 10 0 13 0 248 493 20 493;
#P hidden fasten 17 0 13 0 120 490 20 490;
#P hidden connect 11 0 13 0;
#P hidden connect 13 0 3 0;
#P hidden fasten 7 0 14 0 21 158 11 158 11 92 21 92;
#P hidden connect 14 0 7 0;
#P hidden fasten 26 0 23 0 21 345 11 345 11 255 21 255;
#P hidden connect 23 0 22 0;
#P hidden connect 22 0 26 0;
#P hidden fasten 29 0 30 0 21 416 11 416 11 348 21 348;
#P hidden connect 30 0 29 0;
#P hidden fasten 25 0 16 0 22 250 11 250 11 165 22 165;
#P hidden connect 16 0 15 0;
#P hidden connect 15 0 25 0;
#P hidden connect 19 0 24 0;
#P lcolor 6;
#P hidden connect 24 0 21 0;
#P hidden connect 32 0 8 0;
#P hidden connect 9 0 31 0;
#P hidden connect 5 0 32 0;
#P hidden connect 31 2 5 0;
#P hidden connect 31 0 5 0;
#P hidden connect 32 1 2 0;
#P hidden fasten 31 1 5 1 355 501 431 501;
#P hidden connect 5 1 32 1;
#P hidden connect 6 0 31 1;
#P pop;
