max v2;
#N vpatcher 349 105 917 778;
#P hidden inlet 514 66 15 0;
#P hidden inlet 380 66 15 0;
#P window setfont "Sans Serif" 9.;
#P hidden newex 380 162 64 196617 jcom.out~ 2;
#P hidden newex 380 88 144 196617 jcom.in~ 2;
#P hidden message 113 98 125 196617 /documentation/generate;
#P user umenu 173 44 79 196647 1 64 60 1;
#X add exponential;
#X add linear;
#P objectname Mode;
#P window linecount 2;
#P hidden message 428 17 65 196617 \; max refresh;
#P flonum 57 17 36 9 0 0 8224 3 198 198 198 221 221 221 222 222 222 0 0 0;
#P objectname Preamp;
#P window linecount 1;
#P hidden newex 68 574 66 196617 pvar Mode 2;
#P hidden newex 68 509 65 196617 pvar Release;
#P hidden newex 68 435 78 196617 pvar Lookahead;
#P hidden newex 68 349 75 196617 pvar Threshold;
#P hidden newex 68 287 71 196617 pvar Postamp;
#P hidden newex 68 220 65 196617 pvar Preamp;
#P window linecount 2;
#P hidden newex 68 602 378 196617 jcom.parameter mode @repetitions 0 @type msg_menu @description "Set the function to be used for calculating the scaling. Possible values: exponential | linear";
#P objectname mode;
#P hidden newex 68 529 317 196617 jcom.parameter release @type msg_float @range 0 500 @clipmode low @ramp linear @description "The release time (ms).";
#P objectname release;
#P window linecount 3;
#P hidden newex 68 455 338 196617 jcom.parameter lookahead @type msg_int @range 0 256 @clipmode both @ramp linear @repetitions 0 @description "The number of samples (up to 256) to look ahead into the signal to see what is coming.";
#P objectname lookahead;
#P hidden newex 68 369 445 196617 jcom.parameter threshold @type msg_float @range -48 6 @clipmode none @ramp linear @description "The limiter threshold (in dB below full scale). When the input signal level exceeds this threshold\\\, it will be attenuated as necessary to keep the level below the threshold.";
#P objectname threshold;
#P window linecount 2;
#P hidden newex 68 307 374 196617 jcom.parameter postamp @type msg_float @range -6 48 @clipmode none @ramp linear @description "The gain in dB applied to the signal after limiting. ";
#P objectname postamp;
#P hidden newex 68 242 373 196617 jcom.parameter preamp @type msg_float @range -6 48 @clipmode none @ramp linear @description "The gain in dB applied to the signal before limiting.";
#P objectname preamp;
#P number 173 17 35 9 0 256 8227 3 198 198 198 221 221 221 222 222 222 0 0 0;
#P objectname Lookahead;
#P flonum 173 32 36 9 0. 0 8225 3 198 198 198 221 221 221 222 222 222 0 0 0;
#P objectname Release;
#P flonum 57 45 36 9 0 0 8224 3 198 198 198 221 221 221 222 222 222 0 0 0;
#P objectname Threshold;
#P window linecount 1;
#P comment 91 47 20 196617 dB;
#B frgb 172 172 172;
#P flonum 57 31 36 9 0 0 8224 3 198 198 198 221 221 221 222 222 222 0 0 0;
#P objectname Postamp;
#P comment 91 33 20 196617 dB;
#B frgb 172 172 172;
#P comment 91 19 20 196617 dB;
#B frgb 172 172 172;
#P comment 209 33 51 196617 ms;
#B frgb 172 172 172;
#P comment 209 19 51 196617 samples;
#B frgb 172 172 172;
#P comment 120 47 51 196617 Mode;
#B frgb 172 172 172;
#P comment 120 33 51 196617 Release;
#B frgb 172 172 172;
#P comment 120 19 51 196617 Lookahead;
#B frgb 172 172 172;
#P comment 4 47 51 196617 Threshold;
#B frgb 172 172 172;
#P comment 4 33 49 196617 Postamp;
#B frgb 172 172 172;
#P comment 4 19 49 196617 Preamp;
#B frgb 172 172 172;
#P hidden comment 23 99 79 196617 command input;
#P hidden inlet 9 99 15 0;
#P hidden message 240 98 37 196617 /init;
#P hidden outlet 380 188 15 0;
#P window linecount 2;
#P hidden newex 9 127 254 196617 jcom.hub jmod.limiter~ @size 1U-half @module_type audio @description "A stereo limiter";
#P objectname jcom.hub;
#P window linecount 1;
#P hidden newex 380 133 116 196617 poly~ jalg.limiter~.mxt;
#P hidden comment 409 68 113 196617 ----signal inputs----;
#P hidden outlet 9 168 15 0;
#P hidden outlet 407 188 15 0;
#P hidden comment 361 204 101 196617 ---signal outputs---;
#P bpatcher 0 0 256 60 0 0 jcom.gui.mxt 0;
#P objectname jcom.gui.1Uh.a.stereo.mxt;
#P hidden fasten 8 0 6 0 245 123 14 123;
#P hidden fasten 41 0 6 0 118 121 14 121;
#P hidden connect 9 0 6 0;
#P hidden connect 6 0 3 0;
#P hidden fasten 26 0 32 0 73 275 63 275 63 215 73 215;
#P hidden connect 32 0 26 0;
#P hidden fasten 27 0 33 0 73 339 64 339 64 282 73 282;
#P hidden connect 33 0 27 0;
#P hidden fasten 28 0 34 0 73 426 64 426 64 346 73 346;
#P hidden connect 34 0 28 0;
#P hidden fasten 29 0 35 0 73 499 64 499 64 431 73 431;
#P hidden connect 35 0 29 0;
#P hidden fasten 30 0 36 0 73 562 64 562 64 504 73 504;
#P hidden connect 36 0 30 0;
#P hidden fasten 31 0 37 0 73 634 64 634 64 569 73 569;
#P hidden connect 37 1 31 0;
#P lcolor 6;
#P hidden connect 44 0 42 0;
#P hidden connect 42 0 5 0;
#P hidden connect 42 2 5 0;
#P hidden connect 5 0 43 0;
#P hidden connect 43 0 7 0;
#P hidden connect 43 1 2 0;
#P hidden connect 5 1 43 1;
#P hidden fasten 42 1 5 1 429 124 491 124;
#P hidden connect 45 0 42 1;
#P pop;
