max v2;
#N vpatcher 22 58 378 577;
#P window setfont "Sans Serif" 9.;
#P hidden newex 64 283 130 9109513 jcom.out~ 2;
#P hidden newex 64 220 212 9109513 jcom.in~ 2;
#P hidden message 113 368 125 9109513 /documentation/generate;
#P window setfont "Sans Serif" 12.;
#P hidden comment 7 73 210 9109516 Saturation;
#B color 7;
#P window setfont "Sans Serif" 9.;
#P hidden newex 27 102 105 9109513 pvar SaturationDepth;
#P window linecount 2;
#P hidden newex 27 123 296 9109513 jcom.parameter depth @ramp linear @repetitions 0 @type msg_float @range 0 99 @clipmode both @description "Saturation: Depth.";
#P objectname jcom.parameter.mxt[2];
#P hidden message 58 444 65 9109513 \; max refresh;
#P hidden newex 14 395 246 9109513 jcom.hub jmod.saturation~ @size 1U-half @module_type audio @description "Saturation (distortion) effect.";
#P objectname jcom.hub;
#P window linecount 1;
#P hidden comment 28 367 79 9109513 command input;
#P hidden inlet 14 367 13 0;
#P hidden message 241 368 23 9109513 /init;
#P hidden inlet 64 200 13 0;
#P hidden outlet 63 311 13 0;
#P flonum 103 26 40 9 0. 99. 8227 139 198 198 198 221 221 221 222 222 222 0 0 0;
#P objectname SaturationDepth;
#P hidden inlet 126 202 13 0;
#P comment 16 28 85 9109513 Saturation Depth;
#B frgb 172 172 172;
#P hidden newex 64 256 131 9109513 poly~ jalg.saturation~.mxt;
#P hidden comment 57 182 105 9109513 ----signal inputs----;
#P hidden outlet 14 438 13 0;
#P hidden outlet 125 311 13 0;
#P hidden comment 57 326 101 9109513 ---signal outputs---;
#P bpatcher 0 0 256 60 0 0 jcom.gui.mxt 0 $0_;
#P objectname jcom.gui.1Uh.a.stereo.mxt;
#P hidden fasten 11 0 14 0 246 389 19 389;
#P hidden connect 12 0 14 0;
#P hidden fasten 19 0 14 0 118 386 19 386;
#P hidden connect 14 0 3 0;
#P hidden fasten 16 0 17 0 32 161 22 161 22 96 32 96;
#P hidden connect 17 0 16 0;
#P hidden connect 21 0 9 0;
#P hidden connect 10 0 20 0;
#P hidden connect 20 2 5 0;
#P hidden connect 20 0 5 0;
#P hidden connect 5 0 21 0;
#P hidden connect 21 1 2 0;
#P hidden connect 5 1 21 1;
#P hidden fasten 20 1 5 1 136 251 190 251;
#P hidden connect 7 0 20 1;
#P pop;
