max v2;#N vpatcher 184 128 1073 692;#P window setfont "Sans Serif" 9.;#P newex 150 261 47 196617 pcontrol;#P newex 150 239 78 196617 jcom.pass open;#P hidden comment 282 165 124 196617 multichannel signal inlet;#P window linecount 2;#P newex 467 263 254 196617 jcom.parameter meter @type msg_toggle @description "Enable or disable monotoring of levels.";#P objectname jcom.parameter;#P window linecount 1;#P newex 467 235 61 196617 pvar Meter;#P hidden message 108 166 125 196617 /documentation/generate;#N vpatcher 203 50 1201 802;#P origin 0 1;#P window setfont "Sans Serif" 9.;#P window linecount 1;#P newex 747 654 145 196617 jcom.freeze_display.mxt $0_;#P window linecount 2;#P newex 256 221 449 196617 jcom.parameter r/gain @type msg_float @range -24 24 @clipmode both @repetitions 0 @ramp linear.sched @description "Adjustment of volum for Nth component of ambisonic signal.";#P objectname jcom.parameter[4];#P window linecount 1;#P newex 747 700 57 196617 prepend set;#P newex 747 677 44 196617 qlim 65;#P newex 747 631 217 196617 pak 0. 0. 0. 0. 0. 0. 0. 0. 0. 0. 0. 0. 0. 0. 0. 0.;#P newex 3 57 232 196617 unpack 0. 0. 0. 0. 0. 0. 0. 0. 0. 0. 0. 0. 0. 0. 0. 0.;#P inlet 3 23 15 0;#P outlet 747 723 15 0;#P window linecount 0;#P newex 256 89 449 196617 jcom.parameter w/gain @type msg_float @range -24 24 @clipmode both @repetitions 1 @ramp linear.sched @description "Adjustment of volum for Nth component of ambisonic signal.";#P objectname jcom.parameter;#P newex 256 122 449 196617 jcom.parameter x/gain @type msg_float @range -24 24 @clipmode both @repetitions 0 @ramp linear.sched @description "Adjustment of volum for Nth component of ambisonic signal.";#P objectname jcom.parameter[1];#P newex 256 155 449 196617 jcom.parameter y/gain @type msg_float @range -24 24 @clipmode both @repetitions 0 @ramp linear.sched @description "Adjustment of volum for Nth component of ambisonic signal.";#P objectname jcom.parameter[2];#P newex 256 188 449 196617 jcom.parameter z/gain @type msg_float @range -24 24 @clipmode both @repetitions 0 @ramp linear.sched @description "Adjustment of volum for Nth component of ambisonic signal.";#P objectname jcom.parameter[3];#P newex 256 254 449 196617 jcom.parameter s/gain @type msg_float @range -24 24 @clipmode both @repetitions 0 @ramp linear.sched @description "Adjustment of volum for Nth component of ambisonic signal.";#P objectname jcom.parameter[5];#P newex 256 287 449 196617 jcom.parameter t/gain @type msg_float @range -24 24 @clipmode both @repetitions 0 @ramp linear.sched @description "Adjustment of volum for Nth component of ambisonic signal.";#P objectname jcom.parameter[6];#P newex 256 320 449 196617 jcom.parameter u/gain @type msg_float @range -24 24 @clipmode both @repetitions 0 @ramp linear.sched @description "Adjustment of volum for Nth component of ambisonic signal.";#P objectname jcom.parameter[7];#P newex 255 353 449 196617 jcom.parameter v/gain @type msg_float @range -24 24 @clipmode both @repetitions 0 @ramp linear.sched @description "Adjustment of volum for Nth component of ambisonic signal.";#P objectname jcom.parameter[8];#P newex 255 386 449 196617 jcom.parameter k/gain @type msg_float @range -24 24 @clipmode both @repetitions 0 @ramp linear.sched @description "Adjustment of volum for Nth component of ambisonic signal.";#P objectname jcom.parameter[9];#P newex 255 419 449 196617 jcom.parameter l/gain @type msg_float @range -24 24 @clipmode both @repetitions 0 @ramp linear.sched @description "Adjustment of volum for Nth component of ambisonic signal.";#P objectname jcom.parameter[10];#P newex 255 452 449 196617 jcom.parameter m/gain @type msg_float @range -24 24 @clipmode both @repetitions 0 @ramp linear.sched @description "Adjustment of volum for Nth component of ambisonic signal.";#P objectname jcom.parameter[11];#P newex 255 485 449 196617 jcom.parameter n/gain @type msg_float @range -24 24 @clipmode both @repetitions 0 @ramp linear.sched @description "Adjustment of volum for Nth component of ambisonic signal.";#P objectname jcom.parameter[12];#P newex 255 518 449 196617 jcom.parameter o/gain @type msg_float @range -24 24 @clipmode both @repetitions 0 @ramp linear.sched @description "Adjustment of volum for Nth component of ambisonic signal.";#P objectname jcom.parameter[13];#P newex 255 551 449 196617 jcom.parameter p/gain @type msg_float @range -24 24 @clipmode both @repetitions 0 @ramp linear.sched @description "Adjustment of volum for Nth component of ambisonic signal.";#P objectname jcom.parameter[14];#P newex 255 584 449 196617 jcom.parameter q/gain @type msg_float @range -24 24 @clipmode both @repetitions 0 @ramp linear.sched @description "Adjustment of volum for Nth component of ambisonic signal.";#P objectname jcom.parameter[15];#P comment 756 165 100 196617 Xenakis-patching...;#P connect 17 0 18 0;#P connect 18 8 8 0;#P lcolor 1;#P connect 18 9 7 0;#P lcolor 1;#P connect 18 10 6 0;#P lcolor 1;#P connect 18 11 5 0;#P lcolor 1;#P connect 18 12 4 0;#P lcolor 1;#P connect 18 13 3 0;#P lcolor 1;#P connect 18 14 2 0;#P lcolor 1;#P connect 18 15 1 0;#P lcolor 1;#P connect 18 0 15 0;#P lcolor 1;#P connect 18 1 14 0;#P lcolor 1;#P connect 18 2 13 0;#P lcolor 1;#P connect 18 3 12 0;#P lcolor 1;#P connect 18 4 22 0;#P lcolor 1;#P connect 18 5 11 0;#P lcolor 1;#P connect 18 6 10 0;#P lcolor 1;#P connect 18 7 9 0;#P lcolor 1;#P connect 15 1 19 0;#P lcolor 1;#P connect 19 0 23 0;#P connect 23 0 20 0;#P connect 20 0 21 0;#P connect 21 0 16 0;#P connect 14 1 19 1;#P lcolor 1;#P connect 13 1 19 2;#P lcolor 1;#P connect 12 1 19 3;#P lcolor 1;#P connect 22 1 19 4;#P lcolor 1;#P connect 11 1 19 5;#P lcolor 1;#P connect 10 1 19 6;#P lcolor 1;#P connect 9 1 19 7;#P lcolor 1;#P connect 8 1 19 8;#P lcolor 1;#P connect 7 1 19 9;#P lcolor 1;#P connect 6 1 19 10;#P lcolor 1;#P connect 5 1 19 11;#P lcolor 1;#P connect 4 1 19 12;#P lcolor 1;#P connect 3 1 19 13;#P lcolor 1;#P connect 2 1 19 14;#P lcolor 1;#P connect 1 1 19 15;#P lcolor 1;#P pop;#P newobj 467 405 38 196617 p gains;#P objectname gains;#P newex 467 376 123 196617 pvar jsui_multigain;#P window linecount 2;#P newex 467 167 346 196617 jalg.parameter mute @type msg_toggle @description "When active\\\, this attribute turns off the module's processing.mxtorithm to save CPU";#P objectname pattr_mute;#P window linecount 1;#P newex 467 145 56 196617 pvar Mute;#P objectname jcom.parameter[2];#P user pictctrl 238 3 11 11 jcom.button.mute.pct 0 0 1 1 26 0 0 0 11 11 128 0 1 10 2 1 1 270;#P objectname Mute;#P user jsui 9 21 236 80 1 0 0 jcom.jsui_multigain.js 16 16 1 1;#P objectname jsui_multigain;#P window linecount 2;#P message 47 373 65 196617 \; max refresh;#P window linecount 1;#P newex 467 37 67 196617 pvar Order;#P window linecount 3;#P newex 0 186 310 196617 jcom.hub jcom.sur.ambi.adjust~ @size 2U-half @module_type audio.no_panel @num_inputs 1 @num_outputs 1 @description "Adjust relative weight of components of ambisonic signal.";#P objectname jcom.hub;#P window linecount 1;#P comment 14 167 79 196617 command input;#P inlet 0 167 13 0;#P window linecount 2;#P message 47 341 72 196617 \; jcom.init bang;#P window linecount 3;#P newex 467 63 314 196617 jcom.parameter order @type msg_int @range 1 3 @clipmode both @ramp 0 @repetitions 1 @description "Ambisonic order. Note: Order is only updated when audio is not running.";#P objectname jcom.parameter[1];#P hidden inlet 409 164 13 0;#P window linecount 1;#P newex 256 297 163 196617 jalg.sur.ambi.adjust~.mxt;#P outlet 0 261 13 0;#P hidden outlet 409 330 13 0;#P hidden comment 283 330 124 196617 multichannel signal outlet;#P comment 9 104 37 196617 Order:;#B frgb 172 172 172;#P number 45 102 20 9 1 3 8227 3 198 198 198 221 221 221 222 222 222 0 0 0;#P objectname Order;#P window linecount 3;#P newex 312 186 79 196617 pattrstorage @autorestore 0 @savemode 0;#X client_rect 10 59 650 493;#X storage_rect 0 0 640 240;#P objectname jcom.sur.ambi.adjust~;#P window linecount 1;#P comment 209 104 40 196617 Meter;#B frgb 172 172 172;#P user radiogroup 194 101 54 16;#X size 1;#X offset 16;#X inactive 0;#X itemtype 1;#X flagmode 0;#X set 1;#X done;#P objectname Meter;#P bpatcher 0 0 255 120 0 0 jcom.gui 0;#P objectname jcom.gui.1Uh.a.stereo.mxt;#P connect 13 0 15 0;#P hidden fasten 24 0 15 0 113 183 5 183;#P connect 15 0 8 0;#P connect 15 1 28 0;#P connect 28 0 29 0;#P connect 29 0 9 0;#P connect 28 1 9 0;#P connect 3 0 15 1;#P connect 15 2 3 0;#P connect 10 0 9 1;#P connect 9 1 7 0;#P fasten 11 0 16 0 472 112 461 112 461 33 472 33;#P connect 16 0 11 0;#P hidden fasten 21 0 20 0 472 200 461 200 461 140 472 140;#P hidden connect 20 0 21 0;#P fasten 26 0 25 0 472 297 459 297 459 230 472 230;#P connect 25 0 26 0;#P fasten 9 0 22 0 261 354 472 354;#P fasten 23 0 22 0 472 429 464 429 464 371 472 371;#P connect 22 0 23 0;#P pop;