max v2;
#N vpatcher 274 99 1268 773;
#P origin -124 -202;
#P window setfont "Sans Serif" 9.;
#P window linecount 1;
#P message 392 519 332 9109513 types aPcs \, prefix "C:/Program Files/Steinberg/Vstplugins" \, depth 5 \, populate;
#P user ubumenu 392 544 100 9109513 0 1 1 0;
#X add Hipno/Amogwai.dll;
#X add Hipno/Brita.dll;
#X add Hipno/Bus.Envelope.dll;
#X add Hipno/Bus.Receive.dll;
#X add Hipno/Bus.Send.dll;
#X add Hipno/Bus.Xover.dll;
#X add Hipno/ChannelStrip.dll;
#X add Hipno/Chazoohm.dll;
#X add Hipno/CrackVerb.dll;
#X add Hipno/Deluge.dll;
#X add Hipno/DrunkenSailor.dll;
#X add Hipno/GoMoDo.dll;
#X add Hipno/GrainBandit.dll;
#X add Hipno/GrainStream.dll;
#X add Hipno/Greequaincer.dll;
#X add Hipno/Invertonudge.dll;
#X add Hipno/LiquiDigital.dll;
#X add Hipno/LoopDeeLa.dll;
#X add Hipno/MasterNeedle.dll;
#X add Hipno/Modulator.Gen.dll;
#X add Hipno/Modulator.Human.dll;
#X add Hipno/Modulator.Remap.dll;
#X add Hipno/Modulator.VColorTrack.dll;
#X add Hipno/Modulator.VMotion.dll;
#X add Hipno/Modulator.VScene.dll;
#X add Hipno/Morphulescence.dll;
#X add Hipno/Multilution.dll;
#X add Hipno/RTAQ.dll;
#X add Hipno/Sbinulator.dll;
#X add Hipno/Sffizzlerr.dll;
#X add Hipno/SfylterBank.dll;
#X add Hipno/SfylterSynth.dll;
#X add Hipno/Shypht.dll;
#X add Hipno/Spuntorrt.dll;
#X add Hipno/Squeegee.dll;
#X add Hipno/SquiglyQ.dll;
#X add Hipno/Substrate.dll;
#X add Hipno/Technifly.dll;
#X add Hipno/Technishypht.dll;
#X add Hipno/VAirTime.dll;
#X add Hipno/VDelay.dll;
#X add Hipno/VSynth.dll;
#X add Hipno/VTheremin.dll;
#X add MODE/mode.bang-ana.dll;
#X add MODE/mode.bang-delay.dll;
#X add MODE/mode.bang-filtdist.dll;
#X add MODE/mode.bang-fm.dll;
#X add MODE/mode.bang-samp.dll;
#X add MODE/mode.bang.dll;
#X add MODE/mode.mono-arp.dll;
#X add MODE/mode.mono-delay.dll;
#X add MODE/mode.mono-distfilt.dll;
#X add MODE/mode.mono-mini.dll;
#X add MODE/mode.mono.dll;
#X add MODE/mode.poly-chorus.dll;
#X add MODE/mode.poly-lfo.dll;
#X add MODE/mode.poly-mini.dll;
#X add MODE/mode.poly.dll;
#X add MODE/mode.spin-delay.dll;
#X add MODE/mode.spin-dist.dll;
#X add MODE/mode.spin-filter.dll;
#X add MODE/mode.spin-pan.dll;
#X add MODE/mode.spin-seq.dll;
#X add MODE/mode.spin.dll;
#X add MODE/mode.wash-1chan.dll;
#X add MODE/mode.wash.dll;
#X add "Pluggo/additive heaven.dll";
#X add "Pluggo/analogue drums.dll";
#X add "Pluggo/analogue percussion.dll";
#X add "Pluggo/Audio Rate Pan.dll";
#X add Pluggo/Audio2Control.dll;
#X add "Pluggo/Average Injector.dll";
#X add Pluggo/bassline.dll;
#X add Pluggo/beatN.dll;
#X add "Pluggo/big ben bell.dll";
#X add Pluggo/Breakpoints.dll;
#X add "Pluggo/Center Channel.dll";
#X add Pluggo/Chamberverb.dll;
#X add "Pluggo/Chorus x2.dll";
#X add Pluggo/Comber.dll;
#X add Pluggo/Control2Audio.dll;
#X add Pluggo/Convolver.dll;
#X add Pluggo/Cyclotron.dll;
#X add Pluggo/D-meter.dll;
#X add "Pluggo/deep bass.dll";
#X add Pluggo/degrader.dll;
#X add Pluggo/Dynamical.dll;
#X add "Pluggo/easy sampler.dll";
#X add "Pluggo/Env Follower.dll";
#X add "Pluggo/Feedback Network.dll";
#X add "Pluggo/filtered drums.dll";
#X add Pluggo/FilterTaps.dll;
#X add Pluggo/Flange-o-tron.dll;
#X add "Pluggo/flying waves.dll";
#X add "Pluggo/fm 4-op.dll";
#X add Pluggo/Fragulator.dll;
#X add "Pluggo/Frequency Shift.dll";
#X add "Pluggo/Generic Effect.dll";
#X add Pluggo/Granular-to-Go.dll;
#X add "Pluggo/harmonic dreamz.dll";
#X add "Pluggo/Harmonic Filter.dll";
#X add "Pluggo/HF Ring Mod.dll";
#X add Pluggo/Jet.dll;
#X add "Pluggo/Key Triggers.dll";
#X add Pluggo/KnaveStories.dll;
#X add Pluggo/Laverne.dll;
#X add Pluggo/LFO.dll;
#X add "Pluggo/Light Organ.dll";
#X add Pluggo/Limi.dll;
#X add "Pluggo/lofi drums.dll";
#X add Pluggo/LongStereoDelay.dll;
#X add Pluggo/M2M.dll;
#X add "Pluggo/Mangle Filter.dll";
#X add Pluggo/Monstercrunch.dll;
#X add "Pluggo/Mouse Mod.dll";
#X add "Pluggo/Moving Filters.dll";
#X add "Pluggo/moving waves.dll";
#X add Pluggo/Multi-Filter.dll;
#X add Pluggo/Multi-Filter[S].dll;
#X add Pluggo/Nebula.dll;
#X add Pluggo/Noyzckippr.dll;
#X add Pluggo/OneByEight.dll;
#X add Pluggo/Pendulum.dll;
#X add Pluggo/pgs-1.dll;
#X add "Pluggo/Phase Scope.dll";
#X add "Pluggo/Phase Shifter.dll";
#X add "Pluggo/Phone Filter.dll";
#X add "Pluggo/PluggoBus Rcv.dll";
#X add "Pluggo/PluggoBus Send.dll";
#X add Pluggo/PluggoFuzz.dll;
#X add Pluggo/PluggoSync.dll;
#X add Pluggo/PlugLogic.dll;
#X add Pluggo/PlugLoop.dll;
#X add Pluggo/qsynth.dll;
#X add "Pluggo/quick drums.dll";
#X add Pluggo/Raindrops.dll;
#X add Pluggo/Randomizer.dll;
#X add Pluggo/Resonation.dll;
#X add Pluggo/Resosweep.dll;
#X add "Pluggo/Ring Modulator.dll";
#X add "Pluggo/Rough Reverb.dll";
#X add Pluggo/Rye.dll;
#X add "Pluggo/shape synth.dll";
#X add Pluggo/ShepardTones.dll;
#X add Pluggo/Shuffler.dll;
#X add "Pluggo/Sine Bank.dll";
#X add "Pluggo/Sizzle Delays.dll";
#X add Pluggo/Slice-n-Dice.dll;
#X add "Pluggo/Space Echo.dll";
#X add "Pluggo/Spectral Filter.dll";
#X add "Pluggo/Speed Shifter.dll";
#X add Pluggo/SquirrelParade.dll;
#X add "Pluggo/Step Sequencer.dll";
#X add "Pluggo/Stereo Adjuster.dll";
#X add "Pluggo/Stereo Faker.dll";
#X add Pluggo/Stutterer.dll;
#X add Pluggo/Swirl.dll;
#X add Pluggo/Swish.dll;
#X add Pluggo/TapNet.dll;
#X add "Pluggo/Tapped Delay.dll";
#X add Pluggo/Tremellow.dll;
#X add "Pluggo/Very Long Delay.dll";
#X add "Pluggo/Vibrato Cauldron.dll";
#X add Pluggo/vocalese.dll;
#X add "Pluggo/Vocoder 10-band.dll";
#X add "Pluggo/Vocoder 16-band.dll";
#X add Pluggo/Warble.dll;
#X add Pluggo/Warpoon.dll;
#X add Pluggo/Wasteband.dll;
#X add Pluggo/Waveshaper.dll;
#X add "Pluggo/wavy waves.dll";
#X add Pluggo/Wheat.dll;
#X add "Pluggo/white grains.dll";
#X add Pluggo/Xformer.dll;
#X add "Pluggo/xmod synth.dll";
#X add VoxengoAFChorus.dll;
#X add VoxengoAFDelay.dll;
#X add VoxengoAFImpulse.dll;
#X add VoxengoAFInsert.dll;
#X add VoxengoAFTapeBus.dll;
#X add VoxengoCrunchessor.dll;
#X add VoxengoCurveEQ.dll;
#X add VoxengoElephant2.dll;
#X add VoxengoGlissEQ2.dll;
#X add VoxengoHarmoniEQ.dll;
#X add VoxengoLampthruster.dll;
#X add VoxengoPHA979.dll;
#X add VoxengoPolysquasher.dll;
#X add VoxengoPristineSpace.dll;
#X add VoxengoRedunoise.dll;
#X add VoxengoSoniformer2.dll;
#X add VoxengoTransmodder.dll;
#X add VoxengoVMod.dll;
#X add VoxengoVoxformer.dll;
#X add VoxengoWarmifier.dll;
#X types aPcs;
#X prefix_set 0 0 "C:/Program Files/Steinberg/Vstplugins/" 5;
#X pattrmode 1;
#P newex 392 494 57 9109513 sel windows;
#P message 466 488 50 9109513 windows;
#P newex 466 466 61 9109513 prepend set;
#P newex 392 469 42 9109513 route os;
#P newex 392 444 124 9109513 js jcom.js_systeminfo.js;
#P newex 299 448 32 9109513 print;
#P message 576 121 237 9109513 "Early Mac Audio";
#P newex 572 90 62 9109513 prepend set;
#P newex 198 423 84 9109513 r $0_pgm_menu;
#P newex 440 243 68 9109513 pvar VstPlug;
#P window linecount 3;
#P newex 440 263 288 9109513 jcom.message vst/plug @type msg_generic @description "Load a VST effect.  An optional argument define what VST plug-in to open. The plug-in has to be in the Max search path.";
#P user jsui 207 43 46 19 1 0 0 jsui_textbutton.js Plug;
#P objectname VstPlug;
#P user jsui 207 63 46 19 1 0 0 jsui_textbutton.js Open;
#P objectname VstOpen;
#P window linecount 1;
#P newex 440 167 70 9109513 pvar VstOpen;
#P window linecount 3;
#P newex 440 187 357 9109513 jcom.message vst/open @type msg_generic @description "Open the plug-in's edit window. Two optional integer values specifying the left and top window coordinates respectively";
#P window linecount 1;
#N vpatcher 398 65 1412 739;
#P origin 4 36;
#P window setfont "Sans Serif" 9.;
#P window linecount 0;
#N vpatcher 10 59 610 459;
#P window setfont "Sans Serif" 9.;
#P newex 50 187 180 9109513 sprintf script send parameter/%s %f;
#P newex 51 130 57 9109513 unpack 0 s;
#N coll $0_params 1;
#P newobj 51 107 90 9109513 coll $0_params 1;
#P newex 51 84 179 9109513 unpack 0 0.;
#P inlet 51 30 15 0;
#P outlet 50 257 15 0;
#P fasten 4 1 5 0 103 154 55 154;
#P connect 5 0 0 0;
#P connect 1 0 2 0;
#P connect 2 0 3 0;
#P connect 3 0 4 0;
#P connect 2 1 5 1;
#P pop;
#P hidden newobj 858 120 67 9109513 p set_values;
#P hidden inlet 858 37 15 0;
#N vpatcher 10 59 610 459;
#P window setfont "Sans Serif" 9.;
#P newex 300 138 169 9109513 sprintf script delete textslider/%s;
#P newex 82 104 51 9109513 zl slice 1;
#P newex 123 138 171 9109513 sprintf script delete parameter/%s;
#N coll $0_params 1;
#P newobj 82 80 90 9109513 coll $0_params 1;
#P newex 50 50 75 9109513 t 1 clear dump;
#P inlet 50 30 15 0;
#P outlet 123 186 15 0;
#P outlet 50 186 15 0;
#P connect 2 0 3 0;
#P connect 3 0 0 0;
#P connect 3 1 4 0;
#P connect 3 2 4 0;
#P connect 4 0 6 0;
#P connect 6 1 5 0;
#P connect 7 0 1 0;
#P connect 5 0 1 0;
#P connect 6 1 7 0;
#P pop;
#P hidden newobj 776 120 64 9109513 p delete_old;
#P window linecount 1;
#P hidden newex 682 94 93 9109513 route append clear;
#P hidden inlet 682 37 15 0;
#P hidden inlet 934 37 15 0;
#P hidden newex 934 135 40 9109513 t front;
#P hidden newex 934 114 32 9109513 sel 1;
#P hidden newex 934 93 151 9109513 jcom.oscroute /open_inspector;
#P hidden newex 934 234 88 9109513 bgcolor 24 24 24;
#N vpatcher 20 74 1034 535;
#P window setfont "Sans Serif" 9.;
#P newex 14 103 50 9109513 deferlow;
#P newex 14 167 115 9109513 s $0_get_param_value;
#P window linecount 1;
#P message 14 134 39 9109513 get \$1;
#P window linecount 0;
#P message 165 61 37 9109513 \$3 \$1;
#P window linecount 1;
#P newex 165 87 57 9109513 unpack s 0;
#P newex 942 188 81 9109513 scale 1 2 23 38;
#P window linecount 0;
#P newex 622 188 81 9109513 scale 1 2 23 38;
#P window linecount 3;
#P newex 312 220 126 9109513 sprintf script hidden connect textslider/%s 0 parameter/%s 0;
#P newex 165 220 126 9109513 sprintf script hidden connect parameter/%s 0 textslider/%s 0;
#P inlet 165 34 15 0;
#P outlet 165 289 15 0;
#P window linecount 2;
#P newex 832 220 231 9109513 sprintf script new textslider/%s bpatcher 5 %ld 150 14 0 0 jcom.textslider.mxt 0 @text %s;
#P window linecount 3;
#P newex 457 220 353 9109513 sprintf script hidden new parameter/%s newex 175 %ld 341 196617 jcom.parameter parameter/%s @type msg_float @range 0. 1. @clipmode both @ramp linear.sched @description "Nth parameter of the VST plugin.";
#P window linecount 0;
#P comment 400 307 296 9109513 Have to keep track of the names of all parameters in order to properly delete jcom.paramter instances when the vst is freed.;
#P connect 4 0 13 0;
#P connect 13 0 11 0;
#P connect 11 0 12 0;
#P connect 4 0 10 0;
#P connect 10 0 9 0;
#P connect 9 0 5 0;
#P fasten 2 0 3 0 837 275 170 275;
#P connect 5 0 3 0;
#P fasten 6 0 3 0 317 275 170 275;
#P fasten 1 0 3 0 462 275 170 275;
#P fasten 9 0 5 1 170 164 286 164;
#P fasten 9 0 6 0 170 164 317 164;
#P fasten 9 0 6 1 170 164 433 164;
#P fasten 9 0 1 0 170 164 462 164;
#P fasten 9 1 7 0 217 142 627 142;
#P connect 7 0 1 1;
#P fasten 9 0 1 2 170 164 804 164;
#P fasten 9 0 2 0 170 164 837 164;
#P fasten 9 1 8 0 217 142 947 142;
#P connect 8 0 2 1;
#P fasten 9 0 2 2 170 164 1057 164;
#P pop;
#P hidden newobj 682 198 124 9109513 p create_new_parameter;
#N thispatcher;
#Q end;
#P hidden newobj 682 234 61 9109513 thispatcher;
#P hidden newex 682 172 84 9109513 pack 0 0 s;
#N coll $0_params 1;
#P hidden newobj 749 234 90 9109513 coll $0_params 1;
#P hidden newex 682 120 84 9109513 t b s;
#N counter;
#X flags 0 0;
#P hidden newobj 682 146 66 9109513 counter;
#P hidden connect 11 0 12 0;
#P hidden connect 12 0 1 0;
#P hidden connect 1 0 0 0;
#P hidden connect 0 0 3 0;
#P hidden connect 3 0 5 0;
#P hidden connect 5 0 4 0;
#P hidden fasten 13 1 4 0 835 222 687 222;
#P hidden fasten 9 0 4 0 939 222 687 222;
#P hidden fasten 15 0 4 0 863 222 687 222;
#P hidden connect 13 0 0 2;
#P hidden connect 0 0 3 1;
#P hidden connect 3 0 2 0;
#P hidden connect 1 1 3 2;
#P hidden connect 12 1 13 0;
#P hidden connect 14 0 15 0;
#P hidden connect 10 0 7 0;
#P hidden connect 7 0 8 0;
#P hidden connect 8 0 9 0;
#P pop;
#P newobj 394 408 60 9109513 p inspector;
#P objectname parameters;
#P user ubumenu 130 25 123 9109513 0 1 1 0;
#X add "16 Bits";
#X add "12 Bits";
#X add "8 Bits";
#X add "4 Bits";
#X add 22kHz;
#X add 11kHz;
#X add 5.5kHz;
#X add "Early Mac Audio";
#X add "Current Mac Audio";
#X add "Current PC Audio :-)";
#X prefix_set 0 0 <none> 0;
#X pattrmode 1;
#P objectname Programs;
#P newex 198 446 87 9109513 pvar Programs 2;
#P comment 8 28 105 9109513 VST Program names;
#B frgb 149 149 149;
#P newex 394 343 47 9109513 pcontrol;
#P newex 261 321 143 9109513 jcom.algorithm_control~.mxt;
#P message 121 160 191 9109513 /preset/store 1 default \, /preset/write;
#B color 3;
#P newex 121 547 66 9109513 jcom.out~ 2;
#P newex 149 296 180 9109513 jcom.in~ 2;
#P message 129 182 125 9109513 /documentation/generate;
#B color 3;
#P window linecount 2;
#P message 26 424 65 9109513 \; max refresh;
#P window linecount 1;
#P newex 439 103 87 9109513 pvar Programs 2;
#P window linecount 2;
#P newex 31 216 312 9109513 jcom.hub jmod.vst~ @size 2U-half @module_type audio @inspector 1 @description "A Jamoma module wrapper for vst plug-ins.";
#P objectname jcom.hub;
#P window linecount 1;
#P comment 45 183 79 9109513 command input;
#P inlet 31 183 13 0;
#P message 260 182 31 9109513 /init;
#P inlet 149 267 13 0;
#P outlet 121 576 13 0;
#P newex 439 136 406 9109513 jcom.parameter vst/program @ramp none @repetitions 1 @description "VST program.";
#P objectname vst/program;
#P inlet 319 269 13 0;
#P newex 93 372 122 9109513 jalg.vst~.mxt $0_;
#P comment 185 268 105 9109513 ----signal inputs----;
#P outlet 31 259 13 0;
#P outlet 149 576 13 0;
#P comment 94 594 101 9109513 ---signal outputs---;
#P bpatcher 1 0 255 120 0 0 jcom.gui.mxt 0 $0_;
#P objectname jmod.gui.1Uh.a.stereo.mxt;
#P fasten 10 0 13 0 265 204 36 204;
#P fasten 16 0 13 0 134 203 36 203;
#P connect 11 0 13 0;
#P fasten 19 0 13 0 126 203 36 203;
#P connect 13 0 3 0;
#P fasten 21 0 5 0 399 365 98 365;
#P fasten 20 0 5 0 266 365 98 365;
#P connect 5 1 18 0;
#P connect 18 0 8 0;
#P connect 9 0 17 0;
#P connect 17 0 5 1;
#P connect 18 1 2 0;
#P fasten 5 2 18 1 154 535 182 535;
#P connect 32 0 23 0;
#P connect 17 1 5 2;
#P connect 17 2 20 0;
#P connect 32 0 35 0;
#P connect 6 0 17 1;
#P connect 36 0 37 0;
#P connect 37 0 40 0;
#P connect 40 0 42 0;
#P connect 42 0 41 0;
#P connect 20 1 21 0;
#P fasten 5 3 25 0 182 401 399 401;
#P fasten 5 4 25 1 210 394 424 394;
#P fasten 14 1 7 0 521 128 444 128;
#P connect 27 0 26 0;
#P connect 31 0 30 0;
#P fasten 17 2 25 2 266 317 449 317;
#P connect 37 0 38 0;
#P connect 38 0 39 0;
#P connect 14 1 33 0;
#P connect 33 0 34 0;
#P pop;
