max v2;#N vpatcher 261 59 873 677;#P window setfont "Sans Serif" 9.;#P hidden newex 73 426 138 196617 jcom.out~ 2;#P hidden newex 73 324 162 196617 jcom.in~ 2;#N vpatcher 100 100 400 200;#P window setfont "Sans Serif" 14.;#P window linecount 0;#P comment 23 47 168 196622 ablsoute maximum : 24;#B frgb 255 255 255;#P window setfont "Sans Serif" 9.;#P hidden newex 491 299 91 196617 s $0_max_voices;#P hidden newex 32 120 48 196617 loadbang;#P hidden message 28 92 214 196617 window size 100 100 400 200 \, window exec;#P hidden message 28 59 239 196617 window flags nogrow \, savewindow 1 \, window exec;#P hidden message 28 75 158 196617 window flags grow \, window exec;#P window setfont "Sans Serif" 14.;#P comment 23 25 70 196622 maximum;#B frgb 255 255 255;#P window setfont "Sans Serif" 9.;#P window linecount 3;#P hidden newex 405 238 272 196617 jcom.parameter max_bands @type msg_int @repetitions 0 @ramp 0 @description "Maximum Number of bands of the filter";#P objectname max_bands;#P window linecount 1;#P hidden newex 405 215 88 196617 pvar max_voices;#P window linecount 0;#P hidden newex 456 364 88 196617 bgcolor 50 50 50;#P window setfont "Sans Serif" 14.;#P number 231 25 35 14 1 24 8259 3 255 255 255 221 221 221 222 222 222 0 0 0;#P objectname max_voices;#P window linecount 1;#P comment 92 25 140 196622 number of bands :;#B frgb 255 255 255;#P window setfont "Sans Serif" 9.;#P hidden newex 404 362 40 196617 sel 1;#N thispatcher;#Q window flags nogrow close zoom nofloat;#Q window size 100 100 400 200;#Q window title;#Q window exec;#Q savewindow 1;#Q end;#P hidden newobj 404 402 69 196617 thispatcher;#P hidden newex 404 382 40 196617 t front;#P hidden newex 404 340 151 196617 jcom.oscroute /open_inspector;#P hidden inlet 404 319 15 0;#P hidden connect 14 0 12 0;#P hidden connect 14 0 13 0;#P hidden connect 0 0 1 0;#P hidden connect 1 0 4 0;#P hidden connect 4 0 2 0;#P hidden connect 2 0 3 0;#P hidden connect 12 0 3 0;#P hidden connect 11 0 3 0;#P hidden connect 13 0 3 0;#P hidden fasten 9 0 8 0 410 297 397 297 397 200 410 200;#P hidden connect 8 0 9 0;#P hidden fasten 9 1 15 0 541 295 496 295;#P pop;#P hidden newobj 173 352 125 196617 p multi_filter~_inspector;#P objectname multi_filter~_inspector;#P hidden newex 188 179 67 196617 prepend max;#P hidden newex 164 152 91 196617 r $0_max_voices;#P hidden newex 165 258 57 196617 pvar mode;#P hidden newex 308 352 58 196617 pvar filter;#P hidden newex 181 228 82 196617 prepend nfilters;#P window linecount 2;#P hidden newex 292 155 240 196617 jcom.parameter bands @type msg_int @repetitions 0 @description "Number of bands of the filter";#P objectname bands;#P window linecount 1;#P hidden newex 292 132 63 196617 pvar voices;#P comment 127 22 62 196617 | filter type;#B frgb 255 255 255;#P hidden newex 181 205 63 196617 pvar voices;#P number 88 21 35 9 1 5 8259 3 255 255 255 221 221 221 222 222 222 0 0 0;#P objectname voices;#P hidden newex 64 258 58 196617 pvar filter;#P hidden newex 268 4 207 196617 r $0_xxx_to_filtergraph;#P hidden newex 273 75 58 196617 pvar filter;#P window linecount 2;#P hidden newex 273 38 266 196617 jcom.message filtergraph @description "Messages to filtergraph. See the MSP reference for further details";#P window linecount 1;#P hidden newex 58 179 96 196617 pvar mode 2;#N vpatcher 70 236 722 634;#P window setfont "Sans Serif" 9.;#P newex 454 221 64 196617 t b i;#P newex 508 242 76 196617 prepend target;#P newex 94 243 76 196617 prepend target;#P newex 178 239 30 196617 t s b;#P newex 146 220 27 196617 i;#P number 29 55 35 9 0 0 64 3 0 0 0 221 221 221 222 222 222 0 0 0;#P inlet 254 72 15 0;#P newex 454 291 58 196617 prepend set;#P newex 454 191 36 196617 t i i;#P newex 254 94 39 196617 t $0_ i;#P newex 283 175 76 196617 prepend voices;#P number 482 171 35 9 0 0 0 3 0 0 0 221 221 221 222 222 222 0 0 0;#P newex 454 171 21 196617 r;#P newex 454 149 133 196617 sprintf set %sfilter_active;#P newex 354 228 76 196617 prepend target;#P newex 254 125 211 196617 t s 0 s;#P outlet 454 313 15 0;#P outlet 40 296 15 0;#P newex 142 136 27 196617 + 1;#P newex 29 100 54 196617 jcom.thru;#P message 29 76 45 196617 open \$1;#P newex 40 270 424 196617 poly~ jalg.filter_params.mxt 0;#P objectname jalg.filter_params.mxt;#P newex 142 159 76 196617 prepend target;#P newex 40 158 78 196617 pack 0. 0. 0.;#P inlet 178 220 15 0;#P inlet 142 113 15 0;#P inlet 108 139 15 0;#P inlet 74 139 15 0;#P inlet 40 139 15 0;#P connect 23 0 8 0;#P connect 8 0 9 0;#P connect 0 0 5 0;#P fasten 27 0 7 0 513 264 45 264;#P fasten 9 0 7 0 34 201 45 201;#P fasten 18 0 7 0 288 212 45 212;#P connect 5 0 7 0;#P fasten 6 0 7 0 147 189 45 189;#P fasten 26 0 7 0 99 264 45 264;#P connect 7 0 11 0;#P connect 1 0 5 1;#P fasten 24 0 26 0 151 240 99 240;#P connect 2 0 5 2;#P connect 3 0 10 0;#P connect 10 0 6 0;#P connect 25 1 24 0;#P fasten 20 1 24 1 485 215 168 215;#P connect 4 0 25 0;#P fasten 25 0 7 1 183 263 183 263;#P connect 22 0 19 0;#P fasten 19 0 13 0 259 117 259 117;#P connect 19 1 18 0;#P fasten 13 0 7 2 259 232 321 232;#P fasten 14 0 7 2 359 250 321 250;#P connect 13 1 14 0;#P connect 13 2 15 0;#P connect 15 0 16 0;#P connect 16 0 20 0;#P connect 20 0 28 0;#P fasten 27 0 7 3 513 264 459 264;#P connect 28 0 7 3;#P connect 7 1 21 0;#P connect 21 0 12 0;#P connect 16 0 17 0;#P connect 28 1 27 0;#P pop;#P hidden newobj 64 228 111 196617 p filter;#P objectname filter_params;#P hidden newex 64 203 77 196617 pvar filter 7;#P window setfont "Sans Serif" 10.;#P user ubumenu 190 20 60 196618 0 0 1 0;#X setrgb 221 231 246 131 140 161 56 59 132 5 0 176 212 13 8 73 126 187;#X add lowpass;#X add highpass;#X add bandpass;#X add bandstop;#X add peaknotch;#X add lowshelf;#X add highshelf;#X prefix_set 0 0 <none> 0;#X pattrmode 1;#P objectname mode;#P window setfont "Sans Serif" 9.;#P user filtergraph~ 1 39 251 79 3 9 20. 22050. 0.0625 16. 1 1 1 0 0 1 1;#X frgb 221 231 246;#X brgb 131 140 161;#X rgb2 5 0 176;#X rgb3 212 13 8;#X rgb4 73 126 187;#X rgb5 76 108 172;#X rgb6 183 123 115;#X rgb7 191 44 41;#X linmarkers 5512.5 11025. 16537.5;#X logmarkers 10. 100. 1000. 10000.;#X nfilters 5;#X setfilter 4 5 1 0 0 202.5 0.999016 2.5 0. 0. 0. 0. 0. 0.;#X setfilter 3 5 1 0 0 864.820312 1.271655 1.804277 0. 0. 0. 0. 0. 0.;#X setfilter 2 5 1 0 0 2845.886719 1.104631 1.804277 0. 0. 0. 0. 0. 0.;#X setfilter 1 5 1 0 0 55.450409 0.585935 1.804277 0. 0. 0. 0. 0. 0.;#X setfilter 0 5 1 0 0 202.5 0.999016 2.5 0. 0. 0. 0. 0. 0.;#X done;#P objectname filter;#P comment 2 22 94 196617 number of bands :;#B frgb 255 255 255;#P hidden message 150 513 125 196617 /documentation/generate;#P window linecount 2;#P hidden message 338 540 65 196617 \; max refresh;#P hidden newex 54 537 278 196617 jcom.hub jmod.equalizer~ @size 2U-half @module_type audio @inspector 1 @description "Multi-band filter";#P objectname jcom.hub;#P window linecount 1;#P hidden comment 68 513 79 196617 command input;#P hidden inlet 54 513 13 0;#P hidden message 277 513 37 196617 /init;#P hidden inlet 73 305 13 0;#P hidden outlet 73 454 13 0;#P hidden inlet 225 305 13 0;#P hidden newex 73 398 138 196617 poly~ jalg.multi_filter~.mxt;#P hidden comment 112 304 113 196617 ----signal inputs----;#P hidden outlet 54 574 13 0;#P hidden outlet 136 454 13 0;#P hidden comment 73 468 108 196617 ---signal outputs---;#P bpatcher 0 0 253 123 0 0 jcom.gui.mxt 0;#P objectname jcom.gui.1Uh.a.stereo.mxt;#P hidden connect 10 0 12 0;#P hidden fasten 14 0 12 0 155 531 59 531;#P hidden fasten 9 0 12 0 282 533 59 533;#P hidden connect 12 0 3 0;#P hidden connect 18 1 19 0;#P hidden fasten 30 0 24 0 186 250 69 250;#P hidden connect 19 0 24 0;#P hidden connect 8 0 36 0;#P hidden connect 36 2 5 0;#P hidden connect 36 0 5 0;#P hidden connect 5 0 37 0;#P hidden connect 37 0 7 0;#P hidden connect 18 2 19 1;#P hidden connect 18 3 19 2;#P hidden connect 18 6 19 3;#P hidden connect 37 1 2 0;#P hidden connect 20 1 19 4;#P hidden connect 33 0 19 5;#P hidden connect 19 1 32 0;#P hidden fasten 23 0 16 5 273 29 176 29;#P hidden connect 36 2 35 0;#P hidden connect 33 0 26 0;#P hidden connect 34 0 26 0;#P hidden fasten 29 1 30 0 412 225 186 225;#P hidden connect 26 0 30 0;#P hidden connect 33 0 34 0;#P lcolor 6;#P hidden connect 36 1 5 1;#P hidden fasten 31 0 5 1 313 389 206 389;#P hidden connect 5 1 37 1;#P hidden connect 6 0 36 1;#P hidden connect 21 0 22 0;#P hidden fasten 29 0 28 0 297 192 287 192 287 125 297 125;#P hidden connect 28 0 29 0;#P pop;