max v2;#N vpatcher 107 197 1101 976;#P origin -124 -202;#P window setfont "Sans Serif" 9.;#P window linecount 1;#P newex 299 448 32 196617 print;#P message 576 121 237 196617 "Early Mac Audio";#P newex 572 90 62 196617 prepend set;#P newex 198 423 84 196617 r $0_pgm_menu;#P newex 440 243 68 196617 pvar VstPlug;#P window linecount 3;#P newex 440 263 288 196617 jcom.message vst/plug @type msg_generic @description "Load a VST effect.  An optional argument define what VST plug-in to open. The plug-in has to be in the Max search path.";#P user jsui 207 43 46 19 1 0 0 jsui_textbutton.js Plug;#P objectname VstPlug;#P user jsui 207 63 46 19 1 0 0 jsui_textbutton.js Open;#P objectname VstOpen;#P window linecount 1;#P newex 440 167 70 196617 pvar VstOpen;#P window linecount 3;#P newex 440 187 357 196617 jcom.message vst/open @type msg_generic @description "Open the plug-in's edit window. Two optional integer values specifying the left and top window coordinates respectively";#P window linecount 1;#N vpatcher 398 65 1530 775;#P origin 4 36;#P window setfont "Sans Serif" 9.;#N vpatcher 10 59 610 459;#P window setfont "Sans Serif" 9.;#P newex 50 187 180 196617 sprintf script send parameter/%s %f;#P newex 51 130 57 196617 unpack 0 s;#N coll $0_params 1;#P newobj 51 107 90 196617 coll $0_params 1;#P newex 51 84 179 196617 unpack 0 0.;#P inlet 51 30 15 0;#P outlet 50 257 15 0;#P fasten 4 1 5 0 103 154 55 154;#P connect 5 0 0 0;#P connect 1 0 2 0;#P connect 2 0 3 0;#P connect 3 0 4 0;#P connect 2 1 5 1;#P pop;#P hidden newobj 858 120 67 196617 p set_values;#P hidden inlet 858 37 15 0;#N vpatcher 10 59 610 459;#P window setfont "Sans Serif" 9.;#P newex 300 138 169 196617 sprintf script delete textslider/%s;#P newex 82 104 51 196617 zl slice 1;#P newex 123 138 171 196617 sprintf script delete parameter/%s;#N coll $0_params 1;#P newobj 82 80 90 196617 coll $0_params 1;#P newex 50 50 75 196617 t 1 clear dump;#P inlet 50 30 15 0;#P outlet 123 186 15 0;#P outlet 50 186 15 0;#P connect 2 0 3 0;#P connect 3 0 0 0;#P connect 3 2 4 0;#P connect 3 1 4 0;#P connect 4 0 6 0;#P connect 6 1 5 0;#P connect 5 0 1 0;#P connect 7 0 1 0;#P connect 6 1 7 0;#P pop;#P hidden newobj 776 120 64 196617 p delete_old;#P window linecount 1;#P hidden newex 682 94 93 196617 route append clear;#P hidden inlet 682 37 15 0;#P hidden inlet 934 37 15 0;#P hidden newex 934 135 40 196617 t front;#P hidden newex 934 114 32 196617 sel 1;#P hidden newex 934 93 151 196617 jcom.oscroute /open_inspector;#P hidden newex 934 234 88 196617 bgcolor 24 24 24;#N vpatcher 20 74 1115 535;#P window setfont "Sans Serif" 9.;#P newex 14 103 50 196617 deferlow;#P newex 14 167 115 196617 s $0_get_param_value;#P window linecount 1;#P message 14 134 39 196617 get \$1;#P window linecount 0;#P message 165 61 37 196617 \$3 \$1;#P window linecount 1;#P newex 165 87 57 196617 unpack s 0;#P newex 942 188 81 196617 scale 1 2 23 38;#P window linecount 0;#P newex 622 188 81 196617 scale 1 2 23 38;#P window linecount 3;#P newex 312 220 126 196617 sprintf script hidden connect textslider/%s 0 parameter/%s 0;#P newex 165 220 126 196617 sprintf script hidden connect parameter/%s 0 textslider/%s 0;#P inlet 165 34 15 0;#P outlet 165 289 15 0;#P window linecount 2;#P newex 832 220 231 196617 sprintf script new textslider/%s bpatcher 5 %ld 150 14 0 0 jcom.textslider.mxt 0 @text %s;#P window linecount 3;#P newex 457 220 353 196617 sprintf script hidden new parameter/%s newex 175 %ld 341 196617 jcom.parameter parameter/%s @type msg_float @range 0. 1. @clipmode both @ramp linear.sched @description "Nth parameter of the VST plugin.";#P window linecount 0;#P comment 400 307 296 196617 Have to keep track of the names of all parameters in order to properly delete jcom.paramter instances when the vst is freed.;#P connect 4 0 13 0;#P connect 13 0 11 0;#P connect 11 0 12 0;#P connect 4 0 10 0;#P connect 10 0 9 0;#P connect 9 0 5 0;#P fasten 1 0 3 0 462 275 170 275;#P fasten 6 0 3 0 317 275 170 275;#P connect 5 0 3 0;#P fasten 2 0 3 0 837 275 170 275;#P fasten 9 0 5 1 170 164 286 164;#P fasten 9 0 6 0 170 164 317 164;#P fasten 9 0 6 1 170 164 433 164;#P fasten 9 0 1 0 170 164 462 164;#P fasten 9 1 7 0 217 142 627 142;#P connect 7 0 1 1;#P fasten 9 0 1 2 170 164 804 164;#P fasten 9 0 2 0 170 164 837 164;#P fasten 9 1 8 0 217 142 947 142;#P connect 8 0 2 1;#P fasten 9 0 2 2 170 164 1057 164;#P pop;#P hidden newobj 682 198 124 196617 p create_new_parameter;#N thispatcher;#Q end;#P hidden newobj 682 234 61 196617 thispatcher;#P hidden newex 682 172 84 196617 pack 0 0 s;#N coll $0_params 1;#P hidden newobj 749 234 90 196617 coll $0_params 1;#P hidden newex 682 120 84 196617 t b s;#N counter;#X flags 0 0;#P hidden newobj 682 146 66 196617 counter;#P hidden connect 11 0 12 0;#P hidden connect 12 0 1 0;#P hidden connect 1 0 0 0;#P hidden connect 0 0 3 0;#P hidden connect 3 0 5 0;#P hidden fasten 15 0 4 0 863 222 687 222;#P hidden fasten 9 0 4 0 939 222 687 222;#P hidden fasten 13 1 4 0 835 222 687 222;#P hidden connect 5 0 4 0;#P hidden connect 13 0 0 2;#P hidden connect 0 0 3 1;#P hidden connect 3 0 2 0;#P hidden connect 1 1 3 2;#P hidden connect 12 1 13 0;#P hidden connect 14 0 15 0;#P hidden connect 10 0 7 0;#P hidden connect 7 0 8 0;#P hidden connect 8 0 9 0;#P pop;#P newobj 394 408 60 196617 p inspector;#P objectname parameters;#P user ubumenu 130 25 123 196617 0 1 1 0;#X add "16 Bits";#X add "12 Bits";#X add "8 Bits";#X add "4 Bits";#X add 22kHz;#X add 11kHz;#X add 5.5kHz;#X add "Early Mac Audio";#X add "Current Mac Audio";#X add "Current PC Audio :-)";#X prefix_set 0 0 <none> 0;#P objectname Programs;#P newex 198 446 87 196617 pvar Programs 2;#P comment 8 28 105 196617 VST Program names;#B frgb 149 149 149;#P newex 394 343 47 196617 pcontrol;#P newex 261 321 143 196617 jcom.algorithm_control~.mxt;#P message 121 160 191 196617 /preset/store 1 default \, /preset/write;#B color 3;#P newex 121 547 66 196617 jcom.out~ 2;#P newex 149 296 180 196617 jcom.in~ 2;#P message 129 182 125 196617 /documentation/generate;#B color 3;#P window linecount 2;#P message 26 424 65 196617 \; max refresh;#P window linecount 1;#P newex 439 103 87 196617 pvar Programs 2;#P window linecount 2;#P newex 31 216 312 196617 jcom.hub jmod.vst~ @size 2U-half @module_type audio @inspector 1 @description "A Jamoma module wrapper for vst plug-ins.";#P objectname jcom.hub;#P window linecount 1;#P comment 45 183 79 196617 command input;#P inlet 31 183 13 0;#P message 260 182 31 196617 /init;#P inlet 149 267 13 0;#P outlet 121 576 13 0;#P newex 439 136 406 196617 jcom.parameter vst/program @ramp none @repetitions 1 @description "VST program.";#P objectname vst/program;#P inlet 319 269 13 0;#P newex 93 372 122 196617 jalg.vst~.mxt $0_;#P comment 185 268 105 196617 ----signal inputs----;#P outlet 31 259 13 0;#P outlet 149 576 13 0;#P comment 94 594 101 196617 ---signal outputs---;#P bpatcher 1 0 255 120 0 0 jcom.gui.mxt 0 $0_;#P objectname jmod.gui.1Uh.a.stereo.mxt;#P fasten 19 0 13 0 126 203 36 203;#P connect 11 0 13 0;#P fasten 16 0 13 0 134 203 36 203;#P fasten 10 0 13 0 265 204 36 204;#P connect 13 0 3 0;#P fasten 20 0 5 0 266 365 98 365;#P fasten 21 0 5 0 399 365 98 365;#P connect 5 1 18 0;#P connect 18 0 8 0;#P connect 9 0 17 0;#P connect 17 0 5 1;#P connect 18 1 2 0;#P fasten 5 2 18 1 154 535 182 535;#P connect 32 0 23 0;#P connect 17 1 5 2;#P connect 17 2 20 0;#P connect 32 0 35 0;#P connect 6 0 17 1;#P connect 20 1 21 0;#P fasten 5 3 25 0 182 401 399 401;#P fasten 5 4 25 1 210 394 424 394;#P fasten 14 1 7 0 521 128 444 128;#P connect 27 0 26 0;#P connect 31 0 30 0;#P fasten 17 2 25 2 266 317 449 317;#P connect 14 1 33 0;#P connect 33 0 34 0;#P pop;