max v2;#N vpatcher 50 88 1421 922;#P origin -124 -202;#P window setfont "Sans Serif" 9.;#P comment 10 27 57 196617 Plug-In:;#B frgb 149 149 149;#N vpatcher 20 74 490 392;#P window setfont "Sans Serif" 9.;#P newex 132 47 48 196617 loadbang;#P message 183 152 235 196617 re /Library/Audio/Plug-Ins/VST/ \, substitute " ";#P message 132 131 281 196617 re "C:/Program Files/Steinberg/Vstplugins" \, substitute " ";#P newex 132 110 113 196617 sel windows macintosh;#P newex 132 89 42 196617 route os;#P newex 132 68 124 196617 js jcom.js_systeminfo.js;#P newex 50 69 51 196617 route set;#P newex 50 229 51 196617 tosymbol;#P newex 50 255 62 196617 prepend set;#P newex 50 203 66 196617 regexp;#P inlet 50 49 15 0;#P outlet 50 277 15 0;#P connect 1 0 5 0;#P connect 10 0 2 0;#P connect 9 0 2 0;#P connect 5 0 2 0;#P connect 2 0 4 0;#P connect 4 0 3 0;#P connect 3 0 0 0;#P connect 11 0 6 0;#P connect 6 0 7 0;#P connect 7 0 8 0;#P connect 8 0 9 0;#P connect 8 1 10 0;#P pop;#P newobj 526 224 75 196617 p regex-magic;#N vpatcher 20 74 620 474;#P window setfont "Sans Serif" 9.;#P newex 50 50 48 196617 loadbang;#P message 101 155 345 196617 types BNDL aPcs \, prefix /Library/Audio/Plug-Ins/VST \, depth 5 \, populate;#P message 50 134 376 196617 types aPcs \, prefix "C:/Program Files/Steinberg/Vstplugins" \, depth 5 \, populate;#P newex 50 113 113 196617 sel windows macintosh;#P newex 50 92 42 196617 route os;#P newex 50 71 124 196617 js jcom.js_systeminfo.js;#P outlet 50 176 15 0;#P connect 6 0 1 0;#P connect 1 0 2 0;#P connect 2 0 3 0;#P connect 3 0 4 0;#P connect 5 0 0 0;#P connect 4 0 0 0;#P connect 3 1 5 0;#P pop;#P newobj 526 122 60 196617 p fill_menu;#P message 591 123 33 196617 clear;#P user ubumenu 63 24 188 196617 0 1 1 0;#X add "Audio Ease/Altiverb 6.vst";#X add Hipno/Amogwai.vst;#X add Hipno/Brita.vst;#X add Hipno/Bus.Envelope.vst;#X add Hipno/Bus.Receive.vst;#X add Hipno/Bus.Send.vst;#X add Hipno/Bus.Xover.vst;#X add Hipno/ChannelStrip.vst;#X add Hipno/Chazoohm.vst;#X add Hipno/CrackVerb.vst;#X add Hipno/Deluge.vst;#X add Hipno/DrunkenSailor.vst;#X add Hipno/GoMoDo.vst;#X add Hipno/GrainBandit.vst;#X add Hipno/GrainStream.vst;#X add Hipno/Greequaincer.vst;#X add Hipno/Invertonudge.vst;#X add Hipno/LiquiDigital.vst;#X add Hipno/LoopDeeLa.vst;#X add Hipno/MasterNeedle.vst;#X add Hipno/Modulator.Gen.vst;#X add Hipno/Modulator.Human.vst;#X add Hipno/Modulator.Remap.vst;#X add Hipno/Modulator.VColorTrack.vst;#X add Hipno/Modulator.VMotion.vst;#X add Hipno/Modulator.VScene.vst;#X add Hipno/Morphulescence.vst;#X add Hipno/Multilution.vst;#X add Hipno/RTAQ.vst;#X add Hipno/Sbinulator.vst;#X add Hipno/Sffizzlerr.vst;#X add Hipno/SfylterBank.vst;#X add Hipno/SfylterSynth.vst;#X add Hipno/Shypht.vst;#X add Hipno/Spuntorrt.vst;#X add Hipno/Squeegee.vst;#X add Hipno/SquiglyQ.vst;#X add Hipno/Substrate.vst;#X add Hipno/Technifly.vst;#X add Hipno/Technishypht.vst;#X add Hipno/VAirTime.vst;#X add Hipno/VDelay.vst;#X add Hipno/VSynth.vst;#X add Hipno/VTheremin.vst;#X add JACK-insert.vst;#X add "Pianoteq Trial.vst";#X add "Pianoteq20 Trial.vst";#X add "Pluggo/additive heaven.vst";#X add "Pluggo/analogue drums.vst";#X add "Pluggo/analogue percussion.vst";#X add "Pluggo/Audio Rate Pan.vst";#X add Pluggo/Audio2Control.vst;#X add "Pluggo/Average Injector.vst";#X add Pluggo/bassline.vst;#X add Pluggo/beatN.vst;#X add "Pluggo/big ben bell.vst";#X add Pluggo/Breakpoints.vst;#X add "Pluggo/Center Channel.vst";#X add Pluggo/Chamberverb.vst;#X add "Pluggo/Chorus x2.vst";#X add Pluggo/Comber.vst;#X add Pluggo/Control2Audio.vst;#X add Pluggo/Convolver.vst;#X add Pluggo/Cyclotron.vst;#X add Pluggo/D-Meter.vst;#X add "Pluggo/deep bass.vst";#X add Pluggo/Degrader.vst;#X add Pluggo/Dynamical.vst;#X add "Pluggo/easy sampler.vst";#X add "Pluggo/Env Follower.vst";#X add "Pluggo/Feedback Network.vst";#X add "Pluggo/filtered drums.vst";#X add Pluggo/FilterTaps.vst;#X add Pluggo/Flange-o-tron.vst;#X add "Pluggo/flying waves.vst";#X add "Pluggo/fm 4-op.vst";#X add Pluggo/Fragulator.vst;#X add "Pluggo/Frequency Shift.vst";#X add "Pluggo/Generic Effect.vst";#X add Pluggo/Granular-to-Go.vst;#X add "Pluggo/harmonic dreamz.vst";#X add "Pluggo/Harmonic Filter.vst";#X add "Pluggo/HF Ring Mod.vst";#X add Pluggo/Jet.vst;#X add "Pluggo/Key Triggers.vst";#X add Pluggo/KnaveStories.vst;#X add Pluggo/Laverne.vst;#X add Pluggo/LFO.vst;#X add "Pluggo/Light Organ.vst";#X add Pluggo/Limi.vst;#X add "Pluggo/lofi drums.vst";#X add Pluggo/LongStereoDelay.vst;#X add Pluggo/M2M.vst;#X add "Pluggo/Mangle Filter.vst";#X add Pluggo/Monstercrunch.vst;#X add "Pluggo/Mouse Mod.vst";#X add "Pluggo/Moving Filters.vst";#X add "Pluggo/moving waves.vst";#X add Pluggo/Multi-Filter.vst;#X add Pluggo/Multi-Filter[S].vst;#X add Pluggo/Nebula.vst;#X add Pluggo/Noyzckippr.vst;#X add Pluggo/OneByEight.vst;#X add Pluggo/Pendulum.vst;#X add Pluggo/pgs-1.vst;#X add "Pluggo/Phase Scope.vst";#X add "Pluggo/Phase Shifter.vst";#X add "Pluggo/Phone Filter.vst";#X add "Pluggo/PluggoBus Rcv.vst";#X add "Pluggo/PluggoBus Send.vst";#X add Pluggo/PluggoFuzz.vst;#X add Pluggo/PluggoSync.vst;#X add Pluggo/PlugLogic.vst;#X add Pluggo/PlugLoop.vst;#X add Pluggo/qsynth.vst;#X add "Pluggo/quick drums.vst";#X add Pluggo/Raindrops.vst;#X add Pluggo/Randomizer.vst;#X add Pluggo/Resonation.vst;#X add Pluggo/Resosweep.vst;#X add "Pluggo/Ring Modulator.vst";#X add "Pluggo/Rough Reverb.vst";#X add Pluggo/Rye.vst;#X add "Pluggo/shape synth.vst";#X add Pluggo/ShepardTones.vst;#X add Pluggo/Shuffler.vst;#X add "Pluggo/Sine Bank.vst";#X add "Pluggo/Sizzle Delays.vst";#X add Pluggo/Slice-n-Dice.vst;#X add "Pluggo/Space Echo.vst";#X add "Pluggo/Spectral Filter.vst";#X add "Pluggo/Speed Shifter.vst";#X add Pluggo/SquirrelParade.vst;#X add "Pluggo/Step Sequencer.vst";#X add "Pluggo/Stereo Adjuster.vst";#X add "Pluggo/Stereo Faker.vst";#X add Pluggo/Stutterer.vst;#X add Pluggo/Swirl.vst;#X add Pluggo/Swish.vst;#X add Pluggo/TapNet.vst;#X add "Pluggo/Tapped Delay.vst";#X add Pluggo/Tremellow.vst;#X add "Pluggo/Very Long Delay.vst";#X add "Pluggo/Vibrato Cauldron.vst";#X add Pluggo/vocalese.vst;#X add "Pluggo/Vocoder 10-band.vst";#X add "Pluggo/Vocoder 16-band.vst";#X add Pluggo/Warble.vst;#X add Pluggo/Warpoon.vst;#X add Pluggo/WasteBand.vst;#X add Pluggo/Waveshaper.vst;#X add "Pluggo/wavy waves.vst";#X add Pluggo/Wheat.vst;#X add "Pluggo/white grains.vst";#X add Pluggo/Xformer.vst;#X add "Pluggo/xmod synth.vst";#X add "Spectral Shapers/+binaural.vst";#X add "Spectral Shapers/+chebyshev.vst";#X add "Spectral Shapers/+compand.vst";#X add "Spectral Shapers/+decimate.vst";#X add "Spectral Shapers/+matrix.vst";#X add "Spectral Shapers/+morphfilter.vst";#X add "Spectral Shapers/+phasescope.vst";#X add "Spectral Shapers/+spectralcompand.vst";#X add "Spectral Shapers/+spectralgate.vst";#X add "Synful Orchestra VST.vst";#X types BNDL aPcs;#X prefix_set 0 0 /Library/Audio/Plug-Ins/VST/ 5;#X pattrmode 1;#P objectname VstPlug;#P newex 526 34 84 196617 r $0_pgm_menu;#P newex 526 155 77 196617 pvar VstPlug 2;#P window linecount 3;#P newex 526 179 331 196617 jcom.parameter vst/plug @type msg_generic @priority 1 @repetitions 0 @description "Load a VST effect.  An optional argument define what VST plug-in to open. The plug-in has to be in the Max search path.";#P objectname vst/plug;#P user jsui 205 61 46 19 1 0 0 jsui_textbutton.js Open;#P objectname VstOpen;#P window linecount 1;#P newex 526 260 70 196617 pvar VstOpen;#P window linecount 3;#P newex 526 280 357 196617 jcom.message vst/open @type msg_generic @description "Open the plug-in's edit window. Two optional integer values specifying the left and top window coordinates respectively";#P window linecount 1;#N vpatcher 372 62 1386 736;#P origin 4 36;#P window setfont "Sans Serif" 9.;#N vpatcher 10 59 610 459;#P window setfont "Sans Serif" 9.;#P newex 50 187 180 196617 sprintf script send parameter/%s %f;#P newex 51 130 57 196617 unpack 0 s;#N coll $0_params 1;#P newobj 51 107 90 196617 coll $0_params 1;#P newex 51 84 179 196617 unpack 0 0.;#P inlet 51 30 15 0;#P outlet 50 257 15 0;#P fasten 4 1 5 0 103 154 55 154;#P connect 5 0 0 0;#P connect 1 0 2 0;#P connect 2 0 3 0;#P connect 3 0 4 0;#P connect 2 1 5 1;#P pop;#P hidden newobj 858 120 67 196617 p set_values;#P hidden inlet 858 37 15 0;#N vpatcher 10 59 610 459;#P window setfont "Sans Serif" 9.;#P newex 300 138 169 196617 sprintf script delete textslider/%s;#P newex 82 104 51 196617 zl slice 1;#P newex 123 138 171 196617 sprintf script delete parameter/%s;#N coll $0_params 1;#P newobj 82 80 90 196617 coll $0_params 1;#P newex 50 50 75 196617 t 1 clear dump;#P inlet 50 30 15 0;#P outlet 123 186 15 0;#P outlet 50 186 15 0;#P connect 2 0 3 0;#P connect 3 0 0 0;#P connect 3 2 4 0;#P connect 3 1 4 0;#P connect 4 0 6 0;#P connect 6 1 5 0;#P connect 5 0 1 0;#P connect 7 0 1 0;#P connect 6 1 7 0;#P pop;#P hidden newobj 776 120 64 196617 p delete_old;#P window linecount 1;#P hidden newex 682 94 93 196617 route append clear;#P hidden inlet 682 37 15 0;#P hidden inlet 934 37 15 0;#P hidden newex 934 135 40 196617 t front;#P hidden newex 934 114 32 196617 sel 1;#P hidden newex 934 93 151 196617 jcom.oscroute /open_inspector;#P hidden newex 934 234 88 196617 bgcolor 24 24 24;#N vpatcher 20 74 1254 551;#P window setfont "Sans Serif" 9.;#P newex 14 103 50 196617 deferlow;#P newex 14 167 115 196617 s $0_get_param_value;#P window linecount 1;#P message 14 134 39 196617 get \$1;#P window linecount 0;#P message 165 61 37 196617 \$3 \$1;#P window linecount 1;#P newex 165 87 57 196617 unpack s 0;#P newex 953 189 81 196617 scale 1 2 23 38;#B color 12;#P window linecount 0;#P newex 639 189 81 196617 scale 1 2 23 38;#B color 12;#P window linecount 3;#P newex 312 220 126 196617 sprintf script hidden connect textslider/%s 0 parameter/%s 0;#P newex 165 220 126 196617 sprintf script hidden connect parameter/%s 0 textslider/%s 0;#P inlet 165 34 15 0;#P outlet 165 289 15 0;#P window linecount 2;#P newex 843 220 231 196617 sprintf script new textslider/%s bpatcher 5 %ld 150 14 0 0 jcom.textslider.mxt 0 @text %s;#P window linecount 3;#P newex 457 220 375 196617 sprintf script hidden new parameter/%s newex 175 %ld 341 196617 jcom.parameter parameter/%s @type msg_float @range 0. 1. @clipmode both @ramp linear.sched @priority 2 @description "Nth parameter of the VST plugin.";#P window linecount 0;#P comment 400 307 296 196617 Have to keep track of the names of all parameters in order to properly delete jcom.paramter instances when the vst is freed.;#P connect 4 0 13 0;#P connect 13 0 11 0;#P connect 11 0 12 0;#P connect 4 0 10 0;#P connect 10 0 9 0;#P connect 9 0 5 0;#P lcolor 2;#P fasten 1 0 3 0 462 275 170 275;#P fasten 6 0 3 0 317 275 170 275;#P connect 5 0 3 0;#P fasten 2 0 3 0 848 275 170 275;#P fasten 9 0 5 1 170 164 286 164;#P lcolor 2;#P fasten 9 0 6 0 170 164 317 164;#P lcolor 2;#P fasten 9 0 6 1 170 164 433 164;#P lcolor 2;#P fasten 9 0 1 0 170 164 462 164;#P lcolor 2;#P fasten 9 1 7 0 217 142 644 142;#P lcolor 13;#P connect 7 0 1 1;#P lcolor 13;#P fasten 9 0 1 2 170 164 826 164;#P lcolor 2;#P fasten 9 0 2 0 170 164 848 164;#P lcolor 2;#P fasten 9 1 8 0 217 142 958 142;#P lcolor 13;#P connect 8 0 2 1;#P lcolor 13;#P fasten 9 0 2 2 170 164 1068 164;#P lcolor 2;#P pop;#P hidden newobj 682 198 124 196617 p create_new_parameter;#N thispatcher;#Q end;#P hidden newobj 682 234 61 196617 thispatcher;#P hidden newex 682 172 84 196617 pack 0 0 s;#N coll $0_params 1;#P hidden newobj 749 234 90 196617 coll $0_params 1;#P hidden newex 682 120 84 196617 t b s;#N counter;#X flags 0 0;#P hidden newobj 682 146 66 196617 counter;#P hidden connect 11 0 12 0;#P hidden connect 12 0 1 0;#P hidden connect 1 0 0 0;#P hidden connect 0 0 3 0;#P hidden connect 3 0 5 0;#P hidden fasten 15 0 4 0 863 222 687 222;#P hidden fasten 9 0 4 0 939 222 687 222;#P hidden fasten 13 1 4 0 835 222 687 222;#P hidden connect 5 0 4 0;#P hidden connect 13 0 0 2;#P hidden connect 0 0 3 1;#P hidden connect 3 0 2 0;#P hidden connect 1 1 3 2;#P hidden connect 12 1 13 0;#P hidden connect 14 0 15 0;#P hidden connect 10 0 7 0;#P hidden connect 7 0 8 0;#P hidden connect 8 0 9 0;#P pop;#P newobj 394 449 60 196617 p inspector;#P objectname parameters;#P user ubumenu 63 42 188 196617 0 1 1 0;#X add "Thriftshop sounds";#X add "Training Wheels";#X add "Dinner Bell";#X add Trolly;#X add Oscillation;#X add "400 Hz Sub (sandwich)";#X add "Amish Cribs";#X add Dreamworks;#X add Recess;#X add Stories;#X add "Outside Windbells";#X add Churchtops;#X add Alienation;#X add "Major Malfunction";#X add Hovercraft;#X add "Black Eyes";#X add "Armsrong's First Steps";#X add "Blind Gravity";#X add "Which Blair?";#X add Gravity;#X add Immortality;#X add "Broken Pickup";#X add "Gated Walls";#X add "Belly Full";#X add Two-Face;#X add "Secret Steps";#X add Mall-o-rama;#X add "A Rink Factor";#X add "No Es Musica";#X add "One Sparrow's Voice";#X add "Folger's Cuppa";#X add Somonex;#X prefix_set 0 0 <none> 0;#X pattrmode 1;#P objectname Programs;#P comment 9 44 59 196617 Program:;#B frgb 149 149 149;#P newex 394 384 47 196617 pcontrol;#P newex 261 362 143 196617 jcom.algorithm_control~.mxt;#P message 121 201 191 196617 /preset/store 1 default \, /preset/write;#B color 3;#P newex 121 588 66 196617 jcom.out~ 2;#P newex 149 337 180 196617 jcom.in~ 2;#P message 129 223 125 196617 /documentation/generate;#B color 3;#P window linecount 2;#P message 26 465 65 196617 \; max refresh;#P window linecount 1;#P newex 526 56 87 196617 pvar Programs 2;#P window linecount 2;#P newex 31 257 312 196617 jcom.hub jmod.vst~ @size 3U-half @module_type audio @inspector 1 @description "A Jamoma module wrapper for vst plug-ins.";#P objectname jcom.hub;#P window linecount 1;#P comment 45 224 79 196617 command input;#P inlet 31 224 13 0;#P message 260 223 31 196617 /init;#P inlet 149 308 13 0;#P outlet 121 617 13 0;#P newex 526 89 406 196617 jcom.parameter vst/program @ramp none @repetitions 1 @description "VST program.";#P objectname vst/program;#P inlet 319 310 13 0;#P newex 93 413 122 196617 jalg.vst~.mxt $0_;#P comment 185 309 105 196617 ----signal inputs----;#P outlet 31 300 13 0;#P outlet 149 617 13 0;#P comment 94 635 101 196617 ---signal outputs---;#P bpatcher 0 0 255 180 0 0 jcom.gui.mxt 0 $0_;#P objectname jmod.gui.1Uh.a.stereo.mxt;#P fasten 10 0 13 0 265 245 36 245;#P fasten 16 0 13 0 134 244 36 244;#P connect 11 0 13 0;#P fasten 19 0 13 0 126 244 36 244;#P connect 13 0 3 0;#P fasten 20 0 5 0 266 407 98 407;#P fasten 21 0 5 0 399 407 98 407;#P connect 5 1 18 0;#P connect 18 0 8 0;#P connect 9 0 17 0;#P connect 17 0 5 1;#P connect 18 1 2 0;#P fasten 5 2 18 1 154 576 182 576;#P connect 17 1 5 2;#P connect 17 2 20 0;#P connect 6 0 17 1;#P connect 20 1 21 0;#P fasten 5 3 24 0 182 442 399 442;#P fasten 5 4 24 1 210 435 424 435;#P fasten 17 2 24 2 266 358 449 358;#P connect 30 0 14 0;#P fasten 14 1 7 0 608 81 531 81;#P fasten 34 0 29 0 531 246 518 246 518 149 531 149;#P fasten 32 0 29 0 596 146 531 146;#P connect 33 0 29 0;#P fasten 29 1 28 0 598 175 531 175;#P connect 28 0 34 0;#P connect 26 0 25 0;#P pop;