max v2;#N vpatcher 273 298 839 733;#P origin 0 -22;#P window setfont "Sans Serif" 9.;#P flonum 71 30 46 9 0 0 8224 3 181 181 181 221 221 221 255 255 255 0 0 0;#P objectname Frequency;#P window linecount 1;#P hidden newex 383 310 64 196617 jcom.out~ 1;#P comment 16 31 55 196617 frequency;#B frgb 172 172 172;#P hidden newex 383 264 49 196617 jcom.in~;#P hidden message 147 286 125 196617 /documentation/generate;#P hidden newex 8 112 57 196617 pvar Mode;#P hidden newex 8 176 80 196617 pvar Frequency;#P hidden newex 108 112 385 196617 jcom.parameter mode @type msg_menu @description "choose the waveform type.";#P objectname mode[1];#P window linecount 2;#P hidden newex 108 176 257 196617 jcom.parameter frequency @type msg_float @range 0. 20000. @ramp linear.sched @description "Frequency used.";#P objectname frequency;#P window linecount 1;#P comment 136 31 37 196617 mode:;#B frgb 172 172 172;#P user ubumenu 171 30 83 196617 0 1 1 0;#X add off;#X add sine;#X add sawtooth;#X add sawtooth (aa);#X add triangle (aa);#X add rectangle (aa);#X prefix_set 0 0 0 0;#X pattrmode 1;#P objectname Mode;#P hidden message 275 286 37 196617 /init;#P hidden outlet 383 354 15 0;#P hidden comment 408 355 108 196617 ---signal outputs---;#P hidden comment 36 283 79 196617 command input;#P hidden newex 383 287 103 196617 poly~ jalg.sine~.mxt;#P hidden outlet 22 366 15 0;#P hidden inlet 22 284 13 0;#P window linecount 2;#P hidden newex 22 313 288 196617 jcom.hub jmod.sine~ @size 1U-half @module_type audio @description "Play sine tones - square - triangle waves etc.";#P objectname jcom.hub;#P bpatcher 0 0 256 60 0 0 jcom.gui.mxt 0;#P objectname jcom.gui.1Uh.a.stereo.mxb;#P hidden connect 12 0 14 0;#P hidden connect 11 0 13 0;#P hidden fasten 8 0 1 0 280 307 27 307;#P hidden fasten 15 0 1 0 152 307 27 307;#P hidden connect 2 0 1 0;#P hidden connect 1 0 3 0;#P hidden connect 14 0 12 0;#P hidden connect 13 0 11 0;#P hidden connect 16 0 4 0;#P hidden connect 4 0 18 0;#P hidden connect 18 0 7 0;#P pop;