{
	"patcher" : 	{
		"fileversion" : 1,
		"rect" : [ 549.0, 69.0, 766.0, 571.0 ],
		"bglocked" : 0,
		"defrect" : [ 549.0, 69.0, 766.0, 571.0 ],
		"openrect" : [ 0.0, 0.0, 0.0, 0.0 ],
		"openinpresentation" : 0,
		"default_fontsize" : 12.0,
		"default_fontface" : 0,
		"default_fontname" : "Arial",
		"gridonopen" : 0,
		"gridsize" : [ 15.0, 15.0 ],
		"gridsnaponopen" : 0,
		"toolbarvisible" : 1,
		"boxanimatetime" : 200,
		"imprint" : 0,
		"metadata" : [  ],
		"boxes" : [ 			{
				"box" : 				{
					"maxclass" : "newobj",
					"text" : "!/ 1.",
					"id" : "obj-1",
					"outlettype" : [ "float" ],
					"fontsize" : 9.0,
					"patching_rect" : [ 467.0, 239.0, 31.0, 17.0 ],
					"fontname" : "Arial",
					"numinlets" : 2,
					"numoutlets" : 1
				}

			}
, 			{
				"box" : 				{
					"maxclass" : "newobj",
					"text" : "*~ 0.01",
					"id" : "obj-2",
					"outlettype" : [ "signal" ],
					"fontsize" : 9.0,
					"patching_rect" : [ 207.0, 409.0, 47.0, 17.0 ],
					"fontname" : "Arial",
					"numinlets" : 2,
					"numoutlets" : 1
				}

			}
, 			{
				"box" : 				{
					"maxclass" : "number",
					"id" : "obj-3",
					"bgcolor" : [ 0.866667, 0.866667, 0.866667, 1.0 ],
					"outlettype" : [ "int", "bang" ],
					"fontsize" : 9.0,
					"patching_rect" : [ 343.0, 138.0, 35.0, 17.0 ],
					"textcolor" : [ 0.0, 0.0, 0.0, 1.0 ],
					"htextcolor" : [ 0.870588, 0.870588, 0.870588, 1.0 ],
					"triscale" : 0.9,
					"fontname" : "Arial",
					"numinlets" : 1,
					"numoutlets" : 2
				}

			}
, 			{
				"box" : 				{
					"maxclass" : "number",
					"id" : "obj-4",
					"bgcolor" : [ 0.866667, 0.866667, 0.866667, 1.0 ],
					"outlettype" : [ "int", "bang" ],
					"fontsize" : 9.0,
					"patching_rect" : [ 422.0, 40.0, 35.0, 17.0 ],
					"textcolor" : [ 0.0, 0.0, 0.0, 1.0 ],
					"htextcolor" : [ 0.870588, 0.870588, 0.870588, 1.0 ],
					"triscale" : 0.9,
					"fontname" : "Arial",
					"numinlets" : 1,
					"numoutlets" : 2
				}

			}
, 			{
				"box" : 				{
					"maxclass" : "newobj",
					"text" : "prepend /oscillators",
					"id" : "obj-5",
					"outlettype" : [ "" ],
					"fontsize" : 9.0,
					"patching_rect" : [ 422.0, 65.0, 102.0, 17.0 ],
					"fontname" : "Arial",
					"numinlets" : 1,
					"numoutlets" : 1
				}

			}
, 			{
				"box" : 				{
					"maxclass" : "message",
					"text" : "size $1, freqsmooth $1, magsmooth $1",
					"id" : "obj-6",
					"outlettype" : [ "" ],
					"fontsize" : 9.0,
					"patching_rect" : [ 511.0, 238.0, 188.0, 15.0 ],
					"fontname" : "Arial",
					"numinlets" : 2,
					"numoutlets" : 1
				}

			}
, 			{
				"box" : 				{
					"maxclass" : "outlet",
					"id" : "obj-7",
					"patching_rect" : [ 170.0, 488.0, 15.0, 15.0 ],
					"numinlets" : 1,
					"numoutlets" : 0,
					"comment" : "signal"
				}

			}
, 			{
				"box" : 				{
					"maxclass" : "outlet",
					"id" : "obj-8",
					"patching_rect" : [ 18.0, 488.0, 15.0, 15.0 ],
					"numinlets" : 1,
					"numoutlets" : 0,
					"comment" : "OSC messages"
				}

			}
, 			{
				"box" : 				{
					"maxclass" : "button",
					"id" : "obj-9",
					"outlettype" : [ "bang" ],
					"patching_rect" : [ 17.0, 262.0, 15.0, 15.0 ],
					"numinlets" : 1,
					"numoutlets" : 1
				}

			}
, 			{
				"box" : 				{
					"maxclass" : "flonum",
					"id" : "obj-10",
					"bgcolor" : [ 0.866667, 0.866667, 0.866667, 1.0 ],
					"outlettype" : [ "float", "bang" ],
					"fontsize" : 9.0,
					"patching_rect" : [ 64.0, 40.0, 35.0, 17.0 ],
					"textcolor" : [ 0.0, 0.0, 0.0, 1.0 ],
					"htextcolor" : [ 0.870588, 0.870588, 0.870588, 1.0 ],
					"triscale" : 0.9,
					"fontname" : "Arial",
					"numinlets" : 1,
					"numoutlets" : 2
				}

			}
, 			{
				"box" : 				{
					"maxclass" : "flonum",
					"id" : "obj-11",
					"bgcolor" : [ 0.866667, 0.866667, 0.866667, 1.0 ],
					"outlettype" : [ "float", "bang" ],
					"fontsize" : 9.0,
					"patching_rect" : [ 248.0, 40.0, 35.0, 17.0 ],
					"textcolor" : [ 0.0, 0.0, 0.0, 1.0 ],
					"htextcolor" : [ 0.870588, 0.870588, 0.870588, 1.0 ],
					"triscale" : 0.9,
					"fontname" : "Arial",
					"numinlets" : 1,
					"numoutlets" : 2
				}

			}
, 			{
				"box" : 				{
					"maxclass" : "flonum",
					"id" : "obj-12",
					"bgcolor" : [ 0.866667, 0.866667, 0.866667, 1.0 ],
					"outlettype" : [ "float", "bang" ],
					"fontsize" : 9.0,
					"patching_rect" : [ 328.0, 40.0, 35.0, 17.0 ],
					"textcolor" : [ 0.0, 0.0, 0.0, 1.0 ],
					"htextcolor" : [ 0.870588, 0.870588, 0.870588, 1.0 ],
					"triscale" : 0.9,
					"fontname" : "Arial",
					"numinlets" : 1,
					"numoutlets" : 2
				}

			}
, 			{
				"box" : 				{
					"maxclass" : "flonum",
					"id" : "obj-13",
					"bgcolor" : [ 0.866667, 0.866667, 0.866667, 1.0 ],
					"outlettype" : [ "float", "bang" ],
					"fontsize" : 9.0,
					"patching_rect" : [ 202.0, 40.0, 35.0, 17.0 ],
					"textcolor" : [ 0.0, 0.0, 0.0, 1.0 ],
					"htextcolor" : [ 0.870588, 0.870588, 0.870588, 1.0 ],
					"triscale" : 0.9,
					"fontname" : "Arial",
					"numinlets" : 1,
					"numoutlets" : 2
				}

			}
, 			{
				"box" : 				{
					"maxclass" : "flonum",
					"id" : "obj-14",
					"bgcolor" : [ 0.866667, 0.866667, 0.866667, 1.0 ],
					"outlettype" : [ "float", "bang" ],
					"fontsize" : 9.0,
					"patching_rect" : [ 164.0, 40.0, 35.0, 17.0 ],
					"textcolor" : [ 0.0, 0.0, 0.0, 1.0 ],
					"htextcolor" : [ 0.870588, 0.870588, 0.870588, 1.0 ],
					"triscale" : 0.9,
					"fontname" : "Arial",
					"numinlets" : 1,
					"numoutlets" : 2
				}

			}
, 			{
				"box" : 				{
					"maxclass" : "newobj",
					"text" : "prepend /rate",
					"id" : "obj-15",
					"outlettype" : [ "" ],
					"fontsize" : 9.0,
					"patching_rect" : [ 248.0, 65.0, 73.0, 17.0 ],
					"fontname" : "Arial",
					"numinlets" : 1,
					"numoutlets" : 1
				}

			}
, 			{
				"box" : 				{
					"maxclass" : "newobj",
					"text" : "prepend /spacing",
					"id" : "obj-16",
					"outlettype" : [ "" ],
					"fontsize" : 9.0,
					"patching_rect" : [ 328.0, 65.0, 87.0, 17.0 ],
					"fontname" : "Arial",
					"numinlets" : 1,
					"numoutlets" : 1
				}

			}
, 			{
				"box" : 				{
					"maxclass" : "newobj",
					"text" : "pak /range 0. 0.",
					"id" : "obj-17",
					"outlettype" : [ "" ],
					"fontsize" : 9.0,
					"patching_rect" : [ 128.0, 65.0, 83.0, 17.0 ],
					"fontname" : "Arial",
					"numinlets" : 3,
					"numoutlets" : 1
				}

			}
, 			{
				"box" : 				{
					"maxclass" : "message",
					"text" : "/rolloff $1",
					"id" : "obj-18",
					"outlettype" : [ "" ],
					"fontsize" : 9.0,
					"patching_rect" : [ 64.0, 65.0, 60.0, 15.0 ],
					"fontname" : "Arial",
					"numinlets" : 2,
					"numoutlets" : 1
				}

			}
, 			{
				"box" : 				{
					"maxclass" : "newobj",
					"text" : "p calculations",
					"id" : "obj-19",
					"outlettype" : [ "float", "float", "int" ],
					"fontsize" : 9.0,
					"patching_rect" : [ 210.0, 139.0, 102.0, 17.0 ],
					"fontname" : "Arial",
					"numinlets" : 4,
					"numoutlets" : 3,
					"patcher" : 					{
						"fileversion" : 1,
						"rect" : [ 15.0, 55.0, 408.0, 405.0 ],
						"bglocked" : 0,
						"defrect" : [ 15.0, 55.0, 408.0, 405.0 ],
						"openrect" : [ 0.0, 0.0, 0.0, 0.0 ],
						"openinpresentation" : 0,
						"default_fontsize" : 12.0,
						"default_fontface" : 0,
						"default_fontname" : "Arial",
						"gridonopen" : 0,
						"gridsize" : [ 15.0, 15.0 ],
						"gridsnaponopen" : 0,
						"toolbarvisible" : 1,
						"boxanimatetime" : 200,
						"imprint" : 0,
						"metadata" : [  ],
						"boxes" : [ 							{
								"box" : 								{
									"maxclass" : "outlet",
									"id" : "obj-1",
									"patching_rect" : [ 278.0, 292.0, 15.0, 15.0 ],
									"numinlets" : 1,
									"numoutlets" : 0,
									"comment" : ""
								}

							}
, 							{
								"box" : 								{
									"maxclass" : "newobj",
									"text" : "minimum",
									"id" : "obj-2",
									"outlettype" : [ "int", "int" ],
									"fontsize" : 9.0,
									"patching_rect" : [ 278.0, 263.0, 50.0, 17.0 ],
									"fontname" : "Arial",
									"numinlets" : 2,
									"numoutlets" : 2
								}

							}
, 							{
								"box" : 								{
									"maxclass" : "newobj",
									"text" : "pak 10 10",
									"id" : "obj-3",
									"outlettype" : [ "" ],
									"fontsize" : 9.0,
									"patching_rect" : [ 278.0, 240.0, 55.0, 17.0 ],
									"fontname" : "Arial",
									"numinlets" : 2,
									"numoutlets" : 1
								}

							}
, 							{
								"box" : 								{
									"maxclass" : "newobj",
									"text" : "i",
									"id" : "obj-4",
									"outlettype" : [ "int" ],
									"fontsize" : 9.0,
									"patching_rect" : [ 278.0, 217.0, 27.0, 17.0 ],
									"fontname" : "Arial",
									"numinlets" : 2,
									"numoutlets" : 1
								}

							}
, 							{
								"box" : 								{
									"maxclass" : "newobj",
									"text" : "!/ 1.",
									"id" : "obj-5",
									"outlettype" : [ "float" ],
									"fontsize" : 9.0,
									"patching_rect" : [ 278.0, 194.0, 31.0, 17.0 ],
									"fontname" : "Arial",
									"numinlets" : 2,
									"numoutlets" : 1
								}

							}
, 							{
								"box" : 								{
									"maxclass" : "inlet",
									"id" : "obj-6",
									"outlettype" : [ "" ],
									"patching_rect" : [ 323.0, 56.0, 15.0, 15.0 ],
									"numinlets" : 0,
									"numoutlets" : 1,
									"comment" : ""
								}

							}
, 							{
								"box" : 								{
									"maxclass" : "outlet",
									"id" : "obj-7",
									"patching_rect" : [ 121.0, 292.0, 15.0, 15.0 ],
									"numinlets" : 1,
									"numoutlets" : 0,
									"comment" : ""
								}

							}
, 							{
								"box" : 								{
									"maxclass" : "inlet",
									"id" : "obj-8",
									"outlettype" : [ "" ],
									"patching_rect" : [ 121.0, 56.0, 15.0, 15.0 ],
									"numinlets" : 0,
									"numoutlets" : 1,
									"comment" : ""
								}

							}
, 							{
								"box" : 								{
									"maxclass" : "newobj",
									"text" : "/ 24.",
									"id" : "obj-9",
									"outlettype" : [ "float" ],
									"fontsize" : 9.0,
									"patching_rect" : [ 121.0, 167.0, 34.0, 17.0 ],
									"fontname" : "Arial",
									"numinlets" : 2,
									"numoutlets" : 1
								}

							}
, 							{
								"box" : 								{
									"maxclass" : "outlet",
									"id" : "obj-10",
									"patching_rect" : [ 195.0, 292.0, 15.0, 15.0 ],
									"numinlets" : 1,
									"numoutlets" : 0,
									"comment" : ""
								}

							}
, 							{
								"box" : 								{
									"maxclass" : "newobj",
									"text" : "/ 24.",
									"id" : "obj-11",
									"outlettype" : [ "float" ],
									"fontsize" : 9.0,
									"patching_rect" : [ 195.0, 167.0, 34.0, 17.0 ],
									"fontname" : "Arial",
									"numinlets" : 2,
									"numoutlets" : 1
								}

							}
, 							{
								"box" : 								{
									"maxclass" : "newobj",
									"text" : "t b f",
									"id" : "obj-12",
									"outlettype" : [ "bang", "float" ],
									"fontsize" : 9.0,
									"patching_rect" : [ 52.0, 97.0, 27.0, 17.0 ],
									"fontname" : "Arial",
									"numinlets" : 1,
									"numoutlets" : 2
								}

							}
, 							{
								"box" : 								{
									"maxclass" : "inlet",
									"id" : "obj-13",
									"outlettype" : [ "" ],
									"patching_rect" : [ 195.0, 56.0, 15.0, 15.0 ],
									"numinlets" : 0,
									"numoutlets" : 1,
									"comment" : ""
								}

							}
, 							{
								"box" : 								{
									"maxclass" : "inlet",
									"id" : "obj-14",
									"outlettype" : [ "float" ],
									"patching_rect" : [ 52.0, 56.0, 15.0, 15.0 ],
									"numinlets" : 0,
									"numoutlets" : 1,
									"comment" : ""
								}

							}
 ],
						"lines" : [ 							{
								"patchline" : 								{
									"source" : [ "obj-6", 0 ],
									"destination" : [ "obj-3", 1 ],
									"hidden" : 0,
									"midpoints" : [  ]
								}

							}
, 							{
								"patchline" : 								{
									"source" : [ "obj-2", 0 ],
									"destination" : [ "obj-1", 0 ],
									"hidden" : 0,
									"midpoints" : [  ]
								}

							}
, 							{
								"patchline" : 								{
									"source" : [ "obj-3", 0 ],
									"destination" : [ "obj-2", 0 ],
									"hidden" : 0,
									"midpoints" : [  ]
								}

							}
, 							{
								"patchline" : 								{
									"source" : [ "obj-4", 0 ],
									"destination" : [ "obj-3", 0 ],
									"hidden" : 0,
									"midpoints" : [  ]
								}

							}
, 							{
								"patchline" : 								{
									"source" : [ "obj-5", 0 ],
									"destination" : [ "obj-4", 0 ],
									"hidden" : 0,
									"midpoints" : [  ]
								}

							}
, 							{
								"patchline" : 								{
									"source" : [ "obj-11", 0 ],
									"destination" : [ "obj-5", 0 ],
									"hidden" : 0,
									"midpoints" : [  ]
								}

							}
, 							{
								"patchline" : 								{
									"source" : [ "obj-12", 1 ],
									"destination" : [ "obj-11", 1 ],
									"hidden" : 0,
									"color" : [ 0.290196, 0.611765, 0.380392, 1.0 ],
									"midpoints" : [  ]
								}

							}
, 							{
								"patchline" : 								{
									"source" : [ "obj-11", 0 ],
									"destination" : [ "obj-10", 0 ],
									"hidden" : 0,
									"midpoints" : [  ]
								}

							}
, 							{
								"patchline" : 								{
									"source" : [ "obj-12", 0 ],
									"destination" : [ "obj-11", 0 ],
									"hidden" : 0,
									"color" : [ 0.290196, 0.611765, 0.380392, 1.0 ],
									"midpoints" : [  ]
								}

							}
, 							{
								"patchline" : 								{
									"source" : [ "obj-13", 0 ],
									"destination" : [ "obj-11", 0 ],
									"hidden" : 0,
									"midpoints" : [  ]
								}

							}
, 							{
								"patchline" : 								{
									"source" : [ "obj-12", 1 ],
									"destination" : [ "obj-9", 1 ],
									"hidden" : 0,
									"midpoints" : [  ]
								}

							}
, 							{
								"patchline" : 								{
									"source" : [ "obj-9", 0 ],
									"destination" : [ "obj-7", 0 ],
									"hidden" : 0,
									"midpoints" : [  ]
								}

							}
, 							{
								"patchline" : 								{
									"source" : [ "obj-8", 0 ],
									"destination" : [ "obj-9", 0 ],
									"hidden" : 0,
									"midpoints" : [  ]
								}

							}
, 							{
								"patchline" : 								{
									"source" : [ "obj-12", 0 ],
									"destination" : [ "obj-9", 0 ],
									"hidden" : 0,
									"midpoints" : [  ]
								}

							}
, 							{
								"patchline" : 								{
									"source" : [ "obj-14", 0 ],
									"destination" : [ "obj-12", 0 ],
									"hidden" : 0,
									"midpoints" : [  ]
								}

							}
 ]
					}
,
					"saved_object_attributes" : 					{
						"default_fontname" : "Arial",
						"fontface" : 0,
						"fontsize" : 12.0,
						"globalpatchername" : "",
						"default_fontsize" : 12.0,
						"fontname" : "Arial",
						"default_fontface" : 0
					}

				}

			}
, 			{
				"box" : 				{
					"maxclass" : "newobj",
					"text" : "s #0_update_buffers",
					"id" : "obj-20",
					"fontsize" : 9.0,
					"patching_rect" : [ 34.0, 308.0, 105.0, 17.0 ],
					"fontname" : "Arial",
					"numinlets" : 1,
					"numoutlets" : 0
				}

			}
, 			{
				"box" : 				{
					"maxclass" : "newobj",
					"text" : "loadbang",
					"id" : "obj-21",
					"outlettype" : [ "bang" ],
					"fontsize" : 9.0,
					"patching_rect" : [ 20.0, 211.0, 48.0, 17.0 ],
					"fontname" : "Arial",
					"numinlets" : 1,
					"numoutlets" : 1
				}

			}
, 			{
				"box" : 				{
					"maxclass" : "newobj",
					"text" : "t b",
					"id" : "obj-22",
					"outlettype" : [ "bang" ],
					"fontsize" : 9.0,
					"patching_rect" : [ 34.0, 285.0, 20.0, 17.0 ],
					"fontname" : "Arial",
					"numinlets" : 1,
					"numoutlets" : 1
				}

			}
, 			{
				"box" : 				{
					"maxclass" : "newobj",
					"text" : "change 0.",
					"id" : "obj-23",
					"outlettype" : [ "", "int", "int" ],
					"fontsize" : 9.0,
					"patching_rect" : [ 34.0, 262.0, 52.0, 17.0 ],
					"fontname" : "Arial",
					"numinlets" : 1,
					"numoutlets" : 3
				}

			}
, 			{
				"box" : 				{
					"maxclass" : "newobj",
					"text" : "dspstate~",
					"id" : "obj-24",
					"outlettype" : [ "int", "float", "int", "int" ],
					"fontsize" : 9.0,
					"patching_rect" : [ 20.0, 236.0, 54.0, 17.0 ],
					"fontname" : "Arial",
					"numinlets" : 1,
					"numoutlets" : 4
				}

			}
, 			{
				"box" : 				{
					"maxclass" : "newobj",
					"text" : "jcom.oscroute /rolloff /range /rate /spacing /oscillators",
					"id" : "obj-25",
					"outlettype" : [ "", "", "", "", "", "" ],
					"fontsize" : 9.0,
					"patching_rect" : [ 20.0, 99.0, 360.0, 17.0 ],
					"fontname" : "Arial",
					"numinlets" : 1,
					"numoutlets" : 6
				}

			}
, 			{
				"box" : 				{
					"maxclass" : "inlet",
					"id" : "obj-26",
					"outlettype" : [ "" ],
					"patching_rect" : [ 20.0, 72.0, 15.0, 15.0 ],
					"numinlets" : 0,
					"numoutlets" : 1,
					"comment" : "OSC messages"
				}

			}
, 			{
				"box" : 				{
					"maxclass" : "newobj",
					"text" : "wave~ #0_bell",
					"id" : "obj-27",
					"outlettype" : [ "signal" ],
					"fontsize" : 9.0,
					"patching_rect" : [ 207.0, 382.0, 94.0, 17.0 ],
					"fontname" : "Arial",
					"numinlets" : 3,
					"numoutlets" : 1
				}

			}
, 			{
				"box" : 				{
					"maxclass" : "newobj",
					"text" : "p buffer_bell",
					"id" : "obj-28",
					"fontsize" : 9.0,
					"patching_rect" : [ 20.0, 139.0, 68.0, 17.0 ],
					"fontname" : "Arial",
					"numinlets" : 1,
					"numoutlets" : 0,
					"patcher" : 					{
						"fileversion" : 1,
						"rect" : [ 10.0, 59.0, 580.0, 443.0 ],
						"bglocked" : 0,
						"defrect" : [ 10.0, 59.0, 580.0, 443.0 ],
						"openrect" : [ 0.0, 0.0, 0.0, 0.0 ],
						"openinpresentation" : 0,
						"default_fontsize" : 12.0,
						"default_fontface" : 0,
						"default_fontname" : "Arial",
						"gridonopen" : 0,
						"gridsize" : [ 15.0, 15.0 ],
						"gridsnaponopen" : 0,
						"toolbarvisible" : 1,
						"boxanimatetime" : 200,
						"imprint" : 0,
						"metadata" : [  ],
						"boxes" : [ 							{
								"box" : 								{
									"maxclass" : "newobj",
									"text" : "r #0_update_buffers",
									"id" : "obj-1",
									"outlettype" : [ "" ],
									"fontsize" : 9.0,
									"patching_rect" : [ 50.0, 47.0, 105.0, 17.0 ],
									"fontname" : "Arial",
									"numinlets" : 0,
									"numoutlets" : 1
								}

							}
, 							{
								"box" : 								{
									"maxclass" : "newobj",
									"text" : "if $f1<0. then $f1 else -6.",
									"id" : "obj-2",
									"outlettype" : [ "" ],
									"fontsize" : 9.0,
									"patching_rect" : [ 365.0, 137.0, 129.0, 17.0 ],
									"fontname" : "Arial",
									"numinlets" : 1,
									"numoutlets" : 1
								}

							}
, 							{
								"box" : 								{
									"maxclass" : "newobj",
									"text" : "expr sqrt(20/(log(10)*abs($f1)))",
									"id" : "obj-3",
									"outlettype" : [ "" ],
									"fontsize" : 9.0,
									"patching_rect" : [ 365.0, 164.0, 166.0, 17.0 ],
									"fontname" : "Arial",
									"numinlets" : 1,
									"numoutlets" : 1
								}

							}
, 							{
								"box" : 								{
									"maxclass" : "newobj",
									"text" : "if $f1<=0. then 1. else $f1",
									"id" : "obj-4",
									"outlettype" : [ "" ],
									"fontsize" : 9.0,
									"patching_rect" : [ 254.0, 255.0, 130.0, 17.0 ],
									"fontname" : "Arial",
									"numinlets" : 1,
									"numoutlets" : 1
								}

							}
, 							{
								"box" : 								{
									"maxclass" : "newobj",
									"text" : "expr exp((-$f1*$f1)/($f2*$f2))",
									"id" : "obj-5",
									"outlettype" : [ "" ],
									"fontsize" : 9.0,
									"patching_rect" : [ 98.0, 284.0, 163.0, 17.0 ],
									"fontname" : "Arial",
									"numinlets" : 2,
									"numoutlets" : 1
								}

							}
, 							{
								"box" : 								{
									"maxclass" : "newobj",
									"text" : "scale 0. 4096. -1. 1.",
									"id" : "obj-6",
									"outlettype" : [ "float" ],
									"fontsize" : 9.0,
									"patching_rect" : [ 98.0, 257.0, 104.0, 17.0 ],
									"fontname" : "Arial",
									"numinlets" : 6,
									"numoutlets" : 1
								}

							}
, 							{
								"box" : 								{
									"maxclass" : "newobj",
									"text" : "t b",
									"id" : "obj-7",
									"outlettype" : [ "bang" ],
									"fontsize" : 9.0,
									"patching_rect" : [ 80.0, 193.0, 20.0, 17.0 ],
									"fontname" : "Arial",
									"numinlets" : 1,
									"numoutlets" : 1
								}

							}
, 							{
								"box" : 								{
									"maxclass" : "newobj",
									"text" : "qlim",
									"id" : "obj-8",
									"outlettype" : [ "" ],
									"fontsize" : 9.0,
									"patching_rect" : [ 365.0, 82.0, 29.0, 17.0 ],
									"fontname" : "Arial",
									"numinlets" : 2,
									"numoutlets" : 1
								}

							}
, 							{
								"box" : 								{
									"maxclass" : "inlet",
									"id" : "obj-9",
									"outlettype" : [ "" ],
									"patching_rect" : [ 365.0, 35.0, 15.0, 15.0 ],
									"numinlets" : 0,
									"numoutlets" : 1,
									"comment" : ""
								}

							}
, 							{
								"box" : 								{
									"maxclass" : "newobj",
									"text" : "t b 4097",
									"id" : "obj-10",
									"outlettype" : [ "bang", "int" ],
									"fontsize" : 9.0,
									"patching_rect" : [ 50.0, 80.0, 49.0, 17.0 ],
									"fontname" : "Arial",
									"numinlets" : 1,
									"numoutlets" : 2
								}

							}
, 							{
								"box" : 								{
									"maxclass" : "newobj",
									"text" : "uzi 4097 0",
									"id" : "obj-11",
									"outlettype" : [ "bang", "bang", "int" ],
									"fontsize" : 9.0,
									"patching_rect" : [ 50.0, 219.0, 59.0, 17.0 ],
									"fontname" : "Arial",
									"numinlets" : 2,
									"numoutlets" : 3
								}

							}
, 							{
								"box" : 								{
									"maxclass" : "newobj",
									"text" : "pack 0 0.",
									"id" : "obj-12",
									"outlettype" : [ "" ],
									"fontsize" : 9.0,
									"patching_rect" : [ 50.0, 336.0, 58.0, 17.0 ],
									"fontname" : "Arial",
									"numinlets" : 2,
									"numoutlets" : 1
								}

							}
, 							{
								"box" : 								{
									"maxclass" : "newobj",
									"text" : "peek~ #0_bell",
									"id" : "obj-13",
									"outlettype" : [ "float" ],
									"fontsize" : 9.0,
									"patching_rect" : [ 50.0, 359.0, 74.0, 17.0 ],
									"fontname" : "Arial",
									"numinlets" : 3,
									"numoutlets" : 1
								}

							}
, 							{
								"box" : 								{
									"maxclass" : "newobj",
									"text" : "buffer~ #0_bell 100",
									"id" : "obj-14",
									"outlettype" : [ "float", "bang" ],
									"fontsize" : 9.0,
									"patching_rect" : [ 145.0, 152.0, 103.0, 17.0 ],
									"fontname" : "Arial",
									"numinlets" : 1,
									"numoutlets" : 2
								}

							}
, 							{
								"box" : 								{
									"maxclass" : "newobj",
									"text" : "prepend size",
									"id" : "obj-15",
									"outlettype" : [ "" ],
									"fontsize" : 9.0,
									"patching_rect" : [ 145.0, 131.0, 66.0, 17.0 ],
									"fontname" : "Arial",
									"numinlets" : 1,
									"numoutlets" : 1
								}

							}
, 							{
								"box" : 								{
									"maxclass" : "newobj",
									"text" : "sampstoms~",
									"id" : "obj-16",
									"outlettype" : [ "signal", "float" ],
									"fontsize" : 9.0,
									"patching_rect" : [ 89.0, 103.0, 66.0, 17.0 ],
									"fontname" : "Arial",
									"numinlets" : 1,
									"numoutlets" : 2
								}

							}
 ],
						"lines" : [ 							{
								"patchline" : 								{
									"source" : [ "obj-2", 0 ],
									"destination" : [ "obj-3", 0 ],
									"hidden" : 0,
									"midpoints" : [  ]
								}

							}
, 							{
								"patchline" : 								{
									"source" : [ "obj-8", 0 ],
									"destination" : [ "obj-2", 0 ],
									"hidden" : 0,
									"midpoints" : [  ]
								}

							}
, 							{
								"patchline" : 								{
									"source" : [ "obj-9", 0 ],
									"destination" : [ "obj-8", 0 ],
									"hidden" : 0,
									"midpoints" : [  ]
								}

							}
, 							{
								"patchline" : 								{
									"source" : [ "obj-3", 0 ],
									"destination" : [ "obj-4", 0 ],
									"hidden" : 0,
									"midpoints" : [ 374.5, 218.0, 263.5, 218.0 ]
								}

							}
, 							{
								"patchline" : 								{
									"source" : [ "obj-4", 0 ],
									"destination" : [ "obj-5", 1 ],
									"hidden" : 0,
									"midpoints" : [  ]
								}

							}
, 							{
								"patchline" : 								{
									"source" : [ "obj-15", 0 ],
									"destination" : [ "obj-14", 0 ],
									"hidden" : 0,
									"midpoints" : [  ]
								}

							}
, 							{
								"patchline" : 								{
									"source" : [ "obj-16", 1 ],
									"destination" : [ "obj-15", 0 ],
									"hidden" : 0,
									"midpoints" : [  ]
								}

							}
, 							{
								"patchline" : 								{
									"source" : [ "obj-5", 0 ],
									"destination" : [ "obj-12", 1 ],
									"hidden" : 0,
									"midpoints" : [  ]
								}

							}
, 							{
								"patchline" : 								{
									"source" : [ "obj-6", 0 ],
									"destination" : [ "obj-5", 0 ],
									"hidden" : 0,
									"midpoints" : [  ]
								}

							}
, 							{
								"patchline" : 								{
									"source" : [ "obj-11", 2 ],
									"destination" : [ "obj-6", 0 ],
									"hidden" : 0,
									"midpoints" : [  ]
								}

							}
, 							{
								"patchline" : 								{
									"source" : [ "obj-10", 1 ],
									"destination" : [ "obj-16", 0 ],
									"hidden" : 0,
									"midpoints" : [  ]
								}

							}
, 							{
								"patchline" : 								{
									"source" : [ "obj-3", 0 ],
									"destination" : [ "obj-7", 0 ],
									"hidden" : 0,
									"midpoints" : [ 374.5, 187.0, 89.5, 187.0 ]
								}

							}
, 							{
								"patchline" : 								{
									"source" : [ "obj-12", 0 ],
									"destination" : [ "obj-13", 0 ],
									"hidden" : 0,
									"midpoints" : [  ]
								}

							}
, 							{
								"patchline" : 								{
									"source" : [ "obj-11", 2 ],
									"destination" : [ "obj-12", 0 ],
									"hidden" : 0,
									"midpoints" : [  ]
								}

							}
, 							{
								"patchline" : 								{
									"source" : [ "obj-10", 0 ],
									"destination" : [ "obj-11", 0 ],
									"hidden" : 0,
									"midpoints" : [  ]
								}

							}
, 							{
								"patchline" : 								{
									"source" : [ "obj-7", 0 ],
									"destination" : [ "obj-11", 0 ],
									"hidden" : 0,
									"midpoints" : [  ]
								}

							}
, 							{
								"patchline" : 								{
									"source" : [ "obj-1", 0 ],
									"destination" : [ "obj-10", 0 ],
									"hidden" : 0,
									"midpoints" : [  ]
								}

							}
 ]
					}
,
					"saved_object_attributes" : 					{
						"default_fontname" : "Arial",
						"fontface" : 0,
						"fontsize" : 12.0,
						"globalpatchername" : "",
						"default_fontsize" : 12.0,
						"fontname" : "Arial",
						"default_fontface" : 0
					}

				}

			}
, 			{
				"box" : 				{
					"maxclass" : "newobj",
					"text" : "r #0_table_size",
					"id" : "obj-29",
					"outlettype" : [ "" ],
					"fontsize" : 9.0,
					"patching_rect" : [ 266.0, 322.0, 83.0, 17.0 ],
					"fontname" : "Arial",
					"numinlets" : 0,
					"numoutlets" : 1
				}

			}
, 			{
				"box" : 				{
					"maxclass" : "newobj",
					"text" : "loadmess interp 1",
					"id" : "obj-30",
					"outlettype" : [ "" ],
					"fontsize" : 9.0,
					"patching_rect" : [ 198.0, 292.0, 90.0, 17.0 ],
					"fontname" : "Arial",
					"numinlets" : 1,
					"numoutlets" : 1
				}

			}
, 			{
				"box" : 				{
					"maxclass" : "newobj",
					"text" : "p buffer_frequency",
					"id" : "obj-31",
					"outlettype" : [ "float" ],
					"fontsize" : 9.0,
					"patching_rect" : [ 90.0, 139.0, 97.0, 17.0 ],
					"fontname" : "Arial",
					"numinlets" : 1,
					"numoutlets" : 1,
					"patcher" : 					{
						"fileversion" : 1,
						"rect" : [ 22.0, 194.0, 713.0, 490.0 ],
						"bglocked" : 0,
						"defrect" : [ 22.0, 194.0, 713.0, 490.0 ],
						"openrect" : [ 0.0, 0.0, 0.0, 0.0 ],
						"openinpresentation" : 0,
						"default_fontsize" : 12.0,
						"default_fontface" : 0,
						"default_fontname" : "Arial",
						"gridonopen" : 0,
						"gridsize" : [ 15.0, 15.0 ],
						"gridsnaponopen" : 0,
						"toolbarvisible" : 1,
						"boxanimatetime" : 200,
						"imprint" : 0,
						"metadata" : [  ],
						"boxes" : [ 							{
								"box" : 								{
									"maxclass" : "outlet",
									"id" : "obj-1",
									"patching_rect" : [ 374.0, 362.0, 15.0, 15.0 ],
									"numinlets" : 1,
									"numoutlets" : 0,
									"comment" : ""
								}

							}
, 							{
								"box" : 								{
									"maxclass" : "newobj",
									"text" : "!- 0.",
									"id" : "obj-2",
									"outlettype" : [ "float" ],
									"fontsize" : 9.0,
									"patching_rect" : [ 374.0, 290.0, 27.0, 17.0 ],
									"fontname" : "Arial",
									"numinlets" : 2,
									"numoutlets" : 1
								}

							}
, 							{
								"box" : 								{
									"maxclass" : "newobj",
									"text" : "r #0_update_buffers",
									"id" : "obj-3",
									"outlettype" : [ "" ],
									"fontsize" : 9.0,
									"patching_rect" : [ 50.0, 27.0, 105.0, 17.0 ],
									"fontname" : "Arial",
									"numinlets" : 0,
									"numoutlets" : 1
								}

							}
, 							{
								"box" : 								{
									"maxclass" : "newobj",
									"text" : "s #0_table_size",
									"id" : "obj-4",
									"fontsize" : 9.0,
									"patching_rect" : [ 262.0, 146.0, 72.0, 17.0 ],
									"fontname" : "Arial",
									"numinlets" : 1,
									"numoutlets" : 0
								}

							}
, 							{
								"box" : 								{
									"maxclass" : "newobj",
									"text" : "zl sort",
									"id" : "obj-5",
									"outlettype" : [ "", "" ],
									"fontsize" : 9.0,
									"patching_rect" : [ 374.0, 197.0, 40.0, 17.0 ],
									"fontname" : "Arial",
									"numinlets" : 2,
									"numoutlets" : 2
								}

							}
, 							{
								"box" : 								{
									"maxclass" : "newobj",
									"text" : "t b",
									"id" : "obj-6",
									"outlettype" : [ "bang" ],
									"fontsize" : 9.0,
									"patching_rect" : [ 80.0, 186.0, 20.0, 17.0 ],
									"fontname" : "Arial",
									"numinlets" : 1,
									"numoutlets" : 1
								}

							}
, 							{
								"box" : 								{
									"maxclass" : "newobj",
									"text" : "qlim",
									"id" : "obj-7",
									"outlettype" : [ "" ],
									"fontsize" : 9.0,
									"patching_rect" : [ 374.0, 79.0, 29.0, 17.0 ],
									"fontname" : "Arial",
									"numinlets" : 2,
									"numoutlets" : 1
								}

							}
, 							{
								"box" : 								{
									"maxclass" : "inlet",
									"id" : "obj-8",
									"outlettype" : [ "" ],
									"patching_rect" : [ 374.0, 30.0, 15.0, 15.0 ],
									"numinlets" : 0,
									"numoutlets" : 1,
									"comment" : ""
								}

							}
, 							{
								"box" : 								{
									"maxclass" : "newobj",
									"text" : "t b 4097",
									"id" : "obj-9",
									"outlettype" : [ "bang", "int" ],
									"fontsize" : 9.0,
									"patching_rect" : [ 50.0, 73.0, 49.0, 17.0 ],
									"fontname" : "Arial",
									"numinlets" : 1,
									"numoutlets" : 2
								}

							}
, 							{
								"box" : 								{
									"maxclass" : "newobj",
									"text" : "uzi 4097 0",
									"id" : "obj-10",
									"outlettype" : [ "bang", "bang", "int" ],
									"fontsize" : 9.0,
									"patching_rect" : [ 50.0, 212.0, 59.0, 17.0 ],
									"fontname" : "Arial",
									"numinlets" : 2,
									"numoutlets" : 3
								}

							}
, 							{
								"box" : 								{
									"maxclass" : "newobj",
									"text" : "pack 0 0.",
									"id" : "obj-11",
									"outlettype" : [ "" ],
									"fontsize" : 9.0,
									"patching_rect" : [ 50.0, 329.0, 58.0, 17.0 ],
									"fontname" : "Arial",
									"numinlets" : 2,
									"numoutlets" : 1
								}

							}
, 							{
								"box" : 								{
									"maxclass" : "newobj",
									"text" : "peek~ #0_frequency 100",
									"id" : "obj-12",
									"outlettype" : [ "float" ],
									"fontsize" : 9.0,
									"patching_rect" : [ 50.0, 352.0, 112.0, 17.0 ],
									"fontname" : "Arial",
									"numinlets" : 3,
									"numoutlets" : 1
								}

							}
, 							{
								"box" : 								{
									"maxclass" : "newobj",
									"text" : "buffer~ #0_frequency",
									"id" : "obj-13",
									"outlettype" : [ "float", "bang" ],
									"fontsize" : 9.0,
									"patching_rect" : [ 145.0, 145.0, 111.0, 17.0 ],
									"fontname" : "Arial",
									"numinlets" : 1,
									"numoutlets" : 2
								}

							}
, 							{
								"box" : 								{
									"maxclass" : "newobj",
									"text" : "prepend size",
									"id" : "obj-14",
									"outlettype" : [ "" ],
									"fontsize" : 9.0,
									"patching_rect" : [ 145.0, 124.0, 66.0, 17.0 ],
									"fontname" : "Arial",
									"numinlets" : 1,
									"numoutlets" : 1
								}

							}
, 							{
								"box" : 								{
									"maxclass" : "newobj",
									"text" : "sampstoms~",
									"id" : "obj-15",
									"outlettype" : [ "signal", "float" ],
									"fontsize" : 9.0,
									"patching_rect" : [ 89.0, 96.0, 66.0, 17.0 ],
									"fontname" : "Arial",
									"numinlets" : 1,
									"numoutlets" : 2
								}

							}
, 							{
								"box" : 								{
									"maxclass" : "newobj",
									"text" : "mtof",
									"id" : "obj-16",
									"outlettype" : [ "" ],
									"fontsize" : 9.0,
									"patching_rect" : [ 98.0, 305.0, 31.0, 17.0 ],
									"fontname" : "Arial",
									"numinlets" : 1,
									"numoutlets" : 1
								}

							}
, 							{
								"box" : 								{
									"maxclass" : "newobj",
									"text" : "unpack 0. 0.",
									"id" : "obj-17",
									"outlettype" : [ "float", "float" ],
									"fontsize" : 9.0,
									"patching_rect" : [ 374.0, 229.0, 64.0, 17.0 ],
									"fontname" : "Arial",
									"numinlets" : 1,
									"numoutlets" : 2
								}

							}
, 							{
								"box" : 								{
									"maxclass" : "newobj",
									"text" : "scale 0. 4096. 200. 1000.",
									"id" : "obj-18",
									"outlettype" : [ "float" ],
									"fontsize" : 9.0,
									"patching_rect" : [ 98.0, 277.0, 129.0, 17.0 ],
									"fontname" : "Arial",
									"numinlets" : 6,
									"numoutlets" : 1
								}

							}
, 							{
								"box" : 								{
									"maxclass" : "comment",
									"text" : "delta range",
									"id" : "obj-19",
									"fontsize" : 9.0,
									"patching_rect" : [ 522.0, 232.0, 100.0, 17.0 ],
									"frgb" : [ 0.658824, 0.658824, 0.658824, 1.0 ],
									"fontname" : "Arial",
									"numinlets" : 1,
									"numoutlets" : 0
								}

							}
 ],
						"lines" : [ 							{
								"patchline" : 								{
									"source" : [ "obj-17", 1 ],
									"destination" : [ "obj-2", 1 ],
									"hidden" : 0,
									"midpoints" : [  ]
								}

							}
, 							{
								"patchline" : 								{
									"source" : [ "obj-2", 0 ],
									"destination" : [ "obj-1", 0 ],
									"hidden" : 0,
									"midpoints" : [  ]
								}

							}
, 							{
								"patchline" : 								{
									"source" : [ "obj-17", 0 ],
									"destination" : [ "obj-2", 0 ],
									"hidden" : 0,
									"midpoints" : [  ]
								}

							}
, 							{
								"patchline" : 								{
									"source" : [ "obj-5", 0 ],
									"destination" : [ "obj-17", 0 ],
									"hidden" : 0,
									"midpoints" : [  ]
								}

							}
, 							{
								"patchline" : 								{
									"source" : [ "obj-7", 0 ],
									"destination" : [ "obj-5", 0 ],
									"hidden" : 0,
									"midpoints" : [  ]
								}

							}
, 							{
								"patchline" : 								{
									"source" : [ "obj-8", 0 ],
									"destination" : [ "obj-7", 0 ],
									"hidden" : 0,
									"midpoints" : [  ]
								}

							}
, 							{
								"patchline" : 								{
									"source" : [ "obj-15", 1 ],
									"destination" : [ "obj-4", 0 ],
									"hidden" : 0,
									"midpoints" : [ 145.5, 118.0, 271.5, 118.0 ]
								}

							}
, 							{
								"patchline" : 								{
									"source" : [ "obj-17", 1 ],
									"destination" : [ "obj-18", 4 ],
									"hidden" : 0,
									"midpoints" : [ 428.5, 264.0, 195.5, 264.0 ]
								}

							}
, 							{
								"patchline" : 								{
									"source" : [ "obj-17", 0 ],
									"destination" : [ "obj-18", 3 ],
									"hidden" : 0,
									"midpoints" : [ 383.5, 252.0, 173.5, 252.0 ]
								}

							}
, 							{
								"patchline" : 								{
									"source" : [ "obj-14", 0 ],
									"destination" : [ "obj-13", 0 ],
									"hidden" : 0,
									"midpoints" : [  ]
								}

							}
, 							{
								"patchline" : 								{
									"source" : [ "obj-15", 1 ],
									"destination" : [ "obj-14", 0 ],
									"hidden" : 0,
									"midpoints" : [  ]
								}

							}
, 							{
								"patchline" : 								{
									"source" : [ "obj-16", 0 ],
									"destination" : [ "obj-11", 1 ],
									"hidden" : 0,
									"midpoints" : [  ]
								}

							}
, 							{
								"patchline" : 								{
									"source" : [ "obj-18", 0 ],
									"destination" : [ "obj-16", 0 ],
									"hidden" : 0,
									"midpoints" : [  ]
								}

							}
, 							{
								"patchline" : 								{
									"source" : [ "obj-10", 2 ],
									"destination" : [ "obj-18", 0 ],
									"hidden" : 0,
									"midpoints" : [  ]
								}

							}
, 							{
								"patchline" : 								{
									"source" : [ "obj-9", 1 ],
									"destination" : [ "obj-15", 0 ],
									"hidden" : 0,
									"midpoints" : [  ]
								}

							}
, 							{
								"patchline" : 								{
									"source" : [ "obj-7", 0 ],
									"destination" : [ "obj-6", 0 ],
									"hidden" : 0,
									"midpoints" : [ 383.5, 176.0, 89.5, 176.0 ]
								}

							}
, 							{
								"patchline" : 								{
									"source" : [ "obj-11", 0 ],
									"destination" : [ "obj-12", 0 ],
									"hidden" : 0,
									"midpoints" : [  ]
								}

							}
, 							{
								"patchline" : 								{
									"source" : [ "obj-10", 2 ],
									"destination" : [ "obj-11", 0 ],
									"hidden" : 0,
									"midpoints" : [  ]
								}

							}
, 							{
								"patchline" : 								{
									"source" : [ "obj-6", 0 ],
									"destination" : [ "obj-10", 0 ],
									"hidden" : 0,
									"midpoints" : [  ]
								}

							}
, 							{
								"patchline" : 								{
									"source" : [ "obj-9", 0 ],
									"destination" : [ "obj-10", 0 ],
									"hidden" : 0,
									"midpoints" : [  ]
								}

							}
, 							{
								"patchline" : 								{
									"source" : [ "obj-3", 0 ],
									"destination" : [ "obj-9", 0 ],
									"hidden" : 0,
									"midpoints" : [  ]
								}

							}
 ]
					}
,
					"saved_object_attributes" : 					{
						"default_fontname" : "Arial",
						"fontface" : 0,
						"fontsize" : 12.0,
						"globalpatchername" : "",
						"default_fontsize" : 12.0,
						"fontname" : "Arial",
						"default_fontface" : 0
					}

				}

			}
, 			{
				"box" : 				{
					"maxclass" : "newobj",
					"text" : "p buffer_modulo_1",
					"id" : "obj-32",
					"fontsize" : 9.0,
					"patching_rect" : [ 20.0, 179.0, 95.0, 17.0 ],
					"fontname" : "Arial",
					"numinlets" : 0,
					"numoutlets" : 0,
					"patcher" : 					{
						"fileversion" : 1,
						"rect" : [ 10.0, 59.0, 297.0, 303.0 ],
						"bglocked" : 0,
						"defrect" : [ 10.0, 59.0, 297.0, 303.0 ],
						"openrect" : [ 0.0, 0.0, 0.0, 0.0 ],
						"openinpresentation" : 0,
						"default_fontsize" : 12.0,
						"default_fontface" : 0,
						"default_fontname" : "Arial",
						"gridonopen" : 0,
						"gridsize" : [ 15.0, 15.0 ],
						"gridsnaponopen" : 0,
						"toolbarvisible" : 1,
						"boxanimatetime" : 200,
						"imprint" : 0,
						"metadata" : [  ],
						"boxes" : [ 							{
								"box" : 								{
									"maxclass" : "newobj",
									"text" : "r #0_update_buffers",
									"id" : "obj-1",
									"outlettype" : [ "" ],
									"fontsize" : 9.0,
									"patching_rect" : [ 50.0, 26.0, 105.0, 17.0 ],
									"fontname" : "Arial",
									"numinlets" : 0,
									"numoutlets" : 1
								}

							}
, 							{
								"box" : 								{
									"maxclass" : "newobj",
									"text" : "t b 513",
									"id" : "obj-2",
									"outlettype" : [ "bang", "int" ],
									"fontsize" : 9.0,
									"patching_rect" : [ 50.0, 50.0, 43.0, 17.0 ],
									"fontname" : "Arial",
									"numinlets" : 1,
									"numoutlets" : 2
								}

							}
, 							{
								"box" : 								{
									"maxclass" : "newobj",
									"text" : "uzi 513 0",
									"id" : "obj-3",
									"outlettype" : [ "bang", "bang", "int" ],
									"fontsize" : 9.0,
									"patching_rect" : [ 50.0, 151.0, 53.0, 17.0 ],
									"fontname" : "Arial",
									"numinlets" : 2,
									"numoutlets" : 3
								}

							}
, 							{
								"box" : 								{
									"maxclass" : "newobj",
									"text" : "pack 0 0.",
									"id" : "obj-4",
									"outlettype" : [ "" ],
									"fontsize" : 9.0,
									"patching_rect" : [ 50.0, 203.0, 52.0, 17.0 ],
									"fontname" : "Arial",
									"numinlets" : 2,
									"numoutlets" : 1
								}

							}
, 							{
								"box" : 								{
									"maxclass" : "newobj",
									"text" : "peek~ #0_modulo_1 12",
									"id" : "obj-5",
									"outlettype" : [ "float" ],
									"fontsize" : 9.0,
									"patching_rect" : [ 50.0, 226.0, 116.0, 17.0 ],
									"fontname" : "Arial",
									"numinlets" : 3,
									"numoutlets" : 1
								}

							}
, 							{
								"box" : 								{
									"maxclass" : "newobj",
									"text" : "scale 0. 513. 0. 1.",
									"id" : "obj-6",
									"outlettype" : [ "float" ],
									"fontsize" : 9.0,
									"patching_rect" : [ 92.0, 179.0, 93.0, 17.0 ],
									"fontname" : "Arial",
									"numinlets" : 6,
									"numoutlets" : 1
								}

							}
, 							{
								"box" : 								{
									"maxclass" : "newobj",
									"text" : "buffer~ #0_modulo_1",
									"id" : "obj-7",
									"outlettype" : [ "float", "bang" ],
									"fontsize" : 9.0,
									"patching_rect" : [ 139.0, 122.0, 109.0, 17.0 ],
									"fontname" : "Arial",
									"numinlets" : 1,
									"numoutlets" : 2
								}

							}
, 							{
								"box" : 								{
									"maxclass" : "newobj",
									"text" : "prepend size",
									"id" : "obj-8",
									"outlettype" : [ "" ],
									"fontsize" : 9.0,
									"patching_rect" : [ 139.0, 101.0, 66.0, 17.0 ],
									"fontname" : "Arial",
									"numinlets" : 1,
									"numoutlets" : 1
								}

							}
, 							{
								"box" : 								{
									"maxclass" : "newobj",
									"text" : "sampstoms~",
									"id" : "obj-9",
									"outlettype" : [ "signal", "float" ],
									"fontsize" : 9.0,
									"patching_rect" : [ 83.0, 73.0, 66.0, 17.0 ],
									"fontname" : "Arial",
									"numinlets" : 1,
									"numoutlets" : 2
								}

							}
 ],
						"lines" : [ 							{
								"patchline" : 								{
									"source" : [ "obj-8", 0 ],
									"destination" : [ "obj-7", 0 ],
									"hidden" : 0,
									"midpoints" : [  ]
								}

							}
, 							{
								"patchline" : 								{
									"source" : [ "obj-9", 1 ],
									"destination" : [ "obj-8", 0 ],
									"hidden" : 0,
									"midpoints" : [  ]
								}

							}
, 							{
								"patchline" : 								{
									"source" : [ "obj-6", 0 ],
									"destination" : [ "obj-4", 1 ],
									"hidden" : 0,
									"midpoints" : [  ]
								}

							}
, 							{
								"patchline" : 								{
									"source" : [ "obj-3", 2 ],
									"destination" : [ "obj-6", 0 ],
									"hidden" : 0,
									"midpoints" : [  ]
								}

							}
, 							{
								"patchline" : 								{
									"source" : [ "obj-2", 1 ],
									"destination" : [ "obj-9", 0 ],
									"hidden" : 0,
									"midpoints" : [  ]
								}

							}
, 							{
								"patchline" : 								{
									"source" : [ "obj-4", 0 ],
									"destination" : [ "obj-5", 0 ],
									"hidden" : 0,
									"midpoints" : [  ]
								}

							}
, 							{
								"patchline" : 								{
									"source" : [ "obj-3", 2 ],
									"destination" : [ "obj-4", 0 ],
									"hidden" : 0,
									"midpoints" : [  ]
								}

							}
, 							{
								"patchline" : 								{
									"source" : [ "obj-2", 0 ],
									"destination" : [ "obj-3", 0 ],
									"hidden" : 0,
									"midpoints" : [  ]
								}

							}
, 							{
								"patchline" : 								{
									"source" : [ "obj-1", 0 ],
									"destination" : [ "obj-2", 0 ],
									"hidden" : 0,
									"midpoints" : [  ]
								}

							}
 ]
					}
,
					"saved_object_attributes" : 					{
						"default_fontname" : "Arial",
						"fontface" : 0,
						"fontsize" : 12.0,
						"globalpatchername" : "",
						"default_fontsize" : 12.0,
						"fontname" : "Arial",
						"default_fontface" : 0
					}

				}

			}
, 			{
				"box" : 				{
					"maxclass" : "newobj",
					"text" : "cycle~ #0_modulo_1",
					"id" : "obj-33",
					"outlettype" : [ "signal" ],
					"fontsize" : 9.0,
					"patching_rect" : [ 170.0, 237.0, 105.0, 17.0 ],
					"fontname" : "Arial",
					"numinlets" : 2,
					"numoutlets" : 1
				}

			}
, 			{
				"box" : 				{
					"maxclass" : "newobj",
					"text" : "wave~ #0_frequency",
					"id" : "obj-34",
					"outlettype" : [ "signal" ],
					"fontsize" : 9.0,
					"patching_rect" : [ 170.0, 353.0, 107.0, 17.0 ],
					"fontname" : "Arial",
					"numinlets" : 3,
					"numoutlets" : 1
				}

			}
, 			{
				"box" : 				{
					"maxclass" : "newobj",
					"text" : "*~",
					"id" : "obj-35",
					"outlettype" : [ "signal" ],
					"fontsize" : 9.0,
					"patching_rect" : [ 316.0, 200.0, 27.0, 17.0 ],
					"fontname" : "Arial",
					"numinlets" : 2,
					"numoutlets" : 1
				}

			}
, 			{
				"box" : 				{
					"maxclass" : "newobj",
					"text" : "phasor~",
					"id" : "obj-36",
					"outlettype" : [ "signal" ],
					"fontsize" : 9.0,
					"patching_rect" : [ 265.0, 200.0, 46.0, 17.0 ],
					"fontname" : "Arial",
					"numinlets" : 2,
					"numoutlets" : 1
				}

			}
, 			{
				"box" : 				{
					"maxclass" : "newobj",
					"text" : "count~ 0 10 1 1",
					"id" : "obj-37",
					"outlettype" : [ "signal" ],
					"fontsize" : 9.0,
					"patching_rect" : [ 365.0, 174.0, 82.0, 17.0 ],
					"fontname" : "Arial",
					"numinlets" : 2,
					"numoutlets" : 1
				}

			}
, 			{
				"box" : 				{
					"maxclass" : "newobj",
					"text" : "ioscbank~ 10 10 10",
					"id" : "obj-38",
					"outlettype" : [ "signal" ],
					"fontsize" : 9.0,
					"patching_rect" : [ 170.0, 450.0, 123.0, 17.0 ],
					"fontname" : "Arial",
					"numinlets" : 4,
					"numoutlets" : 1
				}

			}
 ],
		"lines" : [ 			{
				"patchline" : 				{
					"source" : [ "obj-19", 2 ],
					"destination" : [ "obj-6", 0 ],
					"hidden" : 0,
					"midpoints" : [ 302.5, 161.0, 520.5, 161.0 ]
				}

			}
, 			{
				"patchline" : 				{
					"source" : [ "obj-19", 2 ],
					"destination" : [ "obj-1", 0 ],
					"hidden" : 0,
					"midpoints" : [ 302.5, 163.0, 476.5, 163.0 ]
				}

			}
, 			{
				"patchline" : 				{
					"source" : [ "obj-19", 2 ],
					"destination" : [ "obj-37", 1 ],
					"hidden" : 0,
					"midpoints" : [ 302.5, 165.0, 437.5, 165.0 ]
				}

			}
, 			{
				"patchline" : 				{
					"source" : [ "obj-4", 0 ],
					"destination" : [ "obj-5", 0 ],
					"hidden" : 0,
					"midpoints" : [  ]
				}

			}
, 			{
				"patchline" : 				{
					"source" : [ "obj-19", 2 ],
					"destination" : [ "obj-3", 0 ],
					"hidden" : 0,
					"midpoints" : [  ]
				}

			}
, 			{
				"patchline" : 				{
					"source" : [ "obj-19", 1 ],
					"destination" : [ "obj-35", 1 ],
					"hidden" : 0,
					"midpoints" : [  ]
				}

			}
, 			{
				"patchline" : 				{
					"source" : [ "obj-12", 0 ],
					"destination" : [ "obj-16", 0 ],
					"hidden" : 0,
					"midpoints" : [  ]
				}

			}
, 			{
				"patchline" : 				{
					"source" : [ "obj-37", 0 ],
					"destination" : [ "obj-35", 0 ],
					"hidden" : 0,
					"midpoints" : [  ]
				}

			}
, 			{
				"patchline" : 				{
					"source" : [ "obj-25", 4 ],
					"destination" : [ "obj-19", 3 ],
					"hidden" : 0,
					"midpoints" : [  ]
				}

			}
, 			{
				"patchline" : 				{
					"source" : [ "obj-29", 0 ],
					"destination" : [ "obj-27", 2 ],
					"hidden" : 0,
					"midpoints" : [  ]
				}

			}
, 			{
				"patchline" : 				{
					"source" : [ "obj-37", 0 ],
					"destination" : [ "obj-38", 3 ],
					"hidden" : 0,
					"midpoints" : [ 374.5, 443.0, 283.5, 443.0 ]
				}

			}
, 			{
				"patchline" : 				{
					"source" : [ "obj-25", 3 ],
					"destination" : [ "obj-19", 2 ],
					"hidden" : 0,
					"midpoints" : [ 234.100006, 123.0, 274.833344, 123.0 ]
				}

			}
, 			{
				"patchline" : 				{
					"source" : [ "obj-29", 0 ],
					"destination" : [ "obj-34", 2 ],
					"hidden" : 0,
					"midpoints" : [  ]
				}

			}
, 			{
				"patchline" : 				{
					"source" : [ "obj-36", 0 ],
					"destination" : [ "obj-33", 1 ],
					"hidden" : 0,
					"midpoints" : [  ]
				}

			}
, 			{
				"patchline" : 				{
					"source" : [ "obj-35", 0 ],
					"destination" : [ "obj-33", 1 ],
					"hidden" : 0,
					"midpoints" : [  ]
				}

			}
, 			{
				"patchline" : 				{
					"source" : [ "obj-19", 0 ],
					"destination" : [ "obj-36", 0 ],
					"hidden" : 0,
					"midpoints" : [  ]
				}

			}
, 			{
				"patchline" : 				{
					"source" : [ "obj-11", 0 ],
					"destination" : [ "obj-15", 0 ],
					"hidden" : 0,
					"midpoints" : [  ]
				}

			}
, 			{
				"patchline" : 				{
					"source" : [ "obj-1", 0 ],
					"destination" : [ "obj-2", 1 ],
					"hidden" : 0,
					"midpoints" : [ 476.5, 401.0, 244.5, 401.0 ]
				}

			}
, 			{
				"patchline" : 				{
					"source" : [ "obj-25", 2 ],
					"destination" : [ "obj-19", 1 ],
					"hidden" : 0,
					"midpoints" : [ 165.899994, 128.0, 247.166672, 128.0 ]
				}

			}
, 			{
				"patchline" : 				{
					"source" : [ "obj-31", 0 ],
					"destination" : [ "obj-19", 0 ],
					"hidden" : 0,
					"midpoints" : [ 99.5, 163.0, 190.0, 163.0, 190.0, 134.0, 219.5, 134.0 ]
				}

			}
, 			{
				"patchline" : 				{
					"source" : [ "obj-2", 0 ],
					"destination" : [ "obj-38", 1 ],
					"hidden" : 0,
					"midpoints" : [  ]
				}

			}
, 			{
				"patchline" : 				{
					"source" : [ "obj-27", 0 ],
					"destination" : [ "obj-2", 0 ],
					"hidden" : 0,
					"midpoints" : [  ]
				}

			}
, 			{
				"patchline" : 				{
					"source" : [ "obj-33", 0 ],
					"destination" : [ "obj-27", 0 ],
					"hidden" : 0,
					"midpoints" : [  ]
				}

			}
, 			{
				"patchline" : 				{
					"source" : [ "obj-13", 0 ],
					"destination" : [ "obj-17", 2 ],
					"hidden" : 0,
					"midpoints" : [  ]
				}

			}
, 			{
				"patchline" : 				{
					"source" : [ "obj-38", 0 ],
					"destination" : [ "obj-7", 0 ],
					"hidden" : 0,
					"midpoints" : [  ]
				}

			}
, 			{
				"patchline" : 				{
					"source" : [ "obj-6", 0 ],
					"destination" : [ "obj-38", 0 ],
					"hidden" : 0,
					"midpoints" : [ 520.5, 437.0, 179.5, 437.0 ]
				}

			}
, 			{
				"patchline" : 				{
					"source" : [ "obj-34", 0 ],
					"destination" : [ "obj-38", 0 ],
					"hidden" : 0,
					"midpoints" : [  ]
				}

			}
, 			{
				"patchline" : 				{
					"source" : [ "obj-30", 0 ],
					"destination" : [ "obj-34", 0 ],
					"hidden" : 0,
					"midpoints" : [  ]
				}

			}
, 			{
				"patchline" : 				{
					"source" : [ "obj-33", 0 ],
					"destination" : [ "obj-34", 0 ],
					"hidden" : 0,
					"midpoints" : [  ]
				}

			}
, 			{
				"patchline" : 				{
					"source" : [ "obj-14", 0 ],
					"destination" : [ "obj-17", 1 ],
					"hidden" : 0,
					"midpoints" : [  ]
				}

			}
, 			{
				"patchline" : 				{
					"source" : [ "obj-25", 1 ],
					"destination" : [ "obj-31", 0 ],
					"hidden" : 0,
					"midpoints" : [  ]
				}

			}
, 			{
				"patchline" : 				{
					"source" : [ "obj-10", 0 ],
					"destination" : [ "obj-18", 0 ],
					"hidden" : 0,
					"midpoints" : [  ]
				}

			}
, 			{
				"patchline" : 				{
					"source" : [ "obj-22", 0 ],
					"destination" : [ "obj-20", 0 ],
					"hidden" : 0,
					"midpoints" : [  ]
				}

			}
, 			{
				"patchline" : 				{
					"source" : [ "obj-23", 0 ],
					"destination" : [ "obj-22", 0 ],
					"hidden" : 0,
					"midpoints" : [  ]
				}

			}
, 			{
				"patchline" : 				{
					"source" : [ "obj-9", 0 ],
					"destination" : [ "obj-22", 0 ],
					"hidden" : 0,
					"midpoints" : [  ]
				}

			}
, 			{
				"patchline" : 				{
					"source" : [ "obj-24", 1 ],
					"destination" : [ "obj-23", 0 ],
					"hidden" : 0,
					"midpoints" : [  ]
				}

			}
, 			{
				"patchline" : 				{
					"source" : [ "obj-21", 0 ],
					"destination" : [ "obj-24", 0 ],
					"hidden" : 0,
					"midpoints" : [  ]
				}

			}
, 			{
				"patchline" : 				{
					"source" : [ "obj-25", 0 ],
					"destination" : [ "obj-28", 0 ],
					"hidden" : 0,
					"midpoints" : [  ]
				}

			}
, 			{
				"patchline" : 				{
					"source" : [ "obj-5", 0 ],
					"destination" : [ "obj-25", 0 ],
					"hidden" : 0,
					"midpoints" : [ 431.5, 90.0, 29.5, 90.0 ]
				}

			}
, 			{
				"patchline" : 				{
					"source" : [ "obj-16", 0 ],
					"destination" : [ "obj-25", 0 ],
					"hidden" : 0,
					"midpoints" : [ 337.5, 90.0, 29.5, 90.0 ]
				}

			}
, 			{
				"patchline" : 				{
					"source" : [ "obj-15", 0 ],
					"destination" : [ "obj-25", 0 ],
					"hidden" : 0,
					"midpoints" : [ 257.5, 90.0, 29.5, 90.0 ]
				}

			}
, 			{
				"patchline" : 				{
					"source" : [ "obj-17", 0 ],
					"destination" : [ "obj-25", 0 ],
					"hidden" : 0,
					"midpoints" : [ 137.5, 90.0, 29.5, 90.0 ]
				}

			}
, 			{
				"patchline" : 				{
					"source" : [ "obj-18", 0 ],
					"destination" : [ "obj-25", 0 ],
					"hidden" : 0,
					"midpoints" : [ 73.5, 89.0, 29.5, 89.0 ]
				}

			}
, 			{
				"patchline" : 				{
					"source" : [ "obj-26", 0 ],
					"destination" : [ "obj-25", 0 ],
					"hidden" : 0,
					"midpoints" : [  ]
				}

			}
 ]
	}

}
