max v2;#N vpatcher 549 69 1360 839;#P window setfont "Sans Serif" 9.;#P window linecount 1;#P newex 467 239 31 196617 !/ 1.;#P newex 207 409 47 196617 *~ 0.01;#P number 343 138 35 9 0 0 0 3 0 0 0 221 221 221 222 222 222 0 0 0;#P number 422 40 35 9 0 0 0 3 0 0 0 221 221 221 222 222 222 0 0 0;#P newex 422 65 102 196617 prepend /oscillators;#P message 511 238 188 196617 size \$1 \, freqsmooth \$1 \, magsmooth \$1;#N comlet signal;#P outlet 170 488 15 0;#N comlet OSC messages;#P outlet 18 488 15 0;#P button 17 262 15 0;#P flonum 64 40 35 9 0 0 0 3 0 0 0 221 221 221 222 222 222 0 0 0;#P flonum 248 40 35 9 0 0 0 3 0 0 0 221 221 221 222 222 222 0 0 0;#P flonum 328 40 35 9 0 0 0 3 0 0 0 221 221 221 222 222 222 0 0 0;#P flonum 202 40 35 9 0 0 0 3 0 0 0 221 221 221 222 222 222 0 0 0;#P flonum 164 40 35 9 0 0 0 3 0 0 0 221 221 221 222 222 222 0 0 0;#P newex 248 65 73 196617 prepend /rate;#P newex 328 65 87 196617 prepend /spacing;#P newex 128 65 83 196617 pak /range 0. 0.;#P message 64 65 60 196617 /rolloff \$1;#N vpatcher 15 55 423 434;#P outlet 278 292 15 0;#P window setfont "Sans Serif" 9.;#P newex 278 263 50 196617 minimum;#P newex 278 240 55 196617 pak 10 10;#P newex 278 217 27 196617 i;#P newex 278 194 31 196617 !/ 1.;#P inlet 323 56 15 0;#P outlet 121 292 15 0;#P inlet 121 56 15 0;#P newex 121 167 34 196617 / 24.;#P outlet 195 292 15 0;#P newex 195 167 34 196617 / 24.;#P newex 52 97 27 196617 t b f;#P inlet 195 56 15 0;#P inlet 52 56 15 0;#P connect 0 0 2 0;#P connect 2 0 5 0;#P connect 6 0 5 0;#P connect 5 0 7 0;#P connect 2 1 5 1;#P connect 2 0 3 0;#P lcolor 8;#P connect 1 0 3 0;#P connect 3 0 4 0;#P connect 2 1 3 1;#P lcolor 8;#P connect 3 0 9 0;#P connect 9 0 10 0;#P connect 10 0 11 0;#P connect 11 0 12 0;#P connect 12 0 13 0;#P connect 8 0 11 1;#P pop;#P newobj 210 139 102 196617 p calculations;#P newex 34 308 105 196617 s $0_update_buffers;#P newex 20 211 48 196617 loadbang;#P newex 34 285 20 196617 t b;#P newex 34 262 52 196617 change 0.;#P newex 20 236 54 196617 dspstate~;#P newex 20 99 360 196617 jcom.oscroute /rolloff /range /rate /spacing /oscillators;#N comlet OSC messages;#P inlet 20 72 15 0;#P user gain~ 257 506 24 100 158 0 1.071519 7.94321 10.;#P newex 207 382 94 196617 wave~ $0_bell;#N vpatcher 10 59 590 476;#P window setfont "Sans Serif" 9.;#P window linecount 0;#P newex 50 47 105 196617 r $0_update_buffers;#P newex 365 137 129 196617 if $f1<0. then $f1 else -6.;#P newex 365 164 166 196617 expr sqrt(20/(log(10)*abs($f1)));#P newex 254 255 130 196617 if $f1<=0. then 1. else $f1;#P newex 98 284 163 196617 expr exp((-$f1*$f1)/($f2*$f2));#P newex 98 257 104 196617 scale 0. 4096. -1. 1.;#P window linecount 1;#P newex 80 193 20 196617 t b;#P newex 365 82 29 196617 qlim;#P inlet 365 35 15 0;#P newex 50 80 49 196617 t b 4097;#P newex 50 219 59 196617 uzi 4097 0;#P newex 50 336 58 196617 pack 0 0.;#P newex 50 359 74 196617 peek~ $0_bell;#P newex 145 152 103 196617 buffer~ $0_bell 100;#P newex 145 131 66 196617 prepend size;#P newex 89 103 66 196617 sampstoms~;#P connect 15 0 6 0;#P connect 6 0 5 0;#P connect 9 0 5 0;#P connect 5 2 4 0;#P connect 4 0 3 0;#P fasten 13 0 9 0 370 187 85 187;#P connect 6 1 0 0;#P connect 5 2 10 0;#P connect 10 0 11 0;#P connect 11 0 4 1;#P connect 0 1 1 0;#P connect 1 0 2 0;#P connect 12 0 11 1;#P fasten 13 0 12 0 370 218 259 218;#P connect 7 0 8 0;#P connect 8 0 14 0;#P connect 14 0 13 0;#P pop;#P newobj 20 139 68 196617 p buffer_bell;#P newex 266 322 83 196617 r $0_table_size;#P newex 198 292 90 196617 loadmess interp 1;#N vpatcher 22 194 735 658;#P outlet 374 362 15 0;#P window setfont "Sans Serif" 9.;#P window linecount 0;#P newex 374 290 27 196617 !- 0.;#P newex 50 27 105 196617 r $0_update_buffers;#P newex 262 146 72 196617 s $0_table_size;#P newex 374 197 40 196617 zl sort;#P newex 80 186 20 196617 t b;#P newex 374 79 29 196617 qlim;#P inlet 374 30 15 0;#P newex 50 73 49 196617 t b 4097;#P newex 50 212 59 196617 uzi 4097 0;#P newex 50 329 58 196617 pack 0 0.;#P newex 50 352 112 196617 peek~ $0_frequency 100;#P newex 145 145 111 196617 buffer~ $0_frequency;#P newex 145 124 66 196617 prepend size;#P newex 89 96 66 196617 sampstoms~;#P newex 98 305 31 196617 mtof;#P window linecount 1;#P newex 374 229 64 196617 unpack 0. 0.;#P newex 98 277 129 196617 scale 0. 4096. 200. 1000.;#P comment 522 232 100 196617 delta range;#P connect 16 0 10 0;#P connect 13 0 9 0;#P connect 10 0 9 0;#P connect 9 2 8 0;#P connect 8 0 7 0;#P fasten 12 0 13 0 379 176 85 176;#P connect 10 1 4 0;#P connect 9 2 1 0;#P connect 1 0 3 0;#P connect 3 0 8 1;#P connect 4 1 5 0;#P connect 5 0 6 0;#P fasten 2 0 1 3 379 252 172 252;#P fasten 2 1 1 4 433 264 195 264;#P fasten 4 1 15 0 150 118 267 118;#P connect 11 0 12 0;#P connect 12 0 14 0;#P connect 14 0 2 0;#P connect 2 0 17 0;#P connect 17 0 18 0;#P connect 2 1 17 1;#P pop;#P newobj 90 139 97 196617 p buffer_frequency;#N vpatcher 10 59 307 336;#P window setfont "Sans Serif" 9.;#P window linecount 1;#P newex 50 26 105 196617 r $0_update_buffers;#P window linecount 0;#P newex 50 50 43 196617 t b 513;#P newex 50 151 53 196617 uzi 513 0;#P newex 50 203 52 196617 pack 0 0.;#P newex 50 226 116 196617 peek~ $0_modulo_1 12;#P newex 92 179 93 196617 scale 0. 513. 0. 1.;#P newex 139 122 109 196617 buffer~ $0_modulo_1;#P newex 139 101 66 196617 prepend size;#P newex 83 73 66 196617 sampstoms~;#P connect 8 0 7 0;#P connect 7 0 6 0;#P connect 6 2 5 0;#P connect 5 0 4 0;#P connect 7 1 0 0;#P connect 6 2 3 0;#P connect 3 0 5 1;#P connect 0 1 1 0;#P connect 1 0 2 0;#P pop;#P newobj 20 179 95 196617 p buffer_modulo_1;#P newex 170 237 105 196617 cycle~ $0_modulo_1;#P newex 170 353 107 196617 wave~ $0_frequency;#P user gain~ 227 506 24 100 158 0 1.071519 7.94321 10.;#P newex 316 200 27 196617 *~;#P user ezdac~ 227 641 271 674 0;#P newex 265 200 46 196617 phasor~;#P newex 365 174 82 196617 count~ 0 10 1 1;#P newex 170 450 123 196617 ioscbank~ 10 10 10;#P fasten 36 0 16 0 427 90 25 90;#P fasten 25 0 16 0 333 90 25 90;#P fasten 26 0 16 0 253 90 25 90;#P fasten 24 0 16 0 133 90 25 90;#P fasten 23 0 16 0 69 89 25 89;#P connect 15 0 16 0;#P connect 16 0 12 0;#P connect 20 0 17 0;#P connect 17 1 18 0;#P connect 18 0 19 0;#P connect 32 0 19 0;#P connect 19 0 21 0;#P connect 31 0 23 0;#P connect 16 1 9 0;#P connect 27 0 24 1;#P connect 7 0 6 0;#P connect 10 0 6 0;#P fasten 35 0 0 0 516 437 175 437;#P connect 6 0 0 0;#P connect 0 0 34 0;#P connect 28 0 24 2;#P connect 7 0 13 0;#P connect 13 0 39 0;#P connect 39 0 0 1;#P fasten 9 0 22 0 95 163 190 163 190 134 215 134;#P connect 0 0 5 0;#P connect 5 0 3 0;#P fasten 16 2 22 1 165 128 245 128;#P fasten 40 0 39 1 472 401 249 401;#P connect 30 0 26 0;#P connect 0 0 14 0;#P connect 5 1 14 0;#P connect 14 0 3 1;#P connect 22 0 2 0;#P connect 2 0 7 1;#P connect 4 0 7 1;#P connect 11 0 6 2;#P fasten 16 3 22 2 235 123 275 123;#P fasten 1 0 0 3 370 443 286 443;#P connect 11 0 13 2;#P connect 16 4 22 3;#P connect 1 0 4 0;#P connect 29 0 25 0;#P connect 22 1 4 1;#P connect 22 2 38 0;#P connect 37 0 36 0;#P fasten 22 2 1 1 307 165 442 165;#P fasten 22 2 40 0 307 163 472 163;#P fasten 22 2 35 0 307 161 516 161;#P pop;