max v2;#N vpatcher 248 74 1074 816;#P window setfont "Sans Serif" 9.;#P window linecount 1;#P newex 583 401 105 196617 s $0_update_buffers;#P newex 569 304 48 196617 loadbang;#P newex 583 378 20 196617 t b;#P newex 583 355 52 196617 change 0.;#P newex 569 329 54 196617 dspstate~;#P newex 15 81 112 196617 jcom.oscroute /rolloff;#P inlet 15 55 15 0;#P user gain~ 285 494 24 100 158 0 1.071519 7.94321 10.;#P flonum 26 109 98 9 0 0 0 3 0 0 0 221 221 221 222 222 222 0 0 0;#P newex 292 315 78 196617 wave~ $0_bell;#N vpatcher 10 59 590 476;#P window setfont "Sans Serif" 9.;#P window linecount 1;#P newex 50 47 105 196617 r $0_update_buffers;#P window linecount 0;#P newex 365 137 129 196617 if $f1<0. then $f1 else -6.;#P newex 365 164 166 196617 expr sqrt(20/(log(10)*abs($f1)));#P newex 254 255 130 196617 if $f1<=0. then 1. else $f1;#P newex 98 284 163 196617 expr exp((-$f1*$f1)/($f2*$f2));#P newex 98 257 104 196617 scale 0. 4096. -1. 1.;#P window linecount 1;#P newex 262 153 77 196617 s $0_bell_size;#P newex 80 193 20 196617 t b;#P newex 365 82 29 196617 qlim;#P inlet 365 35 15 0;#P newex 50 80 49 196617 t b 4097;#P newex 50 219 59 196617 uzi 4097 0;#P newex 50 336 58 196617 pack 0 0.;#P newex 50 359 74 196617 peek~ $0_bell;#P newex 145 152 103 196617 buffer~ $0_bell 100;#P newex 145 131 66 196617 prepend size;#P newex 89 103 66 196617 sampstoms~;#P connect 16 0 6 0;#P connect 6 0 5 0;#P connect 9 0 5 0;#P connect 5 2 4 0;#P connect 4 0 3 0;#P fasten 14 0 9 0 370 187 85 187;#P connect 6 1 0 0;#P connect 5 2 11 0;#P connect 11 0 12 0;#P connect 12 0 4 1;#P connect 0 1 1 0;#P connect 1 0 2 0;#P connect 13 0 12 1;#P fasten 14 0 13 0 370 218 259 218;#P fasten 0 1 10 0 150 125 267 125;#P connect 7 0 8 0;#P connect 8 0 15 0;#P connect 15 0 14 0;#P pop;#P newobj 15 142 68 196617 p buffer_bell;#P button 649 483 15 0;#P newex 456 259 106 196617 r $0_frequency_size;#P newex 454 232 90 196617 loadmess interp 1;#P number 735 429 35 9 0 0 0 3 0 0 0 221 221 221 222 222 222 0 0 0;#P number 692 429 35 9 0 0 0 3 0 0 0 221 221 221 222 222 222 0 0 0;#N vpatcher 10 59 822 618;#P window setfont "Sans Serif" 9.;#P window linecount 0;#P newex 262 126 106 196617 s $0_frequency_size;#P newex 374 188 40 196617 zl sort;#P newex 374 167 49 196617 pak 0. 0.;#P newex 80 166 20 196617 t b;#P window linecount 1;#P newex 413 59 29 196617 qlim;#P inlet 413 30 15 0;#P window linecount 0;#P newex 374 59 29 196617 qlim;#P inlet 374 30 15 0;#P newex 50 53 49 196617 t b 4097;#P newex 50 192 59 196617 uzi 4097 0;#P newex 50 309 58 196617 pack 0 0.;#P newex 50 332 103 196617 peek~ $0_frequency;#P newex 145 125 111 196617 buffer~ $0_frequency;#P newex 145 104 66 196617 prepend size;#P newex 89 76 66 196617 sampstoms~;#P inlet 50 30 15 0;#P newex 98 285 31 196617 mtof;#P window linecount 1;#P newex 374 209 64 196617 unpack 0. 0.;#P newex 98 257 129 196617 scale 0. 4096. 200. 1000.;#P connect 3 0 10 0;#P connect 15 0 9 0;#P connect 10 0 9 0;#P connect 9 2 8 0;#P connect 8 0 7 0;#P fasten 14 0 15 0 418 158 85 158;#P fasten 12 0 15 0 379 156 85 156;#P connect 10 1 4 0;#P connect 9 2 0 0;#P connect 0 0 2 0;#P connect 2 0 8 1;#P connect 4 1 5 0;#P connect 5 0 6 0;#P fasten 1 0 0 3 379 232 172 232;#P fasten 1 1 0 4 433 244 195 244;#P fasten 4 1 18 0 150 98 267 98;#P connect 11 0 12 0;#P connect 12 0 16 0;#P connect 16 0 17 0;#P connect 17 0 1 0;#P connect 13 0 14 0;#P connect 14 0 16 1;#P pop;#P newobj 649 450 97 196617 p buffer_frequency;#P button 649 429 15 0;#N vpatcher 10 59 307 336;#P window setfont "Sans Serif" 9.;#P newex 50 50 43 196617 t b 513;#P newex 50 151 53 196617 uzi 513 0;#P newex 50 203 52 196617 pack 0 0.;#P newex 50 226 101 196617 peek~ $0_modulo_1;#P newex 92 179 93 196617 scale 0. 513. 0. 1.;#P newex 139 122 109 196617 buffer~ $0_modulo_1;#P newex 139 101 66 196617 prepend size;#P newex 83 73 66 196617 sampstoms~;#P inlet 50 30 15 0;#P connect 0 0 8 0;#P connect 8 0 7 0;#P connect 7 2 6 0;#P connect 6 0 5 0;#P connect 8 1 1 0;#P connect 7 2 4 0;#P connect 4 0 6 1;#P connect 1 1 2 0;#P connect 2 0 3 0;#P pop;#P newobj 649 401 95 196617 p buffer_modulo_1;#P button 649 380 15 0;#P newex 255 170 105 196617 cycle~ $0_modulo_1;#P flonum 422 76 35 9 0 0 0 3 0 0 0 221 221 221 222 222 222 0 0 0;#P newex 255 286 107 196617 wave~ $0_frequency;#P user gain~ 255 493 24 100 158 0 1.071519 7.94321 10.;#P newex 405 133 27 196617 *~;#P user ezdac~ 255 628 299 661 0;#P flonum 350 78 43 9 0 0 0 3 0 0 0 221 221 221 222 222 222 0 0 0;#P newex 350 133 46 196617 phasor~;#P newex 469 74 82 196617 count~ 0 10 1 1;#P newex 255 460 123 196617 ioscbank~ 10 10 10;#P connect 23 0 24 0;#P connect 21 0 19 0;#P connect 24 0 21 0;#P connect 9 0 7 0;#P connect 16 0 7 0;#P connect 7 0 0 0;#P connect 0 0 6 0;#P connect 6 0 4 0;#P connect 0 0 22 0;#P connect 6 1 22 0;#P connect 22 0 4 1;#P connect 9 0 20 0;#P connect 20 0 0 1;#P connect 3 0 2 0;#P connect 2 0 9 1;#P connect 5 0 9 1;#P connect 17 0 7 2;#P connect 1 0 0 3;#P connect 1 0 5 0;#P connect 8 0 5 1;#P connect 28 0 25 0;#P connect 25 1 26 0;#P connect 26 0 27 0;#P connect 27 0 29 0;#P connect 10 0 11 0;#P connect 12 0 13 0;#P connect 14 0 13 1;#P connect 15 0 13 2;#P pop;