max v2;#N vpatcher 104 83 1153 676;#P window setfont "Sans Serif" 9.;#P hidden newex 600 332 64 196617 pvar Rolloff;#P window linecount 3;#P hidden newex 600 353 304 196617 jcom.parameter rolloff @type msg_float @range -96 0. @clipmode high @ramp/drive scheduler @ramp/function linear @description "Rolloff in dB for the Gaussian windowing function.";#P objectname rolloff;#P window linecount 1;#P hidden newex 600 255 83 196617 pvar Oscillators;#P window linecount 3;#P hidden newex 600 276 375 196617 jcom.parameter oscillators @type msg_int @range 1 64 @clipmode both @ramp/drive none @description "Maximum number of oscillators to use. Tha actual number of oscillators used might be lower\\\, depending on range and spacing.";#P objectname oscillators;#P window linecount 1;#P hidden newex 601 177 54 196617 pvar Rate;#P window linecount 3;#P hidden newex 601 198 326 196617 jcom.parameter rate @type msg_float @range -12 12 @clipmode none @ramp/drive scheduler @ramp/function linear @description "Rate of the glissando movement as MIDI pitch difference per second.";#P objectname rate;#P window linecount 1;#P hidden newex 601 99 68 196617 pvar Spacing;#P window linecount 3;#P hidden newex 601 120 307 196617 jcom.parameter spacing @type msg_float @range 0 12 @clipmode low @ramp/drive scheduler @ramp/function linear @description "Spacing between adjecent oscillators (as MIDI values).";#P objectname spacing;#P window linecount 2;#P hidden newex 601 57 333 196617 jcom.parameter range @type msg_list @ramp/drive scheduler @ramp/function linear @description "The range of the sweeps as MIDI values.";#P objectname range;#P window linecount 1;#P hidden newex 535 32 79 196617 pvar RangeHigh;#P hidden newex 454 32 78 196617 pvar RangeLow;#P number 223 17 35 9 1 64 8227 3 181 181 181 221 221 221 255 255 255 0 0 0;#P objectname Oscillators;#P flonum 223 31 40 9 0 0. 8226 3 181 181 181 221 221 221 255 255 255 0 0 0;#P objectname Rolloff;#P flonum 117 32 40 9 0. 0 8225 3 181 181 181 221 221 221 255 255 255 0 0 0;#P objectname Spacing;#P flonum 117 46 40 9 0 0 8224 3 181 181 181 221 221 221 255 255 255 0 0 0;#P objectname Rate;#P flonum 117 18 40 9 0. 127. 8227 3 181 181 181 221 221 221 255 255 255 0 0 0;#P objectname RangeHigh;#P comment 159 33 64 196617 Rolloff (dB):;#B frgb 149 149 149;#P comment 4 47 107 196617 Glissando Rate (MIDI):;#B frgb 149 149 149;#P comment 159 19 64 196617 Oscillators:;#B frgb 149 149 149;#P hidden newex 454 57 144 196617 jcom.list2parameter.mxt 2;#P hidden newex 77 251 58 196617 jcom.in~ 0;#P hidden newex 210 300 47 196617 pcontrol;#P hidden newex 77 276 143 196617 jcom.algorithm_control~.mxt;#P hidden message 105 78 191 196617 /preset/store 1 default \, /preset/write;#B color 3;#P hidden newex 201 377 64 196617 jcom.out~ 1;#P hidden message 113 100 125 196617 /documentation/generate;#B color 3;#P window linecount 2;#P hidden message 98 178 65 196617 \; max refresh;#P hidden newex 15 134 313 196617 jcom.hub jmod.rissetGlissando~ @size 1U-half @module_type audio @description "Audio module generating Risset/Shepard glissando.";#P objectname jcom.hub;#P window linecount 1;#P hidden comment 29 101 79 196617 command input;#P hidden inlet 15 101 13 0;#P hidden message 244 100 31 196617 /init;#P hidden outlet 201 406 13 0;#P flonum 76 18 40 9 0. 127. 8227 3 181 181 181 221 221 221 255 255 255 0 0 0;#P objectname RangeLow;#P comment 4 33 75 196617 Spacing (MIDI):;#B frgb 149 149 149;#P comment 4 19 71 196617 Range (MIDI):;#B frgb 149 149 149;#P hidden newex 77 347 134 196617 jalg.rissetGlissando~.mxt;#P hidden outlet 15 177 13 0;#P hidden comment 174 424 101 196617 ---signal outputs---;#P bpatcher 0 0 256 60 0 0 jcom.gui.mxt 0 $0_;#P objectname jmod.gui.1Uh.a.stereo.mxt;#P hidden fasten 15 0 11 0 110 121 20 121;#P hidden connect 9 0 11 0;#P hidden fasten 13 0 11 0 118 121 20 121;#P hidden fasten 8 0 11 0 249 122 20 122;#P hidden connect 11 0 2 0;#P hidden connect 18 0 16 0;#P hidden fasten 17 0 3 0 215 335 82 335;#P hidden fasten 16 0 3 0 82 335 82 335;#P hidden connect 3 1 14 0;#P hidden connect 14 0 7 0;#P hidden connect 16 1 17 0;#P hidden fasten 19 0 28 0 459 78 448 78 448 28 459 28;#P hidden connect 28 0 19 0;#P hidden fasten 29 0 19 1 540 53 472 53;#P hidden fasten 19 1 29 0 472 81 444 81 444 25 540 25;#P hidden connect 30 0 19 10;#P hidden fasten 35 0 36 0 605 323 594 323 594 249 605 249;#P hidden connect 36 0 35 0;#P hidden fasten 37 0 38 0 605 400 594 400 594 326 605 326;#P hidden connect 38 0 37 0;#P hidden connect 19 10 30 0;#P hidden fasten 31 0 32 0 606 167 595 167 595 93 606 93;#P hidden connect 32 0 31 0;#P hidden fasten 33 0 34 0 606 245 595 245 595 171 606 171;#P hidden connect 34 0 33 0;#P pop;