max v2;
#N vpatcher 148 71 928 691;
#P window setfont "Sans Serif" 9.;
#P window linecount 1;
#P hidden newex 109 190 87 196617 jcom.saturation~;
#P hidden message 114 328 191 196617 /preset/store 1 default \, /preset/write;
#B color 3;
#P window linecount 2;
#P hidden newex 426 337 238 196617 jcom.parameter mode @type msg_symbol @description "Mode: Table used for waveshaping.";
#P objectname mode;
#P window linecount 1;
#P hidden newex 426 313 66 196617 pvar Mode 2;
#P user umenu 163 25 67 196647 1 64 41 1;
#X add s-shaped;
#X add sinus;
#P objectname Mode;
#P window linecount 2;
#P hidden newex 426 190 329 196617 jcom.parameter preamp @ramp/drive scheduler @repetitions 0 @type msg_float @range -12 48 @clipmode none @description "Preamp (dB).";
#P objectname preamp;
#P window linecount 1;
#P hidden newex 426 168 70 196617 pvar PreAmp;
#P flonum 87 43 40 9 0. 99. 8227 3 198 198 198 221 221 221 222 222 222 0 0 0;
#P objectname PreAmp;
#P comment 15 44 66 196617 Preamp (dB);
#B frgb 172 172 172;
#P hidden newex 109 216 64 196617 jcom.out~ 2;
#P hidden newex 109 158 150 196617 jcom.in~ 2;
#P hidden message 130 346 125 196617 /documentation/generate;
#P hidden newex 426 242 105 196617 pvar SaturationDepth;
#P window linecount 2;
#P hidden newex 426 263 325 196617 jcom.parameter depth @ramp/drive scheduler @repetitions 0 @type msg_float @range 0 99 @clipmode both @description "Saturation: Depth.";
#P objectname depth;
#P hidden message 57 422 65 196617 \; max refresh;
#P hidden newex 13 373 264 196617 jcom.hub jmod.saturation~ @size 1U-half @module_type audio @description "Saturation (distortion) effect.";
#P objectname jcom.hub;
#P window linecount 1;
#P hidden comment 27 345 79 196617 command input;
#P hidden inlet 13 345 13 0;
#P hidden message 258 346 37 196617 /init;
#P hidden inlet 109 138 13 0;
#P hidden outlet 109 242 13 0;
#P flonum 87 26 40 9 0. 99. 8227 3 198 198 198 221 221 221 222 222 222 0 0 0;
#P objectname SaturationDepth;
#P hidden inlet 249 138 13 0;
#P comment 16 28 67 196617 Depth (%);
#B frgb 172 172 172;
#P hidden comment 102 120 105 196617 ----signal inputs----;
#P hidden outlet 13 416 13 0;
#P hidden outlet 136 242 13 0;
#P hidden comment 88 259 101 196617 ---signal outputs---;
#P bpatcher 0 0 256 60 0 0 jcom.gui.mxt 0;
#P objectname jcom.gui.1Uh.a.stereo.mxt;
#P hidden fasten 17 0 13 0 135 367 18 367;
#P hidden connect 11 0 13 0;
#P hidden fasten 10 0 13 0 263 367 18 367;
#P hidden fasten 27 0 13 0 119 367 18 367;
#P hidden connect 13 0 3 0;
#P hidden connect 9 0 18 0;
#P hidden fasten 18 2 28 0 206 183 114 183;
#P hidden connect 18 0 28 0;
#P hidden connect 28 0 19 0;
#P hidden connect 19 0 8 0;
#P hidden connect 19 1 2 0;
#P hidden connect 28 1 19 1;
#P hidden connect 18 1 28 1;
#P hidden connect 6 0 18 1;
#P hidden fasten 23 0 22 0 431 223 422 223 422 160 431 160;
#P hidden connect 22 0 23 0;
#P hidden fasten 15 0 16 0 431 301 421 301 421 236 431 236;
#P hidden connect 16 0 15 0;
#P hidden fasten 26 0 25 0 431 372 419 372 419 307 431 307;
#P hidden fasten 25 1 26 0 487 333 431 333;
#P pop;
