{
	"patcher" : 	{
		"rect" : [ 148.0, 71.0, 780.0, 646.0 ],
		"bgcolor" : [ 1.0, 1.0, 1.0, 1.0 ],
		"bglocked" : 0,
		"defrect" : [ 148.0, 71.0, 780.0, 646.0 ],
		"openinpresentation" : 0,
		"default_fontsize" : 10.0,
		"default_fontface" : 0,
		"default_fontname" : "Verdana",
		"gridonopen" : 0,
		"gridsize" : [ 15.0, 15.0 ],
		"gridsnaponopen" : 0,
		"toolbarvisible" : 1,
		"boxfadetime" : 200,
		"boxanimatetime" : 200,
		"scrollanimatetime" : 200,
		"metadata" : [  ],
		"boxes" : [ 			{
				"box" : 				{
					"maxclass" : "newobj",
					"text" : "jcom.saturation~",
					"patching_rect" : [ 109.0, 190.0, 87.0, 17.0 ],
					"fontname" : "Verdana",
					"numinlets" : 2,
					"hidden" : 1,
					"id" : "obj-1",
					"numoutlets" : 2,
					"outlettype" : [ "", "" ],
					"fontsize" : 9.0
				}

			}
, 			{
				"box" : 				{
					"maxclass" : "message",
					"text" : "\/preset\/store 1 default, \/preset\/write",
					"patching_rect" : [ 114.0, 328.0, 191.0, 15.0 ],
					"fontname" : "Verdana",
					"numinlets" : 2,
					"hidden" : 1,
					"id" : "obj-2",
					"numoutlets" : 1,
					"outlettype" : [ "" ],
					"bgcolor" : [ 0.8, 0.54902, 0.54902, 1.0 ],
					"fontsize" : 9.0
				}

			}
, 			{
				"box" : 				{
					"maxclass" : "newobj",
					"varname" : "mode",
					"text" : "jcom.parameter mode @type msg_symbol @description \"Mode: Table used for waveshaping.\"",
					"linecount" : 2,
					"patching_rect" : [ 426.0, 337.0, 239.0, 28.0 ],
					"fontname" : "Verdana",
					"numinlets" : 1,
					"hidden" : 1,
					"id" : "obj-3",
					"numoutlets" : 1,
					"outlettype" : [ "" ],
					"fontsize" : 9.0
				}

			}
, 			{
				"box" : 				{
					"maxclass" : "newobj",
					"text" : "pvar Mode 2",
					"patching_rect" : [ 426.0, 313.0, 66.0, 17.0 ],
					"fontname" : "Verdana",
					"numinlets" : 1,
					"hidden" : 1,
					"id" : "obj-4",
					"numoutlets" : 2,
					"outlettype" : [ "", "" ],
					"fontsize" : 9.0
				}

			}
, 			{
				"box" : 				{
					"maxclass" : "umenu",
					"varname" : "Mode",
					"patching_rect" : [ 163.0, 25.0, 67.0, 17.0 ],
					"fontname" : "Verdana",
					"numinlets" : 1,
					"labelclick" : 1,
					"types" : [  ],
					"id" : "obj-5",
					"numoutlets" : 3,
					"items" : [ "s-shaped", ",", "sinus" ],
					"outlettype" : [ "int", "", "" ],
					"fontsize" : 9.0
				}

			}
, 			{
				"box" : 				{
					"maxclass" : "newobj",
					"varname" : "preamp",
					"text" : "jcom.parameter preamp @ramp/drive scheduler @repetitions 0 @type msg_float @range/bounds -12 48 @range/clipmode none @description \"Preamp (dB).\"",
					"linecount" : 2,
					"patching_rect" : [ 426.0, 190.0, 329.0, 28.0 ],
					"fontname" : "Verdana",
					"numinlets" : 1,
					"hidden" : 1,
					"id" : "obj-6",
					"numoutlets" : 1,
					"outlettype" : [ "" ],
					"fontsize" : 9.0
				}

			}
, 			{
				"box" : 				{
					"maxclass" : "newobj",
					"text" : "pvar PreAmp",
					"patching_rect" : [ 426.0, 168.0, 70.0, 17.0 ],
					"fontname" : "Verdana",
					"numinlets" : 1,
					"hidden" : 1,
					"id" : "obj-7",
					"numoutlets" : 1,
					"outlettype" : [ "" ],
					"fontsize" : 9.0
				}

			}
, 			{
				"box" : 				{
					"maxclass" : "flonum",
					"varname" : "PreAmp",
					"patching_rect" : [ 87.0, 43.0, 40.0, 17.0 ],
					"transparent" : 1,
					"htextcolor" : [ 0.870588, 0.870588, 0.870588, 1.0 ],
					"fontname" : "Verdana",
					"numinlets" : 1,
					"triangle" : 0,
					"maximum" : 99.0,
					"id" : "obj-8",
					"numoutlets" : 2,
					"minimum" : 0.0,
					"textcolor" : [ 0.776471, 0.776471, 0.776471, 1.0 ],
					"outlettype" : [ "float", "bang" ],
					"bgcolor" : [ 0.866667, 0.866667, 0.866667, 1.0 ],
					"fontsize" : 9.0,
					"triscale" : 0.9
				}

			}
, 			{
				"box" : 				{
					"maxclass" : "comment",
					"text" : "Preamp (dB)",
					"patching_rect" : [ 15.0, 44.0, 66.0, 17.0 ],
					"fontname" : "Verdana",
					"numinlets" : 1,
					"id" : "obj-9",
					"numoutlets" : 0,
					"frgb" : [ 0.67451, 0.67451, 0.67451, 1.0 ],
					"textcolor" : [ 0.67451, 0.67451, 0.67451, 1.0 ],
					"fontsize" : 9.0
				}

			}
, 			{
				"box" : 				{
					"maxclass" : "newobj",
					"text" : "jcom.out~ 2",
					"patching_rect" : [ 109.0, 216.0, 64.0, 17.0 ],
					"fontname" : "Verdana",
					"numinlets" : 2,
					"hidden" : 1,
					"id" : "obj-10",
					"numoutlets" : 2,
					"outlettype" : [ "", "" ],
					"fontsize" : 9.0
				}

			}
, 			{
				"box" : 				{
					"maxclass" : "newobj",
					"text" : "jcom.in~ 2",
					"patching_rect" : [ 109.0, 158.0, 150.0, 17.0 ],
					"fontname" : "Verdana",
					"numinlets" : 2,
					"hidden" : 1,
					"id" : "obj-11",
					"numoutlets" : 3,
					"outlettype" : [ "", "", "" ],
					"fontsize" : 9.0
				}

			}
, 			{
				"box" : 				{
					"maxclass" : "message",
					"text" : "\/documentation\/generate",
					"patching_rect" : [ 130.0, 346.0, 125.0, 15.0 ],
					"fontname" : "Verdana",
					"numinlets" : 2,
					"hidden" : 1,
					"id" : "obj-12",
					"numoutlets" : 1,
					"outlettype" : [ "" ],
					"fontsize" : 9.0
				}

			}
, 			{
				"box" : 				{
					"maxclass" : "newobj",
					"text" : "pvar SaturationDepth",
					"patching_rect" : [ 426.0, 242.0, 105.0, 17.0 ],
					"fontname" : "Verdana",
					"numinlets" : 1,
					"hidden" : 1,
					"id" : "obj-13",
					"numoutlets" : 1,
					"outlettype" : [ "" ],
					"fontsize" : 9.0
				}

			}
, 			{
				"box" : 				{
					"maxclass" : "newobj",
					"varname" : "depth",
					"text" : "jcom.parameter depth @ramp/drive scheduler @repetitions 0 @type msg_float @range/bounds 0 99 @range/clipmode both @description \"Saturation: Depth.\"",
					"linecount" : 2,
					"patching_rect" : [ 426.0, 263.0, 325.0, 28.0 ],
					"fontname" : "Verdana",
					"numinlets" : 1,
					"hidden" : 1,
					"id" : "obj-14",
					"numoutlets" : 1,
					"outlettype" : [ "" ],
					"fontsize" : 9.0
				}

			}
, 			{
				"box" : 				{
					"maxclass" : "message",
					"text" : ";\rmax refresh",
					"linecount" : 2,
					"patching_rect" : [ 57.0, 422.0, 65.0, 26.0 ],
					"fontname" : "Verdana",
					"numinlets" : 2,
					"hidden" : 1,
					"id" : "obj-15",
					"numoutlets" : 1,
					"outlettype" : [ "" ],
					"fontsize" : 9.0
				}

			}
, 			{
				"box" : 				{
					"maxclass" : "newobj",
					"varname" : "jcom.hub",
					"text" : "jcom.hub jmod.saturation~ @size 1U-half @module_type audio @description \"Saturation (distortion) effect.\"",
					"linecount" : 2,
					"patching_rect" : [ 13.0, 373.0, 264.0, 28.0 ],
					"fontname" : "Verdana",
					"numinlets" : 1,
					"hidden" : 1,
					"id" : "obj-16",
					"numoutlets" : 2,
					"outlettype" : [ "", "" ],
					"fontsize" : 9.0
				}

			}
, 			{
				"box" : 				{
					"maxclass" : "comment",
					"text" : "command input",
					"patching_rect" : [ 27.0, 345.0, 79.0, 17.0 ],
					"fontname" : "Verdana",
					"numinlets" : 1,
					"hidden" : 1,
					"id" : "obj-17",
					"numoutlets" : 0,
					"fontsize" : 9.0
				}

			}
, 			{
				"box" : 				{
					"maxclass" : "inlet",
					"patching_rect" : [ 13.0, 345.0, 13.0, 13.0 ],
					"numinlets" : 0,
					"hidden" : 1,
					"id" : "obj-18",
					"numoutlets" : 1,
					"outlettype" : [ "" ],
					"comment" : ""
				}

			}
, 			{
				"box" : 				{
					"maxclass" : "message",
					"text" : "\/init",
					"patching_rect" : [ 258.0, 346.0, 37.0, 15.0 ],
					"fontname" : "Verdana",
					"numinlets" : 2,
					"hidden" : 1,
					"id" : "obj-19",
					"numoutlets" : 1,
					"outlettype" : [ "" ],
					"fontsize" : 9.0
				}

			}
, 			{
				"box" : 				{
					"maxclass" : "inlet",
					"patching_rect" : [ 109.0, 138.0, 13.0, 13.0 ],
					"numinlets" : 0,
					"hidden" : 1,
					"id" : "obj-20",
					"numoutlets" : 1,
					"outlettype" : [ "" ],
					"comment" : ""
				}

			}
, 			{
				"box" : 				{
					"maxclass" : "outlet",
					"patching_rect" : [ 109.0, 242.0, 13.0, 13.0 ],
					"numinlets" : 1,
					"hidden" : 1,
					"id" : "obj-21",
					"numoutlets" : 0,
					"comment" : ""
				}

			}
, 			{
				"box" : 				{
					"maxclass" : "flonum",
					"varname" : "SaturationDepth",
					"patching_rect" : [ 87.0, 26.0, 40.0, 17.0 ],
					"transparent" : 1,
					"htextcolor" : [ 0.870588, 0.870588, 0.870588, 1.0 ],
					"fontname" : "Verdana",
					"numinlets" : 1,
					"triangle" : 0,
					"maximum" : 99.0,
					"id" : "obj-22",
					"numoutlets" : 2,
					"minimum" : 0.0,
					"textcolor" : [ 0.776471, 0.776471, 0.776471, 1.0 ],
					"outlettype" : [ "float", "bang" ],
					"bgcolor" : [ 0.866667, 0.866667, 0.866667, 1.0 ],
					"fontsize" : 9.0,
					"triscale" : 0.9
				}

			}
, 			{
				"box" : 				{
					"maxclass" : "inlet",
					"patching_rect" : [ 249.0, 138.0, 13.0, 13.0 ],
					"numinlets" : 0,
					"hidden" : 1,
					"id" : "obj-23",
					"numoutlets" : 1,
					"outlettype" : [ "" ],
					"comment" : ""
				}

			}
, 			{
				"box" : 				{
					"maxclass" : "comment",
					"text" : "Depth (%)",
					"patching_rect" : [ 16.0, 28.0, 67.0, 17.0 ],
					"fontname" : "Verdana",
					"numinlets" : 1,
					"id" : "obj-24",
					"numoutlets" : 0,
					"frgb" : [ 0.67451, 0.67451, 0.67451, 1.0 ],
					"textcolor" : [ 0.67451, 0.67451, 0.67451, 1.0 ],
					"fontsize" : 9.0
				}

			}
, 			{
				"box" : 				{
					"maxclass" : "comment",
					"text" : "----signal inputs----",
					"patching_rect" : [ 102.0, 120.0, 105.0, 17.0 ],
					"fontname" : "Verdana",
					"numinlets" : 1,
					"hidden" : 1,
					"id" : "obj-25",
					"numoutlets" : 0,
					"fontsize" : 9.0
				}

			}
, 			{
				"box" : 				{
					"maxclass" : "outlet",
					"patching_rect" : [ 13.0, 416.0, 13.0, 13.0 ],
					"numinlets" : 1,
					"hidden" : 1,
					"id" : "obj-26",
					"numoutlets" : 0,
					"comment" : ""
				}

			}
, 			{
				"box" : 				{
					"maxclass" : "outlet",
					"patching_rect" : [ 136.0, 242.0, 13.0, 13.0 ],
					"numinlets" : 1,
					"hidden" : 1,
					"id" : "obj-27",
					"numoutlets" : 0,
					"comment" : ""
				}

			}
, 			{
				"box" : 				{
					"maxclass" : "comment",
					"text" : "---signal outputs---",
					"patching_rect" : [ 88.0, 259.0, 101.0, 17.0 ],
					"fontname" : "Verdana",
					"numinlets" : 1,
					"hidden" : 1,
					"id" : "obj-28",
					"numoutlets" : 0,
					"fontsize" : 9.0
				}

			}
, 			{
				"box" : 				{
					"maxclass" : "jcom.ui",
					"text" : "\/Jamoma",
					"color" : [ 1.0, 1.0, 1.0, 1.0 ],
					"numinlets" : 1,
					"id" : "obj-29",
					"numoutlets" : 1,
					"textcolor" : [ 0.65, 0.65, 0.65, 1.0 ],
					"outlettype" : [ "" ]
				}

			}
 ],
		"lines" : [ 			{
				"patchline" : 				{
					"source" : [ "obj-12", 0 ],
					"destination" : [ "obj-16", 0 ],
					"hidden" : 1,
					"midpoints" : [ 139.5, 367.0, 22.5, 367.0 ]
				}

			}
, 			{
				"patchline" : 				{
					"source" : [ "obj-18", 0 ],
					"destination" : [ "obj-16", 0 ],
					"hidden" : 1
				}

			}
, 			{
				"patchline" : 				{
					"source" : [ "obj-19", 0 ],
					"destination" : [ "obj-16", 0 ],
					"hidden" : 1,
					"midpoints" : [ 267.5, 367.0, 22.5, 367.0 ]
				}

			}
, 			{
				"patchline" : 				{
					"source" : [ "obj-2", 0 ],
					"destination" : [ "obj-16", 0 ],
					"hidden" : 1,
					"midpoints" : [ 123.5, 367.0, 22.5, 367.0 ]
				}

			}
, 			{
				"patchline" : 				{
					"source" : [ "obj-16", 0 ],
					"destination" : [ "obj-26", 0 ],
					"hidden" : 1
				}

			}
, 			{
				"patchline" : 				{
					"source" : [ "obj-20", 0 ],
					"destination" : [ "obj-11", 0 ],
					"hidden" : 1
				}

			}
, 			{
				"patchline" : 				{
					"source" : [ "obj-11", 2 ],
					"destination" : [ "obj-1", 0 ],
					"hidden" : 1,
					"midpoints" : [ 249.5, 183.0, 118.5, 183.0 ]
				}

			}
, 			{
				"patchline" : 				{
					"source" : [ "obj-11", 0 ],
					"destination" : [ "obj-1", 0 ],
					"hidden" : 1
				}

			}
, 			{
				"patchline" : 				{
					"source" : [ "obj-1", 0 ],
					"destination" : [ "obj-10", 0 ],
					"hidden" : 1
				}

			}
, 			{
				"patchline" : 				{
					"source" : [ "obj-10", 0 ],
					"destination" : [ "obj-21", 0 ],
					"hidden" : 1
				}

			}
, 			{
				"patchline" : 				{
					"source" : [ "obj-10", 1 ],
					"destination" : [ "obj-27", 0 ],
					"hidden" : 1
				}

			}
, 			{
				"patchline" : 				{
					"source" : [ "obj-1", 1 ],
					"destination" : [ "obj-10", 1 ],
					"hidden" : 1
				}

			}
, 			{
				"patchline" : 				{
					"source" : [ "obj-11", 1 ],
					"destination" : [ "obj-1", 1 ],
					"hidden" : 1
				}

			}
, 			{
				"patchline" : 				{
					"source" : [ "obj-23", 0 ],
					"destination" : [ "obj-11", 1 ],
					"hidden" : 1
				}

			}
, 			{
				"patchline" : 				{
					"source" : [ "obj-6", 0 ],
					"destination" : [ "obj-7", 0 ],
					"hidden" : 1,
					"midpoints" : [ 435.5, 223.0, 422.0, 223.0, 422.0, 160.0, 435.5, 160.0 ]
				}

			}
, 			{
				"patchline" : 				{
					"source" : [ "obj-7", 0 ],
					"destination" : [ "obj-6", 0 ],
					"hidden" : 1
				}

			}
, 			{
				"patchline" : 				{
					"source" : [ "obj-14", 0 ],
					"destination" : [ "obj-13", 0 ],
					"hidden" : 1,
					"midpoints" : [ 435.5, 301.0, 421.0, 301.0, 421.0, 236.0, 435.5, 236.0 ]
				}

			}
, 			{
				"patchline" : 				{
					"source" : [ "obj-13", 0 ],
					"destination" : [ "obj-14", 0 ],
					"hidden" : 1
				}

			}
, 			{
				"patchline" : 				{
					"source" : [ "obj-3", 0 ],
					"destination" : [ "obj-4", 0 ],
					"hidden" : 1,
					"midpoints" : [ 435.5, 372.0, 419.0, 372.0, 419.0, 307.0, 435.5, 307.0 ]
				}

			}
, 			{
				"patchline" : 				{
					"source" : [ "obj-4", 1 ],
					"destination" : [ "obj-3", 0 ],
					"hidden" : 1,
					"midpoints" : [ 482.5, 333.0, 435.5, 333.0 ]
				}

			}
 ]
	}

}
