max v2;
#N vpatcher 325 71 984 379;
#P origin 0 -27;
#P window setfont "Sans Serif" 9.;
#P newex 149 106 357 9109513 jcom.pass /x_step /y_step /gang /x_range /y_range /mode /colormode /scale /lo /hi;
#P newex 17 83 142 9109513 jcom.oscroute /genframe /direct;
#P comment 548 30 75 9109513 VIDEO INPUT;
#P inlet 577 49 15 0;
#P inlet 17 45 15 0;
#P comment 247 234 75 9109513 VIDEO OUTPUT;
#P outlet 232 234 15 0;
#P newex 232 212 33 9109513 jit.plur;
#P connect 3 0 6 0;
#P connect 6 2 7 0;
#P connect 7 9 0 0;
#P connect 7 8 0 0;
#P connect 7 1 0 0;
#P connect 7 2 0 0;
#P connect 7 0 0 0;
#P connect 7 3 0 0;
#P connect 7 4 0 0;
#P connect 7 5 0 0;
#P connect 7 6 0 0;
#P connect 7 7 0 0;
#P connect 6 1 0 0;
#P connect 6 0 0 0;
#P fasten 4 0 0 0 582 206 237 206;
#P lcolor 8;
#P connect 0 0 1 0;
#P pop;
