{
	"patcher" : 	{
		"fileversion" : 1,
		"rect" : [ 152.0, 44.0, 843.0, 578.0 ],
		"bglocked" : 0,
		"defrect" : [ 152.0, 44.0, 843.0, 578.0 ],
		"openrect" : [ 0.0, 0.0, 0.0, 0.0 ],
		"openinpresentation" : 0,
		"default_fontsize" : 10.0,
		"default_fontface" : 0,
		"default_fontname" : "Arial",
		"gridonopen" : 0,
		"gridsize" : [ 5.0, 5.0 ],
		"gridsnaponopen" : 0,
		"toolbarvisible" : 1,
		"boxanimatetime" : 200,
		"imprint" : 0,
		"metadata" : [  ],
		"boxes" : [ 			{
				"box" : 				{
					"maxclass" : "message",
					"text" : "coll",
					"fontsize" : 9.0,
					"numinlets" : 2,
					"patching_rect" : [ 489.0, 511.0, 24.0, 15.0 ],
					"numoutlets" : 1,
					"id" : "obj-1",
					"fontname" : "Arial",
					"outlettype" : [ "" ]
				}

			}
, 			{
				"box" : 				{
					"maxclass" : "comment",
					"text" : "see also:",
					"fontsize" : 9.0,
					"numinlets" : 1,
					"patching_rect" : [ 406.0, 513.0, 102.0, 17.0 ],
					"numoutlets" : 0,
					"id" : "obj-2",
					"fontname" : "Arial"
				}

			}
, 			{
				"box" : 				{
					"maxclass" : "message",
					"text" : "text",
					"fontsize" : 9.0,
					"numinlets" : 2,
					"patching_rect" : [ 455.0, 511.0, 29.0, 15.0 ],
					"numoutlets" : 1,
					"id" : "obj-3",
					"fontname" : "Arial",
					"outlettype" : [ "" ]
				}

			}
, 			{
				"box" : 				{
					"maxclass" : "newobj",
					"text" : "prepend help",
					"fontsize" : 9.0,
					"hidden" : 1,
					"numinlets" : 1,
					"patching_rect" : [ 455.0, 535.0, 64.0, 17.0 ],
					"numoutlets" : 1,
					"id" : "obj-4",
					"fontname" : "Arial",
					"outlettype" : [ "" ]
				}

			}
, 			{
				"box" : 				{
					"maxclass" : "newobj",
					"text" : "pcontrol",
					"fontsize" : 9.0,
					"hidden" : 1,
					"numinlets" : 1,
					"patching_rect" : [ 455.0, 555.0, 45.0, 17.0 ],
					"numoutlets" : 1,
					"id" : "obj-5",
					"fontname" : "Arial",
					"outlettype" : [ "" ]
				}

			}
, 			{
				"box" : 				{
					"maxclass" : "comment",
					"text" : "This module is storing data in memory before writing to a file. For long recordings of large amounts of data it may be better to use solutions for storing directly to file, e.g. using some of the FTM-tools.",
					"linecount" : 4,
					"fontsize" : 9.0,
					"numinlets" : 1,
					"patching_rect" : [ 367.0, 448.0, 245.0, 48.0 ],
					"numoutlets" : 0,
					"id" : "obj-6",
					"fontname" : "Arial"
				}

			}
, 			{
				"box" : 				{
					"maxclass" : "message",
					"text" : "0.43222 0.031013 0.006781 0.774602 0.551743 0.339445 0.951702 0.842499 0.750558 0.659145",
					"linecount" : 2,
					"fontsize" : 9.0,
					"numinlets" : 2,
					"patching_rect" : [ 39.0, 274.0, 282.0, 25.0 ],
					"numoutlets" : 1,
					"id" : "obj-8",
					"fontname" : "Arial",
					"outlettype" : [ "" ]
				}

			}
, 			{
				"box" : 				{
					"maxclass" : "newobj",
					"text" : "p simulate-data",
					"fontsize" : 9.0,
					"numinlets" : 0,
					"patching_rect" : [ 39.0, 88.0, 80.0, 17.0 ],
					"numoutlets" : 1,
					"id" : "obj-9",
					"fontname" : "Arial",
					"outlettype" : [ "" ],
					"patcher" : 					{
						"fileversion" : 1,
						"rect" : [ 273.0, 87.0, 253.0, 236.0 ],
						"bglocked" : 0,
						"defrect" : [ 273.0, 87.0, 253.0, 236.0 ],
						"openrect" : [ 0.0, 0.0, 0.0, 0.0 ],
						"openinpresentation" : 0,
						"default_fontsize" : 10.0,
						"default_fontface" : 0,
						"default_fontname" : "Arial",
						"gridonopen" : 0,
						"gridsize" : [ 5.0, 5.0 ],
						"gridsnaponopen" : 0,
						"toolbarvisible" : 1,
						"boxanimatetime" : 200,
						"imprint" : 0,
						"metadata" : [  ],
						"boxes" : [ 							{
								"box" : 								{
									"maxclass" : "newobj",
									"text" : "loadmess 1",
									"fontsize" : 9.0,
									"numinlets" : 1,
									"patching_rect" : [ 50.0, 70.0, 60.0, 17.0 ],
									"numoutlets" : 1,
									"id" : "obj-1",
									"fontname" : "Arial",
									"outlettype" : [ "" ]
								}

							}
, 							{
								"box" : 								{
									"maxclass" : "toggle",
									"numinlets" : 1,
									"patching_rect" : [ 50.0, 93.0, 15.0, 15.0 ],
									"numoutlets" : 1,
									"id" : "obj-2",
									"outlettype" : [ "int" ]
								}

							}
, 							{
								"box" : 								{
									"maxclass" : "newobj",
									"text" : "qmetro 100",
									"fontsize" : 9.0,
									"numinlets" : 2,
									"patching_rect" : [ 50.0, 113.0, 63.0, 17.0 ],
									"numoutlets" : 1,
									"id" : "obj-3",
									"fontname" : "Arial",
									"outlettype" : [ "bang" ]
								}

							}
, 							{
								"box" : 								{
									"maxclass" : "newobj",
									"text" : "jit.spill",
									"fontsize" : 9.0,
									"numinlets" : 1,
									"patching_rect" : [ 50.0, 155.0, 43.0, 17.0 ],
									"numoutlets" : 2,
									"id" : "obj-4",
									"fontname" : "Arial",
									"outlettype" : [ "", "" ]
								}

							}
, 							{
								"box" : 								{
									"maxclass" : "newobj",
									"text" : "jit.noise 1 float32 10 1",
									"fontsize" : 9.0,
									"numinlets" : 1,
									"patching_rect" : [ 50.0, 134.0, 116.0, 17.0 ],
									"numoutlets" : 2,
									"id" : "obj-5",
									"fontname" : "Arial",
									"outlettype" : [ "jit_matrix", "" ]
								}

							}
, 							{
								"box" : 								{
									"maxclass" : "outlet",
									"numinlets" : 1,
									"patching_rect" : [ 50.0, 177.0, 15.0, 15.0 ],
									"numoutlets" : 0,
									"id" : "obj-6",
									"comment" : ""
								}

							}
, 							{
								"box" : 								{
									"maxclass" : "comment",
									"text" : "Just outputting some random data: 10 values between 0.-1.",
									"linecount" : 2,
									"fontsize" : 9.0,
									"numinlets" : 1,
									"patching_rect" : [ 49.0, 33.0, 150.0, 27.0 ],
									"numoutlets" : 0,
									"id" : "obj-7",
									"fontname" : "Arial"
								}

							}
 ],
						"lines" : [ 							{
								"patchline" : 								{
									"source" : [ "obj-4", 0 ],
									"destination" : [ "obj-6", 0 ],
									"hidden" : 0,
									"midpoints" : [  ]
								}

							}
, 							{
								"patchline" : 								{
									"source" : [ "obj-5", 0 ],
									"destination" : [ "obj-4", 0 ],
									"hidden" : 0,
									"midpoints" : [  ]
								}

							}
, 							{
								"patchline" : 								{
									"source" : [ "obj-3", 0 ],
									"destination" : [ "obj-5", 0 ],
									"hidden" : 0,
									"midpoints" : [  ]
								}

							}
, 							{
								"patchline" : 								{
									"source" : [ "obj-2", 0 ],
									"destination" : [ "obj-3", 0 ],
									"hidden" : 0,
									"midpoints" : [  ]
								}

							}
, 							{
								"patchline" : 								{
									"source" : [ "obj-1", 0 ],
									"destination" : [ "obj-2", 0 ],
									"hidden" : 0,
									"midpoints" : [  ]
								}

							}
 ]
					}
,
					"saved_object_attributes" : 					{
						"default_fontname" : "Arial",
						"globalpatchername" : "",
						"fontface" : 0,
						"default_fontsize" : 10.0,
						"fontsize" : 10.0,
						"fontname" : "Arial",
						"default_fontface" : 0
					}

				}

			}
, 			{
				"box" : 				{
					"maxclass" : "multislider",
					"candicane7" : [ 0.878431, 0.243137, 0.145098, 1.0 ],
					"peakcolor" : [ 0.498039, 0.498039, 0.498039, 1.0 ],
					"candicane3" : [ 0.290196, 0.411765, 0.713726, 1.0 ],
					"candicane6" : [ 0.733333, 0.035294, 0.788235, 1.0 ],
					"numinlets" : 1,
					"setstyle" : 5,
					"setminmax" : [ 0.0, 1.0 ],
					"patching_rect" : [ 363.0, 116.0, 444.0, 300.0 ],
					"numoutlets" : 2,
					"candicane2" : [ 0.145098, 0.203922, 0.356863, 1.0 ],
					"candicane4" : [ 0.439216, 0.619608, 0.070588, 1.0 ],
					"id" : "obj-10",
					"candicane8" : [ 0.027451, 0.447059, 0.501961, 1.0 ],
					"size" : 10,
					"outlettype" : [ "", "" ],
					"candicane5" : [ 0.584314, 0.827451, 0.431373, 1.0 ]
				}

			}
, 			{
				"box" : 				{
					"maxclass" : "multislider",
					"candicane7" : [ 0.878431, 0.243137, 0.145098, 1.0 ],
					"peakcolor" : [ 0.498039, 0.498039, 0.498039, 1.0 ],
					"candicane3" : [ 0.290196, 0.411765, 0.713726, 1.0 ],
					"candicane6" : [ 0.733333, 0.035294, 0.788235, 1.0 ],
					"numinlets" : 1,
					"setstyle" : 1,
					"setminmax" : [ 0.0, 1.0 ],
					"patching_rect" : [ 39.0, 128.0, 293.0, 81.0 ],
					"numoutlets" : 2,
					"candicane2" : [ 0.145098, 0.203922, 0.356863, 1.0 ],
					"candicane4" : [ 0.439216, 0.619608, 0.070588, 1.0 ],
					"id" : "obj-11",
					"candicane8" : [ 0.027451, 0.447059, 0.501961, 1.0 ],
					"size" : 10,
					"outlettype" : [ "", "" ],
					"candicane5" : [ 0.584314, 0.827451, 0.431373, 1.0 ]
				}

			}
, 			{
				"box" : 				{
					"maxclass" : "comment",
					"text" : "jmod.textwriter",
					"textcolor" : [ 1.0, 1.0, 1.0, 1.0 ],
					"fontsize" : 18.0,
					"frgb" : [ 1.0, 1.0, 1.0, 1.0 ],
					"numinlets" : 1,
					"patching_rect" : [ 29.0, 24.0, 316.0, 28.0 ],
					"numoutlets" : 0,
					"id" : "obj-12",
					"fontname" : "Verdana"
				}

			}
, 			{
				"box" : 				{
					"maxclass" : "comment",
					"text" : "Write data to a text file, with timestamping for each line of values.",
					"textcolor" : [ 1.0, 1.0, 1.0, 1.0 ],
					"fontsize" : 9.0,
					"frgb" : [ 1.0, 1.0, 1.0, 1.0 ],
					"numinlets" : 1,
					"patching_rect" : [ 29.0, 51.0, 325.0, 17.0 ],
					"numoutlets" : 0,
					"id" : "obj-13",
					"fontname" : "Verdana"
				}

			}
, 			{
				"box" : 				{
					"maxclass" : "panel",
					"numinlets" : 1,
					"patching_rect" : [ 24.0, 19.0, 343.0, 56.0 ],
					"numoutlets" : 0,
					"id" : "obj-14",
					"rounded" : 15
				}

			}
, 			{
				"box" : 				{
					"maxclass" : "bpatcher",
					"args" : [ "/textwriter" ],
					"presentation_rect" : [ 0.0, 0.0, 300.0, 70.0 ],
					"lockeddragscroll" : 1,
					"numinlets" : 2,
					"patching_rect" : [ 39.0, 348.0, 300.0, 70.0 ],
					"numoutlets" : 1,
					"id" : "obj-16",
					"name" : "jmod.textwriter.maxpat",
					"outlettype" : [ "" ]
				}

			}
, 			{
				"box" : 				{
					"maxclass" : "comment",
					"text" : "How to use: \r1. Send in some data (any type of text data)\r2. Turn on the recording when appropriate\r3. Write the data to a text file when done\r\rYou can check the status of the recording by looking at the recorded data with the 'open' message.",
					"linecount" : 7,
					"fontsize" : 9.0,
					"numinlets" : 1,
					"patching_rect" : [ 41.0, 423.0, 245.0, 79.0 ],
					"numoutlets" : 0,
					"id" : "obj-17",
					"fontname" : "Arial"
				}

			}
 ],
		"lines" : [ 			{
				"patchline" : 				{
					"source" : [ "obj-11", 0 ],
					"destination" : [ "obj-8", 1 ],
					"hidden" : 0,
					"midpoints" : [ 48.5, 259.0, 311.5, 259.0 ]
				}

			}
, 			{
				"patchline" : 				{
					"source" : [ "obj-11", 0 ],
					"destination" : [ "obj-16", 1 ],
					"hidden" : 0,
					"midpoints" : [ 48.5, 259.0, 329.5, 259.0 ]
				}

			}
, 			{
				"patchline" : 				{
					"source" : [ "obj-4", 0 ],
					"destination" : [ "obj-5", 0 ],
					"hidden" : 1,
					"midpoints" : [  ]
				}

			}
, 			{
				"patchline" : 				{
					"source" : [ "obj-1", 0 ],
					"destination" : [ "obj-4", 0 ],
					"hidden" : 1,
					"midpoints" : [  ]
				}

			}
, 			{
				"patchline" : 				{
					"source" : [ "obj-3", 0 ],
					"destination" : [ "obj-4", 0 ],
					"hidden" : 1,
					"midpoints" : [  ]
				}

			}
, 			{
				"patchline" : 				{
					"source" : [ "obj-9", 0 ],
					"destination" : [ "obj-10", 0 ],
					"hidden" : 0,
					"midpoints" : [ 48.5, 109.0, 372.5, 109.0 ]
				}

			}
, 			{
				"patchline" : 				{
					"source" : [ "obj-9", 0 ],
					"destination" : [ "obj-11", 0 ],
					"hidden" : 0,
					"midpoints" : [  ]
				}

			}
 ]
	}

}
