{
	"patcher" : 	{
		"fileversion" : 1,
		"rect" : [ 24.0, 44.0, 417.0, 329.0 ],
		"bglocked" : 0,
		"defrect" : [ 24.0, 44.0, 417.0, 329.0 ],
		"openrect" : [ 0.0, 0.0, 0.0, 0.0 ],
		"openinpresentation" : 0,
		"default_fontsize" : 12.0,
		"default_fontface" : 0,
		"default_fontname" : "Arial",
		"gridonopen" : 0,
		"gridsize" : [ 15.0, 15.0 ],
		"gridsnaponopen" : 0,
		"toolbarvisible" : 1,
		"boxanimatetime" : 200,
		"imprint" : 0,
		"metadata" : [  ],
		"boxes" : [ 			{
				"box" : 				{
					"maxclass" : "newobj",
					"text" : "p return-data",
					"patching_rect" : [ 90.0, 209.0, 62.0, 17.0 ],
					"fontsize" : 9.0,
					"numinlets" : 2,
					"numoutlets" : 0,
					"id" : "obj-13",
					"fontname" : "Arial",
					"patcher" : 					{
						"fileversion" : 1,
						"rect" : [ 116.0, 172.0, 811.0, 507.0 ],
						"bglocked" : 0,
						"defrect" : [ 116.0, 172.0, 811.0, 507.0 ],
						"openrect" : [ 0.0, 0.0, 0.0, 0.0 ],
						"openinpresentation" : 0,
						"default_fontsize" : 12.0,
						"default_fontface" : 0,
						"default_fontname" : "Arial",
						"gridonopen" : 0,
						"gridsize" : [ 15.0, 15.0 ],
						"gridsnaponopen" : 0,
						"toolbarvisible" : 1,
						"boxanimatetime" : 200,
						"imprint" : 0,
						"metadata" : [  ],
						"boxes" : [ 							{
								"box" : 								{
									"maxclass" : "comment",
									"text" : "Removing zero values",
									"patching_rect" : [ 227.0, 181.0, 108.0, 17.0 ],
									"fontsize" : 9.0,
									"numinlets" : 1,
									"numoutlets" : 0,
									"id" : "obj-1",
									"fontname" : "Arial"
								}

							}
, 							{
								"box" : 								{
									"maxclass" : "newobj",
									"text" : "sel 0.",
									"patching_rect" : [ 187.0, 179.0, 35.0, 17.0 ],
									"outlettype" : [ "bang", "" ],
									"fontsize" : 9.0,
									"numinlets" : 1,
									"numoutlets" : 2,
									"id" : "obj-2",
									"fontname" : "Arial"
								}

							}
, 							{
								"box" : 								{
									"maxclass" : "newobj",
									"text" : "sel 0.",
									"patching_rect" : [ 133.0, 177.0, 35.0, 17.0 ],
									"outlettype" : [ "bang", "" ],
									"fontsize" : 9.0,
									"numinlets" : 1,
									"numoutlets" : 2,
									"id" : "obj-3",
									"fontname" : "Arial"
								}

							}
, 							{
								"box" : 								{
									"maxclass" : "newobj",
									"text" : "change 0.",
									"patching_rect" : [ 201.0, 243.0, 52.0, 17.0 ],
									"outlettype" : [ "", "int", "int" ],
									"fontsize" : 9.0,
									"numinlets" : 1,
									"numoutlets" : 3,
									"id" : "obj-4",
									"fontname" : "Arial"
								}

							}
, 							{
								"box" : 								{
									"maxclass" : "newobj",
									"text" : "change 0.",
									"patching_rect" : [ 140.0, 244.0, 52.0, 17.0 ],
									"outlettype" : [ "", "int", "int" ],
									"fontsize" : 9.0,
									"numinlets" : 1,
									"numoutlets" : 3,
									"id" : "obj-5",
									"fontname" : "Arial"
								}

							}
, 							{
								"box" : 								{
									"maxclass" : "newobj",
									"text" : "change 0.",
									"patching_rect" : [ 83.0, 244.0, 52.0, 17.0 ],
									"outlettype" : [ "", "int", "int" ],
									"fontsize" : 9.0,
									"numinlets" : 1,
									"numoutlets" : 3,
									"id" : "obj-6",
									"fontname" : "Arial"
								}

							}
, 							{
								"box" : 								{
									"maxclass" : "newobj",
									"text" : "scale 0. 1. 1. 0.",
									"patching_rect" : [ 105.0, 283.0, 81.0, 17.0 ],
									"outlettype" : [ "float" ],
									"fontsize" : 9.0,
									"numinlets" : 6,
									"numoutlets" : 1,
									"id" : "obj-7",
									"fontname" : "Arial"
								}

							}
, 							{
								"box" : 								{
									"maxclass" : "newobj",
									"text" : "jcom.rgb2luma%",
									"patching_rect" : [ 118.0, 42.0, 86.0, 17.0 ],
									"outlettype" : [ "jit_matrix" ],
									"fontsize" : 9.0,
									"numinlets" : 1,
									"numoutlets" : 1,
									"id" : "obj-8",
									"fontname" : "Arial"
								}

							}
, 							{
								"box" : 								{
									"maxclass" : "newobj",
									"text" : "s #0_jcom.sum",
									"patching_rect" : [ 214.0, 127.0, 80.0, 17.0 ],
									"fontsize" : 9.0,
									"numinlets" : 1,
									"numoutlets" : 0,
									"id" : "obj-9",
									"fontname" : "Arial"
								}

							}
, 							{
								"box" : 								{
									"maxclass" : "flonum",
									"patching_rect" : [ 50.0, 182.0, 35.0, 17.0 ],
									"outlettype" : [ "float", "bang" ],
									"triscale" : 0.9,
									"fontsize" : 9.0,
									"htextcolor" : [ 0.870588, 0.870588, 0.870588, 1.0 ],
									"bgcolor" : [ 0.866667, 0.866667, 0.866667, 1.0 ],
									"numinlets" : 1,
									"numoutlets" : 2,
									"id" : "obj-10",
									"fontname" : "Arial"
								}

							}
, 							{
								"box" : 								{
									"maxclass" : "newobj",
									"text" : "slide 3. 3.",
									"patching_rect" : [ 201.0, 211.0, 55.0, 17.0 ],
									"outlettype" : [ "float" ],
									"fontsize" : 9.0,
									"numinlets" : 3,
									"numoutlets" : 1,
									"id" : "obj-11",
									"fontname" : "Arial"
								}

							}
, 							{
								"box" : 								{
									"maxclass" : "newobj",
									"text" : "slide 3. 3.",
									"patching_rect" : [ 140.0, 211.0, 55.0, 17.0 ],
									"outlettype" : [ "float" ],
									"fontsize" : 9.0,
									"numinlets" : 3,
									"numoutlets" : 1,
									"id" : "obj-12",
									"fontname" : "Arial"
								}

							}
, 							{
								"box" : 								{
									"maxclass" : "newobj",
									"text" : "slide 3. 3.",
									"patching_rect" : [ 83.0, 211.0, 55.0, 17.0 ],
									"outlettype" : [ "float" ],
									"fontsize" : 9.0,
									"numinlets" : 3,
									"numoutlets" : 1,
									"id" : "obj-13",
									"fontname" : "Arial"
								}

							}
, 							{
								"box" : 								{
									"maxclass" : "newobj",
									"text" : "jcom.return motion/y @range/bounds 0. 1. @type msg_float @description \"The center of gravity for the y-axis of the motion in the frame in a range of 0. to 1. (zero is bottom - one is top).\"",
									"linecount" : 2,
									"patching_rect" : [ 105.0, 303.436279, 595.0, 27.0 ],
									"outlettype" : [ "", "" ],
									"fontsize" : 9.0,
									"numinlets" : 1,
									"numoutlets" : 2,
									"id" : "obj-14",
									"fontname" : "Arial"
								}

							}
, 							{
								"box" : 								{
									"maxclass" : "newobj",
									"text" : "unpack 0. 0.",
									"patching_rect" : [ 133.0, 153.0, 64.0, 17.0 ],
									"outlettype" : [ "float", "float" ],
									"fontsize" : 9.0,
									"numinlets" : 1,
									"numoutlets" : 2,
									"id" : "obj-15",
									"fontname" : "Arial"
								}

							}
, 							{
								"box" : 								{
									"maxclass" : "newobj",
									"text" : "jcom.return motion/x @range/bounds 0. 1. @type msg_float @description \"The center of gravity for the x-axis of the motion in the frame in a range of 0. to 1. (zero is left - one is right).\"",
									"linecount" : 2,
									"patching_rect" : [ 93.0, 354.0, 595.0, 27.0 ],
									"outlettype" : [ "", "" ],
									"fontsize" : 9.0,
									"numinlets" : 1,
									"numoutlets" : 2,
									"id" : "obj-16",
									"fontname" : "Arial"
								}

							}
, 							{
								"box" : 								{
									"maxclass" : "newobj",
									"text" : "jcom.return motion/quantity @type msg_float @range/bounds 0. 1. @description \"The amount of motion in the frame in a range of 0. to 1.\"",
									"patching_rect" : [ 83.0, 389.0, 560.0, 17.0 ],
									"outlettype" : [ "", "" ],
									"fontsize" : 9.0,
									"numinlets" : 1,
									"numoutlets" : 2,
									"id" : "obj-17",
									"fontname" : "Arial"
								}

							}
, 							{
								"box" : 								{
									"maxclass" : "newobj",
									"text" : "route quantity location",
									"patching_rect" : [ 83.0, 124.0, 110.0, 17.0 ],
									"outlettype" : [ "", "", "" ],
									"fontsize" : 9.0,
									"numinlets" : 1,
									"numoutlets" : 3,
									"id" : "obj-18",
									"fontname" : "Arial"
								}

							}
, 							{
								"box" : 								{
									"maxclass" : "newobj",
									"text" : "gate 1 1",
									"patching_rect" : [ 83.0, 64.0, 45.0, 17.0 ],
									"outlettype" : [ "" ],
									"fontsize" : 9.0,
									"numinlets" : 2,
									"numoutlets" : 1,
									"id" : "obj-19",
									"fontname" : "Arial"
								}

							}
, 							{
								"box" : 								{
									"maxclass" : "newobj",
									"text" : "jcom.sum%",
									"patching_rect" : [ 83.0, 86.0, 62.0, 17.0 ],
									"outlettype" : [ "", "" ],
									"fontsize" : 9.0,
									"numinlets" : 1,
									"numoutlets" : 2,
									"id" : "obj-20",
									"fontname" : "Arial"
								}

							}
, 							{
								"box" : 								{
									"maxclass" : "inlet",
									"patching_rect" : [ 118.0, 21.0, 15.0, 15.0 ],
									"outlettype" : [ "jit_matrix" ],
									"numinlets" : 0,
									"numoutlets" : 1,
									"id" : "obj-21",
									"comment" : ""
								}

							}
, 							{
								"box" : 								{
									"maxclass" : "inlet",
									"patching_rect" : [ 50.0, 21.0, 15.0, 15.0 ],
									"outlettype" : [ "" ],
									"numinlets" : 0,
									"numoutlets" : 1,
									"id" : "obj-22",
									"comment" : ""
								}

							}
, 							{
								"box" : 								{
									"maxclass" : "comment",
									"text" : "Send to centroid-drawing subpatch",
									"patching_rect" : [ 209.0, 146.0, 166.0, 17.0 ],
									"fontsize" : 9.0,
									"numinlets" : 1,
									"numoutlets" : 0,
									"id" : "obj-23",
									"fontname" : "Arial"
								}

							}
 ],
						"lines" : [ 							{
								"patchline" : 								{
									"source" : [ "obj-5", 0 ],
									"destination" : [ "obj-16", 0 ],
									"hidden" : 0,
									"midpoints" : [ 149.5, 269.0, 102.5, 269.0 ]
								}

							}
, 							{
								"patchline" : 								{
									"source" : [ "obj-7", 0 ],
									"destination" : [ "obj-14", 0 ],
									"hidden" : 0,
									"midpoints" : [  ]
								}

							}
, 							{
								"patchline" : 								{
									"source" : [ "obj-10", 0 ],
									"destination" : [ "obj-11", 2 ],
									"hidden" : 0,
									"midpoints" : [ 59.5, 203.0, 246.5, 203.0 ]
								}

							}
, 							{
								"patchline" : 								{
									"source" : [ "obj-10", 0 ],
									"destination" : [ "obj-11", 1 ],
									"hidden" : 0,
									"midpoints" : [ 59.5, 203.0, 228.5, 203.0 ]
								}

							}
, 							{
								"patchline" : 								{
									"source" : [ "obj-20", 0 ],
									"destination" : [ "obj-9", 0 ],
									"hidden" : 0,
									"midpoints" : [ 92.5, 115.0, 223.5, 115.0 ]
								}

							}
, 							{
								"patchline" : 								{
									"source" : [ "obj-11", 0 ],
									"destination" : [ "obj-4", 0 ],
									"hidden" : 0,
									"midpoints" : [  ]
								}

							}
, 							{
								"patchline" : 								{
									"source" : [ "obj-2", 1 ],
									"destination" : [ "obj-11", 0 ],
									"hidden" : 0,
									"midpoints" : [  ]
								}

							}
, 							{
								"patchline" : 								{
									"source" : [ "obj-15", 1 ],
									"destination" : [ "obj-2", 0 ],
									"hidden" : 0,
									"midpoints" : [  ]
								}

							}
, 							{
								"patchline" : 								{
									"source" : [ "obj-10", 0 ],
									"destination" : [ "obj-12", 2 ],
									"hidden" : 0,
									"midpoints" : [ 59.5, 203.0, 185.5, 203.0 ]
								}

							}
, 							{
								"patchline" : 								{
									"source" : [ "obj-10", 0 ],
									"destination" : [ "obj-12", 1 ],
									"hidden" : 0,
									"midpoints" : [ 59.5, 203.0, 167.5, 203.0 ]
								}

							}
, 							{
								"patchline" : 								{
									"source" : [ "obj-12", 0 ],
									"destination" : [ "obj-5", 0 ],
									"hidden" : 0,
									"midpoints" : [  ]
								}

							}
, 							{
								"patchline" : 								{
									"source" : [ "obj-3", 1 ],
									"destination" : [ "obj-12", 0 ],
									"hidden" : 0,
									"midpoints" : [  ]
								}

							}
, 							{
								"patchline" : 								{
									"source" : [ "obj-15", 0 ],
									"destination" : [ "obj-3", 0 ],
									"hidden" : 0,
									"midpoints" : [  ]
								}

							}
, 							{
								"patchline" : 								{
									"source" : [ "obj-18", 1 ],
									"destination" : [ "obj-15", 0 ],
									"hidden" : 0,
									"midpoints" : [  ]
								}

							}
, 							{
								"patchline" : 								{
									"source" : [ "obj-10", 0 ],
									"destination" : [ "obj-13", 2 ],
									"hidden" : 0,
									"midpoints" : [ 59.5, 203.0, 128.5, 203.0 ]
								}

							}
, 							{
								"patchline" : 								{
									"source" : [ "obj-8", 0 ],
									"destination" : [ "obj-19", 1 ],
									"hidden" : 0,
									"midpoints" : [  ]
								}

							}
, 							{
								"patchline" : 								{
									"source" : [ "obj-21", 0 ],
									"destination" : [ "obj-8", 0 ],
									"hidden" : 0,
									"midpoints" : [  ]
								}

							}
, 							{
								"patchline" : 								{
									"source" : [ "obj-4", 0 ],
									"destination" : [ "obj-7", 0 ],
									"hidden" : 0,
									"midpoints" : [ 210.5, 276.0, 114.5, 276.0 ]
								}

							}
, 							{
								"patchline" : 								{
									"source" : [ "obj-10", 0 ],
									"destination" : [ "obj-13", 1 ],
									"hidden" : 0,
									"midpoints" : [ 59.5, 203.0, 110.5, 203.0 ]
								}

							}
, 							{
								"patchline" : 								{
									"source" : [ "obj-13", 0 ],
									"destination" : [ "obj-6", 0 ],
									"hidden" : 0,
									"midpoints" : [  ]
								}

							}
, 							{
								"patchline" : 								{
									"source" : [ "obj-18", 0 ],
									"destination" : [ "obj-13", 0 ],
									"hidden" : 0,
									"midpoints" : [  ]
								}

							}
, 							{
								"patchline" : 								{
									"source" : [ "obj-20", 0 ],
									"destination" : [ "obj-18", 0 ],
									"hidden" : 0,
									"midpoints" : [  ]
								}

							}
, 							{
								"patchline" : 								{
									"source" : [ "obj-19", 0 ],
									"destination" : [ "obj-20", 0 ],
									"hidden" : 0,
									"midpoints" : [  ]
								}

							}
, 							{
								"patchline" : 								{
									"source" : [ "obj-22", 0 ],
									"destination" : [ "obj-10", 0 ],
									"hidden" : 0,
									"midpoints" : [  ]
								}

							}
, 							{
								"patchline" : 								{
									"source" : [ "obj-6", 0 ],
									"destination" : [ "obj-17", 0 ],
									"hidden" : 0,
									"midpoints" : [  ]
								}

							}
 ]
					}
,
					"saved_object_attributes" : 					{
						"default_fontname" : "Arial",
						"globalpatchername" : "",
						"default_fontsize" : 12.0,
						"fontface" : 0,
						"fontsize" : 12.0,
						"default_fontface" : 0,
						"fontname" : "Arial"
					}

				}

			}
, 			{
				"box" : 				{
					"maxclass" : "newobj",
					"text" : "p colour",
					"patching_rect" : [ 154.0, 103.0, 43.0, 17.0 ],
					"outlettype" : [ "" ],
					"fontsize" : 9.0,
					"numinlets" : 2,
					"numoutlets" : 1,
					"id" : "obj-14",
					"fontname" : "Arial",
					"patcher" : 					{
						"fileversion" : 1,
						"rect" : [ 266.0, 324.0, 198.0, 241.0 ],
						"bglocked" : 0,
						"defrect" : [ 266.0, 324.0, 198.0, 241.0 ],
						"openrect" : [ 0.0, 0.0, 0.0, 0.0 ],
						"openinpresentation" : 0,
						"default_fontsize" : 12.0,
						"default_fontface" : 0,
						"default_fontname" : "Arial",
						"gridonopen" : 0,
						"gridsize" : [ 15.0, 15.0 ],
						"gridsnaponopen" : 0,
						"toolbarvisible" : 1,
						"boxanimatetime" : 200,
						"imprint" : 0,
						"metadata" : [  ],
						"boxes" : [ 							{
								"box" : 								{
									"maxclass" : "newobj",
									"text" : "+ 1",
									"patching_rect" : [ 50.0, 69.0, 32.5, 17.0 ],
									"outlettype" : [ "int" ],
									"fontsize" : 9.0,
									"numinlets" : 2,
									"numoutlets" : 1,
									"id" : "obj-1",
									"fontname" : "Arial"
								}

							}
, 							{
								"box" : 								{
									"maxclass" : "toggle",
									"patching_rect" : [ 50.0, 39.0, 20.0, 20.0 ],
									"outlettype" : [ "int" ],
									"numinlets" : 1,
									"numoutlets" : 1,
									"id" : "obj-2"
								}

							}
, 							{
								"box" : 								{
									"maxclass" : "newobj",
									"text" : "jcom.rgb2luma%",
									"patching_rect" : [ 50.0, 128.0, 78.0, 17.0 ],
									"outlettype" : [ "jit_matrix" ],
									"fontsize" : 9.0,
									"numinlets" : 1,
									"numoutlets" : 1,
									"id" : "obj-3",
									"fontname" : "Arial"
								}

							}
, 							{
								"box" : 								{
									"maxclass" : "newobj",
									"text" : "gate 2 1",
									"patching_rect" : [ 50.0, 90.0, 56.0, 17.0 ],
									"outlettype" : [ "", "" ],
									"fontsize" : 9.0,
									"numinlets" : 2,
									"numoutlets" : 2,
									"id" : "obj-4",
									"fontname" : "Arial"
								}

							}
, 							{
								"box" : 								{
									"maxclass" : "inlet",
									"patching_rect" : [ 50.0, 7.0, 25.0, 25.0 ],
									"outlettype" : [ "" ],
									"numinlets" : 0,
									"numoutlets" : 1,
									"id" : "obj-5",
									"comment" : ""
								}

							}
, 							{
								"box" : 								{
									"maxclass" : "inlet",
									"patching_rect" : [ 87.0, 8.0, 25.0, 25.0 ],
									"outlettype" : [ "" ],
									"numinlets" : 0,
									"numoutlets" : 1,
									"id" : "obj-6",
									"comment" : ""
								}

							}
, 							{
								"box" : 								{
									"maxclass" : "outlet",
									"patching_rect" : [ 50.0, 167.0, 25.0, 25.0 ],
									"numinlets" : 1,
									"numoutlets" : 0,
									"id" : "obj-7",
									"comment" : ""
								}

							}
 ],
						"lines" : [ 							{
								"patchline" : 								{
									"source" : [ "obj-6", 0 ],
									"destination" : [ "obj-4", 1 ],
									"hidden" : 0,
									"midpoints" : [  ]
								}

							}
, 							{
								"patchline" : 								{
									"source" : [ "obj-4", 1 ],
									"destination" : [ "obj-7", 0 ],
									"hidden" : 0,
									"midpoints" : [ 96.5, 117.0, 137.0, 117.0, 137.0, 157.0, 59.5, 157.0 ]
								}

							}
, 							{
								"patchline" : 								{
									"source" : [ "obj-3", 0 ],
									"destination" : [ "obj-7", 0 ],
									"hidden" : 0,
									"midpoints" : [  ]
								}

							}
, 							{
								"patchline" : 								{
									"source" : [ "obj-4", 0 ],
									"destination" : [ "obj-3", 0 ],
									"hidden" : 0,
									"midpoints" : [  ]
								}

							}
, 							{
								"patchline" : 								{
									"source" : [ "obj-1", 0 ],
									"destination" : [ "obj-4", 0 ],
									"hidden" : 0,
									"midpoints" : [  ]
								}

							}
, 							{
								"patchline" : 								{
									"source" : [ "obj-2", 0 ],
									"destination" : [ "obj-1", 0 ],
									"hidden" : 0,
									"midpoints" : [  ]
								}

							}
, 							{
								"patchline" : 								{
									"source" : [ "obj-5", 0 ],
									"destination" : [ "obj-2", 0 ],
									"hidden" : 0,
									"midpoints" : [  ]
								}

							}
 ]
					}
,
					"saved_object_attributes" : 					{
						"default_fontname" : "Arial",
						"globalpatchername" : "",
						"default_fontsize" : 12.0,
						"fontface" : 0,
						"fontsize" : 12.0,
						"default_fontface" : 0,
						"fontname" : "Arial"
					}

				}

			}
, 			{
				"box" : 				{
					"maxclass" : "newobj",
					"text" : "p noise-reduction",
					"patching_rect" : [ 154.0, 224.0, 80.0, 17.0 ],
					"outlettype" : [ "jit_matrix" ],
					"fontsize" : 9.0,
					"numinlets" : 2,
					"numoutlets" : 1,
					"id" : "obj-16",
					"fontname" : "Arial",
					"patcher" : 					{
						"fileversion" : 1,
						"rect" : [ 498.0, 44.0, 378.0, 371.0 ],
						"bglocked" : 0,
						"defrect" : [ 498.0, 44.0, 378.0, 371.0 ],
						"openrect" : [ 0.0, 0.0, 0.0, 0.0 ],
						"openinpresentation" : 0,
						"default_fontsize" : 12.0,
						"default_fontface" : 0,
						"default_fontname" : "Arial",
						"gridonopen" : 0,
						"gridsize" : [ 15.0, 15.0 ],
						"gridsnaponopen" : 0,
						"toolbarvisible" : 1,
						"boxanimatetime" : 200,
						"imprint" : 0,
						"metadata" : [  ],
						"boxes" : [ 							{
								"box" : 								{
									"maxclass" : "newobj",
									"text" : "+ 1",
									"patching_rect" : [ 50.0, 69.0, 27.0, 17.0 ],
									"outlettype" : [ "int" ],
									"fontsize" : 9.0,
									"numinlets" : 2,
									"numoutlets" : 1,
									"id" : "obj-1",
									"fontname" : "Arial"
								}

							}
, 							{
								"box" : 								{
									"maxclass" : "toggle",
									"patching_rect" : [ 50.0, 50.0, 15.0, 15.0 ],
									"outlettype" : [ "int" ],
									"numinlets" : 1,
									"numoutlets" : 1,
									"id" : "obj-2"
								}

							}
, 							{
								"box" : 								{
									"maxclass" : "newobj",
									"text" : "gate 2 2",
									"patching_rect" : [ 50.0, 90.0, 47.0, 17.0 ],
									"outlettype" : [ "", "" ],
									"fontsize" : 9.0,
									"numinlets" : 2,
									"numoutlets" : 2,
									"id" : "obj-3",
									"fontname" : "Arial"
								}

							}
, 							{
								"box" : 								{
									"maxclass" : "inlet",
									"patching_rect" : [ 21.0, 30.0, 15.0, 15.0 ],
									"outlettype" : [ "jit_matrix" ],
									"numinlets" : 0,
									"numoutlets" : 1,
									"id" : "obj-4",
									"comment" : ""
								}

							}
, 							{
								"box" : 								{
									"maxclass" : "inlet",
									"patching_rect" : [ 50.0, 30.0, 15.0, 15.0 ],
									"outlettype" : [ "" ],
									"numinlets" : 0,
									"numoutlets" : 1,
									"id" : "obj-5",
									"comment" : ""
								}

							}
, 							{
								"box" : 								{
									"maxclass" : "outlet",
									"patching_rect" : [ 50.0, 298.0, 15.0, 15.0 ],
									"numinlets" : 1,
									"numoutlets" : 0,
									"id" : "obj-6",
									"comment" : ""
								}

							}
, 							{
								"box" : 								{
									"maxclass" : "number",
									"patching_rect" : [ 106.0, 131.0, 35.0, 17.0 ],
									"outlettype" : [ "int", "bang" ],
									"triscale" : 0.9,
									"fontsize" : 9.0,
									"htextcolor" : [ 0.870588, 0.870588, 0.870588, 1.0 ],
									"bgcolor" : [ 0.866667, 0.866667, 0.866667, 1.0 ],
									"numinlets" : 1,
									"numoutlets" : 2,
									"id" : "obj-7",
									"fontname" : "Arial"
								}

							}
, 							{
								"box" : 								{
									"maxclass" : "message",
									"text" : "range $1",
									"patching_rect" : [ 106.0, 149.0, 48.0, 15.0 ],
									"outlettype" : [ "" ],
									"fontsize" : 9.0,
									"numinlets" : 2,
									"numoutlets" : 1,
									"id" : "obj-8",
									"fontname" : "Arial"
								}

							}
, 							{
								"box" : 								{
									"maxclass" : "flonum",
									"patching_rect" : [ 159.0, 131.0, 35.0, 17.0 ],
									"outlettype" : [ "float", "bang" ],
									"triscale" : 0.9,
									"fontsize" : 9.0,
									"htextcolor" : [ 0.870588, 0.870588, 0.870588, 1.0 ],
									"bgcolor" : [ 0.866667, 0.866667, 0.866667, 1.0 ],
									"numinlets" : 1,
									"numoutlets" : 2,
									"id" : "obj-9",
									"fontname" : "Arial"
								}

							}
, 							{
								"box" : 								{
									"maxclass" : "flonum",
									"patching_rect" : [ 217.0, 131.0, 35.0, 17.0 ],
									"outlettype" : [ "float", "bang" ],
									"triscale" : 0.9,
									"fontsize" : 9.0,
									"htextcolor" : [ 0.870588, 0.870588, 0.870588, 1.0 ],
									"bgcolor" : [ 0.866667, 0.866667, 0.866667, 1.0 ],
									"numinlets" : 1,
									"numoutlets" : 2,
									"id" : "obj-10",
									"fontname" : "Arial"
								}

							}
, 							{
								"box" : 								{
									"maxclass" : "message",
									"text" : "ring $1",
									"patching_rect" : [ 217.0, 149.0, 41.0, 15.0 ],
									"outlettype" : [ "" ],
									"fontsize" : 9.0,
									"numinlets" : 2,
									"numoutlets" : 1,
									"id" : "obj-11",
									"fontname" : "Arial"
								}

							}
, 							{
								"box" : 								{
									"maxclass" : "message",
									"text" : "center $1",
									"patching_rect" : [ 159.0, 149.0, 52.0, 15.0 ],
									"outlettype" : [ "" ],
									"fontsize" : 9.0,
									"numinlets" : 2,
									"numoutlets" : 1,
									"id" : "obj-12",
									"fontname" : "Arial"
								}

							}
, 							{
								"box" : 								{
									"maxclass" : "flonum",
									"patching_rect" : [ 265.0, 131.0, 47.0, 17.0 ],
									"outlettype" : [ "float", "bang" ],
									"triscale" : 0.9,
									"fontsize" : 9.0,
									"htextcolor" : [ 0.870588, 0.870588, 0.870588, 1.0 ],
									"bgcolor" : [ 0.866667, 0.866667, 0.866667, 1.0 ],
									"numinlets" : 1,
									"numoutlets" : 2,
									"id" : "obj-13",
									"fontname" : "Arial"
								}

							}
, 							{
								"box" : 								{
									"maxclass" : "message",
									"text" : "ripple $1",
									"patching_rect" : [ 265.0, 149.0, 49.0, 15.0 ],
									"outlettype" : [ "" ],
									"fontsize" : 9.0,
									"numinlets" : 2,
									"numoutlets" : 1,
									"id" : "obj-14",
									"fontname" : "Arial"
								}

							}
, 							{
								"box" : 								{
									"maxclass" : "comment",
									"text" : "Threshold",
									"patching_rect" : [ 272.0, 205.0, 52.0, 17.0 ],
									"fontsize" : 9.0,
									"numinlets" : 1,
									"numoutlets" : 0,
									"id" : "obj-15",
									"fontname" : "Arial"
								}

							}
, 							{
								"box" : 								{
									"maxclass" : "number",
									"patching_rect" : [ 230.0, 203.0, 35.0, 17.0 ],
									"outlettype" : [ "int", "bang" ],
									"triscale" : 0.9,
									"fontsize" : 9.0,
									"htextcolor" : [ 0.870588, 0.870588, 0.870588, 1.0 ],
									"bgcolor" : [ 0.866667, 0.866667, 0.866667, 1.0 ],
									"numinlets" : 1,
									"numoutlets" : 2,
									"id" : "obj-16",
									"fontname" : "Arial"
								}

							}
, 							{
								"box" : 								{
									"maxclass" : "newobj",
									"text" : "jit.op @op > @val 125",
									"patching_rect" : [ 87.0, 202.0, 105.0, 17.0 ],
									"outlettype" : [ "jit_matrix", "" ],
									"fontsize" : 9.0,
									"numinlets" : 2,
									"numoutlets" : 2,
									"id" : "obj-17",
									"fontname" : "Arial"
								}

							}
, 							{
								"box" : 								{
									"maxclass" : "newobj",
									"text" : "jit.fastblur @range 3 @mode 4",
									"patching_rect" : [ 87.0, 179.0, 145.0, 17.0 ],
									"outlettype" : [ "jit_matrix", "" ],
									"fontsize" : 9.0,
									"numinlets" : 1,
									"numoutlets" : 2,
									"id" : "obj-18",
									"fontname" : "Arial"
								}

							}
 ],
						"lines" : [ 							{
								"patchline" : 								{
									"source" : [ "obj-13", 0 ],
									"destination" : [ "obj-14", 0 ],
									"hidden" : 0,
									"midpoints" : [  ]
								}

							}
, 							{
								"patchline" : 								{
									"source" : [ "obj-10", 0 ],
									"destination" : [ "obj-11", 0 ],
									"hidden" : 0,
									"midpoints" : [  ]
								}

							}
, 							{
								"patchline" : 								{
									"source" : [ "obj-16", 0 ],
									"destination" : [ "obj-17", 1 ],
									"hidden" : 0,
									"color" : [ 0.6667, 0.6667, 0.6667, 1.0 ],
									"midpoints" : [  ]
								}

							}
, 							{
								"patchline" : 								{
									"source" : [ "obj-9", 0 ],
									"destination" : [ "obj-12", 0 ],
									"hidden" : 0,
									"midpoints" : [  ]
								}

							}
, 							{
								"patchline" : 								{
									"source" : [ "obj-7", 0 ],
									"destination" : [ "obj-8", 0 ],
									"hidden" : 0,
									"midpoints" : [  ]
								}

							}
, 							{
								"patchline" : 								{
									"source" : [ "obj-18", 0 ],
									"destination" : [ "obj-17", 0 ],
									"hidden" : 0,
									"midpoints" : [  ]
								}

							}
, 							{
								"patchline" : 								{
									"source" : [ "obj-3", 1 ],
									"destination" : [ "obj-18", 0 ],
									"hidden" : 0,
									"midpoints" : [  ]
								}

							}
, 							{
								"patchline" : 								{
									"source" : [ "obj-12", 0 ],
									"destination" : [ "obj-18", 0 ],
									"hidden" : 0,
									"midpoints" : [ 168.5, 171.0, 96.5, 171.0 ]
								}

							}
, 							{
								"patchline" : 								{
									"source" : [ "obj-11", 0 ],
									"destination" : [ "obj-18", 0 ],
									"hidden" : 0,
									"midpoints" : [ 226.5, 171.0, 96.5, 171.0 ]
								}

							}
, 							{
								"patchline" : 								{
									"source" : [ "obj-8", 0 ],
									"destination" : [ "obj-18", 0 ],
									"hidden" : 0,
									"midpoints" : [ 115.5, 171.0, 96.5, 171.0 ]
								}

							}
, 							{
								"patchline" : 								{
									"source" : [ "obj-14", 0 ],
									"destination" : [ "obj-18", 0 ],
									"hidden" : 0,
									"midpoints" : [ 274.5, 171.0, 96.5, 171.0 ]
								}

							}
, 							{
								"patchline" : 								{
									"source" : [ "obj-4", 0 ],
									"destination" : [ "obj-3", 1 ],
									"hidden" : 0,
									"midpoints" : [  ]
								}

							}
, 							{
								"patchline" : 								{
									"source" : [ "obj-17", 0 ],
									"destination" : [ "obj-6", 0 ],
									"hidden" : 0,
									"midpoints" : [  ]
								}

							}
, 							{
								"patchline" : 								{
									"source" : [ "obj-3", 0 ],
									"destination" : [ "obj-6", 0 ],
									"hidden" : 0,
									"midpoints" : [  ]
								}

							}
, 							{
								"patchline" : 								{
									"source" : [ "obj-1", 0 ],
									"destination" : [ "obj-3", 0 ],
									"hidden" : 0,
									"midpoints" : [  ]
								}

							}
, 							{
								"patchline" : 								{
									"source" : [ "obj-2", 0 ],
									"destination" : [ "obj-1", 0 ],
									"hidden" : 0,
									"midpoints" : [  ]
								}

							}
, 							{
								"patchline" : 								{
									"source" : [ "obj-5", 0 ],
									"destination" : [ "obj-2", 0 ],
									"hidden" : 0,
									"midpoints" : [  ]
								}

							}
 ]
					}
,
					"saved_object_attributes" : 					{
						"default_fontname" : "Arial",
						"globalpatchername" : "",
						"default_fontsize" : 12.0,
						"fontface" : 0,
						"fontsize" : 12.0,
						"default_fontface" : 0,
						"fontname" : "Arial"
					}

				}

			}
, 			{
				"box" : 				{
					"maxclass" : "comment",
					"text" : "VIDEO OUTPUT",
					"patching_rect" : [ 180.0, 267.0, 78.0, 17.0 ],
					"fontsize" : 9.0,
					"numinlets" : 1,
					"numoutlets" : 0,
					"id" : "obj-18",
					"fontname" : "Arial"
				}

			}
, 			{
				"box" : 				{
					"maxclass" : "newobj",
					"text" : "jcom.motion%",
					"patching_rect" : [ 154.0, 137.0, 67.0, 17.0 ],
					"outlettype" : [ "jit_matrix" ],
					"fontsize" : 9.0,
					"numinlets" : 1,
					"numoutlets" : 1,
					"id" : "obj-20",
					"fontname" : "Arial"
				}

			}
, 			{
				"box" : 				{
					"maxclass" : "newobj",
					"text" : "jit.op @op > @val 0.1",
					"patching_rect" : [ 154.0, 163.0, 97.0, 17.0 ],
					"outlettype" : [ "jit_matrix", "" ],
					"fontsize" : 9.0,
					"numinlets" : 2,
					"numoutlets" : 2,
					"id" : "obj-21",
					"fontname" : "Arial"
				}

			}
, 			{
				"box" : 				{
					"maxclass" : "outlet",
					"patching_rect" : [ 154.0, 262.0, 25.0, 25.0 ],
					"numinlets" : 1,
					"numoutlets" : 0,
					"id" : "obj-22",
					"comment" : "Zoom-rotation output"
				}

			}
, 			{
				"box" : 				{
					"maxclass" : "newobj",
					"text" : "jcom.oscroute /genframe /data_smoothing /color /threshold /noise",
					"patching_rect" : [ 26.0, 48.0, 340.0, 17.0 ],
					"outlettype" : [ "", "", "", "", "", "" ],
					"fontsize" : 9.0,
					"numinlets" : 1,
					"numoutlets" : 6,
					"id" : "obj-23",
					"fontname" : "Arial"
				}

			}
, 			{
				"box" : 				{
					"maxclass" : "comment",
					"text" : "INSTRUCTIONS",
					"patching_rect" : [ 53.0, 10.0, 78.0, 17.0 ],
					"fontsize" : 9.0,
					"numinlets" : 1,
					"numoutlets" : 0,
					"id" : "obj-24",
					"fontname" : "Arial"
				}

			}
, 			{
				"box" : 				{
					"maxclass" : "inlet",
					"patching_rect" : [ 26.0, 9.0, 25.0, 25.0 ],
					"outlettype" : [ "" ],
					"numinlets" : 0,
					"numoutlets" : 1,
					"id" : "obj-25",
					"comment" : ""
				}

			}
, 			{
				"box" : 				{
					"maxclass" : "comment",
					"text" : "VIDEO INPUT",
					"patching_rect" : [ 206.0, 11.0, 68.0, 17.0 ],
					"fontsize" : 9.0,
					"numinlets" : 1,
					"numoutlets" : 0,
					"id" : "obj-26",
					"fontname" : "Arial"
				}

			}
, 			{
				"box" : 				{
					"maxclass" : "inlet",
					"patching_rect" : [ 178.0, 9.0, 25.0, 25.0 ],
					"outlettype" : [ "" ],
					"numinlets" : 0,
					"numoutlets" : 1,
					"id" : "obj-27",
					"comment" : "Video in"
				}

			}
 ],
		"lines" : [ 			{
				"patchline" : 				{
					"source" : [ "obj-16", 0 ],
					"destination" : [ "obj-22", 0 ],
					"hidden" : 0,
					"midpoints" : [  ]
				}

			}
, 			{
				"patchline" : 				{
					"source" : [ "obj-23", 4 ],
					"destination" : [ "obj-16", 1 ],
					"hidden" : 0,
					"midpoints" : [ 292.299988, 209.0, 224.5, 209.0 ]
				}

			}
, 			{
				"patchline" : 				{
					"source" : [ "obj-23", 3 ],
					"destination" : [ "obj-21", 1 ],
					"hidden" : 0,
					"midpoints" : [ 228.100006, 122.0, 241.5, 122.0 ]
				}

			}
, 			{
				"patchline" : 				{
					"source" : [ "obj-21", 0 ],
					"destination" : [ "obj-16", 0 ],
					"hidden" : 0,
					"midpoints" : [  ]
				}

			}
, 			{
				"patchline" : 				{
					"source" : [ "obj-27", 0 ],
					"destination" : [ "obj-14", 1 ],
					"hidden" : 0,
					"midpoints" : [  ]
				}

			}
, 			{
				"patchline" : 				{
					"source" : [ "obj-21", 0 ],
					"destination" : [ "obj-13", 1 ],
					"hidden" : 0,
					"midpoints" : [ 163.5, 194.0, 142.5, 194.0 ]
				}

			}
, 			{
				"patchline" : 				{
					"source" : [ "obj-20", 0 ],
					"destination" : [ "obj-21", 0 ],
					"hidden" : 0,
					"midpoints" : [  ]
				}

			}
, 			{
				"patchline" : 				{
					"source" : [ "obj-23", 0 ],
					"destination" : [ "obj-20", 0 ],
					"hidden" : 0,
					"midpoints" : [  ]
				}

			}
, 			{
				"patchline" : 				{
					"source" : [ "obj-14", 0 ],
					"destination" : [ "obj-20", 0 ],
					"hidden" : 0,
					"midpoints" : [  ]
				}

			}
, 			{
				"patchline" : 				{
					"source" : [ "obj-23", 2 ],
					"destination" : [ "obj-14", 0 ],
					"hidden" : 0,
					"midpoints" : [  ]
				}

			}
, 			{
				"patchline" : 				{
					"source" : [ "obj-23", 1 ],
					"destination" : [ "obj-13", 0 ],
					"hidden" : 0,
					"midpoints" : [  ]
				}

			}
, 			{
				"patchline" : 				{
					"source" : [ "obj-25", 0 ],
					"destination" : [ "obj-23", 0 ],
					"hidden" : 0,
					"midpoints" : [  ]
				}

			}
 ]
	}

}
