max v2;#N vpatcher 80 56 460 325;#P origin -31 12;#P window setfont "Sans Serif" 9.;#P window linecount 1;#N vpatcher 116 172 576 640;#P origin 0 -17;#P window setfont "Sans Serif" 9.;#P window linecount 1;#P comment 227 181 108 196617 Removing zero values;#P newex 187 179 35 196617 sel 0.;#P window linecount 0;#P newex 133 177 35 196617 sel 0.;#P window linecount 1;#P newex 201 243 52 196617 change 0.;#P newex 140 244 52 196617 change 0.;#P newex 83 244 52 196617 change 0.;#P window linecount 0;#P newex 105 283 81 196617 scale 0. 1. 1. 0.;#P newex 118 42 86 196617 jcom.rgb2luma%;#P window linecount 1;#P newex 214 127 80 196617 s $0_jcom.sum;#P flonum 50 182 35 9 0 0 0 3 0 0 0 221 221 221 222 222 222 0 0 0;#P window linecount 0;#P newex 201 211 55 196617 slide 3. 3.;#P newex 140 211 55 196617 slide 3. 3.;#P newex 83 211 55 196617 slide 3. 3.;#P window linecount 3;#P newex 105 305 302 196617 jcom.return motion/y @range 0. 1. @type msg_float @description "The center of gravity for the y-axis of the motion in the frame in a range of 0. to 1. (zero is bottom - one is top).";#P window linecount 1;#P newex 133 153 64 196617 unpack 0. 0.;#P window linecount 3;#P newex 93 354 302 196617 jcom.return motion/x @range 0. 1. @type msg_float @description "The center of gravity for the x-axis of the motion in the frame in a range of 0. to 1. (zero is left - one is right).";#P window linecount 2;#P newex 83 402 330 196617 jcom.return motion/quantity @type msg_float @range 0. 1. @description "The amount of motion in the frame in a range of 0. to 1.";#P window linecount 1;#P newex 83 124 110 196617 route quantity location;#P newex 83 64 45 196617 gate 1 1;#P newex 83 86 62 196617 jcom.sum%;#P inlet 118 21 15 0;#P inlet 50 21 15 0;#P window linecount 0;#P comment 209 146 166 196617 Send to centroid-drawing subpatch;#P connect 1 0 13 0;#P connect 4 0 3 0;#P connect 3 0 5 0;#P connect 5 0 10 0;#P connect 10 0 17 0;#P connect 17 0 6 0;#P fasten 18 0 7 0 145 269 98 269;#P fasten 13 0 10 1 55 203 110 203;#P fasten 19 0 16 0 206 276 110 276;#P connect 16 0 9 0;#P connect 2 0 15 0;#P connect 15 0 4 1;#P fasten 13 0 10 2 55 203 132 203;#P connect 5 1 8 0;#P connect 8 0 20 0;#P connect 20 1 11 0;#P connect 11 0 18 0;#P fasten 13 0 11 1 55 203 167 203;#P fasten 13 0 11 2 55 203 189 203;#P connect 8 1 21 0;#P connect 21 1 12 0;#P connect 12 0 19 0;#P fasten 3 0 14 0 88 115 219 115;#P fasten 13 0 12 1 55 203 228 203;#P fasten 13 0 12 2 55 203 250 203;#P pop;#P newobj 83 151 71 196617 p return-data;#N vpatcher 266 324 464 539;#P window setfont "Sans Serif" 9.;#P newex 50 69 27 196617 + 1;#P toggle 50 50 15 0;#P newex 50 113 86 196617 jcom.rgb2luma%;#P newex 50 90 47 196617 gate 2 1;#P inlet 50 30 15 0;#P inlet 87 31 15 0;#P outlet 50 152 15 0;#P connect 2 0 5 0;#P connect 5 0 6 0;#P connect 6 0 3 0;#P connect 3 0 4 0;#P connect 3 1 0 0;#P connect 4 0 0 0;#P connect 1 0 3 1;#P pop;#P newobj 144 82 46 196617 p colour;#N vpatcher 498 44 876 389;#P window setfont "Sans Serif" 9.;#P window linecount 0;#P newex 50 69 27 196617 + 1;#P toggle 50 50 15 0;#P newex 50 90 47 196617 gate 2 2;#P inlet 21 30 15 0;#P inlet 50 30 15 0;#P outlet 50 298 15 0;#P number 106 131 35 9 0 0 0 3 0 0 0 221 221 221 222 222 222 0 0 0;#P message 106 149 48 196617 range \$1;#P flonum 159 131 35 9 0 0 0 3 0 0 0 221 221 221 222 222 222 0 0 0;#P flonum 217 131 35 9 0 0 0 3 0 0 0 221 221 221 222 222 222 0 0 0;#P message 217 149 41 196617 ring \$1;#P message 159 149 52 196617 center \$1;#P flonum 265 131 47 9 0 0 0 3 0 0 0 221 221 221 222 222 222 0 0 0;#P message 265 149 49 196617 ripple \$1;#P window linecount 1;#P comment 272 205 52 196617 Threshold;#P number 230 203 35 9 0 0 0 3 0 0 0 221 221 221 222 222 222 0 0 0;#P newex 87 202 105 196617 jit.op @op > @val 125;#P newex 87 179 145 196617 jit.fastblur @range 3 @mode 4;#P connect 13 0 16 0;#P connect 16 0 17 0;#P connect 17 0 15 0;#P connect 1 0 12 0;#P connect 15 0 12 0;#P connect 14 0 15 1;#P connect 15 1 0 0;#P fasten 6 0 0 0 164 171 92 171;#P fasten 7 0 0 0 222 171 92 171;#P fasten 10 0 0 0 111 171 92 171;#P fasten 4 0 0 0 270 171 92 171;#P connect 0 0 1 0;#P connect 11 0 10 0;#P connect 9 0 6 0;#P connect 2 0 1 1;#P lcolor 1;#P connect 8 0 7 0;#P connect 5 0 4 0;#P pop;#P newobj 188 151 88 196617 p noise-reduction;#P comment 205 218 75 196617 VIDEO OUTPUT;#P newex 144 104 74 196617 jcom.motion%;#P newex 144 125 105 196617 jit.op @op > @val 0.1;#N comlet Zoom-rotation output;#P outlet 188 218 15 0;#P newex 22 55 319 196617 jcom.oscroute /genframe /data_smoothing /color /threshold /noise;#P comment 39 31 75 196617 INSTRUCTIONS;#P inlet 22 31 15 0;#P comment 199 31 75 196617 VIDEO INPUT;#N comlet Video in;#P inlet 180 31 15 0;#P connect 2 0 4 0;#P connect 4 1 11 0;#P connect 4 2 10 0;#P connect 4 0 7 0;#P connect 10 0 7 0;#P connect 7 0 6 0;#P connect 6 0 11 1;#P connect 0 0 10 1;#P fasten 6 0 9 0 149 145 193 145;#P connect 9 0 5 0;#P connect 4 3 6 1;#P connect 4 4 9 1;#P pop;