max v2;#N vpatcher 309 62 1203 618;#P origin 0 -1065;#P window setfont "Sans Serif" 9.;#P window linecount 1;#P hidden message 106 70 191 196617 /preset/store 1 default \, /preset/write;#B color 3;#P hidden comment 19 157 79 196617 command output;#P hidden newex 443 192 49 196617 jcom.out;#P hidden inlet 409 9 13 0;#P hidden comment 424 9 65 196617 VIDEO INPUT;#P hidden newex 409 28 78 196617 jcom.in 1;#P hidden newex 457 408 355 196617 jcom.parameter color @type msg_toggle @description "Color or greyscale";#P objectname color[1];#P hidden newex 457 388 57 196617 pvar color;#P user radiogroup 171 22 18 16;#X size 1;#X offset 16;#X inactive 0;#X itemtype 1;#X flagmode 0;#X set 0;#X done;#P objectname color;#P comment 144 24 33 196617 color;#B frgb 149 149 149;#P hidden newex 443 104 47 196617 pcontrol;#P hidden newex 443 80 78 196617 jcom.pass open;#P hidden newex 455 346 371 196617 jcom.parameter edge/threshold @type msg_float @description "Edge threshold";#P objectname edge/threshold;#P hidden newex 455 326 102 196617 pvar edge_threshold;#P hidden newex 454 290 382 196617 jcom.parameter edge/algorithm @type msg_symbol @description "Edge detection";#P objectname edge/algorithm;#P hidden newex 454 268 112 196617 pvar edge_algorithm 2;#P window linecount 2;#P hidden newex 34 460 213 196617 jcom.parameter slide @type msg_float @description "Level of slide for thre trails";#P objectname slide[1];#P window linecount 1;#P hidden newex 34 440 55 196617 pvar slide;#P hidden newex 34 402 380 196617 jcom.parameter trails @type msg_toggle @description "Trails - ghostlike image";#P objectname trails[1];#P hidden newex 34 382 59 196617 pvar trails;#P user radiogroup 116 22 18 16;#X size 1;#X offset 16;#X inactive 0;#X itemtype 1;#X flagmode 0;#X set 1;#X done;#P objectname noise;#P hidden newex 34 341 340 196617 jcom.parameter noise @type msg_toggle @description "Noise reduction";#P objectname noise[1];#P hidden newex 34 321 57 196617 pvar noise;#P comment 89 24 33 196617 noise;#B frgb 149 149 149;#P hidden outlet 443 233 13 0;#P flonum 53 22 35 9 0. 0 8225 3 181 181 181 221 221 221 255 255 255 0 0 0;#P objectname threshold;#P comment 4 24 52 196617 threshold;#B frgb 149 149 149;#P hidden message 123 87 119 196617 documentation/generate;#B color 3;#P hidden newex 34 281 352 196617 jcom.parameter threshold @type msg_float @description "Threshold";#P objectname threshold[1];#P hidden newex 34 261 76 196617 pvar threshold;#P hidden comment 457 233 75 196617 VIDEO OUTPUT;#P hidden newex 443 161 96 196617 jalg.motion2%.mxt;#P hidden comment 15 84 79 196617 command input;#P window linecount 2;#P hidden newex 1 109 358 196617 jcom.hub jmod.motion% @size 1U-half @module_type video @algorithm_type jitter @description "Motion-related analysis" @inspector 0;#P objectname jcom.hub;#P hidden outlet 1 157 13 0;#P hidden inlet 1 84 13 0;#P bpatcher 0 0 256 60 0 0 jcom.gui.mxt 0;#P objectname jcom.gui;#P hidden connect 1 0 3 0;#P hidden fasten 9 0 3 0 128 106 6 106;#P hidden fasten 36 0 3 0 111 106 6 106;#P hidden connect 3 0 2 0;#P hidden fasten 8 0 7 0 39 306 29 306 29 256 39 256;#P hidden connect 7 0 8 0;#P hidden fasten 15 0 14 0 39 366 29 366 29 316 39 316;#P hidden connect 14 0 15 0;#P hidden fasten 18 0 17 0 39 427 27 427 27 375 39 375;#P hidden connect 17 0 18 0;#P hidden fasten 20 0 19 0 39 494 29 494 29 435 39 435;#P hidden connect 19 0 20 0;#P hidden connect 33 0 31 0;#P hidden connect 31 1 25 0;#P hidden connect 25 0 26 0;#P hidden fasten 26 0 5 0 448 150 448 150;#P hidden fasten 25 1 5 0 516 154 448 154;#P hidden connect 5 0 34 0;#P hidden connect 34 0 12 0;#P hidden fasten 22 0 21 0 459 312 449 312 449 265 459 265;#P hidden connect 21 0 22 0;#P hidden fasten 24 0 23 0 460 371 450 371 450 321 460 321;#P hidden connect 23 0 24 0;#P hidden fasten 30 0 29 0 462 433 452 433 452 383 462 383;#P hidden connect 29 0 30 0;#P hidden connect 31 0 5 1;#P pop;