{
	"patcher" : 	{
		"fileversion" : 1,
		"rect" : [ 116.0, 191.0, 878.0, 549.0 ],
		"bglocked" : 0,
		"defrect" : [ 116.0, 191.0, 878.0, 549.0 ],
		"openrect" : [ 0.0, 0.0, 0.0, 0.0 ],
		"openinpresentation" : 1,
		"default_fontsize" : 12.0,
		"default_fontface" : 0,
		"default_fontname" : "Arial",
		"gridonopen" : 0,
		"gridsize" : [ 5.0, 5.0 ],
		"gridsnaponopen" : 0,
		"toolbarvisible" : 1,
		"boxanimatetime" : 200,
		"imprint" : 0,
		"metadata" : [  ],
		"boxes" : [ 			{
				"box" : 				{
					"maxclass" : "message",
					"text" : "/preset/store 1 default, /preset/write",
					"numinlets" : 2,
					"id" : "obj-1",
					"fontname" : "Arial",
					"numoutlets" : 1,
					"outlettype" : [ "" ],
					"fontsize" : 9.0,
					"bgcolor" : [ 0.8, 0.54902, 0.54902, 1.0 ],
					"patching_rect" : [ 141.0, 85.0, 191.0, 15.0 ]
				}

			}
, 			{
				"box" : 				{
					"maxclass" : "comment",
					"text" : "command output",
					"numinlets" : 1,
					"id" : "obj-2",
					"fontname" : "Arial",
					"frgb" : [ 0.933333, 0.937255, 0.968627, 1.0 ],
					"numoutlets" : 0,
					"fontsize" : 9.0,
					"patching_rect" : [ 68.0, 177.0, 78.0, 17.0 ]
				}

			}
, 			{
				"box" : 				{
					"maxclass" : "newobj",
					"text" : "jcom.out",
					"numinlets" : 1,
					"id" : "obj-3",
					"fontname" : "Arial",
					"numoutlets" : 2,
					"outlettype" : [ "", "" ],
					"fontsize" : 9.0,
					"patching_rect" : [ 444.0, 118.0, 49.0, 17.0 ]
				}

			}
, 			{
				"box" : 				{
					"maxclass" : "inlet",
					"numinlets" : 0,
					"id" : "obj-4",
					"numoutlets" : 1,
					"outlettype" : [ "" ],
					"patching_rect" : [ 413.0, 16.0, 25.0, 25.0 ],
					"comment" : ""
				}

			}
, 			{
				"box" : 				{
					"maxclass" : "comment",
					"text" : "VIDEO INPUT",
					"numinlets" : 1,
					"id" : "obj-5",
					"fontname" : "Arial",
					"frgb" : [ 0.933333, 0.937255, 0.968627, 1.0 ],
					"numoutlets" : 0,
					"fontsize" : 9.0,
					"patching_rect" : [ 440.0, 20.0, 68.0, 17.0 ]
				}

			}
, 			{
				"box" : 				{
					"maxclass" : "newobj",
					"text" : "jcom.in 1",
					"numinlets" : 1,
					"id" : "obj-6",
					"fontname" : "Arial",
					"numoutlets" : 3,
					"outlettype" : [ "", "", "" ],
					"fontsize" : 9.0,
					"patching_rect" : [ 413.0, 46.0, 78.0, 17.0 ]
				}

			}
, 			{
				"box" : 				{
					"maxclass" : "newobj",
					"varname" : "color[1]",
					"text" : "jcom.parameter color @type msg_toggle @description \"Color or greyscale\"",
					"numinlets" : 1,
					"id" : "obj-7",
					"fontname" : "Arial",
					"numoutlets" : 3,
					"outlettype" : [ "", "", "" ],
					"fontsize" : 9.0,
					"patching_rect" : [ 454.0, 408.0, 355.0, 17.0 ]
				}

			}
, 			{
				"box" : 				{
					"maxclass" : "radiogroup",
					"varname" : "color",
					"presentation" : 1,
					"activecolor" : [ 0.360784, 0.360784, 0.360784, 1.0 ],
					"numinlets" : 1,
					"id" : "obj-9",
					"numoutlets" : 1,
					"presentation_rect" : [ 201.352936, 34.967915, 18.0, 18.0 ],
					"outlettype" : [ "" ],
					"patching_rect" : [ 454.0, 387.0, 18.0, 18.0 ],
					"itemtype" : 1,
					"size" : 1,
					"values" : [ 0 ],
					"disabled" : [ 0 ]
				}

			}
, 			{
				"box" : 				{
					"maxclass" : "comment",
					"text" : "color",
					"presentation" : 1,
					"textcolor" : [ 0.576471, 0.576471, 0.576471, 1.0 ],
					"numinlets" : 1,
					"id" : "obj-10",
					"fontname" : "Verdana",
					"frgb" : [ 0.576471, 0.576471, 0.576471, 1.0 ],
					"numoutlets" : 0,
					"presentation_rect" : [ 172.0, 34.967915, 40.0, 19.0 ],
					"fontsize" : 10.0,
					"patching_rect" : [ 144.0, 24.0, 40.0, 19.0 ]
				}

			}
, 			{
				"box" : 				{
					"maxclass" : "newobj",
					"varname" : "edge/threshold",
					"text" : "jcom.parameter edge/threshold @type msg_float @description \"Edge threshold\"",
					"numinlets" : 1,
					"id" : "obj-13",
					"fontname" : "Arial",
					"numoutlets" : 3,
					"outlettype" : [ "", "", "" ],
					"fontsize" : 9.0,
					"patching_rect" : [ 454.0, 346.0, 371.0, 17.0 ]
				}

			}
, 			{
				"box" : 				{
					"maxclass" : "newobj",
					"text" : "pvar edge_threshold",
					"numinlets" : 1,
					"id" : "obj-14",
					"fontname" : "Arial",
					"numoutlets" : 1,
					"outlettype" : [ "" ],
					"fontsize" : 9.0,
					"patching_rect" : [ 454.0, 326.0, 102.0, 17.0 ]
				}

			}
, 			{
				"box" : 				{
					"maxclass" : "newobj",
					"varname" : "edge/algorithm",
					"text" : "jcom.parameter edge/algorithm @type msg_symbol @description \"Edge detection\"",
					"numinlets" : 1,
					"id" : "obj-15",
					"fontname" : "Arial",
					"numoutlets" : 3,
					"outlettype" : [ "", "", "" ],
					"fontsize" : 9.0,
					"patching_rect" : [ 454.0, 290.0, 382.0, 17.0 ]
				}

			}
, 			{
				"box" : 				{
					"maxclass" : "newobj",
					"text" : "pvar edge_algorithm 2",
					"numinlets" : 1,
					"id" : "obj-16",
					"fontname" : "Arial",
					"numoutlets" : 2,
					"outlettype" : [ "", "" ],
					"fontsize" : 9.0,
					"patching_rect" : [ 454.0, 268.0, 112.0, 17.0 ]
				}

			}
, 			{
				"box" : 				{
					"maxclass" : "newobj",
					"varname" : "slide[1]",
					"text" : "jcom.parameter slide @type msg_float @description \"Level of slide for thre trails\"",
					"linecount" : 2,
					"numinlets" : 1,
					"id" : "obj-17",
					"fontname" : "Arial",
					"numoutlets" : 3,
					"outlettype" : [ "", "", "" ],
					"fontsize" : 9.0,
					"patching_rect" : [ 34.0, 460.0, 213.0, 27.0 ]
				}

			}
, 			{
				"box" : 				{
					"maxclass" : "newobj",
					"text" : "pvar slide",
					"numinlets" : 1,
					"id" : "obj-18",
					"fontname" : "Arial",
					"numoutlets" : 1,
					"outlettype" : [ "" ],
					"fontsize" : 9.0,
					"patching_rect" : [ 34.0, 440.0, 55.0, 17.0 ]
				}

			}
, 			{
				"box" : 				{
					"maxclass" : "newobj",
					"varname" : "trails[1]",
					"text" : "jcom.parameter trails @type msg_toggle @description \"Trails - ghostlike image\"",
					"numinlets" : 1,
					"id" : "obj-19",
					"fontname" : "Arial",
					"numoutlets" : 3,
					"outlettype" : [ "", "", "" ],
					"fontsize" : 9.0,
					"patching_rect" : [ 34.0, 402.0, 380.0, 17.0 ]
				}

			}
, 			{
				"box" : 				{
					"maxclass" : "newobj",
					"text" : "pvar trails",
					"numinlets" : 1,
					"id" : "obj-20",
					"fontname" : "Arial",
					"numoutlets" : 1,
					"outlettype" : [ "" ],
					"fontsize" : 9.0,
					"patching_rect" : [ 34.0, 382.0, 59.0, 17.0 ]
				}

			}
, 			{
				"box" : 				{
					"maxclass" : "radiogroup",
					"varname" : "noise",
					"presentation" : 1,
					"activecolor" : [ 0.360784, 0.360784, 0.360784, 1.0 ],
					"numinlets" : 1,
					"id" : "obj-21",
					"numoutlets" : 1,
					"presentation_rect" : [ 146.352936, 34.967915, 18.0, 18.0 ],
					"outlettype" : [ "" ],
					"patching_rect" : [ 34.0, 320.0, 18.0, 18.0 ],
					"itemtype" : 1,
					"size" : 1,
					"values" : [ 1 ],
					"disabled" : [ 0 ]
				}

			}
, 			{
				"box" : 				{
					"maxclass" : "newobj",
					"varname" : "noise[1]",
					"text" : "jcom.parameter noise @type msg_toggle @description \"Noise reduction\"",
					"numinlets" : 1,
					"id" : "obj-22",
					"fontname" : "Arial",
					"numoutlets" : 3,
					"outlettype" : [ "", "", "" ],
					"fontsize" : 9.0,
					"patching_rect" : [ 34.0, 341.0, 340.0, 17.0 ]
				}

			}
, 			{
				"box" : 				{
					"maxclass" : "comment",
					"text" : "noise",
					"presentation" : 1,
					"textcolor" : [ 0.576471, 0.576471, 0.576471, 1.0 ],
					"numinlets" : 1,
					"id" : "obj-24",
					"fontname" : "Verdana",
					"frgb" : [ 0.576471, 0.576471, 0.576471, 1.0 ],
					"numoutlets" : 0,
					"presentation_rect" : [ 116.0, 34.967915, 40.0, 19.0 ],
					"fontsize" : 10.0,
					"patching_rect" : [ 89.0, 24.0, 40.0, 19.0 ]
				}

			}
, 			{
				"box" : 				{
					"maxclass" : "outlet",
					"numinlets" : 1,
					"id" : "obj-25",
					"numoutlets" : 0,
					"patching_rect" : [ 444.0, 155.0, 25.0, 25.0 ],
					"comment" : ""
				}

			}
, 			{
				"box" : 				{
					"maxclass" : "flonum",
					"varname" : "threshold",
					"presentation" : 1,
					"numinlets" : 1,
					"triangle" : 0,
					"triscale" : 0.9,
					"id" : "obj-26",
					"fontname" : "Verdana",
					"minimum" : 0.0,
					"numoutlets" : 2,
					"presentation_rect" : [ 66.320854, 34.967915, 43.0, 19.0 ],
					"outlettype" : [ "float", "bang" ],
					"fontsize" : 10.0,
					"patching_rect" : [ 34.0, 260.0, 43.0, 19.0 ]
				}

			}
, 			{
				"box" : 				{
					"maxclass" : "comment",
					"text" : "threshold",
					"presentation" : 1,
					"textcolor" : [ 0.576471, 0.576471, 0.576471, 1.0 ],
					"numinlets" : 1,
					"id" : "obj-27",
					"fontname" : "Verdana",
					"frgb" : [ 0.576471, 0.576471, 0.576471, 1.0 ],
					"numoutlets" : 0,
					"presentation_rect" : [ 11.0, 34.967915, 64.0, 19.0 ],
					"fontsize" : 10.0,
					"patching_rect" : [ 4.0, 24.0, 64.0, 19.0 ]
				}

			}
, 			{
				"box" : 				{
					"maxclass" : "message",
					"text" : "documentation/generate",
					"numinlets" : 2,
					"id" : "obj-28",
					"fontname" : "Arial",
					"numoutlets" : 1,
					"outlettype" : [ "" ],
					"fontsize" : 9.0,
					"bgcolor" : [ 0.8, 0.54902, 0.54902, 1.0 ],
					"patching_rect" : [ 158.0, 102.0, 119.0, 15.0 ]
				}

			}
, 			{
				"box" : 				{
					"maxclass" : "newobj",
					"varname" : "threshold[1]",
					"text" : "jcom.parameter threshold @type msg_float @description \\\"Threshold\\\"",
					"numinlets" : 1,
					"id" : "obj-29",
					"fontname" : "Arial",
					"numoutlets" : 3,
					"outlettype" : [ "", "", "" ],
					"fontsize" : 9.0,
					"patching_rect" : [ 34.0, 281.0, 352.0, 17.0 ]
				}

			}
, 			{
				"box" : 				{
					"maxclass" : "comment",
					"text" : "VIDEO OUTPUT",
					"numinlets" : 1,
					"id" : "obj-31",
					"fontname" : "Arial",
					"frgb" : [ 0.933333, 0.937255, 0.968627, 1.0 ],
					"numoutlets" : 0,
					"fontsize" : 9.0,
					"patching_rect" : [ 471.0, 159.0, 78.0, 17.0 ]
				}

			}
, 			{
				"box" : 				{
					"maxclass" : "newobj",
					"text" : "jalg.motion2%",
					"numinlets" : 2,
					"id" : "obj-32",
					"fontname" : "Arial",
					"numoutlets" : 1,
					"outlettype" : [ "" ],
					"fontsize" : 9.0,
					"patching_rect" : [ 444.0, 87.0, 96.0, 17.0 ]
				}

			}
, 			{
				"box" : 				{
					"maxclass" : "comment",
					"text" : "command input",
					"numinlets" : 1,
					"id" : "obj-33",
					"fontname" : "Arial",
					"frgb" : [ 0.933333, 0.937255, 0.968627, 1.0 ],
					"numoutlets" : 0,
					"fontsize" : 9.0,
					"patching_rect" : [ 65.0, 90.0, 72.0, 17.0 ]
				}

			}
, 			{
				"box" : 				{
					"maxclass" : "newobj",
					"varname" : "jcom.hub",
					"text" : "jcom.hub @module_type video @algorithm_type jitter @description \"Motion-related analysis\"",
					"linecount" : 2,
					"numinlets" : 1,
					"id" : "obj-34",
					"fontname" : "Arial",
					"numoutlets" : 2,
					"outlettype" : [ "", "" ],
					"fontsize" : 9.0,
					"patching_rect" : [ 36.0, 123.332855, 239.14917, 27.0 ]
				}

			}
, 			{
				"box" : 				{
					"maxclass" : "outlet",
					"numinlets" : 1,
					"id" : "obj-35",
					"numoutlets" : 0,
					"patching_rect" : [ 36.0, 172.0, 25.0, 25.0 ],
					"comment" : ""
				}

			}
, 			{
				"box" : 				{
					"maxclass" : "inlet",
					"numinlets" : 0,
					"id" : "obj-36",
					"numoutlets" : 1,
					"outlettype" : [ "" ],
					"patching_rect" : [ 36.0, 89.0, 25.0, 25.0 ],
					"comment" : ""
				}

			}
, 			{
				"box" : 				{
					"maxclass" : "jit.pwindow",
					"presentation" : 1,
					"numinlets" : 1,
					"id" : "obj-38",
					"numoutlets" : 2,
					"presentation_rect" : [ 237.0, 23.0, 60.0, 45.0 ],
					"outlettype" : [ "", "" ],
					"patching_rect" : [ 237.0, 23.0, 60.0, 45.0 ]
				}

			}
, 			{
				"box" : 				{
					"maxclass" : "jcom.ui",
					"text" : "/editing_this_module",
					"presentation" : 1,
					"has_bypass" : 1,
					"numinlets" : 1,
					"prefix" : "video",
					"id" : "obj-39",
					"numoutlets" : 1,
					"has_freeze" : 1,
					"presentation_rect" : [ 0.0, 1.0, 300.0, 70.0 ],
					"outlettype" : [ "" ],
					"has_mute" : 1,
					"has_preview" : 1,
					"patching_rect" : [ 0.0, 1.0, 300.0, 70.0 ]
				}

			}
 ],
		"lines" : [ 			{
				"patchline" : 				{
					"source" : [ "obj-6", 1 ],
					"destination" : [ "obj-32", 0 ],
					"hidden" : 0,
					"midpoints" : [  ]
				}

			}
, 			{
				"patchline" : 				{
					"source" : [ "obj-34", 0 ],
					"destination" : [ "obj-35", 0 ],
					"hidden" : 0,
					"midpoints" : [  ]
				}

			}
, 			{
				"patchline" : 				{
					"source" : [ "obj-1", 0 ],
					"destination" : [ "obj-34", 0 ],
					"hidden" : 0,
					"midpoints" : [ 150.5, 121.0, 45.5, 121.0 ]
				}

			}
, 			{
				"patchline" : 				{
					"source" : [ "obj-28", 0 ],
					"destination" : [ "obj-34", 0 ],
					"hidden" : 0,
					"midpoints" : [ 167.5, 121.0, 45.5, 121.0 ]
				}

			}
, 			{
				"patchline" : 				{
					"source" : [ "obj-36", 0 ],
					"destination" : [ "obj-34", 0 ],
					"hidden" : 0,
					"midpoints" : [  ]
				}

			}
, 			{
				"patchline" : 				{
					"source" : [ "obj-7", 0 ],
					"destination" : [ "obj-9", 0 ],
					"hidden" : 0,
					"midpoints" : [ 463.5, 426.0, 444.0, 426.0, 444.0, 384.0, 463.5, 384.0 ]
				}

			}
, 			{
				"patchline" : 				{
					"source" : [ "obj-9", 0 ],
					"destination" : [ "obj-7", 0 ],
					"hidden" : 0,
					"midpoints" : [  ]
				}

			}
, 			{
				"patchline" : 				{
					"source" : [ "obj-22", 0 ],
					"destination" : [ "obj-21", 0 ],
					"hidden" : 0,
					"midpoints" : [ 43.5, 360.0, 21.0, 360.0, 21.0, 315.0, 43.5, 315.0 ]
				}

			}
, 			{
				"patchline" : 				{
					"source" : [ "obj-21", 0 ],
					"destination" : [ "obj-22", 0 ],
					"hidden" : 0,
					"midpoints" : [  ]
				}

			}
, 			{
				"patchline" : 				{
					"source" : [ "obj-29", 0 ],
					"destination" : [ "obj-26", 0 ],
					"hidden" : 0,
					"midpoints" : [ 43.5, 300.0, 21.0, 300.0, 21.0, 255.0, 43.5, 255.0 ]
				}

			}
, 			{
				"patchline" : 				{
					"source" : [ "obj-26", 0 ],
					"destination" : [ "obj-29", 0 ],
					"hidden" : 0,
					"midpoints" : [  ]
				}

			}
, 			{
				"patchline" : 				{
					"source" : [ "obj-19", 0 ],
					"destination" : [ "obj-20", 0 ],
					"hidden" : 0,
					"midpoints" : [ 43.5, 427.0, 27.0, 427.0, 27.0, 375.0, 43.5, 375.0 ]
				}

			}
, 			{
				"patchline" : 				{
					"source" : [ "obj-20", 0 ],
					"destination" : [ "obj-19", 0 ],
					"hidden" : 0,
					"midpoints" : [  ]
				}

			}
, 			{
				"patchline" : 				{
					"source" : [ "obj-17", 0 ],
					"destination" : [ "obj-18", 0 ],
					"hidden" : 0,
					"midpoints" : [ 43.5, 494.0, 29.0, 494.0, 29.0, 435.0, 43.5, 435.0 ]
				}

			}
, 			{
				"patchline" : 				{
					"source" : [ "obj-18", 0 ],
					"destination" : [ "obj-17", 0 ],
					"hidden" : 0,
					"midpoints" : [  ]
				}

			}
, 			{
				"patchline" : 				{
					"source" : [ "obj-4", 0 ],
					"destination" : [ "obj-6", 0 ],
					"hidden" : 0,
					"midpoints" : [  ]
				}

			}
, 			{
				"patchline" : 				{
					"source" : [ "obj-32", 0 ],
					"destination" : [ "obj-3", 0 ],
					"hidden" : 0,
					"midpoints" : [  ]
				}

			}
, 			{
				"patchline" : 				{
					"source" : [ "obj-3", 0 ],
					"destination" : [ "obj-25", 0 ],
					"hidden" : 0,
					"midpoints" : [  ]
				}

			}
, 			{
				"patchline" : 				{
					"source" : [ "obj-15", 0 ],
					"destination" : [ "obj-16", 0 ],
					"hidden" : 0,
					"midpoints" : [ 463.5, 312.0, 449.0, 312.0, 449.0, 265.0, 463.5, 265.0 ]
				}

			}
, 			{
				"patchline" : 				{
					"source" : [ "obj-16", 0 ],
					"destination" : [ "obj-15", 0 ],
					"hidden" : 0,
					"midpoints" : [  ]
				}

			}
, 			{
				"patchline" : 				{
					"source" : [ "obj-13", 0 ],
					"destination" : [ "obj-14", 0 ],
					"hidden" : 0,
					"midpoints" : [ 463.5, 371.0, 450.0, 371.0, 450.0, 321.0, 463.5, 321.0 ]
				}

			}
, 			{
				"patchline" : 				{
					"source" : [ "obj-14", 0 ],
					"destination" : [ "obj-13", 0 ],
					"hidden" : 0,
					"midpoints" : [  ]
				}

			}
, 			{
				"patchline" : 				{
					"source" : [ "obj-6", 0 ],
					"destination" : [ "obj-32", 1 ],
					"hidden" : 0,
					"midpoints" : [ 422.5, 73.0, 530.5, 73.0 ]
				}

			}
, 			{
				"patchline" : 				{
					"source" : [ "obj-39", 0 ],
					"destination" : [ "obj-38", 0 ],
					"hidden" : 0,
					"midpoints" : [  ]
				}

			}
 ]
	}

}
