max v2;
#N vpatcher 10 59 610 459;
#P origin -102 -221;
#P window setfont "Sans Serif" 12.;
#P number 192 1 15 12 0 0 8353 3 255 255 255 221 221 221 222 222 222 0 0 0;
#P number 135 1 15 12 0 0 8353 3 255 255 255 221 221 221 222 222 222 0 0 0;
#P number 93 1 15 12 0 0 8353 3 255 255 255 221 221 221 222 222 222 0 0 0;
#P number 51 1 15 12 0 0 8353 3 255 255 255 221 221 221 222 222 222 0 0 0;
#P comment 81 1 12 196620 :;
#B color 10;
#P number 66 1 15 12 0 0 8353 3 255 255 255 221 221 221 222 222 222 0 0 0;
#P comment 165 1 12 196620 :;
#B color 10;
#P number 177 1 15 12 0 0 8353 3 255 255 255 221 221 221 222 222 222 0 0 0;
#P comment 123 1 12 196620 :;
#B color 10;
#P number 150 1 15 12 0 0 8353 3 255 255 255 221 221 221 222 222 222 0 0 0;
#P number 108 1 15 12 0 0 8353 3 255 255 255 221 221 221 222 222 222 0 0 0;
#P window setfont "Sans Serif" 9.;
#P number 213 4 63 9 0 0 8352 3 255 255 255 221 221 221 222 222 222 0 0 0;
#N vpatcher -1 103 379 390;
#P window setfont "Sans Serif" 9.;
#P window linecount 1;
#P newex 199 29 61 196617 r $1;
#B color 5;
#P outlet 221 200 15 0;
#P newex 252 167 33 196617 % 10;
#P newex 221 167 30 196617 / 10;
#P outlet 252 200 15 0;
#P outlet 154 200 15 0;
#P outlet 87 200 15 0;
#P outlet 19 200 15 0;
#P window linecount 0;
#P newex 50 167 33 196617 % 10;
#P newex 19 167 30 196617 / 10;
#P newex 118 167 33 196617 % 10;
#P newex 87 167 30 196617 / 10;
#P newex 185 167 33 196617 % 10;
#P newex 154 167 30 196617 / 10;
#P newex 118 124 32 196617 % 60;
#P newex 50 124 30 196617 / 60;
#P outlet 50 200 15 0;
#P newex 185 124 32 196617 % 60;
#P window linecount 1;
#P newex 199 50 64 196617 speedlim 10;
#P outlet 185 200 15 0;
#P outlet 118 200 15 0;
#P window linecount 0;
#P newex 221 124 40 196617 % 100;
#P newex 118 94 43 196617 / 6000;
#P newex 185 94 37 196617 / 100;
#P outlet 291 200 15 0;
#P fasten 9 0 15 0 55 154 24 154;
#P connect 15 0 17 0;
#P fasten 2 0 9 0 123 117 55 117;
#P connect 9 0 16 0;
#P connect 16 0 8 0;
#P fasten 10 0 13 0 123 154 92 154;
#P connect 13 0 18 0;
#P fasten 6 0 2 0 204 73 123 73;
#P connect 2 0 10 0;
#P connect 10 0 14 0;
#P connect 14 0 4 0;
#P fasten 7 0 11 0 190 154 159 154;
#P connect 11 0 19 0;
#P fasten 6 0 1 0 204 73 190 73;
#P connect 1 0 7 0;
#P connect 7 0 12 0;
#P connect 12 0 5 0;
#P connect 24 0 6 0;
#P fasten 6 0 3 0 204 73 226 73;
#P connect 3 0 21 0;
#P connect 21 0 23 0;
#P fasten 3 0 22 0 226 154 257 154;
#P connect 22 0 20 0;
#P fasten 6 0 0 0 204 73 296 73;
#P pop;
#P hidden newobj 51 25 180 196617 p cs->h:mn:s:cs;
#P window setfont "Sans Serif" 12.;
#P comment 0 2 72 196620 $2;
#B frgb 255 255 255;
#P user panel 0 0 279 23;
#X brgb 50 50 50;
#X frgb 0 0 0;
#X border 0;
#X rounded 0;
#X shadow 0;
#X done;
#P hidden connect 2 0 11 0;
#P hidden connect 2 1 9 0;
#P hidden connect 2 2 12 0;
#P hidden connect 2 3 4 0;
#P hidden connect 2 4 13 0;
#P hidden connect 2 5 5 0;
#P hidden connect 2 6 7 0;
#P hidden connect 2 7 14 0;
#P hidden connect 2 8 3 0;
#P pop;
