max v2;
#N vpatcher 331 152 664 652;
#P origin -95 -292;
#P window setfont "Sans Serif" 9.;
#P hidden newex 154 356 60 196617 loadmess 1;
#P hidden newex 154 377 65 196617 s $1HPmute;
#B color 5;
#N vpatcher 10 59 312 243;
#P inlet 13 16 15 0;
#P outlet 13 117 15 0;
#P window setfont "Sans Serif" 9.;
#P newex 91 28 65 196617 r $1HPmute;
#B color 5;
#P newex 13 64 73 196617 sw $1HPmute;
#B color 5;
#P message 106 72 161 196617 frgb 255 255 255 \, setitem 0 OFF;
#P message 91 94 121 196617 frgb 0 0 0 \, setitem 0 ON;
#P newex 91 50 41 196617 sel 1 0;
#P newex 13 40 64 196617 route toggle;
#P message 13 88 52 196617 toggle \$1;
#P connect 8 0 1 0;
#P connect 1 0 5 0;
#P connect 5 0 0 0;
#P fasten 4 0 7 0 111 113 18 113;
#P fasten 3 0 7 0 96 113 18 113;
#P connect 0 0 7 0;
#P connect 6 0 2 0;
#P connect 2 0 3 0;
#P connect 2 1 4 0;
#P pop;
#P hidden newobj 59 378 64 196617 p on/off;
#P hidden newex 69 256 78 196617 r clearbargrafs;
#B color 5;
#P hidden newex 133 291 52 196617 autopattr;
#X prestore delms 1 0 0.;
#X prestore on 2 0 ON 1;
#X prestore trim 1 0 0.;
#P objectname u247000145;
#P hidden message 72 302 46 196617 1;
#P hidden message 57 302 14 196617 0;
#P hidden newex 57 278 33 196617 r init;
#B color 5;
#P hidden newex 54 72 93 196617 sw $1HPdelayMt~;
#B color 5;
#P hidden newex 54 51 81 196617 sw $1HPdelay~;
#B color 5;
#P hidden newex 54 31 92 196617 sw $1HPdelayVu~;
#B color 5;
#P hidden newex 54 144 34 196617 / 1.5;
#P hidden newex 54 104 35 196617 * 1.5;
#P hidden newex 54 187 71 196617 sw $1HPtrim;
#B color 5;
#P hidden newex 54 124 71 196617 sw $1HPtrim;
#B color 5;
#P hidden newex 54 167 34 196617 dbtoa;
#P hidden newex 54 207 34 196617 atodb;
#P user ubumenu 0 371 38 196617 1 0 1 1;
#X setrgb 0 0 0 0 0 0 116 116 116 0 0 0 0 200 0 45 45 45;
#X add ON;
#X prefix_set 0 0 <none> 0;
#X pattrmode 1;
#P objectname on;
#P flonum 0 353 38 9 0 0 160 3 255 255 255 50 50 50 222 222 222 0 0 0;
#P noclick;
#P user multiSlider 10 102 18 108 0. 1. 1 2681 47 0 0 2 0 50 0;
#M frgb 0 0 0;
#M brgb 255 255 255;
#M rgb2 127 127 127;
#M rgb3 0 0 0;
#M rgb4 37 52 91;
#M rgb5 74 105 182;
#M rgb6 112 158 18;
#M rgb7 149 211 110;
#M rgb8 187 9 201;
#M rgb9 224 62 37;
#M rgb10 7 114 128;
#P user multiSlider 11 24 17 45 0. 1. 1 2681 47 0 0 2 0 50 0;
#M frgb 0 0 0;
#M brgb 255 255 255;
#M rgb2 127 127 127;
#M rgb3 0 0 0;
#M rgb4 37 52 91;
#M rgb5 74 105 182;
#M rgb6 112 158 18;
#M rgb7 149 211 110;
#M rgb8 187 9 201;
#M rgb9 224 62 37;
#M rgb10 7 114 128;
#P user bargraf~ 0 231 123 38 10 0 0 0 0 155 155 155 0 186 0 77 202 0 124 225 0 255 255 0 255 0 0 225 225 225 108 108 108 225 225 225 108 108 108 0 0 0 10 1;
#P window setfont "Sans Serif" 18.;
#P comment 0 0 38 196626 $1;
#B frgb 255 255 255;
#P window setfont "Sans Serif" 9.;
#P hidden newex 54 232 63 196617 r $1HPout~;
#B color 5;
#N vpatcher 20 74 148 283;
#P outlet 13 147 15 0;
#P inlet 13 13 15 0;
#P window setfont "Sans Serif" 9.;
#P message 29 67 33 196617 set 0;
#P newex 13 95 40 196617 change;
#P message 13 68 14 196617 1;
#P newex 13 118 32 196617 / 0.;
#P newex 13 36 55 196617 route -96.;
#P connect 5 0 0 0;
#P connect 0 0 2 0;
#P connect 2 0 3 0;
#P fasten 4 0 3 0 34 89 18 89;
#P connect 3 0 1 0;
#P fasten 0 1 6 0 63 141 18 141;
#P connect 1 0 6 0;
#P fasten 0 1 4 0 63 60 34 60;
#P pop;
#P hidden newobj 54 344 84 196617 p convert inf-vu;
#P flonum 0 213 38 9 0 3. 2 3 0 0 0 221 221 221 222 222 222 0 0 0;
#P objectname trim;
#P flonum 0 85 38 9 0. 16.5 3 3 0 0 0 222 222 222 222 222 222 0 0 0;
#P flonum 0 71 38 9 0. 50. 3 3 0 0 0 221 221 221 222 222 222 0 0 0;
#P objectname delms;
#P hidden newex 169 127 81 196617 sw $1HPdelay~;
#B color 5;
#P hidden newex 169 168 93 196617 sw $1HPdelayMt~;
#B color 5;
#P hidden newex 169 147 71 196617 * 0.333333;
#P hidden newex 169 188 29 196617 * 3.;
#P hidden newex 168 29 81 196617 sw $1HPdelay~;
#B color 5;
#P hidden newex 168 70 92 196617 sw $1HPdelayVu~;
#B color 5;
#P hidden newex 168 49 34 196617 / 50.;
#P hidden newex 168 90 35 196617 * 50.;
#P hidden connect 26 0 8 0;
#P hidden connect 29 0 9 0;
#P hidden connect 27 0 9 0;
#P hidden connect 29 0 10 0;
#P hidden connect 19 0 10 0;
#P hidden connect 12 0 14 0;
#P hidden connect 32 0 14 0;
#P hidden connect 11 0 17 0;
#P hidden connect 30 0 18 0;
#P hidden connect 33 0 18 0;
#P hidden connect 24 0 16 0;
#P hidden connect 25 0 15 0;
#P hidden connect 15 0 25 0;
#P hidden connect 8 0 26 0;
#P hidden connect 9 0 27 0;
#P hidden connect 16 0 23 0;
#P hidden connect 23 0 21 0;
#P hidden connect 21 0 24 0;
#P hidden connect 10 0 20 0;
#P hidden connect 20 0 22 0;
#P hidden connect 22 0 19 0;
#P hidden connect 14 2 11 0;
#P hidden connect 28 0 29 0;
#P hidden connect 18 2 33 0;
#P hidden fasten 28 0 30 0 62 298 77 298;
#P hidden connect 35 0 34 0;
#P hidden fasten 0 0 3 0 173 113 157 113 157 20 173 20;
#P hidden connect 3 0 1 0;
#P hidden connect 1 0 2 0;
#P hidden connect 2 0 0 0;
#P hidden fasten 4 0 7 0 174 211 158 211 158 118 174 118;
#P hidden connect 7 0 5 0;
#P hidden connect 5 0 6 0;
#P hidden connect 6 0 4 0;
#P pop;
