max v2;#N vpatcher 120 88 692 468;#P origin -131 36;#P toggle 258 149 15 0;#P user hint 97 15 177 40 "Distance to center (m)" 1000 100 0 65535 65535 52428 9 3 0 1 0 0 0;#P user hint 96 87 176 112 Height 1000 100 0 65535 65535 52428 9 3 0 1 0 0 0;#P user hint 134 47 177 69 "Choose a specific speaker position" 1000 100 0 65535 65535 52428 9 3 0 1 0 0 0;#P user hint 94 116 178 143 "Choose an algorithm for spatialisation" 1000 100 0 65535 65535 52428 9 3 0 1 0 0 0;#P user hint 5 116 85 140 "Reports peaks and current amplitude" 1000 100 0 65535 65535 52428 9 3 0 1 0 0 0;#P user hint 53 27 83 110 "Track volume (dB)" 1000 100 0 65535 65535 52428 9 3 0 1 0 0 0;#P user hint 7 28 34 59 "Rev volume (dB)" 1000 100 0 65535 65535 52428 9 3 0 1 0 0 0;#P window setfont "Sans Serif" 9.;#P hidden newex 240 181 50 196617 s $1visu;#B color 5;#P hidden newex 201 180 37 196617 * -90;#P hidden message 201 211 61 196617 offset \$1 0;#N thispatcher;#Q end;#P hidden newobj 201 242 61 196617 thispatcher;#P hidden inlet 201 149 15 0;#P comment 0 0 33 196617 gains;#N vpatcher 10 59 1149 324;#P window setfont "Sans Serif" 9.;#P window linecount 0;#P newex 1003 128 27 196617 f;#P newex 744 142 32 196617 == 0;#P newex 744 122 50 196617 r $1visu;#B color 5;#P newex 923 128 27 196617 i;#P newex 642 128 27 196617 i;#P newex 544 128 27 196617 i;#P newex 445 128 27 196617 i;#P newex 248 128 27 196617 f;#P newex 149 128 27 196617 i;#P newex 1003 185 73 196617 !vgate $1visu;#P newex 923 185 73 196617 !vgate $1visu;#P newex 744 163 45 196617 gate~;#P newex 642 185 73 196617 !vgate $1visu;#P newex 544 185 73 196617 !vgate $1visu;#P newex 445 185 73 196617 !vgate $1visu;#P newex 248 185 73 196617 !vgate $1visu;#P newex 149 185 73 196617 !vgate $1visu;#P newex 778 93 32 196617 sel 0;#P window linecount 1;#P newex 778 70 50 196617 r $1visu;#B color 5;#P window linecount 0;#P newex 445 50 96 196617 sw $1aux128;#B color 5;#P newex 149 50 96 196617 sw $1rev128;#B color 5;#P newex 761 185 80 196617 r clearbargrafs;#B color 5;#P newex 779 142 98 196617 r $1sf;#B color 14;#P window linecount 2;#P message 843 50 77 196617 \; $1voldb 0;#P window linecount 1;#P newex 1003 50 77 196617 sw $1voldb;#B color 5;#P newex 923 50 77 196617 sw $1vol128;#B color 5;#P window linecount 2;#P message 50 50 96 196617 \; $1revdb -100;#P window linecount 3;#P message 347 50 96 196617 \; $1auxdb -100 \; $1pre 0;#P window linecount 1;#P newex 248 50 96 196617 sw $1revdb;#B color 5;#P newex 544 50 96 196617 sw $1auxdb;#B color 5;#P newex 642 50 96 196617 sw $1pre;#B color 5;#P inlet 50 30 15 0;#P inlet 149 30 15 0;#P inlet 248 30 15 0;#P inlet 347 30 15 0;#P inlet 642 30 15 0;#P inlet 445 30 15 0;#P inlet 544 30 15 0;#P inlet 843 30 15 0;#P inlet 923 30 15 0;#P inlet 1003 30 15 0;#P outlet 149 209 15 0;#P outlet 248 209 15 0;#P outlet 445 209 15 0;#P outlet 544 209 15 0;#P outlet 642 209 15 0;#P outlet 1003 209 15 0;#P outlet 744 209 15 0;#P outlet 923 209 15 0;#P connect 17 0 22 0;#P connect 16 0 28 0;#P fasten 31 0 40 0 783 119 154 119;#P connect 28 0 40 0;#P connect 40 0 32 0;#P connect 32 0 7 0;#P connect 15 0 20 0;#P fasten 31 0 41 0 783 119 253 119;#P connect 20 0 41 0;#P connect 41 0 33 0;#P connect 33 0 6 0;#P connect 14 0 21 0;#P connect 12 0 29 0;#P fasten 31 0 42 0 783 119 450 119;#P connect 29 0 42 0;#P connect 42 0 34 0;#P connect 34 0 5 0;#P connect 11 0 19 0;#P fasten 31 0 43 0 783 119 549 119;#P connect 19 0 43 0;#P connect 43 0 35 0;#P connect 35 0 4 0;#P connect 13 0 18 0;#P fasten 31 0 44 0 783 119 647 119;#P connect 18 0 44 0;#P connect 44 0 36 0;#P connect 36 0 3 0;#P connect 46 0 47 0;#P connect 47 0 37 0;#P connect 37 0 1 0;#P connect 27 0 1 0;#P connect 30 0 31 0;#P connect 26 0 37 1;#P connect 10 0 25 0;#P connect 9 0 23 0;#P fasten 31 0 45 0 783 119 928 119;#P connect 23 0 45 0;#P connect 45 0 38 0;#P connect 38 0 0 0;#P connect 8 0 24 0;#P fasten 31 0 48 0 783 119 1008 119;#P connect 24 0 48 0;#P connect 48 0 39 0;#P connect 39 0 2 0;#P pop;#P hidden newobj 192 115 131 196617 p gain-sets $1;#P user uslider 63 29 21 50 159 1 0 0;#P comment 51 116 29 196617 rms;#P comment 15 116 29 196617 pk.;#P flonum 14 126 33 9 0 0 8352 3 0 0 0 255 92 174 222 222 222 0 0 0;#P flonum 50 126 33 9 0 0 8352 3 0 0 0 221 221 221 222 222 222 0 0 0;#N vpatcher 555 313 715 527;#P outlet 74 161 15 0;#P inlet 74 17 15 0;#P window setfont "Sans Serif" 9.;#P window linecount 1;#P message 90 67 33 196617 set 0;#P newex 74 87 40 196617 change;#P message 74 68 14 196617 1;#P newex 74 107 32 196617 / 0.;#P newex 74 43 55 196617 route -96.;#P outlet 16 161 15 0;#P inlet 16 17 15 0;#P window linecount 0;#P message 32 67 33 196617 set 0;#P newex 16 87 40 196617 change;#P message 16 68 14 196617 1;#P newex 16 107 32 196617 / 0.;#P newex 16 43 55 196617 route -96.;#P connect 5 0 0 0;#P connect 0 0 2 0;#P connect 4 0 3 0;#P connect 2 0 3 0;#P connect 3 0 1 0;#P fasten 0 1 6 0 66 141 21 141;#P connect 1 0 6 0;#P connect 0 1 4 0;#P connect 12 0 7 0;#P connect 7 0 9 0;#P connect 11 0 10 0;#P connect 9 0 10 0;#P connect 10 0 8 0;#P fasten 7 1 13 0 124 141 79 141;#P connect 8 0 13 0;#P connect 7 1 11 0;#P pop;#P hidden newobj 12 122 69 196617 p convert-inf;#P user dial 8 27 23 23 129 1 0 0 242 270 1 1. 222 222 222 221 221 221 222 222 222 0 0 0 0 0 0 0 0 0;#P flonum 8 46 36 9 -100. 0. 8227 3 255 255 255 255 189 156 222 222 222 0 0 0;#P objectname revdb;#P flonum 7 95 35 9 -100. 0. 8227 3 255 255 255 255 227 23 222 222 222 0 0 0;#P objectname auxdb;#P flonum 52 95 32 9 -100. 18. 8227 3 255 255 255 255 255 255 255 252 75 0 0 0;#P objectname voldb;#P comment 92 113 52 196617 spat-algo;#P user ubumenu 132 48 45 196617 1 0 1 1;#X setrgb 255 255 255 102 102 102 116 116 116 4 4 4 102 102 102 45 45 45;#X add Position;#X prefix_set 0 0 <none> 0;#X pattrmode 1;#N vpatcher 230 357 1085 670;#P origin 0 -60;#P window setfont "Sans Serif" 9.;#P message 373 103 39 196617 set \$1;#P window linecount 1;#P newex 214 142 43 196617 % 360.;#P newex 214 121 40 196617 + 180.;#P newex 216 53 43 196617 % 360.;#P window linecount 0;#P newex 216 32 40 196617 + 180.;#P window setfont "Sans Serif" 14.;#N vpatcher 15 55 314 251;#P window setfont "Sans Serif" 9.;#P newex 109 99 39 196617 + 360.;#P newex 50 70 152 196617 if $f1>=0 then $f1 else out2 $f1;#P newex 50 50 39 196617 % 360;#P inlet 50 30 15 0;#P outlet 52 130 15 0;#P connect 1 0 2 0;#P connect 2 0 3 0;#P connect 4 0 0 0;#P connect 3 0 0 0;#P connect 3 1 4 0;#P pop;#P newobj 317 49 110 196622 p moduloSigned;#P window setfont "Sans Serif" 9.;#P window linecount 1;#P newex 519 171 27 196617 f;#P newex 418 171 27 196617 f;#P newex 317 171 27 196617 f;#P newex 216 171 27 196617 f;#P newex 115 171 27 196617 f;#P window linecount 0;#P newex 14 171 27 196617 f;#P window linecount 1;#P newex 537 143 32 196617 sel 1;#P newex 537 121 71 196617 r $1visu;#B color 5;#P newex 519 196 73 196617 vgate $1visu;#P newex 418 196 73 196617 vgate $1visu;#P newex 317 196 73 196617 vgate $1visu;#P newex 216 196 73 196617 vgate $1visu;#P newex 115 196 73 196617 vgate $1visu;#P window linecount 0;#P newex 14 196 73 196617 vgate $1visu;#P inlet 721 13 15 0;#P outlet 721 246 15 0;#P window linecount 1;#P newex 721 99 106 196617 s $1spatChoo;#B color 5;#P newex 721 121 106 196617 r spat-menu;#B color 5;#P window linecount 0;#P newex 620 99 98 196617 s $1toPos;#B color 5;#P newex 620 77 32 196617 sel 0;#P inlet 620 13 15 0;#P newex 418 99 98 196617 sw $1z;#B color 5;#P newex 519 99 98 196617 sw $1z;#B color 5;#P newex 213 91 44 196617 sw $1a;#B color 5;#P newex 115 99 98 196617 sw $1d;#B color 5;#P inlet 418 13 15 0;#P inlet 14 13 15 0;#P inlet 519 13 15 0;#P inlet 115 13 15 0;#P inlet 216 13 15 0;#P inlet 317 13 15 0;#P outlet 418 246 15 0;#P outlet 14 268 15 0;#P outlet 519 246 15 0;#P outlet 115 246 15 0;#P outlet 317 246 15 0;#P outlet 216 292 15 0;#P newex 317 99 44 196617 sw $1a;#B color 5;#P newex 14 57 44 196617 sw $1d;#B color 5;#P connect 12 0 0 0;#P connect 0 0 33 0;#P connect 33 0 25 0;#P connect 25 0 6 0;#P connect 10 0 14 0;#P connect 14 0 34 0;#P connect 34 0 26 0;#P connect 26 0 4 0;#P connect 41 0 15 0;#P connect 15 0 42 0;#P connect 42 0 43 0;#P connect 9 0 40 0;#P connect 40 0 41 0;#P connect 43 0 35 0;#P connect 35 0 27 0;#P connect 27 0 2 0;#P connect 8 0 39 0;#P connect 39 0 1 0;#P connect 1 0 36 0;#P fasten 44 0 28 0 369 182;#P connect 36 0 28 0;#P connect 28 0 3 0;#P connect 39 0 44 0;#P connect 13 0 17 0;#P connect 17 0 37 0;#P connect 37 0 29 0;#P connect 29 0 7 0;#P connect 11 0 16 0;#P fasten 16 0 38 0 524 140 524 140;#P connect 38 0 30 0;#P connect 30 0 5 0;#P connect 31 0 32 0;#P connect 18 0 19 0;#P connect 19 0 20 0;#P connect 24 0 22 0;#P connect 21 0 23 0;#P pop;#P hidden newobj 186 48 112 196617 p spats-sets $1;#P comment 138 97 13 196617 z;#B frgb 255 255 255;#P comment 138 72 34 196617 t (¡);#B frgb 255 255 255;#P number 97 95 35 9 0 0 1 3 0 0 0 221 221 221 222 222 222 0 0 0;#P objectname posZ;#P user hslider 97 86 10 63 101 1 0 0;#P user ubumenu 94 125 85 196617 0 1 1 0;#X setrgb 0 0 0 222 222 222 150 150 150 4 4 4 141 141 141 112 112 112;#X add $2pan.pat;#X add boul12pan.pat;#X add p01pan.pat;#X add p02pan.pat;#X add p03pan.pat;#X add p04pan.pat;#X add p04panb.pat;#X add p05pan.pat;#X add p06pan.pat;#X add p07pan.pat;#X add p08pan.pat;#X add p09pan.pat;#X add p10pan.pat;#X add p12pan.pat;#X add p16pan.pat;#X add z4.4pan.pat;#X add z8.4pan.pat;#X prefix_set 0 0 <none> 0;#X pattrmode 1;#P objectname spatchoo;#P flonum 97 25 35 9 0. 0 1 3 0 0 0 221 221 221 222 222 222 0 0 0;#P objectname posD;#P user hslider 97 16 10 64 128 1 0 0;#P number 97 72 35 9 0 0 0 3 0 0 0 221 221 221 222 222 222 0 0 0;#P objectname posT;#P user dial 97 38 35 35 360 1 0 0 159 359 1 1. 170 170 170 222 222 222 120 120 120 225 225 225 0 0 0 0 0 0;#P comment 138 27 34 196617 d (m);#B frgb 255 255 255;#P comment 91 1 45 196617 position;#P user hint 30 81 44 95 "Aux pre/post" 1000 100 0 65535 65535 52428 9 3 0 1 0 0 0;#P toggle 30 81 13 0;#P user hint 5 78 32 109 "Aux volume (dB)" 1000 100 0 65535 65535 52428 9 3 0 1 0 0 0;#P user dial 7 76 23 23 129 1 0 0 242 270 1 1. 222 222 222 221 221 221 222 222 222 0 0 0 0 0 0 0 0 0;#P user panel 94 13 85 100;#X brgb 45 45 45;#X frgb 0 0 0;#X border 1;#X rounded 0;#X shadow 2;#X done;#P user ubutton 55 16 26 12 0 0;#P user ubutton 8 16 24 12 0 0;#P user ubutton 7 65 24 12 0 0;#P comment 8 16 24 196617 rev;#B frgb 255 255 255;#P comment 55 16 26 196617 gain;#B frgb 255 255 255;#P comment 7 64 24 196617 aux;#B frgb 255 255 255;#P user bargraf~ 46 23 79 21 50 0 0 0 0 45 45 45 0 186 0 77 202 0 124 225 0 255 255 0 255 0 0 45 45 45 45 45 45 222 222 222 0 0 0 45 45 45 12 1;#P user hint 98 41 131 84 "Angle (¡)" 1000 100 0 65535 65535 52428 9 3 0 1 0 0 0;#P user panel 90 0 90 145;#X brgb 150 150 150;#X frgb 0 0 0;#X border 1;#X rounded 0;#X shadow 1;#X done;#P background;#P user panel 4 13 85 100;#X brgb 45 45 45;#X frgb 0 0 0;#X border 1;#X rounded 0;#X shadow 2;#X done;#P background;#P user panel 0 0 90 145;#X brgb 150 150 150;#X frgb 0 0 0;#X border 1;#X rounded 0;#X shadow 1;#X done;#P background;#P hidden connect 40 2 12 0;#P hidden connect 40 3 31 0;#P hidden connect 40 0 33 0;#P hidden connect 40 1 32 0;#P hidden connect 4 2 34 0;#P hidden connect 34 0 36 0;#P hidden connect 40 4 14 0;#P hidden connect 40 5 4 0;#P hidden connect 34 1 35 0;#P hidden connect 40 7 30 0;#P hidden connect 40 6 39 0;#P hidden connect 4 0 34 1;#P hidden connect 27 6 22 0;#P hidden connect 27 0 20 0;#P hidden connect 27 1 21 0;#P hidden connect 27 2 18 0;#P hidden connect 27 3 19 0;#P hidden connect 27 4 23 0;#P hidden connect 27 5 24 0;#P hidden connect 20 0 27 0;#P hidden connect 9 0 40 0;#P hidden connect 21 0 27 1;#P hidden connect 42 0 45 0;#P hidden connect 45 0 44 0;#P hidden connect 44 0 43 0;#P hidden connect 33 0 40 1;#P hidden connect 18 0 27 2;#P hidden connect 32 0 40 2;#P hidden connect 19 0 27 3;#P hidden connect 8 0 40 3;#P hidden fasten 42 0 46 0 206 172 245 172;#P hidden connect 54 0 46 0;#P hidden connect 23 0 27 4;#P hidden connect 12 0 40 4;#P hidden connect 24 0 27 5;#P hidden connect 31 0 40 5;#P hidden connect 28 0 27 6;#P hidden connect 14 0 40 6;#P hidden connect 10 0 40 7;#P hidden connect 22 1 27 7;#P hidden connect 39 0 40 8;#P hidden connect 30 0 40 9;#P pop;