max v2;#N vpatcher -1061 250 -88 739;#P origin 0 2;#P window setfont "Sans Serif" 9.;#P window linecount 1;#N thispatcher;#Q end;#P newobj 66 237 61 196617 thispatcher;#N vpatcher 11 274 832 756;#P window setfont "Sans Serif" 9.;#P window linecount 1;#N vpatcher 0 44 631 401;#P origin 0 9;#P window setfont "Sans Serif" 9.;#P window linecount 0;#P message 71 88 14 196617 4;#P window linecount 1;#P newex 495 177 101 196617 expr $i1* 15 + 110;#P newex 85 149 40 196617 t i i i;#P newex 290 182 101 196617 expr $i1* 20 + 440;#P newex 85 208 420 196617 sprintf script new remover%ld newex %ld %ld 135 196617 biquad~ 1. -1. 0. -0.9997 0.;#P newex 67 67 29 196617 gate;#P newex 31 113 40 196617 uzi 1;#P inlet 191 21 15 0;#P inlet 50 21 15 0;#P outlet 85 253 15 0;#P connect 1 0 3 0;#P connect 9 0 3 0;#P fasten 2 0 4 0 196 64 72 64;#P connect 3 2 7 0;#P fasten 7 0 5 0 90 172 90 172;#P connect 5 0 0 0;#P connect 1 0 4 1;#P fasten 7 1 6 0 105 172 295 172;#P connect 6 0 5 1;#P fasten 7 2 8 0 120 170 500 170;#P connect 8 0 5 2;#P pop;#P newobj 374 288 81 196617 p new_remover;#N vpatcher 718 336 1007 733;#P window setfont "Sans Serif" 9.;#P window linecount 0;#P newex 87 48 29 196617 gate;#P inlet 111 24 15 0;#P newex 50 103 27 196617 i;#P newex 50 74 27 196617 t i b;#P newex 50 123 40 196617 uzi 1;#P window linecount 1;#P newex 80 257 160 196617 sprintf script delete remover%ld;#P inlet 69 23 15 0;#P outlet 80 279 15 0;#P connect 1 0 4 0;#P connect 4 1 5 0;#P connect 5 0 3 0;#P connect 4 0 5 1;#P connect 3 2 2 0;#P connect 2 0 0 0;#P connect 6 0 7 0;#P connect 1 0 7 1;#P pop;#P newobj 465 288 90 196617 p delete_remover;#P newex 443 138 27 196617 t b l;#P inlet 443 93 15 0;#P window linecount 3;#P comment 546 158 168 196617 When audio is turned of \, script will update to catch any changes that has happened in the meantime.;#P window linecount 1;#P newex 274 147 27 196617 t b i;#P comment 319 69 43 196617 /setup;#P comment 173 69 43 196617 /voices;#P inlet 274 93 15 0;#P inlet 327 93 15 0;#P window linecount 0;#N vpatcher 44 74 738 476;#P window setfont "Sans Serif" 9.;#P window linecount 1;#N vpatcher 10 59 953 465;#P window setfont "Sans Serif" 9.;#P newex 747 123 27 196617 + 1;#P newex 521 122 27 196617 +;#P newex 521 149 236 196617 sprintf script connect multiout %ld remover%ld 0;#P newex 303 122 27 196617 + 1;#P newex 80 149 193 196617 sprintf script connect route %ld dac %ld;#P newex 80 82 27 196617 - 1;#P newex 303 149 214 196617 sprintf script connect remover%ld 0 dac %ld;#P newex 50 50 40 196617 uzi;#P inlet 50 30 15 0;#P inlet 320 40 15 0;#P outlet 81 251 15 0;#P connect 2 0 3 0;#P connect 3 2 5 0;#P fasten 5 0 6 0 85 111 85 111;#P connect 6 0 0 0;#P connect 8 0 0 0;#P connect 4 0 0 0;#P fasten 5 0 6 1 85 111 268 111;#P fasten 5 0 7 0 85 111 308 111;#P connect 7 0 4 0;#P fasten 5 0 4 1 85 111 512 111;#P fasten 5 0 9 0 85 110 526 110;#P connect 9 0 8 0;#P fasten 1 0 9 1 325 88 543 88;#P fasten 5 0 10 0 85 111 752 111;#P connect 10 0 8 1;#P pop;#P newobj 180 181 95 196617 p with_DCremover;#P window linecount 0;#N vpatcher 10 59 610 459;#P window setfont "Sans Serif" 9.;#P newex 303 122 27 196617 +;#P newex 80 149 193 196617 sprintf script connect route %ld dac %ld;#P newex 80 82 27 196617 - 1;#P newex 303 149 206 196617 sprintf script connect multiout %ld dac %ld;#P newex 50 50 40 196617 uzi;#P inlet 50 30 15 0;#P inlet 320 40 15 0;#P outlet 81 251 15 0;#P connect 2 0 3 0;#P connect 3 2 5 0;#P fasten 5 0 6 0 85 111 85 111;#P connect 6 0 0 0;#P connect 4 0 0 0;#P fasten 5 0 6 1 85 111 268 111;#P fasten 5 0 7 0 85 111 308 111;#P connect 7 0 4 0;#P connect 1 0 7 1;#P fasten 5 0 4 1 85 111 504 111;#P pop;#P newobj 49 180 85 196617 p no_DCremover;#P newex 49 133 47 196617 gate 2 1;#P number 334 53 35 9 0 0 0 3 0 0 0 221 221 221 222 222 222 0 0 0;#P message 343 121 50 196617 1;#P newex 345 99 62 196617 prepend set;#P newex 334 78 120 196617 if $i1 == 0 then 1 else 2;#P inlet 334 33 15 0;#P inlet 124 35 15 0;#P inlet 86 35 15 0;#P outlet 49 327 15 0;#P fasten 4 0 8 0 339 111 54 111;#P connect 8 0 9 0;#P connect 9 0 0 0;#P fasten 10 0 0 0 185 262 54 262;#P connect 1 0 8 1;#P connect 2 0 9 1;#P lcolor 5;#P fasten 8 1 10 0 91 155 185 155;#P fasten 2 0 10 1 129 57 270 57;#P lcolor 5;#P connect 3 0 7 0;#P connect 7 0 4 0;#P connect 5 0 6 0;#P connect 4 0 5 0;#P pop;#P newobj 166 290 52 196617 p connect;#P newex 327 147 27 196617 t b l;#P window linecount 1;#N vpatcher 9 243 414 462;#P inlet 277 30 15 0;#P window setfont "Sans Serif" 9.;#P newex 50 88 237 196617 zl reg 1 2 3 4 5 6 7 8 9 10 11 12 13 14 15 16 17 18 19 20 21 22 23 24 25 26 27 28 29 30 31 32;#P window linecount 1;#P newex 50 157 272 196617 prepend script new dac newex 449 357 320 196617 dac~;#P newex 50 132 248 196617 zl slice;#P window linecount 0;#P newex 50 60 248 196617 t b i;#P inlet 50 30 15 0;#P outlet 50 187 15 0;#P connect 1 0 2 0;#P connect 2 0 5 0;#P connect 5 0 3 0;#P connect 3 0 4 0;#P connect 4 0 0 0;#P connect 6 0 5 1;#P connect 2 1 3 1;#P pop;#P newobj 228 290 57 196617 p new_dac;#N vpatcher 44 74 279 246;#P window setfont "Sans Serif" 9.;#P window linecount 0;#P newex 50 57 20 196617 t b;#P window linecount 1;#P newex 50 86 119 196617 sprintf script delete dac;#P inlet 50 30 15 0;#P outlet 50 108 15 0;#P connect 1 0 3 0;#P connect 3 0 2 0;#P connect 2 0 0 0;#P pop;#P newobj 297 289 66 196617 p delete_dac;#P newex 185 152 40 196617 change;#P newex 49 103 48 196617 loadbang;#P newex 107 164 31 196617 == 0;#P newex 185 209 27 196617 i 8;#P newex 166 230 29 196617 gate;#P newex 49 164 32 196617 sel 0;#P newex 49 131 54 196617 dspstate~;#P outlet 166 330 15 0;#P inlet 185 93 15 0;#P comment 271 69 43 196617 /offset;#P window linecount 0;#P comment 546 130 168 196617 The gate prevents scripting while audio is running.;#P comment 418 69 100 196617 /remove_dc;#P connect 10 0 5 0;#P connect 5 0 6 0;#P fasten 5 0 9 0 54 154 112 154;#P connect 9 0 7 0;#P connect 7 0 15 0;#P connect 24 0 4 0;#P connect 25 0 4 0;#P connect 12 0 4 0;#P connect 13 0 4 0;#P connect 15 0 4 0;#P connect 3 0 11 0;#P connect 23 0 8 0;#P connect 20 0 8 0;#P connect 11 0 8 0;#P fasten 6 0 8 0 54 193 190 193;#P connect 14 0 8 0;#P connect 8 0 7 1;#P connect 20 1 15 1;#P connect 23 1 15 2;#P connect 7 0 13 0;#P connect 17 0 20 0;#P connect 14 1 13 1;#P connect 7 0 12 0;#P connect 16 0 14 0;#P connect 7 0 25 0;#P connect 22 0 23 0;#P connect 23 1 25 1;#P connect 7 0 24 0;#P connect 23 1 24 1;#P pop;#P newobj 66 155 58 196617 p scripting;#P newex 66 116 240 196617 jcom.oscroute /voices /offset /setup /remove_dc;#P newex 449 96 417 196617 jcom.multi.out~;#P objectname multiout;#P inlet 449 75 15 0;#P inlet 66 75 15 0;#P newex 180 202 63 196617 zl slice;#P newex 180 180 36 196617 zl reg;#P message 180 246 54 196617 \$1 set \$2;#P window linecount 2;#P newex 180 268 430 196617 route 0 1 2 3 4 5 6 7 8 9 10 11 12 13 14 15 16 17 18 19 20 21 22 23 24 25 26 27 28 29 30 31;#P objectname route;#P window linecount 1;#P newex 180 224 52 196617 listfunnel;#P newex 450 450 320 196617 dac~ 1 2 3 4 5 6 7 8;#P objectname dac;#P connect 6 0 9 0;#P connect 9 0 10 0;#P connect 10 0 11 0;#P connect 9 1 10 1;#P connect 9 2 10 2;#P connect 9 3 10 3;#P connect 9 2 4 0;#P connect 4 0 5 0;#P connect 5 0 1 0;#P connect 1 0 3 0;#P connect 3 0 2 0;#P fasten 9 0 5 1 71 145 238 145;#P lcolor 2;#P connect 7 0 8 0;#P connect 2 0 0 0;#P connect 8 0 0 0;#P connect 2 1 0 1;#P connect 8 1 0 1;#P connect 2 2 0 2;#P connect 8 2 0 2;#P connect 2 3 0 3;#P connect 8 3 0 3;#P connect 2 4 0 4;#P connect 8 4 0 4;#P connect 2 5 0 5;#P connect 8 5 0 5;#P connect 2 6 0 6;#P connect 8 6 0 6;#P connect 2 7 0 7;#P connect 8 7 0 7;#P pop;