{
	"patcher" : 	{
		"fileversion" : 1,
		"rect" : [ 375.0, 158.0, 862.0, 380.0 ],
		"bglocked" : 0,
		"defrect" : [ 375.0, 158.0, 862.0, 380.0 ],
		"openrect" : [ 0.0, 0.0, 0.0, 0.0 ],
		"openinpresentation" : 0,
		"default_fontsize" : 10.0,
		"default_fontface" : 0,
		"default_fontname" : "Arial",
		"gridonopen" : 0,
		"gridsize" : [ 15.0, 15.0 ],
		"gridsnaponopen" : 0,
		"toolbarvisible" : 1,
		"boxanimatetime" : 200,
		"imprint" : 0,
		"metadata" : [  ],
		"boxes" : [ 			{
				"box" : 				{
					"maxclass" : "newobj",
					"text" : "qlim 100",
					"fontname" : "Arial",
					"numinlets" : 2,
					"numoutlets" : 1,
					"patching_rect" : [ 122.0, 68.0, 48.0, 18.0 ],
					"fontsize" : 10.0,
					"outlettype" : [ "" ],
					"id" : "obj-15"
				}

			}
, 			{
				"box" : 				{
					"maxclass" : "newobj",
					"text" : "prepend bypass_dcblocker",
					"fontname" : "Arial",
					"numinlets" : 1,
					"numoutlets" : 1,
					"patching_rect" : [ 172.0, 89.0, 130.0, 18.0 ],
					"fontsize" : 10.0,
					"outlettype" : [ "" ],
					"id" : "obj-13"
				}

			}
, 			{
				"box" : 				{
					"maxclass" : "newobj",
					"text" : "p limiter",
					"fontname" : "Arial",
					"numinlets" : 1,
					"numoutlets" : 1,
					"patching_rect" : [ 237.0, 68.0, 46.0, 18.0 ],
					"fontsize" : 10.0,
					"outlettype" : [ "" ],
					"id" : "obj-24",
					"patcher" : 					{
						"fileversion" : 1,
						"rect" : [ 55.0, 121.0, 640.0, 480.0 ],
						"bglocked" : 0,
						"defrect" : [ 55.0, 121.0, 640.0, 480.0 ],
						"openrect" : [ 0.0, 0.0, 0.0, 0.0 ],
						"openinpresentation" : 0,
						"default_fontsize" : 10.0,
						"default_fontface" : 0,
						"default_fontname" : "Arial",
						"gridonopen" : 0,
						"gridsize" : [ 15.0, 15.0 ],
						"gridsnaponopen" : 0,
						"toolbarvisible" : 1,
						"boxanimatetime" : 200,
						"imprint" : 0,
						"metadata" : [  ],
						"boxes" : [ 							{
								"box" : 								{
									"maxclass" : "newobj",
									"text" : "prepend bypass",
									"fontname" : "Verdana",
									"numinlets" : 1,
									"numoutlets" : 1,
									"patching_rect" : [ 542.0, 179.0, 87.0, 18.0 ],
									"fontsize" : 9.873845,
									"outlettype" : [ "" ],
									"id" : "obj-3"
								}

							}
, 							{
								"box" : 								{
									"maxclass" : "newobj",
									"text" : "== 0",
									"fontname" : "Verdana",
									"numinlets" : 2,
									"numoutlets" : 1,
									"patching_rect" : [ 542.0, 158.0, 34.0, 18.0 ],
									"fontsize" : 9.873845,
									"outlettype" : [ "int" ],
									"id" : "obj-4"
								}

							}
, 							{
								"box" : 								{
									"maxclass" : "newobj",
									"text" : "jcom.oscroute /active",
									"fontname" : "Verdana",
									"numinlets" : 1,
									"numoutlets" : 2,
									"patching_rect" : [ 542.0, 137.0, 116.0, 18.0 ],
									"fontsize" : 9.873845,
									"outlettype" : [ "", "" ],
									"id" : "obj-5"
								}

							}
, 							{
								"box" : 								{
									"maxclass" : "outlet",
									"numinlets" : 1,
									"numoutlets" : 0,
									"patching_rect" : [ 264.0, 392.0, 25.0, 25.0 ],
									"id" : "obj-2",
									"comment" : ""
								}

							}
, 							{
								"box" : 								{
									"maxclass" : "inlet",
									"numinlets" : 0,
									"numoutlets" : 1,
									"patching_rect" : [ 228.0, 18.0, 25.0, 25.0 ],
									"outlettype" : [ "" ],
									"id" : "obj-1",
									"comment" : ""
								}

							}
, 							{
								"box" : 								{
									"maxclass" : "newobj",
									"text" : "jcom.pass /preamp /postamp /threshold /lookahead /release /mode",
									"fontname" : "Verdana",
									"numinlets" : 1,
									"numoutlets" : 7,
									"patching_rect" : [ 214.0, 113.0, 348.0, 18.0 ],
									"fontsize" : 9.873845,
									"outlettype" : [ "", "", "", "", "", "", "" ],
									"id" : "obj-23"
								}

							}
 ],
						"lines" : [ 							{
								"patchline" : 								{
									"source" : [ "obj-1", 0 ],
									"destination" : [ "obj-23", 0 ],
									"hidden" : 0,
									"midpoints" : [  ]
								}

							}
, 							{
								"patchline" : 								{
									"source" : [ "obj-23", 0 ],
									"destination" : [ "obj-2", 0 ],
									"hidden" : 0,
									"midpoints" : [  ]
								}

							}
, 							{
								"patchline" : 								{
									"source" : [ "obj-23", 1 ],
									"destination" : [ "obj-2", 0 ],
									"hidden" : 0,
									"midpoints" : [  ]
								}

							}
, 							{
								"patchline" : 								{
									"source" : [ "obj-23", 2 ],
									"destination" : [ "obj-2", 0 ],
									"hidden" : 0,
									"midpoints" : [  ]
								}

							}
, 							{
								"patchline" : 								{
									"source" : [ "obj-23", 3 ],
									"destination" : [ "obj-2", 0 ],
									"hidden" : 0,
									"midpoints" : [  ]
								}

							}
, 							{
								"patchline" : 								{
									"source" : [ "obj-23", 4 ],
									"destination" : [ "obj-2", 0 ],
									"hidden" : 0,
									"midpoints" : [  ]
								}

							}
, 							{
								"patchline" : 								{
									"source" : [ "obj-23", 5 ],
									"destination" : [ "obj-2", 0 ],
									"hidden" : 0,
									"midpoints" : [  ]
								}

							}
, 							{
								"patchline" : 								{
									"source" : [ "obj-5", 0 ],
									"destination" : [ "obj-4", 0 ],
									"hidden" : 0,
									"midpoints" : [  ]
								}

							}
, 							{
								"patchline" : 								{
									"source" : [ "obj-23", 6 ],
									"destination" : [ "obj-5", 0 ],
									"hidden" : 0,
									"midpoints" : [  ]
								}

							}
, 							{
								"patchline" : 								{
									"source" : [ "obj-4", 0 ],
									"destination" : [ "obj-3", 0 ],
									"hidden" : 0,
									"midpoints" : [  ]
								}

							}
, 							{
								"patchline" : 								{
									"source" : [ "obj-3", 0 ],
									"destination" : [ "obj-2", 0 ],
									"hidden" : 0,
									"midpoints" : [  ]
								}

							}
 ]
					}
,
					"saved_object_attributes" : 					{
						"default_fontname" : "Arial",
						"globalpatchername" : "",
						"default_fontsize" : 10.0,
						"fontname" : "Arial",
						"fontface" : 0,
						"fontsize" : 10.0,
						"default_fontface" : 0
					}

				}

			}
, 			{
				"box" : 				{
					"maxclass" : "newobj",
					"varname" : "thru",
					"text" : "jcom.thru",
					"fontname" : "Arial",
					"numinlets" : 1,
					"numoutlets" : 1,
					"patching_rect" : [ 238.0, 113.0, 52.0, 18.0 ],
					"fontsize" : 10.0,
					"outlettype" : [ "" ],
					"id" : "obj-14"
				}

			}
, 			{
				"box" : 				{
					"maxclass" : "newobj",
					"text" : "== 0",
					"fontname" : "Arial",
					"numinlets" : 2,
					"numoutlets" : 1,
					"patching_rect" : [ 172.0, 69.0, 32.5, 18.0 ],
					"fontsize" : 10.0,
					"outlettype" : [ "int" ],
					"id" : "obj-16"
				}

			}
, 			{
				"box" : 				{
					"maxclass" : "newobj",
					"text" : "qlim 100",
					"fontname" : "Arial",
					"numinlets" : 2,
					"numoutlets" : 1,
					"patching_rect" : [ 64.0, 69.0, 48.0, 18.0 ],
					"fontsize" : 10.0,
					"outlettype" : [ "" ],
					"id" : "obj-81"
				}

			}
, 			{
				"box" : 				{
					"maxclass" : "newobj",
					"text" : "qlim 100",
					"fontname" : "Arial",
					"numinlets" : 2,
					"numoutlets" : 1,
					"patching_rect" : [ 6.0, 69.0, 48.0, 18.0 ],
					"fontsize" : 10.0,
					"outlettype" : [ "" ],
					"id" : "obj-79"
				}

			}
, 			{
				"box" : 				{
					"maxclass" : "newobj",
					"text" : "thispatcher",
					"fontname" : "Arial",
					"numinlets" : 1,
					"numoutlets" : 2,
					"patching_rect" : [ 6.0, 127.0, 61.0, 17.0 ],
					"fontsize" : 9.0,
					"outlettype" : [ "", "" ],
					"id" : "obj-1",
					"save" : [ "#N", "thispatcher", ";", "#Q", "end", ";" ]
				}

			}
, 			{
				"box" : 				{
					"maxclass" : "newobj",
					"text" : "p scripting",
					"fontname" : "Arial",
					"numinlets" : 3,
					"numoutlets" : 1,
					"patching_rect" : [ 6.0, 106.0, 58.0, 17.0 ],
					"fontsize" : 9.0,
					"outlettype" : [ "" ],
					"id" : "obj-2",
					"patcher" : 					{
						"fileversion" : 1,
						"rect" : [ 343.0, 93.0, 687.0, 479.0 ],
						"bglocked" : 0,
						"defrect" : [ 343.0, 93.0, 687.0, 479.0 ],
						"openrect" : [ 0.0, 0.0, 0.0, 0.0 ],
						"openinpresentation" : 0,
						"default_fontsize" : 10.0,
						"default_fontface" : 0,
						"default_fontname" : "Arial",
						"gridonopen" : 0,
						"gridsize" : [ 15.0, 15.0 ],
						"gridsnaponopen" : 0,
						"toolbarvisible" : 1,
						"boxanimatetime" : 200,
						"imprint" : 0,
						"metadata" : [  ],
						"boxes" : [ 							{
								"box" : 								{
									"maxclass" : "newobj",
									"text" : "p disconnect limiter",
									"fontname" : "Arial",
									"numinlets" : 2,
									"numoutlets" : 1,
									"patching_rect" : [ 430.0, 302.0, 96.0, 18.0 ],
									"fontsize" : 10.0,
									"outlettype" : [ "" ],
									"id" : "obj-4",
									"patcher" : 									{
										"fileversion" : 1,
										"rect" : [ 385.0, 116.0, 844.0, 473.0 ],
										"bglocked" : 0,
										"defrect" : [ 385.0, 116.0, 844.0, 473.0 ],
										"openrect" : [ 0.0, 0.0, 0.0, 0.0 ],
										"openinpresentation" : 0,
										"default_fontsize" : 10.0,
										"default_fontface" : 0,
										"default_fontname" : "Arial",
										"gridonopen" : 0,
										"gridsize" : [ 15.0, 15.0 ],
										"gridsnaponopen" : 0,
										"toolbarvisible" : 1,
										"boxanimatetime" : 200,
										"imprint" : 0,
										"metadata" : [  ],
										"boxes" : [ 											{
												"box" : 												{
													"maxclass" : "newobj",
													"text" : "t i clear i b",
													"fontname" : "Arial",
													"numinlets" : 1,
													"numoutlets" : 4,
													"patching_rect" : [ 186.0, 39.0, 103.5, 18.0 ],
													"fontsize" : 10.0,
													"outlettype" : [ "int", "clear", "int", "bang" ],
													"id" : "obj-13"
												}

											}
, 											{
												"box" : 												{
													"maxclass" : "newobj",
													"text" : "loadmess 8",
													"fontname" : "Arial",
													"numinlets" : 1,
													"numoutlets" : 1,
													"patching_rect" : [ 289.0, 61.0, 62.0, 18.0 ],
													"fontsize" : 10.0,
													"outlettype" : [ "" ],
													"id" : "obj-16"
												}

											}
, 											{
												"box" : 												{
													"maxclass" : "newobj",
													"text" : "uzi 1 0",
													"fontname" : "Arial",
													"numinlets" : 2,
													"numoutlets" : 3,
													"patching_rect" : [ 289.0, 83.0, 69.0, 18.0 ],
													"fontsize" : 10.0,
													"outlettype" : [ "bang", "bang", "int" ],
													"id" : "obj-28"
												}

											}
, 											{
												"box" : 												{
													"maxclass" : "newobj",
													"text" : "+ 0",
													"fontname" : "Arial",
													"numinlets" : 2,
													"numoutlets" : 1,
													"patching_rect" : [ 339.0, 111.0, 32.5, 18.0 ],
													"fontsize" : 10.0,
													"outlettype" : [ "int" ],
													"id" : "obj-29"
												}

											}
, 											{
												"box" : 												{
													"maxclass" : "newobj",
													"text" : "pack i i",
													"fontname" : "Arial",
													"numinlets" : 2,
													"numoutlets" : 1,
													"patching_rect" : [ 316.0, 134.0, 42.0, 18.0 ],
													"fontsize" : 10.0,
													"outlettype" : [ "" ],
													"id" : "obj-30"
												}

											}
, 											{
												"box" : 												{
													"maxclass" : "newobj",
													"text" : "coll",
													"fontname" : "Arial",
													"numinlets" : 1,
													"numoutlets" : 4,
													"patching_rect" : [ 243.0, 207.0, 59.5, 18.0 ],
													"fontsize" : 10.0,
													"outlettype" : [ "", "", "", "" ],
													"id" : "obj-31",
													"save" : [ "#N", "coll", ";" ],
													"saved_object_attributes" : 													{
														"embed" : 0
													}

												}

											}
, 											{
												"box" : 												{
													"maxclass" : "newobj",
													"text" : "append",
													"fontname" : "Arial",
													"numinlets" : 1,
													"numoutlets" : 1,
													"patching_rect" : [ 153.0, 282.0, 44.0, 18.0 ],
													"fontsize" : 10.0,
													"outlettype" : [ "" ],
													"id" : "obj-20"
												}

											}
, 											{
												"box" : 												{
													"maxclass" : "newobj",
													"text" : "prepend set dac",
													"fontname" : "Arial",
													"numinlets" : 1,
													"numoutlets" : 1,
													"patching_rect" : [ 154.0, 241.0, 82.0, 18.0 ],
													"fontsize" : 10.0,
													"outlettype" : [ "" ],
													"id" : "obj-18"
												}

											}
, 											{
												"box" : 												{
													"maxclass" : "newobj",
													"text" : "prepend script disconnect limiter",
													"fontname" : "Arial",
													"numinlets" : 1,
													"numoutlets" : 1,
													"patching_rect" : [ -5.0, 242.0, 154.0, 18.0 ],
													"fontsize" : 10.0,
													"outlettype" : [ "" ],
													"id" : "obj-19"
												}

											}
, 											{
												"box" : 												{
													"maxclass" : "newobj",
													"text" : "append",
													"fontname" : "Arial",
													"numinlets" : 1,
													"numoutlets" : 1,
													"patching_rect" : [ 243.0, 287.0, 44.0, 18.0 ],
													"fontsize" : 10.0,
													"outlettype" : [ "" ],
													"id" : "obj-14"
												}

											}
, 											{
												"box" : 												{
													"maxclass" : "newobj",
													"text" : "prepend set limiter",
													"fontname" : "Arial",
													"numinlets" : 1,
													"numoutlets" : 1,
													"patching_rect" : [ 408.0, 241.0, 93.0, 18.0 ],
													"fontsize" : 10.0,
													"outlettype" : [ "" ],
													"id" : "obj-12"
												}

											}
, 											{
												"box" : 												{
													"maxclass" : "newobj",
													"text" : "prepend script disconnect multiout",
													"fontname" : "Arial",
													"numinlets" : 1,
													"numoutlets" : 1,
													"patching_rect" : [ 243.0, 242.0, 162.0, 18.0 ],
													"fontsize" : 10.0,
													"outlettype" : [ "" ],
													"id" : "obj-6"
												}

											}
, 											{
												"box" : 												{
													"maxclass" : "inlet",
													"numinlets" : 0,
													"numoutlets" : 1,
													"patching_rect" : [ 353.0, 12.0, 25.0, 25.0 ],
													"outlettype" : [ "int" ],
													"id" : "obj-3",
													"comment" : ""
												}

											}
, 											{
												"box" : 												{
													"maxclass" : "newobj",
													"text" : "sprintf script disconnect limiter %ld dac %ld",
													"fontname" : "Arial",
													"numinlets" : 2,
													"numoutlets" : 1,
													"patching_rect" : [ 9.0, 418.0, 202.0, 18.0 ],
													"fontsize" : 10.0,
													"outlettype" : [ "" ],
													"id" : "obj-15"
												}

											}
, 											{
												"box" : 												{
													"maxclass" : "newobj",
													"text" : "sprintf script disconnect multiout %ld limiter %ld",
													"fontname" : "Arial",
													"numinlets" : 2,
													"numoutlets" : 1,
													"patching_rect" : [ 324.0, 420.0, 221.0, 18.0 ],
													"fontsize" : 10.0,
													"outlettype" : [ "" ],
													"id" : "obj-10"
												}

											}
, 											{
												"box" : 												{
													"maxclass" : "newobj",
													"text" : "uzi 1 0",
													"fontname" : "Arial",
													"numinlets" : 2,
													"numoutlets" : 3,
													"patching_rect" : [ 216.0, 147.0, 46.0, 18.0 ],
													"fontsize" : 10.0,
													"outlettype" : [ "bang", "bang", "int" ],
													"id" : "obj-8"
												}

											}
, 											{
												"box" : 												{
													"maxclass" : "newobj",
													"text" : "int 8",
													"fontname" : "Arial",
													"numinlets" : 2,
													"numoutlets" : 1,
													"patching_rect" : [ 216.0, 122.0, 44.5, 18.0 ],
													"fontsize" : 10.0,
													"outlettype" : [ "int" ],
													"id" : "obj-4"
												}

											}
, 											{
												"box" : 												{
													"maxclass" : "outlet",
													"numinlets" : 1,
													"numoutlets" : 0,
													"patching_rect" : [ 243.0, 386.0, 25.0, 25.0 ],
													"id" : "obj-2",
													"comment" : ""
												}

											}
, 											{
												"box" : 												{
													"maxclass" : "inlet",
													"numinlets" : 0,
													"numoutlets" : 1,
													"patching_rect" : [ 186.0, 9.0, 25.0, 25.0 ],
													"outlettype" : [ "int" ],
													"id" : "obj-1",
													"comment" : ""
												}

											}
 ],
										"lines" : [ 											{
												"patchline" : 												{
													"source" : [ "obj-8", 2 ],
													"destination" : [ "obj-18", 0 ],
													"hidden" : 0,
													"midpoints" : [  ]
												}

											}
, 											{
												"patchline" : 												{
													"source" : [ "obj-8", 2 ],
													"destination" : [ "obj-19", 0 ],
													"hidden" : 0,
													"midpoints" : [  ]
												}

											}
, 											{
												"patchline" : 												{
													"source" : [ "obj-8", 2 ],
													"destination" : [ "obj-12", 0 ],
													"hidden" : 0,
													"midpoints" : [  ]
												}

											}
, 											{
												"patchline" : 												{
													"source" : [ "obj-20", 0 ],
													"destination" : [ "obj-2", 0 ],
													"hidden" : 0,
													"midpoints" : [  ]
												}

											}
, 											{
												"patchline" : 												{
													"source" : [ "obj-19", 0 ],
													"destination" : [ "obj-20", 0 ],
													"hidden" : 0,
													"midpoints" : [  ]
												}

											}
, 											{
												"patchline" : 												{
													"source" : [ "obj-18", 0 ],
													"destination" : [ "obj-20", 0 ],
													"hidden" : 0,
													"midpoints" : [  ]
												}

											}
, 											{
												"patchline" : 												{
													"source" : [ "obj-14", 0 ],
													"destination" : [ "obj-2", 0 ],
													"hidden" : 0,
													"midpoints" : [  ]
												}

											}
, 											{
												"patchline" : 												{
													"source" : [ "obj-12", 0 ],
													"destination" : [ "obj-14", 0 ],
													"hidden" : 0,
													"midpoints" : [ 417.5, 273.0, 252.5, 273.0 ]
												}

											}
, 											{
												"patchline" : 												{
													"source" : [ "obj-6", 0 ],
													"destination" : [ "obj-14", 0 ],
													"hidden" : 0,
													"midpoints" : [  ]
												}

											}
, 											{
												"patchline" : 												{
													"source" : [ "obj-28", 2 ],
													"destination" : [ "obj-30", 0 ],
													"hidden" : 0,
													"midpoints" : [ 348.5, 108.0, 325.5, 108.0 ]
												}

											}
, 											{
												"patchline" : 												{
													"source" : [ "obj-30", 0 ],
													"destination" : [ "obj-31", 0 ],
													"hidden" : 0,
													"midpoints" : [  ]
												}

											}
, 											{
												"patchline" : 												{
													"source" : [ "obj-3", 0 ],
													"destination" : [ "obj-29", 1 ],
													"hidden" : 0,
													"midpoints" : [  ]
												}

											}
, 											{
												"patchline" : 												{
													"source" : [ "obj-28", 2 ],
													"destination" : [ "obj-29", 0 ],
													"hidden" : 0,
													"midpoints" : [  ]
												}

											}
, 											{
												"patchline" : 												{
													"source" : [ "obj-29", 0 ],
													"destination" : [ "obj-30", 1 ],
													"hidden" : 0,
													"midpoints" : [  ]
												}

											}
, 											{
												"patchline" : 												{
													"source" : [ "obj-8", 2 ],
													"destination" : [ "obj-31", 0 ],
													"hidden" : 0,
													"midpoints" : [  ]
												}

											}
, 											{
												"patchline" : 												{
													"source" : [ "obj-31", 0 ],
													"destination" : [ "obj-6", 0 ],
													"hidden" : 0,
													"midpoints" : [  ]
												}

											}
, 											{
												"patchline" : 												{
													"source" : [ "obj-16", 0 ],
													"destination" : [ "obj-28", 0 ],
													"hidden" : 0,
													"midpoints" : [  ]
												}

											}
, 											{
												"patchline" : 												{
													"source" : [ "obj-4", 0 ],
													"destination" : [ "obj-8", 0 ],
													"hidden" : 0,
													"midpoints" : [  ]
												}

											}
, 											{
												"patchline" : 												{
													"source" : [ "obj-1", 0 ],
													"destination" : [ "obj-13", 0 ],
													"hidden" : 0,
													"midpoints" : [  ]
												}

											}
, 											{
												"patchline" : 												{
													"source" : [ "obj-13", 3 ],
													"destination" : [ "obj-4", 0 ],
													"hidden" : 0,
													"midpoints" : [ 280.0, 98.0, 225.5, 98.0 ]
												}

											}
, 											{
												"patchline" : 												{
													"source" : [ "obj-13", 2 ],
													"destination" : [ "obj-4", 1 ],
													"hidden" : 0,
													"midpoints" : [  ]
												}

											}
, 											{
												"patchline" : 												{
													"source" : [ "obj-13", 0 ],
													"destination" : [ "obj-28", 0 ],
													"hidden" : 0,
													"midpoints" : [  ]
												}

											}
, 											{
												"patchline" : 												{
													"source" : [ "obj-13", 1 ],
													"destination" : [ "obj-31", 0 ],
													"hidden" : 0,
													"midpoints" : [ 223.666672, 84.0, 201.0, 84.0, 201.0, 203.0, 252.5, 203.0 ]
												}

											}
 ]
									}
,
									"saved_object_attributes" : 									{
										"default_fontname" : "Arial",
										"globalpatchername" : "",
										"default_fontsize" : 10.0,
										"fontname" : "Arial",
										"fontface" : 0,
										"fontsize" : 10.0,
										"default_fontface" : 0
									}

								}

							}
, 							{
								"box" : 								{
									"maxclass" : "newobj",
									"text" : "t i i b i",
									"fontname" : "Arial",
									"numinlets" : 1,
									"numoutlets" : 4,
									"patching_rect" : [ 166.0, 271.0, 282.5, 18.0 ],
									"fontsize" : 10.0,
									"outlettype" : [ "int", "int", "bang", "int" ],
									"id" : "obj-27"
								}

							}
, 							{
								"box" : 								{
									"maxclass" : "comment",
									"text" : "When audio is turned of, script will update to catch any changes that has happened in the meantime.",
									"linecount" : 3,
									"fontname" : "Arial",
									"frgb" : [ 1.0, 1.0, 1.0, 1.0 ],
									"numinlets" : 1,
									"numoutlets" : 0,
									"patching_rect" : [ 461.0, 134.0, 168.0, 38.0 ],
									"fontsize" : 9.0,
									"id" : "obj-5"
								}

							}
, 							{
								"box" : 								{
									"maxclass" : "newobj",
									"text" : "t b i",
									"fontname" : "Arial",
									"numinlets" : 1,
									"numoutlets" : 2,
									"patching_rect" : [ 218.0, 146.0, 27.0, 17.0 ],
									"fontsize" : 9.0,
									"outlettype" : [ "bang", "int" ],
									"id" : "obj-6"
								}

							}
, 							{
								"box" : 								{
									"maxclass" : "comment",
									"text" : "/setup",
									"fontname" : "Arial",
									"frgb" : [ 1.0, 1.0, 1.0, 1.0 ],
									"numinlets" : 1,
									"numoutlets" : 0,
									"patching_rect" : [ 276.0, 71.0, 43.0, 17.0 ],
									"fontsize" : 9.0,
									"id" : "obj-7"
								}

							}
, 							{
								"box" : 								{
									"maxclass" : "comment",
									"text" : "/voices",
									"fontname" : "Arial",
									"frgb" : [ 1.0, 1.0, 1.0, 1.0 ],
									"numinlets" : 1,
									"numoutlets" : 0,
									"patching_rect" : [ 173.0, 69.0, 43.0, 17.0 ],
									"fontsize" : 9.0,
									"id" : "obj-8"
								}

							}
, 							{
								"box" : 								{
									"maxclass" : "inlet",
									"numinlets" : 0,
									"numoutlets" : 1,
									"patching_rect" : [ 218.0, 92.0, 15.0, 15.0 ],
									"outlettype" : [ "" ],
									"id" : "obj-9",
									"comment" : ""
								}

							}
, 							{
								"box" : 								{
									"maxclass" : "inlet",
									"numinlets" : 0,
									"numoutlets" : 1,
									"patching_rect" : [ 284.0, 95.0, 15.0, 15.0 ],
									"outlettype" : [ "" ],
									"id" : "obj-10",
									"comment" : ""
								}

							}
, 							{
								"box" : 								{
									"maxclass" : "newobj",
									"text" : "p connect",
									"fontname" : "Arial",
									"numinlets" : 2,
									"numoutlets" : 1,
									"patching_rect" : [ 166.0, 302.0, 79.0, 17.0 ],
									"fontsize" : 9.0,
									"outlettype" : [ "" ],
									"id" : "obj-11",
									"patcher" : 									{
										"fileversion" : 1,
										"rect" : [ 279.0, 274.0, 959.0, 438.0 ],
										"bglocked" : 0,
										"defrect" : [ 279.0, 274.0, 959.0, 438.0 ],
										"openrect" : [ 0.0, 0.0, 0.0, 0.0 ],
										"openinpresentation" : 0,
										"default_fontsize" : 10.0,
										"default_fontface" : 0,
										"default_fontname" : "Arial",
										"gridonopen" : 0,
										"gridsize" : [ 15.0, 15.0 ],
										"gridsnaponopen" : 0,
										"toolbarvisible" : 1,
										"boxanimatetime" : 200,
										"imprint" : 0,
										"metadata" : [  ],
										"boxes" : [ 											{
												"box" : 												{
													"maxclass" : "inlet",
													"numinlets" : 0,
													"numoutlets" : 1,
													"patching_rect" : [ 604.0, 49.0, 15.0, 15.0 ],
													"outlettype" : [ "int" ],
													"id" : "obj-9",
													"comment" : ""
												}

											}
, 											{
												"box" : 												{
													"maxclass" : "inlet",
													"numinlets" : 0,
													"numoutlets" : 1,
													"patching_rect" : [ 46.0, 43.0, 19.0, 19.0 ],
													"outlettype" : [ "int" ],
													"id" : "obj-10",
													"comment" : ""
												}

											}
, 											{
												"box" : 												{
													"maxclass" : "outlet",
													"numinlets" : 1,
													"numoutlets" : 0,
													"patching_rect" : [ 73.0, 331.0, 15.0, 15.0 ],
													"id" : "obj-11",
													"comment" : ""
												}

											}
, 											{
												"box" : 												{
													"maxclass" : "newobj",
													"text" : "sprintf script connect multiout %ld dc-block %ld",
													"fontname" : "Arial",
													"numinlets" : 2,
													"numoutlets" : 1,
													"patching_rect" : [ 619.0, 227.0, 198.0, 17.0 ],
													"fontsize" : 9.0,
													"outlettype" : [ "" ],
													"id" : "obj-30"
												}

											}
, 											{
												"box" : 												{
													"maxclass" : "newobj",
													"text" : "sprintf script connect dc-block %ld dac %ld",
													"fontname" : "Arial",
													"numinlets" : 2,
													"numoutlets" : 1,
													"patching_rect" : [ 326.0, 229.0, 181.0, 17.0 ],
													"fontsize" : 9.0,
													"outlettype" : [ "" ],
													"id" : "obj-20"
												}

											}
, 											{
												"box" : 												{
													"maxclass" : "newobj",
													"text" : "append",
													"fontname" : "Arial",
													"numinlets" : 1,
													"numoutlets" : 1,
													"patching_rect" : [ 595.0, 276.0, 44.0, 18.0 ],
													"fontsize" : 10.0,
													"outlettype" : [ "" ],
													"id" : "obj-23"
												}

											}
, 											{
												"box" : 												{
													"maxclass" : "newobj",
													"text" : "prepend script connect multiout",
													"fontname" : "Arial",
													"numinlets" : 1,
													"numoutlets" : 1,
													"patching_rect" : [ 595.0, 186.0, 149.0, 18.0 ],
													"fontsize" : 10.0,
													"outlettype" : [ "" ],
													"id" : "obj-25"
												}

											}
, 											{
												"box" : 												{
													"maxclass" : "newobj",
													"text" : "append",
													"fontname" : "Arial",
													"numinlets" : 1,
													"numoutlets" : 1,
													"patching_rect" : [ 299.0, 249.0, 44.0, 18.0 ],
													"fontsize" : 10.0,
													"outlettype" : [ "" ],
													"id" : "obj-17"
												}

											}
, 											{
												"box" : 												{
													"maxclass" : "newobj",
													"text" : "prepend set dac",
													"fontname" : "Arial",
													"numinlets" : 1,
													"numoutlets" : 1,
													"patching_rect" : [ 441.0, 186.0, 82.0, 18.0 ],
													"fontsize" : 10.0,
													"outlettype" : [ "" ],
													"id" : "obj-18"
												}

											}
, 											{
												"box" : 												{
													"maxclass" : "newobj",
													"text" : "prepend script connect limiter",
													"fontname" : "Arial",
													"numinlets" : 1,
													"numoutlets" : 1,
													"patching_rect" : [ 298.0, 186.0, 141.0, 18.0 ],
													"fontsize" : 10.0,
													"outlettype" : [ "" ],
													"id" : "obj-19"
												}

											}
, 											{
												"box" : 												{
													"maxclass" : "newobj",
													"text" : "append",
													"fontname" : "Arial",
													"numinlets" : 1,
													"numoutlets" : 1,
													"patching_rect" : [ 73.0, 250.0, 44.0, 18.0 ],
													"fontsize" : 10.0,
													"outlettype" : [ "" ],
													"id" : "obj-13"
												}

											}
, 											{
												"box" : 												{
													"maxclass" : "newobj",
													"text" : "prepend set dac",
													"fontname" : "Arial",
													"numinlets" : 1,
													"numoutlets" : 1,
													"patching_rect" : [ 213.0, 186.0, 82.0, 18.0 ],
													"fontsize" : 10.0,
													"outlettype" : [ "" ],
													"id" : "obj-14"
												}

											}
, 											{
												"box" : 												{
													"maxclass" : "newobj",
													"text" : "prepend script connect route",
													"fontname" : "Arial",
													"numinlets" : 1,
													"numoutlets" : 1,
													"patching_rect" : [ 73.0, 186.0, 137.0, 18.0 ],
													"fontsize" : 10.0,
													"outlettype" : [ "" ],
													"id" : "obj-15"
												}

											}
, 											{
												"box" : 												{
													"maxclass" : "newobj",
													"text" : "prepend set limiter",
													"fontname" : "Arial",
													"numinlets" : 1,
													"numoutlets" : 1,
													"patching_rect" : [ 748.0, 186.0, 93.0, 18.0 ],
													"fontsize" : 10.0,
													"outlettype" : [ "" ],
													"id" : "obj-2"
												}

											}
, 											{
												"box" : 												{
													"maxclass" : "newobj",
													"text" : "+",
													"fontname" : "Arial",
													"numinlets" : 2,
													"numoutlets" : 1,
													"patching_rect" : [ 595.0, 164.0, 27.0, 17.0 ],
													"fontsize" : 9.0,
													"outlettype" : [ "int" ],
													"id" : "obj-3"
												}

											}
, 											{
												"box" : 												{
													"maxclass" : "newobj",
													"text" : "sprintf script connect route %ld dac %ld",
													"fontname" : "Arial",
													"numinlets" : 2,
													"numoutlets" : 1,
													"patching_rect" : [ 92.0, 225.0, 173.0, 17.0 ],
													"fontsize" : 9.0,
													"outlettype" : [ "" ],
													"id" : "obj-5"
												}

											}
, 											{
												"box" : 												{
													"maxclass" : "newobj",
													"text" : "uzi 1 0",
													"fontname" : "Arial",
													"numinlets" : 2,
													"numoutlets" : 3,
													"patching_rect" : [ 46.0, 122.0, 46.0, 17.0 ],
													"fontsize" : 9.0,
													"outlettype" : [ "bang", "bang", "int" ],
													"id" : "obj-8"
												}

											}
 ],
										"lines" : [ 											{
												"patchline" : 												{
													"source" : [ "obj-13", 0 ],
													"destination" : [ "obj-11", 0 ],
													"hidden" : 0,
													"midpoints" : [  ]
												}

											}
, 											{
												"patchline" : 												{
													"source" : [ "obj-17", 0 ],
													"destination" : [ "obj-11", 0 ],
													"hidden" : 0,
													"midpoints" : [  ]
												}

											}
, 											{
												"patchline" : 												{
													"source" : [ "obj-23", 0 ],
													"destination" : [ "obj-11", 0 ],
													"hidden" : 0,
													"midpoints" : [  ]
												}

											}
, 											{
												"patchline" : 												{
													"source" : [ "obj-9", 0 ],
													"destination" : [ "obj-3", 1 ],
													"hidden" : 0,
													"midpoints" : [  ]
												}

											}
, 											{
												"patchline" : 												{
													"source" : [ "obj-2", 0 ],
													"destination" : [ "obj-23", 0 ],
													"hidden" : 0,
													"midpoints" : [ 757.5, 221.0, 604.5, 221.0 ]
												}

											}
, 											{
												"patchline" : 												{
													"source" : [ "obj-14", 0 ],
													"destination" : [ "obj-13", 0 ],
													"hidden" : 0,
													"midpoints" : [ 222.5, 216.0, 82.5, 216.0 ]
												}

											}
, 											{
												"patchline" : 												{
													"source" : [ "obj-18", 0 ],
													"destination" : [ "obj-17", 0 ],
													"hidden" : 0,
													"midpoints" : [ 450.5, 223.0, 308.5, 223.0 ]
												}

											}
, 											{
												"patchline" : 												{
													"source" : [ "obj-3", 0 ],
													"destination" : [ "obj-25", 0 ],
													"hidden" : 0,
													"midpoints" : [  ]
												}

											}
, 											{
												"patchline" : 												{
													"source" : [ "obj-25", 0 ],
													"destination" : [ "obj-23", 0 ],
													"hidden" : 0,
													"midpoints" : [  ]
												}

											}
, 											{
												"patchline" : 												{
													"source" : [ "obj-15", 0 ],
													"destination" : [ "obj-13", 0 ],
													"hidden" : 0,
													"midpoints" : [  ]
												}

											}
, 											{
												"patchline" : 												{
													"source" : [ "obj-19", 0 ],
													"destination" : [ "obj-17", 0 ],
													"hidden" : 0,
													"midpoints" : [  ]
												}

											}
, 											{
												"patchline" : 												{
													"source" : [ "obj-8", 2 ],
													"destination" : [ "obj-19", 0 ],
													"hidden" : 0,
													"midpoints" : [ 82.5, 150.0, 307.5, 150.0 ]
												}

											}
, 											{
												"patchline" : 												{
													"source" : [ "obj-8", 2 ],
													"destination" : [ "obj-15", 0 ],
													"hidden" : 0,
													"midpoints" : [ 82.5, 162.0, 82.5, 162.0 ]
												}

											}
, 											{
												"patchline" : 												{
													"source" : [ "obj-8", 2 ],
													"destination" : [ "obj-3", 0 ],
													"hidden" : 0,
													"midpoints" : [ 82.5, 150.0, 604.5, 150.0 ]
												}

											}
, 											{
												"patchline" : 												{
													"source" : [ "obj-8", 2 ],
													"destination" : [ "obj-18", 0 ],
													"hidden" : 0,
													"midpoints" : [ 82.5, 151.0, 450.5, 151.0 ]
												}

											}
, 											{
												"patchline" : 												{
													"source" : [ "obj-8", 2 ],
													"destination" : [ "obj-2", 0 ],
													"hidden" : 0,
													"midpoints" : [ 82.5, 150.0, 757.5, 150.0 ]
												}

											}
, 											{
												"patchline" : 												{
													"source" : [ "obj-8", 2 ],
													"destination" : [ "obj-14", 0 ],
													"hidden" : 0,
													"midpoints" : [ 82.5, 150.0, 222.5, 150.0 ]
												}

											}
, 											{
												"patchline" : 												{
													"source" : [ "obj-10", 0 ],
													"destination" : [ "obj-8", 0 ],
													"hidden" : 0,
													"midpoints" : [  ]
												}

											}
 ]
									}
,
									"saved_object_attributes" : 									{
										"default_fontname" : "Arial",
										"globalpatchername" : "",
										"default_fontsize" : 10.0,
										"fontname" : "Arial",
										"fontface" : 0,
										"fontsize" : 10.0,
										"default_fontface" : 0
									}

								}

							}
, 							{
								"box" : 								{
									"maxclass" : "newobj",
									"text" : "t b l",
									"fontname" : "Arial",
									"numinlets" : 1,
									"numoutlets" : 2,
									"patching_rect" : [ 284.0, 146.0, 27.0, 17.0 ],
									"fontsize" : 9.0,
									"outlettype" : [ "bang", "" ],
									"id" : "obj-12"
								}

							}
, 							{
								"box" : 								{
									"maxclass" : "newobj",
									"text" : "p new_dac",
									"fontname" : "Arial",
									"numinlets" : 2,
									"numoutlets" : 1,
									"patching_rect" : [ 254.0, 302.0, 57.0, 17.0 ],
									"fontsize" : 9.0,
									"outlettype" : [ "" ],
									"id" : "obj-13",
									"patcher" : 									{
										"fileversion" : 1,
										"rect" : [ 401.0, 245.0, 695.0, 271.0 ],
										"bglocked" : 0,
										"defrect" : [ 401.0, 245.0, 695.0, 271.0 ],
										"openrect" : [ 0.0, 0.0, 0.0, 0.0 ],
										"openinpresentation" : 0,
										"default_fontsize" : 10.0,
										"default_fontface" : 0,
										"default_fontname" : "Arial",
										"gridonopen" : 0,
										"gridsize" : [ 15.0, 15.0 ],
										"gridsnaponopen" : 0,
										"toolbarvisible" : 1,
										"boxanimatetime" : 200,
										"imprint" : 0,
										"metadata" : [  ],
										"boxes" : [ 											{
												"box" : 												{
													"maxclass" : "inlet",
													"numinlets" : 0,
													"numoutlets" : 1,
													"patching_rect" : [ 277.0, 30.0, 15.0, 15.0 ],
													"outlettype" : [ "" ],
													"id" : "obj-1",
													"comment" : ""
												}

											}
, 											{
												"box" : 												{
													"maxclass" : "newobj",
													"text" : "zl reg 1 2 3 4 5 6 7 8 9 10 11 12 13 14 15 16 17 18 19 20 21 22 23 24 25 26 27 28 29 30 31 32",
													"linecount" : 2,
													"fontname" : "Arial",
													"numinlets" : 2,
													"numoutlets" : 2,
													"patching_rect" : [ 50.0, 88.0, 238.0, 27.0 ],
													"fontsize" : 9.0,
													"outlettype" : [ "", "" ],
													"id" : "obj-2"
												}

											}
, 											{
												"box" : 												{
													"maxclass" : "newobj",
													"text" : "prepend script new dac newex 449 357 320 196617 dac~",
													"fontname" : "Arial",
													"numinlets" : 1,
													"numoutlets" : 1,
													"patching_rect" : [ 50.0, 157.0, 272.0, 17.0 ],
													"fontsize" : 9.0,
													"outlettype" : [ "" ],
													"id" : "obj-3"
												}

											}
, 											{
												"box" : 												{
													"maxclass" : "newobj",
													"text" : "zl slice",
													"fontname" : "Arial",
													"numinlets" : 2,
													"numoutlets" : 2,
													"patching_rect" : [ 50.0, 132.0, 248.0, 17.0 ],
													"fontsize" : 9.0,
													"outlettype" : [ "", "" ],
													"id" : "obj-4"
												}

											}
, 											{
												"box" : 												{
													"maxclass" : "newobj",
													"text" : "t b i",
													"fontname" : "Arial",
													"numinlets" : 1,
													"numoutlets" : 2,
													"patching_rect" : [ 50.0, 60.0, 248.0, 17.0 ],
													"fontsize" : 9.0,
													"outlettype" : [ "bang", "int" ],
													"id" : "obj-5"
												}

											}
, 											{
												"box" : 												{
													"maxclass" : "inlet",
													"numinlets" : 0,
													"numoutlets" : 1,
													"patching_rect" : [ 50.0, 30.0, 15.0, 15.0 ],
													"outlettype" : [ "int" ],
													"id" : "obj-6",
													"comment" : ""
												}

											}
, 											{
												"box" : 												{
													"maxclass" : "outlet",
													"numinlets" : 1,
													"numoutlets" : 0,
													"patching_rect" : [ 50.0, 187.0, 15.0, 15.0 ],
													"id" : "obj-7",
													"comment" : ""
												}

											}
 ],
										"lines" : [ 											{
												"patchline" : 												{
													"source" : [ "obj-5", 1 ],
													"destination" : [ "obj-4", 1 ],
													"hidden" : 0,
													"midpoints" : [  ]
												}

											}
, 											{
												"patchline" : 												{
													"source" : [ "obj-1", 0 ],
													"destination" : [ "obj-2", 1 ],
													"hidden" : 0,
													"midpoints" : [  ]
												}

											}
, 											{
												"patchline" : 												{
													"source" : [ "obj-3", 0 ],
													"destination" : [ "obj-7", 0 ],
													"hidden" : 0,
													"midpoints" : [  ]
												}

											}
, 											{
												"patchline" : 												{
													"source" : [ "obj-4", 0 ],
													"destination" : [ "obj-3", 0 ],
													"hidden" : 0,
													"midpoints" : [  ]
												}

											}
, 											{
												"patchline" : 												{
													"source" : [ "obj-2", 0 ],
													"destination" : [ "obj-4", 0 ],
													"hidden" : 0,
													"midpoints" : [  ]
												}

											}
, 											{
												"patchline" : 												{
													"source" : [ "obj-5", 0 ],
													"destination" : [ "obj-2", 0 ],
													"hidden" : 0,
													"midpoints" : [  ]
												}

											}
, 											{
												"patchline" : 												{
													"source" : [ "obj-6", 0 ],
													"destination" : [ "obj-5", 0 ],
													"hidden" : 0,
													"midpoints" : [  ]
												}

											}
 ]
									}
,
									"saved_object_attributes" : 									{
										"default_fontname" : "Arial",
										"globalpatchername" : "",
										"default_fontsize" : 10.0,
										"fontname" : "Arial",
										"fontface" : 0,
										"fontsize" : 10.0,
										"default_fontface" : 0
									}

								}

							}
, 							{
								"box" : 								{
									"maxclass" : "newobj",
									"text" : "p delete_dac",
									"fontname" : "Arial",
									"numinlets" : 1,
									"numoutlets" : 1,
									"patching_rect" : [ 342.0, 302.0, 66.0, 17.0 ],
									"fontsize" : 9.0,
									"outlettype" : [ "" ],
									"id" : "obj-14",
									"patcher" : 									{
										"fileversion" : 1,
										"rect" : [ 362.0, 167.0, 516.0, 265.0 ],
										"bglocked" : 0,
										"defrect" : [ 362.0, 167.0, 516.0, 265.0 ],
										"openrect" : [ 0.0, 0.0, 0.0, 0.0 ],
										"openinpresentation" : 0,
										"default_fontsize" : 10.0,
										"default_fontface" : 0,
										"default_fontname" : "Arial",
										"gridonopen" : 0,
										"gridsize" : [ 15.0, 15.0 ],
										"gridsnaponopen" : 0,
										"toolbarvisible" : 1,
										"boxanimatetime" : 200,
										"imprint" : 0,
										"metadata" : [  ],
										"boxes" : [ 											{
												"box" : 												{
													"maxclass" : "message",
													"text" : "script delete dac",
													"fontname" : "Arial",
													"numinlets" : 2,
													"numoutlets" : 1,
													"patching_rect" : [ 50.0, 80.0, 83.0, 16.0 ],
													"fontsize" : 10.0,
													"outlettype" : [ "" ],
													"id" : "obj-8"
												}

											}
, 											{
												"box" : 												{
													"maxclass" : "newobj",
													"text" : "sprintf script delete dac",
													"fontname" : "Arial",
													"numinlets" : 1,
													"numoutlets" : 1,
													"patching_rect" : [ 94.0, 108.0, 119.0, 17.0 ],
													"fontsize" : 9.0,
													"outlettype" : [ "" ],
													"id" : "obj-2"
												}

											}
, 											{
												"box" : 												{
													"maxclass" : "inlet",
													"numinlets" : 0,
													"numoutlets" : 1,
													"patching_rect" : [ 50.0, 30.0, 15.0, 15.0 ],
													"outlettype" : [ "bang" ],
													"id" : "obj-3",
													"comment" : ""
												}

											}
, 											{
												"box" : 												{
													"maxclass" : "outlet",
													"numinlets" : 1,
													"numoutlets" : 0,
													"patching_rect" : [ 50.0, 108.0, 15.0, 15.0 ],
													"id" : "obj-4",
													"comment" : ""
												}

											}
 ],
										"lines" : [ 											{
												"patchline" : 												{
													"source" : [ "obj-8", 0 ],
													"destination" : [ "obj-4", 0 ],
													"hidden" : 0,
													"midpoints" : [  ]
												}

											}
, 											{
												"patchline" : 												{
													"source" : [ "obj-3", 0 ],
													"destination" : [ "obj-8", 0 ],
													"hidden" : 0,
													"midpoints" : [  ]
												}

											}
 ]
									}
,
									"saved_object_attributes" : 									{
										"default_fontname" : "Arial",
										"globalpatchername" : "",
										"default_fontsize" : 10.0,
										"fontname" : "Arial",
										"fontface" : 0,
										"fontsize" : 10.0,
										"default_fontface" : 0
									}

								}

							}
, 							{
								"box" : 								{
									"maxclass" : "newobj",
									"text" : "loadbang",
									"fontname" : "Arial",
									"numinlets" : 1,
									"numoutlets" : 1,
									"patching_rect" : [ 49.0, 103.0, 48.0, 17.0 ],
									"fontsize" : 9.0,
									"outlettype" : [ "bang" ],
									"id" : "obj-16"
								}

							}
, 							{
								"box" : 								{
									"maxclass" : "newobj",
									"text" : "== 0",
									"fontname" : "Arial",
									"numinlets" : 2,
									"numoutlets" : 1,
									"patching_rect" : [ 83.0, 178.0, 31.0, 17.0 ],
									"fontsize" : 9.0,
									"outlettype" : [ "int" ],
									"id" : "obj-17"
								}

							}
, 							{
								"box" : 								{
									"maxclass" : "newobj",
									"text" : "i 8",
									"fontname" : "Arial",
									"numinlets" : 2,
									"numoutlets" : 1,
									"patching_rect" : [ 185.0, 209.0, 27.0, 17.0 ],
									"fontsize" : 9.0,
									"outlettype" : [ "int" ],
									"id" : "obj-18"
								}

							}
, 							{
								"box" : 								{
									"maxclass" : "newobj",
									"text" : "gate",
									"fontname" : "Arial",
									"numinlets" : 2,
									"numoutlets" : 1,
									"patching_rect" : [ 166.0, 230.0, 38.0, 17.0 ],
									"fontsize" : 9.0,
									"outlettype" : [ "" ],
									"id" : "obj-19"
								}

							}
, 							{
								"box" : 								{
									"maxclass" : "newobj",
									"text" : "sel 0",
									"fontname" : "Arial",
									"numinlets" : 2,
									"numoutlets" : 2,
									"patching_rect" : [ 49.0, 178.0, 32.0, 17.0 ],
									"fontsize" : 9.0,
									"outlettype" : [ "bang", "" ],
									"id" : "obj-20"
								}

							}
, 							{
								"box" : 								{
									"maxclass" : "newobj",
									"text" : "dspstate~",
									"fontname" : "Arial",
									"numinlets" : 1,
									"numoutlets" : 4,
									"patching_rect" : [ 49.0, 131.0, 54.0, 17.0 ],
									"fontsize" : 9.0,
									"outlettype" : [ "int", "float", "int", "int" ],
									"id" : "obj-21"
								}

							}
, 							{
								"box" : 								{
									"maxclass" : "outlet",
									"numinlets" : 1,
									"numoutlets" : 0,
									"patching_rect" : [ 331.0, 394.0, 15.0, 15.0 ],
									"id" : "obj-22",
									"comment" : ""
								}

							}
, 							{
								"box" : 								{
									"maxclass" : "inlet",
									"numinlets" : 0,
									"numoutlets" : 1,
									"patching_rect" : [ 185.0, 93.0, 15.0, 15.0 ],
									"outlettype" : [ "" ],
									"id" : "obj-23",
									"comment" : ""
								}

							}
, 							{
								"box" : 								{
									"maxclass" : "comment",
									"text" : "/offset",
									"fontname" : "Arial",
									"frgb" : [ 1.0, 1.0, 1.0, 1.0 ],
									"numinlets" : 1,
									"numoutlets" : 0,
									"patching_rect" : [ 215.0, 68.0, 43.0, 17.0 ],
									"fontsize" : 9.0,
									"id" : "obj-24"
								}

							}
, 							{
								"box" : 								{
									"maxclass" : "comment",
									"text" : "The gate prevents scripting while audio is running.",
									"linecount" : 2,
									"fontname" : "Arial",
									"frgb" : [ 1.0, 1.0, 1.0, 1.0 ],
									"numinlets" : 1,
									"numoutlets" : 0,
									"patching_rect" : [ 461.0, 106.0, 168.0, 27.0 ],
									"fontsize" : 9.0,
									"id" : "obj-25"
								}

							}
 ],
						"lines" : [ 							{
								"patchline" : 								{
									"source" : [ "obj-20", 0 ],
									"destination" : [ "obj-18", 0 ],
									"hidden" : 0,
									"midpoints" : [ 58.5, 204.0, 180.0, 204.0, 180.0, 204.0, 194.5, 204.0 ]
								}

							}
, 							{
								"patchline" : 								{
									"source" : [ "obj-23", 0 ],
									"destination" : [ "obj-18", 0 ],
									"hidden" : 0,
									"midpoints" : [  ]
								}

							}
, 							{
								"patchline" : 								{
									"source" : [ "obj-10", 0 ],
									"destination" : [ "obj-12", 0 ],
									"hidden" : 0,
									"midpoints" : [  ]
								}

							}
, 							{
								"patchline" : 								{
									"source" : [ "obj-12", 1 ],
									"destination" : [ "obj-13", 1 ],
									"hidden" : 0,
									"midpoints" : [  ]
								}

							}
, 							{
								"patchline" : 								{
									"source" : [ "obj-9", 0 ],
									"destination" : [ "obj-6", 0 ],
									"hidden" : 0,
									"midpoints" : [  ]
								}

							}
, 							{
								"patchline" : 								{
									"source" : [ "obj-6", 1 ],
									"destination" : [ "obj-11", 1 ],
									"hidden" : 0,
									"midpoints" : [  ]
								}

							}
, 							{
								"patchline" : 								{
									"source" : [ "obj-18", 0 ],
									"destination" : [ "obj-19", 1 ],
									"hidden" : 0,
									"midpoints" : [  ]
								}

							}
, 							{
								"patchline" : 								{
									"source" : [ "obj-12", 0 ],
									"destination" : [ "obj-18", 0 ],
									"hidden" : 0,
									"midpoints" : [ 293.5, 195.0, 194.5, 195.0 ]
								}

							}
, 							{
								"patchline" : 								{
									"source" : [ "obj-6", 0 ],
									"destination" : [ "obj-18", 0 ],
									"hidden" : 0,
									"midpoints" : [ 227.5, 191.0, 194.5, 191.0 ]
								}

							}
, 							{
								"patchline" : 								{
									"source" : [ "obj-11", 0 ],
									"destination" : [ "obj-22", 0 ],
									"hidden" : 0,
									"midpoints" : [  ]
								}

							}
, 							{
								"patchline" : 								{
									"source" : [ "obj-13", 0 ],
									"destination" : [ "obj-22", 0 ],
									"hidden" : 0,
									"midpoints" : [  ]
								}

							}
, 							{
								"patchline" : 								{
									"source" : [ "obj-14", 0 ],
									"destination" : [ "obj-22", 0 ],
									"hidden" : 0,
									"midpoints" : [  ]
								}

							}
, 							{
								"patchline" : 								{
									"source" : [ "obj-17", 0 ],
									"destination" : [ "obj-19", 0 ],
									"hidden" : 0,
									"midpoints" : [ 92.5, 227.0, 175.5, 227.0 ]
								}

							}
, 							{
								"patchline" : 								{
									"source" : [ "obj-16", 0 ],
									"destination" : [ "obj-21", 0 ],
									"hidden" : 0,
									"midpoints" : [  ]
								}

							}
, 							{
								"patchline" : 								{
									"source" : [ "obj-4", 0 ],
									"destination" : [ "obj-22", 0 ],
									"hidden" : 0,
									"midpoints" : [  ]
								}

							}
, 							{
								"patchline" : 								{
									"source" : [ "obj-6", 1 ],
									"destination" : [ "obj-4", 1 ],
									"hidden" : 0,
									"midpoints" : [ 235.5, 258.0, 516.5, 258.0 ]
								}

							}
, 							{
								"patchline" : 								{
									"source" : [ "obj-21", 0 ],
									"destination" : [ "obj-17", 0 ],
									"hidden" : 0,
									"midpoints" : [  ]
								}

							}
, 							{
								"patchline" : 								{
									"source" : [ "obj-21", 0 ],
									"destination" : [ "obj-20", 0 ],
									"hidden" : 0,
									"midpoints" : [  ]
								}

							}
, 							{
								"patchline" : 								{
									"source" : [ "obj-27", 3 ],
									"destination" : [ "obj-4", 0 ],
									"hidden" : 0,
									"midpoints" : [  ]
								}

							}
, 							{
								"patchline" : 								{
									"source" : [ "obj-27", 2 ],
									"destination" : [ "obj-14", 0 ],
									"hidden" : 0,
									"midpoints" : [  ]
								}

							}
, 							{
								"patchline" : 								{
									"source" : [ "obj-27", 1 ],
									"destination" : [ "obj-13", 0 ],
									"hidden" : 0,
									"midpoints" : [  ]
								}

							}
, 							{
								"patchline" : 								{
									"source" : [ "obj-27", 0 ],
									"destination" : [ "obj-11", 0 ],
									"hidden" : 0,
									"midpoints" : [  ]
								}

							}
, 							{
								"patchline" : 								{
									"source" : [ "obj-19", 0 ],
									"destination" : [ "obj-27", 0 ],
									"hidden" : 0,
									"midpoints" : [  ]
								}

							}
 ]
					}
,
					"saved_object_attributes" : 					{
						"default_fontname" : "Arial",
						"globalpatchername" : "",
						"default_fontsize" : 10.0,
						"fontname" : "Arial",
						"fontface" : 0,
						"fontsize" : 10.0,
						"default_fontface" : 0
					}

				}

			}
, 			{
				"box" : 				{
					"maxclass" : "newobj",
					"text" : "jcom.oscroute /voices /offset /setup /dcblocker/active /limiter",
					"fontname" : "Arial",
					"numinlets" : 1,
					"numoutlets" : 6,
					"patching_rect" : [ 6.0, 46.0, 309.0, 17.0 ],
					"fontsize" : 9.0,
					"outlettype" : [ "", "", "", "", "", "" ],
					"id" : "obj-3"
				}

			}
, 			{
				"box" : 				{
					"maxclass" : "newobj",
					"varname" : "multiout",
					"text" : "jcom.multi.out~",
					"fontname" : "Arial",
					"numinlets" : 2,
					"numoutlets" : 32,
					"patching_rect" : [ 389.0, 47.0, 417.0, 17.0 ],
					"fontsize" : 9.0,
					"outlettype" : [ "", "", "", "", "", "", "", "", "", "", "", "", "", "", "", "", "", "", "", "", "", "", "", "", "", "", "", "", "", "", "", "" ],
					"id" : "obj-4"
				}

			}
, 			{
				"box" : 				{
					"maxclass" : "inlet",
					"numinlets" : 0,
					"numoutlets" : 1,
					"patching_rect" : [ 389.0, 26.0, 15.0, 15.0 ],
					"outlettype" : [ "" ],
					"id" : "obj-5",
					"comment" : ""
				}

			}
, 			{
				"box" : 				{
					"maxclass" : "inlet",
					"numinlets" : 0,
					"numoutlets" : 1,
					"patching_rect" : [ 6.0, 26.0, 15.0, 15.0 ],
					"outlettype" : [ "" ],
					"id" : "obj-6",
					"comment" : ""
				}

			}
, 			{
				"box" : 				{
					"maxclass" : "newobj",
					"text" : "zl slice",
					"fontname" : "Arial",
					"numinlets" : 2,
					"numoutlets" : 2,
					"patching_rect" : [ 120.0, 153.0, 63.0, 17.0 ],
					"fontsize" : 9.0,
					"outlettype" : [ "", "" ],
					"id" : "obj-7"
				}

			}
, 			{
				"box" : 				{
					"maxclass" : "newobj",
					"text" : "zl reg",
					"fontname" : "Arial",
					"numinlets" : 2,
					"numoutlets" : 2,
					"patching_rect" : [ 120.0, 131.0, 36.0, 17.0 ],
					"fontsize" : 9.0,
					"outlettype" : [ "", "" ],
					"id" : "obj-8"
				}

			}
, 			{
				"box" : 				{
					"maxclass" : "message",
					"text" : "$1 set $2",
					"fontname" : "Arial",
					"numinlets" : 2,
					"numoutlets" : 1,
					"patching_rect" : [ 120.0, 197.0, 54.0, 15.0 ],
					"fontsize" : 9.0,
					"outlettype" : [ "" ],
					"id" : "obj-9"
				}

			}
, 			{
				"box" : 				{
					"maxclass" : "newobj",
					"varname" : "route",
					"text" : "route 0 1 2 3 4 5 6 7 8 9 10 11 12 13 14 15 16 17 18 19 20 21 22 23 24 25 26 27 28 29 30 31",
					"fontname" : "Arial",
					"numinlets" : 1,
					"numoutlets" : 33,
					"patching_rect" : [ 120.0, 219.0, 584.0, 17.0 ],
					"fontsize" : 9.0,
					"outlettype" : [ "", "", "", "", "", "", "", "", "", "", "", "", "", "", "", "", "", "", "", "", "", "", "", "", "", "", "", "", "", "", "", "", "" ],
					"id" : "obj-10"
				}

			}
, 			{
				"box" : 				{
					"maxclass" : "newobj",
					"text" : "listfunnel",
					"fontname" : "Arial",
					"numinlets" : 1,
					"numoutlets" : 1,
					"patching_rect" : [ 120.0, 175.0, 52.0, 17.0 ],
					"fontsize" : 9.0,
					"outlettype" : [ "list" ],
					"id" : "obj-11"
				}

			}
, 			{
				"box" : 				{
					"maxclass" : "newobj",
					"varname" : "limiter",
					"text" : "tt.limiter~ 32",
					"fontname" : "Geneva",
					"numinlets" : 32,
					"numoutlets" : 33,
					"patching_rect" : [ 392.0, 168.0, 451.0, 19.0 ],
					"fontsize" : 9.0,
					"outlettype" : [ "signal", "signal", "signal", "signal", "signal", "signal", "signal", "signal", "signal", "signal", "signal", "signal", "signal", "signal", "signal", "signal", "signal", "signal", "signal", "signal", "signal", "signal", "signal", "signal", "signal", "signal", "signal", "signal", "signal", "signal", "signal", "signal", "" ],
					"id" : "obj-21"
				}

			}
, 			{
				"box" : 				{
					"maxclass" : "newobj",
					"varname" : "dac",
					"text" : "dac~ 1 2 3 4 5 6 7 8",
					"fontname" : "Geneva",
					"numinlets" : 8,
					"numoutlets" : 0,
					"patching_rect" : [ 449.0, 357.0, 320.0, 19.0 ],
					"fontsize" : 9.0,
					"id" : "obj-12"
				}

			}
 ],
		"lines" : [ 			{
				"patchline" : 				{
					"source" : [ "obj-10", 7 ],
					"destination" : [ "obj-12", 7 ],
					"hidden" : 0,
					"midpoints" : [  ]
				}

			}
, 			{
				"patchline" : 				{
					"source" : [ "obj-21", 7 ],
					"destination" : [ "obj-12", 7 ],
					"hidden" : 0,
					"midpoints" : [  ]
				}

			}
, 			{
				"patchline" : 				{
					"source" : [ "obj-4", 7 ],
					"destination" : [ "obj-21", 7 ],
					"hidden" : 0,
					"midpoints" : [  ]
				}

			}
, 			{
				"patchline" : 				{
					"source" : [ "obj-10", 6 ],
					"destination" : [ "obj-12", 6 ],
					"hidden" : 0,
					"midpoints" : [  ]
				}

			}
, 			{
				"patchline" : 				{
					"source" : [ "obj-21", 6 ],
					"destination" : [ "obj-12", 6 ],
					"hidden" : 0,
					"midpoints" : [  ]
				}

			}
, 			{
				"patchline" : 				{
					"source" : [ "obj-4", 6 ],
					"destination" : [ "obj-21", 6 ],
					"hidden" : 0,
					"midpoints" : [  ]
				}

			}
, 			{
				"patchline" : 				{
					"source" : [ "obj-10", 5 ],
					"destination" : [ "obj-12", 5 ],
					"hidden" : 0,
					"midpoints" : [  ]
				}

			}
, 			{
				"patchline" : 				{
					"source" : [ "obj-21", 5 ],
					"destination" : [ "obj-12", 5 ],
					"hidden" : 0,
					"midpoints" : [  ]
				}

			}
, 			{
				"patchline" : 				{
					"source" : [ "obj-4", 5 ],
					"destination" : [ "obj-21", 5 ],
					"hidden" : 0,
					"midpoints" : [  ]
				}

			}
, 			{
				"patchline" : 				{
					"source" : [ "obj-10", 4 ],
					"destination" : [ "obj-12", 4 ],
					"hidden" : 0,
					"midpoints" : [  ]
				}

			}
, 			{
				"patchline" : 				{
					"source" : [ "obj-21", 4 ],
					"destination" : [ "obj-12", 4 ],
					"hidden" : 0,
					"midpoints" : [  ]
				}

			}
, 			{
				"patchline" : 				{
					"source" : [ "obj-4", 4 ],
					"destination" : [ "obj-21", 4 ],
					"hidden" : 0,
					"midpoints" : [  ]
				}

			}
, 			{
				"patchline" : 				{
					"source" : [ "obj-10", 3 ],
					"destination" : [ "obj-12", 3 ],
					"hidden" : 0,
					"midpoints" : [  ]
				}

			}
, 			{
				"patchline" : 				{
					"source" : [ "obj-21", 3 ],
					"destination" : [ "obj-12", 3 ],
					"hidden" : 0,
					"midpoints" : [  ]
				}

			}
, 			{
				"patchline" : 				{
					"source" : [ "obj-4", 3 ],
					"destination" : [ "obj-21", 3 ],
					"hidden" : 0,
					"midpoints" : [  ]
				}

			}
, 			{
				"patchline" : 				{
					"source" : [ "obj-10", 2 ],
					"destination" : [ "obj-12", 2 ],
					"hidden" : 0,
					"midpoints" : [  ]
				}

			}
, 			{
				"patchline" : 				{
					"source" : [ "obj-21", 2 ],
					"destination" : [ "obj-12", 2 ],
					"hidden" : 0,
					"midpoints" : [  ]
				}

			}
, 			{
				"patchline" : 				{
					"source" : [ "obj-4", 2 ],
					"destination" : [ "obj-21", 2 ],
					"hidden" : 0,
					"midpoints" : [  ]
				}

			}
, 			{
				"patchline" : 				{
					"source" : [ "obj-10", 1 ],
					"destination" : [ "obj-12", 1 ],
					"hidden" : 0,
					"midpoints" : [  ]
				}

			}
, 			{
				"patchline" : 				{
					"source" : [ "obj-21", 1 ],
					"destination" : [ "obj-12", 1 ],
					"hidden" : 0,
					"midpoints" : [  ]
				}

			}
, 			{
				"patchline" : 				{
					"source" : [ "obj-4", 1 ],
					"destination" : [ "obj-21", 1 ],
					"hidden" : 0,
					"midpoints" : [  ]
				}

			}
, 			{
				"patchline" : 				{
					"source" : [ "obj-10", 0 ],
					"destination" : [ "obj-12", 0 ],
					"hidden" : 0,
					"midpoints" : [  ]
				}

			}
, 			{
				"patchline" : 				{
					"source" : [ "obj-21", 0 ],
					"destination" : [ "obj-12", 0 ],
					"hidden" : 0,
					"midpoints" : [  ]
				}

			}
, 			{
				"patchline" : 				{
					"source" : [ "obj-4", 0 ],
					"destination" : [ "obj-21", 0 ],
					"hidden" : 0,
					"midpoints" : [  ]
				}

			}
, 			{
				"patchline" : 				{
					"source" : [ "obj-15", 0 ],
					"destination" : [ "obj-2", 2 ],
					"hidden" : 0,
					"midpoints" : [  ]
				}

			}
, 			{
				"patchline" : 				{
					"source" : [ "obj-15", 0 ],
					"destination" : [ "obj-8", 0 ],
					"hidden" : 0,
					"midpoints" : [  ]
				}

			}
, 			{
				"patchline" : 				{
					"source" : [ "obj-3", 2 ],
					"destination" : [ "obj-15", 0 ],
					"hidden" : 0,
					"midpoints" : [  ]
				}

			}
, 			{
				"patchline" : 				{
					"source" : [ "obj-81", 0 ],
					"destination" : [ "obj-2", 1 ],
					"hidden" : 0,
					"midpoints" : [  ]
				}

			}
, 			{
				"patchline" : 				{
					"source" : [ "obj-3", 1 ],
					"destination" : [ "obj-81", 0 ],
					"hidden" : 0,
					"midpoints" : [  ]
				}

			}
, 			{
				"patchline" : 				{
					"source" : [ "obj-79", 0 ],
					"destination" : [ "obj-2", 0 ],
					"hidden" : 0,
					"midpoints" : [  ]
				}

			}
, 			{
				"patchline" : 				{
					"source" : [ "obj-79", 0 ],
					"destination" : [ "obj-8", 1 ],
					"hidden" : 0,
					"midpoints" : [  ]
				}

			}
, 			{
				"patchline" : 				{
					"source" : [ "obj-3", 0 ],
					"destination" : [ "obj-79", 0 ],
					"hidden" : 0,
					"midpoints" : [  ]
				}

			}
, 			{
				"patchline" : 				{
					"source" : [ "obj-13", 0 ],
					"destination" : [ "obj-14", 0 ],
					"hidden" : 0,
					"midpoints" : [  ]
				}

			}
, 			{
				"patchline" : 				{
					"source" : [ "obj-16", 0 ],
					"destination" : [ "obj-13", 0 ],
					"hidden" : 0,
					"midpoints" : [  ]
				}

			}
, 			{
				"patchline" : 				{
					"source" : [ "obj-5", 0 ],
					"destination" : [ "obj-4", 0 ],
					"hidden" : 0,
					"midpoints" : [  ]
				}

			}
, 			{
				"patchline" : 				{
					"source" : [ "obj-9", 0 ],
					"destination" : [ "obj-10", 0 ],
					"hidden" : 0,
					"midpoints" : [  ]
				}

			}
, 			{
				"patchline" : 				{
					"source" : [ "obj-11", 0 ],
					"destination" : [ "obj-9", 0 ],
					"hidden" : 0,
					"midpoints" : [  ]
				}

			}
, 			{
				"patchline" : 				{
					"source" : [ "obj-7", 0 ],
					"destination" : [ "obj-11", 0 ],
					"hidden" : 0,
					"midpoints" : [  ]
				}

			}
, 			{
				"patchline" : 				{
					"source" : [ "obj-8", 0 ],
					"destination" : [ "obj-7", 0 ],
					"hidden" : 0,
					"midpoints" : [  ]
				}

			}
, 			{
				"patchline" : 				{
					"source" : [ "obj-2", 0 ],
					"destination" : [ "obj-1", 0 ],
					"hidden" : 0,
					"midpoints" : [  ]
				}

			}
, 			{
				"patchline" : 				{
					"source" : [ "obj-24", 0 ],
					"destination" : [ "obj-14", 0 ],
					"hidden" : 0,
					"midpoints" : [  ]
				}

			}
, 			{
				"patchline" : 				{
					"source" : [ "obj-6", 0 ],
					"destination" : [ "obj-3", 0 ],
					"hidden" : 0,
					"midpoints" : [  ]
				}

			}
, 			{
				"patchline" : 				{
					"source" : [ "obj-3", 4 ],
					"destination" : [ "obj-24", 0 ],
					"hidden" : 0,
					"midpoints" : [  ]
				}

			}
, 			{
				"patchline" : 				{
					"source" : [ "obj-3", 3 ],
					"destination" : [ "obj-16", 0 ],
					"hidden" : 0,
					"midpoints" : [  ]
				}

			}
, 			{
				"patchline" : 				{
					"source" : [ "obj-14", 0 ],
					"destination" : [ "obj-21", 0 ],
					"hidden" : 0,
					"midpoints" : [  ]
				}

			}
 ]
	}

}
