{
	"patcher" : 	{
		"fileversion" : 1,
		"rect" : [ 381.0, 44.0, 862.0, 380.0 ],
		"bglocked" : 0,
		"defrect" : [ 381.0, 44.0, 862.0, 380.0 ],
		"openrect" : [ 0.0, 0.0, 0.0, 0.0 ],
		"openinpresentation" : 0,
		"default_fontsize" : 10.0,
		"default_fontface" : 0,
		"default_fontname" : "Arial",
		"gridonopen" : 0,
		"gridsize" : [ 15.0, 15.0 ],
		"gridsnaponopen" : 0,
		"toolbarvisible" : 1,
		"boxanimatetime" : 200,
		"imprint" : 0,
		"boxes" : [ 			{
				"box" : 				{
					"maxclass" : "newobj",
					"varname" : "toRecorder",
					"text" : "p toRecorder",
					"numinlets" : 2,
					"patching_rect" : [ 7.0, 169.0, 75.0, 19.0 ],
					"fontsize" : 10.0,
					"numoutlets" : 1,
					"outlettype" : [ "" ],
					"fontname" : "Verdana",
					"id" : "obj-18",
					"patcher" : 					{
						"fileversion" : 1,
						"rect" : [ 119.0, 167.0, 936.0, 523.0 ],
						"bglocked" : 0,
						"defrect" : [ 119.0, 167.0, 936.0, 523.0 ],
						"openrect" : [ 0.0, 0.0, 0.0, 0.0 ],
						"openinpresentation" : 0,
						"default_fontsize" : 10.0,
						"default_fontface" : 0,
						"default_fontname" : "Verdana",
						"gridonopen" : 0,
						"gridsize" : [ 5.0, 5.0 ],
						"gridsnaponopen" : 0,
						"toolbarvisible" : 1,
						"boxanimatetime" : 200,
						"imprint" : 0,
						"boxes" : [ 							{
								"box" : 								{
									"maxclass" : "message",
									"text" : "nchans 8",
									"numinlets" : 2,
									"patching_rect" : [ 143.0, 204.0, 56.0, 17.0 ],
									"fontsize" : 10.0,
									"numoutlets" : 1,
									"outlettype" : [ "" ],
									"fontname" : "Verdana",
									"id" : "obj-8"
								}

							}
, 							{
								"box" : 								{
									"maxclass" : "message",
									"text" : "set nchans $1",
									"numinlets" : 2,
									"patching_rect" : [ 72.0, 177.0, 81.0, 17.0 ],
									"fontsize" : 10.0,
									"numoutlets" : 1,
									"outlettype" : [ "" ],
									"fontname" : "Verdana",
									"id" : "obj-6"
								}

							}
, 							{
								"box" : 								{
									"maxclass" : "inlet",
									"numinlets" : 0,
									"patching_rect" : [ 72.0, 142.0, 25.0, 25.0 ],
									"numoutlets" : 1,
									"outlettype" : [ "" ],
									"id" : "obj-4",
									"comment" : ""
								}

							}
, 							{
								"box" : 								{
									"maxclass" : "newobj",
									"text" : "p record_with_given_filename",
									"numinlets" : 2,
									"patching_rect" : [ 526.0, 266.0, 163.0, 19.0 ],
									"fontsize" : 10.0,
									"numoutlets" : 2,
									"outlettype" : [ "bang", "" ],
									"fontname" : "Verdana",
									"id" : "obj-9",
									"patcher" : 									{
										"fileversion" : 1,
										"rect" : [ 485.0, 192.0, 640.0, 480.0 ],
										"bglocked" : 0,
										"defrect" : [ 485.0, 192.0, 640.0, 480.0 ],
										"openrect" : [ 0.0, 0.0, 0.0, 0.0 ],
										"openinpresentation" : 0,
										"default_fontsize" : 10.0,
										"default_fontface" : 0,
										"default_fontname" : "Verdana",
										"gridonopen" : 0,
										"gridsize" : [ 15.0, 15.0 ],
										"gridsnaponopen" : 0,
										"toolbarvisible" : 1,
										"boxanimatetime" : 200,
										"imprint" : 0,
										"boxes" : [ 											{
												"box" : 												{
													"maxclass" : "newobj",
													"text" : "combine name . filetype @triggers 0",
													"linecount" : 2,
													"numinlets" : 3,
													"patching_rect" : [ 107.0, 147.0, 147.0, 31.0 ],
													"fontsize" : 10.0,
													"numoutlets" : 2,
													"outlettype" : [ "", "" ],
													"fontname" : "Verdana",
													"id" : "obj-4"
												}

											}
, 											{
												"box" : 												{
													"maxclass" : "newobj",
													"text" : "tosymbol",
													"numinlets" : 1,
													"patching_rect" : [ 50.0, 100.0, 56.0, 19.0 ],
													"fontsize" : 10.0,
													"numoutlets" : 1,
													"outlettype" : [ "" ],
													"fontname" : "Verdana",
													"id" : "obj-18"
												}

											}
, 											{
												"box" : 												{
													"maxclass" : "newobj",
													"text" : "t 1 b s",
													"numinlets" : 1,
													"patching_rect" : [ 50.0, 122.0, 76.0, 19.0 ],
													"fontsize" : 10.0,
													"numoutlets" : 3,
													"outlettype" : [ "int", "bang", "" ],
													"fontname" : "Verdana",
													"id" : "obj-17"
												}

											}
, 											{
												"box" : 												{
													"maxclass" : "newobj",
													"text" : "pack open s aiff",
													"numinlets" : 3,
													"patching_rect" : [ 79.0, 220.0, 192.0, 19.0 ],
													"fontsize" : 10.0,
													"numoutlets" : 1,
													"outlettype" : [ "" ],
													"fontname" : "Verdana",
													"id" : "obj-16"
												}

											}
, 											{
												"box" : 												{
													"maxclass" : "inlet",
													"numinlets" : 0,
													"patching_rect" : [ 55.0, 40.0, 25.0, 25.0 ],
													"numoutlets" : 1,
													"outlettype" : [ "" ],
													"id" : "obj-5",
													"comment" : ""
												}

											}
, 											{
												"box" : 												{
													"maxclass" : "inlet",
													"numinlets" : 0,
													"patching_rect" : [ 252.0, 41.0, 25.0, 25.0 ],
													"numoutlets" : 1,
													"outlettype" : [ "" ],
													"id" : "obj-6",
													"comment" : ""
												}

											}
, 											{
												"box" : 												{
													"maxclass" : "outlet",
													"numinlets" : 1,
													"patching_rect" : [ 250.0, 372.0, 25.0, 25.0 ],
													"numoutlets" : 0,
													"id" : "obj-7",
													"comment" : ""
												}

											}
, 											{
												"box" : 												{
													"maxclass" : "outlet",
													"numinlets" : 1,
													"patching_rect" : [ 14.0, 404.0, 25.0, 25.0 ],
													"numoutlets" : 0,
													"id" : "obj-8",
													"comment" : ""
												}

											}
 ],
										"lines" : [ 											{
												"patchline" : 												{
													"source" : [ "obj-17", 1 ],
													"destination" : [ "obj-8", 0 ],
													"hidden" : 0,
													"midpoints" : [ 88.0, 146.0, 66.0, 146.0, 66.0, 154.0, 23.5, 154.0 ]
												}

											}
, 											{
												"patchline" : 												{
													"source" : [ "obj-16", 0 ],
													"destination" : [ "obj-7", 0 ],
													"hidden" : 0,
													"midpoints" : [ 88.5, 357.0, 259.5, 357.0 ]
												}

											}
, 											{
												"patchline" : 												{
													"source" : [ "obj-17", 0 ],
													"destination" : [ "obj-7", 0 ],
													"hidden" : 0,
													"midpoints" : [ 59.5, 207.0, 59.0, 207.0, 59.0, 357.0, 259.5, 357.0 ]
												}

											}
, 											{
												"patchline" : 												{
													"source" : [ "obj-6", 0 ],
													"destination" : [ "obj-4", 2 ],
													"hidden" : 0,
													"midpoints" : [  ]
												}

											}
, 											{
												"patchline" : 												{
													"source" : [ "obj-6", 0 ],
													"destination" : [ "obj-16", 2 ],
													"hidden" : 0,
													"midpoints" : [  ]
												}

											}
, 											{
												"patchline" : 												{
													"source" : [ "obj-5", 0 ],
													"destination" : [ "obj-18", 0 ],
													"hidden" : 0,
													"midpoints" : [  ]
												}

											}
, 											{
												"patchline" : 												{
													"source" : [ "obj-4", 0 ],
													"destination" : [ "obj-16", 1 ],
													"hidden" : 0,
													"midpoints" : [  ]
												}

											}
, 											{
												"patchline" : 												{
													"source" : [ "obj-17", 2 ],
													"destination" : [ "obj-4", 0 ],
													"hidden" : 0,
													"midpoints" : [  ]
												}

											}
, 											{
												"patchline" : 												{
													"source" : [ "obj-18", 0 ],
													"destination" : [ "obj-17", 0 ],
													"hidden" : 0,
													"midpoints" : [  ]
												}

											}
, 											{
												"patchline" : 												{
													"source" : [ "obj-17", 1 ],
													"destination" : [ "obj-16", 0 ],
													"hidden" : 0,
													"midpoints" : [  ]
												}

											}
 ]
									}
,
									"saved_object_attributes" : 									{
										"default_fontsize" : 10.0,
										"fontface" : 0,
										"globalpatchername" : "",
										"fontsize" : 10.0,
										"default_fontface" : 0,
										"fontname" : "Verdana",
										"default_fontname" : "Verdana"
									}

								}

							}
, 							{
								"box" : 								{
									"maxclass" : "newobj",
									"text" : "t 1 b",
									"numinlets" : 1,
									"patching_rect" : [ 353.0, 175.0, 34.0, 19.0 ],
									"fontsize" : 10.0,
									"numoutlets" : 2,
									"outlettype" : [ "int", "bang" ],
									"fontname" : "Verdana",
									"id" : "obj-21"
								}

							}
, 							{
								"box" : 								{
									"maxclass" : "newobj",
									"text" : "t 0",
									"numinlets" : 1,
									"patching_rect" : [ 388.0, 175.0, 24.0, 19.0 ],
									"fontsize" : 10.0,
									"numoutlets" : 1,
									"outlettype" : [ "int" ],
									"fontname" : "Verdana",
									"id" : "obj-13"
								}

							}
, 							{
								"box" : 								{
									"maxclass" : "outlet",
									"numinlets" : 1,
									"patching_rect" : [ 204.0, 341.0, 25.0, 25.0 ],
									"numoutlets" : 0,
									"id" : "obj-20",
									"comment" : ""
								}

							}
, 							{
								"box" : 								{
									"maxclass" : "newobj",
									"text" : "t b b",
									"numinlets" : 1,
									"patching_rect" : [ 189.0, 171.0, 34.0, 19.0 ],
									"fontsize" : 10.0,
									"numoutlets" : 2,
									"outlettype" : [ "bang", "bang" ],
									"fontname" : "Verdana",
									"id" : "obj-1"
								}

							}
, 							{
								"box" : 								{
									"maxclass" : "newobj",
									"text" : "zl reg",
									"numinlets" : 2,
									"patching_rect" : [ 204.0, 203.0, 36.0, 19.0 ],
									"fontsize" : 10.0,
									"numoutlets" : 2,
									"outlettype" : [ "", "" ],
									"fontname" : "Verdana",
									"id" : "obj-2"
								}

							}
, 							{
								"box" : 								{
									"maxclass" : "newobj",
									"text" : "jcom.pass /samptype",
									"numinlets" : 1,
									"patching_rect" : [ 371.0, 74.0, 117.0, 19.0 ],
									"fontsize" : 10.0,
									"numoutlets" : 2,
									"outlettype" : [ "", "" ],
									"fontname" : "Verdana",
									"id" : "obj-3"
								}

							}
, 							{
								"box" : 								{
									"maxclass" : "newobj",
									"text" : "pack open aiff",
									"numinlets" : 2,
									"patching_rect" : [ 366.0, 222.0, 122.0, 19.0 ],
									"fontsize" : 10.0,
									"numoutlets" : 1,
									"outlettype" : [ "" ],
									"fontname" : "Verdana",
									"id" : "obj-11"
								}

							}
, 							{
								"box" : 								{
									"maxclass" : "newobj",
									"text" : "jcom.oscroute /filetype /active",
									"numinlets" : 1,
									"patching_rect" : [ 469.0, 96.0, 165.0, 19.0 ],
									"fontsize" : 10.0,
									"numoutlets" : 3,
									"outlettype" : [ "", "", "" ],
									"fontname" : "Verdana",
									"id" : "obj-12"
								}

							}
, 							{
								"box" : 								{
									"maxclass" : "newobj",
									"text" : "sel 1 0",
									"numinlets" : 1,
									"patching_rect" : [ 353.0, 150.0, 86.0, 19.0 ],
									"fontsize" : 10.0,
									"numoutlets" : 3,
									"outlettype" : [ "bang", "bang", "" ],
									"fontname" : "Verdana",
									"id" : "obj-14"
								}

							}
, 							{
								"box" : 								{
									"maxclass" : "inlet",
									"numinlets" : 0,
									"patching_rect" : [ 371.0, 46.0, 24.0, 24.0 ],
									"numoutlets" : 1,
									"outlettype" : [ "" ],
									"id" : "obj-15",
									"comment" : ""
								}

							}
, 							{
								"box" : 								{
									"maxclass" : "comment",
									"text" : "required to avoid an error message during initialisation",
									"linecount" : 5,
									"numinlets" : 1,
									"patching_rect" : [ 112.0, 76.0, 83.0, 67.0 ],
									"fontsize" : 10.0,
									"numoutlets" : 0,
									"fontname" : "Verdana",
									"id" : "obj-19",
									"frgb" : [ 0.0, 0.0, 0.0, 1.0 ]
								}

							}
 ],
						"lines" : [ 							{
								"patchline" : 								{
									"source" : [ "obj-8", 0 ],
									"destination" : [ "obj-20", 0 ],
									"hidden" : 0,
									"midpoints" : [ 152.5, 230.0, 213.5, 230.0 ]
								}

							}
, 							{
								"patchline" : 								{
									"source" : [ "obj-1", 0 ],
									"destination" : [ "obj-8", 0 ],
									"hidden" : 0,
									"midpoints" : [  ]
								}

							}
, 							{
								"patchline" : 								{
									"source" : [ "obj-1", 1 ],
									"destination" : [ "obj-2", 0 ],
									"hidden" : 0,
									"midpoints" : [  ]
								}

							}
, 							{
								"patchline" : 								{
									"source" : [ "obj-9", 0 ],
									"destination" : [ "obj-1", 0 ],
									"hidden" : 0,
									"color" : [ 1.0, 0.337255, 0.619608, 1.0 ],
									"midpoints" : [ 535.5, 285.0, 252.0, 285.0, 252.0, 162.0, 198.5, 162.0 ]
								}

							}
, 							{
								"patchline" : 								{
									"source" : [ "obj-11", 0 ],
									"destination" : [ "obj-1", 0 ],
									"hidden" : 0,
									"color" : [ 1.0, 0.337255, 0.619608, 1.0 ],
									"midpoints" : [ 375.5, 243.0, 252.0, 243.0, 252.0, 162.0, 198.5, 162.0 ]
								}

							}
, 							{
								"patchline" : 								{
									"source" : [ "obj-6", 0 ],
									"destination" : [ "obj-8", 0 ],
									"hidden" : 0,
									"midpoints" : [  ]
								}

							}
, 							{
								"patchline" : 								{
									"source" : [ "obj-4", 0 ],
									"destination" : [ "obj-6", 0 ],
									"hidden" : 0,
									"midpoints" : [  ]
								}

							}
, 							{
								"patchline" : 								{
									"source" : [ "obj-21", 1 ],
									"destination" : [ "obj-11", 0 ],
									"hidden" : 0,
									"midpoints" : [  ]
								}

							}
, 							{
								"patchline" : 								{
									"source" : [ "obj-14", 0 ],
									"destination" : [ "obj-21", 0 ],
									"hidden" : 0,
									"midpoints" : [  ]
								}

							}
, 							{
								"patchline" : 								{
									"source" : [ "obj-21", 0 ],
									"destination" : [ "obj-20", 0 ],
									"hidden" : 0,
									"midpoints" : [  ]
								}

							}
, 							{
								"patchline" : 								{
									"source" : [ "obj-12", 1 ],
									"destination" : [ "obj-14", 0 ],
									"hidden" : 0,
									"midpoints" : [ 551.5, 135.0, 362.5, 135.0 ]
								}

							}
, 							{
								"patchline" : 								{
									"source" : [ "obj-14", 1 ],
									"destination" : [ "obj-13", 0 ],
									"hidden" : 0,
									"midpoints" : [  ]
								}

							}
, 							{
								"patchline" : 								{
									"source" : [ "obj-13", 0 ],
									"destination" : [ "obj-20", 0 ],
									"hidden" : 0,
									"midpoints" : [  ]
								}

							}
, 							{
								"patchline" : 								{
									"source" : [ "obj-15", 0 ],
									"destination" : [ "obj-3", 0 ],
									"hidden" : 0,
									"midpoints" : [  ]
								}

							}
, 							{
								"patchline" : 								{
									"source" : [ "obj-11", 0 ],
									"destination" : [ "obj-20", 0 ],
									"hidden" : 0,
									"midpoints" : [  ]
								}

							}
, 							{
								"patchline" : 								{
									"source" : [ "obj-2", 0 ],
									"destination" : [ "obj-20", 0 ],
									"hidden" : 0,
									"midpoints" : [  ]
								}

							}
, 							{
								"patchline" : 								{
									"source" : [ "obj-3", 0 ],
									"destination" : [ "obj-2", 1 ],
									"hidden" : 0,
									"midpoints" : [  ]
								}

							}
, 							{
								"patchline" : 								{
									"source" : [ "obj-3", 1 ],
									"destination" : [ "obj-12", 0 ],
									"hidden" : 0,
									"midpoints" : [  ]
								}

							}
, 							{
								"patchline" : 								{
									"source" : [ "obj-12", 0 ],
									"destination" : [ "obj-11", 1 ],
									"hidden" : 0,
									"midpoints" : [  ]
								}

							}
, 							{
								"patchline" : 								{
									"source" : [ "obj-9", 1 ],
									"destination" : [ "obj-20", 0 ],
									"hidden" : 0,
									"midpoints" : [ 679.5, 327.0, 213.5, 327.0 ]
								}

							}
, 							{
								"patchline" : 								{
									"source" : [ "obj-12", 0 ],
									"destination" : [ "obj-9", 1 ],
									"hidden" : 0,
									"midpoints" : [  ]
								}

							}
, 							{
								"patchline" : 								{
									"source" : [ "obj-14", 2 ],
									"destination" : [ "obj-9", 0 ],
									"hidden" : 0,
									"midpoints" : [  ]
								}

							}
 ]
					}
,
					"saved_object_attributes" : 					{
						"default_fontsize" : 10.0,
						"fontface" : 0,
						"globalpatchername" : "",
						"fontsize" : 10.0,
						"default_fontface" : 0,
						"fontname" : "Verdana",
						"default_fontname" : "Verdana"
					}

				}

			}
, 			{
				"box" : 				{
					"maxclass" : "newobj",
					"text" : "qlim 100",
					"numinlets" : 2,
					"patching_rect" : [ 122.0, 68.0, 48.0, 18.0 ],
					"fontsize" : 10.0,
					"numoutlets" : 1,
					"outlettype" : [ "" ],
					"fontname" : "Arial",
					"id" : "obj-15"
				}

			}
, 			{
				"box" : 				{
					"maxclass" : "newobj",
					"varname" : "thru",
					"text" : "p limiter",
					"numinlets" : 1,
					"patching_rect" : [ 305.0, 74.0, 46.0, 18.0 ],
					"fontsize" : 10.0,
					"numoutlets" : 1,
					"outlettype" : [ "" ],
					"fontname" : "Arial",
					"id" : "obj-24",
					"patcher" : 					{
						"fileversion" : 1,
						"rect" : [ 28.0, 315.0, 883.0, 479.0 ],
						"bglocked" : 0,
						"defrect" : [ 28.0, 315.0, 883.0, 479.0 ],
						"openrect" : [ 0.0, 0.0, 0.0, 0.0 ],
						"openinpresentation" : 0,
						"default_fontsize" : 10.0,
						"default_fontface" : 0,
						"default_fontname" : "Arial",
						"gridonopen" : 0,
						"gridsize" : [ 15.0, 15.0 ],
						"gridsnaponopen" : 0,
						"toolbarvisible" : 1,
						"boxanimatetime" : 200,
						"imprint" : 0,
						"boxes" : [ 							{
								"box" : 								{
									"maxclass" : "newobj",
									"text" : "prepend bypass_dcblocker",
									"linecount" : 2,
									"numinlets" : 1,
									"patching_rect" : [ 636.0, 181.0, 90.0, 29.0 ],
									"fontsize" : 10.0,
									"numoutlets" : 1,
									"outlettype" : [ "" ],
									"fontname" : "Arial",
									"id" : "obj-13"
								}

							}
, 							{
								"box" : 								{
									"maxclass" : "newobj",
									"text" : "== 0",
									"numinlets" : 2,
									"patching_rect" : [ 636.0, 160.0, 35.0, 18.0 ],
									"fontsize" : 10.0,
									"numoutlets" : 1,
									"outlettype" : [ "int" ],
									"fontname" : "Arial",
									"id" : "obj-16"
								}

							}
, 							{
								"box" : 								{
									"maxclass" : "newobj",
									"text" : "prepend bypass",
									"numinlets" : 1,
									"patching_rect" : [ 542.0, 179.0, 87.0, 18.0 ],
									"fontsize" : 9.873845,
									"numoutlets" : 1,
									"outlettype" : [ "" ],
									"fontname" : "Verdana",
									"id" : "obj-3"
								}

							}
, 							{
								"box" : 								{
									"maxclass" : "newobj",
									"text" : "== 0",
									"numinlets" : 2,
									"patching_rect" : [ 542.0, 158.0, 34.0, 18.0 ],
									"fontsize" : 9.873845,
									"numoutlets" : 1,
									"outlettype" : [ "int" ],
									"fontname" : "Verdana",
									"id" : "obj-4"
								}

							}
, 							{
								"box" : 								{
									"maxclass" : "newobj",
									"text" : "jcom.oscroute /active /dcblocker/active",
									"numinlets" : 1,
									"patching_rect" : [ 542.0, 137.0, 207.0, 18.0 ],
									"fontsize" : 9.873845,
									"numoutlets" : 3,
									"outlettype" : [ "", "", "" ],
									"fontname" : "Verdana",
									"id" : "obj-5"
								}

							}
, 							{
								"box" : 								{
									"maxclass" : "outlet",
									"numinlets" : 1,
									"patching_rect" : [ 264.0, 392.0, 25.0, 25.0 ],
									"numoutlets" : 0,
									"id" : "obj-2",
									"comment" : ""
								}

							}
, 							{
								"box" : 								{
									"maxclass" : "inlet",
									"numinlets" : 0,
									"patching_rect" : [ 228.0, 18.0, 25.0, 25.0 ],
									"numoutlets" : 1,
									"outlettype" : [ "" ],
									"id" : "obj-1",
									"comment" : ""
								}

							}
, 							{
								"box" : 								{
									"maxclass" : "newobj",
									"text" : "jcom.pass /preamp /postamp /threshold /lookahead /release /mode",
									"numinlets" : 1,
									"patching_rect" : [ 214.0, 113.0, 348.0, 18.0 ],
									"fontsize" : 9.873845,
									"numoutlets" : 7,
									"outlettype" : [ "", "", "", "", "", "", "" ],
									"fontname" : "Verdana",
									"id" : "obj-23"
								}

							}
 ],
						"lines" : [ 							{
								"patchline" : 								{
									"source" : [ "obj-1", 0 ],
									"destination" : [ "obj-23", 0 ],
									"hidden" : 0,
									"midpoints" : [  ]
								}

							}
, 							{
								"patchline" : 								{
									"source" : [ "obj-23", 0 ],
									"destination" : [ "obj-2", 0 ],
									"hidden" : 0,
									"midpoints" : [  ]
								}

							}
, 							{
								"patchline" : 								{
									"source" : [ "obj-23", 1 ],
									"destination" : [ "obj-2", 0 ],
									"hidden" : 0,
									"midpoints" : [  ]
								}

							}
, 							{
								"patchline" : 								{
									"source" : [ "obj-23", 2 ],
									"destination" : [ "obj-2", 0 ],
									"hidden" : 0,
									"midpoints" : [  ]
								}

							}
, 							{
								"patchline" : 								{
									"source" : [ "obj-23", 3 ],
									"destination" : [ "obj-2", 0 ],
									"hidden" : 0,
									"midpoints" : [  ]
								}

							}
, 							{
								"patchline" : 								{
									"source" : [ "obj-23", 4 ],
									"destination" : [ "obj-2", 0 ],
									"hidden" : 0,
									"midpoints" : [  ]
								}

							}
, 							{
								"patchline" : 								{
									"source" : [ "obj-23", 5 ],
									"destination" : [ "obj-2", 0 ],
									"hidden" : 0,
									"midpoints" : [  ]
								}

							}
, 							{
								"patchline" : 								{
									"source" : [ "obj-4", 0 ],
									"destination" : [ "obj-3", 0 ],
									"hidden" : 0,
									"midpoints" : [  ]
								}

							}
, 							{
								"patchline" : 								{
									"source" : [ "obj-3", 0 ],
									"destination" : [ "obj-2", 0 ],
									"hidden" : 0,
									"midpoints" : [  ]
								}

							}
, 							{
								"patchline" : 								{
									"source" : [ "obj-23", 6 ],
									"destination" : [ "obj-5", 0 ],
									"hidden" : 0,
									"midpoints" : [  ]
								}

							}
, 							{
								"patchline" : 								{
									"source" : [ "obj-5", 0 ],
									"destination" : [ "obj-4", 0 ],
									"hidden" : 0,
									"midpoints" : [  ]
								}

							}
, 							{
								"patchline" : 								{
									"source" : [ "obj-16", 0 ],
									"destination" : [ "obj-13", 0 ],
									"hidden" : 0,
									"midpoints" : [  ]
								}

							}
, 							{
								"patchline" : 								{
									"source" : [ "obj-5", 1 ],
									"destination" : [ "obj-16", 0 ],
									"hidden" : 0,
									"midpoints" : [  ]
								}

							}
, 							{
								"patchline" : 								{
									"source" : [ "obj-13", 0 ],
									"destination" : [ "obj-2", 0 ],
									"hidden" : 0,
									"midpoints" : [  ]
								}

							}
 ]
					}
,
					"saved_object_attributes" : 					{
						"default_fontsize" : 10.0,
						"fontface" : 0,
						"globalpatchername" : "",
						"fontsize" : 10.0,
						"default_fontface" : 0,
						"fontname" : "Arial",
						"default_fontname" : "Arial"
					}

				}

			}
, 			{
				"box" : 				{
					"maxclass" : "newobj",
					"text" : "qlim 100",
					"numinlets" : 2,
					"patching_rect" : [ 64.0, 69.0, 48.0, 18.0 ],
					"fontsize" : 10.0,
					"numoutlets" : 1,
					"outlettype" : [ "" ],
					"fontname" : "Arial",
					"id" : "obj-81"
				}

			}
, 			{
				"box" : 				{
					"maxclass" : "newobj",
					"text" : "qlim 100",
					"numinlets" : 2,
					"patching_rect" : [ 6.0, 69.0, 48.0, 18.0 ],
					"fontsize" : 10.0,
					"numoutlets" : 1,
					"outlettype" : [ "" ],
					"fontname" : "Arial",
					"id" : "obj-79"
				}

			}
, 			{
				"box" : 				{
					"maxclass" : "newobj",
					"text" : "thispatcher",
					"numinlets" : 1,
					"patching_rect" : [ 41.0, 130.0, 61.0, 17.0 ],
					"fontsize" : 9.0,
					"numoutlets" : 2,
					"outlettype" : [ "", "" ],
					"fontname" : "Arial",
					"id" : "obj-1",
					"save" : [ "#N", "thispatcher", ";", "#Q", "end", ";" ]
				}

			}
, 			{
				"box" : 				{
					"maxclass" : "newobj",
					"text" : "p scripting",
					"numinlets" : 3,
					"patching_rect" : [ 6.0, 106.0, 58.0, 17.0 ],
					"fontsize" : 9.0,
					"numoutlets" : 2,
					"outlettype" : [ "", "" ],
					"fontname" : "Arial",
					"id" : "obj-2",
					"patcher" : 					{
						"fileversion" : 1,
						"rect" : [ 393.0, 124.0, 687.0, 479.0 ],
						"bglocked" : 0,
						"defrect" : [ 393.0, 124.0, 687.0, 479.0 ],
						"openrect" : [ 0.0, 0.0, 0.0, 0.0 ],
						"openinpresentation" : 0,
						"default_fontsize" : 10.0,
						"default_fontface" : 0,
						"default_fontname" : "Arial",
						"gridonopen" : 0,
						"gridsize" : [ 15.0, 15.0 ],
						"gridsnaponopen" : 0,
						"toolbarvisible" : 1,
						"boxanimatetime" : 200,
						"imprint" : 0,
						"boxes" : [ 							{
								"box" : 								{
									"maxclass" : "outlet",
									"numinlets" : 1,
									"patching_rect" : [ 109.0, 403.0, 15.0, 15.0 ],
									"numoutlets" : 0,
									"id" : "obj-1",
									"comment" : ""
								}

							}
, 							{
								"box" : 								{
									"maxclass" : "newobj",
									"text" : "p disconnect limiter",
									"numinlets" : 2,
									"patching_rect" : [ 464.0, 301.0, 96.0, 18.0 ],
									"fontsize" : 10.0,
									"numoutlets" : 1,
									"outlettype" : [ "" ],
									"fontname" : "Arial",
									"id" : "obj-4",
									"patcher" : 									{
										"fileversion" : 1,
										"rect" : [ 385.0, 116.0, 844.0, 473.0 ],
										"bglocked" : 0,
										"defrect" : [ 385.0, 116.0, 844.0, 473.0 ],
										"openrect" : [ 0.0, 0.0, 0.0, 0.0 ],
										"openinpresentation" : 0,
										"default_fontsize" : 10.0,
										"default_fontface" : 0,
										"default_fontname" : "Arial",
										"gridonopen" : 0,
										"gridsize" : [ 15.0, 15.0 ],
										"gridsnaponopen" : 0,
										"toolbarvisible" : 1,
										"boxanimatetime" : 200,
										"imprint" : 0,
										"boxes" : [ 											{
												"box" : 												{
													"maxclass" : "newobj",
													"text" : "t i clear i b",
													"numinlets" : 1,
													"patching_rect" : [ 186.0, 39.0, 103.5, 18.0 ],
													"fontsize" : 10.0,
													"numoutlets" : 4,
													"outlettype" : [ "int", "clear", "int", "bang" ],
													"fontname" : "Arial",
													"id" : "obj-13"
												}

											}
, 											{
												"box" : 												{
													"maxclass" : "newobj",
													"text" : "loadmess 8",
													"numinlets" : 1,
													"patching_rect" : [ 289.0, 61.0, 62.0, 18.0 ],
													"fontsize" : 10.0,
													"numoutlets" : 1,
													"outlettype" : [ "" ],
													"fontname" : "Arial",
													"id" : "obj-16"
												}

											}
, 											{
												"box" : 												{
													"maxclass" : "newobj",
													"text" : "uzi 1 0",
													"numinlets" : 2,
													"patching_rect" : [ 289.0, 83.0, 69.0, 18.0 ],
													"fontsize" : 10.0,
													"numoutlets" : 3,
													"outlettype" : [ "bang", "bang", "int" ],
													"fontname" : "Arial",
													"id" : "obj-28"
												}

											}
, 											{
												"box" : 												{
													"maxclass" : "newobj",
													"text" : "+ 0",
													"numinlets" : 2,
													"patching_rect" : [ 339.0, 111.0, 32.5, 18.0 ],
													"fontsize" : 10.0,
													"numoutlets" : 1,
													"outlettype" : [ "int" ],
													"fontname" : "Arial",
													"id" : "obj-29"
												}

											}
, 											{
												"box" : 												{
													"maxclass" : "newobj",
													"text" : "pack i i",
													"numinlets" : 2,
													"patching_rect" : [ 316.0, 134.0, 42.0, 18.0 ],
													"fontsize" : 10.0,
													"numoutlets" : 1,
													"outlettype" : [ "" ],
													"fontname" : "Arial",
													"id" : "obj-30"
												}

											}
, 											{
												"box" : 												{
													"maxclass" : "newobj",
													"text" : "coll",
													"numinlets" : 1,
													"patching_rect" : [ 243.0, 207.0, 59.5, 18.0 ],
													"fontsize" : 10.0,
													"numoutlets" : 4,
													"outlettype" : [ "", "", "", "" ],
													"fontname" : "Arial",
													"id" : "obj-31",
													"saved_object_attributes" : 													{
														"embed" : 0
													}

												}

											}
, 											{
												"box" : 												{
													"maxclass" : "newobj",
													"text" : "append",
													"numinlets" : 1,
													"patching_rect" : [ 153.0, 282.0, 44.0, 18.0 ],
													"fontsize" : 10.0,
													"numoutlets" : 1,
													"outlettype" : [ "" ],
													"fontname" : "Arial",
													"id" : "obj-20"
												}

											}
, 											{
												"box" : 												{
													"maxclass" : "newobj",
													"text" : "prepend set dac",
													"numinlets" : 1,
													"patching_rect" : [ 154.0, 241.0, 82.0, 18.0 ],
													"fontsize" : 10.0,
													"numoutlets" : 1,
													"outlettype" : [ "" ],
													"fontname" : "Arial",
													"id" : "obj-18"
												}

											}
, 											{
												"box" : 												{
													"maxclass" : "newobj",
													"text" : "prepend script disconnect limiter",
													"numinlets" : 1,
													"patching_rect" : [ -5.0, 242.0, 154.0, 18.0 ],
													"fontsize" : 10.0,
													"numoutlets" : 1,
													"outlettype" : [ "" ],
													"fontname" : "Arial",
													"id" : "obj-19"
												}

											}
, 											{
												"box" : 												{
													"maxclass" : "newobj",
													"text" : "append",
													"numinlets" : 1,
													"patching_rect" : [ 243.0, 287.0, 44.0, 18.0 ],
													"fontsize" : 10.0,
													"numoutlets" : 1,
													"outlettype" : [ "" ],
													"fontname" : "Arial",
													"id" : "obj-14"
												}

											}
, 											{
												"box" : 												{
													"maxclass" : "newobj",
													"text" : "prepend set limiter",
													"numinlets" : 1,
													"patching_rect" : [ 408.0, 241.0, 93.0, 18.0 ],
													"fontsize" : 10.0,
													"numoutlets" : 1,
													"outlettype" : [ "" ],
													"fontname" : "Arial",
													"id" : "obj-12"
												}

											}
, 											{
												"box" : 												{
													"maxclass" : "newobj",
													"text" : "prepend script disconnect multiout",
													"numinlets" : 1,
													"patching_rect" : [ 243.0, 242.0, 162.0, 18.0 ],
													"fontsize" : 10.0,
													"numoutlets" : 1,
													"outlettype" : [ "" ],
													"fontname" : "Arial",
													"id" : "obj-6"
												}

											}
, 											{
												"box" : 												{
													"maxclass" : "inlet",
													"numinlets" : 0,
													"patching_rect" : [ 353.0, 12.0, 25.0, 25.0 ],
													"numoutlets" : 1,
													"outlettype" : [ "int" ],
													"id" : "obj-3",
													"comment" : ""
												}

											}
, 											{
												"box" : 												{
													"maxclass" : "newobj",
													"text" : "sprintf script disconnect limiter %ld dac %ld",
													"numinlets" : 2,
													"patching_rect" : [ 9.0, 418.0, 202.0, 18.0 ],
													"fontsize" : 10.0,
													"numoutlets" : 1,
													"outlettype" : [ "" ],
													"fontname" : "Arial",
													"id" : "obj-15"
												}

											}
, 											{
												"box" : 												{
													"maxclass" : "newobj",
													"text" : "sprintf script disconnect multiout %ld limiter %ld",
													"numinlets" : 2,
													"patching_rect" : [ 324.0, 420.0, 221.0, 18.0 ],
													"fontsize" : 10.0,
													"numoutlets" : 1,
													"outlettype" : [ "" ],
													"fontname" : "Arial",
													"id" : "obj-10"
												}

											}
, 											{
												"box" : 												{
													"maxclass" : "newobj",
													"text" : "uzi 1 0",
													"numinlets" : 2,
													"patching_rect" : [ 216.0, 147.0, 46.0, 18.0 ],
													"fontsize" : 10.0,
													"numoutlets" : 3,
													"outlettype" : [ "bang", "bang", "int" ],
													"fontname" : "Arial",
													"id" : "obj-8"
												}

											}
, 											{
												"box" : 												{
													"maxclass" : "newobj",
													"text" : "int 8",
													"numinlets" : 2,
													"patching_rect" : [ 216.0, 122.0, 44.5, 18.0 ],
													"fontsize" : 10.0,
													"numoutlets" : 1,
													"outlettype" : [ "int" ],
													"fontname" : "Arial",
													"id" : "obj-4"
												}

											}
, 											{
												"box" : 												{
													"maxclass" : "outlet",
													"numinlets" : 1,
													"patching_rect" : [ 243.0, 386.0, 25.0, 25.0 ],
													"numoutlets" : 0,
													"id" : "obj-2",
													"comment" : ""
												}

											}
, 											{
												"box" : 												{
													"maxclass" : "inlet",
													"numinlets" : 0,
													"patching_rect" : [ 186.0, 9.0, 25.0, 25.0 ],
													"numoutlets" : 1,
													"outlettype" : [ "int" ],
													"id" : "obj-1",
													"comment" : ""
												}

											}
 ],
										"lines" : [ 											{
												"patchline" : 												{
													"source" : [ "obj-8", 2 ],
													"destination" : [ "obj-18", 0 ],
													"hidden" : 0,
													"midpoints" : [  ]
												}

											}
, 											{
												"patchline" : 												{
													"source" : [ "obj-8", 2 ],
													"destination" : [ "obj-19", 0 ],
													"hidden" : 0,
													"midpoints" : [  ]
												}

											}
, 											{
												"patchline" : 												{
													"source" : [ "obj-8", 2 ],
													"destination" : [ "obj-12", 0 ],
													"hidden" : 0,
													"midpoints" : [  ]
												}

											}
, 											{
												"patchline" : 												{
													"source" : [ "obj-20", 0 ],
													"destination" : [ "obj-2", 0 ],
													"hidden" : 0,
													"midpoints" : [  ]
												}

											}
, 											{
												"patchline" : 												{
													"source" : [ "obj-19", 0 ],
													"destination" : [ "obj-20", 0 ],
													"hidden" : 0,
													"midpoints" : [  ]
												}

											}
, 											{
												"patchline" : 												{
													"source" : [ "obj-18", 0 ],
													"destination" : [ "obj-20", 0 ],
													"hidden" : 0,
													"midpoints" : [  ]
												}

											}
, 											{
												"patchline" : 												{
													"source" : [ "obj-14", 0 ],
													"destination" : [ "obj-2", 0 ],
													"hidden" : 0,
													"midpoints" : [  ]
												}

											}
, 											{
												"patchline" : 												{
													"source" : [ "obj-12", 0 ],
													"destination" : [ "obj-14", 0 ],
													"hidden" : 0,
													"midpoints" : [ 417.5, 273.0, 252.5, 273.0 ]
												}

											}
, 											{
												"patchline" : 												{
													"source" : [ "obj-6", 0 ],
													"destination" : [ "obj-14", 0 ],
													"hidden" : 0,
													"midpoints" : [  ]
												}

											}
, 											{
												"patchline" : 												{
													"source" : [ "obj-28", 2 ],
													"destination" : [ "obj-30", 0 ],
													"hidden" : 0,
													"midpoints" : [ 348.5, 108.0, 325.5, 108.0 ]
												}

											}
, 											{
												"patchline" : 												{
													"source" : [ "obj-30", 0 ],
													"destination" : [ "obj-31", 0 ],
													"hidden" : 0,
													"midpoints" : [  ]
												}

											}
, 											{
												"patchline" : 												{
													"source" : [ "obj-3", 0 ],
													"destination" : [ "obj-29", 1 ],
													"hidden" : 0,
													"midpoints" : [  ]
												}

											}
, 											{
												"patchline" : 												{
													"source" : [ "obj-28", 2 ],
													"destination" : [ "obj-29", 0 ],
													"hidden" : 0,
													"midpoints" : [  ]
												}

											}
, 											{
												"patchline" : 												{
													"source" : [ "obj-29", 0 ],
													"destination" : [ "obj-30", 1 ],
													"hidden" : 0,
													"midpoints" : [  ]
												}

											}
, 											{
												"patchline" : 												{
													"source" : [ "obj-8", 2 ],
													"destination" : [ "obj-31", 0 ],
													"hidden" : 0,
													"midpoints" : [  ]
												}

											}
, 											{
												"patchline" : 												{
													"source" : [ "obj-31", 0 ],
													"destination" : [ "obj-6", 0 ],
													"hidden" : 0,
													"midpoints" : [  ]
												}

											}
, 											{
												"patchline" : 												{
													"source" : [ "obj-16", 0 ],
													"destination" : [ "obj-28", 0 ],
													"hidden" : 0,
													"midpoints" : [  ]
												}

											}
, 											{
												"patchline" : 												{
													"source" : [ "obj-4", 0 ],
													"destination" : [ "obj-8", 0 ],
													"hidden" : 0,
													"midpoints" : [  ]
												}

											}
, 											{
												"patchline" : 												{
													"source" : [ "obj-1", 0 ],
													"destination" : [ "obj-13", 0 ],
													"hidden" : 0,
													"midpoints" : [  ]
												}

											}
, 											{
												"patchline" : 												{
													"source" : [ "obj-13", 3 ],
													"destination" : [ "obj-4", 0 ],
													"hidden" : 0,
													"midpoints" : [ 280.0, 98.0, 225.5, 98.0 ]
												}

											}
, 											{
												"patchline" : 												{
													"source" : [ "obj-13", 2 ],
													"destination" : [ "obj-4", 1 ],
													"hidden" : 0,
													"midpoints" : [  ]
												}

											}
, 											{
												"patchline" : 												{
													"source" : [ "obj-13", 0 ],
													"destination" : [ "obj-28", 0 ],
													"hidden" : 0,
													"midpoints" : [  ]
												}

											}
, 											{
												"patchline" : 												{
													"source" : [ "obj-13", 1 ],
													"destination" : [ "obj-31", 0 ],
													"hidden" : 0,
													"midpoints" : [ 223.666672, 84.0, 201.0, 84.0, 201.0, 203.0, 252.5, 203.0 ]
												}

											}
 ]
									}
,
									"saved_object_attributes" : 									{
										"default_fontsize" : 10.0,
										"fontface" : 0,
										"globalpatchername" : "",
										"fontsize" : 10.0,
										"default_fontface" : 0,
										"fontname" : "Arial",
										"default_fontname" : "Arial"
									}

								}

							}
, 							{
								"box" : 								{
									"maxclass" : "newobj",
									"text" : "t i i b i",
									"numinlets" : 1,
									"patching_rect" : [ 166.0, 271.0, 316.5, 18.0 ],
									"fontsize" : 10.0,
									"numoutlets" : 4,
									"outlettype" : [ "int", "int", "bang", "int" ],
									"fontname" : "Arial",
									"id" : "obj-27"
								}

							}
, 							{
								"box" : 								{
									"maxclass" : "comment",
									"text" : "When audio is turned of, script will update to catch any changes that has happened in the meantime.",
									"linecount" : 3,
									"numinlets" : 1,
									"patching_rect" : [ 461.0, 134.0, 168.0, 38.0 ],
									"fontsize" : 9.0,
									"numoutlets" : 0,
									"fontname" : "Arial",
									"id" : "obj-5",
									"frgb" : [ 0.0, 0.0, 0.0, 1.0 ]
								}

							}
, 							{
								"box" : 								{
									"maxclass" : "newobj",
									"text" : "t b i",
									"numinlets" : 1,
									"patching_rect" : [ 218.0, 146.0, 27.0, 17.0 ],
									"fontsize" : 9.0,
									"numoutlets" : 2,
									"outlettype" : [ "bang", "int" ],
									"fontname" : "Arial",
									"id" : "obj-6"
								}

							}
, 							{
								"box" : 								{
									"maxclass" : "comment",
									"text" : "/setup",
									"numinlets" : 1,
									"patching_rect" : [ 276.0, 71.0, 43.0, 17.0 ],
									"fontsize" : 9.0,
									"numoutlets" : 0,
									"fontname" : "Arial",
									"id" : "obj-7",
									"frgb" : [ 0.0, 0.0, 0.0, 1.0 ]
								}

							}
, 							{
								"box" : 								{
									"maxclass" : "comment",
									"text" : "/voices",
									"numinlets" : 1,
									"patching_rect" : [ 173.0, 69.0, 43.0, 17.0 ],
									"fontsize" : 9.0,
									"numoutlets" : 0,
									"fontname" : "Arial",
									"id" : "obj-8",
									"frgb" : [ 0.0, 0.0, 0.0, 1.0 ]
								}

							}
, 							{
								"box" : 								{
									"maxclass" : "inlet",
									"numinlets" : 0,
									"patching_rect" : [ 218.0, 92.0, 15.0, 15.0 ],
									"numoutlets" : 1,
									"outlettype" : [ "" ],
									"id" : "obj-9",
									"comment" : ""
								}

							}
, 							{
								"box" : 								{
									"maxclass" : "inlet",
									"numinlets" : 0,
									"patching_rect" : [ 284.0, 95.0, 15.0, 15.0 ],
									"numoutlets" : 1,
									"outlettype" : [ "" ],
									"id" : "obj-10",
									"comment" : ""
								}

							}
, 							{
								"box" : 								{
									"maxclass" : "newobj",
									"text" : "p connect",
									"numinlets" : 2,
									"patching_rect" : [ 166.0, 302.0, 79.0, 17.0 ],
									"fontsize" : 9.0,
									"numoutlets" : 1,
									"outlettype" : [ "" ],
									"fontname" : "Arial",
									"id" : "obj-11",
									"patcher" : 									{
										"fileversion" : 1,
										"rect" : [ 279.0, 274.0, 959.0, 438.0 ],
										"bglocked" : 0,
										"defrect" : [ 279.0, 274.0, 959.0, 438.0 ],
										"openrect" : [ 0.0, 0.0, 0.0, 0.0 ],
										"openinpresentation" : 0,
										"default_fontsize" : 10.0,
										"default_fontface" : 0,
										"default_fontname" : "Arial",
										"gridonopen" : 0,
										"gridsize" : [ 15.0, 15.0 ],
										"gridsnaponopen" : 0,
										"toolbarvisible" : 1,
										"boxanimatetime" : 200,
										"imprint" : 0,
										"boxes" : [ 											{
												"box" : 												{
													"maxclass" : "message",
													"text" : "script connect toRecorder 0 recorder 0",
													"numinlets" : 2,
													"patching_rect" : [ 25.0, 341.0, 181.0, 16.0 ],
													"fontsize" : 10.0,
													"numoutlets" : 1,
													"outlettype" : [ "" ],
													"fontname" : "Arial",
													"id" : "obj-12"
												}

											}
, 											{
												"box" : 												{
													"maxclass" : "newobj",
													"text" : "append",
													"numinlets" : 1,
													"patching_rect" : [ 39.0, 298.0, 44.0, 18.0 ],
													"fontsize" : 10.0,
													"numoutlets" : 1,
													"outlettype" : [ "" ],
													"fontname" : "Arial",
													"id" : "obj-1"
												}

											}
, 											{
												"box" : 												{
													"maxclass" : "newobj",
													"text" : "prepend set recorder",
													"linecount" : 2,
													"numinlets" : 1,
													"patching_rect" : [ 181.0, 187.0, 69.0, 29.0 ],
													"fontsize" : 10.0,
													"numoutlets" : 1,
													"outlettype" : [ "" ],
													"fontname" : "Arial",
													"id" : "obj-4"
												}

											}
, 											{
												"box" : 												{
													"maxclass" : "newobj",
													"text" : "prepend script connect limiter",
													"numinlets" : 1,
													"patching_rect" : [ 39.0, 187.0, 141.0, 18.0 ],
													"fontsize" : 10.0,
													"numoutlets" : 1,
													"outlettype" : [ "" ],
													"fontname" : "Arial",
													"id" : "obj-6"
												}

											}
, 											{
												"box" : 												{
													"maxclass" : "inlet",
													"numinlets" : 0,
													"patching_rect" : [ 739.0, 49.0, 15.0, 15.0 ],
													"numoutlets" : 1,
													"outlettype" : [ "int" ],
													"id" : "obj-9",
													"comment" : ""
												}

											}
, 											{
												"box" : 												{
													"maxclass" : "inlet",
													"numinlets" : 0,
													"patching_rect" : [ 11.0, 47.0, 19.0, 19.0 ],
													"numoutlets" : 1,
													"outlettype" : [ "int" ],
													"id" : "obj-10",
													"comment" : ""
												}

											}
, 											{
												"box" : 												{
													"maxclass" : "outlet",
													"numinlets" : 1,
													"patching_rect" : [ 184.0, 385.0, 15.0, 15.0 ],
													"numoutlets" : 0,
													"id" : "obj-11",
													"comment" : ""
												}

											}
, 											{
												"box" : 												{
													"maxclass" : "newobj",
													"text" : "sprintf script connect multiout %ld dc-block %ld",
													"numinlets" : 2,
													"patching_rect" : [ 754.0, 227.0, 198.0, 17.0 ],
													"fontsize" : 9.0,
													"numoutlets" : 1,
													"outlettype" : [ "" ],
													"fontname" : "Arial",
													"id" : "obj-30"
												}

											}
, 											{
												"box" : 												{
													"maxclass" : "newobj",
													"text" : "sprintf script connect dc-block %ld dac %ld",
													"numinlets" : 2,
													"patching_rect" : [ 525.0, 229.0, 181.0, 17.0 ],
													"fontsize" : 9.0,
													"numoutlets" : 1,
													"outlettype" : [ "" ],
													"fontname" : "Arial",
													"id" : "obj-20"
												}

											}
, 											{
												"box" : 												{
													"maxclass" : "newobj",
													"text" : "append",
													"numinlets" : 1,
													"patching_rect" : [ 730.0, 297.0, 44.0, 18.0 ],
													"fontsize" : 10.0,
													"numoutlets" : 1,
													"outlettype" : [ "" ],
													"fontname" : "Arial",
													"id" : "obj-23"
												}

											}
, 											{
												"box" : 												{
													"maxclass" : "newobj",
													"text" : "prepend script connect multiout",
													"numinlets" : 1,
													"patching_rect" : [ 730.0, 186.0, 149.0, 18.0 ],
													"fontsize" : 10.0,
													"numoutlets" : 1,
													"outlettype" : [ "" ],
													"fontname" : "Arial",
													"id" : "obj-25"
												}

											}
, 											{
												"box" : 												{
													"maxclass" : "newobj",
													"text" : "append",
													"numinlets" : 1,
													"patching_rect" : [ 498.0, 297.0, 44.0, 18.0 ],
													"fontsize" : 10.0,
													"numoutlets" : 1,
													"outlettype" : [ "" ],
													"fontname" : "Arial",
													"id" : "obj-17"
												}

											}
, 											{
												"box" : 												{
													"maxclass" : "newobj",
													"text" : "prepend set dac",
													"linecount" : 2,
													"numinlets" : 1,
													"patching_rect" : [ 640.0, 186.0, 64.0, 29.0 ],
													"fontsize" : 10.0,
													"numoutlets" : 1,
													"outlettype" : [ "" ],
													"fontname" : "Arial",
													"id" : "obj-18"
												}

											}
, 											{
												"box" : 												{
													"maxclass" : "newobj",
													"text" : "prepend script connect limiter",
													"numinlets" : 1,
													"patching_rect" : [ 498.0, 186.0, 141.0, 18.0 ],
													"fontsize" : 10.0,
													"numoutlets" : 1,
													"outlettype" : [ "" ],
													"fontname" : "Arial",
													"id" : "obj-19"
												}

											}
, 											{
												"box" : 												{
													"maxclass" : "newobj",
													"text" : "append",
													"numinlets" : 1,
													"patching_rect" : [ 272.0, 297.0, 44.0, 18.0 ],
													"fontsize" : 10.0,
													"numoutlets" : 1,
													"outlettype" : [ "" ],
													"fontname" : "Arial",
													"id" : "obj-13"
												}

											}
, 											{
												"box" : 												{
													"maxclass" : "newobj",
													"text" : "prepend set dac",
													"linecount" : 2,
													"numinlets" : 1,
													"patching_rect" : [ 412.0, 186.0, 64.0, 29.0 ],
													"fontsize" : 10.0,
													"numoutlets" : 1,
													"outlettype" : [ "" ],
													"fontname" : "Arial",
													"id" : "obj-14"
												}

											}
, 											{
												"box" : 												{
													"maxclass" : "newobj",
													"text" : "prepend script connect route",
													"numinlets" : 1,
													"patching_rect" : [ 272.0, 186.0, 137.0, 18.0 ],
													"fontsize" : 10.0,
													"numoutlets" : 1,
													"outlettype" : [ "" ],
													"fontname" : "Arial",
													"id" : "obj-15"
												}

											}
, 											{
												"box" : 												{
													"maxclass" : "newobj",
													"text" : "prepend set limiter",
													"linecount" : 2,
													"numinlets" : 1,
													"patching_rect" : [ 883.0, 186.0, 65.0, 29.0 ],
													"fontsize" : 10.0,
													"numoutlets" : 1,
													"outlettype" : [ "" ],
													"fontname" : "Arial",
													"id" : "obj-2"
												}

											}
, 											{
												"box" : 												{
													"maxclass" : "newobj",
													"text" : "+",
													"numinlets" : 2,
													"patching_rect" : [ 730.0, 164.0, 27.0, 17.0 ],
													"fontsize" : 9.0,
													"numoutlets" : 1,
													"outlettype" : [ "int" ],
													"fontname" : "Arial",
													"id" : "obj-3"
												}

											}
, 											{
												"box" : 												{
													"maxclass" : "newobj",
													"text" : "sprintf script connect route %ld dac %ld",
													"numinlets" : 2,
													"patching_rect" : [ 291.0, 225.0, 173.0, 17.0 ],
													"fontsize" : 9.0,
													"numoutlets" : 1,
													"outlettype" : [ "" ],
													"fontname" : "Arial",
													"id" : "obj-5"
												}

											}
, 											{
												"box" : 												{
													"maxclass" : "newobj",
													"text" : "uzi 1 0",
													"numinlets" : 2,
													"patching_rect" : [ 11.0, 126.0, 46.0, 17.0 ],
													"fontsize" : 9.0,
													"numoutlets" : 3,
													"outlettype" : [ "bang", "bang", "int" ],
													"fontname" : "Arial",
													"id" : "obj-8"
												}

											}
 ],
										"lines" : [ 											{
												"patchline" : 												{
													"source" : [ "obj-13", 0 ],
													"destination" : [ "obj-11", 0 ],
													"hidden" : 0,
													"midpoints" : [ 281.5, 372.0, 193.0, 372.0 ]
												}

											}
, 											{
												"patchline" : 												{
													"source" : [ "obj-17", 0 ],
													"destination" : [ "obj-11", 0 ],
													"hidden" : 0,
													"midpoints" : [ 507.5, 372.0, 193.0, 372.0 ]
												}

											}
, 											{
												"patchline" : 												{
													"source" : [ "obj-23", 0 ],
													"destination" : [ "obj-11", 0 ],
													"hidden" : 0,
													"midpoints" : [ 739.5, 372.0, 193.0, 372.0 ]
												}

											}
, 											{
												"patchline" : 												{
													"source" : [ "obj-9", 0 ],
													"destination" : [ "obj-3", 1 ],
													"hidden" : 0,
													"midpoints" : [  ]
												}

											}
, 											{
												"patchline" : 												{
													"source" : [ "obj-2", 0 ],
													"destination" : [ "obj-23", 0 ],
													"hidden" : 0,
													"midpoints" : [ 892.5, 221.0, 739.5, 221.0 ]
												}

											}
, 											{
												"patchline" : 												{
													"source" : [ "obj-14", 0 ],
													"destination" : [ "obj-13", 0 ],
													"hidden" : 0,
													"midpoints" : [ 421.5, 216.0, 281.5, 216.0 ]
												}

											}
, 											{
												"patchline" : 												{
													"source" : [ "obj-18", 0 ],
													"destination" : [ "obj-17", 0 ],
													"hidden" : 0,
													"midpoints" : [ 649.5, 223.0, 507.5, 223.0 ]
												}

											}
, 											{
												"patchline" : 												{
													"source" : [ "obj-3", 0 ],
													"destination" : [ "obj-25", 0 ],
													"hidden" : 0,
													"midpoints" : [  ]
												}

											}
, 											{
												"patchline" : 												{
													"source" : [ "obj-25", 0 ],
													"destination" : [ "obj-23", 0 ],
													"hidden" : 0,
													"midpoints" : [  ]
												}

											}
, 											{
												"patchline" : 												{
													"source" : [ "obj-15", 0 ],
													"destination" : [ "obj-13", 0 ],
													"hidden" : 0,
													"midpoints" : [  ]
												}

											}
, 											{
												"patchline" : 												{
													"source" : [ "obj-19", 0 ],
													"destination" : [ "obj-17", 0 ],
													"hidden" : 0,
													"midpoints" : [  ]
												}

											}
, 											{
												"patchline" : 												{
													"source" : [ "obj-8", 2 ],
													"destination" : [ "obj-19", 0 ],
													"hidden" : 0,
													"midpoints" : [ 47.5, 150.0, 507.5, 150.0 ]
												}

											}
, 											{
												"patchline" : 												{
													"source" : [ "obj-8", 2 ],
													"destination" : [ "obj-15", 0 ],
													"hidden" : 0,
													"midpoints" : [ 47.5, 151.0, 281.5, 151.0 ]
												}

											}
, 											{
												"patchline" : 												{
													"source" : [ "obj-8", 2 ],
													"destination" : [ "obj-3", 0 ],
													"hidden" : 0,
													"midpoints" : [ 47.5, 150.0, 739.5, 150.0 ]
												}

											}
, 											{
												"patchline" : 												{
													"source" : [ "obj-8", 2 ],
													"destination" : [ "obj-18", 0 ],
													"hidden" : 0,
													"midpoints" : [ 47.5, 151.0, 649.5, 151.0 ]
												}

											}
, 											{
												"patchline" : 												{
													"source" : [ "obj-8", 2 ],
													"destination" : [ "obj-2", 0 ],
													"hidden" : 0,
													"midpoints" : [ 47.5, 150.0, 892.5, 150.0 ]
												}

											}
, 											{
												"patchline" : 												{
													"source" : [ "obj-8", 2 ],
													"destination" : [ "obj-14", 0 ],
													"hidden" : 0,
													"midpoints" : [ 47.5, 150.0, 421.5, 150.0 ]
												}

											}
, 											{
												"patchline" : 												{
													"source" : [ "obj-10", 0 ],
													"destination" : [ "obj-8", 0 ],
													"hidden" : 0,
													"midpoints" : [  ]
												}

											}
, 											{
												"patchline" : 												{
													"source" : [ "obj-6", 0 ],
													"destination" : [ "obj-1", 0 ],
													"hidden" : 0,
													"midpoints" : [  ]
												}

											}
, 											{
												"patchline" : 												{
													"source" : [ "obj-8", 2 ],
													"destination" : [ "obj-4", 0 ],
													"hidden" : 0,
													"midpoints" : [ 47.5, 150.0, 190.5, 150.0 ]
												}

											}
, 											{
												"patchline" : 												{
													"source" : [ "obj-4", 0 ],
													"destination" : [ "obj-1", 0 ],
													"hidden" : 0,
													"midpoints" : [ 190.5, 224.0, 48.5, 224.0 ]
												}

											}
, 											{
												"patchline" : 												{
													"source" : [ "obj-8", 2 ],
													"destination" : [ "obj-6", 0 ],
													"hidden" : 0,
													"midpoints" : [  ]
												}

											}
, 											{
												"patchline" : 												{
													"source" : [ "obj-1", 0 ],
													"destination" : [ "obj-11", 0 ],
													"hidden" : 0,
													"midpoints" : [ 48.5, 327.0, 216.0, 327.0, 216.0, 372.0, 193.0, 372.0 ]
												}

											}
, 											{
												"patchline" : 												{
													"source" : [ "obj-8", 1 ],
													"destination" : [ "obj-12", 0 ],
													"hidden" : 0,
													"midpoints" : [  ]
												}

											}
, 											{
												"patchline" : 												{
													"source" : [ "obj-12", 0 ],
													"destination" : [ "obj-11", 0 ],
													"hidden" : 0,
													"midpoints" : [  ]
												}

											}
 ]
									}
,
									"saved_object_attributes" : 									{
										"default_fontsize" : 10.0,
										"fontface" : 0,
										"globalpatchername" : "",
										"fontsize" : 10.0,
										"default_fontface" : 0,
										"fontname" : "Arial",
										"default_fontname" : "Arial"
									}

								}

							}
, 							{
								"box" : 								{
									"maxclass" : "newobj",
									"text" : "t b l",
									"numinlets" : 1,
									"patching_rect" : [ 284.0, 146.0, 27.0, 17.0 ],
									"fontsize" : 9.0,
									"numoutlets" : 2,
									"outlettype" : [ "bang", "" ],
									"fontname" : "Arial",
									"id" : "obj-12"
								}

							}
, 							{
								"box" : 								{
									"maxclass" : "newobj",
									"text" : "p new_dac&recorder",
									"numinlets" : 2,
									"patching_rect" : [ 254.0, 302.0, 94.0, 17.0 ],
									"fontsize" : 9.0,
									"numoutlets" : 1,
									"outlettype" : [ "" ],
									"fontname" : "Arial",
									"id" : "obj-13",
									"patcher" : 									{
										"fileversion" : 1,
										"rect" : [ 401.0, 245.0, 695.0, 271.0 ],
										"bglocked" : 0,
										"defrect" : [ 401.0, 245.0, 695.0, 271.0 ],
										"openrect" : [ 0.0, 0.0, 0.0, 0.0 ],
										"openinpresentation" : 0,
										"default_fontsize" : 10.0,
										"default_fontface" : 0,
										"default_fontname" : "Arial",
										"gridonopen" : 0,
										"gridsize" : [ 15.0, 15.0 ],
										"gridsnaponopen" : 0,
										"toolbarvisible" : 1,
										"boxanimatetime" : 200,
										"imprint" : 0,
										"boxes" : [ 											{
												"box" : 												{
													"maxclass" : "newobj",
													"text" : "* 20160",
													"numinlets" : 2,
													"patching_rect" : [ 491.0, 129.0, 45.0, 18.0 ],
													"fontsize" : 10.0,
													"numoutlets" : 1,
													"outlettype" : [ "int" ],
													"fontname" : "Arial",
													"id" : "obj-19"
												}

											}
, 											{
												"box" : 												{
													"maxclass" : "comment",
													"text" : "buffersize see sfrecord~ helpfile",
													"numinlets" : 1,
													"patching_rect" : [ 514.0, 107.0, 150.0, 18.0 ],
													"fontsize" : 10.0,
													"numoutlets" : 0,
													"fontname" : "Arial",
													"id" : "obj-15",
													"frgb" : [ 0.0, 0.0, 0.0, 1.0 ]
												}

											}
, 											{
												"box" : 												{
													"maxclass" : "newobj",
													"text" : "if $i1 > 4 then out2 $i1 else 20160",
													"numinlets" : 1,
													"patching_rect" : [ 349.0, 107.0, 161.0, 18.0 ],
													"fontsize" : 10.0,
													"numoutlets" : 2,
													"outlettype" : [ "", "" ],
													"fontname" : "Arial",
													"id" : "obj-11"
												}

											}
, 											{
												"box" : 												{
													"maxclass" : "newobj",
													"text" : "t i i",
													"numinlets" : 1,
													"patching_rect" : [ 308.0, 85.0, 59.5, 18.0 ],
													"fontsize" : 10.0,
													"numoutlets" : 2,
													"outlettype" : [ "int", "int" ],
													"fontname" : "Arial",
													"id" : "obj-10"
												}

											}
, 											{
												"box" : 												{
													"maxclass" : "newobj",
													"text" : "pack i i",
													"numinlets" : 2,
													"patching_rect" : [ 309.0, 151.0, 59.0, 18.0 ],
													"fontsize" : 10.0,
													"numoutlets" : 1,
													"outlettype" : [ "" ],
													"fontname" : "Arial",
													"id" : "obj-9"
												}

											}
, 											{
												"box" : 												{
													"maxclass" : "newobj",
													"text" : "prepend script new recorder newex 100 357 320 196617 sfrecord~",
													"numinlets" : 1,
													"patching_rect" : [ 309.0, 187.0, 306.0, 18.0 ],
													"fontsize" : 10.0,
													"numoutlets" : 1,
													"outlettype" : [ "" ],
													"fontname" : "Arial",
													"id" : "obj-13"
												}

											}
, 											{
												"box" : 												{
													"maxclass" : "inlet",
													"numinlets" : 0,
													"patching_rect" : [ 269.0, 29.0, 15.0, 15.0 ],
													"numoutlets" : 1,
													"outlettype" : [ "" ],
													"id" : "obj-1",
													"comment" : ""
												}

											}
, 											{
												"box" : 												{
													"maxclass" : "newobj",
													"text" : "zl reg 1 2 3 4 5 6 7 8 9 10 11 12 13 14 15 16 17 18 19 20 21 22 23 24 25 26 27 28 29 30 31 32",
													"linecount" : 2,
													"numinlets" : 2,
													"patching_rect" : [ 50.0, 88.0, 238.0, 27.0 ],
													"fontsize" : 9.0,
													"numoutlets" : 2,
													"outlettype" : [ "", "" ],
													"fontname" : "Arial",
													"id" : "obj-2"
												}

											}
, 											{
												"box" : 												{
													"maxclass" : "newobj",
													"text" : "prepend script new dac newex 449 357 320 196617 dac~",
													"numinlets" : 1,
													"patching_rect" : [ 50.0, 187.0, 243.0, 17.0 ],
													"fontsize" : 9.0,
													"numoutlets" : 1,
													"outlettype" : [ "" ],
													"fontname" : "Arial",
													"id" : "obj-3"
												}

											}
, 											{
												"box" : 												{
													"maxclass" : "newobj",
													"text" : "zl slice",
													"numinlets" : 2,
													"patching_rect" : [ 50.0, 162.0, 254.0, 17.0 ],
													"fontsize" : 9.0,
													"numoutlets" : 2,
													"outlettype" : [ "", "" ],
													"fontname" : "Arial",
													"id" : "obj-4"
												}

											}
, 											{
												"box" : 												{
													"maxclass" : "newobj",
													"text" : "t b i",
													"numinlets" : 1,
													"patching_rect" : [ 50.0, 60.0, 254.0, 17.0 ],
													"fontsize" : 9.0,
													"numoutlets" : 2,
													"outlettype" : [ "bang", "int" ],
													"fontname" : "Arial",
													"id" : "obj-5"
												}

											}
, 											{
												"box" : 												{
													"maxclass" : "inlet",
													"numinlets" : 0,
													"patching_rect" : [ 50.0, 30.0, 15.0, 15.0 ],
													"numoutlets" : 1,
													"outlettype" : [ "int" ],
													"id" : "obj-6",
													"comment" : ""
												}

											}
, 											{
												"box" : 												{
													"maxclass" : "outlet",
													"numinlets" : 1,
													"patching_rect" : [ 50.0, 254.0, 15.0, 15.0 ],
													"numoutlets" : 0,
													"id" : "obj-7",
													"comment" : ""
												}

											}
 ],
										"lines" : [ 											{
												"patchline" : 												{
													"source" : [ "obj-19", 0 ],
													"destination" : [ "obj-9", 1 ],
													"hidden" : 0,
													"midpoints" : [  ]
												}

											}
, 											{
												"patchline" : 												{
													"source" : [ "obj-9", 0 ],
													"destination" : [ "obj-13", 0 ],
													"hidden" : 0,
													"midpoints" : [  ]
												}

											}
, 											{
												"patchline" : 												{
													"source" : [ "obj-10", 0 ],
													"destination" : [ "obj-9", 0 ],
													"hidden" : 0,
													"midpoints" : [  ]
												}

											}
, 											{
												"patchline" : 												{
													"source" : [ "obj-5", 1 ],
													"destination" : [ "obj-10", 0 ],
													"hidden" : 0,
													"midpoints" : [  ]
												}

											}
, 											{
												"patchline" : 												{
													"source" : [ "obj-5", 1 ],
													"destination" : [ "obj-4", 1 ],
													"hidden" : 0,
													"midpoints" : [  ]
												}

											}
, 											{
												"patchline" : 												{
													"source" : [ "obj-1", 0 ],
													"destination" : [ "obj-2", 1 ],
													"hidden" : 0,
													"midpoints" : [  ]
												}

											}
, 											{
												"patchline" : 												{
													"source" : [ "obj-3", 0 ],
													"destination" : [ "obj-7", 0 ],
													"hidden" : 0,
													"midpoints" : [  ]
												}

											}
, 											{
												"patchline" : 												{
													"source" : [ "obj-4", 0 ],
													"destination" : [ "obj-3", 0 ],
													"hidden" : 0,
													"midpoints" : [  ]
												}

											}
, 											{
												"patchline" : 												{
													"source" : [ "obj-2", 0 ],
													"destination" : [ "obj-4", 0 ],
													"hidden" : 0,
													"midpoints" : [  ]
												}

											}
, 											{
												"patchline" : 												{
													"source" : [ "obj-5", 0 ],
													"destination" : [ "obj-2", 0 ],
													"hidden" : 0,
													"midpoints" : [  ]
												}

											}
, 											{
												"patchline" : 												{
													"source" : [ "obj-6", 0 ],
													"destination" : [ "obj-5", 0 ],
													"hidden" : 0,
													"midpoints" : [  ]
												}

											}
, 											{
												"patchline" : 												{
													"source" : [ "obj-13", 0 ],
													"destination" : [ "obj-7", 0 ],
													"hidden" : 0,
													"midpoints" : [  ]
												}

											}
, 											{
												"patchline" : 												{
													"source" : [ "obj-10", 1 ],
													"destination" : [ "obj-11", 0 ],
													"hidden" : 0,
													"midpoints" : [  ]
												}

											}
, 											{
												"patchline" : 												{
													"source" : [ "obj-11", 0 ],
													"destination" : [ "obj-9", 1 ],
													"hidden" : 0,
													"midpoints" : [  ]
												}

											}
, 											{
												"patchline" : 												{
													"source" : [ "obj-11", 1 ],
													"destination" : [ "obj-19", 0 ],
													"hidden" : 0,
													"midpoints" : [  ]
												}

											}
 ]
									}
,
									"saved_object_attributes" : 									{
										"default_fontsize" : 10.0,
										"fontface" : 0,
										"globalpatchername" : "",
										"fontsize" : 10.0,
										"default_fontface" : 0,
										"fontname" : "Arial",
										"default_fontname" : "Arial"
									}

								}

							}
, 							{
								"box" : 								{
									"maxclass" : "newobj",
									"text" : "p delete_dac&recorder",
									"numinlets" : 1,
									"patching_rect" : [ 364.0, 301.0, 102.0, 17.0 ],
									"fontsize" : 9.0,
									"numoutlets" : 1,
									"outlettype" : [ "" ],
									"fontname" : "Arial",
									"id" : "obj-14",
									"patcher" : 									{
										"fileversion" : 1,
										"rect" : [ 362.0, 167.0, 516.0, 265.0 ],
										"bglocked" : 0,
										"defrect" : [ 362.0, 167.0, 516.0, 265.0 ],
										"openrect" : [ 0.0, 0.0, 0.0, 0.0 ],
										"openinpresentation" : 0,
										"default_fontsize" : 10.0,
										"default_fontface" : 0,
										"default_fontname" : "Arial",
										"gridonopen" : 0,
										"gridsize" : [ 15.0, 15.0 ],
										"gridsnaponopen" : 0,
										"toolbarvisible" : 1,
										"boxanimatetime" : 200,
										"imprint" : 0,
										"boxes" : [ 											{
												"box" : 												{
													"maxclass" : "message",
													"text" : "script delete dac, script delete recorder",
													"numinlets" : 2,
													"patching_rect" : [ 50.0, 80.0, 183.0, 16.0 ],
													"fontsize" : 10.0,
													"numoutlets" : 1,
													"outlettype" : [ "" ],
													"fontname" : "Arial",
													"id" : "obj-8"
												}

											}
, 											{
												"box" : 												{
													"maxclass" : "newobj",
													"text" : "sprintf script delete dac",
													"numinlets" : 1,
													"patching_rect" : [ 203.0, 55.0, 119.0, 17.0 ],
													"fontsize" : 9.0,
													"numoutlets" : 1,
													"outlettype" : [ "" ],
													"fontname" : "Arial",
													"id" : "obj-2"
												}

											}
, 											{
												"box" : 												{
													"maxclass" : "inlet",
													"numinlets" : 0,
													"patching_rect" : [ 50.0, 30.0, 15.0, 15.0 ],
													"numoutlets" : 1,
													"outlettype" : [ "bang" ],
													"id" : "obj-3",
													"comment" : ""
												}

											}
, 											{
												"box" : 												{
													"maxclass" : "outlet",
													"numinlets" : 1,
													"patching_rect" : [ 50.0, 108.0, 15.0, 15.0 ],
													"numoutlets" : 0,
													"id" : "obj-4",
													"comment" : ""
												}

											}
 ],
										"lines" : [ 											{
												"patchline" : 												{
													"source" : [ "obj-8", 0 ],
													"destination" : [ "obj-4", 0 ],
													"hidden" : 0,
													"midpoints" : [  ]
												}

											}
, 											{
												"patchline" : 												{
													"source" : [ "obj-3", 0 ],
													"destination" : [ "obj-8", 0 ],
													"hidden" : 0,
													"midpoints" : [  ]
												}

											}
 ]
									}
,
									"saved_object_attributes" : 									{
										"default_fontsize" : 10.0,
										"fontface" : 0,
										"globalpatchername" : "",
										"fontsize" : 10.0,
										"default_fontface" : 0,
										"fontname" : "Arial",
										"default_fontname" : "Arial"
									}

								}

							}
, 							{
								"box" : 								{
									"maxclass" : "newobj",
									"text" : "loadbang",
									"numinlets" : 1,
									"patching_rect" : [ 49.0, 103.0, 48.0, 17.0 ],
									"fontsize" : 9.0,
									"numoutlets" : 1,
									"outlettype" : [ "bang" ],
									"fontname" : "Arial",
									"id" : "obj-16"
								}

							}
, 							{
								"box" : 								{
									"maxclass" : "newobj",
									"text" : "== 0",
									"numinlets" : 2,
									"patching_rect" : [ 83.0, 178.0, 31.0, 17.0 ],
									"fontsize" : 9.0,
									"numoutlets" : 1,
									"outlettype" : [ "int" ],
									"fontname" : "Arial",
									"id" : "obj-17"
								}

							}
, 							{
								"box" : 								{
									"maxclass" : "newobj",
									"text" : "i 8",
									"numinlets" : 2,
									"patching_rect" : [ 185.0, 209.0, 27.0, 17.0 ],
									"fontsize" : 9.0,
									"numoutlets" : 1,
									"outlettype" : [ "int" ],
									"fontname" : "Arial",
									"id" : "obj-18"
								}

							}
, 							{
								"box" : 								{
									"maxclass" : "newobj",
									"text" : "gate",
									"numinlets" : 2,
									"patching_rect" : [ 166.0, 230.0, 38.0, 17.0 ],
									"fontsize" : 9.0,
									"numoutlets" : 1,
									"outlettype" : [ "" ],
									"fontname" : "Arial",
									"id" : "obj-19"
								}

							}
, 							{
								"box" : 								{
									"maxclass" : "newobj",
									"text" : "sel 0",
									"numinlets" : 2,
									"patching_rect" : [ 49.0, 178.0, 32.0, 17.0 ],
									"fontsize" : 9.0,
									"numoutlets" : 2,
									"outlettype" : [ "bang", "" ],
									"fontname" : "Arial",
									"id" : "obj-20"
								}

							}
, 							{
								"box" : 								{
									"maxclass" : "newobj",
									"text" : "dspstate~",
									"numinlets" : 1,
									"patching_rect" : [ 49.0, 131.0, 54.0, 17.0 ],
									"fontsize" : 9.0,
									"numoutlets" : 4,
									"outlettype" : [ "int", "float", "int", "int" ],
									"fontname" : "Arial",
									"id" : "obj-21"
								}

							}
, 							{
								"box" : 								{
									"maxclass" : "outlet",
									"numinlets" : 1,
									"patching_rect" : [ 167.0, 395.0, 15.0, 15.0 ],
									"numoutlets" : 0,
									"id" : "obj-22",
									"comment" : ""
								}

							}
, 							{
								"box" : 								{
									"maxclass" : "inlet",
									"numinlets" : 0,
									"patching_rect" : [ 185.0, 93.0, 15.0, 15.0 ],
									"numoutlets" : 1,
									"outlettype" : [ "" ],
									"id" : "obj-23",
									"comment" : ""
								}

							}
, 							{
								"box" : 								{
									"maxclass" : "comment",
									"text" : "/offset",
									"numinlets" : 1,
									"patching_rect" : [ 215.0, 68.0, 43.0, 17.0 ],
									"fontsize" : 9.0,
									"numoutlets" : 0,
									"fontname" : "Arial",
									"id" : "obj-24",
									"frgb" : [ 0.0, 0.0, 0.0, 1.0 ]
								}

							}
, 							{
								"box" : 								{
									"maxclass" : "comment",
									"text" : "The gate prevents scripting while audio is running.",
									"linecount" : 2,
									"numinlets" : 1,
									"patching_rect" : [ 461.0, 106.0, 168.0, 27.0 ],
									"fontsize" : 9.0,
									"numoutlets" : 0,
									"fontname" : "Arial",
									"id" : "obj-25",
									"frgb" : [ 0.0, 0.0, 0.0, 1.0 ]
								}

							}
 ],
						"lines" : [ 							{
								"patchline" : 								{
									"source" : [ "obj-19", 0 ],
									"destination" : [ "obj-1", 0 ],
									"hidden" : 0,
									"midpoints" : [ 175.5, 258.0, 118.0, 258.0 ]
								}

							}
, 							{
								"patchline" : 								{
									"source" : [ "obj-20", 0 ],
									"destination" : [ "obj-18", 0 ],
									"hidden" : 0,
									"midpoints" : [ 58.5, 204.0, 180.0, 204.0, 180.0, 204.0, 194.5, 204.0 ]
								}

							}
, 							{
								"patchline" : 								{
									"source" : [ "obj-23", 0 ],
									"destination" : [ "obj-18", 0 ],
									"hidden" : 0,
									"midpoints" : [  ]
								}

							}
, 							{
								"patchline" : 								{
									"source" : [ "obj-10", 0 ],
									"destination" : [ "obj-12", 0 ],
									"hidden" : 0,
									"midpoints" : [  ]
								}

							}
, 							{
								"patchline" : 								{
									"source" : [ "obj-12", 1 ],
									"destination" : [ "obj-13", 1 ],
									"hidden" : 0,
									"midpoints" : [  ]
								}

							}
, 							{
								"patchline" : 								{
									"source" : [ "obj-9", 0 ],
									"destination" : [ "obj-6", 0 ],
									"hidden" : 0,
									"midpoints" : [  ]
								}

							}
, 							{
								"patchline" : 								{
									"source" : [ "obj-6", 1 ],
									"destination" : [ "obj-11", 1 ],
									"hidden" : 0,
									"midpoints" : [  ]
								}

							}
, 							{
								"patchline" : 								{
									"source" : [ "obj-18", 0 ],
									"destination" : [ "obj-19", 1 ],
									"hidden" : 0,
									"midpoints" : [  ]
								}

							}
, 							{
								"patchline" : 								{
									"source" : [ "obj-12", 0 ],
									"destination" : [ "obj-18", 0 ],
									"hidden" : 0,
									"midpoints" : [ 293.5, 195.0, 194.5, 195.0 ]
								}

							}
, 							{
								"patchline" : 								{
									"source" : [ "obj-6", 0 ],
									"destination" : [ "obj-18", 0 ],
									"hidden" : 0,
									"midpoints" : [ 227.5, 191.0, 194.5, 191.0 ]
								}

							}
, 							{
								"patchline" : 								{
									"source" : [ "obj-11", 0 ],
									"destination" : [ "obj-22", 0 ],
									"hidden" : 0,
									"midpoints" : [  ]
								}

							}
, 							{
								"patchline" : 								{
									"source" : [ "obj-13", 0 ],
									"destination" : [ "obj-22", 0 ],
									"hidden" : 0,
									"midpoints" : [  ]
								}

							}
, 							{
								"patchline" : 								{
									"source" : [ "obj-14", 0 ],
									"destination" : [ "obj-22", 0 ],
									"hidden" : 0,
									"midpoints" : [  ]
								}

							}
, 							{
								"patchline" : 								{
									"source" : [ "obj-17", 0 ],
									"destination" : [ "obj-19", 0 ],
									"hidden" : 0,
									"midpoints" : [ 92.5, 227.0, 175.5, 227.0 ]
								}

							}
, 							{
								"patchline" : 								{
									"source" : [ "obj-16", 0 ],
									"destination" : [ "obj-21", 0 ],
									"hidden" : 0,
									"midpoints" : [  ]
								}

							}
, 							{
								"patchline" : 								{
									"source" : [ "obj-4", 0 ],
									"destination" : [ "obj-22", 0 ],
									"hidden" : 0,
									"midpoints" : [  ]
								}

							}
, 							{
								"patchline" : 								{
									"source" : [ "obj-6", 1 ],
									"destination" : [ "obj-4", 1 ],
									"hidden" : 0,
									"midpoints" : [ 235.5, 258.0, 550.5, 258.0 ]
								}

							}
, 							{
								"patchline" : 								{
									"source" : [ "obj-21", 0 ],
									"destination" : [ "obj-17", 0 ],
									"hidden" : 0,
									"midpoints" : [  ]
								}

							}
, 							{
								"patchline" : 								{
									"source" : [ "obj-21", 0 ],
									"destination" : [ "obj-20", 0 ],
									"hidden" : 0,
									"midpoints" : [  ]
								}

							}
, 							{
								"patchline" : 								{
									"source" : [ "obj-27", 3 ],
									"destination" : [ "obj-4", 0 ],
									"hidden" : 0,
									"midpoints" : [  ]
								}

							}
, 							{
								"patchline" : 								{
									"source" : [ "obj-27", 2 ],
									"destination" : [ "obj-14", 0 ],
									"hidden" : 0,
									"midpoints" : [  ]
								}

							}
, 							{
								"patchline" : 								{
									"source" : [ "obj-27", 1 ],
									"destination" : [ "obj-13", 0 ],
									"hidden" : 0,
									"midpoints" : [  ]
								}

							}
, 							{
								"patchline" : 								{
									"source" : [ "obj-27", 0 ],
									"destination" : [ "obj-11", 0 ],
									"hidden" : 0,
									"midpoints" : [  ]
								}

							}
, 							{
								"patchline" : 								{
									"source" : [ "obj-19", 0 ],
									"destination" : [ "obj-27", 0 ],
									"hidden" : 0,
									"midpoints" : [  ]
								}

							}
 ]
					}
,
					"saved_object_attributes" : 					{
						"default_fontsize" : 10.0,
						"fontface" : 0,
						"globalpatchername" : "",
						"fontsize" : 10.0,
						"default_fontface" : 0,
						"fontname" : "Arial",
						"default_fontname" : "Arial"
					}

				}

			}
, 			{
				"box" : 				{
					"maxclass" : "newobj",
					"text" : "jcom.oscroute /voices /offset /setup /record /limiter",
					"numinlets" : 1,
					"patching_rect" : [ 6.0, 46.0, 350.0, 17.0 ],
					"fontsize" : 9.0,
					"numoutlets" : 6,
					"outlettype" : [ "", "", "", "", "", "" ],
					"fontname" : "Arial",
					"id" : "obj-3"
				}

			}
, 			{
				"box" : 				{
					"maxclass" : "newobj",
					"varname" : "multiout",
					"text" : "jcom.multi.out~",
					"numinlets" : 2,
					"patching_rect" : [ 389.0, 47.0, 417.0, 17.0 ],
					"fontsize" : 9.0,
					"numoutlets" : 32,
					"outlettype" : [ "", "", "", "", "", "", "", "", "", "", "", "", "", "", "", "", "", "", "", "", "", "", "", "", "", "", "", "", "", "", "", "" ],
					"fontname" : "Arial",
					"id" : "obj-4"
				}

			}
, 			{
				"box" : 				{
					"maxclass" : "inlet",
					"numinlets" : 0,
					"patching_rect" : [ 389.0, 26.0, 15.0, 15.0 ],
					"numoutlets" : 1,
					"outlettype" : [ "" ],
					"id" : "obj-5",
					"comment" : ""
				}

			}
, 			{
				"box" : 				{
					"maxclass" : "inlet",
					"numinlets" : 0,
					"patching_rect" : [ 6.0, 26.0, 15.0, 15.0 ],
					"numoutlets" : 1,
					"outlettype" : [ "" ],
					"id" : "obj-6",
					"comment" : ""
				}

			}
, 			{
				"box" : 				{
					"maxclass" : "newobj",
					"text" : "zl slice",
					"numinlets" : 2,
					"patching_rect" : [ 122.0, 152.0, 63.0, 17.0 ],
					"fontsize" : 9.0,
					"numoutlets" : 2,
					"outlettype" : [ "", "" ],
					"fontname" : "Arial",
					"id" : "obj-7"
				}

			}
, 			{
				"box" : 				{
					"maxclass" : "newobj",
					"text" : "zl reg",
					"numinlets" : 2,
					"patching_rect" : [ 122.0, 130.0, 36.0, 17.0 ],
					"fontsize" : 9.0,
					"numoutlets" : 2,
					"outlettype" : [ "", "" ],
					"fontname" : "Arial",
					"id" : "obj-8"
				}

			}
, 			{
				"box" : 				{
					"maxclass" : "message",
					"text" : "$1 set $2",
					"numinlets" : 2,
					"patching_rect" : [ 122.0, 196.0, 54.0, 15.0 ],
					"fontsize" : 9.0,
					"numoutlets" : 1,
					"outlettype" : [ "" ],
					"fontname" : "Arial",
					"id" : "obj-9"
				}

			}
, 			{
				"box" : 				{
					"maxclass" : "newobj",
					"varname" : "route",
					"text" : "route 0 1 2 3 4 5 6 7 8 9 10 11 12 13 14 15 16 17 18 19 20 21 22 23 24 25 26 27 28 29 30 31",
					"numinlets" : 1,
					"patching_rect" : [ 120.0, 219.0, 584.0, 17.0 ],
					"fontsize" : 9.0,
					"numoutlets" : 33,
					"outlettype" : [ "", "", "", "", "", "", "", "", "", "", "", "", "", "", "", "", "", "", "", "", "", "", "", "", "", "", "", "", "", "", "", "", "" ],
					"fontname" : "Arial",
					"id" : "obj-10"
				}

			}
, 			{
				"box" : 				{
					"maxclass" : "newobj",
					"text" : "listfunnel",
					"numinlets" : 1,
					"patching_rect" : [ 122.0, 174.0, 52.0, 17.0 ],
					"fontsize" : 9.0,
					"numoutlets" : 1,
					"outlettype" : [ "list" ],
					"fontname" : "Arial",
					"id" : "obj-11"
				}

			}
, 			{
				"box" : 				{
					"maxclass" : "newobj",
					"varname" : "limiter",
					"text" : "tt.limiter~ 32",
					"numinlets" : 32,
					"patching_rect" : [ 392.0, 168.0, 451.0, 19.0 ],
					"fontsize" : 9.0,
					"numoutlets" : 33,
					"outlettype" : [ "signal", "signal", "signal", "signal", "signal", "signal", "signal", "signal", "signal", "signal", "signal", "signal", "signal", "signal", "signal", "signal", "signal", "signal", "signal", "signal", "signal", "signal", "signal", "signal", "signal", "signal", "signal", "signal", "signal", "signal", "signal", "signal", "" ],
					"fontname" : "Geneva",
					"id" : "obj-21"
				}

			}
, 			{
				"box" : 				{
					"maxclass" : "newobj",
					"varname" : "recorder",
					"text" : "sfrecord~ 8 161280",
					"numinlets" : 8,
					"patching_rect" : [ 100.0, 357.0, 320.0, 19.0 ],
					"fontsize" : 9.0,
					"numoutlets" : 1,
					"outlettype" : [ "signal" ],
					"fontname" : "Geneva",
					"id" : "obj-12"
				}

			}
, 			{
				"box" : 				{
					"maxclass" : "newobj",
					"varname" : "dac",
					"text" : "dac~ 1 2 3 4 5 6 7 8",
					"numinlets" : 8,
					"patching_rect" : [ 449.0, 357.0, 320.0, 19.0 ],
					"fontsize" : 9.0,
					"numoutlets" : 0,
					"fontname" : "Geneva",
					"id" : "obj-13"
				}

			}
 ],
		"lines" : [ 			{
				"patchline" : 				{
					"source" : [ "obj-2", 0 ],
					"destination" : [ "obj-18", 0 ],
					"hidden" : 0,
					"midpoints" : [  ]
				}

			}
, 			{
				"patchline" : 				{
					"source" : [ "obj-18", 0 ],
					"destination" : [ "obj-12", 0 ],
					"hidden" : 0,
					"midpoints" : [  ]
				}

			}
, 			{
				"patchline" : 				{
					"source" : [ "obj-21", 7 ],
					"destination" : [ "obj-12", 7 ],
					"hidden" : 0,
					"midpoints" : [  ]
				}

			}
, 			{
				"patchline" : 				{
					"source" : [ "obj-10", 7 ],
					"destination" : [ "obj-13", 7 ],
					"hidden" : 0,
					"midpoints" : [  ]
				}

			}
, 			{
				"patchline" : 				{
					"source" : [ "obj-21", 7 ],
					"destination" : [ "obj-13", 7 ],
					"hidden" : 0,
					"midpoints" : [  ]
				}

			}
, 			{
				"patchline" : 				{
					"source" : [ "obj-4", 7 ],
					"destination" : [ "obj-21", 7 ],
					"hidden" : 0,
					"midpoints" : [  ]
				}

			}
, 			{
				"patchline" : 				{
					"source" : [ "obj-21", 6 ],
					"destination" : [ "obj-12", 6 ],
					"hidden" : 0,
					"midpoints" : [  ]
				}

			}
, 			{
				"patchline" : 				{
					"source" : [ "obj-10", 6 ],
					"destination" : [ "obj-13", 6 ],
					"hidden" : 0,
					"midpoints" : [  ]
				}

			}
, 			{
				"patchline" : 				{
					"source" : [ "obj-21", 6 ],
					"destination" : [ "obj-13", 6 ],
					"hidden" : 0,
					"midpoints" : [  ]
				}

			}
, 			{
				"patchline" : 				{
					"source" : [ "obj-4", 6 ],
					"destination" : [ "obj-21", 6 ],
					"hidden" : 0,
					"midpoints" : [  ]
				}

			}
, 			{
				"patchline" : 				{
					"source" : [ "obj-21", 5 ],
					"destination" : [ "obj-12", 5 ],
					"hidden" : 0,
					"midpoints" : [  ]
				}

			}
, 			{
				"patchline" : 				{
					"source" : [ "obj-10", 5 ],
					"destination" : [ "obj-13", 5 ],
					"hidden" : 0,
					"midpoints" : [  ]
				}

			}
, 			{
				"patchline" : 				{
					"source" : [ "obj-21", 5 ],
					"destination" : [ "obj-13", 5 ],
					"hidden" : 0,
					"midpoints" : [  ]
				}

			}
, 			{
				"patchline" : 				{
					"source" : [ "obj-4", 5 ],
					"destination" : [ "obj-21", 5 ],
					"hidden" : 0,
					"midpoints" : [  ]
				}

			}
, 			{
				"patchline" : 				{
					"source" : [ "obj-21", 4 ],
					"destination" : [ "obj-12", 4 ],
					"hidden" : 0,
					"midpoints" : [  ]
				}

			}
, 			{
				"patchline" : 				{
					"source" : [ "obj-10", 4 ],
					"destination" : [ "obj-13", 4 ],
					"hidden" : 0,
					"midpoints" : [  ]
				}

			}
, 			{
				"patchline" : 				{
					"source" : [ "obj-21", 4 ],
					"destination" : [ "obj-13", 4 ],
					"hidden" : 0,
					"midpoints" : [  ]
				}

			}
, 			{
				"patchline" : 				{
					"source" : [ "obj-4", 4 ],
					"destination" : [ "obj-21", 4 ],
					"hidden" : 0,
					"midpoints" : [  ]
				}

			}
, 			{
				"patchline" : 				{
					"source" : [ "obj-21", 3 ],
					"destination" : [ "obj-12", 3 ],
					"hidden" : 0,
					"midpoints" : [  ]
				}

			}
, 			{
				"patchline" : 				{
					"source" : [ "obj-10", 3 ],
					"destination" : [ "obj-13", 3 ],
					"hidden" : 0,
					"midpoints" : [  ]
				}

			}
, 			{
				"patchline" : 				{
					"source" : [ "obj-21", 3 ],
					"destination" : [ "obj-13", 3 ],
					"hidden" : 0,
					"midpoints" : [  ]
				}

			}
, 			{
				"patchline" : 				{
					"source" : [ "obj-4", 3 ],
					"destination" : [ "obj-21", 3 ],
					"hidden" : 0,
					"midpoints" : [  ]
				}

			}
, 			{
				"patchline" : 				{
					"source" : [ "obj-21", 2 ],
					"destination" : [ "obj-12", 2 ],
					"hidden" : 0,
					"midpoints" : [  ]
				}

			}
, 			{
				"patchline" : 				{
					"source" : [ "obj-10", 2 ],
					"destination" : [ "obj-13", 2 ],
					"hidden" : 0,
					"midpoints" : [  ]
				}

			}
, 			{
				"patchline" : 				{
					"source" : [ "obj-21", 2 ],
					"destination" : [ "obj-13", 2 ],
					"hidden" : 0,
					"midpoints" : [  ]
				}

			}
, 			{
				"patchline" : 				{
					"source" : [ "obj-4", 2 ],
					"destination" : [ "obj-21", 2 ],
					"hidden" : 0,
					"midpoints" : [  ]
				}

			}
, 			{
				"patchline" : 				{
					"source" : [ "obj-21", 1 ],
					"destination" : [ "obj-12", 1 ],
					"hidden" : 0,
					"midpoints" : [  ]
				}

			}
, 			{
				"patchline" : 				{
					"source" : [ "obj-10", 1 ],
					"destination" : [ "obj-13", 1 ],
					"hidden" : 0,
					"midpoints" : [  ]
				}

			}
, 			{
				"patchline" : 				{
					"source" : [ "obj-21", 1 ],
					"destination" : [ "obj-13", 1 ],
					"hidden" : 0,
					"midpoints" : [  ]
				}

			}
, 			{
				"patchline" : 				{
					"source" : [ "obj-4", 1 ],
					"destination" : [ "obj-21", 1 ],
					"hidden" : 0,
					"midpoints" : [  ]
				}

			}
, 			{
				"patchline" : 				{
					"source" : [ "obj-21", 0 ],
					"destination" : [ "obj-12", 0 ],
					"hidden" : 0,
					"midpoints" : [  ]
				}

			}
, 			{
				"patchline" : 				{
					"source" : [ "obj-10", 0 ],
					"destination" : [ "obj-13", 0 ],
					"hidden" : 0,
					"midpoints" : [  ]
				}

			}
, 			{
				"patchline" : 				{
					"source" : [ "obj-21", 0 ],
					"destination" : [ "obj-13", 0 ],
					"hidden" : 0,
					"midpoints" : [  ]
				}

			}
, 			{
				"patchline" : 				{
					"source" : [ "obj-4", 0 ],
					"destination" : [ "obj-21", 0 ],
					"hidden" : 0,
					"midpoints" : [  ]
				}

			}
, 			{
				"patchline" : 				{
					"source" : [ "obj-15", 0 ],
					"destination" : [ "obj-2", 2 ],
					"hidden" : 0,
					"midpoints" : [  ]
				}

			}
, 			{
				"patchline" : 				{
					"source" : [ "obj-15", 0 ],
					"destination" : [ "obj-8", 0 ],
					"hidden" : 0,
					"midpoints" : [  ]
				}

			}
, 			{
				"patchline" : 				{
					"source" : [ "obj-81", 0 ],
					"destination" : [ "obj-2", 1 ],
					"hidden" : 0,
					"midpoints" : [  ]
				}

			}
, 			{
				"patchline" : 				{
					"source" : [ "obj-79", 0 ],
					"destination" : [ "obj-2", 0 ],
					"hidden" : 0,
					"midpoints" : [  ]
				}

			}
, 			{
				"patchline" : 				{
					"source" : [ "obj-79", 0 ],
					"destination" : [ "obj-8", 1 ],
					"hidden" : 0,
					"midpoints" : [  ]
				}

			}
, 			{
				"patchline" : 				{
					"source" : [ "obj-5", 0 ],
					"destination" : [ "obj-4", 0 ],
					"hidden" : 0,
					"midpoints" : [  ]
				}

			}
, 			{
				"patchline" : 				{
					"source" : [ "obj-9", 0 ],
					"destination" : [ "obj-10", 0 ],
					"hidden" : 0,
					"midpoints" : [  ]
				}

			}
, 			{
				"patchline" : 				{
					"source" : [ "obj-11", 0 ],
					"destination" : [ "obj-9", 0 ],
					"hidden" : 0,
					"midpoints" : [  ]
				}

			}
, 			{
				"patchline" : 				{
					"source" : [ "obj-7", 0 ],
					"destination" : [ "obj-11", 0 ],
					"hidden" : 0,
					"midpoints" : [  ]
				}

			}
, 			{
				"patchline" : 				{
					"source" : [ "obj-8", 0 ],
					"destination" : [ "obj-7", 0 ],
					"hidden" : 0,
					"midpoints" : [  ]
				}

			}
, 			{
				"patchline" : 				{
					"source" : [ "obj-2", 1 ],
					"destination" : [ "obj-1", 0 ],
					"hidden" : 0,
					"midpoints" : [  ]
				}

			}
, 			{
				"patchline" : 				{
					"source" : [ "obj-6", 0 ],
					"destination" : [ "obj-3", 0 ],
					"hidden" : 0,
					"midpoints" : [  ]
				}

			}
, 			{
				"patchline" : 				{
					"source" : [ "obj-3", 0 ],
					"destination" : [ "obj-79", 0 ],
					"hidden" : 0,
					"midpoints" : [  ]
				}

			}
, 			{
				"patchline" : 				{
					"source" : [ "obj-3", 1 ],
					"destination" : [ "obj-81", 0 ],
					"hidden" : 0,
					"midpoints" : [  ]
				}

			}
, 			{
				"patchline" : 				{
					"source" : [ "obj-3", 2 ],
					"destination" : [ "obj-15", 0 ],
					"hidden" : 0,
					"midpoints" : [  ]
				}

			}
, 			{
				"patchline" : 				{
					"source" : [ "obj-3", 3 ],
					"destination" : [ "obj-18", 1 ],
					"hidden" : 0,
					"midpoints" : [  ]
				}

			}
, 			{
				"patchline" : 				{
					"source" : [ "obj-3", 4 ],
					"destination" : [ "obj-24", 0 ],
					"hidden" : 0,
					"midpoints" : [  ]
				}

			}
, 			{
				"patchline" : 				{
					"source" : [ "obj-24", 0 ],
					"destination" : [ "obj-21", 0 ],
					"hidden" : 0,
					"midpoints" : [  ]
				}

			}
 ]
	}

}
