{
	"patcher" : 	{
		"fileversion" : 1,
		"rect" : [ 206.0, 44.0, 1074.0, 677.0 ],
		"bglocked" : 0,
		"defrect" : [ 206.0, 44.0, 1074.0, 677.0 ],
		"openrect" : [ 0.0, 0.0, 0.0, 0.0 ],
		"openinpresentation" : 1,
		"default_fontsize" : 10.0,
		"default_fontface" : 0,
		"default_fontname" : "Arial",
		"gridonopen" : 0,
		"gridsize" : [ 15.0, 15.0 ],
		"gridsnaponopen" : 0,
		"toolbarvisible" : 1,
		"boxanimatetime" : 200,
		"imprint" : 0,
		"metadata" : [  ],
		"boxes" : [ 			{
				"box" : 				{
					"maxclass" : "newobj",
					"text" : "route /mute",
					"fontsize" : 9.0,
					"hidden" : 1,
					"numinlets" : 1,
					"id" : "obj-20",
					"fontname" : "Arial",
					"numoutlets" : 2,
					"outlettype" : [ "", "" ],
					"patching_rect" : [ 365.0, 296.0, 56.0, 17.0 ]
				}

			}
, 			{
				"box" : 				{
					"maxclass" : "newobj",
					"text" : "mute~",
					"fontsize" : 9.0,
					"hidden" : 1,
					"numinlets" : 1,
					"id" : "obj-23",
					"fontname" : "Arial",
					"numoutlets" : 1,
					"outlettype" : [ "" ],
					"patching_rect" : [ 365.0, 317.0, 38.0, 17.0 ]
				}

			}
, 			{
				"box" : 				{
					"maxclass" : "ubutton",
					"presentation" : 1,
					"handoff" : "",
					"numinlets" : 1,
					"presentation_rect" : [ 8.0, 37.0, 287.0, 30.0 ],
					"id" : "obj-33",
					"numoutlets" : 4,
					"outlettype" : [ "bang", "bang", "", "int" ],
					"patching_rect" : [ 8.0, 38.0, 287.0, 30.0 ]
				}

			}
, 			{
				"box" : 				{
					"maxclass" : "textedit",
					"varname" : "Setup",
					"text" : "Setup: 1 2 3 4 5 6 7 8",
					"presentation" : 1,
					"fontsize" : 9.0,
					"textcolor" : [ 0.67451, 0.67451, 0.67451, 1.0 ],
					"readonly" : 1,
					"bgcolor" : [ 0.094118, 0.094118, 0.094118, 1.0 ],
					"frgb" : [ 0.67451, 0.67451, 0.67451, 1.0 ],
					"numinlets" : 1,
					"presentation_rect" : [ 7.0, 37.0, 288.0, 27.0 ],
					"id" : "obj-34",
					"fontname" : "Geneva",
					"numoutlets" : 3,
					"bordercolor" : [ 0.0, 0.0, 0.0, 1.0 ],
					"lines" : 2,
					"outlettype" : [ "", "int", "" ],
					"patching_rect" : [ 7.0, 39.0, 288.0, 27.0 ]
				}

			}
, 			{
				"box" : 				{
					"maxclass" : "number",
					"presentation" : 1,
					"fontsize" : 10.0,
					"triangle" : 0,
					"numinlets" : 1,
					"presentation_rect" : [ 149.0, 20.0, 19.0, 18.0 ],
					"id" : "obj-38",
					"fontname" : "Arial",
					"numoutlets" : 2,
					"outlettype" : [ "int", "bang" ],
					"patching_rect" : [ 498.0, 184.0, 19.0, 18.0 ]
				}

			}
, 			{
				"box" : 				{
					"maxclass" : "number",
					"presentation" : 1,
					"fontsize" : 10.0,
					"triangle" : 0,
					"numinlets" : 1,
					"presentation_rect" : [ 62.0, 20.0, 19.0, 18.0 ],
					"id" : "obj-37",
					"fontname" : "Arial",
					"numoutlets" : 2,
					"outlettype" : [ "int", "bang" ],
					"patching_rect" : [ 481.0, 80.0, 19.0, 18.0 ]
				}

			}
, 			{
				"box" : 				{
					"maxclass" : "message",
					"text" : "/preset/store 1 default, /preset/write",
					"fontsize" : 9.0,
					"bgcolor" : [ 0.8, 0.54902, 0.54902, 1.0 ],
					"hidden" : 1,
					"numinlets" : 2,
					"id" : "obj-1",
					"fontname" : "Arial",
					"numoutlets" : 1,
					"outlettype" : [ "" ],
					"patching_rect" : [ 122.0, 103.0, 191.0, 15.0 ]
				}

			}
, 			{
				"box" : 				{
					"maxclass" : "radiogroup",
					"varname" : "removeDC",
					"presentation" : 1,
					"numinlets" : 1,
					"presentation_rect" : [ 268.0, 19.0, 18.0, 18.0 ],
					"id" : "obj-2",
					"numoutlets" : 1,
					"outlettype" : [ "" ],
					"patching_rect" : [ 268.0, 19.0, 18.0, 18.0 ],
					"itemtype" : 1,
					"size" : 1,
					"values" : [ 0 ],
					"disabled" : [ 0 ]
				}

			}
, 			{
				"box" : 				{
					"maxclass" : "comment",
					"text" : "Remove DC:",
					"presentation" : 1,
					"fontsize" : 9.0,
					"textcolor" : [ 0.709804, 0.709804, 0.709804, 1.0 ],
					"frgb" : [ 0.709804, 0.709804, 0.709804, 1.0 ],
					"numinlets" : 1,
					"presentation_rect" : [ 206.0, 20.0, 60.0, 17.0 ],
					"id" : "obj-3",
					"fontname" : "Arial",
					"numoutlets" : 0,
					"patching_rect" : [ 206.0, 20.0, 60.0, 17.0 ]
				}

			}
, 			{
				"box" : 				{
					"maxclass" : "newobj",
					"varname" : "offset[1]",
					"text" : "jcom.parameter remove_dc @type msg_toggle @repetitions 1 @description \"Removes DC components from the signals. Changes only take effect when audio is off.\"",
					"linecount" : 2,
					"fontsize" : 9.0,
					"hidden" : 1,
					"numinlets" : 1,
					"id" : "obj-4",
					"fontname" : "Arial",
					"numoutlets" : 3,
					"outlettype" : [ "", "", "" ],
					"patching_rect" : [ 518.0, 245.0, 398.0, 27.0 ]
				}

			}
, 			{
				"box" : 				{
					"maxclass" : "newobj",
					"text" : "pvar removeDC",
					"fontsize" : 9.0,
					"hidden" : 1,
					"numinlets" : 1,
					"id" : "obj-5",
					"fontname" : "Arial",
					"numoutlets" : 1,
					"outlettype" : [ "" ],
					"patching_rect" : [ 518.0, 226.0, 80.0, 17.0 ]
				}

			}
, 			{
				"box" : 				{
					"maxclass" : "newobj",
					"text" : "route set",
					"fontsize" : 9.0,
					"hidden" : 1,
					"numinlets" : 1,
					"id" : "obj-6",
					"fontname" : "Arial",
					"numoutlets" : 2,
					"outlettype" : [ "", "" ],
					"patching_rect" : [ 506.0, 123.0, 51.0, 17.0 ]
				}

			}
, 			{
				"box" : 				{
					"maxclass" : "newobj",
					"text" : "s #0_number_of_voices",
					"fontsize" : 9.0,
					"hidden" : 1,
					"numinlets" : 1,
					"id" : "obj-7",
					"fontname" : "Arial",
					"numoutlets" : 0,
					"patching_rect" : [ 506.0, 145.0, 120.0, 17.0 ]
				}

			}
, 			{
				"box" : 				{
					"maxclass" : "newobj",
					"text" : "jcom.in",
					"fontsize" : 9.0,
					"hidden" : 1,
					"numinlets" : 1,
					"id" : "obj-8",
					"fontname" : "Arial",
					"numoutlets" : 2,
					"outlettype" : [ "", "" ],
					"patching_rect" : [ 165.0, 222.0, 43.0, 17.0 ]
				}

			}
, 			{
				"box" : 				{
					"maxclass" : "newobj",
					"varname" : "offset",
					"text" : "jcom.parameter offset @type msg_int @repetitions 1 @range/bounds 0 64 @range/clipmode low @description \"Set channel offset for the multicable. Changes only take effect when audio is off.\"",
					"linecount" : 2,
					"fontsize" : 9.0,
					"hidden" : 1,
					"numinlets" : 1,
					"id" : "obj-9",
					"fontname" : "Arial",
					"numoutlets" : 3,
					"outlettype" : [ "", "", "" ],
					"patching_rect" : [ 521.0, 181.0, 560.0, 27.0 ]
				}

			}
, 			{
				"box" : 				{
					"maxclass" : "comment",
					"text" : "Offset:",
					"presentation" : 1,
					"fontsize" : 9.0,
					"textcolor" : [ 0.67451, 0.67451, 0.67451, 1.0 ],
					"frgb" : [ 0.67451, 0.67451, 0.67451, 1.0 ],
					"numinlets" : 1,
					"presentation_rect" : [ 114.0, 20.0, 36.0, 17.0 ],
					"id" : "obj-12",
					"fontname" : "Arial",
					"numoutlets" : 0,
					"patching_rect" : [ 114.0, 20.0, 46.0, 17.0 ]
				}

			}
, 			{
				"box" : 				{
					"maxclass" : "newobj",
					"text" : "t 1",
					"fontsize" : 9.0,
					"hidden" : 1,
					"numinlets" : 1,
					"id" : "obj-13",
					"fontname" : "Arial",
					"numoutlets" : 1,
					"outlettype" : [ "int" ],
					"patching_rect" : [ 135.0, 277.0, 21.0, 17.0 ]
				}

			}
, 			{
				"box" : 				{
					"maxclass" : "newobj",
					"text" : "thispatcher",
					"fontsize" : 9.0,
					"hidden" : 1,
					"numinlets" : 1,
					"id" : "obj-14",
					"fontname" : "Arial",
					"numoutlets" : 2,
					"outlettype" : [ "", "" ],
					"patching_rect" : [ 135.0, 318.0, 61.0, 17.0 ],
					"save" : [ "#N", "thispatcher", ";", "#Q", "end", ";" ]
				}

			}
, 			{
				"box" : 				{
					"maxclass" : "newobj",
					"text" : "pcontrol",
					"fontsize" : 9.0,
					"hidden" : 1,
					"numinlets" : 1,
					"id" : "obj-15",
					"fontname" : "Arial",
					"numoutlets" : 1,
					"outlettype" : [ "" ],
					"patching_rect" : [ 306.0, 299.0, 47.0, 17.0 ]
				}

			}
, 			{
				"box" : 				{
					"maxclass" : "newobj",
					"text" : "jcom.pass open",
					"fontsize" : 9.0,
					"hidden" : 1,
					"numinlets" : 1,
					"id" : "obj-16",
					"fontname" : "Arial",
					"numoutlets" : 2,
					"outlettype" : [ "", "" ],
					"patching_rect" : [ 306.0, 275.0, 78.0, 17.0 ]
				}

			}
, 			{
				"box" : 				{
					"maxclass" : "newobj",
					"varname" : "i",
					"text" : "p i",
					"fontsize" : 9.0,
					"hidden" : 1,
					"numinlets" : 1,
					"id" : "obj-17",
					"fontname" : "Arial",
					"numoutlets" : 1,
					"outlettype" : [ "" ],
					"patching_rect" : [ 135.0, 297.0, 19.0, 17.0 ],
					"patcher" : 					{
						"fileversion" : 1,
						"rect" : [ 100.0, 100.0, 160.0, 607.0 ],
						"bglocked" : 0,
						"defrect" : [ 100.0, 100.0, 160.0, 607.0 ],
						"openrect" : [ 0.0, 0.0, 0.0, 0.0 ],
						"openinpresentation" : 0,
						"default_fontsize" : 10.0,
						"default_fontface" : 0,
						"default_fontname" : "Arial",
						"gridonopen" : 0,
						"gridsize" : [ 15.0, 15.0 ],
						"gridsnaponopen" : 0,
						"toolbarvisible" : 0,
						"boxanimatetime" : 200,
						"imprint" : 0,
						"metadata" : [  ],
						"boxes" : [ 							{
								"box" : 								{
									"maxclass" : "newobj",
									"text" : "t b i",
									"fontsize" : 9.0,
									"hidden" : 1,
									"numinlets" : 1,
									"id" : "obj-1",
									"fontname" : "Arial",
									"numoutlets" : 2,
									"outlettype" : [ "bang", "int" ],
									"patching_rect" : [ 338.0, 497.0, 27.0, 17.0 ]
								}

							}
, 							{
								"box" : 								{
									"maxclass" : "newobj",
									"text" : "zl reg",
									"fontsize" : 9.0,
									"hidden" : 1,
									"numinlets" : 2,
									"id" : "obj-2",
									"fontname" : "Arial",
									"numoutlets" : 2,
									"outlettype" : [ "", "" ],
									"patching_rect" : [ 283.0, 528.0, 36.0, 17.0 ]
								}

							}
, 							{
								"box" : 								{
									"maxclass" : "newobj",
									"text" : "r #0_number_of_voices",
									"fontsize" : 9.0,
									"hidden" : 1,
									"numinlets" : 0,
									"id" : "obj-3",
									"fontname" : "Arial",
									"numoutlets" : 1,
									"outlettype" : [ "" ],
									"patching_rect" : [ 338.0, 474.0, 120.0, 17.0 ]
								}

							}
, 							{
								"box" : 								{
									"maxclass" : "newobj",
									"text" : "zl slice",
									"fontsize" : 9.0,
									"hidden" : 1,
									"numinlets" : 2,
									"id" : "obj-4",
									"fontname" : "Arial",
									"numoutlets" : 2,
									"outlettype" : [ "", "" ],
									"patching_rect" : [ 283.0, 554.0, 42.0, 17.0 ]
								}

							}
, 							{
								"box" : 								{
									"maxclass" : "message",
									"text" : "select 0 0",
									"fontsize" : 9.0,
									"hidden" : 1,
									"numinlets" : 2,
									"id" : "obj-5",
									"fontname" : "Arial",
									"numoutlets" : 1,
									"outlettype" : [ "" ],
									"patching_rect" : [ 402.0, 80.0, 55.0, 15.0 ]
								}

							}
, 							{
								"box" : 								{
									"maxclass" : "comment",
									"text" : "jcom.sur.output~",
									"fontsize" : 9.0,
									"frgb" : [ 0.0, 0.0, 0.0, 1.0 ],
									"numinlets" : 1,
									"id" : "obj-6",
									"fontname" : "Arial",
									"numoutlets" : 0,
									"patching_rect" : [ 33.0, 18.0, 100.0, 17.0 ]
								}

							}
, 							{
								"box" : 								{
									"maxclass" : "message",
									"text" : "window size 100 100 260 681, window exec",
									"fontsize" : 9.0,
									"hidden" : 1,
									"numinlets" : 2,
									"id" : "obj-7",
									"fontname" : "Arial",
									"numoutlets" : 1,
									"outlettype" : [ "" ],
									"patching_rect" : [ 16.0, 116.0, 214.0, 15.0 ]
								}

							}
, 							{
								"box" : 								{
									"maxclass" : "message",
									"text" : "window flags nogrow, savewindow 1, window exec",
									"fontsize" : 9.0,
									"hidden" : 1,
									"numinlets" : 2,
									"id" : "obj-8",
									"fontname" : "Arial",
									"numoutlets" : 1,
									"outlettype" : [ "" ],
									"patching_rect" : [ 16.0, 83.0, 239.0, 15.0 ]
								}

							}
, 							{
								"box" : 								{
									"maxclass" : "message",
									"text" : "window flags grow, window exec",
									"fontsize" : 9.0,
									"hidden" : 1,
									"numinlets" : 2,
									"id" : "obj-9",
									"fontname" : "Arial",
									"numoutlets" : 1,
									"outlettype" : [ "" ],
									"patching_rect" : [ 16.0, 99.0, 158.0, 15.0 ]
								}

							}
, 							{
								"box" : 								{
									"maxclass" : "newobj",
									"text" : "thispatcher",
									"fontsize" : 9.0,
									"hidden" : 1,
									"numinlets" : 1,
									"id" : "obj-10",
									"fontname" : "Arial",
									"numoutlets" : 2,
									"outlettype" : [ "", "" ],
									"patching_rect" : [ 16.0, 139.0, 59.0, 17.0 ],
									"save" : [ "#N", "thispatcher", ";", "#Q", "savewindow", 1, ";", "#Q", "end", ";" ]
								}

							}
, 							{
								"box" : 								{
									"maxclass" : "outlet",
									"hidden" : 1,
									"numinlets" : 1,
									"id" : "obj-11",
									"numoutlets" : 0,
									"patching_rect" : [ 283.0, 617.0, 15.0, 15.0 ],
									"comment" : ""
								}

							}
, 							{
								"box" : 								{
									"maxclass" : "newobj",
									"text" : "route set",
									"fontsize" : 9.0,
									"hidden" : 1,
									"numinlets" : 1,
									"id" : "obj-12",
									"fontname" : "Arial",
									"numoutlets" : 2,
									"outlettype" : [ "", "" ],
									"patching_rect" : [ 283.0, 474.0, 51.0, 17.0 ]
								}

							}
, 							{
								"box" : 								{
									"maxclass" : "newobj",
									"text" : "prepend script send Setup set Setup:",
									"fontsize" : 9.0,
									"hidden" : 1,
									"numinlets" : 1,
									"id" : "obj-13",
									"fontname" : "Arial",
									"numoutlets" : 1,
									"outlettype" : [ "" ],
									"patching_rect" : [ 283.0, 581.0, 175.0, 17.0 ]
								}

							}
, 							{
								"box" : 								{
									"maxclass" : "newobj",
									"text" : "t front",
									"fontsize" : 9.0,
									"hidden" : 1,
									"numinlets" : 1,
									"id" : "obj-14",
									"fontname" : "Arial",
									"numoutlets" : 1,
									"outlettype" : [ "front" ],
									"patching_rect" : [ 469.0, 80.0, 40.0, 17.0 ]
								}

							}
, 							{
								"box" : 								{
									"maxclass" : "newobj",
									"text" : "thispatcher",
									"fontsize" : 9.0,
									"hidden" : 1,
									"numinlets" : 1,
									"id" : "obj-15",
									"fontname" : "Arial",
									"numoutlets" : 2,
									"outlettype" : [ "", "" ],
									"patching_rect" : [ 469.0, 100.0, 61.0, 17.0 ],
									"save" : [ "#N", "thispatcher", ";", "#Q", "end", ";" ]
								}

							}
, 							{
								"box" : 								{
									"maxclass" : "newobj",
									"text" : "sel 1",
									"fontsize" : 9.0,
									"hidden" : 1,
									"numinlets" : 2,
									"id" : "obj-16",
									"fontname" : "Arial",
									"numoutlets" : 2,
									"outlettype" : [ "bang", "" ],
									"patching_rect" : [ 402.0, 50.0, 32.0, 17.0 ]
								}

							}
, 							{
								"box" : 								{
									"maxclass" : "message",
									"text" : "$1 set $2",
									"fontsize" : 9.0,
									"hidden" : 1,
									"numinlets" : 2,
									"id" : "obj-17",
									"fontname" : "Arial",
									"numoutlets" : 1,
									"outlettype" : [ "" ],
									"patching_rect" : [ 705.0, 223.0, 54.0, 15.0 ]
								}

							}
, 							{
								"box" : 								{
									"maxclass" : "newobj",
									"text" : "route set",
									"fontsize" : 9.0,
									"hidden" : 1,
									"numinlets" : 1,
									"id" : "obj-18",
									"fontname" : "Arial",
									"numoutlets" : 2,
									"outlettype" : [ "", "" ],
									"patching_rect" : [ 283.0, 128.0, 51.0, 17.0 ]
								}

							}
, 							{
								"box" : 								{
									"maxclass" : "newobj",
									"varname" : "setup",
									"text" : "jcom.parameter setup @type msg_list @description \"List of output channels that multicable signal is routed to.\"",
									"linecount" : 2,
									"fontsize" : 9.0,
									"hidden" : 1,
									"numinlets" : 1,
									"id" : "obj-19",
									"fontname" : "Arial",
									"numoutlets" : 3,
									"outlettype" : [ "", "", "" ],
									"patching_rect" : [ 283.0, 426.0, 292.0, 27.0 ]
								}

							}
, 							{
								"box" : 								{
									"maxclass" : "newobj",
									"text" : "prepend set 0",
									"fontsize" : 9.0,
									"hidden" : 1,
									"numinlets" : 1,
									"id" : "obj-20",
									"fontname" : "Arial",
									"numoutlets" : 1,
									"outlettype" : [ "" ],
									"patching_rect" : [ 283.0, 174.0, 71.0, 17.0 ]
								}

							}
, 							{
								"box" : 								{
									"maxclass" : "newobj",
									"text" : "zl slice 1",
									"fontsize" : 9.0,
									"hidden" : 1,
									"numinlets" : 2,
									"id" : "obj-21",
									"fontname" : "Arial",
									"numoutlets" : 2,
									"outlettype" : [ "", "" ],
									"patching_rect" : [ 283.0, 218.0, 51.0, 17.0 ]
								}

							}
, 							{
								"box" : 								{
									"maxclass" : "newobj",
									"text" : "pak 0 0 0 0 0 0 0 0 0 0 0 0 0 0 0 0 0 0 0 0 0 0 0 0 0 0 0 0 0 0 0 0",
									"fontsize" : 9.0,
									"hidden" : 1,
									"numinlets" : 32,
									"id" : "obj-22",
									"fontname" : "Arial",
									"numoutlets" : 1,
									"outlettype" : [ "" ],
									"patching_rect" : [ 283.0, 404.0, 417.0, 17.0 ]
								}

							}
, 							{
								"box" : 								{
									"maxclass" : "newobj",
									"text" : "route 0 1 2 3 4 5 6 7 8 9 10 11 12 13 14 15 16 17 18 19 20 21 22 23 24 25 26 27 28 29 30 31",
									"linecount" : 2,
									"fontsize" : 9.0,
									"hidden" : 1,
									"numinlets" : 1,
									"id" : "obj-23",
									"fontname" : "Arial",
									"numoutlets" : 33,
									"outlettype" : [ "", "", "", "", "", "", "", "", "", "", "", "", "", "", "", "", "", "", "", "", "", "", "", "", "", "", "", "", "", "", "", "", "" ],
									"patching_rect" : [ 705.0, 243.0, 378.0, 27.0 ]
								}

							}
, 							{
								"box" : 								{
									"maxclass" : "newobj",
									"text" : "p thru",
									"fontsize" : 9.0,
									"hidden" : 1,
									"numinlets" : 2,
									"id" : "obj-24",
									"fontname" : "Arial",
									"numoutlets" : 2,
									"outlettype" : [ "", "list" ],
									"patching_rect" : [ 256.0, 197.0, 37.0, 17.0 ],
									"patcher" : 									{
										"fileversion" : 1,
										"rect" : [ 20.0, 74.0, 600.0, 426.0 ],
										"bglocked" : 0,
										"defrect" : [ 20.0, 74.0, 600.0, 426.0 ],
										"openrect" : [ 0.0, 0.0, 0.0, 0.0 ],
										"openinpresentation" : 0,
										"default_fontsize" : 10.0,
										"default_fontface" : 0,
										"default_fontname" : "Arial",
										"gridonopen" : 0,
										"gridsize" : [ 15.0, 15.0 ],
										"gridsnaponopen" : 0,
										"toolbarvisible" : 1,
										"boxanimatetime" : 200,
										"imprint" : 0,
										"metadata" : [  ],
										"boxes" : [ 											{
												"box" : 												{
													"maxclass" : "outlet",
													"numinlets" : 1,
													"id" : "obj-1",
													"numoutlets" : 0,
													"patching_rect" : [ 111.0, 101.0, 15.0, 15.0 ],
													"comment" : ""
												}

											}
, 											{
												"box" : 												{
													"maxclass" : "outlet",
													"numinlets" : 1,
													"id" : "obj-2",
													"numoutlets" : 0,
													"patching_rect" : [ 69.0, 100.0, 15.0, 15.0 ],
													"comment" : ""
												}

											}
, 											{
												"box" : 												{
													"maxclass" : "inlet",
													"numinlets" : 0,
													"id" : "obj-3",
													"numoutlets" : 1,
													"outlettype" : [ "" ],
													"patching_rect" : [ 111.0, 57.0, 15.0, 15.0 ],
													"comment" : ""
												}

											}
, 											{
												"box" : 												{
													"maxclass" : "inlet",
													"numinlets" : 0,
													"id" : "obj-4",
													"numoutlets" : 1,
													"outlettype" : [ "list" ],
													"patching_rect" : [ 69.0, 57.0, 15.0, 15.0 ],
													"comment" : ""
												}

											}
 ],
										"lines" : [ 											{
												"patchline" : 												{
													"source" : [ "obj-4", 0 ],
													"destination" : [ "obj-1", 0 ],
													"hidden" : 0,
													"midpoints" : [  ]
												}

											}
, 											{
												"patchline" : 												{
													"source" : [ "obj-3", 0 ],
													"destination" : [ "obj-2", 0 ],
													"hidden" : 0,
													"midpoints" : [  ]
												}

											}
 ]
									}
,
									"saved_object_attributes" : 									{
										"fontface" : 0,
										"fontsize" : 10.0,
										"default_fontface" : 0,
										"default_fontname" : "Arial",
										"fontname" : "Arial",
										"default_fontsize" : 10.0,
										"globalpatchername" : ""
									}

								}

							}
, 							{
								"box" : 								{
									"maxclass" : "newobj",
									"text" : "listfunnel",
									"fontsize" : 9.0,
									"hidden" : 1,
									"numinlets" : 1,
									"id" : "obj-25",
									"fontname" : "Arial",
									"numoutlets" : 1,
									"outlettype" : [ "list" ],
									"patching_rect" : [ 283.0, 150.0, 52.0, 17.0 ]
								}

							}
, 							{
								"box" : 								{
									"maxclass" : "newobj",
									"text" : "t select l",
									"fontsize" : 9.0,
									"hidden" : 1,
									"numinlets" : 1,
									"id" : "obj-26",
									"fontname" : "Arial",
									"numoutlets" : 2,
									"outlettype" : [ "select", "" ],
									"patching_rect" : [ 94.0, 561.0, 50.0, 17.0 ]
								}

							}
, 							{
								"box" : 								{
									"maxclass" : "textedit",
									"text" : "1",
									"fontsize" : 9.0,
									"wordwrap" : 0,
									"frgb" : [ 0.0, 0.0, 0.0, 1.0 ],
									"numinlets" : 1,
									"clickmode" : 1,
									"id" : "obj-27",
									"fontname" : "Geneva",
									"numoutlets" : 3,
									"keymode" : 1,
									"outlettype" : [ "", "int", "" ],
									"patching_rect" : [ 23.0, 54.0, 77.0, 17.0 ]
								}

							}
, 							{
								"box" : 								{
									"maxclass" : "jit.cellblock",
									"headercolor" : [ 0.743191, 0.743191, 0.743191, 1.0 ],
									"just" : 1,
									"hcellcolor" : [ 0.836576, 0.836576, 0.933852, 1.0 ],
									"vscroll" : 0,
									"fontsize" : 9.0,
									"cols" : 1,
									"precision" : 0,
									"colhead" : 1,
									"bgcolor" : [ 0.992218, 0.992218, 0.992218, 1.0 ],
									"rowheight" : 14,
									"selmode" : 0,
									"colwidth" : 55,
									"rows" : 32,
									"numinlets" : 2,
									"hscroll" : 0,
									"id" : "obj-28",
									"savemode" : 1,
									"fontname" : "Geneva",
									"numoutlets" : 4,
									"bordercolor" : [ 0.0, 0.0, 0.0, 1.0 ],
									"gridlinecolor" : [ 0.0, 0.0, 0.0, 1.0 ],
									"outlettype" : [ "list", "", "", "" ],
									"rowhead" : 1,
									"patching_rect" : [ 24.0, 96.0, 56.0, 449.0 ],
									"cellmap" : [ [ 0, 0, 1 ], [ 0, 1, 2 ], [ 0, 2, 3 ], [ 0, 3, 4 ], [ 0, 4, 5 ], [ 0, 5, 6 ], [ 0, 6, 7 ], [ 0, 7, 8 ], [ 0, 8, 9 ], [ 0, 9, 10 ], [ 0, 10, 11 ], [ 0, 11, 12 ], [ 0, 12, 13 ], [ 0, 13, 14 ], [ 0, 14, 15 ], [ 0, 15, 16 ], [ 0, 16, 17 ], [ 0, 17, 18 ], [ 0, 18, 19 ], [ 0, 19, 20 ], [ 0, 20, 21 ], [ 0, 21, 22 ], [ 0, 22, 23 ], [ 0, 23, 24 ], [ 0, 24, 25 ], [ 0, 25, 26 ], [ 0, 26, 27 ], [ 0, 27, 28 ], [ 0, 28, 29 ], [ 0, 29, 30 ], [ 0, 30, 31 ], [ 0, 31, 32 ] ]
								}

							}
, 							{
								"box" : 								{
									"maxclass" : "jit.cellblock",
									"headercolor" : [ 0.743191, 0.743191, 0.743191, 1.0 ],
									"just" : 1,
									"hcellcolor" : [ 0.836576, 0.836576, 0.933852, 1.0 ],
									"vscroll" : 0,
									"fontsize" : 9.0,
									"cols" : 2,
									"precision" : 0,
									"colhead" : 1,
									"bgcolor" : [ 0.992218, 0.992218, 0.992218, 1.0 ],
									"rowheight" : 19,
									"selmode" : 0,
									"colwidth" : 55,
									"rows" : 1,
									"numinlets" : 2,
									"hscroll" : 0,
									"id" : "obj-29",
									"savemode" : 1,
									"fontname" : "Geneva",
									"numoutlets" : 4,
									"bordercolor" : [ 0.0, 0.0, 0.0, 1.0 ],
									"gridlinecolor" : [ 0.0, 0.0, 0.0, 1.0 ],
									"outlettype" : [ "list", "", "", "" ],
									"rowhead" : 1,
									"patching_rect" : [ 24.0, 77.0, 111.0, 20.0 ],
									"cellmap" : [ [ 0, 0, "Multicable" ], [ 1, 0, "Output" ] ]
								}

							}
, 							{
								"box" : 								{
									"maxclass" : "jit.cellblock",
									"varname" : "CellBlock",
									"headercolor" : [ 0.743191, 0.743191, 0.743191, 1.0 ],
									"just" : 1,
									"hcellcolor" : [ 0.836576, 0.836576, 0.933852, 1.0 ],
									"vscroll" : 0,
									"fontsize" : 9.0,
									"cols" : 1,
									"precision" : 0,
									"bgcolor" : [ 0.992218, 0.992218, 0.992218, 1.0 ],
									"rowheight" : 14,
									"colwidth" : 55,
									"rows" : 32,
									"numinlets" : 2,
									"hscroll" : 0,
									"id" : "obj-30",
									"savemode" : 1,
									"fontname" : "Geneva",
									"numoutlets" : 4,
									"bordercolor" : [ 0.0, 0.0, 0.0, 1.0 ],
									"gridlinecolor" : [ 0.0, 0.0, 0.0, 1.0 ],
									"outlettype" : [ "list", "", "", "" ],
									"patching_rect" : [ 79.0, 96.0, 56.0, 449.0 ],
									"cellmap" : [ [ 0, 0, 1 ], [ 0, 1, 2 ], [ 0, 2, 3 ], [ 0, 3, 4 ], [ 0, 4, 5 ], [ 0, 5, 6 ], [ 0, 6, 7 ], [ 0, 7, 8 ], [ 0, 8, 9 ], [ 0, 9, 10 ], [ 0, 10, 11 ], [ 0, 11, 12 ], [ 0, 12, 13 ], [ 0, 13, 14 ], [ 0, 14, 15 ], [ 0, 15, 16 ], [ 0, 16, 17 ], [ 0, 17, 18 ], [ 0, 18, 19 ], [ 0, 19, 20 ], [ 0, 20, 21 ], [ 0, 21, 22 ], [ 0, 22, 23 ], [ 0, 23, 24 ], [ 0, 24, 25 ], [ 0, 25, 26 ], [ 0, 26, 27 ], [ 0, 27, 28 ], [ 0, 28, 29 ], [ 0, 29, 30 ], [ 0, 30, 31 ], [ 0, 31, 32 ] ]
								}

							}
, 							{
								"box" : 								{
									"maxclass" : "panel",
									"rounded" : 0,
									"bgcolor" : [ 0.862745, 0.862745, 0.862745, 1.0 ],
									"numinlets" : 1,
									"id" : "obj-31",
									"numoutlets" : 0,
									"patching_rect" : [ 10.0, 37.0, 140.0, 520.0 ]
								}

							}
, 							{
								"box" : 								{
									"maxclass" : "inlet",
									"hidden" : 1,
									"numinlets" : 0,
									"id" : "obj-32",
									"numoutlets" : 1,
									"outlettype" : [ "int" ],
									"patching_rect" : [ 402.0, 29.0, 15.0, 15.0 ],
									"comment" : ""
								}

							}
, 							{
								"box" : 								{
									"maxclass" : "newobj",
									"text" : "spray 32",
									"fontsize" : 9.0,
									"hidden" : 1,
									"numinlets" : 1,
									"id" : "obj-33",
									"fontname" : "Arial",
									"numoutlets" : 32,
									"outlettype" : [ "", "", "", "", "", "", "", "", "", "", "", "", "", "", "", "", "", "", "", "", "", "", "", "", "", "", "", "", "", "", "", "" ],
									"patching_rect" : [ 283.0, 243.0, 417.0, 17.0 ]
								}

							}
 ],
						"lines" : [ 							{
								"patchline" : 								{
									"source" : [ "obj-17", 0 ],
									"destination" : [ "obj-23", 0 ],
									"hidden" : 1,
									"midpoints" : [  ]
								}

							}
, 							{
								"patchline" : 								{
									"source" : [ "obj-25", 0 ],
									"destination" : [ "obj-17", 0 ],
									"hidden" : 1,
									"midpoints" : [ 292.5, 171.0, 714.5, 171.0 ]
								}

							}
, 							{
								"patchline" : 								{
									"source" : [ "obj-23", 31 ],
									"destination" : [ "obj-22", 31 ],
									"hidden" : 1,
									"midpoints" : [  ]
								}

							}
, 							{
								"patchline" : 								{
									"source" : [ "obj-33", 31 ],
									"destination" : [ "obj-22", 31 ],
									"hidden" : 1,
									"midpoints" : [  ]
								}

							}
, 							{
								"patchline" : 								{
									"source" : [ "obj-23", 30 ],
									"destination" : [ "obj-22", 30 ],
									"hidden" : 1,
									"midpoints" : [  ]
								}

							}
, 							{
								"patchline" : 								{
									"source" : [ "obj-33", 30 ],
									"destination" : [ "obj-22", 30 ],
									"hidden" : 1,
									"midpoints" : [  ]
								}

							}
, 							{
								"patchline" : 								{
									"source" : [ "obj-23", 29 ],
									"destination" : [ "obj-22", 29 ],
									"hidden" : 1,
									"midpoints" : [  ]
								}

							}
, 							{
								"patchline" : 								{
									"source" : [ "obj-33", 29 ],
									"destination" : [ "obj-22", 29 ],
									"hidden" : 1,
									"midpoints" : [  ]
								}

							}
, 							{
								"patchline" : 								{
									"source" : [ "obj-23", 28 ],
									"destination" : [ "obj-22", 28 ],
									"hidden" : 1,
									"midpoints" : [  ]
								}

							}
, 							{
								"patchline" : 								{
									"source" : [ "obj-33", 28 ],
									"destination" : [ "obj-22", 28 ],
									"hidden" : 1,
									"midpoints" : [  ]
								}

							}
, 							{
								"patchline" : 								{
									"source" : [ "obj-23", 27 ],
									"destination" : [ "obj-22", 27 ],
									"hidden" : 1,
									"midpoints" : [  ]
								}

							}
, 							{
								"patchline" : 								{
									"source" : [ "obj-33", 27 ],
									"destination" : [ "obj-22", 27 ],
									"hidden" : 1,
									"midpoints" : [  ]
								}

							}
, 							{
								"patchline" : 								{
									"source" : [ "obj-23", 26 ],
									"destination" : [ "obj-22", 26 ],
									"hidden" : 1,
									"midpoints" : [  ]
								}

							}
, 							{
								"patchline" : 								{
									"source" : [ "obj-33", 26 ],
									"destination" : [ "obj-22", 26 ],
									"hidden" : 1,
									"midpoints" : [  ]
								}

							}
, 							{
								"patchline" : 								{
									"source" : [ "obj-23", 25 ],
									"destination" : [ "obj-22", 25 ],
									"hidden" : 1,
									"midpoints" : [  ]
								}

							}
, 							{
								"patchline" : 								{
									"source" : [ "obj-33", 25 ],
									"destination" : [ "obj-22", 25 ],
									"hidden" : 1,
									"midpoints" : [  ]
								}

							}
, 							{
								"patchline" : 								{
									"source" : [ "obj-23", 24 ],
									"destination" : [ "obj-22", 24 ],
									"hidden" : 1,
									"midpoints" : [  ]
								}

							}
, 							{
								"patchline" : 								{
									"source" : [ "obj-33", 24 ],
									"destination" : [ "obj-22", 24 ],
									"hidden" : 1,
									"midpoints" : [  ]
								}

							}
, 							{
								"patchline" : 								{
									"source" : [ "obj-23", 23 ],
									"destination" : [ "obj-22", 23 ],
									"hidden" : 1,
									"midpoints" : [  ]
								}

							}
, 							{
								"patchline" : 								{
									"source" : [ "obj-33", 23 ],
									"destination" : [ "obj-22", 23 ],
									"hidden" : 1,
									"midpoints" : [  ]
								}

							}
, 							{
								"patchline" : 								{
									"source" : [ "obj-23", 22 ],
									"destination" : [ "obj-22", 22 ],
									"hidden" : 1,
									"midpoints" : [  ]
								}

							}
, 							{
								"patchline" : 								{
									"source" : [ "obj-33", 22 ],
									"destination" : [ "obj-22", 22 ],
									"hidden" : 1,
									"midpoints" : [  ]
								}

							}
, 							{
								"patchline" : 								{
									"source" : [ "obj-23", 21 ],
									"destination" : [ "obj-22", 21 ],
									"hidden" : 1,
									"midpoints" : [  ]
								}

							}
, 							{
								"patchline" : 								{
									"source" : [ "obj-33", 21 ],
									"destination" : [ "obj-22", 21 ],
									"hidden" : 1,
									"midpoints" : [  ]
								}

							}
, 							{
								"patchline" : 								{
									"source" : [ "obj-23", 20 ],
									"destination" : [ "obj-22", 20 ],
									"hidden" : 1,
									"midpoints" : [  ]
								}

							}
, 							{
								"patchline" : 								{
									"source" : [ "obj-33", 20 ],
									"destination" : [ "obj-22", 20 ],
									"hidden" : 1,
									"midpoints" : [  ]
								}

							}
, 							{
								"patchline" : 								{
									"source" : [ "obj-23", 19 ],
									"destination" : [ "obj-22", 19 ],
									"hidden" : 1,
									"midpoints" : [  ]
								}

							}
, 							{
								"patchline" : 								{
									"source" : [ "obj-33", 19 ],
									"destination" : [ "obj-22", 19 ],
									"hidden" : 1,
									"midpoints" : [  ]
								}

							}
, 							{
								"patchline" : 								{
									"source" : [ "obj-23", 18 ],
									"destination" : [ "obj-22", 18 ],
									"hidden" : 1,
									"midpoints" : [  ]
								}

							}
, 							{
								"patchline" : 								{
									"source" : [ "obj-33", 18 ],
									"destination" : [ "obj-22", 18 ],
									"hidden" : 1,
									"midpoints" : [  ]
								}

							}
, 							{
								"patchline" : 								{
									"source" : [ "obj-23", 17 ],
									"destination" : [ "obj-22", 17 ],
									"hidden" : 1,
									"midpoints" : [  ]
								}

							}
, 							{
								"patchline" : 								{
									"source" : [ "obj-33", 17 ],
									"destination" : [ "obj-22", 17 ],
									"hidden" : 1,
									"midpoints" : [  ]
								}

							}
, 							{
								"patchline" : 								{
									"source" : [ "obj-23", 16 ],
									"destination" : [ "obj-22", 16 ],
									"hidden" : 1,
									"midpoints" : [  ]
								}

							}
, 							{
								"patchline" : 								{
									"source" : [ "obj-33", 16 ],
									"destination" : [ "obj-22", 16 ],
									"hidden" : 1,
									"midpoints" : [  ]
								}

							}
, 							{
								"patchline" : 								{
									"source" : [ "obj-33", 15 ],
									"destination" : [ "obj-22", 15 ],
									"hidden" : 1,
									"midpoints" : [  ]
								}

							}
, 							{
								"patchline" : 								{
									"source" : [ "obj-23", 15 ],
									"destination" : [ "obj-22", 15 ],
									"hidden" : 1,
									"midpoints" : [  ]
								}

							}
, 							{
								"patchline" : 								{
									"source" : [ "obj-14", 0 ],
									"destination" : [ "obj-15", 0 ],
									"hidden" : 1,
									"midpoints" : [  ]
								}

							}
, 							{
								"patchline" : 								{
									"source" : [ "obj-16", 0 ],
									"destination" : [ "obj-14", 0 ],
									"hidden" : 1,
									"midpoints" : [ 411.5, 73.0, 478.5, 73.0 ]
								}

							}
, 							{
								"patchline" : 								{
									"source" : [ "obj-33", 14 ],
									"destination" : [ "obj-22", 14 ],
									"hidden" : 1,
									"midpoints" : [  ]
								}

							}
, 							{
								"patchline" : 								{
									"source" : [ "obj-23", 14 ],
									"destination" : [ "obj-22", 14 ],
									"hidden" : 1,
									"midpoints" : [  ]
								}

							}
, 							{
								"patchline" : 								{
									"source" : [ "obj-33", 13 ],
									"destination" : [ "obj-22", 13 ],
									"hidden" : 1,
									"midpoints" : [  ]
								}

							}
, 							{
								"patchline" : 								{
									"source" : [ "obj-23", 13 ],
									"destination" : [ "obj-22", 13 ],
									"hidden" : 1,
									"midpoints" : [  ]
								}

							}
, 							{
								"patchline" : 								{
									"source" : [ "obj-33", 12 ],
									"destination" : [ "obj-22", 12 ],
									"hidden" : 1,
									"midpoints" : [  ]
								}

							}
, 							{
								"patchline" : 								{
									"source" : [ "obj-23", 12 ],
									"destination" : [ "obj-22", 12 ],
									"hidden" : 1,
									"midpoints" : [  ]
								}

							}
, 							{
								"patchline" : 								{
									"source" : [ "obj-33", 11 ],
									"destination" : [ "obj-22", 11 ],
									"hidden" : 1,
									"midpoints" : [  ]
								}

							}
, 							{
								"patchline" : 								{
									"source" : [ "obj-23", 11 ],
									"destination" : [ "obj-22", 11 ],
									"hidden" : 1,
									"midpoints" : [  ]
								}

							}
, 							{
								"patchline" : 								{
									"source" : [ "obj-33", 10 ],
									"destination" : [ "obj-22", 10 ],
									"hidden" : 1,
									"midpoints" : [  ]
								}

							}
, 							{
								"patchline" : 								{
									"source" : [ "obj-23", 10 ],
									"destination" : [ "obj-22", 10 ],
									"hidden" : 1,
									"midpoints" : [  ]
								}

							}
, 							{
								"patchline" : 								{
									"source" : [ "obj-16", 0 ],
									"destination" : [ "obj-5", 0 ],
									"hidden" : 1,
									"midpoints" : [  ]
								}

							}
, 							{
								"patchline" : 								{
									"source" : [ "obj-32", 0 ],
									"destination" : [ "obj-16", 0 ],
									"hidden" : 1,
									"midpoints" : [  ]
								}

							}
, 							{
								"patchline" : 								{
									"source" : [ "obj-33", 9 ],
									"destination" : [ "obj-22", 9 ],
									"hidden" : 1,
									"midpoints" : [  ]
								}

							}
, 							{
								"patchline" : 								{
									"source" : [ "obj-23", 9 ],
									"destination" : [ "obj-22", 9 ],
									"hidden" : 1,
									"midpoints" : [  ]
								}

							}
, 							{
								"patchline" : 								{
									"source" : [ "obj-33", 8 ],
									"destination" : [ "obj-22", 8 ],
									"hidden" : 1,
									"midpoints" : [  ]
								}

							}
, 							{
								"patchline" : 								{
									"source" : [ "obj-23", 8 ],
									"destination" : [ "obj-22", 8 ],
									"hidden" : 1,
									"midpoints" : [  ]
								}

							}
, 							{
								"patchline" : 								{
									"source" : [ "obj-33", 7 ],
									"destination" : [ "obj-22", 7 ],
									"hidden" : 1,
									"midpoints" : [  ]
								}

							}
, 							{
								"patchline" : 								{
									"source" : [ "obj-23", 7 ],
									"destination" : [ "obj-22", 7 ],
									"hidden" : 1,
									"midpoints" : [  ]
								}

							}
, 							{
								"patchline" : 								{
									"source" : [ "obj-33", 6 ],
									"destination" : [ "obj-22", 6 ],
									"hidden" : 1,
									"midpoints" : [  ]
								}

							}
, 							{
								"patchline" : 								{
									"source" : [ "obj-23", 6 ],
									"destination" : [ "obj-22", 6 ],
									"hidden" : 1,
									"midpoints" : [  ]
								}

							}
, 							{
								"patchline" : 								{
									"source" : [ "obj-33", 5 ],
									"destination" : [ "obj-22", 5 ],
									"hidden" : 1,
									"midpoints" : [  ]
								}

							}
, 							{
								"patchline" : 								{
									"source" : [ "obj-23", 5 ],
									"destination" : [ "obj-22", 5 ],
									"hidden" : 1,
									"midpoints" : [  ]
								}

							}
, 							{
								"patchline" : 								{
									"source" : [ "obj-3", 0 ],
									"destination" : [ "obj-1", 0 ],
									"hidden" : 1,
									"midpoints" : [  ]
								}

							}
, 							{
								"patchline" : 								{
									"source" : [ "obj-33", 4 ],
									"destination" : [ "obj-22", 4 ],
									"hidden" : 1,
									"midpoints" : [  ]
								}

							}
, 							{
								"patchline" : 								{
									"source" : [ "obj-23", 4 ],
									"destination" : [ "obj-22", 4 ],
									"hidden" : 1,
									"midpoints" : [  ]
								}

							}
, 							{
								"patchline" : 								{
									"source" : [ "obj-33", 3 ],
									"destination" : [ "obj-22", 3 ],
									"hidden" : 1,
									"midpoints" : [  ]
								}

							}
, 							{
								"patchline" : 								{
									"source" : [ "obj-23", 3 ],
									"destination" : [ "obj-22", 3 ],
									"hidden" : 1,
									"midpoints" : [  ]
								}

							}
, 							{
								"patchline" : 								{
									"source" : [ "obj-1", 1 ],
									"destination" : [ "obj-4", 1 ],
									"hidden" : 1,
									"midpoints" : [  ]
								}

							}
, 							{
								"patchline" : 								{
									"source" : [ "obj-33", 2 ],
									"destination" : [ "obj-22", 2 ],
									"hidden" : 1,
									"midpoints" : [  ]
								}

							}
, 							{
								"patchline" : 								{
									"source" : [ "obj-23", 2 ],
									"destination" : [ "obj-22", 2 ],
									"hidden" : 1,
									"midpoints" : [  ]
								}

							}
, 							{
								"patchline" : 								{
									"source" : [ "obj-33", 1 ],
									"destination" : [ "obj-22", 1 ],
									"hidden" : 1,
									"midpoints" : [  ]
								}

							}
, 							{
								"patchline" : 								{
									"source" : [ "obj-23", 1 ],
									"destination" : [ "obj-22", 1 ],
									"hidden" : 1,
									"midpoints" : [  ]
								}

							}
, 							{
								"patchline" : 								{
									"source" : [ "obj-13", 0 ],
									"destination" : [ "obj-11", 0 ],
									"hidden" : 1,
									"midpoints" : [  ]
								}

							}
, 							{
								"patchline" : 								{
									"source" : [ "obj-4", 0 ],
									"destination" : [ "obj-13", 0 ],
									"hidden" : 1,
									"midpoints" : [  ]
								}

							}
, 							{
								"patchline" : 								{
									"source" : [ "obj-2", 0 ],
									"destination" : [ "obj-4", 0 ],
									"hidden" : 1,
									"midpoints" : [  ]
								}

							}
, 							{
								"patchline" : 								{
									"source" : [ "obj-1", 0 ],
									"destination" : [ "obj-2", 0 ],
									"hidden" : 1,
									"midpoints" : [  ]
								}

							}
, 							{
								"patchline" : 								{
									"source" : [ "obj-12", 0 ],
									"destination" : [ "obj-2", 0 ],
									"hidden" : 1,
									"midpoints" : [  ]
								}

							}
, 							{
								"patchline" : 								{
									"source" : [ "obj-19", 0 ],
									"destination" : [ "obj-12", 0 ],
									"hidden" : 1,
									"midpoints" : [  ]
								}

							}
, 							{
								"patchline" : 								{
									"source" : [ "obj-22", 0 ],
									"destination" : [ "obj-19", 0 ],
									"hidden" : 1,
									"midpoints" : [  ]
								}

							}
, 							{
								"patchline" : 								{
									"source" : [ "obj-33", 0 ],
									"destination" : [ "obj-22", 0 ],
									"hidden" : 1,
									"midpoints" : [  ]
								}

							}
, 							{
								"patchline" : 								{
									"source" : [ "obj-23", 0 ],
									"destination" : [ "obj-22", 0 ],
									"hidden" : 1,
									"midpoints" : [  ]
								}

							}
, 							{
								"patchline" : 								{
									"source" : [ "obj-21", 1 ],
									"destination" : [ "obj-33", 0 ],
									"hidden" : 1,
									"midpoints" : [ 324.5, 239.0, 292.5, 239.0 ]
								}

							}
, 							{
								"patchline" : 								{
									"source" : [ "obj-24", 1 ],
									"destination" : [ "obj-21", 0 ],
									"hidden" : 1,
									"midpoints" : [  ]
								}

							}
, 							{
								"patchline" : 								{
									"source" : [ "obj-20", 0 ],
									"destination" : [ "obj-24", 1 ],
									"hidden" : 1,
									"midpoints" : [  ]
								}

							}
, 							{
								"patchline" : 								{
									"source" : [ "obj-25", 0 ],
									"destination" : [ "obj-20", 0 ],
									"hidden" : 1,
									"midpoints" : [  ]
								}

							}
, 							{
								"patchline" : 								{
									"source" : [ "obj-18", 0 ],
									"destination" : [ "obj-25", 0 ],
									"hidden" : 1,
									"midpoints" : [  ]
								}

							}
, 							{
								"patchline" : 								{
									"source" : [ "obj-19", 0 ],
									"destination" : [ "obj-18", 0 ],
									"hidden" : 1,
									"midpoints" : [ 292.5, 462.0, 242.0, 462.0, 242.0, 123.0, 292.5, 123.0 ]
								}

							}
, 							{
								"patchline" : 								{
									"source" : [ "obj-30", 0 ],
									"destination" : [ "obj-24", 0 ],
									"hidden" : 1,
									"midpoints" : [  ]
								}

							}
, 							{
								"patchline" : 								{
									"source" : [ "obj-30", 1 ],
									"destination" : [ "obj-26", 0 ],
									"hidden" : 1,
									"midpoints" : [  ]
								}

							}
, 							{
								"patchline" : 								{
									"source" : [ "obj-5", 0 ],
									"destination" : [ "obj-30", 0 ],
									"hidden" : 1,
									"color" : [ 0.290196, 0.611765, 0.380392, 1.0 ],
									"midpoints" : [ 411.5, 102.0, 372.0, 102.0, 372.0, 34.0, 88.5, 34.0 ]
								}

							}
, 							{
								"patchline" : 								{
									"source" : [ "obj-24", 0 ],
									"destination" : [ "obj-30", 0 ],
									"hidden" : 1,
									"midpoints" : [  ]
								}

							}
, 							{
								"patchline" : 								{
									"source" : [ "obj-27", 0 ],
									"destination" : [ "obj-30", 0 ],
									"hidden" : 1,
									"midpoints" : [ 32.5, 74.0, 88.5, 74.0 ]
								}

							}
, 							{
								"patchline" : 								{
									"source" : [ "obj-26", 0 ],
									"destination" : [ "obj-27", 0 ],
									"hidden" : 1,
									"midpoints" : [ 103.5, 584.0, 149.0, 584.0, 149.0, 49.0, 32.5, 49.0 ]
								}

							}
, 							{
								"patchline" : 								{
									"source" : [ "obj-26", 1 ],
									"destination" : [ "obj-27", 0 ],
									"hidden" : 1,
									"midpoints" : [ 134.5, 582.0, 147.0, 582.0, 147.0, 51.0, 32.5, 51.0 ]
								}

							}
, 							{
								"patchline" : 								{
									"source" : [ "obj-9", 0 ],
									"destination" : [ "obj-10", 0 ],
									"hidden" : 1,
									"midpoints" : [  ]
								}

							}
, 							{
								"patchline" : 								{
									"source" : [ "obj-8", 0 ],
									"destination" : [ "obj-10", 0 ],
									"hidden" : 1,
									"midpoints" : [  ]
								}

							}
, 							{
								"patchline" : 								{
									"source" : [ "obj-7", 0 ],
									"destination" : [ "obj-10", 0 ],
									"hidden" : 1,
									"midpoints" : [  ]
								}

							}
 ]
					}
,
					"saved_object_attributes" : 					{
						"fontface" : 0,
						"fontsize" : 10.0,
						"default_fontface" : 0,
						"default_fontname" : "Arial",
						"fontname" : "Arial",
						"default_fontsize" : 10.0,
						"globalpatchername" : ""
					}

				}

			}
, 			{
				"box" : 				{
					"maxclass" : "newobj",
					"text" : "jcom.oscroute /panel/open",
					"fontsize" : 9.0,
					"hidden" : 1,
					"numinlets" : 1,
					"id" : "obj-18",
					"fontname" : "Arial",
					"numoutlets" : 2,
					"outlettype" : [ "", "" ],
					"patching_rect" : [ 164.0, 242.0, 160.0, 17.0 ]
				}

			}
, 			{
				"box" : 				{
					"maxclass" : "message",
					"text" : "/documentation/generate",
					"fontsize" : 9.0,
					"hidden" : 1,
					"numinlets" : 2,
					"id" : "obj-19",
					"fontname" : "Arial",
					"numoutlets" : 1,
					"outlettype" : [ "" ],
					"patching_rect" : [ 132.0, 124.0, 125.0, 15.0 ]
				}

			}
, 			{
				"box" : 				{
					"maxclass" : "comment",
					"text" : "command input",
					"fontsize" : 9.0,
					"hidden" : 1,
					"frgb" : [ 0.0, 0.0, 0.0, 1.0 ],
					"numinlets" : 1,
					"id" : "obj-21",
					"fontname" : "Arial",
					"numoutlets" : 0,
					"patching_rect" : [ 47.0, 113.0, 79.0, 17.0 ]
				}

			}
, 			{
				"box" : 				{
					"maxclass" : "inlet",
					"hidden" : 1,
					"numinlets" : 0,
					"id" : "obj-22",
					"numoutlets" : 1,
					"outlettype" : [ "" ],
					"patching_rect" : [ 24.0, 112.0, 22.0, 22.0 ],
					"comment" : ""
				}

			}
, 			{
				"box" : 				{
					"maxclass" : "inlet",
					"hidden" : 1,
					"numinlets" : 0,
					"id" : "obj-24",
					"numoutlets" : 1,
					"outlettype" : [ "" ],
					"patching_rect" : [ 461.0, 124.0, 22.0, 22.0 ],
					"comment" : ""
				}

			}
, 			{
				"box" : 				{
					"maxclass" : "comment",
					"text" : "Voices:",
					"presentation" : 1,
					"fontsize" : 9.0,
					"textcolor" : [ 0.67451, 0.67451, 0.67451, 1.0 ],
					"frgb" : [ 0.67451, 0.67451, 0.67451, 1.0 ],
					"numinlets" : 1,
					"presentation_rect" : [ 17.0, 20.0, 42.0, 17.0 ],
					"id" : "obj-25",
					"fontname" : "Arial",
					"numoutlets" : 0,
					"patching_rect" : [ 17.0, 20.0, 42.0, 17.0 ]
				}

			}
, 			{
				"box" : 				{
					"maxclass" : "newobj",
					"text" : "jalg.sur.output~",
					"fontsize" : 9.0,
					"hidden" : 1,
					"numinlets" : 2,
					"id" : "obj-27",
					"fontname" : "Arial",
					"numoutlets" : 0,
					"patching_rect" : [ 306.0, 410.0, 172.0, 17.0 ]
				}

			}
, 			{
				"box" : 				{
					"maxclass" : "comment",
					"text" : "multichannel signal input",
					"fontsize" : 9.0,
					"hidden" : 1,
					"frgb" : [ 0.0, 0.0, 0.0, 1.0 ],
					"numinlets" : 1,
					"id" : "obj-28",
					"fontname" : "Arial",
					"numoutlets" : 0,
					"patching_rect" : [ 338.0, 124.0, 126.0, 17.0 ]
				}

			}
, 			{
				"box" : 				{
					"maxclass" : "outlet",
					"hidden" : 1,
					"numinlets" : 1,
					"id" : "obj-29",
					"numoutlets" : 0,
					"patching_rect" : [ 24.0, 167.0, 20.0, 20.0 ],
					"comment" : ""
				}

			}
, 			{
				"box" : 				{
					"maxclass" : "newobj",
					"varname" : "voices",
					"text" : "jcom.parameter voices @type msg_int @repetitions 1 @range/bounds 2 32 @range/clipmode both @description \"Set number of output channels to use. Changes only take effect when audio is off.\"",
					"linecount" : 2,
					"fontsize" : 9.0,
					"hidden" : 1,
					"numinlets" : 1,
					"id" : "obj-31",
					"fontname" : "Arial",
					"numoutlets" : 3,
					"outlettype" : [ "", "", "" ],
					"patching_rect" : [ 506.0, 75.0, 600.0, 27.0 ]
				}

			}
, 			{
				"box" : 				{
					"maxclass" : "newobj",
					"varname" : "jcom.hub",
					"text" : "jcom.hub jmod.sur.output~ @description \"Send multicable signal to multiple dac channels.\"",
					"fontsize" : 9.0,
					"hidden" : 1,
					"numinlets" : 1,
					"id" : "obj-32",
					"fontname" : "Arial",
					"numoutlets" : 2,
					"outlettype" : [ "", "" ],
					"patching_rect" : [ 24.0, 143.0, 372.0, 17.0 ]
				}

			}
, 			{
				"box" : 				{
					"maxclass" : "jcom.ui",
					"text" : "/editing_this_module",
					"presentation" : 1,
					"has_mute" : 1,
					"numinlets" : 1,
					"presentation_rect" : [ 0.0, 0.0, 300.0, 70.0 ],
					"id" : "obj-36",
					"has_panel" : 1,
					"numoutlets" : 1,
					"outlettype" : [ "" ]
				}

			}
 ],
		"lines" : [ 			{
				"patchline" : 				{
					"source" : [ "obj-23", 0 ],
					"destination" : [ "obj-27", 0 ],
					"hidden" : 0,
					"midpoints" : [ 374.5, 348.0, 315.5, 348.0 ]
				}

			}
, 			{
				"patchline" : 				{
					"source" : [ "obj-20", 1 ],
					"destination" : [ "obj-27", 0 ],
					"hidden" : 0,
					"midpoints" : [ 411.5, 350.0, 315.5, 350.0 ]
				}

			}
, 			{
				"patchline" : 				{
					"source" : [ "obj-16", 1 ],
					"destination" : [ "obj-20", 0 ],
					"hidden" : 0,
					"midpoints" : [  ]
				}

			}
, 			{
				"patchline" : 				{
					"source" : [ "obj-20", 0 ],
					"destination" : [ "obj-23", 0 ],
					"hidden" : 0,
					"midpoints" : [  ]
				}

			}
, 			{
				"patchline" : 				{
					"source" : [ "obj-18", 0 ],
					"destination" : [ "obj-13", 0 ],
					"hidden" : 1,
					"midpoints" : [  ]
				}

			}
, 			{
				"patchline" : 				{
					"source" : [ "obj-8", 0 ],
					"destination" : [ "obj-18", 0 ],
					"hidden" : 1,
					"midpoints" : [  ]
				}

			}
, 			{
				"patchline" : 				{
					"source" : [ "obj-18", 1 ],
					"destination" : [ "obj-16", 0 ],
					"hidden" : 1,
					"midpoints" : [  ]
				}

			}
, 			{
				"patchline" : 				{
					"source" : [ "obj-5", 0 ],
					"destination" : [ "obj-4", 0 ],
					"hidden" : 1,
					"midpoints" : [  ]
				}

			}
, 			{
				"patchline" : 				{
					"source" : [ "obj-4", 0 ],
					"destination" : [ "obj-5", 0 ],
					"hidden" : 1,
					"midpoints" : [ 527.5, 280.0, 511.0, 280.0, 511.0, 223.0, 527.5, 223.0 ]
				}

			}
, 			{
				"patchline" : 				{
					"source" : [ "obj-6", 0 ],
					"destination" : [ "obj-7", 0 ],
					"hidden" : 1,
					"midpoints" : [  ]
				}

			}
, 			{
				"patchline" : 				{
					"source" : [ "obj-24", 0 ],
					"destination" : [ "obj-27", 1 ],
					"hidden" : 1,
					"midpoints" : [  ]
				}

			}
, 			{
				"patchline" : 				{
					"source" : [ "obj-15", 0 ],
					"destination" : [ "obj-27", 0 ],
					"hidden" : 1,
					"midpoints" : [  ]
				}

			}
, 			{
				"patchline" : 				{
					"source" : [ "obj-16", 0 ],
					"destination" : [ "obj-15", 0 ],
					"hidden" : 1,
					"midpoints" : [  ]
				}

			}
, 			{
				"patchline" : 				{
					"source" : [ "obj-17", 0 ],
					"destination" : [ "obj-14", 0 ],
					"hidden" : 1,
					"midpoints" : [  ]
				}

			}
, 			{
				"patchline" : 				{
					"source" : [ "obj-13", 0 ],
					"destination" : [ "obj-17", 0 ],
					"hidden" : 1,
					"midpoints" : [  ]
				}

			}
, 			{
				"patchline" : 				{
					"source" : [ "obj-33", 0 ],
					"destination" : [ "obj-13", 0 ],
					"hidden" : 1,
					"midpoints" : [ 17.5, 245.0, 144.5, 245.0 ]
				}

			}
, 			{
				"patchline" : 				{
					"source" : [ "obj-1", 0 ],
					"destination" : [ "obj-32", 0 ],
					"hidden" : 1,
					"midpoints" : [ 131.5, 142.0, 33.5, 142.0 ]
				}

			}
, 			{
				"patchline" : 				{
					"source" : [ "obj-19", 0 ],
					"destination" : [ "obj-32", 0 ],
					"hidden" : 1,
					"midpoints" : [ 141.5, 140.0, 33.5, 140.0 ]
				}

			}
, 			{
				"patchline" : 				{
					"source" : [ "obj-22", 0 ],
					"destination" : [ "obj-32", 0 ],
					"hidden" : 1,
					"midpoints" : [  ]
				}

			}
, 			{
				"patchline" : 				{
					"source" : [ "obj-32", 0 ],
					"destination" : [ "obj-29", 0 ],
					"hidden" : 1,
					"midpoints" : [  ]
				}

			}
, 			{
				"patchline" : 				{
					"source" : [ "obj-31", 0 ],
					"destination" : [ "obj-6", 0 ],
					"hidden" : 1,
					"midpoints" : [  ]
				}

			}
, 			{
				"patchline" : 				{
					"source" : [ "obj-37", 0 ],
					"destination" : [ "obj-31", 0 ],
					"hidden" : 0,
					"midpoints" : [  ]
				}

			}
, 			{
				"patchline" : 				{
					"source" : [ "obj-31", 0 ],
					"destination" : [ "obj-37", 0 ],
					"hidden" : 0,
					"midpoints" : [  ]
				}

			}
, 			{
				"patchline" : 				{
					"source" : [ "obj-38", 0 ],
					"destination" : [ "obj-9", 0 ],
					"hidden" : 0,
					"midpoints" : [  ]
				}

			}
, 			{
				"patchline" : 				{
					"source" : [ "obj-9", 0 ],
					"destination" : [ "obj-38", 0 ],
					"hidden" : 0,
					"midpoints" : [  ]
				}

			}
 ]
	}

}
