{
	"patcher" : 	{
		"fileversion" : 1,
		"rect" : [ 370.0, 444.0, 508.0, 464.0 ],
		"bglocked" : 0,
		"defrect" : [ 370.0, 444.0, 508.0, 464.0 ],
		"openrect" : [ 0.0, 0.0, 0.0, 0.0 ],
		"openinpresentation" : 1,
		"default_fontsize" : 10.970939,
		"default_fontface" : 0,
		"default_fontname" : "Verdana",
		"gridonopen" : 0,
		"gridsize" : [ 5.0, 5.0 ],
		"gridsnaponopen" : 0,
		"toolbarvisible" : 1,
		"boxanimatetime" : 200,
		"imprint" : 0,
		"metadata" : [  ],
		"boxes" : [ 			{
				"box" : 				{
					"maxclass" : "jit.pwindow",
					"numinlets" : 1,
					"patching_rect" : [ 233.0, 21.0, 60.0, 45.0 ],
					"presentation" : 1,
					"numoutlets" : 2,
					"id" : "obj-28",
					"outlettype" : [ "", "" ],
					"presentation_rect" : [ 235.0, 21.0, 60.0, 45.0 ]
				}

			}
, 			{
				"box" : 				{
					"maxclass" : "newobj",
					"text" : "jcom.in 1",
					"numinlets" : 1,
					"fontsize" : 9.873845,
					"patching_rect" : [ 361.0, 103.0, 55.0, 18.0 ],
					"numoutlets" : 3,
					"id" : "obj-1",
					"outlettype" : [ "", "", "" ],
					"fontname" : "Verdana"
				}

			}
, 			{
				"box" : 				{
					"maxclass" : "jsui",
					"varname" : "fullscreen",
					"numinlets" : 1,
					"patching_rect" : [ 27.0, 248.0, 45.0, 15.0 ],
					"presentation" : 1,
					"numoutlets" : 2,
					"id" : "obj-2",
					"outlettype" : [ "", "" ],
					"jsarguments" : [ "fullscreen", "fullscreen" ],
					"filename" : "jcom.jsui_texttoggle.js",
					"presentation_rect" : [ 65.0, 35.0, 45.0, 15.0 ]
				}

			}
, 			{
				"box" : 				{
					"maxclass" : "jsui",
					"varname" : "interpolate",
					"numinlets" : 1,
					"patching_rect" : [ 30.0, 327.0, 50.0, 15.0 ],
					"presentation" : 1,
					"numoutlets" : 2,
					"id" : "obj-3",
					"outlettype" : [ "", "" ],
					"jsarguments" : [ "interpolate", "interpolate" ],
					"filename" : "jcom.jsui_texttoggle.js",
					"presentation_rect" : [ 143.0, 35.0, 50.0, 15.0 ]
				}

			}
, 			{
				"box" : 				{
					"maxclass" : "newobj",
					"text" : "pcontrol",
					"numinlets" : 1,
					"fontsize" : 9.873845,
					"patching_rect" : [ 189.0, 171.0, 49.0, 18.0 ],
					"numoutlets" : 1,
					"id" : "obj-4",
					"outlettype" : [ "" ],
					"fontname" : "Verdana"
				}

			}
, 			{
				"box" : 				{
					"maxclass" : "newobj",
					"text" : "jcom.pass open",
					"numinlets" : 1,
					"fontsize" : 9.873845,
					"patching_rect" : [ 189.0, 148.0, 86.0, 18.0 ],
					"numoutlets" : 2,
					"id" : "obj-5",
					"outlettype" : [ "", "" ],
					"fontname" : "Verdana"
				}

			}
, 			{
				"box" : 				{
					"maxclass" : "newobj",
					"varname" : "interpolate[1]",
					"text" : "jcom.parameter interpolate @type msg_toggle @description \"Interpolate the video output\"",
					"linecount" : 2,
					"numinlets" : 1,
					"fontsize" : 9.873845,
					"patching_rect" : [ 28.0, 346.0, 245.0, 30.0 ],
					"numoutlets" : 3,
					"id" : "obj-7",
					"outlettype" : [ "", "", "" ],
					"fontname" : "Verdana"
				}

			}
, 			{
				"box" : 				{
					"maxclass" : "newobj",
					"varname" : "fullscreen[1]",
					"text" : "jcom.parameter fullscreen @type msg_toggle @description \"Toggle fullscreen - can be turned on and off with the ESC key.\"",
					"linecount" : 2,
					"numinlets" : 1,
					"fontsize" : 9.873845,
					"patching_rect" : [ 27.0, 266.0, 328.0, 30.0 ],
					"numoutlets" : 3,
					"id" : "obj-9",
					"outlettype" : [ "", "", "" ],
					"fontname" : "Verdana"
				}

			}
, 			{
				"box" : 				{
					"maxclass" : "message",
					"text" : "/documentation/generate",
					"numinlets" : 2,
					"fontsize" : 9.873845,
					"patching_rect" : [ 99.0, 86.0, 135.0, 16.0 ],
					"bgcolor" : [ 0.8, 0.54902, 0.54902, 1.0 ],
					"numoutlets" : 1,
					"id" : "obj-10",
					"outlettype" : [ "" ],
					"fontname" : "Verdana"
				}

			}
, 			{
				"box" : 				{
					"maxclass" : "inlet",
					"numinlets" : 0,
					"patching_rect" : [ 378.0, 172.0, 13.0, 13.0 ],
					"numoutlets" : 1,
					"id" : "obj-11",
					"outlettype" : [ "" ],
					"comment" : ""
				}

			}
, 			{
				"box" : 				{
					"maxclass" : "comment",
					"text" : "VIDEO INPUT",
					"numinlets" : 1,
					"fontsize" : 9.873845,
					"patching_rect" : [ 393.0, 173.0, 75.0, 18.0 ],
					"numoutlets" : 0,
					"id" : "obj-12",
					"fontname" : "Verdana"
				}

			}
, 			{
				"box" : 				{
					"maxclass" : "newobj",
					"text" : "jalg.output%",
					"numinlets" : 2,
					"fontsize" : 9.873845,
					"patching_rect" : [ 189.0, 200.0, 199.0, 18.0 ],
					"numoutlets" : 1,
					"id" : "obj-13",
					"outlettype" : [ "" ],
					"fontname" : "Verdana"
				}

			}
, 			{
				"box" : 				{
					"maxclass" : "message",
					"text" : ";\rjcom.init bang",
					"linecount" : 2,
					"numinlets" : 2,
					"fontsize" : 9.873845,
					"patching_rect" : [ 348.0, 333.0, 80.0, 28.0 ],
					"bgcolor" : [ 0.8, 0.54902, 0.54902, 1.0 ],
					"numoutlets" : 1,
					"id" : "obj-14",
					"outlettype" : [ "" ],
					"fontname" : "Verdana"
				}

			}
, 			{
				"box" : 				{
					"maxclass" : "comment",
					"text" : "command input",
					"numinlets" : 1,
					"fontsize" : 9.873845,
					"patching_rect" : [ 15.0, 84.0, 86.0, 18.0 ],
					"numoutlets" : 0,
					"id" : "obj-15",
					"fontname" : "Verdana"
				}

			}
, 			{
				"box" : 				{
					"maxclass" : "newobj",
					"varname" : "jcom.hub",
					"text" : "jcom.hub jcom.output% @module_type video orithm_type jitter @description \"Output to an OpenGL window\"",
					"linecount" : 4,
					"numinlets" : 1,
					"fontsize" : 9.873845,
					"patching_rect" : [ 1.0, 109.0, 173.0, 54.0 ],
					"numoutlets" : 2,
					"id" : "obj-16",
					"outlettype" : [ "", "" ],
					"fontname" : "Verdana"
				}

			}
, 			{
				"box" : 				{
					"maxclass" : "outlet",
					"numinlets" : 1,
					"patching_rect" : [ 1.0, 171.0, 13.0, 13.0 ],
					"numoutlets" : 0,
					"id" : "obj-17",
					"comment" : ""
				}

			}
, 			{
				"box" : 				{
					"maxclass" : "inlet",
					"numinlets" : 0,
					"patching_rect" : [ 1.0, 84.0, 13.0, 13.0 ],
					"numoutlets" : 1,
					"id" : "obj-18",
					"outlettype" : [ "" ],
					"comment" : ""
				}

			}
, 			{
				"box" : 				{
					"maxclass" : "jcom.ui",
					"text" : "/editing_this_module",
					"prefix" : "video",
					"numinlets" : 1,
					"presentation" : 1,
					"has_mute" : 1,
					"numoutlets" : 1,
					"id" : "obj-34",
					"has_preview" : 1,
					"outlettype" : [ "" ],
					"has_bypass" : 1,
					"presentation_rect" : [ 0.0, 0.0, 300.0, 70.0 ],
					"has_freeze" : 1,
					"color" : [ 1.0, 1.0, 1.0, 1.0 ]
				}

			}
 ],
		"lines" : [ 			{
				"patchline" : 				{
					"source" : [ "obj-34", 0 ],
					"destination" : [ "obj-28", 0 ],
					"hidden" : 0,
					"midpoints" : [  ]
				}

			}
, 			{
				"patchline" : 				{
					"source" : [ "obj-16", 0 ],
					"destination" : [ "obj-17", 0 ],
					"hidden" : 0,
					"midpoints" : [  ]
				}

			}
, 			{
				"patchline" : 				{
					"source" : [ "obj-18", 0 ],
					"destination" : [ "obj-16", 0 ],
					"hidden" : 0,
					"midpoints" : [  ]
				}

			}
, 			{
				"patchline" : 				{
					"source" : [ "obj-10", 0 ],
					"destination" : [ "obj-16", 0 ],
					"hidden" : 0,
					"midpoints" : [ 108.5, 105.0, 10.5, 105.0 ]
				}

			}
, 			{
				"patchline" : 				{
					"source" : [ "obj-7", 0 ],
					"destination" : [ "obj-3", 0 ],
					"hidden" : 0,
					"midpoints" : [ 37.5, 378.0, 15.0, 378.0, 15.0, 324.0, 39.5, 324.0 ]
				}

			}
, 			{
				"patchline" : 				{
					"source" : [ "obj-3", 0 ],
					"destination" : [ "obj-7", 0 ],
					"hidden" : 0,
					"midpoints" : [  ]
				}

			}
, 			{
				"patchline" : 				{
					"source" : [ "obj-9", 0 ],
					"destination" : [ "obj-2", 0 ],
					"hidden" : 0,
					"midpoints" : [ 36.5, 297.0, 12.0, 297.0, 12.0, 243.0, 36.5, 243.0 ]
				}

			}
, 			{
				"patchline" : 				{
					"source" : [ "obj-2", 0 ],
					"destination" : [ "obj-9", 0 ],
					"hidden" : 0,
					"midpoints" : [  ]
				}

			}
, 			{
				"patchline" : 				{
					"source" : [ "obj-1", 1 ],
					"destination" : [ "obj-5", 0 ],
					"hidden" : 0,
					"midpoints" : [  ]
				}

			}
, 			{
				"patchline" : 				{
					"source" : [ "obj-5", 0 ],
					"destination" : [ "obj-4", 0 ],
					"hidden" : 0,
					"midpoints" : [  ]
				}

			}
, 			{
				"patchline" : 				{
					"source" : [ "obj-5", 1 ],
					"destination" : [ "obj-13", 0 ],
					"hidden" : 0,
					"midpoints" : [ 265.5, 193.0, 198.5, 193.0 ]
				}

			}
, 			{
				"patchline" : 				{
					"source" : [ "obj-4", 0 ],
					"destination" : [ "obj-13", 0 ],
					"hidden" : 0,
					"midpoints" : [  ]
				}

			}
, 			{
				"patchline" : 				{
					"source" : [ "obj-1", 0 ],
					"destination" : [ "obj-13", 1 ],
					"hidden" : 0,
					"midpoints" : [  ]
				}

			}
, 			{
				"patchline" : 				{
					"source" : [ "obj-11", 0 ],
					"destination" : [ "obj-13", 1 ],
					"hidden" : 0,
					"midpoints" : [  ]
				}

			}
 ]
	}

}
