{
	"patcher" : 	{
		"fileversion" : 1,
		"rect" : [ 175.0, 84.0, 530.0, 684.0 ],
		"bglocked" : 0,
		"defrect" : [ 175.0, 84.0, 530.0, 684.0 ],
		"openrect" : [ 0.0, 0.0, 0.0, 0.0 ],
		"openinpresentation" : 1,
		"default_fontsize" : 10.970939,
		"default_fontface" : 0,
		"default_fontname" : "Verdana",
		"gridonopen" : 0,
		"gridsize" : [ 5.0, 5.0 ],
		"gridsnaponopen" : 0,
		"toolbarvisible" : 1,
		"boxanimatetime" : 200,
		"imprint" : 0,
		"metadata" : [  ],
		"boxes" : [ 			{
				"box" : 				{
					"maxclass" : "message",
					"text" : "/preset/store 1 default, /preset/write",
					"numinlets" : 2,
					"id" : "obj-23",
					"fontname" : "Verdana",
					"numoutlets" : 1,
					"outlettype" : [ "" ],
					"fontsize" : 9.873845,
					"patching_rect" : [ 5.0, 100.0, 243.0, 16.0 ]
				}

			}
, 			{
				"box" : 				{
					"maxclass" : "comment",
					"text" : "Context :",
					"presentation" : 1,
					"numinlets" : 1,
					"id" : "obj-24",
					"fontname" : "Verdana",
					"frgb" : [ 0.933333, 0.937255, 0.968627, 1.0 ],
					"numoutlets" : 0,
					"presentation_rect" : [ 15.0, 45.0, 62.0, 20.0 ],
					"fontsize" : 10.970939,
					"patching_rect" : [ 130.0, 480.0, 150.0, 20.0 ]
				}

			}
, 			{
				"box" : 				{
					"maxclass" : "newobj",
					"varname" : "interpolate[2]",
					"text" : "jcom.parameter context @type msg_symbol @description \"Name of the window and rendering context\"",
					"linecount" : 3,
					"numinlets" : 1,
					"id" : "obj-22",
					"fontname" : "Verdana",
					"numoutlets" : 3,
					"outlettype" : [ "", "", "" ],
					"fontsize" : 9.873845,
					"patching_rect" : [ 115.0, 565.0, 245.0, 42.0 ]
				}

			}
, 			{
				"box" : 				{
					"maxclass" : "newobj",
					"text" : "route text",
					"numinlets" : 1,
					"id" : "obj-21",
					"fontname" : "Verdana",
					"numoutlets" : 2,
					"outlettype" : [ "", "" ],
					"fontsize" : 10.970939,
					"patching_rect" : [ 115.0, 535.0, 100.0, 20.0 ]
				}

			}
, 			{
				"box" : 				{
					"maxclass" : "textedit",
					"text" : "this_context",
					"presentation" : 1,
					"numinlets" : 1,
					"id" : "obj-20",
					"fontname" : "Verdana",
					"frgb" : [ 0.933333, 0.937255, 0.968627, 1.0 ],
					"numoutlets" : 4,
					"presentation_rect" : [ 75.0, 45.0, 127.0, 20.0 ],
					"outlettype" : [ "", "int", "", "" ],
					"fontsize" : 10.970939,
					"patching_rect" : [ 115.0, 505.0, 109.0, 20.0 ]
				}

			}
, 			{
				"box" : 				{
					"maxclass" : "textbutton",
					"varname" : "interpolate",
					"prototypename" : "jamoma on off",
					"presentation" : 1,
					"texton" : "interpolate",
					"rounded" : 8.0,
					"numinlets" : 1,
					"id" : "obj-8",
					"fontname" : "Verdana",
					"numoutlets" : 3,
					"mode" : 1,
					"border" : 1,
					"presentation_rect" : [ 135.0, 25.0, 68.84684, 16.0 ],
					"outlettype" : [ "", "", "int" ],
					"text" : "interpolate",
					"fontsize" : 10.0,
					"patching_rect" : [ 31.0, 361.0, 68.466904, 17.933016 ]
				}

			}
, 			{
				"box" : 				{
					"maxclass" : "textbutton",
					"varname" : "fullscreen",
					"prototypename" : "jamoma settings",
					"presentation" : 1,
					"texton" : "fullscreen",
					"rounded" : 8.0,
					"numinlets" : 1,
					"id" : "obj-6",
					"fontname" : "Verdana",
					"numoutlets" : 3,
					"mode" : 1,
					"border" : 1,
					"presentation_rect" : [ 54.394554, 25.0, 64.251328, 16.0 ],
					"outlettype" : [ "", "", "int" ],
					"text" : "fullscreen",
					"fontsize" : 10.0,
					"patching_rect" : [ 27.0, 279.0, 68.287193, 19.000002 ]
				}

			}
, 			{
				"box" : 				{
					"maxclass" : "jit.pwindow",
					"presentation" : 1,
					"numinlets" : 1,
					"id" : "obj-28",
					"numoutlets" : 2,
					"presentation_rect" : [ 235.0, 21.0, 60.0, 45.0 ],
					"outlettype" : [ "", "" ],
					"patching_rect" : [ 233.0, 21.0, 60.0, 45.0 ]
				}

			}
, 			{
				"box" : 				{
					"maxclass" : "newobj",
					"text" : "jcom.in 1",
					"numinlets" : 1,
					"id" : "obj-1",
					"fontname" : "Verdana",
					"numoutlets" : 3,
					"outlettype" : [ "", "", "" ],
					"fontsize" : 9.873845,
					"patching_rect" : [ 230.0, 180.0, 55.0, 18.0 ]
				}

			}
, 			{
				"box" : 				{
					"maxclass" : "newobj",
					"varname" : "interpolate[1]",
					"text" : "jcom.parameter interpolate @type msg_toggle @description \"Interpolate the video output\"",
					"linecount" : 2,
					"numinlets" : 1,
					"id" : "obj-7",
					"fontname" : "Verdana",
					"numoutlets" : 3,
					"outlettype" : [ "", "", "" ],
					"fontsize" : 9.873845,
					"patching_rect" : [ 28.0, 386.0, 245.0, 30.0 ]
				}

			}
, 			{
				"box" : 				{
					"maxclass" : "newobj",
					"varname" : "fullscreen[1]",
					"text" : "jcom.parameter fullscreen @type msg_toggle @description \"Toggle fullscreen - can be turned on and off with the ESC key.\"",
					"linecount" : 2,
					"numinlets" : 1,
					"id" : "obj-9",
					"fontname" : "Verdana",
					"numoutlets" : 3,
					"outlettype" : [ "", "", "" ],
					"fontsize" : 9.873845,
					"patching_rect" : [ 27.0, 306.0, 328.0, 30.0 ]
				}

			}
, 			{
				"box" : 				{
					"maxclass" : "message",
					"text" : "/documentation/generate",
					"numinlets" : 2,
					"id" : "obj-10",
					"fontname" : "Verdana",
					"numoutlets" : 1,
					"outlettype" : [ "" ],
					"fontsize" : 9.873845,
					"bgcolor" : [ 0.8, 0.54902, 0.54902, 1.0 ],
					"patching_rect" : [ 99.0, 126.0, 135.0, 16.0 ]
				}

			}
, 			{
				"box" : 				{
					"maxclass" : "inlet",
					"numinlets" : 0,
					"id" : "obj-11",
					"numoutlets" : 1,
					"outlettype" : [ "" ],
					"patching_rect" : [ 260.0, 209.0, 13.0, 13.0 ],
					"comment" : ""
				}

			}
, 			{
				"box" : 				{
					"maxclass" : "comment",
					"text" : "VIDEO INPUT",
					"numinlets" : 1,
					"id" : "obj-12",
					"fontname" : "Verdana",
					"frgb" : [ 0.933333, 0.937255, 0.968627, 1.0 ],
					"numoutlets" : 0,
					"fontsize" : 9.873845,
					"patching_rect" : [ 275.0, 210.0, 75.0, 18.0 ]
				}

			}
, 			{
				"box" : 				{
					"maxclass" : "newobj",
					"text" : "jalg.output%",
					"numinlets" : 2,
					"id" : "obj-13",
					"fontname" : "Verdana",
					"numoutlets" : 1,
					"outlettype" : [ "" ],
					"fontsize" : 9.873845,
					"patching_rect" : [ 180.0, 235.0, 75.0, 18.0 ]
				}

			}
, 			{
				"box" : 				{
					"maxclass" : "message",
					"text" : ";\rjcom.init bang",
					"linecount" : 2,
					"numinlets" : 2,
					"id" : "obj-14",
					"fontname" : "Verdana",
					"numoutlets" : 1,
					"outlettype" : [ "" ],
					"fontsize" : 9.873845,
					"bgcolor" : [ 0.8, 0.54902, 0.54902, 1.0 ],
					"patching_rect" : [ 348.0, 373.0, 80.0, 28.0 ]
				}

			}
, 			{
				"box" : 				{
					"maxclass" : "comment",
					"text" : "command input",
					"numinlets" : 1,
					"id" : "obj-15",
					"fontname" : "Verdana",
					"frgb" : [ 0.933333, 0.937255, 0.968627, 1.0 ],
					"numoutlets" : 0,
					"fontsize" : 9.873845,
					"patching_rect" : [ 15.0, 124.0, 86.0, 18.0 ]
				}

			}
, 			{
				"box" : 				{
					"maxclass" : "newobj",
					"varname" : "jcom.hub",
					"text" : "jcom.hub @module_type video @algorithm_type jitter @description \"Output to an OpenGL window\"",
					"linecount" : 4,
					"numinlets" : 1,
					"id" : "obj-16",
					"fontname" : "Verdana",
					"numoutlets" : 2,
					"outlettype" : [ "", "" ],
					"fontsize" : 9.873845,
					"patching_rect" : [ 1.0, 149.0, 173.0, 54.0 ]
				}

			}
, 			{
				"box" : 				{
					"maxclass" : "outlet",
					"numinlets" : 1,
					"id" : "obj-17",
					"numoutlets" : 0,
					"patching_rect" : [ 1.0, 211.0, 13.0, 13.0 ],
					"comment" : ""
				}

			}
, 			{
				"box" : 				{
					"maxclass" : "inlet",
					"numinlets" : 0,
					"id" : "obj-18",
					"numoutlets" : 1,
					"outlettype" : [ "" ],
					"patching_rect" : [ 1.0, 124.0, 13.0, 13.0 ],
					"comment" : ""
				}

			}
, 			{
				"box" : 				{
					"maxclass" : "jcom.ui",
					"text" : "/editing_this_module",
					"presentation" : 1,
					"has_bypass" : 1,
					"numinlets" : 1,
					"prefix" : "video",
					"id" : "obj-34",
					"numoutlets" : 1,
					"has_freeze" : 1,
					"presentation_rect" : [ 0.0, 0.0, 300.0, 70.0 ],
					"outlettype" : [ "" ],
					"has_mute" : 1,
					"has_preview" : 1
				}

			}
 ],
		"lines" : [ 			{
				"patchline" : 				{
					"source" : [ "obj-1", 1 ],
					"destination" : [ "obj-13", 0 ],
					"hidden" : 0,
					"midpoints" : [  ]
				}

			}
, 			{
				"patchline" : 				{
					"source" : [ "obj-34", 0 ],
					"destination" : [ "obj-28", 0 ],
					"hidden" : 0,
					"midpoints" : [  ]
				}

			}
, 			{
				"patchline" : 				{
					"source" : [ "obj-6", 0 ],
					"destination" : [ "obj-9", 0 ],
					"hidden" : 0,
					"midpoints" : [  ]
				}

			}
, 			{
				"patchline" : 				{
					"source" : [ "obj-8", 0 ],
					"destination" : [ "obj-7", 0 ],
					"hidden" : 0,
					"midpoints" : [  ]
				}

			}
, 			{
				"patchline" : 				{
					"source" : [ "obj-9", 0 ],
					"destination" : [ "obj-6", 0 ],
					"hidden" : 0,
					"midpoints" : [ 36.5, 346.0, 13.0, 346.0, 13.0, 259.0, 36.5, 259.0 ]
				}

			}
, 			{
				"patchline" : 				{
					"source" : [ "obj-7", 0 ],
					"destination" : [ "obj-8", 0 ],
					"hidden" : 0,
					"midpoints" : [ 37.5, 426.0, 18.0, 426.0, 18.0, 355.0, 40.5, 355.0 ]
				}

			}
, 			{
				"patchline" : 				{
					"source" : [ "obj-16", 0 ],
					"destination" : [ "obj-17", 0 ],
					"hidden" : 0,
					"midpoints" : [  ]
				}

			}
, 			{
				"patchline" : 				{
					"source" : [ "obj-18", 0 ],
					"destination" : [ "obj-16", 0 ],
					"hidden" : 0,
					"midpoints" : [  ]
				}

			}
, 			{
				"patchline" : 				{
					"source" : [ "obj-10", 0 ],
					"destination" : [ "obj-16", 0 ],
					"hidden" : 0,
					"midpoints" : [ 108.5, 145.0, 10.5, 145.0 ]
				}

			}
, 			{
				"patchline" : 				{
					"source" : [ "obj-1", 0 ],
					"destination" : [ "obj-13", 1 ],
					"hidden" : 0,
					"midpoints" : [  ]
				}

			}
, 			{
				"patchline" : 				{
					"source" : [ "obj-11", 0 ],
					"destination" : [ "obj-13", 1 ],
					"hidden" : 0,
					"midpoints" : [  ]
				}

			}
, 			{
				"patchline" : 				{
					"source" : [ "obj-20", 0 ],
					"destination" : [ "obj-21", 0 ],
					"hidden" : 0,
					"midpoints" : [  ]
				}

			}
, 			{
				"patchline" : 				{
					"source" : [ "obj-21", 0 ],
					"destination" : [ "obj-22", 0 ],
					"hidden" : 0,
					"midpoints" : [  ]
				}

			}
, 			{
				"patchline" : 				{
					"source" : [ "obj-22", 0 ],
					"destination" : [ "obj-20", 0 ],
					"hidden" : 0,
					"midpoints" : [ 124.5, 614.0, 104.0, 614.0, 104.0, 499.0, 124.5, 499.0 ]
				}

			}
, 			{
				"patchline" : 				{
					"source" : [ "obj-23", 0 ],
					"destination" : [ "obj-16", 0 ],
					"hidden" : 0,
					"midpoints" : [ 14.5, 117.0, 0.0, 117.0, 0.0, 120.0, -3.0, 120.0, -3.0, 138.0, 6.0, 138.0, 6.0, 144.0, 10.5, 144.0 ]
				}

			}
 ]
	}

}
