max v2;
#N vpatcher 133 158 646 416;
#P window setfont "Sans Serif" 9.;
#P window linecount 1;
#P newex 40 77 284 196617 jcom.pass mode lookahead preamp postamp release threshold;
#P outlet 40 184 15 0;
#P outlet 388 184 15 0;
#P outlet 348 184 15 0;
#P inlet 40 42 15 0;
#P inlet 429 42 15 0;
#P inlet 348 42 15 0;
#P newex 348 131 91 196617 jcom.limiter~;
#P connect 3 0 7 0;
#P connect 1 0 0 0;
#P fasten 7 0 0 0 45 110 353 110;
#P fasten 7 1 0 0 90 110 353 110;
#P fasten 7 2 0 0 135 110 353 110;
#P fasten 7 3 0 0 180 110 353 110;
#P fasten 7 4 0 0 225 110 353 110;
#P fasten 7 5 0 0 270 110 353 110;
#P connect 0 0 4 0;
#P connect 0 1 5 0;
#P connect 2 0 0 1;
#P pop;
