{
	"patcher" : 	{
		"rect" : [ 309.0, 73.0, 789.0, 666.0 ],
		"bglocked" : 0,
		"defrect" : [ 309.0, 73.0, 789.0, 666.0 ],
		"openinpresentation" : 0,
		"default_fontsize" : 10.0,
		"default_fontface" : 0,
		"default_fontname" : "Verdana",
		"gridonopen" : 0,
		"gridsize" : [ 5.0, 5.0 ],
		"gridsnaponopen" : 0,
		"toolbarvisible" : 1,
		"boxfadetime" : 200,
		"boxanimatetime" : 200,
		"scrollanimatetime" : 200,
		"metadata" : [  ],
		"boxes" : [ 			{
				"box" : 				{
					"maxclass" : "newobj",
					"text" : "s jmod.limi.cmd",
					"hidden" : 1,
					"patching_rect" : [ 675.0, 522.0, 99.0, 17.0 ],
					"fontname" : "Verdana",
					"id" : "obj-1",
					"numinlets" : 1,
					"numoutlets" : 0,
					"fontsize" : 9.0
				}

			}
, 			{
				"box" : 				{
					"maxclass" : "bpatcher",
					"outlettype" : [ "" ],
					"patching_rect" : [ 404.0, 518.0, 374.0, 143.0 ],
					"args" : [ "\/preamp" ],
					"id" : "obj-2",
					"numinlets" : 0,
					"numoutlets" : 1,
					"name" : "jmod.attr_params.maxpat"
				}

			}
, 			{
				"box" : 				{
					"maxclass" : "newobj",
					"text" : "s jmod.limi.cmd",
					"hidden" : 1,
					"patching_rect" : [ 280.0, 323.0, 99.0, 17.0 ],
					"fontname" : "Verdana",
					"id" : "obj-3",
					"numinlets" : 1,
					"numoutlets" : 0,
					"fontsize" : 9.0
				}

			}
, 			{
				"box" : 				{
					"maxclass" : "bpatcher",
					"outlettype" : [ "" ],
					"patching_rect" : [ 21.0, 314.0, 374.0, 347.0 ],
					"args" : [ "jmod.limiter~" ],
					"id" : "obj-4",
					"numinlets" : 0,
					"numoutlets" : 1,
					"name" : "jmod.preset_params.maxpat"
				}

			}
, 			{
				"box" : 				{
					"maxclass" : "newobj",
					"text" : "s jmod.limi.cmd",
					"hidden" : 1,
					"patching_rect" : [ 279.0, 94.0, 99.0, 17.0 ],
					"fontname" : "Verdana",
					"id" : "obj-5",
					"numinlets" : 1,
					"numoutlets" : 0,
					"fontsize" : 9.0
				}

			}
, 			{
				"box" : 				{
					"maxclass" : "bpatcher",
					"outlettype" : [ "" ],
					"patching_rect" : [ 21.0, 89.0, 374.0, 221.0 ],
					"args" : [  ],
					"id" : "obj-6",
					"numinlets" : 0,
					"numoutlets" : 1,
					"name" : "jmod.gain_params.maxpat"
				}

			}
, 			{
				"box" : 				{
					"maxclass" : "comment",
					"text" : "jmod.limiter~",
					"patching_rect" : [ 28.0, 30.0, 274.0, 28.0 ],
					"frgb" : [ 1.0, 1.0, 1.0, 1.0 ],
					"fontname" : "Verdana",
					"id" : "obj-7",
					"numinlets" : 1,
					"textcolor" : [ 1.0, 1.0, 1.0, 1.0 ],
					"numoutlets" : 0,
					"fontsize" : 15.799999
				}

			}
, 			{
				"box" : 				{
					"maxclass" : "comment",
					"text" : "stereo limiter",
					"patching_rect" : [ 28.0, 63.0, 298.0, 18.0 ],
					"frgb" : [ 1.0, 1.0, 1.0, 1.0 ],
					"fontname" : "Verdana",
					"id" : "obj-8",
					"numinlets" : 1,
					"textcolor" : [ 1.0, 1.0, 1.0, 1.0 ],
					"numoutlets" : 0,
					"fontsize" : 9.0
				}

			}
, 			{
				"box" : 				{
					"maxclass" : "panel",
					"rounded" : 0,
					"bordercolor" : [ 0.501961, 0.043137, 0.039216, 1.0 ],
					"patching_rect" : [ 21.0, 21.0, 273.0, 63.0 ],
					"id" : "obj-9",
					"numinlets" : 1,
					"numoutlets" : 0,
					"bgcolor" : [ 0.262745, 0.254902, 0.419608, 1.0 ]
				}

			}
, 			{
				"box" : 				{
					"maxclass" : "message",
					"text" : "\/mode linear",
					"outlettype" : [ "" ],
					"patching_rect" : [ 660.0, 416.0, 68.0, 15.0 ],
					"fontname" : "Verdana",
					"id" : "obj-10",
					"numinlets" : 2,
					"numoutlets" : 1,
					"fontsize" : 9.0
				}

			}
, 			{
				"box" : 				{
					"maxclass" : "message",
					"text" : "\/mode exponential",
					"outlettype" : [ "" ],
					"patching_rect" : [ 660.0, 398.0, 93.0, 15.0 ],
					"fontname" : "Verdana",
					"id" : "obj-11",
					"numinlets" : 2,
					"numoutlets" : 1,
					"fontsize" : 9.0
				}

			}
, 			{
				"box" : 				{
					"maxclass" : "bpatcher",
					"varname" : "jmod.control",
					"outlettype" : [ "" ],
					"patching_rect" : [ 453.0, 19.0, 302.0, 72.0 ],
					"args" : [ "\/control" ],
					"id" : "obj-12",
					"numinlets" : 1,
					"numoutlets" : 1,
					"name" : "jmod.control.maxpat"
				}

			}
, 			{
				"box" : 				{
					"maxclass" : "newobj",
					"text" : "dac~ 1 2",
					"patching_rect" : [ 593.0, 330.0, 161.0, 17.0 ],
					"fontname" : "Verdana",
					"id" : "obj-13",
					"numinlets" : 2,
					"numoutlets" : 0,
					"fontsize" : 9.0
				}

			}
, 			{
				"box" : 				{
					"maxclass" : "bpatcher",
					"varname" : "jmod.input~",
					"outlettype" : [ "", "", "" ],
					"patching_rect" : [ 452.0, 92.0, 303.0, 143.0 ],
					"args" : [ "\/input~" ],
					"id" : "obj-14",
					"numinlets" : 1,
					"numoutlets" : 3,
					"name" : "jmod.input~.maxpat"
				}

			}
, 			{
				"box" : 				{
					"maxclass" : "newobj",
					"text" : "s jmod.limi.cmd",
					"hidden" : 1,
					"patching_rect" : [ 663.0, 368.0, 80.0, 17.0 ],
					"fontname" : "Verdana",
					"id" : "obj-15",
					"numinlets" : 1,
					"numoutlets" : 0,
					"fontsize" : 9.0
				}

			}
, 			{
				"box" : 				{
					"maxclass" : "newobj",
					"text" : "r jmod.limi.cmd",
					"outlettype" : [ "" ],
					"patching_rect" : [ 451.0, 237.0, 80.0, 17.0 ],
					"fontname" : "Verdana",
					"id" : "obj-16",
					"numinlets" : 0,
					"numoutlets" : 1,
					"fontsize" : 9.0
				}

			}
, 			{
				"box" : 				{
					"maxclass" : "message",
					"text" : "\/release 500 ramp 3000",
					"outlettype" : [ "" ],
					"patching_rect" : [ 542.0, 470.0, 123.0, 15.0 ],
					"fontname" : "Verdana",
					"id" : "obj-17",
					"numinlets" : 2,
					"numoutlets" : 1,
					"fontsize" : 9.0
				}

			}
, 			{
				"box" : 				{
					"maxclass" : "message",
					"text" : "\/lookahead 10 ramp 3000",
					"outlettype" : [ "" ],
					"patching_rect" : [ 542.0, 452.0, 127.0, 15.0 ],
					"fontname" : "Verdana",
					"id" : "obj-18",
					"numinlets" : 2,
					"numoutlets" : 1,
					"fontsize" : 9.0
				}

			}
, 			{
				"box" : 				{
					"maxclass" : "message",
					"text" : "\/threshold -6 ramp 3000",
					"outlettype" : [ "" ],
					"patching_rect" : [ 542.0, 434.0, 125.0, 15.0 ],
					"fontname" : "Verdana",
					"id" : "obj-19",
					"numinlets" : 2,
					"numoutlets" : 1,
					"fontsize" : 9.0
				}

			}
, 			{
				"box" : 				{
					"maxclass" : "message",
					"text" : "\/postamp 6 ramp 5000",
					"outlettype" : [ "" ],
					"patching_rect" : [ 542.0, 416.0, 115.0, 15.0 ],
					"fontname" : "Verdana",
					"id" : "obj-20",
					"numinlets" : 2,
					"numoutlets" : 1,
					"fontsize" : 9.0
				}

			}
, 			{
				"box" : 				{
					"maxclass" : "message",
					"text" : "\/preamp 6 ramp 5000",
					"outlettype" : [ "" ],
					"patching_rect" : [ 542.0, 398.0, 111.0, 15.0 ],
					"fontname" : "Verdana",
					"id" : "obj-21",
					"numinlets" : 2,
					"numoutlets" : 1,
					"fontsize" : 9.0
				}

			}
, 			{
				"box" : 				{
					"maxclass" : "flonum",
					"outlettype" : [ "float", "bang" ],
					"htextcolor" : [ 0.870588, 0.870588, 0.870588, 1.0 ],
					"patching_rect" : [ 410.0, 470.0, 35.0, 17.0 ],
					"fontname" : "Verdana",
					"id" : "obj-22",
					"numinlets" : 1,
					"triscale" : 0.9,
					"numoutlets" : 2,
					"fontsize" : 9.0,
					"bgcolor" : [ 0.866667, 0.866667, 0.866667, 1.0 ]
				}

			}
, 			{
				"box" : 				{
					"maxclass" : "flonum",
					"outlettype" : [ "float", "bang" ],
					"htextcolor" : [ 0.870588, 0.870588, 0.870588, 1.0 ],
					"patching_rect" : [ 410.0, 452.0, 35.0, 17.0 ],
					"fontname" : "Verdana",
					"id" : "obj-23",
					"numinlets" : 1,
					"triscale" : 0.9,
					"numoutlets" : 2,
					"fontsize" : 9.0,
					"bgcolor" : [ 0.866667, 0.866667, 0.866667, 1.0 ]
				}

			}
, 			{
				"box" : 				{
					"maxclass" : "flonum",
					"outlettype" : [ "float", "bang" ],
					"htextcolor" : [ 0.870588, 0.870588, 0.870588, 1.0 ],
					"patching_rect" : [ 410.0, 434.0, 35.0, 17.0 ],
					"fontname" : "Verdana",
					"id" : "obj-24",
					"numinlets" : 1,
					"triscale" : 0.9,
					"numoutlets" : 2,
					"fontsize" : 9.0,
					"bgcolor" : [ 0.866667, 0.866667, 0.866667, 1.0 ]
				}

			}
, 			{
				"box" : 				{
					"maxclass" : "flonum",
					"outlettype" : [ "float", "bang" ],
					"htextcolor" : [ 0.870588, 0.870588, 0.870588, 1.0 ],
					"patching_rect" : [ 410.0, 416.0, 35.0, 17.0 ],
					"fontname" : "Verdana",
					"id" : "obj-25",
					"numinlets" : 1,
					"triscale" : 0.9,
					"numoutlets" : 2,
					"fontsize" : 9.0,
					"bgcolor" : [ 0.866667, 0.866667, 0.866667, 1.0 ]
				}

			}
, 			{
				"box" : 				{
					"maxclass" : "flonum",
					"outlettype" : [ "float", "bang" ],
					"htextcolor" : [ 0.870588, 0.870588, 0.870588, 1.0 ],
					"patching_rect" : [ 410.0, 398.0, 35.0, 17.0 ],
					"fontname" : "Verdana",
					"id" : "obj-26",
					"numinlets" : 1,
					"triscale" : 0.9,
					"numoutlets" : 2,
					"fontsize" : 9.0,
					"bgcolor" : [ 0.866667, 0.866667, 0.866667, 1.0 ]
				}

			}
, 			{
				"box" : 				{
					"maxclass" : "message",
					"text" : "\/release $1",
					"outlettype" : [ "" ],
					"patching_rect" : [ 447.0, 470.0, 64.0, 15.0 ],
					"fontname" : "Verdana",
					"id" : "obj-27",
					"numinlets" : 2,
					"numoutlets" : 1,
					"fontsize" : 9.0
				}

			}
, 			{
				"box" : 				{
					"maxclass" : "message",
					"text" : "\/lookahead $1",
					"outlettype" : [ "" ],
					"patching_rect" : [ 447.0, 452.0, 74.0, 15.0 ],
					"fontname" : "Verdana",
					"id" : "obj-28",
					"numinlets" : 2,
					"numoutlets" : 1,
					"fontsize" : 9.0
				}

			}
, 			{
				"box" : 				{
					"maxclass" : "message",
					"text" : "\/threshold $1",
					"outlettype" : [ "" ],
					"patching_rect" : [ 447.0, 434.0, 73.0, 15.0 ],
					"fontname" : "Verdana",
					"id" : "obj-29",
					"numinlets" : 2,
					"numoutlets" : 1,
					"fontsize" : 9.0
				}

			}
, 			{
				"box" : 				{
					"maxclass" : "message",
					"text" : "\/postamp $1",
					"outlettype" : [ "" ],
					"patching_rect" : [ 447.0, 416.0, 68.0, 15.0 ],
					"fontname" : "Verdana",
					"id" : "obj-30",
					"numinlets" : 2,
					"numoutlets" : 1,
					"fontsize" : 9.0
				}

			}
, 			{
				"box" : 				{
					"maxclass" : "message",
					"text" : "\/preamp $1",
					"outlettype" : [ "" ],
					"patching_rect" : [ 447.0, 398.0, 64.0, 15.0 ],
					"fontname" : "Verdana",
					"id" : "obj-31",
					"numinlets" : 2,
					"numoutlets" : 1,
					"fontsize" : 9.0
				}

			}
, 			{
				"box" : 				{
					"maxclass" : "newobj",
					"text" : "loadmess set",
					"outlettype" : [ "" ],
					"hidden" : 1,
					"patching_rect" : [ 518.0, 324.0, 65.0, 17.0 ],
					"fontname" : "Verdana",
					"id" : "obj-32",
					"numinlets" : 1,
					"numoutlets" : 1,
					"fontsize" : 9.0
				}

			}
, 			{
				"box" : 				{
					"maxclass" : "message",
					"outlettype" : [ "" ],
					"patching_rect" : [ 452.0, 344.0, 107.0, 15.0 ],
					"fontname" : "Verdana",
					"id" : "obj-33",
					"numinlets" : 2,
					"numoutlets" : 1,
					"fontsize" : 9.0
				}

			}
, 			{
				"box" : 				{
					"maxclass" : "newobj",
					"text" : "prepend set",
					"outlettype" : [ "" ],
					"patching_rect" : [ 452.0, 326.0, 61.0, 17.0 ],
					"fontname" : "Verdana",
					"id" : "obj-34",
					"numinlets" : 1,
					"numoutlets" : 1,
					"fontsize" : 9.0
				}

			}
, 			{
				"box" : 				{
					"maxclass" : "bpatcher",
					"varname" : "\/limiter~",
					"outlettype" : [ "", "", "" ],
					"patching_rect" : [ 452.0, 255.0, 302.0, 72.0 ],
					"args" : [  ],
					"id" : "obj-35",
					"numinlets" : 3,
					"numoutlets" : 3,
					"name" : "jmod.limiter~.maxpat"
				}

			}
, 			{
				"box" : 				{
					"maxclass" : "panel",
					"rounded" : 0,
					"patching_rect" : [ 404.0, 392.0, 373.0, 120.0 ],
					"id" : "obj-36",
					"numinlets" : 1,
					"numoutlets" : 0,
					"bgcolor" : [ 0.780392, 0.780392, 0.839216, 1.0 ]
				}

			}
, 			{
				"box" : 				{
					"maxclass" : "comment",
					"text" : "Module specific attributes",
					"patching_rect" : [ 408.0, 363.0, 236.0, 28.0 ],
					"fontname" : "Verdana",
					"id" : "obj-37",
					"numinlets" : 1,
					"numoutlets" : 0,
					"fontsize" : 15.799999
				}

			}
, 			{
				"box" : 				{
					"maxclass" : "panel",
					"rounded" : 0,
					"patching_rect" : [ 404.0, 361.0, 373.0, 27.0 ],
					"id" : "obj-38",
					"numinlets" : 1,
					"numoutlets" : 0,
					"bgcolor" : [ 0.596078, 0.596078, 0.701961, 1.0 ]
				}

			}
 ],
		"lines" : [ 			{
				"patchline" : 				{
					"source" : [ "obj-6", 0 ],
					"destination" : [ "obj-5", 0 ],
					"hidden" : 1
				}

			}
, 			{
				"patchline" : 				{
					"source" : [ "obj-4", 0 ],
					"destination" : [ "obj-3", 0 ],
					"hidden" : 1
				}

			}
, 			{
				"patchline" : 				{
					"source" : [ "obj-26", 0 ],
					"destination" : [ "obj-31", 0 ],
					"hidden" : 1
				}

			}
, 			{
				"patchline" : 				{
					"source" : [ "obj-25", 0 ],
					"destination" : [ "obj-30", 0 ],
					"hidden" : 1
				}

			}
, 			{
				"patchline" : 				{
					"source" : [ "obj-24", 0 ],
					"destination" : [ "obj-29", 0 ],
					"hidden" : 1
				}

			}
, 			{
				"patchline" : 				{
					"source" : [ "obj-23", 0 ],
					"destination" : [ "obj-28", 0 ],
					"hidden" : 1
				}

			}
, 			{
				"patchline" : 				{
					"source" : [ "obj-22", 0 ],
					"destination" : [ "obj-27", 0 ],
					"hidden" : 1
				}

			}
, 			{
				"patchline" : 				{
					"source" : [ "obj-16", 0 ],
					"destination" : [ "obj-35", 0 ],
					"hidden" : 0
				}

			}
, 			{
				"patchline" : 				{
					"source" : [ "obj-35", 0 ],
					"destination" : [ "obj-34", 0 ],
					"hidden" : 0
				}

			}
, 			{
				"patchline" : 				{
					"source" : [ "obj-32", 0 ],
					"destination" : [ "obj-33", 0 ],
					"hidden" : 1,
					"midpoints" : [ 527.5, 343.0, 461.5, 343.0 ]
				}

			}
, 			{
				"patchline" : 				{
					"source" : [ "obj-34", 0 ],
					"destination" : [ "obj-33", 0 ],
					"hidden" : 0
				}

			}
, 			{
				"patchline" : 				{
					"source" : [ "obj-14", 1 ],
					"destination" : [ "obj-35", 1 ],
					"hidden" : 0
				}

			}
, 			{
				"patchline" : 				{
					"source" : [ "obj-35", 1 ],
					"destination" : [ "obj-13", 0 ],
					"hidden" : 0
				}

			}
, 			{
				"patchline" : 				{
					"source" : [ "obj-27", 0 ],
					"destination" : [ "obj-15", 0 ],
					"hidden" : 1
				}

			}
, 			{
				"patchline" : 				{
					"source" : [ "obj-31", 0 ],
					"destination" : [ "obj-15", 0 ],
					"hidden" : 1
				}

			}
, 			{
				"patchline" : 				{
					"source" : [ "obj-28", 0 ],
					"destination" : [ "obj-15", 0 ],
					"hidden" : 1
				}

			}
, 			{
				"patchline" : 				{
					"source" : [ "obj-30", 0 ],
					"destination" : [ "obj-15", 0 ],
					"hidden" : 1
				}

			}
, 			{
				"patchline" : 				{
					"source" : [ "obj-29", 0 ],
					"destination" : [ "obj-15", 0 ],
					"hidden" : 1
				}

			}
, 			{
				"patchline" : 				{
					"source" : [ "obj-11", 0 ],
					"destination" : [ "obj-15", 0 ],
					"hidden" : 1
				}

			}
, 			{
				"patchline" : 				{
					"source" : [ "obj-10", 0 ],
					"destination" : [ "obj-15", 0 ],
					"hidden" : 1
				}

			}
, 			{
				"patchline" : 				{
					"source" : [ "obj-17", 0 ],
					"destination" : [ "obj-15", 0 ],
					"hidden" : 1
				}

			}
, 			{
				"patchline" : 				{
					"source" : [ "obj-18", 0 ],
					"destination" : [ "obj-15", 0 ],
					"hidden" : 1
				}

			}
, 			{
				"patchline" : 				{
					"source" : [ "obj-19", 0 ],
					"destination" : [ "obj-15", 0 ],
					"hidden" : 1
				}

			}
, 			{
				"patchline" : 				{
					"source" : [ "obj-20", 0 ],
					"destination" : [ "obj-15", 0 ],
					"hidden" : 1
				}

			}
, 			{
				"patchline" : 				{
					"source" : [ "obj-21", 0 ],
					"destination" : [ "obj-15", 0 ],
					"hidden" : 1
				}

			}
, 			{
				"patchline" : 				{
					"source" : [ "obj-2", 0 ],
					"destination" : [ "obj-1", 0 ],
					"hidden" : 1
				}

			}
, 			{
				"patchline" : 				{
					"source" : [ "obj-14", 2 ],
					"destination" : [ "obj-35", 2 ],
					"hidden" : 0
				}

			}
, 			{
				"patchline" : 				{
					"source" : [ "obj-35", 2 ],
					"destination" : [ "obj-13", 1 ],
					"hidden" : 0
				}

			}
 ]
	}

}
