max v2;#N vpatcher 13 64 1182 678;#P window setfont "Sans Serif" 9.;#P newex 503 335 41 196617 sel 1 0;#P newex 503 312 65 196617 pvar Record;#P newex 503 257 73 196617 pvar Realtime;#P newex 503 231 83 196617 pvar Interpolate;#P user jsui 133 40 45 19 3 0 0 jmod.jsui_texttoggle.js Record Record 204 204 204 0 0 0 255 40 40;#P objectname Record;#P comment 81 43 50 196617 Realtime;#B frgb 255 255 255;#N vpatcher 100 100 296 285;#P window setfont "Sans Serif" 9.;#P hidden message 1 179 214 196617 window size 100 100 296 285 \, window exec;#P hidden message 1 161 239 196617 window flags nogrow \, savewindow 1 \, window exec;#P hidden message 1 144 158 196617 window flags grow \, window exec;#P hidden newex 228 147 106 196617 bgcolor 150 150 150;#P bpatcher 3 2 194 175 0 0 jmod.class.matrix.inspector.mxt 0 $0_ /matrix;#P objectname /matrix;#P hidden newex 228 93 40 196617 t front;#P hidden newex 228 74 32 196617 sel 1;#N thispatcher;#Q window flags nogrow close zoom nofloat;#Q window size 100 100 296 285;#Q window title;#Q window exec;#Q savewindow 1;#Q end;#P hidden newobj 228 112 61 196617 thispatcher;#P hidden newex 228 55 151 196617 jmod.oscroute /open_inspector;#P hidden inlet 228 36 15 0;#P hidden connect 0 0 1 0;#P hidden connect 1 0 3 0;#P hidden connect 3 0 4 0;#P hidden connect 4 0 2 0;#P hidden connect 9 0 2 0;#P hidden connect 7 0 2 0;#P hidden connect 8 0 2 0;#P pop;#P newobj 159 303 60 196617 p inspector;#P objectname inspector;#P newex 503 72 81 196617 pvar Framerate;#P flonum 161 22 34 9 1. 0 8225 3 255 255 255 221 221 221 222 222 222 0 0 0;#P objectname Framerate;#P newex 503 134 75 196617 pvar Quality 2;#P newex 503 107 69 196617 pvar Codec 2;#P window linecount 2;#P newex 594 257 294 196617 jmod.parameter.mxt $0_ /realtime @type toggle @description "Realtime (flag). When enabled internal clock is used.";#P objectname jmod.parameter[4];#P window linecount 1;#P newex 594 231 376 196617 jmod.parameter.mxt $0_ /interp @type toggle @description "Interpolate (flag).";#P objectname jmod.parameter[3];#P newex 518 358 366 196617 jmod.message.mxt $0_ /stop @description "Stop recording QuickTime movie.";#P newex 503 379 376 196617 jmod.message.mxt $0_ /write @description "Start recording QuickTime movie.";#P window linecount 2;#P newex 594 72 322 196617 jmod.parameter.mxt $0_ /framerate @type float @ramp 0 @repetitions 0 @range 1. 25 @clipmode low @description Framerate.;#P objectname jmod.parameter[2];#P window linecount 1;#P newex 594 134 359 196617 jmod.parameter.mxt $0_ /quality @type menu @description "Codec quality.";#P objectname jmod.parameter[1];#P newex 594 107 342 196617 jmod.parameter.mxt $0_ /codec @type menu @description "Codec type.";#P objectname jmod.parameter;#P user ubumenu 3 40 60 196617 0 1 1 0;#X add (QUALITY);#X add lossless;#X add max;#X add min;#X add low;#X add normal;#X add high;#X prefix_set 0 0 <none> 0;#P objectname Quality;#P user ubumenu 3 25 60 196617 0 1 1 0;#X add (CODEC);#X add alphagrey32;#X add animation;#X add argb64;#X add avrjpeg;#X add bmp;#X add cinepak;#X add cmyk;#X add componentvideo;#X add componentvideosigned;#X add componentvideounsigned;#X add dvntsc;#X add dvpal;#X add dvprontsc;#X add dvpropal;#X add flc;#X add gif;#X add graphics;#X add grey16;#X add h261;#X add h263;#X add indeo4;#X add jpeg;#X add macpaint;#X add microsoft;#X add mjpega;#X add mjpegb;#X add mpegyuv420;#X add opendmljpeg;#X add photocd;#X add planarrgb;#X add png;#X add qd;#X add qdgx;#X add raw;#X add rgb48;#X add sgi;#X add sorenson;#X add sorensonyuv9;#X add targa;#X add tiff;#X add vector;#X add video;#X add winraw;#X add yuv420;#X prefix_set 0 0 <none> 0;#P objectname Codec;#P message 149 378 142 196617 /matrix/type char;#P newex 149 355 57 196617 prepend set;#P window linecount 2;#P message 36 256 65 196617 \; max refresh;#P window linecount 1;#P comment 131 24 30 196617 Fps:;#B frgb 255 255 255;#P message 115 123 125 196617 /documentation/generate;#B color 3;#P window linecount 3;#P newex 9 145 310 196617 jmod.hub $0_ jmod.record% @size 1U-half @module_type video @algorithm_type jitter @inspector 1 @num_inputs 1 @num_outputs 1 @description "Record video to QuickTime movie.";#P objectname jmod.hub;#P window linecount 1;#P comment 191 267 75 196617 VIDEO OUTPUT;#P outlet 176 267 13 0;#P inlet 256 201 13 0;#P comment 271 201 65 196617 VIDEO INPUT;#P newex 176 224 90 196617 jmod.record%.alg;#P window linecount 2;#P message 36 221 72 196617 \; jmod.init bang;#P window linecount 1;#P comment 23 120 79 196617 command input;#P outlet 9 207 13 0;#P inlet 9 120 13 0;#P window linecount 3;#P newex 328 145 79 196617 pattrstorage @autorestore 0 @savemode 0;#X client_rect 30 89 670 329;#X storage_rect 0 0 640 240;#P objectname jmod.record%;#P window linecount 1;#P comment 258 226 174 196617 <- substitute for desired algorithm;#B frgb 102 102 204;#P comment 81 28 50 196617 Interp.;#B frgb 255 255 255;#P user radiogroup 65 40 59 16;#X size 1;#X offset 16;#X inactive 0;#X itemtype 1;#X flagmode 0;#X set 0;#X done;#P objectname Realtime;#P user radiogroup 65 25 59 16;#X size 1;#X offset 16;#X inactive 0;#X itemtype 1;#X flagmode 0;#X set 0;#X done;#P objectname Interpolate;#P bpatcher 0 0 255 60 0 0 jmod.gui.mxt 0 $0_;#P objectname jmod.gui.1Uh.v.mxb;#P hidden fasten 10 0 0 0 181 249 451 249 451 -12 5 -12;#P connect 6 0 15 0;#P fasten 16 0 15 0 120 142 14 142;#P connect 15 0 7 0;#P fasten 15 1 19 0 164 203 154 203;#P connect 19 0 20 0;#P connect 15 1 34 0;#P fasten 15 1 10 0 164 207 181 207;#P connect 10 0 13 0;#P connect 12 0 10 1;#P connect 5 0 15 1;#P connect 15 2 5 0;#P connect 25 0 33 0;#P connect 23 0 30 0;#P connect 24 0 31 0;#P connect 28 0 37 0;#P connect 29 0 38 0;#P connect 39 0 40 0;#P connect 40 0 26 0;#P connect 40 1 27 0;#P connect 33 0 25 0;#P connect 30 1 23 0;#P connect 31 1 24 0;#P connect 37 0 28 0;#P connect 38 0 29 0;#P pop;