max v2;#N vpatcher 104 36 884 483;#P origin -60 -91;#P window setfont "Sans Serif" 9.;#P hidden newex 93 367 49 196617 jcom.out;#P hidden newex 182 262 52 196617 jcom.in 1;#P hidden inlet 182 242 13 0;#P hidden comment 197 242 65 196617 VIDEO INPUT;#P hidden newex 426 171 88 196617 vexpr $f1 * 255.;#P window setfont "Lucida Grande" 9.;#P comment 66 24 32 67108873 glow;#B frgb 149 149 149;#P flonum 156 46 29 9 0. 1. 8227 1024 181 181 181 221 221 221 255 255 255 0 0 0;#P noclick;#P flonum 125 46 29 9 0. 1. 8227 1024 181 181 181 221 221 221 255 255 255 0 0 0;#P noclick;#P flonum 94 46 29 9 0. 1. 8227 1024 181 181 181 221 221 221 255 255 255 0 0 0;#P noclick;#P window setfont "Sans Serif" 9.;#P hidden newex 341 111 74 196617 unpack 0. 0. 0.;#P hidden newex 420 86 80 196617 vexpr $i1/255.;#P user swatch 94 21 90 24;#P user radiogroup 5 18 44 16;#X size 1;#X offset 16;#X inactive 0;#X itemtype 1;#X flagmode 0;#X set 0;#X done;#P window setfont "Lucida Grande" 9.;#P comment 19 20 32 67108873 color;#B frgb 149 149 149;#P flonum 40 33 35 9 0 0 8224 1024 181 181 181 221 221 221 255 255 255 0 0 0;#P window setfont "Sans Serif" 9.;#P window linecount 2;#P hidden newex 420 16 265 196617 jcom.parameter mode @type msg_toggle @description "Toggles between grayscale (0) and color (1) modes";#P objectname mode;#P window linecount 3;#P hidden newex 420 111 341 196617 jcom.parameter glow @type msg_list @repetitions 0 @description "Specify the red green and blue components for the glowing color. The range for each component should be between 0.0 and 1.0.";#P objectname glow;#P window setfont "Lucida Grande" 9.;#P window linecount 1;#P comment 19 33 24 67108873 lum;#B frgb 149 149 149;#P comment 19 46 20 67108873 tol;#B frgb 149 149 149;#P flonum 40 46 35 9 0 0 8224 1024 181 181 181 221 221 221 255 255 255 0 0 0;#P window setfont "Sans Serif" 9.;#P window linecount 2;#P hidden newex 50 71 232 196617 jcom.parameter lum @type msg_float @ramp 1 @description "Sets the luminance.";#P objectname lum;#P hidden newex 9 108 223 196617 jcom.parameter tol @type msg_float @ramp 1 @description "Sets the tolerance.";#P objectname tol;#P window linecount 3;#P hidden newex 3 190 205 196617 jcom.hub jmod.fluoride% @size 1U-half @module_type video @algorithm_type jitter @description "neon glow effect";#P objectname jcom.hub;#P window linecount 1;#P hidden newex 93 318 47 196617 pcontrol;#P hidden newex 93 296 78 196617 jcom.pass open;#P hidden message 106 168 125 196617 /documentation/generate;#B color 3;#P hidden comment 108 392 75 196617 VIDEO OUTPUT;#P hidden outlet 93 392 13 0;#P window linecount 2;#P hidden message 13 318 72 196617 \; jcom.init bang;#B color 3;#P window linecount 1;#P hidden comment 17 165 79 196617 command input;#P hidden outlet 3 252 13 0;#P hidden inlet 3 165 13 0;#P hidden newex 93 342 99 196617 jalg.fluoride%.mxt;#P bpatcher 0 0 256 60 0 0 jcom.gui.mxt 0;#P objectname jcom.gui.1Uh.v.mxb;#P hidden fasten 8 0 11 0 111 186 8 186;#P hidden connect 2 0 11 0;#P hidden connect 11 0 3 0;#P hidden connect 18 0 21 0;#P hidden connect 14 0 12 0;#P hidden connect 13 0 19 0;#P hidden connect 12 0 14 0;#P hidden connect 19 0 13 0;#P hidden fasten 32 1 9 0 208 287 98 287;#P hidden connect 9 0 10 0;#P hidden fasten 9 1 1 0 166 339 98 339;#P hidden connect 10 0 1 0;#P hidden connect 1 0 33 0;#P hidden connect 33 0 6 0;#P hidden connect 29 0 22 0;#P hidden connect 24 0 25 0;#P hidden connect 24 1 26 0;#P hidden connect 24 2 27 0;#P hidden connect 31 0 32 0;#P hidden connect 32 0 1 1;#P hidden connect 23 0 24 0;#P hidden connect 21 0 18 0;#P hidden connect 22 0 23 0;#P hidden connect 23 0 17 0;#P hidden connect 17 1 29 0;#P pop;