max v2;
#N vpatcher 79 44 683 725;
#P origin 0 -1046;
#P hidden inlet 403 144 13 0;
#P window setfont "Sans Serif" 9.;
#P window linecount 1;
#P hidden comment 418 144 65 196617 VIDEO INPUT;
#P hidden newex 403 163 78 196617 jcom.in 1;
#P hidden newex 19 633 355 196617 jcom.parameter color @type toggle @description "Color or greyscale";
#P objectname color[1];
#P hidden newex 19 613 57 196617 pvar color;
#P user radiogroup 171 22 18 16;
#X size 1;
#X offset 16;
#X inactive 0;
#X itemtype 1;
#X flagmode 0;
#X set 0;
#X done;
#P objectname color;
#P comment 144 24 33 196617 color;
#P hidden comment 17 163 96 196617 COMMAND OUTPUT;
#P hidden newex 188 208 47 196617 pcontrol;
#P hidden newex 188 187 78 196617 jcom.pass open;
#P hidden newex 17 571 386 196617 jcom.parameter edge_thresh @type msg_float @description "Edge threshold";
#P objectname edge_thresh[1];
#P hidden newex 17 551 89 196617 pvar edge_thresh;
#P flonum 164 40 35 9 0. 0 8225 3 0 0 0 221 221 221 222 222 222 0 0 0;
#P objectname edge_thresh;
#P user ubumenu 116 40 48 196617 0 1 1 0;
#X add None;
#X add Sobel;
#X add Prewitt;
#X add Robcross;
#X add Binedge;
#X prefix_set 0 0 <none> 0;
#X pattrmode 1;
#P objectname algorithm;
#P comment 89 42 30 196617 edge;
#P flonum 52 40 35 9 0. 0 8225 3 0 0 0 221 221 221 222 222 222 0 0 0;
#P objectname slide;
#P user radiogroup 34 40 18 16;
#X size 1;
#X offset 16;
#X inactive 0;
#X itemtype 1;
#X flagmode 0;
#X set 0;
#X done;
#P objectname trails;
#P comment 4 42 35 196617 trails;
#P hidden newex 16 515 351 196617 jcom.parameter algorithm @type menu @description "Edge detection";
#P objectname algorithm[1];
#P hidden newex 16 495 77 196617 pvar algorithm;
#P window linecount 2;
#P hidden newex 16 449 213 196617 jcom.parameter slide @type msg_float @description "Level of slide for thre trails";
#P objectname slide[1];
#P window linecount 1;
#P hidden newex 16 429 55 196617 pvar slide;
#P hidden newex 16 391 380 196617 jcom.parameter trails @type toggle @description "Trails - ghostlike image";
#P objectname trails[1];
#P hidden newex 16 371 59 196617 pvar trails;
#P user radiogroup 116 22 18 16;
#X size 1;
#X offset 16;
#X inactive 0;
#X itemtype 1;
#X flagmode 0;
#X set 1;
#X done;
#P objectname noise;
#P hidden newex 16 330 340 196617 jcom.parameter noise @type toggle @description "Noise reduction";
#P objectname noise[1];
#P hidden newex 16 310 57 196617 pvar noise;
#P comment 89 24 33 196617 noise;
#P hidden outlet 403 262 13 0;
#P flonum 53 22 35 9 0. 0 8225 3 0 0 0 221 221 221 222 222 222 0 0 0;
#P objectname threshold;
#P comment 4 24 52 196617 threshold;
#P hidden message 99 86 50 196617 /autodoc;
#B color 3;
#P hidden newex 16 270 352 196617 jcom.parameter threshold @type msg_float @description "Threshold";
#P objectname threshold[1];
#P hidden newex 16 250 76 196617 pvar threshold;
#P hidden comment 417 262 75 196617 VIDEO OUTPUT;
#P hidden newex 188 233 225 196617 jalg.motion%.mxt $0_;
#P window linecount 2;
#P hidden message 459 296 72 196617 \; jcom.init bang;
#B color 3;
#P window linecount 1;
#P hidden comment 15 84 79 196617 command input;
#P window linecount 2;
#P hidden newex 1 109 385 196617 jcom.hub jmod.motion% @size 1U-half @module_type video @algorithm_type jitter @description "Motion-related analysis";
#P objectname jcom.hub;
#P hidden outlet 1 157 13 0;
#P hidden inlet 1 84 13 0;
#P hidden user com 415 500 146 196617 29;
#K set 0 16748 25976 24942 25701 29216 21093 26227 30061 8266 25966 29541 28265 30067 8205 26740 29808 14895 12141 30067 26979 24940 26469 29556 30066 25971 11893 26991 11886 28429;
#K end;
#P bpatcher 0 0 256 60 0 0 jcom.gui.mxt 0;
#P objectname jcom.gui;
#P hidden connect 2 0 4 0;
#P hidden fasten 11 0 4 0 104 105 6 105;
#P hidden connect 4 0 3 0;
#P hidden fasten 10 0 9 0 21 295 11 295 11 245 21 245;
#P hidden connect 9 0 10 0;
#P hidden fasten 17 0 16 0 21 355 11 355 11 305 21 305;
#P hidden connect 16 0 17 0;
#P hidden fasten 20 0 19 0 21 416 9 416 9 364 21 364;
#P hidden connect 19 0 20 0;
#P hidden fasten 22 0 21 0 21 483 11 483 11 424 21 424;
#P hidden connect 21 0 22 0;
#P hidden fasten 24 0 23 0 21 537 11 537 11 490 21 490;
#P hidden connect 23 0 24 0;
#P hidden fasten 32 0 31 0 22 596 12 596 12 546 22 546;
#P hidden connect 31 0 32 0;
#P hidden fasten 39 0 38 0 24 658 14 658 14 608 24 608;
#P hidden connect 38 0 39 0;
#P hidden fasten 40 1 33 0 442 184 193 184;
#P hidden connect 33 0 34 0;
#P hidden connect 34 0 7 0;
#P hidden fasten 33 1 7 0 261 229 193 229;
#P hidden connect 42 0 40 0;
#P hidden connect 40 0 7 1;
#P hidden fasten 7 0 14 0 193 256 408 256;
#P pop;
