max v2;#N vpatcher 102 109 830 536;#P origin -39 -85;#P window setfont "Sans Serif" 9.;#P window linecount 1;#P hidden newex 369 198 61 196617 pvar Ripple;#P hidden newex 369 119 53 196617 pvar Ring;#P hidden newex 369 41 64 196617 pvar Center;#P window linecount 2;#P hidden newex 369 64 286 196617 jcom.parameter center @type msg_float @ramp 1 @clipmode none @range 0. 1. @description "Weight of center cell";#P objectname center;#P window linecount 1;#P comment 104 23 36 196617 ripple;#B frgb 149 149 149;#P flonum 138 21 35 9 0. 0 8225 3 181 181 181 221 221 221 255 255 255 0 0 0;#P objectname Ripple;#P hidden newex 116 312 49 196617 jcom.out;#P hidden inlet 184 179 13 0;#P hidden comment 199 179 65 196617 VIDEO INPUT;#P hidden newex 184 198 78 196617 jcom.in 1;#P hidden newex 48 254 47 196617 pcontrol;#P hidden newex 48 231 78 196617 jcom.pass open;#P hidden message 100 87 125 196617 /documentation/generate;#B color 3;#P hidden comment 131 350 75 196617 VIDEO OUTPUT;#P hidden outlet 116 350 13 0;#P hidden newex 116 286 78 196617 jalg.blur%.mxt;#P flonum 51 21 35 9 0. 0 8225 3 181 181 181 221 221 221 255 255 255 0 0 0;#P objectname Center;#P comment 14 23 39 196617 center;#B frgb 149 149 149;#P flonum 51 35 35 9 0. 0 8225 3 181 181 181 221 221 221 255 255 255 0 0 0;#P objectname Ring;#P comment 14 37 26 196617 ring;#B frgb 149 149 149;#P window linecount 2;#P hidden newex 369 222 309 196617 jcom.parameter ripple @type msg_float @ramp 1 @clipmode none @range -1. 1. @description "Scaling applied to outer ringing cells";#P objectname ripple;#P hidden newex 369 143 299 196617 jcom.parameter ring @type msg_float @ramp 1 @clipmode none @range 0. 1. @description "Weight of cells adjoining the center";#P objectname ring;#P hidden message 33 291 72 196617 \; jcom.init bang;#B color 3;#P window linecount 1;#P hidden comment 14 84 79 196617 command input;#P window linecount 2;#P hidden newex 0 109 346 196617 jcom.hub jmod.blur% @size 1U-half @module_type video @algorithm_type jitter @description "Blur the image using the jit.fastblur algorithm.";#P objectname jcom.hub;#P hidden outlet 0 171 13 0;#P hidden inlet 0 84 13 0;#P bpatcher 0 0 256 60 0 0 jcom.gui.mxt 0;#P objectname jcom.gui.1Uh.v.mxb;#P hidden fasten 15 0 3 0 105 105 5 105;#P hidden connect 1 0 3 0;#P hidden connect 3 0 2 0;#P hidden fasten 18 1 16 0 223 223 53 223;#P hidden connect 16 0 17 0;#P hidden fasten 17 0 12 0 53 276 121 276;#P hidden connect 16 1 12 0;#P hidden connect 12 0 21 0;#P hidden connect 21 0 13 0;#P hidden connect 20 0 18 0;#P hidden connect 18 0 12 1;#P hidden fasten 24 0 25 0 374 98 365 98 365 35 374 35;#P hidden connect 25 0 24 0;#P hidden fasten 6 0 26 0 374 177 364 177 364 113 374 113;#P hidden connect 26 0 6 0;#P hidden fasten 7 0 27 0 374 258 365 258 365 193 374 193;#P hidden connect 27 0 7 0;#P pop;