max v2;#N vpatcher 100 104 1097 608;#P window setfont "Sans Serif" 9.;#P window linecount 1;#P message 236 141 125 196617 /preset/store 1 default;#B color 3;#P newex 482 396 68 196617 pvar OffsetY;#P newex 482 340 64 196617 pvar ScaleY;#P number 210 73 41 9 0 0 8225 3 255 255 255 221 221 221 222 222 222 0 0 0;#P objectname DimY;#P number 169 73 41 9 0 0 8225 3 255 255 255 221 221 221 222 222 222 0 0 0;#P objectname DimX;#P newex 411 183 85 196617 pvar Gridmode 2;#P window linecount 2;#P newex 558 183 285 196617 jcom.parameter videoplane/gridmode @type msg_menu @description "Grid mode (0 = quadrilated\\\, 1 = triangular).";#P objectname videoplane/gridmode;#P window linecount 1;#P newex 412 147 90 196617 pvar Colormode 2;#P window linecount 2;#P newex 559 147 261 196617 jcom.parameter videoplane/colormode @type msg_menu @description "Color mode (argb or uyvy).";#P objectname videoplane/colormode;#P window linecount 1;#P newex 412 113 83 196617 pvar Interpolate;#P window linecount 2;#P newex 559 113 236 196617 jcom.parameter videoplane/interpolate @type msg_toggle @description "Interpolation.";#P objectname videoplane/interpolate;#P window linecount 1;#P newex 412 79 67 196617 pvar Display;#P window linecount 2;#P newex 559 79 356 196617 jcom.parameter videoplane/displaylist @type msg_toggle @description "Cache in displaylist (might speed up rendering on graphic card).";#P objectname videoplane/displaylist;#P window linecount 1;#P newex 412 33 60 196617 pvar Client;#P window linecount 3;#P newex 559 33 283 196617 jcom.parameter videoplane/client_storage @type msg_toggle @description "When set jit.videoplane use incoming matrix's storage rather than allocating texture memory.";#P objectname videoplane/client_storage;#P window linecount 1;#P newex 412 239 60 196617 pvar Nudge;#P window linecount 3;#P newex 559 239 394 196617 jcom.parameter videoplane/nudge @type msg_float @range 0. 1. @clipmode both @ramp 0 @description "Amount of the texture that is nudged from boundary to accomodate for boundary errors when mapping the texture to the plane.";#P objectname videoplane/nudge;#P window linecount 1;#P newex 560 284 60 196617 jcom.round;#P window linecount 2;#P newex 560 303 276 196617 jcom.parameter videoplane/dim @type msg_list @description "Dimension of the grid (x\\\, y coordinates).";#P objectname videoplane/dim;#P window linecount 1;#P newex 482 284 57 196617 pvar DimY;#P newex 412 284 57 196617 pvar DimX;#P newex 412 306 144 196617 jcom.list2parameter.mxt 2;#P window linecount 2;#P newex 560 340 281 196617 jcom.parameter videoplane/texture/scale @type msg_list @description "Texture scale (x\\\, y coordinates).";#P objectname videoplane/texture/scale;#P window linecount 1;#P newex 412 340 64 196617 pvar ScaleX;#P newex 412 362 144 196617 jcom.list2parameter.mxt 2;#P window linecount 2;#P newex 560 396 285 196617 jcom.parameter videoplane/texture/offset @type msg_list @description "Texture offset (x\\\, y coordinates).";#P objectname videoplane/texture/offset;#P window linecount 1;#P newex 412 396 68 196617 pvar OffsetX;#P newex 412 418 144 196617 jcom.list2parameter.mxt 2;#P comment 60 97 39 196617 color;#B frgb 255 255 255;#P comment 60 78 39 196617 grid;#B frgb 255 255 255;#P user umenu 6 95 51 196647 1 32 111 1;#X add quad;#X add tri;#P objectname Gridmode;#P comment 21 59 75 196617 interpolate;#B frgb 255 255 255;#P user radiogroup 6 57 90 16;#X size 1;#X offset 16;#X inactive 0;#X itemtype 1;#X flagmode 0;#X set 0;#X done;#P objectname Interpolate;#P comment 21 42 75 196617 displaylist;#B frgb 255 255 255;#P user radiogroup 6 40 90 16;#X size 1;#X offset 16;#X inactive 0;#X itemtype 1;#X flagmode 0;#X set 0;#X done;#P objectname Display;#P flonum 169 58 40 9 0. 1. 8227 3 255 255 255 221 221 221 222 222 222 0 0 0;#P objectname Nudge;#P comment 103 59 65 196617 nudge;#B frgb 255 255 255;#P comment 21 26 75 196617 client_storage;#B frgb 255 255 255;#P user radiogroup 6 24 90 16;#X size 1;#X offset 16;#X inactive 0;#X itemtype 1;#X flagmode 0;#X set 0;#X done;#P objectname Client;#P comment 103 104 65 196617 tex offset;#B frgb 255 255 255;#P comment 103 89 65 196617 tex scale;#B frgb 255 255 255;#P comment 103 74 65 196617 dim;#B frgb 255 255 255;#P flonum 211 87 40 9 0. 0 8225 3 255 255 255 221 221 221 222 222 222 0 0 0;#P objectname ScaleY;#P flonum 169 88 40 9 0. 0 8225 3 255 255 255 221 221 221 222 222 222 0 0 0;#P objectname ScaleX;#P flonum 211 103 40 9 0 0 8224 3 255 255 255 221 221 221 222 222 222 0 0 0;#P objectname OffsetY;#P flonum 169 103 40 9 0 0 8224 3 255 255 255 221 221 221 222 222 222 0 0 0;#P objectname OffsetX;#P user umenu 6 76 51 196647 1 32 92 1;#X add argb;#X add uyvy;#P objectname Colormode;#N vpatcher 44 47 340 799;#P origin 0 -51;#P window setfont "Sans Serif" 9.;#P window linecount 0;#P hidden newex 291 164 106 196617 bgcolor 110 110 110;#P bpatcher 7 0 268 761 0 0 jcom.class.gl_group.inspect.mxt 0;#P objectname jcom.class.gl_group.inspect.mxt;#P hidden inlet 291 44 15 0;#P window linecount 1;#P hidden newex 291 89 40 196617 t front;#P hidden newex 291 69 151 196617 jcom.oscroute /open_inspector;#N thispatcher;#Q end;#P hidden newobj 291 111 61 196617 thispatcher;#P hidden connect 3 0 1 0;#P hidden connect 1 0 2 0;#P hidden connect 2 0 0 0;#P pop;#P newobj 181 242 60 196617 p inspector;#P objectname inspector;#P window linecount 2;#P message 140 442 85 196617 /preset/save bang;#P window linecount 1;#P newex 140 419 57 196617 prepend set;#P window linecount 2;#P message 27 320 65 196617 \; max refresh;#P window linecount 1;#P message 106 142 125 196617 /documentation/generate;#B color 3;#P window linecount 4;#P newex 0 172 290 196617 jcom.hub jmod.gl.videoplane% @size 2U-half @module_type video @algorithm_type jitter @inspector 1 @description "Apply incoming video matrix as texture to OpenGL videoplane.";#P objectname jcom.hub;#P window linecount 1;#P comment 182 331 75 196617 VIDEO OUTPUT;#P outlet 167 331 13 0;#P inlet 275 266 13 0;#P comment 290 266 65 196617 VIDEO INPUT;#P newex 167 288 118 196617 jalg.gl.videoplane%.mxt;#P window linecount 2;#P message 27 285 72 196617 \; jcom.init bang;#P window linecount 1;#P comment 14 139 79 196617 command input;#P outlet 0 234 13 0;#P inlet 0 139 13 0;#P bpatcher 0 0 255 120 0 0 jcom.gui.mxt 0;#P objectname jcom.gui.1Uh.v.mxb;#P fasten 62 0 10 0 241 164 5 164;#P fasten 11 0 10 0 111 163 5 163;#P connect 1 0 10 0;#P connect 10 0 2 0;#P fasten 10 1 13 0 285 233 145 233;#P connect 13 0 14 0;#P fasten 10 1 5 0 285 233 172 233;#P connect 5 0 8 0;#P fasten 10 1 15 0 285 233 186 233;#P connect 7 0 5 1;#P connect 56 0 57 0;#P connect 48 0 49 0;#P connect 50 0 51 0;#P connect 52 0 53 0;#P connect 54 0 55 0;#P connect 46 0 47 0;#P fasten 41 0 42 0 417 327 408 327 408 281 417 281;#P connect 42 0 41 0;#P fasten 38 0 39 0 417 383 408 383 408 337 417 337;#P connect 39 0 38 0;#P fasten 35 0 36 0 417 439 408 439 408 393 417 393;#P connect 36 0 35 0;#P fasten 43 0 41 1 487 303 430 303;#P fasten 60 0 38 1 487 359 430 359;#P fasten 61 0 35 1 487 415 430 415;#P fasten 41 1 43 0 430 329 406 329 406 279 487 279;#P fasten 38 1 60 0 430 385 405 385 405 335 487 335;#P connect 44 0 41 10;#P connect 40 0 38 10;#P connect 37 0 35 10;#P connect 57 0 56 0;#P connect 49 0 48 0;#P connect 51 0 50 0;#P connect 53 0 52 0;#P connect 55 1 54 0;#P connect 47 0 46 0;#P connect 41 10 45 0;#P connect 45 0 44 0;#P connect 38 10 40 0;#P connect 35 10 37 0;#P pop;