max v2;
#N vpatcher 309 62 1203 618;
#P origin 0 -1065;
#P window setfont "Sans Serif" 9.;
#P window linecount 1;
#P hidden message 106 70 191 196617 /preset/store 1 default \, /preset/write;
#B color 3;
#P hidden newex 443 101 47 196617 pcontrol;
#P hidden newex 443 77 37 196617 t open;
#P hidden newex 443 53 151 196617 jcom.oscroute /open_inspector;
#N vpatcher 277 69 702 251;
#P window setfont "Sans Serif" 9.;
#P window linecount 0;
#P hidden newex 452 552 100 196617 pvar centroid_color;
#P hidden newex 452 484 139 196617 pvar contraction_max_color;
#P hidden newex 452 417 114 196617 pvar contraction_color;
#P hidden newex 452 352 111 196617 pvar centroid_size_on;
#P hidden newex 452 287 87 196617 pvar centroid_on;
#P hidden newex 452 163 126 196617 pvar contraction_max_on;
#P hidden newex 452 96 101 196617 pvar contraction_on;
#P hidden newex 452 27 112 196617 pvar contraction_slide;
#P window linecount 2;
#P hidden newex 452 635 350 196617 jcom.parameter data/smoothing @type msg_float @range 0. 12. @clipmode low @ramp none @description "Level of smoothing for the returened data";
#P objectname data/smoothing;
#P window linecount 1;
#P hidden newex 452 615 104 196617 pvar data_smoothing;
#P window linecount 2;
#P hidden newex 452 575 224 196617 jcom.parameter centroid/color @type msg_list @description "Change color of centroid.";
#P objectname centroid/color;
#P hidden newex 452 506 263 196617 jcom.parameter contraction/max/color @type msg_list @description "Change color of max contraction box.";
#P objectname contraction/max/color;
#P hidden newex 452 438 250 196617 jcom.parameter contraction/color @type msg_list @description "Change color of local contraction box.";
#P objectname contraction/color;
#P hidden newex 452 374 352 196617 jcom.parameter centroid/size/on @type msg_toggle @description "Turn on automatic size adjustment of centre of mass - based on quantity of motion.";
#P objectname centroid/size/on;
#P hidden newex 452 308 235 196617 jcom.parameter centroid/on @type msg_toggle @description "Turn display of centre of mass on.";
#P objectname centroid/on;
#P window linecount 1;
#P hidden newex 452 255 382 196617 jcom.message contraction/max/reset @description "Reset max_contraction box.";
#P objectname jmod.parameter.mxt[12];
#P window linecount 2;
#P hidden newex 452 185 262 196617 jcom.parameter contraction/max/on @type msg_toggle @description "Turn max contraction box on or off.";
#P objectname contraction/max/on;
#P hidden newex 452 120 244 196617 jcom.parameter contraction/on @type msg_toggle @description "Turn local contraction box on or off.";
#P objectname contraction/on;
#P hidden newex 452 50 387 196617 jcom.parameter contraction/slide @type msg_float @range 0. 10. @clipmode low @description @repetitions 0 @ramp none "The level of smoothing for contraction box.";
#P objectname contraction/slide;
#P window linecount 1;
#P hidden newex 94 348 58 196617 r jmod.init;
#P hidden newex 81 322 40 196617 t front;
#P hidden newex 81 301 151 196617 jcom.oscroute /open_inspector;
#P toggle 26 141 15 0;
#P message 44 141 108 196617 /centroid/size/on \$1;
#P flonum 6 69 35 9 0 0 0 3 0 0 0 221 221 221 222 222 222 0 0 0;
#P user swatch 237 111 128 32;
#P message 237 143 127 196617 /centroid/color \$1 \$2 \$3;
#P user swatch 237 60 128 32;
#P message 237 92 166 196617 /contraction/max/color \$1 \$2 \$3;
#P user swatch 237 9 128 32;
#P message 44 69 109 196617 /contraction/slide \$1;
#P message 44 105 122 196617 /contraction/max/reset;
#P message 237 41 141 196617 /contraction/color \$1 \$2 \$3;
#P toggle 27 123 15 0;
#P message 45 123 84 196617 /centroid/on \$1;
#P toggle 26 87 15 0;
#P message 44 87 123 196617 /contraction/max/on \$1;
#P toggle 26 51 15 0;
#P message 44 51 98 196617 /contraction/on \$1;
#P flonum 7 32 35 9 0 0 0 3 0 0 0 221 221 221 222 222 222 0 0 0;
#P message 45 32 101 196617 /data/smoothing \$1;
#P hidden outlet 146 207 15 0;
#P window setfont "Sans Serif" 12.;
#P comment 4 4 252 196620 Various things that might be useful;
#P hidden inlet 81 281 15 0;
#P window setfont "Sans Serif" 9.;
#P hidden message 94 370 178 196617 patcher more jmod.motion% features;
#N thispatcher;
#Q end;
#P hidden newobj 94 389 61 196617 thispatcher;
#P user panel 0 1 409 165;
#X brgb 254 241 180;
#X frgb 0 0 0;
#X border 0;
#X rounded 0;
#X shadow 0;
#X done;
#P background;
#P hidden connect 9 0 8 0;
#P hidden connect 22 0 16 0;
#P hidden connect 11 0 10 0;
#P hidden connect 24 0 23 0;
#P hidden connect 7 0 6 0;
#P hidden connect 13 0 12 0;
#P hidden connect 3 0 25 0;
#P hidden connect 25 0 26 0;
#P hidden connect 27 0 2 0;
#P hidden connect 2 0 1 0;
#P hidden connect 26 0 1 0;
#P hidden connect 16 0 5 0;
#P hidden connect 15 0 5 0;
#P hidden connect 20 0 5 0;
#P hidden connect 18 0 5 0;
#P hidden connect 14 0 5 0;
#P hidden connect 12 0 5 0;
#P hidden connect 10 0 5 0;
#P hidden connect 8 0 5 0;
#P hidden connect 6 0 5 0;
#P connect 17 0 14 0;
#P connect 19 0 18 0;
#P connect 21 0 20 0;
#P hidden fasten 28 0 39 0 457 85 447 85 447 23 457 23;
#P hidden connect 39 0 28 0;
#P hidden fasten 29 0 40 0 457 156 448 156 448 93 457 93;
#P hidden connect 40 0 29 0;
#P hidden fasten 30 0 41 0 457 219 447 219 447 160 457 160;
#P hidden connect 41 0 30 0;
#P hidden fasten 32 0 42 0 457 342 445 342 445 282 457 282;
#P hidden connect 42 0 32 0;
#P hidden fasten 33 0 43 0 457 408 447 408 447 347 457 347;
#P hidden connect 43 0 33 0;
#P hidden fasten 34 0 44 0 457 473 446 473 446 412 457 412;
#P hidden connect 44 0 34 0;
#P hidden fasten 35 0 45 0 457 542 447 542 447 482 457 482;
#P hidden connect 45 0 35 0;
#P hidden fasten 36 0 46 0 457 599 448 599 448 545 457 545;
#P hidden connect 46 0 36 0;
#P hidden fasten 38 0 37 0 457 669 447 669 447 610 457 610;
#P hidden connect 37 0 38 0;
#P pop;
#P hidden newobj 443 125 60 196617 p inspector;
#P objectname inspector;
#P hidden comment 19 157 79 196617 command output;
#P hidden newex 443 192 49 196617 jcom.out;
#P hidden inlet 409 9 13 0;
#P hidden comment 424 9 65 196617 VIDEO INPUT;
#P hidden newex 409 28 78 196617 jcom.in 1;
#P hidden newex 457 408 355 196617 jcom.parameter color @type msg_toggle @description "Color or greyscale";
#P objectname color[1];
#P hidden newex 457 388 57 196617 pvar color;
#P user radiogroup 171 22 18 16;
#X size 1;
#X offset 16;
#X inactive 0;
#X itemtype 1;
#X flagmode 0;
#X set 0;
#X done;
#P objectname color;
#P comment 144 24 33 196617 color;
#B frgb 149 149 149;
#P hidden newex 584 101 47 196617 pcontrol;
#P hidden newex 584 77 78 196617 jcom.pass open;
#P hidden newex 455 346 371 196617 jcom.parameter edge/threshold @type msg_float @description "Edge threshold";
#P objectname edge/threshold;
#P hidden newex 455 326 102 196617 pvar edge_threshold;
#P flonum 164 40 35 9 0. 0 8225 3 181 181 181 221 221 221 255 255 255 0 0 0;
#P objectname edge_threshold;
#P user ubumenu 116 40 48 196617 0 1 1 0;
#X add None;
#X add Sobel;
#X add Prewitt;
#X add Robcross;
#X prefix_set 0 0 <none> 0;
#X pattrmode 1;
#P objectname edge_algorithm;
#P comment 89 42 30 196617 edge;
#B frgb 149 149 149;
#P flonum 52 40 35 9 0. 0 8225 3 181 181 181 221 221 221 255 255 255 0 0 0;
#P objectname slide;
#P user radiogroup 34 40 18 16;
#X size 1;
#X offset 16;
#X inactive 0;
#X itemtype 1;
#X flagmode 0;
#X set 0;
#X done;
#P objectname trails;
#P comment 4 42 35 196617 trails;
#B frgb 149 149 149;
#P hidden newex 454 290 382 196617 jcom.parameter edge/algorithm @type msg_symbol @description "Edge detection";
#P objectname edge/algorithm;
#P hidden newex 454 268 112 196617 pvar edge_algorithm 2;
#P window linecount 2;
#P hidden newex 34 460 213 196617 jcom.parameter slide @type msg_float @description "Level of slide for thre trails";
#P objectname slide[1];
#P window linecount 1;
#P hidden newex 34 440 55 196617 pvar slide;
#P hidden newex 34 402 380 196617 jcom.parameter trails @type msg_toggle @description "Trails - ghostlike image";
#P objectname trails[1];
#P hidden newex 34 382 59 196617 pvar trails;
#P user radiogroup 116 22 18 16;
#X size 1;
#X offset 16;
#X inactive 0;
#X itemtype 1;
#X flagmode 0;
#X set 1;
#X done;
#P objectname noise;
#P hidden newex 34 341 340 196617 jcom.parameter noise @type msg_toggle @description "Noise reduction";
#P objectname noise[1];
#P hidden newex 34 321 57 196617 pvar noise;
#P comment 89 24 33 196617 noise;
#B frgb 149 149 149;
#P hidden outlet 443 233 13 0;
#P flonum 53 22 35 9 0. 0 8225 3 181 181 181 221 221 221 255 255 255 0 0 0;
#P objectname threshold;
#P comment 4 24 52 196617 threshold;
#B frgb 149 149 149;
#P hidden message 123 87 119 196617 documentation/generate;
#B color 3;
#P hidden newex 34 281 352 196617 jcom.parameter threshold @type msg_float @description "Threshold";
#P objectname threshold[1];
#P hidden newex 34 261 76 196617 pvar threshold;
#P hidden comment 457 233 75 196617 VIDEO OUTPUT;
#P hidden newex 443 161 90 196617 jalg.motion%.mxt;
#P hidden comment 15 84 79 196617 command input;
#P window linecount 2;
#P hidden newex 1 109 358 196617 jcom.hub jmod.motion% @size 1U-half @module_type video @algorithm_type jitter @description "Motion-related analysis" @inspector 1;
#P objectname jcom.hub;
#P hidden outlet 1 157 13 0;
#P hidden inlet 1 84 13 0;
#P bpatcher 0 0 256 60 0 0 jcom.gui.mxt 0;
#P objectname jcom.gui;
#P hidden fasten 46 0 3 0 111 106 6 106;
#P hidden fasten 9 0 3 0 128 106 6 106;
#P hidden connect 1 0 3 0;
#P hidden connect 3 0 2 0;
#P hidden fasten 8 0 7 0 39 306 29 306 29 256 39 256;
#P hidden connect 7 0 8 0;
#P hidden fasten 15 0 14 0 39 366 29 366 29 316 39 316;
#P hidden connect 14 0 15 0;
#P hidden fasten 18 0 17 0 39 427 27 427 27 375 39 375;
#P hidden connect 17 0 18 0;
#P hidden fasten 20 0 19 0 39 494 29 494 29 435 39 435;
#P hidden connect 19 0 20 0;
#P hidden connect 39 0 37 0;
#P hidden connect 37 1 43 0;
#P hidden connect 43 0 44 0;
#P hidden connect 44 0 45 0;
#P hidden connect 45 0 42 0;
#P hidden fasten 31 1 5 0 657 154 448 154;
#P hidden fasten 32 0 5 0 589 150 448 150;
#P hidden connect 42 0 5 0;
#P hidden connect 5 0 40 0;
#P hidden connect 40 0 12 0;
#P hidden fasten 22 0 21 0 459 312 449 312 449 265 459 265;
#P hidden connect 21 0 22 0;
#P hidden fasten 30 0 29 0 460 371 450 371 450 321 460 321;
#P hidden connect 29 0 30 0;
#P hidden fasten 36 0 35 0 462 433 452 433 452 383 462 383;
#P hidden connect 35 0 36 0;
#P hidden connect 37 0 5 1;
#P hidden connect 43 1 31 0;
#P hidden connect 31 0 32 0;
#P pop;
