max v2;#N vpatcher 99 51 584 563;#P origin -126 -1234;#P window setfont "Sans Serif" 9.;#P window linecount 1;#P hidden message 227 86 200 196617 /preset/store 1 default \, /preset/write;#B color 3;#P hidden newex 180 278 125 196617 jcom.out 2;#P hidden newex 295 174 78 196617 jcom.in 1;#P hidden outlet 281 305 13 0;#N vpatcher 14 59 212 274;#P window setfont "Sans Serif" 9.;#P newex 101 95 53 196617 prepend 1;#P outlet 53 155 15 0;#P newex 53 125 58 196617 zl join;#P newex 53 68 58 196617 zl slice 1;#P inlet 53 39 15 0;#P connect 0 0 1 0;#P connect 1 0 2 0;#P connect 2 0 3 0;#P connect 1 1 4 0;#P connect 4 0 2 1;#P pop;#P hidden newobj 19 401 61 196617 p formating;#P user multiSlider 28 29 127 17 0. 1. 1 2936 47 0 0 2 0 0 1;#M frgb 91 91 91;#M brgb 173 173 173;#M rgb2 127 127 127;#M rgb3 0 0 0;#M rgb4 37 52 91;#M rgb5 74 105 182;#M rgb6 112 158 18;#M rgb7 149 211 110;#M rgb8 187 9 201;#M rgb9 224 62 37;#M rgb10 7 114 128;#P objectname xfade;#P hidden newex 180 228 47 196617 pcontrol;#P hidden newex 180 205 78 196617 jcom.pass open;#P hidden newex 19 423 59 196617 pvar xfade;#P window linecount 2;#P hidden newex 19 445 320 196617 jcom.parameter yfade @type msg_float @ramp linear.sched @repetitions 0 @range 0. 1. @clipmode both @description "Crossfade switch";#P objectname yfade;#P window linecount 1;#P hidden message 99 86 125 196617 /documentation/generate;#B color 3;#P hidden comment 195 305 81 196617 VIDEO OUTPUTS;#P hidden outlet 180 305 13 0;#P hidden inlet 295 155 13 0;#P hidden comment 310 156 65 196617 VIDEO INPUT;#P hidden newex 180 257 125 196617 jalg.yfade%.mxt;#P window linecount 2;#P hidden message 369 445 72 196617 \; jcom.init bang;#B color 3;#P window linecount 1;#P hidden comment 15 84 79 196617 command input;#P window linecount 2;#P hidden newex 1 109 403 196617 jcom.hub jmod.yfade% @size 1U-half @module_type video @algorithm_type jitter @description "crossfade a source to two outputs";#P objectname jcom.hub;#P hidden outlet 1 171 13 0;#P hidden inlet 1 84 13 0;#P bpatcher 0 0 256 60 0 0 jcom.gui.mxt 0 $0_;#P objectname jcom.gui;#P hidden fasten 21 0 3 0 232 105 6 105;#P hidden fasten 11 0 3 0 104 105 6 105;#P hidden connect 1 0 3 0;#P hidden connect 3 0 2 0;#P hidden fasten 12 0 17 0 24 480 13 480 13 394 24 394;#P hidden connect 17 0 13 0;#P hidden connect 13 0 12 0;#P hidden connect 19 1 14 0;#P hidden connect 14 0 15 0;#P hidden fasten 14 1 6 0 253 250 185 250;#P hidden connect 15 0 6 0;#P hidden connect 6 0 20 0;#P hidden connect 20 0 9 0;#P hidden fasten 20 1 18 0 242 300 286 300;#P hidden connect 8 0 19 0;#P hidden fasten 19 0 6 1 300 244 300 244;#P hidden connect 6 1 20 1;#P pop;