max v2;#N vpatcher 41 44 823 490;#P origin 0 -42;#P hidden outlet 103 365 13 0;#P window setfont "Sans Serif" 9.;#P hidden newex 79 335 58 196617 jcom.out 2;#P hidden inlet 182 208 13 0;#P hidden comment 197 208 65 196617 VIDEO INPUT;#P hidden newex 182 227 78 196617 jcom.in 1;#P hidden newex 79 273 47 196617 pcontrol;#P hidden newex 79 252 78 196617 jcom.pass open;#P hidden outlet 79 364 13 0;#P hidden comment 122 366 81 196617 VIDEO OUTPUTS;#P hidden newex 79 298 113 196617 jalg.motiongram%.mxt;#P hidden newex 377 239 64 196617 pvar export;#P hidden newex 377 260 20 196617 t b;#P message 150 40 40 196617 export;#P objectname export;#P hidden newex 377 157 57 196617 pvar clear;#P hidden newex 377 178 20 196617 t b;#P message 150 22 33 196617 clear;#P objectname clear;#P hidden newex 377 282 351 196617 jcom.message exportimage @type generic @description "Clears the image.";#P objectname jmod.parameter.mxb[2];#P hidden newex 377 200 318 196617 jcom.message clear @type generic @description "Clears the image.";#P objectname jmod.parameter.mxb[1];#P number 71 40 34 9 1 0 8225 3 0 0 0 221 221 221 222 222 222 0 0 0;#P comment 60 42 14 196617 x;#P window linecount 2;#P hidden newex 377 112 351 196617 jcom.parameter dimensions/height @type msg_int @range 0 2000 @clipmode low @ramp 0 @description "Specify the x-axis offset in pixels.";#P objectname dimensions/height;#P number 30 40 34 9 1 0 8225 3 0 0 0 221 221 221 222 222 222 0 0 0;#P window linecount 1;#P comment 6 42 26 196617 size;#P user ubumenu 37 21 67 196617 0 1 1 0;#X add horizontal;#X add vertical;#X prefix_set 0 0 <none> 0;#X pattrmode 1;#P comment 6 22 31 196617 mode;#P window linecount 2;#P hidden newex 377 75 351 196617 jcom.parameter dimensions/width @type msg_int @range 0 2000 @clipmode low @ramp 0 @description "Specify the x-axis offset in pixels.";#P objectname dimensions/width;#P hidden newex 377 34 257 196617 jcom.parameter mode @type menu @description "Mode - horizontal or vertical direction of motiongram.";#P objectname mode;#P window linecount 4;#P hidden newex 0 109 246 196617 jcom.hub jmod.motiongram% @size 1U-half @module_type video @algorithm_type jitter @description "Creates a motiongram from running video stream";#P objectname jmod.hub;#P window linecount 1;#P hidden message 103 87 125 196617 /documentation/generate;#B color 3;#P hidden comment 14 84 79 196617 command input;#P hidden outlet 0 171 13 0;#P hidden inlet 0 84 13 0;#P bpatcher 0 0 256 60 0 0 jcom.gui.mxt 0;#P objectname jcom.gui;#P hidden fasten 4 0 5 0 108 105 5 105;#P hidden connect 1 0 5 0;#P hidden connect 5 0 2 0;#P hidden connect 7 0 11 0;#P hidden connect 6 0 9 0;#P hidden connect 12 0 14 0;#P hidden fasten 28 1 26 0 221 248 84 248;#P hidden connect 26 0 27 0;#P hidden connect 27 0 23 0;#P hidden fasten 26 1 23 0 152 294 84 294;#P hidden connect 23 0 31 0;#P hidden connect 31 0 25 0;#P hidden connect 31 1 32 0;#P hidden connect 23 1 31 1;#P hidden connect 30 0 28 0;#P hidden connect 28 0 23 1;#P hidden connect 9 0 6 0;#P hidden connect 11 0 7 0;#P hidden connect 14 0 12 0;#P hidden connect 19 0 18 0;#P hidden connect 18 0 15 0;#P hidden connect 22 0 21 0;#P hidden connect 21 0 16 0;#P pop;