max v2;
#N vpatcher 577 44 1209 700;
#P origin 0 -1046;
#P window setfont "Sans Serif" 9.;
#P window linecount 1;
#P hidden comment 19 157 79 196617 command output;
#P hidden newex 512 152 49 196617 jcom.out;
#P hidden inlet 511 30 13 0;
#P hidden comment 526 30 65 196617 VIDEO INPUT;
#P hidden newex 511 49 78 196617 jcom.in 1;
#P hidden newex 35 586 355 196617 jcom.parameter color @type msg_toggle @description "Color or greyscale";
#P objectname color[1];
#P hidden newex 35 566 57 196617 pvar color;
#P user radiogroup 171 22 18 16;
#X size 1;
#X offset 16;
#X inactive 0;
#X itemtype 1;
#X flagmode 0;
#X set 0;
#X done;
#P objectname color;
#P comment 144 24 33 196617 color;
#P hidden newex 431 95 47 196617 pcontrol;
#P hidden newex 431 74 78 196617 jcom.pass open;
#P hidden newex 33 524 386 196617 jcom.parameter edge_thresh @type msg_float @description "Edge threshold";
#P objectname edge_thresh[1];
#P hidden newex 33 504 89 196617 pvar edge_thresh;
#P flonum 164 40 35 9 0. 0 8225 3 0 0 0 221 221 221 222 222 222 0 0 0;
#P objectname edge_thresh;
#P user ubumenu 116 40 48 196617 0 1 1 0;
#X add None;
#X add Sobel;
#X add Prewitt;
#X add Robcross;
#X prefix_set 0 0 <none> 0;
#X pattrmode 1;
#P objectname algorithm;
#P comment 89 42 30 196617 edge;
#P flonum 52 40 35 9 0. 0 8225 3 0 0 0 221 221 221 222 222 222 0 0 0;
#P objectname slide;
#P user radiogroup 34 40 18 16;
#X size 1;
#X offset 16;
#X inactive 0;
#X itemtype 1;
#X flagmode 0;
#X set 0;
#X done;
#P objectname trails;
#P comment 4 42 35 196617 trails;
#P hidden newex 32 468 351 196617 jcom.parameter algorithm @type msg_menu @description "Edge detection";
#P objectname algorithm[1];
#P hidden newex 32 448 77 196617 pvar algorithm;
#P window linecount 2;
#P hidden newex 32 402 213 196617 jcom.parameter slide @type msg_float @description "Level of slide for thre trails";
#P objectname slide[1];
#P window linecount 1;
#P hidden newex 32 382 55 196617 pvar slide;
#P hidden newex 32 344 380 196617 jcom.parameter trails @type msg_toggle @description "Trails - ghostlike image";
#P objectname trails[1];
#P hidden newex 32 324 59 196617 pvar trails;
#P user radiogroup 116 22 18 16;
#X size 1;
#X offset 16;
#X inactive 0;
#X itemtype 1;
#X flagmode 0;
#X set 1;
#X done;
#P objectname noise;
#P hidden newex 32 283 340 196617 jcom.parameter noise @type msg_toggle @description "Noise reduction";
#P objectname noise[1];
#P hidden newex 32 263 57 196617 pvar noise;
#P comment 89 24 33 196617 noise;
#P hidden outlet 512 181 13 0;
#P flonum 53 22 35 9 0. 0 8225 3 0 0 0 221 221 221 222 222 222 0 0 0;
#P objectname threshold;
#P comment 4 24 52 196617 threshold;
#P hidden message 99 86 119 196617 documentation/generate;
#B color 3;
#P hidden newex 32 223 352 196617 jcom.parameter threshold @type msg_float @description "Threshold";
#P objectname threshold[1];
#P hidden newex 32 203 76 196617 pvar threshold;
#P hidden comment 526 181 75 196617 VIDEO OUTPUT;
#P hidden newex 431 120 90 196617 jalg.motion%.mxt;
#P hidden comment 15 84 79 196617 command input;
#P window linecount 2;
#P hidden newex 1 109 385 196617 jcom.hub jmod.motion% @size 1U-half @module_type video @algorithm_type jitter @description "Motion-related analysis";
#P objectname jcom.hub;
#P hidden outlet 1 157 13 0;
#P hidden inlet 1 84 13 0;
#P bpatcher 0 0 256 60 0 0 jcom.gui.mxt 0;
#P objectname jcom.gui;
#P hidden connect 1 0 3 0;
#P hidden fasten 9 0 3 0 104 105 6 105;
#P hidden connect 3 0 2 0;
#P hidden fasten 8 0 7 0 37 248 27 248 27 198 37 198;
#P hidden connect 7 0 8 0;
#P hidden fasten 15 0 14 0 37 308 27 308 27 258 37 258;
#P hidden connect 14 0 15 0;
#P hidden fasten 18 0 17 0 37 369 25 369 25 317 37 317;
#P hidden connect 17 0 18 0;
#P hidden fasten 20 0 19 0 37 436 27 436 27 377 37 377;
#P hidden connect 19 0 20 0;
#P hidden fasten 22 0 21 0 37 490 27 490 27 443 37 443;
#P hidden connect 21 0 22 0;
#P hidden fasten 30 0 29 0 38 549 28 549 28 499 38 499;
#P hidden connect 29 0 30 0;
#P hidden fasten 36 0 35 0 40 611 30 611 30 561 40 561;
#P hidden connect 35 0 36 0;
#P hidden fasten 37 1 31 0 550 70 436 70;
#P hidden connect 31 0 32 0;
#P hidden fasten 31 1 5 0 504 116 436 116;
#P hidden connect 32 0 5 0;
#P hidden connect 39 0 37 0;
#P hidden connect 37 0 5 1;
#P hidden fasten 5 0 40 0 436 144 517 144;
#P hidden connect 40 0 12 0;
#P pop;
