max v2;
#N vpatcher 56 44 634 782;
#P origin 0 -1025;
#P window setfont "Sans Serif" 9.;
#P window linecount 1;
#P hidden newex 397 253 49 196617 jcom.out;
#P hidden inlet 397 136 13 0;
#P hidden comment 411 136 65 196617 VIDEO INPUT;
#P hidden newex 397 154 85 196617 jcom.in 1;
#P hidden newex 188 199 54 196617 pcontrol;
#P hidden newex 188 178 85 196617 jcom.pass open;
#P hidden newex 188 249 202 196617 jcom.oscroute /zoom /offset_x /offset_y;
#P window linecount 2;
#P hidden message 448 388 66 196617 \; max refresh;
#B color 3;
#P window linecount 1;
#P hidden newex 16 654 57 196617 pvar angle;
#P window linecount 2;
#P hidden newex 16 676 329 196617 jcom.parameter angle @type msg_int @ramp 1 @repetitions 0 @range 0 90 @clipmode none @description "Rotate image - in degrees";
#P objectname angle[1];
#P window linecount 1;
#P hidden newex 16 409 72 196617 pvar offset-Y;
#P window linecount 2;
#P hidden newex 16 433 370 196617 jcom.parameter offset_y @type msg_int @ramp 1 @repetitions 0 @range -1000 1000 @clipmode none @description "Offset image in Y-direction";
#P objectname offset_y;
#P window linecount 1;
#P hidden newex 16 540 68 196617 pvar rotate2;
#P hidden newex 16 562 337 196617 jcom.parameter rotate2 @type msg_toggle @description "Flip vertical";
#P objectname rotate2[1];
#P number 159 40 30 9 0 0 8224 3 0 0 0 221 221 221 222 222 222 0 0 0;
#P objectname angle;
#P comment 130 42 33 196617 angle;
#P user radiogroup 179 22 18 16;
#X size 1;
#X offset 16;
#X inactive 0;
#X itemtype 1;
#X flagmode 0;
#X set 0;
#X done;
#P objectname mirror;
#P comment 145 23 41 196617 mirror;
#P user radiogroup 127 21 18 16;
#X size 1;
#X offset 16;
#X inactive 0;
#X itemtype 1;
#X flagmode 0;
#X set 0;
#X done;
#P objectname rotate2;
#P user radiogroup 116 21 18 16;
#X size 1;
#X offset 16;
#X inactive 0;
#X itemtype 1;
#X flagmode 0;
#X set 0;
#X done;
#P objectname rotate1;
#P comment 84 23 38 196617 rotate;
#P number 88 40 30 9 0 0 8224 3 0 0 0 221 221 221 222 222 222 0 0 0;
#P objectname offset-Y;
#P hidden newex 16 341 72 196617 pvar offset-X;
#P window linecount 2;
#P hidden newex 16 365 370 196617 jcom.parameter offset_x @type msg_int @ramp 1 @repetitions 0 @range -1000 1000 @clipmode none @description "Offset image in X-direction";
#P objectname offset_x;
#P window linecount 1;
#P comment 79 42 14 196617 Y;
#P hidden newex 16 596 65 196617 pvar mirror;
#P hidden newex 16 618 339 196617 jcom.parameter mirror @type msg_toggle @description "Mirror image";
#P objectname mirror[1];
#P number 44 40 30 9 0 0 8224 3 0 0 0 221 221 221 222 222 222 0 0 0;
#P objectname offset-X;
#P flonum 32 22 35 9 0. 0 8225 3 0 0 0 221 221 221 222 222 222 0 0 0;
#P objectname zoom;
#P comment 4 42 48 196617 offset X;
#P comment 4 24 33 196617 zoom;
#P hidden newex 16 480 68 196617 pvar rotate1;
#P hidden message 99 86 125 196617 /documentation/generate;
#B color 3;
#P hidden newex 16 502 346 196617 jcom.parameter rotate1 @type msg_toggle @description "Flip horizontal";
#P objectname rotate1[1];
#P window linecount 2;
#P hidden newex 16 299 318 196617 jcom.parameter zoom @type msg_float @ramp 1 @repetitions 0 @range 0. 10. @clipmode none @description "Zoom in the image";
#P objectname zoom[1];
#P window linecount 1;
#P hidden newex 16 276 57 196617 pvar zoom;
#P hidden comment 412 279 75 196617 VIDEO OUTPUT;
#P hidden outlet 397 279 13 0;
#P hidden newex 188 223 219 196617 jalg.orsize%.mxt;
#P window linecount 2;
#P hidden message 448 348 72 196617 \; jcom.init bang;
#B color 3;
#P window linecount 1;
#P hidden comment 15 84 79 196617 command input;
#P window linecount 2;
#P hidden newex 1 109 385 196617 jcom.hub jmod.orsize% @size 1U-half @module_type video @algorithm_type jitter @description "Orientation and size of video";
#P objectname jcom.hub;
#P hidden outlet 1 171 13 0;
#P hidden inlet 1 84 13 0;
#P hidden user com 387 672 146 196617 29;
#K set 0 16748 25976 24942 25701 29216 21093 26227 30061 8266 25966 29541 28265 30067 8205 26740 29808 14895 12141 30067 26979 24940 26469 29556 30066 25971 11893 26991 11886 28416;
#K end;
#P bpatcher 0 0 256 60 0 0 jcom.gui.mxt 0;
#P objectname jcom.gui;
#P hidden connect 2 0 4 0;
#P hidden fasten 13 0 4 0 104 105 6 105;
#P hidden connect 4 0 3 0;
#P hidden fasten 11 0 10 0 21 331 11 331 11 272 21 272;
#P hidden fasten 39 0 11 0 193 295 21 295;
#P hidden connect 10 0 11 0;
#P hidden fasten 22 0 23 0 21 400 10 400 10 337 21 337;
#P hidden fasten 39 1 22 0 257 361 21 361;
#P hidden connect 23 0 22 0;
#P hidden fasten 34 0 35 0 21 465 10 465 10 406 21 406;
#P hidden fasten 39 2 34 0 321 429 21 429;
#P hidden connect 35 0 34 0;
#P hidden fasten 12 0 14 0 21 523 10 523 10 474 21 474;
#P hidden connect 14 0 12 0;
#P hidden fasten 32 0 33 0 21 583 10 583 10 534 21 534;
#P hidden connect 33 0 32 0;
#P hidden fasten 19 0 20 0 21 639 10 639 10 590 21 590;
#P hidden connect 20 0 19 0;
#P hidden fasten 36 0 37 0 21 701 10 701 10 645 21 645;
#P hidden connect 37 0 36 0;
#P hidden fasten 42 1 40 0 439 174 193 174;
#P hidden connect 40 0 41 0;
#P hidden connect 41 0 7 0;
#P hidden fasten 40 1 7 0 268 219 193 219;
#P hidden connect 7 0 39 0;
#P hidden connect 44 0 42 0;
#P hidden connect 42 0 7 1;
#P hidden connect 7 1 45 0;
#P hidden connect 45 0 8 0;
#P pop;
