max v2;#N vpatcher 235 44 1313 607;#P origin 0 -42;#P window setfont "Sans Serif" 9.;#P window linecount 1;#P hidden newex 490 251 64 196617 pvar export;#P hidden newex 490 272 20 196617 t b;#P message 150 40 40 196617 export;#P objectname export;#P hidden newex 489 151 57 196617 pvar clear;#P hidden newex 489 172 20 196617 t b;#P message 150 22 33 196617 clear;#P objectname clear;#P hidden newex 490 297 379 196617 jmod.message $0_ /exportimage @type generic @description "Clears the image.";#P objectname jmod.parameter.mxb[2];#P hidden newex 489 194 346 196617 jmod.message $0_ /clear @type generic @description "Clears the image.";#P objectname jmod.parameter.mxb[1];#P hidden outlet 249 241 13 0;#P number 71 40 34 9 1 0 8225 3 0 0 0 221 221 221 222 222 222 0 0 0;#P comment 60 42 14 196617 x;#P window linecount 2;#P hidden newex 485 106 333 196617 jmod.parameter $0_ /dim_y @type msg_int @range 0 2000 @clipmode low @ramp 0 @description "Specify the x-axis offset in pixels.";#P objectname jmod.parameter.mxb[8];#P number 30 40 34 9 1 0 8225 3 0 0 0 221 221 221 222 222 222 0 0 0;#P window linecount 1;#P comment 6 42 26 196617 size;#P user ubumenu 37 21 67 196617 0 1 1 0;#X add horizontal;#X add vertical;#X prefix_set 0 0 <none> 0;#X pattrmode 1;#P comment 6 22 31 196617 mode;#P window linecount 2;#P hidden newex 485 69 333 196617 jmod.parameter $0_ /dim_x @type msg_int @range 0 2000 @clipmode low @ramp 0 @description "Specify the x-axis offset in pixels.";#P objectname jmod.parameter.mxb[9];#P hidden newex 485 28 265 196617 jmod.parameter $0_ /mode @type menu @description "Mode - horizontal or vertical direction of motiongram.";#P objectname jmod.parameter.mxb[10];#P window linecount 3;#P hidden newex 0 109 303 196617 jmod.hub $0_ jmod.motiongram% @size 1U-half @module_type video @algorithm_type jitter @num_inputs 1 @num_outputs 2 @description "Creates a motiongram from running video stream";#P objectname jmod.hub;#P window linecount 1;#P hidden newex 146 192 47 196617 pcontrol;#P hidden newex 146 170 78 196617 jmod.pass open;#P hidden message 103 87 125 196617 /documentation/generate;#B color 3;#P hidden comment 161 243 81 196617 VIDEO OUTPUTS;#P hidden outlet 146 243 13 0;#P hidden inlet 249 192 13 0;#P hidden comment 264 192 65 196617 VIDEO INPUT;#P window linecount 2;#P hidden message 17 195 72 196617 \; jmod.init bang;#B color 3;#P window linecount 1;#P hidden comment 14 84 79 196617 command input;#P hidden outlet 0 171 13 0;#P hidden inlet 0 84 13 0;#P hidden newex 146 216 113 196617 jmod.motiongram%.alg;#P window linecount 3;#P hidden newex 314 109 79 196617 pattrstorage @autorestore 0 @savemode 0;#X client_rect 25 70 581 503;#X storage_rect 0 0 640 240;#P objectname jmod.motiongram%;#P bpatcher 0 0 256 60 0 0 jmod.gui.mxt 0 $0_;#P objectname jmod.gui.1Uh.v.mxb;#P hidden fasten 2 1 0 0 254 238 352 238 352 -12 5 -12;#P hidden fasten 11 0 14 0 108 105 5 105;#P hidden connect 3 0 14 0;#P hidden connect 14 0 4 0;#P hidden connect 16 0 20 0;#P hidden connect 15 0 18 0;#P hidden connect 21 0 23 0;#P hidden connect 14 1 12 0;#P hidden connect 12 0 13 0;#P hidden fasten 12 1 2 0 219 213 151 213;#P hidden connect 13 0 2 0;#P hidden connect 2 0 9 0;#P hidden connect 8 0 2 1;#P hidden connect 2 1 24 0;#P hidden connect 1 0 14 1;#P hidden connect 14 2 1 0;#P hidden connect 18 0 15 0;#P hidden connect 20 0 16 0;#P hidden connect 23 0 21 0;#P hidden connect 29 0 28 0;#P hidden connect 28 0 25 0;#P hidden connect 32 0 31 0;#P hidden connect 31 0 26 0;#P pop;