max v2;
#N vpatcher 172 153 908 673;
#P origin -39 -85;
#P hidden inlet 320 178 13 0;
#P window setfont "Sans Serif" 9.;
#P window linecount 1;
#P hidden comment 335 178 65 196617 VIDEO INPUT;
#P hidden newex 321 197 78 196617 jcom.in 1;
#P hidden newex 178 253 47 196617 pcontrol;
#P hidden newex 178 230 78 196617 jcom.pass open;
#P hidden message 100 87 125 196617 /documentation/generate;
#B color 3;
#P hidden comment 261 329 75 196617 VIDEO OUTPUT;
#P hidden outlet 246 329 13 0;
#P hidden newex 246 302 85 196617 jalg.mblur%.mxt;
#P number 69 21 43 9 1 0 8225 3 0 0 0 221 221 221 222 222 222 0 0 0;
#P comment 14 23 45 196617 slide_up;
#P number 69 35 43 9 0 0 8225 3 0 0 0 221 221 221 222 222 222 0 0 0;
#P comment 14 37 59 196617 slide_down;
#P window linecount 3;
#P hidden newex 263 54 316 196617 jcom.parameter slide_down @type msg_int @ramp 1 @clipmode low @range 1 100 @description "The slide down factor - meaning how quickly (in frames) colors move from bright to dark";
#P objectname slide_down;
#P hidden newex 262 7 313 196617 jcom.parameter slide_up @type msg_int @ramp 1 @clipmode low @range 1 100 @description "The slide up factor - meaning how quickly (in frames) colors move from dark up to bright";
#P objectname slide_up;
#P window linecount 2;
#P hidden message 163 307 72 196617 \; jcom.init bang;
#B color 3;
#P window linecount 1;
#P hidden comment 14 84 79 196617 command input;
#P window linecount 3;
#P hidden newex 0 109 367 196617 jmod.hub jmod.mblur% @size 1U-half @module_type video @algorithm_type jitter @description "Create a Motion-Blur type of effect by using a brightness-based envelope follower";
#P objectname jcom.hub;
#P hidden outlet 0 171 13 0;
#P hidden inlet 0 84 13 0;
#P bpatcher 0 0 256 60 0 0 jcom.gui.mxt 0 $0_;
#P objectname jcom.gui.1Uh.v.mxb;
#P hidden connect 1 0 3 0;
#P hidden fasten 15 0 3 0 105 105 5 105;
#P hidden connect 3 0 2 0;
#P hidden connect 6 0 11 0;
#P hidden connect 7 0 9 0;
#P hidden fasten 18 1 16 0 360 222 183 222;
#P hidden connect 16 0 17 0;
#P hidden fasten 17 0 12 0 183 275 251 275;
#P hidden connect 16 1 12 0;
#P hidden connect 12 0 13 0;
#P hidden connect 11 0 6 0;
#P hidden connect 9 0 7 0;
#P hidden connect 20 0 18 0;
#P hidden connect 18 0 12 1;
#P pop;
