max v2;#N vpatcher 35 92 885 643;#P window setfont "Sans Serif" 9.;#P hidden newex 267 376 58 196617 jcom.out 1;#P hidden newex 173 182 43 196617 jcom.in;#P hidden newex 456 87 93 196617 pvar source_mode;#P window linecount 2;#P hidden newex 456 109 311 196617 jcom.parameter source_mode @type msg_toggle @clipmode none @description "Choose between camera - file or synthesis as input";#P objectname source_mode[1];#P window linecount 1;#P hidden comment 282 400 75 196617 VIDEO OUTPUT;#P hidden outlet 267 400 13 0;#P user umenu 115 1 76 196647 1 64 17 1;#X add camera;#X add video file;#X add synthesis;#P objectname source_mode;#P bpatcher 0 19 190 41 0 -120 jalg.input%.ui.mxt 0 $0_;#P objectname jalg.oscnet.ui.mxt;#P hidden newex 173 229 37 196617 t open;#P hidden newex 173 253 45 196617 pcontrol;#P hidden newex 173 205 91 196617 jcom.pass open;#P hidden message 38 69 125 196617 /documentation/generate;#P window linecount 2;#P message 97 307 66 196617 \; max refresh;#P message 14 307 75 196617 \; jcom.init bang;#P window linecount 1;#P hidden newex 173 344 104 196617 jalg.input%.mxt $0_;#P window linecount 3;#P hidden newex 16 94 324 196617 jcom.hub jcom.input% @size 1U-half @module_type video @algorithm_type jitter @description "Input from either a camera - video file or video synthesis";#P objectname jcom.hub;#P hidden inlet 16 70 13 0;#P hidden outlet 16 167 13 0;#P window linecount 1;#P message 279 288 153 196617 /preset/save bang;#P hidden newex 279 266 61 196617 prepend set;#P bpatcher 0 0 256 60 0 0 jcom.gui.mxt 0 $0_;#P objectname jcom.gui;#P hidden fasten 6 0 13 0 178 370 779 370 779 16 5 16;#P hidden connect 14 0 13 0;#P hidden fasten 17 1 13 0 762 143 770 143 770 16 5 16;#P hidden connect 4 0 5 0;#P hidden connect 9 0 5 0;#P hidden connect 5 0 3 0;#P hidden connect 19 0 10 0;#P hidden connect 10 0 12 0;#P hidden connect 12 0 11 0;#P hidden fasten 10 1 6 0 259 277 178 277;#P hidden connect 11 0 6 0;#P hidden connect 6 1 20 0;#P hidden connect 20 0 15 0;#P hidden fasten 10 1 1 0 259 257 284 257;#P hidden connect 1 0 2 0;#P hidden fasten 17 0 18 0 461 143 450 143 450 83 461 83;#P hidden connect 18 0 17 0;#P pop;