max v2;#N vpatcher 14 58 795 600;#P window setfont "Sans Serif" 9.;#N vpatcher 629 439 974 698;#P window setfont "Sans Serif" 9.;#P window linecount 0;#P newex 193 81 55 196617 route loop;#P inlet 54 50 15 0;#P inlet 193 50 15 0;#P inlet 172 50 15 0;#P window linecount 1;#P newex 193 105 30 196617 == 0;#P newex 193 196 81 196617 s $1_xxx_done;#B color 14;#P newex 193 167 21 196617 t 0;#P newex 193 140 27 196617 gate;#P connect 5 0 7 0;#P connect 7 0 3 0;#P connect 3 0 0 0;#P fasten 4 0 1 0 177 163 198 163;#P connect 0 0 1 0;#P connect 1 0 2 0;#P connect 6 0 0 1;#P pop;#P newobj 481 395 38 196617 p done;#P objectname done;#P outlet 444 397 15 0;#P objectname sig16[1];#P outlet 425 397 15 0;#P objectname sig15[1];#P outlet 406 397 15 0;#P objectname sig14[1];#P outlet 387 397 15 0;#P objectname sig13[1];#P outlet 369 397 15 0;#P objectname sig12[1];#P outlet 350 397 15 0;#P objectname sig11[1];#P outlet 331 397 15 0;#P objectname sig10[1];#P outlet 312 397 15 0;#P objectname sig9[1];#P outlet 645 397 15 0;#P message 580 65 43 196617 loop \$1;#P outlet 589 397 15 0;#N vpatcher 229 253 798 600;#P origin 0 -52;#P inlet 487 30 15 0;#P window setfont "Sans Serif" 9.;#N vpatcher 10 59 610 459;#P outlet 219 227 15 0;#P inlet 207 89 15 0;#P connect 0 0 1 0;#P pop;#P newobj 53 170 37 196617 p thru;#P message 392 80 14 196617 0;#P button 367 78 15 0;#P newex 367 54 44 196617 sel 1 0;#P newex 367 118 27 196617 int;#P inlet 367 26 15 0;#P newex 290 250 29 196617 * 1.;#P newex 309 219 37 196617 !/ 1.;#P outlet 290 288 15 0;#P message 18 171 14 196617 1;#P message 2 171 14 196617 2;#P newex 16 190 47 196617 gate 2 1;#P flonum 150 128 35 9 0 0 0 3 0 0 0 221 221 221 222 222 222 0 0 0;#P flonum 116 174 35 9 0 0 0 3 0 0 0 221 221 221 222 222 222 0 0 0;#P newex 171 49 164 196617 jcom.oscroute /timer /countdown;#P message 281 132 17 196617 0.;#P message 248 133 30 196617 bang;#P newex 248 100 41 196617 sel 1 0;#P newex 115 152 43 196617 float 0.;#P inlet 148 76 15 0;#P newex 66 223 30 196617 !- 0.;#P inlet 171 25 15 0;#P outlet 33 282 15 0;#P toggle 171 75 15 0;#P newex 171 95 63 196617 qmetro 100;#P newex 30 123 53 196617 snapshot~;#P inlet 30 79 15 0;#P connect 9 0 16 0;#P connect 17 0 15 0;#P connect 16 0 15 0;#P connect 9 1 17 0;#P fasten 2 0 1 0 176 116 35 116;#P connect 0 0 1 0;#P connect 15 0 4 0;#P connect 6 0 4 0;#P connect 27 0 26 0;#P connect 1 0 26 0;#P connect 26 0 15 1;#P connect 15 1 6 0;#P connect 13 0 6 1;#P connect 11 0 6 1;#P connect 10 0 8 0;#P connect 8 0 13 0;#P connect 14 0 8 1;#P connect 7 0 14 0;#P connect 5 0 12 0;#P connect 12 0 3 0;#P connect 22 0 3 0;#P connect 3 0 2 0;#P connect 25 0 2 0;#P fasten 12 1 9 0 253 80 253 80;#P connect 9 0 10 0;#P connect 9 1 11 0;#P connect 26 0 20 0;#P connect 20 0 18 0;#P connect 7 0 19 0;#P connect 19 0 20 1;#P connect 21 0 23 0;#P connect 23 0 24 0;#P connect 24 0 22 0;#P connect 12 0 22 1;#P connect 23 1 25 0;#P pop;#P newobj 589 335 66 196617 p timer;#P objectname timer;#N vpatcher 599 323 1199 723;#P window setfont "Sans Serif" 9.;#P message 104 75 43 196617 resume;#P newex 50 50 41 196617 sel 1 0;#P message 50 75 35 196617 pause;#P inlet 50 30 15 0;#P outlet 50 167 15 0;#P connect 1 0 3 0;#P connect 3 0 2 0;#P connect 2 0 0 0;#P connect 4 0 0 0;#P fasten 3 1 4 0 70 71 109 71;#P pop;#P newobj 515 66 43 196617 p pause;#N vpatcher 376 210 1162 794;#P origin -420 -7;#P window setfont "Sans Serif" 9.;#P newex 321 64 117 196617 sel bang 0;#P window linecount 1;#P newex 321 117 78 196617 prepend open;#P newex 321 88 94 196617 opendialog sound;#B color 5;#P window linecount 0;#N vpatcher 306 215 1080 490;#P window setfont "Sans Serif" 9.;#P window linecount 0;#P newex 516 59 20 196617 t b;#P window linecount 1;#P message 516 103 58 196617 $0_player;#P window linecount 2;#P newex 64 150 192 196617 jcom.return info/channels @description "number of channels of the soundfile";#P newex 334 150 178 196617 jcom.return info/length @description "length of the soundfile";#P newex 516 150 203 196617 jcom.return info/playername @description "name of the sfplay~ object";#P window linecount 1;#P newex 50 190 115 196617 prepend /info/channels;#P newex 50 103 26 196617 int;#P newex 181 103 95 196617 prepend /info/size;#P newex 181 59 26 196617 int;#P inlet 516 33 15 0;#P inlet 50 33 15 0;#P inlet 181 33 15 0;#P outlet 50 223 15 0;#P connect 2 0 6 0;#P connect 6 0 7 0;#P connect 7 0 0 0;#P fasten 5 0 0 0 186 218 55 218;#P connect 6 0 10 0;#P connect 1 0 4 0;#P connect 4 0 5 0;#P fasten 4 0 9 0 186 89 339 89;#P connect 3 0 12 0;#P connect 12 0 11 0;#P connect 11 0 8 0;#P pop;#P newobj 30 276 97 196617 p info_on_soundfile;#P outlet 704 534 15 0;#P flonum 544 414 35 9 0 0 0 3 0 0 0 221 221 221 222 222 222 0 0 0;#P outlet 544 534 15 0;#P outlet 30 534 15 0;#P newex 216 312 100 196617 prepend /info/name;#P newex 216 291 51 196617 tosymbol;#P newex 320 138 54 196617 jcom.thru;#P inlet 321 37 15 0;#P message 320 414 207 196617;#P window linecount 1;#P newex 340 464 43 196617 delay 5;#P newex 340 444 48 196617 loadbang;#P newex 340 504 71 196617 prepend name;#P message 340 484 58 196617 $0_player;#P newex 151 229 79 196617 sfinfo~;#N vpatcher 497 192 1010 629;#P origin 43 -4;#P window setfont "Sans Serif" 9.;#N vpatcher 10 59 610 459;#P window setfont "Sans Serif" 9.;#P message 76 128 153 196617 script connect player \$1 done 0;#P outlet 76 182 15 0;#P inlet 76 60 15 0;#P connect 0 0 2 0;#P connect 2 0 1 0;#P pop;#P newobj 266 111 93 196617 p connect_to_done;#P outlet 165 336 15 0;#P inlet 124 146 15 0;#P window linecount 1;#N vpatcher 58 303 999 761;#P origin -13 0;#P window setfont "Sans Serif" 9.;#P window linecount 0;#P newex 273 134 27 196617 + 1;#P message 273 160 153 196617 script connect player \$1 done 0;#P newex 179 62 53 196617 t i b i i;#P window linecount 1;#P newex 179 206 197 196617 sprintf script connect player %ld timer 0;#P window linecount 0;#P newex 557 207 27 196617 - 1;#P newex 557 179 27 196617 t i i;#P window linecount 1;#P newex 557 231 202 196617 sprintf script connect player %ld sig%ld 0;#P window linecount 0;#P newex 527 158 40 196617 uzi 1;#P outlet 179 292 15 0;#P inlet 179 41 15 0;#P window linecount 1;#P message 226 183 146 196617 script connect thru 0 player 0;#P connect 1 0 8 0;#P connect 8 0 7 0;#P connect 7 0 2 0;#P connect 0 0 2 0;#P connect 4 0 2 0;#P connect 9 0 2 0;#P connect 8 1 0 0;#P connect 8 2 10 0;#P connect 10 0 9 0;#P connect 8 3 3 0;#P connect 3 2 5 0;#P connect 5 0 6 0;#P connect 6 0 4 0;#P fasten 5 1 4 1 579 200 754 200;#P pop;#P newobj 138 249 115 196617 p connect_from_player;#P window linecount 0;#P newex 124 188 53 196617 t b i i b;#N vpatcher 10 59 610 459;#P window setfont "Sans Serif" 9.;#P message 165 142 99 196617 script delete player;#P outlet 167 297 15 0;#P inlet 165 69 15 0;#P connect 0 0 2 0;#P connect 2 0 1 0;#P pop;#P newobj 426 249 80 196617 p delete_player;#N vpatcher 433 216 1136 612;#P origin -135 35;#P window setfont "Sans Serif" 9.;#P newex 282 105 402 196617 sprintf script new player newex 51 282 105 196617 sfplay~ %ld 40320 1 $0_player;#P outlet 301 272 15 0;#P inlet 299 21 15 0;#P connect 0 0 2 0;#P connect 2 0 1 0;#P pop;#P newobj 341 249 82 196617 p create_player;#P outlet 138 335 15 0;#P connect 5 0 3 0;#P connect 3 1 4 0;#P fasten 4 0 0 0 143 305 143 305;#P fasten 1 0 0 0 346 305 143 305;#P fasten 2 0 0 0 431 305 143 305;#P fasten 3 0 6 0 129 284 170 284;#P lcolor 3;#P fasten 3 2 1 0 157 240 346 240;#P fasten 3 3 2 0 171 234 431 234;#P pop;#P newobj 151 382 93 196617 p scripting_player;#B color 14;#P newex 320 379 62 196617 prepend set;#P outlet 320 534 15 0;#P outlet 151 534 15 0;#P connect 4 0 18 0;#P fasten 13 0 14 0 221 355 35 355;#P connect 18 0 14 0;#P connect 4 3 18 1;#P connect 4 5 18 2;#P connect 11 0 4 0;#P connect 4 0 3 0;#P connect 3 0 0 0;#P connect 4 5 12 0;#P connect 12 0 13 0;#P connect 20 0 11 0;#P connect 11 0 2 0;#P connect 2 0 9 0;#P connect 3 1 9 0;#P connect 9 0 1 0;#P connect 6 0 1 0;#P connect 10 0 21 0;#P fasten 21 1 19 0 379 84 326 84;#P connect 21 0 19 0;#P fasten 21 2 20 0 432 110 326 110;#P connect 19 0 20 0;#P connect 7 0 8 0;#P connect 8 0 5 0;#P connect 5 0 6 0;#P connect 4 3 16 0;#P connect 16 0 15 0;#P connect 11 0 17 0;#P pop;#P newobj 320 111 75 196617 p prepare;#P newex 352 189 54 196617 jcom.thru;#P objectname thru;#N thispatcher;#Q end;#P newobj 336 147 61 196617 thispatcher;#P outlet 293 397 15 0;#P objectname sig16;#P outlet 274 397 15 0;#P objectname sig15;#P outlet 255 397 15 0;#P objectname sig14;#P outlet 236 397 15 0;#P objectname sig13;#P outlet 218 397 15 0;#P objectname sig12;#P outlet 199 397 15 0;#P objectname sig11;#P outlet 180 397 15 0;#P objectname sig10;#P outlet 161 397 15 0;#P objectname sig9;#N comlet;#P outlet 142 397 15 0;#P objectname sig8;#P outlet 123 397 15 0;#P objectname sig7;#N comlet;#P outlet 104 397 15 0;#P objectname sig6;#P outlet 85 397 15 0;#P objectname sig5;#P outlet 67 397 15 0;#P objectname sig4;#P outlet 48 397 15 0;#P objectname sig3;#P outlet 29 397 15 0;#P objectname sig2;#P window linecount 2;#N vpatcher 599 323 1199 723;#P window setfont "Sans Serif" 9.;#P message 50 134 39 196617 seek 0;#P inlet 181 32 15 0;#P message 181 80 62 196617 set seek \$1;#P message 104 75 14 196617 0;#P newex 50 50 41 196617 sel 1 0;#P inlet 50 30 15 0;#P outlet 51 333 15 0;#P connect 1 0 2 0;#P connect 2 0 6 0;#P connect 4 0 6 0;#P connect 6 0 0 0;#P connect 3 0 0 0;#P fasten 2 1 3 0 70 71 109 71;#P connect 5 0 4 0;#P pop;#P newobj 618 136 28 196617 p play;#P outlet 721 397 15 0;#P inlet 320 21 15 0;#P outlet 10 397 15 0;#P objectname sig1;#P window linecount 1;#P newex 320 44 404 196617 jcom.oscroute /sf_open /sf_load /play /pause /loop /start;#N sfplay~  1 40320 1 $0_player;#P newobj 51 282 146 196617 sfplay~ 1 40320 1 $0_player;#P objectname player;#P connect 0 0 2 0;#P connect 22 0 0 0;#P connect 3 0 1 0;#P connect 1 0 23 0;#P connect 23 1 21 0;#P fasten 27 0 22 0 585 177 357 177;#P connect 23 2 22 0;#P fasten 5 0 22 0 623 179 357 179;#P fasten 24 0 22 0 520 175 357 175;#P connect 0 2 37 0;#P connect 23 4 37 1;#P connect 27 0 37 2;#P connect 1 3 24 0;#P connect 1 4 27 0;#P connect 0 1 25 0;#P connect 25 0 26 0;#P connect 23 3 25 1;#P connect 1 6 25 2;#P connect 1 2 5 0;#P connect 1 2 25 3;#P connect 1 5 5 1;#P connect 1 5 25 4;#P connect 25 1 28 0;#P fasten 23 0 4 0 325 234 726 234;#P pop;