{
	"patcher" : 	{
		"fileversion" : 1,
		"rect" : [ 0.0, 44.0, 1280.0, 688.0 ],
		"bglocked" : 0,
		"defrect" : [ 0.0, 44.0, 1280.0, 688.0 ],
		"openrect" : [ 0.0, 0.0, 0.0, 0.0 ],
		"openinpresentation" : 1,
		"default_fontsize" : 10.0,
		"default_fontface" : 0,
		"default_fontname" : "Verdana",
		"gridonopen" : 0,
		"gridsize" : [ 5.0, 5.0 ],
		"gridsnaponopen" : 0,
		"toolbarvisible" : 1,
		"boxanimatetime" : 200,
		"imprint" : 0,
		"boxes" : [ 			{
				"box" : 				{
					"maxclass" : "newobj",
					"text" : "t 0.",
					"patching_rect" : [ 762.0, 516.0, 28.0, 19.0 ],
					"id" : "obj-34",
					"fontname" : "Verdana",
					"numinlets" : 1,
					"fontsize" : 10.0,
					"numoutlets" : 1,
					"outlettype" : [ "float" ]
				}

			}
, 			{
				"box" : 				{
					"maxclass" : "newobj",
					"text" : "* 1000.",
					"patching_rect" : [ 1084.0, 538.0, 49.0, 19.0 ],
					"id" : "obj-28",
					"fontname" : "Verdana",
					"numinlets" : 2,
					"fontsize" : 10.0,
					"numoutlets" : 1,
					"outlettype" : [ "float" ]
				}

			}
, 			{
				"box" : 				{
					"maxclass" : "newobj",
					"text" : "* 0.001",
					"patching_rect" : [ 827.0, 470.0, 49.0, 19.0 ],
					"id" : "obj-13",
					"fontname" : "Verdana",
					"numinlets" : 2,
					"fontsize" : 10.0,
					"numoutlets" : 1,
					"outlettype" : [ "float" ]
				}

			}
, 			{
				"box" : 				{
					"maxclass" : "textedit",
					"ignoreclick" : 1,
					"patching_rect" : [ 750.0, 466.0, 59.0, 22.0 ],
					"id" : "obj-17",
					"fontname" : "Verdana",
					"presentation" : 1,
					"readonly" : 1,
					"frgb" : [ 0.0, 0.0, 0.0, 1.0 ],
					"numinlets" : 1,
					"fontsize" : 10.0,
					"numoutlets" : 4,
					"presentation_rect" : [ 133.0, 36.0, 70.0, 16.0 ],
					"outlettype" : [ "", "int", "", "" ]
				}

			}
, 			{
				"box" : 				{
					"maxclass" : "newobj",
					"text" : "t 0",
					"patching_rect" : [ 548.0, 161.0, 24.0, 19.0 ],
					"id" : "obj-36",
					"fontname" : "Verdana",
					"numinlets" : 1,
					"fontsize" : 10.0,
					"numoutlets" : 1,
					"outlettype" : [ "int" ]
				}

			}
, 			{
				"box" : 				{
					"maxclass" : "newobj",
					"text" : "change 0 -",
					"patching_rect" : [ 575.0, 161.0, 64.0, 19.0 ],
					"id" : "obj-12",
					"fontname" : "Verdana",
					"numinlets" : 1,
					"fontsize" : 10.0,
					"numoutlets" : 3,
					"outlettype" : [ "", "int", "int" ]
				}

			}
, 			{
				"box" : 				{
					"maxclass" : "newobj",
					"text" : "conformpath slash boot",
					"patching_rect" : [ 550.0, 87.0, 129.0, 19.0 ],
					"id" : "obj-15",
					"fontname" : "Verdana",
					"numinlets" : 1,
					"fontsize" : 10.0,
					"numoutlets" : 2,
					"outlettype" : [ "", "int" ]
				}

			}
, 			{
				"box" : 				{
					"maxclass" : "newobj",
					"text" : "prepend ignoreclick",
					"patching_rect" : [ 712.0, 267.0, 109.0, 19.0 ],
					"id" : "obj-9",
					"fontname" : "Verdana",
					"numinlets" : 1,
					"fontsize" : 10.0,
					"numoutlets" : 1,
					"outlettype" : [ "" ]
				}

			}
, 			{
				"box" : 				{
					"maxclass" : "toggle",
					"hint" : "",
					"annotation" : "",
					"patching_rect" : [ 584.0, 21.0, 20.0, 20.0 ],
					"id" : "obj-16",
					"presentation" : 1,
					"numinlets" : 1,
					"numoutlets" : 1,
					"presentation_rect" : [ 240.0, 36.0, 16.0, 16.0 ],
					"outlettype" : [ "int" ]
				}

			}
, 			{
				"box" : 				{
					"maxclass" : "toggle",
					"hint" : "",
					"annotation" : "",
					"patching_rect" : [ 459.0, 296.0, 20.0, 20.0 ],
					"id" : "obj-14",
					"presentation" : 1,
					"numinlets" : 1,
					"numoutlets" : 1,
					"presentation_rect" : [ 282.0, 36.0, 16.0, 16.0 ],
					"outlettype" : [ "int" ]
				}

			}
, 			{
				"box" : 				{
					"maxclass" : "textbutton",
					"varname" : "Open_button[2]",
					"patching_rect" : [ 494.0, 186.0, 49.0, 16.0 ],
					"rounded" : 8.0,
					"id" : "obj-70",
					"fontname" : "Verdana",
					"presentation" : 1,
					"mode" : 1,
					"numinlets" : 1,
					"fontsize" : 9.873845,
					"text" : "Pause",
					"texton" : "Resume",
					"numoutlets" : 3,
					"presentation_rect" : [ 89.0, 36.0, 43.0, 16.0 ],
					"outlettype" : [ "", "", "int" ]
				}

			}
, 			{
				"box" : 				{
					"maxclass" : "textbutton",
					"varname" : "Play_button[1]",
					"patching_rect" : [ 419.0, 243.0, 49.0, 16.0 ],
					"rounded" : 8.0,
					"id" : "obj-84",
					"fontname" : "Verdana",
					"presentation" : 1,
					"mode" : 1,
					"numinlets" : 1,
					"fontsize" : 9.873845,
					"text" : "Play",
					"texton" : "Play",
					"numoutlets" : 3,
					"presentation_rect" : [ 1.0, 36.0, 43.0, 16.0 ],
					"outlettype" : [ "", "", "int" ]
				}

			}
, 			{
				"box" : 				{
					"maxclass" : "textbutton",
					"varname" : "Open_button[1]",
					"patching_rect" : [ 498.0, 89.0, 49.0, 16.0 ],
					"rounded" : 8.0,
					"id" : "obj-83",
					"fontname" : "Verdana",
					"presentation" : 1,
					"numinlets" : 1,
					"fontsize" : 9.873845,
					"text" : "Open",
					"texton" : "DSP",
					"numoutlets" : 3,
					"presentation_rect" : [ 45.0, 36.0, 43.0, 16.0 ],
					"outlettype" : [ "", "", "int" ]
				}

			}
, 			{
				"box" : 				{
					"maxclass" : "newobj",
					"varname" : "play[2]",
					"text" : "jcom.message direct @type msg_symbol @repetitions/allow 1 @description \"direct commands to the sfplay~ object\"",
					"patching_rect" : [ 485.0, 345.0, 601.0, 19.0 ],
					"id" : "obj-1",
					"fontname" : "Verdana",
					"numinlets" : 1,
					"fontsize" : 10.0,
					"numoutlets" : 3,
					"color" : [ 1.0, 0.741176, 0.611765, 1.0 ],
					"outlettype" : [ "", "", "" ]
				}

			}
, 			{
				"box" : 				{
					"maxclass" : "newobj",
					"text" : "r #0__xxx_done",
					"patching_rect" : [ 487.0, 213.0, 92.0, 19.0 ],
					"id" : "obj-2",
					"fontname" : "Verdana",
					"numinlets" : 0,
					"fontsize" : 10.0,
					"numoutlets" : 1,
					"color" : [ 1.0, 0.360784, 0.682353, 1.0 ],
					"outlettype" : [ "" ]
				}

			}
, 			{
				"box" : 				{
					"maxclass" : "newobj",
					"text" : "* 1.",
					"patching_rect" : [ 827.0, 449.0, 35.0, 19.0 ],
					"id" : "obj-4",
					"fontname" : "Verdana",
					"numinlets" : 2,
					"fontsize" : 10.0,
					"numoutlets" : 1,
					"outlettype" : [ "float" ]
				}

			}
, 			{
				"box" : 				{
					"maxclass" : "newobj",
					"varname" : "start",
					"text" : "jcom.message start @type msg_float @repetitions/allow 0 @dataspace time @dataspace/unit/active second @dataspace/unit/native second @dataspace/unit/internal second @description \"start time in soundfile to play in [sec]\"",
					"linecount" : 3,
					"patching_rect" : [ 827.0, 490.0, 580.0, 43.0 ],
					"id" : "obj-5",
					"fontname" : "Verdana",
					"numinlets" : 1,
					"fontsize" : 10.0,
					"numoutlets" : 3,
					"color" : [ 1.0, 0.741176, 0.611765, 1.0 ],
					"outlettype" : [ "", "", "" ]
				}

			}
, 			{
				"box" : 				{
					"maxclass" : "newobj",
					"text" : "p",
					"patching_rect" : [ 754.0, 443.0, 30.0, 19.0 ],
					"id" : "obj-6",
					"fontname" : "Verdana",
					"numinlets" : 1,
					"fontsize" : 10.0,
					"numoutlets" : 1,
					"outlettype" : [ "" ],
					"patcher" : 					{
						"fileversion" : 1,
						"rect" : [ 10.0, 59.0, 600.0, 426.0 ],
						"bglocked" : 0,
						"defrect" : [ 10.0, 59.0, 600.0, 426.0 ],
						"openrect" : [ 0.0, 0.0, 0.0, 0.0 ],
						"openinpresentation" : 0,
						"default_fontsize" : 10.0,
						"default_fontface" : 0,
						"default_fontname" : "Verdana",
						"gridonopen" : 0,
						"gridsize" : [ 5.0, 5.0 ],
						"gridsnaponopen" : 0,
						"toolbarvisible" : 1,
						"boxanimatetime" : 200,
						"imprint" : 0,
						"boxes" : [ 							{
								"box" : 								{
									"maxclass" : "newobj",
									"text" : "prepend set",
									"patching_rect" : [ 59.0, 159.0, 70.0, 19.0 ],
									"id" : "obj-28",
									"fontname" : "Verdana",
									"numinlets" : 1,
									"fontsize" : 10.0,
									"numoutlets" : 1,
									"outlettype" : [ "" ]
								}

							}
, 							{
								"box" : 								{
									"maxclass" : "message",
									"text" : "1 channel",
									"patching_rect" : [ 59.0, 109.0, 57.0, 17.0 ],
									"id" : "obj-1",
									"fontname" : "Verdana",
									"numinlets" : 2,
									"fontsize" : 10.0,
									"numoutlets" : 1,
									"outlettype" : [ "" ]
								}

							}
, 							{
								"box" : 								{
									"maxclass" : "newobj",
									"text" : "sel 1",
									"patching_rect" : [ 59.0, 50.0, 32.0, 19.0 ],
									"id" : "obj-2",
									"fontname" : "Verdana",
									"numinlets" : 2,
									"fontsize" : 10.0,
									"numoutlets" : 2,
									"outlettype" : [ "bang", "" ]
								}

							}
, 							{
								"box" : 								{
									"maxclass" : "newobj",
									"text" : "append channels",
									"patching_rect" : [ 130.0, 110.0, 124.0, 19.0 ],
									"id" : "obj-3",
									"fontname" : "Verdana",
									"numinlets" : 1,
									"fontsize" : 10.0,
									"numoutlets" : 1,
									"outlettype" : [ "" ]
								}

							}
, 							{
								"box" : 								{
									"maxclass" : "inlet",
									"patching_rect" : [ 59.0, 17.0, 28.0, 28.0 ],
									"id" : "obj-5",
									"numinlets" : 0,
									"numoutlets" : 1,
									"outlettype" : [ "" ],
									"comment" : ""
								}

							}
, 							{
								"box" : 								{
									"maxclass" : "outlet",
									"patching_rect" : [ 59.0, 193.0, 32.0, 32.0 ],
									"id" : "obj-6",
									"numinlets" : 1,
									"numoutlets" : 0,
									"comment" : ""
								}

							}
 ],
						"lines" : [ 							{
								"patchline" : 								{
									"source" : [ "obj-5", 0 ],
									"destination" : [ "obj-2", 0 ],
									"hidden" : 0,
									"midpoints" : [  ]
								}

							}
, 							{
								"patchline" : 								{
									"source" : [ "obj-2", 0 ],
									"destination" : [ "obj-1", 0 ],
									"hidden" : 0,
									"midpoints" : [  ]
								}

							}
, 							{
								"patchline" : 								{
									"source" : [ "obj-2", 1 ],
									"destination" : [ "obj-3", 0 ],
									"hidden" : 0,
									"midpoints" : [  ]
								}

							}
, 							{
								"patchline" : 								{
									"source" : [ "obj-3", 0 ],
									"destination" : [ "obj-28", 0 ],
									"hidden" : 0,
									"midpoints" : [  ]
								}

							}
, 							{
								"patchline" : 								{
									"source" : [ "obj-1", 0 ],
									"destination" : [ "obj-28", 0 ],
									"hidden" : 0,
									"midpoints" : [  ]
								}

							}
, 							{
								"patchline" : 								{
									"source" : [ "obj-28", 0 ],
									"destination" : [ "obj-6", 0 ],
									"hidden" : 0,
									"midpoints" : [  ]
								}

							}
 ]
					}
,
					"saved_object_attributes" : 					{
						"default_fontsize" : 10.0,
						"fontname" : "Verdana",
						"globalpatchername" : "",
						"fontface" : 0,
						"fontsize" : 10.0,
						"default_fontface" : 0,
						"default_fontname" : "Verdana"
					}

				}

			}
, 			{
				"box" : 				{
					"maxclass" : "newobj",
					"text" : "prepend set",
					"patching_rect" : [ 869.0, 536.0, 68.0, 19.0 ],
					"id" : "obj-7",
					"fontname" : "Verdana",
					"numinlets" : 1,
					"fontsize" : 10.0,
					"numoutlets" : 1,
					"outlettype" : [ "" ]
				}

			}
, 			{
				"box" : 				{
					"maxclass" : "jcom.textslider",
					"patching_rect" : [ 979.0, 381.0, 158.0, 19.0 ],
					"id" : "obj-8",
					"presentation" : 1,
					"numinlets" : 1,
					"fontsize" : 9.0,
					"text" : "drag file into the time display",
					"numoutlets" : 1,
					"presentation_rect" : [ 1.0, 20.0, 299.0, 15.0 ],
					"outlettype" : [ "" ]
				}

			}
, 			{
				"box" : 				{
					"maxclass" : "newobj",
					"varname" : "countdown[1]",
					"text" : "jcom.parameter countdown @type msg_toggle @description \"changes the time displayed in the module to countdown mode\"",
					"linecount" : 2,
					"patching_rect" : [ 622.0, 15.0, 331.0, 31.0 ],
					"id" : "obj-10",
					"fontname" : "Verdana",
					"numinlets" : 1,
					"fontsize" : 10.0,
					"numoutlets" : 3,
					"color" : [ 1.0, 0.741176, 0.611765, 1.0 ],
					"outlettype" : [ "", "", "" ]
				}

			}
, 			{
				"box" : 				{
					"maxclass" : "comment",
					"text" : "elapse:",
					"linecount" : 2,
					"patching_rect" : [ 213.0, 38.0, 43.0, 31.0 ],
					"id" : "obj-11",
					"fontname" : "Verdana",
					"presentation" : 1,
					"frgb" : [ 0.0, 0.0, 0.0, 1.0 ],
					"numinlets" : 1,
					"fontsize" : 10.0,
					"numoutlets" : 0,
					"presentation_rect" : [ 200.0, 34.0, 45.0, 19.0 ]
				}

			}
, 			{
				"box" : 				{
					"maxclass" : "comment",
					"text" : "loop:",
					"linecount" : 2,
					"patching_rect" : [ 272.0, 38.0, 30.0, 31.0 ],
					"id" : "obj-18",
					"fontname" : "Verdana",
					"presentation" : 1,
					"frgb" : [ 0.0, 0.0, 0.0, 1.0 ],
					"numinlets" : 1,
					"fontsize" : 10.0,
					"numoutlets" : 0,
					"presentation_rect" : [ 253.0, 34.0, 34.0, 19.0 ]
				}

			}
, 			{
				"box" : 				{
					"maxclass" : "comment",
					"text" : "ms",
					"patching_rect" : [ 208.0, 61.0, 229.0, 28.0 ],
					"id" : "obj-19",
					"fontname" : "Verdana",
					"presentation" : 1,
					"frgb" : [ 0.0, 0.0, 0.0, 1.0 ],
					"numinlets" : 1,
					"fontsize" : 18.0,
					"numoutlets" : 0,
					"presentation_rect" : [ 216.0, 46.0, 40.0, 28.0 ]
				}

			}
, 			{
				"box" : 				{
					"maxclass" : "comment",
					"text" : "s",
					"patching_rect" : [ 135.0, 61.0, 194.0, 28.0 ],
					"id" : "obj-20",
					"fontname" : "Verdana",
					"presentation" : 1,
					"frgb" : [ 0.0, 0.0, 0.0, 1.0 ],
					"numinlets" : 1,
					"fontsize" : 18.0,
					"numoutlets" : 0,
					"presentation_rect" : [ 156.0, 46.0, 24.0, 28.0 ]
				}

			}
, 			{
				"box" : 				{
					"maxclass" : "comment",
					"text" : "m",
					"patching_rect" : [ 76.0, 61.0, 218.0, 28.0 ],
					"id" : "obj-21",
					"fontname" : "Verdana",
					"presentation" : 1,
					"frgb" : [ 0.0, 0.0, 0.0, 1.0 ],
					"numinlets" : 1,
					"fontsize" : 18.0,
					"numoutlets" : 0,
					"presentation_rect" : [ 106.0, 46.0, 26.0, 28.0 ]
				}

			}
, 			{
				"box" : 				{
					"maxclass" : "comment",
					"text" : "h",
					"patching_rect" : [ 29.0, 61.0, 200.0, 28.0 ],
					"id" : "obj-22",
					"fontname" : "Verdana",
					"presentation" : 1,
					"frgb" : [ 0.0, 0.0, 0.0, 1.0 ],
					"numinlets" : 1,
					"fontsize" : 18.0,
					"numoutlets" : 0,
					"presentation_rect" : [ 59.0, 46.0, 24.0, 28.0 ]
				}

			}
, 			{
				"box" : 				{
					"maxclass" : "number",
					"bgcolor" : [ 0.301961, 0.0, 0.6, 0.0 ],
					"patching_rect" : [ 161.0, 60.0, 67.0, 28.0 ],
					"id" : "obj-23",
					"fontname" : "Verdana",
					"presentation" : 1,
					"triangle" : 0,
					"numinlets" : 1,
					"fontsize" : 18.0,
					"numoutlets" : 2,
					"presentation_rect" : [ 172.0, 47.0, 45.0, 28.0 ],
					"bordercolor" : [ 0.701961, 0.6, 0.901961, 0.0 ],
					"outlettype" : [ "int", "bang" ]
				}

			}
, 			{
				"box" : 				{
					"maxclass" : "number",
					"ignoreclick" : 1,
					"bgcolor" : [ 0.301961, 0.0, 0.6, 0.0 ],
					"patching_rect" : [ 100.0, 60.0, 67.0, 28.0 ],
					"id" : "obj-24",
					"fontname" : "Verdana",
					"presentation" : 1,
					"triangle" : 0,
					"numinlets" : 1,
					"fontsize" : 18.0,
					"numoutlets" : 2,
					"presentation_rect" : [ 130.0, 47.0, 34.0, 28.0 ],
					"bordercolor" : [ 0.701961, 0.6, 0.901961, 0.0 ],
					"outlettype" : [ "int", "bang" ]
				}

			}
, 			{
				"box" : 				{
					"maxclass" : "number",
					"ignoreclick" : 1,
					"bgcolor" : [ 0.301961, 0.0, 0.6, 0.0 ],
					"patching_rect" : [ 44.0, 60.0, 67.0, 28.0 ],
					"id" : "obj-25",
					"fontname" : "Verdana",
					"presentation" : 1,
					"triangle" : 0,
					"numinlets" : 1,
					"fontsize" : 18.0,
					"numoutlets" : 2,
					"presentation_rect" : [ 86.0, 47.0, 24.0, 28.0 ],
					"bordercolor" : [ 0.701961, 0.6, 0.901961, 0.0 ],
					"outlettype" : [ "int", "bang" ]
				}

			}
, 			{
				"box" : 				{
					"maxclass" : "number",
					"ignoreclick" : 1,
					"bgcolor" : [ 0.301961, 0.0, 0.6, 0.0 ],
					"patching_rect" : [ 6.0, 60.0, 67.0, 28.0 ],
					"id" : "obj-26",
					"fontname" : "Verdana",
					"presentation" : 1,
					"triangle" : 0,
					"numinlets" : 1,
					"fontsize" : 18.0,
					"numoutlets" : 2,
					"presentation_rect" : [ 36.0, 47.0, 24.0, 28.0 ],
					"bordercolor" : [ 0.701961, 0.6, 0.901961, 0.0 ],
					"outlettype" : [ "int", "bang" ]
				}

			}
, 			{
				"box" : 				{
					"maxclass" : "newobj",
					"varname" : "timer",
					"text" : "p h:m:s:ms",
					"patching_rect" : [ 305.0, 163.0, 68.0, 19.0 ],
					"id" : "obj-27",
					"fontname" : "Verdana",
					"numinlets" : 1,
					"fontsize" : 10.0,
					"numoutlets" : 4,
					"outlettype" : [ "float", "float", "float", "float" ],
					"patcher" : 					{
						"fileversion" : 1,
						"rect" : [ 261.0, 332.0, 636.0, 369.0 ],
						"bglocked" : 0,
						"defrect" : [ 261.0, 332.0, 636.0, 369.0 ],
						"openrect" : [ 0.0, 0.0, 0.0, 0.0 ],
						"openinpresentation" : 0,
						"default_fontsize" : 10.0,
						"default_fontface" : 0,
						"default_fontname" : "Verdana",
						"gridonopen" : 0,
						"gridsize" : [ 5.0, 5.0 ],
						"gridsnaponopen" : 0,
						"toolbarvisible" : 1,
						"boxanimatetime" : 200,
						"imprint" : 0,
						"boxes" : [ 							{
								"box" : 								{
									"maxclass" : "button",
									"patching_rect" : [ 67.0, 24.0, 15.0, 15.0 ],
									"id" : "obj-1",
									"numinlets" : 1,
									"numoutlets" : 1,
									"outlettype" : [ "bang" ]
								}

							}
, 							{
								"box" : 								{
									"maxclass" : "newobj",
									"text" : "!/ 1.",
									"patching_rect" : [ 56.0, 68.0, 31.0, 19.0 ],
									"id" : "obj-2",
									"fontname" : "Verdana",
									"numinlets" : 2,
									"fontsize" : 10.0,
									"numoutlets" : 1,
									"outlettype" : [ "float" ]
								}

							}
, 							{
								"box" : 								{
									"maxclass" : "newobj",
									"text" : "loadmess 3600000.",
									"patching_rect" : [ 56.0, 44.0, 107.0, 19.0 ],
									"id" : "obj-3",
									"fontname" : "Verdana",
									"numinlets" : 1,
									"fontsize" : 10.0,
									"numoutlets" : 1,
									"outlettype" : [ "" ]
								}

							}
, 							{
								"box" : 								{
									"maxclass" : "outlet",
									"patching_rect" : [ 352.0, 290.0, 15.0, 15.0 ],
									"id" : "obj-4",
									"numinlets" : 1,
									"numoutlets" : 0,
									"comment" : ""
								}

							}
, 							{
								"box" : 								{
									"maxclass" : "outlet",
									"patching_rect" : [ 243.0, 287.0, 15.0, 15.0 ],
									"id" : "obj-5",
									"numinlets" : 1,
									"numoutlets" : 0,
									"comment" : ""
								}

							}
, 							{
								"box" : 								{
									"maxclass" : "outlet",
									"patching_rect" : [ 131.0, 284.0, 15.0, 15.0 ],
									"id" : "obj-6",
									"numinlets" : 1,
									"numoutlets" : 0,
									"comment" : ""
								}

							}
, 							{
								"box" : 								{
									"maxclass" : "outlet",
									"patching_rect" : [ 30.0, 289.0, 15.0, 15.0 ],
									"id" : "obj-7",
									"numinlets" : 1,
									"numoutlets" : 0,
									"comment" : ""
								}

							}
, 							{
								"box" : 								{
									"maxclass" : "newobj",
									"text" : "expr $f1-$i2",
									"patching_rect" : [ 259.0, 208.0, 71.0, 19.0 ],
									"id" : "obj-8",
									"fontname" : "Verdana",
									"numinlets" : 2,
									"fontsize" : 10.0,
									"numoutlets" : 1,
									"outlettype" : [ "" ]
								}

							}
, 							{
								"box" : 								{
									"maxclass" : "newobj",
									"text" : "* 1000.",
									"patching_rect" : [ 352.0, 231.0, 47.0, 19.0 ],
									"id" : "obj-9",
									"fontname" : "Verdana",
									"numinlets" : 2,
									"fontsize" : 10.0,
									"numoutlets" : 1,
									"outlettype" : [ "float" ]
								}

							}
, 							{
								"box" : 								{
									"maxclass" : "newobj",
									"text" : "expr $f1-$i2",
									"patching_rect" : [ 158.0, 162.0, 71.0, 19.0 ],
									"id" : "obj-10",
									"fontname" : "Verdana",
									"numinlets" : 2,
									"fontsize" : 10.0,
									"numoutlets" : 1,
									"outlettype" : [ "" ]
								}

							}
, 							{
								"box" : 								{
									"maxclass" : "newobj",
									"text" : "* 60.",
									"patching_rect" : [ 243.0, 186.0, 35.0, 19.0 ],
									"id" : "obj-11",
									"fontname" : "Verdana",
									"numinlets" : 2,
									"fontsize" : 10.0,
									"numoutlets" : 1,
									"outlettype" : [ "float" ]
								}

							}
, 							{
								"box" : 								{
									"maxclass" : "newobj",
									"text" : "expr $f1-$i2",
									"patching_rect" : [ 46.0, 114.0, 71.0, 19.0 ],
									"id" : "obj-12",
									"fontname" : "Verdana",
									"numinlets" : 2,
									"fontsize" : 10.0,
									"numoutlets" : 1,
									"outlettype" : [ "" ]
								}

							}
, 							{
								"box" : 								{
									"maxclass" : "newobj",
									"text" : "* 60.",
									"patching_rect" : [ 131.0, 139.0, 35.0, 19.0 ],
									"id" : "obj-13",
									"fontname" : "Verdana",
									"numinlets" : 2,
									"fontsize" : 10.0,
									"numoutlets" : 1,
									"outlettype" : [ "float" ]
								}

							}
, 							{
								"box" : 								{
									"maxclass" : "newobj",
									"text" : "* 1.",
									"patching_rect" : [ 30.0, 91.0, 35.0, 19.0 ],
									"id" : "obj-14",
									"fontname" : "Verdana",
									"numinlets" : 2,
									"fontsize" : 10.0,
									"numoutlets" : 1,
									"outlettype" : [ "float" ]
								}

							}
, 							{
								"box" : 								{
									"maxclass" : "inlet",
									"patching_rect" : [ 30.0, 27.0, 15.0, 15.0 ],
									"id" : "obj-15",
									"numinlets" : 0,
									"numoutlets" : 1,
									"outlettype" : [ "" ],
									"comment" : ""
								}

							}
, 							{
								"box" : 								{
									"maxclass" : "comment",
									"text" : "ms",
									"patching_rect" : [ 458.0, 261.0, 63.0, 50.0 ],
									"id" : "obj-16",
									"fontname" : "Verdana",
									"frgb" : [ 0.0, 0.0, 0.0, 1.0 ],
									"numinlets" : 1,
									"fontsize" : 36.0,
									"numoutlets" : 0
								}

							}
, 							{
								"box" : 								{
									"maxclass" : "comment",
									"text" : "s",
									"patching_rect" : [ 309.0, 261.0, 39.0, 50.0 ],
									"id" : "obj-17",
									"fontname" : "Verdana",
									"frgb" : [ 0.0, 0.0, 0.0, 1.0 ],
									"numinlets" : 1,
									"fontsize" : 36.0,
									"numoutlets" : 0
								}

							}
, 							{
								"box" : 								{
									"maxclass" : "comment",
									"text" : "m",
									"patching_rect" : [ 195.0, 261.0, 44.0, 50.0 ],
									"id" : "obj-18",
									"fontname" : "Verdana",
									"frgb" : [ 0.0, 0.0, 0.0, 1.0 ],
									"numinlets" : 1,
									"fontsize" : 36.0,
									"numoutlets" : 0
								}

							}
, 							{
								"box" : 								{
									"maxclass" : "comment",
									"text" : "h",
									"patching_rect" : [ 94.0, 261.0, 39.0, 50.0 ],
									"id" : "obj-19",
									"fontname" : "Verdana",
									"frgb" : [ 0.0, 0.0, 0.0, 1.0 ],
									"numinlets" : 1,
									"fontsize" : 36.0,
									"numoutlets" : 0
								}

							}
 ],
						"lines" : [ 							{
								"patchline" : 								{
									"source" : [ "obj-15", 0 ],
									"destination" : [ "obj-14", 0 ],
									"hidden" : 0,
									"midpoints" : [  ]
								}

							}
, 							{
								"patchline" : 								{
									"source" : [ "obj-14", 0 ],
									"destination" : [ "obj-7", 0 ],
									"hidden" : 0,
									"midpoints" : [  ]
								}

							}
, 							{
								"patchline" : 								{
									"source" : [ "obj-14", 0 ],
									"destination" : [ "obj-12", 0 ],
									"hidden" : 0,
									"midpoints" : [ 39.5, 111.0, 55.5, 111.0 ]
								}

							}
, 							{
								"patchline" : 								{
									"source" : [ "obj-2", 0 ],
									"destination" : [ "obj-14", 1 ],
									"hidden" : 0,
									"midpoints" : [  ]
								}

							}
, 							{
								"patchline" : 								{
									"source" : [ "obj-1", 0 ],
									"destination" : [ "obj-3", 0 ],
									"hidden" : 0,
									"midpoints" : [  ]
								}

							}
, 							{
								"patchline" : 								{
									"source" : [ "obj-3", 0 ],
									"destination" : [ "obj-2", 0 ],
									"hidden" : 0,
									"midpoints" : [  ]
								}

							}
, 							{
								"patchline" : 								{
									"source" : [ "obj-14", 0 ],
									"destination" : [ "obj-12", 1 ],
									"hidden" : 0,
									"midpoints" : [ 39.5, 110.0, 107.5, 110.0 ]
								}

							}
, 							{
								"patchline" : 								{
									"source" : [ "obj-12", 0 ],
									"destination" : [ "obj-13", 0 ],
									"hidden" : 0,
									"midpoints" : [ 55.5, 135.0, 140.5, 135.0 ]
								}

							}
, 							{
								"patchline" : 								{
									"source" : [ "obj-13", 0 ],
									"destination" : [ "obj-6", 0 ],
									"hidden" : 0,
									"midpoints" : [  ]
								}

							}
, 							{
								"patchline" : 								{
									"source" : [ "obj-13", 0 ],
									"destination" : [ "obj-10", 0 ],
									"hidden" : 0,
									"midpoints" : [ 140.5, 158.0, 167.5, 158.0 ]
								}

							}
, 							{
								"patchline" : 								{
									"source" : [ "obj-13", 0 ],
									"destination" : [ "obj-10", 1 ],
									"hidden" : 0,
									"midpoints" : [ 140.5, 158.0, 219.5, 158.0 ]
								}

							}
, 							{
								"patchline" : 								{
									"source" : [ "obj-10", 0 ],
									"destination" : [ "obj-11", 0 ],
									"hidden" : 0,
									"midpoints" : [ 167.5, 183.0, 252.5, 183.0 ]
								}

							}
, 							{
								"patchline" : 								{
									"source" : [ "obj-11", 0 ],
									"destination" : [ "obj-5", 0 ],
									"hidden" : 0,
									"midpoints" : [  ]
								}

							}
, 							{
								"patchline" : 								{
									"source" : [ "obj-11", 0 ],
									"destination" : [ "obj-8", 0 ],
									"hidden" : 0,
									"midpoints" : [ 252.5, 206.0, 268.5, 206.0 ]
								}

							}
, 							{
								"patchline" : 								{
									"source" : [ "obj-11", 0 ],
									"destination" : [ "obj-8", 1 ],
									"hidden" : 0,
									"midpoints" : [ 252.5, 205.0, 320.5, 205.0 ]
								}

							}
, 							{
								"patchline" : 								{
									"source" : [ "obj-8", 0 ],
									"destination" : [ "obj-9", 0 ],
									"hidden" : 0,
									"midpoints" : [ 268.5, 228.0, 361.5, 228.0 ]
								}

							}
, 							{
								"patchline" : 								{
									"source" : [ "obj-9", 0 ],
									"destination" : [ "obj-4", 0 ],
									"hidden" : 0,
									"midpoints" : [  ]
								}

							}
 ]
					}
,
					"saved_object_attributes" : 					{
						"default_fontsize" : 10.0,
						"fontname" : "Verdana",
						"globalpatchername" : "",
						"fontface" : 0,
						"fontsize" : 10.0,
						"default_fontface" : 0,
						"default_fontname" : "Verdana"
					}

				}

			}
, 			{
				"box" : 				{
					"maxclass" : "newobj",
					"varname" : "play[1]",
					"text" : "jcom.message pause @type msg_toggle @repetitions/allow 0 @description \\\"Pause\\\"",
					"patching_rect" : [ 548.0, 185.0, 439.0, 19.0 ],
					"id" : "obj-30",
					"fontname" : "Verdana",
					"numinlets" : 1,
					"fontsize" : 10.0,
					"numoutlets" : 3,
					"color" : [ 1.0, 0.741176, 0.611765, 1.0 ],
					"outlettype" : [ "", "", "" ]
				}

			}
, 			{
				"box" : 				{
					"maxclass" : "newobj",
					"text" : "jcom.multi.in~",
					"patching_rect" : [ 275.0, 540.0, 459.0, 19.0 ],
					"id" : "obj-31",
					"fontname" : "Verdana",
					"numinlets" : 32,
					"fontsize" : 10.0,
					"numoutlets" : 1,
					"outlettype" : [ "" ]
				}

			}
, 			{
				"box" : 				{
					"maxclass" : "newobj",
					"text" : "prepend text",
					"patching_rect" : [ 669.0, 440.0, 73.0, 19.0 ],
					"id" : "obj-32",
					"fontname" : "Verdana",
					"numinlets" : 1,
					"fontsize" : 10.0,
					"numoutlets" : 1,
					"outlettype" : [ "" ]
				}

			}
, 			{
				"box" : 				{
					"maxclass" : "newobj",
					"text" : "jcom.oscroute /info/name /info/channels /info/size /info/playername",
					"patching_rect" : [ 669.0, 420.0, 355.0, 19.0 ],
					"id" : "obj-39",
					"fontname" : "Verdana",
					"numinlets" : 1,
					"fontsize" : 10.0,
					"numoutlets" : 5,
					"outlettype" : [ "", "", "", "", "" ]
				}

			}
, 			{
				"box" : 				{
					"maxclass" : "newobj",
					"text" : "pvar sample_size",
					"patching_rect" : [ 487.0, 401.0, 96.0, 19.0 ],
					"id" : "obj-40",
					"fontname" : "Verdana",
					"numinlets" : 1,
					"fontsize" : 10.0,
					"numoutlets" : 1,
					"color" : [ 0.290196, 0.611765, 0.380392, 1.0 ],
					"outlettype" : [ "" ]
				}

			}
, 			{
				"box" : 				{
					"maxclass" : "newobj",
					"varname" : "loop[2]",
					"text" : "jcom.message info/size @type msg_int @description \"size of the loaded soundfile\"",
					"patching_rect" : [ 487.0, 382.0, 425.0, 19.0 ],
					"id" : "obj-41",
					"fontname" : "Verdana",
					"numinlets" : 1,
					"fontsize" : 10.0,
					"numoutlets" : 3,
					"color" : [ 1.0, 0.741176, 0.611765, 1.0 ],
					"outlettype" : [ "", "", "" ]
				}

			}
, 			{
				"box" : 				{
					"maxclass" : "comment",
					"text" : "open",
					"patching_rect" : [ 440.0, 102.0, 39.0, 21.0 ],
					"textcolor" : [ 0.290196, 0.611765, 0.380392, 1.0 ],
					"id" : "obj-43",
					"fontname" : "Verdana",
					"frgb" : [ 0.290196, 0.611765, 0.380392, 1.0 ],
					"numinlets" : 1,
					"fontsize" : 12.0,
					"numoutlets" : 0
				}

			}
, 			{
				"box" : 				{
					"maxclass" : "comment",
					"text" : "loop",
					"patching_rect" : [ 421.0, 292.0, 39.0, 21.0 ],
					"textcolor" : [ 0.290196, 0.611765, 0.380392, 1.0 ],
					"id" : "obj-44",
					"fontname" : "Verdana",
					"frgb" : [ 0.290196, 0.611765, 0.380392, 1.0 ],
					"numinlets" : 1,
					"fontsize" : 12.0,
					"numoutlets" : 0
				}

			}
, 			{
				"box" : 				{
					"maxclass" : "comment",
					"text" : "play",
					"patching_rect" : [ 375.0, 245.0, 39.0, 21.0 ],
					"textcolor" : [ 0.709804, 0.709804, 0.709804, 1.0 ],
					"id" : "obj-45",
					"fontname" : "Verdana",
					"frgb" : [ 0.709804, 0.709804, 0.709804, 1.0 ],
					"numinlets" : 1,
					"fontsize" : 12.0,
					"numoutlets" : 0
				}

			}
, 			{
				"box" : 				{
					"maxclass" : "newobj",
					"varname" : "play",
					"text" : "jcom.message play @type msg_toggle @repetitions/allow 0 @description \"starts playback\"",
					"patching_rect" : [ 487.0, 242.0, 468.0, 19.0 ],
					"id" : "obj-48",
					"fontname" : "Verdana",
					"numinlets" : 1,
					"fontsize" : 10.0,
					"numoutlets" : 3,
					"color" : [ 1.0, 0.741176, 0.611765, 1.0 ],
					"outlettype" : [ "", "", "" ]
				}

			}
, 			{
				"box" : 				{
					"maxclass" : "newobj",
					"varname" : "loop",
					"text" : "jcom.parameter loop @type msg_toggle @description \"Loop soundfile.\"",
					"patching_rect" : [ 487.0, 296.0, 369.0, 19.0 ],
					"id" : "obj-49",
					"fontname" : "Verdana",
					"numinlets" : 1,
					"fontsize" : 10.0,
					"numoutlets" : 3,
					"color" : [ 1.0, 0.741176, 0.611765, 1.0 ],
					"outlettype" : [ "", "", "" ]
				}

			}
, 			{
				"box" : 				{
					"maxclass" : "newobj",
					"varname" : "jcom.parameter.mxb[10]",
					"text" : "jcom.message sf_open @type msg_symbol @repetitions/allow 1 @description \"Open sound file specified by filename. Without a filename a standard open file dialog allows you to choose a file.\"",
					"linecount" : 2,
					"patching_rect" : [ 498.0, 109.0, 557.0, 31.0 ],
					"id" : "obj-51",
					"fontname" : "Verdana",
					"numinlets" : 1,
					"fontsize" : 10.0,
					"numoutlets" : 3,
					"color" : [ 1.0, 0.741176, 0.611765, 1.0 ],
					"outlettype" : [ "", "", "" ]
				}

			}
, 			{
				"box" : 				{
					"maxclass" : "message",
					"text" : "/preset/store 1 default, /preset/write",
					"bgcolor" : [ 0.8, 0.54902, 0.54902, 1.0 ],
					"patching_rect" : [ 114.0, 207.0, 196.0, 17.0 ],
					"id" : "obj-54",
					"fontname" : "Verdana",
					"numinlets" : 2,
					"fontsize" : 10.0,
					"numoutlets" : 1,
					"outlettype" : [ "" ]
				}

			}
, 			{
				"box" : 				{
					"maxclass" : "newobj",
					"text" : "jcom.out~ 24",
					"patching_rect" : [ 275.0, 486.0, 351.0, 19.0 ],
					"id" : "obj-55",
					"fontname" : "Verdana",
					"numinlets" : 24,
					"fontsize" : 10.0,
					"numoutlets" : 25,
					"outlettype" : [ "signal", "signal", "signal", "signal", "signal", "signal", "signal", "signal", "signal", "signal", "signal", "signal", "signal", "signal", "signal", "signal", "signal", "signal", "signal", "signal", "signal", "signal", "signal", "signal", "" ]
				}

			}
, 			{
				"box" : 				{
					"maxclass" : "newobj",
					"text" : "jcom.in~",
					"patching_rect" : [ 275.0, 418.0, 54.0, 19.0 ],
					"id" : "obj-56",
					"fontname" : "Verdana",
					"numinlets" : 1,
					"fontsize" : 10.0,
					"numoutlets" : 2,
					"outlettype" : [ "", "" ]
				}

			}
, 			{
				"box" : 				{
					"maxclass" : "message",
					"text" : "/documentation/generate",
					"bgcolor" : [ 0.8, 0.54902, 0.54902, 1.0 ],
					"patching_rect" : [ 122.0, 229.0, 137.0, 17.0 ],
					"id" : "obj-57",
					"fontname" : "Verdana",
					"numinlets" : 2,
					"fontsize" : 10.0,
					"numoutlets" : 1,
					"outlettype" : [ "" ]
				}

			}
, 			{
				"box" : 				{
					"maxclass" : "newobj",
					"varname" : "jcom.hub",
					"text" : "jcom.hub @description \"A simple multichannel sampleplayer based on sfplay~\"",
					"linecount" : 2,
					"patching_rect" : [ 22.0, 266.0, 317.0, 31.0 ],
					"id" : "obj-59",
					"fontname" : "Verdana",
					"numinlets" : 1,
					"fontsize" : 10.0,
					"numoutlets" : 2,
					"outlettype" : [ "", "" ]
				}

			}
, 			{
				"box" : 				{
					"maxclass" : "comment",
					"text" : "command input",
					"patching_rect" : [ 38.0, 230.0, 87.0, 19.0 ],
					"id" : "obj-60",
					"fontname" : "Verdana",
					"frgb" : [ 0.0, 0.0, 0.0, 1.0 ],
					"numinlets" : 1,
					"fontsize" : 10.0,
					"numoutlets" : 0
				}

			}
, 			{
				"box" : 				{
					"maxclass" : "inlet",
					"patching_rect" : [ 24.0, 230.0, 13.0, 13.0 ],
					"id" : "obj-61",
					"numinlets" : 0,
					"numoutlets" : 1,
					"outlettype" : [ "" ],
					"comment" : ""
				}

			}
, 			{
				"box" : 				{
					"maxclass" : "message",
					"text" : "/init",
					"patching_rect" : [ 262.0, 229.0, 31.0, 17.0 ],
					"id" : "obj-62",
					"fontname" : "Verdana",
					"numinlets" : 2,
					"fontsize" : 10.0,
					"numoutlets" : 1,
					"outlettype" : [ "" ]
				}

			}
, 			{
				"box" : 				{
					"maxclass" : "inlet",
					"patching_rect" : [ 275.0, 385.0, 27.0, 27.0 ],
					"id" : "obj-63",
					"numinlets" : 0,
					"numoutlets" : 1,
					"outlettype" : [ "" ],
					"comment" : ""
				}

			}
, 			{
				"box" : 				{
					"maxclass" : "outlet",
					"patching_rect" : [ 275.0, 570.0, 25.0, 25.0 ],
					"id" : "obj-64",
					"numinlets" : 1,
					"numoutlets" : 0,
					"comment" : ""
				}

			}
, 			{
				"box" : 				{
					"maxclass" : "newobj",
					"text" : "jalg.sur.multi.input~ #0_",
					"patching_rect" : [ 275.0, 448.0, 380.0, 19.0 ],
					"id" : "obj-65",
					"fontname" : "Verdana",
					"numinlets" : 1,
					"fontsize" : 10.0,
					"numoutlets" : 27,
					"outlettype" : [ "signal", "", "", "", "", "", "", "", "", "", "", "", "", "", "", "", "", "", "", "", "", "", "", "", "float", "", "" ]
				}

			}
, 			{
				"box" : 				{
					"maxclass" : "outlet",
					"patching_rect" : [ 24.0, 306.0, 13.0, 13.0 ],
					"id" : "obj-66",
					"numinlets" : 1,
					"numoutlets" : 0,
					"comment" : ""
				}

			}
, 			{
				"box" : 				{
					"maxclass" : "comment",
					"text" : "---signal output---",
					"patching_rect" : [ 309.0, 570.0, 101.0, 19.0 ],
					"id" : "obj-67",
					"fontname" : "Verdana",
					"frgb" : [ 0.0, 0.0, 0.0, 1.0 ],
					"numinlets" : 1,
					"fontsize" : 10.0,
					"numoutlets" : 0
				}

			}
, 			{
				"box" : 				{
					"maxclass" : "dropfile",
					"ignoreclick" : 1,
					"patching_rect" : [ 686.0, 85.0, 165.0, 20.0 ],
					"rounded" : 0.0,
					"id" : "obj-68",
					"presentation" : 1,
					"border" : 0.0,
					"numinlets" : 1,
					"numoutlets" : 2,
					"presentation_rect" : [ 3.0, 52.0, 295.0, 17.0 ],
					"outlettype" : [ "", "" ],
					"types" : [  ]
				}

			}
, 			{
				"box" : 				{
					"maxclass" : "panel",
					"patching_rect" : [ 57.0, 306.0, 106.0, 25.0 ],
					"id" : "obj-3",
					"presentation" : 1,
					"border" : 1,
					"numinlets" : 1,
					"numoutlets" : 0,
					"presentation_rect" : [ 31.0, 53.0, 220.0, 17.0 ]
				}

			}
, 			{
				"box" : 				{
					"maxclass" : "jcom.ui",
					"text" : "/editing_this_module",
					"prefix" : "audio",
					"has_mute" : 1,
					"patching_rect" : [ -1.0, 0.0, 300.0, 70.0 ],
					"id" : "obj-69",
					"presentation" : 1,
					"numinlets" : 1,
					"numoutlets" : 1,
					"has_gain" : 1,
					"presentation_rect" : [ 0.0, 0.0, 300.0, 70.0 ],
					"has_freeze" : 1,
					"outlettype" : [ "" ]
				}

			}
 ],
		"lines" : [ 			{
				"patchline" : 				{
					"source" : [ "obj-32", 0 ],
					"destination" : [ "obj-8", 0 ],
					"hidden" : 0,
					"midpoints" : [  ]
				}

			}
, 			{
				"patchline" : 				{
					"source" : [ "obj-7", 0 ],
					"destination" : [ "obj-8", 0 ],
					"hidden" : 0,
					"midpoints" : [  ]
				}

			}
, 			{
				"patchline" : 				{
					"source" : [ "obj-8", 0 ],
					"destination" : [ "obj-4", 0 ],
					"hidden" : 0,
					"midpoints" : [  ]
				}

			}
, 			{
				"patchline" : 				{
					"source" : [ "obj-9", 0 ],
					"destination" : [ "obj-8", 0 ],
					"hidden" : 0,
					"midpoints" : [  ]
				}

			}
, 			{
				"patchline" : 				{
					"source" : [ "obj-13", 0 ],
					"destination" : [ "obj-5", 0 ],
					"hidden" : 0,
					"midpoints" : [  ]
				}

			}
, 			{
				"patchline" : 				{
					"source" : [ "obj-5", 1 ],
					"destination" : [ "obj-28", 0 ],
					"hidden" : 0,
					"midpoints" : [  ]
				}

			}
, 			{
				"patchline" : 				{
					"source" : [ "obj-34", 0 ],
					"destination" : [ "obj-4", 0 ],
					"hidden" : 0,
					"midpoints" : [  ]
				}

			}
, 			{
				"patchline" : 				{
					"source" : [ "obj-39", 0 ],
					"destination" : [ "obj-34", 0 ],
					"hidden" : 0,
					"midpoints" : [  ]
				}

			}
, 			{
				"patchline" : 				{
					"source" : [ "obj-56", 0 ],
					"destination" : [ "obj-65", 0 ],
					"hidden" : 0,
					"midpoints" : [  ]
				}

			}
, 			{
				"patchline" : 				{
					"source" : [ "obj-65", 25 ],
					"destination" : [ "obj-27", 0 ],
					"hidden" : 0,
					"midpoints" : [  ]
				}

			}
, 			{
				"patchline" : 				{
					"source" : [ "obj-65", 24 ],
					"destination" : [ "obj-7", 0 ],
					"hidden" : 0,
					"midpoints" : [  ]
				}

			}
, 			{
				"patchline" : 				{
					"source" : [ "obj-65", 26 ],
					"destination" : [ "obj-39", 0 ],
					"hidden" : 0,
					"midpoints" : [  ]
				}

			}
, 			{
				"patchline" : 				{
					"source" : [ "obj-65", 0 ],
					"destination" : [ "obj-55", 0 ],
					"hidden" : 0,
					"midpoints" : [  ]
				}

			}
, 			{
				"patchline" : 				{
					"source" : [ "obj-65", 1 ],
					"destination" : [ "obj-55", 1 ],
					"hidden" : 0,
					"midpoints" : [  ]
				}

			}
, 			{
				"patchline" : 				{
					"source" : [ "obj-65", 2 ],
					"destination" : [ "obj-55", 2 ],
					"hidden" : 0,
					"midpoints" : [  ]
				}

			}
, 			{
				"patchline" : 				{
					"source" : [ "obj-65", 3 ],
					"destination" : [ "obj-55", 3 ],
					"hidden" : 0,
					"midpoints" : [  ]
				}

			}
, 			{
				"patchline" : 				{
					"source" : [ "obj-65", 4 ],
					"destination" : [ "obj-55", 4 ],
					"hidden" : 0,
					"midpoints" : [  ]
				}

			}
, 			{
				"patchline" : 				{
					"source" : [ "obj-65", 5 ],
					"destination" : [ "obj-55", 5 ],
					"hidden" : 0,
					"midpoints" : [  ]
				}

			}
, 			{
				"patchline" : 				{
					"source" : [ "obj-65", 6 ],
					"destination" : [ "obj-55", 6 ],
					"hidden" : 0,
					"midpoints" : [  ]
				}

			}
, 			{
				"patchline" : 				{
					"source" : [ "obj-65", 7 ],
					"destination" : [ "obj-55", 7 ],
					"hidden" : 0,
					"midpoints" : [  ]
				}

			}
, 			{
				"patchline" : 				{
					"source" : [ "obj-65", 8 ],
					"destination" : [ "obj-55", 8 ],
					"hidden" : 0,
					"midpoints" : [  ]
				}

			}
, 			{
				"patchline" : 				{
					"source" : [ "obj-65", 9 ],
					"destination" : [ "obj-55", 9 ],
					"hidden" : 0,
					"midpoints" : [  ]
				}

			}
, 			{
				"patchline" : 				{
					"source" : [ "obj-65", 10 ],
					"destination" : [ "obj-55", 10 ],
					"hidden" : 0,
					"midpoints" : [  ]
				}

			}
, 			{
				"patchline" : 				{
					"source" : [ "obj-65", 11 ],
					"destination" : [ "obj-55", 11 ],
					"hidden" : 0,
					"midpoints" : [  ]
				}

			}
, 			{
				"patchline" : 				{
					"source" : [ "obj-65", 12 ],
					"destination" : [ "obj-55", 12 ],
					"hidden" : 0,
					"midpoints" : [  ]
				}

			}
, 			{
				"patchline" : 				{
					"source" : [ "obj-65", 13 ],
					"destination" : [ "obj-55", 13 ],
					"hidden" : 0,
					"midpoints" : [  ]
				}

			}
, 			{
				"patchline" : 				{
					"source" : [ "obj-65", 14 ],
					"destination" : [ "obj-55", 14 ],
					"hidden" : 0,
					"midpoints" : [  ]
				}

			}
, 			{
				"patchline" : 				{
					"source" : [ "obj-65", 15 ],
					"destination" : [ "obj-55", 15 ],
					"hidden" : 0,
					"midpoints" : [  ]
				}

			}
, 			{
				"patchline" : 				{
					"source" : [ "obj-65", 16 ],
					"destination" : [ "obj-55", 16 ],
					"hidden" : 0,
					"midpoints" : [  ]
				}

			}
, 			{
				"patchline" : 				{
					"source" : [ "obj-65", 17 ],
					"destination" : [ "obj-55", 17 ],
					"hidden" : 0,
					"midpoints" : [  ]
				}

			}
, 			{
				"patchline" : 				{
					"source" : [ "obj-65", 18 ],
					"destination" : [ "obj-55", 18 ],
					"hidden" : 0,
					"midpoints" : [  ]
				}

			}
, 			{
				"patchline" : 				{
					"source" : [ "obj-65", 19 ],
					"destination" : [ "obj-55", 19 ],
					"hidden" : 0,
					"midpoints" : [  ]
				}

			}
, 			{
				"patchline" : 				{
					"source" : [ "obj-65", 20 ],
					"destination" : [ "obj-55", 20 ],
					"hidden" : 0,
					"midpoints" : [  ]
				}

			}
, 			{
				"patchline" : 				{
					"source" : [ "obj-65", 21 ],
					"destination" : [ "obj-55", 21 ],
					"hidden" : 0,
					"midpoints" : [  ]
				}

			}
, 			{
				"patchline" : 				{
					"source" : [ "obj-65", 22 ],
					"destination" : [ "obj-55", 22 ],
					"hidden" : 0,
					"midpoints" : [  ]
				}

			}
, 			{
				"patchline" : 				{
					"source" : [ "obj-65", 23 ],
					"destination" : [ "obj-55", 23 ],
					"hidden" : 0,
					"midpoints" : [  ]
				}

			}
, 			{
				"patchline" : 				{
					"source" : [ "obj-36", 0 ],
					"destination" : [ "obj-30", 0 ],
					"hidden" : 0,
					"midpoints" : [  ]
				}

			}
, 			{
				"patchline" : 				{
					"source" : [ "obj-12", 0 ],
					"destination" : [ "obj-36", 0 ],
					"hidden" : 0,
					"midpoints" : [  ]
				}

			}
, 			{
				"patchline" : 				{
					"source" : [ "obj-48", 1 ],
					"destination" : [ "obj-12", 0 ],
					"hidden" : 0,
					"midpoints" : [  ]
				}

			}
, 			{
				"patchline" : 				{
					"source" : [ "obj-48", 1 ],
					"destination" : [ "obj-9", 0 ],
					"hidden" : 0,
					"midpoints" : [  ]
				}

			}
, 			{
				"patchline" : 				{
					"source" : [ "obj-62", 0 ],
					"destination" : [ "obj-59", 0 ],
					"hidden" : 0,
					"midpoints" : [ 271.5, 251.0, 31.5, 251.0 ]
				}

			}
, 			{
				"patchline" : 				{
					"source" : [ "obj-57", 0 ],
					"destination" : [ "obj-59", 0 ],
					"hidden" : 0,
					"midpoints" : [ 131.5, 250.0, 31.5, 250.0 ]
				}

			}
, 			{
				"patchline" : 				{
					"source" : [ "obj-61", 0 ],
					"destination" : [ "obj-59", 0 ],
					"hidden" : 0,
					"midpoints" : [  ]
				}

			}
, 			{
				"patchline" : 				{
					"source" : [ "obj-54", 0 ],
					"destination" : [ "obj-59", 0 ],
					"hidden" : 0,
					"midpoints" : [ 123.5, 250.0, 31.5, 250.0 ]
				}

			}
, 			{
				"patchline" : 				{
					"source" : [ "obj-59", 0 ],
					"destination" : [ "obj-66", 0 ],
					"hidden" : 0,
					"midpoints" : [  ]
				}

			}
, 			{
				"patchline" : 				{
					"source" : [ "obj-30", 0 ],
					"destination" : [ "obj-70", 0 ],
					"hidden" : 0,
					"midpoints" : [  ]
				}

			}
, 			{
				"patchline" : 				{
					"source" : [ "obj-70", 0 ],
					"destination" : [ "obj-30", 0 ],
					"hidden" : 0,
					"midpoints" : [  ]
				}

			}
, 			{
				"patchline" : 				{
					"source" : [ "obj-48", 0 ],
					"destination" : [ "obj-84", 0 ],
					"hidden" : 0,
					"midpoints" : [  ]
				}

			}
, 			{
				"patchline" : 				{
					"source" : [ "obj-84", 0 ],
					"destination" : [ "obj-48", 0 ],
					"hidden" : 0,
					"midpoints" : [  ]
				}

			}
, 			{
				"patchline" : 				{
					"source" : [ "obj-39", 0 ],
					"destination" : [ "obj-32", 0 ],
					"hidden" : 0,
					"midpoints" : [  ]
				}

			}
, 			{
				"patchline" : 				{
					"source" : [ "obj-39", 1 ],
					"destination" : [ "obj-6", 0 ],
					"hidden" : 0,
					"midpoints" : [  ]
				}

			}
, 			{
				"patchline" : 				{
					"source" : [ "obj-63", 0 ],
					"destination" : [ "obj-56", 0 ],
					"hidden" : 0,
					"midpoints" : [  ]
				}

			}
, 			{
				"patchline" : 				{
					"source" : [ "obj-55", 0 ],
					"destination" : [ "obj-31", 0 ],
					"hidden" : 0,
					"midpoints" : [  ]
				}

			}
, 			{
				"patchline" : 				{
					"source" : [ "obj-31", 0 ],
					"destination" : [ "obj-64", 0 ],
					"hidden" : 0,
					"midpoints" : [  ]
				}

			}
, 			{
				"patchline" : 				{
					"source" : [ "obj-55", 1 ],
					"destination" : [ "obj-31", 1 ],
					"hidden" : 0,
					"midpoints" : [  ]
				}

			}
, 			{
				"patchline" : 				{
					"source" : [ "obj-55", 2 ],
					"destination" : [ "obj-31", 2 ],
					"hidden" : 0,
					"midpoints" : [  ]
				}

			}
, 			{
				"patchline" : 				{
					"source" : [ "obj-55", 3 ],
					"destination" : [ "obj-31", 3 ],
					"hidden" : 0,
					"midpoints" : [  ]
				}

			}
, 			{
				"patchline" : 				{
					"source" : [ "obj-55", 4 ],
					"destination" : [ "obj-31", 4 ],
					"hidden" : 0,
					"midpoints" : [  ]
				}

			}
, 			{
				"patchline" : 				{
					"source" : [ "obj-55", 5 ],
					"destination" : [ "obj-31", 5 ],
					"hidden" : 0,
					"midpoints" : [  ]
				}

			}
, 			{
				"patchline" : 				{
					"source" : [ "obj-55", 6 ],
					"destination" : [ "obj-31", 6 ],
					"hidden" : 0,
					"midpoints" : [  ]
				}

			}
, 			{
				"patchline" : 				{
					"source" : [ "obj-55", 7 ],
					"destination" : [ "obj-31", 7 ],
					"hidden" : 0,
					"midpoints" : [  ]
				}

			}
, 			{
				"patchline" : 				{
					"source" : [ "obj-55", 8 ],
					"destination" : [ "obj-31", 8 ],
					"hidden" : 0,
					"midpoints" : [  ]
				}

			}
, 			{
				"patchline" : 				{
					"source" : [ "obj-55", 9 ],
					"destination" : [ "obj-31", 9 ],
					"hidden" : 0,
					"midpoints" : [  ]
				}

			}
, 			{
				"patchline" : 				{
					"source" : [ "obj-55", 10 ],
					"destination" : [ "obj-31", 10 ],
					"hidden" : 0,
					"midpoints" : [  ]
				}

			}
, 			{
				"patchline" : 				{
					"source" : [ "obj-55", 11 ],
					"destination" : [ "obj-31", 11 ],
					"hidden" : 0,
					"midpoints" : [  ]
				}

			}
, 			{
				"patchline" : 				{
					"source" : [ "obj-55", 12 ],
					"destination" : [ "obj-31", 12 ],
					"hidden" : 0,
					"midpoints" : [  ]
				}

			}
, 			{
				"patchline" : 				{
					"source" : [ "obj-55", 13 ],
					"destination" : [ "obj-31", 13 ],
					"hidden" : 0,
					"midpoints" : [  ]
				}

			}
, 			{
				"patchline" : 				{
					"source" : [ "obj-39", 2 ],
					"destination" : [ "obj-4", 1 ],
					"hidden" : 0,
					"midpoints" : [  ]
				}

			}
, 			{
				"patchline" : 				{
					"source" : [ "obj-55", 14 ],
					"destination" : [ "obj-31", 14 ],
					"hidden" : 0,
					"midpoints" : [  ]
				}

			}
, 			{
				"patchline" : 				{
					"source" : [ "obj-55", 15 ],
					"destination" : [ "obj-31", 15 ],
					"hidden" : 0,
					"midpoints" : [  ]
				}

			}
, 			{
				"patchline" : 				{
					"source" : [ "obj-2", 0 ],
					"destination" : [ "obj-48", 0 ],
					"hidden" : 0,
					"midpoints" : [  ]
				}

			}
, 			{
				"patchline" : 				{
					"source" : [ "obj-40", 0 ],
					"destination" : [ "obj-41", 0 ],
					"hidden" : 0,
					"midpoints" : [ 496.5, 422.0, 480.0, 422.0, 480.0, 377.0, 496.5, 377.0 ]
				}

			}
, 			{
				"patchline" : 				{
					"source" : [ "obj-41", 0 ],
					"destination" : [ "obj-40", 0 ],
					"hidden" : 0,
					"midpoints" : [  ]
				}

			}
, 			{
				"patchline" : 				{
					"source" : [ "obj-55", 16 ],
					"destination" : [ "obj-31", 16 ],
					"hidden" : 0,
					"midpoints" : [  ]
				}

			}
, 			{
				"patchline" : 				{
					"source" : [ "obj-55", 17 ],
					"destination" : [ "obj-31", 17 ],
					"hidden" : 0,
					"midpoints" : [  ]
				}

			}
, 			{
				"patchline" : 				{
					"source" : [ "obj-55", 18 ],
					"destination" : [ "obj-31", 18 ],
					"hidden" : 0,
					"midpoints" : [  ]
				}

			}
, 			{
				"patchline" : 				{
					"source" : [ "obj-55", 19 ],
					"destination" : [ "obj-31", 19 ],
					"hidden" : 0,
					"midpoints" : [  ]
				}

			}
, 			{
				"patchline" : 				{
					"source" : [ "obj-55", 20 ],
					"destination" : [ "obj-31", 20 ],
					"hidden" : 0,
					"midpoints" : [  ]
				}

			}
, 			{
				"patchline" : 				{
					"source" : [ "obj-55", 21 ],
					"destination" : [ "obj-31", 21 ],
					"hidden" : 0,
					"midpoints" : [  ]
				}

			}
, 			{
				"patchline" : 				{
					"source" : [ "obj-55", 22 ],
					"destination" : [ "obj-31", 22 ],
					"hidden" : 0,
					"midpoints" : [  ]
				}

			}
, 			{
				"patchline" : 				{
					"source" : [ "obj-55", 23 ],
					"destination" : [ "obj-31", 23 ],
					"hidden" : 0,
					"midpoints" : [  ]
				}

			}
, 			{
				"patchline" : 				{
					"source" : [ "obj-14", 0 ],
					"destination" : [ "obj-49", 0 ],
					"hidden" : 0,
					"midpoints" : [  ]
				}

			}
, 			{
				"patchline" : 				{
					"source" : [ "obj-49", 0 ],
					"destination" : [ "obj-14", 0 ],
					"hidden" : 0,
					"midpoints" : [  ]
				}

			}
, 			{
				"patchline" : 				{
					"source" : [ "obj-16", 0 ],
					"destination" : [ "obj-10", 0 ],
					"hidden" : 0,
					"midpoints" : [  ]
				}

			}
, 			{
				"patchline" : 				{
					"source" : [ "obj-10", 0 ],
					"destination" : [ "obj-16", 0 ],
					"hidden" : 0,
					"midpoints" : [  ]
				}

			}
, 			{
				"patchline" : 				{
					"source" : [ "obj-27", 0 ],
					"destination" : [ "obj-26", 0 ],
					"hidden" : 0,
					"midpoints" : [  ]
				}

			}
, 			{
				"patchline" : 				{
					"source" : [ "obj-27", 1 ],
					"destination" : [ "obj-25", 0 ],
					"hidden" : 0,
					"midpoints" : [  ]
				}

			}
, 			{
				"patchline" : 				{
					"source" : [ "obj-27", 2 ],
					"destination" : [ "obj-24", 0 ],
					"hidden" : 0,
					"midpoints" : [  ]
				}

			}
, 			{
				"patchline" : 				{
					"source" : [ "obj-27", 3 ],
					"destination" : [ "obj-23", 0 ],
					"hidden" : 0,
					"midpoints" : [  ]
				}

			}
, 			{
				"patchline" : 				{
					"source" : [ "obj-83", 0 ],
					"destination" : [ "obj-51", 0 ],
					"hidden" : 0,
					"midpoints" : [  ]
				}

			}
, 			{
				"patchline" : 				{
					"source" : [ "obj-68", 0 ],
					"destination" : [ "obj-15", 0 ],
					"hidden" : 0,
					"midpoints" : [  ]
				}

			}
, 			{
				"patchline" : 				{
					"source" : [ "obj-15", 0 ],
					"destination" : [ "obj-51", 0 ],
					"hidden" : 0,
					"midpoints" : [  ]
				}

			}
, 			{
				"patchline" : 				{
					"source" : [ "obj-6", 0 ],
					"destination" : [ "obj-17", 0 ],
					"hidden" : 0,
					"midpoints" : [  ]
				}

			}
, 			{
				"patchline" : 				{
					"source" : [ "obj-4", 0 ],
					"destination" : [ "obj-13", 0 ],
					"hidden" : 0,
					"midpoints" : [  ]
				}

			}
, 			{
				"patchline" : 				{
					"source" : [ "obj-28", 0 ],
					"destination" : [ "obj-7", 0 ],
					"hidden" : 0,
					"midpoints" : [  ]
				}

			}
 ]
	}

}
