{
	"patcher" : 	{
		"fileversion" : 1,
		"rect" : [ 406.0, 84.0, 800.0, 475.0 ],
		"bglocked" : 0,
		"defrect" : [ 406.0, 84.0, 800.0, 475.0 ],
		"openrect" : [ 0.0, 0.0, 0.0, 0.0 ],
		"openinpresentation" : 0,
		"default_fontsize" : 10.0,
		"default_fontface" : 0,
		"default_fontname" : "Verdana",
		"gridonopen" : 0,
		"gridsize" : [ 5.0, 5.0 ],
		"gridsnaponopen" : 0,
		"toolbarvisible" : 1,
		"boxanimatetime" : 200,
		"imprint" : 0,
		"metadata" : [  ],
		"boxes" : [ 			{
				"box" : 				{
					"maxclass" : "comment",
					"text" : "jmod.sur.multi.input~",
					"numinlets" : 1,
					"id" : "obj-26",
					"frgb" : [ 1.0, 0.984314, 0.929412, 1.0 ],
					"fontsize" : 17.334082,
					"patching_rect" : [ 7.0, 7.0, 206.0, 28.0 ],
					"numoutlets" : 0,
					"fontname" : "Verdana"
				}

			}
, 			{
				"box" : 				{
					"maxclass" : "comment",
					"text" : "Playback of multichannel Audiofiles based on sfplay~",
					"numinlets" : 1,
					"id" : "obj-55",
					"frgb" : [ 1.0, 0.984314, 0.929412, 1.0 ],
					"fontsize" : 10.0,
					"patching_rect" : [ 7.0, 33.0, 345.0, 19.0 ],
					"numoutlets" : 0,
					"fontname" : "Verdana"
				}

			}
, 			{
				"box" : 				{
					"maxclass" : "panel",
					"numinlets" : 1,
					"id" : "obj-56",
					"patching_rect" : [ 2.0, 3.0, 351.0, 53.0 ],
					"numoutlets" : 0,
					"rounded" : 15
				}

			}
, 			{
				"box" : 				{
					"maxclass" : "meter~",
					"numinlets" : 1,
					"id" : "obj-1",
					"patching_rect" : [ 539.0, 314.0, 13.0, 62.0 ],
					"numoutlets" : 1,
					"coldcolor" : [ 0.0, 0.658824, 0.0, 1.0 ],
					"bgcolor" : [ 0.403922, 0.403922, 0.403922, 1.0 ],
					"outlettype" : [ "float" ],
					"warmcolor" : [ 0.85098, 0.85098, 0.0, 1.0 ],
					"tepidcolor" : [ 0.6, 0.729412, 0.0, 1.0 ]
				}

			}
, 			{
				"box" : 				{
					"maxclass" : "meter~",
					"numinlets" : 1,
					"id" : "obj-2",
					"patching_rect" : [ 524.0, 314.0, 13.0, 62.0 ],
					"numoutlets" : 1,
					"coldcolor" : [ 0.0, 0.658824, 0.0, 1.0 ],
					"bgcolor" : [ 0.403922, 0.403922, 0.403922, 1.0 ],
					"outlettype" : [ "float" ],
					"warmcolor" : [ 0.85098, 0.85098, 0.0, 1.0 ],
					"tepidcolor" : [ 0.6, 0.729412, 0.0, 1.0 ]
				}

			}
, 			{
				"box" : 				{
					"maxclass" : "meter~",
					"numinlets" : 1,
					"id" : "obj-3",
					"patching_rect" : [ 509.0, 314.0, 13.0, 62.0 ],
					"numoutlets" : 1,
					"coldcolor" : [ 0.0, 0.658824, 0.0, 1.0 ],
					"bgcolor" : [ 0.403922, 0.403922, 0.403922, 1.0 ],
					"outlettype" : [ "float" ],
					"warmcolor" : [ 0.85098, 0.85098, 0.0, 1.0 ],
					"tepidcolor" : [ 0.6, 0.729412, 0.0, 1.0 ]
				}

			}
, 			{
				"box" : 				{
					"maxclass" : "meter~",
					"numinlets" : 1,
					"id" : "obj-4",
					"patching_rect" : [ 494.0, 314.0, 13.0, 62.0 ],
					"numoutlets" : 1,
					"coldcolor" : [ 0.0, 0.658824, 0.0, 1.0 ],
					"bgcolor" : [ 0.403922, 0.403922, 0.403922, 1.0 ],
					"outlettype" : [ "float" ],
					"warmcolor" : [ 0.85098, 0.85098, 0.0, 1.0 ],
					"tepidcolor" : [ 0.6, 0.729412, 0.0, 1.0 ]
				}

			}
, 			{
				"box" : 				{
					"maxclass" : "meter~",
					"numinlets" : 1,
					"id" : "obj-5",
					"patching_rect" : [ 479.0, 314.0, 13.0, 62.0 ],
					"numoutlets" : 1,
					"coldcolor" : [ 0.0, 0.658824, 0.0, 1.0 ],
					"bgcolor" : [ 0.403922, 0.403922, 0.403922, 1.0 ],
					"outlettype" : [ "float" ],
					"warmcolor" : [ 0.85098, 0.85098, 0.0, 1.0 ],
					"tepidcolor" : [ 0.6, 0.729412, 0.0, 1.0 ]
				}

			}
, 			{
				"box" : 				{
					"maxclass" : "meter~",
					"numinlets" : 1,
					"id" : "obj-6",
					"patching_rect" : [ 464.0, 314.0, 13.0, 62.0 ],
					"numoutlets" : 1,
					"coldcolor" : [ 0.0, 0.658824, 0.0, 1.0 ],
					"bgcolor" : [ 0.403922, 0.403922, 0.403922, 1.0 ],
					"outlettype" : [ "float" ],
					"warmcolor" : [ 0.85098, 0.85098, 0.0, 1.0 ],
					"tepidcolor" : [ 0.6, 0.729412, 0.0, 1.0 ]
				}

			}
, 			{
				"box" : 				{
					"maxclass" : "meter~",
					"numinlets" : 1,
					"id" : "obj-7",
					"patching_rect" : [ 554.0, 314.0, 13.0, 62.0 ],
					"numoutlets" : 1,
					"coldcolor" : [ 0.0, 0.658824, 0.0, 1.0 ],
					"bgcolor" : [ 0.403922, 0.403922, 0.403922, 1.0 ],
					"outlettype" : [ "float" ],
					"warmcolor" : [ 0.85098, 0.85098, 0.0, 1.0 ],
					"tepidcolor" : [ 0.6, 0.729412, 0.0, 1.0 ]
				}

			}
, 			{
				"box" : 				{
					"maxclass" : "meter~",
					"numinlets" : 1,
					"id" : "obj-8",
					"patching_rect" : [ 449.0, 314.0, 13.0, 62.0 ],
					"numoutlets" : 1,
					"coldcolor" : [ 0.0, 0.658824, 0.0, 1.0 ],
					"bgcolor" : [ 0.403922, 0.403922, 0.403922, 1.0 ],
					"outlettype" : [ "float" ],
					"warmcolor" : [ 0.85098, 0.85098, 0.0, 1.0 ],
					"tepidcolor" : [ 0.6, 0.729412, 0.0, 1.0 ]
				}

			}
, 			{
				"box" : 				{
					"maxclass" : "comment",
					"text" : "SoundFileMerger 2",
					"numinlets" : 1,
					"id" : "obj-9",
					"frgb" : [ 0.4, 0.4, 0.8, 1.0 ],
					"fontsize" : 10.0,
					"patching_rect" : [ 113.0, 282.0, 102.0, 19.0 ],
					"numoutlets" : 0,
					"textcolor" : [ 0.4, 0.4, 0.8, 1.0 ],
					"fontname" : "Verdana"
				}

			}
, 			{
				"box" : 				{
					"maxclass" : "ubutton",
					"numinlets" : 1,
					"id" : "obj-10",
					"handoff" : "",
					"patching_rect" : [ 112.0, 280.0, 94.0, 15.0 ],
					"numoutlets" : 4,
					"outlettype" : [ "bang", "bang", "", "int" ]
				}

			}
, 			{
				"box" : 				{
					"maxclass" : "message",
					"text" : ";\rmax launchbrowser http://www.e--j.com/",
					"linecount" : 3,
					"hidden" : 1,
					"numinlets" : 2,
					"id" : "obj-11",
					"fontsize" : 10.0,
					"patching_rect" : [ 47.0, 340.0, 141.0, 41.0 ],
					"numoutlets" : 1,
					"outlettype" : [ "" ],
					"fontname" : "Verdana"
				}

			}
, 			{
				"box" : 				{
					"maxclass" : "comment",
					"text" : "playback level",
					"numinlets" : 1,
					"id" : "obj-12",
					"frgb" : [ 1.0, 0.984314, 0.929412, 1.0 ],
					"fontsize" : 10.0,
					"patching_rect" : [ 142.0, 98.0, 80.0, 19.0 ],
					"numoutlets" : 0,
					"fontname" : "Verdana"
				}

			}
, 			{
				"box" : 				{
					"maxclass" : "number",
					"numinlets" : 1,
					"id" : "obj-13",
					"fontsize" : 10.0,
					"patching_rect" : [ 1.0, 97.0, 35.0, 19.0 ],
					"numoutlets" : 2,
					"minimum" : 0,
					"bgcolor" : [ 0.866667, 0.866667, 0.866667, 1.0 ],
					"triscale" : 0.9,
					"htextcolor" : [ 0.870588, 0.870588, 0.870588, 1.0 ],
					"outlettype" : [ "int", "bang" ],
					"maximum" : 158,
					"fontname" : "Verdana"
				}

			}
, 			{
				"box" : 				{
					"maxclass" : "message",
					"text" : "/audio/gain $1",
					"numinlets" : 2,
					"id" : "obj-14",
					"fontsize" : 10.0,
					"patching_rect" : [ 35.0, 97.0, 84.0, 17.0 ],
					"numoutlets" : 1,
					"outlettype" : [ "" ],
					"fontname" : "Verdana"
				}

			}
, 			{
				"box" : 				{
					"maxclass" : "comment",
					"text" : "loops the soundfile when finished",
					"linecount" : 2,
					"numinlets" : 1,
					"id" : "obj-15",
					"frgb" : [ 1.0, 0.984314, 0.929412, 1.0 ],
					"fontsize" : 10.0,
					"patching_rect" : [ 112.0, 128.0, 107.0, 31.0 ],
					"numoutlets" : 0,
					"fontname" : "Verdana"
				}

			}
, 			{
				"box" : 				{
					"maxclass" : "comment",
					"text" : "change the time display in the module to countdown mode",
					"linecount" : 3,
					"numinlets" : 1,
					"id" : "obj-16",
					"frgb" : [ 1.0, 0.984314, 0.929412, 1.0 ],
					"fontsize" : 10.0,
					"patching_rect" : [ 112.0, 165.0, 120.0, 43.0 ],
					"numoutlets" : 0,
					"fontname" : "Verdana"
				}

			}
, 			{
				"box" : 				{
					"maxclass" : "toggle",
					"numinlets" : 1,
					"id" : "obj-17",
					"patching_rect" : [ 20.0, 133.0, 15.0, 15.0 ],
					"numoutlets" : 1,
					"outlettype" : [ "int" ]
				}

			}
, 			{
				"box" : 				{
					"maxclass" : "message",
					"text" : "/loop $1",
					"numinlets" : 2,
					"id" : "obj-18",
					"fontsize" : 10.0,
					"patching_rect" : [ 34.0, 133.0, 50.0, 17.0 ],
					"numoutlets" : 1,
					"outlettype" : [ "" ],
					"fontname" : "Verdana"
				}

			}
, 			{
				"box" : 				{
					"maxclass" : "toggle",
					"numinlets" : 1,
					"id" : "obj-19",
					"patching_rect" : [ 18.0, 173.0, 15.0, 15.0 ],
					"numoutlets" : 1,
					"outlettype" : [ "int" ]
				}

			}
, 			{
				"box" : 				{
					"maxclass" : "message",
					"text" : "/countdown $1",
					"numinlets" : 2,
					"id" : "obj-20",
					"fontsize" : 10.0,
					"patching_rect" : [ 32.0, 173.0, 84.0, 17.0 ],
					"numoutlets" : 1,
					"outlettype" : [ "" ],
					"fontname" : "Verdana"
				}

			}
, 			{
				"box" : 				{
					"maxclass" : "newobj",
					"text" : "r cmd",
					"hidden" : 1,
					"numinlets" : 0,
					"id" : "obj-23",
					"fontsize" : 10.0,
					"patching_rect" : [ 240.0, 69.0, 37.0, 19.0 ],
					"numoutlets" : 1,
					"outlettype" : [ "" ],
					"fontname" : "Verdana"
				}

			}
, 			{
				"box" : 				{
					"maxclass" : "newobj",
					"text" : "s cmd",
					"hidden" : 1,
					"numinlets" : 1,
					"id" : "obj-24",
					"fontsize" : 10.0,
					"patching_rect" : [ 58.0, 218.0, 38.0, 19.0 ],
					"numoutlets" : 0,
					"fontname" : "Verdana"
				}

			}
, 			{
				"box" : 				{
					"maxclass" : "message",
					"text" : "/ui/freeze 0",
					"numinlets" : 2,
					"id" : "obj-25",
					"fontsize" : 10.0,
					"patching_rect" : [ 241.0, 201.0, 285.0, 17.0 ],
					"numoutlets" : 1,
					"outlettype" : [ "" ],
					"fontname" : "Verdana"
				}

			}
, 			{
				"box" : 				{
					"maxclass" : "bpatcher",
					"varname" : "jmod.control",
					"lockeddragscroll" : 1,
					"args" : [ "/jmod.control" ],
					"numinlets" : 1,
					"id" : "obj-32",
					"patching_rect" : [ 560.0, 89.0, 150.0, 70.0 ],
					"numoutlets" : 1,
					"name" : "jmod.control.maxpat",
					"outlettype" : [ "" ],
					"presentation_rect" : [ 0.0, 0.0, 150.0, 70.0 ]
				}

			}
, 			{
				"box" : 				{
					"maxclass" : "meter~",
					"numinlets" : 1,
					"id" : "obj-33",
					"patching_rect" : [ 419.0, 314.0, 13.0, 62.0 ],
					"numoutlets" : 1,
					"coldcolor" : [ 0.0, 0.658824, 0.0, 1.0 ],
					"bgcolor" : [ 0.403922, 0.403922, 0.403922, 1.0 ],
					"outlettype" : [ "float" ],
					"warmcolor" : [ 0.85098, 0.85098, 0.0, 1.0 ],
					"tepidcolor" : [ 0.6, 0.729412, 0.0, 1.0 ]
				}

			}
, 			{
				"box" : 				{
					"maxclass" : "meter~",
					"numinlets" : 1,
					"id" : "obj-34",
					"patching_rect" : [ 404.0, 314.0, 13.0, 62.0 ],
					"numoutlets" : 1,
					"coldcolor" : [ 0.0, 0.658824, 0.0, 1.0 ],
					"bgcolor" : [ 0.403922, 0.403922, 0.403922, 1.0 ],
					"outlettype" : [ "float" ],
					"warmcolor" : [ 0.85098, 0.85098, 0.0, 1.0 ],
					"tepidcolor" : [ 0.6, 0.729412, 0.0, 1.0 ]
				}

			}
, 			{
				"box" : 				{
					"maxclass" : "meter~",
					"numinlets" : 1,
					"id" : "obj-35",
					"patching_rect" : [ 389.0, 314.0, 13.0, 62.0 ],
					"numoutlets" : 1,
					"coldcolor" : [ 0.0, 0.658824, 0.0, 1.0 ],
					"bgcolor" : [ 0.403922, 0.403922, 0.403922, 1.0 ],
					"outlettype" : [ "float" ],
					"warmcolor" : [ 0.85098, 0.85098, 0.0, 1.0 ],
					"tepidcolor" : [ 0.6, 0.729412, 0.0, 1.0 ]
				}

			}
, 			{
				"box" : 				{
					"maxclass" : "meter~",
					"numinlets" : 1,
					"id" : "obj-36",
					"patching_rect" : [ 374.0, 314.0, 13.0, 62.0 ],
					"numoutlets" : 1,
					"coldcolor" : [ 0.0, 0.658824, 0.0, 1.0 ],
					"bgcolor" : [ 0.403922, 0.403922, 0.403922, 1.0 ],
					"outlettype" : [ "float" ],
					"warmcolor" : [ 0.85098, 0.85098, 0.0, 1.0 ],
					"tepidcolor" : [ 0.6, 0.729412, 0.0, 1.0 ]
				}

			}
, 			{
				"box" : 				{
					"maxclass" : "meter~",
					"numinlets" : 1,
					"id" : "obj-37",
					"patching_rect" : [ 359.0, 314.0, 13.0, 62.0 ],
					"numoutlets" : 1,
					"coldcolor" : [ 0.0, 0.658824, 0.0, 1.0 ],
					"bgcolor" : [ 0.403922, 0.403922, 0.403922, 1.0 ],
					"outlettype" : [ "float" ],
					"warmcolor" : [ 0.85098, 0.85098, 0.0, 1.0 ],
					"tepidcolor" : [ 0.6, 0.729412, 0.0, 1.0 ]
				}

			}
, 			{
				"box" : 				{
					"maxclass" : "meter~",
					"numinlets" : 1,
					"id" : "obj-38",
					"patching_rect" : [ 344.0, 314.0, 13.0, 62.0 ],
					"numoutlets" : 1,
					"coldcolor" : [ 0.0, 0.658824, 0.0, 1.0 ],
					"bgcolor" : [ 0.403922, 0.403922, 0.403922, 1.0 ],
					"outlettype" : [ "float" ],
					"warmcolor" : [ 0.85098, 0.85098, 0.0, 1.0 ],
					"tepidcolor" : [ 0.6, 0.729412, 0.0, 1.0 ]
				}

			}
, 			{
				"box" : 				{
					"maxclass" : "meter~",
					"numinlets" : 1,
					"id" : "obj-39",
					"patching_rect" : [ 434.0, 314.0, 13.0, 62.0 ],
					"numoutlets" : 1,
					"coldcolor" : [ 0.0, 0.658824, 0.0, 1.0 ],
					"bgcolor" : [ 0.403922, 0.403922, 0.403922, 1.0 ],
					"outlettype" : [ "float" ],
					"warmcolor" : [ 0.85098, 0.85098, 0.0, 1.0 ],
					"tepidcolor" : [ 0.6, 0.729412, 0.0, 1.0 ]
				}

			}
, 			{
				"box" : 				{
					"maxclass" : "meter~",
					"numinlets" : 1,
					"id" : "obj-40",
					"patching_rect" : [ 329.0, 314.0, 13.0, 62.0 ],
					"numoutlets" : 1,
					"coldcolor" : [ 0.0, 0.658824, 0.0, 1.0 ],
					"bgcolor" : [ 0.403922, 0.403922, 0.403922, 1.0 ],
					"outlettype" : [ "float" ],
					"warmcolor" : [ 0.85098, 0.85098, 0.0, 1.0 ],
					"tepidcolor" : [ 0.6, 0.729412, 0.0, 1.0 ]
				}

			}
, 			{
				"box" : 				{
					"maxclass" : "comment",
					"text" : "to split the multicable signal",
					"linecount" : 2,
					"numinlets" : 1,
					"id" : "obj-41",
					"frgb" : [ 1.0, 0.984314, 0.929412, 1.0 ],
					"fontsize" : 10.0,
					"patching_rect" : [ 561.0, 250.0, 93.0, 31.0 ],
					"numoutlets" : 0,
					"fontname" : "Verdana"
				}

			}
, 			{
				"box" : 				{
					"maxclass" : "bpatcher",
					"varname" : "/output~",
					"lockeddragscroll" : 1,
					"args" : [ "/output~" ],
					"numinlets" : 2,
					"id" : "obj-42",
					"patching_rect" : [ 240.0, 225.0, 300.0, 70.0 ],
					"numoutlets" : 33,
					"name" : "jmod.sur.multi.out~.maxpat",
					"outlettype" : [ "", "", "", "", "", "", "", "", "", "", "", "", "", "", "", "", "", "", "", "", "", "", "", "", "", "", "", "", "", "", "", "", "" ],
					"presentation_rect" : [ 0.0, 0.0, 300.0, 70.0 ]
				}

			}
, 			{
				"box" : 				{
					"maxclass" : "newobj",
					"text" : "dac~ 1 2 3 4 5 6 7 8 9 10 11 12 13 14 15 16",
					"numinlets" : 16,
					"id" : "obj-43",
					"fontsize" : 10.0,
					"patching_rect" : [ 209.0, 381.0, 240.0, 19.0 ],
					"numoutlets" : 0,
					"fontname" : "Verdana"
				}

			}
, 			{
				"box" : 				{
					"maxclass" : "meter~",
					"numinlets" : 1,
					"id" : "obj-44",
					"patching_rect" : [ 314.0, 314.0, 13.0, 62.0 ],
					"numoutlets" : 1,
					"coldcolor" : [ 0.0, 0.658824, 0.0, 1.0 ],
					"bgcolor" : [ 0.403922, 0.403922, 0.403922, 1.0 ],
					"outlettype" : [ "float" ],
					"warmcolor" : [ 0.85098, 0.85098, 0.0, 1.0 ],
					"tepidcolor" : [ 0.6, 0.729412, 0.0, 1.0 ]
				}

			}
, 			{
				"box" : 				{
					"maxclass" : "meter~",
					"numinlets" : 1,
					"id" : "obj-45",
					"patching_rect" : [ 299.0, 314.0, 13.0, 62.0 ],
					"numoutlets" : 1,
					"coldcolor" : [ 0.0, 0.658824, 0.0, 1.0 ],
					"bgcolor" : [ 0.403922, 0.403922, 0.403922, 1.0 ],
					"outlettype" : [ "float" ],
					"warmcolor" : [ 0.85098, 0.85098, 0.0, 1.0 ],
					"tepidcolor" : [ 0.6, 0.729412, 0.0, 1.0 ]
				}

			}
, 			{
				"box" : 				{
					"maxclass" : "meter~",
					"numinlets" : 1,
					"id" : "obj-46",
					"patching_rect" : [ 284.0, 314.0, 13.0, 62.0 ],
					"numoutlets" : 1,
					"coldcolor" : [ 0.0, 0.658824, 0.0, 1.0 ],
					"bgcolor" : [ 0.403922, 0.403922, 0.403922, 1.0 ],
					"outlettype" : [ "float" ],
					"warmcolor" : [ 0.85098, 0.85098, 0.0, 1.0 ],
					"tepidcolor" : [ 0.6, 0.729412, 0.0, 1.0 ]
				}

			}
, 			{
				"box" : 				{
					"maxclass" : "meter~",
					"numinlets" : 1,
					"id" : "obj-47",
					"patching_rect" : [ 269.0, 314.0, 13.0, 62.0 ],
					"numoutlets" : 1,
					"coldcolor" : [ 0.0, 0.658824, 0.0, 1.0 ],
					"bgcolor" : [ 0.403922, 0.403922, 0.403922, 1.0 ],
					"outlettype" : [ "float" ],
					"warmcolor" : [ 0.85098, 0.85098, 0.0, 1.0 ],
					"tepidcolor" : [ 0.6, 0.729412, 0.0, 1.0 ]
				}

			}
, 			{
				"box" : 				{
					"maxclass" : "meter~",
					"numinlets" : 1,
					"id" : "obj-48",
					"patching_rect" : [ 254.0, 314.0, 13.0, 62.0 ],
					"numoutlets" : 1,
					"coldcolor" : [ 0.0, 0.658824, 0.0, 1.0 ],
					"bgcolor" : [ 0.403922, 0.403922, 0.403922, 1.0 ],
					"outlettype" : [ "float" ],
					"warmcolor" : [ 0.85098, 0.85098, 0.0, 1.0 ],
					"tepidcolor" : [ 0.6, 0.729412, 0.0, 1.0 ]
				}

			}
, 			{
				"box" : 				{
					"maxclass" : "meter~",
					"numinlets" : 1,
					"id" : "obj-49",
					"patching_rect" : [ 238.0, 314.0, 13.0, 62.0 ],
					"numoutlets" : 1,
					"coldcolor" : [ 0.0, 0.658824, 0.0, 1.0 ],
					"bgcolor" : [ 0.403922, 0.403922, 0.403922, 1.0 ],
					"outlettype" : [ "float" ],
					"warmcolor" : [ 0.85098, 0.85098, 0.0, 1.0 ],
					"tepidcolor" : [ 0.6, 0.729412, 0.0, 1.0 ]
				}

			}
, 			{
				"box" : 				{
					"maxclass" : "meter~",
					"numinlets" : 1,
					"id" : "obj-50",
					"patching_rect" : [ 223.0, 314.0, 13.0, 62.0 ],
					"numoutlets" : 1,
					"coldcolor" : [ 0.0, 0.658824, 0.0, 1.0 ],
					"bgcolor" : [ 0.403922, 0.403922, 0.403922, 1.0 ],
					"outlettype" : [ "float" ],
					"warmcolor" : [ 0.85098, 0.85098, 0.0, 1.0 ],
					"tepidcolor" : [ 0.6, 0.729412, 0.0, 1.0 ]
				}

			}
, 			{
				"box" : 				{
					"maxclass" : "meter~",
					"numinlets" : 1,
					"id" : "obj-51",
					"patching_rect" : [ 208.0, 314.0, 13.0, 62.0 ],
					"numoutlets" : 1,
					"coldcolor" : [ 0.0, 0.658824, 0.0, 1.0 ],
					"bgcolor" : [ 0.403922, 0.403922, 0.403922, 1.0 ],
					"outlettype" : [ "float" ],
					"warmcolor" : [ 0.85098, 0.85098, 0.0, 1.0 ],
					"tepidcolor" : [ 0.6, 0.729412, 0.0, 1.0 ]
				}

			}
, 			{
				"box" : 				{
					"maxclass" : "bpatcher",
					"varname" : "jmod.sur.multi.input~",
					"lockeddragscroll" : 1,
					"args" : [ "/jmod.sur.multi.input~" ],
					"numinlets" : 2,
					"id" : "obj-52",
					"patching_rect" : [ 240.0, 89.0, 300.0, 105.0 ],
					"numoutlets" : 2,
					"name" : "jmod.sur.multi.input~.maxpat",
					"outlettype" : [ "", "" ],
					"presentation_rect" : [ 0.0, 0.0, 300.0, 105.0 ]
				}

			}
, 			{
				"box" : 				{
					"maxclass" : "comment",
					"text" : "to create multichannel audio files from mulitple monaural audio files, use e.g.",
					"linecount" : 3,
					"numinlets" : 1,
					"id" : "obj-54",
					"frgb" : [ 1.0, 0.984314, 0.929412, 1.0 ],
					"fontsize" : 10.0,
					"patching_rect" : [ 10.0, 256.0, 165.0, 43.0 ],
					"numoutlets" : 0,
					"fontname" : "Verdana"
				}

			}
 ],
		"lines" : [ 			{
				"patchline" : 				{
					"source" : [ "obj-23", 0 ],
					"destination" : [ "obj-52", 0 ],
					"hidden" : 1,
					"midpoints" : [  ]
				}

			}
, 			{
				"patchline" : 				{
					"source" : [ "obj-52", 1 ],
					"destination" : [ "obj-42", 1 ],
					"hidden" : 0,
					"midpoints" : [  ]
				}

			}
, 			{
				"patchline" : 				{
					"source" : [ "obj-52", 0 ],
					"destination" : [ "obj-25", 1 ],
					"hidden" : 1,
					"midpoints" : [  ]
				}

			}
, 			{
				"patchline" : 				{
					"source" : [ "obj-10", 0 ],
					"destination" : [ "obj-11", 0 ],
					"hidden" : 1,
					"midpoints" : [  ]
				}

			}
, 			{
				"patchline" : 				{
					"source" : [ "obj-17", 0 ],
					"destination" : [ "obj-18", 0 ],
					"hidden" : 1,
					"midpoints" : [  ]
				}

			}
, 			{
				"patchline" : 				{
					"source" : [ "obj-13", 0 ],
					"destination" : [ "obj-14", 0 ],
					"hidden" : 1,
					"midpoints" : [  ]
				}

			}
, 			{
				"patchline" : 				{
					"source" : [ "obj-19", 0 ],
					"destination" : [ "obj-20", 0 ],
					"hidden" : 1,
					"midpoints" : [  ]
				}

			}
, 			{
				"patchline" : 				{
					"source" : [ "obj-14", 0 ],
					"destination" : [ "obj-24", 0 ],
					"hidden" : 1,
					"midpoints" : [  ]
				}

			}
, 			{
				"patchline" : 				{
					"source" : [ "obj-18", 0 ],
					"destination" : [ "obj-24", 0 ],
					"hidden" : 1,
					"midpoints" : [  ]
				}

			}
, 			{
				"patchline" : 				{
					"source" : [ "obj-20", 0 ],
					"destination" : [ "obj-24", 0 ],
					"hidden" : 1,
					"midpoints" : [  ]
				}

			}
, 			{
				"patchline" : 				{
					"source" : [ "obj-42", 1 ],
					"destination" : [ "obj-51", 0 ],
					"hidden" : 0,
					"midpoints" : [  ]
				}

			}
, 			{
				"patchline" : 				{
					"source" : [ "obj-42", 1 ],
					"destination" : [ "obj-43", 0 ],
					"hidden" : 1,
					"color" : [ 1.0, 0.890196, 0.090196, 1.0 ],
					"midpoints" : [  ]
				}

			}
, 			{
				"patchline" : 				{
					"source" : [ "obj-42", 2 ],
					"destination" : [ "obj-50", 0 ],
					"hidden" : 0,
					"midpoints" : [  ]
				}

			}
, 			{
				"patchline" : 				{
					"source" : [ "obj-42", 2 ],
					"destination" : [ "obj-43", 1 ],
					"hidden" : 1,
					"color" : [ 1.0, 0.890196, 0.090196, 1.0 ],
					"midpoints" : [  ]
				}

			}
, 			{
				"patchline" : 				{
					"source" : [ "obj-42", 3 ],
					"destination" : [ "obj-49", 0 ],
					"hidden" : 0,
					"midpoints" : [  ]
				}

			}
, 			{
				"patchline" : 				{
					"source" : [ "obj-42", 3 ],
					"destination" : [ "obj-43", 2 ],
					"hidden" : 1,
					"color" : [ 1.0, 0.890196, 0.090196, 1.0 ],
					"midpoints" : [  ]
				}

			}
, 			{
				"patchline" : 				{
					"source" : [ "obj-42", 4 ],
					"destination" : [ "obj-48", 0 ],
					"hidden" : 0,
					"midpoints" : [  ]
				}

			}
, 			{
				"patchline" : 				{
					"source" : [ "obj-42", 4 ],
					"destination" : [ "obj-43", 3 ],
					"hidden" : 1,
					"color" : [ 1.0, 0.890196, 0.090196, 1.0 ],
					"midpoints" : [  ]
				}

			}
, 			{
				"patchline" : 				{
					"source" : [ "obj-42", 5 ],
					"destination" : [ "obj-47", 0 ],
					"hidden" : 0,
					"midpoints" : [  ]
				}

			}
, 			{
				"patchline" : 				{
					"source" : [ "obj-42", 5 ],
					"destination" : [ "obj-43", 4 ],
					"hidden" : 1,
					"color" : [ 1.0, 0.890196, 0.090196, 1.0 ],
					"midpoints" : [  ]
				}

			}
, 			{
				"patchline" : 				{
					"source" : [ "obj-42", 6 ],
					"destination" : [ "obj-46", 0 ],
					"hidden" : 0,
					"midpoints" : [  ]
				}

			}
, 			{
				"patchline" : 				{
					"source" : [ "obj-42", 6 ],
					"destination" : [ "obj-43", 5 ],
					"hidden" : 1,
					"color" : [ 1.0, 0.890196, 0.090196, 1.0 ],
					"midpoints" : [  ]
				}

			}
, 			{
				"patchline" : 				{
					"source" : [ "obj-42", 7 ],
					"destination" : [ "obj-45", 0 ],
					"hidden" : 0,
					"midpoints" : [  ]
				}

			}
, 			{
				"patchline" : 				{
					"source" : [ "obj-42", 7 ],
					"destination" : [ "obj-43", 6 ],
					"hidden" : 1,
					"color" : [ 1.0, 0.890196, 0.090196, 1.0 ],
					"midpoints" : [  ]
				}

			}
, 			{
				"patchline" : 				{
					"source" : [ "obj-42", 8 ],
					"destination" : [ "obj-44", 0 ],
					"hidden" : 0,
					"midpoints" : [  ]
				}

			}
, 			{
				"patchline" : 				{
					"source" : [ "obj-42", 8 ],
					"destination" : [ "obj-43", 7 ],
					"hidden" : 1,
					"color" : [ 1.0, 0.890196, 0.090196, 1.0 ],
					"midpoints" : [  ]
				}

			}
, 			{
				"patchline" : 				{
					"source" : [ "obj-42", 9 ],
					"destination" : [ "obj-40", 0 ],
					"hidden" : 0,
					"midpoints" : [  ]
				}

			}
, 			{
				"patchline" : 				{
					"source" : [ "obj-42", 9 ],
					"destination" : [ "obj-43", 8 ],
					"hidden" : 1,
					"color" : [ 1.0, 0.890196, 0.090196, 1.0 ],
					"midpoints" : [  ]
				}

			}
, 			{
				"patchline" : 				{
					"source" : [ "obj-42", 10 ],
					"destination" : [ "obj-38", 0 ],
					"hidden" : 0,
					"midpoints" : [  ]
				}

			}
, 			{
				"patchline" : 				{
					"source" : [ "obj-42", 10 ],
					"destination" : [ "obj-43", 9 ],
					"hidden" : 1,
					"color" : [ 1.0, 0.890196, 0.090196, 1.0 ],
					"midpoints" : [  ]
				}

			}
, 			{
				"patchline" : 				{
					"source" : [ "obj-42", 11 ],
					"destination" : [ "obj-37", 0 ],
					"hidden" : 0,
					"midpoints" : [  ]
				}

			}
, 			{
				"patchline" : 				{
					"source" : [ "obj-42", 11 ],
					"destination" : [ "obj-43", 10 ],
					"hidden" : 1,
					"color" : [ 1.0, 0.890196, 0.090196, 1.0 ],
					"midpoints" : [  ]
				}

			}
, 			{
				"patchline" : 				{
					"source" : [ "obj-42", 12 ],
					"destination" : [ "obj-36", 0 ],
					"hidden" : 0,
					"midpoints" : [  ]
				}

			}
, 			{
				"patchline" : 				{
					"source" : [ "obj-42", 12 ],
					"destination" : [ "obj-43", 11 ],
					"hidden" : 1,
					"color" : [ 1.0, 0.890196, 0.090196, 1.0 ],
					"midpoints" : [  ]
				}

			}
, 			{
				"patchline" : 				{
					"source" : [ "obj-42", 13 ],
					"destination" : [ "obj-35", 0 ],
					"hidden" : 0,
					"midpoints" : [  ]
				}

			}
, 			{
				"patchline" : 				{
					"source" : [ "obj-42", 13 ],
					"destination" : [ "obj-43", 12 ],
					"hidden" : 1,
					"color" : [ 1.0, 0.890196, 0.090196, 1.0 ],
					"midpoints" : [  ]
				}

			}
, 			{
				"patchline" : 				{
					"source" : [ "obj-42", 14 ],
					"destination" : [ "obj-34", 0 ],
					"hidden" : 0,
					"midpoints" : [  ]
				}

			}
, 			{
				"patchline" : 				{
					"source" : [ "obj-42", 14 ],
					"destination" : [ "obj-43", 13 ],
					"hidden" : 1,
					"color" : [ 1.0, 0.890196, 0.090196, 1.0 ],
					"midpoints" : [  ]
				}

			}
, 			{
				"patchline" : 				{
					"source" : [ "obj-42", 15 ],
					"destination" : [ "obj-33", 0 ],
					"hidden" : 0,
					"midpoints" : [  ]
				}

			}
, 			{
				"patchline" : 				{
					"source" : [ "obj-42", 15 ],
					"destination" : [ "obj-43", 14 ],
					"hidden" : 1,
					"color" : [ 1.0, 0.890196, 0.090196, 1.0 ],
					"midpoints" : [  ]
				}

			}
, 			{
				"patchline" : 				{
					"source" : [ "obj-42", 16 ],
					"destination" : [ "obj-39", 0 ],
					"hidden" : 0,
					"midpoints" : [  ]
				}

			}
, 			{
				"patchline" : 				{
					"source" : [ "obj-42", 16 ],
					"destination" : [ "obj-43", 15 ],
					"hidden" : 1,
					"color" : [ 1.0, 0.890196, 0.090196, 1.0 ],
					"midpoints" : [  ]
				}

			}
, 			{
				"patchline" : 				{
					"source" : [ "obj-42", 17 ],
					"destination" : [ "obj-8", 0 ],
					"hidden" : 0,
					"midpoints" : [  ]
				}

			}
, 			{
				"patchline" : 				{
					"source" : [ "obj-42", 18 ],
					"destination" : [ "obj-6", 0 ],
					"hidden" : 0,
					"midpoints" : [  ]
				}

			}
, 			{
				"patchline" : 				{
					"source" : [ "obj-42", 19 ],
					"destination" : [ "obj-5", 0 ],
					"hidden" : 0,
					"midpoints" : [  ]
				}

			}
, 			{
				"patchline" : 				{
					"source" : [ "obj-42", 20 ],
					"destination" : [ "obj-4", 0 ],
					"hidden" : 0,
					"midpoints" : [  ]
				}

			}
, 			{
				"patchline" : 				{
					"source" : [ "obj-42", 21 ],
					"destination" : [ "obj-3", 0 ],
					"hidden" : 0,
					"midpoints" : [  ]
				}

			}
, 			{
				"patchline" : 				{
					"source" : [ "obj-42", 22 ],
					"destination" : [ "obj-2", 0 ],
					"hidden" : 0,
					"midpoints" : [  ]
				}

			}
, 			{
				"patchline" : 				{
					"source" : [ "obj-42", 23 ],
					"destination" : [ "obj-1", 0 ],
					"hidden" : 0,
					"midpoints" : [  ]
				}

			}
, 			{
				"patchline" : 				{
					"source" : [ "obj-42", 24 ],
					"destination" : [ "obj-7", 0 ],
					"hidden" : 0,
					"midpoints" : [  ]
				}

			}
 ]
	}

}
