max v2;#N vpatcher 297 144 1273 793;#P origin -8 -432;#P window setfont "Sans Serif" 9.;#P hidden newex 487 213 87 196617 r $0__xxx_done;#B color 14;#N vpatcher 497 319 1097 719;#P button 85 34 15 0;#P inlet 59 29 15 0;#P outlet 56 179 15 0;#P window setfont "Sans Serif" 9.;#P hidden message 60 91 64 196617 rgb2 66 0 2;#P hidden message 221 89 92 196617 frgb 181 181 181;#P hidden message 138 91 75 196617 brgb 47 46 36;#P newex 83 58 50 196617 deferlow;#P connect 2 0 4 0;#P connect 1 0 4 0;#P connect 3 0 4 0;#P connect 0 0 3 0;#P connect 5 0 0 0;#P connect 6 0 0 0;#P connect 0 0 1 0;#P connect 0 0 2 0;#P pop;#P newobj 358 83 46 196617 p colors;#P newex 439 163 35 196617 * 1.;#P window linecount 2;#P hidden newex 487 170 256 196617 jcom.parameter start @type msg_float @repetitions 0 @description "start time in soundfile to play in [ms]";#B color 2;#P objectname start;#P window linecount 1;#N vpatcher 10 59 610 459;#P window setfont "Sans Serif" 9.;#P message 60 108 52 196617 1 channel;#P newex 57 50 32 196617 sel 1;#P newex 194 101 81 196617 append channels;#P hidden newex 48 171 62 196617 prepend set;#P inlet 57 30 15 0;#P outlet 48 193 15 0;#P connect 3 0 2 0;#P connect 5 0 2 0;#P connect 2 0 0 0;#P connect 1 0 4 0;#P connect 4 0 5 0;#P connect 4 1 3 0;#P pop;#P newobj 126 148 30 196617 p;#P newex 631 475 62 196617 prepend set;#P bpatcher 2 23 161 13 0 0 jcom.textslider.mxt 0 0. @size 160 12 @text ThisSlider;#P hidden newex 539 24 81 196617 pvar countdown;#B color 7;#P hidden newex 642 23 357 196617 jcom.parameter countdown @type msg_toggle @description "Loop soundfile.";#B color 2;#P objectname countdown[1];#P comment 156 38 53 196617 countdown;#B frgb 181 181 181;#P user radiogroup 141 36 42 16;#X size 1;#X offset 16;#X inactive 0;#X itemtype 1;#X flagmode 0;#X set 0;#X done;#P objectname countdown;#P window linecount 0;#P message 163 21 55 196617;#P objectname name_symbol[1];#P window linecount 1;#P comment 227 38 32 196617 timer;#B frgb 181 181 181;#P user radiogroup 214 36 42 16;#X size 1;#X offset 16;#X inactive 0;#X itemtype 1;#X flagmode 0;#X set 0;#X done;#P objectname watch_toggle;#P hidden newex 494 145 94 196617 pvar watch_toggle;#B color 7;#P hidden newex 592 145 313 196617 jcom.parameter timer @type msg_int @description "set the timer";#B color 2;#P objectname timer[1];#P comment 230 22 29 196617 loop;#B frgb 181 181 181;#P window setfont Arial 20.;#P comment 208 61 36 131137556 ms;#B frgb 181 181 181;#P comment 135 61 29 131137556 s;#B frgb 181 181 181;#P comment 76 61 29 131137556 m;#B frgb 181 181 181;#P comment 29 61 17 131137556 h;#B frgb 181 181 181;#P number 161 60 48 20 0 0 8353 2001 181 181 181 221 221 221 222 222 222 0 0 0;#P objectname xfade_threshold[3];#P number 100 60 33 20 0 0 8353 2001 181 181 181 221 221 221 222 222 222 0 0 0;#P objectname xfade_threshold[2];#P number 44 60 31 20 0 0 8353 2001 181 181 181 221 221 221 222 222 222 0 0 0;#P objectname xfade_threshold[1];#P number 6 60 24 20 0 0 8353 2001 181 181 181 221 221 221 222 222 222 0 0 0;#P objectname xfade_threshold;#P window setfont "Sans Serif" 9.;#N vpatcher 261 332 897 675;#P button 67 24 15 0;#P window setfont "Sans Serif" 9.;#P window linecount 0;#P newex 56 68 31 196617 !/ 1.;#P newex 56 44 99 196617 loadmess 3600000.;#P outlet 352 290 15 0;#P outlet 243 287 15 0;#P outlet 131 284 15 0;#P outlet 30 289 15 0;#P newex 259 208 68 196617 expr $f1-$i2;#P newex 352 231 45 196617 * 1000.;#P newex 158 162 68 196617 expr $f1-$i2;#P newex 243 186 33 196617 * 60.;#P newex 46 114 68 196617 expr $f1-$i2;#P newex 131 139 33 196617 * 60.;#P newex 30 91 35 196617 * 1.;#P inlet 30 27 15 0;#P window setfont "Sans Serif" 36.;#P window linecount 1;#P comment 458 261 63 196644 ms;#P comment 309 261 38 196644 s;#P comment 195 261 38 196644 m;#P comment 94 261 28 196644 h;#P connect 4 0 5 0;#P connect 5 0 12 0;#P fasten 5 0 7 0 35 111 51 111;#P connect 17 0 5 1;#P connect 18 0 16 0;#P connect 16 0 17 0;#P fasten 5 0 7 1 35 110 109 110;#P fasten 7 0 6 0 51 135 136 135;#P connect 6 0 13 0;#P fasten 6 0 9 0 136 158 163 158;#P fasten 6 0 9 1 136 158 221 158;#P fasten 9 0 8 0 163 183 248 183;#P connect 8 0 14 0;#P fasten 8 0 11 0 248 206 264 206;#P fasten 8 0 11 1 248 205 322 205;#P fasten 11 0 10 0 264 228 357 228;#P connect 10 0 15 0;#P pop;#P newobj 265 32 59 196617 p h:m:s:ms;#P objectname timer;#P user jsui 91 37 45 19 1 0 0 jcom.jsui_texttoggle.js Pause Resume 68 68 68 225 225 225 121 255 15;#P objectname pause_button;#P hidden newex 537 49 93 196617 pvar pause_button;#B color 7;#P hidden newex 633 49 355 196617 jcom.message pause @type msg_toggle @repetitions 0 @description "Pause";#B color 2;#P objectname play[1];#P newex 275 540 459 196617 jcom.multi.in~;#P hidden newex 46 149 67 196617 prepend text;#P newex 331 46 50 196617 deferlow;#P message 332 66 165 196617 text drag file into the time display;#P newex 331 25 48 196617 loadbang;#P newex 3 203 87 196617 prepend /sf_load;#P hidden newex 487 346 380 196617 jcom.message sf_load @type msg_symbol @description "load a specific soundfile";#B color 2;#P objectname load_file;#P hidden newex 408 412 47 196617 pcontrol;#P hidden newex 275 388 143 196617 jcom.algorithm_control~.mxt;#P hidden newex 46 129 333 196617 jcom.oscroute /info/name /info/channels /info/size /info/playername;#P message 49 494 149 196617 drag soundfile into the timeline;#P objectname name_symbol;#P hidden newex 487 401 89 196617 pvar sample_size;#B color 7;#P hidden newex 487 382 382 196617 jcom.message info/size @type msg_int @description "size of the loaded soundfile";#B color 2;#P objectname loop[2];#P user radiogroup 216 20 42 16;#X size 1;#X offset 16;#X inactive 0;#X itemtype 1;#X flagmode 0;#X set 0;#X done;#P objectname Loop_toggle;#P hidden message 496 90 14 196617 1;#P window setfont "Sans Serif" 12.;#P hidden comment 440 102 39 196620 open;#B color 7;#P hidden comment 440 305 39 196620 loop;#B color 7;#P hidden comment 440 248 39 196620 play;#B frgb 181 181 181;#P window setfont "Sans Serif" 9.;#P hidden newex 487 317 85 196617 pvar Loop_toggle;#B color 7;#P hidden newex 487 263 85 196617 pvar Play_button;#B color 7;#P hidden newex 487 242 392 196617 jcom.message play @type msg_toggle @repetitions 0 @description "Play sound file.";#B color 2;#P objectname play;#P hidden newex 487 296 335 196617 jcom.parameter loop @type msg_toggle @description "Loop soundfile.";#B color 2;#P objectname loop;#P hidden newex 516 89 88 196617 pvar Open_button;#B color 7;#P hidden newex 497 109 181 196617 jcom.message sf_open @type msg_int;#B color 2;#P objectname jcom.parameter.mxb[10];#P user jsui 46 37 45 19 1 0 0 jcom.jsui_texttoggle.js Play Stop 68 68 68 225 225 225 121 255 15;#P objectname Play_button;#P user jsui 1 37 45 19 1 0 0 jsui_textbutton.js Open 225 225 225 68 68 68;#P objectname Open_button;#P hidden newex 134 407 47 196617 pcontrol;#P hidden newex 134 387 37 196617 t open;#P hidden newex 134 365 151 196617 jcom.oscroute /open_inspector;#P message 114 207 191 196617 /preset/store 1 default \, /preset/write;#B color 3;#P newex 275 486 351 196617 jcom.out~ 24;#P newex 134 343 49 196617 jcom.in~;#P message 122 229 125 196617 /documentation/generate;#B color 3;#P window linecount 2;#P message 52 302 65 196617 \; max refresh;#P newex 24 266 382 196617 jcom.hub jmod.sur.multi.input~ @size 2U-half @module_type audio.ambisonic @inspector 0 @description "A simple multichannel sampleplayer based on sfplay~";#P objectname jcom.hub;#P window linecount 1;#P comment 38 230 79 196617 command input;#P inlet 24 230 13 0;#P message 253 229 31 196617 /init;#P inlet 134 325 13 0;#P outlet 275 581 13 0;#P newex 275 448 380 196617 jalg.sur.multi.input~.mxt $0_;#P comment 127 309 105 196617 ----signal input----;#P outlet 24 306 13 0;#P comment 299 583 101 196617 ---signal output---;#P user dropfile 4 59 251 116 0;#P bpatcher 0 1 255 118 0 0 jcom.gui.mxt 0 $0_;#P objectname jmod.gui.1Uh.a.stereo.mxt;#P hidden connect 69 0 68 0;#P hidden connect 42 0 68 0;#P hidden connect 44 0 68 0;#P hidden connect 73 0 68 0;#P hidden connect 1 0 40 0;#P lcolor 15;#P hidden connect 49 0 50 0;#P fasten 16 0 11 0 119 250 29 250;#P connect 9 0 11 0;#P fasten 13 0 11 0 127 250 29 250;#P fasten 8 0 11 0 258 251 29 251;#P connect 40 0 11 0;#P connect 11 0 3 0;#P hidden connect 49 1 51 0;#P connect 5 26 36 0;#P hidden connect 36 0 44 0;#P hidden connect 49 2 52 0;#P connect 36 1 70 0;#P connect 7 0 14 0;#P connect 14 0 17 0;#P hidden connect 17 0 18 0;#P connect 18 0 19 0;#P hidden connect 49 3 53 0;#P hidden connect 70 0 63 0;#P connect 5 24 49 0;#P fasten 17 1 37 0 280 385 280 385;#P fasten 37 0 5 0 280 432 280 432;#P fasten 38 0 5 0 413 432 280 432;#P connect 5 0 15 0;#P connect 15 0 45 0;#P connect 45 0 6 0;#P connect 5 1 15 1;#P connect 15 1 45 1;#P connect 5 2 15 2;#P connect 15 2 45 2;#P connect 5 3 15 3;#P connect 15 3 45 3;#P connect 41 0 43 0;#P connect 5 4 15 4;#P connect 15 4 45 4;#P connect 43 0 42 0;#P connect 5 5 15 5;#P connect 15 5 45 5;#P connect 43 0 73 0;#P connect 5 6 15 6;#P connect 15 6 45 6;#P connect 5 7 15 7;#P connect 15 7 45 7;#P connect 5 8 15 8;#P connect 15 8 45 8;#P connect 5 9 15 9;#P connect 15 9 45 9;#P hidden connect 37 1 38 0;#P connect 5 10 15 10;#P connect 15 10 45 10;#P connect 5 11 15 11;#P connect 15 11 45 11;#P hidden connect 68 0 72 0;#P connect 5 12 15 12;#P connect 15 12 45 12;#P connect 5 13 15 13;#P connect 15 13 45 13;#P connect 36 2 72 1;#P connect 5 14 15 14;#P connect 15 14 45 14;#P connect 5 15 15 15;#P connect 15 15 45 15;#P connect 72 0 71 0;#P connect 74 0 25 0;#P fasten 26 0 25 0 492 286 482 286 482 239 492 239;#P hidden connect 25 0 26 0;#P hidden fasten 27 0 24 0 492 338 484 338 484 292 492 292;#P hidden connect 24 0 27 0;#P hidden fasten 34 0 33 0 492 422 480 422 480 377 492 377;#P hidden connect 33 0 34 0;#P hidden connect 59 0 60 0;#P hidden connect 23 0 31 0;#P hidden connect 31 0 22 0;#P connect 5 16 15 16;#P connect 15 16 45 16;#P connect 5 17 15 17;#P connect 15 17 45 17;#P connect 5 18 15 18;#P connect 15 18 45 18;#P hidden connect 46 0 47 0;#P hidden connect 66 0 67 0;#P connect 5 19 15 19;#P connect 15 19 45 19;#P connect 5 20 15 20;#P connect 15 20 45 20;#P connect 5 21 15 21;#P connect 15 21 45 21;#P connect 5 22 15 22;#P connect 15 22 45 22;#P connect 60 0 59 0;#P connect 5 23 15 23;#P connect 15 23 45 23;#P connect 5 25 69 0;#P connect 47 0 46 0;#P connect 67 0 66 0;#P pop;