{
	"patcher" : 	{
		"rect" : [ 141.0, 44.0, 1042.0, 737.0 ],
		"bgcolor" : [ 1.0, 1.0, 1.0, 1.0 ],
		"bglocked" : 0,
		"defrect" : [ 141.0, 44.0, 1042.0, 737.0 ],
		"openinpresentation" : 0,
		"default_fontsize" : 10.0,
		"default_fontface" : 0,
		"default_fontname" : "Verdana",
		"gridonopen" : 0,
		"gridsize" : [ 15.0, 15.0 ],
		"gridsnaponopen" : 0,
		"toolbarvisible" : 1,
		"boxfadetime" : 200,
		"boxanimatetime" : 200,
		"scrollanimatetime" : 200,
		"metadata" : [  ],
		"boxes" : [ 			{
				"box" : 				{
					"maxclass" : "newobj",
					"text" : "p more-about-motion-images",
					"numinlets" : 0,
					"patching_rect" : [ 488.0, 648.0, 141.0, 17.0 ],
					"numoutlets" : 0,
					"fontsize" : 9.0,
					"fontname" : "Verdana",
					"id" : "obj-1",
					"patcher" : 					{
						"rect" : [ 80.0, 166.0, 1042.0, 408.0 ],
						"bgcolor" : [ 1.0, 1.0, 1.0, 1.0 ],
						"bglocked" : 0,
						"defrect" : [ 80.0, 166.0, 1042.0, 408.0 ],
						"openinpresentation" : 0,
						"default_fontsize" : 10.0,
						"default_fontface" : 0,
						"default_fontname" : "Verdana",
						"gridonopen" : 0,
						"gridsize" : [ 15.0, 15.0 ],
						"gridsnaponopen" : 0,
						"toolbarvisible" : 1,
						"boxfadetime" : 200,
						"boxanimatetime" : 200,
						"scrollanimatetime" : 200,
						"metadata" : [  ],
						"boxes" : [ 							{
								"box" : 								{
									"maxclass" : "fpic",
									"numinlets" : 1,
									"patching_rect" : [ 35.0, 91.0, 947.0, 222.0 ],
									"numoutlets" : 0,
									"id" : "obj-1",
									"pic" : "aashild_strip.jpg"
								}

							}
, 							{
								"box" : 								{
									"maxclass" : "comment",
									"text" : "Motion Images",
									"numinlets" : 1,
									"patching_rect" : [ 36.0, 24.0, 136.0, 28.0 ],
									"numoutlets" : 0,
									"fontsize" : 15.799999,
									"fontname" : "Verdana",
									"id" : "obj-2"
								}

							}
, 							{
								"box" : 								{
									"maxclass" : "comment",
									"text" : "Added to original",
									"numinlets" : 1,
									"patching_rect" : [ 857.0, 332.0, 86.0, 17.0 ],
									"numoutlets" : 0,
									"fontsize" : 9.0,
									"fontname" : "Verdana",
									"id" : "obj-3"
								}

							}
, 							{
								"box" : 								{
									"maxclass" : "comment",
									"text" : "with trails (motion history image)",
									"numinlets" : 1,
									"patching_rect" : [ 634.0, 332.0, 164.0, 17.0 ],
									"numoutlets" : 0,
									"fontsize" : 9.0,
									"fontname" : "Verdana",
									"id" : "obj-4"
								}

							}
, 							{
								"box" : 								{
									"maxclass" : "comment",
									"text" : "with edge detection",
									"numinlets" : 1,
									"patching_rect" : [ 423.0, 332.0, 101.0, 17.0 ],
									"numoutlets" : 0,
									"fontsize" : 9.0,
									"fontname" : "Verdana",
									"id" : "obj-5"
								}

							}
, 							{
								"box" : 								{
									"maxclass" : "comment",
									"text" : "with noise reduction",
									"numinlets" : 1,
									"patching_rect" : [ 230.0, 332.0, 101.0, 17.0 ],
									"numoutlets" : 0,
									"fontsize" : 9.0,
									"fontname" : "Verdana",
									"id" : "obj-6"
								}

							}
, 							{
								"box" : 								{
									"maxclass" : "comment",
									"text" : "Raw motion image",
									"numinlets" : 1,
									"patching_rect" : [ 52.0, 332.0, 91.0, 17.0 ],
									"numoutlets" : 0,
									"fontsize" : 9.0,
									"fontname" : "Verdana",
									"id" : "obj-7"
								}

							}
, 							{
								"box" : 								{
									"maxclass" : "comment",
									"text" : "Some different flavours of motion images, and how they can be used to display motion qualities in a video sequence, here of dance improvisation.",
									"linecount" : 2,
									"numinlets" : 1,
									"patching_rect" : [ 36.0, 58.0, 350.0, 28.0 ],
									"numoutlets" : 0,
									"fontsize" : 9.0,
									"fontname" : "Verdana",
									"id" : "obj-8"
								}

							}
 ],
						"lines" : [  ]
					}
,
					"saved_object_attributes" : 					{
						"globalpatchername" : "",
						"fontsize" : 10.0,
						"default_fontsize" : 10.0,
						"default_fontface" : 0,
						"fontname" : "Verdana",
						"fontface" : 0,
						"default_fontname" : "Verdana"
					}

				}

			}
, 			{
				"box" : 				{
					"maxclass" : "comment",
					"text" : "Inspector Controls",
					"numinlets" : 1,
					"patching_rect" : [ 15.0, 417.0, 206.0, 28.0 ],
					"numoutlets" : 0,
					"fontsize" : 15.799999,
					"fontname" : "Verdana",
					"id" : "obj-2"
				}

			}
, 			{
				"box" : 				{
					"maxclass" : "toggle",
					"numinlets" : 1,
					"patching_rect" : [ 35.0, 593.0, 15.0, 15.0 ],
					"numoutlets" : 1,
					"outlettype" : [ "int" ],
					"id" : "obj-3"
				}

			}
, 			{
				"box" : 				{
					"maxclass" : "message",
					"text" : "\/centroid\/size_on $1",
					"numinlets" : 2,
					"patching_rect" : [ 53.0, 593.0, 108.0, 15.0 ],
					"numoutlets" : 1,
					"fontsize" : 9.0,
					"fontname" : "Verdana",
					"outlettype" : [ "" ],
					"id" : "obj-4"
				}

			}
, 			{
				"box" : 				{
					"maxclass" : "flonum",
					"numinlets" : 1,
					"bgcolor" : [ 0.866667, 0.866667, 0.866667, 1.0 ],
					"htextcolor" : [ 0.870588, 0.870588, 0.870588, 1.0 ],
					"patching_rect" : [ 14.0, 521.0, 35.0, 17.0 ],
					"numoutlets" : 2,
					"fontsize" : 9.0,
					"fontname" : "Verdana",
					"triscale" : 0.9,
					"outlettype" : [ "float", "bang" ],
					"id" : "obj-5"
				}

			}
, 			{
				"box" : 				{
					"maxclass" : "swatch",
					"numinlets" : 3,
					"compatibility" : 1,
					"patching_rect" : [ 324.0, 623.0, 128.0, 32.0 ],
					"numoutlets" : 2,
					"outlettype" : [ "", "float" ],
					"id" : "obj-6"
				}

			}
, 			{
				"box" : 				{
					"maxclass" : "message",
					"text" : "\/centroid_color $1 $2 $3",
					"numinlets" : 2,
					"patching_rect" : [ 324.0, 655.0, 127.0, 15.0 ],
					"numoutlets" : 1,
					"fontsize" : 9.0,
					"fontname" : "Verdana",
					"outlettype" : [ "" ],
					"id" : "obj-7"
				}

			}
, 			{
				"box" : 				{
					"maxclass" : "swatch",
					"numinlets" : 3,
					"compatibility" : 1,
					"patching_rect" : [ 156.0, 623.0, 128.0, 32.0 ],
					"numoutlets" : 2,
					"outlettype" : [ "", "float" ],
					"id" : "obj-8"
				}

			}
, 			{
				"box" : 				{
					"maxclass" : "message",
					"text" : "\/max_contraction_color $1 $2 $3",
					"numinlets" : 2,
					"patching_rect" : [ 156.0, 655.0, 166.0, 15.0 ],
					"numoutlets" : 1,
					"fontsize" : 9.0,
					"fontname" : "Verdana",
					"outlettype" : [ "" ],
					"id" : "obj-9"
				}

			}
, 			{
				"box" : 				{
					"maxclass" : "swatch",
					"numinlets" : 3,
					"compatibility" : 1,
					"patching_rect" : [ 13.0, 623.0, 128.0, 32.0 ],
					"numoutlets" : 2,
					"outlettype" : [ "", "float" ],
					"id" : "obj-10"
				}

			}
, 			{
				"box" : 				{
					"maxclass" : "message",
					"text" : "\/contraction\/slide $1",
					"numinlets" : 2,
					"patching_rect" : [ 53.0, 521.0, 109.0, 15.0 ],
					"numoutlets" : 1,
					"fontsize" : 9.0,
					"fontname" : "Verdana",
					"outlettype" : [ "" ],
					"id" : "obj-11"
				}

			}
, 			{
				"box" : 				{
					"maxclass" : "message",
					"text" : "\/contraction\/max\/reset",
					"numinlets" : 2,
					"patching_rect" : [ 53.0, 557.0, 122.0, 15.0 ],
					"numoutlets" : 1,
					"fontsize" : 9.0,
					"fontname" : "Verdana",
					"outlettype" : [ "" ],
					"id" : "obj-12"
				}

			}
, 			{
				"box" : 				{
					"maxclass" : "message",
					"text" : "\/contraction_color $1 $2 $3",
					"numinlets" : 2,
					"patching_rect" : [ 13.0, 655.0, 141.0, 15.0 ],
					"numoutlets" : 1,
					"fontsize" : 9.0,
					"fontname" : "Verdana",
					"outlettype" : [ "" ],
					"id" : "obj-13"
				}

			}
, 			{
				"box" : 				{
					"maxclass" : "toggle",
					"numinlets" : 1,
					"patching_rect" : [ 35.0, 575.0, 15.0, 15.0 ],
					"numoutlets" : 1,
					"outlettype" : [ "int" ],
					"id" : "obj-14"
				}

			}
, 			{
				"box" : 				{
					"maxclass" : "message",
					"text" : "\/centroid\/on $1",
					"numinlets" : 2,
					"patching_rect" : [ 53.0, 575.0, 84.0, 15.0 ],
					"numoutlets" : 1,
					"fontsize" : 9.0,
					"fontname" : "Verdana",
					"outlettype" : [ "" ],
					"id" : "obj-15"
				}

			}
, 			{
				"box" : 				{
					"maxclass" : "toggle",
					"numinlets" : 1,
					"patching_rect" : [ 34.0, 539.0, 15.0, 15.0 ],
					"numoutlets" : 1,
					"outlettype" : [ "int" ],
					"id" : "obj-16"
				}

			}
, 			{
				"box" : 				{
					"maxclass" : "message",
					"text" : "\/contraction\/max\/on $1",
					"numinlets" : 2,
					"patching_rect" : [ 53.0, 539.0, 123.0, 15.0 ],
					"numoutlets" : 1,
					"fontsize" : 9.0,
					"fontname" : "Verdana",
					"outlettype" : [ "" ],
					"id" : "obj-17"
				}

			}
, 			{
				"box" : 				{
					"maxclass" : "toggle",
					"numinlets" : 1,
					"patching_rect" : [ 34.0, 503.0, 15.0, 15.0 ],
					"numoutlets" : 1,
					"outlettype" : [ "int" ],
					"id" : "obj-18"
				}

			}
, 			{
				"box" : 				{
					"maxclass" : "message",
					"text" : "\/contraction\/on $1",
					"numinlets" : 2,
					"patching_rect" : [ 53.0, 503.0, 98.0, 15.0 ],
					"numoutlets" : 1,
					"fontsize" : 9.0,
					"fontname" : "Verdana",
					"outlettype" : [ "" ],
					"id" : "obj-19"
				}

			}
, 			{
				"box" : 				{
					"maxclass" : "flonum",
					"numinlets" : 1,
					"bgcolor" : [ 0.866667, 0.866667, 0.866667, 1.0 ],
					"htextcolor" : [ 0.870588, 0.870588, 0.870588, 1.0 ],
					"patching_rect" : [ 15.0, 484.0, 35.0, 17.0 ],
					"numoutlets" : 2,
					"fontsize" : 9.0,
					"fontname" : "Verdana",
					"triscale" : 0.9,
					"outlettype" : [ "float", "bang" ],
					"id" : "obj-20"
				}

			}
, 			{
				"box" : 				{
					"maxclass" : "message",
					"text" : "\/data_smoothing $1",
					"numinlets" : 2,
					"patching_rect" : [ 53.0, 484.0, 101.0, 15.0 ],
					"numoutlets" : 1,
					"fontsize" : 9.0,
					"fontname" : "Verdana",
					"outlettype" : [ "" ],
					"id" : "obj-21"
				}

			}
, 			{
				"box" : 				{
					"maxclass" : "newobj",
					"text" : "s jmod.motion%.cmd",
					"numinlets" : 1,
					"patching_rect" : [ 53.0, 614.0, 103.0, 17.0 ],
					"numoutlets" : 0,
					"hidden" : 1,
					"fontsize" : 9.0,
					"fontname" : "Verdana",
					"id" : "obj-22"
				}

			}
, 			{
				"box" : 				{
					"maxclass" : "comment",
					"text" : "Various things that might be useful",
					"numinlets" : 1,
					"patching_rect" : [ 12.0, 456.0, 252.0, 21.0 ],
					"numoutlets" : 0,
					"fontsize" : 10.533333,
					"fontname" : "Verdana",
					"id" : "obj-23"
				}

			}
, 			{
				"box" : 				{
					"maxclass" : "bpatcher",
					"varname" : "\/input%[1]",
					"name" : "jmod.input%.maxpat",
					"numinlets" : 1,
					"patching_rect" : [ 311.0, 2.0, 301.0, 71.0 ],
					"numoutlets" : 2,
					"outlettype" : [ "", "" ],
					"id" : "obj-24",
					"args" : [ "\/input%" ],
					"lockeddragscroll" : 1
				}

			}
, 			{
				"box" : 				{
					"maxclass" : "bpatcher",
					"varname" : "\/orsize%",
					"name" : "jmod.orsize%.mxt",
					"numinlets" : 2,
					"patching_rect" : [ 312.0, 76.0, 301.0, 71.0 ],
					"numoutlets" : 2,
					"outlettype" : [ "", "" ],
					"id" : "obj-25",
					"args" : [ "\/orsize%" ],
					"lockeddragscroll" : 1
				}

			}
, 			{
				"box" : 				{
					"maxclass" : "bpatcher",
					"varname" : "\/brcosa%",
					"name" : "jmod.brcosa%.maxpat",
					"numinlets" : 2,
					"patching_rect" : [ 312.0, 152.0, 301.0, 71.0 ],
					"numoutlets" : 2,
					"outlettype" : [ "", "" ],
					"id" : "obj-26",
					"args" : [ "\/brcosa%" ],
					"lockeddragscroll" : 1
				}

			}
, 			{
				"box" : 				{
					"maxclass" : "jit.pwindow",
					"numinlets" : 1,
					"depthbuffer" : 0,
					"patching_rect" : [ 674.0, 350.0, 320.0, 240.0 ],
					"numoutlets" : 2,
					"outlettype" : [ "", "" ],
					"id" : "obj-27"
				}

			}
, 			{
				"box" : 				{
					"maxclass" : "newobj",
					"text" : "p analysis-data",
					"numinlets" : 1,
					"patching_rect" : [ 312.0, 317.0, 79.0, 17.0 ],
					"numoutlets" : 0,
					"fontsize" : 9.0,
					"fontname" : "Verdana",
					"id" : "obj-28",
					"patcher" : 					{
						"rect" : [ 157.0, 44.0, 930.0, 374.0 ],
						"bgcolor" : [ 1.0, 1.0, 1.0, 1.0 ],
						"bglocked" : 0,
						"defrect" : [ 157.0, 44.0, 930.0, 374.0 ],
						"openinpresentation" : 0,
						"default_fontsize" : 10.0,
						"default_fontface" : 0,
						"default_fontname" : "Verdana",
						"gridonopen" : 0,
						"gridsize" : [ 15.0, 15.0 ],
						"gridsnaponopen" : 0,
						"toolbarvisible" : 1,
						"boxfadetime" : 200,
						"boxanimatetime" : 200,
						"scrollanimatetime" : 200,
						"metadata" : [  ],
						"boxes" : [ 							{
								"box" : 								{
									"maxclass" : "toggle",
									"numinlets" : 1,
									"patching_rect" : [ 27.0, 25.0, 15.0, 15.0 ],
									"numoutlets" : 1,
									"outlettype" : [ "int" ],
									"id" : "obj-1"
								}

							}
, 							{
								"box" : 								{
									"maxclass" : "newobj",
									"text" : "gate",
									"numinlets" : 2,
									"patching_rect" : [ 27.0, 49.0, 29.0, 17.0 ],
									"numoutlets" : 1,
									"fontsize" : 9.0,
									"fontname" : "Verdana",
									"outlettype" : [ "" ],
									"id" : "obj-2"
								}

							}
, 							{
								"box" : 								{
									"maxclass" : "comment",
									"text" : "Contraction width",
									"numinlets" : 1,
									"patching_rect" : [ 734.0, 146.0, 90.0, 17.0 ],
									"numoutlets" : 0,
									"fontsize" : 9.0,
									"fontname" : "Verdana",
									"id" : "obj-3"
								}

							}
, 							{
								"box" : 								{
									"maxclass" : "comment",
									"text" : "Contraction height",
									"numinlets" : 1,
									"patching_rect" : [ 559.0, 146.0, 95.0, 17.0 ],
									"numoutlets" : 0,
									"fontsize" : 9.0,
									"fontname" : "Verdana",
									"id" : "obj-4"
								}

							}
, 							{
								"box" : 								{
									"maxclass" : "multislider",
									"numinlets" : 1,
									"candicane6" : [ 0.733333, 0.035294, 0.788235, 1.0 ],
									"patching_rect" : [ 379.0, 204.0, 160.0, 87.0 ],
									"candicane3" : [ 0.290196, 0.411765, 0.713726, 1.0 ],
									"numoutlets" : 2,
									"candicane8" : [ 0.027451, 0.447059, 0.501961, 1.0 ],
									"peakcolor" : [ 0.498039, 0.498039, 0.498039, 1.0 ],
									"candicane5" : [ 0.584314, 0.827451, 0.431373, 1.0 ],
									"outlettype" : [ "", "" ],
									"id" : "obj-5",
									"setstyle" : 5,
									"candicane7" : [ 0.878431, 0.243137, 0.145098, 1.0 ],
									"candicane2" : [ 0.145098, 0.203922, 0.356863, 1.0 ],
									"candicane4" : [ 0.439216, 0.619608, 0.070588, 1.0 ],
									"setminmax" : [ 0.0, 1.0 ]
								}

							}
, 							{
								"box" : 								{
									"maxclass" : "multislider",
									"numinlets" : 1,
									"candicane6" : [ 0.733333, 0.035294, 0.788235, 1.0 ],
									"patching_rect" : [ 205.0, 204.0, 160.0, 87.0 ],
									"candicane3" : [ 0.290196, 0.411765, 0.713726, 1.0 ],
									"numoutlets" : 2,
									"candicane8" : [ 0.027451, 0.447059, 0.501961, 1.0 ],
									"peakcolor" : [ 0.498039, 0.498039, 0.498039, 1.0 ],
									"candicane5" : [ 0.584314, 0.827451, 0.431373, 1.0 ],
									"outlettype" : [ "", "" ],
									"id" : "obj-6",
									"setstyle" : 5,
									"candicane7" : [ 0.878431, 0.243137, 0.145098, 1.0 ],
									"candicane2" : [ 0.145098, 0.203922, 0.356863, 1.0 ],
									"candicane4" : [ 0.439216, 0.619608, 0.070588, 1.0 ],
									"setminmax" : [ 0.0, 1.0 ]
								}

							}
, 							{
								"box" : 								{
									"maxclass" : "multislider",
									"numinlets" : 1,
									"candicane6" : [ 0.733333, 0.035294, 0.788235, 1.0 ],
									"patching_rect" : [ 727.0, 204.0, 160.0, 87.0 ],
									"candicane3" : [ 0.290196, 0.411765, 0.713726, 1.0 ],
									"numoutlets" : 2,
									"candicane8" : [ 0.027451, 0.447059, 0.501961, 1.0 ],
									"peakcolor" : [ 0.498039, 0.498039, 0.498039, 1.0 ],
									"candicane5" : [ 0.584314, 0.827451, 0.431373, 1.0 ],
									"outlettype" : [ "", "" ],
									"id" : "obj-7",
									"setstyle" : 5,
									"candicane7" : [ 0.878431, 0.243137, 0.145098, 1.0 ],
									"candicane2" : [ 0.145098, 0.203922, 0.356863, 1.0 ],
									"candicane4" : [ 0.439216, 0.619608, 0.070588, 1.0 ],
									"setminmax" : [ 0.0, 1.0 ]
								}

							}
, 							{
								"box" : 								{
									"maxclass" : "multislider",
									"numinlets" : 1,
									"candicane6" : [ 0.733333, 0.035294, 0.788235, 1.0 ],
									"patching_rect" : [ 553.0, 204.0, 160.0, 87.0 ],
									"candicane3" : [ 0.290196, 0.411765, 0.713726, 1.0 ],
									"numoutlets" : 2,
									"candicane8" : [ 0.027451, 0.447059, 0.501961, 1.0 ],
									"peakcolor" : [ 0.498039, 0.498039, 0.498039, 1.0 ],
									"candicane5" : [ 0.584314, 0.827451, 0.431373, 1.0 ],
									"outlettype" : [ "", "" ],
									"id" : "obj-8",
									"setstyle" : 5,
									"candicane7" : [ 0.878431, 0.243137, 0.145098, 1.0 ],
									"candicane2" : [ 0.145098, 0.203922, 0.356863, 1.0 ],
									"candicane4" : [ 0.439216, 0.619608, 0.070588, 1.0 ],
									"setminmax" : [ 0.0, 1.0 ]
								}

							}
, 							{
								"box" : 								{
									"maxclass" : "flonum",
									"numinlets" : 1,
									"bgcolor" : [ 0.866667, 0.866667, 0.866667, 1.0 ],
									"htextcolor" : [ 0.870588, 0.870588, 0.870588, 1.0 ],
									"patching_rect" : [ 727.0, 129.0, 53.0, 17.0 ],
									"numoutlets" : 2,
									"fontsize" : 9.0,
									"fontname" : "Verdana",
									"triscale" : 0.9,
									"outlettype" : [ "float", "bang" ],
									"id" : "obj-9"
								}

							}
, 							{
								"box" : 								{
									"maxclass" : "flonum",
									"numinlets" : 1,
									"bgcolor" : [ 0.866667, 0.866667, 0.866667, 1.0 ],
									"htextcolor" : [ 0.870588, 0.870588, 0.870588, 1.0 ],
									"patching_rect" : [ 553.0, 129.0, 53.0, 17.0 ],
									"numoutlets" : 2,
									"fontsize" : 9.0,
									"fontname" : "Verdana",
									"triscale" : 0.9,
									"outlettype" : [ "float", "bang" ],
									"id" : "obj-10"
								}

							}
, 							{
								"box" : 								{
									"maxclass" : "newobj",
									"text" : "jcom.oscroute \/height \/width",
									"numinlets" : 1,
									"patching_rect" : [ 553.0, 98.0, 144.0, 17.0 ],
									"numoutlets" : 3,
									"fontsize" : 9.0,
									"fontname" : "Verdana",
									"outlettype" : [ "", "", "" ],
									"id" : "obj-11"
								}

							}
, 							{
								"box" : 								{
									"maxclass" : "message",
									"text" : "\/clear",
									"numinlets" : 2,
									"patching_rect" : [ 39.0, 163.0, 39.0, 15.0 ],
									"numoutlets" : 1,
									"fontsize" : 9.0,
									"fontname" : "Verdana",
									"outlettype" : [ "" ],
									"id" : "obj-12"
								}

							}
, 							{
								"box" : 								{
									"maxclass" : "comment",
									"text" : "Motion location - y",
									"numinlets" : 1,
									"patching_rect" : [ 384.0, 146.0, 95.0, 17.0 ],
									"numoutlets" : 0,
									"fontsize" : 9.0,
									"fontname" : "Verdana",
									"id" : "obj-13"
								}

							}
, 							{
								"box" : 								{
									"maxclass" : "comment",
									"text" : "Motion location - x",
									"numinlets" : 1,
									"patching_rect" : [ 214.0, 146.0, 95.0, 17.0 ],
									"numoutlets" : 0,
									"fontsize" : 9.0,
									"fontname" : "Verdana",
									"id" : "obj-14"
								}

							}
, 							{
								"box" : 								{
									"maxclass" : "comment",
									"text" : "Quantity of Motion (QoM)",
									"numinlets" : 1,
									"patching_rect" : [ 46.0, 146.0, 123.0, 17.0 ],
									"numoutlets" : 0,
									"fontsize" : 9.0,
									"fontname" : "Verdana",
									"id" : "obj-15"
								}

							}
, 							{
								"box" : 								{
									"maxclass" : "flonum",
									"numinlets" : 1,
									"bgcolor" : [ 0.866667, 0.866667, 0.866667, 1.0 ],
									"htextcolor" : [ 0.870588, 0.870588, 0.870588, 1.0 ],
									"patching_rect" : [ 379.0, 129.0, 53.0, 17.0 ],
									"numoutlets" : 2,
									"fontsize" : 9.0,
									"fontname" : "Verdana",
									"triscale" : 0.9,
									"outlettype" : [ "float", "bang" ],
									"id" : "obj-16"
								}

							}
, 							{
								"box" : 								{
									"maxclass" : "flonum",
									"numinlets" : 1,
									"bgcolor" : [ 0.866667, 0.866667, 0.866667, 1.0 ],
									"htextcolor" : [ 0.870588, 0.870588, 0.870588, 1.0 ],
									"patching_rect" : [ 205.0, 129.0, 53.0, 17.0 ],
									"numoutlets" : 2,
									"fontsize" : 9.0,
									"fontname" : "Verdana",
									"triscale" : 0.9,
									"outlettype" : [ "float", "bang" ],
									"id" : "obj-17"
								}

							}
, 							{
								"box" : 								{
									"maxclass" : "newobj",
									"text" : "jcom.autoscale @mode 3",
									"numinlets" : 1,
									"patching_rect" : [ 27.0, 183.0, 120.0, 17.0 ],
									"numoutlets" : 2,
									"fontsize" : 9.0,
									"fontname" : "Verdana",
									"outlettype" : [ "float", "" ],
									"id" : "obj-18"
								}

							}
, 							{
								"box" : 								{
									"maxclass" : "flonum",
									"numinlets" : 1,
									"bgcolor" : [ 0.866667, 0.866667, 0.866667, 1.0 ],
									"htextcolor" : [ 0.870588, 0.870588, 0.870588, 1.0 ],
									"patching_rect" : [ 44.0, 129.0, 53.0, 17.0 ],
									"numoutlets" : 2,
									"fontsize" : 9.0,
									"fontname" : "Verdana",
									"triscale" : 0.9,
									"outlettype" : [ "float", "bang" ],
									"id" : "obj-19"
								}

							}
, 							{
								"box" : 								{
									"maxclass" : "newobj",
									"text" : "jcom.oscroute \/quantity \/x \/y",
									"numinlets" : 1,
									"patching_rect" : [ 27.0, 98.0, 150.0, 17.0 ],
									"numoutlets" : 4,
									"fontsize" : 9.0,
									"fontname" : "Verdana",
									"outlettype" : [ "", "", "", "" ],
									"id" : "obj-20"
								}

							}
, 							{
								"box" : 								{
									"maxclass" : "multislider",
									"numinlets" : 1,
									"candicane6" : [ 0.733333, 0.035294, 0.788235, 1.0 ],
									"patching_rect" : [ 27.0, 204.0, 160.0, 87.0 ],
									"candicane3" : [ 0.290196, 0.411765, 0.713726, 1.0 ],
									"numoutlets" : 2,
									"candicane8" : [ 0.027451, 0.447059, 0.501961, 1.0 ],
									"peakcolor" : [ 0.498039, 0.498039, 0.498039, 1.0 ],
									"candicane5" : [ 0.584314, 0.827451, 0.431373, 1.0 ],
									"outlettype" : [ "", "" ],
									"id" : "obj-21",
									"setstyle" : 5,
									"candicane7" : [ 0.878431, 0.243137, 0.145098, 1.0 ],
									"candicane2" : [ 0.145098, 0.203922, 0.356863, 1.0 ],
									"candicane4" : [ 0.439216, 0.619608, 0.070588, 1.0 ],
									"setminmax" : [ 0.0, 1.0 ]
								}

							}
, 							{
								"box" : 								{
									"maxclass" : "newobj",
									"text" : "jcom.oscroute \/motion \/contraction",
									"numinlets" : 1,
									"patching_rect" : [ 27.0, 71.0, 173.0, 17.0 ],
									"numoutlets" : 3,
									"fontsize" : 9.0,
									"fontname" : "Verdana",
									"outlettype" : [ "", "", "" ],
									"id" : "obj-22"
								}

							}
, 							{
								"box" : 								{
									"maxclass" : "inlet",
									"numinlets" : 0,
									"patching_rect" : [ 46.0, 25.0, 15.0, 15.0 ],
									"numoutlets" : 1,
									"outlettype" : [ "" ],
									"id" : "obj-23",
									"comment" : ""
								}

							}
, 							{
								"box" : 								{
									"maxclass" : "comment",
									"text" : "For these to work, the relevant streams need to be turned on in the inspector.",
									"numinlets" : 1,
									"patching_rect" : [ 286.0, 58.0, 361.0, 17.0 ],
									"numoutlets" : 0,
									"fontsize" : 9.0,
									"fontname" : "Verdana",
									"id" : "obj-24"
								}

							}
 ],
						"lines" : [ 							{
								"patchline" : 								{
									"source" : [ "obj-1", 0 ],
									"destination" : [ "obj-2", 0 ],
									"hidden" : 0
								}

							}
, 							{
								"patchline" : 								{
									"source" : [ "obj-2", 0 ],
									"destination" : [ "obj-22", 0 ],
									"hidden" : 0
								}

							}
, 							{
								"patchline" : 								{
									"source" : [ "obj-22", 0 ],
									"destination" : [ "obj-20", 0 ],
									"hidden" : 0
								}

							}
, 							{
								"patchline" : 								{
									"source" : [ "obj-20", 0 ],
									"destination" : [ "obj-18", 0 ],
									"hidden" : 0
								}

							}
, 							{
								"patchline" : 								{
									"source" : [ "obj-12", 0 ],
									"destination" : [ "obj-18", 0 ],
									"hidden" : 0
								}

							}
, 							{
								"patchline" : 								{
									"source" : [ "obj-18", 0 ],
									"destination" : [ "obj-21", 0 ],
									"hidden" : 0
								}

							}
, 							{
								"patchline" : 								{
									"source" : [ "obj-20", 0 ],
									"destination" : [ "obj-19", 0 ],
									"hidden" : 0,
									"midpoints" : [ 36.5, 125.0, 53.5, 125.0 ]
								}

							}
, 							{
								"patchline" : 								{
									"source" : [ "obj-23", 0 ],
									"destination" : [ "obj-2", 1 ],
									"hidden" : 0
								}

							}
, 							{
								"patchline" : 								{
									"source" : [ "obj-20", 1 ],
									"destination" : [ "obj-17", 0 ],
									"hidden" : 0,
									"midpoints" : [ 80.166664, 122.0, 214.5, 122.0 ]
								}

							}
, 							{
								"patchline" : 								{
									"source" : [ "obj-17", 0 ],
									"destination" : [ "obj-6", 0 ],
									"hidden" : 0
								}

							}
, 							{
								"patchline" : 								{
									"source" : [ "obj-20", 2 ],
									"destination" : [ "obj-16", 0 ],
									"hidden" : 0,
									"midpoints" : [ 123.833336, 122.0, 388.5, 122.0 ]
								}

							}
, 							{
								"patchline" : 								{
									"source" : [ "obj-16", 0 ],
									"destination" : [ "obj-5", 0 ],
									"hidden" : 0
								}

							}
, 							{
								"patchline" : 								{
									"source" : [ "obj-22", 1 ],
									"destination" : [ "obj-11", 0 ],
									"hidden" : 0,
									"midpoints" : [ 113.5, 94.0, 562.5, 94.0 ]
								}

							}
, 							{
								"patchline" : 								{
									"source" : [ "obj-11", 0 ],
									"destination" : [ "obj-10", 0 ],
									"hidden" : 0
								}

							}
, 							{
								"patchline" : 								{
									"source" : [ "obj-10", 0 ],
									"destination" : [ "obj-8", 0 ],
									"hidden" : 0
								}

							}
, 							{
								"patchline" : 								{
									"source" : [ "obj-11", 1 ],
									"destination" : [ "obj-9", 0 ],
									"hidden" : 0,
									"midpoints" : [ 625.0, 122.0, 736.5, 122.0 ]
								}

							}
, 							{
								"patchline" : 								{
									"source" : [ "obj-9", 0 ],
									"destination" : [ "obj-7", 0 ],
									"hidden" : 0
								}

							}
 ]
					}
,
					"saved_object_attributes" : 					{
						"globalpatchername" : "",
						"fontsize" : 10.0,
						"default_fontsize" : 10.0,
						"default_fontface" : 0,
						"fontname" : "Verdana",
						"fontface" : 0,
						"default_fontname" : "Verdana"
					}

				}

			}
, 			{
				"box" : 				{
					"maxclass" : "newobj",
					"text" : "route 0.",
					"numinlets" : 1,
					"patching_rect" : [ 312.0, 614.0, 46.0, 17.0 ],
					"numoutlets" : 2,
					"hidden" : 1,
					"fontsize" : 9.0,
					"fontname" : "Verdana",
					"outlettype" : [ "", "" ],
					"id" : "obj-29"
				}

			}
, 			{
				"box" : 				{
					"maxclass" : "newobj",
					"text" : "route 0.",
					"numinlets" : 1,
					"patching_rect" : [ 605.0, 331.0, 46.0, 17.0 ],
					"numoutlets" : 2,
					"hidden" : 1,
					"fontsize" : 9.0,
					"fontname" : "Verdana",
					"outlettype" : [ "", "" ],
					"id" : "obj-30"
				}

			}
, 			{
				"box" : 				{
					"maxclass" : "multislider",
					"numinlets" : 1,
					"candicane6" : [ 0.733333, 0.035294, 0.788235, 1.0 ],
					"patching_rect" : [ 631.0, 351.0, 20.0, 240.0 ],
					"candicane3" : [ 0.290196, 0.411765, 0.713726, 1.0 ],
					"numoutlets" : 2,
					"candicane8" : [ 0.027451, 0.447059, 0.501961, 1.0 ],
					"peakcolor" : [ 0.498039, 0.498039, 0.498039, 1.0 ],
					"candicane5" : [ 0.584314, 0.827451, 0.431373, 1.0 ],
					"outlettype" : [ "", "" ],
					"id" : "obj-31",
					"candicane7" : [ 0.878431, 0.243137, 0.145098, 1.0 ],
					"candicane2" : [ 0.145098, 0.203922, 0.356863, 1.0 ],
					"candicane4" : [ 0.439216, 0.619608, 0.070588, 1.0 ],
					"setminmax" : [ 0.0, 1.0 ]
				}

			}
, 			{
				"box" : 				{
					"maxclass" : "multislider",
					"numinlets" : 1,
					"candicane6" : [ 0.733333, 0.035294, 0.788235, 1.0 ],
					"patching_rect" : [ 312.0, 591.0, 320.0, 20.0 ],
					"candicane3" : [ 0.290196, 0.411765, 0.713726, 1.0 ],
					"numoutlets" : 2,
					"candicane8" : [ 0.027451, 0.447059, 0.501961, 1.0 ],
					"peakcolor" : [ 0.498039, 0.498039, 0.498039, 1.0 ],
					"candicane5" : [ 0.584314, 0.827451, 0.431373, 1.0 ],
					"outlettype" : [ "", "" ],
					"orientation" : 0,
					"id" : "obj-32",
					"candicane7" : [ 0.878431, 0.243137, 0.145098, 1.0 ],
					"candicane2" : [ 0.145098, 0.203922, 0.356863, 1.0 ],
					"candicane4" : [ 0.439216, 0.619608, 0.070588, 1.0 ],
					"setminmax" : [ 0.0, 1.0 ]
				}

			}
, 			{
				"box" : 				{
					"maxclass" : "toggle",
					"numinlets" : 1,
					"patching_rect" : [ 88.0, 385.0, 15.0, 15.0 ],
					"numoutlets" : 1,
					"outlettype" : [ "int" ],
					"id" : "obj-33"
				}

			}
, 			{
				"box" : 				{
					"maxclass" : "message",
					"text" : "\/color $1",
					"numinlets" : 2,
					"patching_rect" : [ 106.0, 385.0, 54.0, 15.0 ],
					"numoutlets" : 1,
					"fontsize" : 9.0,
					"fontname" : "Verdana",
					"outlettype" : [ "" ],
					"id" : "obj-34"
				}

			}
, 			{
				"box" : 				{
					"maxclass" : "umenu",
					"numinlets" : 1,
					"patching_rect" : [ 48.0, 315.0, 55.0, 17.0 ],
					"types" : [  ],
					"numoutlets" : 3,
					"pattrmode" : 1,
					"fontsize" : 9.0,
					"fontname" : "Verdana",
					"outlettype" : [ "int", "", "" ],
					"id" : "obj-35",
					"items" : [ "none", ",", "Sobel", ",", "Prewitt", ",", "Robcross", ",", "Binedge" ]
				}

			}
, 			{
				"box" : 				{
					"maxclass" : "toggle",
					"numinlets" : 1,
					"patching_rect" : [ 88.0, 367.0, 15.0, 15.0 ],
					"numoutlets" : 1,
					"outlettype" : [ "int" ],
					"id" : "obj-36"
				}

			}
, 			{
				"box" : 				{
					"maxclass" : "message",
					"text" : "\/trails $1",
					"numinlets" : 2,
					"patching_rect" : [ 106.0, 367.0, 56.0, 15.0 ],
					"numoutlets" : 1,
					"fontsize" : 9.0,
					"fontname" : "Verdana",
					"outlettype" : [ "" ],
					"id" : "obj-37"
				}

			}
, 			{
				"box" : 				{
					"maxclass" : "flonum",
					"numinlets" : 1,
					"bgcolor" : [ 0.866667, 0.866667, 0.866667, 1.0 ],
					"htextcolor" : [ 0.870588, 0.870588, 0.870588, 1.0 ],
					"patching_rect" : [ 68.0, 333.0, 35.0, 17.0 ],
					"numoutlets" : 2,
					"fontsize" : 9.0,
					"fontname" : "Verdana",
					"triscale" : 0.9,
					"outlettype" : [ "float", "bang" ],
					"id" : "obj-38"
				}

			}
, 			{
				"box" : 				{
					"maxclass" : "message",
					"text" : "\/edge_thresh $1",
					"numinlets" : 2,
					"patching_rect" : [ 106.0, 333.0, 86.0, 15.0 ],
					"numoutlets" : 1,
					"fontsize" : 9.0,
					"fontname" : "Verdana",
					"outlettype" : [ "" ],
					"id" : "obj-39"
				}

			}
, 			{
				"box" : 				{
					"maxclass" : "message",
					"text" : "\/algorithm $1",
					"numinlets" : 2,
					"patching_rect" : [ 106.0, 315.0, 74.0, 15.0 ],
					"numoutlets" : 1,
					"fontsize" : 9.0,
					"fontname" : "Verdana",
					"outlettype" : [ "" ],
					"id" : "obj-40"
				}

			}
, 			{
				"box" : 				{
					"maxclass" : "comment",
					"text" : "Module Controls",
					"numinlets" : 1,
					"patching_rect" : [ 15.0, 228.0, 206.0, 28.0 ],
					"numoutlets" : 0,
					"fontsize" : 15.799999,
					"fontname" : "Verdana",
					"id" : "obj-41"
				}

			}
, 			{
				"box" : 				{
					"maxclass" : "comment",
					"text" : "Specific module messages",
					"numinlets" : 1,
					"patching_rect" : [ 15.0, 258.0, 252.0, 21.0 ],
					"numoutlets" : 0,
					"fontsize" : 10.533333,
					"fontname" : "Verdana",
					"id" : "obj-42"
				}

			}
, 			{
				"box" : 				{
					"maxclass" : "toggle",
					"numinlets" : 1,
					"patching_rect" : [ 88.0, 350.0, 15.0, 15.0 ],
					"numoutlets" : 1,
					"outlettype" : [ "int" ],
					"id" : "obj-43"
				}

			}
, 			{
				"box" : 				{
					"maxclass" : "flonum",
					"numinlets" : 1,
					"bgcolor" : [ 0.866667, 0.866667, 0.866667, 1.0 ],
					"htextcolor" : [ 0.870588, 0.870588, 0.870588, 1.0 ],
					"patching_rect" : [ 68.0, 298.0, 35.0, 17.0 ],
					"numoutlets" : 2,
					"fontsize" : 9.0,
					"fontname" : "Verdana",
					"triscale" : 0.9,
					"outlettype" : [ "float", "bang" ],
					"id" : "obj-44"
				}

			}
, 			{
				"box" : 				{
					"maxclass" : "message",
					"text" : "\/slide $1",
					"numinlets" : 2,
					"patching_rect" : [ 106.0, 298.0, 52.0, 15.0 ],
					"numoutlets" : 1,
					"fontsize" : 9.0,
					"fontname" : "Verdana",
					"outlettype" : [ "" ],
					"id" : "obj-45"
				}

			}
, 			{
				"box" : 				{
					"maxclass" : "flonum",
					"numinlets" : 1,
					"bgcolor" : [ 0.866667, 0.866667, 0.866667, 1.0 ],
					"htextcolor" : [ 0.870588, 0.870588, 0.870588, 1.0 ],
					"patching_rect" : [ 68.0, 281.0, 35.0, 17.0 ],
					"numoutlets" : 2,
					"fontsize" : 9.0,
					"fontname" : "Verdana",
					"triscale" : 0.9,
					"outlettype" : [ "float", "bang" ],
					"id" : "obj-46"
				}

			}
, 			{
				"box" : 				{
					"maxclass" : "message",
					"text" : "\/threshold $1",
					"numinlets" : 2,
					"patching_rect" : [ 106.0, 281.0, 73.0, 15.0 ],
					"numoutlets" : 1,
					"fontsize" : 9.0,
					"fontname" : "Verdana",
					"outlettype" : [ "" ],
					"id" : "obj-47"
				}

			}
, 			{
				"box" : 				{
					"maxclass" : "message",
					"text" : "\/noise $1",
					"numinlets" : 2,
					"patching_rect" : [ 106.0, 350.0, 54.0, 15.0 ],
					"numoutlets" : 1,
					"fontsize" : 9.0,
					"fontname" : "Verdana",
					"outlettype" : [ "" ],
					"id" : "obj-48"
				}

			}
, 			{
				"box" : 				{
					"maxclass" : "newobj",
					"text" : "s jmod.motion%.cmd",
					"numinlets" : 1,
					"patching_rect" : [ 106.0, 404.0, 103.0, 17.0 ],
					"numoutlets" : 0,
					"hidden" : 1,
					"fontsize" : 9.0,
					"fontname" : "Verdana",
					"id" : "obj-49"
				}

			}
, 			{
				"box" : 				{
					"maxclass" : "newobj",
					"text" : "r jmod.motion%.cmd",
					"numinlets" : 0,
					"patching_rect" : [ 312.0, 227.0, 103.0, 17.0 ],
					"numoutlets" : 1,
					"fontsize" : 9.0,
					"fontname" : "Verdana",
					"outlettype" : [ "" ],
					"id" : "obj-50"
				}

			}
, 			{
				"box" : 				{
					"maxclass" : "newobj",
					"text" : "s jmod.motion%.cmd",
					"numinlets" : 1,
					"patching_rect" : [ 12.0, 225.0, 103.0, 17.0 ],
					"numoutlets" : 0,
					"hidden" : 1,
					"fontsize" : 9.0,
					"fontname" : "Verdana",
					"id" : "obj-51"
				}

			}
, 			{
				"box" : 				{
					"maxclass" : "bpatcher",
					"name" : "jmod.video_params.maxpat",
					"numinlets" : 0,
					"patching_rect" : [ 12.0, 77.0, 260.0, 146.0 ],
					"numoutlets" : 1,
					"outlettype" : [ "" ],
					"id" : "obj-52",
					"args" : [  ],
					"lockeddragscroll" : 1
				}

			}
, 			{
				"box" : 				{
					"maxclass" : "comment",
					"text" : "jmod.motion%",
					"numinlets" : 1,
					"patching_rect" : [ 28.0, 16.0, 189.0, 28.0 ],
					"numoutlets" : 0,
					"fontsize" : 15.799999,
					"fontname" : "Verdana",
					"frgb" : [ 1.0, 1.0, 1.0, 1.0 ],
					"id" : "obj-53",
					"textcolor" : [ 1.0, 1.0, 1.0, 1.0 ]
				}

			}
, 			{
				"box" : 				{
					"maxclass" : "comment",
					"text" : "change orientation and size of video",
					"numinlets" : 1,
					"patching_rect" : [ 29.0, 42.0, 242.0, 17.0 ],
					"numoutlets" : 0,
					"fontsize" : 9.0,
					"fontname" : "Verdana",
					"frgb" : [ 1.0, 1.0, 1.0, 1.0 ],
					"id" : "obj-54",
					"textcolor" : [ 1.0, 1.0, 1.0, 1.0 ]
				}

			}
, 			{
				"box" : 				{
					"maxclass" : "panel",
					"numinlets" : 1,
					"bgcolor" : [ 0.262745, 0.254902, 0.419608, 1.0 ],
					"patching_rect" : [ 0.0, 0.0, 273.0, 63.0 ],
					"rounded" : 0,
					"numoutlets" : 0,
					"bordercolor" : [ 0.501961, 0.043137, 0.039216, 1.0 ],
					"id" : "obj-55"
				}

			}
, 			{
				"box" : 				{
					"maxclass" : "jit.pwindow",
					"numinlets" : 1,
					"depthbuffer" : 0,
					"patching_rect" : [ 311.0, 350.0, 320.0, 240.0 ],
					"numoutlets" : 2,
					"outlettype" : [ "", "" ],
					"id" : "obj-56"
				}

			}
, 			{
				"box" : 				{
					"maxclass" : "bpatcher",
					"varname" : "\/motion%",
					"name" : "jmod.motion%.maxpat",
					"numinlets" : 2,
					"patching_rect" : [ 312.0, 246.0, 301.0, 71.0 ],
					"numoutlets" : 2,
					"outlettype" : [ "", "" ],
					"id" : "obj-57",
					"args" : [ "\/motion%" ],
					"lockeddragscroll" : 1
				}

			}
, 			{
				"box" : 				{
					"maxclass" : "panel",
					"background" : 1,
					"numinlets" : 1,
					"bgcolor" : [ 0.901961, 0.839216, 0.564706, 1.0 ],
					"patching_rect" : [ 12.0, 227.0, 260.0, 27.0 ],
					"rounded" : 0,
					"numoutlets" : 0,
					"id" : "obj-58"
				}

			}
, 			{
				"box" : 				{
					"maxclass" : "panel",
					"background" : 1,
					"numinlets" : 1,
					"bgcolor" : [ 0.996078, 0.945098, 0.705882, 1.0 ],
					"patching_rect" : [ 12.0, 258.0, 260.0, 148.0 ],
					"rounded" : 0,
					"numoutlets" : 0,
					"id" : "obj-59"
				}

			}
, 			{
				"box" : 				{
					"maxclass" : "newobj",
					"text" : "jcom.oscroute \/motion\/x \/motion\/y",
					"numinlets" : 1,
					"patching_rect" : [ 395.0, 320.0, 176.0, 17.0 ],
					"numoutlets" : 3,
					"hidden" : 1,
					"fontsize" : 9.0,
					"fontname" : "Verdana",
					"outlettype" : [ "", "", "" ],
					"id" : "obj-60"
				}

			}
, 			{
				"box" : 				{
					"maxclass" : "comment",
					"text" : "Usually, better results are obtained if the video is pre-processed before the motion image is calculated. Try for example: \r\r- Zoom and offset the video so that only the area of interest is visible (even better to do this by optimizing the position of the camera, but this is not always possible).\r\r- Turn up the brightness and contrast, and turn down the saturation (the success of this is highly dependant on the camera used). ",
					"linecount" : 9,
					"numinlets" : 1,
					"patching_rect" : [ 676.0, 106.0, 314.0, 101.0 ],
					"numoutlets" : 0,
					"fontsize" : 9.0,
					"fontname" : "Verdana",
					"id" : "obj-61"
				}

			}
, 			{
				"box" : 				{
					"maxclass" : "panel",
					"background" : 1,
					"numinlets" : 1,
					"bgcolor" : [ 0.996078, 0.945098, 0.705882, 1.0 ],
					"patching_rect" : [ 12.0, 447.0, 260.0, 191.0 ],
					"rounded" : 0,
					"numoutlets" : 0,
					"id" : "obj-62"
				}

			}
, 			{
				"box" : 				{
					"maxclass" : "panel",
					"background" : 1,
					"numinlets" : 1,
					"bgcolor" : [ 0.901961, 0.839216, 0.564706, 1.0 ],
					"patching_rect" : [ 12.0, 416.0, 261.0, 27.0 ],
					"rounded" : 0,
					"numoutlets" : 0,
					"id" : "obj-63"
				}

			}
 ],
		"lines" : [ 			{
				"patchline" : 				{
					"source" : [ "obj-52", 0 ],
					"destination" : [ "obj-51", 0 ],
					"hidden" : 1
				}

			}
, 			{
				"patchline" : 				{
					"source" : [ "obj-10", 0 ],
					"destination" : [ "obj-13", 0 ],
					"hidden" : 0
				}

			}
, 			{
				"patchline" : 				{
					"source" : [ "obj-20", 0 ],
					"destination" : [ "obj-21", 0 ],
					"hidden" : 1
				}

			}
, 			{
				"patchline" : 				{
					"source" : [ "obj-18", 0 ],
					"destination" : [ "obj-19", 0 ],
					"hidden" : 1
				}

			}
, 			{
				"patchline" : 				{
					"source" : [ "obj-5", 0 ],
					"destination" : [ "obj-11", 0 ],
					"hidden" : 1
				}

			}
, 			{
				"patchline" : 				{
					"source" : [ "obj-16", 0 ],
					"destination" : [ "obj-17", 0 ],
					"hidden" : 1
				}

			}
, 			{
				"patchline" : 				{
					"source" : [ "obj-14", 0 ],
					"destination" : [ "obj-15", 0 ],
					"hidden" : 1
				}

			}
, 			{
				"patchline" : 				{
					"source" : [ "obj-3", 0 ],
					"destination" : [ "obj-4", 0 ],
					"hidden" : 1
				}

			}
, 			{
				"patchline" : 				{
					"source" : [ "obj-21", 0 ],
					"destination" : [ "obj-22", 0 ],
					"hidden" : 1
				}

			}
, 			{
				"patchline" : 				{
					"source" : [ "obj-19", 0 ],
					"destination" : [ "obj-22", 0 ],
					"hidden" : 1
				}

			}
, 			{
				"patchline" : 				{
					"source" : [ "obj-17", 0 ],
					"destination" : [ "obj-22", 0 ],
					"hidden" : 1
				}

			}
, 			{
				"patchline" : 				{
					"source" : [ "obj-15", 0 ],
					"destination" : [ "obj-22", 0 ],
					"hidden" : 1
				}

			}
, 			{
				"patchline" : 				{
					"source" : [ "obj-13", 0 ],
					"destination" : [ "obj-22", 0 ],
					"hidden" : 1
				}

			}
, 			{
				"patchline" : 				{
					"source" : [ "obj-9", 0 ],
					"destination" : [ "obj-22", 0 ],
					"hidden" : 1
				}

			}
, 			{
				"patchline" : 				{
					"source" : [ "obj-7", 0 ],
					"destination" : [ "obj-22", 0 ],
					"hidden" : 1
				}

			}
, 			{
				"patchline" : 				{
					"source" : [ "obj-12", 0 ],
					"destination" : [ "obj-22", 0 ],
					"hidden" : 1
				}

			}
, 			{
				"patchline" : 				{
					"source" : [ "obj-11", 0 ],
					"destination" : [ "obj-22", 0 ],
					"hidden" : 1
				}

			}
, 			{
				"patchline" : 				{
					"source" : [ "obj-46", 0 ],
					"destination" : [ "obj-47", 0 ],
					"hidden" : 1
				}

			}
, 			{
				"patchline" : 				{
					"source" : [ "obj-44", 0 ],
					"destination" : [ "obj-45", 0 ],
					"hidden" : 1
				}

			}
, 			{
				"patchline" : 				{
					"source" : [ "obj-35", 0 ],
					"destination" : [ "obj-40", 0 ],
					"hidden" : 1
				}

			}
, 			{
				"patchline" : 				{
					"source" : [ "obj-38", 0 ],
					"destination" : [ "obj-39", 0 ],
					"hidden" : 1
				}

			}
, 			{
				"patchline" : 				{
					"source" : [ "obj-43", 0 ],
					"destination" : [ "obj-48", 0 ],
					"hidden" : 1
				}

			}
, 			{
				"patchline" : 				{
					"source" : [ "obj-36", 0 ],
					"destination" : [ "obj-37", 0 ],
					"hidden" : 1
				}

			}
, 			{
				"patchline" : 				{
					"source" : [ "obj-33", 0 ],
					"destination" : [ "obj-34", 0 ],
					"hidden" : 1
				}

			}
, 			{
				"patchline" : 				{
					"source" : [ "obj-37", 0 ],
					"destination" : [ "obj-49", 0 ],
					"hidden" : 1
				}

			}
, 			{
				"patchline" : 				{
					"source" : [ "obj-40", 0 ],
					"destination" : [ "obj-49", 0 ],
					"hidden" : 1
				}

			}
, 			{
				"patchline" : 				{
					"source" : [ "obj-39", 0 ],
					"destination" : [ "obj-49", 0 ],
					"hidden" : 1
				}

			}
, 			{
				"patchline" : 				{
					"source" : [ "obj-48", 0 ],
					"destination" : [ "obj-49", 0 ],
					"hidden" : 1
				}

			}
, 			{
				"patchline" : 				{
					"source" : [ "obj-45", 0 ],
					"destination" : [ "obj-49", 0 ],
					"hidden" : 1
				}

			}
, 			{
				"patchline" : 				{
					"source" : [ "obj-47", 0 ],
					"destination" : [ "obj-49", 0 ],
					"hidden" : 1
				}

			}
, 			{
				"patchline" : 				{
					"source" : [ "obj-34", 0 ],
					"destination" : [ "obj-49", 0 ],
					"hidden" : 1
				}

			}
, 			{
				"patchline" : 				{
					"source" : [ "obj-8", 0 ],
					"destination" : [ "obj-9", 0 ],
					"hidden" : 0
				}

			}
, 			{
				"patchline" : 				{
					"source" : [ "obj-50", 0 ],
					"destination" : [ "obj-57", 0 ],
					"hidden" : 0
				}

			}
, 			{
				"patchline" : 				{
					"source" : [ "obj-57", 0 ],
					"destination" : [ "obj-28", 0 ],
					"hidden" : 0,
					"midpoints" : [ 321.5, 314.0, 321.5, 314.0 ]
				}

			}
, 			{
				"patchline" : 				{
					"source" : [ "obj-57", 1 ],
					"destination" : [ "obj-56", 0 ],
					"hidden" : 0,
					"midpoints" : [ 603.5, 341.0, 320.5, 341.0 ]
				}

			}
, 			{
				"patchline" : 				{
					"source" : [ "obj-29", 1 ],
					"destination" : [ "obj-32", 0 ],
					"hidden" : 1
				}

			}
, 			{
				"patchline" : 				{
					"source" : [ "obj-60", 0 ],
					"destination" : [ "obj-29", 0 ],
					"hidden" : 1
				}

			}
, 			{
				"patchline" : 				{
					"source" : [ "obj-6", 0 ],
					"destination" : [ "obj-7", 0 ],
					"hidden" : 0
				}

			}
, 			{
				"patchline" : 				{
					"source" : [ "obj-57", 0 ],
					"destination" : [ "obj-60", 0 ],
					"hidden" : 1,
					"midpoints" : [ 321.5, 319.0, 404.5, 319.0 ]
				}

			}
, 			{
				"patchline" : 				{
					"source" : [ "obj-24", 1 ],
					"destination" : [ "obj-25", 1 ],
					"hidden" : 1
				}

			}
, 			{
				"patchline" : 				{
					"source" : [ "obj-25", 1 ],
					"destination" : [ "obj-26", 1 ],
					"hidden" : 1
				}

			}
, 			{
				"patchline" : 				{
					"source" : [ "obj-26", 1 ],
					"destination" : [ "obj-57", 1 ],
					"hidden" : 0
				}

			}
, 			{
				"patchline" : 				{
					"source" : [ "obj-60", 1 ],
					"destination" : [ "obj-30", 0 ],
					"hidden" : 1
				}

			}
, 			{
				"patchline" : 				{
					"source" : [ "obj-30", 1 ],
					"destination" : [ "obj-31", 0 ],
					"hidden" : 1
				}

			}
, 			{
				"patchline" : 				{
					"source" : [ "obj-26", 1 ],
					"destination" : [ "obj-27", 0 ],
					"hidden" : 0,
					"midpoints" : [ 603.5, 226.0, 683.5, 226.0 ]
				}

			}
 ]
	}

}
