max v2;#N vpatcher 158 81 1400 799;#P origin 34 -18;#N comlet OSC messages;#P outlet 20 632 15 0;#P window setfont "Sans Serif" 9.;#P message 779 120 37 196617 \$1 \$4;#P newex 80 86 417 196617 jcom.multi.out~.mxt;#P objectname multiout;#P newex 80 602 417 196617 jcom.multi.in~.mxt;#P objectname multiin;#P newex 779 83 98 196617 jcom.oscroute /aed;#P newex 779 163 222 196617 route 1 2 3 4 5 6 7 8 9 10 11 12 13 14 15 16;#P objectname route;#P newex 969 540 86 196617 prepend dspstate;#N comlet OSC messages;#P inlet 20 49 15 0;#P newex 969 515 54 196617 dspstate~;#P newex 867 109 93 196617 jcom.pass /voices;#N comlet multicable;#P outlet 80 632 15 0;#P objectname out[1];#N comlet multicable;#P inlet 80 49 15 0;#P objectname in[1];#N thispatcher;#Q end;#P newobj 867 612 61 196617 thispatcher;#P newex 867 587 112 196617 js spat.jcom.sur.air.js;#P objectname javascript;#P connect 2 0 11 0;#P connect 10 0 3 0;#P fasten 6 0 9 0 25 76 784 76;#P connect 9 0 12 0;#P connect 12 0 8 0;#P connect 9 1 4 0;#P connect 4 0 0 0;#P fasten 7 0 0 0 974 577 872 577;#P connect 0 0 1 0;#P connect 5 0 7 0;#P pop;