max v2;#N vpatcher 303 103 1025 570;#N comlet OSC messages;#P outlet 25 331 15 0;#N comlet OSC messages;#P inlet 25 31 15 0;#P window setfont "Sans Serif" 9.;#P window linecount 1;#P newex 133 52 417 196617 jcom.multi.out~.mxt;#N comlet signal right;#P outlet 183 331 15 0;#N comlet signal left;#P outlet 133 331 15 0;#P newex 183 298 27 196617 +~;#P newex 133 298 27 196617 +~;#N comlet multicable;#P inlet 133 31 15 0;#P newex 25 76 84 196617 jcom.pass /head;#N vpatcher 95 151 839 735;#P window setfont "Sans Serif" 9.;#P window linecount 0;#P newex 137 285 88 196617 r Spat@2t-Reload;#P newex 322 211 27 196617 t b i;#P newex 290 211 27 196617 t b i;#P message 322 194 14 196617 2;#P message 290 194 14 196617 1;#P newex 290 336 35 196617 gate 2;#P newex 201 336 35 196617 gate 2;#N coll Spat@2tb-Coll 1;#P newobj 226 359 105 196617 coll Spat@2tb-Coll -1;#N coll Spat@2tb-Coll 1;#P newobj 432 359 105 196617 coll Spat@2tb-Coll -1;#P newex 432 285 65 196617 prepend read;#P window linecount 2;#P newex 444 304 73 196617 print Decoder~(2tb);#P window setfont "Sans Serif" 12.;#P window linecount 1;#N vpatcher 468 93 1148 720;#P origin -128 0;#P window setfont "Sans Serif" 9.;#P newex 335 210 50 196617 print ---;#P newex 22 464 88 196617 s Spat@2t-Reload;#P newex 22 445 35 196617 del 10;#P newex 56 390 112 196617 sprintf 2tb-%s-%i.coll;#P newex 39 409 112 196617 sprintf 2bt-%s-%i.coll;#P newex 359 118 91 196617 v Spat@2b-Status;#P message 222 220 23 196617 0 0;#P newex 73 371 90 196617 v Spat@2t-Status;#P newex 183 101 61 196617 pack s i;#P newex 183 82 50 196617 unpack s i;#P newex 183 44 61 196617 t b i;#P newex 183 63 115 196617 v Spat@2t-Status;#P newex 62 63 50 196617 t s b;#P newex 102 82 61 196617 adstatus sr;#P newex 182 23 61 196617 adstatus sr;#P newex 142 296 50 196617 == 0;#P newex 22 333 50 196617 gate;#P newex 62 182 91 196617 t s s b;#P newex 142 201 90 196617 t b b b;#P newex 142 258 50 196617 zl reg;#P newex 383 82 85 196617 i;#P newex 182 237 89 196617 v Spat@2t-Status;#P newex 311 160 34 196617 zl reg;#P newex 407 63 61 196617 adstatus sr;#P newex 311 44 109 196617 t b b b b b;#P message 383 101 55 196617 KEMAR \$1;#P newex 311 23 50 196617 loadbang;#P newex 102 277 50 196617 zl sub;#P newex 62 44 50 196617 tosymbol;#P newex 62 101 101 196617 pack s 0;#P newex 335 137 92 196617 v Spat@2t-Status;#P outlet 56 428 15 0;#P outlet 39 428 15 0;#P inlet 62 23 15 0;#P newex 22 352 62 196617 t b s s s;#P connect 19 0 18 0;#P connect 18 0 0 0;#P connect 0 0 32 0;#P connect 32 0 33 0;#P connect 0 1 30 0;#P connect 30 0 2 0;#P connect 0 2 31 0;#P connect 31 0 3 0;#P connect 1 0 6 0;#P connect 6 0 22 0;#P connect 22 0 5 0;#P fasten 12 0 17 0 316 180 67 180;#P connect 5 0 17 0;#P fasten 26 0 17 0 188 178 67 178;#P connect 17 0 18 1;#P connect 0 3 27 0;#P connect 22 1 21 0;#P connect 17 1 7 0;#P connect 17 2 16 0;#P connect 16 0 15 0;#P connect 15 0 7 1;#P connect 7 1 19 0;#P connect 21 1 5 1;#P connect 16 1 13 0;#P fasten 28 0 15 1 227 256 187 256;#P connect 13 0 15 1;#P connect 20 1 24 0;#P connect 24 0 23 0;#P connect 23 0 25 0;#P connect 25 0 26 0;#P connect 16 2 28 0;#P connect 24 1 26 1;#P connect 8 0 10 0;#P connect 10 0 12 0;#P connect 10 1 4 0;#P fasten 9 0 12 1 388 158 340 158;#P fasten 29 0 12 1 364 156 340 156;#P connect 4 0 12 1;#P connect 12 0 34 0;#P connect 10 2 29 0;#P connect 10 3 14 0;#P connect 14 0 9 0;#P connect 10 4 11 0;#P connect 11 1 14 1;#P pop;#P newobj 350 260 92 196620 p filenames;#B color 14;#P window setfont "Sans Serif" 9.;#P newex 127 497 69 196617 *~ 1.414214;#P newex 95 478 69 196617 *~ 1.414214;#P newex 226 285 27 196617 i;#P newex 350 399 49 196617 zl slice 1;#P newex 201 399 49 196617 zl slice 1;#P newex 180 174 45 196617 loadbang;#P comment 280 136 70 196617 = bin -> trans;#P comment 280 149 70 196617 = trans -> bin;#P window setfont "Lucida Grande" 9.;#P newex 127 457 27 67108873 -~;#P newex 95 457 26 67108873 +~;#P window setfont "Sans Serif" 10.;#P comment 121 540 32 196618 right;#P outlet 127 517 15 0;#P comment 93 540 26 196618 left;#P outlet 95 518 15 0;#P comment 64 424 30 196618 SUM;#P comment 179 423 31 196618 DIFF;#P window setfont "Lucida Grande" 9.;#P newex 95 174 26 67108873 +~;#P newex 144 174 27 67108873 -~;#P newex 95 422 34 67108873 iir12~;#P newex 144 422 34 67108873 iir12~;#P inlet 161 141 15 0;#P inlet 95 141 15 0;#P window setfont "Sans Serif" 10.;#P window linecount 2;#P comment 117 136 39 196618 source signal;#P window setfont "Sans Serif" 9.;#P window linecount 1;#N vpatcher -852 -536 -752 -436;#P hidden outlet 4 75 15 0;#P hidden inlet 4 25 15 0;#P window setfont "Lucida Grande" 9.;#P hidden message 4 43 156 67108873 \$1 0. 0. 0. 0. 0. 0. 0. 0. 0. 0. 0. 0. 0. 0. 0. 0. 0. 0. 0. 0. 0. 0. 0. 0.;#P hidden connect 1 0 0 0;#P hidden connect 0 0 2 0;#P pop;#P newobj 372 214 65 196617 p bypass_off;#P message 386 194 17 196617 0.;#P message 354 194 23 196617 0.5;#P comment 245 136 38 196617 'trans';#P comment 245 149 27 196617 'bin';#P newex 226 174 237 196617 route bang corners trans bin bypass off head;#N vpatcher -852 -536 -752 -436;#P window setfont "Sans Serif" 10.;#P hidden comment 77 22 46 196618 corners;#P window setfont "Sans Serif" 9.;#P hidden message 63 269 20 196617 30;#P hidden newex 8 57 28 196617 t b b;#P hidden inlet 89 39 15 0;#P hidden newex 209 250 74 196617 s $0-gate;#P hidden message 168 268 116 196617 warning: bin <-> trans converter assumes symmetric loudspeaker angles from 10 to 170;#P hidden newex 168 323 35 196617 print;#P window setfont "Sans Serif" 10.;#P hidden comment 19 326 46 196618 corners;#P window setfont "Sans Serif" 9.;#P hidden newex 33 268 28 196617 30;#P hidden outlet 33 310 15 0;#P hidden newex 33 160 76 196617 t b i i;#P hidden newex 158 202 35 196617 sel 0;#P hidden newex 89 76 99 196617 unpack 30 -30;#P hidden newex 33 139 61 196617 clip 10 170;#P hidden newex 85 268 50 196617 pack 0 0;#P hidden newex 183 226 36 196617 t b b;#P hidden newex 85 247 24 196617 0;#P hidden inlet 8 39 15 0;#P window setfont "Sans Serif" 10.;#P hidden comment 3 22 30 196618 bang;#P window setfont "Sans Serif" 9.;#P hidden newex 89 57 52 196617 route list;#P hidden newex 38 76 50 196617 mod 360;#P hidden message 135 117 18 196617 0;#P hidden newex 116 139 30 196617 gate;#P hidden newex 158 160 30 196617 + 0;#P hidden newex 158 181 55 196617 mod 360;#P hidden newex 154 116 74 196617 r $0-gate;#P hidden newex 66 181 34 196617 - 0;#P hidden newex 125 219 28 196617 * -1;#P hidden message 116 117 18 196617 1;#P hidden newex 38 96 89 196617 t i i i b;#P hidden connect 12 0 27 0;#P hidden fasten 0 1 16 0 69 137 38 137;#P hidden connect 16 0 19 0;#P hidden connect 19 0 21 0;#P hidden fasten 27 0 21 0 13 266 38 266;#P lcolor 8;#P hidden connect 21 0 20 0;#P hidden connect 17 0 9 0;#P hidden connect 9 0 0 0;#P hidden fasten 19 1 21 1 71 179 56 179;#P hidden connect 28 0 21 1;#P lcolor 8;#P hidden fasten 27 1 28 0 31 264 68 264;#P lcolor 8;#P hidden connect 19 1 3 0;#P hidden fasten 14 0 13 0 188 245 90 245;#P hidden connect 13 0 15 0;#P hidden connect 26 0 10 0;#P hidden connect 10 0 17 0;#P hidden connect 0 2 3 1;#P hidden connect 19 2 13 1;#P hidden connect 0 3 1 0;#P hidden connect 1 0 7 0;#P hidden connect 8 0 7 0;#P hidden fasten 19 2 2 0 104 217 130 217;#P hidden connect 2 0 15 1;#P hidden connect 4 0 8 0;#P hidden connect 0 0 7 1;#P hidden fasten 7 0 6 0 121 158 163 158;#P hidden connect 6 0 5 0;#P hidden connect 5 0 18 0;#P hidden fasten 3 0 18 0 71 200 163 200;#P hidden fasten 14 1 24 0 214 247 173 247;#P hidden connect 24 0 23 0;#P hidden fasten 15 0 23 0 90 321 173 321;#P hidden connect 17 1 6 1;#P hidden connect 18 1 14 0;#P hidden connect 14 1 25 0;#P pop;#P newobj 226 194 42 196617 patcher;#P inlet 226 141 15 0;#N coll Spat@2bt-Coll 1;#P newobj 201 378 105 196617 coll Spat@2bt-Coll -1;#P window setfont "Sans Serif" 12.;#N vpatcher 76 86 211 292;#P origin 9 0;#P window setfont "Sans Serif" 9.;#P newex 26 134 27 196617 + 1;#P newex 9 115 27 196617 t i i;#P newex 9 96 91 196617 expr ($i1-1)*2+1;#P newex 9 77 27 196617 i;#P newex 9 58 38 196617 + 0.49;#P newex 9 39 32 196617 / 10.;#P outlet 9 153 15 0;#P outlet 26 153 15 0;#P inlet 9 22 15 0;#P connect 0 0 3 0;#P connect 3 0 4 0;#P connect 4 0 5 0;#P connect 5 0 6 0;#P connect 6 0 7 0;#P connect 7 0 2 0;#P connect 7 1 8 0;#P connect 8 0 1 0;#P pop;#P newobj 226 304 99 196620 p pos2indices;#B color 14;#P window setfont "Sans Serif" 9.;#P newex 350 285 65 196617 prepend read;#P window linecount 2;#P newex 361 304 73 196617 print Decoder~(2bt);#P window linecount 1;#N coll Spat@2bt-Coll 1;#P newobj 350 378 105 196617 coll Spat@2bt-Coll -1;#P connect 14 0 19 0;#P connect 19 0 17 0;#P connect 17 0 26 0;#P connect 26 0 34 0;#P connect 34 0 22 0;#P connect 15 0 19 1;#P connect 16 0 26 1;#P fasten 12 0 17 1 377 236 124 236;#P fasten 31 1 17 1 245 418 124 418;#P connect 17 0 27 0;#P connect 27 0 35 0;#P connect 35 0 24 0;#P connect 14 0 18 0;#P connect 18 0 16 0;#P connect 16 0 27 1;#P connect 15 0 18 1;#P fasten 32 1 16 1 394 420 173 420;#P fasten 12 0 16 1 377 238 173 238;#P fasten 46 1 41 0 344 332 206 332;#P lcolor 2;#P fasten 45 1 41 0 312 328 206 328;#P lcolor 13;#P connect 41 0 4 0;#P connect 4 0 31 0;#P fasten 40 0 31 0 231 397 206 397;#P connect 5 0 7 0;#P connect 30 0 7 0;#P connect 7 0 6 0;#P connect 47 0 33 0;#P fasten 46 0 33 0 327 232 231 232;#P fasten 45 0 33 0 295 230 231 230;#P connect 6 0 33 0;#P connect 33 0 3 0;#P connect 3 0 41 1;#P connect 41 1 40 0;#P connect 7 1 6 1;#P connect 7 2 43 0;#P connect 43 0 45 0;#P fasten 45 1 42 0 312 330 295 330;#P lcolor 13;#P fasten 46 1 42 0 344 334 295 334;#P lcolor 2;#P connect 3 1 42 1;#P connect 7 3 44 0;#P connect 44 0 46 0;#P fasten 7 6 36 0 423 253 355 253;#P connect 36 0 2 0;#P connect 2 0 0 0;#P fasten 42 0 0 0 295 357 355 357;#P fasten 39 0 32 0 437 397 355 397;#P connect 0 0 32 0;#P connect 7 4 10 0;#P connect 36 0 1 0;#P connect 10 0 12 0;#P connect 11 0 12 0;#P connect 7 5 11 0;#P connect 36 1 38 0;#P connect 38 0 39 0;#P fasten 42 1 39 0 320 355 437 355;#P connect 36 1 37 0;#P pop;#P newobj 198 239 60 196617 p trans~;#N vpatcher 95 151 839 735;#P window setfont "Sans Serif" 9.;#P window linecount 0;#P newex 137 285 88 196617 r Spat@2t-Reload;#P newex 322 211 27 196617 t b i;#P newex 290 211 27 196617 t b i;#P message 322 194 14 196617 2;#P message 290 194 14 196617 1;#P newex 290 336 35 196617 gate 2;#P newex 201 336 35 196617 gate 2;#N coll Spat@2tb-Coll 1;#P newobj 226 359 105 196617 coll Spat@2tb-Coll -1;#N coll Spat@2tb-Coll 1;#P newobj 432 359 105 196617 coll Spat@2tb-Coll -1;#P newex 432 285 65 196617 prepend read;#P window linecount 2;#P newex 444 304 73 196617 print Decoder~(2tb);#P window setfont "Sans Serif" 12.;#P window linecount 1;#N vpatcher 468 93 1148 720;#P origin -128 0;#P window setfont "Sans Serif" 9.;#P newex 335 210 50 196617 print ---;#P newex 22 464 88 196617 s Spat@2t-Reload;#P newex 22 445 35 196617 del 10;#P newex 56 390 112 196617 sprintf 2tb-%s-%i.coll;#P newex 39 409 112 196617 sprintf 2bt-%s-%i.coll;#P newex 359 118 91 196617 v Spat@2b-Status;#P message 222 220 23 196617 0 0;#P newex 73 371 90 196617 v Spat@2t-Status;#P newex 183 101 61 196617 pack s i;#P newex 183 82 50 196617 unpack s i;#P newex 183 44 61 196617 t b i;#P newex 183 63 115 196617 v Spat@2t-Status;#P newex 62 63 50 196617 t s b;#P newex 102 82 61 196617 adstatus sr;#P newex 182 23 61 196617 adstatus sr;#P newex 142 296 50 196617 == 0;#P newex 22 333 50 196617 gate;#P newex 62 182 91 196617 t s s b;#P newex 142 201 90 196617 t b b b;#P newex 142 258 50 196617 zl reg;#P newex 383 82 85 196617 i;#P newex 182 237 89 196617 v Spat@2t-Status;#P newex 311 160 34 196617 zl reg;#P newex 407 63 61 196617 adstatus sr;#P newex 311 44 109 196617 t b b b b b;#P message 383 101 55 196617 KEMAR \$1;#P newex 311 23 50 196617 loadbang;#P newex 102 277 50 196617 zl sub;#P newex 62 44 50 196617 tosymbol;#P newex 62 101 101 196617 pack s 0;#P newex 335 137 92 196617 v Spat@2t-Status;#P outlet 56 428 15 0;#P outlet 39 428 15 0;#P inlet 62 23 15 0;#P newex 22 352 62 196617 t b s s s;#P connect 19 0 18 0;#P connect 18 0 0 0;#P connect 0 0 32 0;#P connect 32 0 33 0;#P connect 0 1 30 0;#P connect 30 0 2 0;#P connect 0 2 31 0;#P connect 31 0 3 0;#P connect 1 0 6 0;#P connect 6 0 22 0;#P connect 22 0 5 0;#P fasten 12 0 17 0 316 180 67 180;#P fasten 26 0 17 0 188 178 67 178;#P connect 5 0 17 0;#P connect 17 0 18 1;#P connect 0 3 27 0;#P connect 22 1 21 0;#P connect 17 1 7 0;#P connect 17 2 16 0;#P connect 16 0 15 0;#P connect 15 0 7 1;#P connect 7 1 19 0;#P connect 21 1 5 1;#P connect 16 1 13 0;#P connect 13 0 15 1;#P fasten 28 0 15 1 227 256 187 256;#P connect 20 1 24 0;#P connect 24 0 23 0;#P connect 23 0 25 0;#P connect 25 0 26 0;#P connect 16 2 28 0;#P connect 24 1 26 1;#P connect 8 0 10 0;#P connect 10 0 12 0;#P connect 10 1 4 0;#P connect 4 0 12 1;#P fasten 29 0 12 1 364 156 340 156;#P fasten 9 0 12 1 388 158 340 158;#P connect 12 0 34 0;#P connect 10 2 29 0;#P connect 10 3 14 0;#P connect 14 0 9 0;#P connect 10 4 11 0;#P connect 11 1 14 1;#P pop;#P newobj 350 260 92 196620 p filenames;#B color 14;#P window setfont "Sans Serif" 9.;#P newex 127 497 69 196617 *~ 1.414214;#P newex 95 478 69 196617 *~ 1.414214;#P newex 226 285 27 196617 i;#P newex 350 399 49 196617 zl slice 1;#P newex 201 399 49 196617 zl slice 1;#P newex 180 174 45 196617 loadbang;#P comment 280 136 70 196617 = bin -> trans;#P comment 280 149 70 196617 = trans -> bin;#P window setfont "Lucida Grande" 9.;#P newex 127 457 27 67108873 -~;#P newex 95 457 26 67108873 +~;#P window setfont "Sans Serif" 10.;#P comment 121 540 32 196618 right;#P outlet 127 517 15 0;#P comment 93 540 26 196618 left;#P outlet 95 518 15 0;#P comment 64 424 30 196618 SUM;#P comment 179 423 31 196618 DIFF;#P window setfont "Lucida Grande" 9.;#P newex 95 174 26 67108873 +~;#P newex 144 174 27 67108873 -~;#P newex 95 422 34 67108873 iir12~;#P newex 144 422 34 67108873 iir12~;#P inlet 161 141 15 0;#P inlet 95 141 15 0;#P window setfont "Sans Serif" 10.;#P window linecount 2;#P comment 117 136 39 196618 source signal;#P window setfont "Sans Serif" 9.;#P window linecount 1;#N vpatcher -852 -536 -752 -436;#P hidden outlet 4 75 15 0;#P hidden inlet 4 25 15 0;#P window setfont "Lucida Grande" 9.;#P hidden message 4 43 156 67108873 \$1 0. 0. 0. 0. 0. 0. 0. 0. 0. 0. 0. 0. 0. 0. 0. 0. 0. 0. 0. 0. 0. 0. 0. 0.;#P hidden connect 1 0 0 0;#P hidden connect 0 0 2 0;#P pop;#P newobj 372 214 65 196617 p bypass_off;#P message 386 194 17 196617 0.;#P message 354 194 23 196617 0.5;#P comment 245 136 38 196617 'trans';#P comment 245 149 27 196617 'bin';#P newex 226 174 237 196617 route bang corners trans bin bypass off head;#N vpatcher -852 -536 -752 -436;#P window setfont "Sans Serif" 10.;#P hidden comment 77 22 46 196618 corners;#P window setfont "Sans Serif" 9.;#P hidden message 63 269 20 196617 30;#P hidden newex 8 57 28 196617 t b b;#P hidden inlet 89 39 15 0;#P hidden newex 209 250 74 196617 s $0-gate;#P hidden message 168 268 116 196617 warning: bin <-> trans converter assumes symmetric loudspeaker angles from 10 to 170;#P hidden newex 168 323 35 196617 print;#P window setfont "Sans Serif" 10.;#P hidden comment 19 326 46 196618 corners;#P window setfont "Sans Serif" 9.;#P hidden newex 33 268 28 196617 30;#P hidden outlet 33 310 15 0;#P hidden newex 33 160 76 196617 t b i i;#P hidden newex 158 202 35 196617 sel 0;#P hidden newex 89 76 99 196617 unpack 30 -30;#P hidden newex 33 139 61 196617 clip 10 170;#P hidden newex 85 268 50 196617 pack 0 0;#P hidden newex 183 226 36 196617 t b b;#P hidden newex 85 247 24 196617 0;#P hidden inlet 8 39 15 0;#P window setfont "Sans Serif" 10.;#P hidden comment 3 22 30 196618 bang;#P window setfont "Sans Serif" 9.;#P hidden newex 89 57 52 196617 route list;#P hidden newex 38 76 50 196617 mod 360;#P hidden message 135 117 18 196617 0;#P hidden newex 116 139 30 196617 gate;#P hidden newex 158 160 30 196617 + 0;#P hidden newex 158 181 55 196617 mod 360;#P hidden newex 154 116 74 196617 r $0-gate;#P hidden newex 66 181 34 196617 - 0;#P hidden newex 125 219 28 196617 * -1;#P hidden message 116 117 18 196617 1;#P hidden newex 38 96 89 196617 t i i i b;#P hidden connect 12 0 27 0;#P hidden fasten 0 1 16 0 69 137 38 137;#P hidden connect 16 0 19 0;#P hidden fasten 27 0 21 0 13 266 38 266;#P lcolor 8;#P hidden connect 19 0 21 0;#P hidden connect 21 0 20 0;#P hidden connect 17 0 9 0;#P hidden connect 9 0 0 0;#P hidden fasten 19 1 21 1 71 179 56 179;#P hidden connect 28 0 21 1;#P lcolor 8;#P hidden fasten 27 1 28 0 31 264 68 264;#P lcolor 8;#P hidden connect 19 1 3 0;#P hidden fasten 14 0 13 0 188 245 90 245;#P hidden connect 13 0 15 0;#P hidden connect 26 0 10 0;#P hidden connect 10 0 17 0;#P hidden connect 0 2 3 1;#P hidden connect 19 2 13 1;#P hidden connect 0 3 1 0;#P hidden connect 8 0 7 0;#P hidden connect 1 0 7 0;#P hidden fasten 19 2 2 0 104 217 130 217;#P hidden connect 2 0 15 1;#P hidden connect 4 0 8 0;#P hidden connect 0 0 7 1;#P hidden fasten 7 0 6 0 121 158 163 158;#P hidden connect 6 0 5 0;#P hidden fasten 3 0 18 0 71 200 163 200;#P hidden connect 5 0 18 0;#P hidden fasten 14 1 24 0 214 247 173 247;#P hidden fasten 15 0 23 0 90 321 173 321;#P hidden connect 24 0 23 0;#P hidden connect 17 1 6 1;#P hidden connect 18 1 14 0;#P hidden connect 14 1 25 0;#P pop;#P newobj 226 194 42 196617 patcher;#P inlet 226 141 15 0;#N coll Spat@2bt-Coll 1;#P newobj 201 378 105 196617 coll Spat@2bt-Coll -1;#P window setfont "Sans Serif" 12.;#N vpatcher 76 86 211 292;#P origin 9 0;#P window setfont "Sans Serif" 9.;#P newex 26 134 27 196617 + 1;#P newex 9 115 27 196617 t i i;#P newex 9 96 91 196617 expr ($i1-1)*2+1;#P newex 9 77 27 196617 i;#P newex 9 58 38 196617 + 0.49;#P newex 9 39 32 196617 / 10.;#P outlet 9 153 15 0;#P outlet 26 153 15 0;#P inlet 9 22 15 0;#P connect 0 0 3 0;#P connect 3 0 4 0;#P connect 4 0 5 0;#P connect 5 0 6 0;#P connect 6 0 7 0;#P connect 7 0 2 0;#P connect 7 1 8 0;#P connect 8 0 1 0;#P pop;#P newobj 226 304 99 196620 p pos2indices;#B color 14;#P window setfont "Sans Serif" 9.;#P newex 350 285 65 196617 prepend read;#P window linecount 2;#P newex 361 304 73 196617 print Decoder~(2bt);#P window linecount 1;#N coll Spat@2bt-Coll 1;#P newobj 350 378 105 196617 coll Spat@2bt-Coll -1;#P connect 14 0 19 0;#P connect 19 0 17 0;#P connect 17 0 26 0;#P connect 26 0 34 0;#P connect 34 0 22 0;#P connect 15 0 19 1;#P connect 16 0 26 1;#P fasten 12 0 17 1 377 236 124 236;#P fasten 31 1 17 1 245 418 124 418;#P connect 17 0 27 0;#P connect 27 0 35 0;#P connect 35 0 24 0;#P connect 14 0 18 0;#P connect 18 0 16 0;#P connect 16 0 27 1;#P connect 15 0 18 1;#P fasten 12 0 16 1 377 238 173 238;#P fasten 32 1 16 1 394 420 173 420;#P fasten 45 1 41 0 312 328 206 328;#P lcolor 13;#P fasten 46 1 41 0 344 332 206 332;#P lcolor 2;#P connect 41 0 4 0;#P fasten 40 0 31 0 231 397 206 397;#P connect 4 0 31 0;#P connect 30 0 7 0;#P connect 5 0 7 0;#P connect 7 0 6 0;#P connect 6 0 33 0;#P fasten 45 0 33 0 295 230 231 230;#P fasten 46 0 33 0 327 232 231 232;#P connect 47 0 33 0;#P connect 33 0 3 0;#P connect 3 0 41 1;#P connect 41 1 40 0;#P connect 7 1 6 1;#P connect 7 2 43 0;#P connect 43 0 45 0;#P fasten 46 1 42 0 344 334 295 334;#P lcolor 2;#P fasten 45 1 42 0 312 330 295 330;#P lcolor 13;#P connect 3 1 42 1;#P connect 7 3 44 0;#P connect 44 0 46 0;#P fasten 7 6 36 0 423 253 355 253;#P connect 36 0 2 0;#P fasten 42 0 0 0 295 357 355 357;#P connect 2 0 0 0;#P connect 0 0 32 0;#P fasten 39 0 32 0 437 397 355 397;#P connect 7 4 10 0;#P connect 36 0 1 0;#P connect 11 0 12 0;#P connect 10 0 12 0;#P connect 7 5 11 0;#P connect 36 1 38 0;#P fasten 42 1 39 0 320 355 437 355;#P connect 38 0 39 0;#P connect 36 1 37 0;#P pop;#P newobj 133 239 60 196617 p trans~;#P newex 467 102 40 196617 t b b b;#P message 467 123 192 196617 speakers 45. 0. -45. 0. 135. 0. -135. 0.;#P newex 467 82 48 196617 loadbang;#P message 497 219 112 196617 bin \, corners 135 -135;#P message 482 180 100 196617 bin \, corners 45 -45;#P newex 133 166 85 196617 ambidecode~ 1 4;#P connect 15 0 8 0;#P connect 8 0 16 0;#P connect 9 0 14 0;#P fasten 4 0 0 0 472 144 138 144;#P connect 14 0 0 0;#P connect 0 0 6 0;#P connect 6 0 10 0;#P connect 10 0 12 0;#P connect 7 0 10 1;#P connect 14 1 0 1;#P connect 0 1 6 1;#P connect 14 2 0 2;#P fasten 8 0 6 2 30 228 188 228;#P connect 1 0 6 2;#P connect 6 1 11 0;#P connect 11 0 13 0;#P connect 0 2 7 0;#P connect 7 1 11 1;#P connect 14 3 0 3;#P connect 0 3 7 1;#P fasten 8 0 7 2 30 223 253 223;#P connect 2 0 7 2;#P connect 3 0 5 0;#P connect 5 0 4 0;#P connect 5 1 1 0;#P connect 5 2 2 0;#P pop;