max v2;#N vpatcher 100 54 944 692;#P toggle 606 186 15 0;#P window setfont "Sans Serif" 9.;#P message 530 163 135 196617 open cherokee.aif \, 1 \, loop 1;#P comment 203 148 56 196617 MIDI Pitch;#P flonum 163 146 35 9 0. 127. 3 3 0 0 0 221 221 221 222 222 222 0 0 0;#P flonum 117 146 35 9 0. 127. 3 3 0 0 0 221 221 221 222 222 222 0 0 0;#P message 557 186 31 196617 open;#N sfplay~  1 120960 0 ;#P newobj 530 214 60 196617 sfplay~;#P message 622 186 43 196617 loop \$1;#P toggle 589 186 15 0;#P comment 492 366 54 196617 pitched;#P user meter~ 408 321 421 444 50 0 168 0 103 103 103 255 153 0 255 0 0 217 217 0 153 186 0 12 3 3 3 3;#P user meter~ 477 321 490 444 50 0 168 0 103 103 103 255 153 0 255 0 0 217 217 0 153 186 0 12 3 3 3 3;#P user gain~ 450 321 24 100 158 0 1.071519 7.94321 10.;#P user gain~ 423 321 24 100 158 0 1.071519 7.94321 10.;#P hidden newex 117 90 48 196617 loadbang;#P newex 81 175 83 196617 pak /range 0. 0.;#P flonum 307 146 45 9 0 0 0 3 0 0 0 221 221 221 222 222 222 0 0 0;#P user ezdac~ 423 457 467 490 0;#P message 307 178 75 196617 /transpose \$1;#P newex 423 281 117 196617 gbr.jalg.un_pitched.mxt;#P hidden message 163 124 20 196617 67;#P hidden message 117 124 20 196617 30;#P comment 357 366 54 196617 unpitched;#P comment 355 148 34 196617 cents;#P hidden connect 9 0 2 0;#P hidden connect 2 0 19 0;#P connect 19 0 8 1;#P connect 20 0 8 2;#P hidden fasten 9 0 3 0 122 115 168 115;#P hidden connect 3 0 20 0;#P connect 7 0 5 0;#P hidden connect 10 0 13 0;#P connect 8 0 4 0;#P connect 5 0 4 0;#P connect 4 0 10 0;#P connect 10 0 6 0;#P connect 4 1 11 0;#P connect 11 0 6 1;#P hidden connect 11 0 12 0;#P connect 22 0 17 0;#P fasten 15 0 17 0 594 209 535 209;#P fasten 16 0 17 0 627 209 535 209;#P fasten 18 0 17 0 562 209 535 209;#P connect 17 0 4 1;#P connect 23 0 16 0;#P pop;