max v2;#N vpatcher 30 53 862 822;#P window setfont "Sans Serif" 9.;#P window linecount 1;#P newex 104 578 46 196617 sel done;#P newex 135 350 27 196617 qlim;#P newex 142 210 27 196617 qlim;#N vpatcher 15 55 615 455;#P window setfont "Sans Serif" 9.;#P newex 90 140 47 196617 tosymbol;#P newex 90 97 211 196617 sprintf %s/documentation/html/modules/%s.html;#P newex 50 50 172 196617 regexp (.*)/library/modules/.*/(.*)\\\\.mod;#P inlet 50 30 15 0;#P outlet 90 164 15 0;#P connect 1 0 2 0;#P connect 2 1 3 0;#P connect 3 0 4 0;#P connect 4 0 0 0;#P pop;#P newobj 212 437 49 196617 p genpath;#P newex 104 486 214 196617 prepend /themodule/documentation/generate;#P newex 104 463 118 196617 zl reg;#P newex 104 440 27 196617 qlim;#P newex 104 558 203 196617 route /themodule/documentation/generate;#P newex 104 538 137 196617 r jmod.remote.fromModule;#P newex 104 509 122 196617 s jmod.remote.toModule;#P button 142 192 15 0;#P newex 104 665 27 196617 qlim;#P newex 104 599 27 196617 qlim;#P newex 104 418 68 196617 delay 5000;#P newex 104 396 27 196617 qlim;#P newex 104 374 75 196617 b 2;#P newex 104 350 27 196617 qlim;#P newex 104 328 68 196617 delay 1000;#P message 177 644 127 196617 script delete /themodule;#P newex 104 621 83 196617 b 2;#N thispatcher;#Q end;#P newobj 329 668 68 196617 thispatcher;#P window linecount 2;#P newex 329 343 160 196617 prepend script new /themodule newex 450 450 35 472055817;#P comment 8 167 87 196617 just the module file names...;#P window setfont "Sans Serif" 12.;#P comment 116 24 154 196620 GENERATE NEW HTML FOR ALL MODULES!;#P window setfont "Sans Serif" 9.;#P window linecount 1;#P newex 85 170 118 196617 regexp .*/(.*\\\\.mod);#P message 104 696 39 196617 resume;#P newex 104 643 68 196617 delay 1000;#P newex 104 263 27 196617 t b l;#P newex 129 290 68 196617 print MODULE;#P newex 290 277 27 196617 - 1;#P newex 256 253 44 196617 t pause i;#P newex 226 231 40 196617 uzi;#P comment 262 195 52 196617 num items;#P number 226 194 35 9 0 0 0 3 0 0 0 221 221 221 222 222 222 0 0 0;#P newex 226 170 81 196617 route populate;#P button 85 27 29 0;#P message 85 64 43 196617 populate;#P newex 134 106 82 196617 prepend prefix;#P newex 134 84 61 196617 absolutepath;#P message 134 64 43 196617 modules;#P comment 552 74 175 196617 - needs return of "/autodoc done";#P comment 555 247 226 196617 D. Remove the module;#P window linecount 2;#P comment 566 213 226 196617 iii. actually send the /autodoc message with the dstpath as an argument;#P comment 567 182 226 196617 ii. from that path generate a new path for where the html should go;#P window linecount 1;#P comment 567 165 226 196617 i. get the path of the module;#P comment 558 145 226 196617 C. Send it the /autodoc message;#P comment 557 126 226 196617 B. Initialize it;#P comment 557 107 226 196617 A. Create it;#P comment 306 233 98 196617 2. For each module...;#P user ubumenu 85 141 138 196617 0 1 1 0;#X add audio;#X add audio/jmod.ambi.decode~.mod;#X add audio/jmod.ambi.encodeM~.mod;#X add audio/jmod.crossfade~.mod;#X add audio/jmod.degradeM~.mod;#X add audio/jmod.degrade~.mod;#X add audio/jmod.echo~.mod;#X add audio/jmod.filterM~.mod;#X add audio/jmod.filter~.mod;#X add audio/jmod.input~.mod;#X add audio/jmod.limiter~.mod;#X add audio/jmod.noisegateM~.mod;#X add audio/jmod.noisegate~.mod;#X add audio/jmod.output~.mod;#X add audio/jmod.saturation~.mod;#X add control;#X add control/jmod.control.mod;#X add control/jmod.cuelist.mod;#X add control/jmod.hi.mod;#X add control/jmod.mapper.mod;#X add control/jmod.oscnet.mod;#X add control/jmod.qmetro.mod;#X add video;#X add video/jmod.brcosa%.mod;#X add video/jmod.edge%.mod;#X add video/jmod.mblur%.mod;#X add video/jmod.motion%.mod;#X add video/jmod.op%.mod;#X add video/jmod.orsize%.mod;#X add video/jmod.wake%.mod;#X prefix_set 0 0 E:/Electrotap/Jamoma/library/modules/ 3;#P comment 224 142 205 196617 1. Build a list of Modules in the searchpath;#P comment 545 42 100 196617 NEEDS IN THE HUB;#P comment 559 56 175 196617 - autodoc needs to be a legit message;#P window linecount 8;#P comment 8 336 86 196617 all of this delaying and deferring is here mostly from superstition \, not because of any testing or rational reason...;#P window linecount 9;#P comment 8 552 81 196617 when the HTML generation is done \, the module sends us a message - then we can clean up and move on to the next module...;#P connect 19 0 18 0;#P fasten 25 0 5 0 295 303 414 303 414 133 90 133;#P connect 18 0 5 0;#P connect 17 0 5 0;#P fasten 5 1 30 0 154 164 90 164;#P connect 30 1 27 0;#P connect 27 0 37 0;#P connect 37 0 38 0;#P connect 53 0 39 0;#P connect 39 0 40 0;#P connect 40 0 41 0;#P connect 41 0 48 0;#P connect 48 0 49 0;#P connect 49 0 50 0;#P connect 50 0 45 0;#P connect 46 0 47 0;#P connect 47 0 54 0;#P connect 54 0 42 0;#P connect 42 0 35 0;#P connect 35 0 28 0;#P connect 28 0 43 0;#P connect 43 0 29 0;#P fasten 52 0 29 0 147 238 90 257 90 686 109 686;#P connect 27 1 26 0;#P connect 19 0 15 0;#P connect 15 0 16 0;#P connect 16 0 17 0;#P connect 38 0 53 0;#P connect 30 3 44 0;#P connect 44 0 52 0;#P connect 35 1 36 0;#P connect 5 1 51 0;#P lcolor 14;#P connect 51 0 49 1;#P fasten 5 2 20 0 218 164 231 164;#P connect 20 0 21 0;#P fasten 29 0 23 0 109 724 495 724 495 225 231 225;#P lcolor 14;#P connect 21 0 23 0;#P connect 24 0 23 0;#P connect 23 2 24 0;#P connect 24 1 25 0;#P fasten 27 1 33 0 126 321 334 321;#P connect 33 0 34 0;#P connect 36 0 34 0;#P pop;