max v2;#N vpatcher 248 137 953 731;#P window setfont "Sans Serif" 9.;#P window linecount 1;#P message 329 457 14 196617 8;#P message 313 457 14 196617 7;#P message 297 457 14 196617 6;#P message 281 457 14 196617 5;#P message 265 457 14 196617 4;#P message 249 457 14 196617 3;#P message 233 457 14 196617 2;#P message 217 457 14 196617 1;#P newex 526 516 32 196617 print;#P objectname u336000004[11];#P number 272 480 35 9 0 0 0 3 0 0 0 221 221 221 222 222 222 0 0 0;#P message 272 498 49 196617 store \$1;#P bpatcher 14 25 256 62 0 0 jmod.control.mod 0 /transport;#P objectname jmod.control.mod;#P bpatcher 14 93 256 61 0 0 jmod.degrade~.mod 0 /bitcruncher;#P objectname jmod.degrade~.mod;#P bpatcher 14 160 256 61 0 0 jmod.echo~.mod 0 /fjiorden;#P objectname jmod.echo~.mod;#P newex 383 409 271 196617 unpack 0. 0. 0. 0. 0. 0. 0. 0.;#P objectname u336000004[10];#P newex 383 476 121 196617 pak 0. 0. 0. 0. 0. 0. 0. 0.;#P objectname u336000004[9];#P newex 642 454 27 196617 + 8.;#P objectname u336000004[8];#P newex 605 454 27 196617 + 7.;#P objectname u336000004[7];#P newex 568 454 27 196617 + 6.;#P objectname u336000004[6];#P newex 531 454 27 196617 + 5.;#P objectname u336000004[5];#P newex 494 454 27 196617 + 4.;#P objectname u336000004[4];#P newex 457 454 27 196617 + 3.;#P objectname u336000004[3];#P newex 420 454 27 196617 + 2.;#P objectname u336000004[2];#P newex 383 454 27 196617 + 1.;#P objectname u336000004[1];#P newex 383 513 97 196617 prepend recallmulti;#P objectname u336000004;#P flonum 642 432 35 9 0. 0.999999 3 3 0 0 0 221 221 221 222 222 222 0 0 0;#P flonum 605 432 35 9 0. 0.999999 3 3 0 0 0 221 221 221 222 222 222 0 0 0;#P flonum 568 432 35 9 0. 0.999999 3 3 0 0 0 221 221 221 222 222 222 0 0 0;#P flonum 531 432 35 9 0. 0.999999 3 3 0 0 0 221 221 221 222 222 222 0 0 0;#P flonum 494 432 35 9 0. 0.999999 3 3 0 0 0 221 221 221 222 222 222 0 0 0;#P flonum 457 432 35 9 0. 0.999999 3 3 0 0 0 221 221 221 222 222 222 0 0 0;#P flonum 420 432 35 9 0. 0.999999 3 3 0 0 0 221 221 221 222 222 222 0 0 0;#P flonum 383 432 35 9 0. 0.999999 3 3 0 0 0 221 221 221 222 222 222 0 0 0;#P newex 383 538 118 196617 pattrstorage @greedy 1;#X client_rect 10 59 650 299;#X storage_rect 0 0 640 240;#P objectname u485000005;#P connect 33 0 24 0;#P connect 32 0 24 0;#P connect 31 0 24 0;#P connect 30 0 24 0;#P connect 29 0 24 0;#P connect 28 0 24 0;#P connect 27 0 24 0;#P connect 26 0 24 0;#P connect 24 0 23 0;#P connect 19 0 1 0;#P connect 1 0 10 0;#P connect 10 0 18 0;#P connect 18 0 9 0;#P connect 9 0 0 0;#P connect 23 0 0 0;#P connect 11 0 18 1;#P connect 12 0 18 2;#P connect 19 1 2 0;#P connect 2 0 11 0;#P connect 13 0 18 3;#P connect 14 0 18 4;#P connect 19 2 3 0;#P connect 3 0 12 0;#P connect 15 0 18 5;#P connect 16 0 18 6;#P connect 17 0 18 7;#P connect 19 3 4 0;#P connect 4 0 13 0;#P connect 18 0 25 0;#P connect 19 4 5 0;#P connect 5 0 14 0;#P connect 19 5 6 0;#P connect 6 0 15 0;#P connect 19 6 7 0;#P connect 7 0 16 0;#P connect 19 7 8 0;#P connect 8 0 17 0;#P pop;