max v2;
#N vpatcher 157 111 859 667;
#P window setfont "Sans Serif" 9.;
#P window linecount 1;
#P newex 184 442 35 196617 zl join;
#P newex 104 464 35 196617 zl join;
#P newex 144 423 50 196617 zl ecils 1;
#P message 119 343 70 196617 substitute " ";
#P newex 119 323 45 196617 loadbang;
#P newex 144 404 75 196617 zl ecils 1;
#P newex 104 385 50 196617 zl slice 1;
#P newex 104 365 53 196617 regexp ::;
#P newex 104 485 31 196617 print;
#P comment 351 288 145 196617 MUST TURN ON OUTPUT MODE!;
#P window setfont Verdana 9.;
#P newex 361 52 79 472055817 send jmod.init;
#P newex 361 32 54 472055817 loadbang;
#P window linecount 2;
#P newex 104 281 243 472055817 pattrstorage jmod.pattr.example @greedy 1 @outputmode 1 @autorestore 0 @savemode 0;
#X client_rect 10 59 650 299;
#X storage_rect 0 0 640 240;
#P objectname jmod.pattr.example;
#P bpatcher 310 110 256 61 0 0 jmod.edge%.mod 0;
#P objectname GlowingEdges;
#P bpatcher 52 169 256 61 0 0 jmod.limi~.mod 0;
#P objectname Limiter~;
#P bpatcher 23 80 256 61 0 0 jmod.degrade~.mod 0;
#P objectname Degrade~;
#P connect 12 0 8 0;
#P connect 3 0 8 0;
#P connect 8 0 9 0;
#P connect 9 0 14 0;
#P connect 14 0 7 0;
#P connect 11 0 12 0;
#P fasten 15 0 14 1 189 461 134 461;
#P connect 9 1 10 0;
#P connect 10 0 13 0;
#P connect 13 1 15 0;
#P connect 10 1 15 1;
#P connect 4 0 5 0;
#P pop;
