max v2;
#N vpatcher 157 111 859 667;
#P window setfont Verdana 9.;
#P window linecount 1;
#P newex 403 425 29 11010057 qlim;
#P window setfont "Sans Serif" 9.;
#P newex 184 442 35 9109513 zl join;
#P newex 104 464 35 9109513 zl join;
#P newex 144 423 50 9109513 zl ecils 1;
#P message 119 343 70 9109513 substitute " ";
#P newex 119 323 45 9109513 loadbang;
#P newex 144 404 75 9109513 zl ecils 1;
#P newex 104 385 50 9109513 zl slice 1;
#P newex 104 365 53 9109513 regexp ::;
#P newex 104 485 31 9109513 print;
#P comment 351 288 158 9109513 MUST TURN ON OUTPUT MODE!;
#P window setfont Verdana 9.;
#P newex 403 448 79 11010057 send jmod.init;
#P newex 403 402 54 11010057 loadbang;
#P window linecount 2;
#P newex 104 281 243 11010057 pattrstorage jmod.pattr.example @greedy 1 @outputmode 1 @autorestore 0 @savemode 0;
#X client_rect 10 59 650 299;
#X storage_rect 0 0 640 240;
#P objectname jmod.pattr.example;
#P bpatcher 310 110 256 61 0 0 jmod.edge%.mod 0;
#P objectname GlowingEdges;
#P bpatcher 52 169 256 61 0 0 jmod.limi~.mod 0;
#P objectname Limiter~;
#P bpatcher 23 80 256 61 0 0 jmod.degrade~.mod 0;
#P objectname Degrade~;
#P connect 3 0 8 0;
#P connect 12 0 8 0;
#P connect 8 0 9 0;
#P connect 9 0 14 0;
#P connect 14 0 7 0;
#P connect 11 0 12 0;
#P fasten 15 0 14 1 189 461 134 461;
#P connect 9 1 10 0;
#P connect 10 0 13 0;
#P connect 13 1 15 0;
#P connect 10 1 15 1;
#P connect 4 0 16 0;
#P connect 16 0 5 0;
#P pop;
