max v2;
#N vpatcher 342 128 984 769;
#P window setfont "Sans Serif" 9.;
#P window linecount 1;
#P newex 166 429 72 196617 sprintf %s%s;
#P comment 243 597 157 196617 output converted to OSC;
#P comment 30 597 157 196617 raw pattrstorage output;
#P message 235 552 376 196617 /degrade~/audio/bypass 0;
#P newex 235 529 62 196617 prepend set;
#P newex 118 491 97 196617 regexp /pattr_gain;
#P newex 118 462 87 196617 regexp /controls;
#P message 321 352 73 196617 substitute %0;
#P newex 118 407 205 196617 regexp (.*)/jcom.gui.1Uh.a.stereo.mxt(.*);
#P window linecount 3;
#P message 26 552 162 196617 /degrade~::jcom.gui.1Uh.a.stereo.mxt::controls::audio/bypass 0;
#P window linecount 1;
#P newex 26 529 62 196617 prepend set;
#P message 133 352 64 196617 substitute /;
#P newex 231 317 45 196617 loadbang;
#P newex 118 374 66 196617 regexp ::;
#P comment 365 289 158 196617 MUST TURN ON OUTPUT MODE!;
#P window setfont Verdana 9.;
#P window linecount 2;
#P newex 118 282 243 472055817 pattrstorage jmod.pattr.example @greedy 1 @outputmode 1 @autorestore 0 @savemode 0;
#X client_rect 40 647 680 887;
#X storage_rect 0 0 640 240;
#P objectname jmod.pattr.example;
#P bpatcher 325 145 255 60 0 0 jmod.edge%.mxt 0;
#P objectname /GlowingEdges;
#P bpatcher 67 204 255 60 0 0 jmod.limiter~.mxt 0;
#P objectname /limiter~;
#P bpatcher 38 115 255 60 0 0 jmod.degrade~.mxt 0;
#P objectname /degrade~;
#P window setfont "Sans Serif" 9.;
#P window linecount 5;
#P comment 91 33 282 196617 This example demonstrates one way of getting all of the parameter changes made to any module via the pattrstorage object. Because all Jamoma modules use the pattr system internally \, you can use pattrstorage to manage the state of your entire environment.;
#P user panel 23 549 208 67;
#X brgb 175 203 221;
#X frgb 0 0 0;
#X border 1;
#X rounded 0;
#X shadow 0;
#X done;
#P user panel 233 549 383 67;
#X brgb 176 175 221;
#X frgb 0 0 0;
#X border 1;
#X rounded 0;
#X shadow 0;
#X done;
#P connect 6 0 11 0;
#P connect 11 0 12 0;
#P connect 6 0 8 0;
#P connect 10 0 8 0;
#P connect 8 0 13 0;
#P fasten 14 0 13 0 326 401 123 401;
#P fasten 21 0 15 0 171 450 123 450;
#P fasten 14 0 15 0 326 457 123 457;
#P fasten 14 0 16 0 326 487 123 487;
#P connect 15 0 16 0;
#P connect 9 0 10 0;
#P connect 13 1 21 0;
#P connect 13 3 17 0;
#P connect 16 0 17 0;
#P connect 16 3 17 0;
#P connect 17 0 18 0;
#P connect 9 0 14 0;
#P pop;
