max v2;
#N vpatcher 248 137 953 731;
#P window setfont "Sans Serif" 9.;
#P message 329 457 14 9109513 8;
#P message 313 457 14 9109513 7;
#P message 297 457 14 9109513 6;
#P message 281 457 14 9109513 5;
#P message 265 457 14 9109513 4;
#P message 249 457 14 9109513 3;
#P message 233 457 14 9109513 2;
#P message 217 457 14 9109513 1;
#P newex 526 516 32 9109513 print;
#P objectname u336000004[11];
#P number 272 480 35 9 0 0 0 139 0 0 0 221 221 221 222 222 222 0 0 0;
#P message 272 498 49 9109513 store \$1;
#P bpatcher 14 25 255 60 0 0 jmod.control.mod 0 /transport;
#P objectname jmod.control.mod;
#P bpatcher 14 93 255 60 0 0 jmod.degrade~.mod 0 /bitcruncher;
#P objectname jmod.degrade~.mod;
#P bpatcher 14 160 255 60 0 0 jmod.echo~.mod 0 /fjiorden;
#P objectname jmod.echo~.mod;
#P newex 383 409 271 9109513 unpack 0. 0. 0. 0. 0. 0. 0. 0.;
#P objectname u336000004[10];
#P newex 383 476 121 9109513 pak 0. 0. 0. 0. 0. 0. 0. 0.;
#P objectname u336000004[9];
#P newex 642 454 27 9109513 + 8.;
#P objectname u336000004[8];
#P newex 605 454 27 9109513 + 7.;
#P objectname u336000004[7];
#P newex 568 454 27 9109513 + 6.;
#P objectname u336000004[6];
#P newex 531 454 27 9109513 + 5.;
#P objectname u336000004[5];
#P newex 494 454 27 9109513 + 4.;
#P objectname u336000004[4];
#P newex 457 454 27 9109513 + 3.;
#P objectname u336000004[3];
#P newex 420 454 27 9109513 + 2.;
#P objectname u336000004[2];
#P newex 383 454 27 9109513 + 1.;
#P objectname u336000004[1];
#P newex 383 513 97 9109513 prepend recallmulti;
#P objectname u336000004;
#P flonum 642 432 35 9 0. 0.999999 3 139 0 0 0 221 221 221 222 222 222 0 0 0;
#P flonum 605 432 35 9 0. 0.999999 3 139 0 0 0 221 221 221 222 222 222 0 0 0;
#P flonum 568 432 35 9 0. 0.999999 3 139 0 0 0 221 221 221 222 222 222 0 0 0;
#P flonum 531 432 35 9 0. 0.999999 3 139 0 0 0 221 221 221 222 222 222 0 0 0;
#P flonum 494 432 35 9 0. 0.999999 3 139 0 0 0 221 221 221 222 222 222 0 0 0;
#P flonum 457 432 35 9 0. 0.999999 3 139 0 0 0 221 221 221 222 222 222 0 0 0;
#P flonum 420 432 35 9 0. 0.999999 3 139 0 0 0 221 221 221 222 222 222 0 0 0;
#P flonum 383 432 35 9 0. 0.999999 3 139 0 0 0 221 221 221 222 222 222 0 0 0;
#P newex 383 538 118 9109513 pattrstorage @greedy 1;
#X client_rect 10 59 650 299;
#X storage_rect 0 0 640 240;
#P objectname u668000015;
#P window linecount 2;
#P comment 411 148 153 9109513 This example is not yet complete \; More information coming soon~;
#P connect 27 0 25 0;
#P connect 28 0 25 0;
#P connect 29 0 25 0;
#P connect 30 0 25 0;
#P connect 31 0 25 0;
#P connect 32 0 25 0;
#P connect 33 0 25 0;
#P connect 34 0 25 0;
#P connect 25 0 24 0;
#P connect 20 0 2 0;
#P connect 2 0 11 0;
#P connect 11 0 19 0;
#P connect 19 0 10 0;
#P connect 24 0 1 0;
#P connect 10 0 1 0;
#P connect 12 0 19 1;
#P connect 13 0 19 2;
#P connect 20 1 3 0;
#P connect 3 0 12 0;
#P connect 14 0 19 3;
#P connect 15 0 19 4;
#P connect 20 2 4 0;
#P connect 4 0 13 0;
#P connect 16 0 19 5;
#P connect 17 0 19 6;
#P connect 18 0 19 7;
#P connect 20 3 5 0;
#P connect 5 0 14 0;
#P connect 19 0 26 0;
#P connect 20 4 6 0;
#P connect 6 0 15 0;
#P connect 20 5 7 0;
#P connect 7 0 16 0;
#P connect 20 6 8 0;
#P connect 8 0 17 0;
#P connect 20 7 9 0;
#P connect 9 0 18 0;
#P pop;
