max v2;
#N vpatcher 128 122 786 426;
#P window setfont "Sans Serif" 9.;
#P window linecount 1;
#P newex 208 69 27 9109513 qlim;
#P newex 14 189 99 9109513 s ---parameter_get;
#P newex 14 101 99 9109513 r ---parameter_set;
#P objectname u776000027[1];
#P newex 363 200 122 9109513 jmod.pp /mode 9 shape 0 1;
#P flonum 323 201 35 9 0 0 0 139 0 0 0 221 221 221 222 222 222 0 0 0;
#P newex 363 179 116 9109513 jmod.pp /mute 8 mute 0 1;
#P flonum 323 180 35 9 0 0 0 139 0 0 0 221 221 221 222 222 222 0 0 0;
#P newex 363 158 136 9109513 jmod.pp /bypass 7 bypass 0 1;
#P flonum 323 159 35 9 0 0 0 139 0 0 0 221 221 221 222 222 222 0 0 0;
#P newex 363 137 155 9109513 jmod.pp /gain/midi 6 midigain 0 158;
#B color 7;
#P flonum 323 138 35 9 0 0 0 139 0 0 0 221 221 221 222 222 222 0 0 0;
#P newex 363 116 171 9109513 jmod.pp /release 5 release 1. 2000. ms;
#P flonum 323 117 35 9 0 0 0 139 0 0 0 221 221 221 222 222 222 0 0 0;
#P newex 363 95 206 9109513 jmod.pp /lookahead 4 lookahead 0 100 samples;
#P flonum 323 96 35 9 0 0 0 139 0 0 0 221 221 221 222 222 222 0 0 0;
#P newex 363 74 166 9109513 jmod.pp /threshold 3 threshold -48. 18;
#P flonum 323 75 35 9 0 0 0 139 0 0 0 221 221 221 222 222 222 0 0 0;
#P newex 363 53 162 9109513 jmod.pp /postamp 2 postamp -48. 18;
#P flonum 323 54 35 9 0 0 0 139 0 0 0 221 221 221 222 222 222 0 0 0;
#P newex 363 32 155 9109513 jmod.pp /preamp 1 preamp -48. 18.;
#P newex 208 46 45 9109513 loadbang;
#P flonum 323 33 35 9 0 0 0 139 0 0 0 221 221 221 222 222 222 0 0 0;
#N plugconfig;
#C useviews 1 1 1 1;
#C numprograms 64;
#C preempt 1;
#C sigvschange 1;
#C sigvsdefault 32;
#C autosize;
#C defaultview Interface 0 0 0;
#C dragscroll 1;
#C noinfo;
#C uniqueid 114 6 196;
#C initialpgm 1;
#P newobj 207 222 54 9109513 plugconfig;
#P newex 137 222 45 9109513 dac~;
#P newex 137 198 45 9109513 plugout~;
#P newex 137 67 41 9109513 adc~;
#P newex 137 91 41 9109513 plugin~;
#P bpatcher 14 122 256 61 0 0 jmod.limi~.mod 0;
#P objectname jmod.limi~.mod;
#P newex 208 92 55 9109513 s jmod.init;
#P window linecount 2;
#P comment 305 231 326 9109513 The arguments to jmod.pp are <module_parameter_name> <pp number> <plugin_parameter_name> <range_low> <range_high>;
#P connect 27 0 2 0;
#P connect 2 0 28 0;
#P connect 4 0 3 0;
#P connect 3 0 2 1;
#P connect 2 1 5 0;
#P connect 5 0 6 0;
#P connect 4 1 3 1;
#P connect 2 2 5 1;
#P connect 5 1 6 1;
#P connect 9 0 29 0;
#P connect 29 0 1 0;
#P connect 3 1 2 2;
#P connect 10 0 8 0;
#P connect 12 0 11 0;
#P connect 14 0 13 0;
#P connect 16 0 15 0;
#P connect 18 0 17 0;
#P connect 20 0 19 0;
#P connect 22 0 21 0;
#P connect 24 0 23 0;
#P connect 26 0 25 0;
#P connect 8 0 10 0;
#P connect 11 0 12 0;
#P connect 13 0 14 0;
#P connect 15 0 16 0;
#P connect 17 0 18 0;
#P connect 19 0 20 0;
#P connect 21 0 22 0;
#P connect 23 0 24 0;
#P connect 25 0 26 0;
#P pop;
