max v2;
#N vpatcher 128 122 786 426;
#P window setfont "Sans Serif" 9.;
#P number 323 200 35 9 0 0 0 3 0 0 0 221 221 221 222 222 222 0 0 0;
#P window linecount 1;
#P newex 208 69 27 196617 qlim;
#P newex 14 189 99 196617 s ---parameter_get;
#P newex 14 101 99 196617 r ---parameter_set;
#P objectname u776000027[1];
#P newex 363 200 259 196617 jmod.pp /mode 9 shape 0 1 @choices exponential linear;
#P newex 363 179 135 196617 jmod.pp /mute 8 mute 0 1;
#P flonum 323 180 35 9 0 0 0 3 0 0 0 221 221 221 222 222 222 0 0 0;
#P newex 363 158 150 196617 jmod.pp /bypass 7 bypass 0 1;
#P flonum 323 159 35 9 0 0 0 3 0 0 0 221 221 221 222 222 222 0 0 0;
#P newex 363 137 184 196617 jmod.pp /gain/midi 6 midigain 0 158;
#B color 7;
#P flonum 323 138 35 9 0 0 0 3 0 0 0 221 221 221 222 222 222 0 0 0;
#P newex 363 116 195 196617 jmod.pp /release 5 release 1. 2000. ms;
#P flonum 323 117 35 9 0 0 0 3 0 0 0 221 221 221 222 222 222 0 0 0;
#P newex 363 95 225 196617 jmod.pp /lookahead 4 lookahead 0 100 samples;
#P flonum 323 96 35 9 0 0 0 3 0 0 0 221 221 221 222 222 222 0 0 0;
#P newex 363 74 195 196617 jmod.pp /threshold 3 threshold -48. 18;
#P flonum 323 75 35 9 0 0 0 3 0 0 0 221 221 221 222 222 222 0 0 0;
#P newex 363 53 186 196617 jmod.pp /postamp 2 postamp -48. 18;
#P flonum 323 54 35 9 0 0 0 3 0 0 0 221 221 221 222 222 222 0 0 0;
#P newex 363 32 179 196617 jmod.pp /preamp 1 preamp -48. 18.;
#P newex 208 46 45 196617 loadbang;
#P flonum 323 33 35 9 0 0 0 3 0 0 0 221 221 221 222 222 222 0 0 0;
#N plugconfig;
#C useviews 1 1 1 1;
#C numprograms 64;
#C preempt 1;
#C sigvschange 1;
#C sigvsdefault 32;
#C autosize;
#C defaultview Interface 0 0 0;
#C dragscroll 1;
#C noinfo;
#C uniqueid 114 6 196;
#C initialpgm 1;
#P newobj 207 222 54 196617 plugconfig;
#P newex 136 222 45 196617 dac~;
#P newex 136 198 45 196617 plugout~;
#P newex 136 67 41 196617 adc~;
#P newex 136 91 41 196617 plugin~;
#P bpatcher 14 122 255 60 0 0 jmod.limiter~.mod 0;
#P objectname /limiter;
#P newex 208 92 55 196617 s jmod.init;
#P window linecount 2;
#P comment 305 231 326 196617 The arguments to jmod.pp are <module_parameter_name> <pp number> <plugin_parameter_name> <range_low> <range_high>;
#P connect 26 0 2 0;
#P connect 2 0 27 0;
#P connect 4 0 3 0;
#P connect 3 0 2 1;
#P connect 2 1 5 0;
#P connect 5 0 6 0;
#P connect 4 1 3 1;
#P connect 2 2 5 1;
#P connect 5 1 6 1;
#P connect 9 0 28 0;
#P connect 28 0 1 0;
#P connect 3 1 2 2;
#P hidden connect 10 0 8 0;
#P hidden connect 12 0 11 0;
#P hidden connect 14 0 13 0;
#P hidden connect 16 0 15 0;
#P hidden connect 18 0 17 0;
#P hidden connect 20 0 19 0;
#P hidden connect 22 0 21 0;
#P hidden connect 24 0 23 0;
#P hidden connect 25 0 29 0;
#P hidden connect 8 0 10 0;
#P hidden connect 11 0 12 0;
#P hidden connect 13 0 14 0;
#P hidden connect 15 0 16 0;
#P hidden connect 17 0 18 0;
#P hidden connect 19 0 20 0;
#P hidden connect 21 0 22 0;
#P hidden connect 23 0 24 0;
#P hidden connect 29 0 25 0;
#P pop;
