max v2;
#N vpatcher 124 129 976 632;
#P window setfont "Sans Serif" 9.;
#P comment 86 323 177 196617 (alternatively \, try moving the graphics called by the pictsliders in the bpatchers to different locations in the searchpath - in somecases that creates a working hack too);
#P newex 38 233 22 196617 b 1;
#P newex 109 461 31 196617 print;
#N thispatcher;
#Q end;
#P newobj 34 461 60 196617 thispatcher;
#P newex 34 399 203 196617 unpack s 0 0 0 0;
#P newex 34 434 254 196617 sprintf script new %s bpatcher %i %i %i %i 0 0 %s 0;
#P newex 34 378 35 196617 r load;
#P message 115 241 114 196617 \; max refresh;
#P newex 134 211 74 196617 prepend set \\\;;
#P newex 38 311 44 196617 jit.qball;
#P newex 38 291 45 196617 delay;
#P newex 38 187 164 196617 t l b l;
#P message 38 74 14 196617 0;
#P button 38 40 22 0;
#P number 38 129 35 9 0 0 0 3 0 0 0 221 221 221 222 222 222 0 0 0;
#P newex 38 108 27 196617 + 0;
#P newex 38 332 21 196617 t 1;
#P newex 38 208 40 196617 sel end;
#N coll script 1;
#T flags 1 0;
#T 0 load jmod.input~.mod 300 100 255 120;
#T 1 load jmod.output~.mod 300 220 510 120;
#T 2 load jmod.degrade~.mod 300 340 255 60;
#T 3 load jmod.limi~.mod 300 400 255 60;
#T 4 max refresh;
#P newobj 38 161 64 196617 coll script 1;
#P comment 62 43 121 196617 <- CLICK THIS TO START;
#P comment 86 292 177 196617 <- CHANGE THIS DELAY TO 50+ ms TO HACK AROUND THE ERROR/CRASH;
#P connect 14 0 16 0;
#P connect 16 0 15 0;
#P connect 15 0 17 0;
#P connect 7 0 8 0;
#P connect 8 0 5 0;
#P fasten 4 0 5 0 43 354 32 354 32 98 43 98;
#P connect 5 0 6 0;
#P connect 6 0 2 0;
#P connect 2 0 9 0;
#P connect 9 0 3 0;
#P connect 3 1 19 0;
#P connect 19 0 10 0;
#P connect 10 0 11 0;
#P connect 11 0 4 0;
#P fasten 6 0 5 1 43 154 78 154 78 102 60 102;
#P connect 8 0 5 1;
#P connect 16 1 15 1;
#P connect 15 0 18 0;
#P connect 9 1 13 0;
#P connect 12 0 13 0;
#P connect 16 2 15 2;
#P connect 9 2 12 0;
#P connect 16 3 15 3;
#P connect 16 4 15 4;
#P fasten 16 0 15 5 39 421 279 430;
#P pop;
