max v2;#N vpatcher 16 44 474 603;#P window setfont "Sans Serif" 9.;#P window linecount 2;#P message 304 86 80 196617 \; jcom.init bang;#P window linecount 1;#N vpatcher 150 80 449 273;#P window setfont "Sans Serif" 9.;#P window linecount 1;#P newex 49 59 111 196617 jcom.oscroute /mouse;#P outlet 49 118 15 0;#P outlet 137 118 15 0;#P inlet 49 33 15 0;#P window linecount 0;#P newex 49 83 186 196617 jcom.oscroute /position/x /position/y;#P connect 1 0 4 0;#P connect 4 0 0 0;#P connect 0 0 3 0;#P connect 0 1 2 0;#P pop;#P hidden newobj 206 171 45 196617 p visual;#P user jsui 206 198 100 100 1 0 0 jsui_2dvectorctrl.js;#N vpatcher 579 44 1046 745;#P window setfont "Sans Serif" 9.;#P window linecount 1;#P newex 132 326 98 196617 pack;#P newex 220 283 87 196617 scale 0. 1. 0 127;#P newex 132 349 75 196617 prepend notein;#P newex 132 283 87 196617 scale 0. 1. 0 127;#P newex 132 258 186 196617 jcom.oscroute /position/x /position/y;#P newex 6 35 188 196617 jcom.receive jcom.remote.module.from;#P newex 13 648 161 196617 jcom.send jcom.remote.module.to;#P bpatcher 132 513 255 120 0 0 jmod.output~.mxt 0 /output~;#P objectname /output~;#P bpatcher 131 75 255 60 0 0 jmod.control.mxt 0 /control;#P objectname jmod.control;#P bpatcher 132 424 255 60 0 0 jmod.fluidsynth~.mxt 0;#P objectname /mouse[1];#P bpatcher 132 168 255 60 0 0 jmod.mouse.gdif.mxt 0;#P objectname /mouse;#P window linecount 2;#P comment 208 32 237 196617 This is the engine \, which could have been saved as a separate file and been run on a different system.;#P connect 1 0 7 0;#P connect 7 0 8 0;#P connect 8 0 11 0;#P connect 11 0 9 0;#P connect 9 0 2 0;#P connect 7 1 10 0;#P connect 10 0 11 1;#P connect 2 1 4 1;#P connect 2 2 4 2;#P pop 1;#P newobj 224 99 46 196617 p engine;#P objectname engine;#P user multiSlider 14 189 142 29 0. 1. 1 2936 15 0 0 2 0 0 0;#M frgb 9 36 255;#M brgb 0 215 232;#M rgb2 127 127 127;#M rgb3 0 0 0;#M rgb4 37 52 91;#M rgb5 74 105 182;#M rgb6 112 158 18;#M rgb7 149 211 110;#M rgb8 187 9 201;#M rgb9 224 62 37;#M rgb10 7 114 128;#P toggle 25 386 15 0;#P newex 25 434 98 196617 prepend /mouse/on;#P newex 206 141 188 196617 jcom.receive jcom.remote.module.from;#P newex 25 467 161 196617 jcom.send jcom.remote.module.to;#P comment 14 174 62 196617 Dreaminess;#P window linecount 3;#P comment 200 40 221 196617 This is just a proof-of-concept patch to show how it is possible to use Jamoma as an engine \, and make an independent GUI for controlling it.;#P connect 5 0 4 0;#P connect 4 0 2 0;#P hidden connect 3 0 9 0;#P hidden connect 9 0 8 0;#P hidden fasten 9 1 8 1 246 193 301 193;#P pop;