max v2;#N vpatcher 36 44 448 582;#P window setfont "Sans Serif" 9.;#P window linecount 6;#P comment 274 38 105 196617 In this example the engine is running in a subpatcher \, but it could also be a standalone \, or on another computer.;#P window linecount 1;#P hidden newex 277 157 94 196617 bgcolor 80 180 80;#P window setfont "Sans Serif" 18.;#P comment 33 27 88 196626 Interface;#P window setfont "Sans Serif" 9.;#N vpatcher 150 80 449 273;#P window setfont "Sans Serif" 9.;#P window linecount 1;#P newex 49 59 111 196617 jcom.oscroute /mouse;#P outlet 49 118 15 0;#P outlet 137 118 15 0;#P inlet 49 33 15 0;#P window linecount 0;#P newex 49 83 186 196617 jcom.oscroute /position/x /position/y;#P connect 1 0 4 0;#P connect 4 0 0 0;#P connect 0 0 3 0;#P connect 0 1 2 0;#P pop;#P hidden newobj 29 293 45 196617 p visual;#P user jsui 29 318 100 100 1 0 0 jsui_2dvectorctrl.js;#N vpatcher 454 44 791 582;#P origin 0 -19;#P window setfont "Sans Serif" 9.;#N vpatcher 10 59 299 277;#P window setfont "Sans Serif" 9.;#P window linecount 1;#P newex 50 104 98 196617 pack;#P newex 138 75 87 196617 scale 0. 1. 0 127;#P newex 50 127 75 196617 prepend notein;#P newex 50 75 87 196617 scale 0. 1. 0 127;#P newex 50 50 186 196617 jcom.oscroute /position/x /position/y;#P inlet 50 30 15 0;#P outlet 50 149 15 0;#P connect 1 0 2 0;#P connect 2 0 3 0;#P connect 3 0 6 0;#P connect 6 0 4 0;#P connect 4 0 0 0;#P connect 2 1 5 0;#P connect 5 0 6 1;#P pop;#P newobj 36 262 73 196617 p pre-process;#P bpatcher 36 360 255 120 0 0 jmod.output~.mxt 0 /output~;#P objectname /output~;#P bpatcher 36 101 255 60 0 0 jmod.control.mxt 0 /control;#P objectname jmod.control;#P bpatcher 36 286 255 60 0 0 jmod.fluidsynth~.mxt 0;#P objectname /mouse[1];#P bpatcher 36 194 255 60 0 0 jmod.mouse.gdif.mxt 0;#P objectname /mouse;#P window linecount 2;#P comment 36 56 237 196617 This is the engine \, which could have been saved as a separate file and been run on a different system.;#P window setfont "Sans Serif" 18.;#P window linecount 1;#P comment 36 22 66 196626 Engine;#P connect 2 0 6 0;#P connect 6 0 3 0;#P connect 3 1 5 1;#P connect 3 2 5 2;#P pop 1;#P newobj 293 118 46 196617 p engine;#P objectname engine;#P user multiSlider 223 379 142 29 0. 1. 1 2936 15 0 0 2 0 0 0;#M frgb 9 36 255;#M brgb 0 215 232;#M rgb2 127 127 127;#M rgb3 0 0 0;#M rgb4 37 52 91;#M rgb5 74 105 182;#M rgb6 112 158 18;#M rgb7 149 211 110;#M rgb8 187 9 201;#M rgb9 224 62 37;#M rgb10 7 114 128;#P toggle 29 155 48 0;#P hidden newex 29 208 98 196617 prepend /mouse/on;#P hidden newex 29 270 188 196617 jcom.receive jcom.remote.module.from;#P hidden newex 29 230 161 196617 jcom.send jcom.remote.module.to;#P comment 223 364 62 196617 Dreaminess;#P window linecount 3;#P comment 33 57 221 196617 This is just a proof-of-concept patch to show how it is possible to use Jamoma as an engine \, and make an independent GUI for controlling it.;#P window linecount 1;#P comment 85 177 75 196617 Turn mouse on;#P user panel 27 16 229 128;#X brgb 170 200 170;#X frgb 0 0 0;#X border 0;#X rounded 0;#X shadow 0;#X done;#P user panel 261 16 128 128;#X brgb 170 200 170;#X frgb 0 0 0;#X border 0;#X rounded 0;#X shadow 0;#X done;#P hidden connect 8 0 7 0;#P hidden connect 7 0 5 0;#P hidden connect 6 0 12 0;#P hidden connect 12 0 11 0;#P hidden fasten 12 1 11 1 69 315 124 315;#P pop;