max v2;#N vpatcher 47 44 1189 812;#P origin 13 -33;#P user jit.pwindow 614 348 322 242 0 1 0 0 1 0;#P window setfont "Sans Serif" 9.;#P flonum 172 632 35 9 0 0 0 3 0 0 0 221 221 221 222 222 222 0 0 0;#P window linecount 1;#P newex 130 630 29 196617 * 3.;#P flonum 90 632 35 9 0 0 0 3 0 0 0 221 221 221 222 222 222 0 0 0;#P flonum 176 582 35 9 0 0 0 3 0 0 0 221 221 221 222 222 222 0 0 0;#P user multiSlider 79 653 160 87 0. 1. 1 3961 15 0 0 2 0 0 0;#M frgb 0 0 0;#M brgb 255 255 255;#M rgb2 127 127 127;#M rgb3 0 0 0;#M rgb4 37 52 91;#M rgb5 74 105 182;#M rgb6 112 158 18;#M rgb7 149 211 110;#M rgb8 187 9 201;#M rgb9 224 62 37;#M rgb10 7 114 128;#P window linecount 2;#P message 573 51 80 196617 \; jmod.init bang;#P window linecount 1;#P message 30 312 107 196617 /motion/x 0.062075;#P newex 30 290 61 196617 prepend set;#P user jit.fpsgui 97 38 60 196617 0;#P newex 79 609 67 196617 slide 10. 10.;#P message 19 466 39 196617 /clear;#P comment 210 467 47 196617 y;#P hidden newex 273 612 46 196617 route 0.;#P hidden newex 567 327 46 196617 route 0.;#P user multiSlider 593 349 20 240 0. 1. 1 2681 15 0 0 2 0 0 0;#M frgb 0 0 0;#M brgb 255 255 255;#M rgb2 127 127 127;#M rgb3 0 0 0;#M rgb4 37 52 91;#M rgb5 74 105 182;#M rgb6 112 158 18;#M rgb7 149 211 110;#M rgb8 187 9 201;#M rgb9 224 62 37;#M rgb10 7 114 128;#P user multiSlider 273 589 320 20 0. 1. 1 2680 15 0 0 2 0 0 0;#M frgb 0 0 0;#M brgb 255 255 255;#M rgb2 127 127 127;#M rgb3 0 0 0;#M rgb4 37 52 91;#M rgb5 74 105 182;#M rgb6 112 158 18;#M rgb7 149 211 110;#M rgb8 187 9 201;#M rgb9 224 62 37;#M rgb10 7 114 128;#P comment 148 466 47 196617 x;#P comment 90 465 47 196617 quantity;#P flonum 205 441 53 9 0 0 0 3 0 0 0 221 221 221 222 222 222 0 0 0;#P flonum 145 441 53 9 0 0 0 3 0 0 0 221 221 221 222 222 222 0 0 0;#P newex 8 440 77 196617 jmod.autoscale;#P flonum 88 441 53 9 0 0 0 3 0 0 0 221 221 221 222 222 222 0 0 0;#P newex 8 408 150 196617 jmod.oscroute /quantity /x /y;#P user multiSlider 8 498 160 87 0. 1. 1 3961 15 0 0 2 0 0 0;#M frgb 0 0 0;#M brgb 255 255 255;#M rgb2 127 127 127;#M rgb3 0 0 0;#M rgb4 37 52 91;#M rgb5 74 105 182;#M rgb6 112 158 18;#M rgb7 149 211 110;#M rgb8 187 9 201;#M rgb9 224 62 37;#M rgb10 7 114 128;#P newex 8 340 113 196617 jmod.oscroute /motion;#P hidden newex 116 366 65 196617 loadmess set;#P message 50 388 107 196617 /color 0;#P newex 50 366 61 196617 prepend set;#P user jit.pwindow 272 348 322 242 0 1 0 0 1 0;#P window linecount 3;#P comment 173 499 87 196617 Currently only works for greyscale images.;#P bpatcher 0 83 256 61 0 0 jmod.orsize%.mod 0 /orsize%;#P objectname jmod.edge%.mod;#P user jit.pwindow 175 22 82 62 0 1 0 0 1 0;#P window linecount 1;#N vpatcher 283 218 546 488;#P toggle 50 93 15 0;#P window setfont "Sans Serif" 9.;#P newex 50 71 46 196617 t 1 open;#P newex 50 50 41 196617 sel 1 0;#P newex 50 114 51 196617 qmetro 2;#P newex 50 136 56 196617 jit.qt.grab;#P inlet 50 30 15 0;#P outlet 50 158 15 0;#P connect 1 0 4 0;#P connect 4 0 5 0;#P connect 4 1 6 0;#P connect 5 0 6 0;#P connect 6 0 3 0;#P connect 3 0 2 0;#P connect 5 1 2 0;#P connect 2 0 0 0;#P pop;#P newobj 10 52 53 196617 p grabber;#P toggle 10 32 15 0;#P bpatcher 705 29 256 121 0 0 jmod.input~.mod 0 /input~;#P objectname degrade.mod[1];#P bpatcher 705 155 256 61 0 0 jmod.echo~.mod 0 /echo;#P objectname degrade.mod;#P message 766 730 180 196617 /noise 0;#P newex 766 709 62 196617 prepend set;#P bpatcher 381 635 256 61 0 0 jmod.oscnet.mod 0 /oscnet;#P objectname jmod.oscnet.mod;#P bpatcher 272 99 254 62 0 0 jmod.control.mod 0 /control;#P objectname jmod.control.mod;#P bpatcher 704 225 509 121 0 0 jmod.output~.mod 0 /output~;#P objectname jmod.input~.mod;#P bpatcher 272 34 256 60 0 0 jmod.cuelist.mod 0 /cuescript;#P objectname jmod.cuelist.mod;#P message 284 187 39 196617 /clear;#P message 274 169 292 196617 /create link /motion/motion/quantity * 1000. -> /echo/right;#P bpatcher 274 207 256 62 0 0 jmod.mappings.mod 0 /mapper;#P objectname jmod.mappings.mod;#P bpatcher 0 203 255 60 0 0 jmod.motion%.mod 0 /motion;#P objectname mgt.controls2.pat[2];#P bpatcher 0 143 255 60 0 0 jmod.brcosa%.mod 0 /brcosa;#P objectname mgt.controls2.pat;#P connect 1 0 22 0;#P connect 22 0 24 0;#P connect 24 0 26 0;#P connect 36 0 26 0;#P connect 26 0 23 0;#P connect 13 0 14 0;#P connect 1 0 39 0;#P connect 39 0 40 0;#P fasten 22 1 19 0 116 361 55 361;#P connect 19 0 20 0;#P hidden fasten 21 0 20 0 121 385 55 385;#P connect 24 0 37 0;#P connect 37 0 42 0;#P fasten 24 0 25 0 13 435 93 435;#P connect 37 0 44 0;#P hidden connect 14 0 38 0;#P fasten 43 0 37 1 181 603 112 603;#P connect 37 0 45 0;#P fasten 43 0 37 2 181 603 140 603;#P fasten 24 1 27 0 59 432 150 432;#P connect 45 0 46 0;#P hidden connect 14 0 15 0;#P fasten 24 2 28 0 105 429 210 429;#P hidden connect 16 1 0 1;#P hidden connect 0 1 1 1;#P hidden fasten 14 0 16 1 15 72 251 72;#P hidden connect 1 1 18 0;#P hidden connect 34 1 31 0;#P hidden connect 24 1 34 0;#P connect 4 0 2 0;#P connect 3 0 2 0;#P hidden connect 24 2 33 0;#P hidden connect 33 1 32 0;#P hidden connect 0 1 47 0;#P hidden fasten 1 0 8 1 5 611 632 611;#P fasten 8 1 9 0 632 706 771 706;#P connect 9 0 10 0;#P hidden fasten 12 1 11 1 833 158 833 158;#P hidden fasten 12 2 11 2 956 158 956 158;#P hidden fasten 11 1 6 1 833 223 958 223;#P hidden fasten 11 2 6 2 956 223 1207 223;#P pop;