max v2;#N vpatcher 47 44 1269 686;#P origin 12 -33;#P window setfont "Sans Serif" 9.;#P window linecount 1;#N vpatcher 336 236 936 636;#P window setfont "Sans Serif" 9.;#P newex 50 50 49 196617 qmetro 2;#P newex 50 80 61 196617 jit.qt.movie;#P inlet 120 33 15 0;#P inlet 50 30 15 0;#P outlet 50 102 15 0;#P connect 1 0 4 0;#P connect 2 0 3 0;#P connect 4 0 3 0;#P connect 3 0 0 0;#P pop;#P newobj 72 52 45 196617 p movie;#P toggle 72 32 15 0;#P message 95 32 28 196617 read;#P user jit.pwindow 612 348 322 242 0 1 0 0 1 0;#P window linecount 2;#P message 561 48 80 196617 \; jmod.init bang;#P user jit.fpsgui 176 45 60 196617 0;#P window linecount 1;#P message 12 370 39 196617 /clear;#P comment 203 371 47 196617 y;#P hidden newex 274 612 46 196617 route 0.;#P hidden newex 568 327 46 196617 route 0.;#P user multiSlider 594 349 20 240 0. 1. 1 2681 15 0 0 2 0 0 0;#M frgb 0 0 0;#M brgb 255 255 255;#M rgb2 127 127 127;#M rgb3 0 0 0;#M rgb4 37 52 91;#M rgb5 74 105 182;#M rgb6 112 158 18;#M rgb7 149 211 110;#M rgb8 187 9 201;#M rgb9 224 62 37;#M rgb10 7 114 128;#P user multiSlider 274 589 320 20 0. 1. 1 2680 15 0 0 2 0 0 0;#M frgb 0 0 0;#M brgb 255 255 255;#M rgb2 127 127 127;#M rgb3 0 0 0;#M rgb4 37 52 91;#M rgb5 74 105 182;#M rgb6 112 158 18;#M rgb7 149 211 110;#M rgb8 187 9 201;#M rgb9 224 62 37;#M rgb10 7 114 128;#P comment 141 370 47 196617 x;#P comment 83 369 47 196617 quantity;#P flonum 198 345 53 9 0 0 0 3 0 0 0 221 221 221 222 222 222 0 0 0;#P flonum 138 345 53 9 0 0 0 3 0 0 0 221 221 221 222 222 222 0 0 0;#P newex 1 344 77 196617 jmod.autoscale;#P flonum 81 345 53 9 0 0 0 3 0 0 0 221 221 221 222 222 222 0 0 0;#P newex 1 312 150 196617 jmod.oscroute /quantity /x /y;#P user multiSlider 1 402 160 87 0. 1. 1 3961 15 0 0 2 0 0 0;#M frgb 0 0 0;#M brgb 255 255 255;#M rgb2 127 127 127;#M rgb3 0 0 0;#M rgb4 37 52 91;#M rgb5 74 105 182;#M rgb6 112 158 18;#M rgb7 149 211 110;#M rgb8 187 9 201;#M rgb9 224 62 37;#M rgb10 7 114 128;#P newex 1 287 113 196617 jmod.oscroute /motion;#P user jit.pwindow 273 348 322 242 0 1 0 0 1 0;#P window linecount 3;#P comment 166 403 87 196617 Currently only works for greyscale images.;#P bpatcher 1 83 255 60 0 0 jmod.orsize%.mod 0 /orsize%;#P objectname /edge;#P window linecount 1;#N vpatcher 283 218 546 488;#P toggle 50 93 15 0;#P window setfont "Sans Serif" 9.;#P newex 50 71 46 196617 t 1 open;#P newex 50 50 41 196617 sel 1 0;#P newex 50 114 51 196617 qmetro 2;#P newex 50 136 56 196617 jit.qt.grab;#P inlet 50 30 15 0;#P outlet 50 158 15 0;#P connect 1 0 4 0;#P connect 4 0 5 0;#P connect 5 0 6 0;#P connect 4 1 6 0;#P connect 6 0 3 0;#P connect 5 1 2 0;#P connect 3 0 2 0;#P connect 2 0 0 0;#P pop;#P newobj 4 52 54 196617 p webcam;#P toggle 4 32 15 0;#P bpatcher 774 23 255 120 0 0 jmod.input~.mod 0 /input~;#P objectname degrade.mod[1];#P bpatcher 774 149 255 60 0 0 jmod.echo~.mod 0 /echo;#P objectname /echo;#P bpatcher 273 99 255 60 0 0 jmod.control.mod 0;#P objectname jmod.control.mod;#P bpatcher 773 219 510 120 0 0 jmod.output~.mod 0 /output~;#P objectname jmod.input~.mod;#P bpatcher 273 34 255 60 0 0 jmod.cuelist.mod 0 /cuescript;#P objectname jmod.cuelist.mod;#P message 285 187 39 196617 /clear;#P message 275 169 298 196617 /create link /motion/motion/quantity * 10000. -> /echo/right;#P bpatcher 275 207 255 120 0 0 jmod.mapper.mod 0;#P objectname /mapper;#P bpatcher 1 203 255 60 0 0 jmod.motion%.mod 0 /motion;#P objectname /motion;#P bpatcher 1 143 255 60 0 0 jmod.brcosa%.mod 0 /brcosa;#P objectname /brcosa;#P window linecount 15;#P user com 589 100 153 196617 206;#K set 0 21608 26995 8304 24948 25448 8307 26735 30579 8289 8290 24947 26979 8293 30817 28016 27749 8303 26144 26735 30496 26996 8297 29472 28783 29555 26978 27749 8308 28448 25711 8310 26980 25967 8289 28257 27769 29545 29472 25185 29541 25632 28526 8294 29281 28005 8292 26982 26213 29285 28259 25902 8265 29728 26995 8297 28016 28530 29793 28276 8308 28448 25441 27753 25202 24948 25888 29800 25888 29561 29556 25965 8311 25964 27680 30067 26990 26400 29800 25888 25202 26983 26740 28261 29555 8289 28260 8291 28526 29810 24947 29728 26229 28259 29801 28526 29484 8289 28260 8289 25706;#K set 100 30067 29801 28263 8308 26725 8308 26738 25971 26735 27748 8297 28192 29800 25888 28015 29801 28526 8301 28516 30060 25902 8224 3341 17260 26979 27497 28263 8303 28192 29800 25888 25458 25953 29797 8300 26990 27424 28005 29555 24935 25888 26990 8308 26725 8301 24944 28777 28263 8301 28516 30060 25888 29807 8308 26725 8300 25958 29728 30569 27756 8307 25972 8309 28704 24864 28001 28784 26990 26400 25189 29815 25957 28192 29800 25888 28533 29808 30068 8303 26144 29800 25888 28015 29801 28526 8301 28516 30060 25888 24942 25632 29800 25888 25955 26735 8301 28516 30060 25888 29807;#K set 200 8308 26725 8306 26983 26740 11808;#K end;#P connect 2 0 16 0;#P connect 16 0 18 0;#P connect 18 0 20 0;#P connect 30 0 20 0;#P connect 20 0 17 0;#P connect 11 0 12 0;#P connect 35 0 36 0;#P fasten 18 0 19 0 6 339 86 339;#P fasten 34 0 36 1 100 49 112 49;#P fasten 18 1 21 0 52 336 143 336;#P hidden connect 36 0 31 0;#P hidden connect 12 0 31 0;#P fasten 18 2 22 0 98 333 203 333;#P hidden fasten 36 0 13 1 77 76 251 76;#P hidden fasten 12 0 13 1 9 72 251 72;#P hidden connect 13 1 1 1;#P hidden connect 1 1 2 1;#P hidden connect 2 1 15 0;#P hidden connect 28 1 25 0;#P hidden connect 18 1 28 0;#P connect 5 0 3 0;#P connect 4 0 3 0;#P hidden connect 18 2 27 0;#P hidden connect 27 1 26 0;#P hidden connect 1 1 33 0;#P hidden fasten 10 1 9 1 901 152 901 152;#P hidden fasten 10 2 9 2 1023 152 1023 152;#P hidden fasten 9 1 7 1 901 217 1028 217;#P hidden fasten 9 2 7 2 1023 217 1278 217;#P pop;