max v2;
#N vpatcher 84 44 595 509;
#P window setfont Verdana 9.;
#P window linecount 1;
#P comment 219 295 100 472055817 loadtime in ms;
#P window setfont "Sans Serif" 9.;
#P message 99 332 319 196617 script new var3 newex 264 268 35 472055817 jmod.degrade~.mod;
#P window setfont Verdana 9.;
#P number 129 294 90 9 0 0 0 7203 0 0 0 221 221 221 222 222 222 0 0 0;
#P newex 129 271 35 472055817 timer;
#P newex 122 238 40 472055817 b 3;
#P button 122 216 15 0;
#P window setfont "Sans Serif" 9.;
#P message 127 351 314 196617 script new var3 bpatcher 273 83 256 61 0 0 jmod.gui.1Uh.v.mxt 0;
#P window setfont Verdana 9.;
#N thispatcher;
#Q end;
#P newobj 127 374 66 472055817 thispatcher;
#P window linecount 2;
#P comment 141 209 100 472055817 click to instantiate!;
#P connect 4 1 7 0;
#P connect 3 0 4 0;
#P connect 7 0 1 0;
#P connect 2 0 1 0;
#P connect 4 2 5 0;
#P connect 5 0 6 0;
#P connect 4 0 5 1;
#P pop;
