max v2;#N vpatcher 228 170 828 570;#P window setfont "Sans Serif" 9.;#P window linecount 1;#N vpatcher 20 74 707 398;#P window setfont "Sans Serif" 9.;#P newex 422 57 67 196617 pattrstorage;#X client_rect 20 74 660 314;#X storage_rect 0 0 640 240;#P objectname u790000011;#P message 111 157 51 196617 /time \$1;#P newex 111 189 88 196617 jmod.qmetro.mxt;#P objectname jmod.qmetro;#P message 334 54 33 196617 clear;#P flonum 442 225 47 9 0 0 0 3 0 0 0 221 221 221 222 222 222 0 0 0;#P window linecount 1;#P comment 442 247 35 196617 max;#P comment 388 247 35 196617 min;#P flonum 550 225 47 9 0 0 0 3 0 0 0 221 221 221 222 222 222 0 0 0;#P flonum 496 225 47 9 0 0 0 3 0 0 0 221 221 221 222 222 222 0 0 0;#P flonum 388 225 47 9 0 0 0 3 0 0 0 221 221 221 222 222 222 0 0 0;#P flonum 334 225 47 9 0 0 0 3 0 0 0 221 221 221 222 222 222 0 0 0;#P comment 334 247 35 196617 count;#P comment 496 247 33 196617 mean;#P window linecount 2;#P comment 550 247 52 196617 standard deviation;#P window linecount 1;#P newex 334 182 282 196617 jcom.stats;#P flonum 217 223 93 9 0 0 0 3 0 0 0 221 221 221 222 222 222 0 0 0;#P window linecount 0;#P newex 44 76 40 196617 t b b b;#P newex 217 148 102 196617 jcom.cpu_timer.mxt;#P button 44 54 15 0;#P newex 59 126 63 196617 Uzi 120000;#P connect 1 0 3 0;#P connect 3 1 0 0;#P connect 0 2 18 0;#P connect 18 0 17 0;#P connect 3 2 2 0;#P connect 2 0 4 0;#P fasten 3 0 2 1 49 116 314 116;#P connect 16 0 5 0;#P fasten 2 0 5 0 222 173 339 173;#P connect 5 0 9 0;#P connect 5 1 10 0;#P connect 5 2 15 0;#P connect 5 3 11 0;#P connect 5 4 12 0;#P pop;#P newobj 49 234 142 196617 p jamoma_with_pattrstorage;#P objectname with_pattr[2];#N vpatcher 20 74 707 398;#P window setfont "Sans Serif" 9.;#P message 111 157 51 196617 /time \$1;#P newex 111 189 88 196617 jmod.qmetro.mxt;#P message 334 54 33 196617 clear;#P flonum 442 225 47 9 0 0 0 3 0 0 0 221 221 221 222 222 222 0 0 0;#P window linecount 1;#P comment 442 247 35 196617 max;#P comment 388 247 35 196617 min;#P flonum 550 225 47 9 0 0 0 3 0 0 0 221 221 221 222 222 222 0 0 0;#P flonum 496 225 47 9 0 0 0 3 0 0 0 221 221 221 222 222 222 0 0 0;#P flonum 388 225 47 9 0 0 0 3 0 0 0 221 221 221 222 222 222 0 0 0;#P flonum 334 225 47 9 0 0 0 3 0 0 0 221 221 221 222 222 222 0 0 0;#P comment 334 247 35 196617 count;#P comment 496 247 33 196617 mean;#P window linecount 2;#P comment 550 247 52 196617 standard deviation;#P window linecount 1;#P newex 334 182 282 196617 jcom.stats;#P flonum 217 223 93 9 0 0 0 3 0 0 0 221 221 221 222 222 222 0 0 0;#P window linecount 0;#P newex 44 76 40 196617 t b b b;#P newex 217 148 102 196617 jcom.cpu_timer.mxt;#P button 44 54 15 0;#P newex 59 126 63 196617 Uzi 120000;#P connect 1 0 3 0;#P connect 3 1 0 0;#P connect 0 2 18 0;#P connect 18 0 17 0;#P connect 3 2 2 0;#P connect 2 0 4 0;#P fasten 3 0 2 1 49 116 314 116;#P fasten 2 0 5 0 222 173 339 173;#P connect 16 0 5 0;#P connect 5 0 9 0;#P connect 5 1 10 0;#P connect 5 2 15 0;#P connect 5 3 11 0;#P connect 5 4 12 0;#P pop;#P newobj 49 184 156 196617 p jamoma_without_pattrstorage;#P objectname with_pattr[1];#N vpatcher 20 74 673 410;#P window setfont "Sans Serif" 9.;#P newex 403 54 67 196617 pattrstorage;#X client_rect 20 74 660 314;#X storage_rect 0 0 640 240;#P objectname u663000002;#P newex 66 166 40 196617 pattr;#X prestore 1 0 100000;#P objectname u793000001;#P message 293 54 33 196617 clear;#P flonum 401 225 47 9 0 0 0 3 0 0 0 221 221 221 222 222 222 0 0 0;#P window linecount 1;#P comment 401 247 35 196617 max;#P comment 347 247 35 196617 min;#P flonum 509 225 47 9 0 0 0 3 0 0 0 221 221 221 222 222 222 0 0 0;#P flonum 455 225 47 9 0 0 0 3 0 0 0 221 221 221 222 222 222 0 0 0;#P flonum 347 225 47 9 0 0 0 3 0 0 0 221 221 221 222 222 222 0 0 0;#P flonum 293 225 47 9 0 0 0 3 0 0 0 221 221 221 222 222 222 0 0 0;#P comment 293 247 35 196617 count;#P comment 455 247 33 196617 mean;#P window linecount 2;#P comment 509 247 52 196617 standard deviation;#P window linecount 1;#P newex 293 182 282 196617 jcom.stats;#P flonum 176 223 93 9 0 0 0 3 0 0 0 221 221 221 222 222 222 0 0 0;#P window linecount 0;#P newex 44 76 40 196617 t b b b;#P newex 176 148 102 196617 jcom.cpu_timer.mxt;#P button 44 54 15 0;#P number 111 168 55 9 0 0 0 3 0 0 0 221 221 221 222 222 222 0 0 0;#P objectname number;#P newex 79 217 42 196617 qmetro;#P newex 59 126 63 196617 Uzi 120000;#P connect 3 0 5 0;#P connect 5 1 0 0;#P connect 0 2 2 0;#P connect 19 1 2 0;#P connect 2 0 1 1;#P connect 5 2 4 0;#P connect 4 0 6 0;#P fasten 5 0 4 1 49 116 273 116;#P connect 18 0 7 0;#P fasten 4 0 7 0 181 173 298 173;#P connect 7 0 11 0;#P connect 7 1 12 0;#P connect 7 2 17 0;#P connect 7 3 13 0;#P connect 7 4 14 0;#P pop;#P newobj 49 124 67 196617 p with_pattr;#P objectname with_pattr;#N vpatcher 20 74 673 410;#P window setfont "Sans Serif" 9.;#P message 293 54 33 196617 clear;#P flonum 401 225 47 9 0 0 0 3 0 0 0 221 221 221 222 222 222 0 0 0;#P window linecount 1;#P comment 401 247 35 196617 max;#P comment 347 247 35 196617 min;#P flonum 509 225 47 9 0 0 0 3 0 0 0 221 221 221 222 222 222 0 0 0;#P flonum 455 225 47 9 0 0 0 3 0 0 0 221 221 221 222 222 222 0 0 0;#P flonum 347 225 47 9 0 0 0 3 0 0 0 221 221 221 222 222 222 0 0 0;#P flonum 293 225 47 9 0 0 0 3 0 0 0 221 221 221 222 222 222 0 0 0;#P comment 293 247 35 196617 count;#P comment 455 247 33 196617 mean;#P window linecount 2;#P comment 509 247 52 196617 standard deviation;#P window linecount 1;#P newex 293 182 282 196617 jcom.stats;#P flonum 176 223 93 9 0 0 0 3 0 0 0 221 221 221 222 222 222 0 0 0;#P window linecount 0;#P newex 44 76 40 196617 t b b b;#P newex 176 148 102 196617 jcom.cpu_timer.mxt;#P button 44 54 15 0;#P number 111 168 55 9 0 0 0 3 0 0 0 221 221 221 222 222 222 0 0 0;#P newex 79 217 42 196617 qmetro;#P newex 59 126 63 196617 Uzi 120000;#P connect 3 0 5 0;#P connect 5 1 0 0;#P connect 0 2 2 0;#P connect 2 0 1 1;#P connect 5 2 4 0;#P connect 4 0 6 0;#P fasten 5 0 4 1 49 116 273 116;#P fasten 4 0 7 0 181 173 298 173;#P connect 18 0 7 0;#P connect 7 0 11 0;#P connect 7 1 12 0;#P connect 7 2 17 0;#P connect 7 3 13 0;#P connect 7 4 14 0;#P pop;#P newobj 49 74 70 196617 p metro_only;#P pop;