max v2;
#N vpatcher 305 50 1070 720;
#P toggle 12 431 15 0;
#P window setfont "Sans Serif" 9.;
#P message 12 449 55 9109513 /bypass \$1;
#P toggle 12 381 15 0;
#P message 12 399 56 9109513 /preview \$1;
#P button 381 298 15 0;
#P window linecount 2;
#P message 533 64 62 9109513 \; max refresh;
#P window linecount 1;
#P newex 622 70 27 9109513 qlim;
#P message 0 264 79 9109513 /restore_defaults;
#P bpatcher 87 326 256 61 0 0 jmod.wake%.mod 0;
#P objectname jmod.edge%.mod[3];
#P bpatcher 87 422 256 61 0 0 jmod.op%.mod 0;
#P objectname jmod.edge%.mod[2];
#P bpatcher 87 250 256 61 0 0 jmod.mblur%.mod 0;
#P objectname jmod.edge%.mod[1];
#P message 11 42 75 9109513 /algorithm Sobel;
#P message 22 60 92 9109513 /algorithm Robcross;
#P newex 622 93 72 9109513 send jmod.init;
#P newex 622 47 45 9109513 loadbang;
#P flonum 63 89 35 9 0.5 0 1 139 0 0 0 221 221 221 222 222 222 0 0 0;
#P message 63 108 50 9109513 /thresh \$1;
#P message 75 136 81 9109513 /thresh 0.75 5000;
#P user jit.fpsgui 418 616 60 9109513 0;
#P flonum 384 52 35 9 0 0 0 139 0 0 0 221 221 221 222 222 222 0 0 0;
#P message 384 73 42 9109513 rate \$1;
#P message 248 73 28 9109513 read;
#P message 318 73 27 9109513 stop;
#P message 284 73 31 9109513 start;
#P flonum 219 52 35 9 0.5 0 1 139 0 0 0 221 221 221 222 222 222 0 0 0;
#P toggle 185 52 15 0;
#P newex 185 72 45 9109513 qmetro 2;
#P message 348 73 31 9109513 clear;
#P newex 185 116 103 9109513 jit.qt.movie 320 240;
#B color 5;
#P user jit.pwindow 417 369 322 242 0 1 0 0 1 0;
#P bpatcher 87 174 256 61 0 0 jmod.edge%.mod 0;
#P objectname jmod.edge%.mod;
#P connect 28 0 27 0;
#P connect 30 0 29 0;
#P connect 15 0 14 0;
#P fasten 13 0 0 0 80 162 92 162;
#P fasten 14 0 0 0 68 164 92 164;
#P fasten 18 0 0 0 27 166 92 166;
#P fasten 19 0 0 0 16 168 92 168;
#P connect 23 0 20 0;
#P connect 29 0 21 0;
#P connect 27 0 21 0;
#P connect 5 0 4 0;
#P fasten 10 0 2 0 389 99 190 99;
#P fasten 9 0 2 0 253 99 190 99;
#P fasten 8 0 2 0 323 99 190 99;
#P fasten 7 0 2 0 289 99 190 99;
#P fasten 3 0 2 0 353 99 190 99;
#P fasten 4 0 2 0 190 102 190 102;
#P fasten 2 0 21 1 190 149 348 149 348 410 215 410;
#P connect 6 0 4 1;
#P fasten 2 0 0 1 190 153 338 153;
#P connect 0 1 20 1;
#P connect 20 1 22 1;
#P fasten 22 1 21 2 338 403 338 403;
#P connect 20 1 26 0;
#P connect 11 0 10 0;
#P connect 20 1 1 0;
#P connect 1 0 12 0;
#P connect 16 0 24 0;
#P connect 24 0 17 0;
#P pop;
