max v2;
#N vpatcher 7 44 670 636;
#P bpatcher 188 487 255 60 0 0 jmod.output%.mxt 0;
#P objectname /output%;
#P window setfont "Sans Serif" 9.;
#P user jit.fpsgui 452 117 60 196617 0;
#P bpatcher 187 92 255 60 0 0 jmod.input%.mxt 0;
#P objectname /input%;
#P window linecount 1;
#P message 542 143 80 196617 \; jmod.init bang;
#P window linecount 2;
#P message 543 177 62 196617 \; max refresh;
#P window linecount 1;
#P hidden newex 542 117 27 196617 qlim;
#P message 25 230 98 196617 /restore_defaults;
#P bpatcher 187 328 255 60 0 0 jmod.wake%.mxt 0;
#P objectname /wake;
#P bpatcher 188 404 255 60 0 0 jmod.op%.mxt 0;
#P objectname /op;
#P bpatcher 187 252 255 60 0 0 jmod.mblur%.mxt 0;
#P objectname /mblur;
#P message 11 65 94 196617 /algorithm Sobel;
#P message 22 83 111 196617 /algorithm Robcross;
#P hidden newex 542 94 45 196617 loadbang;
#P flonum 63 103 35 9 0.5 0 1 3 0 0 0 221 221 221 222 222 222 0 0 0;
#P message 63 122 64 196617 /thresh \$1;
#P message 75 142 100 196617 /thresh 0.75 5000;
#P bpatcher 187 176 255 60 0 0 jmod.edge%.mxt 0;
#P objectname /edge;
#P connect 3 0 2 0;
#P fasten 6 0 0 0 16 168 192 168;
#P fasten 5 0 0 0 27 166 192 166;
#P fasten 2 0 0 0 68 164 192 164;
#P fasten 1 0 0 0 80 162 192 162;
#P fasten 10 0 7 0 30 248 192 248;
#P fasten 9 1 8 1 437 396 315 396;
#P connect 14 1 0 1;
#P connect 0 1 7 1;
#P connect 7 1 9 1;
#P connect 8 1 16 1;
#P fasten 14 1 15 0 437 157 447 157 447 111 457 111;
#P hidden connect 4 0 11 0;
#P hidden connect 11 0 13 0;
#P pop;
