max v2;#N vpatcher 431 146 1019 731;#P bpatcher 21 480 255 60 0 0 jmod.control.mxt 0 /control;#P objectname jmod.degrade~.mxt[7];#P window setfont "Sans Serif" 9.;#P window linecount 1;#P comment 48 242 197 196617 NOTE: This does not work yet!;#B frgb 149 149 149;#P comment 74 207 197 196617 control the two degrade modules together;#B frgb 149 149 149;#P flonum 37 206 35 9 0 0 0 3 0 0 0 221 221 221 222 222 222 0 0 0;#P message 37 224 120 196617 /degrade.*/sr_ratio \$1;#P window linecount 2;#P comment 54 145 187 196617 control the /audio/mute of all modules \, the understand it;#B frgb 149 149 149;#P window linecount 1;#P message 37 173 95 196617 /*/audio/mute \$1;#P toggle 37 150 15 0;#P comment 59 100 193 196617 control the /gain of one module \, as usual;#B frgb 149 149 149;#P flonum 21 98 35 9 0 0 0 3 0 0 0 221 221 221 222 222 222 0 0 0;#P message 21 116 114 196617 /filter~/audio/gain \$1;#P newex 21 394 86 196617 prepend /remote;#P bpatcher 300 420 255 120 0 0 jmod.output~.mxt 0 /output~;#P objectname jmod.degrade~.mxt[6];#P bpatcher 300 29 255 120 0 0 jmod.input~.mxt 0 /input~;#P objectname jmod.degrade~.mxt[5];#P comment 36 68 226 196617 addressing modules using wildcards;#B frgb 149 149 149;#P hidden newex 0 21 88 196617 bgcolor 35 35 35;#P window setfont "Sans Serif" 18.;#P comment 36 41 200 196626 wildcard demo;#B frgb 149 149 149;#P user panel 21 30 255 60;#X brgb 46 46 46;#X frgb 0 0 0;#X border 0;#X rounded 7;#X shadow 0;#X done;#P bpatcher 21 420 255 60 0 0 jmod.cuelist.mxt 0 /cuelist;#P objectname jmod.degrade~.mxt[4];#P bpatcher 300 353 255 60 0 0 jmod.filter~.mxt 0 /filter~;#P objectname jmod.degrade~.mxt[3];#P bpatcher 300 287 255 60 0 0 jmod.degrade~.mxt 0 /degrade.2;#P objectname jmod.degrade~.mxt[2];#P bpatcher 300 221 255 60 0 0 jmod.echo~.mxt 0 /echo~;#P objectname jmod.degrade~.mxt[1];#P bpatcher 300 155 255 60 0 0 jmod.degrade~.mxt 0 /degrade.1;#P objectname jmod.degrade~.mxt;#P connect 13 0 12 0;#P fasten 18 0 11 0 42 247 26 247;#P fasten 16 0 11 0 42 194 26 194;#P connect 12 0 11 0;#P connect 11 0 4 0;#P connect 15 0 16 0;#P connect 19 0 18 0;#P connect 9 1 0 1;#P connect 0 1 1 1;#P connect 1 1 2 1;#P connect 2 1 3 1;#P connect 3 1 10 1;#P connect 9 2 0 2;#P connect 0 2 1 2;#P connect 1 2 2 2;#P connect 2 2 3 2;#P connect 3 2 10 2;#P pop;