max v2;
#N vpatcher 39 228 625 471;
#P origin 0 57;
#P toggle 383 75 15 0;
#P window setfont "Sans Serif" 9.;
#P newex 383 116 54 9109513 select 0 1;
#P message 405 161 141 9109513 script size varname 255 120;
#P message 427 140 135 9109513 script size varname 255 18;
#N thispatcher;
#Q end;
#P newobj 405 181 60 9109513 thispatcher;
#P window setfont Tahoma 9.;
#P comment 42 44 255 10813449 by Matthew Aidekman;
#P bpatcher 56 78 255 120 0 0 jmod.input~.mod 0;
#P objectname varname;
#P comment 30 29 320 10813449 WindowShade example;
#P window setfont "Sans Serif" 9.;
#P comment 351 77 34 9109513 shade;
#P connect 8 0 7 0;
#P connect 7 0 6 0;
#P connect 6 0 4 0;
#P connect 5 0 4 0;
#P connect 7 1 5 0;
#P pop;
