max v2;#N vpatcher 69 69 907 485;#P origin 0 -42;#P window setfont "Sans Serif" 9.;#P window linecount 1;#P hidden newex 377 74 395 196617 jcom.parameter algorithm @type menu @description "Choose which algorithm to use";#P objectname algorithm;#P comment 75 32 53 196617 algorithm;#B frgb 149 149 149;#P user ubumenu 131 30 60 196617 0 1 1 0;#X add pass;#X add *;#X add /;#X add +;#X add -;#X add +m;#X add -m;#X add %;#X add min;#X add max;#X add abs;#X add avg;#X add absdiff;#X add wrap;#X add fold;#X add !pass;#X add !/;#X add !-;#X add !%;#X add &;#X add |;#X add ^;#X add ~;#X add >>;#X add <<;#X add &&;#X add ||;#X add !;#X add >;#X add <;#X add >=;#X add <=;#X add ==;#X add !=;#X add >p;#X add <p;#X add >=p;#X add <=p;#X add ==p;#X add !=p;#X add sin;#X add cos;#X add tan;#X add asin;#X add acos;#X add atan;#X add atan2;#X add sinh;#X add cosh;#X add tanh;#X add asinh;#X add acosh;#X add atanh;#X add exp;#X add exp2;#X add ln;#X add log2;#X add log10;#X add hypot;#X add pow;#X add sqrt;#X add ceil;#X add floor;#X add round;#X add trunc;#X add ignore;#X prefix_set 0 0 <none> 0;#X pattrmode 1;#P hidden newex 364 269 58 196617 jcom.out 1;#P hidden inlet 459 142 13 0;#P hidden comment 474 142 65 196617 VIDEO INPUT;#P hidden newex 459 161 78 196617 jcom.in 1;#P hidden newex 364 207 47 196617 pcontrol;#P hidden newex 364 186 78 196617 jcom.pass open;#P hidden outlet 364 298 13 0;#P hidden comment 407 300 81 196617 VIDEO OUTPUT;#P hidden newex 364 232 105 196617 jalg.similarity%;#P user ubumenu 38 30 25 196617 0 1 1 0;#X add 1;#X add 2;#X add 3;#X add 4;#X prefix_set 0 0 <none> 0;#X pattrmode 1;#P comment 7 32 31 196617 mode;#B frgb 149 149 149;#P window linecount 2;#P hidden newex 377 34 284 196617 jcom.parameter mode @type menu @description "There are four different modes with an increasing amount of visibility";#P objectname mode;#P window linecount 3;#P hidden newex 0 109 345 196617 jcom.hub jmod.similarity% @size 1U-half @module_type video @algorithm_type jitter @description "Creates a similarity matrix from a running video input. This could be either a regular video or a motiongram.";#P objectname jmod.hub;#P window linecount 1;#P hidden message 103 87 125 196617 /documentation/generate;#B color 3;#P hidden comment 14 84 79 196617 command input;#P hidden outlet 0 171 13 0;#P hidden inlet 0 84 13 0;#P bpatcher 0 0 256 60 0 0 jcom.gui 0;#P objectname jcom.gui;#P hidden connect 1 0 5 0;#P hidden fasten 4 0 5 0 108 105 5 105;#P hidden connect 5 0 2 0;#P hidden connect 6 0 8 0;#P hidden connect 20 0 18 0;#P hidden fasten 14 1 12 0 498 182 369 182;#P hidden connect 12 0 13 0;#P hidden fasten 12 1 9 0 437 228 369 228;#P hidden connect 13 0 9 0;#P hidden connect 9 0 17 0;#P hidden connect 17 0 11 0;#P hidden connect 8 0 6 0;#P hidden connect 18 0 20 0;#P hidden connect 16 0 14 0;#P hidden connect 14 0 9 1;#P pop;