{
	"patcher" : 	{
		"fileversion" : 1,
		"rect" : [ 140.0, 44.0, 1046.0, 775.0 ],
		"bglocked" : 0,
		"defrect" : [ 140.0, 44.0, 1046.0, 775.0 ],
		"openrect" : [ 0.0, 0.0, 0.0, 0.0 ],
		"openinpresentation" : 1,
		"default_fontsize" : 10.0,
		"default_fontface" : 0,
		"default_fontname" : "Verdana",
		"gridonopen" : 0,
		"gridsize" : [ 5.0, 5.0 ],
		"gridsnaponopen" : 0,
		"toolbarvisible" : 1,
		"boxanimatetime" : 200,
		"imprint" : 0,
		"metadata" : [  ],
		"boxes" : [ 			{
				"box" : 				{
					"maxclass" : "comment",
					"text" : "Temporary hack while we're waiting for a Max 5 compatible version of the real thing.",
					"linecount" : 4,
					"presentation_linecount" : 3,
					"presentation_rect" : [ 15.0, 230.0, 169.0, 43.0 ],
					"patching_rect" : [ 15.0, 345.0, 154.0, 55.0 ],
					"fontsize" : 10.0,
					"presentation" : 1,
					"numinlets" : 1,
					"numoutlets" : 0,
					"id" : "obj-8",
					"fontname" : "Verdana",
					"frgb" : [ 0.333333, 0.333333, 0.333333, 1.0 ]
				}

			}
, 			{
				"box" : 				{
					"maxclass" : "newobj",
					"text" : "p xyz2aed",
					"outlettype" : [ "" ],
					"patching_rect" : [ 210.0, 600.0, 62.0, 19.0 ],
					"fontsize" : 10.0,
					"numinlets" : 1,
					"numoutlets" : 1,
					"id" : "obj-2",
					"fontname" : "Verdana",
					"patcher" : 					{
						"fileversion" : 1,
						"rect" : [ 25.0, 69.0, 366.0, 307.0 ],
						"bglocked" : 0,
						"defrect" : [ 25.0, 69.0, 366.0, 307.0 ],
						"openrect" : [ 0.0, 0.0, 0.0, 0.0 ],
						"openinpresentation" : 0,
						"default_fontsize" : 10.0,
						"default_fontface" : 0,
						"default_fontname" : "Verdana",
						"gridonopen" : 0,
						"gridsize" : [ 5.0, 5.0 ],
						"gridsnaponopen" : 0,
						"toolbarvisible" : 1,
						"boxanimatetime" : 200,
						"imprint" : 0,
						"metadata" : [  ],
						"boxes" : [ 							{
								"box" : 								{
									"maxclass" : "outlet",
									"patching_rect" : [ 55.0, 215.0, 25.0, 25.0 ],
									"numinlets" : 1,
									"numoutlets" : 0,
									"id" : "obj-5",
									"comment" : ""
								}

							}
, 							{
								"box" : 								{
									"maxclass" : "inlet",
									"outlettype" : [ "" ],
									"patching_rect" : [ 55.0, 50.0, 25.0, 25.0 ],
									"numinlets" : 0,
									"numoutlets" : 1,
									"id" : "obj-4",
									"comment" : ""
								}

							}
, 							{
								"box" : 								{
									"maxclass" : "newobj",
									"text" : "jcom.dataspace @dataspace position @input xyz @output aed",
									"linecount" : 2,
									"outlettype" : [ "", "" ],
									"patching_rect" : [ 55.0, 85.0, 200.0, 31.0 ],
									"fontsize" : 10.0,
									"numinlets" : 1,
									"numoutlets" : 2,
									"id" : "obj-85",
									"fontname" : "Verdana"
								}

							}
, 							{
								"box" : 								{
									"maxclass" : "newobj",
									"text" : "zl join",
									"outlettype" : [ "", "" ],
									"patching_rect" : [ 55.0, 190.0, 41.0, 19.0 ],
									"fontsize" : 10.0,
									"numinlets" : 2,
									"numoutlets" : 2,
									"id" : "obj-3",
									"fontname" : "Verdana"
								}

							}
, 							{
								"box" : 								{
									"maxclass" : "newobj",
									"text" : "* 10.",
									"outlettype" : [ "float" ],
									"patching_rect" : [ 90.0, 165.0, 37.0, 19.0 ],
									"fontsize" : 10.0,
									"numinlets" : 2,
									"numoutlets" : 1,
									"id" : "obj-2",
									"fontname" : "Verdana"
								}

							}
, 							{
								"box" : 								{
									"maxclass" : "newobj",
									"text" : "zl slice 2",
									"outlettype" : [ "", "" ],
									"patching_rect" : [ 55.0, 135.0, 54.0, 19.0 ],
									"fontsize" : 10.0,
									"numinlets" : 2,
									"numoutlets" : 2,
									"id" : "obj-1",
									"fontname" : "Verdana"
								}

							}
 ],
						"lines" : [ 							{
								"patchline" : 								{
									"source" : [ "obj-2", 0 ],
									"destination" : [ "obj-3", 1 ],
									"hidden" : 0,
									"midpoints" : [  ]
								}

							}
, 							{
								"patchline" : 								{
									"source" : [ "obj-1", 1 ],
									"destination" : [ "obj-2", 0 ],
									"hidden" : 0,
									"midpoints" : [  ]
								}

							}
, 							{
								"patchline" : 								{
									"source" : [ "obj-4", 0 ],
									"destination" : [ "obj-85", 0 ],
									"hidden" : 0,
									"midpoints" : [  ]
								}

							}
, 							{
								"patchline" : 								{
									"source" : [ "obj-3", 0 ],
									"destination" : [ "obj-5", 0 ],
									"hidden" : 0,
									"midpoints" : [  ]
								}

							}
, 							{
								"patchline" : 								{
									"source" : [ "obj-85", 0 ],
									"destination" : [ "obj-1", 0 ],
									"hidden" : 0,
									"midpoints" : [  ]
								}

							}
, 							{
								"patchline" : 								{
									"source" : [ "obj-1", 0 ],
									"destination" : [ "obj-3", 0 ],
									"hidden" : 0,
									"midpoints" : [  ]
								}

							}
 ]
					}
,
					"saved_object_attributes" : 					{
						"default_fontface" : 0,
						"globalpatchername" : "",
						"default_fontname" : "Verdana",
						"fontface" : 0,
						"fontsize" : 10.0,
						"default_fontsize" : 10.0,
						"fontname" : "Verdana"
					}

				}

			}
, 			{
				"box" : 				{
					"maxclass" : "newobj",
					"text" : "p hide",
					"outlettype" : [ "" ],
					"patching_rect" : [ 395.0, 165.0, 42.0, 19.0 ],
					"fontsize" : 10.0,
					"numinlets" : 1,
					"numoutlets" : 1,
					"id" : "obj-7",
					"fontname" : "Verdana",
					"patcher" : 					{
						"fileversion" : 1,
						"rect" : [ 25.0, 69.0, 640.0, 480.0 ],
						"bglocked" : 0,
						"defrect" : [ 25.0, 69.0, 640.0, 480.0 ],
						"openrect" : [ 0.0, 0.0, 0.0, 0.0 ],
						"openinpresentation" : 0,
						"default_fontsize" : 10.0,
						"default_fontface" : 0,
						"default_fontname" : "Verdana",
						"gridonopen" : 0,
						"gridsize" : [ 5.0, 5.0 ],
						"gridsnaponopen" : 0,
						"toolbarvisible" : 1,
						"boxanimatetime" : 200,
						"imprint" : 0,
						"metadata" : [  ],
						"boxes" : [ 							{
								"box" : 								{
									"maxclass" : "newobj",
									"text" : "sprintf hidesprite position_%ld",
									"outlettype" : [ "" ],
									"patching_rect" : [ 50.0, 100.0, 165.0, 19.0 ],
									"fontsize" : 10.0,
									"numinlets" : 1,
									"numoutlets" : 1,
									"id" : "obj-3",
									"fontname" : "Verdana"
								}

							}
, 							{
								"box" : 								{
									"maxclass" : "inlet",
									"outlettype" : [ "" ],
									"patching_rect" : [ 55.0, 40.0, 25.0, 25.0 ],
									"numinlets" : 0,
									"numoutlets" : 1,
									"id" : "obj-4",
									"comment" : ""
								}

							}
, 							{
								"box" : 								{
									"maxclass" : "outlet",
									"patching_rect" : [ 55.0, 179.0, 25.0, 25.0 ],
									"numinlets" : 1,
									"numoutlets" : 0,
									"id" : "obj-6",
									"comment" : ""
								}

							}
 ],
						"lines" : [ 							{
								"patchline" : 								{
									"source" : [ "obj-4", 0 ],
									"destination" : [ "obj-3", 0 ],
									"hidden" : 0,
									"midpoints" : [  ]
								}

							}
, 							{
								"patchline" : 								{
									"source" : [ "obj-3", 0 ],
									"destination" : [ "obj-6", 0 ],
									"hidden" : 0,
									"midpoints" : [  ]
								}

							}
 ]
					}
,
					"saved_object_attributes" : 					{
						"default_fontface" : 0,
						"globalpatchername" : "",
						"default_fontname" : "Verdana",
						"fontface" : 0,
						"fontsize" : 10.0,
						"default_fontsize" : 10.0,
						"fontname" : "Verdana"
					}

				}

			}
, 			{
				"box" : 				{
					"maxclass" : "inlet",
					"outlettype" : [ "" ],
					"patching_rect" : [ 255.0, 30.0, 25.0, 25.0 ],
					"numinlets" : 0,
					"numoutlets" : 1,
					"id" : "obj-114",
					"comment" : ""
				}

			}
, 			{
				"box" : 				{
					"maxclass" : "outlet",
					"patching_rect" : [ 270.0, 715.0, 25.0, 25.0 ],
					"numinlets" : 1,
					"numoutlets" : 0,
					"id" : "obj-113",
					"comment" : ""
				}

			}
, 			{
				"box" : 				{
					"maxclass" : "outlet",
					"patching_rect" : [ 190.0, 715.0, 25.0, 25.0 ],
					"numinlets" : 1,
					"numoutlets" : 0,
					"id" : "obj-112",
					"comment" : ""
				}

			}
, 			{
				"box" : 				{
					"maxclass" : "newobj",
					"text" : "prepend aed",
					"outlettype" : [ "" ],
					"patching_rect" : [ 190.0, 685.0, 73.0, 19.0 ],
					"fontsize" : 10.0,
					"numinlets" : 1,
					"numoutlets" : 1,
					"id" : "obj-111",
					"fontname" : "Verdana"
				}

			}
, 			{
				"box" : 				{
					"maxclass" : "newobj",
					"text" : "prepend xyz",
					"outlettype" : [ "" ],
					"patching_rect" : [ 270.0, 685.0, 72.0, 19.0 ],
					"fontsize" : 10.0,
					"numinlets" : 1,
					"numoutlets" : 1,
					"id" : "obj-110",
					"fontname" : "Verdana"
				}

			}
, 			{
				"box" : 				{
					"maxclass" : "newobj",
					"text" : "zl join",
					"outlettype" : [ "", "" ],
					"patching_rect" : [ 270.0, 630.0, 41.0, 19.0 ],
					"fontsize" : 10.0,
					"numinlets" : 2,
					"numoutlets" : 2,
					"id" : "obj-109",
					"fontname" : "Verdana"
				}

			}
, 			{
				"box" : 				{
					"maxclass" : "newobj",
					"text" : "zl join",
					"outlettype" : [ "", "" ],
					"patching_rect" : [ 190.0, 630.0, 41.0, 19.0 ],
					"fontsize" : 10.0,
					"numinlets" : 2,
					"numoutlets" : 2,
					"id" : "obj-108",
					"fontname" : "Verdana"
				}

			}
, 			{
				"box" : 				{
					"maxclass" : "newobj",
					"text" : "i",
					"outlettype" : [ "int" ],
					"patching_rect" : [ 190.0, 500.0, 32.5, 19.0 ],
					"fontsize" : 10.0,
					"numinlets" : 2,
					"numoutlets" : 1,
					"id" : "obj-107",
					"fontname" : "Verdana"
				}

			}
, 			{
				"box" : 				{
					"maxclass" : "newobj",
					"text" : "pack 0. 0. 0.",
					"outlettype" : [ "" ],
					"patching_rect" : [ 330.0, 540.0, 74.0, 19.0 ],
					"fontsize" : 10.0,
					"numinlets" : 3,
					"numoutlets" : 1,
					"id" : "obj-105",
					"fontname" : "Verdana"
				}

			}
, 			{
				"box" : 				{
					"maxclass" : "newobj",
					"text" : "scale 5. 195. 1. -1.",
					"outlettype" : [ "float" ],
					"patching_rect" : [ 450.0, 510.0, 107.0, 19.0 ],
					"fontsize" : 10.0,
					"numinlets" : 6,
					"numoutlets" : 1,
					"id" : "obj-104",
					"fontname" : "Verdana"
				}

			}
, 			{
				"box" : 				{
					"maxclass" : "newobj",
					"text" : "scale 5. 195. -1. 1.",
					"outlettype" : [ "float" ],
					"patching_rect" : [ 330.0, 510.0, 107.0, 19.0 ],
					"fontsize" : 10.0,
					"numinlets" : 6,
					"numoutlets" : 1,
					"id" : "obj-103",
					"fontname" : "Verdana"
				}

			}
, 			{
				"box" : 				{
					"maxclass" : "newobj",
					"text" : "t b l",
					"outlettype" : [ "bang", "" ],
					"patching_rect" : [ 310.0, 455.0, 32.5, 19.0 ],
					"fontsize" : 10.0,
					"numinlets" : 1,
					"numoutlets" : 2,
					"id" : "obj-101",
					"fontname" : "Verdana"
				}

			}
, 			{
				"box" : 				{
					"maxclass" : "newobj",
					"text" : "unpack 0. 0.",
					"outlettype" : [ "float", "float" ],
					"patching_rect" : [ 330.0, 480.0, 74.0, 19.0 ],
					"fontsize" : 10.0,
					"numinlets" : 1,
					"numoutlets" : 2,
					"id" : "obj-98",
					"fontname" : "Verdana"
				}

			}
, 			{
				"box" : 				{
					"maxclass" : "newobj",
					"text" : "gate",
					"outlettype" : [ "" ],
					"patching_rect" : [ 310.0, 430.0, 34.0, 19.0 ],
					"fontsize" : 10.0,
					"numinlets" : 2,
					"numoutlets" : 1,
					"id" : "obj-97",
					"fontname" : "Verdana"
				}

			}
, 			{
				"box" : 				{
					"maxclass" : "newobj",
					"text" : "p xyz2lcd",
					"outlettype" : [ "" ],
					"patching_rect" : [ 325.0, 165.0, 58.0, 19.0 ],
					"fontsize" : 10.0,
					"numinlets" : 1,
					"numoutlets" : 1,
					"id" : "obj-96",
					"fontname" : "Verdana",
					"patcher" : 					{
						"fileversion" : 1,
						"rect" : [ 25.0, 69.0, 640.0, 480.0 ],
						"bglocked" : 0,
						"defrect" : [ 25.0, 69.0, 640.0, 480.0 ],
						"openrect" : [ 0.0, 0.0, 0.0, 0.0 ],
						"openinpresentation" : 0,
						"default_fontsize" : 10.0,
						"default_fontface" : 0,
						"default_fontname" : "Verdana",
						"gridonopen" : 0,
						"gridsize" : [ 5.0, 5.0 ],
						"gridsnaponopen" : 0,
						"toolbarvisible" : 1,
						"boxanimatetime" : 200,
						"imprint" : 0,
						"metadata" : [  ],
						"boxes" : [ 							{
								"box" : 								{
									"maxclass" : "newobj",
									"text" : "sprintf drawsprite position_%ld %ld %ld",
									"outlettype" : [ "" ],
									"patching_rect" : [ 50.0, 205.0, 215.0, 19.0 ],
									"fontsize" : 10.0,
									"numinlets" : 3,
									"numoutlets" : 1,
									"id" : "obj-78",
									"fontname" : "Verdana"
								}

							}
, 							{
								"box" : 								{
									"maxclass" : "newobj",
									"text" : "unpack 0 0. 0.",
									"outlettype" : [ "int", "float", "float" ],
									"patching_rect" : [ 50.0, 100.0, 155.0, 19.0 ],
									"fontsize" : 10.0,
									"numinlets" : 1,
									"numoutlets" : 3,
									"id" : "obj-75",
									"fontname" : "Verdana"
								}

							}
, 							{
								"box" : 								{
									"maxclass" : "newobj",
									"text" : "pak 0. 0.",
									"outlettype" : [ "" ],
									"patching_rect" : [ 150.0, 130.0, 56.0, 19.0 ],
									"fontsize" : 10.0,
									"numinlets" : 2,
									"numoutlets" : 1,
									"id" : "obj-68",
									"fontname" : "Verdana"
								}

							}
, 							{
								"box" : 								{
									"maxclass" : "newobj",
									"text" : "* -95.",
									"outlettype" : [ "float" ],
									"patching_rect" : [ 205.0, 180.0, 41.0, 19.0 ],
									"fontsize" : 10.0,
									"numinlets" : 2,
									"numoutlets" : 1,
									"id" : "obj-60",
									"fontname" : "Verdana"
								}

							}
, 							{
								"box" : 								{
									"maxclass" : "newobj",
									"text" : "* 95.",
									"outlettype" : [ "float" ],
									"patching_rect" : [ 150.0, 180.0, 37.0, 19.0 ],
									"fontsize" : 10.0,
									"numinlets" : 2,
									"numoutlets" : 1,
									"id" : "obj-62",
									"fontname" : "Verdana"
								}

							}
, 							{
								"box" : 								{
									"maxclass" : "newobj",
									"text" : "unpack 0. 0.",
									"outlettype" : [ "float", "float" ],
									"patching_rect" : [ 150.0, 155.0, 74.0, 19.0 ],
									"fontsize" : 10.0,
									"numinlets" : 1,
									"numoutlets" : 2,
									"id" : "obj-63",
									"fontname" : "Verdana"
								}

							}
, 							{
								"box" : 								{
									"maxclass" : "inlet",
									"outlettype" : [ "" ],
									"patching_rect" : [ 55.0, 40.0, 25.0, 25.0 ],
									"numinlets" : 0,
									"numoutlets" : 1,
									"id" : "obj-94",
									"comment" : ""
								}

							}
, 							{
								"box" : 								{
									"maxclass" : "outlet",
									"patching_rect" : [ 55.0, 284.0, 25.0, 25.0 ],
									"numinlets" : 1,
									"numoutlets" : 0,
									"id" : "obj-95",
									"comment" : ""
								}

							}
 ],
						"lines" : [ 							{
								"patchline" : 								{
									"source" : [ "obj-68", 0 ],
									"destination" : [ "obj-63", 0 ],
									"hidden" : 0,
									"midpoints" : [  ]
								}

							}
, 							{
								"patchline" : 								{
									"source" : [ "obj-63", 0 ],
									"destination" : [ "obj-62", 0 ],
									"hidden" : 0,
									"midpoints" : [  ]
								}

							}
, 							{
								"patchline" : 								{
									"source" : [ "obj-63", 1 ],
									"destination" : [ "obj-60", 0 ],
									"hidden" : 0,
									"midpoints" : [  ]
								}

							}
, 							{
								"patchline" : 								{
									"source" : [ "obj-75", 0 ],
									"destination" : [ "obj-78", 0 ],
									"hidden" : 0,
									"midpoints" : [  ]
								}

							}
, 							{
								"patchline" : 								{
									"source" : [ "obj-62", 0 ],
									"destination" : [ "obj-78", 1 ],
									"hidden" : 0,
									"midpoints" : [  ]
								}

							}
, 							{
								"patchline" : 								{
									"source" : [ "obj-60", 0 ],
									"destination" : [ "obj-78", 2 ],
									"hidden" : 0,
									"midpoints" : [  ]
								}

							}
, 							{
								"patchline" : 								{
									"source" : [ "obj-75", 1 ],
									"destination" : [ "obj-68", 0 ],
									"hidden" : 0,
									"midpoints" : [  ]
								}

							}
, 							{
								"patchline" : 								{
									"source" : [ "obj-75", 2 ],
									"destination" : [ "obj-68", 1 ],
									"hidden" : 0,
									"midpoints" : [  ]
								}

							}
, 							{
								"patchline" : 								{
									"source" : [ "obj-94", 0 ],
									"destination" : [ "obj-75", 0 ],
									"hidden" : 0,
									"midpoints" : [  ]
								}

							}
, 							{
								"patchline" : 								{
									"source" : [ "obj-78", 0 ],
									"destination" : [ "obj-95", 0 ],
									"hidden" : 0,
									"midpoints" : [  ]
								}

							}
 ]
					}
,
					"saved_object_attributes" : 					{
						"default_fontface" : 0,
						"globalpatchername" : "",
						"default_fontname" : "Verdana",
						"fontface" : 0,
						"fontsize" : 10.0,
						"default_fontsize" : 10.0,
						"fontname" : "Verdana"
					}

				}

			}
, 			{
				"box" : 				{
					"maxclass" : "newobj",
					"text" : "p aed2xyz",
					"outlettype" : [ "" ],
					"patching_rect" : [ 255.0, 125.0, 62.0, 19.0 ],
					"fontsize" : 10.0,
					"numinlets" : 1,
					"numoutlets" : 1,
					"id" : "obj-93",
					"fontname" : "Verdana",
					"patcher" : 					{
						"fileversion" : 1,
						"rect" : [ 25.0, 69.0, 640.0, 480.0 ],
						"bglocked" : 0,
						"defrect" : [ 25.0, 69.0, 640.0, 480.0 ],
						"openrect" : [ 0.0, 0.0, 0.0, 0.0 ],
						"openinpresentation" : 0,
						"default_fontsize" : 10.0,
						"default_fontface" : 0,
						"default_fontname" : "Verdana",
						"gridonopen" : 0,
						"gridsize" : [ 5.0, 5.0 ],
						"gridsnaponopen" : 0,
						"toolbarvisible" : 1,
						"boxanimatetime" : 200,
						"imprint" : 0,
						"metadata" : [  ],
						"boxes" : [ 							{
								"box" : 								{
									"maxclass" : "newobj",
									"text" : "zl join",
									"outlettype" : [ "", "" ],
									"patching_rect" : [ 90.0, 205.0, 41.0, 19.0 ],
									"fontsize" : 10.0,
									"numinlets" : 2,
									"numoutlets" : 2,
									"id" : "obj-3",
									"fontname" : "Verdana"
								}

							}
, 							{
								"box" : 								{
									"maxclass" : "newobj",
									"text" : "* 0.1",
									"outlettype" : [ "float" ],
									"patching_rect" : [ 125.0, 180.0, 37.0, 19.0 ],
									"fontsize" : 10.0,
									"numinlets" : 2,
									"numoutlets" : 1,
									"id" : "obj-2",
									"fontname" : "Verdana"
								}

							}
, 							{
								"box" : 								{
									"maxclass" : "newobj",
									"text" : "zl slice 2",
									"outlettype" : [ "", "" ],
									"patching_rect" : [ 90.0, 150.0, 54.0, 19.0 ],
									"fontsize" : 10.0,
									"numinlets" : 2,
									"numoutlets" : 2,
									"id" : "obj-1",
									"fontname" : "Verdana"
								}

							}
, 							{
								"box" : 								{
									"maxclass" : "newobj",
									"text" : "zl join",
									"outlettype" : [ "", "" ],
									"patching_rect" : [ 55.0, 265.0, 41.0, 19.0 ],
									"fontsize" : 10.0,
									"numinlets" : 2,
									"numoutlets" : 2,
									"id" : "obj-86",
									"fontname" : "Verdana"
								}

							}
, 							{
								"box" : 								{
									"maxclass" : "newobj",
									"text" : "jcom.dataspace @dataspace position @input aed @output xyz",
									"outlettype" : [ "", "" ],
									"patching_rect" : [ 90.0, 235.0, 324.0, 19.0 ],
									"fontsize" : 10.0,
									"numinlets" : 1,
									"numoutlets" : 2,
									"id" : "obj-85",
									"fontname" : "Verdana"
								}

							}
, 							{
								"box" : 								{
									"maxclass" : "newobj",
									"text" : "zl slice 3",
									"outlettype" : [ "", "" ],
									"patching_rect" : [ 90.0, 120.0, 54.0, 19.0 ],
									"fontsize" : 10.0,
									"numinlets" : 2,
									"numoutlets" : 2,
									"id" : "obj-84",
									"fontname" : "Verdana"
								}

							}
, 							{
								"box" : 								{
									"maxclass" : "newobj",
									"text" : "zl slice 1",
									"outlettype" : [ "", "" ],
									"patching_rect" : [ 55.0, 95.0, 54.0, 19.0 ],
									"fontsize" : 10.0,
									"numinlets" : 2,
									"numoutlets" : 2,
									"id" : "obj-83",
									"fontname" : "Verdana"
								}

							}
, 							{
								"box" : 								{
									"maxclass" : "inlet",
									"outlettype" : [ "" ],
									"patching_rect" : [ 55.0, 40.0, 25.0, 25.0 ],
									"numinlets" : 0,
									"numoutlets" : 1,
									"id" : "obj-91",
									"comment" : ""
								}

							}
, 							{
								"box" : 								{
									"maxclass" : "outlet",
									"patching_rect" : [ 55.0, 349.0, 25.0, 25.0 ],
									"numinlets" : 1,
									"numoutlets" : 0,
									"id" : "obj-92",
									"comment" : ""
								}

							}
 ],
						"lines" : [ 							{
								"patchline" : 								{
									"source" : [ "obj-3", 0 ],
									"destination" : [ "obj-85", 0 ],
									"hidden" : 0,
									"midpoints" : [  ]
								}

							}
, 							{
								"patchline" : 								{
									"source" : [ "obj-2", 0 ],
									"destination" : [ "obj-3", 1 ],
									"hidden" : 0,
									"midpoints" : [  ]
								}

							}
, 							{
								"patchline" : 								{
									"source" : [ "obj-1", 0 ],
									"destination" : [ "obj-3", 0 ],
									"hidden" : 0,
									"midpoints" : [  ]
								}

							}
, 							{
								"patchline" : 								{
									"source" : [ "obj-84", 0 ],
									"destination" : [ "obj-1", 0 ],
									"hidden" : 0,
									"midpoints" : [  ]
								}

							}
, 							{
								"patchline" : 								{
									"source" : [ "obj-1", 1 ],
									"destination" : [ "obj-2", 0 ],
									"hidden" : 0,
									"midpoints" : [  ]
								}

							}
, 							{
								"patchline" : 								{
									"source" : [ "obj-83", 1 ],
									"destination" : [ "obj-84", 0 ],
									"hidden" : 0,
									"midpoints" : [  ]
								}

							}
, 							{
								"patchline" : 								{
									"source" : [ "obj-83", 0 ],
									"destination" : [ "obj-86", 0 ],
									"hidden" : 0,
									"midpoints" : [  ]
								}

							}
, 							{
								"patchline" : 								{
									"source" : [ "obj-85", 0 ],
									"destination" : [ "obj-86", 1 ],
									"hidden" : 0,
									"midpoints" : [  ]
								}

							}
, 							{
								"patchline" : 								{
									"source" : [ "obj-91", 0 ],
									"destination" : [ "obj-83", 0 ],
									"hidden" : 0,
									"midpoints" : [  ]
								}

							}
, 							{
								"patchline" : 								{
									"source" : [ "obj-86", 0 ],
									"destination" : [ "obj-92", 0 ],
									"hidden" : 0,
									"midpoints" : [  ]
								}

							}
 ]
					}
,
					"saved_object_attributes" : 					{
						"default_fontface" : 0,
						"globalpatchername" : "",
						"default_fontname" : "Verdana",
						"fontface" : 0,
						"fontsize" : 10.0,
						"default_fontsize" : 10.0,
						"fontname" : "Verdana"
					}

				}

			}
, 			{
				"box" : 				{
					"maxclass" : "newobj",
					"text" : "route aed xyz delete",
					"outlettype" : [ "", "", "", "" ],
					"patching_rect" : [ 255.0, 85.0, 231.0, 19.0 ],
					"fontsize" : 10.0,
					"numinlets" : 1,
					"numoutlets" : 4,
					"id" : "obj-72",
					"fontname" : "Verdana"
				}

			}
, 			{
				"box" : 				{
					"maxclass" : "tab",
					"presentation_rect" : [ 0.0, -5.0, 200.0, 20.0 ],
					"outlettype" : [ "int", "", "" ],
					"mode" : 1,
					"valign" : 2,
					"spacing_y" : 0.0,
					"patching_rect" : [ 115.0, 395.0, 200.0, 20.0 ],
					"tabs" : [ "None", "1", "2", "3", "4", "5", "6", "7", "8" ],
					"fontsize" : 10.0,
					"presentation" : 1,
					"multiline" : 0,
					"numinlets" : 1,
					"numoutlets" : 3,
					"id" : "obj-70",
					"fontname" : "Verdana"
				}

			}
, 			{
				"box" : 				{
					"maxclass" : "newobj",
					"text" : "p create_sprites",
					"outlettype" : [ "" ],
					"patching_rect" : [ 690.0, 145.0, 92.0, 19.0 ],
					"fontsize" : 10.0,
					"numinlets" : 1,
					"numoutlets" : 1,
					"id" : "obj-48",
					"fontname" : "Verdana",
					"patcher" : 					{
						"fileversion" : 1,
						"rect" : [ 175.0, 112.0, 701.0, 275.0 ],
						"bglocked" : 0,
						"defrect" : [ 175.0, 112.0, 701.0, 275.0 ],
						"openrect" : [ 0.0, 0.0, 0.0, 0.0 ],
						"openinpresentation" : 0,
						"default_fontsize" : 10.0,
						"default_fontface" : 0,
						"default_fontname" : "Verdana",
						"gridonopen" : 0,
						"gridsize" : [ 5.0, 5.0 ],
						"gridsnaponopen" : 0,
						"toolbarvisible" : 1,
						"boxanimatetime" : 200,
						"imprint" : 0,
						"metadata" : [  ],
						"boxes" : [ 							{
								"box" : 								{
									"maxclass" : "newobj",
									"text" : "sprintf %ld position_%ld",
									"outlettype" : [ "" ],
									"patching_rect" : [ 80.0, 110.0, 135.0, 19.0 ],
									"fontsize" : 10.0,
									"numinlets" : 2,
									"numoutlets" : 1,
									"id" : "obj-2",
									"fontname" : "Verdana"
								}

							}
, 							{
								"box" : 								{
									"maxclass" : "newobj",
									"text" : "uzi 32",
									"outlettype" : [ "bang", "bang", "int" ],
									"patching_rect" : [ 55.0, 75.0, 46.0, 19.0 ],
									"fontsize" : 10.0,
									"numinlets" : 2,
									"numoutlets" : 3,
									"id" : "obj-1",
									"fontname" : "Verdana"
								}

							}
, 							{
								"box" : 								{
									"maxclass" : "message",
									"text" : "recordsprite, paintoval 98 98 102 102 156 156 156, frameoval 97 97 103 103 0 0 0, color 255, pensize 3 3, font Verdana 12, moveto 104 104, write $1, closesprite $2, drawsprite $2 0 0, hidesprite $2",
									"linecount" : 2,
									"outlettype" : [ "" ],
									"patching_rect" : [ 80.0, 135.0, 582.0, 31.0 ],
									"fontsize" : 11.595187,
									"numinlets" : 2,
									"numoutlets" : 1,
									"id" : "obj-25",
									"fontname" : "Arial"
								}

							}
, 							{
								"box" : 								{
									"maxclass" : "inlet",
									"outlettype" : [ "bang" ],
									"patching_rect" : [ 55.0, 40.0, 25.0, 25.0 ],
									"numinlets" : 0,
									"numoutlets" : 1,
									"id" : "obj-46",
									"comment" : ""
								}

							}
, 							{
								"box" : 								{
									"maxclass" : "outlet",
									"patching_rect" : [ 80.0, 206.0, 25.0, 25.0 ],
									"numinlets" : 1,
									"numoutlets" : 0,
									"id" : "obj-47",
									"comment" : ""
								}

							}
 ],
						"lines" : [ 							{
								"patchline" : 								{
									"source" : [ "obj-1", 2 ],
									"destination" : [ "obj-2", 0 ],
									"hidden" : 0,
									"midpoints" : [  ]
								}

							}
, 							{
								"patchline" : 								{
									"source" : [ "obj-1", 2 ],
									"destination" : [ "obj-2", 1 ],
									"hidden" : 0,
									"midpoints" : [  ]
								}

							}
, 							{
								"patchline" : 								{
									"source" : [ "obj-46", 0 ],
									"destination" : [ "obj-1", 0 ],
									"hidden" : 0,
									"midpoints" : [  ]
								}

							}
, 							{
								"patchline" : 								{
									"source" : [ "obj-2", 0 ],
									"destination" : [ "obj-25", 0 ],
									"hidden" : 0,
									"midpoints" : [  ]
								}

							}
, 							{
								"patchline" : 								{
									"source" : [ "obj-25", 0 ],
									"destination" : [ "obj-47", 0 ],
									"hidden" : 0,
									"midpoints" : [  ]
								}

							}
 ]
					}
,
					"saved_object_attributes" : 					{
						"default_fontface" : 0,
						"globalpatchername" : "",
						"default_fontname" : "Verdana",
						"fontface" : 0,
						"fontsize" : 10.0,
						"default_fontsize" : 10.0,
						"fontname" : "Verdana"
					}

				}

			}
, 			{
				"box" : 				{
					"maxclass" : "newobj",
					"text" : "loadbang",
					"outlettype" : [ "bang" ],
					"patching_rect" : [ 690.0, 90.0, 56.0, 19.0 ],
					"fontsize" : 10.0,
					"numinlets" : 1,
					"numoutlets" : 1,
					"id" : "obj-45",
					"fontname" : "Verdana"
				}

			}
, 			{
				"box" : 				{
					"maxclass" : "newobj",
					"text" : "p background",
					"outlettype" : [ "" ],
					"patching_rect" : [ 785.0, 145.0, 79.0, 19.0 ],
					"fontsize" : 10.0,
					"numinlets" : 1,
					"numoutlets" : 1,
					"id" : "obj-24",
					"fontname" : "Verdana",
					"patcher" : 					{
						"fileversion" : 1,
						"rect" : [ 25.0, 69.0, 1246.0, 628.0 ],
						"bglocked" : 0,
						"defrect" : [ 25.0, 69.0, 1246.0, 628.0 ],
						"openrect" : [ 0.0, 0.0, 0.0, 0.0 ],
						"openinpresentation" : 0,
						"default_fontsize" : 10.0,
						"default_fontface" : 0,
						"default_fontname" : "Verdana",
						"gridonopen" : 0,
						"gridsize" : [ 5.0, 5.0 ],
						"gridsnaponopen" : 0,
						"toolbarvisible" : 1,
						"boxanimatetime" : 200,
						"imprint" : 0,
						"metadata" : [  ],
						"boxes" : [ 							{
								"box" : 								{
									"maxclass" : "message",
									"text" : "font Verdana 12",
									"outlettype" : [ "" ],
									"patching_rect" : [ 30.0, 175.0, 92.0, 18.0 ],
									"fontsize" : 11.595187,
									"numinlets" : 2,
									"numoutlets" : 1,
									"id" : "obj-4",
									"fontname" : "Arial"
								}

							}
, 							{
								"box" : 								{
									"maxclass" : "message",
									"text" : "enablesprites 1",
									"outlettype" : [ "" ],
									"patching_rect" : [ 55.0, 150.0, 87.0, 17.0 ],
									"fontsize" : 10.0,
									"numinlets" : 2,
									"numoutlets" : 1,
									"id" : "obj-2",
									"fontname" : "Verdana"
								}

							}
, 							{
								"box" : 								{
									"maxclass" : "newobj",
									"text" : "t b b b b",
									"outlettype" : [ "bang", "bang", "bang", "bang" ],
									"patching_rect" : [ 185.0, 115.0, 59.5, 19.0 ],
									"fontsize" : 10.0,
									"numinlets" : 1,
									"numoutlets" : 4,
									"id" : "obj-21",
									"fontname" : "Verdana"
								}

							}
, 							{
								"box" : 								{
									"maxclass" : "message",
									"text" : "linesegment 5 100 195 100 116 116 254",
									"outlettype" : [ "" ],
									"patching_rect" : [ 220.0, 240.0, 217.0, 17.0 ],
									"fontsize" : 10.0,
									"numinlets" : 2,
									"numoutlets" : 1,
									"id" : "obj-20",
									"fontname" : "Verdana"
								}

							}
, 							{
								"box" : 								{
									"maxclass" : "message",
									"text" : "linesegment 100 5 100 195 116 116 254",
									"outlettype" : [ "" ],
									"patching_rect" : [ 185.0, 215.0, 217.0, 17.0 ],
									"fontsize" : 10.0,
									"numinlets" : 2,
									"numoutlets" : 1,
									"id" : "obj-19",
									"fontname" : "Verdana"
								}

							}
, 							{
								"box" : 								{
									"maxclass" : "message",
									"text" : "linesegment $1 5 $1 195 175 175 242",
									"outlettype" : [ "" ],
									"patching_rect" : [ 540.0, 280.0, 204.0, 17.0 ],
									"fontsize" : 10.0,
									"numinlets" : 2,
									"numoutlets" : 1,
									"id" : "obj-17",
									"fontname" : "Verdana"
								}

							}
, 							{
								"box" : 								{
									"maxclass" : "message",
									"text" : "linesegment 5 $1 195 $1 175 175 242",
									"outlettype" : [ "" ],
									"patching_rect" : [ 505.0, 240.0, 204.0, 17.0 ],
									"fontsize" : 10.0,
									"numinlets" : 2,
									"numoutlets" : 1,
									"id" : "obj-13",
									"fontname" : "Verdana"
								}

							}
, 							{
								"box" : 								{
									"maxclass" : "newobj",
									"text" : "scale 0 20 5 195",
									"outlettype" : [ "int" ],
									"patching_rect" : [ 505.0, 205.0, 94.0, 19.0 ],
									"fontsize" : 10.0,
									"numinlets" : 6,
									"numoutlets" : 1,
									"id" : "obj-10",
									"fontname" : "Verdana"
								}

							}
, 							{
								"box" : 								{
									"maxclass" : "newobj",
									"text" : "uzi 21 0",
									"outlettype" : [ "bang", "bang", "int" ],
									"patching_rect" : [ 475.0, 175.0, 51.0, 19.0 ],
									"fontsize" : 10.0,
									"numinlets" : 2,
									"numoutlets" : 3,
									"id" : "obj-7",
									"fontname" : "Verdana"
								}

							}
, 							{
								"box" : 								{
									"maxclass" : "message",
									"text" : "clear, local 0",
									"outlettype" : [ "" ],
									"patching_rect" : [ 1095.0, 240.0, 73.0, 17.0 ],
									"fontsize" : 10.0,
									"numinlets" : 2,
									"numoutlets" : 1,
									"id" : "obj-6",
									"fontname" : "Verdana"
								}

							}
, 							{
								"box" : 								{
									"maxclass" : "message",
									"text" : "paintoval 5 5 195 195 195 195 195",
									"outlettype" : [ "" ],
									"patching_rect" : [ 825.0, 255.0, 189.0, 17.0 ],
									"fontsize" : 10.0,
									"numinlets" : 2,
									"numoutlets" : 1,
									"id" : "obj-3",
									"fontname" : "Verdana"
								}

							}
, 							{
								"box" : 								{
									"maxclass" : "inlet",
									"outlettype" : [ "bang" ],
									"patching_rect" : [ 55.0, 40.0, 25.0, 25.0 ],
									"numinlets" : 0,
									"numoutlets" : 1,
									"id" : "obj-22",
									"comment" : ""
								}

							}
, 							{
								"box" : 								{
									"maxclass" : "outlet",
									"patching_rect" : [ 55.0, 420.0, 25.0, 25.0 ],
									"numinlets" : 1,
									"numoutlets" : 0,
									"id" : "obj-23",
									"comment" : ""
								}

							}
 ],
						"lines" : [ 							{
								"patchline" : 								{
									"source" : [ "obj-4", 0 ],
									"destination" : [ "obj-23", 0 ],
									"hidden" : 0,
									"midpoints" : [  ]
								}

							}
, 							{
								"patchline" : 								{
									"source" : [ "obj-22", 0 ],
									"destination" : [ "obj-4", 0 ],
									"hidden" : 0,
									"midpoints" : [  ]
								}

							}
, 							{
								"patchline" : 								{
									"source" : [ "obj-2", 0 ],
									"destination" : [ "obj-23", 0 ],
									"hidden" : 0,
									"midpoints" : [  ]
								}

							}
, 							{
								"patchline" : 								{
									"source" : [ "obj-22", 0 ],
									"destination" : [ "obj-2", 0 ],
									"hidden" : 0,
									"midpoints" : [  ]
								}

							}
, 							{
								"patchline" : 								{
									"source" : [ "obj-10", 0 ],
									"destination" : [ "obj-17", 0 ],
									"hidden" : 0,
									"midpoints" : [  ]
								}

							}
, 							{
								"patchline" : 								{
									"source" : [ "obj-10", 0 ],
									"destination" : [ "obj-13", 0 ],
									"hidden" : 0,
									"midpoints" : [  ]
								}

							}
, 							{
								"patchline" : 								{
									"source" : [ "obj-7", 2 ],
									"destination" : [ "obj-10", 0 ],
									"hidden" : 0,
									"midpoints" : [  ]
								}

							}
, 							{
								"patchline" : 								{
									"source" : [ "obj-21", 3 ],
									"destination" : [ "obj-6", 0 ],
									"hidden" : 0,
									"midpoints" : [ 235.0, 162.0, 1104.5, 162.0 ]
								}

							}
, 							{
								"patchline" : 								{
									"source" : [ "obj-21", 2 ],
									"destination" : [ "obj-3", 0 ],
									"hidden" : 0,
									"midpoints" : [ 221.5, 162.0, 834.5, 162.0 ]
								}

							}
, 							{
								"patchline" : 								{
									"source" : [ "obj-21", 1 ],
									"destination" : [ "obj-7", 0 ],
									"hidden" : 0,
									"midpoints" : [ 208.0, 162.0, 484.5, 162.0 ]
								}

							}
, 							{
								"patchline" : 								{
									"source" : [ "obj-21", 0 ],
									"destination" : [ "obj-19", 0 ],
									"hidden" : 0,
									"midpoints" : [  ]
								}

							}
, 							{
								"patchline" : 								{
									"source" : [ "obj-21", 0 ],
									"destination" : [ "obj-20", 0 ],
									"hidden" : 0,
									"midpoints" : [  ]
								}

							}
, 							{
								"patchline" : 								{
									"source" : [ "obj-22", 0 ],
									"destination" : [ "obj-21", 0 ],
									"hidden" : 0,
									"midpoints" : [  ]
								}

							}
, 							{
								"patchline" : 								{
									"source" : [ "obj-19", 0 ],
									"destination" : [ "obj-23", 0 ],
									"hidden" : 0,
									"midpoints" : [  ]
								}

							}
, 							{
								"patchline" : 								{
									"source" : [ "obj-20", 0 ],
									"destination" : [ "obj-23", 0 ],
									"hidden" : 0,
									"midpoints" : [  ]
								}

							}
, 							{
								"patchline" : 								{
									"source" : [ "obj-13", 0 ],
									"destination" : [ "obj-23", 0 ],
									"hidden" : 0,
									"midpoints" : [ 514.5, 405.0, 64.5, 405.0 ]
								}

							}
, 							{
								"patchline" : 								{
									"source" : [ "obj-17", 0 ],
									"destination" : [ "obj-23", 0 ],
									"hidden" : 0,
									"midpoints" : [ 549.5, 405.0, 64.5, 405.0 ]
								}

							}
, 							{
								"patchline" : 								{
									"source" : [ "obj-3", 0 ],
									"destination" : [ "obj-23", 0 ],
									"hidden" : 0,
									"midpoints" : [ 834.5, 405.0, 64.5, 405.0 ]
								}

							}
, 							{
								"patchline" : 								{
									"source" : [ "obj-6", 0 ],
									"destination" : [ "obj-23", 0 ],
									"hidden" : 0,
									"midpoints" : [ 1104.5, 405.0, 64.5, 405.0 ]
								}

							}
 ]
					}
,
					"saved_object_attributes" : 					{
						"default_fontface" : 0,
						"globalpatchername" : "",
						"default_fontname" : "Verdana",
						"fontface" : 0,
						"fontsize" : 10.0,
						"default_fontsize" : 10.0,
						"fontname" : "Verdana"
					}

				}

			}
, 			{
				"box" : 				{
					"maxclass" : "button",
					"outlettype" : [ "bang" ],
					"patching_rect" : [ 690.0, 115.0, 20.0, 20.0 ],
					"numinlets" : 1,
					"numoutlets" : 1,
					"id" : "obj-5"
				}

			}
, 			{
				"box" : 				{
					"maxclass" : "lcd",
					"presentation_rect" : [ 0.0, 15.0, 200.0, 200.0 ],
					"outlettype" : [ "list", "list", "int", "" ],
					"patching_rect" : [ 325.0, 215.0, 200.0, 200.0 ],
					"presentation" : 1,
					"local" : 0,
					"numinlets" : 1,
					"enablesprites" : 1,
					"numoutlets" : 4,
					"id" : "obj-1"
				}

			}
 ],
		"lines" : [ 			{
				"patchline" : 				{
					"source" : [ "obj-2", 0 ],
					"destination" : [ "obj-108", 1 ],
					"hidden" : 0,
					"midpoints" : [  ]
				}

			}
, 			{
				"patchline" : 				{
					"source" : [ "obj-105", 0 ],
					"destination" : [ "obj-2", 0 ],
					"hidden" : 0,
					"midpoints" : [  ]
				}

			}
, 			{
				"patchline" : 				{
					"source" : [ "obj-72", 2 ],
					"destination" : [ "obj-7", 0 ],
					"hidden" : 0,
					"midpoints" : [  ]
				}

			}
, 			{
				"patchline" : 				{
					"source" : [ "obj-7", 0 ],
					"destination" : [ "obj-1", 0 ],
					"hidden" : 0,
					"midpoints" : [  ]
				}

			}
, 			{
				"patchline" : 				{
					"source" : [ "obj-114", 0 ],
					"destination" : [ "obj-72", 0 ],
					"hidden" : 0,
					"midpoints" : [  ]
				}

			}
, 			{
				"patchline" : 				{
					"source" : [ "obj-72", 1 ],
					"destination" : [ "obj-96", 0 ],
					"hidden" : 0,
					"midpoints" : [  ]
				}

			}
, 			{
				"patchline" : 				{
					"source" : [ "obj-72", 0 ],
					"destination" : [ "obj-93", 0 ],
					"hidden" : 0,
					"midpoints" : [  ]
				}

			}
, 			{
				"patchline" : 				{
					"source" : [ "obj-111", 0 ],
					"destination" : [ "obj-112", 0 ],
					"hidden" : 0,
					"midpoints" : [  ]
				}

			}
, 			{
				"patchline" : 				{
					"source" : [ "obj-110", 0 ],
					"destination" : [ "obj-113", 0 ],
					"hidden" : 0,
					"midpoints" : [  ]
				}

			}
, 			{
				"patchline" : 				{
					"source" : [ "obj-109", 0 ],
					"destination" : [ "obj-110", 0 ],
					"hidden" : 0,
					"midpoints" : [  ]
				}

			}
, 			{
				"patchline" : 				{
					"source" : [ "obj-108", 0 ],
					"destination" : [ "obj-111", 0 ],
					"hidden" : 0,
					"midpoints" : [  ]
				}

			}
, 			{
				"patchline" : 				{
					"source" : [ "obj-105", 0 ],
					"destination" : [ "obj-109", 1 ],
					"hidden" : 0,
					"midpoints" : [  ]
				}

			}
, 			{
				"patchline" : 				{
					"source" : [ "obj-107", 0 ],
					"destination" : [ "obj-109", 0 ],
					"hidden" : 0,
					"midpoints" : [  ]
				}

			}
, 			{
				"patchline" : 				{
					"source" : [ "obj-107", 0 ],
					"destination" : [ "obj-108", 0 ],
					"hidden" : 0,
					"midpoints" : [  ]
				}

			}
, 			{
				"patchline" : 				{
					"source" : [ "obj-101", 0 ],
					"destination" : [ "obj-107", 0 ],
					"hidden" : 0,
					"midpoints" : [  ]
				}

			}
, 			{
				"patchline" : 				{
					"source" : [ "obj-70", 0 ],
					"destination" : [ "obj-107", 1 ],
					"hidden" : 0,
					"midpoints" : [  ]
				}

			}
, 			{
				"patchline" : 				{
					"source" : [ "obj-104", 0 ],
					"destination" : [ "obj-105", 1 ],
					"hidden" : 0,
					"midpoints" : [  ]
				}

			}
, 			{
				"patchline" : 				{
					"source" : [ "obj-103", 0 ],
					"destination" : [ "obj-105", 0 ],
					"hidden" : 0,
					"midpoints" : [  ]
				}

			}
, 			{
				"patchline" : 				{
					"source" : [ "obj-98", 1 ],
					"destination" : [ "obj-104", 0 ],
					"hidden" : 0,
					"midpoints" : [  ]
				}

			}
, 			{
				"patchline" : 				{
					"source" : [ "obj-98", 0 ],
					"destination" : [ "obj-103", 0 ],
					"hidden" : 0,
					"midpoints" : [  ]
				}

			}
, 			{
				"patchline" : 				{
					"source" : [ "obj-101", 1 ],
					"destination" : [ "obj-98", 0 ],
					"hidden" : 0,
					"midpoints" : [  ]
				}

			}
, 			{
				"patchline" : 				{
					"source" : [ "obj-97", 0 ],
					"destination" : [ "obj-101", 0 ],
					"hidden" : 0,
					"midpoints" : [  ]
				}

			}
, 			{
				"patchline" : 				{
					"source" : [ "obj-1", 0 ],
					"destination" : [ "obj-97", 1 ],
					"hidden" : 0,
					"midpoints" : [  ]
				}

			}
, 			{
				"patchline" : 				{
					"source" : [ "obj-70", 0 ],
					"destination" : [ "obj-97", 0 ],
					"hidden" : 0,
					"midpoints" : [  ]
				}

			}
, 			{
				"patchline" : 				{
					"source" : [ "obj-93", 0 ],
					"destination" : [ "obj-96", 0 ],
					"hidden" : 0,
					"midpoints" : [  ]
				}

			}
, 			{
				"patchline" : 				{
					"source" : [ "obj-96", 0 ],
					"destination" : [ "obj-1", 0 ],
					"hidden" : 0,
					"midpoints" : [  ]
				}

			}
, 			{
				"patchline" : 				{
					"source" : [ "obj-5", 0 ],
					"destination" : [ "obj-48", 0 ],
					"hidden" : 0,
					"midpoints" : [  ]
				}

			}
, 			{
				"patchline" : 				{
					"source" : [ "obj-48", 0 ],
					"destination" : [ "obj-1", 0 ],
					"hidden" : 0,
					"midpoints" : [  ]
				}

			}
, 			{
				"patchline" : 				{
					"source" : [ "obj-45", 0 ],
					"destination" : [ "obj-5", 0 ],
					"hidden" : 0,
					"midpoints" : [  ]
				}

			}
, 			{
				"patchline" : 				{
					"source" : [ "obj-5", 0 ],
					"destination" : [ "obj-24", 0 ],
					"hidden" : 0,
					"midpoints" : [  ]
				}

			}
, 			{
				"patchline" : 				{
					"source" : [ "obj-24", 0 ],
					"destination" : [ "obj-1", 0 ],
					"hidden" : 0,
					"midpoints" : [  ]
				}

			}
, 			{
				"patchline" : 				{
					"source" : [ "obj-109", 0 ],
					"destination" : [ "obj-96", 0 ],
					"hidden" : 0,
					"midpoints" : [ 279.5, 664.0, 568.0, 664.0, 568.0, 146.0, 334.5, 146.0 ]
				}

			}
, 			{
				"patchline" : 				{
					"source" : [ "obj-72", 0 ],
					"destination" : [ "obj-111", 0 ],
					"hidden" : 0,
					"midpoints" : [ 264.5, 109.0, 47.0, 109.0, 47.0, 674.0, 199.5, 674.0 ]
				}

			}
, 			{
				"patchline" : 				{
					"source" : [ "obj-72", 1 ],
					"destination" : [ "obj-110", 0 ],
					"hidden" : 0,
					"midpoints" : [ 335.166656, 114.0, 52.0, 114.0, 52.0, 669.0, 279.5, 669.0 ]
				}

			}
 ]
	}

}
