max v2;#N vpatcher 299 99 1359 871;#P origin 54 36;#P window setfont "Sans Serif" 9.;#P window linecount 1;#P newex 525 652 51 196617 print left;#P window linecount 0;#P message 735 693 116 196617;#P window linecount 1;#P newex 735 670 62 196617 prepend set;#P window linecount 0;#P message 746 647 116 196617;#P window linecount 1;#P newex 746 624 62 196617 prepend set;#P window linecount 0;#P message 753 601 116 196617;#P window linecount 1;#P newex 753 578 62 196617 prepend set;#P window linecount 0;#P message 595 618 112 196617;#P window linecount 1;#P newex 595 594 62 196617 prepend set;#P window linecount 0;#P message 475 613 112 196617;#P window linecount 1;#P newex 475 589 62 196617 prepend set;#N vpatcher 20 74 570 477;#P window setfont "Sans Serif" 9.;#P window linecount 2;#P newex 268 242 215 196617 jcom.message $1/distance @type msg_float @slave 1 @description "Set distance.";#P newex 268 202 215 196617 jcom.message $1/elevation @type msg_float @slave 1 @description "Set elevation.";#P newex 268 161 215 196617 jcom.message $1/azimuth @type msg_float @slave 1 @description "Set azimuth.";#P window linecount 0;#P newex 135 122 87 196617 route 0 1 2;#P message 135 102 54 196617 \$1 set \$2;#P newex 135 82 52 196617 listfunnel;#P newex 135 62 51 196617 route set;#P newex 135 296 61 196617 pak 0. 0. 0.;#P inlet 135 42 15 0;#P inlet 84 228 15 0;#P inlet 59 228 15 0;#P inlet 34 228 15 0;#P outlet 135 345 15 0;#P outlet 84 199 15 0;#P outlet 59 199 15 0;#P outlet 34 199 15 0;#P connect 12 0 0 0;#P connect 12 1 1 0;#P connect 12 2 2 0;#P connect 7 0 9 0;#P connect 9 0 10 0;#P connect 10 0 11 0;#P connect 11 0 12 0;#P connect 12 0 8 0;#P fasten 13 1 8 0 375 193 140 193;#P lcolor 2;#P connect 4 0 8 0;#P connect 8 0 3 0;#P connect 12 1 8 1;#P fasten 14 1 8 1 375 234 165 234;#P lcolor 2;#P connect 5 0 8 1;#P connect 12 2 8 2;#P fasten 15 1 8 2 375 275 190 275;#P lcolor 2;#P connect 6 0 8 2;#P pop;#P newobj 378 516 74 196617 p pack_unpack;#N comlet list member 0;#P inlet 378 382 15 0;#N comlet list member 1;#P inlet 399 382 15 0;#N comlet list member 2;#P inlet 420 382 15 0;#N comlet list member 2;#P outlet 420 549 15 0;#N comlet list member 1;#P outlet 399 549 15 0;#N comlet list member 0;#P outlet 378 549 15 0;#P newex 876 363 64 196617 patcherargs;#P newex 930 387 57 196617 route done;#N vpatcher 232 82 643 441;#P window setfont "Sans Serif" 9.;#P newex 128 229 51 196617 zl ecils 2;#P message 294 168 42 196617 ramp 0;#P newex 294 145 20 196617 t b;#P window linecount 1;#P newex 128 168 73 196617 jcom.xyz2aed;#P window linecount 0;#P newex 128 190 152 196617 zl join;#P newex 128 146 152 196617 zl slice 3;#P window linecount 1;#P newex 50 50 89 196617 jcom.pass inc dec;#P inlet 50 30 15 0;#P outlet 50 288 15 0;#P window linecount 0;#P comment 188 229 190 196617 Required for the time being as list ramping is currently not supported;#P connect 2 0 3 0;#P connect 9 0 1 0;#P connect 3 0 1 0;#P connect 3 1 1 0;#P connect 3 2 4 0;#P connect 4 0 6 0;#P connect 6 0 5 0;#P connect 5 0 9 0;#P connect 4 1 5 1;#P connect 8 0 5 1;#P connect 3 2 7 0;#P connect 7 0 8 0;#P pop;#P newobj 661 469 101 196617 p convert2cartesian;#P comment 648 547 98 196617 Direct Output;#N comlet Prepend "set" and connect to GUI inlet;#P outlet 632 547 15 0;#P comment 440 550 98 196617 Connect to GUI inlet;#P comment 33 246 104 196617 Connect to GUI outlet;#P window linecount 2;#P newex 511 509 253 196617 jcom.parameter $1/aed @type msg_list @description "Set position using Cartesian coordinates.";#P objectname $1/aed;#P newex 535 426 262 196617 jcom.message $1/xyz @type msg_list @slave 1 @description "Set position using spherical coordinates.";#P window linecount 4;#P comment 492 278 395 196617 For this component to work properly \, you have to avoid output from being fed back to the inlet \, else the output will kill any ongoing ramp. If jcom.parameter.gain outlet/inlet is connected to a GUI inlet/outlet \, use the "set" mesage for updating GUI display when jcom.parameter.gain value change.;#P window linecount 1;#P comment 492 263 395 196617 IMPORTANT:;#P comment 492 191 311 196617 - $1/aed: Spherical coordinates;#P comment 492 163 311 196617 Component for dealing with gain parameters. Incorporates;#P comment 492 178 311 196617 - $1/xyz: Cartesian coordinates;#P window linecount 3;#P comment 492 218 395 196617 jcom.parameter.gain is special in the sense that gain levels can be adjusted using various messages \, or by a GUI. All kinds of messages are mapped to MIDI values internally \, so that they can all be dealt with by the same ramping mechanism.;#B color 1;#P window linecount 1;#N vpatcher 20 74 663 569;#P window setfont "Sans Serif" 9.;#P window linecount 0;#P newex 76 73 72 196617 Ladd 90. 0. 0.;#P window linecount 1;#P newex 78 50 82 196617 Lmult -1. 1. 10.;#P newex 81 108 72 196617 prepend aed 2;#P newex 48 133 74 196617 prepend xyz 1;#P inlet 78 30 15 0;#P inlet 50 75 15 0;#P outlet 48 155 15 0;#P connect 1 0 3 0;#P connect 4 0 0 0;#P connect 3 0 0 0;#P connect 5 0 6 0;#P connect 2 0 5 0;#P connect 6 0 4 0;#P pop;#P newobj 63 325 60 196617 p;#P user ambimonitor 4 357 200 400 2 0 1 0 0 0 777;#X rgb1 0 0 0;#X rgb2 0 0 0;#X rgb3 0 0 0;#X rgb4 235 235 117;#X rgb5 196 196 196;#X rgb6 255 255 255;#X rgb7 176 176 243;#X rgb8 117 117 255;#P newex 128 71 62 196617 prepend set;#P newex 64 70 62 196617 prepend set;#P newex 0 69 62 196617 prepend set;#P newex 0 46 76 196617 unpack 0. 0. 0.;#P newex 385 71 62 196617 prepend set;#P newex 321 70 62 196617 prepend set;#P newex 257 69 62 196617 prepend set;#P newex 257 46 76 196617 unpack 0. 0. 0.;#P newex 257 151 61 196617 pak 0. 0. 0.;#P newex 0 146 61 196617 pak 0. 0. 0.;#P newex 257 173 94 196617 jcom.aed2xyz.mxt;#P newex 0 173 94 196617 jcom.xyz2aed.mxt;#P comment 500 111 100 196617 aed;#P flonum 457 111 35 9 0 0 0 3 0 0 0 221 221 221 222 222 222 0 0 0;#P flonum 417 111 35 9 0 0 0 3 0 0 0 221 221 221 222 222 222 0 0 0;#P flonum 378 111 35 9 0 0 0 3 0 0 0 221 221 221 222 222 222 0 0 0;#P flonum 217 233 35 9 0 0 0 3 0 0 0 221 221 221 222 222 222 0 0 0;#P flonum 177 233 35 9 0 0 0 3 0 0 0 221 221 221 222 222 222 0 0 0;#P flonum 133 233 35 9 0 0 0 3 0 0 0 221 221 221 222 222 222 0 0 0;#P comment 260 233 100 196617 xyz;#P fasten 9 0 16 0 262 201 240 201 240 9 5 9;#P connect 16 0 17 0;#P connect 17 0 10 0;#P connect 1 0 10 0;#P connect 10 0 8 0;#P connect 21 0 20 0;#P connect 18 0 10 1;#P connect 2 0 10 1;#P connect 19 0 10 2;#P connect 3 0 10 2;#P connect 10 0 21 0;#P connect 16 1 18 0;#P connect 11 0 21 1;#P connect 16 2 19 0;#P connect 17 0 1 0;#P connect 18 0 2 0;#P connect 19 0 3 0;#P fasten 8 0 12 0 5 205 -19 205 -19 -10 262 -10;#P connect 12 0 13 0;#P connect 13 0 11 0;#P connect 4 0 11 0;#P connect 11 0 9 0;#P connect 14 0 11 1;#P connect 5 0 11 1;#P connect 15 0 11 2;#P connect 6 0 11 2;#P connect 12 1 14 0;#P connect 13 0 4 0;#P connect 42 0 43 0;#P connect 43 0 37 0;#P connect 12 2 15 0;#P connect 41 0 43 1;#P connect 43 1 38 0;#P connect 14 0 5 0;#P connect 40 0 43 2;#P connect 43 2 39 0;#P connect 29 0 43 3;#P connect 15 0 6 0;#P connect 43 3 44 0;#P connect 44 0 45 0;#P fasten 34 0 29 0 666 497 516 497;#P fasten 35 1 29 0 982 500 516 500;#P connect 43 3 29 0;#P connect 29 0 54 0;#P fasten 35 1 28 0 982 418 540 418;#P connect 46 0 47 0;#P connect 29 1 32 0;#P connect 28 1 34 0;#P connect 29 1 52 0;#P connect 52 0 53 0;#P connect 34 0 50 0;#P connect 50 0 51 0;#P connect 28 1 48 0;#P connect 48 0 49 0;#P connect 36 1 35 0;#P pop;