max v2;#N vpatcher 579 44 1034 355;#P window setfont "Sans Serif" 9.;#P window linecount 1;#P message 228 139 20 196617 \$1;#P message 257 139 20 196617 \$2;#P newex 228 103 64 196617 patcherargs;#P newex 63 177 87 196617 scale 0. 1. 0 100;#P newex 63 123 43 196617 jit.spill;#P button 35 63 15 0;#P newex 63 83 110 196617 jit.noise 1 float32 1 1;#N comlet High random value;#P inlet 251 48 15 0;#N comlet Low random value;#P inlet 227 48 15 0;#N comlet Random value out;#P outlet 63 242 15 0;#N comlet Generate random value (bang);#P inlet 63 48 15 0;#P window linecount 4;#P comment 285 130 126 196617 Using these instead of unpack to avoid having to choose between int and float.;#P connect 1 0 5 0;#P connect 6 0 5 0;#P connect 5 0 7 0;#P connect 7 0 8 0;#P connect 8 0 2 0;#P connect 11 0 8 3;#P connect 3 0 8 3;#P connect 10 0 8 4;#P connect 4 0 8 4;#P connect 9 0 11 0;#P connect 9 0 10 0;#P pop;