max v2;#N vpatcher 30 89 285 318;#P window setfont "Sans Serif" 9.;#P window linecount 1;#P newex 92 53 48 196617 loadbang;#P newex 92 113 40 196617 / 180.;#P newex 92 93 29 196617 * 4.;#P newex 92 73 41 196617 atan 1.;#P newex 37 138 65 196617 * 0.017453;#P inlet 37 44 15 0;#P outlet 37 160 15 0;#P comment 124 141 100 196617 $f1 * PI / 180.;#P connect 2 0 3 0;#P connect 3 0 1 0;#P connect 7 0 4 0;#P connect 4 0 5 0;#P connect 5 0 6 0;#P connect 6 0 3 1;#P pop;