max v2;#N vpatcher 20 74 424 299;#P origin 0 36;#P outlet 306 149 15 0;#P inlet 42 37 15 0;#P outlet 42 149 15 0;#P window setfont "Sans Serif" 9.;#P window linecount 2;#P newex 42 65 282 196617 jcom.pass /adapt /colormode /depth /dim /dimscale /displaylist /edges /shape /subdiv /rect /texrect /wrap;#P connect 2 0 0 0;#P fasten 0 11 1 0 289 121 47 121;#P fasten 0 10 1 0 267 121 47 121;#P fasten 0 0 1 0 47 121 47 121;#P fasten 0 1 1 0 69 121 47 121;#P fasten 0 2 1 0 91 121 47 121;#P fasten 0 3 1 0 113 121 47 121;#P fasten 0 4 1 0 135 121 47 121;#P fasten 0 5 1 0 157 121 47 121;#P fasten 0 6 1 0 179 121 47 121;#P fasten 0 7 1 0 201 121 47 121;#P fasten 0 8 1 0 223 121 47 121;#P fasten 0 9 1 0 245 121 47 121;#P connect 0 12 3 0;#P pop;