max v2;#N vpatcher 297 198 910 686;#P origin -583 -122;#P inlet 447 34 15 0;#P window setfont "Sans Serif" 9.;#P window linecount 1;#P newex 447 112 27 196617 t b l;#P newex 447 91 73 196617 prepend setall;#P newex 447 139 105 196617 jit.matrix 4 char 1 1;#P inlet 203 34 15 0;#P newex 203 126 27 196617 + 1;#P toggle 203 107 15 0;#P newex 203 156 55 196617 switch 2 1;#P inlet 247 34 15 0;#P newex 59 121 69 196617 speedlim 200;#P newex 59 100 65 196617 jcom.change;#P message 59 82 51 196617 \$2 \$3 \$4;#P newex 45 60 53 196617 jit.3m;#B color 5;#P outlet 185 419 15 0;#P inlet 27 34 15 0;#P hidden message 372 219 21 196617 0.1;#P hidden message 327 219 21 196617 0.2;#P hidden newex 327 196 44 196617 loadbang;#P newex 203 219 93 196617 unpack 0. 0. 0.;#P newex 203 196 77 196617 vexpr $i1/255.;#P flonum 372 247 35 9 0 0 0 3 0 0 0 221 221 221 222 222 222 0 0 0;#P message 372 280 42 196617 fade \$1;#P flonum 327 247 35 9 0 0 0 3 0 0 0 221 221 221 222 222 222 0 0 0;#P message 327 281 35 196617 tol \$1;#P flonum 285 247 35 9 0 0 0 3 0 0 0 221 221 221 222 222 222 0 0 0;#P flonum 244 247 35 9 0 0 0 3 0 0 0 221 221 221 222 222 222 0 0 0;#P flonum 203 247 35 9 0 0 0 3 0 0 0 221 221 221 222 222 222 0 0 0;#P flonum 162 247 35 9 0 0 0 3 0 0 0 221 221 221 222 222 222 0 0 0;#P newex 121 281 177 196617 pak color 0. 0. 0. 0.;#P newex 185 366 71 196617 jit.chromakey;#B color 5;#P fasten 15 0 17 0 32 56 50 56;#P connect 17 1 18 0;#P connect 18 0 19 0;#P connect 19 0 20 0;#P connect 2 0 1 1;#P fasten 15 0 0 0 32 349 190 349;#P fasten 1 0 0 0 126 332 190 332;#P fasten 6 0 0 0 332 331 190 331;#P fasten 8 0 0 0 377 330 190 330;#P connect 0 0 16 0;#P connect 25 0 23 0;#P connect 23 0 24 0;#P connect 24 0 22 0;#P fasten 20 0 10 0 64 187 208 187;#P connect 22 0 10 0;#P connect 10 0 11 0;#P connect 11 0 3 0;#P connect 3 0 1 2;#P connect 20 0 22 1;#P connect 11 1 4 0;#P connect 4 0 1 3;#P fasten 26 0 0 1 452 355 251 355;#P connect 21 0 22 2;#P connect 11 2 5 0;#P connect 5 0 1 4;#P hidden connect 12 0 13 0;#P hidden connect 13 0 7 0;#P connect 7 0 6 0;#P hidden fasten 12 0 14 0 332 215 377 215;#P hidden connect 14 0 9 0;#P connect 9 0 8 0;#P connect 29 0 27 0;#P connect 27 0 28 0;#P connect 28 0 26 0;#P fasten 28 1 26 0 469 134 452 134;#P pop;