max v2;#N vpatcher 464 44 909 363;#P window setfont "Sans Serif" 9.;#P window linecount 1;#P newex 137 158 65 196617 jcom.change;#P newex 67 128 124 196617 jcom.pass planecount dim;#P newex 67 158 65 196617 jcom.change;#P newex 67 107 72 196617 jit.matrixinfo;#P inlet 67 50 15 0;#P outlet 67 238 15 0;#P window linecount 5;#P comment 225 117 179 196617 This little thing passes on the planecount and dimensions of the matrix \, so that following jit.matrix or jit.matrixset objects don't have problems.;#P connect 2 0 3 0;#P connect 3 0 5 0;#P connect 5 0 4 0;#P fasten 2 0 1 0 72 88 46 88 46 210 72 210;#P connect 6 0 1 0;#P connect 4 0 1 0;#P connect 5 1 6 0;#P pop;