max v2;#N vpatcher 459 44 1022 296;#P window setfont "Sans Serif" 9.;#P window linecount 1;#P comment 136 92 244 196617 This is the trick to flip the order of the two frames.;#P comment 136 71 258 196617 Removes similar frames to avoid a blank motion image.;#P newex 40 71 53 196617 jit.change;#P comment 136 120 229 196617 Find the absolute difference between the frames.;#P newex 40 120 85 196617 jit.op @op absdiff;#P newex 40 94 27 196617 t l l;#P inlet 40 52 15 0;#P outlet 40 141 15 0;#P connect 1 0 5 0;#P connect 5 0 2 0;#P connect 2 1 3 0;#P connect 3 0 0 0;#P fasten 2 0 3 1 45 115 120 115;#P pop;