{
	"patcher" : 	{
		"rect" : [ 562.0, 51.0, 637.0, 272.0 ],
		"bglocked" : 0,
		"defrect" : [ 562.0, 51.0, 637.0, 272.0 ],
		"openinpresentation" : 0,
		"default_fontsize" : 10.0,
		"default_fontface" : 0,
		"default_fontname" : "Verdana",
		"gridonopen" : 0,
		"gridsize" : [ 5.0, 5.0 ],
		"gridsnaponopen" : 0,
		"toolbarvisible" : 1,
		"boxfadetime" : 200,
		"boxanimatetime" : 200,
		"scrollanimatetime" : 200,
		"metadata" : [  ],
		"boxes" : [ 			{
				"box" : 				{
					"maxclass" : "newobj",
					"text" : "jcom.pass text size color frgb brgb rgb2",
					"outlettype" : [ "", "", "", "", "", "" ],
					"id" : "obj-1",
					"hidden" : 1,
					"fontsize" : 9.0,
					"patching_rect" : [ 359.0, 71.0, 199.0, 17.0 ],
					"numinlets" : 1,
					"numoutlets" : 6,
					"fontname" : "Verdana"
				}

			}
, 			{
				"box" : 				{
					"maxclass" : "newobj",
					"text" : "patcherargs 0. @size 150 14 @text <> @frgb 255 255 255 @brgb 45 45 45 @rgb2 75 75 123",
					"linecount" : 2,
					"outlettype" : [ "", "" ],
					"id" : "obj-2",
					"hidden" : 1,
					"fontsize" : 9.0,
					"patching_rect" : [ 283.0, 31.0, 232.0, 28.0 ],
					"numinlets" : 1,
					"numoutlets" : 2,
					"fontname" : "Verdana"
				}

			}
, 			{
				"box" : 				{
					"maxclass" : "inlet",
					"outlettype" : [ "" ],
					"id" : "obj-3",
					"hidden" : 1,
					"patching_rect" : [ 258.0, 33.0, 15.0, 15.0 ],
					"numinlets" : 0,
					"numoutlets" : 1,
					"comment" : ""
				}

			}
, 			{
				"box" : 				{
					"maxclass" : "newobj",
					"text" : "route text size frgb brgb rgb2",
					"outlettype" : [ "", "", "", "", "", "" ],
					"id" : "obj-4",
					"hidden" : 1,
					"fontsize" : 9.0,
					"patching_rect" : [ 258.0, 99.0, 153.0, 17.0 ],
					"numinlets" : 1,
					"numoutlets" : 6,
					"fontname" : "Verdana"
				}

			}
, 			{
				"box" : 				{
					"maxclass" : "outlet",
					"id" : "obj-5",
					"hidden" : 1,
					"patching_rect" : [ 69.0, 180.0, 15.0, 15.0 ],
					"numinlets" : 1,
					"numoutlets" : 0,
					"comment" : ""
				}

			}
, 			{
				"box" : 				{
					"maxclass" : "newobj",
					"text" : "p",
					"outlettype" : [ "", "" ],
					"id" : "obj-6",
					"hidden" : 1,
					"fontsize" : 9.0,
					"patching_rect" : [ 0.0, 152.0, 79.0, 17.0 ],
					"numinlets" : 10,
					"numoutlets" : 2,
					"fontname" : "Verdana",
					"patcher" : 					{
						"rect" : [ 553.0, 95.0, 666.0, 635.0 ],
										"bglocked" : 0,
						"defrect" : [ 553.0, 95.0, 666.0, 635.0 ],
						"openinpresentation" : 0,
						"default_fontsize" : 10.0,
						"default_fontface" : 0,
						"default_fontname" : "Verdana",
						"gridonopen" : 0,
						"gridsize" : [ 5.0, 5.0 ],
						"gridsnaponopen" : 0,
						"toolbarvisible" : 1,
						"boxfadetime" : 200,
						"boxanimatetime" : 200,
						"scrollanimatetime" : 200,
						"metadata" : [  ],
						"boxes" : [ 							{
								"box" : 								{
									"maxclass" : "newobj",
									"text" : "f",
									"outlettype" : [ "float" ],
									"id" : "obj-1",
									"fontsize" : 9.0,
									"patching_rect" : [ 599.0, 196.0, 27.0, 17.0 ],
									"numinlets" : 2,
									"numoutlets" : 1,
									"fontname" : "Verdana"
								}

							}
, 							{
								"box" : 								{
									"maxclass" : "newobj",
									"text" : "sel bang",
									"outlettype" : [ "bang", "" ],
									"id" : "obj-2",
									"fontsize" : 9.0,
									"patching_rect" : [ 520.0, 69.0, 46.0, 17.0 ],
									"numinlets" : 1,
									"numoutlets" : 2,
									"fontname" : "Verdana"
								}

							}
, 							{
								"box" : 								{
									"maxclass" : "button",
									"outlettype" : [ "bang" ],
									"id" : "obj-3",
									"patching_rect" : [ 294.0, 446.0, 15.0, 15.0 ],
									"numinlets" : 1,
									"numoutlets" : 1
								}

							}
, 							{
								"box" : 								{
									"maxclass" : "button",
									"outlettype" : [ "bang" ],
									"id" : "obj-4",
									"patching_rect" : [ 226.0, 544.0, 15.0, 15.0 ],
									"numinlets" : 1,
									"numoutlets" : 1
								}

							}
, 							{
								"box" : 								{
									"maxclass" : "flonum",
									"outlettype" : [ "float", "bang" ],
									"id" : "obj-5",
									"triscale" : 0.9,
									"htextcolor" : [ 0.870588, 0.870588, 0.870588, 1.0 ],
									"bgcolor" : [ 0.866667, 0.866667, 0.866667, 1.0 ],
									"fontsize" : 9.0,
									"patching_rect" : [ 248.0, 450.0, 35.0, 17.0 ],
									"numinlets" : 1,
									"numoutlets" : 2,
									"fontname" : "Verdana"
								}

							}
, 							{
								"box" : 								{
									"maxclass" : "flonum",
									"outlettype" : [ "float", "bang" ],
									"id" : "obj-6",
									"triscale" : 0.9,
									"htextcolor" : [ 0.870588, 0.870588, 0.870588, 1.0 ],
									"bgcolor" : [ 0.866667, 0.866667, 0.866667, 1.0 ],
									"fontsize" : 9.0,
									"patching_rect" : [ 245.0, 520.0, 35.0, 17.0 ],
									"numinlets" : 1,
									"numoutlets" : 2,
									"fontname" : "Verdana"
								}

							}
, 							{
								"box" : 								{
									"maxclass" : "newobj",
									"text" : "clip 0. 1.",
									"outlettype" : [ "" ],
									"id" : "obj-7",
									"fontsize" : 9.0,
									"patching_rect" : [ 247.0, 479.0, 50.0, 17.0 ],
									"numinlets" : 3,
									"numoutlets" : 1,
									"fontname" : "Verdana"
								}

							}
, 							{
								"box" : 								{
									"maxclass" : "inlet",
									"varname" : "rgb",
									"outlettype" : [ "" ],
									"id" : "obj-8",
									"patching_rect" : [ 461.0, 63.0, 15.0, 15.0 ],
									"numinlets" : 0,
									"numoutlets" : 1,
									"comment" : "rgb2"
								}

							}
, 							{
								"box" : 								{
									"maxclass" : "comment",
									"text" : "rgb2",
									"id" : "obj-9",
									"fontsize" : 9.0,
									"patching_rect" : [ 459.0, 39.0, 55.0, 17.0 ],
									"numinlets" : 1,
									"numoutlets" : 0,
									"fontname" : "Verdana"
								}

							}
, 							{
								"box" : 								{
									"maxclass" : "comment",
									"text" : "frgb",
									"id" : "obj-10",
									"fontsize" : 9.0,
									"patching_rect" : [ 362.0, 38.0, 29.0, 17.0 ],
									"numinlets" : 1,
									"numoutlets" : 0,
									"fontname" : "Verdana"
								}

							}
, 							{
								"box" : 								{
									"maxclass" : "comment",
									"text" : "brgb",
									"id" : "obj-11",
									"fontsize" : 9.0,
									"patching_rect" : [ 407.0, 39.0, 55.0, 17.0 ],
									"numinlets" : 1,
									"numoutlets" : 0,
									"fontname" : "Verdana"
								}

							}
, 							{
								"box" : 								{
									"maxclass" : "inlet",
									"outlettype" : [ "" ],
									"id" : "obj-12",
									"patching_rect" : [ 362.0, 61.0, 15.0, 15.0 ],
									"numinlets" : 0,
									"numoutlets" : 1,
									"comment" : "frgb"
								}

							}
, 							{
								"box" : 								{
									"maxclass" : "inlet",
									"outlettype" : [ "" ],
									"id" : "obj-13",
									"patching_rect" : [ 406.0, 62.0, 15.0, 15.0 ],
									"numinlets" : 0,
									"numoutlets" : 1,
									"comment" : "brgb"
								}

							}
, 							{
								"box" : 								{
									"maxclass" : "comment",
									"text" : "text",
									"id" : "obj-14",
									"fontsize" : 9.0,
									"patching_rect" : [ 252.0, 38.0, 32.0, 17.0 ],
									"numinlets" : 1,
									"numoutlets" : 0,
									"fontname" : "Verdana"
								}

							}
, 							{
								"box" : 								{
									"maxclass" : "comment",
									"text" : "float",
									"id" : "obj-15",
									"fontsize" : 9.0,
									"patching_rect" : [ 74.0, 491.0, 100.0, 17.0 ],
									"numinlets" : 1,
									"numoutlets" : 0,
									"fontname" : "Verdana"
								}

							}
, 							{
								"box" : 								{
									"maxclass" : "comment",
									"text" : "lcd 4",
									"id" : "obj-16",
									"fontsize" : 9.0,
									"patching_rect" : [ 182.0, 38.0, 35.0, 17.0 ],
									"numinlets" : 1,
									"numoutlets" : 0,
									"fontname" : "Verdana"
								}

							}
, 							{
								"box" : 								{
									"maxclass" : "comment",
									"text" : "lcd 3",
									"id" : "obj-17",
									"fontsize" : 9.0,
									"patching_rect" : [ 146.0, 38.0, 35.0, 17.0 ],
									"numinlets" : 1,
									"numoutlets" : 0,
									"fontname" : "Verdana"
								}

							}
, 							{
								"box" : 								{
									"maxclass" : "comment",
									"text" : "lcd 2",
									"id" : "obj-18",
									"fontsize" : 9.0,
									"patching_rect" : [ 110.0, 38.0, 35.0, 17.0 ],
									"numinlets" : 1,
									"numoutlets" : 0,
									"fontname" : "Verdana"
								}

							}
, 							{
								"box" : 								{
									"maxclass" : "comment",
									"text" : "lcd 1",
									"id" : "obj-19",
									"fontsize" : 9.0,
									"patching_rect" : [ 74.0, 38.0, 35.0, 17.0 ],
									"numinlets" : 1,
									"numoutlets" : 0,
									"fontname" : "Verdana"
								}

							}
, 							{
								"box" : 								{
									"maxclass" : "comment",
									"text" : "size",
									"id" : "obj-20",
									"fontsize" : 9.0,
									"patching_rect" : [ 300.0, 38.0, 29.0, 17.0 ],
									"numinlets" : 1,
									"numoutlets" : 0,
									"fontname" : "Verdana"
								}

							}
, 							{
								"box" : 								{
									"maxclass" : "newobj",
									"text" : "prepend size",
									"outlettype" : [ "" ],
									"id" : "obj-21",
									"fontsize" : 9.0,
									"patching_rect" : [ 307.0, 410.0, 66.0, 17.0 ],
									"numinlets" : 1,
									"numoutlets" : 1,
									"fontname" : "Verdana"
								}

							}
, 							{
								"box" : 								{
									"maxclass" : "inlet",
									"outlettype" : [ "" ],
									"id" : "obj-22",
									"patching_rect" : [ 307.0, 58.0, 15.0, 15.0 ],
									"numinlets" : 0,
									"numoutlets" : 1,
									"comment" : "size"
								}

							}
, 							{
								"box" : 								{
									"maxclass" : "inlet",
									"outlettype" : [ "" ],
									"id" : "obj-23",
									"patching_rect" : [ 258.0, 59.0, 15.0, 15.0 ],
									"numinlets" : 0,
									"numoutlets" : 1,
									"comment" : "text"
								}

							}
, 							{
								"box" : 								{
									"maxclass" : "newobj",
									"text" : "clip 0. 1.",
									"outlettype" : [ "" ],
									"id" : "obj-24",
									"fontsize" : 9.0,
									"patching_rect" : [ 77.0, 403.0, 50.0, 17.0 ],
									"numinlets" : 3,
									"numoutlets" : 1,
									"fontname" : "Verdana"
								}

							}
, 							{
								"box" : 								{
									"maxclass" : "newobj",
									"text" : "f",
									"outlettype" : [ "float" ],
									"id" : "obj-25",
									"fontsize" : 9.0,
									"patching_rect" : [ 512.0, 122.0, 27.0, 17.0 ],
									"numinlets" : 2,
									"numoutlets" : 1,
									"fontname" : "Verdana"
								}

							}
, 							{
								"box" : 								{
									"maxclass" : "newobj",
									"text" : "route set",
									"outlettype" : [ "", "" ],
									"id" : "obj-26",
									"fontsize" : 9.0,
									"patching_rect" : [ 558.0, 90.0, 51.0, 17.0 ],
									"numinlets" : 1,
									"numoutlets" : 2,
									"fontname" : "Verdana"
								}

							}
, 							{
								"box" : 								{
									"maxclass" : "inlet",
									"outlettype" : [ "" ],
									"id" : "obj-27",
									"patching_rect" : [ 520.0, 50.0, 15.0, 15.0 ],
									"numinlets" : 0,
									"numoutlets" : 1,
									"comment" : "float, set"
								}

							}
, 							{
								"box" : 								{
									"maxclass" : "newobj",
									"text" : "p value",
									"outlettype" : [ "float" ],
									"id" : "obj-28",
									"fontsize" : 9.0,
									"patching_rect" : [ 77.0, 234.0, 42.0, 17.0 ],
									"numinlets" : 2,
									"numoutlets" : 1,
									"fontname" : "Verdana",
									"patcher" : 									{
										"rect" : [ 50.0, 119.0, 600.0, 426.0 ],
																		"bglocked" : 0,
										"defrect" : [ 50.0, 119.0, 600.0, 426.0 ],
										"openinpresentation" : 0,
										"default_fontsize" : 10.0,
										"default_fontface" : 0,
										"default_fontname" : "Verdana",
										"gridonopen" : 0,
										"gridsize" : [ 5.0, 5.0 ],
										"gridsnaponopen" : 0,
										"toolbarvisible" : 1,
										"boxfadetime" : 200,
										"boxanimatetime" : 200,
										"scrollanimatetime" : 200,
										"metadata" : [  ],
										"boxes" : [ 											{
												"box" : 												{
													"maxclass" : "newobj",
													"text" : "zl slice 1",
													"outlettype" : [ "", "" ],
													"id" : "obj-1",
													"fontsize" : 9.0,
													"patching_rect" : [ 105.0, 104.0, 51.0, 17.0 ],
													"numinlets" : 2,
													"numoutlets" : 2,
													"fontname" : "Verdana"
												}

											}
, 											{
												"box" : 												{
													"maxclass" : "newobj",
													"text" : "zl slice 1",
													"outlettype" : [ "", "" ],
													"id" : "obj-2",
													"fontsize" : 9.0,
													"patching_rect" : [ 50.0, 104.0, 51.0, 17.0 ],
													"numinlets" : 2,
													"numoutlets" : 2,
													"fontname" : "Verdana"
												}

											}
, 											{
												"box" : 												{
													"maxclass" : "newobj",
													"text" : "\/ 1.",
													"outlettype" : [ "float" ],
													"id" : "obj-3",
													"fontsize" : 9.0,
													"patching_rect" : [ 50.0, 158.0, 27.0, 17.0 ],
													"numinlets" : 2,
													"numoutlets" : 1,
													"fontname" : "Verdana"
												}

											}
, 											{
												"box" : 												{
													"maxclass" : "inlet",
													"outlettype" : [ "list" ],
													"id" : "obj-4",
													"patching_rect" : [ 50.0, 72.0, 15.0, 15.0 ],
													"numinlets" : 0,
													"numoutlets" : 1,
													"comment" : ""
												}

											}
, 											{
												"box" : 												{
													"maxclass" : "inlet",
													"outlettype" : [ "" ],
													"id" : "obj-5",
													"patching_rect" : [ 105.0, 72.0, 15.0, 15.0 ],
													"numinlets" : 0,
													"numoutlets" : 1,
													"comment" : ""
												}

											}
, 											{
												"box" : 												{
													"maxclass" : "outlet",
													"id" : "obj-6",
													"patching_rect" : [ 50.0, 205.0, 15.0, 15.0 ],
													"numinlets" : 1,
													"numoutlets" : 0,
													"comment" : ""
												}

											}
 ],
										"lines" : [ 											{
												"patchline" : 												{
													"source" : [ "obj-4", 0 ],
													"destination" : [ "obj-2", 0 ],
													"hidden" : 0
												}

											}
, 											{
												"patchline" : 												{
													"source" : [ "obj-2", 0 ],
													"destination" : [ "obj-3", 0 ],
													"hidden" : 0
												}

											}
, 											{
												"patchline" : 												{
													"source" : [ "obj-3", 0 ],
													"destination" : [ "obj-6", 0 ],
													"hidden" : 0
												}

											}
, 											{
												"patchline" : 												{
													"source" : [ "obj-1", 0 ],
													"destination" : [ "obj-3", 1 ],
													"hidden" : 0
												}

											}
, 											{
												"patchline" : 												{
													"source" : [ "obj-5", 0 ],
													"destination" : [ "obj-1", 0 ],
													"hidden" : 0
												}

											}
 ]
									}
,
									"saved_object_attributes" : 									{
										"fontface" : 0,
										"default_fontsize" : 10.0,
										"fontsize" : 10.0,
										"default_fontname" : "Verdana",
										"globalpatchername" : "",
										"fontname" : "Verdana",
										"default_fontface" : 0
									}

								}

							}
, 							{
								"box" : 								{
									"maxclass" : "newobj",
									"text" : "p draw",
									"outlettype" : [ "" ],
									"id" : "obj-29",
									"fontsize" : 9.0,
									"patching_rect" : [ 22.0, 216.0, 53.0, 17.0 ],
									"numinlets" : 7,
									"numoutlets" : 1,
									"fontname" : "Verdana",
									"patcher" : 									{
										"rect" : [ 98.0, 100.0, 1024.0, 607.0 ],
																		"bglocked" : 0,
										"defrect" : [ 98.0, 100.0, 1024.0, 607.0 ],
										"openinpresentation" : 0,
										"default_fontsize" : 10.0,
										"default_fontface" : 0,
										"default_fontname" : "Verdana",
										"gridonopen" : 0,
										"gridsize" : [ 5.0, 5.0 ],
										"gridsnaponopen" : 0,
										"toolbarvisible" : 1,
										"boxfadetime" : 200,
										"boxanimatetime" : 200,
										"scrollanimatetime" : 200,
										"metadata" : [  ],
										"boxes" : [ 											{
												"box" : 												{
													"maxclass" : "message",
													"text" : "set paintrect \\$1 0 \\$3 \\$4 $1 $2 $3",
													"linecount" : 3,
													"outlettype" : [ "" ],
													"id" : "obj-1",
													"fontsize" : 9.0,
													"patching_rect" : [ 730.0, 218.0, 70.0, 36.0 ],
													"numinlets" : 2,
													"numoutlets" : 1,
													"fontname" : "Verdana"
												}

											}
, 											{
												"box" : 												{
													"maxclass" : "message",
													"text" : "set paintrect 0 0 \\$1 \\$4 $1 $2 $3",
													"linecount" : 3,
													"outlettype" : [ "" ],
													"id" : "obj-2",
													"fontsize" : 9.0,
													"patching_rect" : [ 802.0, 349.0, 59.0, 36.0 ],
													"numinlets" : 2,
													"numoutlets" : 1,
													"fontname" : "Verdana"
												}

											}
, 											{
												"box" : 												{
													"maxclass" : "message",
													"text" : "set frgb $1 $2 $3",
													"outlettype" : [ "" ],
													"id" : "obj-3",
													"fontsize" : 9.0,
													"patching_rect" : [ 641.0, 306.0, 91.0, 15.0 ],
													"numinlets" : 2,
													"numoutlets" : 1,
													"fontname" : "Verdana"
												}

											}
, 											{
												"box" : 												{
													"maxclass" : "inlet",
													"varname" : "rgb",
													"outlettype" : [ "" ],
													"id" : "obj-4",
													"patching_rect" : [ 802.0, 65.0, 15.0, 15.0 ],
													"numinlets" : 0,
													"numoutlets" : 1,
													"comment" : "rgb2"
												}

											}
, 											{
												"box" : 												{
													"maxclass" : "inlet",
													"outlettype" : [ "" ],
													"id" : "obj-5",
													"patching_rect" : [ 641.0, 65.0, 16.0, 16.0 ],
													"numinlets" : 0,
													"numoutlets" : 1,
													"comment" : "frgb"
												}

											}
, 											{
												"box" : 												{
													"maxclass" : "inlet",
													"outlettype" : [ "" ],
													"id" : "obj-6",
													"patching_rect" : [ 730.0, 65.0, 15.0, 15.0 ],
													"numinlets" : 0,
													"numoutlets" : 1,
													"comment" : "brgb"
												}

											}
, 											{
												"box" : 												{
													"maxclass" : "newobj",
													"text" : "t b",
													"outlettype" : [ "bang" ],
													"id" : "obj-7",
													"fontsize" : 9.0,
													"patching_rect" : [ 43.0, 367.0, 20.0, 17.0 ],
													"numinlets" : 1,
													"numoutlets" : 1,
													"fontname" : "Verdana"
												}

											}
, 											{
												"box" : 												{
													"maxclass" : "message",
													"text" : "frgb 255 255 255",
													"outlettype" : [ "" ],
													"id" : "obj-8",
													"fontsize" : 9.0,
													"patching_rect" : [ 140.0, 405.0, 92.0, 15.0 ],
													"numinlets" : 2,
													"numoutlets" : 1,
													"fontname" : "Verdana"
												}

											}
, 											{
												"box" : 												{
													"maxclass" : "newobj",
													"text" : "prepend write",
													"outlettype" : [ "" ],
													"id" : "obj-9",
													"fontsize" : 9.0,
													"patching_rect" : [ 83.0, 326.0, 73.0, 17.0 ],
													"numinlets" : 1,
													"numoutlets" : 1,
													"fontname" : "Verdana"
												}

											}
, 											{
												"box" : 												{
													"maxclass" : "newobj",
													"text" : "zl reg",
													"outlettype" : [ "", "" ],
													"id" : "obj-10",
													"fontsize" : 9.0,
													"patching_rect" : [ 99.0, 405.0, 36.0, 17.0 ],
													"numinlets" : 2,
													"numoutlets" : 2,
													"fontname" : "Verdana"
												}

											}
, 											{
												"box" : 												{
													"maxclass" : "message",
													"text" : "moveto 3 $1",
													"outlettype" : [ "" ],
													"id" : "obj-11",
													"fontsize" : 9.0,
													"patching_rect" : [ 407.0, 195.0, 67.0, 15.0 ],
													"numinlets" : 2,
													"numoutlets" : 1,
													"fontname" : "Verdana"
												}

											}
, 											{
												"box" : 												{
													"maxclass" : "message",
													"text" : "font Verdana $1",
													"outlettype" : [ "" ],
													"id" : "obj-12",
													"fontsize" : 9.0,
													"patching_rect" : [ 489.0, 195.0, 82.0, 15.0 ],
													"numinlets" : 2,
													"numoutlets" : 1,
													"fontname" : "Verdana"
												}

											}
, 											{
												"box" : 												{
													"maxclass" : "newobj",
													"text" : "i",
													"outlettype" : [ "int" ],
													"id" : "obj-13",
													"fontsize" : 9.0,
													"patching_rect" : [ 407.0, 173.0, 27.0, 17.0 ],
													"numinlets" : 2,
													"numoutlets" : 1,
													"fontname" : "Verdana"
												}

											}
, 											{
												"box" : 												{
													"maxclass" : "newobj",
													"text" : "i",
													"outlettype" : [ "int" ],
													"id" : "obj-14",
													"fontsize" : 9.0,
													"patching_rect" : [ 489.0, 173.0, 27.0, 17.0 ],
													"numinlets" : 2,
													"numoutlets" : 1,
													"fontname" : "Verdana"
												}

											}
, 											{
												"box" : 												{
													"maxclass" : "newobj",
													"text" : "t b l",
													"outlettype" : [ "bang", "" ],
													"id" : "obj-15",
													"fontsize" : 9.0,
													"patching_rect" : [ 66.0, 224.0, 27.0, 17.0 ],
													"numinlets" : 1,
													"numoutlets" : 2,
													"fontname" : "Verdana"
												}

											}
, 											{
												"box" : 												{
													"maxclass" : "newobj",
													"text" : "zl reg",
													"outlettype" : [ "", "" ],
													"id" : "obj-16",
													"fontsize" : 9.0,
													"patching_rect" : [ 57.0, 405.0, 36.0, 17.0 ],
													"numinlets" : 2,
													"numoutlets" : 2,
													"fontname" : "Verdana"
												}

											}
, 											{
												"box" : 												{
													"maxclass" : "newobj",
													"text" : "* 0.8",
													"outlettype" : [ "float" ],
													"id" : "obj-17",
													"fontsize" : 9.0,
													"patching_rect" : [ 407.0, 148.0, 35.0, 17.0 ],
													"numinlets" : 2,
													"numoutlets" : 1,
													"fontname" : "Verdana"
												}

											}
, 											{
												"box" : 												{
													"maxclass" : "newobj",
													"text" : "* 0.78",
													"outlettype" : [ "float" ],
													"id" : "obj-18",
													"fontsize" : 9.0,
													"patching_rect" : [ 489.0, 148.0, 41.0, 17.0 ],
													"numinlets" : 2,
													"numoutlets" : 1,
													"fontname" : "Verdana"
												}

											}
, 											{
												"box" : 												{
													"maxclass" : "newobj",
													"text" : "unpack",
													"outlettype" : [ "int", "int" ],
													"id" : "obj-19",
													"fontsize" : 9.0,
													"patching_rect" : [ 377.0, 121.0, 40.0, 17.0 ],
													"numinlets" : 1,
													"numoutlets" : 2,
													"fontname" : "Verdana"
												}

											}
, 											{
												"box" : 												{
													"maxclass" : "inlet",
													"outlettype" : [ "" ],
													"id" : "obj-20",
													"patching_rect" : [ 416.0, 71.0, 15.0, 15.0 ],
													"numinlets" : 0,
													"numoutlets" : 1,
													"comment" : ""
												}

											}
, 											{
												"box" : 												{
													"maxclass" : "message",
													"text" : "$1 0",
													"outlettype" : [ "" ],
													"id" : "obj-21",
													"fontsize" : 9.0,
													"patching_rect" : [ 272.0, 225.0, 31.0, 15.0 ],
													"numinlets" : 2,
													"numoutlets" : 1,
													"fontname" : "Verdana"
												}

											}
, 											{
												"box" : 												{
													"maxclass" : "newobj",
													"text" : "* 1.",
													"outlettype" : [ "float" ],
													"id" : "obj-22",
													"fontsize" : 9.0,
													"patching_rect" : [ 272.0, 203.0, 29.0, 17.0 ],
													"numinlets" : 2,
													"numoutlets" : 1,
													"fontname" : "Verdana"
												}

											}
, 											{
												"box" : 												{
													"maxclass" : "newobj",
													"text" : "zl slice 1",
													"outlettype" : [ "", "" ],
													"id" : "obj-23",
													"fontsize" : 9.0,
													"patching_rect" : [ 291.0, 163.0, 51.0, 17.0 ],
													"numinlets" : 2,
													"numoutlets" : 2,
													"fontname" : "Verdana"
												}

											}
, 											{
												"box" : 												{
													"maxclass" : "inlet",
													"outlettype" : [ "float" ],
													"id" : "obj-24",
													"patching_rect" : [ 272.0, 68.0, 15.0, 15.0 ],
													"numinlets" : 0,
													"numoutlets" : 1,
													"comment" : ""
												}

											}
, 											{
												"box" : 												{
													"maxclass" : "newobj",
													"text" : "qlim 20",
													"outlettype" : [ "" ],
													"id" : "obj-25",
													"fontsize" : 9.0,
													"patching_rect" : [ 248.0, 331.0, 44.0, 17.0 ],
													"numinlets" : 2,
													"numoutlets" : 1,
													"fontname" : "Verdana"
												}

											}
, 											{
												"box" : 												{
													"maxclass" : "message",
													"text" : "paintrect $1 0 $3 $4 45 45 45",
													"outlettype" : [ "" ],
													"id" : "obj-26",
													"fontsize" : 9.0,
													"patching_rect" : [ 278.0, 479.0, 169.0, 15.0 ],
													"numinlets" : 2,
													"numoutlets" : 1,
													"fontname" : "Verdana"
												}

											}
, 											{
												"box" : 												{
													"maxclass" : "message",
													"text" : "paintrect 0 0 $1 $4 75 75 123",
													"outlettype" : [ "" ],
													"id" : "obj-27",
													"fontsize" : 9.0,
													"patching_rect" : [ 248.0, 451.0, 162.0, 15.0 ],
													"numinlets" : 2,
													"numoutlets" : 1,
													"fontname" : "Verdana"
												}

											}
, 											{
												"box" : 												{
													"maxclass" : "newobj",
													"text" : "zl reg",
													"outlettype" : [ "", "" ],
													"id" : "obj-28",
													"fontsize" : 9.0,
													"patching_rect" : [ 248.0, 269.0, 36.0, 17.0 ],
													"numinlets" : 2,
													"numoutlets" : 2,
													"fontname" : "Verdana"
												}

											}
, 											{
												"box" : 												{
													"maxclass" : "newobj",
													"text" : "t b l",
													"outlettype" : [ "bang", "" ],
													"id" : "obj-29",
													"fontsize" : 9.0,
													"patching_rect" : [ 588.0, 162.0, 27.0, 17.0 ],
													"numinlets" : 1,
													"numoutlets" : 2,
													"fontname" : "Verdana"
												}

											}
, 											{
												"box" : 												{
													"maxclass" : "newobj",
													"text" : "zl join",
													"outlettype" : [ "", "" ],
													"id" : "obj-30",
													"fontsize" : 9.0,
													"patching_rect" : [ 248.0, 300.0, 38.0, 17.0 ],
													"numinlets" : 2,
													"numoutlets" : 2,
													"fontname" : "Verdana"
												}

											}
, 											{
												"box" : 												{
													"maxclass" : "inlet",
													"outlettype" : [ "" ],
													"id" : "obj-31",
													"patching_rect" : [ 588.0, 67.0, 15.0, 15.0 ],
													"numinlets" : 0,
													"numoutlets" : 1,
													"comment" : ""
												}

											}
, 											{
												"box" : 												{
													"maxclass" : "outlet",
													"id" : "obj-32",
													"patching_rect" : [ 248.0, 527.0, 15.0, 15.0 ],
													"numinlets" : 1,
													"numoutlets" : 0,
													"comment" : ""
												}

											}
, 											{
												"box" : 												{
													"maxclass" : "inlet",
													"outlettype" : [ "list" ],
													"id" : "obj-33",
													"patching_rect" : [ 248.0, 68.0, 15.0, 15.0 ],
													"numinlets" : 0,
													"numoutlets" : 1,
													"comment" : ""
												}

											}
 ],
										"lines" : [ 											{
												"patchline" : 												{
													"source" : [ "obj-25", 0 ],
													"destination" : [ "obj-7", 0 ],
													"hidden" : 0,
													"midpoints" : [ 257.5, 357.0, 52.5, 357.0 ]
												}

											}
, 											{
												"patchline" : 												{
													"source" : [ "obj-7", 0 ],
													"destination" : [ "obj-16", 0 ],
													"hidden" : 0
												}

											}
, 											{
												"patchline" : 												{
													"source" : [ "obj-20", 0 ],
													"destination" : [ "obj-15", 0 ],
													"hidden" : 0
												}

											}
, 											{
												"patchline" : 												{
													"source" : [ "obj-15", 1 ],
													"destination" : [ "obj-9", 0 ],
													"hidden" : 0
												}

											}
, 											{
												"patchline" : 												{
													"source" : [ "obj-9", 0 ],
													"destination" : [ "obj-16", 1 ],
													"hidden" : 0
												}

											}
, 											{
												"patchline" : 												{
													"source" : [ "obj-7", 0 ],
													"destination" : [ "obj-10", 0 ],
													"hidden" : 0
												}

											}
, 											{
												"patchline" : 												{
													"source" : [ "obj-11", 0 ],
													"destination" : [ "obj-10", 1 ],
													"hidden" : 0,
													"midpoints" : [ 416.5, 395.0, 125.5, 395.0 ]
												}

											}
, 											{
												"patchline" : 												{
													"source" : [ "obj-3", 0 ],
													"destination" : [ "obj-8", 0 ],
													"hidden" : 0,
													"midpoints" : [ 650.5, 399.0, 149.5, 399.0 ]
												}

											}
, 											{
												"patchline" : 												{
													"source" : [ "obj-7", 0 ],
													"destination" : [ "obj-8", 0 ],
													"hidden" : 0
												}

											}
, 											{
												"patchline" : 												{
													"source" : [ "obj-29", 0 ],
													"destination" : [ "obj-28", 0 ],
													"hidden" : 0,
													"midpoints" : [ 597.5, 264.0, 257.5, 264.0 ]
												}

											}
, 											{
												"patchline" : 												{
													"source" : [ "obj-33", 0 ],
													"destination" : [ "obj-28", 0 ],
													"hidden" : 0
												}

											}
, 											{
												"patchline" : 												{
													"source" : [ "obj-21", 0 ],
													"destination" : [ "obj-28", 0 ],
													"hidden" : 0,
													"midpoints" : [ 281.5, 254.0, 257.5, 254.0 ]
												}

											}
, 											{
												"patchline" : 												{
													"source" : [ "obj-28", 0 ],
													"destination" : [ "obj-30", 0 ],
													"hidden" : 0
												}

											}
, 											{
												"patchline" : 												{
													"source" : [ "obj-30", 0 ],
													"destination" : [ "obj-25", 0 ],
													"hidden" : 0
												}

											}
, 											{
												"patchline" : 												{
													"source" : [ "obj-15", 0 ],
													"destination" : [ "obj-25", 0 ],
													"hidden" : 0
												}

											}
, 											{
												"patchline" : 												{
													"source" : [ "obj-25", 0 ],
													"destination" : [ "obj-27", 0 ],
													"hidden" : 0
												}

											}
, 											{
												"patchline" : 												{
													"source" : [ "obj-2", 0 ],
													"destination" : [ "obj-27", 0 ],
													"hidden" : 0,
													"midpoints" : [ 811.5, 432.0, 257.5, 432.0 ]
												}

											}
, 											{
												"patchline" : 												{
													"source" : [ "obj-26", 0 ],
													"destination" : [ "obj-32", 0 ],
													"hidden" : 0,
													"midpoints" : [ 287.5, 510.0, 257.0, 510.0 ]
												}

											}
, 											{
												"patchline" : 												{
													"source" : [ "obj-27", 0 ],
													"destination" : [ "obj-32", 0 ],
													"hidden" : 0
												}

											}
, 											{
												"patchline" : 												{
													"source" : [ "obj-12", 0 ],
													"destination" : [ "obj-32", 0 ],
													"hidden" : 0,
													"midpoints" : [ 498.5, 501.0, 257.0, 501.0 ]
												}

											}
, 											{
												"patchline" : 												{
													"source" : [ "obj-10", 0 ],
													"destination" : [ "obj-32", 0 ],
													"hidden" : 0
												}

											}
, 											{
												"patchline" : 												{
													"source" : [ "obj-16", 0 ],
													"destination" : [ "obj-32", 0 ],
													"hidden" : 0
												}

											}
, 											{
												"patchline" : 												{
													"source" : [ "obj-8", 0 ],
													"destination" : [ "obj-32", 0 ],
													"hidden" : 0
												}

											}
, 											{
												"patchline" : 												{
													"source" : [ "obj-24", 0 ],
													"destination" : [ "obj-22", 0 ],
													"hidden" : 0
												}

											}
, 											{
												"patchline" : 												{
													"source" : [ "obj-22", 0 ],
													"destination" : [ "obj-21", 0 ],
													"hidden" : 0
												}

											}
, 											{
												"patchline" : 												{
													"source" : [ "obj-29", 1 ],
													"destination" : [ "obj-30", 1 ],
													"hidden" : 0,
													"midpoints" : [ 605.5, 298.0, 276.5, 298.0 ]
												}

											}
, 											{
												"patchline" : 												{
													"source" : [ "obj-25", 0 ],
													"destination" : [ "obj-26", 0 ],
													"hidden" : 0
												}

											}
, 											{
												"patchline" : 												{
													"source" : [ "obj-1", 0 ],
													"destination" : [ "obj-26", 0 ],
													"hidden" : 0,
													"midpoints" : [ 739.5, 472.0, 287.5, 472.0 ]
												}

											}
, 											{
												"patchline" : 												{
													"source" : [ "obj-19", 0 ],
													"destination" : [ "obj-23", 0 ],
													"hidden" : 0
												}

											}
, 											{
												"patchline" : 												{
													"source" : [ "obj-23", 0 ],
													"destination" : [ "obj-22", 1 ],
													"hidden" : 0,
													"midpoints" : [ 300.5, 192.0, 291.5, 192.0 ]
												}

											}
, 											{
												"patchline" : 												{
													"source" : [ "obj-31", 0 ],
													"destination" : [ "obj-19", 0 ],
													"hidden" : 0
												}

											}
, 											{
												"patchline" : 												{
													"source" : [ "obj-19", 1 ],
													"destination" : [ "obj-17", 0 ],
													"hidden" : 0
												}

											}
, 											{
												"patchline" : 												{
													"source" : [ "obj-17", 0 ],
													"destination" : [ "obj-13", 0 ],
													"hidden" : 0
												}

											}
, 											{
												"patchline" : 												{
													"source" : [ "obj-13", 0 ],
													"destination" : [ "obj-11", 0 ],
													"hidden" : 0
												}

											}
, 											{
												"patchline" : 												{
													"source" : [ "obj-19", 1 ],
													"destination" : [ "obj-18", 0 ],
													"hidden" : 0
												}

											}
, 											{
												"patchline" : 												{
													"source" : [ "obj-18", 0 ],
													"destination" : [ "obj-14", 0 ],
													"hidden" : 0
												}

											}
, 											{
												"patchline" : 												{
													"source" : [ "obj-14", 0 ],
													"destination" : [ "obj-12", 0 ],
													"hidden" : 0
												}

											}
, 											{
												"patchline" : 												{
													"source" : [ "obj-31", 0 ],
													"destination" : [ "obj-29", 0 ],
													"hidden" : 0
												}

											}
, 											{
												"patchline" : 												{
													"source" : [ "obj-5", 0 ],
													"destination" : [ "obj-3", 0 ],
													"hidden" : 0
												}

											}
, 											{
												"patchline" : 												{
													"source" : [ "obj-6", 0 ],
													"destination" : [ "obj-1", 0 ],
													"hidden" : 0
												}

											}
, 											{
												"patchline" : 												{
													"source" : [ "obj-4", 0 ],
													"destination" : [ "obj-2", 0 ],
													"hidden" : 0
												}

											}
 ]
									}
,
									"saved_object_attributes" : 									{
										"fontface" : 0,
										"default_fontsize" : 10.0,
										"fontsize" : 10.0,
										"default_fontname" : "Verdana",
										"globalpatchername" : "",
										"fontname" : "Verdana",
										"default_fontface" : 0
									}

								}

							}
, 							{
								"box" : 								{
									"maxclass" : "outlet",
									"id" : "obj-30",
									"patching_rect" : [ 77.0, 468.0, 15.0, 15.0 ],
									"numinlets" : 1,
									"numoutlets" : 0,
									"comment" : ""
								}

							}
, 							{
								"box" : 								{
									"maxclass" : "outlet",
									"id" : "obj-31",
									"patching_rect" : [ 22.0, 468.0, 15.0, 15.0 ],
									"numinlets" : 1,
									"numoutlets" : 0,
									"comment" : "to lcd"
								}

							}
, 							{
								"box" : 								{
									"maxclass" : "newobj",
									"text" : "t b getsize",
									"outlettype" : [ "bang", "getsize" ],
									"id" : "obj-32",
									"fontsize" : 9.0,
									"patching_rect" : [ 229.0, 271.0, 57.0, 17.0 ],
									"numinlets" : 1,
									"numoutlets" : 2,
									"fontname" : "Verdana"
								}

							}
, 							{
								"box" : 								{
									"maxclass" : "newobj",
									"text" : "route size update",
									"outlettype" : [ "", "", "" ],
									"id" : "obj-33",
									"fontsize" : 9.0,
									"patching_rect" : [ 191.0, 185.0, 87.0, 17.0 ],
									"numinlets" : 1,
									"numoutlets" : 3,
									"fontname" : "Verdana"
								}

							}
, 							{
								"box" : 								{
									"maxclass" : "inlet",
									"outlettype" : [ "" ],
									"id" : "obj-34",
									"patching_rect" : [ 191.0, 59.0, 15.0, 15.0 ],
									"numinlets" : 0,
									"numoutlets" : 1,
									"comment" : "lcd 4"
								}

							}
, 							{
								"box" : 								{
									"maxclass" : "inlet",
									"outlettype" : [ "int" ],
									"id" : "obj-35",
									"patching_rect" : [ 153.0, 59.0, 15.0, 15.0 ],
									"numinlets" : 0,
									"numoutlets" : 1,
									"comment" : "lcd 3"
								}

							}
, 							{
								"box" : 								{
									"maxclass" : "inlet",
									"outlettype" : [ "list" ],
									"id" : "obj-36",
									"patching_rect" : [ 115.0, 59.0, 15.0, 15.0 ],
									"numinlets" : 0,
									"numoutlets" : 1,
									"comment" : "lcd 2"
								}

							}
, 							{
								"box" : 								{
									"maxclass" : "inlet",
									"outlettype" : [ "list" ],
									"id" : "obj-37",
									"patching_rect" : [ 77.0, 59.0, 15.0, 15.0 ],
									"numinlets" : 0,
									"numoutlets" : 1,
									"comment" : "lcd 1"
								}

							}
, 							{
								"box" : 								{
									"maxclass" : "comment",
									"text" : "float, set, bang",
									"id" : "obj-38",
									"fontsize" : 9.0,
									"patching_rect" : [ 522.0, 39.0, 79.0, 17.0 ],
									"numinlets" : 1,
									"numoutlets" : 0,
									"fontname" : "Verdana"
								}

							}
, 							{
								"box" : 								{
									"maxclass" : "comment",
									"text" : "to lcd",
									"id" : "obj-39",
									"fontsize" : 9.0,
									"patching_rect" : [ 17.0, 491.0, 100.0, 17.0 ],
									"numinlets" : 1,
									"numoutlets" : 0,
									"fontname" : "Verdana"
								}

							}
 ],
						"lines" : [ 							{
								"patchline" : 								{
									"source" : [ "obj-37", 0 ],
									"destination" : [ "obj-29", 0 ],
									"hidden" : 0,
									"midpoints" : [ 86.0, 92.0, 31.5, 92.0 ]
								}

							}
, 							{
								"patchline" : 								{
									"source" : [ "obj-29", 0 ],
									"destination" : [ "obj-31", 0 ],
									"hidden" : 0
								}

							}
, 							{
								"patchline" : 								{
									"source" : [ "obj-21", 0 ],
									"destination" : [ "obj-31", 0 ],
									"hidden" : 0
								}

							}
, 							{
								"patchline" : 								{
									"source" : [ "obj-32", 1 ],
									"destination" : [ "obj-31", 0 ],
									"hidden" : 0,
									"midpoints" : [ 276.5, 316.0, 31.0, 316.0 ]
								}

							}
, 							{
								"patchline" : 								{
									"source" : [ "obj-25", 0 ],
									"destination" : [ "obj-29", 1 ],
									"hidden" : 0,
									"midpoints" : [ 521.5, 143.0, 37.166668, 143.0 ]
								}

							}
, 							{
								"patchline" : 								{
									"source" : [ "obj-23", 0 ],
									"destination" : [ "obj-29", 2 ],
									"hidden" : 0,
									"midpoints" : [ 267.0, 131.0, 42.833332, 131.0 ]
								}

							}
, 							{
								"patchline" : 								{
									"source" : [ "obj-33", 0 ],
									"destination" : [ "obj-29", 3 ],
									"hidden" : 0,
									"midpoints" : [ 200.5, 204.0, 48.5, 204.0 ]
								}

							}
, 							{
								"patchline" : 								{
									"source" : [ "obj-12", 0 ],
									"destination" : [ "obj-29", 4 ],
									"hidden" : 0,
									"midpoints" : [ 371.0, 150.0, 54.166668, 150.0 ]
								}

							}
, 							{
								"patchline" : 								{
									"source" : [ "obj-13", 0 ],
									"destination" : [ "obj-29", 5 ],
									"hidden" : 0,
									"midpoints" : [ 415.0, 156.0, 59.833332, 156.0 ]
								}

							}
, 							{
								"patchline" : 								{
									"source" : [ "obj-8", 0 ],
									"destination" : [ "obj-29", 6 ],
									"hidden" : 0,
									"midpoints" : [ 470.0, 162.0, 65.5, 162.0 ]
								}

							}
, 							{
								"patchline" : 								{
									"source" : [ "obj-37", 0 ],
									"destination" : [ "obj-28", 0 ],
									"hidden" : 0
								}

							}
, 							{
								"patchline" : 								{
									"source" : [ "obj-1", 0 ],
									"destination" : [ "obj-24", 0 ],
									"hidden" : 0,
									"midpoints" : [ 608.5, 392.0, 86.5, 392.0 ]
								}

							}
, 							{
								"patchline" : 								{
									"source" : [ "obj-28", 0 ],
									"destination" : [ "obj-24", 0 ],
									"hidden" : 0
								}

							}
, 							{
								"patchline" : 								{
									"source" : [ "obj-24", 0 ],
									"destination" : [ "obj-30", 0 ],
									"hidden" : 0
								}

							}
, 							{
								"patchline" : 								{
									"source" : [ "obj-33", 0 ],
									"destination" : [ "obj-28", 1 ],
									"hidden" : 0,
									"midpoints" : [ 200.5, 209.0, 109.5, 209.0 ]
								}

							}
, 							{
								"patchline" : 								{
									"source" : [ "obj-34", 0 ],
									"destination" : [ "obj-33", 0 ],
									"hidden" : 0
								}

							}
, 							{
								"patchline" : 								{
									"source" : [ "obj-6", 0 ],
									"destination" : [ "obj-4", 0 ],
									"hidden" : 0
								}

							}
, 							{
								"patchline" : 								{
									"source" : [ "obj-33", 1 ],
									"destination" : [ "obj-32", 0 ],
									"hidden" : 0
								}

							}
, 							{
								"patchline" : 								{
									"source" : [ "obj-7", 0 ],
									"destination" : [ "obj-6", 0 ],
									"hidden" : 0
								}

							}
, 							{
								"patchline" : 								{
									"source" : [ "obj-5", 0 ],
									"destination" : [ "obj-7", 0 ],
									"hidden" : 0
								}

							}
, 							{
								"patchline" : 								{
									"source" : [ "obj-22", 0 ],
									"destination" : [ "obj-21", 0 ],
									"hidden" : 0
								}

							}
, 							{
								"patchline" : 								{
									"source" : [ "obj-26", 1 ],
									"destination" : [ "obj-25", 0 ],
									"hidden" : 0
								}

							}
, 							{
								"patchline" : 								{
									"source" : [ "obj-32", 0 ],
									"destination" : [ "obj-25", 0 ],
									"hidden" : 0
								}

							}
, 							{
								"patchline" : 								{
									"source" : [ "obj-26", 0 ],
									"destination" : [ "obj-25", 0 ],
									"hidden" : 0
								}

							}
, 							{
								"patchline" : 								{
									"source" : [ "obj-27", 0 ],
									"destination" : [ "obj-2", 0 ],
									"hidden" : 0
								}

							}
, 							{
								"patchline" : 								{
									"source" : [ "obj-2", 1 ],
									"destination" : [ "obj-26", 0 ],
									"hidden" : 0
								}

							}
, 							{
								"patchline" : 								{
									"source" : [ "obj-26", 1 ],
									"destination" : [ "obj-1", 0 ],
									"hidden" : 0
								}

							}
, 							{
								"patchline" : 								{
									"source" : [ "obj-2", 0 ],
									"destination" : [ "obj-1", 0 ],
									"hidden" : 0
								}

							}
, 							{
								"patchline" : 								{
									"source" : [ "obj-26", 0 ],
									"destination" : [ "obj-1", 1 ],
									"hidden" : 0
								}

							}
 ]
					}
,
					"saved_object_attributes" : 					{
						"fontface" : 0,
						"default_fontsize" : 10.0,
						"fontsize" : 10.0,
						"default_fontname" : "Verdana",
						"globalpatchername" : "",
						"fontname" : "Verdana",
						"default_fontface" : 0
					}

				}

			}
, 			{
				"box" : 				{
					"maxclass" : "lcd",
					"outlettype" : [ "list", "list", "int", "" ],
					"id" : "obj-7",
					"local" : 0,
					"border" : 0,
					"patching_rect" : [ 0.0, 0.0, 150.0, 14.0 ],
					"numinlets" : 1,
					"numoutlets" : 4
				}

			}
 ],
		"lines" : [ 			{
				"patchline" : 				{
					"source" : [ "obj-6", 0 ],
					"destination" : [ "obj-7", 0 ],
					"hidden" : 1,
					"midpoints" : [ 9.5, 173.0, -8.0, 173.0, -8.0, -6.0, 9.5, -6.0 ]
				}

			}
, 			{
				"patchline" : 				{
					"source" : [ "obj-7", 0 ],
					"destination" : [ "obj-6", 0 ],
					"hidden" : 1
				}

			}
, 			{
				"patchline" : 				{
					"source" : [ "obj-7", 1 ],
					"destination" : [ "obj-6", 1 ],
					"hidden" : 1,
					"midpoints" : [ 53.166668, 23.0, 16.166666, 23.0 ]
				}

			}
, 			{
				"patchline" : 				{
					"source" : [ "obj-7", 2 ],
					"destination" : [ "obj-6", 2 ],
					"hidden" : 1,
					"midpoints" : [ 96.833336, 30.0, 22.833334, 30.0 ]
				}

			}
, 			{
				"patchline" : 				{
					"source" : [ "obj-7", 3 ],
					"destination" : [ "obj-6", 3 ],
					"hidden" : 1,
					"midpoints" : [ 140.5, 37.0, 29.5, 37.0 ]
				}

			}
, 			{
				"patchline" : 				{
					"source" : [ "obj-4", 0 ],
					"destination" : [ "obj-6", 4 ],
					"hidden" : 1,
					"midpoints" : [ 267.5, 124.0, 36.166668, 124.0 ]
				}

			}
, 			{
				"patchline" : 				{
					"source" : [ "obj-4", 1 ],
					"destination" : [ "obj-6", 5 ],
					"hidden" : 1,
					"midpoints" : [ 294.299988, 129.0, 42.833332, 129.0 ]
				}

			}
, 			{
				"patchline" : 				{
					"source" : [ "obj-4", 2 ],
					"destination" : [ "obj-6", 6 ],
					"hidden" : 1,
					"midpoints" : [ 321.100006, 134.0, 49.5, 134.0 ]
				}

			}
, 			{
				"patchline" : 				{
					"source" : [ "obj-4", 3 ],
					"destination" : [ "obj-6", 7 ],
					"hidden" : 1,
					"midpoints" : [ 347.899994, 139.0, 56.166668, 139.0 ]
				}

			}
, 			{
				"patchline" : 				{
					"source" : [ "obj-4", 4 ],
					"destination" : [ "obj-6", 8 ],
					"hidden" : 1,
					"midpoints" : [ 374.700012, 142.0, 62.833332, 142.0 ]
				}

			}
, 			{
				"patchline" : 				{
					"source" : [ "obj-4", 5 ],
					"destination" : [ "obj-6", 9 ],
					"hidden" : 1,
					"midpoints" : [ 401.5, 146.0, 69.5, 146.0 ]
				}

			}
, 			{
				"patchline" : 				{
					"source" : [ "obj-6", 1 ],
					"destination" : [ "obj-5", 0 ],
					"hidden" : 1
				}

			}
, 			{
				"patchline" : 				{
					"source" : [ "obj-2", 0 ],
					"destination" : [ "obj-4", 0 ],
					"hidden" : 1,
					"midpoints" : [ 292.5, 79.0, 267.5, 79.0 ]
				}

			}
, 			{
				"patchline" : 				{
					"source" : [ "obj-3", 0 ],
					"destination" : [ "obj-4", 0 ],
					"hidden" : 1
				}

			}
, 			{
				"patchline" : 				{
					"source" : [ "obj-1", 4 ],
					"destination" : [ "obj-4", 0 ],
					"hidden" : 1,
					"midpoints" : [ 512.5, 93.0, 267.5, 93.0 ]
				}

			}
, 			{
				"patchline" : 				{
					"source" : [ "obj-1", 3 ],
					"destination" : [ "obj-4", 0 ],
					"hidden" : 1,
					"midpoints" : [ 476.5, 93.0, 267.5, 93.0 ]
				}

			}
, 			{
				"patchline" : 				{
					"source" : [ "obj-1", 2 ],
					"destination" : [ "obj-4", 0 ],
					"hidden" : 1,
					"midpoints" : [ 440.5, 93.0, 267.5, 93.0 ]
				}

			}
, 			{
				"patchline" : 				{
					"source" : [ "obj-1", 0 ],
					"destination" : [ "obj-4", 0 ],
					"hidden" : 1,
					"midpoints" : [ 368.5, 93.0, 267.5, 93.0 ]
				}

			}
, 			{
				"patchline" : 				{
					"source" : [ "obj-1", 1 ],
					"destination" : [ "obj-4", 0 ],
					"hidden" : 1,
					"midpoints" : [ 404.5, 93.0, 267.5, 93.0 ]
				}

			}
, 			{
				"patchline" : 				{
					"source" : [ "obj-1", 5 ],
					"destination" : [ "obj-4", 0 ],
					"hidden" : 1,
					"midpoints" : [ 548.5, 93.0, 267.5, 93.0 ]
				}

			}
, 			{
				"patchline" : 				{
					"source" : [ "obj-2", 1 ],
					"destination" : [ "obj-1", 0 ],
					"hidden" : 1,
					"midpoints" : [ 505.5, 64.0, 368.5, 64.0 ]
				}

			}
 ]
	}

}
