{
	"patcher" : 	{
		"rect" : [ 594.0, 299.0, 409.0, 406.0 ],
		"bgcolor" : [ 1.0, 1.0, 1.0, 1.0 ],
		"bglocked" : 0,
		"defrect" : [ 594.0, 299.0, 409.0, 406.0 ],
		"openinpresentation" : 0,
		"default_fontsize" : 10.0,
		"default_fontface" : 0,
		"default_fontname" : "Verdana",
		"gridonopen" : 0,
		"gridsize" : [ 5.0, 5.0 ],
		"gridsnaponopen" : 0,
		"toolbarvisible" : 1,
		"boxfadetime" : 200,
		"boxanimatetime" : 200,
		"scrollanimatetime" : 200,
		"metadata" : [  ],
		"boxes" : [ 			{
				"box" : 				{
					"maxclass" : "newobj",
					"text" : "jcom.gang",
					"outlettype" : [ "", "", "" ],
					"id" : "obj-1",
					"fontsize" : 9.0,
					"patching_rect" : [ 10.0, 172.0, 130.0, 17.0 ],
					"numinlets" : 3,
					"numoutlets" : 3,
					"fontname" : "Verdana"
				}

			}
, 			{
				"box" : 				{
					"maxclass" : "newobj",
					"text" : "p choices",
					"outlettype" : [ "int" ],
					"id" : "obj-2",
					"fontsize" : 9.0,
					"patching_rect" : [ 90.0, 122.0, 51.0, 17.0 ],
					"numinlets" : 2,
					"numoutlets" : 1,
					"fontname" : "Verdana",
					"patcher" : 					{
						"rect" : [ 33.0, 59.0, 600.0, 426.0 ],
						"bgcolor" : [ 1.0, 1.0, 1.0, 1.0 ],
						"bglocked" : 0,
						"defrect" : [ 33.0, 59.0, 600.0, 426.0 ],
						"openinpresentation" : 0,
						"default_fontsize" : 10.0,
						"default_fontface" : 0,
						"default_fontname" : "Verdana",
						"gridonopen" : 0,
						"gridsize" : [ 5.0, 5.0 ],
						"gridsnaponopen" : 0,
						"toolbarvisible" : 1,
						"boxfadetime" : 200,
						"boxanimatetime" : 200,
						"scrollanimatetime" : 200,
						"metadata" : [  ],
						"boxes" : [ 							{
								"box" : 								{
									"maxclass" : "newobj",
									"text" : "prepend symbol",
									"outlettype" : [ "" ],
									"id" : "obj-1",
									"fontsize" : 9.0,
									"patching_rect" : [ 67.0, 247.0, 80.0, 17.0 ],
									"numinlets" : 1,
									"numoutlets" : 1,
									"fontname" : "Verdana"
								}

							}
, 							{
								"box" : 								{
									"maxclass" : "newobj",
									"text" : "iter",
									"outlettype" : [ "" ],
									"id" : "obj-2",
									"fontsize" : 9.0,
									"patching_rect" : [ 281.0, 191.0, 25.0, 17.0 ],
									"numinlets" : 1,
									"numoutlets" : 1,
									"fontname" : "Verdana"
								}

							}
, 							{
								"box" : 								{
									"maxclass" : "newobj",
									"text" : "prepend append",
									"outlettype" : [ "" ],
									"id" : "obj-3",
									"fontsize" : 9.0,
									"patching_rect" : [ 281.0, 215.0, 78.0, 17.0 ],
									"numinlets" : 1,
									"numoutlets" : 1,
									"fontname" : "Verdana"
								}

							}
, 							{
								"box" : 								{
									"maxclass" : "umenu",
									"outlettype" : [ "int", "", "" ],
									"id" : "obj-4",
									"labelclick" : 1,
									"fontsize" : 9.0,
									"items" : [  ],
									"patching_rect" : [ 67.0, 288.0, 100.0, 17.0 ],
									"numinlets" : 1,
									"numoutlets" : 3,
									"fontname" : "Verdana",
									"types" : [  ]
								}

							}
, 							{
								"box" : 								{
									"maxclass" : "newobj",
									"text" : "t 2 l clear",
									"outlettype" : [ "int", "", "clear" ],
									"id" : "obj-5",
									"fontsize" : 9.0,
									"patching_rect" : [ 188.0, 161.0, 196.0, 17.0 ],
									"numinlets" : 1,
									"numoutlets" : 3,
									"fontname" : "Verdana"
								}

							}
, 							{
								"box" : 								{
									"maxclass" : "newobj",
									"text" : "route choices",
									"outlettype" : [ "", "" ],
									"id" : "obj-6",
									"fontsize" : 9.0,
									"patching_rect" : [ 188.0, 135.0, 70.0, 17.0 ],
									"numinlets" : 1,
									"numoutlets" : 2,
									"fontname" : "Verdana"
								}

							}
, 							{
								"box" : 								{
									"maxclass" : "newobj",
									"text" : "gate 2 1",
									"outlettype" : [ "", "" ],
									"id" : "obj-7",
									"fontsize" : 9.0,
									"patching_rect" : [ 30.0, 210.0, 47.0, 17.0 ],
									"numinlets" : 2,
									"numoutlets" : 2,
									"fontname" : "Verdana"
								}

							}
, 							{
								"box" : 								{
									"maxclass" : "outlet",
									"id" : "obj-8",
									"patching_rect" : [ 30.0, 366.0, 15.0, 15.0 ],
									"numinlets" : 1,
									"numoutlets" : 0,
									"comment" : ""
								}

							}
, 							{
								"box" : 								{
									"maxclass" : "inlet",
									"outlettype" : [ "" ],
									"id" : "obj-9",
									"patching_rect" : [ 188.0, 111.0, 15.0, 15.0 ],
									"numinlets" : 0,
									"numoutlets" : 1,
									"comment" : ""
								}

							}
, 							{
								"box" : 								{
									"maxclass" : "inlet",
									"outlettype" : [ "" ],
									"id" : "obj-10",
									"patching_rect" : [ 67.0, 111.0, 15.0, 15.0 ],
									"numinlets" : 0,
									"numoutlets" : 1,
									"comment" : ""
								}

							}
, 							{
								"box" : 								{
									"maxclass" : "comment",
									"text" : "In case of a menu: handle symbol",
									"id" : "obj-11",
									"fontsize" : 9.0,
									"patching_rect" : [ 28.0, 42.0, 259.0, 17.0 ],
									"numinlets" : 1,
									"numoutlets" : 0,
									"fontname" : "Verdana"
								}

							}
 ],
						"lines" : [ 							{
								"patchline" : 								{
									"source" : [ "obj-5", 0 ],
									"destination" : [ "obj-7", 0 ],
									"hidden" : 0,
									"midpoints" : [ 197.5, 199.0, 39.5, 199.0 ]
								}

							}
, 							{
								"patchline" : 								{
									"source" : [ "obj-4", 0 ],
									"destination" : [ "obj-8", 0 ],
									"hidden" : 0
								}

							}
, 							{
								"patchline" : 								{
									"source" : [ "obj-7", 0 ],
									"destination" : [ "obj-8", 0 ],
									"hidden" : 0
								}

							}
, 							{
								"patchline" : 								{
									"source" : [ "obj-10", 0 ],
									"destination" : [ "obj-7", 1 ],
									"hidden" : 0
								}

							}
, 							{
								"patchline" : 								{
									"source" : [ "obj-7", 1 ],
									"destination" : [ "obj-1", 0 ],
									"hidden" : 0
								}

							}
, 							{
								"patchline" : 								{
									"source" : [ "obj-5", 2 ],
									"destination" : [ "obj-4", 0 ],
									"hidden" : 0,
									"midpoints" : [ 374.5, 277.0, 76.5, 277.0 ]
								}

							}
, 							{
								"patchline" : 								{
									"source" : [ "obj-3", 0 ],
									"destination" : [ "obj-4", 0 ],
									"hidden" : 0,
									"midpoints" : [ 290.5, 277.0, 76.5, 277.0 ]
								}

							}
, 							{
								"patchline" : 								{
									"source" : [ "obj-1", 0 ],
									"destination" : [ "obj-4", 0 ],
									"hidden" : 0
								}

							}
, 							{
								"patchline" : 								{
									"source" : [ "obj-9", 0 ],
									"destination" : [ "obj-6", 0 ],
									"hidden" : 0
								}

							}
, 							{
								"patchline" : 								{
									"source" : [ "obj-6", 0 ],
									"destination" : [ "obj-5", 0 ],
									"hidden" : 0
								}

							}
, 							{
								"patchline" : 								{
									"source" : [ "obj-5", 1 ],
									"destination" : [ "obj-2", 0 ],
									"hidden" : 0
								}

							}
, 							{
								"patchline" : 								{
									"source" : [ "obj-2", 0 ],
									"destination" : [ "obj-3", 0 ],
									"hidden" : 0
								}

							}
 ]
					}
,
					"saved_object_attributes" : 					{
						"fontface" : 0,
						"default_fontsize" : 10.0,
						"fontsize" : 10.0,
						"default_fontname" : "Verdana",
						"globalpatchername" : "",
						"fontname" : "Verdana",
						"default_fontface" : 0
					}

				}

			}
, 			{
				"box" : 				{
					"maxclass" : "newobj",
					"text" : "p choices",
					"outlettype" : [ "" ],
					"id" : "obj-3",
					"fontsize" : 9.0,
					"patching_rect" : [ 180.0, 223.0, 51.0, 17.0 ],
					"numinlets" : 2,
					"numoutlets" : 1,
					"fontname" : "Verdana",
					"patcher" : 					{
						"rect" : [ 33.0, 59.0, 600.0, 426.0 ],
						"bgcolor" : [ 1.0, 1.0, 1.0, 1.0 ],
						"bglocked" : 0,
						"defrect" : [ 33.0, 59.0, 600.0, 426.0 ],
						"openinpresentation" : 0,
						"default_fontsize" : 10.0,
						"default_fontface" : 0,
						"default_fontname" : "Verdana",
						"gridonopen" : 0,
						"gridsize" : [ 5.0, 5.0 ],
						"gridsnaponopen" : 0,
						"toolbarvisible" : 1,
						"boxfadetime" : 200,
						"boxanimatetime" : 200,
						"scrollanimatetime" : 200,
						"metadata" : [  ],
						"boxes" : [ 							{
								"box" : 								{
									"maxclass" : "comment",
									"text" : "In case of a menu: converts symbol to int",
									"id" : "obj-1",
									"fontsize" : 9.0,
									"patching_rect" : [ 35.0, 49.0, 259.0, 17.0 ],
									"numinlets" : 1,
									"numoutlets" : 0,
									"fontname" : "Verdana"
								}

							}
, 							{
								"box" : 								{
									"maxclass" : "newobj",
									"text" : "route choices",
									"outlettype" : [ "", "" ],
									"id" : "obj-2",
									"fontsize" : 9.0,
									"patching_rect" : [ 188.0, 132.0, 70.0, 17.0 ],
									"numinlets" : 1,
									"numoutlets" : 2,
									"fontname" : "Verdana"
								}

							}
, 							{
								"box" : 								{
									"maxclass" : "newobj",
									"text" : "gate 2 1",
									"outlettype" : [ "", "" ],
									"id" : "obj-3",
									"fontsize" : 9.0,
									"patching_rect" : [ 30.0, 210.0, 47.0, 17.0 ],
									"numinlets" : 2,
									"numoutlets" : 2,
									"fontname" : "Verdana"
								}

							}
, 							{
								"box" : 								{
									"maxclass" : "outlet",
									"id" : "obj-4",
									"patching_rect" : [ 30.0, 333.0, 15.0, 15.0 ],
									"numinlets" : 1,
									"numoutlets" : 0,
									"comment" : ""
								}

							}
, 							{
								"box" : 								{
									"maxclass" : "newobj",
									"text" : "iter",
									"outlettype" : [ "" ],
									"id" : "obj-5",
									"fontsize" : 9.0,
									"patching_rect" : [ 281.0, 184.0, 25.0, 17.0 ],
									"numinlets" : 1,
									"numoutlets" : 1,
									"fontname" : "Verdana"
								}

							}
, 							{
								"box" : 								{
									"maxclass" : "newobj",
									"text" : "prepend append",
									"outlettype" : [ "" ],
									"id" : "obj-6",
									"fontsize" : 9.0,
									"patching_rect" : [ 281.0, 208.0, 78.0, 17.0 ],
									"numinlets" : 1,
									"numoutlets" : 1,
									"fontname" : "Verdana"
								}

							}
, 							{
								"box" : 								{
									"maxclass" : "umenu",
									"outlettype" : [ "int", "", "" ],
									"id" : "obj-7",
									"labelclick" : 1,
									"fontsize" : 9.0,
									"items" : [  ],
									"patching_rect" : [ 67.0, 293.0, 100.0, 17.0 ],
									"numinlets" : 1,
									"numoutlets" : 3,
									"fontname" : "Verdana",
									"types" : [  ]
								}

							}
, 							{
								"box" : 								{
									"maxclass" : "newobj",
									"text" : "t 2 l clear",
									"outlettype" : [ "int", "", "clear" ],
									"id" : "obj-8",
									"fontsize" : 9.0,
									"patching_rect" : [ 188.0, 154.0, 196.0, 17.0 ],
									"numinlets" : 1,
									"numoutlets" : 3,
									"fontname" : "Verdana"
								}

							}
, 							{
								"box" : 								{
									"maxclass" : "inlet",
									"outlettype" : [ "" ],
									"id" : "obj-9",
									"patching_rect" : [ 188.0, 109.0, 15.0, 15.0 ],
									"numinlets" : 0,
									"numoutlets" : 1,
									"comment" : ""
								}

							}
, 							{
								"box" : 								{
									"maxclass" : "inlet",
									"outlettype" : [ "" ],
									"id" : "obj-10",
									"patching_rect" : [ 67.0, 111.0, 15.0, 15.0 ],
									"numinlets" : 0,
									"numoutlets" : 1,
									"comment" : ""
								}

							}
 ],
						"lines" : [ 							{
								"patchline" : 								{
									"source" : [ "obj-8", 0 ],
									"destination" : [ "obj-3", 0 ],
									"hidden" : 0,
									"midpoints" : [ 197.5, 175.0, 39.5, 175.0 ]
								}

							}
, 							{
								"patchline" : 								{
									"source" : [ "obj-7", 1 ],
									"destination" : [ "obj-4", 0 ],
									"hidden" : 0
								}

							}
, 							{
								"patchline" : 								{
									"source" : [ "obj-3", 0 ],
									"destination" : [ "obj-4", 0 ],
									"hidden" : 0
								}

							}
, 							{
								"patchline" : 								{
									"source" : [ "obj-10", 0 ],
									"destination" : [ "obj-3", 1 ],
									"hidden" : 0
								}

							}
, 							{
								"patchline" : 								{
									"source" : [ "obj-3", 1 ],
									"destination" : [ "obj-7", 0 ],
									"hidden" : 0
								}

							}
, 							{
								"patchline" : 								{
									"source" : [ "obj-6", 0 ],
									"destination" : [ "obj-7", 0 ],
									"hidden" : 0,
									"midpoints" : [ 290.5, 278.0, 76.5, 278.0 ]
								}

							}
, 							{
								"patchline" : 								{
									"source" : [ "obj-8", 2 ],
									"destination" : [ "obj-7", 0 ],
									"hidden" : 0,
									"midpoints" : [ 374.5, 282.0, 76.5, 282.0 ]
								}

							}
, 							{
								"patchline" : 								{
									"source" : [ "obj-9", 0 ],
									"destination" : [ "obj-2", 0 ],
									"hidden" : 0
								}

							}
, 							{
								"patchline" : 								{
									"source" : [ "obj-2", 0 ],
									"destination" : [ "obj-8", 0 ],
									"hidden" : 0
								}

							}
, 							{
								"patchline" : 								{
									"source" : [ "obj-8", 1 ],
									"destination" : [ "obj-5", 0 ],
									"hidden" : 0
								}

							}
, 							{
								"patchline" : 								{
									"source" : [ "obj-5", 0 ],
									"destination" : [ "obj-6", 0 ],
									"hidden" : 0
								}

							}
 ]
					}
,
					"saved_object_attributes" : 					{
						"fontface" : 0,
						"default_fontsize" : 10.0,
						"fontsize" : 10.0,
						"default_fontname" : "Verdana",
						"globalpatchername" : "",
						"fontname" : "Verdana",
						"default_fontface" : 0
					}

				}

			}
, 			{
				"box" : 				{
					"maxclass" : "newobj",
					"varname" : "u865000035",
					"text" : "patcherargs",
					"outlettype" : [ "", "" ],
					"id" : "obj-4",
					"fontsize" : 9.0,
					"patching_rect" : [ 273.0, 40.0, 64.0, 17.0 ],
					"numinlets" : 1,
					"numoutlets" : 2,
					"fontname" : "Verdana"
				}

			}
, 			{
				"box" : 				{
					"maxclass" : "newobj",
					"text" : "route #1",
					"outlettype" : [ "", "" ],
					"id" : "obj-5",
					"fontsize" : 9.0,
					"patching_rect" : [ 90.0, 86.0, 138.0, 17.0 ],
					"numinlets" : 1,
					"numoutlets" : 2,
					"fontname" : "Verdana"
				}

			}
, 			{
				"box" : 				{
					"maxclass" : "outlet",
					"id" : "obj-6",
					"patching_rect" : [ 10.0, 327.0, 15.0, 15.0 ],
					"numinlets" : 1,
					"numoutlets" : 0,
					"comment" : ""
				}

			}
, 			{
				"box" : 				{
					"maxclass" : "inlet",
					"outlettype" : [ "" ],
					"id" : "obj-7",
					"patching_rect" : [ 10.0, 48.0, 15.0, 15.0 ],
					"numinlets" : 0,
					"numoutlets" : 1,
					"comment" : ""
				}

			}
, 			{
				"box" : 				{
					"maxclass" : "newobj",
					"text" : "prepend #1",
					"outlettype" : [ "" ],
					"id" : "obj-8",
					"fontsize" : 9.0,
					"patching_rect" : [ 180.0, 247.0, 138.0, 17.0 ],
					"numinlets" : 1,
					"numoutlets" : 1,
					"fontname" : "Verdana"
				}

			}
, 			{
				"box" : 				{
					"maxclass" : "newobj",
					"text" : "s ---parameter_set",
					"id" : "obj-9",
					"fontsize" : 9.0,
					"patching_rect" : [ 180.0, 267.0, 138.0, 17.0 ],
					"numinlets" : 1,
					"numoutlets" : 0,
					"fontname" : "Verdana"
				}

			}
, 			{
				"box" : 				{
					"maxclass" : "newobj",
					"text" : "r ---parameter_get",
					"outlettype" : [ "" ],
					"id" : "obj-10",
					"fontsize" : 9.0,
					"patching_rect" : [ 90.0, 65.0, 138.0, 17.0 ],
					"numinlets" : 0,
					"numoutlets" : 1,
					"fontname" : "Verdana"
				}

			}
, 			{
				"box" : 				{
					"maxclass" : "newobj",
					"text" : "pp #2 #3 #4 #5",
					"outlettype" : [ "", "float", "" ],
					"id" : "obj-11",
					"fontsize" : 9.0,
					"patching_rect" : [ 74.0, 300.0, 167.0, 17.0 ],
					"numinlets" : 1,
					"numoutlets" : 3,
					"fontname" : "Verdana",
					"save" : [ "#N", "pp", "$2", "$3", "$4", "$5", ";" ]
				}

			}
 ],
		"lines" : [ 			{
				"patchline" : 				{
					"source" : [ "obj-7", 0 ],
					"destination" : [ "obj-1", 0 ],
					"hidden" : 0
				}

			}
, 			{
				"patchline" : 				{
					"source" : [ "obj-1", 0 ],
					"destination" : [ "obj-6", 0 ],
					"hidden" : 0
				}

			}
, 			{
				"patchline" : 				{
					"source" : [ "obj-11", 0 ],
					"destination" : [ "obj-1", 1 ],
					"hidden" : 0
				}

			}
, 			{
				"patchline" : 				{
					"source" : [ "obj-1", 1 ],
					"destination" : [ "obj-11", 0 ],
					"hidden" : 0
				}

			}
, 			{
				"patchline" : 				{
					"source" : [ "obj-10", 0 ],
					"destination" : [ "obj-5", 0 ],
					"hidden" : 0
				}

			}
, 			{
				"patchline" : 				{
					"source" : [ "obj-5", 0 ],
					"destination" : [ "obj-2", 0 ],
					"hidden" : 0
				}

			}
, 			{
				"patchline" : 				{
					"source" : [ "obj-2", 0 ],
					"destination" : [ "obj-1", 2 ],
					"hidden" : 0
				}

			}
, 			{
				"patchline" : 				{
					"source" : [ "obj-4", 1 ],
					"destination" : [ "obj-2", 1 ],
					"hidden" : 0,
					"midpoints" : [ 327.5, 112.0, 131.5, 112.0 ]
				}

			}
, 			{
				"patchline" : 				{
					"source" : [ "obj-1", 2 ],
					"destination" : [ "obj-3", 0 ],
					"hidden" : 0
				}

			}
, 			{
				"patchline" : 				{
					"source" : [ "obj-3", 0 ],
					"destination" : [ "obj-8", 0 ],
					"hidden" : 0
				}

			}
, 			{
				"patchline" : 				{
					"source" : [ "obj-8", 0 ],
					"destination" : [ "obj-9", 0 ],
					"hidden" : 0
				}

			}
, 			{
				"patchline" : 				{
					"source" : [ "obj-4", 1 ],
					"destination" : [ "obj-3", 1 ],
					"hidden" : 0,
					"midpoints" : [ 327.5, 118.0, 221.5, 118.0 ]
				}

			}
 ]
	}

}
