max v2;#N vpatcher 204 94 349 298;#P inlet 34 37 15 0;#P outlet 59 154 15 0;#P inlet 59 37 15 0;#P window setfont "Sans Serif" 9.;#P window linecount 1;#P newex 59 125 35 196617 abs 0.;#P newex 59 62 27 196617 t b f;#P newex 59 98 27 196617 - 0.;#P connect 3 0 1 0;#P fasten 5 0 0 0 39 87 64 87;#P connect 1 0 0 0;#P connect 0 0 2 0;#P connect 2 0 4 0;#P connect 1 1 0 1;#P pop;