max v2;#N vpatcher 1140 424 1770 904;#P window setfont "Sans Serif" 9.;#P window linecount 1;#P newex 220 38 64 196617 patcherargs;#P number 207 116 35 9 0 0 0 3 0 0 0 221 221 221 222 222 222 0 0 0;#P newex 244 354 129 196617 sprintf T%.2d-%.2d-%.2d;#P message 75 218 52 196617 \$3 \$2 \$1;#P newex 207 296 47 196617 gate 2 1;#P newex 75 59 71 196617 route bang int;#P newex 75 88 28 196617 t b s;#P comment 239 281 64 196617 display time;#P comment 89 281 65 196617 display year;#P inlet 75 26 15 0;#N comlet date&time string;#P outlet 75 409 15 0;#P newex 75 372 70 196617 sprintf %s%s;#P newex 75 261 114 196617 sprintf %s-%.2d-%.2d;#P newex 207 327 127 196617 sprintf T%.2d:%.2d:%.2d;#P message 75 146 51 196617 time \, date;#P newex 75 168 40 196617 date;#P window linecount 4;#P comment 362 251 148 196617 The %.2d ensures that the number takes op two digits (thanks to Stefan Tiedje for pointing out this).;#P connect 7 0 11 0;#P connect 11 0 10 0;#P connect 10 0 2 0;#P connect 2 0 1 0;#P connect 1 0 13 0;#P connect 13 0 4 0;#P connect 4 0 5 0;#P connect 5 0 6 0;#P connect 3 0 5 1;#P connect 14 0 5 1;#P connect 16 0 15 0;#P fasten 11 1 15 0 110 96 212 96;#P connect 15 0 12 0;#P connect 12 0 3 0;#P connect 1 1 12 1;#P connect 12 1 14 0;#P pop;