max v2;#N vpatcher 48 59 330 262;#P window setfont "Sans Serif" 9.;#P window linecount 1;#P newex 120 47 134 196617 jcom.oscroute /audio/mute;#P newex 120 71 31 196617 == 0;#P message 120 92 62 196617 enable \$1 1;#P newex 38 47 78 196617 jcom.pass open;#P outlet 38 154 15 0;#P outlet 120 154 15 0;#N comlet Connect to 2nd last outlet of jcom.in~;#P inlet 38 26 15 0;#P connect 0 0 3 0;#P fasten 6 1 2 0 249 142 43 142;#P connect 3 1 6 0;#P connect 6 0 5 0;#P connect 5 0 4 0;#P connect 4 0 1 0;#P connect 3 0 1 0;#P pop;