max v2;#N vpatcher 630 311 1026 535;#P window setfont "Sans Serif" 9.;#P window linecount 9;#P comment 247 57 112 196617 It is often necessary to change the matrix to another type to perform some calculations. This abstraction helps to adjust subsequent modules with the relevant matrix info.;#P window linecount 1;#P newex 45 147 118 196617 jit.matrix 4 float32 5 5;#P newex 70 56 72 196617 jit.matrixinfo;#P newex 144 110 65 196617 jcom.change;#P newex 70 110 65 196617 jcom.change;#P outlet 45 177 15 0;#P inlet 45 24 15 0;#P newex 70 82 158 196617 jcom.pass dim planecount;#P connect 1 0 6 0;#P fasten 3 0 6 0 75 137 50 137;#P fasten 4 0 6 0 149 137 50 137;#P connect 6 0 2 0;#P fasten 1 0 5 0 50 47 75 47;#P connect 5 0 0 0;#P connect 0 0 3 0;#P connect 0 1 4 0;#P pop;