max v2;#N vpatcher 394 589 1082 816;#P origin -71 -182;#P window setfont "Sans Serif" 9.;#P hidden newex 335 76 221 196617 jcom.pass text size color frgb brgb rgb2 range;#P window linecount 2;#P hidden newex 298 43 236 196617 patcherargs 0. @size 50 14 @frgb 255 255 255 @brgb 0 0 0 @rgb2 111 111 111 @range 0. 1.;#P window linecount 1;#P hidden newex 148 151 58 196617 prepend set;#P hidden inlet 258 54 15 0;#P hidden outlet 138 174 15 0;#N vpatcher 914 419 1255 665;#P origin 0 -38;#P window setfont "Sans Serif" 9.;#P newex 199 179 50 196617 print;#P newex 92 90 76 196617 prepend range;#P newex 78 66 76 196617 zl slice 1;#P inlet 78 41 15 0;#P newex 209 80 50 196617 deferlow;#P newex 197 50 64 196617 loadbang;#P window linecount 0;#P message 207 101 17 196617 0.;#P newex 81 167 67 196617 prepend text;#P newex 41 117 50 196617 t l l;#P outlet 41 204 15 0;#P inlet 41 90 15 0;#P window linecount 1;#P newex 81 138 112 196617 route set int float text;#P connect 10 0 3 0;#P connect 9 0 3 0;#P connect 5 0 3 0;#P connect 1 0 3 0;#P connect 3 0 2 0;#P fasten 4 0 2 0 86 193 46 193;#P connect 8 0 9 0;#P connect 5 0 0 0;#P connect 3 1 0 0;#P connect 0 2 4 0;#P connect 0 1 4 0;#P connect 0 0 4 0;#P connect 9 1 10 0;#P connect 0 2 11 0;#P connect 7 0 5 0;#P pop;#P hidden newobj 258 77 50 196617 p display;#P hidden newex 257 102 203 196617 route text size frgb brgb rgb2 range;#N vpatcher 553 95 1342 625;#P window setfont "Sans Serif" 9.;#P window linecount 1;#P newex 77 392 79 196617 scale 0. 1. 0. 1.;#P window linecount 0;#P newex 523 164 79 196617 scale 0. 1. 0. 1.;#P window linecount 1;#P newex 102 363 64 196617 unpack 0. 1.;#P window linecount 0;#P newex 523 96 36 196617 unpack 0. 1.;#P window linecount 1;#P comment 503 50 79 196617 range;#N comlet float \, set;#P inlet 504 67 15 0;#P newex 722 141 27 196617 f;#P newex 645 81 46 196617 sel bang;#N comlet rgb2;#P inlet 461 63 15 0;#P objectname rgb;#P comment 584 51 55 196617 rgb2;#P comment 362 38 29 196617 frgb;#P comment 407 39 55 196617 brgb;#N comlet frgb;#P inlet 362 61 15 0;#N comlet brgb;#P inlet 406 62 15 0;#P comment 252 38 32 196617 text;#P comment 74 491 100 196617 float;#P comment 182 38 35 196617 lcd 4;#P comment 146 38 35 196617 lcd 3;#P comment 110 38 35 196617 lcd 2;#P comment 74 38 35 196617 lcd 1;#P comment 300 38 29 196617 size;#P window linecount 0;#P newex 307 432 66 196617 prepend size;#N comlet size;#P inlet 307 58 15 0;#N comlet text;#P inlet 258 59 15 0;#P newex 77 425 84 196617 clip 0. 1.;#P newex 591 137 27 196617 f;#P newex 681 104 51 196617 route set;#N comlet float \, set;#P inlet 645 62 15 0;#N vpatcher 50 119 650 519;#P window setfont "Sans Serif" 9.;#P newex 105 104 51 196617 zl slice 1;#P newex 50 104 51 196617 zl slice 1;#P newex 50 158 27 196617 / 1.;#P inlet 50 72 15 0;#P inlet 105 72 15 0;#P outlet 50 205 15 0;#P connect 2 0 4 0;#P connect 4 0 3 0;#P connect 3 0 0 0;#P connect 5 0 3 1;#P connect 1 0 5 0;#P pop;#P newobj 77 234 42 196617 p value;#N vpatcher 98 100 1122 681;#P window setfont "Sans Serif" 9.;#P window linecount 3;#P message 730 218 70 196617 set paintrect \\$1 0 \\$3 \\$4 \$1 \$2 \$3;#P window linecount 4;#P message 802 349 58 196617 set paintrect 0 0 \\$1 \\$4 \$1 \$2 \$3;#P window linecount 0;#P message 641 306 91 196617 set frgb \$1 \$2 \$3;#N comlet rgb2;#P inlet 802 65 15 0;#P objectname rgb;#N comlet frgb;#P inlet 641 65 16 0;#N comlet brgb;#P inlet 730 65 15 0;#P newex 43 367 20 196617 t b;#P message 140 405 92 196617 frgb 255 255 255;#P newex 83 326 73 196617 prepend write;#P newex 99 405 36 196617 zl reg;#P message 407 195 67 196617 moveto 3 \$1;#P message 489 195 82 196617 font Verdana \$1;#P newex 407 173 27 196617 i;#P newex 489 173 27 196617 i;#P newex 66 224 27 196617 t b l;#P newex 57 405 36 196617 zl reg;#P newex 407 148 35 196617 * 0.8;#P newex 489 148 41 196617 * 0.78;#P newex 377 121 40 196617 unpack;#P inlet 416 71 15 0;#P message 272 225 31 196617 \$1 0;#P newex 272 203 29 196617 * 1.;#P newex 291 163 51 196617 zl slice 1;#P inlet 272 68 15 0;#P newex 248 331 44 196617 qlim 20;#P message 278 479 169 196617 paintrect \$1 0 \$3 \$4 0 0 0;#P message 248 451 162 196617 paintrect 0 0 \$1 \$4 111 111 111;#P newex 248 269 36 196617 zl reg;#P newex 588 162 27 196617 t b l;#P newex 248 300 38 196617 zl join;#P inlet 588 67 15 0;#P outlet 248 527 15 0;#P inlet 248 68 15 0;#P fasten 8 0 26 0 253 357 48 357;#P connect 26 0 17 0;#P connect 13 0 18 0;#P connect 18 1 24 0;#P connect 24 0 17 1;#P connect 26 0 23 0;#P fasten 22 0 23 1 412 395 130 395;#P connect 26 0 25 0;#P fasten 30 0 25 0 646 399 145 399;#P fasten 12 0 5 0 277 254 253 254;#P connect 0 0 5 0;#P fasten 4 0 5 0 593 264 253 264;#P connect 5 0 3 0;#P connect 18 0 8 0;#P connect 3 0 8 0;#P connect 8 0 6 0;#P fasten 31 0 6 0 807 432 253 432;#P connect 25 0 1 0;#P connect 17 0 1 0;#P connect 23 0 1 0;#P fasten 21 0 1 0 494 501 253 501;#P connect 6 0 1 0;#P fasten 7 0 1 0 283 510 253 510;#P connect 9 0 11 0;#P connect 11 0 12 0;#P fasten 4 1 3 1 610 298 281 298;#P fasten 32 0 7 0 735 472 283 472;#P connect 8 0 7 0;#P connect 14 0 10 0;#P fasten 10 0 11 1 296 192 296 192;#P connect 2 0 14 0;#P connect 14 1 16 0;#P connect 16 0 20 0;#P connect 20 0 22 0;#P connect 14 1 15 0;#P connect 15 0 19 0;#P connect 19 0 21 0;#P connect 2 0 4 0;#P connect 28 0 30 0;#P connect 27 0 32 0;#P connect 29 0 31 0;#P pop;#P newobj 22 216 53 196617 p draw;#P outlet 77 468 15 0;#N comlet to lcd;#P outlet 22 468 15 0;#P newex 229 271 57 196617 t b getsize;#P newex 191 190 87 196617 route size update;#N comlet lcd 4;#P inlet 191 59 15 0;#N comlet lcd 3;#P inlet 153 59 15 0;#N comlet lcd 2;#P inlet 115 59 15 0;#N comlet lcd 1;#P inlet 77 59 15 0;#P comment 647 51 79 196617 float \, set \, bang;#P comment 17 491 100 196617 to lcd;#P fasten 2 0 10 0 82 92 27 92;#P fasten 7 1 8 0 281 316 27 316;#P connect 18 0 8 0;#P connect 10 0 8 0;#P fasten 38 0 10 1 528 186 34 186;#P fasten 16 0 10 2 263 131 41 131;#P fasten 6 0 10 3 196 209 48 209;#P fasten 27 0 10 4 367 139 55 139;#P fasten 26 0 10 5 411 145 62 145;#P fasten 31 0 10 6 466 151 69 151;#P connect 2 0 11 0;#P connect 11 0 39 0;#P fasten 33 0 15 0 727 415 82 415;#P connect 39 0 15 0;#P connect 15 0 9 0;#P fasten 34 0 37 0 509 355 107 355;#P fasten 6 0 11 1 196 209 114 209;#P connect 37 0 15 1;#P connect 37 0 39 3;#P connect 37 1 39 4;#P connect 37 1 15 2;#P connect 5 0 6 0;#P connect 6 1 7 0;#P connect 17 0 18 0;#P connect 34 0 36 0;#P fasten 14 0 38 0 596 160 528 160;#P connect 36 0 38 1;#P connect 36 1 38 2;#P connect 13 1 14 0;#P connect 13 0 14 0;#P fasten 7 0 14 0 234 296 638 296 638 125 596 125;#P connect 12 0 32 0;#P connect 32 1 13 0;#P connect 13 1 33 0;#P fasten 32 0 33 0 650 128 727 128;#P connect 13 0 33 1;#P pop;#P hidden newobj 0 151 148 196617 p;#P user lcd 0 0 50 14 0 0 0 1 0;#P objectname slider;#P hidden fasten 1 0 0 0 5 172 -9 172 -9 -7 5 -7;#P hidden connect 0 0 1 0;#P hidden fasten 0 1 1 1 18 22 18 22;#P hidden fasten 0 2 1 2 31 29 31 29;#P hidden fasten 0 3 1 3 44 36 44 36;#P hidden fasten 2 0 1 4 262 123 57 123;#P hidden fasten 2 1 1 5 294 128 70 128;#P hidden fasten 2 2 1 6 326 133 83 133;#P hidden fasten 2 3 1 7 358 138 96 138;#P hidden fasten 2 4 1 8 390 141 109 141;#P hidden fasten 2 5 1 9 422 144 122 144;#P hidden fasten 2 6 1 10 454 147 135 147;#P hidden connect 1 1 4 0;#P hidden connect 1 1 6 0;#P hidden fasten 8 0 2 0 340 97 262 97;#P hidden fasten 8 1 2 0 370 97 262 97;#P hidden fasten 8 2 2 0 400 97 262 97;#P hidden fasten 8 3 2 0 430 97 262 97;#P hidden fasten 8 4 2 0 460 97 262 97;#P hidden fasten 8 5 2 0 490 97 262 97;#P hidden fasten 3 0 2 0 263 94 262 94;#P hidden connect 5 0 3 0;#P hidden connect 6 0 3 0;#P hidden connect 7 0 3 1;#P hidden fasten 7 1 8 0 529 74 340 74;#P pop;