max v2;#N vpatcher 394 44 973 434;#P origin 0 -6;#P window setfont "Sans Serif" 9.;#P window linecount 1;#P comment 40 30 147 196617 Control and video input;#P comment 74 338 147 196617 Video output;#P window linecount 2;#P comment 356 276 127 196617 Create the messages that adjust the output image.;#P comment 356 208 138 196617 Find the absolute difference between min and max.;#P comment 389 70 162 196617 Find the running bounding dimensions for a range of values.;#P inlet 20 27 15 0;#P outlet 57 336 15 0;#P window linecount 1;#P newex 20 48 107 196617 jcom.oscroute /reset;#P newex 57 308 70 196617 jit.submatrix;#P newex 117 73 263 196617 jit.findbounds @min 1 @max 1;#P newex 285 211 66 196617 jcom.absdiff;#P newex 212 211 66 196617 jcom.absdiff;#P button 20 118 15 0;#P message 20 144 33 196617 1000;#P message 62 144 14 196617 0;#P newex 184 171 40 196617 trough;#P newex 142 171 40 196617 trough;#P newex 310 169 40 196617 peak;#P newex 268 169 40 196617 peak;#P window linecount 2;#P comment 356 164 140 196617 Find min and max values of the bounding dimensions.;#P window linecount 1;#P newex 285 119 35 196617 sel -1;#P newex 243 119 35 196617 sel -1;#P newex 159 119 35 196617 sel -1;#P newex 117 119 35 196617 sel -1;#P newex 243 96 52 196617 unpack;#P newex 117 96 52 196617 unpack;#P newex 285 237 27 196617 * 1.;#P newex 212 237 27 196617 * 1.;#P newex 78 276 85 196617 pak offset 0 0;#P newex 175 276 85 196617 pak dim 0 0;#P connect 24 0 22 0;#P connect 22 0 17 0;#P connect 17 0 16 0;#P fasten 22 1 21 0 98 91;#P fasten 1 0 21 0 83 300 62 300;#P fasten 0 0 21 0 180 301 62 301;#P connect 21 0 23 0;#P fasten 17 0 15 0 25 137 67 137;#P connect 13 0 1 1;#P connect 22 1 20 0;#P connect 20 0 4 0;#P connect 4 0 6 0;#P connect 6 1 13 0;#P connect 14 0 1 2;#P connect 4 1 7 0;#P fasten 16 0 13 1 25 164 177 164;#P connect 7 1 14 0;#P connect 13 0 18 0;#P connect 18 0 2 0;#P connect 2 0 0 1;#P fasten 16 0 14 1 25 164 219 164;#P connect 20 1 5 0;#P connect 5 0 8 0;#P connect 3 0 0 2;#P connect 8 1 11 0;#P connect 11 0 18 1;#P connect 5 1 9 0;#P connect 14 0 19 0;#P connect 19 0 3 0;#P fasten 15 0 11 1 67 164 303 164;#P connect 9 1 12 0;#P fasten 15 0 12 1 67 164 345 164;#P connect 12 0 19 1;#P pop;