{
	"patcher" : 	{
		"rect" : [ 464.0, 44.0, 445.0, 345.0 ],
		"bgcolor" : [ 1.0, 1.0, 1.0, 1.0 ],
		"bglocked" : 0,
		"defrect" : [ 464.0, 44.0, 445.0, 345.0 ],
		"openinpresentation" : 0,
		"default_fontsize" : 10.0,
		"default_fontface" : 0,
		"default_fontname" : "Verdana",
		"gridonopen" : 0,
		"gridsize" : [ 15.0, 15.0 ],
		"gridsnaponopen" : 0,
		"toolbarvisible" : 1,
		"boxfadetime" : 200,
		"boxanimatetime" : 200,
		"scrollanimatetime" : 200,
		"metadata" : [  ],
		"boxes" : [ 			{
				"box" : 				{
					"maxclass" : "newobj",
					"text" : "jcom.change",
					"outlettype" : [ "" ],
					"id" : "obj-1",
					"fontsize" : 9.0,
					"patching_rect" : [ 137.0, 158.0, 65.0, 17.0 ],
					"numinlets" : 1,
					"numoutlets" : 1,
					"fontname" : "Verdana"
				}

			}
, 			{
				"box" : 				{
					"maxclass" : "newobj",
					"text" : "jcom.pass planecount dim",
					"outlettype" : [ "", "" ],
					"id" : "obj-2",
					"fontsize" : 9.0,
					"patching_rect" : [ 67.0, 128.0, 124.0, 17.0 ],
					"numinlets" : 1,
					"numoutlets" : 2,
					"fontname" : "Verdana"
				}

			}
, 			{
				"box" : 				{
					"maxclass" : "newobj",
					"text" : "jcom.change",
					"outlettype" : [ "" ],
					"id" : "obj-3",
					"fontsize" : 9.0,
					"patching_rect" : [ 67.0, 158.0, 65.0, 17.0 ],
					"numinlets" : 1,
					"numoutlets" : 1,
					"fontname" : "Verdana"
				}

			}
, 			{
				"box" : 				{
					"maxclass" : "newobj",
					"text" : "jit.matrixinfo",
					"outlettype" : [ "" ],
					"id" : "obj-4",
					"fontsize" : 9.0,
					"patching_rect" : [ 67.0, 107.0, 72.0, 17.0 ],
					"numinlets" : 1,
					"numoutlets" : 1,
					"fontname" : "Verdana"
				}

			}
, 			{
				"box" : 				{
					"maxclass" : "inlet",
					"outlettype" : [ "" ],
					"id" : "obj-5",
					"patching_rect" : [ 67.0, 50.0, 15.0, 15.0 ],
					"numinlets" : 0,
					"numoutlets" : 1,
					"comment" : ""
				}

			}
, 			{
				"box" : 				{
					"maxclass" : "outlet",
					"id" : "obj-6",
					"patching_rect" : [ 67.0, 238.0, 15.0, 15.0 ],
					"numinlets" : 1,
					"numoutlets" : 0,
					"comment" : ""
				}

			}
, 			{
				"box" : 				{
					"maxclass" : "comment",
					"text" : "This little thing passes on the planecount and dimensions of the matrix, so that following jit.matrix or jit.matrixset objects don't have problems.",
					"linecount" : 5,
					"id" : "obj-7",
					"fontsize" : 9.0,
					"patching_rect" : [ 225.0, 117.0, 173.0, 59.0 ],
					"numinlets" : 1,
					"numoutlets" : 0,
					"fontname" : "Verdana"
				}

			}
 ],
		"lines" : [ 			{
				"patchline" : 				{
					"source" : [ "obj-5", 0 ],
					"destination" : [ "obj-4", 0 ],
					"hidden" : 0
				}

			}
, 			{
				"patchline" : 				{
					"source" : [ "obj-4", 0 ],
					"destination" : [ "obj-2", 0 ],
					"hidden" : 0
				}

			}
, 			{
				"patchline" : 				{
					"source" : [ "obj-2", 0 ],
					"destination" : [ "obj-3", 0 ],
					"hidden" : 0
				}

			}
, 			{
				"patchline" : 				{
					"source" : [ "obj-5", 0 ],
					"destination" : [ "obj-6", 0 ],
					"hidden" : 0,
					"midpoints" : [ 76.0, 88.0, 46.0, 88.0, 46.0, 210.0, 76.0, 210.0 ]
				}

			}
, 			{
				"patchline" : 				{
					"source" : [ "obj-1", 0 ],
					"destination" : [ "obj-6", 0 ],
					"hidden" : 0
				}

			}
, 			{
				"patchline" : 				{
					"source" : [ "obj-3", 0 ],
					"destination" : [ "obj-6", 0 ],
					"hidden" : 0
				}

			}
, 			{
				"patchline" : 				{
					"source" : [ "obj-2", 1 ],
					"destination" : [ "obj-1", 0 ],
					"hidden" : 0
				}

			}
 ]
	}

}
