max v2;#N vpatcher 195 107 597 419;#P window setfont "Sans Serif" 9.;#P flonum 172 158 35 9 0 0 0 3 0 0 0 221 221 221 222 222 222 0 0 0;#P window linecount 1;#P newex 172 103 72 196617 route int float;#P newex 92 236 50 196617 fftout~ 1;#N in 2;#P newobj 172 70 25 196617 in 2;#P newex 92 182 90 196617 gizmo~;#B color 5;#P newex 92 70 44 196617 fftin~ 1;#P window linecount 3;#P comment 246 94 94 196617 other messages get sent to gizmo~'s left inlet;#P window linecount 2;#P comment 213 158 110 196617 right inlet (float) is for transposition factor;#P connect 6 2 3 0;#P connect 2 0 3 0;#P connect 3 0 5 0;#P connect 2 1 3 1;#P connect 3 1 5 1;#P connect 4 0 6 0;#P connect 6 1 7 0;#P connect 6 0 7 0;#P connect 7 0 3 2;#P pop;