max v2;#N vpatcher 48 59 444 365;#P window setfont "Sans Serif" 9.;#P newex 140 131 31 196617 == 0;#N comlet osc messages to algorithm;#P outlet 35 214 15 0;#P newex 140 111 59 196617 route mute;#P message 140 152 62 196617 enable \$1 1;#P newex 61 91 168 196617 jcom.pass open mute;#N comlet Connect to 2nd last outlet of jcom.in~;#P inlet 61 71 15 0;#N comlet connect to pcontrol;#P outlet 61 214 15 0;#P fasten 2 2 5 0 224 179 40 179;#P lcolor 1;#P connect 1 0 2 0;#P connect 2 0 0 0;#P connect 3 0 0 0;#P connect 2 1 4 0;#P connect 4 0 6 0;#P connect 6 0 3 0;#P pop;