max v2;#N vpatcher 731 258 1175 640;#P window setfont "Sans Serif" 9.;#P window linecount 1;#P newex 76 251 172 196617 zl join;#P newex 76 181 57 196617 t store $2;#N coll $1_state 1;#P newobj 76 281 131 196617 coll $1_state 1;#P window linecount 2;#P comment 76 307 94 196617 Collect messages as current state;#P window linecount 1;#P newex 76 216 105 196617 sprintf %s %s %s;#P newex 238 107 36 196617 zl reg;#P newex 238 54 133 196617 receive $1_display_update;#P inlet 185 43 15 0;#P outlet 32 178 15 0;#P newex 32 121 163 196617 gate 1 1;#P newex 32 99 31 196617 == 0;#P newex 32 77 133 196617 receive $1_freeze_display;#P connect 0 0 1 0;#P connect 1 0 2 0;#P fasten 6 0 3 0 243 156 37 156;#P connect 2 0 3 0;#P fasten 6 0 10 0 243 169 81 169;#P connect 10 0 7 0;#P connect 7 0 11 0;#P connect 11 0 9 0;#P connect 10 1 7 1;#P connect 10 1 7 2;#P connect 4 0 2 1;#P connect 5 0 6 0;#P connect 6 0 11 1;#P connect 4 0 6 1;#P pop;