max v2;#N vpatcher 30 91 563 631;#P window setfont "Sans Serif" 9.;#P window linecount 1;#P newex 136 280 62 196617 prepend set;#P newex 99 182 29 196617 t b f;#P newex 57 338 66 196617 pack 0. 0. 0.;#P newex 99 94 84 196617 unpack 0. 0. 0.;#P comment 57 398 51 196617 (list) aed;#P newex 209 221 47 196617 cartopol;#P newex 246 278 92 196617 jcom.rad2deg.mxt;#P newex 136 251 92 196617 jcom.rad2deg.mxt;#P newex 99 159 47 196617 cartopol;#N comlet (list) xyz;#P inlet 99 68 15 0;#N comlet (list) aed;#P outlet 57 376 15 0;#P comment 98 45 53 196617 (list) xyz;#P fasten 10 0 9 0 104 206 62 206;#P connect 11 0 9 0;#P connect 9 0 1 0;#P connect 5 0 9 1;#P connect 2 0 8 0;#P connect 8 0 3 0;#P connect 3 0 10 0;#P fasten 6 0 9 2 214 245 118 245;#P connect 8 1 3 1;#P connect 3 1 4 0;#P connect 4 0 11 0;#P connect 10 1 6 0;#P connect 8 2 6 1;#P connect 6 1 5 0;#P pop;