max v2;#N vpatcher 15 55 631 324;#P outlet 49 189 15 0;#N comlet signal 32;#P inlet 545 86 15 0;#P objectname in[31];#N comlet signal 31;#P inlet 529 86 15 0;#P objectname in[30];#N comlet signal 30;#P inlet 513 86 15 0;#P objectname in[29];#N comlet signal 29;#P inlet 497 86 15 0;#P objectname in[28];#N comlet signal 28;#P inlet 481 86 15 0;#P objectname in[27];#N comlet signal 27;#P inlet 465 86 15 0;#P objectname in[26];#N comlet signal 26;#P inlet 449 86 15 0;#P objectname in[25];#N comlet signal 25;#P inlet 433 86 15 0;#P objectname in[24];#N comlet signal 24;#P inlet 417 86 15 0;#P objectname in[23];#N comlet signal 23;#P inlet 401 86 15 0;#P objectname in[22];#N comlet signal 22;#P inlet 385 86 15 0;#P objectname in[21];#N comlet signal 21;#P inlet 369 86 15 0;#P objectname in[20];#N comlet signal 20;#P inlet 353 86 15 0;#P objectname in[19];#N comlet signal 19;#P inlet 337 86 15 0;#P objectname in[18];#N comlet signal 18;#P inlet 321 86 15 0;#P objectname in[17];#N comlet signal 17;#P inlet 305 86 15 0;#P objectname in[16];#N comlet signal 16;#P inlet 289 86 15 0;#P objectname in[15];#N comlet signal 15;#P inlet 273 86 15 0;#P objectname in[14];#N comlet signal 14;#P inlet 257 86 15 0;#P objectname in[13];#N comlet signal 13;#P inlet 241 86 15 0;#P objectname in[12];#N comlet signal 12;#P inlet 225 86 15 0;#P objectname in[11];#N comlet signal 11;#P inlet 209 86 15 0;#P objectname in[10];#N comlet signal 10;#P inlet 193 86 15 0;#P objectname in[9];#N comlet signal 9;#P inlet 177 86 15 0;#P objectname in[8];#N comlet signal 8;#P inlet 161 86 15 0;#P objectname in[7];#N comlet signal 7;#P inlet 145 86 15 0;#P objectname in[6];#N comlet signal 6;#P inlet 129 86 15 0;#P objectname in[5];#N comlet signal 5;#P inlet 113 86 15 0;#P objectname in[4];#N comlet signal 4;#P inlet 97 86 15 0;#P objectname in[3];#N comlet signal 3;#P inlet 81 86 15 0;#P objectname in[2];#N comlet signal 2;#P inlet 65 86 15 0;#P objectname in[1];#N comlet signal 1;#P inlet 49 86 15 0;#P objectname in[0];#P window setfont "Sans Serif" 9.;#P newex 49 123 514 196617 funnel 32 $1;#P newex 49 152 108 196617 prepend /multicable;#P window setfont "Sans Serif" 12.;#P comment 28 25 100 196620 jcom.multi.in~;#P window setfont "Sans Serif" 9.;#P comment 28 46 149 196617 multicable for audio signals;#P connect 4 0 3 0;#P connect 3 0 2 0;#P connect 2 0 36 0;#P connect 5 0 3 1;#P connect 6 0 3 2;#P connect 7 0 3 3;#P connect 8 0 3 4;#P connect 9 0 3 5;#P connect 10 0 3 6;#P connect 11 0 3 7;#P connect 12 0 3 8;#P connect 13 0 3 9;#P connect 14 0 3 10;#P connect 15 0 3 11;#P connect 16 0 3 12;#P connect 17 0 3 13;#P connect 18 0 3 14;#P connect 19 0 3 15;#P connect 20 0 3 16;#P connect 21 0 3 17;#P connect 22 0 3 18;#P connect 23 0 3 19;#P connect 24 0 3 20;#P connect 25 0 3 21;#P connect 26 0 3 22;#P connect 27 0 3 23;#P connect 28 0 3 24;#P connect 29 0 3 25;#P connect 30 0 3 26;#P connect 31 0 3 27;#P connect 32 0 3 28;#P connect 33 0 3 29;#P connect 34 0 3 30;#P connect 35 0 3 31;#P pop;