max v2;#N vpatcher 52 62 1443 847;#P window setfont "Sans Serif" 9.;#P hidden message 809 71 43 196617 0 0 1 1;#P hidden message 573 74 49 196617 720 480;#P number 134 30 39 9 0 0 8224 3 255 255 255 221 221 221 222 222 222 0 0 0;#P objectname DIM[1];#P number 93 30 39 9 0 0 8225 3 255 255 255 221 221 221 222 222 222 0 0 0;#P objectname DIM[0];#P hidden newex 659 386 88 196617 pvar TEXRECT[3];#P hidden newex 569 386 88 196617 pvar TEXRECT[2];#P hidden newex 479 386 88 196617 pvar TEXRECT[1];#P hidden newex 389 386 88 196617 pvar TEXRECT[0];#P window linecount 2;#P hidden newex 536 340 471 196617 jcom.parameter slab/texrect @type msg_list  @description "The extent or rectangular coordinates bounding the texture coordinates for the slab geometry (default = 0 0 1 1).";#P objectname slab/texrect;#P window linecount 1;#P hidden newex 389 353 144 196617 jcom.list2parameter 4;#P hidden newex 659 301 71 196617 pvar RECT[3];#P hidden newex 569 301 71 196617 pvar RECT[2];#P hidden newex 479 301 71 196617 pvar RECT[1];#P hidden newex 389 301 71 196617 pvar RECT[0];#P window linecount 2;#P hidden newex 536 255 375 196617 jcom.parameter slab/rect @type msg_list  @description "The extent or rectangular coordinates bounding the slab geometry (default = 0 0 1 1).";#P objectname slab/rect;#P window linecount 1;#P hidden newex 389 268 144 196617 jcom.list2parameter 4;#P hidden newex 389 192 66 196617 pvar ADAPT;#P window linecount 2;#P hidden newex 389 211 333 196617 jcom.parameter slab/adapt @type msg_toggle @description "Enables or disables adapting and resizing to input source dimensions (default = 1).";#P objectname slab/adapt;#P window linecount 1;#P hidden newex 479 155 65 196617 pvar DIM[1];#P objectname DIM[Y];#P hidden newex 389 155 65 196617 pvar DIM[0];#P window linecount 2;#P hidden newex 536 109 392 196617 jcom.parameter slab/dim @type msg_list  @description "The dimensions of the output jit.gl.texture object when adapt is disabled (default = 720 480).";#P objectname slab/dim;#P window linecount 1;#P hidden newex 389 122 144 196617 jcom.list2parameter 2;#P flonum 92 67 40 9 0 0 8224 3 255 255 255 221 221 221 222 222 222 0 0 0;#P objectname TEXRECT[0];#P comment 192 32 45 196617 Adapt;#B frgb 255 255 255;#P user radiogroup 177 30 73 16;#X size 1;#X offset 16;#X inactive 0;#X itemtype 1;#X flagmode 0;#X set 1;#X done;#P objectname ADAPT;#P hidden newex 779 23 73 196617 r $0_defaults;#P hidden newex 166 741 73 196617 s $0_defaults;#P user jsui 76 739 84 19 3 0 0 jsui_textbutton.js Defaults;#P hidden newex 779 43 40 196617 t b 1 b;#B color 5;#P flonum 92 49 40 9 0 0 8224 3 255 255 255 221 221 221 222 222 222 0 0 0;#P objectname RECT[0];#P flonum 218 49 40 9 0 0 8224 3 255 255 255 221 221 221 222 222 222 0 0 0;#P objectname RECT[3];#P flonum 176 49 40 9 0 0 8224 3 255 255 255 221 221 221 222 222 222 0 0 0;#P objectname RECT[2];#P flonum 134 49 40 9 0 0 8224 3 255 255 255 221 221 221 222 222 222 0 0 0;#P objectname RECT[1];#P flonum 218 67 40 9 0 0 8224 3 255 255 255 221 221 221 222 222 222 0 0 0;#P objectname TEXRECT[3];#P flonum 176 67 40 9 0 0 8224 3 255 255 255 221 221 221 222 222 222 0 0 0;#P objectname TEXRECT[2];#P flonum 136 67 40 9 0 0 8224 3 255 255 255 221 221 221 222 222 222 0 0 0;#P objectname TEXRECT[1];#P comment 7 49 64 196617 Rect;#B frgb 255 255 255;#P comment 7 67 64 196617 Texrect:;#B frgb 255 255 255;#P comment 7 31 64 196617 Dimension;#B frgb 255 255 255;#P hidden newex 336 730 106 196617 bgcolor 110 110 110;#P window setfont "Sans Serif" 12.;#P comment 7 9 98 196620 Slab settings;#B frgb 255 255 255;#P user panel 1 1 265 86;#X brgb 110 110 110;#X frgb 255 255 255;#X border 1;#X rounded 0;#X shadow 0;#X done;#P hidden connect 14 0 15 0;#P hidden fasten 22 0 20 0 394 176 383 176 383 118 394 118;#P hidden connect 20 0 22 0;#P hidden fasten 24 0 25 0 394 244 382 244 382 188 394 188;#P hidden connect 13 1 24 0;#P hidden connect 25 0 24 0;#P hidden fasten 28 0 26 0 394 322 383 322 383 264 394 264;#P hidden connect 26 0 28 0;#P hidden fasten 34 0 32 0 394 407 383 407 383 349 394 349;#P hidden connect 32 0 34 0;#P hidden fasten 23 0 20 1 484 180 379 180 379 115 407 115;#P hidden fasten 29 0 26 1 484 326 379 326 379 261 407 261;#P hidden fasten 35 0 32 1 484 411 379 411 379 346 407 346;#P hidden fasten 30 0 26 2 574 329 375 329 375 258 420 258;#P hidden fasten 36 0 32 2 574 414 375 414 375 343 420 343;#P hidden fasten 31 0 26 3 664 332 371 332 371 255 433 255;#P hidden fasten 37 0 32 3 664 417 371 417 371 340 433 340;#P hidden fasten 20 1 23 0 407 150 484 150;#P hidden fasten 26 1 29 0 407 296 484 296;#P hidden fasten 32 1 35 0 407 381 484 381;#P hidden connect 21 0 20 10;#P hidden connect 27 0 26 10;#P hidden connect 33 0 32 10;#P hidden connect 40 0 21 0;#P hidden connect 20 10 21 0;#P hidden connect 41 0 27 0;#P hidden connect 26 10 27 0;#P hidden connect 41 0 33 0;#P hidden connect 32 10 33 0;#P hidden fasten 26 2 30 0 420 293 574 293;#P hidden fasten 32 2 36 0 420 378 574 378;#P hidden connect 13 0 40 0;#P hidden fasten 26 3 31 0 433 290 664 290;#P hidden fasten 32 3 37 0 433 375 664 375;#P hidden connect 16 0 13 0;#P hidden connect 13 2 41 0;#P pop;