max v2;#N vpatcher 124 77 1184 849;#P origin 54 36;#P window setfont "Sans Serif" 9.;#P flonum 708 259 35 9 0 0 0 3 0 0 0 221 221 221 222 222 222 0 0 0;#P flonum 671 259 35 9 0 0 0 3 0 0 0 221 221 221 222 222 222 0 0 0;#P flonum 634 259 35 9 0 0 0 3 0 0 0 221 221 221 222 222 222 0 0 0;#P newex 634 235 84 196617 unpack 0. 0. 0.;#P comment 225 330 311 196617 - $1/z: Change z coordinate only;#P comment 225 315 311 196617 - $1/y: Change y coordinate only;#P comment 225 300 311 196617 - $1/x: Change x coordinate only;#P comment 225 391 311 196617 - $1/d: Change distance only;#P comment 225 376 311 196617 - $1/e: Change elevation only;#P comment 225 361 311 196617 - $1/a: Change azimuth only;#N vpatcher 20 74 820 493;#P inlet 275 42 15 0;#P window setfont "Sans Serif" 9.;#P window linecount 1;#P newex 135 130 87 196617 route 0 1 2;#P message 135 110 54 196617 \$1 set \$2;#P newex 135 90 52 196617 listfunnel;#P newex 408 253 355 196617 jcom.message $1/d @type msg_float @slave 1 @description "Set distance.";#P newex 408 213 359 196617 jcom.message $1/e @type msg_float @slave 1 @description "Set elevation.";#P newex 408 172 353 196617 jcom.message $1/a @type msg_float @slave 1 @description "Set azimuth.";#P window linecount 0;#P newex 275 133 87 196617 route 0 1 2;#P message 275 113 54 196617 \$1 set \$2;#P newex 275 93 52 196617 listfunnel;#P newex 135 62 51 196617 route set;#P newex 275 307 61 196617 pak 0. 0. 0.;#P inlet 135 42 15 0;#P inlet 84 228 15 0;#P inlet 59 228 15 0;#P inlet 34 228 15 0;#P outlet 275 356 15 0;#P outlet 84 199 15 0;#P outlet 59 199 15 0;#P outlet 34 199 15 0;#P connect 18 0 0 0;#P connect 18 1 1 0;#P connect 18 2 2 0;#P connect 7 0 9 0;#P connect 9 0 16 0;#P connect 16 0 17 0;#P connect 17 0 18 0;#P connect 19 0 10 0;#P connect 10 0 11 0;#P connect 11 0 12 0;#P connect 4 0 8 0;#P fasten 13 1 8 0 584 204 280 204;#P lcolor 2;#P connect 12 0 8 0;#P connect 8 0 3 0;#P connect 5 0 8 1;#P fasten 14 1 8 1 587 245 305 245;#P lcolor 2;#P connect 12 1 8 1;#P connect 6 0 8 2;#P fasten 15 1 8 2 585 286 330 286;#P lcolor 2;#P connect 12 2 8 2;#P pop;#P newobj 229 184 74 196617 p pack_unpack;#N comlet list member 0;#P inlet 229 33 15 0;#N comlet list member 1;#P inlet 245 33 15 0;#N comlet list member 2;#P inlet 261 33 15 0;#N comlet list member 2;#P outlet 271 217 15 0;#N comlet list member 1;#P outlet 250 217 15 0;#N comlet list member 0;#P outlet 229 217 15 0;#P newex 727 33 64 196617 patcherargs;#P newex 781 55 57 196617 route done;#N vpatcher 265 313 1379 853;#P window setfont "Sans Serif" 9.;#P window linecount 2;#P comment 185 220 190 196617 Required for the time being as list ramping is currently not supported when received in left inlet of jcom.parameter.;#P window linecount 0;#P newex 128 220 51 196617 zl slice 3;#P newex 435 262 20 196617 t b;#P newex 461 333 138 196617 pack 0. 0. 0.;#P newex 425 298 46 196617 f;#P outlet 255 438 15 0;#P window linecount 2;#P newex 699 197 230 196617 jcom.message $1/z @type msg_float @slave 1 @description "Change z coordinate only.";#P newex 699 156 231 196617 jcom.message $1/y @type msg_float @slave 1 @description "Change y coordinate only.";#P newex 699 118 231 196617 jcom.message $1/x @type msg_float @slave 1 @description "Change x coordinate only.";#P window linecount 1;#P newex 461 360 73 196617 jcom.xyz2aed;#P newex 461 121 138 196617 unpack 0. 0. 0.;#P newex 461 91 73 196617 jcom.aed2xyz;#P inlet 461 30 15 0;#P window linecount 0;#P message 294 168 42 196617 ramp 0;#P newex 294 145 20 196617 t b;#P window linecount 1;#P newex 128 168 73 196617 jcom.xyz2aed;#P window linecount 0;#P newex 128 190 152 196617 zl join;#P newex 128 146 152 196617 zl slice 3;#P window linecount 1;#P newex 50 50 89 196617 jcom.pass inc dec;#P inlet 50 30 15 0;#P outlet 49 438 15 0;#P window linecount 0;#P comment 479 31 267 196617 Whenever azimuth \, elevation and/or distance is updated \, stored xyz values has to be updates as well.;#P connect 12 0 1 0;#P connect 3 0 1 0;#P connect 3 1 1 0;#P connect 20 0 1 0;#P connect 2 0 3 0;#P connect 3 2 4 0;#P connect 4 0 6 0;#P connect 6 0 5 0;#P connect 5 0 20 0;#P connect 10 0 16 0;#P lcolor 7;#P connect 4 0 16 0;#P lcolor 7;#P connect 4 1 5 1;#P connect 8 0 5 1;#P connect 3 2 7 0;#P connect 7 0 8 0;#P fasten 13 1 17 0 814 152 430 152;#P connect 19 0 17 0;#P fasten 15 1 19 0 814 244 440 244;#P fasten 14 1 19 0 814 190 440 190;#P connect 9 0 10 0;#P connect 10 0 11 0;#P connect 11 0 17 1;#P fasten 17 0 18 0 430 324 466 324;#P connect 18 0 12 0;#P connect 11 1 18 1;#P fasten 14 1 18 1 814 193 530 193;#P connect 11 2 18 2;#P fasten 15 1 18 2 814 247 594 247;#P pop;#P newobj 512 137 101 196617 p convert2cartesian;#P comment 499 242 98 196617 Direct Output;#N comlet Prepend "set" and connect to GUI inlet;#P outlet 483 242 15 0;#P comment 291 218 98 196617 Connect to GUI inlet;#P window linecount 2;#P newex 362 177 253 196617 jcom.parameter $1/aed @type msg_list @description "Set position using Cartesian coordinates.";#P objectname $1/aed;#P newex 386 94 262 196617 jcom.message $1/xyz @type msg_list @slave 1 @description "Set position using spherical coordinates.";#P window linecount 4;#P comment 222 502 395 196617 For this component to work properly \, you have to avoid output from being fed back to the inlet \, else the output will kill any ongoing ramp. If jcom.parameter.gain outlet/inlet is connected to a GUI inlet/outlet \, use the "set" mesage for updating GUI display when jcom.parameter.gain value change.;#P window linecount 1;#P comment 222 487 395 196617 IMPORTANT:;#P comment 225 345 311 196617 - $1/aed: Spherical coordinates;#P comment 225 270 311 196617 Component for describing position:;#P comment 225 285 311 196617 - $1/xyz: Cartesian coordinates;#P window linecount 3;#P comment 222 442 395 196617 jcom.parameter.gain is special in the sense that gain levels can be adjusted using various messages \, or by a GUI. All kinds of messages are mapped to MIDI values internally \, so that they can all be dealt with by the same ramping mechanism.;#B color 1;#P window linecount 1;#N vpatcher 20 74 352 346;#P window setfont "Sans Serif" 9.;#P window linecount 0;#P newex 133 89 93 196617 loadmess 1. 1. 10.;#P window linecount 1;#P newex 64 115 79 196617 vexpr $f1*$f2;#P newex 64 147 72 196617 prepend aed 2;#P newex 232 147 74 196617 prepend xyz 1;#P inlet 64 62 15 0;#P inlet 232 62 15 0;#P outlet 64 212 15 0;#P connect 2 0 5 0;#P connect 5 0 4 0;#P connect 4 0 0 0;#P connect 3 0 0 0;#P connect 6 0 5 1;#P connect 1 0 3 0;#P pop;#P newobj 3 33 65 196617 p to_display;#P user ambimonitor 3 54 200 400 2 0 1 0 0 0 777;#X rgb1 0 0 0;#X rgb2 0 0 0;#X rgb3 0 0 0;#X rgb4 235 235 117;#X rgb5 196 196 196;#X rgb6 255 255 255;#X rgb7 176 176 243;#X rgb8 117 117 255;#P comment 3 463 200 196617 For debugging/testing only.;#P connect 10 1 2 0;#P lcolor 7;#P connect 2 0 1 0;#P connect 9 1 2 1;#P lcolor 7;#P connect 22 0 23 0;#P connect 23 0 17 0;#P connect 21 0 23 1;#P connect 23 1 18 0;#P connect 20 0 23 2;#P connect 23 2 19 0;#P connect 10 0 23 3;#P connect 23 3 10 0;#P fasten 15 1 10 0 833 168 367 168;#P fasten 14 0 10 0 517 165 367 165;#P fasten 15 1 9 0 833 86 391 86;#P connect 10 1 12 0;#P connect 9 1 14 0;#P fasten 10 1 14 1 488 220 670 220 670 133 608 133;#P lcolor 2;#P fasten 10 1 30 0 488 214 639 214;#P connect 30 0 31 0;#P connect 30 1 32 0;#P connect 30 2 33 0;#P connect 16 1 15 0;#P pop;