max v2;#N vpatcher 394 44 1010 455;#P origin 0 -6;#P window setfont "Sans Serif" 9.;#P comment 52 42 147 196617 Control and video input;#P comment 86 350 147 196617 Video output;#P comment 299 348 147 196617 Message to adjust jit.pwindow;#P window linecount 2;#P comment 368 288 127 196617 Create the messages that adjust the output image.;#P comment 368 220 138 196617 Find the absolute difference between min and max.;#P comment 401 82 162 196617 Find the running bounding dimensions for a range of values.;#P inlet 32 39 15 0;#P outlet 277 348 15 0;#P outlet 69 348 15 0;#P window linecount 1;#P newex 32 60 107 196617 jcom.oscroute /reset;#P newex 69 320 70 196617 jit.submatrix;#P newex 129 85 263 196617 jit.findbounds @min 1 @max 1;#P newex 297 223 66 196617 jcom.absdiff;#P newex 224 223 66 196617 jcom.absdiff;#P button 32 130 15 0;#P message 32 156 33 196617 1000;#P message 74 156 14 196617 0;#P newex 196 183 40 196617 trough;#P newex 154 183 40 196617 trough;#P newex 322 181 40 196617 peak;#P newex 280 181 40 196617 peak;#P window linecount 2;#P comment 368 176 140 196617 Find min and max values of the bounding dimensions.;#P window linecount 1;#P newex 297 131 35 196617 sel -1;#P newex 255 131 35 196617 sel -1;#P newex 171 131 35 196617 sel -1;#P newex 129 131 35 196617 sel -1;#P newex 255 108 52 196617 unpack;#P newex 129 108 52 196617 unpack;#P newex 297 249 27 196617 * 1.;#P newex 224 249 27 196617 * 1.;#P newex 277 288 64 196617 pak size 0 0;#P newex 90 288 85 196617 pak offset 0 0;#P newex 187 288 85 196617 pak dim 0 0;#P connect 26 0 23 0;#P connect 23 0 18 0;#P connect 18 0 17 0;#P fasten 23 1 22 0 110 103;#P fasten 1 0 22 0 95 312 74 312;#P fasten 0 0 22 0 192 313 74 313;#P connect 22 0 24 0;#P fasten 18 0 16 0 37 149 79 149;#P connect 14 0 1 1;#P connect 23 1 21 0;#P connect 21 0 5 0;#P connect 5 0 7 0;#P connect 7 1 14 0;#P connect 15 0 1 2;#P connect 5 1 8 0;#P fasten 17 0 14 1 37 176 189 176;#P connect 8 1 15 0;#P connect 14 0 19 0;#P connect 19 0 3 0;#P connect 3 0 0 1;#P fasten 17 0 15 1 37 176 231 176;#P connect 21 1 6 0;#P connect 6 0 9 0;#P connect 4 0 0 2;#P connect 2 0 25 0;#P connect 9 1 12 0;#P connect 12 0 19 1;#P connect 6 1 10 0;#P connect 15 0 20 0;#P connect 20 0 4 0;#P connect 3 0 2 1;#P fasten 16 0 12 1 79 176 315 176;#P connect 10 1 13 0;#P connect 4 0 2 2;#P fasten 16 0 13 1 79 176 357 176;#P connect 13 0 20 1;#P pop;