max v2;#N vpatcher 41 123 876 446;#P origin -39 0;#P window setfont "Sans Serif" 9.;#P window linecount 1;#P newex 676 104 94 196617 prepend colormode;#P user ubumenu 678 80 69 196617 0 1 1 0;#X add argb;#X add uyvy;#X prefix_set 0 0 <none> 0;#X pattrmode 1;#P newex 597 104 71 196617 prepend mode;#P user ubumenu 599 80 69 196617 0 1 1 0;#X add auto;#X add drawpixels;#X add texture;#X add noaccel;#X prefix_set 0 0 <none> 0;#X pattrmode 1;#P message 499 104 77 196617 depthbuffer \$1;#P toggle 499 80 15 0;#P message 414 104 81 196617 doublebuffer \$1;#P toggle 414 80 15 0;#P comment 163 264 91 196617 Send tojit.window;#P number 198 62 35 9 0 0 0 3 0 0 0 221 221 221 222 222 222 0 0 0;#P newex 198 30 64 196617 patcherargs;#P number 137 62 35 9 0 0 0 3 0 0 0 221 221 221 222 222 222 0 0 0;#P newex 137 98 38 196617 sel 27;#P newex 137 30 40 196617 key;#P newex 53 145 48 196617 loadbang;#P toggle 290 80 15 0;#P message 290 104 59 196617 floating \$1;#P toggle 358 80 15 0;#P message 358 104 52 196617 interp \$1;#P message 53 218 66 196617 fsmenubar 0;#P outlet 137 261 15 0;#P message 137 178 70 196617 fullscreen \$1;#P toggle 137 124 15 0;#P connect 8 0 3 0;#P connect 9 0 11 0;#P connect 11 0 10 0;#P connect 10 0 0 0;#P connect 0 0 1 0;#P fasten 22 0 2 0 681 243 142 243;#P fasten 20 0 2 0 602 243 142 243;#P fasten 18 0 2 0 504 243 142 243;#P fasten 16 0 2 0 419 243 142 243;#P fasten 4 0 2 0 363 243 142 243;#P fasten 6 0 2 0 295 243 142 243;#P connect 1 0 2 0;#P fasten 3 0 2 0 58 251 142 251;#P connect 13 0 10 1;#P connect 12 0 13 0;#P connect 7 0 6 0;#P connect 5 0 4 0;#P connect 15 0 16 0;#P connect 17 0 18 0;#P connect 19 1 20 0;#P connect 21 1 22 0;#P pop;