max v2;#N vpatcher 187 73 678 465;#P window setfont "Sans Serif" 9.;#P window linecount 1;#P newex 394 112 65 196617 route radius;#P newex 58 42 115 196617 patcherargs @radius 1.;#P message 142 233 46 196617 1. 1. \$1;#P newex 142 210 37 196617 !/ 10.;#P newex 73 275 38 196617 zl join;#P newex 73 229 51 196617 zl slice 3;#P newex 73 252 79 196617 vexpr $f1*$f2;#P outlet 32 341 15 0;#P inlet 32 42 15 0;#P newex 32 300 51 196617 zl join;#P newex 32 114 51 196617 zl slice 2;#P newex 32 90 373 196617 jcom.pass /aed /delete;#P fasten 10 1 0 0 168 74 37 74;#P connect 3 0 0 0;#P connect 0 0 1 0;#P connect 1 0 2 0;#P fasten 0 1 4 0 218 327 37 327;#P connect 2 0 4 0;#P connect 1 1 6 0;#P connect 6 0 5 0;#P connect 5 0 7 0;#P connect 7 0 2 1;#P connect 11 0 8 0;#P connect 8 0 9 0;#P connect 9 0 5 1;#P connect 0 2 11 0;#P pop;