max v2;#N vpatcher 52 62 1443 847;#P origin 0 -20;#P window setfont "Sans Serif" 9.;#P hidden message 809 90 43 196617 0 0 1 1;#P hidden message 573 93 49 196617 720 480;#P number 134 49 39 9 0 0 8224 3 255 255 255 221 221 221 222 222 222 0 0 0;#P objectname DIM[1];#P number 93 49 39 9 0 0 8225 3 255 255 255 221 221 221 222 222 222 0 0 0;#P objectname DIM[0];#P hidden newex 659 405 88 196617 pvar TEXRECT[3];#P hidden newex 569 405 88 196617 pvar TEXRECT[2];#P hidden newex 479 405 88 196617 pvar TEXRECT[1];#P hidden newex 389 405 88 196617 pvar TEXRECT[0];#P window linecount 2;#P hidden newex 536 359 471 196617 jcom.parameter slab/texrect @type msg_list @ramp none @description "The extent or rectangular coordinates bounding the texture coordinates for the slab geometry (default = 0 0 1 1).";#P objectname slab/texrect;#P window linecount 1;#P hidden newex 389 372 144 196617 jcom.list2parameter 4;#P hidden newex 659 320 71 196617 pvar RECT[3];#P hidden newex 569 320 71 196617 pvar RECT[2];#P hidden newex 479 320 71 196617 pvar RECT[1];#P hidden newex 389 320 71 196617 pvar RECT[0];#P window linecount 2;#P hidden newex 536 274 375 196617 jcom.parameter slab/rect @type msg_list @ramp none @description "The extent or rectangular coordinates bounding the slab geometry (default = 0 0 1 1).";#P objectname slab/rect;#P window linecount 1;#P hidden newex 389 287 144 196617 jcom.list2parameter 4;#P hidden newex 389 211 66 196617 pvar ADAPT;#P window linecount 2;#P hidden newex 389 230 333 196617 jcom.parameter slab/adapt @type msg_toggle @description "Enables or disables adapting and resizing to input source dimensions (default = 1).";#P objectname slab/adapt;#P window linecount 1;#P hidden newex 479 174 65 196617 pvar DIM[1];#P objectname DIM[Y];#P hidden newex 389 174 65 196617 pvar DIM[0];#P window linecount 2;#P hidden newex 536 128 392 196617 jcom.parameter slab/dim @type msg_list @ramp none @description "The dimensions of the output jit.gl.texture object when adapt is disabled (default = 720 480).";#P objectname slab/dim;#P window linecount 1;#P hidden newex 389 141 144 196617 jcom.list2parameter 2;#P flonum 92 86 40 9 0 0 8224 3 255 255 255 221 221 221 222 222 222 0 0 0;#P objectname TEXRECT[0];#P comment 192 51 45 196617 Adapt;#B frgb 255 255 255;#P user radiogroup 177 49 73 16;#X size 1;#X offset 16;#X inactive 0;#X itemtype 1;#X flagmode 0;#X set 1;#X done;#P objectname ADAPT;#P hidden newex 779 42 73 196617 r $0_defaults;#P hidden newex 166 760 73 196617 s $0_defaults;#P user jsui 76 758 84 19 3 0 0 jsui_textbutton.js Defaults;#P hidden newex 779 62 40 196617 t b 1 b;#B color 5;#P flonum 92 68 40 9 0 0 8224 3 255 255 255 221 221 221 222 222 222 0 0 0;#P objectname RECT[0];#P flonum 218 68 40 9 0 0 8224 3 255 255 255 221 221 221 222 222 222 0 0 0;#P objectname RECT[3];#P flonum 176 68 40 9 0 0 8224 3 255 255 255 221 221 221 222 222 222 0 0 0;#P objectname RECT[2];#P flonum 134 68 40 9 0 0 8224 3 255 255 255 221 221 221 222 222 222 0 0 0;#P objectname RECT[1];#P flonum 218 86 40 9 0 0 8224 3 255 255 255 221 221 221 222 222 222 0 0 0;#P objectname TEXRECT[3];#P flonum 176 86 40 9 0 0 8224 3 255 255 255 221 221 221 222 222 222 0 0 0;#P objectname TEXRECT[2];#P flonum 136 86 40 9 0 0 8224 3 255 255 255 221 221 221 222 222 222 0 0 0;#P objectname TEXRECT[1];#P comment 7 68 64 196617 Rect;#B frgb 255 255 255;#P comment 7 86 64 196617 Texrect:;#B frgb 255 255 255;#P comment 7 50 64 196617 Dimension;#B frgb 255 255 255;#P hidden newex 336 749 106 196617 bgcolor 110 110 110;#P window setfont "Sans Serif" 12.;#P comment 7 28 98 196620 Slab settings;#B frgb 255 255 255;#P user panel 1 20 265 86;#X brgb 110 110 110;#X frgb 255 255 255;#X border 1;#X rounded 0;#X shadow 0;#X done;#P hidden connect 14 0 15 0;#P hidden fasten 22 0 20 0 394 195 383 195 383 137 394 137;#P hidden connect 20 0 22 0;#P hidden fasten 24 0 25 0 394 263 382 263 382 207 394 207;#P hidden connect 13 1 24 0;#P hidden connect 25 0 24 0;#P hidden fasten 28 0 26 0 394 341 383 341 383 283 394 283;#P hidden connect 26 0 28 0;#P hidden fasten 34 0 32 0 394 426 383 426 383 368 394 368;#P hidden connect 32 0 34 0;#P hidden fasten 23 0 20 1 484 199 379 199 379 134 407 134;#P hidden fasten 29 0 26 1 484 345 379 345 379 280 407 280;#P hidden fasten 35 0 32 1 484 430 379 430 379 365 407 365;#P hidden fasten 30 0 26 2 574 348 375 348 375 277 420 277;#P hidden fasten 36 0 32 2 574 433 375 433 375 362 420 362;#P hidden fasten 31 0 26 3 664 351 371 351 371 274 433 274;#P hidden fasten 37 0 32 3 664 436 371 436 371 359 433 359;#P hidden fasten 20 1 23 0 407 169 484 169;#P hidden fasten 26 1 29 0 407 315 484 315;#P hidden fasten 32 1 35 0 407 400 484 400;#P hidden connect 21 0 20 10;#P hidden connect 27 0 26 10;#P hidden connect 33 0 32 10;#P hidden connect 40 0 21 0;#P hidden connect 20 10 21 0;#P hidden connect 41 0 27 0;#P hidden connect 26 10 27 0;#P hidden connect 41 0 33 0;#P hidden connect 32 10 33 0;#P hidden fasten 26 2 30 0 420 312 574 312;#P hidden fasten 32 2 36 0 420 397 574 397;#P hidden connect 13 0 40 0;#P hidden fasten 26 3 31 0 433 309 664 309;#P hidden fasten 32 3 37 0 433 394 664 394;#P hidden connect 16 0 13 0;#P hidden connect 13 2 41 0;#P pop;