max v2;#N vpatcher 21 371 1048 640;#P origin 51 -3;#P window setfont "Sans Serif" 9.;#P newex 933 49 54 196617 route syncinlet jit_matrix;#P inlet 933 29 15 0;#P newex 877 49 54 196617 route syncinlet jit_matrix;#P inlet 877 29 15 0;#P newex 821 50 54 196617 route syncinlet jit_matrix;#P inlet 821 29 15 0;#P newex 765 49 54 196617 route syncinlet jit_matrix;#P inlet 765 29 15 0;#P newex 709 49 54 196617 route syncinlet jit_matrix;#P inlet 709 29 15 0;#P newex 653 49 54 196617 route syncinlet jit_matrix;#P inlet 653 29 15 0;#P newex 597 49 54 196617 route syncinlet jit_matrix;#P inlet 597 29 15 0;#P newex 541 49 54 196617 route syncinlet jit_matrix;#P inlet 541 29 15 0;#P newex 485 49 54 196617 route syncinlet jit_matrix;#P inlet 485 29 15 0;#P newex 429 49 54 196617 route syncinlet jit_matrix;#P inlet 429 29 15 0;#P newex 373 49 54 196617 route syncinlet jit_matrix;#P inlet 373 29 15 0;#P newex 317 49 54 196617 route syncinlet jit_matrix;#P inlet 317 29 15 0;#P newex 261 49 54 196617 route syncinlet jit_matrix;#P inlet 261 29 15 0;#P newex 205 49 54 196617 route syncinlet jit_matrix;#P inlet 205 29 15 0;#P window linecount 2;#P newex 59 49 87 196617 route syncinlet jit_matrix;#P window linecount 1;#P newex 19 159 50 196617 t none b;#P newex 59 128 911 196617 switch 16 1;#P newex 59 191 917 196617 pack /multimatrix s s s s s s s s s s s s s s s s;#P window linecount 3;#P newex 150 49 53 196617 route syncinlet jit_matrix;#P inlet 150 29 15 0;#P inlet 59 29 15 0;#P outlet 59 217 13 0;#P connect 5 0 6 0;#P connect 1 0 7 0;#P fasten 35 0 5 0 938 109 64 109;#P lcolor 7;#P fasten 33 0 5 0 882 109 64 109;#P lcolor 7;#P fasten 31 0 5 0 826 109 64 109;#P lcolor 7;#P fasten 29 0 5 0 770 109 64 109;#P lcolor 7;#P fasten 27 0 5 0 714 109 64 109;#P lcolor 7;#P fasten 25 0 5 0 658 109 64 109;#P lcolor 7;#P fasten 23 0 5 0 602 109 64 109;#P lcolor 7;#P fasten 21 0 5 0 546 109 64 109;#P lcolor 7;#P fasten 19 0 5 0 490 109 64 109;#P lcolor 7;#P fasten 17 0 5 0 434 109 64 109;#P lcolor 7;#P fasten 15 0 5 0 378 109 64 109;#P lcolor 7;#P fasten 13 0 5 0 322 109 64 109;#P lcolor 7;#P fasten 11 0 5 0 266 109 64 109;#P lcolor 7;#P fasten 9 0 5 0 210 109 64 109;#P lcolor 7;#P fasten 3 0 5 0 155 109 64 109;#P lcolor 7;#P fasten 7 0 5 0 64 119 64 119;#P lcolor 7;#P connect 6 1 4 0;#P connect 4 0 0 0;#P fasten 7 1 5 1 102 88 120 88;#P fasten 7 1 4 1 102 87 120 87;#P fasten 6 0 4 1 24 183 120 183;#P connect 2 0 3 0;#P connect 3 1 5 2;#P connect 3 1 4 2;#P fasten 6 0 4 2 24 183 176 183;#P connect 8 0 9 0;#P connect 9 1 5 3;#P connect 9 1 4 3;#P fasten 6 0 4 3 24 183 232 183;#P connect 10 0 11 0;#P connect 11 1 5 4;#P connect 11 1 4 4;#P fasten 6 0 4 4 24 183 288 183;#P connect 12 0 13 0;#P connect 13 1 5 5;#P connect 13 1 4 5;#P fasten 6 0 4 5 24 183 344 183;#P connect 14 0 15 0;#P connect 15 1 5 6;#P connect 15 1 4 6;#P fasten 6 0 4 6 24 183 400 183;#P connect 16 0 17 0;#P connect 17 1 5 7;#P connect 17 1 4 7;#P fasten 6 0 4 7 24 183 456 183;#P connect 18 0 19 0;#P connect 19 1 5 8;#P connect 19 1 4 8;#P fasten 6 0 4 8 24 183 512 183;#P connect 20 0 21 0;#P connect 21 1 5 9;#P connect 21 1 4 9;#P fasten 6 0 4 9 24 183 568 183;#P connect 22 0 23 0;#P connect 23 1 5 10;#P connect 23 1 4 10;#P fasten 6 0 4 10 24 183 624 183;#P connect 24 0 25 0;#P connect 25 1 5 11;#P connect 25 1 4 11;#P fasten 6 0 4 11 24 183 680 183;#P connect 26 0 27 0;#P connect 27 1 5 12;#P connect 27 1 4 12;#P fasten 6 0 4 12 24 183 736 183;#P connect 28 0 29 0;#P connect 29 1 5 13;#P connect 29 1 4 13;#P fasten 6 0 4 13 24 183 792 183;#P connect 30 0 31 0;#P connect 31 1 5 14;#P connect 31 1 4 14;#P fasten 6 0 4 14 24 183 848 183;#P connect 32 0 33 0;#P connect 33 1 5 15;#P connect 33 1 4 15;#P fasten 6 0 4 15 24 183 904 183;#P connect 34 0 35 0;#P connect 35 1 5 16;#P connect 35 1 4 16;#P fasten 6 0 4 16 24 183 960 183;#P lcolor 7;#P pop;