max v2;#N vpatcher 468 442 721 705;#P window setfont "Sans Serif" 9.;#P window linecount 1;#P newex 80 110 29 196617 t b f;#P newex 111 35 64 196617 patcherargs;#P newex 40 110 29 196617 t b f;#P newex 80 87 34 196617 * -1.;#P flonum 80 59 35 9 0 0 0 3 0 0 0 221 221 221 222 222 222 0 0 0;#N comlet randomizer value (float);#P inlet 80 35 15 0;#P newex 40 150 129 196617 jcom.random;#N comlet randomized output (float);#P outlet 40 208 15 0;#N comlet number input (float/int);#P inlet 40 35 15 0;#P newex 40 178 29 196617 + 0.;#P connect 1 0 7 0;#P connect 9 0 3 0;#P connect 7 0 3 0;#P connect 3 0 0 0;#P connect 0 0 2 0;#P connect 7 1 0 1;#P fasten 8 0 5 0 116 55 85 55;#P connect 4 0 5 0;#P connect 5 0 6 0;#P connect 6 0 9 0;#P connect 9 1 3 1;#P fasten 5 0 3 2 85 80 163 80;#P pop;