max v2;#N vpatcher 420 216 939 760;#P origin 0 -6;#P inlet 30 25 15 0;#P outlet 298 496 15 0;#P outlet 68 496 15 0;#P window setfont "Sans Serif" 9.;#P newex 30 48 107 196617 jcom.oscroute /reset;#P newex 68 421 70 196617 jit.submatrix;#B color 5;#P newex 128 87 146 196617 jit.findbounds @min 1 @max 1;#B color 5;#P newex 296 316 66 196617 jcom.absdiff;#P newex 222 315 66 196617 jcom.absdiff;#P button 30 174 15 0;#P message 30 210 33 196617 1000;#P message 72 210 14 196617 0;#P newex 189 254 40 196617 trough;#P newex 126 254 40 196617 trough;#P newex 315 254 40 196617 peak;#P newex 254 254 40 196617 peak;#P comment 263 233 50 196617 boundmax;#P comment 149 233 50 196617 boundmin;#P newex 290 177 35 196617 sel -1;#P newex 254 177 35 196617 sel -1;#P newex 164 177 35 196617 sel -1;#P newex 128 177 35 196617 sel -1;#P newex 254 155 46 196617 unpack;#N vpatcher 20 74 620 474;#P outlet 98 100 15 0;#P inlet 95 57 15 0;#P connect 0 0 1 0;#P pop;#P newobj 315 207 37 196617 p thru;#N vpatcher 20 74 620 474;#P outlet 98 100 15 0;#P inlet 95 57 15 0;#P connect 0 0 1 0;#P pop;#P newobj 254 207 37 196617 p thru;#N vpatcher 20 74 620 474;#P outlet 98 100 15 0;#P inlet 95 57 15 0;#P connect 0 0 1 0;#P pop;#P newobj 189 207 37 196617 p thru;#N vpatcher 20 74 620 474;#P outlet 98 100 15 0;#P inlet 95 57 15 0;#P connect 0 0 1 0;#P pop;#P newobj 126 207 37 196617 p thru;#P newex 128 155 46 196617 unpack;#P newex 259 350 27 196617 * 1.;#P newex 222 350 27 196617 * 1.;#P newex 298 389 64 196617 pak size 0 0;#P newex 89 389 85 196617 pak offset 0 0;#P newex 185 389 85 196617 pak dim 0 0;#P connect 31 0 28 0;#P connect 28 0 23 0;#P connect 23 0 22 0;#P connect 28 1 27 0;#P fasten 0 0 27 0 190 414 73 414;#P fasten 1 0 27 0 94 413 73 413;#P connect 27 0 29 0;#P connect 23 0 21 0;#P connect 11 1 6 0;#P connect 6 0 19 0;#P connect 19 0 1 1;#P connect 28 1 26 0;#P connect 26 0 5 0;#P connect 5 0 11 0;#P fasten 22 0 19 1 35 249 161 249;#P connect 20 0 1 2;#P connect 5 1 12 0;#P connect 12 1 7 0;#P connect 7 0 20 0;#P fasten 22 0 20 1 35 249 224 249;#P connect 19 0 24 0;#P connect 24 0 3 0;#P connect 3 0 0 1;#P connect 26 1 10 0;#P connect 10 0 13 0;#P connect 13 1 8 0;#P connect 8 0 17 0;#P connect 25 0 4 0;#P connect 4 0 0 2;#P connect 17 0 24 1;#P fasten 21 0 17 1 77 249 289 249;#P connect 10 1 14 0;#P connect 20 0 25 0;#P connect 2 0 30 0;#P connect 14 1 9 0;#P connect 9 0 18 0;#P connect 3 0 2 1;#P fasten 21 0 18 1 77 249 350 249;#P connect 18 0 25 1;#P connect 4 0 2 2;#P pop;