max v2;#N vpatcher 386 44 929 670;#P window setfont "Sans Serif" 9.;#P window linecount 1;#P newex 221 306 27 196617 t l b;#P newex 367 511 27 196617 t l b;#P newex 313 448 27 196617 t l b;#P newex 267 374 27 196617 t l b;#P newex 313 472 138 196617 jit.matrix @thru 0 @adapt 1;#P newex 367 535 138 196617 jit.matrix @thru 0 @adapt 1;#P newex 221 331 138 196617 jit.matrix @thru 0 @adapt 1;#P newex 267 397 138 196617 jit.matrix @thru 0 @adapt 1;#P outlet 313 573 15 0;#P outlet 221 573 15 0;#P outlet 267 573 15 0;#P outlet 367 573 15 0;#P newex 171 244 27 196617 t l b;#P newex 117 181 27 196617 t l b;#P newex 75 107 27 196617 t l b;#P newex 117 205 138 196617 jit.matrix @thru 0 @adapt 1;#P newex 171 268 138 196617 jit.matrix @thru 0 @adapt 1;#P newex 36 64 138 196617 jit.matrix @thru 0 @adapt 1;#P newex 75 130 138 196617 jit.matrix @thru 0 @adapt 1;#P inlet 36 23 15 0;#P outlet 117 573 15 0;#P outlet 36 573 15 0;#P outlet 75 573 15 0;#P outlet 171 573 15 0;#P connect 4 0 6 0;#P connect 6 0 2 0;#P connect 6 0 9 0;#P connect 9 0 5 0;#P connect 9 1 5 0;#P connect 5 0 1 0;#P connect 5 0 10 0;#P connect 10 0 8 0;#P connect 10 1 8 0;#P connect 8 0 3 0;#P connect 8 0 11 0;#P connect 11 0 7 0;#P connect 11 1 7 0;#P connect 7 0 0 0;#P connect 7 0 23 0;#P connect 23 0 17 0;#P connect 23 1 17 0;#P connect 17 0 14 0;#P connect 17 0 20 0;#P connect 20 1 16 0;#P connect 20 0 16 0;#P connect 16 0 13 0;#P connect 16 0 21 0;#P connect 21 1 19 0;#P connect 21 0 19 0;#P connect 19 0 15 0;#P connect 19 0 22 0;#P connect 22 1 18 0;#P connect 22 0 18 0;#P connect 18 0 12 0;#P pop;