max v2;#N vpatcher 6 60 474 391;#P window setfont "Sans Serif" 9.;#P window linecount 1;#P newex 127 100 121 196617 route @threshold @mode;#P message 351 148 26 196617 op <;#P message 305 148 26 196617 op >;#P newex 305 125 103 196617 sel positive negative;#P newex 258 100 105 196617 route threshold mode;#P inlet 214 51 15 0;#P newex 249 71 64 196617 patcherargs;#P outlet 121 290 15 0;#P inlet 121 51 15 0;#P number 214 157 35 9 0 255 3 3 0 0 0 221 221 221 222 222 222 0 0 0;#P newex 121 182 103 196617 jit.op @op > @val 50;#P newex 121 148 86 196617 jcom.rgb2luma%;#P window linecount 5;#P comment 169 235 100 196617 Converts to greyscale and thresholds the stream to get a binary image.;#P window linecount 4;#P comment 12 83 100 196617 not sure if it is worth the overhead to check for incoming attributes;#P connect 5 0 2 0;#P connect 12 0 3 0;#P connect 11 0 3 0;#P connect 2 0 3 0;#P connect 3 0 6 0;#P connect 13 0 4 0;#P connect 9 0 4 0;#P connect 7 0 4 0;#P connect 8 0 4 0;#P connect 4 0 3 1;#P connect 7 1 9 0;#P connect 13 1 10 0;#P connect 9 1 10 0;#P connect 10 0 11 0;#P connect 10 1 12 0;#P pop;