max v2;#N vpatcher 758 222 1011 485;#P window setfont "Sans Serif" 9.;#P window linecount 1;#P newex 152 34 64 196617 patcherargs;#P newex 40 65 29 196617 t f b;#P newex 90 90 34 196617 * -1.;#P flonum 121 59 35 9 0 0 0 3 0 0 0 221 221 221 222 222 222 0 0 0;#N comlet randomizer value (float);#P inlet 121 34 15 0;#P newex 59 112 73 196617 jcom.random;#N comlet randomized output (float);#P outlet 40 208 15 0;#N comlet number input (float/int);#P inlet 40 35 15 0;#P newex 40 147 29 196617 + 0.;#P connect 1 0 7 0;#P connect 7 0 0 0;#P connect 0 0 2 0;#P fasten 7 1 3 0 64 97 64 97;#P fasten 3 0 0 1 64 138 64 138;#P connect 5 0 6 0;#P connect 6 0 3 1;#P fasten 8 0 5 0 157 55 126 55;#P connect 4 0 5 0;#P connect 5 0 3 2;#P pop;