max v2;#N vpatcher 217 100 548 343;#P window setfont "Sans Serif" 9.;#P window linecount 1;#P message 73 155 72 196617 planecount \$1;#P newex 73 112 84 196617 route planecount;#P newex 73 133 40 196617 change;#P newex 73 91 72 196617 jit.matrixinfo;#P inlet 73 64 15 0;#P outlet 73 181 15 0;#P window linecount 6;#P comment 171 94 100 196617 This little thing adjusts the next module so that it works independtly of how many planes are in the matrix.;#P connect 2 0 3 0;#P connect 3 0 5 0;#P connect 5 0 4 0;#P connect 4 0 6 0;#P fasten 2 0 1 0 61 96 61 170;#P connect 6 0 1 0;#P pop;