max v2;#N vpatcher 108 64 492 381;#P origin -4 0;#P inlet 272 48 15 0;#P outlet 176 236 15 0;#P inlet 176 48 15 0;#P window setfont "Sans Serif" 9.;#P comment 23 208 145 196617 pass on the quantity of motion;#P comment 23 177 149 196617 sum the contents of the matrix;#P comment 23 145 52 196617 threshold;#P comment 23 109 120 196617 calculating motion image;#P newex 176 76 86 196617 jcom.rgb2luma%;#P flonum 272 122 35 9 0 0 0 3 0 0 0 221 221 221 222 222 222 0 0 0;#P newex 176 174 62 196617 jcom.sum%;#P newex 176 142 106 196617 jit.op @op > @val 0.2;#P newex 176 106 74 196617 jcom.motion%;#P newex 176 205 74 196617 route quantity;#P comment 23 79 117 196617 converting to grayscale;#P connect 11 0 6 0;#P connect 6 0 2 0;#P connect 2 0 3 0;#P connect 3 0 4 0;#P connect 4 0 1 0;#P connect 1 0 12 0;#P connect 13 0 5 0;#P connect 5 0 3 1;#P pop;