max v2;#N vpatcher 20 74 1031 255;#P inlet 15 19 15 0;#P outlet 928 127 15 0;#P outlet 871 127 15 0;#P outlet 814 127 15 0;#P outlet 757 127 15 0;#P outlet 700 127 15 0;#P outlet 643 127 15 0;#P outlet 586 127 15 0;#P outlet 529 127 15 0;#P outlet 472 127 15 0;#P outlet 415 127 15 0;#P outlet 358 127 15 0;#P outlet 301 127 15 0;#P outlet 244 127 15 0;#P outlet 187 127 15 0;#P outlet 130 127 15 0;#P outlet 73 127 15 0;#P window setfont "Sans Serif" 9.;#P window linecount 1;#P newex 927 58 47 196617 sel none;#P window linecount 2;#P newex 928 87 55 196617 prepend jit_matrix;#P window linecount 1;#P newex 870 58 47 196617 sel none;#P window linecount 2;#P newex 871 87 55 196617 prepend jit_matrix;#P window linecount 1;#P newex 813 58 47 196617 sel none;#P window linecount 2;#P newex 814 87 55 196617 prepend jit_matrix;#P window linecount 1;#P newex 756 58 47 196617 sel none;#P window linecount 2;#P newex 757 87 55 196617 prepend jit_matrix;#P window linecount 1;#P newex 699 58 47 196617 sel none;#P window linecount 2;#P newex 700 87 55 196617 prepend jit_matrix;#P window linecount 1;#P newex 642 58 47 196617 sel none;#P window linecount 2;#P newex 643 87 55 196617 prepend jit_matrix;#P window linecount 1;#P newex 585 58 47 196617 sel none;#P window linecount 2;#P newex 586 87 55 196617 prepend jit_matrix;#P window linecount 1;#P newex 528 58 47 196617 sel none;#P window linecount 2;#P newex 529 87 55 196617 prepend jit_matrix;#P window linecount 1;#P newex 471 58 47 196617 sel none;#P window linecount 2;#P newex 472 87 55 196617 prepend jit_matrix;#P window linecount 1;#P newex 414 58 47 196617 sel none;#P window linecount 2;#P newex 415 87 55 196617 prepend jit_matrix;#P window linecount 1;#P newex 357 58 47 196617 sel none;#P window linecount 2;#P newex 358 87 55 196617 prepend jit_matrix;#P window linecount 1;#P newex 299 58 47 196617 sel none;#P window linecount 2;#P newex 300 87 55 196617 prepend jit_matrix;#P window linecount 1;#P newex 186 58 47 196617 sel none;#P window linecount 2;#P newex 187 87 55 196617 prepend jit_matrix;#P window linecount 1;#P newex 129 59 47 196617 sel none;#P window linecount 2;#P newex 130 88 55 196617 prepend jit_matrix;#P window linecount 1;#P newex 72 59 47 196617 sel none;#P window linecount 2;#P newex 73 88 55 196617 prepend jit_matrix;#P window linecount 1;#P newex 243 58 47 196617 sel none;#P window linecount 2;#P newex 244 87 55 196617 prepend jit_matrix;#P window linecount 1;#P newex 15 37 925 196617 unpack /multimatrix s s s s s s s s s s s s s s s s;#P connect 49 0 0 0;#P connect 0 1 4 0;#P connect 4 1 3 0;#P connect 3 0 33 0;#P connect 0 2 6 0;#P connect 6 1 5 0;#P connect 5 0 34 0;#P connect 0 3 8 0;#P connect 8 1 7 0;#P connect 7 0 35 0;#P connect 0 4 2 0;#P connect 2 1 1 0;#P connect 1 0 36 0;#P connect 0 5 10 0;#P connect 10 1 9 0;#P connect 9 0 37 0;#P connect 0 6 12 0;#P connect 12 1 11 0;#P connect 11 0 38 0;#P connect 0 7 14 0;#P connect 14 1 13 0;#P connect 13 0 39 0;#P connect 0 8 16 0;#P connect 16 1 15 0;#P connect 15 0 40 0;#P connect 0 9 18 0;#P connect 18 1 17 0;#P connect 17 0 41 0;#P connect 0 10 20 0;#P connect 20 1 19 0;#P connect 19 0 42 0;#P connect 0 11 22 0;#P connect 22 1 21 0;#P connect 21 0 43 0;#P connect 0 12 24 0;#P connect 24 1 23 0;#P connect 23 0 44 0;#P connect 0 13 26 0;#P connect 26 1 25 0;#P connect 25 0 45 0;#P connect 0 14 28 0;#P connect 28 1 27 0;#P connect 27 0 46 0;#P connect 0 15 30 0;#P connect 30 1 29 0;#P connect 29 0 47 0;#P connect 0 16 32 0;#P connect 32 1 31 0;#P connect 31 0 48 0;#P pop;