max v2;
#N vpatcher 301 101 1250 729;
#P user hint 74 191 87 204 "output master gain" 2000 500 0 65535 65535 52428 9 3 0 1 0 0 0;
#P window setfont "Sans Serif" 9.;
#N vpatcher 80 380 1261 1086;
#P origin 90 0;
#P window setfont "Sans Serif" 9.;
#P window linecount 1;
#P comment 544 56 90 196617 defeat the meters;
#P toggle 526 76 15 0;
#P inlet 526 56 15 0;
#P hidden comment 255 28 252 196617 these receive amplitude envelope info from jcom.out~;
#P newex 274 204 22 196617 b 1;
#P window linecount 2;
#P message 274 225 223 196617 recordsprite \, paintrect 66 1 70 4 250 0 0 \, closesprite myPeak1 \, drawsprite myPeak1 0 0;
#P window linecount 1;
#P newex 113 321 36 196617 zl reg;
#P message 9 267 108 196617 deletesprite myPeak1;
#P newex 152 226 93 196617 scale 1 70 35 255;
#P newex 132 247 30 196617 pack;
#P newex 44 208 32 196617 sel 0;
#P newex 44 186 54 196617 split 0 70;
#P newex 44 164 40 196617 peak;
#P window linecount 2;
#P message 132 271 230 196617 recordsprite \, linesegment \$1 1 \$1 3 \$2 255 16 \, closesprite myPeak1 \, drawsprite myPeak1 0 0;
#P window linecount 1;
#P newex 760 201 22 196617 b 1;
#P window linecount 2;
#P message 760 222 223 196617 recordsprite \, paintrect 66 6 70 9 250 0 0 \, closesprite myPeak2 \, drawsprite myPeak2 0 0;
#P window linecount 1;
#P newex 618 309 36 196617 zl reg;
#P message 502 265 108 196617 deletesprite myPeak2;
#P newex 638 223 93 196617 scale 1 70 35 255;
#P newex 618 244 30 196617 pack;
#P newex 596 195 32 196617 sel 0;
#P newex 596 173 54 196617 split 0 70;
#P button 429 75 15 0;
#P window linecount 0;
#P message 429 95 14 196617 0;
#P newex 596 151 40 196617 peak;
#P inlet 429 56 15 0;
#P window linecount 1;
#P message 126 133 130 196617 drawsprite myMask1 \$1 0;
#P number 126 109 35 9 0 0 0 3 0 0 0 221 221 221 222 222 222 0 0 0;
#P newex 126 88 116 196617 scale -96 0 0 70 1.035;
#P newex 126 67 34 196617 atodb;
#P flonum 126 48 35 9 0 0 0 3 0 0 0 221 221 221 222 222 222 0 0 0;
#P newex 703 349 50 196617 jcom.init;
#P window linecount 0;
#P message 730 137 130 196617 drawsprite myMask2 \$1 0;
#P window linecount 2;
#P message 151 429 224 196617 recordsprite \, paintrect 0 6 70 9 50 50 50 \, closesprite myMask2 \, drawsprite myMask2 0 0;
#P message 378 429 224 196617 recordsprite \, paintrect 0 1 70 4 50 50 50 \, closesprite myMask1 \, drawsprite myMask1 0 0;
#P number 730 113 35 9 0 0 0 3 0 0 0 221 221 221 222 222 222 0 0 0;
#P window linecount 1;
#P newex 730 92 116 196617 scale -96 0 0 70 1.035;
#P window linecount 0;
#P newex 730 71 34 196617 atodb;
#P flonum 730 52 35 9 0 0 0 3 0 0 0 221 221 221 222 222 222 0 0 0;
#P window linecount 1;
#P hidden newex 730 31 127 196617 jcom.remote __meter__2;
#P hidden newex 126 27 127 196617 jcom.remote __meter__1;
#P window linecount 0;
#P newex 703 391 144 196617 b 11;
#P window linecount 1;
#P newex 495 552 30 196617 pack;
#P newex 525 530 93 196617 scale 1 70 35 255;
#P message 495 574 162 196617 linesegment \$1 6 \$1 8 \$2 255 16;
#P message 550 503 150 196617 linesegment \$1 6 \$1 8 250 0 0;
#P newex 506 480 54 196617 split 1 65;
#P newex 703 553 30 196617 pack;
#P newex 733 531 93 196617 scale 1 70 35 255;
#P message 703 575 162 196617 linesegment \$1 1 \$1 3 \$2 255 16;
#P message 758 504 150 196617 linesegment \$1 1 \$1 3 250 0 0;
#P newex 714 481 54 196617 split 1 65;
#P comment 474 436 79 196617 meter 2 (right);
#P comment 719 439 73 196617 meter 1 (left);
#P newex 507 457 75 196617 jcom.thru.mxt;
#P newex 714 458 75 196617 jcom.thru.mxt;
#P button 703 371 15 0;
#P newex 589 402 40 196617 uzi 70;
#P message 909 395 33 196617 clear;
#P window linecount 0;
#P message 944 395 93 196617 brgb 170 170 170;
#P outlet 553 655 15 0;
#P window linecount 2;
#P comment 929 36 162 196617 For now we assume two meters - we can make this dynamic later...;
#P window linecount 0;
#P comment 447 56 59 196617 in from lcd;
#P window linecount 2;
#P message 618 268 230 196617 recordsprite \, linesegment \$1 6 \$1 8 \$2 255 16 \, closesprite myPeak2 \, drawsprite myPeak2 0 0;
#P connect 53 0 56 0;
#P connect 36 0 51 0;
#P connect 51 0 52 0;
#P connect 52 0 53 0;
#P connect 40 0 51 1;
#P connect 37 0 57 0;
#P connect 56 0 57 0;
#P connect 50 0 57 0;
#P connect 58 0 57 0;
#P connect 23 0 33 0;
#P connect 33 0 34 0;
#P connect 34 0 35 0;
#P connect 35 0 36 0;
#P connect 36 0 37 0;
#P connect 53 1 54 0;
#P connect 54 0 50 0;
#P connect 22 6 30 0;
#P connect 53 1 55 0;
#P connect 55 0 54 1;
#P connect 52 1 59 0;
#P connect 59 0 58 0;
#P connect 22 7 29 0;
#P connect 38 0 41 0;
#P connect 41 0 40 0;
#P connect 17 0 21 0;
#P connect 21 0 19 0;
#P connect 43 0 46 0;
#P connect 9 0 17 0;
#P connect 6 2 9 0;
#P connect 20 0 21 1;
#P connect 17 0 20 0;
#P connect 61 0 62 0;
#P connect 17 1 18 0;
#P fasten 57 0 3 0 118 644 558 644;
#P fasten 47 0 3 0 623 347 142 347 142 637 558 637;
#P fasten 4 0 3 0 949 623 558 623;
#P fasten 5 0 3 0 914 621 558 621;
#P fasten 13 0 3 0 763 619 558 619;
#P fasten 14 0 3 0 708 617 558 617;
#P connect 19 0 3 0;
#P connect 18 0 3 0;
#P fasten 29 0 3 0 383 620 558 620;
#P fasten 30 0 3 0 156 628 558 628;
#P fasten 22 8 6 0 706 409 594 387;
#P connect 28 0 39 0;
#P connect 39 0 42 0;
#P connect 42 0 43 0;
#P connect 43 1 44 0;
#P connect 44 0 0 0;
#P connect 31 0 47 0;
#P connect 48 0 47 0;
#P connect 0 0 47 0;
#P connect 46 0 47 0;
#P connect 40 0 39 1;
#P connect 43 1 45 0;
#P connect 45 0 44 1;
#P connect 32 0 7 0;
#P connect 7 0 22 0;
#P connect 12 0 16 0;
#P connect 16 0 14 0;
#P connect 6 2 8 0;
#P connect 8 0 12 0;
#P connect 15 0 16 1;
#P connect 24 0 25 0;
#P connect 25 0 26 0;
#P connect 26 0 27 0;
#P connect 27 0 28 0;
#P connect 28 0 31 0;
#P connect 12 0 15 0;
#P connect 12 1 13 0;
#P connect 42 1 49 0;
#P connect 49 0 48 0;
#P connect 22 9 5 0;
#P connect 22 10 4 0;
#P pop;
#P hidden newobj 15 153 77 196617 p metercontrol;
#P hidden newex 125 430 62 196617 prepend set;
#P objectname mult_mix_out[2];
#P hidden newex 20 347 93 196617 scale 0. 1. 0. 157.;
#P hidden newex 125 409 93 196617 scale 0. 157. 0. 1.;
#P user lcd 2 193 70 10 1 0 0 0 1;
#P user jsui 73 192 13 11 0 0 0 jcom.jsui_3dknob.js 100 200 100 170 170 170;
#P hidden newex 502 447 40 196617 * 0.01;
#P objectname mult_mix_out[1];
#P hidden newex 234 139 193 196617 send $1_FROM_GUI_AUDIO_COMPONENT;
#P hidden newex 234 117 144 196617 prepend audio_meters_freeze;
#P objectname audio_meter_freeze_prepend;
#P user hint 122 191 159 203 "sample rate" 2000 500 0 65535 65535 52428 9 3 0 1 0 0 0;
#P user hint 110 191 123 203 mute 2000 500 0 65535 65535 52428 9 3 0 1 0 0 0;
#P user hint 98 191 111 203 bypass 2000 500 0 65535 65535 52428 9 3 0 1 0 0 0;
#P user hint 87 192 100 204 "wet/dry mix" 2000 500 0 65535 65535 52428 9 3 0 1 0 0 0;
#P hidden newex 300 388 40 196617 * 100.;
#P objectname mult_mix_in;
#P hidden newex 502 471 62 196617 prepend set;
#P objectname mult_mix_out;
#P user jsui 86 192 13 11 0 0 0 jcom.jsui_3dknob.js 100 100 200 170 170 170;
#P hidden newex 4 64 22 196617 b 1;
#B color 1;
#P objectname jcom.parameter[4];
#P hidden newex 4 44 166 196617 jcom.message audio/meters/clear;
#B color 1;
#P objectname jcom.parameter[3];
#P user jsui 120 192 40 11 0 0 0 jcom.jsui_sr.js 0 20000 0;
#P objectname samprate;
#P user pictctrl 99 192 11 11 jcom.button.bypass.pct 0 0 1 1 26 0 0 0 11 11 128 0 1 1 1 1 1 270;
#P objectname button_bypass;
#P user pictctrl 109 192 11 11 jcom.button.mute.pct 0 0 1 1 26 0 0 0 11 11 128 0 1 1 1 1 1 270;
#P objectname button_mute;
#P user pictctrl 0 190 162 15 jcom.bg.audio-component.pct 0 0 1 0 24 0 0 0 162 15 2 0 1 1 1 1 1 270;
#P noclick;
#P objectname background;
#P window linecount 2;
#P hidden newex 299 227 345 196617 jcom.parameter audio/sample_rate @repetitions 0 @type msg_int @range -2 0 @description "Sets the relative sample-rate for this module.";
#P objectname audio/sample_rate;
#P hidden newex 300 272 331 196617 jcom.parameter audio/mute @type msg_toggle @description "When active\\\, this attribute turns off the module's processing.mxtorithm to save CPU";
#P objectname audio/mute;
#P hidden newex 300 317 402 196617 jcom.parameter audio/bypass @type msg_toggle @description "When active\\\, this attribute bypasses the module's processing.mxtorithm\\\, letting audio pass through unaffected.";
#P objectname audio/bypass;
#P hidden newex 300 411 414 196617 jcom.parameter audio/mix @repetitions 0 @ramp 1 @type msg_float @range 0 100 @description "Controls the wet/dry mix of the module's processing routine in percent.";
#P objectname audio/mix;
#P hidden newex 53 75 373 196617 jcom.parameter audio/meters/freeze @type msg_toggle @description "When active\\\, this attribute turns off the signal level meters in the module to conserve CPU.";
#P objectname audio/meters/freeze;
#P window linecount 1;
#P hidden newex 20 367 174 196617 jcom.parameter.gain.mxt audio/gain;
#P objectname pattr_gain;
#P hidden comment 235 159 342 196617 this is sent to the js in the gui so that it can flag the menu item correctly.;
#P hidden connect 28 0 24 0;
#P hidden connect 11 0 12 0;
#P hidden connect 12 0 28 0;
#P hidden connect 24 2 28 0;
#P hidden connect 23 0 26 0;
#P hidden connect 26 0 1 0;
#P hidden connect 27 0 23 0;
#P hidden connect 2 1 28 1;
#P hidden connect 14 0 13 0;
#P hidden connect 4 0 9 0;
#P hidden connect 5 0 8 0;
#P hidden connect 6 0 10 0;
#P hidden connect 1 1 25 0;
#P hidden connect 25 0 27 0;
#P hidden connect 2 1 20 0;
#P hidden connect 20 0 21 0;
#P hidden connect 10 0 6 0;
#P hidden connect 8 0 5 0;
#P hidden connect 9 0 4 0;
#P hidden connect 13 0 15 0;
#P hidden connect 15 0 3 0;
#P hidden connect 3 1 22 0;
#P hidden connect 22 0 14 0;
#P pop;
