{
	"patcher" : 	{
		"rect" : [ 167.0, 44.0, 498.0, 631.0 ],
		"bgcolor" : [ 1.0, 1.0, 1.0, 1.0 ],
		"bglocked" : 0,
		"defrect" : [ 167.0, 44.0, 498.0, 631.0 ],
		"openinpresentation" : 0,
		"default_fontsize" : 10.0,
		"default_fontface" : 0,
		"default_fontname" : "Verdana",
		"gridonopen" : 0,
		"gridsize" : [ 15.0, 15.0 ],
		"gridsnaponopen" : 0,
		"toolbarvisible" : 1,
		"boxfadetime" : 200,
		"boxanimatetime" : 200,
		"scrollanimatetime" : 200,
		"metadata" : [  ],
		"boxes" : [ 			{
				"box" : 				{
					"maxclass" : "newobj",
					"text" : "gate 2 1",
					"outlettype" : [ "", "" ],
					"id" : "obj-1",
					"fontsize" : 9.0,
					"patching_rect" : [ 168.0, 487.0, 47.0, 17.0 ],
					"numinlets" : 2,
					"numoutlets" : 2,
					"fontname" : "Verdana"
				}

			}
, 			{
				"box" : 				{
					"maxclass" : "newobj",
					"text" : "jit.transpose",
					"outlettype" : [ "jit_matrix", "" ],
					"id" : "obj-2",
					"fontsize" : 9.0,
					"patching_rect" : [ 205.0, 512.0, 68.0, 17.0 ],
					"numinlets" : 1,
					"numoutlets" : 2,
					"fontname" : "Verdana"
				}

			}
, 			{
				"box" : 				{
					"maxclass" : "newobj",
					"text" : "gate 2",
					"outlettype" : [ "", "" ],
					"id" : "obj-3",
					"fontsize" : 9.0,
					"patching_rect" : [ 205.0, 348.0, 35.0, 17.0 ],
					"numinlets" : 2,
					"numoutlets" : 2,
					"fontname" : "Verdana"
				}

			}
, 			{
				"box" : 				{
					"maxclass" : "newobj",
					"text" : "t 1 l",
					"outlettype" : [ "int", "" ],
					"id" : "obj-4",
					"fontsize" : 9.0,
					"patching_rect" : [ 205.0, 304.0, 27.0, 17.0 ],
					"numinlets" : 1,
					"numoutlets" : 2,
					"fontname" : "Verdana"
				}

			}
, 			{
				"box" : 				{
					"maxclass" : "newobj",
					"text" : "jcom.float2char%",
					"outlettype" : [ "jit_matrix" ],
					"id" : "obj-5",
					"fontsize" : 9.0,
					"patching_rect" : [ 205.0, 452.0, 91.0, 17.0 ],
					"numinlets" : 1,
					"numoutlets" : 1,
					"fontname" : "Verdana"
				}

			}
, 			{
				"box" : 				{
					"maxclass" : "newobj",
					"text" : "jit.op @op \/ @val 8",
					"outlettype" : [ "jit_matrix", "" ],
					"id" : "obj-6",
					"fontsize" : 9.0,
					"patching_rect" : [ 205.0, 420.0, 98.0, 17.0 ],
					"numinlets" : 2,
					"numoutlets" : 2,
					"fontname" : "Verdana"
				}

			}
, 			{
				"box" : 				{
					"maxclass" : "newobj",
					"text" : "p matrixinfo",
					"outlettype" : [ "", "int" ],
					"id" : "obj-7",
					"fontsize" : 9.0,
					"patching_rect" : [ 205.0, 219.0, 66.0, 17.0 ],
					"numinlets" : 1,
					"numoutlets" : 2,
					"fontname" : "Verdana",
					"patcher" : 					{
						"rect" : [ 180.0, 128.0, 625.0, 303.0 ],
						"bgcolor" : [ 1.0, 1.0, 1.0, 1.0 ],
						"bglocked" : 0,
						"defrect" : [ 180.0, 128.0, 625.0, 303.0 ],
						"openinpresentation" : 0,
						"default_fontsize" : 10.0,
						"default_fontface" : 0,
						"default_fontname" : "Verdana",
						"gridonopen" : 0,
						"gridsize" : [ 15.0, 15.0 ],
						"gridsnaponopen" : 0,
						"toolbarvisible" : 1,
						"boxfadetime" : 200,
						"boxanimatetime" : 200,
						"scrollanimatetime" : 200,
						"metadata" : [  ],
						"boxes" : [ 							{
								"box" : 								{
									"maxclass" : "outlet",
									"id" : "obj-1",
									"patching_rect" : [ 430.0, 212.0, 15.0, 15.0 ],
									"numinlets" : 1,
									"numoutlets" : 0,
									"comment" : ""
								}

							}
, 							{
								"box" : 								{
									"maxclass" : "newobj",
									"text" : "jit.matrix 4 float32 5 5",
									"outlettype" : [ "jit_matrix", "" ],
									"id" : "obj-2",
									"fontsize" : 9.0,
									"patching_rect" : [ 40.0, 161.0, 118.0, 17.0 ],
									"numinlets" : 1,
									"numoutlets" : 2,
									"fontname" : "Verdana"
								}

							}
, 							{
								"box" : 								{
									"maxclass" : "newobj",
									"text" : "jit.matrixinfo",
									"outlettype" : [ "" ],
									"id" : "obj-3",
									"fontsize" : 9.0,
									"patching_rect" : [ 182.0, 66.0, 72.0, 17.0 ],
									"numinlets" : 1,
									"numoutlets" : 1,
									"fontname" : "Verdana"
								}

							}
, 							{
								"box" : 								{
									"maxclass" : "newobj",
									"text" : "jcom.change",
									"outlettype" : [ "" ],
									"id" : "obj-4",
									"fontsize" : 9.0,
									"patching_rect" : [ 256.0, 120.0, 65.0, 17.0 ],
									"numinlets" : 1,
									"numoutlets" : 1,
									"fontname" : "Verdana"
								}

							}
, 							{
								"box" : 								{
									"maxclass" : "newobj",
									"text" : "jcom.change",
									"outlettype" : [ "" ],
									"id" : "obj-5",
									"fontsize" : 9.0,
									"patching_rect" : [ 182.0, 120.0, 65.0, 17.0 ],
									"numinlets" : 1,
									"numoutlets" : 1,
									"fontname" : "Verdana"
								}

							}
, 							{
								"box" : 								{
									"maxclass" : "outlet",
									"id" : "obj-6",
									"patching_rect" : [ 140.0, 212.0, 15.0, 15.0 ],
									"numinlets" : 1,
									"numoutlets" : 0,
									"comment" : ""
								}

							}
, 							{
								"box" : 								{
									"maxclass" : "inlet",
									"outlettype" : [ "" ],
									"id" : "obj-7",
									"patching_rect" : [ 40.0, 35.0, 15.0, 15.0 ],
									"numinlets" : 0,
									"numoutlets" : 1,
									"comment" : ""
								}

							}
, 							{
								"box" : 								{
									"maxclass" : "newobj",
									"text" : "jcom.pass dim planecount",
									"outlettype" : [ "", "" ],
									"id" : "obj-8",
									"fontsize" : 9.0,
									"patching_rect" : [ 182.0, 95.0, 158.0, 17.0 ],
									"numinlets" : 1,
									"numoutlets" : 2,
									"fontname" : "Verdana"
								}

							}
, 							{
								"box" : 								{
									"maxclass" : "newobj",
									"text" : "jcom.change",
									"outlettype" : [ "" ],
									"id" : "obj-9",
									"fontsize" : 9.0,
									"patching_rect" : [ 357.0, 169.0, 65.0, 17.0 ],
									"numinlets" : 1,
									"numoutlets" : 1,
									"fontname" : "Verdana"
								}

							}
, 							{
								"box" : 								{
									"maxclass" : "newobj",
									"text" : "unpack 1 1",
									"outlettype" : [ "int", "int" ],
									"id" : "obj-10",
									"fontsize" : 9.0,
									"patching_rect" : [ 382.0, 120.0, 58.0, 17.0 ],
									"numinlets" : 1,
									"numoutlets" : 2,
									"fontname" : "Verdana"
								}

							}
, 							{
								"box" : 								{
									"maxclass" : "newobj",
									"text" : "pak dim 1 1",
									"outlettype" : [ "" ],
									"id" : "obj-11",
									"fontsize" : 9.0,
									"patching_rect" : [ 357.0, 147.0, 61.0, 17.0 ],
									"numinlets" : 3,
									"numoutlets" : 1,
									"fontname" : "Verdana"
								}

							}
, 							{
								"box" : 								{
									"maxclass" : "newobj",
									"text" : "route dim",
									"outlettype" : [ "", "" ],
									"id" : "obj-12",
									"fontsize" : 9.0,
									"patching_rect" : [ 382.0, 95.0, 77.0, 17.0 ],
									"numinlets" : 1,
									"numoutlets" : 2,
									"fontname" : "Verdana"
								}

							}
, 							{
								"box" : 								{
									"maxclass" : "comment",
									"text" : "This is the trick to collapse to an nx1 matrix.",
									"linecount" : 2,
									"id" : "obj-13",
									"fontsize" : 9.0,
									"patching_rect" : [ 459.0, 156.0, 141.0, 28.0 ],
									"numinlets" : 1,
									"numoutlets" : 0,
									"fontname" : "Verdana"
								}

							}
 ],
						"lines" : [ 							{
								"patchline" : 								{
									"source" : [ "obj-4", 0 ],
									"destination" : [ "obj-2", 0 ],
									"hidden" : 0,
									"midpoints" : [ 265.5, 147.0, 49.5, 147.0 ]
								}

							}
, 							{
								"patchline" : 								{
									"source" : [ "obj-7", 0 ],
									"destination" : [ "obj-2", 0 ],
									"hidden" : 0
								}

							}
, 							{
								"patchline" : 								{
									"source" : [ "obj-5", 0 ],
									"destination" : [ "obj-2", 0 ],
									"hidden" : 0,
									"midpoints" : [ 191.5, 147.0, 49.5, 147.0 ]
								}

							}
, 							{
								"patchline" : 								{
									"source" : [ "obj-4", 0 ],
									"destination" : [ "obj-6", 0 ],
									"hidden" : 0
								}

							}
, 							{
								"patchline" : 								{
									"source" : [ "obj-2", 0 ],
									"destination" : [ "obj-6", 0 ],
									"hidden" : 0,
									"midpoints" : [ 49.5, 188.0, 149.0, 188.0 ]
								}

							}
, 							{
								"patchline" : 								{
									"source" : [ "obj-9", 0 ],
									"destination" : [ "obj-6", 0 ],
									"hidden" : 0,
									"midpoints" : [ 366.5, 195.0, 149.0, 195.0 ]
								}

							}
, 							{
								"patchline" : 								{
									"source" : [ "obj-7", 0 ],
									"destination" : [ "obj-3", 0 ],
									"hidden" : 0,
									"midpoints" : [ 49.0, 57.0, 191.5, 57.0 ]
								}

							}
, 							{
								"patchline" : 								{
									"source" : [ "obj-3", 0 ],
									"destination" : [ "obj-8", 0 ],
									"hidden" : 0
								}

							}
, 							{
								"patchline" : 								{
									"source" : [ "obj-8", 0 ],
									"destination" : [ "obj-5", 0 ],
									"hidden" : 0
								}

							}
, 							{
								"patchline" : 								{
									"source" : [ "obj-8", 1 ],
									"destination" : [ "obj-4", 0 ],
									"hidden" : 0
								}

							}
, 							{
								"patchline" : 								{
									"source" : [ "obj-11", 0 ],
									"destination" : [ "obj-9", 0 ],
									"hidden" : 0
								}

							}
, 							{
								"patchline" : 								{
									"source" : [ "obj-3", 0 ],
									"destination" : [ "obj-12", 0 ],
									"hidden" : 0,
									"midpoints" : [ 191.5, 88.0, 391.5, 88.0 ]
								}

							}
, 							{
								"patchline" : 								{
									"source" : [ "obj-12", 0 ],
									"destination" : [ "obj-10", 0 ],
									"hidden" : 0
								}

							}
, 							{
								"patchline" : 								{
									"source" : [ "obj-10", 0 ],
									"destination" : [ "obj-11", 1 ],
									"hidden" : 0
								}

							}
, 							{
								"patchline" : 								{
									"source" : [ "obj-10", 1 ],
									"destination" : [ "obj-1", 0 ],
									"hidden" : 0
								}

							}
 ]
					}
,
					"saved_object_attributes" : 					{
						"fontface" : 0,
						"default_fontsize" : 10.0,
						"fontsize" : 10.0,
						"default_fontname" : "Verdana",
						"globalpatchername" : "",
						"fontname" : "Verdana",
						"default_fontface" : 0
					}

				}

			}
, 			{
				"box" : 				{
					"maxclass" : "newobj",
					"text" : "loadbang",
					"outlettype" : [ "bang" ],
					"id" : "obj-8",
					"fontsize" : 9.0,
					"patching_rect" : [ 177.0, 29.0, 48.0, 17.0 ],
					"numinlets" : 1,
					"numoutlets" : 1,
					"fontname" : "Verdana"
				}

			}
, 			{
				"box" : 				{
					"maxclass" : "newobj",
					"text" : "r jcom.init",
					"outlettype" : [ "" ],
					"id" : "obj-9",
					"fontsize" : 9.0,
					"patching_rect" : [ 116.0, 29.0, 58.0, 17.0 ],
					"numinlets" : 0,
					"numoutlets" : 1,
					"fontname" : "Verdana"
				}

			}
, 			{
				"box" : 				{
					"maxclass" : "number",
					"outlettype" : [ "int", "bang" ],
					"id" : "obj-10",
					"triscale" : 0.9,
					"htextcolor" : [ 0.870588, 0.870588, 0.870588, 1.0 ],
					"bgcolor" : [ 0.866667, 0.866667, 0.866667, 1.0 ],
					"fontsize" : 9.0,
					"patching_rect" : [ 52.0, 104.0, 35.0, 17.0 ],
					"numinlets" : 1,
					"numoutlets" : 2,
					"fontname" : "Verdana"
				}

			}
, 			{
				"box" : 				{
					"maxclass" : "newobj",
					"text" : "+ 1",
					"outlettype" : [ "int" ],
					"id" : "obj-11",
					"fontsize" : 9.0,
					"patching_rect" : [ 14.0, 79.0, 27.0, 17.0 ],
					"numinlets" : 2,
					"numoutlets" : 1,
					"fontname" : "Verdana"
				}

			}
, 			{
				"box" : 				{
					"maxclass" : "message",
					"text" : "2",
					"outlettype" : [ "" ],
					"id" : "obj-12",
					"fontsize" : 9.0,
					"patching_rect" : [ 107.0, 80.0, 16.0, 15.0 ],
					"numinlets" : 2,
					"numoutlets" : 1,
					"fontname" : "Verdana"
				}

			}
, 			{
				"box" : 				{
					"maxclass" : "message",
					"text" : "1",
					"outlettype" : [ "" ],
					"id" : "obj-13",
					"fontsize" : 9.0,
					"patching_rect" : [ 52.0, 80.0, 16.0, 15.0 ],
					"numinlets" : 2,
					"numoutlets" : 1,
					"fontname" : "Verdana"
				}

			}
, 			{
				"box" : 				{
					"maxclass" : "newobj",
					"text" : "route horizontal vertical",
					"outlettype" : [ "", "", "" ],
					"id" : "obj-14",
					"fontsize" : 9.0,
					"patching_rect" : [ 52.0, 55.0, 121.0, 17.0 ],
					"numinlets" : 1,
					"numoutlets" : 3,
					"fontname" : "Verdana"
				}

			}
, 			{
				"box" : 				{
					"maxclass" : "newobj",
					"text" : "patcherargs @mode",
					"outlettype" : [ "", "" ],
					"id" : "obj-15",
					"fontsize" : 9.0,
					"patching_rect" : [ 14.0, 29.0, 98.0, 17.0 ],
					"numinlets" : 1,
					"numoutlets" : 2,
					"fontname" : "Verdana"
				}

			}
, 			{
				"box" : 				{
					"maxclass" : "newobj",
					"text" : "gate 2 1",
					"outlettype" : [ "", "" ],
					"id" : "obj-16",
					"fontsize" : 9.0,
					"patching_rect" : [ 124.0, 130.0, 47.0, 17.0 ],
					"numinlets" : 2,
					"numoutlets" : 2,
					"fontname" : "Verdana"
				}

			}
, 			{
				"box" : 				{
					"maxclass" : "outlet",
					"id" : "obj-17",
					"patching_rect" : [ 205.0, 566.0, 15.0, 15.0 ],
					"numinlets" : 1,
					"numoutlets" : 0,
					"comment" : ""
				}

			}
, 			{
				"box" : 				{
					"maxclass" : "inlet",
					"outlettype" : [ "" ],
					"id" : "obj-18",
					"patching_rect" : [ 252.0, 29.0, 15.0, 15.0 ],
					"numinlets" : 0,
					"numoutlets" : 1,
					"comment" : ""
				}

			}
, 			{
				"box" : 				{
					"maxclass" : "newobj",
					"text" : "jit.transpose",
					"outlettype" : [ "jit_matrix", "" ],
					"id" : "obj-19",
					"fontsize" : 9.0,
					"patching_rect" : [ 161.0, 155.0, 68.0, 17.0 ],
					"numinlets" : 1,
					"numoutlets" : 2,
					"fontname" : "Verdana"
				}

			}
, 			{
				"box" : 				{
					"maxclass" : "comment",
					"text" : "Based on example by Joshua Kit Clayton on the Max list.",
					"linecount" : 2,
					"id" : "obj-20",
					"fontsize" : 9.0,
					"patching_rect" : [ 293.0, 55.0, 141.0, 28.0 ],
					"numinlets" : 1,
					"numoutlets" : 0,
					"fontname" : "Verdana"
				}

			}
, 			{
				"box" : 				{
					"maxclass" : "comment",
					"text" : "jit.scanwrap in spew mode to output a sequence of row vectors",
					"linecount" : 2,
					"id" : "obj-21",
					"fontsize" : 9.0,
					"patching_rect" : [ 290.0, 285.0, 166.0, 28.0 ],
					"numinlets" : 1,
					"numoutlets" : 0,
					"fontname" : "Verdana"
				}

			}
, 			{
				"box" : 				{
					"maxclass" : "newobj",
					"text" : "jcom.thru",
					"outlettype" : [ "jit_matrix" ],
					"id" : "obj-22",
					"fontsize" : 9.0,
					"patching_rect" : [ 258.0, 356.0, 54.0, 17.0 ],
					"numinlets" : 1,
					"numoutlets" : 1,
					"fontname" : "Verdana"
				}

			}
, 			{
				"box" : 				{
					"maxclass" : "comment",
					"text" : "for the first vector, set the right input, then for each subsequent vector operate on the left + right vectors. the result of each operation placed into the right input",
					"linecount" : 6,
					"id" : "obj-23",
					"fontsize" : 9.0,
					"patching_rect" : [ 324.0, 418.0, 136.0, 70.0 ],
					"numinlets" : 1,
					"numoutlets" : 0,
					"fontname" : "Verdana"
				}

			}
, 			{
				"box" : 				{
					"maxclass" : "newobj",
					"text" : "jit.op @op +",
					"outlettype" : [ "jit_matrix", "" ],
					"id" : "obj-24",
					"fontsize" : 9.0,
					"patching_rect" : [ 205.0, 381.0, 63.0, 17.0 ],
					"numinlets" : 2,
					"numoutlets" : 2,
					"fontname" : "Verdana"
				}

			}
, 			{
				"box" : 				{
					"maxclass" : "newobj",
					"text" : "t b l 2 reset",
					"outlettype" : [ "bang", "", "int", "reset" ],
					"id" : "obj-25",
					"fontsize" : 9.0,
					"patching_rect" : [ 161.0, 189.0, 142.0, 17.0 ],
					"numinlets" : 1,
					"numoutlets" : 4,
					"fontname" : "Verdana"
				}

			}
, 			{
				"box" : 				{
					"maxclass" : "newobj",
					"text" : "jit.scanwrap 4 float32 @mode 2 @adapt 0",
					"outlettype" : [ "jit_matrix", "" ],
					"id" : "obj-26",
					"fontsize" : 9.0,
					"patching_rect" : [ 205.0, 262.0, 199.0, 17.0 ],
					"numinlets" : 1,
					"numoutlets" : 2,
					"fontname" : "Verdana"
				}

			}
 ],
		"lines" : [ 			{
				"patchline" : 				{
					"source" : [ "obj-22", 0 ],
					"destination" : [ "obj-24", 1 ],
					"hidden" : 0
				}

			}
, 			{
				"patchline" : 				{
					"source" : [ "obj-24", 0 ],
					"destination" : [ "obj-22", 0 ],
					"hidden" : 0,
					"midpoints" : [ 214.5, 404.0, 315.0, 404.0, 315.0, 351.0, 267.5, 351.0 ]
				}

			}
, 			{
				"patchline" : 				{
					"source" : [ "obj-15", 0 ],
					"destination" : [ "obj-11", 0 ],
					"hidden" : 0
				}

			}
, 			{
				"patchline" : 				{
					"source" : [ "obj-15", 1 ],
					"destination" : [ "obj-14", 0 ],
					"hidden" : 0,
					"midpoints" : [ 102.5, 50.0, 61.5, 50.0 ]
				}

			}
, 			{
				"patchline" : 				{
					"source" : [ "obj-8", 0 ],
					"destination" : [ "obj-13", 0 ],
					"hidden" : 0
				}

			}
, 			{
				"patchline" : 				{
					"source" : [ "obj-9", 0 ],
					"destination" : [ "obj-13", 0 ],
					"hidden" : 0
				}

			}
, 			{
				"patchline" : 				{
					"source" : [ "obj-14", 0 ],
					"destination" : [ "obj-13", 0 ],
					"hidden" : 0
				}

			}
, 			{
				"patchline" : 				{
					"source" : [ "obj-11", 0 ],
					"destination" : [ "obj-10", 0 ],
					"hidden" : 0,
					"midpoints" : [ 23.5, 100.0, 61.5, 100.0 ]
				}

			}
, 			{
				"patchline" : 				{
					"source" : [ "obj-13", 0 ],
					"destination" : [ "obj-10", 0 ],
					"hidden" : 0
				}

			}
, 			{
				"patchline" : 				{
					"source" : [ "obj-12", 0 ],
					"destination" : [ "obj-10", 0 ],
					"hidden" : 0,
					"midpoints" : [ 116.5, 99.0, 61.5, 99.0 ]
				}

			}
, 			{
				"patchline" : 				{
					"source" : [ "obj-14", 1 ],
					"destination" : [ "obj-12", 0 ],
					"hidden" : 0
				}

			}
, 			{
				"patchline" : 				{
					"source" : [ "obj-10", 0 ],
					"destination" : [ "obj-16", 0 ],
					"hidden" : 0,
					"midpoints" : [ 61.5, 124.0, 133.5, 124.0 ]
				}

			}
, 			{
				"patchline" : 				{
					"source" : [ "obj-18", 0 ],
					"destination" : [ "obj-16", 1 ],
					"hidden" : 0,
					"midpoints" : [ 261.0, 95.0, 161.5, 95.0 ]
				}

			}
, 			{
				"patchline" : 				{
					"source" : [ "obj-16", 1 ],
					"destination" : [ "obj-19", 0 ],
					"hidden" : 0
				}

			}
, 			{
				"patchline" : 				{
					"source" : [ "obj-16", 0 ],
					"destination" : [ "obj-25", 0 ],
					"hidden" : 0
				}

			}
, 			{
				"patchline" : 				{
					"source" : [ "obj-19", 0 ],
					"destination" : [ "obj-25", 0 ],
					"hidden" : 0
				}

			}
, 			{
				"patchline" : 				{
					"source" : [ "obj-10", 0 ],
					"destination" : [ "obj-1", 0 ],
					"hidden" : 0,
					"midpoints" : [ 61.5, 472.0, 177.5, 472.0 ]
				}

			}
, 			{
				"patchline" : 				{
					"source" : [ "obj-25", 1 ],
					"destination" : [ "obj-7", 0 ],
					"hidden" : 0
				}

			}
, 			{
				"patchline" : 				{
					"source" : [ "obj-25", 3 ],
					"destination" : [ "obj-26", 0 ],
					"hidden" : 0,
					"midpoints" : [ 293.5, 246.0, 214.5, 246.0 ]
				}

			}
, 			{
				"patchline" : 				{
					"source" : [ "obj-7", 0 ],
					"destination" : [ "obj-26", 0 ],
					"hidden" : 0
				}

			}
, 			{
				"patchline" : 				{
					"source" : [ "obj-26", 0 ],
					"destination" : [ "obj-4", 0 ],
					"hidden" : 0
				}

			}
, 			{
				"patchline" : 				{
					"source" : [ "obj-4", 0 ],
					"destination" : [ "obj-3", 0 ],
					"hidden" : 0
				}

			}
, 			{
				"patchline" : 				{
					"source" : [ "obj-25", 2 ],
					"destination" : [ "obj-3", 0 ],
					"hidden" : 0
				}

			}
, 			{
				"patchline" : 				{
					"source" : [ "obj-3", 0 ],
					"destination" : [ "obj-24", 0 ],
					"hidden" : 0
				}

			}
, 			{
				"patchline" : 				{
					"source" : [ "obj-24", 0 ],
					"destination" : [ "obj-6", 0 ],
					"hidden" : 0
				}

			}
, 			{
				"patchline" : 				{
					"source" : [ "obj-6", 0 ],
					"destination" : [ "obj-5", 0 ],
					"hidden" : 0
				}

			}
, 			{
				"patchline" : 				{
					"source" : [ "obj-5", 0 ],
					"destination" : [ "obj-1", 1 ],
					"hidden" : 0
				}

			}
, 			{
				"patchline" : 				{
					"source" : [ "obj-1", 1 ],
					"destination" : [ "obj-2", 0 ],
					"hidden" : 0
				}

			}
, 			{
				"patchline" : 				{
					"source" : [ "obj-1", 0 ],
					"destination" : [ "obj-17", 0 ],
					"hidden" : 0,
					"midpoints" : [ 177.5, 552.0, 214.0, 552.0 ]
				}

			}
, 			{
				"patchline" : 				{
					"source" : [ "obj-2", 0 ],
					"destination" : [ "obj-17", 0 ],
					"hidden" : 0
				}

			}
, 			{
				"patchline" : 				{
					"source" : [ "obj-4", 1 ],
					"destination" : [ "obj-3", 1 ],
					"hidden" : 0
				}

			}
, 			{
				"patchline" : 				{
					"source" : [ "obj-3", 1 ],
					"destination" : [ "obj-24", 1 ],
					"hidden" : 0
				}

			}
, 			{
				"patchline" : 				{
					"source" : [ "obj-7", 1 ],
					"destination" : [ "obj-6", 1 ],
					"hidden" : 0
				}

			}
 ]
	}

}
