max v2;#N vpatcher 542 87 1029 386;#P window setfont "Sans Serif" 9.;#P window linecount 1;#P message 226 104 152 196617 name jcom.remote.module.to;#P message 76 101 64 196617 name dumbto;#P newex 61 229 166 196617 jcom.oscroute;#P newex 217 202 180 196617 sprintf %s/return_name;#P newex 139 78 180 196617 sprintf %s/return_names/dump;#P newex 61 48 246 196617 t b s s b;#P message 295 149 152 196617 name jcom.remote.module.from;#P message 61 150 59 196617 name dumb;#P newex 61 176 188 196617 jcom.receive jcom.remote.module.from;#P newex 99 126 161 196617 jcom.send jcom.remote.module.to;#P outlet 61 253 15 0;#P inlet 61 22 15 0;#P connect 6 0 4 0;#P connect 4 0 3 0;#P fasten 5 0 3 0 300 169 66 169;#P connect 3 0 9 0;#P connect 9 0 1 0;#P fasten 6 0 10 0 66 85 81 85;#P connect 10 0 2 0;#P fasten 11 0 2 0 231 122 104 122;#P fasten 7 0 2 0 144 121 104 121;#P connect 0 0 7 0;#P connect 6 1 7 0;#P connect 0 0 8 0;#P connect 6 2 8 0;#P connect 8 0 9 1;#P fasten 6 3 11 0 300 101 231 101;#P connect 6 3 5 0;#P pop;