max v2;#N vpatcher 20 74 405 443;#P window setfont "Sans Serif" 9.;#P window linecount 1;#P message 71 189 14 196617 2;#P message 56 189 14 196617 1;#P newex 71 233 47 196617 gate 2 2;#P newex 56 146 40 196617 change;#P newex 56 167 41 196617 sel 1 4;#P newex 56 124 84 196617 route planecount;#P newex 56 104 72 196617 jit.matrixinfo;#P newex 108 256 65 196617 jit.rgb2luma;#P inlet 170 42 15 0;#P outlet 71 297 15 0;#P window linecount 6;#P comment 203 108 130 196617 Check whether incoming video stream is in colour or black and white \, to avoid problems with sending a matrix with only 1 plane to jit.rgb2luma.;#P fasten 2 0 4 0 175 80 61 80;#P connect 4 0 5 0;#P connect 5 0 7 0;#P connect 7 0 6 0;#P connect 6 0 9 0;#P connect 6 1 10 0;#P connect 10 0 8 0;#P connect 9 0 8 0;#P connect 3 0 1 0;#P connect 8 0 1 0;#P fasten 2 0 8 1 175 223 113 223;#P connect 8 1 3 0;#P pop;