max v2;#N vpatcher 20 74 386 332;#P window setfont "Sans Serif" 9.;#P newex 66 29 115 196617 patcherargs @radius 1.;#P newex 171 149 94 196617 expr $f1*$f2/10.;#P newex 36 67 65 196617 route radius;#P newex 295 149 21 196617 t 1;#P newex 91 149 38 196617 t /aed;#P outlet 91 213 15 0;#P inlet 36 29 15 0;#P newex 91 178 112 196617 pack /aed 0 0. 0. 0. 1;#P newex 91 101 112 196617 unpack aed 0 0. 0. 0. 0;#P fasten 8 1 6 0 176 63 41 63;#P connect 2 0 6 0;#P connect 6 1 0 0;#P connect 0 0 4 0;#P connect 4 0 1 0;#P connect 1 0 3 0;#P connect 0 1 1 1;#P connect 0 2 1 2;#P connect 0 3 1 3;#P connect 0 4 7 0;#P connect 7 0 1 4;#P connect 0 5 1 5;#P fasten 5 0 1 5 300 173 196 173;#P fasten 6 0 7 1 41 133 260 133;#P lcolor 2;#P fasten 6 1 5 0 96 92 300 92;#P pop;