max v2;#N vpatcher 20 74 641 269;#P origin 0 36;#P outlet 565 149 15 0;#P inlet 42 37 15 0;#P outlet 42 149 15 0;#P window setfont "Sans Serif" 9.;#P window linecount 1;#P newex 195 66 383 196617 jcom.pass adapt colormode depth dim dimscale displaylist edges shape subdiv wrap;#N vpatcher 10 59 610 459;#P window setfont "Sans Serif" 9.;#P newex 50 50 199 196617 jcom.oscroute /left /upper /right /lower;#P newex 50 100 110 196617 pak texrect 0. 0. 0. 0.;#P inlet 50 30 15 0;#P outlet 50 122 15 0;#P connect 1 0 3 0;#P connect 2 0 0 0;#P connect 3 0 2 1;#P connect 3 1 2 2;#P connect 3 2 2 3;#P connect 3 3 2 4;#P pop;#P newobj 111 99 52 196617 p texrect;#N vpatcher 10 59 610 459;#P window setfont "Sans Serif" 9.;#P newex 50 50 199 196617 jcom.oscroute /left /upper /right /lower;#P newex 50 100 95 196617 pak rect 0. 0. 0. 0.;#P inlet 50 30 15 0;#P outlet 50 122 15 0;#P connect 1 0 3 0;#P connect 2 0 0 0;#P connect 3 0 2 1;#P connect 3 1 2 2;#P connect 3 2 2 3;#P connect 3 3 2 4;#P pop;#P newobj 42 99 37 196617 p rect;#P newex 42 66 149 196617 jcom.oscroute /rect /textrect;#P connect 5 0 0 0;#P connect 0 0 1 0;#P connect 1 0 4 0;#P fasten 2 0 4 0 116 132 47 132;#P fasten 3 0 4 0 200 132 47 132;#P fasten 3 1 4 0 237 132 47 132;#P fasten 3 2 4 0 274 132 47 132;#P fasten 3 3 4 0 311 132 47 132;#P fasten 3 4 4 0 348 132 47 132;#P fasten 3 5 4 0 385 132 47 132;#P fasten 3 6 4 0 422 132 47 132;#P fasten 3 7 4 0 459 132 47 132;#P fasten 3 8 4 0 496 132 47 132;#P fasten 3 9 4 0 533 132 47 132;#P connect 0 1 2 0;#P connect 0 2 3 0;#P connect 3 10 6 0;#P pop;