max v2;#N vpatcher 41 135 451 478;#P origin -9 -16;#P window setfont "Sans Serif" 9.;#P window linecount 1;#P hidden message 18 410 68 196617 surround 0 0;#P hidden message 18 393 52 196617 tailsize 0;#P hidden newex 405 383 73 196617 prepend synth;#B color 12;#P comment 321 274 65 196617 Synth;#P user radiogroup 304 271 85 16;#X size 1;#X offset 16;#X inactive 0;#X itemtype 1;#X flagmode 0;#X set 0;#X done;#P comment 203 257 80 196617 Version;#P comment 203 218 100 196617 Category;#P comment 203 180 100 196617 Product;#P window setfont "Sans Serif" 10.;#P comment 203 112 171 196618 Additional Pluggo Information;#P window setfont "Sans Serif" 9.;#P hidden newex 405 315 114 196617 substitute text product;#B color 12;#P hidden newex 405 287 111 196617 substitute text vendor;#B color 12;#P hidden newex 405 417 82 196617 prepend version;#B color 12;#P number 204 271 80 9 0 9999 3 3 0 0 0 221 221 221 222 222 222 0 0 0;#P hidden newex 405 346 88 196617 prepend category;#B color 12;#P user umenu 204 234 179 196647 1 64 250 1;#X add Unknown\, not implemented;#X add Simple Effect;#X add VST Instrument;#X add Scope\, Tuner\, etc.;#X add Dynamics;#X add Panners;#X add Delays and Reverbs;#X add Dedicated surround processor;#X add Denoiser;#X add Offline Process;#X add Container of other plug-ins;#P user textedit 204 195 383 215 32908 3 9 Product;#P user textedit 204 151 383 171 32908 3 9 Vendor;#P hidden newex 28 286 64 196617 t nohintarea;#P comment 185 14 39 196617 Create;#P button 187 29 33 0;#P user hint 187 29 220 62 "Store Program" 1000 100 0 65535 65535 52428 9 3 0 1 0 0 0;#N vpatcher 24 74 219 276;#P window setfont "Sans Serif" 9.;#P newex 54 101 81 196617 prepend infopict;#P newex 54 78 49 196617 strippath;#B color 5;#P outlet 54 147 15 0;#P inlet 54 42 15 0;#P connect 0 0 2 0;#P connect 2 0 3 0;#P connect 3 0 1 0;#P pop;#P hidden newobj 124 219 51 196617 p infopict;#P window setfont "Sans Serif" 10.;#P comment 6 110 141 196618 Additional Window Settings;#P comment 6 78 90 196618 Recall Programs;#P comment 6 5 86 196618 Store Programs;#P window setfont "Sans Serif" 9.;#P comment 18 201 127 196617 Drop infopict here;#P hidden newex 66 129 119 196617 substitute text welcome;#P user textedit 7 148 186 181 32900 3 9 Write welcome text here;#N vpatcher 24 74 624 474;#P outlet 137 180 15 0;#P inlet 137 41 15 0;#P window setfont "Sans Serif" 9.;#P window linecount 0;#P newex 137 87 55 196617 route text;#P window linecount 1;#P newex 137 108 61 196617 prepend set;#P message 137 143 180 196617 capture 1 "My Default";#P connect 3 0 2 0;#P connect 2 0 1 0;#P connect 1 0 0 0;#P connect 0 0 4 0;#P pop;#P hidden newobj 124 80 45 196617 p keeper;#P number 224 81 35 9 1 127 3 3 0 0 0 221 221 221 222 222 222 0 0 0;#P comment 260 82 113 196617 Recall Program;#P number 224 47 35 9 1 127 3 3 0 0 0 221 221 221 222 222 222 0 0 0;#P comment 261 49 113 196617 Initial Program;#N vpatcher 24 74 624 474;#P outlet 161 117 15 0;#P inlet 161 69 15 0;#P connect 0 0 1 0;#P pop;#P hidden newobj 632 231 35 196617 p thru;#P number 224 29 35 9 1 127 3 3 0 0 0 221 221 221 222 222 222 0 0 0;#P hidden newex 652 260 79 196617 print plugconfig;#P hidden outlet 632 261 15 0;#P hidden message 402 29 85 196617 numprograms \$1;#B color 1;#P hidden message 402 51 68 196617 initialpgm \$1;#B color 1;#P hidden message 402 78 50 196617 recall \$1;#B color 1;#P comment 260 30 113 196617 Number of Programs;#P user textedit 7 29 186 62 32900 3 9 capture 1 "My Default";#P user hint 7 29 186 62 "Syntax: capture 1 "My Default"" 1000 100 0 65535 65535 52428 9 3 0 1 0 0 0;#P user panel 0 73 392 28;#X brgb 213 203 196;#X frgb 113 153 137;#X border 0;#X rounded 0;#X shadow 0;#X done;#P user panel 0 0 392 69;#X brgb 213 203 196;#X frgb 113 153 137;#X border 0;#X rounded 0;#X shadow 0;#X done;#P comment 6 131 100 196617 Welcome;#P user dropfile 11 194 181 241 0;#P user panel 7 190 178 54;#X brgb 188 189 219;#X frgb 0 0 0;#X border 0;#X rounded 0;#X shadow -4;#X done;#P comment 203 136 100 196617 Vendor;#P user jsui 7 255 179 33 1 0 0 jsui_textbutton.js "No Hint Area" 0 0 0 188 189 219;#P user hint 6 253 187 289 "Have to be removed from script by hand" 300 100 0 65535 65535 52428 9 3 0 1 0 0 0;#P hidden comment 18 376 100 196617 What are these?;#P comment 10 309 248 196617 Check the plugconfig inspector for more settings.;#P user panel 197 105 195 192;#X brgb 208 209 239;#X frgb 0 0 0;#X border 0;#X rounded 0;#X shadow 0;#X done;#P background;#P user panel 0 105 193 191;#X brgb 208 209 239;#X frgb 0 0 0;#X border 0;#X rounded 0;#X shadow 0;#X done;#P background;#P hidden connect 5 0 37 0;#P hidden connect 27 0 28 0;#P hidden connect 35 0 26 0;#P hidden connect 13 0 26 0;#P hidden connect 8 0 33 0;#P hidden connect 20 0 17 0;#P lcolor 2;#P hidden connect 23 0 16 0;#P lcolor 2;#P hidden connect 25 0 15 0;#P lcolor 2;#P hidden connect 38 0 44 0;#P lcolor 13;#P hidden connect 39 0 45 0;#P lcolor 13;#P hidden connect 40 0 41 0;#P lcolor 13;#P hidden connect 50 0 52 0;#P lcolor 13;#P hidden connect 42 0 43 0;#P lcolor 13;#P hidden connect 52 0 21 0;#P lcolor 13;#P hidden connect 44 0 21 0;#P lcolor 13;#P hidden connect 45 0 21 0;#P lcolor 13;#P hidden connect 41 0 21 0;#P lcolor 13;#P hidden connect 43 0 21 0;#P lcolor 13;#P hidden connect 28 0 21 0;#P lcolor 2;#P hidden connect 37 0 21 0;#P lcolor 1;#P hidden connect 16 0 21 0;#P lcolor 2;#P hidden connect 17 0 21 0;#P lcolor 2;#P hidden connect 15 0 21 0;#P lcolor 2;#P hidden connect 26 0 21 0;#P lcolor 2;#P hidden connect 33 0 21 0;#P lcolor 1;#P hidden connect 21 0 18 0;#P hidden connect 21 0 19 0;#P pop;