max v2;#N vpatcher 10 59 884 746;#P window setfont "Sans Serif" 9.;#P window linecount 1;#P comment 40 35 152 196617 (bang) poll output namespace;#N vpatcher 20 74 720 592;#P window setfont "Sans Serif" 9.;#P newex 40 412 29 196617 gate;#P outlet 40 441 15 0;#P window linecount 1;#P newex 123 159 44 196617 zl nth 3;#P inlet 59 107 15 0;#P inlet 499 133 15 0;#P newex 108 373 40 196617 switch;#P newex 328 272 27 196617 ||;#P newex 123 272 27 196617 ||;#P newex 123 202 95 196617 jcom.equals return;#P newex 345 202 104 196617 jcom.equals message;#P newex 228 202 113 196617 jcom.equals parameter;#P window linecount 0;#P comment 104 78 430 196617 filter so that either possible input syntax is displayed \, or valid output syntax;#P connect 6 0 11 0;#P connect 11 0 10 0;#P connect 8 0 11 1;#P fasten 7 0 6 0 504 347 113 347;#P connect 8 0 9 0;#P connect 9 0 3 0;#P connect 3 0 4 0;#P connect 4 0 6 1;#P connect 5 0 6 2;#P connect 1 0 4 1;#P fasten 9 0 1 0 128 189 233 189;#P connect 1 0 5 0;#P fasten 9 0 2 0 128 189 350 189;#P connect 2 0 5 1;#P pop;#P newobj 222 398 51 196617 p IO-gate;#P newex 234 60 31 196617 t b 2;#N comlet (bang) poll input namespace;#P inlet 234 35 15 0;#P newex 194 60 31 196617 t b 1;#P newex 222 435 71 196617 prepend name;#P newex 222 584 37 196617 zl rev;#P window linecount 2;#P newex 15 515 202 196617 sel name kind current_state type range clipmode ramp repetitions description;#P window linecount 1;#P newex 222 562 67 196617 zl group 256;#P newex 222 480 25 196617 iter;#P newex 222 458 37 196617 zl rev;#P message 250 199 52 196617 sort -1 0;#P newex 194 146 150 196617 t done dump b b clear start;#P newex 322 323 72 196617 prepend store;#P newex 322 299 77 196617 zl join;#N coll ;#P newobj 222 364 53 196617 coll;#P newex 322 263 51 196617 zl slice 1;#P newex 322 230 166 196617 r jcom.remote.namespace.register;#P newex 322 209 162 196617 s jcom.remote.namespace.browse;#P window linecount 2;#P comment 257 520 148 196617 This part slice the list to parts according to symbols;#N comlet (bang) poll output namespace;#P inlet 194 35 15 0;#P outlet 222 631 15 0;#P outlet 532 631 15 0;#P window linecount 1;#P comment 253 35 152 196617 (bang) poll input namespace;#P fasten 14 0 16 0 227 506 20 506;#P connect 3 0 19 0;#P connect 19 0 11 0;#P connect 21 0 11 0;#P connect 11 1 8 0;#P fasten 11 4 8 0 311 225 227 225;#P fasten 12 0 8 0 255 225 227 225;#P connect 10 0 8 0;#P connect 8 0 22 0;#P connect 22 0 18 0;#P connect 18 0 13 0;#P connect 13 0 14 0;#P fasten 16 8 15 0 188 553 227 553;#P fasten 16 7 15 0 167 553 227 553;#P fasten 16 6 15 0 146 553 227 553;#P fasten 16 5 15 0 125 553 227 553;#P fasten 16 4 15 0 104 553 227 553;#P fasten 16 3 15 0 83 553 227 553;#P fasten 16 2 15 0 62 553 227 553;#P fasten 16 1 15 0 41 553 227 553;#P fasten 16 0 15 0 20 553 227 553;#P connect 14 0 15 0;#P connect 15 0 17 0;#P connect 17 0 2 0;#P connect 20 0 21 0;#P connect 11 2 12 0;#P fasten 19 1 22 1 220 126 600 126 600 392 268 392;#P lcolor 13;#P fasten 21 1 22 1 260 126 600 126 600 392 268 392;#P lcolor 13;#P connect 11 3 5 0;#P connect 6 0 7 0;#P connect 7 0 9 0;#P connect 9 0 10 0;#P fasten 6 0 9 1 327 254 394 254;#P fasten 11 5 1 0 339 181 537 181;#P fasten 11 0 1 0 199 186 537 186;#P pop;