max v2;#N vpatcher 459 44 804 309;#P window setfont "Sans Serif" 9.;#P window linecount 3;#P comment 178 71 131 196617 Removes similar frames \, which would otherwise lead to a blank motion image.;#P window linecount 1;#P newex 61 79 53 196617 jit.change;#P window linecount 3;#P comment 178 141 123 196617 Find Quantity of Motion as difference between two consecutive frames.;#P window linecount 1;#P newex 61 153 85 196617 jit.op @op absdiff;#P newex 61 125 27 196617 t l l;#P inlet 61 37 15 0;#P outlet 61 201 15 0;#P connect 1 0 5 0;#P connect 5 0 2 0;#P connect 2 1 3 0;#P connect 3 0 0 0;#P fasten 2 0 3 1 66 147 141 147;#P pop;