max v2;
#N vpatcher 391 249 720 515;
#P origin 18 0;
#P window setfont "Sans Serif" 9.;
#P window linecount 1;
#P newex 165 86 112 196617 prepend $1;
#P newex 165 148 75 196617 send jcom.post;
#P newex 34 86 128 196617 print $1;
#P inlet 122 44 15 0;
#P connect 0 0 1 0;
#P connect 0 0 3 0;
#P connect 3 0 2 0;
#P pop;
