max v2;
#N vpatcher 232 198 1201 860;
#P window setfont "Sans Serif" 18.;
#P window linecount 2;
#P hidden comment 449 162 277 196626 current preset automatic selection in the interface;
#P window setfont "Sans Serif" 9.;
#P window linecount 1;
#N vpatcher 14 59 205 257;
#P window setfont "Sans Serif" 9.;
#P window linecount 1;
#P message 99 118 57 196617 /degrade~;
#N vpatcher -22 309 289 574;
#P window setfont "Sans Serif" 9.;
#P newex 60 116 49 196617 deferlow;
#N vpatcher 401 99 1402 681;
#P window setfont "Sans Serif" 9.;
#P newex 93 102 40 196617 t b s b;
#P window linecount 3;
#P comment 286 196 208 196617 This stops jcom.receive from listening if we are not currently requesting the names of all modules.;
#P window linecount 1;
#P message 123 217 152 196617 name jcom.remote.module.from;
#B color 5;
#P message 93 198 170 196617 name "that deaf dumb and blind kid";
#B color 5;
#P newex 51 469 50 196617 t cr l tab;
#P newex 51 437 113 196617 zl join;
#P newex 113 369 51 196617 zl slice 1;
#P newex 51 409 72 196617 sprintf %s%s;
#P newex 93 340 27 196617 t b l;
#P newex 612 159 35 196617 t cr s;
#P newex 93 50 40 196617 t s s s;
#P newex 51 376 36 196617 zl reg;
#P newex 93 312 160 196617 jcom.oscroute /parameter_value;
#P newex 637 184 89 196617 prepend # Module;
#P newex 93 243 206 196617 jcom.receive "that deaf dumb and blind kid";
#B color 5;
#P newex 93 283 90 196617 jcom.oscroute /*;
#P window linecount 2;
#P newex 108 154 112 196617 jcom.send jcom.remote.module.to;
#B color 5;
#P window linecount 1;
#P newex 108 128 175 196617 sprintf %s/parameter_values/dump;
#P inlet 93 30 15 0;
#P outlet 51 529 15 0;
#P window linecount 0;
#P comment 625 126 184 196617 This part introduce a comment to mark the beginning of a new module;
#P connect 12 0 9 0;
#P connect 9 0 13 0;
#P connect 13 0 15 0;
#P connect 15 0 16 0;
#P fasten 7 0 1 0 642 513 56 513;
#P fasten 11 0 1 0 617 513 56 513;
#P fasten 16 2 1 0 96 507 56 507;
#P fasten 16 1 1 0 76 507 56 507;
#P fasten 16 0 1 0 56 507 56 507;
#P fasten 10 1 9 1 113 85 82 85;
#P connect 2 0 10 0;
#P connect 10 0 20 0;
#P connect 20 0 17 0;
#P connect 17 0 6 0;
#P connect 18 0 6 0;
#P connect 6 0 5 0;
#P connect 5 0 8 0;
#P connect 8 0 12 0;
#P connect 20 1 3 0;
#P connect 3 0 4 0;
#P connect 12 1 14 0;
#P connect 14 0 13 1;
#P connect 20 2 18 0;
#P connect 14 1 15 1;
#P fasten 10 2 11 0 128 84 617 84;
#P connect 11 1 7 0;
#P pop;
#P newobj 141 145 120 196617 p get_parameter_values;
#P newex 60 72 71 196617 t open s clear;
#P newex 60 198 40 196617 text;
#P inlet 60 28 14 0;
#P connect 0 0 2 0;
#P connect 2 0 4 0;
#P fasten 2 2 1 0 125 142 65 142;
#P connect 3 0 1 0;
#P connect 4 0 1 0;
#P connect 2 1 3 0;
#P pop;
#P newobj 40 143 61 196617 p get_state;
#P window linecount 0;
#P newex 40 117 50 196617 tosymbol;
#P newex 40 53 88 196617 t b b;
#P inlet 100 28 15 0;
#P newex 40 94 50 196617 zl reg;
#P inlet 80 75 15 0;
#P fasten 2 0 3 0 105 48 45 48;
#P connect 3 0 1 0;
#P connect 1 0 4 0;
#P connect 6 0 5 0;
#P connect 4 0 5 0;
#P connect 0 0 1 1;
#P pop;
#P hidden newobj 316 460 79 196617 p current_state;
#P hidden newex 723 469 50 196617 loadbang;
#P window linecount 2;
#N vpatcher 500 300 637 335;
#P origin -272 -179;
#P window setfont "Sans Serif" 9.;
#P hidden newex 5 -20 50 196617 t select;
#P window linecount 1;
#P comment 4 2 130 196617 type a name for the preset;
#B frgb 181 181 181;
#P window linecount 0;
#P hidden newex 47 124 50 196617 deferlow;
#P message 16 50 76 196617 nogrow \, etc....;
#N thispatcher;
#Q end;
#P hidden newobj 60 97 61 196617 thispatcher;
#N vpatcher 587 236 1071 402;
#P window setfont "Sans Serif" 9.;
#P newex 80 29 50 196617 loadbang;
#P button 62 29 15 0;
#P inlet 45 29 15 0;
#P inlet 24 29 15 0;
#P outlet 24 99 15 0;
#P message 45 71 406 196617 window size 500 300 637 335 \, window flags nogrow \, window flags float \, window exec;
#P message 24 49 260 196617 window flags grow \, window flags nofloat \, window exec;
#P connect 3 0 0 0;
#P connect 1 0 2 0;
#P connect 0 0 2 0;
#P connect 5 0 1 0;
#P connect 6 0 5 0;
#P connect 4 0 5 0;
#P pop;
#P hidden newobj 59 77 50 196617 p grow;
#P hidden button -5 16 15 0;
#P hidden newex 76 155 88 196617 bgcolor 70 70 70;
#P window linecount 1;
#N vpatcher 656 69 860 268;
#P origin -21 0;
#P outlet 20 150 15 0;
#P window setfont "Sans Serif" 9.;
#P newex 20 119 146 196617 sprintf /preset/storenext %s;
#P newex 20 71 46 196617 sel bang;
#P newex 20 50 56 196617 route text;
#P newex 20 96 50 196617 tosymbol;
#P inlet 20 22 15 0;
#P connect 0 0 2 0;
#P connect 2 0 3 0;
#P connect 3 1 1 0;
#P connect 1 0 4 0;
#P connect 4 0 5 0;
#P pop;
#P hidden newobj 4 72 44 196617 p store;
#P user textedit 4 15 129 32 98318 3 9;
#P hidden newex 4 99 53 196617 t b l;
#P hidden newex 4 123 40 196617 t close;
#P hidden outlet 47 159 16 0;
#P hidden outlet 4 158 15 0;
#P hidden inlet 5 -44 15 0;
#P window linecount 0;
#P comment -1 36 100 196617 ^ grow \, etc...;
#P hidden connect 15 0 6 0;
#P hidden connect 6 0 7 0;
#P hidden fasten 7 0 5 0 9 94 9 94;
#P hidden connect 5 0 4 0;
#P hidden connect 4 0 2 0;
#P hidden connect 1 0 15 0;
#P hidden connect 5 1 13 0;
#P hidden connect 13 0 3 0;
#P hidden connect 9 0 10 0;
#P hidden connect 10 0 11 0;
#P hidden connect 12 0 10 1;
#P pop;
#P hidden newobj 571 518 81 196617 p preset_interface;
#P window linecount 1;
#P hidden newex 571 473 50 196617 t open;
#P hidden newex 571 495 50 196617 pcontrol;
#P window linecount 2;
#N vpatcher 500 300 757 345;
#P origin -182 -103;
#P window setfont "Sans Serif" 9.;
#P hidden newex 164 -15 50 196617 t select;
#P hidden newex -22 127 50 196617 deferlow;
#P message 178 59 76 196617 nogrow \, etc....;
#N thispatcher;
#Q end;
#P hidden newobj 177 100 61 196617 thispatcher;
#N vpatcher 587 236 1071 402;
#P window setfont "Sans Serif" 9.;
#P newex 80 29 50 196617 loadbang;
#P button 62 29 15 0;
#P inlet 45 29 15 0;
#P inlet 24 29 15 0;
#P outlet 24 99 15 0;
#P message 45 71 406 196617 window size 500 300 757 345 \, window flags nogrow \, window flags float \, window exec;
#P message 24 49 260 196617 window flags grow \, window flags nofloat \, window exec;
#P connect 3 0 0 0;
#P connect 0 0 2 0;
#P connect 1 0 2 0;
#P connect 5 0 1 0;
#P connect 4 0 5 0;
#P connect 6 0 5 0;
#P pop;
#P hidden newobj 176 80 50 196617 p grow;
#P hidden button 140 24 15 0;
#P hidden newex 71 120 88 196617 bgcolor 70 70 70;
#P window linecount 1;
#N vpatcher 656 69 904 352;
#P origin -21 0;
#P window setfont "Sans Serif" 9.;
#P window linecount 2;
#P newex 0 196 77 196617 prepend /preset/store;
#P window linecount 1;
#P newex 0 172 36 196617 i;
#P inlet 0 148 15 0;
#P outlet 82 231 15 0;
#P window linecount 0;
#P newex 82 200 146 196617 sprintf /preset/store %ld %s;
#P newex 82 175 36 196617 i;
#P newex 131 65 46 196617 sel bang;
#P newex 131 44 56 196617 route text;
#P newex 131 90 50 196617 tosymbol;
#P newex 82 128 146 196617 t b s;
#P inlet 131 16 15 0;
#P inlet 108 151 15 0;
#P connect 9 0 10 0;
#P connect 10 0 11 0;
#P connect 0 0 10 1;
#P connect 3 0 2 0;
#P connect 2 0 6 0;
#P connect 6 0 7 0;
#P fasten 11 0 8 0 5 228 87 228;
#P connect 7 0 8 0;
#P connect 0 0 6 1;
#P connect 1 0 4 0;
#P connect 4 0 5 0;
#P connect 5 1 3 0;
#P connect 2 1 7 1;
#P pop;
#P hidden newobj 81 78 44 196617 p store;
#P user textedit 162 4 254 21 98318 3 9;
#P button 146 5 15 0;
#P number 112 5 35 9 0 0 0 3 0 0 0 221 221 221 222 222 222 0 0 0;
#P window linecount 0;
#N vpatcher 14 59 262 342;
#P window setfont "Sans Serif" 9.;
#P window linecount 1;
#P newex 10 189 50 196617 tosymbol;
#P outlet 10 237 15 0;
#P newex 10 212 138 196617 sprintf /preset/copy %s %s;
#P newex 10 169 36 196617 zl reg;
#P newex 59 59 46 196617 sel bang;
#P newex 59 38 56 196617 route text;
#P newex 59 84 50 196617 tosymbol;
#P window linecount 0;
#P newex 10 122 138 196617 t b s;
#P inlet 59 10 15 0;
#P inlet 36 145 15 0;
#P connect 3 0 2 0;
#P connect 2 0 6 0;
#P connect 6 0 9 0;
#P connect 9 0 7 0;
#P connect 7 0 8 0;
#P connect 0 0 6 1;
#P connect 1 0 4 0;
#P connect 4 0 5 0;
#P connect 5 1 3 0;
#P connect 2 1 7 1;
#P pop;
#P hidden newobj 128 79 44 196617 p copy;
#P user textedit 162 23 254 40 98318 3 9;
#P hidden button -11 24 15 0;
#P message 4 24 34 196617 copy :;
#P user umenu 38 23 100 196647 1 64 39 1;
#X add truc;
#X add machin;
#P window linecount 1;
#P hidden newex 38 -38 78 196617 prepend append;
#P hidden newex 141 -38 40 196617 t clear;
#P window linecount 0;
#P hidden newex 38 -58 216 196617 route menu_presets_add menu_presets_clear;
#P hidden inlet 38 -82 15 0;
#P window linecount 1;
#P hidden newex -65 104 53 196617 t b l;
#P hidden newex -65 128 40 196617 t close;
#P hidden outlet -22 164 16 0;
#P hidden outlet -65 163 15 0;
#P hidden inlet -90 163 15 0;
#P window linecount 0;
#P comment 138 25 24 196617 to :;
#B frgb 190 190 190;
#P comment 2 6 117 196617 store current state as :;
#B frgb 181 181 181;
#P comment 144 43 100 196617 ^ grow \, etc...;
#P hidden fasten 16 0 7 0 133 100 -60 100;
#P hidden fasten 20 0 7 0 86 99 -60 99;
#P hidden connect 7 0 6 0;
#P hidden connect 6 0 4 0;
#P hidden connect 7 1 26 0;
#P hidden connect 26 0 5 0;
#P hidden connect 13 0 14 0;
#P hidden connect 8 0 9 0;
#P hidden connect 9 0 11 0;
#P hidden fasten 10 0 12 0 146 -18 43 -18;
#P hidden connect 11 0 12 0;
#P hidden connect 18 0 20 0;
#P hidden connect 17 0 20 1;
#P hidden connect 19 0 20 2;
#P hidden connect 12 1 16 0;
#P hidden connect 9 1 10 0;
#P hidden connect 27 0 19 0;
#P hidden connect 14 0 15 0;
#P hidden connect 15 0 16 1;
#P hidden connect 17 1 27 0;
#P hidden connect 22 0 23 0;
#P hidden connect 23 0 24 0;
#P hidden connect 25 0 23 1;
#P pop;
#P hidden newobj 478 522 81 196617 p preset_interface;
#P window linecount 1;
#P hidden newex 478 477 50 196617 t open;
#P hidden newex 478 500 50 196617 pcontrol;
#P hidden newex 385 426 290 196617 jcom.oscroute /getstate /preset/interface /preset/storenext;
#P hidden newex 87 399 22 196617 b 1;
#P user umenu 15 1 72 196647 1 64 17 1;
#P objectname param_reference;
#P hidden newex 723 496 21 196617 t 1;
#N vpatcher 236 402 836 802;
#P toggle 23 53 15 0;
#P inlet 23 33 15 0;
#P window setfont "Sans Serif" 9.;
#P window linecount 1;
#P newex 346 107 29 196617 gate;
#P newex 213 133 29 196617 gate;
#P newex 153 142 29 196617 gate;
#P newex 90 126 29 196617 gate;
#P window linecount 0;
#P newex 23 144 29 196617 gate;
#P window linecount 1;
#P newex 180 194 140 196617 print $0_to_remote__GUI__;
#B color 14;
#P newex 52 258 142 196617 print $0_from_syntax_menu;
#B color 14;
#P newex 105 213 153 196617 print $0_from_remote__GUI__;
#B color 14;
#P newex 237 166 212 196617 print $0_#1_FROM_GUI_VIDEO_COMPONENT;
#B color 14;
#P newex 368 139 214 196617 print $0_#1_FROM_GUI_AUDIO_COMPONENT;
#B color 14;
#P inlet 50 106 15 0;
#P inlet 115 83 15 0;
#P inlet 180 111 15 0;
#P inlet 237 110 15 0;
#P inlet 368 83 15 0;
#P window linecount 0;
#P comment 40 53 100 196617 turn on debug messages;
#P connect 16 0 17 0;
#P connect 17 0 11 0;
#P connect 5 0 11 1;
#P connect 11 0 9 0;
#P connect 17 0 12 0;
#P connect 12 0 8 0;
#P connect 4 0 12 1;
#P connect 17 0 13 0;
#P connect 3 0 13 1;
#P connect 13 0 10 0;
#P connect 17 0 14 0;
#P connect 2 0 14 1;
#P connect 14 0 7 0;
#P connect 17 0 15 0;
#P connect 1 0 15 1;
#P connect 15 0 6 0;
#P pop;
#P hidden newobj 723 551 84 196617 p debug_printing;
#N vpatcher 10 59 855 848;
#P outlet 472 710 15 0;
#P window setfont "Sans Serif" 9.;
#P window linecount 1;
#P newex 229 612 91 196617 prepend ui_freeze;
#P objectname audio_meter_freeze_prepend;
#P window linecount 2;
#P newex 34 301 400 196617 jcom.message preset/post @type msg_none @description "Post all presets to the Max window.";
#B color 5;
#P window linecount 0;
#P newex 34 653 400 196617 jcom.message ui/refresh @type msg_none @description "Update displayed values for module to reflect current state.";
#B color 5;
#P newex 34 568 400 196617 jcom.parameter ui/freeze @type msg_toggle @range 0 1 @repetitions 0 @description "Turn off the updating of user interface elements when parameters change.  This may be done to conserve CPU resources.";
#B color 5;
#P objectname ui/freeze;
#P window linecount 1;
#P comment 34 125 100 196617 /module;
#P window linecount 0;
#P newex 34 144 400 196617 jcom.message module/view_internals @type msg_none @description "Attempts to open the internal algorithm for viewing.  This works for most modules.  Some modules may choose to cloak the algorithms - preventing this message from functioning.";
#B color 5;
#P window linecount 2;
#P newex 34 260 400 196617 jcom.message preset/default @type msg_none @description "Open the default preset file and recall the first preset in that file.";
#B color 5;
#P newex 34 479 400 196617 jcom.message preset/write @type msg_symbol @description "Write an xml-preset file to disk.  An optional argument defines the file to open.";
#B color 5;
#P newex 34 342 396 196617 jcom.message preset/read @type msg_symbol @description "Open an xml-preset file and recall the first preset in that file.  An optional argument defines the file to open.";
#B color 5;
#P newex 34 383 400 196617 jcom.message preset/recall @type msg_float @description "Recall a preset by number - you can also choose presets from the module menu.";
#B color 5;
#P window linecount 0;
#P newex 34 424 400 196617 jcom.message preset/store @type msg_int @description "Store a preset by number in memory.  All presets present in memory will be written to disk when you send a save_settings message to the module.";
#B color 5;
#P comment 36 38 368 196617 Some of these messages (marked as yellow) are handled internally by jcom.hub \, and the message will never be forwarded to jcom.message.;
#P comment 35 72 370 196617 In those cases the jcom.message instance only serves documentation purposes (HTML auto-generation and OSC namespace browsing).;
#P comment 35 240 100 196617 /preset;
#P comment 35 543 100 196617 /ui;
#P connect 11 1 14 0;
#P fasten 14 0 15 0 234 634 477 634;
#P pop;
#P hidden newobj 611 316 107 196617 p module&presets&ui;
#P objectname module&presets&ui;
#P window linecount 2;
#N vpatcher 10 59 527 627;
#P window setfont "Sans Serif" 9.;
#P window linecount 2;
#P newex 35 452 282 196617 jcom.message documentation/generate @type msg_none @description "Generate html documentation for the module.";
#B color 5;
#P inlet 337 27 15 0;
#P window linecount 0;
#P newex 337 255 80 196617 prepend symbol;
#P newex 176 313 36 196617 zl reg;
#P newex 176 292 20 196617 t b;
#P newex 151 83 20 196617 t b;
#P newex 151 104 36 196617 zl reg;
#P window linecount 1;
#P newex 151 125 64 196617 prepend help;
#P newex 151 146 45 196617 pcontrol;
#P window linecount 2;
#P message 176 334 81 196617 \; max htmlref \$1;
#P window linecount 0;
#P newex 35 255 292 196617 jcom.message documentation/html @type msg_none @description "Open the online html reference for this module.";
#P newex 35 44 242 196617 jcom.message documentation/help @type msg_none @description "Open the help patch for the module.";
#P comment 35 423 202 196617 This one is handled internally by jcom.hub. It is only here for documentation purposes.;
#P connect 1 1 7 0;
#P connect 7 0 6 0;
#P connect 6 0 5 0;
#P connect 5 0 4 0;
#P connect 2 1 8 0;
#P connect 8 0 9 0;
#P connect 9 0 3 0;
#P fasten 11 0 6 1 342 86 182 86;
#P fasten 10 0 9 1 342 300 207 300;
#P connect 11 0 10 0;
#P pop;
#P hidden newobj 611 277 101 196617 p view_documentation;
#P window linecount 1;
#P hidden newex 223 438 104 196617 route MODULE_TITLE;
#P hidden newex 341 150 58 196617 r jcom.init;
#P hidden newex 155 205 109 196617 jcom.remote __GUI__;
#P hidden newex 666 360 184 196617 r $0__FROM_GUI_AUDIO_COMPONENT;
#P window linecount 2;
#P hidden newex 522 7 341 196617 jcom.message open_inspector @description "Open this module's inspector window to gain access to additional information or parameters.";
#P objectname inspector_message;
#P window linecount 1;
#P hidden message 383 194 53 196617 jcom_init;
#P hidden newex 652 340 182 196617 r $0__FROM_GUI_VIDEO_COMPONENT;
#P window linecount 2;
#P hidden newex 326 271 43 196617 prepend append;
#P window linecount 1;
#P hidden newex 383 277 50 196617 tosymbol;
#P window linecount 2;
#P hidden newex 497 277 56 196617 t menu_build;
#P hidden newex 383 300 99 196617 prepend menu_presets_add;
#P hidden newex 440 337 98 196617 t menu_presets_clear;
#P window linecount 1;
#P hidden message 87 422 32 196617 clear;
#P hidden newex 341 172 50 196617 jcom.init;
#P hidden newex 269 311 22 196617 b 1;
#N thispatcher;
#Q end;
#P hidden newobj 269 413 60 196617 thispatcher;
#P hidden newex 269 392 128 196617 js jcom.gui.constructor.js;
#P window linecount 2;
#P hidden newex 155 233 527 196617 route x ATTRIBUTES BUILD PARAMETER NEW_PRESETS NEW_PRESETS_START MENU_REBUILD UI_FREEZE MODULE_NAME;
#P window linecount 1;
#P hidden newex 223 460 90 196617 prepend setitem 0;
#P window linecount 3;
#P hidden comment 216 93 404 196617 this first half of the inlets/outlets are the raw unprocessed signal(s) \, the second half are the processed signal(s). The connections are scripted into existence when the number of channels is received from the module hub.;
#P user umenu 0 1 15 196647 1 64 17 1;
#X add "Defeat Signal Meters";
#X add "Clear Signal Meters";
#X add -;
#X add "Load Settings...";
#X add "Save Settings...";
#X add "Restore Default Settings";
#X add -;
#X add "Open Online Reference";
#X add "View Internal Components";
#P objectname menu;
#P window linecount 2;
#P hidden comment 746 491 128 196617 Connect a loadbang here to enable debug posts.;
#P user umenu 11 2 226 196644 3 64 18 0;
#X setrgb 165 165 165 221 221 221 255 255 255 221 221 221 170 170 170 119 119 119 187 187 187;
#X add jamoma;
#P bpatcher 385 2 123 16 0 -190 jcom.gui.audio-component.mxt 0 $0_;
#P objectname controls;
#P user pictctrl 496 3 11 11 jcom.button.info.pct 0 0 1 0 27 0 0 0 11 11 128 0 1 10 2 1 1 270;
#P objectname inspector_button;
#P bpatcher 450 1 60 59 0 0 jcom.gui.video-component.mxt 0 $0_;
#P objectname pwindow;
#P user pictctrl 0 0 510 60 jcom.bg.j4.video.1U.pct 0 0 1 2 24 0 0 0 510 60 2 0 0 1 1 1 1 270;
#P noclick;
#P objectname background;
#P hidden connect 10 1 0 0;
#P lcolor 7;
#P hidden connect 10 3 6 0;
#P lcolor 7;
#P hidden connect 8 0 4 0;
#P lcolor 7;
#P hidden connect 19 0 31 0;
#P lcolor 7;
#P hidden connect 14 0 31 0;
#P lcolor 7;
#P hidden connect 9 1 32 0;
#P hidden connect 32 0 14 0;
#P hidden fasten 39 1 24 0 647 571 143 571 143 195 160 195;
#P lcolor 7;
#P hidden fasten 36 1 24 0 554 571 143 571 143 195 160 195;
#P lcolor 7;
#P hidden fasten 33 3 24 0 669 571 143 571 143 195 160 195;
#P hidden connect 24 0 9 0;
#P hidden fasten 9 1 26 0 217 434 228 434;
#P hidden connect 26 0 8 0;
#P hidden connect 9 2 12 0;
#P hidden fasten 20 0 10 0 657 385 274 385;
#P hidden fasten 16 0 10 0 388 385 274 385;
#P hidden connect 12 0 10 0;
#P hidden fasten 28 0 10 0 616 385 274 385;
#P hidden connect 6 0 10 0;
#P hidden fasten 17 0 10 0 502 385 274 385;
#P hidden connect 21 0 10 0;
#P hidden fasten 9 7 10 0 559 385 274 385;
#P hidden fasten 9 1 10 0 217 381 274 381;
#P hidden fasten 23 0 10 0 671 385 274 385;
#P hidden fasten 15 0 10 0 445 385 274 385;
#P hidden connect 10 0 11 0;
#P hidden fasten 26 0 41 0 228 457 321 457;
#P hidden connect 9 3 19 0;
#P hidden connect 25 0 13 0;
#P hidden fasten 13 0 21 0 346 191 388 191;
#P hidden connect 9 4 18 0;
#P hidden connect 18 0 16 0;
#P hidden connect 10 4 33 0;
#P hidden connect 33 0 41 1;
#P hidden connect 9 5 15 0;
#P hidden connect 33 1 35 0;
#P hidden connect 35 0 34 0;
#P hidden connect 36 0 34 0;
#P hidden connect 34 0 36 0;
#P hidden connect 33 1 36 0;
#P hidden connect 22 0 2 0;
#P hidden connect 9 6 17 0;
#P hidden connect 2 0 22 0;
#P hidden connect 15 0 36 1;
#P hidden connect 16 0 36 1;
#P hidden connect 33 2 38 0;
#P hidden connect 39 0 37 0;
#P hidden connect 38 0 37 0;
#P hidden connect 33 2 39 0;
#P hidden connect 37 0 39 0;
#P hidden connect 9 8 27 0;
#P hidden connect 30 0 29 0;
#P hidden connect 4 0 29 1;
#P hidden connect 24 0 29 2;
#P hidden connect 33 2 29 3;
#P hidden connect 36 1 29 3;
#P hidden connect 39 1 29 3;
#P hidden connect 20 0 29 4;
#P hidden connect 23 0 29 5;
#P pop;
