max v2;#N vpatcher 368 218 626 519;#N comlet Oblique strategies;#P outlet 101 231 15 0;#P window setfont "Sans Serif" 9.;#P window linecount 1;#P newex 60 202 51 196617 zl slice 1;#P message 148 110 36 196617 query;#P newex 60 174 51 196617 route set;#P button 60 56 15 0;#P message 60 110 41 196617 line \$1;#P message 111 110 30 196617 read;#P newex 60 146 64 196617 text eno.txt;#P newex 60 76 64 196617 random 467;#N comlet Bang in;#P inlet 60 36 15 0;#P connect 0 0 5 0;#P connect 5 0 1 0;#P connect 1 0 4 0;#P fasten 7 0 2 0 153 135 65 135;#P connect 4 0 2 0;#P fasten 3 0 2 0 116 135 65 135;#P connect 2 0 6 0;#P connect 6 0 8 0;#P connect 8 1 9 0;#P pop;