{
	"patcher" : 	{
		"rect" : [ 737.0, 251.0, 489.0, 500.0 ],
		"bgcolor" : [ 1.0, 1.0, 1.0, 1.0 ],
		"bglocked" : 0,
		"defrect" : [ 737.0, 251.0, 489.0, 500.0 ],
		"openinpresentation" : 0,
		"default_fontsize" : 10.0,
		"default_fontface" : 0,
		"default_fontname" : "Verdana",
		"gridonopen" : 0,
		"gridsize" : [ 5.0, 5.0 ],
		"gridsnaponopen" : 0,
		"toolbarvisible" : 1,
		"boxfadetime" : 200,
		"boxanimatetime" : 200,
		"scrollanimatetime" : 200,
		"metadata" : [  ],
		"boxes" : [ 			{
				"box" : 				{
					"maxclass" : "comment",
					"text" : "Alexander Refsum Jensenius - www.arj.no",
					"id" : "obj-1",
					"fontsize" : 9.0,
					"patching_rect" : [ 205.0, 426.0, 204.0, 17.0 ],
					"numinlets" : 1,
					"numoutlets" : 0,
					"fontname" : "Verdana"
				}

			}
, 			{
				"box" : 				{
					"maxclass" : "outlet",
					"id" : "obj-2",
					"patching_rect" : [ 153.0, 411.0, 15.0, 15.0 ],
					"numinlets" : 1,
					"numoutlets" : 0,
					"comment" : "Mouse-click"
				}

			}
, 			{
				"box" : 				{
					"maxclass" : "message",
					"text" : "$3",
					"outlettype" : [ "" ],
					"id" : "obj-3",
					"fontsize" : 9.0,
					"patching_rect" : [ 153.0, 390.0, 20.0, 15.0 ],
					"numinlets" : 2,
					"numoutlets" : 1,
					"fontname" : "Verdana"
				}

			}
, 			{
				"box" : 				{
					"maxclass" : "outlet",
					"id" : "obj-4",
					"patching_rect" : [ 107.0, 409.0, 15.0, 15.0 ],
					"numinlets" : 1,
					"numoutlets" : 0,
					"comment" : ""
				}

			}
, 			{
				"box" : 				{
					"maxclass" : "inlet",
					"outlettype" : [ "" ],
					"id" : "obj-5",
					"patching_rect" : [ 107.0, 30.0, 15.0, 15.0 ],
					"numinlets" : 0,
					"numoutlets" : 1,
					"comment" : ""
				}

			}
, 			{
				"box" : 				{
					"maxclass" : "comment",
					"text" : "Routing values only when mouse is clicked.",
					"linecount" : 3,
					"id" : "obj-6",
					"fontsize" : 9.0,
					"patching_rect" : [ 17.0, 168.0, 84.0, 38.0 ],
					"numinlets" : 1,
					"numoutlets" : 0,
					"fontname" : "Verdana"
				}

			}
, 			{
				"box" : 				{
					"maxclass" : "newobj",
					"text" : "pack 0 0 0 0 0 0 0",
					"outlettype" : [ "" ],
					"id" : "obj-7",
					"fontsize" : 9.0,
					"patching_rect" : [ 107.0, 334.0, 263.0, 17.0 ],
					"numinlets" : 7,
					"numoutlets" : 1,
					"fontname" : "Verdana"
				}

			}
, 			{
				"box" : 				{
					"maxclass" : "newobj",
					"text" : "route 1",
					"outlettype" : [ "", "" ],
					"id" : "obj-8",
					"fontsize" : 9.0,
					"patching_rect" : [ 107.0, 187.0, 42.0, 17.0 ],
					"numinlets" : 1,
					"numoutlets" : 2,
					"fontname" : "Verdana"
				}

			}
, 			{
				"box" : 				{
					"maxclass" : "message",
					"text" : "$2 $1",
					"outlettype" : [ "" ],
					"id" : "obj-9",
					"fontsize" : 9.0,
					"patching_rect" : [ 107.0, 169.0, 35.0, 15.0 ],
					"numinlets" : 2,
					"numoutlets" : 1,
					"fontname" : "Verdana"
				}

			}
, 			{
				"box" : 				{
					"maxclass" : "newobj",
					"text" : "listfunnel",
					"outlettype" : [ "list" ],
					"id" : "obj-10",
					"fontsize" : 9.0,
					"patching_rect" : [ 107.0, 143.0, 51.0, 17.0 ],
					"numinlets" : 1,
					"numoutlets" : 1,
					"fontname" : "Verdana"
				}

			}
, 			{
				"box" : 				{
					"maxclass" : "comment",
					"text" : "start x\/y position, end x\/y position, difference in x\/y position",
					"id" : "obj-11",
					"fontsize" : 9.0,
					"patching_rect" : [ 115.0, 360.0, 301.0, 17.0 ],
					"numinlets" : 1,
					"numoutlets" : 0,
					"fontname" : "Verdana"
				}

			}
, 			{
				"box" : 				{
					"maxclass" : "newobj",
					"text" : "buddy 3",
					"outlettype" : [ "", "", "" ],
					"id" : "obj-12",
					"fontsize" : 9.0,
					"patching_rect" : [ 177.0, 115.0, 150.0, 17.0 ],
					"numinlets" : 3,
					"numoutlets" : 3,
					"fontname" : "Verdana"
				}

			}
, 			{
				"box" : 				{
					"maxclass" : "comment",
					"text" : "The initial position of the cursor is selected on mouse-down, and subsequent positions are subtracted.",
					"linecount" : 5,
					"id" : "obj-13",
					"fontsize" : 9.0,
					"patching_rect" : [ 346.0, 158.0, 113.0, 59.0 ],
					"numinlets" : 1,
					"numoutlets" : 0,
					"fontname" : "Verdana"
				}

			}
, 			{
				"box" : 				{
					"maxclass" : "newobj",
					"text" : "-",
					"outlettype" : [ "int" ],
					"id" : "obj-14",
					"fontsize" : 9.0,
					"patching_rect" : [ 359.0, 312.0, 27.0, 17.0 ],
					"numinlets" : 2,
					"numoutlets" : 1,
					"fontname" : "Verdana"
				}

			}
, 			{
				"box" : 				{
					"maxclass" : "newobj",
					"text" : "-",
					"outlettype" : [ "int" ],
					"id" : "obj-15",
					"fontsize" : 9.0,
					"patching_rect" : [ 317.0, 312.0, 27.0, 17.0 ],
					"numinlets" : 2,
					"numoutlets" : 1,
					"fontname" : "Verdana"
				}

			}
, 			{
				"box" : 				{
					"maxclass" : "newobj",
					"text" : "change",
					"outlettype" : [ "", "int", "int" ],
					"id" : "obj-16",
					"fontsize" : 9.0,
					"patching_rect" : [ 177.0, 136.0, 40.0, 17.0 ],
					"numinlets" : 1,
					"numoutlets" : 3,
					"fontname" : "Verdana"
				}

			}
, 			{
				"box" : 				{
					"maxclass" : "newobj",
					"text" : "sel 1 0",
					"outlettype" : [ "bang", "bang", "" ],
					"id" : "obj-17",
					"fontsize" : 9.0,
					"patching_rect" : [ 177.0, 157.0, 40.0, 17.0 ],
					"numinlets" : 1,
					"numoutlets" : 3,
					"fontname" : "Verdana"
				}

			}
, 			{
				"box" : 				{
					"maxclass" : "newobj",
					"text" : "int",
					"outlettype" : [ "int" ],
					"id" : "obj-18",
					"fontsize" : 9.0,
					"patching_rect" : [ 206.0, 205.0, 27.0, 17.0 ],
					"numinlets" : 2,
					"numoutlets" : 1,
					"fontname" : "Verdana"
				}

			}
, 			{
				"box" : 				{
					"maxclass" : "newobj",
					"text" : "int",
					"outlettype" : [ "int" ],
					"id" : "obj-19",
					"fontsize" : 9.0,
					"patching_rect" : [ 177.0, 205.0, 27.0, 17.0 ],
					"numinlets" : 2,
					"numoutlets" : 1,
					"fontname" : "Verdana"
				}

			}
, 			{
				"box" : 				{
					"maxclass" : "newobj",
					"text" : "unpack 0 0 0",
					"outlettype" : [ "int", "int", "int" ],
					"id" : "obj-20",
					"fontsize" : 9.0,
					"patching_rect" : [ 176.0, 81.0, 98.0, 17.0 ],
					"numinlets" : 1,
					"numoutlets" : 3,
					"fontname" : "Verdana"
				}

			}
, 			{
				"box" : 				{
					"maxclass" : "newobj",
					"text" : "route mouse mouseidle",
					"outlettype" : [ "", "", "" ],
					"id" : "obj-21",
					"fontsize" : 9.0,
					"patching_rect" : [ 107.0, 56.0, 110.0, 17.0 ],
					"numinlets" : 1,
					"numoutlets" : 3,
					"fontname" : "Verdana"
				}

			}
 ],
		"lines" : [ 			{
				"patchline" : 				{
					"source" : [ "obj-5", 0 ],
					"destination" : [ "obj-21", 0 ],
					"hidden" : 0
				}

			}
, 			{
				"patchline" : 				{
					"source" : [ "obj-21", 0 ],
					"destination" : [ "obj-10", 0 ],
					"hidden" : 0
				}

			}
, 			{
				"patchline" : 				{
					"source" : [ "obj-10", 0 ],
					"destination" : [ "obj-9", 0 ],
					"hidden" : 0
				}

			}
, 			{
				"patchline" : 				{
					"source" : [ "obj-9", 0 ],
					"destination" : [ "obj-8", 0 ],
					"hidden" : 0
				}

			}
, 			{
				"patchline" : 				{
					"source" : [ "obj-8", 0 ],
					"destination" : [ "obj-7", 0 ],
					"hidden" : 0
				}

			}
, 			{
				"patchline" : 				{
					"source" : [ "obj-7", 0 ],
					"destination" : [ "obj-4", 0 ],
					"hidden" : 0
				}

			}
, 			{
				"patchline" : 				{
					"source" : [ "obj-19", 0 ],
					"destination" : [ "obj-7", 1 ],
					"hidden" : 0
				}

			}
, 			{
				"patchline" : 				{
					"source" : [ "obj-21", 0 ],
					"destination" : [ "obj-3", 0 ],
					"hidden" : 0,
					"midpoints" : [ 116.5, 82.0, 13.0, 82.0, 13.0, 447.0, 188.0, 447.0, 188.0, 383.0, 161.0, 383.0 ]
				}

			}
, 			{
				"patchline" : 				{
					"source" : [ "obj-3", 0 ],
					"destination" : [ "obj-2", 0 ],
					"hidden" : 0
				}

			}
, 			{
				"patchline" : 				{
					"source" : [ "obj-21", 1 ],
					"destination" : [ "obj-20", 0 ],
					"hidden" : 0,
					"midpoints" : [ 162.0, 77.0, 185.5, 77.0 ]
				}

			}
, 			{
				"patchline" : 				{
					"source" : [ "obj-21", 0 ],
					"destination" : [ "obj-20", 0 ],
					"hidden" : 0,
					"midpoints" : [ 116.5, 77.0, 185.5, 77.0 ]
				}

			}
, 			{
				"patchline" : 				{
					"source" : [ "obj-20", 2 ],
					"destination" : [ "obj-12", 0 ],
					"hidden" : 0
				}

			}
, 			{
				"patchline" : 				{
					"source" : [ "obj-12", 0 ],
					"destination" : [ "obj-16", 0 ],
					"hidden" : 0
				}

			}
, 			{
				"patchline" : 				{
					"source" : [ "obj-16", 0 ],
					"destination" : [ "obj-17", 0 ],
					"hidden" : 0
				}

			}
, 			{
				"patchline" : 				{
					"source" : [ "obj-17", 0 ],
					"destination" : [ "obj-19", 0 ],
					"hidden" : 0
				}

			}
, 			{
				"patchline" : 				{
					"source" : [ "obj-18", 0 ],
					"destination" : [ "obj-7", 2 ],
					"hidden" : 0
				}

			}
, 			{
				"patchline" : 				{
					"source" : [ "obj-12", 1 ],
					"destination" : [ "obj-19", 1 ],
					"hidden" : 0
				}

			}
, 			{
				"patchline" : 				{
					"source" : [ "obj-17", 0 ],
					"destination" : [ "obj-18", 0 ],
					"hidden" : 0
				}

			}
, 			{
				"patchline" : 				{
					"source" : [ "obj-12", 2 ],
					"destination" : [ "obj-18", 1 ],
					"hidden" : 0
				}

			}
, 			{
				"patchline" : 				{
					"source" : [ "obj-12", 1 ],
					"destination" : [ "obj-7", 3 ],
					"hidden" : 0
				}

			}
, 			{
				"patchline" : 				{
					"source" : [ "obj-20", 0 ],
					"destination" : [ "obj-12", 1 ],
					"hidden" : 0
				}

			}
, 			{
				"patchline" : 				{
					"source" : [ "obj-12", 2 ],
					"destination" : [ "obj-7", 4 ],
					"hidden" : 0
				}

			}
, 			{
				"patchline" : 				{
					"source" : [ "obj-20", 1 ],
					"destination" : [ "obj-12", 2 ],
					"hidden" : 0
				}

			}
, 			{
				"patchline" : 				{
					"source" : [ "obj-19", 0 ],
					"destination" : [ "obj-15", 0 ],
					"hidden" : 0
				}

			}
, 			{
				"patchline" : 				{
					"source" : [ "obj-12", 1 ],
					"destination" : [ "obj-15", 0 ],
					"hidden" : 0
				}

			}
, 			{
				"patchline" : 				{
					"source" : [ "obj-15", 0 ],
					"destination" : [ "obj-7", 5 ],
					"hidden" : 0
				}

			}
, 			{
				"patchline" : 				{
					"source" : [ "obj-19", 0 ],
					"destination" : [ "obj-15", 1 ],
					"hidden" : 0
				}

			}
, 			{
				"patchline" : 				{
					"source" : [ "obj-18", 0 ],
					"destination" : [ "obj-14", 0 ],
					"hidden" : 0
				}

			}
, 			{
				"patchline" : 				{
					"source" : [ "obj-12", 2 ],
					"destination" : [ "obj-14", 0 ],
					"hidden" : 0
				}

			}
, 			{
				"patchline" : 				{
					"source" : [ "obj-14", 0 ],
					"destination" : [ "obj-7", 6 ],
					"hidden" : 0
				}

			}
, 			{
				"patchline" : 				{
					"source" : [ "obj-18", 0 ],
					"destination" : [ "obj-14", 1 ],
					"hidden" : 0
				}

			}
 ]
	}

}
