max v2;#N vpatcher 20 74 313 368;#P window setfont "Sans Serif" 9.;#P window linecount 1;#P newex 36 197 51 196617 zl join;#P newex 36 97 51 196617 zl slice 1;#P message 146 84 52 196617 \$1 \$1 \$1;#P newex 36 222 65 196617 prepend xyz;#P newex 175 112 21 196617 t 1;#P newex 77 172 93 196617 zl join;#P newex 77 147 79 196617 vexpr $f1*$f2;#P newex 77 122 93 196617 zl slice 3;#P newex 36 62 230 196617 route xyz radius;#P newex 66 29 115 196617 patcherargs @radius 1.;#P outlet 36 247 15 0;#P inlet 36 29 15 0;#P fasten 2 1 3 0 176 52 41 52;#P connect 0 0 3 0;#P connect 3 0 10 0;#P connect 10 0 11 0;#P connect 11 0 8 0;#P connect 8 0 1 0;#P connect 10 1 4 0;#P connect 4 0 5 0;#P connect 5 0 6 0;#P connect 6 0 11 1;#P connect 3 1 9 0;#P connect 9 0 5 1;#P connect 4 1 6 1;#P connect 7 0 6 1;#P connect 3 0 7 0;#P pop;