{
	"patcher" : 	{
		"rect" : [ 495.0, 289.0, 405.0, 276.0 ],
		"bglocked" : 0,
		"defrect" : [ 495.0, 289.0, 405.0, 276.0 ],
		"openinpresentation" : 0,
		"default_fontsize" : 10.0,
		"default_fontface" : 0,
		"default_fontname" : "Verdana",
		"gridonopen" : 0,
		"gridsize" : [ 5.0, 5.0 ],
		"gridsnaponopen" : 0,
		"toolbarvisible" : 1,
		"boxfadetime" : 200,
		"boxanimatetime" : 200,
		"scrollanimatetime" : 200,
		"metadata" : [  ],
		"boxes" : [ 			{
				"box" : 				{
					"maxclass" : "outlet",
					"id" : "obj-1",
					"patching_rect" : [ 126.0, 192.0, 15.0, 15.0 ],
					"numinlets" : 1,
					"numoutlets" : 0,
					"comment" : ""
				}

			}
, 			{
				"box" : 				{
					"maxclass" : "newobj",
					"text" : "prepend symbol",
					"outlettype" : [ "" ],
					"id" : "obj-2",
					"fontsize" : 9.0,
					"patching_rect" : [ 126.0, 164.0, 79.0, 17.0 ],
					"numinlets" : 1,
					"numoutlets" : 1,
					"fontname" : "Verdana"
				}

			}
, 			{
				"box" : 				{
					"maxclass" : "comment",
					"text" : "The reason is that umenu now is to be set, but not trigger any output in response to messages received from jcom.parameter.mxt left outlet.",
					"linecount" : 3,
					"id" : "obj-3",
					"fontsize" : 9.0,
					"patching_rect" : [ 151.0, 116.0, 217.0, 38.0 ],
					"numinlets" : 1,
					"numoutlets" : 0,
					"fontname" : "Verdana"
				}

			}
, 			{
				"box" : 				{
					"maxclass" : "comment",
					"text" : "Changes in jcom.parameter.mxt implies that \"tosymbol\" is no longer prepended.",
					"linecount" : 2,
					"id" : "obj-4",
					"fontsize" : 9.0,
					"patching_rect" : [ 151.0, 89.0, 209.0, 28.0 ],
					"numinlets" : 1,
					"numoutlets" : 0,
					"fontname" : "Verdana"
				}

			}
, 			{
				"box" : 				{
					"maxclass" : "newobj",
					"text" : "tosymbol",
					"outlettype" : [ "" ],
					"id" : "obj-5",
					"fontsize" : 9.0,
					"patching_rect" : [ 80.0, 69.0, 49.0, 17.0 ],
					"numinlets" : 1,
					"numoutlets" : 1,
					"fontname" : "Verdana"
				}

			}
, 			{
				"box" : 				{
					"maxclass" : "newobj",
					"text" : "jcom.round",
					"outlettype" : [ "" ],
					"id" : "obj-6",
					"fontsize" : 9.0,
					"patching_rect" : [ 49.0, 116.0, 59.0, 17.0 ],
					"numinlets" : 1,
					"numoutlets" : 1,
					"fontname" : "Verdana"
				}

			}
, 			{
				"box" : 				{
					"maxclass" : "newobj",
					"text" : "route int float",
					"outlettype" : [ "", "", "" ],
					"id" : "obj-7",
					"fontsize" : 9.0,
					"patching_rect" : [ 18.0, 47.0, 72.0, 17.0 ],
					"numinlets" : 1,
					"numoutlets" : 3,
					"fontname" : "Verdana"
				}

			}
, 			{
				"box" : 				{
					"maxclass" : "outlet",
					"id" : "obj-8",
					"patching_rect" : [ 18.0, 192.0, 15.0, 15.0 ],
					"numinlets" : 1,
					"numoutlets" : 0,
					"comment" : ""
				}

			}
, 			{
				"box" : 				{
					"maxclass" : "inlet",
					"outlettype" : [ "" ],
					"id" : "obj-9",
					"patching_rect" : [ 18.0, 28.0, 15.0, 15.0 ],
					"numinlets" : 0,
					"numoutlets" : 1,
					"comment" : ""
				}

			}
, 			{
				"box" : 				{
					"maxclass" : "comment",
					"text" : "\/\/ TL - 2005-04-27:",
					"id" : "obj-10",
					"fontsize" : 9.0,
					"patching_rect" : [ 150.0, 71.0, 108.0, 17.0 ],
					"numinlets" : 1,
					"numoutlets" : 0,
					"fontname" : "Verdana"
				}

			}
 ],
		"lines" : [ 			{
				"patchline" : 				{
					"source" : [ "obj-9", 0 ],
					"destination" : [ "obj-7", 0 ],
					"hidden" : 0
				}

			}
, 			{
				"patchline" : 				{
					"source" : [ "obj-5", 0 ],
					"destination" : [ "obj-8", 0 ],
					"hidden" : 0,
					"midpoints" : [ 89.5, 184.0, 27.0, 184.0 ]
				}

			}
, 			{
				"patchline" : 				{
					"source" : [ "obj-6", 0 ],
					"destination" : [ "obj-8", 0 ],
					"hidden" : 0,
					"midpoints" : [ 58.5, 182.0, 27.0, 182.0 ]
				}

			}
, 			{
				"patchline" : 				{
					"source" : [ "obj-7", 0 ],
					"destination" : [ "obj-8", 0 ],
					"hidden" : 0,
					"midpoints" : [ 27.5, 182.0, 27.0, 182.0 ]
				}

			}
, 			{
				"patchline" : 				{
					"source" : [ "obj-7", 1 ],
					"destination" : [ "obj-6", 0 ],
					"hidden" : 0
				}

			}
, 			{
				"patchline" : 				{
					"source" : [ "obj-7", 2 ],
					"destination" : [ "obj-5", 0 ],
					"hidden" : 0
				}

			}
, 			{
				"patchline" : 				{
					"source" : [ "obj-5", 0 ],
					"destination" : [ "obj-2", 0 ],
					"hidden" : 0
				}

			}
, 			{
				"patchline" : 				{
					"source" : [ "obj-2", 0 ],
					"destination" : [ "obj-1", 0 ],
					"hidden" : 0
				}

			}
, 			{
				"patchline" : 				{
					"source" : [ "obj-6", 0 ],
					"destination" : [ "obj-1", 0 ],
					"hidden" : 0
				}

			}
, 			{
				"patchline" : 				{
					"source" : [ "obj-7", 0 ],
					"destination" : [ "obj-1", 0 ],
					"hidden" : 0,
					"midpoints" : [ 27.5, 162.0 ]
				}

			}
 ]
	}

}
