max v2;#N vpatcher 30 89 296 332;#P window setfont "Sans Serif" 9.;#P window linecount 1;#P newex 98 60 48 196617 loadbang;#P newex 98 120 43 196617 !/ 180.;#P newex 98 100 29 196617 * 4.;#P newex 98 80 41 196617 atan 1.;#P newex 37 151 71 196617 * 57.295773;#P inlet 37 44 15 0;#P outlet 37 173 15 0;#P comment 124 154 100 196617 $f1 * 180 / PI;#P connect 2 0 3 0;#P connect 3 0 1 0;#P connect 7 0 4 0;#P connect 4 0 5 0;#P connect 5 0 6 0;#P connect 6 0 3 1;#P pop;