max v2;#N vpatcher 20 47 998 652;#P window setfont "Sans Serif" 9.;#P hidden newex 226 400 54 196617 s $0_lcd2;#P hidden comment 239 338 73 196617 bgcolor;#P hidden newex 246 380 94 196617 s $0_lcd1;#P hidden comment 301 356 105 196617 uses $6 \, $7 and $8;#N vpatcher 40 55 451 264;#P window setfont "Sans Serif" 9.;#P message 15 80 141 196617 $6 $7 $8;#P newex 15 103 363 196617 if ($i1 == 0) && ($i2 == 0) && ($i3 == 0) then 255 255 255 else $i1 $i2 $i3;#P newex 15 131 65 196617 prepend brgb;#P newex 15 28 90 196617 r $0_init;#P outlet 15 155 15 0;#P newex 15 52 22 196617 b 1;#P connect 2 0 0 0;#P connect 0 0 5 0;#P connect 5 0 4 0;#P connect 4 0 3 0;#P connect 3 0 1 0;#P pop;#P hidden newobj 246 353 52 196617 p defaults;#P hidden comment 456 339 73 196617 Font and Size;#P hidden newex 463 381 94 196617 s $0_lcd1;#P hidden comment 518 357 105 196617 uses $4 and $5;#N vpatcher 40 55 296 294;#P window setfont "Sans Serif" 9.;#P message 53 178 55 196617 font \$1 \$2;#P newex 53 154 56 196617 pack;#P newex 99 34 90 196617 r $0_init;#P outlet 53 202 15 0;#P message 99 128 14 196617 9;#P message 53 128 14 196617 1;#P newex 99 106 44 196617 sel 0;#P newex 53 106 44 196617 sel 0;#P message 99 87 21 196617 $5;#P message 53 87 21 196617 $4;#P newex 99 58 22 196617 b 1;#P connect 0 0 1 0;#P connect 1 0 3 0;#P connect 3 0 5 0;#P connect 5 0 9 0;#P connect 3 1 9 0;#P connect 9 0 10 0;#P connect 10 0 7 0;#P connect 8 0 0 0;#P connect 0 0 2 0;#P connect 2 0 4 0;#P connect 4 0 6 0;#P connect 6 0 9 1;#P connect 4 1 9 1;#P pop;#P hidden newobj 463 354 52 196617 p defaults;#P hidden comment 191 4 667 196617 <-- NOTE: the positioning of this LCD is critical. If it is not in the viewable area of the bpatcher \, it will not display the text in the other LCD;#P hidden newex 214 156 94 196617 s $0_lcd2;#P hidden newex 332 257 94 196617 s $0_lcd2;#P hidden newex 618 218 94 196617 s $0_lcd1;#P hidden newex 559 239 94 196617 s $0_lcd2;#P hidden newex 407 161 54 196617 r $0_lcd1;#P hidden newex 21 128 77 196617 r $0_lcd2;#P hidden newex 736 135 27 196617 + 1;#P hidden message 307 131 95 196617 clear \, moveto 3 12;#P hidden toggle 736 92 15 0;#P hidden comment 805 67 52 196617 uses $3;#N vpatcher 40 55 296 294;#P window setfont "Sans Serif" 9.;#P newex 99 34 90 196617 r $0_init;#P outlet 99 109 15 0;#P message 99 82 21 196617 $3;#P newex 99 58 22 196617 b 1;#P connect 3 0 0 0;#P connect 0 0 1 0;#P connect 1 0 2 0;#P pop;#P hidden newobj 756 65 45 196617 p default;#N comlet (list/symbol) Text to be displayed;#P hidden inlet 736 40 15 0;#P hidden comment 753 40 143 196617 (toggle) Orientation of Text;#P hidden newex 736 161 156 196617 s $0_orientation;#P hidden comment 684 336 77 196617 initialize LCDs;#P hidden newex 521 268 85 196617 s $0_size;#N vpatcher 25 87 576 417;#P window setfont "Sans Serif" 9.;#P newex 363 170 141 196617 r $0_orientation;#P newex 292 206 40 196617 switch;#P newex 234 206 40 196617 switch;#P newex 359 82 38 196617 unpack;#P newex 359 59 89 196617 r $0_size;#P newex 264 141 35 196617 !- 200;#P newex 307 141 31 196617 !- 15;#P newex 60 228 244 196617 pack 0 0 0 0 0;#P newex 60 94 263 196617 unpack 0 0 0 0 0;#P newex 21 70 49 196617 zl slice 1;#P message 60 251 165 196617 linesegment \$5 \$4 \$5 \$4 \$1 \$2 \$3;#N comlet (list) pixel information;#P inlet 21 38 15 0;#N comlet (list) draw commands for LCD 2;#P outlet 60 275 15 0;#P comment 38 38 176 196617 pixel information;#P comment 77 275 157 196617 draw commands;#P connect 3 0 5 0;#P connect 5 1 6 0;#P connect 6 0 7 0;#P connect 7 0 4 0;#P connect 4 0 2 0;#P connect 6 1 7 1;#P connect 6 2 7 2;#P fasten 14 0 12 0 368 195 239 195;#P lcolor 14;#P connect 12 0 7 3;#P connect 6 3 12 1;#P connect 6 3 9 0;#P connect 9 0 12 2;#P fasten 11 1 9 1 392 123 294 123;#P lcolor 13;#P fasten 14 0 13 0 368 197 297 197;#P lcolor 14;#P connect 13 0 7 4;#P connect 6 4 8 0;#P connect 8 0 13 1;#P connect 6 4 13 2;#P lcolor 8;#P connect 11 0 8 1;#P connect 10 0 11 0;#P pop;#P hidden newobj 332 234 105 196617 p format_for_redraw;#P hidden newex 21 106 77 196617 r $0_init;#N vpatcher 40 55 296 294;#P window setfont "Sans Serif" 9.;#P newex 99 34 90 196617 r $0_init;#P outlet 112 170 15 0;#P outlet 66 170 15 0;#P message 99 128 26 196617 200;#P message 53 128 20 196617 15;#P newex 99 106 44 196617 sel 0;#P newex 53 106 44 196617 sel 0;#P message 99 87 21 196617 $2;#P message 53 87 21 196617 $1;#P newex 99 58 22 196617 b 1;#P connect 0 0 1 0;#P connect 1 0 3 0;#P connect 3 0 5 0;#P connect 3 1 7 0;#P connect 5 0 7 0;#P connect 9 0 0 0;#P connect 0 0 2 0;#P connect 2 0 4 0;#P connect 4 0 6 0;#P connect 4 1 8 0;#P connect 6 0 8 0;#P pop;#P hidden newobj 571 65 52 196617 p defaults;#P hidden newex 521 65 49 196617 unpack;#N comlet (list/symbol) Text to be displayed;#P hidden inlet 521 40 15 0;#P hidden comment 538 40 125 196617 (list) Size of display: x \, y;#N comlet (list/symbol) Text to be displayed;#P hidden inlet 143 40 15 0;#N vpatcher 25 87 631 448;#P window setfont "Sans Serif" 9.;#P newex 378 107 38 196617 *;#P newex 378 69 38 196617 unpack;#P newex 378 48 89 196617 r $0_size;#P message 295 279 31 196617 clear;#P comment 311 302 236 196617 (symbol) clear the contents of the destination LCD;#N comlet (symbol) clear the contents of the destination LCD;#P outlet 295 302 15 0;#N comlet (bang) trigger the process;#P inlet 25 94 15 0;#N comlet (list) the pixel value to find for;#P outlet 25 301 15 0;#P message 91 152 14 196617 0;#P message 157 216 35 196617 set \$1;#P newex 25 249 52 196617 prepend 0;#P number 25 198 35 9 0 0 0 3 0 0 0 221 221 221 222 222 222 0 0 0;#P number 157 198 35 9 0 0 0 3 0 0 0 221 221 221 222 222 222 0 0 0;#P button 25 123 15 0;#P newex 25 153 48 196617 uzi 4000;#N counter 0 0 19;#X flags 0 0;#P newobj 25 175 143 196617 counter 0 0 19;#P message 25 272 74 196617 getpixel \$1 \$2;#P comment 42 94 176 196617 (bang) scan through the LCD contents;#P comment 42 301 157 196617 current pixel to find the value of;#P connect 12 0 5 0;#P connect 5 0 4 0;#P connect 4 0 3 0;#P connect 3 0 7 0;#P connect 7 0 8 0;#P connect 9 0 8 0;#P connect 8 0 2 0;#P connect 2 0 11 0;#P fasten 18 0 4 1 383 135 68 135;#P lcolor 13;#P connect 5 0 10 0;#P connect 10 0 3 2;#P connect 17 0 3 4;#P lcolor 8;#P connect 3 3 6 0;#P connect 6 0 9 0;#P fasten 12 0 15 0 30 115 300 115;#P connect 15 0 13 0;#P connect 16 0 17 0;#P connect 17 0 18 0;#P connect 17 1 18 1;#P pop;#P hidden newobj 143 130 81 196617 p scan_the_text;#P hidden newex 143 81 61 196617 prepend list;#P hidden newex 143 105 174 196617 t b l b;#P hidden newex 225 130 71 196617 prepend write;#P hidden message 168 59 65 196617 this is a test;#P hidden newex 560 115 27 196617 t b i;#P hidden number 560 92 35 9 0 0 0 3 0 0 0 221 221 221 222 222 222 0 0 0;#P hidden number 521 92 35 9 0 0 0 3 0 0 0 221 221 221 222 222 222 0 0 0;#P hidden message 559 193 55 196617 size \$1 \$2;#P hidden newex 521 154 66 196617 pack 15 200;#P hidden message 618 193 55 196617 size \$2 \$1;#P hidden newex 639 334 45 196617 loadbang;#P hidden newex 406 130 77 196617 r $0_init;#P user lcd 1 1 15 200 0 0 0 0 0;#P window linecount 2;#P hidden message 639 357 222 196617 \; $0_init local 0 \, clear \, frgb 0 0 0 \, moveto 3 12;#P user lcd 1 0 199 18 0 0 0 0 0;#P window linecount 1;#P hidden comment 160 40 164 196617 (list/symbol) Text to be displayed;#P hidden comment 625 66 105 196617 uses $1 and $2;#P hidden connect 36 0 2 0;#P hidden connect 33 0 2 0;#P hidden connect 5 0 2 0;#P hidden connect 17 0 2 0;#P hidden connect 14 0 2 0;#P hidden connect 35 0 4 0;#P hidden connect 23 0 4 0;#P hidden connect 18 0 16 0;#P hidden connect 13 0 16 0;#P hidden connect 16 0 15 0;#P hidden connect 15 0 17 0;#P hidden connect 17 1 40 0;#P hidden connect 15 1 14 0;#P hidden connect 46 0 50 0;#P hidden connect 46 0 48 0;#P hidden connect 15 2 33 0;#P hidden connect 2 3 24 0;#P hidden connect 24 0 39 0;#P hidden connect 42 0 44 0;#P hidden connect 20 0 21 0;#P hidden connect 22 0 10 0;#P hidden connect 21 0 10 0;#P hidden connect 10 0 8 0;#P hidden connect 12 0 8 0;#P hidden connect 8 0 25 0;#P hidden connect 8 0 9 0;#P hidden connect 9 0 37 0;#P hidden connect 22 1 11 0;#P hidden connect 21 1 11 0;#P hidden connect 11 0 12 0;#P hidden connect 12 1 8 1;#P hidden connect 8 0 7 0;#P hidden connect 7 0 38 0;#P hidden connect 6 0 3 0;#P hidden connect 30 0 32 0;#P hidden connect 29 0 32 0;#P hidden connect 32 0 34 0;#P hidden connect 34 0 27 0;#P pop;