max v2;#N vpatcher 284 118 974 411;#P window setfont "Sans Serif" 9.;#P newex 93 118 46 196617 sel done;#P newex 143 48 68 196617 jcom.pass op;#P newex 13 88 128 196617 patcherargs @op + @val 0;#P newex 432 122 219 196617 jit.matrix $0_matrix2 1 float32 1 1;#P newex 432 80 138 196617 jit.fill $0_matrix2;#P newex 201 122 219 196617 jit.matrix $0_matrix1 1 float32 1 1;#P newex 201 80 138 196617 jit.fill $0_matrix1;#P newex 201 193 43 196617 jit.spill;#P outlet 201 247 15 0;#P inlet 432 25 15 0;#P inlet 143 25 15 0;#P newex 201 154 241 196617 jit.op;#P fasten 9 1 11 0 136 111 98 111;#P connect 1 0 10 0;#P connect 10 1 5 0;#P connect 5 0 6 0;#P fasten 11 1 0 0 134 144 206 144;#P connect 10 0 0 0;#P connect 6 0 0 0;#P connect 0 0 4 0;#P connect 4 0 3 0;#P connect 2 0 7 0;#P connect 7 0 8 0;#P connect 8 0 0 1;#P pop;