max v2;#N vpatcher 153 355 392 663;#P window setfont "Sans Serif" 9.;#P number 95 57 35 9 0 0 0 3 0 0 0 221 221 221 222 222 222 0 0 0;#P window linecount 1;#P newex 95 25 64 196617 patcherargs;#P message 114 216 62 196617 fullscreen 1;#P newex 34 175 40 196617 sel 0 1;#P outlet 34 259 15 0;#P message 34 216 62 196617 fullscreen 0;#P toggle 34 122 15 0;#P number 34 57 35 9 0 0 0 3 0 0 0 221 221 221 222 222 222 0 0 0;#P newex 34 93 71 196617 sel 27;#P newex 34 25 40 196617 key;#P comment 60 264 125 196617 Send to thispatcher object;#P connect 1 0 3 0;#P connect 3 0 2 0;#P connect 2 0 4 0;#P connect 4 0 7 0;#P connect 7 0 5 0;#P connect 5 0 6 0;#P fasten 8 0 6 0 119 245 39 245;#P connect 9 0 10 0;#P connect 10 0 2 1;#P fasten 7 1 8 0 54 204 119 204;#P pop;