max v2;#N vpatcher 566 44 1190 668;#P window setfont "Sans Serif" 9.;#P window linecount 1;#P hidden message 379 379 48 196617 set \$1 0;#P hidden newex 379 358 51 196617 route set;#P hidden newex 179 488 32 196617 print;#P hidden message 179 460 63 196617 YEEEESSSS!;#P hidden newex 179 427 85 196617 r ambi_precense;#P hidden newex 379 429 90 196617 pvar button_mute;#P hidden newex 379 160 22 196617 b 1;#B color 1;#P objectname jcom.parameter[4];#P hidden newex 379 140 209 196617 jcom.message /audio/meters/clear;#B color 1;#P objectname jcom.parameter[3];#P hidden message 519 272 53 196617 defeat \$1;#P objectname mess_dm;#P hidden newex 379 316 89 196617 pvar gain_master;#B color 7;#P objectname pvar_gain;#P hidden inlet 176 123 15 0;#P window linecount 6;#P hidden newex 379 450 150 196617 jcom.parameter audio/mute @type msg_toggle @description "When active\\\, this attribute turns off the module's processing.mxtorithm to save CPU";#P objectname audio/mute;#P hidden newex 379 189 150 196617 jcom.parameter audio/meters/freeze @type msg_toggle @description "When active\\\, this attribute turns off the signal level meters in the module to conserve CPU.";#P objectname audio/meters/freeze;#P window linecount 1;#P hidden newex 379 337 153 196617 jcom.parameter.gain audio/gain;#P objectname pattr_gain;#P user hint 149 191 162 203 mute 2000 500 0 65535 65535 52428 9 3 0 1 0 0 0;#P user hint 61 196 146 204 "output master gain" 2000 500 0 65535 65535 52428 9 3 0 1 0 0 0;#P user jcom.meter~ 63 193 82 4;#P objectname meter_omni;#P user pictslider 62 197 84 8 0 0 0 0 jcom.slider.knob.gain.pct 1 jcom.slider.bg.gain.pct 1 2113 0 0 157 1. 1.;#P objectname gain_master;#P user pictctrl 148 192 11 11 jcom.button.mute.pct 0 0 1 1 26 0 0 0 11 11 128 0 1 1 1 1 1 270;#P objectname button_mute;#P user pictctrl 59 190 103 15 jcom.bg.ambi-component.pct 0 0 1 0 24 0 0 0 103 15 2 0 1 1 1 1 1 270;#P noclick;#P objectname background;#P hidden connect 11 0 3 0;#P hidden connect 13 0 3 0;#P hidden connect 9 0 3 0;#P hidden connect 15 0 16 0;#P hidden connect 16 0 17 0;#P hidden connect 12 0 13 0;#P hidden fasten 19 0 10 0 384 397 373 397 373 311 384 311;#P hidden connect 10 0 6 0;#P hidden connect 6 0 18 0;#P hidden connect 18 0 19 0;#P hidden fasten 8 0 14 0 384 536 371 536 371 425 384 425;#P hidden connect 14 0 8 0;#P hidden connect 7 1 11 0;#P pop;