max v2;#N vpatcher 39 112 1007 784;#P window setfont "Sans Serif" 9.;#P comment 7 247 204 196617 Dim: 190 x 150;#B frgb 255 255 255;#P comment 69 51 97 196617 (UID = unique ID);#B frgb 255 255 255;#N vpatcher 566 87 1432 494;#P window setfont "Sans Serif" 9.;#P message 75 88 69 196617 set UID \, bang;#P message 381 92 93 196617 set 320 240 \, bang;#P newex 279 91 80 196617 prepend symbol;#P newex 75 50 419 196617 t b 4 char b 1;#P inlet 75 30 15 0;#P outlet 483 156 15 0;#P outlet 381 156 15 0;#P outlet 279 156 15 0;#P outlet 177 156 15 0;#P outlet 75 156 15 0;#P connect 5 0 6 0;#P connect 6 0 9 0;#P connect 9 0 0 0;#P connect 6 1 1 0;#P connect 6 2 7 0;#P connect 7 0 2 0;#P connect 6 3 8 0;#P connect 8 0 3 0;#P connect 6 4 4 0;#P pop;#P hidden newobj 94 -9 74 196617 p set_defaults;#P message 5 200 63 196617 set defaults;#P comment 8 91 58 196617 Type;#B frgb 255 255 255;#P newex 255 492 387 196617 jcom.message $1/clear @type msg_generic @description "Set all cell values to 0.";#P newex 255 471 58 196617 pvar Clear;#P user jsui 138 4 41 19 3 0 0 jsui_textbutton.js clear;#P objectname Clear;#P window linecount 2;#P newex 255 424 282 196617 jcom.parameter $1/type @type msg_menu @description "The matrix data type (char\\\, long\\\, float32\\\, or float64).";#P objectname $1/type;#P window linecount 1;#P newex 255 395 65 196617 pvar Type 2;#P user umenu 69 88 110 196647 1 64 104 1;#X add char;#X add long;#X add float32;#X add float64;#P objectname Type;#P window linecount 2;#P newex 255 340 347 196617 jcom.parameter $1/planecount @type msg_int @range 1 32 @clipmode both @repetitions 1 @ramp 0 @description "The number of planes";#P objectname $1/planecount;#P window linecount 1;#P newex 255 316 82 196617 pvar Planecount;#P comment 8 74 58 196617 Planecount;#B frgb 255 255 255;#P number 69 71 39 9 1 32 8227 3 255 255 255 221 221 221 222 222 222 0 0 0;#P objectname Planecount;#P newex 255 238 56 196617 route text;#P window linecount 2;#P newex 255 259 284 196617 jcom.parameter $1/name @type msg_list @description "The input or output name (default = UID)";#P objectname $1/name;#P window linecount 1;#P newex 255 214 67 196617 pvar Name 3;#P comment 8 36 59 196617 Name;#B frgb 255 255 255;#P user textedit 69 31 179 49 98444 3 9 UID;#P objectname Name;#P comment 8 109 41 196617 Dim;#B frgb 255 255 255;#P newex 255 49 60 196617 pvar Adapt;#P window linecount 2;#P newex 255 71 297 196617 jcom.parameter $1/adapt @type msg_toggle @description "Adapt to incoming matrix planecount\\\, type\\\, and dimensions";#P objectname $1/adapt;#P window linecount 1;#P newex 255 155 56 196617 route text;#P user textedit 69 106 179 124 98436 3 9 320 240;#P objectname Dim;#P newex 255 534 106 196617 bgcolor 150 150 150;#P newex 255 176 361 196617 jcom.parameter $1/dim @type msg_list @description "Matrix dimension";#P objectname $1/dim;#P newex 255 131 60 196617 pvar Dim 3;#P comment 8 129 41 196617 Adapt;#B frgb 255 255 255;#P user radiogroup 67 126 69 16;#X size 1;#X offset 16;#X inactive 0;#X itemtype 1;#X flagmode 0;#X set 1;#X done;#P objectname Adapt;#P comment 5 227 231 196617 (use for setting default preset during developent);#B frgb 255 255 255;#P window setfont "Sans Serif" 12.;#P comment 7 4 110 196620 $1;#B frgb 255 255 255;#P user panel 0 0 190 150;#X brgb 150 150 150;#X frgb 255 255 255;#X border 1;#X rounded 0;#X shadow 0;#X done;#P hidden connect 30 4 3 0;#P hidden connect 30 0 13 0;#P hidden connect 30 1 18 0;#P hidden connect 30 2 22 0;#P hidden connect 30 3 8 0;#P hidden fasten 29 0 30 0 10 220 186 220 186 -14 99 -14;#P connect 11 0 10 0;#P fasten 6 0 5 0 260 196 249 196 249 126 260 126;#P connect 5 0 9 0;#P connect 9 0 6 0;#P fasten 16 0 15 0 260 292 249 292 249 210 260 210;#P connect 15 0 17 0;#P connect 17 0 16 0;#P fasten 21 0 20 0 260 373 249 373 249 312 260 312;#P connect 20 0 21 0;#P fasten 24 0 23 0 260 457 248 457 248 391 260 391;#P fasten 23 1 24 0 315 418 260 418;#P connect 26 0 27 0;#P pop;