{
	"patcher" : 	{
		"fileversion" : 1,
		"rect" : [ 133.0, 283.0, 555.0, 347.0 ],
		"bglocked" : 0,
		"defrect" : [ 133.0, 283.0, 555.0, 347.0 ],
		"openrect" : [ 0.0, 0.0, 0.0, 0.0 ],
		"openinpresentation" : 0,
		"default_fontsize" : 10.0,
		"default_fontface" : 0,
		"default_fontname" : "Arial",
		"gridonopen" : 0,
		"gridsize" : [ 5.0, 5.0 ],
		"gridsnaponopen" : 0,
		"toolbarvisible" : 1,
		"boxanimatetime" : 200,
		"imprint" : 0,
		"boxes" : [ 			{
				"box" : 				{
					"maxclass" : "inlet",
					"numoutlets" : 1,
					"outlettype" : [ "" ],
					"patching_rect" : [ 250.0, 45.0, 15.0, 15.0 ],
					"id" : "obj-22",
					"numinlets" : 0,
					"comment" : "parameter/message/return name"
				}

			}
, 			{
				"box" : 				{
					"maxclass" : "newobj",
					"text" : "t value",
					"numoutlets" : 1,
					"fontsize" : 10.0,
					"outlettype" : [ "value" ],
					"patching_rect" : [ 270.0, 70.0, 40.0, 18.0 ],
					"id" : "obj-20",
					"fontname" : "Arial",
					"numinlets" : 1
				}

			}
, 			{
				"box" : 				{
					"maxclass" : "newobj",
					"text" : "sel 0",
					"numoutlets" : 2,
					"fontsize" : 10.0,
					"outlettype" : [ "bang", "" ],
					"patching_rect" : [ 270.0, 45.0, 32.5, 18.0 ],
					"id" : "obj-18",
					"fontname" : "Arial",
					"numinlets" : 2
				}

			}
, 			{
				"box" : 				{
					"maxclass" : "newobj",
					"text" : "loadmess #1",
					"numoutlets" : 1,
					"fontsize" : 10.0,
					"outlettype" : [ "" ],
					"patching_rect" : [ 270.0, 20.0, 67.0, 18.0 ],
					"id" : "obj-17",
					"fontname" : "Arial",
					"numinlets" : 1
				}

			}
, 			{
				"box" : 				{
					"maxclass" : "newobj",
					"text" : "sprintf %s:/%s/get",
					"numoutlets" : 1,
					"fontsize" : 10.970939,
					"outlettype" : [ "" ],
					"patching_rect" : [ 380.0, 140.0, 129.0, 20.0 ],
					"id" : "obj-19",
					"fontname" : "Verdana",
					"numinlets" : 2
				}

			}
, 			{
				"box" : 				{
					"maxclass" : "message",
					"text" : "name dumbto",
					"numoutlets" : 1,
					"fontsize" : 9.873845,
					"outlettype" : [ "" ],
					"patching_rect" : [ 61.0, 164.0, 78.0, 16.0 ],
					"id" : "obj-2",
					"fontname" : "Verdana",
					"numinlets" : 2
				}

			}
, 			{
				"box" : 				{
					"maxclass" : "message",
					"text" : "name jcom.remote.module.to",
					"numoutlets" : 1,
					"fontsize" : 9.873845,
					"outlettype" : [ "" ],
					"patching_rect" : [ 139.0, 165.0, 156.0, 16.0 ],
					"id" : "obj-3",
					"fontname" : "Verdana",
					"numinlets" : 2
				}

			}
, 			{
				"box" : 				{
					"maxclass" : "outlet",
					"numoutlets" : 0,
					"patching_rect" : [ 54.0, 295.0, 15.0, 15.0 ],
					"id" : "obj-4",
					"numinlets" : 1,
					"comment" : ""
				}

			}
, 			{
				"box" : 				{
					"maxclass" : "newobj",
					"text" : "jcom.oscroute",
					"numoutlets" : 2,
					"fontsize" : 9.873845,
					"outlettype" : [ "", "" ],
					"patching_rect" : [ 54.0, 263.0, 345.0, 18.0 ],
					"id" : "obj-7",
					"fontname" : "Verdana",
					"numinlets" : 2
				}

			}
, 			{
				"box" : 				{
					"maxclass" : "newobj",
					"text" : "sprintf %s:/%s/get",
					"numoutlets" : 1,
					"fontsize" : 9.873845,
					"outlettype" : [ "" ],
					"patching_rect" : [ 125.0, 140.0, 162.0, 18.0 ],
					"id" : "obj-8",
					"fontname" : "Verdana",
					"numinlets" : 2
				}

			}
, 			{
				"box" : 				{
					"maxclass" : "newobj",
					"text" : "t b s b s",
					"numoutlets" : 4,
					"fontsize" : 9.873845,
					"outlettype" : [ "bang", "", "bang", "" ],
					"patching_rect" : [ 54.0, 112.0, 404.0, 18.0 ],
					"id" : "obj-9",
					"fontname" : "Verdana",
					"numinlets" : 1
				}

			}
, 			{
				"box" : 				{
					"maxclass" : "message",
					"text" : "name jcom.remote.module.from",
					"numoutlets" : 1,
					"fontsize" : 9.873845,
					"outlettype" : [ "" ],
					"patching_rect" : [ 310.0, 165.0, 170.0, 16.0 ],
					"id" : "obj-10",
					"fontname" : "Verdana",
					"numinlets" : 2
				}

			}
, 			{
				"box" : 				{
					"maxclass" : "message",
					"text" : "name dumb",
					"numoutlets" : 1,
					"fontsize" : 9.873845,
					"outlettype" : [ "" ],
					"patching_rect" : [ 54.0, 202.0, 68.0, 16.0 ],
					"id" : "obj-11",
					"fontname" : "Verdana",
					"numinlets" : 2
				}

			}
, 			{
				"box" : 				{
					"maxclass" : "newobj",
					"text" : "jcom.receive dumb",
					"numoutlets" : 2,
					"fontsize" : 9.873845,
					"outlettype" : [ "", "" ],
					"patching_rect" : [ 54.0, 233.0, 188.0, 18.0 ],
					"id" : "obj-12",
					"fontname" : "Verdana",
					"numinlets" : 1
				}

			}
, 			{
				"box" : 				{
					"maxclass" : "newobj",
					"text" : "jcom.send jcom.remote.module.to",
					"numoutlets" : 1,
					"fontsize" : 9.873845,
					"outlettype" : [ "" ],
					"patching_rect" : [ 124.0, 193.0, 180.0, 18.0 ],
					"id" : "obj-13",
					"fontname" : "Verdana",
					"numinlets" : 1
				}

			}
, 			{
				"box" : 				{
					"maxclass" : "inlet",
					"numoutlets" : 1,
					"outlettype" : [ "" ],
					"patching_rect" : [ 55.0, 85.0, 15.0, 15.0 ],
					"id" : "obj-15",
					"numinlets" : 0,
					"comment" : "parameter/message/return name"
				}

			}
 ],
		"lines" : [ 			{
				"patchline" : 				{
					"source" : [ "obj-15", 0 ],
					"destination" : [ "obj-9", 0 ],
					"hidden" : 0,
					"midpoints" : [  ]
				}

			}
, 			{
				"patchline" : 				{
					"source" : [ "obj-18", 1 ],
					"destination" : [ "obj-19", 1 ],
					"hidden" : 0,
					"midpoints" : [  ]
				}

			}
, 			{
				"patchline" : 				{
					"source" : [ "obj-18", 1 ],
					"destination" : [ "obj-8", 1 ],
					"hidden" : 0,
					"midpoints" : [  ]
				}

			}
, 			{
				"patchline" : 				{
					"source" : [ "obj-20", 0 ],
					"destination" : [ "obj-19", 1 ],
					"hidden" : 0,
					"midpoints" : [  ]
				}

			}
, 			{
				"patchline" : 				{
					"source" : [ "obj-20", 0 ],
					"destination" : [ "obj-8", 1 ],
					"hidden" : 0,
					"midpoints" : [  ]
				}

			}
, 			{
				"patchline" : 				{
					"source" : [ "obj-18", 0 ],
					"destination" : [ "obj-20", 0 ],
					"hidden" : 0,
					"midpoints" : [  ]
				}

			}
, 			{
				"patchline" : 				{
					"source" : [ "obj-17", 0 ],
					"destination" : [ "obj-18", 0 ],
					"hidden" : 0,
					"midpoints" : [  ]
				}

			}
, 			{
				"patchline" : 				{
					"source" : [ "obj-11", 0 ],
					"destination" : [ "obj-12", 0 ],
					"hidden" : 0,
					"midpoints" : [  ]
				}

			}
, 			{
				"patchline" : 				{
					"source" : [ "obj-10", 0 ],
					"destination" : [ "obj-12", 0 ],
					"hidden" : 0,
					"midpoints" : [ 319.5, 226.0, 63.5, 226.0 ]
				}

			}
, 			{
				"patchline" : 				{
					"source" : [ "obj-2", 0 ],
					"destination" : [ "obj-13", 0 ],
					"hidden" : 0,
					"midpoints" : [ 70.5, 186.0, 133.5, 186.0 ]
				}

			}
, 			{
				"patchline" : 				{
					"source" : [ "obj-3", 0 ],
					"destination" : [ "obj-13", 0 ],
					"hidden" : 0,
					"midpoints" : [  ]
				}

			}
, 			{
				"patchline" : 				{
					"source" : [ "obj-9", 2 ],
					"destination" : [ "obj-10", 0 ],
					"hidden" : 0,
					"midpoints" : [  ]
				}

			}
, 			{
				"patchline" : 				{
					"source" : [ "obj-9", 2 ],
					"destination" : [ "obj-3", 0 ],
					"hidden" : 0,
					"midpoints" : [ 320.166656, 159.0, 148.5, 159.0 ]
				}

			}
, 			{
				"patchline" : 				{
					"source" : [ "obj-9", 0 ],
					"destination" : [ "obj-2", 0 ],
					"hidden" : 0,
					"midpoints" : [ 63.5, 146.0, 70.5, 146.0 ]
				}

			}
, 			{
				"patchline" : 				{
					"source" : [ "obj-9", 0 ],
					"destination" : [ "obj-11", 0 ],
					"hidden" : 0,
					"midpoints" : [  ]
				}

			}
, 			{
				"patchline" : 				{
					"source" : [ "obj-12", 0 ],
					"destination" : [ "obj-7", 0 ],
					"hidden" : 0,
					"midpoints" : [  ]
				}

			}
, 			{
				"patchline" : 				{
					"source" : [ "obj-7", 0 ],
					"destination" : [ "obj-4", 0 ],
					"hidden" : 0,
					"midpoints" : [  ]
				}

			}
, 			{
				"patchline" : 				{
					"source" : [ "obj-8", 0 ],
					"destination" : [ "obj-13", 0 ],
					"hidden" : 0,
					"midpoints" : [  ]
				}

			}
, 			{
				"patchline" : 				{
					"source" : [ "obj-9", 1 ],
					"destination" : [ "obj-8", 0 ],
					"hidden" : 0,
					"midpoints" : [  ]
				}

			}
, 			{
				"patchline" : 				{
					"source" : [ "obj-19", 0 ],
					"destination" : [ "obj-7", 1 ],
					"hidden" : 0,
					"midpoints" : [ 389.5, 259.0, 389.5, 259.0 ]
				}

			}
, 			{
				"patchline" : 				{
					"source" : [ "obj-9", 3 ],
					"destination" : [ "obj-19", 0 ],
					"hidden" : 0,
					"midpoints" : [  ]
				}

			}
, 			{
				"patchline" : 				{
					"source" : [ "obj-22", 0 ],
					"destination" : [ "obj-8", 1 ],
					"hidden" : 0,
					"midpoints" : [  ]
				}

			}
, 			{
				"patchline" : 				{
					"source" : [ "obj-22", 0 ],
					"destination" : [ "obj-19", 1 ],
					"hidden" : 0,
					"midpoints" : [  ]
				}

			}
 ]
	}

}
