max v2;#N vpatcher 829 53 1214 422;#P window setfont "Sans Serif" 9.;#P window linecount 1;#P message 74 235 72 196617 planecount \$1;#P newex 74 188 84 196617 route planecount;#P newex 74 209 40 196617 change;#P newex 74 167 72 196617 jit.matrixinfo;#P inlet 74 43 15 0;#P outlet 74 298 15 0;#P window linecount 6;#P comment 203 157 100 196617 This little thing adjusts the next module so that it works independtly of how many planes are in the matrix.;#P connect 2 0 3 0;#P connect 3 0 5 0;#P connect 5 0 4 0;#P connect 4 0 6 0;#P connect 6 0 1 0;#P fasten 2 0 1 0 79 71 53 71 53 270 79 270;#P pop;