{
	"patcher" : 	{
		"rect" : [ 20.0, 74.0, 366.0, 284.0 ],
		"bgcolor" : [ 1.0, 1.0, 1.0, 1.0 ],
		"bglocked" : 0,
		"defrect" : [ 20.0, 74.0, 366.0, 284.0 ],
		"openinpresentation" : 0,
		"default_fontsize" : 10.0,
		"default_fontface" : 0,
		"default_fontname" : "Verdana",
		"gridonopen" : 0,
		"gridsize" : [ 15.0, 15.0 ],
		"gridsnaponopen" : 0,
		"toolbarvisible" : 1,
		"boxfadetime" : 200,
		"boxanimatetime" : 200,
		"scrollanimatetime" : 200,
		"metadata" : [  ],
		"boxes" : [ 			{
				"box" : 				{
					"maxclass" : "newobj",
					"text" : "patcherargs @radius 1.",
					"outlettype" : [ "", "" ],
					"id" : "obj-1",
					"fontsize" : 9.0,
					"patching_rect" : [ 66.0, 29.0, 115.0, 17.0 ],
					"numinlets" : 1,
					"numoutlets" : 2,
					"fontname" : "Verdana"
				}

			}
, 			{
				"box" : 				{
					"maxclass" : "newobj",
					"text" : "expr $f1*$f2\/10.",
					"outlettype" : [ "" ],
					"id" : "obj-2",
					"fontsize" : 9.0,
					"patching_rect" : [ 171.0, 149.0, 94.0, 17.0 ],
					"numinlets" : 2,
					"numoutlets" : 1,
					"fontname" : "Verdana"
				}

			}
, 			{
				"box" : 				{
					"maxclass" : "newobj",
					"text" : "route radius",
					"outlettype" : [ "", "" ],
					"id" : "obj-3",
					"fontsize" : 9.0,
					"patching_rect" : [ 36.0, 67.0, 65.0, 17.0 ],
					"numinlets" : 1,
					"numoutlets" : 2,
					"fontname" : "Verdana"
				}

			}
, 			{
				"box" : 				{
					"maxclass" : "newobj",
					"text" : "t 1",
					"outlettype" : [ "int" ],
					"id" : "obj-4",
					"fontsize" : 9.0,
					"patching_rect" : [ 295.0, 149.0, 21.0, 17.0 ],
					"numinlets" : 1,
					"numoutlets" : 1,
					"fontname" : "Verdana"
				}

			}
, 			{
				"box" : 				{
					"maxclass" : "newobj",
					"text" : "t \/aed",
					"outlettype" : [ "\/aed" ],
					"id" : "obj-5",
					"fontsize" : 9.0,
					"patching_rect" : [ 91.0, 149.0, 38.0, 17.0 ],
					"numinlets" : 1,
					"numoutlets" : 1,
					"fontname" : "Verdana"
				}

			}
, 			{
				"box" : 				{
					"maxclass" : "outlet",
					"id" : "obj-6",
					"patching_rect" : [ 91.0, 213.0, 15.0, 15.0 ],
					"numinlets" : 1,
					"numoutlets" : 0,
					"comment" : ""
				}

			}
, 			{
				"box" : 				{
					"maxclass" : "inlet",
					"outlettype" : [ "" ],
					"id" : "obj-7",
					"patching_rect" : [ 36.0, 29.0, 15.0, 15.0 ],
					"numinlets" : 0,
					"numoutlets" : 1,
					"comment" : ""
				}

			}
, 			{
				"box" : 				{
					"maxclass" : "newobj",
					"text" : "pack \/aed 0 0. 0. 0. 1",
					"outlettype" : [ "" ],
					"id" : "obj-8",
					"fontsize" : 9.0,
					"patching_rect" : [ 91.0, 178.0, 112.0, 17.0 ],
					"numinlets" : 6,
					"numoutlets" : 1,
					"fontname" : "Verdana"
				}

			}
, 			{
				"box" : 				{
					"maxclass" : "newobj",
					"text" : "unpack aed 0 0. 0. 0. 0",
					"outlettype" : [ "", "int", "float", "float", "float", "int" ],
					"id" : "obj-9",
					"fontsize" : 9.0,
					"patching_rect" : [ 91.0, 101.0, 112.0, 17.0 ],
					"numinlets" : 1,
					"numoutlets" : 6,
					"fontname" : "Verdana"
				}

			}
 ],
		"lines" : [ 			{
				"patchline" : 				{
					"source" : [ "obj-1", 1 ],
					"destination" : [ "obj-3", 0 ],
					"hidden" : 0,
					"midpoints" : [ 171.5, 63.0, 45.5, 63.0 ]
				}

			}
, 			{
				"patchline" : 				{
					"source" : [ "obj-7", 0 ],
					"destination" : [ "obj-3", 0 ],
					"hidden" : 0
				}

			}
, 			{
				"patchline" : 				{
					"source" : [ "obj-3", 1 ],
					"destination" : [ "obj-9", 0 ],
					"hidden" : 0
				}

			}
, 			{
				"patchline" : 				{
					"source" : [ "obj-9", 0 ],
					"destination" : [ "obj-5", 0 ],
					"hidden" : 0
				}

			}
, 			{
				"patchline" : 				{
					"source" : [ "obj-5", 0 ],
					"destination" : [ "obj-8", 0 ],
					"hidden" : 0
				}

			}
, 			{
				"patchline" : 				{
					"source" : [ "obj-8", 0 ],
					"destination" : [ "obj-6", 0 ],
					"hidden" : 0
				}

			}
, 			{
				"patchline" : 				{
					"source" : [ "obj-9", 1 ],
					"destination" : [ "obj-8", 1 ],
					"hidden" : 0
				}

			}
, 			{
				"patchline" : 				{
					"source" : [ "obj-9", 2 ],
					"destination" : [ "obj-8", 2 ],
					"hidden" : 0
				}

			}
, 			{
				"patchline" : 				{
					"source" : [ "obj-9", 3 ],
					"destination" : [ "obj-8", 3 ],
					"hidden" : 0
				}

			}
, 			{
				"patchline" : 				{
					"source" : [ "obj-9", 4 ],
					"destination" : [ "obj-2", 0 ],
					"hidden" : 0
				}

			}
, 			{
				"patchline" : 				{
					"source" : [ "obj-2", 0 ],
					"destination" : [ "obj-8", 4 ],
					"hidden" : 0
				}

			}
, 			{
				"patchline" : 				{
					"source" : [ "obj-9", 5 ],
					"destination" : [ "obj-8", 5 ],
					"hidden" : 0
				}

			}
, 			{
				"patchline" : 				{
					"source" : [ "obj-4", 0 ],
					"destination" : [ "obj-8", 5 ],
					"hidden" : 0,
					"midpoints" : [ 304.5, 173.0, 193.5, 173.0 ]
				}

			}
, 			{
				"patchline" : 				{
					"source" : [ "obj-3", 0 ],
					"destination" : [ "obj-2", 1 ],
					"hidden" : 0,
					"color" : [ 1.0, 1.0, 1.0, 1.0 ],
					"midpoints" : [ 45.5, 133.0, 255.5, 133.0 ]
				}

			}
, 			{
				"patchline" : 				{
					"source" : [ "obj-3", 1 ],
					"destination" : [ "obj-4", 0 ],
					"hidden" : 0,
					"midpoints" : [ 91.5, 92.0, 304.5, 92.0 ]
				}

			}
 ]
	}

}
