max v2;#N vpatcher 6 427 863 678;#P origin 0 -8;#P window setfont "Sans Serif" 9.;#N vpatcher 327 62 552 255;#P origin -343 -68;#P window setfont "Sans Serif" 9.;#P newex 57 97 50 196617 zl slice 1;#P newex 57 120 93 196617 prepend attributes;#P newex 57 49 80 196617 prepend symbol;#P outlet 57 146 15 0;#N coll jcom.namespace 1;#P newobj 57 72 111 196617 coll jcom.namespace 1;#P inlet 57 23 15 0;#P connect 0 0 3 0;#P connect 3 0 1 0;#P connect 1 0 5 0;#P fasten 5 1 4 0 102 116 62 116;#P connect 4 0 2 0;#P pop;#P newobj 737 152 47 196617 p mods;#N vpatcher 233 51 485 236;#P origin -343 -68;#P window setfont "Sans Serif" 9.;#P newex 41 59 80 196617 prepend symbol;#P newex 41 105 130 196617 prepend module_attributes;#P outlet 41 128 15 0;#N coll jcom.modules_attributes 1;#P newobj 41 82 150 196617 coll jcom.modules_attributes 1;#P inlet 41 38 15 0;#P connect 0 0 4 0;#P connect 4 0 1 0;#P connect 1 0 3 0;#P connect 3 0 2 0;#P pop;#P newobj 633 150 41 196617 p mods;#P newex 633 128 114 196617 route module;#P newex 33 163 105 196617 jcom.post namespace;#P window linecount 2;#P message 33 105 50 196617 analysis done;#P window linecount 1;#N vpatcher 10 59 229 240;#P window setfont "Sans Serif" 9.;#P window linecount 1;#P newex 32 100 50 196617 zl iter 1;#P outlet 32 143 15 0;#P window linecount 0;#P newex 32 120 82 196617 prepend returns;#P newex 32 54 80 196617 prepend symbol;#N coll jcom.modules_returns 1;#P newobj 32 77 139 196617 coll jcom.modules_returns 1;#P inlet 32 30 15 0;#P connect 0 0 2 0;#P connect 2 0 1 0;#P connect 1 0 5 0;#P connect 5 0 3 0;#P connect 3 0 4 0;#P pop;#P newobj 533 125 41 196617 p ret;#N vpatcher 10 59 249 247;#P window setfont "Sans Serif" 9.;#P window linecount 1;#P newex 32 100 50 196617 zl iter 1;#P window linecount 0;#P newex 32 125 100 196617 prepend messages;#P newex 32 53 80 196617 prepend symbol;#P outlet 32 148 15 0;#N coll jcom.modules_messages 1;#P newobj 32 77 148 196617 coll jcom.modules_messages 1;#P inlet 32 30 15 0;#P connect 0 0 3 0;#P connect 3 0 1 0;#P connect 1 0 5 0;#P connect 5 0 4 0;#P connect 4 0 2 0;#P pop;#P newobj 483 126 41 196617 p mess;#N vpatcher 331 64 569 249;#P window setfont "Sans Serif" 9.;#P newex 32 106 50 196617 zl iter 1;#P newex 32 131 100 196617 prepend parameters;#P outlet 32 154 15 0;#P newex 32 52 80 196617 prepend symbol;#N coll jcom.modules_parameters 1;#P newobj 32 77 157 196617 coll jcom.modules_parameters 1;#P inlet 32 30 15 0;#P connect 0 0 2 0;#P connect 2 0 1 0;#P connect 1 0 5 0;#P connect 5 0 4 0;#P connect 4 0 3 0;#P pop;#P newobj 433 126 46 196617 p params;#N comlet retrieve outlet;#P outlet 383 189 15 0;#N vpatcher 233 51 464 251;#P window setfont "Sans Serif" 9.;#P window linecount 0;#P newex 69 119 84 196617 prepend modules;#P outlet 69 142 15 0;#P newex 69 96 69 196617 route symbol;#P newex 23 49 40 196617 t dump;#P window linecount 1;#N coll jcom.modules_attributes 1;#P newobj 23 72 150 196617 coll jcom.modules_attributes 1;#P inlet 23 28 15 0;#P connect 0 0 2 0;#P connect 2 0 1 0;#P connect 1 1 3 0;#P connect 3 0 5 0;#P connect 5 0 4 0;#P pop;#P newobj 383 126 41 196617 p mods;#P newex 383 104 314 196617 route modules parameters messages returns all attributes;#N vpatcher 10 59 232 197;#P window setfont "Sans Serif" 9.;#P window linecount 0;#P newex 32 54 50 196617 t open;#P window linecount 1;#N coll jcom.namespace 1;#P newobj 32 77 111 196617 coll jcom.namespace 1;#P inlet 32 30 15 0;#P connect 0 0 2 0;#P connect 2 0 1 0;#P pop;#P newobj 313 129 41 196617 p space;#N vpatcher 10 59 232 197;#P window setfont "Sans Serif" 9.;#P window linecount 0;#P newex 32 54 50 196617 t open;#P window linecount 1;#N coll jcom.modules_returns 1;#P newobj 32 77 139 196617 coll jcom.modules_returns 1;#P inlet 32 30 15 0;#P connect 0 0 2 0;#P connect 2 0 1 0;#P pop;#P newobj 263 128 41 196617 p ret;#N vpatcher 10 59 232 197;#P window setfont "Sans Serif" 9.;#P window linecount 0;#P newex 32 54 50 196617 t open;#P window linecount 1;#N coll jcom.modules_messages 1;#P newobj 32 77 148 196617 coll jcom.modules_messages 1;#P inlet 32 30 15 0;#P connect 0 0 2 0;#P connect 2 0 1 0;#P pop;#P newobj 213 128 41 196617 p mess;#N vpatcher 10 59 232 197;#P window setfont "Sans Serif" 9.;#P window linecount 0;#P newex 32 54 50 196617 t open;#P window linecount 1;#N coll jcom.modules_parameters 1;#P newobj 32 77 157 196617 coll jcom.modules_parameters 1;#P inlet 32 30 15 0;#P connect 0 0 2 0;#P connect 2 0 1 0;#P pop;#P newobj 163 128 46 196617 p params;#N vpatcher 10 59 232 197;#P window setfont "Sans Serif" 9.;#P window linecount 0;#P newex 32 54 50 196617 t open;#P window linecount 1;#N coll jcom.modules_attributes 1;#P newobj 32 77 150 196617 coll jcom.modules_attributes 1;#P inlet 32 30 15 0;#P connect 0 0 2 0;#P connect 2 0 1 0;#P pop;#P newobj 113 128 41 196617 p mods;#P newex 113 104 262 196617 route modules parameters messages returns namespace;#P newex 113 81 551 196617 route view get;#P inlet 33 31 15 0;#P newex 33 56 91 196617 route bang analyse;#N vpatcher 38 200 981 638;#P window setfont "Sans Serif" 9.;#P window linecount 1;#N vpatcher 4 58 1083 727;#P origin 257 22;#P window setfont "Sans Serif" 9.;#P window linecount 1;#N vpatcher 20 52 325 290;#P origin 8 0;#P window setfont "Sans Serif" 9.;#P window linecount 0;#P newex 79 152 29 196617 t 1 l;#P newex 79 131 50 196617 zl slice 2;#P newex 39 106 50 196617 gate 2 1;#P inlet 79 83 15 0;#P outlet 39 183 15 0;#P inlet 126 53 15 0;#P window linecount 2;#P comment 105 92 158 196617 in case there's no int/float/menu parameter;#P window linecount 1;#P newex 39 83 21 196617 t 2;#P fasten 2 0 0 0 131 75 44 75;#P connect 7 0 5 0;#P connect 0 0 5 0;#P fasten 7 1 3 0 103 178 44 178;#P connect 5 0 3 0;#P connect 4 0 5 1;#P connect 5 1 6 0;#P connect 6 0 7 0;#P pop;#P newobj 507 546 231 196617 p noparam;#N vpatcher 20 52 440 328;#P origin 8 0;#P outlet 59 199 15 0;#P window setfont "Sans Serif" 9.;#P newex 59 176 71 196617 t <separator>;#P window linecount 1;#P newex 59 153 34 196617 sel 0;#P newex 59 130 42 196617 i;#N counter;#X flags 0 0;#P newobj 91 106 66 196617 counter;#P newex 39 61 30 196617 t 0 b;#P window linecount 0;#P newex 91 63 23 196617 t b;#P inlet 39 36 15 0;#P inlet 91 39 15 0;#P comment 122 60 158 196617 in case there's no int/float/menu parameter;#P connect 2 0 4 0;#P connect 4 1 6 0;#P connect 6 0 7 0;#P connect 7 0 8 0;#P connect 8 0 9 0;#P connect 1 0 3 0;#P connect 3 0 5 0;#P connect 5 0 6 1;#P fasten 4 0 5 3 44 93 138 93;#P pop;#P newobj 728 470 56 196617 p noparam;#P newex 888 146 37 196617 zl rev;#P newex 608 151 37 196617 zl rev;#P newex 435 180 82 196617 t <separator> b;#P newex 507 497 37 196617 zl rev;#P newex 435 469 82 196617 zl join;#P newex 608 82 50 196617 zl reg;#P newex 648 61 73 196617 r $0_imod;#P newex 953 170 72 196617 s $0_imod;#P newex 581 197 37 196617 t l l;#P newex 507 128 111 196617 t b l;#P newex 507 446 67 196617 zl group 255;#P newex 540 424 51 196617 gate;#P newex 728 388 21 196617 t 0;#P newex 608 394 21 196617 t 1;#P window linecount 3;#P newex 608 334 136 196617 sel generic menu toggle msg_int msg_float msg_list msg_symbol jit_matrix;#P window linecount 1;#P newex 608 310 53 196617 zl nth 7;#P newex 608 265 72 196617 sprintf %s%s;#P newex 608 242 59 196617 zl rev;#P newex 608 219 59 196617 pack s s;#P newex 608 173 47 196617 zl iter 1;#P newex 657 173 80 196617 route symbol;#N coll jcom.namespace 1;#P newobj 608 288 111 196617 coll jcom.namespace 1;#N coll jcom.modules_parameters 1;#P newobj 608 104 157 196617 coll jcom.modules_parameters 1;#P newex 507 523 290 196617 zl join;#P newex 507 593 37 196617 zl rev;#P newex 507 616 72 196617 prepend store;#P newex 861 193 37 196617 t l l;#N coll jcom.trig_mapper_ins 1;#P newobj 507 643 151 196617 coll jcom.trig_mapper_ins 1;#P newex 787 124 111 196617 t b l;#P newex 937 191 111 196617 t s s;#P newex 507 571 541 196617 zl join;#P newex 787 470 67 196617 zl group 255;#P newex 820 420 51 196617 gate;#P newex 1010 389 21 196617 t 0;#P newex 888 390 21 196617 t 1;#P window linecount 3;#P newex 888 333 136 196617 sel generic menu toggle msg_int msg_float msg_list msg_symbol jit_matrix;#P window linecount 1;#P newex 888 306 53 196617 zl nth 7;#P newex 888 78 176 196617 t dump clear;#P newex 888 261 72 196617 sprintf %s%s;#P newex 888 238 59 196617 zl rev;#P newex 888 215 59 196617 pack s s;#P newex 888 169 47 196617 zl iter 1;#P newex 937 124 65 196617 route symbol;#N coll jcom.namespace 1;#P newobj 888 284 111 196617 coll jcom.namespace 1;#N coll jcom.modules_returns 1;#P newobj 888 100 157 196617 coll jcom.modules_returns 1;#P button 264 2 15 0;#N vpatcher 20 52 325 290;#P origin 8 0;#P window setfont "Sans Serif" 9.;#P window linecount 0;#P newex 79 152 29 196617 t 1 l;#P newex 79 131 50 196617 zl slice 2;#P newex 39 106 50 196617 gate 2 1;#P inlet 79 83 15 0;#P outlet 39 183 15 0;#P inlet 126 53 15 0;#P window linecount 2;#P comment 105 92 158 196617 in case there's no int/float/menu parameter;#P window linecount 1;#P newex 39 83 21 196617 t 2;#P fasten 2 0 0 0 131 75 44 75;#P connect 0 0 5 0;#P connect 7 0 5 0;#P connect 5 0 3 0;#P fasten 7 1 3 0 103 178 44 178;#P connect 4 0 5 1;#P connect 5 1 6 0;#P connect 6 0 7 0;#P pop;#P newobj -145 515 231 196617 p noparam;#P window linecount 0;#N vpatcher 20 52 440 328;#P origin 8 0;#P outlet 59 199 15 0;#P window setfont "Sans Serif" 9.;#P newex 59 176 71 196617 t <separator>;#P window linecount 1;#P newex 59 153 34 196617 sel 0;#P newex 59 130 42 196617 i;#N counter;#X flags 0 0;#P newobj 91 106 66 196617 counter;#P newex 39 61 30 196617 t 0 b;#P window linecount 0;#P newex 91 63 23 196617 t b;#P inlet 39 36 15 0;#P inlet 91 39 15 0;#P comment 122 60 158 196617 in case there's no int/float/menu parameter;#P connect 2 0 4 0;#P connect 4 1 6 0;#P connect 6 0 7 0;#P connect 7 0 8 0;#P connect 8 0 9 0;#P connect 1 0 3 0;#P connect 3 0 5 0;#P connect 5 0 6 1;#P fasten 4 0 5 3 44 93 138 93;#P pop;#P newobj 76 439 56 196617 p noparam;#P window linecount 1;#P newex 236 115 37 196617 zl rev;#P newex -44 120 37 196617 zl rev;#P window linecount 0;#P newex 236 20 662 196617 t b b;#P newex -217 149 82 196617 t <separator> b;#P newex -145 466 37 196617 zl rev;#P newex -217 438 82 196617 zl join;#P newex -44 51 50 196617 zl reg;#P newex -4 30 73 196617 r $0_omod;#P newex 301 139 72 196617 s $0_omod;#P newex -71 166 37 196617 t l l;#P newex -145 97 111 196617 t b l;#P newex -145 415 67 196617 zl group 255;#P newex -112 393 51 196617 gate;#P newex 76 357 21 196617 t 0;#P newex -44 363 21 196617 t 1;#P newex -44 303 136 196617 sel generic menu toggle msg_int msg_float msg_list msg_symbol jit_matrix;#P newex -44 279 53 196617 zl nth 7;#P newex -44 234 72 196617 sprintf %s%s;#P newex -44 211 59 196617 zl rev;#P newex -44 188 59 196617 pack s s;#P newex -44 142 47 196617 zl iter 1;#P newex 5 142 80 196617 route symbol;#N coll jcom.namespace 1;#P newobj -44 257 111 196617 coll jcom.namespace 1;#N coll jcom.modules_messages 1;#P newobj -44 73 157 196617 coll jcom.modules_messages 1;#P newex -145 492 290 196617 zl join;#P newex -145 562 37 196617 zl rev;#P newex -145 585 72 196617 prepend store;#P newex 209 162 37 196617 t l l;#N coll jcom.trig_mapper_outs 1;#P newobj -145 612 151 196617 coll jcom.trig_mapper_outs 1;#P newex 135 93 111 196617 t b l;#P newex 285 160 111 196617 t s s;#P newex -145 540 541 196617 zl join;#P newex 135 439 67 196617 zl group 255;#P newex 168 389 51 196617 gate;#P newex 358 358 21 196617 t 0;#P newex 236 359 21 196617 t 1;#P newex 236 302 136 196617 sel generic menu toggle msg_int msg_float msg_list msg_symbol jit_matrix;#P newex 236 275 53 196617 zl nth 7;#P newex 236 47 176 196617 t dump clear;#P newex 236 230 72 196617 sprintf %s%s;#P newex 236 207 59 196617 zl rev;#P newex 236 184 59 196617 pack s s;#P newex 236 138 47 196617 zl iter 1;#P newex 285 93 65 196617 route symbol;#N coll jcom.namespace 1;#P newobj 236 253 111 196617 coll jcom.namespace 1;#N coll jcom.modules_parameters 1;#P newobj 236 69 157 196617 coll jcom.modules_parameters 1;#P inlet 236 1 15 0;#P connect 36 0 43 0;#P connect 43 0 41 0;#P fasten 23 0 36 0 -39 92 -140 92;#P connect 43 1 35 0;#P connect 34 0 35 0;#P connect 35 0 41 1;#P fasten 41 0 42 0 -212 460 -140 460;#P connect 42 0 22 0;#P connect 22 0 48 0;#P connect 48 0 15 0;#P connect 15 0 21 0;#P connect 21 0 20 0;#P fasten 8 1 18 0 407 607 -140 607;#P connect 20 0 18 0;#P fasten 33 0 34 0 81 386 -107 386;#P fasten 32 0 34 0 -39 386 -107 386;#P fasten 26 0 37 0 -39 162 -66 162;#P connect 37 0 34 1;#P fasten 17 0 40 0 140 116 126 116 126 23 -39 23;#P connect 40 0 23 0;#P connect 36 1 45 0;#P connect 45 0 26 0;#P connect 37 1 27 0;#P connect 27 0 28 0;#P connect 28 0 29 0;#P connect 29 0 24 0;#P connect 24 0 30 0;#P connect 30 0 31 0;#P fasten 31 7 32 0 66 353 -39 353;#P fasten 31 6 32 0 51 353 -39 353;#P fasten 31 5 32 0 36 353 -39 353;#P fasten 31 4 32 0 21 353 -39 353;#P fasten 31 3 32 0 6 353 -39 353;#P fasten 31 2 32 0 -9 353 -39 353;#P connect 31 0 32 0;#P fasten 31 1 32 0 -24 353 -39 353;#P connect 39 0 40 1;#P connect 23 1 25 0;#P connect 25 0 27 1;#P connect 31 8 33 0;#P fasten 17 0 47 0 140 413 81 413;#P connect 47 0 48 1;#P connect 13 0 47 1;#P fasten 1 0 17 0 241 88 140 88;#P connect 17 0 14 0;#P connect 13 0 14 0;#P connect 47 0 22 1;#P connect 14 0 22 1;#P fasten 11 0 13 0 241 382 173 382;#P fasten 12 0 13 0 363 382 173 382;#P fasten 4 0 19 0 241 158 214 158;#P connect 19 0 13 1;#P connect 49 0 44 0;#P connect 0 0 44 0;#P connect 44 0 8 0;#P connect 8 0 1 0;#P connect 17 1 46 0;#P connect 46 0 4 0;#P connect 19 1 5 0;#P connect 5 0 6 0;#P connect 6 0 7 0;#P connect 7 0 2 0;#P connect 2 0 9 0;#P connect 9 0 10 0;#P fasten 10 1 11 0 256 351 241 351;#P connect 10 0 11 0;#P fasten 10 2 11 0 271 351 241 351;#P connect 1 1 3 0;#P connect 3 0 16 0;#P connect 16 0 5 1;#P connect 3 0 38 0;#P connect 10 8 12 0;#P connect 16 1 15 1;#P connect 85 0 92 0;#P connect 92 0 90 0;#P fasten 72 0 85 0 613 123 512 123;#P connect 83 0 84 0;#P connect 92 1 84 0;#P connect 84 0 90 1;#P fasten 90 0 91 0 440 491 512 491;#P connect 91 0 71 0;#P connect 71 0 96 0;#P connect 96 0 64 0;#P connect 64 0 70 0;#P connect 70 0 69 0;#P fasten 57 1 67 0 1059 638 512 638;#P connect 69 0 67 0;#P fasten 81 0 83 0 613 417 545 417;#P fasten 82 0 83 0 733 417 545 417;#P fasten 75 0 86 0 613 193 586 193;#P connect 86 0 83 1;#P fasten 66 0 89 0 792 147 778 147 778 54 613 54;#P connect 89 0 72 0;#P connect 85 1 93 0;#P connect 93 0 75 0;#P connect 86 1 76 0;#P connect 76 0 77 0;#P connect 77 0 78 0;#P connect 78 0 73 0;#P connect 73 0 79 0;#P connect 79 0 80 0;#P fasten 80 1 81 0 628 384 613 384;#P connect 80 0 81 0;#P fasten 80 2 81 0 643 384 613 384;#P fasten 80 3 81 0 658 384 613 384;#P fasten 80 4 81 0 673 384 613 384;#P fasten 80 5 81 0 688 384 613 384;#P fasten 80 6 81 0 703 384 613 384;#P fasten 80 7 81 0 718 384 613 384;#P connect 88 0 89 1;#P connect 72 1 74 0;#P connect 74 0 76 1;#P connect 80 8 82 0;#P fasten 66 0 95 0 792 444 733 444;#P connect 95 0 96 1;#P connect 62 0 95 1;#P fasten 50 0 66 0 893 119 792 119;#P connect 66 0 63 0;#P connect 62 0 63 0;#P connect 95 0 71 1;#P connect 63 0 71 1;#P fasten 61 0 62 0 1015 413 825 413;#P fasten 60 0 62 0 893 413 825 413;#P fasten 53 0 68 0 893 189 866 189;#P connect 68 0 62 1;#P connect 44 1 57 0;#P connect 57 0 50 0;#P connect 66 1 94 0;#P connect 94 0 53 0;#P connect 68 1 54 0;#P connect 54 0 55 0;#P connect 55 0 56 0;#P connect 56 0 51 0;#P connect 51 0 58 0;#P connect 58 0 59 0;#P fasten 59 2 60 0 923 382 893 382;#P connect 59 0 60 0;#P fasten 59 1 60 0 908 382 893 382;#P connect 50 1 52 0;#P connect 52 0 65 0;#P connect 65 0 54 1;#P connect 52 0 87 0;#P connect 59 8 61 0;#P connect 65 1 64 1;#P pop;#P newobj 84 119 77 196617 p trig_mapping;#P window linecount 0;#N vpatcher -7 44 1263 737;#P origin 74 14;#P window setfont "Sans Serif" 9.;#N vpatcher 20 52 325 290;#P origin 8 0;#P window setfont "Sans Serif" 9.;#P window linecount 0;#P newex 79 152 29 196617 t 1 l;#P newex 79 131 50 196617 zl slice 2;#P newex 39 106 50 196617 gate 2 1;#P inlet 79 83 15 0;#P outlet 39 183 15 0;#P inlet 126 53 15 0;#P window linecount 2;#P comment 105 92 158 196617 in case there's no int/float/menu parameter;#P window linecount 1;#P newex 39 83 21 196617 t 2;#P fasten 2 0 0 0 131 75 44 75;#P connect 0 0 5 0;#P connect 7 0 5 0;#P connect 5 0 3 0;#P fasten 7 1 3 0 103 178 44 178;#P connect 4 0 5 1;#P connect 5 1 6 0;#P connect 6 0 7 0;#P pop;#P newobj 698 536 231 196617 p noparam;#N vpatcher 20 52 440 328;#P origin 8 0;#P outlet 59 199 15 0;#P window setfont "Sans Serif" 9.;#P newex 59 176 71 196617 t <separator>;#P window linecount 1;#P newex 59 153 34 196617 sel 0;#P newex 59 130 42 196617 i;#N counter;#X flags 0 0;#P newobj 91 106 66 196617 counter;#P newex 39 61 30 196617 t 0 b;#P window linecount 0;#P newex 91 63 23 196617 t b;#P inlet 39 36 15 0;#P inlet 91 39 15 0;#P comment 122 60 158 196617 in case there's no int/float/menu parameter;#P connect 2 0 4 0;#P connect 4 1 6 0;#P connect 6 0 7 0;#P connect 7 0 8 0;#P connect 8 0 9 0;#P connect 1 0 3 0;#P connect 3 0 5 0;#P connect 5 0 6 1;#P fasten 4 0 5 3 44 93 138 93;#P pop;#P newobj 919 460 56 196617 p noparam;#P newex 1079 175 37 196617 zl rev;#P newex 799 180 37 196617 zl rev;#P newex 626 209 82 196617 t <separator> b;#P newex 698 487 37 196617 zl rev;#P newex 626 459 82 196617 zl join;#P newex 799 111 50 196617 zl reg;#P newex 839 90 73 196617 r $0_cimod;#P newex 1158 186 72 196617 s $0_cimod;#P newex 772 226 37 196617 t l l;#P newex 698 157 111 196617 t b l;#P newex 698 436 67 196617 zl group 255;#P newex 731 414 51 196617 gate;#P newex 925 383 21 196617 t 0;#P newex 799 384 21 196617 t 1;#P newex 799 362 136 196617 sel msg_float msg_int menu;#P newex 799 339 53 196617 zl nth 7;#P newex 799 294 72 196617 sprintf %s%s;#P newex 799 271 59 196617 zl rev;#P newex 799 248 59 196617 pack s s;#P newex 799 202 47 196617 zl iter 1;#P newex 848 202 80 196617 route symbol;#N coll jcom.namespace 1;#P newobj 799 317 111 196617 coll jcom.namespace 1;#N coll jcom.modules_parameters 1;#P newobj 799 133 157 196617 coll jcom.modules_parameters 1;#P newex 698 513 290 196617 zl join;#P newex 698 583 37 196617 zl rev;#P newex 698 606 72 196617 prepend store;#P newex 1052 222 37 196617 t l l;#N coll jcom.cont_mapper_ins 1;#P newobj 698 633 151 196617 coll jcom.cont_mapper_ins 1;#P newex 978 153 111 196617 t b l;#P newex 1128 220 111 196617 t s s;#P newex 698 561 541 196617 zl join;#P newex 978 460 67 196617 zl group 255;#P newex 1011 410 51 196617 gate;#P newex 1205 381 21 196617 t 0;#P newex 1079 380 21 196617 t 1;#P newex 1079 335 53 196617 zl nth 7;#P newex 1079 66 176 196617 t dump clear;#P newex 1079 290 72 196617 sprintf %s%s;#P newex 1079 267 59 196617 zl rev;#P newex 1079 244 59 196617 pack s s;#P newex 1079 198 47 196617 zl iter 1;#P newex 1128 153 65 196617 route symbol;#N coll jcom.namespace 1;#P newobj 1079 313 111 196617 coll jcom.namespace 1;#N coll jcom.modules_returns 1;#P newobj 1079 88 157 196617 coll jcom.modules_returns 1;#P button 447 12 15 0;#N vpatcher 20 52 325 290;#P origin 8 0;#P window setfont "Sans Serif" 9.;#P window linecount 0;#P newex 79 152 29 196617 t 1 l;#P newex 79 131 50 196617 zl slice 2;#P newex 39 106 50 196617 gate 2 1;#P inlet 79 83 15 0;#P outlet 39 183 15 0;#P inlet 126 53 15 0;#P window linecount 2;#P comment 105 92 158 196617 in case there's no int/float/menu parameter;#P window linecount 1;#P newex 39 83 21 196617 t 2;#P fasten 2 0 0 0 131 75 44 75;#P connect 7 0 5 0;#P connect 0 0 5 0;#P fasten 7 1 3 0 103 178 44 178;#P connect 5 0 3 0;#P connect 4 0 5 1;#P connect 5 1 6 0;#P connect 6 0 7 0;#P pop;#P newobj 38 486 231 196617 p noparam;#P window linecount 0;#N vpatcher 20 52 440 328;#P origin 8 0;#P outlet 59 199 15 0;#P window setfont "Sans Serif" 9.;#P newex 59 176 71 196617 t <separator>;#P window linecount 1;#P newex 59 153 34 196617 sel 0;#P newex 59 130 42 196617 i;#N counter;#X flags 0 0;#P newobj 91 106 66 196617 counter;#P newex 39 61 30 196617 t 0 b;#P window linecount 0;#P newex 91 63 23 196617 t b;#P inlet 39 36 15 0;#P inlet 91 39 15 0;#P comment 122 60 158 196617 in case there's no int/float/menu parameter;#P connect 2 0 4 0;#P connect 4 1 6 0;#P connect 6 0 7 0;#P connect 7 0 8 0;#P connect 8 0 9 0;#P connect 1 0 3 0;#P connect 3 0 5 0;#P connect 5 0 6 1;#P fasten 4 0 5 3 44 93 138 93;#P pop;#P newobj 259 410 56 196617 p noparam;#P window linecount 1;#P newex 419 125 37 196617 zl rev;#P newex 139 130 37 196617 zl rev;#P window linecount 0;#P newex 419 30 670 196617 t b b;#P newex -34 159 82 196617 t <separator> b;#P newex 38 437 37 196617 zl rev;#P newex -34 409 82 196617 zl join;#P newex 139 61 50 196617 zl reg;#P newex 179 40 73 196617 r $0_comod;#P newex 484 149 72 196617 s $0_comod;#P newex 112 176 37 196617 t l l;#P newex 38 107 111 196617 t b l;#P newex 38 386 67 196617 zl group 255;#P newex 71 364 51 196617 gate;#P newex 265 333 21 196617 t 0;#P newex 139 334 21 196617 t 1;#P newex 139 312 136 196617 sel msg_float msg_int menu;#P newex 139 289 53 196617 zl nth 7;#P newex 139 244 72 196617 sprintf %s%s;#P newex 139 221 59 196617 zl rev;#P newex 139 198 59 196617 pack s s;#P newex 139 152 47 196617 zl iter 1;#P newex 188 152 80 196617 route symbol;#N coll jcom.namespace 1;#P newobj 139 267 111 196617 coll jcom.namespace 1;#N coll jcom.modules_messages 1;#P newobj 139 83 157 196617 coll jcom.modules_messages 1;#P newex 38 463 290 196617 zl join;#P newex 38 533 37 196617 zl rev;#P newex 38 556 72 196617 prepend store;#P newex 392 172 37 196617 t l l;#N coll jcom.cont_mapper_outs 1;#P newobj 38 583 151 196617 coll jcom.cont_mapper_outs 1;#P newex 318 103 111 196617 t b l;#P newex 468 170 111 196617 t s s;#P newex 38 511 541 196617 zl join;#P newex 318 410 67 196617 zl group 255;#P newex 351 360 51 196617 gate;#P newex 545 329 21 196617 t 0;#P newex 419 330 21 196617 t 1;#P newex 419 308 136 196617 sel msg_float msg_int menu;#P newex 419 285 53 196617 zl nth 7;#P newex 419 57 176 196617 t dump clear;#P newex 419 240 72 196617 sprintf %s%s;#P newex 419 217 59 196617 zl rev;#P newex 419 194 59 196617 pack s s;#P newex 419 148 47 196617 zl iter 1;#P newex 468 103 65 196617 route symbol;#N coll jcom.namespace 1;#P newobj 419 263 111 196617 coll jcom.namespace 1;#N coll jcom.modules_parameters 1;#P newobj 419 79 157 196617 coll jcom.modules_parameters 1;#P inlet 419 11 15 0;#P window linecount 1;#P newex 1079 358 136 196617 sel msg_float msg_int menu;#P connect 37 0 44 0;#P connect 44 0 42 0;#P fasten 24 0 37 0 144 102 43 102;#P connect 35 0 36 0;#P connect 44 1 36 0;#P connect 36 0 42 1;#P fasten 42 0 43 0 -29 431 43 431;#P connect 43 0 23 0;#P connect 23 0 49 0;#P connect 49 0 16 0;#P connect 16 0 22 0;#P connect 22 0 21 0;#P fasten 9 1 19 0 590 576 43 576;#P connect 21 0 19 0;#P fasten 33 0 35 0 144 357 76 357;#P fasten 34 0 35 0 270 357 76 357;#P fasten 27 0 38 0 144 172 117 172;#P connect 38 0 35 1;#P fasten 18 0 41 0 323 126 309 126 309 33 144 33;#P connect 41 0 24 0;#P connect 37 1 46 0;#P connect 46 0 27 0;#P connect 38 1 28 0;#P connect 28 0 29 0;#P connect 29 0 30 0;#P connect 30 0 25 0;#P connect 25 0 31 0;#P connect 31 0 32 0;#P fasten 32 2 33 0 228 331 144 331;#P connect 32 0 33 0;#P fasten 32 1 33 0 186 331 144 331;#P connect 40 0 41 1;#P connect 24 1 26 0;#P connect 26 0 28 1;#P fasten 18 0 48 0 323 388 264 388;#P connect 48 0 49 1;#P connect 32 3 34 0;#P connect 14 0 48 1;#P fasten 2 0 18 0 424 98 323 98;#P connect 18 0 15 0;#P connect 14 0 15 0;#P connect 48 0 23 1;#P connect 15 0 23 1;#P fasten 13 0 14 0 550 353 356 353;#P fasten 12 0 14 0 424 353 356 353;#P fasten 5 0 20 0 424 168 397 168;#P connect 20 0 14 1;#P connect 1 0 45 0;#P connect 50 0 45 0;#P connect 45 0 9 0;#P connect 9 0 2 0;#P connect 18 1 47 0;#P connect 47 0 5 0;#P connect 20 1 6 0;#P connect 6 0 7 0;#P connect 7 0 8 0;#P connect 8 0 3 0;#P connect 3 0 10 0;#P connect 10 0 11 0;#P fasten 11 1 12 0 466 327 424 327;#P connect 11 0 12 0;#P fasten 11 2 12 0 508 327 424 327;#P connect 2 1 4 0;#P connect 4 0 17 0;#P connect 17 0 6 1;#P connect 4 0 39 0;#P connect 11 3 13 0;#P connect 17 1 16 1;#P connect 85 0 92 0;#P connect 92 0 90 0;#P fasten 72 0 85 0 804 152 703 152;#P connect 92 1 84 0;#P connect 83 0 84 0;#P connect 84 0 90 1;#P fasten 90 0 91 0 631 481 703 481;#P connect 91 0 71 0;#P connect 71 0 96 0;#P connect 96 0 64 0;#P connect 64 0 70 0;#P connect 70 0 69 0;#P fasten 58 1 67 0 1250 626 703 626;#P connect 69 0 67 0;#P fasten 82 0 83 0 930 407 736 407;#P fasten 81 0 83 0 804 407 736 407;#P fasten 75 0 86 0 804 222 777 222;#P connect 86 0 83 1;#P fasten 66 0 89 0 983 176 969 176 969 83 804 83;#P connect 89 0 72 0;#P connect 85 1 93 0;#P connect 93 0 75 0;#P connect 86 1 76 0;#P connect 76 0 77 0;#P connect 77 0 78 0;#P connect 78 0 73 0;#P connect 73 0 79 0;#P connect 79 0 80 0;#P fasten 80 1 81 0 846 381 804 381;#P connect 80 0 81 0;#P fasten 80 2 81 0 888 381 804 381;#P connect 88 0 89 1;#P connect 72 1 74 0;#P connect 74 0 76 1;#P fasten 66 0 95 0 983 438 924 438;#P connect 95 0 96 1;#P connect 80 3 82 0;#P connect 62 0 95 1;#P fasten 51 0 66 0 1084 148 983 148;#P connect 62 0 63 0;#P connect 66 0 63 0;#P connect 63 0 71 1;#P connect 95 0 71 1;#P fasten 60 0 62 0 1084 403 1016 403;#P fasten 61 0 62 0 1210 403 1016 403;#P fasten 54 0 68 0 1084 218 1057 218;#P connect 68 0 62 1;#P connect 45 1 58 0;#P connect 58 0 51 0;#P connect 66 1 94 0;#P connect 94 0 54 0;#P connect 68 1 55 0;#P connect 55 0 56 0;#P connect 56 0 57 0;#P connect 57 0 52 0;#P connect 52 0 59 0;#P connect 59 0 0 0;#P fasten 0 2 60 0 1168 377 1084 377;#P connect 0 0 60 0;#P fasten 0 1 60 0 1126 377 1084 377;#P connect 51 1 53 0;#P connect 53 0 65 0;#P connect 65 0 55 1;#P connect 53 0 87 0;#P connect 0 3 61 0;#P connect 65 1 64 1;#P pop;#P newobj 96 98 79 196617 p cont_mapping;#P outlet 26 158 15 0;#P newex 16 136 50 196617 deferlow;#P newex 16 74 170 196617 t b b dump;#P window linecount 1;#N vpatcher 295 75 802 563;#P window setfont "Sans Serif" 9.;#P newex 358 192 69 196617 t s 1;#P button 341 295 15 0;#P window linecount 1;#P newex 358 294 27 196617 + 1;#P newex 186 363 72 196617 prepend store;#P newex 186 341 50 196617 zl join;#P newex 186 315 86 196617 t s s;#P newex 318 317 50 196617 maximum;#N coll jcom.modules_instances 1;#P newobj 80 398 147 196617 coll jcom.modules_instances 1;#P newex 80 370 72 196617 prepend store;#P newex 80 349 50 196617 append 0;#P newex 80 71 69 196617 route symbol;#N coll jcom.modules_attributes 1;#P newobj 34 48 150 196617 coll jcom.modules_attributes 1;#P window linecount 0;#N vpatcher 151 59 344 335;#P window setfont "Sans Serif" 9.;#P window linecount 1;#P newex 99 105 47 196617 zl sub 47;#P outlet 55 212 15 0;#P newex 15 188 50 196617 gate 2;#P window linecount 0;#P newex 99 157 27 196617 + 1;#P newex 99 133 27 196617 > 1;#P newex 55 59 54 196617 t s s;#P newex 99 83 40 196617 atoi;#P outlet 15 211 15 0;#P inlet 55 37 15 0;#P connect 5 0 6 0;#P connect 6 0 1 0;#P connect 0 0 3 0;#P connect 3 0 6 1;#P connect 6 1 7 0;#P connect 3 1 2 0;#P connect 2 0 8 0;#P fasten 8 1 4 0 141 127 104 127;#P connect 4 0 5 0;#P pop;#P newobj 80 116 94 196617 p 2slashs?;#P newex 358 266 30 196617 - 49;#P newex 358 242 49 196617 route 47;#P newex 358 216 40 196617 atoi;#P newex 80 93 50 196617 tosymbol;#P newex 164 141 98 196617 regexp (.*)(\\\\/.*);#P newex 186 167 182 196617 zl ecils 1;#P inlet 34 29 15 0;#P connect 0 0 8 0;#P connect 8 1 9 0;#P connect 9 0 3 0;#P connect 3 0 7 0;#P connect 7 0 10 0;#P connect 10 0 11 0;#P connect 11 0 12 0;#P fasten 14 1 12 0 267 391 85 391;#P fasten 16 0 12 0 191 391 85 391;#P connect 7 1 2 0;#P connect 2 1 1 0;#P connect 1 0 14 0;#P connect 14 0 15 0;#P connect 15 0 16 0;#P fasten 13 0 15 1 323 337 231 337;#P fasten 19 1 13 0 422 313 323 313;#P connect 18 0 13 0;#P fasten 12 0 13 0 85 419 305 419 305 305 323 305;#P connect 17 0 18 0;#P connect 1 1 19 0;#P connect 19 0 4 0;#P connect 4 0 5 0;#P connect 5 0 6 0;#P connect 6 0 17 0;#P connect 17 0 13 1;#P fasten 19 1 13 1 422 313 363 313;#P pop;#P newobj 96 149 90 196617 p count_instances;#P window linecount 0;#P newex 16 177 103 196617 s jcom.analysis.done;#N vpatcher 60 124 667 585;#P origin -52 27;#P window setfont "Sans Serif" 9.;#P window linecount 0;#N coll jcom.modules_instances 1;#P newobj 16 380 147 196617 coll jcom.modules_instances 1;#N coll jcom.modules_returns 1;#P newobj 16 347 139 196617 coll jcom.modules_returns 1;#N coll jcom.modules_messages 1;#P newobj 18 315 148 196617 coll jcom.modules_messages 1;#N coll jcom.modules_parameters 1;#P newobj 18 285 157 196617 coll jcom.modules_parameters 1;#P newex 18 219 72 196617 prepend store;#P newex 18 80 150 196617 s jcom.remote.modules.browse;#P newex 18 197 154 196617 r jcom.remote.modules.register;#N coll jcom.modules_attributes 1;#P newobj 18 251 150 196617 coll jcom.modules_attributes 1;#P newex 18 55 360 196617 t b b clear;#P inlet 18 30 15 0;#P window linecount 1;#P newex 193 191 72 196617 prepend store;#P newex 193 167 77 196617 zl join;#N coll jcom.namespace 1;#P newobj 193 215 111 196617 coll jcom.namespace 1;#P newex 193 131 51 196617 zl slice 1;#P newex 193 98 166 196617 r jcom.remote.namespace.register;#P newex 193 77 162 196617 s jcom.remote.namespace.browse;#P fasten 7 2 14 0 373 341 21 341;#P lcolor 6;#P fasten 7 2 15 0 373 373 21 373;#P lcolor 6;#P connect 6 0 7 0;#P connect 7 0 10 0;#P connect 9 0 11 0;#P fasten 7 2 8 0 373 242 23 242;#P lcolor 6;#P connect 11 0 8 0;#P fasten 7 2 12 0 373 275 23 275;#P lcolor 6;#P fasten 7 2 13 0 373 309 23 309;#P lcolor 6;#P connect 7 1 0 0;#P connect 1 0 2 0;#P connect 2 0 4 0;#P connect 4 0 5 0;#P fasten 7 2 3 0 373 211 198 211;#P lcolor 6;#P connect 5 0 3 0;#P fasten 1 0 4 1 198 122 265 122;#P pop;#P newobj 820 72 66 196617 p namespace;#P newex 16 48 815 196617 t b dump dump dump b;#N vpatcher 10 59 270 254;#P window setfont "Sans Serif" 9.;#P window linecount 1;#P newex 30 116 29 196617 gate;#P newex 76 80 113 196617 jcom.equals return;#P window linecount 0;#P newex 76 58 50 196617 zl nth 3;#P outlet 30 144 15 0;#P inlet 49 28 15 0;#P connect 3 0 4 0;#P connect 4 0 1 0;#P connect 0 0 4 1;#P connect 0 0 2 0;#P connect 2 0 3 0;#P pop;#P newobj 703 198 81 196617 p filt_returns;#P newex 665 100 69 196617 route symbol;#P newex 665 330 48 196617 zl join;#P newex 665 122 48 196617 t b b s;#P newex 665 304 154 196617 zl reg;#N coll jcom.modules_returns 1;#P newobj 665 376 139 196617 coll jcom.modules_returns 1;#P newex 665 354 72 196617 prepend store;#P newex 703 279 67 196617 zl group 255;#P newex 703 247 50 196617 zl slice 1;#P newex 703 226 98 196617 jcom.oscroute;#P newex 703 143 116 196617 t dump s s;#N coll jcom.modules_attributes 1;#P newobj 619 75 150 196617 coll jcom.modules_attributes 1;#N coll jcom.namespace 1;#P newobj 703 172 107 196617 coll jcom.namespace 1;#N vpatcher 10 59 270 254;#P window setfont "Sans Serif" 9.;#P window linecount 1;#P newex 30 116 29 196617 gate;#P newex 76 80 113 196617 jcom.equals message;#P window linecount 0;#P newex 76 58 50 196617 zl nth 3;#P outlet 30 144 15 0;#P inlet 49 28 15 0;#P connect 3 0 4 0;#P connect 4 0 1 0;#P connect 0 0 4 1;#P connect 0 0 2 0;#P connect 2 0 3 0;#P pop;#P newobj 502 199 81 196617 p filt_messages;#P newex 464 101 69 196617 route symbol;#P newex 464 331 48 196617 zl join;#P newex 464 123 48 196617 t b b s;#P newex 464 305 154 196617 zl reg;#N coll jcom.modules_messages 1;#P newobj 464 377 148 196617 coll jcom.modules_messages 1;#P newex 464 355 72 196617 prepend store;#P newex 502 280 67 196617 zl group 255;#P newex 502 248 50 196617 zl slice 1;#P newex 502 227 98 196617 jcom.oscroute;#P newex 502 144 116 196617 t dump s s;#N coll jcom.modules_attributes 1;#P newobj 418 76 150 196617 coll jcom.modules_attributes 1;#N coll jcom.namespace 1;#P newobj 502 171 107 196617 coll jcom.namespace 1;#N vpatcher 10 59 270 254;#P window setfont "Sans Serif" 9.;#P window linecount 1;#P newex 30 116 29 196617 gate;#P newex 76 80 113 196617 jcom.equals parameter;#P window linecount 0;#P newex 76 58 50 196617 zl nth 3;#P outlet 30 144 15 0;#P inlet 49 28 15 0;#P connect 3 0 4 0;#P connect 4 0 1 0;#P connect 0 0 4 1;#P connect 0 0 2 0;#P connect 2 0 3 0;#P pop;#P newobj 301 203 71 196617 p filt_params;#P newex 263 105 69 196617 route symbol;#P newex 263 335 48 196617 zl join;#P newex 263 127 48 196617 t b b s;#P newex 263 309 154 196617 zl reg;#N coll jcom.modules_parameters 1;#P newobj 263 381 157 196617 coll jcom.modules_parameters 1;#P newex 263 359 72 196617 prepend store;#P newex 301 284 67 196617 zl group 255;#P newex 301 252 50 196617 zl slice 1;#P newex 301 231 98 196617 jcom.oscroute;#P newex 301 148 116 196617 t dump s s;#N coll jcom.modules_attributes 1;#P newobj 217 80 150 196617 coll jcom.modules_attributes 1;#N coll jcom.namespace 1;#P newobj 301 177 107 196617 coll jcom.namespace 1;#P inlet 16 27 15 0;#P connect 0 0 40 0;#P connect 40 0 44 0;#P connect 44 0 45 0;#P connect 45 0 42 0;#P connect 45 0 46 0;#P fasten 44 1 48 0 101 94 89 94;#P connect 44 1 47 0;#P fasten 44 2 43 0 181 142 101 142;#P connect 40 1 2 0;#P connect 2 1 12 0;#P connect 12 0 10 0;#P connect 10 0 9 0;#P connect 9 0 11 0;#P connect 11 0 7 0;#P connect 7 0 8 0;#P connect 10 2 3 0;#P connect 3 0 1 0;#P connect 1 0 13 0;#P connect 13 0 4 0;#P connect 4 0 5 0;#P connect 5 0 6 0;#P fasten 10 1 6 0 287 276 306 276;#P connect 6 0 11 1;#P fasten 3 1 4 1 359 171 394 171;#P connect 3 2 9 1;#P connect 40 2 15 0;#P connect 15 1 25 0;#P connect 25 0 23 0;#P connect 23 0 22 0;#P connect 22 0 24 0;#P connect 24 0 20 0;#P connect 20 0 21 0;#P connect 23 2 16 0;#P connect 16 0 14 0;#P connect 14 0 26 0;#P connect 26 0 17 0;#P connect 17 0 18 0;#P fasten 23 1 19 0 488 272 507 272;#P connect 18 0 19 0;#P connect 19 0 24 1;#P fasten 16 1 17 1 560 166 595 166;#P connect 16 2 22 1;#P connect 40 3 28 0;#P connect 28 1 38 0;#P connect 38 0 36 0;#P connect 36 0 35 0;#P connect 35 0 37 0;#P connect 37 0 33 0;#P connect 33 0 34 0;#P connect 36 2 29 0;#P connect 29 0 27 0;#P connect 27 0 39 0;#P connect 39 0 30 0;#P connect 30 0 31 0;#P connect 31 0 32 0;#P fasten 36 1 32 0 689 271 708 271;#P connect 32 0 37 1;#P fasten 29 1 30 1 761 165 796 165;#P connect 29 2 35 1;#P connect 40 4 41 0;#P pop;#P newobj 33 83 50 196617 p analyse;#P connect 2 0 1 0;#P connect 1 1 0 0;#P connect 1 0 0 0;#P connect 0 0 16 0;#P connect 16 0 17 0;#P connect 1 2 3 0;#P connect 3 0 4 0;#P connect 4 0 5 0;#P connect 4 1 6 0;#P connect 4 2 7 0;#P connect 4 3 8 0;#P connect 4 4 9 0;#P connect 3 1 10 0;#P connect 10 0 11 0;#P fasten 16 0 12 0 38 151 388 151;#P fasten 20 0 12 0 742 175 388 175;#P fasten 13 0 12 0 438 151 388 151;#P fasten 19 0 12 0 638 175 388 175;#P fasten 15 0 12 0 538 151 388 151;#P fasten 14 0 12 0 488 151 388 151;#P connect 11 0 12 0;#P fasten 10 4 13 0 588 123 438 123;#P connect 10 1 13 0;#P fasten 10 4 14 0 588 123 488 123;#P connect 10 2 14 0;#P fasten 10 4 15 0 588 123 538 123;#P connect 10 3 15 0;#P connect 10 5 18 0;#P connect 18 0 19 0;#P connect 18 1 20 0;#P pop;