max v2;#N vpatcher 20 74 341 409;#P window setfont "Sans Serif" 9.;#P window linecount 1;#P newex 36 230 51 196617 zl join;#P newex 36 130 51 196617 zl slice 1;#P message 145 122 52 196617 \$1 \$1 \$1;#P newex 145 101 131 196617 if $f1==0. then 1. else $f1;#P newex 145 78 65 196617 route radius;#P newex 36 255 65 196617 prepend xyz;#P newex 180 163 21 196617 t 1;#P newex 77 205 93 196617 zl join;#P newex 77 180 78 196617 vexpr $f1/$f2;#P newex 77 155 93 196617 zl slice 3;#P newex 36 56 100 196617 jcom.oscroute /xyz;#P newex 60 29 115 196617 patcherargs @radius 1.;#P outlet 36 280 15 0;#P inlet 36 29 15 0;#P connect 0 0 3 0;#P fasten 2 1 3 0 170 51 41 51;#P connect 3 0 12 0;#P connect 12 0 13 0;#P connect 13 0 8 0;#P connect 8 0 1 0;#P connect 12 1 4 0;#P connect 4 0 5 0;#P connect 5 0 6 0;#P connect 6 0 13 1;#P connect 3 1 9 0;#P connect 9 0 10 0;#P connect 10 0 11 0;#P connect 11 0 5 1;#P connect 4 1 6 1;#P connect 7 0 6 1;#P connect 3 0 7 0;#P pop;