max v2;#N vpatcher 0 44 329 326;#P outlet 60 221 15 0;#P inlet 60 44 15 0;#P window setfont "Sans Serif" 9.;#P window linecount 1;#P newex 60 185 46 196617 zl group;#P newex 60 71 27 196617 t b l;#P newex 213 148 73 196617 t msg_symbol;#P newex 145 148 53 196617 t msg_int;#P newex 77 148 62 196617 t msg_float;#P newex 77 95 25 196617 iter;#P newex 77 119 147 196617 route float int;#P connect 7 0 5 0;#P connect 5 0 6 0;#P fasten 4 0 6 0 218 175 65 175;#P fasten 3 0 6 0 150 175 65 175;#P fasten 2 0 6 0 82 175 65 175;#P connect 6 0 8 0;#P connect 5 1 1 0;#P connect 1 0 0 0;#P connect 0 0 2 0;#P connect 0 1 3 0;#P connect 0 2 4 0;#P pop;