{
	"patcher" : 	{
		"fileversion" : 1,
		"rect" : [ 282.0, 218.0, 257.0, 45.0 ],
		"bgcolor" : [ 0.27451, 0.27451, 0.27451, 1.0 ],
		"bglocked" : 0,
		"defrect" : [ 282.0, 218.0, 257.0, 45.0 ],
		"openrect" : [ 0.0, 0.0, 0.0, 0.0 ],
		"openinpresentation" : 0,
		"default_fontsize" : 10.0,
		"default_fontface" : 0,
		"default_fontname" : "Arial",
		"gridonopen" : 0,
		"gridsize" : [ 5.0, 5.0 ],
		"gridsnaponopen" : 0,
		"toolbarvisible" : 0,
		"boxanimatetime" : 200,
		"imprint" : 0,
		"metadata" : [  ],
		"boxes" : [ 			{
				"box" : 				{
					"maxclass" : "newobj",
					"text" : "t select",
					"fontname" : "Arial",
					"id" : "obj-1",
					"numinlets" : 1,
					"hidden" : 1,
					"numoutlets" : 1,
					"patching_rect" : [ 164.0, -15.0, 50.0, 17.0 ],
					"fontsize" : 9.0,
					"outlettype" : [ "select" ]
				}

			}
, 			{
				"box" : 				{
					"maxclass" : "newobj",
					"text" : "deferlow",
					"fontname" : "Arial",
					"id" : "obj-2",
					"numinlets" : 1,
					"hidden" : 1,
					"numoutlets" : 1,
					"patching_rect" : [ -22.0, 127.0, 50.0, 17.0 ],
					"fontsize" : 9.0,
					"outlettype" : [ "" ]
				}

			}
, 			{
				"box" : 				{
					"maxclass" : "message",
					"text" : "nogrow, etc....",
					"fontname" : "Arial",
					"id" : "obj-3",
					"numinlets" : 2,
					"numoutlets" : 1,
					"patching_rect" : [ 178.0, 59.0, 76.0, 15.0 ],
					"fontsize" : 9.0,
					"outlettype" : [ "" ]
				}

			}
, 			{
				"box" : 				{
					"maxclass" : "newobj",
					"text" : "thispatcher",
					"fontname" : "Arial",
					"id" : "obj-4",
					"numinlets" : 1,
					"hidden" : 1,
					"numoutlets" : 2,
					"patching_rect" : [ 177.0, 100.0, 61.0, 17.0 ],
					"fontsize" : 9.0,
					"outlettype" : [ "", "" ],
					"save" : [ "#N", "thispatcher", ";", "#Q", "end", ";" ]
				}

			}
, 			{
				"box" : 				{
					"maxclass" : "newobj",
					"text" : "p grow",
					"fontname" : "Arial",
					"id" : "obj-5",
					"numinlets" : 2,
					"hidden" : 1,
					"numoutlets" : 1,
					"patching_rect" : [ 176.0, 80.0, 50.0, 17.0 ],
					"fontsize" : 9.0,
					"outlettype" : [ "" ],
					"patcher" : 					{
						"fileversion" : 1,
						"rect" : [ 587.0, 236.0, 484.0, 192.0 ],
						"bglocked" : 0,
						"defrect" : [ 587.0, 236.0, 484.0, 192.0 ],
						"openrect" : [ 0.0, 0.0, 0.0, 0.0 ],
						"openinpresentation" : 0,
						"default_fontsize" : 10.0,
						"default_fontface" : 0,
						"default_fontname" : "Arial",
						"gridonopen" : 0,
						"gridsize" : [ 5.0, 5.0 ],
						"gridsnaponopen" : 0,
						"toolbarvisible" : 1,
						"boxanimatetime" : 200,
						"imprint" : 0,
						"metadata" : [  ],
						"boxes" : [ 							{
								"box" : 								{
									"maxclass" : "newobj",
									"text" : "loadbang",
									"fontname" : "Arial",
									"id" : "obj-1",
									"numinlets" : 1,
									"numoutlets" : 1,
									"patching_rect" : [ 80.0, 29.0, 50.0, 17.0 ],
									"fontsize" : 9.0,
									"outlettype" : [ "bang" ]
								}

							}
, 							{
								"box" : 								{
									"maxclass" : "button",
									"id" : "obj-2",
									"numinlets" : 1,
									"numoutlets" : 1,
									"patching_rect" : [ 62.0, 29.0, 15.0, 15.0 ],
									"outlettype" : [ "bang" ]
								}

							}
, 							{
								"box" : 								{
									"maxclass" : "inlet",
									"id" : "obj-3",
									"numinlets" : 0,
									"numoutlets" : 1,
									"patching_rect" : [ 45.0, 29.0, 15.0, 15.0 ],
									"outlettype" : [ "" ],
									"comment" : ""
								}

							}
, 							{
								"box" : 								{
									"maxclass" : "inlet",
									"id" : "obj-4",
									"numinlets" : 0,
									"numoutlets" : 1,
									"patching_rect" : [ 24.0, 29.0, 15.0, 15.0 ],
									"outlettype" : [ "bang" ],
									"comment" : ""
								}

							}
, 							{
								"box" : 								{
									"maxclass" : "outlet",
									"id" : "obj-5",
									"numinlets" : 1,
									"numoutlets" : 0,
									"patching_rect" : [ 24.0, 99.0, 15.0, 15.0 ],
									"comment" : ""
								}

							}
, 							{
								"box" : 								{
									"maxclass" : "message",
									"text" : "window size 500 300 757 345, window flags nogrow, window flags float, window exec",
									"fontname" : "Arial",
									"id" : "obj-6",
									"numinlets" : 2,
									"numoutlets" : 1,
									"patching_rect" : [ 45.0, 71.0, 406.0, 15.0 ],
									"fontsize" : 9.0,
									"outlettype" : [ "" ]
								}

							}
, 							{
								"box" : 								{
									"maxclass" : "message",
									"text" : "window flags grow, window flags nofloat, window exec",
									"fontname" : "Arial",
									"id" : "obj-7",
									"numinlets" : 2,
									"numoutlets" : 1,
									"patching_rect" : [ 24.0, 49.0, 260.0, 15.0 ],
									"fontsize" : 9.0,
									"outlettype" : [ "" ]
								}

							}
 ],
						"lines" : [ 							{
								"patchline" : 								{
									"source" : [ "obj-1", 0 ],
									"destination" : [ "obj-2", 0 ],
									"hidden" : 0,
									"midpoints" : [  ]
								}

							}
, 							{
								"patchline" : 								{
									"source" : [ "obj-3", 0 ],
									"destination" : [ "obj-2", 0 ],
									"hidden" : 0,
									"midpoints" : [  ]
								}

							}
, 							{
								"patchline" : 								{
									"source" : [ "obj-2", 0 ],
									"destination" : [ "obj-6", 0 ],
									"hidden" : 0,
									"midpoints" : [  ]
								}

							}
, 							{
								"patchline" : 								{
									"source" : [ "obj-6", 0 ],
									"destination" : [ "obj-5", 0 ],
									"hidden" : 0,
									"midpoints" : [  ]
								}

							}
, 							{
								"patchline" : 								{
									"source" : [ "obj-7", 0 ],
									"destination" : [ "obj-5", 0 ],
									"hidden" : 0,
									"midpoints" : [  ]
								}

							}
, 							{
								"patchline" : 								{
									"source" : [ "obj-4", 0 ],
									"destination" : [ "obj-7", 0 ],
									"hidden" : 0,
									"midpoints" : [  ]
								}

							}
 ]
					}
,
					"saved_object_attributes" : 					{
						"fontname" : "Arial",
						"default_fontface" : 0,
						"globalpatchername" : "",
						"default_fontname" : "Arial",
						"fontface" : 0,
						"fontsize" : 10.0,
						"default_fontsize" : 10.0
					}

				}

			}
, 			{
				"box" : 				{
					"maxclass" : "button",
					"id" : "obj-6",
					"numinlets" : 1,
					"hidden" : 1,
					"numoutlets" : 1,
					"patching_rect" : [ 140.0, 24.0, 15.0, 15.0 ],
					"outlettype" : [ "bang" ]
				}

			}
, 			{
				"box" : 				{
					"maxclass" : "newobj",
					"text" : "p store",
					"fontname" : "Arial",
					"id" : "obj-8",
					"numinlets" : 3,
					"hidden" : 1,
					"numoutlets" : 1,
					"patching_rect" : [ 81.0, 78.0, 44.0, 17.0 ],
					"fontsize" : 9.0,
					"outlettype" : [ "" ],
					"patcher" : 					{
						"fileversion" : 1,
						"rect" : [ 656.0, 69.0, 248.0, 309.0 ],
						"bglocked" : 0,
						"defrect" : [ 656.0, 69.0, 248.0, 309.0 ],
						"openrect" : [ 0.0, 0.0, 0.0, 0.0 ],
						"openinpresentation" : 0,
						"default_fontsize" : 10.0,
						"default_fontface" : 0,
						"default_fontname" : "Arial",
						"gridonopen" : 0,
						"gridsize" : [ 5.0, 5.0 ],
						"gridsnaponopen" : 0,
						"toolbarvisible" : 1,
						"boxanimatetime" : 200,
						"imprint" : 0,
						"metadata" : [  ],
						"boxes" : [ 							{
								"box" : 								{
									"maxclass" : "newobj",
									"text" : "prepend /preset/store",
									"linecount" : 2,
									"fontname" : "Arial",
									"id" : "obj-1",
									"numinlets" : 1,
									"numoutlets" : 1,
									"patching_rect" : [ 0.0, 196.0, 77.0, 27.0 ],
									"fontsize" : 9.0,
									"outlettype" : [ "" ]
								}

							}
, 							{
								"box" : 								{
									"maxclass" : "newobj",
									"text" : "i",
									"fontname" : "Arial",
									"id" : "obj-2",
									"numinlets" : 2,
									"numoutlets" : 1,
									"patching_rect" : [ 0.0, 172.0, 36.0, 17.0 ],
									"fontsize" : 9.0,
									"outlettype" : [ "int" ]
								}

							}
, 							{
								"box" : 								{
									"maxclass" : "inlet",
									"id" : "obj-3",
									"numinlets" : 0,
									"numoutlets" : 1,
									"patching_rect" : [ 0.0, 148.0, 15.0, 15.0 ],
									"outlettype" : [ "bang" ],
									"comment" : ""
								}

							}
, 							{
								"box" : 								{
									"maxclass" : "outlet",
									"id" : "obj-4",
									"numinlets" : 1,
									"numoutlets" : 0,
									"patching_rect" : [ 82.0, 231.0, 15.0, 15.0 ],
									"comment" : ""
								}

							}
, 							{
								"box" : 								{
									"maxclass" : "newobj",
									"text" : "sprintf /preset/store %ld %s",
									"fontname" : "Arial",
									"id" : "obj-5",
									"numinlets" : 2,
									"numoutlets" : 1,
									"patching_rect" : [ 82.0, 200.0, 146.0, 17.0 ],
									"fontsize" : 9.0,
									"outlettype" : [ "" ]
								}

							}
, 							{
								"box" : 								{
									"maxclass" : "newobj",
									"text" : "i",
									"fontname" : "Arial",
									"id" : "obj-6",
									"numinlets" : 2,
									"numoutlets" : 1,
									"patching_rect" : [ 82.0, 175.0, 36.0, 17.0 ],
									"fontsize" : 9.0,
									"outlettype" : [ "int" ]
								}

							}
, 							{
								"box" : 								{
									"maxclass" : "newobj",
									"text" : "sel bang",
									"fontname" : "Arial",
									"id" : "obj-7",
									"numinlets" : 1,
									"numoutlets" : 2,
									"patching_rect" : [ 131.0, 65.0, 46.0, 17.0 ],
									"fontsize" : 9.0,
									"outlettype" : [ "bang", "" ]
								}

							}
, 							{
								"box" : 								{
									"maxclass" : "newobj",
									"text" : "route text",
									"fontname" : "Arial",
									"id" : "obj-8",
									"numinlets" : 1,
									"numoutlets" : 2,
									"patching_rect" : [ 131.0, 44.0, 56.0, 17.0 ],
									"fontsize" : 9.0,
									"outlettype" : [ "", "" ]
								}

							}
, 							{
								"box" : 								{
									"maxclass" : "newobj",
									"text" : "tosymbol",
									"fontname" : "Arial",
									"id" : "obj-9",
									"numinlets" : 1,
									"numoutlets" : 1,
									"patching_rect" : [ 131.0, 90.0, 50.0, 17.0 ],
									"fontsize" : 9.0,
									"outlettype" : [ "" ]
								}

							}
, 							{
								"box" : 								{
									"maxclass" : "newobj",
									"text" : "t b s",
									"fontname" : "Arial",
									"id" : "obj-10",
									"numinlets" : 1,
									"numoutlets" : 2,
									"patching_rect" : [ 82.0, 128.0, 146.0, 17.0 ],
									"fontsize" : 9.0,
									"outlettype" : [ "bang", "" ]
								}

							}
, 							{
								"box" : 								{
									"maxclass" : "inlet",
									"id" : "obj-11",
									"numinlets" : 0,
									"numoutlets" : 1,
									"patching_rect" : [ 131.0, 16.0, 15.0, 15.0 ],
									"outlettype" : [ "" ],
									"comment" : ""
								}

							}
, 							{
								"box" : 								{
									"maxclass" : "inlet",
									"id" : "obj-12",
									"numinlets" : 0,
									"numoutlets" : 1,
									"patching_rect" : [ 108.0, 151.0, 15.0, 15.0 ],
									"outlettype" : [ "int" ],
									"comment" : ""
								}

							}
 ],
						"lines" : [ 							{
								"patchline" : 								{
									"source" : [ "obj-10", 1 ],
									"destination" : [ "obj-5", 1 ],
									"hidden" : 0,
									"midpoints" : [  ]
								}

							}
, 							{
								"patchline" : 								{
									"source" : [ "obj-7", 1 ],
									"destination" : [ "obj-9", 0 ],
									"hidden" : 0,
									"midpoints" : [  ]
								}

							}
, 							{
								"patchline" : 								{
									"source" : [ "obj-8", 0 ],
									"destination" : [ "obj-7", 0 ],
									"hidden" : 0,
									"midpoints" : [  ]
								}

							}
, 							{
								"patchline" : 								{
									"source" : [ "obj-11", 0 ],
									"destination" : [ "obj-8", 0 ],
									"hidden" : 0,
									"midpoints" : [  ]
								}

							}
, 							{
								"patchline" : 								{
									"source" : [ "obj-12", 0 ],
									"destination" : [ "obj-6", 1 ],
									"hidden" : 0,
									"midpoints" : [  ]
								}

							}
, 							{
								"patchline" : 								{
									"source" : [ "obj-5", 0 ],
									"destination" : [ "obj-4", 0 ],
									"hidden" : 0,
									"midpoints" : [  ]
								}

							}
, 							{
								"patchline" : 								{
									"source" : [ "obj-1", 0 ],
									"destination" : [ "obj-4", 0 ],
									"hidden" : 0,
									"midpoints" : [ 9.5, 228.0, 91.0, 228.0 ]
								}

							}
, 							{
								"patchline" : 								{
									"source" : [ "obj-6", 0 ],
									"destination" : [ "obj-5", 0 ],
									"hidden" : 0,
									"midpoints" : [  ]
								}

							}
, 							{
								"patchline" : 								{
									"source" : [ "obj-10", 0 ],
									"destination" : [ "obj-6", 0 ],
									"hidden" : 0,
									"midpoints" : [  ]
								}

							}
, 							{
								"patchline" : 								{
									"source" : [ "obj-9", 0 ],
									"destination" : [ "obj-10", 0 ],
									"hidden" : 0,
									"midpoints" : [  ]
								}

							}
, 							{
								"patchline" : 								{
									"source" : [ "obj-12", 0 ],
									"destination" : [ "obj-2", 1 ],
									"hidden" : 0,
									"midpoints" : [  ]
								}

							}
, 							{
								"patchline" : 								{
									"source" : [ "obj-2", 0 ],
									"destination" : [ "obj-1", 0 ],
									"hidden" : 0,
									"midpoints" : [  ]
								}

							}
, 							{
								"patchline" : 								{
									"source" : [ "obj-3", 0 ],
									"destination" : [ "obj-2", 0 ],
									"hidden" : 0,
									"midpoints" : [  ]
								}

							}
 ]
					}
,
					"saved_object_attributes" : 					{
						"fontname" : "Arial",
						"default_fontface" : 0,
						"globalpatchername" : "",
						"default_fontname" : "Arial",
						"fontface" : 0,
						"fontsize" : 10.0,
						"default_fontsize" : 10.0
					}

				}

			}
, 			{
				"box" : 				{
					"maxclass" : "textedit",
					"fontname" : "Geneva",
					"id" : "obj-9",
					"outputmode" : 1,
					"numinlets" : 1,
					"lines" : 1,
					"frgb" : [ 0.694118, 0.694118, 0.694118, 1.0 ],
					"numoutlets" : 3,
					"patching_rect" : [ 162.0, 4.0, 92.0, 17.0 ],
					"fontsize" : 9.0,
					"outlettype" : [ "", "int", "" ],
					"keymode" : 1,
					"tabmode" : 0,
					"clickmode" : 1
				}

			}
, 			{
				"box" : 				{
					"maxclass" : "button",
					"id" : "obj-10",
					"numinlets" : 1,
					"numoutlets" : 1,
					"patching_rect" : [ 146.0, 5.0, 15.0, 15.0 ],
					"outlettype" : [ "bang" ]
				}

			}
, 			{
				"box" : 				{
					"maxclass" : "number",
					"fontname" : "Arial",
					"triscale" : 0.9,
					"bgcolor" : [ 0.866667, 0.866667, 0.866667, 1.0 ],
					"id" : "obj-11",
					"numinlets" : 1,
					"numoutlets" : 2,
					"patching_rect" : [ 112.0, 5.0, 35.0, 17.0 ],
					"fontsize" : 9.0,
					"textcolor" : [ 0.0, 0.0, 0.0, 1.0 ],
					"outlettype" : [ "int", "bang" ],
					"htextcolor" : [ 0.870588, 0.870588, 0.870588, 1.0 ]
				}

			}
, 			{
				"box" : 				{
					"maxclass" : "newobj",
					"text" : "p copy",
					"fontname" : "Arial",
					"id" : "obj-12",
					"numinlets" : 2,
					"hidden" : 1,
					"numoutlets" : 1,
					"patching_rect" : [ 128.0, 79.0, 44.0, 17.0 ],
					"fontsize" : 9.0,
					"outlettype" : [ "" ],
					"patcher" : 					{
						"fileversion" : 1,
						"rect" : [ 14.0, 59.0, 248.0, 309.0 ],
						"bglocked" : 0,
						"defrect" : [ 14.0, 59.0, 248.0, 309.0 ],
						"openrect" : [ 0.0, 0.0, 0.0, 0.0 ],
						"openinpresentation" : 0,
						"default_fontsize" : 10.0,
						"default_fontface" : 0,
						"default_fontname" : "Arial",
						"gridonopen" : 0,
						"gridsize" : [ 5.0, 5.0 ],
						"gridsnaponopen" : 0,
						"toolbarvisible" : 1,
						"boxanimatetime" : 200,
						"imprint" : 0,
						"metadata" : [  ],
						"boxes" : [ 							{
								"box" : 								{
									"maxclass" : "newobj",
									"text" : "tosymbol",
									"fontname" : "Arial",
									"id" : "obj-1",
									"numinlets" : 1,
									"numoutlets" : 1,
									"patching_rect" : [ 10.0, 189.0, 50.0, 17.0 ],
									"fontsize" : 9.0,
									"outlettype" : [ "" ]
								}

							}
, 							{
								"box" : 								{
									"maxclass" : "outlet",
									"id" : "obj-2",
									"numinlets" : 1,
									"numoutlets" : 0,
									"patching_rect" : [ 10.0, 237.0, 15.0, 15.0 ],
									"comment" : ""
								}

							}
, 							{
								"box" : 								{
									"maxclass" : "newobj",
									"text" : "sprintf /preset/copy %s %s",
									"fontname" : "Arial",
									"id" : "obj-3",
									"numinlets" : 2,
									"numoutlets" : 1,
									"patching_rect" : [ 10.0, 212.0, 138.0, 17.0 ],
									"fontsize" : 9.0,
									"outlettype" : [ "" ]
								}

							}
, 							{
								"box" : 								{
									"maxclass" : "newobj",
									"text" : "zl reg",
									"fontname" : "Arial",
									"id" : "obj-4",
									"numinlets" : 2,
									"numoutlets" : 2,
									"patching_rect" : [ 10.0, 169.0, 36.0, 17.0 ],
									"fontsize" : 9.0,
									"outlettype" : [ "", "" ]
								}

							}
, 							{
								"box" : 								{
									"maxclass" : "newobj",
									"text" : "sel bang",
									"fontname" : "Arial",
									"id" : "obj-5",
									"numinlets" : 1,
									"numoutlets" : 2,
									"patching_rect" : [ 59.0, 59.0, 46.0, 17.0 ],
									"fontsize" : 9.0,
									"outlettype" : [ "bang", "" ]
								}

							}
, 							{
								"box" : 								{
									"maxclass" : "newobj",
									"text" : "route text",
									"fontname" : "Arial",
									"id" : "obj-6",
									"numinlets" : 1,
									"numoutlets" : 2,
									"patching_rect" : [ 59.0, 38.0, 56.0, 17.0 ],
									"fontsize" : 9.0,
									"outlettype" : [ "", "" ]
								}

							}
, 							{
								"box" : 								{
									"maxclass" : "newobj",
									"text" : "tosymbol",
									"fontname" : "Arial",
									"id" : "obj-7",
									"numinlets" : 1,
									"numoutlets" : 1,
									"patching_rect" : [ 59.0, 84.0, 50.0, 17.0 ],
									"fontsize" : 9.0,
									"outlettype" : [ "" ]
								}

							}
, 							{
								"box" : 								{
									"maxclass" : "newobj",
									"text" : "t b s",
									"fontname" : "Arial",
									"id" : "obj-8",
									"numinlets" : 1,
									"numoutlets" : 2,
									"patching_rect" : [ 10.0, 122.0, 138.0, 17.0 ],
									"fontsize" : 9.0,
									"outlettype" : [ "bang", "" ]
								}

							}
, 							{
								"box" : 								{
									"maxclass" : "inlet",
									"id" : "obj-9",
									"numinlets" : 0,
									"numoutlets" : 1,
									"patching_rect" : [ 59.0, 10.0, 15.0, 15.0 ],
									"outlettype" : [ "" ],
									"comment" : ""
								}

							}
, 							{
								"box" : 								{
									"maxclass" : "inlet",
									"id" : "obj-10",
									"numinlets" : 0,
									"numoutlets" : 1,
									"patching_rect" : [ 36.0, 145.0, 15.0, 15.0 ],
									"outlettype" : [ "" ],
									"comment" : ""
								}

							}
 ],
						"lines" : [ 							{
								"patchline" : 								{
									"source" : [ "obj-8", 1 ],
									"destination" : [ "obj-3", 1 ],
									"hidden" : 0,
									"midpoints" : [  ]
								}

							}
, 							{
								"patchline" : 								{
									"source" : [ "obj-5", 1 ],
									"destination" : [ "obj-7", 0 ],
									"hidden" : 0,
									"midpoints" : [  ]
								}

							}
, 							{
								"patchline" : 								{
									"source" : [ "obj-6", 0 ],
									"destination" : [ "obj-5", 0 ],
									"hidden" : 0,
									"midpoints" : [  ]
								}

							}
, 							{
								"patchline" : 								{
									"source" : [ "obj-9", 0 ],
									"destination" : [ "obj-6", 0 ],
									"hidden" : 0,
									"midpoints" : [  ]
								}

							}
, 							{
								"patchline" : 								{
									"source" : [ "obj-10", 0 ],
									"destination" : [ "obj-4", 1 ],
									"hidden" : 0,
									"midpoints" : [  ]
								}

							}
, 							{
								"patchline" : 								{
									"source" : [ "obj-3", 0 ],
									"destination" : [ "obj-2", 0 ],
									"hidden" : 0,
									"midpoints" : [  ]
								}

							}
, 							{
								"patchline" : 								{
									"source" : [ "obj-1", 0 ],
									"destination" : [ "obj-3", 0 ],
									"hidden" : 0,
									"midpoints" : [  ]
								}

							}
, 							{
								"patchline" : 								{
									"source" : [ "obj-4", 0 ],
									"destination" : [ "obj-1", 0 ],
									"hidden" : 0,
									"midpoints" : [  ]
								}

							}
, 							{
								"patchline" : 								{
									"source" : [ "obj-8", 0 ],
									"destination" : [ "obj-4", 0 ],
									"hidden" : 0,
									"midpoints" : [  ]
								}

							}
, 							{
								"patchline" : 								{
									"source" : [ "obj-7", 0 ],
									"destination" : [ "obj-8", 0 ],
									"hidden" : 0,
									"midpoints" : [  ]
								}

							}
 ]
					}
,
					"saved_object_attributes" : 					{
						"fontname" : "Arial",
						"default_fontface" : 0,
						"globalpatchername" : "",
						"default_fontname" : "Arial",
						"fontface" : 0,
						"fontsize" : 10.0,
						"default_fontsize" : 10.0
					}

				}

			}
, 			{
				"box" : 				{
					"maxclass" : "textedit",
					"fontname" : "Geneva",
					"id" : "obj-13",
					"outputmode" : 1,
					"numinlets" : 1,
					"lines" : 1,
					"frgb" : [ 0.694118, 0.694118, 0.694118, 1.0 ],
					"numoutlets" : 3,
					"patching_rect" : [ 162.0, 23.0, 92.0, 17.0 ],
					"fontsize" : 9.0,
					"outlettype" : [ "", "int", "" ],
					"keymode" : 1,
					"tabmode" : 0,
					"clickmode" : 1
				}

			}
, 			{
				"box" : 				{
					"maxclass" : "button",
					"id" : "obj-14",
					"numinlets" : 1,
					"hidden" : 1,
					"numoutlets" : 1,
					"patching_rect" : [ -11.0, 24.0, 15.0, 15.0 ],
					"outlettype" : [ "bang" ]
				}

			}
, 			{
				"box" : 				{
					"maxclass" : "message",
					"text" : "copy :",
					"fontname" : "Arial",
					"id" : "obj-15",
					"numinlets" : 2,
					"numoutlets" : 1,
					"patching_rect" : [ 4.0, 24.0, 34.0, 15.0 ],
					"fontsize" : 9.0,
					"outlettype" : [ "" ]
				}

			}
, 			{
				"box" : 				{
					"maxclass" : "umenu",
					"fontname" : "Arial",
					"id" : "obj-16",
					"numinlets" : 1,
					"types" : [  ],
					"numoutlets" : 3,
					"patching_rect" : [ 38.0, 23.0, 100.0, 17.0 ],
					"fontsize" : 9.0,
					"labelclick" : 1,
					"outlettype" : [ "int", "", "" ],
					"items" : [ "truc", ",", "machin" ],
					"arrowlink" : 1
				}

			}
, 			{
				"box" : 				{
					"maxclass" : "newobj",
					"text" : "prepend append",
					"fontname" : "Arial",
					"id" : "obj-17",
					"numinlets" : 1,
					"hidden" : 1,
					"numoutlets" : 1,
					"patching_rect" : [ 38.0, -38.0, 78.0, 17.0 ],
					"fontsize" : 9.0,
					"outlettype" : [ "" ]
				}

			}
, 			{
				"box" : 				{
					"maxclass" : "newobj",
					"text" : "t clear",
					"fontname" : "Arial",
					"id" : "obj-18",
					"numinlets" : 1,
					"hidden" : 1,
					"numoutlets" : 1,
					"patching_rect" : [ 141.0, -38.0, 40.0, 17.0 ],
					"fontsize" : 9.0,
					"outlettype" : [ "clear" ]
				}

			}
, 			{
				"box" : 				{
					"maxclass" : "newobj",
					"text" : "route menu_presets_add menu_presets_clear",
					"fontname" : "Arial",
					"id" : "obj-19",
					"numinlets" : 1,
					"hidden" : 1,
					"numoutlets" : 3,
					"patching_rect" : [ 38.0, -58.0, 216.0, 17.0 ],
					"fontsize" : 9.0,
					"outlettype" : [ "", "", "" ]
				}

			}
, 			{
				"box" : 				{
					"maxclass" : "inlet",
					"id" : "obj-20",
					"numinlets" : 0,
					"hidden" : 1,
					"numoutlets" : 1,
					"patching_rect" : [ 38.0, -82.0, 15.0, 15.0 ],
					"outlettype" : [ "" ],
					"comment" : ""
				}

			}
, 			{
				"box" : 				{
					"maxclass" : "newobj",
					"text" : "t b l",
					"fontname" : "Arial",
					"id" : "obj-21",
					"numinlets" : 1,
					"hidden" : 1,
					"numoutlets" : 2,
					"patching_rect" : [ -65.0, 104.0, 53.0, 17.0 ],
					"fontsize" : 9.0,
					"outlettype" : [ "bang", "" ]
				}

			}
, 			{
				"box" : 				{
					"maxclass" : "newobj",
					"text" : "t close",
					"fontname" : "Arial",
					"id" : "obj-22",
					"numinlets" : 1,
					"hidden" : 1,
					"numoutlets" : 1,
					"patching_rect" : [ -65.0, 128.0, 40.0, 17.0 ],
					"fontsize" : 9.0,
					"outlettype" : [ "close" ]
				}

			}
, 			{
				"box" : 				{
					"maxclass" : "outlet",
					"id" : "obj-23",
					"numinlets" : 1,
					"hidden" : 1,
					"numoutlets" : 0,
					"patching_rect" : [ -22.0, 164.0, 16.0, 16.0 ],
					"comment" : ""
				}

			}
, 			{
				"box" : 				{
					"maxclass" : "outlet",
					"id" : "obj-24",
					"numinlets" : 1,
					"hidden" : 1,
					"numoutlets" : 0,
					"patching_rect" : [ -65.0, 163.0, 15.0, 15.0 ],
					"comment" : ""
				}

			}
, 			{
				"box" : 				{
					"maxclass" : "inlet",
					"id" : "obj-25",
					"numinlets" : 0,
					"hidden" : 1,
					"numoutlets" : 1,
					"patching_rect" : [ -90.0, 163.0, 15.0, 15.0 ],
					"outlettype" : [ "" ],
					"comment" : ""
				}

			}
, 			{
				"box" : 				{
					"maxclass" : "comment",
					"text" : "to :",
					"fontname" : "Arial",
					"id" : "obj-26",
					"numinlets" : 1,
					"frgb" : [ 0.745098, 0.745098, 0.745098, 1.0 ],
					"numoutlets" : 0,
					"patching_rect" : [ 138.0, 25.0, 24.0, 17.0 ],
					"fontsize" : 9.0,
					"textcolor" : [ 0.745098, 0.745098, 0.745098, 1.0 ]
				}

			}
, 			{
				"box" : 				{
					"maxclass" : "comment",
					"text" : "store current state as :",
					"fontname" : "Arial",
					"id" : "obj-27",
					"numinlets" : 1,
					"frgb" : [ 0.709804, 0.709804, 0.709804, 1.0 ],
					"numoutlets" : 0,
					"patching_rect" : [ 2.0, 6.0, 117.0, 17.0 ],
					"fontsize" : 9.0,
					"textcolor" : [ 0.709804, 0.709804, 0.709804, 1.0 ]
				}

			}
, 			{
				"box" : 				{
					"maxclass" : "comment",
					"text" : "^ grow, etc...",
					"fontname" : "Arial",
					"id" : "obj-28",
					"numinlets" : 1,
					"frgb" : [ 0.658824, 0.658824, 0.658824, 1.0 ],
					"numoutlets" : 0,
					"patching_rect" : [ 144.0, 43.0, 100.0, 17.0 ],
					"fontsize" : 9.0
				}

			}
 ],
		"lines" : [ 			{
				"patchline" : 				{
					"source" : [ "obj-3", 0 ],
					"destination" : [ "obj-5", 1 ],
					"hidden" : 1,
					"midpoints" : [  ]
				}

			}
, 			{
				"patchline" : 				{
					"source" : [ "obj-5", 0 ],
					"destination" : [ "obj-4", 0 ],
					"hidden" : 1,
					"midpoints" : [  ]
				}

			}
, 			{
				"patchline" : 				{
					"source" : [ "obj-6", 0 ],
					"destination" : [ "obj-5", 0 ],
					"hidden" : 1,
					"midpoints" : [  ]
				}

			}
, 			{
				"patchline" : 				{
					"source" : [ "obj-11", 1 ],
					"destination" : [ "obj-1", 0 ],
					"hidden" : 1,
					"midpoints" : [  ]
				}

			}
, 			{
				"patchline" : 				{
					"source" : [ "obj-13", 0 ],
					"destination" : [ "obj-12", 1 ],
					"hidden" : 1,
					"midpoints" : [  ]
				}

			}
, 			{
				"patchline" : 				{
					"source" : [ "obj-14", 0 ],
					"destination" : [ "obj-13", 0 ],
					"hidden" : 1,
					"midpoints" : [  ]
				}

			}
, 			{
				"patchline" : 				{
					"source" : [ "obj-1", 0 ],
					"destination" : [ "obj-9", 0 ],
					"hidden" : 1,
					"midpoints" : [  ]
				}

			}
, 			{
				"patchline" : 				{
					"source" : [ "obj-19", 1 ],
					"destination" : [ "obj-18", 0 ],
					"hidden" : 1,
					"midpoints" : [  ]
				}

			}
, 			{
				"patchline" : 				{
					"source" : [ "obj-16", 1 ],
					"destination" : [ "obj-12", 0 ],
					"hidden" : 1,
					"midpoints" : [  ]
				}

			}
, 			{
				"patchline" : 				{
					"source" : [ "obj-9", 0 ],
					"destination" : [ "obj-8", 2 ],
					"hidden" : 1,
					"midpoints" : [  ]
				}

			}
, 			{
				"patchline" : 				{
					"source" : [ "obj-11", 0 ],
					"destination" : [ "obj-8", 1 ],
					"hidden" : 1,
					"midpoints" : [  ]
				}

			}
, 			{
				"patchline" : 				{
					"source" : [ "obj-10", 0 ],
					"destination" : [ "obj-8", 0 ],
					"hidden" : 1,
					"midpoints" : [  ]
				}

			}
, 			{
				"patchline" : 				{
					"source" : [ "obj-17", 0 ],
					"destination" : [ "obj-16", 0 ],
					"hidden" : 1,
					"midpoints" : [  ]
				}

			}
, 			{
				"patchline" : 				{
					"source" : [ "obj-18", 0 ],
					"destination" : [ "obj-16", 0 ],
					"hidden" : 1,
					"midpoints" : [ 150.5, -18.0, 47.5, -18.0 ]
				}

			}
, 			{
				"patchline" : 				{
					"source" : [ "obj-19", 0 ],
					"destination" : [ "obj-17", 0 ],
					"hidden" : 1,
					"midpoints" : [  ]
				}

			}
, 			{
				"patchline" : 				{
					"source" : [ "obj-20", 0 ],
					"destination" : [ "obj-19", 0 ],
					"hidden" : 1,
					"midpoints" : [  ]
				}

			}
, 			{
				"patchline" : 				{
					"source" : [ "obj-15", 0 ],
					"destination" : [ "obj-14", 0 ],
					"hidden" : 1,
					"midpoints" : [  ]
				}

			}
, 			{
				"patchline" : 				{
					"source" : [ "obj-2", 0 ],
					"destination" : [ "obj-23", 0 ],
					"hidden" : 1,
					"midpoints" : [  ]
				}

			}
, 			{
				"patchline" : 				{
					"source" : [ "obj-21", 1 ],
					"destination" : [ "obj-2", 0 ],
					"hidden" : 1,
					"midpoints" : [  ]
				}

			}
, 			{
				"patchline" : 				{
					"source" : [ "obj-22", 0 ],
					"destination" : [ "obj-24", 0 ],
					"hidden" : 1,
					"midpoints" : [  ]
				}

			}
, 			{
				"patchline" : 				{
					"source" : [ "obj-21", 0 ],
					"destination" : [ "obj-22", 0 ],
					"hidden" : 1,
					"midpoints" : [  ]
				}

			}
, 			{
				"patchline" : 				{
					"source" : [ "obj-8", 0 ],
					"destination" : [ "obj-21", 0 ],
					"hidden" : 1,
					"midpoints" : [ 90.5, 99.0, -55.5, 99.0 ]
				}

			}
, 			{
				"patchline" : 				{
					"source" : [ "obj-12", 0 ],
					"destination" : [ "obj-21", 0 ],
					"hidden" : 1,
					"midpoints" : [ 137.5, 100.0, -55.5, 100.0 ]
				}

			}
 ]
	}

}
