{
	"patcher" : 	{
		"rect" : [ 31.0, 85.0, 504.0, 269.0 ],
		"bgcolor" : [ 1.0, 1.0, 1.0, 1.0 ],
		"bglocked" : 0,
		"defrect" : [ 31.0, 85.0, 504.0, 269.0 ],
		"openinpresentation" : 0,
		"default_fontsize" : 10.0,
		"default_fontface" : 0,
		"default_fontname" : "Verdana",
		"gridonopen" : 0,
		"gridsize" : [ 5.0, 5.0 ],
		"gridsnaponopen" : 0,
		"toolbarvisible" : 1,
		"boxfadetime" : 200,
		"boxanimatetime" : 200,
		"scrollanimatetime" : 200,
		"metadata" : [  ],
		"boxes" : [ 			{
				"box" : 				{
					"maxclass" : "outlet",
					"id" : "obj-1",
					"patching_rect" : [ 438.0, 165.0, 15.0, 15.0 ],
					"numinlets" : 1,
					"numoutlets" : 0,
					"comment" : ""
				}

			}
, 			{
				"box" : 				{
					"maxclass" : "newobj",
					"text" : "p render",
					"outlettype" : [ "" ],
					"id" : "obj-2",
					"fontsize" : 9.0,
					"patching_rect" : [ 323.0, 115.0, 48.0, 17.0 ],
					"numinlets" : 1,
					"numoutlets" : 1,
					"fontname" : "Verdana",
					"patcher" : 					{
						"rect" : [ 0.0, 44.0, 443.0, 222.0 ],
						"bgcolor" : [ 1.0, 1.0, 1.0, 1.0 ],
						"bglocked" : 0,
						"defrect" : [ 0.0, 44.0, 443.0, 222.0 ],
						"openinpresentation" : 0,
						"default_fontsize" : 10.0,
						"default_fontface" : 0,
						"default_fontname" : "Verdana",
						"gridonopen" : 0,
						"gridsize" : [ 5.0, 5.0 ],
						"gridsnaponopen" : 0,
						"toolbarvisible" : 1,
						"boxfadetime" : 200,
						"boxanimatetime" : 200,
						"scrollanimatetime" : 200,
						"metadata" : [  ],
						"boxes" : [ 							{
								"box" : 								{
									"maxclass" : "newobj",
									"text" : "prepend drawto",
									"outlettype" : [ "" ],
									"id" : "obj-1",
									"fontsize" : 9.0,
									"patching_rect" : [ 290.0, 82.0, 80.0, 17.0 ],
									"numinlets" : 1,
									"numoutlets" : 1,
									"fontname" : "Verdana"
								}

							}
, 							{
								"box" : 								{
									"maxclass" : "newobj",
									"text" : "jcom.oscroute \/context",
									"outlettype" : [ "" ],
									"id" : "obj-2",
									"fontsize" : 9.0,
									"patching_rect" : [ 290.0, 51.0, 117.0, 17.0 ],
									"numinlets" : 1,
									"numoutlets" : 1,
									"fontname" : "Verdana"
								}

							}
, 							{
								"box" : 								{
									"maxclass" : "newobj",
									"text" : "jcom.pass \/antialias \/automatic \/enable \/layer",
									"outlettype" : [ "", "", "", "", "" ],
									"id" : "obj-3",
									"fontsize" : 9.0,
									"patching_rect" : [ 50.0, 50.0, 225.0, 17.0 ],
									"numinlets" : 1,
									"numoutlets" : 5,
									"fontname" : "Verdana"
								}

							}
, 							{
								"box" : 								{
									"maxclass" : "inlet",
									"outlettype" : [ "" ],
									"id" : "obj-4",
									"patching_rect" : [ 50.0, 30.0, 15.0, 15.0 ],
									"numinlets" : 0,
									"numoutlets" : 1,
									"comment" : ""
								}

							}
, 							{
								"box" : 								{
									"maxclass" : "outlet",
									"id" : "obj-5",
									"patching_rect" : [ 50.0, 132.0, 15.0, 15.0 ],
									"numinlets" : 1,
									"numoutlets" : 0,
									"comment" : ""
								}

							}
 ],
						"lines" : [ 							{
								"patchline" : 								{
									"source" : [ "obj-4", 0 ],
									"destination" : [ "obj-3", 0 ],
									"hidden" : 0
								}

							}
, 							{
								"patchline" : 								{
									"source" : [ "obj-3", 3 ],
									"destination" : [ "obj-5", 0 ],
									"hidden" : 0,
									"midpoints" : [ 214.0, 99.0, 59.0, 99.0 ]
								}

							}
, 							{
								"patchline" : 								{
									"source" : [ "obj-3", 2 ],
									"destination" : [ "obj-5", 0 ],
									"hidden" : 0,
									"midpoints" : [ 162.5, 99.0, 59.0, 99.0 ]
								}

							}
, 							{
								"patchline" : 								{
									"source" : [ "obj-3", 1 ],
									"destination" : [ "obj-5", 0 ],
									"hidden" : 0,
									"midpoints" : [ 111.0, 99.0, 59.0, 99.0 ]
								}

							}
, 							{
								"patchline" : 								{
									"source" : [ "obj-3", 0 ],
									"destination" : [ "obj-5", 0 ],
									"hidden" : 0,
									"midpoints" : [ 59.5, 99.0, 59.0, 99.0 ]
								}

							}
, 							{
								"patchline" : 								{
									"source" : [ "obj-1", 0 ],
									"destination" : [ "obj-5", 0 ],
									"hidden" : 0,
									"midpoints" : [ 299.5, 115.0, 59.0, 115.0 ]
								}

							}
, 							{
								"patchline" : 								{
									"source" : [ "obj-3", 4 ],
									"destination" : [ "obj-2", 0 ],
									"hidden" : 0
								}

							}
, 							{
								"patchline" : 								{
									"source" : [ "obj-2", 0 ],
									"destination" : [ "obj-1", 0 ],
									"hidden" : 0
								}

							}
 ]
					}
,
					"saved_object_attributes" : 					{
						"fontface" : 0,
						"default_fontsize" : 10.0,
						"fontsize" : 10.0,
						"default_fontname" : "Verdana",
						"globalpatchername" : "",
						"fontname" : "Verdana",
						"default_fontface" : 0
					}

				}

			}
, 			{
				"box" : 				{
					"maxclass" : "newobj",
					"text" : "p material",
					"outlettype" : [ "" ],
					"id" : "obj-3",
					"fontsize" : 9.0,
					"patching_rect" : [ 259.0, 115.0, 56.0, 17.0 ],
					"numinlets" : 1,
					"numoutlets" : 1,
					"fontname" : "Verdana",
					"patcher" : 					{
						"rect" : [ 0.0, 44.0, 468.0, 435.0 ],
						"bgcolor" : [ 1.0, 1.0, 1.0, 1.0 ],
						"bglocked" : 0,
						"defrect" : [ 0.0, 44.0, 468.0, 435.0 ],
						"openinpresentation" : 0,
						"default_fontsize" : 10.0,
						"default_fontface" : 0,
						"default_fontname" : "Verdana",
						"gridonopen" : 0,
						"gridsize" : [ 5.0, 5.0 ],
						"gridsnaponopen" : 0,
						"toolbarvisible" : 1,
						"boxfadetime" : 200,
						"boxanimatetime" : 200,
						"scrollanimatetime" : 200,
						"metadata" : [  ],
						"boxes" : [ 							{
								"box" : 								{
									"maxclass" : "newobj",
									"text" : "prepend shininess",
									"outlettype" : [ "" ],
									"id" : "obj-1",
									"fontsize" : 9.0,
									"patching_rect" : [ 302.0, 285.0, 89.0, 17.0 ],
									"numinlets" : 1,
									"numoutlets" : 1,
									"fontname" : "Verdana"
								}

							}
, 							{
								"box" : 								{
									"maxclass" : "newobj",
									"text" : "prepend mat_specular",
									"outlettype" : [ "" ],
									"id" : "obj-2",
									"fontsize" : 9.0,
									"patching_rect" : [ 266.0, 258.0, 109.0, 17.0 ],
									"numinlets" : 1,
									"numoutlets" : 1,
									"fontname" : "Verdana"
								}

							}
, 							{
								"box" : 								{
									"maxclass" : "newobj",
									"text" : "prepend mat_emission",
									"outlettype" : [ "" ],
									"id" : "obj-3",
									"fontsize" : 9.0,
									"patching_rect" : [ 230.0, 231.0, 110.0, 17.0 ],
									"numinlets" : 1,
									"numoutlets" : 1,
									"fontname" : "Verdana"
								}

							}
, 							{
								"box" : 								{
									"maxclass" : "newobj",
									"text" : "prepend mat_diffuse",
									"outlettype" : [ "" ],
									"id" : "obj-4",
									"fontsize" : 9.0,
									"patching_rect" : [ 194.0, 204.0, 102.0, 17.0 ],
									"numinlets" : 1,
									"numoutlets" : 1,
									"fontname" : "Verdana"
								}

							}
, 							{
								"box" : 								{
									"maxclass" : "newobj",
									"text" : "prepend lighting_enable",
									"outlettype" : [ "" ],
									"id" : "obj-5",
									"fontsize" : 9.0,
									"patching_rect" : [ 122.0, 150.0, 115.0, 17.0 ],
									"numinlets" : 1,
									"numoutlets" : 1,
									"fontname" : "Verdana"
								}

							}
, 							{
								"box" : 								{
									"maxclass" : "newobj",
									"text" : "prepend mat_ambient",
									"outlettype" : [ "" ],
									"id" : "obj-6",
									"fontsize" : 9.0,
									"patching_rect" : [ 158.0, 177.0, 106.0, 17.0 ],
									"numinlets" : 1,
									"numoutlets" : 1,
									"fontname" : "Verdana"
								}

							}
, 							{
								"box" : 								{
									"maxclass" : "newobj",
									"text" : "prepend inherit_material",
									"outlettype" : [ "" ],
									"id" : "obj-7",
									"fontsize" : 9.0,
									"patching_rect" : [ 86.0, 123.0, 122.0, 17.0 ],
									"numinlets" : 1,
									"numoutlets" : 1,
									"fontname" : "Verdana"
								}

							}
, 							{
								"box" : 								{
									"maxclass" : "newobj",
									"text" : "prepend auto_material",
									"outlettype" : [ "" ],
									"id" : "obj-8",
									"fontsize" : 9.0,
									"patching_rect" : [ 50.0, 96.0, 111.0, 17.0 ],
									"numinlets" : 1,
									"numoutlets" : 1,
									"fontname" : "Verdana"
								}

							}
, 							{
								"box" : 								{
									"maxclass" : "newobj",
									"text" : "jcom.oscroute \/automatic \/inherit \/light\/enable \/light\/ambient \/light\/diffuse \/light\/emission \/light\/specular \/shininess",
									"linecount" : 2,
									"outlettype" : [ "", "", "", "", "", "", "", "" ],
									"id" : "obj-9",
									"fontsize" : 9.0,
									"patching_rect" : [ 50.0, 50.0, 299.0, 28.0 ],
									"numinlets" : 1,
									"numoutlets" : 8,
									"fontname" : "Verdana"
								}

							}
, 							{
								"box" : 								{
									"maxclass" : "inlet",
									"outlettype" : [ "" ],
									"id" : "obj-10",
									"patching_rect" : [ 50.0, 30.0, 15.0, 15.0 ],
									"numinlets" : 0,
									"numoutlets" : 1,
									"comment" : ""
								}

							}
, 							{
								"box" : 								{
									"maxclass" : "outlet",
									"id" : "obj-11",
									"patching_rect" : [ 50.0, 360.0, 15.0, 15.0 ],
									"numinlets" : 1,
									"numoutlets" : 0,
									"comment" : ""
								}

							}
 ],
						"lines" : [ 							{
								"patchline" : 								{
									"source" : [ "obj-10", 0 ],
									"destination" : [ "obj-9", 0 ],
									"hidden" : 0
								}

							}
, 							{
								"patchline" : 								{
									"source" : [ "obj-9", 0 ],
									"destination" : [ "obj-8", 0 ],
									"hidden" : 0
								}

							}
, 							{
								"patchline" : 								{
									"source" : [ "obj-7", 0 ],
									"destination" : [ "obj-11", 0 ],
									"hidden" : 0
								}

							}
, 							{
								"patchline" : 								{
									"source" : [ "obj-3", 0 ],
									"destination" : [ "obj-11", 0 ],
									"hidden" : 0
								}

							}
, 							{
								"patchline" : 								{
									"source" : [ "obj-6", 0 ],
									"destination" : [ "obj-11", 0 ],
									"hidden" : 0
								}

							}
, 							{
								"patchline" : 								{
									"source" : [ "obj-1", 0 ],
									"destination" : [ "obj-11", 0 ],
									"hidden" : 0
								}

							}
, 							{
								"patchline" : 								{
									"source" : [ "obj-8", 0 ],
									"destination" : [ "obj-11", 0 ],
									"hidden" : 0
								}

							}
, 							{
								"patchline" : 								{
									"source" : [ "obj-5", 0 ],
									"destination" : [ "obj-11", 0 ],
									"hidden" : 0
								}

							}
, 							{
								"patchline" : 								{
									"source" : [ "obj-4", 0 ],
									"destination" : [ "obj-11", 0 ],
									"hidden" : 0
								}

							}
, 							{
								"patchline" : 								{
									"source" : [ "obj-2", 0 ],
									"destination" : [ "obj-11", 0 ],
									"hidden" : 0
								}

							}
, 							{
								"patchline" : 								{
									"source" : [ "obj-9", 1 ],
									"destination" : [ "obj-7", 0 ],
									"hidden" : 0
								}

							}
, 							{
								"patchline" : 								{
									"source" : [ "obj-9", 2 ],
									"destination" : [ "obj-5", 0 ],
									"hidden" : 0
								}

							}
, 							{
								"patchline" : 								{
									"source" : [ "obj-9", 3 ],
									"destination" : [ "obj-6", 0 ],
									"hidden" : 0
								}

							}
, 							{
								"patchline" : 								{
									"source" : [ "obj-9", 4 ],
									"destination" : [ "obj-4", 0 ],
									"hidden" : 0
								}

							}
, 							{
								"patchline" : 								{
									"source" : [ "obj-9", 5 ],
									"destination" : [ "obj-3", 0 ],
									"hidden" : 0
								}

							}
, 							{
								"patchline" : 								{
									"source" : [ "obj-9", 6 ],
									"destination" : [ "obj-2", 0 ],
									"hidden" : 0
								}

							}
, 							{
								"patchline" : 								{
									"source" : [ "obj-9", 7 ],
									"destination" : [ "obj-1", 0 ],
									"hidden" : 0
								}

							}
 ]
					}
,
					"saved_object_attributes" : 					{
						"fontface" : 0,
						"default_fontsize" : 10.0,
						"fontsize" : 10.0,
						"default_fontname" : "Verdana",
						"globalpatchername" : "",
						"fontname" : "Verdana",
						"default_fontface" : 0
					}

				}

			}
, 			{
				"box" : 				{
					"maxclass" : "newobj",
					"text" : "p fog",
					"outlettype" : [ "" ],
					"id" : "obj-4",
					"fontsize" : 9.0,
					"patching_rect" : [ 212.0, 115.0, 32.0, 17.0 ],
					"numinlets" : 1,
					"numoutlets" : 1,
					"fontname" : "Verdana",
					"patcher" : 					{
						"rect" : [ 0.0, 44.0, 442.0, 228.0 ],
						"bgcolor" : [ 1.0, 1.0, 1.0, 1.0 ],
						"bglocked" : 0,
						"defrect" : [ 0.0, 44.0, 442.0, 228.0 ],
						"openinpresentation" : 0,
						"default_fontsize" : 10.0,
						"default_fontface" : 0,
						"default_fontname" : "Verdana",
						"gridonopen" : 0,
						"gridsize" : [ 5.0, 5.0 ],
						"gridsnaponopen" : 0,
						"toolbarvisible" : 1,
						"boxfadetime" : 200,
						"boxanimatetime" : 200,
						"scrollanimatetime" : 200,
						"metadata" : [  ],
						"boxes" : [ 							{
								"box" : 								{
									"maxclass" : "newobj",
									"text" : "prepend fog",
									"outlettype" : [ "" ],
									"id" : "obj-1",
									"fontsize" : 9.0,
									"patching_rect" : [ 266.0, 81.0, 62.0, 17.0 ],
									"numinlets" : 1,
									"numoutlets" : 1,
									"fontname" : "Verdana"
								}

							}
, 							{
								"box" : 								{
									"maxclass" : "newobj",
									"text" : "prepend fog_params",
									"outlettype" : [ "" ],
									"id" : "obj-2",
									"fontsize" : 9.0,
									"patching_rect" : [ 158.0, 81.0, 101.0, 17.0 ],
									"numinlets" : 1,
									"numoutlets" : 1,
									"fontname" : "Verdana"
								}

							}
, 							{
								"box" : 								{
									"maxclass" : "newobj",
									"text" : "prepend inherit_fog",
									"outlettype" : [ "" ],
									"id" : "obj-3",
									"fontsize" : 9.0,
									"patching_rect" : [ 50.0, 80.0, 98.0, 17.0 ],
									"numinlets" : 1,
									"numoutlets" : 1,
									"fontname" : "Verdana"
								}

							}
, 							{
								"box" : 								{
									"maxclass" : "newobj",
									"text" : "jcom.oscroute \/inherit \/params \/amount",
									"outlettype" : [ "", "", "" ],
									"id" : "obj-4",
									"fontsize" : 9.0,
									"patching_rect" : [ 50.0, 50.0, 335.0, 17.0 ],
									"numinlets" : 1,
									"numoutlets" : 3,
									"fontname" : "Verdana"
								}

							}
, 							{
								"box" : 								{
									"maxclass" : "inlet",
									"outlettype" : [ "" ],
									"id" : "obj-5",
									"patching_rect" : [ 50.0, 30.0, 15.0, 15.0 ],
									"numinlets" : 0,
									"numoutlets" : 1,
									"comment" : ""
								}

							}
, 							{
								"box" : 								{
									"maxclass" : "outlet",
									"id" : "obj-6",
									"patching_rect" : [ 50.0, 136.0, 15.0, 15.0 ],
									"numinlets" : 1,
									"numoutlets" : 0,
									"comment" : ""
								}

							}
 ],
						"lines" : [ 							{
								"patchline" : 								{
									"source" : [ "obj-5", 0 ],
									"destination" : [ "obj-4", 0 ],
									"hidden" : 0
								}

							}
, 							{
								"patchline" : 								{
									"source" : [ "obj-4", 0 ],
									"destination" : [ "obj-3", 0 ],
									"hidden" : 0
								}

							}
, 							{
								"patchline" : 								{
									"source" : [ "obj-2", 0 ],
									"destination" : [ "obj-6", 0 ],
									"hidden" : 0,
									"midpoints" : [ 167.5, 117.0, 59.0, 117.0 ]
								}

							}
, 							{
								"patchline" : 								{
									"source" : [ "obj-3", 0 ],
									"destination" : [ "obj-6", 0 ],
									"hidden" : 0,
									"midpoints" : [ 59.5, 116.0, 59.0, 116.0 ]
								}

							}
, 							{
								"patchline" : 								{
									"source" : [ "obj-1", 0 ],
									"destination" : [ "obj-6", 0 ],
									"hidden" : 0,
									"midpoints" : [ 275.5, 117.0, 59.0, 117.0 ]
								}

							}
, 							{
								"patchline" : 								{
									"source" : [ "obj-4", 1 ],
									"destination" : [ "obj-2", 0 ],
									"hidden" : 0
								}

							}
, 							{
								"patchline" : 								{
									"source" : [ "obj-4", 2 ],
									"destination" : [ "obj-1", 0 ],
									"hidden" : 0
								}

							}
 ]
					}
,
					"saved_object_attributes" : 					{
						"fontface" : 0,
						"default_fontsize" : 10.0,
						"fontsize" : 10.0,
						"default_fontname" : "Verdana",
						"globalpatchername" : "",
						"fontname" : "Verdana",
						"default_fontface" : 0
					}

				}

			}
, 			{
				"box" : 				{
					"maxclass" : "inlet",
					"outlettype" : [ "" ],
					"id" : "obj-5",
					"patching_rect" : [ 24.0, 32.0, 15.0, 15.0 ],
					"numinlets" : 0,
					"numoutlets" : 1,
					"comment" : ""
				}

			}
, 			{
				"box" : 				{
					"maxclass" : "newobj",
					"text" : "p depth",
					"outlettype" : [ "" ],
					"id" : "obj-6",
					"fontsize" : 9.0,
					"patching_rect" : [ 165.0, 115.0, 42.0, 17.0 ],
					"numinlets" : 1,
					"numoutlets" : 1,
					"fontname" : "Verdana",
					"patcher" : 					{
						"rect" : [ 0.0, 44.0, 451.0, 229.0 ],
						"bgcolor" : [ 1.0, 1.0, 1.0, 1.0 ],
						"bglocked" : 0,
						"defrect" : [ 0.0, 44.0, 451.0, 229.0 ],
						"openinpresentation" : 0,
						"default_fontsize" : 10.0,
						"default_fontface" : 0,
						"default_fontname" : "Verdana",
						"gridonopen" : 0,
						"gridsize" : [ 5.0, 5.0 ],
						"gridsnaponopen" : 0,
						"toolbarvisible" : 1,
						"boxfadetime" : 200,
						"boxanimatetime" : 200,
						"scrollanimatetime" : 200,
						"metadata" : [  ],
						"boxes" : [ 							{
								"box" : 								{
									"maxclass" : "newobj",
									"text" : "prepend inherit_depth",
									"outlettype" : [ "" ],
									"id" : "obj-1",
									"fontsize" : 9.0,
									"patching_rect" : [ 274.0, 85.0, 108.0, 17.0 ],
									"numinlets" : 1,
									"numoutlets" : 1,
									"fontname" : "Verdana"
								}

							}
, 							{
								"box" : 								{
									"maxclass" : "newobj",
									"text" : "prepend depth_enable",
									"outlettype" : [ "" ],
									"id" : "obj-2",
									"fontsize" : 9.0,
									"patching_rect" : [ 162.0, 85.0, 106.0, 17.0 ],
									"numinlets" : 1,
									"numoutlets" : 1,
									"fontname" : "Verdana"
								}

							}
, 							{
								"box" : 								{
									"maxclass" : "newobj",
									"text" : "prepend depth_clear",
									"outlettype" : [ "" ],
									"id" : "obj-3",
									"fontsize" : 9.0,
									"patching_rect" : [ 50.0, 85.0, 101.0, 17.0 ],
									"numinlets" : 1,
									"numoutlets" : 1,
									"fontname" : "Verdana"
								}

							}
, 							{
								"box" : 								{
									"maxclass" : "newobj",
									"text" : "jcom.oscroute \/clear \/enable \/inherit",
									"outlettype" : [ "", "", "" ],
									"id" : "obj-4",
									"fontsize" : 9.0,
									"patching_rect" : [ 50.0, 50.0, 348.0, 17.0 ],
									"numinlets" : 1,
									"numoutlets" : 3,
									"fontname" : "Verdana"
								}

							}
, 							{
								"box" : 								{
									"maxclass" : "inlet",
									"outlettype" : [ "" ],
									"id" : "obj-5",
									"patching_rect" : [ 50.0, 30.0, 15.0, 15.0 ],
									"numinlets" : 0,
									"numoutlets" : 1,
									"comment" : ""
								}

							}
, 							{
								"box" : 								{
									"maxclass" : "outlet",
									"id" : "obj-6",
									"patching_rect" : [ 50.0, 128.0, 15.0, 15.0 ],
									"numinlets" : 1,
									"numoutlets" : 0,
									"comment" : ""
								}

							}
 ],
						"lines" : [ 							{
								"patchline" : 								{
									"source" : [ "obj-5", 0 ],
									"destination" : [ "obj-4", 0 ],
									"hidden" : 0
								}

							}
, 							{
								"patchline" : 								{
									"source" : [ "obj-4", 0 ],
									"destination" : [ "obj-3", 0 ],
									"hidden" : 0
								}

							}
, 							{
								"patchline" : 								{
									"source" : [ "obj-3", 0 ],
									"destination" : [ "obj-6", 0 ],
									"hidden" : 0
								}

							}
, 							{
								"patchline" : 								{
									"source" : [ "obj-2", 0 ],
									"destination" : [ "obj-6", 0 ],
									"hidden" : 0,
									"midpoints" : [ 171.5, 115.0, 59.0, 115.0 ]
								}

							}
, 							{
								"patchline" : 								{
									"source" : [ "obj-1", 0 ],
									"destination" : [ "obj-6", 0 ],
									"hidden" : 0,
									"midpoints" : [ 283.5, 115.0, 59.0, 115.0 ]
								}

							}
, 							{
								"patchline" : 								{
									"source" : [ "obj-4", 1 ],
									"destination" : [ "obj-2", 0 ],
									"hidden" : 0
								}

							}
, 							{
								"patchline" : 								{
									"source" : [ "obj-4", 2 ],
									"destination" : [ "obj-1", 0 ],
									"hidden" : 0
								}

							}
 ]
					}
,
					"saved_object_attributes" : 					{
						"fontface" : 0,
						"default_fontsize" : 10.0,
						"fontsize" : 10.0,
						"default_fontname" : "Verdana",
						"globalpatchername" : "",
						"fontname" : "Verdana",
						"default_fontface" : 0
					}

				}

			}
, 			{
				"box" : 				{
					"maxclass" : "newobj",
					"text" : "p color",
					"outlettype" : [ "" ],
					"id" : "obj-7",
					"fontsize" : 9.0,
					"patching_rect" : [ 118.0, 115.0, 41.0, 17.0 ],
					"numinlets" : 1,
					"numoutlets" : 1,
					"fontname" : "Verdana",
					"patcher" : 					{
						"rect" : [ 0.0, 44.0, 338.0, 282.0 ],
						"bgcolor" : [ 1.0, 1.0, 1.0, 1.0 ],
						"bglocked" : 0,
						"defrect" : [ 0.0, 44.0, 338.0, 282.0 ],
						"openinpresentation" : 0,
						"default_fontsize" : 10.0,
						"default_fontface" : 0,
						"default_fontname" : "Verdana",
						"gridonopen" : 0,
						"gridsize" : [ 5.0, 5.0 ],
						"gridsnaponopen" : 0,
						"toolbarvisible" : 1,
						"boxfadetime" : 200,
						"boxanimatetime" : 200,
						"scrollanimatetime" : 200,
						"metadata" : [  ],
						"boxes" : [ 							{
								"box" : 								{
									"maxclass" : "newobj",
									"text" : "t b f",
									"outlettype" : [ "bang", "float" ],
									"id" : "obj-1",
									"fontsize" : 9.0,
									"patching_rect" : [ 105.0, 75.0, 29.0, 17.0 ],
									"numinlets" : 1,
									"numoutlets" : 2,
									"fontname" : "Verdana"
								}

							}
, 							{
								"box" : 								{
									"maxclass" : "newobj",
									"text" : "prepend inherit_color",
									"outlettype" : [ "" ],
									"id" : "obj-2",
									"fontsize" : 9.0,
									"patching_rect" : [ 158.0, 109.0, 107.0, 17.0 ],
									"numinlets" : 1,
									"numoutlets" : 1,
									"fontname" : "Verdana"
								}

							}
, 							{
								"box" : 								{
									"maxclass" : "newobj",
									"text" : "prepend color",
									"outlettype" : [ "" ],
									"id" : "obj-3",
									"fontsize" : 9.0,
									"patching_rect" : [ 52.0, 160.0, 71.0, 17.0 ],
									"numinlets" : 1,
									"numoutlets" : 1,
									"fontname" : "Verdana"
								}

							}
, 							{
								"box" : 								{
									"maxclass" : "newobj",
									"text" : "zl join",
									"outlettype" : [ "", "" ],
									"id" : "obj-4",
									"fontsize" : 9.0,
									"patching_rect" : [ 52.0, 125.0, 82.0, 17.0 ],
									"numinlets" : 2,
									"numoutlets" : 2,
									"fontname" : "Verdana"
								}

							}
, 							{
								"box" : 								{
									"maxclass" : "newobj",
									"text" : "zl reg",
									"outlettype" : [ "", "" ],
									"id" : "obj-5",
									"fontsize" : 9.0,
									"patching_rect" : [ 52.0, 101.0, 36.0, 17.0 ],
									"numinlets" : 2,
									"numoutlets" : 2,
									"fontname" : "Verdana"
								}

							}
, 							{
								"box" : 								{
									"maxclass" : "newobj",
									"text" : "jcom.oscroute \/rgb \/alpha \/inherit",
									"outlettype" : [ "", "", "" ],
									"id" : "obj-6",
									"fontsize" : 9.0,
									"patching_rect" : [ 52.0, 50.0, 169.0, 17.0 ],
									"numinlets" : 1,
									"numoutlets" : 3,
									"fontname" : "Verdana"
								}

							}
, 							{
								"box" : 								{
									"maxclass" : "inlet",
									"outlettype" : [ "" ],
									"id" : "obj-7",
									"patching_rect" : [ 52.0, 30.0, 15.0, 15.0 ],
									"numinlets" : 0,
									"numoutlets" : 1,
									"comment" : ""
								}

							}
, 							{
								"box" : 								{
									"maxclass" : "outlet",
									"id" : "obj-8",
									"patching_rect" : [ 52.0, 204.0, 15.0, 15.0 ],
									"numinlets" : 1,
									"numoutlets" : 0,
									"comment" : ""
								}

							}
 ],
						"lines" : [ 							{
								"patchline" : 								{
									"source" : [ "obj-7", 0 ],
									"destination" : [ "obj-6", 0 ],
									"hidden" : 0
								}

							}
, 							{
								"patchline" : 								{
									"source" : [ "obj-1", 0 ],
									"destination" : [ "obj-5", 0 ],
									"hidden" : 0,
									"midpoints" : [ 114.5, 96.0, 61.5, 96.0 ]
								}

							}
, 							{
								"patchline" : 								{
									"source" : [ "obj-6", 0 ],
									"destination" : [ "obj-5", 0 ],
									"hidden" : 0
								}

							}
, 							{
								"patchline" : 								{
									"source" : [ "obj-5", 0 ],
									"destination" : [ "obj-4", 0 ],
									"hidden" : 0
								}

							}
, 							{
								"patchline" : 								{
									"source" : [ "obj-4", 0 ],
									"destination" : [ "obj-3", 0 ],
									"hidden" : 0
								}

							}
, 							{
								"patchline" : 								{
									"source" : [ "obj-3", 0 ],
									"destination" : [ "obj-8", 0 ],
									"hidden" : 0
								}

							}
, 							{
								"patchline" : 								{
									"source" : [ "obj-2", 0 ],
									"destination" : [ "obj-8", 0 ],
									"hidden" : 0,
									"midpoints" : [ 167.5, 188.0, 61.0, 188.0 ]
								}

							}
, 							{
								"patchline" : 								{
									"source" : [ "obj-6", 1 ],
									"destination" : [ "obj-1", 0 ],
									"hidden" : 0
								}

							}
, 							{
								"patchline" : 								{
									"source" : [ "obj-1", 1 ],
									"destination" : [ "obj-4", 1 ],
									"hidden" : 0
								}

							}
, 							{
								"patchline" : 								{
									"source" : [ "obj-6", 2 ],
									"destination" : [ "obj-2", 0 ],
									"hidden" : 0
								}

							}
 ]
					}
,
					"saved_object_attributes" : 					{
						"fontface" : 0,
						"default_fontsize" : 10.0,
						"fontsize" : 10.0,
						"default_fontname" : "Verdana",
						"globalpatchername" : "",
						"fontname" : "Verdana",
						"default_fontface" : 0
					}

				}

			}
, 			{
				"box" : 				{
					"maxclass" : "newobj",
					"text" : "p 3D",
					"outlettype" : [ "" ],
					"id" : "obj-8",
					"fontsize" : 9.0,
					"patching_rect" : [ 24.0, 115.0, 30.0, 17.0 ],
					"numinlets" : 1,
					"numoutlets" : 1,
					"fontname" : "Verdana",
					"patcher" : 					{
						"rect" : [ 0.0, 44.0, 299.0, 190.0 ],
						"bgcolor" : [ 1.0, 1.0, 1.0, 1.0 ],
						"bglocked" : 0,
						"defrect" : [ 0.0, 44.0, 299.0, 190.0 ],
						"openinpresentation" : 0,
						"default_fontsize" : 10.0,
						"default_fontface" : 0,
						"default_fontname" : "Verdana",
						"gridonopen" : 0,
						"gridsize" : [ 5.0, 5.0 ],
						"gridsnaponopen" : 0,
						"toolbarvisible" : 1,
						"boxfadetime" : 200,
						"boxanimatetime" : 200,
						"scrollanimatetime" : 200,
						"metadata" : [  ],
						"boxes" : [ 							{
								"box" : 								{
									"maxclass" : "newobj",
									"text" : "jcom.pass \/position \/rotate \/scale",
									"outlettype" : [ "", "", "" ],
									"id" : "obj-1",
									"fontsize" : 9.0,
									"patching_rect" : [ 50.0, 50.0, 168.0, 17.0 ],
									"numinlets" : 1,
									"numoutlets" : 3,
									"fontname" : "Verdana"
								}

							}
, 							{
								"box" : 								{
									"maxclass" : "inlet",
									"outlettype" : [ "" ],
									"id" : "obj-2",
									"patching_rect" : [ 50.0, 30.0, 15.0, 15.0 ],
									"numinlets" : 0,
									"numoutlets" : 1,
									"comment" : ""
								}

							}
, 							{
								"box" : 								{
									"maxclass" : "outlet",
									"id" : "obj-3",
									"patching_rect" : [ 50.0, 80.0, 15.0, 15.0 ],
									"numinlets" : 1,
									"numoutlets" : 0,
									"comment" : ""
								}

							}
 ],
						"lines" : [ 							{
								"patchline" : 								{
									"source" : [ "obj-2", 0 ],
									"destination" : [ "obj-1", 0 ],
									"hidden" : 0
								}

							}
, 							{
								"patchline" : 								{
									"source" : [ "obj-1", 0 ],
									"destination" : [ "obj-3", 0 ],
									"hidden" : 0
								}

							}
, 							{
								"patchline" : 								{
									"source" : [ "obj-1", 1 ],
									"destination" : [ "obj-3", 0 ],
									"hidden" : 0,
									"midpoints" : [ 134.0, 73.0, 59.0, 73.0 ]
								}

							}
, 							{
								"patchline" : 								{
									"source" : [ "obj-1", 2 ],
									"destination" : [ "obj-3", 0 ],
									"hidden" : 0,
									"midpoints" : [ 208.5, 73.0, 59.0, 73.0 ]
								}

							}
 ]
					}
,
					"saved_object_attributes" : 					{
						"fontface" : 0,
						"default_fontsize" : 10.0,
						"fontsize" : 10.0,
						"default_fontname" : "Verdana",
						"globalpatchername" : "",
						"fontname" : "Verdana",
						"default_fontface" : 0
					}

				}

			}
, 			{
				"box" : 				{
					"maxclass" : "newobj",
					"text" : "p blend",
					"outlettype" : [ "" ],
					"id" : "obj-9",
					"fontsize" : 9.0,
					"patching_rect" : [ 71.0, 115.0, 41.0, 17.0 ],
					"numinlets" : 1,
					"numoutlets" : 1,
					"fontname" : "Verdana",
					"patcher" : 					{
						"rect" : [ 0.0, 44.0, 322.0, 201.0 ],
						"bgcolor" : [ 1.0, 1.0, 1.0, 1.0 ],
						"bglocked" : 0,
						"defrect" : [ 0.0, 44.0, 322.0, 201.0 ],
						"openinpresentation" : 0,
						"default_fontsize" : 10.0,
						"default_fontface" : 0,
						"default_fontname" : "Verdana",
						"gridonopen" : 0,
						"gridsize" : [ 5.0, 5.0 ],
						"gridsnaponopen" : 0,
						"toolbarvisible" : 1,
						"boxfadetime" : 200,
						"boxanimatetime" : 200,
						"scrollanimatetime" : 200,
						"metadata" : [  ],
						"boxes" : [ 							{
								"box" : 								{
									"maxclass" : "newobj",
									"text" : "prepend blend_mode",
									"outlettype" : [ "" ],
									"id" : "obj-1",
									"fontsize" : 9.0,
									"patching_rect" : [ 166.0, 80.0, 100.0, 17.0 ],
									"numinlets" : 1,
									"numoutlets" : 1,
									"fontname" : "Verdana"
								}

							}
, 							{
								"box" : 								{
									"maxclass" : "newobj",
									"text" : "prepend blend_enable",
									"outlettype" : [ "" ],
									"id" : "obj-2",
									"fontsize" : 9.0,
									"patching_rect" : [ 50.0, 80.0, 105.0, 17.0 ],
									"numinlets" : 1,
									"numoutlets" : 1,
									"fontname" : "Verdana"
								}

							}
, 							{
								"box" : 								{
									"maxclass" : "newobj",
									"text" : "jcom.oscroute \/enable \/mode",
									"outlettype" : [ "", "" ],
									"id" : "obj-3",
									"fontsize" : 9.0,
									"patching_rect" : [ 50.0, 50.0, 243.0, 17.0 ],
									"numinlets" : 1,
									"numoutlets" : 2,
									"fontname" : "Verdana"
								}

							}
, 							{
								"box" : 								{
									"maxclass" : "inlet",
									"outlettype" : [ "" ],
									"id" : "obj-4",
									"patching_rect" : [ 50.0, 30.0, 15.0, 15.0 ],
									"numinlets" : 0,
									"numoutlets" : 1,
									"comment" : ""
								}

							}
, 							{
								"box" : 								{
									"maxclass" : "outlet",
									"id" : "obj-5",
									"patching_rect" : [ 50.0, 125.0, 15.0, 15.0 ],
									"numinlets" : 1,
									"numoutlets" : 0,
									"comment" : ""
								}

							}
 ],
						"lines" : [ 							{
								"patchline" : 								{
									"source" : [ "obj-4", 0 ],
									"destination" : [ "obj-3", 0 ],
									"hidden" : 0
								}

							}
, 							{
								"patchline" : 								{
									"source" : [ "obj-3", 0 ],
									"destination" : [ "obj-2", 0 ],
									"hidden" : 0
								}

							}
, 							{
								"patchline" : 								{
									"source" : [ "obj-2", 0 ],
									"destination" : [ "obj-5", 0 ],
									"hidden" : 0
								}

							}
, 							{
								"patchline" : 								{
									"source" : [ "obj-1", 0 ],
									"destination" : [ "obj-5", 0 ],
									"hidden" : 0
								}

							}
, 							{
								"patchline" : 								{
									"source" : [ "obj-3", 1 ],
									"destination" : [ "obj-1", 0 ],
									"hidden" : 0
								}

							}
 ]
					}
,
					"saved_object_attributes" : 					{
						"fontface" : 0,
						"default_fontsize" : 10.0,
						"fontsize" : 10.0,
						"default_fontname" : "Verdana",
						"globalpatchername" : "",
						"fontname" : "Verdana",
						"default_fontface" : 0
					}

				}

			}
, 			{
				"box" : 				{
					"maxclass" : "outlet",
					"id" : "obj-10",
					"patching_rect" : [ 24.0, 165.0, 15.0, 15.0 ],
					"numinlets" : 1,
					"numoutlets" : 0,
					"comment" : ""
				}

			}
, 			{
				"box" : 				{
					"maxclass" : "newobj",
					"text" : "jcom.oscroute \/3D \/blend \/color \/depth \/fog \/material \/render",
					"outlettype" : [ "", "", "", "", "", "", "", "" ],
					"id" : "obj-11",
					"fontsize" : 9.0,
					"patching_rect" : [ 24.0, 81.0, 341.0, 17.0 ],
					"numinlets" : 1,
					"numoutlets" : 8,
					"fontname" : "Verdana"
				}

			}
 ],
		"lines" : [ 			{
				"patchline" : 				{
					"source" : [ "obj-5", 0 ],
					"destination" : [ "obj-11", 0 ],
					"hidden" : 0
				}

			}
, 			{
				"patchline" : 				{
					"source" : [ "obj-11", 0 ],
					"destination" : [ "obj-8", 0 ],
					"hidden" : 0
				}

			}
, 			{
				"patchline" : 				{
					"source" : [ "obj-9", 0 ],
					"destination" : [ "obj-10", 0 ],
					"hidden" : 0,
					"midpoints" : [ 80.5, 148.0, 33.0, 148.0 ]
				}

			}
, 			{
				"patchline" : 				{
					"source" : [ "obj-8", 0 ],
					"destination" : [ "obj-10", 0 ],
					"hidden" : 0,
					"midpoints" : [ 33.5, 148.0, 33.0, 148.0 ]
				}

			}
, 			{
				"patchline" : 				{
					"source" : [ "obj-7", 0 ],
					"destination" : [ "obj-10", 0 ],
					"hidden" : 0,
					"midpoints" : [ 127.5, 148.0, 33.0, 148.0 ]
				}

			}
, 			{
				"patchline" : 				{
					"source" : [ "obj-6", 0 ],
					"destination" : [ "obj-10", 0 ],
					"hidden" : 0,
					"midpoints" : [ 174.5, 148.0, 33.0, 148.0 ]
				}

			}
, 			{
				"patchline" : 				{
					"source" : [ "obj-4", 0 ],
					"destination" : [ "obj-10", 0 ],
					"hidden" : 0,
					"midpoints" : [ 221.5, 148.0, 33.0, 148.0 ]
				}

			}
, 			{
				"patchline" : 				{
					"source" : [ "obj-3", 0 ],
					"destination" : [ "obj-10", 0 ],
					"hidden" : 0,
					"midpoints" : [ 268.5, 148.0, 33.0, 148.0 ]
				}

			}
, 			{
				"patchline" : 				{
					"source" : [ "obj-2", 0 ],
					"destination" : [ "obj-10", 0 ],
					"hidden" : 0,
					"midpoints" : [ 332.5, 148.0, 33.0, 148.0 ]
				}

			}
, 			{
				"patchline" : 				{
					"source" : [ "obj-11", 1 ],
					"destination" : [ "obj-9", 0 ],
					"hidden" : 0
				}

			}
, 			{
				"patchline" : 				{
					"source" : [ "obj-11", 2 ],
					"destination" : [ "obj-7", 0 ],
					"hidden" : 0
				}

			}
, 			{
				"patchline" : 				{
					"source" : [ "obj-11", 3 ],
					"destination" : [ "obj-6", 0 ],
					"hidden" : 0
				}

			}
, 			{
				"patchline" : 				{
					"source" : [ "obj-11", 4 ],
					"destination" : [ "obj-4", 0 ],
					"hidden" : 0
				}

			}
, 			{
				"patchline" : 				{
					"source" : [ "obj-11", 5 ],
					"destination" : [ "obj-3", 0 ],
					"hidden" : 0
				}

			}
, 			{
				"patchline" : 				{
					"source" : [ "obj-11", 6 ],
					"destination" : [ "obj-2", 0 ],
					"hidden" : 0
				}

			}
, 			{
				"patchline" : 				{
					"source" : [ "obj-11", 7 ],
					"destination" : [ "obj-1", 0 ],
					"hidden" : 0,
					"midpoints" : [ 355.5, 101.0, 447.0, 101.0 ]
				}

			}
 ]
	}

}
