max v2;#N vpatcher 21 61 1118 414;#P window setfont "Sans Serif" 9.;#P window linecount 1;#P newex 635 95 34 196617 t s %;#P newex 635 160 98 196617 prepend description;#P newex 635 139 51 196617 tosymbol;#P newex 635 118 158 196617 sprintf %s LFO depth (0-100%s);#P newex 464 160 98 196617 prepend description;#P newex 464 139 51 196617 tosymbol;#P newex 464 118 150 196617 sprintf %s LFO frequency (Hz).;#P outlet 331 298 15 0;#P outlet 23 298 15 0;#P inlet 331 42 15 0;#P inlet 23 42 15 0;#P newex 914 155 161 196617 jcom.oscroute /frequency /depth;#P newex 464 54 64 196617 patcherargs;#P window linecount 2;#P newex 331 232 279 196617 jcom.parameter $1/lfo/depth @type msg_float @range 0. 100. @clipmode low @ramp/drive scheduler @repetitions 0;#P objectname $1/lfo/depth;#P newex 23 232 289 196617 jcom.parameter $1/lfo/frequency @type msg_float @range 0. 100. @clipmode low @ramp/drive scheduler @repetitions 0;#P objectname $1/lfo/frequency;#P fasten 3 0 0 0 919 220 28 220;#P connect 4 0 0 0;#P fasten 10 0 0 0 469 186 28 186;#P connect 0 0 6 0;#P fasten 3 1 1 0 994 223 336 223;#P connect 5 0 1 0;#P fasten 13 0 1 0 640 188 336 188;#P connect 1 0 7 0;#P connect 2 0 8 0;#P connect 8 0 9 0;#P connect 9 0 10 0;#P fasten 2 0 14 0 469 83 640 83;#P connect 14 0 11 0;#P connect 11 0 12 0;#P connect 12 0 13 0;#P fasten 14 1 11 1 664 115 788 115;#P fasten 2 1 3 0 523 79 919 79;#P pop;