max v2;#N vpatcher 73 119 939 732;#P window setfont "Sans Serif" 9.;#P window linecount 1;#P newex 733 85 32 196617 t ---;#P newex 733 106 95 196617 print ------------;#P newex 705 128 85 196617 print list_values;#P newex 537 128 81 196617 print list_types;#P newex 537 100 125 196617 jcom.debug.list_type.mxt;#N comlet list member 9;#P inlet 206 268 15 0;#N comlet list member 9;#P outlet 206 239 15 0;#N comlet list member 6;#P inlet 143 268 15 0;#N comlet list member 7;#P inlet 164 268 15 0;#N comlet list member 8;#P inlet 185 268 15 0;#N comlet list member 8;#P outlet 185 239 15 0;#N comlet list member 7;#P outlet 164 239 15 0;#N comlet list member 6;#P outlet 143 239 15 0;#N comlet list member 3;#P inlet 79 268 15 0;#N comlet list member 4;#P inlet 100 268 15 0;#N comlet list member 5;#P inlet 121 268 15 0;#N comlet list member 5;#P outlet 121 239 15 0;#N comlet list member 4;#P outlet 100 239 15 0;#N comlet list member 3;#P outlet 79 239 15 0;#P newex 260 422 58 196617 zl slice $1;#P newex 260 113 225 196617 route 0 1 2 3 4 5 6 7 8 9;#P message 260 93 54 196617 \$1 set \$2;#P newex 260 73 52 196617 listfunnel;#P newex 260 53 51 196617 route set;#P newex 260 395 201 196617 pak 0. 0. 0. 0. 0. 0. 0. 0. 0. 0.;#N comlet from jcom.parameter;#P inlet 260 33 15 0;#N comlet list member 0;#P inlet 15 268 15 0;#N comlet list member 1;#P inlet 36 268 15 0;#N comlet list member 2;#P inlet 57 268 15 0;#N comlet to jcom.parameter;#P outlet 260 449 15 0;#N comlet list member 2;#P outlet 57 239 15 0;#N comlet list member 1;#P outlet 36 239 15 0;#N comlet list member 0;#P outlet 15 239 15 0;#P connect 12 0 0 0;#P connect 12 1 1 0;#P connect 12 2 2 0;#P connect 12 3 14 0;#P connect 12 4 15 0;#P connect 12 5 16 0;#P connect 12 6 20 0;#P connect 12 7 21 0;#P connect 12 8 22 0;#P fasten 12 9 26 0 457 130;#P connect 7 0 9 0;#P connect 9 0 10 0;#P connect 10 0 11 0;#P connect 11 0 12 0;#P connect 12 0 8 0;#P connect 6 0 8 0;#P connect 8 0 13 0;#P connect 13 0 3 0;#P connect 12 1 8 1;#P connect 5 0 8 1;#P connect 12 2 8 2;#P connect 4 0 8 2;#P connect 12 3 8 3;#P connect 19 0 8 3;#P connect 12 4 8 4;#P connect 18 0 8 4;#P connect 12 5 8 5;#P connect 17 0 8 5;#P connect 12 6 8 6;#P connect 25 0 8 6;#P connect 12 7 8 7;#P connect 24 0 8 7;#P connect 12 8 8 8;#P connect 23 0 8 8;#P connect 12 9 8 9;#P connect 27 0 8 9;#P fasten 9 0 28 0 265 71 542 71;#P connect 28 0 29 0;#P fasten 9 0 30 0 266 71 710 71;#P fasten 9 0 32 0 265 71 738 71;#P connect 32 0 31 0;#P pop;