max v2;#N vpatcher 30 91 379 446;#P window setfont "Sans Serif" 9.;#P window linecount 1;#P newex 60 222 47 196617 poltocar;#P newex 60 252 84 196617 pack 0. 0. 0.;#P newex 60 194 84 196617 poltocar;#P newex 60 124 84 196617 unpack 0. 0. 0.;#P newex 97 154 92 196617 jmod.deg2rad.mxt;#P newex 191 154 92 196617 jmod.deg2rad.mxt;#P message 60 101 52 196617 \$3 \$1 \$2;#P comment 60 302 51 196617 (list) xyz;#N comlet (list) aed;#P inlet 60 73 15 0;#N comlet (list) xyz;#P outlet 60 280 15 0;#P comment 59 50 53 196617 (list) aed;#P connect 2 0 4 0;#P connect 4 0 7 0;#P connect 7 0 8 0;#P connect 8 0 10 0;#P connect 10 0 9 0;#P connect 9 0 1 0;#P connect 7 1 6 0;#P connect 6 0 10 1;#P connect 10 1 9 1;#P connect 5 0 8 1;#P connect 8 1 9 2;#P connect 7 2 5 0;#P pop;