max v2;
#N vpatcher 210 113 655 580;
#P origin 0 -5;
#P window setfont "Sans Serif" 9.;
#N vpatcher 10 59 153 202;
#P outlet 27 81 15 0;
#P inlet 27 51 15 0;
#P connect 0 0 1 0;
#P pop;
#P newobj 236 186 37 196617 p thru;
#P newex 27 186 181 196617 jmod.pattr_wrap.mxt $1 $2 message;
#P outlet 53 282 15 0;
#P newex 87 86 87 196617 jmod.init.mxt $1;
#P outlet 27 282 15 0;
#P window linecount 2;
#P newex 87 106 299 196617 patcherargs $1 mod_name @ramp 0 @type generic @repetitions 1 @range default @clipmode none @description no info provided;
#P inlet 27 80 15 0;
#P window linecount 1;
#P newex 80 259 60 196617 prepend $2;
#P newex 80 281 150 196617 s $1_message;
#P newex 87 400 275 196617 jmod.post "WARNING - INVALID TYPE FOR JMOD.MESSAGE";
#P comment 80 300 182 196617 (for remote communication to the hub);
#P connect 4 0 9 0;
#P connect 9 0 6 0;
#P fasten 10 0 8 0 241 241 58 241;
#P fasten 10 0 3 0 241 244 85 244;
#P connect 3 0 2 0;
#P connect 7 0 5 0;
#P fasten 5 1 9 1 381 150 117 150;
#P connect 10 0 9 2;
#P connect 9 1 10 0;
#P pop;
