max v2;
#N vpatcher 166 82 605 451;
#P origin -19 0;
#P window setfont "Sans Serif" 9.;
#P window linecount 2;
#P user com 1 293 146 196617 28;
#K set 0 16748 25976 24942 25701 29216 21093 26227 30061 8266 25966 29541 28265 30067 3432 29812 28730 12079 28021 29545 25441 27751 25971 29813 29285 29486 30057 28462 28271;
#K end;
#N comlet Messages out \, /min \, /max;
#P outlet 306 300 15 0;
#P window linecount 1;
#P newex 151 83 27 196617 + 1;
#P button 243 114 15 0;
#P newex 8 49 191 196617 jmod.oscroute /min /max /clear /mode;
#P message 356 221 50 196617 /max \$1;
#P message 306 221 47 196617 /min \$1;
#P number 151 104 22 9 0 4 35 3 0 0 0 221 221 221 222 222 222 0 0 0;
#P newex 243 134 61 196617 t 65556. 0.;
#P newex 151 124 47 196617 gate 3 2;
#N comlet Scaled values out;
#P outlet 151 300 15 0;
#N comlet Incoming values and messages;
#P inlet 8 22 15 0;
#P newex 187 221 92 196617 scale 0. 100. 0. 1.;
#P newex 263 166 41 196617 peak 0.;
#P newex 203 167 50 196617 trough 0.;
#P connect 3 0 10 0;
#P connect 10 3 12 0;
#P connect 12 0 7 0;
#P connect 7 0 5 0;
#P fasten 2 0 4 0 192 266 156 266;
#P connect 5 0 4 0;
#P connect 5 1 2 0;
#P lcolor 1;
#P connect 5 2 2 0;
#P connect 10 4 5 1;
#P connect 5 1 0 0;
#P lcolor 1;
#P connect 0 0 2 1;
#P connect 1 0 2 2;
#P fasten 10 0 2 3 13 213 240 213;
#P lcolor 12;
#P fasten 10 2 11 0 103 73 248 73;
#P lcolor 5;
#P connect 11 0 6 0;
#P connect 6 0 0 1;
#P fasten 10 1 2 4 58 205 256 205;
#P lcolor 10;
#P connect 5 1 1 0;
#P lcolor 1;
#P connect 6 1 1 1;
#P connect 0 0 8 0;
#P connect 9 0 13 0;
#P connect 8 0 13 0;
#P connect 1 0 9 0;
#P pop;
