max v2;
#N vpatcher 189 152 889 587;
#P window setfont "Sans Serif" 9.;
#P window linecount 2;
#P hidden newex 236 225 306 196617 jmod.message $1 /direct @type generic @description "Send messages directly to the jitter external embedded in the module.";
#N comlet dumpout;
#P hidden outlet 50 72 15 0;
#P window linecount 1;
#P hidden newex 236 85 396 196617 jmod.message.mxt $1 /genframe @description "Forces a frame of output to be sent.";
#P objectname pwindow_gate[5];
#P window linecount 2;
#P hidden newex 236 190 307 196617 jmod.parameter.mxt $1 /mute @type toggle @description "Mutes (turns off) the module's algorithm - generating no output.";
#P objectname pwindow_gate[4];
#P hidden newex 236 155 322 196617 jmod.parameter.mxt $1 /freeze @type toggle @description "Freezes the last frame of output from the module's processing algorithm.";
#P objectname pwindow_gate[3];
#P hidden newex 236 120 358 196617 jmod.parameter.mxt $1 /bypass @type toggle @description "Bypasses the video processing algorithm in the module - allowing unaltered video through.";
#P objectname pwindow_gate[2];
#P hidden newex 168 13 307 196617 jmod.parameter.mxt $1 /preview @type toggle @description "Turns on/off the video display in the module's preview window.";
#P objectname pwindow_gate[1];
#N comlet video input for previewing;
#P hidden inlet 200 65 15 0;
#P window linecount 1;
#P hidden newex 181 96 29 196617 gate;
#P objectname pwindow_gate;
#P user jit.pwindow -1 -1 62 47 0 1 0 0 1 0;
#P objectname pwindow;
#P hidden connect 1 0 0 0;
#P hidden connect 0 1 8 0;
#P hidden fasten 3 1 1 0 470 50 186 50;
#P hidden connect 2 0 1 1;
#P pop;
