max v2;
#N vpatcher 357 103 1354 702;
#P origin 0 -5;
#P window setfont "Sans Serif" 9.;
#P window linecount 1;
#N vpatcher 48 49 850 494;
#P window setfont "Sans Serif" 9.;
#P newex 398 85 72 196617 route int float;
#P number 91 200 35 9 0 0 0 3 0 0 0 221 221 221 222 222 222 0 0 0;
#P inlet 398 58 15 0;
#P newex 523 141 105 196617 r $0_attribute_range;
#P newex 523 177 75 196617 unpack 0. 127.;
#P window linecount 1;
#P newex 397 282 61 196617 clip 0. 127.;
#P newex 284 282 73 196617 minimum 127.;
#P window linecount 0;
#P newex 171 282 64 196617 maximum 0.;
#P outlet 726 378 15 0;
#P newex 58 199 27 196617 + 1;
#P newex 58 227 350 196617 gate 4 1;
#P newex 58 147 79 196617 prepend symbol;
#P user umenu 58 170 100 196647 1 64 186 1;
#X add none;
#X add low;
#X add high;
#X add both;
#P window linecount 1;
#P newex 58 117 121 196617 r $0_attribute_clipmode;
#P window linecount 0;
#P comment 476 88 185 196617 Only int and float can be scaled/clipped;
#P connect 1 0 3 0;
#P connect 3 0 2 0;
#P connect 2 0 5 0;
#P connect 5 0 4 0;
#P connect 5 0 13 0;
#P connect 4 1 7 0;
#P fasten 10 0 7 1 528 251 230 251;
#P connect 4 2 8 0;
#P fasten 10 1 8 1 593 269 352 269;
#P connect 4 3 9 0;
#P connect 12 0 14 0;
#P connect 14 0 4 1;
#P fasten 14 1 4 1 434 120 403 120;
#P fasten 10 0 9 1 528 253 427 253;
#P fasten 10 1 9 2 593 271 452 271;
#P connect 11 0 10 0;
#P fasten 4 0 6 0 63 338 731 338;
#P fasten 7 0 6 0 176 338 731 338;
#P fasten 8 0 6 0 289 338 731 338;
#P fasten 9 0 6 0 402 338 731 338;
#P fasten 14 2 6 0 465 111 731 111;
#P pop;
#P newobj 29 279 64 196617 p clip_range;
#P newex 147 484 60 196617 prepend $2;
#P newex 147 506 150 196617 s $1_message;
#N vpatcher 153 310 753 710;
#P window setfont "Sans Serif" 9.;
#P message 280 242 35 196617 -1. 1.;
#P newex 280 221 22 196617 b 1;
#P message 237 242 23 196617 0 1;
#P message 194 242 30 196617 0. 1.;
#P message 151 242 35 196617 0 127;
#P window linecount 1;
#P newex 151 200 139 196617 sel msg_int msg_float toggle;
#P window linecount 0;
#P newex 151 177 35 196617 zl reg;
#P window linecount 1;
#P newex 159 70 27 196617 t b l;
#P window linecount 0;
#P newex 213 106 35 196617 zl reg;
#P window linecount 1;
#P newex 213 138 142 196617 sel default;
#P inlet 213 49 15 0;
#P outlet 345 279 15 0;
#P inlet 159 49 15 0;
#P connect 3 0 6 0;
#P connect 6 0 7 0;
#P connect 7 0 8 0;
#P connect 0 0 5 0;
#P connect 5 1 6 1;
#P connect 7 1 9 0;
#P connect 2 0 4 0;
#P connect 5 0 4 0;
#P connect 4 0 3 0;
#P connect 7 2 10 0;
#P connect 7 3 11 0;
#P connect 11 0 12 0;
#P connect 3 1 1 0;
#P connect 10 0 1 0;
#P connect 9 0 1 0;
#P connect 8 0 1 0;
#P connect 12 0 1 0;
#P pop;
#P newobj 419 217 62 196617 p set_range;
#N vpatcher 399 96 1169 476;
#P origin 0 5;
#P window setfont "Sans Serif" 9.;
#P message 517 198 128 196617 name $2;
#P newex 283 86 49 196617 route $2;
#P message 556 170 68 196617 kind message;
#P newex 283 156 79 196617 prepend symbol;
#P newex 106 177 65 196617 zl join;
#P newex 106 143 50 196617 zl slice 1;
#P newex 283 112 283 196617 t description repetitions ramp clipmode range type bang bang;
#P window linecount 1;
#P newex 106 302 109 196617 send $1_register_doc;
#P newex 283 57 112 196617 receive $1_query_doc;
#P window linecount 0;
#P newex 61 114 55 196617 route done;
#N coll ;
#P newobj 106 235 53 196617 coll;
#P newex 106 202 71 196617 prepend store;
#P inlet 61 86 15 0;
#P connect 0 0 3 0;
#P connect 3 1 7 0;
#P connect 7 0 8 0;
#P connect 8 0 1 0;
#P fasten 9 0 2 0 288 225 111 225;
#P connect 1 0 2 0;
#P connect 2 0 5 0;
#P fasten 10 0 5 0 561 268 111 268;
#P fasten 12 0 5 0 522 268 111 268;
#P fasten 3 1 8 1 111 138 166 138;
#P connect 4 0 11 0;
#P connect 11 0 6 0;
#P fasten 6 5 9 0 483 142 288 142;
#P fasten 6 4 9 0 444 142 288 142;
#P fasten 6 3 9 0 405 142 288 142;
#P fasten 6 2 9 0 366 142 288 142;
#P fasten 6 1 9 0 327 142 288 142;
#P fasten 6 0 9 0 288 142 288 142;
#P connect 6 6 12 0;
#P connect 6 7 10 0;
#P pop;
#P newobj 643 82 81 196617 p documentation;
#P newex 331 493 275 196617 jmod.post "WARNING - INVALID TYPE FOR JMOD.MESSAGE";
#N vpatcher 261 68 1106 550;
#P window setfont "Sans Serif" 9.;
#P window linecount 1;
#P newex 425 223 21 196617 t 9;
#P newex 382 223 21 196617 t 8;
#P newex 339 223 21 196617 t 7;
#P newex 296 223 21 196617 t 6;
#P newex 253 223 21 196617 t 5;
#P newex 167 223 21 196617 t 3;
#P newex 81 126 355 196617 sel generic menu toggle msg_int msg_float msg_list msg_symbol jit_matrix;
#P newex 124 223 21 196617 t 2;
#P window linecount 0;
#P newex 81 254 422 196617 gate 9 1;
#P window linecount 1;
#P newex 81 223 21 196617 t 1;
#P window linecount 0;
#P newex 210 223 21 196617 t 4;
#P window linecount 1;
#P newex 81 65 102 196617 r $0_attribute_type;
#P outlet 81 393 15 0;
#P inlet 493 77 15 0;
#P window linecount 0;
#N vpatcher 14 59 614 459;
#P window setfont "Sans Serif" 9.;
#P newex 50 50 98 196617 jmod.menuprep.mxt;
#P inlet 50 30 15 0;
#P outlet 50 72 15 0;
#P connect 1 0 2 0;
#P connect 2 0 0 0;
#P pop;
#P newobj 132 296 40 196617 p menu;
#N vpatcher 14 59 614 459;
#P window setfont "Sans Serif" 9.;
#P newex 50 73 27 196617 i;
#P newex 50 50 59 196617 jmod.round;
#P inlet 50 30 15 0;
#P outlet 50 95 15 0;
#P connect 1 0 2 0;
#P connect 2 0 3 0;
#P connect 3 0 0 0;
#P pop;
#P newobj 234 296 29 196617 p int;
#P connect 4 0 9 0;
#P connect 9 0 6 0;
#P fasten 15 0 7 0 430 247 86 247;
#P fasten 14 0 7 0 387 247 86 247;
#P fasten 13 0 7 0 344 247 86 247;
#P fasten 12 0 7 0 301 247 86 247;
#P fasten 11 0 7 0 258 247 86 247;
#P fasten 10 0 7 0 172 247 86 247;
#P fasten 5 0 7 0 215 247 86 247;
#P fasten 8 0 7 0 129 247 86 247;
#P fasten 6 0 7 0 86 247 86 247;
#P fasten 0 0 3 0 239 370 86 370;
#P fasten 1 0 3 0 137 370 86 370;
#P fasten 7 4 3 0 290 370 86 370;
#P fasten 7 5 3 0 341 370 86 370;
#P fasten 7 6 3 0 392 370 86 370;
#P fasten 7 7 3 0 443 370 86 370;
#P fasten 7 8 3 0 494 370 86 370;
#P fasten 7 2 3 0 188 370 86 370;
#P connect 7 0 3 0;
#P connect 9 1 8 0;
#P connect 7 1 1 0;
#P connect 9 2 10 0;
#P connect 9 3 5 0;
#P connect 7 3 0 0;
#P connect 9 4 11 0;
#P connect 9 5 12 0;
#P connect 9 6 13 0;
#P connect 9 7 14 0;
#P connect 9 8 15 0;
#P connect 2 0 7 1;
#P pop;
#P newobj 29 305 35 196617 p type;
#P newex 483 250 172 196617 s $0_attribute_clipmode;
#P newex 445 271 156 196617 s $0_attribute_range;
#P newex 369 313 153 196617 s $0_attribute_type;
#P newex 407 292 182 196617 s $0_attribute_repetitions;
#P newex 331 334 156 196617 s $0_attribute_ramp;
#P newex 175 216 72 196617 route int float;
#B color 14;
#P newex 29 484 61 196617 prepend set;
#P outlet 122 509 15 0;
#P newex 29 459 43 196617 qlim 65;
#N vpatcher 40 210 622 540;
#P window setfont "Sans Serif" 9.;
#P newex 80 92 131 196617 r $0_attribute_repetitions;
#P window linecount 1;
#P newex 80 115 30 196617 == 0;
#P newex 80 137 27 196617 + 1;
#P window setfont Verdana 9.;
#P window linecount 0;
#P message 334 145 66 472055817 -2000000.;
#P window setfont "Sans Serif" 9.;
#P comment 308 215 127 196617 Filter repetitions;
#P inlet 288 72 15 0;
#P newex 334 125 55 196617 r jmod.init;
#P comment 402 127 127 196617 this allows the first zero value to make it through;
#P newex 234 211 64 196617 jmod.change;
#P outlet 80 276 15 0;
#P inlet 234 72 15 0;
#P newex 80 178 164 196617 gate 2 1;
#P connect 11 0 10 0;
#P connect 10 0 9 0;
#P connect 9 0 0 0;
#P connect 0 0 2 0;
#P connect 3 0 2 0;
#P fasten 1 0 0 1 239 169 239 169;
#P connect 0 1 3 0;
#P connect 8 0 3 1;
#P connect 6 0 3 1;
#P connect 5 0 8 0;
#P pop;
#P newobj 29 338 156 196617 p repetitions;
#P window linecount 2;
#P comment 331 371 175 196617 Register this parameter with the module hub;
#P window linecount 1;
#P newex 331 62 55 196617 r jmod.init;
#P outlet 29 509 15 0;
#P newex 331 159 280 196617 route ramp type repetitions range clipmode description done;
#P window linecount 2;
#P newex 331 82 299 196617 patcherargs $1 mod_name @ramp 0 @type generic @repetitions 1 @range default @clipmode both @description no info provided;
#P window linecount 1;
#P newex 331 437 137 196617 send $1_register;
#P message 331 419 132 196617 $2;
#P newex 331 399 140 196617 receive $1_query;
#P newex 64 132 141 196617 route $2;
#P newex 64 109 139 196617 receive $1_instruction;
#P inlet 29 47 15 0;
#N vpatcher 14 59 370 385;
#P window setfont "Sans Serif" 9.;
#P number 86 135 35 9 0 0 0 3 0 0 0 221 221 221 222 222 222 0 0 0;
#P newex 50 91 105 196617 r $0_attribute_ramp;
#P newex 168 189 71 196617 jmod.line.mxt;
#P newex 50 161 128 196617 gate 2;
#P newex 50 135 27 196617 + 1;
#P inlet 229 51 15 0;
#P inlet 168 51 15 0;
#P outlet 50 247 15 0;
#P connect 6 0 3 0;
#P connect 3 0 4 0;
#P connect 4 0 0 0;
#P connect 5 0 0 0;
#P connect 3 0 7 0;
#P connect 1 0 4 1;
#P connect 4 1 5 0;
#P connect 2 0 5 1;
#P pop;
#P newobj 29 249 126 196617 p ramp;
#P window linecount 2;
#P newex 597 184 193 196617 jmod.post "WARNING BAD ATTRIBUTE SPECIFIED TO JMOD.MESSAGE";
#P window linecount 1;
#P comment 147 525 182 196617 (for remote communication to the hub);
#P connect 3 0 2 0;
#P connect 5 0 2 0;
#P connect 2 0 30 0;
#P connect 30 0 24 0;
#P connect 24 0 14 0;
#P connect 14 0 15 0;
#P connect 15 0 17 0;
#P connect 17 0 11 0;
#P connect 4 0 5 0;
#P fasten 14 0 16 0 34 419 127 419;
#P connect 18 1 2 1;
#P lcolor 15;
#P connect 18 0 2 1;
#P lcolor 15;
#P fasten 14 0 29 0 34 419 152 419;
#P connect 29 0 28 0;
#P fasten 14 0 18 0 34 374 270 374 270 206 180 206;
#P lcolor 15;
#P connect 18 1 14 1;
#P lcolor 15;
#P connect 18 0 14 1;
#P lcolor 15;
#P connect 12 0 9 0;
#P fasten 9 1 10 0 625 151 336 151;
#P connect 10 0 19 0;
#P connect 6 0 7 0;
#P connect 7 0 8 0;
#P connect 10 1 21 0;
#P connect 10 2 20 0;
#P connect 10 1 27 0;
#P connect 27 0 22 0;
#P connect 10 3 27 1;
#P connect 10 4 23 0;
#P connect 10 7 1 0;
#P connect 9 1 26 0;
#P pop;
