max v2;
#N vpatcher 179 215 631 572;
#P window setfont "Sans Serif" 9.;
#P newex 52 189 27 196617 + 2;
#P newex 52 154 75 196617 split -100 100;
#N comlet connect to umenu;
#P outlet 230 301 15 0;
#P newex 230 212 28 196617 pack;
#N coll ;
#P newobj 230 250 53 196617 coll;
#P newex 230 190 31 196617 swap;
#P newex 191 168 49 196617 zl slice 1;
#N vpatcher 40 55 701 337;
#P outlet 223 234 15 0;
#P window setfont "Sans Serif" 9.;
#P message 379 152 65 196617 setitem 4 \$1;
#P message 307 152 65 196617 setitem 3 \$1;
#P message 227 153 65 196617 setitem 2 \$1;
#P message 148 151 65 196617 setitem 1 \$1;
#P newex 273 79 27 196617 * 4;
#P newex 245 79 27 196617 * 2;
#P newex 217 79 27 196617 / 2;
#P newex 189 79 27 196617 / 4;
#P number 189 56 50 9 0 0 0 3 0 0 0 221 221 221 222 222 222 0 0 0;
#P newex 175 33 53 196617 dspstate~;
#P message 58 152 65 196617 setitem 0 \$1;
#P connect 3 0 0 0;
#P connect 4 0 7 0;
#P connect 1 1 2 0;
#P connect 2 0 3 0;
#P connect 2 0 4 0;
#P connect 10 0 11 0;
#P connect 9 0 11 0;
#P connect 8 0 11 0;
#P connect 7 0 11 0;
#P connect 0 0 11 0;
#P connect 2 0 8 0;
#P connect 2 0 5 0;
#P connect 2 0 6 0;
#P connect 5 0 9 0;
#P connect 6 0 10 0;
#P pop;
#P newobj 151 130 84 196617 p SR_menu_build;
#N comlet sr;
#P inlet 52 128 15 0;
#P connect 0 0 7 0;
#P connect 7 0 8 0;
#P fasten 1 0 2 0 156 158 196 158;
#P connect 2 1 3 0;
#P connect 3 0 5 0;
#P connect 5 0 4 0;
#P connect 7 1 4 0;
#P connect 4 0 6 0;
#P connect 1 0 6 0;
#P connect 8 0 6 0;
#P connect 3 1 5 1;
#P pop;
