max v2;
#N vpatcher 546 45 976 394;
#P origin 0 -5;
#P window setfont "Sans Serif" 9.;
#P window linecount 1;
#P newex 80 58 87 196617 jmod.init.mxt $1;
#P newex 239 192 86 196617 r $1_pattr_bang;
#P comment 92 294 182 196617 (for remote communication to the hub);
#P newex 93 252 60 196617 prepend $2;
#P newex 93 274 150 196617 s $1_parameter;
#P newex 20 214 190 196617 jmod.pattr_wrap.mxt $1 $2 parameter;
#P outlet 47 278 15 0;
#P newex 239 214 121 196617 pattr $2 @autorestore 0;
#X prestore 1 0 0;
#P objectname $2;
#P outlet 20 278 15 0;
#P window linecount 2;
#P newex 80 80 299 196617 patcherargs $1 mod_name @ramp 0 @type generic @repetitions 1 @range default @clipmode none @description no info provided;
#P inlet 20 54 15 0;
#P comment 238 165 175 196617 Force output from pattr if jmod.cuelist queries current state.;
#P connect 1 0 6 0;
#P connect 6 0 3 0;
#P fasten 4 0 5 0 244 242 52 242;
#P connect 11 0 2 0;
#P fasten 4 0 8 0 244 245 98 245;
#P connect 8 0 7 0;
#P fasten 2 1 6 1 374 117 115 117;
#P connect 4 0 6 2;
#P connect 6 1 4 0;
#P connect 10 0 4 0;
#P pop;
