max v2;
#N vpatcher 546 45 983 385;
#P origin 0 -5;
#P window setfont "Sans Serif" 9.;
#P window linecount 1;
#P comment 92 259 182 196617 (for remote communication to the hub);
#P newex 93 217 60 196617 prepend $2;
#P newex 93 239 150 196617 s $1_parameter;
#P newex 20 179 190 196617 jmod.pattr_wrap.mxt $1 $2 parameter;
#P outlet 47 243 15 0;
#P newex 80 79 55 196617 r jmod.init;
#P newex 239 179 121 196617 pattr $2 @autorestore 0;
#X prestore 1 0 0;
#P objectname $2;
#P outlet 20 243 15 0;
#P window linecount 2;
#P newex 80 99 299 196617 patcherargs $1 mod_name @ramp 0 @type generic @repetitions 1 @range default @clipmode none @description no info provided;
#P inlet 20 73 15 0;
#P connect 0 0 6 0;
#P connect 6 0 2 0;
#P fasten 3 0 5 0 244 207 52 207;
#P connect 4 0 1 0;
#P fasten 3 0 8 0 244 210 98 210;
#P connect 8 0 7 0;
#P fasten 1 1 6 1 374 143 115 143;
#P connect 3 0 6 2;
#P connect 6 1 3 0;
#P pop;
