max v2;#N vpatcher 1 46 1274 850;#P window setfont "Sans Serif" 9.;#P window linecount 3;#P hidden newex 1041 329 268 196617 jmod.parameter $1 /fog/amount @type msg_float @range 0. 255. @clipmode both @ramp 1 @description "Material shininess.";#P objectname jmod.parameter[23];#P window linecount 2;#P hidden newex 944 329 52 196617 pvar Shininess;#P hidden newex 1041 563 265 196617 jmod.parameter $1 /render/enable @type toggle @description "Enable drawing.";#P objectname jmod.parameter[24];#P hidden newex 1041 526 226 196617 jmod.parameter $1 /render/automatic @type toggle @description "Automatic rendering flag.";#P objectname jmod.parameter[22];#P hidden newex 1041 489 268 196617 jmod.parameter $1 /render/antialias @type toggle @description "Aliasing flag.";#P objectname jmod.parameter[21];#P hidden newex 1041 452 267 196617 jmod.parameter $1 /material/inherit @type toggle @description "Inherit material properties from context.";#P objectname jmod.parameter[20];#P hidden newex 1041 415 270 196617 jmod.parameter $1 /material/automatic @type toggle @description "Enable blending.";#P objectname jmod.parameter[19];#P hidden newex 1041 378 222 196617 jmod.parameter $1 /material/light/enable @type toggle @description "Calculate lighting.";#P objectname jmod.parameter[18];#P hidden newex 943 563 69 196617 pvar RenderEnable;#P hidden newex 943 526 87 196617 pvar RenderAutomatic;#P hidden newex 943 489 50 196617 pvar Antialias;#P hidden newex 943 452 78 196617 pvar MaterialInherit;#P hidden newex 943 415 94 196617 pvar MaterialAutomatic;#P hidden newex 943 378 73 196617 pvar LightingEnable;#P hidden newex 944 255 59 196617 pvar FogAmount;#P hidden newex 1041 255 254 196617 jmod.parameter $1 /fog/amount @type msg_float @range 0. 1. @description "The amount of fog effect.";#P objectname jmod.parameter[17];#P hidden newex 1041 292 243 196617 jmod.parameter $1 /fog/inherit @type toggle @description "inherit fog properties from context.";#P objectname jmod.parameter[16];#P hidden newex 944 292 55 196617 pvar FogInherit;#P hidden newex 1041 218 253 196617 jmod.parameter $1 /depth/inherit @type toggle @description "Inherit depth properties from context.";#P objectname jmod.parameter[15];#P hidden newex 944 218 65 196617 pvar DepthInherit;#P hidden newex 1041 181 281 196617 jmod.parameter $1 /depth/enable @type toggle @description "Enable depth buffering.";#P objectname jmod.parameter[14];#P hidden newex 944 181 63 196617 pvar DepthEnable;#P hidden newex 1041 144 282 196617 jmod.parameter $1 /depth/clear @type toggle @description "Clear depth buffer before rendering the object.";#P objectname jmod.parameter[13];#P hidden newex 944 144 59 196617 pvar DepthClear;#P hidden newex 1041 107 252 196617 jmod.parameter $1 /color/inherit @type toggle @description "Inherit color properties from context.";#P objectname jmod.parameter[12];#P hidden newex 944 107 64 196617 pvar ColorInherit;#P hidden newex 1041 70 265 196617 jmod.parameter $1 /blend/enable @type toggle @description "Enable blending.";#P objectname jmod.parameter[11];#P hidden newex 944 70 62 196617 pvar BlendEnable;#P hidden newex 1041 33 251 196617 jmod.parameter $1 /blend/mode @type menu @description "Blend mode.";#P objectname jmod.parameter[10];#P hidden newex 944 33 57 196617 pvar BlendMode;#P window linecount 1;#P hidden newex 535 600 62 196617 pvar SpecA;#P window linecount 2;#P hidden newex 497 626 370 196617 jmod.parameter.mxt $1 /material/light/specular @type msg_list @description "The specular light material property as red\\\, green\\\, blue\\\, alpha (0.-1.).";#P objectname jmod.parameter[9];#P window linecount 1;#P hidden newex 346 626 144 196617 jmod.list2parameter.mxt 4;#P hidden newex 472 600 61 196617 pvar SpecB;#P hidden newex 409 600 61 196617 pvar SpecG;#P hidden newex 346 600 61 196617 pvar SpecR;#P hidden newex 524 532 54 196617 pvar EmA;#P window linecount 2;#P hidden newex 497 558 371 196617 jmod.parameter.mxt $1 /material/light/emission @type msg_list @description "The material emission property as red\\\, green\\\, blue\\\, alpha (0.-1.).";#P objectname jmod.parameter[8];#P window linecount 1;#P hidden newex 346 558 144 196617 jmod.list2parameter.mxt 4;#P hidden newex 462 532 53 196617 pvar EmB;#P hidden newex 404 532 53 196617 pvar EmG;#P hidden newex 346 532 53 196617 pvar EmR;#P hidden newex 524 464 58 196617 pvar DiffA;#P window linecount 2;#P hidden newex 497 490 363 196617 jmod.parameter.mxt $1 /material/light/diffuse @type msg_list @description "The diffuse light material property as red\\\, green\\\, blue\\\, alpha (0.-1.).";#P objectname jmod.parameter[6];#P window linecount 1;#P hidden newex 346 490 144 196617 jmod.list2parameter.mxt 4;#P hidden newex 462 464 57 196617 pvar DiffB;#P hidden newex 404 464 57 196617 pvar DiffG;#P hidden newex 346 464 57 196617 pvar DiffR;#P hidden newex 532 396 61 196617 pvar AmbA;#P window linecount 2;#P hidden newex 497 422 367 196617 jmod.parameter.mxt $1 /material/light/ambient @type msg_list @description "The ambient light material property as red\\\, green\\\, blue\\\, alpha (0.-1.).";#P objectname jmod.parameter[7];#P window linecount 1;#P hidden newex 346 422 144 196617 jmod.list2parameter.mxt 4;#P hidden newex 470 396 60 196617 pvar AmbB;#P hidden newex 408 396 60 196617 pvar AmbG;#P hidden newex 346 396 60 196617 pvar AmbR;#P hidden newex 727 318 64 196617 pvar FogEnd;#P hidden newex 652 318 73 196617 pvar FogStart;#P hidden newex 580 318 70 196617 pvar FogDens;#P hidden newex 521 318 56 196617 pvar FogA;#P window linecount 2;#P hidden newex 497 351 276 196617 jmod.parameter.mxt $1 /fog/params @type msg_list @description "Fog color (RGBA)\\\, density\\\,start and end.";#P objectname jmod.parameter[5];#P window linecount 1;#P hidden newex 347 351 144 196617 jmod.list2parameter.mxt 7;#P hidden newex 463 318 55 196617 pvar FogB;#P hidden newex 405 318 55 196617 pvar FogG;#P hidden newex 347 318 55 196617 pvar FogR;#P window linecount 2;#P hidden newex 583 235 351 196617 jmod.parameter.mxt $1 /color/alpha @type msg_float @range 0. 1. @clipmode both @ramp 1 @description "Object alpha transparency (0.-1.).";#P objectname jmod.parameter[4];#P window linecount 1;#P hidden newex 524 243 55 196617 pvar ColA;#P window linecount 2;#P hidden newex 497 269 273 196617 jmod.parameter.mxt $1 /color/rgb @type msg_list @description "Object color as red\\\, green\\\, blue (0.-1.).";#P objectname jmod.parameter[3];#P window linecount 1;#P hidden newex 346 269 144 196617 jmod.list2parameter.mxt 3;#P hidden newex 462 243 54 196617 pvar ColB;#P hidden newex 404 243 54 196617 pvar ColG;#P hidden newex 346 243 54 196617 pvar ColR;#P window linecount 2;#P hidden newex 497 197 249 196617 jmod.parameter.mxt $1 /3D/scale @type msg_list @description "3D scaling factor as xyz coordinates.";#P objectname jmod.parameter[2];#P window linecount 1;#P hidden newex 347 197 144 196617 jmod.list2parameter.mxt 3;#P hidden newex 479 173 63 196617 pvar ScaleZ;#P hidden newex 413 173 64 196617 pvar ScaleY;#P hidden newex 347 173 64 196617 pvar ScaleX;#P hidden newex 547 108 54 196617 pvar RotZ;#P window linecount 2;#P hidden newex 497 134 315 196617 jmod.parameter.mxt $1 /3D/position @type msg_list @description "3D rotation as angle and xyz rotation axis coordinates.";#P objectname jmod.parameter[1];#P window linecount 1;#P hidden newex 347 134 144 196617 jmod.list2parameter.mxt 4;#P hidden newex 485 108 55 196617 pvar RotY;#P hidden newex 423 108 55 196617 pvar RotX;#P hidden newex 347 108 74 196617 pvar RotAngle;#P window linecount 2;#P hidden newex 497 62 254 196617 jmod.parameter.mxt $1 /3D/position @type msg_list @description "3D origin as xyz coordinates.";#P objectname jmod.parameter;#P window linecount 1;#P hidden newex 347 62 144 196617 jmod.list2parameter.mxt 3;#P hidden newex 470 38 55 196617 pvar PosZ;#P hidden newex 410 38 56 196617 pvar PosY;#P hidden newex 347 38 56 196617 pvar PosX;#P comment 111 639 56 196617 Automatic;#B frgb 255 255 255;#P user radiogroup 96 637 73 16;#X size 1;#X offset 16;#X inactive 0;#X itemtype 1;#X flagmode 0;#X set 0;#X done;#P objectname RenderAutomatic;#P comment 111 623 45 196617 Antialias;#B frgb 255 255 255;#P user radiogroup 96 621 73 16;#X size 1;#X offset 16;#X inactive 0;#X itemtype 1;#X flagmode 0;#X set 0;#X done;#P objectname Antialias;#P comment 111 655 45 196617 Enable;#B frgb 255 255 255;#P user radiogroup 96 653 73 16;#X size 1;#X offset 16;#X inactive 0;#X itemtype 1;#X flagmode 0;#X set 0;#X done;#P objectname RenderEnable;#P window setfont "Sans Serif" 12.;#P comment 7 615 64 196620 Render;#B frgb 255 255 255;#P window setfont "Sans Serif" 9.;#P flonum 94 529 40 9 0. 255. 8227 3 255 255 255 221 221 221 222 222 222 0 0 0;#P objectname Shininess;#P comment 7 531 76 196617 Shininess:;#B frgb 255 255 255;#P comment 112 582 45 196617 Inherit;#B frgb 255 255 255;#P user radiogroup 94 580 73 16;#X size 1;#X offset 16;#X inactive 0;#X itemtype 1;#X flagmode 0;#X set 0;#X done;#P objectname MaterialInherit;#P user radiogroup 94 564 118 16;#X size 1;#X offset 16;#X inactive 0;#X itemtype 1;#X flagmode 0;#X set 0;#X done;#P objectname MaterialAutomatic;#P comment 110 550 81 196617 Lighting enabled;#B frgb 255 255 255;#P user radiogroup 94 548 73 16;#X size 1;#X offset 16;#X inactive 0;#X itemtype 1;#X flagmode 0;#X set 0;#X done;#P objectname LightingEnable;#P flonum 94 512 40 9 0. 1. 8227 3 255 255 255 221 221 221 222 222 222 0 0 0;#P objectname SpecR;#P flonum 220 512 40 9 0. 1. 8227 3 255 255 255 221 221 221 222 222 222 0 0 0;#P objectname SpecA;#P flonum 178 512 40 9 0. 1. 8227 3 255 255 255 221 221 221 222 222 222 0 0 0;#P objectname SpecB;#P flonum 136 512 40 9 0. 1. 8227 3 255 255 255 221 221 221 222 222 222 0 0 0;#P objectname SpecG;#P comment 7 514 76 196617 Specular light:;#B frgb 255 255 255;#P flonum 94 494 40 9 0. 1. 8227 3 255 255 255 221 221 221 222 222 222 0 0 0;#P objectname EmR;#P flonum 220 494 40 9 0. 1. 8227 3 255 255 255 221 221 221 222 222 222 0 0 0;#P objectname EmA;#P flonum 178 494 40 9 0. 1. 8227 3 255 255 255 221 221 221 222 222 222 0 0 0;#P objectname EmB;#P flonum 136 494 40 9 0. 1. 8227 3 255 255 255 221 221 221 222 222 222 0 0 0;#P objectname EmG;#P comment 7 496 79 196617 Emmision light:;#B frgb 255 255 255;#P flonum 94 476 40 9 0. 1. 8227 3 255 255 255 221 221 221 222 222 222 0 0 0;#P objectname DiffR;#P flonum 220 476 40 9 0. 1. 8227 3 255 255 255 221 221 221 222 222 222 0 0 0;#P objectname DiffA;#P flonum 178 476 40 9 0. 1. 8227 3 255 255 255 221 221 221 222 222 222 0 0 0;#P objectname DiffB;#P flonum 136 476 40 9 0. 1. 8227 3 255 255 255 221 221 221 222 222 222 0 0 0;#P objectname DiffG;#P comment 7 478 70 196617 Diffuse light:;#B frgb 255 255 255;#P flonum 94 458 40 9 0. 1. 8227 3 255 255 255 221 221 221 222 222 222 0 0 0;#P objectname AmbR;#P flonum 220 458 40 9 0 0 8224 3 255 255 255 221 221 221 222 222 222 0 0 0;#P objectname AmbA;#P flonum 178 458 40 9 0. 1. 8227 3 255 255 255 221 221 221 222 222 222 0 0 0;#P objectname AmbB;#P flonum 136 458 40 9 0. 1. 8227 3 255 255 255 221 221 221 222 222 222 0 0 0;#P objectname AmbG;#P comment 220 441 38 196617 Alpha;#B frgb 255 255 255;#P comment 178 441 38 196617 Blue;#B frgb 255 255 255;#P comment 136 441 38 196617 Green;#B frgb 255 255 255;#P comment 94 441 38 196617 Red;#B frgb 255 255 255;#P comment 7 460 74 196617 Ambient light:;#B frgb 255 255 255;#P window setfont "Sans Serif" 12.;#P comment 7 439 64 196620 Material;#B frgb 255 255 255;#P window setfont "Sans Serif" 9.;#P flonum 94 382 40 9 0. 1. 8227 3 255 255 255 221 221 221 222 222 222 0 0 0;#P objectname FogDens;#P flonum 220 382 40 9 0. 1. 8227 3 255 255 255 221 221 221 222 222 222 0 0 0;#P objectname FogAmount;#P flonum 178 382 40 9 0. 0 8225 3 255 255 255 221 221 221 222 222 222 0 0 0;#P objectname FogEnd;#P flonum 136 382 40 9 0. 0 8225 3 255 255 255 221 221 221 222 222 222 0 0 0;#P objectname FogStart;#P comment 220 365 44 196617 Amount;#B frgb 255 255 255;#P comment 178 365 38 196617 End;#B frgb 255 255 255;#P comment 136 365 38 196617 Start;#B frgb 255 255 255;#P comment 94 365 44 196617 Density;#B frgb 255 255 255;#P comment 109 406 45 196617 Inherit;#B frgb 255 255 255;#P user radiogroup 94 404 73 16;#X size 1;#X offset 16;#X inactive 0;#X itemtype 1;#X flagmode 0;#X set 0;#X done;#P objectname FogInherit;#P flonum 94 341 40 9 0. 1. 8227 3 255 255 255 221 221 221 222 222 222 0 0 0;#P objectname FogR;#P flonum 220 341 40 9 0 0 8224 3 255 255 255 221 221 221 222 222 222 0 0 0;#P objectname FogA;#P flonum 178 341 40 9 0. 1. 8227 3 255 255 255 221 221 221 222 222 222 0 0 0;#P objectname FogB;#P flonum 136 341 40 9 0. 1. 8227 3 255 255 255 221 221 221 222 222 222 0 0 0;#P objectname FogG;#P comment 220 324 38 196617 Alpha;#B frgb 255 255 255;#P comment 178 324 38 196617 Blue;#B frgb 255 255 255;#P comment 136 324 38 196617 Green;#B frgb 255 255 255;#P comment 94 324 38 196617 Red;#B frgb 255 255 255;#P window setfont "Sans Serif" 12.;#P comment 7 321 64 196620 Fog;#B frgb 255 255 255;#P window setfont "Sans Serif" 9.;#P comment 109 271 45 196617 Enable;#B frgb 255 255 255;#P user radiogroup 94 269 73 16;#X size 1;#X offset 16;#X inactive 0;#X itemtype 1;#X flagmode 0;#X set 0;#X done;#P objectname DepthEnable;#P comment 109 255 45 196617 Clear;#B frgb 255 255 255;#P user radiogroup 94 253 73 16;#X size 1;#X offset 16;#X inactive 0;#X itemtype 1;#X flagmode 0;#X set 0;#X done;#P objectname DepthClear;#P comment 109 287 45 196617 Inherit;#B frgb 255 255 255;#P user radiogroup 94 285 73 16;#X size 1;#X offset 16;#X inactive 0;#X itemtype 1;#X flagmode 0;#X set 0;#X done;#P objectname DepthInherit;#P window setfont "Sans Serif" 12.;#P comment 7 250 64 196620 Depth;#B frgb 255 255 255;#P window setfont "Sans Serif" 9.;#P comment 109 216 45 196617 Inherit;#B frgb 255 255 255;#P user radiogroup 94 214 73 16;#X size 1;#X offset 16;#X inactive 0;#X itemtype 1;#X flagmode 0;#X set 0;#X done;#P objectname ColorInherit;#P flonum 94 196 40 9 0. 1. 8227 3 255 255 255 221 221 221 222 222 222 0 0 0;#P objectname ColR;#P flonum 220 196 40 9 0. 1. 8227 3 255 255 255 221 221 221 222 222 222 0 0 0;#P objectname ColA;#P flonum 178 196 40 9 0. 1. 8227 3 255 255 255 221 221 221 222 222 222 0 0 0;#P objectname ColB;#P flonum 136 196 40 9 0. 1. 8227 3 255 255 255 221 221 221 222 222 222 0 0 0;#P objectname ColG;#P comment 220 179 38 196617 Alpha;#B frgb 255 255 255;#P comment 178 179 38 196617 Blue;#B frgb 255 255 255;#P comment 136 179 38 196617 Green;#B frgb 255 255 255;#P comment 94 179 38 196617 Red;#B frgb 255 255 255;#P comment 7 198 64 196617 Position;#B frgb 255 255 255;#P window setfont "Sans Serif" 12.;#P comment 7 177 64 196620 Color;#B frgb 255 255 255;#P comment 7 98 64 196620 Blend;#B frgb 255 255 255;#P window setfont "Sans Serif" 9.;#P comment 7 124 64 196617 Mode:;#B frgb 255 255 255;#P comment 109 146 45 196617 Enable;#B frgb 255 255 255;#P user radiogroup 94 144 73 16;#X size 1;#X offset 16;#X inactive 0;#X itemtype 1;#X flagmode 0;#X set 0;#X done;#P objectname BlendEnable;#P user umenu 94 124 158 196647 1 64 140 1;#X add 0: zero;#X add 1: one;#X add 2: destination color;#X add 3: source color;#X add 4: one minus destination color;#X add 5: one minus source color;#X add source alpha;#X add 6: one minus source alpha;#X add 7: destination alpha;#X add 8: one minus destination alpha;#X add 9: source alpha 10: saturate;#P objectname BlendMode;#P flonum 94 48 40 9 0 0 8224 3 255 255 255 221 221 221 222 222 222 0 0 0;#P objectname RotAngle;#P flonum 220 48 40 9 0 0 8224 3 255 255 255 221 221 221 222 222 222 0 0 0;#P objectname RotZ;#P flonum 178 48 40 9 0 0 8224 3 255 255 255 221 221 221 222 222 222 0 0 0;#P objectname RotY;#P flonum 136 48 40 9 0 0 8224 3 255 255 255 221 221 221 222 222 222 0 0 0;#P objectname RotX;#P flonum 220 66 40 9 0. 0 8225 3 255 255 255 221 221 221 222 222 222 0 0 0;#P objectname ScaleZ;#P flonum 178 66 40 9 0. 0 8225 3 255 255 255 221 221 221 222 222 222 0 0 0;#P objectname ScaleY;#P flonum 136 66 40 9 0. 0 8225 3 255 255 255 221 221 221 222 222 222 0 0 0;#P objectname ScaleX;#P flonum 220 30 40 9 0 0 8224 3 255 255 255 221 221 221 222 222 222 0 0 0;#P objectname PosZ;#P flonum 178 30 40 9 0 0 8224 3 255 255 255 221 221 221 222 222 222 0 0 0;#P objectname PosY;#P flonum 136 30 40 9 0 0 8224 3 255 255 255 221 221 221 222 222 222 0 0 0;#P objectname PosX;#P comment 220 12 38 196617 Z;#B frgb 255 255 255;#P comment 178 12 38 196617 Y;#B frgb 255 255 255;#P comment 136 12 38 196617 X;#B frgb 255 255 255;#P comment 94 12 38 196617 Angle;#B frgb 255 255 255;#P comment 7 48 64 196617 Rotation:;#B frgb 255 255 255;#P comment 7 66 64 196617 Scale:;#B frgb 255 255 255;#P comment 7 30 64 196617 Position;#B frgb 255 255 255;#P hidden newex 73 703 106 196617 bgcolor 110 110 110;#P window setfont "Sans Serif" 12.;#P comment 7 8 81 196620 3D position;#B frgb 255 255 255;#P window setfont "Sans Serif" 9.;#P comment 7 341 64 196617 Color;#B frgb 255 255 255;#P user panel 1 1 265 86;#X brgb 110 110 110;#X frgb 255 255 255;#X border 1;#X rounded 0;#X shadow 0;#X done;#P user panel 1 92 265 73;#X brgb 110 110 110;#X frgb 255 255 255;#X border 1;#X rounded 0;#X shadow 0;#X done;#P user panel 1 171 265 66;#X brgb 110 110 110;#X frgb 255 255 255;#X border 1;#X rounded 0;#X shadow 0;#X done;#P user panel 1 243 265 64;#X brgb 110 110 110;#X frgb 255 255 255;#X border 1;#X rounded 0;#X shadow 0;#X done;#P user panel 1 314 265 112;#X brgb 110 110 110;#X frgb 255 255 255;#X border 1;#X rounded 0;#X shadow 0;#X done;#P user panel 1 608 265 67;#X brgb 110 110 110;#X frgb 255 255 255;#X border 1;#X rounded 0;#X shadow 0;#X done;#P comment 111 566 98 196617 Automatic material;#B frgb 255 255 255;#P user panel 1 433 265 168;#X brgb 110 110 110;#X frgb 255 255 255;#X border 1;#X rounded 0;#X shadow 0;#X done;#P hidden fasten 129 0 126 0 351 285 340 285 340 240 351 240;#P hidden connect 126 0 129 0;#P hidden fasten 145 0 142 0 351 441 340 441 340 393 351 393;#P hidden connect 142 0 145 0;#P hidden fasten 151 0 148 0 351 509 340 509 340 461 351 461;#P hidden connect 148 0 151 0;#P hidden fasten 157 0 154 0 351 577 340 577 340 529 351 529;#P hidden connect 154 0 157 0;#P hidden fasten 163 0 160 0 351 645 340 645 340 597 351 597;#P hidden connect 160 0 163 0;#P hidden fasten 113 0 110 0 352 80 341 80 341 35 352 35;#P hidden connect 110 0 113 0;#P hidden fasten 118 0 115 0 352 150 341 150 341 105 352 105;#P hidden connect 115 0 118 0;#P hidden fasten 124 0 121 0 352 215 341 215 341 170 352 170;#P hidden connect 121 0 124 0;#P hidden fasten 136 0 133 0 352 370 341 370 341 315 352 315;#P hidden connect 133 0 136 0;#P hidden fasten 127 0 129 1 409 261 364 261;#P hidden fasten 143 0 145 1 413 414 364 414;#P hidden fasten 149 0 151 1 409 482 364 482;#P hidden fasten 155 0 157 1 409 550 364 550;#P hidden fasten 161 0 163 1 414 618 364 618;#P hidden fasten 111 0 113 1 415 56 365 56;#P hidden fasten 116 0 118 1 428 126 365 126;#P hidden fasten 122 0 124 1 418 191 365 191;#P hidden fasten 134 0 136 1 410 336 365 336;#P hidden fasten 128 0 129 2 467 263 377 263;#P hidden fasten 144 0 145 2 475 416 377 416;#P hidden fasten 150 0 151 2 467 484 377 484;#P hidden fasten 156 0 157 2 467 552 377 552;#P hidden fasten 162 0 163 2 477 620 377 620;#P hidden fasten 112 0 113 2 475 58 378 58;#P hidden fasten 117 0 118 2 490 128 378 128;#P hidden fasten 123 0 124 2 484 193 378 193;#P hidden fasten 135 0 136 2 468 338 378 338;#P hidden fasten 147 0 145 3 537 418 390 418;#P hidden fasten 153 0 151 3 529 486 390 486;#P hidden fasten 159 0 157 3 529 554 390 554;#P hidden fasten 165 0 163 3 540 622 390 622;#P hidden fasten 120 0 118 3 552 130 391 130;#P hidden fasten 138 0 136 3 526 340 391 340;#P hidden fasten 139 0 136 4 585 342 404 342;#P hidden fasten 129 1 127 0 364 287 337 287 337 238 409 238;#P hidden fasten 151 1 149 0 364 511 337 511 337 459 409 459;#P hidden fasten 157 1 155 0 364 579 337 579 337 527 409 527;#P hidden fasten 136 1 134 0 365 372 338 372 338 313 410 313;#P hidden fasten 145 1 143 0 364 443 337 443 337 391 413 391;#P hidden fasten 163 1 161 0 364 647 337 647 337 595 414 595;#P hidden fasten 113 1 111 0 365 82 338 82 338 33 415 33;#P hidden fasten 140 0 136 5 657 344 417 344;#P hidden fasten 124 1 122 0 365 217 338 217 338 168 418 168;#P hidden fasten 118 1 116 0 365 152 338 152 338 103 428 103;#P hidden fasten 141 0 136 6 732 346 430 346;#P hidden fasten 129 2 128 0 377 289 334 289 334 236 467 236;#P hidden fasten 151 2 150 0 377 513 334 513 334 457 467 457;#P hidden fasten 157 2 156 0 377 581 334 581 334 525 467 525;#P hidden fasten 136 2 135 0 378 374 335 374 335 311 468 311;#P hidden fasten 113 2 112 0 378 84 335 84 335 31 475 31;#P hidden fasten 145 2 144 0 377 445 334 445 334 389 475 389;#P hidden fasten 163 2 162 0 377 649 334 649 334 593 477 593;#P hidden connect 130 0 129 10;#P hidden connect 146 0 145 10;#P hidden connect 152 0 151 10;#P hidden connect 158 0 157 10;#P hidden connect 164 0 163 10;#P hidden connect 114 0 113 10;#P hidden connect 119 0 118 10;#P hidden connect 125 0 124 10;#P hidden connect 137 0 136 10;#P hidden fasten 124 2 123 0 378 219 335 219 335 166 484 166;#P hidden fasten 118 2 117 0 378 154 335 154 335 101 490 101;#P hidden connect 113 10 114 0;#P hidden connect 118 10 119 0;#P hidden connect 124 10 125 0;#P hidden connect 129 10 130 0;#P hidden connect 136 10 137 0;#P hidden connect 145 10 146 0;#P hidden connect 151 10 152 0;#P hidden connect 157 10 158 0;#P hidden connect 163 10 164 0;#P hidden fasten 136 3 138 0 391 376 332 376 332 309 526 309;#P hidden connect 132 0 131 0;#P hidden fasten 151 3 153 0 390 515 331 515 331 455 529 455;#P hidden fasten 157 3 159 0 390 583 331 583 331 523 529 523;#P hidden fasten 145 3 147 0 390 447 331 447 331 387 537 387;#P hidden fasten 163 3 165 0 390 651 331 651 331 591 540 591;#P hidden fasten 118 3 120 0 391 156 332 156 332 99 552 99;#P hidden fasten 136 4 139 0 404 378 329 378 329 307 585 307;#P hidden connect 131 0 132 0;#P hidden fasten 136 5 140 0 417 380 326 380 326 305 657 305;#P hidden fasten 136 6 141 0 430 382 323 382 323 303 732 303;#P hidden connect 188 0 182 0;#P hidden connect 189 0 183 0;#P hidden connect 190 0 184 0;#P hidden connect 191 0 185 0;#P hidden connect 192 0 186 0;#P hidden connect 193 0 187 0;#P hidden connect 167 0 166 0;#P hidden connect 169 0 168 0;#P hidden connect 171 0 170 0;#P hidden connect 173 0 172 0;#P hidden connect 175 0 174 0;#P hidden connect 177 0 176 0;#P hidden connect 180 0 181 0;#P hidden connect 179 0 178 0;#P hidden connect 195 0 194 0;#P hidden connect 166 0 167 0;#P hidden connect 168 0 169 0;#P hidden connect 170 0 171 0;#P hidden connect 172 0 173 0;#P hidden connect 174 0 175 0;#P hidden connect 176 0 177 0;#P hidden connect 181 0 180 0;#P hidden connect 178 0 179 0;#P hidden connect 194 0 195 0;#P hidden connect 182 0 188 0;#P hidden connect 183 0 189 0;#P hidden connect 184 0 190 0;#P hidden connect 185 0 191 0;#P hidden connect 186 0 192 0;#P hidden connect 187 0 193 0;#P pop;