max v2;
#N vpatcher 19 242 991 747;
#P bpatcher 345 2 163 16 0 0 jmod.gui.audio-component.mxt 0;
#P objectname controls;
#P window setfont "Sans Serif" 9.;
#P hidden newex 277 300 22 196617 b 1;
#N thispatcher;
#Q end;
#P hidden newobj 256 345 60 196617 thispatcher;
#P hidden newex 256 324 125 196617 js jmod.gui.constructor.js;
#P hidden newex 155 273 277 196617 route MODULE_TITLE ATTRIBUTES BUILD;
#P hidden newex 155 253 93 196617 r $1_FROM_MHUB;
#P hidden newex 155 293 90 196617 prepend setitem 0;
#P user umenu 13 2 226 196644 3 64 18 0;
#X setrgb 165 165 165 221 221 221 255 255 255 221 221 221 170 170 170 119 119 119 187 187 187;
#X add jmod.degrade~;
#P hidden newex 276 112 185 196617 jmod.parameter.mxt $1 defeat_meters;
#B color 1;
#P objectname jmod.parameter[6];
#P hidden comment 698 392 54 196617 Processed AUDIO;
#P hidden comment 635 393 62 196617 RAW AUDIO;
#P hidden newex 655 353 141 196617 jmod.core.bypass.stereo.mxt;
#N comlet RAW Audio In - right;
#P hidden outlet 679 377 13 0;
#N comlet RAW Audio In - left;
#P hidden outlet 655 377 13 0;
#N comlet (signal) in right - RAW;
#P hidden inlet 683 333 13 0;
#N comlet (signal) in left - RAW;
#P hidden inlet 669 333 13 0;
#P hidden comment 633 319 62 196617 RAW AUDIO;
#N comlet (signal) out left;
#P hidden outlet 703 377 13 0;
#N comlet (signal) out right;
#P hidden outlet 727 377 13 0;
#N comlet (signal) in right - COOKED;
#P hidden inlet 711 333 13 0;
#N comlet (signal) in left - COOKED;
#P hidden inlet 697 333 13 0;
#P hidden comment 697 318 88 196617 Processed AUDIO;
#P hidden newex 27 104 29 196617 == 0;
#P bpatcher 0 0 16 16 0 0 jmod.menu.a.mxt 0 $1;
#P objectname menu;
#P user pictctrl 0 0 510 61 jmod.bg.metal.black.1U.pct 0 0 1 0 24 0 0 0 510 61 2 0 1 1 1 1;
#P noclick;
#P objectname background;
#P hidden connect 21 1 0 0;
#P hidden connect 16 0 1 1;
#P hidden connect 18 0 17 0;
#P hidden connect 1 1 2 0;
#P hidden connect 19 0 20 0;
#P hidden connect 20 0 18 0;
#P hidden connect 20 1 21 0;
#P hidden connect 23 0 21 0;
#P hidden connect 21 0 22 0;
#P hidden connect 1 1 16 0;
#P hidden connect 20 2 23 0;
#P hidden connect 13 2 24 0;
#P hidden connect 13 3 24 1;
#P hidden connect 13 0 11 0;
#P lcolor 6;
#P hidden connect 13 1 12 0;
#P lcolor 6;
#P hidden connect 9 0 13 1;
#P lcolor 6;
#P hidden connect 13 2 7 0;
#P hidden connect 10 0 13 2;
#P lcolor 6;
#P hidden connect 13 3 6 0;
#P hidden connect 4 0 13 3;
#P lcolor 6;
#P hidden connect 5 0 13 4;
#P lcolor 6;
#P pop;
