max v2;
#N vpatcher 495 289 900 539;
#P outlet 126 192 15 0;
#P window setfont "Sans Serif" 9.;
#P window linecount 1;
#P newex 126 164 79 196617 prepend symbol;
#P window linecount 3;
#P comment 151 116 217 196617 The reason is that umenu now is to be set \, but not trigger any output in response to messages received from jmod.parameter.mxt left outlet.;
#P window linecount 2;
#P comment 151 89 209 196617 Changes in jmod.parameter.mxt implies that "tosymbol" is no longer prepended.;
#P window linecount 1;
#P newex 80 69 49 196617 tosymbol;
#P newex 49 116 59 196617 jmod.round;
#P newex 18 47 72 196617 route int float;
#P outlet 18 192 15 0;
#P inlet 18 28 15 0;
#P comment 150 71 108 196617 // TL - 2005-04-27:;
#P connect 1 0 3 0;
#P fasten 5 0 2 0 85 184 23 184;
#P fasten 4 0 2 0 54 182 23 182;
#P fasten 3 0 2 0 23 182 23 182;
#P connect 3 1 4 0;
#P connect 3 2 5 0;
#P connect 5 0 8 0;
#P connect 8 0 9 0;
#P connect 4 0 9 0;
#P fasten 3 0 9 0 23 162;
#P pop;
