max v2;#N vpatcher 10 59 547 403;#P outlet 182 239 15 0;#P window setfont "Sans Serif" 9.;#P window linecount 1;#P newex 182 218 73 196617 prepend write;#P message 115 88 57 196617 bang;#P newex 115 109 67 196617 sel bang;#P newex 300 60 62 196617 prepend set;#P inlet 300 32 15 0;#P window linecount 2;#P comment 316 32 140 196617 set the path for future file writing;#P window linecount 1;#P newex 182 197 51 196617 tosymbol;#P message 25 103 40 196617 set $1;#P newex 25 83 58 196617 r jmod.init;#P message 115 132 57 196617 bang;#P window linecount 4;#P comment 24 32 60 196617 $1 argument is the type of file to save;#P window linecount 1;#P newex 115 154 57 196617 savedialog;#P newex 115 65 77 196617 sel bang;#P inlet 115 32 15 0;#P window linecount 2;#P comment 131 32 140 196617 bang means to use dialog \, any other input is a filepath;#P window linecount 5;#P comment 300 109 217 196617 This patch is written so that it's basically a Save As function. The normal Save function only works if path has been specified either at save time or via some other previous operation.;#P connect 7 0 8 0;#P connect 2 0 3 0;#P connect 12 0 14 0;#P connect 3 0 14 0;#P connect 14 0 13 0;#P connect 13 0 6 0;#P connect 8 0 6 0;#P connect 6 0 4 0;#P connect 4 0 9 0;#P connect 13 1 9 0;#P connect 3 1 9 0;#P connect 9 0 15 0;#P connect 15 0 16 0;#P connect 11 0 12 0;#P pop;