max v2;
#N vpatcher 275 179 973 660;
#P window setfont "Sans Serif" 9.;
#P hidden newex 155 273 103 196617 route MODULE_TITLE;
#P hidden newex 155 253 93 196617 r $1_FROM_MHUB;
#P hidden newex 155 293 90 196617 prepend setitem 0;
#P user umenu 13 2 206 196644 3 64 18 0;
#X setrgb 165 165 165 221 221 221 255 255 255 221 221 221 170 170 170 119 119 119 187 187 187;
#X add;
#P hidden newex 70 346 90 196617 s $1_FROM_MGUI;
#P bpatcher 0 0 16 16 0 0 jmod.menu.a.mxt 0 $1;
#P hidden newex 27 104 29 196617 == 0;
#P user pictctrl 0 0 255 121 jmod.bg-2h.a-null.pct 0 0 1 0 24 0 0 0 255 121 2 0 1 1 1 0;
#P noclick;
#P hidden connect 5 0 4 0;
#P hidden connect 2 1 1 0;
#P hidden connect 6 0 7 0;
#P hidden connect 7 0 5 0;
#P pop;
