max v2;#N vpatcher 20 74 448 362;#P window setfont "Sans Serif" 9.;#P window linecount 1;#P newex 25 58 90 196617 jmod.oscroute $1;#N vpatcher 40 104 640 504;#P outlet 49 170 15 0;#P window setfont "Sans Serif" 9.;#P message 49 132 33 196617 name;#P newex 49 98 75 196617 sel UID;#P inlet 49 60 15 0;#P comment 50 205 202 196617 name with no argument creates a unique ID;#P connect 1 0 2 0;#P connect 2 0 3 0;#P fasten 2 1 4 0 119 164 54 164;#P connect 3 0 4 0;#P pop;#P newobj 113 125 42 196617 p filter;#N vpatcher 40 104 640 504;#P window setfont "Sans Serif" 9.;#P window linecount 1;#P newex 50 50 73 196617 route int float;#P inlet 50 30 15 0;#P outlet 112 72 15 0;#P connect 1 0 2 0;#P connect 2 2 0 0;#P pop;#P newobj 245 125 42 196617 p filter;#P outlet 25 202 15 0;#P outlet 361 202 15 0;#P inlet 25 29 15 0;#P newex 25 93 322 196617 jmod.pass /adapt /dim /name /outputmode /planecount /type /clear;#P connect 1 0 6 0;#P connect 6 0 0 0;#P fasten 5 0 3 0 118 191 30 191;#P fasten 4 0 3 0 250 191 30 191;#P fasten 0 0 3 0 30 191 30 191;#P fasten 0 1 3 0 74 191 30 191;#P fasten 0 3 3 0 162 191 30 191;#P fasten 0 4 3 0 206 191 30 191;#P fasten 0 6 3 0 294 191 30 191;#P connect 0 2 5 0;#P connect 0 5 4 0;#P fasten 6 1 2 0 110 86 366 86;#P pop;