max v2;#N vpatcher 10 59 415 293;#P window setfont "Sans Serif" 9.;#P window linecount 1;#P newex 238 107 36 196617 zl reg;#P newex 238 54 133 196617 receive $1_display_update;#P inlet 185 43 15 0;#P outlet 32 178 15 0;#P newex 32 121 163 196617 gate 1 1;#P newex 32 99 31 196617 == 0;#P newex 32 77 133 196617 receive $1_freeze_display;#P connect 0 0 1 0;#P connect 1 0 2 0;#P fasten 6 0 3 0 243 156 37 156;#P connect 2 0 3 0;#P connect 4 0 2 1;#P connect 5 0 6 0;#P connect 4 0 6 1;#P pop;