max v2;
#N vpatcher -2 70 1024 743;
#P window setfont "Sans Serif" 9.;
#N thispatcher;
#Q end;
#P hidden newobj 21 505 60 196617 thispatcher;
#P objectname jmod.parameter.mxt[4];
#P hidden newex 165 408 48 196617 route int;
#P newex 228 434 24 196617 jmod.thru~.mxt;
#P objectname tap_thru_2;
#P inlet 228 384 15 0;
#P objectname inlet_2;
#P outlet 228 584 15 0;
#P objectname outlet_2;
#P newex 278 434 24 196617 jmod.thru~.mxt;
#P objectname tap_thru_4;
#P inlet 278 384 15 0;
#P objectname inlet_4;
#P outlet 278 584 15 0;
#P objectname outlet_4;
#P newex 203 434 24 196617 jmod.thru~.mxt;
#P objectname tap_thru_1;
#P inlet 328 384 15 0;
#P objectname inlet_6;
#P outlet 328 584 15 0;
#P objectname outlet_6;
#P newex 253 434 24 196617 jmod.thru~.mxt;
#P objectname tap_thru_3;
#P inlet 378 384 15 0;
#P objectname inlet_8;
#P outlet 378 584 15 0;
#P objectname outlet_8;
#P newex 428 434 24 196617 jmod.thru~.mxt;
#P objectname tap_thru_10;
#P inlet 428 384 15 0;
#P objectname inlet_10;
#P outlet 428 584 15 0;
#P objectname outlet_10;
#P newex 478 434 24 196617 jmod.thru~.mxt;
#P objectname tap_thru_12;
#P inlet 478 384 15 0;
#P objectname inlet_12;
#P outlet 478 584 15 0;
#P objectname outlet_12;
#P newex 528 434 24 196617 jmod.thru~.mxt;
#P objectname tap_thru_14;
#P inlet 528 384 15 0;
#P objectname inlet_14;
#P outlet 528 584 15 0;
#P objectname outlet_14;
#P newex 578 434 24 196617 jmod.thru~.mxt;
#P objectname tap_thru_16;
#P inlet 578 384 15 0;
#P objectname inlet_16;
#P outlet 578 584 15 0;
#P objectname outlet_16;
#P newex 628 434 24 196617 jmod.thru~.mxt;
#P objectname tap_thru_18;
#P inlet 628 384 15 0;
#P objectname inlet_18;
#P outlet 628 584 15 0;
#P objectname outlet_18;
#P newex 678 434 24 196617 jmod.thru~.mxt;
#P objectname tap_thru_20;
#P inlet 678 384 15 0;
#P objectname inlet_20;
#P outlet 678 584 15 0;
#P objectname outlet_20;
#P newex 728 434 24 196617 jmod.thru~.mxt;
#P objectname tap_thru_22;
#P inlet 728 384 15 0;
#P objectname inlet_22;
#P outlet 728 584 15 0;
#P objectname outlet_22;
#P newex 778 434 24 196617 jmod.thru~.mxt;
#P objectname tap_thru_24;
#P inlet 778 384 15 0;
#P objectname inlet_24;
#P outlet 778 584 15 0;
#P objectname outlet_24;
#P newex 828 434 24 196617 jmod.thru~.mxt;
#P objectname tap_thru_26;
#P inlet 828 384 15 0;
#P objectname inlet_26;
#P outlet 828 584 15 0;
#P objectname outlet_26;
#P newex 878 434 24 196617 jmod.thru~.mxt;
#P objectname tap_thru_28;
#P inlet 878 384 15 0;
#P objectname inlet_28;
#P outlet 878 584 15 0;
#P objectname outlet_28;
#P newex 928 434 24 196617 jmod.thru~.mxt;
#P objectname tap_thru_30;
#P inlet 928 384 15 0;
#P objectname inlet_30;
#P outlet 928 584 15 0;
#P objectname outlet_30;
#P newex 978 434 24 196617 jmod.thru~.mxt;
#P objectname tap_thru_32;
#P inlet 978 384 15 0;
#P objectname inlet_32;
#P outlet 978 584 15 0;
#P objectname outlet_32;
#P message 98 454 43 196617 compile;
#P message 51 453 14 196617 3;
#P newex 21 483 155 196617 js jmod.gui.audio-constructor.js;
#P hidden newex 452 118 51 196617 jmod.thru~.mxt;
#P hidden newex 197 80 48 196617 route int;
#P hidden message 393 179 55 196617 bypass \$1;
#P objectname bypass;
#P hidden message 317 154 65 196617 gain_midi \$1;
#P objectname gain_midi;
#P hidden inlet 217 45 15 0;
#P hidden inlet 199 45 15 0;
#P hidden comment 612 267 54 196617 Processed AUDIO;
#P hidden comment 444 272 62 196617 RAW AUDIO;
#P hidden newex 498 149 142 196617 jmod.gain~ 2;
#N comlet RAW Audio In - right;
#P hidden outlet 488 256 13 0;
#N comlet RAW Audio In - left;
#P hidden outlet 464 256 13 0;
#P hidden comment 180 24 62 196617 RAW AUDIO;
#N comlet (signal) out left;
#P hidden outlet 617 252 13 0;
#N comlet (signal) out right;
#P hidden outlet 641 252 13 0;
#P hidden comment 398 21 88 196617 Processed AUDIO;
#P hidden newex 43 589 93 196617 route num_outputs;
#P objectname jmod.parameter.mxt[3];
#P hidden newex 43 567 93 196617 route ATTRIBUTES;
#P objectname jmod.parameter.mxt[2];
#P hidden newex 43 546 93 196617 r $1_FROM_MHUB;
#P objectname jmod.parameter.mxt[1];
#P hidden message 20 386 45 196617 set \$1 0;
#P hidden inlet 443 43 15 0;
#P hidden inlet 425 43 15 0;
#P user jmod.meter~ 4 192 82 2;
#P hidden newex 243 211 185 196617 jmod.parameter $1 sr @filter_dupes 1;
#P objectname jmod.parameter.mxt;
#P user jsui 120 192 40 11 0 0 0 jmod.jsui_sr.js 0 20000 0;
#P objectname samprate;
#P hidden number 111 346 35 9 0 0 0 3 0 0 0 74 156 97 222 222 222 0 0 0;
#P hidden newex 20 345 89 196617 pvar gain_master;
#B color 7;
#P hidden newex 20 366 160 196617 jmod.parameter.gain.mxt $1 gain;
#B color 2;
#P objectname jmod.parameter.gain.mxt;
#P hidden newex 248 264 30 196617 == 0;
#P hidden newex 248 245 140 196617 jmod.message.mxt $1 enable;
#B color 1;
#P objectname jmod.parameter[2];
#P hidden newex 248 311 152 196617 jmod.parameter.mxt $1 bypass;
#B color 1;
#P objectname jmod.parameter[1];
#P hidden newex 249 289 143 196617 jmod.parameter.mxt $1 mute;
#B color 1;
#P objectname jmod.parameter;
#P user pictctrl 92 192 11 11 jmod.button.bypass.pct 0 0 1 1 26 0 0 0 11 11 128 0 1 1 1 1;
#P user pictslider 3 197 84 8 0 0 0 0 jmod.slider.knob.gain.pct 1 jmod.slider.bg.gain.pct 1 2113 0 0 157 1. 1.;
#P objectname gain_master;
#P user pictctrl 104 192 11 11 jmod.button.mute.pct 0 0 1 1 26 0 0 0 11 11 128 0 1 1 1 1;
#P user jmod.meter~ 4 195 82 2;
#P user pictctrl 0 190 162 15 jmod.bg.audio-component.pct 0 0 1 0 24 0 0 0 162 15 2 0 1 1 1 1;
#P noclick;
#P objectname background;
#P hidden comment 87 76 108 196617 the int is the number of channels as provided by the attributes/jmod.gui js;
#P hidden comment 688 100 100 196617 not sure why - but without these jmod.thru~.mxt objects the signal chain does not compile properly?;
#P newex 328 434 24 196617 jmod.thru~.mxt;
#P objectname tap_thru_6;
#P inlet 203 384 15 0;
#P objectname inlet_1;
#P outlet 203 584 15 0;
#P objectname outlet_1;
#P newex 353 434 24 196617 jmod.thru~.mxt;
#P objectname tap_thru_7;
#P inlet 253 384 15 0;
#P objectname inlet_3;
#P outlet 253 584 15 0;
#P objectname outlet_3;
#P newex 378 434 24 196617 jmod.thru~.mxt;
#P objectname tap_thru_8;
#P inlet 303 384 15 0;
#P objectname inlet_5;
#P outlet 303 584 15 0;
#P objectname outlet_5;
#P newex 403 434 24 196617 jmod.thru~.mxt;
#P objectname tap_thru_9;
#P inlet 353 384 15 0;
#P objectname inlet_7;
#P outlet 353 584 15 0;
#P objectname outlet_7;
#P newex 303 434 24 196617 jmod.thru~.mxt;
#P objectname tap_thru_5;
#P inlet 403 384 15 0;
#P objectname inlet_9;
#P outlet 403 584 15 0;
#P objectname outlet_9;
#P newex 453 434 24 196617 jmod.thru~.mxt;
#P objectname tap_thru_11;
#P inlet 453 384 15 0;
#P objectname inlet_11;
#P outlet 453 584 15 0;
#P objectname outlet_11;
#P newex 503 434 24 196617 jmod.thru~.mxt;
#P objectname tap_thru_13;
#P inlet 503 384 15 0;
#P objectname inlet_13;
#P outlet 503 584 15 0;
#P objectname outlet_13;
#P newex 553 434 24 196617 jmod.thru~.mxt;
#P objectname tap_thru_15;
#P inlet 553 384 15 0;
#P objectname inlet_15;
#P outlet 553 584 15 0;
#P objectname outlet_15;
#P newex 603 434 24 196617 jmod.thru~.mxt;
#P objectname tap_thru_17;
#P inlet 603 384 15 0;
#P objectname inlet_17;
#P outlet 603 584 15 0;
#P objectname outlet_17;
#P newex 653 434 24 196617 jmod.thru~.mxt;
#P objectname tap_thru_19;
#P inlet 653 384 15 0;
#P objectname inlet_19;
#P outlet 653 584 15 0;
#P objectname outlet_19;
#P newex 703 434 24 196617 jmod.thru~.mxt;
#P objectname tap_thru_21;
#P inlet 703 384 15 0;
#P objectname inlet_21;
#P outlet 703 584 15 0;
#P objectname outlet_21;
#P newex 753 434 24 196617 jmod.thru~.mxt;
#P objectname tap_thru_23;
#P inlet 753 384 15 0;
#P objectname inlet_23;
#P outlet 753 584 15 0;
#P objectname outlet_23;
#P newex 803 434 24 196617 jmod.thru~.mxt;
#P objectname tap_thru_25;
#P inlet 803 384 15 0;
#P objectname inlet_25;
#P outlet 803 584 15 0;
#P objectname outlet_25;
#P newex 853 434 24 196617 jmod.thru~.mxt;
#P objectname tap_thru_27;
#P inlet 853 384 15 0;
#P objectname inlet_27;
#P outlet 853 584 15 0;
#P objectname outlet_27;
#P newex 903 434 24 196617 jmod.thru~.mxt;
#P objectname tap_thru_29;
#P inlet 903 384 15 0;
#P objectname inlet_29;
#P outlet 903 584 15 0;
#P objectname outlet_29;
#P newex 953 434 24 196617 jmod.thru~.mxt;
#P objectname tap_thru_31;
#P inlet 953 384 15 0;
#P objectname inlet_31;
#P outlet 953 584 15 0;
#P objectname outlet_31;
#P hidden connect 77 3 64 0;
#P hidden connect 77 2 51 0;
#P hidden fasten 67 0 60 0 25 406 15 406 15 341 25 341;
#P hidden connect 60 0 59 0;
#P hidden connect 59 0 67 0;
#P fasten 137 0 86 0 170 434 26 434;
#P connect 87 0 86 0;
#P connect 88 0 86 0;
#P connect 86 0 138 0;
#P hidden connect 68 0 69 0;
#P hidden connect 69 0 70 0;
#P hidden connect 56 0 54 0;
#P hidden connect 58 0 52 0;
#P hidden connect 55 0 52 0;
#P hidden connect 60 0 61 0;
#P hidden connect 63 0 62 0;
#P connect 46 0 137 0;
#P hidden connect 80 0 84 0;
#P connect 137 1 130 0;
#P connect 135 0 136 0;
#P hidden connect 62 0 63 0;
#P hidden connect 57 0 58 0;
#P hidden connect 54 0 56 0;
#P hidden connect 52 0 55 0;
#P connect 43 0 127 0;
#P fasten 132 0 133 0 283 433;
#P connect 40 0 35 0;
#P hidden connect 59 0 82 0;
#P connect 129 0 47 0;
#P connect 37 0 44 0;
#P connect 126 0 41 0;
#P hidden connect 54 0 83 0;
#P connect 34 0 38 0;
#P connect 123 0 124 0;
#P hidden connect 84 1 85 0;
#P connect 31 0 32 0;
#P hidden connect 77 0 75 0;
#P connect 120 0 121 0;
#P hidden connect 77 1 76 0;
#P hidden connect 83 0 77 0;
#P hidden connect 82 0 77 0;
#P hidden connect 85 0 77 0;
#P connect 28 0 29 0;
#P connect 117 0 118 0;
#P connect 81 0 77 1;
#P connect 25 0 26 0;
#P connect 114 0 115 0;
#P connect 65 0 77 2;
#P connect 22 0 23 0;
#P hidden connect 77 2 73 0;
#P connect 111 0 112 0;
#P connect 66 0 77 3;
#P hidden connect 77 3 72 0;
#P connect 19 0 20 0;
#P connect 108 0 109 0;
#P connect 16 0 17 0;
#P connect 105 0 106 0;
#P connect 13 0 14 0;
#P connect 102 0 103 0;
#P connect 10 0 11 0;
#P connect 99 0 100 0;
#P connect 7 0 8 0;
#P connect 96 0 97 0;
#P connect 4 0 5 0;
#P connect 93 0 94 0;
#P connect 1 0 2 0;
#P connect 90 0 91 0;
#P pop;
