max v2;
#N vpatcher 198 84 1170 589;
#P window setfont "Sans Serif" 9.;
#P newex 586 175 84 196617 pvar MuteToggle;
#P newex 586 239 94 196617 pvar BypassToggle;
#P newex 586 149 30 196617 == 0;
#P newex 586 130 140 196617 jmod.message.mxt $1 enable;
#B color 1;
#P objectname jmod.parameter[2];
#P newex 586 262 152 196617 jmod.parameter.mxt $1 bypass;
#B color 1;
#P objectname jmod.parameter[1];
#P newex 586 195 143 196617 jmod.parameter.mxt $1 mute;
#B color 1;
#P objectname jmod.parameter;
#P message 359 281 45 196617 set \$1 0;
#P number 450 302 35 9 0 0 0 3 0 0 0 74 156 97 222 222 222 0 0 0;
#P newex 359 301 89 196617 pvar gain_master;
#B color 7;
#P newex 359 322 160 196617 jmod.parameter.gain.mxt $1 gain;
#B color 2;
#P objectname jmod.parameter.gain.mxt;
#P hidden newex 155 273 103 196617 route MODULE_TITLE;
#P hidden newex 155 253 93 196617 r $1_FROM_MHUB;
#P hidden newex 155 293 90 196617 prepend setitem 0;
#P user umenu 13 2 226 196644 3 64 18 0;
#X setrgb 165 165 165 221 221 221 255 255 255 221 221 221 170 170 170 119 119 119 187 187 187;
#X add $2;
#P hidden newex 250 190 185 196617 jmod.parameter.mxt $1 defeat_meters;
#B color 1;
#P objectname jmod.parameter[6];
#P newex 585 62 27 196617 - 2;
#P newex 585 107 65 196617 jmod.core.sr;
#P newex 585 81 110 196617 jmod.parameter $1 sr;
#B color 1;
#P objectname jmod.parameter[5];
#P user pictctrl 425 4 9 9 jmod.button.bypass.pct 0 0 1 1 26 0 0 0 11 11 128 0 1 1 1 0;
#P objectname BypassToggle;
#P user pictslider 339 10 84 8 0 0 0 0 jmod.slider.knob.gain.pct 1 jmod.slider.bg.gain.pct 1 2113 0 0 157 1. 1.;
#P objectname gain_master;
#P bpatcher 0 0 16 16 0 0 jmod.menu.a.mxt 0 $1;
#P hidden user hint 859 96 903 176 "Output Gain: notches are at -42dB\, -18dB\, -6dB\, and 0dB" 1000 100 0 65535 65535 52428 9 3 0 1 0 0 0;
#P hidden user hint 837 81 898 97 "Use arrows to change the sample rate for this module - you must restart the DSP for it to take effect" 1000 100 0 65535 65535 52428 9 3 0 1 0 0 0;
#P comment 532 421 54 196617 Processed AUDIO;
#P comment 469 422 62 196617 RAW AUDIO;
#P newex 489 382 141 196617 jmod.core.bypass.stereo.mxt;
#P newex 585 41 119 196617 jmod.incdec.handler.mxt;
#P user pictctrl 499 9 8 5 jmod.button.incdec-down.pct 0 0 1 0 26 0 0 0 8 4 128 0 1 1 1 0;
#P user pictctrl 499 3 8 5 jmod.button.indec-up.pct 0 0 1 0 24 0 0 0 8 4 128 0 1 1 1 0;
#N comlet RAW Audio In - right;
#P outlet 513 406 13 0;
#N comlet RAW Audio In - left;
#P outlet 489 406 13 0;
#N comlet (signal) in right - RAW;
#P inlet 517 362 13 0;
#N comlet (signal) in left - RAW;
#P inlet 503 362 13 0;
#P comment 467 348 62 196617 RAW AUDIO;
#P user umenu 459 2 43 196644 3 64 18 0;
#X setrgb 132 132 132 221 221 221 255 255 255 221 221 221 170 170 170 119 119 119 187 187 187;
#X add 11025;
#X add 22050;
#X add 44100;
#X add 88200;
#X add 176400;
#P user pictctrl 437 4 9 9 jmod.button.mute.pct 0 0 1 1 26 0 0 0 11 11 128 0 1 1 1 0;
#P objectname MuteToggle;
#N comlet (signal) out left;
#P outlet 537 406 13 0;
#N comlet (signal) out right;
#P outlet 561 406 13 0;
#N comlet (signal) in right - COOKED;
#P inlet 545 362 13 0;
#N comlet (signal) in left - COOKED;
#P inlet 531 362 13 0;
#P user jmod.meter~ 340 7 82 2;
#P user jmod.meter~ 340 4 82 2;
#P comment 531 347 88 196617 Processed AUDIO;
#P user hint 898 45 911 57 "Turns off/on this module" 1000 100 0 65535 65535 52428 9 3 0 1 0 0 0;
#P user hint 914 45 927 57 "Bypass this module's processing (does not free up CPU)" 1000 100 0 65535 65535 52428 9 3 0 1 0 0 0;
#P user pictctrl 0 0 510 120 jmod.bg-2.a.pct 0 0 1 0 24 0 0 0 510 121 2 0 1 1 1 0;
#P noclick;
#P hidden newex 27 104 29 196617 == 0;
#P hidden connect 32 0 26 1;
#P hidden connect 34 0 33 0;
#P hidden connect 26 1 0 0;
#P hidden connect 35 0 36 0;
#P hidden connect 36 0 34 0;
#P hidden connect 26 1 32 0;
#P hidden connect 21 2 5 0;
#P hidden connect 0 0 5 0;
#P hidden connect 21 3 6 0;
#P hidden connect 0 0 6 0;
#P fasten 37 0 40 0 364 345 354 345 354 273 364 273;
#P connect 40 0 38 0;
#P connect 38 0 37 0;
#P connect 38 0 39 0;
#P hidden connect 20 0 12 0;
#P hidden connect 30 0 12 0;
#P fasten 37 0 21 0 364 375 494 375;
#P connect 21 0 16 0;
#P lcolor 6;
#P connect 21 1 17 0;
#P lcolor 6;
#P connect 14 0 21 1;
#P lcolor 6;
#P connect 21 2 10 0;
#P connect 15 0 21 2;
#P lcolor 6;
#P connect 21 3 9 0;
#P connect 7 0 21 3;
#P lcolor 6;
#P hidden connect 18 0 20 0;
#P hidden connect 12 0 31 0;
#P connect 31 0 29 0;
#P fasten 29 1 30 0 690 103 590 103;
#P connect 43 0 44 0;
#P fasten 41 0 46 0 591 215 578 215 578 170 591 170;
#P connect 44 0 46 0;
#P connect 46 0 41 0;
#P fasten 42 0 45 0 591 283 578 283 578 234 591 234;
#P connect 45 0 42 0;
#P connect 8 0 21 4;
#P lcolor 6;
#P connect 42 1 21 5;
#P hidden connect 19 0 20 1;
#P hidden connect 12 0 20 2;
#P lcolor 3;
#P pop;
