max v2;
#N vpatcher 293 69 595 323;
#P toggle 218 56 15 0;
#P inlet 17 41 15 0;
#P inlet 243 41 15 0;
#P outlet 105 123 15 0;
#P outlet 81 124 15 0;
#P window setfont "Sans Serif" 9.;
#N vpatcher 40 55 304 257;
#P window setfont "Sans Serif" 9.;
#P message 187 54 35 196617 \$1 20;
#P newex 187 78 40 196617 line 0.;
#P inlet 187 35 15 0;
#P inlet 161 35 15 0;
#P outlet 123 149 15 0;
#P inlet 68 35 15 0;
#P inlet 128 35 15 0;
#P newex 33 110 93 196617 blue.xfade~ stereo;
#P outlet 33 152 15 0;
#P inlet 33 35 15 0;
#P connect 0 0 2 0;
#P lcolor 6;
#P connect 2 0 1 0;
#P connect 3 0 2 1;
#P connect 4 0 2 2;
#P connect 6 0 2 3;
#P connect 8 0 2 4;
#P connect 2 1 5 0;
#P connect 7 0 9 0;
#P connect 9 0 8 0;
#P pop;
#P newobj 127 84 126 196617 p bypass;
#N comlet (signal) out left;
#P outlet 166 185 15 0;
#N comlet (signal) out right;
#P outlet 211 185 15 0;
#P user gain~ 211 131 15 22 158 0 1.071519 7.94321 10.;
#P user gain~ 166 131 15 22 158 0 1.071519 7.94321 10.;
#P inlet 166 41 15 0;
#P inlet 143 41 15 0;
#P inlet 105 41 15 0;
#P inlet 81 41 15 0;
#P connect 0 0 9 0;
#P lcolor 6;
#P connect 1 0 10 0;
#P lcolor 6;
#P connect 2 0 8 0;
#P lcolor 6;
#P connect 3 0 8 1;
#P lcolor 6;
#P connect 12 0 4 0;
#P connect 8 0 4 0;
#P connect 4 0 7 0;
#P connect 0 0 8 2;
#P lcolor 6;
#P connect 8 1 5 0;
#P connect 12 0 5 0;
#P connect 5 0 6 0;
#P connect 1 0 8 3;
#P lcolor 6;
#P connect 11 0 13 0;
#P connect 11 0 8 4;
#P pop;
