max v2;#N vpatcher 85 98 965 685;#P window setfont "Sans Serif" 9.;#P window linecount 1;#P newex 97 184 44 196617 receive;#P newex 97 164 89 196617 sprintf set %s%s;#P newex 176 145 115 196617 t $2;#P newex 97 122 158 196617 r $1_name;#P comment 71 525 100 196617 set;#P comment 69 25 100 196617 incomming;#P comment 293 25 100 196617 attributes;#P comment 479 25 100 196617 from pattr;#N vpatcher 10 59 610 459;#P window setfont "Sans Serif" 9.;#P window linecount 0;#N vpatcher 20 74 620 474;#P window setfont "Sans Serif" 9.;#P newex 50 75 30 196617 t $3;#P newex 50 151 236 196617 zl join;#P newex 50 118 203 196617 sprintf bad attribute specified to jmod.%s:;#P newex 50 177 99 196617 jmod.post WARNING;#P inlet 50 30 15 0;#P connect 0 0 4 0;#P connect 4 0 2 0;#P connect 2 0 3 0;#P connect 3 0 1 0;#P fasten 0 0 3 1 55 63 281 63;#P pop;#P newobj 316 81 54 196617 p warning;#P window linecount 1;#N vpatcher 153 310 512 744;#P window setfont "Sans Serif" 9.;#P window linecount 0;#P newex 140 153 20 196617 t b;#P message 207 275 35 196617 -1. 1.;#P newex 207 254 22 196617 b 1;#P message 164 292 23 196617 0 1;#P message 121 323 30 196617 0. 1.;#P message 78 344 35 196617 0 127;#P window linecount 1;#P newex 78 213 139 196617 sel msg_int msg_float toggle;#P window linecount 0;#P newex 78 190 35 196617 zl reg;#P window linecount 1;#P newex 86 68 27 196617 t b l;#P window linecount 0;#P newex 140 104 35 196617 zl reg;#P window linecount 1;#P newex 140 130 142 196617 route default;#P inlet 140 47 15 0;#P outlet 272 387 15 0;#P inlet 86 47 15 0;#P connect 13 0 6 0;#P connect 6 0 7 0;#P connect 7 0 8 0;#P connect 0 0 5 0;#P connect 5 1 6 1;#P connect 7 1 9 0;#P connect 5 0 4 0;#P connect 2 0 4 0;#P connect 4 0 3 0;#P connect 3 0 13 0;#P connect 7 2 10 0;#P connect 7 3 11 0;#P connect 11 0 12 0;#P connect 12 0 1 0;#P connect 8 0 1 0;#P connect 9 0 1 0;#P connect 10 0 1 0;#P connect 3 1 1 0;#P pop;#P newobj 138 108 62 196617 p set_range;#P newex 202 141 172 196617 s $0_attribute_clipmode;#P newex 138 161 156 196617 s $0_attribute_range;#P newex 88 204 153 196617 s $0_attribute_type;#P newex 126 183 182 196617 s $0_attribute_repetitions;#P newex 50 225 156 196617 s $0_attribute_ramp;#P newex 50 50 280 196617 route ramp type repetitions range clipmode description done;#P inlet 50 30 15 0;#P connect 0 0 1 0;#P connect 1 0 2 0;#P connect 1 1 4 0;#P connect 1 2 3 0;#P connect 1 1 7 0;#P connect 7 0 5 0;#P connect 1 3 7 1;#P connect 1 4 6 0;#P connect 1 7 8 0;#P pop;#P newobj 273 66 63 196617 p attributes;#N vpatcher 14 59 325 265;#P window setfont "Sans Serif" 9.;#P window linecount 0;#P newex 15 96 30 196617 == 0;#P outlet 15 150 15 0;#P newex 15 120 248 196617 gate 1 1;#P window linecount 1;#P newex 15 72 212 196617 receive $1_freeze_display;#P inlet 253 38 15 0;#P connect 1 0 4 0;#P connect 4 0 2 0;#P connect 2 0 3 0;#P connect 0 0 2 1;#P pop;#P newobj 51 449 84 196617 p freeze_display;#N vpatcher 399 96 1169 476;#P origin 0 5;#P window setfont "Sans Serif" 9.;#P message 517 198 128 196617 name $2;#P newex 283 86 49 196617 route $2;#P message 556 170 95 196617 kind $3;#P newex 283 156 79 196617 prepend symbol;#P newex 106 177 65 196617 zl join;#P newex 106 143 50 196617 zl slice 1;#P newex 283 112 283 196617 t description repetitions ramp clipmode range type bang bang;#P window linecount 1;#P newex 106 302 109 196617 send $1_register_doc;#P newex 283 57 112 196617 receive $1_query_doc;#P window linecount 0;#P newex 61 114 55 196617 route done;#N coll ;#P newobj 106 235 53 196617 coll;#P newex 106 202 71 196617 prepend store;#P inlet 61 86 15 0;#P connect 0 0 3 0;#P connect 3 1 7 0;#P connect 7 0 8 0;#P connect 8 0 1 0;#P fasten 9 0 2 0 288 225 111 225;#P connect 1 0 2 0;#P connect 2 0 5 0;#P fasten 10 0 5 0 561 268 111 268;#P fasten 12 0 5 0 522 268 111 268;#P fasten 3 1 8 1 111 138 166 138;#P connect 4 0 11 0;#P connect 11 0 6 0;#P fasten 6 5 9 0 483 142 288 142;#P fasten 6 4 9 0 444 142 288 142;#P fasten 6 3 9 0 405 142 288 142;#P fasten 6 2 9 0 366 142 288 142;#P fasten 6 1 9 0 327 142 288 142;#P fasten 6 0 9 0 288 142 288 142;#P connect 6 6 12 0;#P connect 6 7 10 0;#P pop;#P newobj 342 66 81 196617 p documentation;#P window linecount 2;#P newex 568 348 283 196617 jmod.post "WARNING - INVALID TYPE FOR JMOD.PARAMETER";#P window linecount 1;#N vpatcher 15 65 1108 522;#P window setfont "Sans Serif" 9.;#P newex 849 275 210 196617 t $3;#P newex 520 333 127 196617 gate;#P newex 520 312 113 196617 jmod.equals parameter;#P window linecount 1;#P message 765 237 64 196617 type symbol;#P message 637 237 65 196617 type float32;#P message 707 237 50 196617 type long;#P outlet 520 377 15 0;#P newex 366 188 21 196617 t 9;#P newex 323 188 21 196617 t 8;#P newex 280 188 21 196617 t 7;#P newex 237 188 21 196617 t 6;#P newex 194 188 21 196617 t 5;#P newex 108 188 21 196617 t 3;#P newex 22 91 355 196617 sel generic menu toggle msg_int msg_float msg_list msg_symbol jit_matrix;#P newex 65 188 21 196617 t 2;#P window linecount 0;#P newex 22 219 422 196617 gate 9 1;#P window linecount 1;#P newex 22 188 21 196617 t 1;#P window linecount 0;#P newex 151 188 21 196617 t 4;#P window linecount 1;#P newex 22 30 102 196617 r $0_attribute_type;#P outlet 22 377 15 0;#P inlet 434 42 15 0;#P window linecount 0;#N vpatcher 14 59 614 459;#P window setfont "Sans Serif" 9.;#P newex 50 50 98 196617 jmod.menuprep.mxt;#P inlet 50 30 15 0;#P outlet 50 72 15 0;#P connect 1 0 2 0;#P connect 2 0 0 0;#P pop;#P newobj 73 261 40 196617 p menu;#N vpatcher 14 59 614 459;#P window setfont "Sans Serif" 9.;#P newex 50 73 27 196617 i;#P newex 50 50 59 196617 jmod.round;#P inlet 50 30 15 0;#P outlet 50 95 15 0;#P connect 1 0 2 0;#P connect 2 0 3 0;#P connect 3 0 0 0;#P pop;#P newobj 175 261 29 196617 p int;#P connect 4 0 9 0;#P connect 9 0 6 0;#P fasten 15 0 7 0 371 212 27 212;#P fasten 14 0 7 0 328 212 27 212;#P fasten 13 0 7 0 285 212 27 212;#P fasten 12 0 7 0 242 212 27 212;#P fasten 11 0 7 0 199 212 27 212;#P fasten 10 0 7 0 113 212 27 212;#P fasten 5 0 7 0 156 212 27 212;#P fasten 8 0 7 0 70 212 27 212;#P fasten 6 0 7 0 27 212 27 212;#P fasten 0 0 3 0 180 335 27 335;#P fasten 1 0 3 0 78 335 27 335;#P fasten 7 4 3 0 231 335 27 335;#P fasten 7 5 3 0 282 335 27 335;#P fasten 7 6 3 0 333 335 27 335;#P fasten 7 7 3 0 384 335 27 335;#P fasten 7 8 3 0 435 335 27 335;#P fasten 7 2 3 0 129 335 27 335;#P connect 7 0 3 0;#P connect 9 1 8 0;#P connect 7 1 1 0;#P connect 9 2 10 0;#P connect 9 3 5 0;#P connect 7 3 0 0;#P connect 9 4 11 0;#P connect 9 5 12 0;#P connect 9 6 13 0;#P connect 9 7 14 0;#P connect 9 8 15 0;#P connect 2 0 7 1;#P fasten 22 0 20 0 854 302 525 302;#P connect 20 0 21 0;#P connect 21 0 16 0;#P fasten 9 4 18 0 199 163 642 163;#P lcolor 12;#P connect 17 0 21 1;#P connect 19 0 21 1;#P connect 18 0 21 1;#P fasten 9 2 17 0 113 146 712 146;#P lcolor 12;#P fasten 9 3 17 0 156 144 712 144;#P lcolor 12;#P fasten 9 6 19 0 285 125 770 125;#P lcolor 12;#P fasten 17 0 22 0 712 265 854 265;#P fasten 18 0 22 0 642 267 854 267;#P fasten 19 0 22 0 770 263 854 263;#P pop;#P newobj 51 321 38 196617 p type;#N vpatcher 48 49 786 449;#P window setfont "Sans Serif" 9.;#P newex 357 51 72 196617 route int float;#P number 50 166 35 9 0 0 0 3 0 0 0 221 221 221 222 222 222 0 0 0;#P inlet 357 24 15 0;#P newex 482 107 105 196617 r $0_attribute_range;#P newex 482 143 75 196617 unpack 0. 127.;#P window linecount 1;#P newex 356 248 61 196617 clip 0. 127.;#P newex 243 248 73 196617 minimum 127.;#P window linecount 0;#P newex 130 248 64 196617 maximum 0.;#P outlet 685 344 15 0;#P newex 17 165 27 196617 + 1;#P newex 17 193 350 196617 gate 4 1;#P newex 17 113 79 196617 prepend symbol;#P user umenu 17 136 100 196647 1 64 152 1;#X add none;#X add low;#X add high;#X add both;#P window linecount 1;#P newex 17 83 121 196617 r $0_attribute_clipmode;#P window linecount 0;#P comment 435 54 185 196617 Only int and float can be scaled/clipped;#P connect 1 0 3 0;#P connect 3 0 2 0;#P connect 2 0 5 0;#P connect 5 0 4 0;#P connect 5 0 13 0;#P connect 4 1 7 0;#P fasten 10 0 7 1 487 217 189 217;#P connect 4 2 8 0;#P fasten 10 1 8 1 552 235 311 235;#P connect 4 3 9 0;#P connect 12 0 14 0;#P fasten 14 1 4 1 393 86 362 86;#P connect 14 0 4 1;#P fasten 10 0 9 1 487 219 386 219;#P fasten 10 1 9 2 552 237 411 237;#P connect 11 0 10 0;#P fasten 14 2 6 0 424 77 690 77;#P fasten 9 0 6 0 361 304 690 304;#P fasten 8 0 6 0 248 304 690 304;#P fasten 7 0 6 0 135 304 690 304;#P fasten 4 0 6 0 22 304 690 304;#P pop;#P newobj 51 295 64 196617 p clip_range;#P newex 197 232 72 196617 route int float;#P newex 51 495 61 196617 prepend set;#P newex 51 470 43 196617 qlim 65;#N vpatcher 40 210 541 503;#P window setfont "Sans Serif" 9.;#P newex 25 57 131 196617 r $0_attribute_repetitions;#P window linecount 1;#P newex 25 80 30 196617 == 0;#P newex 25 102 27 196617 + 1;#P window setfont Verdana 9.;#P window linecount 0;#P message 279 110 66 472055817 -2000000.;#P window setfont "Sans Serif" 9.;#P comment 253 180 127 196617 Filter repetitions;#P inlet 233 37 15 0;#P newex 279 90 55 196617 r jmod.init;#P comment 347 92 127 196617 this allows the first zero value to make it through;#P newex 179 176 64 196617 jmod.change;#P outlet 25 241 15 0;#P inlet 179 37 15 0;#P newex 25 143 164 196617 gate 2 1;#P connect 11 0 10 0;#P connect 10 0 9 0;#P connect 9 0 0 0;#P connect 0 0 2 0;#P connect 3 0 2 0;#P fasten 1 0 0 1 184 134 184 134;#P connect 0 1 3 0;#P connect 8 0 3 1;#P connect 6 0 3 1;#P connect 5 0 8 0;#P pop;#P newobj 51 354 156 196617 p repetitions;#P window linecount 2;#P comment 565 223 175 196617 Register this parameter with the module hub;#P window linecount 1;#P newex 565 289 137 196617 send $1_register;#P message 565 271 132 196617 $2;#P newex 565 251 140 196617 receive $1_query;#P newex 86 78 139 196617 jmod.oscroute $2;#P newex 86 55 139 196617 receive $1_instruction;#N vpatcher 84 57 340 341;#P window setfont "Sans Serif" 9.;#N vpatcher 87 298 456 529;#P window setfont "Sans Serif" 9.;#P newex 39 76 74 196617 r $1_setclock;#P inlet 269 35 15 0;#P outlet 235 177 15 0;#P inlet 235 35 15 0;#P newex 252 114 62 196617 prepend set;#P newex 252 90 27 196617 f;#P newex 235 65 27 196617 t l b;#P newex 235 148 40 196617 line 0.;#P newex 168 103 36 196617 t stop;#P newex 168 78 48 196617 r _STOP;#P connect 0 0 1 0;#P connect 6 0 3 0;#P fasten 1 0 2 0 173 134 240 134;#P connect 3 0 2 0;#P connect 5 0 2 0;#P fasten 9 0 2 0 44 134 240 134;#P connect 2 0 7 0;#P connect 3 1 4 0;#P connect 4 0 5 0;#P connect 8 0 4 1;#P pop;#P newobj 168 173 34 196617 p line;#P newex 50 91 105 196617 r $0_attribute_ramp;#P newex 50 142 128 196617 gate 2;#P newex 50 116 27 196617 + 1;#P inlet 192 51 15 0;#P inlet 168 51 15 0;#P outlet 50 228 15 0;#P connect 5 0 3 0;#P connect 3 0 4 0;#P connect 6 0 0 0;#P connect 4 0 0 0;#P connect 1 0 4 1;#P connect 4 1 6 0;#P connect 2 0 6 1;#P pop;#P newobj 51 265 126 196617 p ramp;#P inlet 273 24 15 0;#P inlet 458 24 15 0;#P inlet 51 24 15 0;#P outlet 51 525 15 0;#P outlet 437 525 15 0;#P comment 456 525 100 196617 to pattr;#P connect 30 0 6 0;#P connect 8 0 6 0;#P connect 3 0 6 0;#P connect 6 0 17 0;#P connect 17 0 18 0;#P connect 18 0 13 0;#P fasten 4 0 21 0 463 435 56 435;#P lcolor 13;#P connect 21 0 14 0;#P connect 14 0 15 0;#P connect 15 0 2 0;#P connect 7 0 8 0;#P connect 27 0 29 0;#P connect 29 0 30 0;#P connect 16 1 6 1;#P lcolor 13;#P connect 16 0 6 1;#P lcolor 13;#P fasten 27 0 28 0 102 142 181 142;#P connect 28 0 29 1;#P fasten 4 0 16 0 463 212 202 212;#P lcolor 13;#P connect 16 1 13 1;#P lcolor 13;#P connect 16 0 13 1;#P lcolor 13;#P connect 5 0 22 0;#P fasten 5 0 20 0 278 55 347 55;#P fasten 18 1 1 0 84 345 442 345;#P fasten 13 0 1 0 56 394 442 394;#P connect 9 0 10 0;#P connect 10 0 11 0;#P pop;