max v2;
#N vpatcher 210 113 1035 699;
#P origin 0 -5;
#P window setfont "Sans Serif" 9.;
#N vpatcher 14 59 416 357;
#P window setfont "Sans Serif" 9.;
#P window linecount 0;
#P newex 59 122 30 9109513 == 0;
#P outlet 59 176 15 0;
#P newex 59 146 248 9109513 gate 1 1;
#P window linecount 1;
#P newex 59 98 181 9109513 receive $1_freeze_display;
#P inlet 297 64 15 0;
#P connect 1 0 4 0;
#P connect 4 0 2 0;
#P connect 2 0 3 0;
#P connect 0 0 2 1;
#P pop;
#P newobj 29 432 84 9109513 p freeze_display;
#N vpatcher 48 49 850 494;
#P window setfont "Sans Serif" 9.;
#P newex 398 85 72 9109513 route int float;
#P number 91 200 35 9 0 0 0 139 0 0 0 221 221 221 222 222 222 0 0 0;
#P inlet 398 58 15 0;
#P newex 523 141 105 9109513 r $0_attribute_range;
#P newex 523 177 75 9109513 unpack 0. 127.;
#P window linecount 1;
#P newex 397 282 61 9109513 clip 0. 127.;
#P newex 284 282 73 9109513 minimum 127.;
#P window linecount 0;
#P newex 171 282 64 9109513 maximum 0.;
#P outlet 726 378 15 0;
#P newex 58 199 27 9109513 + 1;
#P newex 58 227 350 9109513 gate 4 1;
#P newex 58 147 79 9109513 prepend symbol;
#P user umenu 58 170 100 9109543 1 64 186 1;
#X add none;
#X add low;
#X add high;
#X add both;
#P window linecount 1;
#P newex 58 117 121 9109513 r $0_attribute_clipmode;
#P window linecount 0;
#P comment 476 88 185 9109513 Only int and float can be scaled/clipped;
#P connect 1 0 3 0;
#P connect 3 0 2 0;
#P connect 2 0 5 0;
#P connect 5 0 4 0;
#P connect 5 0 13 0;
#P connect 4 1 7 0;
#P fasten 10 0 7 1 528 251 230 251;
#P connect 4 2 8 0;
#P fasten 10 1 8 1 593 269 352 269;
#P connect 4 3 9 0;
#P connect 12 0 14 0;
#P connect 14 0 4 1;
#P fasten 14 1 4 1 434 120 403 120;
#P fasten 10 0 9 1 528 253 427 253;
#P fasten 10 1 9 2 593 271 452 271;
#P connect 11 0 10 0;
#P fasten 4 0 6 0 63 338 731 338;
#P fasten 7 0 6 0 176 338 731 338;
#P fasten 8 0 6 0 289 338 731 338;
#P fasten 9 0 6 0 402 338 731 338;
#P fasten 14 2 6 0 465 111 731 111;
#P pop;
#P newobj 29 279 64 9109513 p clip_range;
#P newex 147 484 60 9109513 prepend $2;
#P newex 147 506 150 9109513 s $1_message;
#N vpatcher 153 310 510 684;
#P origin 77 0;
#P window setfont "Sans Serif" 9.;
#P window linecount 0;
#P newex 136 164 20 9109513 t b;
#P message 203 260 35 9109513 -1. 1.;
#P newex 203 239 22 9109513 b 1;
#P message 160 260 23 9109513 0 1;
#P message 117 260 30 9109513 0. 1.;
#P message 74 260 35 9109513 0 127;
#P window linecount 1;
#P newex 74 218 139 9109513 sel msg_int msg_float toggle;
#P window linecount 0;
#P newex 74 195 35 9109513 zl reg;
#P window linecount 1;
#P newex 82 70 27 9109513 t b l;
#P window linecount 0;
#P newex 136 106 35 9109513 zl reg;
#P window linecount 1;
#P newex 136 138 142 9109513 route default;
#P inlet 136 49 15 0;
#P outlet 268 297 15 0;
#P inlet 82 49 15 0;
#P connect 13 0 6 0;
#P connect 6 0 7 0;
#P connect 7 0 8 0;
#P connect 0 0 5 0;
#P connect 5 1 6 1;
#P connect 7 1 9 0;
#P connect 2 0 4 0;
#P connect 5 0 4 0;
#P connect 4 0 3 0;
#P connect 3 0 13 0;
#P connect 7 2 10 0;
#P connect 7 3 11 0;
#P connect 11 0 12 0;
#P connect 10 0 1 0;
#P connect 9 0 1 0;
#P connect 8 0 1 0;
#P connect 12 0 1 0;
#P connect 3 1 1 0;
#P pop;
#P newobj 419 217 62 9109513 p set_range;
#N vpatcher 399 96 1169 476;
#P origin 0 5;
#P window setfont "Sans Serif" 9.;
#P message 517 198 128 9109513 name $2;
#P newex 283 86 49 9109513 route $2;
#P message 556 170 68 9109513 kind message;
#P newex 283 156 79 9109513 prepend symbol;
#P newex 106 177 65 9109513 zl join;
#P newex 106 143 50 9109513 zl slice 1;
#P newex 283 112 283 9109513 t description repetitions ramp clipmode range type bang bang;
#P window linecount 1;
#P newex 106 302 109 9109513 send $1_register_doc;
#P newex 283 57 112 9109513 receive $1_query_doc;
#P window linecount 0;
#P newex 61 114 55 9109513 route done;
#N coll ;
#P newobj 106 235 53 9109513 coll;
#P newex 106 202 71 9109513 prepend store;
#P inlet 61 86 15 0;
#P connect 0 0 3 0;
#P connect 3 1 7 0;
#P connect 7 0 8 0;
#P connect 8 0 1 0;
#P fasten 9 0 2 0 288 225 111 225;
#P connect 1 0 2 0;
#P connect 2 0 5 0;
#P fasten 10 0 5 0 561 268 111 268;
#P fasten 12 0 5 0 522 268 111 268;
#P fasten 3 1 8 1 111 138 166 138;
#P connect 4 0 11 0;
#P connect 11 0 6 0;
#P fasten 6 5 9 0 483 142 288 142;
#P fasten 6 4 9 0 444 142 288 142;
#P fasten 6 3 9 0 405 142 288 142;
#P fasten 6 2 9 0 366 142 288 142;
#P fasten 6 1 9 0 327 142 288 142;
#P fasten 6 0 9 0 288 142 288 142;
#P connect 6 6 12 0;
#P connect 6 7 10 0;
#P pop;
#P newobj 643 82 81 9109513 p documentation;
#P newex 331 493 275 9109513 jmod.post "WARNING - INVALID TYPE FOR JMOD.MESSAGE";
#N vpatcher 261 68 1106 550;
#P window setfont "Sans Serif" 9.;
#P window linecount 1;
#P newex 425 223 21 9109513 t 9;
#P newex 382 223 21 9109513 t 8;
#P newex 339 223 21 9109513 t 7;
#P newex 296 223 21 9109513 t 6;
#P newex 253 223 21 9109513 t 5;
#P newex 167 223 21 9109513 t 3;
#P newex 81 126 355 9109513 sel generic menu toggle msg_int msg_float msg_list msg_symbol jit_matrix;
#P newex 124 223 21 9109513 t 2;
#P window linecount 0;
#P newex 81 254 422 9109513 gate 9 1;
#P window linecount 1;
#P newex 81 223 21 9109513 t 1;
#P window linecount 0;
#P newex 210 223 21 9109513 t 4;
#P window linecount 1;
#P newex 81 65 102 9109513 r $0_attribute_type;
#P outlet 81 393 15 0;
#P inlet 493 77 15 0;
#P window linecount 0;
#N vpatcher 14 59 614 459;
#P window setfont "Sans Serif" 9.;
#P newex 50 50 98 9109513 jmod.menuprep.mxt;
#P inlet 50 30 15 0;
#P outlet 50 72 15 0;
#P connect 1 0 2 0;
#P connect 2 0 0 0;
#P pop;
#P newobj 132 296 40 9109513 p menu;
#N vpatcher 14 59 614 459;
#P window setfont "Sans Serif" 9.;
#P newex 50 73 27 9109513 i;
#P newex 50 50 59 9109513 jmod.round;
#P inlet 50 30 15 0;
#P outlet 50 95 15 0;
#P connect 1 0 2 0;
#P connect 2 0 3 0;
#P connect 3 0 0 0;
#P pop;
#P newobj 234 296 29 9109513 p int;
#P connect 4 0 9 0;
#P connect 9 0 6 0;
#P fasten 15 0 7 0 430 247 86 247;
#P fasten 14 0 7 0 387 247 86 247;
#P fasten 13 0 7 0 344 247 86 247;
#P fasten 12 0 7 0 301 247 86 247;
#P fasten 11 0 7 0 258 247 86 247;
#P fasten 10 0 7 0 172 247 86 247;
#P fasten 5 0 7 0 215 247 86 247;
#P fasten 8 0 7 0 129 247 86 247;
#P fasten 6 0 7 0 86 247 86 247;
#P fasten 0 0 3 0 239 370 86 370;
#P fasten 1 0 3 0 137 370 86 370;
#P fasten 7 4 3 0 290 370 86 370;
#P fasten 7 5 3 0 341 370 86 370;
#P fasten 7 6 3 0 392 370 86 370;
#P fasten 7 7 3 0 443 370 86 370;
#P fasten 7 8 3 0 494 370 86 370;
#P fasten 7 2 3 0 188 370 86 370;
#P connect 7 0 3 0;
#P connect 9 1 8 0;
#P connect 7 1 1 0;
#P connect 9 2 10 0;
#P connect 9 3 5 0;
#P connect 7 3 0 0;
#P connect 9 4 11 0;
#P connect 9 5 12 0;
#P connect 9 6 13 0;
#P connect 9 7 14 0;
#P connect 9 8 15 0;
#P connect 2 0 7 1;
#P pop;
#P newobj 29 305 35 9109513 p type;
#P newex 483 250 172 9109513 s $0_attribute_clipmode;
#P newex 445 271 156 9109513 s $0_attribute_range;
#P newex 369 313 153 9109513 s $0_attribute_type;
#P newex 407 292 182 9109513 s $0_attribute_repetitions;
#P newex 331 334 156 9109513 s $0_attribute_ramp;
#P newex 175 216 72 9109513 route int float;
#B color 14;
#P newex 29 484 61 9109513 prepend set;
#P outlet 122 509 15 0;
#P newex 29 459 43 9109513 qlim 65;
#N vpatcher 40 210 622 540;
#P window setfont "Sans Serif" 9.;
#P newex 80 92 131 9109513 r $0_attribute_repetitions;
#P window linecount 1;
#P newex 80 115 30 9109513 == 0;
#P newex 80 137 27 9109513 + 1;
#P window setfont Verdana 9.;
#P window linecount 0;
#P message 334 145 66 11010057 -2000000.;
#P window setfont "Sans Serif" 9.;
#P comment 308 215 127 9109513 Filter repetitions;
#P inlet 288 72 15 0;
#P newex 334 125 55 9109513 r jmod.init;
#P comment 402 127 127 9109513 this allows the first zero value to make it through;
#P newex 234 211 64 9109513 jmod.change;
#P outlet 80 276 15 0;
#P inlet 234 72 15 0;
#P newex 80 178 164 9109513 gate 2 1;
#P connect 11 0 10 0;
#P connect 10 0 9 0;
#P connect 9 0 0 0;
#P connect 0 0 2 0;
#P connect 3 0 2 0;
#P fasten 1 0 0 1 239 169 239 169;
#P connect 0 1 3 0;
#P connect 8 0 3 1;
#P connect 6 0 3 1;
#P connect 5 0 8 0;
#P pop;
#P newobj 29 338 156 9109513 p repetitions;
#P window linecount 2;
#P comment 331 371 175 9109513 Register this parameter with the module hub;
#P window linecount 1;
#P newex 331 62 55 9109513 r jmod.init;
#P outlet 29 509 15 0;
#P newex 331 159 280 9109513 route ramp type repetitions range clipmode description done;
#P window linecount 2;
#P newex 331 82 284 9109513 patcherargs $1 mod_name @ramp 0 @type generic @repetitions 1 @range default @clipmode both @description "no info provided";
#P window linecount 1;
#P newex 331 441 137 9109513 send $1_register;
#P message 331 421 132 9109513 $2;
#P newex 331 399 140 9109513 receive $1_query;
#P newex 64 132 141 9109513 route $2;
#P newex 64 109 139 9109513 receive $1_instruction;
#P inlet 29 47 15 0;
#N vpatcher 14 59 370 385;
#P window setfont "Sans Serif" 9.;
#P number 86 135 35 9 0 0 0 139 0 0 0 221 221 221 222 222 222 0 0 0;
#P newex 50 91 105 9109513 r $0_attribute_ramp;
#P newex 168 189 71 9109513 jmod.line.mxt;
#P newex 50 161 128 9109513 gate 2;
#P newex 50 135 27 9109513 + 1;
#P inlet 229 51 15 0;
#P inlet 168 51 15 0;
#P outlet 50 247 15 0;
#P connect 6 0 3 0;
#P connect 3 0 4 0;
#P connect 4 0 0 0;
#P connect 5 0 0 0;
#P connect 3 0 7 0;
#P connect 1 0 4 1;
#P connect 4 1 5 0;
#P connect 2 0 5 1;
#P pop;
#P newobj 29 249 126 9109513 p ramp;
#P window linecount 2;
#P newex 597 184 193 9109513 jmod.post "WARNING BAD ATTRIBUTE SPECIFIED TO JMOD.MESSAGE";
#P window linecount 1;
#P comment 147 525 182 9109513 (for remote communication to the hub);
#P connect 3 0 2 0;
#P connect 5 0 2 0;
#P connect 2 0 30 0;
#P connect 30 0 24 0;
#P connect 24 0 14 0;
#P connect 14 0 31 0;
#P connect 31 0 15 0;
#P connect 15 0 17 0;
#P connect 17 0 11 0;
#P connect 4 0 5 0;
#P fasten 14 0 16 0 34 419 127 419;
#P connect 18 0 2 1;
#P lcolor 15;
#P connect 18 1 2 1;
#P lcolor 15;
#P fasten 14 0 29 0 34 419 152 419;
#P connect 29 0 28 0;
#P fasten 14 0 18 0 34 374 270 374 270 206 180 206;
#P lcolor 15;
#P connect 18 1 14 1;
#P lcolor 15;
#P connect 18 0 14 1;
#P lcolor 15;
#P connect 12 0 9 0;
#P fasten 9 1 10 0 610 151 336 151;
#P connect 10 0 19 0;
#P connect 6 0 7 0;
#P connect 7 0 8 0;
#P connect 10 1 21 0;
#P connect 10 2 20 0;
#P connect 10 1 27 0;
#P connect 27 0 22 0;
#P connect 10 3 27 1;
#P connect 10 4 23 0;
#P connect 10 7 1 0;
#P connect 9 1 26 0;
#P pop;
