max v2;
#N vpatcher 3 79 968 750;
#P window setfont "Sans Serif" 9.;
#P window linecount 1;
#P hidden message 38 461 49 9109513 token $1;
#P objectname gain_midi[1];
#P hidden newex 21 439 27 9109513 t i b;
#P objectname route_ob[1];
#P user hint 2 196 87 204 "output master gain" 2000 500 0 65535 65535 52428 9 3 0 1 0 0 0;
#P user hint 122 191 159 203 "sample rate" 2000 500 0 65535 65535 52428 9 3 0 1 0 0 0;
#P user hint 110 191 123 203 mute 2000 500 0 65535 65535 52428 9 3 0 1 0 0 0;
#P user hint 98 191 111 203 bypass 2000 500 0 65535 65535 52428 9 3 0 1 0 0 0;
#P user hint 86 192 99 204 "wet/dry mix" 2000 500 0 65535 65535 52428 9 3 0 1 0 0 0;
#P hidden newex 560 214 40 9109513 * 100.;
#P objectname mult_mix_in;
#P hidden newex 621 268 40 9109513 * 0.01;
#P objectname mult_mix_out;
#P user jsui 86 192 13 11 0 0 0 jsui_3ddial.js 100 100 200 170 170 170;
#N vpatcher 10 59 610 459;
#P outlet 147 65 15 0;
#P inlet 147 37 15 0;
#P connect 0 0 1 0;
#P pop;
#P hidden newobj 144 428 35 9109513 p thru;
#P objectname inlet_1;
#P hidden message 663 268 41 9109513 mix \$1;
#P objectname mix;
#P hidden message 20 388 45 9109513 set \$1 0;
#P objectname mess_gain_set;
#P hidden newex 209 71 22 9109513 b 1;
#B color 1;
#P objectname jmod.parameter[4];
#P hidden newex 209 51 173 9109513 jmod.message.mxt $1 clear_meters;
#B color 1;
#P objectname jmod.parameter[3];
#P hidden message 384 117 52 9109513 defeat \$1;
#P objectname mess_dm;
#N thispatcher;
#Q end;
#P hidden newobj 21 505 60 9109513 thispatcher;
#P objectname jmod.parameter.mxt[4];
#P hidden newex 135 407 48 9109513 route int;
#P objectname route_ob;
#P hidden inlet 228 384 15 0;
#P objectname inlet_2;
#P hidden outlet 228 584 15 0;
#P objectname outlet_2;
#P hidden inlet 278 384 15 0;
#P objectname inlet_4;
#P hidden outlet 278 584 15 0;
#P objectname outlet_4;
#P hidden inlet 328 384 15 0;
#P objectname inlet_6;
#P hidden outlet 328 584 15 0;
#P objectname outlet_6;
#P hidden inlet 378 384 15 0;
#P objectname inlet_8;
#P hidden outlet 378 584 15 0;
#P objectname outlet_8;
#P hidden inlet 428 384 15 0;
#P objectname inlet_10;
#P hidden outlet 428 584 15 0;
#P objectname outlet_10;
#P hidden inlet 478 384 15 0;
#P objectname inlet_12;
#P hidden outlet 478 584 15 0;
#P objectname outlet_12;
#P hidden inlet 528 384 15 0;
#P objectname inlet_14;
#P hidden outlet 528 584 15 0;
#P objectname outlet_14;
#P hidden inlet 578 384 15 0;
#P objectname inlet_16;
#P hidden outlet 578 584 15 0;
#P objectname outlet_16;
#P hidden inlet 628 384 15 0;
#P objectname inlet_18;
#P hidden inlet 678 384 15 0;
#P objectname inlet_20;
#P hidden inlet 728 384 15 0;
#P objectname inlet_22;
#P hidden inlet 778 384 15 0;
#P objectname inlet_24;
#P hidden inlet 828 384 15 0;
#P objectname inlet_26;
#P hidden inlet 878 384 15 0;
#P objectname inlet_28;
#P hidden inlet 928 384 15 0;
#P objectname inlet_30;
#P hidden inlet 978 384 15 0;
#P objectname inlet_32;
#P hidden message 135 457 43 9109513 compile;
#P hidden message 120 457 14 9109513 3;
#P hidden newex 21 483 155 9109513 js jmod.gui.audio-constructor.js;
#P hidden message 114 273 55 9109513 bypass \$1;
#P objectname bypass;
#P hidden message 33 411 65 9109513 gain_midi \$1;
#P objectname gain_midi;
#P user jmod.meter~ 4 192 82 2;
#P objectname meter_1;
#P user jsui 120 192 40 11 0 0 0 jmod.jsui_sr.js 0 20000 0;
#P objectname samprate;
#P hidden number 111 346 35 9 0 0 0 139 0 0 0 74 156 97 222 222 222 0 0 0;
#P hidden newex 20 345 89 9109513 pvar gain_master;
#B color 7;
#P objectname pvar_gain;
#P user pictctrl 99 192 11 11 jmod.button.bypass.pct 0 0 1 1 26 0 0 0 11 11 128 0 1 1 1 1;
#P objectname button_bypass;
#P user pictslider 3 197 84 8 0 0 0 0 jmod.slider.knob.gain.pct 1 jmod.slider.bg.gain.pct 1 2113 0 0 157 1. 1.;
#P objectname gain_master;
#P user pictctrl 109 192 11 11 jmod.button.mute.pct 0 0 1 1 26 0 0 0 11 11 128 0 1 1 1 1;
#P objectname button_mute;
#P user jmod.meter~ 4 195 82 2;
#P objectname meter_2;
#P user pictctrl 0 190 162 15 jmod.bg.audio-component.pct 0 0 1 0 24 0 0 0 162 15 2 0 1 1 1 1;
#P noclick;
#P objectname background;
#P window linecount 4;
#P hidden comment 188 333 101 9109513 the int is the number of channels as provided by the attributes/jmod.gui js;
#P hidden inlet 203 384 15 0;
#P hidden outlet 203 584 15 0;
#P objectname outlet_1;
#P hidden inlet 253 384 15 0;
#P objectname inlet_3;
#P hidden outlet 253 584 15 0;
#P objectname outlet_3;
#P hidden inlet 303 384 15 0;
#P objectname inlet_5;
#P hidden outlet 303 584 15 0;
#P objectname outlet_5;
#P hidden inlet 353 384 15 0;
#P objectname inlet_7;
#P hidden outlet 353 584 15 0;
#P objectname outlet_7;
#P hidden inlet 403 384 15 0;
#P objectname inlet_9;
#P hidden outlet 403 584 15 0;
#P objectname outlet_9;
#P hidden inlet 453 384 15 0;
#P objectname inlet_11;
#P hidden outlet 453 584 15 0;
#P objectname outlet_11;
#P hidden inlet 503 384 15 0;
#P objectname inlet_13;
#P hidden outlet 503 584 15 0;
#P objectname outlet_13;
#P hidden inlet 553 384 15 0;
#P objectname inlet_15;
#P hidden outlet 553 584 15 0;
#P objectname outlet_15;
#P hidden inlet 603 384 15 0;
#P objectname inlet_17;
#P hidden inlet 653 384 15 0;
#P objectname inlet_19;
#P hidden inlet 703 384 15 0;
#P objectname inlet_21;
#P hidden inlet 753 384 15 0;
#P objectname inlet_23;
#P hidden inlet 803 384 15 0;
#P objectname inlet_25;
#P hidden inlet 853 384 15 0;
#P objectname inlet_27;
#P hidden inlet 903 384 15 0;
#P objectname inlet_29;
#P hidden inlet 953 384 15 0;
#P objectname inlet_31;
#P hidden connect 67 0 33 0;
#P hidden connect 65 0 33 0;
#P hidden connect 67 0 26 0;
#P hidden connect 65 0 26 0;
#P hidden fasten 68 0 30 0 25 408 13 408 13 339 25 339;
#P hidden fasten 63 0 79 0 140 435 26 435;
#P hidden connect 37 0 36 0;
#P hidden connect 38 0 36 0;
#P hidden connect 79 0 36 0;
#P hidden connect 80 0 36 0;
#P hidden connect 36 0 64 0;
#P hidden connect 79 1 80 0;
#P hidden connect 72 0 71 0;
#P hidden connect 30 0 31 0;
#P hidden connect 29 0 35 0;
#P hidden connect 23 0 63 0;
#P hidden connect 63 1 70 0;
#P hidden connect 66 0 67 0;
#P hidden connect 71 0 73 0;
#P pop;
