max v2;
#N vpatcher 238 44 1399 599;
#P window setfont "Sans Serif" 9.;
#P hidden newex 657 186 27 196617 0;
#P hidden newex 657 165 32 196617 sel 1;
#P objectname pwindow_gate[8];
#P hidden newex 599 270 27 196617 0;
#P hidden newex 599 249 32 196617 sel 1;
#P objectname pwindow_gate[7];
#P hidden newex 606 349 27 196617 0;
#P hidden newex 606 328 32 196617 sel 1;
#P objectname pwindow_gate[6];
#P user hint 31 1 44 13 preview 2000 500 0 65535 65535 52428 9 3 0 1 0 0 0;
#P user hint 23 1 36 13 freeze 2000 500 0 65535 65535 52428 9 3 0 1 0 0 0;
#P user pictctrl 33 2 11 11 jmod.button.preview.pct 0 0 1 1 26 0 0 0 11 11 128 0 1 1 1 1 1 270;
#P objectname button_bypass[2];
#P user pictctrl 23 2 11 11 jmod.button.freeze.pct 0 0 1 1 26 0 0 0 11 11 128 0 1 1 1 1 1 270;
#P objectname button_bypass[1];
#P user hint 13 1 26 13 mute 2000 500 0 65535 65535 52428 9 3 0 1 0 0 0;
#P user pictctrl 13 2 11 11 jmod.button.mute.pct 0 0 1 1 26 0 0 0 11 11 128 0 1 1 1 1 1 270;
#P objectname button_mute;
#P hidden newex 695 444 193 196617 send $1_FROM_GUI_VIDEO_COMPONENT;
#P hidden newex 960 338 90 196617 prepend preview;
#P hidden newex 785 338 65 196617 prepend mute;
#P hidden newex 695 338 84 196617 prepend freeze;
#P hidden newex 859 338 75 196617 prepend bypass;
#P window linecount 2;
#P hidden newex 267 427 312 196617 jmod.message $1 /video/direct @type generic @description "Send messages directly to the jitter external embedded in the module.";
#N comlet dumpout;
#P hidden outlet 50 72 15 0;
#P window linecount 1;
#P hidden newex 267 393 426 196617 jmod.message.mxt $1 /video/genframe @description "Forces a frame of output to be sent.";
#P objectname pwindow_gate[5];
#P window linecount 2;
#P hidden newex 267 217 369 196617 jmod.parameter.mxt $1 /video/mute @type toggle @repetitions 0 @description "Mutes (turns off) the module's algorithm - generating no output.";
#P objectname pwindow_gate[4];
#P hidden newex 267 296 378 196617 jmod.parameter.mxt $1 /video/freeze @type toggle @repetitions 0 @description "Freezes the last frame of output from the module's processing algorithm.";
#P objectname pwindow_gate[3];
#P hidden newex 267 132 426 196617 jmod.parameter.mxt $1 /video/bypass @type toggle @repetitions 0 @description "Bypasses the video processing algorithm in the module - allowing unaltered video through.";
#P objectname pwindow_gate[2];
#P hidden newex 267 88 317 196617 jmod.parameter.mxt $1 /video/preview @type toggle @description "Turns on/off the video display in the module's preview window.";
#P objectname pwindow_gate[1];
#N comlet video input for previewing;
#P hidden inlet 193 97 15 0;
#P window linecount 1;
#P hidden newex 182 127 29 196617 gate;
#P objectname pwindow_gate;
#P user jit.pwindow -1 15 62 47 0 1 0 0 1 0;
#P objectname pwindow;
#P user hint 1 1 14 13 bypass 2000 500 0 65535 65535 52428 9 3 0 1 0 0 0;
#P user pictctrl 3 2 11 11 jmod.button.bypass.pct 0 0 1 1 26 0 0 0 11 11 128 0 1 1 1 1 1 270;
#P objectname button_bypass;
#P hidden connect 3 0 2 0;
#P hidden connect 6 1 0 0;
#P hidden connect 8 1 17 0;
#P hidden connect 7 1 19 0;
#P hidden connect 5 0 20 0;
#P hidden connect 2 1 10 0;
#P hidden fasten 5 1 3 0 579 120 187 120;
#P hidden connect 4 0 3 1;
#P hidden connect 20 0 5 0;
#P hidden connect 26 0 6 0;
#P hidden connect 24 0 6 0;
#P hidden connect 0 0 6 0;
#P hidden fasten 28 0 8 0 662 210 272 210;
#P hidden connect 17 0 8 0;
#P hidden connect 24 0 8 0;
#P hidden connect 19 0 7 0;
#P hidden fasten 26 0 7 0 604 291 272 291;
#P hidden connect 28 0 7 0;
#P hidden connect 8 1 25 0;
#P hidden connect 25 0 26 0;
#P hidden connect 7 1 23 0;
#P hidden connect 23 0 24 0;
#P hidden connect 6 1 27 0;
#P hidden connect 27 0 28 0;
#P hidden fasten 7 1 13 0 640 326 700 326;
#P hidden fasten 15 0 16 0 965 399 700 399;
#P hidden fasten 12 0 16 0 864 399 700 399;
#P hidden connect 13 0 16 0;
#P hidden fasten 14 0 16 0 790 399 700 399;
#P hidden fasten 8 1 14 0 631 247 790 247;
#P hidden fasten 6 1 12 0 688 162 864 162;
#P hidden fasten 5 1 15 0 579 124 965 124;
#P pop;
