max v2;#N vpatcher 86 135 348 506;#P outlet 67 300 15 0;#P window setfont "Sans Serif" 9.;#P window linecount 1;#P newex 163 191 40 196617 change;#P newex 115 190 40 196617 change;#P newex 109 231 64 196617 pak size 0 0;#P newex 115 137 52 196617 route dim;#P newex 115 159 58 196617 unpack 0 0;#P newex 115 117 71 196617 jit.matrixinfo;#P inlet 67 36 15 0;#P connect 4 0 7 0;#P connect 0 0 7 0;#P connect 0 0 1 0;#P connect 1 0 3 0;#P connect 3 0 2 0;#P connect 2 0 5 0;#P connect 5 0 4 1;#P connect 2 1 6 0;#P connect 6 0 4 2;#P pop;