max v2;
#N vpatcher 108 63 488 553;
#P window setfont "Sans Serif" 9.;
#P newex 46 437 70 196617 print warning;
#P message 46 417 258 196617 jmod.gui_message.mxt: "mode" is not a valid argument;
#P newex 46 395 48 196617 sel mode;
#P newex 46 373 25 196617 iter;
#P newex 46 350 63 196617 patcherargs;
#P comment 153 251 195 196617 not safe for the "mode" message though...;
#P newex 46 186 77 196617 t $2;
#P newex 46 155 98 196617 route bang;
#P newex 134 286 126 196617 s $1_message;
#P newex 134 217 197 196617 zl join;
#P newex 134 186 77 196617 t $2;
#P inlet 46 129 15 0;
#P window setfont "Sans Serif" 18.;
#P comment 23 34 290 196626 jmod.gui_message.mxt;
#P window setfont "Sans Serif" 9.;
#P comment 23 62 277 196617 Wrapper for communication of messages (not parameters) from the GUI to the hub;
#P comment 153 237 100 196617 set-safe prepender;
#P connect 3 0 7 0;
#P connect 7 0 8 0;
#P connect 10 0 11 0;
#P connect 11 0 12 0;
#P connect 12 0 13 0;
#P connect 13 0 14 0;
#P connect 7 1 4 0;
#P connect 4 0 5 0;
#P fasten 8 0 6 0 51 274 139 274;
#P connect 5 0 6 0;
#P fasten 7 1 5 1 139 178 326 178;
#P pop;
