max v2;
#N vpatcher 341 72 1105 767;
#P origin 0 -22;
#P window setfont "Sans Serif" 9.;
#P comment 70 660 150 196617 connect to left inlet of module;
#P comment 310 519 286 196617 2) Dump all current parameter values;
#P newex 171 500 126 196617 t b get_parameter_names;
#P window linecount 2;
#P comment 111 315 128 196617 Keep track of what messages are parameters;
#P window linecount 1;
#N coll $0_parameters 1;
#P newobj 111 291 109 196617 coll $0_parameters 1;
#P newex 111 231 41 196617 t b s;
#P newex 111 265 73 196617 pack store s s;
#P newex 111 168 285 196617 route parameter_name;
#N vpatcher 34 89 724 589;
#P window setfont "Sans Serif" 9.;
#P window linecount 1;
#N coll $0_parameters 1;
#P newobj 120 93 109 196617 coll $0_parameters 1;
#P window linecount 0;
#P newex 184 203 30 196617 t tab;
#P inlet 120 32 15 0;
#P newex 90 203 25 196617 t cr;
#P message 294 197 249 196617 // Module $1 \, cr;
#P newex 120 60 184 196617 t dump b;
#N coll $0_state 1;
#P newobj 120 138 79 196617 coll $0_state 1;
#P newex 120 203 60 196617 prepend $1;
#P newex 120 313 139 196617 s jmod.from_bridge.getstate;
#P comment 317 95 269 196617 Only retrieve parameters \, not messages from the module;
#P connect 3 0 6 0;
#P connect 7 0 4 0;
#P connect 4 0 9 0;
#P connect 9 0 3 0;
#P connect 3 0 2 0;
#P connect 5 0 1 0;
#P connect 6 0 1 0;
#P connect 2 0 1 0;
#P connect 8 0 1 0;
#P connect 3 0 8 0;
#P connect 4 1 5 0;
#P pop;
#P newobj 171 613 64 196617 p dumpState;
#P window linecount 2;
#P comment 218 434 94 196617 Collect messages as current state;
#P window linecount 1;
#N vpatcher 34 89 294 360;
#P outlet 60 178 15 0;
#P window setfont "Sans Serif" 9.;
#P newex 60 129 101 196617 prepend append $1 -;
#P inlet 60 50 15 0;
#P newex 164 129 39 196617 t clear;
#P connect 1 0 2 0;
#P connect 0 0 3 0;
#P connect 2 0 3 0;
#P connect 1 0 0 0;
#P pop;
#P newobj 57 167 49 196617 p display;
#P newex 386 266 71 196617 prepend store;
#P newex 386 242 66 196617 zl join;
#P newex 386 216 50 196617 zl slice 1;
#N coll $0_state 1;
#P newobj 386 289 79 196617 coll $0_state 1;
#N comlet connect to left outlet of module;
#P inlet 111 133 15 0;
#N comlet connect to left inlet of module;
#P outlet 119 630 15 0;
#P newex 119 469 114 196617 route $1 jmod.getstate;
#P newex 119 436 86 196617 r jmod.to_bridge;
#P window linecount 2;
#P comment 386 315 94 196617 Collect messages as current state;
#P window linecount 1;
#P comment 70 63 242 196617 Abstraction for communication to and from modules;
#P window setfont "Sans Serif" 14.;
#P comment 70 42 100 196622 jmod.bridge;
#P window setfont "Sans Serif" 9.;
#P comment 310 502 286 196617 1) Make sure that we've got correct list of parameters;
#P comment 70 113 150 196617 connect to left outlet of module;
#P connect 8 0 13 0;
#P connect 8 0 16 0;
#P connect 16 0 18 0;
#P connect 18 0 17 0;
#P connect 17 0 19 0;
#P connect 5 0 6 0;
#P connect 21 1 7 0;
#P connect 6 0 7 0;
#P connect 18 1 17 1;
#P connect 6 1 21 0;
#P connect 21 0 15 0;
#P connect 18 1 17 2;
#P connect 16 1 10 0;
#P connect 10 0 11 0;
#P connect 11 0 12 0;
#P connect 12 0 9 0;
#P fasten 16 1 11 1 391 199 447 199;
#P pop;
