max v2;
#N vpatcher 12 44 984 549;
#P window setfont "Sans Serif" 9.;
#P newex 644 211 94 196617 pvar BypassToggle;
#P newex 644 158 84 196617 pvar MuteToggle;
#P message 447 294 45 196617 set \$1 0;
#P number 538 316 35 9 0 0 0 3 0 0 0 74 156 97 222 222 222 0 0 0;
#P newex 447 315 89 196617 pvar gain_master;
#B color 7;
#P newex 447 336 160 196617 jmod.parameter.gain.mxt $1 gain;
#B color 2;
#P objectname jmod.parameter.gain.mxt;
#P hidden newex 155 273 103 196617 route MODULE_TITLE;
#P hidden newex 155 253 93 196617 r $1_FROM_MHUB;
#P hidden newex 155 293 90 196617 prepend setitem 0;
#P user umenu 13 2 226 196644 3 64 18 0;
#X setrgb 165 165 165 221 221 221 255 255 255 221 221 221 170 170 170 119 119 119 187 187 187;
#X add $2;
#P hidden newex 180 164 185 196617 jmod.parameter.mxt $1 defeat_meters;
#B color 1;
#P objectname jmod.parameter[6];
#P hidden newex 582 46 27 196617 - 2;
#P hidden newex 582 91 65 196617 jmod.core.sr;
#P hidden newex 582 65 131 196617 jmod.parameter.mxt $1 sr;
#B color 1;
#P objectname jmod.parameter[5];
#P newex 644 133 30 196617 == 0;
#P newex 644 114 140 196617 jmod.message.mxt $1 enable;
#B color 1;
#P objectname jmod.parameter[2];
#P newex 644 235 152 196617 jmod.parameter.mxt $1 bypass;
#B color 1;
#P objectname jmod.parameter[1];
#P newex 644 178 143 196617 jmod.parameter.mxt $1 mute;
#B color 1;
#P objectname jmod.parameter;
#P user pictctrl 425 4 9 9 jmod.button.bypass.pct 0 0 1 1 26 0 0 0 11 11 128 0 1 1 1 0;
#P objectname BypassToggle;
#P user pictslider 339 10 84 8 0 0 0 0 jmod.slider.knob.gain.pct 1 jmod.slider.bg.gain.pct 1 2113 0 0 157 1. 1.;
#P objectname gain_master;
#P bpatcher 0 0 16 16 0 0 jmod.menu.a.mxt 0 $1;
#P hidden user hint 859 96 903 176 "Output Gain: notches are at -42dB -18dB -6dB and 0dB" 1000 100 0 65535 65535 52428 9 3 0 1 0 0 0;
#P hidden user hint 837 81 898 97 "Use arrows to change the sample rate for this module - you must restart the DSP for it to take effect" 1000 100 0 65535 65535 52428 9 3 0 1 0 0 0;
#P hidden comment 699 411 54 196617 Processed AUDIO;
#P hidden comment 636 412 62 196617 RAW AUDIO;
#P hidden newex 656 372 141 196617 jmod.core.bypass.stereo.mxt;
#P hidden newex 582 23 119 196617 jmod.incdec.handler.mxt;
#P user pictctrl 499 9 8 5 jmod.button.incdec-down.pct 0 0 1 0 26 0 0 0 8 4 128 0 1 1 1 0;
#P user pictctrl 499 3 8 5 jmod.button.indec-up.pct 0 0 1 0 24 0 0 0 8 4 128 0 1 1 1 0;
#N comlet RAW Audio In - right;
#P hidden outlet 680 396 13 0;
#N comlet RAW Audio In - left;
#P hidden outlet 656 396 13 0;
#N comlet (signal) in right - RAW;
#P hidden inlet 684 352 13 0;
#N comlet (signal) in left - RAW;
#P hidden inlet 670 352 13 0;
#P hidden comment 634 338 62 196617 RAW AUDIO;
#P user umenu 459 2 43 196644 3 64 18 0;
#X setrgb 132 132 132 221 221 221 255 255 255 221 221 221 170 170 170 119 119 119 187 187 187;
#X add 11025;
#X add 22050;
#X add 44100;
#X add 88200;
#X add 176400;
#P user pictctrl 437 4 9 9 jmod.button.mute.pct 0 0 1 1 26 0 0 0 11 11 128 0 1 1 1 0;
#P objectname MuteToggle;
#N comlet (signal) out left;
#P hidden outlet 704 396 13 0;
#N comlet (signal) out right;
#P hidden outlet 728 396 13 0;
#N comlet (signal) in right - COOKED;
#P hidden inlet 712 352 13 0;
#N comlet (signal) in left - COOKED;
#P hidden inlet 698 352 13 0;
#P user jmod.meter~ 340 7 82 2;
#P user jmod.meter~ 340 4 82 2;
#P hidden comment 698 337 88 196617 Processed AUDIO;
#P user hint 898 45 911 57 "Turns off/on this module" 1000 100 0 65535 65535 52428 9 3 0 1 0 0 0;
#P user hint 914 45 927 57 "Bypass this module's processing (does not free up CPU)" 1000 100 0 65535 65535 52428 9 3 0 1 0 0 0;
#P user pictctrl 0 0 510 61 jmod.bg-1.a.pct 0 0 1 0 24 0 0 0 510 61 2 0 1 1 1 0;
#P noclick;
#P hidden newex 27 104 29 196617 == 0;
#P hidden connect 36 0 26 1;
#P hidden connect 38 0 37 0;
#P hidden connect 26 1 0 0;
#P hidden connect 39 0 40 0;
#P hidden connect 40 0 38 0;
#P hidden connect 26 1 36 0;
#P hidden connect 21 2 5 0;
#P hidden connect 0 0 5 0;
#P hidden connect 21 3 6 0;
#P hidden connect 0 0 6 0;
#P fasten 41 0 44 0 452 359 438 359 438 287 452 287;
#P connect 44 0 42 0;
#P connect 42 0 41 0;
#P hidden connect 34 0 12 0;
#P hidden connect 20 0 12 0;
#P hidden connect 42 0 43 0;
#P hidden connect 18 0 20 0;
#P hidden connect 12 0 35 0;
#P hidden connect 35 0 33 0;
#P fasten 33 1 34 0 708 86 587 86;
#P hidden connect 19 0 20 1;
#P connect 31 0 32 0;
#P fasten 29 0 45 0 649 200 637 200 637 155 649 155;
#P connect 32 0 45 0;
#P connect 45 0 29 0;
#P fasten 30 0 46 0 649 259 640 259 640 205 649 205;
#P connect 46 0 30 0;
#P fasten 41 0 21 0 452 365 661 365;
#P hidden connect 21 0 16 0;
#P lcolor 6;
#P hidden connect 21 1 17 0;
#P lcolor 6;
#P hidden connect 14 0 21 1;
#P lcolor 6;
#P hidden connect 12 0 20 2;
#P lcolor 3;
#P hidden connect 21 2 10 0;
#P hidden connect 15 0 21 2;
#P lcolor 6;
#P hidden connect 21 3 9 0;
#P hidden connect 7 0 21 3;
#P lcolor 6;
#P hidden connect 8 0 21 4;
#P lcolor 6;
#P connect 30 1 21 5;
#P pop;
