max v2;#N vpatcher 20 74 620 474;#P window setfont "Sans Serif" 9.;#P newex 36 117 38 196617 t /aed;#P outlet 36 184 15 0;#P inlet 36 45 15 0;#P newex 36 149 112 196617 pack /aed 0 0. 0. 0. 1;#P newex 151 118 34 196617 * -1.;#P newex 36 86 112 196617 unpack aed 0 0. 0. 0. 0;#P connect 3 0 0 0;#P connect 0 0 5 0;#P connect 5 0 2 0;#P connect 2 0 4 0;#P connect 0 1 2 1;#P connect 1 0 2 2;#P connect 0 3 2 3;#P connect 0 4 2 4;#P connect 0 5 2 5;#P connect 0 2 1 0;#P pop;