max v2;
#N vpatcher 967 377 1678 818;
#P origin -19 0;
#P window setfont "Sans Serif" 9.;
#P number 258 117 35 9 0 0 0 3 0 0 0 221 221 221 222 222 222 0 0 0;
#P flonum 93 117 35 9 0 0 0 3 0 0 0 221 221 221 222 222 222 0 0 0;
#P flonum 38 117 35 9 0 0 0 3 0 0 0 221 221 221 222 222 222 0 0 0;
#P newex 60 48 138 196617 route min max mode window;
#P newex 60 21 251 196617 patcherargs @min 0 @max 1 @mode 1 @window 200;
#P newex 257 246 127 196617 jmod.oscroute /min /max;
#N vpatcher 349 136 582 403;
#P button 90 50 15 0;
#P window setfont "Sans Serif" 9.;
#P message 110 134 50 196617 /max \$1;
#P message 50 135 47 196617 /min \$1;
#P newex 90 70 61 196617 t 65556. 0.;
#P newex 110 102 41 196617 peak 0.;
#P newex 50 103 50 196617 trough 0.;
#P inlet 50 30 15 0;
#P inlet 90 30 15 0;
#P outlet 50 200 15 0;
#P connect 2 0 3 0;
#P connect 3 0 6 0;
#P connect 6 0 0 0;
#P connect 7 0 0 0;
#P connect 1 0 8 0;
#P connect 8 0 5 0;
#P connect 5 0 3 1;
#P connect 2 0 4 0;
#P connect 4 0 7 0;
#P connect 5 1 4 1;
#P pop;
#P newobj 272 204 88 196617 p simple_minmax;
#N vpatcher 1108 190 1438 737;
#P window setfont "Sans Serif" 9.;
#P window linecount 1;
#P message 126 380 50 196617 /max \$1;
#P message 66 381 47 196617 /min \$1;
#P outlet 66 446 15 0;
#P inlet 218 32 15 0;
#P window linecount 0;
#N vpatcher 10 59 216 277;
#P window setfont "Sans Serif" 9.;
#P newex 64 124 29 196617 sqrt;
#P newex 50 102 53 196617 jit.3m;
#P newex 50 79 65 196617 jit.op @op *;
#P newex 50 50 63 196617 jit.op @op -;
#P inlet 50 30 15 0;
#P outlet 64 146 15 0;
#P connect 1 0 2 0;
#P connect 2 0 3 0;
#P connect 3 0 4 0;
#P connect 4 1 5 0;
#P connect 5 0 0 0;
#P fasten 2 0 3 1 55 72 110 72;
#P pop;
#P newobj 142 274 48 196617 p stddev;
#P window linecount 1;
#P newex 142 300 35 196617 * 2.5;
#P newex 66 337 27 196617 - 0.;
#P newex 94 337 27 196617 + 0.;
#P newex 80 170 27 196617 t b l;
#P message 218 175 50 196617 dim \$1 1;
#P newex 80 70 29 196617 t b f;
#P newex 80 125 30 196617 pack;
#P number 218 57 35 9 0 0 0 3 0 0 0 221 221 221 222 222 222 0 0 0;
#N counter 0 0 200;
#X flags 0 0;
#P newobj 80 95 83 196617 counter 0 0 200;
#P window linecount 0;
#P message 80 149 87 196617 setcell \$1 val \$2;
#P window linecount 1;
#P newex 80 239 53 196617 jit.3m;
#P window linecount 0;
#P newex 80 202 121 196617 jit.matrix 1 float32 200;
#P inlet 80 32 15 0;
#P connect 2 1 11 0;
#P connect 11 0 16 0;
#P connect 17 0 15 0;
#P connect 16 0 15 0;
#P connect 0 0 7 0;
#P connect 7 0 4 0;
#P connect 4 0 6 0;
#P connect 6 0 3 0;
#P connect 3 0 9 0;
#P fasten 9 1 1 0 102 192 85 192;
#P connect 9 0 1 0;
#P fasten 8 0 1 0 223 196 85 196;
#P connect 1 0 2 0;
#P connect 12 0 11 1;
#P connect 2 1 10 0;
#P connect 7 1 6 1;
#P connect 12 0 10 1;
#P connect 10 0 17 0;
#P connect 2 1 13 0;
#P fasten 1 0 13 0 85 228 147 228;
#P connect 13 0 12 0;
#P fasten 5 0 4 4 223 81 157 81;
#P connect 14 0 5 0;
#P connect 5 0 8 0;
#P pop;
#P newobj 467 204 118 196617 p running_mean&stddev;
#N vpatcher 811 107 1154 516;
#P window setfont "Sans Serif" 9.;
#P window linecount 1;
#P message 126 275 50 196617 /max \$1;
#P message 76 275 47 196617 /min \$1;
#P outlet 76 340 15 0;
#P inlet 214 32 15 0;
#P window linecount 0;
#P newex 76 170 27 196617 t b l;
#P message 214 175 50 196617 dim \$1 1;
#P newex 76 70 29 196617 t b f;
#P newex 76 125 30 196617 pack;
#P number 214 53 35 9 0 0 0 3 0 0 0 221 221 221 222 222 222 0 0 0;
#N counter 0 0 200;
#X flags 0 0;
#P newobj 76 95 83 196617 counter 0 0 200;
#P message 76 149 87 196617 setcell \$1 val \$2;
#P window linecount 1;
#P newex 76 227 53 196617 jit.3m;
#P window linecount 0;
#P newex 76 202 121 196617 jit.matrix 1 float32 200;
#P inlet 76 32 15 0;
#P connect 0 0 7 0;
#P connect 7 0 4 0;
#P connect 4 0 6 0;
#P connect 6 0 3 0;
#P connect 3 0 9 0;
#P fasten 8 0 1 0 219 196 81 196;
#P connect 9 0 1 0;
#P fasten 9 1 1 0 98 192 81 192;
#P connect 1 0 2 0;
#P connect 2 0 12 0;
#P connect 13 0 11 0;
#P connect 12 0 11 0;
#P connect 7 1 6 1;
#P connect 2 2 13 0;
#P fasten 5 0 4 4 219 81 153 81;
#P connect 10 0 5 0;
#P connect 5 0 8 0;
#P pop;
#P newobj 367 204 92 196617 p running_minmax;
#P window linecount 2;
#P user com 522 323 146 196617 28;
#K set 0 16748 25976 24942 25701 29216 21093 26227 30061 8266 25966 29541 28265 30067 3432 29812 28730 12079 28021 29545 25441 27751 25971 29813 29285 29486 30057 28462 28271;
#K end;
#N comlet Messages out \, /min \, /max;
#P outlet 419 374 15 0;
#P window linecount 1;
#P newex 203 117 27 196617 + 1;
#P newex 38 77 286 196617 jmod.oscroute /min /max /clear /mode /window;
#P number 203 140 22 9 0 0 32 3 0 0 0 221 221 221 222 222 222 0 0 0;
#P newex 203 160 219 196617 gate 5 2;
#N comlet Scaled values out;
#P outlet 203 370 15 0;
#N comlet Incoming values and messages;
#P inlet 38 20 15 0;
#P newex 241 291 92 196617 scale 0. 100. 0. 1.;
#P connect 1 0 5 0;
#P connect 5 0 15 0;
#P hidden connect 14 0 15 0;
#P fasten 13 1 14 0 306 43 65 43;
#P connect 5 1 16 0;
#P hidden fasten 14 1 16 0 97 101 98 101;
#P hidden connect 14 2 6 0;
#P connect 5 3 6 0;
#P connect 6 0 4 0;
#P connect 4 0 3 0;
#P fasten 0 0 2 0 246 336 208 336;
#P connect 3 0 2 0;
#P fasten 3 4 0 0 416 197 246 197;
#P lcolor 7;
#P fasten 3 3 0 0 364 193 246 193;
#P lcolor 7;
#P fasten 3 1 0 0 260 185 246 185;
#P lcolor 7;
#P fasten 3 2 0 0 312 189 246 189;
#P lcolor 7;
#P connect 11 0 12 0;
#P connect 10 0 12 0;
#P connect 9 0 12 0;
#P connect 12 0 0 1;
#P hidden connect 14 3 17 0;
#P connect 5 4 17 0;
#P connect 3 1 11 0;
#P connect 12 1 0 2;
#P fasten 15 0 0 3 43 285 294 285;
#P lcolor 1;
#P fasten 16 0 0 4 98 280 310 280;
#P lcolor 1;
#P connect 5 2 11 1;
#P connect 3 3 9 0;
#P connect 5 5 3 1;
#P fasten 11 0 7 0 277 237 424 237;
#P lcolor 6;
#P fasten 10 0 7 0 472 230 424 230;
#P lcolor 6;
#P fasten 9 0 7 0 372 234 424 234;
#P lcolor 6;
#P fasten 17 0 9 1 263 150 454 150;
#P connect 3 4 10 0;
#P fasten 17 0 10 1 263 150 580 150;
#P pop;
