max v2;
#N vpatcher 48 44 748 479;
#P user hint 79 1 92 13 preview 2000 500 0 65535 65535 52428 9 3 0 1 0 0 0;
#P user hint 67 1 80 13 freeze 2000 500 0 65535 65535 52428 9 3 0 1 0 0 0;
#P user pictctrl 80 2 11 11 jmod.button.preview.pct 0 0 1 1 26 0 0 0 11 11 128 0 1 1 1 1 1 270;
#P objectname button_bypass[2];
#P user pictctrl 66 2 11 11 jmod.button.freeze.pct 0 0 1 1 26 0 0 0 11 11 128 0 1 1 1 1 1 270;
#P objectname button_bypass[1];
#P user hint 57 1 70 13 mute 2000 500 0 65535 65535 52428 9 3 0 1 0 0 0;
#P user pictctrl 56 2 11 11 jmod.button.mute.pct 0 0 1 1 26 0 0 0 11 11 128 0 1 1 1 1 1 270;
#P objectname button_mute;
#P window setfont "Sans Serif" 9.;
#P hidden newex 114 381 193 196617 send $1_FROM_GUI_VIDEO_COMPONENT;
#P hidden newex 114 142 90 196617 prepend preview;
#P hidden newex 317 298 65 196617 prepend mute;
#P hidden newex 271 240 84 196617 prepend freeze;
#P hidden newex 235 164 75 196617 prepend bypass;
#P window linecount 2;
#P hidden newex 359 324 306 196617 jmod.message $1 /direct @type generic @description "Send messages directly to the jitter external embedded in the module.";
#N comlet dumpout;
#P hidden outlet 50 72 15 0;
#P window linecount 1;
#P hidden newex 236 85 396 196617 jmod.message.mxt $1 /genframe @description "Forces a frame of output to be sent.";
#P objectname pwindow_gate[5];
#P window linecount 2;
#P hidden newex 320 252 307 196617 jmod.parameter.mxt $1 /mute @type toggle @description "Mutes (turns off) the module's algorithm - generating no output.";
#P objectname pwindow_gate[4];
#P hidden newex 281 186 322 196617 jmod.parameter.mxt $1 /freeze @type toggle @description "Freezes the last frame of output from the module's processing algorithm.";
#P objectname pwindow_gate[3];
#P hidden newex 236 120 358 196617 jmod.parameter.mxt $1 /bypass @type toggle @description "Bypasses the video processing algorithm in the module - allowing unaltered video through.";
#P objectname pwindow_gate[2];
#P hidden newex 114 10 307 196617 jmod.parameter.mxt $1 /preview @type toggle @description "Turns on/off the video display in the module's preview window.";
#P objectname pwindow_gate[1];
#N comlet video input for previewing;
#P hidden inlet 200 65 15 0;
#P window linecount 1;
#P hidden newex 181 96 29 196617 gate;
#P objectname pwindow_gate;
#P user jit.pwindow -1 -1 62 47 0 1 0 0 1 0;
#P objectname pwindow;
#P user hint 45 1 58 13 bypass 2000 500 0 65535 65535 52428 9 3 0 1 0 0 0;
#P user pictctrl 46 2 11 11 jmod.button.bypass.pct 0 0 1 1 26 0 0 0 11 11 128 0 1 1 1 1 1 270;
#P objectname button_bypass;
#P user pictctrl 33 0 62 15 jmod.bg.video-component.pct 0 0 1 0 24 0 0 0 62 15 2 0 1 1 1 1 1 270;
#P noclick;
#P objectname background;
#P hidden connect 4 0 3 0;
#P hidden connect 3 1 11 0;
#P hidden connect 6 1 16 0;
#P hidden connect 16 0 17 0;
#P hidden connect 13 0 17 0;
#P hidden connect 14 0 17 0;
#P hidden connect 15 0 17 0;
#P hidden fasten 6 1 4 0 416 50 186 50;
#P hidden connect 5 0 4 1;
#P hidden connect 7 1 13 0;
#P hidden connect 8 1 14 0;
#P hidden connect 9 1 15 0;
#P pop;
