max v2;#N vpatcher 45 55 914 427;#P inlet 230 87 15 0;#P window setfont "Sans Serif" 9.;#P window linecount 1;#P newex 100 240 32 196617 + $1;#P newex 52 175 58 196617 zl slice 1;#P newex 52 146 45 196617 zl rev;#P newex 100 215 27 196617 + 1;#P window setfont "Sans Serif" 12.;#P comment 35 32 100 196620 jmod.multi.out~;#P window setfont "Sans Serif" 9.;#P comment 35 53 149 196617 multicable for audio signals;#P newex 52 121 134 196617 jmod.oscroute /multicable;#P inlet 52 87 15 0;#P outlet 596 300 15 0;#P objectname out[31];#P outlet 580 300 15 0;#P objectname out[30];#P outlet 564 300 15 0;#P objectname out[29];#P outlet 548 300 15 0;#P objectname out[28];#P outlet 532 300 15 0;#P objectname out[27];#P outlet 516 300 15 0;#P objectname out[26];#P outlet 500 300 15 0;#P objectname out[25];#P outlet 484 300 15 0;#P objectname out[24];#P outlet 468 300 15 0;#P objectname out[23];#P outlet 452 300 15 0;#P objectname out[22];#P outlet 436 300 15 0;#P objectname out[21];#P outlet 420 300 15 0;#P objectname out[20];#P outlet 404 300 15 0;#P objectname out[19];#P outlet 388 300 15 0;#P objectname out[18];#P outlet 372 300 15 0;#P objectname out[17];#P outlet 356 300 15 0;#P objectname out[16];#P outlet 340 300 15 0;#P objectname out[15];#P outlet 324 300 15 0;#P objectname out[14];#P outlet 308 300 15 0;#P objectname out[13];#P outlet 292 300 15 0;#P objectname out[12];#P outlet 276 300 15 0;#P objectname out[11];#P outlet 260 300 15 0;#P objectname out[10];#P outlet 244 300 15 0;#P objectname out[9];#P outlet 228 300 15 0;#P objectname out[8];#P outlet 212 300 15 0;#P objectname out[7];#P outlet 196 300 15 0;#P objectname out[6];#P outlet 180 300 15 0;#P objectname out[5];#P outlet 164 300 15 0;#P objectname out[4];#P outlet 148 300 15 0;#P objectname out[3];#P outlet 132 300 15 0;#P objectname out[2];#P outlet 116 300 15 0;#P objectname out[1];#P outlet 100 300 15 0;#P objectname out[0];#P newex 100 267 534 196617 gate 33;#P comment 148 242 100 196617 offset;#P window linecount 2;#P comment 613 291 210 196617 The extra output prevents signals to channel 33 or higher from being added to channel 32;#P connect 35 0 36 0;#P connect 36 0 40 0;#P connect 40 0 41 0;#P connect 41 1 39 0;#P connect 39 0 42 0;#P connect 42 0 2 0;#P connect 2 0 3 0;#P connect 2 1 4 0;#P connect 43 0 42 1;#P connect 2 2 5 0;#P connect 2 3 6 0;#P connect 2 4 7 0;#P connect 2 5 8 0;#P connect 2 6 9 0;#P connect 2 7 10 0;#P connect 2 8 11 0;#P connect 2 9 12 0;#P connect 2 10 13 0;#P connect 2 11 14 0;#P connect 2 12 15 0;#P connect 2 13 16 0;#P connect 2 14 17 0;#P connect 2 15 18 0;#P connect 2 16 19 0;#P connect 2 17 20 0;#P connect 2 18 21 0;#P connect 2 19 22 0;#P connect 2 20 23 0;#P connect 2 21 24 0;#P connect 2 22 25 0;#P connect 2 23 26 0;#P connect 2 24 27 0;#P connect 2 25 28 0;#P connect 2 26 29 0;#P connect 2 27 30 0;#P connect 2 28 31 0;#P connect 2 29 32 0;#P connect 2 30 33 0;#P connect 2 31 34 0;#P fasten 41 0 2 1 57 205 629 205;#P pop;