max v2;#N vpatcher 20 74 523 437;#P window setfont "Sans Serif" 9.;#P window linecount 1;#P newex 130 148 97 196617 jmod.pass dim char;#P message 71 189 14 196617 2;#P message 56 189 14 196617 1;#P newex 71 233 47 196617 gate 2 2;#P newex 56 146 40 196617 change;#P newex 56 167 41 196617 sel 4 1;#P newex 56 124 84 196617 route planecount;#P newex 56 104 72 196617 jit.matrixinfo;#P newex 143 270 129 196617 jit.matrix 4 char 320 240;#P inlet 254 43 15 0;#P outlet 71 297 15 0;#P window linecount 7;#P comment 307 117 130 196617 The abstraction checks the planes of the matrix and decides whether it is necessary to convert to a 4 plane matrix or not \, thus avoiding error messages and saving a little CPU.;#P fasten 2 0 4 0 259 80 61 80;#P connect 4 0 5 0;#P connect 5 0 7 0;#P connect 7 0 6 0;#P connect 6 0 9 0;#P connect 6 1 10 0;#P connect 9 0 8 0;#P connect 10 0 8 0;#P fasten 3 0 1 0 148 292 76 292;#P connect 8 0 1 0;#P fasten 2 0 8 1 259 223 113 223;#P connect 5 1 11 0;#P connect 8 1 3 0;#P connect 11 1 3 0;#P connect 11 0 3 0;#P pop;