max v2;#N vpatcher 321 91 951 441;#N comlet connect to jmod.parameter;#P hidden inlet 377 -48 15 0;#N comlet connect to jmod.parameter;#P hidden outlet 349 145 15 0;#P window setfont "Sans Serif" 9.;#N vpatcher 20 74 1132 691;#P window setfont "Sans Serif" 9.;#P window linecount 2;#P comment 412 523 86 196617 to jmod.parameter;#P comment 831 523 66 196617 to colorswatch;#P comment 295 523 92 196617 to panel displaying selected color;#P window linecount 1;#P comment 71 523 137 196617 to HSL number boxes;#P comment 80 24 137 196617 from HSL number boxes;#P comment 431 42 137 196617 from colorswatch;#P comment 689 53 137 196617 - update displayed color;#P window linecount 0;#P newex 668 90 51 196617 route set;#P outlet 294 498 15 0;#P window linecount 1;#N vpatcher 20 74 620 474;#P inlet 50 25 15 0;#P window setfont "Sans Serif" 9.;#P newex 50 147 44 196617 qlim 40;#P newex 50 50 60 196617 jmod.round;#P newex 50 93 100 196617 pack 0 0 0;#P newex 50 71 146 196617 tap.colorspace @mode hsl2rgb;#P newex 50 118 68 196617 prepend brgb;#P outlet 50 169 15 0;#P connect 6 0 4 0;#P connect 4 0 2 0;#P fasten 2 0 3 0 55 88;#P connect 3 0 1 0;#P connect 1 0 5 0;#P connect 5 0 0 0;#P connect 2 1 3 1;#P connect 2 2 3 2;#P pop;#P newobj 294 465 79 196617 p display_color;#P window linecount 0;#P newex 668 112 173 196617 t l l l;#P newex 668 138 76 196617 unpack 0. 0. 0.;#P inlet 668 41 15 0;#P outlet 830 498 15 0;#P window linecount 1;#P newex 830 384 60 196617 jmod.round;#P newex 830 468 62 196617 prepend set;#P newex 830 426 101 196617 pack 0. 0. 0.;#P newex 830 405 146 196617 tap.colorspace @mode hsl2rgb;#P newex 830 447 60 196617 jmod.round;#P newex 205 322 62 196617 prepend set;#P newex 140 322 62 196617 prepend set;#P newex 75 322 62 196617 prepend set;#P newex 26 130 20 196617 t b;#P newex 413 104 205 196617 tap.colorspace @mode rgb2hsl;#P newex 413 320 140 196617 pack 0. 0. 0.;#P inlet 150 41 15 0;#P inlet 114 41 15 0;#P inlet 78 41 15 0;#P inlet 413 41 15 0;#P outlet 205 498 15 0;#P outlet 140 498 15 0;#P outlet 75 498 15 0;#P outlet 413 498 15 0;#P window linecount 0;#P comment 689 41 137 196617 from jmod.parameter:;#P connect 8 0 11 0;#P lcolor 12;#P connect 7 0 11 0;#P lcolor 12;#P connect 10 0 12 0;#P connect 22 0 12 0;#P connect 12 0 2 0;#P connect 10 1 13 0;#P connect 22 1 13 0;#P connect 13 0 3 0;#P connect 10 2 14 0;#P connect 22 2 14 0;#P connect 14 0 4 0;#P fasten 23 1 24 0 754 457 299 457;#P connect 9 0 24 0;#P connect 24 0 25 0;#P connect 5 0 10 0;#P connect 11 0 9 0;#P lcolor 12;#P connect 6 0 9 0;#P lcolor 12;#P connect 10 0 9 0;#P connect 9 0 1 0;#P connect 7 0 9 1;#P lcolor 12;#P connect 10 1 9 1;#P connect 8 0 9 2;#P lcolor 12;#P connect 10 2 9 2;#P connect 21 0 26 0;#P connect 26 0 23 0;#P connect 23 0 22 0;#P connect 23 2 19 0;#P connect 19 0 16 0;#P connect 16 0 17 0;#P connect 17 0 15 0;#P connect 15 0 18 0;#P connect 18 0 20 0;#P connect 16 1 17 1;#P connect 16 2 17 2;#P pop;#P hidden newobj 237 6 150 196617 p local_brain;#P flonum 158 49 35 9 0. 100. 8195 3 0 0 0 221 221 221 107 107 107 0 0 0;#P flonum 121 49 35 9 0. 100. 8195 3 0 0 0 221 221 221 107 107 107 0 0 0;#P flonum 84 49 35 9 0. 360. 8195 3 0 0 0 221 221 221 107 107 107 0 0 0;#P user swatch 49 0 143 44;#P comment 50 50 31 196617 HSL:;#P user panel 0 0 44 63;#X brgb 78 31 187;#X frgb 0 0 0;#X border 1;#X rounded 0;#X shadow 0;#X done;#P user panel 0 0 204 75;#X brgb 191 191 191;#X frgb 0 0 0;#X border 0;#X rounded 0;#X shadow 0;#X done;#P hidden fasten 7 3 1 0 326 104 -10 104 -10 -19 5 -19;#P hidden fasten 7 5 3 0 382 35 397 35 397 -12 54 -12;#P hidden connect 7 0 4 0;#P hidden connect 7 1 5 0;#P hidden connect 7 2 6 0;#P hidden fasten 4 0 7 0 89 75 228 75 228 2 242 2;#P hidden fasten 5 0 7 1 126 71 223 71 223 0 277 0;#P hidden fasten 6 0 7 2 163 68 218 68 218 -3 312 -3;#P hidden fasten 3 0 7 3 54 47 213 47 213 -7 347 -7;#P hidden connect 7 4 8 0;#P hidden connect 9 0 7 4;#P pop;