max v2;
#N vpatcher 19 243 1017 654;
#P window setfont "Sans Serif" 9.;
#P hidden newex 25 127 27 196617 int;
#P hidden outlet 629 104 13 0;
#P objectname outlet_32;
#P hidden outlet 615 104 13 0;
#P objectname outlet_31;
#P hidden outlet 601 104 13 0;
#P objectname outlet_30;
#P hidden outlet 587 104 13 0;
#P objectname outlet_29;
#P hidden outlet 573 104 13 0;
#P objectname outlet_28;
#P hidden outlet 559 104 13 0;
#P objectname outlet_27;
#P hidden outlet 545 104 13 0;
#P objectname outlet_26;
#P hidden outlet 531 104 13 0;
#P objectname outlet_25;
#P hidden outlet 517 104 13 0;
#P objectname outlet_24;
#P hidden outlet 503 104 13 0;
#P objectname outlet_23;
#P hidden outlet 489 104 13 0;
#P objectname outlet_22;
#P hidden outlet 475 104 13 0;
#P objectname outlet_21;
#P hidden outlet 461 104 13 0;
#P objectname outlet_20;
#P hidden outlet 447 104 13 0;
#P objectname outlet_19;
#P hidden outlet 433 104 13 0;
#P objectname outlet_18;
#P hidden outlet 419 104 13 0;
#P objectname outlet_17;
#P hidden outlet 405 104 13 0;
#P objectname outlet_16;
#P hidden outlet 391 104 13 0;
#P objectname outlet_15;
#P hidden outlet 377 104 13 0;
#P objectname outlet_14;
#P hidden outlet 363 104 13 0;
#P objectname outlet_13;
#P hidden outlet 349 104 13 0;
#P objectname outlet_12;
#P hidden outlet 335 104 13 0;
#P objectname outlet_11;
#P hidden outlet 321 104 13 0;
#P objectname outlet_10;
#P hidden outlet 307 104 13 0;
#P objectname outlet_9;
#P hidden outlet 293 104 13 0;
#P objectname outlet_8;
#P hidden outlet 279 104 13 0;
#P objectname outlet_7;
#P hidden outlet 265 104 13 0;
#P objectname outlet_6;
#P hidden outlet 251 104 13 0;
#P objectname outlet_5;
#P hidden outlet 237 104 13 0;
#P objectname outlet_4;
#P hidden outlet 223 104 13 0;
#P objectname outlet_3;
#P hidden outlet 209 104 13 0;
#P objectname outlet_2;
#P hidden outlet 195 104 13 0;
#P objectname outlet_1;
#P hidden inlet 629 -57 13 0;
#P objectname inlet_32;
#P hidden inlet 615 -57 13 0;
#P objectname inlet_31;
#P hidden inlet 601 -57 13 0;
#P objectname inlet_30;
#P hidden inlet 587 -57 13 0;
#P objectname inlet_29;
#P hidden inlet 573 -57 13 0;
#P objectname inlet_28;
#P hidden inlet 559 -57 13 0;
#P objectname inlet_27;
#P hidden inlet 545 -57 13 0;
#P objectname inlet_26;
#P hidden inlet 531 -57 13 0;
#P objectname inlet_25;
#P hidden inlet 517 -57 13 0;
#P objectname inlet_24;
#P hidden inlet 503 -57 13 0;
#P objectname inlet_23;
#P hidden inlet 489 -57 13 0;
#P objectname inlet_22;
#P hidden inlet 475 -57 13 0;
#P objectname inlet_21;
#P hidden inlet 461 -57 13 0;
#P objectname inlet_20;
#P hidden inlet 447 -57 13 0;
#P objectname inlet_19;
#P hidden inlet 433 -57 13 0;
#P objectname inlet_18;
#P hidden inlet 419 -57 13 0;
#P objectname inlet_17;
#P hidden inlet 405 -57 13 0;
#P objectname inlet_16;
#P hidden inlet 391 -57 13 0;
#P objectname inlet_15;
#P hidden inlet 377 -57 13 0;
#P objectname inlet_14;
#P hidden inlet 363 -57 13 0;
#P objectname inlet_13;
#P hidden inlet 349 -57 13 0;
#P objectname inlet_12;
#P hidden inlet 335 -57 13 0;
#P objectname inlet_11;
#P hidden inlet 321 -57 13 0;
#P objectname inlet_10;
#P hidden inlet 307 -57 13 0;
#P objectname inlet_9;
#P hidden inlet 293 -57 13 0;
#P objectname inlet_8;
#P hidden inlet 279 -57 13 0;
#P objectname inlet_7;
#P hidden inlet 265 -57 13 0;
#P objectname inlet_6;
#P hidden inlet 251 -57 13 0;
#P objectname inlet_5;
#P hidden inlet 237 -57 13 0;
#P objectname inlet_4;
#P hidden inlet 223 -57 13 0;
#P objectname inlet_3;
#P hidden inlet 209 -57 13 0;
#P objectname inlet_2;
#P hidden inlet 195 -57 13 0;
#P objectname inlet_1;
#P bpatcher 345 2 163 16 0 -190 jmod.gui.audio-component.mxt 0 $1;
#P objectname controls;
#P hidden newex 277 300 22 196617 b 1;
#N thispatcher;
#Q end;
#P hidden newobj 256 345 60 196617 thispatcher;
#P hidden newex 256 324 143 196617 js jmod.gui.constructor.js $1;
#P hidden newex 155 273 277 196617 route MODULE_TITLE ATTRIBUTES BUILD;
#P hidden newex 155 253 93 196617 r $1_FROM_MHUB;
#P hidden newex 155 293 90 196617 prepend setitem 0;
#P user umenu 13 2 226 196644 3 64 18 0;
#X setrgb 165 165 165 221 221 221 255 255 255 221 221 221 170 170 170 119 119 119 187 187 187;
#X add jmod.degrade~;
#P hidden newex 287 172 185 196617 jmod.parameter.mxt $1 defeat_meters;
#B color 1;
#P objectname jmod.parameter[6];
#P hidden newex 47 191 29 196617 == 0;
#P bpatcher 33 154 16 16 0 0 jmod.menu.a.mxt 0 $1;
#P objectname menu;
#P hidden comment 326 119 184 196617 this first half of the inlets/outlets are the raw unprocessed signal(s) \, the second half are the processed signal(s);
#P user pictctrl 0 0 510 61 jmod.bg.metal.black.1U.pct 0 0 1 0 24 0 0 0 510 61 2 0 1 1 1 1;
#P noclick;
#P objectname background;
#P user umenu 0 1 15 196647 1 64 17 1;
#X add test 1;
#X add test 2;
#P hidden connect 10 1 1 0;
#P hidden connect 7 0 6 0;
#P connect 0 0 78 0;
#P hidden connect 5 0 3 1;
#P hidden connect 3 1 4 0;
#P hidden connect 8 0 9 0;
#P hidden connect 9 0 7 0;
#P hidden connect 13 0 46 0;
#P hidden connect 13 1 47 0;
#P hidden connect 13 2 48 0;
#P hidden connect 13 3 49 0;
#P hidden connect 13 4 50 0;
#P hidden connect 9 1 10 0;
#P hidden connect 12 0 10 0;
#P hidden connect 10 0 11 0;
#P hidden connect 13 5 51 0;
#P hidden connect 9 2 12 0;
#P hidden connect 13 6 52 0;
#P hidden connect 3 1 5 0;
#P hidden connect 13 7 53 0;
#P hidden connect 13 8 54 0;
#P hidden connect 13 9 55 0;
#P hidden connect 13 10 56 0;
#P hidden connect 14 0 13 0;
#P hidden fasten 10 2 13 0 393 352 653 352 653 -18 350 -18;
#P hidden connect 15 0 13 1;
#P hidden connect 13 11 57 0;
#P hidden connect 16 0 13 2;
#P hidden connect 17 0 13 3;
#P hidden connect 18 0 13 4;
#P hidden connect 13 12 58 0;
#P hidden connect 19 0 13 5;
#P hidden connect 20 0 13 6;
#P hidden connect 21 0 13 7;
#P hidden connect 22 0 13 8;
#P hidden connect 13 13 59 0;
#P hidden connect 23 0 13 9;
#P hidden connect 24 0 13 10;
#P hidden connect 25 0 13 11;
#P hidden connect 13 14 60 0;
#P hidden connect 26 0 13 12;
#P hidden connect 27 0 13 13;
#P hidden connect 28 0 13 14;
#P hidden connect 29 0 13 15;
#P hidden connect 13 15 61 0;
#P hidden connect 30 0 13 16;
#P hidden connect 31 0 13 17;
#P hidden connect 32 0 13 18;
#P hidden connect 13 16 62 0;
#P hidden connect 33 0 13 19;
#P hidden connect 34 0 13 20;
#P hidden connect 35 0 13 21;
#P hidden connect 36 0 13 22;
#P hidden connect 13 17 63 0;
#P hidden connect 37 0 13 23;
#P hidden connect 38 0 13 24;
#P hidden connect 39 0 13 25;
#P hidden connect 13 18 64 0;
#P hidden connect 40 0 13 26;
#P hidden connect 41 0 13 27;
#P hidden connect 42 0 13 28;
#P hidden connect 43 0 13 29;
#P hidden connect 13 19 65 0;
#P hidden connect 44 0 13 30;
#P hidden connect 45 0 13 31;
#P hidden connect 13 20 66 0;
#P hidden connect 13 21 67 0;
#P hidden connect 13 22 68 0;
#P hidden connect 13 23 69 0;
#P hidden connect 13 24 70 0;
#P hidden connect 13 25 71 0;
#P hidden connect 13 26 72 0;
#P hidden connect 13 27 73 0;
#P hidden connect 13 28 74 0;
#P hidden connect 13 29 75 0;
#P hidden connect 13 30 76 0;
#P hidden connect 13 31 77 0;
#P pop;
