max v2;#N vpatcher 10 59 629 513;#P window setfont "Sans Serif" 9.;#P window linecount 1;#P newex 136 241 57 196617 t store $2;#N coll $1_state 1;#P newobj 136 366 131 196617 coll $1_state 1;#P window linecount 2;#P comment 135 392 94 196617 Collect messages as current state;#P window linecount 1;#P newex 136 340 174 196617 sprintf %s %s %s %s;#P newex 298 167 36 196617 zl reg;#P newex 298 114 133 196617 receive $1_display_update;#P inlet 245 103 15 0;#P outlet 92 238 15 0;#P newex 92 181 163 196617 gate 1 1;#P newex 92 159 31 196617 == 0;#P newex 92 137 133 196617 receive $1_freeze_display;#P connect 0 0 1 0;#P connect 1 0 2 0;#P fasten 6 0 3 0 303 216 97 216;#P connect 2 0 3 0;#P fasten 6 0 10 0 303 229 141 229;#P connect 10 0 7 0;#P connect 7 0 9 0;#P connect 10 1 7 1;#P connect 10 1 7 2;#P connect 4 0 2 1;#P connect 5 0 6 0;#P fasten 6 0 7 3 303 262 303 262;#P connect 4 0 6 1;#P pop;