max v2;#N vpatcher 149 189 977 644;#P window setfont "Sans Serif" 9.;#P hidden newex 458 52 98 196617 jmod.pass text size;#P hidden newex 284 28 184 196617 patcherargs 0. @size 150 14 @text <>;#P hidden inlet 259 30 15 0;#P hidden newex 259 95 77 196617 route text size;#P hidden outlet 69 180 15 0;#N vpatcher 648 150 1165 770;#P window setfont "Sans Serif" 9.;#P window linecount 1;#P comment 252 38 32 196617 text;#P comment 74 491 100 196617 float;#P comment 182 38 35 196617 lcd 4;#P comment 146 38 35 196617 lcd 3;#P comment 110 38 35 196617 lcd 2;#P comment 74 38 35 196617 lcd 1;#P comment 300 38 29 196617 size;#P window linecount 0;#P newex 307 410 66 196617 prepend size;#N comlet size;#P inlet 307 58 15 0;#N comlet text;#P inlet 258 59 15 0;#P newex 77 403 50 196617 clip 0. 1.;#P newex 371 117 27 196617 f;#P newex 371 87 51 196617 route set;#N comlet float \, set;#P inlet 371 59 15 0;#N vpatcher 50 119 650 519;#P window setfont "Sans Serif" 9.;#P newex 105 104 51 196617 zl slice 1;#P newex 50 104 51 196617 zl slice 1;#P newex 50 158 27 196617 / 1.;#P inlet 50 72 15 0;#P inlet 105 72 15 0;#P outlet 50 205 15 0;#P connect 2 0 4 0;#P connect 4 0 3 0;#P connect 3 0 0 0;#P connect 5 0 3 1;#P connect 1 0 5 0;#P pop;#P newobj 77 234 42 196617 p value;#N vpatcher 373 84 1292 674;#P window setfont "Sans Serif" 9.;#P newex 43 367 20 196617 t b;#P message 140 405 92 196617 frgb 255 255 255;#P newex 83 326 73 196617 prepend write;#P newex 99 405 36 196617 zl reg;#P message 407 195 67 196617 moveto 3 \$1;#P message 489 195 82 196617 font Verdana \$1;#P newex 407 173 27 196617 i;#P newex 489 173 27 196617 i;#P newex 66 224 27 196617 t b l;#P newex 57 405 36 196617 zl reg;#P newex 407 148 35 196617 * 0.8;#P newex 489 148 41 196617 * 0.78;#P newex 377 121 40 196617 unpack;#P inlet 416 71 15 0;#P message 272 225 31 196617 \$1 0;#P newex 272 203 29 196617 * 1.;#P newex 291 163 51 196617 zl slice 1;#P inlet 272 68 15 0;#P newex 248 331 44 196617 qlim 20;#P message 278 479 132 196617 paintrect \$1 0 \$3 \$4 0 0 0;#P message 248 451 162 196617 paintrect 0 0 \$1 \$4 111 111 111;#P newex 248 269 36 196617 zl reg;#P newex 588 162 27 196617 t b l;#P newex 248 300 38 196617 zl join;#P inlet 588 67 15 0;#P outlet 248 527 15 0;#P inlet 248 68 15 0;#P fasten 8 0 26 0 253 357 48 357;#P connect 26 0 17 0;#P connect 13 0 18 0;#P connect 18 1 24 0;#P connect 24 0 17 1;#P connect 26 0 23 0;#P fasten 22 0 23 1 412 395 130 395;#P connect 26 0 25 0;#P fasten 12 0 5 0 277 254 253 254;#P connect 0 0 5 0;#P fasten 4 0 5 0 593 264 253 264;#P connect 5 0 3 0;#P connect 18 0 8 0;#P connect 3 0 8 0;#P connect 8 0 6 0;#P connect 25 0 1 0;#P connect 17 0 1 0;#P connect 23 0 1 0;#P fasten 21 0 1 0 494 501 253 501;#P connect 6 0 1 0;#P fasten 7 0 1 0 283 510 253 510;#P connect 9 0 11 0;#P connect 11 0 12 0;#P fasten 4 1 3 1 610 298 281 298;#P connect 8 0 7 0;#P connect 14 0 10 0;#P fasten 10 0 11 1 296 192 296 192;#P connect 2 0 14 0;#P connect 14 1 16 0;#P connect 16 0 20 0;#P connect 20 0 22 0;#P connect 14 1 15 0;#P connect 15 0 19 0;#P connect 19 0 21 0;#P connect 2 0 4 0;#P pop;#P newobj 22 216 53 196617 p draw;#P outlet 77 468 15 0;#N comlet to lcd;#P outlet 22 468 15 0;#P newex 229 271 57 196617 t b getsize;#P newex 191 176 87 196617 route size update;#N comlet lcd 4;#P inlet 191 59 15 0;#N comlet lcd 3;#P inlet 153 59 15 0;#N comlet lcd 2;#P inlet 115 59 15 0;#N comlet lcd 1;#P inlet 77 59 15 0;#P comment 370 38 55 196617 float \, set;#P comment 17 491 100 196617 to lcd;#P fasten 2 0 10 0 82 92 27 92;#P fasten 7 1 8 0 281 316 27 316;#P connect 18 0 8 0;#P connect 10 0 8 0;#P fasten 14 0 10 1 376 146 41 146;#P fasten 16 0 10 2 263 131 55 131;#P fasten 6 0 10 3 196 204 69 204;#P connect 2 0 11 0;#P fasten 13 1 15 0 417 394 82 394;#P connect 11 0 15 0;#P connect 15 0 9 0;#P fasten 6 0 11 1 196 209 114 209;#P connect 5 0 6 0;#P connect 6 1 7 0;#P connect 17 0 18 0;#P connect 12 0 13 0;#P connect 7 0 14 0;#P connect 13 1 14 0;#P connect 13 0 14 0;#P pop;#P hidden newobj 0 147 79 196617 p;#P user lcd 0 0 150 14 0 0 0 1 0;#P hidden fasten 1 0 0 0 5 173 -8 173 -8 -6 5 -6;#P hidden connect 0 0 1 0;#P hidden fasten 0 1 1 1 51 23 16 23;#P hidden fasten 0 2 1 2 97 30 27 30;#P hidden fasten 0 3 1 3 143 37 38 37;#P hidden fasten 3 0 1 4 264 124 49 124;#P hidden fasten 3 1 1 5 297 130 60 130;#P hidden fasten 3 2 1 6 330 136 71 136;#P hidden connect 1 1 2 0;#P hidden connect 4 0 3 0;#P hidden fasten 6 0 3 0 463 86 264 86;#P hidden fasten 6 1 3 0 507 86 264 86;#P hidden fasten 5 0 3 0 289 70 264 70;#P hidden connect 5 1 6 0;#P pop;