max v2;#N vpatcher 371 53 1008 299;#P window setfont "Sans Serif" 9.;#P hidden newex 359 71 199 196617 jmod.pass text size color frgb brgb rgb2;#P window linecount 2;#P hidden newex 283 31 276 196617 patcherargs 0. @size 150 14 @text <> @frgb 255 255 255 @brgb 0 0 0 @rgb2 111 111 111;#P hidden inlet 258 33 15 0;#P window linecount 1;#P hidden newex 258 99 153 196617 route text size frgb brgb rgb2;#P hidden outlet 69 180 15 0;#N vpatcher 553 95 1219 704;#P window setfont "Sans Serif" 9.;#P window linecount 1;#P newex 599 196 27 196617 f;#P newex 520 69 46 196617 sel bang;#P button 294 446 15 0;#P button 226 544 15 0;#P flonum 248 450 35 9 0 0 0 3 0 0 0 221 221 221 222 222 222 0 0 0;#P flonum 245 520 35 9 0 0 0 3 0 0 0 221 221 221 222 222 222 0 0 0;#P newex 247 479 50 196617 clip 0. 1.;#N comlet rgb2;#P inlet 461 63 15 0;#P objectname rgb;#P comment 459 39 55 196617 rgb2;#P comment 362 38 29 196617 frgb;#P comment 407 39 55 196617 brgb;#N comlet frgb;#P inlet 362 61 15 0;#N comlet brgb;#P inlet 406 62 15 0;#P comment 252 38 32 196617 text;#P comment 74 491 100 196617 float;#P comment 182 38 35 196617 lcd 4;#P comment 146 38 35 196617 lcd 3;#P comment 110 38 35 196617 lcd 2;#P comment 74 38 35 196617 lcd 1;#P comment 300 38 29 196617 size;#P window linecount 0;#P newex 307 410 66 196617 prepend size;#N comlet size;#P inlet 307 58 15 0;#N comlet text;#P inlet 258 59 15 0;#P newex 77 403 50 196617 clip 0. 1.;#P newex 512 122 27 196617 f;#P newex 558 90 51 196617 route set;#N comlet float \, set;#P inlet 520 50 15 0;#N vpatcher 50 119 650 519;#P window setfont "Sans Serif" 9.;#P newex 105 104 51 196617 zl slice 1;#P newex 50 104 51 196617 zl slice 1;#P newex 50 158 27 196617 / 1.;#P inlet 50 72 15 0;#P inlet 105 72 15 0;#P outlet 50 205 15 0;#P connect 2 0 4 0;#P connect 4 0 3 0;#P connect 3 0 0 0;#P connect 5 0 3 1;#P connect 1 0 5 0;#P pop;#P newobj 77 234 42 196617 p value;#N vpatcher 98 100 1122 681;#P window setfont "Sans Serif" 9.;#P window linecount 3;#P message 730 218 70 196617 set paintrect \\$1 0 \\$3 \\$4 \$1 \$2 \$3;#P window linecount 4;#P message 802 349 58 196617 set paintrect 0 0 \\$1 \\$4 \$1 \$2 \$3;#P window linecount 0;#P message 641 306 91 196617 set frgb \$1 \$2 \$3;#N comlet rgb2;#P inlet 802 65 15 0;#P objectname rgb;#N comlet frgb;#P inlet 641 65 16 0;#N comlet brgb;#P inlet 730 65 15 0;#P newex 43 367 20 196617 t b;#P message 140 405 92 196617 frgb 255 255 255;#P newex 83 326 73 196617 prepend write;#P newex 99 405 36 196617 zl reg;#P message 407 195 67 196617 moveto 3 \$1;#P message 489 195 82 196617 font Verdana \$1;#P newex 407 173 27 196617 i;#P newex 489 173 27 196617 i;#P newex 66 224 27 196617 t b l;#P newex 57 405 36 196617 zl reg;#P newex 407 148 35 196617 * 0.8;#P newex 489 148 41 196617 * 0.78;#P newex 377 121 40 196617 unpack;#P inlet 416 71 15 0;#P message 272 225 31 196617 \$1 0;#P newex 272 203 29 196617 * 1.;#P newex 291 163 51 196617 zl slice 1;#P inlet 272 68 15 0;#P newex 248 331 44 196617 qlim 20;#P message 278 479 169 196617 paintrect \$1 0 \$3 \$4 0 0 0;#P message 248 451 162 196617 paintrect 0 0 \$1 \$4 111 111 111;#P newex 248 269 36 196617 zl reg;#P newex 588 162 27 196617 t b l;#P newex 248 300 38 196617 zl join;#P inlet 588 67 15 0;#P outlet 248 527 15 0;#P inlet 248 68 15 0;#P fasten 8 0 26 0 253 357 48 357;#P connect 26 0 17 0;#P connect 13 0 18 0;#P connect 18 1 24 0;#P connect 24 0 17 1;#P connect 26 0 23 0;#P fasten 22 0 23 1 412 395 130 395;#P fasten 30 0 25 0 646 399 145 399;#P connect 26 0 25 0;#P fasten 4 0 5 0 593 264 253 264;#P connect 0 0 5 0;#P fasten 12 0 5 0 277 254 253 254;#P connect 5 0 3 0;#P connect 3 0 8 0;#P connect 18 0 8 0;#P connect 8 0 6 0;#P fasten 31 0 6 0 807 432 253 432;#P fasten 7 0 1 0 283 510 253 510;#P connect 6 0 1 0;#P fasten 21 0 1 0 494 501 253 501;#P connect 23 0 1 0;#P connect 17 0 1 0;#P connect 25 0 1 0;#P connect 9 0 11 0;#P connect 11 0 12 0;#P fasten 4 1 3 1 610 298 281 298;#P connect 8 0 7 0;#P fasten 32 0 7 0 735 472 283 472;#P connect 14 0 10 0;#P fasten 10 0 11 1 296 192 296 192;#P connect 2 0 14 0;#P connect 14 1 16 0;#P connect 16 0 20 0;#P connect 20 0 22 0;#P connect 14 1 15 0;#P connect 15 0 19 0;#P connect 19 0 21 0;#P connect 2 0 4 0;#P connect 28 0 30 0;#P connect 27 0 32 0;#P connect 29 0 31 0;#P pop;#P newobj 22 216 53 196617 p draw;#P outlet 77 468 15 0;#N comlet to lcd;#P outlet 22 468 15 0;#P newex 229 271 57 196617 t b getsize;#P newex 191 185 87 196617 route size update;#N comlet lcd 4;#P inlet 191 59 15 0;#N comlet lcd 3;#P inlet 153 59 15 0;#N comlet lcd 2;#P inlet 115 59 15 0;#N comlet lcd 1;#P inlet 77 59 15 0;#P comment 522 39 79 196617 float \, set \, bang;#P comment 17 491 100 196617 to lcd;#P fasten 2 0 10 0 82 92 27 92;#P connect 10 0 8 0;#P connect 18 0 8 0;#P fasten 7 1 8 0 281 316 27 316;#P fasten 14 0 10 1 517 143 34 143;#P fasten 16 0 10 2 263 131 41 131;#P fasten 6 0 10 3 196 204 48 204;#P fasten 27 0 10 4 367 150 55 150;#P fasten 26 0 10 5 411 156 62 156;#P fasten 31 0 10 6 466 162 69 162;#P connect 2 0 11 0;#P fasten 38 0 15 0 604 392 82 392;#P connect 11 0 15 0;#P connect 15 0 9 0;#P fasten 6 0 11 1 196 209 114 209;#P connect 5 0 6 0;#P connect 33 0 35 0;#P connect 6 1 7 0;#P connect 32 0 33 0;#P connect 34 0 32 0;#P connect 17 0 18 0;#P connect 13 1 14 0;#P connect 13 0 14 0;#P connect 7 0 14 0;#P connect 12 0 37 0;#P connect 37 1 13 0;#P connect 13 1 38 0;#P connect 37 0 38 0;#P connect 13 0 38 1;#P pop;#P hidden newobj 0 152 79 196617 p;#P user lcd 0 0 150 14 0 0 0 1 0;#P hidden fasten 1 0 0 0 5 173 -8 173 -8 -6 5 -6;#P hidden connect 0 0 1 0;#P hidden fasten 0 1 1 1 51 23 12 23;#P hidden fasten 0 2 1 2 97 30 19 30;#P hidden fasten 0 3 1 3 143 37 26 37;#P hidden fasten 3 0 1 4 263 124 33 124;#P hidden fasten 3 1 1 5 291 129 40 129;#P hidden fasten 3 2 1 6 319 134 47 134;#P hidden fasten 3 3 1 7 347 139 54 139;#P hidden fasten 3 4 1 8 375 142 61 142;#P hidden fasten 3 5 1 9 403 146 68 146;#P hidden connect 1 1 2 0;#P hidden connect 4 0 3 0;#P hidden fasten 5 0 3 0 288 79 263 79;#P hidden fasten 6 4 3 0 488 93 263 93;#P hidden fasten 6 3 3 0 457 93 263 93;#P hidden fasten 6 2 3 0 426 93 263 93;#P hidden fasten 6 0 3 0 364 93 263 93;#P hidden fasten 6 1 3 0 395 93 263 93;#P hidden fasten 6 5 3 0 519 93 263 93;#P hidden fasten 5 1 6 0 554 64 364 64;#P pop;