max v2;
#N vpatcher 66 45 796 705;
#P window setfont "Sans Serif" 9.;
#P window linecount 1;
#N vpatcher 0 44 475 546;
#P origin 56 0;
#P window setfont "Sans Serif" 9.;
#P window linecount 1;
#N vpatcher 20 74 620 516;
#P window setfont "Sans Serif" 9.;
#P message 281 253 92 196617 current_state n/a;
#P outlet 50 374 15 0;
#P inlet 50 59 15 0;
#P newex 50 98 315 196617 t b description repetitions ramp clipmode range type bang bang bang;
#N vpatcher 40 104 432 358;
#P window setfont "Sans Serif" 9.;
#P newex 50 120 36 196617 zl reg;
#P newex 76 95 104 196617 route MODULE_TITLE;
#P newex 76 74 94 196617 r $1_FROM_MHUB;
#P newex 50 50 154 196617 t b $2;
#P newex 50 145 154 196617 sprintf %s%s/dec;
#P inlet 50 30 15 0;
#P outlet 50 167 15 0;
#P connect 1 0 3 0;
#P connect 3 0 6 0;
#P connect 6 0 2 0;
#P connect 2 0 0 0;
#P connect 4 0 5 0;
#P connect 5 0 6 1;
#P connect 3 1 2 1;
#P pop;
#P newobj 347 177 84 196617 p /module/name;
#P newex 50 337 67 196617 zl group 256;
#P message 314 216 120 196617 kind message;
#P newex 83 186 79 196617 prepend symbol;
#N coll $0_dec 1;
#T flags 1 0;
#T store repetitions repetitions 1;
#T store ramp ramp 0;
#T store clipmode clipmode none;
#T store range range N/A;
#T store type type generic;
#T store description description Increase gain MIDI value by one.;
#P newobj 83 223 180 196617 coll $0_dec 1;
#P connect 6 0 5 0;
#P connect 5 0 3 0;
#P fasten 2 0 3 0 319 316 55 316;
#P fasten 4 0 3 0 352 316 55 316;
#P fasten 8 0 3 0 286 316 55 316;
#P fasten 0 0 3 0 88 316 55 316;
#P connect 3 0 7 0;
#P connect 5 1 1 0;
#P lcolor 13;
#P connect 5 2 1 0;
#P lcolor 13;
#P connect 5 3 1 0;
#P lcolor 13;
#P connect 5 4 1 0;
#P lcolor 13;
#P connect 5 5 1 0;
#P lcolor 13;
#P connect 5 6 1 0;
#P lcolor 13;
#P connect 1 0 0 0;
#P connect 5 7 8 0;
#P connect 5 8 2 0;
#P connect 5 9 4 0;
#P pop;
#P newobj 57 144 150 196617 p namespace_browse_gain_dec;
#N vpatcher 20 74 620 516;
#P window setfont "Sans Serif" 9.;
#P message 281 253 92 196617 current_state n/a;
#P outlet 50 374 15 0;
#P inlet 50 59 15 0;
#P newex 50 98 315 196617 t b description repetitions ramp clipmode range type bang bang bang;
#N vpatcher 40 104 432 358;
#P window setfont "Sans Serif" 9.;
#P newex 50 120 36 196617 zl reg;
#P newex 76 95 104 196617 route MODULE_TITLE;
#P newex 76 74 94 196617 r $1_FROM_MHUB;
#P newex 50 50 154 196617 t b $2;
#P newex 50 145 154 196617 sprintf %s%s/inc;
#P inlet 50 30 15 0;
#P outlet 50 167 15 0;
#P connect 1 0 3 0;
#P connect 3 0 6 0;
#P connect 6 0 2 0;
#P connect 2 0 0 0;
#P connect 4 0 5 0;
#P connect 5 0 6 1;
#P connect 3 1 2 1;
#P pop;
#P newobj 347 177 84 196617 p /module/name;
#P newex 50 337 67 196617 zl group 256;
#P message 314 216 120 196617 kind message;
#P newex 83 186 79 196617 prepend symbol;
#N coll $0_inc 1;
#T flags 1 0;
#T store repetitions repetitions 1;
#T store ramp ramp 0;
#T store clipmode clipmode none;
#T store range range N/A;
#T store type type generic;
#T store description description Decrease gain MIDI value by one.;
#P newobj 83 223 181 196617 coll $0_inc 1;
#P connect 6 0 5 0;
#P fasten 8 0 3 0 286 316 55 316;
#P fasten 4 0 3 0 352 316 55 316;
#P fasten 2 0 3 0 319 316 55 316;
#P connect 5 0 3 0;
#P fasten 0 0 3 0 88 316 55 316;
#P connect 3 0 7 0;
#P connect 5 6 1 0;
#P lcolor 13;
#P connect 5 5 1 0;
#P lcolor 13;
#P connect 5 4 1 0;
#P lcolor 13;
#P connect 5 3 1 0;
#P lcolor 13;
#P connect 5 2 1 0;
#P lcolor 13;
#P connect 5 1 1 0;
#P lcolor 13;
#P connect 1 0 0 0;
#P connect 5 7 8 0;
#P connect 5 8 2 0;
#P connect 5 9 4 0;
#P pop;
#P newobj 103 179 148 196617 p namespace_browse_gain_inc;
#N vpatcher 20 74 620 516;
#P window setfont "Sans Serif" 9.;
#P message 281 253 92 196617 current_state n/a;
#P outlet 50 374 15 0;
#P inlet 50 59 15 0;
#P newex 50 98 315 196617 t b description repetitions ramp clipmode range type bang bang bang;
#N vpatcher 40 104 432 358;
#P window setfont "Sans Serif" 9.;
#P newex 50 120 36 196617 zl reg;
#P newex 76 95 104 196617 route MODULE_TITLE;
#P newex 76 74 94 196617 r $1_FROM_MHUB;
#P newex 50 50 154 196617 t b $2;
#P newex 50 145 154 196617 sprintf %s%s;
#P inlet 50 30 15 0;
#P outlet 50 167 15 0;
#P connect 1 0 3 0;
#P connect 3 0 6 0;
#P connect 6 0 2 0;
#P connect 2 0 0 0;
#P connect 4 0 5 0;
#P connect 5 0 6 1;
#P connect 3 1 2 1;
#P pop;
#P newobj 347 177 84 196617 p /module/name;
#P newex 50 337 67 196617 zl group 256;
#P message 314 216 120 196617 kind message;
#P newex 83 186 79 196617 prepend symbol;
#N coll $0_dB 1;
#T flags 1 0;
#T store repetitions repetitions 1;
#T store ramp ramp 1;
#T store clipmode clipmode none;
#T store range range -144 0;
#T store type type msg_float;
#T store description description Set gain as dB value.;
#P newobj 83 223 185 196617 coll $0_dB 1;
#P connect 6 0 5 0;
#P connect 5 0 3 0;
#P fasten 2 0 3 0 319 316 55 316;
#P fasten 4 0 3 0 352 316 55 316;
#P fasten 0 0 3 0 88 316 55 316;
#P fasten 8 0 3 0 286 316 55 316;
#P connect 3 0 7 0;
#P connect 5 1 1 0;
#P lcolor 13;
#P connect 5 2 1 0;
#P lcolor 13;
#P connect 5 3 1 0;
#P lcolor 13;
#P connect 5 4 1 0;
#P lcolor 13;
#P connect 5 5 1 0;
#P lcolor 13;
#P connect 5 6 1 0;
#P lcolor 13;
#P connect 1 0 0 0;
#P connect 5 7 8 0;
#P connect 5 8 2 0;
#P connect 5 9 4 0;
#P pop;
#P newobj 160 212 146 196617 p namespace_browse_gain_dB;
#P newex 57 370 166 196617 s jmod.remote.namespace.register;
#P newex 57 57 162 196617 r jmod.remote.namespace.browse;
#P window linecount 0;
#N vpatcher 20 74 620 516;
#P outlet 50 374 15 0;
#P inlet 50 59 15 0;
#P window setfont "Sans Serif" 9.;
#N vpatcher 10 59 610 459;
#P window setfont "Sans Serif" 9.;
#P newex 50 135 30 196617 t b b;
#P newex 50 199 111 196617 prepend current_state;
#P newex 50 172 36 196617 zl reg;
#P inlet 50 30 15 0;
#P inlet 201 30 15 0;
#P outlet 50 256 15 0;
#P outlet 253 239 15 0;
#P connect 3 0 6 0;
#P connect 6 0 4 0;
#P connect 4 0 5 0;
#P connect 5 0 1 0;
#P fasten 2 0 4 1 206 167 81 167;
#P fasten 6 1 0 0 75 157 258 157;
#P pop;
#P newobj 281 168 81 196617 p current_state;
#P newex 50 98 315 196617 t b description repetitions ramp clipmode range type bang bang bang;
#N vpatcher 40 104 432 358;
#P window setfont "Sans Serif" 9.;
#P newex 50 120 36 196617 zl reg;
#P newex 76 95 104 196617 route MODULE_TITLE;
#P newex 76 74 94 196617 r $1_FROM_MHUB;
#P newex 50 50 154 196617 t b $2;
#P newex 50 145 154 196617 sprintf %s%s/midi;
#P inlet 50 30 15 0;
#P outlet 50 167 15 0;
#P connect 1 0 3 0;
#P connect 3 0 6 0;
#P connect 6 0 2 0;
#P connect 2 0 0 0;
#P connect 4 0 5 0;
#P connect 5 0 6 1;
#P connect 3 1 2 1;
#P pop;
#P newobj 347 231 84 196617 p /module/name;
#P newex 50 337 67 196617 zl group 256;
#P message 314 270 138 196617 kind parameter;
#P newex 83 186 79 196617 prepend symbol;
#N coll $0_midi 1;
#T flags 1 0;
#T store repetitions repetitions 1;
#T store ramp ramp 1;
#T store clipmode clipmode both;
#T store range range 0 158;
#T store type type msg_float;
#T store description description Set gain as MIDI value.;
#P newobj 83 223 178 196617 coll $0_midi 1;
#P inlet 489 59 15 0;
#P outlet 489 374 15 0;
#P connect 9 0 7 0;
#P fasten 8 0 5 0 286 316 55 316;
#P fasten 6 0 5 0 352 316 55 316;
#P fasten 4 0 5 0 319 316 55 316;
#P connect 7 0 5 0;
#P fasten 2 0 5 0 88 316 55 316;
#P connect 5 0 10 0;
#P connect 7 6 3 0;
#P lcolor 13;
#P connect 7 5 3 0;
#P lcolor 13;
#P connect 7 4 3 0;
#P lcolor 13;
#P connect 7 3 3 0;
#P lcolor 13;
#P connect 7 2 3 0;
#P lcolor 13;
#P connect 7 1 3 0;
#P lcolor 13;
#P connect 3 0 2 0;
#P connect 7 7 8 0;
#P connect 7 8 4 0;
#P connect 7 9 6 0;
#P fasten 1 0 8 1 494 148 357 148;
#P fasten 8 1 0 0 357 197 494 197;
#P pop;
#P newobj 252 256 154 196617 p namespace_browse_gain_midi;
#P outlet 396 422 15 0;
#P inlet 396 31 15 0;
#P connect 3 0 7 0;
#P connect 2 0 4 0;
#P connect 5 0 4 0;
#P connect 6 0 4 0;
#P connect 7 0 4 0;
#P connect 3 0 6 0;
#P connect 3 0 5 0;
#P connect 3 0 2 0;
#P connect 0 0 2 1;
#P connect 2 1 1 0;
#P pop;
#P newobj 178 464 105 196617 p namespace_browse;
#N vpatcher 389 111 989 511;
#P window setfont "Sans Serif" 9.;
#P window linecount 1;
#P newex 266 130 54 196617 jmod.thru;
#P newex 194 130 54 196617 jmod.thru;
#P newex 122 130 54 196617 jmod.thru;
#P newex 50 130 54 196617 jmod.thru;
#N vpatcher 357 194 1249 486;
#P outlet 678 205 15 0;
#P window setfont "Sans Serif" 9.;
#P newex 678 176 44 196617 receive;
#P outlet 466 205 15 0;
#P newex 466 176 44 196617 receive;
#P outlet 254 205 15 0;
#P newex 254 176 44 196617 receive;
#P outlet 42 205 15 0;
#P newex 42 176 44 196617 receive;
#P newex 146 82 115 196617 t $2;
#P newex 42 49 158 196617 r $1_name;
#P newex 678 152 163 196617 sprintf set /jmod_to%s%s;
#P newex 466 152 184 196617 sprintf set /jmod_to%s%s/dec;
#P newex 254 152 182 196617 sprintf set /jmod_to%s%s/inc;
#P newex 42 152 188 196617 sprintf set /jmod_to%s%s/midi;
#P fasten 4 0 0 0 47 138 47 138;
#P connect 0 0 6 0;
#P connect 6 0 7 0;
#P fasten 4 0 5 0 47 73 151 73;
#P fasten 5 0 0 1 151 108 225 108;
#P fasten 4 0 1 0 47 138 259 138;
#P connect 1 0 8 0;
#P connect 8 0 9 0;
#P fasten 5 0 1 1 151 108 431 108;
#P fasten 4 0 2 0 47 138 471 138;
#P connect 2 0 10 0;
#P connect 10 0 11 0;
#P fasten 5 0 2 1 151 108 645 108;
#P fasten 4 0 3 0 47 138 683 138;
#P connect 3 0 12 0;
#P connect 12 0 13 0;
#P fasten 5 0 3 1 151 108 836 108;
#P pop;
#P newobj 282 92 90 196617 p remote_receive;
#P newex 50 92 228 196617 jmod.oscroute /midi /inc /dec;
#P newex 50 70 90 196617 jmod.oscroute $2;
#P newex 50 50 139 196617 receive $1_instruction;
#P newex 266 218 73 196617 pack 0. 0.;
#P newex 342 173 21 196617 t 0;
#P newex 266 173 73 196617 unpack 0. 0;
#N vpatcher 10 59 410 359;
#P window setfont "Sans Serif" 9.;
#P newex 144 85 64 196617 expr ($f1 * (10./6.)) + 127;
#B color 3;
#P comment 212 91 80 196617 decibels to midi conversion;
#P outlet 144 145 15 0;
#P inlet 144 36 15 0;
#P connect 0 0 3 0;
#P connect 3 0 1 0;
#P pop;
#P newobj 266 196 65 196617 p db_to_midi;
#P newex 194 166 26 196617 t -1;
#P newex 122 166 21 196617 t 1;
#P outlet 122 290 15 0;
#P outlet 50 290 15 0;
#P connect 8 0 9 0;
#P connect 9 0 10 0;
#P fasten 11 0 12 0 287 118 55 118;
#P connect 10 0 12 0;
#P connect 12 0 0 0;
#P connect 7 0 0 0;
#P fasten 11 1 13 0 313 120 127 120;
#P connect 10 1 13 0;
#P connect 13 0 2 0;
#P connect 2 0 1 0;
#P connect 3 0 1 0;
#P fasten 11 2 14 0 339 122 199 122;
#P connect 10 2 14 0;
#P connect 14 0 3 0;
#P fasten 11 3 15 0 365 124 271 124;
#P connect 10 3 15 0;
#P connect 15 0 5 0;
#P connect 5 0 4 0;
#P connect 4 0 7 0;
#P connect 6 0 7 1;
#P connect 5 1 7 1;
#P fasten 15 0 6 0 271 156 347 156;
#P pop;
#P newobj 145 279 78 196617 p remote_stuff;
#P newex 85 464 86 196617 r $1_pattr_bang;
#P window linecount 2;
#P comment 84 431 175 196617 Force output from pattr if jmod.cuelist queries current state.;
#P window linecount 1;
#P newex 136 560 86 196617 prepend $2/midi;
#P newex 136 582 150 196617 s $1_parameter;
#P newex 68 538 180 196617 jmod.freeze_display.mxt $1 $2/midi;
#N vpatcher 46 172 939 742;
#P origin 0 5;
#P window setfont "Sans Serif" 9.;
#P window linecount 1;
#P newex 463 86 289 196617 jmod.oscroute /midi /inc /dec;
#P window linecount 0;
#P newex 463 63 90 196617 jmod.oscroute $2;
#P window linecount 2;
#P newex 649 115 68 196617 t b 3 $2/dec message;
#P window linecount 1;
#N coll $0_dec 1;
#T flags 1 0;
#T store repetitions repetitions 1;
#T store ramp ramp 0;
#T store clipmode clipmode none;
#T store range range N/A;
#T store type type generic;
#T store description description Increase gain MIDI value by one.;
#P newobj 448 402 72 196617 coll $0_dec 1;
#P newex 53 255 274 196617 sprintf store description description Set %s as MIDI value.;
#P newex 73 229 319 196617 sprintf store description description Decrease %s MIDI value by one.;
#P newex 93 203 315 196617 sprintf store description description Increase %s MIDI value by one.;
#P window linecount 0;
#P newex 53 113 50 196617 tosymbol;
#P newex 113 177 265 196617 sprintf store description description Set %s as dB value.;
#P newex 420 281 53 196617 gate 4;
#P window linecount 2;
#P newex 556 115 66 196617 t b 2 $2/inc message;
#P window linecount 1;
#P newex 804 218 65 196617 prepend kind;
#P window linecount 0;
#N coll $0_inc 1;
#T flags 1 0;
#T store repetitions repetitions 1;
#T store ramp ramp 0;
#T store clipmode clipmode none;
#T store range range N/A;
#T store type type generic;
#T store description description Decrease gain MIDI value by one.;
#P newobj 434 440 69 196617 coll $0_inc 1;
#P window linecount 1;
#N coll $0_dB 1;
#T flags 1 0;
#T store repetitions repetitions 1;
#T store ramp ramp 1;
#T store clipmode clipmode none;
#T store range range -144 0;
#T store type type msg_float;
#T store description description Set gain as dB value.;
#P newobj 462 365 68 196617 coll $0_dB 1;
#P window linecount 0;
#N coll $0_midi 1;
#T flags 1 0;
#T store repetitions repetitions 1;
#T store ramp ramp 1;
#T store clipmode clipmode both;
#T store range range 0 158;
#T store type type msg_float;
#T store description description Set gain as MIDI value.;
#P newobj 420 477 76 196617 coll $0_midi 1;
#P window linecount 1;
#P newex 719 218 70 196617 prepend name;
#P window linecount 2;
#P newex 463 115 81 196617 t b 1 $2/midi parameter;
#P window linecount 0;
#P newex 742 115 47 196617 t b 4 $2 message;
#P newex 463 258 79 196617 prepend symbol;
#P newex 463 218 235 196617 t description repetitions ramp clipmode range type;
#P window linecount 1;
#P newex 558 515 109 196617 send $1_register_doc;
#P newex 463 35 112 196617 receive $1_query_doc;
#P window linecount 0;
#P newex 53 84 85 196617 route description;
#P inlet 53 52 15 0;
#P connect 0 0 1 0;
#P connect 1 0 16 0;
#P connect 16 0 19 0;
#P connect 16 0 18 0;
#P connect 16 0 17 0;
#P connect 16 0 15 0;
#P fasten 7 1 14 0 491 181 425 181;
#P lcolor 14;
#P fasten 13 1 14 0 579 181 425 181;
#P lcolor 14;
#P fasten 21 1 14 0 673 181 425 181;
#P lcolor 14;
#P fasten 6 1 14 0 759 181 425 181;
#P lcolor 14;
#P connect 14 0 9 0;
#P connect 19 0 9 0;
#P lcolor 1;
#P connect 18 0 11 0;
#P lcolor 1;
#P connect 14 1 11 0;
#P connect 17 0 20 0;
#P lcolor 1;
#P connect 14 2 20 0;
#P connect 14 3 10 0;
#P connect 15 0 10 0;
#P lcolor 1;
#P connect 2 0 22 0;
#P connect 22 0 23 0;
#P connect 23 0 7 0;
#P connect 7 0 4 0;
#P lcolor 13;
#P fasten 13 0 4 0 561 192 468 192;
#P lcolor 13;
#P fasten 21 0 4 0 654 192 468 192;
#P lcolor 13;
#P fasten 6 0 4 0 747 192 468 192;
#P lcolor 13;
#P fasten 4 0 5 0 468 248 468 248;
#P fasten 4 1 5 0 513 248 468 248;
#P fasten 4 2 5 0 558 248 468 248;
#P fasten 4 3 5 0 603 248 468 248;
#P fasten 4 4 5 0 648 248 468 248;
#P fasten 4 5 5 0 693 248 468 248;
#P connect 5 0 14 1;
#P connect 23 1 13 0;
#P fasten 8 0 3 0 724 272 563 272;
#P fasten 20 0 3 0 453 423 563 423;
#P fasten 12 0 3 0 809 272 563 272;
#P fasten 11 0 3 0 439 462 563 462;
#P fasten 10 0 3 0 467 386 563 386;
#P fasten 9 0 3 0 425 499 563 499;
#P connect 23 2 21 0;
#P fasten 7 2 8 0 514 169 724 169;
#P lcolor 8;
#P fasten 13 2 8 0 597 169 724 169;
#P lcolor 8;
#P fasten 21 2 8 0 692 169 724 169;
#P lcolor 8;
#P fasten 6 2 8 0 771 169 724 169;
#P lcolor 8;
#P connect 23 3 6 0;
#P fasten 7 3 12 0 537 156 809 156;
#P lcolor 2;
#P fasten 13 3 12 0 615 156 809 156;
#P lcolor 2;
#P fasten 21 3 12 0 711 156 809 156;
#P lcolor 2;
#P fasten 6 3 12 0 783 156 809 156;
#P lcolor 2;
#P pop;
#P newobj 578 566 81 196617 p documentation;
#P newex 443 535 145 196617 patcherargs @description gain;
#P window linecount 4;
#P comment 45 172 395 196617 For this component to work properly \, you have to avoid output from being fed back to the inlet \, else the output will kill any ongoing ramp. If jmod.parameter.gain outlet/inlet is connected to a GUI inlet/outlet \, use the "set" mesage for updating GUI display when jmod.parameter.gain value change.;
#P window linecount 1;
#P comment 45 157 395 196617 IMPORTANT:;
#P newex 443 467 137 196617 send $1_register;
#P message 443 426 224 196617 $2 \, $2/midi \, $2/inc \, $2/dec;
#P newex 443 404 140 196617 receive $1_query;
#P newex 68 567 59 196617 jmod.round;
#P comment 85 250 100 196617 Connect to GUI outlet;
#P comment 84 609 208 196617 Prepend "set" and connect to GUI inlet;
#P comment 45 85 311 196617 - $2/dec: decrease MIDI gain value by one;
#P comment 45 72 311 196617 - $2/inc: increase MIDI gain value by one;
#P comment 45 59 311 196617 - $2/midi: gain as MIDI values;
#N comlet Prepend "set" and connect to GUI inlet;
#P outlet 68 608 15 0;
#N comlet Connect to GUI outlet;
#P inlet 68 249 15 0;
#P newex 135 393 103 196617 loadmess -2000000.;
#P newex 68 393 64 196617 jmod.change;
#P newex 68 486 147 196617 pattr $2/midi @autorestore 0;
#X prestore 1 0 0;
#P objectname $2/midi;
#P newex 68 368 71 196617 jmod.line.mxt;
#P newex 213 325 27 196617 +;
#P comment 45 31 311 196617 Component for dealing with gain parameters. Incorporates;
#P comment 45 46 311 196617 - $2: gain as dB values;
#P window linecount 3;
#P comment 45 112 395 196617 jmod.parameter.gain is special in the sense that gain levels can be adjusted using various messages \, or by a GUI. All kinds of messages are mapped to MIDI values internally \, so that they can all be dealt with by the same "jmod.line.mxt".;
#P window linecount 2;
#P comment 443 492 146 196617 Required for registering the messages as valid syntax.;
#P fasten 4 0 5 0 218 349 73 349;
#P connect 9 0 5 0;
#P fasten 29 0 5 0 150 310 73 310;
#P connect 5 0 7 0;
#P fasten 30 0 6 0 183 483 73 483;
#P connect 7 0 6 0;
#P fasten 28 0 6 0 90 483 73 483;
#P connect 6 0 24 0;
#P connect 24 0 16 0;
#P connect 16 0 10 0;
#P connect 8 0 7 1;
#P fasten 6 0 5 1 73 523 306 523 306 363 134 363;
#P fasten 24 0 26 0 73 557 141 557;
#P connect 26 0 25 0;
#P fasten 6 0 30 0 73 509 289 509 289 458 183 458;
#P connect 29 1 4 0;
#P fasten 6 0 4 1 73 526 398 526 398 320 235 320;
#P connect 17 0 18 0;
#P connect 18 0 19 0;
#P connect 22 1 23 0;
#P pop;
