max v2;
#N vpatcher 28 58 726 539;
#P toggle 492 139 15 0;
#P toggle 505 202 15 0;
#P window setfont "Sans Serif" 9.;
#P newex 400 139 84 196617 pvar MuteToggle;
#P newex 400 203 94 196617 pvar BypassToggle;
#P newex 400 113 30 196617 == 0;
#P newex 400 94 140 196617 jmod.message.mxt $1 enable;
#B color 1;
#P objectname jmod.parameter[2];
#P newex 400 226 152 196617 jmod.parameter.mxt $1 bypass;
#B color 1;
#P objectname jmod.parameter[1];
#P newex 400 159 143 196617 jmod.parameter.mxt $1 mute;
#B color 1;
#P objectname jmod.parameter;
#P message 215 294 45 196617 set \$1 0;
#P user jmod.meter~ 85 4 82 5;
#P number 306 314 35 9 0 0 0 3 0 0 0 74 156 97 222 222 222 0 0 0;
#P newex 215 313 89 196617 pvar gain_master;
#B color 7;
#P newex 215 334 160 196617 jmod.parameter.gain.mxt $1 gain;
#B color 2;
#P objectname jmod.parameter.gain.mxt;
#P hidden newex 76 161 103 196617 route MODULE_TITLE;
#P hidden newex 76 141 93 196617 r $1_FROM_MHUB;
#P hidden newex 76 181 90 196617 prepend setitem 0;
#P user umenu 13 2 73 196644 3 64 18 0;
#X setrgb 165 165 165 221 221 221 255 255 255 221 221 221 170 170 170 119 119 119 187 187 187;
#X add $2;
#P hidden newex 70 346 90 196617 s $1_FROM_MGUI;
#P hidden newex 84 114 185 196617 jmod.parameter.mxt $1 defeat_meters;
#B color 1;
#P objectname jmod.parameter[6];
#P newex 293 29 27 196617 - 2;
#P newex 293 76 88 196617 jmod.core.sr.mxt;
#P newex 293 48 131 196617 jmod.parameter.mxt $1 sr;
#B color 1;
#P objectname jmod.parameter[5];
#P user pictctrl 170 4 9 9 jmod.button.bypass.pct 0 0 1 1 26 0 0 0 11 11 128 0 1 1 1 0;
#P objectname BypassToggle;
#P user pictslider 84 10 84 8 0 0 0 0 jmod.slider.knob.gain.pct 1 jmod.slider.bg.gain.pct 1 2113 0 0 157 1. 1.;
#P objectname gain_master;
#P bpatcher 0 0 16 16 0 0 jmod.menu.a.mxt 0 $1;
#P hidden user hint 567 63 611 143 "Output Gain: notches are at -42dB\, -18dB\, -6dB\, and 0dB" 1000 100 0 65535 65535 52428 9 3 0 1 0 0 0;
#P hidden user hint 545 48 606 64 "Use arrows to change the sample rate for this module - you must restart the DSP for it to take effect" 1000 100 0 65535 65535 52428 9 3 0 1 0 0 0;
#P hidden newex 27 104 29 196617 == 0;
#P comment 453 410 54 196617 Processed AUDIO;
#P comment 390 411 62 196617 RAW AUDIO;
#P newex 410 371 135 196617 jmod.core.bypass.mono.mxt;
#P newex 293 8 119 196617 jmod.incdec.handler.mxt;
#P user pictctrl 244 9 8 5 jmod.button.incdec-down.pct 0 0 1 0 26 0 0 0 8 4 128 0 1 1 1 0;
#P user pictctrl 244 3 8 5 jmod.button.indec-up.pct 0 0 1 0 26 0 0 0 8 4 128 0 1 1 1 0;
#N comlet RAW Audio In - left;
#P outlet 410 395 13 0;
#N comlet (signal) in left - RAW;
#P inlet 424 351 13 0;
#P comment 388 337 62 196617 RAW AUDIO;
#P user umenu 204 2 43 196644 3 64 18 0;
#X setrgb 132 132 132 221 221 221 255 255 255 221 221 221 170 170 170 119 119 119 187 187 187;
#X add 11025;
#X add 22050;
#X add 44100;
#X add 88200;
#X add 176400;
#P user pictctrl 182 4 9 9 jmod.button.mute.pct 0 0 1 1 26 0 0 0 11 11 128 0 1 1 1 0;
#P objectname MuteToggle;
#N comlet (signal) out left;
#P outlet 458 395 13 0;
#N comlet (signal) in left - COOKED;
#P inlet 452 351 13 0;
#P comment 452 336 88 196617 Processed AUDIO;
#P user hint 606 12 619 24 "Turns off/on this module" 1000 100 0 65535 65535 52428 9 3 0 1 0 0 0;
#P user hint 622 12 635 24 "Bypass this module's processing (does not free up CPU)" 1000 100 0 65535 65535 52428 9 3 0 1 0 0 0;
#P user pictctrl 0 0 255 61 jmod.bg-1h.a.pct 0 0 1 0 24 0 0 0 255 61 2 0 1 1 1 0;
#P noclick;
#P hidden connect 26 0 20 1;
#P hidden connect 29 0 28 0;
#P hidden connect 20 1 17 0;
#P hidden connect 30 0 31 0;
#P hidden connect 31 0 29 0;
#P hidden connect 20 1 26 0;
#P hidden connect 14 1 35 0;
#P hidden connect 17 0 35 0;
#P hidden connect 24 0 7 0;
#P hidden connect 13 0 7 0;
#P fasten 32 0 36 0 220 355 209 355 209 288 220 288;
#P connect 36 0 33 0;
#P connect 33 0 32 0;
#P hidden connect 11 0 13 0;
#P hidden connect 7 0 25 0;
#P connect 25 0 23 0;
#P fasten 23 1 24 0 419 70 298 70;
#P connect 33 0 34 0;
#P hidden connect 12 0 13 1;
#P connect 39 0 40 0;
#P fasten 37 0 42 0 405 179 392 179 392 134 405 134;
#P connect 40 0 42 0;
#P connect 42 0 37 0;
#P fasten 38 0 41 0 405 247 392 247 392 198 405 198;
#P connect 41 0 38 0;
#P hidden connect 7 0 13 2;
#P lcolor 3;
#P fasten 32 0 14 0 220 364 415 364;
#P connect 14 0 10 0;
#P lcolor 6;
#P connect 9 0 14 1;
#P lcolor 6;
#P connect 14 1 5 0;
#P connect 42 0 44 0;
#P connect 4 0 14 2;
#P lcolor 6;
#P connect 41 0 43 0;
#P connect 38 1 14 3;
#P pop;
