max v2;
#N vpatcher 19 243 829 630;
#P bpatcher 345 2 163 16 0 -190 jmod.gui.audio-component.mxt 0 $1 2;
#P objectname controls;
#P window setfont "Sans Serif" 9.;
#P hidden newex 277 300 22 196617 b 1;
#N thispatcher;
#Q end;
#P hidden newobj 256 345 60 196617 thispatcher;
#P hidden newex 256 324 143 196617 js jmod.gui.constructor.js $1;
#P hidden newex 155 273 277 196617 route MODULE_TITLE ATTRIBUTES BUILD;
#P hidden newex 155 253 93 196617 r $1_FROM_MHUB;
#P hidden newex 155 293 90 196617 prepend setitem 0;
#P user umenu 13 2 226 196644 3 64 18 0;
#X setrgb 165 165 165 221 221 221 255 255 255 221 221 221 170 170 170 119 119 119 187 187 187;
#X add jmod.degrade~;
#P hidden newex 287 172 185 196617 jmod.parameter.mxt $1 defeat_meters;
#B color 1;
#P objectname jmod.parameter[6];
#P hidden comment 424 108 54 196617 Processed AUDIO;
#P hidden comment 361 109 62 196617 RAW AUDIO;
#N comlet RAW Audio In - right;
#P hidden outlet 405 93 13 0;
#N comlet RAW Audio In - left;
#P hidden outlet 381 93 13 0;
#N comlet (signal) in right - RAW;
#P hidden inlet 676 65 13 0;
#N comlet (signal) in left - RAW;
#P hidden inlet 662 65 13 0;
#P hidden comment 626 51 62 196617 RAW AUDIO;
#N comlet (signal) out left;
#P hidden outlet 429 93 13 0;
#N comlet (signal) out right;
#P hidden outlet 453 93 13 0;
#N comlet (signal) in right - COOKED;
#P hidden inlet 704 65 13 0;
#N comlet (signal) in left - COOKED;
#P hidden inlet 690 65 13 0;
#P hidden comment 690 50 88 196617 Processed AUDIO;
#P hidden newex 27 104 29 196617 == 0;
#P bpatcher 0 0 16 16 0 0 jmod.menu.a.mxt 0 $1;
#P objectname menu;
#P user pictctrl 0 0 510 61 jmod.bg.metal.black.1U.pct 0 0 1 0 24 0 0 0 510 61 2 0 1 1 1 1;
#P noclick;
#P objectname background;
#P hidden connect 20 1 0 0;
#P hidden connect 15 0 1 1;
#P hidden connect 17 0 16 0;
#P hidden connect 1 1 2 0;
#P hidden connect 18 0 19 0;
#P hidden connect 19 0 17 0;
#P hidden connect 19 1 20 0;
#P hidden connect 22 0 20 0;
#P hidden connect 20 0 21 0;
#P hidden connect 19 2 22 0;
#P hidden connect 1 1 15 0;
#P hidden connect 9 0 23 0;
#P hidden connect 23 0 11 0;
#P hidden connect 10 0 23 1;
#P hidden connect 23 1 12 0;
#P hidden connect 23 2 7 0;
#P hidden connect 4 0 23 2;
#P hidden connect 23 3 6 0;
#P hidden connect 5 0 23 3;
#P pop;
