max v2;
#N vpatcher -2 70 1024 743;
#P window setfont "Sans Serif" 9.;
#N thispatcher;
#Q end;
#P hidden newobj 21 505 60 196617 thispatcher;
#P objectname jmod.parameter.mxt[4];
#P hidden newex 165 408 48 196617 route int;
#P hidden newex 228 434 24 196617 jmod.thru~.mxt;
#P objectname tap_thru_2;
#P hidden inlet 228 384 15 0;
#P objectname inlet_2;
#P hidden outlet 228 584 15 0;
#P objectname outlet_2;
#P hidden newex 278 434 24 196617 jmod.thru~.mxt;
#P objectname tap_thru_4;
#P hidden inlet 278 384 15 0;
#P objectname inlet_4;
#P hidden outlet 278 584 15 0;
#P objectname outlet_4;
#P hidden newex 203 434 24 196617 jmod.thru~.mxt;
#P objectname tap_thru_1;
#P hidden inlet 328 384 15 0;
#P objectname inlet_6;
#P hidden outlet 328 584 15 0;
#P objectname outlet_6;
#P hidden newex 253 434 24 196617 jmod.thru~.mxt;
#P objectname tap_thru_3;
#P hidden inlet 378 384 15 0;
#P objectname inlet_8;
#P hidden outlet 378 584 15 0;
#P objectname outlet_8;
#P hidden newex 428 434 24 196617 jmod.thru~.mxt;
#P objectname tap_thru_10;
#P hidden inlet 428 384 15 0;
#P objectname inlet_10;
#P hidden outlet 428 584 15 0;
#P objectname outlet_10;
#P hidden newex 478 434 24 196617 jmod.thru~.mxt;
#P objectname tap_thru_12;
#P hidden inlet 478 384 15 0;
#P objectname inlet_12;
#P hidden outlet 478 584 15 0;
#P objectname outlet_12;
#P hidden newex 528 434 24 196617 jmod.thru~.mxt;
#P objectname tap_thru_14;
#P hidden inlet 528 384 15 0;
#P objectname inlet_14;
#P hidden outlet 528 584 15 0;
#P objectname outlet_14;
#P hidden newex 578 434 24 196617 jmod.thru~.mxt;
#P objectname tap_thru_16;
#P hidden inlet 578 384 15 0;
#P objectname inlet_16;
#P hidden outlet 578 584 15 0;
#P objectname outlet_16;
#P hidden newex 628 434 24 196617 jmod.thru~.mxt;
#P objectname tap_thru_18;
#P hidden inlet 628 384 15 0;
#P objectname inlet_18;
#P hidden outlet 628 584 15 0;
#P objectname outlet_18;
#P hidden newex 678 434 24 196617 jmod.thru~.mxt;
#P objectname tap_thru_20;
#P hidden inlet 678 384 15 0;
#P objectname inlet_20;
#P hidden outlet 678 584 15 0;
#P objectname outlet_20;
#P hidden newex 728 434 24 196617 jmod.thru~.mxt;
#P objectname tap_thru_22;
#P hidden inlet 728 384 15 0;
#P objectname inlet_22;
#P hidden outlet 728 584 15 0;
#P objectname outlet_22;
#P hidden newex 778 434 24 196617 jmod.thru~.mxt;
#P objectname tap_thru_24;
#P hidden inlet 778 384 15 0;
#P objectname inlet_24;
#P hidden outlet 778 584 15 0;
#P objectname outlet_24;
#P hidden newex 828 434 24 196617 jmod.thru~.mxt;
#P objectname tap_thru_26;
#P hidden inlet 828 384 15 0;
#P objectname inlet_26;
#P hidden outlet 828 584 15 0;
#P objectname outlet_26;
#P hidden newex 878 434 24 196617 jmod.thru~.mxt;
#P objectname tap_thru_28;
#P hidden inlet 878 384 15 0;
#P objectname inlet_28;
#P hidden outlet 878 584 15 0;
#P objectname outlet_28;
#P hidden newex 928 434 24 196617 jmod.thru~.mxt;
#P objectname tap_thru_30;
#P hidden inlet 928 384 15 0;
#P objectname inlet_30;
#P hidden outlet 928 584 15 0;
#P objectname outlet_30;
#P hidden newex 978 434 24 196617 jmod.thru~.mxt;
#P objectname tap_thru_32;
#P hidden inlet 978 384 15 0;
#P objectname inlet_32;
#P hidden outlet 978 584 15 0;
#P objectname outlet_32;
#P hidden message 98 454 43 196617 compile;
#P hidden message 51 453 14 196617 3;
#P hidden newex 21 483 155 196617 js jmod.gui.audio-constructor.js;
#P hidden message 118 553 55 196617 bypass \$1;
#P objectname bypass;
#P hidden message 107 534 65 196617 gain_midi \$1;
#P objectname gain_midi;
#P hidden message 20 386 45 196617 set \$1 0;
#P user jmod.meter~ 4 192 82 2;
#P objectname meter_1;
#P hidden newex 251 166 185 196617 jmod.parameter $1 sr @filter_dupes 1;
#P objectname jmod.parameter.mxt;
#P user jsui 120 192 40 11 0 0 0 jmod.jsui_sr.js 0 20000 0;
#P objectname samprate;
#P hidden number 111 346 35 9 0 0 0 3 0 0 0 74 156 97 222 222 222 0 0 0;
#P hidden newex 20 345 89 196617 pvar gain_master;
#B color 7;
#P hidden newex 20 366 160 196617 jmod.parameter.gain.mxt $1 gain;
#B color 2;
#P objectname jmod.parameter.gain.mxt;
#P hidden newex 256 219 30 196617 == 0;
#P hidden newex 256 200 140 196617 jmod.message.mxt $1 enable;
#B color 1;
#P objectname jmod.parameter[2];
#P hidden newex 256 266 152 196617 jmod.parameter.mxt $1 bypass;
#B color 1;
#P objectname jmod.parameter[1];
#P hidden newex 257 244 143 196617 jmod.parameter.mxt $1 mute;
#B color 1;
#P objectname jmod.parameter;
#P user pictctrl 92 192 11 11 jmod.button.bypass.pct 0 0 1 1 26 0 0 0 11 11 128 0 1 1 1 1;
#P user pictslider 3 197 84 8 0 0 0 0 jmod.slider.knob.gain.pct 1 jmod.slider.bg.gain.pct 1 2113 0 0 157 1. 1.;
#P objectname gain_master;
#P user pictctrl 104 192 11 11 jmod.button.mute.pct 0 0 1 1 26 0 0 0 11 11 128 0 1 1 1 1;
#P user jmod.meter~ 4 195 82 2;
#P objectname meter_2;
#P user pictctrl 0 190 162 15 jmod.bg.audio-component.pct 0 0 1 0 24 0 0 0 162 15 2 0 1 1 1 1;
#P noclick;
#P objectname background;
#P hidden comment 188 333 108 196617 the int is the number of channels as provided by the attributes/jmod.gui js;
#P hidden comment 707 352 241 196617 not sure why - but without these jmod.thru~.mxt objects the signal chain does not compile properly?;
#P hidden newex 328 434 24 196617 jmod.thru~.mxt;
#P objectname tap_thru_6;
#P hidden inlet 203 384 15 0;
#P objectname inlet_1;
#P hidden outlet 203 584 15 0;
#P objectname outlet_1;
#P hidden newex 353 434 24 196617 jmod.thru~.mxt;
#P objectname tap_thru_7;
#P hidden inlet 253 384 15 0;
#P objectname inlet_3;
#P hidden outlet 253 584 15 0;
#P objectname outlet_3;
#P hidden newex 378 434 24 196617 jmod.thru~.mxt;
#P objectname tap_thru_8;
#P hidden inlet 303 384 15 0;
#P objectname inlet_5;
#P hidden outlet 303 584 15 0;
#P objectname outlet_5;
#P hidden newex 403 434 24 196617 jmod.thru~.mxt;
#P objectname tap_thru_9;
#P hidden inlet 353 384 15 0;
#P objectname inlet_7;
#P hidden outlet 353 584 15 0;
#P objectname outlet_7;
#P hidden newex 303 434 24 196617 jmod.thru~.mxt;
#P objectname tap_thru_5;
#P hidden inlet 403 384 15 0;
#P objectname inlet_9;
#P hidden outlet 403 584 15 0;
#P objectname outlet_9;
#P hidden newex 453 434 24 196617 jmod.thru~.mxt;
#P objectname tap_thru_11;
#P hidden inlet 453 384 15 0;
#P objectname inlet_11;
#P hidden outlet 453 584 15 0;
#P objectname outlet_11;
#P hidden newex 503 434 24 196617 jmod.thru~.mxt;
#P objectname tap_thru_13;
#P hidden inlet 503 384 15 0;
#P objectname inlet_13;
#P hidden outlet 503 584 15 0;
#P objectname outlet_13;
#P hidden newex 553 434 24 196617 jmod.thru~.mxt;
#P objectname tap_thru_15;
#P hidden inlet 553 384 15 0;
#P objectname inlet_15;
#P hidden outlet 553 584 15 0;
#P objectname outlet_15;
#P hidden newex 603 434 24 196617 jmod.thru~.mxt;
#P objectname tap_thru_17;
#P hidden inlet 603 384 15 0;
#P objectname inlet_17;
#P hidden outlet 603 584 15 0;
#P objectname outlet_17;
#P hidden newex 653 434 24 196617 jmod.thru~.mxt;
#P objectname tap_thru_19;
#P hidden inlet 653 384 15 0;
#P objectname inlet_19;
#P hidden outlet 653 584 15 0;
#P objectname outlet_19;
#P hidden newex 703 434 24 196617 jmod.thru~.mxt;
#P objectname tap_thru_21;
#P hidden inlet 703 384 15 0;
#P objectname inlet_21;
#P hidden outlet 703 584 15 0;
#P objectname outlet_21;
#P hidden newex 753 434 24 196617 jmod.thru~.mxt;
#P objectname tap_thru_23;
#P hidden inlet 753 384 15 0;
#P objectname inlet_23;
#P hidden outlet 753 584 15 0;
#P objectname outlet_23;
#P hidden newex 803 434 24 196617 jmod.thru~.mxt;
#P objectname tap_thru_25;
#P hidden inlet 803 384 15 0;
#P objectname inlet_25;
#P hidden outlet 803 584 15 0;
#P objectname outlet_25;
#P hidden newex 853 434 24 196617 jmod.thru~.mxt;
#P objectname tap_thru_27;
#P hidden inlet 853 384 15 0;
#P objectname inlet_27;
#P hidden outlet 853 584 15 0;
#P objectname outlet_27;
#P hidden newex 903 434 24 196617 jmod.thru~.mxt;
#P objectname tap_thru_29;
#P hidden inlet 903 384 15 0;
#P objectname inlet_29;
#P hidden outlet 903 584 15 0;
#P objectname outlet_29;
#P hidden newex 953 434 24 196617 jmod.thru~.mxt;
#P objectname tap_thru_31;
#P hidden inlet 953 384 15 0;
#P objectname inlet_31;
#P hidden outlet 953 584 15 0;
#P objectname outlet_31;
#P hidden fasten 65 0 60 0 25 406 15 406 15 341 25 341;
#P hidden connect 60 0 59 0;
#P hidden connect 59 0 65 0;
#P hidden connect 70 0 68 0;
#P hidden connect 69 0 68 0;
#P hidden fasten 119 0 68 0 170 434 26 434;
#P hidden connect 68 0 120 0;
#P hidden connect 56 0 54 0;
#P hidden connect 55 0 52 0;
#P hidden connect 58 0 52 0;
#P hidden connect 59 0 66 0;
#P hidden connect 60 0 61 0;
#P hidden connect 54 0 67 0;
#P hidden connect 63 0 62 0;
#P hidden connect 46 0 119 0;
#P hidden connect 119 1 112 0;
#P hidden connect 117 0 118 0;
#P hidden connect 62 0 63 0;
#P hidden connect 43 0 109 0;
#P hidden connect 57 0 58 0;
#P hidden connect 54 0 56 0;
#P hidden connect 52 0 55 0;
#P hidden fasten 114 0 115 0 283 433;
#P hidden connect 40 0 35 0;
#P hidden connect 111 0 47 0;
#P hidden connect 37 0 44 0;
#P hidden connect 108 0 41 0;
#P hidden connect 34 0 38 0;
#P hidden connect 105 0 106 0;
#P hidden connect 31 0 32 0;
#P hidden connect 102 0 103 0;
#P hidden connect 28 0 29 0;
#P hidden connect 99 0 100 0;
#P hidden connect 25 0 26 0;
#P hidden connect 96 0 97 0;
#P hidden connect 22 0 23 0;
#P hidden connect 93 0 94 0;
#P hidden connect 19 0 20 0;
#P hidden connect 90 0 91 0;
#P hidden connect 16 0 17 0;
#P hidden connect 87 0 88 0;
#P hidden connect 13 0 14 0;
#P hidden connect 84 0 85 0;
#P hidden connect 10 0 11 0;
#P hidden connect 81 0 82 0;
#P hidden connect 7 0 8 0;
#P hidden connect 78 0 79 0;
#P hidden connect 4 0 5 0;
#P hidden connect 75 0 76 0;
#P hidden connect 1 0 2 0;
#P hidden connect 72 0 73 0;
#P pop;
