max v2;#N vpatcher 6 60 312 391;#P window setfont "Sans Serif" 9.;#P window linecount 1;#P newex 178 109 79 196617 route threshold;#P inlet 154 30 15 0;#P newex 169 81 64 196617 patcherargs;#P outlet 61 269 15 0;#P inlet 61 30 15 0;#P number 154 136 35 9 0 255 3 3 0 0 0 221 221 221 222 222 222 0 0 0;#P newex 61 161 103 196617 jit.op @op < @val 50;#P newex 61 127 86 196617 jmod.rgb2luma%;#P window linecount 5;#P comment 109 214 100 196617 Converts to greyscale and thresholds the stream to get a binary image.;#P connect 4 0 1 0;#P connect 1 0 2 0;#P connect 2 0 5 0;#P connect 8 0 3 0;#P connect 6 0 3 0;#P connect 7 0 3 0;#P connect 3 0 2 1;#P connect 6 1 8 0;#P pop;