max v2;
#N vpatcher 144 109 372 350;
#P window setfont "Sans Serif" 9.;
#P message 121 112 27 196617 stop;
#P newex 121 91 45 196617 r _STOP;
#P outlet 52 177 15 0;
#P inlet 52 55 15 0;
#P inlet 86 55 15 0;
#P newex 52 84 27 13697033 t l b;
#P newex 69 112 27 13697033 f;
#P newex 52 140 40 13697033 line 0.;
#P connect 4 0 2 0;
#P connect 2 0 0 0;
#P connect 1 0 0 0;
#P connect 7 0 0 0;
#P connect 0 0 5 0;
#P connect 2 1 1 0;
#P connect 3 0 1 1;
#P connect 6 0 7 0;
#P pop;
