max v2;
#N vpatcher 45 55 690 444;
#P window setfont "Sans Serif" 9.;
#P window linecount 1;
#P newex 86 240 27 9109513 - $1;
#P newex 52 175 44 9109513 zl slice 1;
#P newex 52 146 31 9109513 zl rev;
#P newex 86 215 27 9109513 + 1;
#P window setfont "Sans Serif" 12.;
#P comment 35 32 100 9109516 jmod.multi.out~;
#P window setfont "Sans Serif" 9.;
#P comment 35 53 149 9109513 multicable for audio signals;
#P newex 52 121 115 9109513 jmod.oscroute /multicable;
#P inlet 52 87 15 0;
#P outlet 582 300 15 0;
#P objectname out[31];
#P outlet 566 300 15 0;
#P objectname out[30];
#P outlet 550 300 15 0;
#P objectname out[29];
#P outlet 534 300 15 0;
#P objectname out[28];
#P outlet 518 300 15 0;
#P objectname out[27];
#P outlet 502 300 15 0;
#P objectname out[26];
#P outlet 486 300 15 0;
#P objectname out[25];
#P outlet 470 300 15 0;
#P objectname out[24];
#P outlet 454 300 15 0;
#P objectname out[23];
#P outlet 438 300 15 0;
#P objectname out[22];
#P outlet 422 300 15 0;
#P objectname out[21];
#P outlet 406 300 15 0;
#P objectname out[20];
#P outlet 390 300 15 0;
#P objectname out[19];
#P outlet 374 300 15 0;
#P objectname out[18];
#P outlet 358 300 15 0;
#P objectname out[17];
#P outlet 342 300 15 0;
#P objectname out[16];
#P outlet 326 300 15 0;
#P objectname out[15];
#P outlet 310 300 15 0;
#P objectname out[14];
#P outlet 294 300 15 0;
#P objectname out[13];
#P outlet 278 300 15 0;
#P objectname out[12];
#P outlet 262 300 15 0;
#P objectname out[11];
#P outlet 246 300 15 0;
#P objectname out[10];
#P outlet 230 300 15 0;
#P objectname out[9];
#P outlet 214 300 15 0;
#P objectname out[8];
#P outlet 198 300 15 0;
#P objectname out[7];
#P outlet 182 300 15 0;
#P objectname out[6];
#P outlet 166 300 15 0;
#P objectname out[5];
#P outlet 150 300 15 0;
#P objectname out[4];
#P outlet 134 300 15 0;
#P objectname out[3];
#P outlet 118 300 15 0;
#P objectname out[2];
#P outlet 102 300 15 0;
#P objectname out[1];
#P outlet 86 300 15 0;
#P objectname out[0];
#P newex 86 267 510 9109513 gate 32;
#P comment 130 243 100 9109513 offset;
#P connect 34 0 35 0;
#P connect 35 0 39 0;
#P connect 39 0 40 0;
#P connect 40 1 38 0;
#P connect 38 0 41 0;
#P connect 41 0 1 0;
#P connect 1 0 2 0;
#P connect 1 1 3 0;
#P connect 1 2 4 0;
#P connect 1 3 5 0;
#P connect 1 4 6 0;
#P connect 1 5 7 0;
#P connect 1 6 8 0;
#P connect 1 7 9 0;
#P connect 1 8 10 0;
#P connect 1 9 11 0;
#P connect 1 10 12 0;
#P connect 1 11 13 0;
#P connect 1 12 14 0;
#P connect 1 13 15 0;
#P connect 1 14 16 0;
#P connect 1 15 17 0;
#P connect 1 16 18 0;
#P connect 1 17 19 0;
#P connect 1 18 20 0;
#P connect 1 19 21 0;
#P connect 1 20 22 0;
#P connect 1 21 23 0;
#P connect 1 22 24 0;
#P connect 1 23 25 0;
#P connect 1 24 26 0;
#P connect 1 25 27 0;
#P connect 1 26 28 0;
#P connect 1 27 29 0;
#P connect 1 28 30 0;
#P connect 1 29 31 0;
#P connect 1 30 32 0;
#P connect 1 31 33 0;
#P fasten 40 0 1 1 57 205 591 205;
#P pop;
