max v2;#N vpatcher 73 119 642 629;#P inlet 206 268 15 0;#P outlet 206 239 15 0;#P inlet 143 268 15 0;#P inlet 164 268 15 0;#P inlet 185 268 15 0;#P outlet 185 239 15 0;#P outlet 164 239 15 0;#P outlet 143 239 15 0;#P inlet 79 268 15 0;#P inlet 100 268 15 0;#P inlet 121 268 15 0;#P outlet 121 239 15 0;#P outlet 100 239 15 0;#P outlet 79 239 15 0;#P window setfont "Sans Serif" 9.;#P newex 260 422 58 196617 zl slice $1;#P newex 260 113 225 196617 route 0 1 2 3 4 5 6 7 8 9;#P message 260 93 54 196617 \$1 set \$2;#P newex 260 73 52 196617 listfunnel;#P newex 260 53 51 196617 route set;#P newex 260 395 201 196617 pak 0. 0. 0. 0. 0. 0. 0. 0. 0. 0.;#P inlet 260 33 15 0;#P inlet 15 268 15 0;#P inlet 36 268 15 0;#P inlet 57 268 15 0;#P outlet 260 449 15 0;#P outlet 57 239 15 0;#P outlet 36 239 15 0;#P outlet 15 239 15 0;#P connect 12 0 0 0;#P connect 12 1 1 0;#P connect 12 2 2 0;#P connect 12 3 14 0;#P connect 12 4 15 0;#P connect 12 5 16 0;#P connect 12 6 20 0;#P connect 12 7 21 0;#P connect 12 8 22 0;#P fasten 12 9 26 0 457 130;#P connect 7 0 9 0;#P connect 9 0 10 0;#P connect 10 0 11 0;#P connect 11 0 12 0;#P connect 6 0 8 0;#P connect 12 0 8 0;#P connect 8 0 13 0;#P connect 13 0 3 0;#P connect 5 0 8 1;#P connect 12 1 8 1;#P connect 4 0 8 2;#P connect 12 2 8 2;#P connect 19 0 8 3;#P connect 12 3 8 3;#P connect 18 0 8 4;#P connect 12 4 8 4;#P connect 17 0 8 5;#P connect 12 5 8 5;#P connect 25 0 8 6;#P connect 12 6 8 6;#P connect 24 0 8 7;#P connect 12 7 8 7;#P connect 23 0 8 8;#P connect 12 8 8 8;#P connect 27 0 8 9;#P connect 12 9 8 9;#P pop;