max v2;
#N vpatcher 19 44 1033 740;
#P origin 267 0;
#P setbglock 1;
#P window setfont "Sans Serif" 9.;
#P window linecount 2;
#P newex 584 121 75 196617 t MENU_REBUILD;
#P window linecount 1;
#P newex 519 100 112 196617 prepend NEW_PRESETS;
#P newex 479 268 71 196617 prepend store;
#P newex 479 249 171 196617 jmod.message.mxt $1 preset_store;
#P newex 479 198 73 196617 prepend recall;
#P newex 479 179 173 196617 jmod.message.mxt $1 preset_recall;
#P newex 536 157 93 196617 s $1_FROM_MHUB;
#P newex 564 77 65 196617 route 0 done;
#P window linecount 2;
#P newex 473 121 110 196617 t getslotnamelist NEW_PRESETS_START;
#P window linecount 1;
#P newex 473 56 209 196617 route read slotname;
#P newex -142 642 68 196617 route symbol;
#P newex 269 640 134 196617 r $1_message;
#P window linecount 2;
#P message 81 608 130 196617 \; max htmlref $2;
#P window linecount 1;
#P newex -142 664 123 196617 prepend parameter_name;
#P newex -142 602 39 196617 t dump;
#N coll $1_registered_parameters 1;
#P newobj -142 621 161 196617 coll $1_registered_parameters 1;
#P newex -142 583 213 196617 jmod.message.mxt $1 get_parameter_names;
#P newex 412 651 109 196617 prepend PARAMETERS;
#P newex 851 574 42 196617 t BUILD;
#P newex 848 553 45 196617 sel done;
#P newex 895 575 104 196617 prepend ATTRIBUTES;
#P newex 711 141 50 196617 tosymbol;
#P newex 39 452 51 196617 route list;
#P newex 711 380 100 196617 sprintf read %s.xml;
#P message 815 599 92 196617 MODULE_TITLE $2;
#P newex 671 657 114 196617 prepend MODULE_TITLE;
#P newex 815 626 93 196617 s $1_FROM_MHUB;
#P newex 704 508 45 196617 sel bang;
#P newex 687 441 45 196617 sel bang;
#N vpatcher 484 194 890 610;
#P origin 0 -110;
#P window setfont "Sans Serif" 9.;
#P newex 107 229 50 196617 tosymbol;
#P newex 232 230 50 196617 tosymbol;
#P inlet 147 34 15 0;
#P inlet 130 34 15 0;
#P outlet 264 139 15 0;
#P newex 177 95 192 196617 jmod.route @searchstring save_settings;
#P newex 232 273 27 196617 t l b;
#P message 249 308 42 196617 store 1;
#P newex 177 225 49 196617 t write b;
#P newex 192 205 50 196617 zl slice 1;
#P newex 232 253 72 196617 prepend write;
#P newex 177 125 50 196617 t l l;
#P newex 192 185 35 196617 zl reg;
#P newex 177 165 40 196617 sel 1 2;
#P newex 177 145 33 196617 zl len;
#P outlet 211 349 15 0;
#P newex 107 273 27 196617 t b l;
#P message 52 307 35 196617 recall 1;
#P newex 52 225 44 196617 t b read;
#P newex 67 205 50 196617 zl slice 1;
#P newex 107 253 65 196617 prepend read;
#P newex 52 125 50 196617 t l l;
#P newex 67 185 35 196617 zl reg;
#P newex 52 165 40 196617 sel 1 2;
#P newex 52 145 33 196617 zl len;
#P newex 52 72 189 196617 jmod.route @searchstring load_settings;
#P outlet 86 349 15 0;
#P inlet 52 45 15 0;
#P connect 0 0 2 0;
#P connect 2 0 6 0;
#P connect 6 0 3 0;
#P connect 3 0 4 0;
#P connect 4 0 9 0;
#P connect 24 0 9 0;
#P connect 11 0 10 0;
#P connect 9 0 10 0;
#P connect 4 1 5 0;
#P connect 5 0 8 0;
#P connect 11 1 1 0;
#P connect 10 0 1 0;
#P connect 9 1 1 0;
#P connect 6 1 5 1;
#P connect 8 1 27 0;
#P connect 27 0 7 0;
#P connect 7 0 11 0;
#P connect 2 1 22 0;
#P connect 22 0 16 0;
#P connect 16 0 13 0;
#P connect 13 0 14 0;
#P connect 14 0 19 0;
#P connect 25 0 19 0;
#P connect 14 1 15 0;
#P connect 15 0 18 0;
#P connect 19 0 12 0;
#P connect 21 0 12 0;
#P connect 20 0 12 0;
#P connect 16 1 15 1;
#P connect 18 1 26 0;
#P connect 26 0 17 0;
#P connect 17 0 21 0;
#P connect 19 1 20 0;
#P connect 21 1 20 0;
#P connect 22 1 23 0;
#P pop;
#P newobj 687 563 53 196617 p settings;
#N vpatcher 227 303 740 708;
#P outlet 326 354 15 0;
#P window setfont "Sans Serif" 9.;
#P newex 299 84 135 196617 jmod.message.mxt $1 force;
#P objectname jmod.parameter.mxb[4];
#P newex 43 257 59 196617 jmod.usurp;
#P newex 55 202 35 196617 t open;
#P button 210 123 15 0;
#P message 107 257 14 196617 1;
#B color 4;
#P message 92 224 14 196617 2;
#B color 4;
#P message 149 257 14 196617 1;
#B color 4;
#P message 134 224 14 196617 3;
#B color 4;
#P message 191 257 14 196617 1;
#B color 4;
#P message 176 224 14 196617 0;
#B color 4;
#P number 92 295 35 9 0 0 0 3 0 0 0 59 62 255 222 222 222 0 0 0;
#P newex 176 202 40 196617 sel 1 0;
#B color 4;
#P newex 134 202 40 196617 sel 1 0;
#B color 4;
#P newex 92 202 40 196617 sel 1 0;
#B color 4;
#P message 92 313 74 196617 outputmode \$1;
#B color 4;
#P comment 69 34 100 196617 'mute' just passes through;
#P newex 18 71 222 196617 route view_internals bypass freeze mute force;
#P outlet 304 353 15 0;
#P inlet 20 46 15 0;
#P connect 0 0 2 0;
#P connect 9 0 17 0;
#P connect 11 0 17 0;
#P connect 13 0 17 0;
#P connect 2 0 16 0;
#P connect 2 1 5 0;
#P connect 5 0 13 0;
#P lcolor 5;
#P connect 10 0 8 0;
#P lcolor 5;
#P connect 12 0 8 0;
#P lcolor 5;
#P connect 14 0 8 0;
#P lcolor 5;
#P connect 17 0 8 0;
#P connect 8 0 4 0;
#P lcolor 5;
#P connect 5 1 14 0;
#P lcolor 5;
#P connect 2 2 6 0;
#P connect 6 0 11 0;
#P lcolor 5;
#P connect 6 1 12 0;
#P lcolor 5;
#P connect 2 3 7 0;
#P connect 7 0 9 0;
#P lcolor 5;
#P connect 7 1 10 0;
#P lcolor 5;
#P connect 18 0 15 0;
#P connect 2 4 15 0;
#P connect 4 0 1 0;
#P connect 16 0 1 0;
#P connect 2 5 1 0;
#P connect 15 0 19 0;
#P pop;
#P newobj 268 311 73 196617 p parse_jitter;
#N vpatcher 90 257 606 657;
#P window setfont "Sans Serif" 9.;
#P comment 192 30 100 196617 'mute' just passes through;
#P outlet 180 144 15 0;
#P inlet 143 42 15 0;
#P connect 0 0 1 0;
#P pop;
#P newobj 243 331 80 196617 p parse_control;
#P message 301 253 14 196617 5;
#P message 279 252 14 196617 4;
#P newex 192 92 59 196617 jmod.usurp;
#P newex 296 582 86 196617 pack 1 half;
#P message 372 561 23 196617 full;
#P newex 372 541 31 196617 sel 0;
#P newex 350 521 50 196617 zl slice 1;
#P newex 296 501 118 196617 regexp (\\\\d)U-?(\\\\S*);
#P newex 296 602 185 196617 prepend set \\\; _MODULE_INSTALL_SIZE;
#P newex 711 162 63 196617 fromsymbol;
#P newex 671 183 50 196617 zl join;
#P newex 671 121 50 196617 zl slice 1;
#P newex 671 207 35 196617 zl reg;
#P newex 195 485 35 196617 t open;
#N vpatcher 231 194 690 593;
#P window setfont "Sans Serif" 9.;
#P newex 234 135 78 196617 prepend mute 0;
#P newex 59 108 59 196617 jmod.round;
#P window setfont "Lucida Grande" 12.;
#P newex 77 194 27 67108876 - 2;
#P window setfont "Sans Serif" 9.;
#P newex 28 168 59 196617 sel setitem;
#P newex 28 137 88 196617 jmod.core.sr.mxt;
#P newex 28 88 72 196617 route int float;
#P newex 214 260 215 196617 jmod.post.mxt "parse_poly: bad sample rate";
#P message 212 281 27 196617 up 4;
#P message 172 282 27 196617 up 2;
#P message 82 324 41 196617 down 4;
#P message 101 306 41 196617 down 2;
#P message 120 282 41 196617 down 1;
#P newex 82 230 119 196617 sel -2 -1 0 1 2;
#P newex 28 46 370 196617 route sr mute;
#P outlet 241 369 15 0;
#P inlet 28 26 15 0;
#P connect 0 0 2 0;
#P connect 2 0 10 0;
#P connect 10 0 11 0;
#P connect 14 0 11 0;
#P connect 11 0 12 0;
#P connect 10 1 14 0;
#P connect 12 1 13 0;
#P connect 13 0 3 0;
#P connect 3 0 6 0;
#P connect 3 1 5 0;
#P connect 3 2 4 0;
#P connect 3 3 7 0;
#P connect 3 4 8 0;
#P connect 3 5 9 0;
#P connect 2 1 15 0;
#P connect 15 0 1 0;
#P connect 4 0 1 0;
#P connect 5 0 1 0;
#P connect 6 0 1 0;
#P connect 8 0 1 0;
#P connect 7 0 1 0;
#P connect 2 2 1 0;
#P pop;
#P newobj 159 373 65 196617 p parse_poly;
#N vpatcher 237 245 544 633;
#P window setfont "Sans Serif" 9.;
#P newex 51 109 59 196617 jmod.round;
#P window setfont "Lucida Grande" 12.;
#P newex 20 185 27 67108876 - 2;
#P window setfont "Sans Serif" 9.;
#P newex 20 158 59 196617 sel setitem;
#P newex 20 88 72 196617 route int float;
#P newex 20 137 88 196617 jmod.core.sr.mxt;
#P newex 66 254 214 196617 jmod.post.mxt "parse_blue: bad sample rate";
#P message 20 310 72 196617 downsample 2;
#P message 34 292 72 196617 downsample 1;
#P message 50 274 72 196617 downsample 0;
#P newex 20 215 59 196617 sel -2 -1 0;
#P newex 20 52 161 196617 route sr gain_midi defeat_meters;
#P outlet 215 346 15 0;
#P inlet 20 27 15 0;
#P connect 0 0 2 0;
#P connect 2 0 9 0;
#P connect 9 0 8 0;
#P connect 12 0 8 0;
#P connect 8 0 10 0;
#P connect 10 1 11 0;
#P connect 11 0 3 0;
#P connect 3 0 6 0;
#P connect 3 1 5 0;
#P connect 3 2 4 0;
#P connect 9 1 12 0;
#P connect 3 3 7 0;
#P connect 2 3 1 0;
#P connect 6 0 1 0;
#P connect 5 0 1 0;
#P connect 4 0 1 0;
#P pop;
#P newobj 197 352 65 196617 p parse_blue;
#P message 261 254 14 196617 3;
#P newex 160 277 160 196617 gate 5 1;
#P newex 687 465 105 196617 prepend load_settings;
#P newex 687 419 172 196617 jmod.message.mxt $1 load_settings;
#P newex 703 528 110 196617 prepend save_settings;
#P message 818 320 87 196617 name $2;
#P newex -13 28 90 196617 r $1_FROM_MGUI;
#P window linecount 2;
#P message 192 136 149 196617 \; _MODULE_INSTALL_SIZE 1 full;
#P window linecount 1;
#P newex 192 113 22 196617 b 1;
#P newex 81 587 130 196617 jmod.message.mxt $1 help;
#P window linecount 2;
#P newex 157 438 112 196617 jmod.message.mxt $1 view_internals;
#P window linecount 1;
#P newex 703 488 175 196617 jmod.message.mxt $1 save_settings;
#P newex 699 260 188 196617 jmod.message.mxt $1 restore_defaults;
#P comment 811 349 100 196617 load the first preset;
#P message 666 363 44 196617 recall 1;
#P message 711 363 77 196617 $2;
#P window linecount 2;
#P comment 724 337 100 196617 read the default preset(s);
#P window linecount 1;
#P newex 666 295 29 196617 t b b;
#P message 810 69 72 196617 substitute %0;
#P newex 819 41 45 196617 loadbang;
#P newex 671 101 83 196617 regexp (\\\\S+::);
#P message 748 320 69 196617 outputmode 1;
#P newex 666 241 55 196617 r jmod.init;
#P comment 682 599 100 196617 pattrstorage;
#N comlet connect to pattrstorage;
#P outlet 666 599 15 0;
#N comlet connect to pattrstorage;
#P inlet 672 31 15 0;
#P newex 255 399 35 196617 zl reg;
#P message 236 252 14 196617 2;
#P newex 160 226 151 196617 sel poly blue none control jitter;
#P message 160 252 14 196617 1;
#P message 129 521 52 196617 target \$1;
#P newex 112 500 27 196617 t b i;
#P newex 112 544 50 196617 zl reg;
#P newex 112 480 50 196617 zl slice 1;
#N vpatcher 10 59 610 459;
#P outlet 166 72 15 0;
#P inlet 161 40 15 0;
#P connect 0 0 1 0;
#P pop;
#P newobj -3 523 35 196617 p thru;
#P window setfont "Sans Serif" 12.;
#P comment -15 427 131 196620 Poly Handling;
#P comment 287 427 131 196620 Attribute Handling;
#P window setfont "Sans Serif" 9.;
#P newex 450 502 71 196617 prepend refer;
#N comlet connect to a poly~ object;
#P outlet 255 558 15 0;
#P newex -34 49 393 196617 route _POLY _MGUI_FEEDBACK MENU x _GET_MODULE_INSTALL_SIZE MODULE_TITLE;
#P newex 296 479 321 196617 route size xxxx presets library_type;
#P window linecount 2;
#P newex 298 441 328 196617 patcherargs @size 1U @presets @library_type poly @module_type audio @skin default;
#P window linecount 1;
#P newex -17 178 115 196617 t l l l;
#P newex -17 331 35 196617 zl reg;
#P window linecount 2;
#P newex -17 352 84 196617 jmod.post.mxt $2-SyntaxError;
#P window linecount 1;
#P newex -17 305 31 196617 sel 0;
#P newex -17 285 27 196617 i;
#P newex -149 301 71 196617 prepend store;
#P newex -149 280 35 196617 zl rev;
#P newex -17 224 44 196617 t b l 0;
#P newex -149 259 35 196617 zl join;
#P newex -149 216 27 196617 t b l;
#N counter;
#X flags 0 0;
#P newobj -149 237 66 196617 counter;
#P newex -150 121 55 196617 t b clear 1;
#P newex -17 202 50 196617 zl slice 1;
#N coll $1_registered_parameters 1;
#P newobj 0 254 161 196617 coll $1_registered_parameters 1;
#P newex -150 196 126 196617 receive $1_register;
#P newex -150 141 96 196617 send $1_query;
#P newex -150 90 55 196617 r jmod.init;
#P newex 49 223 100 196617 send $1_instruction;
#N comlet module feedback - connect to 1st outlet;
#P outlet 112 359 15 0;
#N comlet connect to mgui (1st outlet);
#P inlet -34 29 15 0;
#P window setfont "Sans Serif" 12.;
#P comment 490 30 103 196620 Preset Handling;
#P user panel 152 189 192 234;
#X brgb 191 191 191;
#X frgb 0 0 0;
#X border 1;
#X rounded 0;
#X shadow 0;
#X done;
#P window setfont "Sans Serif" 9.;
#P comment 689 31 100 196617 pattrstorage;
#P window linecount 3;
#P comment 753 281 75 196617 tell pattrstorage to send feedback;
#P comment 762 108 172 196617 filter out the part of the feedback symbol preceeding the double-colon. Then send to the feedback outlet;
#P window linecount 1;
#P comment 268 659 115 196617 TL: Added 2005-05-21;
#P user panel -18 424 300 158;
#X brgb 191 191 191;
#X frgb 0 0 0;
#X border 1;
#X rounded 0;
#X shadow 0;
#X done;
#P background;
#P user panel 284 424 362 207;
#X brgb 191 191 191;
#X frgb 0 0 0;
#X border 1;
#X rounded 0;
#X shadow 0;
#X done;
#P background;
#P user panel 470 26 192 293;
#X brgb 191 191 191;
#X frgb 0 0 0;
#X border 1;
#X rounded 0;
#X shadow 0;
#X done;
#P background;
#P connect 12 0 17 0;
#P connect 17 0 13 0;
#P connect 14 0 19 0;
#P connect 19 0 18 0;
#P connect 18 0 20 0;
#P connect 20 0 22 0;
#P connect 22 0 23 0;
#P connect 102 0 104 0;
#P connect 104 0 103 0;
#P connect 103 1 108 0;
#P connect 108 0 105 0;
#P connect 108 1 105 0;
#P connect 19 1 20 1;
#P connect 17 2 18 2;
#P connect 9 0 31 0;
#P connect 64 0 31 0;
#P connect 36 0 28 0;
#P connect 40 0 28 0;
#P connect 28 0 16 0;
#P connect 16 0 21 0;
#P connect 21 0 24 0;
#P connect 24 0 25 0;
#P connect 25 0 27 0;
#P connect 27 0 26 0;
#P connect 38 0 36 0;
#P connect 96 1 36 0;
#P connect 21 1 15 0;
#P connect 23 0 15 0;
#P connect 17 1 15 0;
#P fasten 21 2 24 1 22 280 5 280;
#P connect 15 0 24 1;
#P fasten 28 1 27 1 40 327 13 327;
#P connect 31 6 96 0;
#P connect 28 2 11 0;
#P connect 61 0 106 0;
#P connect 74 0 10 0;
#P connect 105 0 10 0;
#P connect 31 1 10 0;
#P connect 96 0 37 0;
#P connect 37 0 39 0;
#P connect 39 0 38 0;
#P connect 39 1 40 0;
#P connect 37 1 38 1;
#P connect 69 0 72 0;
#P connect 30 3 42 0;
#P connect 42 0 41 0;
#P connect 43 0 69 0;
#P connect 41 0 69 0;
#P connect 70 0 69 0;
#P connect 85 0 69 0;
#P connect 86 0 69 0;
#P connect 31 4 84 0;
#P connect 84 0 62 0;
#P connect 62 0 63 0;
#P connect 78 0 63 0;
#P connect 60 0 73 0;
#P connect 69 1 71 0;
#P connect 42 1 43 0;
#P connect 69 3 87 0;
#P connect 88 0 44 0;
#P connect 87 0 44 0;
#P connect 72 0 44 0;
#P connect 71 0 44 0;
#P connect 107 0 32 0;
#P connect 69 2 32 0;
#P connect 44 0 32 0;
#P connect 73 0 32 0;
#P connect 88 1 32 0;
#P connect 42 2 70 0;
#P connect 69 4 88 0;
#P connect 42 3 85 0;
#P fasten 29 1 30 0 462 474 301 474;
#P connect 30 0 79 0;
#P connect 80 0 83 0;
#P connect 83 0 78 0;
#P connect 42 4 86 0;
#P connect 74 0 69 1;
#P connect 79 1 80 0;
#P connect 80 1 81 0;
#P connect 81 0 82 0;
#P connect 82 0 83 1;
#P fasten 81 1 83 1 398 579 377 579;
#P connect 19 1 101 0;
#P connect 30 2 33 0;
#P connect 45 0 109 0;
#P connect 109 0 110 0;
#P connect 113 0 114 0;
#P connect 115 0 116 0;
#P fasten 111 2 117 0 623 97 524 97;
#P connect 118 0 112 0;
#P connect 110 1 112 0;
#P connect 117 0 112 0;
#P connect 109 1 111 0;
#P connect 111 1 118 0;
#P connect 48 0 53 0;
#P connect 58 0 53 0;
#P connect 53 0 56 0;
#P fasten 95 0 46 0 716 400 671 400;
#P connect 89 1 46 0;
#P connect 89 0 46 0;
#P connect 56 0 46 0;
#P fasten 49 0 46 0 753 402 671 402;
#P fasten 65 0 46 0 823 404 671 404;
#P connect 114 0 46 0;
#P connect 116 0 46 0;
#P connect 110 0 46 0;
#P connect 52 0 50 0;
#P connect 109 2 50 0;
#P connect 50 0 75 0;
#P connect 75 0 76 0;
#P connect 76 0 74 0;
#P connect 31 5 93 0;
#P connect 67 0 90 0;
#P connect 90 1 68 0;
#P connect 66 0 89 0;
#P connect 68 0 89 0;
#P connect 91 1 66 0;
#P connect 59 0 91 0;
#P connect 90 0 89 1;
#P connect 75 1 97 0;
#P connect 97 0 77 0;
#P connect 77 0 76 1;
#P fasten 53 1 55 0 690 320 716 320;
#P connect 55 0 95 0;
#P connect 91 0 89 2;
#P connect 51 0 49 0;
#P connect 51 0 52 0;
#P connect 51 0 94 0;
#P connect 101 0 92 0;
#P connect 98 0 92 0;
#P connect 93 0 92 0;
#P connect 94 0 92 0;
#P connect 100 0 92 0;
#P connect 51 0 65 0;
#P connect 29 1 99 0;
#P connect 99 0 100 0;
#P connect 99 1 98 0;
#P pop;
