max v2;
#N vpatcher 144 109 374 386;
#P window setfont "Sans Serif" 9.;
#P window linecount 1;
#P newex 111 142 62 196617 prepend set;
#P message 36 150 27 196617 stop;
#P newex 36 129 45 196617 r _STOP;
#P outlet 94 220 15 0;
#P inlet 94 60 15 0;
#P inlet 128 60 15 0;
#P newex 94 89 27 196617 t l b;
#P newex 111 117 27 196617 f;
#P newex 94 183 40 196617 line 0.;
#P connect 6 0 7 0;
#P connect 4 0 2 0;
#P connect 8 0 0 0;
#P connect 7 0 0 0;
#P connect 2 0 0 0;
#P connect 0 0 5 0;
#P connect 2 1 1 0;
#P connect 1 0 8 0;
#P connect 3 0 1 1;
#P pop;
