max v2;#N vpatcher 31 85 535 328;#P outlet 438 165 15 0;#P window setfont "Sans Serif" 9.;#N vpatcher 0 44 443 240;#P window setfont "Sans Serif" 9.;#P newex 290 82 80 196617 prepend drawto;#P window linecount 1;#P newex 290 51 117 196617 jmod.oscroute /context;#P newex 50 50 225 196617 jmod.pass /antialias /automatic /enable /layer;#P inlet 50 30 15 0;#P outlet 50 132 15 0;#P connect 1 0 2 0;#P fasten 2 3 0 0 214 99 55 99;#P fasten 2 2 0 0 161 99 55 99;#P fasten 2 1 0 0 108 99 55 99;#P fasten 2 0 0 0 55 99 55 99;#P fasten 4 0 0 0 295 115 55 115;#P connect 2 4 3 0;#P connect 3 0 4 0;#P pop;#P newobj 323 115 48 196617 p render;#N vpatcher 0 44 468 453;#P window setfont "Sans Serif" 9.;#P window linecount 0;#P newex 302 285 89 196617 prepend shininess;#P window linecount 1;#P newex 266 258 109 196617 prepend mat_specular;#P newex 230 231 110 196617 prepend mat_emission;#P newex 194 204 102 196617 prepend mat_diffuse;#P newex 122 150 115 196617 prepend lighting_enable;#P newex 158 177 106 196617 prepend mat_ambient;#P window linecount 0;#P newex 86 123 122 196617 prepend inherit_material;#P newex 50 96 111 196617 prepend auto_material;#P window linecount 2;#P newex 50 50 299 196617 jmod.oscroute /automatic /inherit /light/enable /light/ambient /light/diffuse /light/emission /light/specular /shininess;#P inlet 50 30 15 0;#P outlet 50 360 15 0;#P connect 1 0 2 0;#P connect 2 0 3 0;#P connect 4 0 0 0;#P connect 8 0 0 0;#P connect 5 0 0 0;#P connect 10 0 0 0;#P connect 3 0 0 0;#P connect 6 0 0 0;#P connect 7 0 0 0;#P connect 9 0 0 0;#P connect 2 1 4 0;#P connect 2 2 6 0;#P connect 2 3 5 0;#P connect 2 4 7 0;#P connect 2 5 8 0;#P connect 2 6 9 0;#P connect 2 7 10 0;#P pop;#P newobj 259 115 56 196617 p material;#N vpatcher 0 44 442 246;#P window setfont "Sans Serif" 9.;#P window linecount 0;#P newex 266 81 62 196617 prepend fog;#P newex 158 81 101 196617 prepend fog_params;#P newex 50 80 98 196617 prepend inherit_fog;#P window linecount 1;#P newex 50 50 335 196617 jmod.oscroute /inherit /params /amount;#P inlet 50 30 15 0;#P outlet 50 136 15 0;#P connect 1 0 2 0;#P connect 2 0 3 0;#P fasten 4 0 0 0 163 117 55 117;#P fasten 3 0 0 0 55 116 55 116;#P fasten 5 0 0 0 271 117 55 117;#P connect 2 1 4 0;#P connect 2 2 5 0;#P pop;#P newobj 212 115 32 196617 p fog;#P inlet 24 32 15 0;#N vpatcher 0 44 451 247;#P window setfont "Sans Serif" 9.;#P newex 274 85 108 196617 prepend inherit_depth;#P newex 162 85 106 196617 prepend depth_enable;#P newex 50 85 101 196617 prepend depth_clear;#P newex 50 50 348 196617 jmod.oscroute /clear /enable /inherit;#P inlet 50 30 15 0;#P outlet 50 128 15 0;#P connect 1 0 2 0;#P connect 2 0 3 0;#P connect 3 0 0 0;#P fasten 4 0 0 0 167 115 55 115;#P fasten 5 0 0 0 279 115 55 115;#P connect 2 1 4 0;#P connect 2 2 5 0;#P pop;#P newobj 165 115 42 196617 p depth;#N vpatcher 0 44 338 300;#P window setfont "Sans Serif" 9.;#P newex 105 75 29 196617 t b f;#P newex 158 109 107 196617 prepend inherit_color;#P newex 52 160 71 196617 prepend color;#P newex 52 125 82 196617 zl join;#P newex 52 101 36 196617 zl reg;#P newex 52 50 169 196617 jmod.oscroute /rgb /alpha /inherit;#P inlet 52 30 15 0;#P outlet 52 204 15 0;#P connect 1 0 2 0;#P fasten 7 0 3 0 110 96 57 96;#P connect 2 0 3 0;#P connect 3 0 4 0;#P connect 4 0 5 0;#P connect 5 0 0 0;#P fasten 6 0 0 0 163 188 57 188;#P connect 2 1 7 0;#P connect 7 1 4 1;#P connect 2 2 6 0;#P pop;#P newobj 118 115 41 196617 p color;#N vpatcher 0 44 299 208;#P window setfont "Sans Serif" 9.;#P newex 50 50 172 196617 jmod.pass /position /roation /scale;#P inlet 50 30 15 0;#P outlet 50 80 15 0;#P connect 1 0 2 0;#P connect 2 0 0 0;#P fasten 2 1 0 0 109 73 55 73;#P fasten 2 2 0 0 163 73 55 73;#P pop;#P newobj 24 115 30 196617 p 3D;#N vpatcher 0 44 322 219;#P window setfont "Sans Serif" 9.;#P newex 166 80 100 196617 prepend blend_mode;#P newex 50 80 105 196617 prepend blend_enable;#P newex 50 50 243 196617 jmod.oscroute /enable /mode;#P inlet 50 30 15 0;#P outlet 50 125 15 0;#P connect 1 0 2 0;#P connect 2 0 3 0;#P connect 3 0 0 0;#P connect 4 0 0 0;#P connect 2 1 4 0;#P pop;#P newobj 71 115 41 196617 p blend;#P outlet 24 165 15 0;#P newex 24 81 341 196617 jmod.oscroute /3D /blend /color /depth /fog /material /render;#P connect 6 0 0 0;#P connect 0 0 3 0;#P fasten 2 0 1 0 76 148 29 148;#P fasten 3 0 1 0 29 148 29 148;#P fasten 4 0 1 0 123 148 29 148;#P fasten 5 0 1 0 170 148 29 148;#P fasten 7 0 1 0 217 148 29 148;#P fasten 8 0 1 0 264 148 29 148;#P fasten 9 0 1 0 328 148 29 148;#P connect 0 1 2 0;#P connect 0 2 4 0;#P connect 0 3 5 0;#P connect 0 4 7 0;#P connect 0 5 8 0;#P connect 0 6 9 0;#P fasten 0 7 10 0 358 101 443 101;#P pop;