{
	"patcher" : 	{
		"fileversion" : 1,
		"rect" : [ 9.0, 49.0, 1325.0, 785.0 ],
		"bglocked" : 0,
		"defrect" : [ 9.0, 49.0, 1325.0, 785.0 ],
		"openrect" : [ 0.0, 0.0, 0.0, 0.0 ],
		"openinpresentation" : 0,
		"default_fontsize" : 10.0,
		"default_fontface" : 0,
		"default_fontname" : "Verdana",
		"gridonopen" : 0,
		"gridsize" : [ 5.0, 5.0 ],
		"gridsnaponopen" : 0,
		"toolbarvisible" : 1,
		"boxanimatetime" : 200,
		"imprint" : 0,
		"metadata" : [  ],
		"boxes" : [ 			{
				"box" : 				{
					"maxclass" : "newobj",
					"text" : "jcom.parameter filter/gain.0 @type msg_float @range/bounds -24 24 @range/clipmode both @ramp/drive scheduler @repetitions/allow 0 @description Gain (dB)",
					"linecount" : 2,
					"id" : "obj-25",
					"fontname" : "Verdana",
					"numinlets" : 1,
					"numoutlets" : 3,
					"patching_rect" : [ 480.0, 465.0, 520.0, 31.0 ],
					"fontsize" : 10.0,
					"outlettype" : [ "", "", "" ]
				}

			}
, 			{
				"box" : 				{
					"maxclass" : "newobj",
					"text" : "sprintf name filter/freq.%ld",
					"id" : "obj-7",
					"fontname" : "Verdana",
					"numinlets" : 1,
					"numoutlets" : 1,
					"patching_rect" : [ 1015.0, 475.0, 149.0, 19.0 ],
					"fontsize" : 10.0,
					"outlettype" : [ "" ]
				}

			}
, 			{
				"box" : 				{
					"maxclass" : "newobj",
					"text" : "sprintf name filter/gain.%ld",
					"id" : "obj-6",
					"fontname" : "Verdana",
					"numinlets" : 1,
					"numoutlets" : 1,
					"patching_rect" : [ 1015.0, 425.0, 150.0, 19.0 ],
					"fontsize" : 10.0,
					"outlettype" : [ "" ]
				}

			}
, 			{
				"box" : 				{
					"maxclass" : "newobj",
					"text" : "sprintf name filter/Q.%ld",
					"id" : "obj-5",
					"fontname" : "Verdana",
					"numinlets" : 1,
					"numoutlets" : 1,
					"patching_rect" : [ 1015.0, 355.0, 137.0, 19.0 ],
					"fontsize" : 10.0,
					"outlettype" : [ "" ]
				}

			}
, 			{
				"box" : 				{
					"maxclass" : "newobj",
					"text" : "sprintf name filter/type.%ld",
					"id" : "obj-4",
					"fontname" : "Verdana",
					"numinlets" : 1,
					"numoutlets" : 1,
					"patching_rect" : [ 1015.0, 195.0, 151.0, 19.0 ],
					"fontsize" : 10.0,
					"outlettype" : [ "" ]
				}

			}
, 			{
				"box" : 				{
					"maxclass" : "umenu",
					"varname" : "menu",
					"pattrmode" : 1,
					"id" : "obj-2",
					"fontname" : "Verdana",
					"arrowlink" : 1,
					"numinlets" : 1,
					"types" : [  ],
					"numoutlets" : 3,
					"patching_rect" : [ 415.0, 310.0, 87.0, 19.0 ],
					"fontsize" : 10.0,
					"items" : [ "lowpass", ",", "highpass", ",", "bandpass", ",", "bandstop", ",", "peaknotch", ",", "lowshelf", ",", "highshelf" ],
					"outlettype" : [ "int", "", "" ]
				}

			}
, 			{
				"box" : 				{
					"maxclass" : "newobj",
					"varname" : "in2[1]",
					"text" : "in 4",
					"id" : "obj-3",
					"fontname" : "Verdana",
					"numinlets" : 1,
					"numoutlets" : 1,
					"patching_rect" : [ 875.0, 155.0, 31.0, 19.0 ],
					"fontsize" : 10.0,
					"outlettype" : [ "" ],
					"saved_object_attributes" : 					{
						"attr_comment" : ""
					}

				}

			}
, 			{
				"box" : 				{
					"maxclass" : "newobj",
					"varname" : "out2",
					"text" : "out 2",
					"id" : "obj-8",
					"fontname" : "Verdana",
					"numinlets" : 1,
					"numoutlets" : 0,
					"patching_rect" : [ 455.0, 620.0, 41.0, 19.0 ],
					"fontsize" : 10.0,
					"saved_object_attributes" : 					{
						"attr_comment" : ""
					}

				}

			}
, 			{
				"box" : 				{
					"maxclass" : "newobj",
					"varname" : "ttt",
					"text" : "t 1 s 0 b",
					"id" : "obj-9",
					"fontname" : "Verdana",
					"numinlets" : 1,
					"numoutlets" : 4,
					"patching_rect" : [ 570.0, 290.0, 79.0, 19.0 ],
					"fontsize" : 10.0,
					"outlettype" : [ "int", "", "int", "bang" ]
				}

			}
, 			{
				"box" : 				{
					"maxclass" : "newobj",
					"varname" : "decode",
					"text" : "p DecodeFilterGraph",
					"id" : "obj-10",
					"fontname" : "Verdana",
					"numinlets" : 4,
					"numoutlets" : 3,
					"patching_rect" : [ 267.0, 354.0, 121.0, 19.0 ],
					"fontsize" : 10.0,
					"outlettype" : [ "", "", "" ],
					"patcher" : 					{
						"fileversion" : 1,
						"rect" : [ 564.0, 189.0, 537.0, 332.0 ],
						"bglocked" : 0,
						"defrect" : [ 564.0, 189.0, 537.0, 332.0 ],
						"openrect" : [ 0.0, 0.0, 0.0, 0.0 ],
						"openinpresentation" : 0,
						"default_fontsize" : 12.0,
						"default_fontface" : 0,
						"default_fontname" : "Arial",
						"gridonopen" : 0,
						"gridsize" : [ 5.0, 5.0 ],
						"gridsnaponopen" : 0,
						"toolbarvisible" : 1,
						"boxanimatetime" : 200,
						"imprint" : 0,
						"metadata" : [  ],
						"boxes" : [ 							{
								"box" : 								{
									"maxclass" : "comment",
									"text" : "Else \"Restore Default Settings\" will not function properly as past values for q, filtergain and cf maintained in FilterGraph will overrule the attempt to reset values to defaults.",
									"linecount" : 2,
									"frgb" : [ 1.0, 1.0, 1.0, 1.0 ],
									"id" : "obj-1",
									"fontname" : "Verdana",
									"numinlets" : 1,
									"numoutlets" : 0,
									"patching_rect" : [ 34.0, 260.0, 478.0, 31.0 ],
									"fontsize" : 10.0
								}

							}
, 							{
								"box" : 								{
									"maxclass" : "outlet",
									"id" : "obj-2",
									"numinlets" : 1,
									"numoutlets" : 0,
									"patching_rect" : [ 170.0, 190.0, 23.0, 23.0 ],
									"comment" : ""
								}

							}
, 							{
								"box" : 								{
									"maxclass" : "outlet",
									"id" : "obj-3",
									"numinlets" : 1,
									"numoutlets" : 0,
									"patching_rect" : [ 105.0, 190.0, 23.0, 23.0 ],
									"comment" : ""
								}

							}
, 							{
								"box" : 								{
									"maxclass" : "outlet",
									"id" : "obj-4",
									"numinlets" : 1,
									"numoutlets" : 0,
									"patching_rect" : [ 35.0, 190.0, 23.0, 23.0 ],
									"comment" : ""
								}

							}
, 							{
								"box" : 								{
									"maxclass" : "newobj",
									"text" : "atodb",
									"id" : "obj-5",
									"fontname" : "Verdana",
									"numinlets" : 1,
									"numoutlets" : 1,
									"patching_rect" : [ 105.0, 155.0, 41.0, 19.0 ],
									"fontsize" : 10.0,
									"outlettype" : [ "" ]
								}

							}
, 							{
								"box" : 								{
									"maxclass" : "inlet",
									"id" : "obj-6",
									"numinlets" : 0,
									"numoutlets" : 1,
									"patching_rect" : [ 210.0, 35.0, 23.0, 23.0 ],
									"outlettype" : [ "float" ],
									"comment" : ""
								}

							}
, 							{
								"box" : 								{
									"maxclass" : "inlet",
									"id" : "obj-7",
									"numinlets" : 0,
									"numoutlets" : 1,
									"patching_rect" : [ 145.0, 35.0, 23.0, 23.0 ],
									"outlettype" : [ "float" ],
									"comment" : ""
								}

							}
, 							{
								"box" : 								{
									"maxclass" : "inlet",
									"id" : "obj-8",
									"numinlets" : 0,
									"numoutlets" : 1,
									"patching_rect" : [ 75.0, 35.0, 23.0, 23.0 ],
									"outlettype" : [ "float" ],
									"comment" : ""
								}

							}
, 							{
								"box" : 								{
									"maxclass" : "newobj",
									"text" : "gate 1 1",
									"id" : "obj-9",
									"fontname" : "Verdana",
									"numinlets" : 2,
									"numoutlets" : 1,
									"patching_rect" : [ 170.0, 125.0, 59.0, 19.0 ],
									"fontsize" : 10.0,
									"outlettype" : [ "" ]
								}

							}
, 							{
								"box" : 								{
									"maxclass" : "newobj",
									"text" : "gate 1 1",
									"id" : "obj-10",
									"fontname" : "Verdana",
									"numinlets" : 2,
									"numoutlets" : 1,
									"patching_rect" : [ 105.0, 125.0, 59.0, 19.0 ],
									"fontsize" : 10.0,
									"outlettype" : [ "" ]
								}

							}
, 							{
								"box" : 								{
									"maxclass" : "newobj",
									"text" : "gate 1 1",
									"id" : "obj-11",
									"fontname" : "Verdana",
									"numinlets" : 2,
									"numoutlets" : 1,
									"patching_rect" : [ 34.0, 128.0, 59.0, 19.0 ],
									"fontsize" : 10.0,
									"outlettype" : [ "" ]
								}

							}
, 							{
								"box" : 								{
									"maxclass" : "inlet",
									"id" : "obj-12",
									"numinlets" : 0,
									"numoutlets" : 1,
									"patching_rect" : [ 290.0, 35.0, 23.0, 23.0 ],
									"outlettype" : [ "int" ],
									"comment" : ""
								}

							}
, 							{
								"box" : 								{
									"maxclass" : "comment",
									"text" : "Output from FilterFraph has to be muted when filtertype is changes.",
									"frgb" : [ 1.0, 1.0, 1.0, 1.0 ],
									"id" : "obj-13",
									"fontname" : "Verdana",
									"numinlets" : 1,
									"numoutlets" : 0,
									"patching_rect" : [ 34.0, 238.0, 399.0, 19.0 ],
									"fontsize" : 10.0
								}

							}
 ],
						"lines" : [ 							{
								"patchline" : 								{
									"source" : [ "obj-6", 0 ],
									"destination" : [ "obj-9", 1 ],
									"hidden" : 0,
									"midpoints" : [  ]
								}

							}
, 							{
								"patchline" : 								{
									"source" : [ "obj-9", 0 ],
									"destination" : [ "obj-2", 0 ],
									"hidden" : 0,
									"midpoints" : [  ]
								}

							}
, 							{
								"patchline" : 								{
									"source" : [ "obj-12", 0 ],
									"destination" : [ "obj-9", 0 ],
									"hidden" : 0,
									"midpoints" : [  ]
								}

							}
, 							{
								"patchline" : 								{
									"source" : [ "obj-7", 0 ],
									"destination" : [ "obj-10", 1 ],
									"hidden" : 0,
									"midpoints" : [  ]
								}

							}
, 							{
								"patchline" : 								{
									"source" : [ "obj-5", 0 ],
									"destination" : [ "obj-3", 0 ],
									"hidden" : 0,
									"midpoints" : [  ]
								}

							}
, 							{
								"patchline" : 								{
									"source" : [ "obj-10", 0 ],
									"destination" : [ "obj-5", 0 ],
									"hidden" : 0,
									"midpoints" : [  ]
								}

							}
, 							{
								"patchline" : 								{
									"source" : [ "obj-12", 0 ],
									"destination" : [ "obj-10", 0 ],
									"hidden" : 0,
									"midpoints" : [  ]
								}

							}
, 							{
								"patchline" : 								{
									"source" : [ "obj-8", 0 ],
									"destination" : [ "obj-11", 1 ],
									"hidden" : 0,
									"midpoints" : [  ]
								}

							}
, 							{
								"patchline" : 								{
									"source" : [ "obj-11", 0 ],
									"destination" : [ "obj-4", 0 ],
									"hidden" : 0,
									"midpoints" : [  ]
								}

							}
, 							{
								"patchline" : 								{
									"source" : [ "obj-12", 0 ],
									"destination" : [ "obj-11", 0 ],
									"hidden" : 0,
									"midpoints" : [  ]
								}

							}
 ]
					}
,
					"saved_object_attributes" : 					{
						"default_fontface" : 0,
						"default_fontname" : "Arial",
						"fontname" : "Arial",
						"default_fontsize" : 12.0,
						"globalpatchername" : "",
						"fontface" : 0,
						"fontsize" : 12.0
					}

				}

			}
, 			{
				"box" : 				{
					"maxclass" : "newobj",
					"varname" : "prepare",
					"text" : "p PrepareForFiltergraph~",
					"id" : "obj-11",
					"fontname" : "Verdana",
					"numinlets" : 5,
					"numoutlets" : 1,
					"patching_rect" : [ 265.0, 590.0, 153.0, 19.0 ],
					"fontsize" : 10.0,
					"outlettype" : [ "" ],
					"patcher" : 					{
						"fileversion" : 1,
						"rect" : [ 91.0, 247.0, 866.0, 427.0 ],
						"bglocked" : 0,
						"defrect" : [ 91.0, 247.0, 866.0, 427.0 ],
						"openrect" : [ 0.0, 0.0, 0.0, 0.0 ],
						"openinpresentation" : 0,
						"default_fontsize" : 12.0,
						"default_fontface" : 0,
						"default_fontname" : "Arial",
						"gridonopen" : 0,
						"gridsize" : [ 5.0, 5.0 ],
						"gridsnaponopen" : 0,
						"toolbarvisible" : 1,
						"boxanimatetime" : 200,
						"imprint" : 0,
						"metadata" : [  ],
						"boxes" : [ 							{
								"box" : 								{
									"maxclass" : "newobj",
									"text" : "t b f",
									"id" : "obj-24",
									"fontname" : "Arial",
									"numinlets" : 1,
									"numoutlets" : 2,
									"patching_rect" : [ 205.0, 175.0, 30.0, 18.0 ],
									"fontsize" : 10.0,
									"outlettype" : [ "bang", "float" ]
								}

							}
, 							{
								"box" : 								{
									"maxclass" : "newobj",
									"text" : "t b f",
									"id" : "obj-23",
									"fontname" : "Arial",
									"numinlets" : 1,
									"numoutlets" : 2,
									"patching_rect" : [ 275.0, 175.0, 30.0, 18.0 ],
									"fontsize" : 10.0,
									"outlettype" : [ "bang", "float" ]
								}

							}
, 							{
								"box" : 								{
									"maxclass" : "newobj",
									"text" : "t b f",
									"id" : "obj-22",
									"fontname" : "Arial",
									"numinlets" : 1,
									"numoutlets" : 2,
									"patching_rect" : [ 355.0, 175.0, 30.0, 18.0 ],
									"fontsize" : 10.0,
									"outlettype" : [ "bang", "float" ]
								}

							}
, 							{
								"box" : 								{
									"maxclass" : "newobj",
									"text" : "t b i",
									"id" : "obj-21",
									"fontname" : "Arial",
									"numinlets" : 1,
									"numoutlets" : 2,
									"patching_rect" : [ 95.0, 175.0, 30.0, 18.0 ],
									"fontsize" : 10.0,
									"outlettype" : [ "bang", "int" ]
								}

							}
, 							{
								"box" : 								{
									"maxclass" : "newobj",
									"text" : "- 1",
									"id" : "obj-1",
									"fontname" : "Verdana",
									"numinlets" : 2,
									"numoutlets" : 1,
									"patching_rect" : [ 30.0, 260.0, 36.0, 19.0 ],
									"fontsize" : 10.0,
									"outlettype" : [ "int" ]
								}

							}
, 							{
								"box" : 								{
									"maxclass" : "newobj",
									"text" : "prepend symbol",
									"id" : "obj-2",
									"fontname" : "Verdana",
									"numinlets" : 1,
									"numoutlets" : 1,
									"patching_rect" : [ 95.0, 65.0, 98.0, 19.0 ],
									"fontsize" : 10.0,
									"outlettype" : [ "" ]
								}

							}
, 							{
								"box" : 								{
									"maxclass" : "newobj",
									"text" : "prepend setfilter",
									"id" : "obj-3",
									"fontname" : "Verdana",
									"numinlets" : 1,
									"numoutlets" : 1,
									"patching_rect" : [ 30.0, 310.0, 109.0, 19.0 ],
									"fontsize" : 10.0,
									"outlettype" : [ "" ]
								}

							}
, 							{
								"box" : 								{
									"maxclass" : "newobj",
									"text" : "i",
									"id" : "obj-5",
									"fontname" : "Verdana",
									"numinlets" : 2,
									"numoutlets" : 1,
									"patching_rect" : [ 30.0, 235.0, 31.0, 19.0 ],
									"fontsize" : 10.0,
									"outlettype" : [ "int" ]
								}

							}
, 							{
								"box" : 								{
									"maxclass" : "umenu",
									"varname" : "menu",
									"pattrmode" : 1,
									"id" : "obj-6",
									"arrow" : 0,
									"fontname" : "Verdana",
									"arrowlink" : 1,
									"numinlets" : 1,
									"types" : [  ],
									"numoutlets" : 3,
									"patching_rect" : [ 95.0, 90.0, 59.0, 19.0 ],
									"fontsize" : 10.0,
									"items" : [ "lowpass", ",", "highpass", ",", "bandpass", ",", "bandstop", ",", "peaknotch", ",", "lowshelf", ",", "highshelf" ],
									"outlettype" : [ "int", "", "" ]
								}

							}
, 							{
								"box" : 								{
									"maxclass" : "newobj",
									"text" : "route set",
									"id" : "obj-7",
									"fontname" : "Verdana",
									"numinlets" : 1,
									"numoutlets" : 2,
									"patching_rect" : [ 95.0, 40.0, 63.0, 19.0 ],
									"fontsize" : 10.0,
									"outlettype" : [ "", "" ]
								}

							}
, 							{
								"box" : 								{
									"maxclass" : "newobj",
									"text" : "+ 1",
									"id" : "obj-8",
									"fontname" : "Verdana",
									"numinlets" : 2,
									"numoutlets" : 1,
									"patching_rect" : [ 95.0, 115.0, 36.0, 19.0 ],
									"fontsize" : 10.0,
									"outlettype" : [ "int" ]
								}

							}
, 							{
								"box" : 								{
									"maxclass" : "inlet",
									"id" : "obj-9",
									"numinlets" : 0,
									"numoutlets" : 1,
									"patching_rect" : [ 565.0, 10.0, 26.0, 26.0 ],
									"outlettype" : [ "int" ],
									"comment" : ""
								}

							}
, 							{
								"box" : 								{
									"maxclass" : "inlet",
									"id" : "obj-10",
									"numinlets" : 0,
									"numoutlets" : 1,
									"patching_rect" : [ 95.0, 10.0, 26.0, 26.0 ],
									"outlettype" : [ "" ],
									"comment" : ""
								}

							}
, 							{
								"box" : 								{
									"maxclass" : "newobj",
									"text" : "pack 1 5 1 0 0 404. 0.999016 2.5 0. 0. 0. 0. 0. 0.",
									"id" : "obj-11",
									"fontname" : "Verdana",
									"numinlets" : 14,
									"numoutlets" : 1,
									"patching_rect" : [ 30.0, 285.0, 422.0, 19.0 ],
									"fontsize" : 10.0,
									"outlettype" : [ "" ]
								}

							}
, 							{
								"box" : 								{
									"maxclass" : "newobj",
									"text" : "dbtoa",
									"id" : "obj-12",
									"fontname" : "Verdana",
									"numinlets" : 1,
									"numoutlets" : 1,
									"patching_rect" : [ 275.0, 150.0, 41.0, 19.0 ],
									"fontsize" : 10.0,
									"outlettype" : [ "" ]
								}

							}
, 							{
								"box" : 								{
									"maxclass" : "outlet",
									"id" : "obj-13",
									"numinlets" : 1,
									"numoutlets" : 0,
									"patching_rect" : [ 30.0, 340.0, 25.0, 25.0 ],
									"comment" : ""
								}

							}
, 							{
								"box" : 								{
									"maxclass" : "newobj",
									"text" : "route set",
									"id" : "obj-14",
									"fontname" : "Verdana",
									"numinlets" : 1,
									"numoutlets" : 2,
									"patching_rect" : [ 355.0, 125.0, 63.0, 19.0 ],
									"fontsize" : 10.0,
									"outlettype" : [ "", "" ]
								}

							}
, 							{
								"box" : 								{
									"maxclass" : "inlet",
									"id" : "obj-15",
									"numinlets" : 0,
									"numoutlets" : 1,
									"patching_rect" : [ 205.0, 10.0, 26.0, 26.0 ],
									"outlettype" : [ "" ],
									"comment" : ""
								}

							}
, 							{
								"box" : 								{
									"maxclass" : "newobj",
									"text" : "route set",
									"id" : "obj-16",
									"fontname" : "Verdana",
									"numinlets" : 1,
									"numoutlets" : 2,
									"patching_rect" : [ 275.0, 125.0, 63.0, 19.0 ],
									"fontsize" : 10.0,
									"outlettype" : [ "", "" ]
								}

							}
, 							{
								"box" : 								{
									"maxclass" : "inlet",
									"id" : "obj-17",
									"numinlets" : 0,
									"numoutlets" : 1,
									"patching_rect" : [ 275.0, 10.0, 26.0, 26.0 ],
									"outlettype" : [ "" ],
									"comment" : ""
								}

							}
, 							{
								"box" : 								{
									"maxclass" : "newobj",
									"text" : "route set",
									"id" : "obj-18",
									"fontname" : "Verdana",
									"numinlets" : 1,
									"numoutlets" : 2,
									"patching_rect" : [ 205.0, 125.0, 63.0, 19.0 ],
									"fontsize" : 10.0,
									"outlettype" : [ "", "" ]
								}

							}
, 							{
								"box" : 								{
									"maxclass" : "inlet",
									"id" : "obj-19",
									"numinlets" : 0,
									"numoutlets" : 1,
									"patching_rect" : [ 340.0, 10.0, 26.0, 26.0 ],
									"outlettype" : [ "" ],
									"comment" : ""
								}

							}
, 							{
								"box" : 								{
									"maxclass" : "comment",
									"text" : "Get rid of set",
									"frgb" : [ 1.0, 1.0, 1.0, 1.0 ],
									"id" : "obj-20",
									"fontname" : "Verdana",
									"numinlets" : 1,
									"numoutlets" : 0,
									"patching_rect" : [ 425.0, 125.0, 88.0, 19.0 ],
									"fontsize" : 10.0
								}

							}
 ],
						"lines" : [ 							{
								"patchline" : 								{
									"source" : [ "obj-21", 1 ],
									"destination" : [ "obj-11", 1 ],
									"hidden" : 0,
									"midpoints" : [ 115.5, 266.0, 70.5, 266.0 ]
								}

							}
, 							{
								"patchline" : 								{
									"source" : [ "obj-9", 0 ],
									"destination" : [ "obj-5", 1 ],
									"hidden" : 0,
									"midpoints" : [ 574.5, 232.0, 51.5, 232.0 ]
								}

							}
, 							{
								"patchline" : 								{
									"source" : [ "obj-15", 0 ],
									"destination" : [ "obj-14", 0 ],
									"hidden" : 0,
									"midpoints" : [  ]
								}

							}
, 							{
								"patchline" : 								{
									"source" : [ "obj-16", 0 ],
									"destination" : [ "obj-12", 0 ],
									"hidden" : 0,
									"midpoints" : [  ]
								}

							}
, 							{
								"patchline" : 								{
									"source" : [ "obj-17", 0 ],
									"destination" : [ "obj-16", 0 ],
									"hidden" : 0,
									"midpoints" : [  ]
								}

							}
, 							{
								"patchline" : 								{
									"source" : [ "obj-19", 0 ],
									"destination" : [ "obj-18", 0 ],
									"hidden" : 0,
									"midpoints" : [  ]
								}

							}
, 							{
								"patchline" : 								{
									"source" : [ "obj-7", 0 ],
									"destination" : [ "obj-2", 0 ],
									"hidden" : 0,
									"midpoints" : [  ]
								}

							}
, 							{
								"patchline" : 								{
									"source" : [ "obj-6", 0 ],
									"destination" : [ "obj-8", 0 ],
									"hidden" : 0,
									"midpoints" : [  ]
								}

							}
, 							{
								"patchline" : 								{
									"source" : [ "obj-2", 0 ],
									"destination" : [ "obj-6", 0 ],
									"hidden" : 0,
									"midpoints" : [  ]
								}

							}
, 							{
								"patchline" : 								{
									"source" : [ "obj-10", 0 ],
									"destination" : [ "obj-7", 0 ],
									"hidden" : 0,
									"midpoints" : [  ]
								}

							}
, 							{
								"patchline" : 								{
									"source" : [ "obj-3", 0 ],
									"destination" : [ "obj-13", 0 ],
									"hidden" : 0,
									"midpoints" : [  ]
								}

							}
, 							{
								"patchline" : 								{
									"source" : [ "obj-11", 0 ],
									"destination" : [ "obj-3", 0 ],
									"hidden" : 0,
									"midpoints" : [  ]
								}

							}
, 							{
								"patchline" : 								{
									"source" : [ "obj-1", 0 ],
									"destination" : [ "obj-11", 0 ],
									"hidden" : 0,
									"midpoints" : [  ]
								}

							}
, 							{
								"patchline" : 								{
									"source" : [ "obj-5", 0 ],
									"destination" : [ "obj-1", 0 ],
									"hidden" : 0,
									"midpoints" : [  ]
								}

							}
, 							{
								"patchline" : 								{
									"source" : [ "obj-14", 0 ],
									"destination" : [ "obj-22", 0 ],
									"hidden" : 0,
									"midpoints" : [  ]
								}

							}
, 							{
								"patchline" : 								{
									"source" : [ "obj-22", 1 ],
									"destination" : [ "obj-11", 7 ],
									"hidden" : 0,
									"midpoints" : [ 375.5, 270.0, 256.5, 270.0 ]
								}

							}
, 							{
								"patchline" : 								{
									"source" : [ "obj-12", 0 ],
									"destination" : [ "obj-23", 0 ],
									"hidden" : 0,
									"midpoints" : [  ]
								}

							}
, 							{
								"patchline" : 								{
									"source" : [ "obj-23", 1 ],
									"destination" : [ "obj-11", 6 ],
									"hidden" : 0,
									"midpoints" : [ 295.5, 265.0, 225.5, 265.0 ]
								}

							}
, 							{
								"patchline" : 								{
									"source" : [ "obj-18", 0 ],
									"destination" : [ "obj-24", 0 ],
									"hidden" : 0,
									"midpoints" : [  ]
								}

							}
, 							{
								"patchline" : 								{
									"source" : [ "obj-24", 1 ],
									"destination" : [ "obj-11", 5 ],
									"hidden" : 0,
									"midpoints" : [ 225.5, 261.0, 194.5, 261.0 ]
								}

							}
, 							{
								"patchline" : 								{
									"source" : [ "obj-24", 0 ],
									"destination" : [ "obj-5", 0 ],
									"hidden" : 0,
									"midpoints" : [ 214.5, 206.0, 39.5, 206.0 ]
								}

							}
, 							{
								"patchline" : 								{
									"source" : [ "obj-23", 0 ],
									"destination" : [ "obj-5", 0 ],
									"hidden" : 0,
									"midpoints" : [ 284.5, 209.0, 39.5, 209.0 ]
								}

							}
, 							{
								"patchline" : 								{
									"source" : [ "obj-22", 0 ],
									"destination" : [ "obj-5", 0 ],
									"hidden" : 0,
									"midpoints" : [ 364.5, 212.0, 39.5, 212.0 ]
								}

							}
, 							{
								"patchline" : 								{
									"source" : [ "obj-8", 0 ],
									"destination" : [ "obj-21", 0 ],
									"hidden" : 0,
									"midpoints" : [  ]
								}

							}
, 							{
								"patchline" : 								{
									"source" : [ "obj-21", 0 ],
									"destination" : [ "obj-5", 0 ],
									"hidden" : 0,
									"midpoints" : [ 104.5, 203.0, 39.5, 203.0 ]
								}

							}
 ]
					}
,
					"saved_object_attributes" : 					{
						"default_fontface" : 0,
						"default_fontname" : "Arial",
						"fontname" : "Arial",
						"default_fontsize" : 12.0,
						"globalpatchername" : "",
						"fontface" : 0,
						"fontsize" : 12.0
					}

				}

			}
, 			{
				"box" : 				{
					"maxclass" : "newobj",
					"text" : "out 1",
					"id" : "obj-12",
					"fontname" : "Verdana",
					"numinlets" : 1,
					"numoutlets" : 0,
					"patching_rect" : [ 265.0, 620.0, 41.0, 19.0 ],
					"fontsize" : 10.0,
					"saved_object_attributes" : 					{
						"attr_comment" : ""
					}

				}

			}
, 			{
				"box" : 				{
					"maxclass" : "newobj",
					"text" : "sprintf send %sfilter_active",
					"linecount" : 4,
					"id" : "obj-13",
					"fontname" : "Verdana",
					"numinlets" : 1,
					"numoutlets" : 1,
					"patching_rect" : [ 35.0, 290.0, 52.0, 55.0 ],
					"fontsize" : 10.0,
					"outlettype" : [ "" ]
				}

			}
, 			{
				"box" : 				{
					"maxclass" : "newobj",
					"varname" : "in2",
					"text" : "in 2",
					"id" : "obj-14",
					"fontname" : "Verdana",
					"numinlets" : 1,
					"numoutlets" : 1,
					"patching_rect" : [ 415.0, 145.0, 31.0, 19.0 ],
					"fontsize" : 10.0,
					"outlettype" : [ "" ],
					"saved_object_attributes" : 					{
						"attr_comment" : ""
					}

				}

			}
, 			{
				"box" : 				{
					"maxclass" : "newobj",
					"text" : "forward",
					"id" : "obj-15",
					"fontname" : "Verdana",
					"numinlets" : 1,
					"numoutlets" : 0,
					"patching_rect" : [ 109.0, 381.0, 52.0, 19.0 ],
					"fontsize" : 10.0
				}

			}
, 			{
				"box" : 				{
					"maxclass" : "newobj",
					"text" : "in 3",
					"id" : "obj-16",
					"fontname" : "Verdana",
					"numinlets" : 1,
					"numoutlets" : 1,
					"patching_rect" : [ 35.0, 145.0, 31.0, 19.0 ],
					"fontsize" : 10.0,
					"outlettype" : [ "" ],
					"saved_object_attributes" : 					{
						"attr_comment" : ""
					}

				}

			}
, 			{
				"box" : 				{
					"maxclass" : "newobj",
					"text" : "i",
					"id" : "obj-17",
					"fontname" : "Verdana",
					"numinlets" : 2,
					"numoutlets" : 1,
					"patching_rect" : [ 109.0, 348.0, 85.0, 19.0 ],
					"fontsize" : 10.0,
					"outlettype" : [ "int" ]
				}

			}
, 			{
				"box" : 				{
					"maxclass" : "newobj",
					"text" : "loadbang",
					"id" : "obj-18",
					"fontname" : "Verdana",
					"numinlets" : 1,
					"numoutlets" : 1,
					"patching_rect" : [ 1185.0, 40.0, 77.0, 19.0 ],
					"fontsize" : 10.0,
					"outlettype" : [ "bang" ]
				}

			}
, 			{
				"box" : 				{
					"maxclass" : "newobj",
					"text" : "thispoly~",
					"id" : "obj-19",
					"fontname" : "Verdana",
					"numinlets" : 1,
					"numoutlets" : 2,
					"patching_rect" : [ 1185.0, 65.0, 65.0, 19.0 ],
					"fontsize" : 10.0,
					"outlettype" : [ "int", "int" ]
				}

			}
, 			{
				"box" : 				{
					"maxclass" : "newobj",
					"text" : "t b l",
					"id" : "obj-20",
					"fontname" : "Verdana",
					"numinlets" : 1,
					"numoutlets" : 2,
					"patching_rect" : [ 109.0, 271.0, 177.0, 19.0 ],
					"fontsize" : 10.0,
					"outlettype" : [ "bang", "" ]
				}

			}
, 			{
				"box" : 				{
					"maxclass" : "newobj",
					"text" : "zl change",
					"id" : "obj-21",
					"fontname" : "Verdana",
					"numinlets" : 2,
					"numoutlets" : 2,
					"patching_rect" : [ 110.0, 245.0, 60.0, 19.0 ],
					"fontsize" : 10.0,
					"outlettype" : [ "", "" ]
				}

			}
, 			{
				"box" : 				{
					"maxclass" : "newobj",
					"text" : "in 1",
					"id" : "obj-22",
					"fontname" : "Verdana",
					"numinlets" : 1,
					"numoutlets" : 1,
					"patching_rect" : [ 110.0, 145.0, 31.0, 19.0 ],
					"fontsize" : 10.0,
					"outlettype" : [ "" ],
					"saved_object_attributes" : 					{
						"attr_comment" : ""
					}

				}

			}
, 			{
				"box" : 				{
					"maxclass" : "newobj",
					"text" : "unpack 0. 0. 0.",
					"id" : "obj-23",
					"fontname" : "Verdana",
					"numinlets" : 1,
					"numoutlets" : 3,
					"patching_rect" : [ 267.0, 309.0, 87.0, 19.0 ],
					"fontsize" : 10.0,
					"outlettype" : [ "float", "float", "float" ]
				}

			}
, 			{
				"box" : 				{
					"maxclass" : "newobj",
					"text" : "jcom.parameter filter/freq.0 @type msg_float @range/bounds 30. 11025. @range/clipmode both @ramp/drive scheduler @repetitions/allow 0 @description Center frequency (Hz)",
					"linecount" : 2,
					"id" : "obj-24",
					"fontname" : "Verdana",
					"numinlets" : 1,
					"numoutlets" : 3,
					"patching_rect" : [ 480.0, 520.0, 520.0, 31.0 ],
					"fontsize" : 10.0,
					"outlettype" : [ "", "", "" ]
				}

			}
, 			{
				"box" : 				{
					"maxclass" : "newobj",
					"text" : "jcom.parameter filter/Q.0 @type msg_float @ramp/drive scheduler @range/bounds 0. 100. @range/clipmode both @repetitions/allow 0 @description Resonance (Q)",
					"linecount" : 2,
					"id" : "obj-26",
					"fontname" : "Verdana",
					"numinlets" : 1,
					"numoutlets" : 3,
					"patching_rect" : [ 480.0, 390.0, 525.0, 31.0 ],
					"fontsize" : 10.0,
					"outlettype" : [ "", "", "" ]
				}

			}
, 			{
				"box" : 				{
					"maxclass" : "newobj",
					"text" : "jcom.parameter filter/type.0 @type msg_symbol @description What kind of filter to use. Possible values: lowpass | highpass | bandpass | bandstop | peaknotch | lowshelf | highshelf",
					"linecount" : 3,
					"id" : "obj-27",
					"fontname" : "Verdana",
					"numinlets" : 1,
					"numoutlets" : 3,
					"patching_rect" : [ 415.0, 230.0, 333.0, 43.0 ],
					"fontsize" : 10.0,
					"outlettype" : [ "", "", "" ]
				}

			}
 ],
		"lines" : [ 			{
				"patchline" : 				{
					"source" : [ "obj-24", 0 ],
					"destination" : [ "obj-11", 3 ],
					"hidden" : 0,
					"midpoints" : [  ]
				}

			}
, 			{
				"patchline" : 				{
					"source" : [ "obj-10", 0 ],
					"destination" : [ "obj-24", 0 ],
					"hidden" : 0,
					"midpoints" : [  ]
				}

			}
, 			{
				"patchline" : 				{
					"source" : [ "obj-7", 0 ],
					"destination" : [ "obj-24", 0 ],
					"hidden" : 0,
					"midpoints" : [ 1024.5, 510.0, 489.5, 510.0 ]
				}

			}
, 			{
				"patchline" : 				{
					"source" : [ "obj-25", 0 ],
					"destination" : [ "obj-11", 2 ],
					"hidden" : 0,
					"midpoints" : [  ]
				}

			}
, 			{
				"patchline" : 				{
					"source" : [ "obj-10", 1 ],
					"destination" : [ "obj-25", 0 ],
					"hidden" : 0,
					"midpoints" : [  ]
				}

			}
, 			{
				"patchline" : 				{
					"source" : [ "obj-6", 0 ],
					"destination" : [ "obj-25", 0 ],
					"hidden" : 0,
					"midpoints" : [ 1024.5, 457.0, 489.5, 457.0 ]
				}

			}
, 			{
				"patchline" : 				{
					"source" : [ "obj-26", 0 ],
					"destination" : [ "obj-11", 1 ],
					"hidden" : 0,
					"midpoints" : [  ]
				}

			}
, 			{
				"patchline" : 				{
					"source" : [ "obj-10", 2 ],
					"destination" : [ "obj-26", 0 ],
					"hidden" : 0,
					"midpoints" : [  ]
				}

			}
, 			{
				"patchline" : 				{
					"source" : [ "obj-5", 0 ],
					"destination" : [ "obj-26", 0 ],
					"hidden" : 0,
					"midpoints" : [ 1024.5, 384.0, 489.5, 384.0 ]
				}

			}
, 			{
				"patchline" : 				{
					"source" : [ "obj-27", 0 ],
					"destination" : [ "obj-2", 0 ],
					"hidden" : 0,
					"midpoints" : [  ]
				}

			}
, 			{
				"patchline" : 				{
					"source" : [ "obj-27", 0 ],
					"destination" : [ "obj-11", 0 ],
					"hidden" : 0,
					"midpoints" : [  ]
				}

			}
, 			{
				"patchline" : 				{
					"source" : [ "obj-27", 1 ],
					"destination" : [ "obj-9", 0 ],
					"hidden" : 0,
					"midpoints" : [  ]
				}

			}
, 			{
				"patchline" : 				{
					"source" : [ "obj-14", 0 ],
					"destination" : [ "obj-27", 0 ],
					"hidden" : 0,
					"midpoints" : [  ]
				}

			}
, 			{
				"patchline" : 				{
					"source" : [ "obj-4", 0 ],
					"destination" : [ "obj-27", 0 ],
					"hidden" : 0,
					"midpoints" : [ 1024.5, 225.0, 424.5, 225.0 ]
				}

			}
, 			{
				"patchline" : 				{
					"source" : [ "obj-19", 0 ],
					"destination" : [ "obj-17", 1 ],
					"hidden" : 0,
					"midpoints" : [ 1194.5, 114.0, 184.5, 114.0 ]
				}

			}
, 			{
				"patchline" : 				{
					"source" : [ "obj-19", 0 ],
					"destination" : [ "obj-7", 0 ],
					"hidden" : 0,
					"midpoints" : [ 1194.5, 460.0, 1024.5, 460.0 ]
				}

			}
, 			{
				"patchline" : 				{
					"source" : [ "obj-19", 0 ],
					"destination" : [ "obj-6", 0 ],
					"hidden" : 0,
					"midpoints" : [ 1194.5, 412.0, 1024.5, 412.0 ]
				}

			}
, 			{
				"patchline" : 				{
					"source" : [ "obj-19", 0 ],
					"destination" : [ "obj-5", 0 ],
					"hidden" : 0,
					"midpoints" : [ 1194.5, 340.0, 1024.5, 340.0 ]
				}

			}
, 			{
				"patchline" : 				{
					"source" : [ "obj-19", 0 ],
					"destination" : [ "obj-4", 0 ],
					"hidden" : 0,
					"midpoints" : [ 1194.5, 181.0, 1024.5, 181.0 ]
				}

			}
, 			{
				"patchline" : 				{
					"source" : [ "obj-3", 0 ],
					"destination" : [ "obj-2", 0 ],
					"hidden" : 0,
					"midpoints" : [ 884.5, 196.0, 404.0, 196.0, 404.0, 292.0, 424.5, 292.0 ]
				}

			}
, 			{
				"patchline" : 				{
					"source" : [ "obj-9", 2 ],
					"destination" : [ "obj-10", 3 ],
					"hidden" : 0,
					"midpoints" : [ 619.5, 341.0, 378.5, 341.0 ]
				}

			}
, 			{
				"patchline" : 				{
					"source" : [ "obj-9", 0 ],
					"destination" : [ "obj-10", 3 ],
					"hidden" : 0,
					"midpoints" : [ 579.5, 341.0, 378.5, 341.0 ]
				}

			}
, 			{
				"patchline" : 				{
					"source" : [ "obj-9", 1 ],
					"destination" : [ "obj-8", 0 ],
					"hidden" : 0,
					"midpoints" : [ 599.5, 365.0, 464.5, 365.0 ]
				}

			}
, 			{
				"patchline" : 				{
					"source" : [ "obj-23", 2 ],
					"destination" : [ "obj-10", 2 ],
					"hidden" : 0,
					"midpoints" : [  ]
				}

			}
, 			{
				"patchline" : 				{
					"source" : [ "obj-23", 1 ],
					"destination" : [ "obj-10", 1 ],
					"hidden" : 0,
					"midpoints" : [  ]
				}

			}
, 			{
				"patchline" : 				{
					"source" : [ "obj-23", 0 ],
					"destination" : [ "obj-10", 0 ],
					"hidden" : 0,
					"midpoints" : [  ]
				}

			}
, 			{
				"patchline" : 				{
					"source" : [ "obj-20", 1 ],
					"destination" : [ "obj-23", 0 ],
					"hidden" : 0,
					"midpoints" : [  ]
				}

			}
, 			{
				"patchline" : 				{
					"source" : [ "obj-11", 0 ],
					"destination" : [ "obj-12", 0 ],
					"hidden" : 0,
					"midpoints" : [  ]
				}

			}
, 			{
				"patchline" : 				{
					"source" : [ "obj-19", 0 ],
					"destination" : [ "obj-11", 4 ],
					"hidden" : 0,
					"midpoints" : [ 1194.5, 587.0, 408.5, 587.0 ]
				}

			}
, 			{
				"patchline" : 				{
					"source" : [ "obj-18", 0 ],
					"destination" : [ "obj-19", 0 ],
					"hidden" : 0,
					"midpoints" : [  ]
				}

			}
, 			{
				"patchline" : 				{
					"source" : [ "obj-13", 0 ],
					"destination" : [ "obj-15", 0 ],
					"hidden" : 0,
					"midpoints" : [ 44.5, 373.0, 118.5, 373.0 ]
				}

			}
, 			{
				"patchline" : 				{
					"source" : [ "obj-17", 0 ],
					"destination" : [ "obj-15", 0 ],
					"hidden" : 0,
					"midpoints" : [  ]
				}

			}
, 			{
				"patchline" : 				{
					"source" : [ "obj-20", 0 ],
					"destination" : [ "obj-17", 0 ],
					"hidden" : 0,
					"midpoints" : [  ]
				}

			}
, 			{
				"patchline" : 				{
					"source" : [ "obj-16", 0 ],
					"destination" : [ "obj-13", 0 ],
					"hidden" : 0,
					"midpoints" : [  ]
				}

			}
, 			{
				"patchline" : 				{
					"source" : [ "obj-22", 0 ],
					"destination" : [ "obj-21", 0 ],
					"hidden" : 0,
					"midpoints" : [  ]
				}

			}
, 			{
				"patchline" : 				{
					"source" : [ "obj-21", 0 ],
					"destination" : [ "obj-20", 0 ],
					"hidden" : 0,
					"midpoints" : [  ]
				}

			}
, 			{
				"patchline" : 				{
					"source" : [ "obj-2", 0 ],
					"destination" : [ "obj-8", 0 ],
					"hidden" : 0,
					"midpoints" : [ 424.5, 368.0, 464.5, 368.0 ]
				}

			}
 ]
	}

}
