{
	"patcher" : 	{
		"rect" : [ 43.0, 44.0, 785.0, 689.0 ],
		"bgcolor" : [ 1.0, 1.0, 1.0, 1.0 ],
		"bglocked" : 0,
		"defrect" : [ 43.0, 44.0, 785.0, 689.0 ],
		"openinpresentation" : 0,
		"default_fontsize" : 10.0,
		"default_fontface" : 0,
		"default_fontname" : "Verdana",
		"gridonopen" : 0,
		"gridsize" : [ 5.0, 5.0 ],
		"gridsnaponopen" : 0,
		"toolbarvisible" : 1,
		"boxfadetime" : 200,
		"boxanimatetime" : 200,
		"scrollanimatetime" : 200,
		"metadata" : [  ],
		"boxes" : [ 			{
				"box" : 				{
					"maxclass" : "comment",
					"text" : "This module hasn't been ported to 0.4 yet",
					"linecount" : 3,
					"patching_rect" : [ 237.0, 17.0, 245.0, 91.0 ],
					"frgb" : [ 1.0, 0.035294, 0.035294, 1.0 ],
					"fontname" : "Verdana",
					"id" : "obj-1",
					"numinlets" : 1,
					"textcolor" : [ 1.0, 0.035294, 0.035294, 1.0 ],
					"numoutlets" : 0,
					"fontsize" : 21.066666
				}

			}
, 			{
				"box" : 				{
					"maxclass" : "newobj",
					"text" : "s jmod.eq.cmd",
					"hidden" : 1,
					"patching_rect" : [ 670.0, 545.0, 99.0, 17.0 ],
					"fontname" : "Verdana",
					"id" : "obj-2",
					"numinlets" : 1,
					"numoutlets" : 0,
					"fontsize" : 9.0
				}

			}
, 			{
				"box" : 				{
					"maxclass" : "bpatcher",
					"outlettype" : [ "" ],
					"patching_rect" : [ 399.0, 541.0, 374.0, 143.0 ],
					"args" : [ "\/filter_gain\/1" ],
					"id" : "obj-3",
					"numinlets" : 0,
					"numoutlets" : 1,
					"name" : "jmod.attr_params.maxpat"
				}

			}
, 			{
				"box" : 				{
					"maxclass" : "newobj",
					"text" : "s jmod.eq.cmd",
					"hidden" : 1,
					"patching_rect" : [ 275.0, 346.0, 99.0, 17.0 ],
					"fontname" : "Verdana",
					"id" : "obj-4",
					"numinlets" : 1,
					"numoutlets" : 0,
					"fontsize" : 9.0
				}

			}
, 			{
				"box" : 				{
					"maxclass" : "bpatcher",
					"outlettype" : [ "" ],
					"patching_rect" : [ 16.0, 337.0, 374.0, 347.0 ],
					"args" : [ "jmod.equalizer~" ],
					"id" : "obj-5",
					"numinlets" : 0,
					"numoutlets" : 1,
					"name" : "jmod.preset_params.maxpat"
				}

			}
, 			{
				"box" : 				{
					"maxclass" : "newobj",
					"text" : "s jmod.eq.cmd",
					"hidden" : 1,
					"patching_rect" : [ 274.0, 117.0, 99.0, 17.0 ],
					"fontname" : "Verdana",
					"id" : "obj-6",
					"numinlets" : 1,
					"numoutlets" : 0,
					"fontsize" : 9.0
				}

			}
, 			{
				"box" : 				{
					"maxclass" : "bpatcher",
					"outlettype" : [ "" ],
					"patching_rect" : [ 16.0, 112.0, 374.0, 221.0 ],
					"args" : [  ],
					"id" : "obj-7",
					"numinlets" : 0,
					"numoutlets" : 1,
					"name" : "jmod.gain_params.maxpat"
				}

			}
, 			{
				"box" : 				{
					"maxclass" : "message",
					"text" : "\/open_inspector 1",
					"outlettype" : [ "" ],
					"patching_rect" : [ 591.0, 516.0, 91.0, 15.0 ],
					"fontname" : "Verdana",
					"id" : "obj-8",
					"numinlets" : 2,
					"numoutlets" : 1,
					"fontsize" : 9.0
				}

			}
, 			{
				"box" : 				{
					"maxclass" : "comment",
					"text" : ")",
					"patching_rect" : [ 681.0, 517.0, 16.0, 17.0 ],
					"fontname" : "Verdana",
					"id" : "obj-9",
					"numinlets" : 1,
					"numoutlets" : 0,
					"fontsize" : 9.0
				}

			}
, 			{
				"box" : 				{
					"maxclass" : "newobj",
					"text" : "prepend max",
					"outlettype" : [ "" ],
					"hidden" : 1,
					"patching_rect" : [ 705.0, 415.0, 67.0, 17.0 ],
					"fontname" : "Verdana",
					"id" : "obj-10",
					"numinlets" : 1,
					"numoutlets" : 1,
					"fontsize" : 9.0
				}

			}
, 			{
				"box" : 				{
					"maxclass" : "comment",
					"text" : "NB: max number of voices is settable by opening the inspector (pushing i button on right-top corner or",
					"linecount" : 2,
					"patching_rect" : [ 409.0, 505.0, 288.0, 28.0 ],
					"fontname" : "Verdana",
					"id" : "obj-11",
					"numinlets" : 1,
					"numoutlets" : 0,
					"fontsize" : 9.0
				}

			}
, 			{
				"box" : 				{
					"maxclass" : "message",
					"text" : "\/max_bands $1",
					"outlettype" : [ "" ],
					"patching_rect" : [ 650.0, 398.0, 81.0, 15.0 ],
					"fontname" : "Verdana",
					"id" : "obj-12",
					"numinlets" : 2,
					"numoutlets" : 1,
					"fontsize" : 9.0
				}

			}
, 			{
				"box" : 				{
					"maxclass" : "number",
					"outlettype" : [ "int", "bang" ],
					"htextcolor" : [ 0.870588, 0.870588, 0.870588, 1.0 ],
					"patching_rect" : [ 623.0, 398.0, 35.0, 17.0 ],
					"fontname" : "Verdana",
					"id" : "obj-13",
					"numinlets" : 1,
					"triscale" : 0.9,
					"numoutlets" : 2,
					"fontsize" : 9.0,
					"bgcolor" : [ 0.866667, 0.866667, 0.866667, 1.0 ]
				}

			}
, 			{
				"box" : 				{
					"maxclass" : "comment",
					"text" : "max number of bands",
					"patching_rect" : [ 515.0, 399.0, 105.0, 17.0 ],
					"fontname" : "Verdana",
					"id" : "obj-14",
					"numinlets" : 1,
					"numoutlets" : 0,
					"fontsize" : 9.0
				}

			}
, 			{
				"box" : 				{
					"maxclass" : "comment",
					"text" : "|",
					"patching_rect" : [ 509.0, 417.0, 16.0, 17.0 ],
					"fontname" : "Verdana",
					"id" : "obj-15",
					"numinlets" : 1,
					"numoutlets" : 0,
					"fontsize" : 9.0
				}

			}
, 			{
				"box" : 				{
					"maxclass" : "comment",
					"text" : "(choose that first)",
					"patching_rect" : [ 407.0, 418.0, 93.0, 17.0 ],
					"fontname" : "Verdana",
					"id" : "obj-16",
					"numinlets" : 1,
					"numoutlets" : 0,
					"fontsize" : 9.0
				}

			}
, 			{
				"box" : 				{
					"maxclass" : "message",
					"text" : "\/filter_type\/1 lowshelf",
					"outlettype" : [ "" ],
					"patching_rect" : [ 466.0, 482.0, 130.0, 15.0 ],
					"fontname" : "Verdana",
					"id" : "obj-17",
					"numinlets" : 2,
					"numoutlets" : 1,
					"fontsize" : 9.0
				}

			}
, 			{
				"box" : 				{
					"maxclass" : "umenu",
					"varname" : "mode",
					"outlettype" : [ "int", "", "" ],
					"types" : [  ],
					"patching_rect" : [ 406.0, 481.0, 60.0, 18.0 ],
					"pattrmode" : 1,
					"fontname" : "Verdana",
					"togcolor" : [ 0.831373, 0.05098, 0.031373, 1.0 ],
					"arrow" : 0,
					"hltcolor" : [ 0.219608, 0.231373, 0.517647, 1.0 ],
					"id" : "obj-18",
					"numinlets" : 1,
					"textcolor" : [ 0.866667, 0.905882, 0.964706, 1.0 ],
					"numoutlets" : 3,
					"items" : [ "lowpass", ",", "highpass", ",", "bandpass", ",", "bandstop", ",", "peaknotch", ",", "lowshelf", ",", "highshelf" ],
					"fontsize" : 8.777778,
					"bgcolor" : [ 0.513726, 0.54902, 0.631373, 1.0 ],
					"framecolor" : [ 0.019608, 0.0, 0.690196, 1.0 ],
					"discolor" : [ 0.286275, 0.494118, 0.733333, 1.0 ]
				}

			}
, 			{
				"box" : 				{
					"maxclass" : "newobj",
					"text" : "p",
					"outlettype" : [ "", "" ],
					"hidden" : 1,
					"patching_rect" : [ 407.0, 481.0, 22.0, 17.0 ],
					"fontname" : "Verdana",
					"id" : "obj-19",
					"numinlets" : 2,
					"numoutlets" : 2,
					"fontsize" : 9.0,
					"patcher" : 					{
						"rect" : [ 10.0, 59.0, 260.0, 231.0 ],
						"bgcolor" : [ 1.0, 1.0, 1.0, 1.0 ],
						"bglocked" : 0,
						"defrect" : [ 10.0, 59.0, 260.0, 231.0 ],
						"openinpresentation" : 0,
						"default_fontsize" : 10.0,
						"default_fontface" : 0,
						"default_fontname" : "Verdana",
						"gridonopen" : 0,
						"gridsize" : [ 5.0, 5.0 ],
						"gridsnaponopen" : 0,
						"toolbarvisible" : 1,
						"boxfadetime" : 200,
						"boxanimatetime" : 200,
						"scrollanimatetime" : 200,
						"metadata" : [  ],
						"boxes" : [ 							{
								"box" : 								{
									"maxclass" : "newobj",
									"text" : "i",
									"outlettype" : [ "int" ],
									"patching_rect" : [ 38.0, 74.0, 50.0, 17.0 ],
									"fontname" : "Verdana",
									"id" : "obj-1",
									"numinlets" : 2,
									"numoutlets" : 1,
									"fontsize" : 9.0
								}

							}
, 							{
								"box" : 								{
									"maxclass" : "newobj",
									"text" : "t b s",
									"outlettype" : [ "bang", "" ],
									"patching_rect" : [ 110.0, 27.0, 65.0, 17.0 ],
									"fontname" : "Verdana",
									"id" : "obj-2",
									"numinlets" : 1,
									"numoutlets" : 2,
									"fontsize" : 9.0
								}

							}
, 							{
								"box" : 								{
									"maxclass" : "outlet",
									"patching_rect" : [ 81.0, 146.0, 15.0, 15.0 ],
									"id" : "obj-3",
									"numinlets" : 1,
									"numoutlets" : 0,
									"comment" : ""
								}

							}
, 							{
								"box" : 								{
									"maxclass" : "outlet",
									"patching_rect" : [ 39.0, 126.0, 15.0, 15.0 ],
									"id" : "obj-4",
									"numinlets" : 1,
									"numoutlets" : 0,
									"comment" : ""
								}

							}
, 							{
								"box" : 								{
									"maxclass" : "newobj",
									"text" : "prepend set",
									"outlettype" : [ "" ],
									"patching_rect" : [ 81.0, 124.0, 62.0, 17.0 ],
									"fontname" : "Verdana",
									"id" : "obj-5",
									"numinlets" : 1,
									"numoutlets" : 1,
									"fontsize" : 9.0
								}

							}
, 							{
								"box" : 								{
									"maxclass" : "inlet",
									"outlettype" : [ "" ],
									"patching_rect" : [ 111.0, 7.0, 15.0, 15.0 ],
									"id" : "obj-6",
									"numinlets" : 0,
									"numoutlets" : 1,
									"comment" : ""
								}

							}
, 							{
								"box" : 								{
									"maxclass" : "newobj",
									"text" : "sprintf \/filter_type\/%ld %s",
									"outlettype" : [ "" ],
									"patching_rect" : [ 39.0, 94.0, 136.0, 17.0 ],
									"fontname" : "Verdana",
									"id" : "obj-7",
									"numinlets" : 2,
									"numoutlets" : 1,
									"fontsize" : 9.0
								}

							}
, 							{
								"box" : 								{
									"maxclass" : "inlet",
									"outlettype" : [ "int" ],
									"patching_rect" : [ 78.0, 53.0, 15.0, 15.0 ],
									"id" : "obj-8",
									"numinlets" : 0,
									"numoutlets" : 1,
									"comment" : ""
								}

							}
 ],
						"lines" : [ 							{
								"patchline" : 								{
									"source" : [ "obj-2", 0 ],
									"destination" : [ "obj-1", 0 ],
									"hidden" : 0,
									"midpoints" : [ 119.5, 47.0, 47.5, 47.0 ]
								}

							}
, 							{
								"patchline" : 								{
									"source" : [ "obj-1", 0 ],
									"destination" : [ "obj-7", 0 ],
									"hidden" : 0
								}

							}
, 							{
								"patchline" : 								{
									"source" : [ "obj-7", 0 ],
									"destination" : [ "obj-4", 0 ],
									"hidden" : 0
								}

							}
, 							{
								"patchline" : 								{
									"source" : [ "obj-8", 0 ],
									"destination" : [ "obj-1", 1 ],
									"hidden" : 0
								}

							}
, 							{
								"patchline" : 								{
									"source" : [ "obj-7", 0 ],
									"destination" : [ "obj-5", 0 ],
									"hidden" : 0
								}

							}
, 							{
								"patchline" : 								{
									"source" : [ "obj-5", 0 ],
									"destination" : [ "obj-3", 0 ],
									"hidden" : 0
								}

							}
, 							{
								"patchline" : 								{
									"source" : [ "obj-6", 0 ],
									"destination" : [ "obj-2", 0 ],
									"hidden" : 0
								}

							}
, 							{
								"patchline" : 								{
									"source" : [ "obj-2", 1 ],
									"destination" : [ "obj-7", 1 ],
									"hidden" : 0
								}

							}
 ]
					}
,
					"saved_object_attributes" : 					{
						"default_fontface" : 0,
						"fontname" : "Verdana",
						"default_fontsize" : 10.0,
						"fontface" : 0,
						"default_fontname" : "Verdana",
						"globalpatchername" : "",
						"fontsize" : 10.0
					}

				}

			}
, 			{
				"box" : 				{
					"maxclass" : "message",
					"text" : "\/bands $1",
					"outlettype" : [ "" ],
					"patching_rect" : [ 650.0, 416.0, 56.0, 15.0 ],
					"fontname" : "Verdana",
					"id" : "obj-20",
					"numinlets" : 2,
					"numoutlets" : 1,
					"fontsize" : 9.0
				}

			}
, 			{
				"box" : 				{
					"maxclass" : "number",
					"outlettype" : [ "int", "bang" ],
					"htextcolor" : [ 0.870588, 0.870588, 0.870588, 1.0 ],
					"patching_rect" : [ 623.0, 416.0, 35.0, 17.0 ],
					"fontname" : "Verdana",
					"maximum" : 5,
					"id" : "obj-21",
					"numinlets" : 1,
					"triscale" : 0.9,
					"minimum" : 1,
					"numoutlets" : 2,
					"fontsize" : 9.0,
					"bgcolor" : [ 0.866667, 0.866667, 0.866667, 1.0 ]
				}

			}
, 			{
				"box" : 				{
					"maxclass" : "comment",
					"text" : "|",
					"patching_rect" : [ 509.0, 399.0, 16.0, 17.0 ],
					"fontname" : "Verdana",
					"id" : "obj-22",
					"numinlets" : 1,
					"numoutlets" : 0,
					"fontsize" : 9.0
				}

			}
, 			{
				"box" : 				{
					"maxclass" : "comment",
					"text" : "number of bands",
					"patching_rect" : [ 531.0, 417.0, 83.0, 17.0 ],
					"fontname" : "Verdana",
					"id" : "obj-23",
					"numinlets" : 1,
					"numoutlets" : 0,
					"fontsize" : 9.0
				}

			}
, 			{
				"box" : 				{
					"maxclass" : "comment",
					"text" : "band number",
					"patching_rect" : [ 443.0, 399.0, 66.0, 17.0 ],
					"fontname" : "Verdana",
					"id" : "obj-24",
					"numinlets" : 1,
					"numoutlets" : 0,
					"fontsize" : 9.0
				}

			}
, 			{
				"box" : 				{
					"maxclass" : "flonum",
					"outlettype" : [ "float", "bang" ],
					"htextcolor" : [ 0.870588, 0.870588, 0.870588, 1.0 ],
					"patching_rect" : [ 605.0, 438.0, 35.0, 17.0 ],
					"fontname" : "Verdana",
					"id" : "obj-25",
					"numinlets" : 1,
					"triscale" : 0.9,
					"numoutlets" : 2,
					"fontsize" : 9.0,
					"bgcolor" : [ 0.866667, 0.866667, 0.866667, 1.0 ]
				}

			}
, 			{
				"box" : 				{
					"maxclass" : "message",
					"text" : "\/filter_Q\/2 $1",
					"outlettype" : [ "" ],
					"patching_rect" : [ 605.0, 459.0, 91.0, 15.0 ],
					"fontname" : "Verdana",
					"id" : "obj-26",
					"numinlets" : 2,
					"numoutlets" : 1,
					"fontsize" : 9.0
				}

			}
, 			{
				"box" : 				{
					"maxclass" : "message",
					"text" : "\/filter_freq\/2 $1",
					"outlettype" : [ "" ],
					"patching_rect" : [ 506.0, 459.0, 91.0, 15.0 ],
					"fontname" : "Verdana",
					"id" : "obj-27",
					"numinlets" : 2,
					"numoutlets" : 1,
					"fontsize" : 9.0
				}

			}
, 			{
				"box" : 				{
					"maxclass" : "message",
					"text" : "\/filter_gain\/2 $1",
					"outlettype" : [ "" ],
					"patching_rect" : [ 407.0, 459.0, 91.0, 15.0 ],
					"fontname" : "Verdana",
					"id" : "obj-28",
					"numinlets" : 2,
					"numoutlets" : 1,
					"fontsize" : 9.0
				}

			}
, 			{
				"box" : 				{
					"maxclass" : "newobj",
					"text" : "p instance_#",
					"outlettype" : [ "", "", "" ],
					"hidden" : 1,
					"patching_rect" : [ 407.0, 416.0, 208.0, 17.0 ],
					"fontname" : "Verdana",
					"id" : "obj-29",
					"numinlets" : 1,
					"numoutlets" : 3,
					"fontsize" : 9.0,
					"patcher" : 					{
						"rect" : [ 62.0, 328.0, 726.0, 217.0 ],
						"bgcolor" : [ 1.0, 1.0, 1.0, 1.0 ],
						"bglocked" : 0,
						"defrect" : [ 62.0, 328.0, 726.0, 217.0 ],
						"openinpresentation" : 0,
						"default_fontsize" : 10.0,
						"default_fontface" : 0,
						"default_fontname" : "Verdana",
						"gridonopen" : 0,
						"gridsize" : [ 5.0, 5.0 ],
						"gridsnaponopen" : 0,
						"toolbarvisible" : 1,
						"boxfadetime" : 200,
						"boxanimatetime" : 200,
						"scrollanimatetime" : 200,
						"metadata" : [  ],
						"boxes" : [ 							{
								"box" : 								{
									"maxclass" : "outlet",
									"patching_rect" : [ 371.0, 110.0, 15.0, 15.0 ],
									"id" : "obj-1",
									"numinlets" : 1,
									"numoutlets" : 0,
									"comment" : ""
								}

							}
, 							{
								"box" : 								{
									"maxclass" : "newobj",
									"text" : "sprintf set \/filter_Q\/%ld \\$1",
									"outlettype" : [ "" ],
									"patching_rect" : [ 371.0, 88.0, 147.0, 17.0 ],
									"fontname" : "Verdana",
									"id" : "obj-2",
									"numinlets" : 1,
									"numoutlets" : 1,
									"fontsize" : 9.0
								}

							}
, 							{
								"box" : 								{
									"maxclass" : "outlet",
									"patching_rect" : [ 205.0, 110.0, 15.0, 15.0 ],
									"id" : "obj-3",
									"numinlets" : 1,
									"numoutlets" : 0,
									"comment" : ""
								}

							}
, 							{
								"box" : 								{
									"maxclass" : "outlet",
									"patching_rect" : [ 32.0, 109.0, 15.0, 15.0 ],
									"id" : "obj-4",
									"numinlets" : 1,
									"numoutlets" : 0,
									"comment" : ""
								}

							}
, 							{
								"box" : 								{
									"maxclass" : "newobj",
									"text" : "sprintf set \/filter_freq\/%ld \\$1",
									"outlettype" : [ "" ],
									"patching_rect" : [ 205.0, 88.0, 160.0, 17.0 ],
									"fontname" : "Verdana",
									"id" : "obj-5",
									"numinlets" : 1,
									"numoutlets" : 1,
									"fontsize" : 9.0
								}

							}
, 							{
								"box" : 								{
									"maxclass" : "newobj",
									"text" : "sprintf set \/filter_gain\/%ld \\$1",
									"outlettype" : [ "" ],
									"patching_rect" : [ 32.0, 88.0, 159.0, 17.0 ],
									"fontname" : "Verdana",
									"id" : "obj-6",
									"numinlets" : 1,
									"numoutlets" : 1,
									"fontsize" : 9.0
								}

							}
, 							{
								"box" : 								{
									"maxclass" : "inlet",
									"outlettype" : [ "int" ],
									"patching_rect" : [ 32.0, 66.0, 15.0, 15.0 ],
									"id" : "obj-7",
									"numinlets" : 0,
									"numoutlets" : 1,
									"comment" : ""
								}

							}
 ],
						"lines" : [ 							{
								"patchline" : 								{
									"source" : [ "obj-7", 0 ],
									"destination" : [ "obj-6", 0 ],
									"hidden" : 0
								}

							}
, 							{
								"patchline" : 								{
									"source" : [ "obj-6", 0 ],
									"destination" : [ "obj-4", 0 ],
									"hidden" : 0
								}

							}
, 							{
								"patchline" : 								{
									"source" : [ "obj-7", 0 ],
									"destination" : [ "obj-5", 0 ],
									"hidden" : 0,
									"midpoints" : [ 41.0, 84.0, 214.5, 84.0 ]
								}

							}
, 							{
								"patchline" : 								{
									"source" : [ "obj-5", 0 ],
									"destination" : [ "obj-3", 0 ],
									"hidden" : 0
								}

							}
, 							{
								"patchline" : 								{
									"source" : [ "obj-7", 0 ],
									"destination" : [ "obj-2", 0 ],
									"hidden" : 0,
									"midpoints" : [ 41.0, 84.0, 380.5, 84.0 ]
								}

							}
, 							{
								"patchline" : 								{
									"source" : [ "obj-2", 0 ],
									"destination" : [ "obj-1", 0 ],
									"hidden" : 0
								}

							}
 ]
					}
,
					"saved_object_attributes" : 					{
						"default_fontface" : 0,
						"fontname" : "Verdana",
						"default_fontsize" : 10.0,
						"fontface" : 0,
						"default_fontname" : "Verdana",
						"globalpatchername" : "",
						"fontsize" : 10.0
					}

				}

			}
, 			{
				"box" : 				{
					"maxclass" : "flonum",
					"outlettype" : [ "float", "bang" ],
					"htextcolor" : [ 0.870588, 0.870588, 0.870588, 1.0 ],
					"patching_rect" : [ 506.0, 438.0, 35.0, 17.0 ],
					"fontname" : "Verdana",
					"id" : "obj-30",
					"numinlets" : 1,
					"triscale" : 0.9,
					"numoutlets" : 2,
					"fontsize" : 9.0,
					"bgcolor" : [ 0.866667, 0.866667, 0.866667, 1.0 ]
				}

			}
, 			{
				"box" : 				{
					"maxclass" : "flonum",
					"outlettype" : [ "float", "bang" ],
					"htextcolor" : [ 0.870588, 0.870588, 0.870588, 1.0 ],
					"patching_rect" : [ 407.0, 438.0, 35.0, 17.0 ],
					"fontname" : "Verdana",
					"id" : "obj-31",
					"numinlets" : 1,
					"triscale" : 0.9,
					"numoutlets" : 2,
					"fontsize" : 9.0,
					"bgcolor" : [ 0.866667, 0.866667, 0.866667, 1.0 ]
				}

			}
, 			{
				"box" : 				{
					"maxclass" : "number",
					"outlettype" : [ "int", "bang" ],
					"htextcolor" : [ 0.870588, 0.870588, 0.870588, 1.0 ],
					"patching_rect" : [ 407.0, 398.0, 35.0, 17.0 ],
					"fontname" : "Verdana",
					"id" : "obj-32",
					"numinlets" : 1,
					"mouseup" : 1,
					"triscale" : 0.9,
					"minimum" : 1,
					"numoutlets" : 2,
					"fontsize" : 9.0,
					"bgcolor" : [ 0.866667, 0.866667, 0.866667, 1.0 ]
				}

			}
, 			{
				"box" : 				{
					"maxclass" : "comment",
					"text" : "jmod.equalizer~",
					"patching_rect" : [ 22.0, 27.0, 208.0, 28.0 ],
					"frgb" : [ 1.0, 1.0, 1.0, 1.0 ],
					"fontname" : "Verdana",
					"id" : "obj-33",
					"numinlets" : 1,
					"textcolor" : [ 1.0, 1.0, 1.0, 1.0 ],
					"numoutlets" : 0,
					"fontsize" : 15.799999
				}

			}
, 			{
				"box" : 				{
					"maxclass" : "comment",
					"text" : "audio equalizer module (multi-band filter)",
					"patching_rect" : [ 20.0, 59.0, 242.0, 17.0 ],
					"frgb" : [ 1.0, 1.0, 1.0, 1.0 ],
					"fontname" : "Verdana",
					"id" : "obj-34",
					"numinlets" : 1,
					"textcolor" : [ 1.0, 1.0, 1.0, 1.0 ],
					"numoutlets" : 0,
					"fontsize" : 9.0
				}

			}
, 			{
				"box" : 				{
					"maxclass" : "panel",
					"rounded" : 0,
					"bordercolor" : [ 0.501961, 0.043137, 0.039216, 1.0 ],
					"patching_rect" : [ 16.0, 16.0, 371.0, 75.0 ],
					"id" : "obj-35",
					"numinlets" : 1,
					"numoutlets" : 0,
					"bgcolor" : [ 0.262745, 0.254902, 0.419608, 1.0 ]
				}

			}
, 			{
				"box" : 				{
					"maxclass" : "newobj",
					"text" : "s jmod.eq.cmd",
					"hidden" : 1,
					"patching_rect" : [ 665.0, 366.0, 85.0, 17.0 ],
					"fontname" : "Verdana",
					"id" : "obj-36",
					"numinlets" : 1,
					"numoutlets" : 0,
					"fontsize" : 9.0
				}

			}
, 			{
				"box" : 				{
					"maxclass" : "newobj",
					"text" : "r jmod.eq.cmd",
					"outlettype" : [ "" ],
					"patching_rect" : [ 458.0, 158.0, 85.0, 17.0 ],
					"fontname" : "Verdana",
					"id" : "obj-37",
					"numinlets" : 0,
					"numoutlets" : 1,
					"fontsize" : 9.0
				}

			}
, 			{
				"box" : 				{
					"maxclass" : "comment",
					"text" : "Module specific attributes",
					"patching_rect" : [ 404.0, 363.0, 236.0, 28.0 ],
					"fontname" : "Verdana",
					"id" : "obj-38",
					"numinlets" : 1,
					"numoutlets" : 0,
					"fontsize" : 15.799999
				}

			}
, 			{
				"box" : 				{
					"maxclass" : "panel",
					"rounded" : 0,
					"patching_rect" : [ 399.0, 361.0, 373.0, 27.0 ],
					"id" : "obj-39",
					"numinlets" : 1,
					"numoutlets" : 0,
					"bgcolor" : [ 0.596078, 0.596078, 0.701961, 1.0 ]
				}

			}
, 			{
				"box" : 				{
					"maxclass" : "newobj",
					"text" : "loadmess set",
					"outlettype" : [ "" ],
					"hidden" : 1,
					"patching_rect" : [ 522.0, 321.0, 65.0, 17.0 ],
					"fontname" : "Verdana",
					"id" : "obj-40",
					"numinlets" : 1,
					"numoutlets" : 1,
					"fontsize" : 9.0
				}

			}
, 			{
				"box" : 				{
					"maxclass" : "newobj",
					"text" : "dac~ 1 2",
					"patching_rect" : [ 600.0, 322.0, 158.0, 17.0 ],
					"fontname" : "Verdana",
					"id" : "obj-41",
					"numinlets" : 2,
					"numoutlets" : 0,
					"fontsize" : 9.0
				}

			}
, 			{
				"box" : 				{
					"maxclass" : "message",
					"outlettype" : [ "" ],
					"patching_rect" : [ 457.0, 341.0, 147.0, 15.0 ],
					"fontname" : "Verdana",
					"id" : "obj-42",
					"numinlets" : 2,
					"numoutlets" : 1,
					"fontsize" : 9.0
				}

			}
, 			{
				"box" : 				{
					"maxclass" : "newobj",
					"text" : "prepend set",
					"outlettype" : [ "" ],
					"patching_rect" : [ 457.0, 321.0, 61.0, 17.0 ],
					"fontname" : "Verdana",
					"id" : "obj-43",
					"numinlets" : 1,
					"numoutlets" : 1,
					"fontsize" : 9.0
				}

			}
, 			{
				"box" : 				{
					"maxclass" : "bpatcher",
					"varname" : "\/input~",
					"outlettype" : [ "", "", "" ],
					"patching_rect" : [ 458.0, 13.0, 302.0, 142.0 ],
					"args" : [ "\/input~" ],
					"id" : "obj-44",
					"numinlets" : 1,
					"numoutlets" : 3,
					"name" : "jmod.input~.maxpat"
				}

			}
, 			{
				"box" : 				{
					"maxclass" : "bpatcher",
					"varname" : "\/filter~",
					"outlettype" : [ "", "", "" ],
					"patching_rect" : [ 458.0, 177.0, 302.0, 143.0 ],
					"args" : [  ],
					"id" : "obj-45",
					"numinlets" : 3,
					"numoutlets" : 3,
					"name" : "jmod.equalizer~.maxpat"
				}

			}
, 			{
				"box" : 				{
					"maxclass" : "panel",
					"rounded" : 0,
					"patching_rect" : [ 399.0, 390.0, 373.0, 146.0 ],
					"id" : "obj-46",
					"numinlets" : 1,
					"numoutlets" : 0,
					"bgcolor" : [ 0.780392, 0.780392, 0.839216, 1.0 ]
				}

			}
 ],
		"lines" : [ 			{
				"patchline" : 				{
					"source" : [ "obj-7", 0 ],
					"destination" : [ "obj-6", 0 ],
					"hidden" : 1
				}

			}
, 			{
				"patchline" : 				{
					"source" : [ "obj-5", 0 ],
					"destination" : [ "obj-4", 0 ],
					"hidden" : 1
				}

			}
, 			{
				"patchline" : 				{
					"source" : [ "obj-32", 0 ],
					"destination" : [ "obj-29", 0 ],
					"hidden" : 0
				}

			}
, 			{
				"patchline" : 				{
					"source" : [ "obj-31", 0 ],
					"destination" : [ "obj-28", 0 ],
					"hidden" : 0
				}

			}
, 			{
				"patchline" : 				{
					"source" : [ "obj-29", 0 ],
					"destination" : [ "obj-28", 0 ],
					"hidden" : 1
				}

			}
, 			{
				"patchline" : 				{
					"source" : [ "obj-32", 0 ],
					"destination" : [ "obj-19", 0 ],
					"hidden" : 1
				}

			}
, 			{
				"patchline" : 				{
					"source" : [ "obj-18", 1 ],
					"destination" : [ "obj-19", 1 ],
					"hidden" : 1
				}

			}
, 			{
				"patchline" : 				{
					"source" : [ "obj-37", 0 ],
					"destination" : [ "obj-45", 0 ],
					"hidden" : 0
				}

			}
, 			{
				"patchline" : 				{
					"source" : [ "obj-45", 0 ],
					"destination" : [ "obj-43", 0 ],
					"hidden" : 0
				}

			}
, 			{
				"patchline" : 				{
					"source" : [ "obj-43", 0 ],
					"destination" : [ "obj-42", 0 ],
					"hidden" : 0
				}

			}
, 			{
				"patchline" : 				{
					"source" : [ "obj-40", 0 ],
					"destination" : [ "obj-42", 0 ],
					"hidden" : 1,
					"midpoints" : [ 531.5, 338.0, 466.5, 338.0 ]
				}

			}
, 			{
				"patchline" : 				{
					"source" : [ "obj-19", 1 ],
					"destination" : [ "obj-17", 0 ],
					"hidden" : 1
				}

			}
, 			{
				"patchline" : 				{
					"source" : [ "obj-29", 1 ],
					"destination" : [ "obj-27", 0 ],
					"hidden" : 1
				}

			}
, 			{
				"patchline" : 				{
					"source" : [ "obj-30", 0 ],
					"destination" : [ "obj-27", 0 ],
					"hidden" : 0
				}

			}
, 			{
				"patchline" : 				{
					"source" : [ "obj-44", 1 ],
					"destination" : [ "obj-45", 1 ],
					"hidden" : 0
				}

			}
, 			{
				"patchline" : 				{
					"source" : [ "obj-45", 1 ],
					"destination" : [ "obj-41", 0 ],
					"hidden" : 0
				}

			}
, 			{
				"patchline" : 				{
					"source" : [ "obj-25", 0 ],
					"destination" : [ "obj-26", 0 ],
					"hidden" : 0
				}

			}
, 			{
				"patchline" : 				{
					"source" : [ "obj-29", 2 ],
					"destination" : [ "obj-26", 0 ],
					"hidden" : 1
				}

			}
, 			{
				"patchline" : 				{
					"source" : [ "obj-10", 0 ],
					"destination" : [ "obj-21", 0 ],
					"hidden" : 1
				}

			}
, 			{
				"patchline" : 				{
					"source" : [ "obj-13", 0 ],
					"destination" : [ "obj-12", 0 ],
					"hidden" : 1,
					"midpoints" : [ 632.5, 414.0, 659.5, 414.0 ]
				}

			}
, 			{
				"patchline" : 				{
					"source" : [ "obj-21", 0 ],
					"destination" : [ "obj-20", 0 ],
					"hidden" : 1,
					"midpoints" : [ 632.5, 432.0, 659.5, 432.0 ]
				}

			}
, 			{
				"patchline" : 				{
					"source" : [ "obj-8", 0 ],
					"destination" : [ "obj-36", 0 ],
					"hidden" : 1
				}

			}
, 			{
				"patchline" : 				{
					"source" : [ "obj-12", 0 ],
					"destination" : [ "obj-36", 0 ],
					"hidden" : 1
				}

			}
, 			{
				"patchline" : 				{
					"source" : [ "obj-19", 0 ],
					"destination" : [ "obj-36", 0 ],
					"hidden" : 1
				}

			}
, 			{
				"patchline" : 				{
					"source" : [ "obj-28", 0 ],
					"destination" : [ "obj-36", 0 ],
					"hidden" : 1
				}

			}
, 			{
				"patchline" : 				{
					"source" : [ "obj-27", 0 ],
					"destination" : [ "obj-36", 0 ],
					"hidden" : 1
				}

			}
, 			{
				"patchline" : 				{
					"source" : [ "obj-26", 0 ],
					"destination" : [ "obj-36", 0 ],
					"hidden" : 1
				}

			}
, 			{
				"patchline" : 				{
					"source" : [ "obj-20", 0 ],
					"destination" : [ "obj-36", 0 ],
					"hidden" : 1
				}

			}
, 			{
				"patchline" : 				{
					"source" : [ "obj-3", 0 ],
					"destination" : [ "obj-2", 0 ],
					"hidden" : 1
				}

			}
, 			{
				"patchline" : 				{
					"source" : [ "obj-44", 2 ],
					"destination" : [ "obj-45", 2 ],
					"hidden" : 0
				}

			}
, 			{
				"patchline" : 				{
					"source" : [ "obj-45", 2 ],
					"destination" : [ "obj-41", 1 ],
					"hidden" : 0
				}

			}
, 			{
				"patchline" : 				{
					"source" : [ "obj-13", 0 ],
					"destination" : [ "obj-10", 0 ],
					"hidden" : 1
				}

			}
 ]
	}

}
