{
	"patcher" : 	{
		"fileversion" : 1,
		"rect" : [ 47.0, 44.0, 895.0, 771.0 ],
		"bglocked" : 0,
		"defrect" : [ 47.0, 44.0, 895.0, 771.0 ],
		"openrect" : [ 0.0, 0.0, 0.0, 0.0 ],
		"openinpresentation" : 1,
		"default_fontsize" : 10.970939,
		"default_fontface" : 0,
		"default_fontname" : "Verdana",
		"gridonopen" : 0,
		"gridsize" : [ 5.0, 5.0 ],
		"gridsnaponopen" : 0,
		"toolbarvisible" : 1,
		"boxanimatetime" : 200,
		"imprint" : 0,
		"metadata" : [  ],
		"boxes" : [ 			{
				"box" : 				{
					"maxclass" : "number",
					"id" : "obj-13",
					"fontname" : "Verdana",
					"numinlets" : 1,
					"numoutlets" : 2,
					"patching_rect" : [ 680.0, 365.0, 50.0, 20.0 ],
					"fontsize" : 10.970939,
					"outlettype" : [ "int", "bang" ]
				}

			}
, 			{
				"box" : 				{
					"maxclass" : "newobj",
					"text" : "jcom.oscroute /panel/open",
					"id" : "obj-1",
					"fontname" : "Verdana",
					"numinlets" : 1,
					"numoutlets" : 2,
					"patching_rect" : [ 524.0, 535.0, 166.0, 19.0 ],
					"fontsize" : 10.0,
					"outlettype" : [ "", "" ]
				}

			}
, 			{
				"box" : 				{
					"maxclass" : "newobj",
					"text" : "pcontrol",
					"id" : "obj-2",
					"fontname" : "Verdana",
					"numinlets" : 1,
					"numoutlets" : 1,
					"patching_rect" : [ 645.0, 610.0, 49.0, 19.0 ],
					"fontsize" : 10.0,
					"outlettype" : [ "" ]
				}

			}
, 			{
				"box" : 				{
					"maxclass" : "newobj",
					"text" : "jcom.algorithm_control~",
					"id" : "obj-3",
					"fontname" : "Verdana",
					"numinlets" : 1,
					"numoutlets" : 2,
					"patching_rect" : [ 524.0, 587.0, 136.0, 19.0 ],
					"fontsize" : 10.0,
					"outlettype" : [ "", "" ]
				}

			}
, 			{
				"box" : 				{
					"maxclass" : "message",
					"text" : "/preset/store 1 default, /preset/write",
					"id" : "obj-4",
					"fontname" : "Verdana",
					"numinlets" : 2,
					"numoutlets" : 1,
					"patching_rect" : [ 50.0, 610.0, 196.0, 17.0 ],
					"fontsize" : 10.0,
					"outlettype" : [ "" ]
				}

			}
, 			{
				"box" : 				{
					"maxclass" : "newobj",
					"text" : "jcom.out~ 2",
					"id" : "obj-5",
					"fontname" : "Verdana",
					"numinlets" : 2,
					"numoutlets" : 3,
					"patching_rect" : [ 420.0, 665.0, 71.0, 19.0 ],
					"fontsize" : 10.0,
					"outlettype" : [ "signal", "signal", "" ]
				}

			}
, 			{
				"box" : 				{
					"maxclass" : "newobj",
					"text" : "jcom.in~ 2",
					"id" : "obj-6",
					"fontname" : "Verdana",
					"numinlets" : 2,
					"numoutlets" : 4,
					"patching_rect" : [ 416.0, 513.0, 173.0, 19.0 ],
					"fontsize" : 10.0,
					"outlettype" : [ "signal", "signal", "", "" ]
				}

			}
, 			{
				"box" : 				{
					"maxclass" : "newobj",
					"varname" : "multi_filter~_inspector",
					"text" : "p multi_filter~_inspector",
					"id" : "obj-7",
					"fontname" : "Verdana",
					"numinlets" : 1,
					"numoutlets" : 0,
					"patching_rect" : [ 524.0, 557.0, 134.0, 19.0 ],
					"fontsize" : 10.0,
					"patcher" : 					{
						"fileversion" : 1,
						"rect" : [ 100.0, 100.0, 831.0, 530.0 ],
						"bgcolor" : [ 0.196078, 0.196078, 0.196078, 1.0 ],
						"bglocked" : 0,
						"defrect" : [ 100.0, 100.0, 831.0, 530.0 ],
						"openrect" : [ 0.0, 0.0, 0.0, 0.0 ],
						"openinpresentation" : 0,
						"default_fontsize" : 10.0,
						"default_fontface" : 0,
						"default_fontname" : "Verdana",
						"gridonopen" : 0,
						"gridsize" : [ 5.0, 5.0 ],
						"gridsnaponopen" : 0,
						"toolbarvisible" : 1,
						"boxanimatetime" : 200,
						"imprint" : 0,
						"metadata" : [  ],
						"boxes" : [ 							{
								"box" : 								{
									"maxclass" : "comment",
									"text" : "ablsoute maximum : 24",
									"frgb" : [ 1.0, 1.0, 1.0, 1.0 ],
									"id" : "obj-1",
									"fontname" : "Verdana",
									"numinlets" : 1,
									"numoutlets" : 0,
									"patching_rect" : [ 23.0, 47.0, 171.0, 23.0 ],
									"fontsize" : 13.482065
								}

							}
, 							{
								"box" : 								{
									"maxclass" : "newobj",
									"text" : "s #0_max_voices",
									"hidden" : 1,
									"id" : "obj-2",
									"fontname" : "Verdana",
									"numinlets" : 1,
									"numoutlets" : 0,
									"patching_rect" : [ 491.0, 299.0, 96.0, 18.0 ],
									"fontsize" : 9.873845
								}

							}
, 							{
								"box" : 								{
									"maxclass" : "newobj",
									"text" : "loadbang",
									"hidden" : 1,
									"id" : "obj-3",
									"fontname" : "Verdana",
									"numinlets" : 1,
									"numoutlets" : 1,
									"patching_rect" : [ 32.0, 120.0, 54.0, 18.0 ],
									"fontsize" : 9.873845,
									"outlettype" : [ "bang" ]
								}

							}
, 							{
								"box" : 								{
									"maxclass" : "message",
									"text" : "window size 100 100 400 200, window exec",
									"hidden" : 1,
									"id" : "obj-4",
									"fontname" : "Verdana",
									"numinlets" : 2,
									"numoutlets" : 1,
									"patching_rect" : [ 28.0, 92.0, 228.0, 16.0 ],
									"fontsize" : 9.873845,
									"outlettype" : [ "" ]
								}

							}
, 							{
								"box" : 								{
									"maxclass" : "message",
									"text" : "window flags nogrow, savewindow 1, window exec",
									"hidden" : 1,
									"id" : "obj-5",
									"fontname" : "Verdana",
									"numinlets" : 2,
									"numoutlets" : 1,
									"patching_rect" : [ 28.0, 59.0, 260.0, 16.0 ],
									"fontsize" : 9.873845,
									"outlettype" : [ "" ]
								}

							}
, 							{
								"box" : 								{
									"maxclass" : "message",
									"text" : "window flags grow, window exec",
									"hidden" : 1,
									"id" : "obj-6",
									"fontname" : "Verdana",
									"numinlets" : 2,
									"numoutlets" : 1,
									"patching_rect" : [ 28.0, 75.0, 171.0, 16.0 ],
									"fontsize" : 9.873845,
									"outlettype" : [ "" ]
								}

							}
, 							{
								"box" : 								{
									"maxclass" : "comment",
									"text" : "maximum",
									"frgb" : [ 1.0, 1.0, 1.0, 1.0 ],
									"id" : "obj-7",
									"fontname" : "Verdana",
									"numinlets" : 1,
									"numoutlets" : 0,
									"patching_rect" : [ 23.0, 25.0, 76.0, 23.0 ],
									"fontsize" : 13.482065
								}

							}
, 							{
								"box" : 								{
									"maxclass" : "newobj",
									"varname" : "max_bands",
									"text" : "jcom.parameter max_bands @type msg_int @repetitions/allow 0 @ramp/drive none @description \"Maximum Number of bands of the filter\"",
									"linecount" : 3,
									"hidden" : 1,
									"id" : "obj-8",
									"fontname" : "Verdana",
									"numinlets" : 1,
									"numoutlets" : 3,
									"patching_rect" : [ 405.0, 238.0, 278.0, 42.0 ],
									"fontsize" : 9.873845,
									"outlettype" : [ "", "", "" ]
								}

							}
, 							{
								"box" : 								{
									"maxclass" : "newobj",
									"text" : "pvar max_voices",
									"hidden" : 1,
									"id" : "obj-9",
									"fontname" : "Verdana",
									"numinlets" : 1,
									"numoutlets" : 1,
									"patching_rect" : [ 405.0, 215.0, 92.0, 18.0 ],
									"fontsize" : 9.873845,
									"outlettype" : [ "" ]
								}

							}
, 							{
								"box" : 								{
									"maxclass" : "newobj",
									"text" : "bgcolor 50 50 50",
									"hidden" : 1,
									"id" : "obj-10",
									"fontname" : "Verdana",
									"numinlets" : 4,
									"numoutlets" : 0,
									"patching_rect" : [ 456.0, 364.0, 93.0, 18.0 ],
									"fontsize" : 9.873845
								}

							}
, 							{
								"box" : 								{
									"maxclass" : "number",
									"varname" : "max_voices",
									"htextcolor" : [ 0.870588, 0.870588, 0.870588, 1.0 ],
									"id" : "obj-11",
									"fontname" : "Verdana",
									"minimum" : 1,
									"numinlets" : 1,
									"mouseup" : 1,
									"maximum" : 24,
									"triscale" : 0.9,
									"numoutlets" : 2,
									"patching_rect" : [ 231.0, 25.0, 35.0, 23.0 ],
									"fontsize" : 13.482065,
									"bgcolor" : [ 0.866667, 0.866667, 0.866667, 1.0 ],
									"textcolor" : [ 1.0, 1.0, 1.0, 1.0 ],
									"outlettype" : [ "int", "bang" ]
								}

							}
, 							{
								"box" : 								{
									"maxclass" : "comment",
									"text" : "number of bands :",
									"frgb" : [ 1.0, 1.0, 1.0, 1.0 ],
									"id" : "obj-12",
									"fontname" : "Verdana",
									"numinlets" : 1,
									"numoutlets" : 0,
									"patching_rect" : [ 92.0, 25.0, 140.0, 23.0 ],
									"fontsize" : 13.482065
								}

							}
, 							{
								"box" : 								{
									"maxclass" : "newobj",
									"text" : "thispatcher",
									"hidden" : 1,
									"id" : "obj-14",
									"fontname" : "Verdana",
									"numinlets" : 1,
									"numoutlets" : 2,
									"patching_rect" : [ 404.0, 402.0, 69.0, 18.0 ],
									"fontsize" : 9.873845,
									"outlettype" : [ "", "" ],
									"save" : [ "#N", "thispatcher", ";", "#Q", "savewindow", 1, ";", "#Q", "end", ";" ]
								}

							}
, 							{
								"box" : 								{
									"maxclass" : "newobj",
									"text" : "t front",
									"hidden" : 1,
									"id" : "obj-15",
									"fontname" : "Verdana",
									"numinlets" : 1,
									"numoutlets" : 1,
									"patching_rect" : [ 404.0, 382.0, 40.0, 18.0 ],
									"fontsize" : 9.873845,
									"outlettype" : [ "front" ]
								}

							}
, 							{
								"box" : 								{
									"maxclass" : "inlet",
									"hidden" : 1,
									"id" : "obj-16",
									"numinlets" : 0,
									"numoutlets" : 1,
									"patching_rect" : [ 405.0, 360.0, 15.0, 15.0 ],
									"outlettype" : [ "" ],
									"comment" : ""
								}

							}
 ],
						"lines" : [ 							{
								"patchline" : 								{
									"source" : [ "obj-16", 0 ],
									"destination" : [ "obj-15", 0 ],
									"hidden" : 0,
									"midpoints" : [  ]
								}

							}
, 							{
								"patchline" : 								{
									"source" : [ "obj-3", 0 ],
									"destination" : [ "obj-5", 0 ],
									"hidden" : 1,
									"midpoints" : [  ]
								}

							}
, 							{
								"patchline" : 								{
									"source" : [ "obj-3", 0 ],
									"destination" : [ "obj-4", 0 ],
									"hidden" : 1,
									"midpoints" : [  ]
								}

							}
, 							{
								"patchline" : 								{
									"source" : [ "obj-15", 0 ],
									"destination" : [ "obj-14", 0 ],
									"hidden" : 1,
									"midpoints" : [  ]
								}

							}
, 							{
								"patchline" : 								{
									"source" : [ "obj-5", 0 ],
									"destination" : [ "obj-14", 0 ],
									"hidden" : 1,
									"midpoints" : [  ]
								}

							}
, 							{
								"patchline" : 								{
									"source" : [ "obj-6", 0 ],
									"destination" : [ "obj-14", 0 ],
									"hidden" : 1,
									"midpoints" : [  ]
								}

							}
, 							{
								"patchline" : 								{
									"source" : [ "obj-4", 0 ],
									"destination" : [ "obj-14", 0 ],
									"hidden" : 1,
									"midpoints" : [  ]
								}

							}
, 							{
								"patchline" : 								{
									"source" : [ "obj-8", 0 ],
									"destination" : [ "obj-9", 0 ],
									"hidden" : 1,
									"midpoints" : [ 414.5, 297.0, 397.0, 297.0, 397.0, 200.0, 414.5, 200.0 ]
								}

							}
, 							{
								"patchline" : 								{
									"source" : [ "obj-9", 0 ],
									"destination" : [ "obj-8", 0 ],
									"hidden" : 1,
									"midpoints" : [  ]
								}

							}
, 							{
								"patchline" : 								{
									"source" : [ "obj-8", 1 ],
									"destination" : [ "obj-2", 0 ],
									"hidden" : 1,
									"midpoints" : [ 544.0, 295.0, 500.5, 295.0 ]
								}

							}
 ]
					}
,
					"saved_object_attributes" : 					{
						"default_fontface" : 0,
						"default_fontname" : "Verdana",
						"fontname" : "Verdana",
						"default_fontsize" : 10.0,
						"globalpatchername" : "",
						"fontface" : 0,
						"fontsize" : 10.0
					}

				}

			}
, 			{
				"box" : 				{
					"maxclass" : "newobj",
					"text" : "prepend max",
					"id" : "obj-8",
					"fontname" : "Verdana",
					"numinlets" : 1,
					"numoutlets" : 1,
					"patching_rect" : [ 435.0, 90.0, 75.0, 19.0 ],
					"fontsize" : 10.0,
					"outlettype" : [ "" ]
				}

			}
, 			{
				"box" : 				{
					"maxclass" : "newobj",
					"text" : "r #0_max_voices",
					"id" : "obj-9",
					"fontname" : "Verdana",
					"numinlets" : 0,
					"numoutlets" : 1,
					"patching_rect" : [ 405.0, 55.0, 96.0, 19.0 ],
					"fontsize" : 10.0,
					"outlettype" : [ "" ]
				}

			}
, 			{
				"box" : 				{
					"maxclass" : "newobj",
					"text" : "prepend nfilters",
					"id" : "obj-11",
					"fontname" : "Verdana",
					"numinlets" : 1,
					"numoutlets" : 1,
					"patching_rect" : [ 405.0, 190.0, 88.0, 19.0 ],
					"fontsize" : 10.0,
					"outlettype" : [ "" ]
				}

			}
, 			{
				"box" : 				{
					"maxclass" : "newobj",
					"varname" : "bands",
					"text" : "jcom.parameter bands @type msg_int @repetitions/allow 0 @description \"Number of bands of the filter\"",
					"linecount" : 2,
					"id" : "obj-12",
					"fontname" : "Verdana",
					"numinlets" : 1,
					"numoutlets" : 3,
					"patching_rect" : [ 460.0, 125.0, 303.0, 31.0 ],
					"fontsize" : 10.0,
					"outlettype" : [ "", "", "" ]
				}

			}
, 			{
				"box" : 				{
					"maxclass" : "comment",
					"text" : "filter type :",
					"frgb" : [ 1.0, 1.0, 1.0, 1.0 ],
					"id" : "obj-14",
					"fontname" : "Verdana",
					"presentation_rect" : [ 141.0, 23.0, 67.0, 19.0 ],
					"numinlets" : 1,
					"numoutlets" : 0,
					"patching_rect" : [ 135.0, 22.0, 65.0, 19.0 ],
					"fontsize" : 10.0,
					"presentation" : 1
				}

			}
, 			{
				"box" : 				{
					"maxclass" : "number",
					"varname" : "voices",
					"id" : "obj-15",
					"fontname" : "Verdana",
					"minimum" : 1,
					"presentation_rect" : [ 104.0, 23.0, 35.0, 19.0 ],
					"numinlets" : 1,
					"mouseup" : 1,
					"maximum" : 5,
					"triscale" : 0.9,
					"numoutlets" : 2,
					"patching_rect" : [ 405.0, 130.0, 35.0, 19.0 ],
					"fontsize" : 10.0,
					"presentation" : 1,
					"outlettype" : [ "int", "bang" ]
				}

			}
, 			{
				"box" : 				{
					"maxclass" : "newobj",
					"text" : "r #0_xxx_to_filtergraph",
					"id" : "obj-18",
					"fontname" : "Verdana",
					"numinlets" : 0,
					"numoutlets" : 1,
					"patching_rect" : [ 570.0, 190.0, 211.0, 19.0 ],
					"fontsize" : 10.0,
					"outlettype" : [ "" ]
				}

			}
, 			{
				"box" : 				{
					"maxclass" : "newobj",
					"text" : "jcom.message filtergraph @description \"Messages to filtergraph. See the MSP reference for further details\"",
					"linecount" : 2,
					"id" : "obj-20",
					"fontname" : "Verdana",
					"numinlets" : 1,
					"numoutlets" : 3,
					"patching_rect" : [ 379.0, 17.0, 278.0, 31.0 ],
					"fontsize" : 10.0,
					"outlettype" : [ "", "", "" ]
				}

			}
, 			{
				"box" : 				{
					"maxclass" : "newobj",
					"varname" : "filter_params",
					"text" : "p filter",
					"id" : "obj-22",
					"fontname" : "Verdana",
					"numinlets" : 6,
					"numoutlets" : 2,
					"patching_rect" : [ 425.0, 350.0, 114.0, 19.0 ],
					"fontsize" : 10.0,
					"outlettype" : [ "", "" ],
					"patcher" : 					{
						"fileversion" : 1,
						"rect" : [ 301.0, 256.0, 900.0, 591.0 ],
						"bglocked" : 0,
						"defrect" : [ 301.0, 256.0, 900.0, 591.0 ],
						"openrect" : [ 0.0, 0.0, 0.0, 0.0 ],
						"openinpresentation" : 0,
						"default_fontsize" : 10.0,
						"default_fontface" : 0,
						"default_fontname" : "Verdana",
						"gridonopen" : 0,
						"gridsize" : [ 5.0, 5.0 ],
						"gridsnaponopen" : 0,
						"toolbarvisible" : 1,
						"boxanimatetime" : 200,
						"imprint" : 0,
						"metadata" : [  ],
						"boxes" : [ 							{
								"box" : 								{
									"maxclass" : "newobj",
									"text" : "t b i",
									"id" : "obj-1",
									"fontname" : "Verdana",
									"numinlets" : 1,
									"numoutlets" : 2,
									"patching_rect" : [ 575.0, 211.0, 65.0, 19.0 ],
									"fontsize" : 10.0,
									"outlettype" : [ "bang", "int" ]
								}

							}
, 							{
								"box" : 								{
									"maxclass" : "newobj",
									"text" : "prepend target",
									"linecount" : 2,
									"id" : "obj-2",
									"fontname" : "Verdana",
									"numinlets" : 1,
									"numoutlets" : 1,
									"patching_rect" : [ 625.0, 233.0, 54.0, 31.0 ],
									"fontsize" : 10.0,
									"outlettype" : [ "" ]
								}

							}
, 							{
								"box" : 								{
									"maxclass" : "newobj",
									"text" : "prepend target",
									"linecount" : 2,
									"id" : "obj-3",
									"fontname" : "Verdana",
									"numinlets" : 1,
									"numoutlets" : 1,
									"patching_rect" : [ 215.0, 233.0, 54.0, 31.0 ],
									"fontsize" : 10.0,
									"outlettype" : [ "" ]
								}

							}
, 							{
								"box" : 								{
									"maxclass" : "newobj",
									"text" : "t s b",
									"id" : "obj-4",
									"fontname" : "Verdana",
									"numinlets" : 1,
									"numoutlets" : 2,
									"patching_rect" : [ 325.0, 210.0, 31.0, 19.0 ],
									"fontsize" : 10.0,
									"outlettype" : [ "", "bang" ]
								}

							}
, 							{
								"box" : 								{
									"maxclass" : "newobj",
									"text" : "i",
									"id" : "obj-5",
									"fontname" : "Verdana",
									"numinlets" : 2,
									"numoutlets" : 1,
									"patching_rect" : [ 267.0, 210.0, 27.0, 19.0 ],
									"fontsize" : 10.0,
									"outlettype" : [ "int" ]
								}

							}
, 							{
								"box" : 								{
									"maxclass" : "number",
									"htextcolor" : [ 0.870588, 0.870588, 0.870588, 1.0 ],
									"id" : "obj-6",
									"fontname" : "Verdana",
									"numinlets" : 1,
									"mouseup" : 1,
									"triscale" : 0.9,
									"numoutlets" : 2,
									"patching_rect" : [ 60.0, 45.0, 36.0, 19.0 ],
									"fontsize" : 10.0,
									"bgcolor" : [ 0.866667, 0.866667, 0.866667, 1.0 ],
									"outlettype" : [ "int", "bang" ]
								}

							}
, 							{
								"box" : 								{
									"maxclass" : "inlet",
									"id" : "obj-7",
									"numinlets" : 0,
									"numoutlets" : 1,
									"patching_rect" : [ 375.0, 30.0, 25.0, 25.0 ],
									"outlettype" : [ "" ],
									"comment" : ""
								}

							}
, 							{
								"box" : 								{
									"maxclass" : "newobj",
									"text" : "prepend set",
									"id" : "obj-8",
									"fontname" : "Verdana",
									"numinlets" : 1,
									"numoutlets" : 1,
									"patching_rect" : [ 575.0, 350.0, 68.0, 19.0 ],
									"fontsize" : 10.0,
									"outlettype" : [ "" ]
								}

							}
, 							{
								"box" : 								{
									"maxclass" : "newobj",
									"text" : "t i i",
									"id" : "obj-9",
									"fontname" : "Verdana",
									"numinlets" : 1,
									"numoutlets" : 2,
									"patching_rect" : [ 575.0, 181.0, 37.0, 19.0 ],
									"fontsize" : 10.0,
									"outlettype" : [ "int", "int" ]
								}

							}
, 							{
								"box" : 								{
									"maxclass" : "newobj",
									"text" : "t #0_ i",
									"id" : "obj-10",
									"fontname" : "Verdana",
									"numinlets" : 1,
									"numoutlets" : 2,
									"patching_rect" : [ 375.0, 84.0, 62.0, 19.0 ],
									"fontsize" : 10.0,
									"outlettype" : [ "", "int" ]
								}

							}
, 							{
								"box" : 								{
									"maxclass" : "newobj",
									"text" : "prepend voices",
									"linecount" : 2,
									"id" : "obj-11",
									"fontname" : "Verdana",
									"numinlets" : 1,
									"numoutlets" : 1,
									"patching_rect" : [ 420.0, 150.0, 56.0, 31.0 ],
									"fontsize" : 10.0,
									"outlettype" : [ "" ]
								}

							}
, 							{
								"box" : 								{
									"maxclass" : "newobj",
									"text" : "r",
									"id" : "obj-13",
									"fontname" : "Verdana",
									"numinlets" : 1,
									"numoutlets" : 1,
									"patching_rect" : [ 575.0, 161.0, 22.0, 19.0 ],
									"fontsize" : 10.0,
									"outlettype" : [ "" ]
								}

							}
, 							{
								"box" : 								{
									"maxclass" : "newobj",
									"text" : "sprintf set %sfilter_active",
									"id" : "obj-14",
									"fontname" : "Verdana",
									"numinlets" : 1,
									"numoutlets" : 1,
									"patching_rect" : [ 575.0, 139.0, 141.0, 19.0 ],
									"fontsize" : 10.0,
									"outlettype" : [ "" ]
								}

							}
, 							{
								"box" : 								{
									"maxclass" : "newobj",
									"text" : "prepend target",
									"linecount" : 2,
									"id" : "obj-15",
									"fontname" : "Verdana",
									"numinlets" : 1,
									"numoutlets" : 1,
									"patching_rect" : [ 475.0, 233.0, 54.0, 31.0 ],
									"fontsize" : 10.0,
									"outlettype" : [ "" ]
								}

							}
, 							{
								"box" : 								{
									"maxclass" : "newobj",
									"text" : "t s 0 s",
									"id" : "obj-16",
									"fontname" : "Verdana",
									"numinlets" : 1,
									"numoutlets" : 3,
									"patching_rect" : [ 375.0, 115.0, 218.0, 19.0 ],
									"fontsize" : 10.0,
									"outlettype" : [ "", "int", "" ]
								}

							}
, 							{
								"box" : 								{
									"maxclass" : "outlet",
									"id" : "obj-17",
									"numinlets" : 1,
									"numoutlets" : 0,
									"patching_rect" : [ 575.0, 380.0, 25.0, 25.0 ],
									"comment" : ""
								}

							}
, 							{
								"box" : 								{
									"maxclass" : "outlet",
									"id" : "obj-18",
									"numinlets" : 1,
									"numoutlets" : 0,
									"patching_rect" : [ 160.0, 380.0, 25.0, 25.0 ],
									"comment" : ""
								}

							}
, 							{
								"box" : 								{
									"maxclass" : "newobj",
									"text" : "+ 1",
									"id" : "obj-19",
									"fontname" : "Verdana",
									"numinlets" : 2,
									"numoutlets" : 1,
									"patching_rect" : [ 270.0, 90.0, 30.0, 19.0 ],
									"fontsize" : 10.0,
									"outlettype" : [ "int" ]
								}

							}
, 							{
								"box" : 								{
									"maxclass" : "newobj",
									"text" : "jcom.thru",
									"id" : "obj-20",
									"fontname" : "Verdana",
									"numinlets" : 1,
									"numoutlets" : 1,
									"patching_rect" : [ 60.0, 105.0, 57.0, 19.0 ],
									"fontsize" : 10.0,
									"outlettype" : [ "" ]
								}

							}
, 							{
								"box" : 								{
									"maxclass" : "message",
									"text" : "open $1",
									"id" : "obj-21",
									"fontname" : "Verdana",
									"numinlets" : 2,
									"numoutlets" : 1,
									"patching_rect" : [ 60.0, 75.0, 49.0, 17.0 ],
									"fontsize" : 10.0,
									"outlettype" : [ "" ]
								}

							}
, 							{
								"box" : 								{
									"maxclass" : "newobj",
									"varname" : "jalg.filter_params",
									"text" : "poly~ jalg.equalizer~_params 0",
									"id" : "obj-22",
									"fontname" : "Verdana",
									"numinlets" : 4,
									"numoutlets" : 2,
									"patching_rect" : [ 160.0, 315.0, 434.0, 19.0 ],
									"fontsize" : 10.0,
									"outlettype" : [ "", "" ]
								}

							}
, 							{
								"box" : 								{
									"maxclass" : "newobj",
									"text" : "prepend target",
									"linecount" : 2,
									"id" : "obj-23",
									"fontname" : "Verdana",
									"numinlets" : 1,
									"numoutlets" : 1,
									"patching_rect" : [ 270.0, 125.0, 54.0, 31.0 ],
									"fontsize" : 10.0,
									"outlettype" : [ "" ]
								}

							}
, 							{
								"box" : 								{
									"maxclass" : "newobj",
									"text" : "pack 0. 0. 0.",
									"id" : "obj-24",
									"fontname" : "Verdana",
									"numinlets" : 3,
									"numoutlets" : 1,
									"patching_rect" : [ 160.0, 90.0, 98.0, 19.0 ],
									"fontsize" : 10.0,
									"outlettype" : [ "" ]
								}

							}
, 							{
								"box" : 								{
									"maxclass" : "inlet",
									"id" : "obj-25",
									"numinlets" : 0,
									"numoutlets" : 1,
									"patching_rect" : [ 325.0, 30.0, 25.0, 25.0 ],
									"outlettype" : [ "" ],
									"comment" : ""
								}

							}
, 							{
								"box" : 								{
									"maxclass" : "inlet",
									"id" : "obj-26",
									"numinlets" : 0,
									"numoutlets" : 1,
									"patching_rect" : [ 270.0, 30.0, 25.0, 25.0 ],
									"outlettype" : [ "int" ],
									"comment" : ""
								}

							}
, 							{
								"box" : 								{
									"maxclass" : "inlet",
									"id" : "obj-27",
									"numinlets" : 0,
									"numoutlets" : 1,
									"patching_rect" : [ 240.0, 30.0, 25.0, 25.0 ],
									"outlettype" : [ "float" ],
									"comment" : ""
								}

							}
, 							{
								"box" : 								{
									"maxclass" : "inlet",
									"id" : "obj-28",
									"numinlets" : 0,
									"numoutlets" : 1,
									"patching_rect" : [ 200.0, 30.0, 25.0, 25.0 ],
									"outlettype" : [ "float" ],
									"comment" : ""
								}

							}
, 							{
								"box" : 								{
									"maxclass" : "inlet",
									"id" : "obj-29",
									"numinlets" : 0,
									"numoutlets" : 1,
									"patching_rect" : [ 160.0, 30.0, 25.0, 25.0 ],
									"outlettype" : [ "float" ],
									"comment" : ""
								}

							}
 ],
						"lines" : [ 							{
								"patchline" : 								{
									"source" : [ "obj-1", 0 ],
									"destination" : [ "obj-22", 3 ],
									"hidden" : 0,
									"midpoints" : [  ]
								}

							}
, 							{
								"patchline" : 								{
									"source" : [ "obj-16", 0 ],
									"destination" : [ "obj-22", 2 ],
									"hidden" : 0,
									"midpoints" : [  ]
								}

							}
, 							{
								"patchline" : 								{
									"source" : [ "obj-4", 0 ],
									"destination" : [ "obj-22", 1 ],
									"hidden" : 0,
									"midpoints" : [  ]
								}

							}
, 							{
								"patchline" : 								{
									"source" : [ "obj-6", 0 ],
									"destination" : [ "obj-21", 0 ],
									"hidden" : 0,
									"midpoints" : [  ]
								}

							}
, 							{
								"patchline" : 								{
									"source" : [ "obj-21", 0 ],
									"destination" : [ "obj-20", 0 ],
									"hidden" : 0,
									"midpoints" : [  ]
								}

							}
, 							{
								"patchline" : 								{
									"source" : [ "obj-29", 0 ],
									"destination" : [ "obj-24", 0 ],
									"hidden" : 0,
									"midpoints" : [  ]
								}

							}
, 							{
								"patchline" : 								{
									"source" : [ "obj-28", 0 ],
									"destination" : [ "obj-24", 1 ],
									"hidden" : 0,
									"midpoints" : [  ]
								}

							}
, 							{
								"patchline" : 								{
									"source" : [ "obj-5", 0 ],
									"destination" : [ "obj-3", 0 ],
									"hidden" : 0,
									"midpoints" : [ 276.5, 230.0, 224.5, 230.0 ]
								}

							}
, 							{
								"patchline" : 								{
									"source" : [ "obj-27", 0 ],
									"destination" : [ "obj-24", 2 ],
									"hidden" : 0,
									"midpoints" : [  ]
								}

							}
, 							{
								"patchline" : 								{
									"source" : [ "obj-26", 0 ],
									"destination" : [ "obj-19", 0 ],
									"hidden" : 0,
									"midpoints" : [  ]
								}

							}
, 							{
								"patchline" : 								{
									"source" : [ "obj-19", 0 ],
									"destination" : [ "obj-23", 0 ],
									"hidden" : 0,
									"midpoints" : [  ]
								}

							}
, 							{
								"patchline" : 								{
									"source" : [ "obj-4", 1 ],
									"destination" : [ "obj-5", 0 ],
									"hidden" : 0,
									"midpoints" : [ 346.5, 231.0, 306.0, 231.0, 306.0, 207.0, 276.5, 207.0 ]
								}

							}
, 							{
								"patchline" : 								{
									"source" : [ "obj-9", 1 ],
									"destination" : [ "obj-5", 1 ],
									"hidden" : 0,
									"midpoints" : [ 602.5, 205.0, 284.5, 205.0 ]
								}

							}
, 							{
								"patchline" : 								{
									"source" : [ "obj-25", 0 ],
									"destination" : [ "obj-4", 0 ],
									"hidden" : 0,
									"midpoints" : [  ]
								}

							}
, 							{
								"patchline" : 								{
									"source" : [ "obj-7", 0 ],
									"destination" : [ "obj-10", 0 ],
									"hidden" : 0,
									"midpoints" : [  ]
								}

							}
, 							{
								"patchline" : 								{
									"source" : [ "obj-10", 0 ],
									"destination" : [ "obj-16", 0 ],
									"hidden" : 0,
									"midpoints" : [ 384.5, 107.0, 384.5, 107.0 ]
								}

							}
, 							{
								"patchline" : 								{
									"source" : [ "obj-10", 1 ],
									"destination" : [ "obj-11", 0 ],
									"hidden" : 0,
									"midpoints" : [  ]
								}

							}
, 							{
								"patchline" : 								{
									"source" : [ "obj-16", 1 ],
									"destination" : [ "obj-15", 0 ],
									"hidden" : 0,
									"midpoints" : [  ]
								}

							}
, 							{
								"patchline" : 								{
									"source" : [ "obj-16", 2 ],
									"destination" : [ "obj-14", 0 ],
									"hidden" : 0,
									"midpoints" : [  ]
								}

							}
, 							{
								"patchline" : 								{
									"source" : [ "obj-14", 0 ],
									"destination" : [ "obj-13", 0 ],
									"hidden" : 0,
									"midpoints" : [  ]
								}

							}
, 							{
								"patchline" : 								{
									"source" : [ "obj-13", 0 ],
									"destination" : [ "obj-9", 0 ],
									"hidden" : 0,
									"midpoints" : [  ]
								}

							}
, 							{
								"patchline" : 								{
									"source" : [ "obj-9", 0 ],
									"destination" : [ "obj-1", 0 ],
									"hidden" : 0,
									"midpoints" : [  ]
								}

							}
, 							{
								"patchline" : 								{
									"source" : [ "obj-8", 0 ],
									"destination" : [ "obj-17", 0 ],
									"hidden" : 0,
									"midpoints" : [  ]
								}

							}
, 							{
								"patchline" : 								{
									"source" : [ "obj-1", 1 ],
									"destination" : [ "obj-2", 0 ],
									"hidden" : 0,
									"midpoints" : [  ]
								}

							}
, 							{
								"patchline" : 								{
									"source" : [ "obj-3", 0 ],
									"destination" : [ "obj-22", 0 ],
									"hidden" : 0,
									"midpoints" : [ 224.5, 276.0, 169.5, 276.0 ]
								}

							}
, 							{
								"patchline" : 								{
									"source" : [ "obj-23", 0 ],
									"destination" : [ "obj-22", 0 ],
									"hidden" : 0,
									"midpoints" : [ 279.5, 186.0, 169.5, 186.0 ]
								}

							}
, 							{
								"patchline" : 								{
									"source" : [ "obj-24", 0 ],
									"destination" : [ "obj-22", 0 ],
									"hidden" : 0,
									"midpoints" : [  ]
								}

							}
, 							{
								"patchline" : 								{
									"source" : [ "obj-11", 0 ],
									"destination" : [ "obj-22", 0 ],
									"hidden" : 0,
									"midpoints" : [ 429.5, 202.0, 169.5, 202.0 ]
								}

							}
, 							{
								"patchline" : 								{
									"source" : [ "obj-20", 0 ],
									"destination" : [ "obj-22", 0 ],
									"hidden" : 0,
									"midpoints" : [ 69.5, 191.0, 169.5, 191.0 ]
								}

							}
, 							{
								"patchline" : 								{
									"source" : [ "obj-2", 0 ],
									"destination" : [ "obj-22", 0 ],
									"hidden" : 0,
									"midpoints" : [ 634.5, 279.0, 169.5, 279.0 ]
								}

							}
, 							{
								"patchline" : 								{
									"source" : [ "obj-22", 0 ],
									"destination" : [ "obj-18", 0 ],
									"hidden" : 0,
									"midpoints" : [  ]
								}

							}
, 							{
								"patchline" : 								{
									"source" : [ "obj-22", 1 ],
									"destination" : [ "obj-8", 0 ],
									"hidden" : 0,
									"midpoints" : [  ]
								}

							}
, 							{
								"patchline" : 								{
									"source" : [ "obj-15", 0 ],
									"destination" : [ "obj-22", 0 ],
									"hidden" : 0,
									"midpoints" : [ 484.5, 282.0, 169.5, 282.0 ]
								}

							}
 ]
					}
,
					"saved_object_attributes" : 					{
						"default_fontface" : 0,
						"default_fontname" : "Verdana",
						"fontname" : "Verdana",
						"default_fontsize" : 10.0,
						"globalpatchername" : "",
						"fontface" : 0,
						"fontsize" : 10.0
					}

				}

			}
, 			{
				"box" : 				{
					"maxclass" : "umenu",
					"varname" : "mode",
					"pattrmode" : 1,
					"id" : "obj-24",
					"fontname" : "Verdana",
					"presentation_rect" : [ 202.0, 23.0, 93.0, 19.0 ],
					"numinlets" : 1,
					"types" : [  ],
					"numoutlets" : 3,
					"patching_rect" : [ 520.0, 375.0, 93.0, 19.0 ],
					"fontsize" : 10.0,
					"presentation" : 1,
					"items" : [ "lowpass", ",", "highpass", ",", "bandpass", ",", "bandstop", ",", "peaknotch", ",", "lowshelf", ",", "highshelf" ],
					"outlettype" : [ "int", "", "" ]
				}

			}
, 			{
				"box" : 				{
					"maxclass" : "filtergraph~",
					"varname" : "filter",
					"curvecolor" : [ 0.019608, 0.0, 0.690196, 1.0 ],
					"id" : "obj-25",
					"autoout" : 1,
					"fgcolor" : [ 0.866667, 0.905882, 0.964706, 1.0 ],
					"presentation_rect" : [ 9.0, 43.0, 284.0, 93.0 ],
					"numinlets" : 8,
					"hcurvecolor" : [ 0.74902, 0.172549, 0.160784, 1.0 ],
					"numoutlets" : 7,
					"markercolor" : [ 0.831373, 0.05098, 0.031373, 1.0 ],
					"patching_rect" : [ 380.0, 220.0, 284.0, 93.0 ],
					"fontsize" : 8.998901,
					"domain" : [ 20.0, 22050.0 ],
					"presentation" : 1,
					"bgcolor" : [ 0.513726, 0.54902, 0.631373, 1.0 ],
					"bordercolor" : [ 0.286275, 0.494118, 0.733333, 1.0 ],
					"textcolor" : [  ],
					"outlettype" : [ "list", "float", "float", "float", "float", "list", "int" ],
					"bwidthcolor" : [ 0.298039, 0.423529, 0.67451, 1.0 ],
					"nfilters" : 5,
					"setfilter" : [ 4, 5, 1, 0, 0, 221.001984, 1.03845, 2.5, 0.0, 0.0, 0.0, 0.0, 0.0, 0.0, 3, 5, 1, 0, 0, 934.075317, 2.854469, 1.804277, 0.0, 0.0, 0.0, 0.0, 0.0, 0.0, 2, 5, 1, 0, 0, 5254.994629, 0.47876, 1.804277, 0.0, 0.0, 0.0, 0.0, 0.0, 0.0, 1, 5, 1, 0, 0, 56.439392, 0.355289, 1.804277, 0.0, 0.0, 0.0, 0.0, 0.0, 0.0, 0, 5, 1, 0, 0, 1.0, 1.03845, 1.0, 0.0, 0.0, 0.0, 0.0, 0.0, 0.0 ]
				}

			}
, 			{
				"box" : 				{
					"maxclass" : "comment",
					"text" : "number of bands :",
					"frgb" : [ 1.0, 1.0, 1.0, 1.0 ],
					"id" : "obj-26",
					"fontname" : "Verdana",
					"presentation_rect" : [ 5.0, 23.0, 102.0, 19.0 ],
					"numinlets" : 1,
					"numoutlets" : 0,
					"patching_rect" : [ 10.0, 22.0, 102.0, 19.0 ],
					"fontsize" : 10.0,
					"presentation" : 1
				}

			}
, 			{
				"box" : 				{
					"maxclass" : "message",
					"text" : "/documentation/generate",
					"id" : "obj-27",
					"fontname" : "Verdana",
					"numinlets" : 2,
					"numoutlets" : 1,
					"patching_rect" : [ 70.0, 635.0, 137.0, 17.0 ],
					"fontsize" : 10.0,
					"outlettype" : [ "" ]
				}

			}
, 			{
				"box" : 				{
					"maxclass" : "newobj",
					"varname" : "jcom.hub",
					"text" : "jcom.hub @module_type audio @description \"Multi-band filter\"",
					"linecount" : 2,
					"id" : "obj-29",
					"fontname" : "Verdana",
					"numinlets" : 1,
					"numoutlets" : 2,
					"patching_rect" : [ 20.0, 670.0, 184.0, 31.0 ],
					"fontsize" : 10.0,
					"outlettype" : [ "", "" ]
				}

			}
, 			{
				"box" : 				{
					"maxclass" : "comment",
					"text" : "command input",
					"frgb" : [ 1.0, 1.0, 1.0, 1.0 ],
					"id" : "obj-30",
					"fontname" : "Verdana",
					"numinlets" : 1,
					"numoutlets" : 0,
					"patching_rect" : [ 50.0, 475.0, 87.0, 19.0 ],
					"fontsize" : 10.0
				}

			}
, 			{
				"box" : 				{
					"maxclass" : "inlet",
					"id" : "obj-31",
					"numinlets" : 0,
					"numoutlets" : 1,
					"patching_rect" : [ 20.0, 475.0, 26.0, 26.0 ],
					"outlettype" : [ "" ],
					"comment" : ""
				}

			}
, 			{
				"box" : 				{
					"maxclass" : "message",
					"text" : "/init",
					"id" : "obj-32",
					"fontname" : "Verdana",
					"numinlets" : 2,
					"numoutlets" : 1,
					"patching_rect" : [ 210.0, 635.0, 37.0, 17.0 ],
					"fontsize" : 10.0,
					"outlettype" : [ "" ]
				}

			}
, 			{
				"box" : 				{
					"maxclass" : "inlet",
					"id" : "obj-33",
					"numinlets" : 0,
					"numoutlets" : 1,
					"patching_rect" : [ 415.0, 475.0, 26.0, 26.0 ],
					"outlettype" : [ "" ],
					"comment" : ""
				}

			}
, 			{
				"box" : 				{
					"maxclass" : "outlet",
					"id" : "obj-34",
					"numinlets" : 1,
					"numoutlets" : 0,
					"patching_rect" : [ 415.0, 705.0, 26.0, 26.0 ],
					"comment" : ""
				}

			}
, 			{
				"box" : 				{
					"maxclass" : "inlet",
					"id" : "obj-35",
					"numinlets" : 0,
					"numoutlets" : 1,
					"patching_rect" : [ 570.0, 475.0, 26.0, 26.0 ],
					"outlettype" : [ "" ],
					"comment" : ""
				}

			}
, 			{
				"box" : 				{
					"maxclass" : "newobj",
					"text" : "jalg.equalizer~",
					"id" : "obj-36",
					"fontname" : "Verdana",
					"numinlets" : 3,
					"numoutlets" : 3,
					"patching_rect" : [ 365.0, 640.0, 121.0, 19.0 ],
					"fontsize" : 10.0,
					"outlettype" : [ "", "signal", "signal" ]
				}

			}
, 			{
				"box" : 				{
					"maxclass" : "comment",
					"text" : "----signal inputs----",
					"frgb" : [ 1.0, 1.0, 1.0, 1.0 ],
					"id" : "obj-37",
					"fontname" : "Verdana",
					"numinlets" : 1,
					"numoutlets" : 0,
					"patching_rect" : [ 450.0, 475.0, 113.0, 18.0 ],
					"fontsize" : 9.873845
				}

			}
, 			{
				"box" : 				{
					"maxclass" : "outlet",
					"id" : "obj-38",
					"numinlets" : 1,
					"numoutlets" : 0,
					"patching_rect" : [ 20.0, 705.0, 26.0, 26.0 ],
					"comment" : ""
				}

			}
, 			{
				"box" : 				{
					"maxclass" : "outlet",
					"id" : "obj-39",
					"numinlets" : 1,
					"numoutlets" : 0,
					"patching_rect" : [ 450.0, 705.0, 26.0, 26.0 ],
					"comment" : ""
				}

			}
, 			{
				"box" : 				{
					"maxclass" : "comment",
					"text" : "---signal outputs---",
					"frgb" : [ 1.0, 1.0, 1.0, 1.0 ],
					"id" : "obj-40",
					"fontname" : "Verdana",
					"numinlets" : 1,
					"numoutlets" : 0,
					"patching_rect" : [ 495.0, 705.0, 108.0, 18.0 ],
					"fontsize" : 9.873845
				}

			}
, 			{
				"box" : 				{
					"maxclass" : "jcom.ui",
					"text" : "/editing_this_module",
					"has_gain" : 1,
					"has_panel" : 1,
					"id" : "obj-42",
					"has_mix" : 1,
					"presentation_rect" : [ 0.0, 0.0, 300.0, 140.0 ],
					"numinlets" : 1,
					"has_mute" : 1,
					"numoutlets" : 1,
					"patching_rect" : [ 0.0, 0.0, 300.0, 140.0 ],
					"presentation" : 1,
					"has_bypass" : 1,
					"outlettype" : [ "" ]
				}

			}
 ],
		"lines" : [ 			{
				"patchline" : 				{
					"source" : [ "obj-25", 6 ],
					"destination" : [ "obj-13", 0 ],
					"hidden" : 0,
					"midpoints" : [  ]
				}

			}
, 			{
				"patchline" : 				{
					"source" : [ "obj-1", 0 ],
					"destination" : [ "obj-7", 0 ],
					"hidden" : 0,
					"midpoints" : [  ]
				}

			}
, 			{
				"patchline" : 				{
					"source" : [ "obj-6", 2 ],
					"destination" : [ "obj-1", 0 ],
					"hidden" : 0,
					"midpoints" : [  ]
				}

			}
, 			{
				"patchline" : 				{
					"source" : [ "obj-4", 0 ],
					"destination" : [ "obj-29", 0 ],
					"hidden" : 0,
					"midpoints" : [ 59.5, 656.0, 29.5, 656.0 ]
				}

			}
, 			{
				"patchline" : 				{
					"source" : [ "obj-31", 0 ],
					"destination" : [ "obj-29", 0 ],
					"hidden" : 0,
					"midpoints" : [  ]
				}

			}
, 			{
				"patchline" : 				{
					"source" : [ "obj-27", 0 ],
					"destination" : [ "obj-29", 0 ],
					"hidden" : 0,
					"midpoints" : [ 79.5, 658.0, 29.5, 658.0 ]
				}

			}
, 			{
				"patchline" : 				{
					"source" : [ "obj-32", 0 ],
					"destination" : [ "obj-29", 0 ],
					"hidden" : 0,
					"midpoints" : [ 219.5, 660.0, 29.5, 660.0 ]
				}

			}
, 			{
				"patchline" : 				{
					"source" : [ "obj-29", 0 ],
					"destination" : [ "obj-38", 0 ],
					"hidden" : 0,
					"midpoints" : [  ]
				}

			}
, 			{
				"patchline" : 				{
					"source" : [ "obj-2", 0 ],
					"destination" : [ "obj-36", 0 ],
					"hidden" : 0,
					"midpoints" : [ 654.5, 631.0, 374.5, 631.0 ]
				}

			}
, 			{
				"patchline" : 				{
					"source" : [ "obj-33", 0 ],
					"destination" : [ "obj-6", 0 ],
					"hidden" : 0,
					"midpoints" : [  ]
				}

			}
, 			{
				"patchline" : 				{
					"source" : [ "obj-6", 0 ],
					"destination" : [ "obj-36", 1 ],
					"hidden" : 0,
					"midpoints" : [  ]
				}

			}
, 			{
				"patchline" : 				{
					"source" : [ "obj-36", 1 ],
					"destination" : [ "obj-5", 0 ],
					"hidden" : 0,
					"midpoints" : [  ]
				}

			}
, 			{
				"patchline" : 				{
					"source" : [ "obj-5", 0 ],
					"destination" : [ "obj-34", 0 ],
					"hidden" : 0,
					"midpoints" : [  ]
				}

			}
, 			{
				"patchline" : 				{
					"source" : [ "obj-5", 1 ],
					"destination" : [ "obj-39", 0 ],
					"hidden" : 0,
					"midpoints" : [  ]
				}

			}
, 			{
				"patchline" : 				{
					"source" : [ "obj-6", 1 ],
					"destination" : [ "obj-36", 2 ],
					"hidden" : 0,
					"midpoints" : [  ]
				}

			}
, 			{
				"patchline" : 				{
					"source" : [ "obj-36", 2 ],
					"destination" : [ "obj-5", 1 ],
					"hidden" : 0,
					"midpoints" : [  ]
				}

			}
, 			{
				"patchline" : 				{
					"source" : [ "obj-12", 1 ],
					"destination" : [ "obj-11", 0 ],
					"hidden" : 0,
					"midpoints" : [ 611.5, 179.0, 414.5, 179.0 ]
				}

			}
, 			{
				"patchline" : 				{
					"source" : [ "obj-9", 0 ],
					"destination" : [ "obj-8", 0 ],
					"hidden" : 0,
					"color" : [ 0.803922, 0.803922, 0.803922, 1.0 ],
					"midpoints" : [  ]
				}

			}
, 			{
				"patchline" : 				{
					"source" : [ "obj-35", 0 ],
					"destination" : [ "obj-6", 1 ],
					"hidden" : 0,
					"midpoints" : [  ]
				}

			}
, 			{
				"patchline" : 				{
					"source" : [ "obj-24", 1 ],
					"destination" : [ "obj-22", 4 ],
					"hidden" : 0,
					"midpoints" : [ 566.5, 403.0, 623.0, 403.0, 623.0, 328.0, 510.5, 328.0 ]
				}

			}
, 			{
				"patchline" : 				{
					"source" : [ "obj-15", 0 ],
					"destination" : [ "obj-11", 0 ],
					"hidden" : 0,
					"midpoints" : [  ]
				}

			}
, 			{
				"patchline" : 				{
					"source" : [ "obj-8", 0 ],
					"destination" : [ "obj-15", 0 ],
					"hidden" : 0,
					"midpoints" : [  ]
				}

			}
, 			{
				"patchline" : 				{
					"source" : [ "obj-9", 0 ],
					"destination" : [ "obj-15", 0 ],
					"hidden" : 0,
					"midpoints" : [  ]
				}

			}
, 			{
				"patchline" : 				{
					"source" : [ "obj-25", 1 ],
					"destination" : [ "obj-22", 0 ],
					"hidden" : 0,
					"midpoints" : [  ]
				}

			}
, 			{
				"patchline" : 				{
					"source" : [ "obj-25", 2 ],
					"destination" : [ "obj-22", 1 ],
					"hidden" : 0,
					"midpoints" : [  ]
				}

			}
, 			{
				"patchline" : 				{
					"source" : [ "obj-25", 3 ],
					"destination" : [ "obj-22", 2 ],
					"hidden" : 0,
					"midpoints" : [  ]
				}

			}
, 			{
				"patchline" : 				{
					"source" : [ "obj-25", 6 ],
					"destination" : [ "obj-22", 3 ],
					"hidden" : 0,
					"midpoints" : [  ]
				}

			}
, 			{
				"patchline" : 				{
					"source" : [ "obj-20", 0 ],
					"destination" : [ "obj-25", 0 ],
					"hidden" : 0,
					"midpoints" : [  ]
				}

			}
, 			{
				"patchline" : 				{
					"source" : [ "obj-22", 0 ],
					"destination" : [ "obj-25", 0 ],
					"hidden" : 0,
					"midpoints" : [ 434.5, 374.0, 365.0, 374.0, 365.0, 210.0, 389.5, 210.0 ]
				}

			}
, 			{
				"patchline" : 				{
					"source" : [ "obj-22", 1 ],
					"destination" : [ "obj-24", 0 ],
					"hidden" : 0,
					"midpoints" : [  ]
				}

			}
, 			{
				"patchline" : 				{
					"source" : [ "obj-12", 0 ],
					"destination" : [ "obj-15", 0 ],
					"hidden" : 0,
					"midpoints" : [ 469.5, 160.0, 444.0, 160.0, 444.0, 123.0, 414.5, 123.0 ]
				}

			}
, 			{
				"patchline" : 				{
					"source" : [ "obj-15", 0 ],
					"destination" : [ "obj-12", 0 ],
					"hidden" : 0,
					"midpoints" : [ 414.5, 156.0, 456.0, 156.0, 456.0, 121.0, 469.5, 121.0 ]
				}

			}
, 			{
				"patchline" : 				{
					"source" : [ "obj-11", 0 ],
					"destination" : [ "obj-25", 0 ],
					"hidden" : 0,
					"midpoints" : [  ]
				}

			}
, 			{
				"patchline" : 				{
					"source" : [ "obj-3", 1 ],
					"destination" : [ "obj-2", 0 ],
					"hidden" : 0,
					"midpoints" : [  ]
				}

			}
, 			{
				"patchline" : 				{
					"source" : [ "obj-3", 0 ],
					"destination" : [ "obj-36", 0 ],
					"hidden" : 0,
					"midpoints" : [ 533.5, 631.0, 374.5, 631.0 ]
				}

			}
, 			{
				"patchline" : 				{
					"source" : [ "obj-1", 1 ],
					"destination" : [ "obj-3", 0 ],
					"hidden" : 0,
					"midpoints" : [ 680.5, 579.0, 533.5, 579.0 ]
				}

			}
, 			{
				"patchline" : 				{
					"source" : [ "obj-18", 0 ],
					"destination" : [ "obj-25", 5 ],
					"hidden" : 0,
					"midpoints" : [  ]
				}

			}
, 			{
				"patchline" : 				{
					"source" : [ "obj-9", 0 ],
					"destination" : [ "obj-22", 5 ],
					"hidden" : 0,
					"midpoints" : [ 414.5, 82.0, 789.0, 82.0, 789.0, 348.0, 529.5, 348.0 ]
				}

			}
 ]
	}

}
