{
	"patcher" : 	{
		"fileversion" : 1,
		"rect" : [ 43.0, 44.0, 440.0, 696.0 ],
		"bglocked" : 0,
		"defrect" : [ 43.0, 44.0, 440.0, 696.0 ],
		"openrect" : [ 0.0, 0.0, 0.0, 0.0 ],
		"openinpresentation" : 0,
		"default_fontsize" : 10.0,
		"default_fontface" : 0,
		"default_fontname" : "Verdana",
		"gridonopen" : 0,
		"gridsize" : [ 5.0, 5.0 ],
		"gridsnaponopen" : 0,
		"toolbarvisible" : 1,
		"boxanimatetime" : 200,
		"imprint" : 0,
		"boxes" : [ 			{
				"box" : 				{
					"args" : [ "@name", "jmod.equalizer~", "@description", "Audio equalizer module (multi-band filter)" ],
					"bgmode" : 1,
					"id" : "obj-2",
					"maxclass" : "bpatcher",
					"name" : "jcom.maxhelpui.maxpat",
					"numinlets" : 1,
					"numoutlets" : 0,
					"patching_rect" : [ 0.0, 0.0, 440.0, 70.0 ],
					"prototypename" : "bphelp",
					"varname" : "maxhelpui"
				}

			}
, 			{
				"box" : 				{
					"args" : [ "/output~" ],
					"id" : "obj-7",
					"maxclass" : "bpatcher",
					"name" : "jmod.output~.maxpat",
					"numinlets" : 3,
					"numoutlets" : 1,
					"outlettype" : [ "" ],
					"patching_rect" : [ 67.0, 517.0, 300.0, 140.0 ],
					"presentation_rect" : [ 0.0, 0.0, 300.0, 140.0 ]
				}

			}
, 			{
				"box" : 				{
					"fontname" : "Verdana",
					"fontsize" : 10.0,
					"id" : "obj-1",
					"maxclass" : "newobj",
					"numinlets" : 0,
					"numoutlets" : 0,
					"patcher" : 					{
						"fileversion" : 1,
						"rect" : [ 471.0, 44.0, 829.0, 640.0 ],
						"bglocked" : 0,
						"defrect" : [ 471.0, 44.0, 829.0, 640.0 ],
						"openrect" : [ 0.0, 0.0, 0.0, 0.0 ],
						"openinpresentation" : 0,
						"default_fontsize" : 10.0,
						"default_fontface" : 0,
						"default_fontname" : "Verdana",
						"gridonopen" : 0,
						"gridsize" : [ 5.0, 5.0 ],
						"gridsnaponopen" : 0,
						"toolbarvisible" : 1,
						"boxanimatetime" : 200,
						"imprint" : 0,
						"boxes" : [ 							{
								"box" : 								{
									"fontname" : "Verdana",
									"fontsize" : 10.0,
									"frgb" : [ 0.0, 0.0, 0.0, 1.0 ],
									"id" : "obj-11",
									"linecount" : 2,
									"maxclass" : "comment",
									"numinlets" : 1,
									"numoutlets" : 0,
									"patching_rect" : [ 493.0, 156.0, 288.0, 31.0 ],
									"text" : "NB: max number of voices is settable by changing the parameter /bands"
								}

							}
, 							{
								"box" : 								{
									"fontname" : "Verdana",
									"fontsize" : 10.0,
									"id" : "obj-12",
									"maxclass" : "message",
									"numinlets" : 2,
									"numoutlets" : 1,
									"outlettype" : [ "" ],
									"patching_rect" : [ 684.0, 54.0, 61.0, 17.0 ],
									"text" : "/bands $1"
								}

							}
, 							{
								"box" : 								{
									"bgcolor" : [ 0.866667, 0.866667, 0.866667, 1.0 ],
									"fontname" : "Verdana",
									"fontsize" : 10.0,
									"htextcolor" : [ 0.870588, 0.870588, 0.870588, 1.0 ],
									"id" : "obj-13",
									"maxclass" : "number",
									"mouseup" : 1,
									"numinlets" : 1,
									"numoutlets" : 2,
									"outlettype" : [ "int", "bang" ],
									"patching_rect" : [ 648.0, 53.0, 35.0, 19.0 ],
									"triscale" : 0.9
								}

							}
, 							{
								"box" : 								{
									"fontname" : "Verdana",
									"fontsize" : 10.0,
									"frgb" : [ 0.0, 0.0, 0.0, 1.0 ],
									"id" : "obj-14",
									"maxclass" : "comment",
									"numinlets" : 1,
									"numoutlets" : 0,
									"patching_rect" : [ 529.0, 53.0, 119.0, 19.0 ],
									"text" : "max number of bands"
								}

							}
, 							{
								"box" : 								{
									"fontname" : "Verdana",
									"fontsize" : 10.0,
									"id" : "obj-17",
									"maxclass" : "message",
									"numinlets" : 2,
									"numoutlets" : 1,
									"outlettype" : [ "" ],
									"patching_rect" : [ 519.0, 136.0, 119.0, 17.0 ],
									"text" : "/filter.1/type lowshelf"
								}

							}
, 							{
								"box" : 								{
									"fontname" : "Verdana",
									"fontsize" : 10.0,
									"id" : "obj-18",
									"items" : [ "lowpass", ",", "highpass", ",", "bandpass", ",", "bandstop", ",", "peaknotch", ",", "lowshelf", ",", "highshelf" ],
									"maxclass" : "umenu",
									"numinlets" : 1,
									"numoutlets" : 3,
									"outlettype" : [ "int", "", "" ],
									"patching_rect" : [ 418.0, 135.0, 100.0, 19.0 ],
									"types" : [  ]
								}

							}
, 							{
								"box" : 								{
									"fontname" : "Verdana",
									"fontsize" : 10.0,
									"hidden" : 1,
									"id" : "obj-19",
									"maxclass" : "newobj",
									"numinlets" : 2,
									"numoutlets" : 2,
									"outlettype" : [ "", "" ],
									"patcher" : 									{
										"fileversion" : 1,
										"rect" : [ 10.0, 59.0, 260.0, 231.0 ],
										"bglocked" : 0,
										"defrect" : [ 10.0, 59.0, 260.0, 231.0 ],
										"openrect" : [ 0.0, 0.0, 0.0, 0.0 ],
										"openinpresentation" : 0,
										"default_fontsize" : 10.0,
										"default_fontface" : 0,
										"default_fontname" : "Verdana",
										"gridonopen" : 0,
										"gridsize" : [ 5.0, 5.0 ],
										"gridsnaponopen" : 0,
										"toolbarvisible" : 1,
										"boxanimatetime" : 200,
										"imprint" : 0,
										"boxes" : [ 											{
												"box" : 												{
													"fontname" : "Verdana",
													"fontsize" : 10.0,
													"id" : "obj-1",
													"maxclass" : "newobj",
													"numinlets" : 2,
													"numoutlets" : 1,
													"outlettype" : [ "int" ],
													"patching_rect" : [ 38.0, 74.0, 50.0, 19.0 ],
													"text" : "i"
												}

											}
, 											{
												"box" : 												{
													"fontname" : "Verdana",
													"fontsize" : 10.0,
													"id" : "obj-2",
													"maxclass" : "newobj",
													"numinlets" : 1,
													"numoutlets" : 2,
													"outlettype" : [ "bang", "" ],
													"patching_rect" : [ 110.0, 27.0, 65.0, 19.0 ],
													"text" : "t b s"
												}

											}
, 											{
												"box" : 												{
													"comment" : "",
													"id" : "obj-3",
													"maxclass" : "outlet",
													"numinlets" : 1,
													"numoutlets" : 0,
													"patching_rect" : [ 81.0, 146.0, 15.0, 15.0 ]
												}

											}
, 											{
												"box" : 												{
													"comment" : "",
													"id" : "obj-4",
													"maxclass" : "outlet",
													"numinlets" : 1,
													"numoutlets" : 0,
													"patching_rect" : [ 39.0, 126.0, 15.0, 15.0 ]
												}

											}
, 											{
												"box" : 												{
													"fontname" : "Verdana",
													"fontsize" : 10.0,
													"id" : "obj-5",
													"maxclass" : "newobj",
													"numinlets" : 1,
													"numoutlets" : 1,
													"outlettype" : [ "" ],
													"patching_rect" : [ 81.0, 124.0, 68.0, 19.0 ],
													"text" : "prepend set"
												}

											}
, 											{
												"box" : 												{
													"comment" : "",
													"id" : "obj-6",
													"maxclass" : "inlet",
													"numinlets" : 0,
													"numoutlets" : 1,
													"outlettype" : [ "" ],
													"patching_rect" : [ 111.0, 7.0, 15.0, 15.0 ]
												}

											}
, 											{
												"box" : 												{
													"fontname" : "Verdana",
													"fontsize" : 10.0,
													"id" : "obj-7",
													"maxclass" : "newobj",
													"numinlets" : 2,
													"numoutlets" : 1,
													"outlettype" : [ "" ],
													"patching_rect" : [ 39.0, 94.0, 143.0, 19.0 ],
													"text" : "sprintf /filter.%ld/type %s"
												}

											}
, 											{
												"box" : 												{
													"comment" : "",
													"id" : "obj-8",
													"maxclass" : "inlet",
													"numinlets" : 0,
													"numoutlets" : 1,
													"outlettype" : [ "int" ],
													"patching_rect" : [ 78.0, 53.0, 15.0, 15.0 ]
												}

											}
 ],
										"lines" : [ 											{
												"patchline" : 												{
													"destination" : [ "obj-7", 0 ],
													"hidden" : 0,
													"midpoints" : [  ],
													"source" : [ "obj-1", 0 ]
												}

											}
, 											{
												"patchline" : 												{
													"destination" : [ "obj-4", 0 ],
													"hidden" : 0,
													"midpoints" : [  ],
													"source" : [ "obj-7", 0 ]
												}

											}
, 											{
												"patchline" : 												{
													"destination" : [ "obj-5", 0 ],
													"hidden" : 0,
													"midpoints" : [  ],
													"source" : [ "obj-7", 0 ]
												}

											}
, 											{
												"patchline" : 												{
													"destination" : [ "obj-7", 1 ],
													"hidden" : 0,
													"midpoints" : [  ],
													"source" : [ "obj-2", 1 ]
												}

											}
, 											{
												"patchline" : 												{
													"destination" : [ "obj-2", 0 ],
													"hidden" : 0,
													"midpoints" : [  ],
													"source" : [ "obj-6", 0 ]
												}

											}
, 											{
												"patchline" : 												{
													"destination" : [ "obj-3", 0 ],
													"hidden" : 0,
													"midpoints" : [  ],
													"source" : [ "obj-5", 0 ]
												}

											}
, 											{
												"patchline" : 												{
													"destination" : [ "obj-1", 1 ],
													"hidden" : 0,
													"midpoints" : [  ],
													"source" : [ "obj-8", 0 ]
												}

											}
, 											{
												"patchline" : 												{
													"destination" : [ "obj-1", 0 ],
													"hidden" : 0,
													"midpoints" : [ 119.5, 47.0, 47.5, 47.0 ],
													"source" : [ "obj-2", 0 ]
												}

											}
 ]
									}
,
									"patching_rect" : [ 418.0, 163.0, 22.0, 19.0 ],
									"saved_object_attributes" : 									{
										"globalpatchername" : "",
										"fontface" : 0,
										"fontsize" : 10.0,
										"default_fontface" : 0,
										"default_fontname" : "Verdana",
										"fontname" : "Verdana",
										"default_fontsize" : 10.0
									}
,
									"text" : "p"
								}

							}
, 							{
								"box" : 								{
									"fontname" : "Verdana",
									"fontsize" : 10.0,
									"frgb" : [ 0.0, 0.0, 0.0, 1.0 ],
									"id" : "obj-24",
									"maxclass" : "comment",
									"numinlets" : 1,
									"numoutlets" : 0,
									"patching_rect" : [ 452.0, 73.0, 76.0, 19.0 ],
									"text" : "band number"
								}

							}
, 							{
								"box" : 								{
									"bgcolor" : [ 0.866667, 0.866667, 0.866667, 1.0 ],
									"fontname" : "Verdana",
									"fontsize" : 10.0,
									"htextcolor" : [ 0.870588, 0.870588, 0.870588, 1.0 ],
									"id" : "obj-25",
									"maxclass" : "flonum",
									"numinlets" : 1,
									"numoutlets" : 2,
									"outlettype" : [ "float", "bang" ],
									"patching_rect" : [ 623.0, 93.0, 35.0, 19.0 ],
									"triscale" : 0.9
								}

							}
, 							{
								"box" : 								{
									"fontname" : "Verdana",
									"fontsize" : 10.0,
									"id" : "obj-26",
									"maxclass" : "message",
									"numinlets" : 2,
									"numoutlets" : 1,
									"outlettype" : [ "" ],
									"patching_rect" : [ 627.0, 114.0, 75.0, 17.0 ],
									"text" : "/filter.2/q $1"
								}

							}
, 							{
								"box" : 								{
									"fontname" : "Verdana",
									"fontsize" : 10.0,
									"id" : "obj-27",
									"maxclass" : "message",
									"numinlets" : 2,
									"numoutlets" : 1,
									"outlettype" : [ "" ],
									"patching_rect" : [ 516.0, 114.0, 119.0, 17.0 ],
									"text" : "/filter.2/frequency $1"
								}

							}
, 							{
								"box" : 								{
									"fontname" : "Verdana",
									"fontsize" : 10.0,
									"id" : "obj-28",
									"maxclass" : "message",
									"numinlets" : 2,
									"numoutlets" : 1,
									"outlettype" : [ "" ],
									"patching_rect" : [ 417.0, 114.0, 90.0, 17.0 ],
									"text" : "/filter.2/gain $1"
								}

							}
, 							{
								"box" : 								{
									"fontname" : "Verdana",
									"fontsize" : 10.0,
									"hidden" : 1,
									"id" : "obj-29",
									"maxclass" : "newobj",
									"numinlets" : 1,
									"numoutlets" : 3,
									"outlettype" : [ "", "", "" ],
									"patcher" : 									{
										"fileversion" : 1,
										"rect" : [ 62.0, 328.0, 726.0, 217.0 ],
										"bglocked" : 0,
										"defrect" : [ 62.0, 328.0, 726.0, 217.0 ],
										"openrect" : [ 0.0, 0.0, 0.0, 0.0 ],
										"openinpresentation" : 0,
										"default_fontsize" : 10.0,
										"default_fontface" : 0,
										"default_fontname" : "Verdana",
										"gridonopen" : 0,
										"gridsize" : [ 5.0, 5.0 ],
										"gridsnaponopen" : 0,
										"toolbarvisible" : 1,
										"boxanimatetime" : 200,
										"imprint" : 0,
										"boxes" : [ 											{
												"box" : 												{
													"comment" : "",
													"id" : "obj-1",
													"maxclass" : "outlet",
													"numinlets" : 1,
													"numoutlets" : 0,
													"patching_rect" : [ 441.0, 110.0, 15.0, 15.0 ]
												}

											}
, 											{
												"box" : 												{
													"fontname" : "Verdana",
													"fontsize" : 10.0,
													"id" : "obj-2",
													"maxclass" : "newobj",
													"numinlets" : 1,
													"numoutlets" : 1,
													"outlettype" : [ "" ],
													"patching_rect" : [ 441.0, 88.0, 148.0, 19.0 ],
													"text" : "sprintf set /filter.%ld/q \\$1"
												}

											}
, 											{
												"box" : 												{
													"comment" : "",
													"id" : "obj-3",
													"maxclass" : "outlet",
													"numinlets" : 1,
													"numoutlets" : 0,
													"patching_rect" : [ 205.0, 110.0, 15.0, 15.0 ]
												}

											}
, 											{
												"box" : 												{
													"comment" : "",
													"id" : "obj-4",
													"maxclass" : "outlet",
													"numinlets" : 1,
													"numoutlets" : 0,
													"patching_rect" : [ 32.0, 109.0, 15.0, 15.0 ]
												}

											}
, 											{
												"box" : 												{
													"fontname" : "Verdana",
													"fontsize" : 10.0,
													"id" : "obj-5",
													"maxclass" : "newobj",
													"numinlets" : 1,
													"numoutlets" : 1,
													"outlettype" : [ "" ],
													"patching_rect" : [ 205.0, 88.0, 191.0, 19.0 ],
													"text" : "sprintf set /filter.%ld/frequency \\$1"
												}

											}
, 											{
												"box" : 												{
													"fontname" : "Verdana",
													"fontsize" : 10.0,
													"id" : "obj-6",
													"maxclass" : "newobj",
													"numinlets" : 1,
													"numoutlets" : 1,
													"outlettype" : [ "" ],
													"patching_rect" : [ 32.0, 88.0, 163.0, 19.0 ],
													"text" : "sprintf set /filter.%ld/gain \\$1"
												}

											}
, 											{
												"box" : 												{
													"comment" : "",
													"id" : "obj-7",
													"maxclass" : "inlet",
													"numinlets" : 0,
													"numoutlets" : 1,
													"outlettype" : [ "int" ],
													"patching_rect" : [ 32.0, 66.0, 15.0, 15.0 ]
												}

											}
 ],
										"lines" : [ 											{
												"patchline" : 												{
													"destination" : [ "obj-1", 0 ],
													"hidden" : 0,
													"midpoints" : [  ],
													"source" : [ "obj-2", 0 ]
												}

											}
, 											{
												"patchline" : 												{
													"destination" : [ "obj-2", 0 ],
													"hidden" : 0,
													"midpoints" : [ 41.0, 84.0, 450.5, 84.0 ],
													"source" : [ "obj-7", 0 ]
												}

											}
, 											{
												"patchline" : 												{
													"destination" : [ "obj-3", 0 ],
													"hidden" : 0,
													"midpoints" : [  ],
													"source" : [ "obj-5", 0 ]
												}

											}
, 											{
												"patchline" : 												{
													"destination" : [ "obj-5", 0 ],
													"hidden" : 0,
													"midpoints" : [ 41.0, 84.0, 214.5, 84.0 ],
													"source" : [ "obj-7", 0 ]
												}

											}
, 											{
												"patchline" : 												{
													"destination" : [ "obj-6", 0 ],
													"hidden" : 0,
													"midpoints" : [  ],
													"source" : [ "obj-7", 0 ]
												}

											}
, 											{
												"patchline" : 												{
													"destination" : [ "obj-4", 0 ],
													"hidden" : 0,
													"midpoints" : [  ],
													"source" : [ "obj-6", 0 ]
												}

											}
 ]
									}
,
									"patching_rect" : [ 568.0, 77.0, 208.0, 19.0 ],
									"saved_object_attributes" : 									{
										"globalpatchername" : "",
										"fontface" : 0,
										"fontsize" : 10.0,
										"default_fontface" : 0,
										"default_fontname" : "Verdana",
										"fontname" : "Verdana",
										"default_fontsize" : 10.0
									}
,
									"text" : "p instance_#"
								}

							}
, 							{
								"box" : 								{
									"bgcolor" : [ 0.866667, 0.866667, 0.866667, 1.0 ],
									"fontname" : "Verdana",
									"fontsize" : 10.0,
									"htextcolor" : [ 0.870588, 0.870588, 0.870588, 1.0 ],
									"id" : "obj-30",
									"maxclass" : "flonum",
									"numinlets" : 1,
									"numoutlets" : 2,
									"outlettype" : [ "float", "bang" ],
									"patching_rect" : [ 516.0, 93.0, 64.0, 19.0 ],
									"triscale" : 0.9
								}

							}
, 							{
								"box" : 								{
									"bgcolor" : [ 0.866667, 0.866667, 0.866667, 1.0 ],
									"fontname" : "Verdana",
									"fontsize" : 10.0,
									"htextcolor" : [ 0.870588, 0.870588, 0.870588, 1.0 ],
									"id" : "obj-31",
									"maxclass" : "flonum",
									"numinlets" : 1,
									"numoutlets" : 2,
									"outlettype" : [ "float", "bang" ],
									"patching_rect" : [ 417.0, 93.0, 35.0, 19.0 ],
									"triscale" : 0.9
								}

							}
, 							{
								"box" : 								{
									"bgcolor" : [ 0.866667, 0.866667, 0.866667, 1.0 ],
									"fontname" : "Verdana",
									"fontsize" : 10.0,
									"htextcolor" : [ 0.870588, 0.870588, 0.870588, 1.0 ],
									"id" : "obj-32",
									"maxclass" : "number",
									"minimum" : 1,
									"mouseup" : 1,
									"numinlets" : 1,
									"numoutlets" : 2,
									"outlettype" : [ "int", "bang" ],
									"patching_rect" : [ 416.0, 72.0, 35.0, 19.0 ],
									"triscale" : 0.9
								}

							}
, 							{
								"box" : 								{
									"fontname" : "Verdana",
									"fontsize" : 10.0,
									"hidden" : 1,
									"id" : "obj-36",
									"maxclass" : "newobj",
									"numinlets" : 1,
									"numoutlets" : 0,
									"patching_rect" : [ 675.0, 21.0, 85.0, 19.0 ],
									"text" : "s jmod.eq.cmd"
								}

							}
, 							{
								"box" : 								{
									"fontname" : "Verdana",
									"fontsize" : 18.0,
									"frgb" : [ 0.0, 0.0, 0.0, 1.0 ],
									"id" : "obj-38",
									"maxclass" : "comment",
									"numinlets" : 1,
									"numoutlets" : 0,
									"patching_rect" : [ 414.0, 16.0, 239.0, 28.0 ],
									"text" : "Module specific attributes"
								}

							}
, 							{
								"box" : 								{
									"background" : 1,
									"bgcolor" : [ 0.901961, 0.901961, 0.901961, 1.0 ],
									"border" : 1,
									"bordercolor" : [ 0.6, 0.6, 0.6, 1.0 ],
									"id" : "obj-39",
									"maxclass" : "panel",
									"numinlets" : 1,
									"numoutlets" : 0,
									"patching_rect" : [ 409.0, 16.0, 373.0, 27.0 ],
									"rounded" : 15
								}

							}
, 							{
								"box" : 								{
									"background" : 1,
									"bgcolor" : [ 0.901961, 0.901961, 0.901961, 1.0 ],
									"id" : "obj-46",
									"maxclass" : "panel",
									"numinlets" : 1,
									"numoutlets" : 0,
									"patching_rect" : [ 409.0, 45.0, 373.0, 151.0 ],
									"rounded" : 15
								}

							}
, 							{
								"box" : 								{
									"fontname" : "Verdana",
									"fontsize" : 10.0,
									"hidden" : 1,
									"id" : "obj-2",
									"maxclass" : "newobj",
									"numinlets" : 1,
									"numoutlets" : 0,
									"patching_rect" : [ 678.0, 204.0, 99.0, 19.0 ],
									"text" : "s jmod.eq.cmd"
								}

							}
, 							{
								"box" : 								{
									"args" : [ "/filter.1/gain" ],
									"id" : "obj-3",
									"maxclass" : "bpatcher",
									"name" : "jmod.attr_params.maxpat",
									"numinlets" : 1,
									"numoutlets" : 1,
									"outlettype" : [ "" ],
									"patching_rect" : [ 407.0, 200.0, 409.0, 152.0 ]
								}

							}
, 							{
								"box" : 								{
									"fontname" : "Verdana",
									"fontsize" : 10.0,
									"hidden" : 1,
									"id" : "obj-4",
									"maxclass" : "newobj",
									"numinlets" : 1,
									"numoutlets" : 0,
									"patching_rect" : [ 274.0, 249.0, 99.0, 19.0 ],
									"text" : "s jmod.eq.cmd"
								}

							}
, 							{
								"box" : 								{
									"args" : [ "jmod.equalizer~" ],
									"id" : "obj-5",
									"maxclass" : "bpatcher",
									"name" : "jmod.preset_params.maxpat",
									"numinlets" : 0,
									"numoutlets" : 1,
									"outlettype" : [ "" ],
									"patching_rect" : [ 15.0, 240.0, 374.0, 347.0 ]
								}

							}
, 							{
								"box" : 								{
									"fontname" : "Verdana",
									"fontsize" : 10.0,
									"hidden" : 1,
									"id" : "obj-6",
									"maxclass" : "newobj",
									"numinlets" : 1,
									"numoutlets" : 0,
									"patching_rect" : [ 273.0, 20.0, 99.0, 19.0 ],
									"text" : "s jmod.eq.cmd"
								}

							}
, 							{
								"box" : 								{
									"args" : [  ],
									"id" : "obj-7",
									"maxclass" : "bpatcher",
									"name" : "jmod.gain_params.maxpat",
									"numinlets" : 0,
									"numoutlets" : 1,
									"outlettype" : [ "" ],
									"patching_rect" : [ 15.0, 15.0, 374.0, 221.0 ]
								}

							}
 ],
						"lines" : [ 							{
								"patchline" : 								{
									"destination" : [ "obj-2", 0 ],
									"hidden" : 1,
									"midpoints" : [  ],
									"source" : [ "obj-3", 0 ]
								}

							}
, 							{
								"patchline" : 								{
									"destination" : [ "obj-19", 1 ],
									"hidden" : 1,
									"midpoints" : [  ],
									"source" : [ "obj-18", 1 ]
								}

							}
, 							{
								"patchline" : 								{
									"destination" : [ "obj-4", 0 ],
									"hidden" : 1,
									"midpoints" : [  ],
									"source" : [ "obj-5", 0 ]
								}

							}
, 							{
								"patchline" : 								{
									"destination" : [ "obj-6", 0 ],
									"hidden" : 1,
									"midpoints" : [  ],
									"source" : [ "obj-7", 0 ]
								}

							}
, 							{
								"patchline" : 								{
									"destination" : [ "obj-36", 0 ],
									"hidden" : 1,
									"midpoints" : [  ],
									"source" : [ "obj-26", 0 ]
								}

							}
, 							{
								"patchline" : 								{
									"destination" : [ "obj-36", 0 ],
									"hidden" : 1,
									"midpoints" : [  ],
									"source" : [ "obj-27", 0 ]
								}

							}
, 							{
								"patchline" : 								{
									"destination" : [ "obj-36", 0 ],
									"hidden" : 1,
									"midpoints" : [  ],
									"source" : [ "obj-28", 0 ]
								}

							}
, 							{
								"patchline" : 								{
									"destination" : [ "obj-36", 0 ],
									"hidden" : 1,
									"midpoints" : [  ],
									"source" : [ "obj-19", 0 ]
								}

							}
, 							{
								"patchline" : 								{
									"destination" : [ "obj-36", 0 ],
									"hidden" : 1,
									"midpoints" : [  ],
									"source" : [ "obj-12", 0 ]
								}

							}
, 							{
								"patchline" : 								{
									"destination" : [ "obj-12", 0 ],
									"hidden" : 1,
									"midpoints" : [ 657.5, 74.0, 693.5, 74.0 ],
									"source" : [ "obj-13", 0 ]
								}

							}
, 							{
								"patchline" : 								{
									"destination" : [ "obj-26", 0 ],
									"hidden" : 1,
									"midpoints" : [  ],
									"source" : [ "obj-29", 2 ]
								}

							}
, 							{
								"patchline" : 								{
									"destination" : [ "obj-26", 0 ],
									"hidden" : 0,
									"midpoints" : [  ],
									"source" : [ "obj-25", 0 ]
								}

							}
, 							{
								"patchline" : 								{
									"destination" : [ "obj-27", 0 ],
									"hidden" : 0,
									"midpoints" : [  ],
									"source" : [ "obj-30", 0 ]
								}

							}
, 							{
								"patchline" : 								{
									"destination" : [ "obj-27", 0 ],
									"hidden" : 1,
									"midpoints" : [  ],
									"source" : [ "obj-29", 1 ]
								}

							}
, 							{
								"patchline" : 								{
									"destination" : [ "obj-17", 0 ],
									"hidden" : 1,
									"midpoints" : [  ],
									"source" : [ "obj-19", 1 ]
								}

							}
, 							{
								"patchline" : 								{
									"destination" : [ "obj-19", 0 ],
									"hidden" : 1,
									"midpoints" : [  ],
									"source" : [ "obj-32", 0 ]
								}

							}
, 							{
								"patchline" : 								{
									"destination" : [ "obj-28", 0 ],
									"hidden" : 1,
									"midpoints" : [  ],
									"source" : [ "obj-29", 0 ]
								}

							}
, 							{
								"patchline" : 								{
									"destination" : [ "obj-28", 0 ],
									"hidden" : 0,
									"midpoints" : [  ],
									"source" : [ "obj-31", 0 ]
								}

							}
, 							{
								"patchline" : 								{
									"destination" : [ "obj-29", 0 ],
									"hidden" : 1,
									"midpoints" : [  ],
									"source" : [ "obj-32", 0 ]
								}

							}
 ]
					}
,
					"patching_rect" : [ 123.0, 670.0, 147.0, 19.0 ],
					"saved_object_attributes" : 					{
						"globalpatchername" : "",
						"fontface" : 0,
						"fontsize" : 10.0,
						"default_fontface" : 0,
						"default_fontname" : "Verdana",
						"fontname" : "Verdana",
						"default_fontsize" : 10.0
					}
,
					"text" : "p communicate_to_module"
				}

			}
, 			{
				"box" : 				{
					"fontname" : "Verdana",
					"fontsize" : 10.0,
					"id" : "obj-37",
					"maxclass" : "newobj",
					"numinlets" : 0,
					"numoutlets" : 1,
					"outlettype" : [ "" ],
					"patching_rect" : [ 67.0, 277.0, 87.0, 19.0 ],
					"text" : "r jmod.eq.cmd"
				}

			}
, 			{
				"box" : 				{
					"fontname" : "Verdana",
					"fontsize" : 10.0,
					"id" : "obj-42",
					"maxclass" : "message",
					"numinlets" : 2,
					"numoutlets" : 1,
					"outlettype" : [ "" ],
					"patching_rect" : [ 67.0, 452.0, 132.0, 17.0 ],
					"text" : "/filter.2/frequency 264."
				}

			}
, 			{
				"box" : 				{
					"args" : [ "/input~" ],
					"id" : "obj-44",
					"maxclass" : "bpatcher",
					"name" : "jmod.input~.maxpat",
					"numinlets" : 1,
					"numoutlets" : 3,
					"outlettype" : [ "", "signal", "signal" ],
					"patching_rect" : [ 67.0, 82.0, 300.0, 140.0 ],
					"presentation_rect" : [ 0.0, 0.0, 300.0, 140.0 ],
					"varname" : "/input~"
				}

			}
, 			{
				"box" : 				{
					"args" : [ "/equalizer~" ],
					"id" : "obj-45",
					"maxclass" : "bpatcher",
					"name" : "jmod.equalizer~.maxpat",
					"numinlets" : 3,
					"numoutlets" : 3,
					"outlettype" : [ "", "signal", "signal" ],
					"patching_rect" : [ 67.0, 303.0, 300.0, 140.0 ],
					"presentation_rect" : [ 0.0, 0.0, 300.0, 140.0 ],
					"varname" : "/filter~"
				}

			}
 ],
		"lines" : [ 			{
				"patchline" : 				{
					"destination" : [ "obj-42", 1 ],
					"hidden" : 0,
					"midpoints" : [ 76.5, 447.0, 189.5, 447.0 ],
					"source" : [ "obj-45", 0 ]
				}

			}
, 			{
				"patchline" : 				{
					"destination" : [ "obj-7", 2 ],
					"hidden" : 0,
					"midpoints" : [  ],
					"source" : [ "obj-45", 2 ]
				}

			}
, 			{
				"patchline" : 				{
					"destination" : [ "obj-7", 1 ],
					"hidden" : 0,
					"midpoints" : [  ],
					"source" : [ "obj-45", 1 ]
				}

			}
, 			{
				"patchline" : 				{
					"destination" : [ "obj-45", 2 ],
					"hidden" : 0,
					"midpoints" : [  ],
					"source" : [ "obj-44", 2 ]
				}

			}
, 			{
				"patchline" : 				{
					"destination" : [ "obj-45", 1 ],
					"hidden" : 0,
					"midpoints" : [  ],
					"source" : [ "obj-44", 1 ]
				}

			}
, 			{
				"patchline" : 				{
					"destination" : [ "obj-45", 0 ],
					"hidden" : 0,
					"midpoints" : [  ],
					"source" : [ "obj-37", 0 ]
				}

			}
 ]
	}

}
