max v2;#N vpatcher 162 114 587 420;#P window setfont "Sans Serif" 9.;#P window linecount 1;#P newex 177 155 34 196617 saw~;#P newex 255 156 40 196617 rect~;#P flonum 41 107 35 9 0 0 0 3 0 0 0 221 221 221 222 222 222 0 0 0;#P number 12 157 35 9 0 0 0 3 0 0 0 221 221 221 222 222 222 0 0 0;#P newex 45 197 347 196617 selector~ 8 1;#P flonum 255 107 35 9 0 0 0 3 0 0 0 221 221 221 222 222 222 0 0 0;#P newex 213 155 40 196617 tri~;#P newex 129 155 46 196617 phasor~;#P inlet 40 41 15 0;#P outlet 22 250 15 0;#P newex 87 155 40 196617 cycle~;#P newex 12 70 160 196617 jcom.oscroute /mode /frequency;#N in 1;#P newobj 12 41 25 196617 in 1;#N out~ 1;#P newobj 45 250 35 196617 out~ 1;#P fasten 5 0 2 0 45 60 17 60;#P connect 1 0 2 0;#P connect 2 0 10 0;#P connect 9 0 4 0;#P connect 2 1 11 0;#P fasten 10 0 9 0 17 184 50 184;#P connect 9 0 0 0;#P connect 8 0 3 0;#P lcolor 4;#P connect 2 1 3 0;#P connect 3 0 9 1;#P connect 8 0 6 0;#P lcolor 4;#P connect 2 1 6 0;#P connect 6 0 9 2;#P connect 13 0 9 3;#P connect 8 0 13 0;#P lcolor 4;#P connect 2 1 13 0;#P connect 8 0 7 0;#P lcolor 4;#P connect 2 1 7 0;#P connect 7 0 9 4;#P connect 8 0 12 0;#P lcolor 4;#P connect 2 1 12 0;#P connect 12 0 9 5;#P pop;