max v2;#N vpatcher 2 44 1252 684;#P window setfont "Sans Serif" 9.;#P newex 1032 308 57 196617 route bang;#P outlet 1178 546 15 0;#P inlet 360 39 15 0;#P newex 929 461 32 196617 print;#N vpatcher 10 59 294 260;#P window setfont "Sans Serif" 9.;#P newex 93 118 62 196617 prepend set;#P newex 50 95 58 196617 sprintf %s;#P newex 69 50 185 196617 jcom.receive jcom.remote.module.from;#P newex 50 72 29 196617 gate;#P inlet 50 52 15 0;#P outlet 50 138 15 0;#P outlet 93 140 15 0;#P connect 2 0 3 0;#P connect 3 0 5 0;#P connect 5 0 1 0;#P connect 4 0 3 1;#P connect 5 0 6 0;#P connect 6 0 0 0;#P pop;#P newobj 1098 213 90 196617 p listenMappingTo;#N vpatcher 10 59 308 274;#P toggle 50 44 15 0;#P window setfont "Sans Serif" 9.;#P newex 105 118 62 196617 prepend set;#P newex 50 95 58 196617 sprintf %s;#P newex 69 50 185 196617 jcom.receive jcom.remote.module.from;#P newex 50 72 29 196617 gate;#P inlet 50 22 15 0;#P outlet 50 149 15 0;#P outlet 105 148 15 0;#P connect 2 0 7 0;#P connect 7 0 3 0;#P connect 3 0 5 0;#P connect 5 0 1 0;#P connect 4 0 3 1;#P connect 5 0 6 0;#P connect 6 0 0 0;#P pop;#P newobj 966 213 102 196617 p listenMappingFrom;#P newex 900 265 30 196617 t b b;#P newex 1032 285 51 196617 tosymbol;#P newex 900 419 177 196617 sprintf /create %s %s %s %s -> %s;#P newex 941 365 77 196617 sprintf link%ld;#P newex 941 343 27 196617 + 1;#N counter;#X flags 0 0;#P newobj 941 320 66 196617 counter;#P newex 1032 254 56 196617 route text;#P newex 460 319 77 196617 prepend create;#P newex 497 276 62 196617 prepend set;#P newex 460 298 63 196617 prepend src;#P newex 711 171 123 196617 jcom.filesaver.mxt TEXT;#P message 702 118 33 196617 clear;#P message 462 417 44 196617 compile;#P newex 534 250 66 196617 t dump clear;#P button 534 231 15 0;#P newex 636 136 108 196617 jcom.filewatcher.mxt;#P message 570 164 30 196617 open;#N thispatcher;#Q end;#P newobj 360 437 61 196617 thispatcher;#P newex 360 416 100 196617 js jcom.mappings.js;#P window linecount 2;#P newex 360 346 119 196617 jcom.pass /modify /remove /create /clear;#P window linecount 1;#P newex 373 168 82 196617 prepend remove;#P newex 460 146 107 196617 zl join;#P newex 516 123 51 196617 zl ecils 2;#P newex 460 123 51 196617 zl slice 3;#P newex 460 168 72 196617 prepend store;#N coll $0_jcom.mappings 1;#P newobj 460 206 123 196617 coll $0_jcom.mappings 1;#P newex 372 93 803 196617 jcom.oscroute /modify /remove /create /view /load_mappings /clear /save_mappings /update /mapCreate /mapFrom /ma.mxtorithm /mapTo;#P outlet 1058 542 15 0;#N vpatcher 10 59 192 233;#P outlet 75 90 15 0;#P inlet 75 60 15 0;#P connect 0 0 1 0;#P pop;#P newobj 360 67 37 196617 p thru;#P comment 427 77 254 196617 /modify is first so that it will be executed the fastest;#P fasten 27 0 1 0 905 481 329 481 329 63 365 63;#P connect 33 0 1 0;#P connect 1 0 10 0;#P fasten 18 0 11 0 707 404 365 404;#P fasten 22 0 11 0 465 398 365 398;#P connect 10 3 11 0;#P connect 10 0 11 0;#P connect 10 1 11 0;#P connect 10 2 11 0;#P fasten 17 0 11 0 467 435 513 435 513 412 365 412;#P fasten 16 1 11 0 595 401 365 401;#P connect 11 0 12 0;#P connect 1 0 3 0;#P fasten 3 1 9 0 443 141 378 141;#P connect 6 0 8 0;#P connect 8 0 5 0;#P connect 3 2 5 0;#P fasten 14 0 4 0 641 192 465 192;#P fasten 19 0 4 0 716 195 465 195;#P connect 9 0 4 0;#P fasten 13 0 4 0 575 189 465 189;#P fasten 16 0 4 0 539 271 604 271 604 201 465 201;#P fasten 18 0 4 0 707 198 465 198;#P connect 5 0 4 0;#P connect 21 0 20 0;#P connect 4 0 20 0;#P connect 20 0 22 0;#P connect 4 1 21 0;#P connect 6 1 7 0;#P connect 4 2 15 0;#P fasten 3 7 15 0 839 228 539 228;#P connect 15 0 16 0;#P connect 7 1 8 1;#P connect 3 3 13 0;#P connect 3 4 14 0;#P connect 3 5 18 0;#P fasten 3 6 19 0 773 155 716 155;#P connect 14 0 19 1;#P connect 3 8 29 0;#P connect 29 0 27 0;#P connect 27 0 32 0;#P connect 29 1 24 0;#P connect 24 0 25 0;#P connect 25 0 26 0;#P connect 26 0 27 1;#P connect 3 9 30 0;#P connect 30 0 27 2;#P connect 35 1 27 3;#P connect 3 10 23 0;#P connect 23 0 28 0;#P connect 28 0 35 0;#P connect 30 1 2 0;#P connect 31 0 27 4;#P connect 3 11 31 0;#P connect 31 1 34 0;#P pop;