max v2;#N vpatcher 24 53 1216 661;#P origin -22 0;#P toggle 267 430 15 0;#P window setfont "Sans Serif" 9.;#P window linecount 1;#P message 364 475 225 196617 /disable_ui_updates 0;#P newex 364 453 62 196617 prepend set;#P newex 269 451 29 196617 gate;#P newex 756 399 91 196617 send $1_feedback;#P newex 756 276 37 196617 zl rev;#P newex 756 366 142 196617 sprintf /voice/%ld/poly %ld;#P toggle 262 166 15 0;#P message 262 185 48 196617 mode \$1;#N vpatcher 1001 209 1265 536;#P window setfont "Sans Serif" 9.;#P window linecount 1;#P newex 79 111 27 196617 + 1;#P newex 116 166 40 196617 / 127.;#P newex 79 136 47 196617 gate 2 2;#P window linecount 0;#P newex 79 85 60 196617 route mode;#P outlet 79 242 15 0;#P inlet 79 48 15 0;#P connect 0 0 2 0;#P connect 2 0 5 0;#P connect 5 0 3 0;#P connect 3 0 1 0;#P connect 4 0 1 0;#P connect 2 1 3 1;#P connect 3 1 4 0;#P pop;#P newobj 226 250 65 196617 p norm-midi;#N vpatcher 10 59 410 360;#P window setfont "Sans Serif" 9.;#P window linecount 4;#P comment 57 230 39 196617 By Trond Lossius.;#P comment 57 169 230 196617 The MIDI specification stipulates that pitch bend be a 14-bit value \, where zero is maximum downward bend \, 16383 is maximum upward bend \, and 8192 is the center (no pitch bend).;#P window linecount 1;#P newex 57 97 110 196617 scale 0. 8192. -24. 0.;#P newex 176 97 129 196617 scale 8192. 16383. 0. 24.;#P newex 57 57 66 196617 split 0 8191;#P inlet 57 37 15 0;#P outlet 57 139 15 0;#P connect 1 0 2 0;#P connect 2 0 4 0;#P connect 4 0 0 0;#P connect 3 0 0 0;#P connect 2 1 3 0;#P pop;#P newobj 454 276 53 196617 p convert;#P newex 406 224 37 196617 midiin;#P window linecount 2;#P newex 39 497 229 196617 jcom.return $1 /voice/n/program @description "Program change information on channel n.";#P window linecount 1;#P newex 574 399 91 196617 send $1_feedback;#P newex 574 276 37 196617 zl rev;#P newex 574 366 161 196617 sprintf /voice/%ld/program %ld;#P newex 321 515 330 196617 jcom.return $1 /voice/n/bend @description "Pitch bend on channel n.";#P newex 406 399 91 196617 send $1_feedback;#P newex 406 331 37 196617 zl rev;#P newex 406 366 143 196617 sprintf /voice/%ld/bend %ld;#P message 37 276 52 196617 \$3 \$1 \$2;#P newex 37 399 91 196617 send $1_feedback;#P newex 37 366 162 196617 sprintf /voice/%ld/note %ld %ld;#P window linecount 2;#P newex 38 535 245 196617 jcom.return $1 /voice/n/note @description "MIDI note information as pitch and velocity on channel n.";#P window linecount 1;#P newex 226 399 91 196617 send $1_feedback;#P newex 226 298 37 196617 zl rev;#P newex 226 276 60 196617 pack 0. 0 0;#P newex 226 224 98 196617 ctlin;#P newex 226 366 152 196617 sprintf /voice/%ld/cc/%ld %f;#P newex 142 89 58 196617 r jcom.init;#P newex 321 542 405 196617 jcom.return $1 /voice/n/cc/m @description "Control number m changed at channel n.";#P newex 869 250 48 196617 pack 0 0;#P newex 574 250 48 196617 pack 0 0;#P newex 406 298 48 196617 pack 0 0;#P newex 756 250 57 196617 pack 0 0 0;#P newex 37 250 57 196617 pack 0 0 0;#P newex 948 224 25 196617 rtin;#P newex 869 224 41 196617 touchin;#P newex 574 224 35 196617 pgmin;#P newex 990 224 44 196617 sysexin;#P newex 406 250 44 196617 xbendin;#P newex 756 224 40 196617 polyin;#P newex 37 224 40 196617 notein;#P message 122 115 19 196617 -1;#P user umenu 36 170 147 196647 1 64 186 1;#X add "to Max/MSP 1";#X add "to Max/MSP 2";#X add "microKONTROL Port 1";#X add "microKONTROL Port 2";#X add "microKONTROL Port 3";#P newex 87 136 45 196617 midiinfo;#P outlet 1062 483 15 0;#P outlet 1012 483 15 0;#P newex 36 54 268 196617 jcom.oscroute /device_menu /midi_init /midi_normalize;#P inlet 36 30 15 0;#P connect 0 0 1 0;#P connect 4 0 5 0;#P connect 1 0 5 0;#P fasten 5 1 7 0 178 206 42 206;#P connect 7 0 14 0;#P connect 14 0 29 0;#P connect 29 0 27 0;#P connect 27 0 28 0;#P connect 7 1 14 1;#P connect 7 2 14 2;#P fasten 20 0 6 0 147 110 127 110;#P connect 1 1 6 0;#P connect 6 0 4 1;#P fasten 5 1 22 0 178 206 231 206;#P connect 41 0 40 0;#P connect 22 0 40 0;#P connect 40 0 23 0;#P connect 23 0 24 0;#P connect 24 0 21 0;#P connect 21 0 25 0;#P connect 22 1 23 1;#P connect 1 2 42 0;#P connect 42 0 41 0;#P connect 49 0 46 0;#P connect 22 2 23 2;#P connect 27 0 46 1;#P connect 21 0 46 1;#P connect 46 0 47 0;#P connect 47 0 48 0;#P fasten 5 1 38 0 178 206 411 206;#P connect 38 0 9 0;#P connect 9 0 16 0;#P connect 16 0 31 0;#P connect 31 0 30 0;#P connect 30 0 32 0;#P connect 9 1 16 1;#P fasten 5 1 11 0 178 206 579 206;#P connect 11 0 17 0;#P connect 17 0 35 0;#P connect 35 0 34 0;#P connect 34 0 36 0;#P connect 11 1 17 1;#P fasten 5 1 8 0 178 206 761 206;#P connect 8 0 15 0;#P connect 15 0 44 0;#P connect 44 0 43 0;#P connect 43 0 45 0;#P connect 8 1 15 1;#P connect 8 2 15 2;#P fasten 5 1 12 0 178 206 874 206;#P connect 12 0 18 0;#P connect 12 1 18 1;#P fasten 5 1 13 0 178 206 953 206;#P fasten 5 1 10 0 178 206 995 206;#P fasten 4 0 3 0 92 160 1067 160;#P pop;