max v2;#N vpatcher 12 83 885 663;#P toggle 146 332 15 0;#P window setfont "Sans Serif" 9.;#N vpatcher 15 55 298 312;#P inlet 65 71 15 0;#P window setfont "Sans Serif" 9.;#P window linecount 0;#P newex 65 115 70 196617 prepend active;#P window linecount 1;#P newex 143 115 94 196617 prepend metering;#P inlet 143 71 15 0;#P outlet 65 176 15 0;#P connect 4 0 3 0;#P connect 3 0 0 0;#P fasten 2 0 0 0 148 154 70 154;#P connect 1 0 2 0;#P pop;#P newobj 48 440 63 196617 p setmeter;#P outlet 146 510 15 0;#P newex 146 308 27 196617 == 0;#P newex 146 352 34 196617 mute~;#P inlet 34 86 15 0;#N vpatcher 138 39 988 669;#P origin 0 44;#P toggle 589 94 15 0;#P window setfont "Sans Serif" 9.;#P newex 633 59 27 196617 t b i;#P newex 633 85 27 196617 *;#P newex 28 56 56 196617 route int;#P number 657 172 35 9 0 0 0 3 0 0 0 221 221 221 222 222 222 0 0 0;#N thispatcher;#Q end;#P newobj 74 103 54 196617 thispatcher;#P inlet 560 36 15 0;#P objectname in[16];#P inlet 533 36 15 0;#P objectname in[15];#P inlet 506 36 15 0;#P objectname in[14];#P inlet 479 36 15 0;#P objectname in[13];#P inlet 452 36 15 0;#P objectname in[12];#P inlet 425 36 15 0;#P objectname in[11];#P inlet 398 36 15 0;#P objectname in[10];#P inlet 371 36 15 0;#P objectname in[9];#P inlet 344 36 15 0;#P objectname in[8];#P inlet 317 36 15 0;#P objectname in[7];#P inlet 290 36 15 0;#P objectname in[6];#P inlet 263 36 15 0;#P objectname in[5];#P inlet 236 36 15 0;#P objectname in[4];#P inlet 209 36 15 0;#P objectname in[3];#P inlet 182 36 15 0;#P objectname in[2];#P inlet 155 36 15 0;#P objectname in[1];#P window linecount 1;#P newex 155 535 75 196617 prepend levels;#N vpatcher 43 74 524 334;#P outlet 49 227 15 0;#P inlet 49 80 15 0;#P window setfont "Sans Serif" 9.;#P newex 49 175 316 196617 vexpr (exp(($f1) * 0.0344014267) * 103.8194883) - 3.819488;#P newex 49 155 99 196617 vexpr min(0.\\\,$f1);#P newex 49 135 113 196617 vexpr max(-96.\\\,$f1);#P newex 49 115 125 196617 vexpr 20. * (log10($f1));#P comment 32 52 391 196617 A similar function for mapping amplitude to displayed levels as used by jcom.meter~;#P connect 5 0 1 0;#P connect 1 0 2 0;#P connect 2 0 3 0;#P connect 3 0 4 0;#P connect 4 0 6 0;#P pop;#P newobj 155 510 58 196617 p amp2mm;#P outlet 155 560 15 0;#P inlet 28 38 15 0;#P newex 155 484 209 196617 pack f f f f f f f f f f f f f f f f;#P objectname pack;#P newex 633 36 54 196617 dspstate~;#P newex 633 108 63 196617 qmetro 100;#P objectname qmetro;#P newex 155 87 54 196617 peakamp~;#P objectname peakamp~[0];#P newex 182 114 54 196617 peakamp~;#P objectname peakamp~[1];#P newex 209 141 54 196617 peakamp~;#P objectname peakamp~[2];#P newex 236 168 54 196617 peakamp~;#P objectname peakamp~[3];#P newex 263 195 54 196617 peakamp~;#P objectname peakamp~[4];#P newex 290 222 54 196617 peakamp~;#P objectname peakamp~[5];#P newex 317 249 54 196617 peakamp~;#P objectname peakamp~[6];#P newex 344 276 54 196617 peakamp~;#P objectname peakamp~[7];#P newex 371 303 54 196617 peakamp~;#P objectname peakamp~[8];#P newex 398 330 54 196617 peakamp~;#P objectname peakamp~[9];#P newex 425 357 54 196617 peakamp~;#P objectname peakamp~[10];#P newex 452 384 54 196617 peakamp~;#P objectname peakamp~[11];#P newex 479 411 54 196617 peakamp~;#P objectname peakamp~[12];#P newex 506 438 54 196617 peakamp~;#P objectname peakamp~[13];#P newex 533 465 54 196617 peakamp~;#P objectname peakamp~[14];#P newex 560 492 54 196617 peakamp~;#P objectname peakamp~[15];#P connect 19 0 41 0;#P connect 41 1 39 0;#P connect 16 0 15 0;#P connect 23 0 15 0;#P connect 15 0 18 0;#P connect 18 0 21 0;#P connect 21 0 22 0;#P connect 22 0 20 0;#P connect 14 0 18 1;#P connect 13 0 18 2;#P connect 16 0 14 0;#P connect 24 0 14 0;#P connect 12 0 18 3;#P connect 11 0 18 4;#P connect 16 0 13 0;#P connect 25 0 13 0;#P connect 10 0 18 5;#P connect 9 0 18 6;#P connect 16 0 12 0;#P connect 26 0 12 0;#P connect 8 0 18 7;#P connect 7 0 18 8;#P connect 16 0 11 0;#P connect 27 0 11 0;#P connect 6 0 18 9;#P connect 5 0 18 10;#P connect 16 0 10 0;#P connect 28 0 10 0;#P connect 4 0 18 11;#P connect 3 0 18 12;#P connect 16 0 9 0;#P connect 29 0 9 0;#P connect 2 0 18 13;#P connect 1 0 18 14;#P connect 16 0 8 0;#P connect 30 0 8 0;#P connect 0 0 18 15;#P connect 16 0 7 0;#P connect 31 0 7 0;#P connect 16 0 6 0;#P connect 32 0 6 0;#P connect 16 0 5 0;#P connect 33 0 5 0;#P connect 16 0 4 0;#P connect 34 0 4 0;#P connect 16 0 3 0;#P connect 35 0 3 0;#P connect 16 0 2 0;#P connect 36 0 2 0;#P connect 16 0 1 0;#P connect 37 0 1 0;#P connect 16 0 0 0;#P connect 38 0 0 0;#P connect 42 0 44 0;#P connect 17 0 43 0;#P connect 43 0 42 0;#P fasten 41 0 42 0 33 80 638 80;#P lcolor 2;#P connect 42 0 16 0;#P connect 43 1 42 1;#P connect 40 0 16 1;#P pop;#P newobj 146 442 222 196617 p monitor;#P objectname monitor;#N vpatcher 25 70 684 289;#P window setfont "Sans Serif" 9.;#N vpatcher 25 70 327 347;#P window setfont "Sans Serif" 9.;#P newex 107 104 31 196617 dbtoa;#P newex 50 74 28 196617 sel 1;#P newex 50 50 53 196617 dspstate~;#P newex 107 76 90 196617 jcom.oscroute /gain;#P newex 107 150 27 196617 f;#P inlet 107 39 15 0;#P outlet 107 174 15 0;#P connect 4 0 5 0;#P connect 1 0 3 0;#P connect 3 0 6 0;#P connect 6 0 2 0;#P connect 5 0 2 0;#P connect 2 0 0 0;#P pop;#P newobj 560 92 33 196617 p gain;#B color 7;#N vpatcher 25 70 327 347;#P window setfont "Sans Serif" 9.;#P newex 107 104 31 196617 dbtoa;#P newex 50 74 28 196617 sel 1;#P newex 50 50 53 196617 dspstate~;#P newex 107 76 90 196617 jcom.oscroute /gain;#P newex 107 150 27 196617 f;#P inlet 107 39 15 0;#P outlet 107 174 15 0;#P connect 4 0 5 0;#P connect 1 0 3 0;#P connect 3 0 6 0;#P connect 5 0 2 0;#P connect 6 0 2 0;#P connect 2 0 0 0;#P pop;#P newobj 526 92 33 196617 p gain;#B color 7;#N vpatcher 25 70 327 347;#P window setfont "Sans Serif" 9.;#P newex 107 104 31 196617 dbtoa;#P newex 50 74 28 196617 sel 1;#P newex 50 50 53 196617 dspstate~;#P newex 107 76 90 196617 jcom.oscroute /gain;#P newex 107 150 27 196617 f;#P inlet 107 39 15 0;#P outlet 107 174 15 0;#P connect 4 0 5 0;#P connect 1 0 3 0;#P connect 3 0 6 0;#P connect 6 0 2 0;#P connect 5 0 2 0;#P connect 2 0 0 0;#P pop;#P newobj 492 92 33 196617 p gain;#B color 7;#N vpatcher 25 70 327 347;#P window setfont "Sans Serif" 9.;#P newex 107 104 31 196617 dbtoa;#P newex 50 74 28 196617 sel 1;#P newex 50 50 53 196617 dspstate~;#P newex 107 76 90 196617 jcom.oscroute /gain;#P newex 107 150 27 196617 f;#P inlet 107 39 15 0;#P outlet 107 174 15 0;#P connect 4 0 5 0;#P connect 1 0 3 0;#P connect 3 0 6 0;#P connect 5 0 2 0;#P connect 6 0 2 0;#P connect 2 0 0 0;#P pop;#P newobj 458 92 33 196617 p gain;#B color 7;#N vpatcher 25 70 327 347;#P window setfont "Sans Serif" 9.;#P newex 107 104 31 196617 dbtoa;#P newex 50 74 28 196617 sel 1;#P newex 50 50 53 196617 dspstate~;#P newex 107 76 90 196617 jcom.oscroute /gain;#P newex 107 150 27 196617 f;#P inlet 107 39 15 0;#P outlet 107 174 15 0;#P connect 4 0 5 0;#P connect 1 0 3 0;#P connect 3 0 6 0;#P connect 6 0 2 0;#P connect 5 0 2 0;#P connect 2 0 0 0;#P pop;#P newobj 424 92 33 196617 p gain;#B color 7;#N vpatcher 25 70 327 347;#P window setfont "Sans Serif" 9.;#P newex 107 104 31 196617 dbtoa;#P newex 50 74 28 196617 sel 1;#P newex 50 50 53 196617 dspstate~;#P newex 107 76 90 196617 jcom.oscroute /gain;#P newex 107 150 27 196617 f;#P inlet 107 39 15 0;#P outlet 107 174 15 0;#P connect 4 0 5 0;#P connect 1 0 3 0;#P connect 3 0 6 0;#P connect 5 0 2 0;#P connect 6 0 2 0;#P connect 2 0 0 0;#P pop;#P newobj 390 92 33 196617 p gain;#B color 7;#N vpatcher 25 70 327 347;#P window setfont "Sans Serif" 9.;#P newex 107 104 31 196617 dbtoa;#P newex 50 74 28 196617 sel 1;#P newex 50 50 53 196617 dspstate~;#P newex 107 76 90 196617 jcom.oscroute /gain;#P newex 107 150 27 196617 f;#P inlet 107 39 15 0;#P outlet 107 174 15 0;#P connect 4 0 5 0;#P connect 1 0 3 0;#P connect 3 0 6 0;#P connect 6 0 2 0;#P connect 5 0 2 0;#P connect 2 0 0 0;#P pop;#P newobj 356 92 33 196617 p gain;#B color 7;#N vpatcher 25 70 327 347;#P window setfont "Sans Serif" 9.;#P newex 107 104 31 196617 dbtoa;#P newex 50 74 28 196617 sel 1;#P newex 50 50 53 196617 dspstate~;#P newex 107 76 90 196617 jcom.oscroute /gain;#P newex 107 150 27 196617 f;#P inlet 107 39 15 0;#P outlet 107 174 15 0;#P connect 4 0 5 0;#P connect 1 0 3 0;#P connect 3 0 6 0;#P connect 5 0 2 0;#P connect 6 0 2 0;#P connect 2 0 0 0;#P pop;#P newobj 322 92 33 196617 p gain;#B color 12;#N vpatcher 25 70 327 347;#P window setfont "Sans Serif" 9.;#P newex 107 104 31 196617 dbtoa;#P newex 50 74 28 196617 sel 1;#P newex 50 50 53 196617 dspstate~;#P newex 107 76 90 196617 jcom.oscroute /gain;#P newex 107 150 27 196617 f;#P inlet 107 39 15 0;#P outlet 107 174 15 0;#P connect 4 0 5 0;#P connect 1 0 3 0;#P connect 3 0 6 0;#P connect 6 0 2 0;#P connect 5 0 2 0;#P connect 2 0 0 0;#P pop;#P newobj 288 92 33 196617 p gain;#B color 12;#N vpatcher 25 70 327 347;#P window setfont "Sans Serif" 9.;#P newex 107 104 31 196617 dbtoa;#P newex 50 74 28 196617 sel 1;#P newex 50 50 53 196617 dspstate~;#P newex 107 76 90 196617 jcom.oscroute /gain;#P newex 107 150 27 196617 f;#P inlet 107 39 15 0;#P outlet 107 174 15 0;#P connect 4 0 5 0;#P connect 1 0 3 0;#P connect 3 0 6 0;#P connect 5 0 2 0;#P connect 6 0 2 0;#P connect 2 0 0 0;#P pop;#P newobj 254 92 33 196617 p gain;#B color 12;#N vpatcher 25 70 327 347;#P window setfont "Sans Serif" 9.;#P newex 107 104 31 196617 dbtoa;#P newex 50 74 28 196617 sel 1;#P newex 50 50 53 196617 dspstate~;#P newex 107 76 90 196617 jcom.oscroute /gain;#P newex 107 150 27 196617 f;#P inlet 107 39 15 0;#P outlet 107 174 15 0;#P connect 4 0 5 0;#P connect 1 0 3 0;#P connect 3 0 6 0;#P connect 6 0 2 0;#P connect 5 0 2 0;#P connect 2 0 0 0;#P pop;#P newobj 220 92 33 196617 p gain;#B color 12;#N vpatcher 25 70 327 347;#P window setfont "Sans Serif" 9.;#P newex 107 104 31 196617 dbtoa;#P newex 50 74 28 196617 sel 1;#P newex 50 50 53 196617 dspstate~;#P newex 107 76 90 196617 jcom.oscroute /gain;#P newex 107 150 27 196617 f;#P inlet 107 39 15 0;#P outlet 107 174 15 0;#P connect 4 0 5 0;#P connect 1 0 3 0;#P connect 3 0 6 0;#P connect 5 0 2 0;#P connect 6 0 2 0;#P connect 2 0 0 0;#P pop;#P newobj 186 92 33 196617 p gain;#B color 12;#N vpatcher 25 70 327 347;#P window setfont "Sans Serif" 9.;#P newex 107 104 31 196617 dbtoa;#P newex 50 74 28 196617 sel 1;#P newex 50 50 53 196617 dspstate~;#P newex 107 76 90 196617 jcom.oscroute /gain;#P newex 107 150 27 196617 f;#P inlet 107 39 15 0;#P outlet 107 174 15 0;#P connect 4 0 5 0;#P connect 1 0 3 0;#P connect 3 0 6 0;#P connect 6 0 2 0;#P connect 5 0 2 0;#P connect 2 0 0 0;#P pop;#P newobj 152 92 33 196617 p gain;#B color 4;#N vpatcher 25 70 327 347;#P window setfont "Sans Serif" 9.;#P newex 107 104 31 196617 dbtoa;#P newex 50 74 28 196617 sel 1;#P newex 50 50 53 196617 dspstate~;#P newex 107 76 90 196617 jcom.oscroute /gain;#P newex 107 150 27 196617 f;#P inlet 107 39 15 0;#P outlet 107 174 15 0;#P connect 4 0 5 0;#P connect 1 0 3 0;#P connect 3 0 6 0;#P connect 5 0 2 0;#P connect 6 0 2 0;#P connect 2 0 0 0;#P pop;#P newobj 118 92 33 196617 p gain;#B color 4;#N vpatcher 25 70 327 347;#P window setfont "Sans Serif" 9.;#P newex 107 104 31 196617 dbtoa;#P newex 50 74 28 196617 sel 1;#P newex 50 50 53 196617 dspstate~;#P newex 107 76 90 196617 jcom.oscroute /gain;#P newex 107 150 27 196617 f;#P inlet 107 39 15 0;#P outlet 107 174 15 0;#P connect 4 0 5 0;#P connect 1 0 3 0;#P connect 3 0 6 0;#P connect 6 0 2 0;#P connect 5 0 2 0;#P connect 2 0 0 0;#P pop;#P newobj 84 92 33 196617 p gain;#B color 4;#N vpatcher 25 70 327 347;#P window setfont "Sans Serif" 9.;#P newex 107 104 31 196617 dbtoa;#P newex 50 74 28 196617 sel 1;#P newex 50 50 53 196617 dspstate~;#P newex 107 76 90 196617 jcom.oscroute /gain;#P newex 107 150 27 196617 f;#P inlet 107 39 15 0;#P outlet 107 174 15 0;#P connect 4 0 5 0;#P connect 1 0 3 0;#P connect 3 0 6 0;#P connect 5 0 2 0;#P connect 6 0 2 0;#P connect 2 0 0 0;#P pop;#P newobj 50 92 33 196617 p gain;#P newex 50 50 565 196617 jcom.oscroute /w /x /y /z /r /s /t /u /v /k /l /m /n /o /p /q;#P inlet 50 30 15 0;#P outlet 560 151 15 0;#P outlet 526 151 15 0;#P outlet 492 151 15 0;#P outlet 458 151 15 0;#P outlet 424 151 15 0;#P outlet 390 151 15 0;#P outlet 356 151 15 0;#P outlet 322 151 15 0;#P outlet 288 151 15 0;#P outlet 254 151 15 0;#P outlet 220 151 15 0;#P outlet 186 151 15 0;#P outlet 152 151 15 0;#P outlet 118 151 15 0;#P outlet 84 151 15 0;#P outlet 50 151 15 0;#P connect 16 0 17 0;#P connect 17 0 18 0;#P connect 18 0 0 0;#P connect 17 1 19 0;#P connect 19 0 1 0;#P connect 17 2 20 0;#P connect 20 0 2 0;#P connect 17 3 21 0;#P connect 21 0 3 0;#P connect 17 4 22 0;#P connect 22 0 4 0;#P connect 17 5 23 0;#P connect 23 0 5 0;#P connect 17 6 24 0;#P connect 24 0 6 0;#P connect 17 7 25 0;#P connect 25 0 7 0;#P connect 17 8 26 0;#P connect 26 0 8 0;#P connect 17 9 27 0;#P connect 27 0 9 0;#P connect 17 10 28 0;#P connect 28 0 10 0;#P connect 17 11 29 0;#P connect 29 0 11 0;#P connect 17 12 30 0;#P connect 30 0 12 0;#P connect 17 13 31 0;#P connect 31 0 13 0;#P connect 17 14 32 0;#P connect 32 0 14 0;#P connect 17 15 33 0;#P connect 33 0 15 0;#P pop;#P newobj 160 155 209 196617 p gains;#P objectname gains;#P newex 34 117 144 196617 jcom.oscroute /order /meter;#P outlet 377 510 15 0;#P inlet 377 86 15 0;#N thispatcher;#Q end;#P newobj 34 495 61 196617 thispatcher;#P window linecount 2;#N vpatcher 28 37 883 565;#P outlet 405 400 15 0;#P window setfont "Sans Serif" 9.;#P window linecount 1;#P comment 490 427 128 196617 Scripting for monitoring;#N vpatcher 17 55 838 367;#P window setfont "Sans Serif" 9.;#P window linecount 1;#P newex 557 162 213 196617 sprintf script connect peakamp~[%ld] 0 pack %ld;#P newex 80 162 211 196617 sprintf script connect in[%ld] 0 peakamp~[%ld] 0;#P newex 313 162 212 196617 sprintf script connect qmetro 0 peakamp~[%ld] 0;#P window linecount 0;#P newex 281 103 27 196617 - 1;#P newex 50 63 40 196617 uzi;#P inlet 50 30 15 0;#P outlet 80 238 15 0;#P connect 1 0 2 0;#P fasten 2 2 5 0 85 139 85 139;#P fasten 6 0 0 0 562 215 85 215;#P fasten 5 0 0 0 85 215 85 215;#P fasten 4 0 0 0 318 215 85 215;#P fasten 2 2 3 0 85 92 286 92;#P fasten 3 0 5 1 286 148 286 148;#P fasten 3 0 4 0 286 142 318 142;#P fasten 3 0 6 0 286 142 562 142;#P fasten 3 0 6 1 286 142 765 142;#P pop;#P newobj 488 355 49 196617 p connect;#N vpatcher 44 74 417 347;#P window setfont "Sans Serif" 9.;#P window linecount 0;#P newex 80 141 27 196617 - 1;#P newex 50 57 27 196617 t i b;#P window linecount 1;#P newex 80 167 180 196617 sprintf script delete peakamp~[%ld];#P newex 50 115 40 196617 uzi;#P newex 50 90 27 196617 i 16;#P inlet 50 30 15 0;#P outlet 80 189 15 0;#P connect 1 0 5 0;#P connect 5 1 2 0;#P connect 2 0 3 0;#P connect 5 0 2 1;#P connect 3 2 6 0;#P connect 6 0 4 0;#P connect 4 0 0 0;#P pop;#P newobj 645 355 103 196617 p delete_peakamp~;#N vpatcher 44 74 570 336;#P window setfont "Sans Serif" 9.;#P window linecount 0;#P newex 378 120 76 196617 expr 87 + $i1*27;#P newex 80 79 27 196617 - 1;#P newex 50 51 40 196617 uzi;#P window linecount 1;#P newex 229 120 105 196617 expr 155 + $i1*27;#P newex 80 166 348 196617 sprintf script new peakamp~[%ld] newex %ld %ld 54 9109513 peakamp~;#P inlet 50 23 15 0;#P outlet 80 196 15 0;#P connect 1 0 4 0;#P connect 4 2 5 0;#P connect 5 0 2 0;#P connect 2 0 0 0;#P fasten 5 0 3 0 85 109 234 109;#P connect 3 0 2 1;#P fasten 5 0 6 0 85 109 383 109;#P connect 6 0 2 2;#P pop;#P newobj 543 355 94 196617 p new_peakamp~;#P outlet 488 400 15 0;#P window linecount 0;#N coll $0_voices 1;#T flags 1 0;#T 1 4;#T 2 9;#T 3 16;#P newobj 180 276 76 196617 coll $0_voices 1;#P window linecount 2;#P comment 231 182 134 196617 Changes can not take place while audio is running;#P window linecount 1;#P newex 180 235 40 196617 change;#N vpatcher 44 74 1003 609;#P window setfont "Sans Serif" 9.;#P window linecount 1;#P newex 724 181 190 196617 sprintf script connect *~[%ld] 0 monitor %ld;#P newex 539 181 181 196617 sprintf script connect gains %ld *~[%ld] 1;#P newex 149 181 189 196617 sprintf script connect *~[%ld] 0 multi.in %ld;#P newex 342 181 195 196617 sprintf script connect multi.out %ld *~[%ld] 0;#P window linecount 0;#P newex 80 97 27 196617 - 1;#P newex 50 63 40 196617 uzi;#P inlet 50 30 15 0;#P outlet 149 230 15 0;#P connect 1 0 2 0;#P fasten 2 2 3 0 85 92 85 92;#P fasten 3 0 5 0 85 148 154 148;#P fasten 5 0 0 0 154 215 154 215;#P fasten 4 0 0 0 347 215 154 215;#P fasten 7 0 0 0 729 215 154 215;#P fasten 6 0 0 0 544 215 154 215;#P fasten 3 0 5 1 85 148 333 148;#P fasten 3 0 4 0 85 148 347 148;#P fasten 3 0 4 1 85 148 532 148;#P fasten 3 0 6 0 85 148 544 148;#P fasten 3 0 6 1 85 148 715 148;#P fasten 3 0 7 0 85 148 729 148;#P fasten 2 2 7 1 85 93 909 93;#P pop;#P newobj 180 355 49 196617 p connect;#N vpatcher 44 74 318 347;#P window setfont "Sans Serif" 9.;#P window linecount 0;#P newex 80 145 27 196617 - 1;#P newex 50 57 27 196617 t i b;#P window linecount 1;#P newex 80 173 146 196617 sprintf script delete *~[%ld];#P newex 50 117 40 196617 uzi;#P newex 50 90 27 196617 i 16;#P inlet 50 30 15 0;#P outlet 80 195 15 0;#P connect 1 0 5 0;#P connect 5 1 2 0;#P connect 2 0 3 0;#P connect 5 0 2 1;#P connect 3 2 6 0;#P connect 6 0 4 0;#P connect 4 0 0 0;#P pop;#P newobj 303 355 69 196617 p delete_*~;#N vpatcher 44 74 557 334;#P window setfont "Sans Serif" 9.;#P window linecount 0;#P newex 80 79 27 196617 - 1;#P newex 50 51 40 196617 uzi;#P window linecount 1;#P newex 360 139 105 196617 expr 377 + $i1*29;#P newex 80 166 290 196617 sprintf script new *~[%ld] newex %ld 254 27 9109513 *~;#P inlet 50 23 15 0;#P outlet 80 196 15 0;#P connect 1 0 4 0;#P connect 4 2 5 0;#P connect 5 0 2 0;#P connect 2 0 0 0;#P connect 5 0 3 0;#P connect 3 0 2 1;#P pop;#P newobj 235 355 60 196617 p new_*~;#P newex 47 46 48 196617 loadbang;#P newex 105 107 31 196617 == 0;#P outlet 180 400 15 0;#P newex 199 160 27 196617 i;#P newex 180 187 29 196617 gate;#P newex 47 107 32 196617 sel 0;#P newex 47 74 54 196617 dspstate~;#P comment 217 41 100 196617 order;#P window linecount 2;#P comment 230 229 151 196617 Only apply script if either voices and/or order is changed;#P inlet 199 41 15 0;#P window linecount 0;#P comment 181 427 123 196617 Scripting for algorithm;#P connect 10 0 4 0;#P connect 4 0 5 0;#P fasten 4 0 9 0 52 97 110 97;#P connect 9 0 6 0;#P connect 6 0 14 0;#P connect 14 0 16 0;#P fasten 16 0 13 0 185 340 185 340;#P fasten 11 0 8 0 240 386 185 386;#P fasten 12 0 8 0 308 386 185 386;#P connect 13 0 8 0;#P fasten 5 0 7 0 52 146 204 146;#P connect 1 0 7 0;#P connect 7 0 6 1;#P fasten 16 0 11 0 185 340 240 340;#P fasten 16 0 12 0 185 340 308 340;#P fasten 16 0 22 0 185 331 410 331;#P fasten 16 0 20 0 185 325 493 325;#P connect 20 0 17 0;#P fasten 18 0 17 0 548 387 493 387;#P fasten 19 0 17 0 650 387 493 387;#P fasten 16 0 18 0 185 325 548 325;#P fasten 16 0 19 0 185 325 650 325;#P pop;#P newobj 34 322 39 196617 p script;#P window linecount 1;#P newex 377 155 417 196617 jcom.multi.out~;#P objectname multi.out;#P newex 377 442 417 196617 jcom.multi.in~;#P objectname multi.in;#P newex 377 254 27 196617 *~;#P objectname *~[0];#P newex 406 254 27 196617 *~;#P objectname *~[1];#P newex 435 254 27 196617 *~;#P objectname *~[2];#P newex 464 254 27 196617 *~;#P objectname *~[3];#P newex 493 254 27 196617 *~;#P objectname *~[4];#P newex 522 254 27 196617 *~;#P objectname *~[5];#P newex 551 254 27 196617 *~;#P objectname *~[6];#P newex 580 254 27 196617 *~;#P objectname *~[7];#P newex 609 254 27 196617 *~;#P objectname *~[8];#P newex 638 254 27 196617 *~;#P objectname *~[9];#P newex 667 254 27 196617 *~;#P objectname *~[10];#P newex 696 254 27 196617 *~;#P objectname *~[11];#P newex 725 254 27 196617 *~;#P objectname *~[12];#P newex 754 254 27 196617 *~;#P objectname *~[13];#P newex 783 254 27 196617 *~;#P objectname *~[14];#P newex 812 254 27 196617 *~;#P objectname *~[15];#P connect 25 0 22 0;#P connect 22 0 18 0;#P connect 18 0 19 0;#P connect 18 1 29 0;#P connect 22 1 29 1;#P connect 22 1 27 0;#P connect 27 0 30 0;#P connect 30 0 26 0;#P connect 26 0 24 0;#P connect 18 2 24 0;#P connect 22 1 24 0;#P connect 29 0 28 0;#P connect 24 0 28 0;#P connect 15 0 24 1;#P connect 22 2 23 0;#P connect 14 0 24 2;#P connect 13 0 24 3;#P connect 12 0 24 4;#P connect 11 0 24 5;#P connect 10 0 24 6;#P connect 9 0 24 7;#P connect 8 0 24 8;#P connect 7 0 24 9;#P connect 6 0 24 10;#P connect 5 0 24 11;#P connect 4 0 24 12;#P connect 3 0 24 13;#P connect 2 0 24 14;#P connect 1 0 24 15;#P connect 0 0 24 16;#P connect 20 0 17 0;#P connect 17 0 15 0;#P connect 15 0 16 0;#P connect 16 0 21 0;#P connect 14 0 16 1;#P connect 23 0 15 1;#P connect 13 0 16 2;#P connect 17 1 14 0;#P connect 12 0 16 3;#P connect 23 1 14 1;#P connect 11 0 16 4;#P connect 17 2 13 0;#P connect 10 0 16 5;#P connect 23 2 13 1;#P connect 9 0 16 6;#P connect 17 3 12 0;#P connect 8 0 16 7;#P connect 23 3 12 1;#P connect 7 0 16 8;#P connect 17 4 11 0;#P connect 6 0 16 9;#P connect 5 0 16 10;#P connect 23 4 11 1;#P connect 4 0 16 11;#P connect 17 5 10 0;#P connect 3 0 16 12;#P connect 23 5 10 1;#P connect 2 0 16 13;#P connect 17 6 9 0;#P connect 1 0 16 14;#P connect 23 6 9 1;#P connect 0 0 16 15;#P connect 17 7 8 0;#P connect 23 7 8 1;#P connect 17 8 7 0;#P connect 23 8 7 1;#P connect 17 9 6 0;#P connect 23 9 6 1;#P connect 17 10 5 0;#P connect 23 10 5 1;#P connect 17 11 4 0;#P connect 23 11 4 1;#P connect 17 12 3 0;#P connect 23 12 3 1;#P connect 17 13 2 0;#P connect 23 13 2 1;#P connect 17 14 1 0;#P connect 23 14 1 1;#P connect 17 15 0 0;#P connect 23 15 0 1;#P pop;