max v2;#N vpatcher 65 44 564 796;#P origin -22 0;#P window setfont "Sans Serif" 9.;#P window linecount 1;#P message 180 144 51 196617 65 84 13;#P newex 295 336 51 196617 tosymbol;#P newex 108 439 51 196617 zl slice 6;#P newex 47 439 51 196617 zl slice 6;#P newex 47 392 118 196617 route 1 2 3 4 5 6 7 8;#P comment 176 442 209 196617 Removes extra line break in the 7th position;#P toggle 47 75 15 0;#P comment 118 362 102 196617 Removes repetitions;#P newex 47 357 65 196617 jcom.change;#P comment 118 334 163 196617 Converts ASCII values to symbols;#P comment 118 308 173 196617 Cuts up the string at the end of lines;#P newex 47 330 40 196617 lstring;#P newex 47 305 68 196617 lchunk 10 60;#P toggle 101 216 15 0;#P newex 101 234 29 196617 gate;#P button 26 126 15 0;#P newex 47 148 37 196617 t b 80;#P newex 47 123 58 196617 metro 100;#P message 135 144 32 196617 print;#P newex 101 256 63 196617 print status;#P button 115 145 15 0;#P newex 47 192 83 196617 serial c 115200;#B color 5;#P newex 58 656 373 196617 jcom.return /accel/y @description "Acceleration x value from Phidgets device";#P number 130 75 35 9 0 0 0 3 0 0 0 221 221 221 222 222 222 0 0 0;#P comment 171 75 36 196617 in ms;#P newex 58 622 373 196617 jcom.return /accel/x @description "Acceleration x value from Phidgets device";#P newex 47 47 176 196617 jcom.oscroute /status /sample_rate;#P inlet 47 23 15 0;#P connect 0 0 1 0;#P connect 1 0 21 0;#P connect 21 0 10 0;#P fasten 12 0 11 0 31 145 52 145;#P connect 10 0 11 0;#P fasten 11 1 6 0 79 176 52 176;#P connect 11 0 6 0;#P fasten 9 0 6 0 140 176 52 176;#P fasten 7 0 6 0 120 176 52 176;#P fasten 27 0 6 0 185 175 52 175;#P connect 6 0 15 0;#P connect 15 0 16 0;#P connect 16 0 19 0;#P connect 19 0 23 0;#P connect 23 0 24 0;#P connect 4 0 10 1;#P connect 14 0 13 0;#P connect 13 0 8 0;#P connect 23 1 25 0;#P connect 6 1 13 1;#P connect 1 1 4 0;#P pop;