max v2;#N vpatcher 342 68 1232 729;#P origin 80 0;#P window setfont "Sans Serif" 9.;#P window linecount 1;#N vpatcher 214 213 1218 720;#P origin 0 -5;#P window setfont "Sans Serif" 9.;#P window linecount 2;#P newex 699 371 298 196617 jcom.return gdif/body/hand/right/orientation @type msg_float @range 0. 1. @description "Vertical position of hand";#P newex 662 327 287 196617 jcom.return gdif/body/hand/right/distance @type msg_float @range 0. 1. @description "Horizontal position of hand";#P window linecount 1;#P newex 662 303 47 196617 cartopol;#P newex 519 241 86 196617 scale 0. 1. -1. 1.;#P newex 346 241 86 196617 scale 0. 1. -1. 1.;#P newex 19 53 178 196617 jcom.oscroute /on /unit /description;#P newex 538 95 73 196617 r $0_vertical;#P newex 365 95 82 196617 r $0_horizontal;#P newex 90 95 65 196617 r $0_button;#P newex 519 146 29 196617 gate;#P newex 346 146 29 196617 gate;#P inlet 19 26 15 0;#P toggle 19 116 15 0;#P newex 71 146 29 196617 gate;#P window linecount 2;#P newex 71 371 245 196617 jcom.return gdif/body/hand/right/finger/2 @type toggle @range 0 1 @description "Finger up or down";#P newex 519 422 298 196617 jcom.return gdif/body/hand/right/location/vertical @type msg_float @range 0. 1. @description "Vertical position of hand";#P newex 346 371 308 196617 jcom.return gdif/body/hand/right/location/horizontal @type msg_float @range 0. 1. @description "Horizontal position of hand";#P window linecount 1;#N vpatcher 532 157 913 485;#P window setfont "Sans Serif" 9.;#P newex 144 46 58 196617 r jcom.init;#P newex 92 184 23 196617 abs;#P newex 92 160 27 196617 -;#P newex 92 212 27 196617 / 0.;#P newex 55 212 27 196617 / 0.;#P newex 123 105 76 196617 unpack 0 0 0 0;#P button 123 46 15 0;#P newex 123 75 58 196617 screensize;#P inlet 55 46 15 0;#P inlet 92 46 15 0;#P outlet 55 260 15 0;#P outlet 92 260 15 0;#P comment 223 80 100 196617 Finds the number of pixels of the screen and uses his to calculate absolute position on screen.;#P connect 4 0 8 0;#P connect 8 0 2 0;#P fasten 7 2 8 1 77 157;#P connect 3 0 10 0;#P connect 10 0 11 0;#P connect 11 0 9 0;#P connect 9 0 1 0;#P connect 7 3 10 1;#P connect 7 3 9 1;#P fasten 12 0 5 0 149 69 128 69;#P connect 6 0 5 0;#P connect 5 0 7 0;#P pop;#P newobj 346 195 183 196617 p normalize;#P connect 6 0 12 0;#P connect 12 0 5 0;#P fasten 5 0 4 0 24 137 76 137;#P connect 4 0 3 0;#P connect 9 0 4 1;#P fasten 5 0 7 0 24 137 351 137;#P connect 7 0 0 0;#P connect 0 0 13 0;#P connect 13 0 1 0;#P connect 10 0 7 1;#P fasten 5 0 8 0 24 137 524 137;#P connect 8 0 0 1;#P connect 0 1 14 0;#P connect 14 0 2 0;#P connect 11 0 8 1;#P connect 13 0 15 0;#P connect 15 0 16 0;#P connect 14 0 15 1;#P connect 15 1 17 0;#P pop;#P newobj 433 171 61 196617 p gdif-body;#P newex 157 263 102 196617 s $0_vertical;#P newex 112 240 111 196617 s $0_horizontal;#P newex 67 215 94 196617 s $0_button;#P newex 285 137 390 196617 jcom.oscroute /raw /cooked /body /instrument /environment /performance /meta;#P hidden message 630 87 82 196617 checkitem \$1 -1;#P user ubumenu 630 55 100 196617 0 1 1 0;#X add raw;#X add cooked;#X add body;#X add instrument;#X add environment;#X add performance;#X add meta;#X prefix_set 0 0 <none> 0;#X pattrmode 1;#N vpatcher 202 309 1171 681;#P origin 0 -5;#P window setfont "Sans Serif" 9.;#P window linecount 1;#P newex 19 53 178 196617 jcom.oscroute /on /unit /description;#P newex 676 95 73 196617 r $0_vertical;#P newex 365 95 82 196617 r $0_horizontal;#P newex 90 95 65 196617 r $0_button;#P newex 657 146 29 196617 gate;#P newex 346 146 29 196617 gate;#P inlet 19 26 15 0;#P toggle 19 116 15 0;#P newex 71 146 29 196617 gate;#P window linecount 2;#P newex 71 241 236 196617 jcom.return gdif/cooked/button @type toggle @range 0 1 @description "Mouse button on or off";#P newex 657 241 282 196617 jcom.return gdif/cooked/location/vertical @type msg_float @range 0. 1. @description "Vertical position of mouse";#P newex 346 241 291 196617 jcom.return gdif/cooked/location/horizontal @type msg_float @range 0. 1. @description "Horizontal position of mouse";#P window linecount 1;#N vpatcher 532 157 913 485;#P window setfont "Sans Serif" 9.;#P newex 144 46 58 196617 r jcom.init;#P newex 92 184 23 196617 abs;#P newex 92 160 27 196617 -;#P newex 92 212 27 196617 / 0.;#P newex 55 212 27 196617 / 0.;#P newex 123 105 76 196617 unpack 0 0 0 0;#P button 123 46 15 0;#P newex 123 75 58 196617 screensize;#P inlet 55 46 15 0;#P inlet 92 46 15 0;#P outlet 55 260 15 0;#P outlet 92 260 15 0;#P comment 223 80 100 196617 Finds the number of pixels of the screen and uses his to calculate absolute position on screen.;#P connect 4 0 8 0;#P connect 8 0 2 0;#P fasten 7 2 8 1 77 157;#P connect 3 0 10 0;#P connect 10 0 11 0;#P connect 11 0 9 0;#P connect 9 0 1 0;#P connect 7 3 10 1;#P connect 7 3 9 1;#P connect 6 0 5 0;#P fasten 12 0 5 0 149 69 128 69;#P connect 5 0 7 0;#P pop;#P newobj 346 195 321 196617 p normalize;#P window linecount 0;#P comment 71 322 391 196617 These are the pre-processed data values \, based on doing simple filtering and scaling.;#P connect 7 0 13 0;#P connect 13 0 6 0;#P fasten 6 0 5 0 24 137 76 137;#P connect 5 0 4 0;#P connect 10 0 5 1;#P fasten 6 0 8 0 24 137 351 137;#P connect 8 0 1 0;#P connect 1 0 2 0;#P connect 11 0 8 1;#P fasten 6 0 9 0 24 137 662 137;#P connect 9 0 1 1;#P connect 1 1 3 0;#P connect 12 0 9 1;#P pop;#P newobj 356 172 70 196617 p gdif-cooked;#N vpatcher 203 231 1232 612;#P origin 0 -18;#P window setfont "Sans Serif" 9.;#P window linecount 1;#P newex 679 94 73 196617 r $0_vertical;#P newex 368 94 82 196617 r $0_horizontal;#P newex 93 94 65 196617 r $0_button;#P button 25 186 15 0;#P window linecount 0;#P newex 29 50 178 196617 jcom.oscroute /on /unit /description;#P window linecount 1;#P message 25 242 48 196617 "Pixels";#P window linecount 0;#P message 25 215 299 196617 "These are the raw values coming out of the mousestate object";#P window linecount 1;#P newex 660 134 29 196617 gate;#P newex 349 134 29 196617 gate;#P inlet 29 29 15 0;#P toggle 29 104 15 0;#P window linecount 0;#P newex 74 134 29 196617 gate;#P window linecount 2;#P newex 74 161 223 196617 jcom.return gdif/raw/button @type toggle @range 0 1 @description "Mouse button on off";#P newex 660 161 270 196617 jcom.return gdif/raw/location/vertical @type msg_int @range 0 2000 @description "Vertical position of mouse";#P newex 349 161 280 196617 jcom.return gdif/raw/location/horizontal @type msg_int @range 0 2000 @description "Horizontal position of mouse";#P connect 11 0 8 0;#P connect 5 0 10 0;#P connect 10 0 4 0;#P fasten 4 0 3 0 34 125 79 125;#P connect 3 0 2 0;#P connect 12 0 3 1;#P fasten 4 0 6 0 34 125 354 125;#P connect 6 0 0 0;#P connect 13 0 6 1;#P fasten 4 0 7 0 34 125 665 125;#P connect 7 0 1 0;#P connect 14 0 7 1;#P pop;#P newobj 285 172 58 196617 p gdif-raw;#P newex 122 141 21 196617 t 1;#P newex 67 141 50 196617 t reset 0;#P newex 67 106 41 196617 sel 0 1;#P toggle 20 184 15 0;#P newex 20 211 29 196617 gate;#P newex 20 232 43 196617 change;#P message 25 141 34 196617 zero;#P newex 364 342 47 196617 cartopol;#N vpatcher 10 59 269 406;#P window setfont "Sans Serif" 9.;#P newex 92 235 34 196617 * -1.;#P newex 144 46 58 196617 r jcom.init;#P newex 92 212 27 196617 / 0.;#P newex 55 212 27 196617 / 0.;#P newex 123 105 76 196617 unpack 0 0 0 0;#P button 123 46 15 0;#P newex 123 75 58 196617 screensize;#P inlet 55 46 15 0;#P inlet 92 46 15 0;#P outlet 55 260 15 0;#P outlet 92 260 15 0;#P connect 3 0 7 0;#P connect 7 0 1 0;#P fasten 6 2 7 1 77 157;#P connect 2 0 8 0;#P connect 8 0 10 0;#P connect 10 0 0 0;#P connect 6 3 8 1;#P connect 5 0 4 0;#P fasten 9 0 4 0 149 69 128 69;#P connect 4 0 6 0;#P pop;#P newobj 330 222 62 196617 p normalize;#P window linecount 2;#P newex 401 369 296 196617 jcom.return delta/angle @type msg_float @range -3.14 3.14 @description "Angle (in radians) of relative position of mouse.";#P window linecount 1;#P newex 158 106 41 196617 sel 1 0;#P message 192 141 40 196617 nopoll;#P message 158 141 30 196617 poll;#P window linecount 2;#P newex 364 414 399 196617 jcom.return delta/magnitude @type msg_float @range 0. 0.4 @description "Mangitude (in screen percentage) of relative position of mouse (sum of horizontal and vertical).";#P newex 331 293 241 196617 jcom.return delta/y @type msg_float @range -0.2 0.2 @description "Vertical delta position of mouse";#P newex 330 256 251 196617 jcom.return delta/x @type msg_float @range -0.2 0.2 @description "Horizontal delta position of mouse";#P window linecount 1;#P newex 67 185 193 196617 mousestate;#B color 5;#P newex 67 64 283 196617 jcom.oscroute /mouse_menu /mouse_on /gdif;#P inlet 67 40 15 0;#P connect 18 0 15 0;#P connect 17 1 15 0;#P connect 15 0 14 0;#P connect 14 0 13 0;#P fasten 13 1 12 0 41 255 10 255 10 133 30 133;#P fasten 2 0 14 1 72 207 44 207;#P connect 0 0 1 0;#P connect 1 0 16 0;#P connect 16 0 17 0;#P fasten 17 0 2 0 72 171 72 171;#P fasten 12 0 2 0 30 170 72 170;#P fasten 7 0 2 0 197 170 72 170;#P fasten 6 0 2 0 163 170 72 170;#P connect 2 0 24 0;#P connect 2 1 25 0;#P connect 16 1 18 0;#P connect 2 2 26 0;#P connect 1 1 8 0;#P connect 8 0 6 0;#P connect 8 1 7 0;#P fasten 1 2 23 0 254 109 290 109;#P connect 23 0 19 0;#P fasten 2 3 10 0 207 215 335 215;#P connect 10 0 3 0;#P connect 10 1 4 0;#P connect 23 1 20 0;#P connect 10 0 11 0;#P connect 11 0 5 0;#P fasten 2 4 10 1 252 207 387 207;#P connect 10 1 11 1;#P connect 11 1 9 0;#P connect 23 2 27 0;#P hidden fasten 22 0 21 0 635 114 756 114 756 39 635 39;#P hidden connect 21 0 22 0;#P pop;