max v2;#N vpatcher 183 98 866 366;#P window setfont "Sans Serif" 9.;#P newex 105 95 177 196617 pak color 0. 0. 0. 0.;#P message 551 92 76 196617 alphaignore \$1;#P message 484 93 60 196617 maxkey \$1;#P message 422 93 57 196617 minkey \$1;#P message 373 93 44 196617 fade \$1;#P message 334 93 35 196617 tol \$1;#N comlet video input 2 (background);#P inlet 99 135 15 0;#N thispatcher;#Q end;#P newobj 13 98 60 196617 thispatcher;#P newex 13 77 39 196617 t front;#N comlet video input 1 (key);#P inlet 83 135 15 0;#P inlet 13 38 15 0;#P comment 45 190 75 196617 VIDEO OUTPUT;#P outlet 30 190 15 0;#P newex 30 158 73 196617 jit.chromakey;#P newex 13 57 589 196617 jcom.oscroute /open /video /preview /key/red /key/green /key/blue /tolerance /fade /minkey /maxkey /alphaignore;#P connect 4 0 0 0;#P fasten 0 0 6 0 18 75 18 75;#P connect 6 0 7 0;#P fasten 14 0 1 0 110 132 35 132;#P hidden fasten 13 0 1 0 556 132 35 132;#P hidden fasten 12 0 1 0 489 133 35 133;#P hidden fasten 11 0 1 0 427 133 35 133;#P hidden fasten 10 0 1 0 378 133 35 133;#P hidden fasten 9 0 1 0 339 133 35 133;#P fasten 5 0 1 0 88 153 35 153;#P connect 1 0 2 0;#P fasten 8 0 1 1 104 156 98 156;#P connect 0 3 14 2;#P connect 0 4 14 3;#P connect 0 5 14 4;#P connect 0 6 9 0;#P connect 0 7 10 0;#P connect 0 8 11 0;#P connect 0 9 12 0;#P connect 0 10 13 0;#P pop;