max v2;
#N vpatcher 270 264 711 560;
#P origin 0 -27;
#P window setfont "Sans Serif" 9.;
#P window linecount 1;
#P newex 149 106 141 9109513 jcom.pass /mode /glow /lum /tol;
#P newex 17 83 142 9109513 jcom.oscroute /genframe /direct;
#P comment 288 38 75 9109513 VIDEO INPUT;
#P inlet 317 57 15 0;
#P inlet 17 45 15 0;
#P comment 247 234 75 9109513 VIDEO OUTPUT;
#P outlet 232 234 15 0;
#P newex 232 212 49 9109513 jit.fluoride;
#P connect 3 0 6 0;
#P connect 6 2 7 0;
#P connect 7 1 0 0;
#P connect 7 2 0 0;
#P connect 7 0 0 0;
#P connect 7 3 0 0;
#P fasten 4 0 0 0 322 206 237 206;
#P lcolor 8;
#P connect 6 0 0 0;
#P connect 6 1 0 0;
#P connect 0 0 1 0;
#P pop;
