max v2;
#N vpatcher 32 396 316 719;
#P window setfont "Sans Serif" 9.;
#P number 85 219 35 9 0 0 0 139 0 0 0 221 221 221 222 222 222 0 0 0;
#P window linecount 1;
#P newex 85 146 27 9109513 t b i;
#P newex 85 195 27 9109513 +;
#P number 116 159 35 9 0 0 0 139 0 0 0 221 221 221 222 222 222 0 0 0;
#P newex 116 132 64 9109513 -;
#P newex 170 106 28 9109513 * 0.5;
#P number 153 80 35 9 0 0 0 139 0 0 0 221 221 221 222 222 222 0 0 0;
#P newex 116 106 47 9109513 random 0;
#P outlet 17 268 15 0;
#P newex 17 239 78 9109513 qmetro;
#P newex 17 54 216 9109513 jcom.oscroute /toggle /time /randomness;
#P inlet 17 32 15 0;
#P connect 0 0 1 0;
#P connect 1 0 2 0;
#P connect 2 0 3 0;
#P connect 1 1 10 0;
#P connect 10 0 9 0;
#P connect 8 0 9 0;
#P connect 9 0 11 0;
#P connect 11 0 2 1;
#P connect 10 1 9 1;
#P fasten 2 0 4 0 22 263 210 263 210 100 121 100;
#P lcolor 13;
#P connect 4 0 7 0;
#P connect 7 0 8 0;
#P connect 1 2 5 0;
#P connect 5 0 4 1;
#P connect 5 0 6 0;
#P connect 6 0 7 1;
#P pop;
