max v2;#N vpatcher 518 58 889 308;#P origin 0 -14;#P window setfont "Sans Serif" 9.;#P newex 230 56 27 196617 t b l;#P window setfont Helvetica 9.;#P user filtergraph~ 230 81 64 32 21 9 20. 20000. 0.0625 16. 0 1 1 0 0 1 1;#X frgb 170 170 170;#X brgb 209 209 209;#X rgb2 0 0 0;#X rgb3 130 130 130;#X rgb4 0 0 0;#X rgb5 76 108 172;#X rgb6 210 74 54;#X rgb7 255 22 22;#X linmarkers 5512.5 11025. 16537.5;#X logmarkers 10. 100. 1000. 10000.;#X nfilters 1;#X setfilter 0 5 1 0 0 40. 1. 2.5 0. 0. 0. 0. 0. 0.;#X done;#P window setfont "Sans Serif" 9.;#N in 1;#P newobj 14 67 25 196617 in 1;#N out~ 2;#P newobj 162 174 39 196617 out~ 2;#N out~ 1;#P newobj 72 174 39 196617 out~ 1;#N in~ 2;#P newobj 162 108 33 196617 in~ 2;#P newex 162 146 50 196617 cascade~;#N in~ 1;#P newobj 72 108 33 196617 in~ 1;#P newex 72 146 50 196617 cascade~;#N in 2;#P newobj 230 35 25 196617 in 2;#P connect 2 0 1 0;#P connect 1 0 5 0;#P fasten 8 0 1 1 235 129 117 129;#P connect 4 0 3 0;#P connect 3 0 6 0;#P fasten 8 0 3 1 235 129 207 129;#P connect 0 0 9 0;#P connect 9 0 8 0;#P fasten 9 1 8 0 252 77 235 77;#P pop;