max v2;#N vpatcher 425 44 1020 473;#P origin 10 16;#P window setfont "Sans Serif" 9.;#P comment 75 371 65 196617 Dump output;#P comment 414 49 142 196617 Just a dummy from old times;#N vpatcher 20 74 395 451;#P window setfont "Sans Serif" 9.;#P window linecount 1;#P newex 167 213 86 196617 pak dim 320 240;#P message 37 213 72 196617 planecount \$1;#P number 105 140 26 9 0 0 0 3 0 0 0 221 221 221 222 222 222 0 0 0;#P toggle 71 139 15 0;#P newex 71 163 51 196617 qmetro 2;#P newex 37 246 121 196617 jit.noise 1 char 320 240;#P window linecount 2;#P newex 37 85 293 196617 jcom.oscroute /synth_noise_planes /synth_noise_on /synth_noise_rate /synth_noise_size_x /synth_noise_size_y;#P inlet 37 43 15 0;#P outlet 37 301 15 0;#P connect 1 0 2 0;#P connect 2 0 7 0;#P connect 4 0 3 0;#P fasten 8 0 3 0 172 238 42 238;#P connect 7 0 3 0;#P connect 3 0 0 0;#P connect 5 0 4 0;#P fasten 2 1 4 0 98 158 76 158;#P connect 6 0 4 1;#P fasten 2 2 4 1 154 159 117 159;#P connect 2 3 8 1;#P connect 2 4 8 2;#P pop;#P newobj 321 191 117 196617 p video-synthesis-stuff;#N vpatcher 20 74 766 636;#P window setfont "Sans Serif" 9.;#P window linecount 1;#P newex 607 186 93 196617 prepend looppoints;#P window linecount 0;#P newex 45 266 86 196617 r global_tomovie;#P newex 36 244 73 196617 r $1_tomovie;#N vpatcher 10 59 320 285;#P window setfont "Sans Serif" 9.;#P newex 50 50 164 196617 jcom.pass read moviedim duration;#P newex 50 87 32 196617 print;#P inlet 50 30 15 0;#P connect 0 0 2 0;#P connect 2 2 1 0;#P connect 2 1 1 0;#P connect 2 0 1 0;#P pop;#P newobj 274 314 67 196617 p print-stuff;#P button 339 176 15 0;#P newex 339 196 91 196617 pack dim 320 240;#P toggle 558 132 15 0;#P flonum 558 152 35 9 0 0 0 3 0 0 0 221 221 221 222 222 222 0 0 0;#P message 540 173 39 196617 vol \$1;#P newex 344 352 118 196617 jcom.pass time duration;#N vpatcher 20 74 175 202;#P outlet 74 65 15 0;#P inlet 74 35 15 0;#P connect 0 0 1 0;#P pop;#P newobj 344 400 37 196617 p thru;#N vpatcher 20 74 175 202;#P outlet 74 65 15 0;#P inlet 74 35 15 0;#P connect 0 0 1 0;#P pop;#P newobj 173 437 37 196617 p thru;#P window linecount 2;#P newex 173 384 69 196617 t getduration getmoviedim;#P window linecount 1;#P newex 173 351 156 196617 route read moviedim framedump;#P newex 216 284 51 196617 t gettime;#P newex 216 262 49 196617 qlim 250;#P newex 339 152 65 196617 route native;#P flonum 486 152 35 9 0 0 0 3 0 0 0 221 221 221 222 222 222 0 0 0;#P message 473 173 45 196617 time \$1;#P flonum 424 152 35 9 0 0 0 3 0 0 0 221 221 221 222 222 222 0 0 0;#P message 411 173 44 196617 rate \$1;#P toggle 291 153 15 0;#P message 279 177 43 196617 loop \$1;#P message 138 147 30 196617 read;#P newex 220 188 45 196617 t stop 0;#P newex 205 166 49 196617 t 1 start;#P newex 205 143 41 196617 sel 1 0;#P toggle 217 120 15 0;#P newex 205 217 51 196617 qmetro 2;#P user umenu 339 129 62 196647 1 64 145 1;#X add native size;#X add 640 480;#X add 320 240;#X add 160 120;#X add 80 60;#P objectname file_size;#P newex 353 225 64 196617 prepend dim;#P newex 138 314 125 196617 jit.qt.movie @autostart 0;#P newex 138 76 549 196617 jcom.oscroute /file_open /file_on /file_loop /file_size /file_rate /file_counter /file_audio /file_loop_points;#P inlet 138 36 15 0;#P outlet 138 512 15 0;#P outlet 344 512 15 0;#P connect 2 0 3 0;#P connect 3 0 12 0;#P fasten 35 0 4 0 612 261 143 261;#P fasten 7 0 4 0 210 254 143 254;#P fasten 30 0 4 0 344 254 143 254;#P fasten 27 0 4 0 545 254 143 254;#P fasten 5 0 4 0 358 254 143 254;#P fasten 12 0 4 0 143 238 143 238;#P fasten 13 0 4 0 284 254 143 254;#P fasten 15 0 4 0 416 254 143 254;#P fasten 17 0 4 0 478 254 143 254;#P fasten 21 0 4 0 221 307 143 307;#P fasten 24 0 4 0 178 466 119 404 119 289;#P connect 10 1 4 0;#P connect 11 0 4 0;#P fasten 33 0 4 0 41 313 143 313;#P fasten 34 0 4 0 50 300 143 300;#P connect 4 0 1 0;#P fasten 4 1 22 0 258 340 178 340;#P connect 22 0 23 0;#P connect 23 1 24 0;#P connect 23 0 24 0;#P connect 8 0 9 0;#P connect 3 1 9 0;#P connect 9 0 10 0;#P connect 10 0 7 0;#P connect 11 1 7 0;#P connect 7 0 20 0;#P connect 20 0 21 0;#P connect 9 1 11 0;#P connect 4 1 32 0;#P connect 14 0 13 0;#P connect 3 2 13 0;#P connect 3 3 6 0;#P fasten 6 1 19 0 396 148 344 148;#P connect 19 0 31 0;#P connect 31 0 30 0;#P fasten 4 1 26 0 258 340 349 340;#P connect 26 0 25 0;#P connect 26 1 25 0;#P connect 25 0 0 0;#P fasten 19 1 5 0 399 220 358 220;#P connect 22 1 30 1;#P lcolor 4;#P connect 16 0 15 0;#P connect 3 4 15 0;#P connect 18 0 17 0;#P connect 3 5 17 0;#P connect 28 0 27 0;#P connect 3 6 27 0;#P connect 29 0 28 0;#P connect 3 7 35 0;#P pop;#P newobj 203 191 89 196617 p video-file-stuff;#N vpatcher 100 44 679 644;#P window setfont "Sans Serif" 9.;#P user umenu 190 178 52 196647 1 64 194 1;#X add 640 480;#X add 320 240;#X add 160 120;#X add 80 60;#P objectname camera_size;#P newex 190 200 64 196617 prepend dim;#P newex 291 205 58 196617 r jcom.init;#P newex 65 200 49 196617 t close 0;#P newex 50 178 46 196617 t 1 open;#P newex 50 155 41 196617 sel 1 0;#P newex 205 344 25 196617 iter;#P newex 300 365 38 196617 t clear;#P newex 438 365 38 196617 t clear;#P message 360 410 45 196617 input \$1;#P user ubumenu 360 389 145 196617 0 1 1 0;#X prefix_set 0 0 <none> 0;#X pattrmode 1;#P newex 360 365 75 196617 prepend append;#P newex 360 344 25 196617 iter;#P message 205 410 58 196617 vdevice \$1;#P user ubumenu 205 389 145 196617 0 1 1 0;#X add "DVCPRO HD (1080i50)";#X add "DVCPRO HD (1080i60)";#X add "DVCPRO HD (720p60)";#X add "DV Video";#X add "IIDC FireWire Video";#X add "USB Video Class Video";#X prefix_set 0 0 <none> 0;#X pattrmode 1;#P newex 205 365 75 196617 prepend append;#P newex 205 314 112 196617 route vdevlist inputlist;#P message 354 245 59 196617 getinputlist;#P message 291 245 59 196617 getvdevlist;#P message 120 204 44 196617 settings;#P newex 120 293 95 196617 jit.qt.grab 320 240;#B color 5;#P toggle 62 132 15 0;#P newex 50 229 51 196617 qmetro 2;#P newex 50 104 362 196617 jcom.oscroute /camera_on /camera_settings /camera_size /device /camera;#P inlet 50 34 15 0;#P outlet 120 502 15 0;#P connect 1 0 2 0;#P connect 4 0 20 0;#P connect 2 0 20 0;#P connect 20 0 21 0;#P connect 22 1 3 0;#P connect 21 0 3 0;#P connect 20 1 22 0;#P connect 2 1 6 0;#P connect 3 0 5 0;#P fasten 16 0 5 0 365 429 517 429 517 289 125 289;#P fasten 12 0 5 0 210 429 517 429 517 289 125 289;#P fasten 7 0 5 0 296 276 125 276;#P connect 6 0 5 0;#P fasten 8 0 5 0 359 276 125 276;#P connect 21 1 5 0;#P connect 22 0 5 0;#P connect 24 0 5 0;#P connect 5 0 0 0;#P connect 2 2 25 0;#P fasten 25 1 24 0 237 197 195 197;#P connect 5 1 9 0;#P connect 9 0 19 0;#P connect 19 0 10 0;#P connect 10 0 11 0;#P fasten 18 0 11 0 305 385 210 385;#P connect 11 0 12 0;#P connect 23 0 7 0;#P fasten 9 0 18 0 210 338 305 338;#P fasten 23 0 8 0 296 233 359 233;#P fasten 9 1 13 0 261 334 365 334;#P connect 13 0 14 0;#P connect 14 0 15 0;#P fasten 17 0 15 0 443 385 365 385;#P connect 15 0 16 0;#P fasten 9 1 17 0 261 334 443 334;#P pop;#P newobj 63 191 109 196617 p video-grabber-stuff;#N vpatcher 20 74 509 426;#P outlet 131 277 15 0;#P window setfont "Sans Serif" 9.;#P window linecount 1;#P newex 215 93 32 196617 sel 1;#P newex 135 93 32 196617 sel 1;#P message 54 215 74 196617 /camera_on 0;#P message 207 215 95 196617 /synth_noise_on 0;#P message 131 215 56 196617 /file_on 0;#P newex 55 93 32 196617 sel 1;#P newex 55 60 251 196617 jcom.oscroute /camera_on /file_on /synth_noise_on;#P inlet 55 30 15 0;#P window linecount 0;#P comment 341 115 100 196617 Not very elegant \, but this ensures that only one metro is running at a time. This was easier to implement than trying to have one main metro.;#P connect 7 0 6 0;#P connect 8 0 6 0;#P connect 1 0 2 0;#P connect 2 0 3 0;#P connect 3 0 4 0;#P connect 8 0 4 0;#P connect 6 0 9 0;#P connect 4 0 9 0;#P connect 5 0 9 0;#P connect 2 1 7 0;#P connect 3 0 5 0;#P connect 7 0 5 0;#P connect 2 2 8 0;#P pop;#P newobj 75 76 92 196617 p turn-off-metros;#P inlet 63 49 15 0;#P comment 197 371 65 196617 Video output;#N comlet video output;#P outlet 203 351 15 0;#P outlet 92 351 15 0;#P inlet 392 49 15 0;#P newex 63 103 54 196617 jcom.thru;#P connect 5 0 0 0;#P connect 6 0 0 0;#P connect 0 0 7 0;#P connect 5 0 6 0;#P connect 8 1 2 0;#P connect 0 0 8 0;#P connect 9 0 3 0;#P connect 8 0 3 0;#P connect 7 0 3 0;#P connect 0 0 9 0;#P pop;