max v2;#N vpatcher 20 58 1143 549;#P origin 0 66;#P window setfont "Sans Serif" 9.;#P window linecount 1;#P newex 252 351 417 196617 jcom.multi.in~.mxt;#P objectname multiin;#P newex 252 60 417 196617 jcom.multi.out~.mxt;#P objectname multiout;#N vpatcher 44 74 729 505;#P window setfont "Sans Serif" 9.;#P window linecount 4;#P comment 481 41 180 196617 If /order or /voices has caused ambidecode~ to be recreated \, all values have to be resent when audio start to recreate current state.;#P window linecount 0;#P newex 355 190 31 196617 zl join;#P newex 421 89 45 196617 t b dump;#P newex 355 163 31 196617 t i l;#N coll ;#P newobj 355 222 53 196617 coll;#P newex 421 64 28 196617 sel 1;#P newex 421 37 53 196617 dspstate~;#P newex 246 149 27 196617 f;#P window linecount 2;#P newex 191 297 43 196617 prepend third;#P newex 136 297 45 196617 prepend second;#P newex 81 297 42 196617 prepend first;#P newex 26 297 41 196617 prepend omni;#P window linecount 1;#P newex 191 229 29 196617 * 0.;#P newex 136 229 29 196617 * 0.;#P newex 81 229 29 196617 * 0.;#P window linecount 0;#P newex 26 229 29 196617 * 0.;#P newex 246 184 29 196617 t b f;#P window linecount 2;#P newex 246 102 95 196617 scale 0. 158. 0. 7.94321 1.071519;#P window linecount 0;#P newex 301 297 41 196617 prepend aed;#P newex 26 60 344 196617 jcom.oscroute /omni /first /second /third /audio/gain/midi /aed;#P inlet 26 28 15 0;#P outlet 26 357 15 0;#P connect 1 0 2 0;#P connect 2 0 6 0;#P fasten 5 0 6 0 251 215 31 215;#P connect 6 0 10 0;#P fasten 3 0 0 0 306 339 31 339;#P connect 10 0 0 0;#P fasten 11 0 0 0 86 339 31 339;#P fasten 12 0 0 0 141 339 31 339;#P fasten 13 0 0 0 196 339 31 339;#P fasten 5 1 6 1 270 220 50 220;#P connect 2 1 7 0;#P fasten 5 0 7 0 251 215 86 215;#P connect 7 0 11 0;#P fasten 5 1 7 1 270 220 105 220;#P connect 2 2 8 0;#P fasten 5 0 8 0 251 215 141 215;#P connect 8 0 12 0;#P fasten 5 1 8 1 270 220 160 220;#P connect 2 3 9 0;#P fasten 5 0 9 0 251 215 196 215;#P connect 9 0 13 0;#P fasten 5 1 9 1 270 220 215 220;#P connect 2 4 4 0;#P connect 4 0 14 0;#P fasten 19 0 14 0 426 142 251 142;#P connect 14 0 5 0;#P connect 2 5 3 0;#P connect 17 0 3 0;#P fasten 2 5 18 0 306 100 360 100;#P connect 18 0 20 0;#P connect 20 0 17 0;#P fasten 19 1 17 0 461 215 360 215;#P connect 18 1 20 1;#P connect 15 0 16 0;#P connect 16 0 19 0;#P pop;#P newobj 118 85 61 196617 p messages;#P objectname messages;#P inlet 26 30 15 0;#N vpatcher 546 298 1513 792;#P window setfont "Sans Serif" 9.;#P window linecount 1;#P newex 166 65 146 196617 jcom.oscroute /voices /order;#P window linecount 2;#P comment 198 172 134 196617 Changes can not take place while audio is running;#P window linecount 0;#P newex 147 254 58 196617 unpack 0 0;#P newex 147 230 175 196617 if $i1 != $i3 || $i2 !=$i4 then $i1 $i2;#P window linecount 1;#P newex 166 90 40 196617 change;#P window linecount 0;#P newex 348 115 27 196617 t b i;#B color 6;#N vpatcher 81 393 681 830;#P window setfont "Sans Serif" 9.;#P window linecount 1;#P newex 313 127 218 196617 sprintf script connect decode %ld pass[%ld] 0;#P window linecount 0;#P newex 289 99 27 196617 - 1;#P newex 80 127 219 196617 sprintf script connect pass[%ld] 0 multiin %ld;#P newex 50 63 40 196617 uzi;#P inlet 50 30 15 0;#P outlet 80 200 15 0;#P connect 1 0 2 0;#P connect 2 2 3 0;#P connect 5 0 0 0;#P connect 3 0 0 0;#P fasten 2 2 4 0 85 90 294 90;#P connect 4 0 3 1;#P connect 4 0 5 0;#P fasten 2 2 5 1 85 84 526 84;#P pop;#P newobj 147 350 116 196617 p connect_from_decode;#N vpatcher 44 74 644 474;#P window setfont "Sans Serif" 9.;#P window linecount 0;#N coll ;#T flags 1 0;#T 1 4;#T 2 9;#T 3 16;#P newobj 353 57 53 196617 coll;#P inlet 353 31 15 0;#P window linecount 1;#P newex 50 115 27 196617 i 4;#P message 65 211 171 196617 script connect messages 0 decode 0;#P newex 248 173 27 196617 - 1;#P newex 248 207 202 196617 sprintf script connect multiout %ld decode %ld;#P newex 50 141 40 196617 uzi 4;#P inlet 50 30 15 0;#P outlet 65 270 15 0;#P connect 1 0 6 0;#P connect 6 0 2 0;#P connect 2 1 5 0;#P connect 3 0 0 0;#P connect 5 0 0 0;#P connect 8 0 6 1;#P fasten 2 2 4 0 85 165 253 165;#P connect 4 0 3 0;#P connect 7 0 8 0;#P fasten 4 0 3 1 253 199 445 199;#P pop;#P newobj 271 350 103 196617 p connect_to_decode;#N vpatcher 44 74 644 474;#P inlet 202 30 15 0;#P window setfont "Sans Serif" 9.;#P window linecount 0;#P newex 50 100 27 196617 i 1;#P newex 50 60 27 196617 t b i;#P window linecount 1;#P newex 50 139 363 196617 sprintf script new decode newex 252 153 209 196617 ambidecode~ %ld %ld \;;#P inlet 50 30 15 0;#P outlet 50 168 15 0;#P connect 1 0 3 0;#P connect 3 0 4 0;#P connect 4 0 2 0;#P connect 2 0 0 0;#P connect 5 0 4 1;#P connect 3 1 2 1;#P pop;#P newobj 381 350 72 196617 p new_decode;#N vpatcher 44 74 644 474;#P window setfont "Sans Serif" 9.;#P message 50 50 100 196617 script delete decode;#P inlet 50 30 15 0;#P outlet 50 70 15 0;#P connect 1 0 2 0;#P connect 2 0 0 0;#P pop;#P newobj 479 350 81 196617 p delete_decode;#N vpatcher 44 74 644 474;#P window setfont "Sans Serif" 9.;#P window linecount 0;#P newex 50 57 27 196617 t i b;#P window linecount 1;#P newex 80 152 149 196617 sprintf script delete pass[%ld];#P newex 50 125 40 196617 uzi;#P newex 50 90 27 196617 i 16;#P inlet 50 30 15 0;#P outlet 80 174 15 0;#P connect 1 0 5 0;#P connect 5 1 2 0;#P connect 2 0 3 0;#P connect 5 0 2 1;#P connect 3 2 4 0;#P connect 4 0 0 0;#P pop;#P newobj 667 350 71 196617 p delete_pass;#N vpatcher 44 74 630 402;#P window setfont "Sans Serif" 9.;#P window linecount 0;#P newex 50 51 40 196617 uzi;#P window linecount 1;#P newex 366 96 117 196617 expr 252 + ($i1-1)*38;#P newex 80 121 296 196617 sprintf script new pass[%ld] newex %ld 230 36 196617 pass~;#P inlet 50 23 15 0;#P outlet 80 151 15 0;#P connect 1 0 4 0;#P connect 4 2 2 0;#P connect 2 0 0 0;#P connect 4 2 3 0;#P connect 3 0 2 1;#P pop;#P newobj 585 350 62 196617 p new_pass;#P newex 30 41 48 196617 loadbang;#P newex 88 102 31 196617 == 0;#P outlet 147 395 15 0;#P newex 147 316 531 196617 t i b i b i i;#P inlet 166 44 15 0;#P newex 166 166 27 196617 i;#P newex 147 187 29 196617 gate;#P newex 30 102 32 196617 sel 0;#P newex 30 69 54 196617 dspstate~;#P comment 188 44 100 196617 voices;#P comment 371 227 151 196617 Only apply script if either voices and/or order is changed;#P connect 10 0 2 0;#P connect 2 0 3 0;#P fasten 2 0 9 0 35 92 93 92;#P connect 9 0 4 0;#P connect 4 0 19 0;#P connect 19 0 20 0;#P connect 20 0 7 0;#P connect 7 0 16 0;#P fasten 11 0 8 0 590 381 152 381;#P fasten 12 0 8 0 672 381 152 381;#P fasten 13 0 8 0 484 381 152 381;#P fasten 14 0 8 0 386 381 152 381;#P fasten 15 0 8 0 276 381 152 381;#P connect 16 0 8 0;#P connect 6 0 22 0;#P connect 22 0 18 0;#P fasten 3 0 5 0 35 131 171 131;#P fasten 17 0 5 0 353 149 171 149;#P lcolor 7;#P connect 18 0 5 0;#P connect 5 0 4 1;#P fasten 17 1 19 1 370 201 207 201;#P lcolor 7;#P fasten 20 0 19 2 152 281 344 281 344 220 262 220;#P connect 7 1 15 0;#P fasten 20 1 19 3 200 278 341 278 341 223 317 223;#P fasten 22 1 17 0 239 90 353 90;#P lcolor 7;#P fasten 20 1 15 1 200 310 369 310;#P connect 7 2 14 0;#P fasten 20 1 14 1 200 307 448 307;#P connect 7 3 13 0;#P connect 7 4 11 0;#P connect 7 5 12 0;#P pop;#P newobj 26 85 78 196617 p scripting;#N thispatcher;#Q end;#P newobj 26 109 61 196617 thispatcher;#P outlet 252 382 15 0;#P objectname out[1];#N comlet W - omni;#P inlet 252 29 15 0;#P objectname in[1];#P newex 252 230 36 196617 pass~;#P objectname pass[1];#P newex 290 230 36 196617 pass~;#P objectname pass[2];#P newex 328 230 36 196617 pass~;#P objectname pass[3];#P newex 366 230 36 196617 pass~;#P objectname pass[4];#P newex 404 230 36 196617 pass~;#P objectname pass[5];#P newex 442 230 36 196617 pass~;#P objectname pass[6];#P newex 480 230 36 196617 pass~;#P objectname pass[7];#P newex 518 230 36 196617 pass~;#P objectname pass[8];#P newex 556 230 36 196617 pass~;#P objectname pass[9];#P newex 594 230 36 196617 pass~;#P objectname pass[10];#P newex 632 230 36 196617 pass~;#P objectname pass[11];#P newex 670 230 36 196617 pass~;#P objectname pass[12];#P newex 708 230 36 196617 pass~;#P objectname pass[13];#P newex 746 230 36 196617 pass~;#P objectname pass[14];#P newex 784 230 36 196617 pass~;#P objectname pass[15];#P newex 822 230 36 196617 pass~;#P objectname pass[16];#P newex 252 153 209 196617 ambidecode~ 3 16;#P objectname decode;#P connect 21 0 20 0;#P connect 20 0 19 0;#P connect 21 0 22 0;#P connect 17 0 23 0;#P connect 23 0 0 0;#P connect 22 0 0 0;#P connect 0 0 16 0;#P connect 16 0 24 0;#P connect 24 0 18 0;#P connect 23 1 0 1;#P connect 15 0 24 1;#P connect 23 2 0 2;#P connect 14 0 24 2;#P connect 0 1 15 0;#P connect 23 3 0 3;#P connect 13 0 24 3;#P connect 23 4 0 4;#P connect 12 0 24 4;#P connect 23 5 0 5;#P connect 11 0 24 5;#P connect 0 2 14 0;#P connect 23 6 0 6;#P connect 10 0 24 6;#P connect 23 7 0 7;#P connect 9 0 24 7;#P connect 23 8 0 8;#P connect 8 0 24 8;#P connect 0 3 13 0;#P connect 23 9 0 9;#P connect 7 0 24 9;#P connect 23 10 0 10;#P connect 6 0 24 10;#P connect 23 11 0 11;#P connect 5 0 24 11;#P connect 0 4 12 0;#P connect 23 12 0 12;#P connect 4 0 24 12;#P connect 23 13 0 13;#P connect 3 0 24 13;#P connect 23 14 0 14;#P connect 2 0 24 14;#P connect 0 5 11 0;#P connect 23 15 0 15;#P connect 1 0 24 15;#P connect 0 6 10 0;#P connect 0 7 9 0;#P connect 0 8 8 0;#P connect 0 9 7 0;#P connect 0 10 6 0;#P connect 0 11 5 0;#P connect 0 12 4 0;#P connect 0 13 3 0;#P connect 0 14 2 0;#P connect 0 15 1 0;#P pop;