max v2;
#N vpatcher 455 44 1170 482;
#P origin -31 12;
#P window setfont "Sans Serif" 9.;
#P window linecount 2;
#P newex 40 129 98 196617 jcom.pass /offset_x offset_y;
#P window linecount 1;
#P message 602 159 46 196617 map 0 1;
#P message 553 159 46 196617 map 1 0;
#P comment 23 390 108 196617 RETURNED MESSAGES;
#P comment 151 390 75 196617 VIDEO OUTPUT;
#N vpatcher 1070 44 1638 565;
#P origin 0 9;
#P window setfont "Sans Serif" 9.;
#P window linecount 5;
#P user com 335 301 186 196617 101;
#K set 0 21618 26981 25632 29807 8297 28016 27749 28005 28276 8289 8307 31091 29797 27936 30568 25970 25888 29800 25888 25461 29298 25966 29728 28518 26227 25972 8289 28260 8314 28527 27936 27749 30309 27680 30575 30060 25632 25189 8306 25965 25965 25189 29285 25632 30568 25966 8308 26725 8301 28533 29541 8297 29472 30067 25956 8302 25976 29728 29801 28005 11808 18287 29728 29551 28005 8294 25957 25698 24931 27424 28786 28514 27749 28019 11296 29551 8265 8308 28527 27424 26996 8303 30068 11296 25205 29728 26996 8311 28533 27748 8290 25888 24864 28265 25445 8294 25953 29813 29285 11822;
#K set 100 11808;
#K end;
#P window linecount 0;
#P message 226 358 70 196617 /offset_y \$1;
#P message 133 358 70 196617 /offset_x \$1;
#P message 58 358 54 196617 /zoom \$1;
#P window linecount 1;
#N vpatcher 30 89 301 310;
#P outlet 110 89 15 0;
#P inlet 110 47 15 0;
#P connect 0 0 1 0;
#P pop;
#P newobj 226 296 37 196617 p thru;
#N vpatcher 30 89 301 310;
#P outlet 110 89 15 0;
#P inlet 110 47 15 0;
#P connect 0 0 1 0;
#P pop;
#P newobj 133 296 37 196617 p thru;
#N vpatcher 30 89 301 310;
#P outlet 110 89 15 0;
#P inlet 110 47 15 0;
#P connect 0 0 1 0;
#P pop;
#P newobj 58 296 37 196617 p thru;
#P inlet 82 21 15 0;
#P outlet 133 462 15 0;
#P window linecount 0;
#P newex 141 120 21 196617 t 1;
#P newex 141 96 32 196617 sel 0;
#P newex 103 120 21 196617 t 0;
#P newex 69 159 47 196617 gate 1 1;
#P newex 253 206 73 196617 clip -200 200;
#P newex 253 232 104 196617 scale -200 200 2. 0.;
#P newex 173 181 94 196617 unpack 0 0 0 0 0 0;
#P window linecount 3;
#P user com 192 98 97 196617 26;
#K set 0 18025 28260 8291 26721 28263 25888 26990 8301 28533 29541 8304 28531 26996 26991 28192 29807 8291 28526 29810 28524 8308 26725 8303 26214 29541 29742;
#K end;
#P window linecount 1;
#P newex 69 182 94 196617 unpack 0 0 0 0 0 0;
#P newex 82 96 52 196617 route 2 4;
#P newex 82 73 105 196617 jcom.pwindow.mouse;
#P connect 5 0 13 0;
#P connect 13 0 16 0;
#P connect 8 0 7 0;
#P connect 10 0 7 0;
#P connect 7 0 2 0;
#P connect 12 0 0 0;
#P connect 0 0 1 0;
#P connect 1 1 8 0;
#P connect 1 0 7 1;
#P connect 2 4 14 0;
#P connect 14 0 17 0;
#P connect 16 0 11 0;
#P connect 17 0 11 0;
#P connect 18 0 11 0;
#P connect 0 1 9 0;
#P connect 9 0 10 0;
#P connect 1 1 4 0;
#P connect 2 5 15 0;
#P connect 15 0 18 0;
#P connect 4 5 6 0;
#P connect 6 0 5 0;
#P pop;
#P newobj 28 102 73 196617 p mouse-stuff;
#N comlet Zoom-rotation output;
#P outlet 28 372 15 0;
#P newex 553 127 41 196617 sel 1 0;
#P objectname +[1];
#P newex 416 126 72 196617 pak invert 0 0;
#P newex 553 190 105 196617 jit.dimmap @map 1 0;
#B color 5;
#P objectname jit.dimmap;
#N comlet Zoom-rotation output;
#P outlet 156 372 15 0;
#P newex 28 45 613 196617 jcom.oscroute /pwindow_dumpout /genframe /direct /zoom /angle /mirror /rotate2 /rotate1;
#P comment 45 21 75 196617 INSTRUCTIONS;
#P inlet 28 21 15 0;
#P comment 586 21 75 196617 VIDEO INPUT;
#N comlet Video in;
#P inlet 662 21 15 0;
#P message 312 264 45 196617 theta \$1;
#P newex 312 243 135 196617 expr ($f1/360.)*6.283185;
#P comment 321 226 50 196617 degrees;
#P message 249 264 58 196617 zoom_y \$1;
#P message 188 264 58 196617 zoom_x \$1;
#P newex 156 301 42 196617 jit.rota;
#P connect 8 0 10 0;
#P connect 10 0 16 0;
#P fasten 16 0 15 0 33 354 33 354;
#P connect 16 0 21 0;
#P connect 10 8 21 0;
#P fasten 21 1 0 0 89 229 161 229;
#P fasten 21 0 0 0 45 229 161 229;
#P fasten 12 0 0 0 558 295 161 295;
#P fasten 5 0 0 0 317 291 161 291;
#P fasten 1 0 0 0 193 291 161 291;
#P fasten 2 0 0 0 254 291 161 291;
#P fasten 10 2 0 0 183 198 161 198;
#P fasten 10 1 0 0 108 82 161 82;
#P connect 0 0 11 0;
#P fasten 10 3 1 0 258 221 193 221;
#P fasten 10 3 2 0 258 221 254 221;
#P fasten 10 4 4 0 333 193 317 193;
#P connect 4 0 5 0;
#P connect 10 5 13 1;
#P connect 10 6 13 2;
#P connect 10 7 14 0;
#P connect 14 0 19 0;
#P connect 13 0 12 0;
#P fasten 20 0 12 0 607 180 558 180;
#P connect 19 0 12 0;
#P fasten 6 0 12 0 667 183 558 183;
#P fasten 14 1 20 0 573 151 607 151;
#P pop;
