max v2;#N vpatcher 273 93 956 361;#P window setfont "Sans Serif" 9.;#P newex 480 78 23 196617 - 1;#P newex 428 76 23 196617 - 1;#P newex 378 76 23 196617 - 1;#P message 533 96 45 196617 mode \$1;#P message 479 96 45 196617 mask \$1;#P message 426 96 51 196617 target \$1;#P message 378 96 39 196617 key \$1;#P message 273 88 43 196617 blue \$1;#P message 221 89 50 196617 green \$1;#P message 169 89 40 196617 red \$1;#N comlet video input 2 (background);#P inlet 117 135 15 0;#P message 319 110 220 196617 alphatol \$1 \, redtol \$1 \, greentol \$1 \, bluetol \$1;#N comlet video input 2 (background);#P inlet 99 135 15 0;#N thispatcher;#Q end;#P newobj 13 98 60 196617 thispatcher;#P newex 13 77 39 196617 t front;#N comlet video input 1 (key);#P inlet 83 135 15 0;#P inlet 13 38 15 0;#P comment 45 190 75 196617 VIDEO OUTPUT;#P outlet 30 190 15 0;#P newex 30 158 100 196617 jit.keyscreen;#P newex 13 57 586 196617 jcom.oscroute /open /direct /preview /key/red /key/green /key/blue /tolerance /key /target /mask /mode;#P connect 4 0 0 0;#P fasten 0 0 6 0 18 75 18 75;#P connect 6 0 7 0;#P fasten 5 0 1 0 88 153 35 153;#P fasten 9 0 1 0 324 133 35 133;#P fasten 11 0 1 0 174 131 35 131;#P fasten 12 0 1 0 226 133 35 133;#P fasten 13 0 1 0 278 130 35 130;#P fasten 14 0 1 0 383 157 35 157;#P fasten 15 0 1 0 431 157 35 157;#P fasten 16 0 1 0 484 157 35 157;#P fasten 17 0 1 0 538 126 35 126;#P fasten 0 1 1 0 70 116 35 116;#P connect 1 0 2 0;#P fasten 8 0 1 1 104 156 80 156;#P connect 10 0 1 2;#P connect 0 3 11 0;#P connect 0 4 12 0;#P connect 0 5 13 0;#P connect 0 6 9 0;#P connect 0 7 18 0;#P connect 18 0 14 0;#P connect 19 0 15 0;#P connect 0 8 19 0;#P connect 20 0 16 0;#P connect 0 9 20 0;#P connect 0 10 17 0;#P pop;