max v2;#N vpatcher 30 80 729 413;#P origin -31 11;#P window setfont "Sans Serif" 9.;#P message 42 151 50 196617 interp \$1;#P toggle 42 133 15 0;#P newex 451 178 226 196617 jit.gl.videoplane $0_window @scale 1.333 1. 1.;#P toggle 257 136 15 0;#P message 257 154 45 196617 sync \$1;#P toggle 184 136 15 0;#P newex 145 135 35 196617 sel 27;#P message 184 154 68 196617 fullscreen \$1;#P window linecount 2;#P newex 102 178 149 196617 jit.window $0_window @depthbuffer 1 @fsmenubar 0;#P window linecount 1;#P newex 100 135 40 196617 key;#P newex 321 149 55 196617 t b b erase;#P newex 321 178 121 196617 jit.gl.render $0_window;#P comment 42 289 108 196617 RETURNED MESSAGES;#N comlet Returned messages;#P outlet 44 269 15 0;#P newex 42 60 186 196617 jcom.oscroute /interpolate /fullscreen;#P comment 59 36 75 196617 INSTRUCTIONS;#N comlet Instructions;#P inlet 42 36 15 0;#P comment 373 38 75 196617 VIDEO INPUT;#N comlet Video input;#P inlet 451 38 15 0;#P connect 2 0 4 0;#P connect 4 0 17 0;#P connect 17 0 18 0;#P fasten 18 0 10 0 47 173 107 173;#P fasten 11 0 10 0 189 173 107 173;#P fasten 14 0 10 0 262 173 107 173;#P fasten 9 0 12 0 105 154 142 154 142 133 150 133;#P fasten 12 0 13 0 150 153 181 153 181 133 189 133;#P connect 4 1 13 0;#P connect 13 0 11 0;#P connect 15 0 14 0;#P connect 0 0 8 0;#P fasten 8 2 7 0 370 172 326 172;#P connect 8 0 7 0;#P connect 0 0 16 0;#P pop;