max v2;#N vpatcher 518 58 825 294;#P window setfont "Sans Serif" 9.;#P window linecount 1;#N in 1;#P newobj 14 53 25 196617 in 1;#N out~ 2;#P newobj 151 160 39 196617 out~ 2;#N out~ 1;#P newobj 61 160 39 196617 out~ 1;#N in~ 2;#P newobj 162 94 33 196617 in~ 2;#P newex 151 132 50 196617 cascade~;#N in~ 1;#P newobj 72 94 33 196617 in~ 1;#P newex 61 132 50 196617 cascade~;#N in 2;#P newobj 61 52 25 196617 in 2;#P connect 0 0 1 0;#P connect 2 0 1 0;#P connect 1 0 5 0;#P fasten 0 0 3 0 66 84 156 84;#P connect 4 0 3 0;#P connect 3 0 6 0;#P pop;