max v2;#N vpatcher 441 44 1001 659;#P origin -22 0;#P window setfont "Sans Serif" 9.;#P window linecount 2;#P newex 244 408 209 196617 jcom.return accel/y @description "Acceleration x value from Phidgets device";#P window linecount 1;#P newex 220 239 58 196617 r jcom.init;#P button 45 108 15 0;#P number 191 107 35 9 0 0 0 3 0 0 0 221 221 221 222 222 222 0 0 0;#P message 191 153 91 196617 setSampleRate \$1;#P newex 191 325 45 196617 route ax;#P newex 261 357 61 196617 print serial;#P newex 191 357 63 196617 unpack 0. 0.;#P message 45 153 54 196617 reconnect;#P message 220 261 50 196617 getSerial;#P newex 191 301 111 196617 PhidgetAccelerometer;#P comment 232 108 36 196617 in ms;#P comment 203 128 153 196617 -1 gives the device sample rate;#P window linecount 2;#P newex 30 409 210 196617 jcom.return accel/x @description "Acceleration x value from Phidgets device";#P window linecount 1;#P newex 118 105 41 196617 sel 1 0;#P message 154 153 29 196617 stop;#P message 118 153 33 196617 start;#P newex 45 57 229 196617 jcom.oscroute /reconnect /status /sample_rate;#P inlet 45 33 15 0;#P fasten 11 0 5 0 196 391 35 391;#P connect 0 0 1 0;#P connect 1 0 16 0;#P connect 16 0 10 0;#P connect 1 1 4 0;#P connect 4 0 2 0;#P connect 4 1 3 0;#P connect 1 2 15 0;#P connect 15 0 14 0;#P connect 9 0 8 0;#P connect 10 0 8 0;#P connect 14 0 8 0;#P connect 2 0 8 0;#P connect 3 0 8 0;#P connect 8 0 13 0;#P connect 13 0 11 0;#P connect 17 0 9 0;#P connect 11 1 18 0;#P fasten 13 1 12 0 231 349 266 349;#P pop;