max v2;#N vpatcher 267 112 963 616;#P origin -22 0;#P window setfont "Sans Serif" 9.;#P window linecount 1;#P newex 470 334 27 196617 / 0.;#P number 487 304 35 9 0 0 0 3 0 0 0 221 221 221 222 222 222 0 0 0;#P message 538 260 26 196617 255;#P message 487 261 40 196617 65535;#P newex 487 228 113 196617 sel windows macintosh;#P newex 487 140 58 196617 r jcom.init;#P newex 487 199 47 196617 route os;#P newex 487 166 124 196617 js jcom.js_systeminfo.js;#P newex 393 76 58 196617 r jcom.init;#P newex 71 293 91 196617 send $1_feedback;#P newex 71 403 338 196617 jcom.return $1 /hi/n @description "Data from Human Interface device.";#P newex 71 261 101 196617 sprintf /hi/%ld %ld;#P newex 162 206 27 196617 hi;#P user umenu 72 137 100 196647 1 64 153 1;#X add "WingMan Attack 2";#X add "USB Optical Mouse";#X add Trackpad;#X add Keyboard;#P outlet 179 348 15 0;#P newex 232 124 41 196617 sel 1 0;#P message 247 170 35 196617 poll 0;#P message 202 170 41 196617 poll 10;#P outlet 71 348 15 0;#P newex 165 76 212 196617 jcom.oscroute /device_menu /hi_on /hi_init;#P inlet 165 52 15 0;#P newex 299 124 30 196617 t b b;#P message 299 170 33 196617 menu;#P message 330 170 25 196617 info;#P window linecount 7;#P comment 215 276 220 196617 It would be nice to put in some magic so that it could output some more human-friendly information \, like x-axis \, fire-button \, etc. It would also be interesting to normalize the data \, but it seems like most devices on mac return values in the range 0-255 \, while on windows it is often up to 64 0.;#P connect 12 0 13 0;#P connect 13 0 15 0;#P fasten 12 1 11 0 184 232 56 232 56 124 77 124;#P fasten 5 0 11 0 170 115 77 115;#P fasten 2 0 12 0 304 195 167 195;#P fasten 1 0 12 0 335 195 167 195;#P fasten 8 0 12 0 252 195 167 195;#P fasten 7 0 12 0 207 195 167 195;#P connect 11 1 12 0;#P connect 4 0 5 0;#P connect 12 1 10 0;#P connect 9 0 7 0;#P connect 5 1 9 0;#P connect 9 1 8 0;#P fasten 16 0 3 0 398 120 304 120;#P connect 5 2 3 0;#P connect 3 0 2 0;#P connect 3 1 1 0;#P connect 19 0 17 0;#P connect 17 0 18 0;#P connect 18 0 20 0;#P connect 20 0 21 0;#P connect 22 0 23 0;#P connect 21 0 23 0;#P connect 23 0 24 1;#P connect 20 1 22 0;#P pop;