max v2;
#N vpatcher 114 474 556 678;
#P window setfont "Sans Serif" 9.;
#P number 324 89 35 9 0 0 0 139 0 0 0 221 221 221 222 222 222 0 0 0;
#P number 248 89 35 9 0 0 0 139 0 0 0 221 221 221 222 222 222 0 0 0;
#P window linecount 1;
#P newex 248 65 163 9109513 jcom.oscroute /delay/left /delay/right;
#P newex 142 121 100 9109513 delay~ 1000000 512 1;
#P newex 19 121 100 9109513 delay~ 1000000 512 1;
#N in 1;
#P newobj 248 40 25 9109513 in 1;
#N out~ 2;
#P newobj 142 146 35 9109513 out~ 2;
#N out~ 1;
#P newobj 19 146 35 9109513 out~ 1;
#N in~ 2;
#P newobj 142 40 31 9109513 in~ 2;
#N in~ 1;
#P newobj 19 40 31 9109513 in~ 1;
#P connect 0 0 5 0;
#P connect 5 0 2 0;
#P fasten 8 0 5 1 253 109 114 109;
#P connect 1 0 6 0;
#P connect 6 0 3 0;
#P fasten 9 0 6 1 329 115 237 115;
#P connect 4 0 7 0;
#P connect 7 0 8 0;
#P connect 7 1 9 0;
#P pop;
