max v2;
#N vpatcher 538 91 1253 529;
#P origin -31 12;
#P window setfont "Sans Serif" 9.;
#P window linecount 1;
#P newex 2 130 152 196617 jcom.pass /offset_x offset_y;
#P message 602 159 46 196617 map 0 1;
#P message 553 159 46 196617 map 1 0;
#P comment 23 390 108 196617 RETURNED MESSAGES;
#P comment 151 390 75 196617 VIDEO OUTPUT;
#N comlet Zoom-rotation output;
#P outlet 28 372 15 0;
#P newex 553 127 41 196617 sel 1 0;
#P objectname +[1];
#P newex 416 126 72 196617 pak invert 0 0;
#P newex 553 190 105 196617 jit.dimmap @map 1 0;
#B color 5;
#P objectname jit.dimmap;
#N comlet Zoom-rotation output;
#P outlet 156 372 15 0;
#P newex 28 45 615 196617 jcom.oscroute /dummy /genframe /direct /zoom /angle /mirror /rotate2 /rotate1;
#P comment 45 21 75 196617 INSTRUCTIONS;
#P inlet 28 21 15 0;
#P comment 586 21 75 196617 VIDEO INPUT;
#N comlet Video in;
#P inlet 662 21 15 0;
#P message 312 264 45 196617 theta \$1;
#P newex 312 243 135 196617 expr ($f1/360.)*6.283185;
#P comment 321 226 50 196617 degrees;
#P message 249 264 58 196617 zoom_y \$1;
#P message 188 264 58 196617 zoom_x \$1;
#P newex 156 301 42 196617 jit.rota;
#P connect 10 8 20 0;
#P connect 8 0 10 0;
#P fasten 10 2 0 0 183 198 161 198;
#P fasten 10 1 0 0 108 82 161 82;
#P fasten 2 0 0 0 254 291 161 291;
#P fasten 1 0 0 0 193 291 161 291;
#P fasten 5 0 0 0 317 291 161 291;
#P fasten 12 0 0 0 558 295 161 295;
#P fasten 20 0 0 0 7 229 161 229;
#P fasten 20 1 0 0 78 229 161 229;
#P connect 0 0 11 0;
#P fasten 10 3 1 0 258 221 193 221;
#P fasten 10 3 2 0 258 221 254 221;
#P fasten 10 4 4 0 333 193 317 193;
#P connect 4 0 5 0;
#P connect 10 5 13 1;
#P connect 10 6 13 2;
#P connect 10 7 14 0;
#P connect 14 0 18 0;
#P fasten 6 0 12 0 667 183 558 183;
#P connect 18 0 12 0;
#P fasten 19 0 12 0 607 180 558 180;
#P connect 13 0 12 0;
#P fasten 14 1 19 0 573 151 607 151;
#P pop;
