max v2;
#N vpatcher 502 449 781 644;
#P origin 0 -27;
#P window setfont "Sans Serif" 9.;
#P window linecount 1;
#P newex 22 79 140 9109513 jcom.pass @stripnonmatches 1;
#P comment 141 32 75 9109513 VIDEO INPUT;
#P inlet 170 51 15 0;
#P inlet 22 41 15 0;
#P comment 37 140 75 9109513 VIDEO OUTPUT;
#P outlet 22 140 15 0;
#P newex 22 118 39 9109513 jit.avg4;
#P connect 3 0 6 0;
#P connect 6 0 0 0;
#P fasten 4 0 0 0 175 110 27 110;
#P lcolor 8;
#P connect 0 0 1 0;
#P pop;
