max v2;#N vpatcher 90 67 927 786;#P origin -22 33;#P window setfont "Sans Serif" 9.;#P window linecount 1;#P newex 594 500 54 196617 prepend 8;#P newex 581 473 54 196617 prepend 7;#P newex 568 443 54 196617 prepend 6;#P newex 555 413 54 196617 prepend 5;#P newex 540 386 54 196617 prepend 4;#P newex 529 358 54 196617 prepend 3;#P newex 516 335 54 196617 prepend 2;#P newex 503 274 107 196617 unpack 0 0 0 0 0 0 0 0;#P window linecount 4;#P newex 503 530 144 196617 jcom.return analog/* @description "Analog values from n sensors connected to a Phidgets InterfaceKit";#P window linecount 1;#P newex 503 307 54 196617 prepend 1;#P newex 423 497 54 196617 prepend 8;#P newex 410 470 54 196617 prepend 7;#P newex 397 442 54 196617 prepend 6;#P newex 384 410 54 196617 prepend 5;#P newex 369 383 54 196617 prepend 4;#P newex 358 355 54 196617 prepend 3;#P newex 345 332 54 196617 prepend 2;#P newex 497 85 166 196617 route 1 2 3 4 5 6 7 8;#P toggle 630 111 15 0;#P toggle 611 111 15 0;#P toggle 592 111 15 0;#P toggle 573 111 15 0;#P toggle 554 111 15 0;#P toggle 535 111 15 0;#P toggle 516 111 15 0;#P toggle 497 111 15 0;#P newex 478 132 168 196617 pak setoutput 0 0 0 0 0 0 0 0;#P newex 332 271 107 196617 unpack 0 0 0 0 0 0 0 0;#P newex 236 175 58 196617 r jmod.init;#P button 39 100 15 0;#P number 185 100 35 9 0 0 0 3 0 0 0 221 221 221 222 222 222 0 0 0;#P message 185 127 91 196617 setSampleRate \$1;#P newex 332 197 63 196617 route di ai;#P newex 370 221 61 196617 print serial;#P message 39 127 54 196617 reconnect;#P message 236 197 50 196617 getSerial;#P newex 332 173 95 196617 PhidgetInterfaceKit;#P comment 226 100 36 196617 in ms;#P comment 267 100 153 196617 -1 gives the device sample rate;#P window linecount 4;#P newex 332 529 151 196617 jcom.return digital/* @description "Digital values from n sensors connected to a Phidgets InterfaceKit";#P window linecount 1;#P newex 332 304 54 196617 prepend 1;#P newex 112 100 41 196617 sel 1 0;#P message 148 127 29 196617 stop;#P message 112 127 33 196617 start;#P newex 39 72 229 196617 jcom.oscroute /reconnect /status /sample_rate;#P inlet 39 51 15 0;#P connect 0 0 1 0;#P connect 1 0 16 0;#P connect 16 0 11 0;#P connect 1 1 4 0;#P connect 4 0 2 0;#P fasten 4 1 3 0 132 122 153 122;#P connect 1 2 15 0;#P connect 15 0 14 0;#P connect 17 0 10 0;#P fasten 19 0 9 0 483 162 337 162;#P connect 10 0 9 0;#P fasten 11 0 9 0 44 157 337 157;#P fasten 14 0 9 0 190 157 337 157;#P fasten 2 0 9 0 117 157 337 157;#P fasten 3 0 9 0 153 157 337 157;#P connect 9 0 13 0;#P connect 13 0 18 0;#P connect 18 0 5 0;#P connect 5 0 6 0;#P connect 29 0 6 0;#P connect 30 0 6 0;#P connect 31 0 6 0;#P connect 32 0 6 0;#P connect 33 0 6 0;#P connect 34 0 6 0;#P connect 35 0 6 0;#P connect 18 1 29 0;#P connect 18 2 30 0;#P connect 18 3 31 0;#P connect 13 2 12 0;#P connect 18 4 32 0;#P connect 18 5 33 0;#P connect 18 6 34 0;#P connect 18 7 35 0;#P connect 28 0 20 0;#P connect 20 0 19 1;#P fasten 13 1 38 0 356 245 508 245;#P connect 38 0 36 0;#P connect 45 0 37 0;#P connect 44 0 37 0;#P connect 43 0 37 0;#P connect 42 0 37 0;#P connect 41 0 37 0;#P connect 40 0 37 0;#P connect 39 0 37 0;#P connect 36 0 37 0;#P connect 28 1 21 0;#P connect 21 0 19 2;#P connect 38 1 39 0;#P connect 38 2 40 0;#P connect 28 2 22 0;#P connect 22 0 19 3;#P connect 38 3 41 0;#P connect 28 3 23 0;#P connect 23 0 19 4;#P connect 38 4 42 0;#P connect 38 5 43 0;#P connect 28 4 24 0;#P connect 24 0 19 5;#P connect 38 6 44 0;#P connect 28 5 25 0;#P connect 25 0 19 6;#P connect 38 7 45 0;#P connect 28 6 26 0;#P connect 26 0 19 7;#P connect 28 7 27 0;#P connect 27 0 19 8;#P pop;