max v2;
#N vpatcher 83 34 889 632;
#P origin -22 33;
#P window setfont "Sans Serif" 9.;
#P window linecount 2;
#P newex 31 447 231 9109513 jmod.return $1 /analog/n @description "Analog values from n sensors connected to a Phidgets InterfaceKit";
#P window linecount 1;
#P newex 594 500 82 9109513 prepend /analog/8;
#P newex 581 473 82 9109513 prepend /analog/7;
#P newex 568 445 82 9109513 prepend /analog/6;
#P newex 555 413 82 9109513 prepend /analog/5;
#P newex 540 386 82 9109513 prepend /analog/4;
#P newex 529 358 82 9109513 prepend /analog/3;
#P newex 516 335 82 9109513 prepend /analog/2;
#P newex 503 274 107 9109513 unpack 0 0 0 0 0 0 0 0;
#P newex 503 530 91 9109513 send $1_feedback;
#P newex 503 307 82 9109513 prepend /analog/1;
#P newex 423 497 79 9109513 prepend /digital/8;
#P newex 410 470 79 9109513 prepend /digital/7;
#P newex 397 442 79 9109513 prepend /digital/6;
#P newex 384 410 79 9109513 prepend /digital/5;
#P newex 369 383 79 9109513 prepend /digital/4;
#P newex 358 355 79 9109513 prepend /digital/3;
#P newex 345 332 79 9109513 prepend /digital/2;
#P newex 497 85 166 9109513 route 1 2 3 4 5 6 7 8;
#P toggle 630 111 15 0;
#P toggle 611 111 15 0;
#P toggle 592 111 15 0;
#P toggle 573 111 15 0;
#P toggle 554 111 15 0;
#P toggle 535 111 15 0;
#P toggle 516 111 15 0;
#P toggle 497 111 15 0;
#P newex 478 132 168 9109513 pak setoutput 0 0 0 0 0 0 0 0;
#P newex 332 271 107 9109513 unpack 0 0 0 0 0 0 0 0;
#P newex 236 175 58 9109513 r jmod.init;
#P button 39 100 15 0;
#P number 185 100 35 9 0 0 0 139 0 0 0 221 221 221 222 222 222 0 0 0;
#P message 185 127 91 9109513 setSampleRate \$1;
#P newex 332 197 49 9109513 route di ai;
#P newex 370 221 61 9109513 print serial;
#P message 39 127 54 9109513 reconnect;
#P message 236 197 50 9109513 getSerial;
#P newex 332 173 95 9109513 PhidgetInterfaceKit;
#P comment 226 100 36 9109513 in ms;
#P comment 267 100 153 9109513 -1 gives the device sample rate;
#P newex 332 527 91 9109513 send $1_feedback;
#P window linecount 2;
#P newex 31 411 231 9109513 jmod.return $1 /digital/n @description "Digital values from n sensors connected to a Phidgets InterfaceKit";
#P window linecount 1;
#P newex 332 304 79 9109513 prepend /digital/1;
#P newex 112 100 41 9109513 sel 1 0;
#P message 148 127 29 9109513 stop;
#P message 112 127 33 9109513 start;
#P newex 39 72 229 9109513 jmod.oscroute /reconnect /status /sample_rate;
#P inlet 39 51 15 0;
#P connect 0 0 1 0;
#P connect 1 0 17 0;
#P connect 17 0 12 0;
#P connect 1 1 4 0;
#P connect 4 0 2 0;
#P fasten 4 1 3 0 132 122 153 122;
#P connect 1 2 16 0;
#P connect 16 0 15 0;
#P connect 18 0 11 0;
#P fasten 3 0 10 0 153 157 337 157;
#P fasten 2 0 10 0 117 157 337 157;
#P fasten 15 0 10 0 190 157 337 157;
#P fasten 12 0 10 0 44 157 337 157;
#P connect 11 0 10 0;
#P fasten 20 0 10 0 483 162 337 162;
#P connect 10 0 14 0;
#P connect 14 0 19 0;
#P connect 19 0 5 0;
#P connect 5 0 7 0;
#P connect 36 0 7 0;
#P connect 35 0 7 0;
#P connect 34 0 7 0;
#P connect 33 0 7 0;
#P connect 32 0 7 0;
#P connect 31 0 7 0;
#P connect 30 0 7 0;
#P connect 19 1 30 0;
#P connect 19 2 31 0;
#P connect 19 3 32 0;
#P connect 14 2 13 0;
#P connect 19 4 33 0;
#P connect 19 5 34 0;
#P connect 19 6 35 0;
#P connect 19 7 36 0;
#P connect 29 0 21 0;
#P connect 21 0 20 1;
#P fasten 14 1 39 0 356 245 508 245;
#P connect 39 0 37 0;
#P connect 46 0 38 0;
#P connect 45 0 38 0;
#P connect 44 0 38 0;
#P connect 43 0 38 0;
#P connect 42 0 38 0;
#P connect 41 0 38 0;
#P connect 40 0 38 0;
#P connect 37 0 38 0;
#P connect 29 1 22 0;
#P connect 22 0 20 2;
#P connect 39 1 40 0;
#P connect 39 2 41 0;
#P connect 29 2 23 0;
#P connect 23 0 20 3;
#P connect 39 3 42 0;
#P connect 29 3 24 0;
#P connect 24 0 20 4;
#P connect 39 4 43 0;
#P connect 39 5 44 0;
#P connect 29 4 25 0;
#P connect 25 0 20 5;
#P connect 39 6 45 0;
#P connect 29 5 26 0;
#P connect 26 0 20 6;
#P connect 39 7 46 0;
#P connect 29 6 27 0;
#P connect 27 0 20 7;
#P connect 29 7 28 0;
#P connect 28 0 20 8;
#P pop;
