max v2;#N vpatcher 26 44 1219 788;#P origin 0 -26;#P window setfont "Sans Serif" 9.;#N vpatcher 20 74 206 227;#P window setfont "Sans Serif" 9.;#P newex 50 76 43 196617 pak 0 0;#P newex 50 50 38 196617 * 100;#P objectname *[3];#P newex 92 50 38 196617 * 100;#P objectname *[2];#P inlet 92 30 15 0;#P inlet 50 30 15 0;#P outlet 50 98 15 0;#P connect 1 0 4 0;#P connect 4 0 5 0;#P connect 5 0 0 0;#P connect 3 0 5 1;#P connect 2 0 3 0;#P pop;#P hidden newobj 282 243 41 196617 p scale;#P window linecount 4;#P hidden newex 282 304 158 196617 jcom.parameter file_loop_points @type msg_list @repetitions 0 @description "List of low and high loop point values";#P objectname file_loop_points[1];#P hidden toggle 482 306 15 0;#P user rslider 102 122 85 15 1763 1 0 0 0;#P objectname file_loop_points;#P window linecount 1;#P hidden newex 470 580 124 196617 pvar synth_noise_size_x;#P hidden newex 472 660 124 196617 pvar synth_noise_size_y;#P window linecount 3;#P hidden newex 472 681 245 196617 jcom.parameter synth_noise_size_y @type msg_int @repetitions 0 @ramp 1 @range 1 480 @clipmode low @description "x size of noise matrix";#P objectname synth_noise_size_y[1];#P window linecount 1;#P hidden newex 802 459 78 196617 pvar file_audio;#P window linecount 2;#P hidden newex 802 481 312 196617 jcom.parameter file_audio @type msg_toggle @repetitions 0 @description "Turn audio in the video file on or off";#P objectname file_audio[1];#P user jsui 75 122 25 15 1 0 0 jcom.jsui_texttoggle.js audio audio;#P objectname file_audio;#P window linecount 1;#P hidden message 191 119 39 196617 set \$1;#P window linecount 3;#P hidden newex 470 601 244 196617 jcom.parameter synth_noise_size_x @type msg_int @repetitions 0 @ramp 1 @range 1 640 @clipmode low @description "x size of noise matrix";#P objectname synth_noise_size_x[1];#P window linecount 1;#P comment 106 265 14 196617 x;#P number 120 263 32 9 1 0 8225 3 0 0 0 221 221 221 222 222 222 0 0 0;#P objectname synth_noise_size_y;#P comment 49 265 30 196617 Size;#P number 78 263 32 9 1 0 8225 3 0 0 0 221 221 221 222 222 222 0 0 0;#P objectname synth_noise_size_x;#P number 158 241 32 9 1 4 8227 3 0 0 0 221 221 221 222 222 222 0 0 0;#P objectname synth_noise_planes;#P hidden newex 101 170 50 196617 qlim 100;#P hidden message 360 118 83 196617 setminmax 0 \$1;#P hidden newex 317 95 97 196617 route time duration;#P hidden newex 802 44 20 196617 t b;#P hidden newex 802 255 20 196617 t b;#P user jsui 2 122 25 15 1 0 0 jsui_textbutton.js open;#P objectname file_open;#P hidden newex 802 672 89 196617 pvar file_counter;#P window linecount 2;#P hidden newex 802 694 253 196617 jcom.parameter file_counter @type msg_int @repetitions 0 @description "Video file time counter";#P objectname file_counter[1];#P window linecount 1;#P hidden newex 802 604 74 196617 pvar file_rate;#P window linecount 2;#P hidden newex 802 626 350 196617 jcom.parameter file_rate @type msg_float @repetitions 0 @ramp 1 @range -2. 2. @clipmode none @description "Playback rate of video file";#P objectname file_rate[1];#P window linecount 1;#P hidden newex 802 533 73 196617 pvar file_size;#P window linecount 2;#P hidden newex 802 555 280 196617 jcom.parameter file_size @type msg_int @repetitions 0 @description "Select size of video playback";#P objectname file_size[1];#P window linecount 1;#P hidden newex 482 285 73 196617 pvar file_loop;#P window linecount 2;#P hidden newex 482 325 252 196617 jcom.parameter file_loop @type msg_toggle @repetitions 0 @description "Turn looping on or off";#P objectname file_loop[1];#P window linecount 1;#P hidden newex 802 322 65 196617 pvar file_on;#P window linecount 2;#P hidden newex 802 344 244 196617 jcom.parameter file_on @type msg_toggle @repetitions 0 @description "Turn video on or off";#P objectname file_on[1];#P window linecount 1;#P hidden newex 802 234 75 196617 pvar file_open;#P hidden newex 802 276 371 196617 jcom.message file_open @description "Open dialog to select video file";#P objectname jcom.parameter[2];#P hidden newex 15 422 122 196617 pvar synth_noise_planes;#P window linecount 2;#P hidden newex 15 444 325 196617 jcom.parameter synth_noise_planes @type msg_int @range 1 4 @clipmode both @ramp 0 @description "Number of matrix planes";#P objectname synth_noise_planes[1];#P window linecount 1;#P hidden newex 15 488 113 196617 pvar synth_noise_rate;#P window linecount 2;#P hidden newex 15 510 380 196617 jcom.parameter synth_noise_rate @type msg_int @ramp 1 @repetitions 0 @range 2 1000 @clipmode low @description "Metro speed for noise";#P objectname synth_noise_rate[1];#P window linecount 1;#P comment 51 243 30 196617 Rate;#P comment 123 243 39 196617 Planes;#P user jsui 9 377 25 15 1 0 0 jcom.jsui_texttoggle.js color color;#P objectname synth_color_on[1];#P user swatch 49 361 128 32;#P objectname synth_color[1];#P user fpic -1 337 192 64 jcom.bg.metal.1U-half.pct 0 0 0 0. 0 0 0;#P number 80 241 32 9 2 0 8225 3 0 0 0 221 221 221 222 222 222 0 0 0;#P objectname synth_noise_rate;#P hidden newex 802 161 91 196617 pvar camera_size;#P window linecount 2;#P hidden newex 802 181 225 196617 jcom.parameter camera_size @type msg_int @description "Resolution of captured image";#P objectname camera_size[1];#P user umenu 11 39 55 196647 1 64 55 1;#X add 640 480;#X add 320 240;#X add 160 120;#X add 80 60;#P objectname camera_size;#P window linecount 1;#P hidden newex 802 23 109 196617 pvar camera_settings;#P hidden newex 802 65 367 196617 jcom.message camera_settings @description "Open dialog for camera settings";#P objectname jcom.parameter.mxt[1];#P user jsui 36 22 35 15 1 0 0 jsui_textbutton.js settings;#P objectname camera_settings;#P number 191 143 51 9 0 0 8224 3 0 0 0 221 221 221 222 222 222 0 0 0;#P objectname file_counter;#P hidden message 191 168 48 196617 set 1 \$1;#P flonum 21 142 32 9 0 0 8224 3 0 0 0 221 221 221 222 222 222 0 0 0;#P objectname file_rate;#P comment 2 144 29 196617 rate;#P user multiSlider 101 143 85 15 0. 253. 1 2920 47 0 0 2 0 0 1;#M frgb 91 91 91;#M brgb 173 173 173;#M rgb2 127 127 127;#M rgb3 0 0 0;#M rgb4 37 52 91;#M rgb5 74 105 182;#M rgb6 112 158 18;#M rgb7 149 211 110;#M rgb8 187 9 201;#M rgb9 224 62 37;#M rgb10 7 114 128;#P user jsui 49 122 25 15 1 0 0 jcom.jsui_texttoggle.js loop loop;#P objectname file_loop;#P user jsui 28 122 20 15 1 0 0 jcom.jsui_texttoggle.js on off;#P objectname file_on;#P user umenu 47 143 46 196647 1 64 159 1;#X add native size;#X add 640 480;#X add 320 240;#X add 160 120;#X add 80 60;#P objectname file_size;#P user umenu 82 40 100 196647 1 64 56 1;#P objectname camera;#P user umenu 82 22 100 196647 1 64 38 1;#P objectname capture_card;#P user jsui 11 22 20 15 1 0 0 jcom.jsui_texttoggle.js on off;#P objectname camera_on;#P hidden newex 15 620 104 196617 pvar synth_color_on;#P window linecount 2;#P hidden newex 15 642 387 196617 jcom.parameter synth_color_on @type msg_toggle @range 0 1 @clipmode both @repetitions 0 @ramp 0 @description "Turn video color synth on or off";#P objectname synth_color_on;#P window linecount 1;#P hidden newex 15 558 104 196617 pvar synth_noise_on;#P window linecount 2;#P hidden newex 15 580 381 196617 jcom.parameter synth_noise_on @type msg_toggle @range 0 1 @clipmode both @repetitions 0 @ramp 0 @description "Turn video noise on or off";#P objectname synth_noise_on[1];#P window linecount 1;#P hidden newex 15 683 88 196617 pvar synth_color;#P hidden newex 15 705 404 196617 jcom.parameter synth_color @type msg_generic @description "List of RGB colors";#P objectname synth_color;#P user jsui 9 250 25 15 1 0 0 jcom.jsui_texttoggle.js noise noise;#P objectname synth_noise_on;#P user fpic -1 220 192 64 jcom.bg.metal.1U-half.pct 0 0 0 0. 0 0 0;#P hidden message 364 59 72 196617 offset 0 -240;#N thispatcher;#Q end;#P hidden newobj 210 83 61 196617 thispatcher;#P hidden message 287 58 72 196617 offset 0 -120;#P hidden message 210 58 66 196617 offset 0 -19;#P hidden newex 210 36 243 196617 sel 0 1 2;#P hidden inlet 210 15 15 0;#P hidden newex 802 104 83 196617 pvar camera_on;#P hidden newex 802 124 406 196617 jcom.parameter camera_on @type msg_toggle @description "Turn camera on";#P objectname camera_on[1];#P user fpic -1 100 192 64 jcom.bg.metal.1U-half.pct 0 0 0 0. 0 0 0;#P user fpic -1 -1 192 64 jcom.bg.metal.1U-half.pct 0 0 0 0. 0 0 0;#P window linecount 3;#P hidden comment 514 136 175 196617 This almost works. There is a problem with setting max values after looping is turned off.;#P window linecount 1;#P hidden newex 282 211 115 196617 pvar file_loop_points 2;#P hidden newex 387 269 21 196617 t 1;#P hidden newex 387 243 76 196617 speedlim 1000;#P hidden newex 282 181 72 196617 pak set 0 100;#P hidden newex 282 155 32 196617 sel 0;#P hidden newex 360 157 37 196617 / 100;#P objectname /[2];#P hidden message 360 181 43 196617 size \$1;#P hidden fasten 51 0 52 0 20 475 12 475 12 418 20 418;#P hidden connect 52 0 51 0;#P hidden fasten 49 0 50 0 20 541 12 541 12 484 20 484;#P hidden connect 50 0 49 0;#P hidden fasten 22 0 23 0 20 611 12 611 12 554 20 554;#P hidden connect 23 0 22 0;#P hidden fasten 24 0 25 0 20 673 12 673 12 616 20 616;#P hidden connect 25 0 24 0;#P hidden connect 21 0 20 0;#P hidden fasten 69 0 32 0 365 138 106 138;#P hidden connect 35 0 32 0;#P hidden connect 32 0 70 0;#P hidden fasten 68 0 77 0 322 115 196 115;#P hidden connect 70 0 36 0;#P hidden connect 77 0 36 0;#P hidden connect 36 0 35 0;#P hidden connect 68 0 35 0;#P hidden connect 12 0 13 0;#P hidden connect 13 0 14 0;#P hidden fasten 17 0 16 0 369 78 215 78;#P hidden fasten 15 0 16 0 292 78 215 78;#P hidden fasten 14 0 16 0 215 78 215 78;#P hidden connect 85 0 2 0;#P hidden connect 2 0 3 0;#P hidden connect 3 0 6 0;#P hidden fasten 0 0 6 0 365 203 287 203;#P hidden connect 6 0 87 0;#P hidden connect 87 0 86 0;#P hidden connect 13 1 15 0;#P hidden connect 6 1 87 1;#P hidden fasten 13 3 68 0 446 88 322 88;#P hidden connect 1 0 3 2;#P hidden connect 68 1 69 0;#P hidden connect 68 1 1 0;#P hidden connect 1 0 0 0;#P hidden connect 13 2 17 0;#P hidden connect 6 1 4 0;#P hidden connect 4 0 5 0;#P hidden fasten 76 0 83 0 475 648 465 648 465 575 475 575;#P hidden connect 83 0 76 0;#P hidden fasten 81 0 82 0 477 728 466 728 466 653 477 653;#P hidden connect 82 0 81 0;#P hidden fasten 57 0 58 0 487 360 476 360 476 281 487 281;#P hidden connect 5 0 85 0;#P hidden connect 58 0 85 0;#P hidden connect 85 0 57 0;#P hidden connect 39 0 67 0;#P hidden connect 67 0 38 0;#P hidden fasten 10 0 11 0 807 146 795 146 795 99 807 99;#P hidden connect 11 0 10 0;#P hidden fasten 41 0 42 0 807 216 795 216 795 156 807 156;#P hidden connect 42 0 41 0;#P hidden connect 54 0 66 0;#P hidden connect 66 0 53 0;#P hidden fasten 55 0 56 0 807 375 799 375 799 318 807 318;#P hidden connect 56 0 55 0;#P hidden fasten 79 0 80 0 807 512 799 512 799 455 807 455;#P hidden connect 80 0 79 0;#P hidden fasten 59 0 60 0 807 586 799 586 799 529 807 529;#P hidden connect 60 0 59 0;#P hidden fasten 61 0 62 0 807 657 799 657 799 600 807 600;#P hidden connect 62 0 61 0;#P hidden fasten 63 0 64 0 807 725 799 725 799 668 807 668;#P hidden connect 64 0 63 0;#P pop;