max v2;
#N vpatcher 44 74 644 474;
#P window setfont "Sans Serif" 9.;
#P window linecount 1;
#N out~ 1;
#P newobj 275 306 39 196617 out~ 1;
#N out~ 2;
#P newobj 319 306 39 196617 out~ 2;
#N in~ 2;
#P newobj 383 57 33 196617 in~ 2;
#N in~ 1;
#P newobj 311 57 33 196617 in~ 1;
#N in 1;
#P newobj 45 57 25 196617 in 1;
#P newex 155 171 95 196617 jcom.pass /bypass;
#P newex 25 128 120 196617 expr 1./(1. - $f1*0.01);
#P outlet 294 288 15 0;
#P outlet 330 288 15 0;
#P inlet 366 57 15 0;
#P inlet 294 57 15 0;
#P newex 25 158 92 196617 prepend overdrive;
#P newex 25 82 140 196617 jcom.oscroute /depth;
#P inlet 25 57 15 0;
#P newex 294 247 82 196617 jcom.saturation~;
#P connect 10 0 2 0;
#P connect 1 0 2 0;
#P connect 2 0 8 0;
#P connect 8 0 3 0;
#P connect 2 1 9 0;
#P fasten 0 0 14 0 299 277 280 277;
#P fasten 11 0 0 0 316 83 299 83;
#P connect 9 0 0 0;
#P connect 4 0 0 0;
#P connect 3 0 0 0;
#P connect 0 0 7 0;
#P fasten 0 1 13 0 335 278 324 278;
#P connect 0 1 6 0;
#P fasten 12 0 0 1 388 82 371 82;
#P connect 5 0 0 1;
#P pop;
