max v2;#N vpatcher 570 55 1122 291;#P window setfont "Sans Serif" 9.;#P window linecount 1;#P newex 376 74 23 196617 - 1;#P newex 324 72 23 196617 - 1;#P newex 274 72 23 196617 - 1;#P message 429 92 45 196617 mode \$1;#P message 375 92 45 196617 mask \$1;#P message 322 92 51 196617 target \$1;#P message 274 92 39 196617 key \$1;#P message 118 74 43 196617 blue \$1;#P message 66 75 50 196617 green \$1;#P message 14 75 40 196617 red \$1;#N comlet video input 2 (background);#P inlet 117 135 15 0;#P window linecount 4;#P message 177 70 81 196617 alphatol \$1 \, redtol \$1 \, greentol \$1 \, bluetol \$1;#N comlet video input 2 (background);#P inlet 99 135 15 0;#N comlet video input 1 (key);#P inlet 83 135 15 0;#P inlet 15 22 15 0;#P window linecount 1;#P comment 45 190 75 196617 VIDEO OUTPUT;#P outlet 30 190 15 0;#P newex 30 158 100 196617 jit.keyscreen;#P newex 15 39 485 196617 jcom.oscroute /key/red /key/green /key/blue /tolerance /key /target /mask /mode;#P connect 0 0 9 0;#P connect 4 0 0 0;#P fasten 15 0 1 0 434 126 35 126;#P fasten 14 0 1 0 380 157 35 157;#P fasten 13 0 1 0 327 157 35 157;#P fasten 12 0 1 0 279 157 35 157;#P fasten 11 0 1 0 123 130 35 130;#P fasten 10 0 1 0 71 133 35 133;#P fasten 9 0 1 0 19 131 35 131;#P fasten 7 0 1 0 182 133 35 133;#P fasten 5 0 1 0 88 153 35 153;#P connect 1 0 2 0;#P connect 0 1 10 0;#P fasten 6 0 1 1 104 156 80 156;#P connect 0 2 11 0;#P connect 8 0 1 2;#P connect 0 3 7 0;#P connect 0 4 16 0;#P connect 16 0 12 0;#P connect 17 0 13 0;#P connect 0 5 17 0;#P connect 18 0 14 0;#P connect 0 6 18 0;#P connect 0 7 15 0;#P pop;