max v2;#N vpatcher 380 44 879 796;#P origin -22 0;#P window setfont "Sans Serif" 9.;#P window linecount 1;#P newex 293 370 51 196617 tosymbol;#P newex 106 473 51 196617 zl slice 6;#P newex 45 473 51 196617 zl slice 6;#P newex 45 426 118 196617 route 1 2 3 4 5 6 7 8;#P comment 174 476 209 196617 Removes extra line break in the 7th position;#P toggle 45 109 15 0;#P comment 116 396 102 196617 Removes repetitions;#P newex 45 391 65 196617 jcom.change;#P comment 116 368 163 196617 Converts ASCII values to symbols;#P comment 116 342 173 196617 Cuts up the string at the end of lines;#P newex 45 364 40 196617 lstring;#P newex 45 339 68 196617 lchunk 10 60;#P toggle 99 250 15 0;#P newex 99 268 29 196617 gate;#P button 24 160 15 0;#P newex 45 182 37 196617 t b 80;#P newex 45 157 58 196617 metro 100;#P message 133 178 32 196617 print;#P newex 99 290 63 196617 print status;#P button 113 179 15 0;#P newex 45 226 83 196617 serial a 115200;#B color 5;#P newex 56 690 373 196617 jcom.return /accel/y @description "Acceleration x value from Phidgets device";#P newex 196 554 101 196617 sprintf /accel/y %f;#P number 128 91 35 9 0 0 0 3 0 0 0 221 221 221 222 222 222 0 0 0;#P comment 169 92 36 196617 in ms;#P newex 83 609 91 196617 send $1_feedback;#P newex 56 656 373 196617 jcom.return /accel/x @description "Acceleration x value from Phidgets device";#P newex 83 554 101 196617 sprintf /accel/x %f;#P newex 45 57 176 196617 jcom.oscroute /status /sample_rate;#P inlet 45 33 15 0;#P connect 0 0 1 0;#P connect 1 0 24 0;#P connect 24 0 13 0;#P connect 13 0 14 0;#P fasten 15 0 14 0 29 179 50 179;#P fasten 10 0 9 0 118 210 50 210;#P fasten 12 0 9 0 138 210 50 210;#P connect 14 0 9 0;#P fasten 14 1 9 0 77 210 50 210;#P connect 9 0 18 0;#P connect 18 0 19 0;#P connect 26 0 27 0;#P fasten 7 0 4 0 201 584 88 584;#P connect 2 0 4 0;#P connect 6 0 13 1;#P connect 17 0 16 0;#P connect 16 0 11 0;#P connect 26 1 28 0;#P connect 9 1 16 1;#P connect 1 1 6 0;#P pop;