{
	"patcher" : 	{
		"fileversion" : 1,
		"rect" : [ 63.0, 44.0, 925.0, 678.0 ],
		"bglocked" : 0,
		"defrect" : [ 63.0, 44.0, 925.0, 678.0 ],
		"openrect" : [ 0.0, 0.0, 0.0, 0.0 ],
		"openinpresentation" : 1,
		"default_fontsize" : 10.970939,
		"default_fontface" : 0,
		"default_fontname" : "Verdana",
		"gridonopen" : 0,
		"gridsize" : [ 5.0, 5.0 ],
		"gridsnaponopen" : 0,
		"toolbarvisible" : 1,
		"boxanimatetime" : 200,
		"imprint" : 0,
		"metadata" : [  ],
		"boxes" : [ 			{
				"box" : 				{
					"maxclass" : "newobj",
					"text" : "jcom.meter_receive 2",
					"numoutlets" : 1,
					"fontname" : "Verdana",
					"outlettype" : [ "" ],
					"fontsize" : 10.0,
					"patching_rect" : [ 490.0, 600.0, 141.0, 19.0 ],
					"numinlets" : 0,
					"id" : "obj-51"
				}

			}
, 			{
				"box" : 				{
					"maxclass" : "newobj",
					"text" : "jcom.meter_receive 1",
					"numoutlets" : 1,
					"fontname" : "Verdana",
					"outlettype" : [ "" ],
					"fontsize" : 10.0,
					"patching_rect" : [ 490.0, 550.0, 141.0, 19.0 ],
					"numinlets" : 0,
					"id" : "obj-33"
				}

			}
, 			{
				"box" : 				{
					"maxclass" : "jcom.meter~",
					"numoutlets" : 0,
					"presentation_rect" : [ 83.0, 24.0, 50.0, 4.0 ],
					"patching_rect" : [ 490.0, 635.0, 80.0, 4.0 ],
					"numinlets" : 1,
					"presentation" : 1,
					"id" : "obj-50"
				}

			}
, 			{
				"box" : 				{
					"maxclass" : "jcom.meter~",
					"numoutlets" : 0,
					"presentation_rect" : [ 14.0, 24.0, 50.0, 4.0 ],
					"patching_rect" : [ 490.0, 584.0, 80.0, 4.0 ],
					"numinlets" : 1,
					"presentation" : 1,
					"id" : "obj-49"
				}

			}
, 			{
				"box" : 				{
					"maxclass" : "newobj",
					"text" : "pcontrol",
					"numoutlets" : 1,
					"fontname" : "Verdana",
					"outlettype" : [ "" ],
					"fontsize" : 10.0,
					"patching_rect" : [ 745.0, 345.0, 49.0, 19.0 ],
					"numinlets" : 1,
					"id" : "obj-1"
				}

			}
, 			{
				"box" : 				{
					"maxclass" : "newobj",
					"text" : "jcom.algorithm_control~.maxpat",
					"numoutlets" : 2,
					"fontname" : "Verdana",
					"outlettype" : [ "", "" ],
					"fontsize" : 10.0,
					"patching_rect" : [ 590.0, 320.0, 175.0, 19.0 ],
					"numinlets" : 1,
					"id" : "obj-2"
				}

			}
, 			{
				"box" : 				{
					"maxclass" : "message",
					"text" : "/preset/store 1 default, /preset/write",
					"numoutlets" : 1,
					"fontname" : "Verdana",
					"outlettype" : [ "" ],
					"fontsize" : 10.0,
					"patching_rect" : [ 55.0, 315.0, 196.0, 17.0 ],
					"numinlets" : 2,
					"id" : "obj-3"
				}

			}
, 			{
				"box" : 				{
					"maxclass" : "newobj",
					"text" : "jcom.out~ 2",
					"numoutlets" : 3,
					"fontname" : "Verdana",
					"outlettype" : [ "signal", "signal", "" ],
					"fontsize" : 10.0,
					"patching_rect" : [ 491.0, 421.0, 71.0, 19.0 ],
					"numinlets" : 2,
					"id" : "obj-4"
				}

			}
, 			{
				"box" : 				{
					"maxclass" : "newobj",
					"text" : "jcom.in~ 2",
					"numoutlets" : 4,
					"fontname" : "Verdana",
					"outlettype" : [ "signal", "signal", "", "" ],
					"fontsize" : 10.0,
					"patching_rect" : [ 490.0, 290.0, 169.0, 19.0 ],
					"numinlets" : 2,
					"id" : "obj-5"
				}

			}
, 			{
				"box" : 				{
					"maxclass" : "number",
					"varname" : "Right",
					"numoutlets" : 2,
					"triangle" : 0,
					"fontname" : "Verdana",
					"outlettype" : [ "int", "bang" ],
					"minimum" : 0,
					"triscale" : 0.9,
					"presentation_rect" : [ 85.0, 45.0, 45.0, 19.0 ],
					"fontsize" : 10.0,
					"patching_rect" : [ 440.0, 155.0, 45.0, 19.0 ],
					"numinlets" : 1,
					"presentation" : 1,
					"id" : "obj-6"
				}

			}
, 			{
				"box" : 				{
					"maxclass" : "newobj",
					"varname" : "jcom.parameter.mxb[9]",
					"text" : "jcom.message delay @ramp/drive scheduler @repetitions/allow 1 @range/bounds 0 1000000 @description \"Delay time in samples to be applied to both channels.\"",
					"linecount" : 3,
					"numoutlets" : 3,
					"fontname" : "Verdana",
					"outlettype" : [ "", "", "" ],
					"fontsize" : 10.0,
					"patching_rect" : [ 195.0, 20.0, 345.0, 43.0 ],
					"numinlets" : 1,
					"id" : "obj-7"
				}

			}
, 			{
				"box" : 				{
					"maxclass" : "number",
					"varname" : "Left",
					"numoutlets" : 2,
					"triangle" : 0,
					"fontname" : "Verdana",
					"outlettype" : [ "int", "bang" ],
					"minimum" : 0,
					"triscale" : 0.9,
					"presentation_rect" : [ 16.0, 45.0, 45.0, 19.0 ],
					"fontsize" : 10.0,
					"patching_rect" : [ 440.0, 80.0, 45.0, 19.0 ],
					"numinlets" : 1,
					"presentation" : 1,
					"id" : "obj-8"
				}

			}
, 			{
				"box" : 				{
					"maxclass" : "comment",
					"text" : "delay right",
					"numoutlets" : 0,
					"fontname" : "Verdana",
					"presentation_rect" : [ 78.0, 28.0, 65.0, 19.0 ],
					"fontsize" : 10.0,
					"patching_rect" : [ 86.0, 28.0, 66.0, 19.0 ],
					"numinlets" : 1,
					"presentation" : 1,
					"id" : "obj-9",
					"frgb" : [ 0.0, 0.0, 0.0, 1.0 ]
				}

			}
, 			{
				"box" : 				{
					"maxclass" : "comment",
					"text" : "delay left",
					"numoutlets" : 0,
					"fontname" : "Verdana",
					"presentation_rect" : [ 11.0, 28.0, 55.0, 19.0 ],
					"fontsize" : 10.0,
					"patching_rect" : [ 14.0, 28.0, 55.0, 19.0 ],
					"numinlets" : 1,
					"presentation" : 1,
					"id" : "obj-10",
					"frgb" : [ 0.0, 0.0, 0.0, 1.0 ]
				}

			}
, 			{
				"box" : 				{
					"maxclass" : "message",
					"text" : "/documentation/generate",
					"numoutlets" : 1,
					"fontname" : "Verdana",
					"outlettype" : [ "" ],
					"fontsize" : 10.0,
					"patching_rect" : [ 75.0, 345.0, 137.0, 17.0 ],
					"numinlets" : 2,
					"id" : "obj-11"
				}

			}
, 			{
				"box" : 				{
					"maxclass" : "newobj",
					"varname" : "delay/right",
					"text" : "jcom.parameter delay/right @type msg_int @ramp/drive scheduler @repetitions/allow 0 @range/bounds 0 1000000 @range/clipmode both @description \"Delay time in samples for right channel.\"",
					"linecount" : 3,
					"numoutlets" : 3,
					"fontname" : "Verdana",
					"outlettype" : [ "", "", "" ],
					"fontsize" : 10.0,
					"patching_rect" : [ 495.0, 155.0, 365.0, 43.0 ],
					"numinlets" : 1,
					"id" : "obj-13"
				}

			}
, 			{
				"box" : 				{
					"maxclass" : "newobj",
					"varname" : "jcom.hub",
					"text" : "jcom.hub @module_type audio @description \"Sample-accurate stereo delay.\"",
					"numoutlets" : 2,
					"fontname" : "Verdana",
					"outlettype" : [ "", "" ],
					"fontsize" : 10.0,
					"patching_rect" : [ 20.0, 390.0, 401.0, 19.0 ],
					"numinlets" : 1,
					"id" : "obj-15"
				}

			}
, 			{
				"box" : 				{
					"maxclass" : "comment",
					"text" : "command input",
					"numoutlets" : 0,
					"fontname" : "Verdana",
					"fontsize" : 10.0,
					"patching_rect" : [ 50.0, 280.0, 87.0, 19.0 ],
					"numinlets" : 1,
					"id" : "obj-16",
					"frgb" : [ 0.0, 0.0, 0.0, 1.0 ]
				}

			}
, 			{
				"box" : 				{
					"maxclass" : "inlet",
					"numoutlets" : 1,
					"outlettype" : [ "" ],
					"patching_rect" : [ 21.0, 280.0, 26.0, 26.0 ],
					"numinlets" : 0,
					"id" : "obj-17",
					"comment" : ""
				}

			}
, 			{
				"box" : 				{
					"maxclass" : "message",
					"text" : "/init",
					"numoutlets" : 1,
					"fontname" : "Verdana",
					"outlettype" : [ "" ],
					"fontsize" : 10.0,
					"patching_rect" : [ 220.0, 345.0, 37.0, 17.0 ],
					"numinlets" : 2,
					"id" : "obj-18"
				}

			}
, 			{
				"box" : 				{
					"maxclass" : "inlet",
					"numoutlets" : 1,
					"outlettype" : [ "" ],
					"patching_rect" : [ 490.0, 255.0, 26.0, 26.0 ],
					"numinlets" : 0,
					"id" : "obj-19",
					"comment" : ""
				}

			}
, 			{
				"box" : 				{
					"maxclass" : "outlet",
					"numoutlets" : 0,
					"patching_rect" : [ 491.0, 451.0, 26.0, 26.0 ],
					"numinlets" : 1,
					"id" : "obj-20",
					"comment" : ""
				}

			}
, 			{
				"box" : 				{
					"maxclass" : "newobj",
					"varname" : "delay/left",
					"text" : "jcom.parameter delay/left @type msg_int @ramp/drive scheduler @repetitions/allow 0 @range/bounds 0 1000000 @range/clipmode both @description \"Delay time in samples for left channel.\"",
					"linecount" : 3,
					"numoutlets" : 3,
					"fontname" : "Verdana",
					"outlettype" : [ "", "", "" ],
					"fontsize" : 10.0,
					"patching_rect" : [ 495.0, 80.0, 364.0, 43.0 ],
					"numinlets" : 1,
					"id" : "obj-21"
				}

			}
, 			{
				"box" : 				{
					"maxclass" : "inlet",
					"numoutlets" : 1,
					"outlettype" : [ "" ],
					"patching_rect" : [ 640.0, 255.0, 26.0, 26.0 ],
					"numinlets" : 0,
					"id" : "obj-22",
					"comment" : ""
				}

			}
, 			{
				"box" : 				{
					"maxclass" : "newobj",
					"text" : "jalg.delay~",
					"numoutlets" : 3,
					"fontname" : "Verdana",
					"outlettype" : [ "", "signal", "signal" ],
					"fontsize" : 10.0,
					"patching_rect" : [ 440.0, 390.0, 121.0, 19.0 ],
					"numinlets" : 3,
					"id" : "obj-23"
				}

			}
, 			{
				"box" : 				{
					"maxclass" : "comment",
					"text" : "----signal inputs----",
					"numoutlets" : 0,
					"fontname" : "Verdana",
					"fontsize" : 9.873845,
					"patching_rect" : [ 520.0, 255.0, 107.0, 18.0 ],
					"numinlets" : 1,
					"id" : "obj-24",
					"frgb" : [ 0.0, 0.0, 0.0, 1.0 ]
				}

			}
, 			{
				"box" : 				{
					"maxclass" : "outlet",
					"numoutlets" : 0,
					"patching_rect" : [ 20.0, 415.0, 26.0, 26.0 ],
					"numinlets" : 1,
					"id" : "obj-25",
					"comment" : ""
				}

			}
, 			{
				"box" : 				{
					"maxclass" : "outlet",
					"numoutlets" : 0,
					"patching_rect" : [ 521.0, 451.0, 26.0, 26.0 ],
					"numinlets" : 1,
					"id" : "obj-26",
					"comment" : ""
				}

			}
, 			{
				"box" : 				{
					"maxclass" : "comment",
					"text" : "---signal outputs---",
					"numoutlets" : 0,
					"fontname" : "Verdana",
					"fontsize" : 10.0,
					"patching_rect" : [ 551.0, 456.0, 106.0, 19.0 ],
					"numinlets" : 1,
					"id" : "obj-27",
					"frgb" : [ 0.0, 0.0, 0.0, 1.0 ]
				}

			}
, 			{
				"box" : 				{
					"maxclass" : "jcom.ui",
					"text" : "/editing_this_module",
					"numoutlets" : 1,
					"outlettype" : [ "" ],
					"presentation_rect" : [ 0.0, 0.0, 150.0, 70.0 ],
					"has_gain" : 1,
					"has_bypass" : 1,
					"patching_rect" : [ 0.0, 0.0, 150.0, 70.0 ],
					"has_mute" : 1,
					"numinlets" : 1,
					"presentation" : 1,
					"has_mix" : 1,
					"id" : "obj-34",
					"prefix" : "audio"
				}

			}
 ],
		"lines" : [ 			{
				"patchline" : 				{
					"source" : [ "obj-17", 0 ],
					"destination" : [ "obj-15", 0 ],
					"hidden" : 0,
					"midpoints" : [  ]
				}

			}
, 			{
				"patchline" : 				{
					"source" : [ "obj-11", 0 ],
					"destination" : [ "obj-15", 0 ],
					"hidden" : 0,
					"midpoints" : [ 84.5, 376.0, 29.5, 376.0 ]
				}

			}
, 			{
				"patchline" : 				{
					"source" : [ "obj-18", 0 ],
					"destination" : [ "obj-15", 0 ],
					"hidden" : 0,
					"midpoints" : [ 229.5, 376.0, 29.5, 376.0 ]
				}

			}
, 			{
				"patchline" : 				{
					"source" : [ "obj-3", 0 ],
					"destination" : [ "obj-15", 0 ],
					"hidden" : 0,
					"midpoints" : [ 64.5, 376.0, 29.5, 376.0 ]
				}

			}
, 			{
				"patchline" : 				{
					"source" : [ "obj-15", 0 ],
					"destination" : [ "obj-25", 0 ],
					"hidden" : 0,
					"midpoints" : [  ]
				}

			}
, 			{
				"patchline" : 				{
					"source" : [ "obj-8", 0 ],
					"destination" : [ "obj-21", 0 ],
					"hidden" : 0,
					"midpoints" : [ 449.5, 101.0, 492.0, 101.0, 492.0, 77.0, 504.5, 77.0 ]
				}

			}
, 			{
				"patchline" : 				{
					"source" : [ "obj-21", 0 ],
					"destination" : [ "obj-8", 0 ],
					"hidden" : 0,
					"midpoints" : [ 504.5, 125.0, 426.0, 125.0, 426.0, 77.0, 449.5, 77.0 ]
				}

			}
, 			{
				"patchline" : 				{
					"source" : [ "obj-7", 1 ],
					"destination" : [ "obj-8", 0 ],
					"hidden" : 0,
					"midpoints" : [ 367.5, 77.0, 449.5, 77.0 ]
				}

			}
, 			{
				"patchline" : 				{
					"source" : [ "obj-7", 1 ],
					"destination" : [ "obj-6", 0 ],
					"hidden" : 0,
					"midpoints" : [ 367.5, 150.0, 449.5, 150.0 ]
				}

			}
, 			{
				"patchline" : 				{
					"source" : [ "obj-6", 0 ],
					"destination" : [ "obj-13", 0 ],
					"hidden" : 0,
					"midpoints" : [ 449.5, 176.0, 492.0, 176.0, 492.0, 152.0, 504.5, 152.0 ]
				}

			}
, 			{
				"patchline" : 				{
					"source" : [ "obj-13", 0 ],
					"destination" : [ "obj-6", 0 ],
					"hidden" : 0,
					"midpoints" : [ 504.5, 200.0, 426.0, 200.0, 426.0, 152.0, 449.5, 152.0 ]
				}

			}
, 			{
				"patchline" : 				{
					"source" : [ "obj-2", 0 ],
					"destination" : [ "obj-23", 0 ],
					"hidden" : 0,
					"midpoints" : [ 599.5, 354.0, 449.5, 354.0 ]
				}

			}
, 			{
				"patchline" : 				{
					"source" : [ "obj-1", 0 ],
					"destination" : [ "obj-23", 0 ],
					"hidden" : 0,
					"midpoints" : [ 754.5, 374.0, 449.5, 374.0 ]
				}

			}
, 			{
				"patchline" : 				{
					"source" : [ "obj-19", 0 ],
					"destination" : [ "obj-5", 0 ],
					"hidden" : 0,
					"midpoints" : [  ]
				}

			}
, 			{
				"patchline" : 				{
					"source" : [ "obj-5", 0 ],
					"destination" : [ "obj-23", 1 ],
					"hidden" : 0,
					"midpoints" : [  ]
				}

			}
, 			{
				"patchline" : 				{
					"source" : [ "obj-23", 1 ],
					"destination" : [ "obj-4", 0 ],
					"hidden" : 0,
					"midpoints" : [  ]
				}

			}
, 			{
				"patchline" : 				{
					"source" : [ "obj-4", 0 ],
					"destination" : [ "obj-20", 0 ],
					"hidden" : 0,
					"midpoints" : [  ]
				}

			}
, 			{
				"patchline" : 				{
					"source" : [ "obj-4", 1 ],
					"destination" : [ "obj-26", 0 ],
					"hidden" : 0,
					"midpoints" : [  ]
				}

			}
, 			{
				"patchline" : 				{
					"source" : [ "obj-5", 1 ],
					"destination" : [ "obj-23", 2 ],
					"hidden" : 0,
					"midpoints" : [  ]
				}

			}
, 			{
				"patchline" : 				{
					"source" : [ "obj-23", 2 ],
					"destination" : [ "obj-4", 1 ],
					"hidden" : 0,
					"midpoints" : [  ]
				}

			}
, 			{
				"patchline" : 				{
					"source" : [ "obj-5", 2 ],
					"destination" : [ "obj-2", 0 ],
					"hidden" : 0,
					"midpoints" : [  ]
				}

			}
, 			{
				"patchline" : 				{
					"source" : [ "obj-22", 0 ],
					"destination" : [ "obj-5", 1 ],
					"hidden" : 0,
					"midpoints" : [  ]
				}

			}
, 			{
				"patchline" : 				{
					"source" : [ "obj-2", 1 ],
					"destination" : [ "obj-1", 0 ],
					"hidden" : 0,
					"midpoints" : [  ]
				}

			}
, 			{
				"patchline" : 				{
					"source" : [ "obj-33", 0 ],
					"destination" : [ "obj-49", 0 ],
					"hidden" : 0,
					"midpoints" : [  ]
				}

			}
, 			{
				"patchline" : 				{
					"source" : [ "obj-51", 0 ],
					"destination" : [ "obj-50", 0 ],
					"hidden" : 0,
					"midpoints" : [  ]
				}

			}
 ]
	}

}
