max v2;#N vpatcher 114 474 639 728;#P outlet 24 164 15 0;#P inlet 24 35 15 0;#P outlet 367 164 15 0;#P outlet 240 164 15 0;#P inlet 367 35 15 0;#P inlet 240 35 15 0;#P window setfont "Sans Serif" 9.;#P number 117 87 35 9 0 0 0 3 0 0 0 221 221 221 222 222 222 0 0 0;#P number 24 87 35 9 0 0 0 3 0 0 0 221 221 221 222 222 222 0 0 0;#P window linecount 1;#P newex 24 66 197 196617 jcom.oscroute /delay/left /delay/right;#P newex 367 132 119 196617 delay~ 1000000 512 1;#P newex 240 132 119 196617 delay~ 1000000 512 1;#P connect 9 0 2 0;#P connect 2 0 3 0;#P connect 2 1 4 0;#P connect 5 0 0 0;#P connect 0 0 7 0;#P fasten 3 0 0 1 29 115 354 115;#P connect 6 0 1 0;#P connect 1 0 8 0;#P fasten 4 0 1 1 122 112 481 112;#P pop;