max v2;#N vpatcher 24 44 1085 800;#P origin -238 -260;#P toggle 895 35 15 0;#P window setfont "Sans Serif" 9.;#P window linecount 1;#P message 895 55 102 196617 /file/framedump \$1;#P bpatcher 608 1 255 60 0 0 jmod.input%.mxt 0 /input%;#P objectname /input%[2];#P bpatcher 608 61 255 60 0 0 jmod.orsize%.mxt 0 /orsize%;#P objectname /orsize%[2];#P bpatcher 608 121 255 60 0 0 jmod.brcosa%.mxt 0 /brcosa%;#P objectname /brcosa%[2];#P bpatcher 608 187 255 60 0 0 jmod.motion%.mxt 0 /motion%;#P objectname /motion%[2];#P bpatcher 322 1 255 60 0 0 jmod.input%.mxt 0 /input%;#P objectname /input%[1];#P bpatcher 322 61 255 60 0 0 jmod.orsize%.mxt 0 /orsize%;#P objectname /orsize%[1];#P bpatcher 322 121 255 60 0 0 jmod.brcosa%.mxt 0 /brcosa%;#P objectname /brcosa%[1];#P bpatcher 322 187 255 60 0 0 jmod.motion%.mxt 0 /motion%;#P objectname /motion%[1];#P bpatcher 31 1 255 60 0 0 jmod.input%.mxt 0 /input%;#P objectname /input%;#P bpatcher 31 61 255 60 0 0 jmod.orsize%.mxt 0 /orsize%;#P objectname /orsize%;#P bpatcher 31 121 255 60 0 0 jmod.brcosa%.mxt 0 /brcosa%;#P objectname /brcosa%;#P bpatcher 31 187 255 60 0 0 jmod.motion%.mxt 0 /motion%;#P objectname /motion%;#P hidden user jit.fpsgui 293 282 60 196617 3;#P objectname jit.fpsgui;#P toggle 706 266 15 0;#P objectname toggle[1];#P button 615 266 15 0;#P hidden newex 597 288 70 196617 mgt.save-file;#P window linecount 2;#P user com 630 268 73 196617 8;#K set 0 21345 30309 8307 28257 28787 26735 29728 3328;#K end;#P window linecount 1;#P comment 721 267 61 196617 Save movie;#P user jit.pwindow 30 323 962 482 0 1 0 0 1 0;#P objectname jit.pwindow;#P hidden newex 31 287 140 196617 jit.glue @rows 2 @columns 3;#P objectname jit.glue;#P hidden connect 20 0 11 0;#P hidden connect 9 1 0 0;#P hidden connect 0 0 1 0;#P hidden connect 13 1 0 1;#P hidden connect 17 1 0 2;#P hidden connect 8 1 0 3;#P hidden connect 12 1 0 4;#P hidden connect 16 1 0 5;#P hidden connect 11 1 10 1;#P hidden connect 10 1 9 1;#P connect 9 1 8 1;#P hidden connect 0 0 7 0;#P hidden connect 20 0 15 0;#P hidden connect 15 1 14 1;#P hidden connect 14 1 13 1;#P connect 13 1 12 1;#P hidden connect 0 0 4 0;#P hidden connect 20 0 19 0;#P hidden connect 5 0 4 1;#P hidden connect 6 0 4 2;#P hidden connect 4 0 6 0;#P hidden connect 19 1 18 1;#P hidden connect 18 1 17 1;#P connect 17 1 16 1;#P connect 21 0 20 0;#P pop;