max v2;#N vpatcher 48 44 1068 767;#P origin -238 -239;#P toggle 895 35 15 0;#P window setfont "Sans Serif" 9.;#P message 895 55 102 196617 /file/framedump \$1;#P bpatcher 608 1 255 60 0 0 jmod.input%.mxt 0 /input%;#P objectname /input%[2];#P bpatcher 608 61 255 60 0 0 jmod.orsize%.mxt 0 /orsize%;#P objectname /orsize%[2];#P bpatcher 608 121 255 60 0 0 jmod.brcosa%.mxt 0 /brcosa%;#P objectname /brcosa%[2];#P bpatcher 608 187 255 60 0 0 jmod.motion%.mxt 0 /motion%;#P objectname /motion%[2];#P bpatcher 322 1 255 60 0 0 jmod.input%.mxt 0 /input%;#P objectname /input%[1];#P bpatcher 322 61 255 60 0 0 jmod.orsize%.mxt 0 /orsize%;#P objectname /orsize%[1];#P bpatcher 322 121 255 60 0 0 jmod.brcosa%.mxt 0 /brcosa%;#P objectname /brcosa%[1];#P bpatcher 322 187 255 60 0 0 jmod.motion%.mxt 0 /motion%;#P objectname /motion%[1];#P bpatcher 31 1 255 60 0 0 jmod.input%.mxt 0 /input%;#P objectname /input%;#P bpatcher 31 61 255 60 0 0 jmod.orsize%.mxt 0 /orsize%;#P objectname /orsize%;#P bpatcher 31 121 255 60 0 0 jmod.brcosa%.mxt 0 /brcosa%;#P objectname /brcosa%;#P bpatcher 31 187 255 60 0 0 jmod.motion%.mxt 0 /motion%;#P objectname /motion%;#P user jit.fpsgui 293 282 60 196617 3;#P objectname jit.fpsgui;#P toggle 479 281 15 0;#P objectname toggle[1];#P button 388 281 15 0;#P hidden newex 370 303 70 196617 mgt.save-file;#P window linecount 2;#P user com 403 283 73 196617 8;#K set 0 21345 30309 8307 28257 28787 26735 29728 3328;#K end;#P window linecount 1;#P comment 494 282 61 196617 Save movie;#P user jit.pwindow 30 323 962 482 0 1 0 0 1 0;#P objectname jit.pwindow;#P newex 31 287 140 196617 jit.glue @rows 2 @columns 3;#P objectname jit.glue;#P window linecount 5;#P comment 891 102 100 196617 This patch is used for creating composite videos for comparative analysis.;#P hidden connect 21 0 12 0;#P hidden connect 10 1 1 0;#P hidden connect 1 0 2 0;#P hidden connect 14 1 1 1;#P hidden connect 18 1 1 2;#P hidden connect 9 1 1 3;#P hidden connect 13 1 1 4;#P hidden connect 17 1 1 5;#P hidden connect 12 1 11 1;#P hidden connect 11 1 10 1;#P connect 10 1 9 1;#P hidden connect 1 0 8 0;#P hidden connect 21 0 16 0;#P hidden connect 1 0 5 0;#P hidden connect 6 0 5 1;#P hidden connect 7 0 5 2;#P hidden connect 5 0 7 0;#P hidden connect 16 1 15 1;#P hidden connect 15 1 14 1;#P connect 14 1 13 1;#P hidden connect 21 0 20 0;#P hidden connect 20 1 19 1;#P hidden connect 19 1 18 1;#P connect 18 1 17 1;#P connect 22 0 21 0;#P pop;