max v2;#N vpatcher 309 68 711 745;#P origin -32 -85;#P window setfont "Sans Serif" 9.;#N vpatcher 50 119 342 436;#P window setfont "Sans Serif" 9.;#P message 188 214 50 196617 set lineto;#P message 126 214 58 196617 set moveto;#P newex 124 108 29 196617 t i b;#P newex 126 135 27 196617 int;#P newex 50 245 79 196617 prepend moveto;#P newex 50 152 47 196617 pack 0 0;#P newex 50 76 166 196617 unpack 0 0 0 0 0 0 0 0;#P newex 50 50 110 196617 route mouse mouseidle;#P newex 126 156 40 196617 sel 0 1;#P inlet 50 30 15 0;#P outlet 50 267 15 0;#P connect 1 0 3 0;#P fasten 3 1 4 0 105 71 55 71;#P connect 3 0 4 0;#P connect 4 0 5 0;#P connect 5 0 6 0;#P fasten 9 0 6 0 131 238 55 238;#P fasten 10 0 6 0 193 238 55 238;#P connect 6 0 0 0;#P connect 4 1 5 1;#P connect 4 2 8 0;#P connect 8 1 7 0;#P connect 7 0 2 0;#P connect 2 0 9 0;#P connect 8 0 7 1;#P fasten 2 1 10 0 146 193 193 193;#P pop;#P newobj 82 243 73 196617 p mouse-stuff;#P newex 82 282 27 196617 t b l;#P bpatcher 27 26 255 60 0 0 jmod.input%.mxt 0;#P objectname /input%;#P window linecount 2;#P message 293 110 80 196617 \; jmod.init bang;#P bpatcher 27 86 255 60 0 0 jmod.orsize%.mxt 0 /orsize%;#P objectname /orsize%;#P bpatcher 27 146 255 60 0 0 jmod.brcosa%.mxt 0 /brcosa%;#P objectname /brcosa%;#P window linecount 1;#P newex 27 243 27 196617 t b l;#P message 157 266 32 196617 reset;#P number 242 243 35 9 1 0 1 3 0 0 0 221 221 221 222 222 222 0 0 0;#P message 242 266 71 196617 pensize \$1 \$1;#P message 193 266 45 196617 color \$1;#P number 193 243 35 9 0 255 3 3 0 0 0 221 221 221 222 222 222 0 0 0;#P message 123 266 31 196617 clear;#P newex 27 311 144 196617 jit.lcd 4 char 320 240;#B color 5;#P user jit.pwindow 26 372 322 242 0 1 0 0 1 0;#P user jit.fpsgui 27 625 60 196617 0;#P fasten 10 1 9 0 277 221 32 221;#P fasten 9 1 2 0 49 287 32 287;#P connect 9 0 2 0;#P fasten 14 0 2 0 87 305 32 305;#P fasten 14 1 2 0 104 305 32 305;#P hidden fasten 6 0 2 0 247 302 32 302;#P hidden fasten 8 0 2 0 162 302 32 302;#P hidden fasten 5 0 2 0 198 302 32 302;#P connect 2 0 1 0;#P connect 1 0 0 0;#P hidden connect 1 1 15 0;#P connect 15 0 14 0;#P connect 3 0 14 0;#P connect 4 0 5 0;#P connect 7 0 6 0;#P hidden connect 13 1 11 1;#P hidden connect 11 1 10 1;#P pop;