max v2;#N vpatcher 71 44 1166 761;#P origin -138 -36;#P window setfont "Sans Serif" 9.;#P window linecount 1;#P hidden newex 420 43 106 196617 bgcolor 200 200 200;#N vpatcher 215 44 1145 392;#P window setfont "Sans Serif" 9.;#P comment 734 146 90 196617 Contraction width;#P comment 559 146 95 196617 Contraction height;#P user multiSlider 379 204 160 87 0. 1. 1 3961 15 0 0 2 0 0 0;#M frgb 0 0 0;#M brgb 255 255 255;#M rgb2 127 127 127;#M rgb3 0 0 0;#M rgb4 37 52 91;#M rgb5 74 105 182;#M rgb6 112 158 18;#M rgb7 149 211 110;#M rgb8 187 9 201;#M rgb9 224 62 37;#M rgb10 7 114 128;#P user multiSlider 205 204 160 87 0. 1. 1 3961 15 0 0 2 0 0 0;#M frgb 0 0 0;#M brgb 255 255 255;#M rgb2 127 127 127;#M rgb3 0 0 0;#M rgb4 37 52 91;#M rgb5 74 105 182;#M rgb6 112 158 18;#M rgb7 149 211 110;#M rgb8 187 9 201;#M rgb9 224 62 37;#M rgb10 7 114 128;#P user multiSlider 727 204 160 87 0. 1. 1 3961 15 0 0 2 0 0 0;#M frgb 0 0 0;#M brgb 255 255 255;#M rgb2 127 127 127;#M rgb3 0 0 0;#M rgb4 37 52 91;#M rgb5 74 105 182;#M rgb6 112 158 18;#M rgb7 149 211 110;#M rgb8 187 9 201;#M rgb9 224 62 37;#M rgb10 7 114 128;#P user multiSlider 553 204 160 87 0. 1. 1 3961 15 0 0 2 0 0 0;#M frgb 0 0 0;#M brgb 255 255 255;#M rgb2 127 127 127;#M rgb3 0 0 0;#M rgb4 37 52 91;#M rgb5 74 105 182;#M rgb6 112 158 18;#M rgb7 149 211 110;#M rgb8 187 9 201;#M rgb9 224 62 37;#M rgb10 7 114 128;#P flonum 727 129 53 9 0 0 0 3 0 0 0 221 221 221 222 222 222 0 0 0;#P flonum 553 129 53 9 0 0 0 3 0 0 0 221 221 221 222 222 222 0 0 0;#P newex 553 98 144 196617 jcom.oscroute /height /width;#P message 39 163 39 196617 /clear;#P comment 384 146 95 196617 Motion location - y;#P comment 214 146 95 196617 Motion location - x;#P comment 46 146 123 196617 Quantity of Motion (QoM);#P flonum 379 129 53 9 0 0 0 3 0 0 0 221 221 221 222 222 222 0 0 0;#P flonum 205 129 53 9 0 0 0 3 0 0 0 221 221 221 222 222 222 0 0 0;#P newex 27 183 120 196617 jcom.autoscale @mode 3;#P flonum 44 129 53 9 0 0 0 3 0 0 0 221 221 221 222 222 222 0 0 0;#P newex 27 98 150 196617 jcom.oscroute /quantity /x /y;#P user multiSlider 27 204 160 87 0. 1. 1 3961 15 0 0 2 0 0 0;#M frgb 0 0 0;#M brgb 255 255 255;#M rgb2 127 127 127;#M rgb3 0 0 0;#M rgb4 37 52 91;#M rgb5 74 105 182;#M rgb6 112 158 18;#M rgb7 149 211 110;#M rgb8 187 9 201;#M rgb9 224 62 37;#M rgb10 7 114 128;#P newex 27 71 173 196617 jcom.oscroute /motion /contraction;#P inlet 27 31 15 0;#P connect 0 0 1 0;#P connect 1 0 3 0;#P connect 3 0 5 0;#P connect 11 0 5 0;#P connect 5 0 2 0;#P fasten 3 0 4 0 32 125 49 125;#P fasten 3 1 6 0 78 122 210 122;#P connect 6 0 17 0;#P fasten 3 2 7 0 124 122 384 122;#P connect 7 0 18 0;#P fasten 1 1 12 0 113 94 558 94;#P connect 12 0 13 0;#P connect 13 0 15 0;#P fasten 12 1 14 0 625 122 732 122;#P connect 14 0 16 0;#P pop;#P newobj 355 216 79 196617 p analysis-data;#P hidden newex 355 509 46 196617 route 0.;#P hidden newex 639 226 46 196617 route 0.;#P user multiSlider 675 246 20 240 0. 1. 1 2681 15 0 0 2 0 0 0;#M frgb 0 0 0;#M brgb 255 255 255;#M rgb2 127 127 127;#M rgb3 0 0 0;#M rgb4 37 52 91;#M rgb5 74 105 182;#M rgb6 112 158 18;#M rgb7 149 211 110;#M rgb8 187 9 201;#M rgb9 224 62 37;#M rgb10 7 114 128;#P user multiSlider 355 486 320 20 0. 1. 1 2680 15 0 0 2 0 0 0;#M frgb 0 0 0;#M brgb 255 255 255;#M rgb2 127 127 127;#M rgb3 0 0 0;#M rgb4 37 52 91;#M rgb5 74 105 182;#M rgb6 112 158 18;#M rgb7 149 211 110;#M rgb8 187 9 201;#M rgb9 224 62 37;#M rgb10 7 114 128;#P hidden newex 451 216 176 196617 jcom.oscroute /motion/x /motion/y;#P user jit.pwindow 354 245 322 242 0 1 0 0 1 0;#P bpatcher 355 147 255 60 0 0 jmod.motion%.mxt 0 /motion%;#P objectname /motion%;#P bpatcher 728 122 255 60 0 0 jmod.motiongram%.mxt 0 /motion%;#P objectname /motiongram%;#P hidden newex 1004 215 81 196617 jcom.autosize%;#P toggle 713 194 15 0;#P number 613 54 18 9 0 2 35 3 0 0 0 221 221 221 222 222 222 0 0 0;#N vpatcher 532 44 1027 761;#P origin -89 -73;#P window setfont "Sans Serif" 9.;#P window linecount 0;#P message 138 91 14 196617 0;#P message 121 90 14 196617 1;#P inlet 76 36 15 0;#P number 76 119 35 9 0 0 0 3 0 0 0 221 221 221 222 222 222 0 0 0;#P newex 76 139 51 196617 pgmout 1;#P message 90 92 20 196617 50;#P message 76 92 14 196617 1;#P newex 76 57 53 196617 sel 1 2 0;#P number 231 333 42 9 0 0 0 3 0 0 0 221 221 221 222 222 222 0 0 0;#P window linecount 1;#P newex 138 364 20 196617 t b;#P window setfont "Fixedwidth Serif" 10.;#P window linecount 0;#P newex 187 381 74 1441802 metro 1000;#P newex 187 539 121 1441802 makenote;#P toggle 187 352 15 0;#P window linecount 2;#P message 313 399 30 1441802 set 1000;#P window linecount 1;#P newex 315 463 38 1441802 < 40;#P newex 315 485 38 1441802 sel 1;#P newex 251 356 30 1441802 1000;#P newex 305 435 66 1441802 accum 1000;#B color 5;#P newex 242 487 41 1441802 + 1;#P message 264 414 19 1441802 10;#P newex 242 435 55 1441802 accum 10;#B color 5;#P newex 242 464 41 1441802 % 127;#P newex 187 464 44 1441802 % 61;#P newex 187 487 44 1441802 + 36;#P newex 187 435 44 1441802 accum;#B color 5;#P message 204 413 15 1441802 4;#P message 361 416 26 1441802 0.9;#P window setfont "Sans Serif" 9.;#P newex 55 657 52 196617 noteout 1;#P toggle 35 413 15 0;#P newex 35 432 55 196617 metro 100;#P newex 102 455 64 196617 random 100;#P newex 35 456 64 196617 random 100;#P newex 35 478 45 196617 pack 0 0;#P newex 35 538 94 196617 makenote 120 600;#P number 135 509 35 9 0 0 0 3 0 0 0 221 221 221 222 222 222 0 0 0;#P message 135 531 45 196617 vol 1 \$1;#P newex 231 278 32 196617 sel 1;#P newex 231 257 40 196617 change;#P newex 231 301 35 196617 timer;#P newex 138 257 32 196617 sel 1;#P toggle 138 120 16 0;#P newex 138 143 29 196617 gate;#P newex 138 237 30 196617 > 10;#P newex 138 217 93 196617 scale 0. 1. 0 1000;#P newex 138 194 120 196617 jcom.oscroute /quantity;#P newex 138 168 113 196617 jcom.oscroute /motion;#P inlet 222 21 15 0;#P connect 18 0 17 0;#P connect 17 0 15 0;#P connect 15 0 14 0;#P connect 14 0 13 0;#P fasten 11 0 19 0 140 622 60 622;#P fasten 35 0 19 0 192 627 60 627;#P fasten 13 0 19 0 40 626 60 626;#P fasten 16 0 14 1 107 475 75 475;#P connect 44 0 39 0;#P connect 39 0 40 0;#P connect 41 0 43 0;#P connect 40 0 43 0;#P connect 43 0 42 0;#P fasten 35 1 19 1 303 627 81 627;#P fasten 13 1 19 1 124 626 81 626;#P connect 38 0 17 1;#P connect 39 1 41 0;#P fasten 17 0 16 0 40 452 107 452;#P connect 39 0 45 0;#P connect 39 1 45 0;#P connect 12 0 11 0;#P connect 39 2 46 0;#P connect 45 0 6 0;#P connect 46 0 6 0;#P connect 6 0 5 0;#P connect 5 0 1 0;#P connect 1 0 2 0;#P connect 2 0 3 0;#P connect 3 0 4 0;#P connect 4 0 7 0;#P connect 7 0 37 0;#P connect 0 0 5 1;#P connect 34 0 36 0;#P connect 36 0 22 0;#P connect 37 0 22 0;#P connect 22 0 24 0;#P connect 24 0 23 0;#P connect 23 0 35 0;#P fasten 22 0 21 0 192 458 237 458 237 409 209 409;#P connect 21 0 22 1;#P connect 4 0 9 0;#P connect 9 0 10 0;#P connect 10 0 8 0;#P connect 8 0 38 0;#P fasten 36 0 26 0 192 402 247 402;#P connect 37 0 26 0;#P connect 26 0 25 0;#P connect 25 0 28 0;#P connect 28 0 35 1;#P fasten 31 0 30 0 320 507 395 507 395 352 256 352;#P connect 30 0 36 1;#P connect 38 0 36 1;#P fasten 10 0 8 1 236 298 261 298;#P fasten 26 0 27 0 247 458 300 458 300 409 269 409;#P connect 27 0 26 1;#P fasten 29 0 35 2 310 496 302 496;#P connect 33 0 29 0;#P fasten 36 0 29 0 192 402 310 402;#P connect 37 0 29 0;#P fasten 31 0 33 0 320 507 395 507 395 394 318 394;#P fasten 29 0 32 0 310 457 320 457;#P connect 32 0 31 0;#P fasten 29 0 20 0 310 457 389 457 389 411 366 411;#P connect 20 0 29 2;#P pop;#P newobj 613 74 69 196617 p piano-fiolin;#N vpatcher 38 44 952 736;#P origin 0 4;#P inlet 6 23 15 0;#P window setfont "Sans Serif" 9.;#P number 242 618 35 9 0 0 0 3 0 0 0 221 221 221 222 222 222 0 0 0;#P user kslider 250 544 54 0 36 72 31 12 0 128 128 128 128 128 128 255 255 255 0 0 0 0 0 0;#P toggle 44 574 15 0;#P window linecount 1;#P newex 98 600 29 196617 gate;#P newex 44 600 29 196617 gate;#P message 158 600 20 196617 10;#P newex 44 630 58 196617 noteout 10;#P number 826 330 35 9 0 0 0 3 0 0 0 221 221 221 222 222 222 0 0 0;#P newex 688 369 49 196617 r r22val;#P newex 611 369 49 196617 r r12val;#P newex 535 369 49 196617 r r02val;#P newex 459 369 49 196617 r r21val;#P newex 381 369 49 196617 r r11val;#P newex 306 369 49 196617 r r01val;#P newex 229 369 49 196617 r r20val;#P newex 150 369 49 196617 r r10val;#P newex 74 369 49 196617 r r00val;#P number 74 461 35 9 0 127 3 3 0 0 0 221 221 221 222 222 222 0 0 0;#P newex 74 439 41 196617 * 127.;#P message 74 481 37 196617 81 \$1;#P number 150 461 35 9 0 127 3 3 0 0 0 221 221 221 222 222 222 0 0 0;#P newex 150 439 41 196617 * 127.;#P message 150 481 37 196617 84 \$1;#P number 229 461 35 9 0 127 3 3 0 0 0 221 221 221 222 222 222 0 0 0;#P newex 229 439 41 196617 * 127.;#P message 229 481 37 196617 76 \$1;#P number 688 461 35 9 0 127 3 3 0 0 0 221 221 221 222 222 222 0 0 0;#P newex 688 439 41 196617 * 127.;#P message 688 481 37 196617 41 \$1;#P number 611 461 35 9 0 127 3 3 0 0 0 221 221 221 222 222 222 0 0 0;#P newex 611 439 41 196617 * 127.;#P message 611 481 37 196617 69 \$1;#P number 535 461 35 9 0 127 3 3 0 0 0 221 221 221 222 222 222 0 0 0;#P newex 535 439 41 196617 * 127.;#P message 535 481 37 196617 57 \$1;#P number 459 461 35 9 0 127 3 3 0 0 0 221 221 221 222 222 222 0 0 0;#P newex 459 439 41 196617 * 127.;#P message 459 481 37 196617 64 \$1;#P number 306 461 35 9 0 127 3 3 0 0 0 221 221 221 222 222 222 0 0 0;#P newex 306 439 41 196617 * 127.;#P message 306 481 37 196617 67 \$1;#P number 381 461 35 9 0 127 3 3 0 0 0 221 221 221 222 222 222 0 0 0;#P newex 381 439 41 196617 * 127.;#P newex 688 402 70 196617 speedlim 100;#P newex 611 402 70 196617 speedlim 100;#P newex 535 402 70 196617 speedlim 100;#P newex 459 402 70 196617 speedlim 100;#P newex 381 402 70 196617 speedlim 100;#P newex 306 402 70 196617 speedlim 100;#P newex 229 402 70 196617 speedlim 100;#P newex 150 402 70 196617 speedlim 100;#P newex 74 402 70 196617 speedlim 100;#P message 381 481 37 196617 69 \$1;#P newex 63 564 94 196617 makenote 100 500;#P window linecount 0;#P newex 41 43 86 196617 jcom.rgb2luma%;#P outlet 181 251 15 0;#P user jit.pwindow 217 119 242 182 0 1 0 0 1 0;#P newex 35 89 58 196617 r jmod.init;#P newex 35 112 74 196617 t 0.05 2 4 0.2;#P inlet 41 22 15 0;#P comment 218 29 196 196617 glue our regions back together for display;#N vpatcher 401 214 1036 612;#P window setfont "Sans Serif" 9.;#P window linecount 1;#P comment 307 311 59 196617 output;#P comment 68 311 59 196617 input;#P newex 209 222 39 196617 r r22a;#P newex 134 222 39 196617 r r12a;#P newex 59 222 39 196617 r r02a;#P user jit.pwindow 208 241 68 54 0 1 0 0 1 0;#P user jit.pwindow 133 241 68 54 0 1 0 0 1 0;#P user jit.pwindow 58 241 68 54 0 1 0 0 1 0;#P newex 209 147 39 196617 r r21a;#P newex 134 147 39 196617 r r11a;#P newex 59 147 39 196617 r r01a;#P user jit.pwindow 208 166 68 54 0 1 0 0 1 0;#P user jit.pwindow 133 166 68 54 0 1 0 0 1 0;#P user jit.pwindow 58 166 68 54 0 1 0 0 1 0;#P newex 209 72 39 196617 r r20a;#P newex 134 72 39 196617 r r10a;#P newex 59 72 39 196617 r r00a;#P user jit.pwindow 208 91 68 54 0 1 0 0 1 0;#P user jit.pwindow 133 91 68 54 0 1 0 0 1 0;#P user jit.pwindow 58 91 68 54 0 1 0 0 1 0;#P user jit.pwindow 295 92 68 54 0 1 0 0 1 0;#P user jit.pwindow 370 92 68 54 0 1 0 0 1 0;#P user jit.pwindow 445 92 68 54 0 1 0 0 1 0;#P newex 296 73 39 196617 r r00b;#P newex 371 73 39 196617 r r10b;#P newex 446 73 39 196617 r r20b;#P user jit.pwindow 295 167 68 54 0 1 0 0 1 0;#P user jit.pwindow 370 167 68 54 0 1 0 0 1 0;#P user jit.pwindow 445 167 68 54 0 1 0 0 1 0;#P newex 296 148 39 196617 r r01b;#P newex 371 148 39 196617 r r11b;#P newex 446 148 39 196617 r r21b;#P user jit.pwindow 295 242 68 54 0 1 0 0 1 0;#P user jit.pwindow 370 242 68 54 0 1 0 0 1 0;#P user jit.pwindow 445 242 68 54 0 1 0 0 1 0;#P newex 296 223 39 196617 r r02b;#P newex 371 223 39 196617 r r12b;#P newex 446 223 39 196617 r r22b;#P window linecount 3;#P comment 171 26 263 196617 the following shows our region input and output. leaving this patch closed to avoid too much overhead from using too many instances of jit.pwindow;#P connect 22 0 19 0;#P connect 28 0 25 0;#P connect 34 0 31 0;#P connect 23 0 20 0;#P connect 29 0 26 0;#P connect 35 0 32 0;#P connect 24 0 21 0;#P connect 30 0 27 0;#P connect 36 0 33 0;#P connect 15 0 18 0;#P connect 9 0 12 0;#P connect 3 0 6 0;#P connect 14 0 17 0;#P connect 8 0 11 0;#P connect 2 0 5 0;#P connect 13 0 16 0;#P connect 7 0 10 0;#P connect 1 0 4 0;#P pop;#P newobj 424 27 73 196617 p region_view;#P newex 538 47 39 196617 r r22b;#P newex 498 47 39 196617 r r12b;#P newex 458 47 39 196617 r r02b;#P newex 418 47 39 196617 r r21b;#P newex 378 47 39 196617 r r11b;#P newex 338 47 39 196617 r r01b;#P newex 298 47 39 196617 r r20b;#P newex 258 47 39 196617 r r10b;#P newex 218 47 39 196617 r r00b;#P newex 218 74 330 196617 jit.glue @rows 3 @columns 3;#P flonum 35 275 35 9 0 0 0 3 0 0 0 221 221 221 222 222 222 0 0 0;#P newex 35 297 105 196617 s region_thresh_post;#P flonum 35 231 35 9 0 0 0 3 0 0 0 221 221 221 222 222 222 0 0 0;#P newex 35 253 101 196617 s region_slide_down;#P flonum 35 189 35 9 0 0 0 3 0 0 0 221 221 221 222 222 222 0 0 0;#P newex 35 211 88 196617 s region_slide_up;#P flonum 35 147 35 9 0 0 0 3 0 0 0 221 221 221 222 222 222 0 0 0;#P newex 35 169 101 196617 s region_thresh_pre;#N vpatcher 468 207 938 549;#P user jit.pwindow 324 67 68 54 0 1 0 0 1 0;#P window setfont "Sans Serif" 9.;#P window linecount 0;#P comment 84 140 230 196617 split into regions and send to various subpatches;#P comment 164 109 119 196617 pixel motion threshold;#P comment 54 216 100 196617 region analysis;#P window linecount 2;#P comment 122 52 138 196617 convert rgb to greyscale (luminance);#P window linecount 1;#P newex 266 286 101 196617 jit-region-mean r22;#P newex 160 286 101 196617 jit-region-mean r12;#P newex 53 286 101 196617 jit-region-mean r02;#P newex 266 261 101 196617 jit-region-mean r21;#P newex 160 260 101 196617 jit-region-mean r11;#P newex 53 260 101 196617 jit-region-mean r01;#P newex 266 235 101 196617 jit-region-mean r20;#P newex 160 234 101 196617 jit-region-mean r10;#P newex 53 234 101 196617 jit-region-mean r00;#P newex 373 184 39 196617 s r22a;#P newex 333 184 39 196617 s r12a;#P newex 293 184 39 196617 s r02a;#P newex 252 183 39 196617 s r21a;#P newex 212 183 39 196617 s r11a;#P newex 172 183 39 196617 s r01a;#P newex 132 183 39 196617 s r20a;#P newex 92 183 39 196617 s r10a;#P newex 52 183 39 196617 s r00a;#P flonum 152 85 35 9 0 0 0 3 0 0 0 221 221 221 222 222 222 0 0 0;#P newex 52 105 110 196617 jit.op @op >p @val 0.1;#P newex 52 159 371 196617 jit.scissors @rows 3 @columns 3;#P inlet 52 30 15 0;#P connect 0 0 2 0;#P connect 2 0 1 0;#P connect 1 0 4 0;#P connect 1 1 5 0;#P connect 1 2 6 0;#P connect 3 0 2 1;#P connect 1 3 7 0;#P connect 1 4 8 0;#P connect 1 5 9 0;#P connect 1 6 10 0;#P hidden connect 2 0 26 0;#P connect 1 7 11 0;#P connect 1 8 12 0;#P pop;#P newobj 41 65 40 196617 p stuff;#P connect 23 0 22 0;#P connect 22 0 2 0;#P connect 2 0 1 0;#P fasten 22 1 4 0 61 138 40 138;#P connect 4 0 3 0;#P fasten 22 2 6 0 82 138 40 138;#P connect 6 0 5 0;#P fasten 22 3 8 0 103 138 40 138;#P connect 8 0 7 0;#P connect 21 0 26 0;#P connect 26 0 0 0;#P connect 81 0 78 0;#P connect 78 0 76 0;#P connect 76 0 74 0;#P connect 79 0 27 0;#P hidden connect 58 0 27 0;#P hidden connect 55 0 27 0;#P hidden connect 52 0 27 0;#P hidden connect 49 0 27 0;#P hidden connect 46 0 27 0;#P hidden connect 43 0 27 0;#P hidden connect 40 0 27 0;#P hidden connect 28 0 27 0;#P hidden connect 61 0 27 0;#P connect 27 0 76 1;#P connect 77 0 74 1;#P connect 64 0 29 0;#P connect 29 0 62 0;#P hidden connect 62 0 63 0;#P connect 63 0 61 0;#P connect 75 0 74 2;#P connect 78 0 77 0;#P connect 79 1 27 1;#P connect 27 1 77 1;#P hidden fasten 73 0 29 1 831 391 139 391;#P connect 65 0 30 0;#P connect 30 0 59 0;#P hidden connect 59 0 60 0;#P connect 60 0 58 0;#P connect 9 0 25 0;#P hidden fasten 73 0 30 1 831 391 209 391;#P connect 10 0 9 0;#P connect 9 0 24 0;#P connect 66 0 31 0;#P connect 31 0 56 0;#P hidden connect 56 0 57 0;#P connect 57 0 55 0;#P connect 79 0 80 0;#P connect 11 0 9 1;#P hidden fasten 73 0 31 1 831 391 288 391;#P connect 12 0 9 2;#P connect 67 0 32 0;#P connect 32 0 41 0;#P hidden connect 41 0 42 0;#P connect 42 0 40 0;#P connect 13 0 9 3;#P hidden fasten 73 0 32 1 831 391 365 391;#P connect 14 0 9 4;#P connect 33 0 38 0;#P hidden connect 38 0 39 0;#P connect 39 0 28 0;#P connect 15 0 9 5;#P hidden fasten 73 0 33 1 831 391 440 391;#P connect 16 0 9 6;#P connect 69 0 34 0;#P connect 34 0 44 0;#P hidden connect 44 0 45 0;#P connect 45 0 43 0;#P connect 17 0 9 7;#P hidden fasten 73 0 34 1 831 391 518 391;#P connect 70 0 35 0;#P connect 35 0 47 0;#P hidden connect 47 0 48 0;#P connect 48 0 46 0;#P connect 18 0 9 8;#P hidden fasten 73 0 35 1 831 391 594 391;#P connect 36 0 50 0;#P hidden connect 50 0 51 0;#P connect 51 0 49 0;#P hidden fasten 73 0 36 1 831 391 670 391;#P connect 72 0 37 0;#P connect 37 0 53 0;#P hidden connect 53 0 54 0;#P connect 54 0 52 0;#P hidden fasten 73 0 37 1 831 368 747 368;#P pop;#P newobj 713 214 43 196617 p soner;#P bpatcher 14 1 255 60 0 0 jmod.input%.mxt 0;#P objectname /input%;#P user jit.fpsgui 271 1 60 196617 0;#P user jit.pwindow 712 245 322 242 0 1 0 0 1 0;#P objectname jit.pwindow[3];#P bpatcher 14 61 255 60 0 0 jmod.orsize%.mxt 0 /orsize%;#P objectname /orsize%;#P bpatcher 14 121 255 60 0 0 jmod.brcosa%.mxt 0 /brcosa%;#P objectname /brcosa%;#P user jit.pwindow 11 245 322 242 0 1 0 0 1 0;#P objectname jit.pwindow[2];#P window linecount 3;#P message 287 47 77 196617 \; jcom.init bang \; max refresh \;;#P user jit.pwindow 10 510 1026 242 0 1 0 0 1 0;#P objectname jit.pwindow[1];#P hidden fasten 12 0 0 0 1009 491 16 491;#P hidden fasten 3 1 2 0 264 185 17 185;#P hidden connect 7 1 4 1;#P hidden connect 4 1 3 1;#P hidden connect 3 1 6 0;#P fasten 14 0 21 0 360 206 360 206;#P hidden fasten 14 1 15 0 605 239 360 239;#P hidden connect 20 1 17 0;#P hidden connect 16 0 20 0;#P hidden fasten 14 0 16 0 360 208 456 208;#P hidden connect 3 1 14 1;#P connect 10 0 9 0;#P hidden connect 16 1 19 0;#P hidden connect 14 0 9 1;#P hidden connect 19 1 18 0;#P connect 11 0 8 0;#P hidden connect 8 0 5 0;#P hidden connect 14 1 8 1;#P hidden connect 14 1 13 1;#P hidden fasten 13 2 12 0 977 202 1009 202;#P pop;