max v2;#N vpatcher 42 44 1312 780;#P origin 20 -19;#P bpatcher 94 223 255 60 0 0 jmod.motion%.mxt 0 /motion%;#P objectname /motion%;#P window setfont "Sans Serif" 9.;#P window linecount 1;#P comment 615 325 18 196617 on;#P window linecount 2;#P comment 689 316 100 196617 time between samples;#P number 650 322 35 9 0 0 0 3 0 0 0 221 221 221 222 222 222 0 0 0;#P window linecount 1;#P hidden newex 409 391 85 196617 s time-threshold;#P hidden newex 451 369 60 196617 s threshold;#P toggle 596 322 15 0;#P hidden newex 596 344 64 196617 metro 2000;#P toggle 6 19 15 0;#P message 20 19 102 196617 /file/framedump \$1;#P bpatcher 6 41 255 60 0 0 jmod.input%.mxt 0 /input%;#P objectname /input%;#P bpatcher 6 101 255 60 0 0 jmod.orsize%.mxt 0 /orsize%;#P objectname /orsize%;#P bpatcher 6 161 255 60 0 0 jmod.brcosa%.mxt 0 /brcosa%;#P objectname /brcosa%;#P user jit.pwindow 1120 588 162 122 0 1 0 0 1 0;#P user jit.pwindow 960 588 162 122 0 1 0 0 1 0;#P user jit.pwindow 800 588 162 122 0 1 0 0 1 0;#P user jit.pwindow 640 588 162 122 0 1 0 0 1 0;#P user jit.pwindow 480 588 162 122 0 1 0 0 1 0;#P user jit.pwindow 320 588 162 122 0 1 0 0 1 0;#P user jit.pwindow 160 588 162 122 0 1 0 0 1 0;#P user jit.pwindow 0 588 162 122 0 1 0 0 1 0;#P hidden newex 825 420 105 196617 jcom.spray%;#P window setfont "Sans Serif" 14.;#P flonum 1183 298 -32768 14 0 0 7328 3 0 0 0 221 221 221 222 222 222 0 0 0;#P flonum 1183 298 -32768 14 0 0 7328 3 0 0 0 221 221 221 222 222 222 0 0 0;#P flonum 1183 298 -32768 14 0 0 7328 3 0 0 0 221 221 221 222 222 222 0 0 0;#P flonum 1183 298 -32768 14 0 0 7328 3 0 0 0 221 221 221 222 222 222 0 0 0;#P button 274 375 15 0;#P window setfont "Sans Serif" 9.;#P comment 292 377 111 196617 Bangs when large QOM;#P user jit.pwindow 1120 461 162 122 0 1 0 0 1 0;#P user jit.pwindow 960 461 162 122 0 1 0 0 1 0;#P user jit.pwindow 800 461 162 122 0 1 0 0 1 0;#P user jit.pwindow 640 461 162 122 0 1 0 0 1 0;#P hidden newex 596 370 48 196617 s salient;#P toggle 10 314 15 0;#P hidden newex 40 379 27 196617 gate;#P user com 54 360 103 196617 10;#K set 0 16757 29807 11635 24950 25888 29550 24944 29544 28532 29440;#K end;#P toggle 40 359 15 0;#P hidden newex 10 399 70 196617 mgt.save-file;#P hidden newex 361 287 45 196617 loadbang;#P hidden newex 361 310 59 196617 t 0.25 500;#P comment 397 336 100 196617 Time threshold (ms);#P comment 397 359 75 196617 QOM threshold;#P user jit.pwindow 480 461 162 122 0 1 0 0 1 0;#P user jit.pwindow 320 461 162 122 0 1 0 0 1 0;#P number 361 334 35 9 0 0 1 3 0 0 0 221 221 221 222 222 222 0 0 0;#P flonum 361 356 35 9 0. 0 1 3 0 0 0 221 221 221 222 222 222 0 0 0;#P user jit.pwindow 160 461 162 122 0 1 0 0 1 0;#P user jit.pwindow 0 461 162 122 0 1 0 0 1 0;#P hidden newex 182 325 125 196617 jit.matrix 4 char 160 120;#P hidden newex 10 335 47 196617 gate 1 1;#P comment 24 316 40 196617 On/off;#N vpatcher 108 103 1202 657;#P origin -212 -12;#P toggle 246 36 15 0;#P inlet 283 37 15 0;#P window setfont "Sans Serif" 9.;#P window linecount 1;#P comment 106 428 140 196617 Storing salient image;#P comment 106 365 140 196617 Time threshold;#P comment 106 326 140 196617 Filter repetitions;#P window linecount 2;#P comment 106 291 44 196617 Threshold;#P comment 106 189 140 196617 Autoscaling with a running window of 100 samples;#P window linecount 3;#P comment 106 168 49 196617 First derivative;#P flonum 867 75 35 9 0. 0 1 3 0 0 0 221 221 221 222 222 222 0 0 0;#P window linecount 1;#P newex 823 96 55 196617 slide 5. 5.;#P number 876 117 35 9 0 0 0 3 0 0 0 221 221 221 222 222 222 0 0 0;#P newex 929 157 21 196617 t 0;#P user multiSlider 823 182 242 65 0. 1. 1 3961 15 0 0 2 0 0 0;#M frgb 0 0 0;#M brgb 255 255 255;#M rgb2 127 127 127;#M rgb3 0 0 0;#M rgb4 37 52 91;#M rgb5 74 105 182;#M rgb6 112 158 18;#M rgb7 149 211 110;#M rgb8 187 9 201;#M rgb9 224 62 37;#M rgb10 7 114 128;#P newex 823 116 41 196617 * 100.;#P newex 823 137 116 196617 split 75 1000;#P user multiSlider 740 309 242 65 0. 1. 1 3961 15 0 0 2 0 0 0;#M frgb 0 0 0;#M brgb 255 255 255;#M rgb2 127 127 127;#M rgb3 0 0 0;#M rgb4 37 52 91;#M rgb5 74 105 182;#M rgb6 112 158 18;#M rgb7 149 211 110;#M rgb8 187 9 201;#M rgb9 224 62 37;#M rgb10 7 114 128;#P newex 724 286 186 196617 jcom.autoscale @mode 4 @window 100;#P newex 837 383 60 196617 r threshold;#P user multiSlider 740 447 242 65 0. 1. 1 3961 15 0 0 2 0 0 0;#M frgb 0 0 0;#M brgb 255 255 255;#M rgb2 127 127 127;#M rgb3 0 0 0;#M rgb4 37 52 91;#M rgb5 74 105 182;#M rgb6 112 158 18;#M rgb7 149 211 110;#M rgb8 187 9 201;#M rgb9 224 62 37;#M rgb10 7 114 128;#P flonum 837 404 35 9 0 0 0 3 0 0 0 221 221 221 222 222 222 0 0 0;#P newex 724 423 123 196617 jcom.op @op > @val 0.75;#P flonum 768 244 35 9 0. 0 1 3 0 0 0 221 221 221 222 222 222 0 0 0;#P newex 724 265 55 196617 slide 3. 3.;#P newex 330 326 85 196617 r time-threshold;#P newex 359 249 60 196617 r threshold;#P newex 246 189 186 196617 jcom.autoscale @mode 4 @window 100;#P user multiSlider 448 246 242 65 0. 1. 1 3961 15 0 0 2 0 0 0;#M frgb 0 0 0;#M brgb 255 255 255;#M rgb2 127 127 127;#M rgb3 0 0 0;#M rgb4 37 52 91;#M rgb5 74 105 182;#M rgb6 112 158 18;#M rgb7 149 211 110;#M rgb8 187 9 201;#M rgb9 224 62 37;#M rgb10 7 114 128;#P flonum 330 346 35 9 0 0 0 3 0 0 0 221 221 221 222 222 222 0 0 0;#P window linecount 0;#P newex 246 386 32 196617 sel 1;#P button 246 407 15 0;#P newex 246 428 48 196617 s salient;#P newex 246 326 65 196617 jcom.change;#P newex 246 365 94 196617 speedlim 500;#P flonum 359 270 35 9 0 0 0 3 0 0 0 221 221 221 222 222 222 0 0 0;#P newex 246 289 123 196617 jcom.op @op > @val 0.75;#P user multiSlider 448 168 242 65 0. 1. 1 3961 15 0 0 2 0 0 0;#M frgb 0 0 0;#M brgb 255 255 255;#M rgb2 127 127 127;#M rgb3 0 0 0;#M rgb4 37 52 91;#M rgb5 74 105 182;#M rgb6 112 158 18;#M rgb7 149 211 110;#M rgb8 187 9 201;#M rgb9 224 62 37;#M rgb10 7 114 128;#P newex 246 168 57 196617 jcom.delta;#P comment 106 101 140 196617 Quantity of Motion calculated from the motion image.;#P user multiSlider 448 91 242 65 0. 1. 1 3961 15 0 0 2 0 0 0;#M frgb 0 0 0;#M brgb 255 255 255;#M rgb2 127 127 127;#M rgb3 0 0 0;#M rgb4 37 52 91;#M rgb5 74 105 182;#M rgb6 112 158 18;#M rgb7 149 211 110;#M rgb8 187 9 201;#M rgb9 224 62 37;#M rgb10 7 114 128;#P window linecount 1;#P newex 246 62 47 196617 gate 1 1;#P window linecount 0;#P newex 15 86 48 196617 r salient;#P message 15 121 14 196617 1;#P newex 15 167 40 196617 t 0 l b;#P newex 15 146 27 196617 gate;#P inlet 32 59 15 0;#P outlet 45 194 15 0;#P outlet 30 194 15 0;#P connect 6 0 5 0;#P fasten 4 0 3 0 20 187 9 187 9 141 20 141;#P connect 5 0 3 0;#P connect 3 0 4 0;#P connect 4 1 0 0;#P connect 2 0 3 1;#P connect 4 2 1 0;#P connect 46 0 7 0;#P connect 7 0 10 0;#P connect 10 0 21 0;#P connect 21 0 12 0;#P connect 12 0 15 0;#P connect 15 0 14 0;#P connect 14 0 18 0;#P connect 18 0 17 0;#P connect 17 0 16 0;#P connect 45 0 7 1;#P connect 23 0 19 0;#P connect 19 0 14 1;#P connect 22 0 13 0;#P connect 13 0 12 1;#P fasten 7 0 8 0 251 85 453 85;#P fasten 21 0 11 0 251 216 443 216 443 164 453 164;#P fasten 12 0 20 0 251 310 443 310 443 243 453 243;#P hidden fasten 7 0 24 0 251 85 729 85;#P connect 24 0 30 0;#P connect 30 0 26 0;#P connect 30 0 31 0;#P connect 26 0 28 0;#P fasten 25 0 24 1 773 262 751 262;#P connect 25 0 24 2;#P hidden fasten 7 0 37 0 251 85 828 85;#P connect 37 0 33 0;#P connect 33 0 32 0;#P fasten 35 0 34 0 934 177 828 177;#P connect 32 0 34 0;#P connect 29 0 27 0;#P connect 27 0 26 1;#P fasten 38 0 37 1 872 93 850 93;#P connect 38 0 37 2;#P connect 36 0 32 1;#P connect 32 1 35 0;#P pop;#P newobj 182 372 79 196617 p find-postures;#P hidden newex 182 396 105 196617 jcom.spray%;#P user jit.pwindow 362 48 322 242 0 1 0 0 1 0;#P comment 596 307 100 196617 time-based sampling;#P window linecount 6;#P comment 715 116 100 196617 This patch is used to output keyframe displays \, either based on perceptual salience or regular time sampling.;#P hidden fasten 3 7 8 0 278 439 6 439;#P hidden fasten 34 7 35 0 921 456 6 456;#P connect 46 0 45 0;#P hidden connect 22 0 6 0;#P hidden connect 6 0 18 0;#P hidden connect 47 0 46 0;#P hidden connect 19 0 21 0;#P hidden connect 21 0 18 1;#P hidden connect 4 1 21 1;#P hidden fasten 3 6 9 0 265 439 166 439;#P hidden fasten 34 6 36 0 908 456 166 456;#P hidden connect 6 0 7 0;#P hidden connect 7 0 4 0;#P hidden fasten 4 1 3 0 256 392 187 392;#P hidden connect 4 0 3 0;#P hidden connect 45 1 44 1;#P hidden connect 44 1 43 1;#P connect 55 0 4 1;#P hidden fasten 3 5 12 0 252 439 326 439;#P hidden fasten 34 5 37 0 895 456 326 456;#P connect 43 1 55 1;#P hidden connect 17 0 16 0;#P hidden connect 16 1 11 0;#P hidden connect 16 0 10 0;#P connect 43 1 2 0;#P hidden connect 11 0 51 0;#P hidden connect 10 0 50 0;#P hidden fasten 3 4 13 0 239 439 486 439;#P hidden fasten 34 4 38 0 882 456 486 456;#P hidden connect 49 0 48 0;#P hidden connect 48 0 23 0;#P hidden fasten 3 3 24 0 226 439 646 439;#P hidden fasten 34 3 39 0 869 456 646 456;#P hidden connect 52 0 48 1;#P hidden fasten 3 2 25 0 213 439 806 439;#P hidden fasten 34 2 40 0 856 456 806 456;#P hidden connect 4 1 34 0;#P hidden fasten 3 7 34 0 278 416 830 416;#P hidden fasten 3 1 26 0 200 439 966 439;#P hidden fasten 34 1 41 0 843 456 966 456;#P hidden fasten 3 0 27 0 187 439 1126 439;#P hidden fasten 34 0 42 0 830 456 1126 456;#P pop;