max v2;
#N vpatcher 20 32 1118 685;
#P origin -143 270;
#P window setfont "Sans Serif" 9.;
#P user umenu 333 72 82 9109543 1 64 88 1;
#X add Automatic;
#X add 1 frame;
#X add 2 frames;
#X add 3 frames;
#X add 4 frames;
#X add 5 frames;
#X add 6 frames;
#X add 7 frames;
#X add 8 frames;
#X add 9 frames;
#P window linecount 1;
#P newex 244 81 19 9109513 t 1;
#P toggle 244 105 27 0;
#P hidden newex 244 58 41 9109513 sel read;
#P hidden newex 244 35 63 9109513 r from-movie;
#P bpatcher 814 31 255 60 0 0 jmod.input%.mxt 0 /input%;
#P objectname /motion%[1];
#P newex 25 350 81 9109513 jcom.autosize%;
#P bpatcher 25 281 255 60 0 0 jmod.motiongram%.mxt 0 /motiongram%;
#P objectname /motiongram%[1];
#P bpatcher 25 222 255 60 0 0 jmod.motion%.mxt 0 /motion%;
#P objectname /motion%;
#P user jit.fpsgui 163 154 60 9109513 0;
#P objectname jit.fpsgui[1];
#P user jit.pwindow 355 122 322 242 0 1 0 0 1 0;
#P objectname jit.pwindow[2];
#N vpatcher 650 159 1148 472;
#P window setfont "Sans Serif" 9.;
#P window linecount 1;
#P newex 22 51 26 9109513 print;
#P newex 50 247 50 9109513 s to-loop;
#P newex 197 60 73 9109513 r from_movie;
#P newex 197 82 74 9109513 route duration;
#P newex 168 222 45 9109513 s blinky;
#P newex 168 198 94 9109513 pak looppoints 0 0;
#P newex 50 222 60 9109513 pak set 0 0;
#P newex 75 198 40 9109513 / 100.;
#P objectname /[5];
#P newex 118 198 40 9109513 / 100.;
#P objectname /[4];
#P newex 75 159 46 9109513 / 1024.;
#P objectname /[1];
#P newex 75 138 47 9109513 * 1024.;
#P objectname *[1];
#P newex 160 159 46 9109513 / 1024.;
#P objectname /;
#P newex 160 138 47 9109513 * 1024.;
#P objectname *;
#P newex 75 92 85 9109513 unpack 0 0 0 0 0;
#P newex 75 71 43 9109513 route 2;
#P newex 75 50 69 9109513 arj.jit.mouse;
#P inlet 75 30 15 0;
#P window linecount 3;
#P comment 306 140 125 9109513 Doing the mouse-tricks for selecting a looping segment from the window.;
#P connect 1 0 17 0;
#P connect 11 0 16 0;
#P connect 1 0 2 0;
#P connect 2 0 3 0;
#P connect 3 0 4 0;
#P connect 4 0 7 0;
#P connect 7 0 8 0;
#P connect 8 0 10 0;
#P connect 10 0 11 1;
#P connect 9 0 11 2;
#P connect 14 0 7 1;
#P connect 6 0 9 0;
#P connect 4 2 5 0;
#P connect 5 0 6 0;
#P connect 12 0 13 0;
#P connect 15 0 14 0;
#P connect 14 0 5 1;
#P connect 8 0 12 1;
#P connect 6 0 12 2;
#P pop 1;
#P hidden newobj 949 620 73 9109513 p mouse-stuff;
#P hidden newex 735 189 50 9109513 r to-loop;
#P hidden newex 713 335 59 9109513 s to-movie;
#P objectname receive[1];
#P hidden newex 713 63 72 9109513 r from-movie;
#P hidden newex 927 283 21 9109513 t 1;
#P hidden newex 927 262 76 9109513 speedlim 1000;
#P hidden newex 721 167 72 9109513 pak set 0 100;
#P hidden newex 721 146 32 9109513 sel 0;
#P hidden message 888 141 39 9109513 set \$1;
#P hidden newex 713 262 38 9109513 * 100;
#P objectname *[4];
#P hidden message 713 126 48 9109513 set 1 \$1;
#P hidden newex 713 104 37 9109513 / 100;
#P objectname /[3];
#P hidden newex 839 283 38 9109513 * 100;
#P objectname *[3];
#P hidden newex 881 283 38 9109513 * 100;
#P objectname *[2];
#P hidden newex 845 104 37 9109513 / 100;
#P objectname /[2];
#P hidden newex 19 64 38 9109513 sel 32;
#P hidden newex 19 43 40 9109513 key;
#P hidden message 799 166 43 9109513 size \$1;
#P user rslider 713 213 240 20 124 1 0 0 0;
#P objectname rslider;
#N vpatcher 478 207 1020 554;
#P window setfont "Sans Serif" 9.;
#P window linecount 0;
#P newex 41 100 20 9109513 t b;
#P window linecount 1;
#P message 86 176 38 9109513 getfps;
#P message 417 176 73 9109513 getframecount;
#P message 348 176 65 9109513 getlooppoints;
#P message 304 176 40 9109513 getloop;
#P message 241 176 59 9109513 getduration;
#P message 173 176 65 9109513 gettimescale;
#P message 128 176 42 9109513 gettime;
#P message 41 176 42 9109513 getrate;
#P inlet 41 40 15 0;
#P newex 41 70 57 9109513 route read;
#P newex 41 265 59 9109513 s to-movie;
#P connect 1 0 11 0;
#P connect 11 0 3 0;
#P connect 3 0 0 0;
#P connect 4 0 0 0;
#P connect 5 0 0 0;
#P connect 6 0 0 0;
#P connect 7 0 0 0;
#P connect 9 0 0 0;
#P connect 10 0 0 0;
#P connect 8 0 0 0;
#P connect 11 0 10 0;
#P connect 11 0 4 0;
#P connect 11 0 5 0;
#P connect 11 0 6 0;
#P connect 11 0 7 0;
#P connect 11 0 8 0;
#P connect 11 0 9 0;
#P pop;
#P hidden newobj 258 190 59 9109513 p get-stuff;
#P hidden newex 36 190 51 9109513 t gettime;
#P hidden newex 98 190 70 9109513 speedlim 500;
#P toggle 952 213 20 0;
#P objectname toggle[3];
#P hidden newex 797 304 94 9109513 pak looppoints 0 0;
#P hidden message 845 166 83 9109513 setminmax 0 \$1;
#P hidden newex 713 83 97 9109513 route time duration;
#P user multiSlider 713 232 240 20 0. 124. 1 2680 47 0 0 2 0 2 0;
#M frgb 0 0 0;
#M brgb 255 255 255;
#M rgb2 127 127 127;
#M rgb3 0 0 0;
#M rgb4 37 52 91;
#M rgb5 74 105 182;
#M rgb6 112 158 18;
#M rgb7 149 211 110;
#M rgb8 187 9 201;
#M rgb9 224 62 37;
#M rgb10 7 114 128;
#P objectname multiSlider;
#P hidden newex 713 304 20 9109513 t b;
#N vpatcher 438 107 1274 633;
#P window setfont "Sans Serif" 9.;
#P window linecount 0;
#P newex 434 108 19 9109513 t 1;
#P newex 432 73 28 9109513 sel 0;
#P window linecount 1;
#P newex 607 204 44 9109513 pack 0 0;
#P newex 607 180 35 9109513 * 1024;
#P number 607 158 35 9 0 0 0 139 0 0 0 221 221 221 222 222 222 0 0 0;
#P message 607 229 96 9109513 framedump 0 \$1 \$2;
#P message 623 423 86 9109513 cancelframedump;
#P inlet 53 32 24 0;
#P newex 177 310 27 9109513 t l b;
#P message 255 348 107 9109513 /motiongram%/clear;
#P newex 255 372 161 9109513 jcom.send jcom.remote.module.to;
#P objectname xraymean[2];
#P window linecount 0;
#P newex 180 252 32 9109513 sel 1;
#P newex 180 231 42 9109513 > 2048;
#P window linecount 2;
#P comment 315 170 64 9109513 Total frames in movie;
#P comment 315 218 74 9109513 Find ncessary frame spacing;
#P window linecount 1;
#P newex 133 199 21 9109513 t 0;
#P newex 133 102 72 9109513 r from-movie;
#P newex 68 281 80 9109513 s clear-window;
#P objectname xraymean[1];
#P toggle 53 171 29 0;
#P newex 53 216 41 9109513 sel 0 1;
#P button 68 241 15 0;
#P newex 256 245 43 9109513 route 0;
#P newex 177 281 110 9109513 pack framedump 0 1 1;
#P number 256 223 35 9 0 0 0 139 0 0 0 221 221 221 222 222 222 0 0 0;
#P newex 256 199 43 9109513 / 1024;
#P newex 394 174 82 9109513 t getframecount;
#P number 243 176 68 9 0 0 0 139 0 0 0 221 221 221 222 222 222 0 0 0;
#P number 180 199 46 9 0 0 0 139 0 0 0 221 221 221 222 222 222 0 0 0;
#P newex 133 176 57 9109513 route done;
#P newex 133 135 164 9109513 route framedump framecount read;
#P message 53 315 86 9109513 cancelframedump;
#P newex 177 348 59 9109513 s to-movie;
#P comment 14 180 34 9109513 Dump;
#P comment 162 219 79 9109513 Dumped frames;
#P fasten 18 0 15 0 138 221 115 221 115 164 58 164;
#P connect 33 0 15 0;
#P connect 15 0 14 0;
#P connect 14 0 3 0;
#P connect 14 1 13 0;
#P connect 13 0 16 0;
#P connect 17 0 4 0;
#P connect 4 0 5 0;
#P connect 5 0 18 0;
#P connect 22 0 18 0;
#P fasten 13 0 11 0 73 275 182 275;
#P connect 11 0 25 0;
#P connect 28 0 25 0;
#P fasten 3 0 2 0 58 340 182 340;
#P fasten 8 0 2 0 399 333 182 333;
#P connect 25 0 2 0;
#P connect 5 1 6 0;
#P connect 6 0 21 0;
#P connect 21 0 22 0;
#P connect 7 0 21 1;
#P fasten 4 1 7 0 189 169 248 169;
#P connect 7 0 11 2;
#P connect 25 1 24 0;
#P connect 24 0 23 0;
#P connect 7 0 9 0;
#P connect 9 0 10 0;
#P connect 10 0 12 0;
#P connect 12 1 11 3;
#P fasten 4 2 8 0 240 159 399 159;
#P connect 26 0 32 0;
#P connect 32 0 33 0;
#P connect 32 1 29 0;
#P connect 29 0 30 0;
#P connect 30 0 31 0;
#P connect 31 0 28 0;
#P fasten 29 0 31 1 612 176 646 176;
#P pop;
#P newobj 239 157 47 9109513 p mode1;
#P hidden newex 127 60 41 9109513 sel 1 0;
#P user jit.pwindow 24 370 1026 242 0 1 0 0 1 0;
#P objectname jit.pwindow[1];
#P hidden newex 183 190 72 9109513 s from-movie;
#P hidden newex 46 139 59 9109513 r to-movie;
#P objectname receive;
#P hidden message 952 304 41 9109513 loop \$1;
#P number 954 235 76 9 0 0 8224 139 0 0 0 221 221 221 222 222 222 0 0 0;
#P objectname time;
#P hidden message 737 304 43 9109513 time \$1;
#P message 94 85 28 9109513 read;
#P message 157 85 27 9109513 stop;
#P message 127 85 31 9109513 start;
#P flonum 53 85 35 9 0.5 0 1 139 0 0 0 221 221 221 222 222 222 0 0 0;
#P objectname flonum;
#P toggle 19 85 15 0;
#P objectname toggle;
#P hidden newex 19 105 44 9109513 metro 2;
#P hidden newex 25 162 125 9109513 jit.qt.movie @autostart 0;
#B color 5;
#P objectname jit.qt.movie;
#P comment 974 216 26 9109513 loop;
#P hidden connect 27 0 28 0;
#P hidden connect 28 0 3 0;
#P hidden connect 3 0 2 0;
#P hidden fasten 2 0 1 0 24 142 30 142;
#P hidden fasten 5 0 1 0 132 161 30 161;
#P hidden fasten 6 0 1 0 162 161 30 161;
#P hidden fasten 7 0 1 0 99 161 30 161;
#P hidden connect 11 0 1 0;
#P hidden connect 22 0 1 0;
#P fasten 47 2 48 0 274 346 30 346;
#P connect 48 0 13 0;
#P hidden connect 1 0 23 0;
#P hidden connect 4 0 2 1;
#P hidden connect 23 0 22 0;
#P hidden connect 3 0 14 0;
#P hidden connect 14 0 5 0;
#P hidden connect 14 1 6 0;
#P hidden connect 1 0 45 0;
#P hidden fasten 1 1 12 0 145 185 188 185;
#P connect 52 0 15 0;
#P connect 54 0 15 0;
#P connect 50 0 51 0;
#P connect 51 0 53 0;
#P connect 53 0 52 0;
#P hidden fasten 1 1 24 0 145 184 263 184;
#P hidden fasten 1 0 46 1 30 213 275 213;
#P connect 46 1 47 1;
#P hidden connect 1 0 44 0;
#P hidden connect 40 0 18 0;
#P hidden connect 18 0 32 0;
#P hidden connect 32 0 33 0;
#P hidden connect 42 0 25 0;
#P hidden connect 26 0 25 0;
#P hidden connect 37 0 25 0;
#P hidden connect 33 0 17 0;
#P hidden connect 19 0 17 0;
#P hidden connect 17 0 34 0;
#P hidden connect 34 0 16 0;
#P hidden fasten 8 0 41 0 742 327 718 327;
#P hidden fasten 16 0 41 0 718 328 718 328;
#P hidden fasten 20 0 41 0 802 328 718 328;
#P hidden fasten 10 0 41 0 957 327 718 327;
#P hidden connect 21 0 36 0;
#P hidden connect 36 0 37 0;
#P hidden connect 9 0 8 0;
#P hidden connect 34 0 8 0;
#P hidden connect 29 0 37 2;
#P hidden connect 29 0 26 0;
#P hidden connect 25 0 31 0;
#P hidden connect 31 0 20 1;
#P hidden fasten 18 1 29 0 761 102 850 102;
#P hidden connect 29 0 19 0;
#P hidden connect 25 1 30 0;
#P hidden connect 30 0 20 2;
#P hidden connect 18 0 35 0;
#P hidden connect 25 1 38 0;
#P hidden connect 42 0 38 0;
#P hidden connect 38 0 39 0;
#P hidden fasten 13 1 43 0 1044 616 954 616;
#P hidden connect 39 0 21 0;
#P hidden connect 21 0 10 0;
#P hidden connect 35 0 9 0;
#P pop;
