max v2;#N vpatcher 1300 120 2043 827;#P origin -5 -80;#P window setfont "Sans Serif" 9.;#P window linecount 1;#P newex 204 615 81 196617 jcom.autosize%;#P user jit.pwindow 314 417 162 122 0 1 0 0 1 0;#P window linecount 2;#P comment 491 418 205 196617 Automatically crop the image to the maximum boundary box.;#P window linecount 1;#P comment 491 290 205 196617 Change brightness and contrast;#P comment 491 166 205 196617 Zooming and offsetting the image;#P user jit.pwindow 314 289 162 122 0 1 0 0 1 0;#P user jit.pwindow 314 165 162 122 0 1 0 0 1 0;#P user jit.pwindow 314 40 162 122 0 1 0 0 1 0;#P bpatcher 31 41 255 60 0 0 jmod.input%.mxt 0;#P objectname /input%;#P bpatcher 31 166 255 60 0 0 jmod.orsize%.mxt 0;#P objectname /orsize%;#P bpatcher 31 290 255 60 0 0 jmod.brcosa%.mxt 0 /brcosa%;#P objectname /brcosa%;#P bpatcher 31 545 255 60 0 0 jmod.motiongram%.mxt 0 /motiongram%;#P objectname /motiongram%[1];#P user jit.pwindow 314 544 362 122 0 1 0 0 1 0;#P bpatcher 31 418 255 60 0 0 jmod.motion%.mxt 0 /motion%;#P objectname /motion%;#P comment 491 41 205 196617 Playing back video file or live camera input;#P fasten 3 2 14 0 280 610 209 610;#P connect 6 1 5 1;#P connect 5 1 4 1;#P connect 4 1 1 1;#P connect 1 1 3 1;#P hidden connect 6 1 7 0;#P hidden connect 5 1 8 0;#P hidden connect 4 1 9 0;#P hidden connect 1 1 13 0;#P hidden connect 14 0 2 0;#P pop;