max v2;#N vpatcher 83 44 1144 773;#P origin -177 -116;#P button 487 93 15 0;#P window setfont "Sans Serif" 9.;#P window linecount 1;#N vpatcher 638 153 1232 466;#P inlet 99 35 15 0;#P button 99 60 15 0;#P window setfont "Sans Serif" 9.;#P message 333 163 194 196617 /input%/file/on 1;#P window linecount 1;#P newex 333 127 62 196617 prepend set;#P newex 333 94 188 196617 jcom.receive jcom.remote.module.from;#P message 113 135 108 196617 /brcosa%/contrast 5;#P message 101 115 117 196617 /brcosa%/brightness 5;#P window linecount 0;#P newex 99 82 53 196617 t b b b b;#P window linecount 1;#P message 123 153 179 196617 /input%/file/read aashild-short.mov;#P message 141 175 93 196617 /input%/file/on 1;#P window linecount 0;#P newex 101 206 161 196617 jcom.send jcom.remote.module.to;#P connect 10 0 9 0;#P connect 9 0 3 0;#P connect 3 3 4 0;#P connect 1 0 0 0;#P connect 2 0 0 0;#P connect 5 0 0 0;#P connect 4 0 0 0;#P connect 3 2 5 0;#P connect 3 1 2 0;#P connect 3 0 1 0;#P connect 6 0 7 0;#P connect 7 0 8 0;#P pop;#P newobj 487 115 33 196617 p init;#N vpatcher 20 74 439 477;#P origin 0 -2;#P window setfont "Sans Serif" 9.;#P window linecount 1;#P newex 49 292 63 196617 jit.op @op <;#P inlet 49 48 15 0;#P outlet 49 337 15 0;#P window linecount 0;#P message 178 224 73 196617 slide_down \$1;#P flonum 115 202 35 9 0 0 0 3 0 0 0 221 221 221 222 222 222 0 0 0;#P message 115 224 60 196617 slide_up \$1;#P newex 102 250 172 196617 jit.slide @slide_up 6 @slide_down 6;#P flonum 116 89 35 9 0 0 0 3 0 0 0 221 221 221 222 222 222 0 0 0;#P flonum 178 89 35 9 0 0 0 3 0 0 0 221 221 221 222 222 222 0 0 0;#P message 178 112 41 196617 ring \$1;#P message 116 112 52 196617 center \$1;#P flonum 236 89 47 9 0 0 0 3 0 0 0 221 221 221 222 222 222 0 0 0;#P message 236 112 49 196617 ripple \$1;#P newex 102 140 256 196617 jit.fastblur @range 3 @center 1 @ring 0.5 @ripple 0.5;#B color 5;#P connect 12 0 13 0;#P connect 13 0 11 0;#P fasten 4 0 0 0 183 129 107 129;#P fasten 3 0 0 0 121 129 107 129;#P fasten 1 0 0 0 241 129 107 129;#P fasten 12 0 0 0 54 101 107 101;#P connect 8 0 7 0;#P connect 10 0 7 0;#P connect 0 0 7 0;#P connect 7 0 13 1;#P connect 9 0 8 0;#P connect 6 0 3 0;#P connect 5 0 4 0;#P connect 9 0 10 0;#P connect 2 0 1 0;#P pop;#P newobj 527 261 62 196617 p blur-slide;#N vpatcher 20 74 473 397;#P window setfont "Sans Serif" 9.;#P window linecount 1;#P newex 50 204 71 196617 jit.op @op -m;#P inlet 50 32 15 0;#P outlet 50 266 15 0;#P number 338 92 35 9 0 0 0 3 0 0 0 221 221 221 222 222 222 0 0 0;#P window linecount 0;#P message 338 112 65 196617 normalize \$1;#P flonum 289 90 35 9 0 0 0 3 0 0 0 221 221 221 222 222 222 0 0 0;#P message 289 112 41 196617 gain \$1;#P flonum 235 90 35 9 0 0 0 3 0 0 0 221 221 221 222 222 222 0 0 0;#P message 235 112 45 196617 bleed \$1;#P flonum 179 90 35 9 0 0 0 3 0 0 0 221 221 221 222 222 222 0 0 0;#P message 179 112 32 196617 fb \$1;#P flonum 122 90 35 9 0 0 0 3 0 0 0 221 221 221 222 222 222 0 0 0;#P message 122 112 31 196617 ff \$1;#P newex 111 136 218 196617 jit.wake @ff 0.1 @fb 0.6 @bleed 0.15 @gain 1;#P connect 12 0 13 0;#P connect 13 0 11 0;#P fasten 7 0 0 0 294 132 116 132;#P fasten 5 0 0 0 240 132 116 132;#P fasten 3 0 0 0 184 132 116 132;#P fasten 1 0 0 0 127 132 116 132;#P fasten 9 0 0 0 343 132 116 132;#P connect 12 0 0 0;#P connect 0 0 13 1;#P connect 2 0 1 0;#P connect 4 0 3 0;#P connect 6 0 5 0;#P connect 8 0 7 0;#P connect 10 0 9 0;#P pop;#P newobj 484 262 41 196617 p wake;#N vpatcher 459 93 1151 460;#P window setfont "Sans Serif" 9.;#P flonum 244 73 35 9 0 0 0 3 0 0 0 221 221 221 222 222 222 0 0 0;#P window linecount 1;#P newex 142 101 112 196617 jit.op @op > @val 0.01;#P newex 51 261 64 196617 jit.op @op +;#P inlet 51 27 15 0;#P outlet 51 329 15 0;#P number 105 108 24 9 1 2 35 3 0 0 0 221 221 221 222 222 222 0 0 0;#P window linecount 0;#P newex 105 132 47 196617 gate 2 1;#P number 332 165 35 9 0 0 0 3 0 0 0 221 221 221 222 222 222 0 0 0;#P message 332 187 65 196617 normalize \$1;#P flonum 283 165 35 9 0 0 0 3 0 0 0 221 221 221 222 222 222 0 0 0;#P message 283 187 41 196617 gain \$1;#P flonum 229 165 35 9 0 0 0 3 0 0 0 221 221 221 222 222 222 0 0 0;#P message 229 187 45 196617 bleed \$1;#P flonum 173 165 35 9 0 0 0 3 0 0 0 221 221 221 222 222 222 0 0 0;#P message 173 187 32 196617 fb \$1;#P flonum 116 165 35 9 0 0 0 3 0 0 0 221 221 221 222 222 222 0 0 0;#P message 116 187 31 196617 ff \$1;#P newex 105 211 218 196617 jit.wake @ff 0.1 @fb 0.6 @bleed 0.15 @gain 1;#P message 532 187 73 196617 slide_down \$1;#P flonum 469 165 35 9 0 0 0 3 0 0 0 221 221 221 222 222 222 0 0 0;#P message 469 187 60 196617 slide_up \$1;#P newex 456 211 172 196617 jit.slide @slide_up 6 @slide_down 6;#P newex 142 71 74 196617 jcom.motion%;#P connect 19 0 20 0;#P connect 20 0 18 0;#P connect 17 0 16 0;#P fasten 14 0 5 0 337 207 110 207;#P fasten 6 0 5 0 121 207 110 207;#P fasten 8 0 5 0 178 207 110 207;#P fasten 10 0 5 0 234 207 110 207;#P fasten 12 0 5 0 288 207 110 207;#P connect 16 0 5 0;#P fasten 1 0 20 1 461 251 110 251;#P connect 5 0 20 1;#P connect 7 0 6 0;#P fasten 19 0 0 0 56 59 147 59;#P connect 0 0 21 0;#P connect 21 0 16 1;#P connect 9 0 8 0;#P connect 11 0 10 0;#P connect 22 0 21 1;#P connect 13 0 12 0;#P connect 15 0 14 0;#P fasten 4 0 1 0 537 205 461 205;#P fasten 2 0 1 0 474 205 461 205;#P fasten 16 1 1 0 147 154 461 154;#P connect 3 0 2 0;#P fasten 3 0 4 0 474 183 537 183;#P pop;#P newobj 441 263 39 196617 p slide;#P bpatcher 36 350 255 60 0 0 jmod.record%.mxt 0 /record%;#P objectname /record_demo;#P message 158 234 40 196617 /reset;#P bpatcher 29 103 255 60 0 0 jmod.orsize%.mxt 0 /orsize%;#P objectname /orsize%;#P bpatcher 29 163 255 60 0 0 jmod.brcosa%.mxt 0 /brcosa%;#P objectname /brcosa%;#P bpatcher 29 43 255 60 0 0 jmod.input%.mxt 0;#P objectname /input%;#P toggle 269 426 15 0;#P newex 209 445 71 196617 mgt.save-file;#P newex 200 233 83 196617 jcom.autocrop%;#P newex 398 315 81 196617 jcom.autosize%;#P newex 398 287 141 196617 jit.glue @rows 2 @columns 2;#P user jit.fpsgui 293 195 60 196617 0;#P user jit.pwindow 397 335 276 362 0 1 0 0 1 0;#P fasten 8 1 4 0 279 227 205 227;#P hidden connect 10 0 4 0;#P hidden connect 2 0 5 0;#P fasten 5 0 6 0 214 466 289 466 289 421 274 421;#P connect 6 0 5 2;#P hidden connect 7 1 9 1;#P hidden connect 9 1 8 1;#P fasten 2 0 11 1 403 309 286 309;#P hidden connect 8 1 1 0;#P fasten 4 0 2 0 205 255 403 255;#P connect 2 0 3 0;#P connect 3 0 0 0;#P fasten 4 0 12 0 205 255 446 255;#P connect 12 0 2 1;#P fasten 4 0 13 0 205 255 489 255;#P connect 13 0 2 2;#P connect 16 0 15 0;#P fasten 4 0 14 0 205 255 532 255;#P connect 14 0 2 3;#P pop;