max v2;#N vpatcher 84 44 740 769;#P origin -5 -79;#P button 427 25 15 0;#P window setfont "Sans Serif" 9.;#P window linecount 1;#N vpatcher 524 94 857 406;#P window setfont "Sans Serif" 9.;#P window linecount 1;#P message 99 199 121 196617 /input%/source_mode 1;#P inlet 99 35 15 0;#P button 99 60 15 0;#P message 99 137 108 196617 /brcosa%/contrast 5;#P message 99 118 117 196617 /brcosa%/brightness 5;#P window linecount 0;#P newex 99 82 53 196617 t b b b b;#P window linecount 1;#P message 99 158 179 196617 /input%/file/read aashild-short.mov;#P message 99 179 93 196617 /input%/file/on 1;#P window linecount 0;#P newex 99 239 161 196617 jcom.send jcom.remote.module.to;#P connect 7 0 6 0;#P connect 6 0 3 0;#P connect 3 3 4 0;#P connect 3 2 5 0;#P connect 3 1 2 0;#P connect 3 0 1 0;#P connect 3 0 8 0;#P connect 8 0 0 0;#P connect 1 0 0 0;#P connect 2 0 0 0;#P connect 5 0 0 0;#P connect 4 0 0 0;#P pop;#P newobj 427 44 33 196617 p init;#P newex 194 644 81 196617 jcom.autosize%;#P user jit.pwindow 304 449 162 122 0 1 0 0 1 0;#P comment 475 450 130 196617 Calculate the motion image;#P comment 475 326 150 196617 Change brightness and contrast;#P comment 475 202 157 196617 Zooming and offsetting the image;#P user jit.pwindow 304 325 162 122 0 1 0 0 1 0;#P user jit.pwindow 304 201 162 122 0 1 0 0 1 0;#P user jit.pwindow 304 77 162 122 0 1 0 0 1 0;#P bpatcher 21 78 255 60 0 0 jmod.input%.mxt 0;#P objectname /input%;#P bpatcher 21 202 255 60 0 0 jmod.orsize%.mxt 0;#P objectname /orsize%;#P bpatcher 21 326 255 60 0 0 jmod.brcosa%.mxt 0 /brcosa%;#P objectname /brcosa%;#P bpatcher 21 574 255 60 0 0 jmod.motiongram%.mxt 0 /motiongram%;#P objectname /motiongram%[1];#P user jit.pwindow 304 573 322 242 0 1 0 0 1 0;#P bpatcher 21 450 255 60 0 0 jmod.motion%.mxt 0 /motion%;#P objectname /motion%;#P comment 475 78 151 196617 Video input from camera or file;#P window setfont "Sans Serif" 18.;#P comment 18 21 388 196626 Overview of the creation of MOTIONGRAMS;#P fasten 4 2 15 0 270 638 199 638;#P connect 7 1 6 1;#P connect 6 1 5 1;#P connect 5 1 2 1;#P connect 2 1 4 1;#P hidden connect 7 1 8 0;#P hidden connect 6 1 9 0;#P hidden connect 5 1 10 0;#P hidden connect 2 1 14 0;#P hidden connect 15 0 3 0;#P connect 17 0 16 0;#P pop;