max v2;#N vpatcher 1300 120 2023 809;#P origin -5 -60;#P window setfont "Sans Serif" 9.;#P newex 204 595 81 196617 jcom.autosize%;#P user jit.pwindow 314 397 162 122 0 1 0 0 1 0;#P comment 491 398 205 196617 Calculate the motion image;#P comment 491 270 205 196617 Change brightness and contrast;#P comment 491 146 205 196617 Zooming and offsetting the image;#P user jit.pwindow 314 269 162 122 0 1 0 0 1 0;#P user jit.pwindow 314 145 162 122 0 1 0 0 1 0;#P user jit.pwindow 314 20 162 122 0 1 0 0 1 0;#P bpatcher 31 21 255 60 0 0 jmod.input%.mxt 0;#P objectname /input%;#P bpatcher 31 146 255 60 0 0 jmod.orsize%.mxt 0;#P objectname /orsize%;#P bpatcher 31 270 255 60 0 0 jmod.brcosa%.mxt 0 /brcosa%;#P objectname /brcosa%;#P bpatcher 31 525 255 60 0 0 jmod.motiongram%.mxt 0 /motiongram%;#P objectname /motiongram%[1];#P user jit.pwindow 314 524 322 122 0 1 0 0 1 0;#P bpatcher 31 398 255 60 0 0 jmod.motion%.mxt 0 /motion%;#P objectname /motion%;#P comment 491 21 205 196617 Video input from camera or file;#P fasten 3 2 14 0 280 590 209 590;#P connect 6 1 5 1;#P connect 5 1 4 1;#P connect 4 1 1 1;#P connect 1 1 3 1;#P hidden connect 6 1 7 0;#P hidden connect 5 1 8 0;#P hidden connect 4 1 9 0;#P hidden connect 1 1 13 0;#P hidden connect 14 0 2 0;#P pop;