max v2;
#N vpatcher 20 32 1118 685;
#P origin -143 270;
#P window setfont "Sans Serif" 9.;
#P user umenu 333 72 82 9109543 1 64 88 1;
#X add Automatic;
#X add 1 frame;
#X add 2 frames;
#X add 3 frames;
#X add 4 frames;
#X add 5 frames;
#X add 6 frames;
#X add 7 frames;
#X add 8 frames;
#X add 9 frames;
#P window linecount 1;
#P newex 244 81 19 9109513 t 1;
#P toggle 244 105 27 0;
#P hidden newex 244 58 41 9109513 sel read;
#P hidden newex 244 35 63 9109513 r from-movie;
#P bpatcher 665 41 255 60 0 0 jmod.input%.mxt 0 /input%;
#P objectname /motion%[1];
#P newex 25 350 81 9109513 jcom.autosize%;
#P bpatcher 25 281 255 60 0 0 jmod.motiongram%.mxt 0 /motiongram%;
#P objectname /motiongram%[1];
#P bpatcher 25 222 255 60 0 0 jmod.motion%.mxt 0 /motion%;
#P objectname /motion%;
#P user jit.fpsgui 163 154 60 9109513 0;
#P objectname jit.fpsgui[1];
#P user jit.pwindow 355 122 322 242 0 1 0 0 1 0;
#P objectname jit.pwindow[2];
#N vpatcher 650 159 1148 472;
#P window setfont "Sans Serif" 9.;
#P window linecount 1;
#P newex 22 51 26 9109513 print;
#P newex 50 247 50 9109513 s to-loop;
#P newex 197 60 73 9109513 r from_movie;
#P newex 197 82 74 9109513 route duration;
#P newex 168 222 45 9109513 s blinky;
#P newex 168 198 94 9109513 pak looppoints 0 0;
#P newex 50 222 60 9109513 pak set 0 0;
#P newex 75 198 40 9109513 / 100.;
#P objectname /[5];
#P newex 118 198 40 9109513 / 100.;
#P objectname /[4];
#P newex 75 159 46 9109513 / 1024.;
#P objectname /[1];
#P newex 75 138 47 9109513 * 1024.;
#P objectname *[1];
#P newex 160 159 46 9109513 / 1024.;
#P objectname /;
#P newex 160 138 47 9109513 * 1024.;
#P objectname *;
#P newex 75 92 85 9109513 unpack 0 0 0 0 0;
#P newex 75 71 43 9109513 route 2;
#P newex 75 50 69 9109513 arj.jit.mouse;
#P inlet 75 30 15 0;
#P window linecount 3;
#P comment 306 140 125 9109513 Doing the mouse-tricks for selecting a looping segment from the window.;
#P connect 1 0 17 0;
#P connect 11 0 16 0;
#P connect 1 0 2 0;
#P connect 2 0 3 0;
#P connect 3 0 4 0;
#P connect 4 0 7 0;
#P connect 7 0 8 0;
#P connect 8 0 10 0;
#P connect 10 0 11 1;
#P connect 9 0 11 2;
#P connect 14 0 7 1;
#P connect 6 0 9 0;
#P connect 4 2 5 0;
#P connect 5 0 6 0;
#P connect 12 0 13 0;
#P connect 15 0 14 0;
#P connect 14 0 5 1;
#P connect 8 0 12 1;
#P connect 6 0 12 2;
#P pop 1;
#P hidden newobj 949 620 73 9109513 p mouse-stuff;
#P hidden newex 19 64 38 9109513 sel 32;
#P hidden newex 19 43 40 9109513 key;
#N vpatcher 478 207 1020 554;
#P window setfont "Sans Serif" 9.;
#P window linecount 0;
#P newex 41 100 20 9109513 t b;
#P window linecount 1;
#P message 86 176 38 9109513 getfps;
#P message 417 176 73 9109513 getframecount;
#P message 348 176 65 9109513 getlooppoints;
#P message 304 176 40 9109513 getloop;
#P message 241 176 59 9109513 getduration;
#P message 173 176 65 9109513 gettimescale;
#P message 128 176 42 9109513 gettime;
#P message 41 176 42 9109513 getrate;
#P inlet 41 40 15 0;
#P newex 41 70 57 9109513 route read;
#P newex 41 265 59 9109513 s to-movie;
#P connect 1 0 11 0;
#P connect 11 0 3 0;
#P connect 3 0 0 0;
#P connect 4 0 0 0;
#P connect 5 0 0 0;
#P connect 6 0 0 0;
#P connect 7 0 0 0;
#P connect 9 0 0 0;
#P connect 10 0 0 0;
#P connect 8 0 0 0;
#P connect 11 0 10 0;
#P connect 11 0 4 0;
#P connect 11 0 5 0;
#P connect 11 0 6 0;
#P connect 11 0 7 0;
#P connect 11 0 8 0;
#P connect 11 0 9 0;
#P pop;
#P hidden newobj 258 190 59 9109513 p get-stuff;
#P hidden newex 36 190 51 9109513 t gettime;
#P hidden newex 98 190 70 9109513 speedlim 500;
#N vpatcher 741 129 1200 553;
#P window setfont "Sans Serif" 9.;
#P user umenu 300 50 22 9109543 1 64 66 1;
#X add 1;
#X add 2;
#X add 3;
#X add 4;
#X add 5;
#X add 6;
#X add 7;
#X add 8;
#X add 9;
#P window linecount 1;
#P newex 302 130 44 9109513 pack 0 0;
#P window linecount 0;
#P newex 302 106 35 9109513 * 1024;
#P number 302 84 35 9 0 0 0 139 0 0 0 221 221 221 222 222 222 0 0 0;
#P message 302 155 96 9109513 framedump 0 \$1 \$2;
#P message 132 158 105 9109513 framedump 0 8192 8;
#P message 132 220 107 9109513 /motiongram%/clear;
#P newex 132 244 161 9109513 jcom.send jcom.remote.module.to;
#P objectname xraymean[2];
#P message 132 87 105 9109513 framedump 0 1024 1;
#P newex 132 181 27 9109513 t l b;
#P message 132 134 105 9109513 framedump 0 4096 4;
#P message 132 113 105 9109513 framedump 0 2048 2;
#P message 41 66 86 9109513 cancelframedump;
#P message 132 66 60 9109513 framedump;
#P newex 41 244 59 9109513 s to-movie;
#P connect 5 0 0 0;
#P connect 2 0 0 0;
#P connect 1 0 0 0;
#P connect 3 0 5 0;
#P connect 4 0 5 0;
#P connect 6 0 5 0;
#P connect 9 0 5 0;
#P fasten 10 0 5 0 307 177 137 177;
#P connect 5 1 8 0;
#P connect 8 0 7 0;
#P connect 14 1 11 0;
#P connect 11 0 12 0;
#P connect 12 0 13 0;
#P connect 13 0 10 0;
#P fasten 11 0 13 1 307 102 341 102;
#P pop;
#P newobj 290 157 47 9109513 p mode2;
#N vpatcher 438 107 1274 633;
#P window setfont "Sans Serif" 9.;
#P window linecount 0;
#P newex 434 108 19 9109513 t 1;
#P newex 432 73 28 9109513 sel 0;
#P window linecount 1;
#P newex 607 204 44 9109513 pack 0 0;
#P newex 607 180 35 9109513 * 1024;
#P number 607 158 35 9 0 0 0 139 0 0 0 221 221 221 222 222 222 0 0 0;
#P message 607 229 96 9109513 framedump 0 \$1 \$2;
#P message 623 423 86 9109513 cancelframedump;
#P inlet 53 32 24 0;
#P newex 177 310 27 9109513 t l b;
#P message 255 348 107 9109513 /motiongram%/clear;
#P newex 255 372 161 9109513 jcom.send jcom.remote.module.to;
#P objectname xraymean[2];
#P window linecount 0;
#P newex 180 252 32 9109513 sel 1;
#P newex 180 231 42 9109513 > 2048;
#P window linecount 2;
#P comment 315 170 64 9109513 Total frames in movie;
#P comment 315 218 74 9109513 Find ncessary frame spacing;
#P window linecount 1;
#P newex 133 199 21 9109513 t 0;
#P newex 133 102 72 9109513 r from-movie;
#P newex 68 281 80 9109513 s clear-window;
#P objectname xraymean[1];
#P toggle 53 171 29 0;
#P newex 53 216 41 9109513 sel 0 1;
#P button 68 241 15 0;
#P newex 256 245 43 9109513 route 0;
#P newex 177 281 110 9109513 pack framedump 0 1 1;
#P number 256 223 35 9 0 0 0 139 0 0 0 221 221 221 222 222 222 0 0 0;
#P newex 256 199 43 9109513 / 1024;
#P newex 394 174 82 9109513 t getframecount;
#P number 243 176 68 9 0 0 0 139 0 0 0 221 221 221 222 222 222 0 0 0;
#P number 180 199 46 9 0 0 0 139 0 0 0 221 221 221 222 222 222 0 0 0;
#P newex 133 176 57 9109513 route done;
#P newex 133 135 164 9109513 route framedump framecount read;
#P message 53 315 86 9109513 cancelframedump;
#P newex 177 348 59 9109513 s to-movie;
#P comment 14 180 34 9109513 Dump;
#P comment 162 219 79 9109513 Dumped frames;
#P fasten 18 0 15 0 138 221 115 221 115 164 58 164;
#P connect 33 0 15 0;
#P connect 15 0 14 0;
#P connect 14 0 3 0;
#P connect 14 1 13 0;
#P connect 13 0 16 0;
#P connect 17 0 4 0;
#P connect 4 0 5 0;
#P connect 5 0 18 0;
#P connect 22 0 18 0;
#P fasten 13 0 11 0 73 275 182 275;
#P connect 11 0 25 0;
#P connect 28 0 25 0;
#P fasten 3 0 2 0 58 340 182 340;
#P fasten 8 0 2 0 399 333 182 333;
#P connect 25 0 2 0;
#P connect 5 1 6 0;
#P connect 6 0 21 0;
#P connect 21 0 22 0;
#P connect 7 0 21 1;
#P fasten 4 1 7 0 189 169 248 169;
#P connect 7 0 11 2;
#P connect 25 1 24 0;
#P connect 24 0 23 0;
#P connect 7 0 9 0;
#P connect 9 0 10 0;
#P connect 10 0 12 0;
#P connect 12 1 11 3;
#P fasten 4 2 8 0 240 159 399 159;
#P connect 26 0 32 0;
#P connect 32 0 33 0;
#P connect 32 1 29 0;
#P connect 29 0 30 0;
#P connect 30 0 31 0;
#P connect 31 0 28 0;
#P fasten 29 0 31 1 612 176 646 176;
#P pop;
#P newobj 239 157 47 9109513 p mode1;
#P hidden newex 127 60 41 9109513 sel 1 0;
#P user jit.pwindow 24 370 1026 242 0 1 0 0 1 0;
#P objectname jit.pwindow[1];
#P hidden newex 183 190 72 9109513 s from-movie;
#P hidden newex 46 139 59 9109513 r to-movie;
#P objectname receive;
#P message 94 85 28 9109513 read;
#P message 157 85 27 9109513 stop;
#P message 127 85 31 9109513 start;
#P flonum 53 85 35 9 0.5 0 1 139 0 0 0 221 221 221 222 222 222 0 0 0;
#P objectname flonum;
#P toggle 19 85 15 0;
#P objectname toggle;
#P hidden newex 19 105 44 9109513 metro 2;
#P hidden newex 25 162 125 9109513 jit.qt.movie @autostart 0;
#B color 5;
#P objectname jit.qt.movie;
#P hidden connect 16 0 17 0;
#P hidden connect 17 0 2 0;
#P hidden connect 2 0 1 0;
#P hidden fasten 1 0 0 0 24 142 30 142;
#P hidden fasten 4 0 0 0 132 161 30 161;
#P hidden fasten 5 0 0 0 162 161 30 161;
#P hidden fasten 6 0 0 0 99 161 30 161;
#P hidden connect 7 0 0 0;
#P hidden connect 13 0 0 0;
#P fasten 22 2 23 0 274 346 30 346;
#P connect 23 0 9 0;
#P hidden connect 0 0 14 0;
#P hidden connect 3 0 1 1;
#P hidden connect 14 0 13 0;
#P hidden connect 2 0 10 0;
#P hidden connect 10 0 4 0;
#P hidden connect 10 1 5 0;
#P hidden connect 0 0 20 0;
#P hidden fasten 0 1 8 0 145 185 188 185;
#P connect 27 0 11 0;
#P connect 29 0 11 0;
#P connect 25 0 26 0;
#P connect 26 0 28 0;
#P connect 28 0 27 0;
#P hidden fasten 0 1 15 0 145 184 263 184;
#P hidden fasten 0 0 21 1 30 213 275 213;
#P connect 21 1 22 1;
#P hidden connect 0 0 19 0;
#P hidden fasten 9 1 18 0 1044 616 954 616;
#P pop;
