max v2;#N vpatcher 83 44 1144 773;#P origin -177 -116;#P window setfont "Sans Serif" 9.;#P window linecount 1;#N vpatcher 179 90 1187 635;#P origin 3 0;#P window setfont "Sans Serif" 9.;#P window linecount 0;#P hidden newex 505 70 105 196617 bgcolor 220 220 220;#P toggle 2 23 15 0;#P hidden newex 2 42 29 196617 gate;#P hidden inlet 21 23 15 0;#P hidden newex 172 152 21 196617 t 1;#P hidden newex 172 113 45 196617 loadbang;#P hidden newex 41 129 45 196617 loadbang;#P comment 570 207 45 196617 offset-y;#P comment 492 207 45 196617 offset-x;#P comment 425 207 32 196617 zoom;#P flonum 536 207 35 9 0 0 0 3 0 0 0 221 221 221 222 222 222 0 0 0;#P flonum 458 207 35 9 0 0 0 3 0 0 0 221 221 221 222 222 222 0 0 0;#P flonum 391 207 35 9 0 0 0 3 0 0 0 221 221 221 222 222 222 0 0 0;#P flonum 324 207 35 9 0 0 0 3 0 0 0 221 221 221 222 222 222 0 0 0;#P hidden newex 322 248 63 196617 jit.op @op +;#P hidden newex 322 228 66 196617 arj.jit.ghost;#P hidden newex 2 64 128 196617 jit.matrix 4 char 320 240;#P hidden message 172 133 115 196617 0 0 1 0 1 1 0 2 1 0 3 1;#P hidden newex 41 149 50 196617 deferlow;#P hidden newex 41 169 69 196617 t 0.5 7 -40 0;#P comment 35 216 34 196617 xfade;#N vpatcher 160 44 787 679;#N comlet xfade;#P inlet 87 35 15 0;#P outlet 74 600 15 0;#N comlet offset-y;#P inlet 466 35 15 0;#N comlet offset-x;#P inlet 371 35 15 0;#N comlet # frames;#P inlet 125 35 15 0;#N comlet edge in;#P inlet 595 35 15 0;#N comlet Video in;#P inlet 35 35 15 0;#P window setfont "Sans Serif" 9.;#P comment 508 68 45 196617 offset-y;#P comment 411 68 45 196617 offset-x;#P comment 164 68 85 196617 # frames between delayed frames (max 3).;#P newex 227 155 27 196617 * 4;#P newex 265 231 27 196617 * 3;#P newex 305 358 27 196617 * 2;#P number 466 68 35 9 0 0 0 3 0 0 0 221 221 221 222 222 222 0 0 0;#P number 305 381 35 9 0 0 0 3 0 0 0 221 221 221 222 222 222 0 0 0;#P number 265 252 35 9 0 0 0 3 0 0 0 221 221 221 222 222 222 0 0 0;#P number 227 176 35 9 0 0 0 3 0 0 0 221 221 221 222 222 222 0 0 0;#P newex 193 155 27 196617 * 4;#P newex 231 231 27 196617 * 3;#P newex 271 358 27 196617 * 2;#P newex 125 155 27 196617 * 4;#P newex 163 231 27 196617 * 3;#P newex 203 358 27 196617 * 2;#P newex 74 493 48 196617 jit.xfade;#P newex 112 466 48 196617 jit.xfade;#P newex 112 436 48 196617 jit.xfade;#P flonum 74 318 35 9 0 0 0 3 0 0 0 221 221 221 222 222 222 0 0 0;#P message 74 336 49 196617 xfade \$1;#P newex 112 406 48 196617 jit.xfade;#P number 193 176 35 9 0 0 0 3 0 0 0 221 221 221 222 222 222 0 0 0;#P number 231 252 35 9 0 0 0 3 0 0 0 221 221 221 222 222 222 0 0 0;#P number 271 381 35 9 0 0 0 3 0 0 0 221 221 221 222 222 222 0 0 0;#P number 371 68 35 9 0 0 0 3 0 0 0 221 221 221 222 222 222 0 0 0;#P newex 74 574 63 196617 jit.op @op +;#P number 159 176 35 9 0 0 0 3 0 0 0 221 221 221 222 222 222 0 0 0;#P number 125 176 35 9 0 0 0 3 0 0 0 221 221 221 222 222 222 0 0 0;#P newex 112 199 64 196617 matrixpipe2;#P number 197 252 35 9 0 0 0 3 0 0 0 221 221 221 222 222 222 0 0 0;#P number 163 252 35 9 0 0 0 3 0 0 0 221 221 221 222 222 222 0 0 0;#P newex 150 276 64 196617 matrixpipe2;#P number 237 381 35 9 0 0 0 3 0 0 0 221 221 221 222 222 222 0 0 0;#P number 203 381 35 9 0 0 0 3 0 0 0 221 221 221 222 222 222 0 0 0;#P newex 190 406 64 196617 matrixpipe2;#P number 398 316 35 9 0 0 0 3 0 0 0 221 221 221 222 222 222 0 0 0;#P number 125 68 35 9 0 0 0 3 0 0 0 221 221 221 222 222 222 0 0 0;#P newex 414 436 64 196617 matrixpipe2;#P connect 45 0 19 0;#P connect 19 0 18 0;#P fasten 39 0 22 0 40 456 79 456;#P connect 18 0 22 0;#P connect 22 0 12 0;#P connect 12 0 44 0;#P connect 39 0 9 0;#P connect 18 0 17 0;#P connect 6 0 17 0;#P connect 18 0 20 0;#P connect 17 0 20 0;#P connect 18 0 21 0;#P connect 20 0 21 0;#P connect 21 0 22 1;#P connect 41 0 1 0;#P connect 1 0 25 0;#P connect 25 0 10 0;#P connect 10 0 9 1;#P fasten 40 0 12 1 600 559 132 559;#P connect 11 0 9 2;#P connect 39 0 6 0;#P connect 9 0 17 1;#P fasten 3 0 20 1 195 428 155 428;#P fasten 0 0 21 1 419 460 155 460;#P connect 16 0 9 3;#P connect 10 0 11 0;#P connect 1 0 24 0;#P connect 24 0 7 0;#P connect 7 0 6 1;#P connect 29 0 9 4;#P connect 8 0 6 2;#P connect 15 0 6 3;#P connect 39 0 3 0;#P connect 13 0 28 0;#P connect 28 0 16 0;#P connect 7 0 8 0;#P connect 30 0 6 4;#P connect 1 0 23 0;#P connect 23 0 4 0;#P connect 4 0 3 1;#P connect 5 0 3 2;#P connect 32 0 35 0;#P connect 35 0 29 0;#P connect 14 0 3 3;#P connect 13 0 27 0;#P connect 27 0 15 0;#P connect 4 0 5 0;#P connect 31 0 3 4;#P connect 32 0 34 0;#P connect 34 0 30 0;#P connect 13 0 26 0;#P connect 26 0 14 0;#P connect 32 0 33 0;#P connect 33 0 31 0;#P connect 42 0 13 0;#P connect 1 0 2 0;#P connect 39 0 0 0;#P connect 1 0 0 1;#P connect 2 0 0 2;#P connect 13 0 0 3;#P connect 43 0 32 0;#P connect 32 0 0 4;#P pop;#P hidden newobj 2 241 115 196617 p stuff;#P hidden newex 642 249 63 196617 jit.op @op +;#P comment 187 216 45 196617 offset-y;#P comment 105 216 45 196617 offset-x;#P comment 36 195 163 196617 # frames between delayed frames;#P comment 301 55 34 196617 Edges;#P hidden newex 769 136 45 196617 loadbang;#P hidden newex 769 157 75 196617 t 0.8 -1 -1 10;#P flonum 726 191 45 9 0 0 0 3 0 0 0 221 221 221 222 222 222 0 0 0;#P message 726 208 59 196617 zoom_y \$1;#P number 851 190 35 9 0 0 0 3 0 0 0 221 221 221 222 222 222 0 0 0;#P number 787 191 35 9 0 0 0 3 0 0 0 221 221 221 222 222 222 0 0 0;#P message 851 207 62 196617 offset_y \$1;#P message 787 208 62 196617 offset_x \$1;#P flonum 666 191 45 9 0 0 0 3 0 0 0 221 221 221 222 222 222 0 0 0;#P message 787 208 58 196617 zoom_y \$1;#P message 666 208 58 196617 zoom_x \$1;#P hidden newex 653 228 42 196617 jit.rota;#P hidden newex 402 172 54 196617 t 1 -1 0.9;#P user matrixctrl 171 42 18 66 MatrixDefaultCell.pct MatrixDefaultBkgnd.pct 18 66 16 16 1 4 16 16 1 1 48 2 5120 0;#P hidden newex 2 88 92 196617 router 1 6;#P user jit.pwindow 641 268 322 242 0 1 0 0 1 0;#P number 153 216 35 9 0 0 0 3 0 0 0 221 221 221 222 222 222 0 0 0;#P flonum 1 216 35 9 0 0 0 3 0 0 0 221 221 221 222 222 222 0 0 0;#P number 71 216 35 9 0 0 0 3 0 0 0 221 221 221 222 222 222 0 0 0;#P toggle 283 53 15 0;#P hidden newex 281 72 27 196617 gate;#P user jit.pwindow 1 268 322 242 0 1 0 0 1 0;#P number 1 193 35 9 0 0 0 3 0 0 0 221 221 221 222 222 222 0 0 0;#P user jit.pwindow 321 268 322 242 0 1 0 0 1 0;#P hidden newex 402 152 45 196617 loadbang;#P comment 358 207 34 196617 Level;#P number 337 54 35 9 0 0 33 3 0 0 0 221 221 221 222 222 222 0 0 0;#P hidden newex 281 92 65 196617 jit.rgb2luma;#N vpatcher 765 236 1341 650;#P origin 0 3;#P inlet 255 31 15 0;#P toggle 255 56 15 0;#P window setfont "Sans Serif" 9.;#P comment 318 267 119 196617 To avoid "hanging" edge.;#P newex 291 115 31 196617 sel 0;#P button 320 225 15 0;#P newex 320 246 104 196617 jit.matrix 4 char 1 1;#P newex 26 258 128 196617 jit.matrix 4 char 320 240;#P inlet 114 24 15 0;#P outlet 26 307 15 0;#P inlet 26 22 15 0;#P comment 162 223 131 196617 This abstraction returns only edge pixels. That is \, ON pixels that have between 1 and 7 neighbours.;#P comment 138 141 53 196617 Threshold;#P newex 26 192 69 196617 cv.jit.binedge;#P number 101 139 35 9 0 0 0 3 0 0 0 221 221 221 222 222 222 0 0 0;#P newex 26 162 101 196617 jit.op @op > @val 50;#P newex 26 117 128 196617 jit.matrix 1 char 320 240;#P comment 162 201 123 196617 Binary edge of component;#P connect 7 0 1 0;#P connect 1 0 2 0;#P connect 2 0 4 0;#P connect 4 0 10 0;#P connect 11 0 8 0;#P connect 10 0 8 0;#P connect 9 0 3 0;#P fasten 3 0 2 1 106 157 122 157;#P connect 16 0 15 0;#P connect 15 0 13 0;#P connect 13 0 12 0;#P connect 12 0 11 0;#P pop;#P hidden newobj 281 114 35 196617 p edge;#P comment 373 56 118 196617 Edge detection threshold;#P window linecount 5;#P comment 197 45 70 196617 <= Turn on and off these to test the different modules.;#P window linecount 1;#N vpatcher 20 74 620 474;#P window setfont "Sans Serif" 9.;#P window linecount 3;#P comment 191 72 81 196617 # frames between delayed frames (max 3).;#P window linecount 1;#P comment 162 56 133 196617 # delayed frames (max 30);#P number 151 76 35 9 1 3 3 3 0 0 0 221 221 221 222 222 222 0 0 0;#P newex 122 125 27 196617 * 1;#P number 127 57 35 9 1 30 3 3 0 0 0 221 221 221 222 222 222 0 0 0;#P message 122 147 83 196617 outputmatrix \$1;#P message 209 147 45 196617 index \$1;#N counter 0 29;#X flags 0 0;#P newobj 122 103 66 196617 counter 0 29;#P newex 50 71 27 196617 t l b;#P newex 50 103 63 196617 jit.op @op +;#P newex 50 179 195 196617 jit.matrixset 30 4 char 320 240 @thru 0;#P newex 50 50 59 196617 mgt.motion;#B color 5;#P inlet 103 83 15 0;#P inlet 50 30 15 0;#P outlet 50 201 15 0;#P outlet 50 125 15 0;#P connect 2 0 4 0;#P connect 4 0 7 0;#P connect 7 0 6 0;#P connect 6 0 0 0;#P fasten 9 0 5 0 214 171 55 171;#P fasten 10 0 5 0 127 171 55 171;#P connect 6 0 5 0;#P connect 5 0 1 0;#P connect 3 0 6 1;#P fasten 7 1 8 0 72 94 127 94;#P connect 8 0 12 0;#P connect 12 0 10 0;#P fasten 13 0 12 1 156 100 144 100;#P connect 11 0 8 4;#P fasten 12 0 9 0 127 144 214 144;#P pop;#P hidden newobj 642 153 40 196617 p stuff;#P comment 16 25 40 196617 On/off;#P hidden connect 40 1 10 0;#P hidden connect 40 0 15 0;#P hidden connect 58 0 57 0;#P hidden connect 57 0 43 0;#P hidden connect 19 0 18 0;#P hidden connect 18 0 38 0;#P hidden connect 38 0 11 0;#P hidden connect 56 0 57 1;#P hidden connect 15 0 38 1;#P hidden connect 53 0 41 0;#P hidden connect 41 0 40 0;#P hidden connect 10 0 38 2;#P hidden connect 14 0 38 3;#P hidden connect 43 0 18 1;#P hidden connect 16 0 38 4;#P hidden connect 4 0 38 5;#P hidden connect 40 3 16 0;#P hidden connect 42 0 19 0;#P hidden connect 54 0 42 0;#P hidden connect 54 0 55 0;#P hidden connect 13 0 12 0;#P hidden connect 12 0 5 0;#P hidden connect 5 0 4 0;#P hidden connect 20 0 13 0;#P hidden connect 6 0 4 1;#P hidden connect 43 0 12 1;#P hidden connect 13 0 4 2;#P hidden connect 18 1 44 0;#P hidden connect 44 0 45 0;#P hidden connect 45 0 9 0;#P hidden connect 20 2 46 0;#P hidden connect 46 0 44 1;#P hidden connect 55 0 6 0;#P hidden connect 47 0 44 2;#P hidden connect 48 0 44 3;#P hidden connect 4 0 45 1;#P hidden connect 49 0 44 4;#P hidden connect 20 2 47 0;#P hidden connect 8 0 20 0;#P hidden connect 20 1 48 0;#P hidden connect 20 1 49 0;#P hidden connect 18 2 1 0;#P hidden connect 1 0 37 0;#P hidden connect 37 0 17 0;#P hidden connect 1 1 21 0;#P hidden connect 22 0 21 0;#P hidden connect 23 0 21 0;#P hidden connect 25 0 21 0;#P hidden connect 26 0 21 0;#P hidden connect 29 0 21 0;#P hidden connect 31 0 24 0;#P connect 24 0 22 0;#P hidden connect 21 0 1 1;#P hidden fasten 4 0 37 1 286 168 700 168;#P hidden connect 31 0 30 0;#P hidden connect 24 0 30 0;#P connect 30 0 29 0;#P hidden connect 32 0 31 0;#P hidden connect 31 1 27 0;#P connect 27 0 25 0;#P hidden connect 31 2 28 0;#P connect 28 0 26 0;#P pop;#P newobj 536 116 109 196617 p time-representation;#P button 487 93 15 0;#N vpatcher 638 153 1232 466;#P inlet 99 35 15 0;#P button 99 60 15 0;#P window setfont "Sans Serif" 9.;#P message 333 163 194 196617 /orsize%/video/preview 0;#P window linecount 1;#P newex 333 127 62 196617 prepend set;#P newex 333 94 188 196617 jcom.receive jcom.remote.module.from;#P message 113 135 108 196617 /brcosa%/contrast 5;#P message 101 115 117 196617 /brcosa%/brightness 5;#P window linecount 0;#P newex 99 82 53 196617 t b b b b;#P window linecount 1;#P message 123 153 179 196617 /input%/file/read aashild-short.mov;#P message 141 175 93 196617 /input%/file/on 1;#P window linecount 0;#P newex 101 206 161 196617 jcom.send jcom.remote.module.to;#P connect 10 0 9 0;#P connect 9 0 3 0;#P connect 3 3 4 0;#P connect 4 0 0 0;#P connect 5 0 0 0;#P connect 2 0 0 0;#P connect 1 0 0 0;#P connect 3 2 5 0;#P connect 3 1 2 0;#P connect 3 0 1 0;#P connect 6 0 7 0;#P connect 7 0 8 0;#P pop;#P newobj 487 115 33 196617 p init;#N vpatcher 20 74 439 477;#P origin 0 -2;#P window setfont "Sans Serif" 9.;#P window linecount 1;#P newex 49 292 63 196617 jit.op @op <;#P inlet 49 48 15 0;#P outlet 49 337 15 0;#P window linecount 0;#P message 178 224 73 196617 slide_down \$1;#P flonum 115 202 35 9 0 0 0 3 0 0 0 221 221 221 222 222 222 0 0 0;#P message 115 224 60 196617 slide_up \$1;#P newex 102 250 172 196617 jit.slide @slide_up 6 @slide_down 6;#P flonum 116 89 35 9 0 0 0 3 0 0 0 221 221 221 222 222 222 0 0 0;#P flonum 178 89 35 9 0 0 0 3 0 0 0 221 221 221 222 222 222 0 0 0;#P message 178 112 41 196617 ring \$1;#P message 116 112 52 196617 center \$1;#P flonum 236 89 47 9 0 0 0 3 0 0 0 221 221 221 222 222 222 0 0 0;#P message 236 112 49 196617 ripple \$1;#P newex 102 140 256 196617 jit.fastblur @range 3 @center 1 @ring 0.5 @ripple 0.5;#B color 5;#P connect 12 0 13 0;#P connect 13 0 11 0;#P fasten 12 0 0 0 54 101 107 101;#P fasten 1 0 0 0 241 129 107 129;#P fasten 3 0 0 0 121 129 107 129;#P fasten 4 0 0 0 183 129 107 129;#P connect 0 0 7 0;#P connect 10 0 7 0;#P connect 8 0 7 0;#P connect 7 0 13 1;#P connect 9 0 8 0;#P connect 6 0 3 0;#P connect 5 0 4 0;#P connect 9 0 10 0;#P connect 2 0 1 0;#P pop;#P newobj 527 261 62 196617 p blur-slide;#N vpatcher 20 74 473 397;#P window setfont "Sans Serif" 9.;#P window linecount 1;#P newex 50 204 71 196617 jit.op @op -m;#P inlet 50 32 15 0;#P outlet 50 266 15 0;#P number 338 92 35 9 0 0 0 3 0 0 0 221 221 221 222 222 222 0 0 0;#P window linecount 0;#P message 338 112 65 196617 normalize \$1;#P flonum 289 90 35 9 0 0 0 3 0 0 0 221 221 221 222 222 222 0 0 0;#P message 289 112 41 196617 gain \$1;#P flonum 235 90 35 9 0 0 0 3 0 0 0 221 221 221 222 222 222 0 0 0;#P message 235 112 45 196617 bleed \$1;#P flonum 179 90 35 9 0 0 0 3 0 0 0 221 221 221 222 222 222 0 0 0;#P message 179 112 32 196617 fb \$1;#P flonum 122 90 35 9 0 0 0 3 0 0 0 221 221 221 222 222 222 0 0 0;#P message 122 112 31 196617 ff \$1;#P newex 111 136 218 196617 jit.wake @ff 0.1 @fb 0.6 @bleed 0.15 @gain 1;#P connect 12 0 13 0;#P connect 13 0 11 0;#P connect 12 0 0 0;#P fasten 9 0 0 0 343 132 116 132;#P fasten 1 0 0 0 127 132 116 132;#P fasten 3 0 0 0 184 132 116 132;#P fasten 5 0 0 0 240 132 116 132;#P fasten 7 0 0 0 294 132 116 132;#P connect 0 0 13 1;#P connect 2 0 1 0;#P connect 4 0 3 0;#P connect 6 0 5 0;#P connect 8 0 7 0;#P connect 10 0 9 0;#P pop;#P newobj 484 262 41 196617 p wake;#N vpatcher 459 93 1151 460;#P window setfont "Sans Serif" 9.;#P flonum 244 73 35 9 0 0 0 3 0 0 0 221 221 221 222 222 222 0 0 0;#P window linecount 1;#P newex 142 101 112 196617 jit.op @op > @val 0.01;#P newex 51 261 64 196617 jit.op @op +;#P inlet 51 27 15 0;#P outlet 51 329 15 0;#P number 105 108 24 9 1 2 35 3 0 0 0 221 221 221 222 222 222 0 0 0;#P window linecount 0;#P newex 105 132 47 196617 gate 2 1;#P number 332 165 35 9 0 0 0 3 0 0 0 221 221 221 222 222 222 0 0 0;#P message 332 187 65 196617 normalize \$1;#P flonum 283 165 35 9 0 0 0 3 0 0 0 221 221 221 222 222 222 0 0 0;#P message 283 187 41 196617 gain \$1;#P flonum 229 165 35 9 0 0 0 3 0 0 0 221 221 221 222 222 222 0 0 0;#P message 229 187 45 196617 bleed \$1;#P flonum 173 165 35 9 0 0 0 3 0 0 0 221 221 221 222 222 222 0 0 0;#P message 173 187 32 196617 fb \$1;#P flonum 116 165 35 9 0 0 0 3 0 0 0 221 221 221 222 222 222 0 0 0;#P message 116 187 31 196617 ff \$1;#P newex 105 211 218 196617 jit.wake @ff 0.1 @fb 0.6 @bleed 0.15 @gain 1;#P message 532 187 73 196617 slide_down \$1;#P flonum 469 165 35 9 0 0 0 3 0 0 0 221 221 221 222 222 222 0 0 0;#P message 469 187 60 196617 slide_up \$1;#P newex 456 211 172 196617 jit.slide @slide_up 6 @slide_down 6;#P newex 142 71 74 196617 jcom.motion%;#P connect 19 0 20 0;#P connect 20 0 18 0;#P connect 17 0 16 0;#P connect 16 0 5 0;#P fasten 12 0 5 0 288 207 110 207;#P fasten 10 0 5 0 234 207 110 207;#P fasten 8 0 5 0 178 207 110 207;#P fasten 6 0 5 0 121 207 110 207;#P fasten 14 0 5 0 337 207 110 207;#P connect 5 0 20 1;#P fasten 1 0 20 1 461 251 110 251;#P connect 7 0 6 0;#P fasten 19 0 0 0 56 59 147 59;#P connect 0 0 21 0;#P connect 21 0 16 1;#P connect 9 0 8 0;#P connect 11 0 10 0;#P connect 22 0 21 1;#P connect 13 0 12 0;#P connect 15 0 14 0;#P fasten 16 1 1 0 147 154 461 154;#P fasten 2 0 1 0 474 205 461 205;#P fasten 4 0 1 0 537 205 461 205;#P connect 3 0 2 0;#P fasten 3 0 4 0 474 183 537 183;#P pop;#P newobj 441 263 39 196617 p slide;#P bpatcher 36 350 255 60 0 0 jmod.record%.mxt 0 /record%;#P objectname /record_demo;#P message 158 234 40 196617 /reset;#P bpatcher 29 103 255 60 0 0 jmod.orsize%.mxt 0 /orsize%;#P objectname /orsize%;#P bpatcher 29 163 255 60 0 0 jmod.brcosa%.mxt 0 /brcosa%;#P objectname /brcosa%;#P bpatcher 29 43 255 60 0 0 jmod.input%.mxt 0;#P objectname /input%;#P toggle 269 426 15 0;#P newex 209 445 71 196617 mgt.save-file;#P newex 200 233 83 196617 jcom.autocrop%;#P newex 398 315 81 196617 jcom.autosize%;#P newex 398 287 141 196617 jit.glue @rows 2 @columns 2;#P user jit.fpsgui 293 195 60 196617 0;#P user jit.pwindow 397 335 276 362 0 1 0 0 1 0;#P fasten 8 1 4 0 279 227 205 227;#P hidden connect 10 0 4 0;#P hidden connect 2 0 5 0;#P fasten 5 0 6 0 214 466 289 466 289 421 274 421;#P connect 6 0 5 2;#P hidden connect 7 1 9 1;#P hidden connect 9 1 8 1;#P fasten 2 0 11 1 403 309 286 309;#P hidden connect 8 1 1 0;#P fasten 4 0 2 0 205 255 403 255;#P connect 2 0 3 0;#P connect 3 0 0 0;#P fasten 4 0 12 0 205 255 446 255;#P connect 12 0 2 1;#P fasten 4 0 13 0 205 255 489 255;#P connect 13 0 2 2;#P connect 16 0 15 0;#P fasten 4 0 14 0 205 255 532 255;#P connect 14 0 2 3;#P pop;