max v2;#N vpatcher 83 44 1251 769;#P origin -177 -100;#P window setfont "Sans Serif" 9.;#P newex 275 70 86 196617 s global_tomovie;#P message 273 47 136 196617 file_open aashild-short.mov;#P bpatcher 711 341 255 60 0 0 jmod.record%.mxt 0;#P objectname /record_demo;#N vpatcher 705 151 1305 551;#P window setfont "Sans Serif" 9.;#P number 50 90 24 9 1 2 35 3 0 0 0 221 221 221 222 222 222 0 0 0;#P newex 50 114 47 196617 gate 2 1;#P number 277 152 35 9 0 0 0 3 0 0 0 221 221 221 222 222 222 0 0 0;#P message 277 172 65 196617 normalize \$1;#P flonum 228 150 35 9 0 0 0 3 0 0 0 221 221 221 222 222 222 0 0 0;#P message 228 172 41 196617 gain \$1;#P flonum 174 150 35 9 0 0 0 3 0 0 0 221 221 221 222 222 222 0 0 0;#P message 174 172 45 196617 bleed \$1;#P flonum 118 150 35 9 0 0 0 3 0 0 0 221 221 221 222 222 222 0 0 0;#P message 118 172 32 196617 fb \$1;#P flonum 61 150 35 9 0 0 0 3 0 0 0 221 221 221 222 222 222 0 0 0;#P message 61 172 31 196617 ff \$1;#P newex 50 196 218 196617 jit.wake @ff 0.1 @fb 0.6 @bleed 0.15 @gain 1;#P message 461 172 73 196617 slide_down \$1;#P flonum 398 150 35 9 0 0 0 3 0 0 0 221 221 221 222 222 222 0 0 0;#P message 398 172 60 196617 slide_up \$1;#P newex 385 193 172 196617 jit.slide @slide_up 6 @slide_down 6;#P flonum 125 50 35 9 0 0 0 3 0 0 0 221 221 221 222 222 222 0 0 0;#N vpatcher 682 370 1148 671;#P origin -720 -261;#P window setfont "Sans Serif" 9.;#P window linecount 1;#P newex 95 67 65 196617 jit.rgb2luma;#N comlet Threshold;#P inlet 186 26 15 0;#P comment 222 167 68 196617 set threshold;#P flonum 186 167 35 9 0 0 0 3 0 0 0 221 221 221 222 222 222 0 0 0;#P newex 50 200 112 196617 jit.op @op > @val 0.01;#N comlet Graph on;#P inlet 50 26 15 0;#P newex 50 105 53 196617 jit.change;#N comlet Video out;#P outlet 50 231 15 0;#P newex 50 168 85 196617 jit.op @op absdiff;#P newex 50 132 27 196617 t l l;#P window linecount 4;#P comment 322 145 100 196617 Find Quantity of Motion as difference between two consecutive frames.;#P connect 10 0 4 0;#P connect 5 0 4 0;#P connect 4 0 1 0;#P connect 1 1 2 0;#P connect 2 0 6 0;#P connect 6 0 3 0;#P connect 1 0 2 1;#P fasten 7 0 6 1 191 191 157 191;#P connect 9 0 7 0;#P pop;#P newobj 87 76 48 196617 p motion;#P inlet 87 56 15 0;#P outlet 50 307 15 0;#P connect 20 0 19 0;#P fasten 17 0 8 0 282 192 55 192;#P fasten 9 0 8 0 66 192 55 192;#P fasten 11 0 8 0 123 192 55 192;#P fasten 13 0 8 0 179 192 55 192;#P fasten 15 0 8 0 233 192 55 192;#P connect 19 0 8 0;#P connect 8 0 0 0;#P connect 4 0 0 0;#P connect 10 0 9 0;#P connect 1 0 2 0;#P connect 2 0 19 1;#P connect 12 0 11 0;#P connect 3 0 2 1;#P connect 14 0 13 0;#P connect 16 0 15 0;#P connect 18 0 17 0;#P connect 7 0 4 0;#P connect 5 0 4 0;#P connect 19 1 4 0;#P connect 6 0 5 0;#P connect 6 0 7 0;#P pop;#P newobj 590 289 67 196617 p wake-slide;#N vpatcher 10 59 315 297;#P window setfont "Sans Serif" 9.;#P message 126 72 73 196617 slide_down \$1;#P flonum 63 50 35 9 0 0 0 3 0 0 0 221 221 221 222 222 222 0 0 0;#P message 63 72 60 196617 slide_up \$1;#P newex 50 98 172 196617 jit.slide @slide_up 6 @slide_down 6;#P inlet 34 66 15 0;#P outlet 50 120 15 0;#P connect 1 0 2 0;#P connect 3 0 2 0;#P connect 5 0 2 0;#P connect 2 0 0 0;#P connect 4 0 3 0;#P connect 4 0 5 0;#P pop;#P newobj 473 289 39 196617 p slide;#N vpatcher 10 59 379 269;#P window setfont "Sans Serif" 9.;#P flonum 64 50 35 9 0 0 0 3 0 0 0 221 221 221 222 222 222 0 0 0;#P flonum 126 50 35 9 0 0 0 3 0 0 0 221 221 221 222 222 222 0 0 0;#P message 126 73 41 196617 ring \$1;#P message 64 73 52 196617 center \$1;#P flonum 184 50 47 9 0 0 0 3 0 0 0 221 221 221 222 222 222 0 0 0;#P message 184 73 49 196617 ripple \$1;#P newex 50 101 256 196617 jit.fastblur @range 3 @center 1 @ring 0.5 @ripple 0.5;#B color 5;#P inlet 33 59 15 0;#P outlet 50 123 15 0;#P connect 1 0 2 0;#P fasten 6 0 2 0 131 90 55 90;#P fasten 5 0 2 0 69 90 55 90;#P fasten 3 0 2 0 189 90 55 90;#P connect 2 0 0 0;#P connect 8 0 5 0;#P connect 7 0 6 0;#P connect 4 0 3 0;#P pop;#P newobj 473 264 54 196617 p fastblur;#N vpatcher 10 59 406 258;#P window setfont "Sans Serif" 9.;#P number 277 52 35 9 0 0 0 3 0 0 0 221 221 221 222 222 222 0 0 0;#P message 277 72 65 196617 normalize \$1;#P flonum 228 50 35 9 0 0 0 3 0 0 0 221 221 221 222 222 222 0 0 0;#P message 228 72 41 196617 gain \$1;#P flonum 174 50 35 9 0 0 0 3 0 0 0 221 221 221 222 222 222 0 0 0;#P message 174 72 45 196617 bleed \$1;#P flonum 118 50 35 9 0 0 0 3 0 0 0 221 221 221 222 222 222 0 0 0;#P message 118 72 32 196617 fb \$1;#P flonum 61 50 35 9 0 0 0 3 0 0 0 221 221 221 222 222 222 0 0 0;#P message 61 72 31 196617 ff \$1;#P newex 50 96 218 196617 jit.wake @ff 0.1 @fb 0.6 @bleed 0.15 @gain 1;#P inlet 28 63 15 0;#P outlet 50 118 15 0;#P connect 1 0 2 0;#P fasten 9 0 2 0 233 92 55 92;#P fasten 7 0 2 0 179 92 55 92;#P fasten 5 0 2 0 123 92 55 92;#P fasten 3 0 2 0 66 92 55 92;#P fasten 11 0 2 0 282 92 55 92;#P connect 2 0 0 0;#P connect 4 0 3 0;#P connect 6 0 5 0;#P connect 8 0 7 0;#P connect 10 0 9 0;#P connect 12 0 11 0;#P pop;#P newobj 359 289 41 196617 p wake;#P message 285 186 40 196617 /reset;#P bpatcher 1 81 255 60 0 0 jmod.orsize%.mxt 0 /motion%;#P objectname /orsize%;#P bpatcher 1 141 255 60 0 0 jmod.brcosa%.mxt 0 /motion%;#P objectname /brcosa%;#P bpatcher 1 21 255 60 0 0 jmod.input%.mxt 0;#P objectname /input%;#P toggle 821 279 15 0;#P newex 761 298 71 196617 mgt.save-file;#P newex 246 209 83 196617 jcom.autocrop%;#P newex 66 395 81 196617 jcom.autosize%;#P newex 66 374 141 196617 jit.glue @rows 2 @columns 4;#P window linecount 2;#P message 517 62 73 196617 \; jcom.init bang;#P window linecount 1;#P newex 519 320 64 196617 jit.op @op +;#P newex 403 320 63 196617 jit.op @op <;#P newex 281 320 71 196617 jit.op @op -m;#P user jit.fpsgui 171 217 60 196617 0;#P newex 138 320 89 196617 jit.op @op absdiff;#N vpatcher 194 323 794 723;#P outlet 85 107 15 0;#P inlet 86 61 15 0;#P connect 0 0 1 0;#P pop;#P newobj 246 232 37 196617 p thru;#P user jit.pwindow 65 417 642 242 0 1 0 0 1 0;#P connect 22 0 13 0;#P hidden fasten 1 0 8 0 251 373 71 373;#P connect 8 0 9 0;#P connect 9 0 0 0;#P fasten 17 0 8 1 364 344 89 344;#P fasten 19 0 8 2 478 349 107 349;#P hidden fasten 6 0 8 3 524 360 125 360;#P hidden fasten 1 0 2 0 251 277 143 277;#P hidden connect 2 0 8 4;#P hidden fasten 4 0 8 5 286 342 161 342;#P hidden connect 1 0 3 0;#P hidden fasten 5 0 8 6 408 356 179 356;#P fasten 20 0 8 7 595 367 197 367;#P fasten 17 0 2 1 364 314 222 314;#P hidden connect 13 1 15 1;#P hidden connect 15 1 14 1;#P connect 14 1 10 0;#P fasten 16 0 10 0 290 205 251 205;#P connect 10 0 1 0;#P hidden fasten 1 0 4 0 251 278 286 278;#P fasten 17 0 4 1 364 314 347 314;#P fasten 1 0 17 0 251 259 364 259;#P hidden fasten 1 0 5 0 251 313 408 313;#P fasten 19 0 5 1 478 314 461 314;#P fasten 1 0 18 0 251 250 478 250;#P connect 18 0 19 0;#P hidden fasten 1 0 6 0 251 313 524 313;#P fasten 20 0 6 1 595 314 578 314;#P fasten 1 0 20 0 251 250 595 250;#P hidden connect 8 0 11 0;#P fasten 11 0 12 0 766 319 841 319 841 274 826 274;#P connect 12 0 11 2;#P hidden connect 9 0 21 1;#P pop;