max v2;#N vpatcher 46 44 1228 768;#P origin -5 -15;#P window setfont "Sans Serif" 9.;#P user jit.fpsgui 348 156 60 196617 3;#P newex 467 64 86 196617 jcom.luma2rgb%;#P newex 467 110 81 196617 jcom.autosize%;#P user jit.pwindow 466 130 234 183 0 1 0 0 1 0;#P newex 467 89 141 196617 jit.glue @columns 2 @rows 1;#P message 199 208 40 196617 /reset;#P newex 242 207 83 196617 jcom.autocrop%;#P toggle 335 39 15 0;#P message 335 57 96 196617 file_framedump \$1;#P newex 70 381 81 196617 jcom.autosize%;#P user jit.fpsgui 327 300 60 196617 4;#P bpatcher 71 21 255 60 0 0 jmod.input%.mxt 0;#P objectname /input%;#P bpatcher 71 81 255 60 0 0 jmod.orsize%.mxt 0;#P objectname /orsize%;#P bpatcher 71 141 255 60 0 0 jmod.brcosa%.mxt 0 /brcosa%;#P objectname /brcosa%;#P bpatcher 71 307 255 60 0 0 jmod.motiongram%.mxt 0;#P objectname /motiongram%[1];#P user jit.pwindow 69 403 1047 242 0 1 0 0 1 0;#P bpatcher 71 231 255 60 0 0 jmod.motion%.mxt 0 /motion%;#P objectname /motion%;#P fasten 2 2 7 0 320 374 75 374;#P connect 7 0 1 0;#P hidden connect 8 0 5 0;#P fasten 3 1 10 0 321 204 247 204;#P hidden connect 11 0 10 0;#P hidden connect 5 1 4 1;#P hidden connect 4 1 3 1;#P fasten 10 0 0 1 247 227 321 227;#P hidden connect 0 1 2 1;#P connect 0 1 6 0;#P connect 9 0 8 0;#P connect 3 1 16 0;#P hidden connect 0 1 15 0;#P hidden connect 10 0 12 0;#P connect 12 0 14 0;#P connect 14 0 13 0;#P fasten 15 0 12 1 472 84 603 84;#P pop;