max v2;#N vpatcher 42 44 1312 780;#P origin 20 -19;#P toggle 6 19 15 0;#P window setfont "Sans Serif" 9.;#P window linecount 1;#P message 20 19 102 196617 /file/framedump \$1;#P number 182 262 17 9 0 4 35 3 0 0 0 221 221 221 222 222 222 0 0 0;#P bpatcher 6 41 255 60 0 0 jmod.input%.mxt 0 /input%;#P objectname /input%;#P bpatcher 6 101 255 60 0 0 jmod.orsize%.mxt 0 /orsize%;#P objectname /orsize%;#P bpatcher 6 161 255 60 0 0 jmod.brcosa%.mxt 0 /brcosa%;#P objectname /brcosa%;#P window setfont "Sans Serif" 14.;#P flonum 1183 298 -32768 14 0 0 7328 3 0 0 0 221 221 221 222 222 222 0 0 0;#P flonum 1183 298 -32768 14 0 0 7328 3 0 0 0 221 221 221 222 222 222 0 0 0;#P flonum 1183 298 -32768 14 0 0 7328 3 0 0 0 221 221 221 222 222 222 0 0 0;#P flonum 1183 298 -32768 14 0 0 7328 3 0 0 0 221 221 221 222 222 222 0 0 0;#P user jit.pwindow 362 48 322 242 0 1 0 0 1 0;#P window setfont "Sans Serif" 9.;#N vpatcher 213 56 1322 714;#P window setfont "Sans Serif" 9.;#P window linecount 0;#P newex 340 488 156 196617 jcom.oscroute /motion/quantity;#P bpatcher 93 76 255 60 0 0 jmod.motion%.mxt 0 /motion%;#P objectname /motion%;#P bpatcher 397 209 255 60 0 0 jmod.mblur%.mxt 0 /mblur%2;#P objectname /mblur%[3];#P window linecount 2;#P user com 667 167 55 196617 9;#K set 0 26214 8240 11826 13581 25196 25957 25658 8240 11825;#K end;#P outlet 391 595 15 0;#P user com 1033 362 41 196617 5;#K set 0 15373 24930 29540 26982 26112;#K end;#P bpatcher 765 343 255 60 0 0 jmod.op%.mxt 0 /op%3;#P objectname jmod.op%.mxt[2];#P window linecount 1;#P comment 664 370 21 196617 -m;#P bpatcher 398 343 255 60 0 0 jmod.op%.mxt 0 /op%2;#P objectname jmod.op%.mxt[1];#P window linecount 3;#P user com 320 351 41 196617 7;#K set 0 11040 3371 27917 24930 29540 26982 26112;#K end;#P bpatcher 59 343 255 60 0 0 jmod.op%.mxt 0 /op%1;#P objectname jmod.op%.mxt;#P number 29 59 17 9 0 0 33 3 0 0 0 221 221 221 222 222 222 0 0 0;#P inlet 29 39 15 0;#P window linecount 1;#P newex 29 81 53 196617 gate 4 1;#P inlet 72 39 15 0;#P outlet 29 594 15 0;#P bpatcher 58 149 255 60 0 0 jmod.mblur%.mxt 0 /mblur%1;#P objectname /mblur%;#P bpatcher 58 208 255 60 0 0 jmod.wake%.mxt 0 /wake%1;#P objectname jmod.wake%.mxt;#P newex 59 563 68 196617 jit.normalize;#P bpatcher 397 149 255 60 0 0 jmod.wake%.mxt 0 /wake%2;#P objectname jmod.wake%.mxt[1];#P bpatcher 764 149 255 60 0 0 jmod.blur%.mxt 0 /blur%3;#P objectname /mblur%[1];#P bpatcher 764 209 255 60 0 0 jmod.mblur%.mxt 0 /mblur%3;#P objectname /mblur%[2];#P bpatcher 764 268 255 60 0 0 jmod.wake%.mxt 0 /wake%3;#P objectname jmod.wake%.mxt[2];#P comment 319 233 42 196617 ff 0.25;#P connect 11 0 12 0;#P connect 12 0 10 0;#P fasten 5 0 8 0 64 586 34 586;#P connect 10 0 8 0;#P fasten 17 1 5 0 1015 554 64 554;#P fasten 15 1 5 0 648 531 64 531;#P fasten 13 1 5 0 309 524 64 524;#P connect 9 0 10 1;#P fasten 10 1 13 1 48 335 186 335;#P connect 22 1 7 1;#P connect 7 1 6 1;#P connect 6 1 13 2;#P connect 9 0 22 1;#P connect 22 0 23 0;#P connect 23 0 19 0;#P fasten 10 2 15 1 62 133 387 133 387 333 525 333;#P fasten 10 2 4 1 62 123 647 123;#P connect 4 1 21 1;#P connect 21 1 15 2;#P fasten 10 3 17 1 76 113 754 113 754 336 892 336;#P fasten 10 3 3 1 76 100 1014 100;#P connect 3 1 2 1;#P connect 2 1 1 1;#P connect 1 1 17 2;#P pop;#P newobj 182 284 79 196617 p output-image;#P objectname output-image;#P connect 10 0 8 0;#P hidden connect 11 0 10 0;#P connect 9 0 0 0;#P hidden connect 8 1 7 1;#P hidden connect 7 1 6 1;#P connect 6 1 0 1;#P hidden connect 0 0 1 0;#P pop;