max v2;#N vpatcher 136 44 799 800;#P origin -5 -59;#P button 427 5 15 0;#P window setfont "Sans Serif" 9.;#N vpatcher 524 94 931 400;#P window setfont "Sans Serif" 9.;#P window linecount 1;#P message 41 172 330 196617 /orsize%/zoom 1.3 \, /orsize%/offset_x -80 \, /orsize%/offset_y -50;#P message 41 149 121 196617 /input%/source_mode 1;#P inlet 41 31 15 0;#P button 41 56 15 0;#P message 41 194 222 196617 /brcosa%/brightness 5 \, /brcosa%/contrast 5;#P window linecount 0;#P newex 41 78 30 196617 t b b;#P window linecount 1;#P message 61 103 179 196617 /input%/file/read aashild-short.mov;#P message 41 127 93 196617 /input%/file/on 1;#P window linecount 0;#P newex 41 234 161 196617 jcom.send jcom.remote.module.to;#P connect 6 0 5 0;#P connect 5 0 3 0;#P connect 3 0 1 0;#P connect 3 0 7 0;#P connect 3 0 8 0;#P connect 3 0 4 0;#P connect 8 0 0 0;#P connect 4 0 0 0;#P connect 2 0 0 0;#P connect 1 0 0 0;#P connect 7 0 0 0;#P connect 3 1 2 0;#P pop;#P newobj 427 24 33 196617 p init;#P newex 194 624 81 196617 jcom.autosize%;#P user jit.pwindow 304 429 162 122 0 1 0 0 1 0;#P comment 475 430 130 196617 Calculate the motion image;#P comment 475 306 150 196617 Change brightness and contrast;#P comment 475 182 157 196617 Zooming and offsetting the image;#P user jit.pwindow 304 305 162 122 0 1 0 0 1 0;#P user jit.pwindow 304 181 162 122 0 1 0 0 1 0;#P user jit.pwindow 304 57 162 122 0 1 0 0 1 0;#P bpatcher 21 58 255 60 0 0 jmod.input%.mxt 0;#P objectname /input%;#P bpatcher 21 182 255 60 0 0 jmod.orsize%.mxt 0;#P objectname /orsize%;#P bpatcher 21 306 255 60 0 0 jmod.brcosa%.mxt 0 /brcosa%;#P objectname /brcosa%;#P bpatcher 21 554 255 60 0 0 jmod.motiongram%.mxt 0 /motiongram%;#P objectname /motiongram%[1];#P user jit.pwindow 304 553 322 242 0 1 0 0 1 0;#P bpatcher 21 430 255 60 0 0 jmod.motion%.mxt 0 /motion%;#P objectname /motion%;#P comment 475 58 151 196617 Video input from camera or file;#P window setfont "Sans Serif" 18.;#P comment 18 1 388 196626 Overview of the creation of MOTIONGRAMS;#P fasten 4 2 15 0 270 618 199 618;#P connect 7 1 6 1;#P connect 6 1 5 1;#P connect 5 1 2 1;#P connect 2 1 4 1;#P hidden connect 7 1 8 0;#P hidden connect 6 1 9 0;#P hidden connect 5 1 10 0;#P hidden connect 2 1 14 0;#P hidden connect 15 0 3 0;#P connect 17 0 16 0;#P pop;