max v2;#N vpatcher 504 166 1064 653;#P origin 0 -22;#P window setfont "Sans Serif" 9.;#P user umenu 86 310 44 196647 1 64 326 1;#X add mouse;#X add joystick;#P window linecount 1;#N vpatcher 40 104 387 344;#P window setfont "Sans Serif" 9.;#P flonum 82 123 35 9 0 0 0 3 0 0 0 221 221 221 222 222 222 0 0 0;#P newex 50 146 41 196617 *~ 0.3;#P newex 50 50 110 196617 scale -1. 1. 400. 900.;#P newex 189 51 86 196617 scale -1. 1. 0. 1.;#P flonum 50 73 35 9 0 0 0 3 0 0 0 221 221 221 222 222 222 0 0 0;#P newex 50 97 46 196617 phasor~;#P inlet 189 31 15 0;#P inlet 50 30 15 0;#P outlet 50 168 15 0;#P connect 1 0 6 0;#P connect 6 0 4 0;#P connect 4 0 3 0;#P connect 3 0 7 0;#P connect 7 0 0 0;#P connect 8 0 7 1;#P connect 5 0 8 0;#P connect 2 0 5 0;#P pop;#P newobj 136 375 149 196617 p sound-synthesis-stuff;#P user ezdac~ 136 409 180 442 0;#P hidden newex 108 330 27 196617 + 1;#P newex 275 309 58 196617 switch 2 1;#P newex 136 309 58 196617 switch 2 1;#N vpatcher 287 103 1138 465;#P window setfont "Sans Serif" 9.;#P window linecount 0;#P newex 614 133 156 196617 prepend /body/hand/orientation;#P newex 451 133 144 196617 prepend /body/hand/distance;#P newex 451 98 47 196617 cartopol;#P newex 223 135 158 196617 prepend /body/hand/right/front;#P newex 223 60 86 196617 scale 0. 1. -1. 1.;#P newex 50 60 86 196617 scale 0. 1. -1. 1.;#P newex 50 135 153 196617 prepend /body/hand/right/side;#P inlet 50 30 15 0;#P inlet 223 30 15 0;#P outlet 223 157 15 0;#P outlet 50 157 15 0;#P connect 3 0 5 0;#P connect 5 0 4 0;#P connect 4 0 0 0;#P connect 2 0 6 0;#P connect 6 0 7 0;#P connect 7 0 1 0;#P connect 5 0 8 0;#P connect 8 0 9 0;#P connect 6 0 8 1;#P fasten 8 1 10 0 493 124 619 124;#P pop;#P newobj 91 277 100 196617 p body-related-stuff;#N vpatcher 40 104 640 504;#P window setfont "Sans Serif" 9.;#P newex 223 74 158 196617 prepend /body/hand/right/front;#P newex 223 50 86 196617 scale 0. 1. -1. 1.;#P newex 50 50 86 196617 scale 0. 1. -1. 1.;#P newex 50 74 153 196617 prepend /body/hand/right/side;#P inlet 50 30 15 0;#P inlet 223 30 15 0;#P outlet 223 96 15 0;#P outlet 50 96 15 0;#P connect 3 0 5 0;#P connect 5 0 4 0;#P connect 4 0 0 0;#P connect 2 0 6 0;#P connect 6 0 7 0;#P connect 7 0 1 0;#P pop;#P newobj 282 276 100 196617 p body-related-stuff;#P newex 275 351 106 196617 jcom.oscroute /front;#P newex 275 330 123 196617 osc-route /body/hand/*;#P newex 136 351 101 196617 jcom.oscroute /side;#P flonum 372 154 35 9 0 0 0 3 0 0 0 221 221 221 222 222 222 0 0 0;#P flonum 282 154 35 9 0 0 0 3 0 0 0 221 221 221 222 222 222 0 0 0;#P newex 282 134 190 196617 jcom.oscroute /position_x /position_y;#P user jsui 282 172 100 100 1 0 0 jsui_2dvectorctrl.js;#N vpatcher 793 97 1242 529;#P window setfont "Sans Serif" 9.;#P newex 223 262 101 196617 prepend /position_y;#P newex 50 261 101 196617 prepend /position_x;#P message 284 157 39 196617 /clear;#P newex 223 157 55 196617 slide 3. 3.;#P flonum 223 209 35 9 0 0 0 3 0 0 0 221 221 221 222 222 222 0 0 0;#P newex 223 186 158 196617 jcom.autoscale @min 1. @max 0.;#P message 111 157 39 196617 /clear;#P newex 50 157 55 196617 slide 3. 3.;#P flonum 50 209 35 9 0 0 0 3 0 0 0 221 221 221 222 222 222 0 0 0;#P newex 50 186 158 196617 jcom.autoscale @min 0. @max 1.;#P number 103 103 35 9 0 0 0 3 0 0 0 221 221 221 222 222 222 0 0 0;#P number 50 103 35 9 0 0 0 3 0 0 0 221 221 221 222 222 222 0 0 0;#P newex 50 75 110 196617 jcom.oscroute /9 /10;#P newex 50 50 91 196617 jcom.oscroute /hi;#P inlet 50 30 15 0;#P outlet 50 330 15 0;#P connect 1 0 2 0;#P connect 2 0 3 0;#P connect 3 0 4 0;#P connect 4 0 8 0;#P connect 8 0 6 0;#P fasten 9 0 6 0 116 179 55 179;#P connect 6 0 7 0;#P connect 7 0 14 0;#P connect 15 0 0 0;#P connect 14 0 0 0;#P connect 3 1 5 0;#P connect 5 0 12 0;#P connect 12 0 10 0;#P fasten 13 0 10 0 289 179 228 179;#P connect 10 0 11 0;#P connect 11 0 15 0;#P pop;#P newobj 282 114 86 196617 p pre-processing;#P newex 136 330 123 196617 osc-route /body/hand/*;#P bpatcher 282 51 255 60 0 0 jmod.hi.mxt 0;#P objectname /hi;#P user jsui 91 173 100 100 1 0 0 jsui_2dvectorctrl.js;#P toggle 20 155 15 0;#P flonum 162 155 35 9 0 0 0 3 0 0 0 221 221 221 222 222 222 0 0 0;#P flonum 91 155 35 9 0 0 0 3 0 0 0 221 221 221 222 222 222 0 0 0;#P newex 20 134 223 196617 jcom.oscroute /button /position_x /position_y;#P window linecount 2;#P hidden message 450 346 77 196617 \; jcom.init bang \;;#P bpatcher 20 51 255 60 0 0 jmod.mouse.mxt 0;#P objectname /mouse;#P connect 0 0 2 0;#P connect 2 0 5 0;#P connect 2 1 3 0;#P connect 3 0 6 0;#P connect 6 0 18 0;#P hidden connect 24 0 21 0;#P hidden connect 21 0 19 0;#P connect 19 0 8 0;#P connect 8 0 14 0;#P connect 14 0 23 0;#P connect 23 0 22 0;#P fasten 18 0 19 1 96 299 165 299;#P connect 2 2 4 0;#P fasten 23 0 22 1 141 399 175 399;#P fasten 4 0 6 1 167 172 186 172;#P connect 6 1 18 1;#P connect 17 0 19 2;#P hidden fasten 21 0 20 0 113 310 280 310;#P connect 20 0 15 0;#P connect 15 0 16 0;#P connect 16 0 23 1;#P connect 7 0 9 0;#P connect 9 0 11 0;#P connect 11 0 12 0;#P connect 12 0 10 0;#P connect 10 0 17 0;#P connect 18 1 20 1;#P fasten 17 1 20 2 377 298 328 298;#P connect 11 1 13 0;#P fasten 13 0 10 1 377 173 377 173;#P connect 10 1 17 1;#P pop;