max v2;#N vpatcher 6 44 1210 785;#P origin 54 66;#P window setfont "Sans Serif" 9.;#P user jit.fpsgui 724 26 60 196617 3;#P user jit.pwindow 21 508 373 157 0 1 0 0 1 0;#P objectname jit.pwindow[2];#P bpatcher 446 6 255 60 0 0 jmod.similarity%.mxt 0 /similarity%;#P objectname /similarity%;#P bpatcher 5 16 255 60 0 0 jmod.input%.mxt 0 /input%;#P objectname /input%[1];#P bpatcher 5 76 255 60 0 0 jmod.orsize%.mxt 0;#P objectname /orsize%;#P bpatcher 5 136 255 60 0 0 jmod.brcosa%.mxt 0 /brcosa%;#P objectname /brcosa%[2];#P user jit.pwindow 30 318 242 182 0 1 0 0 1 0;#P objectname jit.pwindow[10];#P bpatcher 5 256 255 60 0 0 jmod.motiongram%.mxt 0;#P objectname /motiongram%;#P window linecount 2;#P message 307 136 73 196617 \; jcom.init bang;#P bpatcher 5 196 255 60 0 0 jmod.motion%.mxt 0;#P objectname /motion%;#P window linecount 1;#P hidden newex 293 21 106 196617 bgcolor 200 200 200;#N vpatcher 299 67 847 571;#P window setfont "Sans Serif" 9.;#P window linecount 1;#P newex 110 24 72 196617 r from-movie;#P window linecount 0;#P message 310 273 105 196617 framedump 0 1024 1;#P newex 310 360 27 196617 t l b;#P message 310 323 105 196617 framedump 0 4096 4;#P message 310 299 105 196617 framedump 0 2048 2;#P number 232 156 68 9 0 0 0 3 0 0 0 221 221 221 222 222 222 0 0 0;#P newex 232 133 43 196617 / 1024;#P button 355 372 15 0;#P newex 355 397 80 196617 s clear-window;#P objectname xraymean[1];#P message 310 224 86 196617 cancelframedump;#P toggle 46 117 15 0;#P newex 46 140 41 196617 sel 1 0;#P button 133 172 15 0;#P newex 133 196 128 196617 pack framedump 0 1024 1;#P number 232 113 68 9 0 0 0 3 0 0 0 221 221 221 222 222 222 0 0 0;#P number 157 131 35 9 0 0 0 3 0 0 0 221 221 221 222 222 222 0 0 0;#P toggle 110 115 15 0;#P newex 110 91 57 196617 route done;#P newex 110 50 141 196617 route framedump framecount;#P message 27 176 86 196617 cancelframedump;#P message 310 252 60 196617 framedump;#P newex 156 445 59 196617 s to-movie;#P connect 10 1 2 0;#P connect 11 0 10 0;#P connect 21 0 3 0;#P connect 3 0 4 0;#P connect 4 0 5 0;#P connect 10 0 9 0;#P connect 9 0 8 0;#P connect 19 0 0 0;#P connect 8 0 0 0;#P connect 12 0 0 0;#P connect 1 0 0 0;#P connect 2 0 0 0;#P connect 4 1 6 0;#P connect 3 1 7 0;#P connect 7 0 15 0;#P connect 15 0 16 0;#P connect 17 0 19 0;#P connect 18 0 19 0;#P connect 20 0 19 0;#P connect 19 1 14 0;#P connect 14 0 13 0;#P pop;#P newobj 345 107 47 196617 p mode2;#N vpatcher 341 108 838 423;#P window setfont "Sans Serif" 9.;#P window linecount 2;#P comment 308 92 64 196617 Total frames in movie;#P comment 308 140 74 196617 Find ncessary frame spacing;#P window linecount 1;#P newex 126 121 21 196617 t 0;#P newex 126 24 72 196617 r from-movie;#P newex 61 203 80 196617 s clear-window;#P objectname xraymean[1];#P toggle 46 93 29 0;#P newex 46 138 41 196617 sel 0 1;#P button 61 163 15 0;#P newex 249 167 43 196617 route 0;#P newex 170 203 110 196617 pack framedump 0 1 1;#P number 249 145 35 9 0 0 0 3 0 0 0 221 221 221 222 222 222 0 0 0;#P newex 249 121 43 196617 / 1024;#P newex 387 96 82 196617 t getframecount;#P number 236 98 68 9 0 0 0 3 0 0 0 221 221 221 222 222 222 0 0 0;#P number 173 121 46 9 0 0 0 3 0 0 0 221 221 221 222 222 222 0 0 0;#P newex 126 98 57 196617 route done;#P newex 126 57 164 196617 route framedump framecount read;#P message 46 237 86 196617 cancelframedump;#P newex 170 270 59 196617 s to-movie;#P comment 7 102 34 196617 Dump;#P comment 155 141 79 196617 Dumped frames;#P fasten 18 0 15 0 131 143 108 143 108 86 51 86;#P connect 15 0 14 0;#P connect 14 0 3 0;#P connect 14 1 13 0;#P connect 13 0 16 0;#P connect 17 0 4 0;#P connect 4 0 5 0;#P connect 5 0 18 0;#P fasten 13 0 11 0 66 190 175 190;#P connect 11 0 2 0;#P fasten 3 0 2 0 51 262 175 262;#P fasten 8 0 2 0 392 255 175 255;#P connect 5 1 6 0;#P fasten 4 1 7 0 182 91 241 91;#P connect 7 0 11 2;#P connect 7 0 9 0;#P connect 9 0 10 0;#P connect 10 0 12 0;#P connect 12 1 11 3;#P fasten 4 2 8 0 233 81 392 81;#P pop 1;#P newobj 294 107 47 196617 p mode1;#P user jit.pwindow 445 69 642 642 0 1 0 0 1 0;#P objectname jit.pwindow[1];#P hidden connect 6 2 12 0;#P hidden connect 8 1 7 0;#P hidden connect 10 1 9 1;#P hidden connect 9 1 8 1;#P hidden connect 8 1 4 1;#P hidden connect 4 1 6 1;#P fasten 11 1 0 0 696 68 451 68;#P hidden connect 6 2 11 1;#P connect 11 1 13 0;#P pop;