max v2;#N vpatcher 185 145 1202 740;#P origin -176 35;#P bpatcher 6 11 255 60 0 0 jmod.input%.mxt 0 /input%;#P objectname /input%;#P window setfont "Sans Serif" 9.;#P message 704 222 40 196617 /reset;#P newex 682 275 81 196617 jcom.autosize%;#B color 5;#P user jit.pwindow 681 299 251 231 0 1 0 0 1 0;#P newex 682 252 83 196617 jcom.autocrop%;#B color 5;#P bpatcher 6 71 255 60 0 0 jmod.brcosa%.mxt 0 /brcosa%;#P objectname jmod.brcosa%.mxt;#P user jit.pwindow 5 299 322 242 0 1 0 0 1 0;#P message 429 244 165 196617 srcdimend \$1 \$2 \, dstdimend \$1 \$2;#P message 406 223 182 196617 srcdimstart \$1 \$2 \, dstdimstart \$1 \$2;#P user jit.fpsgui 188 158 60 196617 0;#P newex 341 160 50 196617 t l l clear;#P user jit.pwindow 340 299 322 242 0 1 0 0 1 0;#P newex 406 269 184 196617 jit.matrix @usesrcdim 1 @usedstdim 1;#P newex 361 186 146 196617 jit.findbounds @min 1 @max 1;#B color 5;#P fasten 8 1 7 0 256 215 11 215;#P fasten 8 1 4 0 256 147 193 147;#P hidden connect 13 1 8 1;#P fasten 8 1 3 0 256 147 346 147;#P fasten 1 0 2 0 411 292 346 292;#P connect 3 1 0 0;#P fasten 0 0 5 0 366 213 411 213;#P fasten 6 0 1 0 434 266 411 266;#P connect 5 0 1 0;#P fasten 3 0 1 0 346 261 411 261;#P connect 3 2 1 0;#P connect 0 1 6 0;#P fasten 8 1 9 0 256 147 687 147;#P connect 12 0 9 0;#P connect 9 0 11 0;#P connect 11 0 10 0;#P pop;