max v2;#N vpatcher 656 149 1746 801;#P origin -174 35;#P bpatcher 1 53 255 60 0 0 jmod.input%.mxt 0 /input%;#P objectname /input%;#P window setfont "Sans Serif" 9.;#P window linecount 1;#P message 787 275 40 196617 /reset;#P newex 765 328 81 196617 jcom.autosize%;#B color 5;#P user jit.pwindow 764 350 251 231 0 1 0 0 1 0;#P newex 765 305 83 196617 jcom.autocrop%;#B color 5;#P bpatcher 1 113 255 60 0 0 jmod.brcosa%.mxt 0 /brcosa%;#P objectname jmod.brcosa%.mxt;#P user jit.pwindow 8 341 322 242 0 1 0 0 1 0;#P message 376 291 165 196617 srcdimend \$1 \$2 \, dstdimend \$1 \$2;#P message 353 265 182 196617 srcdimstart \$1 \$2 \, dstdimstart \$1 \$2;#P user jit.fpsgui 135 203 60 196617 0;#P newex 288 202 50 196617 t l l clear;#P user jit.pwindow 352 339 322 242 0 1 0 0 1 0;#P newex 353 311 184 196617 jit.matrix @usesrcdim 1 @usedstdim 1;#P newex 308 228 146 196617 jit.findbounds @min 1 @max 1;#B color 5;#P connect 8 1 7 0;#P fasten 8 1 4 0 251 188 140 188;#P hidden connect 13 1 8 1;#P connect 8 1 3 0;#P connect 3 1 0 0;#P connect 0 0 5 0;#P connect 3 2 1 0;#P connect 3 0 1 0;#P connect 5 0 1 0;#P fasten 6 0 1 0 381 308 358 308;#P connect 1 0 2 0;#P connect 0 1 6 0;#P connect 8 1 9 0;#P connect 12 0 9 0;#P connect 9 0 11 0;#P connect 11 0 10 0;#P pop;