max v2;#N vpatcher 30 89 751 349;#P outlet 669 174 13 0;#P outlet 653 174 13 0;#P outlet 637 174 13 0;#P outlet 621 174 13 0;#P outlet 605 174 13 0;#P outlet 589 174 13 0;#P outlet 573 174 13 0;#P outlet 557 174 13 0;#P outlet 541 174 13 0;#P outlet 525 174 13 0;#P outlet 509 174 13 0;#P outlet 493 174 13 0;#P outlet 477 174 13 0;#P outlet 461 174 13 0;#P outlet 445 174 13 0;#P outlet 429 174 13 0;#P outlet 413 174 13 0;#P outlet 397 174 13 0;#P outlet 381 174 13 0;#P outlet 365 174 13 0;#P outlet 349 174 13 0;#P outlet 333 174 13 0;#P outlet 317 174 13 0;#P outlet 301 174 13 0;#P outlet 285 174 13 0;#P outlet 269 174 13 0;#P outlet 253 174 13 0;#P outlet 237 174 13 0;#P outlet 221 174 13 0;#P outlet 205 174 13 0;#P outlet 189 174 13 0;#P window setfont "Sans Serif" 9.;#P window linecount 1;#P newex 21 72 149 196617 jcom.oscroute /channel_offset;#P newex 173 137 513 196617 jcom.multi.out~.mxt;#P inlet 21 40 14 0;#P inlet 173 40 14 0;#P outlet 173 174 13 0;#P connect 2 0 4 0;#P connect 1 0 3 0;#P connect 3 0 0 0;#P connect 3 1 5 0;#P connect 3 2 6 0;#P connect 3 3 7 0;#P connect 3 4 8 0;#P connect 3 5 9 0;#P connect 3 6 10 0;#P connect 3 7 11 0;#P connect 3 8 12 0;#P connect 3 9 13 0;#P connect 3 10 14 0;#P connect 3 11 15 0;#P connect 3 12 16 0;#P connect 3 13 17 0;#P connect 3 14 18 0;#P connect 3 15 19 0;#P connect 3 16 20 0;#P connect 3 17 21 0;#P connect 3 18 22 0;#P connect 3 19 23 0;#P connect 3 20 24 0;#P connect 3 21 25 0;#P connect 3 22 26 0;#P connect 3 23 27 0;#P connect 3 24 28 0;#P connect 3 25 29 0;#P connect 3 26 30 0;#P connect 3 27 31 0;#P connect 3 28 32 0;#P connect 3 29 33 0;#P connect 3 30 34 0;#P connect 3 31 35 0;#P fasten 4 0 3 1 26 113 681 113;#P lcolor 1;#P pop;