{
	"patcher" : 	{
		"fileversion" : 1,
		"rect" : [ 167.0, 112.0, 659.0, 594.0 ],
		"bglocked" : 0,
		"defrect" : [ 167.0, 112.0, 659.0, 594.0 ],
		"openrect" : [ 0.0, 0.0, 0.0, 0.0 ],
		"openinpresentation" : 0,
		"default_fontsize" : 10.0,
		"default_fontface" : 0,
		"default_fontname" : "Verdana",
		"gridonopen" : 0,
		"gridsize" : [ 5.0, 5.0 ],
		"gridsnaponopen" : 0,
		"toolbarvisible" : 1,
		"boxanimatetime" : 200,
		"imprint" : 0,
		"metadata" : [  ],
		"boxes" : [ 			{
				"box" : 				{
					"maxclass" : "comment",
					"text" : "Right channel",
					"fontsize" : 10.0,
					"frgb" : [ 0.337255, 0.356863, 0.690196, 1.0 ],
					"patching_rect" : [ 385.0, 45.0, 79.0, 19.0 ],
					"numinlets" : 1,
					"id" : "obj-1",
					"fontname" : "Verdana",
					"numoutlets" : 0
				}

			}
, 			{
				"box" : 				{
					"maxclass" : "comment",
					"text" : "at Wikipedia",
					"fontsize" : 10.0,
					"textcolor" : [ 0.4, 0.4, 0.8, 1.0 ],
					"frgb" : [ 0.4, 0.4, 0.8, 1.0 ],
					"patching_rect" : [ 245.0, 545.0, 72.0, 19.0 ],
					"numinlets" : 1,
					"id" : "obj-2",
					"fontname" : "Verdana",
					"numoutlets" : 0
				}

			}
, 			{
				"box" : 				{
					"maxclass" : "comment",
					"text" : "Decoder based on the equation found",
					"fontsize" : 10.0,
					"frgb" : [ 0.337255, 0.356863, 0.690196, 1.0 ],
					"patching_rect" : [ 43.0, 545.0, 200.0, 19.0 ],
					"numinlets" : 1,
					"id" : "obj-3",
					"fontname" : "Verdana",
					"numoutlets" : 0
				}

			}
, 			{
				"box" : 				{
					"maxclass" : "ubutton",
					"outlettype" : [ "bang", "bang", "", "int" ],
					"handoff" : "",
					"patching_rect" : [ 245.0, 545.0, 75.0, 20.0 ],
					"numinlets" : 1,
					"id" : "obj-4",
					"numoutlets" : 4
				}

			}
, 			{
				"box" : 				{
					"maxclass" : "message",
					"text" : ";\rmax launchbrowser http://en.wikipedia.org/wiki/Ambisonic_UHJ_format",
					"linecount" : 2,
					"outlettype" : [ "" ],
					"fontsize" : 10.0,
					"hidden" : 1,
					"patching_rect" : [ 245.0, 575.0, 373.0, 29.0 ],
					"numinlets" : 2,
					"id" : "obj-5",
					"fontname" : "Verdana",
					"numoutlets" : 1
				}

			}
, 			{
				"box" : 				{
					"maxclass" : "newobj",
					"text" : "-~",
					"outlettype" : [ "signal" ],
					"fontsize" : 10.0,
					"patching_rect" : [ 90.0, 385.0, 32.5, 19.0 ],
					"numinlets" : 2,
					"id" : "obj-6",
					"fontname" : "Verdana",
					"numoutlets" : 1
				}

			}
, 			{
				"box" : 				{
					"maxclass" : "newobj",
					"text" : "*~ 0.1925",
					"outlettype" : [ "signal" ],
					"fontsize" : 10.0,
					"patching_rect" : [ 550.0, 410.0, 64.0, 19.0 ],
					"numinlets" : 2,
					"id" : "obj-7",
					"fontname" : "Verdana",
					"numoutlets" : 1
				}

			}
, 			{
				"box" : 				{
					"maxclass" : "newobj",
					"text" : "*~ 0.3815",
					"outlettype" : [ "signal" ],
					"fontsize" : 10.0,
					"patching_rect" : [ 480.0, 410.0, 64.0, 19.0 ],
					"numinlets" : 2,
					"id" : "obj-8",
					"fontname" : "Verdana",
					"numoutlets" : 1
				}

			}
, 			{
				"box" : 				{
					"maxclass" : "newobj",
					"text" : "*~ -0.414",
					"outlettype" : [ "signal" ],
					"fontsize" : 10.0,
					"patching_rect" : [ 325.0, 410.0, 62.0, 19.0 ],
					"numinlets" : 2,
					"id" : "obj-9",
					"fontname" : "Verdana",
					"numoutlets" : 1
				}

			}
, 			{
				"box" : 				{
					"maxclass" : "newobj",
					"text" : "*~ 0.2095",
					"outlettype" : [ "signal" ],
					"fontsize" : 10.0,
					"patching_rect" : [ 255.0, 410.0, 64.0, 19.0 ],
					"numinlets" : 2,
					"id" : "obj-10",
					"fontname" : "Verdana",
					"numoutlets" : 1
				}

			}
, 			{
				"box" : 				{
					"maxclass" : "comment",
					"text" : "Y",
					"fontsize" : 10.0,
					"frgb" : [ 0.337255, 0.356863, 0.690196, 1.0 ],
					"patching_rect" : [ 480.0, 485.0, 29.0, 19.0 ],
					"numinlets" : 1,
					"id" : "obj-11",
					"fontname" : "Verdana",
					"numoutlets" : 0
				}

			}
, 			{
				"box" : 				{
					"maxclass" : "comment",
					"text" : "X",
					"fontsize" : 10.0,
					"frgb" : [ 0.337255, 0.356863, 0.690196, 1.0 ],
					"patching_rect" : [ 255.0, 485.0, 29.0, 19.0 ],
					"numinlets" : 1,
					"id" : "obj-12",
					"fontname" : "Verdana",
					"numoutlets" : 0
				}

			}
, 			{
				"box" : 				{
					"maxclass" : "newobj",
					"text" : "-~",
					"outlettype" : [ "signal" ],
					"fontsize" : 10.0,
					"patching_rect" : [ 325.0, 385.0, 32.5, 19.0 ],
					"numinlets" : 2,
					"id" : "obj-13",
					"fontname" : "Verdana",
					"numoutlets" : 1
				}

			}
, 			{
				"box" : 				{
					"maxclass" : "newobj",
					"text" : "*~ 0.082",
					"outlettype" : [ "signal" ],
					"fontsize" : 10.0,
					"patching_rect" : [ 90.0, 410.0, 58.0, 19.0 ],
					"numinlets" : 2,
					"id" : "obj-14",
					"fontname" : "Verdana",
					"numoutlets" : 1
				}

			}
, 			{
				"box" : 				{
					"maxclass" : "newobj",
					"text" : "*~ 0.491",
					"outlettype" : [ "signal" ],
					"fontsize" : 10.0,
					"patching_rect" : [ 25.0, 410.0, 58.0, 19.0 ],
					"numinlets" : 2,
					"id" : "obj-15",
					"fontname" : "Verdana",
					"numoutlets" : 1
				}

			}
, 			{
				"box" : 				{
					"maxclass" : "newobj",
					"text" : "-~",
					"outlettype" : [ "signal" ],
					"fontsize" : 10.0,
					"patching_rect" : [ 480.0, 385.0, 32.5, 19.0 ],
					"numinlets" : 2,
					"id" : "obj-16",
					"fontname" : "Verdana",
					"numoutlets" : 1
				}

			}
, 			{
				"box" : 				{
					"maxclass" : "newobj",
					"text" : "hilbert~",
					"outlettype" : [ "signal", "signal" ],
					"fontsize" : 10.0,
					"patching_rect" : [ 355.0, 108.0, 214.0, 19.0 ],
					"numinlets" : 1,
					"id" : "obj-17",
					"fontname" : "Verdana",
					"numoutlets" : 2
				}

			}
, 			{
				"box" : 				{
					"maxclass" : "newobj",
					"text" : "hilbert~",
					"outlettype" : [ "signal", "signal" ],
					"fontsize" : 10.0,
					"patching_rect" : [ 26.0, 108.0, 209.0, 19.0 ],
					"numinlets" : 1,
					"id" : "obj-18",
					"fontname" : "Verdana",
					"numoutlets" : 2
				}

			}
, 			{
				"box" : 				{
					"maxclass" : "outlet",
					"patching_rect" : [ 480.0, 455.0, 25.0, 25.0 ],
					"numinlets" : 1,
					"id" : "obj-19",
					"numoutlets" : 0,
					"comment" : ""
				}

			}
, 			{
				"box" : 				{
					"maxclass" : "outlet",
					"patching_rect" : [ 255.0, 455.0, 25.0, 25.0 ],
					"numinlets" : 1,
					"id" : "obj-20",
					"numoutlets" : 0,
					"comment" : ""
				}

			}
, 			{
				"box" : 				{
					"maxclass" : "outlet",
					"patching_rect" : [ 25.0, 455.0, 25.0, 25.0 ],
					"numinlets" : 1,
					"id" : "obj-21",
					"numoutlets" : 0,
					"comment" : ""
				}

			}
, 			{
				"box" : 				{
					"maxclass" : "inlet",
					"outlettype" : [ "" ],
					"patching_rect" : [ 355.0, 45.0, 25.0, 25.0 ],
					"numinlets" : 0,
					"id" : "obj-22",
					"numoutlets" : 1,
					"comment" : ""
				}

			}
, 			{
				"box" : 				{
					"maxclass" : "inlet",
					"outlettype" : [ "" ],
					"patching_rect" : [ 25.0, 40.0, 25.0, 25.0 ],
					"numinlets" : 0,
					"id" : "obj-23",
					"numoutlets" : 1,
					"comment" : ""
				}

			}
, 			{
				"box" : 				{
					"maxclass" : "comment",
					"text" : "W",
					"fontsize" : 10.0,
					"frgb" : [ 0.337255, 0.356863, 0.690196, 1.0 ],
					"patching_rect" : [ 25.0, 485.0, 29.0, 19.0 ],
					"numinlets" : 1,
					"id" : "obj-24",
					"fontname" : "Verdana",
					"numoutlets" : 0
				}

			}
, 			{
				"box" : 				{
					"maxclass" : "comment",
					"text" : "Decodes a stereo siganal to the W, X, Y Ambisonics components",
					"fontsize" : 10.0,
					"frgb" : [ 0.337255, 0.356863, 0.690196, 1.0 ],
					"patching_rect" : [ 42.0, 527.0, 331.0, 19.0 ],
					"numinlets" : 1,
					"id" : "obj-25",
					"fontname" : "Verdana",
					"numoutlets" : 0
				}

			}
, 			{
				"box" : 				{
					"maxclass" : "comment",
					"text" : "Left channel",
					"fontsize" : 10.0,
					"frgb" : [ 0.337255, 0.356863, 0.690196, 1.0 ],
					"patching_rect" : [ 55.0, 40.0, 70.0, 19.0 ],
					"numinlets" : 1,
					"id" : "obj-26",
					"fontname" : "Verdana",
					"numoutlets" : 0
				}

			}
 ],
		"lines" : [ 			{
				"patchline" : 				{
					"source" : [ "obj-18", 1 ],
					"destination" : [ "obj-7", 0 ],
					"hidden" : 0,
					"color" : [ 0.317647, 0.709804, 0.321569, 1.0 ],
					"midpoints" : [ 225.5, 222.0, 559.5, 222.0 ]
				}

			}
, 			{
				"patchline" : 				{
					"source" : [ "obj-18", 1 ],
					"destination" : [ "obj-13", 0 ],
					"hidden" : 0,
					"color" : [ 0.317647, 0.709804, 0.321569, 1.0 ],
					"midpoints" : [ 225.5, 228.0, 334.5, 228.0 ]
				}

			}
, 			{
				"patchline" : 				{
					"source" : [ "obj-18", 0 ],
					"destination" : [ "obj-16", 0 ],
					"hidden" : 0,
					"color" : [ 0.811765, 0.372549, 0.372549, 1.0 ],
					"midpoints" : [ 35.5, 184.0, 489.5, 184.0 ]
				}

			}
, 			{
				"patchline" : 				{
					"source" : [ "obj-18", 0 ],
					"destination" : [ "obj-15", 0 ],
					"hidden" : 0,
					"color" : [ 0.811765, 0.372549, 0.372549, 1.0 ],
					"midpoints" : [  ]
				}

			}
, 			{
				"patchline" : 				{
					"source" : [ "obj-17", 1 ],
					"destination" : [ "obj-6", 1 ],
					"hidden" : 0,
					"midpoints" : [ 559.5, 315.0, 113.0, 315.0 ]
				}

			}
, 			{
				"patchline" : 				{
					"source" : [ "obj-18", 0 ],
					"destination" : [ "obj-10", 0 ],
					"hidden" : 0,
					"color" : [ 0.811765, 0.372549, 0.372549, 1.0 ],
					"midpoints" : [ 35.5, 190.0, 264.5, 190.0 ]
				}

			}
, 			{
				"patchline" : 				{
					"source" : [ "obj-17", 1 ],
					"destination" : [ "obj-7", 0 ],
					"hidden" : 0,
					"midpoints" : [ 559.5, 396.0, 559.5, 396.0 ]
				}

			}
, 			{
				"patchline" : 				{
					"source" : [ "obj-17", 0 ],
					"destination" : [ "obj-16", 1 ],
					"hidden" : 0,
					"color" : [ 0.827451, 0.827451, 0.827451, 1.0 ],
					"midpoints" : [ 364.5, 281.0, 503.0, 281.0 ]
				}

			}
, 			{
				"patchline" : 				{
					"source" : [ "obj-17", 1 ],
					"destination" : [ "obj-13", 1 ],
					"hidden" : 0,
					"midpoints" : [ 559.5, 320.0, 348.0, 320.0 ]
				}

			}
, 			{
				"patchline" : 				{
					"source" : [ "obj-17", 0 ],
					"destination" : [ "obj-10", 0 ],
					"hidden" : 0,
					"color" : [ 0.827451, 0.827451, 0.827451, 1.0 ],
					"midpoints" : [ 364.5, 271.0, 264.5, 271.0 ]
				}

			}
, 			{
				"patchline" : 				{
					"source" : [ "obj-17", 0 ],
					"destination" : [ "obj-15", 0 ],
					"hidden" : 0,
					"color" : [ 0.827451, 0.827451, 0.827451, 1.0 ],
					"midpoints" : [ 364.5, 264.0, 34.5, 264.0 ]
				}

			}
, 			{
				"patchline" : 				{
					"source" : [ "obj-4", 0 ],
					"destination" : [ "obj-5", 0 ],
					"hidden" : 1,
					"midpoints" : [  ]
				}

			}
, 			{
				"patchline" : 				{
					"source" : [ "obj-23", 0 ],
					"destination" : [ "obj-18", 0 ],
					"hidden" : 0,
					"midpoints" : [  ]
				}

			}
, 			{
				"patchline" : 				{
					"source" : [ "obj-15", 0 ],
					"destination" : [ "obj-21", 0 ],
					"hidden" : 0,
					"midpoints" : [  ]
				}

			}
, 			{
				"patchline" : 				{
					"source" : [ "obj-14", 0 ],
					"destination" : [ "obj-21", 0 ],
					"hidden" : 0,
					"midpoints" : [  ]
				}

			}
, 			{
				"patchline" : 				{
					"source" : [ "obj-18", 1 ],
					"destination" : [ "obj-6", 0 ],
					"hidden" : 0,
					"color" : [ 0.317647, 0.709804, 0.321569, 1.0 ],
					"midpoints" : [ 225.5, 214.0, 99.5, 214.0 ]
				}

			}
, 			{
				"patchline" : 				{
					"source" : [ "obj-6", 0 ],
					"destination" : [ "obj-14", 0 ],
					"hidden" : 0,
					"midpoints" : [  ]
				}

			}
, 			{
				"patchline" : 				{
					"source" : [ "obj-10", 0 ],
					"destination" : [ "obj-20", 0 ],
					"hidden" : 0,
					"midpoints" : [  ]
				}

			}
, 			{
				"patchline" : 				{
					"source" : [ "obj-9", 0 ],
					"destination" : [ "obj-20", 0 ],
					"hidden" : 0,
					"midpoints" : [  ]
				}

			}
, 			{
				"patchline" : 				{
					"source" : [ "obj-13", 0 ],
					"destination" : [ "obj-9", 0 ],
					"hidden" : 0,
					"midpoints" : [  ]
				}

			}
, 			{
				"patchline" : 				{
					"source" : [ "obj-22", 0 ],
					"destination" : [ "obj-17", 0 ],
					"hidden" : 0,
					"midpoints" : [  ]
				}

			}
, 			{
				"patchline" : 				{
					"source" : [ "obj-16", 0 ],
					"destination" : [ "obj-8", 0 ],
					"hidden" : 0,
					"midpoints" : [  ]
				}

			}
, 			{
				"patchline" : 				{
					"source" : [ "obj-8", 0 ],
					"destination" : [ "obj-19", 0 ],
					"hidden" : 0,
					"midpoints" : [  ]
				}

			}
, 			{
				"patchline" : 				{
					"source" : [ "obj-7", 0 ],
					"destination" : [ "obj-19", 0 ],
					"hidden" : 0,
					"midpoints" : [  ]
				}

			}
 ]
	}

}
