{
	"patcher" : 	{
		"rect" : [ 13.0, 64.0, 1169.0, 640.0 ],
		"bgcolor" : [ 1.0, 1.0, 1.0, 1.0 ],
		"bglocked" : 0,
		"defrect" : [ 13.0, 64.0, 1169.0, 640.0 ],
		"openinpresentation" : 0,
		"default_fontsize" : 10.0,
		"default_fontface" : 0,
		"default_fontname" : "Verdana",
		"gridonopen" : 0,
		"gridsize" : [ 5.0, 5.0 ],
		"gridsnaponopen" : 0,
		"toolbarvisible" : 1,
		"boxfadetime" : 200,
		"boxanimatetime" : 200,
		"scrollanimatetime" : 200,
		"metadata" : [  ],
		"boxes" : [ 			{
				"box" : 				{
					"maxclass" : "message",
					"text" : "\/preset\/store 1 default, \/preset\/write",
					"numinlets" : 2,
					"bgcolor" : [ 0.8, 0.54902, 0.54902, 1.0 ],
					"patching_rect" : [ 101.0, 104.0, 197.0, 15.0 ],
					"numoutlets" : 1,
					"fontsize" : 9.0,
					"fontname" : "Verdana",
					"outlettype" : [ "" ],
					"id" : "obj-1"
				}

			}
, 			{
				"box" : 				{
					"maxclass" : "newobj",
					"text" : "jcom.out 1",
					"numinlets" : 1,
					"patching_rect" : [ 174.0, 320.0, 57.0, 17.0 ],
					"numoutlets" : 1,
					"fontsize" : 9.0,
					"fontname" : "Verdana",
					"outlettype" : [ "" ],
					"id" : "obj-2"
				}

			}
, 			{
				"box" : 				{
					"maxclass" : "inlet",
					"numinlets" : 0,
					"patching_rect" : [ 134.0, 227.0, 13.0, 13.0 ],
					"numoutlets" : 1,
					"outlettype" : [ "" ],
					"id" : "obj-3",
					"comment" : ""
				}

			}
, 			{
				"box" : 				{
					"maxclass" : "comment",
					"text" : "VIDEO INPUT",
					"numinlets" : 1,
					"patching_rect" : [ 149.0, 227.0, 67.0, 17.0 ],
					"numoutlets" : 0,
					"fontsize" : 9.0,
					"fontname" : "Verdana",
					"id" : "obj-4"
				}

			}
, 			{
				"box" : 				{
					"maxclass" : "newobj",
					"text" : "jcom.in 1",
					"numinlets" : 1,
					"patching_rect" : [ 134.0, 243.0, 57.0, 17.0 ],
					"numoutlets" : 2,
					"fontsize" : 9.0,
					"fontname" : "Verdana",
					"outlettype" : [ "", "" ],
					"id" : "obj-5"
				}

			}
, 			{
				"box" : 				{
					"maxclass" : "newobj",
					"text" : "sel 1 0",
					"numinlets" : 1,
					"patching_rect" : [ 503.0, 335.0, 41.0, 17.0 ],
					"numoutlets" : 3,
					"fontsize" : 9.0,
					"fontname" : "Verdana",
					"outlettype" : [ "bang", "bang", "" ],
					"id" : "obj-6"
				}

			}
, 			{
				"box" : 				{
					"maxclass" : "newobj",
					"text" : "pvar Record",
					"numinlets" : 1,
					"patching_rect" : [ 503.0, 312.0, 65.0, 17.0 ],
					"numoutlets" : 1,
					"fontsize" : 9.0,
					"fontname" : "Verdana",
					"outlettype" : [ "" ],
					"id" : "obj-7"
				}

			}
, 			{
				"box" : 				{
					"maxclass" : "newobj",
					"text" : "pvar Realtime",
					"numinlets" : 1,
					"patching_rect" : [ 503.0, 257.0, 73.0, 17.0 ],
					"numoutlets" : 1,
					"fontsize" : 9.0,
					"fontname" : "Verdana",
					"outlettype" : [ "" ],
					"id" : "obj-8"
				}

			}
, 			{
				"box" : 				{
					"maxclass" : "newobj",
					"text" : "pvar Interpolate",
					"numinlets" : 1,
					"patching_rect" : [ 503.0, 231.0, 83.0, 17.0 ],
					"numoutlets" : 1,
					"fontsize" : 9.0,
					"fontname" : "Verdana",
					"outlettype" : [ "" ],
					"id" : "obj-9"
				}

			}
, 			{
				"box" : 				{
					"maxclass" : "jsui",
					"varname" : "Record",
					"nofsaa" : 1,
					"numinlets" : 1,
					"patching_rect" : [ 167.0, 40.0, 45.0, 19.0 ],
					"numoutlets" : 2,
					"jsarguments" : [ "Record", "Record", 204, 204, 204, 0, 0, 0, 255, 40, 40 ],
					"outlettype" : [ "", "" ],
					"id" : "obj-10",
					"filename" : "jcom.jsui_texttoggle.js"
				}

			}
, 			{
				"box" : 				{
					"maxclass" : "comment",
					"text" : "Realtime",
					"numinlets" : 1,
					"patching_rect" : [ 115.0, 43.0, 50.0, 17.0 ],
					"numoutlets" : 0,
					"fontsize" : 9.0,
					"fontname" : "Verdana",
					"frgb" : [ 1.0, 1.0, 1.0, 1.0 ],
					"id" : "obj-11",
					"textcolor" : [ 1.0, 1.0, 1.0, 1.0 ]
				}

			}
, 			{
				"box" : 				{
					"maxclass" : "newobj",
					"varname" : "inspector",
					"text" : "p inspector",
					"numinlets" : 1,
					"patching_rect" : [ 157.0, 378.0, 60.0, 17.0 ],
					"numoutlets" : 0,
					"fontsize" : 9.0,
					"fontname" : "Verdana",
					"id" : "obj-12",
					"patcher" : 					{
						"rect" : [ 100.0, 100.0, 196.0, 211.0 ],
						"bgcolor" : [ 0.588235, 0.588235, 0.588235, 1.0 ],
						"bglocked" : 0,
						"defrect" : [ 100.0, 100.0, 196.0, 211.0 ],
						"openinpresentation" : 0,
						"default_fontsize" : 10.0,
						"default_fontface" : 0,
						"default_fontname" : "Verdana",
						"gridonopen" : 0,
						"gridsize" : [ 5.0, 5.0 ],
						"gridsnaponopen" : 0,
						"toolbarvisible" : 1,
						"boxfadetime" : 200,
						"boxanimatetime" : 200,
						"scrollanimatetime" : 200,
						"metadata" : [  ],
						"boxes" : [ 							{
								"box" : 								{
									"maxclass" : "message",
									"text" : "window size 100 100 296 285, window exec",
									"numinlets" : 2,
									"patching_rect" : [ 1.0, 179.0, 214.0, 15.0 ],
									"numoutlets" : 1,
									"hidden" : 1,
									"fontsize" : 9.0,
									"fontname" : "Verdana",
									"outlettype" : [ "" ],
									"id" : "obj-1"
								}

							}
, 							{
								"box" : 								{
									"maxclass" : "message",
									"text" : "window flags nogrow, savewindow 1, window exec",
									"numinlets" : 2,
									"patching_rect" : [ 1.0, 161.0, 239.0, 15.0 ],
									"numoutlets" : 1,
									"hidden" : 1,
									"fontsize" : 9.0,
									"fontname" : "Verdana",
									"outlettype" : [ "" ],
									"id" : "obj-2"
								}

							}
, 							{
								"box" : 								{
									"maxclass" : "message",
									"text" : "window flags grow, window exec",
									"numinlets" : 2,
									"patching_rect" : [ 1.0, 144.0, 158.0, 15.0 ],
									"numoutlets" : 1,
									"hidden" : 1,
									"fontsize" : 9.0,
									"fontname" : "Verdana",
									"outlettype" : [ "" ],
									"id" : "obj-3"
								}

							}
, 							{
								"box" : 								{
									"maxclass" : "newobj",
									"text" : "bgcolor 150 150 150",
									"numinlets" : 4,
									"patching_rect" : [ 228.0, 147.0, 106.0, 17.0 ],
									"numoutlets" : 0,
									"hidden" : 1,
									"fontsize" : 9.0,
									"fontname" : "Verdana",
									"id" : "obj-4"
								}

							}
, 							{
								"box" : 								{
									"maxclass" : "bpatcher",
									"varname" : "\/matrix",
									"name" : "jcom.class.matrix.inspector.maxpat",
									"numinlets" : 0,
									"patching_rect" : [ 3.0, 2.0, 194.0, 175.0 ],
									"numoutlets" : 0,
									"id" : "obj-5",
									"args" : [ "matrix" ],
									"lockeddragscroll" : 1
								}

							}
, 							{
								"box" : 								{
									"maxclass" : "newobj",
									"text" : "t front",
									"numinlets" : 1,
									"patching_rect" : [ 228.0, 93.0, 40.0, 17.0 ],
									"numoutlets" : 1,
									"hidden" : 1,
									"fontsize" : 9.0,
									"fontname" : "Verdana",
									"outlettype" : [ "front" ],
									"id" : "obj-6"
								}

							}
, 							{
								"box" : 								{
									"maxclass" : "newobj",
									"text" : "sel 1",
									"numinlets" : 2,
									"patching_rect" : [ 228.0, 74.0, 32.0, 17.0 ],
									"numoutlets" : 2,
									"hidden" : 1,
									"fontsize" : 9.0,
									"fontname" : "Verdana",
									"outlettype" : [ "bang", "" ],
									"id" : "obj-7"
								}

							}
, 							{
								"box" : 								{
									"maxclass" : "newobj",
									"text" : "thispatcher",
									"numinlets" : 1,
									"patching_rect" : [ 228.0, 112.0, 61.0, 17.0 ],
									"numoutlets" : 2,
									"hidden" : 1,
									"fontsize" : 9.0,
									"fontname" : "Verdana",
									"outlettype" : [ "", "" ],
									"id" : "obj-8",
									"save" : [ "#N", "thispatcher", ";", "#Q", "savewindow", 1, ";", "#Q", "end", ";" ]
								}

							}
, 							{
								"box" : 								{
									"maxclass" : "newobj",
									"text" : "jcom.oscroute \/open_inspector",
									"numinlets" : 1,
									"patching_rect" : [ 228.0, 55.0, 151.0, 17.0 ],
									"numoutlets" : 2,
									"hidden" : 1,
									"fontsize" : 9.0,
									"fontname" : "Verdana",
									"outlettype" : [ "", "" ],
									"id" : "obj-9"
								}

							}
, 							{
								"box" : 								{
									"maxclass" : "inlet",
									"numinlets" : 0,
									"patching_rect" : [ 228.0, 36.0, 15.0, 15.0 ],
									"numoutlets" : 1,
									"hidden" : 1,
									"outlettype" : [ "" ],
									"id" : "obj-10",
									"comment" : ""
								}

							}
 ],
						"lines" : [ 							{
								"patchline" : 								{
									"source" : [ "obj-10", 0 ],
									"destination" : [ "obj-9", 0 ],
									"hidden" : 1
								}

							}
, 							{
								"patchline" : 								{
									"source" : [ "obj-9", 0 ],
									"destination" : [ "obj-7", 0 ],
									"hidden" : 1
								}

							}
, 							{
								"patchline" : 								{
									"source" : [ "obj-7", 0 ],
									"destination" : [ "obj-6", 0 ],
									"hidden" : 1
								}

							}
, 							{
								"patchline" : 								{
									"source" : [ "obj-2", 0 ],
									"destination" : [ "obj-8", 0 ],
									"hidden" : 1
								}

							}
, 							{
								"patchline" : 								{
									"source" : [ "obj-3", 0 ],
									"destination" : [ "obj-8", 0 ],
									"hidden" : 1
								}

							}
, 							{
								"patchline" : 								{
									"source" : [ "obj-1", 0 ],
									"destination" : [ "obj-8", 0 ],
									"hidden" : 1
								}

							}
, 							{
								"patchline" : 								{
									"source" : [ "obj-6", 0 ],
									"destination" : [ "obj-8", 0 ],
									"hidden" : 1
								}

							}
 ]
					}
,
					"saved_object_attributes" : 					{
						"globalpatchername" : "",
						"fontsize" : 10.0,
						"default_fontsize" : 10.0,
						"default_fontface" : 0,
						"fontname" : "Verdana",
						"fontface" : 0,
						"default_fontname" : "Verdana"
					}

				}

			}
, 			{
				"box" : 				{
					"maxclass" : "newobj",
					"text" : "pvar Framerate",
					"numinlets" : 1,
					"patching_rect" : [ 503.0, 72.0, 81.0, 17.0 ],
					"numoutlets" : 1,
					"fontsize" : 9.0,
					"fontname" : "Verdana",
					"outlettype" : [ "" ],
					"id" : "obj-13"
				}

			}
, 			{
				"box" : 				{
					"maxclass" : "flonum",
					"varname" : "Framerate",
					"numinlets" : 1,
					"bgcolor" : [ 0.866667, 0.866667, 0.866667, 1.0 ],
					"htextcolor" : [ 0.870588, 0.870588, 0.870588, 1.0 ],
					"patching_rect" : [ 195.0, 22.0, 34.0, 17.0 ],
					"transparent" : 1,
					"numoutlets" : 2,
					"fontsize" : 9.0,
					"fontname" : "Verdana",
					"triangle" : 0,
					"triscale" : 0.9,
					"outlettype" : [ "float", "bang" ],
					"id" : "obj-14",
					"minimum" : 1.0,
					"textcolor" : [ 1.0, 1.0, 1.0, 1.0 ]
				}

			}
, 			{
				"box" : 				{
					"maxclass" : "newobj",
					"text" : "pvar Quality 2",
					"numinlets" : 1,
					"patching_rect" : [ 503.0, 134.0, 75.0, 17.0 ],
					"numoutlets" : 2,
					"fontsize" : 9.0,
					"fontname" : "Verdana",
					"outlettype" : [ "", "" ],
					"id" : "obj-15"
				}

			}
, 			{
				"box" : 				{
					"maxclass" : "newobj",
					"text" : "pvar Codec 2",
					"numinlets" : 1,
					"patching_rect" : [ 503.0, 107.0, 69.0, 17.0 ],
					"numoutlets" : 2,
					"fontsize" : 9.0,
					"fontname" : "Verdana",
					"outlettype" : [ "", "" ],
					"id" : "obj-16"
				}

			}
, 			{
				"box" : 				{
					"maxclass" : "newobj",
					"varname" : "realtime",
					"text" : "jcom.parameter realtime @type msg_toggle @description \"Realtime (flag). When enabled internal clock is used.\"",
					"linecount" : 2,
					"numinlets" : 1,
					"patching_rect" : [ 594.0, 257.0, 294.0, 28.0 ],
					"numoutlets" : 1,
					"fontsize" : 9.0,
					"fontname" : "Verdana",
					"outlettype" : [ "" ],
					"id" : "obj-17"
				}

			}
, 			{
				"box" : 				{
					"maxclass" : "newobj",
					"varname" : "interp",
					"text" : "jcom.parameter interp @type msg_toggle @description \"Interpolate (flag).\"",
					"numinlets" : 1,
					"patching_rect" : [ 594.0, 231.0, 376.0, 17.0 ],
					"numoutlets" : 1,
					"fontsize" : 9.0,
					"fontname" : "Verdana",
					"outlettype" : [ "" ],
					"id" : "obj-18"
				}

			}
, 			{
				"box" : 				{
					"maxclass" : "newobj",
					"text" : "jcom.message stop @description \"Stop recording QuickTime movie.\"",
					"numinlets" : 1,
					"patching_rect" : [ 518.0, 358.0, 366.0, 17.0 ],
					"numoutlets" : 0,
					"fontsize" : 9.0,
					"fontname" : "Verdana",
					"id" : "obj-19"
				}

			}
, 			{
				"box" : 				{
					"maxclass" : "newobj",
					"text" : "jcom.message write @description \"Start recording QuickTime movie.\"",
					"numinlets" : 1,
					"patching_rect" : [ 503.0, 379.0, 376.0, 17.0 ],
					"numoutlets" : 0,
					"fontsize" : 9.0,
					"fontname" : "Verdana",
					"id" : "obj-20"
				}

			}
, 			{
				"box" : 				{
					"maxclass" : "newobj",
					"varname" : "framerate",
					"text" : "jcom.parameter framerate @type msg_float @ramp/drive none @repetitions 0 @range/bounds 1. 25 @range/clipmode low @description Framerate.",
					"linecount" : 2,
					"numinlets" : 1,
					"patching_rect" : [ 594.0, 72.0, 322.0, 28.0 ],
					"numoutlets" : 1,
					"fontsize" : 9.0,
					"fontname" : "Verdana",
					"outlettype" : [ "" ],
					"id" : "obj-21"
				}

			}
, 			{
				"box" : 				{
					"maxclass" : "newobj",
					"varname" : "quality",
					"text" : "jcom.parameter quality @type msg_menu @description \"Codec quality.\"",
					"numinlets" : 1,
					"patching_rect" : [ 594.0, 134.0, 359.0, 17.0 ],
					"numoutlets" : 1,
					"fontsize" : 9.0,
					"fontname" : "Verdana",
					"outlettype" : [ "" ],
					"id" : "obj-22"
				}

			}
, 			{
				"box" : 				{
					"maxclass" : "newobj",
					"varname" : "codec",
					"text" : "jcom.parameter codec @type msg_menu @description \"Codec type.\"",
					"numinlets" : 1,
					"patching_rect" : [ 594.0, 107.0, 342.0, 17.0 ],
					"numoutlets" : 1,
					"fontsize" : 9.0,
					"fontname" : "Verdana",
					"outlettype" : [ "" ],
					"id" : "obj-23"
				}

			}
, 			{
				"box" : 				{
					"maxclass" : "umenu",
					"varname" : "Quality",
					"numinlets" : 1,
					"patching_rect" : [ 3.0, 42.0, 84.0, 17.0 ],
					"types" : [  ],
					"numoutlets" : 3,
					"fontsize" : 9.0,
					"fontname" : "Verdana",
					"outlettype" : [ "int", "", "" ],
					"id" : "obj-24",
					"items" : [ "(QUALITY)", ",", "lossless", ",", "max", ",", "min", ",", "low", ",", "normal", ",", "high" ]
				}

			}
, 			{
				"box" : 				{
					"maxclass" : "umenu",
					"varname" : "Codec",
					"numinlets" : 1,
					"patching_rect" : [ 3.0, 25.0, 84.0, 17.0 ],
					"types" : [  ],
					"numoutlets" : 3,
					"fontsize" : 9.0,
					"fontname" : "Verdana",
					"outlettype" : [ "int", "", "" ],
					"id" : "obj-25",
					"items" : [ "(CODEC)", ",", "alphagrey32", ",", "animation", ",", "argb64", ",", "avrjpeg", ",", "bmp", ",", "cinepak", ",", "cmyk", ",", "componentvideo", ",", "componentvideosigned", ",", "componentvideounsigned", ",", "dvntsc", ",", "dvpal", ",", "dvprontsc", ",", "dvpropal", ",", "flc", ",", "gif", ",", "graphics", ",", "grey16", ",", "h261", ",", "h263", ",", "indeo4", ",", "jpeg", ",", "macpaint", ",", "microsoft", ",", "mjpega", ",", "mjpegb", ",", "mpegyuv420", ",", "opendmljpeg", ",", "photocd", ",", "planarrgb", ",", "png", ",", "qd", ",", "qdgx", ",", "raw", ",", "rgb48", ",", "sgi", ",", "sorenson", ",", "sorensonyuv9", ",", "targa", ",", "tiff", ",", "vector", ",", "video", ",", "winraw", ",", "yuv420" ]
				}

			}
, 			{
				"box" : 				{
					"maxclass" : "message",
					"text" : "\/matrix\/type char",
					"numinlets" : 2,
					"patching_rect" : [ 147.0, 453.0, 142.0, 15.0 ],
					"numoutlets" : 1,
					"fontsize" : 9.0,
					"fontname" : "Verdana",
					"outlettype" : [ "" ],
					"id" : "obj-26"
				}

			}
, 			{
				"box" : 				{
					"maxclass" : "newobj",
					"text" : "prepend set",
					"numinlets" : 1,
					"patching_rect" : [ 147.0, 430.0, 57.0, 17.0 ],
					"numoutlets" : 1,
					"fontsize" : 9.0,
					"fontname" : "Verdana",
					"outlettype" : [ "" ],
					"id" : "obj-27"
				}

			}
, 			{
				"box" : 				{
					"maxclass" : "message",
					"text" : ";\rmax refresh",
					"linecount" : 2,
					"numinlets" : 2,
					"patching_rect" : [ 36.0, 256.0, 65.0, 26.0 ],
					"numoutlets" : 1,
					"fontsize" : 9.0,
					"fontname" : "Verdana",
					"outlettype" : [ "" ],
					"id" : "obj-28"
				}

			}
, 			{
				"box" : 				{
					"maxclass" : "comment",
					"text" : "Fps:",
					"numinlets" : 1,
					"patching_rect" : [ 165.0, 24.0, 30.0, 17.0 ],
					"numoutlets" : 0,
					"fontsize" : 9.0,
					"fontname" : "Verdana",
					"frgb" : [ 1.0, 1.0, 1.0, 1.0 ],
					"id" : "obj-29",
					"textcolor" : [ 1.0, 1.0, 1.0, 1.0 ]
				}

			}
, 			{
				"box" : 				{
					"maxclass" : "message",
					"text" : "\/documentation\/generate",
					"numinlets" : 2,
					"bgcolor" : [ 0.8, 0.54902, 0.54902, 1.0 ],
					"patching_rect" : [ 115.0, 123.0, 125.0, 15.0 ],
					"numoutlets" : 1,
					"fontsize" : 9.0,
					"fontname" : "Verdana",
					"outlettype" : [ "" ],
					"id" : "obj-30"
				}

			}
, 			{
				"box" : 				{
					"maxclass" : "newobj",
					"varname" : "jcom.hub",
					"text" : "jcom.hub jmod.record% @size 1U-half @module_type video @algorithm_type jitter @inspector 1 @description \"Record video to QuickTime movie.\"",
					"linecount" : 3,
					"numinlets" : 1,
					"patching_rect" : [ 9.0, 145.0, 293.0, 38.0 ],
					"numoutlets" : 2,
					"fontsize" : 9.0,
					"fontname" : "Verdana",
					"outlettype" : [ "", "" ],
					"id" : "obj-31"
				}

			}
, 			{
				"box" : 				{
					"maxclass" : "comment",
					"text" : "VIDEO OUTPUT",
					"numinlets" : 1,
					"patching_rect" : [ 189.0, 342.0, 77.0, 17.0 ],
					"numoutlets" : 0,
					"fontsize" : 9.0,
					"fontname" : "Verdana",
					"id" : "obj-32"
				}

			}
, 			{
				"box" : 				{
					"maxclass" : "outlet",
					"numinlets" : 1,
					"patching_rect" : [ 174.0, 342.0, 13.0, 13.0 ],
					"numoutlets" : 0,
					"id" : "obj-33",
					"comment" : ""
				}

			}
, 			{
				"box" : 				{
					"maxclass" : "newobj",
					"text" : "jalg.record%.mxt",
					"numinlets" : 2,
					"patching_rect" : [ 174.0, 299.0, 90.0, 17.0 ],
					"numoutlets" : 1,
					"fontsize" : 9.0,
					"fontname" : "Verdana",
					"outlettype" : [ "jit_matrix" ],
					"id" : "obj-34"
				}

			}
, 			{
				"box" : 				{
					"maxclass" : "message",
					"text" : ";\rjcom.init bang",
					"linecount" : 2,
					"numinlets" : 2,
					"patching_rect" : [ 36.0, 221.0, 72.0, 26.0 ],
					"numoutlets" : 1,
					"fontsize" : 9.0,
					"fontname" : "Verdana",
					"outlettype" : [ "" ],
					"id" : "obj-35"
				}

			}
, 			{
				"box" : 				{
					"maxclass" : "comment",
					"text" : "command input",
					"numinlets" : 1,
					"patching_rect" : [ 23.0, 120.0, 79.0, 17.0 ],
					"numoutlets" : 0,
					"fontsize" : 9.0,
					"fontname" : "Verdana",
					"id" : "obj-36"
				}

			}
, 			{
				"box" : 				{
					"maxclass" : "outlet",
					"numinlets" : 1,
					"patching_rect" : [ 9.0, 207.0, 13.0, 13.0 ],
					"numoutlets" : 0,
					"id" : "obj-37",
					"comment" : ""
				}

			}
, 			{
				"box" : 				{
					"maxclass" : "inlet",
					"numinlets" : 0,
					"patching_rect" : [ 9.0, 120.0, 13.0, 13.0 ],
					"numoutlets" : 1,
					"outlettype" : [ "" ],
					"id" : "obj-38",
					"comment" : ""
				}

			}
, 			{
				"box" : 				{
					"maxclass" : "comment",
					"text" : "<- substitute for desired algorithm",
					"numinlets" : 1,
					"patching_rect" : [ 256.0, 301.0, 174.0, 17.0 ],
					"numoutlets" : 0,
					"fontsize" : 9.0,
					"fontname" : "Verdana",
					"frgb" : [ 0.4, 0.4, 0.8, 1.0 ],
					"id" : "obj-39",
					"textcolor" : [ 0.4, 0.4, 0.8, 1.0 ]
				}

			}
, 			{
				"box" : 				{
					"maxclass" : "comment",
					"text" : "Interp.",
					"numinlets" : 1,
					"patching_rect" : [ 115.0, 28.0, 50.0, 17.0 ],
					"numoutlets" : 0,
					"fontsize" : 9.0,
					"fontname" : "Verdana",
					"frgb" : [ 1.0, 1.0, 1.0, 1.0 ],
					"id" : "obj-40",
					"textcolor" : [ 1.0, 1.0, 1.0, 1.0 ]
				}

			}
, 			{
				"box" : 				{
					"maxclass" : "radiogroup",
					"varname" : "Realtime",
					"numinlets" : 1,
					"patching_rect" : [ 99.0, 40.0, 59.0, 18.0 ],
					"numoutlets" : 1,
					"outlettype" : [ "" ],
					"id" : "obj-41",
					"itemtype" : 1,
					"size" : 1,
					"values" : [ 0 ],
					"disabled" : [ 0 ]
				}

			}
, 			{
				"box" : 				{
					"maxclass" : "radiogroup",
					"varname" : "Interpolate",
					"numinlets" : 1,
					"patching_rect" : [ 99.0, 25.0, 59.0, 18.0 ],
					"numoutlets" : 1,
					"outlettype" : [ "" ],
					"id" : "obj-42",
					"itemtype" : 1,
					"size" : 1,
					"values" : [ 0 ],
					"disabled" : [ 0 ]
				}

			}
, 			{
				"box" : 				{
					"maxclass" : "jcom.ui",
					"text" : "\/Jamoma",
					"color" : [ 1.0, 1.0, 1.0, 1.0 ],
					"numinlets" : 1,
					"numoutlets" : 1,
					"outlettype" : [ "" ],
					"id" : "obj-43",
					"textcolor" : [ 0.65, 0.65, 0.65, 1.0 ]
				}

			}
 ],
		"lines" : [ 			{
				"patchline" : 				{
					"source" : [ "obj-1", 0 ],
					"destination" : [ "obj-31", 0 ],
					"hidden" : 0,
					"midpoints" : [ 110.5, 142.0, 18.5, 142.0 ]
				}

			}
, 			{
				"patchline" : 				{
					"source" : [ "obj-30", 0 ],
					"destination" : [ "obj-31", 0 ],
					"hidden" : 0,
					"midpoints" : [ 124.5, 142.0, 18.5, 142.0 ]
				}

			}
, 			{
				"patchline" : 				{
					"source" : [ "obj-38", 0 ],
					"destination" : [ "obj-31", 0 ],
					"hidden" : 0
				}

			}
, 			{
				"patchline" : 				{
					"source" : [ "obj-31", 0 ],
					"destination" : [ "obj-37", 0 ],
					"hidden" : 0
				}

			}
, 			{
				"patchline" : 				{
					"source" : [ "obj-3", 0 ],
					"destination" : [ "obj-5", 0 ],
					"hidden" : 0
				}

			}
, 			{
				"patchline" : 				{
					"source" : [ "obj-27", 0 ],
					"destination" : [ "obj-26", 0 ],
					"hidden" : 0
				}

			}
, 			{
				"patchline" : 				{
					"source" : [ "obj-5", 1 ],
					"destination" : [ "obj-12", 0 ],
					"hidden" : 0
				}

			}
, 			{
				"patchline" : 				{
					"source" : [ "obj-5", 1 ],
					"destination" : [ "obj-34", 0 ],
					"hidden" : 0
				}

			}
, 			{
				"patchline" : 				{
					"source" : [ "obj-34", 0 ],
					"destination" : [ "obj-2", 0 ],
					"hidden" : 0
				}

			}
, 			{
				"patchline" : 				{
					"source" : [ "obj-2", 0 ],
					"destination" : [ "obj-33", 0 ],
					"hidden" : 0
				}

			}
, 			{
				"patchline" : 				{
					"source" : [ "obj-5", 0 ],
					"destination" : [ "obj-34", 1 ],
					"hidden" : 0,
					"midpoints" : [ 143.5, 279.0, 254.5, 279.0 ]
				}

			}
, 			{
				"patchline" : 				{
					"source" : [ "obj-21", 0 ],
					"destination" : [ "obj-13", 0 ],
					"hidden" : 0
				}

			}
, 			{
				"patchline" : 				{
					"source" : [ "obj-23", 0 ],
					"destination" : [ "obj-16", 0 ],
					"hidden" : 0
				}

			}
, 			{
				"patchline" : 				{
					"source" : [ "obj-22", 0 ],
					"destination" : [ "obj-15", 0 ],
					"hidden" : 0
				}

			}
, 			{
				"patchline" : 				{
					"source" : [ "obj-18", 0 ],
					"destination" : [ "obj-9", 0 ],
					"hidden" : 0
				}

			}
, 			{
				"patchline" : 				{
					"source" : [ "obj-17", 0 ],
					"destination" : [ "obj-8", 0 ],
					"hidden" : 0
				}

			}
, 			{
				"patchline" : 				{
					"source" : [ "obj-7", 0 ],
					"destination" : [ "obj-6", 0 ],
					"hidden" : 0
				}

			}
, 			{
				"patchline" : 				{
					"source" : [ "obj-6", 0 ],
					"destination" : [ "obj-20", 0 ],
					"hidden" : 0
				}

			}
, 			{
				"patchline" : 				{
					"source" : [ "obj-6", 1 ],
					"destination" : [ "obj-19", 0 ],
					"hidden" : 0
				}

			}
, 			{
				"patchline" : 				{
					"source" : [ "obj-13", 0 ],
					"destination" : [ "obj-21", 0 ],
					"hidden" : 0
				}

			}
, 			{
				"patchline" : 				{
					"source" : [ "obj-16", 1 ],
					"destination" : [ "obj-23", 0 ],
					"hidden" : 0
				}

			}
, 			{
				"patchline" : 				{
					"source" : [ "obj-15", 1 ],
					"destination" : [ "obj-22", 0 ],
					"hidden" : 0
				}

			}
, 			{
				"patchline" : 				{
					"source" : [ "obj-9", 0 ],
					"destination" : [ "obj-18", 0 ],
					"hidden" : 0
				}

			}
, 			{
				"patchline" : 				{
					"source" : [ "obj-8", 0 ],
					"destination" : [ "obj-17", 0 ],
					"hidden" : 0
				}

			}
 ]
	}

}
