max v2;
#N vpatcher 144 79 449 612;
#P newex 206 423 35 196617 gate 2;
#P message 198 321 78 196617 $3;
#P newex 198 343 30 196617 sel 0;
#P button 198 373 15 0;
#P button 218 373 15 0;
#P newex 158 272 50 196617 t f b;
#P message 218 394 14 196617 2;
#P message 198 394 14 196617 1;
#P message 55 181 14 196617 1;
#P message 75 181 14 196617 2;
#P newex 16 79 49 196617 t f b;
#P button 75 160 15 0;
#P button 55 160 15 0;
#P newex 55 130 30 196617 sel 0;
#P message 55 108 123 196617 $4;
#P newex 64 210 35 196617 gate 2;
#P flonum 158 238 35 9 0 0 0 3;
#P flonum 62 309 35 9 0 0 0 3;
#P flonum 25 308 35 9 0 0 0 3;
#P flonum 16 53 35 9 0 0 0 3;
#P message 89 244 63 196617 $4 \$1;
#P newex 25 272 85 196617 route Hz ms;
#P outlet 46 495 15 0;
#P newex 46 459 104 196617 scaleLP 1. $2 $3;
#P newex 16 31 93 196617 r $1;
#B color 5;
#P connect 0 0 5 0;
#P connect 5 0 14 0;
#P fasten 4 0 3 0 94 266 30 266;
#P connect 3 0 6 0;
#P fasten 7 0 1 0 67 391 51 391;
#P fasten 24 1 1 0 236 449 51 449;
#P fasten 6 0 1 0 30 391 51 391;
#P connect 1 0 2 0;
#P fasten 24 0 2 0 211 483 51 483;
#P connect 14 1 10 0;
#P connect 10 0 11 0;
#P connect 11 0 12 0;
#P connect 12 0 16 0;
#P connect 3 1 7 0;
#P fasten 15 0 9 0 80 203 69 203;
#P fasten 16 0 9 0 60 203 69 203;
#P connect 11 1 13 0;
#P connect 13 0 15 0;
#P connect 14 0 9 1;
#P connect 9 1 4 0;
#P fasten 9 0 8 0 69 232 163 232;
#P connect 8 0 19 0;
#P connect 19 1 23 0;
#P connect 23 0 22 0;
#P connect 22 0 21 0;
#P connect 21 0 17 0;
#P fasten 17 0 24 0 203 416 211 416;
#P fasten 18 0 24 0 223 416 211 416;
#P connect 22 1 20 0;
#P connect 20 0 18 0;
#P connect 19 0 24 1;
#P pop;
