{
	"patcher" : 	{
		"fileversion" : 1,
		"rect" : [ 160.0, 92.0, 832.0, 758.0 ],
		"bglocked" : 0,
		"defrect" : [ 160.0, 92.0, 832.0, 758.0 ],
		"openrect" : [ 0.0, 0.0, 0.0, 0.0 ],
		"openinpresentation" : 1,
		"default_fontsize" : 10.970939,
		"default_fontface" : 0,
		"default_fontname" : "Verdana",
		"gridonopen" : 0,
		"gridsize" : [ 5.0, 5.0 ],
		"gridsnaponopen" : 0,
		"toolbarvisible" : 1,
		"boxanimatetime" : 200,
		"imprint" : 0,
		"metadata" : [  ],
		"boxes" : [ 			{
				"box" : 				{
					"maxclass" : "newobj",
					"text" : "jcom.meter_receive 2",
					"fontname" : "Verdana",
					"numinlets" : 0,
					"fontsize" : 10.970939,
					"patching_rect" : [ 501.0, 70.0, 152.0, 20.0 ],
					"numoutlets" : 1,
					"outlettype" : [ "" ],
					"id" : "obj-51"
				}

			}
, 			{
				"box" : 				{
					"maxclass" : "newobj",
					"text" : "jcom.meter_receive 1",
					"fontname" : "Verdana",
					"numinlets" : 0,
					"fontsize" : 10.970939,
					"patching_rect" : [ 496.0, 25.0, 152.0, 20.0 ],
					"numoutlets" : 1,
					"outlettype" : [ "" ],
					"id" : "obj-5"
				}

			}
, 			{
				"box" : 				{
					"maxclass" : "jcom.meter~",
					"presentation_rect" : [ 152.0, 10.0, 80.0, 4.0 ],
					"numinlets" : 1,
					"patching_rect" : [ 406.0, 100.0, 80.0, 4.0 ],
					"numoutlets" : 0,
					"presentation" : 1,
					"id" : "obj-50"
				}

			}
, 			{
				"box" : 				{
					"maxclass" : "jcom.meter~",
					"presentation_rect" : [ 152.0, 5.0, 80.0, 4.0 ],
					"numinlets" : 1,
					"patching_rect" : [ 401.0, 55.0, 80.0, 4.0 ],
					"numoutlets" : 0,
					"presentation" : 1,
					"id" : "obj-49"
				}

			}
, 			{
				"box" : 				{
					"maxclass" : "newobj",
					"text" : "pcontrol",
					"fontname" : "Verdana",
					"numinlets" : 1,
					"fontsize" : 9.873845,
					"patching_rect" : [ 585.0, 582.0, 49.0, 18.0 ],
					"numoutlets" : 1,
					"outlettype" : [ "" ],
					"id" : "obj-1"
				}

			}
, 			{
				"box" : 				{
					"maxclass" : "newobj",
					"text" : "jcom.algorithm_control~.maxpat",
					"fontname" : "Verdana",
					"numinlets" : 1,
					"fontsize" : 9.873845,
					"patching_rect" : [ 452.0, 558.0, 173.0, 18.0 ],
					"numoutlets" : 2,
					"outlettype" : [ "", "" ],
					"id" : "obj-2"
				}

			}
, 			{
				"box" : 				{
					"maxclass" : "newobj",
					"text" : "jcom.out~ 2",
					"fontname" : "Verdana",
					"numinlets" : 2,
					"fontsize" : 9.873845,
					"patching_rect" : [ 311.0, 651.0, 104.0, 18.0 ],
					"numoutlets" : 3,
					"outlettype" : [ "signal", "signal", "" ],
					"id" : "obj-3"
				}

			}
, 			{
				"box" : 				{
					"maxclass" : "newobj",
					"text" : "jcom.in~ 2",
					"fontname" : "Verdana",
					"numinlets" : 2,
					"fontsize" : 9.873845,
					"patching_rect" : [ 358.0, 536.0, 151.0, 18.0 ],
					"numoutlets" : 4,
					"outlettype" : [ "signal", "signal", "", "" ],
					"id" : "obj-4"
				}

			}
, 			{
				"box" : 				{
					"maxclass" : "newobj",
					"varname" : "feedback[1]",
					"text" : "jcom.parameter feedback @type msg_float @ramp/drive scheduler @repetitions/allow 0 @range/clipmode both @range/bounds 0. 1. @range/clipmode both @description \"Amount of delay feedback.\"",
					"linecount" : 2,
					"fontname" : "Verdana",
					"numinlets" : 1,
					"fontsize" : 9.873845,
					"patching_rect" : [ 16.0, 193.0, 539.0, 30.0 ],
					"numoutlets" : 3,
					"outlettype" : [ "", "", "" ],
					"id" : "obj-6"
				}

			}
, 			{
				"box" : 				{
					"maxclass" : "flonum",
					"varname" : "feedback",
					"fontname" : "Verdana",
					"triangle" : 0,
					"numdecimalplaces" : 4,
					"presentation_rect" : [ 243.0, 45.0, 50.0, 19.0 ],
					"numinlets" : 1,
					"fontsize" : 10.0,
					"triscale" : 0.9,
					"patching_rect" : [ 16.0, 170.0, 50.0, 19.0 ],
					"numoutlets" : 2,
					"minimum" : 0.0,
					"presentation" : 1,
					"outlettype" : [ "float", "bang" ],
					"maximum" : 1.0,
					"id" : "obj-7"
				}

			}
, 			{
				"box" : 				{
					"maxclass" : "comment",
					"text" : "feedback",
					"fontname" : "Verdana",
					"presentation_rect" : [ 184.0, 45.0, 58.0, 19.0 ],
					"numinlets" : 1,
					"frgb" : [ 0.658824, 0.658824, 0.658824, 1.0 ],
					"fontsize" : 10.0,
					"patching_rect" : [ 184.0, 45.0, 58.0, 19.0 ],
					"numoutlets" : 0,
					"presentation" : 1,
					"id" : "obj-8"
				}

			}
, 			{
				"box" : 				{
					"maxclass" : "newobj",
					"text" : "p formatting",
					"fontname" : "Verdana",
					"numinlets" : 1,
					"fontsize" : 9.873845,
					"patching_rect" : [ 16.0, 459.0, 70.0, 18.0 ],
					"numoutlets" : 1,
					"outlettype" : [ "" ],
					"id" : "obj-9",
					"patcher" : 					{
						"fileversion" : 1,
						"rect" : [ 59.0, 215.0, 492.0, 283.0 ],
						"bglocked" : 0,
						"defrect" : [ 59.0, 215.0, 492.0, 283.0 ],
						"openrect" : [ 0.0, 0.0, 0.0, 0.0 ],
						"openinpresentation" : 0,
						"default_fontsize" : 10.0,
						"default_fontface" : 0,
						"default_fontname" : "Verdana",
						"gridonopen" : 0,
						"gridsize" : [ 5.0, 5.0 ],
						"gridsnaponopen" : 0,
						"toolbarvisible" : 1,
						"boxanimatetime" : 200,
						"imprint" : 0,
						"metadata" : [  ],
						"boxes" : [ 							{
								"box" : 								{
									"maxclass" : "comment",
									"text" : "just formatting things so we can do the feedback.",
									"linecount" : 2,
									"fontname" : "Verdana",
									"numinlets" : 1,
									"frgb" : [ 0.658824, 0.658824, 0.658824, 1.0 ],
									"fontsize" : 9.873845,
									"patching_rect" : [ 256.0, 85.0, 181.0, 30.0 ],
									"numoutlets" : 0,
									"id" : "obj-1"
								}

							}
, 							{
								"box" : 								{
									"maxclass" : "newobj",
									"text" : "zl slice 1",
									"fontname" : "Verdana",
									"numinlets" : 2,
									"fontsize" : 9.873845,
									"patching_rect" : [ 69.0, 76.0, 51.0, 18.0 ],
									"numoutlets" : 2,
									"outlettype" : [ "", "" ],
									"id" : "obj-2"
								}

							}
, 							{
								"box" : 								{
									"maxclass" : "newobj",
									"text" : "pak set 1 0 2 0 3 0 4 0 5 0",
									"fontname" : "Verdana",
									"numinlets" : 11,
									"fontsize" : 9.873845,
									"patching_rect" : [ 69.0, 144.0, 144.0, 18.0 ],
									"numoutlets" : 1,
									"outlettype" : [ "" ],
									"id" : "obj-3"
								}

							}
, 							{
								"box" : 								{
									"maxclass" : "outlet",
									"numinlets" : 1,
									"patching_rect" : [ 69.0, 183.0, 15.0, 15.0 ],
									"numoutlets" : 0,
									"id" : "obj-4",
									"comment" : ""
								}

							}
, 							{
								"box" : 								{
									"maxclass" : "inlet",
									"numinlets" : 0,
									"patching_rect" : [ 69.0, 51.0, 15.0, 15.0 ],
									"numoutlets" : 1,
									"outlettype" : [ "" ],
									"id" : "obj-5",
									"comment" : ""
								}

							}
, 							{
								"box" : 								{
									"maxclass" : "newobj",
									"text" : "unpack 0 0 0 0 0",
									"fontname" : "Verdana",
									"numinlets" : 1,
									"fontsize" : 9.873845,
									"patching_rect" : [ 69.0, 103.0, 93.0, 18.0 ],
									"numoutlets" : 5,
									"outlettype" : [ "int", "int", "int", "int", "int" ],
									"id" : "obj-6"
								}

							}
, 							{
								"box" : 								{
									"maxclass" : "comment",
									"text" : "not very elegant, but necessary since <interleave> isn't part of Jamoma.",
									"linecount" : 2,
									"fontname" : "Verdana",
									"numinlets" : 1,
									"frgb" : [ 0.658824, 0.658824, 0.658824, 1.0 ],
									"fontsize" : 9.873845,
									"patching_rect" : [ 256.0, 128.0, 198.0, 30.0 ],
									"numoutlets" : 0,
									"id" : "obj-7"
								}

							}
 ],
						"lines" : [ 							{
								"patchline" : 								{
									"source" : [ "obj-6", 4 ],
									"destination" : [ "obj-3", 10 ],
									"hidden" : 0,
									"midpoints" : [  ]
								}

							}
, 							{
								"patchline" : 								{
									"source" : [ "obj-6", 3 ],
									"destination" : [ "obj-3", 8 ],
									"hidden" : 0,
									"midpoints" : [  ]
								}

							}
, 							{
								"patchline" : 								{
									"source" : [ "obj-6", 2 ],
									"destination" : [ "obj-3", 6 ],
									"hidden" : 0,
									"midpoints" : [  ]
								}

							}
, 							{
								"patchline" : 								{
									"source" : [ "obj-6", 1 ],
									"destination" : [ "obj-3", 4 ],
									"hidden" : 0,
									"midpoints" : [  ]
								}

							}
, 							{
								"patchline" : 								{
									"source" : [ "obj-6", 0 ],
									"destination" : [ "obj-3", 2 ],
									"hidden" : 0,
									"midpoints" : [  ]
								}

							}
, 							{
								"patchline" : 								{
									"source" : [ "obj-3", 0 ],
									"destination" : [ "obj-4", 0 ],
									"hidden" : 0,
									"midpoints" : [  ]
								}

							}
, 							{
								"patchline" : 								{
									"source" : [ "obj-2", 1 ],
									"destination" : [ "obj-6", 0 ],
									"hidden" : 0,
									"midpoints" : [ 110.5, 98.0, 78.5, 98.0 ]
								}

							}
, 							{
								"patchline" : 								{
									"source" : [ "obj-5", 0 ],
									"destination" : [ "obj-2", 0 ],
									"hidden" : 0,
									"midpoints" : [  ]
								}

							}
 ]
					}
,
					"saved_object_attributes" : 					{
						"fontname" : "Verdana",
						"globalpatchername" : "",
						"fontface" : 0,
						"fontsize" : 10.0,
						"default_fontface" : 0,
						"default_fontname" : "Verdana",
						"default_fontsize" : 10.0
					}

				}

			}
, 			{
				"box" : 				{
					"maxclass" : "newobj",
					"text" : "p formatting",
					"fontname" : "Verdana",
					"numinlets" : 1,
					"fontsize" : 9.873845,
					"patching_rect" : [ 16.0, 335.0, 70.0, 18.0 ],
					"numoutlets" : 1,
					"outlettype" : [ "" ],
					"id" : "obj-10",
					"patcher" : 					{
						"fileversion" : 1,
						"rect" : [ 299.0, 219.0, 492.0, 283.0 ],
						"bglocked" : 0,
						"defrect" : [ 299.0, 219.0, 492.0, 283.0 ],
						"openrect" : [ 0.0, 0.0, 0.0, 0.0 ],
						"openinpresentation" : 0,
						"default_fontsize" : 10.0,
						"default_fontface" : 0,
						"default_fontname" : "Verdana",
						"gridonopen" : 0,
						"gridsize" : [ 5.0, 5.0 ],
						"gridsnaponopen" : 0,
						"toolbarvisible" : 1,
						"boxanimatetime" : 200,
						"imprint" : 0,
						"metadata" : [  ],
						"boxes" : [ 							{
								"box" : 								{
									"maxclass" : "comment",
									"text" : "Formatting the messages so that multislider can understand them, by adding the slider number in front of each value in the message.",
									"linecount" : 2,
									"fontname" : "Verdana",
									"numinlets" : 1,
									"frgb" : [ 0.658824, 0.658824, 0.658824, 1.0 ],
									"fontsize" : 9.873845,
									"patching_rect" : [ 257.0, 58.0, 344.0, 30.0 ],
									"numoutlets" : 0,
									"id" : "obj-1"
								}

							}
, 							{
								"box" : 								{
									"maxclass" : "newobj",
									"text" : "zl slice 1",
									"fontname" : "Verdana",
									"numinlets" : 2,
									"fontsize" : 9.873845,
									"patching_rect" : [ 69.0, 76.0, 51.0, 18.0 ],
									"numoutlets" : 2,
									"outlettype" : [ "", "" ],
									"id" : "obj-2"
								}

							}
, 							{
								"box" : 								{
									"maxclass" : "newobj",
									"text" : "pak set 1 0 2 0 3 0 4 0 5 0",
									"fontname" : "Verdana",
									"numinlets" : 11,
									"fontsize" : 9.873845,
									"patching_rect" : [ 69.0, 144.0, 144.0, 18.0 ],
									"numoutlets" : 1,
									"outlettype" : [ "" ],
									"id" : "obj-3"
								}

							}
, 							{
								"box" : 								{
									"maxclass" : "outlet",
									"numinlets" : 1,
									"patching_rect" : [ 69.0, 183.0, 15.0, 15.0 ],
									"numoutlets" : 0,
									"id" : "obj-4",
									"comment" : ""
								}

							}
, 							{
								"box" : 								{
									"maxclass" : "inlet",
									"numinlets" : 0,
									"patching_rect" : [ 69.0, 51.0, 15.0, 15.0 ],
									"numoutlets" : 1,
									"outlettype" : [ "" ],
									"id" : "obj-5",
									"comment" : ""
								}

							}
, 							{
								"box" : 								{
									"maxclass" : "newobj",
									"text" : "unpack 0 0 0 0 0",
									"fontname" : "Verdana",
									"numinlets" : 1,
									"fontsize" : 9.873845,
									"patching_rect" : [ 69.0, 103.0, 93.0, 18.0 ],
									"numoutlets" : 5,
									"outlettype" : [ "int", "int", "int", "int", "int" ],
									"id" : "obj-6"
								}

							}
, 							{
								"box" : 								{
									"maxclass" : "comment",
									"text" : "not very elegant, but necessary since <interleave> isn't part of Jamoma.",
									"linecount" : 2,
									"fontname" : "Verdana",
									"numinlets" : 1,
									"frgb" : [ 0.658824, 0.658824, 0.658824, 1.0 ],
									"fontsize" : 9.873845,
									"patching_rect" : [ 256.0, 128.0, 198.0, 30.0 ],
									"numoutlets" : 0,
									"id" : "obj-7"
								}

							}
 ],
						"lines" : [ 							{
								"patchline" : 								{
									"source" : [ "obj-6", 4 ],
									"destination" : [ "obj-3", 10 ],
									"hidden" : 0,
									"midpoints" : [  ]
								}

							}
, 							{
								"patchline" : 								{
									"source" : [ "obj-6", 3 ],
									"destination" : [ "obj-3", 8 ],
									"hidden" : 0,
									"midpoints" : [  ]
								}

							}
, 							{
								"patchline" : 								{
									"source" : [ "obj-6", 2 ],
									"destination" : [ "obj-3", 6 ],
									"hidden" : 0,
									"midpoints" : [  ]
								}

							}
, 							{
								"patchline" : 								{
									"source" : [ "obj-6", 1 ],
									"destination" : [ "obj-3", 4 ],
									"hidden" : 0,
									"midpoints" : [  ]
								}

							}
, 							{
								"patchline" : 								{
									"source" : [ "obj-6", 0 ],
									"destination" : [ "obj-3", 2 ],
									"hidden" : 0,
									"midpoints" : [  ]
								}

							}
, 							{
								"patchline" : 								{
									"source" : [ "obj-3", 0 ],
									"destination" : [ "obj-4", 0 ],
									"hidden" : 0,
									"midpoints" : [  ]
								}

							}
, 							{
								"patchline" : 								{
									"source" : [ "obj-2", 1 ],
									"destination" : [ "obj-6", 0 ],
									"hidden" : 0,
									"midpoints" : [ 110.5, 98.0, 78.5, 98.0 ]
								}

							}
, 							{
								"patchline" : 								{
									"source" : [ "obj-5", 0 ],
									"destination" : [ "obj-2", 0 ],
									"hidden" : 0,
									"midpoints" : [  ]
								}

							}
 ]
					}
,
					"saved_object_attributes" : 					{
						"fontname" : "Verdana",
						"globalpatchername" : "",
						"fontface" : 0,
						"fontsize" : 10.0,
						"default_fontface" : 0,
						"default_fontname" : "Verdana",
						"default_fontsize" : 10.0
					}

				}

			}
, 			{
				"box" : 				{
					"maxclass" : "message",
					"text" : "setminmax 0 $1",
					"fontname" : "Verdana",
					"numinlets" : 2,
					"fontsize" : 9.873845,
					"patching_rect" : [ 218.0, 162.0, 89.0, 16.0 ],
					"numoutlets" : 1,
					"outlettype" : [ "" ],
					"id" : "obj-11"
				}

			}
, 			{
				"box" : 				{
					"maxclass" : "newobj",
					"varname" : "right[1]",
					"text" : "jcom.parameter right @type msg_list @repetitions/allow 0 @ramp/drive none @range/bounds 0 10000 @range/clipmode low @description \"Delay time in milliseconds for right channel.\"",
					"linecount" : 2,
					"fontname" : "Verdana",
					"numinlets" : 1,
					"fontsize" : 9.873845,
					"patching_rect" : [ 16.0, 424.0, 478.0, 30.0 ],
					"numoutlets" : 3,
					"outlettype" : [ "", "", "" ],
					"id" : "obj-13"
				}

			}
, 			{
				"box" : 				{
					"maxclass" : "multislider",
					"varname" : "right",
					"candicane3" : [ 0.290196, 0.411765, 0.713726, 1.0 ],
					"candicane7" : [ 0.878431, 0.243137, 0.145098, 1.0 ],
					"settype" : 0,
					"presentation_rect" : [ 94.0, 22.0, 87.0, 44.0 ],
					"contdata" : 1,
					"setminmax" : [ 0.0, 10000.0 ],
					"numinlets" : 1,
					"candicane4" : [ 0.439216, 0.619608, 0.070588, 1.0 ],
					"candicane8" : [ 0.027451, 0.447059, 0.501961, 1.0 ],
					"candicane2" : [ 0.145098, 0.203922, 0.356863, 1.0 ],
					"patching_rect" : [ 16.0, 374.0, 87.0, 44.0 ],
					"numoutlets" : 2,
					"presentation" : 1,
					"setstyle" : 1,
					"peakcolor" : [ 0.498039, 0.498039, 0.498039, 1.0 ],
					"outlettype" : [ "", "" ],
					"id" : "obj-14",
					"spacing" : 4,
					"candicane6" : [ 0.733333, 0.035294, 0.788235, 1.0 ],
					"candicane5" : [ 0.584314, 0.827451, 0.431373, 1.0 ],
					"size" : 5
				}

			}
, 			{
				"box" : 				{
					"maxclass" : "multislider",
					"varname" : "left",
					"candicane3" : [ 0.290196, 0.411765, 0.713726, 1.0 ],
					"candicane7" : [ 0.878431, 0.243137, 0.145098, 1.0 ],
					"settype" : 0,
					"presentation_rect" : [ 5.0, 22.0, 87.0, 44.0 ],
					"contdata" : 1,
					"setminmax" : [ 0.0, 10000.0 ],
					"numinlets" : 1,
					"candicane4" : [ 0.439216, 0.619608, 0.070588, 1.0 ],
					"candicane8" : [ 0.027451, 0.447059, 0.501961, 1.0 ],
					"candicane2" : [ 0.145098, 0.203922, 0.356863, 1.0 ],
					"patching_rect" : [ 16.0, 250.0, 87.0, 44.0 ],
					"numoutlets" : 2,
					"presentation" : 1,
					"setstyle" : 1,
					"peakcolor" : [ 0.498039, 0.498039, 0.498039, 1.0 ],
					"outlettype" : [ "", "" ],
					"id" : "obj-15",
					"spacing" : 4,
					"candicane6" : [ 0.733333, 0.035294, 0.788235, 1.0 ],
					"candicane5" : [ 0.584314, 0.827451, 0.431373, 1.0 ],
					"size" : 5
				}

			}
, 			{
				"box" : 				{
					"maxclass" : "number",
					"varname" : "max-delay",
					"fontname" : "Verdana",
					"triangle" : 0,
					"presentation_rect" : [ 243.0, 25.0, 50.0, 19.0 ],
					"numinlets" : 1,
					"fontsize" : 10.0,
					"triscale" : 0.9,
					"patching_rect" : [ 16.0, 100.0, 50.0, 19.0 ],
					"numoutlets" : 2,
					"minimum" : 0,
					"presentation" : 1,
					"outlettype" : [ "int", "bang" ],
					"id" : "obj-16"
				}

			}
, 			{
				"box" : 				{
					"maxclass" : "comment",
					"text" : "max (ms)",
					"fontname" : "Verdana",
					"presentation_rect" : [ 184.0, 25.0, 58.0, 19.0 ],
					"numinlets" : 1,
					"frgb" : [ 0.658824, 0.658824, 0.658824, 1.0 ],
					"fontsize" : 10.0,
					"patching_rect" : [ 184.0, 25.0, 58.0, 19.0 ],
					"numoutlets" : 0,
					"presentation" : 1,
					"id" : "obj-17"
				}

			}
, 			{
				"box" : 				{
					"maxclass" : "message",
					"text" : "/documentation/generate",
					"fontname" : "Verdana",
					"numinlets" : 2,
					"fontsize" : 9.873845,
					"patching_rect" : [ 122.0, 550.0, 135.0, 16.0 ],
					"numoutlets" : 1,
					"outlettype" : [ "" ],
					"id" : "obj-18"
				}

			}
, 			{
				"box" : 				{
					"maxclass" : "newobj",
					"varname" : "left[1]",
					"text" : "jcom.parameter left @type msg_list @repetitions/allow 0 @ramp/drive none @range/bounds 0 10000 @range/clipmode low @description \"Delay time in milliseconds for left channel.\"",
					"linecount" : 2,
					"fontname" : "Verdana",
					"numinlets" : 1,
					"fontsize" : 9.873845,
					"patching_rect" : [ 16.0, 299.0, 471.0, 30.0 ],
					"numoutlets" : 3,
					"outlettype" : [ "", "", "" ],
					"id" : "obj-20"
				}

			}
, 			{
				"box" : 				{
					"maxclass" : "newobj",
					"varname" : "jcom.hub",
					"text" : "jcom.hub @module_type audio @description \"Sample-accurate stereo multidelay.\"",
					"linecount" : 2,
					"fontname" : "Verdana",
					"numinlets" : 1,
					"fontsize" : 9.873845,
					"patching_rect" : [ 22.0, 577.0, 249.0, 30.0 ],
					"numoutlets" : 2,
					"outlettype" : [ "", "" ],
					"id" : "obj-22"
				}

			}
, 			{
				"box" : 				{
					"maxclass" : "comment",
					"text" : "command input",
					"fontname" : "Verdana",
					"numinlets" : 1,
					"frgb" : [ 0.658824, 0.658824, 0.658824, 1.0 ],
					"fontsize" : 9.873845,
					"patching_rect" : [ 36.0, 551.0, 86.0, 18.0 ],
					"numoutlets" : 0,
					"id" : "obj-23"
				}

			}
, 			{
				"box" : 				{
					"maxclass" : "inlet",
					"numinlets" : 0,
					"patching_rect" : [ 22.0, 552.0, 13.0, 13.0 ],
					"numoutlets" : 1,
					"outlettype" : [ "" ],
					"id" : "obj-24",
					"comment" : ""
				}

			}
, 			{
				"box" : 				{
					"maxclass" : "message",
					"text" : "/init",
					"fontname" : "Verdana",
					"numinlets" : 2,
					"fontsize" : 9.873845,
					"patching_rect" : [ 250.0, 550.0, 37.0, 16.0 ],
					"numoutlets" : 1,
					"outlettype" : [ "" ],
					"id" : "obj-25"
				}

			}
, 			{
				"box" : 				{
					"maxclass" : "inlet",
					"numinlets" : 0,
					"patching_rect" : [ 358.0, 513.0, 13.0, 13.0 ],
					"numoutlets" : 1,
					"outlettype" : [ "" ],
					"id" : "obj-26",
					"comment" : ""
				}

			}
, 			{
				"box" : 				{
					"maxclass" : "outlet",
					"numinlets" : 1,
					"patching_rect" : [ 311.0, 679.0, 13.0, 13.0 ],
					"numoutlets" : 0,
					"id" : "obj-27",
					"comment" : ""
				}

			}
, 			{
				"box" : 				{
					"maxclass" : "newobj",
					"varname" : "maxdelay",
					"text" : "jcom.parameter maxdelay @type msg_int @ramp/drive scheduler @repetitions/allow 0 @range/bounds 0 10000 @range/clipmode low @description \"Max delay time in milliseconds.\"",
					"linecount" : 2,
					"fontname" : "Verdana",
					"numinlets" : 1,
					"fontsize" : 9.873845,
					"patching_rect" : [ 16.0, 122.0, 478.0, 30.0 ],
					"numoutlets" : 3,
					"outlettype" : [ "", "", "" ],
					"id" : "obj-28"
				}

			}
, 			{
				"box" : 				{
					"maxclass" : "inlet",
					"numinlets" : 0,
					"patching_rect" : [ 499.0, 513.0, 13.0, 13.0 ],
					"numoutlets" : 1,
					"outlettype" : [ "" ],
					"id" : "obj-29",
					"comment" : ""
				}

			}
, 			{
				"box" : 				{
					"maxclass" : "newobj",
					"text" : "jalg.multidelay~",
					"fontname" : "Verdana",
					"numinlets" : 3,
					"fontsize" : 9.873845,
					"patching_rect" : [ 311.0, 626.0, 104.0, 18.0 ],
					"numoutlets" : 2,
					"outlettype" : [ "signal", "signal" ],
					"id" : "obj-30"
				}

			}
, 			{
				"box" : 				{
					"maxclass" : "comment",
					"text" : "----signal inputs----",
					"fontname" : "Verdana",
					"numinlets" : 1,
					"frgb" : [ 0.658824, 0.658824, 0.658824, 1.0 ],
					"fontsize" : 9.873845,
					"patching_rect" : [ 393.0, 513.0, 113.0, 18.0 ],
					"numoutlets" : 0,
					"id" : "obj-31"
				}

			}
, 			{
				"box" : 				{
					"maxclass" : "outlet",
					"numinlets" : 1,
					"patching_rect" : [ 22.0, 618.0, 13.0, 13.0 ],
					"numoutlets" : 0,
					"id" : "obj-32",
					"comment" : ""
				}

			}
, 			{
				"box" : 				{
					"maxclass" : "outlet",
					"numinlets" : 1,
					"patching_rect" : [ 358.0, 679.0, 13.0, 13.0 ],
					"numoutlets" : 0,
					"id" : "obj-33",
					"comment" : ""
				}

			}
, 			{
				"box" : 				{
					"maxclass" : "comment",
					"text" : "---signal outputs---",
					"fontname" : "Verdana",
					"numinlets" : 1,
					"frgb" : [ 0.658824, 0.658824, 0.658824, 1.0 ],
					"fontsize" : 9.873845,
					"patching_rect" : [ 311.0, 694.0, 105.0, 18.0 ],
					"numoutlets" : 0,
					"id" : "obj-34"
				}

			}
, 			{
				"box" : 				{
					"maxclass" : "jcom.ui",
					"text" : "/editing_this_module",
					"has_mute" : 1,
					"presentation_rect" : [ 0.0, 0.0, 300.0, 70.0 ],
					"numinlets" : 1,
					"prefix" : "audio",
					"has_bypass" : 1,
					"numoutlets" : 1,
					"presentation" : 1,
					"has_gain" : 1,
					"outlettype" : [ "" ],
					"id" : "obj-35",
					"has_mix" : 1
				}

			}
 ],
		"lines" : [ 			{
				"patchline" : 				{
					"source" : [ "obj-22", 0 ],
					"destination" : [ "obj-32", 0 ],
					"hidden" : 0,
					"midpoints" : [  ]
				}

			}
, 			{
				"patchline" : 				{
					"source" : [ "obj-24", 0 ],
					"destination" : [ "obj-22", 0 ],
					"hidden" : 0,
					"midpoints" : [  ]
				}

			}
, 			{
				"patchline" : 				{
					"source" : [ "obj-18", 0 ],
					"destination" : [ "obj-22", 0 ],
					"hidden" : 0,
					"midpoints" : [ 131.5, 570.0, 31.5, 570.0 ]
				}

			}
, 			{
				"patchline" : 				{
					"source" : [ "obj-25", 0 ],
					"destination" : [ "obj-22", 0 ],
					"hidden" : 0,
					"midpoints" : [ 259.5, 573.0, 31.5, 573.0 ]
				}

			}
, 			{
				"patchline" : 				{
					"source" : [ "obj-28", 0 ],
					"destination" : [ "obj-16", 0 ],
					"hidden" : 0,
					"midpoints" : [ 25.5, 153.0, 3.0, 153.0, 3.0, 96.0, 25.5, 96.0 ]
				}

			}
, 			{
				"patchline" : 				{
					"source" : [ "obj-6", 0 ],
					"destination" : [ "obj-7", 0 ],
					"hidden" : 0,
					"midpoints" : [ 25.5, 225.0, 3.0, 225.0, 3.0, 165.0, 25.5, 165.0 ]
				}

			}
, 			{
				"patchline" : 				{
					"source" : [ "obj-10", 0 ],
					"destination" : [ "obj-15", 0 ],
					"hidden" : 0,
					"midpoints" : [ 25.5, 354.0, 3.0, 354.0, 3.0, 246.0, 25.5, 246.0 ]
				}

			}
, 			{
				"patchline" : 				{
					"source" : [ "obj-9", 0 ],
					"destination" : [ "obj-14", 0 ],
					"hidden" : 0,
					"midpoints" : [ 25.5, 477.0, 3.0, 477.0, 3.0, 369.0, 25.5, 369.0 ]
				}

			}
, 			{
				"patchline" : 				{
					"source" : [ "obj-15", 0 ],
					"destination" : [ "obj-20", 0 ],
					"hidden" : 0,
					"midpoints" : [  ]
				}

			}
, 			{
				"patchline" : 				{
					"source" : [ "obj-14", 0 ],
					"destination" : [ "obj-13", 0 ],
					"hidden" : 0,
					"midpoints" : [  ]
				}

			}
, 			{
				"patchline" : 				{
					"source" : [ "obj-7", 0 ],
					"destination" : [ "obj-6", 0 ],
					"hidden" : 0,
					"midpoints" : [  ]
				}

			}
, 			{
				"patchline" : 				{
					"source" : [ "obj-16", 0 ],
					"destination" : [ "obj-28", 0 ],
					"hidden" : 0,
					"midpoints" : [  ]
				}

			}
, 			{
				"patchline" : 				{
					"source" : [ "obj-2", 1 ],
					"destination" : [ "obj-1", 0 ],
					"hidden" : 0,
					"midpoints" : [  ]
				}

			}
, 			{
				"patchline" : 				{
					"source" : [ "obj-29", 0 ],
					"destination" : [ "obj-4", 1 ],
					"hidden" : 0,
					"midpoints" : [  ]
				}

			}
, 			{
				"patchline" : 				{
					"source" : [ "obj-4", 2 ],
					"destination" : [ "obj-2", 0 ],
					"hidden" : 0,
					"midpoints" : [  ]
				}

			}
, 			{
				"patchline" : 				{
					"source" : [ "obj-30", 1 ],
					"destination" : [ "obj-3", 1 ],
					"hidden" : 0,
					"midpoints" : [  ]
				}

			}
, 			{
				"patchline" : 				{
					"source" : [ "obj-4", 1 ],
					"destination" : [ "obj-30", 2 ],
					"hidden" : 0,
					"midpoints" : [  ]
				}

			}
, 			{
				"patchline" : 				{
					"source" : [ "obj-3", 1 ],
					"destination" : [ "obj-33", 0 ],
					"hidden" : 0,
					"midpoints" : [  ]
				}

			}
, 			{
				"patchline" : 				{
					"source" : [ "obj-4", 0 ],
					"destination" : [ "obj-30", 1 ],
					"hidden" : 0,
					"midpoints" : [  ]
				}

			}
, 			{
				"patchline" : 				{
					"source" : [ "obj-26", 0 ],
					"destination" : [ "obj-4", 0 ],
					"hidden" : 0,
					"midpoints" : [  ]
				}

			}
, 			{
				"patchline" : 				{
					"source" : [ "obj-3", 0 ],
					"destination" : [ "obj-27", 0 ],
					"hidden" : 0,
					"midpoints" : [  ]
				}

			}
, 			{
				"patchline" : 				{
					"source" : [ "obj-30", 0 ],
					"destination" : [ "obj-3", 0 ],
					"hidden" : 0,
					"midpoints" : [  ]
				}

			}
, 			{
				"patchline" : 				{
					"source" : [ "obj-1", 0 ],
					"destination" : [ "obj-30", 0 ],
					"hidden" : 0,
					"midpoints" : [ 594.5, 611.0, 320.5, 611.0 ]
				}

			}
, 			{
				"patchline" : 				{
					"source" : [ "obj-2", 0 ],
					"destination" : [ "obj-30", 0 ],
					"hidden" : 0,
					"midpoints" : [ 461.5, 611.0, 320.5, 611.0 ]
				}

			}
, 			{
				"patchline" : 				{
					"source" : [ "obj-28", 1 ],
					"destination" : [ "obj-11", 0 ],
					"hidden" : 0,
					"midpoints" : [  ]
				}

			}
, 			{
				"patchline" : 				{
					"source" : [ "obj-11", 0 ],
					"destination" : [ "obj-14", 0 ],
					"hidden" : 0,
					"midpoints" : [  ]
				}

			}
, 			{
				"patchline" : 				{
					"source" : [ "obj-20", 0 ],
					"destination" : [ "obj-10", 0 ],
					"hidden" : 0,
					"midpoints" : [  ]
				}

			}
, 			{
				"patchline" : 				{
					"source" : [ "obj-13", 0 ],
					"destination" : [ "obj-9", 0 ],
					"hidden" : 0,
					"midpoints" : [  ]
				}

			}
, 			{
				"patchline" : 				{
					"source" : [ "obj-11", 0 ],
					"destination" : [ "obj-15", 0 ],
					"hidden" : 0,
					"midpoints" : [  ]
				}

			}
, 			{
				"patchline" : 				{
					"source" : [ "obj-5", 0 ],
					"destination" : [ "obj-49", 0 ],
					"hidden" : 0,
					"midpoints" : [  ]
				}

			}
, 			{
				"patchline" : 				{
					"source" : [ "obj-51", 0 ],
					"destination" : [ "obj-50", 0 ],
					"hidden" : 0,
					"midpoints" : [  ]
				}

			}
 ]
	}

}
