max v2;#N vpatcher 12 131 607 572;#P window setfont "Sans Serif" 9.;#P window linecount 1;#P newex 478 305 27 196617 *~;#P newex 355 305 27 196617 *~;#P newex 61 117 279 196617 jcom.oscroute /tremolo/lfo/frequency /tremolo/lfo/depth;#P newex 195 147 47 196617 * 0.005;#P newex 195 171 30 196617 !- 1.;#P newex 61 230 34 196617 +~ 1.;#P newex 61 191 27 196617 *~;#P newex 61 154 40 196617 cycle~;#P window linecount 2;#P comment 41 60 74 196617 osc messages to algorithm;#P comment 480 60 48 196617 signal inlet 2;#P comment 458 357 52 196617 signal outlet 2;#N comlet osc messages to algorithm;#P inlet 61 88 15 0;#N comlet osc messages from algorithm;#P outlet 46 336 15 0;#N comlet signal outlet 2;#P outlet 478 336 15 0;#N comlet signal outlet 1;#P outlet 355 336 15 0;#N comlet signal inlet 2;#P inlet 495 88 15 0;#N comlet signal inlet 1;#P inlet 372 88 15 0;#P window setfont "Sans Serif" 12.;#P window linecount 1;#P comment 17 22 256 196620 This is an algorithm for a stereo module.;#P window setfont "Sans Serif" 9.;#P window linecount 2;#P comment 37 357 81 196617 osc messages from algorithm;#P comment 348 357 52 196617 signal outlet 1;#P comment 359 60 48 196617 signal inlet 1;#P connect 9 0 18 0;#P connect 18 0 13 0;#P connect 13 0 14 0;#P connect 14 0 15 0;#P connect 17 0 14 1;#P connect 16 0 15 1;#P connect 18 1 17 0;#P connect 17 0 16 0;#P connect 15 0 19 0;#P connect 19 0 6 0;#P connect 4 0 19 1;#P connect 15 0 20 0;#P connect 20 0 7 0;#P connect 5 0 20 1;#P pop;