max v2;#N vpatcher 2 179 642 658;#P window setfont "Sans Serif" 9.;#P window linecount 1;#P newex 169 173 27 196617 +~;#P newex 139 307 34 196617 +~ 1.;#P newex 139 250 27 196617 *~;#P newex 139 197 40 196617 cycle~;#P newex 61 139 46 196617 phasor~;#P newex 558 356 27 196617 *~;#P newex 435 356 27 196617 *~;#P newex 61 117 387 196617 jcom.oscroute /tremolo/lfo/frequency /tremolo/phase_offset /tremolo/lfo/depth;#P newex 311 203 47 196617 * 0.005;#P newex 311 227 30 196617 !- 1.;#P newex 31 307 34 196617 +~ 1.;#P newex 31 250 27 196617 *~;#P newex 31 205 40 196617 cycle~;#P comment 41 60 129 196617 osc messages;#P window linecount 2;#P comment 560 60 48 196617 signal inlet 2;#P comment 538 408 52 196617 signal outlet 2;#N comlet osc messages to algorithm;#P inlet 61 88 15 0;#N comlet osc messages from algorithm;#P outlet 38 387 15 0;#N comlet signal outlet 2;#P outlet 558 387 15 0;#N comlet signal outlet 1;#P outlet 435 387 15 0;#N comlet signal inlet 2;#P inlet 575 88 15 0;#N comlet signal inlet 1;#P inlet 452 88 15 0;#P window linecount 1;#P comment 29 408 142 196617 osc messages;#P window linecount 2;#P comment 428 408 52 196617 signal outlet 1;#P comment 439 60 48 196617 signal inlet 1;#P connect 12 0 13 0;#P connect 13 0 14 0;#P connect 16 0 13 1;#P connect 15 0 14 1;#P connect 8 0 17 0;#P connect 17 0 20 0;#P connect 20 0 12 1;#P connect 21 0 22 0;#P connect 22 0 23 0;#P connect 16 0 22 1;#P connect 15 0 23 1;#P connect 20 0 24 0;#P connect 24 0 21 1;#P connect 17 1 24 1;#P connect 17 2 16 0;#P connect 16 0 15 0;#P connect 14 0 18 0;#P connect 18 0 5 0;#P connect 3 0 18 1;#P connect 23 0 19 0;#P connect 19 0 6 0;#P connect 4 0 19 1;#P pop;