max v2;
#N vpatcher 84 159 643 464;
#P outlet 67 235 15 0;
#P outlet 425 235 15 0;
#P outlet 344 235 15 0;
#P inlet 67 57 15 0;
#P inlet 425 57 15 0;
#P inlet 344 57 15 0;
#P window setfont "Sans Serif" 9.;
#P window linecount 1;
#P newex 166 106 31 196617 dbtoa;
#P user filtergraph~ 67 137 97 34 3 9 20. 20000. 0.0625 16. 0 1 1 0 0 0 0;
#X frgb 170 170 170;
#X brgb 209 209 209;
#X rgb2 0 0 0;
#X rgb3 130 130 130;
#X rgb4 0 0 0;
#X rgb5 76 108 172;
#X rgb6 210 74 54;
#X rgb7 255 22 22;
#X linmarkers 5512.5 11025. 16537.5;
#X logmarkers 10. 100. 1000. 10000.;
#X nfilters 1;
#X setfilter 0 5 1 0 0 40. 1. 2.5 0. 0. 0. 0. 0. 0.;
#X done;
#P newex 67 83 210 196617 jcom.oscroute /filtertype /cf /filtergain /q;
#P newex 425 208 79 196617 biquad~;
#P newex 344 208 79 196617 biquad~;
#P connect 7 0 2 0;
#P connect 2 0 3 0;
#P connect 2 1 3 5;
#P fasten 4 0 3 6 171 129 144 129;
#P fasten 2 3 3 7 222 132 156 132;
#P connect 2 2 4 0;
#P connect 3 0 0 0;
#P connect 5 0 0 0;
#P connect 0 0 8 0;
#P connect 3 0 1 0;
#P connect 6 0 1 0;
#P connect 1 0 9 0;
#P pop;
