max v2;#N vpatcher 78 73 859 843;#P origin 0 -24;#P window setfont "Sans Serif" 9.;#P message 104 30 34 196617 /plug;#N vpatcher 438 111 911 503;#P window setfont "Sans Serif" 9.;#P newex 127 193 49 196617 deferlow;#N vpatcher 91 103 1153 844;#P origin 301 10;#P window setfont "Sans Serif" 9.;#P newex 59 469 62 196617 prepend get;#P outlet 59 577 15 0;#P window linecount 1;#P newex 387 382 40 196617 uzi;#P window linecount 0;#P newex 387 356 27 196617 i;#P newex 417 442 31 196617 sel 0;#P newex 860 221 40 196617 uzi 0;#P newex 458 129 40 196617 t 1 0 b;#P inlet 458 87 15 0;#P inlet 163 87 15 0;#P inlet 404 87 15 0;#P outlet 163 577 15 0;#P newex 163 151 30 196617 t b b;#P newex 769 370 37 196617 + 125;#P newex 319 475 107 196617 sprintf script connect oscrt-%d 0 vst 0;#P message 163 475 101 196617 script connect oscroute_parameter 0 oscrt-1 0;#P newex 417 420 27 196617 - 1;#P newex 404 279 40 196617 t i i i;#P newex 438 475 125 196617 sprintf script connect oscrt-%d 1 oscrt-%d 0;#P newex 769 349 31 196617 * 20;#P newex 404 129 29 196617 t b s;#N counter;#X flags 0 0;#P newobj 404 189 66 196617 counter;#P newex 682 475 184 196617 sprintf script new oscrt-%d newex 50 %d 200 196617 jcom.oscroute /%s;#P newex 890 475 147 196617 sprintf script delete oscrt-%d;#P connect 20 2 22 0;#P connect 22 0 21 0;#P connect 14 0 11 0;#P connect 11 0 8 0;#P fasten 1 0 12 0 687 560 168 560;#P fasten 5 0 12 0 443 558 168 558;#P fasten 8 0 12 0 168 543 168 543;#P fasten 9 0 12 0 324 556 168 556;#P fasten 0 0 12 0 895 562 168 562;#P connect 20 2 9 0;#P connect 11 1 19 0;#P connect 19 0 20 0;#P connect 13 0 3 0;#P connect 3 0 2 0;#P connect 2 0 6 0;#P connect 6 0 19 1;#P connect 20 2 7 0;#P connect 7 0 18 0;#P connect 16 0 2 2;#P connect 18 1 5 0;#P connect 15 0 16 0;#P connect 20 2 5 1;#P fasten 6 1 1 0 424 343 687 343;#P fasten 6 2 4 0 439 336 774 336;#P connect 4 0 10 0;#P connect 10 0 1 1;#P connect 3 1 1 2;#P fasten 16 2 17 0 493 152 865 152;#P fasten 16 1 17 1 478 162 895 162;#P fasten 2 0 17 1 409 213 895 213;#P connect 17 2 0 0;#P pop;#P newobj 127 301 81 196617 p scripting _etc;#P newex 127 221 141 196617 t b params pgmnames b clear;#P newex 127 119 27 196617 t b l;#P newex 127 81 51 196617 tosymbol;#P newex 127 102 66 196617 prepend plug;#P newex 50 50 87 196617 sel bang;#P newex 50 119 43 196617 t b plug;#P inlet 50 30 15 0;#P inlet 399 30 15 0;#P outlet 83 331 15 0;#P outlet 223 331 15 0;#P outlet 198 331 15 0;#P outlet 255 331 15 0;#P connect 5 0 7 0;#P connect 7 0 6 0;#P connect 12 0 3 0;#P lcolor 2;#P fasten 11 2 3 0 196 259 88 259;#P lcolor 2;#P fasten 11 1 3 0 164 257 88 257;#P lcolor 2;#P fasten 10 1 3 0 149 143 88 143;#P lcolor 2;#P connect 6 1 3 0;#P lcolor 2;#P connect 7 1 9 0;#P connect 9 0 8 0;#P connect 8 0 10 0;#P connect 6 0 13 0;#P connect 10 0 13 0;#P connect 13 0 11 0;#P connect 11 0 12 0;#P fasten 4 0 12 1 404 276 167 276;#P connect 11 3 12 2;#P connect 12 1 1 0;#P connect 11 4 2 0;#P connect 11 3 2 0;#P connect 11 4 0 0;#P pop;#P newobj 123 84 105 196617 p load_new_plug;#N comlet parameter updated (index \, value);#P outlet 563 367 15 0;#P newex 50 55 157 196617 jcom.oscroute /parameter /plug;#P objectname oscroute_parameter;#P newex 415 307 75 196617 prepend append;#N comlet build menu of program names;#P outlet 415 367 15 0;#N thispatcher;#Q end;#P newobj 154 117 60 196617 thispatcher;#N comlet signal right;#P outlet 318 367 15 0;#N comlet signal left;#P outlet 302 367 15 0;#P inlet 386 30 15 0;#P inlet 302 30 15 0;#N comlet build menu of parameters;#P outlet 334 367 15 0;#N comlet;#P inlet 50 30 15 0;#P objectname ctlinlet;#P newex 334 307 75 196617 prepend append;#N vst~ loaduniqueid 0;#P newobj 302 255 94 196617 vst~;#P objectname vst;#P connect 14 0 11 0;#P connect 2 0 11 0;#P connect 11 1 13 0;#P connect 13 1 8 0;#P fasten 0 2 13 1 339 282 436 282 436 73 223 73;#P lcolor 2;#P fasten 13 0 0 0 128 138 307 138;#P connect 4 0 0 0;#P connect 0 0 6 0;#P connect 0 1 7 0;#P connect 0 2 1 0;#P fasten 13 2 3 0 190 110 625 110 625 344 339 344;#P lcolor 13;#P connect 1 0 3 0;#P connect 5 0 0 1;#P connect 0 5 10 0;#P fasten 13 3 9 0 221 107 629 107 629 349 420 349;#P lcolor 13;#P connect 10 0 9 0;#P fasten 0 3 12 0 355 276 568 276;#P pop;