max v2;
#N vpatcher 103 144 695 499;
#P window setfont "Sans Serif" 9.;
#P flonum 382 228 35 9 0 0 0 3 0 0 0 221 221 221 222 222 222 0 0 0;
#P flonum 304 228 35 9 0 0 0 3 0 0 0 221 221 221 222 222 222 0 0 0;
#P window linecount 1;
#P newex 73 39 94 196617 sel config_changed;
#P comment 85 271 294 196617 choose the correct input or output based on voice number;
#P comment 229 124 294 196617 choose the correct input or output based on voice number;
#P outlet 18 310 15 0;
#N out~ 1;
#P newobj 35 310 35 196617 out~ 1;
#P newex 35 269 48 196617 gate~ 2;
#P outlet 111 310 15 0;
#P inlet 332 168 15 0;
#P inlet 251 65 15 0;
#P inlet 178 65 15 0;
#N in 1;
#P newobj 304 168 25 196617 in 1;
#P newex 304 196 166 196617 jcom.oscroute /sr_ratio /bitdepth;
#N out~ 2;
#P newobj 73 310 35 196617 out~ 2;
#P newex 73 232 95 196617 degrade~;
#N in~ 2;
#P newobj 217 65 31 196617 in~ 2;
#N in~ 1;
#P newobj 145 65 31 196617 in~ 1;
#P newex 73 122 154 196617 selector~ 2;
#P number 73 92 35 9 0 0 0 3 0 0 0 221 221 221 222 222 222 0 0 0;
#P newex 73 72 52 196617 thispoly~;
#P comment 283 149 239 196617 this gray box represents the actual algorithm;
#P user panel 60 144 468 112;
#X brgb 191 191 191;
#X frgb 0 0 0;
#X border 1;
#X rounded 0;
#X shadow 0;
#X done;
#P connect 15 0 17 0;
#P fasten 3 0 15 0 40 145;
#P connect 15 0 16 0;
#P fasten 9 2 20 0 465 263 551 263 551 34 78 34;
#P connect 20 0 2 0;
#P connect 2 0 3 0;
#P connect 3 0 4 0;
#P connect 4 0 7 0;
#P connect 7 0 15 1;
#P connect 15 1 8 0;
#P connect 15 1 14 0;
#P fasten 9 0 7 1 309 217 120 217;
#P connect 11 0 4 1;
#P connect 5 0 4 1;
#P fasten 9 1 7 2 387 219 162 219;
#P connect 12 0 4 2;
#P connect 6 0 4 2;
#P connect 10 0 9 0;
#P fasten 13 0 9 0 337 192 309 192;
#P connect 9 0 21 0;
#P connect 9 1 22 0;
#P pop;
