max v2;#N vpatcher 187 44 1146 576;#P origin 30 34;#P window setfont "Sans Serif" 9.;#P newex 205 105 35 196617 t load;#N vpatcher 48 139 546 432;#P inlet 32 31 15 0;#P window setfont "Sans Serif" 9.;#P comment 185 75 98 196617 print list of presets;#P message 114 74 68 196617 print presets;#P comment 202 93 200 196617 print list of presets of the given soundfont;#P message 114 92 85 196617 print presets GM;#P comment 181 165 155 196617 print current chorus parameters;#P message 114 164 64 196617 print chorus;#P comment 182 147 155 196617 print current reverb parameters;#P message 114 146 65 196617 print reverb;#P comment 199 129 272 196617 print list of modulator values for given channel (default 1);#P message 114 128 82 196617 print generators;#P comment 198 57 112 196617 print list of soundfonts;#P message 114 56 82 196617 print soundfonts;#P message 114 110 72 196617 print channels;#P comment 188 111 239 196617 print soundfont \, bank and program for each channel;#P outlet 254 237 15 0;#P connect 15 0 3 0;#P connect 15 0 13 0;#P connect 15 0 11 0;#P connect 15 0 2 0;#P connect 15 0 5 0;#P connect 15 0 7 0;#P connect 15 0 9 0;#P connect 9 0 0 0;#P connect 7 0 0 0;#P connect 5 0 0 0;#P connect 2 0 0 0;#P connect 11 0 0 0;#P connect 13 0 0 0;#P connect 3 0 0 0;#P pop;#P newobj 44 132 40 196617 p print;#N vpatcher 10 59 310 292;#P window setfont "Sans Serif" 9.;#P newex 67 70 41 196617 sel 1 0;#P message 122 101 55 196617 reverb off;#P message 67 101 53 196617 reverb on;#P inlet 67 44 15 0;#P outlet 67 150 15 0;#P connect 1 0 4 0;#P connect 4 0 2 0;#P connect 2 0 0 0;#P connect 3 0 0 0;#P connect 4 1 3 0;#P pop;#P newobj 144 106 49 196617 p reverb;#N vpatcher 10 59 251 260;#P window setfont "Sans Serif" 9.;#P newex 50 50 41 196617 sel 1 0;#P message 104 92 55 196617 chorus off;#P message 50 92 52 196617 chorus on;#P inlet 50 30 15 0;#P outlet 50 135 15 0;#P connect 1 0 4 0;#P connect 4 0 2 0;#P connect 2 0 0 0;#P connect 3 0 0 0;#P connect 4 1 3 0;#P pop;#P newobj 88 106 48 196617 p chorus;#P message 158 40 33 196617 /info;#P message 114 40 33 196617 /info;#P message 75 40 34 196617 /load;#N vpatcher 204 75 557 380;#P window setfont "Sans Serif" 9.;#P message 110 72 63 196617 info presets;#P message 110 90 80 196617 info presets GM;#P message 110 144 59 196617 info chorus;#P message 110 126 60 196617 info reverb;#P message 110 54 75 196617 info soundfonts;#P message 110 108 65 196617 info channels;#P inlet 27 26 15 0;#P outlet 231 227 15 0;#P connect 1 0 3 0;#P connect 1 0 7 0;#P connect 1 0 6 0;#P connect 1 0 2 0;#P connect 1 0 4 0;#P connect 1 0 5 0;#P connect 5 0 0 0;#P connect 3 0 0 0;#P connect 7 0 0 0;#P connect 6 0 0 0;#P connect 2 0 0 0;#P connect 4 0 0 0;#P pop;#P newobj 32 106 35 196617 p info;#P user incdec 517 411 15 15 0 0;#P number 480 411 35 9 0 0 0 3 0 0 0 221 221 221 222 222 222 0 0 0;#P user kslider 480 372 35 1 24 96 19 7 0 128 128 128 128 128 128 255 255 255 0 0 0 0 0 0;#N vpatcher 473 57 959 504;#P inlet 32 45 15 0;#P window setfont "Sans Serif" 9.;#P window linecount 0;#P newex 262 278 50 196617 stripnote;#P window linecount 1;#P newex 262 301 62 196617 prepend set;#P outlet 262 366 15 0;#P window linecount 0;#P newex 336 301 62 196617 prepend set;#P outlet 336 366 15 0;#P inlet 238 45 15 0;#P newex 55 105 94 196617 makenote 120 400;#P inlet 55 45 15 0;#P outlet 190 366 15 0;#P message 313 215 87 196617 control \$2 \$1 \$3;#P window linecount 1;#P newex 313 191 58 196617 pack 0 0 0;#P newex 313 139 58 196617 ctlin;#P newex 228 214 67 196617 prepend bend;#P newex 228 191 58 196617 pack 0 0;#P newex 228 139 58 196617 bendin;#P newex 143 214 67 196617 prepend note;#P newex 143 191 58 196617 pack 0 0 1;#P newex 143 139 58 196617 notein;#P connect 10 0 11 0;#P connect 0 0 1 0;#P connect 11 0 1 0;#P connect 1 0 2 0;#P connect 0 1 1 1;#P connect 11 1 1 1;#P connect 2 0 9 0;#P connect 5 0 9 0;#P connect 8 0 9 0;#P connect 12 0 1 2;#P connect 0 2 1 2;#P connect 3 0 4 0;#P connect 4 0 5 0;#P connect 0 0 17 0;#P connect 17 0 16 0;#P connect 16 0 15 0;#P connect 12 0 4 1;#P connect 3 1 4 1;#P connect 0 1 17 1;#P connect 6 0 7 0;#P connect 7 0 8 0;#P connect 6 2 14 0;#P connect 0 2 14 0;#P connect 3 1 14 0;#P connect 0 2 13 0;#P connect 14 0 13 0;#P connect 6 1 7 1;#P connect 12 0 7 2;#P connect 6 2 7 2;#P pop;#P hidden newobj 443 353 84 196617 p MIDI-keyboard;#P newex 194 476 52 196617 print info;#P newex 82 450 57 196617 route bang;#P comment 734 259 245 196617 change soundfont "generator" value of given channel;#P flonum 518 277 48 9 0 0 0 3 0 0 0 221 221 221 222 222 222 0 0 0;#P message 474 277 43 196617 gain \$1;#P message 721 57 52 196617 unload all;#P button 82 476 15 0;#P flonum 541 258 45 9 0 0 0 3 0 0 0 221 221 221 222 222 222 0 0 0;#P user hslider 588 258 15 128 128 1 0 0;#P message 474 259 67 196617 mod 51 \$1 1;#P comment 590 234 253 196617 MIDI pitch bend wheel range in semitones with channel;#P message 529 233 60 196617 wheel 12 1;#P message 474 233 54 196617 wheel 2 1;#P flonum 529 215 45 9 0 0 0 3 0 0 0 221 221 221 222 222 222 0 0 0;#P comment 722 216 398 196617 MIDI pitch bend with value (use float argument to use LSB of 14-bit value) and channel;#P user hslider 576 215 15 128 64 1 64 0;#P user hslider 556 197 15 128 128 1 0 0;#P message 474 215 54 196617 bend \$1 1;#P toggle 253 105 15 0;#P message 252 128 47 196617 mute \$1;#P message 474 197 81 196617 control 91 \$1 1;#P comment 702 198 285 196617 MIDI control change with contoller number \, value and channel;#P comment 554 76 84 196617 reload soundfont;#P message 498 75 55 196617 reload GM;#P message 498 57 55 196617 unload GM;#P comment 621 138 263 196617 select soundfont \, bank and preset for given MIDI channel;#P number 585 137 35 9 0 0 0 3 0 0 0 221 221 221 222 222 222 0 0 0;#P message 498 137 87 196617 select GM 0 \$1 1;#P comment 607 120 181 196617 select program for given MIDI channel;#P message 474 179 74 196617 note 69 127 1;#P number 571 119 35 9 0 0 0 3 0 0 0 221 221 221 222 222 222 0 0 0;#P number 553 101 35 9 0 0 0 3 0 0 0 221 221 221 222 222 222 0 0 0;#P message 498 119 72 196617 program \$1 1;#P message 498 101 54 196617 bank \$1 1;#P message 549 179 62 196617 note 69 0 1;#P newex 32 410 61 196617 fluidsynth~;#P comment 589 102 163 196617 select bank for given MIDI channel;#P comment 554 58 168 196617 remove soundfont or all soundfonts;#P comment 612 180 230 196617 MIDI note on/off with pitch \, velocity and channel;#P comment 568 278 123 196617 linear overall gain factor;#P comment 99 477 77 196617 bang after load;#P comment 644 76 219 196617 (Note: Soundfonts can specified by name or id);#P comment 535 414 66 196617 MIDI channel;#P newex 32 65 273 196617 jcom.oscroute /info /chorus /reverb /load /mute /notein;#P inlet 32 40 15 0;#P outlet 57 473 15 0;#P outlet 32 473 15 0;#P connect 2 0 3 0;#P connect 53 0 3 0;#P connect 52 0 3 0;#P connect 3 0 51 0;#P hidden connect 23 0 11 0;#P connect 58 0 11 0;#P hidden connect 47 0 11 0;#P hidden connect 41 0 11 0;#P hidden connect 35 0 11 0;#P hidden connect 34 0 11 0;#P hidden connect 29 0 11 0;#P hidden connect 14 0 11 0;#P hidden connect 12 0 11 0;#P hidden connect 13 0 11 0;#P hidden connect 17 0 11 0;#P hidden connect 19 0 11 0;#P hidden connect 22 0 11 0;#P hidden connect 27 0 11 0;#P hidden connect 26 0 11 0;#P hidden connect 37 0 11 0;#P hidden connect 42 0 11 0;#P connect 51 0 11 0;#P connect 55 0 11 0;#P connect 56 0 11 0;#P connect 57 0 11 0;#P connect 11 0 0 0;#P connect 3 0 57 0;#P connect 11 1 1 0;#P connect 11 2 45 0;#P connect 45 0 40 0;#P connect 3 1 55 0;#P connect 3 2 56 0;#P connect 45 1 46 0;#P connect 3 3 58 0;#P hidden connect 28 0 27 0;#P connect 3 4 28 0;#P hidden connect 30 0 26 0;#P hidden connect 33 0 29 0;#P hidden connect 39 0 37 0;#P hidden connect 43 0 42 0;#P connect 3 5 47 1;#P hidden connect 48 0 47 1;#P hidden connect 47 1 48 0;#P hidden connect 50 0 49 0;#P hidden connect 47 2 49 0;#P connect 23 0 13 0;#P hidden connect 15 0 13 0;#P hidden connect 16 0 14 0;#P hidden connect 20 0 19 0;#P hidden connect 49 0 47 2;#P hidden connect 49 0 50 0;#P hidden connect 31 0 33 0;#P hidden connect 38 0 39 0;#P pop;