max v2;#N vpatcher 88 91 1043 780;#P origin -27 -141;#P outlet 636 621 15 0;#P outlet 337 621 15 0;#P inlet 53 81 15 0;#P inlet 637 81 15 0;#P inlet 337 81 15 0;#P window setfont "Sans Serif" 9.;#P window linecount 1;#P comment 556 257 49 196617 maxdelay;#P number 517 255 35 9 0 0 0 3 0 0 0 221 221 221 222 222 222 0 0 0;#P newex 727 449 65 196617 tapout~ 100;#P newex 740 233 85 196617 unpack 0 0 0 0 0;#P newex 703 420 65 196617 tapout~ 100;#P newex 683 390 65 196617 tapout~ 100;#P newex 662 363 65 196617 tapout~ 100;#P newex 636 335 65 196617 tapout~ 100;#P newex 636 304 71 196617 tapin~ 10000;#P newex 636 490 60 196617 jcom.thru~;#P newex 404 451 65 196617 tapout~ 100;#P flonum 488 468 35 9 0 0 0 3 0 0 0 221 221 221 222 222 222 0 0 0;#P newex 592 527 35 196617 *~ 0.;#P newex 298 527 35 196617 *~ 0.;#P newex 354 233 85 196617 unpack 0 0 0 0 0;#P newex 386 424 65 196617 tapout~ 100;#P newex 371 393 65 196617 tapout~ 100;#P newex 351 364 65 196617 tapout~ 100;#P newex 337 335 65 196617 tapout~ 100;#P newex 53 129 230 196617 jcom.oscroute /left /right /feedback /maxdelay;#P newex 337 304 71 196617 tapin~ 10000;#P newex 337 490 60 196617 jcom.thru~;#P comment 527 470 49 196617 feedback;#P connect 25 0 3 0;#P connect 1 0 9 0;#P connect 11 0 9 1;#P connect 21 0 2 0;#P connect 23 0 2 0;#P fasten 9 0 2 0 303 550 294 550 294 288 342 288;#P connect 2 0 4 0;#P connect 8 0 4 0;#P connect 4 0 1 0;#P connect 5 0 1 0;#P connect 6 0 1 0;#P connect 7 0 1 0;#P connect 12 0 1 0;#P connect 1 0 26 0;#P connect 2 0 5 0;#P connect 8 1 5 0;#P connect 3 0 8 0;#P connect 2 0 6 0;#P connect 8 2 6 0;#P connect 2 0 7 0;#P connect 8 3 7 0;#P connect 2 0 12 0;#P connect 8 4 12 0;#P connect 3 2 11 0;#P connect 3 3 21 0;#P connect 13 0 10 0;#P connect 11 0 10 1;#P connect 21 0 14 0;#P connect 24 0 14 0;#P fasten 10 0 14 0 597 550 585 550 585 285 641 285;#P connect 14 0 15 0;#P connect 19 0 15 0;#P connect 18 0 13 0;#P connect 17 0 13 0;#P connect 16 0 13 0;#P connect 15 0 13 0;#P connect 20 0 13 0;#P connect 13 0 27 0;#P connect 14 0 16 0;#P connect 19 1 16 0;#P connect 14 0 17 0;#P connect 19 2 17 0;#P connect 14 0 18 0;#P connect 19 3 18 0;#P connect 14 0 20 0;#P connect 19 4 20 0;#P connect 3 1 19 0;#P pop;