max v2;#N vpatcher 605 207 908 516;#P user meter~ 157 205 237 218 50 0 168 0 103 103 103 255 153 0 255 0 0 217 217 0 153 186 0 12 3 3 3 3;#P window setfont "Sans Serif" 9.;#P flonum 41 107 35 9 0 0 0 3 0 0 0 221 221 221 222 222 222 0 0 0;#P number 12 157 35 9 0 0 0 3 0 0 0 221 221 221 222 222 222 0 0 0;#P window linecount 1;#P newex 72 197 71 196617 selector~ 4 1;#P flonum 170 115 35 9 0 0 0 3 0 0 0 221 221 221 222 222 222 0 0 0;#P newex 193 156 40 196617 tri~;#P newex 130 155 46 196617 phasor~;#P inlet 40 41 15 0;#P outlet 82 242 15 0;#P newex 87 155 40 196617 cycle~;#P newex 12 70 160 196617 jcom.oscroute /mode /frequency;#N in 1;#P newobj 12 41 25 196617 in 1;#N out~ 1;#P newobj 72 260 35 196617 out~ 1;#P connect 1 0 2 0;#P fasten 5 0 2 0 45 60 17 60;#P connect 2 0 10 0;#P connect 2 1 11 0;#P fasten 10 0 9 0 17 184 77 184;#P connect 9 0 0 0;#P connect 9 0 4 0;#P connect 2 1 3 0;#P connect 8 0 3 0;#P connect 3 0 9 1;#P connect 6 0 9 2;#P connect 7 0 9 3;#P connect 2 1 6 0;#P connect 8 0 6 0;#P connect 3 0 12 0;#P connect 2 1 7 0;#P connect 8 0 7 0;#P pop;