max v2;#N vpatcher 105 44 844 748;#P origin 0 34;#P window setfont "Sans Serif" 9.;#P newex 197 89 35 196617 t load;#N vpatcher 48 139 546 432;#P inlet 32 31 15 0;#P window setfont "Sans Serif" 9.;#P comment 185 75 98 196617 print list of presets;#P message 114 74 68 196617 print presets;#P comment 202 93 200 196617 print list of presets of the given soundfont;#P message 114 92 85 196617 print presets GM;#P comment 181 165 155 196617 print current chorus parameters;#P message 114 164 64 196617 print chorus;#P comment 182 147 155 196617 print current reverb parameters;#P message 114 146 65 196617 print reverb;#P comment 199 129 272 196617 print list of modulator values for given channel (default 1);#P message 114 128 82 196617 print generators;#P comment 198 57 112 196617 print list of soundfonts;#P message 114 56 82 196617 print soundfonts;#P message 114 110 72 196617 print channels;#P comment 188 111 239 196617 print soundfont \, bank and program for each channel;#P outlet 254 237 15 0;#P connect 15 0 3 0;#P connect 15 0 13 0;#P connect 15 0 11 0;#P connect 15 0 2 0;#P connect 15 0 5 0;#P connect 15 0 7 0;#P connect 15 0 9 0;#P connect 9 0 0 0;#P connect 7 0 0 0;#P connect 5 0 0 0;#P connect 2 0 0 0;#P connect 11 0 0 0;#P connect 13 0 0 0;#P connect 3 0 0 0;#P pop;#P newobj 36 116 40 196617 p print;#N vpatcher 10 59 310 292;#P window setfont "Sans Serif" 9.;#P newex 67 70 41 196617 sel 1 0;#P message 122 101 55 196617 reverb off;#P message 67 101 53 196617 reverb on;#P inlet 67 44 15 0;#P outlet 67 150 15 0;#P connect 1 0 4 0;#P connect 4 0 2 0;#P connect 2 0 0 0;#P connect 3 0 0 0;#P connect 4 1 3 0;#P pop;#P newobj 136 90 49 196617 p reverb;#N vpatcher 10 59 251 260;#P window setfont "Sans Serif" 9.;#P newex 50 50 41 196617 sel 1 0;#P message 104 92 55 196617 chorus off;#P message 50 92 52 196617 chorus on;#P inlet 50 30 15 0;#P outlet 50 135 15 0;#P connect 1 0 4 0;#P connect 4 0 2 0;#P connect 2 0 0 0;#P connect 3 0 0 0;#P connect 4 1 3 0;#P pop;#P newobj 80 90 48 196617 p chorus;#P message 150 24 33 196617 /info;#P message 106 24 33 196617 /info;#P message 67 24 34 196617 /load;#N vpatcher 204 75 557 380;#P window setfont "Sans Serif" 9.;#P message 110 72 63 196617 info presets;#P message 110 90 80 196617 info presets GM;#P message 110 144 59 196617 info chorus;#P message 110 126 60 196617 info reverb;#P message 110 54 75 196617 info soundfonts;#P message 110 108 65 196617 info channels;#P inlet 27 26 15 0;#P outlet 231 227 15 0;#P connect 1 0 3 0;#P connect 1 0 7 0;#P connect 1 0 6 0;#P connect 1 0 2 0;#P connect 1 0 4 0;#P connect 1 0 5 0;#P connect 5 0 0 0;#P connect 3 0 0 0;#P connect 7 0 0 0;#P connect 6 0 0 0;#P connect 2 0 0 0;#P connect 4 0 0 0;#P pop;#P newobj 24 90 35 196617 p info;#P user incdec 226 543 15 15 0 0;#P number 189 543 35 9 0 0 0 3 0 0 0 221 221 221 222 222 222 0 0 0;#P user kslider 189 505 35 1 24 96 19 7 0 128 128 128 128 128 128 255 255 255 0 0 0 0 0 0;#N vpatcher 161 44 647 491;#P inlet 32 45 15 0;#P window setfont "Sans Serif" 9.;#P window linecount 0;#P newex 262 278 50 196617 stripnote;#P window linecount 1;#P newex 262 301 62 196617 prepend set;#P outlet 262 366 15 0;#P window linecount 0;#P newex 336 301 62 196617 prepend set;#P outlet 336 366 15 0;#P inlet 238 45 15 0;#P newex 55 105 94 196617 makenote 120 400;#P inlet 55 45 15 0;#P outlet 190 366 15 0;#P message 313 215 87 196617 control \$2 \$1 \$3;#P window linecount 1;#P newex 313 191 58 196617 pack 0 0 0;#P newex 313 139 58 196617 ctlin;#P newex 228 214 67 196617 prepend bend;#P newex 228 191 58 196617 pack 0 0;#P newex 228 139 58 196617 bendin;#P newex 143 214 67 196617 prepend note;#P newex 143 191 58 196617 pack 0 0 1;#P newex 143 139 58 196617 notein;#P connect 10 0 11 0;#P connect 0 0 1 0;#P connect 11 0 1 0;#P connect 1 0 2 0;#P connect 0 1 1 1;#P connect 11 1 1 1;#P connect 2 0 9 0;#P connect 5 0 9 0;#P connect 8 0 9 0;#P connect 12 0 1 2;#P connect 0 2 1 2;#P connect 3 0 4 0;#P connect 4 0 5 0;#P connect 0 0 17 0;#P connect 17 0 16 0;#P connect 16 0 15 0;#P connect 12 0 4 1;#P connect 3 1 4 1;#P connect 0 1 17 1;#P connect 6 0 7 0;#P connect 7 0 8 0;#P connect 6 2 14 0;#P connect 0 2 14 0;#P connect 3 1 14 0;#P connect 0 2 13 0;#P connect 14 0 13 0;#P connect 6 1 7 1;#P connect 12 0 7 2;#P connect 6 2 7 2;#P pop;#P hidden newobj 152 485 84 196617 p MIDI-keyboard;#P newex 271 645 50 196617 print info;#P newex 159 619 122 196617 route bang;#P comment 307 403 244 196617 change soundfont "generator" value of given channel;#P flonum 91 421 48 9 0 0 0 3 0 0 0 221 221 221 222 222 222 0 0 0;#P message 47 421 42 196617 gain \$1;#P message 270 155 50 196617 unload all;#P button 159 645 15 0;#P flonum 114 402 45 9 0 0 0 3 0 0 0 221 221 221 222 222 222 0 0 0;#P user hslider 161 402 15 128 128 1 0 0;#P message 47 403 65 196617 mod 51 \$1 1;#P comment 163 378 252 196617 MIDI pitch bend wheel range in semitones with channel;#P message 102 377 59 196617 wheel 12 1;#P message 47 377 53 196617 wheel 2 1;#P flonum 102 359 45 9 0 0 0 3 0 0 0 221 221 221 222 222 222 0 0 0;#P comment 295 360 395 196617 MIDI pitch bend with value (use float argument to use LSB of 14-bit value) and channel;#P user hslider 149 359 15 128 64 1 64 0;#P user hslider 129 341 15 128 128 1 0 0;#P message 47 359 53 196617 bend \$1 1;#P toggle 94 297 15 0;#P message 47 297 45 196617 mute \$1;#P message 114 297 33 196617 mute;#P message 152 297 41 196617 unmute;#P message 47 341 80 196617 control 91 \$1 1;#P comment 275 342 284 196617 MIDI control change with contoller number \, value and channel;#P comment 103 174 83 196617 reload soundfont;#P message 47 173 54 196617 reload GM;#P message 47 155 54 196617 unload GM;#P comment 170 236 262 196617 select soundfont \, bank and preset for given MIDI channel;#P number 134 235 35 9 0 0 0 3 0 0 0 221 221 221 222 222 222 0 0 0;#P message 47 235 85 196617 select GM 0 \$1 1;#P comment 156 218 180 196617 select program for given MIDI channel;#P message 47 323 73 196617 note 69 127 1;#P number 120 217 35 9 0 0 0 3 0 0 0 221 221 221 222 222 222 0 0 0;#P number 102 199 35 9 0 0 0 3 0 0 0 221 221 221 222 222 222 0 0 0;#P message 47 217 71 196617 program \$1 1;#P message 47 199 53 196617 bank \$1 1;#P message 122 323 61 196617 note 69 0 1;#P window setfont "Sans Serif" 18.;#P newex 47 579 122 196626 fluidsynth~;#P window setfont "Sans Serif" 9.;#P comment 138 200 162 196617 select bank for given MIDI channel;#P comment 103 156 165 196617 remove soundfont or all soundfonts;#P comment 185 324 229 196617 MIDI note on/off with pitch \, velocity and channel;#P comment 195 298 112 196617 mute and unmute synth;#P comment 141 422 122 196617 linear overall gain factor;#P comment 176 646 75 196617 bang after load;#P comment 193 174 219 196617 (Note: Soundfonts can specified by name or id);#P comment 244 546 66 196617 MIDI channel;#P newex 24 49 206 196617 jcom.oscroute /info /chorus /reverb /load;#N in 1;#P newobj 24 24 25 196617 in 1;#N out~ 2;#P newobj 103 643 35 196617 out~ 2;#N out~ 1;#P newobj 47 642 35 196617 out~ 1;#P connect 2 0 3 0;#P connect 55 0 3 0;#P connect 56 0 3 0;#P connect 3 0 54 0;#P connect 3 0 60 0;#P hidden connect 16 0 14 0;#P hidden connect 17 0 15 0;#P hidden connect 21 0 20 0;#P hidden connect 31 0 30 0;#P hidden connect 33 0 27 0;#P hidden connect 36 0 32 0;#P hidden connect 42 0 40 0;#P hidden connect 46 0 45 0;#P connect 61 0 12 0;#P hidden connect 50 0 12 0;#P hidden connect 44 0 12 0;#P hidden connect 38 0 12 0;#P hidden connect 37 0 12 0;#P hidden connect 32 0 12 0;#P hidden connect 15 0 12 0;#P hidden connect 13 0 12 0;#P hidden connect 14 0 12 0;#P hidden connect 18 0 12 0;#P hidden connect 20 0 12 0;#P hidden connect 23 0 12 0;#P hidden connect 24 0 12 0;#P hidden connect 30 0 12 0;#P hidden connect 28 0 12 0;#P hidden connect 29 0 12 0;#P hidden connect 27 0 12 0;#P hidden connect 40 0 12 0;#P hidden connect 45 0 12 0;#P connect 54 0 12 0;#P connect 58 0 12 0;#P connect 59 0 12 0;#P connect 60 0 12 0;#P connect 12 0 0 0;#P connect 3 1 58 0;#P hidden connect 34 0 36 0;#P connect 12 1 1 0;#P hidden connect 41 0 42 0;#P connect 3 2 59 0;#P connect 12 2 48 0;#P connect 48 0 43 0;#P hidden connect 51 0 50 1;#P hidden connect 50 1 51 0;#P hidden connect 53 0 52 0;#P hidden connect 50 2 52 0;#P connect 3 3 61 0;#P hidden connect 52 0 50 2;#P hidden connect 52 0 53 0;#P connect 48 1 49 0;#P pop;