max v2;#N vpatcher 202 82 627 388;#P window setfont "Sans Serif" 9.;#P number 12 157 35 9 0 0 0 3 0 0 0 221 221 221 222 222 222 0 0 0;#P window linecount 1;#P newex 45 197 347 196617 selector~ 8 1;#P newex 129 155 34 196617 pink~;#P inlet 40 41 15 0;#P outlet 22 250 15 0;#P newex 87 155 39 196617 noise~;#P newex 12 70 106 196617 jcom.oscroute /mode;#N in 1;#P newobj 12 41 25 196617 in 1;#N out~ 1;#P newobj 45 250 35 196617 out~ 1;#P fasten 5 0 2 0 45 60 17 60;#P connect 1 0 2 0;#P connect 2 0 8 0;#P connect 7 0 4 0;#P fasten 8 0 7 0 17 184 50 184;#P connect 7 0 0 0;#P connect 3 0 7 1;#P connect 6 0 7 2;#P pop;