max v2;#N vpatcher 114 474 647 822;#P inlet 52 35 15 0;#P outlet 401 189 15 0;#P outlet 278 190 15 0;#P inlet 344 34 15 0;#P inlet 217 34 15 0;#P window setfont "Sans Serif" 9.;#P number 117 119 35 9 0 0 0 3 0 0 0 221 221 221 222 222 222 0 0 0;#P number 24 119 35 9 0 0 0 3 0 0 0 221 221 221 222 222 222 0 0 0;#P window linecount 1;#P newex 24 98 197 196617 jcom.oscroute /delay/left /delay/right;#P newex 364 164 119 196617 delay~ 1000000 512 1;#P newex 241 164 119 196617 delay~ 1000000 512 1;#N in 1;#P newobj 24 34 25 196617 in 1;#N out~ 2;#P newobj 364 189 35 196617 out~ 2;#N out~ 1;#P newobj 241 189 35 196617 out~ 1;#N in~ 2;#P newobj 364 34 31 196617 in~ 2;#N in~ 1;#P newobj 241 34 31 196617 in~ 1;#P fasten 14 0 7 0 57 56 29 56;#P connect 4 0 7 0;#P connect 7 0 8 0;#P connect 7 1 9 0;#P connect 0 0 5 0;#P fasten 10 0 5 0 222 57 246 57;#P connect 5 0 2 0;#P connect 5 0 12 0;#P fasten 8 0 5 1 29 147 355 147;#P connect 1 0 6 0;#P fasten 11 0 6 0 349 55 369 55;#P connect 6 0 3 0;#P connect 6 0 13 0;#P fasten 9 0 6 1 122 144 478 144;#P pop;