max v2;#N vpatcher 85 101 866 643;#P outlet 444 397 15 0;#P objectname sig16[1];#P outlet 425 397 15 0;#P objectname sig15[1];#P outlet 406 397 15 0;#P objectname sig14[1];#P outlet 387 397 15 0;#P objectname sig13[1];#P outlet 369 397 15 0;#P objectname sig12[1];#P outlet 350 397 15 0;#P objectname sig11[1];#P outlet 331 397 15 0;#P objectname sig10[1];#P outlet 312 397 15 0;#P objectname sig9[1];#P outlet 645 398 15 0;#P window setfont "Sans Serif" 9.;#P message 580 80 43 196617 loop \$1;#P outlet 588 398 15 0;#N vpatcher 691 329 1260 676;#P origin 0 -52;#P inlet 487 30 15 0;#P window setfont "Sans Serif" 9.;#N vpatcher 10 59 610 459;#P outlet 219 227 15 0;#P inlet 207 89 15 0;#P connect 0 0 1 0;#P pop;#P newobj 53 170 37 196617 p thru;#P message 392 80 14 196617 0;#P button 367 78 15 0;#P newex 367 54 44 196617 sel 1 0;#P newex 367 118 27 196617 int;#P inlet 367 26 15 0;#P newex 290 250 29 196617 * 1.;#P newex 309 219 37 196617 !/ 1.;#P outlet 290 288 15 0;#P message 18 171 14 196617 1;#P message 2 171 14 196617 2;#P newex 16 190 47 196617 gate 2 1;#P flonum 150 128 35 9 0 0 0 3 0 0 0 221 221 221 222 222 222 0 0 0;#P flonum 116 174 35 9 0 0 0 3 0 0 0 221 221 221 222 222 222 0 0 0;#P newex 171 49 164 196617 jcom.oscroute /timer /countdown;#P message 281 132 17 196617 0.;#P message 248 133 30 196617 bang;#P newex 248 100 41 196617 sel 1 0;#P newex 115 152 43 196617 float 0.;#P inlet 148 76 15 0;#P newex 66 223 30 196617 !- 0.;#P inlet 171 25 15 0;#P outlet 33 282 15 0;#P toggle 171 75 15 0;#P newex 171 95 63 196617 qmetro 100;#P newex 30 123 53 196617 snapshot~;#P inlet 30 79 15 0;#P connect 9 0 16 0;#P connect 16 0 15 0;#P connect 17 0 15 0;#P connect 9 1 17 0;#P connect 0 0 1 0;#P fasten 2 0 1 0 176 116 35 116;#P connect 6 0 4 0;#P connect 15 0 4 0;#P connect 1 0 26 0;#P connect 27 0 26 0;#P connect 26 0 15 1;#P connect 15 1 6 0;#P connect 11 0 6 1;#P connect 13 0 6 1;#P connect 10 0 8 0;#P connect 8 0 13 0;#P connect 14 0 8 1;#P connect 7 0 14 0;#P connect 5 0 12 0;#P connect 12 0 3 0;#P connect 22 0 3 0;#P connect 25 0 2 0;#P connect 3 0 2 0;#P fasten 12 1 9 0 253 80 253 80;#P connect 9 0 10 0;#P connect 9 1 11 0;#P connect 26 0 20 0;#P connect 20 0 18 0;#P connect 7 0 19 0;#P connect 19 0 20 1;#P connect 21 0 23 0;#P connect 23 0 24 0;#P connect 24 0 22 0;#P connect 12 0 22 1;#P connect 23 1 25 0;#P pop;#P newobj 589 335 66 196617 p timer;#P objectname timer;#N vpatcher 599 323 1199 723;#P window setfont "Sans Serif" 9.;#P message 104 75 43 196617 resume;#P newex 50 50 41 196617 sel 1 0;#P message 50 75 35 196617 pause;#P inlet 50 30 15 0;#P outlet 50 167 15 0;#P connect 1 0 3 0;#P connect 3 0 2 0;#P connect 4 0 0 0;#P connect 2 0 0 0;#P fasten 3 1 4 0 70 71 109 71;#P pop;#P newobj 515 81 43 196617 p pause;#N vpatcher 447 87 1355 621;#P origin -420 -7;#P button 145 139 15 0;#P window setfont "Sans Serif" 9.;#P window linecount 1;#P message 143 161 58 196617 $0_player;#P window linecount 0;#P newex -62 223 360 196617 jcom.return info/channels @description "number of channels of the soundfile";#P newex 63 200 290 196617 jcom.return info/length @description "length of the soundfile";#P newex 140 181 336 196617 jcom.return info/playername @description "name of the sfplay~ object";#P flonum 858 388 35 9 0 0 0 3 0 0 0 221 221 221 222 222 222 0 0 0;#P outlet 855 414 15 0;#P outlet -64 391 15 0;#P newex -63 197 115 196617 prepend /info/channels;#P newex -63 175 26 196617 int;#P newex 37 175 95 196617 prepend /info/size;#P newex 517 169 100 196617 prepend /info/name;#P newex 37 153 26 196617 int;#P newex 517 148 51 196617 tosymbol;#P newex 584 130 54 196617 jcom.thru;#P inlet 655 44 15 0;#P window linecount 1;#P newex 584 104 68 196617 prepend open;#P message 584 63 33 196617 sound;#P newex 584 83 54 196617 opendialog;#B color 5;#P window linecount 0;#P message 609 370 207 196617;#P window linecount 1;#P newex 797 49 43 196617 delay 5;#P newex 797 27 48 196617 loadbang;#P newex 797 90 71 196617 prepend name;#P message 797 71 58 196617 $0_player;#P newex 485 39 79 196617 sfinfo~;#N vpatcher 497 192 1010 629;#P origin 43 0;#P outlet 470 347 15 0;#P inlet 139 43 15 0;#P window setfont "Sans Serif" 9.;#P window linecount 1;#N vpatcher 615 286 1215 686;#P origin -13 0;#P window setfont "Sans Serif" 9.;#P window linecount 0;#P newex 177 62 40 196617 t i b i;#P window linecount 1;#P newex 12 220 197 196617 sprintf script connect player %ld timer 0;#P window linecount 0;#P newex 236 136 27 196617 - 1;#P newex 237 114 27 196617 t i i;#P window linecount 1;#P newex 236 162 202 196617 sprintf script connect player %ld sig%ld 0;#P window linecount 0;#P newex 207 93 40 196617 uzi 1;#P outlet 207 292 15 0;#P inlet 179 41 15 0;#P window linecount 1;#P message 81 164 146 196617 script connect thru 0 player 0;#P connect 8 0 7 0;#P connect 8 1 0 0;#P connect 1 0 8 0;#P connect 8 2 3 0;#P connect 4 0 2 0;#P connect 0 0 2 0;#P connect 7 0 2 0;#P connect 5 0 6 0;#P connect 6 0 4 0;#P connect 3 2 5 0;#P fasten 5 1 4 1 259 158 433 158;#P pop;#P newobj 138 245 115 196617 p connect_from_player;#P window linecount 0;#P newex 138 210 53 196617 t b i i b;#N vpatcher 10 59 610 459;#P window setfont "Sans Serif" 9.;#P message 165 142 99 196617 script delete player;#P outlet 167 297 15 0;#P inlet 165 69 15 0;#P connect 0 0 2 0;#P connect 2 0 1 0;#P pop;#P newobj 376 245 80 196617 p delete_player;#N vpatcher 433 216 1136 612;#P origin -135 35;#P window setfont "Sans Serif" 9.;#P newex 282 105 402 196617 sprintf script new player newex 51 282 105 196617 sfplay~ %ld 40320 1 $0_player;#P outlet 301 272 15 0;#P inlet 299 21 15 0;#P connect 0 0 2 0;#P connect 2 0 1 0;#P pop;#P newobj 257 245 82 196617 p create_player;#P outlet 138 331 15 0;#P connect 5 0 3 0;#P connect 3 1 4 0;#P fasten 2 0 0 0 381 301 143 301;#P fasten 1 0 0 0 262 301 143 301;#P fasten 4 0 0 0 143 301 143 301;#P fasten 3 2 1 0 171 236 262 236;#P fasten 3 3 2 0 185 230 381 230;#P connect 3 0 6 0;#P pop;#P newobj 485 315 93 196617 p scripting_player;#B color 14;#P newex 583 150 62 196617 prepend set;#P inlet 584 43 15 0;#P outlet 609 413 15 0;#P outlet 485 355 15 0;#P fasten 18 0 22 0 522 288 -59 288;#P fasten 21 0 22 0 -58 288 -59 288;#P fasten 19 0 22 0 42 289 -59 289;#P connect 5 0 20 0;#P connect 20 0 21 0;#P connect 20 0 27 0;#P connect 5 3 17 0;#P connect 17 0 19 0;#P connect 17 0 26 0;#P connect 28 0 25 0;#P connect 29 0 28 0;#P connect 5 5 29 0;#P connect 15 0 5 0;#P connect 5 0 4 0;#P connect 4 0 0 0;#P connect 5 5 16 0;#P connect 16 0 18 0;#P connect 15 0 3 0;#P connect 2 0 12 0;#P connect 12 0 11 0;#P connect 11 0 13 0;#P connect 13 0 15 0;#P fasten 14 0 15 0 660 127 589 127;#P connect 4 1 10 0;#P connect 3 0 10 0;#P connect 7 0 1 0;#P connect 10 0 1 0;#P connect 8 0 9 0;#P connect 9 0 6 0;#P connect 6 0 7 0;#P connect 24 0 23 0;#P connect 5 3 24 0;#P pop;#P newobj 320 125 53 196617 p prepare;#P newex 363 85 68 196617 prepend open;#P newex 324 218 54 196617 jcom.thru;#P objectname thru;#N thispatcher;#Q end;#P newobj 320 150 61 196617 thispatcher;#P outlet 293 397 15 0;#P objectname sig16;#P outlet 274 397 15 0;#P objectname sig15;#P outlet 255 397 15 0;#P objectname sig14;#P outlet 236 397 15 0;#P objectname sig13;#P outlet 218 397 15 0;#P objectname sig12;#P outlet 199 397 15 0;#P objectname sig11;#P outlet 180 397 15 0;#P objectname sig10;#P outlet 161 397 15 0;#P objectname sig9;#N comlet;#P outlet 142 397 15 0;#P objectname sig8;#P outlet 123 397 15 0;#P objectname sig7;#N comlet;#P outlet 104 397 15 0;#P objectname sig6;#P outlet 85 397 15 0;#P objectname sig5;#P outlet 67 397 15 0;#P objectname sig4;#P outlet 48 397 15 0;#P objectname sig3;#P outlet 29 397 15 0;#P objectname sig2;#N vpatcher 599 323 1199 723;#P window setfont "Sans Serif" 9.;#P message 50 134 39 196617 seek 0;#P inlet 181 32 15 0;#P message 181 80 62 196617 set seek \$1;#P message 104 75 14 196617 0;#P newex 50 50 41 196617 sel 1 0;#P inlet 50 30 15 0;#P outlet 51 333 15 0;#P connect 1 0 2 0;#P connect 4 0 6 0;#P connect 2 0 6 0;#P connect 3 0 0 0;#P connect 6 0 0 0;#P fasten 2 1 3 0 70 71 109 71;#P connect 5 0 4 0;#P pop;#P newobj 618 136 37 196617 p play;#P outlet 721 339 15 0;#P inlet 320 36 15 0;#P outlet 10 397 15 0;#P objectname sig1;#P newex 320 59 404 196617 jcom.oscroute /sf_open /sf_load /play /pause /loop /start;#N sfplay~  1 40320 1 $0_player;#P newobj 51 282 154 196617 sfplay~ 1 40320 1 $0_player;#P objectname player;#P connect 0 0 2 0;#P connect 22 0 0 0;#P connect 3 0 1 0;#P connect 1 0 24 0;#P connect 24 1 21 0;#P connect 28 0 22 0;#P connect 25 0 22 0;#P connect 24 2 22 0;#P connect 5 0 22 0;#P connect 1 1 23 0;#P connect 23 0 24 1;#P connect 1 3 25 0;#P connect 1 4 28 0;#P connect 26 0 27 0;#P connect 0 1 26 0;#P connect 24 3 26 1;#P connect 1 6 26 2;#P fasten 1 2 5 0 455 106 623 106;#P connect 1 2 26 3;#P fasten 1 5 5 1 650 115 650 115;#P connect 1 5 26 4;#P connect 26 1 29 0;#P connect 24 0 4 0;#P pop;