max v2;
#N vpatcher 303 504 726 799;
#P window setfont "Sans Serif" 9.;
#N vpatcher 775 187 1100 444;
#P outlet 40 204 15 0;
#P window setfont "Sans Serif" 9.;
#P newex 40 169 56 196617 pack s i;
#P window linecount 1;
#P message 170 111 14 196617 1;
#P window linecount 0;
#P message 86 111 14 196617 0;
#P newex 86 85 178 196617 sel EqualPowerFade LinearPowerFade;
#P newex 40 57 56 196617 unpack s s;
#P inlet 40 28 15 0;
#P connect 0 0 1 0;
#P connect 1 0 5 0;
#P connect 5 0 6 0;
#P connect 1 1 2 0;
#P connect 2 0 3 0;
#P connect 4 0 5 1;
#P connect 3 0 5 1;
#P connect 2 1 4 0;
#P pop;
#P newobj 328 118 61 196617 p shapeMsg;
#P inlet 199 33 15 0;
#P inlet 115 128 15 0;
#P inlet 89 111 15 0;
#P inlet 65 92 15 0;
#P inlet 39 72 15 0;
#P outlet 91 214 15 0;
#P outlet 41 214 15 0;
#P message 171 117 26 196617 \$1 5;
#P newex 171 138 27 196617 line~;
#P newex 279 85 109 196617 jcom.pass mode shape;
#P newex 171 54 118 196617 jcom.oscroute /position;
#N out~ 2;
#P newobj 82 232 38 196617 out~ 2;
#N in~ 4;
#P newobj 106 109 32 196617 in~ 4;
#N in~ 3;
#P newobj 81 90 32 196617 in~ 3;
#P newex 171 75 27 196617 - 1.;
#N in 1;
#P newobj 171 33 25 196617 in 1;
#P newex 31 173 112 196617 jcom.xfade~ 2;
#N out~ 1;
#P newobj 31 232 35 196617 out~ 1;
#N in~ 2;
#P newobj 56 71 32 196617 in~ 2;
#N in~ 1;
#P newobj 31 52 31 196617 in~ 1;
#P fasten 10 0 3 0 284 164 36 164;
#P fasten 15 0 3 0 44 93 36 93;
#P connect 0 0 3 0;
#P fasten 20 0 3 0 333 167 36 167;
#P connect 3 0 2 0;
#P fasten 3 0 13 0 36 207 46 207;
#P fasten 16 0 3 1 70 110 61 110;
#P connect 1 0 3 1;
#P fasten 17 0 3 2 94 129 86 129;
#P connect 6 0 3 2;
#P connect 3 1 8 0;
#P fasten 3 1 14 0 87 206 96 206;
#P fasten 18 0 3 3 120 148 111 148;
#P connect 7 0 3 3;
#P connect 11 0 3 4;
#P fasten 19 0 9 0 204 52 176 52;
#P connect 4 0 9 0;
#P connect 9 0 5 0;
#P connect 5 0 12 0;
#P connect 12 0 11 0;
#P connect 9 1 10 0;
#P connect 10 1 20 0;
#P pop;
