max v2;#N vpatcher 106 84 944 623;#P outlet 31 464 15 0;#P inlet 278 52 15 0;#P outlet 377 464 15 0;#P outlet 278 464 15 0;#P inlet 477 52 15 0;#P inlet 31 52 15 0;#P window setfont "Sans Serif" 9.;#P window linecount 1;#P newex 278 410 209 196617 jcom.limiter~;#P newex 477 386 79 196617 biquad~;#P newex 416 285 41 196617 *~ 0.2;#P newex 477 355 65 196617 tapout~ 750;#P newex 477 321 71 196617 tapin~ 10001;#P newex 692 301 31 196617 dbtoa;#P user filtergraph~ 592 332 97 34 3 9 20. 20000. 0.0625 16. 0 1 1 0 0 0 0;#X frgb 170 170 170;#X brgb 209 209 209;#X rgb2 0 0 0;#X rgb3 130 130 130;#X rgb4 0 0 0;#X rgb5 76 108 172;#X rgb6 210 74 54;#X rgb7 255 22 22;#X linmarkers 5512.5 11025. 16537.5;#X logmarkers 10. 100. 1000. 10000.;#X nfilters 1;#X setfilter 0 5 1 0 0 40. 1. 2.5 0. 0. 0. 0. 0. 0.;#X done;#P newex 592 278 210 196617 jcom.oscroute /filtertype /cf /filtergain /q;#P newex 278 386 79 196617 biquad~;#P newex 31 102 230 196617 jcom.oscroute /left /right /maxdelay /feedback;#P newex 319 285 41 196617 *~ 0.2;#P newex 278 355 65 196617 tapout~ 250;#P newex 278 321 71 196617 tapin~ 10001;#P connect 13 0 3 0;#P fasten 3 2 0 0 146 233 283 233;#P connect 10 0 0 0;#P connect 17 0 0 0;#P fasten 3 0 1 0 36 348 283 348;#P connect 0 0 1 0;#P fasten 6 0 4 0 597 379 283 379;#P connect 1 0 4 0;#P connect 4 0 12 0;#P connect 12 0 15 0;#P fasten 12 0 2 0 283 434 254 434 254 276 324 276;#P fasten 3 3 2 1 201 165 355 165;#P connect 12 1 16 0;#P fasten 12 1 10 0 382 434 569 434 569 275 421 275;#P fasten 3 3 10 1 201 163 452 163;#P connect 14 0 8 0;#P connect 2 0 8 0;#P fasten 3 2 8 0 146 231 482 231;#P fasten 3 1 9 0 91 346 482 346;#P connect 8 0 9 0;#P fasten 6 0 11 0 597 381 482 381;#P connect 9 0 11 0;#P connect 11 0 12 1;#P fasten 3 4 5 0 256 128 597 128;#P connect 5 0 6 0;#P connect 5 1 6 5;#P fasten 7 0 6 6 697 324 669 324;#P fasten 5 3 6 7 747 327 681 327;#P connect 5 2 7 0;#P pop;