max v2;
#N vpatcher 103 144 535 405;
#P outlet 39 195 15 0;
#P window setfont "Sans Serif" 9.;
#P window linecount 1;
#P newex 305 167 51 196617 degrade~;
#P outlet 232 195 15 0;
#P outlet 305 195 15 0;
#P inlet 39 59 15 0;
#P inlet 305 59 15 0;
#P inlet 232 59 15 0;
#P newex 39 86 166 196617 jcom.oscroute /sr_ratio /bitdepth;
#P newex 232 167 51 196617 degrade~;
#P connect 4 0 1 0;
#P connect 2 0 0 0;
#P connect 0 0 6 0;
#P fasten 1 0 0 1 44 144 257 144;
#P fasten 1 1 0 2 122 135 277 135;
#P connect 3 0 7 0;
#P connect 7 0 5 0;
#P fasten 1 0 7 1 44 144 330 144;
#P fasten 1 1 7 2 122 135 350 135;
#P pop;
