max v2;#N vpatcher 512 144 1060 643;#P origin -27 -141;#P window setfont "Sans Serif" 9.;#P comment 264 162 49 196617 maxdelay;#P number 225 160 35 9 0 0 0 3 0 0 0 221 221 221 222 222 222 0 0 0;#P newex 435 354 65 196617 tapout~ 100;#P newex 412 113 85 196617 unpack 0 0 0 0 0;#P newex 411 325 65 196617 tapout~ 100;#P newex 391 295 65 196617 tapout~ 100;#P newex 370 268 65 196617 tapout~ 100;#P newex 344 240 65 196617 tapout~ 100;#P newex 344 209 71 196617 tapin~ 10000;#P newex 344 395 60 196617 jcom.thru~;#P newex 112 356 65 196617 tapout~ 100;#P flonum 196 373 35 9 0 0 0 3 0 0 0 221 221 221 222 222 222 0 0 0;#P newex 300 432 35 196617 *~ 0.;#P newex 6 432 35 196617 *~ 0.;#N out~ 2;#P newobj 344 432 35 196617 out~ 2;#N out~ 1;#P newobj 45 432 35 196617 out~ 1;#N in~ 2;#P newobj 344 113 31 196617 in~ 2;#N in~ 1;#P newobj 45 113 31 196617 in~ 1;#P newex 112 113 85 196617 unpack 0 0 0 0 0;#P newex 94 329 65 196617 tapout~ 100;#P newex 79 298 65 196617 tapout~ 100;#P newex 59 269 65 196617 tapout~ 100;#P newex 45 240 65 196617 tapout~ 100;#P newex 112 48 230 196617 jcom.oscroute /left /right /feedback /maxdelay;#P newex 45 209 71 196617 tapin~ 10000;#N in 1;#P newobj 112 23 25 196617 in 1;#P newex 45 395 60 196617 jcom.thru~;#P comment 235 375 49 196617 feedback;#P connect 1 0 14 0;#P connect 16 0 14 1;#P connect 26 0 3 0;#P fasten 14 0 3 0 11 455 2 455 2 193 50 193;#P connect 10 0 3 0;#P connect 9 0 5 0;#P connect 3 0 5 0;#P connect 17 0 1 0;#P connect 8 0 1 0;#P connect 7 0 1 0;#P connect 6 0 1 0;#P connect 5 0 1 0;#P connect 1 0 12 0;#P connect 9 1 6 0;#P connect 3 0 6 0;#P connect 9 2 7 0;#P connect 3 0 7 0;#P connect 9 3 8 0;#P connect 3 0 8 0;#P connect 2 0 4 0;#P connect 4 0 9 0;#P connect 9 4 17 0;#P connect 3 0 17 0;#P connect 4 2 16 0;#P connect 4 3 26 0;#P connect 18 0 15 0;#P connect 16 0 15 1;#P connect 26 0 19 0;#P fasten 15 0 19 0 305 455 293 455 293 190 349 190;#P connect 11 0 19 0;#P connect 24 0 20 0;#P connect 19 0 20 0;#P connect 25 0 18 0;#P connect 20 0 18 0;#P connect 21 0 18 0;#P connect 22 0 18 0;#P connect 23 0 18 0;#P connect 18 0 13 0;#P connect 24 1 21 0;#P connect 19 0 21 0;#P connect 24 2 22 0;#P connect 19 0 22 0;#P connect 24 3 23 0;#P connect 19 0 23 0;#P connect 4 1 24 0;#P connect 24 4 25 0;#P connect 19 0 25 0;#P pop;