max v2;#N vpatcher 518 58 825 294;#N comlet OSC;#P outlet 29 125 15 0;#N comlet signal 2;#P outlet 146 125 15 0;#N comlet signal 1;#P outlet 65 125 15 0;#N comlet signal 2;#P inlet 146 47 15 0;#N comlet signal 1;#P inlet 65 47 15 0;#N comlet OSC;#P inlet 29 47 15 0;#P window setfont "Sans Serif" 9.;#P window linecount 1;#P newex 146 79 50 196617 cascade~;#P newex 65 79 50 196617 cascade~;#P connect 3 0 0 0;#P connect 0 0 5 0;#P connect 4 0 1 0;#P connect 1 0 6 0;#P pop;