max v2;
#N vpatcher 317 91 763 451;
#N comlet OSC;
#P outlet 25 282 15 0;
#P window setfont "Sans Serif" 9.;
#P window linecount 1;
#P newex 155 171 95 196617 jcom.pass /bypass;
#P newex 25 128 120 196617 expr 1./(1. - $f1*0.01);
#N comlet signal 1;
#P outlet 294 282 15 0;
#N comlet signal 2;
#P outlet 330 282 15 0;
#N comlet signal 2;
#P inlet 366 57 15 0;
#N comlet signal 1;
#P inlet 294 57 15 0;
#P newex 25 158 92 196617 prepend overdrive;
#P newex 25 82 140 196617 jcom.oscroute /depth;
#N comlet OSC;
#P inlet 25 57 15 0;
#P newex 294 247 82 196617 jcom.saturation~;
#P connect 1 0 2 0;
#P connect 2 0 8 0;
#P connect 8 0 3 0;
#P connect 2 1 9 0;
#P connect 3 0 0 0;
#P connect 4 0 0 0;
#P connect 9 0 0 0;
#P connect 0 0 7 0;
#P connect 0 1 6 0;
#P connect 5 0 0 1;
#P pop;
