max v2;#N vpatcher 220 164 1368 720;#P origin -130 -13;#P window setfont "Sans Serif" 9.;#P newex 360 64 29 196617 gate;#P newex 551 534 65 196617 jcom.change;#P newex 551 554 237 196617 jcom.return digital/13 @type msg_int @range 0 1;#P toggle 139 73 15 0;#P newex 526 491 65 196617 jcom.change;#P newex 526 511 240 196617 jcom.return digital/12 @type msg_int @range 0 1;#P newex 500 443 65 196617 jcom.change;#P newex 500 463 240 196617 jcom.return digital/11 @type msg_int @range 0 1;#P newex 472 393 65 196617 jcom.change;#P newex 472 413 240 196617 jcom.return digital/10 @type msg_int @range 0 1;#P newex 448 348 65 196617 jcom.change;#P newex 448 368 234 196617 jcom.return digital/9 @type msg_int @range 0 1;#P newex 421 302 65 196617 jcom.change;#P newex 207 515 65 196617 jcom.change;#P newex 207 536 231 196617 jcom.return digital/7 @type msg_int @range 0 1;#P newex 207 472 65 196617 jcom.change;#P newex 207 493 234 196617 jcom.return digital/6 @type msg_int @range 0 1;#P newex 207 429 65 196617 jcom.change;#P newex 207 450 234 196617 jcom.return digital/5 @type msg_int @range 0 1;#P newex 207 386 65 196617 jcom.change;#P newex 207 407 234 196617 jcom.return digital/4 @type msg_int @range 0 1;#P newex 207 343 65 196617 jcom.change;#P newex 207 364 234 196617 jcom.return digital/3 @type msg_int @range 0 1;#P newex 206 300 65 196617 jcom.change;#P newex 29 514 65 196617 jcom.change;#P newex 29 535 177 196617 jcom.return analog/5 @type msg_int;#P newex 28 472 65 196617 jcom.change;#P newex 28 493 177 196617 jcom.return analog/4 @type msg_int;#P newex 27 429 65 196617 jcom.change;#P newex 27 450 177 196617 jcom.return analog/3 @type msg_int;#P newex 26 386 65 196617 jcom.change;#P newex 26 407 177 196617 jcom.return analog/2 @type msg_int;#P newex 25 343 65 196617 jcom.change;#P newex 25 364 177 196617 jcom.return analog/1 @type msg_int;#P newex 24 300 65 196617 jcom.change;#P newex 180 84 27 196617 int;#P newex 421 322 234 196617 jcom.return digital/8 @type msg_int @range 0 1;#P message 715 328 33 196617 clear;#P newex 319 84 30 196617 t b b;#P newex 640 284 74 196617 prepend append;#P newex 640 263 25 196617 iter;#P message 319 162 32 196617 print;#N vpatcher 737 330 1337 730;#P inlet 116 77 15 0;#P outlet 100 302 15 0;#P window setfont "Sans Serif" 9.;#P message 245 181 14 196617 j;#P message 229 181 14 196617 i;#P message 212 181 14 196617 h;#P message 196 181 14 196617 g;#P message 180 181 14 196617 f;#P message 164 181 14 196617 e;#P message 149 181 14 196617 d;#P message 134 181 14 196617 c;#P message 118 181 14 196617 b;#P message 100 181 14 196617 a;#P newex 116 135 144 196617 select 0 1 2 3 4 5 6 7 8 9;#P newex 100 264 67 196617 prepend port;#P connect 1 0 2 0;#P connect 11 0 0 0;#P connect 10 0 0 0;#P connect 9 0 0 0;#P connect 8 0 0 0;#P connect 7 0 0 0;#P connect 6 0 0 0;#P connect 5 0 0 0;#P connect 4 0 0 0;#P connect 3 0 0 0;#P connect 2 0 0 0;#P connect 0 0 12 0;#P connect 13 0 1 0;#P connect 1 1 3 0;#P connect 1 2 4 0;#P connect 1 3 5 0;#P connect 1 4 6 0;#P connect 1 5 7 0;#P connect 1 6 8 0;#P connect 1 7 9 0;#P connect 1 8 10 0;#P connect 1 9 11 0;#P pop;#P newobj 259 136 63 196617 p changeport;#P outlet 715 368 23 0;#P newex 640 236 54 196617 route port;#P newex 180 62 84 196617 expr 1000.0/$f1;#P newex 214 136 43 196617 delay 4;#P button 213 156 15 0;#N vpatcher 289 44 1127 677;#P outlet 99 316 15 0;#P window setfont "Sans Serif" 9.;#P window linecount 1;#P newex 107 210 31 196617 spell;#P window linecount 0;#P message 90 241 20 196617 13;#P newex 90 127 27 196617 t b l;#P inlet 90 70 15 0;#P connect 0 0 1 0;#P fasten 1 0 2 0 95 235 95 235;#P fasten 2 0 4 0 95 286 104 286;#P fasten 3 0 4 0 112 286 104 286;#P connect 1 1 3 0;#P pop;#P newobj 139 150 53 196617 p convert;#P message 139 130 14 196617 r;#P newex 139 105 52 196617 metro 15;#P newex 206 321 231 196617 jcom.return digital/2 @type msg_int @range 0 1;#P newex 24 321 177 196617 jcom.return analog/0 @type msg_int;#P newex 109 262 452 196617 unpack i i i i i i i i i i i i i i i i i i;#N vpatcher 582 197 863 594;#P window setfont "Sans Serif" 9.;#P newex 137 226 64 196617 fromsymbol;#P newex 137 182 40 196617 itoa;#P newex 137 148 61 196617 zl group 78;#P newex 137 84 53 196617 sel 10 13;#N comlet out;#P outlet 137 298 26 0;#N comlet in;#P inlet 137 37 15 0;#P connect 0 0 2 0;#P fasten 2 2 3 0 184 124 142 124;#P fasten 2 1 3 0 163 124 142 124;#P connect 3 0 4 0;#P connect 4 0 5 0;#P connect 5 0 1 0;#P pop;#P newobj 139 214 73 196617 p convertback;#P newex 139 236 52 196617 route list;#P newex 139 195 139 196617 serial a 115200 8 1 0;#P newex 139 37 313 196617 jcom.oscroute /on /updaterate /menu /init /update;#P inlet 139 12 15 0;#P fasten 5 0 24 0 114 289 29 289;#P connect 24 0 6 0;#P connect 5 1 26 0;#P connect 26 0 25 0;#P connect 5 2 28 0;#P connect 28 0 27 0;#P connect 5 3 30 0;#P connect 30 0 29 0;#P connect 5 4 32 0;#P connect 32 0 31 0;#P connect 5 5 34 0;#P connect 34 0 33 0;#P fasten 3 0 5 0 144 257 114 257;#P connect 0 0 1 0;#P connect 1 0 55 0;#P connect 55 0 8 0;#P connect 58 0 9 0;#P connect 8 0 9 0;#P connect 9 0 10 0;#P fasten 16 0 2 0 264 184 144 184;#P fasten 17 0 2 0 324 191 144 191;#P connect 10 0 2 0;#P fasten 11 0 2 0 218 178 144 178;#P connect 2 0 4 0;#P connect 4 0 3 0;#P fasten 1 1 13 0 204 59 185 59;#P connect 13 0 23 0;#P connect 23 0 8 1;#P connect 5 6 35 0;#P connect 35 0 7 0;#P connect 5 7 37 0;#P connect 37 0 36 0;#P connect 5 8 39 0;#P connect 39 0 38 0;#P connect 5 9 41 0;#P connect 41 0 40 0;#P connect 5 10 43 0;#P connect 43 0 42 0;#P connect 5 11 45 0;#P connect 45 0 44 0;#P connect 12 0 11 0;#P connect 58 0 12 0;#P fasten 8 0 12 0 144 127 219 127;#P connect 1 2 16 0;#P connect 1 3 20 0;#P connect 20 0 17 0;#P connect 55 0 58 0;#P lcolor 15;#P connect 1 4 58 1;#P connect 5 12 46 0;#P connect 46 0 22 0;#P connect 5 13 48 0;#P connect 48 0 47 0;#P connect 5 14 50 0;#P connect 50 0 49 0;#P connect 5 15 52 0;#P connect 52 0 51 0;#P connect 5 16 54 0;#P connect 54 0 53 0;#P connect 5 17 57 0;#P connect 57 0 56 0;#P fasten 2 1 14 0 273 216 645 216;#P connect 14 0 18 0;#P connect 18 0 19 0;#P fasten 20 1 21 0 344 101 720 101;#P fasten 19 0 15 0 645 353 720 353;#P fasten 21 0 15 0 720 353 720 353;#P pop;