max v2;#N vpatcher 459 162 1210 573;#P origin -2 -474;#P window setfont "Sans Serif" 9.;#P window linecount 1;#P hidden newex 378 287 403 196617 jcom.message update @type msg_none @description "get data due to an external clock";#P objectname jcom.parameter[1];#P window setfont Verdana 9.;#P user ubumenu 127 24 125 472055817 0 1 1 0;#X setrgb 181 181 181 25 25 25 50 50 50 4 4 4 141 141 141 112 112 112;#X add;#X prefix_set 0 0 <none> 0;#X pattrmode 1;#P objectname port_menu2;#P window setfont "Sans Serif" 9.;#P comment 146 44 79 196617 updaterate [Hz]:;#B frgb 181 181 181;#P number 226 42 24 9 10 66 8227 3 181 181 181 221 221 221 222 222 222 0 0 0;#P objectname sr;#P hidden newex 375 225 44 196617 pvar sr;#P window linecount 2;#P hidden newex 375 244 329 196617 jcom.parameter updaterate @type msg_int @range 10 66 @clipmode both @description "set the frequency how often Arduino delivers data";#P objectname updaterate;#P window linecount 1;#P hidden newex 369 177 73 196617 pvar ard_initi;#P hidden newex 370 197 379 196617 jcom.message init @type msg_none @description "Initialization of the serial port";#P objectname jcom.parameter[3];#P user jsui 52 30 25 16 1 0 0 jcom.jsui_texttoggle.js off on 68 68 68 225 225 225 121 255 15;#P objectname ard_on;#P user jsui 16 30 25 16 1 0 0 jsui_textbutton.js init 225 225 225 68 68 68;#P objectname ard_initi;#P user umenu 378 50 114 196647 1 64 66 1;#X add Z710i-Dial-upNetworking-2;#X add Bluetooth-PDA-Sync;#X add Z710i-SerialPort-1;#X add Bluetooth-Modem;#P objectname port_menu;#P comment 98 25 29 196617 port:;#B frgb 181 181 181;#P hidden newex 373 109 65 196617 pvar ard_on;#P hidden newex 373 131 320 196617 jcom.parameter on @type msg_toggle @description "Turn polling on";#P objectname on;#P hidden newex 20 359 88 196617 pvar port_menu2;#P window linecount 2;#P hidden newex 20 381 239 196617 jcom.parameter menu @type msg_menu @clipmode none @description "Define the Arduino port";#P objectname menu;#P window linecount 1;#P message 53 107 191 196617 /preset/store 1 default \, /preset/write;#B color 3;#P newex 20 209 43 196617 jcom.in;#P newex 20 257 45 196617 pcontrol;#P newex 20 233 78 196617 jcom.pass open;#P window linecount 2;#P message 214 343 65 196617 \; max refresh;#P window linecount 1;#P message 189 124 31 196617 /init;#P newex 20 314 84 196617 jalg.arduino.mxt;#P window linecount 2;#P newex 20 149 289 196617 jcom.hub jmod.arduino @size 1U-half @module_type control @description "An interface module for the I/O board Arduino";#P objectname jcom.hub;#P inlet 20 125 13 0;#P outlet 20 182 13 0;#P window linecount 1;#P message 126 315 153 196617 /updaterate 66;#P newex 126 294 61 196617 prepend set;#P message 60 124 125 196617 /documentation/generate;#B color 3;#P bpatcher 0 0 256 62 0 0 jcom.gui.mxt 0 $0_;#P objectname jcom.gui.audio-component.mxt;#P fasten 8 0 6 0 194 145 25 145;#P connect 5 0 6 0;#P fasten 1 0 6 0 65 145 25 145;#P fasten 13 0 6 0 58 145 25 145;#P connect 6 0 4 0;#P connect 12 0 10 0;#P connect 10 0 11 0;#P connect 11 0 7 0;#P fasten 10 1 7 0 93 305 25 305;#P hidden connect 7 0 15 0;#P hidden fasten 14 0 15 0 25 414 13 414 13 354 25 354;#P hidden connect 15 0 14 0;#P fasten 10 1 2 0 93 285 131 285;#P connect 2 0 3 0;#P connect 23 0 22 0;#P hidden fasten 16 0 17 0 378 164 369 164 369 104 378 104;#P hidden connect 17 0 16 0;#P hidden fasten 24 0 25 0 380 277 370 277 370 222 380 222;#P hidden connect 25 0 24 0;#P pop;