max v2;#N vpatcher 68 100 1395 890;#P window setfont "Sans Serif" 9.;#P hidden newex 629 397 66 196617 pvar INVERT;#P window linecount 2;#P hidden newex 629 421 231 196617 jcom.parameter edgeblend/invert @type msg_toggle @description "Invert edge blending.";#P objectname edgeblend/invert;#P hidden newex 629 347 359 196617 jcom.parameter edgeblend/fade/bottom @type msg_float @ramp linear.sched @range 0. 1. @clipmode both @description "Edge blend left side.";#P objectname edgeblend/fade/bottom;#P hidden newex 629 277 351 196617 jcom.parameter edgeblend/fade/right @type msg_float @ramp linear.sched @range 0. 1. @clipmode both @description "Edge blend left side.";#P objectname edgeblend/fade/right;#P hidden newex 629 207 343 196617 jcom.parameter edgeblend/fade/top @type msg_float @ramp linear.sched @range 0. 1. @clipmode both @description "Edge blend left side.";#P objectname edgeblend/fade/top;#P hidden newex 629 137 345 196617 jcom.parameter edgeblend/fade/left @type msg_float @ramp linear.sched @range 0. 1. @clipmode both @description "Edge blend left side.";#P objectname edgeblend/fade/left;#P window linecount 1;#P hidden newex 629 325 72 196617 pvar BOTTOM;#P hidden newex 629 187 52 196617 pvar TOP;#P hidden newex 629 256 61 196617 pvar RIGHT;#P hidden newex 629 118 55 196617 pvar LEFT;#P user radiogroup 3 44 67 16;#X size 1;#X offset 16;#X inactive 0;#X itemtype 1;#X flagmode 0;#X set 0;#X done;#P objectname INVERT;#P comment 18 46 60 196617 Invert;#B frgb 149 149 149;#P flonum 154 31 35 9 0. 1. 8227 3 181 181 181 221 221 221 255 255 255 0 0 0;#P objectname BOTTOM;#P flonum 118 31 35 9 0. 1. 8227 3 181 181 181 221 221 221 255 255 255 0 0 0;#P objectname RIGHT;#P comment 153 19 47 196617 Bottom;#B frgb 149 149 149;#P comment 117 19 47 196617 Right;#B frgb 149 149 149;#P comment 81 19 47 196617 Top;#B frgb 149 149 149;#P comment 45 19 47 196617 Left;#B frgb 149 149 149;#P comment 3 32 34 196617 Edge:;#B frgb 149 149 149;#P flonum 82 31 35 9 0. 1. 8227 3 181 181 181 221 221 221 255 255 255 0 0 0;#P objectname TOP;#P flonum 46 31 35 9 0. 1. 8227 3 181 181 181 221 221 221 255 255 255 0 0 0;#P objectname LEFT;#P hidden newex 159 315 47 196617 pcontrol;#P hidden newex 159 295 100 196617 jcom.pass open;#P hidden newex 263 383 57 196617 jcom.out 1;#P hidden inlet 86 243 13 0;#P hidden comment 101 243 65 196617 VIDEO INPUT;#P hidden newex 86 260 118 196617 jcom.in 1;#P window linecount 2;#P hidden message 235 133 120 196617 /preset/store 1 default \, /preset/write;#B color 3;#P window linecount 1;#N vpatcher 44 47 611 829;#P origin 0 -51;#P bpatcher 278 0 268 762 0 0 jcom.class.gl_slab.inspect.mxt 0;#P objectname jcom.class.gl_slab.inspect.mxt;#P window setfont "Sans Serif" 9.;#P window linecount 0;#P hidden newex 657 174 106 196617 bgcolor 110 110 110;#P bpatcher 7 0 268 761 0 0 jcom.class.gl_group.inspect.mxt 0;#P objectname jcom.class.gl_group.inspect.mxt;#P hidden inlet 657 54 15 0;#P window linecount 1;#P hidden newex 657 99 40 196617 t front;#P hidden newex 657 79 151 196617 jcom.oscroute /open_inspector;#N thispatcher;#Q end;#P hidden newobj 657 121 61 196617 thispatcher;#P hidden connect 3 0 1 0;#P hidden connect 1 0 2 0;#P hidden connect 2 0 0 0;#P pop;#P hidden newobj 264 295 60 196617 p inspector;#P objectname inspector;#P window linecount 2;#P hidden message 140 442 82 196617 /open_inspector 0;#P window linecount 1;#P hidden newex 140 419 57 196617 prepend set;#P window linecount 2;#P hidden message 9 321 65 196617 \; max refresh;#P window linecount 1;#P hidden message 106 142 125 196617 /documentation/generate;#B color 3;#P window linecount 2;#P hidden newex 0 172 400 196617 jcom.hub jmod.gl.edgeblend% @size 1U-half @module_type video @algorithm_type jitter @inspector 1 @description "Apply edgblending to incomming matrix or texture.";#P objectname jcom.hub;#P window linecount 1;#P hidden comment 278 404 75 196617 VIDEO OUTPUT;#P hidden outlet 263 404 13 0;#P hidden newex 159 354 114 196617 jalg.gl.edgeblend%.mxt;#P window linecount 2;#P hidden message 9 286 72 196617 \; jcom.init bang;#P window linecount 1;#P hidden comment 14 139 79 196617 command input;#P hidden outlet 0 234 13 0;#P hidden inlet 0 139 13 0;#P bpatcher 0 0 255 60 0 0 jcom.gui.mxt 0;#P objectname jcom.gui.1Uh.v.mxb;#P hidden connect 1 0 8 0;#P hidden fasten 9 0 8 0 111 163 5 163;#P hidden fasten 14 0 8 0 240 164 5 164;#P hidden connect 8 0 2 0;#P hidden connect 17 0 15 0;#P hidden connect 15 1 11 0;#P hidden connect 11 0 12 0;#P hidden fasten 15 1 19 0 145 286 164 286;#P hidden connect 19 0 20 0;#P hidden connect 19 1 5 0;#P hidden connect 20 0 5 0;#P hidden fasten 15 0 5 1 91 340 268 340;#P hidden connect 5 1 18 0;#P hidden connect 18 0 6 0;#P hidden fasten 15 1 13 0 145 286 269 286;#P hidden fasten 36 0 32 0 634 169 622 169 622 114 634 114;#P hidden connect 32 0 36 0;#P hidden fasten 37 0 34 0 634 243 622 243 622 183 634 183;#P hidden connect 34 0 37 0;#P hidden fasten 38 0 33 0 634 310 622 310 622 249 626 249 634 249;#P hidden connect 33 0 38 0;#P hidden fasten 39 0 35 0 634 380 622 380 622 321 634 321;#P hidden connect 35 0 39 0;#P hidden fasten 40 0 41 0 634 454 622 454 622 392 634 392;#P hidden connect 41 0 40 0;#P pop;