{
	"patcher" : 	{
		"rect" : [ 218.0, 197.0, 662.0, 566.0 ],
		"bglocked" : 0,
		"defrect" : [ 218.0, 197.0, 662.0, 566.0 ],
		"openinpresentation" : 0,
		"default_fontsize" : 10.0,
		"default_fontface" : 0,
		"default_fontname" : "Verdana",
		"gridonopen" : 0,
		"gridsize" : [ 5.0, 5.0 ],
		"gridsnaponopen" : 0,
		"toolbarvisible" : 1,
		"boxfadetime" : 200,
		"boxanimatetime" : 200,
		"scrollanimatetime" : 200,
		"metadata" : [  ],
		"boxes" : [ 			{
				"box" : 				{
					"maxclass" : "message",
					"text" : ";\rmax refresh",
					"linecount" : 2,
					"patching_rect" : [ 17.0, 367.0, 73.0, 26.0 ],
					"fontname" : "Verdana",
					"id" : "obj-1",
					"numinlets" : 2,
					"numoutlets" : 1,
					"fontsize" : 9.0,
					"outlettype" : [ "" ]
				}

			}
, 			{
				"box" : 				{
					"maxclass" : "comment",
					"text" : "Messages",
					"patching_rect" : [ 418.0, 24.0, 53.0, 17.0 ],
					"fontname" : "Verdana",
					"id" : "obj-2",
					"numinlets" : 1,
					"numoutlets" : 0,
					"fontsize" : 9.0
				}

			}
, 			{
				"box" : 				{
					"maxclass" : "message",
					"text" : "\/panic",
					"patching_rect" : [ 504.0, 66.0, 39.0, 15.0 ],
					"fontname" : "Verdana",
					"id" : "obj-3",
					"numinlets" : 2,
					"numoutlets" : 1,
					"fontsize" : 9.0,
					"outlettype" : [ "" ]
				}

			}
, 			{
				"box" : 				{
					"maxclass" : "message",
					"text" : "\/refresh",
					"patching_rect" : [ 452.0, 66.0, 50.0, 15.0 ],
					"fontname" : "Verdana",
					"id" : "obj-4",
					"numinlets" : 2,
					"numoutlets" : 1,
					"fontsize" : 9.0,
					"outlettype" : [ "" ]
				}

			}
, 			{
				"box" : 				{
					"maxclass" : "message",
					"text" : "\/init",
					"patching_rect" : [ 419.0, 66.0, 31.0, 15.0 ],
					"fontname" : "Verdana",
					"id" : "obj-5",
					"numinlets" : 2,
					"numoutlets" : 1,
					"fontsize" : 9.0,
					"outlettype" : [ "" ]
				}

			}
, 			{
				"box" : 				{
					"maxclass" : "toggle",
					"patching_rect" : [ 344.0, 48.0, 15.0, 15.0 ],
					"id" : "obj-6",
					"numinlets" : 1,
					"numoutlets" : 1,
					"outlettype" : [ "int" ]
				}

			}
, 			{
				"box" : 				{
					"maxclass" : "message",
					"text" : "\/audio $1",
					"patching_rect" : [ 344.0, 66.0, 54.0, 15.0 ],
					"fontname" : "Verdana",
					"id" : "obj-7",
					"numinlets" : 2,
					"numoutlets" : 1,
					"fontsize" : 9.0,
					"outlettype" : [ "" ]
				}

			}
, 			{
				"box" : 				{
					"maxclass" : "flonum",
					"patching_rect" : [ 344.0, 244.0, 35.0, 17.0 ],
					"triscale" : 0.9,
					"fontname" : "Verdana",
					"htextcolor" : [ 0.870588, 0.870588, 0.870588, 1.0 ],
					"id" : "obj-8",
					"numinlets" : 1,
					"numoutlets" : 2,
					"fontsize" : 9.0,
					"bgcolor" : [ 0.866667, 0.866667, 0.866667, 1.0 ],
					"outlettype" : [ "float", "bang" ]
				}

			}
, 			{
				"box" : 				{
					"maxclass" : "newobj",
					"text" : "route \/cpu",
					"patching_rect" : [ 344.0, 201.0, 58.0, 17.0 ],
					"fontname" : "Verdana",
					"id" : "obj-9",
					"numinlets" : 1,
					"numoutlets" : 2,
					"fontsize" : 9.0,
					"outlettype" : [ "", "" ]
				}

			}
, 			{
				"box" : 				{
					"maxclass" : "newobj",
					"text" : "loadmess set",
					"patching_rect" : [ 456.0, 221.0, 68.0, 17.0 ],
					"fontname" : "Verdana",
					"hidden" : 1,
					"id" : "obj-10",
					"numinlets" : 1,
					"numoutlets" : 1,
					"fontsize" : 9.0,
					"outlettype" : [ "" ]
				}

			}
, 			{
				"box" : 				{
					"maxclass" : "message",
					"patching_rect" : [ 392.0, 244.0, 115.0, 15.0 ],
					"fontname" : "Verdana",
					"id" : "obj-11",
					"numinlets" : 2,
					"numoutlets" : 1,
					"fontsize" : 9.0,
					"outlettype" : [ "" ]
				}

			}
, 			{
				"box" : 				{
					"maxclass" : "newobj",
					"text" : "prepend set",
					"patching_rect" : [ 392.0, 221.0, 62.0, 17.0 ],
					"fontname" : "Verdana",
					"id" : "obj-12",
					"numinlets" : 1,
					"numoutlets" : 1,
					"fontsize" : 9.0,
					"outlettype" : [ "" ]
				}

			}
, 			{
				"box" : 				{
					"maxclass" : "bpatcher",
					"varname" : "\/output~",
					"patching_rect" : [ 343.0, 418.0, 301.0, 141.0 ],
					"name" : "jmod.output~.maxpat",
					"lockeddragscroll" : 1,
					"id" : "obj-13",
					"numinlets" : 3,
					"numoutlets" : 1,
					"args" : [ "\/output~" ],
					"outlettype" : [ "" ]
				}

			}
, 			{
				"box" : 				{
					"maxclass" : "bpatcher",
					"varname" : "\/input~",
					"patching_rect" : [ 344.0, 273.0, 301.0, 141.0 ],
					"name" : "jmod.input~.maxpat",
					"lockeddragscroll" : 1,
					"id" : "obj-14",
					"numinlets" : 1,
					"numoutlets" : 3,
					"args" : [ "\/input~" ],
					"outlettype" : [ "", "", "" ]
				}

			}
, 			{
				"box" : 				{
					"maxclass" : "comment",
					"text" : "- CPU monitoring. Also reported out left outlet as \"cpu (float).\"",
					"patching_rect" : [ 17.0, 337.0, 310.0, 17.0 ],
					"fontname" : "Verdana",
					"id" : "obj-15",
					"numinlets" : 1,
					"numoutlets" : 0,
					"fontsize" : 9.0
				}

			}
, 			{
				"box" : 				{
					"maxclass" : "comment",
					"text" : "- turn audio off imideately (panic)",
					"patching_rect" : [ 17.0, 304.0, 310.0, 17.0 ],
					"fontname" : "Verdana",
					"id" : "obj-16",
					"numinlets" : 1,
					"numoutlets" : 0,
					"fontsize" : 9.0
				}

			}
, 			{
				"box" : 				{
					"maxclass" : "comment",
					"text" : "Some jamoma modules (jmod.input~.mod and jmod.output~mod) will perform a soft fade in\/fade out if audio instead is turned on and off using jmod.control.mod",
					"linecount" : 3,
					"patching_rect" : [ 24.0, 264.0, 310.0, 38.0 ],
					"fontname" : "Verdana",
					"id" : "obj-17",
					"numinlets" : 1,
					"numoutlets" : 0,
					"fontsize" : 9.0
				}

			}
, 			{
				"box" : 				{
					"maxclass" : "comment",
					"text" : "Turning audio on and off using dac~, ezdac or similar will cause abrupt start and stop of audio signal.",
					"linecount" : 2,
					"patching_rect" : [ 24.0, 240.0, 310.0, 28.0 ],
					"fontname" : "Verdana",
					"id" : "obj-18",
					"numinlets" : 1,
					"numoutlets" : 0,
					"fontsize" : 9.0
				}

			}
, 			{
				"box" : 				{
					"maxclass" : "comment",
					"text" : "- turn audio on\/off.",
					"patching_rect" : [ 17.0, 228.0, 310.0, 17.0 ],
					"fontname" : "Verdana",
					"id" : "obj-19",
					"numinlets" : 1,
					"numoutlets" : 0,
					"fontsize" : 9.0
				}

			}
, 			{
				"box" : 				{
					"maxclass" : "comment",
					"text" : "MSP:",
					"patching_rect" : [ 17.0, 214.0, 100.0, 17.0 ],
					"fontname" : "Verdana",
					"id" : "obj-20",
					"numinlets" : 1,
					"numoutlets" : 0,
					"fontsize" : 9.0
				}

			}
, 			{
				"box" : 				{
					"maxclass" : "comment",
					"text" : "- initialize all Jamoma modules, and set to their default state",
					"patching_rect" : [ 17.0, 193.0, 310.0, 17.0 ],
					"fontname" : "Verdana",
					"id" : "obj-21",
					"numinlets" : 1,
					"numoutlets" : 0,
					"fontsize" : 9.0
				}

			}
, 			{
				"box" : 				{
					"maxclass" : "bpatcher",
					"varname" : "\/control",
					"patching_rect" : [ 344.0, 118.0, 300.0, 70.0 ],
					"name" : "jmod.control.maxpat",
					"lockeddragscroll" : 1,
					"id" : "obj-22",
					"numinlets" : 1,
					"numoutlets" : 1,
					"args" : [  ],
					"outlettype" : [ "" ]
				}

			}
, 			{
				"box" : 				{
					"maxclass" : "comment",
					"text" : "jmod.control",
					"patching_rect" : [ 23.0, 31.0, 189.0, 28.0 ],
					"fontname" : "Verdana",
					"frgb" : [ 1.0, 1.0, 1.0, 1.0 ],
					"id" : "obj-23",
					"numinlets" : 1,
					"textcolor" : [ 1.0, 1.0, 1.0, 1.0 ],
					"numoutlets" : 0,
					"fontsize" : 15.799999
				}

			}
, 			{
				"box" : 				{
					"maxclass" : "comment",
					"text" : "a control module for handling various global tasks",
					"patching_rect" : [ 24.0, 57.0, 242.0, 17.0 ],
					"fontname" : "Verdana",
					"frgb" : [ 1.0, 1.0, 1.0, 1.0 ],
					"id" : "obj-24",
					"numinlets" : 1,
					"textcolor" : [ 1.0, 1.0, 1.0, 1.0 ],
					"numoutlets" : 0,
					"fontsize" : 9.0
				}

			}
, 			{
				"box" : 				{
					"maxclass" : "panel",
					"bordercolor" : [ 0.501961, 0.043137, 0.039216, 1.0 ],
					"patching_rect" : [ 17.0, 15.0, 256.0, 63.0 ],
					"rounded" : 0,
					"id" : "obj-25",
					"numinlets" : 1,
					"numoutlets" : 0,
					"bgcolor" : [ 0.262745, 0.254902, 0.419608, 1.0 ]
				}

			}
, 			{
				"box" : 				{
					"maxclass" : "comment",
					"text" : "This module is meant to offer a simple way of handling a number of global tasks in the Jamoma environment.",
					"linecount" : 2,
					"patching_rect" : [ 17.0, 91.0, 280.0, 28.0 ],
					"fontname" : "Verdana",
					"id" : "obj-26",
					"numinlets" : 1,
					"numoutlets" : 0,
					"fontsize" : 9.0
				}

			}
, 			{
				"box" : 				{
					"maxclass" : "comment",
					"text" : "The module is still premature and will be enhanced in the future, but so far the following is implemented:",
					"linecount" : 2,
					"patching_rect" : [ 17.0, 130.0, 281.0, 28.0 ],
					"fontname" : "Verdana",
					"id" : "obj-27",
					"numinlets" : 1,
					"numoutlets" : 0,
					"fontsize" : 9.0
				}

			}
, 			{
				"box" : 				{
					"maxclass" : "comment",
					"text" : "- refresh all Max windows",
					"patching_rect" : [ 17.0, 181.0, 130.0, 17.0 ],
					"fontname" : "Verdana",
					"id" : "obj-28",
					"numinlets" : 1,
					"numoutlets" : 0,
					"fontsize" : 9.0
				}

			}
, 			{
				"box" : 				{
					"maxclass" : "comment",
					"text" : "Max:",
					"patching_rect" : [ 17.0, 165.0, 100.0, 17.0 ],
					"fontname" : "Verdana",
					"id" : "obj-29",
					"numinlets" : 1,
					"numoutlets" : 0,
					"fontsize" : 9.0
				}

			}
, 			{
				"box" : 				{
					"maxclass" : "comment",
					"text" : "If you don't have time for a soft fade out",
					"patching_rect" : [ 24.0, 316.0, 297.0, 17.0 ],
					"fontname" : "Verdana",
					"id" : "obj-30",
					"numinlets" : 1,
					"numoutlets" : 0,
					"fontsize" : 9.0
				}

			}
, 			{
				"box" : 				{
					"maxclass" : "comment",
					"text" : "Parameter",
					"patching_rect" : [ 342.0, 24.0, 58.0, 17.0 ],
					"fontname" : "Verdana",
					"id" : "obj-31",
					"numinlets" : 1,
					"numoutlets" : 0,
					"fontsize" : 9.0
				}

			}
 ],
		"lines" : [ 			{
				"patchline" : 				{
					"source" : [ "obj-6", 0 ],
					"destination" : [ "obj-7", 0 ],
					"hidden" : 0
				}

			}
, 			{
				"patchline" : 				{
					"source" : [ "obj-7", 0 ],
					"destination" : [ "obj-22", 0 ],
					"hidden" : 0
				}

			}
, 			{
				"patchline" : 				{
					"source" : [ "obj-5", 0 ],
					"destination" : [ "obj-22", 0 ],
					"hidden" : 0,
					"midpoints" : [ 428.5, 99.0, 353.5, 99.0 ]
				}

			}
, 			{
				"patchline" : 				{
					"source" : [ "obj-4", 0 ],
					"destination" : [ "obj-22", 0 ],
					"hidden" : 0,
					"midpoints" : [ 461.5, 99.0, 353.5, 99.0 ]
				}

			}
, 			{
				"patchline" : 				{
					"source" : [ "obj-3", 0 ],
					"destination" : [ "obj-22", 0 ],
					"hidden" : 0,
					"midpoints" : [ 513.5, 99.0, 353.5, 99.0 ]
				}

			}
, 			{
				"patchline" : 				{
					"source" : [ "obj-22", 0 ],
					"destination" : [ "obj-9", 0 ],
					"hidden" : 0
				}

			}
, 			{
				"patchline" : 				{
					"source" : [ "obj-9", 0 ],
					"destination" : [ "obj-8", 0 ],
					"hidden" : 0
				}

			}
, 			{
				"patchline" : 				{
					"source" : [ "obj-9", 1 ],
					"destination" : [ "obj-12", 0 ],
					"hidden" : 0
				}

			}
, 			{
				"patchline" : 				{
					"source" : [ "obj-10", 0 ],
					"destination" : [ "obj-11", 0 ],
					"hidden" : 1,
					"midpoints" : [ 465.5, 240.0, 401.5, 240.0 ]
				}

			}
, 			{
				"patchline" : 				{
					"source" : [ "obj-12", 0 ],
					"destination" : [ "obj-11", 0 ],
					"hidden" : 0
				}

			}
 ]
	}

}
