{
	"patcher" : 	{
		"rect" : [ 403.0, 154.0, 696.0, 530.0 ],
		"bglocked" : 0,
		"defrect" : [ 403.0, 154.0, 696.0, 530.0 ],
		"openinpresentation" : 0,
		"default_fontsize" : 10.0,
		"default_fontface" : 0,
		"default_fontname" : "Verdana",
		"gridonopen" : 0,
		"gridsize" : [ 5.0, 5.0 ],
		"gridsnaponopen" : 0,
		"toolbarvisible" : 1,
		"boxfadetime" : 200,
		"boxanimatetime" : 200,
		"scrollanimatetime" : 200,
		"metadata" : [  ],
		"boxes" : [ 			{
				"box" : 				{
					"maxclass" : "newobj",
					"text" : "\/ 0.",
					"patching_rect" : [ 470.0, 334.0, 27.0, 17.0 ],
					"fontname" : "Verdana",
					"id" : "obj-1",
					"numinlets" : 2,
					"numoutlets" : 1,
					"fontsize" : 9.0,
					"outlettype" : [ "float" ]
				}

			}
, 			{
				"box" : 				{
					"maxclass" : "number",
					"patching_rect" : [ 487.0, 304.0, 35.0, 17.0 ],
					"triscale" : 0.9,
					"fontname" : "Verdana",
					"htextcolor" : [ 0.870588, 0.870588, 0.870588, 1.0 ],
					"id" : "obj-2",
					"numinlets" : 1,
					"numoutlets" : 2,
					"fontsize" : 9.0,
					"bgcolor" : [ 0.866667, 0.866667, 0.866667, 1.0 ],
					"outlettype" : [ "int", "bang" ]
				}

			}
, 			{
				"box" : 				{
					"maxclass" : "message",
					"text" : "255",
					"patching_rect" : [ 538.0, 260.0, 26.0, 15.0 ],
					"fontname" : "Verdana",
					"id" : "obj-3",
					"numinlets" : 2,
					"numoutlets" : 1,
					"fontsize" : 9.0,
					"outlettype" : [ "" ]
				}

			}
, 			{
				"box" : 				{
					"maxclass" : "message",
					"text" : "65535",
					"patching_rect" : [ 487.0, 261.0, 40.0, 15.0 ],
					"fontname" : "Verdana",
					"id" : "obj-4",
					"numinlets" : 2,
					"numoutlets" : 1,
					"fontsize" : 9.0,
					"outlettype" : [ "" ]
				}

			}
, 			{
				"box" : 				{
					"maxclass" : "newobj",
					"text" : "sel windows macintosh",
					"patching_rect" : [ 487.0, 228.0, 113.0, 17.0 ],
					"fontname" : "Verdana",
					"id" : "obj-5",
					"numinlets" : 1,
					"numoutlets" : 3,
					"fontsize" : 9.0,
					"outlettype" : [ "bang", "bang", "" ]
				}

			}
, 			{
				"box" : 				{
					"maxclass" : "newobj",
					"text" : "r jcom.init",
					"patching_rect" : [ 487.0, 140.0, 58.0, 17.0 ],
					"fontname" : "Verdana",
					"id" : "obj-6",
					"numinlets" : 0,
					"numoutlets" : 1,
					"fontsize" : 9.0,
					"outlettype" : [ "" ]
				}

			}
, 			{
				"box" : 				{
					"maxclass" : "newobj",
					"text" : "route os",
					"patching_rect" : [ 487.0, 199.0, 47.0, 17.0 ],
					"fontname" : "Verdana",
					"id" : "obj-7",
					"numinlets" : 1,
					"numoutlets" : 2,
					"fontsize" : 9.0,
					"outlettype" : [ "", "" ]
				}

			}
, 			{
				"box" : 				{
					"maxclass" : "newobj",
					"text" : "js jcom.js_systeminfo.js",
					"patching_rect" : [ 487.0, 166.0, 124.0, 17.0 ],
					"fontname" : "Verdana",
					"id" : "obj-8",
					"numinlets" : 1,
					"numoutlets" : 1,
					"fontsize" : 9.0,
					"outlettype" : [ "" ]
				}

			}
, 			{
				"box" : 				{
					"maxclass" : "newobj",
					"text" : "r jcom.init",
					"patching_rect" : [ 393.0, 76.0, 58.0, 17.0 ],
					"fontname" : "Verdana",
					"id" : "obj-9",
					"numinlets" : 0,
					"numoutlets" : 1,
					"fontsize" : 9.0,
					"outlettype" : [ "" ]
				}

			}
, 			{
				"box" : 				{
					"maxclass" : "newobj",
					"text" : "jcom.return hi\/* @description \"Data from Human Interface device.\"",
					"patching_rect" : [ 45.0, 421.0, 338.0, 17.0 ],
					"fontname" : "Verdana",
					"id" : "obj-10",
					"numinlets" : 1,
					"numoutlets" : 2,
					"fontsize" : 9.0,
					"outlettype" : [ "", "" ]
				}

			}
, 			{
				"box" : 				{
					"maxclass" : "newobj",
					"text" : "hi",
					"patching_rect" : [ 162.0, 206.0, 27.0, 17.0 ],
					"fontname" : "Verdana",
					"id" : "obj-11",
					"numinlets" : 1,
					"numoutlets" : 2,
					"fontsize" : 9.0,
					"outlettype" : [ "list", "" ]
				}

			}
, 			{
				"box" : 				{
					"maxclass" : "umenu",
					"patching_rect" : [ 14.0, 136.0, 158.0, 17.0 ],
					"fontname" : "Verdana",
					"types" : [  ],
					"id" : "obj-12",
					"numinlets" : 1,
					"numoutlets" : 3,
					"fontsize" : 9.0,
					"items" : [ "WingMan Attack 2", ",", "USB Optical Mouse", ",", "Trackpad", ",", "Keyboard" ],
					"labelclick" : 1,
					"outlettype" : [ "int", "", "" ]
				}

			}
, 			{
				"box" : 				{
					"maxclass" : "outlet",
					"patching_rect" : [ 179.0, 351.0, 15.0, 15.0 ],
					"id" : "obj-13",
					"numinlets" : 1,
					"numoutlets" : 0,
					"comment" : ""
				}

			}
, 			{
				"box" : 				{
					"maxclass" : "newobj",
					"text" : "sel 1 0",
					"patching_rect" : [ 232.0, 124.0, 41.0, 17.0 ],
					"fontname" : "Verdana",
					"id" : "obj-14",
					"numinlets" : 1,
					"numoutlets" : 3,
					"fontsize" : 9.0,
					"outlettype" : [ "bang", "bang", "" ]
				}

			}
, 			{
				"box" : 				{
					"maxclass" : "message",
					"text" : "poll 0",
					"patching_rect" : [ 247.0, 170.0, 35.0, 15.0 ],
					"fontname" : "Verdana",
					"id" : "obj-15",
					"numinlets" : 2,
					"numoutlets" : 1,
					"fontsize" : 9.0,
					"outlettype" : [ "" ]
				}

			}
, 			{
				"box" : 				{
					"maxclass" : "message",
					"text" : "poll 10",
					"patching_rect" : [ 202.0, 170.0, 41.0, 15.0 ],
					"fontname" : "Verdana",
					"id" : "obj-16",
					"numinlets" : 2,
					"numoutlets" : 1,
					"fontsize" : 9.0,
					"outlettype" : [ "" ]
				}

			}
, 			{
				"box" : 				{
					"maxclass" : "newobj",
					"text" : "jcom.oscroute \/device_menu \/hi_on \/hi_init",
					"patching_rect" : [ 165.0, 76.0, 212.0, 17.0 ],
					"fontname" : "Verdana",
					"id" : "obj-17",
					"numinlets" : 1,
					"numoutlets" : 4,
					"fontsize" : 9.0,
					"outlettype" : [ "", "", "", "" ]
				}

			}
, 			{
				"box" : 				{
					"maxclass" : "inlet",
					"patching_rect" : [ 165.0, 52.0, 15.0, 15.0 ],
					"id" : "obj-18",
					"numinlets" : 0,
					"numoutlets" : 1,
					"outlettype" : [ "" ],
					"comment" : ""
				}

			}
, 			{
				"box" : 				{
					"maxclass" : "newobj",
					"text" : "t b b",
					"patching_rect" : [ 299.0, 124.0, 30.0, 17.0 ],
					"fontname" : "Verdana",
					"id" : "obj-19",
					"numinlets" : 1,
					"numoutlets" : 2,
					"fontsize" : 9.0,
					"outlettype" : [ "bang", "bang" ]
				}

			}
, 			{
				"box" : 				{
					"maxclass" : "message",
					"text" : "menu",
					"patching_rect" : [ 299.0, 170.0, 33.0, 15.0 ],
					"fontname" : "Verdana",
					"id" : "obj-20",
					"numinlets" : 2,
					"numoutlets" : 1,
					"fontsize" : 9.0,
					"outlettype" : [ "" ]
				}

			}
, 			{
				"box" : 				{
					"maxclass" : "message",
					"text" : "info",
					"patching_rect" : [ 330.0, 170.0, 25.0, 15.0 ],
					"fontname" : "Verdana",
					"id" : "obj-21",
					"numinlets" : 2,
					"numoutlets" : 1,
					"fontsize" : 9.0,
					"outlettype" : [ "" ]
				}

			}
, 			{
				"box" : 				{
					"maxclass" : "comment",
					"text" : "It would be nice to put in some magic so that it could output some more human-friendly information, like x-axis, fire-button, etc. It would also be interesting to normalize the data, but it seems like most devices on mac return values in the range 0-255, while on windows it is often up to 64 0.",
					"linecount" : 7,
					"patching_rect" : [ 215.0, 276.0, 218.0, 80.0 ],
					"fontname" : "Verdana",
					"id" : "obj-22",
					"numinlets" : 1,
					"numoutlets" : 0,
					"fontsize" : 9.0
				}

			}
 ],
		"lines" : [ 			{
				"patchline" : 				{
					"source" : [ "obj-11", 1 ],
					"destination" : [ "obj-12", 0 ],
					"hidden" : 0,
					"midpoints" : [ 179.5, 232.0, 7.0, 232.0, 7.0, 124.0, 23.5, 124.0 ]
				}

			}
, 			{
				"patchline" : 				{
					"source" : [ "obj-17", 0 ],
					"destination" : [ "obj-12", 0 ],
					"hidden" : 0,
					"midpoints" : [ 174.5, 115.0, 23.5, 115.0 ]
				}

			}
, 			{
				"patchline" : 				{
					"source" : [ "obj-11", 0 ],
					"destination" : [ "obj-10", 0 ],
					"hidden" : 0
				}

			}
, 			{
				"patchline" : 				{
					"source" : [ "obj-12", 1 ],
					"destination" : [ "obj-11", 0 ],
					"hidden" : 0
				}

			}
, 			{
				"patchline" : 				{
					"source" : [ "obj-20", 0 ],
					"destination" : [ "obj-11", 0 ],
					"hidden" : 0,
					"midpoints" : [ 308.5, 195.0, 171.5, 195.0 ]
				}

			}
, 			{
				"patchline" : 				{
					"source" : [ "obj-21", 0 ],
					"destination" : [ "obj-11", 0 ],
					"hidden" : 0,
					"midpoints" : [ 339.5, 195.0, 171.5, 195.0 ]
				}

			}
, 			{
				"patchline" : 				{
					"source" : [ "obj-15", 0 ],
					"destination" : [ "obj-11", 0 ],
					"hidden" : 0,
					"midpoints" : [ 256.5, 195.0, 171.5, 195.0 ]
				}

			}
, 			{
				"patchline" : 				{
					"source" : [ "obj-16", 0 ],
					"destination" : [ "obj-11", 0 ],
					"hidden" : 0,
					"midpoints" : [ 211.5, 195.0, 171.5, 195.0 ]
				}

			}
, 			{
				"patchline" : 				{
					"source" : [ "obj-18", 0 ],
					"destination" : [ "obj-17", 0 ],
					"hidden" : 0
				}

			}
, 			{
				"patchline" : 				{
					"source" : [ "obj-11", 1 ],
					"destination" : [ "obj-13", 0 ],
					"hidden" : 0
				}

			}
, 			{
				"patchline" : 				{
					"source" : [ "obj-14", 0 ],
					"destination" : [ "obj-16", 0 ],
					"hidden" : 0
				}

			}
, 			{
				"patchline" : 				{
					"source" : [ "obj-17", 1 ],
					"destination" : [ "obj-14", 0 ],
					"hidden" : 0
				}

			}
, 			{
				"patchline" : 				{
					"source" : [ "obj-14", 1 ],
					"destination" : [ "obj-15", 0 ],
					"hidden" : 0
				}

			}
, 			{
				"patchline" : 				{
					"source" : [ "obj-9", 0 ],
					"destination" : [ "obj-19", 0 ],
					"hidden" : 0,
					"midpoints" : [ 402.5, 120.0, 308.5, 120.0 ]
				}

			}
, 			{
				"patchline" : 				{
					"source" : [ "obj-17", 2 ],
					"destination" : [ "obj-19", 0 ],
					"hidden" : 0
				}

			}
, 			{
				"patchline" : 				{
					"source" : [ "obj-19", 0 ],
					"destination" : [ "obj-20", 0 ],
					"hidden" : 0
				}

			}
, 			{
				"patchline" : 				{
					"source" : [ "obj-19", 1 ],
					"destination" : [ "obj-21", 0 ],
					"hidden" : 0
				}

			}
, 			{
				"patchline" : 				{
					"source" : [ "obj-6", 0 ],
					"destination" : [ "obj-8", 0 ],
					"hidden" : 0
				}

			}
, 			{
				"patchline" : 				{
					"source" : [ "obj-8", 0 ],
					"destination" : [ "obj-7", 0 ],
					"hidden" : 0
				}

			}
, 			{
				"patchline" : 				{
					"source" : [ "obj-7", 0 ],
					"destination" : [ "obj-5", 0 ],
					"hidden" : 0
				}

			}
, 			{
				"patchline" : 				{
					"source" : [ "obj-5", 0 ],
					"destination" : [ "obj-4", 0 ],
					"hidden" : 0
				}

			}
, 			{
				"patchline" : 				{
					"source" : [ "obj-3", 0 ],
					"destination" : [ "obj-2", 0 ],
					"hidden" : 0
				}

			}
, 			{
				"patchline" : 				{
					"source" : [ "obj-4", 0 ],
					"destination" : [ "obj-2", 0 ],
					"hidden" : 0
				}

			}
, 			{
				"patchline" : 				{
					"source" : [ "obj-2", 0 ],
					"destination" : [ "obj-1", 1 ],
					"hidden" : 0
				}

			}
, 			{
				"patchline" : 				{
					"source" : [ "obj-5", 1 ],
					"destination" : [ "obj-3", 0 ],
					"hidden" : 0
				}

			}
 ]
	}

}
