max v2;#N vpatcher 43 57 1047 604;#P window setfont "Sans Serif" 9.;#P window linecount 1;#P hidden message 90 98 191 196617 /preset/store 1 default \, /preset/write;#B color 3;#P hidden message 229 120 31 196617 /init;#P comment 103 40 80 196617 Roll-off (dB);#B frgb 172 172 172;#P flonum 185 38 40 9 1. 6. 8227 3 198 198 198 221 221 221 222 222 222 0 0 0;#P objectname RollOff;#P window linecount 2;#P hidden newex 556 240 349 196617 jcom.parameter roll_off @type msg_float  @repetitions 0 @range 1. 6. @range/clipmode both @description "Roll-off in dB per doubling of distance.";#P objectname meters_per_unit[1];#P window linecount 1;#P hidden newex 556 218 65 196617 pvar RollOff;#P hidden newex 146 199 43 196617 jcom.in;#P window linecount 2;#P hidden newex 556 154 399 196617 jcom.parameter reference_distance @type msg_float  @repetitions 0 @range 0.15 10. @range/clipmode low @description "Reference distance used to calculate roll-off.";#P objectname meters_per_unit;#P window linecount 1;#P hidden newex 556 131 117 196617 pvar ReferenceDistance;#P flonum 185 20 40 9 0. 10. 8227 3 198 198 198 221 221 221 222 222 222 0 0 0;#P objectname ReferenceDistance;#P comment 103 22 80 196617 Reference dist.;#B frgb 172 172 172;#P hidden newex 146 220 84 196617 jcom.pass open;#P hidden newex 146 245 47 196617 pcontrol;#P hidden message 236 241 20 196617 \$2;#P hidden newex 236 220 72 196617 route mute;#P hidden newex 236 260 38 196617 mute~;#P hidden message 101 120 125 196617 /documentation/generate;#P window linecount 2;#P hidden newex 556 80 350 196617 jcom.parameter audio/mute @type msg_toggle @description "When active\\\, this attribute turns off the module's processingorithm to save CPU";#P objectname audio/mute;#P window linecount 1;#P hidden newex 556 58 56 196617 pvar Mute;#P objectname jcom.parameter;#P user pictctrl 238 4 11 11 jcom.button.mute.pct 0 0 1 1 26 0 0 0 11 11 128 0 1 10 2 1 1 270;#P objectname Mute;#P hidden outlet 236 384 13 0;#P hidden inlet 359 320 13 0;#P window linecount 2;#P hidden newex 556 373 349 196617 jcom.message aed @type msg_list @description "List describing index (counting from 1)\\\, azimuth\\\, elevation\\\, distance for one speaker.";#P window linecount 1;#P comment 4 22 41 196617 Voices;#B frgb 172 172 172;#P hidden newex 556 295 63 196617 pvar Voices;#P window linecount 3;#P hidden newex 556 320 365 196617 jcom.parameter voices @type msg_int  @repetitions 0 @range 1 16 @range/clipmode both @description "The number of audio channels that the ambisonic signal is diffused to. Changes only take effect when audio is off.";#P objectname voices;#P window linecount 2;#P hidden message 25 485 65 196617 \; max refresh;#P window linecount 1;#P hidden comment 14 121 79 196617 command input;#P hidden inlet 0 121 13 0;#P window linecount 2;#P hidden message 25 453 72 196617 \; jcom.init bang;#P window linecount 1;#P hidden newex 236 350 104 196617 jalg.sur.rolloff~;#P hidden comment 311 304 155 196617 ----multicable signal input----;#P hidden outlet 0 237 13 0;#P hidden comment 253 384 146 196617 ---multicable signal output---;#P window linecount 2;#P hidden newex 0 140 333 196617 jcom.hub jmod.sur.rolloff~ @size 1U-half @module_type audio.no_panel @description "Free-field amplitude roll-of with distance.";#P objectname jcom.hub;#P number 46 20 35 9 1 16 8227 3 198 198 198 221 221 221 222 222 222 0 0 0;#P objectname Voices;#P bpatcher 0 0 256 60 0 0 jcom.gui 0;#P objectname jcom.gui.1Uh.a.stereo;#P hidden fasten 35 0 2 0 234 137 5 137;#P hidden fasten 36 0 2 0 95 137 5 137;#P hidden fasten 20 0 2 0 106 137 5 137;#P hidden connect 8 0 2 0;#P hidden connect 2 0 4 0;#P hidden connect 30 0 25 0;#P hidden connect 25 0 24 0;#P hidden connect 25 1 22 0;#P hidden connect 22 0 23 0;#P hidden connect 23 0 21 0;#P hidden fasten 22 1 6 0 303 293 241 293;#P hidden fasten 24 0 6 0 151 306 241 306;#P hidden connect 21 0 6 0;#P hidden connect 6 0 16 0;#P hidden fasten 15 0 6 1 364 340 335 340;#P hidden fasten 19 0 18 0 561 113 550 113 550 53 561 53;#P hidden connect 18 0 19 0;#P hidden fasten 29 0 28 0 561 187 551 187 551 126 561 126;#P hidden connect 28 0 29 0;#P hidden fasten 32 0 31 0 561 273 552 273 552 213 561 213;#P hidden connect 31 0 32 0;#P hidden fasten 11 0 12 0 561 365 551 365 551 288 561 288;#P hidden connect 12 0 11 0;#P pop;