max v2;#N vpatcher 249 44 732 458;#P origin 10 16;#P window setfont "Sans Serif" 9.;#P window linecount 1;#N vpatcher 259 132 430 285;#P outlet 55 72 15 0;#P inlet 55 30 15 0;#P connect 0 0 1 0;#P pop;#P newobj 55 107 37 196617 p thru;#P comment 67 359 65 196617 Dump output;#N vpatcher 576 77 1026 431;#P window setfont "Sans Serif" 9.;#P newex 37 48 108 196617 jcom.oscroute /synth;#P newex 203 212 122 196617 pak dim 320 240;#P message 37 213 72 196617 planecount \$1;#P number 141 139 26 9 0 0 0 3 0 0 0 221 221 221 222 222 222 0 0 0;#P toggle 71 139 15 0;#P newex 71 163 80 196617 qmetro 2;#P newex 37 246 121 196617 jit.noise 1 char 320 240;#P newex 37 85 381 196617 jcom.oscroute /noise/planes /noise/on /noise/rate /noise/size/x /noise/size/y;#P inlet 37 21 15 0;#P outlet 37 301 15 0;#P connect 1 0 9 0;#P connect 9 0 2 0;#P connect 2 0 7 0;#P connect 4 0 3 0;#P fasten 8 0 3 0 208 238 42 238;#P connect 7 0 3 0;#P connect 3 0 0 0;#P fasten 2 1 4 0 116 158 76 158;#P connect 5 0 4 0;#P fasten 2 2 4 1 190 159 146 159;#P connect 6 0 4 1;#P connect 2 3 8 1;#P connect 2 4 8 2;#P pop;#P newobj 313 179 117 196617 p video-synthesis-stuff;#N vpatcher 80 112 918 696;#P origin 0 -18;#P window setfont "Sans Serif" 9.;#P window linecount 1;#P newex 116 65 84 196617 jcom.pass /read;#P newex 116 43 98 196617 jcom.oscroute /file;#P window linecount 0;#P newex 718 246 54 196617 jcom.thru;#P message 718 157 88 196617 cancelframedump;#P newex 654 125 41 196617 sel 1 0;#P message 654 157 60 196617 framedump;#P newex 596 191 93 196617 prepend looppoints;#P newex 23 284 86 196617 r global_tomovie;#P newex 14 262 73 196617 r $0_tomovie;#N vpatcher 267 140 529 307;#P window setfont "Sans Serif" 9.;#P newex 50 50 164 196617 jcom.pass read moviedim duration;#P newex 50 87 32 196617 print;#P inlet 50 30 15 0;#P connect 0 0 2 0;#P fasten 2 2 1 0 157 77 55 77;#P fasten 2 1 1 0 106 77 55 77;#P connect 2 0 1 0;#P pop;#P newobj 470 369 67 196617 p print-stuff;#P button 332 194 15 0;#P newex 332 214 91 196617 pack dim 320 240;#P toggle 549 152 15 0;#P flonum 549 170 35 9 0 0 0 3 0 0 0 221 221 221 222 222 222 0 0 0;#P message 538 191 39 196617 vol \$1;#P newex 322 369 118 196617 jcom.pass time duration;#P newex 322 418 54 196617 jcom.thru;#P newex 151 455 54 196617 jcom.thru;#P window linecount 2;#P newex 151 402 69 196617 t getduration getmoviedim;#P window linecount 1;#P newex 151 369 156 196617 route read moviedim framedump;#P newex 182 302 51 196617 t gettime;#P newex 182 280 49 196617 qlim 250;#P newex 332 170 65 196617 route native;#P flonum 493 170 35 9 0 0 0 3 0 0 0 221 221 221 222 222 222 0 0 0;#P message 480 191 45 196617 time \$1;#P flonum 435 170 35 9 0 0 0 3 0 0 0 221 221 221 222 222 222 0 0 0;#P message 422 191 44 196617 rate \$1;#P toggle 290 174 15 0;#P message 277 195 43 196617 loop \$1;#P newex 218 206 45 196617 t stop 0;#P newex 203 184 49 196617 t 1 start;#P newex 203 161 41 196617 sel 1 0;#P toggle 215 141 15 0;#P newex 203 246 51 196617 qmetro 2;#P user umenu 332 147 62 196647 1 64 163 1;#X add native size;#X add 640 480;#X add 320 240;#X add 160 120;#X add 80 60;#P objectname file_size;#P newex 346 246 64 196617 prepend dim;#P newex 116 332 125 196617 jit.qt.movie @autostart 0;#P newex 190 90 533 196617 jcom.oscroute /read /on /loop /size /rate /counter /audio /loop_points /framedump;#P inlet 116 21 15 0;#P outlet 116 530 15 0;#P outlet 322 530 15 0;#P connect 2 0 39 0;#P connect 39 0 40 0;#P fasten 7 0 4 0 208 272 121 272;#P fasten 23 0 4 0 156 484 97 422 97 307;#P fasten 29 0 4 0 337 272 121 272;#P fasten 26 0 4 0 543 272 121 272;#P fasten 5 0 4 0 351 272 121 272;#P fasten 12 0 4 0 282 272 121 272;#P fasten 14 0 4 0 427 272 121 272;#P fasten 16 0 4 0 485 272 121 272;#P fasten 20 0 4 0 187 325 121 325;#P connect 10 1 4 0;#P connect 11 0 4 0;#P fasten 33 0 4 0 28 318 121 318;#P fasten 32 0 4 0 19 331 121 331;#P fasten 38 0 4 0 723 272 121 272;#P connect 40 0 4 0;#P connect 4 0 1 0;#P fasten 4 1 21 0 236 358 156 358;#P connect 21 0 22 0;#P connect 22 0 23 0;#P connect 22 1 23 0;#P connect 7 0 19 0;#P connect 19 0 20 0;#P connect 40 1 3 0;#P fasten 8 0 9 0 220 158 208 158;#P fasten 3 1 9 0 253 134 208 134;#P connect 9 0 10 0;#P connect 10 0 7 0;#P connect 11 1 7 0;#P connect 9 1 11 0;#P fasten 13 0 12 0 295 192 282 192;#P fasten 3 2 12 0 311 151 282 151;#P fasten 4 1 25 0 236 358 327 358;#P fasten 25 1 24 0 381 402 327 402;#P connect 25 0 24 0;#P connect 24 0 0 0;#P connect 3 3 6 0;#P fasten 6 1 18 0 389 166 337 166;#P connect 18 0 30 0;#P connect 30 0 29 0;#P fasten 18 1 5 0 392 238 351 238;#P connect 21 1 29 1;#P lcolor 4;#P fasten 15 0 14 0 440 188 427 188;#P connect 3 4 14 0;#P fasten 4 1 31 0 236 358 475 358;#P fasten 17 0 16 0 498 188 485 188;#P connect 3 5 16 0;#P fasten 27 0 26 0 554 188 543 188;#P connect 3 6 26 0;#P connect 28 0 27 0;#P connect 3 7 34 0;#P connect 3 8 36 0;#P connect 36 0 35 0;#P fasten 36 1 37 0 674 149 723 149;#P fasten 34 0 38 0 601 225 723 225;#P fasten 35 0 38 0 659 180 723 180;#P connect 37 0 38 0;#P pop;#P newobj 195 179 89 196617 p video-file-stuff;#N vpatcher 184 44 817 666;#P origin 185 -25;#P window setfont "Sans Serif" 9.;#P window linecount 1;#P newex 12 234 68 196617 t getinputlist;#P window linecount 0;#P newex 72 44 116 196617 jcom.oscroute /camera;#P newex 365 136 48 196617 loadbang;#P newex 302 136 58 196617 r jcom.init;#P newex 374 565 70 196617 s $1_camera;#P objectname thru2[2];#P newex 219 565 66 196617 s $1_device;#P objectname thru2[1];#P outlet 131 565 15 0;#P inlet 72 22 15 0;#N vpatcher 20 74 179 221;#P outlet 34 68 15 0;#P inlet 34 39 15 0;#P connect 0 0 1 0;#P pop;#P newobj 219 391 43 196617 p thru3;#P objectname thru3;#N vpatcher 20 74 179 221;#P outlet 34 68 15 0;#P inlet 34 39 15 0;#P connect 0 0 1 0;#P pop;#P newobj 131 391 43 196617 p thru2;#P objectname thru2;#P user umenu 212 135 52 196647 1 64 151 1;#X add 640 480;#X add 320 240;#X add 160 120;#X add 80 60;#P objectname camera_size;#P newex 212 157 64 196617 prepend dim;#P newex 302 162 54 196617 onebang 1;#P newex 73 166 49 196617 t close 0;#P newex 21 142 46 196617 t 1 open;#P newex 22 118 113 196617 sel 1 0;#P newex 219 444 25 196617 iter;#P newex 314 465 38 196617 t clear;#P newex 452 465 38 196617 t clear;#P message 374 510 45 196617 input \$1;#P user ubumenu 374 489 145 196617 0 1 1 0;#X prefix_set 0 0 <none> 0;#X pattrmode 1;#P newex 374 465 75 196617 prepend append;#P newex 374 444 25 196617 iter;#P message 219 510 58 196617 vdevice \$1;#P user ubumenu 219 489 145 196617 0 1 1 0;#X add "DVCPRO HD (1080i50)";#X add "DVCPRO HD (1080i60)";#X add "DVCPRO HD (720p60)";#X add "DV Video";#X add "IIDC FireWire Video";#X add "USB Video Class Video";#X prefix_set 0 0 <none> 0;#X pattrmode 1;#P newex 219 465 75 196617 prepend append;#P newex 219 414 112 196617 route vdevlist inputlist;#P message 302 202 59 196617 getvdevlist;#P message 142 161 44 196617 settings;#N vpatcher 20 74 179 221;#P outlet 34 68 15 0;#P inlet 34 39 15 0;#P connect 0 0 1 0;#P pop;#P newobj 131 252 43 196617 p thru1;#P objectname thru1;#P toggle 34 97 15 0;#P newex 21 196 51 196617 qmetro 2;#P objectname qmetro;#P newex 72 69 364 196617 jcom.oscroute /on /settings /size /device /camera;#N vpatcher 607 201 1020 515;#P window setfont "Sans Serif" 9.;#P window linecount 1;#P message 50 227 165 196617 script connect qmetro 0 grabber 0;#P window linecount 0;#P newex 92 110 88 196617 append 320 240;#P newex 92 88 262 196617 prepend script new grabber newex 107 304 98 196617;#P message 50 198 158 196617 script connect grabber 1 thru3 0;#P message 64 178 158 196617 script connect grabber 0 thru2 0;#P message 78 158 158 196617 script connect thru1 0 grabber 0;#P newex 50 50 53 196617 t b b b s;#P inlet 50 20 15 0;#P outlet 50 279 15 0;#P connect 1 0 2 0;#P connect 2 0 5 0;#P connect 2 0 8 0;#P connect 8 0 0 0;#P connect 3 0 0 0;#P connect 4 0 0 0;#P connect 7 0 0 0;#P connect 5 0 0 0;#P connect 2 1 4 0;#P connect 2 2 3 0;#P connect 2 3 6 0;#P connect 6 0 7 0;#P pop;#P newobj 500 102 85 196617 p script-grabber;#N vpatcher 796 44 1196 390;#P window setfont "Sans Serif" 9.;#P message 168 121 14 196617 1;#P message 122 121 34 196617 2047;#P newex 113 50 45 196617 loadbang;#P newex 50 75 51 196617 onebang 1;#P newex 273 156 28 196617 sel 0;#P newex 273 187 87 196617 print grab.ERROR;#P comment 57 177 21 196617 win;#P newex 127 200 67 196617 t jit.qt.grab;#P newex 50 200 69 196617 t jit.dx.grab;#P message 50 98 30 196617 sysv;#P newex 50 156 87 196617 split 1 2047;#P newex 50 121 36 196617 gestalt;#P newex 50 50 58 196617 r jcom.init;#P comment 139 177 26 196617 mac;#P outlet 50 261 15 0;#P fasten 12 0 11 0 118 71 55 71;#P connect 2 0 11 0;#P connect 11 0 5 0;#P connect 5 0 3 0;#P connect 13 0 4 0;#P connect 14 0 4 0;#P connect 3 0 4 0;#P connect 4 0 6 0;#P connect 7 0 0 0;#P connect 6 0 0 0;#P connect 4 1 7 0;#P fasten 3 1 10 0 81 146 278 146;#P connect 10 1 9 0;#P pop;#P newobj 500 66 81 196617 p check-system;#P window linecount 1;#N thispatcher;#Q end;#P newobj 500 139 68 196617 thispatcher;#P fasten 21 0 35 0 26 164 17 164;#P connect 20 0 21 0;#P fasten 22 1 4 0 117 189 26 189;#P connect 21 0 4 0;#P fasten 3 0 20 0 77 94 27 94;#P connect 5 0 20 0;#P connect 28 0 34 0;#P connect 34 0 3 0;#P connect 20 1 22 0;#P fasten 16 0 6 0 379 532 551 532 551 246 136 246;#P fasten 12 0 6 0 224 539 551 539 551 246 136 246;#P fasten 8 0 6 0 307 233 136 233;#P fasten 7 0 6 0 147 214 136 214;#P connect 22 0 6 0;#P fasten 24 0 6 0 217 213 136 213;#P connect 21 1 6 0;#P connect 35 0 6 0;#P connect 26 0 29 0;#P connect 3 1 7 0;#P connect 3 2 25 0;#P fasten 25 1 24 0 259 154 217 154;#P connect 27 0 9 0;#P connect 9 0 19 0;#P connect 19 0 10 0;#P fasten 18 0 11 0 319 485 224 485;#P connect 10 0 11 0;#P connect 3 3 11 0;#P connect 11 0 12 0;#P connect 18 0 30 0;#P connect 10 0 30 0;#P fasten 33 0 23 0 370 157 307 157;#P connect 32 0 23 0;#P connect 23 0 8 0;#P fasten 9 0 18 0 224 438 319 438;#P fasten 9 1 13 0 275 434 379 434;#P connect 13 0 14 0;#P fasten 17 0 15 0 457 485 379 485;#P connect 14 0 15 0;#P connect 3 4 15 0;#P connect 15 0 16 0;#P connect 17 0 31 0;#P connect 14 0 31 0;#P fasten 9 1 17 0 275 434 457 434;#P connect 1 0 2 0;#P connect 2 0 0 0;#P pop;#P newobj 55 179 109 196617 p video-grabber-stuff;#N vpatcher 310 207 799 559;#P outlet 149 293 15 0;#P window setfont "Sans Serif" 9.;#P window linecount 1;#P newex 215 93 32 196617 sel 1;#P newex 135 93 32 196617 sel 1;#P message 54 215 74 196617 /camera_on 0;#P message 207 215 95 196617 /synth_noise_on 0;#P message 131 215 56 196617 /file_on 0;#P newex 55 93 32 196617 sel 1;#P newex 55 60 280 196617 jcom.oscroute /camera_on /file_on /synth_noise_on;#P inlet 55 30 15 0;#P window linecount 8;#P comment 341 115 100 196617 Not very elegant \, but this ensures that only one metro is running at a time. This was easier to implement than trying to have one main metro.;#P connect 7 0 6 0;#P connect 8 0 6 0;#P connect 1 0 2 0;#P connect 2 0 3 0;#P connect 3 0 4 0;#P connect 8 0 4 0;#P connect 2 1 7 0;#P connect 6 0 9 0;#P connect 4 0 9 0;#P connect 5 0 9 0;#P connect 3 0 5 0;#P connect 7 0 5 0;#P connect 2 2 8 0;#P pop;#P newobj 83 67 92 196617 p turn-off-metros;#P inlet 55 37 15 0;#P comment 189 359 65 196617 Video output;#N comlet video output;#P outlet 195 339 15 0;#P outlet 84 339 15 0;#P connect 3 0 9 0;#P connect 4 0 9 0;#P connect 9 0 5 0;#P connect 3 0 4 0;#P connect 6 1 0 0;#P connect 9 0 6 0;#P connect 7 0 1 0;#P connect 6 0 1 0;#P connect 5 0 1 0;#P connect 9 0 7 0;#P pop;