{
	"patcher" : 	{
		"fileversion" : 1,
		"rect" : [ 52.0, 44.0, 1228.0, 730.0 ],
		"bglocked" : 0,
		"defrect" : [ 52.0, 44.0, 1228.0, 730.0 ],
		"openrect" : [ 0.0, 0.0, 0.0, 0.0 ],
		"openinpresentation" : 1,
		"default_fontsize" : 10.970939,
		"default_fontface" : 0,
		"default_fontname" : "Verdana",
		"gridonopen" : 0,
		"gridsize" : [ 5.0, 5.0 ],
		"gridsnaponopen" : 0,
		"toolbarvisible" : 1,
		"boxanimatetime" : 200,
		"imprint" : 0,
		"metadata" : [  ],
		"boxes" : [ 			{
				"box" : 				{
					"maxclass" : "textbutton",
					"varname" : "synth_noise_on",
					"prototypename" : "jamoma audio",
					"texton" : "noise",
					"fontsize" : 10.0,
					"presentation_rect" : [ 12.780001, 257.783295, 35.956345, 15.0 ],
					"mode" : 1,
					"numinlets" : 1,
					"border" : 1,
					"patching_rect" : [ 32.0, 608.265015, 28.508503, 15.933016 ],
					"text" : "noise",
					"numoutlets" : 3,
					"presentation" : 1,
					"id" : "obj-37",
					"fontname" : "Verdana",
					"rounded" : 8.0,
					"outlettype" : [ "", "", "int" ]
				}

			}
, 			{
				"box" : 				{
					"maxclass" : "textbutton",
					"varname" : "synth_color_on_but",
					"prototypename" : "jamoma audio",
					"texton" : "color",
					"fontsize" : 10.0,
					"presentation_rect" : [ 12.780001, 373.995331, 35.956345, 15.0 ],
					"mode" : 1,
					"numinlets" : 1,
					"border" : 1,
					"patching_rect" : [ 32.0, 677.392883, 26.642473, 15.933016 ],
					"text" : "color",
					"numoutlets" : 3,
					"presentation" : 1,
					"id" : "obj-24",
					"fontname" : "Verdana",
					"rounded" : 8.0,
					"outlettype" : [ "", "", "int" ]
				}

			}
, 			{
				"box" : 				{
					"maxclass" : "textbutton",
					"varname" : "file_audio",
					"prototypename" : "jamoma audio",
					"texton" : "audio",
					"fontsize" : 10.0,
					"presentation_rect" : [ 79.0, 126.0, 35.956345, 15.0 ],
					"mode" : 1,
					"numinlets" : 1,
					"border" : 1,
					"patching_rect" : [ 660.0, 863.562744, 42.503723, 15.933016 ],
					"text" : "audio",
					"numoutlets" : 3,
					"presentation" : 1,
					"id" : "obj-22",
					"fontname" : "Verdana",
					"rounded" : 8.0,
					"outlettype" : [ "", "", "int" ]
				}

			}
, 			{
				"box" : 				{
					"maxclass" : "textbutton",
					"varname" : "file_open",
					"prototypename" : "jamoma open",
					"texton" : "recording",
					"fontsize" : 9.0,
					"presentation_rect" : [ 1.931239, 125.0, 30.266159, 15.000001 ],
					"numinlets" : 1,
					"border" : 1,
					"patching_rect" : [ 660.0, 696.744507, 28.017475, 15.000001 ],
					"text" : "open",
					"numoutlets" : 3,
					"presentation" : 1,
					"id" : "obj-20",
					"fontname" : "Verdana",
					"rounded" : 8.0,
					"outlettype" : [ "", "", "int" ]
				}

			}
, 			{
				"box" : 				{
					"maxclass" : "textbutton",
					"varname" : "file_on",
					"prototypename" : "jamoma on/off",
					"texton" : "off",
					"fontsize" : 10.0,
					"presentation_rect" : [ 31.819288, 125.0, 20.461647, 15.0 ],
					"mode" : 1,
					"numinlets" : 1,
					"border" : 1,
					"patching_rect" : [ 660.0, 762.886536, 21.466906, 15.933016 ],
					"text" : "on",
					"numoutlets" : 3,
					"presentation" : 1,
					"id" : "obj-19",
					"fontname" : "Verdana",
					"rounded" : 8.0,
					"outlettype" : [ "", "", "int" ]
				}

			}
, 			{
				"box" : 				{
					"maxclass" : "textbutton",
					"varname" : "camera_on",
					"prototypename" : "jamoma on off",
					"texton" : "off",
					"fontsize" : 10.0,
					"presentation_rect" : [ 13.978568, 25.000206, 22.964277, 15.0 ],
					"mode" : 1,
					"numinlets" : 1,
					"border" : 1,
					"patching_rect" : [ 661.040649, 443.821198, 21.466906, 15.933016 ],
					"text" : "on",
					"numoutlets" : 3,
					"presentation" : 1,
					"id" : "obj-8",
					"fontname" : "Verdana",
					"rounded" : 8.0,
					"outlettype" : [ "", "", "int" ]
				}

			}
, 			{
				"box" : 				{
					"maxclass" : "textbutton",
					"varname" : "camera_settings",
					"prototypename" : "jamoma settings",
					"texton" : "recording",
					"fontsize" : 10.0,
					"presentation_rect" : [ 40.0, 25.0, 49.287197, 15.000001 ],
					"numinlets" : 1,
					"border" : 1,
					"patching_rect" : [ 661.040649, 379.20813, 39.287197, 15.000001 ],
					"text" : "settings",
					"numoutlets" : 3,
					"presentation" : 1,
					"id" : "obj-6",
					"fontname" : "Verdana",
					"rounded" : 8.0,
					"outlettype" : [ "", "", "int" ]
				}

			}
, 			{
				"box" : 				{
					"maxclass" : "newobj",
					"text" : "r #1_noise_off",
					"fontsize" : 9.873845,
					"numinlets" : 0,
					"patching_rect" : [ 133.0, 611.0, 82.0, 18.0 ],
					"numoutlets" : 1,
					"id" : "obj-1",
					"fontname" : "Verdana",
					"outlettype" : [ "" ]
				}

			}
, 			{
				"box" : 				{
					"maxclass" : "newobj",
					"text" : "r #1_file_off",
					"fontsize" : 9.873845,
					"numinlets" : 0,
					"patching_rect" : [ 725.0, 761.0, 71.0, 18.0 ],
					"numoutlets" : 1,
					"id" : "obj-2",
					"fontname" : "Verdana",
					"outlettype" : [ "" ]
				}

			}
, 			{
				"box" : 				{
					"maxclass" : "newobj",
					"text" : "r #1_camera_off",
					"fontsize" : 9.873845,
					"numinlets" : 0,
					"patching_rect" : [ 747.0, 444.0, 93.0, 18.0 ],
					"numoutlets" : 1,
					"id" : "obj-3",
					"fontname" : "Verdana",
					"outlettype" : [ "" ]
				}

			}
, 			{
				"box" : 				{
					"maxclass" : "newobj",
					"text" : "p offsets_etc",
					"fontsize" : 9.873845,
					"numinlets" : 1,
					"patching_rect" : [ 245.0, 51.0, 72.0, 18.0 ],
					"numoutlets" : 1,
					"id" : "obj-4",
					"fontname" : "Verdana",
					"outlettype" : [ "" ],
					"patcher" : 					{
						"fileversion" : 1,
						"rect" : [ 557.0, 328.0, 676.0, 350.0 ],
						"bglocked" : 0,
						"defrect" : [ 557.0, 328.0, 676.0, 350.0 ],
						"openrect" : [ 0.0, 0.0, 0.0, 0.0 ],
						"openinpresentation" : 0,
						"default_fontsize" : 10.0,
						"default_fontface" : 0,
						"default_fontname" : "Verdana",
						"gridonopen" : 0,
						"gridsize" : [ 5.0, 5.0 ],
						"gridsnaponopen" : 0,
						"toolbarvisible" : 1,
						"boxanimatetime" : 200,
						"imprint" : 0,
						"metadata" : [  ],
						"boxes" : [ 							{
								"box" : 								{
									"maxclass" : "newobj",
									"text" : "sel 0 1 2",
									"fontsize" : 9.873845,
									"numinlets" : 1,
									"patching_rect" : [ 50.0, 64.0, 243.0, 18.0 ],
									"numoutlets" : 4,
									"id" : "obj-1",
									"fontname" : "Verdana",
									"outlettype" : [ "bang", "bang", "bang", "" ]
								}

							}
, 							{
								"box" : 								{
									"maxclass" : "newobj",
									"text" : "s #1_noise_off",
									"fontsize" : 9.873845,
									"numinlets" : 1,
									"patching_rect" : [ 505.0, 199.0, 89.0, 18.0 ],
									"numoutlets" : 0,
									"id" : "obj-2",
									"fontname" : "Verdana"
								}

							}
, 							{
								"box" : 								{
									"maxclass" : "newobj",
									"text" : "s #1_file_off",
									"fontsize" : 9.873845,
									"numinlets" : 1,
									"patching_rect" : [ 403.0, 199.0, 100.0, 18.0 ],
									"numoutlets" : 0,
									"id" : "obj-3",
									"fontname" : "Verdana"
								}

							}
, 							{
								"box" : 								{
									"maxclass" : "newobj",
									"text" : "s #1_camera_off",
									"fontsize" : 9.873845,
									"numinlets" : 1,
									"patching_rect" : [ 301.0, 199.0, 99.0, 18.0 ],
									"numoutlets" : 0,
									"id" : "obj-4",
									"fontname" : "Verdana"
								}

							}
, 							{
								"box" : 								{
									"maxclass" : "newobj",
									"text" : "t b 0",
									"fontsize" : 9.873845,
									"numinlets" : 1,
									"patching_rect" : [ 204.0, 109.0, 32.0, 18.0 ],
									"numoutlets" : 2,
									"id" : "obj-5",
									"fontname" : "Verdana",
									"outlettype" : [ "bang", "int" ]
								}

							}
, 							{
								"box" : 								{
									"maxclass" : "newobj",
									"text" : "t b 0",
									"fontsize" : 9.873845,
									"numinlets" : 1,
									"patching_rect" : [ 127.0, 109.0, 32.0, 18.0 ],
									"numoutlets" : 2,
									"id" : "obj-6",
									"fontname" : "Verdana",
									"outlettype" : [ "bang", "int" ]
								}

							}
, 							{
								"box" : 								{
									"maxclass" : "newobj",
									"text" : "t b 0",
									"fontsize" : 9.873845,
									"numinlets" : 1,
									"patching_rect" : [ 50.0, 109.0, 32.0, 18.0 ],
									"numoutlets" : 2,
									"id" : "obj-7",
									"fontname" : "Verdana",
									"outlettype" : [ "bang", "int" ]
								}

							}
, 							{
								"box" : 								{
									"maxclass" : "message",
									"text" : "offset 0 -240",
									"fontsize" : 9.873845,
									"numinlets" : 2,
									"patching_rect" : [ 204.0, 199.0, 73.0, 16.0 ],
									"numoutlets" : 1,
									"id" : "obj-8",
									"fontname" : "Verdana",
									"outlettype" : [ "" ]
								}

							}
, 							{
								"box" : 								{
									"maxclass" : "message",
									"text" : "offset 0 -120",
									"fontsize" : 9.873845,
									"numinlets" : 2,
									"patching_rect" : [ 127.0, 199.0, 73.0, 16.0 ],
									"numoutlets" : 1,
									"id" : "obj-9",
									"fontname" : "Verdana",
									"outlettype" : [ "" ]
								}

							}
, 							{
								"box" : 								{
									"maxclass" : "message",
									"text" : "offset 0 -19",
									"fontsize" : 9.873845,
									"numinlets" : 2,
									"patching_rect" : [ 50.0, 199.0, 67.0, 16.0 ],
									"numoutlets" : 1,
									"id" : "obj-10",
									"fontname" : "Verdana",
									"outlettype" : [ "" ]
								}

							}
, 							{
								"box" : 								{
									"maxclass" : "inlet",
									"numinlets" : 0,
									"patching_rect" : [ 50.0, 30.0, 15.0, 15.0 ],
									"numoutlets" : 1,
									"id" : "obj-11",
									"outlettype" : [ "" ],
									"comment" : ""
								}

							}
, 							{
								"box" : 								{
									"maxclass" : "outlet",
									"numinlets" : 1,
									"patching_rect" : [ 50.0, 235.0, 15.0, 15.0 ],
									"numoutlets" : 0,
									"id" : "obj-12",
									"comment" : ""
								}

							}
 ],
						"lines" : [ 							{
								"patchline" : 								{
									"source" : [ "obj-11", 0 ],
									"destination" : [ "obj-1", 0 ],
									"hidden" : 0,
									"midpoints" : [  ]
								}

							}
, 							{
								"patchline" : 								{
									"source" : [ "obj-1", 0 ],
									"destination" : [ "obj-7", 0 ],
									"hidden" : 0,
									"midpoints" : [  ]
								}

							}
, 							{
								"patchline" : 								{
									"source" : [ "obj-7", 0 ],
									"destination" : [ "obj-10", 0 ],
									"hidden" : 0,
									"midpoints" : [  ]
								}

							}
, 							{
								"patchline" : 								{
									"source" : [ "obj-8", 0 ],
									"destination" : [ "obj-12", 0 ],
									"hidden" : 0,
									"midpoints" : [  ]
								}

							}
, 							{
								"patchline" : 								{
									"source" : [ "obj-9", 0 ],
									"destination" : [ "obj-12", 0 ],
									"hidden" : 0,
									"midpoints" : [  ]
								}

							}
, 							{
								"patchline" : 								{
									"source" : [ "obj-10", 0 ],
									"destination" : [ "obj-12", 0 ],
									"hidden" : 0,
									"midpoints" : [  ]
								}

							}
, 							{
								"patchline" : 								{
									"source" : [ "obj-1", 1 ],
									"destination" : [ "obj-6", 0 ],
									"hidden" : 0,
									"midpoints" : [  ]
								}

							}
, 							{
								"patchline" : 								{
									"source" : [ "obj-6", 0 ],
									"destination" : [ "obj-9", 0 ],
									"hidden" : 0,
									"midpoints" : [  ]
								}

							}
, 							{
								"patchline" : 								{
									"source" : [ "obj-1", 2 ],
									"destination" : [ "obj-5", 0 ],
									"hidden" : 0,
									"midpoints" : [  ]
								}

							}
, 							{
								"patchline" : 								{
									"source" : [ "obj-5", 0 ],
									"destination" : [ "obj-8", 0 ],
									"hidden" : 0,
									"midpoints" : [  ]
								}

							}
, 							{
								"patchline" : 								{
									"source" : [ "obj-5", 1 ],
									"destination" : [ "obj-4", 0 ],
									"hidden" : 0,
									"midpoints" : [ 226.5, 165.0, 310.5, 165.0 ]
								}

							}
, 							{
								"patchline" : 								{
									"source" : [ "obj-6", 1 ],
									"destination" : [ "obj-4", 0 ],
									"hidden" : 0,
									"midpoints" : [ 149.5, 173.0, 310.5, 173.0 ]
								}

							}
, 							{
								"patchline" : 								{
									"source" : [ "obj-5", 1 ],
									"destination" : [ "obj-3", 0 ],
									"hidden" : 0,
									"midpoints" : [ 226.5, 163.0, 412.5, 163.0 ]
								}

							}
, 							{
								"patchline" : 								{
									"source" : [ "obj-7", 1 ],
									"destination" : [ "obj-3", 0 ],
									"hidden" : 0,
									"midpoints" : [ 72.5, 182.0, 412.5, 182.0 ]
								}

							}
, 							{
								"patchline" : 								{
									"source" : [ "obj-7", 1 ],
									"destination" : [ "obj-2", 0 ],
									"hidden" : 0,
									"midpoints" : [ 72.5, 180.0, 514.5, 180.0 ]
								}

							}
, 							{
								"patchline" : 								{
									"source" : [ "obj-6", 1 ],
									"destination" : [ "obj-2", 0 ],
									"hidden" : 0,
									"midpoints" : [ 149.5, 171.0, 514.5, 171.0 ]
								}

							}
 ]
					}
,
					"saved_object_attributes" : 					{
						"default_fontname" : "Verdana",
						"globalpatchername" : "",
						"fontface" : 0,
						"default_fontsize" : 10.0,
						"fontsize" : 10.0,
						"fontname" : "Verdana",
						"default_fontface" : 0
					}

				}

			}
, 			{
				"box" : 				{
					"maxclass" : "umenu",
					"varname" : "file_loop",
					"fontsize" : 8.0,
					"align" : 1,
					"presentation_rect" : [ 53.0, 125.0, 26.0, 16.0 ],
					"items" : [ "=", ",", "=>", ",", "<=>" ],
					"labelclick" : 1,
					"numinlets" : 1,
					"patching_rect" : [ 890.0, 310.0, 84.0, 16.0 ],
					"numoutlets" : 3,
					"presentation" : 1,
					"id" : "obj-5",
					"fontname" : "Verdana",
					"types" : [  ],
					"outlettype" : [ "int", "", "" ]
				}

			}
, 			{
				"box" : 				{
					"maxclass" : "newobj",
					"varname" : "camera/camera",
					"text" : "jcom.parameter camera/camera @type msg_int @description \"Choose camera\"",
					"fontsize" : 9.873845,
					"numinlets" : 1,
					"patching_rect" : [ 660.0, 666.0, 404.0, 18.0 ],
					"numoutlets" : 3,
					"id" : "obj-7",
					"fontname" : "Verdana",
					"outlettype" : [ "", "", "" ]
				}

			}
, 			{
				"box" : 				{
					"maxclass" : "newobj",
					"varname" : "camera/device",
					"text" : "jcom.parameter camera/device @type msg_int @description \"Input device type\"",
					"fontsize" : 9.873845,
					"numinlets" : 1,
					"patching_rect" : [ 660.0, 597.0, 410.0, 18.0 ],
					"numoutlets" : 3,
					"id" : "obj-9",
					"fontname" : "Verdana",
					"outlettype" : [ "", "", "" ]
				}

			}
, 			{
				"box" : 				{
					"maxclass" : "newobj",
					"text" : "r #1_camera",
					"fontsize" : 9.873845,
					"numinlets" : 0,
					"patching_rect" : [ 660.0, 622.0, 74.0, 18.0 ],
					"numoutlets" : 1,
					"id" : "obj-10",
					"fontname" : "Verdana",
					"outlettype" : [ "" ]
				}

			}
, 			{
				"box" : 				{
					"maxclass" : "newobj",
					"text" : "r #1_device",
					"fontsize" : 9.873845,
					"numinlets" : 0,
					"patching_rect" : [ 660.0, 555.0, 68.0, 18.0 ],
					"numoutlets" : 1,
					"id" : "obj-11",
					"fontname" : "Verdana",
					"outlettype" : [ "" ]
				}

			}
, 			{
				"box" : 				{
					"maxclass" : "newobj",
					"varname" : "file/framedump",
					"text" : "jcom.parameter file/framedump @type msg_toggle @repetitions/allow 0 @description \"Turn on or off framedump of the video\"",
					"linecount" : 2,
					"fontsize" : 9.873845,
					"numinlets" : 1,
					"patching_rect" : [ 660.0, 823.0, 364.0, 30.0 ],
					"numoutlets" : 3,
					"id" : "obj-12",
					"fontname" : "Verdana",
					"outlettype" : [ "", "", "" ]
				}

			}
, 			{
				"box" : 				{
					"maxclass" : "newobj",
					"varname" : "synth/color",
					"text" : "jcom.parameter synth/color @type msg_generic @description \"List of RGB colors\"",
					"fontsize" : 9.873845,
					"numinlets" : 1,
					"patching_rect" : [ 32.0, 766.0, 417.0, 18.0 ],
					"numoutlets" : 3,
					"id" : "obj-14",
					"fontname" : "Verdana",
					"outlettype" : [ "", "", "" ]
				}

			}
, 			{
				"box" : 				{
					"maxclass" : "newobj",
					"text" : "p scale",
					"fontsize" : 9.873845,
					"numinlets" : 2,
					"patching_rect" : [ 913.0, 156.0, 43.0, 18.0 ],
					"numoutlets" : 1,
					"id" : "obj-15",
					"fontname" : "Verdana",
					"outlettype" : [ "" ],
					"patcher" : 					{
						"fileversion" : 1,
						"rect" : [ 20.0, 74.0, 186.0, 179.0 ],
						"bglocked" : 0,
						"defrect" : [ 20.0, 74.0, 186.0, 179.0 ],
						"openrect" : [ 0.0, 0.0, 0.0, 0.0 ],
						"openinpresentation" : 0,
						"default_fontsize" : 10.0,
						"default_fontface" : 0,
						"default_fontname" : "Verdana",
						"gridonopen" : 0,
						"gridsize" : [ 5.0, 5.0 ],
						"gridsnaponopen" : 0,
						"toolbarvisible" : 1,
						"boxanimatetime" : 200,
						"imprint" : 0,
						"metadata" : [  ],
						"boxes" : [ 							{
								"box" : 								{
									"maxclass" : "newobj",
									"text" : "pak 0 0",
									"fontsize" : 9.873845,
									"numinlets" : 2,
									"patching_rect" : [ 50.0, 76.0, 46.0, 18.0 ],
									"numoutlets" : 1,
									"id" : "obj-1",
									"fontname" : "Verdana",
									"outlettype" : [ "" ]
								}

							}
, 							{
								"box" : 								{
									"maxclass" : "newobj",
									"varname" : "*[3]",
									"text" : "* 100",
									"fontsize" : 9.873845,
									"numinlets" : 2,
									"patching_rect" : [ 50.0, 50.0, 38.0, 18.0 ],
									"numoutlets" : 1,
									"id" : "obj-2",
									"fontname" : "Verdana",
									"outlettype" : [ "int" ]
								}

							}
, 							{
								"box" : 								{
									"maxclass" : "newobj",
									"varname" : "*[2]",
									"text" : "* 100",
									"fontsize" : 9.873845,
									"numinlets" : 2,
									"patching_rect" : [ 92.0, 50.0, 38.0, 18.0 ],
									"numoutlets" : 1,
									"id" : "obj-3",
									"fontname" : "Verdana",
									"outlettype" : [ "int" ]
								}

							}
, 							{
								"box" : 								{
									"maxclass" : "inlet",
									"numinlets" : 0,
									"patching_rect" : [ 92.0, 30.0, 15.0, 15.0 ],
									"numoutlets" : 1,
									"id" : "obj-4",
									"outlettype" : [ "" ],
									"comment" : ""
								}

							}
, 							{
								"box" : 								{
									"maxclass" : "inlet",
									"numinlets" : 0,
									"patching_rect" : [ 50.0, 30.0, 15.0, 15.0 ],
									"numoutlets" : 1,
									"id" : "obj-5",
									"outlettype" : [ "" ],
									"comment" : ""
								}

							}
, 							{
								"box" : 								{
									"maxclass" : "outlet",
									"numinlets" : 1,
									"patching_rect" : [ 50.0, 98.0, 15.0, 15.0 ],
									"numoutlets" : 0,
									"id" : "obj-6",
									"comment" : ""
								}

							}
 ],
						"lines" : [ 							{
								"patchline" : 								{
									"source" : [ "obj-5", 0 ],
									"destination" : [ "obj-2", 0 ],
									"hidden" : 0,
									"midpoints" : [  ]
								}

							}
, 							{
								"patchline" : 								{
									"source" : [ "obj-2", 0 ],
									"destination" : [ "obj-1", 0 ],
									"hidden" : 0,
									"midpoints" : [  ]
								}

							}
, 							{
								"patchline" : 								{
									"source" : [ "obj-1", 0 ],
									"destination" : [ "obj-6", 0 ],
									"hidden" : 0,
									"midpoints" : [  ]
								}

							}
, 							{
								"patchline" : 								{
									"source" : [ "obj-3", 0 ],
									"destination" : [ "obj-1", 1 ],
									"hidden" : 0,
									"midpoints" : [  ]
								}

							}
, 							{
								"patchline" : 								{
									"source" : [ "obj-4", 0 ],
									"destination" : [ "obj-3", 0 ],
									"hidden" : 0,
									"midpoints" : [  ]
								}

							}
 ]
					}
,
					"saved_object_attributes" : 					{
						"default_fontname" : "Verdana",
						"globalpatchername" : "",
						"fontface" : 0,
						"default_fontsize" : 10.0,
						"fontsize" : 10.0,
						"fontname" : "Verdana",
						"default_fontface" : 0
					}

				}

			}
, 			{
				"box" : 				{
					"maxclass" : "newobj",
					"varname" : "file/loop_points",
					"text" : "jcom.parameter file/loop_points @type msg_list @repetitions/allow 0 @description \"List of low and high loop point values\"",
					"linecount" : 4,
					"fontsize" : 9.873845,
					"numinlets" : 1,
					"patching_rect" : [ 913.0, 202.0, 185.0, 54.0 ],
					"numoutlets" : 3,
					"id" : "obj-16",
					"fontname" : "Verdana",
					"outlettype" : [ "", "", "" ]
				}

			}
, 			{
				"box" : 				{
					"maxclass" : "toggle",
					"numinlets" : 1,
					"patching_rect" : [ 890.0, 341.0, 15.0, 15.0 ],
					"numoutlets" : 1,
					"id" : "obj-17",
					"outlettype" : [ "int" ]
				}

			}
, 			{
				"box" : 				{
					"maxclass" : "rslider",
					"varname" : "file_loop_points",
					"presentation_rect" : [ 117.0, 122.0, 115.0, 13.0 ],
					"numinlets" : 2,
					"patching_rect" : [ 913.0, 120.0, 85.0, 15.0 ],
					"numoutlets" : 2,
					"presentation" : 1,
					"id" : "obj-18",
					"size" : 1763,
					"outlettype" : [ "", "" ]
				}

			}
, 			{
				"box" : 				{
					"maxclass" : "newobj",
					"varname" : "synth/noise/size/y",
					"text" : "jcom.parameter synth/noise/size/y @type msg_int @repetitions/allow 0 @ramp/drive scheduler @range/bounds 1 480 @range/clipmode low @description \"x size of noise matrix\"",
					"linecount" : 3,
					"fontsize" : 9.873845,
					"numinlets" : 1,
					"patching_rect" : [ 32.0, 817.0, 326.0, 42.0 ],
					"numoutlets" : 3,
					"id" : "obj-21",
					"fontname" : "Verdana",
					"outlettype" : [ "", "", "" ]
				}

			}
, 			{
				"box" : 				{
					"maxclass" : "newobj",
					"varname" : "file/audio",
					"text" : "jcom.parameter file/audio @type msg_toggle @repetitions/allow 0 @description \"Turn audio in the video file on or off\"",
					"linecount" : 2,
					"fontsize" : 9.873845,
					"numinlets" : 1,
					"patching_rect" : [ 660.0, 884.0, 334.0, 30.0 ],
					"numoutlets" : 3,
					"id" : "obj-23",
					"fontname" : "Verdana",
					"outlettype" : [ "", "", "" ]
				}

			}
, 			{
				"box" : 				{
					"maxclass" : "message",
					"text" : "set $1",
					"fontsize" : 9.873845,
					"numinlets" : 2,
					"patching_rect" : [ 360.0, 164.0, 39.0, 16.0 ],
					"numoutlets" : 1,
					"id" : "obj-25",
					"fontname" : "Verdana",
					"outlettype" : [ "" ]
				}

			}
, 			{
				"box" : 				{
					"maxclass" : "newobj",
					"varname" : "synth/noise/size/x",
					"text" : "jcom.parameter synth/noise/size/x @type msg_int @repetitions/allow 0 @ramp/drive scheduler @range/bounds 1 640 @range/clipmode low @description \"x size of noise matrix\"",
					"linecount" : 3,
					"fontsize" : 9.873845,
					"numinlets" : 1,
					"patching_rect" : [ 32.0, 422.0, 326.0, 42.0 ],
					"numoutlets" : 3,
					"id" : "obj-26",
					"fontname" : "Verdana",
					"outlettype" : [ "", "", "" ]
				}

			}
, 			{
				"box" : 				{
					"maxclass" : "comment",
					"text" : "x",
					"textcolor" : [ 0.584314, 0.584314, 0.584314, 1.0 ],
					"fontsize" : 10.0,
					"presentation_rect" : [ 112.0, 266.0, 17.0, 19.0 ],
					"frgb" : [ 0.584314, 0.584314, 0.584314, 1.0 ],
					"numinlets" : 1,
					"patching_rect" : [ 118.0, 68.0, 17.0, 19.0 ],
					"numoutlets" : 0,
					"presentation" : 1,
					"id" : "obj-27",
					"fontname" : "Verdana"
				}

			}
, 			{
				"box" : 				{
					"maxclass" : "number",
					"varname" : "synth_noise_size_y",
					"triangle" : 0,
					"fontsize" : 10.0,
					"presentation_rect" : [ 124.0, 266.0, 32.0, 19.0 ],
					"minimum" : 1,
					"numinlets" : 1,
					"patching_rect" : [ 32.0, 795.0, 32.0, 19.0 ],
					"triscale" : 0.9,
					"numoutlets" : 2,
					"presentation" : 1,
					"id" : "obj-28",
					"fontname" : "Verdana",
					"outlettype" : [ "int", "bang" ]
				}

			}
, 			{
				"box" : 				{
					"maxclass" : "comment",
					"text" : "Size",
					"textcolor" : [ 0.584314, 0.584314, 0.584314, 1.0 ],
					"fontsize" : 10.0,
					"presentation_rect" : [ 53.0, 266.0, 30.0, 19.0 ],
					"frgb" : [ 0.584314, 0.584314, 0.584314, 1.0 ],
					"numinlets" : 1,
					"patching_rect" : [ 61.0, 68.0, 30.0, 19.0 ],
					"numoutlets" : 0,
					"presentation" : 1,
					"id" : "obj-29",
					"fontname" : "Verdana"
				}

			}
, 			{
				"box" : 				{
					"maxclass" : "number",
					"varname" : "synth_noise_size_x",
					"triangle" : 0,
					"fontsize" : 10.0,
					"presentation_rect" : [ 82.0, 266.0, 32.0, 19.0 ],
					"minimum" : 1,
					"numinlets" : 1,
					"patching_rect" : [ 32.0, 401.0, 32.0, 19.0 ],
					"triscale" : 0.9,
					"numoutlets" : 2,
					"presentation" : 1,
					"id" : "obj-30",
					"fontname" : "Verdana",
					"outlettype" : [ "int", "bang" ]
				}

			}
, 			{
				"box" : 				{
					"maxclass" : "number",
					"varname" : "synth_noise_planes",
					"triangle" : 0,
					"fontsize" : 10.0,
					"presentation_rect" : [ 160.0, 244.0, 32.0, 19.0 ],
					"minimum" : 1,
					"numinlets" : 1,
					"maximum" : 4,
					"patching_rect" : [ 32.0, 477.0, 32.0, 19.0 ],
					"triscale" : 0.9,
					"numoutlets" : 2,
					"presentation" : 1,
					"id" : "obj-31",
					"fontname" : "Verdana",
					"outlettype" : [ "int", "bang" ]
				}

			}
, 			{
				"box" : 				{
					"maxclass" : "newobj",
					"text" : "qlim 100",
					"fontsize" : 9.873845,
					"numinlets" : 2,
					"patching_rect" : [ 740.0, 223.0, 52.0, 18.0 ],
					"numoutlets" : 1,
					"id" : "obj-32",
					"fontname" : "Verdana",
					"outlettype" : [ "" ]
				}

			}
, 			{
				"box" : 				{
					"maxclass" : "message",
					"text" : "setminmax 0 $1",
					"fontsize" : 9.873845,
					"numinlets" : 2,
					"patching_rect" : [ 740.0, 173.0, 89.0, 16.0 ],
					"numoutlets" : 1,
					"id" : "obj-33",
					"fontname" : "Verdana",
					"outlettype" : [ "" ]
				}

			}
, 			{
				"box" : 				{
					"maxclass" : "newobj",
					"text" : "route time duration",
					"fontsize" : 9.873845,
					"numinlets" : 1,
					"patching_rect" : [ 320.0, 116.0, 105.0, 18.0 ],
					"numoutlets" : 3,
					"id" : "obj-34",
					"fontname" : "Verdana",
					"outlettype" : [ "", "", "" ]
				}

			}
, 			{
				"box" : 				{
					"maxclass" : "newobj",
					"text" : "t b",
					"fontsize" : 9.873845,
					"numinlets" : 1,
					"patching_rect" : [ 661.040649, 399.0, 22.0, 18.0 ],
					"numoutlets" : 1,
					"id" : "obj-35",
					"fontname" : "Verdana",
					"outlettype" : [ "bang" ]
				}

			}
, 			{
				"box" : 				{
					"maxclass" : "newobj",
					"text" : "t b",
					"fontsize" : 9.873845,
					"numinlets" : 1,
					"patching_rect" : [ 660.0, 715.0, 22.0, 18.0 ],
					"numoutlets" : 1,
					"id" : "obj-36",
					"fontname" : "Verdana",
					"outlettype" : [ "bang" ]
				}

			}
, 			{
				"box" : 				{
					"maxclass" : "newobj",
					"varname" : "file/counter",
					"text" : "jcom.parameter file/counter @type msg_int @repetitions/allow 0 @description \"Video file time counter\"",
					"linecount" : 2,
					"fontsize" : 9.873845,
					"numinlets" : 1,
					"patching_rect" : [ 428.0, 187.0, 303.0, 30.0 ],
					"numoutlets" : 3,
					"id" : "obj-39",
					"fontname" : "Verdana",
					"outlettype" : [ "", "", "" ]
				}

			}
, 			{
				"box" : 				{
					"maxclass" : "newobj",
					"varname" : "file/rate",
					"text" : "jcom.parameter file/rate @type msg_float @repetitions/allow 0 @ramp/drive scheduler @range/bounds -2. 2. @range/clipmode none @description \"Playback rate of video file\"",
					"linecount" : 2,
					"fontsize" : 9.873845,
					"numinlets" : 1,
					"patching_rect" : [ 660.0, 1008.0, 447.0, 30.0 ],
					"numoutlets" : 3,
					"id" : "obj-41",
					"fontname" : "Verdana",
					"outlettype" : [ "", "", "" ]
				}

			}
, 			{
				"box" : 				{
					"maxclass" : "newobj",
					"varname" : "file/size",
					"text" : "jcom.parameter file/size @type msg_int @repetitions/allow 0 @description \"Select size of video playback\"",
					"linecount" : 2,
					"fontsize" : 9.873845,
					"numinlets" : 1,
					"patching_rect" : [ 660.0, 946.0, 308.0, 30.0 ],
					"numoutlets" : 3,
					"id" : "obj-43",
					"fontname" : "Verdana",
					"outlettype" : [ "", "", "" ]
				}

			}
, 			{
				"box" : 				{
					"maxclass" : "newobj",
					"varname" : "file/loop",
					"text" : "jcom.parameter file/loop @type msg_toggle @repetitions/allow 0 @description \"Turn looping on or off\"",
					"linecount" : 2,
					"fontsize" : 9.873845,
					"numinlets" : 1,
					"patching_rect" : [ 890.0, 360.0, 299.0, 30.0 ],
					"numoutlets" : 3,
					"id" : "obj-45",
					"fontname" : "Verdana",
					"outlettype" : [ "", "", "" ]
				}

			}
, 			{
				"box" : 				{
					"maxclass" : "newobj",
					"varname" : "file/on",
					"text" : "jcom.parameter file/on @type msg_toggle @repetitions/allow 0 @description \"Turn video on or off\"",
					"linecount" : 2,
					"fontsize" : 9.873845,
					"numinlets" : 1,
					"patching_rect" : [ 660.0, 783.0, 290.0, 30.0 ],
					"numoutlets" : 3,
					"id" : "obj-47",
					"fontname" : "Verdana",
					"outlettype" : [ "", "", "" ]
				}

			}
, 			{
				"box" : 				{
					"maxclass" : "newobj",
					"varname" : "jcom.parameter[2]",
					"text" : "jcom.message file/read @description \"Open dialog to select video file\"",
					"fontsize" : 9.873845,
					"numinlets" : 1,
					"patching_rect" : [ 660.0, 736.0, 358.0, 18.0 ],
					"numoutlets" : 3,
					"id" : "obj-49",
					"fontname" : "Verdana",
					"outlettype" : [ "", "", "" ]
				}

			}
, 			{
				"box" : 				{
					"maxclass" : "newobj",
					"varname" : "synth/noise/planes",
					"text" : "jcom.parameter synth/noise/planes @type msg_int @range/bounds 1 4 @range/clipmode both @ramp/drive none @description \"Number of matrix planes\"",
					"linecount" : 2,
					"fontsize" : 9.873845,
					"numinlets" : 1,
					"patching_rect" : [ 32.0, 497.0, 421.0, 30.0 ],
					"numoutlets" : 3,
					"id" : "obj-51",
					"fontname" : "Verdana",
					"outlettype" : [ "", "", "" ]
				}

			}
, 			{
				"box" : 				{
					"maxclass" : "newobj",
					"varname" : "synth/noise/rate",
					"text" : "jcom.parameter synth/noise/rate @type msg_int @ramp/drive scheduler @repetitions/allow 0 @range/bounds 2 1000 @range/clipmode low @description \"Metro speed for noise\"",
					"linecount" : 2,
					"fontsize" : 9.873845,
					"numinlets" : 1,
					"patching_rect" : [ 32.0, 563.0, 471.0, 30.0 ],
					"numoutlets" : 3,
					"id" : "obj-53",
					"fontname" : "Verdana",
					"outlettype" : [ "", "", "" ]
				}

			}
, 			{
				"box" : 				{
					"maxclass" : "comment",
					"text" : "Rate",
					"textcolor" : [ 0.584314, 0.584314, 0.584314, 1.0 ],
					"fontsize" : 10.0,
					"presentation_rect" : [ 53.0, 245.0, 31.0, 19.0 ],
					"frgb" : [ 0.584314, 0.584314, 0.584314, 1.0 ],
					"numinlets" : 1,
					"patching_rect" : [ 63.0, 46.0, 31.0, 19.0 ],
					"numoutlets" : 0,
					"presentation" : 1,
					"id" : "obj-54",
					"fontname" : "Verdana"
				}

			}
, 			{
				"box" : 				{
					"maxclass" : "comment",
					"text" : "Planes",
					"textcolor" : [ 0.584314, 0.584314, 0.584314, 1.0 ],
					"fontsize" : 10.0,
					"presentation_rect" : [ 122.0, 244.0, 41.0, 19.0 ],
					"frgb" : [ 0.584314, 0.584314, 0.584314, 1.0 ],
					"numinlets" : 1,
					"patching_rect" : [ 135.0, 46.0, 41.0, 19.0 ],
					"numoutlets" : 0,
					"presentation" : 1,
					"id" : "obj-55",
					"fontname" : "Verdana"
				}

			}
, 			{
				"box" : 				{
					"maxclass" : "swatch",
					"varname" : "synth_color_sw",
					"compatibility" : 1,
					"presentation_rect" : [ 54.0, 366.0, 128.0, 32.0 ],
					"numinlets" : 3,
					"patching_rect" : [ 32.0, 733.0, 128.0, 32.0 ],
					"numoutlets" : 2,
					"presentation" : 1,
					"id" : "obj-57",
					"outlettype" : [ "", "float" ]
				}

			}
, 			{
				"box" : 				{
					"maxclass" : "number",
					"varname" : "synth_noise_rate",
					"triangle" : 0,
					"fontsize" : 10.0,
					"presentation_rect" : [ 82.0, 244.0, 32.0, 19.0 ],
					"minimum" : 2,
					"numinlets" : 1,
					"patching_rect" : [ 32.0, 543.0, 32.0, 19.0 ],
					"triscale" : 0.9,
					"numoutlets" : 2,
					"presentation" : 1,
					"id" : "obj-58",
					"fontname" : "Verdana",
					"outlettype" : [ "int", "bang" ]
				}

			}
, 			{
				"box" : 				{
					"maxclass" : "newobj",
					"varname" : "camera/size",
					"text" : "jcom.parameter camera/size @type msg_int @description \"Resolution of captured image\"",
					"linecount" : 2,
					"fontsize" : 9.873845,
					"numinlets" : 1,
					"patching_rect" : [ 661.040649, 516.0, 234.0, 30.0 ],
					"numoutlets" : 3,
					"id" : "obj-60",
					"fontname" : "Verdana",
					"outlettype" : [ "", "", "" ]
				}

			}
, 			{
				"box" : 				{
					"maxclass" : "umenu",
					"varname" : "camera_size",
					"fontsize" : 10.0,
					"presentation_rect" : [ 12.435526, 43.0, 75.0, 19.0 ],
					"items" : [ 640, 480, ",", 320, 240, ",", 160, 120, ",", 80, 60 ],
					"labelclick" : 1,
					"numinlets" : 1,
					"patching_rect" : [ 661.040649, 496.0, 55.0, 19.0 ],
					"numoutlets" : 3,
					"presentation" : 1,
					"id" : "obj-61",
					"fontname" : "Verdana",
					"types" : [  ],
					"outlettype" : [ "int", "", "" ]
				}

			}
, 			{
				"box" : 				{
					"maxclass" : "newobj",
					"varname" : "jcom.parameter[1]",
					"text" : "jcom.message camera/settings @description \"Open dialog for camera settings\"",
					"fontsize" : 9.873845,
					"numinlets" : 1,
					"patching_rect" : [ 661.040649, 420.0, 403.0, 18.0 ],
					"numoutlets" : 3,
					"id" : "obj-63",
					"fontname" : "Verdana",
					"outlettype" : [ "", "", "" ]
				}

			}
, 			{
				"box" : 				{
					"maxclass" : "number",
					"varname" : "file_counter",
					"triangle" : 0,
					"fontsize" : 10.0,
					"presentation_rect" : [ 160.040146, 148.0, 69.959846, 19.0 ],
					"numinlets" : 1,
					"patching_rect" : [ 360.0, 191.0, 51.0, 19.0 ],
					"triscale" : 0.9,
					"numoutlets" : 2,
					"presentation" : 1,
					"id" : "obj-65",
					"fontname" : "Verdana",
					"outlettype" : [ "int", "bang" ]
				}

			}
, 			{
				"box" : 				{
					"maxclass" : "message",
					"text" : "set 1 $1",
					"fontsize" : 9.873845,
					"numinlets" : 2,
					"patching_rect" : [ 360.0, 223.0, 49.0, 16.0 ],
					"numoutlets" : 1,
					"id" : "obj-66",
					"fontname" : "Verdana",
					"outlettype" : [ "" ]
				}

			}
, 			{
				"box" : 				{
					"maxclass" : "flonum",
					"varname" : "file_rate",
					"triangle" : 0,
					"fontsize" : 9.873845,
					"presentation_rect" : [ 31.0, 148.0, 35.0, 18.0 ],
					"numinlets" : 1,
					"patching_rect" : [ 660.0, 988.0, 32.0, 18.0 ],
					"triscale" : 0.9,
					"numoutlets" : 2,
					"presentation" : 1,
					"id" : "obj-67",
					"fontname" : "Verdana",
					"outlettype" : [ "float", "bang" ]
				}

			}
, 			{
				"box" : 				{
					"maxclass" : "comment",
					"text" : "rate",
					"textcolor" : [ 0.584314, 0.584314, 0.584314, 1.0 ],
					"fontsize" : 10.0,
					"presentation_rect" : [ 1.0, 148.0, 29.0, 19.0 ],
					"frgb" : [ 0.584314, 0.584314, 0.584314, 1.0 ],
					"numinlets" : 1,
					"patching_rect" : [ 21.0, 42.0, 29.0, 19.0 ],
					"numoutlets" : 0,
					"presentation" : 1,
					"id" : "obj-68",
					"fontname" : "Verdana"
				}

			}
, 			{
				"box" : 				{
					"maxclass" : "multislider",
					"candicane7" : [ 0.878431, 0.243137, 0.145098, 1.0 ],
					"contdata" : 1,
					"peakcolor" : [ 0.498039, 0.498039, 0.498039, 1.0 ],
					"compatibility" : 1,
					"candicane3" : [ 0.290196, 0.411765, 0.713726, 1.0 ],
					"candicane6" : [ 0.733333, 0.035294, 0.788235, 1.0 ],
					"presentation_rect" : [ 117.0, 135.0, 115.0, 12.0 ],
					"settype" : 0,
					"bgcolor" : [ 0.678431, 0.678431, 0.678431, 1.0 ],
					"numinlets" : 1,
					"setstyle" : 1,
					"setminmax" : [ 0.0, 253.0 ],
					"patching_rect" : [ 740.0, 198.0, 85.0, 15.0 ],
					"numoutlets" : 2,
					"candicane2" : [ 0.145098, 0.203922, 0.356863, 1.0 ],
					"presentation" : 1,
					"candicane4" : [ 0.439216, 0.619608, 0.070588, 1.0 ],
					"id" : "obj-69",
					"candicane8" : [ 0.027451, 0.447059, 0.501961, 1.0 ],
					"outlettype" : [ "", "" ],
					"candicane5" : [ 0.584314, 0.827451, 0.431373, 1.0 ],
					"orientation" : 0,
					"slidercolor" : [ 0.356863, 0.356863, 0.356863, 1.0 ]
				}

			}
, 			{
				"box" : 				{
					"maxclass" : "umenu",
					"varname" : "file_size",
					"fontsize" : 10.0,
					"presentation_rect" : [ 71.0, 148.0, 84.0, 19.0 ],
					"items" : [ "native", "size", ",", 640, 480, ",", 320, 240, ",", 160, 120, ",", 80, 60 ],
					"labelclick" : 1,
					"numinlets" : 1,
					"patching_rect" : [ 660.0, 925.0, 46.0, 19.0 ],
					"numoutlets" : 3,
					"presentation" : 1,
					"id" : "obj-71",
					"fontname" : "Verdana",
					"types" : [  ],
					"outlettype" : [ "int", "", "" ]
				}

			}
, 			{
				"box" : 				{
					"maxclass" : "umenu",
					"varname" : "Camera",
					"fontsize" : 10.0,
					"presentation_rect" : [ 103.0, 43.0, 100.0, 19.0 ],
					"items" : [  ],
					"labelclick" : 1,
					"numinlets" : 1,
					"patching_rect" : [ 660.0, 647.0, 100.0, 19.0 ],
					"numoutlets" : 3,
					"presentation" : 1,
					"id" : "obj-72",
					"fontname" : "Verdana",
					"types" : [  ],
					"outlettype" : [ "int", "", "" ]
				}

			}
, 			{
				"box" : 				{
					"maxclass" : "umenu",
					"varname" : "Device",
					"fontsize" : 10.0,
					"presentation_rect" : [ 103.0, 25.0, 100.0, 19.0 ],
					"items" : [ "DV Video", ",", "IIDC FireWire Video", ",", "USB Video Class Video" ],
					"labelclick" : 1,
					"numinlets" : 1,
					"patching_rect" : [ 660.0, 578.0, 100.0, 19.0 ],
					"numoutlets" : 3,
					"presentation" : 1,
					"id" : "obj-73",
					"fontname" : "Verdana",
					"types" : [  ],
					"outlettype" : [ "int", "", "" ]
				}

			}
, 			{
				"box" : 				{
					"maxclass" : "newobj",
					"varname" : "synth/color/on",
					"text" : "jcom.parameter synth/color/on @type msg_toggle @range/bounds 0 1 @range/clipmode both @repetitions/allow 0 @ramp/drive none @description \"Turn video color synth on or off\"",
					"linecount" : 2,
					"fontsize" : 9.873845,
					"numinlets" : 1,
					"patching_rect" : [ 32.0, 695.0, 470.0, 30.0 ],
					"numoutlets" : 3,
					"id" : "obj-76",
					"fontname" : "Verdana",
					"outlettype" : [ "", "", "" ]
				}

			}
, 			{
				"box" : 				{
					"maxclass" : "newobj",
					"varname" : "synth/noise/on",
					"text" : "jcom.parameter synth/noise/on @type msg_toggle @range/bounds 0 1 @range/clipmode both @repetitions/allow 0 @ramp/drive none @description \"Turn video noise on or off\"",
					"linecount" : 2,
					"fontsize" : 9.873845,
					"numinlets" : 1,
					"patching_rect" : [ 32.0, 633.0, 458.0, 30.0 ],
					"numoutlets" : 3,
					"id" : "obj-78",
					"fontname" : "Verdana",
					"outlettype" : [ "", "", "" ]
				}

			}
, 			{
				"box" : 				{
					"maxclass" : "newobj",
					"text" : "thispatcher",
					"fontsize" : 9.873845,
					"numinlets" : 1,
					"patching_rect" : [ 245.0, 71.0, 64.0, 18.0 ],
					"numoutlets" : 2,
					"id" : "obj-80",
					"fontname" : "Verdana",
					"outlettype" : [ "", "" ],
					"save" : [ "#N", "thispatcher", ";", "#Q", "end", ";" ]
				}

			}
, 			{
				"box" : 				{
					"maxclass" : "inlet",
					"numinlets" : 0,
					"patching_rect" : [ 245.0, 3.0, 25.0, 25.0 ],
					"numoutlets" : 1,
					"id" : "obj-81",
					"outlettype" : [ "" ],
					"comment" : ""
				}

			}
, 			{
				"box" : 				{
					"maxclass" : "newobj",
					"varname" : "camera/on",
					"text" : "jcom.parameter camera/on @type msg_toggle @description \"Turn camera on\"",
					"fontsize" : 9.873845,
					"numinlets" : 1,
					"patching_rect" : [ 661.040649, 464.0, 400.0, 18.0 ],
					"numoutlets" : 3,
					"id" : "obj-83",
					"fontname" : "Verdana",
					"outlettype" : [ "", "", "" ]
				}

			}
, 			{
				"box" : 				{
					"maxclass" : "comment",
					"text" : "This almost works. There is a problem with setting max values after looping is turned off.",
					"linecount" : 3,
					"fontsize" : 9.873845,
					"numinlets" : 1,
					"patching_rect" : [ 455.0, 102.0, 175.0, 42.0 ],
					"numoutlets" : 0,
					"id" : "obj-84",
					"fontname" : "Verdana"
				}

			}
, 			{
				"box" : 				{
					"maxclass" : "newobj",
					"text" : "t 1",
					"fontsize" : 9.873845,
					"numinlets" : 1,
					"patching_rect" : [ 980.0, 308.0, 22.0, 18.0 ],
					"numoutlets" : 1,
					"id" : "obj-86",
					"fontname" : "Verdana",
					"outlettype" : [ "int" ]
				}

			}
, 			{
				"box" : 				{
					"maxclass" : "newobj",
					"text" : "speedlim 1000",
					"fontsize" : 9.873845,
					"numinlets" : 2,
					"patching_rect" : [ 980.0, 282.0, 81.0, 18.0 ],
					"numoutlets" : 1,
					"id" : "obj-87",
					"fontname" : "Verdana",
					"outlettype" : [ "" ]
				}

			}
, 			{
				"box" : 				{
					"maxclass" : "newobj",
					"text" : "pak set 0 100",
					"fontsize" : 9.873845,
					"numinlets" : 3,
					"patching_rect" : [ 913.0, 84.0, 77.0, 18.0 ],
					"numoutlets" : 1,
					"id" : "obj-88",
					"fontname" : "Verdana",
					"outlettype" : [ "" ]
				}

			}
, 			{
				"box" : 				{
					"maxclass" : "newobj",
					"text" : "sel 0",
					"fontsize" : 9.873845,
					"numinlets" : 2,
					"patching_rect" : [ 913.0, 53.0, 32.0, 18.0 ],
					"numoutlets" : 2,
					"id" : "obj-89",
					"fontname" : "Verdana",
					"outlettype" : [ "bang", "" ]
				}

			}
, 			{
				"box" : 				{
					"maxclass" : "newobj",
					"varname" : "/[2]",
					"text" : "/ 100",
					"fontsize" : 9.873845,
					"numinlets" : 2,
					"patching_rect" : [ 971.0, 53.0, 37.0, 18.0 ],
					"numoutlets" : 1,
					"id" : "obj-90",
					"fontname" : "Verdana",
					"outlettype" : [ "int" ]
				}

			}
, 			{
				"box" : 				{
					"maxclass" : "message",
					"text" : "size $1",
					"fontsize" : 9.873845,
					"numinlets" : 2,
					"patching_rect" : [ 995.0, 84.0, 43.0, 16.0 ],
					"numoutlets" : 1,
					"id" : "obj-91",
					"fontname" : "Verdana",
					"outlettype" : [ "" ]
				}

			}
 ],
		"lines" : [ 			{
				"patchline" : 				{
					"source" : [ "obj-76", 0 ],
					"destination" : [ "obj-24", 0 ],
					"hidden" : 0,
					"midpoints" : [ 41.5, 726.036133, 16.930626, 726.036133, 16.930626, 672.387756, 41.5, 672.387756 ]
				}

			}
, 			{
				"patchline" : 				{
					"source" : [ "obj-24", 0 ],
					"destination" : [ "obj-76", 0 ],
					"hidden" : 0,
					"midpoints" : [  ]
				}

			}
, 			{
				"patchline" : 				{
					"source" : [ "obj-78", 0 ],
					"destination" : [ "obj-37", 0 ],
					"hidden" : 0,
					"midpoints" : [ 41.5, 669.588745, 17.86364, 669.588745, 17.86364, 602.411682, 41.5, 602.411682 ]
				}

			}
, 			{
				"patchline" : 				{
					"source" : [ "obj-37", 0 ],
					"destination" : [ "obj-78", 0 ],
					"hidden" : 0,
					"midpoints" : [  ]
				}

			}
, 			{
				"patchline" : 				{
					"source" : [ "obj-23", 0 ],
					"destination" : [ "obj-22", 0 ],
					"hidden" : 0,
					"midpoints" : [ 669.5, 916.44928, 651.896301, 916.44928, 651.896301, 857.095398, 669.5, 857.095398 ]
				}

			}
, 			{
				"patchline" : 				{
					"source" : [ "obj-22", 0 ],
					"destination" : [ "obj-23", 0 ],
					"hidden" : 0,
					"midpoints" : [  ]
				}

			}
, 			{
				"patchline" : 				{
					"source" : [ "obj-20", 0 ],
					"destination" : [ "obj-36", 0 ],
					"hidden" : 0,
					"midpoints" : [  ]
				}

			}
, 			{
				"patchline" : 				{
					"source" : [ "obj-47", 0 ],
					"destination" : [ "obj-19", 0 ],
					"hidden" : 0,
					"midpoints" : [ 669.5, 816.524414, 645.885742, 816.524414, 645.885742, 757.921875, 669.5, 757.921875 ]
				}

			}
, 			{
				"patchline" : 				{
					"source" : [ "obj-19", 0 ],
					"destination" : [ "obj-47", 0 ],
					"hidden" : 0,
					"midpoints" : [  ]
				}

			}
, 			{
				"patchline" : 				{
					"source" : [ "obj-83", 0 ],
					"destination" : [ "obj-8", 0 ],
					"hidden" : 0,
					"midpoints" : [ 670.540649, 488.443268, 656.139709, 488.443268, 656.139709, 440.359131, 670.540649, 440.359131 ]
				}

			}
, 			{
				"patchline" : 				{
					"source" : [ "obj-8", 0 ],
					"destination" : [ "obj-83", 0 ],
					"hidden" : 0,
					"midpoints" : [  ]
				}

			}
, 			{
				"patchline" : 				{
					"source" : [ "obj-6", 0 ],
					"destination" : [ "obj-35", 0 ],
					"hidden" : 0,
					"midpoints" : [  ]
				}

			}
, 			{
				"patchline" : 				{
					"source" : [ "obj-1", 0 ],
					"destination" : [ "obj-78", 0 ],
					"hidden" : 0,
					"midpoints" : [ 142.5, 630.0, 41.5, 630.0 ]
				}

			}
, 			{
				"patchline" : 				{
					"source" : [ "obj-11", 0 ],
					"destination" : [ "obj-73", 0 ],
					"hidden" : 0,
					"midpoints" : [  ]
				}

			}
, 			{
				"patchline" : 				{
					"source" : [ "obj-10", 0 ],
					"destination" : [ "obj-72", 0 ],
					"hidden" : 0,
					"midpoints" : [  ]
				}

			}
, 			{
				"patchline" : 				{
					"source" : [ "obj-66", 0 ],
					"destination" : [ "obj-69", 0 ],
					"hidden" : 0,
					"midpoints" : [  ]
				}

			}
, 			{
				"patchline" : 				{
					"source" : [ "obj-33", 0 ],
					"destination" : [ "obj-69", 0 ],
					"hidden" : 0,
					"midpoints" : [  ]
				}

			}
, 			{
				"patchline" : 				{
					"source" : [ "obj-69", 0 ],
					"destination" : [ "obj-32", 0 ],
					"hidden" : 0,
					"midpoints" : [  ]
				}

			}
, 			{
				"patchline" : 				{
					"source" : [ "obj-34", 0 ],
					"destination" : [ "obj-25", 0 ],
					"hidden" : 0,
					"midpoints" : [ 329.5, 153.0, 369.5, 153.0 ]
				}

			}
, 			{
				"patchline" : 				{
					"source" : [ "obj-25", 0 ],
					"destination" : [ "obj-65", 0 ],
					"hidden" : 0,
					"midpoints" : [  ]
				}

			}
, 			{
				"patchline" : 				{
					"source" : [ "obj-32", 0 ],
					"destination" : [ "obj-65", 0 ],
					"hidden" : 0,
					"midpoints" : [ 749.5, 188.0, 369.5, 188.0 ]
				}

			}
, 			{
				"patchline" : 				{
					"source" : [ "obj-65", 0 ],
					"destination" : [ "obj-66", 0 ],
					"hidden" : 0,
					"midpoints" : [  ]
				}

			}
, 			{
				"patchline" : 				{
					"source" : [ "obj-34", 0 ],
					"destination" : [ "obj-66", 0 ],
					"hidden" : 0,
					"midpoints" : [ 329.5, 213.0, 369.5, 213.0 ]
				}

			}
, 			{
				"patchline" : 				{
					"source" : [ "obj-81", 0 ],
					"destination" : [ "obj-4", 0 ],
					"hidden" : 0,
					"midpoints" : [  ]
				}

			}
, 			{
				"patchline" : 				{
					"source" : [ "obj-4", 0 ],
					"destination" : [ "obj-80", 0 ],
					"hidden" : 0,
					"midpoints" : [  ]
				}

			}
, 			{
				"patchline" : 				{
					"source" : [ "obj-17", 0 ],
					"destination" : [ "obj-89", 0 ],
					"hidden" : 0,
					"midpoints" : [ 899.0, 357.0, 876.0, 357.0, 876.0, 48.0, 922.5, 48.0 ]
				}

			}
, 			{
				"patchline" : 				{
					"source" : [ "obj-89", 0 ],
					"destination" : [ "obj-88", 0 ],
					"hidden" : 0,
					"midpoints" : [  ]
				}

			}
, 			{
				"patchline" : 				{
					"source" : [ "obj-15", 0 ],
					"destination" : [ "obj-16", 0 ],
					"hidden" : 0,
					"midpoints" : [  ]
				}

			}
, 			{
				"patchline" : 				{
					"source" : [ "obj-81", 0 ],
					"destination" : [ "obj-34", 0 ],
					"hidden" : 0,
					"midpoints" : [ 254.5, 30.0, 329.5, 30.0 ]
				}

			}
, 			{
				"patchline" : 				{
					"source" : [ "obj-90", 0 ],
					"destination" : [ "obj-88", 2 ],
					"hidden" : 0,
					"midpoints" : [  ]
				}

			}
, 			{
				"patchline" : 				{
					"source" : [ "obj-34", 1 ],
					"destination" : [ "obj-33", 0 ],
					"hidden" : 0,
					"midpoints" : [ 372.5, 150.0, 441.0, 150.0, 441.0, 159.0, 749.5, 159.0 ]
				}

			}
, 			{
				"patchline" : 				{
					"source" : [ "obj-34", 1 ],
					"destination" : [ "obj-90", 0 ],
					"hidden" : 0,
					"midpoints" : [ 372.5, 144.0, 441.0, 144.0, 441.0, 39.0, 980.5, 39.0 ]
				}

			}
, 			{
				"patchline" : 				{
					"source" : [ "obj-90", 0 ],
					"destination" : [ "obj-91", 0 ],
					"hidden" : 0,
					"midpoints" : [ 980.5, 78.0, 1004.5, 78.0 ]
				}

			}
, 			{
				"patchline" : 				{
					"source" : [ "obj-87", 0 ],
					"destination" : [ "obj-86", 0 ],
					"hidden" : 0,
					"midpoints" : [  ]
				}

			}
, 			{
				"patchline" : 				{
					"source" : [ "obj-86", 0 ],
					"destination" : [ "obj-17", 0 ],
					"hidden" : 0,
					"midpoints" : [ 989.5, 336.0, 899.0, 336.0 ]
				}

			}
, 			{
				"patchline" : 				{
					"source" : [ "obj-17", 0 ],
					"destination" : [ "obj-45", 0 ],
					"hidden" : 0,
					"midpoints" : [  ]
				}

			}
, 			{
				"patchline" : 				{
					"source" : [ "obj-35", 0 ],
					"destination" : [ "obj-63", 0 ],
					"hidden" : 0,
					"midpoints" : [  ]
				}

			}
, 			{
				"patchline" : 				{
					"source" : [ "obj-3", 0 ],
					"destination" : [ "obj-83", 0 ],
					"hidden" : 0,
					"midpoints" : [ 756.5, 462.0, 670.540649, 462.0 ]
				}

			}
, 			{
				"patchline" : 				{
					"source" : [ "obj-36", 0 ],
					"destination" : [ "obj-49", 0 ],
					"hidden" : 0,
					"midpoints" : [  ]
				}

			}
, 			{
				"patchline" : 				{
					"source" : [ "obj-2", 0 ],
					"destination" : [ "obj-47", 0 ],
					"hidden" : 0,
					"midpoints" : [ 734.5, 781.0, 669.5, 781.0 ]
				}

			}
, 			{
				"patchline" : 				{
					"source" : [ "obj-61", 0 ],
					"destination" : [ "obj-60", 0 ],
					"hidden" : 0,
					"midpoints" : [  ]
				}

			}
, 			{
				"patchline" : 				{
					"source" : [ "obj-60", 0 ],
					"destination" : [ "obj-61", 0 ],
					"hidden" : 0,
					"midpoints" : [ 670.540649, 547.0, 654.0, 547.0, 654.0, 493.0, 670.540649, 493.0 ]
				}

			}
, 			{
				"patchline" : 				{
					"source" : [ "obj-73", 0 ],
					"destination" : [ "obj-9", 0 ],
					"hidden" : 0,
					"midpoints" : [  ]
				}

			}
, 			{
				"patchline" : 				{
					"source" : [ "obj-9", 0 ],
					"destination" : [ "obj-73", 0 ],
					"hidden" : 0,
					"midpoints" : [ 669.5, 617.0, 646.0, 617.0, 646.0, 575.0, 669.5, 575.0 ]
				}

			}
, 			{
				"patchline" : 				{
					"source" : [ "obj-72", 0 ],
					"destination" : [ "obj-7", 0 ],
					"hidden" : 0,
					"midpoints" : [  ]
				}

			}
, 			{
				"patchline" : 				{
					"source" : [ "obj-7", 0 ],
					"destination" : [ "obj-72", 0 ],
					"hidden" : 0,
					"midpoints" : [ 669.5, 685.0, 646.0, 685.0, 646.0, 643.0, 669.5, 643.0 ]
				}

			}
, 			{
				"patchline" : 				{
					"source" : [ "obj-71", 0 ],
					"destination" : [ "obj-43", 0 ],
					"hidden" : 0,
					"midpoints" : [  ]
				}

			}
, 			{
				"patchline" : 				{
					"source" : [ "obj-43", 0 ],
					"destination" : [ "obj-71", 0 ],
					"hidden" : 0,
					"midpoints" : [ 669.5, 977.0, 655.0, 977.0, 655.0, 920.0, 669.5, 920.0 ]
				}

			}
, 			{
				"patchline" : 				{
					"source" : [ "obj-67", 0 ],
					"destination" : [ "obj-41", 0 ],
					"hidden" : 0,
					"midpoints" : [  ]
				}

			}
, 			{
				"patchline" : 				{
					"source" : [ "obj-41", 0 ],
					"destination" : [ "obj-67", 0 ],
					"hidden" : 0,
					"midpoints" : [ 669.5, 1040.0, 655.0, 1040.0, 655.0, 983.0, 669.5, 983.0 ]
				}

			}
, 			{
				"patchline" : 				{
					"source" : [ "obj-18", 0 ],
					"destination" : [ "obj-15", 0 ],
					"hidden" : 0,
					"midpoints" : [  ]
				}

			}
, 			{
				"patchline" : 				{
					"source" : [ "obj-18", 1 ],
					"destination" : [ "obj-15", 1 ],
					"hidden" : 0,
					"midpoints" : [ 988.5, 153.0, 946.5, 153.0 ]
				}

			}
, 			{
				"patchline" : 				{
					"source" : [ "obj-18", 1 ],
					"destination" : [ "obj-87", 0 ],
					"hidden" : 0,
					"midpoints" : [ 988.5, 189.0, 1109.0, 189.0, 1109.0, 267.0, 989.5, 267.0 ]
				}

			}
, 			{
				"patchline" : 				{
					"source" : [ "obj-88", 0 ],
					"destination" : [ "obj-18", 0 ],
					"hidden" : 0,
					"midpoints" : [  ]
				}

			}
, 			{
				"patchline" : 				{
					"source" : [ "obj-91", 0 ],
					"destination" : [ "obj-18", 0 ],
					"hidden" : 0,
					"midpoints" : [ 1004.5, 109.0, 922.5, 109.0 ]
				}

			}
, 			{
				"patchline" : 				{
					"source" : [ "obj-5", 0 ],
					"destination" : [ "obj-17", 0 ],
					"hidden" : 0,
					"midpoints" : [  ]
				}

			}
, 			{
				"patchline" : 				{
					"source" : [ "obj-45", 0 ],
					"destination" : [ "obj-5", 0 ],
					"hidden" : 0,
					"midpoints" : [ 899.5, 395.0, 883.0, 395.0, 883.0, 306.0, 899.5, 306.0 ]
				}

			}
, 			{
				"patchline" : 				{
					"source" : [ "obj-65", 0 ],
					"destination" : [ "obj-39", 0 ],
					"hidden" : 0,
					"midpoints" : [  ]
				}

			}
, 			{
				"patchline" : 				{
					"source" : [ "obj-39", 0 ],
					"destination" : [ "obj-65", 0 ],
					"hidden" : 0,
					"midpoints" : [ 370.5, 186.0 ]
				}

			}
, 			{
				"patchline" : 				{
					"source" : [ "obj-31", 0 ],
					"destination" : [ "obj-51", 0 ],
					"hidden" : 0,
					"midpoints" : [  ]
				}

			}
, 			{
				"patchline" : 				{
					"source" : [ "obj-51", 0 ],
					"destination" : [ "obj-31", 0 ],
					"hidden" : 0,
					"midpoints" : [ 41.5, 528.0, 12.0, 528.0, 12.0, 474.0, 41.5, 474.0 ]
				}

			}
, 			{
				"patchline" : 				{
					"source" : [ "obj-58", 0 ],
					"destination" : [ "obj-53", 0 ],
					"hidden" : 0,
					"midpoints" : [  ]
				}

			}
, 			{
				"patchline" : 				{
					"source" : [ "obj-53", 0 ],
					"destination" : [ "obj-58", 0 ],
					"hidden" : 0,
					"midpoints" : [ 41.5, 594.0, 12.0, 594.0, 12.0, 540.0, 41.5, 540.0 ]
				}

			}
, 			{
				"patchline" : 				{
					"source" : [ "obj-57", 0 ],
					"destination" : [ "obj-14", 0 ],
					"hidden" : 0,
					"midpoints" : [  ]
				}

			}
, 			{
				"patchline" : 				{
					"source" : [ "obj-30", 0 ],
					"destination" : [ "obj-26", 0 ],
					"hidden" : 0,
					"midpoints" : [  ]
				}

			}
, 			{
				"patchline" : 				{
					"source" : [ "obj-26", 0 ],
					"destination" : [ "obj-30", 0 ],
					"hidden" : 0,
					"midpoints" : [ 41.5, 466.0, 18.0, 466.0, 18.0, 397.0, 41.5, 397.0 ]
				}

			}
, 			{
				"patchline" : 				{
					"source" : [ "obj-28", 0 ],
					"destination" : [ "obj-21", 0 ],
					"hidden" : 0,
					"midpoints" : [  ]
				}

			}
, 			{
				"patchline" : 				{
					"source" : [ "obj-21", 0 ],
					"destination" : [ "obj-28", 0 ],
					"hidden" : 0,
					"midpoints" : [ 41.5, 860.0, 24.0, 860.0, 24.0, 791.0, 41.5, 791.0 ]
				}

			}
 ]
	}

}
