max v2;#N vpatcher 65 44 1268 791;#P origin -2 -51;#P window setfont "Sans Serif" 9.;#P hidden newex 124 560 79 196617 r $1_noise_off;#P hidden newex 871 387 71 196617 r $1_file_off;#P hidden newex 890 91 89 196617 r $1_camera_off;#N vpatcher 557 328 1233 652;#P window setfont "Sans Serif" 9.;#P newex 50 64 243 196617 sel 0 1 2;#P newex 505 199 89 196617 s $1_noise_off;#P newex 403 199 100 196617 s $1_file_off;#P window linecount 0;#P newex 301 199 99 196617 s $1_camera_off;#P window linecount 1;#P newex 204 109 31 196617 t b 0;#P newex 127 109 31 196617 t b 0;#P window linecount 0;#P newex 50 109 31 196617 t b 0;#P window linecount 1;#P message 204 199 72 196617 offset 0 -240;#P message 127 199 72 196617 offset 0 -120;#P message 50 199 66 196617 offset 0 -19;#P inlet 50 30 15 0;#P outlet 50 235 15 0;#P connect 1 0 11 0;#P connect 11 0 5 0;#P connect 5 0 2 0;#P connect 2 0 0 0;#P connect 3 0 0 0;#P connect 4 0 0 0;#P connect 11 1 6 0;#P connect 6 0 3 0;#P connect 11 2 7 0;#P connect 7 0 4 0;#P fasten 6 1 8 0 153 173 306 173;#P fasten 7 1 8 0 230 165 306 165;#P fasten 5 1 9 0 76 182 408 182;#P fasten 7 1 9 0 230 163 408 163;#P fasten 6 1 10 0 153 171 510 171;#P fasten 5 1 10 0 76 180 510 180;#P pop;#P hidden newobj 212 65 70 196617 p offsets_etc;#P window setfont "Lucida Grande" 9.;#P user umenu 49 124 27 67108903 1 64 139 1;#X add =;#X add =>;#X add <=>;#P objectname file_loop;#P window setfont "Sans Serif" 9.;#P hidden newex 805 252 68 196617 pvar Camera;#P hidden newex 805 272 368 196617 jcom.parameter camera/camera @type msg_int @description "Choose camera";#P objectname camera/camera;#P hidden newex 805 203 64 196617 pvar Device;#P hidden newex 805 223 374 196617 jcom.parameter camera/device @type msg_int @description "Input device type";#P objectname camera/device;#P hidden newex 339 18 70 196617 r $1_camera;#P hidden newex 270 18 66 196617 r $1_device;#P window linecount 2;#P hidden newex 803 449 301 196617 jcom.parameter file/framedump @type msg_toggle @repetitions 0 @description "Turn on or off framedump of the video";#P objectname file/framedump;#P window linecount 1;#P hidden newex 16 689 107 196617 pvar synth_color_sw;#P hidden newex 16 710 385 196617 jcom.parameter synth/color @type msg_generic @description "List of RGB colors";#P objectname synth/color;#N vpatcher 20 74 206 227;#P window setfont "Sans Serif" 9.;#P newex 50 76 43 196617 pak 0 0;#P newex 50 50 38 196617 * 100;#P objectname *[3];#P newex 92 50 38 196617 * 100;#P objectname *[2];#P inlet 92 30 15 0;#P inlet 50 30 15 0;#P outlet 50 98 15 0;#P connect 1 0 4 0;#P connect 4 0 5 0;#P connect 5 0 0 0;#P connect 3 0 5 1;#P connect 2 0 3 0;#P pop;#P hidden newobj 284 245 41 196617 p scale;#P window linecount 4;#P hidden newex 284 306 168 196617 jcom.parameter file/loop_points @type msg_list @repetitions 0 @description "List of low and high loop point values";#P objectname file/loop_points;#P hidden toggle 484 308 15 0;#P user rslider 104 124 85 15 1763 1 0 0 0;#P objectname file_loop_points;#P window linecount 1;#P hidden newex 472 582 124 196617 pvar synth_noise_size_x;#P hidden newex 474 662 124 196617 pvar synth_noise_size_y;#P window linecount 3;#P hidden newex 474 683 264 196617 jcom.parameter synth/noise/size/y @type msg_int @repetitions 0 @ramp.drive scheduler @range 1 480 @clipmode low @description "x size of noise matrix";#P objectname synth/noise/size/y;#P window linecount 1;#P hidden newex 804 488 78 196617 pvar file_audio;#P window linecount 2;#P hidden newex 804 510 274 196617 jcom.parameter file/audio @type msg_toggle @repetitions 0 @description "Turn audio in the video file on or off";#P objectname file/audio;#P user jsui 77 124 25 15 1 0 0 jcom.jsui_texttoggle.js audio audio;#P objectname file_audio;#P window setfont "Lucida Grande" 9.;#P window linecount 1;#P hidden message 193 121 39 67108873 set \$1;#P window setfont "Sans Serif" 9.;#P window linecount 3;#P hidden newex 473 602 285 196617 jcom.parameter synth/noise/size/x @type msg_int @repetitions 0 @ramp.drive scheduler @range 1 640 @clipmode low @description "x size of noise matrix";#P objectname synth/noise/size/x;#P window setfont "Lucida Grande" 9.;#P window linecount 1;#P comment 108 267 14 67108873 x;#B frgb 149 149 149;#P number 122 265 32 9 1 0 8225 1024 181 181 181 221 221 221 255 255 255 0 0 0;#P objectname synth_noise_size_y;#P comment 51 267 30 67108873 Size;#B frgb 149 149 149;#P number 80 265 32 9 1 0 8225 1024 181 181 181 221 221 221 255 255 255 0 0 0;#P objectname synth_noise_size_x;#P number 160 243 32 9 1 4 8227 1024 181 181 181 221 221 221 255 255 255 0 0 0;#P objectname synth_noise_planes;#P hidden newex 103 172 50 67108873 qlim 100;#P window setfont "Sans Serif" 9.;#P hidden message 362 120 83 196617 setminmax 0 \$1;#P hidden newex 319 65 97 196617 route time duration;#P hidden newex 804 46 20 196617 t b;#P hidden newex 804 341 20 196617 t b;#P user jsui 3 124 25 15 1 0 0 jsui_textbutton.js open;#P objectname file_open;#P hidden newex 804 674 89 196617 pvar file_counter;#P window linecount 2;#P hidden newex 804 696 252 196617 jcom.parameter file/counter @type msg_int @repetitions 0 @description "Video file time counter";#P objectname file/counter;#P window linecount 1;#P hidden newex 804 612 74 196617 pvar file_rate;#P window linecount 2;#P hidden newex 804 634 372 196617 jcom.parameter file/rate @type msg_float @repetitions 0 @ramp.drive scheduler @range -2. 2. @clipmode none @description "Playback rate of video file";#P objectname file/rate;#P window linecount 1;#P hidden newex 804 550 73 196617 pvar file_size;#P window linecount 2;#P hidden newex 804 572 254 196617 jcom.parameter file/size @type msg_int @repetitions 0 @description "Select size of video playback";#P objectname file/size;#P window linecount 1;#P hidden newex 484 287 73 196617 pvar file_loop;#P window linecount 2;#P hidden newex 484 327 247 196617 jcom.parameter file/loop @type msg_toggle @repetitions 0 @description "Turn looping on or off";#P objectname file/loop;#P window linecount 1;#P hidden newex 804 387 65 196617 pvar file_on;#P window linecount 2;#P hidden newex 804 409 240 196617 jcom.parameter file/on @type msg_toggle @repetitions 0 @description "Turn video on or off";#P objectname file/on;#P window linecount 1;#P hidden newex 804 320 75 196617 pvar file_open;#P hidden newex 804 362 328 196617 jcom.message file/read @description "Open dialog to select video file";#P objectname jcom.parameter[2];#P hidden newex 17 424 122 196617 pvar synth_noise_planes;#P window linecount 2;#P hidden newex 17 446 326 196617 jcom.parameter synth/noise/planes @type msg_int @range 1 4 @clipmode both @ramp none @description "Number of matrix planes";#P objectname synth/noise/planes;#P window linecount 1;#P hidden newex 17 490 113 196617 pvar synth_noise_rate;#P window linecount 2;#P hidden newex 17 512 391 196617 jcom.parameter synth/noise/rate @type msg_int @ramp.drive scheduler @repetitions 0 @range 2 1000 @clipmode low @description "Metro speed for noise";#P objectname synth/noise/rate;#P window setfont "Lucida Grande" 9.;#P window linecount 1;#P comment 53 245 30 67108873 Rate;#B frgb 149 149 149;#P comment 125 245 39 67108873 Planes;#B frgb 149 149 149;#P user jsui 11 379 25 15 1 0 0 jcom.jsui_texttoggle.js color color;#P objectname synth_color_on_but;#P user swatch 54 365 128 32;#P objectname synth_color_sw;#P number 82 243 32 9 2 0 8225 1024 181 181 181 221 221 221 255 255 255 0 0 0;#P objectname synth_noise_rate;#P window setfont "Sans Serif" 9.;#P hidden newex 804 138 91 196617 pvar camera_size;#P window linecount 2;#P hidden newex 804 158 212 196617 jcom.parameter camera/size @type msg_int @description "Resolution of captured image";#P objectname camera/size;#P window setfont "Lucida Grande" 9.;#P user umenu 13 41 55 67108903 1 64 56 1;#X add 640 480;#X add 320 240;#X add 160 120;#X add 80 60;#P objectname camera_size;#P window setfont "Sans Serif" 9.;#P window linecount 1;#P hidden newex 804 25 109 196617 pvar camera_settings;#P hidden newex 804 67 367 196617 jcom.message camera/settings @description "Open dialog for camera settings";#P objectname jcom.parameter.mxt[1];#P user jsui 38 24 35 15 1 0 0 jsui_textbutton.js settings;#P objectname camera_settings;#P window setfont "Lucida Grande" 9.;#P number 193 145 51 9 0 0 8224 1024 181 181 181 221 221 221 255 255 255 0 0 0;#P objectname file_counter;#P hidden message 193 170 48 67108873 set 1 \$1;#P flonum 20 145 32 9 0 0 8224 1024 181 181 181 221 221 221 255 255 255 0 0 0;#P objectname file_rate;#P comment 1 145 29 67108873 rate;#B frgb 149 149 149;#P user multiSlider 103 145 85 15 0. 253. 1 2920 47 0 0 2 0 0 1;#M frgb 91 91 91;#M brgb 173 173 173;#M rgb2 127 127 127;#M rgb3 0 0 0;#M rgb4 37 52 91;#M rgb5 74 105 182;#M rgb6 112 158 18;#M rgb7 149 211 110;#M rgb8 187 9 201;#M rgb9 224 62 37;#M rgb10 7 114 128;#P user jsui 29 124 20 15 1 0 0 jcom.jsui_texttoggle.js on off;#P objectname file_on;#P user umenu 47 145 57 67108903 1 64 160 1;#X add native size;#X add 640 480;#X add 320 240;#X add 160 120;#X add 80 60;#P objectname file_size;#P user umenu 84 42 100 67108903 1 64 57 1;#P objectname Camera;#P user umenu 84 24 100 67108903 1 64 39 1;#X add "DV Video";#X add "IIDC FireWire Video";#X add "USB Video Class Video";#P objectname Device;#P user jsui 13 24 20 15 1 0 0 jcom.jsui_texttoggle.js on off;#P objectname camera_on;#P window setfont "Sans Serif" 9.;#P hidden newex 17 622 124 196617 pvar synth_color_on_but;#P window linecount 2;#P hidden newex 17 644 373 196617 jcom.parameter synth/color/on @type msg_toggle @range 0 1 @clipmode both @repetitions 0 @ramp none @description "Turn video color synth on or off";#P objectname synth/color/on;#P window linecount 1;#P hidden newex 17 560 104 196617 pvar synth_noise_on;#P window linecount 2;#P hidden newex 17 582 344 196617 jcom.parameter synth/noise/on @type msg_toggle @range 0 1 @clipmode both @repetitions 0 @ramp none @description "Turn video noise on or off";#P objectname synth/noise/on;#P user jsui 11 252 25 15 1 0 0 jcom.jsui_texttoggle.js noise noise;#P objectname synth_noise_on;#P window linecount 1;#N thispatcher;#Q end;#P hidden newobj 212 88 61 196617 thispatcher;#P hidden inlet 212 17 15 0;#P hidden newex 804 91 83 196617 pvar camera_on;#P hidden newex 804 111 363 196617 jcom.parameter camera/on @type msg_toggle @description "Turn camera on";#P objectname camera/on;#P window linecount 3;#P hidden comment 516 138 175 196617 This almost works. There is a problem with setting max values after looping is turned off.;#P window linecount 1;#P hidden newex 284 213 115 196617 pvar file_loop_points 2;#P hidden newex 389 271 21 196617 t 1;#P hidden newex 389 245 76 196617 speedlim 1000;#P hidden newex 284 183 72 196617 pak set 0 100;#P hidden newex 284 157 32 196617 sel 0;#P hidden newex 362 159 37 196617 / 100;#P objectname /[2];#P hidden message 362 183 43 196617 size \$1;#P user panel 0 -1 239 413;#X brgb 36 36 36;#X frgb 0 0 0;#X border 0;#X rounded 0;#X shadow 0;#X done;#P hidden connect 79 0 78 0;#P hidden fasten 41 0 42 0 22 477 14 477 14 420 22 420;#P hidden connect 42 0 41 0;#P hidden fasten 39 0 40 0 22 543 14 543 14 486 22 486;#P hidden connect 40 0 39 0;#P hidden fasten 14 0 15 0 22 613 14 613 14 556 22 556;#P hidden connect 15 0 14 0;#P hidden fasten 91 0 14 0 129 579 22 579;#P hidden fasten 16 0 17 0 22 675 14 675 14 618 22 618;#P hidden connect 17 0 16 0;#P hidden connect 81 0 19 0;#P hidden connect 82 0 20 0;#P hidden fasten 59 0 23 0 367 140 108 140;#P hidden connect 26 0 23 0;#P hidden connect 23 0 60 0;#P hidden fasten 58 0 67 0 324 117 198 117;#P hidden connect 60 0 27 0;#P hidden connect 67 0 27 0;#P hidden connect 58 0 26 0;#P hidden connect 27 0 26 0;#P hidden connect 11 0 88 0;#P hidden connect 88 0 12 0;#P hidden connect 75 0 3 0;#P hidden connect 3 0 4 0;#P hidden connect 4 0 7 0;#P hidden fasten 1 0 7 0 367 205 289 205;#P hidden connect 7 0 77 0;#P hidden connect 77 0 76 0;#P hidden connect 7 1 77 1;#P hidden connect 11 0 58 0;#P hidden connect 2 0 4 2;#P hidden connect 58 1 59 0;#P hidden connect 58 1 2 0;#P hidden connect 2 0 1 0;#P hidden connect 7 1 5 0;#P hidden connect 5 0 6 0;#P hidden fasten 66 0 73 0 478 650 467 650 467 577 477 577;#P hidden connect 73 0 66 0;#P hidden fasten 71 0 72 0 479 730 468 730 468 655 479 655;#P hidden connect 72 0 71 0;#P hidden fasten 47 0 48 0 489 362 478 362 478 283 489 283;#P hidden connect 6 0 75 0;#P hidden connect 48 0 75 0;#P hidden connect 75 0 47 0;#P hidden connect 30 0 57 0;#P hidden connect 57 0 29 0;#P hidden fasten 9 0 10 0 809 133 797 133 797 86 809 86;#P hidden connect 10 0 9 0;#P hidden fasten 89 0 9 0 895 109 809 109;#P hidden fasten 32 0 33 0 809 193 797 193 797 133 809 133;#P hidden connect 33 0 32 0;#P hidden connect 44 0 56 0;#P hidden connect 56 0 43 0;#P hidden fasten 45 0 46 0 809 440 801 440 801 383 809 383;#P hidden connect 46 0 45 0;#P hidden fasten 90 0 45 0 876 407 809 407;#P hidden fasten 69 0 70 0 809 541 801 541 801 484 809 484;#P hidden connect 70 0 69 0;#P hidden fasten 49 0 50 0 809 603 801 603 801 546 809 546;#P hidden connect 50 0 49 0;#P hidden fasten 51 0 52 0 809 665 801 665 801 608 809 608;#P hidden connect 52 0 51 0;#P hidden fasten 53 0 54 0 809 727 801 727 801 670 809 670;#P hidden connect 54 0 53 0;#P hidden fasten 83 0 84 0 810 245 798 245 798 198 810 198;#P hidden connect 84 0 83 0;#P hidden fasten 85 0 86 0 810 293 798 293 798 247 810 247;#P hidden connect 86 0 85 0;#P pop;