max v2;#N vpatcher 115 44 1009 600;#P origin 0 -1065;#P window setfont "Sans Serif" 9.;#P window linecount 1;#P comment 32 41 61 196617 max;#B frgb 255 255 255;#P comment 32 24 61 196617 running;#B frgb 255 255 255;#P comment 128 41 61 196617 centroid;#B frgb 255 255 255;#P comment 130 24 61 196617 windowed;#B frgb 255 255 255;#P toggle 110 21 15 0;#P hidden message 280 61 138 196617 /contraction/window/on \$1;#P toggle 109 38 15 0;#P hidden message 280 80 84 196617 /centroid/on \$1;#P toggle 10 39 15 0;#P hidden message 280 41 123 196617 /contraction/max/on \$1;#P toggle 10 22 15 0;#P hidden message 280 23 98 196617 /contraction/on \$1;#P hidden message 114 145 191 196617 /preset/store 1 default \, /preset/write;#B color 3;#P hidden newex 443 101 47 196617 pcontrol;#P hidden newex 443 77 37 196617 t open;#P hidden newex 443 53 151 196617 jcom.oscroute /open_inspector;#N vpatcher 211 298 645 534;#P window setfont "Sans Serif" 9.;#P message 46 158 89 196617 /centroid/size$1;#P number 7 158 35 9 0 0 1 3 0 0 0 221 221 221 222 222 222 0 0 0;#P message 46 94 122 196617 /contraction/max/reset;#P number 6 124 35 9 0 0 1 3 0 0 0 221 221 221 222 222 222 0 0 0;#P window linecount 0;#P message 44 124 146 196617 /contraction/window/size \$1;#P hidden newex 452 552 100 196617 pvar centroid_color;#P hidden newex 452 484 139 196617 pvar contraction_max_color;#P hidden newex 452 417 114 196617 pvar contraction_color;#P hidden newex 452 352 111 196617 pvar centroid_size_on;#P hidden newex 452 287 87 196617 pvar centroid_on;#P hidden newex 452 163 126 196617 pvar contraction_max_on;#P hidden newex 452 96 101 196617 pvar contraction_on;#P hidden newex 452 27 112 196617 pvar contraction_slide;#P window linecount 2;#P hidden newex 452 635 350 196617 jcom.parameter data/smoothing @type msg_float @range 0. 12. @clipmode low @description "Level of smoothing for the returened data";#P objectname data/smoothing;#P window linecount 1;#P hidden newex 452 615 104 196617 pvar data_smoothing;#P window linecount 2;#P hidden newex 452 575 224 196617 jcom.parameter centroid/color @type msg_list @description "Change color of centroid.";#P objectname centroid/color;#P hidden newex 452 506 263 196617 jcom.parameter contraction/max/color @type msg_list @description "Change color of max contraction box.";#P objectname contraction/max/color;#P hidden newex 452 438 250 196617 jcom.parameter contraction/color @type msg_list @description "Change color of local contraction box.";#P objectname contraction/color;#P hidden newex 452 374 352 196617 jcom.parameter centroid/size/on @type msg_toggle @description "Turn on automatic size adjustment of centre of mass - based on quantity of motion.";#P objectname centroid/size/on;#P hidden newex 452 308 235 196617 jcom.parameter centroid/on @type msg_toggle @description "Turn display of centre of mass on.";#P objectname centroid/on;#P window linecount 1;#P hidden newex 452 255 382 196617 jcom.message contraction/max/reset @description "Reset max_contraction box.";#P objectname jmod.parameter.mxt[12];#P window linecount 2;#P hidden newex 452 185 262 196617 jcom.parameter contraction/max/on @type msg_toggle @description "Turn max contraction box on or off.";#P objectname contraction/max/on;#P hidden newex 452 120 244 196617 jcom.parameter contraction/on @type msg_toggle @description "Turn local contraction box on or off.";#P objectname contraction/on;#P hidden newex 452 50 406 196617 jcom.parameter contraction/slide @type msg_float @range 0. 10. @clipmode low @description @repetitions 0 "The level of smoothing for contraction box.";#P objectname contraction/slide;#P window linecount 1;#P hidden newex 94 348 58 196617 r jmod.init;#P hidden newex 81 322 40 196617 t front;#P hidden newex 81 301 151 196617 jcom.oscroute /open_inspector;#P toggle 26 179 15 0;#P message 44 179 108 196617 /centroid/size/on \$1;#P flonum 6 69 35 9 0. 0 1 3 0 0 0 221 221 221 222 222 222 0 0 0;#P user swatch 237 111 128 32;#P message 237 143 127 196617 /centroid/color \$1 \$2 \$3;#P user swatch 237 60 128 32;#P message 237 92 166 196617 /contraction/max/color \$1 \$2 \$3;#P user swatch 237 9 128 32;#P message 44 69 109 196617 /contraction/slide \$1;#P message 237 41 141 196617 /contraction/color \$1 \$2 \$3;#P flonum 7 32 35 9 0. 0 1 3 0 0 0 221 221 221 222 222 222 0 0 0;#P message 45 32 101 196617 /data/smoothing \$1;#P hidden outlet 200 220 15 0;#P window setfont "Sans Serif" 12.;#P comment 4 4 252 196620 Various things that might be useful;#P hidden inlet 81 281 15 0;#P window setfont "Sans Serif" 9.;#P hidden message 94 370 178 196617 patcher more jmod.motion% features;#N thispatcher;#Q end;#P hidden newobj 94 389 61 196617 thispatcher;#P user panel 0 0 412 206;#X brgb 218 216 211;#X frgb 0 0 0;#X border 0;#X rounded 0;#X shadow 0;#X done;#P background;#P hidden connect 15 0 9 0;#P hidden connect 41 0 40 0;#P hidden connect 17 0 16 0;#P hidden connect 7 0 6 0;#P hidden connect 43 0 44 0;#P hidden connect 3 0 18 0;#P hidden connect 18 0 19 0;#P hidden connect 20 0 2 0;#P hidden connect 2 0 1 0;#P hidden connect 19 0 1 0;#P hidden connect 44 0 5 0;#P hidden connect 42 0 5 0;#P hidden connect 9 0 5 0;#P hidden connect 13 0 5 0;#P hidden connect 11 0 5 0;#P hidden connect 8 0 5 0;#P hidden connect 6 0 5 0;#P hidden connect 40 0 5 0;#P connect 10 0 8 0;#P connect 12 0 11 0;#P connect 14 0 13 0;#P hidden fasten 21 0 32 0 457 85 447 85 447 23 457 23;#P hidden connect 32 0 21 0;#P hidden fasten 22 0 33 0 457 156 448 156 448 93 457 93;#P hidden connect 33 0 22 0;#P hidden fasten 23 0 34 0 457 219 447 219 447 160 457 160;#P hidden connect 34 0 23 0;#P hidden fasten 25 0 35 0 457 342 445 342 445 282 457 282;#P hidden connect 35 0 25 0;#P hidden fasten 26 0 36 0 457 408 447 408 447 347 457 347;#P hidden connect 36 0 26 0;#P hidden fasten 27 0 37 0 457 473 446 473 446 412 457 412;#P hidden connect 37 0 27 0;#P hidden fasten 28 0 38 0 457 542 447 542 447 482 457 482;#P hidden connect 38 0 28 0;#P hidden fasten 29 0 39 0 457 599 448 599 448 545 457 545;#P hidden connect 39 0 29 0;#P hidden fasten 31 0 30 0 457 669 447 669 447 610 457 610;#P hidden connect 30 0 31 0;#P pop;#P hidden newobj 443 125 60 196617 p inspector;#P objectname inspector;#P hidden comment 27 232 79 196617 command output;#P hidden newex 443 192 49 196617 jcom.out;#P hidden inlet 409 9 13 0;#P hidden comment 424 9 65 196617 VIDEO INPUT;#P hidden newex 409 28 78 196617 jcom.in 1;#P hidden newex 584 101 47 196617 pcontrol;#P hidden newex 584 77 78 196617 jcom.pass open;#P hidden outlet 443 233 13 0;#P hidden message 131 162 119 196617 documentation/generate;#B color 3;#P hidden comment 457 233 75 196617 VIDEO OUTPUT;#P hidden newex 443 161 76 196617 jalg.box%.mxt;#P hidden comment 23 159 79 196617 command input;#P window linecount 2;#P hidden newex 9 184 358 196617 jcom.hub jmod.motion% @size 1U-half @module_type video @algorithm_type jitter @description "Motion-related analysis" @inspector 1;#P objectname jcom.hub;#P hidden outlet 9 232 13 0;#P hidden inlet 9 159 13 0;#P bpatcher 0 0 256 60 0 0 jcom.gui.mxt 0;#P objectname jcom.gui;#P hidden fasten 20 0 3 0 119 181 14 181;#P hidden fasten 7 0 3 0 136 181 14 181;#P hidden connect 1 0 3 0;#P hidden connect 3 0 2 0;#P hidden connect 22 0 21 0;#P hidden connect 24 0 23 0;#P hidden connect 28 0 27 0;#P hidden connect 26 0 25 0;#P hidden connect 13 0 11 0;#P hidden connect 11 1 17 0;#P hidden connect 17 0 18 0;#P hidden connect 18 0 19 0;#P hidden connect 19 0 16 0;#P hidden connect 21 0 5 0;#P hidden connect 23 0 5 0;#P hidden connect 27 0 5 0;#P hidden connect 25 0 5 0;#P hidden connect 16 0 5 0;#P hidden fasten 10 0 5 0 589 150 448 150;#P hidden fasten 9 1 5 0 657 154 448 154;#P hidden connect 5 0 14 0;#P hidden connect 14 0 8 0;#P hidden connect 11 0 5 1;#P hidden connect 17 1 9 0;#P hidden connect 9 0 10 0;#P pop;