{
	"patcher" : 	{
		"fileversion" : 1,
		"rect" : [ 131.0, 75.0, 989.0, 561.0 ],
		"bglocked" : 0,
		"defrect" : [ 131.0, 75.0, 989.0, 561.0 ],
		"openrect" : [ 0.0, 0.0, 0.0, 0.0 ],
		"openinpresentation" : 0,
		"default_fontsize" : 10.0,
		"default_fontface" : 0,
		"default_fontname" : "Arial",
		"gridonopen" : 0,
		"gridsize" : [ 5.0, 5.0 ],
		"gridsnaponopen" : 0,
		"toolbarvisible" : 1,
		"boxanimatetime" : 200,
		"imprint" : 0,
		"metadata" : [  ],
		"boxes" : [ 			{
				"box" : 				{
					"maxclass" : "newobj",
					"text" : "jit.rgb2luma",
					"fontname" : "Arial",
					"numinlets" : 1,
					"id" : "obj-1",
					"numoutlets" : 2,
					"patching_rect" : [ 824.0, 70.0, 66.0, 17.0 ],
					"fontsize" : 9.0,
					"outlettype" : [ "jit_matrix", "" ]
				}

			}
, 			{
				"box" : 				{
					"maxclass" : "bpatcher",
					"varname" : "/motion%[1]",
					"numinlets" : 2,
					"id" : "obj-2",
					"name" : "jmod.box%.maxpat",
					"numoutlets" : 2,
					"patching_rect" : [ 638.0, 166.0, 304.0, 77.0 ],
					"outlettype" : [ "", "" ],
					"args" : [ "/box%" ],
					"lockeddragscroll" : 1
				}

			}
, 			{
				"box" : 				{
					"maxclass" : "jit.pwindow",
					"numinlets" : 1,
					"id" : "obj-3",
					"numoutlets" : 2,
					"depthbuffer" : 0,
					"patching_rect" : [ 633.0, 259.0, 320.0, 240.0 ],
					"outlettype" : [ "", "" ]
				}

			}
, 			{
				"box" : 				{
					"maxclass" : "bpatcher",
					"varname" : "/motion%[2]",
					"numinlets" : 2,
					"id" : "obj-4",
					"name" : "jmod.background%.maxpat",
					"numoutlets" : 2,
					"patching_rect" : [ 638.0, 92.0, 303.0, 71.0 ],
					"outlettype" : [ "", "" ],
					"args" : [ "/background%" ],
					"lockeddragscroll" : 1
				}

			}
, 			{
				"box" : 				{
					"maxclass" : "multislider",
					"peakcolor" : [ 0.498039, 0.498039, 0.498039, 1.0 ],
					"candicane6" : [ 0.733333, 0.035294, 0.788235, 1.0 ],
					"numinlets" : 1,
					"id" : "obj-5",
					"candicane4" : [ 0.439216, 0.619608, 0.070588, 1.0 ],
					"setminmax" : [ 0.0, 1.0 ],
					"numoutlets" : 2,
					"candicane2" : [ 0.145098, 0.203922, 0.356863, 1.0 ],
					"candicane7" : [ 0.878431, 0.243137, 0.145098, 1.0 ],
					"patching_rect" : [ 161.0, 344.0, 62.0, 75.0 ],
					"outlettype" : [ "", "" ],
					"candicane5" : [ 0.584314, 0.827451, 0.431373, 1.0 ],
					"setstyle" : 5,
					"candicane3" : [ 0.290196, 0.411765, 0.713726, 1.0 ],
					"candicane8" : [ 0.027451, 0.447059, 0.501961, 1.0 ]
				}

			}
, 			{
				"box" : 				{
					"maxclass" : "multislider",
					"peakcolor" : [ 0.498039, 0.498039, 0.498039, 1.0 ],
					"candicane6" : [ 0.733333, 0.035294, 0.788235, 1.0 ],
					"numinlets" : 1,
					"id" : "obj-6",
					"candicane4" : [ 0.439216, 0.619608, 0.070588, 1.0 ],
					"setminmax" : [ 0.0, 1.0 ],
					"numoutlets" : 2,
					"candicane2" : [ 0.145098, 0.203922, 0.356863, 1.0 ],
					"candicane7" : [ 0.878431, 0.243137, 0.145098, 1.0 ],
					"patching_rect" : [ 90.0, 344.0, 62.0, 75.0 ],
					"outlettype" : [ "", "" ],
					"candicane5" : [ 0.584314, 0.827451, 0.431373, 1.0 ],
					"setstyle" : 5,
					"candicane3" : [ 0.290196, 0.411765, 0.713726, 1.0 ],
					"candicane8" : [ 0.027451, 0.447059, 0.501961, 1.0 ]
				}

			}
, 			{
				"box" : 				{
					"maxclass" : "multislider",
					"peakcolor" : [ 0.498039, 0.498039, 0.498039, 1.0 ],
					"candicane6" : [ 0.733333, 0.035294, 0.788235, 1.0 ],
					"numinlets" : 1,
					"id" : "obj-7",
					"candicane4" : [ 0.439216, 0.619608, 0.070588, 1.0 ],
					"setminmax" : [ 0.0, 1.0 ],
					"numoutlets" : 2,
					"candicane2" : [ 0.145098, 0.203922, 0.356863, 1.0 ],
					"candicane7" : [ 0.878431, 0.243137, 0.145098, 1.0 ],
					"patching_rect" : [ 18.0, 345.0, 62.0, 75.0 ],
					"outlettype" : [ "", "" ],
					"candicane5" : [ 0.584314, 0.827451, 0.431373, 1.0 ],
					"setstyle" : 5,
					"candicane3" : [ 0.290196, 0.411765, 0.713726, 1.0 ],
					"candicane8" : [ 0.027451, 0.447059, 0.501961, 1.0 ]
				}

			}
, 			{
				"box" : 				{
					"maxclass" : "flonum",
					"fontname" : "Arial",
					"numinlets" : 1,
					"bgcolor" : [ 0.866667, 0.866667, 0.866667, 1.0 ],
					"id" : "obj-8",
					"numoutlets" : 2,
					"htextcolor" : [ 0.870588, 0.870588, 0.870588, 1.0 ],
					"patching_rect" : [ 126.0, 320.0, 35.0, 17.0 ],
					"fontsize" : 9.0,
					"outlettype" : [ "float", "bang" ],
					"textcolor" : [ 0.0, 0.0, 0.0, 1.0 ],
					"triscale" : 0.9
				}

			}
, 			{
				"box" : 				{
					"maxclass" : "flonum",
					"fontname" : "Arial",
					"numinlets" : 1,
					"bgcolor" : [ 0.866667, 0.866667, 0.866667, 1.0 ],
					"id" : "obj-9",
					"numoutlets" : 2,
					"htextcolor" : [ 0.870588, 0.870588, 0.870588, 1.0 ],
					"patching_rect" : [ 72.0, 320.0, 35.0, 17.0 ],
					"fontsize" : 9.0,
					"outlettype" : [ "float", "bang" ],
					"textcolor" : [ 0.0, 0.0, 0.0, 1.0 ],
					"triscale" : 0.9
				}

			}
, 			{
				"box" : 				{
					"maxclass" : "flonum",
					"fontname" : "Arial",
					"numinlets" : 1,
					"bgcolor" : [ 0.866667, 0.866667, 0.866667, 1.0 ],
					"id" : "obj-10",
					"numoutlets" : 2,
					"htextcolor" : [ 0.870588, 0.870588, 0.870588, 1.0 ],
					"patching_rect" : [ 18.0, 320.0, 35.0, 17.0 ],
					"fontsize" : 9.0,
					"outlettype" : [ "float", "bang" ],
					"textcolor" : [ 0.0, 0.0, 0.0, 1.0 ],
					"triscale" : 0.9
				}

			}
, 			{
				"box" : 				{
					"maxclass" : "newobj",
					"text" : "jcom.oscroute /height /width /area",
					"fontname" : "Arial",
					"numinlets" : 1,
					"id" : "obj-11",
					"numoutlets" : 4,
					"patching_rect" : [ 18.0, 298.0, 173.0, 17.0 ],
					"fontsize" : 9.0,
					"outlettype" : [ "", "", "", "" ]
				}

			}
, 			{
				"box" : 				{
					"maxclass" : "newobj",
					"text" : "jcom.oscroute /contraction",
					"fontname" : "Arial",
					"numinlets" : 1,
					"id" : "obj-12",
					"numoutlets" : 2,
					"patching_rect" : [ 18.0, 276.0, 134.0, 17.0 ],
					"fontsize" : 9.0,
					"outlettype" : [ "", "" ]
				}

			}
, 			{
				"box" : 				{
					"maxclass" : "jit.fpsgui",
					"fontname" : "Arial",
					"numinlets" : 1,
					"id" : "obj-13",
					"numoutlets" : 2,
					"patching_rect" : [ 300.0, 503.0, 60.0, 31.682453 ],
					"fontsize" : 9.0,
					"outlettype" : [ "", "" ]
				}

			}
, 			{
				"box" : 				{
					"maxclass" : "bpatcher",
					"varname" : "/motion%[3]",
					"numinlets" : 2,
					"id" : "obj-14",
					"name" : "jmod.box%.maxpat",
					"numoutlets" : 2,
					"patching_rect" : [ 301.0, 164.0, 305.0, 76.0 ],
					"outlettype" : [ "", "" ],
					"args" : [ "/box%" ],
					"lockeddragscroll" : 1
				}

			}
, 			{
				"box" : 				{
					"maxclass" : "jit.pwindow",
					"numinlets" : 1,
					"id" : "obj-15",
					"numoutlets" : 2,
					"depthbuffer" : 0,
					"patching_rect" : [ 300.0, 259.0, 320.0, 240.0 ],
					"outlettype" : [ "", "" ]
				}

			}
, 			{
				"box" : 				{
					"maxclass" : "bpatcher",
					"varname" : "/motion%[4]",
					"numinlets" : 2,
					"id" : "obj-16",
					"name" : "jmod.motion2%.mxt",
					"numoutlets" : 2,
					"patching_rect" : [ 301.0, 95.0, 305.0, 65.0 ],
					"outlettype" : [ "", "" ],
					"args" : [ "/motion%" ],
					"lockeddragscroll" : 1
				}

			}
, 			{
				"box" : 				{
					"maxclass" : "bpatcher",
					"varname" : "/input%[1]",
					"numinlets" : 1,
					"id" : "obj-17",
					"name" : "jmod.input%.maxpat",
					"numoutlets" : 2,
					"patching_rect" : [ 301.0, 9.0, 305.0, 74.0 ],
					"outlettype" : [ "", "" ],
					"args" : [ "/input%" ],
					"lockeddragscroll" : 1
				}

			}
, 			{
				"box" : 				{
					"maxclass" : "bpatcher",
					"numinlets" : 0,
					"id" : "obj-18",
					"name" : "jmod.video_params.maxpat",
					"numoutlets" : 1,
					"patching_rect" : [ 13.0, 77.0, 260.0, 146.0 ],
					"outlettype" : [ "" ],
					"args" : [  ],
					"lockeddragscroll" : 1
				}

			}
, 			{
				"box" : 				{
					"maxclass" : "comment",
					"text" : "jmod.box%",
					"fontname" : "Arial",
					"numinlets" : 1,
					"id" : "obj-19",
					"numoutlets" : 0,
					"frgb" : [ 1.0, 1.0, 1.0, 1.0 ],
					"patching_rect" : [ 29.0, 16.0, 189.0, 27.0 ],
					"fontsize" : 18.0,
					"textcolor" : [ 1.0, 1.0, 1.0, 1.0 ]
				}

			}
, 			{
				"box" : 				{
					"maxclass" : "comment",
					"text" : "change orientation and size of video",
					"fontname" : "Arial",
					"numinlets" : 1,
					"id" : "obj-20",
					"numoutlets" : 0,
					"frgb" : [ 1.0, 1.0, 1.0, 1.0 ],
					"patching_rect" : [ 30.0, 42.0, 242.0, 17.0 ],
					"fontsize" : 9.0,
					"textcolor" : [ 1.0, 1.0, 1.0, 1.0 ]
				}

			}
, 			{
				"box" : 				{
					"maxclass" : "panel",
					"numinlets" : 1,
					"bgcolor" : [ 0.262745, 0.254902, 0.419608, 1.0 ],
					"id" : "obj-21",
					"numoutlets" : 0,
					"bordercolor" : [ 0.501961, 0.043137, 0.039216, 1.0 ],
					"patching_rect" : [ 1.0, 0.0, 273.0, 63.0 ],
					"rounded" : 0
				}

			}
 ],
		"lines" : [ 			{
				"patchline" : 				{
					"source" : [ "obj-4", 1 ],
					"destination" : [ "obj-2", 1 ],
					"hidden" : 0,
					"midpoints" : [  ]
				}

			}
, 			{
				"patchline" : 				{
					"source" : [ "obj-1", 0 ],
					"destination" : [ "obj-4", 1 ],
					"hidden" : 0,
					"midpoints" : [ 833.5, 90.0, 931.5, 90.0 ]
				}

			}
, 			{
				"patchline" : 				{
					"source" : [ "obj-17", 1 ],
					"destination" : [ "obj-1", 0 ],
					"hidden" : 0,
					"midpoints" : [  ]
				}

			}
, 			{
				"patchline" : 				{
					"source" : [ "obj-2", 1 ],
					"destination" : [ "obj-3", 0 ],
					"hidden" : 0,
					"midpoints" : [ 932.5, 249.0, 642.5, 249.0 ]
				}

			}
, 			{
				"patchline" : 				{
					"source" : [ "obj-16", 1 ],
					"destination" : [ "obj-14", 1 ],
					"hidden" : 0,
					"midpoints" : [  ]
				}

			}
, 			{
				"patchline" : 				{
					"source" : [ "obj-17", 1 ],
					"destination" : [ "obj-16", 1 ],
					"hidden" : 0,
					"midpoints" : [  ]
				}

			}
, 			{
				"patchline" : 				{
					"source" : [ "obj-15", 0 ],
					"destination" : [ "obj-13", 0 ],
					"hidden" : 0,
					"midpoints" : [  ]
				}

			}
, 			{
				"patchline" : 				{
					"source" : [ "obj-14", 1 ],
					"destination" : [ "obj-15", 0 ],
					"hidden" : 0,
					"midpoints" : [ 596.5, 252.0, 309.5, 252.0 ]
				}

			}
, 			{
				"patchline" : 				{
					"source" : [ "obj-8", 0 ],
					"destination" : [ "obj-5", 0 ],
					"hidden" : 0,
					"midpoints" : [  ]
				}

			}
, 			{
				"patchline" : 				{
					"source" : [ "obj-11", 2 ],
					"destination" : [ "obj-8", 0 ],
					"hidden" : 0,
					"midpoints" : [  ]
				}

			}
, 			{
				"patchline" : 				{
					"source" : [ "obj-9", 0 ],
					"destination" : [ "obj-6", 0 ],
					"hidden" : 0,
					"midpoints" : [  ]
				}

			}
, 			{
				"patchline" : 				{
					"source" : [ "obj-11", 1 ],
					"destination" : [ "obj-9", 0 ],
					"hidden" : 0,
					"midpoints" : [  ]
				}

			}
, 			{
				"patchline" : 				{
					"source" : [ "obj-10", 0 ],
					"destination" : [ "obj-7", 0 ],
					"hidden" : 0,
					"midpoints" : [  ]
				}

			}
, 			{
				"patchline" : 				{
					"source" : [ "obj-11", 0 ],
					"destination" : [ "obj-10", 0 ],
					"hidden" : 0,
					"midpoints" : [  ]
				}

			}
, 			{
				"patchline" : 				{
					"source" : [ "obj-12", 0 ],
					"destination" : [ "obj-11", 0 ],
					"hidden" : 0,
					"midpoints" : [  ]
				}

			}
, 			{
				"patchline" : 				{
					"source" : [ "obj-14", 0 ],
					"destination" : [ "obj-12", 0 ],
					"hidden" : 0,
					"midpoints" : [ 310.5, 243.0, 27.5, 243.0 ]
				}

			}
 ]
	}

}
