max v2;#N vpatcher -2 44 1268 800;#P origin 33 -63;#P window setfont "Sans Serif" 9.;#P window linecount 1;#P newex 233 322 79 196617 r $0_ReflLpfrq;#P newex 167 385 41 196617 *~ 1.;#P objectname Vol2;#P newex 198 364 74 196617 r $0_ReflGain;#P newex 167 344 76 196617 onepole~ 5000;#N thispatcher;#Q end;#P newobj 386 103 61 196617 thispatcher;#B color 14;#N vpatcher 426 213 1064 713;#P origin -264 0;#P window setfont "Sans Serif" 9.;#P window linecount 2;#P newex 1 328 324 196617 sprintf ViMiC Module configured for %ld microphones. Order of Reflections is set to %ld . Please reset microphone settings manually.;#P window linecount 1;#P newex 1 361 54 196617 jcom.post;#P message 616 238 23 196617 8 1;#P newex 339 308 400 196617 t i b i b;#N vpatcher 10 59 610 459;#P window setfont "Sans Serif" 9.;#P number 282 164 35 9 0 0 0 3 0 0 0 221 221 221 222 222 222 0 0 0;#P number 265 107 35 9 0 0 0 3 0 0 0 221 221 221 222 222 222 0 0 0;#P newex 203 162 27 196617 - 1;#P window linecount 1;#P newex 192 188 200 196617 sprintf script connect VIMIC %ld out%ld 0;#P window linecount 0;#P newex 198 104 27 196617 + 1;#P newex 197 128 40 196617 uzi;#P inlet 197 73 15 0;#P outlet 191 245 15 0;#P connect 4 0 0 0;#P connect 5 0 4 0;#P connect 3 0 2 0;#P connect 1 0 3 0;#P connect 2 2 5 0;#P connect 3 0 6 0;#P connect 5 0 7 0;#P connect 2 2 4 1;#P pop;#P newobj 339 355 111 196617 p connect_from_vimic;#N vpatcher 654 432 1254 832;#P origin 0 -16;#P window setfont "Sans Serif" 9.;#P newex 135 43 30 196617 t b b;#P newex 148 89 27 196617 i;#P window linecount 1;#P newex 312 156 27 196617 - 1;#P newex 190 240 200 196617 sprintf script connect Vol%ld 0 VIMIC %ld;#P window linecount 0;#P newex 301 103 27 196617 + 1;#P newex 300 125 40 196617 uzi;#P inlet 166 23 19 0;#P message 98 158 185 196617 script connect main_through 0 VIMIC 0;#P outlet 94 296 15 0;#P inlet 133 21 15 0;#P connect 6 0 1 0;#P connect 2 0 1 0;#P connect 9 1 2 0;#P connect 0 0 9 0;#P connect 9 0 8 0;#P connect 3 0 8 1;#P connect 7 0 6 0;#P connect 5 0 4 0;#P connect 8 0 5 0;#P connect 4 2 7 0;#P connect 7 0 6 1;#P pop;#P newobj 469 355 98 196617 p connect_to_vimic;#N vpatcher 264 349 864 749;#P inlet 209 37 15 0;#P window setfont "Sans Serif" 9.;#P newex 226 109 27 196617 i 1;#P newex 57 67 27 196617 t i b;#P inlet 57 37 15 0;#P outlet 99 313 15 0;#P newex 88 198 346 196617 sprintf script new VIMIC newex 92 635 105 196617 VimicMax~ %ld %ld \;;#P connect 2 0 3 0;#P connect 3 0 0 0;#P connect 0 0 1 0;#P connect 3 1 4 0;#P connect 5 0 4 1;#P connect 4 0 0 1;#P pop;#P newobj 599 355 78 196617 p create_vimic;#N vpatcher 573 261 1173 661;#P window setfont "Sans Serif" 9.;#P message 111 136 96 196617 script delete VIMIC;#P outlet 99 266 15 0;#P inlet 108 69 15 0;#P connect 2 0 1 0;#P connect 0 0 2 0;#P pop;#P newobj 729 355 76 196617 p delete_vimic;#P newex 467 111 27 196617 t b i;#P newex 339 254 58 196617 unpack 0 0;#P newex 339 230 175 196617 if $i1 != $i3 || $i2 !=$i4 then $i1 $i2;#P window linecount 2;#P comment 434 47 134 196617 Changes can not take place while audio is running;#P window linecount 1;#P newex 222 59 48 196617 loadbang;#P newex 280 120 31 196617 == 0;#P newex 339 205 29 196617 gate;#P newex 222 120 32 196617 sel 0;#P newex 222 87 54 196617 dspstate~;#P newex 367 155 27 196617 i;#P newex 367 112 40 196617 change;#P newex 367 90 266 196617 jcom.oscroute /microphones/amount /reflections/order;#P inlet 367 68 15 0;#P outlet 493 460 15 0;#P connect 12 0 21 0;#P connect 21 0 20 0;#P connect 9 0 5 0;#P connect 5 0 6 0;#P fasten 5 0 8 0 227 110 285 110;#P connect 12 1 21 1;#P connect 8 0 7 0;#P connect 7 0 11 0;#P connect 19 0 12 0;#P connect 11 0 12 0;#P connect 12 0 18 0;#P connect 18 0 17 0;#P connect 4 0 7 1;#P connect 1 0 2 0;#P connect 2 0 3 0;#P connect 13 0 4 0;#P connect 6 0 4 0;#P connect 3 0 4 0;#P connect 13 1 11 1;#P fasten 12 0 11 2 344 281 536 281 536 220 454 220;#P connect 2 1 13 0;#P connect 18 1 16 0;#P connect 17 0 0 0;#P connect 16 0 0 0;#P connect 15 0 0 0;#P connect 14 0 0 0;#P fasten 12 1 11 3 392 278 533 278 533 223 509 223;#P connect 12 1 16 1;#P lcolor 9;#P connect 18 2 15 0;#P connect 12 1 15 1;#P lcolor 9;#P connect 18 3 14 0;#P pop;#P newobj 385 80 58 196617 p scripting;#B color 14;#P outlet 347 678 15 0;#P objectname out16;#P outlet 328 678 15 0;#P objectname out15;#P outlet 308 678 15 0;#P objectname out14;#P outlet 289 678 15 0;#P objectname out13;#P outlet 269 678 15 0;#P objectname out12;#P outlet 250 678 15 0;#P objectname out11;#P outlet 230 678 15 0;#P objectname out10;#P outlet 211 679 15 0;#P objectname out9;#N vpatcher 177 44 1457 796;#P origin 0 32;#P window setfont "Sans Serif" 9.;#P window linecount 0;#P message 392 108 123 196617 /3/directivity/ratio 0.4;#P inlet 195 16 15 0;#P outlet 254 487 15 0;#P window linecount 1;#P message 151 227 82 196617 /MicZpos 99 \$1;#P message 137 246 83 196617 /MicYpos 99 \$1;#P message 109 286 105 196617 /MicPos 99 \$1$2 \$3;#P message 431 203 102 196617 /MicAziAngle 99 \$1;#P newex 431 181 116 196617 route azimuth elevation;#P message 441 222 100 196617 /MicEleAngle 99 \$1;#P message 123 264 83 196617 /MicXpos 99 \$1;#P newex 51 261 59 196617 t b i;#P newex 227 348 187 196617 zl reg;#P message 261 429 31 196617 2 \$1;#P newex 227 451 44 196617 zl nth 2;#P message 625 207 96 196617 /Directivity 99 \$1;#P message 454 239 102 196617 /MicAngle 99 \$1 \$2;#P message 221 207 108 196617 /MicPos 99 \$1 \$2 \$3;#P newex 109 185 122 196617 route xyz x y z aed a e d;#P newex 207 98 115 196617 loadmess substitute " ";#P newex 625 183 56 196617 route ratio;#P newex 196 140 51 196617 zl slice 1;#P newex 237 161 789 196617 route position angle directivity gain;#P newex 196 119 66 196617 regexp /;#P fasten 2 0 12 0 201 162 56 162;#P fasten 1 0 5 0 242 181 114 181;#P connect 5 0 17 0;#P connect 5 1 13 0;#P connect 5 2 18 0;#P connect 5 3 19 0;#P connect 4 0 0 0;#P connect 21 0 0 0;#P connect 22 0 0 0;#P connect 0 0 2 0;#P connect 5 8 6 0;#P fasten 12 0 11 0 56 344 232 344;#P connect 11 0 9 0;#P connect 2 1 1 0;#P connect 9 1 20 0;#P connect 12 1 10 0;#P connect 10 0 9 1;#P fasten 17 0 11 1 114 338 409 338;#P fasten 13 0 11 1 128 338 409 338;#P fasten 18 0 11 1 142 339 409 339;#P fasten 19 0 11 1 156 338 409 338;#P fasten 16 0 11 1 436 260 409 260;#P fasten 14 0 11 1 446 262 409 262;#P fasten 7 0 11 1 459 261 409 261;#P fasten 6 0 11 1 226 224 409 224;#P fasten 8 0 11 1 630 261 409 261;#P connect 1 1 15 0;#P connect 15 0 16 0;#P connect 15 1 14 0;#P connect 15 2 7 0;#P connect 1 2 3 0;#P connect 3 0 8 0;#P pop;#P newobj 1182 295 104 196617 p microphone-parser;#N vpatcher 20 74 620 474;#P inlet 212 39 15 0;#P outlet 207 215 15 0;#P connect 1 0 0 0;#P pop;#P newobj 876 206 52 196617 p through;#P message 934 187 78 196617 /RenderType 2;#P message 857 187 78 196617 /RenderType 1;#P newex 858 167 92 196617 sel ViMiC Panning;#P message 560 449 147 196617 /SourcePosAbsolute \$1 \$2 \$3;#P message 560 431 121 196617 /SourceZposAbsolute \$1;#P message 559 412 122 196617 /SourceYposAbsolute \$1;#P message 559 395 122 196617 /SourceXposAbsolute \$1;#P newex 559 372 118 196617 jcom.oscroute /x /y /z;#P outlet 190 677 15 0;#P objectname out8;#P outlet 171 677 15 0;#P objectname out7;#P outlet 151 677 15 0;#P objectname out6;#P outlet 132 677 15 0;#P objectname out5;#P outlet 112 677 15 0;#P objectname out4;#P outlet 93 677 15 0;#P objectname out3;#P outlet 73 677 15 0;#P objectname out2;#P outlet 54 678 15 0;#P objectname out1;#P newex 390 465 83 196617 r $0_report_all;#P newex 766 194 83 196617 s $0_report_all;#P newex 749 170 66 196617 s $0_report;#P message 318 491 61 196617 /Report \$1;#P newex 923 310 31 196617 float;#P newex 1057 325 56 196617 vexpr $f1;#P newex 1012 277 31 196617 float;#P newex 883 273 31 196617 float;#P newex 480 270 31 196617 float;#P newex 315 356 56 196617 vexpr $f1;#P newex 315 335 31 196617 float;#P newex 314 312 31 196617 float;#P newex 312 288 31 196617 float;#N vpatcher 20 74 620 474;#P outlet 233 233 15 0;#P inlet 229 76 15 0;#P connect 0 0 1 0;#P pop;#P newobj 368 374 52 196617 p through;#P message 307 397 104 196617 /RoomSize \$1 \$2 \$3;#P message 357 338 83 196617 /RoomHeight \$1;#P message 357 319 80 196617 /RoomDepth \$1;#P message 357 299 80 196617 /RoomWidth \$1;#P newex 357 268 118 196617 jcom.oscroute /x /y /z;#N vpatcher 20 74 620 474;#P outlet 233 233 15 0;#P inlet 229 76 15 0;#P connect 0 0 1 0;#P pop;#P newobj 877 404 52 196617 p through;#P message 390 515 59 196617 /ReportAll;#P newex 318 469 66 196617 r $0_report;#P newex 390 491 60 196617 r reportAll;#P comment 1097 169 100 196617 ???;#P comment 1091 145 67 196617 /dsp;#P user panel 1088 138 124 55;#X brgb 191 191 191;#X frgb 0 0 0;#X border 1;#X rounded 0;#X shadow 0;#X done;#P comment 714 233 67 196617 /reflections;#P newex 774 266 74 196617 s $0_ReflGain;#P newex 707 307 79 196617 s $0_ReflLpfrq;#P newex 707 285 142 196617 jcom.oscroute /frequency /q;#P newex 707 246 180 196617 jcom.oscroute /lowpass /gain /order;#P newex 519 196 51 196617 s $0_Dir;#P newex 635 330 51 196617 s $0_Vol;#N vpatcher 20 74 620 474;#P outlet 233 233 15 0;#P inlet 229 76 15 0;#P connect 0 0 1 0;#P pop;#P newobj 550 469 52 196617 p through;#P message 551 349 108 196617 /SourcePos \$1 \$2 \$3;#P message 551 331 82 196617 /SourceZpos \$1;#P message 550 314 83 196617 /SourceYpos \$1;#P message 550 295 83 196617 /SourceXpos \$1;#P newex 550 267 164 196617 jcom.oscroute /x /y /z /absolute;#P newex 550 248 145 196617 jcom.oscroute /position /gain;#P comment 559 233 45 196617 /source;#P message 1054 345 119 196617 /ArrayCenter \$1 \$2 \$3;#P message 923 331 115 196617 /MicCenterDistance \$1;#P newex 968 303 193 196617 jcom.oscroute /circle/diameter /center;#P message 1050 277 81 196617 /Directivity \$1;#P message 883 292 64 196617 /DirPow \$1;#P comment 893 234 80 196617 /microphones;#P newex 883 254 306 196617 jcom.oscroute /direct/power /array /directivity/ratio /amount;#P comment 367 233 49 196617 /room;#N vpatcher 20 74 620 474;#P inlet 212 39 15 0;#P outlet 207 215 15 0;#P connect 1 0 0 0;#P pop;#P newobj 433 577 52 196617 p through;#P objectname main_through;#P message 472 291 64 196617 /DisPow \$1;#P newex 357 248 181 196617 jcom.oscroute /size /distance/power;#P newex 364 146 568 196617 jcom.oscroute /room /microphones /source /direct/gain /reflections /reverb /dsp /report /report_all /rendermode;#P inlet 357 42 15 0;#P newex 219 239 79 196617 r $0_ReflLpfrq;#P newex 153 302 41 196617 *~ 1.;#P objectname Vol1;#P newex 184 281 74 196617 r $0_ReflGain;#P newex 101 277 51 196617 r $0_Dir;#P newex 70 298 41 196617 *~ 1.;#P objectname Vol0;#P newex 153 261 76 196617 onepole~ 5000;#P inlet 70 191 15 0;#P user panel 354 229 187 172;#X brgb 191 191 191;#X frgb 0 0 0;#X border 1;#X rounded 0;#X shadow 0;#X done;#P user panel 704 229 171 100;#X brgb 191 191 191;#X frgb 0 0 0;#X border 1;#X rounded 0;#X shadow 0;#X done;#P user panel 547 229 153 139;#X brgb 191 191 191;#X frgb 0 0 0;#X border 1;#X rounded 0;#X shadow 0;#X done;#P background;#P user panel 877 227 419 241;#X brgb 191 191 191;#X frgb 0 0 0;#X border 1;#X rounded 0;#X shadow 0;#X done;#P background;#P newex 85 625 105 196617 VimicMax~ 8 1;#P objectname VIMIC;#P connect 0 0 66 0;#P connect 5 0 7 0;#P connect 0 1 67 0;#P connect 7 0 0 0;#P connect 16 0 0 0;#P connect 0 2 68 0;#P connect 8 0 7 1;#P connect 0 3 69 0;#P connect 10 0 0 1;#P connect 0 4 70 0;#P connect 0 5 71 0;#P fasten 5 0 6 0 75 236 158 236;#P connect 6 0 10 0;#P connect 10 0 94 0;#P connect 94 0 96 0;#P connect 0 6 72 0;#P connect 9 0 10 1;#P connect 0 7 73 0;#P connect 95 0 96 1;#P connect 11 0 6 1;#P connect 97 0 94 1;#P connect 47 3 51 0;#P connect 56 0 51 0;#P connect 47 0 53 0;#P connect 47 1 54 0;#P connect 47 2 55 0;#P connect 47 3 56 0;#P connect 44 0 62 0;#P connect 13 0 14 0;#P connect 14 0 47 0;#P connect 53 0 48 0;#P connect 54 0 49 0;#P connect 55 0 50 0;#P connect 12 0 13 0;#P connect 15 0 52 0;#P connect 51 0 52 0;#P connect 50 0 52 0;#P connect 49 0 52 0;#P connect 48 0 52 0;#P connect 12 0 92 0;#P connect 92 0 93 0;#P connect 65 0 45 0;#P connect 43 0 45 0;#P connect 45 0 16 0;#P connect 62 0 16 0;#P connect 46 0 16 0;#P connect 32 0 16 0;#P lcolor 15;#P connect 57 0 15 0;#P connect 14 1 57 0;#P connect 13 3 34 0;#P fasten 13 2 26 0 479 218 555 218;#P connect 26 0 27 0;#P connect 27 0 28 0;#P connect 27 1 29 0;#P connect 28 0 32 0;#P connect 29 0 32 0;#P connect 30 0 32 0;#P connect 31 0 32 0;#P connect 52 0 32 0;#P lcolor 15;#P connect 75 0 32 0;#P connect 76 0 32 0;#P connect 77 0 32 0;#P connect 78 0 32 0;#P connect 27 2 30 0;#P connect 27 4 31 0;#P connect 27 3 74 0;#P connect 74 0 75 0;#P connect 74 1 76 0;#P connect 74 2 77 0;#P connect 74 3 78 0;#P connect 26 1 33 0;#P fasten 13 4 35 0 589 206 712 206;#P connect 35 0 36 0;#P connect 36 0 37 0;#P connect 13 7 63 0;#P connect 13 8 64 0;#P connect 35 1 38 0;#P connect 79 0 80 0;#P connect 13 9 79 0;#P connect 81 0 82 0;#P connect 80 0 82 0;#P connect 24 0 46 0;#P connect 23 0 46 0;#P connect 21 0 46 0;#P connect 20 0 46 0;#P connect 82 0 46 0;#P fasten 83 0 46 0 1187 392 882 392;#P fasten 13 1 18 0 424 226 888 226;#P connect 18 0 58 0;#P connect 58 0 20 0;#P connect 22 0 61 0;#P connect 61 0 23 0;#P connect 79 1 81 0;#P connect 18 1 22 0;#P connect 18 2 59 0;#P connect 59 0 21 0;#P connect 60 0 24 0;#P connect 22 1 60 0;#P connect 18 4 83 0;#P pop;