max v2;#N vpatcher -26 105 1244 861;#P origin 172 -63;#P window setfont "Sans Serif" 9.;#P newex 1166 272 61 196617 r $0_reset;#B color 5;#P user number~ -71 711 -32 726 9 3 3 2 0. 0. 0 0. 250 0. 0 0 0 221 221 221 222 222 222 0 0 0;#P message 708 301 43 196617 \$1 100;#P newex 708 321 59 196617 line 10000;#P newex 590 164 27 196617 f;#P message 590 185 87 196617 /temperature \$1;#P newex 708 282 27 196617 i;#P message 708 341 68 196617 /airfilter \$1;#P newex 606 298 68 196617 jcom.miditoa;#P message 935 164 101 196617 /Renderintervall \$1;#N vpatcher 20 74 620 474;#P outlet 233 233 15 0;#P inlet 229 76 15 0;#P connect 0 0 1 0;#P pop;#P newobj 574 514 67 196617 p VIPthrough;#P message 606 318 77 196617 /ReflGain 2 \$1;#P outlet 363 678 15 0;#P objectname out24;#P outlet 344 678 15 0;#P objectname out23;#P outlet 324 678 15 0;#P objectname out22;#P outlet 305 678 15 0;#P objectname out21;#P outlet 285 678 15 0;#P objectname out20;#P outlet 266 678 15 0;#P objectname out19;#P outlet 246 678 15 0;#P objectname out18;#P outlet 227 678 15 0;#P objectname out17;#P message 386 184 77 196617 /ReflGain 0 \$1;#P message 595 357 77 196617 /ReflGain 1 \$1;#N vpatcher 10 59 610 459;#P window setfont "Sans Serif" 9.;#P window linecount 1;#N vpatcher 572 182 1172 582;#P window setfont "Sans Serif" 9.;#P window linecount 1;#P message 231 104 111 196617 /high_absorption 6 \$1;#P message 125 104 109 196617 /mid_absorption 6 \$1;#P window linecount 0;#P message 18 104 109 196617 /low_absorption 6 \$1;#P outlet 22 354 15 0;#P inlet 18 24 15 0;#P newex 18 44 349 196617 jcom.oscroute /low /mid /high /low_mid_frequency /mid_high_frequency;#P connect 1 0 0 0;#P connect 0 0 3 0;#P connect 3 0 2 0;#P connect 4 0 2 0;#P connect 5 0 2 0;#P connect 0 1 4 0;#P connect 0 2 5 0;#P pop;#P newobj 406 109 48 196617 p parser;#N vpatcher 536 180 1136 580;#P window setfont "Sans Serif" 9.;#P window linecount 1;#P message 231 104 111 196617 /high_absorption 5 \$1;#P message 125 104 109 196617 /mid_absorption 5 \$1;#P window linecount 0;#P message 18 104 109 196617 /low_absorption 5 \$1;#P outlet 22 354 15 0;#P inlet 18 24 15 0;#P newex 18 44 349 196617 jcom.oscroute /low /mid /high /low_mid_frequency /mid_high_frequency;#P connect 1 0 0 0;#P connect 0 0 3 0;#P connect 5 0 2 0;#P connect 4 0 2 0;#P connect 3 0 2 0;#P connect 0 1 4 0;#P connect 0 2 5 0;#P pop;#P newobj 354 109 48 196617 p parser;#N vpatcher 536 180 1136 580;#P window setfont "Sans Serif" 9.;#P window linecount 1;#P message 231 104 111 196617 /high_absorption 2 \$1;#P message 125 104 109 196617 /mid_absorption 2 \$1;#P window linecount 0;#P message 18 104 109 196617 /low_absorption 2 \$1;#P outlet 22 354 15 0;#P inlet 18 24 15 0;#P newex 18 44 349 196617 jcom.oscroute /low /mid /high /low_mid_frequency /mid_high_frequency;#P connect 1 0 0 0;#P connect 0 0 3 0;#P connect 3 0 2 0;#P connect 4 0 2 0;#P connect 5 0 2 0;#P connect 0 1 4 0;#P connect 0 2 5 0;#P pop;#P newobj 305 109 48 196617 p parser;#N vpatcher 536 180 1136 580;#P window setfont "Sans Serif" 9.;#P window linecount 1;#P message 231 104 111 196617 /high_absorption 1 \$1;#P message 125 104 109 196617 /mid_absorption 1 \$1;#P window linecount 0;#P message 18 104 109 196617 /low_absorption 1 \$1;#P outlet 22 354 15 0;#P inlet 18 24 15 0;#P newex 18 44 349 196617 jcom.oscroute /low /mid /high /low_mid_frequency /mid_high_frequency;#P connect 1 0 0 0;#P connect 0 0 3 0;#P connect 5 0 2 0;#P connect 4 0 2 0;#P connect 3 0 2 0;#P connect 0 1 4 0;#P connect 0 2 5 0;#P pop;#P newobj 257 109 48 196617 p parser;#N vpatcher 536 180 1136 580;#P window setfont "Sans Serif" 9.;#P window linecount 1;#P message 231 104 111 196617 /high_absorption 4 \$1;#P message 125 104 109 196617 /mid_absorption 4 \$1;#P window linecount 0;#P message 18 104 109 196617 /low_absorption 4 \$1;#P outlet 22 354 15 0;#P inlet 18 24 15 0;#P newex 18 44 349 196617 jcom.oscroute /low /mid /high /low_mid_frequency /mid_high_frequency;#P connect 1 0 0 0;#P connect 0 0 3 0;#P connect 3 0 2 0;#P connect 4 0 2 0;#P connect 5 0 2 0;#P connect 0 1 4 0;#P connect 0 2 5 0;#P pop;#P newobj 210 108 48 196617 p parser;#P outlet 469 242 15 0;#P newex 190 57 130 196617 jcom.oscroute /absorption;#P window linecount 0;#N vpatcher 620 130 1220 530;#P window setfont "Sans Serif" 9.;#P window linecount 1;#P message 417 178 34 196617 3 \$1;#P message 378 179 34 196617 3 \$1;#P message 267 180 109 196617 /low_absorption 3 \$1;#P message 232 104 111 196617 /high_absorption 3 \$1;#P message 126 104 109 196617 /mid_absorption 3 \$1;#P window linecount 0;#P message 19 104 109 196617 /low_absorption 3 \$1;#P outlet 22 354 15 0;#P inlet 18 24 15 0;#P newex 18 44 349 196617 jcom.oscroute /low /mid /high /low_mid_frequency /mid_high_frequency;#P connect 1 0 0 0;#P connect 0 0 3 0;#P connect 5 0 2 0;#P connect 4 0 2 0;#P connect 3 0 2 0;#P connect 0 1 4 0;#P connect 0 2 5 0;#P pop;#P newobj 141 108 48 196617 p parser;#P newex 173 80 260 196617 jcom.oscroute /front /rear /left /right /floor /ceiling;#P outlet 210 241 15 0;#P inlet 188 31 15 0;#P connect 2 0 3 0;#P connect 4 0 2 0;#P connect 0 0 4 0;#P connect 2 1 6 0;#P connect 3 0 1 0;#P connect 6 0 1 0;#P connect 7 0 1 0;#P connect 8 0 1 0;#P connect 9 0 1 0;#P connect 10 0 1 0;#P connect 2 2 7 0;#P connect 2 3 8 0;#P connect 2 4 9 0;#P connect 2 5 10 0;#P fasten 4 1 5 0 315 77 474 77;#P pop;#P newobj 137 228 67 196617 p reflections;#N vpatcher 20 74 620 474;#P outlet 233 233 15 0;#P inlet 229 76 15 0;#P connect 0 0 1 0;#P pop;#P newobj 389 363 52 196617 p through;#N vpatcher 10 59 610 459;#P window setfont "Sans Serif" 9.;#P window linecount 1;#P message 291 157 100 196617 /SourceEleAngle \$1;#P window linecount 0;#P message 187 157 102 196617 /SourceAziAngle \$1;#P newex 187 95 168 196617 jcom.oscroute /azimuth /elevation;#P outlet 187 272 15 0;#P inlet 187 73 15 0;#P connect 0 0 2 0;#P connect 2 0 3 0;#P connect 4 0 1 0;#P connect 3 0 1 0;#P connect 2 1 4 0;#P pop;#P newobj 517 283 67 196617 p orientation;#N vpatcher 241 89 1003 782;#P window setfont "Sans Serif" 9.;#P newex 253 140 73 196617 jcom.aed2xyz;#P message 426 192 147 196617 /SourcePosAbsolute \$1 \$2 \$3;#P message 158 200 121 196617 /SourceZposAbsolute \$1;#P message 157 181 122 196617 /SourceYposAbsolute \$1;#P message 157 164 122 196617 /SourceXposAbsolute \$1;#P newex 160 117 168 196617 jcom.oscroute /x /y /z /aed /xyz;#N vpatcher 20 74 620 474;#P outlet 233 233 15 0;#P inlet 229 76 15 0;#P connect 0 0 1 0;#P pop;#P newobj -3 221 52 196617 p through;#P message 200 85 108 196617 /SourcePos \$1 \$2 \$3;#P message 74 101 82 196617 /SourceZpos \$1;#P message 59 81 83 196617 /SourceYpos \$1;#P message 48 61 83 196617 /SourceXpos \$1;#P newex 48 41 164 196617 jcom.oscroute /x /y /z /absolute;#P inlet 426 19 15 0;#P inlet 48 21 15 0;#P outlet 106 361 15 0;#P fasten 13 0 8 0 431 224 2 224;#P connect 12 0 8 0;#P connect 11 0 8 0;#P connect 10 0 8 0;#P connect 7 0 8 0;#P connect 6 0 8 0;#P connect 5 0 8 0;#P connect 4 0 8 0;#P connect 1 0 3 0;#P connect 3 0 4 0;#P connect 3 1 5 0;#P connect 3 2 6 0;#P connect 8 0 0 0;#P connect 9 0 10 0;#P connect 9 1 11 0;#P connect 9 2 12 0;#P connect 3 3 9 0;#P connect 3 4 7 0;#P connect 9 3 14 0;#P connect 2 0 13 0;#P connect 14 0 13 0;#P connect 9 4 13 0;#P pop;#P newobj 389 289 53 196617 p position;#P message 859 164 72 196617 /Warnings \$1;#P newex 400 513 169 196617 jcom.oscroute /updaterate /update;#P newex 1106 116 57 196617 s $0_reset;#B color 5;#P newex 593 89 61 196617 r $0_reset;#B color 5;#P newex 596 337 68 196617 jcom.miditoa;#P newex 386 164 68 196617 jcom.miditoa;#N vpatcher 137 69 1407 738;#P window setfont "Sans Serif" 9.;#P window linecount 0;#P message 364 214 14 196617 4;#P message 342 126 111 196617 /xfade/fadefunction 4;#P message 981 219 14 196617 8;#P message 913 219 14 196617 7;#P message 848 219 14 196617 6;#P message 586 295 84 196617 /RenderType \$1;#N vpatcher 10 59 610 459;#P outlet 229 223 15 0;#P inlet 224 93 15 0;#P connect 0 0 1 0;#P pop;#P newobj 586 256 40 196617 p thru;#P message 366 147 111 196617 /xfade/fadefunction 3;#P message 347 213 14 196617 3;#P message 328 261 117 196617 /xfade/fadefunction \$1;#P message 332 213 14 196617 2;#P message 314 213 14 196617 0;#P message 296 214 14 196617 1;#P newex 329 241 27 196617 i 0;#P newex 382 210 49 196617 delay 10;#P inlet 379 37 15 0;#P window linecount 1;#P message 783 219 14 196617 5;#P window linecount 0;#P message 252 148 111 196617 /xfade/fadefunction 2;#N vpatcher 10 59 610 459;#P inlet 222 83 15 0;#P outlet 217 238 15 0;#P connect 1 0 0 0;#P pop;#P newobj 586 347 37 196617 p thru;#N vpatcher 10 59 610 459;#P inlet 222 83 15 0;#P outlet 217 238 15 0;#P connect 1 0 0 0;#P pop;#P newobj 1 273 37 196617 p thru;#P window linecount 1;#P message 207 167 111 196617 /xfade/fadefunction 0;#P window linecount 0;#P newex 162 104 237 196617 sel cosine_squared cosine linear tanh sqrt;#P window linecount 1;#P message 161 187 111 196617 /xfade/fadefunction 1;#P message 22 148 104 196617 /xfade/threshold \$1;#P window linecount 0;#P message 1 125 108 196617 /xfade/fadelength \$1;#P window linecount 1;#P newex 1 74 244 196617 jcom.oscroute /fadelength /threshold /fadefunction;#P newex 1 40 108 196617 jcom.oscroute /xfade;#P message 718 219 14 196617 4;#P window linecount 0;#P message 652 219 14 196617 3;#P newex 1114 222 43 196617 delay 5;#P message 922 310 84 196617 /RenderType \$1;#P window linecount 1;#P message 586 219 14 196617 2;#P window linecount 0;#P message 520 219 14 196617 1;#P newex 923 288 27 196617 i 1;#P window linecount 1;#P message 1048 327 78 196617 /RenderType 0;#P newex 520 193 678 196617 sel ViMiC_lite Panning X-fade_lite X-fade2_lite ViMiC_XL Static X-fade_XL X-fade2_XL mute unmute;#P inlet 1 18 15 0;#P outlet 1 557 15 0;#P connect 1 0 11 0;#P connect 11 0 12 0;#P connect 22 0 13 0;#P lcolor 6;#P connect 12 0 13 0;#P fasten 20 0 18 0 257 219 6 219;#P connect 13 0 18 0;#P connect 14 0 18 0;#P fasten 17 0 18 0 212 228 6 228;#P fasten 15 0 18 0 166 238 6 238;#P connect 30 0 18 0;#P connect 36 0 18 0;#P connect 18 0 0 0;#P connect 19 0 0 0;#P connect 22 0 14 0;#P lcolor 6;#P connect 12 1 14 0;#P connect 16 0 15 0;#P connect 12 2 16 0;#P connect 16 1 17 0;#P connect 16 2 20 0;#P fasten 16 0 25 0 167 139 301 139;#P fasten 16 1 26 0 212 131 319 131;#P connect 24 0 28 0;#P connect 23 0 24 0;#P fasten 16 2 27 0 275 127 337 127;#P connect 16 4 36 0;#P connect 27 0 24 1;#P connect 26 0 24 1;#P connect 25 0 24 1;#P connect 29 0 24 1;#P connect 37 0 24 1;#P connect 16 3 29 0;#P connect 16 4 37 0;#P connect 16 3 30 0;#P connect 22 0 23 0;#P lcolor 6;#P fasten 11 1 2 0 104 62 525 62;#P connect 2 0 5 0;#P connect 2 1 6 0;#P fasten 5 0 31 0 525 251 591 251;#P connect 6 0 31 0;#P fasten 9 0 31 0 657 251 591 251;#P fasten 10 0 31 0 723 251 591 251;#P fasten 21 0 31 0 788 251 591 251;#P fasten 33 0 31 0 853 251 591 251;#P fasten 34 0 31 0 918 251 591 251;#P fasten 35 0 31 0 986 251 591 251;#P connect 31 0 32 0;#P connect 28 0 19 0;#P fasten 3 0 19 0 1053 344 591 344;#P fasten 7 0 19 0 927 329 591 329;#P connect 32 0 19 0;#P connect 2 2 9 0;#P connect 2 3 10 0;#P connect 2 4 21 0;#P connect 2 5 33 0;#P connect 2 6 34 0;#P connect 4 0 7 0;#P fasten 8 0 4 0 1119 274 928 274;#P connect 22 0 4 0;#P lcolor 6;#P fasten 31 0 4 1 591 280 945 280;#P connect 2 7 35 0;#P connect 2 8 3 0;#P connect 2 9 8 0;#P pop;#P newobj 780 163 72 196617 p Rendermode;#N thispatcher;#Q end;#P newobj 1166 118 57 196617 thispatcher;#B color 14;#N vpatcher 94 125 844 656;#P origin -146 0;#P outlet 694 463 15 0;#P window setfont "Sans Serif" 9.;#P window linecount 0;#P message 118 202 23 196617 8 1;#P newex 131 438 55 196617 delay 500;#P button 131 416 15 0;#P outlet 131 468 15 0;#P newex 183 54 54 196617 onebang 1;#P message 347 187 14 196617 8;#P message 388 188 14 196617 1;#P newex 104 57 40 196617 t b b b;#P window linecount 2;#P newex -117 328 324 196617 sprintf ViMiC Module configured for %ld microphones. Order of Reflections is set to %ld . Please reset microphone settings manually.;#P window linecount 1;#P newex -117 361 54 196617 jcom.post;#P newex 221 308 400 196617 t i b i b;#N vpatcher 10 59 610 459;#P window setfont "Sans Serif" 9.;#P newex 192 161 27 196617 - 1;#P window linecount 1;#P newex 192 188 200 196617 sprintf script connect VIMIC %ld out%ld 0;#P window linecount 0;#P newex 197 128 40 196617 uzi;#P inlet 197 73 15 0;#P outlet 191 245 15 0;#P connect 3 0 0 0;#P connect 2 2 4 0;#P connect 4 0 3 0;#P connect 1 0 2 0;#P connect 2 2 3 1;#P pop;#P newobj 221 355 111 196617 p connect_from_vimic;#N vpatcher 595 437 1195 837;#P origin 0 -16;#P window setfont "Sans Serif" 9.;#P message 309 159 147 196617 script connect Vol0 0 VIMIC 0;#P newex 135 43 30 196617 t b b;#P message 98 158 185 196617 script connect main_through 0 VIMIC 0;#P outlet 94 296 15 0;#P inlet 133 21 15 0;#P connect 2 0 1 0;#P connect 4 0 1 0;#P connect 3 0 2 0;#P connect 0 0 3 0;#P connect 3 1 4 0;#P pop;#P newobj 351 355 98 196617 p connect_to_vimic;#N vpatcher 264 349 864 749;#P inlet 209 37 15 0;#P window setfont "Sans Serif" 9.;#P newex 226 109 27 196617 i 1;#P newex 57 67 27 196617 t i b;#P inlet 57 37 15 0;#P outlet 99 313 15 0;#P newex 88 198 346 196617 sprintf script new VIMIC newex 92 635 105 196617 VimicMax~ %ld %ld \;;#P connect 2 0 3 0;#P connect 3 0 0 0;#P connect 0 0 1 0;#P connect 3 1 4 0;#P connect 5 0 4 1;#P connect 4 0 0 1;#P pop;#P newobj 481 355 78 196617 p create_vimic;#N vpatcher 573 261 1173 661;#P window setfont "Sans Serif" 9.;#P message 108 136 96 196617 script delete VIMIC;#P outlet 108 266 15 0;#P inlet 108 69 15 0;#P connect 0 0 2 0;#P connect 2 0 1 0;#P pop;#P newobj 611 355 76 196617 p delete_vimic;#P newex 377 129 27 196617 t b i;#P newex 221 259 58 196617 unpack 8 1;#P newex 221 230 175 196617 if $i1 != $i3 || $i2 !=$i4 then $i1 $i2;#P window linecount 2;#P comment 316 47 134 196617 Changes can not take place while audio is running;#P window linecount 1;#P newex 162 120 31 196617 == 0;#P newex 221 204 47 196617 gate 1 0;#P newex 104 120 32 196617 sel 0;#P newex 104 87 54 196617 dspstate~;#P newex 249 172 27 196617 i 8;#P newex 249 90 266 196617 jcom.oscroute /microphones/amount /reflections/order;#P inlet 249 60 15 0;#P outlet 375 460 15 0;#P connect 10 0 18 0;#P connect 18 0 17 0;#P connect 22 0 19 0;#P connect 19 0 4 0;#P connect 4 0 5 0;#P connect 10 0 24 0;#P connect 24 0 25 0;#P connect 25 0 23 0;#P fasten 4 0 7 0 109 110 167 110;#P connect 2 0 22 0;#P connect 10 1 18 1;#P connect 7 0 6 0;#P connect 6 0 9 0;#P connect 26 0 10 0;#P connect 9 0 10 0;#P connect 10 0 16 0;#P connect 16 0 15 0;#P connect 1 0 2 0;#P connect 2 0 3 0;#P connect 5 0 3 0;#P connect 11 0 3 0;#P connect 3 0 6 1;#P connect 11 1 9 1;#P connect 21 0 9 2;#P fasten 10 0 9 2 226 281 418 281 418 220 336 220;#P connect 19 1 21 0;#P connect 16 1 14 0;#P connect 14 0 0 0;#P connect 13 0 0 0;#P connect 12 0 0 0;#P connect 15 0 0 0;#P connect 2 1 11 0;#P fasten 10 1 9 3 274 278 415 278 415 223 391 223;#P connect 20 0 9 3;#P connect 19 2 20 0;#P connect 16 2 13 0;#P connect 10 1 13 1;#P lcolor 9;#P connect 16 3 12 0;#P connect 16 2 27 0;#P pop;#P newobj 1106 94 99 196617 p scripting;#B color 14;#P outlet 208 678 15 0;#P objectname out16;#P outlet 189 678 15 0;#P objectname out15;#P outlet 169 678 15 0;#P objectname out14;#P outlet 150 678 15 0;#P objectname out13;#P outlet 130 678 15 0;#P objectname out12;#P outlet 111 678 15 0;#P objectname out11;#P outlet 91 678 15 0;#P objectname out10;#P outlet 72 678 15 0;#P objectname out9;#N vpatcher 104 44 1384 796;#P origin 0 32;#P window setfont "Sans Serif" 9.;#P newex 1043 76 34 196617 defer;#P newex 382 651 50 196617 deferlow;#P inlet 1121 53 15 0;#P newex 688 378 40 196617 uzi;#P objectname microphone-uzi;#P window linecount 1;#P message 508 449 52 196617 \$1 \$1 \$2;#P message 435 448 52 196617 \$1 \$1 \$2;#P message 362 448 67 196617 \$1 \$1 \$2 \$3;#P window linecount 0;#P message 289 449 49 196617 \$1 \$1 \$2 \$3 \$4;#P window linecount 1;#P newex 508 609 89 196617 prepend /MicGain;#P newex 436 585 104 196617 prepend /Directivity;#P newex 369 564 95 196617 prepend /MicAngle;#P window linecount 0;#P newex 289 541 86 196617 prepend /MicPos;#P inlet 1094 53 15 0;#P message 620 403 33 196617 dump;#P newex 620 424 53 196617 t i i i i;#P window linecount 1;#N coll ;#P newobj 508 496 53 196617 coll;#N coll ;#P newobj 435 495 53 196617 coll;#N coll ;#P newobj 369 494 53 196617 coll;#P newex 289 429 304 196617 jcom.oscroute /MicPos /MicAngle /Directivity /MicGain;#N coll ;#P newobj 289 493 53 196617 coll;#P window linecount 0;#P newex 819 186 51 196617 zl slice 1;#P newex 819 218 68 196617 jcom.miditoa;#P message 819 250 81 196617 /MicGain 99 \$1;#P message 392 108 123 196617 /3/directivity/ratio 0.4;#P inlet 195 16 15 0;#P outlet 261 690 15 0;#P window linecount 1;#P message 151 227 82 196617 /MicZpos 99 \$1;#P message 137 246 83 196617 /MicYpos 99 \$1;#P message 109 286 105 196617 /MicPos 99 \$1$2 \$3;#P message 431 203 102 196617 /MicAziAngle 99 \$1;#P newex 431 181 116 196617 route azimuth elevation;#P message 441 222 100 196617 /MicEleAngle 99 \$1;#P message 123 264 83 196617 /MicXpos 99 \$1;#P newex 51 261 59 196617 t b i;#P newex 227 348 187 196617 zl reg;#P message 261 376 31 196617 2 \$1;#P newex 227 405 44 196617 zl nth 2;#P message 625 207 96 196617 /Directivity 99 \$1;#P message 454 239 102 196617 /MicAngle 99 \$1 \$2;#P message 221 207 108 196617 /MicPos 99 \$1 \$2 \$3;#P newex 109 185 122 196617 route xyz x y z aed a e d;#P newex 207 98 115 196617 loadmess substitute " ";#P newex 625 183 56 196617 route ratio;#P newex 196 140 51 196617 zl slice 1;#P newex 237 161 789 196617 route position angle directivity gain;#P newex 196 119 66 196617 regexp /;#P window linecount 0;#P comment 710 447 100 196617 the colls store the microphone presets in case the Vimic module gets recreated.;#P fasten 3 0 13 0 201 162 56 162;#P fasten 2 0 6 0 242 181 114 181;#P connect 6 0 18 0;#P connect 6 1 14 0;#P connect 6 2 19 0;#P connect 6 3 20 0;#P connect 5 0 1 0;#P connect 22 0 1 0;#P connect 23 0 1 0;#P connect 1 0 3 0;#P connect 6 8 7 0;#P fasten 13 0 12 0 56 344 232 344;#P connect 12 0 10 0;#P connect 3 1 2 0;#P fasten 13 1 11 0 105 370 266 370;#P connect 11 0 10 1;#P connect 45 0 21 0;#P connect 10 1 21 0;#P connect 10 1 28 0;#P connect 28 0 39 0;#P fasten 32 0 27 0 625 478 294 478;#P connect 39 0 27 0;#P connect 27 0 35 0;#P connect 28 1 40 0;#P fasten 32 1 29 0 639 482 374 482;#P connect 40 0 29 0;#P connect 29 0 36 0;#P connect 35 0 45 0;#P connect 36 0 45 0;#P connect 37 0 45 0;#P connect 38 0 45 0;#P fasten 18 0 12 1 114 338 409 338;#P fasten 14 0 12 1 128 338 409 338;#P fasten 19 0 12 1 142 339 409 339;#P fasten 20 0 12 1 156 338 409 338;#P fasten 17 0 12 1 436 260 409 260;#P fasten 15 0 12 1 446 262 409 262;#P fasten 8 0 12 1 459 261 409 261;#P fasten 7 0 12 1 226 224 409 224;#P fasten 9 0 12 1 630 262 409 262;#P fasten 24 0 12 1 824 277 409 277;#P connect 2 1 16 0;#P connect 16 0 17 0;#P connect 28 2 41 0;#P fasten 32 2 30 0 653 488 440 488;#P connect 41 0 30 0;#P connect 30 0 37 0;#P connect 16 1 15 0;#P connect 16 2 8 0;#P connect 28 3 42 0;#P fasten 32 3 31 0 667 492 513 492;#P connect 42 0 31 0;#P connect 31 0 38 0;#P connect 43 2 32 0;#P connect 33 0 32 0;#P connect 2 2 4 0;#P connect 4 0 9 0;#P connect 46 0 43 0;#P lcolor 6;#P connect 44 0 43 1;#P connect 2 3 26 0;#P connect 26 1 25 0;#P connect 25 0 24 0;#P connect 34 0 46 0;#P lcolor 6;#P pop;#P newobj 1133 295 104 196617 p microphone-parser;#N vpatcher 20 74 620 474;#P inlet 212 39 15 0;#P outlet 207 215 15 0;#P connect 1 0 0 0;#P pop;#P newobj 719 195 52 196617 p through;#P outlet 51 678 15 0;#P objectname out8;#P outlet 32 678 15 0;#P objectname out7;#P outlet 12 678 15 0;#P objectname out6;#P outlet -7 678 15 0;#P objectname out5;#P outlet -27 678 15 0;#P objectname out4;#P outlet -46 678 15 0;#P objectname out3;#P outlet -66 678 15 0;#P objectname out2;#P outlet -85 678 15 0;#P objectname out1;#P message 654 164 61 196617 /Report \$1;#P newex 877 332 31 196617 float;#P newex 1011 326 56 196617 vexpr $f1;#P newex 966 278 31 196617 float;#P newex 837 274 31 196617 float;#P newex 319 269 31 196617 float;#P newex 154 355 56 196617 vexpr $f1;#P newex 154 334 31 196617 float;#P newex 153 311 31 196617 float;#P newex 154 282 31 196617 float;#N vpatcher 20 74 620 474;#P outlet 233 233 15 0;#P inlet 229 76 15 0;#P connect 0 0 1 0;#P pop;#P newobj 294 445 52 196617 p through;#P message 146 396 104 196617 /RoomSize \$1 \$2 \$3;#P message 196 337 83 196617 /RoomHeight \$1;#P message 196 318 80 196617 /RoomDepth \$1;#P message 196 298 80 196617 /RoomWidth \$1;#P newex 196 267 118 196617 jcom.oscroute /x /y /z;#N vpatcher 20 74 620 474;#P outlet 233 233 15 0;#P inlet 229 76 15 0;#P connect 0 0 1 0;#P pop;#P newobj 885 422 52 196617 p through;#P message 719 164 59 196617 /ReportAll;#P comment 605 233 67 196617 /reflections;#P window linecount 2;#P newex 596 248 183 196617 jcom.oscroute /1st/gain/midi /2nd/gain/midi /airfilter;#P window linecount 1;#P newex 389 247 203 196617 jcom.oscroute /position /gain /orientation;#P comment 398 232 45 196617 /source;#P message 1008 346 119 196617 /ArrayCenter \$1 \$2 \$3;#P message 877 353 115 196617 /MicCenterDistance \$1;#P newex 922 304 193 196617 jcom.oscroute /circle/diameter /center;#P message 1014 277 81 196617 /Directivity \$1;#P message 838 294 64 196617 /DirPow \$1;#P comment 844 234 80 196617 /microphones;#P newex 837 255 306 196617 jcom.oscroute /direct/power /array /directivity/ratio /amount;#P comment 206 232 49 196617 /room;#N vpatcher 20 74 620 474;#P window setfont "Sans Serif" 9.;#P newex 549 158 27 196617 t b l;#P inlet 549 30 15 0;#P window linecount 1;#N vpatcher 10 59 610 459;#P outlet 129 236 15 0;#P window setfont "Sans Serif" 9.;#P newex 129 93 27 196617 int;#P newex 129 73 84 196617 expr 1000.0/$f1;#P inlet 129 30 15 0;#P connect 0 0 1 0;#P connect 1 0 2 0;#P connect 2 0 3 0;#P pop;#P newobj 346 69 63 196617 p Hz_to_ms;#P inlet 445 30 15 0;#P inlet 346 30 15 0;#P window linecount 0;#P newex 273 117 70 196617 speedlim 100;#P newex 212 81 30 196617 t b l;#P inlet 212 30 15 0;#P outlet 232 213 15 0;#P comment 453 52 58 196617 bang from external source;#P comment 502 188 78 196617 Priority inlet;#P connect 3 0 4 0;#P connect 5 0 2 0;#P fasten 7 0 2 0 450 172 237 172;#P connect 10 1 2 0;#P connect 10 0 2 0;#P connect 4 1 2 0;#P connect 4 0 5 0;#P connect 8 0 5 1;#P connect 6 0 8 0;#P connect 9 0 10 0;#P pop;#P newobj 294 577 80 196617 p through&bang;#P objectname main_through;#P message 311 290 64 196617 /DisPow \$1;#P newex 196 247 181 196617 jcom.oscroute /size /distance/power;#P newex 218 143 756 196617 jcom.oscroute /room /microphones /source /direct/gain/midi /reflections /reverb /temperature /report /report_all /rendermode /warning /renderintervall;#P inlet 218 42 15 0;#P inlet -85 191 15 0;#P objectname Vol0;#P user panel 152 226 228 199;#X brgb 191 191 191;#X frgb 0 0 0;#X border 1;#X rounded 0;#X shadow 0;#X done;#P user panel 595 229 237 209;#X brgb 191 191 191;#X frgb 0 0 0;#X border 1;#X rounded 0;#X shadow 0;#X done;#P user panel 382 227 211 233;#X brgb 191 191 191;#X frgb 0 0 0;#X border 1;#X rounded 0;#X shadow 0;#X done;#P background;#P user panel 836 230 419 241;#X brgb 191 191 191;#X frgb 0 0 0;#X border 1;#X rounded 0;#X shadow 0;#X done;#P background;#P newex 86 616 105 196617 VimicMax~ 8 1;#P objectname VIMIC;#P connect 0 0 41 0;#P connect 0 1 42 0;#P connect 0 2 43 0;#P connect 0 3 44 0;#P connect 0 4 45 0;#P connect 0 5 46 0;#P connect 0 6 47 0;#P connect 0 7 48 0;#P connect 10 0 0 0;#P connect 5 0 0 0;#P connect 7 0 71 0;#P hidden connect 64 0 29 0;#P lcolor 6;#P connect 25 3 29 0;#P connect 34 0 29 0;#P connect 25 1 32 0;#P connect 25 0 31 0;#P connect 25 2 33 0;#P connect 25 3 34 0;#P connect 71 1 8 0;#P connect 8 0 25 0;#P connect 31 0 26 0;#P connect 32 0 27 0;#P connect 33 0 28 0;#P connect 6 0 7 0;#P connect 73 0 30 0;#P connect 9 0 30 0;#P connect 29 0 30 0;#P connect 28 0 30 0;#P connect 27 0 30 0;#P connect 26 0 30 0;#P connect 71 0 30 0;#P connect 30 0 10 0;#P fasten 24 0 10 0 890 554 299 554;#P hidden connect 64 0 9 0;#P lcolor 6;#P connect 35 0 9 0;#P connect 66 0 10 1;#P connect 8 1 35 0;#P connect 66 1 10 2;#P connect 83 0 10 3;#P connect 70 0 10 3;#P lcolor 16;#P connect 7 3 62 0;#P connect 62 0 73 0;#P fasten 7 2 20 0 347 218 394 218;#P connect 20 0 68 0;#P connect 68 0 70 0;#P connect 69 0 70 0;#P connect 7 12 66 0;#P lcolor 5;#P hidden connect 64 0 68 1;#P lcolor 6;#P connect 20 2 69 0;#P connect 64 0 89 0;#P lcolor 6;#P connect 7 6 89 0;#P connect 89 0 88 0;#P connect 63 0 72 0;#P fasten 7 4 21 0 471 206 601 206;#P connect 21 0 63 0;#P connect 21 1 85 0;#P connect 85 0 82 0;#P hidden connect 64 0 40 0;#P lcolor 6;#P connect 7 7 40 0;#P connect 64 0 87 0;#P lcolor 6;#P connect 21 2 87 0;#P connect 87 0 91 0;#P connect 91 0 90 0;#P connect 90 0 86 0;#P connect 7 8 23 0;#P connect 88 0 49 0;#P connect 23 0 49 0;#P connect 40 0 49 0;#P connect 67 0 49 0;#P connect 61 0 49 0;#P connect 84 0 49 0;#P connect 7 9 61 0;#P fasten 7 1 12 0 285 222 842 222;#P connect 12 0 36 0;#P hidden connect 64 0 14 0;#P lcolor 6;#P connect 36 0 14 0;#P hidden connect 64 0 61 1;#P lcolor 6;#P hidden connect 64 0 67 0;#P lcolor 6;#P connect 7 10 67 0;#P connect 16 0 39 0;#P connect 39 0 17 0;#P connect 86 0 24 0;#P connect 18 0 24 0;#P connect 17 0 24 0;#P connect 15 0 24 0;#P connect 14 0 24 0;#P connect 49 0 24 0;#P fasten 50 0 24 0 1138 419 890 419;#P connect 82 0 24 0;#P connect 72 0 24 0;#P connect 12 1 16 0;#P connect 64 0 84 0;#P lcolor 6;#P connect 7 11 84 0;#P connect 12 2 37 0;#P connect 38 0 18 0;#P connect 16 1 38 0;#P connect 37 0 15 0;#P hidden connect 64 0 15 0;#P lcolor 6;#P fasten 6 0 59 0 223 75 1111 75;#P connect 59 0 65 0;#P connect 12 4 50 0;#P connect 59 1 60 0;#P connect 93 0 50 1;#P lcolor 6;#P connect 59 2 50 2;#P pop;