max v2;#N vpatcher 125 51 1395 807;#P origin 87 -63;#P window setfont "Sans Serif" 9.;#P newex 916 615 61 196617 r $0_reset;#B color 5;#P newex 317 272 27 196617 f;#P message 318 294 87 196617 /temperature \$1;#P message 858 530 72 196617 /Warnings \$1;#P newex 916 635 50 196617 deferlow;#B color 5;#N vpatcher 271 193 1541 862;#P window setfont "Sans Serif" 9.;#P window linecount 0;#P message 451 122 101 196617 /Renderintervall \$1;#N vpatcher 363 216 963 616;#P window setfont "Sans Serif" 9.;#P newex 83 50 111 196617 jcom.oscroute /active;#P message 83 142 89 196617 /minSensiFlag \$1;#P message 184 142 71 196617 /minSensi \$1;#P newex 184 78 47 196617 * 0.001;#P inlet 414 34 15 0;#P inlet 83 30 15 0;#P outlet 83 193 15 0;#P connect 1 0 6 0;#P connect 2 0 5 0;#P lcolor 6;#P connect 6 0 5 0;#P connect 4 0 0 0;#P connect 5 0 0 0;#P connect 6 1 3 0;#P connect 3 0 4 0;#P connect 2 0 4 0;#P lcolor 6;#P pop;#P newobj 301 118 87 196617 p threshold-stuff;#N vpatcher 10 59 610 459;#P window setfont "Sans Serif" 9.;#P message 378 91 14 196617 4;#P message 116 167 84 196617 /RenderType \$1;#N vpatcher 10 59 610 459;#P outlet 229 223 15 0;#P inlet 224 93 15 0;#P connect 0 0 1 0;#P pop;#P newobj 116 128 40 196617 p thru;#P message 313 91 14 196617 6;#N vpatcher 10 59 610 459;#P inlet 222 83 15 0;#P outlet 217 238 15 0;#P connect 1 0 0 0;#P pop;#P newobj 116 219 37 196617 p thru;#P message 248 91 14 196617 5;#P message 182 91 14 196617 3;#P newex 512 103 43 196617 delay 5;#P message 511 178 84 196617 /RenderType \$1;#P message 116 91 14 196617 2;#P message 50 91 14 196617 1;#P newex 512 156 27 196617 i 1;#P message 407 92 78 196617 /RenderType 0;#P newex 55 50 540 196617 sel ViMiC_lite Panning X-fade_lite ViMiC_XL Static X-fade_XL mute unmute;#P inlet 512 136 15 0;#P inlet 55 30 15 0;#P outlet 116 241 15 0;#P connect 3 0 6 0;#P connect 1 0 3 0;#P connect 3 1 7 0;#P fasten 16 0 14 0 383 123 121 123;#P fasten 13 0 14 0 318 123 121 123;#P fasten 11 0 14 0 253 123 121 123;#P fasten 10 0 14 0 187 123 121 123;#P connect 7 0 14 0;#P fasten 6 0 14 0 55 123 121 123;#P connect 14 0 15 0;#P connect 15 0 12 0;#P fasten 8 0 12 0 516 201 121 201;#P fasten 4 0 12 0 412 216 121 216;#P connect 12 0 0 0;#P connect 3 2 10 0;#P connect 3 3 11 0;#P connect 3 4 13 0;#P connect 3 5 16 0;#P connect 3 6 4 0;#P connect 5 0 8 0;#P connect 3 7 9 0;#P connect 2 0 5 0;#P fasten 9 0 5 0 517 142 517 142;#P fasten 14 0 5 1 121 152 534 152;#P pop;#P newobj 601 118 98 196617 p RenderType-stuff;#P message 151 118 117 196617 /normalizeSensiFlag \$1;#N vpatcher 10 59 806 591;#P origin 0 -4;#P window setfont "Sans Serif" 9.;#P message 698 331 14 196617 5;#P message 711 173 111 196617 /xfade/fadefunction 5;#N vpatcher 10 59 610 459;#P inlet 222 83 15 0;#P outlet 217 238 15 0;#P connect 1 0 0 0;#P pop;#P newobj 538 41 37 196617 p thru;#B color 5;#P message 678 332 14 196617 4;#P message 596 172 111 196617 /xfade/fadefunction 4;#P message 459 171 111 196617 /xfade/fadefunction 3;#P message 661 331 14 196617 3;#P message 560 382 117 196617 /xfade/fadefunction \$1;#P message 646 331 14 196617 2;#P message 628 331 14 196617 0;#P message 610 332 14 196617 1;#P newex 561 362 68 196617 i 0;#P newex 555 335 49 196617 delay 10;#P message 340 171 111 196617 /xfade/fadefunction 2;#N vpatcher 10 59 610 459;#P inlet 222 83 15 0;#P outlet 217 238 15 0;#P connect 1 0 0 0;#P pop;#P newobj 45 464 37 196617 p thru;#P message 222 171 111 196617 /xfade/fadefunction 0;#P newex 211 84 544 196617 sel cosine_squared cosine linear tanh sqrt test;#P message 106 173 111 196617 /xfade/fadefunction 1;#P message 71 128 104 196617 /xfade/threshold \$1;#P message 50 105 108 196617 /xfade/fadelength \$1;#P newex 50 54 244 196617 jcom.oscroute /fadelength /threshold /fadefunction;#P inlet 538 21 15 0;#P inlet 50 34 15 0;#P outlet 45 486 15 0;#P connect 16 0 9 0;#P connect 19 0 9 0;#P connect 18 0 9 0;#P fasten 6 0 9 0 111 218 50 218;#P fasten 8 0 9 0 227 208 50 208;#P connect 5 0 9 0;#P connect 4 0 9 0;#P fasten 10 0 9 0 345 199 50 199;#P connect 9 0 0 0;#P connect 1 0 3 0;#P connect 21 0 4 0;#P lcolor 6;#P connect 3 0 4 0;#P connect 21 0 5 0;#P lcolor 6;#P connect 3 1 5 0;#P connect 7 0 6 0;#P connect 3 2 7 0;#P connect 7 1 8 0;#P connect 7 2 10 0;#P connect 7 3 18 0;#P connect 2 0 21 0;#P connect 21 0 11 0;#P lcolor 6;#P connect 12 0 16 0;#P connect 11 0 12 0;#P connect 7 4 19 0;#P fasten 7 0 13 0 216 325 615 325;#P connect 20 0 12 1;#P connect 17 0 12 1;#P connect 13 0 12 1;#P connect 14 0 12 1;#P connect 15 0 12 1;#P connect 23 0 12 1;#P fasten 7 1 14 0 305 306 633 306;#P fasten 7 2 15 0 394 296 651 296;#P connect 7 3 17 0;#P connect 7 4 20 0;#P connect 22 0 23 0;#P connect 7 5 22 0;#P pop;#P newobj 2 118 113 196617 p x-fade stuff;#P inlet 689 40 15 0;#P window linecount 1;#P newex 1 40 613 196617 jcom.oscroute /xfade /normalization/active /threshold /intervall;#P inlet 1 18 15 0;#P outlet -1 557 15 0;#P connect 4 0 0 0;#P connect 5 0 0 0;#P connect 6 0 0 0;#P connect 7 0 0 0;#P connect 8 0 0 0;#P connect 1 0 2 0;#P connect 2 0 4 0;#P connect 3 0 4 1;#P lcolor 6;#P connect 3 0 5 0;#P lcolor 6;#P connect 2 1 5 0;#P connect 2 2 7 0;#P connect 3 0 7 1;#P lcolor 6;#P connect 3 0 8 0;#P lcolor 6;#P connect 2 3 8 0;#P connect 2 4 6 0;#P connect 3 0 6 1;#P lcolor 6;#P pop;#P newobj 775 533 72 196617 p Rendermode;#N vpatcher 20 74 620 474;#P inlet 212 39 15 0;#P outlet 207 215 15 0;#P connect 1 0 0 0;#P pop;#P newobj 753 606 52 196617 p through;#P message 642 513 61 196617 /Report \$1;#P message 709 515 59 196617 /ReportAll;#N vpatcher 129 94 729 494;#P window setfont "Sans Serif" 9.;#P window linecount 1;#P comment 255 118 100 196617 not in use;#P comment 178 120 100 196617 not in use;#P newex 362 70 56 196617 vexpr $f1;#P newex 272 70 31 196617 float;#P newex 182 70 31 196617 float;#P newex 92 70 31 196617 float;#P message 361 92 104 196617 /RoomSize \$1 \$2 \$3;#P message 272 92 83 196617 /RoomHeight \$1;#P message 182 92 80 196617 /RoomDepth \$1;#P message 92 92 80 196617 /RoomWidth \$1;#P newex 92 49 371 196617 jcom.oscroute /x /y /z /xyz;#P inlet 517 43 15 0;#P inlet 92 30 15 0;#P outlet 125 272 15 0;#P window linecount 0;#P comment 101 122 100 196617 not in use;#P connect 2 0 4 0;#P connect 4 0 9 0;#P connect 9 0 5 0;#P connect 8 0 1 0;#P connect 5 0 1 0;#P connect 6 0 1 0;#P connect 7 0 1 0;#P connect 4 1 10 0;#P connect 10 0 6 0;#P connect 4 2 11 0;#P connect 11 0 7 0;#P connect 12 0 8 0;#P connect 3 0 8 0;#P lcolor 6;#P connect 4 3 12 0;#P pop;#P newobj 207 272 36 196617 p size;#P newex 69 237 355 196617 jcom.oscroute /absorption /reflection /size /distance/power /temperature;#N vpatcher 10 59 610 459;#P origin 213 0;#P outlet 243 264 15 0;#P inlet 66 45 15 0;#P inlet 438 69 15 0;#P window setfont "Sans Serif" 9.;#P message 229 134 43 196617 \$1 500;#P newex 229 154 59 196617 line 10000;#P newex 229 115 27 196617 i;#P message 229 175 68 196617 /airfilter \$1;#P newex 130 158 68 196617 jcom.miditoa;#P message 130 178 77 196617 /ReflGain 2 \$1;#P message 43 182 77 196617 /ReflGain 1 \$1;#P newex 44 162 68 196617 jcom.miditoa;#P newex 45 84 248 196617 jcom.oscroute /1/gain/midi /2/gain/midi /airfilter;#P connect 9 0 2 0;#P lcolor 6;#P connect 1 0 2 0;#P connect 0 0 1 0;#P connect 10 0 0 0;#P connect 0 1 4 0;#P connect 9 0 3 0;#P lcolor 6;#P connect 4 0 3 0;#P connect 9 0 6 0;#P lcolor 6;#P connect 0 2 6 0;#P connect 6 0 8 0;#P connect 8 0 7 0;#P connect 7 0 5 0;#P connect 2 0 11 0;#P connect 3 0 11 0;#P connect 5 0 11 0;#P pop;#P newobj 139 272 67 196617 p reflections;#P newex 802 108 50 196617 deferlow;#B color 5;#P newex 495 136 61 196617 r $0_reset;#B color 5;#P newex 413 358 36 196617 pack l;#P newex 413 382 106 196617 prepend /getDirTable;#P message 964 129 236 196617 /xfade/fadefunction 0;#P newex 969 105 62 196617 prepend set;#P user number~ 14 711 53 726 9 3 3 2 0. 0. 0 0. 250 0. 0 0 0 221 221 221 222 222 222 0 0 0;#N vpatcher 20 74 620 474;#P outlet 233 233 15 0;#P inlet 229 76 15 0;#P connect 0 0 1 0;#P pop;#P newobj 371 614 67 196617 p VIPthrough;#P outlet 448 678 15 0;#P objectname out24;#P outlet 429 678 15 0;#P objectname out23;#P outlet 409 678 15 0;#P objectname out22;#P outlet 390 678 15 0;#P objectname out21;#P outlet 370 678 15 0;#P objectname out20;#P outlet 351 678 15 0;#P objectname out19;#P outlet 331 678 15 0;#P objectname out18;#P outlet 312 678 15 0;#P objectname out17;#P message 540 530 77 196617 /ReflGain 0 \$1;#N vpatcher 464 302 1064 702;#P inlet 533 38 15 0;#P window setfont "Sans Serif" 9.;#P window linecount 1;#N vpatcher 572 182 1172 582;#P window setfont "Sans Serif" 9.;#P window linecount 1;#P message 231 104 111 196617 /high_absorption 6 \$1;#P message 125 104 109 196617 /mid_absorption 6 \$1;#P window linecount 0;#P message 18 104 109 196617 /low_absorption 6 \$1;#P outlet 22 354 15 0;#P inlet 18 24 15 0;#P newex 18 44 349 196617 jcom.oscroute /low /mid /high /low_mid_frequency /mid_high_frequency;#P connect 1 0 0 0;#P connect 0 0 3 0;#P connect 5 0 2 0;#P connect 4 0 2 0;#P connect 3 0 2 0;#P connect 0 1 4 0;#P connect 0 2 5 0;#P pop;#P newobj 406 109 48 196617 p parser;#N vpatcher 536 180 1136 580;#P window setfont "Sans Serif" 9.;#P window linecount 1;#P message 231 104 111 196617 /high_absorption 5 \$1;#P message 125 104 109 196617 /mid_absorption 5 \$1;#P window linecount 0;#P message 18 104 109 196617 /low_absorption 5 \$1;#P outlet 22 354 15 0;#P inlet 18 24 15 0;#P newex 18 44 349 196617 jcom.oscroute /low /mid /high /low_mid_frequency /mid_high_frequency;#P connect 1 0 0 0;#P connect 0 0 3 0;#P connect 3 0 2 0;#P connect 4 0 2 0;#P connect 5 0 2 0;#P connect 0 1 4 0;#P connect 0 2 5 0;#P pop;#P newobj 354 109 48 196617 p parser;#N vpatcher 536 180 1136 580;#P window setfont "Sans Serif" 9.;#P window linecount 1;#P message 231 104 111 196617 /high_absorption 2 \$1;#P message 125 104 109 196617 /mid_absorption 2 \$1;#P window linecount 0;#P message 18 104 109 196617 /low_absorption 2 \$1;#P outlet 22 354 15 0;#P inlet 18 24 15 0;#P newex 18 44 349 196617 jcom.oscroute /low /mid /high /low_mid_frequency /mid_high_frequency;#P connect 1 0 0 0;#P connect 0 0 3 0;#P connect 5 0 2 0;#P connect 4 0 2 0;#P connect 3 0 2 0;#P connect 0 1 4 0;#P connect 0 2 5 0;#P pop;#P newobj 303 109 48 196617 p parser;#N vpatcher 536 180 1136 580;#P window setfont "Sans Serif" 9.;#P window linecount 1;#P message 231 104 111 196617 /high_absorption 1 \$1;#P message 125 104 109 196617 /mid_absorption 1 \$1;#P window linecount 0;#P message 18 104 109 196617 /low_absorption 1 \$1;#P outlet 22 354 15 0;#P inlet 18 24 15 0;#P newex 18 44 349 196617 jcom.oscroute /low /mid /high /low_mid_frequency /mid_high_frequency;#P connect 1 0 0 0;#P connect 0 0 3 0;#P connect 3 0 2 0;#P connect 4 0 2 0;#P connect 5 0 2 0;#P connect 0 1 4 0;#P connect 0 2 5 0;#P pop;#P newobj 251 109 48 196617 p parser;#N vpatcher 536 180 1136 580;#P window setfont "Sans Serif" 9.;#P window linecount 1;#P message 231 104 111 196617 /high_absorption 4 \$1;#P message 125 104 109 196617 /mid_absorption 4 \$1;#P window linecount 0;#P message 18 104 109 196617 /low_absorption 4 \$1;#P outlet 22 354 15 0;#P inlet 18 24 15 0;#P newex 18 44 349 196617 jcom.oscroute /low /mid /high /low_mid_frequency /mid_high_frequency;#P connect 1 0 0 0;#P connect 0 0 3 0;#P connect 5 0 2 0;#P connect 4 0 2 0;#P connect 3 0 2 0;#P connect 0 1 4 0;#P connect 0 2 5 0;#P pop;#P newobj 197 107 48 196617 p parser;#P window linecount 0;#N vpatcher 620 130 1220 530;#P window setfont "Sans Serif" 9.;#P window linecount 1;#P message 417 178 34 196617 3 \$1;#P message 378 179 34 196617 3 \$1;#P message 267 180 109 196617 /low_absorption 3 \$1;#P message 232 104 111 196617 /high_absorption 3 \$1;#P message 126 104 109 196617 /mid_absorption 3 \$1;#P window linecount 0;#P message 19 104 109 196617 /low_absorption 3 \$1;#P outlet 22 354 15 0;#P inlet 18 24 15 0;#P newex 18 44 349 196617 jcom.oscroute /low /mid /high /low_mid_frequency /mid_high_frequency;#P connect 1 0 0 0;#P connect 0 0 3 0;#P connect 3 0 2 0;#P connect 4 0 2 0;#P connect 5 0 2 0;#P connect 0 1 4 0;#P connect 0 2 5 0;#P pop;#P newobj 141 108 48 196617 p parser;#P newex 173 80 260 196617 jcom.oscroute /front /rear /left /right /floor /ceiling;#P outlet 210 241 15 0;#P inlet 188 31 15 0;#P connect 2 0 3 0;#P connect 0 0 2 0;#P connect 2 1 4 0;#P connect 8 0 1 0;#P connect 7 0 1 0;#P connect 6 0 1 0;#P connect 5 0 1 0;#P connect 4 0 1 0;#P connect 3 0 1 0;#P connect 2 2 5 0;#P connect 2 3 6 0;#P connect 2 4 7 0;#P connect 2 5 8 0;#P pop;#P newobj 69 272 62 196617 p absorpton;#N vpatcher 20 74 620 474;#P outlet 233 233 15 0;#P inlet 229 76 15 0;#P connect 0 0 1 0;#P pop;#P newobj 496 433 67 196617 p VIPthrough;#N vpatcher 498 196 1098 596;#P window setfont "Sans Serif" 9.;#P newex 371 191 145 196617 print follow doesn't work now;#P inlet 544 52 15 0;#P message 291 47 131 196617;#P newex 290 22 62 196617 prepend set;#P window linecount 1;#P message 53 264 129 196617 /sourceDirectivityFlag \$1;#N vpatcher 496 201 1096 601;#P window setfont "Sans Serif" 9.;#P newex 221 50 70 196617 speedlim 100;#P message 369 21 72 196617 xyz 1 1. 1. 0.;#P newex 451 244 51 196617 zl slice 2;#P user ambimonitor 368 38 200 200 0 0 0 0 0 0 777;#X rgb1 0 0 0;#X rgb2 0 0 0;#X rgb3 0 0 0;#X rgb4 235 235 117;#X rgb5 196 196 196;#X rgb6 255 255 255;#X rgb7 176 176 243;#X rgb8 117 117 255;#P window linecount 1;#P newex 261 100 27 196617 t f f;#P newex 263 122 27 196617 - 0.;#P window linecount 0;#P newex 219 100 27 196617 t f f;#P newex 219 123 27 196617 - 0.;#P newex 219 74 54 196617 unpack f f;#P message 288 306 43 196617 1. 1. 0. 1;#P newex 218 259 40 196617 % 360;#P newex 218 235 37 196617 + 180;#P inlet 221 30 15 0;#P outlet 218 300 15 0;#P connect 2 0 3 0;#P connect 3 0 0 0;#P connect 11 1 5 0;#P connect 13 0 5 0;#P connect 5 0 7 0;#P connect 7 1 6 0;#P connect 1 0 13 0;#P connect 7 0 6 1;#P connect 5 1 9 0;#P connect 9 1 8 0;#P connect 9 0 8 1;#P connect 12 0 10 0;#P connect 10 1 11 0;#P pop;#P newobj 312 195 46 196617 p follow;#P message 302 154 14 196617 2;#P message 187 154 14 196617 0;#P window linecount 0;#P message 257 154 14 196617 0;#P window linecount 1;#P newex 187 175 47 196617 gate 1 1;#P window linecount 0;#N vpatcher 10 59 610 459;#P window setfont "Sans Serif" 9.;#P newex 50 50 27 196617 t i i;#P newex 50 136 27 196617 +;#P newex 67 105 38 196617 * 360;#P newex 67 78 27 196617 < 0;#P inlet 50 30 15 0;#P outlet 50 158 15 0;#P connect 1 0 5 0;#P connect 5 0 4 0;#P connect 4 0 0 0;#P connect 5 1 2 0;#P connect 2 0 3 0;#P connect 3 0 4 1;#P pop;#P newobj 187 198 44 196617 p static;#P newex 258 174 64 196617 gate 2 0;#P inlet 471 50 15 0;#N vpatcher 10 59 439 368;#P window setfont "Sans Serif" 9.;#P newex 130 82 29 196617 * 4.;#P newex 75 117 65 196617 * 3.141593;#P newex 130 62 29 196617 atan;#P newex 130 41 63 196617 loadmess 1.;#P newex 75 96 35 196617 atan2;#P message 75 77 37 196617 \$1 \$2;#P newex 75 163 40 196617 % 360;#P newex 75 141 46 196617 + 180.5;#P message 156 183 20 196617 \$1;#P newex 156 161 73 196617 jcom.xyz2aed;#P inlet 75 35 15 0;#P outlet 75 204 15 0;#P comment 141 102 62 196617 gives us Pi;#P connect 2 0 7 0;#P connect 7 0 8 0;#P connect 8 0 11 0;#P connect 11 0 5 0;#P connect 5 0 6 0;#P connect 6 0 1 0;#P connect 9 0 10 0;#P connect 10 0 12 0;#P connect 12 0 11 1;#P connect 3 0 4 0;#P pop;#P newobj 258 195 47 196617 p center;#P window linecount 1;#P message 282 154 14 196617 1;#P window linecount 0;#P message 221 154 14 196617 1;#P newex 181 68 115 196617 sel static center follow;#P window linecount 1;#P message 422 320 100 196617 /SourceEleAngle \$1;#P window linecount 0;#P message 394 271 102 196617 /SourceAziAngle \$1;#P newex 53 47 223 196617 jcom.oscroute /active /azimuth/degree /mode;#P outlet 53 301 15 0;#P inlet 53 25 15 0;#P connect 0 0 2 0;#P fasten 20 0 17 0 549 256 58 256;#P lcolor 6;#P connect 2 0 17 0;#P connect 17 0 1 0;#P fasten 3 0 1 0 399 293 58 293;#P connect 2 2 5 0;#P connect 5 2 14 0;#P connect 5 1 14 0;#P connect 6 0 12 0;#P connect 14 0 12 0;#P connect 12 0 11 0;#P connect 5 0 6 0;#P connect 2 1 12 1;#P connect 5 0 13 0;#P connect 13 0 10 0;#P connect 7 0 10 0;#P connect 15 0 10 0;#P connect 10 0 8 0;#P connect 5 1 7 0;#P connect 2 2 18 0;#P connect 18 0 19 0;#P connect 5 2 15 0;#P connect 9 0 10 1;#P connect 10 1 16 0;#P connect 10 1 21 0;#P connect 8 0 3 0;#P connect 11 0 3 0;#P connect 16 0 3 0;#P fasten 20 0 3 0 549 249 399 249;#P lcolor 6;#P pop;#P newobj 469 344 110 196617 p orientation;#N vpatcher 267 60 1029 753;#P outlet 285 360 15 0;#P window setfont "Sans Serif" 9.;#P newex 253 140 73 196617 jcom.aed2xyz;#P message 426 192 147 196617 /SourcePosAbsolute \$1 \$2 \$3;#P message 158 200 121 196617 /SourceZposAbsolute \$1;#P message 157 181 122 196617 /SourceYposAbsolute \$1;#P message 157 164 122 196617 /SourceXposAbsolute \$1;#P newex 160 117 168 196617 jcom.oscroute /x /y /z /aed /xyz;#N vpatcher 20 74 620 474;#P outlet 233 233 15 0;#P inlet 229 76 15 0;#P connect 0 0 1 0;#P pop;#P newobj -3 221 52 196617 p through;#P message 200 85 108 196617 /SourcePos \$1 \$2 \$3;#P message 74 101 82 196617 /SourceZpos \$1;#P message 59 81 83 196617 /SourceYpos \$1;#P message 48 61 83 196617 /SourceXpos \$1;#P newex 48 41 164 196617 jcom.oscroute /x /y /z /absolute;#P inlet 426 19 15 0;#P inlet 48 21 15 0;#P outlet 106 361 15 0;#P connect 4 0 8 0;#P connect 5 0 8 0;#P connect 6 0 8 0;#P connect 7 0 8 0;#P connect 10 0 8 0;#P connect 11 0 8 0;#P connect 12 0 8 0;#P fasten 13 0 8 0 431 224 2 224;#P connect 1 0 3 0;#P connect 3 0 4 0;#P connect 3 1 5 0;#P connect 3 2 6 0;#P connect 8 0 0 0;#P connect 9 0 10 0;#P connect 9 1 11 0;#P connect 9 2 12 0;#P connect 3 3 9 0;#P connect 3 4 7 0;#P connect 9 3 14 0;#P connect 9 4 15 0;#P connect 14 0 15 0;#P connect 2 0 13 0;#P connect 9 4 13 0;#P connect 14 0 13 0;#P pop;#P newobj 526 310 53 196617 p position;#P newex 421 485 562 196617 jcom.oscroute /updaterate /update /direct/gain/midi /report /report_all /rendermode /warning;#P newex 803 131 57 196617 s $0_reset;#B color 5;#P newex 495 156 50 196617 deferlow;#B color 5;#P newex 540 510 68 196617 jcom.miditoa;#N thispatcher;#Q end;#P newobj 862 109 57 196617 thispatcher;#B color 14;#N vpatcher 409 201 1159 732;#P origin -146 0;#P outlet 694 463 15 0;#P window setfont "Sans Serif" 9.;#P window linecount 0;#P message 118 202 23 196617 8 1;#P newex 131 438 55 196617 delay 500;#P button 131 416 15 0;#P outlet 131 468 15 0;#P newex 183 54 54 196617 onebang 1;#P message 347 187 14 196617 8;#P message 388 188 14 196617 1;#P newex 104 57 40 196617 t b b b;#P window linecount 2;#P newex -117 328 324 196617 sprintf ViMiC Module configured for %ld microphones. Order of Reflections is set to %ld . Please reset microphone settings manually.;#P window linecount 1;#P newex -117 361 54 196617 jcom.post;#P newex 221 308 400 196617 t i b i b;#N vpatcher 10 59 610 459;#P window setfont "Sans Serif" 9.;#P newex 192 161 27 196617 - 1;#P window linecount 1;#P newex 192 188 200 196617 sprintf script connect VIMIC %ld out%ld 0;#P window linecount 0;#P newex 197 128 40 196617 uzi;#P inlet 197 73 15 0;#P outlet 191 245 15 0;#P connect 3 0 0 0;#P connect 2 2 4 0;#P connect 4 0 3 0;#P connect 1 0 2 0;#P connect 2 2 3 1;#P pop;#P newobj 221 355 111 196617 p connect_from_vimic;#N vpatcher 595 437 1195 837;#P origin 0 -16;#P window setfont "Sans Serif" 9.;#P message 309 159 147 196617 script connect Vol0 0 VIMIC 0;#P newex 135 43 30 196617 t b b;#P message 98 158 185 196617 script connect main_through 0 VIMIC 0;#P outlet 94 296 15 0;#P inlet 133 21 15 0;#P connect 4 0 1 0;#P connect 2 0 1 0;#P connect 3 0 2 0;#P connect 0 0 3 0;#P connect 3 1 4 0;#P pop;#P newobj 351 355 98 196617 p connect_to_vimic;#N vpatcher 264 349 864 749;#P inlet 209 37 15 0;#P window setfont "Sans Serif" 9.;#P newex 226 109 27 196617 i 1;#P newex 57 67 27 196617 t i b;#P inlet 57 37 15 0;#P outlet 99 313 15 0;#P newex 88 198 346 196617 sprintf script new VIMIC newex 92 635 105 196617 VimicMax~ %ld %ld \;;#P connect 2 0 3 0;#P connect 3 0 0 0;#P connect 0 0 1 0;#P connect 3 1 4 0;#P connect 5 0 4 1;#P connect 4 0 0 1;#P pop;#P newobj 481 355 78 196617 p create_vimic;#N vpatcher 573 261 1173 661;#P window setfont "Sans Serif" 9.;#P message 108 136 96 196617 script delete VIMIC;#P outlet 108 266 15 0;#P inlet 108 69 15 0;#P connect 0 0 2 0;#P connect 2 0 1 0;#P pop;#P newobj 611 355 76 196617 p delete_vimic;#P newex 377 129 27 196617 t b i;#P newex 221 259 58 196617 unpack 8 1;#P newex 221 230 175 196617 if $i1 != $i3 || $i2 !=$i4 then $i1 $i2;#P window linecount 2;#P comment 316 47 134 196617 Changes can not take place while audio is running;#P window linecount 1;#P newex 162 120 31 196617 == 0;#P newex 221 204 47 196617 gate 1 0;#P newex 104 120 32 196617 sel 0;#P newex 104 87 54 196617 dspstate~;#P newex 249 172 27 196617 i 8;#P newex 249 90 290 196617 jcom.oscroute /microphones/amount /room/reflection/order;#P inlet 249 60 15 0;#P outlet 375 460 15 0;#P connect 10 0 18 0;#P connect 18 0 17 0;#P connect 22 0 19 0;#P connect 19 0 4 0;#P connect 4 0 5 0;#P connect 10 0 24 0;#P connect 24 0 25 0;#P connect 25 0 23 0;#P fasten 4 0 7 0 109 110 167 110;#P connect 2 0 22 0;#P connect 10 1 18 1;#P connect 7 0 6 0;#P connect 6 0 9 0;#P connect 9 0 10 0;#P connect 26 0 10 0;#P connect 10 0 16 0;#P connect 16 0 15 0;#P connect 1 0 2 0;#P connect 2 0 3 0;#P connect 11 0 3 0;#P connect 5 0 3 0;#P connect 3 0 6 1;#P connect 11 1 9 1;#P fasten 10 0 9 2 226 281 418 281 418 220 336 220;#P connect 21 0 9 2;#P connect 19 1 21 0;#P connect 16 1 14 0;#P connect 15 0 0 0;#P connect 12 0 0 0;#P connect 13 0 0 0;#P connect 14 0 0 0;#P connect 2 1 11 0;#P fasten 10 1 9 3 274 278 415 278 415 223 391 223;#P connect 20 0 9 3;#P connect 19 2 20 0;#P connect 16 2 13 0;#P connect 10 1 13 1;#P lcolor 9;#P connect 16 3 12 0;#P connect 16 2 27 0;#P pop;#P newobj 802 85 99 196617 p scripting;#B color 14;#P outlet 293 678 15 0;#P objectname out16;#P outlet 274 678 15 0;#P objectname out15;#P outlet 254 678 15 0;#P objectname out14;#P outlet 235 678 15 0;#P objectname out13;#P outlet 215 678 15 0;#P objectname out12;#P outlet 196 678 15 0;#P objectname out11;#P outlet 176 678 15 0;#P objectname out10;#P outlet 157 678 15 0;#P objectname out9;#N vpatcher 104 44 1384 796;#P origin 0 32;#P window setfont "Sans Serif" 9.;#P newex 1043 76 34 196617 defer;#P newex 382 651 50 196617 deferlow;#P inlet 1121 53 15 0;#P newex 688 378 40 196617 uzi;#P objectname microphone-uzi;#P window linecount 1;#P message 508 449 52 196617 \$1 \$1 \$2;#P message 435 448 52 196617 \$1 \$1 \$2;#P message 362 448 67 196617 \$1 \$1 \$2 \$3;#P window linecount 0;#P message 289 449 49 196617 \$1 \$1 \$2 \$3 \$4;#P window linecount 1;#P newex 508 609 89 196617 prepend /MicGain;#P newex 436 585 104 196617 prepend /Directivity;#P newex 369 564 95 196617 prepend /MicAngle;#P window linecount 0;#P newex 289 541 86 196617 prepend /MicPos;#P inlet 1094 53 15 0;#P message 620 403 33 196617 dump;#P newex 620 424 53 196617 t i i i i;#P window linecount 1;#N coll ;#P newobj 508 496 53 196617 coll;#N coll ;#P newobj 435 495 53 196617 coll;#N coll ;#P newobj 369 494 53 196617 coll;#P newex 289 429 304 196617 jcom.oscroute /MicPos /MicAngle /Directivity /MicGain;#N coll ;#P newobj 289 493 53 196617 coll;#P window linecount 0;#P newex 819 186 51 196617 zl slice 1;#P newex 819 218 68 196617 jcom.miditoa;#P message 819 250 81 196617 /MicGain 99 \$1;#P message 392 108 123 196617 /3/directivity/ratio 0.4;#P inlet 195 16 15 0;#P outlet 261 690 15 0;#P window linecount 1;#P message 151 227 82 196617 /MicZpos 99 \$1;#P message 137 246 83 196617 /MicYpos 99 \$1;#P message 109 286 105 196617 /MicPos 99 \$1$2 \$3;#P message 431 203 102 196617 /MicAziAngle 99 \$1;#P newex 431 181 116 196617 route azimuth elevation;#P message 441 222 100 196617 /MicEleAngle 99 \$1;#P message 123 264 83 196617 /MicXpos 99 \$1;#P newex 51 261 59 196617 t b i;#P newex 227 348 187 196617 zl reg;#P message 261 376 31 196617 2 \$1;#P newex 227 405 44 196617 zl nth 2;#P message 625 207 96 196617 /Directivity 99 \$1;#P message 454 239 102 196617 /MicAngle 99 \$1 \$2;#P message 221 207 108 196617 /MicPos 99 \$1 \$2 \$3;#P newex 109 185 122 196617 route xyz x y z aed a e d;#P newex 207 98 115 196617 loadmess substitute " ";#P newex 625 183 56 196617 route ratio;#P newex 196 140 51 196617 zl slice 1;#P newex 237 161 789 196617 route position angle directivity gain;#P newex 196 119 66 196617 regexp /;#P window linecount 0;#P comment 710 447 100 196617 the colls store the microphone presets in case the Vimic module gets recreated.;#P fasten 3 0 13 0 201 162 56 162;#P fasten 2 0 6 0 242 181 114 181;#P connect 6 0 18 0;#P connect 6 1 14 0;#P connect 6 2 19 0;#P connect 6 3 20 0;#P connect 23 0 1 0;#P connect 22 0 1 0;#P connect 5 0 1 0;#P connect 1 0 3 0;#P connect 6 8 7 0;#P fasten 13 0 12 0 56 344 232 344;#P connect 12 0 10 0;#P connect 3 1 2 0;#P fasten 13 1 11 0 105 370 266 370;#P connect 11 0 10 1;#P connect 10 1 21 0;#P connect 45 0 21 0;#P connect 10 1 28 0;#P connect 28 0 39 0;#P connect 39 0 27 0;#P fasten 32 0 27 0 625 478 294 478;#P connect 27 0 35 0;#P connect 28 1 40 0;#P connect 40 0 29 0;#P fasten 32 1 29 0 639 482 374 482;#P connect 29 0 36 0;#P connect 38 0 45 0;#P connect 37 0 45 0;#P connect 36 0 45 0;#P connect 35 0 45 0;#P fasten 24 0 12 1 824 277 409 277;#P fasten 9 0 12 1 630 262 409 262;#P fasten 7 0 12 1 226 224 409 224;#P fasten 8 0 12 1 459 261 409 261;#P fasten 15 0 12 1 446 262 409 262;#P fasten 17 0 12 1 436 260 409 260;#P fasten 20 0 12 1 156 338 409 338;#P fasten 19 0 12 1 142 339 409 339;#P fasten 14 0 12 1 128 338 409 338;#P fasten 18 0 12 1 114 338 409 338;#P connect 2 1 16 0;#P connect 16 0 17 0;#P connect 28 2 41 0;#P connect 41 0 30 0;#P fasten 32 2 30 0 653 488 440 488;#P connect 30 0 37 0;#P connect 16 1 15 0;#P connect 16 2 8 0;#P connect 28 3 42 0;#P connect 42 0 31 0;#P fasten 32 3 31 0 667 492 513 492;#P connect 31 0 38 0;#P connect 33 0 32 0;#P connect 43 2 32 0;#P connect 2 2 4 0;#P connect 4 0 9 0;#P connect 46 0 43 0;#P lcolor 6;#P connect 44 0 43 1;#P connect 2 3 26 0;#P connect 26 1 25 0;#P connect 25 0 24 0;#P connect 34 0 46 0;#P lcolor 6;#P pop;#P newobj 919 289 104 196617 p microphone-parser;#P outlet 136 678 15 0;#P objectname out8;#P outlet 117 678 15 0;#P objectname out7;#P outlet 97 678 15 0;#P objectname out6;#P outlet 78 678 15 0;#P objectname out5;#P outlet 58 678 15 0;#P objectname out4;#P outlet 39 678 15 0;#P objectname out3;#P outlet 19 678 15 0;#P objectname out2;#P outlet 0 678 15 0;#P objectname out1;#P newex 663 326 31 196617 float;#P newex 797 320 56 196617 vexpr $f1;#P newex 752 272 31 196617 float;#P newex 623 268 31 196617 float;#P newex 247 275 27 196617 f;#N vpatcher 20 74 620 474;#P outlet 233 233 15 0;#P inlet 229 76 15 0;#P connect 0 0 1 0;#P pop;#P newobj 303 345 52 196617 p through;#N vpatcher 20 74 620 474;#P outlet 233 233 15 0;#P inlet 229 76 15 0;#P connect 0 0 1 0;#P pop;#P newobj 671 416 52 196617 p through;#P window linecount 2;#P newex 413 261 201 196617 jcom.oscroute /directivity/create /orientation /position;#P window linecount 1;#P comment 421 238 45 196617 /source;#P message 794 340 119 196617 /ArrayCenter \$1 \$2 \$3;#P message 663 347 115 196617 /MicCenterDistance \$1;#P newex 708 298 193 196617 jcom.oscroute /circle/diameter /center;#P message 800 271 81 196617 /Directivity \$1;#P message 624 288 64 196617 /DirPow \$1;#P comment 630 228 80 196617 /microphones;#P newex 623 249 306 196617 jcom.oscroute /direct/power /array /directivity/ratio /amount;#P comment 70 219 116 196617 /room;#N vpatcher 20 74 620 474;#P window setfont "Sans Serif" 9.;#P newex 549 158 27 196617 t b l;#P inlet 549 30 15 0;#P window linecount 1;#N vpatcher 10 59 610 459;#P outlet 129 236 15 0;#P window setfont "Sans Serif" 9.;#P newex 129 93 27 196617 int;#P newex 129 73 84 196617 expr 1000.0/$f1;#P inlet 129 30 15 0;#P connect 0 0 1 0;#P connect 1 0 2 0;#P connect 2 0 3 0;#P pop;#P newobj 346 69 63 196617 p Hz_to_ms;#P inlet 445 30 15 0;#P inlet 346 30 15 0;#P window linecount 0;#P newex 273 117 70 196617 speedlim 100;#P newex 212 81 30 196617 t b l;#P inlet 212 30 15 0;#P outlet 232 213 15 0;#P comment 453 52 58 196617 bang from external source;#P comment 502 188 78 196617 Priority inlet;#P connect 3 0 4 0;#P connect 4 1 2 0;#P connect 10 0 2 0;#P connect 10 1 2 0;#P fasten 7 0 2 0 450 172 237 172;#P connect 5 0 2 0;#P connect 4 0 5 0;#P connect 8 0 5 1;#P connect 6 0 8 0;#P connect 9 0 10 0;#P pop;#P newobj 181 576 80 196617 p through&bang;#P objectname main_through;#P message 247 296 64 196617 /DisPow \$1;#P newex 150 133 213 196617 jcom.oscroute /room /source /microphones;#P inlet 150 42 15 0;#P inlet 0 191 15 0;#P objectname Vol0;#P user panel 66 217 322 141;#X brgb 191 191 191;#X frgb 0 0 0;#X border 1;#X rounded 0;#X shadow 0;#X done;#P user panel 405 233 211 233;#X brgb 191 191 191;#X frgb 0 0 0;#X border 1;#X rounded 0;#X shadow 0;#X done;#P background;#P user panel 622 224 419 241;#X brgb 191 191 191;#X frgb 0 0 0;#X border 1;#X rounded 0;#X shadow 0;#X done;#P background;#P newex 168 623 105 196617 VimicMax~ 8 1;#P objectname VIMIC;#P connect 0 0 26 0;#P connect 0 1 27 0;#P connect 0 2 28 0;#P connect 0 3 29 0;#P connect 6 0 71 0;#P connect 71 0 52 0;#P connect 0 4 30 0;#P connect 0 5 31 0;#P connect 0 6 32 0;#P connect 0 7 33 0;#P connect 71 1 70 0;#P connect 5 0 6 0;#P connect 8 0 0 0;#P connect 4 0 0 0;#P connect 75 0 8 0;#P connect 66 0 8 0;#P fasten 19 0 8 0 676 460 186 460;#P connect 20 0 8 0;#P connect 46 0 70 1;#P lcolor 6;#P fasten 48 0 8 1 426 535 209 535;#P connect 71 2 72 0;#P fasten 48 1 8 2 504 544 232 544;#P connect 46 0 72 1;#P connect 71 3 21 0;#P connect 46 0 7 0;#P lcolor 6;#P connect 21 0 7 0;#P connect 51 0 8 3;#P lcolor 16;#P connect 62 0 8 3;#P connect 79 0 20 0;#P connect 72 0 20 0;#P connect 70 0 20 0;#P connect 52 0 20 0;#P connect 7 0 20 0;#P connect 71 4 80 0;#P connect 46 0 80 0;#P lcolor 6;#P connect 80 0 79 0;#P connect 6 1 18 0;#P connect 46 0 67 0;#P lcolor 6;#P connect 18 0 67 0;#P connect 67 0 66 0;#P connect 6 3 48 0;#P connect 18 1 50 0;#P connect 68 0 46 0;#P connect 50 0 51 0;#P connect 49 0 51 0;#P connect 49 1 50 1;#P connect 18 2 49 0;#P connect 48 2 45 0;#P connect 77 0 53 0;#P lcolor 6;#P connect 45 0 53 0;#P connect 46 0 49 1;#P lcolor 6;#P connect 46 0 50 2;#P lcolor 6;#P connect 6 2 10 0;#P connect 10 0 22 0;#P connect 46 0 12 0;#P lcolor 6;#P connect 22 0 12 0;#P hidden connect 77 0 74 0;#P lcolor 6;#P connect 48 3 74 0;#P connect 14 0 25 0;#P connect 25 0 15 0;#P fasten 34 0 19 0 924 413 676 413;#P connect 12 0 19 0;#P connect 13 0 19 0;#P connect 15 0 19 0;#P connect 16 0 19 0;#P connect 10 1 14 0;#P connect 48 4 73 0;#P connect 10 2 23 0;#P connect 53 0 75 0;#P connect 76 0 75 0;#P connect 73 0 75 0;#P connect 74 0 75 0;#P connect 78 0 75 0;#P connect 48 5 76 0;#P connect 24 0 16 0;#P connect 14 1 24 0;#P connect 46 0 13 0;#P lcolor 6;#P connect 23 0 13 0;#P fasten 5 0 43 0 155 75 807 75;#P connect 43 0 69 0;#P connect 69 0 47 0;#P hidden connect 77 0 76 1;#P lcolor 6;#P hidden connect 77 0 78 0;#P lcolor 6;#P connect 48 6 78 0;#P connect 43 1 44 0;#P connect 81 0 77 0;#P connect 10 4 34 0;#P connect 64 0 65 0;#P connect 69 0 34 1;#P lcolor 6;#P connect 43 2 34 2;#P pop;