max v2;#N vpatcher 1 52 1271 808;#P origin 73 -63;#P window setfont "Sans Serif" 9.;#P newex 643 395 73 196617 jcom.aed2xyz;#P newex 425 523 169 196617 jcom.oscroute /updaterate /update;#P newex 345 121 61 196617 s $0_reset;#B color 5;#P newex 993 192 61 196617 r $0_reset;#B color 5;#P newex 732 269 68 196617 jcom.miditoa;#P newex 479 172 68 196617 jcom.miditoa;#N vpatcher 112 60 1188 727;#P window setfont "Sans Serif" 9.;#P newex 140 379 32 196617 print;#P window linecount 0;#P newex 553 459 32 196617 print;#P window linecount 1;#N vpatcher 10 59 610 459;#P inlet 222 83 15 0;#P outlet 217 238 15 0;#P connect 1 0 0 0;#P pop;#P newobj 593 358 37 196617 p thru;#P window linecount 0;#N vpatcher 10 59 610 459;#P inlet 222 83 15 0;#P outlet 217 238 15 0;#P connect 1 0 0 0;#P pop;#P newobj 2 273 37 196617 p thru;#P window linecount 1;#P message 197 165 111 196617 /xfade/fadefunction 1;#P window linecount 0;#P newex 157 104 91 196617 sel Hanning Linear;#P window linecount 1;#P message 157 188 111 196617 /xfade/fadefunction 0;#P message 79 151 104 196617 /xfade/threshold \$1;#P window linecount 0;#P message 1 125 108 196617 /xfade/fadelength \$1;#P window linecount 1;#P newex 1 74 244 196617 jcom.oscroute /fadelength /threshold /fadefunction;#P newex 1 40 108 196617 jcom.oscroute /xfade;#P message 775 266 78 196617 /RenderType 4;#P message 993 262 14 196617 4;#P window linecount 0;#P message 978 263 14 196617 3;#P message 690 266 78 196617 /RenderType 3;#P newex 945 223 43 196617 delay 5;#P message 909 342 84 196617 /RenderType \$1;#P window linecount 1;#P message 963 263 14 196617 2;#P window linecount 0;#P message 948 263 14 196617 1;#P newex 909 321 27 196617 i 1;#P window linecount 1;#P message 860 264 78 196617 /RenderType 0;#P message 605 266 78 196617 /RenderType 2;#P message 520 267 78 196617 /RenderType 1;#P newex 520 193 522 196617 sel ViMiC Panning X-fade Static mute unmute;#P inlet 1 18 15 0;#P outlet 2 557 15 0;#P connect 1 0 15 0;#P connect 15 0 16 0;#P connect 16 0 17 0;#P connect 17 0 22 0;#P connect 18 0 22 0;#P connect 21 0 22 0;#P connect 19 0 22 0;#P connect 23 0 0 0;#P connect 22 0 0 0;#P connect 16 1 18 0;#P connect 22 0 25 0;#P connect 16 2 20 0;#P connect 20 0 19 0;#P connect 20 1 21 0;#P fasten 15 1 2 0 104 62 525 62;#P connect 2 0 3 0;#P connect 23 0 24 0;#P connect 3 0 23 0;#P connect 4 0 23 0;#P connect 11 0 23 0;#P connect 14 0 23 0;#P connect 5 0 23 0;#P connect 9 0 23 0;#P connect 2 1 4 0;#P connect 2 2 11 0;#P connect 2 3 14 0;#P connect 2 4 5 0;#P connect 10 0 6 0;#P connect 6 0 9 0;#P connect 13 0 6 1;#P connect 12 0 6 1;#P connect 7 0 6 1;#P connect 8 0 6 1;#P connect 2 5 10 0;#P connect 2 0 7 0;#P connect 2 1 8 0;#P connect 2 2 12 0;#P connect 2 3 13 0;#P pop;#P newobj 817 167 72 196617 p Rendermode;#P newex 178 320 79 196617 r $0_ReflLpfrq;#P newex 112 383 41 196617 *~ 1.;#P objectname Vol2;#P newex 143 362 74 196617 r $0_ReflGain;#P newex 112 342 76 196617 onepole~ 5000;#N thispatcher;#Q end;#P newobj 393 101 61 196617 thispatcher;#B color 14;#N vpatcher 582 74 1220 574;#P origin -82 0;#P window setfont "Sans Serif" 9.;#P window linecount 0;#P message 54 202 23 196617 8 1;#P newex 67 438 55 196617 delay 500;#P button 67 416 15 0;#P outlet 67 468 15 0;#P newex 127 74 54 196617 onebang 1;#P message 283 187 14 196617 8;#P message 324 188 14 196617 1;#P newex 40 57 40 196617 t b b b;#P window linecount 2;#P newex -181 328 324 196617 sprintf ViMiC Module configured for %ld microphones. Order of Reflections is set to %ld . Please reset microphone settings manually.;#P window linecount 1;#P newex -181 361 54 196617 jcom.post;#P newex 157 308 400 196617 t i b i b;#N vpatcher 10 59 610 459;#P window setfont "Sans Serif" 9.;#P newex 192 161 27 196617 - 1;#P window linecount 1;#P newex 192 188 200 196617 sprintf script connect VIMIC %ld out%ld 0;#P window linecount 0;#P newex 197 128 40 196617 uzi;#P inlet 197 73 15 0;#P outlet 191 245 15 0;#P connect 3 0 0 0;#P connect 2 2 4 0;#P connect 4 0 3 0;#P connect 1 0 2 0;#P connect 2 2 3 1;#P pop;#P newobj 157 355 111 196617 p connect_from_vimic;#N vpatcher 654 432 1254 832;#P origin 0 -16;#P window setfont "Sans Serif" 9.;#P newex 135 43 30 196617 t b b;#P newex 148 89 27 196617 i;#P window linecount 1;#P newex 312 156 27 196617 - 1;#P newex 190 240 200 196617 sprintf script connect Vol%ld 0 VIMIC %ld;#P window linecount 0;#P newex 301 103 27 196617 + 1;#P newex 300 125 40 196617 uzi;#P inlet 166 23 19 0;#P message 98 158 185 196617 script connect main_through 0 VIMIC 0;#P outlet 94 296 15 0;#P inlet 133 21 15 0;#P connect 6 0 1 0;#P connect 2 0 1 0;#P connect 9 1 2 0;#P connect 0 0 9 0;#P connect 9 0 8 0;#P connect 3 0 8 1;#P connect 7 0 6 0;#P connect 5 0 4 0;#P connect 8 0 5 0;#P connect 4 2 7 0;#P connect 7 0 6 1;#P pop;#P newobj 287 355 98 196617 p connect_to_vimic;#N vpatcher 264 349 864 749;#P inlet 209 37 15 0;#P window setfont "Sans Serif" 9.;#P newex 226 109 27 196617 i 1;#P newex 57 67 27 196617 t i b;#P inlet 57 37 15 0;#P outlet 99 313 15 0;#P newex 88 198 346 196617 sprintf script new VIMIC newex 92 635 105 196617 VimicMax~ %ld %ld \;;#P connect 2 0 3 0;#P connect 3 0 0 0;#P connect 0 0 1 0;#P connect 3 1 4 0;#P connect 5 0 4 1;#P connect 4 0 0 1;#P pop;#P newobj 417 355 78 196617 p create_vimic;#N vpatcher 573 261 1173 661;#P window setfont "Sans Serif" 9.;#P message 108 136 96 196617 script delete VIMIC;#P outlet 108 266 15 0;#P inlet 108 69 15 0;#P connect 0 0 2 0;#P connect 2 0 1 0;#P pop;#P newobj 547 355 76 196617 p delete_vimic;#P newex 313 129 27 196617 t b i;#P newex 157 259 58 196617 unpack 8 1;#P newex 157 230 175 196617 if $i1 != $i3 || $i2 !=$i4 then $i1 $i2;#P window linecount 2;#P comment 252 47 134 196617 Changes can not take place while audio is running;#P window linecount 1;#P newex 98 120 31 196617 == 0;#P newex 157 204 47 196617 gate 1 0;#P newex 40 120 32 196617 sel 0;#P newex 40 87 54 196617 dspstate~;#P newex 185 172 27 196617 i 8;#P newex 185 90 266 196617 jcom.oscroute /microphones/amount /reflections/order;#P inlet 185 68 15 0;#P outlet 311 460 15 0;#P connect 10 0 18 0;#P connect 18 0 17 0;#P connect 22 0 19 0;#P connect 19 0 4 0;#P connect 4 0 5 0;#P connect 10 0 24 0;#P connect 24 0 25 0;#P connect 25 0 23 0;#P fasten 4 0 7 0 45 110 103 110;#P connect 2 0 22 0;#P connect 10 1 18 1;#P connect 7 0 6 0;#P connect 6 0 9 0;#P connect 26 0 10 0;#P connect 9 0 10 0;#P connect 10 0 16 0;#P connect 16 0 15 0;#P connect 1 0 2 0;#P connect 2 0 3 0;#P connect 5 0 3 0;#P connect 11 0 3 0;#P connect 3 0 6 1;#P connect 11 1 9 1;#P connect 21 0 9 2;#P fasten 10 0 9 2 162 281 354 281 354 220 272 220;#P connect 19 1 21 0;#P connect 16 1 14 0;#P connect 14 0 0 0;#P connect 13 0 0 0;#P connect 12 0 0 0;#P connect 15 0 0 0;#P connect 2 1 11 0;#P fasten 10 1 9 3 210 278 351 278 351 223 327 223;#P connect 20 0 9 3;#P connect 19 2 20 0;#P connect 10 1 14 1;#P lcolor 9;#P connect 16 2 13 0;#P connect 10 1 13 1;#P lcolor 9;#P connect 16 3 12 0;#P pop;#P newobj 345 80 58 196617 p scripting;#B color 14;#P outlet 307 678 15 0;#P objectname out16;#P outlet 288 678 15 0;#P objectname out15;#P outlet 268 678 15 0;#P objectname out14;#P outlet 249 678 15 0;#P objectname out13;#P outlet 229 678 15 0;#P objectname out12;#P outlet 210 678 15 0;#P objectname out11;#P outlet 190 678 15 0;#P objectname out10;#P outlet 171 679 15 0;#P objectname out9;#N vpatcher 177 44 1457 796;#P origin 0 32;#P window setfont "Sans Serif" 9.;#P window linecount 0;#P newex 819 186 51 196617 zl slice 1;#P newex 819 221 68 196617 jcom.miditoa;#P message 819 250 81 196617 /MicGain 99 \$1;#P message 392 108 123 196617 /3/directivity/ratio 0.4;#P inlet 195 16 15 0;#P outlet 254 487 15 0;#P window linecount 1;#P message 151 227 82 196617 /MicZpos 99 \$1;#P message 137 246 83 196617 /MicYpos 99 \$1;#P message 109 286 105 196617 /MicPos 99 \$1$2 \$3;#P message 431 203 102 196617 /MicAziAngle 99 \$1;#P newex 431 181 116 196617 route azimuth elevation;#P message 441 222 100 196617 /MicEleAngle 99 \$1;#P message 123 264 83 196617 /MicXpos 99 \$1;#P newex 51 261 59 196617 t b i;#P newex 227 348 187 196617 zl reg;#P message 261 429 31 196617 2 \$1;#P newex 227 451 44 196617 zl nth 2;#P message 625 207 96 196617 /Directivity 99 \$1;#P message 454 239 102 196617 /MicAngle 99 \$1 \$2;#P message 221 207 108 196617 /MicPos 99 \$1 \$2 \$3;#P newex 109 185 122 196617 route xyz x y z aed a e d;#P newex 207 98 115 196617 loadmess substitute " ";#P newex 625 183 56 196617 route ratio;#P newex 196 140 51 196617 zl slice 1;#P newex 237 161 789 196617 route position angle directivity gain;#P newex 196 119 66 196617 regexp /;#P fasten 2 0 12 0 201 162 56 162;#P fasten 1 0 5 0 242 181 114 181;#P connect 5 0 17 0;#P connect 5 1 13 0;#P connect 5 2 18 0;#P connect 5 3 19 0;#P connect 4 0 0 0;#P connect 21 0 0 0;#P connect 22 0 0 0;#P connect 0 0 2 0;#P connect 5 8 6 0;#P fasten 12 0 11 0 56 344 232 344;#P connect 11 0 9 0;#P connect 2 1 1 0;#P connect 9 1 20 0;#P connect 12 1 10 0;#P connect 10 0 9 1;#P fasten 17 0 11 1 114 338 409 338;#P fasten 13 0 11 1 128 338 409 338;#P fasten 18 0 11 1 142 339 409 339;#P fasten 19 0 11 1 156 338 409 338;#P fasten 16 0 11 1 436 260 409 260;#P fasten 14 0 11 1 446 262 409 262;#P fasten 7 0 11 1 459 261 409 261;#P fasten 6 0 11 1 226 224 409 224;#P fasten 8 0 11 1 630 262 409 262;#P fasten 23 0 11 1 824 277 409 277;#P connect 1 1 15 0;#P connect 15 0 16 0;#P connect 15 1 14 0;#P connect 15 2 7 0;#P connect 1 2 3 0;#P connect 3 0 8 0;#P connect 1 3 25 0;#P connect 25 1 24 0;#P connect 24 0 23 0;#P pop;#P newobj 1139 294 104 196617 p microphone-parser;#N vpatcher 20 74 620 474;#P inlet 212 39 15 0;#P outlet 207 215 15 0;#P connect 1 0 0 0;#P pop;#P newobj 818 195 52 196617 p through;#P message 652 418 147 196617 /SourcePosAbsolute \$1 \$2 \$3;#P message 520 431 121 196617 /SourceZposAbsolute \$1;#P message 519 412 122 196617 /SourceYposAbsolute \$1;#P message 519 395 122 196617 /SourceXposAbsolute \$1;#P newex 519 372 168 196617 jcom.oscroute /x /y /z /aed /xyz;#P outlet 150 677 15 0;#P objectname out8;#P outlet 131 677 15 0;#P objectname out7;#P outlet 111 677 15 0;#P objectname out6;#P outlet 92 677 15 0;#P objectname out5;#P outlet 72 677 15 0;#P objectname out4;#P outlet 53 677 15 0;#P objectname out3;#P outlet 33 677 15 0;#P objectname out2;#P outlet 14 678 15 0;#P objectname out1;#P newex 350 465 83 196617 r $0_report_all;#P newex 726 194 83 196617 s $0_report_all;#P newex 709 170 66 196617 s $0_report;#P message 278 491 61 196617 /Report \$1;#P newex 883 310 31 196617 float;#P newex 1017 325 56 196617 vexpr $f1;#P newex 972 277 31 196617 float;#P newex 843 273 31 196617 float;#P newex 440 270 31 196617 float;#P newex 275 356 56 196617 vexpr $f1;#P newex 275 335 31 196617 float;#P newex 274 312 31 196617 float;#P newex 275 283 31 196617 float;#N vpatcher 20 74 620 474;#P outlet 233 233 15 0;#P inlet 229 76 15 0;#P connect 0 0 1 0;#P pop;#P newobj 328 374 52 196617 p through;#P message 267 397 104 196617 /RoomSize \$1 \$2 \$3;#P message 317 338 83 196617 /RoomHeight \$1;#P message 317 319 80 196617 /RoomDepth \$1;#P message 317 299 80 196617 /RoomWidth \$1;#P newex 317 268 118 196617 jcom.oscroute /x /y /z;#N vpatcher 20 74 620 474;#P outlet 233 233 15 0;#P inlet 229 76 15 0;#P connect 0 0 1 0;#P pop;#P newobj 818 419 52 196617 p through;#P message 350 515 59 196617 /ReportAll;#P newex 278 469 66 196617 r $0_report;#P newex 350 491 60 196617 r reportAll;#P comment 674 233 67 196617 /reflections;#P newex 732 295 74 196617 s $0_ReflGain;#P newex 666 336 79 196617 s $0_ReflLpfrq;#P newex 666 314 142 196617 jcom.oscroute /frequency /q;#P newex 667 246 205 196617 jcom.oscroute /lowpass /gain/midi /order;#P newex 479 196 51 196617 s $0_Dir;#P newex 595 330 51 196617 s $0_Vol;#N vpatcher 20 74 620 474;#P outlet 233 233 15 0;#P inlet 229 76 15 0;#P connect 0 0 1 0;#P pop;#P newobj 652 478 52 196617 p through;#P message 524 351 108 196617 /SourcePos \$1 \$2 \$3;#P message 511 331 82 196617 /SourceZpos \$1;#P message 510 314 83 196617 /SourceYpos \$1;#P message 510 295 83 196617 /SourceXpos \$1;#P newex 510 267 164 196617 jcom.oscroute /x /y /z /absolute;#P newex 510 248 145 196617 jcom.oscroute /position /gain;#P comment 519 233 45 196617 /source;#P message 1014 345 119 196617 /ArrayCenter \$1 \$2 \$3;#P message 883 331 115 196617 /MicCenterDistance \$1;#P newex 928 303 193 196617 jcom.oscroute /circle/diameter /center;#P message 1010 277 81 196617 /Directivity \$1;#P message 843 351 64 196617 /DirPow \$1;#P comment 853 234 80 196617 /microphones;#P newex 843 254 306 196617 jcom.oscroute /direct/power /array /directivity/ratio /amount;#P comment 327 233 49 196617 /room;#N vpatcher 20 74 620 474;#P window setfont "Sans Serif" 9.;#P newex 549 158 27 196617 t b l;#P inlet 549 30 15 0;#P window linecount 1;#N vpatcher 10 59 610 459;#P outlet 129 236 15 0;#P window setfont "Sans Serif" 9.;#P newex 129 93 27 196617 int;#P newex 129 73 84 196617 expr 1000.0/$f1;#P inlet 129 30 15 0;#P connect 0 0 1 0;#P connect 1 0 2 0;#P connect 2 0 3 0;#P pop;#P newobj 333 70 63 196617 p Hz_to_ms;#P inlet 445 30 15 0;#P inlet 333 30 15 0;#P window linecount 0;#P newex 273 117 70 196617 speedlim 100;#P newex 212 84 30 196617 t b l;#P inlet 212 30 15 0;#P outlet 232 213 15 0;#P comment 453 52 58 196617 bang from external source;#P comment 483 189 100 196617 Priority inlet for source position;#P connect 3 0 4 0;#P connect 4 1 2 0;#P connect 5 0 2 0;#P fasten 7 0 2 0 450 172 237 172;#P connect 10 1 2 0;#P connect 10 0 2 0;#P connect 4 0 5 0;#P connect 6 0 8 0;#P connect 8 0 5 1;#P connect 9 0 10 0;#P pop;#P newobj 393 577 80 196617 p through&bang;#P objectname main_through;#P message 432 291 64 196617 /DisPow \$1;#P newex 317 248 181 196617 jcom.oscroute /size /distance/power;#P newex 317 143 572 196617 jcom.oscroute /room /microphones /source /direct/gain/midi /reflections /reverb /dsp /report /report_all /rendermode;#P inlet 317 42 15 0;#P newex 179 239 79 196617 r $0_ReflLpfrq;#P newex 113 302 41 196617 *~ 1.;#P objectname Vol1;#P newex 144 281 74 196617 r $0_ReflGain;#P newex 61 277 51 196617 r $0_Dir;#P newex 30 298 41 196617 *~ 1.;#P objectname Vol0;#P newex 113 261 76 196617 onepole~ 5000;#P inlet 30 191 15 0;#P user panel 273 227 228 199;#X brgb 191 191 191;#X frgb 0 0 0;#X border 1;#X rounded 0;#X shadow 0;#X done;#P user panel 664 229 172 131;#X brgb 191 191 191;#X frgb 0 0 0;#X border 1;#X rounded 0;#X shadow 0;#X done;#P user panel 507 229 153 139;#X brgb 191 191 191;#X frgb 0 0 0;#X border 1;#X rounded 0;#X shadow 0;#X done;#P background;#P user panel 837 227 419 241;#X brgb 191 191 191;#X frgb 0 0 0;#X border 1;#X rounded 0;#X shadow 0;#X done;#P background;#P newex 94 638 105 196617 VimicMax~ 8 1;#P objectname VIMIC;#P connect 0 0 63 0;#P connect 5 0 7 0;#P connect 0 1 64 0;#P connect 0 2 65 0;#P connect 8 0 7 1;#P connect 0 3 66 0;#P connect 0 4 67 0;#P connect 7 0 0 0;#P connect 16 0 0 0;#P connect 0 5 68 0;#P connect 10 0 88 0;#P connect 88 0 90 0;#P fasten 5 0 6 0 35 236 118 236;#P connect 6 0 10 0;#P connect 0 6 69 0;#P connect 89 0 90 1;#P connect 9 0 10 1;#P connect 0 7 70 0;#P connect 91 0 88 1;#P connect 11 0 6 1;#P connect 10 0 0 1;#P connect 95 0 48 0;#P lcolor 6;#P connect 44 3 48 0;#P connect 53 0 48 0;#P connect 44 1 51 0;#P connect 44 0 50 0;#P connect 44 2 52 0;#P connect 44 3 53 0;#P connect 95 0 59 0;#P lcolor 6;#P connect 41 0 59 0;#P connect 12 0 13 0;#P connect 13 0 14 0;#P connect 14 0 44 0;#P connect 50 0 45 0;#P connect 51 0 46 0;#P connect 52 0 47 0;#P connect 15 0 49 0;#P connect 48 0 49 0;#P connect 47 0 49 0;#P connect 46 0 49 0;#P connect 45 0 49 0;#P connect 12 0 86 0;#P connect 86 0 96 0;#P connect 62 0 42 0;#P connect 40 0 42 0;#P connect 86 1 87 0;#P connect 42 0 16 0;#P connect 59 0 16 0;#P fasten 43 0 16 0 823 554 398 554;#P connect 49 0 16 0;#P connect 97 0 16 1;#P connect 13 10 97 0;#P lcolor 10;#P connect 95 0 15 0;#P lcolor 6;#P connect 54 0 15 0;#P connect 97 1 16 2;#P connect 14 1 54 0;#P connect 32 0 16 3;#P lcolor 15;#P connect 13 3 93 0;#P connect 93 0 34 0;#P fasten 13 2 26 0 434 218 515 218;#P connect 26 0 27 0;#P connect 27 0 28 0;#P connect 27 1 29 0;#P connect 27 2 30 0;#P connect 27 3 71 0;#P connect 71 0 72 0;#P connect 71 1 73 0;#P connect 71 2 74 0;#P connect 27 4 31 0;#P connect 26 1 33 0;#P connect 71 3 98 0;#P connect 95 0 75 0;#P lcolor 6;#P connect 71 4 75 0;#P connect 98 0 75 0;#P connect 28 0 32 0;#P connect 29 0 32 0;#P connect 30 0 32 0;#P connect 31 0 32 0;#P connect 72 0 32 0;#P connect 73 0 32 0;#P connect 74 0 32 0;#P fasten 75 0 32 0 657 448 657 448;#P connect 35 0 36 0;#P connect 36 0 37 0;#P fasten 13 4 35 0 546 206 672 206;#P connect 13 7 60 0;#P connect 13 8 61 0;#P connect 35 1 94 0;#P connect 94 0 38 0;#P connect 13 9 92 0;#P connect 92 0 76 0;#P connect 24 0 43 0;#P connect 23 0 43 0;#P connect 21 0 43 0;#P connect 20 0 43 0;#P connect 76 0 43 0;#P fasten 77 0 43 0 1144 392 823 392;#P fasten 13 1 18 0 378 222 848 222;#P connect 18 0 55 0;#P connect 95 0 20 0;#P lcolor 6;#P connect 55 0 20 0;#P connect 22 0 58 0;#P connect 58 0 23 0;#P connect 18 1 22 0;#P connect 18 2 56 0;#P connect 95 0 21 0;#P lcolor 6;#P connect 56 0 21 0;#P connect 57 0 24 0;#P connect 22 1 57 0;#P connect 18 4 77 0;#P pop;