max v2;#N vpatcher 0 49 1206 786;#P origin -76 -957;#P window setfont "Sans Serif" 9.;#N vpatcher 10 59 610 459;#P outlet 123 260 15 0;#P inlet 211 54 15 0;#P window setfont "Sans Serif" 9.;#P hidden message 375 121 64 196617 rgb2 66 0 2;#P hidden message 27 117 94 196617 rgb2 164 153 128;#P hidden message 253 117 92 196617 frgb 181 181 181;#P hidden message 137 120 93 196617 brgb 100 100 100;#P outlet 387 261 15 0;#P connect 5 0 3 0;#P connect 2 0 6 0;#P connect 3 0 6 0;#P connect 1 0 6 0;#P connect 5 0 1 0;#P connect 5 0 2 0;#P connect 5 0 4 0;#P connect 4 0 0 0;#P connect 1 0 0 0;#P connect 2 0 0 0;#P pop;#P newobj 510 74 46 196617 p colors;#N thispatcher;#Q end;#P hidden newobj 512 118 61 196617 thispatcher;#N vpatcher 188 431 335 589;#P button 41 33 15 0;#P window setfont "Sans Serif" 9.;#P newex 41 54 50 196617 deferlow;#P newex 41 75 50 196617 t front;#P outlet 41 103 15 0;#P inlet 41 15 15 0;#P connect 0 0 4 0;#P connect 4 0 3 0;#P connect 3 0 2 0;#P connect 2 0 1 0;#P pop;#P hidden newobj 512 95 14 196617 p;#P newex 543 6 48 196617 loadbang;#P button 618 21 15 0;#P hidden newex 527 34 50 196617 deferlow;#P window setfont "Sans Serif" 12.;#P comment 332 -1 13 196620 ||;#B frgb 198 0 65;#P bpatcher 345 1 36 13 0 0 jcom.numberslider.mxt 0 1. 0. 1. @size 40 14;#P objectname mic_gain;#P window setfont "Sans Serif" 9.;#P flonum 167 0 35 9 0 0 8224 3 198 198 198 221 221 221 222 222 222 0 0 0;#P objectname Z;#P flonum 131 0 35 9 0 0 8224 3 198 198 198 221 221 221 222 222 222 0 0 0;#P objectname Y;#P bpatcher 296 1 36 13 0 0 jcom.numberslider.mxt 0 0. 0. 1. @size 40 14 @frgb 181 181 181;#P objectname dir_mic;#P window setfont "Sans Serif" 12.;#P comment 279 -1 13 196620 ||;#B frgb 198 0 65;#P window setfont "Sans Serif" 9.;#P hidden newex 988 395 27 196617 * 3;#P hidden newex 817 368 27 196617 t b i;#P window linecount 4;#P hidden newex 834 412 317 196617 sprintf script new parameter_directivity newex 750 20 270 196617 jcom.parameter microphones/%ld/directivity/ratio @type msg_float @range 0. 1. @clipmode both @priority %ld @repetitions 0 @description "Directivity value of the %ldth microphone.";#P window linecount 2;#P hidden message 831 467 270 196617 script hidden connect dir_mic 0 parameter_directivity 0 \, script hidden connect parameter_directivity 0 dir_mic 0;#P window linecount 1;#P message 132 320 14 196617 1;#P hidden newex 613 403 27 196617 * 3;#P hidden newex 440 384 27 196617 t b i;#P window linecount 3;#P hidden newex 457 422 362 196617 sprintf script new parameter2 newex 830 245 270 196617 jcom.parameter microphones/%ld/angle @type msg_list @priority %ld @repetitions 0 @description "angular point of view  of %ldth microphone [azimut elevation].";#P window linecount 2;#P hidden message 440 469 235 196617 script connect list2parameter2 10 parameter2 0 \, script connect parameter2 0 list2parameter2 10;#P window linecount 1;#P newex 684 225 144 196617 jcom.list2parameter 2;#P objectname list2parameter2;#P hidden newex 719 198 39 196617 pvar E;#P objectname pvar_E;#P hidden newex 675 197 41 196617 pvar A;#P objectname pvar_A;#P flonum 248 0 32 9 -90. 90. 8227 3 198 198 198 221 221 221 222 222 222 0 0 0;#P objectname E;#P flonum 215 0 33 9 0 0 8224 3 198 198 198 221 221 221 222 222 222 0 0 0;#P objectname A;#P window setfont "Sans Serif" 12.;#P comment 202 -1 13 196620 ||;#B frgb 198 0 65;#P user radiogroup 1 -1 34 16;#X size 1;#X offset 29;#X inactive 0;#X itemtype 1;#X flagmode 0;#X set 0;#X done;#P objectname switch;#P window setfont "Sans Serif" 9.;#P hidden newex 236 396 83 196617 expr ($f1*2)+1;#P newex 191 182 166 196617 jcom.list2parameter.mxt 3;#P objectname list2parameter;#P hidden newex 59 375 31 196617 t b i;#P hidden newex 59 318 67 196617 loadmess $1;#P hidden newex 59 340 96 196617 if $i1 != 0 then $i1;#P window linecount 3;#P hidden newex 80 417 351 196617 sprintf script new parameter newex 391 200 270 196617 jcom.parameter microphones/%ld/position @type msg_list @priority %ld @repetitions 0 @description "Position of %ldth microphone in xyz coodinate.";#P window linecount 2;#P hidden message 59 473 223 196617 script connect list2parameter 10 parameter 0 \, script connect parameter 0 list2parameter 10;#P window linecount 1;#N thispatcher;#Q end;#P hidden newobj 815 525 61 196617 thispatcher;#P newex 280 152 39 196617 pvar Z;#P objectname pvar_Z;#P newex 234 151 40 196617 pvar Y;#P objectname pvar_Y;#P newex 192 151 40 196617 pvar X;#P objectname pvar_X;#P flonum 95 0 35 9 0 0 8224 3 198 198 198 221 221 221 222 222 222 0 0 0;#P objectname X;#P comment 17 1 79 196617 microphone $1:;#B frgb 172 172 172;#P user panel -1 -1 452 18;#X brgb 80 80 80;#X frgb 255 255 255;#X border 1;#X rounded 0;#X shadow 0;#X done;#P fasten 25 0 9 0 137 337 64 337;#P hidden connect 10 0 9 0;#P hidden connect 9 0 11 0;#P connect 11 0 7 0;#P fasten 11 1 8 0 85 404 85 404;#P connect 3 0 12 0;#P fasten 12 0 3 0 196 206 182 206 182 150 197 150;#P connect 4 0 12 1;#P connect 5 0 12 2;#P fasten 12 1 4 0 211 210 177 210 177 144 239 144;#P fasten 11 1 13 0 85 393 241 393;#P hidden connect 13 0 8 1;#P fasten 12 2 5 0 226 214 172 214 172 139 285 139;#P hidden connect 41 0 31 0;#P hidden connect 41 1 34 0;#P fasten 11 1 8 2 85 392 425 392;#P fasten 9 0 23 0 64 362 445 362;#P fasten 23 0 21 0 445 469 445 469;#P connect 23 1 22 0;#P connect 36 0 41 0;#P connect 41 1 39 0;#P connect 41 0 39 0;#P hidden connect 39 0 40 0;#P connect 38 0 36 0;#P connect 37 0 36 0;#P fasten 23 1 24 0 462 399 618 399;#P hidden connect 24 0 22 1;#P fasten 20 0 18 0 689 250 671 250 671 193 680 193;#P fasten 18 0 20 0 680 222 689 222;#P fasten 19 0 20 1 724 218 702 218;#P fasten 20 1 19 0 702 257 668 257 668 186 724 186;#P fasten 23 1 22 2 462 399 814 399;#P fasten 21 0 6 0 445 521 820 521;#P hidden fasten 7 0 6 0 64 516 820 516;#P connect 26 0 6 0;#P fasten 22 0 6 0 462 466 820 466;#P connect 27 0 6 0;#P hidden fasten 8 0 6 0 85 462 820 462;#P fasten 9 0 28 0 64 362 822 362;#P fasten 28 0 26 0 822 425 836 425;#P fasten 28 1 27 0 839 402 839 402;#P hidden connect 29 0 27 1;#P fasten 28 1 29 0 839 392 993 392;#P fasten 28 1 27 2 839 392 1145 392;#P pop;