max v2;#N vpatcher 44 49 1250 786;#P origin -108 -1519;#P window setfont "Sans Serif" 9.;#P newex 977 633 27 196617 * 4;#P hidden message 818 718 277 196617 script hidden connect message_z 0 route_set_message_z 0;#P hidden newex 818 623 27 196617 t b i;#P window linecount 4;#P hidden newex 834 656 292 196617 sprintf script new message_z newex 500 280 300 196617 jcom.message microphones/%ld/position/z @type msg_float @range -20. 20. @clipmode both @priority %ld @repetitions 0 @description "Z_component_for_position_of_microphone %ld";#P window linecount 1;#P newex 330 154 51 196617 route set;#P objectname route_set_message_z;#P newex 758 174 51 196617 route set;#P objectname route_set_message_azi;#P newex 759 198 51 196617 route set;#P objectname route_set_message_ele;#P newex 1004 509 27 196617 * 4;#P hidden message 822 600 293 196617 script hidden connect message_azi 0 route_set_message_azi 0;#P hidden newex 822 505 27 196617 t b i;#P window linecount 4;#P hidden newex 838 538 346 196617 sprintf script new message_azi newex 750 280 300 196617 jcom.message microphones/%ld/orientation/azimuthal @type msg_float @range -180. 180. @clipmode both @priority %ld @repetitions 0 @description "Azimuthal_component_for_orientation_of_microphone %ld";#P window linecount 1;#P newex 618 480 27 196617 * 4;#P hidden message 459 565 293 196617 script hidden connect message_ele 0 route_set_message_ele 0;#P hidden newex 459 470 27 196617 t b i;#P window linecount 4;#P hidden newex 476 502 331 196617 sprintf script new message_ele newex 750 180 300 196617 jcom.message microphones/%ld/orientation/elevation @type msg_float @range -90. 90. @clipmode both @priority %ld @repetitions 0 @description "Elevation_(for_Orientation)_of_microphone %ld";#P window linecount 1;#P newex 212 597 27 196617 * 3;#P window linecount 4;#P hidden message 8 663 328 196617 script hidden connect pvar_directivity_preset 1 directivity_preset 0 \, script hidden connect directivity_preset 0 pvar_directivity_preset 0 \, script hidden connect directivity_preset 1 mic-preset 0 \, script hidden connect mic-preset 0 parameter_directivity 0;#P window linecount 1;#P hidden newex 8 588 27 196617 t b i;#P window linecount 3;#P hidden newex 25 617 350 196617 sprintf script new directivity_preset newex 990 30 270 196617 jcom.message microphones/%ld/directivity/preset @type msg_symbol @priority %ld @description "Directivity_preset_for_the_microphone %ld";#P window linecount 1;#N vpatcher 676 279 1276 679;#P window setfont "Sans Serif" 9.;#P window linecount 1;#P message 314 103 31 196617 0.33;#P message 371 102 23 196617 0.3;#P message 200 102 23 196617 0.7;#P message 257 102 23 196617 0.5;#P message 428 102 17 196617 0.;#P window linecount 0;#P message 143 102 23 196617 1.;#P newex 143 65 352 196617 route omni subcardioid cardioid supercardioid hypercardioid figure-eight;#P outlet 143 270 15 0;#P inlet 143 40 15 0;#P comment 292 215 227 196617 the definition of super- and hyper-cardioid vary from company to company;#P connect 1 0 3 0;#P connect 3 0 4 0;#P connect 9 0 2 0;#P connect 5 0 2 0;#P connect 8 0 2 0;#P connect 6 0 2 0;#P connect 7 0 2 0;#P connect 4 0 2 0;#P connect 3 1 7 0;#P connect 3 2 6 0;#P connect 3 3 9 0;#P connect 3 4 8 0;#P connect 3 5 5 0;#P pop;#P newobj 1136 46 73 196617 p mic-presets;#P objectname mic-preset;#P newex 830 1 121 196617 pvar directivity_menu 2;#P objectname pvar_directivity_preset;#P user ubumenu 332 1 71 196617 0 0 1 0;#X setrgb 181 181 181 25 25 25 50 50 50 4 4 4 141 141 141 112 112 112;#X add ---;#X add omni;#X add subcardioid;#X add cardioid;#X add supercardioid;#X add hypercardioid;#X add figure-eight;#X prefix_set 0 0 <none> 0;#P objectname directivity_menu;#P newex 269 76 55 196617 delay 100;#N vpatcher 616 360 1216 760;#P window setfont "Sans Serif" 9.;#P window linecount 1;#P hidden message 145 119 56 196617 frgb 0 0 0;#P hidden message 244 118 64 196617 rgb1 66 0 2;#P outlet 123 260 15 0;#P inlet 211 54 15 0;#P window linecount 0;#P hidden message 27 117 81 196617 brgb 16 255 37;#P connect 1 0 0 0;#P connect 0 0 2 0;#P connect 3 0 2 0;#P connect 4 0 2 0;#P connect 1 0 4 0;#P connect 1 0 3 0;#P pop;#P hidden newobj 269 100 46 196617 p colors;#P user jsui 0 2 25 14 1 0 0 jcom.jsui_texttoggle.js on off 68 68 68 225 225 225 121 255 15;#P objectname ACTIVE;#P user jsui 96 206 25 14 1 0 0 jcom.jsui_texttoggle.js on off 68 68 68 225 225 225 121 255 15;#P objectname ACTIVE-old;#N vpatcher 10 59 610 459;#P window setfont "Sans Serif" 9.;#P newex 50 50 51 196617 route set;#P newex 51 71 68 196617 jcom.miditoa;#P inlet 50 30 15 0;#P outlet 51 93 15 0;#P connect 1 0 3 0;#P connect 3 0 2 0;#P connect 2 0 0 0;#P pop;#P newobj 758 78 48 196617 p midi2a;#P objectname miditoa;#P newex 751 7 68 196617 jcom.atomidi;#P objectname atomidi;#P message 921 116 59 196617 0. \, \$1 100;#P newex 921 133 40 196617 line 0.;#P objectname storage;#P newex 921 96 43 196617 float 0.;#P newex 942 59 97 196617 if $f1 > 0. then $f1;#P objectname if_store;#P button 1260 226 15 0;#P message 1216 226 23 196617 0.;#P objectname zero;#P newex 1245 188 41 196617 sel 1 0;#P objectname sel_active;#P newex 249 477 27 196617 * 3;#P window linecount 3;#P hidden message 45 543 269 196617 script hidden connect pvar_aktive 0 parameter_aktive 0 \, script hidden connect parameter_aktive 0 pvar_aktive 0 \, script hidden connect parameter_aktive 1 sel_active 0;#P window linecount 1;#P hidden newex 45 468 27 196617 t b i;#P window linecount 3;#P hidden newex 62 497 381 196617 sprintf script new parameter_aktive newex 750 180 270 196617 jcom.parameter microphones/%ld/mute @type msg_int @range 0 1 @clipmode both @priority %ld @repetitions 1 @description "Muting_of_the_microphone %ld";#P window linecount 1;#P newex 739 148 67 196617 pvar ACTIVE;#P objectname pvar_aktive;#P message 658 86 30 196617 bang;#P message 602 83 53 196617 defeat \$1;#P inlet 601 1 15 0;#P newex 601 61 144 196617 jcom.oscroute /freeze /clear;#P user jcom.meter~ 452 6 66 6;#P inlet 575 3 15 0;#P window linecount 4;#P hidden message 1117 407 307 196617 script hidden connect atomidi 0 parameter_gain 0 \, script hidden connect parameter_gain 0 miditoa 0 \, script hidden connect parameter_gain 1 if_store 0 \, script hidden connect storage 0 parameter_gain 0 \, script hidden connect zero 0 parameter_gain 0;#P window linecount 1;#P hidden newex 1284 338 27 196617 * 3;#P hidden newex 1098 303 27 196617 t b i;#P window linecount 3;#P hidden newex 1109 361 296 196617 sprintf script new parameter_gain newex 700 70 270 196617 jcom.parameter.gain microphones/%ld/gain @priority %ld @repetitions 0 @description "Gain_of_of_the_microphone %ld";#P window linecount 1;#N vpatcher 749 58 1349 458;#P outlet 123 260 15 0;#P inlet 211 54 15 0;#P window setfont "Sans Serif" 9.;#P hidden message 375 121 64 196617 rgb2 66 0 2;#P hidden message 27 117 94 196617 rgb2 164 153 128;#P hidden message 253 117 92 196617 frgb 181 181 181;#P hidden message 137 120 93 196617 brgb 100 100 100;#P outlet 387 261 15 0;#P connect 5 0 3 0;#P connect 1 0 6 0;#P connect 3 0 6 0;#P connect 2 0 6 0;#P connect 5 0 1 0;#P connect 5 0 2 0;#P connect 5 0 4 0;#P connect 2 0 0 0;#P connect 1 0 0 0;#P connect 4 0 0 0;#P pop;#P hidden newobj 347 69 46 196617 p colors;#N thispatcher;#Q end;#P hidden newobj 349 113 61 196617 thispatcher;#N vpatcher 188 431 335 589;#P button 41 33 15 0;#P window setfont "Sans Serif" 9.;#P newex 41 54 50 196617 deferlow;#P outlet 41 103 15 0;#P inlet 41 15 15 0;#P connect 0 0 3 0;#P connect 3 0 2 0;#P pop;#P hidden newobj 349 90 14 196617 p;#P hidden newex 345 25 48 196617 loadbang;#P hidden button 404 27 15 0;#P hidden newex 346 46 50 196617 deferlow;#P window setfont "Sans Serif" 12.;#P comment 402 1 13 196620 ||;#B frgb 198 0 65;#P bpatcher 415 3 36 13 0 0 jcom.numberslider.mxt 0 1. 0. 1. @size 40 14;#P objectname gain_mic;#P window setfont "Sans Serif" 9.;#P flonum 167 1 35 9 0 0 8224 3 198 198 198 221 221 221 222 222 222 0 0 0;#P objectname Z;#P flonum 131 1 35 9 0 0 8224 3 198 198 198 221 221 221 222 222 222 0 0 0;#P objectname Y;#P bpatcher 295 3 36 13 0 0 jcom.numberslider.mxt 0 0. 0. 1. @size 40 14 @frgb 181 181 181;#P objectname dir_mic;#P window setfont "Sans Serif" 12.;#P comment 279 1 13 196620 ||;#B frgb 198 0 65;#P window setfont "Sans Serif" 9.;#P hidden newex 936 342 27 196617 * 3;#P hidden newex 765 315 27 196617 t b i;#P window linecount 4;#P hidden newex 782 359 317 196617 sprintf script new parameter_directivity newex 990 70 270 196617 jcom.parameter microphones/%ld/directivity/ratio @type msg_float @range 0. 1. @clipmode both @priority %ld @repetitions 1 @description "Directivity_value_of_the_microphone %ld.";#P window linecount 2;#P hidden message 773 415 270 196617 script hidden connect dir_mic 0 parameter_directivity 0 \, script hidden connect parameter_directivity 0 dir_mic 0;#P window linecount 1;#P message 80 267 14 196617 1;#P hidden newex 561 350 27 196617 * 3;#P hidden newex 388 331 27 196617 t b i;#P window linecount 3;#P hidden newex 405 369 357 196617 sprintf script new parameter2 newex 830 245 270 196617 jcom.parameter microphones/%ld/angle @type msg_list @priority %ld @repetitions 1 @description "orientation_[azimut&elevation]_of_the_microphone %ld";#P window linecount 2;#P hidden message 388 416 235 196617 script connect list2parameter2 10 parameter2 0 \, script connect parameter2 0 list2parameter2 10;#P window linecount 1;#P newex 684 226 144 196617 jcom.list2parameter 2;#P objectname list2parameter2;#P hidden newex 719 199 39 196617 pvar E;#P objectname pvar_E;#P hidden newex 675 198 41 196617 pvar A;#P objectname pvar_A;#P flonum 248 1 32 9 -90. 90. 8227 3 198 198 198 221 221 221 222 222 222 0 0 0;#P objectname E;#P flonum 215 1 33 9 0 0 8224 3 198 198 198 221 221 221 222 222 222 0 0 0;#P objectname A;#P window setfont "Sans Serif" 12.;#P comment 202 1 13 196620 ||;#B frgb 198 0 65;#P window setfont "Sans Serif" 9.;#P hidden newex 184 343 83 196617 expr ($f1*2)+1;#P newex 191 183 166 196617 jcom.list2parameter.mxt 3;#P objectname list2parameter;#P hidden newex 7 322 31 196617 t b i;#P hidden newex 7 265 67 196617 loadmess $1;#P hidden newex 7 287 96 196617 if $i1 != 0 then $i1;#P window linecount 3;#P hidden newex 28 364 351 196617 sprintf script new parameter newex 391 200 270 196617 jcom.parameter microphones/%ld/position @type msg_list @priority %ld @repetitions 1 @description "Position_in_xyz_coodinate_of_the_microphone %ld";#P window linecount 2;#P hidden message 7 420 223 196617 script connect list2parameter 10 parameter 0 \, script connect parameter 0 list2parameter 10;#P window linecount 1;#N thispatcher;#Q end;#P hidden newobj 655 718 61 196617 thispatcher;#P newex 280 153 39 196617 pvar Z;#P objectname pvar_Z;#P newex 234 152 40 196617 pvar Y;#P objectname pvar_Y;#P newex 192 152 40 196617 pvar X;#P objectname pvar_X;#P flonum 95 1 35 9 0 0 8224 3 198 198 198 221 221 221 222 222 222 0 0 0;#P objectname X;#P comment 25 3 72 196617 microphone $1;#B frgb 172 172 172;#P user panel -1 0 526 19;#X brgb 80 80 80;#X frgb 255 255 255;#X border 1;#X rounded 0;#X shadow 0;#X done;#P hidden connect 67 0 66 0;#P hidden connect 10 0 9 0;#P fasten 24 0 9 0 85 284 12 284;#P hidden connect 9 0 11 0;#P connect 11 0 7 0;#P connect 9 0 73 0;#P connect 73 0 74 0;#P connect 73 1 72 0;#P fasten 11 1 8 0 33 351 33 351;#P connect 9 0 53 0;#P connect 53 0 54 0;#P connect 53 1 52 0;#P fasten 11 1 13 0 33 340 189 340;#P connect 3 0 12 0;#P fasten 12 0 3 0 196 207 182 207 182 151 197 151;#P connect 75 0 72 1;#P hidden connect 13 0 8 1;#P connect 4 0 12 1;#P connect 73 1 75 0;#P connect 86 0 12 2;#P connect 5 0 12 2;#P fasten 12 1 4 0 211 211 177 211 177 145 239 145;#P connect 55 0 52 1;#P connect 53 1 55 0;#P connect 35 0 68 0;#P connect 68 0 67 0;#P fasten 12 2 5 0 226 215 172 215 172 140 285 140;#P hidden connect 40 0 30 0;#P hidden connect 36 0 35 0;#P hidden connect 37 0 35 0;#P hidden connect 35 0 40 0;#P hidden connect 40 1 38 0;#P hidden connect 40 0 38 0;#P hidden connect 38 0 39 0;#P connect 73 1 72 2;#P fasten 11 1 8 2 33 339 373 339;#P fasten 9 0 22 0 12 309 393 309;#P fasten 22 0 20 0 393 416 393 416;#P connect 22 1 21 0;#P hidden connect 40 1 33 0;#P hidden connect 64 0 33 0;#P connect 53 1 52 2;#P hidden connect 50 0 46 0;#P hidden connect 49 0 46 0;#P hidden connect 45 0 46 0;#P lcolor 6;#P connect 9 0 77 0;#P connect 77 0 78 0;#P connect 77 1 76 0;#P fasten 22 1 23 0 410 346 566 346;#P hidden connect 23 0 21 1;#P connect 48 0 47 0;#P connect 47 0 49 0;#P connect 77 1 79 0;#P connect 79 0 76 1;#P connect 89 0 6 0;#P connect 76 0 6 0;#P connect 72 0 6 0;#P connect 26 0 6 0;#P connect 74 0 6 0;#P fasten 21 0 6 0 410 413 660 413;#P connect 54 0 6 0;#P fasten 44 0 6 0 1122 467 660 467;#P connect 25 0 6 0;#P hidden fasten 7 0 6 0 12 463 660 463;#P fasten 20 0 6 0 393 468 660 468;#P hidden fasten 8 0 6 0 33 409 660 409;#P connect 52 0 6 0;#P fasten 41 0 6 0 1114 453 660 453;#P connect 78 0 6 0;#P connect 80 0 6 0;#P connect 82 0 6 0;#P connect 87 0 6 0;#P connect 47 1 50 0;#P fasten 19 0 17 0 689 251 671 251 671 194 680 194;#P connect 85 0 17 0;#P fasten 17 0 19 0 680 223 689 223;#P fasten 18 0 19 1 724 219 702 219;#P fasten 19 1 18 0 702 258 668 258 668 187 724 187;#P connect 84 0 18 0;#P hidden connect 33 0 63 0;#P fasten 22 1 21 2 410 346 756 346;#P fasten 9 0 27 0 12 309 770 309;#P connect 27 0 25 0;#P fasten 27 1 26 0 787 349 787 349;#P connect 77 1 76 2;#P connect 27 1 88 0;#P connect 88 0 89 0;#P connect 27 1 81 0;#P connect 81 0 82 0;#P connect 88 1 87 0;#P connect 81 1 80 0;#P connect 58 0 60 0;#P connect 60 0 62 0;#P connect 62 0 61 0;#P hidden connect 28 0 26 1;#P fasten 27 1 28 0 787 339 941 339;#P connect 59 0 60 1;#P connect 90 0 87 1;#P connect 88 1 90 0;#P connect 81 1 83 0;#P connect 83 0 80 1;#P fasten 27 1 26 2 787 339 1093 339;#P connect 9 0 42 0;#P connect 42 1 41 0;#P connect 88 1 87 2;#P connect 42 0 44 0;#P connect 81 1 80 2;#P connect 56 0 57 0;#P connect 43 0 41 1;#P connect 56 1 58 0;#P fasten 42 1 43 0 1120 328 1289 328;#P fasten 42 1 41 2 1120 327 1400 327;#P pop;