max v2;#N vpatcher 81 48 1317 799;#P origin -115 -1589;#P window setfont "Sans Serif" 9.;#P window linecount 1;#P newex 217 431 43 196617 delay 5;#N vpatcher 209 44 1136 796;#P origin 37 67;#P window setfont "Sans Serif" 9.;#P newex 44 701 27 196617 t b l;#P outlet 44 722 15 0;#P window linecount 0;#P newex 942 662 109 196617 expr ($f1*10)+9 -10;#P newex 171 637 54 196617 jcom.thru;#P window linecount 2;#P newex 171 683 781 196617 sprintf script new message_z newex 500 280 300 196617 jcom.message microphones/%ld/position/z @type msg_float @range -20. 20. @clipmode both @priority %ld @repetitions 0 @description "Z_component_for_position_of_microphone";#P window linecount 1;#P newex 972 578 109 196617 expr ($f1*10)+8 -10;#P newex 174 551 54 196617 jcom.thru;#P window linecount 2;#P newex 174 597 807 196617 sprintf script new directivity_preset newex 990 30 270 196617 jcom.message microphones/%ld/directivity/preset @type msg_symbol @priority %ld @description "Directivity_preset_for_the_microphone";#P window linecount 1;#P newex 956 488 109 196617 expr ($f1*10)+7 -10;#P newex 181 462 54 196617 jcom.thru;#P window linecount 2;#P newex 181 508 785 196617 sprintf script new message_azi newex 750 280 300 196617 jcom.message microphones/%ld/orientation/yaw @type msg_float @range -180. 180. @clipmode both @priority %ld @repetitions 0 @description "Yaw_angle_for_the_orientation_of_microphone";#P window linecount 1;#P newex 921 394 109 196617 expr ($f1*10)+6 -10;#P newex 181 372 54 196617 jcom.thru;#P window linecount 2;#P newex 181 417 757 196617 sprintf script new message_ele newex 750 180 300 196617 jcom.message microphones/%ld/orientation/pitch @type msg_float @range -90. 90. @clipmode both @priority %ld @repetitions 0 @description "Pitch_angle_for_the_orientation_of_microphone";#P window linecount 1;#P newex 878 316 109 196617 expr ($f1*10)+5 -10;#P newex 181 295 54 196617 jcom.thru;#P window linecount 2;#P newex 181 336 706 196617 sprintf script new parameter_aktive newex 750 180 270 196617 jcom.parameter microphones/%ld/mute @type msg_int @range 0 1 @clipmode both @priority %ld @repetitions 1 @description "Muting_of_the_microphone";#P window linecount 1;#P newex 891 238 109 196617 expr ($f1*10)+4 -10;#P newex 181 214 54 196617 jcom.thru;#P window linecount 2;#P newex 181 259 742 196617 sprintf script new parameter_gain newex 700 70 270 196617 jcom.parameter.gain microphones/%ld/gain @priority %ld @repetitions 0 @description "Gain_of_of_the_microphone";#P window linecount 1;#P newex 881 156 109 196617 expr ($f1*10)+3 -10;#P newex 181 132 54 196617 jcom.thru;#P window linecount 2;#P newex 181 177 709 196617 sprintf script new parameter_directivity newex 990 70 270 196617 jcom.parameter microphones/%ld/directivity/ratio @type msg_float @range 0. 1. @clipmode both @priority %ld @repetitions 1 @description "Directivity_value_of_the_microphone ";#P window linecount 1;#P newex 888 72 109 196617 expr ($f1*10)+2 -10;#P newex 181 48 54 196617 jcom.thru;#P window linecount 2;#P newex 181 94 718 196617 sprintf script new parameter2 newex 830 245 270 196617 jcom.parameter microphones/%ld/orientation @type msg_list @priority %ld @repetitions 1 @description "orientation_[yaw_pitch]_of_the_microphone_in_degree";#P window linecount 0;#P newex 181 -33 54 196617 jcom.thru;#P window linecount 1;#P newex 840 -12 109 196617 expr ($f1*10)+1 -10;#P window linecount 2;#P newex 181 8 668 196617 sprintf script new parameter newex 391 200 270 196617 jcom.parameter microphones/%ld/position/xyz @type msg_list @priority %ld @repetitions 1 @description "Position_in_xyz_coodinate_of_the_microphone";#P window linecount 1;#P newex 1 -19 118 196617 t i i i i i i i i i;#B color 14;#P inlet 1 -39 15 0;#P outlet 2 602 15 0;#P connect 1 0 2 0;#P connect 24 0 0 0;#P connect 21 0 0 0;#P connect 18 0 0 0;#P connect 15 0 0 0;#P connect 12 0 0 0;#P connect 9 0 0 0;#P connect 6 0 0 0;#P connect 3 0 0 0;#P connect 31 1 0 0;#P connect 27 0 31 0;#P connect 31 0 30 0;#P connect 2 0 28 0;#P connect 28 0 27 0;#P connect 2 1 25 0;#P connect 25 0 24 0;#P connect 2 8 5 0;#P connect 5 0 3 0;#P connect 2 7 7 0;#P connect 7 0 6 0;#P connect 2 6 10 0;#P connect 10 0 9 0;#P connect 2 5 13 0;#P connect 13 0 12 0;#P connect 2 4 16 0;#P connect 16 0 15 0;#P connect 2 3 19 0;#P connect 19 0 18 0;#P connect 2 2 22 0;#P connect 22 0 21 0;#P connect 4 0 3 1;#P fasten 5 0 4 0 186 -14 845 -14;#P connect 17 0 15 1;#P fasten 16 0 17 0 186 313 883 313;#P connect 11 0 9 1;#P fasten 10 0 11 0 186 153 886 153;#P fasten 7 0 8 0 186 69 893 69;#P connect 8 0 6 1;#P fasten 13 0 14 0 186 235 896 235;#P connect 14 0 12 1;#P fasten 19 0 20 0 186 392 926 392;#P connect 20 0 18 1;#P fasten 28 0 29 0 176 658 947 658;#P connect 29 0 27 1;#P fasten 22 0 23 0 186 482 961 482;#P connect 23 0 21 1;#P connect 26 0 24 1;#P fasten 25 0 26 0 179 572 977 572;#P pop;#P newobj 172 411 55 196617 p creating;#N vpatcher 27 74 627 474;#P button 136 67 15 0;#P outlet 136 338 15 0;#P inlet 136 43 15 0;#P window setfont "Sans Serif" 9.;#P message 136 87 394 196617 script connect list2parameter 10 parameter 0 \, script connect parameter 0 list2parameter 10 \, script connect list2parameter2 10 parameter2 0 \, script connect parameter2 0 list2parameter2 10 \, script hidden connect dir_mic 0 parameter_directivity 0 \, script hidden connect parameter_directivity 0 dir_mic 0 \, script hidden connect atomidi 0 parameter_gain 0 \, script connect parameter_gain 0 miditoa 0 \, script connect parameter_gain 1 if_store 0 \, script hidden connect storage 0 parameter_gain 0 \, script hidden connect zero 0 parameter_gain 0 \, script hidden connect pvar_aktive 0 parameter_aktive 0 \, script hidden connect parameter_aktive 0 pvar_aktive 0 \, script connect parameter_aktive 1 sel_active 0 \, script connect message_ele 0 route_set_message_ele 0 \, script connect message_azi 0 route_set_message_azi 0 \, script connect message_z 0 route_set_message_z 0 \, script connect pvar_directivity_preset 1 directivity_preset 0 \, script connect directivity_preset 0 pvar_directivity_preset 0 \, script connect directivity_preset 1 mic-preset 0 \, script connect mic-preset 0 parameter_directivity 0;#P connect 1 0 3 0;#P connect 3 0 0 0;#P connect 0 0 2 0;#P pop;#P newobj 217 452 65 196617 p connecting;#P newex 330 153 51 196617 route set;#P objectname route_set_message_z;#P newex 758 173 51 196617 route set;#P objectname route_set_message_azi;#P newex 759 197 51 196617 route set;#P objectname route_set_message_ele;#N vpatcher 676 279 1276 679;#P window setfont "Sans Serif" 9.;#P newex 453 123 140 196617 jcom.post "ViMiC complains";#P newex 453 101 161 196617 sprintf "%s" is not a valid preset;#P window linecount 1;#P message 314 103 31 196617 0.33;#P message 371 102 23 196617 0.3;#P message 200 102 23 196617 0.7;#P message 257 102 23 196617 0.5;#P message 428 102 17 196617 0.;#P window linecount 0;#P message 143 102 23 196617 1.;#P newex 143 65 352 196617 route omni subcardioid cardioid supercardioid hypercardioid figure-eight;#P outlet 143 270 15 0;#P inlet 143 40 15 0;#P comment 292 215 227 196617 the definition of super- and hyper-cardioid vary from company to company;#P connect 1 0 3 0;#P connect 3 0 4 0;#P connect 4 0 2 0;#P connect 7 0 2 0;#P connect 6 0 2 0;#P connect 8 0 2 0;#P connect 5 0 2 0;#P connect 9 0 2 0;#P connect 3 1 7 0;#P connect 3 2 6 0;#P connect 3 3 9 0;#P connect 3 4 8 0;#P connect 3 5 5 0;#P connect 3 6 10 0;#P connect 10 0 11 0;#P pop;#P newobj 1136 45 73 196617 p mic-presets;#P objectname mic-preset;#P newex 830 0 121 196617 pvar directivity_menu 2;#P objectname pvar_directivity_preset;#P user ubumenu 332 0 71 196617 0 0 1 0;#X setrgb 181 181 181 25 25 25 50 50 50 4 4 4 141 141 141 112 112 112;#X add ---;#X add omni;#X add subcardioid;#X add cardioid;#X add supercardioid;#X add hypercardioid;#X add figure-eight;#X prefix_set 0 0 <none> 0;#P objectname directivity_menu;#P newex 270 64 55 196617 delay 200;#N vpatcher 616 360 1216 760;#P window setfont "Sans Serif" 9.;#P window linecount 1;#P hidden message 145 119 56 196617 frgb 0 0 0;#P hidden message 244 118 64 196617 rgb1 66 0 2;#P outlet 123 260 15 0;#P inlet 211 54 15 0;#P window linecount 0;#P hidden message 27 117 81 196617 brgb 16 255 37;#P connect 1 0 0 0;#P connect 4 0 2 0;#P connect 3 0 2 0;#P connect 0 0 2 0;#P connect 1 0 4 0;#P connect 1 0 3 0;#P pop;#P hidden newobj 271 102 46 196617 p colors;#P user jsui 0 1 25 14 1 0 0 jcom.jsui_texttoggle.js on off 68 68 68 225 225 225 121 255 15;#P objectname ACTIVE;#P user jsui 96 205 25 14 1 0 0 jcom.jsui_texttoggle.js on off 68 68 68 225 225 225 121 255 15;#P objectname ACTIVE-old;#N vpatcher 10 59 610 459;#P window setfont "Sans Serif" 9.;#P newex 50 50 51 196617 route set;#P newex 51 71 68 196617 jcom.miditoa;#P inlet 50 30 15 0;#P outlet 51 93 15 0;#P connect 1 0 3 0;#P connect 3 0 2 0;#P connect 2 0 0 0;#P pop;#P newobj 758 77 48 196617 p midi2a;#P objectname miditoa;#P newex 751 6 68 196617 jcom.atomidi;#P objectname atomidi;#P message 921 115 59 196617 0. \, \$1 100;#P newex 921 132 40 196617 line 0.;#P objectname storage;#P newex 921 95 43 196617 float 0.;#P newex 942 58 97 196617 if $f1 > 0. then $f1;#P objectname if_store;#P button 1260 225 15 0;#P message 1216 225 23 196617 0.;#P objectname zero;#P newex 1245 187 41 196617 sel 1 0;#P objectname sel_active;#P newex 739 147 67 196617 pvar ACTIVE;#P objectname pvar_aktive;#P message 658 85 30 196617 bang;#P message 602 82 53 196617 defeat \$1;#P inlet 601 0 15 0;#P newex 601 60 144 196617 jcom.oscroute /freeze /clear;#P user jcom.meter~ 452 5 66 6;#P inlet 575 2 15 0;#N vpatcher 749 58 1349 458;#P outlet 123 260 15 0;#P inlet 211 54 15 0;#P window setfont "Sans Serif" 9.;#P hidden message 375 121 64 196617 rgb2 66 0 2;#P hidden message 27 117 94 196617 rgb2 164 153 128;#P hidden message 253 117 92 196617 frgb 181 181 181;#P hidden message 137 120 93 196617 brgb 100 100 100;#P outlet 387 261 15 0;#P connect 5 0 3 0;#P connect 2 0 6 0;#P connect 3 0 6 0;#P connect 1 0 6 0;#P connect 5 0 1 0;#P connect 5 0 2 0;#P connect 5 0 4 0;#P connect 4 0 0 0;#P connect 1 0 0 0;#P connect 2 0 0 0;#P pop;#P hidden newobj 347 68 46 196617 p colors;#P hidden newex 345 24 48 196617 loadbang;#P hidden button 404 26 15 0;#P hidden newex 346 45 50 196617 deferlow;#P window setfont "Sans Serif" 12.;#P comment 402 0 13 196620 ||;#B frgb 198 0 65;#P bpatcher 415 2 36 13 0 0 jcom.numberslider.mxt 0 1. 0. 1. @size 40 14;#P objectname gain_mic;#P window setfont "Sans Serif" 9.;#P flonum 167 0 35 9 0 0 8224 3 198 198 198 221 221 221 222 222 222 0 0 0;#P objectname Z;#P flonum 131 0 35 9 0 0 8224 3 198 198 198 221 221 221 222 222 222 0 0 0;#P objectname Y;#P bpatcher 295 2 36 13 0 0 jcom.numberslider.mxt 0 0. 0. 1. @size 40 14 @frgb 181 181 181;#P objectname dir_mic;#P window setfont "Sans Serif" 12.;#P comment 279 0 13 196620 ||;#B frgb 198 0 65;#P window setfont "Sans Serif" 9.;#P message 139 332 14 196617 1;#P newex 684 225 144 196617 jcom.list2parameter 2;#P objectname list2parameter2;#P newex 719 198 39 196617 pvar E;#P objectname pvar_E;#P newex 675 197 41 196617 pvar A;#P objectname pvar_A;#P flonum 248 0 32 9 -90. 90. 8227 3 198 198 198 221 221 221 222 222 222 0 0 0;#P objectname E;#P flonum 215 0 33 9 0 0 8224 3 198 198 198 221 221 221 222 222 222 0 0 0;#P objectname A;#P window setfont "Sans Serif" 12.;#P comment 202 0 13 196620 ||;#B frgb 198 0 65;#P window setfont "Sans Serif" 9.;#P newex 191 182 166 196617 jcom.list2parameter.mxt 3;#P objectname list2parameter;#P newex 210 289 67 196617 loadmess $1;#P newex 132 360 96 196617 if $i1 != 0 then $i1;#N thispatcher;#Q end;#P newobj 173 481 61 196617 thispatcher;#P newex 280 152 39 196617 pvar Z;#P objectname pvar_Z;#P newex 234 151 40 196617 pvar Y;#P objectname pvar_Y;#P newex 192 151 40 196617 pvar X;#P objectname pvar_X;#P flonum 95 0 35 9 0 0 8224 3 198 198 198 221 221 221 222 222 222 0 0 0;#P objectname X;#P comment 25 2 72 196617 microphone $1;#B frgb 172 172 172;#P user panel -1 -1 526 19;#X brgb 80 80 80;#X frgb 255 255 255;#X border 1;#X rounded 0;#X shadow 0;#X done;#P hidden connect 45 0 44 0;#P connect 8 0 7 0;#P connect 16 0 7 0;#P connect 7 0 54 0;#P connect 54 0 6 0;#P connect 53 0 6 0;#P connect 3 0 9 0;#P fasten 9 0 3 0 196 206 182 206 182 150 197 150;#P connect 4 0 9 1;#P connect 54 1 55 0;#P connect 55 0 53 0;#P connect 5 0 9 2;#P connect 52 0 9 2;#P fasten 9 1 4 0 211 210 177 210 177 144 239 144;#P connect 23 0 46 0;#P connect 46 0 45 0;#P fasten 9 2 5 0 226 214 172 214 172 139 285 139;#P hidden connect 26 0 18 0;#P hidden connect 25 0 23 0;#P hidden connect 24 0 23 0;#P hidden connect 23 0 26 0;#P hidden connect 26 1 21 0;#P hidden connect 42 0 21 0;#P hidden connect 27 0 28 0;#P lcolor 6;#P hidden connect 31 0 28 0;#P hidden connect 32 0 28 0;#P connect 30 0 29 0;#P connect 29 0 31 0;#P connect 29 1 32 0;#P connect 51 0 13 0;#P fasten 15 0 13 0 689 250 671 250 671 193 680 193;#P fasten 13 0 15 0 680 222 689 222;#P fasten 14 0 15 1 724 218 702 218;#P connect 50 0 14 0;#P fasten 15 1 14 0 702 257 668 257 668 186 724 186;#P hidden connect 21 0 41 0;#P connect 36 0 38 0;#P connect 38 0 40 0;#P connect 40 0 39 0;#P connect 37 0 38 1;#P connect 34 0 35 0;#P connect 34 1 36 0;#P pop;