max v2;#N vpatcher 32 44 1268 795;#P origin -118 -1632;#P window setfont "Sans Serif" 9.;#P newex 177 421 50 196617 deferlow;#P newex 177 401 43 196617 delay 5;#N vpatcher 285 44 1212 796;#P origin 37 522;#P window setfont "Sans Serif" 9.;#P window linecount 0;#P message 307 640 54 196617 separator;#P message 345 485 54 196617 separator;#P message 341 349 54 196617 separator;#P message 326 202 54 196617 separator;#P message 331 57 54 196617 separator;#P message 313 -86 54 196617 separator;#P message 323 -223 54 196617 separator;#P message 325 -375 54 196617 separator;#P message 352 -531 54 196617 separator;#P newex 516 646 62 196617 prepend set;#P newex 171 720 40 196617 append;#P newex 171 699 660 196617 append @type msg_float @range -20. 20. @clipmode both @repetitions 0 @description "Z_component_for_position_of_microphone" @priority;#P newex 171 681 348 196617 prepend script new message_z newex 500 280 300 196617 jcom.message;#P newex 171 662 51 196617 tosymbol;#P newex 171 643 95 196617 append /position/z;#P newex 171 624 110 196617 prepend microphones/;#P newex 512 482 108 196617 expr ($i1*10)+8 -10;#P newex 512 503 62 196617 prepend set;#P newex 171 575 40 196617 append;#P newex 171 554 470 196617 append @type msg_symbol @description "Directivity_preset_for_the_microphone" @priority;#P newex 171 536 377 196617 prepend script new directivity_preset newex 990 30 270 196617 jcom.message;#P newex 171 517 51 196617 tosymbol;#P newex 171 498 133 196617 append /directivity/preset;#P newex 171 479 110 196617 prepend microphones/;#P newex 517 362 62 196617 prepend set;#P newex 175 434 40 196617 append;#P newex 175 413 688 196617 append @type msg_float @range -180. 180. @clipmode both @repetitions 0 @description "Yaw_angle_for_the_orientation_of_microphone" @priority;#P newex 175 395 356 196617 prepend script new message_azi newex 750 280 300 196617 jcom.message;#P newex 175 376 51 196617 tosymbol;#P newex 175 357 123 196617 append /orientation/yaw;#P newex 175 338 110 196617 prepend microphones/;#P newex 501 214 62 196617 prepend set;#P newex 176 287 40 196617 append;#P newex 176 266 674 196617 append @type msg_float @range -90. 90. @clipmode both @repetitions 0 @description "Pitch_angle_for_the_orientation_of_microphone" @priority;#P newex 177 248 356 196617 prepend script new message_ele newex 750 180 300 196617 jcom.message;#P newex 176 229 51 196617 tosymbol;#P newex 176 210 126 196617 append /orientation/pitch;#P newex 176 191 110 196617 prepend microphones/;#P newex 496 77 62 196617 prepend set;#P newex 178 143 40 196617 append;#P newex 178 122 550 196617 append @type msg_int @range 0 1 @clipmode both @repetitions 1 @description "Muting_of_the_microphone" @priority;#P newex 179 104 389 196617 prepend script new parameter_aktive newex 750 180 270 196617 jcom.parameter;#P newex 178 85 51 196617 tosymbol;#P newex 178 66 71 196617 append /mute;#P newex 178 47 110 196617 prepend microphones/;#P window linecount 2;#P newex 593 81 706 196617 sprintf script new parameter_aktive newex 750 180 270 196617 jcom.parameter microphones/%ld/mute @type msg_int @range 0 1 @clipmode both @priority %ld @repetitions 1 @description "Muting_of_the_microphone";#P window linecount 1;#P newex 502 -70 62 196617 prepend set;#P newex 180 4 40 196617 append;#P newex 180 -17 356 196617 append @repetitions 0 @description "Gain_of_of_the_microphone" @priority;#P newex 181 -35 394 196617 prepend script new parameter_gain newex 700 70 270 196617 jcom.parameter.gain;#P newex 180 -54 51 196617 tosymbol;#P newex 180 -73 67 196617 append /gain;#P newex 180 -92 110 196617 prepend microphones/;#P window linecount 2;#P newex 608 -56 742 196617 sprintf script new parameter_gain newex 700 70 270 196617 jcom.parameter.gain microphones/%ld/gain @priority %ld @repetitions 0 @description "Gain_of_of_the_microphone";#P window linecount 1;#P newex 508 -206 62 196617 prepend set;#P newex 181 -137 40 196617 append;#P newex 181 -158 609 196617 append @type msg_float @range 0. 1. @clipmode both @repetitions 1 @description "Directivity_value_of_the_microphone" @priority;#P newex 181 -176 404 196617 prepend script new parameter_directivity newex 990 70 270 196617 jcom.parameter;#P newex 181 -195 51 196617 tosymbol;#P newex 181 -214 126 196617 append /directivity/ratio;#P newex 181 -233 110 196617 prepend microphones/;#P window linecount 2;#P newex 589 -498 668 196617 sprintf script new parameter newex 391 200 270 196617 jcom.parameter microphones/%ld/position/xyz @type msg_list @priority %ld @repetitions 1 @description "Position_in_xyz_coodinate_of_the_microphone";#P window linecount 1;#P newex 506 -361 62 196617 prepend set;#P newex 184 -285 40 196617 append;#P newex 184 -306 557 196617 append @type msg_list @repetitions 1 @description "orientation_[yaw_pitch]_of_the_microphone_in_degree" @priority;#P newex 184 -324 361 196617 prepend script new parameter2 newex 830 245 270 196617 jcom.parameter;#P newex 184 -343 51 196617 tosymbol;#P newex 184 -362 98 196617 append /orientation;#P newex 184 -381 110 196617 prepend microphones/;#P newex 506 -381 108 196617 expr ($i1*10)+2 -10;#P newex 184 -404 54 196617 jcom.thru;#P newex 506 -513 62 196617 prepend set;#P newex 184 -436 40 196617 append;#P newex 184 -457 524 196617 append @type msg_list @repetitions 1 @description "Position_in_xyz_coodinate_of_the_microphone" @priority;#P newex 184 -476 355 196617 prepend script new parameter newex 391 200 270 196617 jcom.parameter;#P newex 184 -495 51 196617 tosymbol;#P newex 184 -514 107 196617 append /position/xyz;#P newex 184 -533 110 196617 prepend microphones/;#P newex 506 -533 108 196617 expr ($i1*10)+1 -10;#P window linecount 0;#P newex 61 664 27 196617 t b l;#P outlet 61 685 15 0;#P newex 516 623 108 196617 expr ($i1*10)+9 -10;#P newex 171 599 54 196617 jcom.thru;#P window linecount 2;#P newex 629 648 781 196617 sprintf script new message_z newex 500 280 300 196617 jcom.message microphones/%ld/position/z @type msg_float @range -20. 20. @clipmode both @priority %ld @repetitions 0 @description "Z_component_for_position_of_microphone";#P window linecount 1;#P newex 171 455 54 196617 jcom.thru;#P window linecount 2;#P newex 630 499 807 196617 sprintf script new directivity_preset newex 990 30 270 196617 jcom.message microphones/%ld/directivity/preset @type msg_symbol @priority %ld @description "Directivity_preset_for_the_microphone";#P window linecount 1;#P newex 517 339 108 196617 expr ($i1*10)+7 -10;#P newex 175 314 54 196617 jcom.thru;#P window linecount 2;#P newex 596 365 785 196617 sprintf script new message_azi newex 750 280 300 196617 jcom.message microphones/%ld/orientation/yaw @type msg_float @range -180. 180. @clipmode both @priority %ld @repetitions 0 @description "Yaw_angle_for_the_orientation_of_microphone";#P window linecount 1;#P newex 501 192 108 196617 expr ($i1*10)+6 -10;#P newex 176 166 54 196617 jcom.thru;#P window linecount 2;#P newex 587 225 757 196617 sprintf script new message_ele newex 750 180 300 196617 jcom.message microphones/%ld/orientation/pitch @type msg_float @range -90. 90. @clipmode both @priority %ld @repetitions 0 @description "Pitch_angle_for_the_orientation_of_microphone";#P window linecount 1;#P newex 496 51 108 196617 expr ($i1*10)+5 -10;#P newex 178 27 54 196617 jcom.thru;#P newex 502 -91 108 196617 expr ($i1*10)+4 -10;#P newex 180 -113 54 196617 jcom.thru;#P newex 508 -232 108 196617 expr ($i1*10)+3 -10;#P newex 181 -259 54 196617 jcom.thru;#P window linecount 2;#P newex 630 -208 709 196617 sprintf script new parameter_directivity newex 990 70 270 196617 jcom.parameter microphones/%ld/directivity/ratio @type msg_float @range 0. 1. @clipmode both @priority %ld @repetitions 1 @description "Directivity_value_of_the_microphone ";#P newex 580 -357 381 196617 sprintf microphones/%ld/orientation @type msg_list @priority %ld @repetitions 1 @description "orientation_[yaw_pitch]_of_the_microphone_in_degree";#P window linecount 0;#P newex 184 -556 54 196617 jcom.thru;#P window linecount 1;#P newex 1 -474 118 196617 t i i i i i i i i i;#B color 14;#P inlet 1 -562 15 0;#P outlet 2 147 15 0;#P connect 1 0 2 0;#P connect 24 1 0 0;#P connect 31 0 0 0;#P connect 40 0 0 0;#P connect 48 0 0 0;#P connect 56 0 0 0;#P connect 64 0 0 0;#P connect 71 0 0 0;#P connect 78 0 0 0;#P connect 85 0 0 0;#P connect 93 0 24 0;#P connect 24 0 23 0;#P connect 2 1 19 0;#P connect 19 0 80 0;#P connect 80 0 81 0;#P fasten 102 0 82 0 350 516 176 516;#P connect 81 0 82 0;#P connect 82 0 83 0;#P connect 83 0 84 0;#P fasten 86 0 85 0 517 573 176 573;#P connect 84 0 85 0;#P connect 2 0 21 0;#P connect 21 0 88 0;#P connect 88 0 89 0;#P fasten 103 0 90 0 312 661 176 661;#P connect 89 0 90 0;#P connect 90 0 91 0;#P connect 91 0 92 0;#P fasten 94 0 93 0 521 718 176 718;#P connect 92 0 93 0;#P connect 2 2 16 0;#P connect 16 0 73 0;#P connect 73 0 74 0;#P fasten 101 0 75 0 346 375 180 375;#P connect 74 0 75 0;#P connect 75 0 76 0;#P connect 76 0 77 0;#P fasten 79 0 78 0 522 432 180 432;#P connect 77 0 78 0;#P connect 2 3 13 0;#P connect 13 0 66 0;#P connect 66 0 67 0;#P fasten 100 0 68 0 331 228 181 228;#P connect 67 0 68 0;#P connect 69 0 70 0;#P fasten 72 0 71 0 506 284 181 284;#P connect 70 0 71 0;#P connect 68 0 69 0;#P connect 2 4 10 0;#P connect 10 0 59 0;#P connect 59 0 60 0;#P fasten 99 0 61 0 336 84 183 84;#P connect 60 0 61 0;#P connect 62 0 63 0;#P fasten 65 0 64 0 501 144 183 144;#P connect 63 0 64 0;#P connect 61 0 62 0;#P connect 2 5 8 0;#P connect 8 0 51 0;#P connect 51 0 52 0;#P fasten 98 0 53 0 318 -55 185 -55;#P connect 52 0 53 0;#P connect 54 0 55 0;#P fasten 57 0 56 0 507 5 185 5;#P connect 55 0 56 0;#P connect 2 6 6 0;#P connect 6 0 43 0;#P connect 43 0 44 0;#P fasten 97 0 45 0 328 -196 186 -196;#P connect 44 0 45 0;#P connect 45 0 46 0;#P connect 46 0 47 0;#P fasten 49 0 48 0 513 -139 186 -139;#P connect 47 0 48 0;#P connect 53 0 54 0;#P connect 2 8 3 0;#P connect 3 0 26 0;#P connect 26 0 27 0;#P fasten 95 0 28 0 357 -496 189 -496;#P connect 27 0 28 0;#P connect 28 0 29 0;#P connect 29 0 30 0;#P connect 30 0 31 0;#P fasten 32 0 31 0 511 -439 189 -439;#P connect 2 7 33 0;#P connect 33 0 35 0;#P connect 35 0 36 0;#P fasten 96 0 37 0 330 -344 189 -344;#P connect 36 0 37 0;#P connect 37 0 38 0;#P connect 38 0 39 0;#P fasten 41 0 40 0 511 -287 189 -287;#P connect 39 0 40 0;#P fasten 21 0 103 0 176 619 312 619;#P fasten 8 0 98 0 185 -94 318 -94;#P fasten 6 0 97 0 186 -238 328 -238;#P fasten 33 0 96 0 189 -386 330 -386;#P fasten 13 0 100 0 181 184 331 184;#P fasten 10 0 99 0 183 45 336 45;#P fasten 16 0 101 0 180 335 346 335;#P fasten 19 0 102 0 176 473 350 473;#P fasten 3 0 95 0 189 -538 357 -538;#P fasten 10 0 11 0 183 45 501 45;#P connect 11 0 65 0;#P fasten 13 0 14 0 181 184 506 184;#P connect 14 0 72 0;#P fasten 8 0 9 0 185 -95 507 -95;#P connect 9 0 57 0;#P fasten 3 0 25 0 189 -538 511 -538;#P connect 25 0 32 0;#P fasten 33 0 34 0 189 -386 511 -386;#P connect 34 0 41 0;#P fasten 6 0 7 0 186 -238 513 -238;#P connect 7 0 49 0;#P fasten 19 0 87 0 176 472 517 472;#P connect 87 0 86 0;#P fasten 21 0 22 0 176 619 521 619;#P connect 22 0 94 0;#P fasten 16 0 17 0 180 335 522 335;#P connect 17 0 79 0;#P pop;#P newobj 132 381 55 196617 p creating;#N vpatcher 27 74 627 474;#P button 136 67 15 0;#P outlet 136 338 15 0;#P inlet 136 43 15 0;#P window setfont "Sans Serif" 9.;#P message 136 87 394 196617 script connect list2parameter 10 parameter 0 \, script connect parameter 0 list2parameter 10 \, script connect list2parameter2 10 parameter2 0 \, script connect parameter2 0 list2parameter2 10 \, script hidden connect dir_mic 0 parameter_directivity 0 \, script hidden connect parameter_directivity 0 dir_mic 0 \, script hidden connect atomidi 0 parameter_gain 0 \, script connect parameter_gain 0 miditoa 0 \, script connect parameter_gain 1 if_store 0 \, script hidden connect storage 0 parameter_gain 0 \, script hidden connect zero 0 parameter_gain 0 \, script hidden connect pvar_aktive 0 parameter_aktive 0 \, script hidden connect parameter_aktive 0 pvar_aktive 0 \, script connect parameter_aktive 1 sel_active 0 \, script connect message_ele 0 route_set_message_ele 0 \, script connect message_azi 0 route_set_message_azi 0 \, script connect message_z 0 route_set_message_z 0 \, script connect pvar_directivity_preset 1 directivity_preset 0 \, script connect directivity_preset 0 pvar_directivity_preset 0 \, script connect directivity_preset 1 mic-preset 0 \, script connect mic-preset 0 parameter_directivity 0;#P connect 1 0 3 0;#P connect 3 0 0 0;#P connect 0 0 2 0;#P pop;#P newobj 177 441 65 196617 p connecting;#P newex 330 153 51 196617 route set;#P objectname route_set_message_z;#P newex 758 173 51 196617 route set;#P objectname route_set_message_azi;#P newex 759 197 51 196617 route set;#P objectname route_set_message_ele;#N vpatcher 676 279 1276 679;#P window setfont "Sans Serif" 9.;#P newex 453 123 140 196617 jcom.post "ViMiC complains";#P newex 453 101 161 196617 sprintf "%s" is not a valid preset;#P window linecount 1;#P message 314 103 31 196617 0.33;#P message 371 102 23 196617 0.3;#P message 200 102 23 196617 0.7;#P message 257 102 23 196617 0.5;#P message 428 102 17 196617 0.;#P window linecount 0;#P message 143 102 23 196617 1.;#P newex 143 65 352 196617 route omni subcardioid cardioid supercardioid hypercardioid figure-eight;#P outlet 143 270 15 0;#P inlet 143 40 15 0;#P comment 292 215 227 196617 the definition of super- and hyper-cardioid vary from company to company;#P connect 1 0 3 0;#P connect 3 0 4 0;#P connect 4 0 2 0;#P connect 7 0 2 0;#P connect 6 0 2 0;#P connect 8 0 2 0;#P connect 5 0 2 0;#P connect 9 0 2 0;#P connect 3 1 7 0;#P connect 3 2 6 0;#P connect 3 3 9 0;#P connect 3 4 8 0;#P connect 3 5 5 0;#P connect 3 6 10 0;#P connect 10 0 11 0;#P pop;#P newobj 1136 45 73 196617 p mic-presets;#P objectname mic-preset;#P newex 830 0 121 196617 pvar directivity_menu 2;#P objectname pvar_directivity_preset;#P user ubumenu 332 0 71 196617 0 0 1 0;#X setrgb 181 181 181 25 25 25 50 50 50 4 4 4 141 141 141 112 112 112;#X add ---;#X add omni;#X add subcardioid;#X add cardioid;#X add supercardioid;#X add hypercardioid;#X add figure-eight;#X prefix_set 0 0 <none> 0;#P objectname directivity_menu;#P newex 270 64 55 196617 delay 200;#N vpatcher 616 360 1216 760;#P window setfont "Sans Serif" 9.;#P window linecount 1;#P hidden message 145 119 56 196617 frgb 0 0 0;#P hidden message 244 118 64 196617 rgb1 66 0 2;#P outlet 123 260 15 0;#P inlet 211 54 15 0;#P window linecount 0;#P hidden message 27 117 81 196617 brgb 16 255 37;#P connect 1 0 0 0;#P connect 4 0 2 0;#P connect 3 0 2 0;#P connect 0 0 2 0;#P connect 1 0 4 0;#P connect 1 0 3 0;#P pop;#P hidden newobj 271 102 46 196617 p colors;#P user jsui 0 1 25 14 1 0 0 jcom.jsui_texttoggle.js on off 68 68 68 225 225 225 121 255 15;#P objectname ACTIVE;#P user jsui 96 205 25 14 1 0 0 jcom.jsui_texttoggle.js on off 68 68 68 225 225 225 121 255 15;#P objectname ACTIVE-old;#N vpatcher 10 59 610 459;#P window setfont "Sans Serif" 9.;#P newex 50 50 51 196617 route set;#P newex 51 71 68 196617 jcom.miditoa;#P inlet 50 30 15 0;#P outlet 51 93 15 0;#P connect 1 0 3 0;#P connect 3 0 2 0;#P connect 2 0 0 0;#P pop;#P newobj 758 77 48 196617 p midi2a;#P objectname miditoa;#P newex 751 6 68 196617 jcom.atomidi;#P objectname atomidi;#P message 921 115 59 196617 0. \, \$1 100;#P newex 921 132 40 196617 line 0.;#P objectname storage;#P newex 921 95 43 196617 float 0.;#P newex 942 58 97 196617 if $f1 > 0. then $f1;#P objectname if_store;#P button 1260 225 15 0;#P message 1216 225 23 196617 0.;#P objectname zero;#P newex 1245 187 41 196617 sel 1 0;#P objectname sel_active;#P newex 739 147 67 196617 pvar ACTIVE;#P objectname pvar_aktive;#P message 658 85 30 196617 bang;#P message 602 82 53 196617 defeat \$1;#P inlet 601 0 15 0;#P newex 601 60 144 196617 jcom.oscroute /freeze /clear;#P user jcom.meter~ 452 5 66 6;#P inlet 575 2 15 0;#N vpatcher 749 58 1349 458;#P outlet 123 260 15 0;#P inlet 211 54 15 0;#P window setfont "Sans Serif" 9.;#P hidden message 375 121 64 196617 rgb2 66 0 2;#P hidden message 27 117 94 196617 rgb2 164 153 128;#P hidden message 253 117 92 196617 frgb 181 181 181;#P hidden message 137 120 93 196617 brgb 100 100 100;#P outlet 387 261 15 0;#P connect 5 0 3 0;#P connect 2 0 6 0;#P connect 3 0 6 0;#P connect 1 0 6 0;#P connect 5 0 1 0;#P connect 5 0 2 0;#P connect 5 0 4 0;#P connect 4 0 0 0;#P connect 1 0 0 0;#P connect 2 0 0 0;#P pop;#P hidden newobj 347 68 46 196617 p colors;#P hidden newex 345 24 48 196617 loadbang;#P hidden button 404 26 15 0;#P hidden newex 346 45 50 196617 deferlow;#P window setfont "Sans Serif" 12.;#P comment 402 0 13 196620 ||;#B frgb 198 0 65;#P bpatcher 415 2 36 13 0 0 jcom.numberslider.mxt 0 1. 0. 1. @size 40 14;#P objectname gain_mic;#P window setfont "Sans Serif" 9.;#P flonum 167 0 35 9 0 0 8224 3 198 198 198 221 221 221 222 222 222 0 0 0;#P objectname Z;#P flonum 131 0 35 9 0 0 8224 3 198 198 198 221 221 221 222 222 222 0 0 0;#P objectname Y;#P bpatcher 295 2 36 13 0 0 jcom.numberslider.mxt 0 0. 0. 1. @size 40 14 @frgb 181 181 181;#P objectname dir_mic;#P window setfont "Sans Serif" 12.;#P comment 279 0 13 196620 ||;#B frgb 198 0 65;#P window setfont "Sans Serif" 9.;#P message 139 332 14 196617 1;#P newex 684 225 144 196617 jcom.list2parameter 2;#P objectname list2parameter2;#P newex 719 198 39 196617 pvar E;#P objectname pvar_E;#P newex 675 197 41 196617 pvar A;#P objectname pvar_A;#P flonum 248 0 32 9 -90. 90. 8227 3 198 198 198 221 221 221 222 222 222 0 0 0;#P objectname E;#P flonum 215 0 33 9 0 0 8224 3 198 198 198 221 221 221 222 222 222 0 0 0;#P objectname A;#P window setfont "Sans Serif" 12.;#P comment 202 0 13 196620 ||;#B frgb 198 0 65;#P window setfont "Sans Serif" 9.;#P newex 191 182 166 196617 jcom.list2parameter.mxt 3;#P objectname list2parameter;#P newex 210 289 67 196617 loadmess $1;#P newex 132 360 96 196617 if $i1 != 0 then $i1;#N thispatcher;#Q end;#P newobj 132 466 61 196617 thispatcher;#P newex 280 152 39 196617 pvar Z;#P objectname pvar_Z;#P newex 234 151 40 196617 pvar Y;#P objectname pvar_Y;#P newex 192 151 40 196617 pvar X;#P objectname pvar_X;#P flonum 95 0 35 9 0 0 8224 3 198 198 198 221 221 221 222 222 222 0 0 0;#P objectname X;#P comment 25 2 72 196617 microphone $1;#B frgb 172 172 172;#P user panel -1 -1 526 19;#X brgb 80 80 80;#X frgb 255 255 255;#X border 1;#X rounded 0;#X shadow 0;#X done;#P hidden connect 45 0 44 0;#P connect 8 0 7 0;#P connect 16 0 7 0;#P connect 7 0 54 0;#P connect 54 0 6 0;#P fasten 53 0 6 0 182 462 137 462;#P connect 54 1 55 0;#P connect 55 0 56 0;#P connect 56 0 53 0;#P connect 3 0 9 0;#P fasten 9 0 3 0 196 206 182 206 182 150 197 150;#P connect 4 0 9 1;#P connect 5 0 9 2;#P connect 52 0 9 2;#P fasten 9 1 4 0 211 210 177 210 177 144 239 144;#P connect 23 0 46 0;#P connect 46 0 45 0;#P fasten 9 2 5 0 226 214 172 214 172 139 285 139;#P hidden connect 26 0 18 0;#P hidden connect 25 0 23 0;#P hidden connect 24 0 23 0;#P hidden connect 23 0 26 0;#P hidden connect 26 1 21 0;#P hidden connect 42 0 21 0;#P hidden connect 27 0 28 0;#P lcolor 6;#P hidden connect 31 0 28 0;#P hidden connect 32 0 28 0;#P connect 30 0 29 0;#P connect 29 0 31 0;#P connect 29 1 32 0;#P connect 51 0 13 0;#P fasten 15 0 13 0 689 250 671 250 671 193 680 193;#P fasten 13 0 15 0 680 222 689 222;#P fasten 14 0 15 1 724 218 702 218;#P connect 50 0 14 0;#P fasten 15 1 14 0 702 257 668 257 668 186 724 186;#P hidden connect 21 0 41 0;#P connect 36 0 38 0;#P connect 38 0 40 0;#P connect 40 0 39 0;#P connect 37 0 38 1;#P connect 34 0 35 0;#P connect 34 1 36 0;#P pop;