max v2;#N vpatcher 83 44 1170 796;#P origin 4 -474;#P window setfont "Sans Serif" 9.;#P window linecount 2;#P hidden message 432 663 229 196617 jcom.message audio/meters/clear @type msg_none @description "clear the audio meters";#P hidden message 672 674 332 196617 jcom.parameter source/orientation/elevation @type msg_float @range 0. 90. @description "orientation of the sound source (elevation)";#P window linecount 1;#N vpatcher 10 59 610 459;#P window setfont "Sans Serif" 9.;#P newex 50 50 51 196617 route set;#P newex 51 71 68 196617 jcom.miditoa;#P inlet 50 30 15 0;#P outlet 51 93 15 0;#P connect 1 0 3 0;#P connect 3 0 2 0;#P connect 2 0 0 0;#P pop;#P hidden newobj 455 103 48 196617 p midi2a;#P hidden newex 455 83 68 196617 jcom.atomidi;#P window linecount 2;#P hidden newex 525 82 282 196617 jcom.parameter.gain room/reflection/2/gain @repetitions 0 @description "gain of the early reflections 2nd order";#P objectname reflections/gain[1];#P bpatcher 152 45 100 12 0 0 jcom.textslider.mxt 1 0. 0. 1. @size 100 12 @text 2nd order refl.;#P window linecount 1;#P hidden newex 595 610 70 196617 pvar warning;#P window linecount 2;#P hidden newex 668 604 325 196617 jcom.parameter warning @type msg_int @range 0 1 @clipmode both @description "turn on/off the printing of ViMiC's warning messages";#P objectname warning[1];#P user hint 106 2 119 14 "warnings on/off" 2500 1000 0 65535 65535 52428 9 3 0 1 0 0 0;#P user hint 121 2 134 14 "report on/off" 2500 1000 0 65535 65535 52428 9 3 0 1 0 0 0;#P toggle 108 2 13 0;#P objectname warning;#P window linecount 1;#P hidden newex 880 208 55 196617 pvar posD;#P hidden newex 765 209 54 196617 pvar posE;#P hidden newex 653 215 56 196617 pvar posA;#P hidden newex 583 536 782 196617 jcom.message update @type msg_none @description "updates ViMiC manually (e.g. through an external clock)\\\, rather than automatically each time set with /updaterate";#P objectname jcom.parameter[1];#N vpatcher 10 59 610 459;#P window setfont "Sans Serif" 9.;#P newex 50 50 51 196617 route set;#P newex 51 71 68 196617 jcom.miditoa;#P inlet 50 30 15 0;#P outlet 51 93 15 0;#P connect 1 0 3 0;#P connect 3 0 2 0;#P connect 2 0 0 0;#P pop;#P hidden newobj 469 24 48 196617 p midi2a;#P hidden newex 448 5 68 196617 jcom.atomidi;#N vpatcher 10 59 610 459;#P window setfont "Sans Serif" 9.;#P newex 50 50 51 196617 route set;#P newex 51 71 68 196617 jcom.miditoa;#P inlet 50 30 15 0;#P outlet 51 93 15 0;#P connect 1 0 3 0;#P connect 3 0 2 0;#P connect 2 0 0 0;#P pop;#P hidden newobj 469 62 48 196617 p midi2a;#P hidden newex 452 44 68 196617 jcom.atomidi;#P hidden message 156 283 30 196617 open;#N vpatcher 605 157 1205 557;#P origin -71 0;#P window setfont "Sans Serif" 9.;#P window linecount 0;#P message -8 168 90 196617 /rendermode mute;#P newex 79 129 41 196617 sel 1 0;#P message 84 168 104 196617 /rendermode unmute;#P window linecount 1;#P newex 198 54 134 196617 jcom.oscroute /audio/mute;#P newex 198 81 31 196617 == 0;#P message 198 127 62 196617 enable \$1 1;#P newex 116 54 78 196617 jcom.pass open;#P outlet 84 226 15 0;#P outlet 198 161 15 0;#N comlet Connect to 2nd last outlet of jcom.in~;#P inlet 116 33 15 0;#P connect 8 0 9 0;#P connect 6 0 8 0;#P connect 8 1 7 0;#P connect 7 0 2 0;#P fasten 6 1 2 0 327 190 89 190;#P fasten 9 0 2 0 -3 190 89 190;#P connect 0 0 3 0;#P connect 3 1 6 0;#P connect 6 0 5 0;#P connect 5 0 4 0;#P connect 4 0 1 0;#P connect 3 0 1 0;#P pop;#P hidden newobj 297 282 105 196617 p algorithm_control~;#P user hint 42 25 102 39 "ViMiC render method" 2500 1000 0 65535 65535 52428 9 3 0 1 0 0 0;#P hidden newex 609 500 68 196617 pvar order 2;#P window linecount 2;#P hidden newex 684 493 378 196617 jcom.parameter room/reflection/order @type msg_int @range 0 2 @repetitions 0 @priority 1 @clipmode both @description "order of early reflections";#P objectname room/reflection/order;#P user ubumenu 127 23 22 196617 0 0 1 0;#X setrgb 181 181 181 25 25 25 50 50 50 4 4 4 141 141 141 112 112 112;#X add 0;#X add 1;#X add 2;#X prefix_set 0 0 <none> 0;#P objectname order;#P window linecount 1;#N vpatcher 64 44 602 739;#P origin 23 17;#P window setfont "Sans Serif" 9.;#N vpatcher 10 59 610 459;#P window setfont "Sans Serif" 9.;#P newex 50 50 73 196617 pak 500 3500;#P newex 50 90 88 196617 unpack 500 3500;#P newex 50 70 40 196617 zl sort;#P inlet 50 30 15 0;#P inlet 113 30 15 0;#P outlet 50 112 15 0;#P outlet 128 112 15 0;#P connect 3 0 6 0;#P connect 6 0 4 0;#P connect 4 0 5 0;#P connect 5 0 1 0;#P connect 2 0 6 1;#P connect 5 1 0 0;#P pop;#P newobj 1812 685 80 196617 p;#P window linecount 2;#P newex 1720 708 643 196617 jcom.parameter room/absorption/ceiling/mid_high_frequency @type msg_int @repetitions 1 @range 10 9999 @clipmode both @description "mid-high crossover frequencies for the ceiling filter";#P newex 1721 652 643 196617 jcom.parameter room/absorption/ceiling/low_mid_frequency @type msg_int @repetitions 1 @range 10 9999 @clipmode both @description "low-mid crossover frequencies for the ceiling wall filter";#P window linecount 1;#P newex 1720 741 65 196617 pvar ceil_hf;#P newex 1720 685 63 196617 pvar ceil_lf;#N vpatcher 10 59 610 459;#P window setfont "Sans Serif" 9.;#P newex 50 50 73 196617 pak 500 3500;#P newex 50 90 88 196617 unpack 500 3500;#P newex 50 70 40 196617 zl sort;#P inlet 50 30 15 0;#P inlet 113 30 15 0;#P outlet 50 112 15 0;#P outlet 128 112 15 0;#P connect 3 0 6 0;#P connect 6 0 4 0;#P connect 4 0 5 0;#P connect 5 0 1 0;#P connect 2 0 6 1;#P connect 5 1 0 0;#P pop;#P newobj 1816 548 80 196617 p;#P window linecount 2;#P newex 1724 571 637 196617 jcom.parameter room/absorption/floor/mid_high_frequency @type msg_int @repetitions 1 @range 10 9999 @clipmode both @description "mid-high crossover frequencies for the front wall filter";#P newex 1725 515 637 196617 jcom.parameter room/absorption/floor/low_mid_frequency @type msg_int @repetitions 1 @range 10 9999 @clipmode both @description "low-mid crossover frequencies for the front wall filter";#P window linecount 1;#P newex 1724 604 71 196617 pvar floor_hf;#P newex 1725 548 69 196617 pvar floor_lf;#N vpatcher 10 59 610 459;#P window setfont "Sans Serif" 9.;#P newex 50 50 73 196617 pak 500 3500;#P newex 50 90 88 196617 unpack 500 3500;#P newex 50 70 40 196617 zl sort;#P inlet 50 30 15 0;#P inlet 113 30 15 0;#P outlet 50 112 15 0;#P outlet 128 112 15 0;#P connect 3 0 6 0;#P connect 6 0 4 0;#P connect 4 0 5 0;#P connect 5 0 1 0;#P connect 2 0 6 1;#P connect 5 1 0 0;#P pop;#P newobj 1815 409 80 196617 p;#P window linecount 2;#P newex 1725 438 638 196617 jcom.parameter room/absorption/right/mid_high_frequency @type msg_int @repetitions 1 @range 10 9999 @clipmode both @description "mid-high crossover frequencies for the front wall filter";#P newex 1725 376 563 196617 jcom.parameter room/absorption/right/low_mid_frequency @type msg_int @repetitions 1 @range 10 9999 @clipmode both @description "low-mid crossover frequencies for the front wall filter";#P window linecount 1;#P newex 1725 471 71 196617 pvar right_hf;#P newex 1725 409 69 196617 pvar right_lf;#N vpatcher 10 59 610 459;#P window setfont "Sans Serif" 9.;#P newex 50 50 73 196617 pak 500 3500;#P newex 50 90 88 196617 unpack 500 3500;#P newex 50 70 40 196617 zl sort;#P inlet 50 30 15 0;#P inlet 113 30 15 0;#P outlet 50 112 15 0;#P outlet 128 112 15 0;#P connect 3 0 6 0;#P connect 6 0 4 0;#P connect 4 0 5 0;#P connect 5 0 1 0;#P connect 2 0 6 1;#P connect 5 1 0 0;#P pop;#P newobj 1814 266 80 196617 p;#P window linecount 2;#P newex 1724 295 616 196617 jcom.parameter room/absorption/left/mid_high_frequency @type msg_int @repetitions 1 @range 10 9999 @clipmode both @description "mid-high crossover frequencies for the front wall filter";#P newex 1723 233 569 196617 jcom.parameter room/absorption/left/low_mid_frequency @type msg_int @repetitions 1 @range 10 9999 @clipmode both @description "low-mid crossover frequencies for the front wall filter";#P window linecount 1;#P newex 1724 328 65 196617 pvar left_hf;#P newex 1724 266 63 196617 pvar left_lf;#N vpatcher 10 59 610 459;#P window setfont "Sans Serif" 9.;#P newex 50 50 73 196617 pak 500 3500;#P newex 50 90 88 196617 unpack 500 3500;#P newex 50 70 40 196617 zl sort;#P inlet 50 30 15 0;#P inlet 113 30 15 0;#P outlet 50 112 15 0;#P outlet 128 112 15 0;#P connect 3 0 6 0;#P connect 6 0 4 0;#P connect 4 0 5 0;#P connect 5 0 1 0;#P connect 2 0 6 1;#P connect 5 1 0 0;#P pop;#P newobj 1813 133 80 196617 p;#P window linecount 2;#P newex 1723 162 600 196617 jcom.parameter room/absorption/rear/mid_high_frequency @type msg_int @repetitions 1 @range 10 9999 @clipmode both @description "mid-high crossover frequencies for the front wall filter";#P newex 1722 100 603 196617 jcom.parameter room/absorption/rear/low_mid_frequency @type msg_int @repetitions 1 @range 10 9999 @clipmode both @description "low-mid crossover frequencies for the front wall filter";#P window linecount 1;#P newex 1723 195 69 196617 pvar rear_hf;#P newex 1723 133 67 196617 pvar rear_lf;#P window linecount 0;#N vpatcher 10 59 610 459;#P window setfont "Sans Serif" 9.;#P newex 50 50 73 196617 pak 500 3500;#P newex 50 90 88 196617 unpack 500 3500;#P newex 50 70 40 196617 zl sort;#P inlet 50 30 15 0;#P inlet 113 30 15 0;#P outlet 50 112 15 0;#P outlet 128 112 15 0;#P connect 3 0 6 0;#P connect 6 0 4 0;#P connect 4 0 5 0;#P connect 5 0 1 0;#P connect 2 0 6 1;#P connect 5 1 0 0;#P pop;#P newobj 1817 7 80 196617 p;#P window linecount 2;#P newex 1727 36 614 196617 jcom.parameter room/absorption/front/mid_high_frequency @type msg_int @repetitions 1 @range 10 9999 @clipmode both @description " mid-high crossover frequencies for the front wall filter";#P newex 1726 -26 613 196617 jcom.parameter room/absorption/front/low_mid_frequency @type msg_int @repetitions 1 @range 10 9999 @clipmode both @description "low-mid  crossover frequencies for the front wall filter";#P window linecount 1;#P newex 1727 69 72 196617 pvar front_hf;#P newex 1727 7 70 196617 pvar front_lf;#P number 188 645 32 9 10 9999 8227 3 181 181 181 221 221 221 222 222 222 0 0 0;#P objectname ceil_hf;#P number 188 628 32 9 10 9999 8227 3 181 181 181 221 221 221 222 222 222 0 0 0;#P objectname floor_hf;#P number 188 611 32 9 10 9999 8227 3 181 181 181 221 221 221 222 222 222 0 0 0;#P objectname rear_hf;#P number 188 594 32 9 10 9999 8227 3 181 181 181 221 221 221 222 222 222 0 0 0;#P objectname front_hf;#P number 188 578 32 9 10 9999 8227 3 181 181 181 221 221 221 222 222 222 0 0 0;#P objectname right_hf;#P number 143 645 32 9 10 9999 8227 3 181 181 181 221 221 221 222 222 222 0 0 0;#P objectname ceil_lf;#P number 143 628 32 9 10 9999 8227 3 181 181 181 221 221 221 222 222 222 0 0 0;#P objectname floor_lf;#P number 143 611 32 9 10 9999 8227 3 181 181 181 221 221 221 222 222 222 0 0 0;#P objectname rear_lf;#P number 143 594 32 9 10 9999 8227 3 181 181 181 221 221 221 222 222 222 0 0 0;#P objectname front_lf;#P number 143 578 32 9 10 9999 8227 3 181 181 181 221 221 221 222 222 222 0 0 0;#P objectname right_lf;#P number 188 561 32 9 10 9999 8227 3 181 181 181 221 221 221 222 222 222 0 0 0;#P objectname left_hf;#P number 143 561 32 9 10 9999 8227 3 181 181 181 221 221 221 222 222 222 0 0 0;#P objectname left_lf;#P hidden message 447 667 239 196617 window flags nogrow \, savewindow 1 \, window exec;#P hidden message 448 651 229 196617 window flags grow \, window exec;#P window linecount 2;#P hidden newex 636 935 352 196617 jcom.parameter source/orientation/active @type msg_toggle @repetitions 0 @description "when ticked\\\, source directivity is calculated";#P objectname source/orientation/active;#P window linecount 1;#P hidden newex 636 915 116 196617 pvar directivity_toggle;#P user jsui 495 542 20 14 1 0 0 jcom.jsui_texttoggle.js off on 204 204 204 0 0 0 121 255 15;#P objectname directivity_toggle;#P user radiogroup 287 660 42 16;#X size 1;#X offset 16;#X inactive 0;#X itemtype 1;#X flagmode 0;#X set 0;#X done;#P objectname Renderthreshold_toggle;#P window linecount 3;#P hidden newex 688 673 274 196617 jcom.parameter rendermode/threshold/active @type msg_toggle @repetitions 0 @description "when ticked\\\, renderthreshold is active";#P objectname rendermode/threshold/active;#P window linecount 1;#P hidden newex 688 653 140 196617 pvar Renderthreshold_toggle;#P window linecount 4;#P hidden newex 686 591 277 196617 jcom.parameter rendermode/threshold @type msg_float @repetitions 0 @range 0. 1000. @clipmode both @description "renders ony reflecitions above this amplitude value (full scale range)";#P objectname rendermode/threshold;#P window linecount 3;#P hidden newex 686 522 297 196617 jcom.parameter rendermode/normalization/active @type msg_toggle @repetitions 0 @description "when ticked\\\, all calculated reflections are getting normalized to unity intensity";#P objectname rendermode/normalization/active;#P window linecount 1;#P hidden newex 686 572 107 196617 pvar Renderthreshold;#P hidden newex 686 502 90 196617 pvar unity_toggle;#P comment 457 609 74 196617 unity intensity;#B frgb 149 149 149;#P user radiogroup 441 608 42 16;#X size 1;#X offset 16;#X inactive 0;#X itemtype 1;#X flagmode 0;#X set 0;#X done;#P objectname unity_toggle;#P comment 301 662 125 196617 Renderthreshold [ä FSR]:;#B frgb 149 149 149;#P flonum 424 660 40 9 0. 1000. 8227 3 181 181 181 221 221 221 255 255 255 0 0 0;#P objectname Renderthreshold;#P window linecount 2;#P hidden newex 669 401 349 196617 jcom.parameter source/orientation/mode @type msg_symbol @repetitions 1 @description "source orientation mode (center\\\, static\\\, or follow)";#P objectname source/orientation/mode;#P window linecount 1;#P hidden newex 669 380 121 196617 pvar orientation_menu 2;#P user ubumenu 458 559 57 196617 0 0 1 0;#X setrgb 181 181 181 25 25 25 50 50 50 4 4 4 141 141 141 112 112 112;#X add static;#X add center;#X add follow;#X prefix_set 0 0 <none> 0;#P objectname orientation_menu;#P outlet 560 687 15 0;#P newex 560 628 47 196617 pcontrol;#N vpatcher 482 382 801 601;#P origin 78 44;#P window setfont "Sans Serif" 9.;#P window linecount 0;#P hidden message 68 247 30 196617 bang;#N vpatcher 40 104 640 504;#P window setfont "Sans Serif" 9.;#P newex 50 50 50 196617 deferlow;#P newex 50 71 55 196617 delay 500;#P newex 50 92 50 196617 deferlow;#P inlet 50 30 15 0;#P outlet 50 114 15 0;#P connect 1 0 4 0;#P connect 4 0 3 0;#P connect 3 0 2 0;#P connect 2 0 0 0;#P pop;#P hidden newobj 577 74 59 196617 p slowbang;#P newex 577 33 27 196617 t b l;#N vpatcher 40 104 640 504;#P window setfont "Sans Serif" 9.;#P newex 50 50 50 196617 deferlow;#P newex 50 71 43 196617 delay 5;#P newex 50 92 50 196617 deferlow;#P inlet 50 30 15 0;#P outlet 50 114 15 0;#P connect 1 0 4 0;#P connect 4 0 3 0;#P connect 3 0 2 0;#P connect 2 0 0 0;#P pop;#P hidden newobj 550 180 59 196617 p slowbang;#P hidden newex 594 53 68 196617 prepend read;#P window linecount 2;#P hidden newex 431 -1 337 196617 jcom.message source/directivity/azimuth/load_file @type msg_symbol @repetitions 1 @description "sound source directivity preset";#P objectname room/absorption[1];#P window linecount 1;#P hidden newex 592 126 27 196617 t b l;#P window linecount 0;#N vpatcher 20 74 620 474;#P window setfont "Sans Serif" 9.;#N vpatcher 50 119 1066 701;#P origin 81 -88;#P window setfont "Sans Serif" 9.;#P window linecount 0;#P message 12 148 56 196617 name none;#P message 488 61 33 196617 clear;#P newex 12 36 40 196617 t b b b;#P outlet 106 266 15 0;#P window linecount 1;#P message 106 92 59 196617 0 1 \, 359 1;#P inlet 39 -7 15 0;#P connect 0 0 3 0;#P connect 3 0 5 0;#P connect 3 1 1 0;#P connect 5 0 2 0;#P fasten 4 0 2 0 493 153 111 153;#P connect 1 0 2 0;#P fasten 3 2 4 0 47 57 493 57;#P pop;#P hidden newobj 195 102 37 196617 p data;#N vpatcher 50 119 650 519;#P origin 81 -117;#P window setfont "Sans Serif" 9.;#P window linecount 0;#P message 12 177 81 196617 name Clarinette;#P message 487 88 33 196617 clear;#P newex 12 65 40 196617 t b b b;#P outlet 106 295 15 0;#P window linecount 6;#P message 106 102 367 196617 0 1. \, 10 0.9661 \, 20 0.8511 \, 30 0.6237 \, 40 0.4842 \, 50 0.3758 \, 60 0.257 \, 70 0.2512 \, 80 0.2818 \, 90 0.3162 \, 100 0.3631 \, 110 0.3758 \, 120 0.4315 \, 130 0.4842 \, 140 0.5248 \, 150 0.5012 \, 160 0.5309 \, 170 0.537 \, 180 0.5623 \, 190 0.537 \, 200 0.5309 \, 210 0.5012 \, 220 0.5248 \, 230 0.4842 \, 240 0.4315 \, 250 0.3758 \, 260 0.3631 \, 270 0.3162 \, 280 0.2818 \, 290 0.2512 \, 300 0.257 \, 310 0.3758 \, 320 0.4842 \, 330 0.6237 \, 340 0.8511 \, 350 0.9661 \, 360 1.;#P inlet 39 22 15 0;#P connect 0 0 3 0;#P connect 3 0 5 0;#P connect 3 1 1 0;#P connect 1 0 2 0;#P fasten 4 0 2 0 492 182 111 182;#P connect 5 0 2 0;#P fasten 3 2 4 0 47 86 492 86;#P pop;#P hidden newobj 148 101 37 196617 p data;#N vpatcher 50 119 650 519;#P origin 81 -116;#P window setfont "Sans Serif" 9.;#P window linecount 0;#P message 12 176 74 196617 name Trumpet;#P message 488 89 33 196617 clear;#P newex 12 64 40 196617 t b b b;#P outlet 106 294 15 0;#P window linecount 6;#P message 106 100 367 196617 0 1. \, 10 0.9661 \, 20 0.955 \, 30 0.881 \, 40 0.8318 \, 50 0.7943 \, 60 0.7586 \, 70 0.6839 \, 80 0.6166 \, 90 0.6026 \, 100 0.5754 \, 110 0.5559 \, 120 0.5248 \, 130 0.507 \, 140 0.4624 \, 150 0.4519 \, 160 0.4217 \, 170 0.4169 \, 180 0.3846 \, 190 0.4169 \, 200 0.4217 \, 210 0.4519 \, 220 0.4624 \, 230 0.507 \, 240 0.5248 \, 250 0.5559 \, 260 0.5754 \, 270 0.6026 \, 280 0.6166 \, 290 0.6839 \, 300 0.7586 \, 310 0.7943 \, 320 0.8318 \, 330 0.881 \, 340 0.955 \, 350 0.9661 \, 360 1.;#P inlet 39 21 15 0;#P connect 0 0 3 0;#P connect 3 0 5 0;#P connect 3 1 1 0;#P connect 5 0 2 0;#P fasten 4 0 2 0 493 181 111 181;#P connect 1 0 2 0;#P fasten 3 2 4 0 47 85 493 85;#P pop;#P hidden newobj 99 101 37 196617 p data;#N vpatcher 50 119 650 519;#P outlet 164 180 15 0;#P inlet 166 71 15 0;#P connect 0 0 1 0;#P pop;#P hidden newobj 50 122 37 196617 p thru;#N vpatcher 476 204 1076 604;#P origin 81 -87;#P window setfont "Sans Serif" 9.;#P window linecount 0;#P message 12 131 80 196617 name Trombone;#P message 488 60 33 196617 clear;#P newex 12 35 40 196617 t b b b;#P outlet 106 265 15 0;#P window linecount 6;#P message 106 69 361 196617 0 1 \, 10 0.9661 \, 20 0.955 \, 30 0.8222 \, 40 0.7674 \, 50 0.6998 \, 60 0.5623 \, 70 0.4842 \, 80 0.389 \, 90 0.3162 \, 100 0.302 \, 110 0.2818 \, 120 0.2692 \, 130 0.26 \, 140 0.2399 \, 150 0.2317 \, 160 0.2138 \, 170 0.1905 \, 180 0.1778 \, 190 0.1905 \, 200 0.2138 \, 210 0.2317 \, 220 0.2399 \, 230 0.26 \, 240 0.2692 \, 250 0.2818 \, 260 0.302 \, 270 0.3162 \, 280 0.389 \, 290 0.4842 \, 300 0.5623 \, 310 0.6998 \, 320 0.7674 \, 330 0.8222 \, 340 0.955 \, 350 0.9661 \, 360 1;#P inlet 39 -8 15 0;#P connect 0 0 3 0;#P connect 3 0 5 0;#P connect 3 1 1 0;#P connect 1 0 2 0;#P fasten 4 0 2 0 493 152 111 152;#P connect 5 0 2 0;#P fasten 3 2 4 0 47 56 493 56;#P pop;#P hidden newobj 50 101 37 196617 p data;#P hidden newex 51 80 185 196617 select trombone trumpet clarinet none;#P inlet 51 30 15 0;#P outlet 50 144 15 0;#P hidden connect 2 0 3 0;#P hidden connect 3 0 4 0;#P hidden connect 5 0 4 0;#P hidden connect 6 0 4 0;#P hidden fasten 7 0 4 0 200 120 55 120;#P connect 4 0 0 0;#P connect 1 0 2 0;#P hidden connect 2 1 5 0;#P hidden connect 2 2 6 0;#P hidden connect 2 3 7 0;#P pop;#P hidden newobj 609 147 52 196617 p presets;#P hidden newex 431 74 117 196617 pvar sourceDirPreset 2;#P window linecount 2;#P hidden newex 431 94 327 196617 jcom.message source/directivity/azimuth/preset @type msg_symbol @repetitions 1 @description "sound source directivity preset";#P objectname room/absorption[3];#P window linecount 0;#N vpatcher 706 332 1306 732;#P inlet 139 29 15 0;#P outlet 151 183 15 0;#P window setfont "Sans Serif" 9.;#P message 133 112 65 196617 0 1. \, 360 1.;#P message 242 107 33 196617 clear;#P newex 137 51 30 196617 t b b;#P connect 0 0 2 0;#P connect 4 0 0 0;#P connect 1 0 3 0;#P connect 2 0 3 0;#P connect 0 1 1 0;#P pop;#P hidden newobj -42 25 41 196617 p clear;#P window linecount 1;#P hidden newex 153 247 108 196617 loadmess const 10000;#P window linecount 0;#P comment 16 102 21 196617 0.5;#B frgb 149 149 149;#P hidden newex -100 48 48 196617 loadbang;#P comment 98 186 109 196617 confirm with "create";#B frgb 149 149 149;#P message 132 1 35 196617 flip_y;#P comment 23 160 14 196617 0;#B frgb 149 149 149;#P comment 23 47 15 196617 1;#B frgb 149 149 149;#P comment 204 171 33 196617 270 ¼;#B frgb 149 149 149;#P message 78 1 53 196617 normalize;#P message 35 1 42 196617 smooth;#P hidden message -98 70 74 196617 gridstep_x 45;#P comment 144 171 31 196617 180 ¼;#B frgb 149 149 149;#P comment 89 171 26 196617 90 ¼;#B frgb 149 149 149;#P comment 265 171 37 196617 360 ¼;#B frgb 149 149 149;#P comment 35 171 23 196617 0 ¼;#B frgb 149 149 149;#P hidden newex 123 220 27 196617 - 1;#P message 36 18 35 196617 write;#N thispatcher;#Q window flags nogrow close zoom nofloat;#Q window size 482 382 801 601;#Q window title;#Q window exec;#Q savewindow 1;#Q end;#P newobj 347 168 61 196617 thispatcher;#P window linecount 1;#P hidden message 257 148 273 196617 window flags nogrow \, savewindow 1 \, window exec;#P hidden message 222 186 262 196617 window flags grow \, window exec;#P window linecount 0;#N vpatcher 881 162 1481 562;#P window setfont "Sans Serif" 9.;#P message 215 223 210 196617 360 4964.861328;#P newex 215 201 62 196617 prepend set;#P inlet 235 38 15 0;#P window linecount 1;#N vpatcher 85 314 369 706;#P window setfont "Sans Serif" 9.;#P newex 31 151 30 196617 t b b;#P inlet 114 59 15 0;#P newex 44 311 58 196617 pak 360 1.;#P newex 92 284 40 196617 / 360.;#P message 31 203 36 196617 set 0.;#P newex 50 246 50 196617 accum 0.;#P inlet 70 58 15 0;#P outlet 44 336 15 0;#P fasten 6 0 7 0 119 112 36 112;#P connect 7 0 3 0;#P connect 5 0 0 0;#P fasten 3 0 2 0 36 232 55 232;#P connect 7 1 2 0;#P connect 1 0 2 1;#P fasten 2 0 4 0 55 268 97 268;#P connect 4 0 5 1;#P pop;#P newobj 204 143 41 196617 p mean;#P window linecount 0;#P newex 131 94 53 196617 * 10000.;#P newex 91 71 50 196617 t b f;#P newex 91 119 27 196617 i;#P newex 91 140 50 196617 pack 0 0.;#P newex 50 50 51 196617 zl slice 1;#P inlet 179 33 15 0;#P inlet 50 30 15 0;#P outlet 91 192 15 0;#P connect 1 0 3 0;#P connect 3 1 6 0;#P connect 6 0 5 0;#P connect 5 0 4 0;#P connect 8 0 0 0;#P connect 4 0 0 0;#P fasten 2 0 5 1 184 57 113 57;#P connect 6 1 7 0;#P connect 7 0 4 1;#P connect 7 0 8 0;#P connect 8 0 10 0;#P connect 10 0 11 0;#P connect 9 0 8 1;#P pop;#P hidden newobj 108 246 40 196617 p stuff;#P user ubumenu 181 18 100 196617 0 1 1 0;#X add Preset;#X add none;#X add trombone;#X add trumpet;#X add clarinet;#X prefix_set 0 0 <none> 0;#P objectname sourceDirPreset;#P window linecount 1;#P newex 282 245 169 196617 prepend /source/directivity/create;#P message 72 18 39 196617 create;#B color 5;#P message 146 18 33 196617 clear;#P message 113 18 30 196617 read;#P user jsui 36 38 245 131 1 0 0 ej.function.js;#J statemessage CreateNFunctions 2 Clarinette 50 0. 1. 0. 360. nan nan 0.7943 nan;#J statemessage legend 1;#J statemessage grid 3;#J statemessage snap2grid 0;#J statemessage hiddenpoint 0;#J statemessage clickadd 1;#J statemessage clickmove 1;#J statemessage autosustain 0;#J statemessage timedisplay 0;#J statemessage autocursor 1;#J statemessage bordersync 1;#J statemessage ghost 20;#J statemessage notifyrecalled 0;#J statemessage mousereport 1;#J statemessage numcurvepoints 12;#J statemessage movemode 0;#J statemessage mode 1;#J statemessage SetColor 0 brgb 204 204 204;#J statemessage SetColor 0 frgb 82 82 82;#J statemessage SetColor 0 rgb2 84 84 84;#J statemessage SetColor 0 rgb3 255 0 0;#J statemessage SetColor 0 rgb4 51 51 51;#J statemessage SetColor 0 rgb5 128 128 128;#J statemessage SetColor 0 rgb6 107 107 107;#J statemessage SetColor 1 brgb 204 204 204;#J statemessage SetColor 1 frgb 82 82 82;#J statemessage SetColor 1 rgb2 107 107 107;#J statemessage SetColor 1 rgb3 255 0 0;#J statemessage SetColor 1 rgb4 51 51 51;#J statemessage SetColor 1 rgb5 128 128 128;#J statemessage SetColor 1 rgb6 107 107 107;#J statemessage fsaa 1;#J statemessage redrawon;#P objectname ej.lui-311017;#P hidden message 16 301 205 196617 /source/directivity/create $0-directivity;#P newex 282 265 62 196617 prepend set;#P newex 282 226 121 196617 loadmess $0-directivity;#N vtable 361 385 67 1143 775 979704 10001 $0-directivity;#P hidden newobj 108 269 102 196617 table $0-directivity;#P hidden inlet -71 235 15 0;#P outlet 16 323 15 0;#P hidden newex 414 167 88 196617 bgcolor 80 80 80;#P hidden newex 16 259 44 196617 del 100;#P hidden button -76 190 15 0;#P hidden newex -1 238 44 196617 uzi 360;#P hidden connect 34 0 26 0;#P hidden fasten 13 0 1 0 77 35 -71 35;#P hidden connect 12 0 37 0;#P hidden fasten 44 0 0 0 555 213 4 213;#P connect 1 0 0 0;#P hidden connect 0 1 2 0;#P hidden connect 2 0 9 0;#P hidden fasten 8 0 9 0 287 288 21 288;#P connect 9 0 4 0;#P hidden connect 21 0 10 0;#P hidden connect 43 0 10 0;#P hidden connect 40 0 10 0;#P fasten 11 0 10 0 118 35 41 35;#P fasten 20 0 10 0 41 35 41 35;#P hidden connect 26 0 10 0;#P hidden connect 27 0 10 0;#P hidden connect 28 0 10 0;#P hidden connect 32 0 10 0;#P hidden connect 37 0 10 0;#P hidden connect 0 1 47 0;#P hidden fasten 10 0 16 0 41 177 113 177;#P hidden connect 16 0 6 0;#P hidden connect 36 0 6 0;#P hidden connect 0 2 21 0;#P hidden connect 21 0 16 1;#P hidden connect 47 0 16 2;#P connect 7 0 14 0;#P connect 14 0 8 0;#P hidden connect 18 0 19 0;#P hidden connect 17 0 19 0;#P hidden fasten 38 0 39 0 436 126 428 126 428 69 436 69;#P hidden connect 39 1 38 0;#P connect 46 0 44 0;#P hidden connect 41 0 44 0;#P connect 42 1 45 0;#P connect 45 0 46 0;#P hidden connect 38 1 41 0;#P connect 45 1 43 0;#P hidden connect 41 1 40 0;#P pop;#P newobj 560 650 110 196617 p "source directivity";#P user jsui 288 609 52 19 1 0 0 jsui_textbutton.js "Get Info" 225 225 225 68 68 68;#P objectname allreport;#P user jsui 458 578 57 17 1 0 0 jsui_textbutton.js directivity 225 225 225 68 68 68;#P hidden message 560 608 30 196617 open;#P hidden newex 663 456 90 196617 pvar orientationA;#P window setfont "Sans Serif" 10.;#P comment 436 466 97 196618 Source orientation;#B frgb 149 149 149;#P window setfont "Sans Serif" 9.;#P number 459 542 32 9 0 0 8224 3 181 181 181 221 221 221 222 222 222 0 0 0;#P objectname orientationA;#N vpatcher 540 187 1140 587;#P window setfont "Sans Serif" 9.;#P newex 50 70 31 196617 % 1.;#P newex 50 50 120 196617 expr ($i1 + 180) / 360.;#P inlet 50 30 15 0;#P outlet 50 92 15 0;#P connect 1 0 2 0;#P connect 2 0 3 0;#P connect 3 0 0 0;#P pop;#P hidden newobj 663 474 53 196617 p convert;#N vpatcher 10 59 610 459;#P outlet 179 108 15 0;#P window setfont "Sans Serif" 9.;#P newex 50 50 119 196617 expr $f1 * 360. - 180;#P newex 50 71 62 196617 prepend set;#P inlet 50 30 15 0;#P outlet 50 93 15 0;#P connect 1 0 3 0;#P connect 3 0 2 0;#P connect 2 0 0 0;#P connect 3 0 4 0;#P pop;#P hidden newobj 664 437 53 196617 p convert;#P user jsui 457 483 58 58 1 0 0 jsui_360dial.js;#P window linecount 4;#P hidden newex 754 437 200 196617 jcom.parameter source/orientation/azimuth/degree @type msg_int @range -180 180 @clipmode both @description "orientation of the sound source (azimuth)";#P objectname source/orientation/azimuth/degree;#P window linecount 1;#P newex 361 879 61 196617 delay 1000;#P newex 356 859 50 196617 deferlow;#P newex 355 838 48 196617 loadbang;#N vpatcher 20 74 620 474;#P button 203 217 15 0;#P window setfont "Sans Serif" 9.;#P window linecount 0;#P newex 203 235 98 196617 loadmess separator;#P inlet 143 50 15 0;#P newex 142 94 246 196617 t b f;#P button 114 133 15 0;#P window linecount 1;#P newex 103 158 40 196617 uzi 24;#P newex 103 285 285 196617 zl join;#P newex 103 217 95 196617 append /position/z;#P newex 103 195 110 196617 prepend microphones/;#P newex 103 262 51 196617 tosymbol;#P outlet 103 333 15 0;#P connect 6 0 5 0;#P connect 5 2 2 0;#P connect 2 0 3 0;#P fasten 9 0 1 0 208 257 108 257;#P connect 3 0 1 0;#P connect 1 0 4 0;#P connect 4 0 0 0;#P connect 7 0 6 0;#P connect 8 0 7 0;#P connect 10 0 9 0;#P connect 7 1 4 1;#P pop;#P newobj 38 978 48 196617 p all_ele;#P newex 243 919 62 196617 prepend set;#N vpatcher 676 279 1276 679;#P window setfont "Sans Serif" 9.;#P window linecount 1;#P message 314 103 31 196617 0.33;#P message 371 102 23 196617 0.3;#P message 200 102 23 196617 0.7;#P message 257 102 23 196617 0.5;#P message 428 102 17 196617 0.;#P window linecount 0;#P message 143 102 23 196617 1.;#P newex 143 65 352 196617 route omni subcardioid cardioid supercardioid hypercardioid figure-eight;#P outlet 143 270 15 0;#P inlet 143 40 15 0;#P comment 292 215 227 196617 the definition of super- and hyper-cardioid vary from company to company;#P connect 1 0 3 0;#P connect 3 0 4 0;#P connect 9 0 2 0;#P connect 5 0 2 0;#P connect 8 0 2 0;#P connect 6 0 2 0;#P connect 7 0 2 0;#P connect 4 0 2 0;#P connect 3 1 7 0;#P connect 3 2 6 0;#P connect 3 3 9 0;#P connect 3 4 8 0;#P connect 3 5 5 0;#P pop;#P newobj 243 897 73 196617 p mic-presets;#P objectname mic-preset;#N vpatcher 749 58 1349 458;#P outlet 123 260 15 0;#P inlet 211 54 15 0;#P window setfont "Sans Serif" 9.;#P hidden message 375 121 64 196617 rgb2 66 0 2;#P hidden message 27 117 94 196617 rgb2 164 153 128;#P hidden message 253 117 92 196617 frgb 181 181 181;#P hidden message 137 120 93 196617 brgb 100 100 100;#P outlet 387 261 15 0;#P connect 5 0 3 0;#P connect 2 0 6 0;#P connect 3 0 6 0;#P connect 1 0 6 0;#P connect 5 0 1 0;#P connect 5 0 2 0;#P connect 5 0 4 0;#P connect 4 0 0 0;#P connect 1 0 0 0;#P connect 2 0 0 0;#P pop;#P hidden newobj 570 442 46 196617 p colors;#P hidden newex 571 402 48 196617 loadbang;#P hidden newex 571 421 50 196617 deferlow;#N vpatcher 20 74 620 474;#P window setfont "Sans Serif" 9.;#P window linecount 0;#P message 265 78 14 196617 1;#P inlet 269 49 15 0;#P window linecount 1;#P newex 104 133 47 196617 gate 0 0;#P window linecount 0;#P newex 160 114 62 196617 prepend set;#P button 180 236 15 0;#P window linecount 1;#P newex 196 235 98 196617 loadmess separator;#P inlet 143 50 15 0;#P window linecount 0;#P newex 142 94 29 196617 t b f;#P window linecount 1;#P newex 103 158 40 196617 uzi 24;#P message 306 194 42 196617 0.;#P newex 103 285 38 196617 zl join;#P newex 103 212 126 196617 append /directivity/ratio;#P newex 103 190 110 196617 prepend microphones/;#P newex 103 262 51 196617 tosymbol;#P outlet 103 333 15 0;#P connect 12 0 6 0;#P connect 6 2 2 0;#P connect 2 0 3 0;#P fasten 9 0 1 0 201 257 108 257;#P connect 3 0 1 0;#P connect 1 0 4 0;#P connect 4 0 0 0;#P connect 14 0 12 0;#P fasten 5 0 4 1 311 281 136 281;#P connect 7 0 12 1;#P connect 8 0 7 0;#P connect 7 1 11 0;#P connect 10 0 9 0;#P connect 13 0 14 0;#P connect 6 2 5 0;#P connect 11 0 5 0;#P pop;#P newobj 246 847 49 196617 p all_Dir;#N vpatcher 20 74 620 474;#P button 180 236 15 0;#P window setfont "Sans Serif" 9.;#P window linecount 0;#P newex 196 235 98 196617 loadmess separator;#P inlet 143 50 15 0;#P newex 142 94 286 196617 t b s;#P button 114 133 15 0;#P window linecount 1;#P newex 103 158 40 196617 uzi 24;#P newex 103 285 325 196617 zl join;#P newex 103 212 133 196617 append /directivity/preset;#P newex 103 190 110 196617 prepend microphones/;#P newex 103 262 51 196617 tosymbol;#P outlet 103 333 15 0;#P connect 6 0 5 0;#P connect 5 2 2 0;#P connect 2 0 3 0;#P fasten 9 0 1 0 201 257 108 257;#P connect 3 0 1 0;#P connect 1 0 4 0;#P connect 4 0 0 0;#P connect 7 0 6 0;#P connect 8 0 7 0;#P connect 10 0 9 0;#P connect 7 1 4 1;#P pop;#P newobj 242 949 78 196617 p all_Dir_menu;#P newex 243 872 104 196617 pvar All_dir_menu 2;#N vpatcher 20 74 620 474;#P inlet 248 45 15 0;#P window setfont "Sans Serif" 9.;#P window linecount 0;#P message 54 128 14 196617 1;#P newex 103 136 47 196617 gate 0 0;#P newex 143 72 68 196617 jcom.atomidi;#P button 196 217 15 0;#P newex 196 235 98 196617 loadmess separator;#P inlet 143 50 15 0;#P newex 142 94 233 196617 t b f;#P window linecount 1;#P newex 103 158 40 196617 uzi 24;#P newex 103 285 272 196617 zl join;#P newex 103 217 92 196617 append /gain/midi;#P newex 103 195 110 196617 prepend microphones/;#P newex 103 262 51 196617 tosymbol;#P outlet 103 333 15 0;#P connect 13 0 12 0;#P connect 12 0 11 0;#P connect 11 0 5 0;#P connect 5 2 2 0;#P connect 2 0 3 0;#P fasten 8 0 1 0 201 257 108 257;#P connect 3 0 1 0;#P connect 1 0 4 0;#P connect 4 0 0 0;#P connect 6 0 11 1;#P connect 10 0 6 0;#P connect 7 0 10 0;#P connect 9 0 8 0;#P connect 6 1 4 1;#P pop;#P newobj 374 917 75 196617 p all_gain_mic;#P outlet 117 980 15 0;#P newex 38 959 58 196617 pvar All_Z;#P newex 13 932 59 196617 pvar All_Y;#P newex 14 912 59 196617 pvar All_X;#P newex 158 916 60 196617 pvar All_A;#N vpatcher 20 74 620 474;#P button 196 217 15 0;#P window setfont "Sans Serif" 9.;#P window linecount 0;#P newex 196 235 98 196617 loadmess separator;#P inlet 143 50 15 0;#P newex 142 94 178 196617 t b f;#P button 114 133 15 0;#P window linecount 1;#P newex 103 158 40 196617 uzi 24;#P newex 103 285 217 196617 zl join;#P window linecount 3;#P newex 103 217 86 196617 append /orientation/azimuth;#P window linecount 1;#P newex 103 195 110 196617 prepend microphones/;#P newex 103 262 51 196617 tosymbol;#P outlet 103 333 15 0;#P connect 6 0 5 0;#P connect 5 2 2 0;#P connect 2 0 3 0;#P fasten 9 0 1 0 201 257 108 257;#P connect 3 0 1 0;#P connect 1 0 4 0;#P connect 4 0 0 0;#P connect 7 0 6 0;#P connect 8 0 7 0;#P connect 10 0 9 0;#P connect 7 1 4 1;#P pop;#P newobj 158 937 48 196617 p all_azi;#P newex 98 916 58 196617 pvar All_E;#N vpatcher 20 74 620 474;#P button 196 217 15 0;#P window setfont "Sans Serif" 9.;#P window linecount 0;#P newex 196 235 98 196617 loadmess separator;#P inlet 143 50 15 0;#P newex 142 94 246 196617 t b f;#P button 114 133 15 0;#P window linecount 1;#P newex 103 158 40 196617 uzi 24;#P newex 103 285 285 196617 zl join;#P window linecount 3;#P newex 103 217 88 196617 append /orientation/elevation;#P window linecount 1;#P newex 103 195 110 196617 prepend microphones/;#P newex 103 262 51 196617 tosymbol;#P outlet 103 333 15 0;#P connect 6 0 5 0;#P connect 5 2 2 0;#P connect 2 0 3 0;#P fasten 9 0 1 0 201 257 108 257;#P connect 3 0 1 0;#P connect 1 0 4 0;#P connect 4 0 0 0;#P connect 7 0 6 0;#P connect 8 0 7 0;#P connect 10 0 9 0;#P connect 7 1 4 1;#P pop;#P newobj 98 937 48 196617 p all_ele;#P user ubumenu 335 445 71 196617 0 0 1 0;#X setrgb 181 181 181 25 25 25 50 50 50 4 4 4 141 141 141 112 112 112;#X add ---;#X add omni;#X add subcardioid;#X add cardioid;#X add supercardioid;#X add hypercardioid;#X add figure-eight;#X prefix_set 0 0 <none> 0;#P objectname All_dir_menu;#P window setfont "Sans Serif" 12.;#P comment 405 445 13 196620 ||;#B frgb 198 0 65;#P bpatcher 418 447 36 13 0 0 jcom.numberslider.mxt 0 0. 0. 1. @size 40 14;#P objectname All_gain_mic;#P window setfont "Sans Serif" 9.;#P flonum 170 445 35 9 -20. 20. 8227 3 198 198 198 221 221 221 222 222 222 0 0 0;#P objectname All_Z;#P flonum 134 445 35 9 0 0 8224 3 198 198 198 221 221 221 222 222 222 0 0 0;#P objectname All_Y;#P bpatcher 298 447 36 13 0 0 jcom.numberslider.mxt 0 0. 0. 1. @size 40 14 @frgb 181 181 181;#P objectname All_dir;#P window setfont "Sans Serif" 12.;#P comment 282 445 13 196620 ||;#B frgb 198 0 65;#P window setfont "Sans Serif" 9.;#P flonum 251 445 32 9 -90. 90. 8227 3 198 198 198 221 221 221 222 222 222 0 0 0;#P objectname All_E;#P flonum 218 445 33 9 -180. 0 8225 3 198 198 198 221 221 221 222 222 222 0 0 0;#P objectname All_A;#P window setfont "Sans Serif" 12.;#P comment 205 445 13 196620 ||;#B frgb 198 0 65;#P window setfont "Sans Serif" 9.;#P flonum 98 445 35 9 0 0 8224 3 198 198 198 221 221 221 222 222 222 0 0 0;#P objectname All_X;#P comment 36 447 52 196617 quick pick;#B frgb 149 149 149;#P bpatcher 3 428 523 17 0 0 jcom.sur.vimic_mic.mxt 0 24;#P objectname jcom.sur.vimic_mic.mxt[16];#P bpatcher 3 411 523 17 0 0 jcom.sur.vimic_mic.mxt 0 23;#P objectname jcom.sur.vimic_mic.mxt[17];#P bpatcher 3 394 523 17 0 0 jcom.sur.vimic_mic.mxt 0 22;#P objectname jcom.sur.vimic_mic.mxt[18];#P bpatcher 3 377 523 17 0 0 jcom.sur.vimic_mic.mxt 0 21;#P objectname jcom.sur.vimic_mic.mxt[19];#P bpatcher 3 360 523 17 0 0 jcom.sur.vimic_mic.mxt 0 20;#P objectname jcom.sur.vimic_mic.mxt[20];#P bpatcher 3 343 523 17 0 0 jcom.sur.vimic_mic.mxt 0 19;#P objectname jcom.sur.vimic_mic.mxt[21];#P bpatcher 3 326 523 17 0 0 jcom.sur.vimic_mic.mxt 0 18;#P objectname jcom.sur.vimic_mic.mxt[22];#P bpatcher 3 309 523 17 0 0 jcom.sur.vimic_mic.mxt 0 17;#P objectname jcom.sur.vimic_mic.mxt[23];#P flonum 399 509 27 9 0. 40. 8227 3 181 181 181 221 221 221 255 255 255 0 0 0;#P objectname dirPow[2];#P flonum 399 495 27 9 0. 40. 8227 3 181 181 181 221 221 221 255 255 255 0 0 0;#P objectname dirPow[1];#P comment 295 512 100 196617 2nd order reflection:;#B frgb 149 149 149;#P comment 296 497 99 196617 1st order reflection:;#B frgb 149 149 149;#P comment 331 482 64 196617 direct sound:;#B frgb 149 149 149;#P flonum 184 509 27 9 0. 40. 8227 3 181 181 181 221 221 221 255 255 255 0 0 0;#P objectname disPow2;#P flonum 184 495 27 9 0. 40. 8227 3 181 181 181 221 221 221 255 255 255 0 0 0;#P objectname disPow1;#P comment 79 511 100 196617 2nd order reflection:;#B frgb 149 149 149;#P comment 80 496 99 196617 1st order reflection:;#B frgb 149 149 149;#P comment 115 482 64 196617 direct sound:;#B frgb 149 149 149;#P comment 363 610 58 196617 Temp [¼C]:;#B frgb 149 149 149;#P flonum 419 609 28 9 -20. 40. 8227 3 181 181 181 221 221 221 255 255 255 0 0 0;#P objectname temp;#P window linecount 3;#P newex 1092 878 292 196617 jcom.parameter room/temperature @type msg_float @repetitions 1 @range -20. 30. @clipmode low @description "Temperature in Celsius to calculate the speed of sound";#P window linecount 1;#P newex 1034 889 56 196617 pvar temp;#P comment 339 645 82 196617 Renderintervall:;#B frgb 149 149 149;#P number 420 643 28 9 1 0 8225 3 181 181 181 221 221 221 255 255 255 0 0 0;#P objectname Renderintervall;#P hidden newex 983 844 104 196617 pvar Renderintervall;#P window linecount 3;#P newex 1093 829 379 196617 jcom.parameter rendermode/intervall @type msg_int @range 1 100 @clipmode low @description "tells ViMiC over how many signalblocks a change in position is interpolated - shorter time leads to faster transition and stronger doppler effect";#P window linecount 1;#P comment 296 23 37 196617 ratio;#B frgb 181 181 181;#P comment 435 10 56 196617 Gain;#B frgb 181 181 181;#P user ubumenu 229 645 53 196617 0 0 1 0;#X setrgb 181 181 181 25 25 25 50 50 50 4 4 4 141 141 141 112 112 112;#X add ---;#X add zero;#X add full;#X add audience;#X add carpet;#X add brick;#X add sand;#X add metal;#X add trees;#X add grass;#X prefix_set 0 0 <none> 0;#P objectname ceiling_menu;#P user ubumenu 229 628 53 196617 0 0 1 0;#X setrgb 181 181 181 25 25 25 50 50 50 4 4 4 141 141 141 112 112 112;#X add ---;#X add zero;#X add full;#X add audience;#X add carpet;#X add brick;#X add sand;#X add metal;#X add trees;#X add grass;#X prefix_set 0 0 <none> 0;#P objectname floor_menu;#P user ubumenu 229 577 53 196617 0 0 1 0;#X setrgb 181 181 181 25 25 25 50 50 50 4 4 4 141 141 141 112 112 112;#X add ---;#X add zero;#X add full;#X add audience;#X add carpet;#X add brick;#X add sand;#X add metal;#X add trees;#X add grass;#X prefix_set 0 0 <none> 0;#P objectname right_menu;#P user ubumenu 229 560 53 196617 0 0 1 0;#X setrgb 181 181 181 25 25 25 50 50 50 4 4 4 141 141 141 112 112 112;#X add ---;#X add zero;#X add full;#X add audience;#X add carpet;#X add brick;#X add sand;#X add metal;#X add trees;#X add grass;#X prefix_set 0 0 <none> 0;#P objectname left_menu;#P user ubumenu 229 611 53 196617 0 0 1 0;#X setrgb 181 181 181 25 25 25 50 50 50 4 4 4 141 141 141 112 112 112;#X add ---;#X add zero;#X add full;#X add audience;#X add carpet;#X add brick;#X add sand;#X add metal;#X add trees;#X add grass;#X prefix_set 0 0 <none> 0;#P objectname rear_menu;#P newex 1387 602 101 196617 pvar ceiling_menu 2;#P newex 1538 655 82 196617 wall_properties;#P window linecount 2;#P newex 1387 624 312 196617 jcom.message room/absorption/ceiling/preset @type msg_symbol @repetitions 1 @description "absorption presets for the floor";#P objectname room/absorption[5];#P window linecount 1;#P newex 1378 493 94 196617 pvar floor_menu 2;#P newex 1529 546 82 196617 wall_properties;#P window linecount 2;#P newex 1378 515 305 196617 jcom.message room/absorption/floor/preset @type msg_symbol @repetitions 1 @description "absorption presets for the floor";#P objectname room/absorption[4];#P window linecount 1;#P newex 1358 328 94 196617 pvar right_menu 2;#P newex 1509 381 82 196617 wall_properties;#P window linecount 2;#P newex 1358 350 315 196617 jcom.message room/absorption/right/preset @type msg_symbol @repetitions 1 @description "absorption presets for the right wall";#P objectname room/absorption[3];#P window linecount 1;#P newex 1365 184 88 196617 pvar left_menu 2;#P newex 1514 237 82 196617 wall_properties;#P window linecount 2;#P newex 1365 206 309 196617 jcom.message room/absorption/left/preset @type msg_symbol @repetitions 1 @description "absorption presets for the left wall";#P objectname room/absorption[2];#P window linecount 1;#P newex 1356 70 92 196617 pvar rear_menu 2;#P newex 1507 124 82 196617 wall_properties;#P window linecount 2;#P newex 1356 92 313 196617 jcom.message room/absorption/rear/preset @type msg_symbol @repetitions 1 @description "absorption presets for the rear wall";#P objectname room/absorption[1];#P window linecount 1;#P newex 1357 -38 95 196617 pvar front_menu 2;#P newex 1510 15 82 196617 wall_properties;#P window linecount 2;#P newex 1357 -16 316 196617 jcom.message room/absorption/front/preset @type msg_symbol @repetitions 1 @description "absorption presets for the front wall";#P objectname room/absorption;#P user ubumenu 229 594 53 196617 0 0 1 0;#X setrgb 181 181 181 25 25 25 50 50 50 4 4 4 141 141 141 112 112 112;#X add ---;#X add zero;#X add full;#X add audience;#X add carpet;#X add brick;#X add sand;#X add metal;#X add trees;#X add grass;#X prefix_set 0 0 <none> 0;#P objectname front_menu;#P window setfont "Sans Serif" 10.;#P window linecount 1;#P comment 140 531 88 196618 cross-frequency;#B frgb 149 149 149;#P window setfont "Sans Serif" 9.;#P number 73 665 41 9 500 19000 8227 3 181 181 181 221 221 221 222 222 222 0 0 0;#P objectname early_lowcut;#P comment 3 667 69 196617 airfilter [Hz]:;#B frgb 149 149 149;#P flonum 250 665 28 9 0. 40. 8227 3 181 181 181 221 221 221 255 255 255 0 0 0;#P objectname roomsizeZ;#P flonum 222 665 28 9 0. 40. 8227 3 181 181 181 221 221 221 255 255 255 0 0 0;#P objectname roomsizeY;#P flonum 194 665 28 9 0. 40. 8227 3 181 181 181 221 221 221 255 255 255 0 0 0;#P objectname roomsizeX;#P comment 116 667 77 196617 roomize x/y/z:;#B frgb 149 149 149;#P window linecount 2;#P newex 1052 756 418 196617 jcom.parameter room/absorption/ceiling/high @type msg_float @repetitions 1 @range 0.1 99.9 @clipmode both @description "absorption for the high frequencies of the ceiling";#P newex 1052 711 416 196617 jcom.parameter room/absorption/ceiling/mid @type msg_float @repetitions 1 @range 0.1 99.9 @clipmode both @description "absorption for the mid frequencies of the ceiling";#P newex 1052 665 416 196617 jcom.parameter room/absorption/ceiling/low @type msg_float @repetitions 1 @range 0.1 99.9 @clipmode both @description "absorption for the low frequencies of the ceiling";#P window linecount 1;#P newex 973 770 66 196617 pvar ceil_hg;#P newex 973 731 69 196617 pvar ceil_mg;#P newex 973 679 64 196617 pvar ceil_lg;#P window linecount 3;#P newex 1050 622 292 196617 jcom.parameter room/absorption/floor/high @type msg_float @repetitions 1 @range 0.1 99.9 @clipmode both @description "absorption for the high frequencies of the floor wall";#P newex 1050 577 290 196617 jcom.parameter room/absorption/floor/mid @type msg_float @repetitions 1 @range 0.1 99.9 @clipmode both @description "absorption for the mid frequencies of the floor wall";#P newex 1050 531 290 196617 jcom.parameter room/absorption/floor/low @type msg_float @repetitions 1 @range 0.1 99.9 @clipmode both @description "absorption for the low frequencies of the floor wall";#P window linecount 1;#P newex 975 633 72 196617 pvar floor_hg;#P newex 971 597 75 196617 pvar floor_mg;#P newex 971 545 70 196617 pvar floor_lg;#P window linecount 3;#P newex 1049 488 292 196617 jcom.parameter room/absorption/right/high @type msg_float @repetitions 1 @range 0.1 99.9 @clipmode both @description "absorption for the high frequencies of the right wall";#P newex 1049 443 290 196617 jcom.parameter room/absorption/right/mid @type msg_float @repetitions 1 @range 0.1 99.9 @clipmode both @description "absorption for the mid frequencies of the right wall";#P newex 1049 397 290 196617 jcom.parameter room/absorption/right/low @type msg_float @repetitions 1 @range 0.1 99.9 @clipmode both @description "absorption for the low frequencies of the right wall";#P objectname room/absorption/right/low;#P window linecount 1;#P newex 970 502 72 196617 pvar right_hg;#P newex 970 463 75 196617 pvar right_mg;#P newex 970 411 70 196617 pvar right_lg;#P window linecount 3;#P newex 1047 351 286 196617 jcom.parameter room/absorption/left/high @type msg_float @repetitions 1 @range 0.1 99.9 @clipmode both @description "absorption for the high frequencies of the left wall";#P newex 1047 306 284 196617 jcom.parameter room/absorption/left/mid @type msg_float @repetitions 1 @range 0.1 99.9 @clipmode both @description "absorption for the mid frequencies of the left wall";#P newex 1047 260 284 196617 jcom.parameter room/absorption/left/low @type msg_float @repetitions 1 @range 0.1 99.9 @clipmode both @description "absorption for the low frequencies of the left wall";#P window linecount 1;#P newex 968 365 66 196617 pvar left_hg;#P newex 968 326 69 196617 pvar left_mg;#P newex 968 274 64 196617 pvar left_lg;#P comment 184 547 45 196617 mid/high;#B frgb 149 149 149;#P comment 138 547 45 196617 low/mid;#B frgb 149 149 149;#P comment 101 547 26 196617 high;#B frgb 149 149 149;#P comment 70 547 26 196617 mids;#B frgb 149 149 149;#P comment 40 547 24 196617 low;#B frgb 149 149 149;#P window linecount 3;#P newex 1047 215 290 196617 jcom.parameter room/absorption/rear/high @type msg_float @repetitions 1 @range 0.1 99.9 @clipmode both @description "absorption for the high frequencies of the rear wall";#P newex 1047 169 288 196617 jcom.parameter room/absorption/rear/mid @type msg_float @repetitions 1 @range 0.1 99.9 @clipmode both @description "absorption for the mid frequencies of the rear wall";#P newex 1047 123 288 196617 jcom.parameter room/absorption/rear/low @type msg_float @repetitions 1 @range 0.1 99.9 @clipmode both @description "absorption for the low frequencies of the rear wall";#P window linecount 1;#P newex 968 229 70 196617 pvar back_hg;#P newex 968 189 73 196617 pvar back_mg;#P newex 968 137 68 196617 pvar back_lg;#P window linecount 3;#P newex 1047 77 293 196617 jcom.parameter room/absorption/front/high @type msg_float @repetitions 1 @range 0.1 99.9 @clipmode both @description "absorption for the high frequencies of the front wall";#P newex 1047 30 291 196617 jcom.parameter room/absorption/front/mid @type msg_float @repetitions 1 @range 0.1 99.9 @clipmode both @description "absorption for the mid frequencies of the front wall";#P objectname room/absorption/front/mid;#P newex 1047 -16 294 196617 jcom.parameter room/absorption/front/low @type msg_float @repetitions 1 @range 0.1 99.9 @clipmode both @description "absorption for the low frequencies of the front wall";#P objectname room/absorption/front/low;#P window linecount 1;#P newex 968 91 73 196617 pvar front_hg;#P newex 968 45 76 196617 pvar front_mg;#P newex 968 -2 71 196617 pvar front_lg;#P flonum 103 645 28 9 0. 100. 8227 3 181 181 181 221 221 221 255 255 255 0 0 0;#P objectname ceil_hg;#P flonum 103 628 28 9 0. 100. 8227 3 181 181 181 221 221 221 255 255 255 0 0 0;#P objectname floor_hg;#P flonum 103 578 28 9 0. 100. 8227 3 181 181 181 221 221 221 255 255 255 0 0 0;#P objectname right_hg;#P flonum 103 561 28 9 0. 100. 8227 3 181 181 181 221 221 221 255 255 255 0 0 0;#P objectname left_hg;#P flonum 103 611 28 9 0. 100. 8227 3 181 181 181 221 221 221 255 255 255 0 0 0;#P objectname back_hg;#P flonum 103 594 28 9 0. 100. 8227 3 181 181 181 221 221 221 255 255 255 0 0 0;#P objectname front_hg;#P flonum 73 645 28 9 0. 100. 8227 3 181 181 181 221 221 221 255 255 255 0 0 0;#P objectname ceil_mg;#P flonum 73 628 28 9 0. 100. 8227 3 181 181 181 221 221 221 255 255 255 0 0 0;#P objectname floor_mg;#P flonum 73 578 28 9 0. 100. 8227 3 181 181 181 221 221 221 255 255 255 0 0 0;#P objectname right_mg;#P flonum 73 561 28 9 0. 100. 8227 3 181 181 181 221 221 221 255 255 255 0 0 0;#P objectname left_mg;#P flonum 73 611 28 9 0. 100. 8227 3 181 181 181 221 221 221 255 255 255 0 0 0;#P objectname back_mg;#P flonum 73 594 28 9 0. 100. 8227 3 181 181 181 221 221 221 255 255 255 0 0 0;#P objectname front_mg;#P flonum 42 645 28 9 0. 100. 8227 3 181 181 181 221 221 221 255 255 255 0 0 0;#P objectname ceil_lg;#P flonum 42 628 28 9 0. 100. 8227 3 181 181 181 221 221 221 255 255 255 0 0 0;#P objectname floor_lg;#P flonum 42 578 28 9 0. 100. 8227 3 181 181 181 221 221 221 255 255 255 0 0 0;#P objectname right_lg;#P flonum 42 561 28 9 0. 100. 8227 3 181 181 181 221 221 221 255 255 255 0 0 0;#P objectname left_lg;#P flonum 42 611 28 9 0. 100. 8227 3 181 181 181 221 221 221 255 255 255 0 0 0;#P objectname back_lg;#P comment 2 648 40 196617 Ceiling:;#B frgb 149 149 149;#P comment 8 631 34 196617 Floor:;#B frgb 149 149 149;#P comment 8 581 34 196617 Right:;#B frgb 149 149 149;#P comment 12 564 29 196617 Left:;#B frgb 149 149 149;#P comment 10 614 31 196617 Back:;#B frgb 149 149 149;#P comment 7 596 34 196617 front:;#B frgb 149 149 149;#P window setfont "Sans Serif" 12.;#P comment 2 8 86 196620 Microphones:;#B frgb 149 149 149;#P window setfont "Sans Serif" 10.;#P comment 34 531 104 196618 wall absorption [%];#B frgb 149 149 149;#P window setfont "Sans Serif" 9.;#P flonum 42 594 28 9 0. 100. 8227 3 181 181 181 221 221 221 255 255 255 0 0 0;#P objectname front_lg;#P user panel 1 528 285 160;#X brgb 80 80 80;#X frgb 255 255 255;#X border 1;#X rounded 0;#X shadow 0;#X done;#P newex 428 755 107 196617 pvar xfade_threshold;#P number 388 568 32 9 0 0 8225 3 181 181 181 221 221 221 222 222 222 0 0 0;#P objectname xfade_threshold;#P comment 287 570 83 196617 fading threshold:;#B frgb 149 149 149;#P newex 446 731 92 196617 pvar xfade_length;#P number 388 552 32 9 0 0 8225 3 181 181 181 221 221 221 222 222 222 0 0 0;#P objectname xfade_length;#P comment 310 554 61 196617 fading time:;#B frgb 149 149 149;#P window setfont "Sans Serif" 12.;#P comment 291 532 111 196620 X-FADE settings:;#B frgb 149 149 149;#P window setfont "Sans Serif" 9.;#P comment 294 586 77 196617 fading function:;#B frgb 149 149 149;#P user ubumenu 371 585 60 196617 0 0 1 0;#X setrgb 181 181 181 25 25 25 50 50 50 4 4 4 141 141 141 112 112 112;#X add cosine;#X add cosine_squared;#X add linear;#X add tanh;#X add sqrt;#X prefix_set 0 0 <none> 0;#P objectname fadefunction;#P user panel 287 528 146 77;#X brgb 80 80 80;#X frgb 255 255 255;#X border 1;#X rounded 0;#X shadow 0;#X done;#P newex 433 811 98 196617 pvar fadefunction 2;#P window linecount 2;#P newex 542 805 403 196617 jcom.parameter rendermode/xfade/fadefunction @type msg_symbol @description "fading function of the crossfade for the x-fade mode";#P window linecount 3;#P newex 543 760 329 196617 jcom.parameter rendermode/xfade/threshold @type msg_int @range 0 4096 @repetitions 0 @clipmode low @description "distance in samples before a crossfade in the x-fade mode is activated";#P window linecount 2;#P newex 542 723 408 196617 jcom.parameter rendermode/xfade/fadelength @type msg_int @repetitions 0 @range 0 512 @clipmode low @description "length of the crossfade for the x-fade mode in ms";#P window linecount 1;#P hidden newex 399 -19 417 196617 jcom.multi.out~;#P bpatcher 3 292 523 17 0 0 jcom.sur.vimic_mic.mxt 0 16;#P objectname jcom.sur.vimic_mic.mxt[8];#P bpatcher 3 275 523 17 0 0 jcom.sur.vimic_mic.mxt 0 15;#P objectname jcom.sur.vimic_mic.mxt[9];#P bpatcher 3 258 523 17 0 0 jcom.sur.vimic_mic.mxt 0 14;#P objectname jcom.sur.vimic_mic.mxt[10];#P bpatcher 3 241 523 17 0 0 jcom.sur.vimic_mic.mxt 0 13;#P objectname jcom.sur.vimic_mic.mxt[11];#P bpatcher 3 224 523 17 0 0 jcom.sur.vimic_mic.mxt 0 12;#P objectname jcom.sur.vimic_mic.mxt[12];#P bpatcher 3 207 523 17 0 0 jcom.sur.vimic_mic.mxt 0 11;#P objectname jcom.sur.vimic_mic.mxt[13];#P bpatcher 3 190 523 17 0 0 jcom.sur.vimic_mic.mxt 0 10;#P objectname jcom.sur.vimic_mic.mxt[14];#P bpatcher 3 173 523 17 0 0 jcom.sur.vimic_mic.mxt 0 9;#P objectname jcom.sur.vimic_mic.mxt[15];#P window linecount 2;#P message 8 878 64 196617 \; max refresh;#P inlet 831 -23 15 0;#P hidden inlet 402 -37 15 0;#P bpatcher 3 156 523 17 0 0 jcom.sur.vimic_mic.mxt 0 8;#P objectname jcom.sur.vimic_mic.mxt[7];#P bpatcher 3 139 523 17 0 0 jcom.sur.vimic_mic.mxt 0 7;#P objectname jcom.sur.vimic_mic.mxt[6];#P bpatcher 3 122 523 17 0 0 jcom.sur.vimic_mic.mxt 0 6;#P objectname jcom.sur.vimic_mic.mxt[5];#P bpatcher 3 105 523 17 0 0 jcom.sur.vimic_mic.mxt 0 5;#P objectname jcom.sur.vimic_mic.mxt[4];#P bpatcher 3 88 523 17 0 0 jcom.sur.vimic_mic.mxt 0 4;#P objectname jcom.sur.vimic_mic.mxt[3];#P bpatcher 3 71 523 17 0 0 jcom.sur.vimic_mic.mxt 0 3;#P objectname jcom.sur.vimic_mic.mxt[2];#P bpatcher 3 54 523 17 0 0 jcom.sur.vimic_mic.mxt 0 2;#P objectname jcom.sur.vimic_mic.mxt[1];#P flonum 399 481 27 9 0. 40. 8227 3 181 181 181 221 221 221 255 255 255 0 0 0;#P objectname dirPow;#P flonum 184 481 27 9 0. 40. 8227 3 181 181 181 221 221 221 255 255 255 0 0 0;#P objectname disPow;#P window linecount 1;#P comment 336 627 84 196617 update rate [Hz]:;#B frgb 149 149 149;#P number 420 625 28 9 1 50 8227 3 181 181 181 221 221 221 255 255 255 0 0 0;#P objectname Updaterate;#P hidden newex 1004 804 83 196617 pvar Updaterate;#P window linecount 2;#P newex 1093 797 407 196617 jcom.parameter updaterate @type msg_int @range 1 50 @clipmode low @description "vimic internal updaterate in [Hz]- tells how often new parameter are getting updated";#P window linecount 1;#P newex 116 869 50 196617 deferlow;#P window linecount 3;#P hidden newex 670 323 337 196617 jcom.parameter room/reflection/airfilter @type msg_int @range 500 19000 @clipmode both @repetitions 0 @description "damping frequency of the early reflections due to air absorption";#P objectname room/reflection/airfilter;#P window linecount 1;#P hidden newex 670 301 94 196617 pvar early_lowcut;#P comment 355 24 37 196617 preset;#B frgb 181 181 181;#P newex 434 856 144 196617 jcom.list2parameter 3;#P newex 600 881 80 196617 pvar roomsizeZ;#P newex 517 881 81 196617 pvar roomsizeY;#P newex 434 881 81 196617 pvar roomsizeX;#P window linecount 2;#P newex 583 846 386 196617 jcom.parameter room/size/xyz @type msg_list @ramp/drive scheduler @range 0. 40. @repetitions 0 @clipmode both @description "Size of the virtual room in XYZ";#P objectname room/size/xyz;#P window linecount 1;#P comment 6 467 201 196617 power law for attenuation due to distance:;#B frgb 149 149 149;#P comment 219 468 211 196617 power law for attenuation due to directivity:;#B frgb 149 149 149;#P hidden newex 669 229 66 196617 pvar dirPow;#P hidden newex 688 164 66 196617 pvar disPow;#P window linecount 3;#P hidden newex 669 249 285 196617 jcom.parameter microphones/direct/power @type msg_float @repetitions 0 @range 0. 8. @clipmode both @description "power law for attenuation due to microphone directivity";#P objectname microphones/direct/power;#P hidden newex 688 183 267 196617 jcom.parameter room/distance/power @type msg_float @range 0. 8. @clipmode both @repetitions 0 @description "power law for attenuation due to distance";#P objectname room/distance/power;#P window linecount 1;#P comment 204 23 87 196617 Yaw/Pitch;#B frgb 181 181 181;#P comment 171 23 14 196617 Z;#B frgb 181 181 181;#P comment 137 23 14 196617 Y;#B frgb 181 181 181;#P comment 99 22 14 196617 X;#B frgb 181 181 181;#P comment 316 10 56 196617 Directivity;#B frgb 181 181 181;#P comment 215 10 87 196617 Orientation;#B frgb 181 181 181;#P comment 96 10 99 196617 Microphone position;#B frgb 181 181 181;#P bpatcher 3 37 523 17 0 0 jcom.sur.vimic_mic.mxt 0 1;#P objectname jcom.sur.vimic_mic.mxt;#P hidden newex 759 113 74 196617 pvar allreport;#P window linecount 3;#P hidden newex 760 133 203 196617 jcom.message report_all @type msg_int @range 0 1 @clipmode both @description "report inner state of the vimic module";#P objectname direct/gain[2];#P flonum 406 804 29 9 0 0 8224 3 181 181 181 221 221 221 222 222 222 0 0 0;#P objectname bb6;#P flonum 406 786 29 9 0 0 8224 3 181 181 181 221 221 221 222 222 222 0 0 0;#P objectname bb5;#P window linecount 1;#P hidden newex 116 848 117 196617 loadmess patcher ViMiC;#P hidden inlet 6 782 15 0;#N thispatcher;#Q window flags nogrow close zoom nofloat;#Q window size 64 44 602 739;#Q window title;#Q window exec;#Q savewindow 1;#Q end;#P hidden newobj 116 892 59 196617 thispatcher;#P hidden newex 158 987 88 196617 bgcolor 80 80 80;#P user panel 1 5 533 459;#X brgb 80 80 80;#X frgb 255 255 255;#X border 1;#X rounded 0;#X shadow 0;#X done;#P user panel 216 465 217 62;#X brgb 80 80 80;#X frgb 255 255 255;#X border 1;#X rounded 0;#X shadow 0;#X done;#P user panel 1 465 213 62;#X brgb 80 80 80;#X frgb 255 255 255;#X border 1;#X rounded 0;#X shadow 0;#X done;#P user panel 287 606 247 82;#X brgb 80 80 80;#X frgb 255 255 255;#X border 1;#X rounded 0;#X shadow 0;#X done;#P user panel 434 465 100 140;#X brgb 80 80 80;#X frgb 255 255 255;#X border 1;#X rounded 0;#X shadow 0;#X done;#P hidden connect 60 0 13 0;#P hidden connect 60 1 42 0;#P hidden connect 60 2 43 0;#P hidden connect 60 3 44 0;#P hidden connect 60 4 45 0;#P hidden connect 60 5 46 0;#P hidden connect 60 6 47 0;#P hidden connect 60 7 48 0;#P hidden connect 60 8 52 0;#P hidden connect 60 9 53 0;#P hidden connect 60 10 54 0;#P hidden connect 60 11 55 0;#P hidden connect 60 12 56 0;#P hidden connect 60 13 57 0;#P hidden connect 60 14 58 0;#P hidden connect 60 15 59 0;#P hidden connect 60 16 194 0;#P hidden connect 60 17 195 0;#P hidden connect 60 18 196 0;#P hidden connect 60 19 197 0;#P hidden connect 60 20 198 0;#P hidden connect 60 21 199 0;#P hidden connect 60 22 200 0;#P hidden connect 60 23 201 0;#P connect 220 0 231 0;#P connect 215 0 214 0;#P connect 8 0 35 0;#P connect 35 0 6 0;#P hidden connect 266 0 6 0;#P hidden connect 265 0 6 0;#P connect 225 0 221 0;#P connect 214 0 221 0;#P connect 216 0 221 0;#P fasten 222 0 221 0 379 976 122 976;#P fasten 224 0 221 0 247 976 122 976;#P connect 231 0 221 0;#P connect 217 0 216 0;#P fasten 223 1 224 0 342 944 247 944;#P fasten 223 1 229 0 342 893 248 893;#P connect 229 0 230 0;#P hidden connect 208 0 225 0;#P connect 234 0 225 1;#P hidden connect 228 0 208 0;#P hidden connect 230 0 208 0;#P connect 232 0 233 0;#P connect 233 0 234 0;#P hidden connect 211 0 222 0;#P hidden connect 49 0 60 0;#P hidden connect 228 1 211 0;#P connect 62 0 74 0;#P connect 63 0 64 0;#P fasten 28 0 31 0 439 903 431 903 431 849 439 849;#P connect 31 0 28 0;#P connect 234 0 222 1;#P connect 61 0 71 0;#P fasten 29 0 31 1 522 907 425 907 425 844 452 844;#P hidden connect 238 0 236 0;#P hidden fasten 30 0 31 2 605 906 420 906 420 839 465 839;#P hidden connect 50 0 13 1;#P hidden connect 50 0 42 1;#P hidden connect 50 0 43 1;#P hidden connect 50 0 44 1;#P hidden connect 50 0 45 1;#P hidden connect 50 0 46 1;#P hidden connect 50 0 47 1;#P hidden connect 50 0 48 1;#P hidden connect 50 0 52 1;#P hidden connect 50 0 53 1;#P hidden connect 50 0 54 1;#P hidden connect 50 0 55 1;#P hidden connect 50 0 56 1;#P hidden connect 50 0 57 1;#P hidden connect 50 0 58 1;#P hidden connect 50 0 59 1;#P hidden connect 50 0 194 1;#P hidden connect 50 0 195 1;#P hidden connect 50 0 196 1;#P hidden connect 50 0 197 1;#P hidden connect 50 0 198 1;#P hidden connect 50 0 199 1;#P hidden connect 50 0 200 1;#P hidden connect 50 0 201 1;#P connect 31 1 29 0;#P connect 71 0 61 0;#P connect 64 1 63 0;#P connect 74 0 62 0;#P hidden connect 243 0 242 0;#P connect 242 0 246 0;#P connect 246 0 245 0;#P connect 245 0 247 0;#P lcolor 15;#P connect 27 0 31 10;#P lcolor 15;#P hidden connect 226 0 228 0;#P hidden connect 227 0 226 0;#P connect 31 10 27 0;#P lcolor 15;#P connect 31 2 30 0;#P hidden fasten 264 0 263 0 641 968 632 968 632 911 641 911;#P hidden connect 263 0 264 0;#P hidden connect 237 0 241 0;#P hidden connect 235 0 241 0;#P hidden connect 241 0 238 0;#P hidden connect 236 0 237 0;#P hidden fasten 22 0 24 0 674 292 666 292 666 226 674 226;#P hidden connect 24 0 22 0;#P hidden fasten 250 0 249 0 674 433 666 433 666 377 674 377;#P hidden connect 249 1 250 0;#P hidden fasten 34 0 33 0 675 366 666 366 666 297 675 297;#P hidden connect 33 0 34 0;#P hidden fasten 257 0 255 0 691 566 682 566 682 498 691 498;#P hidden connect 255 0 257 0;#P hidden fasten 258 0 256 0 691 647 683 647 683 569 691 569;#P hidden connect 256 0 258 0;#P hidden fasten 21 0 23 0 693 226 685 226 685 161 693 161;#P hidden connect 23 0 21 0;#P hidden fasten 260 0 259 0 693 716 684 716 684 649 693 649;#P hidden connect 259 0 260 0;#P hidden connect 237 1 235 0;#P hidden connect 12 0 11 0;#P connect 105 0 102 0;#P connect 106 0 103 0;#P connect 107 0 104 0;#P connect 111 0 108 0;#P connect 112 0 109 0;#P connect 113 0 110 0;#P connect 122 0 119 0;#P connect 123 0 120 0;#P connect 124 0 121 0;#P connect 128 0 125 0;#P connect 129 0 126 0;#P connect 130 0 127 0;#P connect 134 0 131 0;#P connect 135 0 132 0;#P connect 140 0 137 0;#P connect 141 0 138 0;#P connect 142 0 139 0;#P connect 136 0 133 0;#P hidden connect 176 0 177 0;#P connect 36 0 37 0;#P connect 181 0 180 0;#P connect 152 0 105 0;#P connect 102 0 105 0;#P connect 152 1 106 0;#P connect 103 0 106 0;#P connect 152 2 107 0;#P connect 104 0 107 0;#P connect 108 0 111 0;#P connect 155 0 111 0;#P connect 155 1 112 0;#P connect 109 0 112 0;#P connect 155 2 113 0;#P connect 110 0 113 0;#P connect 158 0 122 0;#P connect 119 0 122 0;#P connect 158 1 123 0;#P connect 120 0 123 0;#P connect 158 2 124 0;#P connect 121 0 124 0;#P connect 161 0 128 0;#P connect 125 0 128 0;#P connect 161 1 129 0;#P connect 126 0 129 0;#P connect 161 2 130 0;#P connect 127 0 130 0;#P connect 164 0 134 0;#P connect 131 0 134 0;#P connect 164 1 135 0;#P connect 132 0 135 0;#P connect 164 2 136 0;#P connect 133 0 136 0;#P connect 167 0 140 0;#P connect 137 0 140 0;#P connect 167 1 141 0;#P connect 138 0 141 0;#P connect 167 2 142 0;#P connect 139 0 142 0;#P connect 180 0 181 0;#P connect 37 0 36 0;#P hidden connect 177 0 176 0;#P connect 154 0 156 0;#P connect 156 1 154 0;#P connect 151 0 153 0;#P connect 153 1 151 0;#P connect 160 0 162 0;#P connect 162 1 160 0;#P connect 157 0 159 0;#P connect 159 1 157 0;#P connect 163 0 165 0;#P connect 165 1 163 0;#P connect 166 0 168 0;#P connect 168 1 166 0;#P connect 154 1 155 0;#P connect 160 1 161 0;#P connect 151 1 152 0;#P connect 157 1 158 0;#P connect 163 1 164 0;#P connect 166 1 167 0;#P connect 167 3 304 0;#P connect 306 0 304 0;#P connect 308 1 307 0;#P connect 167 4 305 0;#P connect 307 0 305 0;#P connect 308 0 306 0;#P connect 288 0 286 0;#P connect 155 3 284 0;#P connect 286 0 284 0;#P connect 288 1 287 0;#P connect 155 4 285 0;#P connect 287 0 285 0;#P connect 293 0 291 0;#P connect 158 3 289 0;#P connect 291 0 289 0;#P connect 293 1 292 0;#P connect 158 4 290 0;#P connect 292 0 290 0;#P connect 303 1 302 0;#P connect 164 4 300 0;#P connect 302 0 300 0;#P connect 298 0 296 0;#P connect 161 3 294 0;#P connect 296 0 294 0;#P connect 298 1 297 0;#P connect 161 4 295 0;#P connect 297 0 295 0;#P connect 303 0 301 0;#P connect 164 3 299 0;#P connect 301 0 299 0;#P connect 283 0 281 0;#P connect 152 3 279 0;#P connect 281 0 279 0;#P connect 283 1 282 0;#P connect 152 4 280 0;#P connect 282 0 280 0;#P connect 304 0 308 0;#P connect 284 0 288 0;#P connect 289 0 293 0;#P connect 294 0 298 0;#P connect 299 0 303 0;#P connect 279 0 283 0;#P connect 305 0 308 1;#P connect 285 0 288 1;#P connect 290 0 293 1;#P connect 295 0 298 1;#P connect 300 0 303 1;#P connect 280 0 283 1;#P pop;#P hidden newobj 156 332 67 196617 p inspector;#B color 4;#P objectname inspector;#P hidden newex 543 313 62 196617 prepend set;#P hidden newex 614 365 27 196617 - 1;#P hidden newex 613 294 27 196617 + 1;#P hidden newex 613 346 51 196617 route set;#P hidden newex 613 453 102 196617 pvar render_mode 2;#P window linecount 2;#P hidden newex 721 447 242 196617 jcom.parameter rendermode @type msg_symbol @repetitions 0 @description "Rendertype of ViMiC";#P objectname rendermode;#P user ubumenu 41 23 63 196617 0 0 1 0;#X setrgb 181 181 181 25 25 25 50 50 50 4 4 4 141 141 141 112 112 112;#X add ViMiC_lite;#X add X-fade_lite;#X add ViMiC_XL;#X add X-fade_XL;#X add Panning;#X add Static;#X prefix_set 0 0 <none> 0;#P objectname render_mode;#P window linecount 1;#N vpatcher 497 319 1097 719;#P outlet 56 179 15 0;#P button 137 29 15 0;#P window setfont "Sans Serif" 9.;#P hidden message 60 91 64 196617 rgb2 66 0 2;#P hidden message 221 89 92 196617 frgb 181 181 181;#P hidden message 138 91 75 196617 brgb 47 46 36;#P newex 83 58 50 196617 deferlow;#P newex 83 24 48 196617 loadbang;#P connect 4 0 6 0;#P connect 2 0 6 0;#P connect 3 0 6 0;#P connect 1 0 4 0;#P connect 5 0 1 0;#P connect 0 0 1 0;#P connect 1 0 2 0;#P connect 1 0 3 0;#P pop;#P hidden newobj 348 77 46 196617 p colors;#N thispatcher;#Q end;#P hidden newobj 350 121 61 196617 thispatcher;#N vpatcher 188 431 335 589;#P button 43 34 15 0;#P window setfont "Sans Serif" 9.;#P newex 41 54 50 196617 deferlow;#P newex 41 75 50 196617 t front;#P outlet 41 103 15 0;#P inlet 41 15 15 0;#P connect 4 0 3 0;#P connect 3 0 2 0;#P connect 2 0 1 0;#P connect 0 0 4 0;#P pop;#P hidden newobj 350 99 14 196617 p;#P bpatcher 152 32 100 12 0 0 jcom.textslider.mxt 1 0. 0. 1. @size 100 12 @text 1st order refl.;#P bpatcher 152 19 100 13 0 0 jcom.textslider.mxt 1 0. 0. 1. @size 100 12 @text direct sound @frgb;#P user ubumenu 105 23 22 196617 0 0 1 0;#X setrgb 181 181 181 25 25 25 50 50 50 4 4 4 141 141 141 112 112 112;#X add 1;#X add 2;#X add 3;#X add 4;#X add 5;#X add 6;#X add 7;#X add 8;#X add 9;#X add 10;#X add 11;#X add 12;#X add 13;#X add 14;#X add 15;#X add 16;#X add 17;#X add 18;#X add 19;#X add 20;#X add 21;#X add 22;#X add 23;#X add 24;#X prefix_set 0 0 <none> 0;#P objectname mics;#P window linecount 2;#P hidden newex 613 314 396 196617 jcom.parameter microphones/amount @type msg_int @range 1 24 @repetitions 0 @clipmode low @priority 2 @description "Number of rendered virtual microphones";#P objectname microphones/amount;#P window linecount 1;#P hidden newex 613 274 64 196617 pvar mics 2;#P comment 4 25 34 196617 setup:;#B frgb 149 149 149;#P hidden newex 156 253 221 196617 jcom.oscroute /open_inspector /audio/meters;#P hidden newex 156 301 44 196617 pcontrol;#P hidden outlet 132 625 15 0;#P hidden newex 132 531 430 196617 jcom.multi.in~;#P hidden newex 605 387 63 196617 pvar report;#P toggle 121 2 13 0;#P objectname report;#P window linecount 2;#P hidden newex 605 407 288 196617 jcom.parameter report @type msg_int @range 0 1 @clipmode both @description "report changes inside the vimic module";#P objectname report[1];#P hidden newex 523 46 281 196617 jcom.parameter.gain room/reflection/1/gain @repetitions 0 @description "gain of the early reflections 1st order";#P objectname reflections/gain;#P hidden newex 520 6 236 196617 jcom.parameter.gain direct/gain @repetitions 0 @description "gain of the direct sound component";#P objectname direct/gain;#P hidden newex 653 176 350 196617 jcom.parameter.spatdif source/position/absolute @ramp/drive scheduler @description "Sourceposition in the virtual room - spatDIF compliant";#P objectname source/position/absolute;#P flonum 126 41 26 9 0. 25. 8227 3 181 181 181 221 221 221 255 255 255 0 0 0;#P objectname posD;#P flonum 100 41 27 9 0 90. 8226 3 181 181 181 221 221 221 255 255 255 0 0 0;#P objectname posE;#P flonum 68 41 33 9 -180. 180. 8227 3 181 181 181 221 221 221 255 255 255 0 0 0;#P objectname posA;#P window linecount 1;#P hidden newex 392 308 47 196617 pcontrol;#P message 104 80 191 196617 /preset/store 1 default \, /preset/write;#B color 3;#P hidden newex 133 447 339 196617 jcom.out~ 25;#P hidden newex 132 231 58 196617 jcom.in~ 1;#P message 112 102 125 196617 /documentation/generate;#B color 3;#P window linecount 2;#P newex 14 141 396 196617 jcom.hub jmod.sur.vimic~ @inspector 1 @size 1U-half @module_type audio.ambisonic @description "This is Virtual Microphone Control (ViMiC) for Max/MSP";#P objectname jcom.hub;#P window linecount 1;#P comment 28 103 79 196617 command input;#P inlet 14 103 13 0;#P message 243 102 31 196617 /init;#P hidden inlet 132 212 13 0;#P comment -2 43 75 196617 Position A/E/D;#B frgb 149 149 149;#P hidden newex 132 358 313 196617 jalg.sur.vimic_8_1~.mxt;#P outlet 14 179 13 0;#P hidden comment 91 654 101 196617 multicable output;#P user hint 129 23 148 39 "order of early reflections" 4000 1000 0 65535 65535 52428 9 3 0 1 0 0 0;#P user hint 105 24 124 40 "number of microphones" 4000 1000 0 65535 65535 52428 9 3 0 1 0 0 0;#P hidden user hint 500 257 544 275 "ViMiC render type" 4000 1000 0 65535 65535 52428 9 3 0 1 0 0 0;#P bpatcher -1 -1 256 60 0 0 jcom.gui.mxt 0 $0_;#P objectname jmod.gui.1Uh.a.stereo.mxt;#P hidden fasten 47 0 12 0 161 353 5 353 5 123 19 123;#P fasten 9 0 12 0 248 124 19 124;#P fasten 13 0 12 0 117 123 19 123;#P connect 10 0 12 0;#P fasten 16 0 12 0 109 123 19 123;#P connect 12 0 5 0;#P hidden connect 8 0 14 0;#P hidden connect 14 0 6 0;#P hidden connect 15 1 27 0;#P hidden connect 27 0 28 0;#P lcolor 6;#P hidden connect 15 2 27 1;#P hidden connect 6 0 15 1;#P hidden connect 39 0 35 0;#P hidden connect 57 0 35 0;#P hidden connect 39 0 36 0;#P hidden connect 55 0 36 0;#P hidden connect 39 0 67 0;#P hidden connect 70 0 67 0;#P hidden connect 14 1 30 0;#P hidden connect 30 0 53 0;#P hidden connect 53 0 29 0;#P hidden connect 29 0 47 0;#P hidden connect 15 3 27 2;#P hidden connect 6 1 15 2;#P hidden connect 15 4 27 3;#P hidden connect 6 2 15 3;#P hidden fasten 27 0 47 1 137 576 21 576 21 327 189 327;#P lcolor 6;#P hidden connect 15 5 27 4;#P hidden connect 6 3 15 4;#P hidden connect 15 6 27 5;#P hidden connect 6 4 15 5;#P hidden connect 15 7 27 6;#P hidden connect 6 5 15 6;#P hidden fasten 30 1 47 2 266 301 217 301;#P hidden connect 15 8 27 7;#P hidden connect 6 6 15 7;#P hidden connect 15 9 27 8;#P hidden connect 6 7 15 8;#P hidden connect 15 10 27 9;#P hidden connect 6 8 15 9;#P hidden connect 15 11 27 10;#P hidden connect 6 9 15 10;#P hidden connect 15 12 27 11;#P hidden connect 6 10 15 11;#P hidden connect 15 13 27 12;#P hidden connect 6 11 15 12;#P hidden fasten 30 2 52 0 371 276 302 276;#P hidden connect 15 14 27 13;#P hidden connect 6 12 15 13;#P hidden connect 15 15 27 14;#P hidden connect 6 13 15 14;#P hidden connect 15 16 27 15;#P hidden connect 6 14 15 15;#P hidden connect 15 17 27 16;#P hidden connect 6 15 15 16;#P hidden connect 39 0 37 0;#P hidden connect 37 0 38 0;#P hidden connect 15 18 27 17;#P hidden connect 6 16 15 17;#P hidden connect 15 19 27 18;#P hidden connect 6 17 15 18;#P hidden connect 15 20 27 19;#P hidden connect 6 18 15 19;#P hidden connect 52 1 17 0;#P hidden connect 15 21 27 20;#P hidden connect 6 19 15 20;#P hidden connect 15 22 27 21;#P hidden connect 6 20 15 21;#P hidden connect 15 23 27 22;#P hidden connect 6 21 15 22;#P hidden connect 15 24 27 23;#P hidden connect 6 22 15 23;#P hidden fasten 17 0 6 1 397 337 440 337;#P hidden fasten 52 0 6 1 302 337 440 337;#P hidden fasten 47 1 6 1 218 353 440 353;#P hidden connect 6 23 15 24;#P hidden connect 35 0 56 0;#P hidden connect 36 0 54 0;#P hidden connect 67 0 69 0;#P hidden connect 68 0 70 0;#P hidden connect 22 0 57 0;#P hidden connect 23 0 55 0;#P hidden connect 56 0 22 0;#P hidden connect 54 0 23 0;#P hidden connect 69 0 68 0;#P hidden connect 45 0 46 0;#P hidden connect 65 0 66 0;#P hidden fasten 24 0 26 0 610 440 600 440 600 382 610 382;#P hidden connect 26 0 24 0;#P hidden fasten 49 0 50 0 689 526 605 526 605 494 614 494;#P hidden connect 46 0 32 0;#P hidden connect 32 0 44 0;#P hidden connect 44 0 33 0;#P hidden connect 33 0 43 0;#P hidden fasten 41 0 42 0 726 479 607 479 607 444 618 444;#P hidden connect 43 0 45 0;#P hidden fasten 59 0 21 0 658 237 651 237 651 170 658 170;#P hidden connect 21 0 59 0;#P hidden connect 66 0 65 0;#P hidden connect 50 1 49 0;#P hidden connect 42 1 41 0;#P hidden connect 21 1 60 0;#P hidden fasten 60 0 21 1 770 247 647 247 647 166 828 166;#P hidden connect 21 2 61 0;#P hidden fasten 61 0 21 2 885 255 641 255 641 159 998 159;#P pop;