max v2;#N vpatcher 43 44 1130 796;#P origin 0 -431;#P window setfont "Sans Serif" 9.;#N vpatcher 10 59 610 459;#P window setfont "Sans Serif" 9.;#P newex 50 50 51 196617 route set;#P newex 51 71 68 196617 jcom.miditoa;#P inlet 50 30 15 0;#P outlet 51 93 15 0;#P connect 1 0 3 0;#P connect 3 0 2 0;#P connect 2 0 0 0;#P pop;#P newobj 456 104 48 196617 p midi2a;#P newex 456 84 68 196617 jcom.atomidi;#P window linecount 2;#P newex 526 83 263 196617 jcom.parameter.gain reflections/2nd/gain @repetitions 0 @description "gain of the early reflections 2nd order";#P objectname reflections/gain[1];#P bpatcher 153 46 100 12 0 0 jcom.textslider.mxt 1 0. 0. 1. @size 100 12 @text 2nd order refl.;#P newex 671 676 332 196617 jcom.parameter source/orientation/elevation @type msg_float @range 0. 90. @description "orientation of the sound source (elevation)";#P objectname source/orientation/elevation;#P newex 670 640 326 196617 jcom.parameter source/orientation/azimuth @type msg_float @range -180. 180. @description "orientation of the sound source (azimuth)";#P objectname source/orientation/azimuth;#P window linecount 1;#P hidden newex 590 682 75 196617 pvar source_E;#P objectname pvar_E;#P hidden newex 588 645 77 196617 pvar source_A;#P objectname pvar_A;#P newex 596 611 70 196617 pvar warning;#P window linecount 2;#P newex 669 605 306 196617 jcom.parameter warning @type msg_int @range 0 1 @clipmode both @description "turn on/off warnings inside the vimic module";#P objectname warning[1];#P user hint 107 3 120 15 "warnings on/off" 2500 1000 0 65535 65535 52428 9 3 0 1 0 0 0;#P user hint 122 3 135 15 "report on/off" 2500 1000 0 65535 65535 52428 9 3 0 1 0 0 0;#P toggle 109 3 13 0;#P objectname warning;#P newex 582 567 229 196617 jcom.message audio/meters/clear @type msg_none @description "clear the audio meters";#P objectname jcom.parameter[2];#P window linecount 1;#P newex 842 216 55 196617 pvar posD;#P newex 748 216 54 196617 pvar posE;#P newex 654 216 56 196617 pvar posA;#P newex 584 537 378 196617 jcom.message update @type msg_none @description "update from external clock";#P objectname jcom.parameter[1];#N vpatcher 10 59 610 459;#P window setfont "Sans Serif" 9.;#P newex 50 50 51 196617 route set;#P newex 51 71 68 196617 jcom.miditoa;#P inlet 50 30 15 0;#P outlet 51 93 15 0;#P connect 1 0 3 0;#P connect 3 0 2 0;#P connect 2 0 0 0;#P pop;#P newobj 470 25 48 196617 p midi2a;#P newex 449 6 68 196617 jcom.atomidi;#N vpatcher 10 59 610 459;#P window setfont "Sans Serif" 9.;#P newex 50 50 51 196617 route set;#P newex 51 71 68 196617 jcom.miditoa;#P inlet 50 30 15 0;#P outlet 51 93 15 0;#P connect 1 0 3 0;#P connect 3 0 2 0;#P connect 2 0 0 0;#P pop;#P newobj 470 63 48 196617 p midi2a;#P newex 453 45 68 196617 jcom.atomidi;#P message 157 284 30 196617 open;#N vpatcher 605 157 1205 557;#P origin -71 0;#P window setfont "Sans Serif" 9.;#P window linecount 0;#P message -8 168 90 196617 /rendermode mute;#P newex 79 129 41 196617 sel 1 0;#P message 84 168 104 196617 /rendermode unmute;#P window linecount 1;#P newex 198 54 134 196617 jcom.oscroute /audio/mute;#P newex 198 81 31 196617 == 0;#P message 198 127 62 196617 enable \$1 1;#P newex 116 54 78 196617 jcom.pass open;#P outlet 84 226 15 0;#P outlet 198 161 15 0;#N comlet Connect to 2nd last outlet of jcom.in~;#P inlet 116 33 15 0;#P connect 8 0 9 0;#P connect 6 0 8 0;#P connect 8 1 7 0;#P fasten 9 0 2 0 -3 190 89 190;#P fasten 6 1 2 0 327 190 89 190;#P connect 7 0 2 0;#P connect 0 0 3 0;#P connect 3 1 6 0;#P connect 6 0 5 0;#P connect 5 0 4 0;#P connect 3 0 1 0;#P connect 4 0 1 0;#P pop;#P newobj 298 283 105 196617 p algorithm_control~;#P user hint 42 26 102 40 "ViMiC render method" 2500 1000 0 65535 65535 52428 9 3 0 1 0 0 0;#P newex 610 501 68 196617 pvar order 2;#P window linecount 2;#P newex 685 494 349 196617 jcom.parameter reflections/order @type msg_int @range 0 2 @repetitions 0 @priority 1 @clipmode both @description "order of early reflections";#P objectname reflections/order;#P user ubumenu 128 24 22 196617 0 0 1 0;#X setrgb 181 181 181 25 25 25 50 50 50 4 4 4 141 141 141 112 112 112;#X add 0;#X add 1;#X add 2;#X prefix_set 0 0 <none> 0;#P objectname order;#P window linecount 1;#N vpatcher 708 67 1248 672;#P origin 20 6;#P window setfont "Sans Serif" 9.;#P flonum 402 399 27 9 0. 40. 8227 3 181 181 181 221 221 221 255 255 255 0 0 0;#P objectname dirPow[2];#P flonum 402 385 27 9 0. 40. 8227 3 181 181 181 221 221 221 255 255 255 0 0 0;#P objectname dirPow[1];#P comment 298 402 100 196617 2nd order reflection:;#B frgb 149 149 149;#P comment 299 387 99 196617 1st order reflection:;#B frgb 149 149 149;#P comment 334 372 64 196617 direct sound:;#B frgb 149 149 149;#P flonum 187 399 27 9 0. 40. 8227 3 181 181 181 221 221 221 255 255 255 0 0 0;#P objectname disPow2;#P flonum 187 385 27 9 0. 40. 8227 3 181 181 181 221 221 221 255 255 255 0 0 0;#P objectname disPow1;#P comment 82 401 100 196617 2nd order reflection:;#B frgb 149 149 149;#P comment 83 386 99 196617 1st order reflection:;#B frgb 149 149 149;#P comment 118 372 64 196617 direct sound:;#B frgb 149 149 149;#P window linecount 0;#P comment 307 514 89 196617 temperature [¼C]:;#B frgb 149 149 149;#P flonum 395 513 28 9 -20. 40. 8227 3 181 181 181 221 221 221 255 255 255 0 0 0;#P objectname temp;#P window linecount 3;#P newex 650 710 292 196617 jcom.parameter temperature @type msg_float @repetitions 1 @range -20. 30. @clipmode low @description "Temperature in Celsius to calculate the speed of sound";#P objectname temperature;#P window linecount 1;#P newex 592 721 56 196617 pvar temp;#P window linecount 0;#P comment 434 391 82 196617 Renderintervall:;#B frgb 149 149 149;#P number 517 389 28 9 1 0 8225 3 181 181 181 221 221 221 255 255 255 0 0 0;#P objectname Renderintervall;#P hidden newex 440 1009 104 196617 pvar Renderintervall;#P window linecount 3;#P newex 550 994 379 196617 jcom.parameter renderintervall @type msg_int @range 1 100 @clipmode low @description "tells ViMiC over how many signalblocks a change in position is interpolated - shorter time leads to faster transition and stronger doppler effect";#P objectname renderintervall;#P window linecount 0;#P comment 299 62 37 196617 ratio;#B frgb 181 181 181;#P comment 438 49 56 196617 Gain;#B frgb 181 181 181;#P user ubumenu 242 541 53 196617 0 0 1 0;#X setrgb 181 181 181 25 25 25 50 50 50 4 4 4 141 141 141 112 112 112;#X add ---;#X add zero;#X add full;#X add audience;#X add carpet;#X add brick;#X add sand;#X add metal;#X add trees;#X add grass;#X prefix_set 0 0 <none> 0;#P objectname ceiling_menu;#P user ubumenu 242 524 53 196617 0 0 1 0;#X setrgb 181 181 181 25 25 25 50 50 50 4 4 4 141 141 141 112 112 112;#X add ---;#X add zero;#X add full;#X add audience;#X add carpet;#X add brick;#X add sand;#X add metal;#X add trees;#X add grass;#X prefix_set 0 0 <none> 0;#P objectname floor_menu;#P user ubumenu 242 473 53 196617 0 0 1 0;#X setrgb 181 181 181 25 25 25 50 50 50 4 4 4 141 141 141 112 112 112;#X add ---;#X add zero;#X add full;#X add audience;#X add carpet;#X add brick;#X add sand;#X add metal;#X add trees;#X add grass;#X prefix_set 0 0 <none> 0;#P objectname right_menu;#P user ubumenu 242 456 53 196617 0 0 1 0;#X setrgb 181 181 181 25 25 25 50 50 50 4 4 4 141 141 141 112 112 112;#X add ---;#X add zero;#X add full;#X add audience;#X add carpet;#X add brick;#X add sand;#X add metal;#X add trees;#X add grass;#X prefix_set 0 0 <none> 0;#P objectname left_menu;#P user ubumenu 242 507 53 196617 0 0 1 0;#X setrgb 181 181 181 25 25 25 50 50 50 4 4 4 141 141 141 112 112 112;#X add ---;#X add zero;#X add full;#X add audience;#X add carpet;#X add brick;#X add sand;#X add metal;#X add trees;#X add grass;#X prefix_set 0 0 <none> 0;#P objectname rear_menu;#P newex 1390 641 101 196617 pvar ceiling_menu 2;#P newex 1541 694 82 196617 wall_properties;#P window linecount 2;#P newex 1390 663 312 196617 jcom.message room/absorption/ceiling/preset @type msg_symbol @repetitions 1 @description "absorption presets for the floor";#P objectname room/absorption[5];#P window linecount 1;#P newex 1381 532 94 196617 pvar floor_menu 2;#P newex 1532 585 82 196617 wall_properties;#P window linecount 2;#P newex 1381 554 305 196617 jcom.message room/absorption/floor/preset @type msg_symbol @repetitions 1 @description "absorption presets for the floor";#P objectname room/absorption[4];#P window linecount 1;#P newex 1361 367 94 196617 pvar right_menu 2;#P newex 1512 420 82 196617 wall_properties;#P window linecount 2;#P newex 1361 389 315 196617 jcom.message room/absorption/right/preset @type msg_symbol @repetitions 1 @description "absorption presets for the right wall";#P objectname room/absorption[3];#P window linecount 1;#P newex 1368 223 88 196617 pvar left_menu 2;#P newex 1519 276 82 196617 wall_properties;#P window linecount 2;#P newex 1368 245 309 196617 jcom.message room/absorption/left/preset @type msg_symbol @repetitions 1 @description "absorption presets for the left wall";#P objectname room/absorption[2];#P window linecount 1;#P newex 1359 109 92 196617 pvar rear_menu 2;#P newex 1540 163 82 196617 wall_properties;#P window linecount 2;#P newex 1359 131 313 196617 jcom.message room/absorption/rear/preset @type msg_symbol @repetitions 1 @description "absorption presets for the rear wall";#P objectname room/absorption[1];#P window linecount 1;#P newex 1360 1 95 196617 pvar front_menu 2;#P window linecount 0;#P newex 1541 55 82 196617 wall_properties;#P window linecount 2;#P newex 1360 23 316 196617 jcom.message room/absorption/front/preset @type msg_symbol @repetitions 1 @description "absorption presets for the front wall";#P objectname room/absorption;#P user ubumenu 242 490 53 196617 0 0 1 0;#X setrgb 181 181 181 25 25 25 50 50 50 4 4 4 141 141 141 112 112 112;#X add ---;#X add zero;#X add full;#X add audience;#X add carpet;#X add brick;#X add sand;#X add metal;#X add trees;#X add grass;#X prefix_set 0 0 <none> 0;#P objectname front_menu;#P window setfont "Sans Serif" 10.;#P window linecount 1;#P comment 149 427 88 196618 cross-frequency;#B frgb 149 149 149;#P window setfont "Sans Serif" 9.;#P number 77 561 47 9 500 19000 8227 3 181 181 181 221 221 221 222 222 222 0 0 0;#P objectname early_lowcut;#P window linecount 0;#P comment 7 563 69 196617 airfilter [Hz]:;#B frgb 149 149 149;#P flonum 263 561 28 9 0. 40. 8227 3 181 181 181 221 221 221 255 255 255 0 0 0;#P objectname roomsizeZ;#P flonum 235 561 28 9 0. 40. 8227 3 181 181 181 221 221 221 255 255 255 0 0 0;#P objectname roomsizeY;#P flonum 207 561 28 9 0. 40. 8227 3 181 181 181 221 221 221 255 255 255 0 0 0;#P objectname roomsizeX;#P comment 129 563 77 196617 roomize x/y/z:;#B frgb 149 149 149;#P window linecount 2;#P newex 1055 795 404 196617 jcom.parameter room/absorption/ceiling/high @type msg_float @repetitions 1 @range 0. 100. @clipmode low @description "absorption for the high frequencies of the ceiling";#P objectname room/absorption/ceiling/high;#P newex 1055 750 402 196617 jcom.parameter room/absorption/ceiling/mid @type msg_float @repetitions 1 @range 0. 100. @clipmode low @description "absorption for the mid frequencies of the ceiling";#P objectname room/absorption/ceiling/mid;#P newex 1055 704 402 196617 jcom.parameter room/absorption/ceiling/low @type msg_float @repetitions 1 @range 0. 100. @clipmode low @description "absorption for the low frequencies of the ceiling";#P objectname room/absorption/ceiling/low;#P window linecount 1;#P newex 976 809 66 196617 pvar ceil_hg;#P newex 976 770 69 196617 pvar ceil_mg;#P newex 976 718 64 196617 pvar ceil_lg;#P window linecount 3;#P newex 1053 661 292 196617 jcom.parameter room/absorption/floor/high @type msg_float @repetitions 1 @range 0. 100. @clipmode low @description "absorption for the high frequencies of the floor wall";#P objectname room/absorption/floor/high;#P newex 1053 616 290 196617 jcom.parameter room/absorption/floor/mid @type msg_float @repetitions 1 @range 0. 100. @clipmode low @description "absorption for the mid frequencies of the floor wall";#P objectname room/absorption/floor/mid;#P newex 1053 570 290 196617 jcom.parameter room/absorption/floor/low @type msg_float @repetitions 1 @range 0. 100. @clipmode low @description "absorption for the low frequencies of the floor wall";#P objectname room/absorption/floor/low;#P window linecount 1;#P newex 978 672 72 196617 pvar floor_hg;#P newex 974 636 75 196617 pvar floor_mg;#P newex 974 584 70 196617 pvar floor_lg;#P window linecount 3;#P newex 1052 527 292 196617 jcom.parameter room/absorption/right/high @type msg_float @repetitions 1 @range 0. 100. @clipmode low @description "absorption for the high frequencies of the right wall";#P objectname room/absorption/right/high;#P newex 1052 482 290 196617 jcom.parameter room/absorption/right/mid @type msg_float @repetitions 1 @range 0. 100. @clipmode low @description "absorption for the mid frequencies of the right wall";#P objectname room/absorption/right/mid;#P newex 1052 436 290 196617 jcom.parameter room/absorption/right/low @type msg_float @repetitions 1 @range 0. 100. @clipmode low @description "absorption for the low frequencies of the right wall";#P objectname room/absorption/right/low;#P window linecount 1;#P newex 973 541 72 196617 pvar right_hg;#P newex 973 502 75 196617 pvar right_mg;#P newex 973 450 70 196617 pvar right_lg;#P window linecount 3;#P newex 1050 390 286 196617 jcom.parameter room/absorption/left/high @type msg_float @repetitions 1 @range 0. 100. @clipmode low @description "absorption for the high frequencies of the left wall";#P objectname room/absorption/left/high;#P newex 1050 345 284 196617 jcom.parameter room/absorption/left/mid @type msg_float @repetitions 1 @range 0. 100. @clipmode low @description "absorption for the mid frequencies of the left wall";#P objectname room/absorption/left/mid;#P newex 1050 299 284 196617 jcom.parameter room/absorption/left/low @type msg_float @repetitions 1 @range 0. 100. @clipmode low @description "absorption for the low frequencies of the left wall";#P objectname room/absorption/left/low;#P window linecount 1;#P newex 971 404 66 196617 pvar left_hg;#P newex 971 365 69 196617 pvar left_mg;#P newex 971 313 64 196617 pvar left_lg;#P comment 194 443 45 196617 mid/high;#B frgb 149 149 149;#P comment 143 443 45 196617 low/mid;#B frgb 149 149 149;#P comment 105 443 26 196617 high;#B frgb 149 149 149;#P comment 74 443 26 196617 mids;#B frgb 149 149 149;#P comment 44 443 24 196617 low;#B frgb 149 149 149;#P window linecount 3;#P newex 1050 254 290 196617 jcom.parameter room/absorption/rear/high @type msg_float @repetitions 1 @range 0. 100. @clipmode low @description "absorption for the high frequencies of the rear wall";#P objectname room/absorption/rear/high;#P newex 1050 208 288 196617 jcom.parameter room/absorption/rear/mid @type msg_float @repetitions 1 @range 0. 100. @clipmode low @description "absorption for the mid frequencies of the rear wall";#P objectname room/absorption/rear/mid;#P newex 1050 162 288 196617 jcom.parameter room/absorption/rear/low @type msg_float @repetitions 1 @range 0. 100. @clipmode low @description "absorption for the low frequencies of the rear wall";#P objectname room/absorption/rear/low;#P window linecount 1;#P newex 971 268 70 196617 pvar back_hg;#P newex 971 228 73 196617 pvar back_mg;#P newex 971 176 68 196617 pvar back_lg;#P window linecount 3;#P newex 1050 116 293 196617 jcom.parameter room/absorption/front/high @type msg_float @repetitions 1 @range 0. 100. @clipmode low @description "absorption for the high frequencies of the front wall";#P objectname room/absorption/front/high;#P newex 1050 69 291 196617 jcom.parameter room/absorption/front/mid @type msg_float @repetitions 1 @range 0. 100. @clipmode low @description "absorption for the mid frequencies of the front wall";#P objectname room/absorption/front/mid;#P newex 1050 23 294 196617 jcom.parameter room/absorption/front/low @type msg_float @repetitions 1 @range 0. 100. @clipmode low @description "absorption for the low frequencies of the front wall";#P objectname room/absorption/front/low;#P window linecount 1;#P newex 971 130 73 196617 pvar front_hg;#P newex 971 84 76 196617 pvar front_mg;#P window linecount 0;#P newex 971 37 71 196617 pvar front_lg;#P flonum 107 542 28 9 0. 100. 8227 3 181 181 181 221 221 221 255 255 255 0 0 0;#P objectname ceil_hg;#P flonum 107 525 28 9 0. 100. 8227 3 181 181 181 221 221 221 255 255 255 0 0 0;#P objectname floor_hg;#P flonum 107 474 28 9 0. 100. 8227 3 181 181 181 221 221 221 255 255 255 0 0 0;#P objectname right_hg;#P flonum 107 457 28 9 0. 100. 8227 3 181 181 181 221 221 221 255 255 255 0 0 0;#P objectname left_hg;#P flonum 107 508 28 9 0. 100. 8227 3 181 181 181 221 221 221 255 255 255 0 0 0;#P objectname back_hg;#P flonum 107 490 28 9 0. 100. 8227 3 181 181 181 221 221 221 255 255 255 0 0 0;#P objectname front_hg;#P flonum 77 542 28 9 0. 100. 8227 3 181 181 181 221 221 221 255 255 255 0 0 0;#P objectname ceil_mg;#P flonum 77 525 28 9 0. 100. 8227 3 181 181 181 221 221 221 255 255 255 0 0 0;#P objectname floor_mg;#P flonum 77 474 28 9 0. 100. 8227 3 181 181 181 221 221 221 255 255 255 0 0 0;#P objectname right_mg;#P flonum 77 457 28 9 0. 100. 8227 3 181 181 181 221 221 221 255 255 255 0 0 0;#P objectname left_mg;#P flonum 77 508 28 9 0. 100. 8227 3 181 181 181 221 221 221 255 255 255 0 0 0;#P objectname back_mg;#P flonum 77 490 28 9 0. 100. 8227 3 181 181 181 221 221 221 255 255 255 0 0 0;#P objectname front_mg;#P flonum 46 542 28 9 0. 100. 8227 3 181 181 181 221 221 221 255 255 255 0 0 0;#P objectname ceil_lg;#P flonum 46 525 28 9 0. 100. 8227 3 181 181 181 221 221 221 255 255 255 0 0 0;#P objectname floor_lg;#P flonum 46 474 28 9 0. 100. 8227 3 181 181 181 221 221 221 255 255 255 0 0 0;#P objectname right_lg;#P flonum 46 457 28 9 0. 100. 8227 3 181 181 181 221 221 221 255 255 255 0 0 0;#P objectname left_lg;#P flonum 46 508 28 9 0. 100. 8227 3 181 181 181 221 221 221 255 255 255 0 0 0;#P objectname back_lg;#P window linecount 1;#P comment 6 543 40 196617 Ceiling:;#B frgb 149 149 149;#P comment 12 526 34 196617 Floor:;#B frgb 149 149 149;#P comment 12 476 34 196617 Right:;#B frgb 149 149 149;#P comment 16 459 29 196617 Left:;#B frgb 149 149 149;#P comment 14 509 31 196617 Back:;#B frgb 149 149 149;#P comment 11 491 34 196617 front:;#B frgb 149 149 149;#P window setfont "Sans Serif" 12.;#P comment 5 47 86 196620 Microphones:;#B frgb 149 149 149;#P window setfont "Sans Serif" 10.;#P comment 38 427 104 196618 wall absorption [%];#B frgb 149 149 149;#P window setfont "Sans Serif" 9.;#P flonum 46 490 28 9 0. 100. 8227 3 181 181 181 221 221 221 255 255 255 0 0 0;#P objectname front_lg;#P user panel 5 424 295 160;#X brgb 80 80 80;#X frgb 255 255 255;#X border 1;#X rounded 0;#X shadow 0;#X done;#P window linecount 0;#P newex 431 789 107 196617 pvar xfade_threshold;#P number 419 464 32 9 0 0 8225 3 181 181 181 221 221 221 222 222 222 0 0 0;#P objectname xfade_threshold;#P comment 304 466 83 196617 fading threshold:;#B frgb 149 149 149;#P newex 449 765 92 196617 pvar xfade_length;#P number 419 448 32 9 0 0 8225 3 181 181 181 221 221 221 222 222 222 0 0 0;#P objectname xfade_length;#P window linecount 1;#P comment 327 450 61 196617 fading time:;#B frgb 149 149 149;#P window setfont "Sans Serif" 12.;#P comment 305 428 111 196620 X-FADE settings:;#B frgb 149 149 149;#P window setfont "Sans Serif" 9.;#P comment 311 482 77 196617 fading function:;#B frgb 149 149 149;#P user ubumenu 391 481 63 196617 0 0 1 0;#X setrgb 181 181 181 25 25 25 50 50 50 4 4 4 141 141 141 112 112 112;#X add cosine;#X add cosine_squared;#X add linear;#X add equal_power;#X prefix_set 0 0 <none> 0;#P objectname fadefunction;#P user panel 302 424 157 81;#X brgb 80 80 80;#X frgb 255 255 255;#X border 1;#X rounded 0;#X shadow 0;#X done;#P newex 436 850 98 196617 pvar fadefunction 2;#P window linecount 2;#P newex 545 844 403 196617 jcom.parameter rendermode/xfade/fadefunction @type msg_symbol @description "fading function of the crossfade for the x-fade mode";#P objectname rendermode/xfade/fadefunction;#P window linecount 3;#P newex 546 794 329 196617 jcom.parameter rendermode/xfade/threshold @type msg_int @range 0 4096 @repetitions 0 @clipmode low @description "distance in samples before a crossfade in the x-fade mode is activated";#P objectname rendermode/xfade/threshold;#P window linecount 2;#P newex 545 757 408 196617 jcom.parameter rendermode/xfade/fadelength @type msg_int @repetitions 0 @range 0 512 @clipmode low @description "length of the crossfade for the x-fade mode in ms";#P objectname rendermode/xfade/fadelength;#P window linecount 0;#P hidden newex 442 23 417 196617 jcom.multi.out~;#P bpatcher 6 331 523 17 0 0 jcom.sur.vimic_mic.mxt 0 16;#P objectname jcom.sur.vimic_mic.mxt[8];#P bpatcher 6 314 523 17 0 0 jcom.sur.vimic_mic.mxt 0 15;#P objectname jcom.sur.vimic_mic.mxt[9];#P bpatcher 6 297 523 17 0 0 jcom.sur.vimic_mic.mxt 0 14;#P objectname jcom.sur.vimic_mic.mxt[10];#P bpatcher 6 280 523 17 0 0 jcom.sur.vimic_mic.mxt 0 13;#P objectname jcom.sur.vimic_mic.mxt[11];#P bpatcher 6 263 523 17 0 0 jcom.sur.vimic_mic.mxt 0 12;#P objectname jcom.sur.vimic_mic.mxt[12];#P bpatcher 6 246 523 17 0 0 jcom.sur.vimic_mic.mxt 0 11;#P objectname jcom.sur.vimic_mic.mxt[13];#P bpatcher 6 229 523 17 0 0 jcom.sur.vimic_mic.mxt 0 10;#P objectname jcom.sur.vimic_mic.mxt[14];#P bpatcher 6 212 523 17 0 0 jcom.sur.vimic_mic.mxt 0 9;#P objectname jcom.sur.vimic_mic.mxt[15];#P window linecount 2;#P message 57 750 64 196617 \; max refresh;#P window linecount 1;#P newex 58 729 45 196617 onebang;#P inlet 834 16 15 0;#P hidden inlet 405 2 15 0;#P bpatcher 6 195 523 17 0 0 jcom.sur.vimic_mic.mxt 0 8;#P objectname jcom.sur.vimic_mic.mxt[7];#P bpatcher 6 178 523 17 0 0 jcom.sur.vimic_mic.mxt 0 7;#P objectname jcom.sur.vimic_mic.mxt[6];#P bpatcher 6 161 523 17 0 0 jcom.sur.vimic_mic.mxt 0 6;#P objectname jcom.sur.vimic_mic.mxt[5];#P bpatcher 6 144 523 17 0 0 jcom.sur.vimic_mic.mxt 0 5;#P objectname jcom.sur.vimic_mic.mxt[4];#P bpatcher 6 127 523 17 0 0 jcom.sur.vimic_mic.mxt 0 4;#P objectname jcom.sur.vimic_mic.mxt[3];#P bpatcher 6 110 523 17 0 0 jcom.sur.vimic_mic.mxt 0 3;#P objectname jcom.sur.vimic_mic.mxt[2];#P bpatcher 6 93 523 17 0 0 jcom.sur.vimic_mic.mxt 0 2;#P objectname jcom.sur.vimic_mic.mxt[1];#P flonum 402 371 27 9 0. 40. 8227 3 181 181 181 221 221 221 255 255 255 0 0 0;#P objectname dirPow;#P flonum 187 371 27 9 0. 40. 8227 3 181 181 181 221 221 221 255 255 255 0 0 0;#P objectname disPow;#P window linecount 0;#P comment 307 532 108 196617 Report state of ViMiC:;#B frgb 149 149 149;#P comment 434 372 84 196617 update rate [Hz]:;#B frgb 149 149 149;#P number 517 371 28 9 1 50 8227 3 181 181 181 221 221 221 255 255 255 0 0 0;#P objectname Updaterate;#P hidden newex 461 969 83 196617 pvar Updaterate;#P window linecount 2;#P newex 550 962 393 196617 jcom.parameter updaterate @type msg_int @range 1 50 @clipmode low @description "vimic updaterate - tells how often the parameter settings are getting updated";#P objectname updaterate;#P window linecount 1;#P newex 251 716 50 196617 deferlow;#P window linecount 3;#P newex 673 362 337 196617 jcom.parameter reflections/airfilter @type msg_int @range 500 19000 @clipmode both @repetitions 0 @description "damping frequency of the early reflections due to air absorption";#P objectname reflections/airfilter;#P window linecount 1;#P newex 673 340 94 196617 pvar early_lowcut;#P comment 358 63 37 196617 preset;#B frgb 181 181 181;#P newex 437 895 144 196617 jcom.list2parameter 3;#P newex 603 920 80 196617 pvar roomsizeZ;#P newex 520 920 81 196617 pvar roomsizeY;#P newex 437 920 81 196617 pvar roomsizeX;#P window linecount 2;#P newex 586 885 362 196617 jcom.parameter room/size @type msg_list @ramp linear.sched @range 0. 40. @repetitions 0 @clipmode both @description "Size of the virtual room in XYZ";#P objectname room/size;#P window linecount 1;#P comment 9 357 201 196617 power law for attenuation due to distance:;#B frgb 149 149 149;#P comment 222 358 211 196617 power law for attenuation due to directivity:;#B frgb 149 149 149;#P newex 672 268 66 196617 pvar dirPow;#P newex 691 203 66 196617 pvar disPow;#P window linecount 3;#P newex 672 288 285 196617 jcom.parameter microphones/direct/power @type msg_float @repetitions 0 @range 0. 8. @clipmode both @description "power law for attenuation due to microphone directivity";#P objectname microphones/direct/power;#P newex 691 222 267 196617 jcom.parameter room/distance/power @type msg_float @range 0. 8. @clipmode both @repetitions 0 @description "power law for attenuation due to distance";#P objectname room/distance/power;#P window linecount 1;#P comment 207 62 87 196617 Azimut/Elevation;#B frgb 181 181 181;#P comment 174 62 14 196617 Z;#B frgb 181 181 181;#P comment 140 62 14 196617 Y;#B frgb 181 181 181;#P comment 102 61 14 196617 X;#B frgb 181 181 181;#P comment 319 49 56 196617 Directivity;#B frgb 181 181 181;#P comment 218 49 87 196617 Orientation;#B frgb 181 181 181;#P comment 99 49 99 196617 Microphone position;#B frgb 181 181 181;#P bpatcher 6 76 523 17 0 0 jcom.sur.vimic_mic.mxt 0 1;#P objectname jcom.sur.vimic_mic.mxt;#P hidden newex 762 152 74 196617 pvar allreport;#P window linecount 3;#P hidden newex 763 172 203 196617 jcom.message report_all @type msg_int @range 0 1 @clipmode both @description "report inner state of the vimic module";#P objectname direct/gain[2];#P button 413 531 15 0;#P objectname allreport;#P flonum 320 755 29 9 0 0 8224 3 181 181 181 221 221 221 222 222 222 0 0 0;#P objectname bb6;#P flonum 320 737 29 9 0 0 8224 3 181 181 181 221 221 221 222 222 222 0 0 0;#P objectname bb5;#P window linecount 1;#P hidden newex 251 692 117 196617 loadmess patcher ViMiC;#P hidden newex 9 728 40 196617 t front;#P hidden newex 9 702 151 196617 jcom.oscroute /open_inspector;#P hidden inlet 9 675 15 0;#N thispatcher;#Q window flags nogrow close zoom nofloat;#Q window size 708 67 1248 672;#Q window title;#Q window exec;#Q savewindow 1;#Q end;#P hidden newobj 181 739 59 196617 thispatcher;#P hidden newex 155 765 88 196617 bgcolor 80 80 80;#P hidden message 416 512 273 196617 window flags nogrow \, savewindow 1 \, window exec;#P hidden message 415 543 262 196617 window flags grow \, window exec;#P window setfont "Sans Serif" 18.;#P comment 178 13 211 196626 Extended settings;#B frgb 181 181 181;#P user panel 4 44 531 309;#X brgb 80 80 80;#X frgb 255 255 255;#X border 1;#X rounded 0;#X shadow 0;#X done;#P user panel 219 355 213 67;#X brgb 80 80 80;#X frgb 255 255 255;#X border 1;#X rounded 0;#X shadow 0;#X done;#P user panel 4 355 213 67;#X brgb 80 80 80;#X frgb 255 255 255;#X border 1;#X rounded 0;#X shadow 0;#X done;#P hidden connect 66 0 17 0;#P hidden connect 66 1 47 0;#P hidden connect 66 2 48 0;#P hidden connect 66 3 49 0;#P hidden connect 66 4 50 0;#P hidden connect 66 5 51 0;#P hidden connect 66 6 52 0;#P hidden connect 66 7 53 0;#P hidden connect 66 8 58 0;#P hidden connect 66 9 59 0;#P hidden connect 66 10 60 0;#P hidden connect 66 11 61 0;#P hidden connect 66 12 62 0;#P hidden connect 66 13 63 0;#P hidden connect 66 14 64 0;#P hidden connect 66 15 65 0;#P connect 8 0 9 0;#P connect 9 0 10 0;#P connect 56 0 57 0;#P connect 9 0 56 0;#P hidden connect 4 0 7 0;#P hidden connect 5 0 7 0;#P connect 39 0 7 0;#P connect 10 0 7 0;#P connect 11 0 39 0;#P connect 68 0 80 0;#P connect 69 0 70 0;#P fasten 32 0 35 0 442 942 434 942 434 888 442 888;#P connect 35 0 32 0;#P hidden connect 182 0 183 0;#P hidden connect 54 0 66 0;#P connect 67 0 77 0;#P fasten 33 0 35 1 525 946 428 946 428 883 455 883;#P connect 40 0 41 0;#P hidden fasten 34 0 35 2 608 945 423 945 423 878 468 878;#P hidden connect 55 0 17 1;#P hidden connect 55 0 47 1;#P hidden connect 55 0 48 1;#P hidden connect 55 0 49 1;#P hidden connect 55 0 50 1;#P hidden connect 55 0 51 1;#P hidden connect 55 0 52 1;#P hidden connect 55 0 53 1;#P hidden connect 55 0 58 1;#P hidden connect 55 0 59 1;#P hidden connect 55 0 60 1;#P hidden connect 55 0 61 1;#P hidden connect 55 0 62 1;#P hidden connect 55 0 63 1;#P hidden connect 55 0 64 1;#P hidden connect 55 0 65 1;#P connect 35 1 33 0;#P connect 77 0 67 0;#P connect 70 1 69 0;#P connect 80 0 68 0;#P connect 41 0 40 0;#P hidden connect 183 0 182 0;#P connect 31 0 35 10;#P lcolor 15;#P connect 35 10 31 0;#P lcolor 15;#P connect 187 0 186 0;#P connect 35 2 34 0;#P connect 186 0 187 0;#P fasten 26 0 28 0 677 331 669 331 669 265 677 265;#P connect 28 0 26 0;#P fasten 38 0 37 0 678 405 669 405 669 336 678 336;#P connect 37 0 38 0;#P fasten 25 0 27 0 696 265 688 265 688 200 696 200;#P connect 27 0 25 0;#P hidden connect 16 0 15 0;#P connect 111 0 108 0;#P connect 112 0 109 0;#P connect 113 0 110 0;#P connect 117 0 114 0;#P connect 118 0 115 0;#P connect 119 0 116 0;#P connect 128 0 125 0;#P connect 129 0 126 0;#P connect 130 0 127 0;#P connect 134 0 131 0;#P connect 135 0 132 0;#P connect 136 0 133 0;#P connect 140 0 137 0;#P connect 141 0 138 0;#P connect 146 0 143 0;#P connect 147 0 144 0;#P connect 148 0 145 0;#P connect 142 0 139 0;#P connect 108 0 111 0;#P connect 158 0 111 0;#P connect 109 0 112 0;#P connect 158 1 112 0;#P connect 110 0 113 0;#P connect 158 2 113 0;#P connect 114 0 117 0;#P connect 161 0 117 0;#P connect 115 0 118 0;#P connect 161 1 118 0;#P connect 116 0 119 0;#P connect 161 2 119 0;#P connect 125 0 128 0;#P connect 164 0 128 0;#P connect 126 0 129 0;#P connect 164 1 129 0;#P connect 127 0 130 0;#P connect 164 2 130 0;#P connect 131 0 134 0;#P connect 167 0 134 0;#P connect 132 0 135 0;#P connect 167 1 135 0;#P connect 133 0 136 0;#P connect 167 2 136 0;#P connect 137 0 140 0;#P connect 170 0 140 0;#P connect 138 0 141 0;#P connect 170 1 141 0;#P connect 139 0 142 0;#P connect 170 2 142 0;#P connect 143 0 146 0;#P connect 173 0 146 0;#P connect 144 0 147 0;#P connect 173 1 147 0;#P connect 145 0 148 0;#P connect 173 2 148 0;#P connect 160 0 162 0;#P connect 162 1 160 0;#P connect 157 0 159 0;#P connect 159 1 157 0;#P connect 166 0 168 0;#P connect 168 1 166 0;#P connect 163 0 165 0;#P connect 165 1 163 0;#P connect 169 0 171 0;#P connect 171 1 169 0;#P connect 172 0 174 0;#P connect 174 1 172 0;#P connect 166 1 167 0;#P connect 163 1 164 0;#P connect 169 1 170 0;#P connect 160 1 161 0;#P connect 157 1 158 0;#P connect 172 1 173 0;#P pop;#P newobj 157 333 67 196617 p inspector;#B color 4;#P objectname inspector;#P newex 544 314 62 196617 prepend set;#P newex 615 366 27 196617 - 1;#P newex 614 295 27 196617 + 1;#P newex 614 347 51 196617 route set;#P newex 614 454 102 196617 pvar render_mode 2;#P window linecount 2;#P newex 722 448 242 196617 jcom.parameter rendermode @type msg_symbol @repetitions 0 @description "Rendertype of ViMiC";#P objectname rendermode;#P user ubumenu 42 24 63 196617 0 0 1 0;#X setrgb 181 181 181 25 25 25 50 50 50 4 4 4 141 141 141 112 112 112;#X add ViMiC;#X add ViMiC_Filter;#X add Panning;#X add X-fade;#X add X-fade-prime;#X add Static;#X prefix_set 0 0 <none> 0;#P objectname render_mode;#P window linecount 1;#N vpatcher 497 319 1097 719;#P outlet 56 179 15 0;#P button 137 29 15 0;#P window setfont "Sans Serif" 9.;#P hidden message 60 91 64 196617 rgb2 66 0 2;#P hidden message 221 89 92 196617 frgb 181 181 181;#P hidden message 138 91 75 196617 brgb 47 46 36;#P newex 83 58 50 196617 deferlow;#P newex 83 24 48 196617 loadbang;#P connect 3 0 6 0;#P connect 2 0 6 0;#P connect 4 0 6 0;#P connect 1 0 4 0;#P connect 0 0 1 0;#P connect 5 0 1 0;#P connect 1 0 2 0;#P connect 1 0 3 0;#P pop;#P newobj 349 78 46 196617 p colors;#N thispatcher;#Q end;#P hidden newobj 351 122 61 196617 thispatcher;#N vpatcher 188 431 335 589;#P button 43 34 15 0;#P window setfont "Sans Serif" 9.;#P newex 41 54 50 196617 deferlow;#P newex 41 75 50 196617 t front;#P outlet 41 103 15 0;#P inlet 41 15 15 0;#P connect 4 0 3 0;#P connect 3 0 2 0;#P connect 2 0 1 0;#P connect 0 0 4 0;#P pop;#P hidden newobj 351 100 14 196617 p;#P bpatcher 153 33 100 12 0 0 jcom.textslider.mxt 1 0. 0. 1. @size 100 12 @text 1st order refl.;#P bpatcher 153 20 100 13 0 0 jcom.textslider.mxt 1 0. 0. 1. @size 100 12 @text direct sound @frgb;#P user ubumenu 106 24 22 196617 0 0 1 0;#X setrgb 181 181 181 25 25 25 50 50 50 4 4 4 141 141 141 112 112 112;#X add 1;#X add 2;#X add 3;#X add 4;#X add 5;#X add 6;#X add 7;#X add 8;#X add 9;#X add 10;#X add 11;#X add 12;#X add 13;#X add 14;#X add 15;#X add 16;#X add 17;#X add 18;#X add 19;#X add 20;#X add 21;#X add 22;#X add 23;#X add 24;#X prefix_set 0 0 <none> 0;#P objectname mics;#P window linecount 2;#P newex 614 315 377 196617 jcom.parameter microphones/amount @type msg_int @range 1 32 @repetitions 0 @clipmode low @priority 2 @description "Number of used virtual microphones";#P objectname microphones/amount;#P window linecount 1;#P newex 614 275 64 196617 pvar mics 2;#P comment 5 26 34 196617 setup:;#B frgb 149 149 149;#P hidden newex 157 254 221 196617 jcom.oscroute /open_inspector /audio/meters;#P newex 157 302 44 196617 pcontrol;#P outlet 133 626 15 0;#P newex 133 532 430 196617 jcom.multi.in~;#P newex 606 388 63 196617 pvar report;#P toggle 122 3 13 0;#P objectname report;#P window linecount 2;#P newex 606 408 288 196617 jcom.parameter report @type msg_int @range 0 1 @clipmode both @description "report changes inside the vimic module";#P objectname report[1];#P newex 524 47 262 196617 jcom.parameter.gain reflections/1st/gain @repetitions 0 @description "gain of the early reflections 1st order";#P objectname reflections/gain;#P newex 521 7 236 196617 jcom.parameter.gain direct/gain @repetitions 0 @description "gain of the direct sound component";#P objectname direct/gain;#P window linecount 1;#P newex 439 179 144 196617 jcom.list2parameter 3;#P newex 553 203 54 196617 pvar posZ;#P newex 496 203 55 196617 pvar posY;#P newex 439 204 55 196617 pvar posX;#P window linecount 2;#P newex 654 177 325 196617 jcom.parameter.spatdif source/position/absolute @ramp linear.sched @description "Sourceposition in the virtual room - spatDIF compliant";#P objectname source/position/absolute;#P flonum 127 42 26 9 0. 25. 8227 3 181 181 181 221 221 221 255 255 255 0 0 0;#P objectname posD;#P flonum 101 42 27 9 0 90. 8226 3 181 181 181 221 221 221 255 255 255 0 0 0;#P objectname posE;#P flonum 69 42 33 9 -180. 180. 8227 3 181 181 181 221 221 221 255 255 255 0 0 0;#P objectname posA;#P window linecount 1;#P newex 393 309 47 196617 pcontrol;#P message 105 81 191 196617 /preset/store 1 default \, /preset/write;#B color 3;#P newex 134 448 339 196617 jcom.out~ 25;#P newex 133 232 58 196617 jcom.in~ 1;#P message 113 103 125 196617 /documentation/generate;#B color 3;#P window linecount 2;#P message 113 176 65 196617 \; max refresh;#P newex 15 137 323 196617 jcom.hub jmod.sur.vimic~ @inspector 1 @size 1U-half @module_type audio.ambisonic @description "Virtual Microphone Control (ViMiC)";#P objectname jcom.hub;#P window linecount 1;#P comment 29 104 79 196617 command input;#P inlet 15 104 13 0;#P message 244 103 31 196617 /init;#P inlet 133 213 13 0;#P comment -1 44 75 196617 Position A/E/D;#B frgb 149 149 149;#P newex 133 359 313 196617 jalg.sur.vimic_8_1~.mxt;#P outlet 15 180 13 0;#P comment 92 655 101 196617 multicable output;#P user hint 130 24 149 40 "order of early reflections" 4000 1000 0 65535 65535 52428 9 3 0 1 0 0 0;#P user hint 106 25 125 41 "number of microphones" 4000 1000 0 65535 65535 52428 9 3 0 1 0 0 0;#P user hint 501 258 545 276 "ViMiC render type" 4000 1000 0 65535 65535 52428 9 3 0 1 0 0 0;#P bpatcher 0 0 256 60 0 0 jcom.gui.mxt 0 $0_;#P objectname jmod.gui.1Uh.a.stereo.mxt;#P fasten 9 0 12 0 249 125 20 125;#P fasten 14 0 12 0 118 124 20 124;#P connect 10 0 12 0;#P fasten 17 0 12 0 110 124 20 124;#P connect 12 0 5 0;#P connect 8 0 15 0;#P connect 15 0 6 0;#P connect 16 1 32 0;#P connect 32 0 33 0;#P lcolor 6;#P connect 16 2 32 1;#P connect 6 0 16 1;#P hidden connect 44 0 40 0;#P hidden connect 62 0 40 0;#P hidden connect 44 0 41 0;#P hidden connect 60 0 41 0;#P hidden connect 44 0 77 0;#P hidden connect 80 0 77 0;#P connect 15 1 35 0;#P connect 35 0 58 0;#P connect 58 0 34 0;#P connect 34 0 52 0;#P connect 16 3 32 2;#P connect 6 1 16 2;#P connect 16 4 32 3;#P connect 6 2 16 3;#P fasten 32 0 52 1 138 577 22 577 22 328 190 328;#P lcolor 6;#P connect 16 5 32 4;#P connect 6 3 16 4;#P connect 16 6 32 5;#P connect 6 4 16 5;#P connect 16 7 32 6;#P connect 6 5 16 6;#P fasten 35 1 52 2 267 302 218 302;#P connect 16 8 32 7;#P connect 6 6 16 7;#P connect 16 9 32 8;#P connect 6 7 16 8;#P connect 16 10 32 9;#P connect 6 8 16 9;#P connect 16 11 32 10;#P connect 6 9 16 10;#P connect 16 12 32 11;#P connect 6 10 16 11;#P connect 16 13 32 12;#P connect 6 11 16 12;#P fasten 35 2 57 0 372 277 303 277;#P connect 16 14 32 13;#P connect 6 12 16 13;#P connect 16 15 32 14;#P connect 6 13 16 14;#P connect 16 16 32 15;#P connect 6 14 16 15;#P connect 16 17 32 16;#P connect 6 15 16 16;#P connect 44 0 42 0;#P hidden connect 42 0 43 0;#P connect 16 18 32 17;#P connect 6 16 16 17;#P connect 16 19 32 18;#P connect 6 17 16 18;#P connect 16 20 32 19;#P connect 6 18 16 19;#P connect 57 1 18 0;#P connect 16 21 32 20;#P connect 6 19 16 20;#P connect 16 22 32 21;#P connect 6 20 16 21;#P connect 16 23 32 22;#P connect 6 21 16 22;#P connect 16 24 32 23;#P connect 6 22 16 23;#P fasten 57 0 6 1 303 338 441 338;#P fasten 18 0 6 1 398 338 441 338;#P fasten 23 0 26 0 444 226 436 226 436 172 444 172;#P connect 26 0 23 0;#P connect 6 23 16 24;#P hidden connect 40 0 61 0;#P fasten 24 0 26 1 501 230 430 230 430 167 457 167;#P hidden connect 41 0 59 0;#P hidden connect 77 0 79 0;#P connect 78 0 80 0;#P fasten 25 0 26 2 558 234 425 234 425 162 470 162;#P connect 27 0 62 0;#P connect 28 0 60 0;#P connect 26 1 24 0;#P connect 61 0 27 0;#P connect 59 0 28 0;#P connect 79 0 78 0;#P connect 50 0 51 0;#P connect 26 2 25 0;#P connect 75 0 73 0;#P connect 76 0 74 0;#P connect 71 0 72 0;#P fasten 29 0 31 0 611 441 601 441 601 383 611 383;#P connect 31 0 29 0;#P fasten 54 0 55 0 690 527 606 527 606 495 615 495;#P connect 51 0 37 0;#P connect 37 0 49 0;#P connect 49 0 38 0;#P connect 38 0 48 0;#P fasten 46 0 47 0 727 480 608 480 608 445 619 445;#P connect 48 0 50 0;#P fasten 64 0 22 0 659 238 652 238 652 171 659 171;#P connect 22 0 64 0;#P connect 72 0 71 0;#P connect 73 0 75 0;#P connect 74 0 76 0;#P connect 55 1 54 0;#P fasten 65 0 22 1 753 248 641 248 641 167 722 167;#P connect 47 1 46 0;#P connect 22 1 65 0;#P fasten 66 0 22 2 847 256 627 256 627 160 785 160;#P connect 22 2 66 0;#P pop;