max v2;#N vpatcher 163 44 1250 796;#P origin 0 -474;#P window setfont "Sans Serif" 9.;#N vpatcher 10 59 610 459;#P window setfont "Sans Serif" 9.;#P newex 50 50 51 196617 route set;#P newex 51 71 68 196617 jcom.miditoa;#P inlet 50 30 15 0;#P outlet 51 93 15 0;#P connect 1 0 3 0;#P connect 3 0 2 0;#P connect 2 0 0 0;#P pop;#P hidden newobj 456 104 48 196617 p midi2a;#P hidden newex 456 84 68 196617 jcom.atomidi;#P window linecount 2;#P hidden newex 526 83 263 196617 jcom.parameter.gain reflections/2nd/gain @repetitions 0 @description "gain of the early reflections 2nd order";#P objectname reflections/gain[1];#P bpatcher 153 46 100 12 0 0 jcom.textslider.mxt 1 0. 0. 1. @size 100 12 @text 2nd order refl.;#P hidden newex 671 676 332 196617 jcom.parameter source/orientation/elevation @type msg_float @range 0. 90. @description "orientation of the sound source (elevation)";#P objectname source/orientation/elevation;#P hidden newex 670 640 326 196617 jcom.parameter source/orientation/azimuth @type msg_float @range -180. 180. @description "orientation of the sound source (azimuth)";#P objectname source/orientation/azimuth;#P window linecount 1;#P hidden newex 590 682 75 196617 pvar source_E;#P objectname pvar_E;#P hidden newex 588 645 77 196617 pvar source_A;#P objectname pvar_A;#P hidden newex 596 611 70 196617 pvar warning;#P window linecount 2;#P hidden newex 669 605 306 196617 jcom.parameter warning @type msg_int @range 0 1 @clipmode both @description "turn on/off warnings inside the vimic module";#P objectname warning[1];#P user hint 107 3 120 15 "warnings on/off" 2500 1000 0 65535 65535 52428 9 3 0 1 0 0 0;#P user hint 122 3 135 15 "report on/off" 2500 1000 0 65535 65535 52428 9 3 0 1 0 0 0;#P toggle 109 3 13 0;#P objectname warning;#P hidden newex 582 567 229 196617 jcom.message audio/meters/clear @type msg_none @description "clear the audio meters";#P objectname jcom.parameter[2];#P window linecount 1;#P hidden newex 842 216 55 196617 pvar posD;#P hidden newex 748 216 54 196617 pvar posE;#P hidden newex 654 216 56 196617 pvar posA;#P hidden newex 584 537 378 196617 jcom.message update @type msg_none @description "update from external clock";#P objectname jcom.parameter[1];#N vpatcher 10 59 610 459;#P window setfont "Sans Serif" 9.;#P newex 50 50 51 196617 route set;#P newex 51 71 68 196617 jcom.miditoa;#P inlet 50 30 15 0;#P outlet 51 93 15 0;#P connect 1 0 3 0;#P connect 3 0 2 0;#P connect 2 0 0 0;#P pop;#P hidden newobj 470 25 48 196617 p midi2a;#P hidden newex 449 6 68 196617 jcom.atomidi;#N vpatcher 10 59 610 459;#P window setfont "Sans Serif" 9.;#P newex 50 50 51 196617 route set;#P newex 51 71 68 196617 jcom.miditoa;#P inlet 50 30 15 0;#P outlet 51 93 15 0;#P connect 1 0 3 0;#P connect 3 0 2 0;#P connect 2 0 0 0;#P pop;#P hidden newobj 470 63 48 196617 p midi2a;#P hidden newex 453 45 68 196617 jcom.atomidi;#P hidden message 157 284 30 196617 open;#N vpatcher 605 157 1205 557;#P origin -71 0;#P window setfont "Sans Serif" 9.;#P window linecount 0;#P message -8 168 90 196617 /rendermode mute;#P newex 79 129 41 196617 sel 1 0;#P message 84 168 104 196617 /rendermode unmute;#P window linecount 1;#P newex 198 54 134 196617 jcom.oscroute /audio/mute;#P newex 198 81 31 196617 == 0;#P message 198 127 62 196617 enable \$1 1;#P newex 116 54 78 196617 jcom.pass open;#P outlet 84 226 15 0;#P outlet 198 161 15 0;#N comlet Connect to 2nd last outlet of jcom.in~;#P inlet 116 33 15 0;#P connect 8 0 9 0;#P connect 6 0 8 0;#P connect 8 1 7 0;#P connect 7 0 2 0;#P fasten 6 1 2 0 327 190 89 190;#P fasten 9 0 2 0 -3 190 89 190;#P connect 0 0 3 0;#P connect 3 1 6 0;#P connect 6 0 5 0;#P connect 5 0 4 0;#P connect 4 0 1 0;#P connect 3 0 1 0;#P pop;#P hidden newobj 298 283 105 196617 p algorithm_control~;#P user hint 43 26 103 40 "ViMiC render method" 2500 1000 0 65535 65535 52428 9 3 0 1 0 0 0;#P hidden newex 610 501 68 196617 pvar order 2;#P window linecount 2;#P hidden newex 685 494 349 196617 jcom.parameter reflections/order @type msg_int @range 0 2 @repetitions 0 @priority 1 @clipmode both @description "order of early reflections";#P objectname reflections/order;#P user ubumenu 128 24 22 196617 0 0 1 0;#X setrgb 181 181 181 25 25 25 50 50 50 4 4 4 141 141 141 112 112 112;#X add 0;#X add 1;#X add 2;#X prefix_set 0 0 <none> 0;#P objectname order;#P window linecount 1;#N vpatcher 466 44 1004 757;#P origin 23 -3;#P window setfont "Sans Serif" 9.;#P window linecount 0;#P newex 327 861 61 196617 delay 1000;#P newex 322 841 50 196617 deferlow;#P newex 319 814 48 196617 loadbang;#N vpatcher 20 74 620 474;#P button 203 217 15 0;#P window setfont "Sans Serif" 9.;#P window linecount 0;#P newex 203 235 98 196617 loadmess separator;#P inlet 143 50 15 0;#P newex 142 94 246 196617 t b f;#P button 114 133 15 0;#P window linecount 1;#P newex 103 158 40 196617 uzi 24;#P newex 103 285 285 196617 zl join;#P newex 103 217 95 196617 append /position/z;#P newex 103 195 110 196617 prepend microphones/;#P newex 103 262 51 196617 tosymbol;#P outlet 103 333 15 0;#P connect 6 0 5 0;#P connect 5 2 2 0;#P connect 2 0 3 0;#P fasten 9 0 1 0 208 257 108 257;#P connect 3 0 1 0;#P connect 1 0 4 0;#P connect 4 0 0 0;#P connect 7 0 6 0;#P connect 8 0 7 0;#P connect 10 0 9 0;#P connect 7 1 4 1;#P pop;#P newobj 56 999 48 196617 p all_ele;#P newex 243 939 62 196617 prepend set;#P window linecount 1;#N vpatcher 676 279 1276 679;#P window setfont "Sans Serif" 9.;#P window linecount 1;#P message 314 103 31 196617 0.33;#P message 371 102 23 196617 0.3;#P message 200 102 23 196617 0.7;#P message 257 102 23 196617 0.5;#P message 428 102 17 196617 0.;#P window linecount 0;#P message 143 102 23 196617 1.;#P newex 143 65 352 196617 route omni subcardioid cardioid supercardioid hypercardioid figure-eight;#P outlet 143 270 15 0;#P inlet 143 40 15 0;#P comment 292 215 227 196617 the definition of super- and hyper-cardioid vary from company to company;#P connect 1 0 3 0;#P connect 3 0 4 0;#P connect 9 0 2 0;#P connect 5 0 2 0;#P connect 8 0 2 0;#P connect 6 0 2 0;#P connect 7 0 2 0;#P connect 4 0 2 0;#P connect 3 1 7 0;#P connect 3 2 6 0;#P connect 3 3 9 0;#P connect 3 4 8 0;#P connect 3 5 5 0;#P pop;#P newobj 243 917 73 196617 p mic-presets;#P objectname mic-preset;#P hidden button 552 558 15 0;#P window linecount 0;#N vpatcher 749 58 1349 458;#P outlet 123 260 15 0;#P inlet 211 54 15 0;#P window setfont "Sans Serif" 9.;#P hidden message 375 121 64 196617 rgb2 66 0 2;#P hidden message 27 117 94 196617 rgb2 164 153 128;#P hidden message 253 117 92 196617 frgb 181 181 181;#P hidden message 137 120 93 196617 brgb 100 100 100;#P outlet 387 261 15 0;#P connect 5 0 3 0;#P connect 2 0 6 0;#P connect 3 0 6 0;#P connect 1 0 6 0;#P connect 5 0 1 0;#P connect 5 0 2 0;#P connect 5 0 4 0;#P connect 4 0 0 0;#P connect 1 0 0 0;#P connect 2 0 0 0;#P pop;#P hidden newobj 567 582 46 196617 p colors;#P hidden newex 569 533 48 196617 loadbang;#P hidden newex 570 554 50 196617 deferlow;#N vpatcher 20 74 620 474;#P window setfont "Sans Serif" 9.;#P window linecount 0;#P message 265 78 14 196617 1;#P inlet 269 49 15 0;#P window linecount 1;#P newex 104 133 47 196617 gate 0 0;#P window linecount 0;#P newex 160 114 62 196617 prepend set;#P button 180 236 15 0;#P window linecount 1;#P newex 196 235 98 196617 loadmess separator;#P inlet 143 50 15 0;#P window linecount 0;#P newex 142 94 29 196617 t b f;#P window linecount 1;#P newex 103 158 40 196617 uzi 24;#P message 306 194 42 196617 0.;#P newex 103 285 38 196617 zl join;#P newex 103 212 126 196617 append /directivity/ratio;#P newex 103 190 110 196617 prepend microphones/;#P newex 103 262 51 196617 tosymbol;#P outlet 103 333 15 0;#P connect 12 0 6 0;#P connect 6 2 2 0;#P connect 2 0 3 0;#P fasten 9 0 1 0 201 257 108 257;#P connect 3 0 1 0;#P connect 1 0 4 0;#P connect 4 0 0 0;#P connect 14 0 12 0;#P fasten 5 0 4 1 311 281 136 281;#P connect 7 0 12 1;#P connect 8 0 7 0;#P connect 7 1 11 0;#P connect 10 0 9 0;#P connect 13 0 14 0;#P connect 6 2 5 0;#P connect 11 0 5 0;#P pop;#P newobj 246 867 49 196617 p all_Dir;#N vpatcher 20 74 620 474;#P button 180 236 15 0;#P window setfont "Sans Serif" 9.;#P window linecount 0;#P newex 196 235 98 196617 loadmess separator;#P inlet 143 50 15 0;#P newex 142 94 286 196617 t b s;#P button 114 133 15 0;#P window linecount 1;#P newex 103 158 40 196617 uzi 24;#P newex 103 285 325 196617 zl join;#P newex 103 212 133 196617 append /directivity/preset;#P newex 103 190 110 196617 prepend microphones/;#P newex 103 262 51 196617 tosymbol;#P outlet 103 333 15 0;#P connect 6 0 5 0;#P connect 5 2 2 0;#P connect 2 0 3 0;#P fasten 9 0 1 0 201 257 108 257;#P connect 3 0 1 0;#P connect 1 0 4 0;#P connect 4 0 0 0;#P connect 7 0 6 0;#P connect 8 0 7 0;#P connect 10 0 9 0;#P connect 7 1 4 1;#P pop;#P newobj 242 969 78 196617 p all_Dir_menu;#P newex 243 892 104 196617 pvar All_dir_menu 2;#N vpatcher 20 74 620 474;#P inlet 248 45 15 0;#P window setfont "Sans Serif" 9.;#P window linecount 0;#P message 54 128 14 196617 1;#P newex 103 136 47 196617 gate 0 0;#P newex 143 72 68 196617 jcom.atomidi;#P button 196 217 15 0;#P newex 196 235 98 196617 loadmess separator;#P inlet 143 50 15 0;#P newex 142 94 233 196617 t b f;#P window linecount 1;#P newex 103 158 40 196617 uzi 24;#P newex 103 285 272 196617 zl join;#P newex 103 217 92 196617 append /gain/midi;#P newex 103 195 110 196617 prepend microphones/;#P newex 103 262 51 196617 tosymbol;#P outlet 103 333 15 0;#P connect 13 0 12 0;#P connect 12 0 11 0;#P connect 11 0 5 0;#P connect 5 2 2 0;#P connect 2 0 3 0;#P fasten 8 0 1 0 201 257 108 257;#P connect 3 0 1 0;#P connect 1 0 4 0;#P connect 4 0 0 0;#P connect 6 0 11 1;#P connect 10 0 6 0;#P connect 7 0 10 0;#P connect 9 0 8 0;#P connect 6 1 4 1;#P pop;#P newobj 374 937 75 196617 p all_gain_mic;#P outlet 117 1000 15 0;#P newex 38 979 58 196617 pvar All_Z;#P newex 28 956 59 196617 pvar All_Y;#P newex 21 938 59 196617 pvar All_X;#P newex 158 936 60 196617 pvar All_A;#N vpatcher 20 74 620 474;#P button 196 217 15 0;#P window setfont "Sans Serif" 9.;#P window linecount 0;#P newex 196 235 98 196617 loadmess separator;#P inlet 143 50 15 0;#P newex 142 94 178 196617 t b f;#P button 114 133 15 0;#P window linecount 1;#P newex 103 158 40 196617 uzi 24;#P newex 103 285 217 196617 zl join;#P window linecount 3;#P newex 103 217 86 196617 append /orientation/azimuthal;#P window linecount 1;#P newex 103 195 110 196617 prepend microphones/;#P newex 103 262 51 196617 tosymbol;#P outlet 103 333 15 0;#P connect 6 0 5 0;#P connect 5 2 2 0;#P connect 2 0 3 0;#P fasten 9 0 1 0 201 257 108 257;#P connect 3 0 1 0;#P connect 1 0 4 0;#P connect 4 0 0 0;#P connect 7 0 6 0;#P connect 8 0 7 0;#P connect 10 0 9 0;#P connect 7 1 4 1;#P pop;#P newobj 158 957 48 196617 p all_azi;#P newex 98 936 58 196617 pvar All_E;#N vpatcher 20 74 620 474;#P button 196 217 15 0;#P window setfont "Sans Serif" 9.;#P window linecount 0;#P newex 196 235 98 196617 loadmess separator;#P inlet 143 50 15 0;#P newex 142 94 246 196617 t b f;#P button 114 133 15 0;#P window linecount 1;#P newex 103 158 40 196617 uzi 24;#P newex 103 285 285 196617 zl join;#P window linecount 3;#P newex 103 217 88 196617 append /orientation/elevation;#P window linecount 1;#P newex 103 195 110 196617 prepend microphones/;#P newex 103 262 51 196617 tosymbol;#P outlet 103 333 15 0;#P connect 6 0 5 0;#P connect 5 2 2 0;#P connect 2 0 3 0;#P fasten 9 0 1 0 201 257 108 257;#P connect 3 0 1 0;#P connect 1 0 4 0;#P connect 4 0 0 0;#P connect 7 0 6 0;#P connect 8 0 7 0;#P connect 10 0 9 0;#P connect 7 1 4 1;#P pop;#P newobj 98 957 48 196617 p all_ele;#P user ubumenu 335 465 71 196617 0 0 1 0;#X setrgb 181 181 181 25 25 25 50 50 50 4 4 4 141 141 141 112 112 112;#X add ---;#X add omni;#X add subcardioid;#X add cardioid;#X add supercardioid;#X add hypercardioid;#X add figure-eight;#X prefix_set 0 0 <none> 0;#P objectname All_dir_menu;#P window setfont "Sans Serif" 12.;#P window linecount 1;#P comment 405 465 13 196620 ||;#B frgb 198 0 65;#P bpatcher 418 467 36 13 0 0 jcom.numberslider.mxt 0 0. 0. 1. @size 40 14;#P objectname All_gain_mic;#P window setfont "Sans Serif" 9.;#P flonum 170 465 35 9 -20. 20. 8227 3 198 198 198 221 221 221 222 222 222 0 0 0;#P objectname All_Z;#P flonum 134 465 35 9 0 0 8224 3 198 198 198 221 221 221 222 222 222 0 0 0;#P objectname All_Y;#P bpatcher 298 467 36 13 0 0 jcom.numberslider.mxt 0 0. 0. 1. @size 40 14 @frgb 181 181 181;#P objectname All_dir;#P window setfont "Sans Serif" 12.;#P comment 282 465 13 196620 ||;#B frgb 198 0 65;#P window setfont "Sans Serif" 9.;#P flonum 251 465 32 9 -90. 90. 8227 3 198 198 198 221 221 221 222 222 222 0 0 0;#P objectname All_E;#P flonum 218 465 33 9 -180. 0 8225 3 198 198 198 221 221 221 222 222 222 0 0 0;#P objectname All_A;#P window setfont "Sans Serif" 12.;#P comment 205 465 13 196620 ||;#B frgb 198 0 65;#P window setfont "Sans Serif" 9.;#P flonum 98 465 35 9 0 0 8224 3 198 198 198 221 221 221 222 222 222 0 0 0;#P objectname All_X;#P comment 25 467 63 196617 quick setup:;#B frgb 149 149 149;#P bpatcher 3 448 523 17 0 0 jcom.sur.vimic_mic.mxt 0 24;#P objectname jcom.sur.vimic_mic.mxt[16];#P bpatcher 3 431 523 17 0 0 jcom.sur.vimic_mic.mxt 0 23;#P objectname jcom.sur.vimic_mic.mxt[17];#P bpatcher 3 414 523 17 0 0 jcom.sur.vimic_mic.mxt 0 22;#P objectname jcom.sur.vimic_mic.mxt[18];#P bpatcher 3 397 523 17 0 0 jcom.sur.vimic_mic.mxt 0 21;#P objectname jcom.sur.vimic_mic.mxt[19];#P bpatcher 3 380 523 17 0 0 jcom.sur.vimic_mic.mxt 0 20;#P objectname jcom.sur.vimic_mic.mxt[20];#P bpatcher 3 363 523 17 0 0 jcom.sur.vimic_mic.mxt 0 19;#P objectname jcom.sur.vimic_mic.mxt[21];#P bpatcher 3 346 523 17 0 0 jcom.sur.vimic_mic.mxt 0 18;#P objectname jcom.sur.vimic_mic.mxt[22];#P bpatcher 3 329 523 17 0 0 jcom.sur.vimic_mic.mxt 0 17;#P objectname jcom.sur.vimic_mic.mxt[23];#P flonum 399 529 27 9 0. 40. 8227 3 181 181 181 221 221 221 255 255 255 0 0 0;#P objectname dirPow[2];#P flonum 399 515 27 9 0. 40. 8227 3 181 181 181 221 221 221 255 255 255 0 0 0;#P objectname dirPow[1];#P window linecount 0;#P comment 295 532 100 196617 2nd order reflection:;#B frgb 149 149 149;#P comment 296 517 99 196617 1st order reflection:;#B frgb 149 149 149;#P comment 331 502 64 196617 direct sound:;#B frgb 149 149 149;#P flonum 184 529 27 9 0. 40. 8227 3 181 181 181 221 221 221 255 255 255 0 0 0;#P objectname disPow2;#P flonum 184 515 27 9 0. 40. 8227 3 181 181 181 221 221 221 255 255 255 0 0 0;#P objectname disPow1;#P comment 79 531 100 196617 2nd order reflection:;#B frgb 149 149 149;#P comment 80 516 99 196617 1st order reflection:;#B frgb 149 149 149;#P comment 115 502 64 196617 direct sound:;#B frgb 149 149 149;#P comment 302 643 89 196617 temperature [¼C]:;#B frgb 149 149 149;#P flonum 390 642 28 9 -20. 40. 8227 3 181 181 181 221 221 221 255 255 255 0 0 0;#P objectname temp;#P window linecount 3;#P newex 647 691 292 196617 jcom.parameter temperature @type msg_float @repetitions 1 @range -20. 30. @clipmode low @description "Temperature in Celsius to calculate the speed of sound";#P objectname temperature;#P window linecount 1;#P newex 589 702 56 196617 pvar temp;#P window linecount 0;#P comment 430 521 82 196617 Renderintervall:;#B frgb 149 149 149;#P number 513 519 28 9 1 0 8225 3 181 181 181 221 221 221 255 255 255 0 0 0;#P objectname Renderintervall;#P hidden newex 437 990 104 196617 pvar Renderintervall;#P window linecount 3;#P newex 547 975 379 196617 jcom.parameter renderintervall @type msg_int @range 1 100 @clipmode low @description "tells ViMiC over how many signalblocks a change in position is interpolated - shorter time leads to faster transition and stronger doppler effect";#P objectname renderintervall;#P window linecount 0;#P comment 296 43 37 196617 ratio;#B frgb 181 181 181;#P comment 435 30 56 196617 Gain;#B frgb 181 181 181;#P user ubumenu 238 670 53 196617 0 0 1 0;#X setrgb 181 181 181 25 25 25 50 50 50 4 4 4 141 141 141 112 112 112;#X add ---;#X add zero;#X add full;#X add audience;#X add carpet;#X add brick;#X add sand;#X add metal;#X add trees;#X add grass;#X prefix_set 0 0 <none> 0;#P objectname ceiling_menu;#P user ubumenu 238 653 53 196617 0 0 1 0;#X setrgb 181 181 181 25 25 25 50 50 50 4 4 4 141 141 141 112 112 112;#X add ---;#X add zero;#X add full;#X add audience;#X add carpet;#X add brick;#X add sand;#X add metal;#X add trees;#X add grass;#X prefix_set 0 0 <none> 0;#P objectname floor_menu;#P user ubumenu 238 602 53 196617 0 0 1 0;#X setrgb 181 181 181 25 25 25 50 50 50 4 4 4 141 141 141 112 112 112;#X add ---;#X add zero;#X add full;#X add audience;#X add carpet;#X add brick;#X add sand;#X add metal;#X add trees;#X add grass;#X prefix_set 0 0 <none> 0;#P objectname right_menu;#P user ubumenu 238 585 53 196617 0 0 1 0;#X setrgb 181 181 181 25 25 25 50 50 50 4 4 4 141 141 141 112 112 112;#X add ---;#X add zero;#X add full;#X add audience;#X add carpet;#X add brick;#X add sand;#X add metal;#X add trees;#X add grass;#X prefix_set 0 0 <none> 0;#P objectname left_menu;#P user ubumenu 238 636 53 196617 0 0 1 0;#X setrgb 181 181 181 25 25 25 50 50 50 4 4 4 141 141 141 112 112 112;#X add ---;#X add zero;#X add full;#X add audience;#X add carpet;#X add brick;#X add sand;#X add metal;#X add trees;#X add grass;#X prefix_set 0 0 <none> 0;#P objectname rear_menu;#P newex 1387 622 101 196617 pvar ceiling_menu 2;#P newex 1538 675 82 196617 wall_properties;#P window linecount 2;#P newex 1387 644 312 196617 jcom.message room/absorption/ceiling/preset @type msg_symbol @repetitions 1 @description "absorption presets for the floor";#P objectname room/absorption[5];#P window linecount 1;#P newex 1378 513 94 196617 pvar floor_menu 2;#P newex 1529 566 82 196617 wall_properties;#P window linecount 2;#P newex 1378 535 305 196617 jcom.message room/absorption/floor/preset @type msg_symbol @repetitions 1 @description "absorption presets for the floor";#P objectname room/absorption[4];#P window linecount 1;#P newex 1358 348 94 196617 pvar right_menu 2;#P newex 1509 401 82 196617 wall_properties;#P window linecount 2;#P newex 1358 370 315 196617 jcom.message room/absorption/right/preset @type msg_symbol @repetitions 1 @description "absorption presets for the right wall";#P objectname room/absorption[3];#P window linecount 1;#P newex 1365 204 88 196617 pvar left_menu 2;#P newex 1516 257 82 196617 wall_properties;#P window linecount 2;#P newex 1365 226 309 196617 jcom.message room/absorption/left/preset @type msg_symbol @repetitions 1 @description "absorption presets for the left wall";#P objectname room/absorption[2];#P window linecount 1;#P newex 1356 90 92 196617 pvar rear_menu 2;#P newex 1537 144 82 196617 wall_properties;#P window linecount 2;#P newex 1356 112 313 196617 jcom.message room/absorption/rear/preset @type msg_symbol @repetitions 1 @description "absorption presets for the rear wall";#P objectname room/absorption[1];#P window linecount 1;#P newex 1357 -18 95 196617 pvar front_menu 2;#P window linecount 0;#P newex 1538 36 82 196617 wall_properties;#P window linecount 2;#P newex 1357 4 316 196617 jcom.message room/absorption/front/preset @type msg_symbol @repetitions 1 @description "absorption presets for the front wall";#P objectname room/absorption;#P user ubumenu 238 619 53 196617 0 0 1 0;#X setrgb 181 181 181 25 25 25 50 50 50 4 4 4 141 141 141 112 112 112;#X add ---;#X add zero;#X add full;#X add audience;#X add carpet;#X add brick;#X add sand;#X add metal;#X add trees;#X add grass;#X prefix_set 0 0 <none> 0;#P objectname front_menu;#P window setfont "Sans Serif" 10.;#P window linecount 1;#P comment 145 556 88 196618 cross-frequency;#B frgb 149 149 149;#P window setfont "Sans Serif" 9.;#P number 73 690 47 9 500 19000 8227 3 181 181 181 221 221 221 222 222 222 0 0 0;#P objectname early_lowcut;#P window linecount 0;#P comment 3 692 69 196617 airfilter [Hz]:;#B frgb 149 149 149;#P flonum 259 690 28 9 0. 40. 8227 3 181 181 181 221 221 221 255 255 255 0 0 0;#P objectname roomsizeZ;#P flonum 231 690 28 9 0. 40. 8227 3 181 181 181 221 221 221 255 255 255 0 0 0;#P objectname roomsizeY;#P flonum 203 690 28 9 0. 40. 8227 3 181 181 181 221 221 221 255 255 255 0 0 0;#P objectname roomsizeX;#P comment 125 692 77 196617 roomize x/y/z:;#B frgb 149 149 149;#P window linecount 2;#P newex 1052 776 418 196617 jcom.parameter room/absorption/ceiling/high @type msg_float @repetitions 1 @range 0.1 99.9 @clipmode both @description "absorption for the high frequencies of the ceiling";#P objectname room/absorption/ceiling/high;#P newex 1052 731 416 196617 jcom.parameter room/absorption/ceiling/mid @type msg_float @repetitions 1 @range 0.1 99.9 @clipmode both @description "absorption for the mid frequencies of the ceiling";#P objectname room/absorption/ceiling/mid;#P newex 1052 685 416 196617 jcom.parameter room/absorption/ceiling/low @type msg_float @repetitions 1 @range 0.1 99.9 @clipmode both @description "absorption for the low frequencies of the ceiling";#P objectname room/absorption/ceiling/low;#P window linecount 1;#P newex 973 790 66 196617 pvar ceil_hg;#P newex 973 751 69 196617 pvar ceil_mg;#P newex 973 699 64 196617 pvar ceil_lg;#P window linecount 3;#P newex 1050 642 292 196617 jcom.parameter room/absorption/floor/high @type msg_float @repetitions 1 @range 0.1 99.9 @clipmode both @description "absorption for the high frequencies of the floor wall";#P objectname room/absorption/floor/high;#P newex 1050 597 290 196617 jcom.parameter room/absorption/floor/mid @type msg_float @repetitions 1 @range 0.1 99.9 @clipmode both @description "absorption for the mid frequencies of the floor wall";#P objectname room/absorption/floor/mid;#P newex 1050 551 290 196617 jcom.parameter room/absorption/floor/low @type msg_float @repetitions 1 @range 0.1 99.9 @clipmode both @description "absorption for the low frequencies of the floor wall";#P objectname room/absorption/floor/low;#P window linecount 1;#P newex 975 653 72 196617 pvar floor_hg;#P newex 971 617 75 196617 pvar floor_mg;#P newex 971 565 70 196617 pvar floor_lg;#P window linecount 3;#P newex 1049 508 292 196617 jcom.parameter room/absorption/right/high @type msg_float @repetitions 1 @range 0.1 99.9 @clipmode both @description "absorption for the high frequencies of the right wall";#P objectname room/absorption/right/high;#P newex 1049 463 290 196617 jcom.parameter room/absorption/right/mid @type msg_float @repetitions 1 @range 0.1 99.9 @clipmode both @description "absorption for the mid frequencies of the right wall";#P objectname room/absorption/right/mid;#P newex 1049 417 290 196617 jcom.parameter room/absorption/right/low @type msg_float @repetitions 1 @range 0.1 99.9 @clipmode both @description "absorption for the low frequencies of the right wall";#P objectname room/absorption/right/low;#P window linecount 1;#P newex 970 522 72 196617 pvar right_hg;#P newex 970 483 75 196617 pvar right_mg;#P newex 970 431 70 196617 pvar right_lg;#P window linecount 3;#P newex 1047 371 286 196617 jcom.parameter room/absorption/left/high @type msg_float @repetitions 1 @range 0.1 99.9 @clipmode both @description "absorption for the high frequencies of the left wall";#P objectname room/absorption/left/high;#P newex 1047 326 284 196617 jcom.parameter room/absorption/left/mid @type msg_float @repetitions 1 @range 0.1 99.9 @clipmode both @description "absorption for the mid frequencies of the left wall";#P objectname room/absorption/left/mid;#P newex 1047 280 284 196617 jcom.parameter room/absorption/left/low @type msg_float @repetitions 1 @range 0.1 99.9 @clipmode both @description "absorption for the low frequencies of the left wall";#P objectname room/absorption/left/low;#P window linecount 1;#P newex 968 385 66 196617 pvar left_hg;#P newex 968 346 69 196617 pvar left_mg;#P newex 968 294 64 196617 pvar left_lg;#P comment 190 572 45 196617 mid/high;#B frgb 149 149 149;#P comment 139 572 45 196617 low/mid;#B frgb 149 149 149;#P comment 101 572 26 196617 high;#B frgb 149 149 149;#P comment 70 572 26 196617 mids;#B frgb 149 149 149;#P comment 40 572 24 196617 low;#B frgb 149 149 149;#P window linecount 3;#P newex 1047 235 290 196617 jcom.parameter room/absorption/rear/high @type msg_float @repetitions 1 @range 0.1 99.9 @clipmode both @description "absorption for the high frequencies of the rear wall";#P objectname room/absorption/rear/high;#P newex 1047 189 288 196617 jcom.parameter room/absorption/rear/mid @type msg_float @repetitions 1 @range 0.1 99.9 @clipmode both @description "absorption for the mid frequencies of the rear wall";#P objectname room/absorption/rear/mid;#P newex 1047 143 288 196617 jcom.parameter room/absorption/rear/low @type msg_float @repetitions 1 @range 0.1 99.9 @clipmode both @description "absorption for the low frequencies of the rear wall";#P objectname room/absorption/rear/low;#P window linecount 1;#P newex 968 249 70 196617 pvar back_hg;#P newex 968 209 73 196617 pvar back_mg;#P newex 968 157 68 196617 pvar back_lg;#P window linecount 3;#P newex 1047 97 293 196617 jcom.parameter room/absorption/front/high @type msg_float @repetitions 1 @range 0.1 99.9 @clipmode both @description "absorption for the high frequencies of the front wall";#P objectname room/absorption/front/high;#P newex 1047 50 291 196617 jcom.parameter room/absorption/front/mid @type msg_float @repetitions 1 @range 0.1 99.9 @clipmode both @description "absorption for the mid frequencies of the front wall";#P objectname room/absorption/front/mid;#P newex 1047 4 294 196617 jcom.parameter room/absorption/front/low @type msg_float @repetitions 1 @range 0.1 99.9 @clipmode both @description "absorption for the low frequencies of the front wall";#P objectname room/absorption/front/low;#P window linecount 1;#P newex 968 111 73 196617 pvar front_hg;#P newex 968 65 76 196617 pvar front_mg;#P window linecount 0;#P newex 968 18 71 196617 pvar front_lg;#P flonum 103 671 28 9 0. 100. 8227 3 181 181 181 221 221 221 255 255 255 0 0 0;#P objectname ceil_hg;#P flonum 103 654 28 9 0. 100. 8227 3 181 181 181 221 221 221 255 255 255 0 0 0;#P objectname floor_hg;#P flonum 103 603 28 9 0. 100. 8227 3 181 181 181 221 221 221 255 255 255 0 0 0;#P objectname right_hg;#P flonum 103 586 28 9 0. 100. 8227 3 181 181 181 221 221 221 255 255 255 0 0 0;#P objectname left_hg;#P flonum 103 637 28 9 0. 100. 8227 3 181 181 181 221 221 221 255 255 255 0 0 0;#P objectname back_hg;#P flonum 103 619 28 9 0. 100. 8227 3 181 181 181 221 221 221 255 255 255 0 0 0;#P objectname front_hg;#P flonum 73 671 28 9 0. 100. 8227 3 181 181 181 221 221 221 255 255 255 0 0 0;#P objectname ceil_mg;#P flonum 73 654 28 9 0. 100. 8227 3 181 181 181 221 221 221 255 255 255 0 0 0;#P objectname floor_mg;#P flonum 73 603 28 9 0. 100. 8227 3 181 181 181 221 221 221 255 255 255 0 0 0;#P objectname right_mg;#P flonum 73 586 28 9 0. 100. 8227 3 181 181 181 221 221 221 255 255 255 0 0 0;#P objectname left_mg;#P flonum 73 637 28 9 0. 100. 8227 3 181 181 181 221 221 221 255 255 255 0 0 0;#P objectname back_mg;#P flonum 73 619 28 9 0. 100. 8227 3 181 181 181 221 221 221 255 255 255 0 0 0;#P objectname front_mg;#P flonum 42 671 28 9 0. 100. 8227 3 181 181 181 221 221 221 255 255 255 0 0 0;#P objectname ceil_lg;#P flonum 42 654 28 9 0. 100. 8227 3 181 181 181 221 221 221 255 255 255 0 0 0;#P objectname floor_lg;#P flonum 42 603 28 9 0. 100. 8227 3 181 181 181 221 221 221 255 255 255 0 0 0;#P objectname right_lg;#P flonum 42 586 28 9 0. 100. 8227 3 181 181 181 221 221 221 255 255 255 0 0 0;#P objectname left_lg;#P flonum 42 637 28 9 0. 100. 8227 3 181 181 181 221 221 221 255 255 255 0 0 0;#P objectname back_lg;#P window linecount 1;#P comment 2 673 40 196617 Ceiling:;#B frgb 149 149 149;#P comment 8 656 34 196617 Floor:;#B frgb 149 149 149;#P comment 8 606 34 196617 Right:;#B frgb 149 149 149;#P comment 12 589 29 196617 Left:;#B frgb 149 149 149;#P comment 10 639 31 196617 Back:;#B frgb 149 149 149;#P comment 7 621 34 196617 front:;#B frgb 149 149 149;#P window setfont "Sans Serif" 12.;#P comment 2 28 86 196620 Microphones:;#B frgb 149 149 149;#P window setfont "Sans Serif" 10.;#P comment 34 556 104 196618 wall absorption [%];#B frgb 149 149 149;#P window setfont "Sans Serif" 9.;#P flonum 42 619 28 9 0. 100. 8227 3 181 181 181 221 221 221 255 255 255 0 0 0;#P objectname front_lg;#P user panel 1 553 295 160;#X brgb 80 80 80;#X frgb 255 255 255;#X border 1;#X rounded 0;#X shadow 0;#X done;#P window linecount 0;#P newex 428 770 107 196617 pvar xfade_threshold;#P number 414 593 32 9 0 0 8225 3 181 181 181 221 221 221 222 222 222 0 0 0;#P objectname xfade_threshold;#P comment 299 595 83 196617 fading threshold:;#B frgb 149 149 149;#P newex 446 746 92 196617 pvar xfade_length;#P number 414 577 32 9 0 0 8225 3 181 181 181 221 221 221 222 222 222 0 0 0;#P objectname xfade_length;#P window linecount 1;#P comment 322 579 61 196617 fading time:;#B frgb 149 149 149;#P window setfont "Sans Serif" 12.;#P comment 301 557 111 196620 X-FADE settings:;#B frgb 149 149 149;#P window setfont "Sans Serif" 9.;#P comment 306 611 77 196617 fading function:;#B frgb 149 149 149;#P user ubumenu 386 610 63 196617 0 0 1 0;#X setrgb 181 181 181 25 25 25 50 50 50 4 4 4 141 141 141 112 112 112;#X add cosine;#X add cosine_squared;#X add linear;#X add tanh;#X add sqrt;#X prefix_set 0 0 <none> 0;#P objectname fadefunction;#P user panel 297 553 157 81;#X brgb 80 80 80;#X frgb 255 255 255;#X border 1;#X rounded 0;#X shadow 0;#X done;#P newex 433 831 98 196617 pvar fadefunction 2;#P window linecount 2;#P newex 542 825 403 196617 jcom.parameter rendermode/xfade/fadefunction @type msg_symbol @description "fading function of the crossfade for the x-fade mode";#P objectname rendermode/xfade/fadefunction;#P window linecount 3;#P newex 543 775 329 196617 jcom.parameter rendermode/xfade/threshold @type msg_int @range 0 4096 @repetitions 0 @clipmode low @description "distance in samples before a crossfade in the x-fade mode is activated";#P objectname rendermode/xfade/threshold;#P window linecount 2;#P newex 542 738 408 196617 jcom.parameter rendermode/xfade/fadelength @type msg_int @repetitions 0 @range 0 512 @clipmode low @description "length of the crossfade for the x-fade mode in ms";#P objectname rendermode/xfade/fadelength;#P window linecount 0;#P hidden newex 399 1 417 196617 jcom.multi.out~;#P bpatcher 3 312 523 17 0 0 jcom.sur.vimic_mic.mxt 0 16;#P objectname jcom.sur.vimic_mic.mxt[8];#P bpatcher 3 295 523 17 0 0 jcom.sur.vimic_mic.mxt 0 15;#P objectname jcom.sur.vimic_mic.mxt[9];#P bpatcher 3 278 523 17 0 0 jcom.sur.vimic_mic.mxt 0 14;#P objectname jcom.sur.vimic_mic.mxt[10];#P bpatcher 3 261 523 17 0 0 jcom.sur.vimic_mic.mxt 0 13;#P objectname jcom.sur.vimic_mic.mxt[11];#P bpatcher 3 244 523 17 0 0 jcom.sur.vimic_mic.mxt 0 12;#P objectname jcom.sur.vimic_mic.mxt[12];#P bpatcher 3 227 523 17 0 0 jcom.sur.vimic_mic.mxt 0 11;#P objectname jcom.sur.vimic_mic.mxt[13];#P bpatcher 3 210 523 17 0 0 jcom.sur.vimic_mic.mxt 0 10;#P objectname jcom.sur.vimic_mic.mxt[14];#P bpatcher 3 193 523 17 0 0 jcom.sur.vimic_mic.mxt 0 9;#P objectname jcom.sur.vimic_mic.mxt[15];#P window linecount 2;#P message 8 898 64 196617 \; max refresh;#P inlet 831 -3 15 0;#P hidden inlet 402 -17 15 0;#P bpatcher 3 176 523 17 0 0 jcom.sur.vimic_mic.mxt 0 8;#P objectname jcom.sur.vimic_mic.mxt[7];#P bpatcher 3 159 523 17 0 0 jcom.sur.vimic_mic.mxt 0 7;#P objectname jcom.sur.vimic_mic.mxt[6];#P bpatcher 3 142 523 17 0 0 jcom.sur.vimic_mic.mxt 0 6;#P objectname jcom.sur.vimic_mic.mxt[5];#P bpatcher 3 125 523 17 0 0 jcom.sur.vimic_mic.mxt 0 5;#P objectname jcom.sur.vimic_mic.mxt[4];#P bpatcher 3 108 523 17 0 0 jcom.sur.vimic_mic.mxt 0 4;#P objectname jcom.sur.vimic_mic.mxt[3];#P bpatcher 3 91 523 17 0 0 jcom.sur.vimic_mic.mxt 0 3;#P objectname jcom.sur.vimic_mic.mxt[2];#P bpatcher 3 74 523 17 0 0 jcom.sur.vimic_mic.mxt 0 2;#P objectname jcom.sur.vimic_mic.mxt[1];#P flonum 399 501 27 9 0. 40. 8227 3 181 181 181 221 221 221 255 255 255 0 0 0;#P objectname dirPow;#P flonum 184 501 27 9 0. 40. 8227 3 181 181 181 221 221 221 255 255 255 0 0 0;#P objectname disPow;#P window linecount 0;#P comment 302 661 108 196617 Report state of ViMiC:;#B frgb 149 149 149;#P comment 430 502 84 196617 update rate [Hz]:;#B frgb 149 149 149;#P number 513 501 28 9 1 50 8227 3 181 181 181 221 221 221 255 255 255 0 0 0;#P objectname Updaterate;#P hidden newex 458 950 83 196617 pvar Updaterate;#P window linecount 2;#P newex 547 943 393 196617 jcom.parameter updaterate @type msg_int @range 1 50 @clipmode low @description "vimic updaterate - tells how often the parameter settings are getting updated";#P objectname updaterate;#P window linecount 1;#P newex 116 889 50 196617 deferlow;#P window linecount 3;#P newex 670 343 337 196617 jcom.parameter reflections/airfilter @type msg_int @range 500 19000 @clipmode both @repetitions 0 @description "damping frequency of the early reflections due to air absorption";#P objectname reflections/airfilter;#P window linecount 1;#P newex 670 321 94 196617 pvar early_lowcut;#P comment 355 44 37 196617 preset;#B frgb 181 181 181;#P newex 434 876 144 196617 jcom.list2parameter 3;#P newex 600 901 80 196617 pvar roomsizeZ;#P newex 517 901 81 196617 pvar roomsizeY;#P newex 434 901 81 196617 pvar roomsizeX;#P window linecount 2;#P newex 583 866 386 196617 jcom.parameter room/size @type msg_list @ramp/drive scheduler @range 0. 40. @repetitions 0 @clipmode both @description "Size of the virtual room in XYZ";#P objectname room/size;#P window linecount 1;#P comment 6 487 201 196617 power law for attenuation due to distance:;#B frgb 149 149 149;#P comment 219 488 211 196617 power law for attenuation due to directivity:;#B frgb 149 149 149;#P newex 669 249 66 196617 pvar dirPow;#P newex 688 184 66 196617 pvar disPow;#P window linecount 3;#P newex 669 269 285 196617 jcom.parameter microphones/direct/power @type msg_float @repetitions 0 @range 0. 8. @clipmode both @description "power law for attenuation due to microphone directivity";#P objectname microphones/direct/power;#P newex 688 203 267 196617 jcom.parameter room/distance/power @type msg_float @range 0. 8. @clipmode both @repetitions 0 @description "power law for attenuation due to distance";#P objectname room/distance/power;#P window linecount 1;#P comment 204 43 87 196617 Azimut/Elevation;#B frgb 181 181 181;#P comment 171 43 14 196617 Z;#B frgb 181 181 181;#P comment 137 43 14 196617 Y;#B frgb 181 181 181;#P comment 99 42 14 196617 X;#B frgb 181 181 181;#P comment 316 30 56 196617 Directivity;#B frgb 181 181 181;#P comment 215 30 87 196617 Orientation;#B frgb 181 181 181;#P comment 96 30 99 196617 Microphone position;#B frgb 181 181 181;#P bpatcher 3 57 523 17 0 0 jcom.sur.vimic_mic.mxt 0 1;#P objectname jcom.sur.vimic_mic.mxt;#P hidden newex 759 133 74 196617 pvar allreport;#P window linecount 3;#P hidden newex 760 153 203 196617 jcom.message report_all @type msg_int @range 0 1 @clipmode both @description "report inner state of the vimic module";#P objectname direct/gain[2];#P button 408 660 15 0;#P objectname allreport;#P flonum 406 824 29 9 0 0 8224 3 181 181 181 221 221 221 222 222 222 0 0 0;#P objectname bb6;#P flonum 406 806 29 9 0 0 8224 3 181 181 181 221 221 221 222 222 222 0 0 0;#P objectname bb5;#P window linecount 1;#P hidden newex 116 868 117 196617 loadmess patcher ViMiC;#P hidden newex 6 855 40 196617 t front;#P hidden inlet 6 802 15 0;#N thispatcher;#Q window flags nogrow close zoom nofloat;#Q window size 466 44 1004 757;#Q window title;#Q window exec;#Q savewindow 1;#Q end;#P hidden newobj 116 912 59 196617 thispatcher;#P hidden newex 158 1007 88 196617 bgcolor 80 80 80;#P hidden message 439 659 273 196617 window flags nogrow \, savewindow 1 \, window exec;#P hidden message 438 685 262 196617 window flags grow \, window exec;#P window setfont "Sans Serif" 18.;#P comment 173 0 211 196626 Extended settings;#B frgb 181 181 181;#P user panel 1 25 529 459;#X brgb 80 80 80;#X frgb 255 255 255;#X border 1;#X rounded 0;#X shadow 0;#X done;#P user panel 216 485 213 67;#X brgb 80 80 80;#X frgb 255 255 255;#X border 1;#X rounded 0;#X shadow 0;#X done;#P user panel 1 485 213 67;#X brgb 80 80 80;#X frgb 255 255 255;#X border 1;#X rounded 0;#X shadow 0;#X done;#P hidden connect 64 0 16 0;#P hidden connect 64 1 46 0;#P hidden connect 64 2 47 0;#P hidden connect 64 3 48 0;#P hidden connect 64 4 49 0;#P hidden connect 64 5 50 0;#P hidden connect 64 6 51 0;#P hidden connect 64 7 52 0;#P hidden connect 64 8 56 0;#P hidden connect 64 9 57 0;#P hidden connect 64 10 58 0;#P hidden connect 64 11 59 0;#P hidden connect 64 12 60 0;#P hidden connect 64 13 61 0;#P hidden connect 64 14 62 0;#P hidden connect 64 15 63 0;#P hidden connect 64 16 198 0;#P hidden connect 64 17 199 0;#P hidden connect 64 18 200 0;#P hidden connect 64 19 201 0;#P hidden connect 64 20 202 0;#P hidden connect 64 21 203 0;#P hidden connect 64 22 204 0;#P hidden connect 64 23 205 0;#P connect 224 0 236 0;#P connect 219 0 218 0;#P connect 10 0 38 0;#P connect 9 0 7 0;#P connect 38 0 7 0;#P hidden connect 5 0 7 0;#P hidden connect 4 0 7 0;#P connect 229 0 225 0;#P connect 218 0 225 0;#P connect 220 0 225 0;#P fasten 226 0 225 0 379 996 122 996;#P fasten 228 0 225 0 247 996 122 996;#P connect 236 0 225 0;#P connect 221 0 220 0;#P fasten 227 1 228 0 342 964 247 964;#P fasten 227 1 234 0 342 913 248 913;#P connect 234 0 235 0;#P hidden connect 212 0 229 0;#P connect 239 0 229 1;#P hidden connect 232 0 212 0;#P hidden connect 235 0 212 0;#P connect 237 0 238 0;#P connect 238 0 239 0;#P hidden connect 215 0 226 0;#P hidden connect 53 0 64 0;#P hidden connect 232 1 215 0;#P connect 66 0 78 0;#P connect 67 0 68 0;#P fasten 31 0 34 0 439 923 431 923 431 869 439 869;#P connect 34 0 31 0;#P hidden connect 180 0 181 0;#P connect 239 0 226 1;#P connect 65 0 75 0;#P fasten 32 0 34 1 522 927 425 927 425 864 452 864;#P connect 39 0 40 0;#P hidden fasten 33 0 34 2 605 926 420 926 420 859 465 859;#P hidden connect 54 0 16 1;#P hidden connect 54 0 46 1;#P hidden connect 54 0 47 1;#P hidden connect 54 0 48 1;#P hidden connect 54 0 49 1;#P hidden connect 54 0 50 1;#P hidden connect 54 0 51 1;#P hidden connect 54 0 52 1;#P hidden connect 54 0 56 1;#P hidden connect 54 0 57 1;#P hidden connect 54 0 58 1;#P hidden connect 54 0 59 1;#P hidden connect 54 0 60 1;#P hidden connect 54 0 61 1;#P hidden connect 54 0 62 1;#P hidden connect 54 0 63 1;#P hidden connect 54 0 198 1;#P hidden connect 54 0 199 1;#P hidden connect 54 0 200 1;#P hidden connect 54 0 201 1;#P hidden connect 54 0 202 1;#P hidden connect 54 0 203 1;#P hidden connect 54 0 204 1;#P hidden connect 54 0 205 1;#P connect 34 1 32 0;#P connect 75 0 65 0;#P connect 68 1 67 0;#P connect 78 0 66 0;#P connect 40 0 39 0;#P hidden connect 181 0 180 0;#P connect 30 0 34 10;#P lcolor 15;#P hidden connect 230 0 232 0;#P hidden connect 233 0 231 0;#P hidden connect 231 0 230 0;#P connect 34 10 30 0;#P lcolor 15;#P connect 185 0 184 0;#P connect 34 2 33 0;#P connect 184 0 185 0;#P fasten 25 0 27 0 674 312 666 312 666 246 674 246;#P connect 27 0 25 0;#P fasten 37 0 36 0 675 386 666 386 666 317 675 317;#P connect 36 0 37 0;#P fasten 24 0 26 0 693 246 685 246 685 181 693 181;#P connect 26 0 24 0;#P hidden connect 15 0 14 0;#P connect 109 0 106 0;#P connect 110 0 107 0;#P connect 111 0 108 0;#P connect 115 0 112 0;#P connect 116 0 113 0;#P connect 117 0 114 0;#P connect 126 0 123 0;#P connect 127 0 124 0;#P connect 128 0 125 0;#P connect 132 0 129 0;#P connect 133 0 130 0;#P connect 134 0 131 0;#P connect 138 0 135 0;#P connect 139 0 136 0;#P connect 144 0 141 0;#P connect 145 0 142 0;#P connect 146 0 143 0;#P connect 140 0 137 0;#P connect 156 0 109 0;#P connect 106 0 109 0;#P connect 156 1 110 0;#P connect 107 0 110 0;#P connect 156 2 111 0;#P connect 108 0 111 0;#P connect 159 0 115 0;#P connect 112 0 115 0;#P connect 159 1 116 0;#P connect 113 0 116 0;#P connect 159 2 117 0;#P connect 114 0 117 0;#P connect 162 0 126 0;#P connect 123 0 126 0;#P connect 162 1 127 0;#P connect 124 0 127 0;#P connect 162 2 128 0;#P connect 125 0 128 0;#P connect 165 0 132 0;#P connect 129 0 132 0;#P connect 165 1 133 0;#P connect 130 0 133 0;#P connect 165 2 134 0;#P connect 131 0 134 0;#P connect 168 0 138 0;#P connect 135 0 138 0;#P connect 168 1 139 0;#P connect 136 0 139 0;#P connect 168 2 140 0;#P connect 137 0 140 0;#P connect 171 0 144 0;#P connect 141 0 144 0;#P connect 171 1 145 0;#P connect 142 0 145 0;#P connect 171 2 146 0;#P connect 143 0 146 0;#P connect 158 0 160 0;#P connect 160 1 158 0;#P connect 155 0 157 0;#P connect 157 1 155 0;#P connect 164 0 166 0;#P connect 166 1 164 0;#P connect 161 0 163 0;#P connect 163 1 161 0;#P connect 167 0 169 0;#P connect 169 1 167 0;#P connect 170 0 172 0;#P connect 172 1 170 0;#P connect 164 1 165 0;#P connect 161 1 162 0;#P connect 167 1 168 0;#P connect 158 1 159 0;#P connect 155 1 156 0;#P connect 170 1 171 0;#P pop;#P hidden newobj 157 333 67 196617 p inspector;#B color 4;#P objectname inspector;#P hidden newex 544 314 62 196617 prepend set;#P hidden newex 615 366 27 196617 - 1;#P hidden newex 614 295 27 196617 + 1;#P hidden newex 614 347 51 196617 route set;#P hidden newex 614 454 102 196617 pvar render_mode 2;#P window linecount 2;#P hidden newex 722 448 242 196617 jcom.parameter rendermode @type msg_symbol @repetitions 0 @description "Rendertype of ViMiC";#P objectname rendermode;#P user ubumenu 42 24 63 196617 0 0 1 0;#X setrgb 181 181 181 25 25 25 50 50 50 4 4 4 141 141 141 112 112 112;#X add ViMiC_lite;#X add X-fade_lite;#X add ViMiC_XL;#X add X-fade_XL;#X add Panning;#X add Static;#X prefix_set 0 0 <none> 0;#P objectname render_mode;#P window linecount 1;#N vpatcher 497 319 1097 719;#P outlet 56 179 15 0;#P button 137 29 15 0;#P window setfont "Sans Serif" 9.;#P hidden message 60 91 64 196617 rgb2 66 0 2;#P hidden message 221 89 92 196617 frgb 181 181 181;#P hidden message 138 91 75 196617 brgb 47 46 36;#P newex 83 58 50 196617 deferlow;#P newex 83 24 48 196617 loadbang;#P connect 4 0 6 0;#P connect 2 0 6 0;#P connect 3 0 6 0;#P connect 1 0 4 0;#P connect 5 0 1 0;#P connect 0 0 1 0;#P connect 1 0 2 0;#P connect 1 0 3 0;#P pop;#P hidden newobj 349 78 46 196617 p colors;#N thispatcher;#Q end;#P hidden newobj 351 122 61 196617 thispatcher;#N vpatcher 188 431 335 589;#P button 43 34 15 0;#P window setfont "Sans Serif" 9.;#P newex 41 54 50 196617 deferlow;#P newex 41 75 50 196617 t front;#P outlet 41 103 15 0;#P inlet 41 15 15 0;#P connect 4 0 3 0;#P connect 3 0 2 0;#P connect 2 0 1 0;#P connect 0 0 4 0;#P pop;#P hidden newobj 351 100 14 196617 p;#P bpatcher 153 33 100 12 0 0 jcom.textslider.mxt 1 0. 0. 1. @size 100 12 @text 1st order refl.;#P bpatcher 153 20 100 13 0 0 jcom.textslider.mxt 1 0. 0. 1. @size 100 12 @text direct sound @frgb;#P user ubumenu 106 24 22 196617 0 0 1 0;#X setrgb 181 181 181 25 25 25 50 50 50 4 4 4 141 141 141 112 112 112;#X add 1;#X add 2;#X add 3;#X add 4;#X add 5;#X add 6;#X add 7;#X add 8;#X add 9;#X add 10;#X add 11;#X add 12;#X add 13;#X add 14;#X add 15;#X add 16;#X add 17;#X add 18;#X add 19;#X add 20;#X add 21;#X add 22;#X add 23;#X add 24;#X prefix_set 0 0 <none> 0;#P objectname mics;#P window linecount 2;#P hidden newex 614 315 377 196617 jcom.parameter microphones/amount @type msg_int @range 1 32 @repetitions 0 @clipmode low @priority 2 @description "Number of used virtual microphones";#P objectname microphones/amount;#P window linecount 1;#P hidden newex 614 275 64 196617 pvar mics 2;#P comment 5 26 34 196617 setup:;#B frgb 149 149 149;#P hidden newex 157 254 221 196617 jcom.oscroute /open_inspector /audio/meters;#P hidden newex 157 302 44 196617 pcontrol;#P hidden outlet 133 626 15 0;#P hidden newex 133 532 430 196617 jcom.multi.in~;#P hidden newex 606 388 63 196617 pvar report;#P toggle 122 3 13 0;#P objectname report;#P window linecount 2;#P hidden newex 606 408 288 196617 jcom.parameter report @type msg_int @range 0 1 @clipmode both @description "report changes inside the vimic module";#P objectname report[1];#P hidden newex 524 47 262 196617 jcom.parameter.gain reflections/1st/gain @repetitions 0 @description "gain of the early reflections 1st order";#P objectname reflections/gain;#P hidden newex 521 7 236 196617 jcom.parameter.gain direct/gain @repetitions 0 @description "gain of the direct sound component";#P objectname direct/gain;#P window linecount 1;#P hidden newex 439 179 144 196617 jcom.list2parameter 3;#P hidden newex 553 203 54 196617 pvar posZ;#P hidden newex 496 203 55 196617 pvar posY;#P hidden newex 439 204 55 196617 pvar posX;#P window linecount 2;#P hidden newex 654 177 349 196617 jcom.parameter.spatdif source/position/absolute @ramp/drive scheduler @description "Sourceposition in the virtual room - spatDIF compliant";#P objectname source/position/absolute;#P flonum 127 42 26 9 0. 25. 8227 3 181 181 181 221 221 221 255 255 255 0 0 0;#P objectname posD;#P flonum 101 42 27 9 0 90. 8226 3 181 181 181 221 221 221 255 255 255 0 0 0;#P objectname posE;#P flonum 69 42 33 9 -180. 180. 8227 3 181 181 181 221 221 221 255 255 255 0 0 0;#P objectname posA;#P window linecount 1;#P hidden newex 393 309 47 196617 pcontrol;#P message 105 81 191 196617 /preset/store 1 default \, /preset/write;#B color 3;#P hidden newex 134 448 339 196617 jcom.out~ 25;#P hidden newex 133 232 58 196617 jcom.in~ 1;#P message 113 103 125 196617 /documentation/generate;#B color 3;#P window linecount 2;#P message 113 176 65 196617 \; max refresh;#P newex 15 137 323 196617 jcom.hub jmod.sur.vimic~ @inspector 1 @size 1U-half @module_type audio.ambisonic @description "Virtual Microphone Control (ViMiC)";#P objectname jcom.hub;#P window linecount 1;#P comment 29 104 79 196617 command input;#P inlet 15 104 13 0;#P message 244 103 31 196617 /init;#P hidden inlet 133 213 13 0;#P comment -1 44 75 196617 Position A/E/D;#B frgb 149 149 149;#P hidden newex 133 359 313 196617 jalg.sur.vimic_8_1~.mxt;#P outlet 15 180 13 0;#P hidden comment 92 655 101 196617 multicable output;#P user hint 130 24 149 40 "order of early reflections" 4000 1000 0 65535 65535 52428 9 3 0 1 0 0 0;#P user hint 106 25 125 41 "number of microphones" 4000 1000 0 65535 65535 52428 9 3 0 1 0 0 0;#P hidden user hint 501 258 545 276 "ViMiC render type" 4000 1000 0 65535 65535 52428 9 3 0 1 0 0 0;#P bpatcher 0 0 256 60 0 0 jcom.gui.mxt 0 $0_;#P objectname jmod.gui.1Uh.a.stereo.mxt;#P fasten 17 0 12 0 110 124 20 124;#P connect 10 0 12 0;#P fasten 14 0 12 0 118 124 20 124;#P fasten 9 0 12 0 249 125 20 125;#P hidden fasten 52 0 12 0 162 354 6 354 6 127 20 127;#P connect 12 0 5 0;#P hidden connect 8 0 15 0;#P hidden connect 15 0 6 0;#P hidden connect 16 1 32 0;#P hidden connect 32 0 33 0;#P lcolor 6;#P hidden connect 16 2 32 1;#P hidden connect 6 0 16 1;#P hidden connect 44 0 40 0;#P hidden connect 62 0 40 0;#P hidden connect 44 0 41 0;#P hidden connect 60 0 41 0;#P hidden connect 44 0 77 0;#P hidden connect 80 0 77 0;#P hidden connect 15 1 35 0;#P hidden connect 35 0 58 0;#P hidden connect 58 0 34 0;#P hidden connect 34 0 52 0;#P hidden connect 16 3 32 2;#P hidden connect 6 1 16 2;#P hidden connect 16 4 32 3;#P hidden connect 6 2 16 3;#P hidden fasten 32 0 52 1 138 577 22 577 22 328 190 328;#P lcolor 6;#P hidden connect 16 5 32 4;#P hidden connect 6 3 16 4;#P hidden connect 16 6 32 5;#P hidden connect 6 4 16 5;#P hidden connect 16 7 32 6;#P hidden connect 6 5 16 6;#P hidden fasten 35 1 52 2 267 302 218 302;#P hidden connect 16 8 32 7;#P hidden connect 6 6 16 7;#P hidden connect 16 9 32 8;#P hidden connect 6 7 16 8;#P hidden connect 16 10 32 9;#P hidden connect 6 8 16 9;#P hidden connect 16 11 32 10;#P hidden connect 6 9 16 10;#P hidden connect 16 12 32 11;#P hidden connect 6 10 16 11;#P hidden connect 16 13 32 12;#P hidden connect 6 11 16 12;#P hidden fasten 35 2 57 0 372 277 303 277;#P hidden connect 16 14 32 13;#P hidden connect 6 12 16 13;#P hidden connect 16 15 32 14;#P hidden connect 6 13 16 14;#P hidden connect 16 16 32 15;#P hidden connect 6 14 16 15;#P hidden connect 16 17 32 16;#P hidden connect 6 15 16 16;#P connect 44 0 42 0;#P hidden connect 42 0 43 0;#P hidden connect 16 18 32 17;#P hidden connect 6 16 16 17;#P hidden connect 16 19 32 18;#P hidden connect 6 17 16 18;#P hidden connect 16 20 32 19;#P hidden connect 6 18 16 19;#P hidden connect 57 1 18 0;#P hidden connect 16 21 32 20;#P hidden connect 6 19 16 20;#P hidden connect 16 22 32 21;#P hidden connect 6 20 16 21;#P hidden connect 16 23 32 22;#P hidden connect 6 21 16 22;#P hidden connect 16 24 32 23;#P hidden connect 6 22 16 23;#P hidden fasten 18 0 6 1 398 338 441 338;#P hidden fasten 57 0 6 1 303 338 441 338;#P hidden fasten 23 0 26 0 444 225 436 225 436 175 444 175;#P hidden connect 26 0 23 0;#P hidden connect 6 23 16 24;#P hidden connect 40 0 61 0;#P hidden fasten 24 0 26 1 501 228 433 228 433 172 457 172;#P hidden connect 41 0 59 0;#P hidden connect 77 0 79 0;#P hidden connect 78 0 80 0;#P hidden fasten 25 0 26 2 558 231 430 231 430 169 470 169;#P hidden connect 27 0 62 0;#P hidden connect 28 0 60 0;#P hidden connect 26 1 24 0;#P hidden connect 61 0 27 0;#P hidden connect 59 0 28 0;#P hidden connect 79 0 78 0;#P hidden connect 50 0 51 0;#P hidden connect 26 2 25 0;#P hidden connect 75 0 73 0;#P hidden connect 76 0 74 0;#P hidden connect 71 0 72 0;#P hidden fasten 29 0 31 0 611 441 601 441 601 383 611 383;#P hidden connect 31 0 29 0;#P hidden fasten 54 0 55 0 690 527 606 527 606 495 615 495;#P hidden connect 51 0 37 0;#P hidden connect 37 0 49 0;#P hidden connect 49 0 38 0;#P hidden connect 38 0 48 0;#P hidden fasten 46 0 47 0 727 480 608 480 608 445 619 445;#P hidden connect 48 0 50 0;#P hidden fasten 64 0 22 0 659 238 652 238 652 171 659 171;#P hidden connect 22 0 64 0;#P hidden connect 72 0 71 0;#P hidden connect 73 0 75 0;#P hidden connect 74 0 76 0;#P hidden connect 55 1 54 0;#P hidden connect 47 1 46 0;#P hidden connect 22 1 65 0;#P hidden fasten 65 0 22 1 753 248 648 248 648 167 722 167;#P hidden connect 22 2 66 0;#P hidden fasten 66 0 22 2 847 256 642 256 642 160 785 160;#P pop;