max v2;#N vpatcher 163 44 1250 796;#P origin 0 -474;#P window setfont "Sans Serif" 9.;#N vpatcher 10 59 610 459;#P window setfont "Sans Serif" 9.;#P newex 50 50 51 196617 route set;#P newex 51 71 68 196617 jcom.miditoa;#P inlet 50 30 15 0;#P outlet 51 93 15 0;#P connect 1 0 3 0;#P connect 3 0 2 0;#P connect 2 0 0 0;#P pop;#P hidden newobj 456 104 48 196617 p midi2a;#P hidden newex 456 84 68 196617 jcom.atomidi;#P window linecount 2;#P hidden newex 526 83 263 196617 jcom.parameter.gain reflections/2nd/gain @repetitions 0 @description "gain of the early reflections 2nd order";#P objectname reflections/gain[1];#P bpatcher 153 46 100 12 0 0 jcom.textslider.mxt 1 0. 0. 1. @size 100 12 @text 2nd order refl.;#P hidden newex 671 676 332 196617 jcom.parameter source/orientation/elevation @type msg_float @range 0. 90. @description "orientation of the sound source (elevation)";#P objectname source/orientation/elevation;#P window linecount 1;#P hidden newex 590 682 75 196617 pvar source_E;#P objectname pvar_E;#P hidden newex 596 611 70 196617 pvar warning;#P window linecount 2;#P hidden newex 669 605 306 196617 jcom.parameter warning @type msg_int @range 0 1 @clipmode both @description "turn on/off warnings inside the vimic module";#P objectname warning[1];#P user hint 107 3 120 15 "warnings on/off" 2500 1000 0 65535 65535 52428 9 3 0 1 0 0 0;#P user hint 122 3 135 15 "report on/off" 2500 1000 0 65535 65535 52428 9 3 0 1 0 0 0;#P toggle 109 3 13 0;#P objectname warning;#P hidden newex 582 567 229 196617 jcom.message audio/meters/clear @type msg_none @description "clear the audio meters";#P objectname jcom.parameter[2];#P window linecount 1;#P hidden newex 842 216 55 196617 pvar posD;#P hidden newex 748 216 54 196617 pvar posE;#P hidden newex 654 216 56 196617 pvar posA;#P hidden newex 584 537 378 196617 jcom.message update @type msg_none @description "update from external clock";#P objectname jcom.parameter[1];#N vpatcher 10 59 610 459;#P window setfont "Sans Serif" 9.;#P newex 50 50 51 196617 route set;#P newex 51 71 68 196617 jcom.miditoa;#P inlet 50 30 15 0;#P outlet 51 93 15 0;#P connect 1 0 3 0;#P connect 3 0 2 0;#P connect 2 0 0 0;#P pop;#P hidden newobj 470 25 48 196617 p midi2a;#P hidden newex 449 6 68 196617 jcom.atomidi;#N vpatcher 10 59 610 459;#P window setfont "Sans Serif" 9.;#P newex 50 50 51 196617 route set;#P newex 51 71 68 196617 jcom.miditoa;#P inlet 50 30 15 0;#P outlet 51 93 15 0;#P connect 1 0 3 0;#P connect 3 0 2 0;#P connect 2 0 0 0;#P pop;#P hidden newobj 470 63 48 196617 p midi2a;#P hidden newex 453 45 68 196617 jcom.atomidi;#P hidden message 157 284 30 196617 open;#N vpatcher 605 157 1205 557;#P origin -71 0;#P window setfont "Sans Serif" 9.;#P window linecount 0;#P message -8 168 90 196617 /rendermode mute;#P newex 79 129 41 196617 sel 1 0;#P message 84 168 104 196617 /rendermode unmute;#P window linecount 1;#P newex 198 54 134 196617 jcom.oscroute /audio/mute;#P newex 198 81 31 196617 == 0;#P message 198 127 62 196617 enable \$1 1;#P newex 116 54 78 196617 jcom.pass open;#P outlet 84 226 15 0;#P outlet 198 161 15 0;#N comlet Connect to 2nd last outlet of jcom.in~;#P inlet 116 33 15 0;#P connect 8 0 9 0;#P connect 6 0 8 0;#P connect 8 1 7 0;#P fasten 9 0 2 0 -3 190 89 190;#P fasten 6 1 2 0 327 190 89 190;#P connect 7 0 2 0;#P connect 0 0 3 0;#P connect 3 1 6 0;#P connect 6 0 5 0;#P connect 5 0 4 0;#P connect 3 0 1 0;#P connect 4 0 1 0;#P pop;#P hidden newobj 298 283 105 196617 p algorithm_control~;#P user hint 43 26 103 40 "ViMiC render method" 2500 1000 0 65535 65535 52428 9 3 0 1 0 0 0;#P hidden newex 610 501 68 196617 pvar order 2;#P window linecount 2;#P hidden newex 685 494 349 196617 jcom.parameter reflections/order @type msg_int @range 0 2 @repetitions 0 @priority 1 @clipmode both @description "order of early reflections";#P objectname reflections/order;#P user ubumenu 128 24 22 196617 0 0 1 0;#X setrgb 181 181 181 25 25 25 50 50 50 4 4 4 141 141 141 112 112 112;#X add 0;#X add 1;#X add 2;#X prefix_set 0 0 <none> 0;#P objectname order;#P window linecount 1;#N vpatcher 528 45 1062 761;#P origin 23 -1;#P outlet 305 819 15 0;#P window setfont "Sans Serif" 9.;#P window linecount 0;#P newex 328 817 32 196617 print;#P newex 305 760 47 196617 pcontrol;#N vpatcher 379 378 669 572;#P origin 107 43;#P window setfont "Sans Serif" 9.;#P message 6 19 35 196617 write;#P window linecount 0;#N thispatcher;#Q window flags nogrow close zoom nofloat;#Q window size 379 378 669 572;#Q window title;#Q window exec;#Q savewindow 1;#Q end;#P newobj 354 181 61 196617 thispatcher;#P window linecount 1;#P hidden message 259 128 273 196617 window flags nogrow \, savewindow 1 \, window exec;#P hidden message 258 154 262 196617 window flags grow \, window exec;#P window linecount 0;#N vpatcher 10 59 610 459;#P window setfont "Sans Serif" 9.;#P newex 131 94 53 196617 * 1000.;#P newex 91 71 50 196617 t b f;#P newex 91 119 27 196617 i;#P newex 91 140 50 196617 pack 0 0.;#P newex 50 50 51 196617 zl slice 1;#P inlet 108 99 15 0;#P inlet 50 30 15 0;#P outlet 91 162 15 0;#P connect 1 0 3 0;#P connect 3 1 6 0;#P connect 6 0 5 0;#P connect 5 0 4 0;#P connect 4 0 0 0;#P connect 2 0 5 1;#P connect 6 1 7 0;#P connect 7 0 4 1;#P pop;#P newobj 38 204 40 196617 p stuff;#P window linecount 1;#N vpatcher 50 119 650 519;#P origin 81 32;#P window setfont "Sans Serif" 9.;#P window linecount 0;#P message 12 28 81 196617 name Clarinette;#P message 488 -59 33 196617 clear;#P newex 12 -84 40 196617 t b b b;#P outlet 106 146 15 0;#P window linecount 36;#P message 156 -50 71 196617 0 1 \, 10 0.9661 \, 20 0.8511 \, 30 0.6237 \, 40 0.4842 \, 50 0.3758 \, 60 0.257 \, 70 0.2512 \, 80 0.2818 \, 90 0.3162 \, 100 0.3631 \, 110 0.3758 \, 120 0.4315 \, 130 0.4842 \, 140 0.5248 \, 150 0.5012 \, 160 0.5309 \, 170 0.537 \, 180 0.5623 \, 190 0.537 \, 200 0.5309 \, 210 0.5012 \, 220 0.5248 \, 230 0.4842 \, 240 0.4315 \, 250 0.3758 \, 260 0.3631 \, 270 0.3162 \, 280 0.2818 \, 290 0.2512 \, 300 0.257 \, 310 0.3758 \, 320 0.4842 \, 330 0.6237 \, 340 0.8511 \, 350 0.9661;#P inlet 39 -127 15 0;#P connect 0 0 3 0;#P connect 3 0 5 0;#P connect 1 0 2 0;#P fasten 4 0 2 0 493 33 111 33;#P connect 5 0 2 0;#P connect 3 1 1 0;#P fasten 3 2 4 0 47 -63 493 -63;#P pop;#P hidden newobj 380 78 37 196617 p data;#N vpatcher 50 119 650 519;#P origin 81 -57;#P window setfont "Sans Serif" 9.;#P window linecount 0;#P message 12 117 74 196617 name Trumpet;#P message 488 30 33 196617 clear;#P newex 12 5 40 196617 t b b b;#P outlet 106 235 15 0;#P window linecount 36;#P message 156 39 75 196617 0 1 \, 10 0.9661 \, 20 0.955 \, 30 0.881 \, 40 0.8318 \, 50 0.7943 \, 60 0.7586 \, 70 0.6839 \, 80 0.6166 \, 90 0.6026 \, 100 0.5754 \, 110 0.5559 \, 120 0.5248 \, 130 0.507 \, 140 0.4624 \, 150 0.4519 \, 160 0.4217 \, 170 0.4169 \, 180 0.3846 \, 190 0.4169 \, 200 0.4217 \, 210 0.4519 \, 220 0.4624 \, 230 0.507 \, 240 0.5248 \, 250 0.5559 \, 260 0.5754 \, 270 0.6026 \, 280 0.6166 \, 290 0.6839 \, 300 0.7586 \, 310 0.7943 \, 320 0.8318 \, 330 0.881 \, 340 0.955 \, 350 0.9661;#P inlet 39 -38 15 0;#P connect 0 0 3 0;#P connect 3 0 5 0;#P connect 5 0 2 0;#P fasten 4 0 2 0 493 122 111 122;#P connect 1 0 2 0;#P connect 3 1 1 0;#P fasten 3 2 4 0 47 26 493 26;#P pop;#P hidden newobj 331 77 37 196617 p data;#N vpatcher 50 119 650 519;#P outlet 164 180 15 0;#P inlet 166 71 15 0;#P connect 0 0 1 0;#P pop;#P hidden newobj 275 98 37 196617 p thru;#N vpatcher 476 204 1076 604;#P origin 81 -117;#P window setfont "Sans Serif" 9.;#P window linecount 0;#P message 12 177 80 196617 name Trombone;#P message 488 90 33 196617 clear;#P newex 12 65 40 196617 t b b b;#P outlet 106 295 15 0;#P window linecount 36;#P message 161 100 71 196617 0 1 \, 10 0.9661 \, 20 0.955 \, 30 0.8222 \, 40 0.7674 \, 50 0.6998 \, 60 0.5623 \, 70 0.4842 \, 80 0.389 \, 90 0.3162 \, 100 0.302 \, 110 0.2818 \, 120 0.2692 \, 130 0.26 \, 140 0.2399 \, 150 0.2317 \, 160 0.2138 \, 170 0.1905 \, 180 0.1778 \, 190 0.1905 \, 200 0.2138 \, 210 0.2317 \, 220 0.2399 \, 230 0.26 \, 240 0.2692 \, 250 0.2818 \, 260 0.302 \, 270 0.3162 \, 280 0.389 \, 290 0.4842 \, 300 0.5623 \, 310 0.6998 \, 320 0.7674 \, 330 0.8222 \, 340 0.955 \, 350 0.9661;#P inlet 39 22 15 0;#P connect 0 0 3 0;#P connect 3 0 5 0;#P connect 1 0 2 0;#P fasten 4 0 2 0 493 182 111 182;#P connect 5 0 2 0;#P connect 3 1 1 0;#P fasten 3 2 4 0 47 86 493 86;#P pop;#P hidden newobj 275 77 37 196617 p data;#P hidden newex 276 56 168 196617 select trombone trumpet clarinette;#P user ubumenu 152 19 100 196617 0 1 1 0;#X add ---;#X add trombone;#X add trumpet;#X add clarinette;#X prefix_set 0 0 <none> 0;#P newex 223 240 169 196617 prepend /source/directivity/create;#P message 43 19 39 196617 create;#P message 117 19 33 196617 clear;#P message 84 19 30 196617 read;#P user jsui 38 39 215 133 1 0 0 ej.function.js;#J statemessage CreateNFunctions 2 Trombone 50 0. 1. 0. 359. nan nan 0.7943 nan;#J statemessage legend 0;#J statemessage grid 0;#J statemessage snap2grid 0;#J statemessage hiddenpoint 0;#J statemessage clickadd 1;#J statemessage clickmove 1;#J statemessage autosustain 0;#J statemessage timedisplay 0;#J statemessage autocursor 1;#J statemessage bordersync 0;#J statemessage ghost 20;#J statemessage notifyrecalled 0;#J statemessage mousereport 1;#J statemessage numcurvepoints 12;#J statemessage movemode 0;#J statemessage mode 1;#J statemessage SetColor 0 brgb 204 204 204;#J statemessage SetColor 0 frgb 82 82 82;#J statemessage SetColor 0 rgb2 84 84 84;#J statemessage SetColor 0 rgb3 255 0 0;#J statemessage SetColor 0 rgb4 51 51 51;#J statemessage SetColor 0 rgb5 128 128 128;#J statemessage SetColor 0 rgb6 107 107 107;#J statemessage SetColor 1 brgb 204 204 204;#J statemessage SetColor 1 frgb 82 82 82;#J statemessage SetColor 1 rgb2 107 107 107;#J statemessage SetColor 1 rgb3 255 0 0;#J statemessage SetColor 1 rgb4 51 51 51;#J statemessage SetColor 1 rgb5 128 128 128;#J statemessage SetColor 1 rgb6 107 107 107;#J statemessage fsaa 1;#J statemessage redrawon;#P objectname ej.lui-311017;#P message -13 302 205 196617 /source/directivity/store $0-directivity;#P newex 223 259 62 196617 prepend set;#P newex 223 221 121 196617 loadmess $0-directivity;#N vtable 359 50 119 489 454 204 1000 $0-directivity;#P newobj 79 263 102 196617 table $0-directivity;#P inlet -66 -11 15 0;#P outlet -13 324 15 0;#P hidden newex 320 317 88 196617 bgcolor 80 80 80;#P newex -13 237 44 196617 del 100;#P button -30 148 15 0;#P newex -30 168 44 196617 uzi 359;#P hidden connect 13 0 1 0;#P connect 1 0 0 0;#P connect 0 1 2 0;#P fasten 8 0 9 0 228 289 -8 289;#P connect 2 0 9 0;#P connect 9 0 4 0;#P fasten 25 0 10 0 11 36 43 36;#P hidden fasten 0 2 10 0 9 190 20 190 20 6 43 6;#P fasten 11 0 10 0 89 36 43 36;#P fasten 12 0 10 0 122 36 43 36;#P hidden fasten 18 0 10 0 280 123 257 123 257 14 43 14;#P connect 10 0 21 0;#P connect 0 2 21 1;#P connect 21 0 6 0;#P connect 7 0 14 0;#P connect 14 0 8 0;#P hidden connect 16 0 17 0;#P hidden connect 17 0 18 0;#P hidden connect 19 0 18 0;#P hidden connect 20 0 18 0;#P hidden fasten 15 1 16 0 202 36 281 36;#P hidden connect 16 1 19 0;#P hidden connect 22 0 24 0;#P hidden connect 23 0 24 0;#P hidden connect 16 2 20 0;#P pop;#P newobj 305 782 110 196617 p "source directivity";#P user jsui 4 1 52 19 1 0 0 jsui_textbutton.js "Get Info" 225 225 225 68 68 68;#P objectname allreport;#P user jsui 359 667 52 18 1 0 0 jsui_textbutton.js directivity 225 225 225 68 68 68;#P hidden message 307 740 30 196617 open;#P window linecount 1;#P hidden newex 562 579 90 196617 pvar orientationA;#P window setfont "Sans Serif" 10.;#P comment 299 636 104 196618 Source orientation;#B frgb 149 149 149;#P window setfont "Sans Serif" 9.;#P number 308 696 32 9 0 0 8224 3 181 181 181 221 221 221 222 222 222 0 0 0;#P objectname orientationA;#N vpatcher 540 187 1140 587;#P window setfont "Sans Serif" 9.;#P newex 50 70 31 196617 % 1.;#P newex 50 50 120 196617 expr ($i1 + 180) / 360.;#P inlet 50 30 15 0;#P outlet 50 92 15 0;#P connect 1 0 2 0;#P connect 2 0 3 0;#P connect 3 0 0 0;#P pop;#P hidden newobj 562 600 53 196617 p convert;#N vpatcher 10 59 610 459;#P outlet 179 108 15 0;#P window setfont "Sans Serif" 9.;#P newex 50 50 119 196617 expr $f1 * 360. - 180;#P newex 50 71 62 196617 prepend set;#P inlet 50 30 15 0;#P outlet 50 93 15 0;#P connect 1 0 3 0;#P connect 3 0 2 0;#P connect 2 0 0 0;#P connect 3 0 4 0;#P pop;#P hidden newobj 562 558 53 196617 p convert;#P user jsui 299 651 45 45 1 0 0 jsui_360dial.js;#P window linecount 4;#P hidden newex 672 574 200 196617 jcom.parameter source/orientation/azimuth @type msg_int @range -180 180 @clipmode both @description "orientation of the sound source (azimuth)";#P objectname source/orientation/azimuth;#P window linecount 0;#P newex 361 897 61 196617 delay 1000;#P newex 356 877 50 196617 deferlow;#P newex 355 856 48 196617 loadbang;#N vpatcher 20 74 620 474;#P button 203 217 15 0;#P window setfont "Sans Serif" 9.;#P window linecount 0;#P newex 203 235 98 196617 loadmess separator;#P inlet 143 50 15 0;#P newex 142 94 246 196617 t b f;#P button 114 133 15 0;#P window linecount 1;#P newex 103 158 40 196617 uzi 24;#P newex 103 285 285 196617 zl join;#P newex 103 217 95 196617 append /position/z;#P newex 103 195 110 196617 prepend microphones/;#P newex 103 262 51 196617 tosymbol;#P outlet 103 333 15 0;#P connect 6 0 5 0;#P connect 5 2 2 0;#P connect 2 0 3 0;#P connect 3 0 1 0;#P fasten 9 0 1 0 208 257 108 257;#P connect 1 0 4 0;#P connect 4 0 0 0;#P connect 7 0 6 0;#P connect 8 0 7 0;#P connect 10 0 9 0;#P connect 7 1 4 1;#P pop;#P newobj 56 997 48 196617 p all_ele;#P newex 243 937 62 196617 prepend set;#P window linecount 1;#N vpatcher 676 279 1276 679;#P window setfont "Sans Serif" 9.;#P window linecount 1;#P message 314 103 31 196617 0.33;#P message 371 102 23 196617 0.3;#P message 200 102 23 196617 0.7;#P message 257 102 23 196617 0.5;#P message 428 102 17 196617 0.;#P window linecount 0;#P message 143 102 23 196617 1.;#P newex 143 65 352 196617 route omni subcardioid cardioid supercardioid hypercardioid figure-eight;#P outlet 143 270 15 0;#P inlet 143 40 15 0;#P comment 292 215 227 196617 the definition of super- and hyper-cardioid vary from company to company;#P connect 1 0 3 0;#P connect 3 0 4 0;#P connect 4 0 2 0;#P connect 7 0 2 0;#P connect 6 0 2 0;#P connect 8 0 2 0;#P connect 5 0 2 0;#P connect 9 0 2 0;#P connect 3 1 7 0;#P connect 3 2 6 0;#P connect 3 3 9 0;#P connect 3 4 8 0;#P connect 3 5 5 0;#P pop;#P newobj 243 915 73 196617 p mic-presets;#P objectname mic-preset;#P hidden button 550 485 15 0;#P window linecount 0;#N vpatcher 749 58 1349 458;#P outlet 123 260 15 0;#P inlet 211 54 15 0;#P window setfont "Sans Serif" 9.;#P hidden message 375 121 64 196617 rgb2 66 0 2;#P hidden message 27 117 94 196617 rgb2 164 153 128;#P hidden message 253 117 92 196617 frgb 181 181 181;#P hidden message 137 120 93 196617 brgb 100 100 100;#P outlet 387 261 15 0;#P connect 5 0 3 0;#P connect 1 0 6 0;#P connect 3 0 6 0;#P connect 2 0 6 0;#P connect 5 0 1 0;#P connect 5 0 2 0;#P connect 5 0 4 0;#P connect 2 0 0 0;#P connect 1 0 0 0;#P connect 4 0 0 0;#P pop;#P hidden newobj 565 509 46 196617 p colors;#P hidden newex 567 460 48 196617 loadbang;#P hidden newex 568 481 50 196617 deferlow;#N vpatcher 20 74 620 474;#P window setfont "Sans Serif" 9.;#P window linecount 0;#P message 265 78 14 196617 1;#P inlet 269 49 15 0;#P window linecount 1;#P newex 104 133 47 196617 gate 0 0;#P window linecount 0;#P newex 160 114 62 196617 prepend set;#P button 180 236 15 0;#P window linecount 1;#P newex 196 235 98 196617 loadmess separator;#P inlet 143 50 15 0;#P window linecount 0;#P newex 142 94 29 196617 t b f;#P window linecount 1;#P newex 103 158 40 196617 uzi 24;#P message 306 194 42 196617 0.;#P newex 103 285 38 196617 zl join;#P newex 103 212 126 196617 append /directivity/ratio;#P newex 103 190 110 196617 prepend microphones/;#P newex 103 262 51 196617 tosymbol;#P outlet 103 333 15 0;#P connect 12 0 6 0;#P connect 6 2 2 0;#P connect 2 0 3 0;#P connect 3 0 1 0;#P fasten 9 0 1 0 201 257 108 257;#P connect 1 0 4 0;#P connect 4 0 0 0;#P connect 14 0 12 0;#P fasten 5 0 4 1 311 281 136 281;#P connect 7 0 12 1;#P connect 8 0 7 0;#P connect 7 1 11 0;#P connect 10 0 9 0;#P connect 13 0 14 0;#P connect 11 0 5 0;#P connect 6 2 5 0;#P pop;#P newobj 246 865 49 196617 p all_Dir;#N vpatcher 20 74 620 474;#P button 180 236 15 0;#P window setfont "Sans Serif" 9.;#P window linecount 0;#P newex 196 235 98 196617 loadmess separator;#P inlet 143 50 15 0;#P newex 142 94 286 196617 t b s;#P button 114 133 15 0;#P window linecount 1;#P newex 103 158 40 196617 uzi 24;#P newex 103 285 325 196617 zl join;#P newex 103 212 133 196617 append /directivity/preset;#P newex 103 190 110 196617 prepend microphones/;#P newex 103 262 51 196617 tosymbol;#P outlet 103 333 15 0;#P connect 6 0 5 0;#P connect 5 2 2 0;#P connect 2 0 3 0;#P connect 3 0 1 0;#P fasten 9 0 1 0 201 257 108 257;#P connect 1 0 4 0;#P connect 4 0 0 0;#P connect 7 0 6 0;#P connect 8 0 7 0;#P connect 10 0 9 0;#P connect 7 1 4 1;#P pop;#P newobj 242 967 78 196617 p all_Dir_menu;#P newex 243 890 104 196617 pvar All_dir_menu 2;#N vpatcher 20 74 620 474;#P inlet 248 45 15 0;#P window setfont "Sans Serif" 9.;#P window linecount 0;#P message 54 128 14 196617 1;#P newex 103 136 47 196617 gate 0 0;#P newex 143 72 68 196617 jcom.atomidi;#P button 196 217 15 0;#P newex 196 235 98 196617 loadmess separator;#P inlet 143 50 15 0;#P newex 142 94 233 196617 t b f;#P window linecount 1;#P newex 103 158 40 196617 uzi 24;#P newex 103 285 272 196617 zl join;#P newex 103 217 92 196617 append /gain/midi;#P newex 103 195 110 196617 prepend microphones/;#P newex 103 262 51 196617 tosymbol;#P outlet 103 333 15 0;#P connect 13 0 12 0;#P connect 12 0 11 0;#P connect 11 0 5 0;#P connect 5 2 2 0;#P connect 2 0 3 0;#P connect 3 0 1 0;#P fasten 8 0 1 0 201 257 108 257;#P connect 1 0 4 0;#P connect 4 0 0 0;#P connect 6 0 11 1;#P connect 10 0 6 0;#P connect 7 0 10 0;#P connect 9 0 8 0;#P connect 6 1 4 1;#P pop;#P newobj 374 935 75 196617 p all_gain_mic;#P outlet 117 998 15 0;#P newex 38 977 58 196617 pvar All_Z;#P newex 28 954 59 196617 pvar All_Y;#P newex 21 936 59 196617 pvar All_X;#P newex 158 934 60 196617 pvar All_A;#N vpatcher 20 74 620 474;#P button 196 217 15 0;#P window setfont "Sans Serif" 9.;#P window linecount 0;#P newex 196 235 98 196617 loadmess separator;#P inlet 143 50 15 0;#P newex 142 94 178 196617 t b f;#P button 114 133 15 0;#P window linecount 1;#P newex 103 158 40 196617 uzi 24;#P newex 103 285 217 196617 zl join;#P window linecount 3;#P newex 103 217 86 196617 append /orientation/azimuthal;#P window linecount 1;#P newex 103 195 110 196617 prepend microphones/;#P newex 103 262 51 196617 tosymbol;#P outlet 103 333 15 0;#P connect 6 0 5 0;#P connect 5 2 2 0;#P connect 2 0 3 0;#P connect 3 0 1 0;#P fasten 9 0 1 0 201 257 108 257;#P connect 1 0 4 0;#P connect 4 0 0 0;#P connect 7 0 6 0;#P connect 8 0 7 0;#P connect 10 0 9 0;#P connect 7 1 4 1;#P pop;#P newobj 158 955 48 196617 p all_azi;#P newex 98 934 58 196617 pvar All_E;#N vpatcher 20 74 620 474;#P button 196 217 15 0;#P window setfont "Sans Serif" 9.;#P window linecount 0;#P newex 196 235 98 196617 loadmess separator;#P inlet 143 50 15 0;#P newex 142 94 246 196617 t b f;#P button 114 133 15 0;#P window linecount 1;#P newex 103 158 40 196617 uzi 24;#P newex 103 285 285 196617 zl join;#P window linecount 3;#P newex 103 217 88 196617 append /orientation/elevation;#P window linecount 1;#P newex 103 195 110 196617 prepend microphones/;#P newex 103 262 51 196617 tosymbol;#P outlet 103 333 15 0;#P connect 6 0 5 0;#P connect 5 2 2 0;#P connect 2 0 3 0;#P connect 3 0 1 0;#P fasten 9 0 1 0 201 257 108 257;#P connect 1 0 4 0;#P connect 4 0 0 0;#P connect 7 0 6 0;#P connect 8 0 7 0;#P connect 10 0 9 0;#P connect 7 1 4 1;#P pop;#P newobj 98 955 48 196617 p all_ele;#P user ubumenu 335 463 71 196617 0 0 1 0;#X setrgb 181 181 181 25 25 25 50 50 50 4 4 4 141 141 141 112 112 112;#X add ---;#X add omni;#X add subcardioid;#X add cardioid;#X add supercardioid;#X add hypercardioid;#X add figure-eight;#X prefix_set 0 0 <none> 0;#P objectname All_dir_menu;#P window setfont "Sans Serif" 12.;#P window linecount 1;#P comment 405 463 13 196620 ||;#B frgb 198 0 65;#P bpatcher 418 465 36 13 0 0 jcom.numberslider.mxt 0 0. 0. 1. @size 40 14;#P objectname All_gain_mic;#P window setfont "Sans Serif" 9.;#P flonum 170 463 35 9 -20. 20. 8227 3 198 198 198 221 221 221 222 222 222 0 0 0;#P objectname All_Z;#P flonum 134 463 35 9 0 0 8224 3 198 198 198 221 221 221 222 222 222 0 0 0;#P objectname All_Y;#P bpatcher 298 465 36 13 0 0 jcom.numberslider.mxt 0 0. 0. 1. @size 40 14 @frgb 181 181 181;#P objectname All_dir;#P window setfont "Sans Serif" 12.;#P comment 282 463 13 196620 ||;#B frgb 198 0 65;#P window setfont "Sans Serif" 9.;#P flonum 251 463 32 9 -90. 90. 8227 3 198 198 198 221 221 221 222 222 222 0 0 0;#P objectname All_E;#P flonum 218 463 33 9 -180. 0 8225 3 198 198 198 221 221 221 222 222 222 0 0 0;#P objectname All_A;#P window setfont "Sans Serif" 12.;#P comment 205 463 13 196620 ||;#B frgb 198 0 65;#P window setfont "Sans Serif" 9.;#P flonum 98 463 35 9 0 0 8224 3 198 198 198 221 221 221 222 222 222 0 0 0;#P objectname All_X;#P comment 36 465 52 196617 quick pick;#B frgb 149 149 149;#P bpatcher 3 446 523 17 0 0 jcom.sur.vimic_mic.mxt 0 24;#P objectname jcom.sur.vimic_mic.mxt[16];#P bpatcher 3 429 523 17 0 0 jcom.sur.vimic_mic.mxt 0 23;#P objectname jcom.sur.vimic_mic.mxt[17];#P bpatcher 3 412 523 17 0 0 jcom.sur.vimic_mic.mxt 0 22;#P objectname jcom.sur.vimic_mic.mxt[18];#P bpatcher 3 395 523 17 0 0 jcom.sur.vimic_mic.mxt 0 21;#P objectname jcom.sur.vimic_mic.mxt[19];#P bpatcher 3 378 523 17 0 0 jcom.sur.vimic_mic.mxt 0 20;#P objectname jcom.sur.vimic_mic.mxt[20];#P bpatcher 3 361 523 17 0 0 jcom.sur.vimic_mic.mxt 0 19;#P objectname jcom.sur.vimic_mic.mxt[21];#P bpatcher 3 344 523 17 0 0 jcom.sur.vimic_mic.mxt 0 18;#P objectname jcom.sur.vimic_mic.mxt[22];#P bpatcher 3 327 523 17 0 0 jcom.sur.vimic_mic.mxt 0 17;#P objectname jcom.sur.vimic_mic.mxt[23];#P flonum 399 527 27 9 0. 40. 8227 3 181 181 181 221 221 221 255 255 255 0 0 0;#P objectname dirPow[2];#P flonum 399 513 27 9 0. 40. 8227 3 181 181 181 221 221 221 255 255 255 0 0 0;#P objectname dirPow[1];#P window linecount 0;#P comment 295 530 100 196617 2nd order reflection:;#B frgb 149 149 149;#P comment 296 515 99 196617 1st order reflection:;#B frgb 149 149 149;#P comment 331 500 64 196617 direct sound:;#B frgb 149 149 149;#P flonum 184 527 27 9 0. 40. 8227 3 181 181 181 221 221 221 255 255 255 0 0 0;#P objectname disPow2;#P flonum 184 513 27 9 0. 40. 8227 3 181 181 181 221 221 221 255 255 255 0 0 0;#P objectname disPow1;#P comment 79 529 100 196617 2nd order reflection:;#B frgb 149 149 149;#P comment 80 514 99 196617 1st order reflection:;#B frgb 149 149 149;#P comment 115 500 64 196617 direct sound:;#B frgb 149 149 149;#P comment 456 484 58 196617 Temp [¼C]:;#B frgb 149 149 149;#P flonum 512 483 28 9 -20. 40. 8227 3 181 181 181 221 221 221 255 255 255 0 0 0;#P objectname temp;#P window linecount 3;#P newex 647 689 292 196617 jcom.parameter temperature @type msg_float @repetitions 1 @range -20. 30. @clipmode low @description "Temperature in Celsius to calculate the speed of sound";#P objectname temperature;#P window linecount 1;#P newex 589 700 56 196617 pvar temp;#P window linecount 0;#P comment 432 519 82 196617 Renderintervall:;#B frgb 149 149 149;#P number 513 517 28 9 1 0 8225 3 181 181 181 221 221 221 255 255 255 0 0 0;#P objectname Renderintervall;#P hidden newex 437 988 104 196617 pvar Renderintervall;#P window linecount 3;#P newex 547 973 379 196617 jcom.parameter renderintervall @type msg_int @range 1 100 @clipmode low @description "tells ViMiC over how many signalblocks a change in position is interpolated - shorter time leads to faster transition and stronger doppler effect";#P objectname renderintervall;#P window linecount 0;#P comment 296 41 37 196617 ratio;#B frgb 181 181 181;#P comment 435 28 56 196617 Gain;#B frgb 181 181 181;#P user ubumenu 238 668 53 196617 0 0 1 0;#X setrgb 181 181 181 25 25 25 50 50 50 4 4 4 141 141 141 112 112 112;#X add ---;#X add zero;#X add full;#X add audience;#X add carpet;#X add brick;#X add sand;#X add metal;#X add trees;#X add grass;#X prefix_set 0 0 <none> 0;#P objectname ceiling_menu;#P user ubumenu 238 651 53 196617 0 0 1 0;#X setrgb 181 181 181 25 25 25 50 50 50 4 4 4 141 141 141 112 112 112;#X add ---;#X add zero;#X add full;#X add audience;#X add carpet;#X add brick;#X add sand;#X add metal;#X add trees;#X add grass;#X prefix_set 0 0 <none> 0;#P objectname floor_menu;#P user ubumenu 238 600 53 196617 0 0 1 0;#X setrgb 181 181 181 25 25 25 50 50 50 4 4 4 141 141 141 112 112 112;#X add ---;#X add zero;#X add full;#X add audience;#X add carpet;#X add brick;#X add sand;#X add metal;#X add trees;#X add grass;#X prefix_set 0 0 <none> 0;#P objectname right_menu;#P user ubumenu 238 583 53 196617 0 0 1 0;#X setrgb 181 181 181 25 25 25 50 50 50 4 4 4 141 141 141 112 112 112;#X add ---;#X add zero;#X add full;#X add audience;#X add carpet;#X add brick;#X add sand;#X add metal;#X add trees;#X add grass;#X prefix_set 0 0 <none> 0;#P objectname left_menu;#P user ubumenu 238 634 53 196617 0 0 1 0;#X setrgb 181 181 181 25 25 25 50 50 50 4 4 4 141 141 141 112 112 112;#X add ---;#X add zero;#X add full;#X add audience;#X add carpet;#X add brick;#X add sand;#X add metal;#X add trees;#X add grass;#X prefix_set 0 0 <none> 0;#P objectname rear_menu;#P newex 1387 620 101 196617 pvar ceiling_menu 2;#P newex 1538 673 82 196617 wall_properties;#P window linecount 2;#P newex 1387 642 312 196617 jcom.message room/absorption/ceiling/preset @type msg_symbol @repetitions 1 @description "absorption presets for the floor";#P objectname room/absorption[5];#P window linecount 1;#P newex 1378 511 94 196617 pvar floor_menu 2;#P newex 1529 564 82 196617 wall_properties;#P window linecount 2;#P newex 1378 533 305 196617 jcom.message room/absorption/floor/preset @type msg_symbol @repetitions 1 @description "absorption presets for the floor";#P objectname room/absorption[4];#P window linecount 1;#P newex 1358 346 94 196617 pvar right_menu 2;#P newex 1509 399 82 196617 wall_properties;#P window linecount 2;#P newex 1358 368 315 196617 jcom.message room/absorption/right/preset @type msg_symbol @repetitions 1 @description "absorption presets for the right wall";#P objectname room/absorption[3];#P window linecount 1;#P newex 1365 202 88 196617 pvar left_menu 2;#P newex 1516 255 82 196617 wall_properties;#P window linecount 2;#P newex 1365 224 309 196617 jcom.message room/absorption/left/preset @type msg_symbol @repetitions 1 @description "absorption presets for the left wall";#P objectname room/absorption[2];#P window linecount 1;#P newex 1356 88 92 196617 pvar rear_menu 2;#P newex 1537 142 82 196617 wall_properties;#P window linecount 2;#P newex 1356 110 313 196617 jcom.message room/absorption/rear/preset @type msg_symbol @repetitions 1 @description "absorption presets for the rear wall";#P objectname room/absorption[1];#P window linecount 1;#P newex 1357 -20 95 196617 pvar front_menu 2;#P window linecount 0;#P newex 1538 34 82 196617 wall_properties;#P window linecount 2;#P newex 1357 2 316 196617 jcom.message room/absorption/front/preset @type msg_symbol @repetitions 1 @description "absorption presets for the front wall";#P objectname room/absorption;#P user ubumenu 238 617 53 196617 0 0 1 0;#X setrgb 181 181 181 25 25 25 50 50 50 4 4 4 141 141 141 112 112 112;#X add ---;#X add zero;#X add full;#X add audience;#X add carpet;#X add brick;#X add sand;#X add metal;#X add trees;#X add grass;#X prefix_set 0 0 <none> 0;#P objectname front_menu;#P window setfont "Sans Serif" 10.;#P window linecount 1;#P comment 145 554 88 196618 cross-frequency;#B frgb 149 149 149;#P window setfont "Sans Serif" 9.;#P number 73 688 47 9 500 19000 8227 3 181 181 181 221 221 221 222 222 222 0 0 0;#P objectname early_lowcut;#P window linecount 0;#P comment 3 690 69 196617 airfilter [Hz]:;#B frgb 149 149 149;#P flonum 259 688 28 9 0. 40. 8227 3 181 181 181 221 221 221 255 255 255 0 0 0;#P objectname roomsizeZ;#P flonum 231 688 28 9 0. 40. 8227 3 181 181 181 221 221 221 255 255 255 0 0 0;#P objectname roomsizeY;#P flonum 203 688 28 9 0. 40. 8227 3 181 181 181 221 221 221 255 255 255 0 0 0;#P objectname roomsizeX;#P comment 125 690 77 196617 roomize x/y/z:;#B frgb 149 149 149;#P window linecount 2;#P newex 1052 774 418 196617 jcom.parameter room/absorption/ceiling/high @type msg_float @repetitions 1 @range 0.1 99.9 @clipmode both @description "absorption for the high frequencies of the ceiling";#P objectname room/absorption/ceiling/high;#P newex 1052 729 416 196617 jcom.parameter room/absorption/ceiling/mid @type msg_float @repetitions 1 @range 0.1 99.9 @clipmode both @description "absorption for the mid frequencies of the ceiling";#P objectname room/absorption/ceiling/mid;#P newex 1052 683 416 196617 jcom.parameter room/absorption/ceiling/low @type msg_float @repetitions 1 @range 0.1 99.9 @clipmode both @description "absorption for the low frequencies of the ceiling";#P objectname room/absorption/ceiling/low;#P window linecount 1;#P newex 973 788 66 196617 pvar ceil_hg;#P newex 973 749 69 196617 pvar ceil_mg;#P newex 973 697 64 196617 pvar ceil_lg;#P window linecount 3;#P newex 1050 640 292 196617 jcom.parameter room/absorption/floor/high @type msg_float @repetitions 1 @range 0.1 99.9 @clipmode both @description "absorption for the high frequencies of the floor wall";#P objectname room/absorption/floor/high;#P newex 1050 595 290 196617 jcom.parameter room/absorption/floor/mid @type msg_float @repetitions 1 @range 0.1 99.9 @clipmode both @description "absorption for the mid frequencies of the floor wall";#P objectname room/absorption/floor/mid;#P newex 1050 549 290 196617 jcom.parameter room/absorption/floor/low @type msg_float @repetitions 1 @range 0.1 99.9 @clipmode both @description "absorption for the low frequencies of the floor wall";#P objectname room/absorption/floor/low;#P window linecount 1;#P newex 975 651 72 196617 pvar floor_hg;#P newex 971 615 75 196617 pvar floor_mg;#P newex 971 563 70 196617 pvar floor_lg;#P window linecount 3;#P newex 1049 506 292 196617 jcom.parameter room/absorption/right/high @type msg_float @repetitions 1 @range 0.1 99.9 @clipmode both @description "absorption for the high frequencies of the right wall";#P objectname room/absorption/right/high;#P newex 1049 461 290 196617 jcom.parameter room/absorption/right/mid @type msg_float @repetitions 1 @range 0.1 99.9 @clipmode both @description "absorption for the mid frequencies of the right wall";#P objectname room/absorption/right/mid;#P newex 1049 415 290 196617 jcom.parameter room/absorption/right/low @type msg_float @repetitions 1 @range 0.1 99.9 @clipmode both @description "absorption for the low frequencies of the right wall";#P objectname room/absorption/right/low;#P window linecount 1;#P newex 970 520 72 196617 pvar right_hg;#P newex 970 481 75 196617 pvar right_mg;#P newex 970 429 70 196617 pvar right_lg;#P window linecount 3;#P newex 1047 369 286 196617 jcom.parameter room/absorption/left/high @type msg_float @repetitions 1 @range 0.1 99.9 @clipmode both @description "absorption for the high frequencies of the left wall";#P objectname room/absorption/left/high;#P newex 1047 324 284 196617 jcom.parameter room/absorption/left/mid @type msg_float @repetitions 1 @range 0.1 99.9 @clipmode both @description "absorption for the mid frequencies of the left wall";#P objectname room/absorption/left/mid;#P newex 1047 278 284 196617 jcom.parameter room/absorption/left/low @type msg_float @repetitions 1 @range 0.1 99.9 @clipmode both @description "absorption for the low frequencies of the left wall";#P objectname room/absorption/left/low;#P window linecount 1;#P newex 968 383 66 196617 pvar left_hg;#P newex 968 344 69 196617 pvar left_mg;#P newex 968 292 64 196617 pvar left_lg;#P comment 190 570 45 196617 mid/high;#B frgb 149 149 149;#P comment 139 570 45 196617 low/mid;#B frgb 149 149 149;#P comment 101 570 26 196617 high;#B frgb 149 149 149;#P comment 70 570 26 196617 mids;#B frgb 149 149 149;#P comment 40 570 24 196617 low;#B frgb 149 149 149;#P window linecount 3;#P newex 1047 233 290 196617 jcom.parameter room/absorption/rear/high @type msg_float @repetitions 1 @range 0.1 99.9 @clipmode both @description "absorption for the high frequencies of the rear wall";#P objectname room/absorption/rear/high;#P newex 1047 187 288 196617 jcom.parameter room/absorption/rear/mid @type msg_float @repetitions 1 @range 0.1 99.9 @clipmode both @description "absorption for the mid frequencies of the rear wall";#P objectname room/absorption/rear/mid;#P newex 1047 141 288 196617 jcom.parameter room/absorption/rear/low @type msg_float @repetitions 1 @range 0.1 99.9 @clipmode both @description "absorption for the low frequencies of the rear wall";#P objectname room/absorption/rear/low;#P window linecount 1;#P newex 968 247 70 196617 pvar back_hg;#P newex 968 207 73 196617 pvar back_mg;#P newex 968 155 68 196617 pvar back_lg;#P window linecount 3;#P newex 1047 95 293 196617 jcom.parameter room/absorption/front/high @type msg_float @repetitions 1 @range 0.1 99.9 @clipmode both @description "absorption for the high frequencies of the front wall";#P objectname room/absorption/front/high;#P newex 1047 48 291 196617 jcom.parameter room/absorption/front/mid @type msg_float @repetitions 1 @range 0.1 99.9 @clipmode both @description "absorption for the mid frequencies of the front wall";#P objectname room/absorption/front/mid;#P newex 1047 2 294 196617 jcom.parameter room/absorption/front/low @type msg_float @repetitions 1 @range 0.1 99.9 @clipmode both @description "absorption for the low frequencies of the front wall";#P objectname room/absorption/front/low;#P window linecount 1;#P newex 968 109 73 196617 pvar front_hg;#P newex 968 63 76 196617 pvar front_mg;#P window linecount 0;#P newex 968 16 71 196617 pvar front_lg;#P flonum 103 669 28 9 0. 100. 8227 3 181 181 181 221 221 221 255 255 255 0 0 0;#P objectname ceil_hg;#P flonum 103 652 28 9 0. 100. 8227 3 181 181 181 221 221 221 255 255 255 0 0 0;#P objectname floor_hg;#P flonum 103 601 28 9 0. 100. 8227 3 181 181 181 221 221 221 255 255 255 0 0 0;#P objectname right_hg;#P flonum 103 584 28 9 0. 100. 8227 3 181 181 181 221 221 221 255 255 255 0 0 0;#P objectname left_hg;#P flonum 103 635 28 9 0. 100. 8227 3 181 181 181 221 221 221 255 255 255 0 0 0;#P objectname back_hg;#P flonum 103 617 28 9 0. 100. 8227 3 181 181 181 221 221 221 255 255 255 0 0 0;#P objectname front_hg;#P flonum 73 669 28 9 0. 100. 8227 3 181 181 181 221 221 221 255 255 255 0 0 0;#P objectname ceil_mg;#P flonum 73 652 28 9 0. 100. 8227 3 181 181 181 221 221 221 255 255 255 0 0 0;#P objectname floor_mg;#P flonum 73 601 28 9 0. 100. 8227 3 181 181 181 221 221 221 255 255 255 0 0 0;#P objectname right_mg;#P flonum 73 584 28 9 0. 100. 8227 3 181 181 181 221 221 221 255 255 255 0 0 0;#P objectname left_mg;#P flonum 73 635 28 9 0. 100. 8227 3 181 181 181 221 221 221 255 255 255 0 0 0;#P objectname back_mg;#P flonum 73 617 28 9 0. 100. 8227 3 181 181 181 221 221 221 255 255 255 0 0 0;#P objectname front_mg;#P flonum 42 669 28 9 0. 100. 8227 3 181 181 181 221 221 221 255 255 255 0 0 0;#P objectname ceil_lg;#P flonum 42 652 28 9 0. 100. 8227 3 181 181 181 221 221 221 255 255 255 0 0 0;#P objectname floor_lg;#P flonum 42 601 28 9 0. 100. 8227 3 181 181 181 221 221 221 255 255 255 0 0 0;#P objectname right_lg;#P flonum 42 584 28 9 0. 100. 8227 3 181 181 181 221 221 221 255 255 255 0 0 0;#P objectname left_lg;#P flonum 42 635 28 9 0. 100. 8227 3 181 181 181 221 221 221 255 255 255 0 0 0;#P objectname back_lg;#P window linecount 1;#P comment 2 671 40 196617 Ceiling:;#B frgb 149 149 149;#P comment 8 654 34 196617 Floor:;#B frgb 149 149 149;#P comment 8 604 34 196617 Right:;#B frgb 149 149 149;#P comment 12 587 29 196617 Left:;#B frgb 149 149 149;#P comment 10 637 31 196617 Back:;#B frgb 149 149 149;#P comment 7 619 34 196617 front:;#B frgb 149 149 149;#P window setfont "Sans Serif" 12.;#P comment 2 26 86 196620 Microphones:;#B frgb 149 149 149;#P window setfont "Sans Serif" 10.;#P comment 34 554 104 196618 wall absorption [%];#B frgb 149 149 149;#P window setfont "Sans Serif" 9.;#P flonum 42 617 28 9 0. 100. 8227 3 181 181 181 221 221 221 255 255 255 0 0 0;#P objectname front_lg;#P user panel 1 551 295 160;#X brgb 80 80 80;#X frgb 255 255 255;#X border 1;#X rounded 0;#X shadow 0;#X done;#P window linecount 0;#P newex 428 768 107 196617 pvar xfade_threshold;#P number 414 591 32 9 0 0 8225 3 181 181 181 221 221 221 222 222 222 0 0 0;#P objectname xfade_threshold;#P comment 299 593 83 196617 fading threshold:;#B frgb 149 149 149;#P newex 446 744 92 196617 pvar xfade_length;#P number 414 575 32 9 0 0 8225 3 181 181 181 221 221 221 222 222 222 0 0 0;#P objectname xfade_length;#P window linecount 1;#P comment 322 577 61 196617 fading time:;#B frgb 149 149 149;#P window setfont "Sans Serif" 12.;#P comment 301 555 111 196620 X-FADE settings:;#B frgb 149 149 149;#P window setfont "Sans Serif" 9.;#P comment 306 609 77 196617 fading function:;#B frgb 149 149 149;#P user ubumenu 386 608 63 196617 0 0 1 0;#X setrgb 181 181 181 25 25 25 50 50 50 4 4 4 141 141 141 112 112 112;#X add cosine;#X add cosine_squared;#X add linear;#X add tanh;#X add sqrt;#X prefix_set 0 0 <none> 0;#P objectname fadefunction;#P user panel 297 551 157 81;#X brgb 80 80 80;#X frgb 255 255 255;#X border 1;#X rounded 0;#X shadow 0;#X done;#P newex 433 829 98 196617 pvar fadefunction 2;#P window linecount 2;#P newex 542 823 403 196617 jcom.parameter rendermode/xfade/fadefunction @type msg_symbol @description "fading function of the crossfade for the x-fade mode";#P objectname rendermode/xfade/fadefunction;#P window linecount 3;#P newex 543 773 329 196617 jcom.parameter rendermode/xfade/threshold @type msg_int @range 0 4096 @repetitions 0 @clipmode low @description "distance in samples before a crossfade in the x-fade mode is activated";#P objectname rendermode/xfade/threshold;#P window linecount 2;#P newex 542 736 408 196617 jcom.parameter rendermode/xfade/fadelength @type msg_int @repetitions 0 @range 0 512 @clipmode low @description "length of the crossfade for the x-fade mode in ms";#P objectname rendermode/xfade/fadelength;#P window linecount 0;#P hidden newex 399 -1 417 196617 jcom.multi.out~;#P bpatcher 3 310 523 17 0 0 jcom.sur.vimic_mic.mxt 0 16;#P objectname jcom.sur.vimic_mic.mxt[8];#P bpatcher 3 293 523 17 0 0 jcom.sur.vimic_mic.mxt 0 15;#P objectname jcom.sur.vimic_mic.mxt[9];#P bpatcher 3 276 523 17 0 0 jcom.sur.vimic_mic.mxt 0 14;#P objectname jcom.sur.vimic_mic.mxt[10];#P bpatcher 3 259 523 17 0 0 jcom.sur.vimic_mic.mxt 0 13;#P objectname jcom.sur.vimic_mic.mxt[11];#P bpatcher 3 242 523 17 0 0 jcom.sur.vimic_mic.mxt 0 12;#P objectname jcom.sur.vimic_mic.mxt[12];#P bpatcher 3 225 523 17 0 0 jcom.sur.vimic_mic.mxt 0 11;#P objectname jcom.sur.vimic_mic.mxt[13];#P bpatcher 3 208 523 17 0 0 jcom.sur.vimic_mic.mxt 0 10;#P objectname jcom.sur.vimic_mic.mxt[14];#P bpatcher 3 191 523 17 0 0 jcom.sur.vimic_mic.mxt 0 9;#P objectname jcom.sur.vimic_mic.mxt[15];#P window linecount 2;#P message 8 896 64 196617 \; max refresh;#P inlet 831 -5 15 0;#P hidden inlet 402 -19 15 0;#P bpatcher 3 174 523 17 0 0 jcom.sur.vimic_mic.mxt 0 8;#P objectname jcom.sur.vimic_mic.mxt[7];#P bpatcher 3 157 523 17 0 0 jcom.sur.vimic_mic.mxt 0 7;#P objectname jcom.sur.vimic_mic.mxt[6];#P bpatcher 3 140 523 17 0 0 jcom.sur.vimic_mic.mxt 0 6;#P objectname jcom.sur.vimic_mic.mxt[5];#P bpatcher 3 123 523 17 0 0 jcom.sur.vimic_mic.mxt 0 5;#P objectname jcom.sur.vimic_mic.mxt[4];#P bpatcher 3 106 523 17 0 0 jcom.sur.vimic_mic.mxt 0 4;#P objectname jcom.sur.vimic_mic.mxt[3];#P bpatcher 3 89 523 17 0 0 jcom.sur.vimic_mic.mxt 0 3;#P objectname jcom.sur.vimic_mic.mxt[2];#P bpatcher 3 72 523 17 0 0 jcom.sur.vimic_mic.mxt 0 2;#P objectname jcom.sur.vimic_mic.mxt[1];#P flonum 399 499 27 9 0. 40. 8227 3 181 181 181 221 221 221 255 255 255 0 0 0;#P objectname dirPow;#P flonum 184 499 27 9 0. 40. 8227 3 181 181 181 221 221 221 255 255 255 0 0 0;#P objectname disPow;#P window linecount 0;#P comment 429 501 84 196617 update rate [Hz]:;#B frgb 149 149 149;#P number 513 499 28 9 1 50 8227 3 181 181 181 221 221 221 255 255 255 0 0 0;#P objectname Updaterate;#P hidden newex 458 948 83 196617 pvar Updaterate;#P window linecount 2;#P newex 547 941 393 196617 jcom.parameter updaterate @type msg_int @range 1 50 @clipmode low @description "vimic updaterate - tells how often the parameter settings are getting updated";#P objectname updaterate;#P window linecount 1;#P newex 116 887 50 196617 deferlow;#P window linecount 3;#P hidden newex 670 341 337 196617 jcom.parameter reflections/airfilter @type msg_int @range 500 19000 @clipmode both @repetitions 0 @description "damping frequency of the early reflections due to air absorption";#P objectname reflections/airfilter;#P window linecount 1;#P hidden newex 670 319 94 196617 pvar early_lowcut;#P comment 355 42 37 196617 preset;#B frgb 181 181 181;#P newex 434 874 144 196617 jcom.list2parameter 3;#P newex 600 899 80 196617 pvar roomsizeZ;#P newex 517 899 81 196617 pvar roomsizeY;#P newex 434 899 81 196617 pvar roomsizeX;#P window linecount 2;#P newex 583 864 386 196617 jcom.parameter room/size @type msg_list @ramp/drive scheduler @range 0. 40. @repetitions 0 @clipmode both @description "Size of the virtual room in XYZ";#P objectname room/size;#P window linecount 1;#P comment 6 485 201 196617 power law for attenuation due to distance:;#B frgb 149 149 149;#P comment 219 486 211 196617 power law for attenuation due to directivity:;#B frgb 149 149 149;#P hidden newex 669 247 66 196617 pvar dirPow;#P hidden newex 688 182 66 196617 pvar disPow;#P window linecount 3;#P hidden newex 669 267 285 196617 jcom.parameter microphones/direct/power @type msg_float @repetitions 0 @range 0. 8. @clipmode both @description "power law for attenuation due to microphone directivity";#P objectname microphones/direct/power;#P hidden newex 688 201 267 196617 jcom.parameter room/distance/power @type msg_float @range 0. 8. @clipmode both @repetitions 0 @description "power law for attenuation due to distance";#P objectname room/distance/power;#P window linecount 1;#P comment 204 41 87 196617 Azimut/Elevation;#B frgb 181 181 181;#P comment 171 41 14 196617 Z;#B frgb 181 181 181;#P comment 137 41 14 196617 Y;#B frgb 181 181 181;#P comment 99 40 14 196617 X;#B frgb 181 181 181;#P comment 316 28 56 196617 Directivity;#B frgb 181 181 181;#P comment 215 28 87 196617 Orientation;#B frgb 181 181 181;#P comment 96 28 99 196617 Microphone position;#B frgb 181 181 181;#P bpatcher 3 55 523 17 0 0 jcom.sur.vimic_mic.mxt 0 1;#P objectname jcom.sur.vimic_mic.mxt;#P hidden newex 759 131 74 196617 pvar allreport;#P window linecount 3;#P hidden newex 760 151 203 196617 jcom.message report_all @type msg_int @range 0 1 @clipmode both @description "report inner state of the vimic module";#P objectname direct/gain[2];#P flonum 406 822 29 9 0 0 8224 3 181 181 181 221 221 221 222 222 222 0 0 0;#P objectname bb6;#P flonum 406 804 29 9 0 0 8224 3 181 181 181 221 221 221 222 222 222 0 0 0;#P objectname bb5;#P window linecount 1;#P hidden newex 116 866 117 196617 loadmess patcher ViMiC;#P hidden newex 6 853 40 196617 t front;#P hidden inlet 6 800 15 0;#N thispatcher;#Q window flags nogrow close zoom nofloat;#Q window size 528 45 1062 761;#Q window title;#Q window exec;#Q savewindow 1;#Q end;#P hidden newobj 116 910 59 196617 thispatcher;#P hidden newex 158 1005 88 196617 bgcolor 80 80 80;#P hidden message 439 657 273 196617 window flags nogrow \, savewindow 1 \, window exec;#P hidden message 438 683 262 196617 window flags grow \, window exec;#P window setfont "Sans Serif" 18.;#P comment 173 -2 211 196626 Extended settings;#B frgb 181 181 181;#P user panel 1 23 529 459;#X brgb 80 80 80;#X frgb 255 255 255;#X border 1;#X rounded 0;#X shadow 0;#X done;#P user panel 216 483 213 67;#X brgb 80 80 80;#X frgb 255 255 255;#X border 1;#X rounded 0;#X shadow 0;#X done;#P user panel 1 483 213 67;#X brgb 80 80 80;#X frgb 255 255 255;#X border 1;#X rounded 0;#X shadow 0;#X done;#P user panel 297 633 157 78;#X brgb 80 80 80;#X frgb 255 255 255;#X border 1;#X rounded 0;#X shadow 0;#X done;#P hidden connect 63 0 16 0;#P hidden connect 63 1 45 0;#P hidden connect 63 2 46 0;#P hidden connect 63 3 47 0;#P hidden connect 63 4 48 0;#P hidden connect 63 5 49 0;#P hidden connect 63 6 50 0;#P hidden connect 63 7 51 0;#P hidden connect 63 8 55 0;#P hidden connect 63 9 56 0;#P hidden connect 63 10 57 0;#P hidden connect 63 11 58 0;#P hidden connect 63 12 59 0;#P hidden connect 63 13 60 0;#P hidden connect 63 14 61 0;#P hidden connect 63 15 62 0;#P hidden connect 63 16 197 0;#P hidden connect 63 17 198 0;#P hidden connect 63 18 199 0;#P hidden connect 63 19 200 0;#P hidden connect 63 20 201 0;#P hidden connect 63 21 202 0;#P hidden connect 63 22 203 0;#P hidden connect 63 23 204 0;#P connect 223 0 235 0;#P connect 218 0 217 0;#P connect 11 0 38 0;#P hidden connect 5 0 8 0;#P hidden connect 6 0 8 0;#P connect 38 0 8 0;#P connect 10 0 8 0;#P connect 235 0 224 0;#P fasten 227 0 224 0 247 994 122 994;#P fasten 225 0 224 0 379 994 122 994;#P connect 219 0 224 0;#P connect 217 0 224 0;#P connect 228 0 224 0;#P connect 220 0 219 0;#P fasten 226 1 227 0 342 962 247 962;#P fasten 226 1 233 0 342 911 248 911;#P connect 233 0 234 0;#P hidden connect 211 0 228 0;#P connect 238 0 228 1;#P hidden connect 234 0 211 0;#P hidden connect 231 0 211 0;#P hidden connect 242 0 240 0;#P connect 246 0 250 0;#P connect 250 0 249 0;#P connect 249 0 252 0;#P lcolor 15;#P hidden connect 247 0 246 0;#P connect 249 0 251 0;#P connect 236 0 237 0;#P connect 237 0 238 0;#P hidden connect 214 0 225 0;#P hidden connect 52 0 63 0;#P hidden connect 231 1 214 0;#P connect 65 0 77 0;#P connect 66 0 67 0;#P fasten 31 0 34 0 439 921 431 921 431 867 439 867;#P connect 34 0 31 0;#P hidden connect 179 0 180 0;#P connect 238 0 225 1;#P connect 64 0 74 0;#P fasten 32 0 34 1 522 925 425 925 425 862 452 862;#P connect 39 0 40 0;#P hidden fasten 33 0 34 2 605 924 420 924 420 857 465 857;#P hidden connect 53 0 16 1;#P hidden connect 53 0 45 1;#P hidden connect 53 0 46 1;#P hidden connect 53 0 47 1;#P hidden connect 53 0 48 1;#P hidden connect 53 0 49 1;#P hidden connect 53 0 50 1;#P hidden connect 53 0 51 1;#P hidden connect 53 0 55 1;#P hidden connect 53 0 56 1;#P hidden connect 53 0 57 1;#P hidden connect 53 0 58 1;#P hidden connect 53 0 59 1;#P hidden connect 53 0 60 1;#P hidden connect 53 0 61 1;#P hidden connect 53 0 62 1;#P hidden connect 53 0 197 1;#P hidden connect 53 0 198 1;#P hidden connect 53 0 199 1;#P hidden connect 53 0 200 1;#P hidden connect 53 0 201 1;#P hidden connect 53 0 202 1;#P hidden connect 53 0 203 1;#P hidden connect 53 0 204 1;#P connect 34 1 32 0;#P connect 74 0 64 0;#P connect 67 1 66 0;#P connect 77 0 65 0;#P connect 40 0 39 0;#P hidden connect 180 0 179 0;#P hidden connect 240 0 241 0;#P hidden connect 239 0 245 0;#P hidden connect 241 0 245 0;#P hidden connect 245 0 242 0;#P connect 30 0 34 10;#P lcolor 15;#P hidden connect 229 0 231 0;#P hidden connect 232 0 230 0;#P hidden connect 230 0 229 0;#P connect 34 10 30 0;#P lcolor 15;#P connect 184 0 183 0;#P connect 34 2 33 0;#P connect 183 0 184 0;#P hidden fasten 25 0 27 0 674 310 666 310 666 244 674 244;#P hidden connect 27 0 25 0;#P hidden fasten 37 0 36 0 675 384 666 384 666 315 675 315;#P hidden connect 36 0 37 0;#P hidden connect 241 1 239 0;#P hidden fasten 24 0 26 0 693 244 685 244 685 179 693 179;#P hidden connect 26 0 24 0;#P hidden connect 15 0 14 0;#P connect 108 0 105 0;#P connect 109 0 106 0;#P connect 110 0 107 0;#P connect 114 0 111 0;#P connect 115 0 112 0;#P connect 116 0 113 0;#P connect 125 0 122 0;#P connect 126 0 123 0;#P connect 127 0 124 0;#P connect 131 0 128 0;#P connect 132 0 129 0;#P connect 133 0 130 0;#P connect 137 0 134 0;#P connect 138 0 135 0;#P connect 143 0 140 0;#P connect 144 0 141 0;#P connect 145 0 142 0;#P connect 139 0 136 0;#P connect 105 0 108 0;#P connect 155 0 108 0;#P connect 106 0 109 0;#P connect 155 1 109 0;#P connect 107 0 110 0;#P connect 155 2 110 0;#P connect 111 0 114 0;#P connect 158 0 114 0;#P connect 112 0 115 0;#P connect 158 1 115 0;#P connect 113 0 116 0;#P connect 158 2 116 0;#P connect 122 0 125 0;#P connect 161 0 125 0;#P connect 123 0 126 0;#P connect 161 1 126 0;#P connect 124 0 127 0;#P connect 161 2 127 0;#P connect 128 0 131 0;#P connect 164 0 131 0;#P connect 129 0 132 0;#P connect 164 1 132 0;#P connect 130 0 133 0;#P connect 164 2 133 0;#P connect 134 0 137 0;#P connect 167 0 137 0;#P connect 135 0 138 0;#P connect 167 1 138 0;#P connect 136 0 139 0;#P connect 167 2 139 0;#P connect 140 0 143 0;#P connect 170 0 143 0;#P connect 141 0 144 0;#P connect 170 1 144 0;#P connect 142 0 145 0;#P connect 170 2 145 0;#P connect 157 0 159 0;#P connect 159 1 157 0;#P connect 154 0 156 0;#P connect 156 1 154 0;#P connect 163 0 165 0;#P connect 165 1 163 0;#P connect 160 0 162 0;#P connect 162 1 160 0;#P connect 166 0 168 0;#P connect 168 1 166 0;#P connect 169 0 171 0;#P connect 171 1 169 0;#P connect 163 1 164 0;#P connect 160 1 161 0;#P connect 166 1 167 0;#P connect 157 1 158 0;#P connect 154 1 155 0;#P connect 169 1 170 0;#P pop;#P hidden newobj 157 333 67 196617 p inspector;#B color 4;#P objectname inspector;#P hidden newex 544 314 62 196617 prepend set;#P hidden newex 615 366 27 196617 - 1;#P hidden newex 614 295 27 196617 + 1;#P hidden newex 614 347 51 196617 route set;#P hidden newex 614 454 102 196617 pvar render_mode 2;#P window linecount 2;#P hidden newex 722 448 242 196617 jcom.parameter rendermode @type msg_symbol @repetitions 0 @description "Rendertype of ViMiC";#P objectname rendermode;#P user ubumenu 42 24 63 196617 0 0 1 0;#X setrgb 181 181 181 25 25 25 50 50 50 4 4 4 141 141 141 112 112 112;#X add ViMiC_lite;#X add X-fade_lite;#X add ViMiC_XL;#X add X-fade_XL;#X add Panning;#X add Static;#X prefix_set 0 0 <none> 0;#P objectname render_mode;#P window linecount 1;#N vpatcher 497 319 1097 719;#P outlet 56 179 15 0;#P button 137 29 15 0;#P window setfont "Sans Serif" 9.;#P hidden message 60 91 64 196617 rgb2 66 0 2;#P hidden message 221 89 92 196617 frgb 181 181 181;#P hidden message 138 91 75 196617 brgb 47 46 36;#P newex 83 58 50 196617 deferlow;#P newex 83 24 48 196617 loadbang;#P connect 3 0 6 0;#P connect 2 0 6 0;#P connect 4 0 6 0;#P connect 1 0 4 0;#P connect 0 0 1 0;#P connect 5 0 1 0;#P connect 1 0 2 0;#P connect 1 0 3 0;#P pop;#P hidden newobj 349 78 46 196617 p colors;#N thispatcher;#Q end;#P hidden newobj 351 122 61 196617 thispatcher;#N vpatcher 188 431 335 589;#P button 43 34 15 0;#P window setfont "Sans Serif" 9.;#P newex 41 54 50 196617 deferlow;#P newex 41 75 50 196617 t front;#P outlet 41 103 15 0;#P inlet 41 15 15 0;#P connect 4 0 3 0;#P connect 3 0 2 0;#P connect 2 0 1 0;#P connect 0 0 4 0;#P pop;#P hidden newobj 351 100 14 196617 p;#P bpatcher 153 33 100 12 0 0 jcom.textslider.mxt 1 0. 0. 1. @size 100 12 @text 1st order refl.;#P bpatcher 153 20 100 13 0 0 jcom.textslider.mxt 1 0. 0. 1. @size 100 12 @text direct sound @frgb;#P user ubumenu 106 24 22 196617 0 0 1 0;#X setrgb 181 181 181 25 25 25 50 50 50 4 4 4 141 141 141 112 112 112;#X add 1;#X add 2;#X add 3;#X add 4;#X add 5;#X add 6;#X add 7;#X add 8;#X add 9;#X add 10;#X add 11;#X add 12;#X add 13;#X add 14;#X add 15;#X add 16;#X add 17;#X add 18;#X add 19;#X add 20;#X add 21;#X add 22;#X add 23;#X add 24;#X prefix_set 0 0 <none> 0;#P objectname mics;#P window linecount 2;#P hidden newex 614 315 377 196617 jcom.parameter microphones/amount @type msg_int @range 1 32 @repetitions 0 @clipmode low @priority 2 @description "Number of used virtual microphones";#P objectname microphones/amount;#P window linecount 1;#P hidden newex 614 275 64 196617 pvar mics 2;#P comment 5 26 34 196617 setup:;#B frgb 149 149 149;#P hidden newex 157 254 221 196617 jcom.oscroute /open_inspector /audio/meters;#P hidden newex 157 302 44 196617 pcontrol;#P hidden outlet 133 626 15 0;#P hidden newex 133 532 430 196617 jcom.multi.in~;#P hidden newex 606 388 63 196617 pvar report;#P toggle 122 3 13 0;#P objectname report;#P window linecount 2;#P hidden newex 606 408 288 196617 jcom.parameter report @type msg_int @range 0 1 @clipmode both @description "report changes inside the vimic module";#P objectname report[1];#P hidden newex 524 47 262 196617 jcom.parameter.gain reflections/1st/gain @repetitions 0 @description "gain of the early reflections 1st order";#P objectname reflections/gain;#P hidden newex 521 7 236 196617 jcom.parameter.gain direct/gain @repetitions 0 @description "gain of the direct sound component";#P objectname direct/gain;#P window linecount 1;#P hidden newex 439 179 144 196617 jcom.list2parameter 3;#P hidden newex 553 203 54 196617 pvar posZ;#P hidden newex 496 203 55 196617 pvar posY;#P hidden newex 439 204 55 196617 pvar posX;#P window linecount 2;#P hidden newex 654 177 349 196617 jcom.parameter.spatdif source/position/absolute @ramp/drive scheduler @description "Sourceposition in the virtual room - spatDIF compliant";#P objectname source/position/absolute;#P flonum 127 42 26 9 0. 25. 8227 3 181 181 181 221 221 221 255 255 255 0 0 0;#P objectname posD;#P flonum 101 42 27 9 0 90. 8226 3 181 181 181 221 221 221 255 255 255 0 0 0;#P objectname posE;#P flonum 69 42 33 9 -180. 180. 8227 3 181 181 181 221 221 221 255 255 255 0 0 0;#P objectname posA;#P window linecount 1;#P hidden newex 393 309 47 196617 pcontrol;#P message 105 81 191 196617 /preset/store 1 default \, /preset/write;#B color 3;#P hidden newex 134 448 339 196617 jcom.out~ 25;#P hidden newex 133 232 58 196617 jcom.in~ 1;#P message 113 103 125 196617 /documentation/generate;#B color 3;#P window linecount 2;#P message 113 176 65 196617 \; max refresh;#P newex 15 137 323 196617 jcom.hub jmod.sur.vimic~ @inspector 1 @size 1U-half @module_type audio.ambisonic @description "Virtual Microphone Control (ViMiC)";#P objectname jcom.hub;#P window linecount 1;#P comment 29 104 79 196617 command input;#P inlet 15 104 13 0;#P message 244 103 31 196617 /init;#P hidden inlet 133 213 13 0;#P comment -1 44 75 196617 Position A/E/D;#B frgb 149 149 149;#P hidden newex 133 359 313 196617 jalg.sur.vimic_8_1~.mxt;#P outlet 15 180 13 0;#P hidden comment 92 655 101 196617 multicable output;#P user hint 130 24 149 40 "order of early reflections" 4000 1000 0 65535 65535 52428 9 3 0 1 0 0 0;#P user hint 106 25 125 41 "number of microphones" 4000 1000 0 65535 65535 52428 9 3 0 1 0 0 0;#P hidden user hint 501 258 545 276 "ViMiC render type" 4000 1000 0 65535 65535 52428 9 3 0 1 0 0 0;#P bpatcher 0 0 256 60 0 0 jcom.gui.mxt 0 $0_;#P objectname jmod.gui.1Uh.a.stereo.mxt;#P hidden fasten 52 0 12 0 162 354 6 354 6 127 20 127;#P fasten 9 0 12 0 249 125 20 125;#P fasten 14 0 12 0 118 124 20 124;#P connect 10 0 12 0;#P fasten 17 0 12 0 110 124 20 124;#P connect 12 0 5 0;#P hidden connect 8 0 15 0;#P hidden connect 15 0 6 0;#P hidden connect 16 1 32 0;#P hidden connect 32 0 33 0;#P lcolor 6;#P hidden connect 16 2 32 1;#P hidden connect 6 0 16 1;#P hidden connect 44 0 40 0;#P hidden connect 62 0 40 0;#P hidden connect 44 0 41 0;#P hidden connect 60 0 41 0;#P hidden connect 44 0 75 0;#P hidden connect 78 0 75 0;#P hidden connect 15 1 35 0;#P hidden connect 35 0 58 0;#P hidden connect 58 0 34 0;#P hidden connect 34 0 52 0;#P hidden connect 16 3 32 2;#P hidden connect 6 1 16 2;#P hidden connect 16 4 32 3;#P hidden connect 6 2 16 3;#P hidden fasten 32 0 52 1 138 577 22 577 22 328 190 328;#P lcolor 6;#P hidden connect 16 5 32 4;#P hidden connect 6 3 16 4;#P hidden connect 16 6 32 5;#P hidden connect 6 4 16 5;#P hidden connect 16 7 32 6;#P hidden connect 6 5 16 6;#P hidden fasten 35 1 52 2 267 302 218 302;#P hidden connect 16 8 32 7;#P hidden connect 6 6 16 7;#P hidden connect 16 9 32 8;#P hidden connect 6 7 16 8;#P hidden connect 16 10 32 9;#P hidden connect 6 8 16 9;#P hidden connect 16 11 32 10;#P hidden connect 6 9 16 10;#P hidden connect 16 12 32 11;#P hidden connect 6 10 16 11;#P hidden connect 16 13 32 12;#P hidden connect 6 11 16 12;#P hidden fasten 35 2 57 0 372 277 303 277;#P hidden connect 16 14 32 13;#P hidden connect 6 12 16 13;#P hidden connect 16 15 32 14;#P hidden connect 6 13 16 14;#P hidden connect 16 16 32 15;#P hidden connect 6 14 16 15;#P hidden connect 16 17 32 16;#P hidden connect 6 15 16 16;#P connect 44 0 42 0;#P hidden connect 42 0 43 0;#P hidden connect 16 18 32 17;#P hidden connect 6 16 16 17;#P hidden connect 16 19 32 18;#P hidden connect 6 17 16 18;#P hidden connect 16 20 32 19;#P hidden connect 6 18 16 19;#P hidden connect 57 1 18 0;#P hidden connect 16 21 32 20;#P hidden connect 6 19 16 20;#P hidden connect 16 22 32 21;#P hidden connect 6 20 16 21;#P hidden connect 16 23 32 22;#P hidden connect 6 21 16 22;#P hidden connect 16 24 32 23;#P hidden connect 6 22 16 23;#P hidden fasten 18 0 6 1 398 338 441 338;#P hidden fasten 57 0 6 1 303 338 441 338;#P fasten 52 1 6 1 219 354 441 354;#P hidden fasten 23 0 26 0 444 225 436 225 436 175 444 175;#P hidden connect 26 0 23 0;#P hidden connect 6 23 16 24;#P hidden connect 40 0 61 0;#P hidden fasten 24 0 26 1 501 228 433 228 433 172 457 172;#P hidden connect 41 0 59 0;#P hidden connect 75 0 77 0;#P hidden connect 76 0 78 0;#P hidden fasten 25 0 26 2 558 231 430 231 430 169 470 169;#P hidden connect 27 0 62 0;#P hidden connect 28 0 60 0;#P hidden connect 26 1 24 0;#P hidden connect 61 0 27 0;#P hidden connect 59 0 28 0;#P hidden connect 77 0 76 0;#P hidden connect 50 0 51 0;#P hidden connect 26 2 25 0;#P hidden connect 74 0 73 0;#P hidden connect 71 0 72 0;#P hidden fasten 29 0 31 0 611 441 601 441 601 383 611 383;#P hidden connect 31 0 29 0;#P hidden fasten 54 0 55 0 690 527 606 527 606 495 615 495;#P hidden connect 51 0 37 0;#P hidden connect 37 0 49 0;#P hidden connect 49 0 38 0;#P hidden connect 38 0 48 0;#P hidden fasten 46 0 47 0 727 480 608 480 608 445 619 445;#P hidden connect 48 0 50 0;#P hidden fasten 64 0 22 0 659 238 652 238 652 171 659 171;#P hidden connect 22 0 64 0;#P hidden connect 72 0 71 0;#P hidden connect 73 0 74 0;#P hidden connect 55 1 54 0;#P hidden connect 47 1 46 0;#P hidden connect 22 1 65 0;#P hidden fasten 65 0 22 1 753 248 648 248 648 167 722 167;#P hidden connect 22 2 66 0;#P hidden fasten 66 0 22 2 847 256 642 256 642 160 785 160;#P pop;