max v2;#N vpatcher 104 44 1191 796;#P origin 0 -474;#P window setfont "Sans Serif" 9.;#P window linecount 2;#P hidden message 673 675 332 196617 jcom.parameter source/orientation/elevation @type msg_float @range 0. 90. @description "orientation of the sound source (elevation)";#P window linecount 1;#N vpatcher 10 59 610 459;#P window setfont "Sans Serif" 9.;#P newex 50 50 51 196617 route set;#P newex 51 71 68 196617 jcom.miditoa;#P inlet 50 30 15 0;#P outlet 51 93 15 0;#P connect 1 0 3 0;#P connect 3 0 2 0;#P connect 2 0 0 0;#P pop;#P hidden newobj 456 104 48 196617 p midi2a;#P hidden newex 456 84 68 196617 jcom.atomidi;#P window linecount 2;#P hidden newex 526 83 263 196617 jcom.parameter.gain reflections/2nd/gain @repetitions 0 @description "gain of the early reflections 2nd order";#P objectname reflections/gain[1];#P bpatcher 153 46 100 12 0 0 jcom.textslider.mxt 1 0. 0. 1. @size 100 12 @text 2nd order refl.;#P window linecount 1;#P hidden newex 596 611 70 196617 pvar warning;#P window linecount 2;#P hidden newex 669 605 306 196617 jcom.parameter warning @type msg_int @range 0 1 @clipmode both @description "turn on/off warnings inside the vimic module";#P objectname warning[1];#P user hint 107 3 120 15 "warnings on/off" 2500 1000 0 65535 65535 52428 9 3 0 1 0 0 0;#P user hint 122 3 135 15 "report on/off" 2500 1000 0 65535 65535 52428 9 3 0 1 0 0 0;#P toggle 109 3 13 0;#P objectname warning;#P hidden newex 582 567 229 196617 jcom.message audio/meters/clear @type msg_none @description "clear the audio meters";#P objectname jcom.parameter[2];#P window linecount 1;#P hidden newex 842 216 55 196617 pvar posD;#P hidden newex 748 216 54 196617 pvar posE;#P hidden newex 654 216 56 196617 pvar posA;#P hidden newex 584 537 378 196617 jcom.message update @type msg_none @description "update from external clock";#P objectname jcom.parameter[1];#N vpatcher 10 59 610 459;#P window setfont "Sans Serif" 9.;#P newex 50 50 51 196617 route set;#P newex 51 71 68 196617 jcom.miditoa;#P inlet 50 30 15 0;#P outlet 51 93 15 0;#P connect 1 0 3 0;#P connect 3 0 2 0;#P connect 2 0 0 0;#P pop;#P hidden newobj 470 25 48 196617 p midi2a;#P hidden newex 449 6 68 196617 jcom.atomidi;#N vpatcher 10 59 610 459;#P window setfont "Sans Serif" 9.;#P newex 50 50 51 196617 route set;#P newex 51 71 68 196617 jcom.miditoa;#P inlet 50 30 15 0;#P outlet 51 93 15 0;#P connect 1 0 3 0;#P connect 3 0 2 0;#P connect 2 0 0 0;#P pop;#P hidden newobj 470 63 48 196617 p midi2a;#P hidden newex 453 45 68 196617 jcom.atomidi;#P hidden message 157 284 30 196617 open;#N vpatcher 605 157 1205 557;#P origin -71 0;#P window setfont "Sans Serif" 9.;#P window linecount 0;#P message -8 168 90 196617 /rendermode mute;#P newex 79 129 41 196617 sel 1 0;#P message 84 168 104 196617 /rendermode unmute;#P window linecount 1;#P newex 198 54 134 196617 jcom.oscroute /audio/mute;#P newex 198 81 31 196617 == 0;#P message 198 127 62 196617 enable \$1 1;#P newex 116 54 78 196617 jcom.pass open;#P outlet 84 226 15 0;#P outlet 198 161 15 0;#N comlet Connect to 2nd last outlet of jcom.in~;#P inlet 116 33 15 0;#P connect 8 0 9 0;#P connect 6 0 8 0;#P connect 8 1 7 0;#P fasten 9 0 2 0 -3 190 89 190;#P fasten 6 1 2 0 327 190 89 190;#P connect 7 0 2 0;#P connect 0 0 3 0;#P connect 3 1 6 0;#P connect 6 0 5 0;#P connect 5 0 4 0;#P connect 3 0 1 0;#P connect 4 0 1 0;#P pop;#P hidden newobj 298 283 105 196617 p algorithm_control~;#P user hint 43 26 103 40 "ViMiC render method" 2500 1000 0 65535 65535 52428 9 3 0 1 0 0 0;#P hidden newex 610 501 68 196617 pvar order 2;#P window linecount 2;#P hidden newex 685 494 349 196617 jcom.parameter reflections/order @type msg_int @range 0 2 @repetitions 0 @priority 1 @clipmode both @description "order of early reflections";#P objectname reflections/order;#P user ubumenu 128 24 22 196617 0 0 1 0;#X setrgb 181 181 181 25 25 25 50 50 50 4 4 4 141 141 141 112 112 112;#X add 0;#X add 1;#X add 2;#X prefix_set 0 0 <none> 0;#P objectname order;#P window linecount 1;#N vpatcher 544 49 1083 742;#P origin 23 19;#P window setfont "Sans Serif" 9.;#P window linecount 2;#P hidden newex 636 933 352 196617 jcom.parameter source/orientation/active @type msg_toggle @repetitions 0 @description "when ticked\\\, source directivity is calculated";#P objectname reflections/airfilter[3];#P window linecount 1;#P hidden newex 636 913 116 196617 pvar directivity_toggle;#P user jsui 495 540 20 14 1 0 0 jcom.jsui_texttoggle.js off on 204 204 204 0 0 0 121 255 15;#P objectname directivity_toggle;#P user radiogroup 289 658 42 16;#X size 1;#X offset 16;#X inactive 0;#X itemtype 1;#X flagmode 0;#X set 0;#X done;#P objectname Renderthreshold_toggle;#P window linecount 3;#P hidden newex 688 671 274 196617 jcom.parameter rendermode/threshold/active @type msg_toggle @repetitions 0 @description "when ticked\\\, renderthreshold is active";#P objectname reflections/airfilter[2];#P window linecount 1;#P hidden newex 688 651 140 196617 pvar Renderthreshold_toggle;#P window linecount 4;#P hidden newex 686 589 277 196617 jcom.parameter rendermode/threshold @type msg_float @repetitions 0 @range 0. 1000. @clipmode both @description "renders ony reflecitions above this amplitude value (full scale range)";#P objectname microphones/direct/power[1];#P window linecount 3;#P hidden newex 686 520 297 196617 jcom.parameter rendermode/normalization/active @type msg_toggle @repetitions 0 @description "when ticked\\\, all calculated reflections are getting normalized to unity intensity";#P objectname reflections/airfilter[1];#P window linecount 1;#P hidden newex 686 570 107 196617 pvar Renderthreshold;#P hidden newex 686 500 90 196617 pvar unity_toggle;#P comment 457 607 74 196617 unity intensity;#B frgb 149 149 149;#P user radiogroup 441 606 42 16;#X size 1;#X offset 16;#X inactive 0;#X itemtype 1;#X flagmode 0;#X set 0;#X done;#P objectname unity_toggle;#P comment 303 660 136 196617 Renderthreshold [ä FSR]:;#B frgb 149 149 149;#P flonum 421 658 28 9 0. 1000. 8227 3 181 181 181 221 221 221 255 255 255 0 0 0;#P objectname Renderthreshold;#P window linecount 2;#P hidden newex 669 399 349 196617 jcom.parameter source/orientation/mode @type msg_symbol @repetitions 1 @description "source orientation mode (center\\\, static\\\, or follow)";#P objectname room/absorption[6];#P window linecount 1;#P hidden newex 669 378 121 196617 pvar orientation_menu 2;#P user ubumenu 458 557 57 196617 0 0 1 0;#X setrgb 181 181 181 25 25 25 50 50 50 4 4 4 141 141 141 112 112 112;#X add static;#X add center;#X add follow;#X prefix_set 0 0 <none> 0;#P objectname orientation_menu;#P outlet 560 685 15 0;#P window linecount 0;#P newex 560 626 47 196617 pcontrol;#N vpatcher 590 235 892 457;#P origin 89 23;#P window setfont "Sans Serif" 9.;#P window linecount 0;#P comment 10 123 16 196617 0.5;#B frgb 149 149 149;#P newex -111 69 48 196617 loadbang;#P comment 87 207 109 196617 confirm with "create";#B frgb 149 149 149;#P message 157 22 35 196617 flip_y;#P message 121 22 35 196617 flip_x;#P comment 12 181 14 196617 0;#B frgb 149 149 149;#P comment 12 68 15 196617 1;#B frgb 149 149 149;#P comment 193 192 33 196617 270 ¼;#B frgb 149 149 149;#P message 67 22 53 196617 normalize;#P message 24 22 42 196617 smooth;#P hidden message -109 91 74 196617 gridstep_x 45;#P comment 133 192 31 196617 180 ¼;#B frgb 149 149 149;#P comment 78 192 26 196617 90 ¼;#B frgb 149 149 149;#P comment 254 192 37 196617 359 ¼;#B frgb 149 149 149;#P comment 24 192 23 196617 0 ¼;#B frgb 149 149 149;#N vpatcher 50 119 1066 701;#P origin 81 -88;#P window setfont "Sans Serif" 9.;#P window linecount 0;#P message 12 148 56 196617 name none;#P message 488 61 33 196617 clear;#P newex 12 36 40 196617 t b b b;#P outlet 106 266 15 0;#P window linecount 1;#P message 106 92 59 196617 0 1 \, 359 1;#P inlet 39 -7 15 0;#P connect 0 0 3 0;#P connect 3 0 5 0;#P connect 3 1 1 0;#P connect 5 0 2 0;#P fasten 4 0 2 0 493 153 111 153;#P connect 1 0 2 0;#P fasten 3 2 4 0 47 57 493 57;#P pop;#P hidden newobj 438 98 37 196617 p data;#P newex 127 230 27 196617 - 1;#P message 25 39 35 196617 write;#N thispatcher;#Q window flags nogrow close zoom nofloat;#Q window size 590 235 892 457;#Q window title;#Q window exec;#Q savewindow 1;#Q end;#P newobj 428 216 61 196617 thispatcher;#P window linecount 1;#P hidden message 245 171 273 196617 window flags nogrow \, savewindow 1 \, window exec;#P hidden message 211 207 262 196617 window flags grow \, window exec;#P window linecount 0;#N vpatcher 10 59 610 459;#P window setfont "Sans Serif" 9.;#P newex 131 94 53 196617 * 10000.;#P newex 91 71 50 196617 t b f;#P newex 91 119 27 196617 i;#P newex 91 140 50 196617 pack 0 0.;#P newex 50 50 51 196617 zl slice 1;#P inlet 108 99 15 0;#P inlet 50 30 15 0;#P outlet 91 162 15 0;#P connect 1 0 3 0;#P connect 3 1 6 0;#P connect 6 0 5 0;#P connect 5 0 4 0;#P connect 4 0 0 0;#P connect 2 0 5 1;#P connect 6 1 7 0;#P connect 7 0 4 1;#P pop;#P newobj 97 260 40 196617 p stuff;#P window linecount 1;#N vpatcher 50 119 650 519;#P origin 81 -117;#P window setfont "Sans Serif" 9.;#P window linecount 0;#P message 12 177 81 196617 name Clarinette;#P message 487 88 33 196617 clear;#P newex 12 65 40 196617 t b b b;#P outlet 106 295 15 0;#P window linecount 6;#P message 106 102 385 196617 0 1. \, 1 1. \, 10 0.9661 \, 20 0.8511 \, 30 0.6237 \, 40 0.4842 \, 50 0.3758 \, 60 0.257 \, 70 0.2512 \, 80 0.2818 \, 90 0.3162 \, 100 0.3631 \, 110 0.3758 \, 120 0.4315 \, 130 0.4842 \, 140 0.5248 \, 150 0.5012 \, 160 0.5309 \, 170 0.537 \, 180 0.5623 \, 190 0.537 \, 200 0.5309 \, 210 0.5012 \, 220 0.5248 \, 230 0.4842 \, 240 0.4315 \, 250 0.3758 \, 260 0.3631 \, 270 0.3162 \, 280 0.2818 \, 290 0.2512 \, 300 0.257 \, 310 0.3758 \, 320 0.4842 \, 330 0.6237 \, 340 0.8511 \, 350 0.9661 \, 359 1.;#P inlet 39 22 15 0;#P connect 0 0 3 0;#P connect 3 0 5 0;#P connect 3 1 1 0;#P connect 1 0 2 0;#P fasten 4 0 2 0 492 182 111 182;#P connect 5 0 2 0;#P fasten 3 2 4 0 47 86 492 86;#P pop;#P hidden newobj 391 97 37 196617 p data;#N vpatcher 50 119 650 519;#P origin 81 -116;#P window setfont "Sans Serif" 9.;#P window linecount 0;#P message 12 176 74 196617 name Trumpet;#P message 488 89 33 196617 clear;#P newex 12 64 40 196617 t b b b;#P outlet 106 294 15 0;#P window linecount 6;#P message 106 100 373 196617 0 1. \, 1 1. \, 10 0.9661 \, 20 0.955 \, 30 0.881 \, 40 0.8318 \, 50 0.7943 \, 60 0.7586 \, 70 0.6839 \, 80 0.6166 \, 90 0.6026 \, 100 0.5754 \, 110 0.5559 \, 120 0.5248 \, 130 0.507 \, 140 0.4624 \, 150 0.4519 \, 160 0.4217 \, 170 0.4169 \, 180 0.3846 \, 190 0.4169 \, 200 0.4217 \, 210 0.4519 \, 220 0.4624 \, 230 0.507 \, 240 0.5248 \, 250 0.5559 \, 260 0.5754 \, 270 0.6026 \, 280 0.6166 \, 290 0.6839 \, 300 0.7586 \, 310 0.7943 \, 320 0.8318 \, 330 0.881 \, 340 0.955 \, 350 0.9661 \, 359 1.;#P inlet 39 21 15 0;#P connect 0 0 3 0;#P connect 3 0 5 0;#P connect 3 1 1 0;#P connect 5 0 2 0;#P fasten 4 0 2 0 493 181 111 181;#P connect 1 0 2 0;#P fasten 3 2 4 0 47 85 493 85;#P pop;#P hidden newobj 342 97 37 196617 p data;#N vpatcher 50 119 650 519;#P outlet 164 180 15 0;#P inlet 166 71 15 0;#P connect 0 0 1 0;#P pop;#P hidden newobj 293 118 37 196617 p thru;#N vpatcher 476 204 1076 604;#P origin 81 -87;#P window setfont "Sans Serif" 9.;#P window linecount 0;#P message 12 147 80 196617 name Trombone;#P message 488 60 33 196617 clear;#P newex 12 35 40 196617 t b b b;#P outlet 106 265 15 0;#P window linecount 6;#P message 106 69 372 196617 0 1 \, 1 1 \, 10 0.9661 \, 20 0.955 \, 30 0.8222 \, 40 0.7674 \, 50 0.6998 \, 60 0.5623 \, 70 0.4842 \, 80 0.389 \, 90 0.3162 \, 100 0.302 \, 110 0.2818 \, 120 0.2692 \, 130 0.26 \, 140 0.2399 \, 150 0.2317 \, 160 0.2138 \, 170 0.1905 \, 180 0.1778 \, 190 0.1905 \, 200 0.2138 \, 210 0.2317 \, 220 0.2399 \, 230 0.26 \, 240 0.2692 \, 250 0.2818 \, 260 0.302 \, 270 0.3162 \, 280 0.389 \, 290 0.4842 \, 300 0.5623 \, 310 0.6998 \, 320 0.7674 \, 330 0.8222 \, 340 0.955 \, 350 0.9661 \, 359 1;#P inlet 39 -8 15 0;#P connect 0 0 3 0;#P connect 3 0 5 0;#P connect 3 1 1 0;#P connect 1 0 2 0;#P fasten 4 0 2 0 493 152 111 152;#P connect 5 0 2 0;#P fasten 3 2 4 0 47 56 493 56;#P pop;#P hidden newobj 293 97 37 196617 p data;#P hidden newex 294 76 185 196617 select trombone trumpet clarinet none;#P user ubumenu 170 39 100 196617 0 1 1 0;#X add Preset;#X add none;#X add trombone;#X add trumpet;#X add clarinet;#X prefix_set 0 0 <none> 0;#P newex 241 260 169 196617 prepend /source/directivity/create;#P message 61 39 39 196617 create;#B color 5;#P message 135 39 33 196617 clear;#P message 102 39 30 196617 read;#P user jsui 25 59 245 131 1 0 0 ej.function.js;#J statemessage CreateNFunctions 2 none 50 0. 1. 0. 359. nan nan 0.7943 nan;#J statemessage legend 1;#J statemessage grid 3;#J statemessage snap2grid 0;#J statemessage hiddenpoint 0;#J statemessage clickadd 1;#J statemessage clickmove 1;#J statemessage autosustain 0;#J statemessage timedisplay 0;#J statemessage autocursor 1;#J statemessage bordersync 1;#J statemessage ghost 20;#J statemessage notifyrecalled 0;#J statemessage mousereport 1;#J statemessage numcurvepoints 12;#J statemessage movemode 0;#J statemessage mode 1;#J statemessage SetColor 0 brgb 204 204 204;#J statemessage SetColor 0 frgb 82 82 82;#J statemessage SetColor 0 rgb2 84 84 84;#J statemessage SetColor 0 rgb3 255 0 0;#J statemessage SetColor 0 rgb4 51 51 51;#J statemessage SetColor 0 rgb5 128 128 128;#J statemessage SetColor 0 rgb6 107 107 107;#J statemessage SetColor 1 brgb 204 204 204;#J statemessage SetColor 1 frgb 82 82 82;#J statemessage SetColor 1 rgb2 107 107 107;#J statemessage SetColor 1 rgb3 255 0 0;#J statemessage SetColor 1 rgb4 51 51 51;#J statemessage SetColor 1 rgb5 128 128 128;#J statemessage SetColor 1 rgb6 107 107 107;#J statemessage fsaa 1;#J statemessage redrawon;#P objectname ej.lui-311017;#P message 5 322 205 196617 /source/directivity/create $0-directivity;#P newex 241 279 62 196617 prepend set;#P newex 241 241 121 196617 loadmess $0-directivity;#N vtable 360 50 119 489 454 204 10000 $0-directivity;#P newobj 97 283 102 196617 table $0-directivity;#P inlet -37 261 15 0;#P outlet 5 344 15 0;#P hidden newex 338 337 88 196617 bgcolor 80 80 80;#P newex 5 257 44 196617 del 100;#P hidden button -13 187 15 0;#P hidden newex -13 207 44 196617 uzi 360;#P connect 41 0 32 0;#P hidden fasten 13 0 1 0 66 56 -8 56;#P hidden connect 1 0 0 0;#P hidden connect 0 1 2 0;#P fasten 8 0 9 0 246 309 10 309;#P connect 2 0 9 0;#P connect 9 0 4 0;#P hidden connect 26 0 10 0;#P hidden connect 39 0 10 0;#P hidden connect 38 0 10 0;#P hidden connect 34 0 10 0;#P hidden connect 33 0 10 0;#P hidden connect 32 0 10 0;#P fasten 25 0 10 0 30 56 30 56;#P fasten 11 0 10 0 107 56 30 56;#P fasten 12 0 10 0 140 56 30 56;#P hidden fasten 18 0 10 0 298 143 275 143 275 35 30 35;#P hidden fasten 10 0 21 0 30 198 102 198;#P connect 21 0 6 0;#P hidden connect 0 2 26 0;#P fasten 26 0 21 1 132 252 132 252;#P connect 7 0 14 0;#P connect 14 0 8 0;#P hidden connect 16 0 17 0;#P hidden connect 17 0 18 0;#P hidden connect 19 0 18 0;#P hidden connect 20 0 18 0;#P hidden fasten 27 0 18 0 443 116 298 116;#P hidden fasten 15 1 16 0 220 56 299 56;#P hidden connect 16 1 19 0;#P hidden connect 16 2 20 0;#P hidden connect 22 0 24 0;#P hidden connect 23 0 24 0;#P hidden connect 16 3 27 0;#P pop;#P newobj 560 648 110 196617 p "source directivity";#P user jsui 466 629 52 19 1 0 0 jsui_textbutton.js "Get Info" 225 225 225 68 68 68;#P objectname allreport;#P user jsui 458 576 57 17 1 0 0 jsui_textbutton.js directivity 225 225 225 68 68 68;#P hidden message 560 606 30 196617 open;#P window linecount 1;#P hidden newex 663 454 90 196617 pvar orientationA;#P window setfont "Sans Serif" 10.;#P comment 436 464 97 196618 Source orientation;#B frgb 149 149 149;#P window setfont "Sans Serif" 9.;#P number 459 540 32 9 0 0 8224 3 181 181 181 221 221 221 222 222 222 0 0 0;#P objectname orientationA;#N vpatcher 540 187 1140 587;#P window setfont "Sans Serif" 9.;#P newex 50 70 31 196617 % 1.;#P newex 50 50 120 196617 expr ($i1 + 180) / 360.;#P inlet 50 30 15 0;#P outlet 50 92 15 0;#P connect 1 0 2 0;#P connect 2 0 3 0;#P connect 3 0 0 0;#P pop;#P hidden newobj 663 472 53 196617 p convert;#N vpatcher 10 59 610 459;#P outlet 179 108 15 0;#P window setfont "Sans Serif" 9.;#P newex 50 50 119 196617 expr $f1 * 360. - 180;#P newex 50 71 62 196617 prepend set;#P inlet 50 30 15 0;#P outlet 50 93 15 0;#P connect 1 0 3 0;#P connect 3 0 2 0;#P connect 2 0 0 0;#P connect 3 0 4 0;#P pop;#P hidden newobj 664 435 53 196617 p convert;#P user jsui 457 481 58 58 1 0 0 jsui_360dial.js;#P window linecount 4;#P hidden newex 754 435 200 196617 jcom.parameter source/orientation/azimuth @type msg_int @range -180 180 @clipmode both @description "orientation of the sound source (azimuth)";#P objectname source/orientation/azimuth;#P window linecount 0;#P newex 361 877 61 196617 delay 1000;#P newex 356 857 50 196617 deferlow;#P newex 355 836 48 196617 loadbang;#N vpatcher 20 74 620 474;#P button 203 217 15 0;#P window setfont "Sans Serif" 9.;#P window linecount 0;#P newex 203 235 98 196617 loadmess separator;#P inlet 143 50 15 0;#P newex 142 94 246 196617 t b f;#P button 114 133 15 0;#P window linecount 1;#P newex 103 158 40 196617 uzi 24;#P newex 103 285 285 196617 zl join;#P newex 103 217 95 196617 append /position/z;#P newex 103 195 110 196617 prepend microphones/;#P newex 103 262 51 196617 tosymbol;#P outlet 103 333 15 0;#P connect 6 0 5 0;#P connect 5 2 2 0;#P connect 2 0 3 0;#P connect 3 0 1 0;#P fasten 9 0 1 0 208 257 108 257;#P connect 1 0 4 0;#P connect 4 0 0 0;#P connect 7 0 6 0;#P connect 8 0 7 0;#P connect 10 0 9 0;#P connect 7 1 4 1;#P pop;#P newobj 38 976 48 196617 p all_ele;#P newex 243 917 62 196617 prepend set;#P window linecount 1;#N vpatcher 676 279 1276 679;#P window setfont "Sans Serif" 9.;#P window linecount 1;#P message 314 103 31 196617 0.33;#P message 371 102 23 196617 0.3;#P message 200 102 23 196617 0.7;#P message 257 102 23 196617 0.5;#P message 428 102 17 196617 0.;#P window linecount 0;#P message 143 102 23 196617 1.;#P newex 143 65 352 196617 route omni subcardioid cardioid supercardioid hypercardioid figure-eight;#P outlet 143 270 15 0;#P inlet 143 40 15 0;#P comment 292 215 227 196617 the definition of super- and hyper-cardioid vary from company to company;#P connect 1 0 3 0;#P connect 3 0 4 0;#P connect 4 0 2 0;#P connect 7 0 2 0;#P connect 6 0 2 0;#P connect 8 0 2 0;#P connect 5 0 2 0;#P connect 9 0 2 0;#P connect 3 1 7 0;#P connect 3 2 6 0;#P connect 3 3 9 0;#P connect 3 4 8 0;#P connect 3 5 5 0;#P pop;#P newobj 243 895 73 196617 p mic-presets;#P objectname mic-preset;#P window linecount 0;#N vpatcher 749 58 1349 458;#P outlet 123 260 15 0;#P inlet 211 54 15 0;#P window setfont "Sans Serif" 9.;#P hidden message 375 121 64 196617 rgb2 66 0 2;#P hidden message 27 117 94 196617 rgb2 164 153 128;#P hidden message 253 117 92 196617 frgb 181 181 181;#P hidden message 137 120 93 196617 brgb 100 100 100;#P outlet 387 261 15 0;#P connect 5 0 3 0;#P connect 1 0 6 0;#P connect 3 0 6 0;#P connect 2 0 6 0;#P connect 5 0 1 0;#P connect 5 0 2 0;#P connect 5 0 4 0;#P connect 2 0 0 0;#P connect 1 0 0 0;#P connect 4 0 0 0;#P pop;#P hidden newobj 570 440 46 196617 p colors;#P hidden newex 571 400 48 196617 loadbang;#P hidden newex 571 419 50 196617 deferlow;#N vpatcher 20 74 620 474;#P window setfont "Sans Serif" 9.;#P window linecount 0;#P message 265 78 14 196617 1;#P inlet 269 49 15 0;#P window linecount 1;#P newex 104 133 47 196617 gate 0 0;#P window linecount 0;#P newex 160 114 62 196617 prepend set;#P button 180 236 15 0;#P window linecount 1;#P newex 196 235 98 196617 loadmess separator;#P inlet 143 50 15 0;#P window linecount 0;#P newex 142 94 29 196617 t b f;#P window linecount 1;#P newex 103 158 40 196617 uzi 24;#P message 306 194 42 196617 0.;#P newex 103 285 38 196617 zl join;#P newex 103 212 126 196617 append /directivity/ratio;#P newex 103 190 110 196617 prepend microphones/;#P newex 103 262 51 196617 tosymbol;#P outlet 103 333 15 0;#P connect 12 0 6 0;#P connect 6 2 2 0;#P connect 2 0 3 0;#P connect 3 0 1 0;#P fasten 9 0 1 0 201 257 108 257;#P connect 1 0 4 0;#P connect 4 0 0 0;#P connect 14 0 12 0;#P fasten 5 0 4 1 311 281 136 281;#P connect 7 0 12 1;#P connect 8 0 7 0;#P connect 7 1 11 0;#P connect 10 0 9 0;#P connect 13 0 14 0;#P connect 11 0 5 0;#P connect 6 2 5 0;#P pop;#P newobj 246 845 49 196617 p all_Dir;#N vpatcher 20 74 620 474;#P button 180 236 15 0;#P window setfont "Sans Serif" 9.;#P window linecount 0;#P newex 196 235 98 196617 loadmess separator;#P inlet 143 50 15 0;#P newex 142 94 286 196617 t b s;#P button 114 133 15 0;#P window linecount 1;#P newex 103 158 40 196617 uzi 24;#P newex 103 285 325 196617 zl join;#P newex 103 212 133 196617 append /directivity/preset;#P newex 103 190 110 196617 prepend microphones/;#P newex 103 262 51 196617 tosymbol;#P outlet 103 333 15 0;#P connect 6 0 5 0;#P connect 5 2 2 0;#P connect 2 0 3 0;#P connect 3 0 1 0;#P fasten 9 0 1 0 201 257 108 257;#P connect 1 0 4 0;#P connect 4 0 0 0;#P connect 7 0 6 0;#P connect 8 0 7 0;#P connect 10 0 9 0;#P connect 7 1 4 1;#P pop;#P newobj 242 947 78 196617 p all_Dir_menu;#P newex 243 870 104 196617 pvar All_dir_menu 2;#N vpatcher 20 74 620 474;#P inlet 248 45 15 0;#P window setfont "Sans Serif" 9.;#P window linecount 0;#P message 54 128 14 196617 1;#P newex 103 136 47 196617 gate 0 0;#P newex 143 72 68 196617 jcom.atomidi;#P button 196 217 15 0;#P newex 196 235 98 196617 loadmess separator;#P inlet 143 50 15 0;#P newex 142 94 233 196617 t b f;#P window linecount 1;#P newex 103 158 40 196617 uzi 24;#P newex 103 285 272 196617 zl join;#P newex 103 217 92 196617 append /gain/midi;#P newex 103 195 110 196617 prepend microphones/;#P newex 103 262 51 196617 tosymbol;#P outlet 103 333 15 0;#P connect 13 0 12 0;#P connect 12 0 11 0;#P connect 11 0 5 0;#P connect 5 2 2 0;#P connect 2 0 3 0;#P connect 3 0 1 0;#P fasten 8 0 1 0 201 257 108 257;#P connect 1 0 4 0;#P connect 4 0 0 0;#P connect 6 0 11 1;#P connect 10 0 6 0;#P connect 7 0 10 0;#P connect 9 0 8 0;#P connect 6 1 4 1;#P pop;#P newobj 374 915 75 196617 p all_gain_mic;#P outlet 117 978 15 0;#P newex 38 957 58 196617 pvar All_Z;#P newex 13 930 59 196617 pvar All_Y;#P newex 14 910 59 196617 pvar All_X;#P newex 158 914 60 196617 pvar All_A;#N vpatcher 20 74 620 474;#P button 196 217 15 0;#P window setfont "Sans Serif" 9.;#P window linecount 0;#P newex 196 235 98 196617 loadmess separator;#P inlet 143 50 15 0;#P newex 142 94 178 196617 t b f;#P button 114 133 15 0;#P window linecount 1;#P newex 103 158 40 196617 uzi 24;#P newex 103 285 217 196617 zl join;#P window linecount 3;#P newex 103 217 86 196617 append /orientation/azimuthal;#P window linecount 1;#P newex 103 195 110 196617 prepend microphones/;#P newex 103 262 51 196617 tosymbol;#P outlet 103 333 15 0;#P connect 6 0 5 0;#P connect 5 2 2 0;#P connect 2 0 3 0;#P connect 3 0 1 0;#P fasten 9 0 1 0 201 257 108 257;#P connect 1 0 4 0;#P connect 4 0 0 0;#P connect 7 0 6 0;#P connect 8 0 7 0;#P connect 10 0 9 0;#P connect 7 1 4 1;#P pop;#P newobj 158 935 48 196617 p all_azi;#P newex 98 914 58 196617 pvar All_E;#N vpatcher 20 74 620 474;#P button 196 217 15 0;#P window setfont "Sans Serif" 9.;#P window linecount 0;#P newex 196 235 98 196617 loadmess separator;#P inlet 143 50 15 0;#P newex 142 94 246 196617 t b f;#P button 114 133 15 0;#P window linecount 1;#P newex 103 158 40 196617 uzi 24;#P newex 103 285 285 196617 zl join;#P window linecount 3;#P newex 103 217 88 196617 append /orientation/elevation;#P window linecount 1;#P newex 103 195 110 196617 prepend microphones/;#P newex 103 262 51 196617 tosymbol;#P outlet 103 333 15 0;#P connect 6 0 5 0;#P connect 5 2 2 0;#P connect 2 0 3 0;#P connect 3 0 1 0;#P fasten 9 0 1 0 201 257 108 257;#P connect 1 0 4 0;#P connect 4 0 0 0;#P connect 7 0 6 0;#P connect 8 0 7 0;#P connect 10 0 9 0;#P connect 7 1 4 1;#P pop;#P newobj 98 935 48 196617 p all_ele;#P user ubumenu 335 443 71 196617 0 0 1 0;#X setrgb 181 181 181 25 25 25 50 50 50 4 4 4 141 141 141 112 112 112;#X add ---;#X add omni;#X add subcardioid;#X add cardioid;#X add supercardioid;#X add hypercardioid;#X add figure-eight;#X prefix_set 0 0 <none> 0;#P objectname All_dir_menu;#P window setfont "Sans Serif" 12.;#P window linecount 1;#P comment 405 443 13 196620 ||;#B frgb 198 0 65;#P bpatcher 418 445 36 13 0 0 jcom.numberslider.mxt 0 0. 0. 1. @size 40 14;#P objectname All_gain_mic;#P window setfont "Sans Serif" 9.;#P flonum 170 443 35 9 -20. 20. 8227 3 198 198 198 221 221 221 222 222 222 0 0 0;#P objectname All_Z;#P flonum 134 443 35 9 0 0 8224 3 198 198 198 221 221 221 222 222 222 0 0 0;#P objectname All_Y;#P bpatcher 298 445 36 13 0 0 jcom.numberslider.mxt 0 0. 0. 1. @size 40 14 @frgb 181 181 181;#P objectname All_dir;#P window setfont "Sans Serif" 12.;#P comment 282 443 13 196620 ||;#B frgb 198 0 65;#P window setfont "Sans Serif" 9.;#P flonum 251 443 32 9 -90. 90. 8227 3 198 198 198 221 221 221 222 222 222 0 0 0;#P objectname All_E;#P flonum 218 443 33 9 -180. 0 8225 3 198 198 198 221 221 221 222 222 222 0 0 0;#P objectname All_A;#P window setfont "Sans Serif" 12.;#P comment 205 443 13 196620 ||;#B frgb 198 0 65;#P window setfont "Sans Serif" 9.;#P flonum 98 443 35 9 0 0 8224 3 198 198 198 221 221 221 222 222 222 0 0 0;#P objectname All_X;#P comment 36 445 52 196617 quick pick;#B frgb 149 149 149;#P bpatcher 3 426 523 17 0 0 jcom.sur.vimic_mic.mxt 0 24;#P objectname jcom.sur.vimic_mic.mxt[16];#P bpatcher 3 409 523 17 0 0 jcom.sur.vimic_mic.mxt 0 23;#P objectname jcom.sur.vimic_mic.mxt[17];#P bpatcher 3 392 523 17 0 0 jcom.sur.vimic_mic.mxt 0 22;#P objectname jcom.sur.vimic_mic.mxt[18];#P bpatcher 3 375 523 17 0 0 jcom.sur.vimic_mic.mxt 0 21;#P objectname jcom.sur.vimic_mic.mxt[19];#P bpatcher 3 358 523 17 0 0 jcom.sur.vimic_mic.mxt 0 20;#P objectname jcom.sur.vimic_mic.mxt[20];#P bpatcher 3 341 523 17 0 0 jcom.sur.vimic_mic.mxt 0 19;#P objectname jcom.sur.vimic_mic.mxt[21];#P bpatcher 3 324 523 17 0 0 jcom.sur.vimic_mic.mxt 0 18;#P objectname jcom.sur.vimic_mic.mxt[22];#P bpatcher 3 307 523 17 0 0 jcom.sur.vimic_mic.mxt 0 17;#P objectname jcom.sur.vimic_mic.mxt[23];#P flonum 399 507 27 9 0. 40. 8227 3 181 181 181 221 221 221 255 255 255 0 0 0;#P objectname dirPow[2];#P flonum 399 493 27 9 0. 40. 8227 3 181 181 181 221 221 221 255 255 255 0 0 0;#P objectname dirPow[1];#P window linecount 0;#P comment 295 510 100 196617 2nd order reflection:;#B frgb 149 149 149;#P comment 296 495 99 196617 1st order reflection:;#B frgb 149 149 149;#P comment 331 480 64 196617 direct sound:;#B frgb 149 149 149;#P flonum 184 507 27 9 0. 40. 8227 3 181 181 181 221 221 221 255 255 255 0 0 0;#P objectname disPow2;#P flonum 184 493 27 9 0. 40. 8227 3 181 181 181 221 221 221 255 255 255 0 0 0;#P objectname disPow1;#P comment 79 509 100 196617 2nd order reflection:;#B frgb 149 149 149;#P comment 80 494 99 196617 1st order reflection:;#B frgb 149 149 149;#P comment 115 480 64 196617 direct sound:;#B frgb 149 149 149;#P comment 363 608 58 196617 Temp [¼C]:;#B frgb 149 149 149;#P flonum 419 607 28 9 -20. 40. 8227 3 181 181 181 221 221 221 255 255 255 0 0 0;#P objectname temp;#P window linecount 3;#P newex 1092 876 292 196617 jcom.parameter temperature @type msg_float @repetitions 1 @range -20. 30. @clipmode low @description "Temperature in Celsius to calculate the speed of sound";#P objectname temperature;#P window linecount 1;#P newex 1034 887 56 196617 pvar temp;#P window linecount 0;#P comment 339 643 82 196617 Renderintervall:;#B frgb 149 149 149;#P number 420 641 28 9 1 0 8225 3 181 181 181 221 221 221 255 255 255 0 0 0;#P objectname Renderintervall;#P hidden newex 983 842 104 196617 pvar Renderintervall;#P window linecount 3;#P newex 1093 827 379 196617 jcom.parameter renderintervall @type msg_int @range 1 100 @clipmode low @description "tells ViMiC over how many signalblocks a change in position is interpolated - shorter time leads to faster transition and stronger doppler effect";#P objectname renderintervall;#P window linecount 0;#P comment 296 21 37 196617 ratio;#B frgb 181 181 181;#P comment 435 8 56 196617 Gain;#B frgb 181 181 181;#P user ubumenu 229 643 53 196617 0 0 1 0;#X setrgb 181 181 181 25 25 25 50 50 50 4 4 4 141 141 141 112 112 112;#X add ---;#X add zero;#X add full;#X add audience;#X add carpet;#X add brick;#X add sand;#X add metal;#X add trees;#X add grass;#X prefix_set 0 0 <none> 0;#P objectname ceiling_menu;#P user ubumenu 229 626 53 196617 0 0 1 0;#X setrgb 181 181 181 25 25 25 50 50 50 4 4 4 141 141 141 112 112 112;#X add ---;#X add zero;#X add full;#X add audience;#X add carpet;#X add brick;#X add sand;#X add metal;#X add trees;#X add grass;#X prefix_set 0 0 <none> 0;#P objectname floor_menu;#P user ubumenu 229 575 53 196617 0 0 1 0;#X setrgb 181 181 181 25 25 25 50 50 50 4 4 4 141 141 141 112 112 112;#X add ---;#X add zero;#X add full;#X add audience;#X add carpet;#X add brick;#X add sand;#X add metal;#X add trees;#X add grass;#X prefix_set 0 0 <none> 0;#P objectname right_menu;#P user ubumenu 229 558 53 196617 0 0 1 0;#X setrgb 181 181 181 25 25 25 50 50 50 4 4 4 141 141 141 112 112 112;#X add ---;#X add zero;#X add full;#X add audience;#X add carpet;#X add brick;#X add sand;#X add metal;#X add trees;#X add grass;#X prefix_set 0 0 <none> 0;#P objectname left_menu;#P user ubumenu 229 609 53 196617 0 0 1 0;#X setrgb 181 181 181 25 25 25 50 50 50 4 4 4 141 141 141 112 112 112;#X add ---;#X add zero;#X add full;#X add audience;#X add carpet;#X add brick;#X add sand;#X add metal;#X add trees;#X add grass;#X prefix_set 0 0 <none> 0;#P objectname rear_menu;#P newex 1387 600 101 196617 pvar ceiling_menu 2;#P newex 1538 653 82 196617 wall_properties;#P window linecount 2;#P newex 1387 622 312 196617 jcom.message room/absorption/ceiling/preset @type msg_symbol @repetitions 1 @description "absorption presets for the floor";#P objectname room/absorption[5];#P window linecount 1;#P newex 1378 491 94 196617 pvar floor_menu 2;#P newex 1529 544 82 196617 wall_properties;#P window linecount 2;#P newex 1378 513 305 196617 jcom.message room/absorption/floor/preset @type msg_symbol @repetitions 1 @description "absorption presets for the floor";#P objectname room/absorption[4];#P window linecount 1;#P newex 1358 326 94 196617 pvar right_menu 2;#P newex 1509 379 82 196617 wall_properties;#P window linecount 2;#P newex 1358 348 315 196617 jcom.message room/absorption/right/preset @type msg_symbol @repetitions 1 @description "absorption presets for the right wall";#P objectname room/absorption[3];#P window linecount 1;#P newex 1365 182 88 196617 pvar left_menu 2;#P newex 1516 235 82 196617 wall_properties;#P window linecount 2;#P newex 1365 204 309 196617 jcom.message room/absorption/left/preset @type msg_symbol @repetitions 1 @description "absorption presets for the left wall";#P objectname room/absorption[2];#P window linecount 1;#P newex 1356 68 92 196617 pvar rear_menu 2;#P newex 1537 122 82 196617 wall_properties;#P window linecount 2;#P newex 1356 90 313 196617 jcom.message room/absorption/rear/preset @type msg_symbol @repetitions 1 @description "absorption presets for the rear wall";#P objectname room/absorption[1];#P window linecount 1;#P newex 1357 -40 95 196617 pvar front_menu 2;#P window linecount 0;#P newex 1538 14 82 196617 wall_properties;#P window linecount 2;#P newex 1357 -18 316 196617 jcom.message room/absorption/front/preset @type msg_symbol @repetitions 1 @description "absorption presets for the front wall";#P objectname room/absorption;#P user ubumenu 229 592 53 196617 0 0 1 0;#X setrgb 181 181 181 25 25 25 50 50 50 4 4 4 141 141 141 112 112 112;#X add ---;#X add zero;#X add full;#X add audience;#X add carpet;#X add brick;#X add sand;#X add metal;#X add trees;#X add grass;#X prefix_set 0 0 <none> 0;#P objectname front_menu;#P window setfont "Sans Serif" 10.;#P window linecount 1;#P comment 141 529 88 196618 cross-frequency;#B frgb 149 149 149;#P window setfont "Sans Serif" 9.;#P number 73 663 41 9 500 19000 8227 3 181 181 181 221 221 221 222 222 222 0 0 0;#P objectname early_lowcut;#P window linecount 0;#P comment 3 665 69 196617 airfilter [Hz]:;#B frgb 149 149 149;#P flonum 250 663 28 9 0. 40. 8227 3 181 181 181 221 221 221 255 255 255 0 0 0;#P objectname roomsizeZ;#P flonum 222 663 28 9 0. 40. 8227 3 181 181 181 221 221 221 255 255 255 0 0 0;#P objectname roomsizeY;#P flonum 194 663 28 9 0. 40. 8227 3 181 181 181 221 221 221 255 255 255 0 0 0;#P objectname roomsizeX;#P comment 116 665 77 196617 roomize x/y/z:;#B frgb 149 149 149;#P window linecount 2;#P newex 1052 754 418 196617 jcom.parameter room/absorption/ceiling/high @type msg_float @repetitions 1 @range 0.1 99.9 @clipmode both @description "absorption for the high frequencies of the ceiling";#P objectname room/absorption/ceiling/high;#P newex 1052 709 416 196617 jcom.parameter room/absorption/ceiling/mid @type msg_float @repetitions 1 @range 0.1 99.9 @clipmode both @description "absorption for the mid frequencies of the ceiling";#P objectname room/absorption/ceiling/mid;#P newex 1052 663 416 196617 jcom.parameter room/absorption/ceiling/low @type msg_float @repetitions 1 @range 0.1 99.9 @clipmode both @description "absorption for the low frequencies of the ceiling";#P objectname room/absorption/ceiling/low;#P window linecount 1;#P newex 973 768 66 196617 pvar ceil_hg;#P newex 973 729 69 196617 pvar ceil_mg;#P newex 973 677 64 196617 pvar ceil_lg;#P window linecount 3;#P newex 1050 620 292 196617 jcom.parameter room/absorption/floor/high @type msg_float @repetitions 1 @range 0.1 99.9 @clipmode both @description "absorption for the high frequencies of the floor wall";#P objectname room/absorption/floor/high;#P newex 1050 575 290 196617 jcom.parameter room/absorption/floor/mid @type msg_float @repetitions 1 @range 0.1 99.9 @clipmode both @description "absorption for the mid frequencies of the floor wall";#P objectname room/absorption/floor/mid;#P newex 1050 529 290 196617 jcom.parameter room/absorption/floor/low @type msg_float @repetitions 1 @range 0.1 99.9 @clipmode both @description "absorption for the low frequencies of the floor wall";#P objectname room/absorption/floor/low;#P window linecount 1;#P newex 975 631 72 196617 pvar floor_hg;#P newex 971 595 75 196617 pvar floor_mg;#P newex 971 543 70 196617 pvar floor_lg;#P window linecount 3;#P newex 1049 486 292 196617 jcom.parameter room/absorption/right/high @type msg_float @repetitions 1 @range 0.1 99.9 @clipmode both @description "absorption for the high frequencies of the right wall";#P objectname room/absorption/right/high;#P newex 1049 441 290 196617 jcom.parameter room/absorption/right/mid @type msg_float @repetitions 1 @range 0.1 99.9 @clipmode both @description "absorption for the mid frequencies of the right wall";#P objectname room/absorption/right/mid;#P newex 1049 395 290 196617 jcom.parameter room/absorption/right/low @type msg_float @repetitions 1 @range 0.1 99.9 @clipmode both @description "absorption for the low frequencies of the right wall";#P objectname room/absorption/right/low;#P window linecount 1;#P newex 970 500 72 196617 pvar right_hg;#P newex 970 461 75 196617 pvar right_mg;#P newex 970 409 70 196617 pvar right_lg;#P window linecount 3;#P newex 1047 349 286 196617 jcom.parameter room/absorption/left/high @type msg_float @repetitions 1 @range 0.1 99.9 @clipmode both @description "absorption for the high frequencies of the left wall";#P objectname room/absorption/left/high;#P newex 1047 304 284 196617 jcom.parameter room/absorption/left/mid @type msg_float @repetitions 1 @range 0.1 99.9 @clipmode both @description "absorption for the mid frequencies of the left wall";#P objectname room/absorption/left/mid;#P newex 1047 258 284 196617 jcom.parameter room/absorption/left/low @type msg_float @repetitions 1 @range 0.1 99.9 @clipmode both @description "absorption for the low frequencies of the left wall";#P objectname room/absorption/left/low;#P window linecount 1;#P newex 968 363 66 196617 pvar left_hg;#P newex 968 324 69 196617 pvar left_mg;#P newex 968 272 64 196617 pvar left_lg;#P comment 185 545 45 196617 mid/high;#B frgb 149 149 149;#P comment 136 545 45 196617 low/mid;#B frgb 149 149 149;#P comment 101 545 26 196617 high;#B frgb 149 149 149;#P comment 70 545 26 196617 mids;#B frgb 149 149 149;#P comment 40 545 24 196617 low;#B frgb 149 149 149;#P window linecount 3;#P newex 1047 213 290 196617 jcom.parameter room/absorption/rear/high @type msg_float @repetitions 1 @range 0.1 99.9 @clipmode both @description "absorption for the high frequencies of the rear wall";#P objectname room/absorption/rear/high;#P newex 1047 167 288 196617 jcom.parameter room/absorption/rear/mid @type msg_float @repetitions 1 @range 0.1 99.9 @clipmode both @description "absorption for the mid frequencies of the rear wall";#P objectname room/absorption/rear/mid;#P newex 1047 121 288 196617 jcom.parameter room/absorption/rear/low @type msg_float @repetitions 1 @range 0.1 99.9 @clipmode both @description "absorption for the low frequencies of the rear wall";#P objectname room/absorption/rear/low;#P window linecount 1;#P newex 968 227 70 196617 pvar back_hg;#P newex 968 187 73 196617 pvar back_mg;#P newex 968 135 68 196617 pvar back_lg;#P window linecount 3;#P newex 1047 75 293 196617 jcom.parameter room/absorption/front/high @type msg_float @repetitions 1 @range 0.1 99.9 @clipmode both @description "absorption for the high frequencies of the front wall";#P objectname room/absorption/front/high;#P newex 1047 28 291 196617 jcom.parameter room/absorption/front/mid @type msg_float @repetitions 1 @range 0.1 99.9 @clipmode both @description "absorption for the mid frequencies of the front wall";#P objectname room/absorption/front/mid;#P newex 1047 -18 294 196617 jcom.parameter room/absorption/front/low @type msg_float @repetitions 1 @range 0.1 99.9 @clipmode both @description "absorption for the low frequencies of the front wall";#P objectname room/absorption/front/low;#P window linecount 1;#P newex 968 89 73 196617 pvar front_hg;#P newex 968 43 76 196617 pvar front_mg;#P window linecount 0;#P newex 968 -4 71 196617 pvar front_lg;#P flonum 103 644 28 9 0. 100. 8227 3 181 181 181 221 221 221 255 255 255 0 0 0;#P objectname ceil_hg;#P flonum 103 627 28 9 0. 100. 8227 3 181 181 181 221 221 221 255 255 255 0 0 0;#P objectname floor_hg;#P flonum 103 576 28 9 0. 100. 8227 3 181 181 181 221 221 221 255 255 255 0 0 0;#P objectname right_hg;#P flonum 103 559 28 9 0. 100. 8227 3 181 181 181 221 221 221 255 255 255 0 0 0;#P objectname left_hg;#P flonum 103 610 28 9 0. 100. 8227 3 181 181 181 221 221 221 255 255 255 0 0 0;#P objectname back_hg;#P flonum 103 592 28 9 0. 100. 8227 3 181 181 181 221 221 221 255 255 255 0 0 0;#P objectname front_hg;#P flonum 73 644 28 9 0. 100. 8227 3 181 181 181 221 221 221 255 255 255 0 0 0;#P objectname ceil_mg;#P flonum 73 627 28 9 0. 100. 8227 3 181 181 181 221 221 221 255 255 255 0 0 0;#P objectname floor_mg;#P flonum 73 576 28 9 0. 100. 8227 3 181 181 181 221 221 221 255 255 255 0 0 0;#P objectname right_mg;#P flonum 73 559 28 9 0. 100. 8227 3 181 181 181 221 221 221 255 255 255 0 0 0;#P objectname left_mg;#P flonum 73 610 28 9 0. 100. 8227 3 181 181 181 221 221 221 255 255 255 0 0 0;#P objectname back_mg;#P flonum 73 592 28 9 0. 100. 8227 3 181 181 181 221 221 221 255 255 255 0 0 0;#P objectname front_mg;#P flonum 42 644 28 9 0. 100. 8227 3 181 181 181 221 221 221 255 255 255 0 0 0;#P objectname ceil_lg;#P flonum 42 627 28 9 0. 100. 8227 3 181 181 181 221 221 221 255 255 255 0 0 0;#P objectname floor_lg;#P flonum 42 576 28 9 0. 100. 8227 3 181 181 181 221 221 221 255 255 255 0 0 0;#P objectname right_lg;#P flonum 42 559 28 9 0. 100. 8227 3 181 181 181 221 221 221 255 255 255 0 0 0;#P objectname left_lg;#P flonum 42 610 28 9 0. 100. 8227 3 181 181 181 221 221 221 255 255 255 0 0 0;#P objectname back_lg;#P window linecount 1;#P comment 2 646 40 196617 Ceiling:;#B frgb 149 149 149;#P comment 8 629 34 196617 Floor:;#B frgb 149 149 149;#P comment 8 579 34 196617 Right:;#B frgb 149 149 149;#P comment 12 562 29 196617 Left:;#B frgb 149 149 149;#P comment 10 612 31 196617 Back:;#B frgb 149 149 149;#P comment 7 594 34 196617 front:;#B frgb 149 149 149;#P window setfont "Sans Serif" 12.;#P comment 2 6 86 196620 Microphones:;#B frgb 149 149 149;#P window setfont "Sans Serif" 10.;#P comment 34 529 104 196618 wall absorption [%];#B frgb 149 149 149;#P window setfont "Sans Serif" 9.;#P flonum 42 592 28 9 0. 100. 8227 3 181 181 181 221 221 221 255 255 255 0 0 0;#P objectname front_lg;#P user panel 1 526 285 160;#X brgb 80 80 80;#X frgb 255 255 255;#X border 1;#X rounded 0;#X shadow 0;#X done;#P window linecount 0;#P newex 428 753 107 196617 pvar xfade_threshold;#P number 388 566 32 9 0 0 8225 3 181 181 181 221 221 221 222 222 222 0 0 0;#P objectname xfade_threshold;#P comment 287 568 83 196617 fading threshold:;#B frgb 149 149 149;#P newex 446 729 92 196617 pvar xfade_length;#P number 388 550 32 9 0 0 8225 3 181 181 181 221 221 221 222 222 222 0 0 0;#P objectname xfade_length;#P window linecount 1;#P comment 310 552 61 196617 fading time:;#B frgb 149 149 149;#P window setfont "Sans Serif" 12.;#P comment 291 530 111 196620 X-FADE settings:;#B frgb 149 149 149;#P window setfont "Sans Serif" 9.;#P comment 294 584 77 196617 fading function:;#B frgb 149 149 149;#P user ubumenu 371 583 60 196617 0 0 1 0;#X setrgb 181 181 181 25 25 25 50 50 50 4 4 4 141 141 141 112 112 112;#X add cosine;#X add cosine_squared;#X add linear;#X add tanh;#X add sqrt;#X prefix_set 0 0 <none> 0;#P objectname fadefunction;#P user panel 287 526 146 77;#X brgb 80 80 80;#X frgb 255 255 255;#X border 1;#X rounded 0;#X shadow 0;#X done;#P newex 433 809 98 196617 pvar fadefunction 2;#P window linecount 2;#P newex 542 803 403 196617 jcom.parameter rendermode/xfade/fadefunction @type msg_symbol @description "fading function of the crossfade for the x-fade mode";#P objectname rendermode/xfade/fadefunction;#P window linecount 3;#P newex 543 758 329 196617 jcom.parameter rendermode/xfade/threshold @type msg_int @range 0 4096 @repetitions 0 @clipmode low @description "distance in samples before a crossfade in the x-fade mode is activated";#P objectname rendermode/xfade/threshold;#P window linecount 2;#P newex 542 721 408 196617 jcom.parameter rendermode/xfade/fadelength @type msg_int @repetitions 0 @range 0 512 @clipmode low @description "length of the crossfade for the x-fade mode in ms";#P objectname rendermode/xfade/fadelength;#P window linecount 0;#P hidden newex 399 -21 417 196617 jcom.multi.out~;#P bpatcher 3 290 523 17 0 0 jcom.sur.vimic_mic.mxt 0 16;#P objectname jcom.sur.vimic_mic.mxt[8];#P bpatcher 3 273 523 17 0 0 jcom.sur.vimic_mic.mxt 0 15;#P objectname jcom.sur.vimic_mic.mxt[9];#P bpatcher 3 256 523 17 0 0 jcom.sur.vimic_mic.mxt 0 14;#P objectname jcom.sur.vimic_mic.mxt[10];#P bpatcher 3 239 523 17 0 0 jcom.sur.vimic_mic.mxt 0 13;#P objectname jcom.sur.vimic_mic.mxt[11];#P bpatcher 3 222 523 17 0 0 jcom.sur.vimic_mic.mxt 0 12;#P objectname jcom.sur.vimic_mic.mxt[12];#P bpatcher 3 205 523 17 0 0 jcom.sur.vimic_mic.mxt 0 11;#P objectname jcom.sur.vimic_mic.mxt[13];#P bpatcher 3 188 523 17 0 0 jcom.sur.vimic_mic.mxt 0 10;#P objectname jcom.sur.vimic_mic.mxt[14];#P bpatcher 3 171 523 17 0 0 jcom.sur.vimic_mic.mxt 0 9;#P objectname jcom.sur.vimic_mic.mxt[15];#P window linecount 2;#P message 8 876 64 196617 \; max refresh;#P inlet 831 -25 15 0;#P hidden inlet 402 -39 15 0;#P bpatcher 3 154 523 17 0 0 jcom.sur.vimic_mic.mxt 0 8;#P objectname jcom.sur.vimic_mic.mxt[7];#P bpatcher 3 137 523 17 0 0 jcom.sur.vimic_mic.mxt 0 7;#P objectname jcom.sur.vimic_mic.mxt[6];#P bpatcher 3 120 523 17 0 0 jcom.sur.vimic_mic.mxt 0 6;#P objectname jcom.sur.vimic_mic.mxt[5];#P bpatcher 3 103 523 17 0 0 jcom.sur.vimic_mic.mxt 0 5;#P objectname jcom.sur.vimic_mic.mxt[4];#P bpatcher 3 86 523 17 0 0 jcom.sur.vimic_mic.mxt 0 4;#P objectname jcom.sur.vimic_mic.mxt[3];#P bpatcher 3 69 523 17 0 0 jcom.sur.vimic_mic.mxt 0 3;#P objectname jcom.sur.vimic_mic.mxt[2];#P bpatcher 3 52 523 17 0 0 jcom.sur.vimic_mic.mxt 0 2;#P objectname jcom.sur.vimic_mic.mxt[1];#P flonum 399 479 27 9 0. 40. 8227 3 181 181 181 221 221 221 255 255 255 0 0 0;#P objectname dirPow;#P flonum 184 479 27 9 0. 40. 8227 3 181 181 181 221 221 221 255 255 255 0 0 0;#P objectname disPow;#P window linecount 0;#P comment 336 625 84 196617 update rate [Hz]:;#B frgb 149 149 149;#P number 420 623 28 9 1 50 8227 3 181 181 181 221 221 221 255 255 255 0 0 0;#P objectname Updaterate;#P hidden newex 1004 802 83 196617 pvar Updaterate;#P window linecount 2;#P newex 1093 795 393 196617 jcom.parameter updaterate @type msg_int @range 1 50 @clipmode low @description "vimic updaterate - tells how often the parameter settings are getting updated";#P objectname updaterate;#P window linecount 1;#P newex 116 867 50 196617 deferlow;#P window linecount 3;#P hidden newex 670 321 337 196617 jcom.parameter reflections/airfilter @type msg_int @range 500 19000 @clipmode both @repetitions 0 @description "damping frequency of the early reflections due to air absorption";#P objectname reflections/airfilter;#P window linecount 1;#P hidden newex 670 299 94 196617 pvar early_lowcut;#P comment 355 22 37 196617 preset;#B frgb 181 181 181;#P newex 434 854 144 196617 jcom.list2parameter 3;#P newex 600 879 80 196617 pvar roomsizeZ;#P newex 517 879 81 196617 pvar roomsizeY;#P newex 434 879 81 196617 pvar roomsizeX;#P window linecount 2;#P newex 583 844 386 196617 jcom.parameter room/size @type msg_list @ramp/drive scheduler @range 0. 40. @repetitions 0 @clipmode both @description "Size of the virtual room in XYZ";#P objectname room/size;#P window linecount 1;#P comment 6 465 201 196617 power law for attenuation due to distance:;#B frgb 149 149 149;#P comment 219 466 211 196617 power law for attenuation due to directivity:;#B frgb 149 149 149;#P hidden newex 669 227 66 196617 pvar dirPow;#P hidden newex 688 162 66 196617 pvar disPow;#P window linecount 3;#P hidden newex 669 247 285 196617 jcom.parameter microphones/direct/power @type msg_float @repetitions 0 @range 0. 8. @clipmode both @description "power law for attenuation due to microphone directivity";#P objectname microphones/direct/power;#P hidden newex 688 181 267 196617 jcom.parameter room/distance/power @type msg_float @range 0. 8. @clipmode both @repetitions 0 @description "power law for attenuation due to distance";#P objectname room/distance/power;#P window linecount 1;#P comment 204 21 87 196617 Azimut/Elevation;#B frgb 181 181 181;#P comment 171 21 14 196617 Z;#B frgb 181 181 181;#P comment 137 21 14 196617 Y;#B frgb 181 181 181;#P comment 99 20 14 196617 X;#B frgb 181 181 181;#P comment 316 8 56 196617 Directivity;#B frgb 181 181 181;#P comment 215 8 87 196617 Orientation;#B frgb 181 181 181;#P comment 96 8 99 196617 Microphone position;#B frgb 181 181 181;#P bpatcher 3 35 523 17 0 0 jcom.sur.vimic_mic.mxt 0 1;#P objectname jcom.sur.vimic_mic.mxt;#P hidden newex 759 111 74 196617 pvar allreport;#P window linecount 3;#P hidden newex 760 131 203 196617 jcom.message report_all @type msg_int @range 0 1 @clipmode both @description "report inner state of the vimic module";#P objectname direct/gain[2];#P flonum 406 802 29 9 0 0 8224 3 181 181 181 221 221 221 222 222 222 0 0 0;#P objectname bb6;#P flonum 406 784 29 9 0 0 8224 3 181 181 181 221 221 221 222 222 222 0 0 0;#P objectname bb5;#P window linecount 1;#P hidden newex 116 846 117 196617 loadmess patcher ViMiC;#P hidden inlet 6 780 15 0;#N thispatcher;#Q window flags nogrow close zoom nofloat;#Q window size 544 49 1083 742;#Q window title;#Q window exec;#Q savewindow 1;#Q end;#P hidden newobj 116 890 59 196617 thispatcher;#P hidden newex 158 985 88 196617 bgcolor 80 80 80;#P hidden message 447 665 239 196617 window flags nogrow \, savewindow 1 \, window exec;#P hidden message 448 649 229 196617 window flags grow \, window exec;#P user panel 1 3 533 459;#X brgb 80 80 80;#X frgb 255 255 255;#X border 1;#X rounded 0;#X shadow 0;#X done;#P user panel 216 463 217 62;#X brgb 80 80 80;#X frgb 255 255 255;#X border 1;#X rounded 0;#X shadow 0;#X done;#P user panel 1 463 213 62;#X brgb 80 80 80;#X frgb 255 255 255;#X border 1;#X rounded 0;#X shadow 0;#X done;#P user panel 287 604 247 82;#X brgb 80 80 80;#X frgb 255 255 255;#X border 1;#X rounded 0;#X shadow 0;#X done;#P user panel 434 463 100 140;#X brgb 80 80 80;#X frgb 255 255 255;#X border 1;#X rounded 0;#X shadow 0;#X done;#P hidden connect 62 0 15 0;#P hidden connect 62 1 44 0;#P hidden connect 62 2 45 0;#P hidden connect 62 3 46 0;#P hidden connect 62 4 47 0;#P hidden connect 62 5 48 0;#P hidden connect 62 6 49 0;#P hidden connect 62 7 50 0;#P hidden connect 62 8 54 0;#P hidden connect 62 9 55 0;#P hidden connect 62 10 56 0;#P hidden connect 62 11 57 0;#P hidden connect 62 12 58 0;#P hidden connect 62 13 59 0;#P hidden connect 62 14 60 0;#P hidden connect 62 15 61 0;#P hidden connect 62 16 196 0;#P hidden connect 62 17 197 0;#P hidden connect 62 18 198 0;#P hidden connect 62 19 199 0;#P hidden connect 62 20 200 0;#P hidden connect 62 21 201 0;#P hidden connect 62 22 202 0;#P hidden connect 62 23 203 0;#P connect 222 0 233 0;#P connect 217 0 216 0;#P connect 10 0 37 0;#P hidden connect 5 0 8 0;#P hidden connect 6 0 8 0;#P connect 37 0 8 0;#P connect 233 0 223 0;#P fasten 226 0 223 0 247 974 122 974;#P fasten 224 0 223 0 379 974 122 974;#P connect 218 0 223 0;#P connect 216 0 223 0;#P connect 227 0 223 0;#P connect 219 0 218 0;#P fasten 225 1 226 0 342 942 247 942;#P fasten 225 1 231 0 342 891 248 891;#P connect 231 0 232 0;#P hidden connect 210 0 227 0;#P connect 236 0 227 1;#P hidden connect 232 0 210 0;#P hidden connect 230 0 210 0;#P connect 234 0 235 0;#P connect 235 0 236 0;#P hidden connect 213 0 224 0;#P hidden connect 51 0 62 0;#P hidden connect 230 1 213 0;#P connect 64 0 76 0;#P connect 65 0 66 0;#P fasten 30 0 33 0 439 901 431 901 431 847 439 847;#P connect 33 0 30 0;#P connect 236 0 224 1;#P connect 63 0 73 0;#P fasten 31 0 33 1 522 905 425 905 425 842 452 842;#P hidden connect 240 0 238 0;#P hidden fasten 32 0 33 2 605 904 420 904 420 837 465 837;#P hidden connect 52 0 15 1;#P hidden connect 52 0 44 1;#P hidden connect 52 0 45 1;#P hidden connect 52 0 46 1;#P hidden connect 52 0 47 1;#P hidden connect 52 0 48 1;#P hidden connect 52 0 49 1;#P hidden connect 52 0 50 1;#P hidden connect 52 0 54 1;#P hidden connect 52 0 55 1;#P hidden connect 52 0 56 1;#P hidden connect 52 0 57 1;#P hidden connect 52 0 58 1;#P hidden connect 52 0 59 1;#P hidden connect 52 0 60 1;#P hidden connect 52 0 61 1;#P hidden connect 52 0 196 1;#P hidden connect 52 0 197 1;#P hidden connect 52 0 198 1;#P hidden connect 52 0 199 1;#P hidden connect 52 0 200 1;#P hidden connect 52 0 201 1;#P hidden connect 52 0 202 1;#P hidden connect 52 0 203 1;#P connect 33 1 31 0;#P connect 73 0 63 0;#P connect 66 1 65 0;#P connect 76 0 64 0;#P hidden connect 245 0 244 0;#P connect 244 0 248 0;#P connect 248 0 247 0;#P connect 247 0 249 0;#P lcolor 15;#P connect 29 0 33 10;#P lcolor 15;#P hidden connect 228 0 230 0;#P hidden connect 229 0 228 0;#P connect 33 10 29 0;#P lcolor 15;#P connect 33 2 32 0;#P hidden fasten 266 0 265 0 641 966 632 966 632 909 641 909;#P hidden connect 265 0 266 0;#P hidden connect 237 0 243 0;#P hidden connect 239 0 243 0;#P hidden connect 243 0 240 0;#P hidden connect 238 0 239 0;#P hidden fasten 24 0 26 0 674 290 666 290 666 224 674 224;#P hidden connect 26 0 24 0;#P hidden fasten 252 0 251 0 674 431 666 431 666 375 674 375;#P hidden connect 251 1 252 0;#P hidden fasten 36 0 35 0 675 364 666 364 666 295 675 295;#P hidden connect 35 0 36 0;#P hidden fasten 259 0 257 0 691 564 682 564 682 496 691 496;#P hidden connect 257 0 259 0;#P hidden fasten 260 0 258 0 691 645 683 645 683 567 691 567;#P hidden connect 258 0 260 0;#P hidden fasten 23 0 25 0 693 224 685 224 685 159 693 159;#P hidden connect 25 0 23 0;#P hidden fasten 262 0 261 0 693 714 684 714 684 647 693 647;#P hidden connect 261 0 262 0;#P hidden connect 239 1 237 0;#P hidden connect 14 0 13 0;#P connect 107 0 104 0;#P connect 108 0 105 0;#P connect 109 0 106 0;#P connect 113 0 110 0;#P connect 114 0 111 0;#P connect 115 0 112 0;#P connect 124 0 121 0;#P connect 125 0 122 0;#P connect 126 0 123 0;#P connect 130 0 127 0;#P connect 131 0 128 0;#P connect 132 0 129 0;#P connect 136 0 133 0;#P connect 137 0 134 0;#P connect 142 0 139 0;#P connect 143 0 140 0;#P connect 144 0 141 0;#P connect 138 0 135 0;#P hidden connect 178 0 179 0;#P connect 38 0 39 0;#P connect 183 0 182 0;#P connect 104 0 107 0;#P connect 154 0 107 0;#P connect 105 0 108 0;#P connect 154 1 108 0;#P connect 106 0 109 0;#P connect 154 2 109 0;#P connect 110 0 113 0;#P connect 157 0 113 0;#P connect 111 0 114 0;#P connect 157 1 114 0;#P connect 112 0 115 0;#P connect 157 2 115 0;#P connect 121 0 124 0;#P connect 160 0 124 0;#P connect 122 0 125 0;#P connect 160 1 125 0;#P connect 123 0 126 0;#P connect 160 2 126 0;#P connect 127 0 130 0;#P connect 163 0 130 0;#P connect 128 0 131 0;#P connect 163 1 131 0;#P connect 129 0 132 0;#P connect 163 2 132 0;#P connect 133 0 136 0;#P connect 166 0 136 0;#P connect 134 0 137 0;#P connect 166 1 137 0;#P connect 135 0 138 0;#P connect 166 2 138 0;#P connect 139 0 142 0;#P connect 169 0 142 0;#P connect 140 0 143 0;#P connect 169 1 143 0;#P connect 141 0 144 0;#P connect 169 2 144 0;#P connect 182 0 183 0;#P connect 39 0 38 0;#P hidden connect 179 0 178 0;#P connect 156 0 158 0;#P connect 158 1 156 0;#P connect 153 0 155 0;#P connect 155 1 153 0;#P connect 162 0 164 0;#P connect 164 1 162 0;#P connect 159 0 161 0;#P connect 161 1 159 0;#P connect 165 0 167 0;#P connect 167 1 165 0;#P connect 168 0 170 0;#P connect 170 1 168 0;#P connect 162 1 163 0;#P connect 159 1 160 0;#P connect 165 1 166 0;#P connect 156 1 157 0;#P connect 153 1 154 0;#P connect 168 1 169 0;#P pop;#P hidden newobj 157 333 67 196617 p inspector;#B color 4;#P objectname inspector;#P hidden newex 544 314 62 196617 prepend set;#P hidden newex 615 366 27 196617 - 1;#P hidden newex 614 295 27 196617 + 1;#P hidden newex 614 347 51 196617 route set;#P hidden newex 614 454 102 196617 pvar render_mode 2;#P window linecount 2;#P hidden newex 722 448 242 196617 jcom.parameter rendermode @type msg_symbol @repetitions 0 @description "Rendertype of ViMiC";#P objectname rendermode;#P user ubumenu 42 24 63 196617 0 0 1 0;#X setrgb 181 181 181 25 25 25 50 50 50 4 4 4 141 141 141 112 112 112;#X add ViMiC_lite;#X add X-fade_lite;#X add ViMiC_XL;#X add X-fade_XL;#X add Panning;#X add Static;#X prefix_set 0 0 <none> 0;#P objectname render_mode;#P window linecount 1;#N vpatcher 497 319 1097 719;#P outlet 56 179 15 0;#P button 137 29 15 0;#P window setfont "Sans Serif" 9.;#P hidden message 60 91 64 196617 rgb2 66 0 2;#P hidden message 221 89 92 196617 frgb 181 181 181;#P hidden message 138 91 75 196617 brgb 47 46 36;#P newex 83 58 50 196617 deferlow;#P newex 83 24 48 196617 loadbang;#P connect 3 0 6 0;#P connect 2 0 6 0;#P connect 4 0 6 0;#P connect 1 0 4 0;#P connect 0 0 1 0;#P connect 5 0 1 0;#P connect 1 0 2 0;#P connect 1 0 3 0;#P pop;#P hidden newobj 349 78 46 196617 p colors;#N thispatcher;#Q end;#P hidden newobj 351 122 61 196617 thispatcher;#N vpatcher 188 431 335 589;#P button 43 34 15 0;#P window setfont "Sans Serif" 9.;#P newex 41 54 50 196617 deferlow;#P newex 41 75 50 196617 t front;#P outlet 41 103 15 0;#P inlet 41 15 15 0;#P connect 4 0 3 0;#P connect 3 0 2 0;#P connect 2 0 1 0;#P connect 0 0 4 0;#P pop;#P hidden newobj 351 100 14 196617 p;#P bpatcher 153 33 100 12 0 0 jcom.textslider.mxt 1 0. 0. 1. @size 100 12 @text 1st order refl.;#P bpatcher 153 20 100 13 0 0 jcom.textslider.mxt 1 0. 0. 1. @size 100 12 @text direct sound @frgb;#P user ubumenu 106 24 22 196617 0 0 1 0;#X setrgb 181 181 181 25 25 25 50 50 50 4 4 4 141 141 141 112 112 112;#X add 1;#X add 2;#X add 3;#X add 4;#X add 5;#X add 6;#X add 7;#X add 8;#X add 9;#X add 10;#X add 11;#X add 12;#X add 13;#X add 14;#X add 15;#X add 16;#X add 17;#X add 18;#X add 19;#X add 20;#X add 21;#X add 22;#X add 23;#X add 24;#X prefix_set 0 0 <none> 0;#P objectname mics;#P window linecount 2;#P hidden newex 614 315 377 196617 jcom.parameter microphones/amount @type msg_int @range 1 32 @repetitions 0 @clipmode low @priority 2 @description "Number of used virtual microphones";#P objectname microphones/amount;#P window linecount 1;#P hidden newex 614 275 64 196617 pvar mics 2;#P comment 5 26 34 196617 setup:;#B frgb 149 149 149;#P hidden newex 157 254 221 196617 jcom.oscroute /open_inspector /audio/meters;#P hidden newex 157 302 44 196617 pcontrol;#P hidden outlet 133 626 15 0;#P hidden newex 133 532 430 196617 jcom.multi.in~;#P hidden newex 606 388 63 196617 pvar report;#P toggle 122 3 13 0;#P objectname report;#P window linecount 2;#P hidden newex 606 408 288 196617 jcom.parameter report @type msg_int @range 0 1 @clipmode both @description "report changes inside the vimic module";#P objectname report[1];#P hidden newex 524 47 262 196617 jcom.parameter.gain reflections/1st/gain @repetitions 0 @description "gain of the early reflections 1st order";#P objectname reflections/gain;#P hidden newex 521 7 236 196617 jcom.parameter.gain direct/gain @repetitions 0 @description "gain of the direct sound component";#P objectname direct/gain;#P hidden newex 654 177 349 196617 jcom.parameter.spatdif source/position/absolute @ramp/drive scheduler @description "Sourceposition in the virtual room - spatDIF compliant";#P objectname source/position/absolute;#P flonum 127 42 26 9 0. 25. 8227 3 181 181 181 221 221 221 255 255 255 0 0 0;#P objectname posD;#P flonum 101 42 27 9 0 90. 8226 3 181 181 181 221 221 221 255 255 255 0 0 0;#P objectname posE;#P flonum 69 42 33 9 -180. 180. 8227 3 181 181 181 221 221 221 255 255 255 0 0 0;#P objectname posA;#P window linecount 1;#P hidden newex 393 309 47 196617 pcontrol;#P message 105 81 191 196617 /preset/store 1 default \, /preset/write;#B color 3;#P hidden newex 134 448 339 196617 jcom.out~ 25;#P hidden newex 133 232 58 196617 jcom.in~ 1;#P message 113 103 125 196617 /documentation/generate;#B color 3;#P window linecount 2;#P newex 15 137 323 196617 jcom.hub jmod.sur.vimic~ @inspector 1 @size 1U-half @module_type audio.ambisonic @description "Virtual Microphone Control (ViMiC)";#P objectname jcom.hub;#P window linecount 1;#P comment 29 104 79 196617 command input;#P inlet 15 104 13 0;#P message 244 103 31 196617 /init;#P hidden inlet 133 213 13 0;#P comment -1 44 75 196617 Position A/E/D;#B frgb 149 149 149;#P hidden newex 133 359 313 196617 jalg.sur.vimic_8_1~.mxt;#P outlet 15 180 13 0;#P hidden comment 92 655 101 196617 multicable output;#P user hint 130 24 149 40 "order of early reflections" 4000 1000 0 65535 65535 52428 9 3 0 1 0 0 0;#P user hint 106 25 125 41 "number of microphones" 4000 1000 0 65535 65535 52428 9 3 0 1 0 0 0;#P hidden user hint 501 258 545 276 "ViMiC render type" 4000 1000 0 65535 65535 52428 9 3 0 1 0 0 0;#P bpatcher 0 0 256 60 0 0 jcom.gui.mxt 0 $0_;#P objectname jmod.gui.1Uh.a.stereo.mxt;#P hidden fasten 47 0 12 0 162 354 6 354 6 127 20 127;#P fasten 9 0 12 0 249 125 20 125;#P fasten 13 0 12 0 118 124 20 124;#P connect 10 0 12 0;#P fasten 16 0 12 0 110 124 20 124;#P connect 12 0 5 0;#P hidden connect 8 0 14 0;#P hidden connect 14 0 6 0;#P hidden connect 15 1 27 0;#P hidden connect 27 0 28 0;#P lcolor 6;#P hidden connect 15 2 27 1;#P hidden connect 6 0 15 1;#P hidden connect 39 0 35 0;#P hidden connect 57 0 35 0;#P hidden connect 39 0 36 0;#P hidden connect 55 0 36 0;#P hidden connect 39 0 68 0;#P hidden connect 71 0 68 0;#P hidden connect 14 1 30 0;#P hidden connect 30 0 53 0;#P hidden connect 53 0 29 0;#P hidden connect 29 0 47 0;#P hidden connect 15 3 27 2;#P hidden connect 6 1 15 2;#P hidden connect 15 4 27 3;#P hidden connect 6 2 15 3;#P hidden fasten 27 0 47 1 138 577 22 577 22 328 190 328;#P lcolor 6;#P hidden connect 15 5 27 4;#P hidden connect 6 3 15 4;#P hidden connect 15 6 27 5;#P hidden connect 6 4 15 5;#P hidden connect 15 7 27 6;#P hidden connect 6 5 15 6;#P hidden fasten 30 1 47 2 267 302 218 302;#P hidden connect 15 8 27 7;#P hidden connect 6 6 15 7;#P hidden connect 15 9 27 8;#P hidden connect 6 7 15 8;#P hidden connect 15 10 27 9;#P hidden connect 6 8 15 9;#P hidden connect 15 11 27 10;#P hidden connect 6 9 15 10;#P hidden connect 15 12 27 11;#P hidden connect 6 10 15 11;#P hidden connect 15 13 27 12;#P hidden connect 6 11 15 12;#P hidden fasten 30 2 52 0 372 277 303 277;#P hidden connect 15 14 27 13;#P hidden connect 6 12 15 13;#P hidden connect 15 15 27 14;#P hidden connect 6 13 15 14;#P hidden connect 15 16 27 15;#P hidden connect 6 14 15 15;#P hidden connect 15 17 27 16;#P hidden connect 6 15 15 16;#P hidden connect 39 0 37 0;#P hidden connect 37 0 38 0;#P hidden connect 15 18 27 17;#P hidden connect 6 16 15 17;#P hidden connect 15 19 27 18;#P hidden connect 6 17 15 18;#P hidden connect 15 20 27 19;#P hidden connect 6 18 15 19;#P hidden connect 52 1 17 0;#P hidden connect 15 21 27 20;#P hidden connect 6 19 15 20;#P hidden connect 15 22 27 21;#P hidden connect 6 20 15 21;#P hidden connect 15 23 27 22;#P hidden connect 6 21 15 22;#P hidden connect 15 24 27 23;#P hidden connect 6 22 15 23;#P hidden fasten 47 1 6 1 219 354 441 354;#P hidden fasten 52 0 6 1 303 338 441 338;#P hidden fasten 17 0 6 1 398 338 441 338;#P hidden connect 6 23 15 24;#P hidden connect 35 0 56 0;#P hidden connect 36 0 54 0;#P hidden connect 68 0 70 0;#P hidden connect 69 0 71 0;#P hidden connect 22 0 57 0;#P hidden connect 23 0 55 0;#P hidden connect 56 0 22 0;#P hidden connect 54 0 23 0;#P hidden connect 70 0 69 0;#P hidden connect 45 0 46 0;#P hidden connect 66 0 67 0;#P hidden fasten 24 0 26 0 611 441 601 441 601 383 611 383;#P hidden connect 26 0 24 0;#P hidden fasten 49 0 50 0 690 527 606 527 606 495 615 495;#P hidden connect 46 0 32 0;#P hidden connect 32 0 44 0;#P hidden connect 44 0 33 0;#P hidden connect 33 0 43 0;#P hidden fasten 41 0 42 0 727 480 608 480 608 445 619 445;#P hidden connect 43 0 45 0;#P hidden fasten 59 0 21 0 659 238 652 238 652 171 659 171;#P hidden connect 21 0 59 0;#P hidden connect 67 0 66 0;#P hidden connect 50 1 49 0;#P hidden connect 42 1 41 0;#P hidden connect 21 1 60 0;#P hidden fasten 60 0 21 1 753 248 648 248 648 167 722 167;#P hidden connect 21 2 61 0;#P hidden fasten 61 0 21 2 847 256 642 256 642 160 785 160;#P pop;