max v2;#N vpatcher 100 100 1187 852;#P origin 4 -474;#P window setfont "Sans Serif" 9.;#P window linecount 2;#P hidden message 433 664 229 196617 jcom.message audio/meters/clear @type msg_none @description "clear the audio meters";#P hidden message 673 675 332 196617 jcom.parameter source/orientation/elevation @type msg_float @range 0. 90. @description "orientation of the sound source (elevation)";#P window linecount 1;#N vpatcher 10 59 610 459;#P window setfont "Sans Serif" 9.;#P newex 50 50 51 196617 route set;#P newex 51 71 68 196617 jcom.miditoa;#P inlet 50 30 15 0;#P outlet 51 93 15 0;#P connect 1 0 3 0;#P connect 3 0 2 0;#P connect 2 0 0 0;#P pop;#P hidden newobj 459 105 48 196617 p midi2a;#P hidden newex 456 84 68 196617 jcom.atomidi;#P window linecount 2;#P hidden newex 526 83 282 196617 jcom.parameter.gain room/reflection/2/gain @repetitions 0 @description "gain of the early reflections 2nd order";#P objectname room/reflection/2/gain;#P bpatcher 153 46 100 12 0 0 jcom.textslider.mxt 1 0. 0. 1. @size 100 12 @text 2nd-order refl.;#P window linecount 1;#P hidden newex 596 611 70 196617 pvar warning;#P window linecount 2;#P hidden newex 669 605 325 196617 jcom.parameter warning @type msg_int @range 0 1 @clipmode both @description "turn on/off the printing of ViMiC's warning messages";#P objectname warning[1];#P user hint 107 3 120 15 "warnings on/off" 2500 1000 0 65535 65535 52428 9 3 0 1 0 0 0;#P user hint 122 3 135 15 "report on/off" 2500 1000 0 65535 65535 52428 9 3 0 1 0 0 0;#P toggle 109 3 13 0;#P objectname warning;#P window linecount 1;#P hidden newex 880 210 55 196617 pvar posD;#P hidden newex 767 210 54 196617 pvar posE;#P hidden newex 654 210 56 196617 pvar posA;#P hidden newex 584 537 782 196617 jcom.message update @type msg_none @description "updates ViMiC manually (e.g. through an external clock)\\\, rather than automatically each time set with /updaterate";#P objectname update;#N vpatcher 10 59 610 459;#P window setfont "Sans Serif" 9.;#P newex 50 50 51 196617 route set;#P newex 51 71 68 196617 jcom.miditoa;#P inlet 50 30 15 0;#P outlet 51 93 15 0;#P connect 1 0 3 0;#P connect 3 0 2 0;#P connect 2 0 0 0;#P pop;#P hidden newobj 470 25 48 196617 p midi2a;#P hidden newex 449 6 68 196617 jcom.atomidi;#N vpatcher 10 59 610 459;#P window setfont "Sans Serif" 9.;#P newex 50 50 51 196617 route set;#P newex 51 71 68 196617 jcom.miditoa;#P inlet 50 30 15 0;#P outlet 51 93 15 0;#P connect 1 0 3 0;#P connect 3 0 2 0;#P connect 2 0 0 0;#P pop;#P hidden newobj 470 63 48 196617 p midi2a;#P hidden newex 453 45 68 196617 jcom.atomidi;#P hidden message 157 280 30 196617 open;#N vpatcher 605 157 1205 557;#P origin -71 0;#P window setfont "Sans Serif" 9.;#P window linecount 0;#P message -8 168 90 196617 /rendermode mute;#P newex 79 129 41 196617 sel 1 0;#P message 84 168 104 196617 /rendermode unmute;#P window linecount 1;#P newex 198 54 134 196617 jcom.oscroute /audio/mute;#P newex 198 81 31 196617 == 0;#P message 198 127 62 196617 enable \$1 1;#P newex 116 54 78 196617 jcom.pass open;#P outlet 84 226 15 0;#P outlet 198 161 15 0;#N comlet Connect to 2nd last outlet of jcom.in~;#P inlet 116 33 15 0;#P connect 8 0 9 0;#P connect 6 0 8 0;#P connect 8 1 7 0;#P fasten 9 0 2 0 -3 190 89 190;#P fasten 6 1 2 0 327 190 89 190;#P connect 7 0 2 0;#P connect 0 0 3 0;#P connect 3 1 6 0;#P connect 6 0 5 0;#P connect 5 0 4 0;#P connect 3 0 1 0;#P connect 4 0 1 0;#P pop;#P hidden newobj 298 280 105 196617 p algorithm_control~;#P user hint 43 26 103 40 "ViMiC render method" 2500 1000 0 65535 65535 52428 9 3 0 1 0 0 0;#P hidden newex 610 501 68 196617 pvar order 2;#P window linecount 2;#P hidden newex 685 494 373 196617 jcom.parameter room/reflection/order @type msg_int @range 0 2 @repetitions 0 @priority 300 @clipmode both @description "order of early reflections";#P objectname room/reflection/order;#P user ubumenu 128 24 22 196617 0 0 1 0;#X setrgb 181 181 181 25 25 25 50 50 50 4 4 4 141 141 141 112 112 112;#X add 0;#X add 1;#X add 2;#X prefix_set 0 0 <none> 0;#P objectname order;#P window linecount 1;#N vpatcher 353 44 889 706;#P origin 23 18;#P window setfont "Sans Serif" 9.;#P flonum 375 595 28 9 -20. 40. 8227 3 181 181 181 221 221 221 255 255 255 0 0 0;#P objectname temp;#P window linecount 1;#P comment 303 628 97 196617 Microphone Polarity;#B frgb 149 149 149;#P window linecount 3;#P hidden newex 726 964 358 196617 jcom.parameter microphones/polarity @type msg_toggle @repetitions 0 @description "when unchecked\\\, the polarity of all microphones is restricted - so all gain values are between 0 and 1\\\, rather that between -1 and 1";#P objectname rendermode/normalization/active[1];#P window linecount 1;#P hidden newex 726 944 103 196617 pvar polarity_toggle;#P user radiogroup 289 626 42 16;#X size 1;#X offset 16;#X inactive 0;#X itemtype 1;#X flagmode 0;#X set 0;#X done;#P objectname polarity_toggle;#P hidden newex 464 909 107 196617 pvar dir_editor;#P window linecount 2;#P hidden newex 464 928 249 196617 jcom.message open_directivity_editor @type msg_none @description "opens the directiviy editor";#P objectname report_all[1];#P window linecount 0;#P message 116 836 73 196617 patcher ViMiC;#P window linecount 2;#P hidden message 22 709 236 196617 \; max launchbrowser http://www.cirmmt.mcgill.ca;#N picture;#K replace 903;#K set 0 0 44 4456465 50269184 -131072 19660760 19660760 0 2883652 0 1966081 655360 44 4456498 0 2883652 2064384 -2147450880 -2113929216 222429184 65536 0 0 0 65536 0 0 0 1073741824 0 0 0 4194304 44 4456448 50331648 655370 0 2883652 114 1953064550 0 0 0 1634758764 0 1024 4456492 19660760 19660760 3202 70484 1229342240 676687459 1869443186 1702064997 1680408576 0 0 40 -65536 813422 1685585920 65536 816233 1717764096 65536 19789 2752512 196631040 0 0 0 0 0 1912602624 0 0 0 0 27909 0 0 0 0 0 10836480 0 0 0 0 0 1912602624 0 0 0 0 27909 0 0 0 0 0 10836480 0 0 69150485 0 0 1912602624 0 0 0 0 27909 0 0 0 0 0 10836480 0 19637 -167772161 -443143936 0 1912602624 0;#K set 128 14459 687865856 0 27909 0 5602171 2071619888 0 0 10836480 0 330563583 -474963270 -268436885 0 1912602624 0 29695 1426063360 0 27909 0 11599871 -3 -1895825408 0 10836480 18 -754984114 67108864 174517407 0 1912602624 0 29695 1426063360 0 27909 0 11599650 337663196 -12124160 0 10836480 178 -3928064 0 8311 0 1912602624 0 29695 1426063360 0 27909 0 11599631 69 -6488064 0 10836480 18943 -384303104 0 0 0 1912602624 0 29695 1426063360 0 27909 0 11599631 27 -4718592 0 10836480 44543 1962934272 0 0 0 1912602624 0 29695 1426063360 0 27909 0 11599631 49 -5636096 0 10836480 60159 536870912 0 0 0 1912602624 0 29695 1426063360 0 27909 0 11599632 11197 -10485760 0 10836480 1179123 0 0 0 0 1912602624 0 29695 1426063360 0 27909 0 11599854 -302317570 -1660944384 0;#K set 256 10836480 1310701 0 0 0 0 1912602624 0 29695 1426063360 0 27909 0 11599805 -3710422 0 0 10836480 784379 134217728 0 0 0 1912602624 0 29695 1426063360 0 27909 0 11599644 -705085440 0 0 10836480 53503 1124073472 0 0 0 1912602624 0 29695 1426063360 0 27909 0 11599631 737404959 0 0 10836480 31743 -1308622848 0 0 0 1912602624 0 29695 1426063360 0 27909 0 11599631 6029003 167772160 0 10836480 4842 -26738688 0 57 0 1912602624 0 29695 1426063360 0 27909 0 11599631 38655 -1577058304 0 10836480 79 -50629376 0 826526 0 1912602624 0 29695 1426063360 0 27909 0 11599631 2250 -9437184 0 10836480 0 1526136787 1899637058 -2098790500 0 1912602624 0 29695 1426063360 0 27909 0 11599631 33 -319142912 0 10836480 0 3128830 -1 -682988 0 1912602624 0 18592;#K set 384 905969664 0 27909 0 7315465 0 1184926468 0 10836480 0 43 1905762186 1494417408 0 1912602624 0 0 0 0 27909 0 0 0 0 0 10836480 0 0 0 0 0 1912602624 0 0 0 0 27909 0 0 0 0 0 10836480 0 0 0 0 0 1912602624 0 0 0 0 27909 0 0 0 0 0 10855538 1920103026 1920103026 1920103026 1920103026 1920103026 -1317899662 1920103026 1920103026 1920103026 1920103026 1920118388 1920103026 1920103026 1920103026 1920103026 1920103026 1926060544 0 0 0 0 0 1912602624 0 0 0 0 27909 0 0 0 0 0 10836480 0 0 0 0 0 1912602624 0 0 0 0 27909 0 0 0 0 0 10836480 19 0 0 5376 0 1912602624 5376 0 0 151781376 27909 0 0 0 0 0 10836480;#K set 512 85 1241513984 0 954624 0 1912602624 38919 0 0 1581383680 27909 0 12573145 -640034343 -640034458 0 10836480 136 -1241513984 0 7131648 0 1912602624 58712 0 0 -898367488 27909 0 13165796 -453705750 -454761365 0 10836480 185 -64618496 0 14022923 0 1912602624 1834436 0 56 -22740992 27909 0 0 10092346 0 0 10836480 232 -7405568 0 1174404918 0 1912602624 4915198 838860800 163 -2686976 27909 0 0 10026810 0 0 10836480 7935 -1241856 0 -1325400216 0 1912602624 8191999 -1677721600 6135 -389120 27909 0 0 10026810 0 0 10836480 20479 -1157666816 34 -71565414 0 1912602624 11401154 -183238656 31999 -1140901120 27909 0 0 10026810 0 0 10836480 33535 988009216 138 -46863668 0 1912602624 14734409 -9043968 385744 1291808256 27909 0 0 10026810 0 0 10836480 46074 159186753 2796 -1040139020 150994944 1912602624 335455488 -673381120 5635940;#K set 640 503226112 27909 0 0 10026810 0 0 10836480 58579 1570477 25343 1409322495 805306368 1912602624 1157592576 1811893760 12643082 15257856 27909 0 0 10026810 0 0 10836480 1768868 40698 520146400 83910143 1660944384 1912602624 1996441088 233814784 805144320 12319497 27909 0 0 10026810 0 0 10836480 4915061 12798 -2059665545 11775 -1811939328 1912602624 -1459742720 9370666 -1711726848 9174838 27909 0 0 10026810 0 0 10836480 8126278 192 -391056109 2037 -973078528 1912602624 -639303680 2423716 -190185472 6029160 27909 0 0 10026810 0 0 10836480 11468057 82 -25856 205 -234553344 1912602641 -71827456 45311 -12779520 2949018 27909 0 0 10026810 0 0 10836480 14673408 4 -553832960 157 -14024704 1912602686 -7864320 17151 -872415232 521419 27909 0 0 10026810 0 0 10836480 368883456 0 1975386112 109 -10682368 1912602736 -10944512 209 1610612736 52469 134245637 0 0 10026810 0 0 10836480 205662208;#K set 768 0 323354624 21 1109393408 1912602661 1108344832 81 134217728 11586 117468421 0 0 2638351 0 0 10836480 0 0 0 0 0 1912602624 0 0 0 0 27909 0 0 0 0 0 10836480 0 0 0 0 0 1912602624 0 0 0 0 27909 0 0 0 0 0 10813455 16777219 1 4456448 16842755 1 2883584 16908291 1 524288 16973827 1 65536 17170435 1 65536 17891332 1 8 17956867 1 65536 18153475 1 65536 18219011 1 107347968 18284548 1 2992 18481157 1 3186 18546693 1 3194 18612227 1 65536 19398659 1 131072 22216707 1 65536 0 629144320 2097152 629144320 2097152 458926 8650759 65537 196611 262144 851980 1048644 4456665 14221352 1245201 273773929 1667978345 1835379232 1634624544 1627389992 1441792 542394694 1176512597 1852010349 1886545267 1936024617 543450467 1869443186 1702065007 1912602664 1638405 526479973 544105829;#K set 896 1684366368 1953439859 1701126260 1751741216 1885954932 1970431278 255;#P vpicture 463 610 532 656;#P number 399 480 27 9 0 8 8227 3 181 181 181 221 221 221 222 222 222 0 0 0;#P objectname dirPow;#P window linecount 0;#N vpatcher 10 59 610 459;#P window setfont "Sans Serif" 9.;#P newex 50 50 73 196617 pak 500 3500;#P newex 50 90 88 196617 unpack 500 3500;#P newex 50 70 40 196617 zl sort;#P inlet 50 30 15 0;#P inlet 113 30 15 0;#P outlet 50 112 15 0;#P outlet 128 112 15 0;#P connect 3 0 6 0;#P connect 6 0 4 0;#P connect 4 0 5 0;#P connect 5 0 1 0;#P connect 2 0 6 1;#P connect 5 1 0 0;#P pop;#P newobj 1812 684 80 196617 p;#P window linecount 2;#P newex 1720 707 643 196617 jcom.parameter room/absorption/ceiling/mid_high_frequency @type msg_int @repetitions 1 @range 10 9999 @clipmode both @description "mid-high crossover frequencies for the ceiling filter";#P newex 1721 651 643 196617 jcom.parameter room/absorption/ceiling/low_mid_frequency @type msg_int @repetitions 1 @range 10 9999 @clipmode both @description "low-mid crossover frequencies for the ceiling wall filter";#P window linecount 1;#P newex 1720 740 65 196617 pvar ceil_hf;#P newex 1720 684 63 196617 pvar ceil_lf;#N vpatcher 10 59 610 459;#P window setfont "Sans Serif" 9.;#P newex 50 50 73 196617 pak 500 3500;#P newex 50 90 88 196617 unpack 500 3500;#P newex 50 70 40 196617 zl sort;#P inlet 50 30 15 0;#P inlet 113 30 15 0;#P outlet 50 112 15 0;#P outlet 128 112 15 0;#P connect 3 0 6 0;#P connect 6 0 4 0;#P connect 4 0 5 0;#P connect 5 0 1 0;#P connect 2 0 6 1;#P connect 5 1 0 0;#P pop;#P newobj 1816 547 80 196617 p;#P window linecount 2;#P newex 1724 570 637 196617 jcom.parameter room/absorption/floor/mid_high_frequency @type msg_int @repetitions 1 @range 10 9999 @clipmode both @description "mid-high crossover frequencies for the front wall filter";#P newex 1725 514 637 196617 jcom.parameter room/absorption/floor/low_mid_frequency @type msg_int @repetitions 1 @range 10 9999 @clipmode both @description "low-mid crossover frequencies for the front wall filter";#P window linecount 1;#P newex 1724 603 71 196617 pvar floor_hf;#P newex 1725 547 69 196617 pvar floor_lf;#N vpatcher 10 59 610 459;#P window setfont "Sans Serif" 9.;#P newex 50 50 73 196617 pak 500 3500;#P newex 50 90 88 196617 unpack 500 3500;#P newex 50 70 40 196617 zl sort;#P inlet 50 30 15 0;#P inlet 113 30 15 0;#P outlet 50 112 15 0;#P outlet 128 112 15 0;#P connect 3 0 6 0;#P connect 6 0 4 0;#P connect 4 0 5 0;#P connect 5 0 1 0;#P connect 2 0 6 1;#P connect 5 1 0 0;#P pop;#P newobj 1815 408 80 196617 p;#P window linecount 2;#P newex 1725 437 638 196617 jcom.parameter room/absorption/right/mid_high_frequency @type msg_int @repetitions 1 @range 10 9999 @clipmode both @description "mid-high crossover frequencies for the front wall filter";#P newex 1725 375 563 196617 jcom.parameter room/absorption/right/low_mid_frequency @type msg_int @repetitions 1 @range 10 9999 @clipmode both @description "low-mid crossover frequencies for the front wall filter";#P window linecount 1;#P newex 1725 470 71 196617 pvar right_hf;#P newex 1725 408 69 196617 pvar right_lf;#N vpatcher 10 59 610 459;#P window setfont "Sans Serif" 9.;#P newex 50 50 73 196617 pak 500 3500;#P newex 50 90 88 196617 unpack 500 3500;#P newex 50 70 40 196617 zl sort;#P inlet 50 30 15 0;#P inlet 113 30 15 0;#P outlet 50 112 15 0;#P outlet 128 112 15 0;#P connect 3 0 6 0;#P connect 6 0 4 0;#P connect 4 0 5 0;#P connect 5 0 1 0;#P connect 2 0 6 1;#P connect 5 1 0 0;#P pop;#P newobj 1814 265 80 196617 p;#P window linecount 2;#P newex 1724 294 616 196617 jcom.parameter room/absorption/left/mid_high_frequency @type msg_int @repetitions 1 @range 10 9999 @clipmode both @description "mid-high crossover frequencies for the front wall filter";#P newex 1723 232 569 196617 jcom.parameter room/absorption/left/low_mid_frequency @type msg_int @repetitions 1 @range 10 9999 @clipmode both @description "low-mid crossover frequencies for the front wall filter";#P window linecount 1;#P newex 1724 327 65 196617 pvar left_hf;#P newex 1724 265 63 196617 pvar left_lf;#N vpatcher 10 59 610 459;#P window setfont "Sans Serif" 9.;#P newex 50 50 73 196617 pak 500 3500;#P newex 50 90 88 196617 unpack 500 3500;#P newex 50 70 40 196617 zl sort;#P inlet 50 30 15 0;#P inlet 113 30 15 0;#P outlet 50 112 15 0;#P outlet 128 112 15 0;#P connect 3 0 6 0;#P connect 6 0 4 0;#P connect 4 0 5 0;#P connect 5 0 1 0;#P connect 2 0 6 1;#P connect 5 1 0 0;#P pop;#P newobj 1813 132 80 196617 p;#P window linecount 2;#P newex 1723 161 600 196617 jcom.parameter room/absorption/rear/mid_high_frequency @type msg_int @repetitions 1 @range 10 9999 @clipmode both @description "mid-high crossover frequencies for the front wall filter";#P newex 1722 99 603 196617 jcom.parameter room/absorption/rear/low_mid_frequency @type msg_int @repetitions 1 @range 10 9999 @clipmode both @description "low-mid crossover frequencies for the front wall filter";#P window linecount 1;#P newex 1723 194 69 196617 pvar rear_hf;#P newex 1723 132 67 196617 pvar rear_lf;#P window linecount 0;#N vpatcher 10 59 610 459;#P window setfont "Sans Serif" 9.;#P newex 50 50 73 196617 pak 500 3500;#P newex 50 90 88 196617 unpack 500 3500;#P newex 50 70 40 196617 zl sort;#P inlet 50 30 15 0;#P inlet 113 30 15 0;#P outlet 50 112 15 0;#P outlet 128 112 15 0;#P connect 3 0 6 0;#P connect 6 0 4 0;#P connect 4 0 5 0;#P connect 5 0 1 0;#P connect 2 0 6 1;#P connect 5 1 0 0;#P pop;#P newobj 1817 6 80 196617 p;#P window linecount 2;#P newex 1727 35 614 196617 jcom.parameter room/absorption/front/mid_high_frequency @type msg_int @repetitions 1 @range 10 9999 @clipmode both @description " mid-high crossover frequencies for the front wall filter";#P newex 1726 -27 613 196617 jcom.parameter room/absorption/front/low_mid_frequency @type msg_int @repetitions 1 @range 10 9999 @clipmode both @description "low-mid  crossover frequencies for the front wall filter";#P window linecount 1;#P newex 1727 68 72 196617 pvar front_hf;#P newex 1727 6 70 196617 pvar front_lf;#P number 188 615 32 9 10 9999 8227 3 181 181 181 221 221 221 222 222 222 0 0 0;#P objectname ceil_hf;#P number 188 598 32 9 10 9999 8227 3 181 181 181 221 221 221 222 222 222 0 0 0;#P objectname floor_hf;#P number 188 581 32 9 10 9999 8227 3 181 181 181 221 221 221 222 222 222 0 0 0;#P objectname rear_hf;#P number 188 564 32 9 10 9999 8227 3 181 181 181 221 221 221 222 222 222 0 0 0;#P objectname front_hf;#P number 188 548 32 9 10 9999 8227 3 181 181 181 221 221 221 222 222 222 0 0 0;#P objectname right_hf;#P number 143 615 32 9 10 9999 8227 3 181 181 181 221 221 221 222 222 222 0 0 0;#P objectname ceil_lf;#P number 143 598 32 9 10 9999 8227 3 181 181 181 221 221 221 222 222 222 0 0 0;#P objectname floor_lf;#P number 143 581 32 9 10 9999 8227 3 181 181 181 221 221 221 222 222 222 0 0 0;#P objectname rear_lf;#P number 143 564 32 9 10 9999 8227 3 181 181 181 221 221 221 222 222 222 0 0 0;#P objectname front_lf;#P number 143 548 32 9 10 9999 8227 3 181 181 181 221 221 221 222 222 222 0 0 0;#P objectname right_lf;#P number 188 531 32 9 10 9999 8227 3 181 181 181 221 221 221 222 222 222 0 0 0;#P objectname left_hf;#P number 143 531 32 9 10 9999 8227 3 181 181 181 221 221 221 222 222 222 0 0 0;#P objectname left_lf;#P hidden message 431 492 239 196617 window flags nogrow \, savewindow 1 \, window exec;#P hidden message 367 508 229 196617 window flags grow \, window exec;#P window linecount 2;#P hidden newex 727 904 352 196617 jcom.parameter source/orientation/active @type msg_toggle @repetitions 0 @description "when ticked\\\, source directivity is calculated";#P objectname source/orientation/active;#P window linecount 1;#P hidden newex 727 884 116 196617 pvar directivity_toggle;#P user jsui 495 541 20 14 1 0 0 jcom.jsui_texttoggle.js off on 204 204 204 0 0 0 121 255 15;#P objectname directivity_toggle;#P user radiogroup 289 640 42 16;#X size 1;#X offset 16;#X inactive 0;#X itemtype 1;#X flagmode 0;#X set 0;#X done;#P objectname Renderthreshold_toggle;#P window linecount 3;#P hidden newex 688 672 274 196617 jcom.parameter rendermode/threshold/active @type msg_toggle @repetitions 0 @description "when ticked\\\, renderthreshold is active";#P objectname rendermode/threshold/active;#P window linecount 1;#P hidden newex 688 652 140 196617 pvar Renderthreshold_toggle;#P window linecount 4;#P hidden newex 686 590 277 196617 jcom.parameter rendermode/threshold @type msg_float @repetitions 0 @range 0. 1000. @clipmode both @description "renders ony reflecitions above this amplitude value (full scale range)";#P objectname rendermode/threshold;#P window linecount 3;#P hidden newex 686 521 297 196617 jcom.parameter rendermode/normalization/active @type msg_toggle @repetitions 0 @description "when ticked\\\, all calculated reflections are getting normalized to unity intensity";#P objectname rendermode/normalization/active;#P window linecount 1;#P hidden newex 686 571 107 196617 pvar Renderthreshold;#P hidden newex 686 501 90 196617 pvar unity_toggle;#P comment 303 615 74 196617 Unity intensity;#B frgb 149 149 149;#P user radiogroup 289 613 42 16;#X size 1;#X offset 16;#X inactive 0;#X itemtype 1;#X flagmode 0;#X set 0;#X done;#P objectname unity_toggle;#P comment 304 642 125 196617 Renderthreshold [ä FSR]:;#B frgb 149 149 149;#P flonum 426 641 40 9 0. 1000. 8227 3 181 181 181 221 221 221 255 255 255 0 0 0;#P objectname Renderthreshold;#P window linecount 2;#P hidden newex 669 400 349 196617 jcom.parameter source/orientation/mode @type msg_symbol @repetitions 1 @description "source orientation mode (center\\\, static\\\, or follow)";#P objectname source/orientation/mode;#P window linecount 1;#P hidden newex 669 379 121 196617 pvar orientation_menu 2;#P user ubumenu 494 557 37 196617 0 0 1 0;#X setrgb 181 181 181 25 25 25 50 50 50 4 4 4 141 141 141 112 112 112;#X add static;#X add center;#X add follow;#X prefix_set 0 0 <none> 0;#P objectname orientation_menu;#P outlet 583 1018 15 0;#P newex 583 978 47 196617 pcontrol;#N vpatcher 70 171 361 396;#P origin 93 25;#P window setfont "Sans Serif" 9.;#P window linecount 2;#P newex 417 -14 298 196617 jcom.message source/directivity/load_file @type msg_none @description "sound source directivity preset";#P window linecount 1;#P message 550 48 30 196617 read;#P newex 563 19 55 196617 sel bang 0;#P window linecount 0;#P hidden newex 624 74 68 196617 prepend read;#P hidden message 53 266 30 196617 bang;#N vpatcher 40 104 640 504;#P window setfont "Sans Serif" 9.;#P newex 50 50 50 196617 deferlow;#P newex 50 71 61 196617 delay 1000;#P newex 50 92 50 196617 deferlow;#P inlet 50 30 15 0;#P outlet 50 114 15 0;#P connect 1 0 4 0;#P connect 4 0 3 0;#P connect 3 0 2 0;#P connect 2 0 0 0;#P pop;#P hidden newobj 607 174 59 196617 p slowbang;#P newex 607 52 27 196617 t b l;#N vpatcher 40 104 640 504;#P window setfont "Sans Serif" 9.;#P newex 50 50 50 196617 deferlow;#P newex 50 71 43 196617 delay 5;#P newex 50 92 50 196617 deferlow;#P inlet 50 30 15 0;#P outlet 50 114 15 0;#P connect 1 0 4 0;#P connect 4 0 3 0;#P connect 3 0 2 0;#P connect 2 0 0 0;#P pop;#P hidden newobj 808 221 59 196617 p slowbang;#P hidden newex 551 174 54 196617 jcom.thru;#N vpatcher 515 216 1115 616;#P window setfont "Sans Serif" 9.;#P window linecount 1;#P newex 195 100 30 196617 t b b;#P newex 147 100 30 196617 t b b;#P newex 99 100 30 196617 t b b;#P window linecount 0;#P newex 51 100 30 196617 t b b;#P outlet 10 224 15 0;#P button 10 159 15 0;#N vpatcher 50 119 1066 701;#P origin 81 -88;#P window setfont "Sans Serif" 9.;#P window linecount 0;#P message 12 148 56 196617 name none;#P message 488 61 33 196617 clear;#P newex 12 36 40 196617 t b b b;#P outlet 106 266 15 0;#P window linecount 1;#P message 106 92 59 196617 0 1 \, 359 1;#P inlet 39 -7 15 0;#P connect 0 0 3 0;#P connect 3 0 5 0;#P connect 3 1 1 0;#P connect 1 0 2 0;#P fasten 4 0 2 0 493 153 111 153;#P connect 5 0 2 0;#P fasten 3 2 4 0 47 57 493 57;#P pop;#P hidden newobj 215 159 37 196617 p data;#N vpatcher 50 119 650 519;#P origin 81 -117;#P window setfont "Sans Serif" 9.;#P window linecount 0;#P message 12 177 81 196617 name Clarinet;#P message 487 88 33 196617 clear;#P newex 12 65 40 196617 t b b b;#P outlet 106 295 15 0;#P window linecount 6;#P message 106 102 367 196617 0 1. \, 10 0.9661 \, 20 0.8511 \, 30 0.6237 \, 40 0.4842 \, 50 0.3758 \, 60 0.257 \, 70 0.2512 \, 80 0.2818 \, 90 0.3162 \, 100 0.3631 \, 110 0.3758 \, 120 0.4315 \, 130 0.4842 \, 140 0.5248 \, 150 0.5012 \, 160 0.5309 \, 170 0.537 \, 180 0.5623 \, 190 0.537 \, 200 0.5309 \, 210 0.5012 \, 220 0.5248 \, 230 0.4842 \, 240 0.4315 \, 250 0.3758 \, 260 0.3631 \, 270 0.3162 \, 280 0.2818 \, 290 0.2512 \, 300 0.257 \, 310 0.3758 \, 320 0.4842 \, 330 0.6237 \, 340 0.8511 \, 350 0.9661 \, 360 1.;#P inlet 39 22 15 0;#P connect 0 0 3 0;#P connect 3 0 5 0;#P connect 3 1 1 0;#P connect 5 0 2 0;#P fasten 4 0 2 0 492 182 111 182;#P connect 1 0 2 0;#P fasten 3 2 4 0 47 86 492 86;#P pop;#P hidden newobj 167 159 37 196617 p data;#N vpatcher 50 119 650 519;#P origin 81 -116;#P window setfont "Sans Serif" 9.;#P window linecount 0;#P message 12 176 74 196617 name Trumpet;#P message 488 89 33 196617 clear;#P newex 12 64 40 196617 t b b b;#P outlet 106 294 15 0;#P window linecount 6;#P message 106 100 367 196617 0 1. \, 10 0.9661 \, 20 0.955 \, 30 0.881 \, 40 0.8318 \, 50 0.7943 \, 60 0.7586 \, 70 0.6839 \, 80 0.6166 \, 90 0.6026 \, 100 0.5754 \, 110 0.5559 \, 120 0.5248 \, 130 0.507 \, 140 0.4624 \, 150 0.4519 \, 160 0.4217 \, 170 0.4169 \, 180 0.3846 \, 190 0.4169 \, 200 0.4217 \, 210 0.4519 \, 220 0.4624 \, 230 0.507 \, 240 0.5248 \, 250 0.5559 \, 260 0.5754 \, 270 0.6026 \, 280 0.6166 \, 290 0.6839 \, 300 0.7586 \, 310 0.7943 \, 320 0.8318 \, 330 0.881 \, 340 0.955 \, 350 0.9661 \, 360 1.;#P inlet 39 21 15 0;#P connect 0 0 3 0;#P connect 3 0 5 0;#P connect 3 1 1 0;#P connect 1 0 2 0;#P fasten 4 0 2 0 493 181 111 181;#P connect 5 0 2 0;#P fasten 3 2 4 0 47 85 493 85;#P pop;#P hidden newobj 119 159 37 196617 p data;#N vpatcher 50 119 650 519;#P outlet 164 180 15 0;#P inlet 166 71 15 0;#P connect 0 0 1 0;#P pop;#P hidden newobj 71 202 37 196617 p thru;#N vpatcher 476 204 1076 604;#P origin 81 -87;#P window setfont "Sans Serif" 9.;#P window linecount 0;#P message 12 131 80 196617 name Trombone;#P message 488 60 33 196617 clear;#P newex 12 35 40 196617 t b b b;#P outlet 106 265 15 0;#P window linecount 6;#P message 106 69 361 196617 0 1 \, 10 0.9661 \, 20 0.955 \, 30 0.8222 \, 40 0.7674 \, 50 0.6998 \, 60 0.5623 \, 70 0.4842 \, 80 0.389 \, 90 0.3162 \, 100 0.302 \, 110 0.2818 \, 120 0.2692 \, 130 0.26 \, 140 0.2399 \, 150 0.2317 \, 160 0.2138 \, 170 0.1905 \, 180 0.1778 \, 190 0.1905 \, 200 0.2138 \, 210 0.2317 \, 220 0.2399 \, 230 0.26 \, 240 0.2692 \, 250 0.2818 \, 260 0.302 \, 270 0.3162 \, 280 0.389 \, 290 0.4842 \, 300 0.5623 \, 310 0.6998 \, 320 0.7674 \, 330 0.8222 \, 340 0.955 \, 350 0.9661 \, 360 1;#P inlet 39 -8 15 0;#P connect 0 0 3 0;#P connect 3 0 5 0;#P connect 3 1 1 0;#P connect 5 0 2 0;#P fasten 4 0 2 0 493 152 111 152;#P connect 1 0 2 0;#P fasten 3 2 4 0 47 56 493 56;#P pop;#P hidden newobj 71 159 37 196617 p data;#P hidden newex 51 76 203 196617 select trombone trumpet clarinet none;#P inlet 51 30 15 0;#P outlet 71 224 15 0;#P connect 10 0 8 0;#P connect 13 0 8 0;#P connect 11 0 8 0;#P connect 12 0 8 0;#P connect 8 0 9 0;#P connect 1 0 2 0;#P connect 2 0 10 0;#P connect 10 1 3 0;#P hidden connect 6 0 4 0;#P hidden connect 5 0 4 0;#P hidden connect 3 0 4 0;#P connect 7 0 4 0;#P connect 4 0 0 0;#P connect 2 1 11 0;#P connect 11 1 5 0;#P connect 2 2 12 0;#P connect 12 1 6 0;#P connect 2 3 13 0;#P connect 13 1 7 0;#P pop;#P hidden newobj 886 32 52 196617 p presets;#P hidden newex 724 -23 117 196617 pvar sourceDirPreset 2;#P window linecount 2;#P hidden newex 724 -3 335 196617 jcom.message source/directivity/preset @type msg_symbol @repetitions 1 @description "sound source directivity preset";#P objectname source/directivity/azimuth/preset;#P window linecount 0;#N vpatcher 706 332 1306 732;#P inlet 139 29 15 0;#P outlet 151 183 15 0;#P window setfont "Sans Serif" 9.;#P message 133 112 65 196617 0 1. \, 360 1.;#P message 242 107 33 196617 clear;#P newex 137 51 30 196617 t b b;#P connect 0 0 2 0;#P connect 4 0 0 0;#P connect 2 0 3 0;#P connect 1 0 3 0;#P connect 0 1 1 0;#P pop;#P hidden newobj -57 44 41 196617 p clear;#P window linecount 1;#P hidden newex 138 266 108 196617 loadmess const 10000;#P window linecount 0;#P comment 1 121 21 196617 0.5;#B frgb 149 149 149;#P hidden newex -115 67 48 196617 loadbang;#P comment 83 205 109 196617 confirm with "create";#B frgb 149 149 149;#P message 117 20 35 196617 flip_y;#P comment 8 179 14 196617 0;#B frgb 149 149 149;#P comment 8 66 15 196617 1;#B frgb 149 149 149;#P comment 189 190 33 196617 270 ¼;#B frgb 149 149 149;#P message 63 20 53 196617 normalize;#P message 20 20 42 196617 smooth;#P hidden message -113 89 74 196617 gridstep_x 45;#P comment 129 190 31 196617 180 ¼;#B frgb 149 149 149;#P comment 74 190 26 196617 90 ¼;#B frgb 149 149 149;#P comment 250 190 37 196617 360 ¼;#B frgb 149 149 149;#P comment 20 190 23 196617 0 ¼;#B frgb 149 149 149;#P hidden newex 108 239 27 196617 - 1;#P message 20 37 35 196617 write;#N thispatcher;#Q window flags nogrow close zoom nofloat;#Q window size 70 171 361 396;#Q window title;#Q window exec;#Q savewindow 1;#Q end;#P newobj 332 187 61 196617 thispatcher;#P window linecount 1;#P hidden message 242 167 273 196617 window flags nogrow \, savewindow 1 \, window exec;#P hidden message 207 205 262 196617 window flags grow \, window exec;#P window linecount 0;#N vpatcher 881 162 1481 562;#P window setfont "Sans Serif" 9.;#P message 215 223 210 196617 360 4964.861328;#P newex 215 201 62 196617 prepend set;#P inlet 235 38 15 0;#P window linecount 1;#N vpatcher 85 314 369 706;#P window setfont "Sans Serif" 9.;#P newex 31 151 30 196617 t b b;#P inlet 114 59 15 0;#P newex 44 311 58 196617 pak 360 1.;#P newex 92 284 40 196617 / 360.;#P message 31 203 36 196617 set 0.;#P newex 50 246 50 196617 accum 0.;#P inlet 70 58 15 0;#P outlet 44 336 15 0;#P fasten 6 0 7 0 119 112 36 112;#P connect 7 0 3 0;#P connect 5 0 0 0;#P connect 7 1 2 0;#P fasten 3 0 2 0 36 232 55 232;#P connect 1 0 2 1;#P fasten 2 0 4 0 55 268 97 268;#P connect 4 0 5 1;#P pop;#P newobj 204 143 41 196617 p mean;#P window linecount 0;#P newex 131 94 53 196617 * 10000.;#P newex 91 71 50 196617 t b f;#P newex 91 119 27 196617 i;#P newex 91 140 50 196617 pack 0 0.;#P newex 50 50 51 196617 zl slice 1;#P inlet 179 33 15 0;#P inlet 50 30 15 0;#P outlet 91 192 15 0;#P connect 1 0 3 0;#P connect 3 1 6 0;#P connect 6 0 5 0;#P connect 5 0 4 0;#P connect 8 0 0 0;#P connect 4 0 0 0;#P fasten 2 0 5 1 184 57 113 57;#P connect 6 1 7 0;#P connect 7 0 4 1;#P connect 7 0 8 0;#P connect 8 0 10 0;#P connect 10 0 11 0;#P connect 9 0 8 1;#P pop;#P hidden newobj 93 265 40 196617 p stuff;#P user ubumenu 166 37 100 196617 0 1 1 0;#X add Preset;#X add none;#X add trombone;#X add trumpet;#X add clarinet;#X prefix_set 0 0 <none> 0;#P objectname sourceDirPreset;#P window linecount 1;#P newex 267 264 169 196617 prepend /source/directivity/create;#P message 57 37 39 196617 create;#B color 5;#P message 131 37 33 196617 clear;#P message 98 37 30 196617 read;#P user jsui 21 57 245 131 1 0 0 ej.function.js;#J statemessage CreateNFunctions 2 ViMiC 50 0. 1. 0. 360. nan nan 0.7943 nan;#J statemessage legend 1;#J statemessage grid 3;#J statemessage snap2grid 0;#J statemessage hiddenpoint 0;#J statemessage clickadd 1;#J statemessage clickmove 1;#J statemessage clicksustain 1;#J statemessage autosustain 0;#J statemessage timedisplay 0;#J statemessage autocursor 1;#J statemessage bordersync 1;#J statemessage ghost 20;#J statemessage notifyrecalled 0;#J statemessage mousereport 1;#J statemessage numcurvepoints 12;#J statemessage movemode 0;#J statemessage mode 1;#J statemessage SetColor 0 brgb 204 204 204;#J statemessage SetColor 0 frgb 82 82 82;#J statemessage SetColor 0 rgb2 84 84 84;#J statemessage SetColor 0 rgb3 255 0 0;#J statemessage SetColor 0 rgb4 51 51 51;#J statemessage SetColor 0 rgb5 128 128 128;#J statemessage SetColor 0 rgb6 107 107 107;#J statemessage SetColor 1 brgb 204 204 204;#J statemessage SetColor 1 frgb 82 82 82;#J statemessage SetColor 1 rgb2 107 107 107;#J statemessage SetColor 1 rgb3 255 0 0;#J statemessage SetColor 1 rgb4 51 51 51;#J statemessage SetColor 1 rgb5 128 128 128;#J statemessage SetColor 1 rgb6 107 107 107;#J statemessage fsaa 1;#J statemessage redrawon;#P objectname ej.lui-311017;#P hidden message 1 320 205 196617 /source/directivity/create $0-directivity;#P newex 267 284 62 196617 prepend set;#P newex 267 245 121 196617 loadmess $0-directivity;#N vtable 361 385 67 1143 775 979704 10001 $0-directivity;#P hidden newobj 93 288 102 196617 table $0-directivity;#P hidden inlet -86 254 15 0;#P outlet 1 342 15 0;#P hidden newex 399 186 88 196617 bgcolor 80 80 80;#P hidden newex 1 278 44 196617 del 100;#P hidden button -91 209 15 0;#P hidden newex -16 257 44 196617 uzi 360;#P hidden connect 34 0 26 0;#P hidden fasten 13 0 1 0 62 54 -86 54;#P hidden connect 12 0 37 0;#P connect 1 0 0 0;#P hidden fasten 42 0 0 0 813 240 -11 240;#P hidden connect 0 1 2 0;#P hidden fasten 8 0 9 0 272 307 6 307;#P hidden connect 2 0 9 0;#P connect 9 0 4 0;#P hidden connect 21 0 10 0;#P hidden connect 37 0 10 0;#P hidden connect 32 0 10 0;#P hidden connect 28 0 10 0;#P hidden connect 27 0 10 0;#P hidden connect 26 0 10 0;#P hidden fasten 20 0 10 0 25 54 26 54;#P hidden fasten 11 0 10 0 103 54 26 54;#P hidden connect 41 0 10 0;#P hidden connect 0 1 45 0;#P hidden fasten 10 0 16 0 26 196 98 196;#P hidden connect 36 0 6 0;#P hidden connect 16 0 6 0;#P hidden connect 0 2 21 0;#P hidden connect 21 0 16 1;#P hidden connect 45 0 16 2;#P connect 7 0 14 0;#P connect 14 0 8 0;#P hidden connect 17 0 19 0;#P hidden connect 18 0 19 0;#P connect 47 0 48 0;#P connect 47 1 48 0;#P connect 40 1 41 0;#P connect 46 0 41 0;#P connect 48 0 41 0;#P connect 49 1 47 0;#P connect 47 2 43 0;#P connect 43 0 44 0;#P connect 43 1 46 0;#P hidden fasten 38 0 39 0 729 29 721 29 721 -28 729 -28;#P hidden connect 39 1 38 0;#P connect 44 0 42 0;#P connect 40 0 42 0;#P connect 38 1 40 0;#P pop;#P newobj 583 998 110 196617 p "source directivity";#P user jsui 409 617 52 19 1 0 0 jsui_textbutton.js "Get State" 225 225 225 68 68 68;#P objectname allreport;#P user jsui 436 557 57 17 1 0 0 jsui_textbutton.js directivity 225 225 225 68 68 68;#P objectname dir_editor;#P hidden message 583 960 30 196617 open;#P hidden newex 663 455 90 196617 pvar orientationA;#P window setfont "Sans Serif" 10.;#P comment 436 465 97 196618 Source orientation;#B frgb 149 149 149;#P window setfont "Sans Serif" 9.;#P number 459 541 32 9 0 0 8224 3 181 181 181 221 221 221 222 222 222 0 0 0;#P objectname orientationA;#N vpatcher 540 187 1140 587;#P window setfont "Sans Serif" 9.;#P newex 50 70 31 196617 % 1.;#P newex 50 50 120 196617 expr ($i1 + 180) / 360.;#P inlet 50 30 15 0;#P outlet 50 92 15 0;#P connect 1 0 2 0;#P connect 2 0 3 0;#P connect 3 0 0 0;#P pop;#P hidden newobj 663 473 53 196617 p convert;#N vpatcher 10 59 610 459;#P outlet 179 108 15 0;#P window setfont "Sans Serif" 9.;#P newex 50 50 119 196617 expr $f1 * 360. - 180;#P newex 50 71 62 196617 prepend set;#P inlet 50 30 15 0;#P outlet 50 93 15 0;#P connect 1 0 3 0;#P connect 3 0 2 0;#P connect 2 0 0 0;#P connect 3 0 4 0;#P pop;#P hidden newobj 664 436 53 196617 p convert;#P user jsui 457 482 58 58 1 0 0 jsui_360dial.js;#P window linecount 4;#P hidden newex 754 436 200 196617 jcom.parameter source/orientation/yaw @type msg_int @range -180 180 @clipmode both @description "orientation of the sound source (yaw-angle)";#P objectname source/orientation/yaw;#P window linecount 1;#P newex 361 878 61 196617 delay 1000;#P newex 356 858 50 196617 deferlow;#P newex 355 837 50 196617 jcom.init;#N vpatcher 20 74 620 474;#P window setfont "Sans Serif" 9.;#P window linecount 0;#P newex 103 118 47 196617 gate 1 0;#P window linecount 1;#P message 47 220 54 196617 separator;#P message 47 94 14 196617 1;#P newex 47 73 50 196617 jcom.init;#P inlet 143 50 15 0;#P window linecount 0;#P newex 142 94 246 196617 t b f;#P button 103 138 15 0;#P window linecount 1;#P newex 103 158 40 196617 uzi 24;#P newex 103 285 285 196617 zl join;#P newex 103 220 95 196617 append /position/z;#P newex 103 195 110 196617 prepend microphones/;#P newex 103 262 51 196617 tosymbol;#P outlet 103 333 15 0;#P connect 9 0 10 0;#P connect 10 0 11 0;#P connect 10 0 12 0;#P connect 12 0 6 0;#P connect 6 0 5 0;#P connect 5 2 2 0;#P connect 2 0 3 0;#P connect 11 0 1 0;#P connect 3 0 1 0;#P connect 1 0 4 0;#P connect 4 0 0 0;#P connect 7 0 12 1;#P connect 8 0 7 0;#P connect 7 1 4 1;#P pop;#P newobj 38 977 48 196617 p all_ele;#P newex 243 918 62 196617 prepend set;#N vpatcher 676 279 1276 679;#P window setfont "Sans Serif" 9.;#P window linecount 1;#P message 314 103 31 196617 0.33;#P message 371 102 23 196617 0.3;#P message 200 102 23 196617 0.7;#P message 257 102 23 196617 0.5;#P message 428 102 17 196617 0.;#P window linecount 0;#P message 143 102 23 196617 1.;#P newex 143 65 352 196617 route omni subcardioid cardioid supercardioid hypercardioid figure-eight;#P outlet 143 270 15 0;#P inlet 143 40 15 0;#P comment 292 215 227 196617 the definition of super- and hyper-cardioid vary from company to company;#P connect 1 0 3 0;#P connect 3 0 4 0;#P connect 4 0 2 0;#P connect 7 0 2 0;#P connect 6 0 2 0;#P connect 8 0 2 0;#P connect 5 0 2 0;#P connect 9 0 2 0;#P connect 3 1 7 0;#P connect 3 2 6 0;#P connect 3 3 9 0;#P connect 3 4 8 0;#P connect 3 5 5 0;#P pop;#P newobj 243 896 73 196617 p mic-presets;#P objectname mic-preset;#N vpatcher 749 58 1349 458;#P outlet 123 260 15 0;#P inlet 211 54 15 0;#P window setfont "Sans Serif" 9.;#P hidden message 375 121 64 196617 rgb2 66 0 2;#P hidden message 27 117 94 196617 rgb2 164 153 128;#P hidden message 253 117 92 196617 frgb 181 181 181;#P hidden message 137 120 93 196617 brgb 100 100 100;#P outlet 387 261 15 0;#P connect 5 0 3 0;#P connect 1 0 6 0;#P connect 3 0 6 0;#P connect 2 0 6 0;#P connect 5 0 1 0;#P connect 5 0 2 0;#P connect 5 0 4 0;#P connect 2 0 0 0;#P connect 1 0 0 0;#P connect 4 0 0 0;#P pop;#P hidden newobj 570 441 46 196617 p colors;#P hidden newex 571 401 48 196617 loadbang;#P hidden newex 571 420 50 196617 deferlow;#N vpatcher 20 74 620 474;#P window setfont "Sans Serif" 9.;#P window linecount 0;#P message 47 238 54 196617 separator;#P message 104 102 14 196617 1;#P inlet 269 49 15 0;#P window linecount 1;#P newex 104 133 47 196617 gate 1 0;#P window linecount 0;#P newex 160 114 62 196617 prepend set;#P inlet 143 50 15 0;#P newex 142 94 29 196617 t b f;#P window linecount 1;#P newex 103 158 40 196617 uzi 24;#P message 306 194 42 196617 0.;#P newex 103 285 38 196617 zl join;#P newex 103 212 126 196617 append /directivity/ratio;#P newex 103 190 110 196617 prepend microphones/;#P newex 103 262 51 196617 tosymbol;#P outlet 103 333 15 0;#P connect 11 0 13 0;#P connect 10 0 6 0;#P connect 6 2 2 0;#P connect 2 0 3 0;#P connect 13 0 1 0;#P connect 3 0 1 0;#P connect 1 0 4 0;#P connect 4 0 0 0;#P connect 11 0 12 0;#P connect 12 0 10 0;#P fasten 5 0 4 1 311 281 136 281;#P connect 7 0 10 1;#P connect 8 0 7 0;#P connect 7 1 9 0;#P connect 9 0 5 0;#P connect 6 2 5 0;#P pop;#P newobj 246 846 49 196617 p all_Dir;#N vpatcher 20 74 620 474;#P window setfont "Sans Serif" 9.;#P window linecount 0;#P message 44 237 54 196617 separator;#P message 93 96 14 196617 1;#P window linecount 1;#P newex 103 132 47 196617 gate 1 0;#P inlet 472 44 15 0;#P inlet 143 50 15 0;#P window linecount 0;#P newex 142 94 286 196617 t b s;#P window linecount 1;#P newex 103 158 40 196617 uzi 24;#P newex 103 285 325 196617 zl join;#P newex 103 212 133 196617 append /directivity/preset;#P newex 103 190 110 196617 prepend microphones/;#P newex 103 262 51 196617 tosymbol;#P outlet 103 333 15 0;#P connect 8 0 11 0;#P connect 8 0 10 0;#P connect 10 0 9 0;#P connect 9 0 5 0;#P connect 5 2 2 0;#P connect 2 0 3 0;#P connect 11 0 1 0;#P connect 3 0 1 0;#P connect 1 0 4 0;#P connect 4 0 0 0;#P connect 6 0 9 1;#P connect 7 0 6 0;#P connect 6 1 4 1;#P pop;#P newobj 242 948 78 196617 p all_Dir_menu;#P newex 243 871 104 196617 pvar All_dir_menu 2;#N vpatcher 20 74 620 474;#P window setfont "Sans Serif" 9.;#P window linecount 0;#P message 10 221 54 196617 separator;#P inlet 248 45 15 0;#P message 54 128 14 196617 1;#P newex 103 136 47 196617 gate 0 0;#P newex 143 72 68 196617 jcom.atomidi;#P inlet 143 50 15 0;#P newex 142 94 233 196617 t b f;#P window linecount 1;#P newex 103 158 40 196617 uzi 24;#P newex 103 285 272 196617 zl join;#P newex 103 217 92 196617 append /gain/midi;#P newex 103 195 110 196617 prepend microphones/;#P newex 103 262 51 196617 tosymbol;#P outlet 103 333 15 0;#P connect 11 0 12 0;#P connect 11 0 10 0;#P connect 10 0 9 0;#P connect 9 0 5 0;#P connect 5 2 2 0;#P connect 2 0 3 0;#P connect 12 0 1 0;#P connect 3 0 1 0;#P connect 1 0 4 0;#P connect 4 0 0 0;#P connect 6 0 9 1;#P connect 8 0 6 0;#P connect 7 0 8 0;#P connect 6 1 4 1;#P pop;#P newobj 374 916 75 196617 p all_gain_mic;#P outlet 117 979 15 0;#P newex 38 958 58 196617 pvar All_Z;#P newex 13 931 59 196617 pvar All_Y;#P newex 14 911 59 196617 pvar All_X;#P newex 158 915 60 196617 pvar All_A;#N vpatcher 20 74 620 474;#P window setfont "Sans Serif" 9.;#P window linecount 0;#P message 39 213 54 196617 separator;#P message 38 87 14 196617 1;#P newex 40 66 50 196617 jcom.init;#P window linecount 1;#P newex 105 118 47 196617 gate 1 0;#P inlet 142 50 15 0;#P window linecount 0;#P newex 142 94 178 196617 t b f;#P button 103 139 15 0;#P window linecount 1;#P newex 103 158 40 196617 uzi 24;#P newex 103 285 217 196617 zl join;#P newex 103 217 123 196617 append /orientation/yaw;#P newex 103 195 110 196617 prepend microphones/;#P newex 103 262 51 196617 tosymbol;#P outlet 103 333 15 0;#P connect 10 0 11 0;#P connect 11 0 12 0;#P connect 9 0 6 0;#P connect 6 0 5 0;#P connect 5 2 2 0;#P connect 2 0 3 0;#P connect 3 0 1 0;#P connect 12 0 1 0;#P connect 1 0 4 0;#P connect 4 0 0 0;#P connect 11 0 9 0;#P connect 8 0 7 0;#P connect 7 0 9 1;#P connect 7 1 4 1;#P pop;#P newobj 158 936 48 196617 p all_azi;#P newex 98 915 58 196617 pvar All_E;#N vpatcher 20 74 620 474;#P window setfont "Sans Serif" 9.;#P window linecount 0;#P newex 104 118 47 196617 gate 1 0;#P window linecount 1;#P message 46 220 54 196617 separator;#P message 45 94 14 196617 1;#P newex 45 73 50 196617 jcom.init;#P inlet 143 50 15 0;#P window linecount 0;#P newex 142 94 246 196617 t b f;#P button 104 140 15 0;#P window linecount 1;#P newex 103 158 40 196617 uzi 24;#P newex 103 285 285 196617 zl join;#P newex 103 217 126 196617 append /orientation/pitch;#P newex 103 195 110 196617 prepend microphones/;#P newex 103 262 51 196617 tosymbol;#P outlet 103 333 15 0;#P connect 9 0 10 0;#P connect 10 0 11 0;#P connect 6 0 5 0;#P connect 5 2 2 0;#P connect 2 0 3 0;#P connect 3 0 1 0;#P connect 11 0 1 0;#P connect 1 0 4 0;#P connect 4 0 0 0;#P connect 10 0 12 0;#P connect 12 0 6 0;#P connect 7 0 12 1;#P connect 8 0 7 0;#P connect 7 1 4 1;#P pop;#P newobj 98 936 48 196617 p all_ele;#P user ubumenu 335 444 71 196617 0 0 1 0;#X setrgb 181 181 181 25 25 25 50 50 50 4 4 4 141 141 141 112 112 112;#X add ---;#X add omni;#X add subcardioid;#X add cardioid;#X add supercardioid;#X add hypercardioid;#X add figure-eight;#X prefix_set 0 0 <none> 0;#P objectname All_dir_menu;#P window setfont "Sans Serif" 12.;#P comment 405 444 13 196620 ||;#B frgb 198 0 65;#P bpatcher 418 446 36 13 0 0 jcom.numberslider.mxt 0 0. 0. 1. @size 40 14;#P objectname All_gain_mic;#P window setfont "Sans Serif" 9.;#P flonum 170 444 35 9 -20. 20. 8227 3 198 198 198 221 221 221 222 222 222 0 0 0;#P objectname All_Z;#P flonum 134 444 35 9 0 0 8224 3 198 198 198 221 221 221 222 222 222 0 0 0;#P objectname All_Y;#P bpatcher 298 446 36 13 0 0 jcom.numberslider.mxt 0 0. 0. 1. @size 40 14 @frgb 181 181 181;#P objectname All_dir;#P window setfont "Sans Serif" 12.;#P comment 282 444 13 196620 ||;#B frgb 198 0 65;#P window setfont "Sans Serif" 9.;#P flonum 251 444 32 9 -90. 90. 8227 3 198 198 198 221 221 221 222 222 222 0 0 0;#P objectname All_E;#P flonum 218 444 33 9 -180. 0 8225 3 198 198 198 221 221 221 222 222 222 0 0 0;#P objectname All_A;#P window setfont "Sans Serif" 12.;#P comment 205 444 13 196620 ||;#B frgb 198 0 65;#P window setfont "Sans Serif" 9.;#P flonum 98 444 35 9 0 0 8224 3 198 198 198 221 221 221 222 222 222 0 0 0;#P objectname All_X;#P comment 36 446 52 196617 quick pick;#B frgb 149 149 149;#P bpatcher 3 427 523 17 0 0 jcom.sur.vimic_mic.mxt 0 24;#P objectname jcom.sur.vimic_mic.mxt[24];#P bpatcher 3 410 523 17 0 0 jcom.sur.vimic_mic.mxt 0 23;#P objectname jcom.sur.vimic_mic.mxt[23];#P bpatcher 3 393 523 17 0 0 jcom.sur.vimic_mic.mxt 0 22;#P objectname jcom.sur.vimic_mic.mxt[22];#P bpatcher 3 376 523 17 0 0 jcom.sur.vimic_mic.mxt 0 21;#P objectname jcom.sur.vimic_mic.mxt[21];#P bpatcher 3 359 523 17 0 0 jcom.sur.vimic_mic.mxt 0 20;#P objectname jcom.sur.vimic_mic.mxt[20];#P bpatcher 3 342 523 17 0 0 jcom.sur.vimic_mic.mxt 0 19;#P objectname jcom.sur.vimic_mic.mxt[19];#P bpatcher 3 325 523 17 0 0 jcom.sur.vimic_mic.mxt 0 18;#P objectname jcom.sur.vimic_mic.mxt[18];#P bpatcher 3 308 523 17 0 0 jcom.sur.vimic_mic.mxt 0 17;#P objectname jcom.sur.vimic_mic.mxt[17];#P comment 331 481 64 196617 direct sound:;#B frgb 149 149 149;#P comment 115 481 64 196617 direct sound:;#B frgb 149 149 149;#P comment 289 596 91 196617 Temperature [¼C]:;#B frgb 149 149 149;#P window linecount 3;#P newex 1092 877 292 196617 jcom.parameter room/temperature @type msg_float @repetitions 1 @range -20. 30. @clipmode low @description "Temperature in Celsius to calculate the speed of sound";#P window linecount 1;#P newex 1034 888 56 196617 pvar temp;#P comment 289 583 82 196617 Renderinterval:;#B frgb 149 149 149;#P number 373 580 25 9 1 0 8225 3 181 181 181 221 221 221 255 255 255 0 0 0;#P objectname Renderintervall;#P hidden newex 983 843 104 196617 pvar Renderintervall;#P window linecount 3;#P newex 1093 828 379 196617 jcom.parameter rendermode/interval @type msg_int @range 1 200 @clipmode both @description "tells ViMiC over how many signalblocks a change in position is interpolated - shorter time leads to faster transition and stronger doppler effect";#P window linecount 1;#P comment 296 22 37 196617 ratio;#B frgb 181 181 181;#P comment 435 9 56 196617 Gain;#B frgb 181 181 181;#P user ubumenu 229 615 53 196617 0 0 1 0;#X setrgb 181 181 181 25 25 25 50 50 50 4 4 4 141 141 141 112 112 112;#X add ---;#X add zero;#X add full;#X add audience;#X add carpet;#X add brick;#X add sand;#X add metal;#X add trees;#X add grass;#X prefix_set 0 0 <none> 0;#P objectname ceiling_menu;#P user ubumenu 229 598 53 196617 0 0 1 0;#X setrgb 181 181 181 25 25 25 50 50 50 4 4 4 141 141 141 112 112 112;#X add ---;#X add zero;#X add full;#X add audience;#X add carpet;#X add brick;#X add sand;#X add metal;#X add trees;#X add grass;#X prefix_set 0 0 <none> 0;#P objectname floor_menu;#P user ubumenu 229 547 53 196617 0 0 1 0;#X setrgb 181 181 181 25 25 25 50 50 50 4 4 4 141 141 141 112 112 112;#X add ---;#X add zero;#X add full;#X add audience;#X add carpet;#X add brick;#X add sand;#X add metal;#X add trees;#X add grass;#X prefix_set 0 0 <none> 0;#P objectname right_menu;#P user ubumenu 229 530 53 196617 0 0 1 0;#X setrgb 181 181 181 25 25 25 50 50 50 4 4 4 141 141 141 112 112 112;#X add ---;#X add zero;#X add full;#X add audience;#X add carpet;#X add brick;#X add sand;#X add metal;#X add trees;#X add grass;#X prefix_set 0 0 <none> 0;#P objectname left_menu;#P user ubumenu 229 581 53 196617 0 0 1 0;#X setrgb 181 181 181 25 25 25 50 50 50 4 4 4 141 141 141 112 112 112;#X add ---;#X add zero;#X add full;#X add audience;#X add carpet;#X add brick;#X add sand;#X add metal;#X add trees;#X add grass;#X prefix_set 0 0 <none> 0;#P objectname rear_menu;#P newex 1387 601 101 196617 pvar ceiling_menu 2;#P newex 1538 654 82 196617 wall_properties;#P window linecount 2;#P newex 1387 623 312 196617 jcom.message room/absorption/ceiling/preset @type msg_symbol @repetitions 1 @description "absorption presets for the floor";#P objectname room/absorption/ceiling/preset;#P window linecount 1;#P newex 1378 492 94 196617 pvar floor_menu 2;#P newex 1529 545 82 196617 wall_properties;#P window linecount 2;#P newex 1378 514 305 196617 jcom.message room/absorption/floor/preset @type msg_symbol @repetitions 1 @description "absorption presets for the floor";#P objectname room/absorption/floor/preset;#P window linecount 1;#P newex 1358 327 94 196617 pvar right_menu 2;#P newex 1509 380 82 196617 wall_properties;#P window linecount 2;#P newex 1358 349 315 196617 jcom.message room/absorption/right/preset @type msg_symbol @repetitions 1 @description "absorption presets for the right wall";#P objectname room/absorption/right/preset;#P window linecount 1;#P newex 1365 183 88 196617 pvar left_menu 2;#P newex 1514 236 82 196617 wall_properties;#P window linecount 2;#P newex 1365 205 309 196617 jcom.message room/absorption/left/preset @type msg_symbol @repetitions 1 @description "absorption presets for the left wall";#P objectname room/absorption/left/preset;#P window linecount 1;#P newex 1356 69 92 196617 pvar rear_menu 2;#P newex 1507 123 82 196617 wall_properties;#P window linecount 2;#P newex 1356 91 313 196617 jcom.message room/absorption/rear/preset @type msg_symbol @repetitions 1 @description "absorption presets for the rear wall";#P objectname room/absorption/rear/preset;#P window linecount 1;#P newex 1357 -39 95 196617 pvar front_menu 2;#P newex 1510 14 82 196617 wall_properties;#P window linecount 2;#P newex 1357 -17 316 196617 jcom.message room/absorption/front/preset @type msg_symbol @repetitions 1 @description "absorption presets for the front wall";#P objectname room/absorption;#P user ubumenu 229 564 53 196617 0 0 1 0;#X setrgb 181 181 181 25 25 25 50 50 50 4 4 4 141 141 141 112 112 112;#X add ---;#X add zero;#X add full;#X add audience;#X add carpet;#X add brick;#X add sand;#X add metal;#X add trees;#X add grass;#X prefix_set 0 0 <none> 0;#P objectname front_menu;#P window setfont "Sans Serif" 10.;#P window linecount 1;#P comment 140 501 88 196618 cross-frequency;#B frgb 149 149 149;#P window setfont "Sans Serif" 9.;#P number 73 635 41 9 500 19000 8227 3 181 181 181 221 221 221 222 222 222 0 0 0;#P objectname early_lowcut;#P comment 3 637 69 196617 airfilter [Hz]:;#B frgb 149 149 149;#P flonum 250 635 28 9 0. 40. 8227 3 181 181 181 221 221 221 255 255 255 0 0 0;#P objectname roomsizeZ;#P flonum 222 635 28 9 0. 40. 8227 3 181 181 181 221 221 221 255 255 255 0 0 0;#P objectname roomsizeY;#P flonum 194 635 28 9 0. 40. 8227 3 181 181 181 221 221 221 255 255 255 0 0 0;#P objectname roomsizeX;#P comment 116 637 77 196617 roomize x/y/z:;#B frgb 149 149 149;#P window linecount 2;#P newex 1052 755 418 196617 jcom.parameter room/absorption/ceiling/high @type msg_float @repetitions 1 @range 0.1 99.9 @clipmode both @description "absorption for the high frequencies of the ceiling";#P newex 1052 710 416 196617 jcom.parameter room/absorption/ceiling/mid @type msg_float @repetitions 1 @range 0.1 99.9 @clipmode both @description "absorption for the mid frequencies of the ceiling";#P newex 1052 664 416 196617 jcom.parameter room/absorption/ceiling/low @type msg_float @repetitions 1 @range 0.1 99.9 @clipmode both @description "absorption for the low frequencies of the ceiling";#P window linecount 1;#P newex 982 762 66 196617 pvar ceil_hg;#P newex 979 717 69 196617 pvar ceil_mg;#P newex 973 678 64 196617 pvar ceil_lg;#P window linecount 3;#P newex 1050 621 292 196617 jcom.parameter room/absorption/floor/high @type msg_float @repetitions 1 @range 0.1 99.9 @clipmode both @description "absorption for the high frequencies of the floor wall";#P newex 1050 576 290 196617 jcom.parameter room/absorption/floor/mid @type msg_float @repetitions 1 @range 0.1 99.9 @clipmode both @description "absorption for the mid frequencies of the floor wall";#P newex 1050 530 290 196617 jcom.parameter room/absorption/floor/low @type msg_float @repetitions 1 @range 0.1 99.9 @clipmode both @description "absorption for the low frequencies of the floor wall";#P window linecount 1;#P newex 975 632 72 196617 pvar floor_hg;#P newex 971 596 75 196617 pvar floor_mg;#P newex 971 544 70 196617 pvar floor_lg;#P window linecount 3;#P newex 1049 487 292 196617 jcom.parameter room/absorption/right/high @type msg_float @repetitions 1 @range 0.1 99.9 @clipmode both @description "absorption for the high frequencies of the right wall";#P newex 1049 442 290 196617 jcom.parameter room/absorption/right/mid @type msg_float @repetitions 1 @range 0.1 99.9 @clipmode both @description "absorption for the mid frequencies of the right wall";#P newex 1049 396 290 196617 jcom.parameter room/absorption/right/low @type msg_float @repetitions 1 @range 0.1 99.9 @clipmode both @description "absorption for the low frequencies of the right wall";#P objectname room/absorption/right/low;#P window linecount 1;#P newex 970 501 72 196617 pvar right_hg;#P newex 970 462 75 196617 pvar right_mg;#P newex 970 410 70 196617 pvar right_lg;#P window linecount 3;#P newex 1047 350 286 196617 jcom.parameter room/absorption/left/high @type msg_float @repetitions 1 @range 0.1 99.9 @clipmode both @description "absorption for the high frequencies of the left wall";#P newex 1047 305 284 196617 jcom.parameter room/absorption/left/mid @type msg_float @repetitions 1 @range 0.1 99.9 @clipmode both @description "absorption for the mid frequencies of the left wall";#P newex 1047 259 284 196617 jcom.parameter room/absorption/left/low @type msg_float @repetitions 1 @range 0.1 99.9 @clipmode both @description "absorption for the low frequencies of the left wall";#P window linecount 1;#P newex 968 364 66 196617 pvar left_hg;#P newex 968 325 69 196617 pvar left_mg;#P newex 968 273 64 196617 pvar left_lg;#P comment 184 517 45 196617 mid/high;#B frgb 149 149 149;#P comment 138 517 45 196617 low/mid;#B frgb 149 149 149;#P comment 101 517 26 196617 high;#B frgb 149 149 149;#P comment 70 517 26 196617 mids;#B frgb 149 149 149;#P comment 40 517 24 196617 low;#B frgb 149 149 149;#P window linecount 3;#P newex 1047 214 290 196617 jcom.parameter room/absorption/rear/high @type msg_float @repetitions 1 @range 0.1 99.9 @clipmode both @description "absorption for the high frequencies of the rear wall";#P newex 1047 168 288 196617 jcom.parameter room/absorption/rear/mid @type msg_float @repetitions 1 @range 0.1 99.9 @clipmode both @description "absorption for the mid frequencies of the rear wall";#P newex 1047 122 288 196617 jcom.parameter room/absorption/rear/low @type msg_float @repetitions 1 @range 0.1 99.9 @clipmode both @description "absorption for the low frequencies of the rear wall";#P window linecount 1;#P newex 968 228 70 196617 pvar back_hg;#P newex 968 188 73 196617 pvar back_mg;#P newex 968 136 68 196617 pvar back_lg;#P window linecount 3;#P newex 1047 76 293 196617 jcom.parameter room/absorption/front/high @type msg_float @repetitions 1 @range 0.1 99.9 @clipmode both @description "absorption for the high frequencies of the front wall";#P newex 1047 29 291 196617 jcom.parameter room/absorption/front/mid @type msg_float @repetitions 1 @range 0.1 99.9 @clipmode both @description "absorption for the mid frequencies of the front wall";#P objectname room/absorption/front/mid;#P newex 1047 -17 294 196617 jcom.parameter room/absorption/front/low @type msg_float @repetitions 1 @range 0.1 99.9 @clipmode both @description "absorption for the low frequencies of the front wall";#P objectname room/absorption/front/low;#P window linecount 1;#P newex 968 90 73 196617 pvar front_hg;#P newex 968 44 76 196617 pvar front_mg;#P newex 968 -3 71 196617 pvar front_lg;#P flonum 103 615 28 9 0. 100. 8227 3 181 181 181 221 221 221 255 255 255 0 0 0;#P objectname ceil_hg;#P flonum 103 598 28 9 0. 100. 8227 3 181 181 181 221 221 221 255 255 255 0 0 0;#P objectname floor_hg;#P flonum 103 548 28 9 0. 100. 8227 3 181 181 181 221 221 221 255 255 255 0 0 0;#P objectname right_hg;#P flonum 103 531 28 9 0. 100. 8227 3 181 181 181 221 221 221 255 255 255 0 0 0;#P objectname left_hg;#P flonum 103 581 28 9 0. 100. 8227 3 181 181 181 221 221 221 255 255 255 0 0 0;#P objectname back_hg;#P flonum 103 564 28 9 0. 100. 8227 3 181 181 181 221 221 221 255 255 255 0 0 0;#P objectname front_hg;#P flonum 73 615 28 9 0. 100. 8227 3 181 181 181 221 221 221 255 255 255 0 0 0;#P objectname ceil_mg;#P flonum 73 598 28 9 0. 100. 8227 3 181 181 181 221 221 221 255 255 255 0 0 0;#P objectname floor_mg;#P flonum 73 548 28 9 0. 100. 8227 3 181 181 181 221 221 221 255 255 255 0 0 0;#P objectname right_mg;#P flonum 73 531 28 9 0. 100. 8227 3 181 181 181 221 221 221 255 255 255 0 0 0;#P objectname left_mg;#P flonum 73 581 28 9 0. 100. 8227 3 181 181 181 221 221 221 255 255 255 0 0 0;#P objectname back_mg;#P flonum 73 564 28 9 0. 100. 8227 3 181 181 181 221 221 221 255 255 255 0 0 0;#P objectname front_mg;#P flonum 42 615 28 9 0. 100. 8227 3 181 181 181 221 221 221 255 255 255 0 0 0;#P objectname ceil_lg;#P flonum 42 598 28 9 0. 100. 8227 3 181 181 181 221 221 221 255 255 255 0 0 0;#P objectname floor_lg;#P flonum 42 548 28 9 0. 100. 8227 3 181 181 181 221 221 221 255 255 255 0 0 0;#P objectname right_lg;#P flonum 42 531 28 9 0. 100. 8227 3 181 181 181 221 221 221 255 255 255 0 0 0;#P objectname left_lg;#P flonum 42 581 28 9 0. 100. 8227 3 181 181 181 221 221 221 255 255 255 0 0 0;#P objectname back_lg;#P comment 2 618 40 196617 Ceiling:;#B frgb 149 149 149;#P comment 8 601 34 196617 Floor:;#B frgb 149 149 149;#P comment 8 551 34 196617 Right:;#B frgb 149 149 149;#P comment 12 534 29 196617 Left:;#B frgb 149 149 149;#P comment 10 584 31 196617 Rear:;#B frgb 149 149 149;#P comment 7 566 34 196617 Front:;#B frgb 149 149 149;#P window setfont "Sans Serif" 12.;#P comment 2 7 86 196620 Microphones:;#B frgb 149 149 149;#P window setfont "Sans Serif" 10.;#P comment 34 501 104 196618 wall absorption [%];#B frgb 149 149 149;#P window setfont "Sans Serif" 9.;#P flonum 42 564 28 9 0. 100. 8227 3 181 181 181 221 221 221 255 255 255 0 0 0;#P objectname front_lg;#P user panel 1 498 285 160;#X brgb 80 80 80;#X frgb 255 255 255;#X border 1;#X rounded 0;#X shadow 0;#X done;#P newex 456 779 107 196617 pvar xfade_threshold;#P number 388 538 32 9 0 0 8225 3 181 181 181 221 221 221 222 222 222 0 0 0;#P objectname xfade_threshold;#P comment 287 540 83 196617 fading threshold:;#B frgb 149 149 149;#P newex 469 744 92 196617 pvar xfade_length;#P number 388 522 32 9 0 0 8225 3 181 181 181 221 221 221 222 222 222 0 0 0;#P objectname xfade_length;#P comment 310 524 61 196617 fading time:;#B frgb 149 149 149;#P window setfont "Sans Serif" 12.;#P comment 291 502 111 196620 X-FADE settings:;#B frgb 149 149 149;#P window setfont "Sans Serif" 9.;#P comment 294 556 77 196617 fading function:;#B frgb 149 149 149;#P user ubumenu 371 555 60 196617 0 0 1 0;#X setrgb 181 181 181 25 25 25 50 50 50 4 4 4 141 141 141 112 112 112;#X add cosine;#X add cosine_squared;#X add linear;#X add tanh;#X add sqrt;#X prefix_set 0 0 <none> 0;#P objectname fadefunction;#P user panel 287 498 146 77;#X brgb 80 80 80;#X frgb 255 255 255;#X border 1;#X rounded 0;#X shadow 0;#X done;#P newex 463 818 98 196617 pvar fadefunction 2;#P window linecount 2;#P newex 565 814 403 196617 jcom.parameter rendermode/xfade/fadefunction @type msg_symbol @description "fading function of the crossfade for the x-fade mode";#P window linecount 3;#P newex 566 769 329 196617 jcom.parameter rendermode/xfade/threshold @type msg_int @range 0 4096 @repetitions 0 @clipmode low @description "distance in samples before a crossfade in the x-fade mode is activated";#P window linecount 2;#P newex 565 736 432 196617 jcom.parameter rendermode/xfade/fadelength @type msg_int @repetitions 0 @range 0 9999 @clipmode both @description "length of the crossfade for the x-fade mode in samples";#P window linecount 1;#P hidden newex 399 -20 417 196617 jcom.multi.out~;#P bpatcher 3 291 523 17 0 0 jcom.sur.vimic_mic.mxt 0 16;#P objectname jcom.sur.vimic_mic.mxt[16];#P bpatcher 3 274 523 17 0 0 jcom.sur.vimic_mic.mxt 0 15;#P objectname jcom.sur.vimic_mic.mxt[15];#P bpatcher 3 257 523 17 0 0 jcom.sur.vimic_mic.mxt 0 14;#P objectname jcom.sur.vimic_mic.mxt[14];#P bpatcher 3 240 523 17 0 0 jcom.sur.vimic_mic.mxt 0 13;#P objectname jcom.sur.vimic_mic.mxt[13];#P bpatcher 3 223 523 17 0 0 jcom.sur.vimic_mic.mxt 0 12;#P objectname jcom.sur.vimic_mic.mxt[12];#P bpatcher 3 206 523 17 0 0 jcom.sur.vimic_mic.mxt 0 11;#P objectname jcom.sur.vimic_mic.mxt[11];#P bpatcher 3 189 523 17 0 0 jcom.sur.vimic_mic.mxt 0 10;#P objectname jcom.sur.vimic_mic.mxt[10];#P bpatcher 3 172 523 17 0 0 jcom.sur.vimic_mic.mxt 0 9;#P objectname jcom.sur.vimic_mic.mxt[9];#P window linecount 2;#P message 8 877 64 196617 \; max refresh;#P inlet 831 -24 15 0;#P hidden inlet 402 -38 15 0;#P bpatcher 3 155 523 17 0 0 jcom.sur.vimic_mic.mxt 0 8;#P objectname jcom.sur.vimic_mic.mxt[8];#P bpatcher 3 138 523 17 0 0 jcom.sur.vimic_mic.mxt 0 7;#P objectname jcom.sur.vimic_mic.mxt[7];#P bpatcher 3 121 523 17 0 0 jcom.sur.vimic_mic.mxt 0 6;#P objectname jcom.sur.vimic_mic.mxt[6];#P bpatcher 3 104 523 17 0 0 jcom.sur.vimic_mic.mxt 0 5;#P objectname jcom.sur.vimic_mic.mxt[5];#P bpatcher 3 87 523 17 0 0 jcom.sur.vimic_mic.mxt 0 4;#P objectname jcom.sur.vimic_mic.mxt[4];#P bpatcher 3 70 523 17 0 0 jcom.sur.vimic_mic.mxt 0 3;#P objectname jcom.sur.vimic_mic.mxt[3];#P bpatcher 3 53 523 17 0 0 jcom.sur.vimic_mic.mxt 0 2;#P objectname jcom.sur.vimic_mic.mxt[2];#P flonum 184 480 27 9 0. 40. 8227 3 181 181 181 221 221 221 255 255 255 0 0 0;#P objectname disPow;#P window linecount 1;#P comment 420 581 84 196617 Update rate [Hz]:;#B frgb 149 149 149;#P number 504 579 28 9 1 50 8227 3 181 181 181 221 221 221 255 255 255 0 0 0;#P objectname Updaterate;#P hidden newex 1004 803 83 196617 pvar Updaterate;#P window linecount 2;#P newex 1093 796 407 196617 jcom.parameter updaterate @type msg_int @range 1 50 @clipmode low @description "vimic internal updaterate in [Hz]- tells how often new parameter are getting updated";#P window linecount 1;#P newex 116 868 50 196617 deferlow;#P window linecount 3;#P hidden newex 670 322 308 196617 jcom.parameter room/reflection/airfilter @type msg_int @range 500 19000 @clipmode both @repetitions 0 @description "damping frequency of the early reflections due to air absorption";#P objectname room/reflection/airfilter;#P window linecount 1;#P hidden newex 670 300 94 196617 pvar early_lowcut;#P comment 355 23 37 196617 preset;#B frgb 181 181 181;#P newex 434 855 144 196617 jcom.list2parameter 3;#P newex 600 880 80 196617 pvar roomsizeZ;#P newex 517 880 81 196617 pvar roomsizeY;#P newex 434 880 81 196617 pvar roomsizeX;#P window linecount 2;#P newex 583 845 386 196617 jcom.parameter room/size/xyz @type msg_list @ramp/drive scheduler @range 0. 40. @repetitions 0 @clipmode both @description "Size of the virtual room in XYZ";#P objectname room/size/xyz;#P window linecount 1;#P comment 6 466 201 196617 power law for attenuation due to distance:;#B frgb 149 149 149;#P comment 219 467 211 196617 power law for attenuation due to directivity:;#B frgb 149 149 149;#P hidden newex 669 228 66 196617 pvar dirPow;#P hidden newex 688 163 66 196617 pvar disPow;#P window linecount 3;#P hidden newex 670 247 307 196617 jcom.parameter microphones/directivity/power @type msg_int @repetitions 0 @range 0 8 @clipmode both @description "power law for attenuation due to microphone directivity";#P objectname microphones/direct/power;#P hidden newex 688 182 267 196617 jcom.parameter room/distance/power @type msg_float @range 0. 8. @clipmode both @repetitions 0 @description "power law for attenuation due to distance";#P objectname room/distance/power;#P window linecount 1;#P comment 216 22 65 196617 Yaw/Pitch;#B frgb 181 181 181;#P comment 171 22 14 196617 Z;#B frgb 181 181 181;#P comment 137 22 14 196617 Y;#B frgb 181 181 181;#P comment 99 21 14 196617 X;#B frgb 181 181 181;#P comment 316 9 56 196617 Directivity;#B frgb 181 181 181;#P comment 215 9 87 196617 Orientation;#B frgb 181 181 181;#P comment 96 9 99 196617 Microphone position;#B frgb 181 181 181;#P bpatcher 3 36 523 17 0 0 jcom.sur.vimic_mic.mxt 0 1;#P objectname jcom.sur.vimic_mic.mxt;#P hidden newex 759 112 74 196617 pvar allreport;#P window linecount 3;#P hidden newex 760 132 181 196617 jcom.message report_all @type msg_none @description "report inner state of the vimic module";#P objectname report_all;#P flonum 406 803 29 9 0 0 8224 3 181 181 181 221 221 221 222 222 222 0 0 0;#P objectname bb6;#P flonum 406 785 29 9 0 0 8224 3 181 181 181 221 221 221 222 222 222 0 0 0;#P objectname bb5;#P hidden inlet 6 781 15 0;#P window linecount 1;#N thispatcher;#Q window flags nogrow close zoom nofloat;#Q window size 353 44 889 706;#Q window title;#Q window exec;#Q savewindow 1;#Q end;#P hidden newobj 116 891 59 196617 thispatcher;#P hidden newex 158 986 88 196617 bgcolor 80 80 80;#P user panel 1 4 533 459;#X brgb 80 80 80;#X frgb 255 255 255;#X border 1;#X rounded 0;#X shadow 0;#X done;#P user panel 216 464 217 32;#X brgb 80 80 80;#X frgb 255 255 255;#X border 1;#X rounded 0;#X shadow 0;#X done;#P user panel 1 464 213 32;#X brgb 80 80 80;#X frgb 255 255 255;#X border 1;#X rounded 0;#X shadow 0;#X done;#P user panel 287 576 247 82;#X brgb 80 80 80;#X frgb 255 255 255;#X border 1;#X rounded 0;#X shadow 0;#X done;#P user panel 434 464 100 140;#X brgb 80 80 80;#X frgb 255 255 255;#X border 1;#X rounded 0;#X shadow 0;#X done;#P user ubutton 456 603 69 43 0 0;#P hidden connect 59 0 13 0;#P hidden connect 59 1 41 0;#P hidden connect 59 2 42 0;#P hidden connect 59 3 43 0;#P hidden connect 59 4 44 0;#P hidden connect 59 5 45 0;#P hidden connect 59 6 46 0;#P hidden connect 59 7 47 0;#P hidden connect 59 8 51 0;#P hidden connect 59 9 52 0;#P hidden connect 59 10 53 0;#P hidden connect 59 11 54 0;#P hidden connect 59 12 55 0;#P hidden connect 59 13 56 0;#P hidden connect 59 14 57 0;#P hidden connect 59 15 58 0;#P hidden connect 59 16 184 0;#P hidden connect 59 17 185 0;#P hidden connect 59 18 186 0;#P hidden connect 59 19 187 0;#P hidden connect 59 20 188 0;#P hidden connect 59 21 189 0;#P hidden connect 59 22 190 0;#P hidden connect 59 23 191 0;#P hidden connect 0 0 301 0;#P connect 210 0 221 0;#P connect 205 0 204 0;#P connect 224 0 302 0;#P connect 302 0 35 0;#P hidden connect 255 0 7 0;#P hidden connect 256 0 7 0;#P connect 35 0 7 0;#P connect 221 0 211 0;#P fasten 214 0 211 0 247 975 122 975;#P fasten 212 0 211 0 379 975 122 975;#P connect 206 0 211 0;#P connect 204 0 211 0;#P connect 215 0 211 0;#P connect 207 0 206 0;#P fasten 213 1 214 0 342 943 247 943;#P fasten 213 1 219 0 342 892 248 892;#P connect 219 0 220 0;#P hidden connect 198 0 215 0;#P connect 224 0 215 1;#P hidden connect 220 0 198 0;#P hidden connect 218 0 198 0;#P connect 224 0 214 1;#P connect 222 0 223 0;#P connect 223 0 224 0;#P hidden connect 201 0 212 0;#P hidden connect 48 0 59 0;#P hidden connect 218 1 201 0;#P fasten 28 0 31 0 439 902 431 902 431 848 439 848;#P connect 31 0 28 0;#P connect 224 0 212 1;#P fasten 29 0 31 1 522 906 425 906 425 843 452 843;#P connect 61 0 73 0;#P hidden connect 228 0 226 0;#P hidden fasten 30 0 31 2 605 905 420 905 420 838 465 838;#P connect 62 0 63 0;#P hidden connect 304 0 303 0;#P connect 60 0 70 0;#P hidden connect 49 0 13 1;#P hidden connect 49 0 41 1;#P hidden connect 49 0 42 1;#P hidden connect 49 0 43 1;#P hidden connect 49 0 44 1;#P hidden connect 49 0 45 1;#P hidden connect 49 0 46 1;#P hidden connect 49 0 47 1;#P hidden connect 49 0 51 1;#P hidden connect 49 0 52 1;#P hidden connect 49 0 53 1;#P hidden connect 49 0 54 1;#P hidden connect 49 0 55 1;#P hidden connect 49 0 56 1;#P hidden connect 49 0 57 1;#P hidden connect 49 0 58 1;#P hidden connect 49 0 184 1;#P hidden connect 49 0 185 1;#P hidden connect 49 0 186 1;#P hidden connect 49 0 187 1;#P hidden connect 49 0 188 1;#P hidden connect 49 0 189 1;#P hidden connect 49 0 190 1;#P hidden connect 49 0 191 1;#P connect 31 1 29 0;#P connect 27 0 31 10;#P lcolor 15;#P connect 70 0 60 0;#P connect 63 1 62 0;#P connect 73 0 61 0;#P hidden connect 216 0 218 0;#P hidden connect 217 0 216 0;#P connect 31 10 27 0;#P lcolor 15;#P connect 303 1 232 0;#P connect 232 0 236 0;#P connect 236 0 235 0;#P connect 235 0 237 0;#P lcolor 15;#P connect 31 2 30 0;#P hidden connect 225 0 231 0;#P hidden connect 227 0 231 0;#P hidden connect 231 0 228 0;#P hidden connect 226 0 227 0;#P hidden fasten 22 0 24 0 675 291 666 291 666 225 674 225;#P hidden fasten 240 0 239 0 674 432 666 432 666 376 674 376;#P hidden connect 239 1 240 0;#P hidden connect 24 0 22 0;#P hidden fasten 34 0 33 0 675 365 666 365 666 296 675 296;#P hidden connect 33 0 34 0;#P hidden fasten 247 0 245 0 691 565 682 565 682 497 691 497;#P hidden connect 245 0 247 0;#P hidden fasten 248 0 246 0 691 646 683 646 683 568 691 568;#P hidden connect 246 0 248 0;#P hidden fasten 21 0 23 0 693 225 685 225 685 160 693 160;#P hidden connect 23 0 21 0;#P hidden fasten 250 0 249 0 693 715 684 715 684 648 693 648;#P hidden connect 249 0 250 0;#P hidden fasten 307 0 306 0 731 1008 722 1008 722 940 731 940;#P hidden connect 306 0 307 0;#P hidden fasten 254 0 253 0 732 937 723 937 723 880 732 880;#P hidden connect 253 0 254 0;#P hidden connect 227 1 225 0;#P hidden connect 12 0 11 0;#P connect 104 0 101 0;#P connect 105 0 102 0;#P connect 106 0 103 0;#P connect 110 0 107 0;#P connect 111 0 108 0;#P connect 112 0 109 0;#P connect 121 0 118 0;#P connect 122 0 119 0;#P connect 123 0 120 0;#P connect 127 0 124 0;#P connect 128 0 125 0;#P connect 129 0 126 0;#P connect 133 0 130 0;#P connect 134 0 131 0;#P connect 139 0 136 0;#P connect 135 0 132 0;#P connect 140 0 137 0;#P connect 141 0 138 0;#P hidden connect 175 0 176 0;#P connect 36 0 37 0;#P connect 180 0 179 0;#P connect 101 0 104 0;#P connect 151 0 104 0;#P connect 102 0 105 0;#P connect 151 1 105 0;#P connect 103 0 106 0;#P connect 151 2 106 0;#P connect 154 0 110 0;#P connect 107 0 110 0;#P connect 108 0 111 0;#P connect 154 1 111 0;#P connect 109 0 112 0;#P connect 154 2 112 0;#P connect 118 0 121 0;#P connect 157 0 121 0;#P connect 119 0 122 0;#P connect 157 1 122 0;#P connect 120 0 123 0;#P connect 157 2 123 0;#P connect 124 0 127 0;#P connect 160 0 127 0;#P connect 125 0 128 0;#P connect 160 1 128 0;#P connect 126 0 129 0;#P connect 160 2 129 0;#P connect 130 0 133 0;#P connect 163 0 133 0;#P connect 131 0 134 0;#P connect 163 1 134 0;#P connect 132 0 135 0;#P connect 163 2 135 0;#P connect 136 0 139 0;#P connect 166 0 139 0;#P connect 137 0 140 0;#P connect 166 1 140 0;#P connect 138 0 141 0;#P connect 166 2 141 0;#P connect 179 0 180 0;#P connect 37 0 36 0;#P hidden connect 176 0 175 0;#P connect 153 0 155 0;#P connect 155 1 153 0;#P connect 150 0 152 0;#P connect 152 1 150 0;#P connect 159 0 161 0;#P connect 161 1 159 0;#P connect 156 0 158 0;#P connect 158 1 156 0;#P connect 162 0 164 0;#P connect 164 1 162 0;#P connect 165 0 167 0;#P connect 167 1 165 0;#P connect 153 1 154 0;#P connect 159 1 160 0;#P connect 150 1 151 0;#P connect 156 1 157 0;#P connect 162 1 163 0;#P connect 165 1 166 0;#P connect 296 0 294 0;#P connect 166 3 294 0;#P connect 298 1 297 0;#P connect 297 0 295 0;#P connect 166 4 295 0;#P connect 298 0 296 0;#P connect 278 0 276 0;#P connect 276 0 274 0;#P connect 154 3 274 0;#P connect 278 1 277 0;#P connect 277 0 275 0;#P connect 154 4 275 0;#P connect 283 0 281 0;#P connect 281 0 279 0;#P connect 157 3 279 0;#P connect 283 1 282 0;#P connect 282 0 280 0;#P connect 157 4 280 0;#P connect 293 1 292 0;#P connect 292 0 290 0;#P connect 163 4 290 0;#P connect 288 0 286 0;#P connect 286 0 284 0;#P connect 160 3 284 0;#P connect 288 1 287 0;#P connect 287 0 285 0;#P connect 160 4 285 0;#P connect 293 0 291 0;#P connect 291 0 289 0;#P connect 163 3 289 0;#P connect 273 0 271 0;#P connect 271 0 269 0;#P connect 151 3 269 0;#P connect 273 1 272 0;#P connect 272 0 270 0;#P connect 151 4 270 0;#P connect 294 0 298 0;#P connect 274 0 278 0;#P connect 279 0 283 0;#P connect 284 0 288 0;#P connect 289 0 293 0;#P connect 269 0 273 0;#P connect 295 0 298 1;#P connect 275 0 278 1;#P connect 280 0 283 1;#P connect 285 0 288 1;#P connect 290 0 293 1;#P connect 270 0 273 1;#P pop;#P hidden newobj 157 333 67 196617 p inspector;#B color 4;#P objectname inspector;#P hidden newex 544 314 62 196617 prepend set;#P hidden newex 615 366 27 196617 - 1;#P hidden newex 614 295 27 196617 + 1;#P hidden newex 614 347 51 196617 route set;#P hidden newex 614 454 102 196617 pvar render_mode 2;#P window linecount 2;#P hidden newex 722 448 242 196617 jcom.parameter rendermode @type msg_symbol @repetitions 0 @description "Rendertype of ViMiC";#P objectname rendermode;#P user ubumenu 42 24 63 196617 0 0 1 0;#X setrgb 181 181 181 25 25 25 50 50 50 4 4 4 141 141 141 112 112 112;#X add ViMiC_lite;#X add X-fade_lite;#X add ViMiC_XL;#X add X-fade_XL;#X add Panning;#X add Static;#X prefix_set 0 0 <none> 0;#P objectname render_mode;#P window linecount 1;#N vpatcher 497 319 1097 719;#P window setfont "Sans Serif" 9.;#P newex 84 62 55 196617 delay 100;#P outlet 69 190 15 0;#P newex 84 42 50 196617 deferlow;#P outlet 329 192 15 0;#P button 62 44 15 0;#P hidden message 95 113 64 196617 rgb2 66 0 2;#P hidden message 245 111 92 196617 frgb 181 181 181;#P hidden message 164 113 75 196617 brgb 47 46 36;#P newex 84 83 50 196617 deferlow;#P newex 85 20 50 196617 jcom.init;#P connect 1 0 8 0;#P connect 5 0 7 0;#P connect 0 0 7 0;#P connect 7 0 9 0;#P connect 9 0 1 0;#P connect 1 0 4 0;#P connect 1 0 2 0;#P connect 1 0 3 0;#P connect 3 0 6 0;#P connect 2 0 6 0;#P connect 4 0 6 0;#P pop;#P hidden newobj 351 79 46 196617 p colors;#N thispatcher;#Q end;#P hidden newobj 351 119 61 196617 thispatcher;#N vpatcher 188 431 335 589;#P button 43 34 15 0;#P window setfont "Sans Serif" 9.;#P newex 42 53 50 196617 deferlow;#P newex 41 79 50 196617 t front;#P outlet 41 103 15 0;#P inlet 41 15 15 0;#P connect 2 0 1 0;#P connect 4 0 3 0;#P connect 0 0 4 0;#P pop;#P hidden newobj 351 100 14 196617 p;#P bpatcher 153 33 100 12 0 0 jcom.textslider.mxt 1 0. 0. 1. @size 100 12 @text 1st-order refl.;#P bpatcher 153 20 100 13 0 0 jcom.textslider.mxt 1 0. 0. 1. @size 100 12 @text direct sound @frgb;#P user ubumenu 106 24 22 196617 0 0 1 0;#X setrgb 181 181 181 25 25 25 50 50 50 4 4 4 141 141 141 112 112 112;#X add 1;#X add 2;#X add 3;#X add 4;#X add 5;#X add 6;#X add 7;#X add 8;#X add 9;#X add 10;#X add 11;#X add 12;#X add 13;#X add 14;#X add 15;#X add 16;#X add 17;#X add 18;#X add 19;#X add 20;#X add 21;#X add 22;#X add 23;#X add 24;#X prefix_set 0 0 <none> 0;#P objectname mics;#P window linecount 2;#P hidden newex 614 315 400 196617 jcom.parameter microphones/amount @type msg_int @range 1 24 @repetitions 0 @clipmode low @priority 301 @description "Number of rendered virtual microphones";#P objectname microphones/amount;#P window linecount 1;#P hidden newex 614 275 64 196617 pvar mics 2;#P comment 5 26 34 196617 setup:;#B frgb 149 149 149;#P hidden newex 157 254 221 196617 jcom.oscroute /open_inspector /audio/meters;#P hidden newex 157 302 44 196617 pcontrol;#P hidden outlet 133 626 15 0;#P hidden newex 133 532 430 196617 jcom.multi.in~;#P hidden newex 606 388 63 196617 pvar report;#P toggle 122 3 13 0;#P objectname report;#P window linecount 2;#P hidden newex 606 408 288 196617 jcom.parameter report @type msg_int @range 0 1 @clipmode both @description "report changes inside the vimic module";#P objectname report[1];#P hidden newex 524 47 281 196617 jcom.parameter.gain room/reflection/1/gain @repetitions 0 @description "gain of the early reflections 1st order";#P objectname room/reflection/1/gain;#P hidden newex 521 7 280 196617 jcom.parameter.gain room/reflection/0/gain @repetitions 0 @description "gain of the direct sound component";#P objectname room/reflection/0/gain;#P hidden newex 654 177 350 196617 jcom.parameter.spatdif source/position/absolute @ramp/drive scheduler @description "Sourceposition in the virtual room - spatDIF compliant";#P objectname source/position/absolute;#P flonum 127 42 26 9 0. 25. 8227 3 181 181 181 221 221 221 255 255 255 0 0 0;#P objectname posD;#P flonum 101 42 27 9 0 90. 8226 3 181 181 181 221 221 221 255 255 255 0 0 0;#P objectname posE;#P flonum 69 42 33 9 -180. 180. 8227 3 181 181 181 221 221 221 255 255 255 0 0 0;#P objectname posA;#P window linecount 1;#P hidden newex 393 302 47 196617 pcontrol;#P message 105 81 191 196617 /preset/store 1 default \, /preset/write;#B color 3;#P hidden newex 133 448 339 196617 jcom.out~ 25;#P hidden newex 133 232 58 196617 jcom.in~ 1;#P message 113 103 125 196617 /documentation/generate;#B color 3;#P window linecount 2;#P newex 15 142 396 196617 jcom.hub jmod.sur.vimic~ @inspector 1 @size 1U-half @module_type audio.ambisonic @description "This is Virtual Microphone Control (ViMiC) for Max/MSP";#P objectname jcom.hub;#P window linecount 1;#P comment 29 104 79 196617 command input;#P inlet 15 104 13 0;#P message 244 103 31 196617 /init;#P hidden inlet 133 213 13 0;#P comment -1 44 75 196617 Position A/E/D;#B frgb 149 149 149;#P hidden newex 133 359 313 196617 jalg.sur.vimic_8_1~.mxt;#P outlet 15 180 13 0;#P hidden comment 92 655 101 196617 multicable output;#P user hint 130 24 149 40 "order of early reflections" 4000 1000 0 65535 65535 52428 9 3 0 1 0 0 0;#P user hint 106 25 125 41 "number of microphones" 4000 1000 0 65535 65535 52428 9 3 0 1 0 0 0;#P hidden user hint 501 258 545 276 "ViMiC render type" 4000 1000 0 65535 65535 52428 9 3 0 1 0 0 0;#P bpatcher 0 0 256 60 0 0 jcom.gui.mxt 0 $0_;#P objectname jmod.gui.1Uh.a.stereo.mxt;#P fasten 16 0 12 0 110 124 20 124;#P connect 10 0 12 0;#P fasten 13 0 12 0 118 124 20 124;#P fasten 9 0 12 0 249 125 20 125;#P hidden fasten 47 0 12 0 162 354 6 354 6 124 20 124;#P connect 12 0 5 0;#P hidden connect 8 0 14 0;#P hidden connect 14 0 6 0;#P hidden connect 15 1 27 0;#P hidden connect 27 0 28 0;#P lcolor 6;#P hidden connect 6 0 15 1;#P hidden connect 15 2 27 1;#P hidden connect 39 1 35 0;#P hidden connect 57 0 35 0;#P hidden connect 39 1 36 0;#P hidden connect 55 0 36 0;#P hidden connect 39 1 67 0;#P hidden connect 70 0 67 0;#P hidden connect 14 1 30 0;#P hidden connect 30 0 53 0;#P hidden connect 53 0 29 0;#P hidden connect 29 0 47 0;#P hidden connect 6 1 15 2;#P hidden connect 15 3 27 2;#P hidden connect 6 2 15 3;#P hidden connect 15 4 27 3;#P hidden fasten 27 0 47 1 138 554 121 554 121 328 190 328;#P lcolor 6;#P hidden connect 6 3 15 4;#P hidden connect 15 5 27 4;#P hidden connect 6 4 15 5;#P hidden connect 15 6 27 5;#P hidden connect 6 5 15 6;#P hidden connect 15 7 27 6;#P hidden fasten 30 1 47 2 267 302 218 302;#P hidden connect 6 6 15 7;#P hidden connect 15 8 27 7;#P hidden connect 6 7 15 8;#P hidden connect 15 9 27 8;#P hidden connect 6 8 15 9;#P hidden connect 15 10 27 9;#P hidden connect 6 9 15 10;#P hidden connect 15 11 27 10;#P hidden connect 6 10 15 11;#P hidden connect 15 12 27 11;#P hidden connect 6 11 15 12;#P hidden connect 15 13 27 12;#P hidden fasten 30 2 52 0 372 277 303 277;#P hidden connect 6 12 15 13;#P hidden connect 15 14 27 13;#P hidden connect 6 13 15 14;#P hidden connect 15 15 27 14;#P hidden connect 6 14 15 15;#P hidden connect 15 16 27 15;#P hidden connect 6 15 15 16;#P hidden connect 15 17 27 16;#P connect 39 0 37 0;#P hidden connect 37 0 38 0;#P hidden connect 6 16 15 17;#P hidden connect 15 18 27 17;#P hidden connect 6 17 15 18;#P hidden connect 15 19 27 18;#P hidden connect 6 18 15 19;#P hidden connect 15 20 27 19;#P hidden connect 52 1 17 0;#P hidden connect 6 19 15 20;#P hidden connect 15 21 27 20;#P hidden connect 6 20 15 21;#P hidden connect 15 22 27 21;#P hidden connect 6 21 15 22;#P hidden connect 15 23 27 22;#P hidden connect 6 22 15 23;#P hidden connect 15 24 27 23;#P hidden fasten 47 1 6 1 219 354 441 354;#P hidden fasten 52 0 6 1 303 338 441 338;#P hidden fasten 17 0 6 1 398 338 441 338;#P hidden connect 6 23 15 24;#P hidden connect 35 0 56 0;#P hidden connect 36 0 54 0;#P hidden connect 67 0 69 0;#P hidden connect 68 0 70 0;#P hidden connect 22 0 57 0;#P hidden connect 23 0 55 0;#P hidden connect 56 0 22 0;#P hidden connect 54 0 23 0;#P hidden connect 69 0 68 0;#P hidden connect 45 0 46 0;#P hidden connect 65 0 66 0;#P hidden fasten 24 0 26 0 611 441 601 441 601 383 611 383;#P hidden connect 26 0 24 0;#P hidden fasten 49 0 50 0 690 527 606 527 606 495 615 495;#P hidden connect 46 0 32 0;#P hidden connect 32 0 44 0;#P hidden connect 44 0 33 0;#P hidden connect 33 0 43 0;#P hidden fasten 41 0 42 0 727 480 608 480 608 445 619 445;#P hidden connect 43 0 45 0;#P hidden fasten 59 0 21 0 659 231 651 231 651 172 659 172;#P hidden connect 21 0 59 0;#P hidden connect 66 0 65 0;#P hidden connect 50 1 49 0;#P hidden connect 42 1 41 0;#P hidden connect 21 1 60 0;#P hidden fasten 60 0 21 1 772 242 648 242 648 167 829 167;#P hidden connect 21 2 61 0;#P hidden fasten 61 0 21 2 885 246 642 246 642 162 999 162;#P pop;