{
	"patcher" : 	{
		"fileversion" : 1,
		"rect" : [ 71.0, 69.0, 984.0, 581.0 ],
		"bglocked" : 0,
		"defrect" : [ 71.0, 69.0, 984.0, 581.0 ],
		"openrect" : [ 0.0, 0.0, 0.0, 0.0 ],
		"openinpresentation" : 0,
		"default_fontsize" : 10.0,
		"default_fontface" : 0,
		"default_fontname" : "Verdana",
		"gridonopen" : 0,
		"gridsize" : [ 5.0, 5.0 ],
		"gridsnaponopen" : 0,
		"toolbarvisible" : 1,
		"boxanimatetime" : 200,
		"imprint" : 0,
		"enablehscroll" : 1,
		"enablevscroll" : 1,
		"devicewidth" : 0.0,
		"boxes" : [ 			{
				"box" : 				{
					"maxclass" : "number",
					"fontsize" : 10.0,
					"presentation_rect" : [ 272.0, 487.0, 0.0, 0.0 ],
					"numinlets" : 1,
					"patching_rect" : [ 270.0, 485.0, 50.0, 19.0 ],
					"numoutlets" : 2,
					"id" : "obj-51",
					"fontname" : "Verdana",
					"outlettype" : [ "int", "bang" ]
				}

			}
, 			{
				"box" : 				{
					"maxclass" : "newobj",
					"text" : "info≈",
					"fontsize" : 10.0,
					"presentation_rect" : [ 212.0, 487.0, 0.0, 0.0 ],
					"numinlets" : 1,
					"patching_rect" : [ 210.0, 485.0, 59.5, 19.0 ],
					"numoutlets" : 4,
					"id" : "obj-52",
					"fontname" : "Verdana",
					"outlettype" : [ "", "", "", "" ]
				}

			}
, 			{
				"box" : 				{
					"maxclass" : "number",
					"fontsize" : 10.0,
					"presentation_rect" : [ 474.0, 486.0, 0.0, 0.0 ],
					"numinlets" : 1,
					"patching_rect" : [ 475.0, 485.0, 50.0, 19.0 ],
					"numoutlets" : 2,
					"id" : "obj-49",
					"fontname" : "Verdana",
					"outlettype" : [ "int", "bang" ]
				}

			}
, 			{
				"box" : 				{
					"maxclass" : "newobj",
					"text" : "info≈",
					"fontsize" : 10.0,
					"presentation_rect" : [ 414.0, 486.0, 0.0, 0.0 ],
					"numinlets" : 1,
					"patching_rect" : [ 415.0, 485.0, 59.5, 19.0 ],
					"numoutlets" : 4,
					"id" : "obj-50",
					"fontname" : "Verdana",
					"outlettype" : [ "", "", "", "" ]
				}

			}
, 			{
				"box" : 				{
					"maxclass" : "number",
					"fontsize" : 10.0,
					"presentation_rect" : [ 679.0, 467.0, 0.0, 0.0 ],
					"numinlets" : 1,
					"patching_rect" : [ 680.0, 485.0, 50.0, 19.0 ],
					"numoutlets" : 2,
					"id" : "obj-47",
					"fontname" : "Verdana",
					"outlettype" : [ "int", "bang" ]
				}

			}
, 			{
				"box" : 				{
					"maxclass" : "newobj",
					"text" : "info≈",
					"fontsize" : 10.0,
					"presentation_rect" : [ 619.0, 467.0, 0.0, 0.0 ],
					"numinlets" : 1,
					"patching_rect" : [ 620.0, 485.0, 59.5, 19.0 ],
					"numoutlets" : 4,
					"id" : "obj-48",
					"fontname" : "Verdana",
					"outlettype" : [ "", "", "", "" ]
				}

			}
, 			{
				"box" : 				{
					"maxclass" : "number~",
					"sig" : 0.0,
					"fontsize" : 10.0,
					"mode" : 2,
					"numinlets" : 2,
					"patching_rect" : [ 725.0, 540.0, 56.0, 19.0 ],
					"numoutlets" : 2,
					"id" : "obj-43",
					"fontname" : "Verdana",
					"outlettype" : [ "signal", "float" ]
				}

			}
, 			{
				"box" : 				{
					"maxclass" : "number~",
					"sig" : 0.0,
					"fontsize" : 10.0,
					"mode" : 2,
					"numinlets" : 2,
					"patching_rect" : [ 665.0, 540.0, 56.0, 19.0 ],
					"numoutlets" : 2,
					"id" : "obj-44",
					"fontname" : "Verdana",
					"outlettype" : [ "signal", "float" ]
				}

			}
, 			{
				"box" : 				{
					"maxclass" : "number~",
					"sig" : 0.0,
					"fontsize" : 10.0,
					"mode" : 2,
					"numinlets" : 2,
					"patching_rect" : [ 605.0, 540.0, 56.0, 19.0 ],
					"numoutlets" : 2,
					"id" : "obj-45",
					"fontname" : "Verdana",
					"outlettype" : [ "signal", "float" ]
				}

			}
, 			{
				"box" : 				{
					"maxclass" : "newobj",
					"text" : "out≈ 3",
					"fontsize" : 10.0,
					"numinlets" : 1,
					"patching_rect" : [ 605.0, 510.0, 198.5, 19.0 ],
					"numoutlets" : 4,
					"id" : "obj-46",
					"fontname" : "Verdana",
					"outlettype" : [ "signal", "signal", "signal", "" ]
				}

			}
, 			{
				"box" : 				{
					"maxclass" : "number~",
					"sig" : 0.0,
					"fontsize" : 10.0,
					"mode" : 2,
					"numinlets" : 2,
					"patching_rect" : [ 520.0, 540.0, 56.0, 19.0 ],
					"numoutlets" : 2,
					"id" : "obj-39",
					"fontname" : "Verdana",
					"outlettype" : [ "signal", "float" ]
				}

			}
, 			{
				"box" : 				{
					"maxclass" : "number~",
					"sig" : 0.0,
					"fontsize" : 10.0,
					"mode" : 2,
					"numinlets" : 2,
					"patching_rect" : [ 460.0, 540.0, 56.0, 19.0 ],
					"numoutlets" : 2,
					"id" : "obj-40",
					"fontname" : "Verdana",
					"outlettype" : [ "signal", "float" ]
				}

			}
, 			{
				"box" : 				{
					"maxclass" : "number~",
					"sig" : 0.0,
					"fontsize" : 10.0,
					"mode" : 2,
					"numinlets" : 2,
					"patching_rect" : [ 400.0, 540.0, 56.0, 19.0 ],
					"numoutlets" : 2,
					"id" : "obj-41",
					"fontname" : "Verdana",
					"outlettype" : [ "signal", "float" ]
				}

			}
, 			{
				"box" : 				{
					"maxclass" : "newobj",
					"text" : "out≈ 3",
					"fontsize" : 10.0,
					"numinlets" : 1,
					"patching_rect" : [ 400.0, 510.0, 198.5, 19.0 ],
					"numoutlets" : 4,
					"id" : "obj-42",
					"fontname" : "Verdana",
					"outlettype" : [ "signal", "signal", "signal", "" ]
				}

			}
, 			{
				"box" : 				{
					"maxclass" : "number~",
					"sig" : 0.0,
					"fontsize" : 10.0,
					"mode" : 2,
					"numinlets" : 2,
					"patching_rect" : [ 315.0, 540.0, 56.0, 19.0 ],
					"numoutlets" : 2,
					"id" : "obj-35",
					"fontname" : "Verdana",
					"outlettype" : [ "signal", "float" ]
				}

			}
, 			{
				"box" : 				{
					"maxclass" : "number~",
					"sig" : 0.0,
					"fontsize" : 10.0,
					"mode" : 2,
					"numinlets" : 2,
					"patching_rect" : [ 255.0, 540.0, 56.0, 19.0 ],
					"numoutlets" : 2,
					"id" : "obj-36",
					"fontname" : "Verdana",
					"outlettype" : [ "signal", "float" ]
				}

			}
, 			{
				"box" : 				{
					"maxclass" : "number~",
					"sig" : 0.0,
					"fontsize" : 10.0,
					"mode" : 2,
					"numinlets" : 2,
					"patching_rect" : [ 195.0, 540.0, 56.0, 19.0 ],
					"numoutlets" : 2,
					"id" : "obj-37",
					"fontname" : "Verdana",
					"outlettype" : [ "signal", "float" ]
				}

			}
, 			{
				"box" : 				{
					"maxclass" : "newobj",
					"text" : "out≈ 3",
					"fontsize" : 10.0,
					"numinlets" : 1,
					"patching_rect" : [ 195.0, 510.0, 198.5, 19.0 ],
					"numoutlets" : 4,
					"id" : "obj-38",
					"fontname" : "Verdana",
					"outlettype" : [ "signal", "signal", "signal", "" ]
				}

			}
, 			{
				"box" : 				{
					"maxclass" : "newobj",
					"text" : "split≈ 3 @groups 2 1 2",
					"fontsize" : 10.0,
					"numinlets" : 1,
					"patching_rect" : [ 195.0, 440.0, 127.0, 19.0 ],
					"numoutlets" : 4,
					"id" : "obj-34",
					"fontname" : "Verdana",
					"outlettype" : [ "multicore.connect", "multicore.connect", "multicore.connect", "" ]
				}

			}
, 			{
				"box" : 				{
					"maxclass" : "newobj",
					"text" : "sig~ 5",
					"fontsize" : 10.0,
					"numinlets" : 1,
					"patching_rect" : [ 475.0, 375.0, 43.0, 19.0 ],
					"numoutlets" : 1,
					"id" : "obj-21",
					"fontname" : "Verdana",
					"outlettype" : [ "signal" ]
				}

			}
, 			{
				"box" : 				{
					"maxclass" : "newobj",
					"text" : "sig~ 4",
					"fontsize" : 10.0,
					"numinlets" : 1,
					"patching_rect" : [ 405.0, 375.0, 43.0, 19.0 ],
					"numoutlets" : 1,
					"id" : "obj-27",
					"fontname" : "Verdana",
					"outlettype" : [ "signal" ]
				}

			}
, 			{
				"box" : 				{
					"maxclass" : "newobj",
					"text" : "sig~ 3",
					"fontsize" : 10.0,
					"numinlets" : 1,
					"patching_rect" : [ 335.0, 375.0, 43.0, 19.0 ],
					"numoutlets" : 1,
					"id" : "obj-30",
					"fontname" : "Verdana",
					"outlettype" : [ "signal" ]
				}

			}
, 			{
				"box" : 				{
					"maxclass" : "newobj",
					"text" : "sig~ 2",
					"fontsize" : 10.0,
					"numinlets" : 1,
					"patching_rect" : [ 265.0, 375.0, 43.0, 19.0 ],
					"numoutlets" : 1,
					"id" : "obj-31",
					"fontname" : "Verdana",
					"outlettype" : [ "signal" ]
				}

			}
, 			{
				"box" : 				{
					"maxclass" : "newobj",
					"text" : "sig~ 1",
					"fontsize" : 10.0,
					"numinlets" : 1,
					"patching_rect" : [ 195.0, 375.0, 43.0, 19.0 ],
					"numoutlets" : 1,
					"id" : "obj-32",
					"fontname" : "Verdana",
					"outlettype" : [ "signal" ]
				}

			}
, 			{
				"box" : 				{
					"maxclass" : "newobj",
					"text" : "in≈ 5",
					"fontsize" : 10.0,
					"numinlets" : 5,
					"patching_rect" : [ 195.0, 410.0, 299.0, 19.0 ],
					"numoutlets" : 2,
					"id" : "obj-33",
					"fontname" : "Verdana",
					"outlettype" : [ "multicore.connect", "" ]
				}

			}
, 			{
				"box" : 				{
					"maxclass" : "comment",
					"text" : "first arg defines the maximum number of groups (outlets) to which the signal can be split.",
					"linecount" : 3,
					"frgb" : [ 0.658824, 0.658824, 0.658824, 1.0 ],
					"fontsize" : 10.0,
					"numinlets" : 1,
					"patching_rect" : [ 635.0, 120.0, 187.0, 43.0 ],
					"numoutlets" : 0,
					"id" : "obj-14",
					"fontname" : "Verdana"
				}

			}
, 			{
				"box" : 				{
					"maxclass" : "number",
					"fontsize" : 10.0,
					"numinlets" : 1,
					"patching_rect" : [ 500.0, 230.0, 50.0, 19.0 ],
					"numoutlets" : 2,
					"id" : "obj-28",
					"fontname" : "Verdana",
					"outlettype" : [ "int", "bang" ]
				}

			}
, 			{
				"box" : 				{
					"maxclass" : "newobj",
					"text" : "info≈",
					"fontsize" : 10.0,
					"numinlets" : 1,
					"patching_rect" : [ 440.0, 230.0, 59.5, 19.0 ],
					"numoutlets" : 4,
					"id" : "obj-29",
					"fontname" : "Verdana",
					"outlettype" : [ "", "", "", "" ]
				}

			}
, 			{
				"box" : 				{
					"maxclass" : "newobj",
					"text" : "op≈ @operator * @operand 10",
					"fontsize" : 10.0,
					"numinlets" : 1,
					"patching_rect" : [ 405.0, 205.0, 168.0, 19.0 ],
					"numoutlets" : 2,
					"id" : "obj-23",
					"fontname" : "Verdana",
					"outlettype" : [ "multicore.connect", "" ]
				}

			}
, 			{
				"box" : 				{
					"maxclass" : "number~",
					"sig" : 0.0,
					"fontsize" : 10.0,
					"mode" : 2,
					"numinlets" : 2,
					"patching_rect" : [ 480.0, 305.0, 70.0, 19.0 ],
					"numoutlets" : 2,
					"id" : "obj-26",
					"fontname" : "Verdana",
					"outlettype" : [ "signal", "float" ]
				}

			}
, 			{
				"box" : 				{
					"maxclass" : "newobj",
					"text" : "sig~ 3.14",
					"fontsize" : 10.0,
					"numinlets" : 1,
					"patching_rect" : [ 480.0, 20.0, 67.0, 19.0 ],
					"numoutlets" : 1,
					"id" : "obj-25",
					"fontname" : "Verdana",
					"outlettype" : [ "signal" ]
				}

			}
, 			{
				"box" : 				{
					"maxclass" : "comment",
					"text" : "Takes a multichannel signal, and splits it into N smaller multichannel signals, whose number of channels is defined by the @groups attribute.",
					"linecount" : 6,
					"frgb" : [ 0.658824, 0.658824, 0.658824, 1.0 ],
					"fontsize" : 10.0,
					"numinlets" : 1,
					"patching_rect" : [ 25.0, 100.0, 159.0, 79.0 ],
					"numoutlets" : 0,
					"id" : "obj-24",
					"fontname" : "Verdana"
				}

			}
, 			{
				"box" : 				{
					"maxclass" : "button",
					"numinlets" : 1,
					"patching_rect" : [ 725.0, 265.0, 20.0, 20.0 ],
					"numoutlets" : 1,
					"id" : "obj-19",
					"outlettype" : [ "bang" ]
				}

			}
, 			{
				"box" : 				{
					"maxclass" : "number",
					"fontsize" : 10.0,
					"numinlets" : 1,
					"patching_rect" : [ 500.0, 160.0, 50.0, 19.0 ],
					"numoutlets" : 2,
					"id" : "obj-20",
					"fontname" : "Verdana",
					"outlettype" : [ "int", "bang" ]
				}

			}
, 			{
				"box" : 				{
					"maxclass" : "newobj",
					"text" : "info≈",
					"fontsize" : 10.0,
					"numinlets" : 1,
					"patching_rect" : [ 440.0, 160.0, 59.5, 19.0 ],
					"numoutlets" : 4,
					"id" : "obj-22",
					"fontname" : "Verdana",
					"outlettype" : [ "", "", "", "" ]
				}

			}
, 			{
				"box" : 				{
					"maxclass" : "number",
					"fontsize" : 10.0,
					"numinlets" : 1,
					"patching_rect" : [ 295.0, 85.0, 50.0, 19.0 ],
					"numoutlets" : 2,
					"id" : "obj-15",
					"fontname" : "Verdana",
					"outlettype" : [ "int", "bang" ]
				}

			}
, 			{
				"box" : 				{
					"maxclass" : "newobj",
					"text" : "info≈",
					"fontsize" : 10.0,
					"numinlets" : 1,
					"patching_rect" : [ 235.0, 85.0, 59.5, 19.0 ],
					"numoutlets" : 4,
					"id" : "obj-16",
					"fontname" : "Verdana",
					"outlettype" : [ "", "", "", "" ]
				}

			}
, 			{
				"box" : 				{
					"maxclass" : "number",
					"fontsize" : 10.0,
					"numinlets" : 1,
					"patching_rect" : [ 295.0, 160.0, 50.0, 19.0 ],
					"numoutlets" : 2,
					"id" : "obj-17",
					"fontname" : "Verdana",
					"outlettype" : [ "int", "bang" ]
				}

			}
, 			{
				"box" : 				{
					"maxclass" : "newobj",
					"text" : "info≈",
					"fontsize" : 10.0,
					"numinlets" : 1,
					"patching_rect" : [ 235.0, 160.0, 59.5, 19.0 ],
					"numoutlets" : 4,
					"id" : "obj-18",
					"fontname" : "Verdana",
					"outlettype" : [ "", "", "", "" ]
				}

			}
, 			{
				"box" : 				{
					"maxclass" : "number~",
					"sig" : 0.0,
					"fontsize" : 10.0,
					"mode" : 2,
					"numinlets" : 2,
					"patching_rect" : [ 320.0, 255.0, 56.0, 19.0 ],
					"numoutlets" : 2,
					"id" : "obj-10",
					"fontname" : "Verdana",
					"outlettype" : [ "signal", "float" ]
				}

			}
, 			{
				"box" : 				{
					"maxclass" : "number~",
					"sig" : 0.0,
					"fontsize" : 10.0,
					"mode" : 2,
					"numinlets" : 2,
					"patching_rect" : [ 405.0, 305.0, 69.0, 19.0 ],
					"numoutlets" : 2,
					"id" : "obj-11",
					"fontname" : "Verdana",
					"outlettype" : [ "signal", "float" ]
				}

			}
, 			{
				"box" : 				{
					"maxclass" : "newobj",
					"text" : "out≈ 2",
					"fontsize" : 10.0,
					"numinlets" : 1,
					"patching_rect" : [ 405.0, 270.0, 169.0, 19.0 ],
					"numoutlets" : 3,
					"id" : "obj-13",
					"fontname" : "Verdana",
					"outlettype" : [ "signal", "signal", "" ]
				}

			}
, 			{
				"box" : 				{
					"maxclass" : "newobj",
					"text" : "split≈ 2 @groups 3 2",
					"fontsize" : 10.0,
					"numinlets" : 1,
					"patching_rect" : [ 200.0, 130.0, 428.0, 19.0 ],
					"numoutlets" : 3,
					"id" : "obj-2",
					"fontname" : "Verdana",
					"outlettype" : [ "multicore.connect", "multicore.connect", "" ]
				}

			}
, 			{
				"box" : 				{
					"maxclass" : "ezdac~",
					"numinlets" : 2,
					"patching_rect" : [ 70.0, 225.0, 45.0, 45.0 ],
					"numoutlets" : 0,
					"id" : "obj-12"
				}

			}
, 			{
				"box" : 				{
					"maxclass" : "number~",
					"sig" : 0.0,
					"fontsize" : 10.0,
					"mode" : 2,
					"numinlets" : 2,
					"patching_rect" : [ 260.0, 255.0, 56.0, 19.0 ],
					"numoutlets" : 2,
					"id" : "obj-9",
					"fontname" : "Verdana",
					"outlettype" : [ "signal", "float" ]
				}

			}
, 			{
				"box" : 				{
					"maxclass" : "number~",
					"sig" : 0.0,
					"fontsize" : 10.0,
					"mode" : 2,
					"numinlets" : 2,
					"patching_rect" : [ 200.0, 255.0, 56.0, 19.0 ],
					"numoutlets" : 2,
					"id" : "obj-8",
					"fontname" : "Verdana",
					"outlettype" : [ "signal", "float" ]
				}

			}
, 			{
				"box" : 				{
					"maxclass" : "newobj",
					"text" : "sig~ -200",
					"fontsize" : 10.0,
					"numinlets" : 1,
					"patching_rect" : [ 410.0, 20.0, 68.0, 19.0 ],
					"numoutlets" : 1,
					"id" : "obj-6",
					"fontname" : "Verdana",
					"outlettype" : [ "signal" ]
				}

			}
, 			{
				"box" : 				{
					"maxclass" : "newobj",
					"text" : "sig~ 200",
					"fontsize" : 10.0,
					"numinlets" : 1,
					"patching_rect" : [ 340.0, 20.0, 63.0, 19.0 ],
					"numoutlets" : 1,
					"id" : "obj-7",
					"fontname" : "Verdana",
					"outlettype" : [ "signal" ]
				}

			}
, 			{
				"box" : 				{
					"maxclass" : "newobj",
					"text" : "sig~ -100",
					"fontsize" : 10.0,
					"numinlets" : 1,
					"patching_rect" : [ 270.0, 20.0, 68.0, 19.0 ],
					"numoutlets" : 1,
					"id" : "obj-5",
					"fontname" : "Verdana",
					"outlettype" : [ "signal" ]
				}

			}
, 			{
				"box" : 				{
					"maxclass" : "newobj",
					"text" : "sig~ 100",
					"fontsize" : 10.0,
					"numinlets" : 1,
					"patching_rect" : [ 200.0, 20.0, 63.0, 19.0 ],
					"numoutlets" : 1,
					"id" : "obj-4",
					"fontname" : "Verdana",
					"outlettype" : [ "signal" ]
				}

			}
, 			{
				"box" : 				{
					"maxclass" : "newobj",
					"text" : "out≈ 3",
					"fontsize" : 10.0,
					"numinlets" : 1,
					"patching_rect" : [ 200.0, 205.0, 198.5, 19.0 ],
					"numoutlets" : 4,
					"id" : "obj-3",
					"fontname" : "Verdana",
					"outlettype" : [ "signal", "signal", "signal", "" ]
				}

			}
, 			{
				"box" : 				{
					"maxclass" : "newobj",
					"text" : "in≈ 5",
					"fontsize" : 10.0,
					"numinlets" : 5,
					"patching_rect" : [ 200.0, 55.0, 299.0, 19.0 ],
					"numoutlets" : 2,
					"id" : "obj-1",
					"fontname" : "Verdana",
					"outlettype" : [ "multicore.connect", "" ]
				}

			}
 ],
		"lines" : [ 			{
				"patchline" : 				{
					"source" : [ "obj-19", 0 ],
					"destination" : [ "obj-48", 0 ],
					"hidden" : 0,
					"midpoints" : [  ]
				}

			}
, 			{
				"patchline" : 				{
					"source" : [ "obj-19", 0 ],
					"destination" : [ "obj-50", 0 ],
					"hidden" : 0,
					"midpoints" : [  ]
				}

			}
, 			{
				"patchline" : 				{
					"source" : [ "obj-19", 0 ],
					"destination" : [ "obj-52", 0 ],
					"hidden" : 0,
					"midpoints" : [  ]
				}

			}
, 			{
				"patchline" : 				{
					"source" : [ "obj-34", 0 ],
					"destination" : [ "obj-52", 0 ],
					"hidden" : 0,
					"midpoints" : [ 204.5, 478.0, 219.5, 478.0 ]
				}

			}
, 			{
				"patchline" : 				{
					"source" : [ "obj-52", 2 ],
					"destination" : [ "obj-51", 0 ],
					"hidden" : 0,
					"midpoints" : [  ]
				}

			}
, 			{
				"patchline" : 				{
					"source" : [ "obj-34", 1 ],
					"destination" : [ "obj-50", 0 ],
					"hidden" : 0,
					"midpoints" : [ 240.5, 474.0, 424.5, 474.0 ]
				}

			}
, 			{
				"patchline" : 				{
					"source" : [ "obj-50", 2 ],
					"destination" : [ "obj-49", 0 ],
					"hidden" : 0,
					"midpoints" : [  ]
				}

			}
, 			{
				"patchline" : 				{
					"source" : [ "obj-34", 2 ],
					"destination" : [ "obj-48", 0 ],
					"hidden" : 0,
					"midpoints" : [ 276.5, 464.0, 629.5, 464.0 ]
				}

			}
, 			{
				"patchline" : 				{
					"source" : [ "obj-48", 2 ],
					"destination" : [ "obj-47", 0 ],
					"hidden" : 0,
					"midpoints" : [  ]
				}

			}
, 			{
				"patchline" : 				{
					"source" : [ "obj-31", 0 ],
					"destination" : [ "obj-33", 1 ],
					"hidden" : 0,
					"midpoints" : [  ]
				}

			}
, 			{
				"patchline" : 				{
					"source" : [ "obj-21", 0 ],
					"destination" : [ "obj-33", 4 ],
					"hidden" : 0,
					"midpoints" : [  ]
				}

			}
, 			{
				"patchline" : 				{
					"source" : [ "obj-27", 0 ],
					"destination" : [ "obj-33", 3 ],
					"hidden" : 0,
					"midpoints" : [  ]
				}

			}
, 			{
				"patchline" : 				{
					"source" : [ "obj-30", 0 ],
					"destination" : [ "obj-33", 2 ],
					"hidden" : 0,
					"midpoints" : [  ]
				}

			}
, 			{
				"patchline" : 				{
					"source" : [ "obj-32", 0 ],
					"destination" : [ "obj-33", 0 ],
					"hidden" : 0,
					"midpoints" : [  ]
				}

			}
, 			{
				"patchline" : 				{
					"source" : [ "obj-1", 0 ],
					"destination" : [ "obj-2", 0 ],
					"hidden" : 0,
					"midpoints" : [  ]
				}

			}
, 			{
				"patchline" : 				{
					"source" : [ "obj-2", 1 ],
					"destination" : [ "obj-22", 0 ],
					"hidden" : 0,
					"midpoints" : [  ]
				}

			}
, 			{
				"patchline" : 				{
					"source" : [ "obj-2", 0 ],
					"destination" : [ "obj-3", 0 ],
					"hidden" : 0,
					"midpoints" : [  ]
				}

			}
, 			{
				"patchline" : 				{
					"source" : [ "obj-2", 0 ],
					"destination" : [ "obj-18", 0 ],
					"hidden" : 0,
					"midpoints" : [  ]
				}

			}
, 			{
				"patchline" : 				{
					"source" : [ "obj-2", 1 ],
					"destination" : [ "obj-23", 0 ],
					"hidden" : 0,
					"midpoints" : [  ]
				}

			}
, 			{
				"patchline" : 				{
					"source" : [ "obj-19", 0 ],
					"destination" : [ "obj-16", 0 ],
					"hidden" : 0,
					"midpoints" : [  ]
				}

			}
, 			{
				"patchline" : 				{
					"source" : [ "obj-19", 0 ],
					"destination" : [ "obj-18", 0 ],
					"hidden" : 0,
					"midpoints" : [  ]
				}

			}
, 			{
				"patchline" : 				{
					"source" : [ "obj-19", 0 ],
					"destination" : [ "obj-29", 0 ],
					"hidden" : 0,
					"midpoints" : [  ]
				}

			}
, 			{
				"patchline" : 				{
					"source" : [ "obj-13", 1 ],
					"destination" : [ "obj-26", 0 ],
					"hidden" : 0,
					"midpoints" : [  ]
				}

			}
, 			{
				"patchline" : 				{
					"source" : [ "obj-13", 0 ],
					"destination" : [ "obj-11", 0 ],
					"hidden" : 0,
					"midpoints" : [  ]
				}

			}
, 			{
				"patchline" : 				{
					"source" : [ "obj-25", 0 ],
					"destination" : [ "obj-1", 4 ],
					"hidden" : 0,
					"midpoints" : [  ]
				}

			}
, 			{
				"patchline" : 				{
					"source" : [ "obj-4", 0 ],
					"destination" : [ "obj-1", 0 ],
					"hidden" : 0,
					"midpoints" : [  ]
				}

			}
, 			{
				"patchline" : 				{
					"source" : [ "obj-5", 0 ],
					"destination" : [ "obj-1", 1 ],
					"hidden" : 0,
					"midpoints" : [  ]
				}

			}
, 			{
				"patchline" : 				{
					"source" : [ "obj-7", 0 ],
					"destination" : [ "obj-1", 2 ],
					"hidden" : 0,
					"midpoints" : [  ]
				}

			}
, 			{
				"patchline" : 				{
					"source" : [ "obj-6", 0 ],
					"destination" : [ "obj-1", 3 ],
					"hidden" : 0,
					"midpoints" : [  ]
				}

			}
, 			{
				"patchline" : 				{
					"source" : [ "obj-1", 0 ],
					"destination" : [ "obj-16", 0 ],
					"hidden" : 0,
					"midpoints" : [  ]
				}

			}
, 			{
				"patchline" : 				{
					"source" : [ "obj-22", 2 ],
					"destination" : [ "obj-20", 0 ],
					"hidden" : 0,
					"midpoints" : [  ]
				}

			}
, 			{
				"patchline" : 				{
					"source" : [ "obj-19", 0 ],
					"destination" : [ "obj-22", 0 ],
					"hidden" : 0,
					"midpoints" : [  ]
				}

			}
, 			{
				"patchline" : 				{
					"source" : [ "obj-16", 2 ],
					"destination" : [ "obj-15", 0 ],
					"hidden" : 0,
					"midpoints" : [  ]
				}

			}
, 			{
				"patchline" : 				{
					"source" : [ "obj-18", 2 ],
					"destination" : [ "obj-17", 0 ],
					"hidden" : 0,
					"midpoints" : [  ]
				}

			}
, 			{
				"patchline" : 				{
					"source" : [ "obj-3", 1 ],
					"destination" : [ "obj-9", 0 ],
					"hidden" : 0,
					"midpoints" : [  ]
				}

			}
, 			{
				"patchline" : 				{
					"source" : [ "obj-3", 0 ],
					"destination" : [ "obj-8", 0 ],
					"hidden" : 0,
					"midpoints" : [  ]
				}

			}
, 			{
				"patchline" : 				{
					"source" : [ "obj-3", 2 ],
					"destination" : [ "obj-10", 0 ],
					"hidden" : 0,
					"midpoints" : [  ]
				}

			}
, 			{
				"patchline" : 				{
					"source" : [ "obj-23", 0 ],
					"destination" : [ "obj-13", 0 ],
					"hidden" : 0,
					"midpoints" : [  ]
				}

			}
, 			{
				"patchline" : 				{
					"source" : [ "obj-29", 2 ],
					"destination" : [ "obj-28", 0 ],
					"hidden" : 0,
					"midpoints" : [  ]
				}

			}
, 			{
				"patchline" : 				{
					"source" : [ "obj-23", 0 ],
					"destination" : [ "obj-29", 0 ],
					"hidden" : 0,
					"midpoints" : [  ]
				}

			}
, 			{
				"patchline" : 				{
					"source" : [ "obj-33", 0 ],
					"destination" : [ "obj-34", 0 ],
					"hidden" : 0,
					"midpoints" : [  ]
				}

			}
, 			{
				"patchline" : 				{
					"source" : [ "obj-38", 2 ],
					"destination" : [ "obj-35", 0 ],
					"hidden" : 0,
					"midpoints" : [  ]
				}

			}
, 			{
				"patchline" : 				{
					"source" : [ "obj-38", 0 ],
					"destination" : [ "obj-37", 0 ],
					"hidden" : 0,
					"midpoints" : [  ]
				}

			}
, 			{
				"patchline" : 				{
					"source" : [ "obj-38", 1 ],
					"destination" : [ "obj-36", 0 ],
					"hidden" : 0,
					"midpoints" : [  ]
				}

			}
, 			{
				"patchline" : 				{
					"source" : [ "obj-42", 1 ],
					"destination" : [ "obj-40", 0 ],
					"hidden" : 0,
					"midpoints" : [  ]
				}

			}
, 			{
				"patchline" : 				{
					"source" : [ "obj-42", 0 ],
					"destination" : [ "obj-41", 0 ],
					"hidden" : 0,
					"midpoints" : [  ]
				}

			}
, 			{
				"patchline" : 				{
					"source" : [ "obj-42", 2 ],
					"destination" : [ "obj-39", 0 ],
					"hidden" : 0,
					"midpoints" : [  ]
				}

			}
, 			{
				"patchline" : 				{
					"source" : [ "obj-46", 2 ],
					"destination" : [ "obj-43", 0 ],
					"hidden" : 0,
					"midpoints" : [  ]
				}

			}
, 			{
				"patchline" : 				{
					"source" : [ "obj-46", 0 ],
					"destination" : [ "obj-45", 0 ],
					"hidden" : 0,
					"midpoints" : [  ]
				}

			}
, 			{
				"patchline" : 				{
					"source" : [ "obj-46", 1 ],
					"destination" : [ "obj-44", 0 ],
					"hidden" : 0,
					"midpoints" : [  ]
				}

			}
, 			{
				"patchline" : 				{
					"source" : [ "obj-34", 0 ],
					"destination" : [ "obj-38", 0 ],
					"hidden" : 0,
					"midpoints" : [  ]
				}

			}
, 			{
				"patchline" : 				{
					"source" : [ "obj-34", 1 ],
					"destination" : [ "obj-42", 0 ],
					"hidden" : 0,
					"midpoints" : [ 240.5, 477.0, 409.5, 477.0 ]
				}

			}
, 			{
				"patchline" : 				{
					"source" : [ "obj-34", 2 ],
					"destination" : [ "obj-46", 0 ],
					"hidden" : 0,
					"midpoints" : [ 276.5, 467.0, 614.5, 467.0 ]
				}

			}
 ]
	}

}
