max v2;#N vpatcher 63 108 565 330;#P window setfont "Sans Serif" 9.;#P newex 286 141 191 196617 tap.spectra~;#N out~ 2;#P newobj 286 178 38 196617 out~ 2;#N in~ 2;#P newobj 286 32 32 196617 in~ 2;#P window linecount 2;#P newex 64 51 191 196617 jcom.oscroute /srcLow /srcHigh /destLow /destHigh;#P window linecount 1;#P newex 19 141 191 196617 tap.spectra~;#N in 1;#P newobj 64 32 25 196617 in 1;#N out~ 1;#P newobj 19 178 35 196617 out~ 1;#N in~ 1;#P newobj 19 32 31 196617 in~ 1;#P connect 0 0 3 0;#P connect 3 0 1 0;#P connect 2 0 4 0;#P connect 4 0 3 1;#P connect 4 1 3 2;#P connect 4 2 3 3;#P connect 4 3 3 4;#P connect 5 0 7 0;#P connect 7 0 6 0;#P connect 4 0 7 1;#P connect 4 1 7 2;#P connect 4 2 7 3;#P connect 4 3 7 4;#P pop;