max v2;#N vpatcher 74 405 612 660;#P inlet 184 34 15 0;#P window setfont Verdana 12.;#P message 153 82 70 472055820 thresh \$1;#P window setfont "Sans Serif" 9.;#P newex 239 82 65 196617 prepend size;#P newex 153 58 182 196617 jcom.oscroute /thresh /analysis_size;#N in 1;#P newobj 153 33 25 196617 in 1;#P newex 376 167 69 196617 tap.anticlick~;#P newex 65 167 69 196617 tap.anticlick~;#N out~ 2;#P newobj 376 195 35 196617 out~ 2;#N out~ 1;#P newobj 65 195 35 196617 out~ 1;#N in~ 2;#P newobj 376 124 31 196617 in~ 2;#N in~ 1;#P newobj 65 124 31 196617 in~ 1;#P connect 9 0 4 0;#P connect 8 0 4 0;#P connect 7 2 4 0;#P connect 0 0 4 0;#P connect 4 0 2 0;#P connect 6 0 7 0;#P connect 10 0 7 0;#P connect 7 0 9 0;#P connect 7 1 8 0;#P connect 9 0 5 0;#P connect 8 0 5 0;#P connect 7 2 5 0;#P connect 1 0 5 0;#P connect 5 0 3 0;#P pop;