max v2;#N vpatcher 697 150 1323 506;#P window setfont "Sans Serif" 9.;#P window linecount 2;#P newex 78 88 144 196617 jcom.pass /length /normalize /capture /buffer;#P newex 18 54 70 196617 jcom.oscroute /pan;#P outlet 276 308 15 0;#P outlet 258 308 15 0;#P inlet 258 26 15 0;#P outlet 235 308 15 0;#P inlet 18 26 15 0;#P newex 340 224 266 196617 jcom.return capture/done @type msg_none @description "indicates that the capturing of sound has completed.";#P window linecount 1;#P newex 258 231 46 196617 tap.pan~;#P newex 258 163 92 196617 tap.sustain~ 1000;#P connect 3 0 8 0;#P connect 8 1 9 0;#P connect 2 0 4 0;#P connect 5 0 0 0;#P lcolor 6;#P fasten 8 0 0 0 23 147 263 147;#P fasten 9 0 0 0 83 144 263 144;#P fasten 9 1 0 0 116 141 263 141;#P fasten 9 2 0 0 149 138 263 138;#P fasten 9 3 0 0 182 135 263 135;#P fasten 9 4 0 0 215 132 263 132;#P connect 0 0 1 0;#P connect 1 0 6 0;#P connect 1 1 7 0;#P connect 0 1 2 0;#P pop;