max v2;#N vpatcher 401 159 894 365;#P window setfont "Sans Serif" 9.;#P window linecount 1;#P newex 79 52 266 196617 route generate_parameters change_rules;#N in 1;#P newobj 79 32 25 196617 in 1;#P message 79 72 105 196617 generate_parameters;#B color 1;#P newex 35 109 93 196617 tap.procrastinate~;#N out~ 2;#P newobj 120 132 35 196617 out~ 2;#N out~ 1;#P newobj 35 132 35 196617 out~ 1;#N in~ 1;#P newobj 35 44 31 196617 in~ 1;#P connect 0 0 3 0;#P fasten 4 0 3 0 84 98 40 98;#P fasten 6 1 3 0 212 100 40 100;#P connect 3 0 1 0;#P connect 5 0 6 0;#P connect 6 0 4 0;#P connect 3 1 2 0;#P pop;