max v2;#N vpatcher 130 500 738 839;#P origin -136 2;#P outlet 17 255 15 0;#P window setfont "Sans Serif" 9.;#P flonum 492 190 35 9 0 0 0 3 0 0 0 221 221 221 222 222 222 0 0 0;#P newex 492 164 95 196617 tap.semitone2ratio;#P newex 470 231 54 196617 tap.shift~;#P outlet 470 255 15 0;#N comlet;#P inlet 449 38 15 0;#P flonum 357 190 35 9 0 0 0 3 0 0 0 221 221 221 222 222 222 0 0 0;#P newex 357 164 95 196617 tap.semitone2ratio;#P flonum 213 119 35 9 0 0 0 3 0 0 0 221 221 221 222 222 222 0 0 0;#P flonum 153 119 35 9 0 0 0 3 0 0 0 221 221 221 222 222 222 0 0 0;#P newex 153 95 130 196617 jcom.oscroute /left /right;#P flonum 77 119 35 9 0 0 0 3 0 0 0 221 221 221 222 222 222 0 0 0;#P flonum 17 119 35 9 0 0 0 3 0 0 0 221 221 221 222 222 222 0 0 0;#P newex 17 95 130 196617 jcom.oscroute /left /right;#P inlet 17 38 15 0;#P newex 17 71 283 196617 jcom.oscroute /shift /window;#P newex 335 231 54 196617 tap.shift~;#P outlet 335 255 15 0;#N comlet;#P inlet 314 38 15 0;#P connect 4 0 3 0;#P connect 3 0 5 0;#P connect 5 0 6 0;#P connect 5 1 7 0;#P connect 3 1 8 0;#P connect 8 0 9 0;#P connect 8 1 10 0;#P fasten 0 0 2 0 319 188 340 188;#P connect 2 0 1 0;#P fasten 6 0 11 0 22 157 362 157;#P connect 11 0 12 0;#P connect 12 0 2 1;#P fasten 9 0 2 2 158 221 384 221;#P fasten 13 0 15 0 454 187 475 187;#P connect 15 0 14 0;#P fasten 7 0 16 0 82 154 497 154;#P connect 16 0 17 0;#P connect 17 0 15 1;#P fasten 10 0 15 2 218 218 519 218;#P pop;