max v2;#N vpatcher 270 317 878 656;#P origin -136 2;#P window setfont "Sans Serif" 9.;#P flonum 492 189 35 9 0 0 0 3 0 0 0 221 221 221 222 222 222 0 0 0;#P window linecount 1;#P newex 492 164 95 196617 tap.semitone2ratio;#N out~ 2;#P newobj 469 266 34 196617 out~ 2;#N in~ 2;#P newobj 470 121 28 196617 in~ 2;#P newex 470 230 54 196617 tap.shift~;#P outlet 449 293 15 0;#N comlet;#P inlet 449 121 15 0;#P flonum 357 190 35 9 0 0 0 3 0 0 0 221 221 221 222 222 222 0 0 0;#P newex 357 164 95 196617 tap.semitone2ratio;#P flonum 187 119 35 9 0 0 0 3 0 0 0 221 221 221 222 222 222 0 0 0;#P flonum 137 119 35 9 0 0 0 3 0 0 0 221 221 221 222 222 222 0 0 0;#P newex 137 95 130 196617 jcom.oscroute /left /right;#P flonum 67 119 35 9 0 0 0 3 0 0 0 221 221 221 222 222 222 0 0 0;#P flonum 17 119 35 9 0 0 0 3 0 0 0 221 221 221 222 222 222 0 0 0;#P newex 17 95 130 196617 jcom.oscroute /left /right;#P inlet 48 38 15 0;#N in 1;#P newobj 17 38 25 196617 in 1;#P newex 17 71 147 196617 jcom.oscroute /shift /window;#N out~ 1;#P newobj 334 267 39 196617 out~ 1;#N in~ 1;#P newobj 335 122 33 196617 in~ 1;#P newex 335 231 54 196617 tap.shift~;#P outlet 314 294 15 0;#N comlet;#P inlet 314 122 15 0;#P connect 6 0 5 0;#P fasten 7 0 5 0 53 62 22 62;#P connect 5 0 8 0;#P connect 8 0 9 0;#P connect 8 1 10 0;#P connect 5 1 11 0;#P connect 11 0 12 0;#P connect 11 1 13 0;#P fasten 2 0 1 0 340 258 319 258;#P connect 2 0 4 0;#P connect 3 0 2 0;#P fasten 0 0 2 0 319 188 340 188;#P fasten 9 0 14 0 22 157 362 157;#P connect 14 0 15 0;#P connect 15 0 2 1;#P fasten 12 0 2 2 142 221 384 221;#P fasten 18 0 17 0 475 257 454 257;#P connect 18 0 20 0;#P fasten 16 0 18 0 454 187 475 187;#P connect 19 0 18 0;#P fasten 10 0 21 0 72 154 497 154;#P connect 21 0 22 0;#P connect 22 0 18 1;#P fasten 13 0 18 2 192 218 519 218;#P pop;