max v2;
#N vpatcher 34 59 634 459;
#P window setfont "Sans Serif" 9.;
#N vpatcher 44 74 644 474;
#P pop;
#P newobj 35 189 70 9109513 p components;
#N vpatcher 44 74 672 414;
#P window setfont "Sans Serif" 18.;
#P window linecount 0;
#P comment 44 52 189 9109522 Jamoma externals;
#B frgb 255 255 255;
#P window setfont "Sans Serif" 9.;
#P comment 45 78 277 9109513 Overview of externals included in the Jamoma distribution.;
#B frgb 255 255 255;
#P user panel 38 36 292 63;
#X brgb 67 65 107;
#X frgb 128 11 10;
#X border 0;
#X rounded 0;
#X shadow 0;
#X done;
#P window setfont "Sans Serif" 18.;
#P comment 44 113 112 9109522 Control;
#B frgb 67 65 107;
#P comment 258 113 112 9109522 Audio;
#B frgb 67 65 107;
#P window setfont "Sans Serif" 9.;
#P hidden newex 339 325 64 9109513 prepend help;
#P hidden newex 339 345 45 9109513 pcontrol;
#P message 54 191 63 9109513 jmod.equals;
#P message 54 209 74 9109513 jmod.oscroute;
#P message 54 245 60 9109513 jmod.round;
#P message 54 263 59 9109513 jmod.route;
#P message 54 227 55 9109513 jmod.pass;
#P message 54 173 65 9109513 jmod.change;
#P window linecount 1;
#P message 281 209 68 9109513 jmod.meter~;
#P message 281 227 87 9109513 jmod.saturation~;
#P message 281 173 59 9109513 jmod.gain~;
#P message 281 191 72 9109513 jmod.limiter~;
#P message 281 245 66 9109513 jmod.xfade~;
#P hidden connect 4 0 12 0;
#P hidden connect 3 0 12 0;
#P hidden connect 2 0 12 0;
#P hidden connect 1 0 12 0;
#P hidden connect 0 0 12 0;
#P hidden connect 5 0 12 0;
#P hidden connect 6 0 12 0;
#P hidden connect 7 0 12 0;
#P hidden connect 8 0 12 0;
#P hidden connect 9 0 12 0;
#P hidden connect 10 0 12 0;
#P hidden connect 12 0 11 0;
#P pop;
#P newobj 35 164 61 9109513 p externals;
#N vpatcher 44 74 644 474;
#P window setfont "Sans Serif" 18.;
#P comment 570 114 189 9109522 Control;
#B frgb 67 65 107;
#P window setfont "Sans Serif" 9.;
#P comment 45 144 192 9109513 Audio I/O;
#B frgb 67 65 107;
#P window setfont "Sans Serif" 18.;
#P comment 44 114 189 9109522 Audio;
#B frgb 67 65 107;
#P pop;
#P newobj 35 139 60 9109513 p examples;
#N vpatcher 190 165 917 661;
#P window setfont "Sans Serif" 18.;
#P window linecount 0;
#P comment 563 107 189 9109522 Control;
#B frgb 67 65 107;
#P comment 300 107 189 9109522 Video;
#B frgb 67 65 107;
#P window setfont "Sans Serif" 9.;
#P comment 38 269 192 9109513 Audio FX;
#B frgb 67 65 107;
#P comment 38 212 192 9109513 Mixing and spatialisation;
#B frgb 67 65 107;
#P comment 38 137 192 9109513 Audio I/O;
#B frgb 67 65 107;
#P window setfont "Sans Serif" 18.;
#P comment 37 107 189 9109522 Audio;
#B frgb 67 65 107;
#P window setfont "Sans Serif" 9.;
#P message 584 232 85 9109513 jmod.oscnet.mod;
#P message 322 232 91 9109513 jmod.mblur%.mod;
#P message 322 214 91 9109513 jmod.mblur%.mod;
#P message 584 214 83 9109513 jmod.mapper.mod;
#P message 584 196 64 9109513 jmod.hi.mod;
#P message 60 378 93 9109513 jmod.limiter~.mod;
#P message 60 160 84 9109513 jmod.input~.mod;
#P message 322 250 88 9109513 jmod.wake%.mod;
#P message 60 432 108 9109513 jmod.saturation~.mod;
#P message 60 288 97 9109513 jmod.degrade~.mod;
#P message 584 250 88 9109513 jmod.qmetro.mod;
#P message 60 178 90 9109513 jmod.output~.mod;
#P window linecount 1;
#P message 584 160 88 9109513 jmod.control.mod;
#P message 60 324 82 9109513 jmod.echo~.mod;
#P message 60 342 86 9109513 jmod.filter~.mod;
#P message 60 360 94 9109513 jmod.filterM~.mod;
#P message 60 306 105 9109513 jmod.degradeM~.mod;
#P message 584 178 86 9109513 jmod.cuelist.mod;
#P message 322 196 75 9109513 jmod.op%.mod;
#P message 60 396 104 9109513 jmod.noisegate~.mod;
#P message 322 178 95 9109513 jmod.brcosa%.mod;
#P window linecount 0;
#P message 60 414 112 9109513 jmod.noisegateM~.mod;
#P window linecount 1;
#P message 322 160 95 9109513 jmod.motion%.mod;
#P window linecount 0;
#P message 60 237 106 9109513 jmod.crossfade~.mod;
#P window linecount 1;
#P hidden newex 656 407 64 9109513 prepend help;
#P hidden newex 656 431 45 9109513 pcontrol;
#P window setfont "Sans Serif" 18.;
#P comment 37 45 189 9109522 Jamoma modules;
#B frgb 255 255 255;
#P window setfont "Sans Serif" 9.;
#P comment 38 71 277 9109513 Overview of modules;
#B frgb 255 255 255;
#P user panel 31 29 292 63;
#X brgb 67 65 107;
#X frgb 128 11 10;
#X border 0;
#X rounded 0;
#X shadow 0;
#X done;
#P hidden connect 20 0 4 0;
#P hidden connect 7 0 4 0;
#P hidden connect 9 0 4 0;
#P hidden connect 23 0 4 0;
#P hidden connect 13 0 4 0;
#P hidden connect 14 0 4 0;
#P hidden connect 15 0 4 0;
#P hidden connect 12 0 4 0;
#P hidden connect 19 0 4 0;
#P hidden connect 22 0 4 0;
#P hidden connect 17 0 4 0;
#P hidden connect 5 0 4 0;
#P hidden connect 6 0 4 0;
#P hidden connect 8 0 4 0;
#P hidden connect 10 0 4 0;
#P hidden connect 26 0 4 0;
#P hidden connect 27 0 4 0;
#P hidden connect 21 0 4 0;
#P hidden connect 16 0 4 0;
#P hidden connect 11 0 4 0;
#P hidden connect 24 0 4 0;
#P hidden connect 25 0 4 0;
#P hidden connect 28 0 4 0;
#P hidden connect 18 0 4 0;
#P hidden connect 4 0 3 0;
#P pop;
#P newobj 35 114 54 9109513 p modules;
#P window setfont "Sans Serif" 18.;
#P comment 30 38 189 9109522 Jamoma;
#B frgb 255 255 255;
#P window setfont "Sans Serif" 9.;
#P comment 31 64 277 9109513 Overview of modules \, examples \, externals and components;
#B frgb 255 255 255;
#P user panel 24 22 292 63;
#X brgb 67 65 107;
#X frgb 128 11 10;
#X border 0;
#X rounded 0;
#X shadow 0;
#X done;
#P pop;
