max v2;
#N vpatcher 34 59 311 335;
#P window setfont "Sans Serif" 9.;
#P window linecount 1;
#N vpatcher 120 83 576 373;
#P window setfont "Sans Serif" 9.;
#P window linecount 1;
#P hidden newex 270 248 64 9109513 prepend help;
#P hidden newex 270 272 45 9109513 pcontrol;
#P message 211 203 120 9109513 jmod.jsui_texttoggle.js;
#P message 211 185 116 9109513 jmod.jsui_multigain.js;
#P window linecount 2;
#P comment 45 108 373 9109513 Some of the scripts are used for particular purposes in specific modules or components. Only javascripts that might be of more general use are listed here.;
#B frgb 67 65 107;
#P window linecount 1;
#P message 58 203 120 9109513 jmod.js_systeminfo.js;
#P window linecount 0;
#P message 58 185 78 9109513 jmod.js_link.js;
#P window setfont "Sans Serif" 18.;
#P window linecount 1;
#P comment 44 52 189 9109522 Jamoma javascripts;
#B frgb 255 255 255;
#P window setfont "Sans Serif" 9.;
#P comment 45 78 277 9109513 Overview of javascripts used in Jamoma;
#B frgb 255 255 255;
#P user panel 38 36 292 63;
#X brgb 67 65 107;
#X frgb 128 11 10;
#X border 0;
#X rounded 0;
#X shadow 0;
#X done;
#P window setfont "Sans Serif" 18.;
#P window linecount 0;
#P comment 196 153 189 9109522 JSUI;
#B frgb 67 65 107;
#P comment 44 153 113 9109522 JS;
#B frgb 67 65 107;
#P hidden connect 9 0 11 0;
#P hidden connect 8 0 11 0;
#P hidden connect 6 0 11 0;
#P hidden connect 5 0 11 0;
#P hidden connect 11 0 10 0;
#P pop;
#P newobj 34 192 75 9109513 p javascripts;
#N vpatcher 44 74 772 567;
#P window setfont "Sans Serif" 9.;
#P comment 482 185 192 9109513 Geometric convertions:;
#B frgb 67 65 107;
#P hidden newex 558 353 64 9109513 prepend help;
#P hidden newex 558 377 45 9109513 pcontrol;
#P message 489 267 73 9109513 jmod.aed2xyz;
#P message 489 249 73 9109513 jmod.xyz2aed;
#P message 489 231 71 9109513 jmod.deg2rad;
#P window linecount 0;
#P message 489 213 71 9109513 jmod.rad2deg;
#P window setfont "Sans Serif" 18.;
#P window linecount 1;
#P comment 482 153 164 9109522 Geometry;
#B frgb 67 65 107;
#P window setfont "Sans Serif" 9.;
#P message 293 339 60 9109513 jmod.thru~;
#P window linecount 0;
#P message 293 423 81 9109513 jmod.multi.out~;
#P message 293 405 75 9109513 jmod.multi.in~;
#P comment 258 376 192 9109513 Audio multi cable;
#B frgb 67 65 107;
#P message 38 403 120 9109513 jmod.pluggo.configassist;
#P hidden newex 207 449 64 9109513 prepend help;
#P hidden newex 207 473 45 9109513 pcontrol;
#P comment 258 183 192 9109513 Stuff that might come in handy:;
#B frgb 67 65 107;
#P window setfont "Sans Serif" 18.;
#P comment 258 153 210 9109522 Utilities;
#B frgb 67 65 107;
#P window setfont "Sans Serif" 9.;
#P comment 17 363 192 9109513 Turning modules into pluggos;
#B frgb 67 65 107;
#P window setfont "Sans Serif" 18.;
#P comment 17 333 210 9109522 Pluggo;
#B frgb 67 65 107;
#P window setfont "Sans Serif" 9.;
#P comment 17 183 192 9109513 Components required:;
#B frgb 67 65 107;
#P window setfont "Sans Serif" 18.;
#P comment 17 153 210 9109522 Building new modules;
#B frgb 67 65 107;
#P window setfont "Sans Serif" 9.;
#P message 293 321 54 9109513 jmod.thru;
#P message 38 305 69 9109513 jmod.return;
#P message 38 385 41 9109513 jmod.pp;
#P message 293 303 49 9109513 jmod.post;
#P message 38 287 87 9109513 jmod.parameter;
#P message 38 269 107 9109513 jmod.parameter.gain;
#P message 38 251 69 9109513 jmod.message;
#P message 293 285 59 9109513 jmod.line;
#P message 38 233 46 9109513 jmod.hub;
#P message 38 215 43 9109513 jmod.gui;
#P message 293 267 95 9109513 jmod.filewatcher;
#P message 293 249 82 9109513 jmod.filesaver;
#P message 293 231 87 9109513 jmod.autosize%;
#P message 293 213 77 9109513 jmod.autoscale;
#P window linecount 2;
#P comment 15 77 402 9109513 "component" is a Jamoma nickname for a functionality used in one or more algorithms or modules \, implemented as a patch abstraction rather than an external or javascript.;
#B frgb 67 65 107;
#P comment 15 107 373 9109513 Some of the components are used for particular purposes in specific modules. Only components that might be of more general use are listed here.;
#B frgb 67 65 107;
#P window setfont "Sans Serif" 18.;
#P window linecount 1;
#P comment 14 26 203 9109522 Jamoma components;
#B frgb 255 255 255;
#P window setfont "Sans Serif" 9.;
#P comment 15 52 277 9109513 Overview of components used in Jamoma;
#B frgb 255 255 255;
#P user panel 8 10 292 63;
#X brgb 67 65 107;
#X frgb 128 11 10;
#X border 0;
#X rounded 0;
#X shadow 0;
#X done;
#P hidden connect 31 0 26 0;
#P hidden connect 29 0 26 0;
#P hidden connect 30 0 26 0;
#P hidden connect 27 0 26 0;
#P hidden connect 5 0 26 0;
#P hidden connect 6 0 26 0;
#P hidden connect 7 0 26 0;
#P hidden connect 8 0 26 0;
#P hidden connect 11 0 26 0;
#P hidden connect 15 0 26 0;
#P hidden connect 18 0 26 0;
#P hidden connect 16 0 26 0;
#P hidden connect 17 0 26 0;
#P hidden connect 14 0 26 0;
#P hidden connect 9 0 26 0;
#P hidden connect 10 0 26 0;
#P hidden connect 12 0 26 0;
#P hidden connect 13 0 26 0;
#P hidden connect 26 0 25 0;
#P hidden connect 36 0 38 0;
#P hidden connect 35 0 38 0;
#P hidden connect 34 0 38 0;
#P hidden connect 33 0 38 0;
#P hidden connect 38 0 37 0;
#P pop;
#P newobj 34 218 75 9109513 p components;
#N vpatcher 44 74 672 414;
#P window setfont "Sans Serif" 18.;
#P window linecount 0;
#P comment 44 52 189 9109522 Jamoma externals;
#B frgb 255 255 255;
#P window setfont "Sans Serif" 9.;
#P comment 45 78 277 9109513 Overview of externals included in the Jamoma distribution.;
#B frgb 255 255 255;
#P user panel 38 36 292 63;
#X brgb 67 65 107;
#X frgb 128 11 10;
#X border 0;
#X rounded 0;
#X shadow 0;
#X done;
#P window setfont "Sans Serif" 18.;
#P comment 44 113 112 9109522 Control;
#B frgb 67 65 107;
#P comment 258 113 112 9109522 Audio;
#B frgb 67 65 107;
#P window setfont "Sans Serif" 9.;
#P hidden newex 339 325 64 9109513 prepend help;
#P hidden newex 339 345 45 9109513 pcontrol;
#P message 54 191 63 9109513 jmod.equals;
#P message 54 209 74 9109513 jmod.oscroute;
#P message 54 245 60 9109513 jmod.round;
#P message 54 263 59 9109513 jmod.route;
#P message 54 227 55 9109513 jmod.pass;
#P message 54 173 65 9109513 jmod.change;
#P window linecount 1;
#P message 281 209 68 9109513 jmod.meter~;
#P message 281 227 87 9109513 jmod.saturation~;
#P message 281 173 59 9109513 jmod.gain~;
#P message 281 191 72 9109513 jmod.limiter~;
#P message 281 245 66 9109513 jmod.xfade~;
#P hidden connect 4 0 12 0;
#P hidden connect 3 0 12 0;
#P hidden connect 2 0 12 0;
#P hidden connect 1 0 12 0;
#P hidden connect 0 0 12 0;
#P hidden connect 5 0 12 0;
#P hidden connect 6 0 12 0;
#P hidden connect 7 0 12 0;
#P hidden connect 8 0 12 0;
#P hidden connect 9 0 12 0;
#P hidden connect 10 0 12 0;
#P hidden connect 12 0 11 0;
#P pop;
#P newobj 35 166 74 9109513 p externals;
#N vpatcher 44 74 644 474;
#P window setfont "Sans Serif" 18.;
#P comment 570 114 189 9109522 Control;
#B frgb 67 65 107;
#P window setfont "Sans Serif" 9.;
#P comment 45 144 192 9109513 Audio I/O;
#B frgb 67 65 107;
#P window setfont "Sans Serif" 18.;
#P comment 44 114 189 9109522 Audio;
#B frgb 67 65 107;
#P pop;
#P newobj 35 140 74 9109513 p examples;
#N vpatcher 89 131 948 637;
#P window setfont "Sans Serif" 9.;
#P window linecount 1;
#P message 60 255 82 9109513 jmod.scope~.mod;
#P message 513 221 81 9109513 jmod.avg4%.mod;
#P message 513 293 91 9109513 jmod.fluoride%.mod;
#P message 513 275 93 9109513 jmod.emboss%.mod;
#P window linecount 0;
#P hidden newex 416 476 64 9109513 prepend help;
#P hidden newex 416 500 45 9109513 pcontrol;
#P hidden newex 179 476 64 9109513 prepend help;
#P hidden newex 179 500 45 9109513 pcontrol;
#P window setfont "Sans Serif" 18.;
#P comment 241 107 189 9109522 Audio - spatialisation;
#B frgb 67 65 107;
#P window setfont "Sans Serif" 9.;
#P comment 251 137 192 9109513 General modules;
#B frgb 67 65 107;
#P message 277 352 132 9109513 jmod.sur.ambi.adjust~.mod;
#P message 277 265 108 9109513 jmod.sur.output~.mod;
#P message 277 247 120 9109513 jmod.sur.multi.out~.mod;
#P message 277 229 114 9109513 jmod.sur.multi.in~.mod;
#P window linecount 1;
#P comment 251 212 192 9109513 Multicable;
#B frgb 67 65 107;
#P comment 251 299 192 9109513 Ambisonics;
#B frgb 67 65 107;
#P message 277 178 142 9109513 jmod.sur.speaker.delay~.mod;
#P message 277 160 113 9109513 jmod.sur.doppler~.mod;
#P message 277 334 134 9109513 jmod.sur.ambi.decode~.mod;
#P message 277 316 134 9109513 jmod.sur.ambi.encode~.mod;
#P comment 488 413 192 9109513 Compositing;
#B frgb 67 65 107;
#P comment 482 200 192 9109513 Filters;
#B frgb 67 65 107;
#P comment 482 137 192 9109513 Video I/O;
#B frgb 67 65 107;
#P message 513 447 90 9109513 jmod.xfade%.mod;
#P message 513 160 87 9109513 jmod.input%.mod;
#P message 513 257 85 9109513 jmod.edge%.mod;
#P message 513 365 83 9109513 jmod.plur%.mod;
#P window linecount 0;
#P comment 705 356 192 9109513 Others;
#B frgb 67 65 107;
#P comment 705 251 192 9109513 Controlling Jamoma;
#B frgb 67 65 107;
#P message 729 160 75 9109513 jmod.midi.mod;
#P comment 705 137 192 9109513 Data I/O;
#B frgb 67 65 107;
#P message 729 178 80 9109513 jmod.mouse.mod;
#P message 513 347 93 9109513 jmod.orsize%.mod;
#P window setfont "Sans Serif" 18.;
#P comment 705 107 189 9109522 Control;
#B frgb 67 65 107;
#P comment 482 107 189 9109522 Video;
#B frgb 67 65 107;
#P window setfont "Sans Serif" 9.;
#P comment 38 291 192 9109513 Audio FX;
#B frgb 67 65 107;
#P comment 38 212 192 9109513 Mixing and Metering;
#B frgb 67 65 107;
#P comment 38 137 192 9109513 Audio I/O;
#B frgb 67 65 107;
#P window setfont "Sans Serif" 18.;
#P comment 37 107 189 9109522 Audio;
#B frgb 67 65 107;
#P window setfont "Sans Serif" 9.;
#P message 729 214 85 9109513 jmod.oscnet.mod;
#P message 513 311 91 9109513 jmod.mblur%.mod;
#P message 729 308 89 9109513 jmod.mapper.mod;
#P message 729 196 64 9109513 jmod.hi.mod;
#P message 60 400 93 9109513 jmod.limiter~.mod;
#P message 60 160 84 9109513 jmod.input~.mod;
#P message 513 383 88 9109513 jmod.wake%.mod;
#P message 60 454 108 9109513 jmod.saturation~.mod;
#P message 60 310 97 9109513 jmod.degrade~.mod;
#P message 729 378 88 9109513 jmod.qmetro.mod;
#P message 60 178 90 9109513 jmod.output~.mod;
#P window linecount 1;
#P message 729 272 88 9109513 jmod.control.mod;
#P message 60 346 82 9109513 jmod.echo~.mod;
#P message 60 364 86 9109513 jmod.filter~.mod;
#P message 60 382 94 9109513 jmod.filterM~.mod;
#P message 60 328 105 9109513 jmod.degradeM~.mod;
#P message 729 290 86 9109513 jmod.cuelist.mod;
#P message 514 428 75 9109513 jmod.op%.mod;
#P message 60 418 104 9109513 jmod.noisegate~.mod;
#P message 513 239 95 9109513 jmod.brcosa%.mod;
#P window linecount 0;
#P message 60 436 112 9109513 jmod.noisegateM~.mod;
#P window linecount 1;
#P message 513 329 95 9109513 jmod.motion%.mod;
#P window linecount 0;
#P message 60 237 106 9109513 jmod.crossfade~.mod;
#P window linecount 1;
#P hidden newex 681 476 64 9109513 prepend help;
#P hidden newex 681 500 45 9109513 pcontrol;
#P window setfont "Sans Serif" 18.;
#P comment 37 45 189 9109522 Jamoma modules;
#B frgb 255 255 255;
#P window setfont "Sans Serif" 9.;
#P comment 38 71 277 9109513 Overview of modules;
#B frgb 255 255 255;
#P user panel 31 29 292 63;
#X brgb 67 65 107;
#X frgb 128 11 10;
#X border 0;
#X rounded 0;
#X shadow 0;
#X done;
#P hidden connect 66 0 60 0;
#P hidden connect 20 0 60 0;
#P hidden connect 7 0 60 0;
#P hidden connect 9 0 60 0;
#P hidden connect 23 0 60 0;
#P hidden connect 13 0 60 0;
#P hidden connect 14 0 60 0;
#P hidden connect 15 0 60 0;
#P hidden connect 12 0 60 0;
#P hidden connect 19 0 60 0;
#P hidden connect 5 0 60 0;
#P hidden connect 17 0 60 0;
#P hidden connect 22 0 60 0;
#P hidden connect 60 0 59 0;
#P hidden connect 56 0 62 0;
#P hidden connect 48 0 62 0;
#P hidden connect 47 0 62 0;
#P hidden connect 55 0 62 0;
#P hidden connect 54 0 62 0;
#P hidden connect 53 0 62 0;
#P hidden connect 50 0 62 0;
#P hidden connect 49 0 62 0;
#P hidden connect 62 0 61 0;
#P hidden connect 65 0 4 0;
#P hidden fasten 63 0 4 0 514 292;
#P hidden connect 64 0 4 0;
#P hidden connect 6 0 4 0;
#P hidden connect 8 0 4 0;
#P hidden connect 10 0 4 0;
#P hidden connect 26 0 4 0;
#P hidden connect 21 0 4 0;
#P hidden connect 16 0 4 0;
#P hidden connect 11 0 4 0;
#P hidden connect 24 0 4 0;
#P hidden connect 25 0 4 0;
#P hidden connect 27 0 4 0;
#P hidden connect 18 0 4 0;
#P hidden connect 34 0 4 0;
#P hidden connect 35 0 4 0;
#P hidden connect 37 0 4 0;
#P hidden connect 40 0 4 0;
#P hidden connect 42 0 4 0;
#P hidden connect 41 0 4 0;
#P hidden connect 43 0 4 0;
#P hidden connect 4 0 3 0;
#P pop;
#P newobj 35 114 74 9109513 p modules;
#P window setfont "Sans Serif" 18.;
#P comment 30 38 189 9109522 Jamoma;
#B frgb 255 255 255;
#P window setfont "Sans Serif" 9.;
#P window linecount 2;
#P comment 31 64 180 9109513 Overview of modules \, examples \, externals \, javascripts and components;
#B frgb 255 255 255;
#P user panel 24 22 205 72;
#X brgb 67 65 107;
#X frgb 128 11 10;
#X border 0;
#X rounded 0;
#X shadow 0;
#X done;
#P pop;
