max v2;#N vpatcher 28 62 305 338;#P window setfont "Sans Serif" 9.;#P window linecount 1;#N vpatcher 309 61 765 351;#P origin 0 14;#P window setfont "Sans Serif" 9.;#P window linecount 1;#P message 211 224 73 196617 jcom.slider.js;#P message 211 206 101 196617 jcom.jsui_3dknob.js;#P hidden newex 267 265 64 196617 prepend help;#P hidden newex 267 289 45 196617 pcontrol;#P message 211 189 116 196617 jmod.jsui_texttoggle.js;#P message 211 171 111 196617 jmod.jsui_multigain.js;#P window linecount 2;#P comment 45 94 373 196617 Some of the scripts are used for particular purposes in specific modules or components. Only javascripts that might be of more general use are listed here.;#B frgb 67 65 107;#P window linecount 1;#P message 58 189 120 196617 jmod.js_systeminfo.js;#P window linecount 0;#P message 58 171 78 196617 jmod.js_link.js;#P window setfont "Sans Serif" 18.;#P window linecount 1;#P comment 44 38 189 196626 Jamoma javascripts;#B frgb 255 255 255;#P window setfont "Sans Serif" 9.;#P comment 45 64 277 196617 Overview of javascripts used in Jamoma;#B frgb 255 255 255;#P user panel 38 22 292 63;#X brgb 67 65 107;#X frgb 128 11 10;#X border 0;#X rounded 0;#X shadow 0;#X done;#P window setfont "Sans Serif" 18.;#P window linecount 0;#P comment 196 139 189 196626 JSUI;#B frgb 67 65 107;#P comment 44 139 113 196626 JS;#B frgb 67 65 107;#P hidden connect 5 0 11 0;#P hidden connect 6 0 11 0;#P hidden connect 8 0 11 0;#P hidden connect 9 0 11 0;#P hidden connect 12 0 11 0;#P hidden connect 13 0 11 0;#P hidden connect 11 0 10 0;#P pop;#P newobj 34 192 75 196617 p javascripts;#N vpatcher 307 62 1153 623;#P window setfont "Sans Serif" 9.;#P window linecount 1;#P message 708 206 105 196617 jcom.pwindow.mouse;#P message 706 189 43 196617 jcom.pi;#P window linecount 0;#P message 707 165 103 196617 jcom.parameter.gain;#P message 683 146 83 196617 jcom.autocrop%;#P message 665 122 112 196617 jcom.ambimonitor2aed;#P message 665 104 112 196617 jcom.aed2ambimonitor;#P message 666 81 66 196617 jcom.absdiff;#P message 489 376 80 196617 jcom.vtext;#P message 490 470 55 196617 jcom.dbap;#P window linecount 1;#P comment 483 446 192 196617 Distance based amplitude panning:;#B frgb 67 65 107;#P window setfont "Sans Serif" 18.;#P comment 483 414 164 196626 Spatialisation;#B frgb 67 65 107;#P window setfont "Sans Serif" 9.;#P message 293 321 128 196617 jcom.namespace_analyzer;#P window linecount 0;#P message 293 339 122 196617 jcom.namespace_browse;#P message 489 356 80 196617 jcom.textslider;#P comment 482 334 192 196617 LCD-based widgets:;#B frgb 67 65 107;#P window setfont "Sans Serif" 18.;#P comment 482 304 164 196626 Widgets;#B frgb 67 65 107;#P window setfont "Sans Serif" 9.;#P comment 482 185 192 196617 Geometric convertions:;#B frgb 67 65 107;#P hidden newex 658 314 64 196617 prepend help;#P hidden newex 658 338 45 196617 pcontrol;#P message 489 269 73 196617 jcom.aed2xyz;#P message 489 249 73 196617 jcom.xyz2aed;#P message 489 231 71 196617 jcom.deg2rad;#P message 489 213 71 196617 jcom.rad2deg;#P window setfont "Sans Serif" 18.;#P window linecount 1;#P comment 482 153 164 196626 Geometry;#B frgb 67 65 107;#P window setfont "Sans Serif" 9.;#P message 293 393 60 196617 jcom.thru~;#P window linecount 0;#P message 293 459 81 196617 jcom.multi.out~;#P message 293 441 75 196617 jcom.multi.in~;#P comment 258 412 192 196617 Audio multi cable;#B frgb 67 65 107;#P message 38 403 120 196617 jcom.pluggo.configassist;#P hidden newex 207 449 64 196617 prepend help;#P hidden newex 207 473 45 196617 pcontrol;#P comment 258 183 192 196617 Stuff that might come in handy:;#B frgb 67 65 107;#P window setfont "Sans Serif" 18.;#P comment 258 153 210 196626 Utilities;#B frgb 67 65 107;#P window setfont "Sans Serif" 9.;#P comment 17 363 192 196617 Turning modules into pluggos;#B frgb 67 65 107;#P window setfont "Sans Serif" 18.;#P comment 17 333 210 196626 Pluggo;#B frgb 67 65 107;#P window setfont "Sans Serif" 9.;#P comment 17 183 192 196617 Components required:;#B frgb 67 65 107;#P window setfont "Sans Serif" 18.;#P comment 17 153 210 196626 Building new modules;#B frgb 67 65 107;#P window setfont "Sans Serif" 9.;#P message 293 375 54 196617 jcom.thru;#P message 38 385 41 196617 jcom.pp;#P message 293 357 49 196617 jcom.post;#P message 293 303 59 196617 jcom.line;#P message 38 234 43 196617 jcom.gui;#P message 293 267 95 196617 jcom.filewatcher;#P message 293 249 82 196617 jcom.filesaver;#P message 293 231 87 196617 jcom.autosize%;#P message 293 213 77 196617 jcom.autoscale;#P window linecount 2;#P comment 15 77 402 196617 "component" is a Jamoma nickname for a functionality used in one or more algorithms or modules \, implemented as a patch abstraction rather than an external or javascript.;#B frgb 67 65 107;#P comment 15 107 373 196617 Some of the components are used for particular purposes in specific modules. Only components that might be of more general use are listed here.;#B frgb 67 65 107;#P window setfont "Sans Serif" 18.;#P window linecount 1;#P comment 14 26 203 196626 Jamoma components;#B frgb 255 255 255;#P window setfont "Sans Serif" 9.;#P comment 15 52 277 196617 Overview of components used in Jamoma;#B frgb 255 255 255;#P user panel 8 10 292 63;#X brgb 67 65 107;#X frgb 128 11 10;#X border 0;#X rounded 0;#X shadow 0;#X done;#P comment 37 508 239 196617 The pink ones are being substituted for externals.;#B color 14;#P hidden connect 39 0 22 0;#P hidden connect 10 0 22 0;#P hidden connect 13 0 22 0;#P hidden connect 14 0 22 0;#P hidden connect 12 0 22 0;#P hidden connect 11 0 22 0;#P hidden connect 9 0 22 0;#P hidden connect 8 0 22 0;#P hidden connect 7 0 22 0;#P hidden connect 6 0 22 0;#P hidden connect 23 0 22 0;#P hidden connect 26 0 22 0;#P hidden connect 25 0 22 0;#P hidden connect 27 0 22 0;#P hidden connect 40 0 22 0;#P hidden connect 22 0 21 0;#P connect 51 0 34 0;#P connect 49 0 34 0;#P hidden connect 44 0 34 0;#P hidden connect 43 0 34 0;#P hidden connect 29 0 34 0;#P hidden connect 30 0 34 0;#P hidden connect 31 0 34 0;#P hidden connect 32 0 34 0;#P hidden connect 38 0 34 0;#P connect 45 0 34 0;#P connect 46 0 34 0;#P connect 47 0 34 0;#P connect 48 0 34 0;#P connect 50 0 34 0;#P hidden connect 34 0 33 0;#P pop;#P newobj 34 218 75 196617 p components;#N vpatcher 310 62 937 477;#P window setfont "Sans Serif" 9.;#P window linecount 1;#P message 186 189 55 196617 jcom.gang;#P window linecount 0;#P hidden newex 138 378 64 196617 prepend help;#P hidden newex 138 398 45 196617 pcontrol;#P window setfont "Sans Serif" 18.;#P comment 25 92 129 196626 Jamoma Core;#B frgb 67 65 107;#P window setfont "Sans Serif" 9.;#P message 186 339 71 196617 jcom.teabox~;#P message 186 322 98 196617 jcom.teabox.count~;#P message 186 305 91 196617 jcom.teabox.bits~;#P message 37 351 55 196617 jcom.send;#P message 37 333 64 196617 jcom.return;#P message 37 315 67 196617 jcom.remote;#P message 37 297 69 196617 jcom.receive;#P message 37 279 58 196617 jcom.ramp;#P message 37 261 82 196617 jcom.parameter;#P message 37 243 55 196617 jcom.out~;#P message 37 225 49 196617 jcom.out;#P message 37 207 73 196617 jcom.message;#P message 37 189 50 196617 jcom.init;#P message 37 153 43 196617 jcom.in;#P message 37 171 49 196617 jcom.in~;#P message 37 135 50 196617 jcom.hub;#P message 186 153 113 196617 jcom.cubic_interpolate;#B color 2;#P window setfont "Sans Serif" 18.;#P comment 466 92 112 196626 Video;#B frgb 67 65 107;#P window setfont "Sans Serif" 9.;#P message 484 135 62 196617 jcom.sum%;#P window setfont "Sans Serif" 18.;#P comment 25 32 189 196626 Jamoma externals;#B frgb 255 255 255;#P window setfont "Sans Serif" 9.;#P comment 26 58 277 196617 Overview of externals included in the Jamoma distribution.;#B frgb 255 255 255;#P user panel 19 16 292 63;#X brgb 67 65 107;#X frgb 128 11 10;#X border 0;#X rounded 0;#X shadow 0;#X done;#P window setfont "Sans Serif" 18.;#P comment 172 92 112 196626 Control;#B frgb 67 65 107;#P comment 319 92 112 196626 Audio;#B frgb 67 65 107;#P window setfont "Sans Serif" 9.;#P hidden newex 356 305 64 196617 prepend help;#P hidden newex 356 325 45 196617 pcontrol;#P message 186 171 63 196617 jcom.equals;#P message 186 207 74 196617 jcom.oscroute;#P message 186 243 60 196617 jcom.round;#P message 186 261 59 196617 jcom.route;#P message 186 225 55 196617 jcom.pass;#P message 186 135 65 196617 jcom.change;#P window linecount 1;#P message 335 171 68 196617 jcom.meter~;#P message 335 189 87 196617 jcom.saturation~;#P message 335 135 59 196617 jcom.gain~;#P message 335 153 72 196617 jcom.limiter~;#P message 335 207 66 196617 jcom.xfade~;#P window linecount 0;#P comment 187 366 307 196617 jcom.cubic_interpolate - not yet merged into experimental branch;#B color 1;#P hidden connect 34 0 40 0;#P hidden connect 33 0 40 0;#P hidden connect 32 0 40 0;#P hidden connect 31 0 40 0;#P hidden connect 30 0 40 0;#P hidden connect 29 0 40 0;#P hidden connect 28 0 40 0;#P hidden connect 27 0 40 0;#P hidden connect 26 0 40 0;#P hidden connect 25 0 40 0;#P hidden connect 23 0 40 0;#P hidden connect 24 0 40 0;#P hidden connect 22 0 40 0;#P hidden connect 40 0 39 0;#P hidden connect 19 0 13 0;#P hidden connect 11 0 13 0;#P hidden connect 10 0 13 0;#P hidden connect 9 0 13 0;#P hidden connect 8 0 13 0;#P hidden connect 7 0 13 0;#P hidden connect 6 0 13 0;#P hidden connect 1 0 13 0;#P hidden connect 2 0 13 0;#P hidden connect 3 0 13 0;#P hidden connect 4 0 13 0;#P hidden connect 5 0 13 0;#P hidden connect 21 0 13 0;#P hidden connect 35 0 13 0;#P hidden connect 36 0 13 0;#P hidden connect 37 0 13 0;#P hidden connect 41 0 13 0;#P hidden connect 13 0 12 0;#P pop;#P newobj 35 166 74 196617 p externals;#N vpatcher 311 59 818 454;#P window setfont "Sans Serif" 18.;#P comment 299 114 189 196626 Control;#B frgb 67 65 107;#P window setfont "Sans Serif" 9.;#P comment 45 144 192 196617 Audio I/O;#B frgb 67 65 107;#P window setfont "Sans Serif" 18.;#P comment 44 114 189 196626 Audio;#B frgb 67 65 107;#P pop;#P newobj 35 140 74 196617 p examples;#N vpatcher 120 44 1041 605;#P origin 30 0;#P window setfont "Sans Serif" 9.;#P window linecount 0;#P message 38 363 94 196617 jmod.multi_filter~;#P message 707 310 93 196617 jmod.cont_mapper;#P message 38 328 61 196617 jmod.echo~;#P message 262 188 115 196617 jmod.sur.speaker.setup;#P comment 236 169 192 196617 Loudspeaker setup and correction;#B frgb 67 65 107;#P hidden newex 401 460 64 196617 prepend help;#P hidden newex 401 484 45 196617 pcontrol;#P window setfont "Sans Serif" 18.;#P comment 226 91 189 196626 Audio - spatialisation;#B frgb 67 65 107;#P window setfont "Sans Serif" 9.;#P comment 236 121 192 196617 General modules;#B frgb 67 65 107;#P message 262 380 111 196617 jmod.sur.ambi.adjust~;#P message 262 293 87 196617 jmod.sur.output~;#P message 262 275 99 196617 jmod.sur.multi.out~;#P message 262 257 93 196617 jmod.sur.multi.in~;#P comment 236 240 192 196617 Multicable;#B frgb 67 65 107;#P comment 236 327 192 196617 Ambisonics;#B frgb 67 65 107;#P message 262 206 121 196617 jmod.sur.speaker.delay~;#P message 262 144 92 196617 jmod.sur.doppler~;#P message 262 362 113 196617 jmod.sur.ambi.decode~;#P message 262 344 113 196617 jmod.sur.ambi.encode~;#P message 38 239 66 196617 jmod.scope~;#P message 490 188 66 196617 jmod.avg4%;#P message 490 260 79 196617 jmod.fluoride%;#P message 490 242 77 196617 jmod.emboss%;#P hidden newex 178 533 64 196617 prepend help;#P hidden newex 178 557 45 196617 pcontrol;#P window linecount 1;#P comment 465 380 192 196617 Compositing;#B frgb 67 65 107;#P comment 459 167 192 196617 Filters;#B frgb 67 65 107;#P comment 460 121 192 196617 Video I/O;#B frgb 67 65 107;#P message 491 414 69 196617 jmod.xfade%;#P message 491 144 66 196617 jmod.input%;#P message 490 224 64 196617 jmod.edge%;#P message 490 332 62 196617 jmod.plur%;#P window linecount 0;#P comment 683 340 192 196617 Others;#B frgb 67 65 107;#P comment 683 235 192 196617 Controlling Jamoma;#B frgb 67 65 107;#P message 707 144 54 196617 jmod.midi;#P comment 683 121 192 196617 Data I/O;#B frgb 67 65 107;#P message 707 162 63 196617 jmod.mouse;#P message 490 314 72 196617 jmod.orsize%;#P window setfont "Sans Serif" 18.;#P comment 683 91 189 196626 Control;#B frgb 67 65 107;#P comment 460 91 189 196626 Video;#B frgb 67 65 107;#P window setfont "Sans Serif" 9.;#P comment 16 275 192 196617 Audio FX;#B frgb 67 65 107;#P comment 16 196 192 196617 Mixing and Metering;#B frgb 67 65 107;#P comment 16 121 192 196617 Audio I/O;#B frgb 67 65 107;#P window setfont "Sans Serif" 18.;#P comment 15 91 189 196626 Audio;#B frgb 67 65 107;#P window setfont "Sans Serif" 9.;#P message 707 198 64 196617 jmod.oscnet;#P message 490 278 70 196617 jmod.mblur%;#P message 707 292 68 196617 jmod.mapper;#P message 707 180 43 196617 jmod.hi;#P message 38 381 72 196617 jmod.limiter~;#P message 38 144 63 196617 jmod.input~;#P message 490 350 67 196617 jmod.wake%;#P message 38 417 87 196617 jmod.saturation~;#P message 38 294 76 196617 jmod.degrade~;#P message 707 362 67 196617 jmod.qmetro;#P message 38 162 69 196617 jmod.output~;#P window linecount 1;#P message 707 256 67 196617 jmod.control;#P message 38 311 65 196617 jmod.delay~;#P message 38 345 65 196617 jmod.filter~;#P message 707 274 65 196617 jmod.cuelist;#P message 491 395 54 196617 jmod.op%;#P message 38 399 83 196617 jmod.noisegate~;#P message 490 206 74 196617 jmod.brcosa%;#P message 490 296 74 196617 jmod.motion%;#P window linecount 0;#P message 38 221 85 196617 jmod.crossfade~;#P window linecount 1;#P hidden newex 659 460 64 196617 prepend help;#P hidden newex 659 484 45 196617 pcontrol;#P window setfont "Sans Serif" 18.;#P comment 15 29 189 196626 Jamoma modules;#B frgb 255 255 255;#P window setfont "Sans Serif" 9.;#P comment 16 55 277 196617 Overview of modules;#B frgb 255 255 255;#P user panel 9 13 292 63;#X brgb 67 65 107;#X frgb 128 11 10;#X border 0;#X rounded 0;#X shadow 0;#X done;#P hidden connect 19 0 45 0;#P hidden connect 14 0 45 0;#P hidden connect 5 0 45 0;#P hidden connect 16 0 45 0;#P hidden connect 12 0 45 0;#P hidden connect 11 0 45 0;#P hidden connect 20 0 45 0;#P hidden connect 8 0 45 0;#P hidden connect 17 0 45 0;#P hidden connect 49 0 45 0;#P hidden connect 66 0 45 0;#P hidden connect 68 0 45 0;#P hidden connect 45 0 44 0;#P hidden connect 65 0 63 0;#P hidden connect 59 0 63 0;#P hidden connect 51 0 63 0;#P hidden connect 50 0 63 0;#P hidden connect 58 0 63 0;#P hidden connect 57 0 63 0;#P hidden connect 56 0 63 0;#P hidden connect 53 0 63 0;#P hidden connect 52 0 63 0;#P hidden connect 63 0 62 0;#P hidden connect 40 0 4 0;#P hidden connect 38 0 4 0;#P hidden connect 39 0 4 0;#P hidden connect 37 0 4 0;#P hidden connect 34 0 4 0;#P hidden connect 32 0 4 0;#P hidden connect 31 0 4 0;#P hidden connect 15 0 4 0;#P hidden connect 24 0 4 0;#P hidden connect 22 0 4 0;#P hidden connect 21 0 4 0;#P hidden connect 10 0 4 0;#P hidden connect 13 0 4 0;#P hidden connect 18 0 4 0;#P hidden connect 23 0 4 0;#P hidden connect 9 0 4 0;#P hidden connect 7 0 4 0;#P hidden connect 6 0 4 0;#P hidden connect 47 0 4 0;#P hidden fasten 46 0 4 0 492 276;#P hidden connect 48 0 4 0;#P hidden connect 67 0 4 0;#P hidden connect 4 0 3 0;#P pop;#P newobj 35 114 74 196617 p modules;#P window setfont "Sans Serif" 18.;#P comment 30 38 189 196626 Jamoma;#B frgb 255 255 255;#P window setfont "Sans Serif" 9.;#P window linecount 2;#P comment 31 64 180 196617 Overview of modules \, examples \, externals \, javascripts and components;#B frgb 255 255 255;#P user panel 24 22 205 72;#X brgb 67 65 107;#X frgb 128 11 10;#X border 0;#X rounded 0;#X shadow 0;#X done;#P pop;