max v2;#N vpatcher 28 62 305 338;#P window setfont "Sans Serif" 9.;#P window linecount 1;#N vpatcher 309 61 765 351;#P origin 0 14;#P window setfont "Sans Serif" 9.;#P window linecount 1;#P message 211 224 73 196617 jcom.slider.js;#P message 211 206 101 196617 jcom.jsui_3dknob.js;#P hidden newex 267 265 64 196617 prepend help;#P hidden newex 267 289 45 196617 pcontrol;#P message 211 189 116 196617 jcom.jsui_texttoggle.js;#P message 211 171 111 196617 jcom.jsui_multigain.js;#P window linecount 2;#P comment 45 94 373 196617 Some of the scripts are used for particular purposes in specific modules or components. Only javascripts that might be of more general use are listed here.;#B frgb 67 65 107;#P window linecount 1;#P message 58 189 112 196617 jcom.js_systeminfo.js;#P window linecount 0;#P message 58 171 78 196617 jcom.js_link.js;#P window setfont "Sans Serif" 18.;#P window linecount 1;#P comment 44 38 189 196626 Jamoma javascripts;#B frgb 255 255 255;#P window setfont "Sans Serif" 9.;#P comment 45 64 277 196617 Overview of javascripts used in Jamoma;#B frgb 255 255 255;#P user panel 38 22 292 63;#X brgb 67 65 107;#X frgb 128 11 10;#X border 0;#X rounded 0;#X shadow 0;#X done;#P window setfont "Sans Serif" 18.;#P window linecount 0;#P comment 196 139 189 196626 JSUI;#B frgb 67 65 107;#P comment 44 139 113 196626 JS;#B frgb 67 65 107;#P hidden connect 13 0 11 0;#P hidden connect 12 0 11 0;#P hidden connect 9 0 11 0;#P hidden connect 8 0 11 0;#P hidden connect 6 0 11 0;#P hidden connect 5 0 11 0;#P hidden connect 11 0 10 0;#P pop;#P newobj 34 192 75 196617 p javascripts;#N vpatcher 48 57 810 691;#P window setfont "Sans Serif" 9.;#P window linecount 0;#P comment 490 535 192 196617 Window size etc:;#B frgb 67 65 107;#P window setfont "Sans Serif" 18.;#P comment 490 503 164 196626 Video;#B frgb 67 65 107;#P window setfont "Sans Serif" 9.;#P message 300 366 103 196617 jcom.list2parameter;#P message 300 276 97 196617 jcom.checkplanes%;#P message 388 438 86 196617 jcom.luma2rgb%;#P message 300 438 86 196617 jcom.rgb2luma%;#P message 496 383 60 196617 jcom.vtext;#P message 497 477 55 196617 jcom.dbap;#P comment 490 453 192 196617 Distance based amplitude panning:;#B frgb 67 65 107;#P window setfont "Sans Serif" 18.;#P comment 490 421 164 196626 Spatialisation;#B frgb 67 65 107;#P window setfont "Sans Serif" 9.;#P message 300 384 128 196617 jcom.namespace_analyzer;#P message 300 330 50 196617 jcom.init;#P message 300 402 122 196617 jcom.namespace_browse;#P message 496 363 80 196617 jcom.textslider;#P comment 489 341 192 196617 LCD-based widgets:;#B frgb 67 65 107;#P window setfont "Sans Serif" 18.;#P comment 489 311 164 196626 Widgets;#B frgb 67 65 107;#P window setfont "Sans Serif" 9.;#P comment 489 192 192 196617 Geometric convertions:;#B frgb 67 65 107;#P hidden newex 665 321 64 196617 prepend help;#P hidden newex 665 345 45 196617 pcontrol;#P message 572 240 73 196617 jcom.aed2xyz;#P message 496 240 73 196617 jcom.xyz2aed;#P message 570 222 71 196617 jcom.deg2rad;#P message 496 222 71 196617 jcom.rad2deg;#P window setfont "Sans Serif" 18.;#P comment 489 160 164 196626 Geometry;#B frgb 67 65 107;#P window setfont "Sans Serif" 9.;#P message 300 474 60 196617 jcom.thru~;#P message 300 536 81 196617 jcom.multi.out~;#P message 300 518 75 196617 jcom.multi.in~;#P comment 265 503 192 196617 Audio multi cable;#B frgb 67 65 107;#P message 45 410 120 196617 jcom.pluggo.configassist;#P hidden newex 143 484 64 196617 prepend help;#P hidden newex 143 508 45 196617 pcontrol;#P comment 265 190 192 196617 Stuff that might come in handy:;#B frgb 67 65 107;#P window setfont "Sans Serif" 18.;#P comment 265 160 210 196626 Utilities;#B frgb 67 65 107;#P window setfont "Sans Serif" 9.;#P comment 24 370 192 196617 Turning modules into pluggos;#B frgb 67 65 107;#P window setfont "Sans Serif" 18.;#P comment 24 340 210 196626 Pluggo;#B frgb 67 65 107;#P window setfont "Sans Serif" 9.;#P comment 24 190 192 196617 Components required:;#B frgb 67 65 107;#P window setfont "Sans Serif" 18.;#P comment 24 160 210 196626 Building new modules;#B frgb 67 65 107;#P window setfont "Sans Serif" 9.;#P message 300 456 54 196617 jcom.thru;#P message 45 392 45 196617 jcom.pp;#P message 300 420 54 196617 jcom.post;#P message 300 348 51 196617 jcom.line;#P message 45 222 48 196617 jcom.gui;#P message 300 312 87 196617 jcom.filewatcher;#P message 300 294 76 196617 jcom.filesaver;#P message 300 258 81 196617 jcom.autosize%;#P message 300 240 77 196617 jcom.autoscale;#P message 497 575 105 196617 jcom.pwindow.mouse;#P message 496 276 43 196617 jcom.pi;#P message 45 240 103 196617 jcom.parameter.gain;#P message 497 557 83 196617 jcom.autocrop%;#P message 610 258 112 196617 jcom.ambimonitor2aed;#P message 496 258 112 196617 jcom.aed2ambimonitor;#P message 300 222 66 196617 jcom.absdiff;#P window linecount 2;#P comment 15 77 402 196617 "component" is a Jamoma nickname for a functionality used in one or more algorithms or modules \, implemented as a patch abstraction rather than an external or javascript.;#B frgb 67 65 107;#P comment 15 107 373 196617 Some of the components are used for particular purposes in specific modules. Only components that might be of more general use are listed here.;#B frgb 67 65 107;#P window setfont "Sans Serif" 18.;#P window linecount 1;#P comment 14 26 203 196626 Jamoma components;#B frgb 255 255 255;#P window setfont "Sans Serif" 9.;#P comment 15 52 277 196617 Overview of components used in Jamoma;#B frgb 255 255 255;#P user panel 8 10 292 63;#X brgb 67 65 107;#X frgb 128 11 10;#X border 0;#X rounded 0;#X shadow 0;#X done;#P hidden connect 9 0 28 0;#P hidden connect 5 0 28 0;#P hidden connect 55 0 28 0;#P hidden connect 47 0 28 0;#P hidden connect 33 0 28 0;#P hidden connect 31 0 28 0;#P hidden connect 32 0 28 0;#P hidden connect 29 0 28 0;#P hidden connect 12 0 28 0;#P hidden connect 13 0 28 0;#P hidden connect 14 0 28 0;#P hidden connect 15 0 28 0;#P hidden connect 17 0 28 0;#P hidden connect 18 0 28 0;#P hidden connect 20 0 28 0;#P hidden connect 19 0 28 0;#P hidden connect 16 0 28 0;#P hidden connect 45 0 28 0;#P hidden connect 46 0 28 0;#P hidden connect 52 0 28 0;#P hidden connect 53 0 28 0;#P hidden connect 54 0 28 0;#P hidden connect 28 0 27 0;#P hidden connect 8 0 40 0;#P hidden connect 11 0 40 0;#P hidden connect 7 0 40 0;#P hidden connect 6 0 40 0;#P hidden connect 10 0 40 0;#P hidden connect 44 0 40 0;#P hidden connect 38 0 40 0;#P hidden connect 37 0 40 0;#P hidden connect 36 0 40 0;#P hidden connect 35 0 40 0;#P hidden connect 50 0 40 0;#P hidden connect 51 0 40 0;#P hidden connect 40 0 39 0;#P pop;#P newobj 34 218 75 196617 p components;#N vpatcher 310 62 919 556;#P window setfont "Sans Serif" 9.;#P window linecount 0;#P message 186 153 83 196617 jcom.colorspace;#P message 186 333 58 196617 jcom.stats;#P message 186 171 113 196617 jcom.cubic_interpolate;#P message 186 351 72 196617 jcom.velocity;#P message 186 207 63 196617 jcom.delta2;#P message 186 189 57 196617 jcom.delta;#P message 186 243 55 196617 jcom.gang;#P hidden newex 69 480 64 196617 prepend help;#P hidden newex 69 500 45 196617 pcontrol;#P window setfont "Sans Serif" 18.;#P comment 25 92 129 196626 Jamoma Core;#B frgb 67 65 107;#P window setfont "Sans Serif" 9.;#P message 186 439 71 196617 jcom.teabox~;#P message 186 422 98 196617 jcom.teabox.count~;#P message 186 405 91 196617 jcom.teabox.bits~;#P message 37 351 55 196617 jcom.send;#P message 37 333 64 196617 jcom.return;#P message 37 315 67 196617 jcom.remote;#P message 37 297 69 196617 jcom.receive;#P message 37 279 58 196617 jcom.ramp;#P message 37 261 82 196617 jcom.parameter;#P message 37 243 55 196617 jcom.out~;#P message 37 225 49 196617 jcom.out;#P message 37 207 73 196617 jcom.message;#P message 37 189 50 196617 jcom.init;#P message 37 153 43 196617 jcom.in;#P message 37 171 49 196617 jcom.in~;#P message 37 135 50 196617 jcom.hub;#P window setfont "Sans Serif" 18.;#P comment 466 92 112 196626 Video;#B frgb 67 65 107;#P window setfont "Sans Serif" 9.;#P message 484 135 62 196617 jcom.sum%;#P window setfont "Sans Serif" 18.;#P comment 25 32 189 196626 Jamoma externals;#B frgb 255 255 255;#P window setfont "Sans Serif" 9.;#P comment 26 58 277 196617 Overview of externals included in the Jamoma distribution.;#B frgb 255 255 255;#P user panel 19 16 292 63;#X brgb 67 65 107;#X frgb 128 11 10;#X border 0;#X rounded 0;#X shadow 0;#X done;#P window setfont "Sans Serif" 18.;#P comment 172 92 112 196626 Control;#B frgb 67 65 107;#P comment 319 92 112 196626 Audio;#B frgb 67 65 107;#P window setfont "Sans Serif" 9.;#P hidden newex 356 305 64 196617 prepend help;#P hidden newex 356 325 45 196617 pcontrol;#P message 186 225 63 196617 jcom.equals;#P message 186 261 74 196617 jcom.oscroute;#P message 186 297 60 196617 jcom.round;#P message 186 315 59 196617 jcom.route;#P message 186 279 55 196617 jcom.pass;#P message 186 135 65 196617 jcom.change;#P window linecount 1;#P message 335 171 68 196617 jcom.meter~;#P message 335 189 87 196617 jcom.saturation~;#P message 335 135 59 196617 jcom.gain~;#P message 335 153 72 196617 jcom.limiter~;#P message 335 207 66 196617 jcom.xfade~;#P hidden connect 20 0 38 0;#P hidden connect 22 0 38 0;#P hidden connect 21 0 38 0;#P hidden connect 23 0 38 0;#P hidden connect 24 0 38 0;#P hidden connect 25 0 38 0;#P hidden connect 26 0 38 0;#P hidden connect 27 0 38 0;#P hidden connect 28 0 38 0;#P hidden connect 29 0 38 0;#P hidden connect 30 0 38 0;#P hidden connect 31 0 38 0;#P hidden connect 32 0 38 0;#P hidden connect 38 0 37 0;#P hidden connect 39 0 12 0;#P hidden connect 35 0 12 0;#P hidden connect 34 0 12 0;#P hidden connect 33 0 12 0;#P hidden connect 4 0 12 0;#P hidden connect 3 0 12 0;#P hidden connect 2 0 12 0;#P hidden connect 1 0 12 0;#P hidden connect 0 0 12 0;#P hidden connect 5 0 12 0;#P hidden connect 6 0 12 0;#P hidden connect 7 0 12 0;#P hidden connect 8 0 12 0;#P hidden connect 9 0 12 0;#P hidden connect 10 0 12 0;#P hidden connect 18 0 12 0;#P hidden connect 45 0 12 0;#P hidden connect 43 0 12 0;#P hidden connect 40 0 12 0;#P hidden connect 41 0 12 0;#P hidden connect 44 0 12 0;#P hidden connect 42 0 12 0;#P hidden connect 12 0 11 0;#P pop;#P newobj 35 166 74 196617 p externals;#N vpatcher 311 59 818 454;#P window setfont "Sans Serif" 18.;#P comment 299 114 189 196626 Control;#B frgb 67 65 107;#P window setfont "Sans Serif" 9.;#P comment 45 144 192 196617 Audio I/O;#B frgb 67 65 107;#P window setfont "Sans Serif" 18.;#P comment 44 114 189 196626 Audio;#B frgb 67 65 107;#P pop;#P newobj 35 140 74 196617 p examples;#N vpatcher 199 58 1068 692;#P origin 30 6;#P window setfont "Sans Serif" 9.;#P window linecount 1;#P message 489 560 102 196617 jmod.gl.videoplane%;#P comment 471 545 192 196617 OpenGL;#B frgb 67 65 107;#P message 489 519 66 196617 jmod.palette;#P message 489 501 86 196617 jmod.colorpicker;#P comment 471 486 192 196617 Colors;#B frgb 67 65 107;#P message 491 425 69 196617 jmod.yfade%;#P message 491 148 74 196617 jmod.record%;#P window linecount 0;#P message 491 461 90 196617 jmod.keyscreen%;#P message 491 443 93 196617 jmod.chromakey%;#P message 707 192 66 196617 jmod.wacom;#P message 707 326 91 196617 jmod.trig_mapper;#P message 38 357 82 196617 jmod.equalizer~;#P message 707 308 93 196617 jmod.cont_mapper;#P message 38 322 61 196617 jmod.echo~;#P message 262 182 115 196617 jmod.sur.speaker.setup;#P comment 236 163 192 196617 Loudspeaker setup and correction;#B frgb 67 65 107;#P hidden newex 401 454 64 196617 prepend help;#P hidden newex 401 478 45 196617 pcontrol;#P window setfont "Sans Serif" 18.;#P comment 226 85 189 196626 Audio - spatialisation;#B frgb 67 65 107;#P window setfont "Sans Serif" 9.;#P comment 236 115 192 196617 General modules;#B frgb 67 65 107;#P message 262 374 111 196617 jmod.sur.ambi.adjust~;#P message 262 287 87 196617 jmod.sur.output~;#P message 262 269 99 196617 jmod.sur.multi.out~;#P message 262 251 93 196617 jmod.sur.multi.in~;#P comment 236 234 192 196617 Multicable;#B frgb 67 65 107;#P comment 236 321 192 196617 Ambisonics;#B frgb 67 65 107;#P message 262 200 121 196617 jmod.sur.speaker.delay~;#P message 262 138 92 196617 jmod.sur.doppler~;#P message 262 356 113 196617 jmod.sur.ambi.decode~;#P message 262 338 113 196617 jmod.sur.ambi.encode~;#P message 38 233 66 196617 jmod.scope~;#P message 490 182 66 196617 jmod.avg4%;#P message 490 254 79 196617 jmod.fluoride%;#P message 490 236 77 196617 jmod.emboss%;#P hidden newex 178 527 64 196617 prepend help;#P hidden newex 178 551 45 196617 pcontrol;#P comment 465 374 192 196617 Compositing;#B frgb 67 65 107;#P comment 459 164 192 196617 Filters;#B frgb 67 65 107;#P comment 460 115 192 196617 Video I/O;#B frgb 67 65 107;#P message 491 407 69 196617 jmod.xfade%;#P message 491 129 66 196617 jmod.input%;#P message 490 218 64 196617 jmod.edge%;#P message 490 326 62 196617 jmod.plur%;#P comment 683 347 155 196617 Others;#B frgb 67 65 107;#P comment 683 233 155 196617 Controlling Jamoma;#B frgb 67 65 107;#P message 707 138 62 196617 jmod.midiin;#P comment 683 115 155 196617 Data I/O;#B frgb 67 65 107;#P message 707 156 63 196617 jmod.mouse;#P message 490 308 72 196617 jmod.orsize%;#P window setfont "Sans Serif" 18.;#P comment 683 85 152 196626 Control;#B frgb 67 65 107;#P comment 460 85 189 196626 Video;#B frgb 67 65 107;#P window setfont "Sans Serif" 9.;#P comment 16 269 192 196617 Audio FX;#B frgb 67 65 107;#P comment 16 190 192 196617 Mixing and Metering;#B frgb 67 65 107;#P comment 16 115 192 196617 Audio I/O;#B frgb 67 65 107;#P window setfont "Sans Serif" 18.;#P comment 15 85 189 196626 Audio;#B frgb 67 65 107;#P window setfont "Sans Serif" 9.;#P message 707 211 64 196617 jmod.oscnet;#P message 490 272 70 196617 jmod.mblur%;#P message 707 290 68 196617 jmod.mapper;#P message 707 174 43 196617 jmod.hi;#P message 38 375 72 196617 jmod.limiter~;#P message 38 138 63 196617 jmod.input~;#P message 490 344 67 196617 jmod.wake%;#P message 38 411 87 196617 jmod.saturation~;#P message 38 288 76 196617 jmod.degrade~;#P message 707 369 67 196617 jmod.qmetro;#P message 38 156 69 196617 jmod.output~;#P message 707 254 67 196617 jmod.control;#P message 38 305 65 196617 jmod.delay~;#P message 38 339 65 196617 jmod.filter~;#P message 707 272 65 196617 jmod.cuelist;#P message 491 389 54 196617 jmod.op%;#P message 38 393 83 196617 jmod.noisegate~;#P message 490 200 74 196617 jmod.brcosa%;#P message 490 290 74 196617 jmod.motion%;#P message 38 215 85 196617 jmod.crossfade~;#P hidden newex 660 495 64 196617 prepend help;#P hidden newex 660 519 45 196617 pcontrol;#P window setfont "Sans Serif" 18.;#P comment 15 23 189 196626 Jamoma modules;#B frgb 255 255 255;#P window setfont "Sans Serif" 9.;#P comment 16 49 277 196617 Overview of modules;#B frgb 255 255 255;#P user panel 9 7 292 63;#X brgb 67 65 107;#X frgb 128 11 10;#X border 0;#X rounded 0;#X shadow 0;#X done;#P hidden connect 68 0 45 0;#P hidden connect 66 0 45 0;#P hidden connect 49 0 45 0;#P hidden connect 17 0 45 0;#P hidden connect 8 0 45 0;#P hidden connect 20 0 45 0;#P hidden connect 11 0 45 0;#P hidden connect 12 0 45 0;#P hidden connect 16 0 45 0;#P hidden connect 5 0 45 0;#P hidden connect 14 0 45 0;#P hidden connect 19 0 45 0;#P hidden connect 45 0 44 0;#P hidden connect 52 0 63 0;#P hidden connect 53 0 63 0;#P hidden connect 56 0 63 0;#P hidden connect 57 0 63 0;#P hidden connect 58 0 63 0;#P hidden connect 50 0 63 0;#P hidden connect 51 0 63 0;#P hidden connect 59 0 63 0;#P hidden connect 65 0 63 0;#P hidden connect 63 0 62 0;#P hidden connect 79 0 4 0;#P hidden connect 77 0 4 0;#P hidden connect 76 0 4 0;#P hidden connect 74 0 4 0;#P hidden connect 67 0 4 0;#P hidden connect 48 0 4 0;#P hidden fasten 46 0 4 0 492 270;#P hidden connect 47 0 4 0;#P hidden connect 6 0 4 0;#P hidden connect 7 0 4 0;#P hidden connect 9 0 4 0;#P hidden connect 23 0 4 0;#P hidden connect 18 0 4 0;#P hidden connect 13 0 4 0;#P hidden connect 10 0 4 0;#P hidden connect 21 0 4 0;#P hidden connect 22 0 4 0;#P hidden connect 24 0 4 0;#P hidden connect 15 0 4 0;#P hidden connect 31 0 4 0;#P hidden connect 32 0 4 0;#P hidden connect 34 0 4 0;#P hidden connect 37 0 4 0;#P hidden connect 39 0 4 0;#P hidden connect 38 0 4 0;#P hidden connect 40 0 4 0;#P hidden connect 70 0 4 0;#P hidden connect 69 0 4 0;#P hidden connect 72 0 4 0;#P hidden connect 71 0 4 0;#P hidden connect 73 0 4 0;#P hidden connect 4 0 3 0;#P pop;#P newobj 35 114 74 196617 p modules;#P window setfont "Sans Serif" 18.;#P comment 30 38 189 196626 Jamoma;#B frgb 255 255 255;#P window setfont "Sans Serif" 9.;#P window linecount 2;#P comment 31 64 180 196617 Overview of modules \, examples \, externals \, javascripts and components;#B frgb 255 255 255;#P user panel 24 22 205 72;#X brgb 67 65 107;#X frgb 128 11 10;#X border 0;#X rounded 0;#X shadow 0;#X done;#P pop;